<svg height="96" width="96" xmlns="http://www.w3.org/2000/svg" xmlns:xlink="http://www.w3.org/1999/xlink"><linearGradient id="a" stop-color="#fff"><stop offset="0"/><stop offset="1" stop-opacity="0"/></linearGradient><linearGradient id="b"><stop offset="0" stop-color="#262626"/><stop offset="1" stop-color="#303030"/></linearGradient><linearGradient id="c" gradientTransform="matrix(1.8576984 0 0 2.1308127 3.380041 -.963273)" gradientUnits="userSpaceOnUse" x1="12.578789" x2="12.578789" xlink:href="#a" y1="2.913743" y2="43.810863"/><linearGradient id="d" gradientTransform="matrix(1.5405636 0 0 1.5085509 -1.679756 -4.172855)" gradientUnits="userSpaceOnUse" x1="33.579403" x2="33.579403" xlink:href="#b" y1="5.708645" y2="16.323294"/><linearGradient id="e" gradientTransform="matrix(1.8906253 0 0 2.2869885 2.592057 -11.568916)" gradientUnits="userSpaceOnUse" x1="16.91585" x2="16.91585" xlink:href="#b" y1="7.000642" y2="14"/><linearGradient id="f" gradientTransform="matrix(1.8338355 0 0 .8026615 3.967497 12.316259)" gradientUnits="userSpaceOnUse" x1="24.682861" x2="24.682861" xlink:href="#a" y1="9.241672" y2="13.523027"/><radialGradient id="g" cx="26.616697" cy="-2.064498" gradientTransform="matrix(-.00000003 -2.4452059 2.6407404 0 70.589407 122.74057)" gradientUnits="userSpaceOnUse" r="23"><stop offset="0" stop-color="#40ecf2"/><stop offset="1" stop-color="#0074b6"/></radialGradient><radialGradient id="h" cx="605.71429" cy="486.64789" gradientTransform="matrix(-.10165993 0 0 .045903 76.889735 67.218605)" gradientUnits="userSpaceOnUse" r="117.14286" xlink:href="#a"/><radialGradient id="i" cx="605.71429" cy="486.64789" gradientTransform="matrix(.10166 0 0 .045903 19.044388 67.218605)" gradientUnits="userSpaceOnUse" r="117.14286" xlink:href="#a"/><linearGradient id="j" gradientTransform="matrix(.13396817 0 0 .045903 -.452873 67.218605)" gradientUnits="userSpaceOnUse" x1="302.85715" x2="302.85715" y1="366.64789" y2="609.50507"><stop offset="0" stop-opacity="0"/><stop offset=".5"/><stop offset="1" stop-opacity="0"/></linearGradient><path d="m15.623315 84.048843h64.687508v11.147876h-64.687508z" fill="url(#j)" opacity=".3"/><path d="m80.310811 84.049233v11.147234c5.235236.02098 12.656259-2.497514 12.65625-5.574337 0-3.07681-5.842134-5.572897-12.65625-5.572897z" fill="url(#i)" opacity=".3"/><path d="m15.623312 84.049233v11.147234c-5.235236.02098-12.6562504-2.497514-12.6562504-5.574337 0-3.07681 5.8421282-5.572897 12.6562504-5.572897z" fill="url(#h)" opacity=".3"/><g fill-rule="evenodd"><rect fill="url(#g)" height="84.893532" rx="4.921876" ry="6.002702" stroke="#505050" stroke-linecap="round" stroke-linejoin="round" stroke-width=".778155" width="85.07663" x="5.428751" y="5.585886"/><path d="m5.779563 19.734192h84.375v3.430116h-84.375z" fill="url(#f)" opacity=".2"/><path d="m11.09987 5.584967s74.370069.019636 74.370069.019636c2.958686 0 5.036185 2.8843214 5.036185 6.076026v7.624794h-85.078129v-7.624794c0-3.4019435 2.2853597-6.0956664 5.671875-6.0956664z" fill="url(#d)" stroke="url(#e)" stroke-width=".776499"/></g><rect height="83.177086" rx="4.21875" ry="5.145173" style="opacity:.4;fill:none;stroke-width:.779396;stroke-linecap:round;stroke-linejoin:round;stroke:url(#c)" width="83.669258" x="6.132434" y="6.444139"/></svg>