<svg height="24" width="24" xmlns="http://www.w3.org/2000/svg" xmlns:xlink="http://www.w3.org/1999/xlink"><linearGradient id="a" gradientTransform="matrix(1.4407459 0 0 1.6458268 4.11799 7.272274)" gradientUnits="userSpaceOnUse" x1="11.350123" x2="11.350123" y1=".666966" y2="8.172179"><stop offset="0" stop-color="#fff"/><stop offset=".0097359" stop-color="#fff" stop-opacity=".235294"/><stop offset=".99001008" stop-color="#fff" stop-opacity=".156863"/><stop offset="1" stop-color="#fff" stop-opacity=".392157"/></linearGradient><linearGradient id="b" gradientTransform="matrix(.57234749 0 0 .50840712 -27.397488 .290353)" gradientUnits="userSpaceOnUse" x1="76.041" x2="76.041" y1="49.372032" y2="35.430561"><stop offset="0" stop-color="#0a0a0a" stop-opacity=".498"/><stop offset="1" stop-color="#0a0a0a" stop-opacity="0"/></linearGradient><linearGradient id="c" gradientTransform="matrix(.48737385 0 0 .50985078 -24.713187 -.550948)" gradientUnits="userSpaceOnUse" x1="84.30883" x2="84.30883" y1="16.110577" y2="42.923553"><stop offset="0" stop-color="#55a7f3"/><stop offset="1" stop-color="#1374cf"/></linearGradient><linearGradient id="d" gradientTransform="matrix(.47640735 0 0 .46908717 30.635905 -.249195)" gradientUnits="userSpaceOnUse" x1="-51.786404" x2="-51.786404" y1="53.514328" y2="2.061275"><stop offset="0" stop-opacity=".321739"/><stop offset="1" stop-opacity=".278261"/></linearGradient><path d="m2.5399683 2.9964919-.0013 2.0124966-1.5264855.00449-.0121828 5.8306925h22v-5.8336404l-10.72925.00295-.0045-2.0095445z" fill="#cecece"/><path d="m23.500001 6.7525654v-1.8133078c0-.2363406-.170966-.4266075-.383334-.4266075h-10.35v-1.5860426c0-.2363404-.170966-.4266074-.383333-.4266074h-9.9666673c-.2123666 0-.3833333.190267-.3833333.4266074v1.5860426h-1.15000008c-.21236666 0-.38333332.1902669-.38333332.4266075v1.8133078" fill="none" opacity=".8" stroke="url(#d)"/><path d="m1.0875452 7c1.107294 0 21.0538378.0471807 21.9124548.0471807 0 .9235932-.041665 14.9447393-.091231 14.9447393-7.690775.02657-19.6694123-.0209-21.908769-.0209 0-1.743091.0875818-11.3838.0875818-14.9710004z" fill="url(#c)"/><path d="m.0954332 6c1.2079529 0 22.9678898.0527 23.9045668.0527 0 1.0467202-.04545 16.937722-.09945 16.937722-8.389974.030909-21.4576142-.022881-23.90055-.022881 0-1.975551.0954-12.901924.0954-16.9675022z" fill="url(#b)" opacity=".4"/><path d="m1.5835485 7.5000025c1.0569624 0 20.0968715.043925 20.9164525.043925 0 .8620351-.03973 13.9485035-.08707 13.9485035-7.341198.02484-18.7753743-.01943-20.9129319-.01943 0-1.626892.083515-10.624947.083515-13.9730053z" fill="none" opacity=".5" stroke="url(#a)" stroke-linecap="round"/><path d="m.59152944 6.4999999c1.15762566 0 22.01082856.050326 22.90847256.050326 0 .9851661-.04356 15.9410551-.09538 15.9410551-8.040356.02834-20.5634766-.0223-22.90462202-.0223 0-1.859298.091562-12.142721.091562-15.9690696z" fill="none" opacity=".3" stroke="#000" stroke-linecap="round" stroke-linejoin="round"/><path d="m-38.426083 30.243564c-4.17915 4.163838-4.17915 10.92253 0 15.086367 3.643284 3.629938 9.255966 4.113396 13.406844 1.414348.705558.03527 1.843317.132334 2.247616.589311.550493.622214-.227676 2.076822.828071 3.025131l6.565989 6.653055s1.218024 1.300833 3.115121-.589314c1.897098-1.890146.59148-3.103706.59148-3.103706l-6.565991-6.653053c-.951798-1.051878-2.411754-.276563-3.036257-.825036-.458659-.402816-.556088-1.536408-.591478-2.239383 2.708973-4.135669 2.223738-9.727785-1.419548-13.35772-4.179151-4.163837-10.962697-4.163837-15.141847 0zm2.563073 2.475106c1.291967-1.287231 3.077212-2.042944 5.047282-2.042944 3.94014 0 7.137172 3.185317 7.137172 7.111021 0 3.925706-3.19703 7.111023-7.137172 7.111023-3.940138.000001-7.137171-3.185317-7.137171-7.111023 0-1.962852.797922-3.780844 2.089889-5.068077z" fill="#00508c" opacity=".9" transform="matrix(.36269268767 0 0 .36270727835 22.00725155177 -.86729953243)"/></svg>