<svg height="24" width="24" xmlns="http://www.w3.org/2000/svg" xmlns:xlink="http://www.w3.org/1999/xlink"><linearGradient id="a"><stop offset="0" stop-color="#fff"/><stop offset="1" stop-color="#fff" stop-opacity="0"/></linearGradient><linearGradient id="b" gradientTransform="matrix(1.0238095 0 0 1.0119048 -1.142857 -98.071429)" gradientUnits="userSpaceOnUse" x1="32.251034" x2="32.251034" y1="6.131708" y2="90.238609"><stop offset="0"/><stop offset="1" stop-opacity=".588235"/></linearGradient><linearGradient id="c" gradientUnits="userSpaceOnUse" x1="48" x2="48" y1="-6" y2="-90.012283"><stop offset="0" stop-color="#004f94"/><stop offset="1" stop-color="#033775"/></linearGradient><radialGradient id="d" cx="48" cy="90.171875" gradientTransform="matrix(1.1573129 0 0 .99590774 -7.551021 .197132)" gradientUnits="userSpaceOnUse" r="42" xlink:href="#a"/><linearGradient id="e" gradientUnits="userSpaceOnUse" x1="48" x2="48" xlink:href="#a" y1="20.220806" y2="138.66119"/><clipPath id="f"><rect height="84" rx="6" width="84" x="6" y="6"/></clipPath><filter id="g" color-interpolation-filters="sRGB" height="1.384" width="1.384" x="-.192" y="-.192"><feGaussianBlur stdDeviation="5.28"/></filter><linearGradient id="h" gradientUnits="userSpaceOnUse" x1="36.357143" x2="36.357143" xlink:href="#a" y1="6" y2="63.893143"/><g fill="url(#b)"><path d="m12-95.03125c-5.5110903 0-10.03125 4.52016-10.03125 10.03125v71c0 5.5110902 4.5201598 10.03125 10.03125 10.03125h72c5.51109 0 10.03125-4.5201597 10.03125-10.03125v-71c0-5.51109-4.52016-10.03125-10.03125-10.03125z" opacity=".08" transform="matrix(.23896809102 0 0 -.24159231103 .52953118204 .54118086045)"/><path d="m12-94.03125c-4.971633 0-9.03125 4.059617-9.03125 9.03125v71c0 4.9716329 4.0596171 9.03125 9.03125 9.03125h72c4.971633 0 9.03125-4.059617 9.03125-9.03125v-71c0-4.971633-4.059617-9.03125-9.03125-9.03125z" opacity=".1" transform="matrix(.23896809102 0 0 -.24159231103 .52953118204 .54118086045)"/><path d="m12-93c-4.4091333 0-8 3.590867-8 8v71c0 4.4091333 3.5908667 8 8 8h72c4.409133 0 8-3.5908667 8-8v-71c0-4.409133-3.590867-8-8-8z" opacity=".2" transform="matrix(.23896809102 0 0 -.24159231103 .52953118204 .54118086045)"/><rect height="85" opacity=".3" rx="7" transform="matrix(.23896809102 0 0 -.24159231103 .52953118204 .54118086045)" width="86" x="5" y="-92"/></g><g transform="matrix(.23896809305 0 0 .24159231308 -4.47898902695 -5.4934100643)"><g transform="translate(20.949153 22.90678)"><rect fill="url(#c)" height="84" rx="6" transform="scale(1 -1)" width="84" x="6" y="-90"/><path d="m12 6c-3.324 0-6 2.676-6 6v2 68 2c0 .334721.04135.6507.09375.96875.0487.295596.09704.596915.1875.875.00988.03038.020892.0636.03125.09375.098865.287771.2348802.547452.375.8125.1445918.273507.3156161.535615.5.78125s.3737765.473472.59375.6875c.439947.428056.94291.814526 1.5 1.09375.278545.139612.5734731.246947.875.34375-.2562018-.100222-.4867109-.236272-.71875-.375-.00741-.0044-.023866.0045-.03125 0-.031933-.0193-.062293-.04251-.09375-.0625-.120395-.0767-.2310226-.163513-.34375-.25-.1061728-.0808-.2132809-.161112-.3125-.25-.1779299-.161433-.3474596-.345388-.5-.53125-.1075789-.130255-.2183939-.265285-.3125-.40625-.025089-.03838-.038446-.08587-.0625-.125-.064763-.103032-.1302275-.204517-.1875-.3125-.1010083-.194706-.2056748-.415701-.28125-.625-.00796-.02181-.023589-.04055-.03125-.0625-.0318251-.09195-.0358045-.186831-.0625-.28125-.0303323-.106618-.0703894-.203031-.09375-.3125-.0728786-.341512-.125-.698205-.125-1.0625v-2-68-2c0-2.781848 2.2181517-5 5-5h2 68 2c2.781848 0 5 2.218152 5 5v2 68 2c0 .364295-.05212.720988-.125 1.0625-.04415.206893-.08838.397658-.15625.59375-.0077.02195-.0233.04069-.03125.0625-.06274.173739-.138383.367449-.21875.53125-.04158.0828-.07904.169954-.125.25-.0546.09721-.126774.18835-.1875.28125-.09411.140965-.204921.275995-.3125.40625-.143174.17445-.303141.346998-.46875.5-.01117.0102-.01998.02115-.03125.03125-.138386.125556-.285091.234436-.4375.34375-.102571.07315-.204318.153364-.3125.21875-.0074.0045-.02384-.0044-.03125 0-.232039.138728-.462548.274778-.71875.375.301527-.0968.596455-.204138.875-.34375.55709-.279224 1.060053-.665694 1.5-1.09375.219973-.214028.409366-.441865.59375-.6875s.355408-.507743.5-.78125c.14012-.265048.276135-.524729.375-.8125.01041-.03078.02133-.06274.03125-.09375.09046-.278085.1388-.579404.1875-.875.0524-.31805.09375-.634029.09375-.96875v-2-68-2c0-3.324-2.676-6-6-6z" fill="url(#h)" opacity=".4"/><path d="m12 90c-3.324 0-6-2.676-6-6v-2-68-2c0-.334721.04135-.6507.09375-.96875.0487-.295596.09704-.596915.1875-.875.00988-.03038.020892-.0636.03125-.09375.098865-.287771.2348802-.547452.375-.8125.1445918-.273507.3156161-.535615.5-.78125s.3737765-.473472.59375-.6875c.439947-.428056.94291-.814526 1.5-1.09375.278545-.139612.5734731-.246947.875-.34375-.2562018.100222-.4867109.236272-.71875.375-.00741.0044-.023866-.0045-.03125 0-.031933.0193-.062293.04251-.09375.0625-.120395.0767-.2310226.163513-.34375.25-.1061728.0808-.2132809.161112-.3125.25-.1779299.161433-.3474596.345388-.5.53125-.1075789.130255-.2183939.265285-.3125.40625-.025089.03838-.038446.08587-.0625.125-.064763.103032-.1302275.204517-.1875.3125-.1010083.194706-.2056748.415701-.28125.625-.00796.02181-.023589.04055-.03125.0625-.0318251.09195-.0358045.186831-.0625.28125-.0303323.106618-.0703894.203031-.09375.3125-.0728786.341512-.125.698205-.125 1.0625v2 68 2c0 2.781848 2.2181517 5 5 5h2 68 2c2.781848 0 5-2.218152 5-5v-2-68-2c0-.364295-.05212-.720988-.125-1.0625-.04415-.206893-.08838-.397658-.15625-.59375-.0077-.02195-.0233-.04069-.03125-.0625-.06274-.173739-.138383-.367449-.21875-.53125-.04158-.0828-.07904-.169954-.125-.25-.0546-.09721-.126774-.18835-.1875-.28125-.09411-.140965-.204921-.275995-.3125-.40625-.143174-.17445-.303141-.346998-.46875-.5-.01117-.0102-.01998-.02115-.03125-.03125-.138386-.125556-.285091-.234436-.4375-.34375-.102571-.07315-.204318-.153364-.3125-.21875-.0074-.0045-.02384.0044-.03125 0-.232039-.138728-.462548-.274778-.71875-.375.301527.0968.596455.204138.875.34375.55709.279224 1.060053.665694 1.5 1.09375.219973.214028.409366.441865.59375.6875s.355408.507743.5.78125c.14012.265048.276135.524729.375.8125.01041.03078.02133.06274.03125.09375.09046.278085.1388.579404.1875.875.0524.31805.09375.634029.09375.96875v2 68 2c0 3.324-2.676 6-6 6z" fill="url(#d)" opacity=".2"/></g><rect height="66" rx="12" style="opacity:.1;stroke:#fff;stroke-width:.5;stroke-linecap:round;clip-path:url(#f);fill:url(#e);filter:url(#g)" transform="translate(20.949153 22.90678)" width="66" x="15" y="15"/><g fill="#00dcff" stroke="#00dcff" stroke-width=".83863" transform="matrix(.3639313 0 0 .3639313 -1.58447 -152.90137)"><path d="m177.89056 597.12767h-.01c-6.6729 0-12.10712-5.42671-12.11419-12.09501-.01-6.69051 5.42514-12.12528 12.1041-12.13236 6.68298 0 12.1162 5.42671 12.12426 12.09501 0 6.69052-5.42512 12.1263-12.10408 12.13337z" stroke-width=".83863"/><path d="m210.60812 588.24494c-6.23094 0-11.30246-5.06615-11.30657-11.29167-.01-6.24198 5.06123-11.31635 11.2963-11.32148 6.23916 0 11.31068 5.0651 11.31683 11.29063 0 6.24197-5.06224 11.31635-11.29628 11.32252h-.01z" stroke-width=".83863"/><path d="m-10-15.700835a7 7 0 1 1 -14 0 7 7 0 1 1 14 0z" stroke-width=".581508" transform="matrix(1.4421651 0 0 1.4421651 215.7232 578.60266)"/><path d="m94-16.522263a11.5 11.5 0 1 1 -23 0 11.5 11.5 0 1 1 23 0z" stroke-width="1.038407" transform="matrix(.80761247 0 0 .80761247 140.73061 552.34319)"/><path d="m11-37.522263a10.5 10.5 0 1 1 -21 0 10.5 10.5 0 1 1 21 0z" stroke-width="1.090327" transform="matrix(.76915473 0 0 .76915473 187.18756 551.30398)"/></g><path d="m53.138014 67.867937c-3.430398 4.446379-6.212496 9.447528-6.212496 15.506092 0 13.132295 9.965314 23.962631 22.321356 23.962631 12.355671 0 22.321356-10.83028 22.321356-23.962631 0-6.059765-2.786523-10.902005-6.41088-15.506084-1.359056-1.42615-3.321145-1.214101-4.749523-.301522-4.17966 2.162723-6.435801 3.02682-11.160953 3.005654-4.569976-.02053-6.971048-.766807-11.150938-3.045336-1.428376-.872897-3.598869-1.084954-4.957922.341196zm2.978651 3.688909c4.332405 2.395457 8.196241 3.610805 13.130209 3.610805 4.938141 0 8.79558-1.215365 13.13021-3.610805 2.365242 3.335021 4.595571 7.470398 4.595571 11.817183 0 10.767197-7.935671 19.367061-17.725781 19.367061-9.79058 0-18.054042-8.599809-18.054042-19.367061 0-4.341052 2.553432-8.479556 4.923833-11.817183z" fill="#fcffff" stroke="#fff" stroke-width=".610408"/></g></svg>