<svg height="24" width="24" xmlns="http://www.w3.org/2000/svg" xmlns:xlink="http://www.w3.org/1999/xlink"><linearGradient id="a"><stop offset="0" stop-color="#fff"/><stop offset="1" stop-color="#fff" stop-opacity="0"/></linearGradient><linearGradient id="b"><stop offset="0" stop-color="#9e9e9e"/><stop offset="1" stop-color="#656565"/></linearGradient><linearGradient id="c"><stop offset="0" stop-color="#686868"/><stop offset="1" stop-color="#d2d2d2"/></linearGradient><linearGradient id="d"><stop offset="0" stop-color="#dfdfdf"/><stop offset="1" stop-color="#686868"/></linearGradient><linearGradient id="e" gradientUnits="userSpaceOnUse" x1="3.98472" x2="1.0712" xlink:href="#d" y1="13.931732" y2="20.935623"/><linearGradient id="f" gradientUnits="userSpaceOnUse" x1="19.994608" x2="22.955753" xlink:href="#d" y1="14.587048" y2="21.05848"/><linearGradient id="g" gradientUnits="userSpaceOnUse" x1="12.111214" x2="12.020665" xlink:href="#c" y1="33.127098" y2="22.232155"/><linearGradient id="h" gradientUnits="userSpaceOnUse" x1="9.933891" x2="9.899348" xlink:href="#b" y1="22.191196" y2="30.014255"/><linearGradient id="i" gradientUnits="userSpaceOnUse" x1="9.933891" x2="9.899348" xlink:href="#a" y1="22.191196" y2="30.014255"/><linearGradient id="j" gradientUnits="userSpaceOnUse" x1="3.279927" x2="8.206465" xlink:href="#b" y1="14.259399" y2="18.273325"/><linearGradient id="k" gradientTransform="matrix(1.0134538 0 0 .65864057 -.161396 11.843857)" gradientUnits="userSpaceOnUse" x1="11.334118" x2="11.149202" y1="1.761231" y2="13.319177"><stop offset="0" stop-color="#9e9e9e"/><stop offset="1" stop-color="#878787"/></linearGradient><linearGradient id="l" gradientUnits="userSpaceOnUse" x1="21.551029" x2="17.0987" xlink:href="#b" y1="16.225385" y2="17.495096"/><linearGradient id="m" gradientTransform="matrix(.99609579 0 0 1.1930934 .047017 2.797232)" gradientUnits="userSpaceOnUse" x1="14.443072" x2="14.522355" xlink:href="#b" y1="15.124065" y2="10.835641"/><linearGradient id="n" gradientTransform="matrix(1.0134538 0 0 .65864057 -.161396 11.843857)" gradientUnits="userSpaceOnUse" x1="12.759906" x2="12.876342" xlink:href="#c" y1="12.821736" y2="2.80567"/><linearGradient id="o" gradientTransform="matrix(.99735741 0 0 1.1253974 .031824 -4.731711)" gradientUnits="userSpaceOnUse" x1="12.987228" x2="12.940624" xlink:href="#d" y1="14.997477" y2="29.698929"/><linearGradient id="p" gradientTransform="matrix(1.0092219 0 0 .7670215 -.110704 11.517704)" gradientUnits="userSpaceOnUse" x1="12.551643" x2="12.40731" xlink:href="#a" y1="6.246773" y2="-1.205439"/><linearGradient id="q" gradientTransform="matrix(0 .319447 -.313352 0 15.486281 .91413)" gradientUnits="userSpaceOnUse" x1="16.571032" x2="44.094543" y1="14.001868" y2="14.001868"><stop offset="0" stop-color="#f8cd70"/><stop offset="1" stop-color="#cc9110"/></linearGradient><linearGradient id="r" gradientTransform="matrix(0 -.3704967 -.3617496 0 17.508315 17.332054)" gradientUnits="userSpaceOnUse" x1="36.991932" x2="-7.200998" xlink:href="#a" y1="20.441076" y2="20.441076"/><g transform="translate(0 -8)"><g stroke-linejoin="round"><path d="m18.465685 19.477602-12.863814.04187-4.97181548 8.972634h22.82498548l-4.989356-9.014514z" fill="url(#o)" stroke="url(#m)" stroke-width="1.008538"/><path d="m3.3929166 19.573827 17.1818374.0077.000494-6.076251-17.1939038.02698.011572 6.041542.0000004.000029z" fill="url(#n)" stroke="url(#k)" stroke-linecap="round"/><path d="m3.3951458 13.504038-2.89189273 7.010633.08788918 8.057329 3.94359585-9.418492-.0088237-5.582137z" fill="url(#e)" stroke="url(#j)" stroke-linecap="round"/><path d="m19.51666 19.052566-.0409-5.567514 1.126387.0014 2.886075 6.981389-.006 8.080717z" fill="url(#f)" stroke="url(#l)" stroke-linecap="round"/><path d="m23.568964 28.522777-.07992-7.984784-5.970221-.03876.02244 3.012871-11.0207251.04096-.018512-3.017275-5.90011489-.03876-.0799439 8.025738 23.04699689.000008z" fill="url(#g)" stroke="url(#h)"/><path d="m22.463903 20.692494-2.457013-6.209246-16.0162283.031458-2.4459818 6.127867" fill="none" opacity=".81" stroke="url(#p)" stroke-linecap="round"/><path d="m22.58596 27.498834-.03896-6.018772-4.045175.0022.02244 3.012871-12.9867293.04096.022446-3.017274-4.0569856.04316.00197 5.977815 21.0809909-.04096z" fill="none" opacity=".5" stroke="url(#i)"/></g><g stroke-width=".998294" transform="matrix(.99997102 0 0 1 4.000232 7)"><path d="m14.176046 8.5-6.1915613-7.000853-6.1605311 7.000853h2.676046v6.000853h7.0000004v-6.000853z" fill="url(#q)" stroke="#bf8407" stroke-linecap="round" stroke-linejoin="round"/><path d="m11.926403 7.5-3.926403-4.545115-4.0369384 4.545115h1.536938v6h5.0000004v-6z" fill="none" opacity=".354" stroke="url(#r)"/></g></g></svg>