<svg height="24" width="24" xmlns="http://www.w3.org/2000/svg" xmlns:xlink="http://www.w3.org/1999/xlink"><linearGradient id="a"><stop offset="0" stop-color="#fff"/><stop offset="1" stop-color="#fff" stop-opacity="0"/></linearGradient><linearGradient id="b" gradientTransform="matrix(1.0238095 0 0 1.0119048 -1.142857 -98.071429)" gradientUnits="userSpaceOnUse" x1="32.251034" x2="32.251034" y1="6.131708" y2="90.238609"><stop offset="0"/><stop offset="1" stop-opacity=".588235"/></linearGradient><linearGradient id="c" gradientUnits="userSpaceOnUse" x1="48" x2="48" y1="-6" y2="-90.012283"><stop offset="0" stop-color="#617ec4"/><stop offset="1" stop-color="#244c8d"/></linearGradient><filter id="d" color-interpolation-filters="sRGB"><feGaussianBlur stdDeviation="1.4999053"/></filter><linearGradient id="e" gradientTransform="matrix(.05254999 0 0 -.0526412 3.891689 82.863369)" gradientUnits="userSpaceOnUse" x1="480.53683" x2="1140.4358" xlink:href="#f" y1="974.90161" y2="300.62057"/><linearGradient id="f"><stop offset="0" stop-color="#fac45a"/><stop offset=".52493125" stop-color="#f7a909"/><stop offset="1" stop-color="#d49109"/></linearGradient><linearGradient id="g" gradientTransform="matrix(.05254999 0 0 -.0526412 3.891688 82.863365)" gradientUnits="userSpaceOnUse" x1="480.53683" x2="1140.4358" xlink:href="#f" y1="974.90161" y2="300.62057"/><linearGradient id="h" gradientTransform="matrix(.05877685 0 0 -.05887887 -4.001328 87.067622)" gradientUnits="userSpaceOnUse" x1="480.53683" x2="1140.4358" xlink:href="#f" y1="974.90161" y2="300.62057"/><linearGradient id="i" gradientUnits="userSpaceOnUse" x1="73.903694" x2="77.431808" xlink:href="#f" y1="45.038944" y2="45.038944"/><linearGradient id="j" gradientUnits="userSpaceOnUse" x1="74.802544" x2="80.854202" xlink:href="#f" y1="48.475391" y2="48.475391"/><linearGradient id="k" gradientUnits="userSpaceOnUse" x1="74.045731" x2="77.865479" xlink:href="#f" y1="51.972027" y2="51.972027"/><linearGradient id="l" gradientUnits="userSpaceOnUse" x1="70.15313" x2="73.67482" xlink:href="#f" y1="52.034462" y2="52.034462"/><linearGradient id="m" gradientUnits="userSpaceOnUse" x1="69.71579" x2="73.53627" xlink:href="#f" y1="45.102455" y2="45.102455"/><linearGradient id="n" gradientTransform="matrix(.32321174 0 0 .32377277 -195.12202 -21.919734)" gradientUnits="userSpaceOnUse" x1="1086.5875" x2="1086.5875" y1="257.30719" y2="299.31668"><stop offset="0" stop-color="#415ea4"/><stop offset="1" stop-color="#19458c"/></linearGradient><linearGradient id="o" gradientUnits="userSpaceOnUse" x1="48" x2="48" xlink:href="#a" y1="20.220806" y2="138.66119"/><clipPath id="p"><rect height="84" rx="6" width="84" x="6" y="6"/></clipPath><filter id="q" color-interpolation-filters="sRGB" height="1.384" width="1.384" x="-.192" y="-.192"><feGaussianBlur stdDeviation="5.28"/></filter><radialGradient id="r" cx="48" cy="90.171875" gradientTransform="matrix(1.1573129 0 0 .99590774 -7.551021 .197132)" gradientUnits="userSpaceOnUse" r="42" xlink:href="#a"/><linearGradient id="s" gradientUnits="userSpaceOnUse" x1="36.357143" x2="36.357143" xlink:href="#a" y1="6" y2="63.893143"/><g fill="url(#b)"><path d="m12-95.03125c-5.5110903 0-10.03125 4.52016-10.03125 10.03125v71c0 5.5110902 4.5201598 10.03125 10.03125 10.03125h72c5.51109 0 10.03125-4.5201597 10.03125-10.03125v-71c0-5.51109-4.52016-10.03125-10.03125-10.03125z" opacity=".08" transform="matrix(.23896809102 0 0 -.24159231103 .52953118204 .54118086045)"/><path d="m12-94.03125c-4.971633 0-9.03125 4.059617-9.03125 9.03125v71c0 4.9716329 4.0596171 9.03125 9.03125 9.03125h72c4.971633 0 9.03125-4.059617 9.03125-9.03125v-71c0-4.971633-4.059617-9.03125-9.03125-9.03125z" opacity=".1" transform="matrix(.23896809102 0 0 -.24159231103 .52953118204 .54118086045)"/><path d="m12-93c-4.4091333 0-8 3.590867-8 8v71c0 4.4091333 3.5908667 8 8 8h72c4.409133 0 8-3.5908667 8-8v-71c0-4.409133-3.590867-8-8-8z" opacity=".2" transform="matrix(.23896809102 0 0 -.24159231103 .52953118204 .54118086045)"/><rect height="85" opacity=".3" rx="7" transform="matrix(.23896809102 0 0 -.24159231103 .52953118204 .54118086045)" width="86" x="5" y="-92"/></g><g transform="matrix(.23896809181 0 0 .24159231183 .52719243822 .04069216119)"><rect fill="url(#c)" height="84" rx="6" transform="scale(1 -1)" width="84" x="6" y="-90"/><path d="m12 6c-3.324 0-6 2.676-6 6v2 68 2c0 .334721.04135.6507.09375.96875.0487.295596.09704.596915.1875.875.00988.03038.020892.0636.03125.09375.098865.287771.2348802.547452.375.8125.1445918.273507.3156161.535615.5.78125s.3737765.473472.59375.6875c.439947.428056.94291.814526 1.5 1.09375.278545.139612.5734731.246947.875.34375-.2562018-.100222-.4867109-.236272-.71875-.375-.00741-.0044-.023866.0045-.03125 0-.031933-.0193-.062293-.04251-.09375-.0625-.120395-.0767-.2310226-.163513-.34375-.25-.1061728-.0808-.2132809-.161112-.3125-.25-.1779299-.161433-.3474596-.345388-.5-.53125-.1075789-.130255-.2183939-.265285-.3125-.40625-.025089-.03838-.038446-.08587-.0625-.125-.064763-.103032-.1302275-.204517-.1875-.3125-.1010083-.194706-.2056748-.415701-.28125-.625-.00796-.02181-.023589-.04055-.03125-.0625-.0318251-.09195-.0358045-.186831-.0625-.28125-.0303323-.106618-.0703894-.203031-.09375-.3125-.0728786-.341512-.125-.698205-.125-1.0625v-2-68-2c0-2.781848 2.2181517-5 5-5h2 68 2c2.781848 0 5 2.218152 5 5v2 68 2c0 .364295-.05212.720988-.125 1.0625-.04415.206893-.08838.397658-.15625.59375-.0077.02195-.0233.04069-.03125.0625-.06274.173739-.138383.367449-.21875.53125-.04158.0828-.07904.169954-.125.25-.0546.09721-.126774.18835-.1875.28125-.09411.140965-.204921.275995-.3125.40625-.143174.17445-.303141.346998-.46875.5-.01117.0102-.01998.02115-.03125.03125-.138386.125556-.285091.234436-.4375.34375-.102571.07315-.204318.153364-.3125.21875-.0074.0045-.02384-.0044-.03125 0-.232039.138728-.462548.274778-.71875.375.301527-.0968.596455-.204138.875-.34375.55709-.279224 1.060053-.665694 1.5-1.09375.219973-.214028.409366-.441865.59375-.6875s.355408-.507743.5-.78125c.14012-.265048.276135-.524729.375-.8125.01041-.03078.02133-.06274.03125-.09375.09046-.278085.1388-.579404.1875-.875.0524-.31805.09375-.634029.09375-.96875v-2-68-2c0-3.324-2.676-6-6-6z" fill="url(#s)" opacity=".4"/><path d="m12 90c-3.324 0-6-2.676-6-6v-2-68-2c0-.334721.04135-.6507.09375-.96875.0487-.295596.09704-.596915.1875-.875.00988-.03038.020892-.0636.03125-.09375.098865-.287771.2348802-.547452.375-.8125.1445918-.273507.3156161-.535615.5-.78125s.3737765-.473472.59375-.6875c.439947-.428056.94291-.814526 1.5-1.09375.278545-.139612.5734731-.246947.875-.34375-.2562018.100222-.4867109.236272-.71875.375-.00741.0044-.023866-.0045-.03125 0-.031933.0193-.062293.04251-.09375.0625-.120395.0767-.2310226.163513-.34375.25-.1061728.0808-.2132809.161112-.3125.25-.1779299.161433-.3474596.345388-.5.53125-.1075789.130255-.2183939.265285-.3125.40625-.025089.03838-.038446.08587-.0625.125-.064763.103032-.1302275.204517-.1875.3125-.1010083.194706-.2056748.415701-.28125.625-.00796.02181-.023589.04055-.03125.0625-.0318251.09195-.0358045.186831-.0625.28125-.0303323.106618-.0703894.203031-.09375.3125-.0728786.341512-.125.698205-.125 1.0625v2 68 2c0 2.781848 2.2181517 5 5 5h2 68 2c2.781848 0 5-2.218152 5-5v-2-68-2c0-.364295-.05212-.720988-.125-1.0625-.04415-.206893-.08838-.397658-.15625-.59375-.0077-.02195-.0233-.04069-.03125-.0625-.06274-.173739-.138383-.367449-.21875-.53125-.04158-.0828-.07904-.169954-.125-.25-.0546-.09721-.126774-.18835-.1875-.28125-.09411-.140965-.204921-.275995-.3125-.40625-.143174-.17445-.303141-.346998-.46875-.5-.01117-.0102-.01998-.02115-.03125-.03125-.138386-.125556-.285091-.234436-.4375-.34375-.102571-.07315-.204318-.153364-.3125-.21875-.0074-.0045-.02384.0044-.03125 0-.232039-.138728-.462548-.274778-.71875-.375.301527.0968.596455.204138.875.34375.55709.279224 1.060053.665694 1.5 1.09375.219973.214028.409366.441865.59375.6875s.355408.507743.5.78125c.14012.265048.276135.524729.375.8125.01041.03078.02133.06274.03125.09375.09046.278085.1388.579404.1875.875.0524.31805.09375.634029.09375.96875v2 68 2c0 3.324-2.676 6-6 6z" fill="url(#r)" opacity=".2"/></g><rect height="66" rx="12" style="opacity:.1;stroke:#fff;stroke-width:.5;stroke-linecap:round;clip-path:url(#p);fill:url(#o);filter:url(#q)" transform="matrix(.23896809181 0 0 .24159231183 .52719243822 .04069216119)" width="66" x="15" y="15"/><g transform="matrix(.23896809181 0 0 .24159231183 .52719243822 .04069216119)"><path d="m55.0625 24.03125c-.274513-.05739-.554539.03155-.78125.1875-.226711.155952-.436792.36673-.625.65625l-7.96875 12.28125c-.558072.856628-2.013444 1.507252-3.03125 1.34375l-14.53125-2.3125c-.342169-.05517-.638258-.06285-.90625 0s-.515177.194293-.65625.4375-.142166.549481-.0625.8125c.07967.263019.24969.514589.46875.78125l9.28125 11.34375c.649851.796042.813844 2.368156.34375 3.28125l-6.71875 13c-.157589.307046-.259039.601147-.28125.875-.02221.273853.06156.542014.25.75.188444.207986.444155.306345.71875.3125.274595.0062.584415-.06343.90625-.1875l13.71875-5.28125c.962256-.368619 2.522138-.03656 3.25.6875l10.375 10.375c.244075.244785.465009.425065.71875.53125s.555579.144386.8125.03125.408732-.365793.5-.625c.09127-.259207.144322-.562033.125-.90625l-.8125-14.59375c-.05648-1.01846.734692-2.380958 1.65625-2.84375l13.125-6.625c.308659-.155913.539178-.323011.71875-.53125s.311262-.470373.28125-.75c-.03001-.279627-.218248-.521362-.4375-.6875s-.477831-.286334-.8125-.375l-14.21875-3.71875c-.996921-.262161-2.06091-1.459903-2.21875-2.46875l-2.28125-14.4375c-.05315-.340346-.137443-.640676-.28125-.875s-.350487-.411362-.625-.46875zm-.15625.78125c.0095.002.03104.02281.09375.125.06271.102188.114692.296381.15625.5625l2.28125 14.4375c.221538 1.415971 1.419471 2.758673 2.8125 3.125l14.21875 3.75c.263419.06979.434229.145233.53125.21875.09702.07352.124238.117904.125.125.000762.0071-.01491.03358-.09375.125s-.226134.221197-.46875.34375l-13.125 6.59375c-1.287738.646682-2.204261 2.195734-2.125 3.625l.8125 14.625c.01513.269544.0085.449538-.03125.5625-.03977.112962-.0861.152879-.09375.15625-.0077.0034-.04384.01579-.15625-.03125-.112407-.04704-.277066-.182759-.46875-.375l-10.375-10.375c-1.01788-1.012557-2.783078-1.357811-4.125-.84375l-13.71875 5.28125c-.252697.09741-.441156.12772-.5625.125-.121344-.0027-.150905-.02535-.15625-.03125-.0053-.0059-.0097-.03656 0-.15625.0097-.119692.06391-.321688.1875-.5625l6.6875-13c.657922-1.277924.470119-3.075702-.4375-4.1875l-9.28125-11.34375c-.17175-.209071-.277728-.385201-.3125-.5-.03477-.114799-.0036-.149993 0-.15625.0036-.0063.0064-.03468.125-.0625.11862-.027819.324629-.012144.59375.03125l14.53125 2.3125c1.421556.228362 3.061728-.487114 3.84375-1.6875l7.96875-12.3125c.147554-.226983.305913-.368479.40625-.4375.100337-.06902.146795-.06448.15625-.0625zm27.370108 21.685755-5.397129.04731zm-62.1447-10.547797c-4.078319 4.568446-6.441313 10.034008-6.994852 16.118276-.540804 5.946498.41955 13.639899 4.72679 18.153162 7.930639 8.310609 22.667073-.932686 29.618637-5.955339 1.378913-.996025 2.334385-2.567186 3.704731-3.557039-7.334709 5.299445-21.221145 13.912246-29.618801 5.955285-4.35079-4.12203-4.985688-11.792521-4.776976-17.36944.236344-6.313254 2.858003-12.211738 7.045243-16.901945-1.133837 1.269786-2.567045 2.282548-3.704772 3.55704m53.170579 5.829286c-.241447.448664-.353488.720592-.200947.983734.165178.284639 1.051001 1.672946 1.051001 1.672946s.866358 1.400125 1.051 1.672473c.171481.251321.466051.270725.977875.25153.240909-.448456.352438-.720436.199884-.983369-.164638-.284428-1.050986-1.672683-1.050986-1.672683s-.866373-1.400598-1.051001-1.672525c-.170957-.25174-.466052-.271145-.976826-.252106m-.000524.000209 2.878928 4.580683m-2.878928-4.580683 2.878928 4.580683m-2.450218 6.186574c.500248-.01125.786929-.04801.938946-.302789.163591-.276843.925801-1.693761.925801-1.693761s.781672-1.406665.926323-1.693762c.132566-.265598.0069-.524242-.255117-.94801-.499187.01166-.785881.04802-.937374.302997-.164115.276637-.926324 1.693761-.926324 1.693761s-.781674 1.406509-.9258 1.694181c-.13312.264972-.0082.524034.253545.947383m.000524 0 2.535952-4.638113m-2.535952 4.638113 2.535952-4.638113m3.787899 4.553328c.241973-.448873.352964-.720592.200948-.983786-.165177-.284376-1.051001-1.672265-1.051001-1.672265s-.866358-1.399761-1.051-1.6719c-.170957-.251111-.465528-.270934-.97735-.25153-.24091.448246-.352426.720437-.199885.983159.164639.284431 1.051 1.672317 1.051 1.672317s.866359 1.399919 1.050987 1.672266c.170957.250694.465528.270725.976301.251739m.000526-.000419-2.878405-4.57927m2.878405 4.57927-2.878405-4.57927m5.823075-.84382c-.258271-.437628-.433438-.673415-.737472-.681366-.329292-.0078-1.977325.02045-1.977325.02045s-1.649081.0054-1.978372.02019c-.303524.01434-.473419.25357-.722758.696534.258278.436791.432918.672578.73749.68037.329278.0083 1.977311-.02045 1.977311-.02045s1.649095-.0051 1.978372-.02024c.303523-.01371.473432-.253308.722754-.695485m0-.00037-5.415927.05555m5.415927-.05555-5.415927.05555m2.045705-5.40139c-.500773.01097-.787978.04719-.940008.30258-.16464.276636-.928421 1.694965-.928421 1.694965s-.783785 1.40771-.927911 1.694965c-.133119.266017-.0082.525079.25407.949475.500248-.01153.787453-.04765.93947-.303206.164653-.276636.927911-1.695018.927911-1.695018s.783769-1.407502.928435-1.695174c.133118-.265601.0082-.524661-.253546-.948587m-.000524-.000208-2.542271 4.641984m2.542271-4.641984-2.542271 4.641984m-21.509991-20.908801c-.189414-1.212931-.894817-1.360429-1.56634-.327424l-7.976245 12.290978c-.670046 1.028507-2.215874 1.715207-3.435555 1.519275l-14.524245-2.325907c-1.222579-.197134-1.580909.423556-.79929 1.37502l9.28988 11.342863c.778736.953921.958108 2.624198.3941 3.719707l-6.71442 13.015755c-.562366 1.095717-.08056 1.624878 1.068506 1.181915l13.721796-5.281871c1.152087-.441341 2.80681-.09358 3.679681.774727l10.37276 10.373774c.871517.874053 1.528514.58476 1.459611-.642764l-.811126-14.608938c-.06787-1.223862.774308-2.682621 1.878955-3.237357l13.129537-6.604223c1.102551-.556933 1.026266-1.266907-.169908-1.583817l-14.219977-3.744813c-1.194974-.314244-2.326549-1.568127-2.516239-2.780536zm0-.000002c-.189415-1.212931-.894817-1.360428-1.566341-.327423l-7.976244 12.290977c-.670047 1.028507-2.215875 1.715207-3.435556 1.519275l-14.524244-2.325907c-1.222579-.197134-1.580909.423556-.79929 1.37502l9.28988 11.342863c.778735.95392.958108 2.624198.3941 3.719707l-6.71442 13.015754c-.562367 1.095717-.08056 1.624878 1.068505 1.181915l13.721796-5.281871c1.152089-.44134 2.806811-.09358 3.679682.774727l10.37276 10.373774c.871517.874052 1.528515.584759 1.459611-.642764l-.811126-14.608936c-.06787-1.223863.774307-2.682622 1.878955-3.237359l13.129537-6.604223c1.10255-.556933 1.026266-1.266906-.169909-1.583816l-14.219976-3.744813c-1.194975-.314244-2.32655-1.568127-2.516239-2.780536z" filter="url(#d)" opacity=".6"/><g transform="matrix(1.000996 0 0 .99359512 3.162995 -1.983477)"><path d="m52.361844 26.579399c-.189226-1.22075-.893927-1.369199-1.564782-.329535l-7.968308 12.370208c-.66938 1.035137-2.21367 1.726263-3.432137 1.529068l-14.509793-2.3409c-1.221363-.198405-1.579336.426287-.798495 1.383884l9.280637 11.415981c.777961.96007.957154 2.641114.393707 3.743685l-6.707739 13.099656c-.561806 1.102781-.08048 1.635353 1.067443 1.189534l13.708143-5.315919c1.15094-.444186 2.804017-.09418 3.676019.779721l10.362439 10.440646c.87065.879687 1.526994.588529 1.458159-.646908l-.810319-14.703109c-.0678-1.231752.773538-2.699914 1.877086-3.258226l13.116473-6.646795c1.101454-.560523 1.025245-1.275074-.169739-1.594027l-14.205828-3.768952c-1.193785-.31627-2.324234-1.578236-2.513736-2.79846z" fill="url(#e)"/><path d="m52.361844 26.579397c-.189227-1.22075-.893927-1.369198-1.564783-.329534l-7.968307 12.370207c-.669381 1.035137-2.213671 1.726263-3.432138 1.529068l-14.509792-2.3409c-1.221363-.198405-1.579336.426287-.798495 1.383884l9.280637 11.415981c.77796.960069.957154 2.641114.393707 3.743685l-6.707739 13.099655c-.561807 1.102781-.08048 1.635353 1.067442 1.189534l13.708143-5.315919c1.150942-.444185 2.804018-.09418 3.67602.779721l10.362439 10.440645c.87065.879687 1.526995.588529 1.458159-.646907l-.810319-14.703108c-.0678-1.231752.773537-2.699914 1.877086-3.258227l13.116473-6.646795c1.101453-.560523 1.025245-1.275073-.16974-1.594026l-14.205827-3.768952c-1.193786-.31627-2.324235-1.578236-2.513736-2.79846z" fill="url(#g)" stroke="#fab217" stroke-width=".823009"/><path d="m76.390173 42.951074-2.539741 4.671907" fill="url(#e)"/><path d="m76.390173 42.951074-2.539741 4.671907" fill="url(#e)"/><path d="m77.08838 42.426195c-.559555.01235-.880472.05312-1.050348.340615-.183965.311411-1.0374 1.908029-1.0374 1.908029s-.875786 1.584665-1.03683 1.908029c-.148744.299456-.0092.591084.283892 1.068828.558969-.01297.879886-.05364 1.049747-.341321.18398-.31141 1.03683-1.908088 1.03683-1.908088s.875769-1.58443 1.037416-1.908264c.148743-.298989.0092-.590612-.283307-1.067828" fill="url(#h)" stroke="url(#i)" stroke-width=".306034"/><path d="m79.757565 48.331584-5.410538.05591" fill="url(#e)"/><path d="m79.757565 48.331584-5.410538.05591" fill="url(#e)"/><path d="m80.854201 48.444441c-.288587-.492639-.484314-.758066-.824037-.767016-.367944-.0087-2.209425.02302-2.209425.02302s-1.842652.006-2.210596.02273c-.339152.01614-.528989.285446-.807596.784091.288595.491698.483735.757125.824058.765896.367929.0094 2.20941-.02302 2.20941-.02302s1.842667-.0057 2.210596-.02278c.33915-.01544.529004-.28515.80759-.782912" fill="url(#h)" stroke="url(#j)" stroke-width=".306034"/><path d="m76.815825 53.790002-2.875541-4.608789" fill="url(#e)"/><path d="m76.815825 53.790002-2.875541-4.608789" fill="url(#e)"/><path d="m77.563295 54.549707c.270376-.505297.394396-.811173.224536-1.107451-.184566-.320124-1.174368-1.882476-1.174368-1.882476s-.968053-1.575716-1.174368-1.882064c-.191024-.282677-.520172-.304992-1.092073-.283149-.269188.504593-.393794.810999-.223347 1.106747.183964.320184 1.174367 1.882534 1.174367 1.882534s.968053 1.575894 1.174353 1.882475c.191024.282208.520172.304758 1.0909.283384" fill="url(#h)" stroke="url(#k)" stroke-width=".306034"/><path d="m70.497741 53.875755 2.533429-4.668011" fill="url(#e)"/><path d="m70.497741 53.875755 2.533429-4.668011" fill="url(#e)"/><path d="m70.496559 54.645151c.558967-.01266.879299-.05405 1.04916-.340851.182794-.311644 1.034472-1.906674 1.034472-1.906674s.873426-1.583489 1.035057-1.906675c.148126-.298985.0077-.590141-.285064-1.067179-.557782.01313-.878129.05406-1.047404.341086-.183379.311411-1.035057 1.906673-1.035057 1.906673s-.873427 1.583312-1.034471 1.907147c-.148745.29828-.0092.589907.283307 1.066473" fill="url(#h)" stroke="url(#l)" stroke-width=".306034"/><path d="m70.068934 43.03909 2.876064 4.610211" fill="url(#e)"/><path d="m70.068934 43.03909 2.876064 4.610211" fill="url(#e)"/><path d="m70.018112 42.524171c-.269789.505062-.394981.811173-.224535 1.107393.184566.320419 1.174369 1.883242 1.174369 1.883242s.968052 1.576126 1.174367 1.882709c.19161.282913.520757.304756 1.092659.283149.269188-.504829.393808-.810998.223346-1.106982-.183963-.320183-1.174351-1.882947-1.174351-1.882947s-.968069-1.576658-1.174369-1.882768c-.191024-.283385-.520757-.305229-1.091486-.283796" fill="url(#h)" stroke="url(#m)" stroke-width=".306034"/><path d="m16.951784 37.172017c-4.074261 4.597895-6.434904 10.098689-6.9878919 16.222177-.5402663 5.984831.4191329 13.727824 4.7220869 18.270181 7.922748 8.36418 22.644519-.938699 29.589166-5.993728 1.377541-1.002446 2.332062-2.583735 3.701045-3.579969-7.327411 5.333606-21.20003 14.001927-29.58933 5.993674-4.346461-4.148601-4.980728-11.868537-4.772223-17.481406.236109-6.35395 2.855159-12.290457 7.038233-17.010898-1.132709 1.277971-2.564491 2.297262-3.701086 3.579969" fill="#fff"/><path d="m79.034649 47.787807-5.391758.04762z" fill="url(#n)" fill-rule="evenodd"/></g></g></svg>