<svg height="24" width="24" xmlns="http://www.w3.org/2000/svg" xmlns:xlink="http://www.w3.org/1999/xlink"><linearGradient id="a" gradientTransform="matrix(0 .26693106 -.26693106 0 16.702999 5.01422)" gradientUnits="userSpaceOnUse" x1="34.365479" x2="43.416267" xlink:href="#b" y1="48" y2="48"/><linearGradient id="b"><stop offset="0" stop-color="#5b5b5b"/><stop offset="1" stop-color="#0a0a0a"/></linearGradient><linearGradient id="c" gradientTransform="matrix(0 .40512101 -.40512107 0 23.359503 4.330793)" gradientUnits="userSpaceOnUse" x1="34.571178" x2="43.210567" xlink:href="#b" y1="48" y2="48"/><filter id="d" color-interpolation-filters="sRGB"><feGaussianBlur stdDeviation=".1903125"/></filter><filter id="e" color-interpolation-filters="sRGB"><feGaussianBlur stdDeviation=".285"/></filter><linearGradient id="f" gradientUnits="userSpaceOnUse" x1="9.60544463646" x2="9.60544463646" y1=".99999404" y2="14.80533807585"><stop offset="0" stop-color="#fff"/><stop offset="1" stop-color="#fff" stop-opacity="0"/></linearGradient><radialGradient id="g" cx="85.651291" cy="29.289238" gradientTransform="matrix(-.57608215 0 0 -.18278292 67.963713 8.139077)" gradientUnits="userSpaceOnUse" r="21"><stop offset="0" stop-color="#52acf6"/><stop offset="1" stop-color="#0060ff"/></radialGradient><linearGradient id="h" gradientUnits="userSpaceOnUse" x1="10.37245100088" x2="10.37245100088" y1="12.91699913854" y2=".99999404"><stop offset="0"/><stop offset="1" stop-opacity="0"/></linearGradient><linearGradient id="i" gradientUnits="userSpaceOnUse" x1="12.00000104" x2="12.00000104" y1="22.9999947" y2=".9967804042"><stop offset="0" stop-color="#0a0a0a"/><stop offset="1" stop-color="#3c3c3c"/></linearGradient><linearGradient id="j" gradientTransform="matrix(.5294087 0 0 .72742223 .353035 34.481788)" gradientUnits="userSpaceOnUse" x1="39" x2="39" y1="72" y2="42"><stop offset="0" stop-color="#484848"/><stop offset="1" stop-color="#5d5d5d"/></linearGradient><linearGradient id="k" gradientUnits="userSpaceOnUse" x1="36.925404" x2="42.850594" y1="48" y2="48"><stop offset="0" stop-opacity=".426295"/><stop offset="1" stop-color="#fff" stop-opacity=".317073"/></linearGradient><linearGradient id="l" gradientUnits="userSpaceOnUse" x1="34.139206" x2="43.64254" y1="48" y2="48"><stop offset="0" stop-color="#fff"/><stop offset="1" stop-color="#7c7c7c"/></linearGradient><linearGradient id="m" gradientTransform="matrix(.5555555 0 0 .5 -.666667 45.999997)" gradientUnits="userSpaceOnUse" x1="30" x2="48" y1="31" y2="31"><stop offset="0" stop-color="#1a1a1a"/><stop offset=".25049603" stop-color="#1a1a1a"/><stop offset=".50099206" stop-color="#cdff01"/><stop offset=".75049603" stop-color="#1a1a1a"/><stop offset="1" stop-color="#1a1a1a"/></linearGradient><rect fill="url(#i)" height="21.999998" rx="3.142857" width="21.999998" x="1" y="1.000003"/><path d="m4.1428577.99999555c-1.7411419 0-3.1428555 1.40171355-3.1428555 3.14285675v15.7142827c0 1.741143 1.4017136 3.142859 3.1428555 3.142856h15.7142853c1.741143 0 3.142857-1.401711 3.142857-3.142856v-15.7142827c0-1.7411432-1.401714-3.14285675-3.142857-3.14285675zm0 .52380905h15.7142853c1.455627 0 2.619048 1.1634205 2.619048 2.6190477v15.7142827c0 1.45563-1.163421 2.619048-2.619048 2.619048h-15.7142853c-1.4556245.000001-2.6190464-1.16342-2.6190464-2.619048v-15.7142827c0-1.4556272 1.1634205-2.6190477 2.6190464-2.6190477z" fill="url(#h)"/><path d="m7.765441 2.803568h10.901813v3.726195h-10.901813z" fill="url(#g)" stroke="#2f2485" stroke-linecap="square" stroke-width=".621996"/><path d="m6.238096.999992h.523809v8.380952h-.523809z" opacity=".5"/><path d="m21.428572 1.4255911v7.955354h.523809v-7.5788666c-.160659-.1438264-.335752-.2679435-.523809-.3764874z" opacity=".4"/><path d="m4.1428577.99999555c-1.7411419 0-3.1428555 1.40171355-3.1428555 3.14285675v15.7142827c0 1.563498 1.127672 2.846838 2.6190465 3.09375-1.1978422-.242586-2.0952374-1.296266-2.0952374-2.56994v-15.7142842c0-1.4556254 1.1634205-2.6190458 2.6190464-2.6190458h15.7142853c1.455627 0 2.619048 1.1634204 2.619048 2.6190458v15.7142842c0 1.273675-.897397 2.327353-2.095239 2.56994 1.491374-.246913 2.619048-1.530249 2.619048-3.09375v-15.7142827c0-1.7411432-1.401714-3.14285675-3.142857-3.14285675z" fill="url(#f)" opacity=".15"/><g id="n" transform="matrix(.52380948 0 0 .52380948 -2.142854 -24.142861)"><path d="m18.336386 69.391447c-.04391.308622-.210923.578128-.463232.740132v2.43421c.291983.187479.479776.517136.479776.888158.000001.371023-.187793.70068-.479776.888158v2.434211c.291983.187478.479776.517135.479776.888158.000001.371022-.187793.700679-.479776.888158v2.43421c.291983.187479.479776.517136.479776.888158.000001.371023-.187793.70068-.479776.888158v1.052632h.49632c.07953-.502989.514104-.888158 1.042274-.888158s.962748.385169 1.042273.888158h2.150723c.07953-.502989.514104-.888158 1.042273-.888158.275103 0 .523066.10841.711393.279605v-2.664474c-.188327.171195-.43629.279606-.711393.279606-.584466 0-1.058817-.471579-1.058817-1.052632.000001-.581053.47435-1.052632 1.058817-1.052632.275103 0 .523066.108411.711393.279606v-2.664474c-.188327.171195-.43629.279605-.711393.279605-.584466 0-1.058817-.471579-1.058817-1.052631.000001-.581053.47435-1.052632 1.058817-1.052632.275103 0 .523066.108411.711393.279605v-2.664473c-.188327.171194-.43629.279605-.711393.279605-.584466 0-1.058817-.471579-1.058817-1.052632.000001-.581052.47435-1.052631 1.058817-1.052631.275103 0 .523066.10841.711393.279605v-1.184211h-1.786754c-.07267.5108-.508517.904606-1.042273.904606s-.969606-.393806-1.042274-.904606zm1.075362.904606c.584468 0 1.058817.471579 1.058817 1.052631.000001.581053-.47435 1.052632-1.058817 1.052632s-1.058818-.471579-1.058818-1.052632c.000001-.581052.474351-1.052631 1.058818-1.052631zm2.117635 2.105263c.584467 0 1.058817.471579 1.058817 1.052631.000001.581053-.47435 1.052632-1.058817 1.052632s-1.058818-.471579-1.058818-1.052632c.000001-.581052.47435-1.052631 1.058818-1.052631zm-2.117635 2.105263c.584468 0 1.058817.471579 1.058817 1.052632.000001.581052-.47435 1.052631-1.058817 1.052631s-1.058818-.471579-1.058818-1.052631c.000001-.581053.474351-1.052632 1.058818-1.052632zm2.117635 2.105263c.584467 0 1.058817.471579 1.058817 1.052632.000001.581052-.47435 1.052631-1.058817 1.052631s-1.058818-.471579-1.058818-1.052631c.000001-.581053.47435-1.052632 1.058818-1.052632zm-2.117635 2.105263c.584468 0 1.058817.471579 1.058817 1.052632.000001.581053-.47435 1.052632-1.058817 1.052632s-1.058818-.471579-1.058818-1.052632c.000001-.581053.474351-1.052632 1.058818-1.052632zm2.117635 2.105264c.584467 0 1.058817.471579 1.058817 1.052631.000001.581053-.47435 1.052632-1.058817 1.052632s-1.058818-.471579-1.058818-1.052632c.000001-.581052.47435-1.052631 1.058818-1.052631z" fill="#999"/><path d="m34 68.96875v6.03125c0 .554.446 1 1 1s1-.446 1-1v-6.03125zm4 0v6.03125c0 .554.446 1 1 1s1-.446 1-1v-6.03125zm4 0v6.03125c0 .554.446 1 1 1s1-.446 1-1v-6.03125z" fill="none" filter="url(#d)" stroke="#000" stroke-linecap="square" stroke-width="1.894442" transform="matrix(.5294087 0 0 .5263158 .353035 42.927631)"/><path d="m16 62h10v26h-10z"/><path d="m17 81h1v1h-1z"/><path d="m34 51.5v15.5c0 .554.446 1 1 1s1-.446 1-1v-13.71875c-.787438-.447486-1.481631-1.043087-2-1.78125zm10 0c-.518369.738163-1.212562 1.333764-2 1.78125v13.71875c0 .554.446 1 1 1s1-.446 1-1zm-6 2.5v13c0 .554.446 1 1 1s1-.446 1-1v-13c-.327491.05456-.657101.09375-1 .09375s-.672508-.03919-1-.09375z" fill="none" filter="url(#e)" stroke="#000" stroke-linecap="square" stroke-width="1.894442" transform="matrix(.5294087 0 0 .5263158 .353035 42.927631)"/><path d="m19 75.84375v6.65625c0 .277.223.5.5.5s.5-.223.5-.5v-6.25c-.358059-.08471-.682581-.238403-1-.40625zm4 0c-.317419.167847-.641941.321539-1 .40625v6.25c0 .277.223.5.5.5s.5-.223.5-.5z" opacity=".7"/><path d="m16.9375 65.03125v22.070445h8.125v-22.070445z" fill="url(#j)"/><path d="m42.850595 48a3.959722 3.959722 0 1 1 -7.919444 0 3.959722 3.959722 0 1 1 7.919444 0z" fill="url(#k)" transform="matrix(0 .7282863 -.7325661 0 56.163147 39.867098)"/><path d="m42.850595 48a3.959722 3.959722 0 1 1 -7.919444 0 3.959722 3.959722 0 1 1 7.919444 0z" fill="#c6c6c6" stroke="#000" stroke-linecap="square" stroke-width="2.143275" transform="matrix(.4679446 0 0 .4652108 2.801199 45.860671)"/><path d="m42.850595 48a3.959722 3.959722 0 1 1 -7.919444 0 3.959722 3.959722 0 1 1 7.919444 0z" fill="none" stroke="url(#l)" stroke-linecap="square" stroke-width="3.000585" transform="matrix(0 .3322934 -.3342462 0 37.043788 55.267608)"/><path d="m20.999974 67.401316c-.440612 0-.810657.367883-.810657.805921 0 .365031.271486.665088.612129.756579v.263158h.363968v-.246711c.362838-.07326.628672-.389744.628673-.773026 0-.438038-.353502-.805921-.794113-.805921zm0 .263158c.29739 0 .529409.24711.529409.542763-.000001.295652-.232019.526316-.529409.526316-.29739-.000001-.545953-.230664-.545953-.526316.000001-.295653.248563-.542763.545953-.542763z" opacity=".426295"/><path d="m16 62h10v.5h-10z"><path d="m16 61h10v1h-10z" fill="url(#m)"/></path></g><use id="o" height="96" transform="translate(5.238094)" width="96" xlink:href="#n"/><use height="96" transform="translate(5.238094)" width="96" xlink:href="#o"/><g stroke-linecap="square"><path d="m3.913692 21.690468a1.6041667 1.6041666 0 1 1 0-3.208333 1.6041667 1.6041666 0 1 1 0 3.208333z" fill="url(#c)" stroke="#000" stroke-width=".523809"/><path d="m3.8903073 16.452373a1.0569728 1.0569728 0 1 1 0-2.113945 1.0569728 1.0569728 0 1 1 0 2.113945z" fill="url(#a)" stroke="#000" stroke-width=".523809"/><path d="m14.190681 9.6777295a1.0569728 1.0569728 0 1 1 0-2.1139456 1.0569728 1.0569728 0 1 1 0 2.1139456z" fill="#00ff4a" stroke="#1a1a1a" stroke-width=".1375"/><path d="m19.268592 9.755923a1.0569728 1.0569728 0 1 1 0-2.1139456 1.0569728 1.0569728 0 1 1 0 2.1139456z" fill="#00ff4a" stroke="#1a1a1a" stroke-width=".1375"/><path d="m8.8867053 9.7455159a1.056973 1.056973 0 1 1 0-2.1139459 1.056973 1.056973 0 1 1 0 2.1139459z" fill="#00ff4a" stroke="#1a1a1a" stroke-width=".1375"/></g></svg>