<svg height="24" width="24" xmlns="http://www.w3.org/2000/svg" xmlns:xlink="http://www.w3.org/1999/xlink"><linearGradient id="a" gradientTransform="matrix(1.4407459 0 0 1.6458268 4.11799 7.272274)" gradientUnits="userSpaceOnUse" x1="11.350123" x2="11.350123" y1=".666966" y2="8.172179"><stop offset="0" stop-color="#fff"/><stop offset=".0097359" stop-color="#fff" stop-opacity=".235294"/><stop offset=".99001008" stop-color="#fff" stop-opacity=".156863"/><stop offset="1" stop-color="#fff" stop-opacity=".392157"/></linearGradient><linearGradient id="b" gradientTransform="matrix(.57234749 0 0 .50840712 -27.397488 .290353)" gradientUnits="userSpaceOnUse" x1="76.041" x2="76.041" y1="49.372032" y2="35.430561"><stop offset="0" stop-color="#0a0a0a" stop-opacity=".498"/><stop offset="1" stop-color="#0a0a0a" stop-opacity="0"/></linearGradient><linearGradient id="c" gradientTransform="matrix(.48737385 0 0 .50985078 -24.713187 -.550948)" gradientUnits="userSpaceOnUse" x1="84.30883" x2="84.30883" y1="16.110577" y2="42.923553"><stop offset="0" stop-color="#aacb7d"/><stop offset="1" stop-color="#709937"/></linearGradient><linearGradient id="d" gradientTransform="matrix(.47640735 0 0 .46908717 30.635905 -.249195)" gradientUnits="userSpaceOnUse" x1="-51.786404" x2="-51.786404" y1="53.514328" y2="2.061275"><stop offset="0" stop-opacity=".321739"/><stop offset="1" stop-opacity=".278261"/></linearGradient><path d="m2.5399683 2.9964919-.0013 2.0124966-1.5264855.00449-.0121828 5.8306925h22v-5.8336404l-10.72925.00295-.0045-2.0095445z" fill="#cecece"/><path d="m23.500001 6.7525654v-1.8133078c0-.2363406-.170966-.4266075-.383334-.4266075h-10.35v-1.5860426c0-.2363404-.170966-.4266074-.383333-.4266074h-9.9666673c-.2123666 0-.3833333.190267-.3833333.4266074v1.5860426h-1.15000008c-.21236666 0-.38333332.1902669-.38333332.4266075v1.8133078" fill="none" opacity=".8" stroke="url(#d)"/><path d="m1.0875452 7c1.107294 0 21.0538378.0471807 21.9124548.0471807 0 .9235932-.041665 14.9447393-.091231 14.9447393-7.690775.02657-19.6694123-.0209-21.908769-.0209 0-1.743091.0875818-11.3838.0875818-14.9710004z" fill="url(#c)"/><path d="m.0954332 6c1.2079529 0 22.9678898.0527 23.9045668.0527 0 1.0467202-.04545 16.937722-.09945 16.937722-8.389974.030909-21.4576142-.022881-23.90055-.022881 0-1.975551.0954-12.901924.0954-16.9675022z" fill="url(#b)" opacity=".4"/><path d="m1.5835485 7.5000025c1.0569624 0 20.0968715.043925 20.9164525.043925 0 .8620351-.03973 13.9485035-.08707 13.9485035-7.341198.02484-18.7753743-.01943-20.9129319-.01943 0-1.626892.083515-10.624947.083515-13.9730053z" fill="none" opacity=".5" stroke="url(#a)" stroke-linecap="round"/><path d="m.59152944 6.4999999c1.15762566 0 22.01082856.050326 22.90847256.050326 0 .9851661-.04356 15.9410551-.09538 15.9410551-8.040356.02834-20.5634766-.0223-22.90462202-.0223 0-1.859298.091562-12.142721.091562-15.9690696z" fill="none" opacity=".3" stroke="#000" stroke-linecap="round" stroke-linejoin="round"/><path d="m-34.509568 111.99674c-.799068 0-1.446077-.66286-1.446077-1.47558v-2.86264c-1.42878-.38067-2.793984-.95569-4.043097-1.68216l-2.036312 2.03631c-.287342.28733-.631543.43952-1.003392.44267-.371849.003-.750398-.13065-1.032907-.41317l-3.98408-3.98407c-.565018-.56502-.545167-1.46162.02945-2.03631l2.036308-2.036304c-.72647-1.249125-1.301482-2.614325-1.682171-4.043105h-2.862628c-.812722 0-1.475587-.64701-1.475587-1.44607v-5.60722c0-.79906.662865-1.44607 1.475587-1.44607h2.862628c.380689-1.42879.955701-2.79399 1.682168-4.0431l-2.036307-2.03631c-.57468-.57468-.59453-1.47128-.02945-2.0363l3.984081-3.98408c.565017-.56502 1.461622-.54517 2.036299.0295l2.036312 2.0363c1.249112-.72647 2.614316-1.30148 4.043096-1.68216v-2.86263c0-.81272.64701-1.47559 1.446077-1.47559h5.607218c.79906 0 1.446071.66287 1.446071 1.47559v2.86263c1.428778.38068 2.793982.95569 4.043097 1.68216l2.036308-2.0363c.574678-.57468 1.471284-.59454 2.036308-.0295l3.984073 3.98408c.565017.56502.545166 1.46162-.02946 2.0363l-2.036301 2.03631c.726468 1.24911 1.301477 2.61431 1.682161 4.0431h2.862637c.812714 0 1.475583.647 1.475583 1.44607v5.60722c0 .79906-.662869 1.44607-1.475583 1.44607h-2.862637c-.380681 1.42878-.955689 2.79398-1.682157 4.043105l2.0363 2.036304c.574678.57469.594536 1.47129.02946 2.03631l-3.984072 3.98407c-.565027.56503-1.46163.54518-2.03631-.0295l-2.036309-2.0363c-1.249114.72648-2.614317 1.30149-4.043096 1.68217v2.86262c0 .81273-.64701 1.47559-1.446071 1.47559h-5.607217zm2.803605-14.165609c3.388417 0 6.138431-2.75002 6.138431-6.13843s-2.750014-6.13843-6.138431-6.13843c-3.388411 0-6.13843 2.75002-6.13843 6.13843s2.750019 6.13843 6.13843 6.13843z" display="block" fill="#3c5a30" opacity=".9" transform="matrix(.27088193636 0 0 .27088192705 20.71937406132 -10.59153158655)"/></svg>