<svg height="16" width="16" xmlns="http://www.w3.org/2000/svg" xmlns:xlink="http://www.w3.org/1999/xlink"><linearGradient id="a" gradientTransform="matrix(.89189031 0 0 .94046961 3.14398 5.346537)" gradientUnits="userSpaceOnUse" x1="11.350123" x2="11.350123" y1=".666966" y2="8.172179"><stop offset="0" stop-color="#fff"/><stop offset=".0097359" stop-color="#fff" stop-opacity=".235294"/><stop offset=".99001008" stop-color="#fff" stop-opacity=".156863"/><stop offset="1" stop-color="#fff" stop-opacity=".392157"/></linearGradient><linearGradient id="b" gradientTransform="matrix(.38156409 0 0 .32896952 -18.24159 .282167)" gradientUnits="userSpaceOnUse" x1="76.041" x2="76.041" y1="49.372032" y2="35.430561"><stop offset="0" stop-color="#0a0a0a" stop-opacity=".498"/><stop offset="1" stop-color="#0a0a0a" stop-opacity="0"/></linearGradient><linearGradient id="c" gradientTransform="matrix(.3101469 0 0 .30591044 -15.362929 .469432)" gradientUnits="userSpaceOnUse" x1="84.30883" x2="84.30883" y1="16.110577" y2="42.923553"><stop offset="0" stop-color="#55a7f3"/><stop offset="1" stop-color="#1374cf"/></linearGradient><linearGradient id="d" gradientTransform="matrix(.31070043 0 0 .27489387 20.17717 -.103163)" gradientUnits="userSpaceOnUse" x1="-51.786404" x2="-51.786404" y1="53.514328" y2="2.061275"><stop offset="0" stop-opacity=".321739"/><stop offset="1" stop-opacity=".278261"/></linearGradient><linearGradient id="e" gradientTransform="matrix(.33333327 0 0 .32971018 -17.44063 -.647843)" gradientUnits="userSpaceOnUse" x1="62.988873" x2="62.988873" y1="11.645091" y2="15.385052"><stop offset="0" stop-color="#cecece"/><stop offset="1" stop-color="#c4c4c4"/></linearGradient><path d="m2.02332 1.976667v1h-1v4h14v-4h-7v-1z" fill="url(#e)"/><path d="m15.52332 4v-1.273333c0-.1385-.1115-.25-.25-.25h-6.75v-.71875c0-.1385-.1115-.25-.25-.25h-6.5c-.1385 0-.25.1115-.25.25v.71875h-.75c-.1385 0-.25.1115-.25.25v1.273333" fill="none" opacity=".8" stroke="url(#d)"/><path d="m1.0557148 5c.7046415 0 13.3978932.0283083 13.9442852.0283083 0 .5541558-.02651 8.9668427-.05806 8.9668427-4.894128.015945-12.5168954-.012542-13.94194-.012542 0-1.045855.0557334-6.830279.0557334-8.9826z" fill="url(#c)"/><path d="m.08698 3.976647c.8053 0 15.31189.0341 15.93634.0341 0 .67729-.0303 10.95971-.0663 10.95971-5.5933.02-14.30504-.0148-15.93366-.0148 0-1.2783.0636-8.34831.0636-10.97898z" fill="url(#b)" opacity=".4"/><path d="m1.57504 5.476667c.65431 0 12.44092.0251 12.94828.0251 0 .49259-.0246 7.97055-.0539 7.97055-4.54455.0142-11.62285-.0111-12.9461-.0111 0-.92965.0517-6.07138.0517-7.98455z" fill="none" opacity=".5" stroke="url(#a)" stroke-linecap="round"/><path d="m.55988 4.453367c.75732 0 14.39951.0316 14.98675.0316 0 .6186-.0285 10.00962-.0624 10.00962-5.26001.0178-13.45265-.014-14.98423-.014 0-1.16748.0599-7.62459.0599-10.02721z" fill="none" opacity=".3" stroke="#000" stroke-linecap="round" stroke-linejoin="round"/><path d="m-38.426083 30.243564c-4.17915 4.163838-4.17915 10.92253 0 15.086367 3.643284 3.629938 9.255966 4.113396 13.406844 1.414348.705558.03527 1.843317.132334 2.247616.589311.550493.622214-.227676 2.076822.828071 3.025131l6.565989 6.653055s1.218024 1.300833 3.115121-.589314c1.897098-1.890146.59148-3.103706.59148-3.103706l-6.565991-6.653053c-.951798-1.051878-2.411754-.276563-3.036257-.825036-.458659-.402816-.556088-1.536408-.591478-2.239383 2.708973-4.135669 2.223738-9.727785-1.419548-13.35772-4.179151-4.163837-10.962697-4.163837-15.141847 0zm2.563073 2.475106c1.291967-1.287231 3.077212-2.042944 5.047282-2.042944 3.94014 0 7.137172 3.185317 7.137172 7.111021 0 3.925706-3.19703 7.111023-7.137172 7.111023-3.940138.000001-7.137171-3.185317-7.137171-7.111023 0-1.962852.797922-3.780844 2.089889-5.068077z" fill="#00508c" opacity=".9" transform="matrix(.29676050912 0 0 .29677244743 16.3334987091 -3.04903427855)"/></svg>