<svg height="16" width="16" xmlns="http://www.w3.org/2000/svg" xmlns:xlink="http://www.w3.org/1999/xlink"><linearGradient id="a" gradientTransform="matrix(.89189031 0 0 .94046961 3.14398 5.346537)" gradientUnits="userSpaceOnUse" x1="11.350123" x2="11.350123" y1=".666966" y2="8.172179"><stop offset="0" stop-color="#fff"/><stop offset=".0097359" stop-color="#fff" stop-opacity=".235294"/><stop offset=".99001008" stop-color="#fff" stop-opacity=".156863"/><stop offset="1" stop-color="#fff" stop-opacity=".392157"/></linearGradient><linearGradient id="b" gradientTransform="matrix(.38156409 0 0 .32896952 -18.24159 .282167)" gradientUnits="userSpaceOnUse" x1="76.041" x2="76.041" y1="49.372032" y2="35.430561"><stop offset="0" stop-color="#0a0a0a" stop-opacity=".498"/><stop offset="1" stop-color="#0a0a0a" stop-opacity="0"/></linearGradient><linearGradient id="c" gradientTransform="matrix(.3101469 0 0 .30591044 -15.362929 .469432)" gradientUnits="userSpaceOnUse" x1="84.30883" x2="84.30883" y1="16.110577" y2="42.923553"><stop offset="0" stop-color="#55a7f3"/><stop offset="1" stop-color="#1374cf"/></linearGradient><linearGradient id="d" gradientTransform="matrix(.31070043 0 0 .27489387 20.17717 -.103163)" gradientUnits="userSpaceOnUse" x1="-51.786404" x2="-51.786404" y1="53.514328" y2="2.061275"><stop offset="0" stop-opacity=".321739"/><stop offset="1" stop-opacity=".278261"/></linearGradient><linearGradient id="e" gradientTransform="matrix(.33333327 0 0 .32971018 -17.44063 -.647843)" gradientUnits="userSpaceOnUse" x1="62.988873" x2="62.988873" y1="11.645091" y2="15.385052"><stop offset="0" stop-color="#cecece"/><stop offset="1" stop-color="#c4c4c4"/></linearGradient><path d="m2.02332 1.976667v1h-1v4h14v-4h-7v-1z" fill="url(#e)"/><path d="m15.52332 4v-1.273333c0-.1385-.1115-.25-.25-.25h-6.75v-.71875c0-.1385-.1115-.25-.25-.25h-6.5c-.1385 0-.25.1115-.25.25v.71875h-.75c-.1385 0-.25.1115-.25.25v1.273333" fill="none" opacity=".8" stroke="url(#d)"/><path d="m1.0557148 5c.7046415 0 13.3978932.0283083 13.9442852.0283083 0 .5541558-.02651 8.9668427-.05806 8.9668427-4.894128.015945-12.5168954-.012542-13.94194-.012542 0-1.045855.0557334-6.830279.0557334-8.9826z" fill="url(#c)"/><path d="m.08698 3.976647c.8053 0 15.31189.0341 15.93634.0341 0 .67729-.0303 10.95971-.0663 10.95971-5.5933.02-14.30504-.0148-15.93366-.0148 0-1.2783.0636-8.34831.0636-10.97898z" fill="url(#b)" opacity=".4"/><path d="m1.57504 5.476667c.65431 0 12.44092.0251 12.94828.0251 0 .49259-.0246 7.97055-.0539 7.97055-4.54455.0142-11.62285-.0111-12.9461-.0111 0-.92965.0517-6.07138.0517-7.98455z" fill="none" opacity=".5" stroke="url(#a)" stroke-linecap="round"/><path d="m.55988 4.453367c.75732 0 14.39951.0316 14.98675.0316 0 .6186-.0285 10.00962-.0624 10.00962-5.26001.0178-13.45265-.014-14.98423-.014 0-1.16748.0599-7.62459.0599-10.02721z" fill="none" opacity=".3" stroke="#000" stroke-linecap="round" stroke-linejoin="round"/><path d="m10.14866 5.4228911c-.4475404 0-.8099275.362738-.8099275.809911 0 .447174.3623871.809912.8099275.809912.447541 0 .809928-.362738.809928-.809912 0-.447173-.362387-.809911-.809928-.809911zm-1.7104766.634336c-.499485.000065-1.0058949.126125-1.4612681.351151-.016194.008-.026293.02229-.031151.03965-.00492.01736-.00392.03569.00566.05097l.6570043 1.039292c.016647.02643.050468.0376.079294.02549.2431677-.102797.4955004-.15292.7504575-.15292.9378226 0 1.7560059.694927 1.9030469 1.616991.0049.03096.03102.05381.0623.05381h1.234715c.01801 0 .03603-.0065.04814-.01982.01211-.01334.01868-.03013.01699-.04814-.06659-.684147-.359083-1.346546-.821257-1.860531-.02086-.02332-.05576-.02553-.08212-.0085-.18636.120351-.397804.184071-.611694.184071-.6239839 0-1.129869-.50693-1.1299339-1.12708.0000649-.000321 0-.02162 0-.02265 0-.0309-.023167-.05982-.053806-.06513-.1951043-.03381-.3844926-.05664-.5663829-.05664zm-1.9823403.679646c-.00855.0021-.018459.0059-.025487.01133-.5355655.412483-.9372081.992586-1.1327661 1.633982-.00764.02507-.0008302.05164.019823.06797.2691429.213172.4304509.541308.4304509.877876s-.1612432.664703-.4304509.8778759c-.020534.01626-.027467.04283-.019823.06797.1940031.636019.5924803 1.21391 1.1214384 1.625486.014186.01108.030394.01727.048142.01416.017685-.003.032827-.01606.042479-.03115l.6626682-1.03646c.016906-.02649.012314-.06133-.011327-.08212-.4151478-.365263-.6541724-.8889919-.6541724-1.4357519 0-.550842.2403488-1.076024.659836-1.441416.023643-.02066.030937-.0555.014161-.08212l-.6570051-1.039292c-.00959-.01516-.024795-.02521-.042479-.02832-.00884-.0016-.016936-.0021-.025487 0zm-1.826585 1.778407c-.4580221 0-.8297511.372044-.8297511.829735s.371729.8269029.8297511.8269029c.4580226 0 .8297511-.3692119.8297511-.8269029s-.3717285-.829735-.8297511-.829735zm7.0089889 1.070443-1.234714.0028c-.03116.000065-.06015.0231-.06513.05381-.149049.9151979-.9649836 1.6056639-1.9002155 1.6056639-.2579365 0-.5130643-.05326-.7589531-.158584-.02876-.01224-.062387-.0036-.079293.02265l-.6626724 1.039292c-.00965.01522-.01046.03355-.00566.05097.00479.01736.015021.03161.031151.03965.4589358.229755.9701771.35115 1.4754274.35115.1873962 0 .3830416-.01876.5805429-.05381.027724-.0049.047671-.02589.050974-.05381.065812-.568396.5465076-.996814 1.1186067-.996814.177356 0 .359892.04476.523904.130265.02494.01302.05387.0088.07363-.01133.517234-.527458.844214-1.222874.91754-1.9539819.0018-.01794-.0048-.03473-.01699-.04814-.01218-.01341-.03014-.01989-.04814-.01982zm-1.458436 2.1890259c-.4580224 0-.8297506.368741-.8297506.824071s.3717282.824071.8297506.824071c.458023 0 .829751-.368741.829751-.824071s-.371728-.824071-.829751-.824071z" fill="#00508c" stroke-width=".169267"/></svg>