<svg height="16" width="16" xmlns="http://www.w3.org/2000/svg" xmlns:xlink="http://www.w3.org/1999/xlink"><linearGradient id="a" gradientUnits="userSpaceOnUse" x1="13.1864354" x2="13.1864354" y1="58.2711915" y2="50.27002549103"><stop offset="0" stop-color="#0a0a0a"/><stop offset="1" stop-color="#3c3c3c"/></linearGradient><linearGradient id="b" gradientUnits="userSpaceOnUse" x1="12.59459945815" x2="12.59459945815" y1="54.60464921102" y2="50.27119428"><stop offset="0"/><stop offset="1" stop-opacity="0"/></linearGradient><linearGradient id="c"><stop offset="0" stop-color="#fff"/><stop offset="1" stop-color="#fff" stop-opacity="0"/></linearGradient><linearGradient id="d" gradientUnits="userSpaceOnUse" x1="12.31568814741" x2="12.31568814741" xlink:href="#c" y1="50.27119428" y2="55.29131768281"/><filter id="e" color-interpolation-filters="sRGB"><feGaussianBlur stdDeviation=".1903125"/></filter><filter id="f" color-interpolation-filters="sRGB"><feGaussianBlur stdDeviation=".285"/></filter><linearGradient id="g" gradientTransform="matrix(0 .14731668 -.1473167 0 17.317162 51.482393)" gradientUnits="userSpaceOnUse" x1="34.571178" x2="43.210567" xlink:href="#h" y1="48" y2="48"/><linearGradient id="h"><stop offset="0" stop-color="#5b5b5b"/><stop offset="1" stop-color="#0a0a0a"/></linearGradient><linearGradient id="i" gradientTransform="matrix(0 .09706581 -.09706581 0 14.896616 51.730912)" gradientUnits="userSpaceOnUse" x1="34.365479" x2="43.416267" xlink:href="#h" y1="48" y2="48"/><linearGradient id="j" gradientTransform="matrix(.5294087 0 0 .72742223 .353035 34.481788)" gradientUnits="userSpaceOnUse" x1="39" x2="39" y1="72" y2="42"><stop offset="0" stop-color="#484848"/><stop offset="1" stop-color="#5d5d5d"/></linearGradient><linearGradient id="k" gradientUnits="userSpaceOnUse" x1="36.925404" x2="42.850594" y1="48" y2="48"><stop offset="0" stop-opacity=".426295"/><stop offset="1" stop-color="#fff" stop-opacity=".317073"/></linearGradient><linearGradient id="l" gradientUnits="userSpaceOnUse" x1="34.139206" x2="43.64254" y1="48" y2="48"><stop offset="0" stop-color="#fff"/><stop offset="1" stop-color="#7c7c7c"/></linearGradient><linearGradient id="m" gradientTransform="matrix(.5555555 0 0 .5 -.666667 45.999997)" gradientUnits="userSpaceOnUse" x1="30" x2="48" y1="31" y2="31"><stop offset="0" stop-color="#1a1a1a"/><stop offset=".25049603" stop-color="#1a1a1a"/><stop offset=".50099206" stop-color="#cdff01"/><stop offset=".75049603" stop-color="#1a1a1a"/><stop offset="1" stop-color="#1a1a1a"/></linearGradient><filter id="n" color-interpolation-filters="sRGB"><feGaussianBlur stdDeviation=".50332031"/></filter><linearGradient id="o" gradientUnits="userSpaceOnUse" x1="48" x2="48" y1="90" y2="5.987717"><stop offset="0" stop-color="#dcdcdc"/><stop offset="1" stop-color="#f0f0f0"/></linearGradient><linearGradient id="p" gradientUnits="userSpaceOnUse" x1="36.357143" x2="36.357143" xlink:href="#c" y1="6" y2="63.893143"/><filter id="q" color-interpolation-filters="sRGB" height="1.84" width="1.336" x="-.168" y="-.42"><feGaussianBlur stdDeviation=".55"/></filter><radialGradient id="r" cx="48" cy="90.171875" gradientTransform="matrix(1.1573129 0 0 .99590774 -7.551021 .197132)" gradientUnits="userSpaceOnUse" r="42" xlink:href="#c"/><radialGradient id="s" cx="85.651291" cy="29.289238" gradientTransform="matrix(-.19873166 0 0 -.06305481 23.225842 10.435822)" gradientUnits="userSpaceOnUse" r="21" xlink:href="#t"/><linearGradient id="t"><stop offset="0" stop-color="#52acf6"/><stop offset="1" stop-color="#0060ff"/></linearGradient><linearGradient id="u" gradientUnits="userSpaceOnUse" x1="12.0625" x2="83.9375" xlink:href="#t" y1="39" y2="39"/><g transform="translate(-9.16949 -42.288138)"><rect fill="url(#a)" height="7.999996" rx="1.142857" width="7.999996" x="9.186437" y="50.271194"/><path d="m10.329294 50.271194c-.6331424 0-1.1428565.509714-1.1428565 1.142857v5.714283c0 .633142.5097141 1.142857 1.1428565 1.142856h5.714283c.633143 0 1.142857-.509713 1.142857-1.142856v-5.714283c0-.633143-.509714-1.142857-1.142857-1.142857zm0 .190476h5.714283c.529319 0 .952381.423062.952381.952381v5.714283c0 .529319-.423062.95238-.952381.95238h-5.714283c-.5293179.000001-.9523804-.423062-.9523804-.95238v-5.714283c0-.529319.423062-.952381.9523804-.952381z" fill="url(#b)"/><path d="m11.091198 50.271194h.190476v3.047618h-.190476z" opacity=".5"/><path d="m16.615006 50.425956v2.892856h.190476v-2.755951c-.05842-.0523-.122092-.09743-.190476-.136905z" opacity=".4"/><path d="m10.329294 50.271194c-.6331424 0-1.1428565.509714-1.1428565 1.142857v5.714283c0 .568544.4100627 1.035213.9523805 1.124999-.4355789-.088213-.7619044-.471369-.7619044-.934523v-5.714283c0-.529319.423062-.95238.9523804-.95238h5.714283c.529319 0 .952381.423061.952381.95238v5.714283c0 .463154-.326326.84631-.761905.934523.542318-.08979.952381-.556454.952381-1.124999v-5.714283c0-.633143-.509714-1.142857-1.142857-1.142857z" fill="url(#d)" opacity=".15"/><g id="v" transform="matrix(.19047611 0 0 .19047611 8.043581 41.128341)"><path d="m18.336386 69.391447c-.04391.308622-.210923.578128-.463232.740132v2.43421c.291983.187479.479776.517136.479776.888158.000001.371023-.187793.70068-.479776.888158v2.434211c.291983.187478.479776.517135.479776.888158.000001.371022-.187793.700679-.479776.888158v2.43421c.291983.187479.479776.517136.479776.888158.000001.371023-.187793.70068-.479776.888158v1.052632h.49632c.07953-.502989.514104-.888158 1.042274-.888158s.962748.385169 1.042273.888158h2.150723c.07953-.502989.514104-.888158 1.042273-.888158.275103 0 .523066.10841.711393.279605v-2.664474c-.188327.171195-.43629.279606-.711393.279606-.584466 0-1.058817-.471579-1.058817-1.052632.000001-.581053.47435-1.052632 1.058817-1.052632.275103 0 .523066.108411.711393.279606v-2.664474c-.188327.171195-.43629.279605-.711393.279605-.584466 0-1.058817-.471579-1.058817-1.052631.000001-.581053.47435-1.052632 1.058817-1.052632.275103 0 .523066.108411.711393.279605v-2.664473c-.188327.171194-.43629.279605-.711393.279605-.584466 0-1.058817-.471579-1.058817-1.052632.000001-.581052.47435-1.052631 1.058817-1.052631.275103 0 .523066.10841.711393.279605v-1.184211h-1.786754c-.07267.5108-.508517.904606-1.042273.904606s-.969606-.393806-1.042274-.904606zm1.075362.904606c.584468 0 1.058817.471579 1.058817 1.052631.000001.581053-.47435 1.052632-1.058817 1.052632s-1.058818-.471579-1.058818-1.052632c.000001-.581052.474351-1.052631 1.058818-1.052631zm2.117635 2.105263c.584467 0 1.058817.471579 1.058817 1.052631.000001.581053-.47435 1.052632-1.058817 1.052632s-1.058818-.471579-1.058818-1.052632c.000001-.581052.47435-1.052631 1.058818-1.052631zm-2.117635 2.105263c.584468 0 1.058817.471579 1.058817 1.052632.000001.581052-.47435 1.052631-1.058817 1.052631s-1.058818-.471579-1.058818-1.052631c.000001-.581053.474351-1.052632 1.058818-1.052632zm2.117635 2.105263c.584467 0 1.058817.471579 1.058817 1.052632.000001.581052-.47435 1.052631-1.058817 1.052631s-1.058818-.471579-1.058818-1.052631c.000001-.581053.47435-1.052632 1.058818-1.052632zm-2.117635 2.105263c.584468 0 1.058817.471579 1.058817 1.052632.000001.581053-.47435 1.052632-1.058817 1.052632s-1.058818-.471579-1.058818-1.052632c.000001-.581053.474351-1.052632 1.058818-1.052632zm2.117635 2.105264c.584467 0 1.058817.471579 1.058817 1.052631.000001.581053-.47435 1.052632-1.058817 1.052632s-1.058818-.471579-1.058818-1.052632c.000001-.581052.47435-1.052631 1.058818-1.052631z" fill="#999"/><path d="m34 68.96875v6.03125c0 .554.446 1 1 1s1-.446 1-1v-6.03125zm4 0v6.03125c0 .554.446 1 1 1s1-.446 1-1v-6.03125zm4 0v6.03125c0 .554.446 1 1 1s1-.446 1-1v-6.03125z" fill="none" filter="url(#e)" stroke="#000" stroke-linecap="square" stroke-width="1.894442" transform="matrix(.5294087 0 0 .5263158 .353035 42.927631)"/><path d="m16 62h10v26h-10z"/><path d="m17 81h1v1h-1z"/><path d="m34 51.5v15.5c0 .554.446 1 1 1s1-.446 1-1v-13.71875c-.787438-.447486-1.481631-1.043087-2-1.78125zm10 0c-.518369.738163-1.212562 1.333764-2 1.78125v13.71875c0 .554.446 1 1 1s1-.446 1-1zm-6 2.5v13c0 .554.446 1 1 1s1-.446 1-1v-13c-.327491.05456-.657101.09375-1 .09375s-.672508-.03919-1-.09375z" fill="none" filter="url(#f)" stroke="#000" stroke-linecap="square" stroke-width="1.894442" transform="matrix(.5294087 0 0 .5263158 .353035 42.927631)"/><path d="m19 75.84375v6.65625c0 .277.223.5.5.5s.5-.223.5-.5v-6.25c-.358059-.08471-.682581-.238403-1-.40625zm4 0c-.317419.167847-.641941.321539-1 .40625v6.25c0 .277.223.5.5.5s.5-.223.5-.5z" opacity=".7"/><path d="m16.9375 65.03125v22.070445h8.125v-22.070445z" fill="url(#j)"/><path d="m42.850595 48a3.959722 3.959722 0 1 1 -7.919444 0 3.959722 3.959722 0 1 1 7.919444 0z" fill="url(#k)" transform="matrix(0 .7282863 -.7325661 0 56.163147 39.867098)"/><path d="m42.850595 48a3.959722 3.959722 0 1 1 -7.919444 0 3.959722 3.959722 0 1 1 7.919444 0z" fill="#c6c6c6" stroke="#000" stroke-linecap="square" stroke-width="2.143275" transform="matrix(.4679446 0 0 .4652108 2.801199 45.860671)"/><path d="m42.850595 48a3.959722 3.959722 0 1 1 -7.919444 0 3.959722 3.959722 0 1 1 7.919444 0z" fill="none" stroke="url(#l)" stroke-linecap="square" stroke-width="3.000585" transform="matrix(0 .3322934 -.3342462 0 37.043788 55.267608)"/><path d="m20.999974 67.401316c-.440612 0-.810657.367883-.810657.805921 0 .365031.271486.665088.612129.756579v.263158h.363968v-.246711c.362838-.07326.628672-.389744.628673-.773026 0-.438038-.353502-.805921-.794113-.805921zm0 .263158c.29739 0 .529409.24711.529409.542763-.000001.295652-.232019.526316-.529409.526316-.29739-.000001-.545953-.230664-.545953-.526316.000001-.295653.248563-.542763.545953-.542763z" opacity=".426295"/><path d="m16 62h10v.5h-10z"><path d="m16 61h10v1h-10z" fill="url(#m)"/></path></g><use id="w" height="96" transform="translate(1.904761)" width="96" xlink:href="#v"/><use height="96" transform="translate(1.904761)" width="96" xlink:href="#w"/><g stroke-linecap="square"><path d="m10.245961 57.795a.58333314.58333309 0 1 1 0-1.166666.58333314.58333309 0 1 1 0 1.166666z" fill="url(#g)" stroke="#000" stroke-width=".190476"/><path d="m10.237457 55.890239a.38435361.38435361 0 1 1 0-.768707.38435361.38435361 0 1 1 0 .768707z" fill="url(#i)" stroke="#000" stroke-width=".190476"/><path d="m13.983046 53.426733a.38435362.38435362 0 1 1 0-.768707.38435362.38435362 0 1 1 0 .768707z" fill="#a0ff1a" stroke="#1a1a1a" stroke-width=".05"/><path d="m15.829559 53.455167a.38435362.38435362 0 1 1 0-.768707.38435362.38435362 0 1 1 0 .768707z" fill="#a0ff1a" stroke="#1a1a1a" stroke-width=".05"/><path d="m12.054329 53.451382a.38435362.38435362 0 1 1 0-.768707.38435362.38435362 0 1 1 0 .768707z" fill="#a0ff1a" stroke="#1a1a1a" stroke-width=".05"/></g><g transform="matrix(.09498015 0 0 .09498015 8.662921 41.7796)"><path d="m12.0625 12.0625v53.875h71.875v-53.875z" fill="url(#u)" transform="matrix(-1.0008688 0 0 -1.1558456 96.010447 88.220854)"/><path d="m12 12v62.28125h71.9375v-62.28125zm3 3h66v56h-66z" fill="#0e367e" filter="url(#n)"/></g><g transform="matrix(.09498015 0 0 .09498015 8.662921 41.7796)"><path d="m12 6c-3.324 0-6 2.676-6 6v72c0 3.324 2.676 6 6 6h72c3.324 0 6-2.676 6-6v-72c0-3.324-2.676-6-6-6zm2 7.494924h68.378807v58.505076h-68.378807z" fill="url(#o)"/><path d="m12 6c-3.324 0-6 2.676-6 6v2 68 2c0 .334721.04135.6507.09375.96875.0487.295596.09704.596915.1875.875.00988.03038.020892.0636.03125.09375.098865.287771.2348802.547452.375.8125.1445918.273507.3156161.535615.5.78125s.3737765.473472.59375.6875c.439947.428056.94291.814526 1.5 1.09375.278545.139612.5734731.246947.875.34375-.2562018-.100222-.4867109-.236272-.71875-.375-.00741-.0044-.023866.0045-.03125 0-.031933-.0193-.062293-.04251-.09375-.0625-.120395-.0767-.2310226-.163513-.34375-.25-.1061728-.0808-.2132809-.161112-.3125-.25-.1779299-.161433-.3474596-.345388-.5-.53125-.1075789-.130255-.2183939-.265285-.3125-.40625-.025089-.03838-.038446-.08587-.0625-.125-.064763-.103032-.1302275-.204517-.1875-.3125-.1010083-.194706-.2056748-.415701-.28125-.625-.00796-.02181-.023589-.04055-.03125-.0625-.0318251-.09195-.0358045-.186831-.0625-.28125-.0303323-.106618-.0703894-.203031-.09375-.3125-.0728786-.341512-.125-.698205-.125-1.0625v-2-68-2c0-2.781848 2.2181517-5 5-5h2 68 2c2.781848 0 5 2.218152 5 5v2 68 2c0 .364295-.05212.720988-.125 1.0625-.04415.206893-.08838.397658-.15625.59375-.0077.02195-.0233.04069-.03125.0625-.06274.173739-.138383.367449-.21875.53125-.04158.0828-.07904.169954-.125.25-.0546.09721-.126774.18835-.1875.28125-.09411.140965-.204921.275995-.3125.40625-.143174.17445-.303141.346998-.46875.5-.01117.0102-.01998.02115-.03125.03125-.138386.125556-.285091.234436-.4375.34375-.102571.07315-.204318.153364-.3125.21875-.0074.0045-.02384-.0044-.03125 0-.232039.138728-.462548.274778-.71875.375.301527-.0968.596455-.204138.875-.34375.55709-.279224 1.060053-.665694 1.5-1.09375.219973-.214028.409366-.441865.59375-.6875s.355408-.507743.5-.78125c.14012-.265048.276135-.524729.375-.8125.01041-.03078.02133-.06274.03125-.09375.09046-.278085.1388-.579404.1875-.875.0524-.31805.09375-.634029.09375-.96875v-2-68-2c0-3.324-2.676-6-6-6z" fill="url(#p)"/><path d="m11.3125 8c-1.88391 0-3.3125 1.4293755-3.3125 3.3125v63.375c0 1.883124 1.42859 3.3125 3.3125 3.3125h73.375c1.88391 0 3.3125-1.429376 3.3125-3.3125v-63.375c0-1.8831246-1.42859-3.3125-3.3125-3.3125zm4.79159 9.156616h63.792277v49.578781h-63.792277z"/><path d="m33 74c-1.662 0-3 1.338-3 3h-3v1c1.656 0 3 1.344 3 3v2c0 1.662 1.338 3 3 3h30c1.662 0 3-1.338 3-3v-2c0-1.656 1.344-3 3-3v-1h-3c0-1.662-1.338-3-3-3z"/><rect fill="#cf0" filter="url(#q)" height="3.142857" opacity=".243028" rx="1.571429" transform="matrix(1.2045455 0 0 1.4098656 -7.147728 -33.243035)" width="7.857143" x="50.57143" y="79.535713"/><rect fill="#7fff2a" height="2" rx="1" width="5" x="56" y="80.10714"/><path d="m8 74.6875v1c0 1.883124 1.42859 3.3125 3.3125 3.3125h15.6875c1.656 0 3 1.344 3 3v-1c0-1.656-1.344-3-3-3h-15.6875c-1.88391 0-3.3125-1.429376-3.3125-3.3125zm80 0c0 1.883124-1.42859 3.3125-3.3125 3.3125h-15.6875c-1.656 0-3 1.344-3 3v1c0-1.656 1.344-3 3-3h15.6875c1.88391 0 3.3125-1.429376 3.3125-3.3125zm-58 8.3125v1c0 1.662 1.338 3 3 3h30c1.662 0 3-1.338 3-3v-1c0 1.662-1.338 3-3 3h-30c-1.662 0-3-1.338-3-3z" fill="#fff"/><path d="m12 90c-3.324 0-6-2.676-6-6v-2-68-2c0-.334721.04135-.6507.09375-.96875.0487-.295596.09704-.596915.1875-.875.00988-.03038.020892-.0636.03125-.09375.098865-.287771.2348802-.547452.375-.8125.1445918-.273507.3156161-.535615.5-.78125s.3737765-.473472.59375-.6875c.439947-.428056.94291-.814526 1.5-1.09375.278545-.139612.5734731-.246947.875-.34375-.2562018.100222-.4867109.236272-.71875.375-.00741.0044-.023866-.0045-.03125 0-.031933.0193-.062293.04251-.09375.0625-.120395.0767-.2310226.163513-.34375.25-.1061728.0808-.2132809.161112-.3125.25-.1779299.161433-.3474596.345388-.5.53125-.1075789.130255-.2183939.265285-.3125.40625-.025089.03838-.038446.08587-.0625.125-.064763.103032-.1302275.204517-.1875.3125-.1010083.194706-.2056748.415701-.28125.625-.00796.02181-.023589.04055-.03125.0625-.0318251.09195-.0358045.186831-.0625.28125-.0303323.106618-.0703894.203031-.09375.3125-.0728786.341512-.125.698205-.125 1.0625v2 68 2c0 2.781848 2.2181517 5 5 5h2 68 2c2.781848 0 5-2.218152 5-5v-2-68-2c0-.364295-.05212-.720988-.125-1.0625-.04415-.206893-.08838-.397658-.15625-.59375-.0077-.02195-.0233-.04069-.03125-.0625-.06274-.173739-.138383-.367449-.21875-.53125-.04158-.0828-.07904-.169954-.125-.25-.0546-.09721-.126774-.18835-.1875-.28125-.09411-.140965-.204921-.275995-.3125-.40625-.143174-.17445-.303141-.346998-.46875-.5-.01117-.0102-.01998-.02115-.03125-.03125-.138386-.125556-.285091-.234436-.4375-.34375-.102571-.07315-.204318-.153364-.3125-.21875-.0074-.0045-.02384.0044-.03125 0-.232039-.138728-.462548-.274778-.71875-.375.301527.0968.596455.204138.875.34375.55709.279224 1.060053.665694 1.5 1.09375.219973.214028.409366.441865.59375.6875s.355408.507743.5.78125c.14012.265048.276135.524729.375.8125.01041.03078.02133.06274.03125.09375.09046.278085.1388.579404.1875.875.0524.31805.09375.634029.09375.96875v2 68 2c0 3.324-2.676 6-6 6z" fill="url(#r)" opacity=".6"/></g><path d="m11.3125 8c-1.88391 0-3.3125 1.4293755-3.3125 3.3125v63.375c0 1.883124 1.42859 3.3125 3.3125 3.3125h15.6875c1.656 0 3 1.344 3 3v2c0 1.662 1.338 3 3 3h30c1.662 0 3-1.338 3-3v-2c0-1.656 1.344-3 3-3h15.6875c1.88391 0 3.3125-1.429376 3.3125-3.3125v-63.375c0-1.8831246-1.42859-3.3125-3.3125-3.3125zm2.6875 6h68v58h-68z" transform="translate(34.951882 51.669494)"/><g transform="matrix(.09498015 0 0 .09498015 16.61341 49.706026)"><path d="m12.0625 12.0625v53.875h71.875v-53.875z" fill="url(#u)" transform="matrix(-1.0008688 0 0 -1.1558456 96.010447 88.220854)"/><path d="m12 12v62.28125h71.9375v-62.28125zm3 3h66v56h-66z" fill="#0e367e" filter="url(#n)"/></g><g transform="matrix(.09498015 0 0 .09498015 16.61341 49.706026)"><path d="m12 6c-3.324 0-6 2.676-6 6v72c0 3.324 2.676 6 6 6h72c3.324 0 6-2.676 6-6v-72c0-3.324-2.676-6-6-6zm2 7.494924h68.378807v58.505076h-68.378807z" fill="url(#o)"/><path d="m12 6c-3.324 0-6 2.676-6 6v2 68 2c0 .334721.04135.6507.09375.96875.0487.295596.09704.596915.1875.875.00988.03038.020892.0636.03125.09375.098865.287771.2348802.547452.375.8125.1445918.273507.3156161.535615.5.78125s.3737765.473472.59375.6875c.439947.428056.94291.814526 1.5 1.09375.278545.139612.5734731.246947.875.34375-.2562018-.100222-.4867109-.236272-.71875-.375-.00741-.0044-.023866.0045-.03125 0-.031933-.0193-.062293-.04251-.09375-.0625-.120395-.0767-.2310226-.163513-.34375-.25-.1061728-.0808-.2132809-.161112-.3125-.25-.1779299-.161433-.3474596-.345388-.5-.53125-.1075789-.130255-.2183939-.265285-.3125-.40625-.025089-.03838-.038446-.08587-.0625-.125-.064763-.103032-.1302275-.204517-.1875-.3125-.1010083-.194706-.2056748-.415701-.28125-.625-.00796-.02181-.023589-.04055-.03125-.0625-.0318251-.09195-.0358045-.186831-.0625-.28125-.0303323-.106618-.0703894-.203031-.09375-.3125-.0728786-.341512-.125-.698205-.125-1.0625v-2-68-2c0-2.781848 2.2181517-5 5-5h2 68 2c2.781848 0 5 2.218152 5 5v2 68 2c0 .364295-.05212.720988-.125 1.0625-.04415.206893-.08838.397658-.15625.59375-.0077.02195-.0233.04069-.03125.0625-.06274.173739-.138383.367449-.21875.53125-.04158.0828-.07904.169954-.125.25-.0546.09721-.126774.18835-.1875.28125-.09411.140965-.204921.275995-.3125.40625-.143174.17445-.303141.346998-.46875.5-.01117.0102-.01998.02115-.03125.03125-.138386.125556-.285091.234436-.4375.34375-.102571.07315-.204318.153364-.3125.21875-.0074.0045-.02384-.0044-.03125 0-.232039.138728-.462548.274778-.71875.375.301527-.0968.596455-.204138.875-.34375.55709-.279224 1.060053-.665694 1.5-1.09375.219973-.214028.409366-.441865.59375-.6875s.355408-.507743.5-.78125c.14012-.265048.276135-.524729.375-.8125.01041-.03078.02133-.06274.03125-.09375.09046-.278085.1388-.579404.1875-.875.0524-.31805.09375-.634029.09375-.96875v-2-68-2c0-3.324-2.676-6-6-6z" fill="url(#p)"/><path d="m11.3125 8c-1.88391 0-3.3125 1.4293755-3.3125 3.3125v63.375c0 1.883124 1.42859 3.3125 3.3125 3.3125h73.375c1.88391 0 3.3125-1.429376 3.3125-3.3125v-63.375c0-1.8831246-1.42859-3.3125-3.3125-3.3125zm4.79159 9.156616h63.792277v49.578781h-63.792277z"/><path d="m33 74c-1.662 0-3 1.338-3 3h-3v1c1.656 0 3 1.344 3 3v2c0 1.662 1.338 3 3 3h30c1.662 0 3-1.338 3-3v-2c0-1.656 1.344-3 3-3v-1h-3c0-1.662-1.338-3-3-3z"/><rect fill="#cf0" filter="url(#q)" height="3.142857" opacity=".243028" rx="1.571429" transform="matrix(1.2045455 0 0 1.4098656 -7.147728 -33.243035)" width="7.857143" x="50.57143" y="79.535713"/><rect fill="#7fff2a" height="2" rx="1" width="5" x="56" y="80.10714"/><path d="m8 74.6875v1c0 1.883124 1.42859 3.3125 3.3125 3.3125h15.6875c1.656 0 3 1.344 3 3v-1c0-1.656-1.344-3-3-3h-15.6875c-1.88391 0-3.3125-1.429376-3.3125-3.3125zm80 0c0 1.883124-1.42859 3.3125-3.3125 3.3125h-15.6875c-1.656 0-3 1.344-3 3v1c0-1.656 1.344-3 3-3h15.6875c1.88391 0 3.3125-1.429376 3.3125-3.3125zm-58 8.3125v1c0 1.662 1.338 3 3 3h30c1.662 0 3-1.338 3-3v-1c0 1.662-1.338 3-3 3h-30c-1.662 0-3-1.338-3-3z" fill="#fff"/><path d="m12 90c-3.324 0-6-2.676-6-6v-2-68-2c0-.334721.04135-.6507.09375-.96875.0487-.295596.09704-.596915.1875-.875.00988-.03038.020892-.0636.03125-.09375.098865-.287771.2348802-.547452.375-.8125.1445918-.273507.3156161-.535615.5-.78125s.3737765-.473472.59375-.6875c.439947-.428056.94291-.814526 1.5-1.09375.278545-.139612.5734731-.246947.875-.34375-.2562018.100222-.4867109.236272-.71875.375-.00741.0044-.023866-.0045-.03125 0-.031933.0193-.062293.04251-.09375.0625-.120395.0767-.2310226.163513-.34375.25-.1061728.0808-.2132809.161112-.3125.25-.1779299.161433-.3474596.345388-.5.53125-.1075789.130255-.2183939.265285-.3125.40625-.025089.03838-.038446.08587-.0625.125-.064763.103032-.1302275.204517-.1875.3125-.1010083.194706-.2056748.415701-.28125.625-.00796.02181-.023589.04055-.03125.0625-.0318251.09195-.0358045.186831-.0625.28125-.0303323.106618-.0703894.203031-.09375.3125-.0728786.341512-.125.698205-.125 1.0625v2 68 2c0 2.781848 2.2181517 5 5 5h2 68 2c2.781848 0 5-2.218152 5-5v-2-68-2c0-.364295-.05212-.720988-.125-1.0625-.04415-.206893-.08838-.397658-.15625-.59375-.0077-.02195-.0233-.04069-.03125-.0625-.06274-.173739-.138383-.367449-.21875-.53125-.04158-.0828-.07904-.169954-.125-.25-.0546-.09721-.126774-.18835-.1875-.28125-.09411-.140965-.204921-.275995-.3125-.40625-.143174-.17445-.303141-.346998-.46875-.5-.01117-.0102-.01998-.02115-.03125-.03125-.138386-.125556-.285091-.234436-.4375-.34375-.102571-.07315-.204318-.153364-.3125-.21875-.0074-.0045-.02384.0044-.03125 0-.232039-.138728-.462548-.274778-.71875-.375.301527.0968.596455.204138.875.34375.55709.279224 1.060053.665694 1.5 1.09375.219973.214028.409366.441865.59375.6875s.355408.507743.5.78125c.14012.265048.276135.524729.375.8125.01041.03078.02133.06274.03125.09375.09046.278085.1388.579404.1875.875.0524.31805.09375.634029.09375.96875v2 68 2c0 3.324-2.676 6-6 6z" fill="url(#r)" opacity=".6"/></g></g><path d="m2.459184 8.595225h3.76081v1.28543h-3.76081z" fill="url(#s)" stroke="#2f2485" stroke-linecap="square" stroke-width=".214571"/></svg>