<svg height="16" width="16" xmlns="http://www.w3.org/2000/svg" xmlns:xlink="http://www.w3.org/1999/xlink"><linearGradient id="a" gradientUnits="userSpaceOnUse" x1="17.18643716" x2="17.18643716" y1="58.2711893" y2="42.2688514012"><stop offset="0" stop-color="#0a0a0a"/><stop offset="1" stop-color="#3c3c3c"/></linearGradient><linearGradient id="b" gradientUnits="userSpaceOnUse" x1="16.00276402236" x2="16.00276402236" y1="50.93810261962" y2="42.2711898"><stop offset="0"/><stop offset="1" stop-opacity="0"/></linearGradient><radialGradient id="c" cx="85.651291" cy="29.289238" gradientTransform="matrix(-.41896884 0 0 -.13293303 57.887319 47.46325)" gradientUnits="userSpaceOnUse" r="21"><stop offset="0" stop-color="#52acf6"/><stop offset="1" stop-color="#0060ff"/></radialGradient><linearGradient id="d" gradientUnits="userSpaceOnUse" x1="15.44494121054" x2="15.44494121054" y1="42.2711898" y2="52.31144003185"><stop offset="0" stop-color="#fff"/><stop offset="1" stop-color="#fff" stop-opacity="0"/></linearGradient><filter id="e" color-interpolation-filters="sRGB"><feGaussianBlur stdDeviation=".1903125"/></filter><filter id="f" color-interpolation-filters="sRGB"><feGaussianBlur stdDeviation=".285"/></filter><linearGradient id="g" gradientTransform="matrix(0 .29463346 -.2946335 0 25.447894 44.693588)" gradientUnits="userSpaceOnUse" x1="34.571178" x2="43.210567" xlink:href="#h" y1="48" y2="48"/><linearGradient id="h"><stop offset="0" stop-color="#5b5b5b"/><stop offset="1" stop-color="#0a0a0a"/></linearGradient><linearGradient id="i" gradientTransform="matrix(0 .19413168 -.19413168 0 20.6068 45.190626)" gradientUnits="userSpaceOnUse" x1="34.365479" x2="43.416267" xlink:href="#h" y1="48" y2="48"/><linearGradient id="j" gradientTransform="matrix(.5294087 0 0 .72742223 .353035 34.481788)" gradientUnits="userSpaceOnUse" x1="39" x2="39" y1="72" y2="42"><stop offset="0" stop-color="#484848"/><stop offset="1" stop-color="#5d5d5d"/></linearGradient><linearGradient id="k" gradientUnits="userSpaceOnUse" x1="36.925404" x2="42.850594" y1="48" y2="48"><stop offset="0" stop-opacity=".426295"/><stop offset="1" stop-color="#fff" stop-opacity=".317073"/></linearGradient><linearGradient id="l" gradientUnits="userSpaceOnUse" x1="34.139206" x2="43.64254" y1="48" y2="48"><stop offset="0" stop-color="#fff"/><stop offset="1" stop-color="#7c7c7c"/></linearGradient><linearGradient id="m" gradientTransform="matrix(.5555555 0 0 .5 -.666667 45.999997)" gradientUnits="userSpaceOnUse" x1="30" x2="48" y1="31" y2="31"><stop offset="0" stop-color="#1a1a1a"/><stop offset=".25049603" stop-color="#1a1a1a"/><stop offset=".50099206" stop-color="#cdff01"/><stop offset=".75049603" stop-color="#1a1a1a"/><stop offset="1" stop-color="#1a1a1a"/></linearGradient><g transform="translate(-9.16949 -42.288138)"><rect fill="url(#a)" height="15.999998" rx="2.285714" width="15.999998" x="9.186437" y="42.271194"/><path d="m11.472152 42.27119c-1.266285 0-2.2857137 1.019428-2.2857137 2.285714v11.42857c0 1.266286 1.0194287 2.285716 2.2857137 2.285714h11.428571c1.266286 0 2.285714-1.019427 2.285714-2.285714v-11.42857c0-1.266286-1.019428-2.285714-2.285714-2.285714zm0 .380952h11.428571c1.058638 0 1.904762.846124 1.904762 1.904762v11.42857c0 1.05864-.846124 1.904762-1.904762 1.904762h-11.428571c-1.058636.000001-1.9047613-.846124-1.9047613-1.904762v-11.42857c0-1.058638.8461243-1.904762 1.9047613-1.904762z" fill="url(#b)"/><path d="m14.106758 43.582878h7.928591v2.70996h-7.928591z" fill="url(#c)" stroke="#2f2485" stroke-linecap="square" stroke-width=".452361"/><path d="m12.995961 42.271187h.380952v6.095238h-.380952z" opacity=".5"/><path d="m24.04358 42.580714v5.785713h.380952v-5.511904c-.116843-.104601-.244183-.194868-.380952-.273809z" opacity=".4"/><path d="m11.472152 42.27119c-1.266285 0-2.2857137 1.019428-2.2857137 2.285714v11.42857c0 1.13709.8201257 2.070428 1.9047617 2.25-.871158-.176426-1.5238093-.942739-1.5238093-1.869047v-11.428571c0-1.058637.8461243-1.904761 1.9047613-1.904761h11.428571c1.058638 0 1.904762.846124 1.904762 1.904761v11.428571c0 .926309-.652652 1.69262-1.52381 1.869047 1.084636-.179573 1.904762-1.112908 1.904762-2.25v-11.42857c0-1.266286-1.019428-2.285714-2.285714-2.285714z" fill="url(#d)" opacity=".15"/><g id="n" transform="matrix(.38095235 0 0 .38095235 6.900724 23.985477)"><path d="m18.336386 69.391447c-.04391.308622-.210923.578128-.463232.740132v2.43421c.291983.187479.479776.517136.479776.888158.000001.371023-.187793.70068-.479776.888158v2.434211c.291983.187478.479776.517135.479776.888158.000001.371022-.187793.700679-.479776.888158v2.43421c.291983.187479.479776.517136.479776.888158.000001.371023-.187793.70068-.479776.888158v1.052632h.49632c.07953-.502989.514104-.888158 1.042274-.888158s.962748.385169 1.042273.888158h2.150723c.07953-.502989.514104-.888158 1.042273-.888158.275103 0 .523066.10841.711393.279605v-2.664474c-.188327.171195-.43629.279606-.711393.279606-.584466 0-1.058817-.471579-1.058817-1.052632.000001-.581053.47435-1.052632 1.058817-1.052632.275103 0 .523066.108411.711393.279606v-2.664474c-.188327.171195-.43629.279605-.711393.279605-.584466 0-1.058817-.471579-1.058817-1.052631.000001-.581053.47435-1.052632 1.058817-1.052632.275103 0 .523066.108411.711393.279605v-2.664473c-.188327.171194-.43629.279605-.711393.279605-.584466 0-1.058817-.471579-1.058817-1.052632.000001-.581052.47435-1.052631 1.058817-1.052631.275103 0 .523066.10841.711393.279605v-1.184211h-1.786754c-.07267.5108-.508517.904606-1.042273.904606s-.969606-.393806-1.042274-.904606zm1.075362.904606c.584468 0 1.058817.471579 1.058817 1.052631.000001.581053-.47435 1.052632-1.058817 1.052632s-1.058818-.471579-1.058818-1.052632c.000001-.581052.474351-1.052631 1.058818-1.052631zm2.117635 2.105263c.584467 0 1.058817.471579 1.058817 1.052631.000001.581053-.47435 1.052632-1.058817 1.052632s-1.058818-.471579-1.058818-1.052632c.000001-.581052.47435-1.052631 1.058818-1.052631zm-2.117635 2.105263c.584468 0 1.058817.471579 1.058817 1.052632.000001.581052-.47435 1.052631-1.058817 1.052631s-1.058818-.471579-1.058818-1.052631c.000001-.581053.474351-1.052632 1.058818-1.052632zm2.117635 2.105263c.584467 0 1.058817.471579 1.058817 1.052632.000001.581052-.47435 1.052631-1.058817 1.052631s-1.058818-.471579-1.058818-1.052631c.000001-.581053.47435-1.052632 1.058818-1.052632zm-2.117635 2.105263c.584468 0 1.058817.471579 1.058817 1.052632.000001.581053-.47435 1.052632-1.058817 1.052632s-1.058818-.471579-1.058818-1.052632c.000001-.581053.474351-1.052632 1.058818-1.052632zm2.117635 2.105264c.584467 0 1.058817.471579 1.058817 1.052631.000001.581053-.47435 1.052632-1.058817 1.052632s-1.058818-.471579-1.058818-1.052632c.000001-.581052.47435-1.052631 1.058818-1.052631z" fill="#999"/><path d="m34 68.96875v6.03125c0 .554.446 1 1 1s1-.446 1-1v-6.03125zm4 0v6.03125c0 .554.446 1 1 1s1-.446 1-1v-6.03125zm4 0v6.03125c0 .554.446 1 1 1s1-.446 1-1v-6.03125z" fill="none" filter="url(#e)" stroke="#000" stroke-linecap="square" stroke-width="1.894442" transform="matrix(.5294087 0 0 .5263158 .353035 42.927631)"/><path d="m16 62h10v26h-10z"/><path d="m17 81h1v1h-1z"/><path d="m34 51.5v15.5c0 .554.446 1 1 1s1-.446 1-1v-13.71875c-.787438-.447486-1.481631-1.043087-2-1.78125zm10 0c-.518369.738163-1.212562 1.333764-2 1.78125v13.71875c0 .554.446 1 1 1s1-.446 1-1zm-6 2.5v13c0 .554.446 1 1 1s1-.446 1-1v-13c-.327491.05456-.657101.09375-1 .09375s-.672508-.03919-1-.09375z" fill="none" filter="url(#f)" stroke="#000" stroke-linecap="square" stroke-width="1.894442" transform="matrix(.5294087 0 0 .5263158 .353035 42.927631)"/><path d="m19 75.84375v6.65625c0 .277.223.5.5.5s.5-.223.5-.5v-6.25c-.358059-.08471-.682581-.238403-1-.40625zm4 0c-.317419.167847-.641941.321539-1 .40625v6.25c0 .277.223.5.5.5s.5-.223.5-.5z" opacity=".7"/><path d="m16.9375 65.03125v22.070445h8.125v-22.070445z" fill="url(#j)"/><path d="m42.850595 48a3.959722 3.959722 0 1 1 -7.919444 0 3.959722 3.959722 0 1 1 7.919444 0z" fill="url(#k)" transform="matrix(0 .7282863 -.7325661 0 56.163147 39.867098)"/><path d="m42.850595 48a3.959722 3.959722 0 1 1 -7.919444 0 3.959722 3.959722 0 1 1 7.919444 0z" fill="#c6c6c6" stroke="#000" stroke-linecap="square" stroke-width="2.143275" transform="matrix(.4679446 0 0 .4652108 2.801199 45.860671)"/><path d="m42.850595 48a3.959722 3.959722 0 1 1 -7.919444 0 3.959722 3.959722 0 1 1 7.919444 0z" fill="none" stroke="url(#l)" stroke-linecap="square" stroke-width="3.000585" transform="matrix(0 .3322934 -.3342462 0 37.043788 55.267608)"/><path d="m20.999974 67.401316c-.440612 0-.810657.367883-.810657.805921 0 .365031.271486.665088.612129.756579v.263158h.363968v-.246711c.362838-.07326.628672-.389744.628673-.773026 0-.438038-.353502-.805921-.794113-.805921zm0 .263158c.29739 0 .529409.24711.529409.542763-.000001.295652-.232019.526316-.529409.526316-.29739-.000001-.545953-.230664-.545953-.526316.000001-.295653.248563-.542763.545953-.542763z" opacity=".426295"/><path d="m16 62h10v.5h-10z"><path d="m16 61h10v1h-10z" fill="url(#m)"/></path></g><use id="o" height="96" transform="translate(3.809524)" width="96" xlink:href="#n"/><use height="96" transform="translate(3.809524)" width="96" xlink:href="#o"/><g stroke-linecap="square"><path d="m11.305486 57.318807a1.1666667 1.1666666 0 1 1 0-2.333333 1.1666667 1.1666666 0 1 1 0 2.333333z" fill="url(#g)" stroke="#000" stroke-width=".380952"/><path d="m11.288479 53.509284a.7687075.7687075 0 1 1 0-1.537415.7687075.7687075 0 1 1 0 1.537415z" fill="url(#i)" stroke="#000" stroke-width=".380952"/><path d="m18.779659 48.58227a.76870752.76870752 0 1 1 0-1.537415.76870752.76870752 0 1 1 0 1.537415z" fill="#a0ff1a" stroke="#1a1a1a" stroke-width=".1"/><path d="m22.472686 48.639138a.76870752.76870752 0 1 1 0-1.537415.76870752.76870752 0 1 1 0 1.537415z" fill="#a0ff1a" stroke="#1a1a1a" stroke-width=".1"/><path d="m14.922223 48.631569a.76870752.76870752 0 1 1 0-1.537415.76870752.76870752 0 1 1 0 1.537415z" fill="#a0ff1a" stroke="#1a1a1a" stroke-width=".1"/></g></g></svg>