<svg height="96" width="96" xmlns="http://www.w3.org/2000/svg" xmlns:xlink="http://www.w3.org/1999/xlink"><linearGradient id="a"><stop offset="0" stop-color="#fff"/><stop offset="1" stop-color="#fff" stop-opacity="0"/></linearGradient><linearGradient id="b" gradientTransform="matrix(1.0238095 0 0 1.0119048 -1.142857 -98.071429)" gradientUnits="userSpaceOnUse" x1="32.251034" x2="32.251034" y1="6.131708" y2="90.238609"><stop offset="0"/><stop offset="1" stop-opacity=".588235"/></linearGradient><linearGradient id="c" gradientTransform="matrix(1.8576982 0 0 2.1225772 3.927063 .571947)" gradientUnits="userSpaceOnUse" x1="12.578789" x2="12.578789" xlink:href="#a" y1="2.913743" y2="43.810863"/><linearGradient id="d" gradientTransform="matrix(1.4250738 0 0 1.5058902 -.614314 -2.660149)" gradientUnits="userSpaceOnUse" x1="33.579403" x2="33.579403" xlink:href="#e" y1="5.708645" y2="16.323294"/><linearGradient id="e"><stop offset="0" stop-color="#262626"/><stop offset="1" stop-color="#303030"/></linearGradient><linearGradient id="f" gradientTransform="matrix(1.7488928 0 0 2.2829548 3.337261 -10.043165)" gradientUnits="userSpaceOnUse" x1="16.91585" x2="16.91585" xlink:href="#e" y1="7.000642" y2="14"/><linearGradient id="g" gradientTransform="matrix(1.8338353 0 0 .79955926 4.514517 13.800151)" gradientUnits="userSpaceOnUse" x1="24.682861" x2="24.682861" xlink:href="#h" y1="9.241672" y2="13.523027"/><linearGradient id="h"><stop offset="0"/><stop offset="1" stop-opacity="0"/></linearGradient><radialGradient id="i" cx="26.616697" cy="-2.064498" gradientTransform="matrix(-.00000003 -2.4357554 2.6407402 0 71.136419 123.79768)" gradientUnits="userSpaceOnUse" r="23"><stop offset="0" stop-color="#64ffff"/><stop offset="1" stop-color="#329696"/></radialGradient><linearGradient id="j" gradientUnits="userSpaceOnUse" x1="77" x2="69.890766" xlink:href="#h" y1="44.999996" y2="-9.000004"/><linearGradient id="k" gradientUnits="userSpaceOnUse" x1="78" x2="64.066643" xlink:href="#h" y1="43.999996" y2="-8.000004"/><linearGradient id="l" gradientUnits="userSpaceOnUse" x1="58" x2="74" y1="37.999996" y2="21.999996"><stop offset="0" stop-color="#f1decd"/><stop offset=".41505799" stop-color="#f6e8dd"/><stop offset=".625" stop-color="#f0dcc9"/><stop offset=".87263751" stop-color="#dab693"/><stop offset=".9425199" stop-color="#bf9d7a"/><stop offset="1" stop-color="#8f765e"/></linearGradient><linearGradient id="m" gradientUnits="userSpaceOnUse" x1="72" x2="60" xlink:href="#h" y1="38.893555" y2="37.313724"/><linearGradient id="n" gradientUnits="userSpaceOnUse" x1="57" x2="57" xlink:href="#a" y1="37.999996" y2="11.999996"/><linearGradient id="o" gradientUnits="userSpaceOnUse" x1="86.426594" x2="86.426594" y1="35.656655" y2="3.656655"><stop offset="0" stop-color="#906038"/><stop offset="1" stop-color="#c6956c"/></linearGradient><g fill="url(#b)"><path d="m12-95.03125c-5.5110903 0-10.03125 4.52016-10.03125 10.03125v71c0 5.5110902 4.5201598 10.03125 10.03125 10.03125h72c5.51109 0 10.03125-4.5201597 10.03125-10.03125v-71c0-5.51109-4.52016-10.03125-10.03125-10.03125z" opacity=".08" transform="scale(1 -1)"/><path d="m12-94.03125c-4.971633 0-9.03125 4.059617-9.03125 9.03125v71c0 4.9716329 4.0596171 9.03125 9.03125 9.03125h72c4.971633 0 9.03125-4.059617 9.03125-9.03125v-71c0-4.971633-4.059617-9.03125-9.03125-9.03125z" opacity=".1" transform="scale(1 -1)"/><path d="m12-93c-4.4091333 0-8 3.590867-8 8v71c0 4.4091333 3.5908667 8 8 8h72c4.409133 0 8-3.5908667 8-8v-71c0-4.409133-3.590867-8-8-8z" opacity=".2" transform="scale(1 -1)"/><rect height="85" opacity=".3" rx="7" transform="scale(1 -1)" width="86" x="5" y="-92"/></g><g fill-rule="evenodd"><path d="m10.897644 7.0957837h75.232872l4.921875 5.9795023v72.60641c0 3.312644-2.195157 5.979502-4.921875 5.979502h-75.232872c-2.7267192 0-4.9218754-2.666858-4.9218754-5.979502v-72.60641c0-3.3126443 2.1951562-5.9795023 4.9218754-5.9795023z" fill="url(#i)" stroke="#505050" stroke-linecap="round" stroke-linejoin="round" stroke-width=".776649"/><path d="m6.326591 21.189417h84.375v3.416858h-84.375z" fill="url(#g)" opacity=".2"/><path d="m11.207277 7.0804608s68.794859.019613 68.794859.019613c2.73688 0 4.658648 2.8792329 4.658648 6.0653092v7.611345h-78.7001802s-.0000093-7.611345-.0000093-7.611345c0-3.3959442 2.1140362-6.0849162 5.2466825-6.0849162z" fill="url(#d)" stroke="url(#f)" stroke-width=".746167"/></g><rect height="82.855606" rx="4.21875" ry="5.125288" style="opacity:.4;fill:none;stroke-width:.777888;stroke-linecap:round;stroke-linejoin:round;stroke:url(#c)" width="83.669243" x="6.679458" y="7.950726"/><g transform="translate(-.045238 3.928091)"><g fill="#bebebe"><path d="m17.724579 9.1678378c-.750941-.781137-1.968366-.781097-2.719282.000016-.000264.000272-.000589.000624-.000923.0008l-.719619.7485578-.717394-.7462378c-.000106-.000112-.000106-.000112-.000177-.000184-.750918-.781121-1.965381-.784161-2.71625-.0032-.750986.7811848-.750979 2.0475702-.000084 2.8286592.750825.781025 1.968251.781033 2.719236-.000152.000288-.000304.000527-.000552.000923-.0008l.722603-.751662.717371.746222c.000163.000168.000225.000232.0003.000312.750826.781017 1.962328.787185 2.713197.0064.750917-.781121.750932-2.0475304.000107-2.8285472zm-4.797768 2.1620922c-.396231.410986-1.03812.41061-1.434002-.0008-.396298-.412235-.399252-1.083723-.0029-1.4959734.396445-.4123858 1.047924-.4154978 1.444221-.0032.000314.000336.000642.000672.000923.0008l.614894.6396214c.0002.000208.000312.000328.000462.000488.05598.05824.05607.152581.000176.210714-.000106.000112-.000176.00004-.000326.0002l-.623405.648478-.000022-.000024zm2.717492.0016c-.000225-.000232-.000463-.00048-.000706-.000728l-.615277-.640077c-.000138-.000144-.000301-.000312-.000362-.000384-.05598-.05824-.05598-.152437.000048-.210714l.000023-.000024.620397-.6453504c.396567-.4111138 1.038235-.4107218 1.434141.0008.396297.4122354.399297 1.0838274.0029 1.4961414-.39633.412274-1.044894.41221-1.44119-.000024z"/><path d="m37.389571 11.961902c.114639.000001.208435-.0087.28139-.02605.07643-.02084.137219-.0469.182382-.07816.04516-.03474.07643-.07469.0938-.119852.01737-.04516.02605-.09553.02605-.151116-.000002-.118114-.05559-.215384-.166749-.291812-.111168-.0799-.302235-.165011-.573202-.255335-.118115-.04169-.236229-.08858-.354343-.140695-.118115-.05558-.22407-.123324-.317866-.203226-.0938-.08337-.170224-.182381-.229281-.297023-.05906-.118112-.08859-.260544-.08859-.4272964-.000001-.166747.03126-.316126.0938-.4481392.06253-.1354808.151116-.250121.265757-.343921.11464-.093793.253598-.165009.416874-.2136478.163275-.052106.347394-.07816.552358-.078164.243175.0000037.453348.026058.630522.078164.177169.052113.323075.1094329.437717.1719605l-.234491.6409435c-.100747-.05211-.21365-.09727-.33871-.135484-.12159-.04168-.269233-.062528-.442929-.062531-.194542.000003-.335237.027795-.422084.083375-.08338.05211-.125064.13375-.125063.244913-.000001.06601.01563.1215914.0469.1667504.03126.04516.07469.08685.130273.125062.05906.03474.125061.06774.198015.09901.07643.02779.1598.05732.250124.08859.187592.06948.350867.13896.489827.208437.138956.06601.253596.144171.343921.234492.09379.09032.163273.196279.208437.317866.04516.12159.06774.269232.06774.442929-.000003.336973-.118117.599256-.354343.786849-.236231.184119-.59231.276179-1.068239.276179-.159803 0-.303972-.01042-.432507-.03127-.128537-.01737-.243177-.03995-.343921-.06774-.09727-.02779-.182383-.05732-.255335-.08859-.06948-.03127-.128536-.06079-.177172-.08859l.229281-.646155c.107692.05906.239702.112905.39603.161539.159801.04516.354342.06774.583624.06774"/><path d="m41.725222 12.488205c-.132013.03821-.302236.07295-.51067.104219-.208439.03474-.427298.05211-.656577.05211-.232756 0-.427297-.03126-.583623-.0938-.152855-.06253-.274443-.149379-.364765-.260546-.09032-.11464-.154591-.250124-.192804-.406452-.03821-.156327-.05732-.328287-.05732-.515881v-1.5268014h.776427v1.4330044c-.000001.250126.033.430771.09901.541936.066.111167.189329.16675.369975.16675.05558 0 .114639-.0017.177172-.0052.06253-.0069.118112-.01389.166749-.02084v-2.1156354h.776428v2.6471494"/><path d="m42.459148 9.9348526c.13201-.03821.302233-.07295.510671-.104219.208436-.03474.427294-.05211.656576-.05211.232753.000003.425557.03127.578413.0938.156325.05906.27965.1441714.369975.2553354.09032.111169.154588.243179.192804.39603.03821.152856.05732.323079.05732.510671v1.547644h-.776427v-1.453848c-.000002-.250122-.03301-.427294-.09901-.531514-.06601-.104216-.189332-.156325-.369975-.156328-.05559.000003-.114642.0035-.177172.01042-.06253.0035-.118115.0087-.166749.01563v2.115635h-.776428v-2.6471494"/><g transform="translate(1.287637 -.417998)"><path d="m46.496985 10.139203c.100744-.04168.204962-.08858.312655-.140695.111166-.05558.218858-.1146372.323078-.1771714.104217-.066002.203224-.1337438.297022-.2032261.09727-.072949.184118-.1493762.260546-.2292806h.541937v3.6111701h-.776428v-2.600251c-.10422.06948-.220597.13375-.349132.192804-.128537.05559-.253599.104221-.375187.145906z"/><path d="m50.281988 13.078164c-.0938 0-.192805-.0069-.297022-.02084-.104219-.01042-.204964-.02605-.302234-.0469-.09727-.02084-.185856-.04342-.265757-.06774-.0799-.02432-.142432-.0469-.187593-.06774l.151117-.646155c.09032.03821.204962.0799.343921.125062.142431.04169.317865.06253.526303.06253.239701 0 .415135-.04516.526303-.135484.111165-.09032.166748-.21191.16675-.364765-.000002-.0938-.02085-.171959-.06253-.234492-.03822-.066-.09206-.118113-.161539-.156327-.06948-.04169-.152855-.06948-.250124-.08338-.0938-.01737-.194543-.02605-.302234-.02605h-.302233v-.625311h.34392c.07643.000003.149379-.0069.218859-.02084.07295-.01389.13722-.03647.192804-.06774.05558-.03474.09901-.0799.130274-.135484.03474-.05906.05211-.132008.05211-.218859-.000002-.066-.0139-.123323-.04169-.171961-.02779-.04863-.06427-.08858-.109429-.119851-.04169-.03126-.09206-.05384-.151117-.067742-.05558-.017367-.112904-.026052-.17196-.026055-.149381.000003-.288339.022584-.416874.067742-.125063.04516-.239703.100747-.343921.166749l-.276179-.5679986c.05558-.034736.119851-.071212.192804-.1094294.07643-.03821.159801-.072949.250124-.1042185.09032-.031262.185856-.057316.286601-.078164.104218-.02084.213647-.031262.328288-.031266.21191.0000037.394292.026058.547147.078164.156326.048639.284862.1198547.385609.2136478.100742.090326.175432.1980183.224069.3230773.04863.1215904.07295.2553384.07295.4012404-.000002.142435-.03995.281393-.119851.416874-.0799.132012-.187595.232757-.323077.302234.187591.07643.33176.191069.432507.343921.104215.149381.156325.330026.156327.541936-.000002.16675-.02779.321341-.08338.463772-.05558.138958-.142434.260546-.260546.364765-.118116.100745-.269233.180645-.45335.239702-.180647.05558-.396032.08337-.646155.08337"/><path d="m53.181134 10.738459c-.000001.15633-.05037.276181-.151117.359554-.09727.0799-.208438.119853-.333499.119851-.125063.000002-.237966-.03995-.33871-.119851-.09727-.08337-.145906-.203224-.145906-.359554 0-.156325.04863-.274439.145906-.354343.100744-.08337.213647-.125059.33871-.125062.125061.000003.236228.04169.333499.125062.100744.0799.151116.198018.151117.354343m0 1.849878c-.000001.156328-.05037.276179-.151117.359554-.09727.0799-.208438.119851-.333499.119851-.125063 0-.237966-.03995-.33871-.119851-.09727-.08338-.145906-.203226-.145906-.359554 0-.156327.04863-.274441.145906-.354343.100744-.08337.213647-.125061.33871-.125062.125061.000001.236228.04169.333499.125062.100744.0799.151116.198016.151117.354343"/><path d="m54.52604 13.078164c-.0938 0-.192805-.0069-.297022-.02084-.10422-.01042-.204964-.02605-.302234-.0469-.09727-.02084-.185857-.04342-.265757-.06774s-.142432-.0469-.187593-.06774l.151117-.646155c.09032.03821.204962.0799.343921.125062.142431.04169.317865.06253.526303.06253.239701 0 .415135-.04516.526303-.135484.111165-.09032.166748-.21191.16675-.364765-.000002-.0938-.02085-.171959-.06253-.234492-.03822-.066-.09206-.118113-.161539-.156327-.06948-.04169-.152855-.06948-.250124-.08338-.0938-.01737-.194543-.02605-.302234-.02605h-.302234v-.625311h.343921c.07643.000003.149379-.0069.218859-.02084.07295-.01389.13722-.03647.192804-.06774.05558-.03474.09901-.0799.130273-.135484.03474-.05906.05211-.132008.05211-.218859-.000002-.066-.0139-.123323-.04169-.171961-.02779-.04863-.06427-.08858-.109429-.119851-.04169-.03126-.09206-.05384-.151117-.067742-.05558-.017367-.112904-.026052-.17196-.026055-.149381.000003-.288339.022584-.416874.067742-.125063.04516-.239703.100747-.343921.166749l-.276178-.5679986c.05558-.034736.119851-.071212.192804-.1094294.07643-.03821.159801-.072949.250124-.1042185.09032-.031262.185856-.057316.286601-.078164.104218-.02084.213647-.031262.328288-.031266.21191.0000037.394292.026058.547147.078164.156326.048639.284862.1198547.385609.2136478.100742.090326.175432.1980183.224069.3230773.04863.1215904.07295.2553384.07295.4012404-.000002.142435-.03995.281393-.119851.416874-.0799.132012-.187595.232757-.323077.302234.187591.07643.33176.191069.432506.343921.104216.149381.156326.330026.156328.541936-.000002.16675-.02779.321341-.08337.463772-.05559.138958-.142434.260546-.260546.364765-.118116.100745-.269233.180645-.45335.239702-.180647.05558-.396032.08337-.646155.08337"/><path d="m57.039578 13c.02084-.253598.06427-.517618.130274-.79206.066-.274441.145904-.543672.239702-.807694.09727-.264018.204962-.512405.323077-.745162.118113-.236226.237964-.439451.359554-.609678h-1.568488v-.661787h2.527298v.5627797c-.111169.1215913-.234494.2900773-.369976.5054593-.132012.215388-.258811.460301-.380397.734741-.118116.270969-.222335.562781-.312655.875435-.086851.312656-.140697.625311-.161539.937966z"/></g></g><path d="m56.426594 2.656654h29c3.324 0 6 2.676 6 6v29z" fill="url(#o)"/><g transform="translate(.885851 -3.271025)"><path d="m48.15625 5.999996c-.0024.01001.000032.03116 0 .03125-.01981.05795-.02351.0081-.03125.03125-.0077.02318-.03079.09215-.03125.09375l-.03125.125c-.000013.00009.0011.05037 0 .0625-.0022.02426.000449.05297 0 .0625-.000898.01907.000115.02415 0 .03125-.000229.0142-.000014.02389 0 .03125-.0015.01979.000262.02404 0 .03125.000108.01161-.000016.02738 0 .03125-.0037.02964-.03075.05413-.03125.0625-.0019.0097-.000003.03127 0 .03125-.000396.01267.000057.02615 0 .03125-.000113.01021-.000005.02491 0 .03125-.0049.0305-.03125.06246-.03125.0625-.00014.0017-.000051.133044 0 .15625-.000058.0017-.000009.07054 0 .09375s-.0017-.089 0 .03125c-.0022-.149571.000033.008 0 .03125-.000033.02321-.000106.123339 0 .125-.000014.0058-.000001.02565 0 .03125.000001.0112-.000093.124173 0 .125.000006.000055.02488.0275.03125.0625.000072.0057-.000521.01672 0 .03125.0025.01279-.0011.02719 0 .03125.0045.01727-.002.02454 0 .03125.004.01343.02956.02598.03125.03125.0034.01053-.0021.02486 0 .03125.003.0127-.000687.02901 0 .03125.0011.0074-.000004.03123 0 .03125.000174.000814.02761.114079.03125.125.0036.01092-.0039.01967 0 .03125.0075.02441.02532.07602.03125.09375.0039.01159.01904.04077.03125.0625.000992.009.0026.03155 0 .03125.0077.02319.03067.06094.03125.0625.000583.0016-.0077.008 0 .03125.0038.0116.02063.03352.03125.0625-.0076-.02322.03191.06403.03125.0625.0013.0038-.0031.02252 0 .03125.0031.0087.03116.09356.03125.09375.000092.000187.05792.08658.0625.09375.0046.0072-.0022.02798 0 .03125.0043.0066.02768-.0054.03125 0 .000012.000021.02359.01971.03125.03125.0033.0087.02166.04047.03125.0625.0048.01102-.000042.03117 0 .03125.000012.000023.02321.01763.03125.03125.0158.01915.02461.02392.03125.03125.01327.01466.02615.02597.03125.03125.0031.0052-.000005.03124 0 .03125.0019.0027.09173.122355.09375.125.000253.000331.05666.08781.0625.09375.0029.003.02909-.0022.03125 0 .0042.0064-.0077.01963 0 .03125.008.008.02347.02354.03125.03125.004.0059.02527.02249.03125.03125.0081.0085-.0036.02768 0 .03125.0031.0037.03126.000013.03125 0 .01038.01368.09367.124927.09375.125.000075.000073.08182.08485.09375.09375.0039.0039.02742-.0038.03125 0 .0026.0026.01741.01874.03125.03125.01148.0076.01963.02359.03125.03125.0065.0059.02718-.0036.03125 0 .0024.0024-.0034.0279 0 .03125.0085.008.09358.09363.09375.09375l.125.0625c.000033.000017.023-.004.03125 0 .0086.0057.01968.02352.03125.03125.02357.01044.05324.02766.0625.03125.01537.0098.0307.03093.03125.03125.000864.000501-.000493-.01643.03125 0 .005.0016.0266-.0015.03125 0 .01155.0078.02011.02382.03125.03125.0056.0037-.0074.02641 0 .03125.0037.0024.02267-.0054.03125 0 .0086.0054.124811.06241.125.0625.000757.000345.08293.02764.09375.03125.01082.0036.01964.02742.03125.03125.0031.0012.327544.08982.15625.03125.05795.01981.0081.02351.03125.03125.02318.0077.09215.03079.09375.03125.02317.0078.15463.03087.15625.03125.005.0017.02546-.002.03125 0 .01623.0027.03492-.0044.0625 0 .01655.0026.01868.02943.03125.03125.01047.0015.0274-.000293.03125 0 .02003.0015.02331-.000311.03125 0 .01356.0017.02006-.0013.03125 0 .03151.0062.06244.03124.0625.03125.000412.000055.116817-.00007.125 0 .0017.000139.133044.000051.15625 0 .0017.000058.07054.000009.09375 0s-.089.0017.03125 0c1.191255-.0064 1.834328.221026 1.78125.1875.07062.04461.100443.05103.25.3125.149557.261465.370391.768175.59375 1.625.875022 3.356653 1.40625 11.447245 1.40625 26.90625-.000116.0331-.000163.152825 0 .15625.000903.03257-.000987.06893 0 .09375-.000054.01544.000003.01709 0 .03125-.000001.0071-.000063.0228 0 .03125.000031.0042-.000191.02208 0 .03125.000191.0092-.000032.124788 0 .125s.02782.113622.03125.125c.0017.0057.03022-.0033.03125 0 .001.0033-.00075.02892 0 .03125.000169.0058-.000545.02078 0 .03125s-.000026.03099 0 .03125c.000008.000079.02611.0374.03125.0625.0037.01118-.0039.01966 0 .03125.01122.05483.03123.124942.03125.125.0246.07871-.003.02209 0 .03125.003.0092-.0039.01965 0 .03125.0077.0232.03066.06089.03125.0625.000037.000101.05297.139556.0625.15625.0048.0083.02841-.0047.03125 0 .0028.0047-.0019.02813 0 .03125.0077.01248-.0032.02638 0 .03125.0019.0044.02919-.0049.03125 0 .0016.0049-.0017.02627 0 .03125.0052.01218-.000028.03119 0 .03125.0022.006-.006.01641 0 .03125s.06245.09366.0625.09375c.000833.0015.04702.101862.0625.125.01548.02314.03034.0298.03125.03125.000057.000091.08056.109529.09375.125.01319.01547.02567.02518.03125.03125.0038.0055.02726-.0058.03125 0 .0029.0029-.0024.02885 0 .03125.0063.0092-.0049.02415 0 .03125.0038.0058.02745-.0057.03125 0 .0035.0051-.000309.03085 0 .03125.0035.0053-.0043.02492 0 .03125.0043.0063.09347.09343.09375.09375.0011.0013.04697.07828.0625.09375s.03007-.0012.03125 0c.0024.0025.09126.09139.09375.09375.000078.000074.08254.08543.09375.09375.004.004.02724-.004.03125 0 .004.004.02529.0254.03125.03125.01135.0076.01963.02358.03125.03125.02699.02353.06229.03109.0625.03125.002.0015.05503.036.09375.0625.0057.0052.01563.01791.03125.03125.0052.0053.02037.02075.03125.03125.0054.0052.01615.01763.03125.03125.0075.0068.01169.0152.03125.03125.01159.0076.03067-.00036.03125 0 .0406.02862.12492.09371.125.09375.000022.000012.02322-.0039.03125 0 .02678.0129.05137.05805.0625.0625.0079.0044.03129.000022.03125 0 .0051.0032.01795-.0078.03125 0 .0091.0038.01848-.0053.03125 0 .0073.0024.02428.02897.03125.03125.02782.01387.06245.03123.0625.03125.0016.000668.07053.05481.09375.0625.02322.0077.02964-.000587.03125 0 .0032.0012.152973.03024.15625.03125.0016.000504-.02319.02347 0 .03125.02319.0078.123338.03083.125.03125.000052.000013.124893.03124.125.03125.000107.000012.05281-.000656.0625 0 .0055.0016.02989-.0072.0625 0 .03669.0081.06239.03123.0625.03125.000212.000031.114567-.00027.125 0 .01043.00027.02683-.000042.03125 0 .0052.0015.02276-.0023.03125 0 .008.0003.01904-.000429.03125 0 .000133.000029.06241.03124.0625.03125.000094.000015.156196 0 .15625 0s.124891.000015.125 0 .05346-.02959.0625-.03125c.02601-.0019.03653.0019.0625 0 13.904238-.991686 21.957574-1.194572 25.75-.5625 1.902251.317042 2.625684.864945 2.71875.96875.184899.206233.3125.432914.3125 1.625a.99688705.99688705 0 0 0 0 .03125c-.000059-.0034.000385.159629 0 .15625-.000385-.0034.03196.190827.03125.1875-.000707-.0033.06352.190744.0625.1875-.001-.0032.06383.159381.0625.15625-.0013-.0031.06412.159239.0625.15625-.0016-.003.09565.15907.09375.15625-.0019-.0028.127163.158875.125.15625-.0022-.0026.127405.127405.125.125-.0024-.0024.127625.127163.125.125-.0026-.0022.15907.126902.15625.125-.0028-.0019.159239.09537.15625.09375-.003-.0016.159381.06383.15625.0625-.0031-.0013.159494.06352.15625.0625-.0032-.001.190827.06321.1875.0625-.0033-.000707.190879.03164.1875.03125-.0034-.000385.159651.000059.15625 0a.99688705.99688705 0 0 0 .03125 0h1.09375v-11.625c-.19743-.215768-.409488-.432657-.625-.65625-2.452445-2.544404-6.410922-5.961916-13.3125-12.71875-6.908942-6.764043-10.585369-10.736313-13.40625-13.25-.700742-.624431-1.386175-1.165777-2.0625-1.625z" fill="url(#j)" opacity=".05"/><path d="m49.28125 5.999996c-.0017.0029-.06097.09079-.0625.09375-.0015.003-.02987.09072-.03125.09375-.0014.003-.06127.09066-.0625.09375-.0012.0031-.03017.05935-.03125.0625-.0011.0031-.03033.09055-.03125.09375-.000921.0032.000763.09051 0 .09375-.000763.0032-.03065.121726-.03125.125-.000603.0033.000441.09045 0 .09375s-.03097.09043-.03125.09375c-.000279.0033.000116.09042 0 .09375-.000116.0033-.000048.09042 0 .09375.000048.0033-.000211.09043 0 .09375.000211.0033-.000374.09044 0 .09375.000374.0033.03072.09047.03125.09375.000535.0033-.000696.0905 0 .09375.000696.0033.03039.09053.03125.09375.000855.0032.03024.09058.03125.09375.001.0032.03008.09063.03125.09375.0012.0031.02993.09069.03125.09375.0013.0031.02978.09076.03125.09375.0015.003.06089.09084.0625.09375.0016.0029.06075.05967.0625.0625.0018.0028.02936.09101.03125.09375.0019.0027.06048.0911.0625.09375.002.0026.06035.05996.0625.0625.0021.0025.06023.06007.0625.0625.0023.0024.06011.09143.0625.09375.0024.0023.09125.0603.09375.0625s.0599.06042.0625.0625c.0026.0021.0598.06056.0625.0625.0027.0019.09096.02944.09375.03125.0028.0018.09087.06083.09375.0625.0029.0017.05954.02972.0625.03125.003.0015.09072.06112.09375.0625.003.0014.09066.03002.09375.03125.0031.0012.0906.03017.09375.03125.0031.0011.09055.03033.09375.03125.0032.000921.09051.03049.09375.03125.0032.000763.09048-.000603.09375 0 .0033.000603.09045.03081.09375.03125.0033.000441.09043-.000279.09375 0 .0033.000279.09042-.000116.09375 0 .0033.000116.09042.000048.09375 0 1.268872-.0068 1.985989.137513 2.3125.34375.364657.230331.807189.712712 1.28125 2.53125.9446 3.62356 1.4375 11.676086 1.4375 27.15625-.000012.0034-.000163.09032 0 .09375.000163.0034-.000338.09034 0 .09375.000338.0034-.000511.12161 0 .125.000511.0034.03057.09039.03125.09375.000684.0034.0304.09043.03125.09375.000854.0033-.001.09048 0 .09375.001.0033.03006.09053.03125.09375.0012.0032.06115.0906.0625.09375.0014.0032.02974.09067.03125.09375.0015.0031.02958.09075.03125.09375.0017.003.06068.09084.0625.09375.0018.0029.06054.05969.0625.0625.002.0028.0604.09104.0625.09375.0021.0027.06026.09115.0625.09375.0022.0026.06013.06002.0625.0625.0024.0025.06001.06014.0625.0625.0025.0024.09114.06027.09375.0625.0026.0022.05978.06041.0625.0625.0027.0021.09093.06055.09375.0625.0028.0019.09083.0607.09375.0625.0029.0018.05949.06085.0625.0625.003.0017.09067.02975.09375.03125.0031.0015.09059.06116.09375.0625.0032.0013.09053.03008.09375.03125.0032.0012.09047.03024.09375.03125.0033.001.09043.03041.09375.03125.0033.000839.121637-.000669.125 0 .0034.000669.09036.03075.09375.03125.0034.000496.09034-.000322.09375 0 .0034.000322.09032-.000148.09375 0 .0034.000148.09032.03128.09375.03125.0034-.000027.121577-.03105.125-.03125 13.969476-.997819 21.988226-1.205088 26.031248-.53125 2.023717.337286 2.950178.877121 3.3125 1.28125.376864.420347.5625.993378.5625 2.28125a.89051413.89051413 0 0 0 .875.875h1.09375v-9.0625c-.390937-.487482-.827388-.99553-1.343748-1.53125-2.388536-2.4781-6.363728-5.915058-13.28125-12.6875-6.921768-6.7766-10.623639-10.767013-13.375-13.21875-1.177219-1.04902-2.247324-1.827564-3.3125-2.375z" fill="url(#j)" opacity=".1"/><path d="m50.53125 5.999996a1.0938616 1.0938616 0 0 0 .46875 2.09375c1.31556-.0071 2.184321.09171 2.78125.46875.596929.377043 1.185031 1.134988 1.6875 3.0625 1.004939 3.855025 1.4375 11.878266 1.4375 27.375a1.0919775 1.0919775 0 0 0 1.15625 1.09375c13.983415-.998815 21.995805-1.240283 26.25-.53125 2.127098.354516 3.242156.926347 3.8125 1.5625s.78125 1.496319.78125 2.875h1.09375v-6.65625c-.481824-.758107-1.125159-1.529855-2-2.4375-2.33291-2.420387-6.319322-5.902177-13.25-12.6875-6.933013-6.787609-10.655547-10.792043-13.34375-13.1875-2.016152-1.796593-3.604563-2.70194-5.34375-3.03125z" fill="url(#k)" opacity=".15"/><path d="m50.999999 6.999996c5.397981-.02908 7 .968952 7 32 28.000001-2 32.000001-1 32.000001 5v-2.625c0-4.362415-2.107067-4.77344-16-18.375s-15.057493-16.127841-19.73048-16.052626z" opacity=".3"/><path d="m50.999999 5.999996c5.397981-.02908 7 .968952 7 32 28.000001-2 32.000001-1 32.000001 5v-2.625c0-4.362415-2.107067-4.77344-16-18.375s-15.057493-16.127841-19.73048-16.052626z" fill="url(#l)"/><path d="m54.28125 5.937496-3.28125.0625c4.723233-.02544 6.525813.73974 6.90625 21.71875-.232162-14.676553-1.113909-19.945903-3.125-21.75-.170423-.0053-.320104-.03415-.5-.03125zm23.5625 30.125c-4.672852-.02197-11.09375.3125-19.84375.9375.000477.368421 0 .622754 0 1 28.000001-2 32-1 32 5v-1c0-4.125-1.875976-5.88916-12.15625-5.9375z" fill="url(#m)" opacity=".2"/><path d="m54.28125 5.937496-3.28125.0625c.349286-.0019.681907-.01458 1 0l2.625-.0625c-.118789-.0018-.220368-.002-.34375 0zm-2.28125.0625c4.597824.210711 6 2.976872 6 32 .372078-.02658.636351-.03699 1-.0625-.0024-30.961882-1.60612-31.966558-7-31.9375z" fill="url(#n)"/></g></g></svg>