<svg height="64" width="64" xmlns="http://www.w3.org/2000/svg" xmlns:xlink="http://www.w3.org/1999/xlink"><linearGradient id="a"><stop offset="0" stop-color="#fff"/><stop offset="1" stop-color="#fff" stop-opacity="0"/></linearGradient><linearGradient id="b" gradientTransform="matrix(1.0058652 0 0 .994169 100 0)" gradientUnits="userSpaceOnUse" x1="45.447727" x2="45.447727" y1="92.539597" y2="7.01654"><stop offset="0"/><stop offset="1" stop-opacity=".588235"/></linearGradient><linearGradient id="c" gradientTransform="matrix(.88095236 0 0 .88095242 102.24686 -91.378936)" gradientUnits="userSpaceOnUse" x1="32.251034" x2="32.251034" xlink:href="#b" y1="6.131708" y2="90.238609"/><linearGradient id="d" gradientTransform="matrix(.85714286 0 0 .85714286 103.38971 -90.236078)" gradientUnits="userSpaceOnUse" x1="32.251034" x2="32.251034" xlink:href="#b" y1="6.131708" y2="90.238609"/><linearGradient id="e" gradientTransform="matrix(0 -1.0119049 .89285716 0 1.14286 64.285716)" gradientUnits="userSpaceOnUse" x1="7.3709" x2="23.76619" y1="51.470146" y2="51.433136"><stop offset="0" stop-color="#676f7d"/><stop offset="1" stop-color="#818791"/></linearGradient><linearGradient id="f" gradientTransform="matrix(.88966473 0 0 -.88897608 101.82866 91.764071)" gradientUnits="userSpaceOnUse" x1="32.251034" x2="32.251034" xlink:href="#b" y1="6.131708" y2="90.238609"/><linearGradient id="g" gradientTransform="matrix(.88668581 0 0 -.88621557 101.97166 91.631566)" gradientUnits="userSpaceOnUse" x1="32.251034" x2="32.251034" xlink:href="#b" y1="6.131708" y2="90.238609"/><linearGradient id="h" gradientTransform="matrix(.88419911 0 0 -.88396282 102.09102 91.52343)" gradientUnits="userSpaceOnUse" x1="32.251034" x2="32.251034" xlink:href="#b" y1="6.131708" y2="90.238609"/><linearGradient id="i" gradientUnits="userSpaceOnUse" x1="78.04289384" x2="78.04289384" y1="-43.8124403" y2="-113.82267585329"><stop offset="0" stop-color="#d0d0d0"/><stop offset="1" stop-color="#e0e0e0"/></linearGradient><radialGradient id="j" cx="48" cy="90.171875" gradientTransform="matrix(1.0333151 0 0 .89285716 -5.599123 -22.296321)" gradientUnits="userSpaceOnUse" r="42" xlink:href="#a"/><linearGradient id="k" gradientTransform="matrix(.83333387 0 0 .83675756 38.042891 -118.83298)" gradientUnits="userSpaceOnUse" x1="36.357143" x2="36.357143" xlink:href="#a" y1="6" y2="63.893143"/><linearGradient id="l" gradientTransform="matrix(2.4467882 0 0 2.4908279 -19.058972 -21.607478)" gradientUnits="userSpaceOnUse" x1="32.891998" x2="36.358002" y1="8.059" y2="5.4565"><stop offset="0" stop-color="#e0e0e0"/><stop offset="1" stop-color="#a0a0a0"/></linearGradient><linearGradient id="m" gradientTransform="scale(.99771653 1.0022887)" gradientUnits="userSpaceOnUse" x1="57.801022" x2="57.801022" y1="69.276306" y2="15.617862"><stop offset="0" stop-color="#323232"/><stop offset="1" stop-color="#464646"/></linearGradient><linearGradient id="n" gradientTransform="scale(.99771653 1.0022887)" gradientUnits="userSpaceOnUse" x1="57.801022" x2="57.801022" y1="69.276306" y2="15.617862"><stop offset="0" stop-color="#030000"/><stop offset="1" stop-color="#2c2c2c"/></linearGradient><g transform="matrix(.7 0 0 .7 1.2 18)"><g transform="matrix(1.0714286 0 0 1.0714286 -110.85633 -31.885595)"><path d="m114.1583 89.09322c-4.78901 0-8.71691-3.971039-8.71691-8.812629v-62.374743c0-4.841588 3.9279-8.812628 8.71691-8.812628h38.74855l30.7169 30.812628v40.374743c0 4.84159-3.9279 8.812629-8.7169 8.812629z" fill="url(#f)" opacity=".08"/><path d="m114.2634 88.09322c-4.30575 0-7.82165-3.55537-7.82165-7.909474v-62.181052c0-4.354104 3.5159-7.909474 7.82165-7.909474h38.36008l30 30v40.090526c0 4.354104-3.51589 7.909474-7.82165 7.909474z" fill="url(#g)" opacity=".1"/><path d="m114.35075 87.09322c-3.80788 0-6.90909-3.13685-6.90909-6.98851v-62.02298c0-3.851661 3.10121-6.98851 6.90909-6.98851h38.27273l29 29v40.01149c0 3.85166-3.1012 6.98851-6.90909 6.98851z" fill="url(#h)" opacity=".2"/><path d="m114.46511-86.093224h60.13512c3.33689 0 6.02326 2.717977 6.02326 6.094118v38.905886l-29.00001 28.999996h-37.15837c-3.33688 0-6.02325-2.717976-6.02325-6.094117v-61.811765c0-3.376141 2.68637-6.094118 6.02325-6.094118z" fill="url(#c)" opacity=".3" transform="scale(1 -1)"/><path d="m114.58491-85.093224h59.89572c2.84914 0 5.07622 2.294494 5.14286 5.142858v38.857146l-28.00001 27.999996h-37.03857c-2.84914 0-5.14285-2.293714-5.14285-5.142857v-61.714285c0-2.849143 2.29371-5.142858 5.14285-5.142858z" fill="url(#d)" opacity=".45" transform="scale(1 -1)"/></g><g transform="matrix(1.0714286 0 0 1.0714286 -39.617384 105.15619)"><path d="m48.042892-113.81244h37.999998l27 27v38.000001c0 2.77-2.23 5-5 5h-59.999998c-2.77 0-5-2.23-5-5v-60.000001c0-2.77 2.23-5 5-5z" fill="url(#i)"/><path d="m48.042897-113.81244c-2.770002 0-5.000003 2.23916-5.000003 5.02055v1.67351 54.899511c3.856259 8.137855.998427 5.789227.833337.836756v-54.899507-1.67352c0-2.32773 1.848461-4.18379 4.166669-4.18379h1.666668 34.666692 1.66667l26.16667 26.18379v1.67352 32.899507c-2.34559 6.154455.83329 6.970762.83329-.836758v-32.899509-1.67352l-27-27.02054z" fill="url(#k)"/></g><path d="m6.5000025 52.142855c0 3.36357 2.3892855 6.071428 5.3571425 6.071428h64.285714c2.967857 0 5.357143-2.707858 5.357143-6.071428v-13.571426h-74.9999995z" fill="url(#e)"/><path d="m11.857145 58.214283c-2.967857 0-5.3571425-2.399103-5.3571425-5.379155v-1.793053c.0365465-10.900962.8928589-11.133427.8928589-.896578v1.793052c0 2.493998 1.9804926 4.48263 4.4642856 4.48263h1.785716 60.714274 1.785718c2.483796 0 4.464289-1.988632 4.464289-4.48263v-1.793053c.08764-12.153031.892875-7.994396.892875.896527v1.793052c-.000021 2.980105-2.389307 5.379208-5.357164 5.379208z" fill="url(#j)" opacity=".2"/><g fill-rule="evenodd"><path d="m43.694065-16.752387c5.137078-.03348 1.879587 31.017222 1.879587 31.017222s35.952525-7.1678051 35.952525 5.078738c0-2.983162-.009-6.343468-.009-6.343468l-29.605364-29.74858z" opacity=".2" stroke-width="1.995053"/><path d="m44.813635-16.709453c5.60792-.03348 2.370157 29.409725 2.370157 29.409725s34.154277-6.6177114 34.154277 5.298795c0-2.902768-.0088-6.172516-.0088-6.172516l-28.577099-28.532198z" opacity=".2" stroke-width="1.941287"/><path d="m46.257197-16.741222c5.654616-.0073 2.261853 27.448842 2.261853 27.448842s32.988522-5.4051998 32.988522 6.06048c0-2.792949-.0085-3.796138-.0085-3.796138l-29.767428-29.732304z" opacity=".2" stroke-width="1.871432"/><path d="m47.578312-16.755847c6.006363 0 2.163461 25.935733 2.163461 25.935733s31.765441-4.6711083 31.765441 6.389377c0-2.694248-.0081-3.586255-.0081-3.586255l-28.791275-28.757298z" fill="url(#l)" stroke-width="1.805296"/></g><path d="m6.5000025 38.571429h74.9999995v1.428571h-74.9999995z" opacity=".3"/><path d="m6.5000025 37.142858h74.9999995v1.428571h-74.9999995z" fill="#fff" opacity=".8"/><g fill="#fff" stroke-width=".991607" transform="matrix(.96428571 0 0 .96428571 56.531567 -14.596103)"><path d="m-22.852477 61.752677q-1.136217 0-1.762427.839251-.626211.839251-.626211 2.362815 0 1.517108.626211 2.356359.62621.839251 1.762427.839251 1.142673 0 1.768884-.839251.62621-.839251.62621-2.356359 0-1.523564-.62621-2.362815-.626211-.839251-1.768884-.839251zm0-1.801162q2.32408 0 3.641059 1.32989 1.316979 1.32989 1.316979 3.673338 0 2.336991-1.316979 3.666882-1.316979 1.32989-3.641059 1.32989-2.317624 0-3.641059-1.32989-1.316978-1.329891-1.316978-3.666882 0-2.343448 1.316978-3.673338 1.323435-1.32989 3.641059-1.32989z"/><path d="m-13.536789 62.004452v5.881214h.890898q1.523563 0 2.32408-.755326.8069721-.755326.8069721-2.194965 0-1.433182-.8005161-2.182053-.800517-.74887-2.330536-.74887zm-2.485474-1.878631h2.621046q2.194964 0 3.266623.316333 1.0781154.309877 1.846353 1.058747.6778567.652034 1.0071014 1.504197.3292447.852162.3292447 1.930277 0 1.091027-.3292447 1.949645-.3292447.852163-1.0071014 1.504197-.7746934.74887-1.859264 1.065203-1.084571.309877-3.253712.309877h-2.621046z"/><path d="m-5.0474393 60.125821h6.7075535v1.878631h-4.2220789v1.794706h3.9703036v1.878632h-3.9703036v4.086507h-2.4854746z"/></g><g transform="matrix(.68976594 0 0 .68976594 -9.402999 -19.607684)"><path d="m36.683536 16.000001h34.308348l1.239714 11.614028h-2.018138c-.845731-2.104589-2.047002-4.064394-3.603819-5.879421-1.556879-1.834265-2.979184-2.886574-4.266921-3.15693-.576637-.115813-1.32623-.193046-2.248782-.231701-.922601-.03858-1.864398-.05789-2.825393-.05792h-12.512457l16.721716 22.040588v.781992l-18.999329 22.793617h22.977944c1.018649-.000006 1.960445-.251017 2.825394-.753029.864883-.482717 1.624087-1.110241 2.277613-1.882574.691897-.810957 1.306949-1.718454 1.845155-2.72249.538132-1.004039.980201-1.930843 1.326205-2.780415l1.931647.608215-3.402005 12.71461h-35.922859v-1.419171l20.066059-24.299675-19.720092-26.066398v-1.30332" fill="url(#m)"/><g><path d="m41.385948 79.933604h-2.410346v-.348055c.159976-.01758.295068-.03515.405279-.05274.11376-.01758.170641-.06329.170645-.137113-.000004-.03164-.01778-.08086-.05333-.14766-.03556-.0668-.0711-.128322-.106653-.184574-.08888-.137113-.21153-.319929-.36795-.548452-.152872-.232035-.341291-.508018-.565259-.82795-.184866.228524-.35551.451772-.511931.669744-.156426.214459-.319959.44298-.490601.685564-.02489.03515-.05155.07911-.07999.131838-.02489.05274-.03733.09493-.03733.126566-.000002.07735.04977.142387.149313.195122.103096.04922.255965.08262.458606.100198v.337508h-1.946407v-.326961c.241745-.07032.435496-.154691.581256-.253132.149312-.101954.286183-.226762.410612-.374423.110205-.140627.263074-.333991.458605-.580092.199082-.246098.455049-.58009.767898-1.001977-.181312-.256644-.403504-.569542-.666578-.938695-.259522-.372662-.474605-.682045-.645247-.928148-.09243-.133592-.199086-.240822-.319958-.321687-.117318-.08437-.284407-.126562-.501266-.126567v-.348054h2.287695v.348054c-.113765.000005-.22575.0071-.335956.02109-.110209.01407-.165313.0457-.165311.09493-.000002.03164.01066.06681.032.105471.02133.03867.04799.08087.07998.126565.07821.119539.199083.304113.362619.553724.167085.249619.346617.513298.538594.791035.124425-.16875.268406-.36563.431943-.590639.167085-.225001.319953-.43946.458605-.643375.01422-.0246.02844-.05449.04266-.08965.01422-.03866.02133-.07558.02133-.110744-.000003-.07383-.06221-.131835-.186641-.174028-.120876-.04569-.236417-.07734-.346621-.09493v-.337507h1.941076v.32696c-.273747.07032-.487052.154696-.639916.253132-.152872.09493-.282633.205673-.389281.332235-.117322.144148-.257747.321691-.421277.53263-.159983.210946-.38573.506265-.677243.885959.323508.450013.586584.819163.789228 1.107449.202636.288289.407053.585367.613252.891233.103092.154691.216855.277741.341288.369149.127977.08789.302177.138871.522596.152934v.348055"/><path d="m50.360752 77.679398h-2.405013v2.378378h-.677243v-2.378378h-2.405013v-.659196h2.405013v-2.378379h.677243v2.378379h2.405013z"/><path d="m53.752299 81.631693c0-.175788.048-.319932.143981-.432433.09954-.108988.222192-.163482.367951-.163481.113761-.000001.211526.02109.293294.06329.08176.04218.154645.09668.218637.163481.05333.05273.110207.124806.170645.216215.06043.09141.108428.166995.14398.226764.177753-.09493.38928-.342784.634582-.743573.248854-.400792.428386-.752362.538596-1.054713-.337736-.833223-.643472-1.578552-.917211-2.235993-.273743-.657435-.559927-1.337723-.858553-2.040869-.06754-.161719-.181309-.286526-.341288-.374423-.159979-.0914-.319957-.149413-.479936-.174029v-.348054h2.39968v.369149c-.106654.0035-.234637.02637-.383949.06856-.149315.03867-.223972.09317-.22397.16348-.000002.000005.0089.02637.02666.0791.02133.05275.03911.103718.05333.152933.135091.34806.341286.850807.618583 1.508241.277294.653925.492376 1.177765.645248 1.571523.159976-.37618.325286-.764665.495934-1.165458.174195-.404304.367947-.880683.581256-1.429137.02488-.0668.06043-.158203.106653-.274225.04621-.11953.06933-.221486.06933-.305868-.000004-.0914-.08177-.17578-.245301-.25313-.159983-.08086-.312851-.130077-.458606-.147661v-.337507h1.951741v.32696c-.106659.01758-.247084.07911-.421278.184576-.174204.101959-.303964.247862-.389281.437706-.423059.970339-.799898 1.854539-1.130517 2.652603-.32707.798067-.575926 1.385191-.746566 1.761371-.223974.492199-.424835.875411-.602587 1.149638-.174201.277739-.344845.495713-.511932.653922-.163535.147657-.312848.246098-.44794.29532-.131539.05273-.268409.0791-.410612.0791-.277297-.000002-.495935-.06505-.655912-.195121-.156425-.130084-.234636-.279502-.234636-.448253"/><path d="m67.990402 76.881892h-5.380616v-.659195h5.380616zm0 1.961767h-5.380616v-.659196h5.380616z"/><path d="m76.000002 79.933604h-4.255433v-.279499l2.975603-4.493078h-.735902c-.309294.000004-.55104.0053-.725237.01582-.1742.01055-.334178.0457-.479936.105472-.09954.03867-.193753.149421-.282628.332234-.08532.182822-.159981.421889-.223971.717205h-.32529v-1.59789h4.020798v.216216l-3.023597 4.556361c.127981.0035.268406.0071.421277.01055h.495934c.142201 0 .289736-.0018.442608-.0053.15642-.0035.355505-.0123.597253-.02636.1422-.0071.248852-.0545.319958-.142387.07465-.08789.131534-.18809.170643-.300593.0391-.101954.08531-.242583.138649-.421885.05688-.1793.106648-.353328.149313-.522084h.319958v1.835202"/></g><path d="m36.6875 16.3125v1l19.3125 25.53125.40625-.46875zm8.0625.96875.75 1h11.78125c.960995.00003 1.889899.02392 2.8125.0625.922552.03865 1.673363.102937 2.25.21875 1.287737.270356 2.724371 1.353235 4.28125 3.1875 1.556817 1.815027 2.748019 3.770411 3.59375 5.875h2l-.09375-1h-1.90625c-.845731-2.104589-2.036933-4.059973-3.59375-5.875-1.556879-1.834265-2.993513-2.917144-4.28125-3.1875-.576637-.115813-1.327448-.180095-2.25-.21875-.922601-.03858-1.851505-.06247-2.8125-.0625zm16.625 22.9375-18.90625 22.6875h.84375l18.15625-21.78125v-.78125zm14.03125 16.09375-3.15625 11.78125h-35.90625v1h35.90625l3.40625-12.71875z" fill="url(#n)" opacity=".8"/></g></g></svg>