<svg height="64" width="64" xmlns="http://www.w3.org/2000/svg" xmlns:xlink="http://www.w3.org/1999/xlink"><linearGradient id="a"><stop offset="0" stop-color="#fff"/><stop offset="1" stop-color="#fff" stop-opacity="0"/></linearGradient><linearGradient id="b" gradientTransform="matrix(1.0058652 0 0 .994169 100 0)" gradientUnits="userSpaceOnUse" x1="45.447727" x2="45.447727" y1="92.539597" y2="7.01654"><stop offset="0"/><stop offset="1" stop-opacity=".588235"/></linearGradient><linearGradient id="c" gradientTransform="matrix(.88095236 0 0 .88095242 102.24686 -91.378936)" gradientUnits="userSpaceOnUse" x1="32.251034" x2="32.251034" xlink:href="#b" y1="6.131708" y2="90.238609"/><linearGradient id="d" gradientTransform="matrix(.85714286 0 0 .85714286 103.38971 -90.236078)" gradientUnits="userSpaceOnUse" x1="32.251034" x2="32.251034" xlink:href="#b" y1="6.131708" y2="90.238609"/><linearGradient id="e" gradientTransform="matrix(0 -.94444451 .83333333 0 4.000004 60.666669)" gradientUnits="userSpaceOnUse" x1="7.3709" x2="23.76619" y1="51.470146" y2="51.433136"><stop offset="0" stop-color="#006f46"/><stop offset="1" stop-color="#178e63"/></linearGradient><linearGradient id="f" gradientTransform="matrix(.88966473 0 0 -.88897608 101.82866 91.764071)" gradientUnits="userSpaceOnUse" x1="32.251034" x2="32.251034" xlink:href="#b" y1="6.131708" y2="90.238609"/><linearGradient id="g" gradientTransform="matrix(.88668581 0 0 -.88621557 101.97166 91.631566)" gradientUnits="userSpaceOnUse" x1="32.251034" x2="32.251034" xlink:href="#b" y1="6.131708" y2="90.238609"/><linearGradient id="h" gradientTransform="matrix(.88419911 0 0 -.88396282 102.09102 91.52343)" gradientUnits="userSpaceOnUse" x1="32.251034" x2="32.251034" xlink:href="#b" y1="6.131708" y2="90.238609"/><linearGradient id="i" gradientUnits="userSpaceOnUse" x1="78.04289384" x2="78.04289384" y1="-43.8124403" y2="-113.82267585329"><stop offset="0" stop-color="#e0e0e0"/><stop offset="1" stop-color="#f0f0f0"/></linearGradient><radialGradient id="j" cx="48" cy="90.171875" gradientTransform="matrix(.96442741 0 0 .83333333 -2.292513 -20.14323)" gradientUnits="userSpaceOnUse" r="42" xlink:href="#a"/><linearGradient id="k" gradientTransform="matrix(.83333387 0 0 .83675756 38.042891 -118.83298)" gradientUnits="userSpaceOnUse" x1="36.357143" x2="36.357143" xlink:href="#a" y1="6" y2="63.893143"/><linearGradient id="l" gradientTransform="matrix(2.2836689 0 0 2.3247726 -14.855038 -19.50031)" gradientUnits="userSpaceOnUse" x1="32.891998" x2="36.358002" y1="8.059" y2="5.4565"><stop offset="0" stop-color="#f0f0f0"/><stop offset="1" stop-color="#b0b0b0"/></linearGradient><g transform="matrix(.75 0 0 .75 -1 17.5)"><g transform="translate(-100.53257 -29.09322)"><path d="m114.1583 89.09322c-4.78901 0-8.71691-3.971039-8.71691-8.812629v-62.374743c0-4.841588 3.9279-8.812628 8.71691-8.812628h38.74855l30.7169 30.812628v40.374743c0 4.84159-3.9279 8.812629-8.7169 8.812629z" fill="url(#f)" opacity=".08"/><path d="m114.2634 88.09322c-4.30575 0-7.82165-3.55537-7.82165-7.909474v-62.181052c0-4.354104 3.5159-7.909474 7.82165-7.909474h38.36008l30 30v40.090526c0 4.354104-3.51589 7.909474-7.82165 7.909474z" fill="url(#g)" opacity=".1"/><path d="m114.35075 87.09322c-3.80788 0-6.90909-3.13685-6.90909-6.98851v-62.02298c0-3.851661 3.10121-6.98851 6.90909-6.98851h38.27273l29 29v40.01149c0 3.85166-3.1012 6.98851-6.90909 6.98851z" fill="url(#h)" opacity=".2"/><path d="m114.46511-86.093224h60.13512c3.33689 0 6.02326 2.717977 6.02326 6.094118v38.905886l-29.00001 28.999996h-37.15837c-3.33688 0-6.02325-2.717976-6.02325-6.094117v-61.811765c0-3.376141 2.68637-6.094118 6.02325-6.094118z" fill="url(#c)" opacity=".3" transform="scale(1 -1)"/><path d="m114.58491-85.093224h59.89572c2.84914 0 5.07622 2.294494 5.14286 5.142858v38.857146l-28.00001 27.999996h-37.03857c-2.84914 0-5.14285-2.293714-5.14285-5.142857v-61.714285c0-2.849143 2.29371-5.142858 5.14285-5.142858z" fill="url(#d)" opacity=".45" transform="scale(1 -1)"/></g><g transform="translate(-34.04289 98.81244)"><path d="m48.042892-113.81244h37.999998l27 27v38.000001c0 2.77-2.23 5-5 5h-59.999998c-2.77 0-5-2.23-5-5v-60.000001c0-2.77 2.23-5 5-5z" fill="url(#i)"/><path d="m48.042897-113.81244c-2.770002 0-5.000003 2.23916-5.000003 5.02055v1.67351 54.899511c3.856259 8.137855.998427 5.789227.833337.836756v-54.899507-1.67352c0-2.32773 1.848461-4.18379 4.166669-4.18379h1.666668 34.666692 1.66667l26.16667 26.18379v1.67352 32.899507c-2.34559 6.154455.83329 6.970762.83329-.836758v-32.899509-1.67352l-27-27.02054z" fill="url(#k)"/></g><path d="m9.000004 49.333334c0 3.139332 2.23 5.666666 5 5.666666h60c2.77 0 5-2.527334 5-5.666666v-12.666667h-70z" fill="url(#e)"/><path d="m14.000004 55c-2.77 0-5-2.239163-5-5.020545v-1.673516c.03411-10.174231.833335-10.391198.833335-.836806v1.673515c0 2.327732 1.84846 4.183788 4.166667 4.183788h1.666668 56.666656 1.66667c2.31821 0 4.16667-1.856056 4.16667-4.183788v-1.673516c.0818-11.342829.83335-7.461436.83335.836759v1.673515c-.00002 2.781431-2.23002 5.020594-5.00002 5.020594z" fill="url(#j)" opacity=".2"/><g fill-rule="evenodd"><path d="m43.714463-14.968892c4.794606-.03125 1.754281 28.949407 1.754281 28.949407s33.55569-6.689951 33.55569 4.740156c0-2.784285-.0084-5.92057-.0084-5.92057l-27.631673-27.765342z" opacity=".2" stroke-width="1.862049"/><path d="m44.759395-14.92882c5.234058-.03125 2.212146 27.449077 2.212146 27.449077s31.877325-6.176531 31.877325 4.945541c0-2.70925-.0082-5.761014-.0082-5.761014l-26.671972-26.630052z" opacity=".2" stroke-width="1.811868"/><path d="m46.106719-14.958471c5.277642-.0068 2.111063 25.618919 2.111063 25.618919s30.789287-5.044853 30.789287 5.656448c0-2.606753-.0079-3.543062-.0079-3.543062l-27.782966-27.750151z" opacity=".2" stroke-width="1.74667"/><path d="m47.33976-14.972121c5.605939 0 2.01923 24.206684 2.01923 24.206684s29.647745-4.359701 29.647745 5.963418c0-2.514631-.0076-3.347171-.0076-3.347171l-26.871817-26.840145z" fill="url(#l)" stroke-width="1.684943"/></g><path d="m9.000004 36.666667h70v1.333333h-70z" opacity=".3"/><path d="m9.000004 35.333334h70v1.333333h-70z" fill="#fff" opacity=".8"/><g transform="matrix(.61108403 0 0 .61108403 7.45382 -16.778152)"><g fill="#409c59"><path d="m46.571852 15.913289c-17.673112 0-32 14.326888-32 32s14.326888 32 32 32h70.548888v-6h-70.548888c-14.359403 0-26-11.640597-26-26s11.640597-26 26-26z" opacity=".5"/><path d="m46.571852 23.913289c-13.254834 0-24 10.745166-24 24s10.745166 24 24 24h70.548888v-6h-70.548888c-9.941125 0-18-8.058875-18-18s8.058875-18 18-18c2.415505 0 4.707857.480768 6.8125 1.34375l2.28125-5.5625c-2.887691-1.183132-5.973083-1.78125-9.09375-1.78125z" opacity=".75"/><path d="m46.571852 31.913289c-8.836556 0-16 7.163444-16 16s7.163444 16 16 16h70.548888v-6h-70.548888c-5.522847 0-10-4.477153-10-10s4.477153-10 10-10c2.761424 0 5.252856 1.127856 7.0625 2.9375l4.25-4.25c-3.000582-3.000582-7.069036-4.6875-11.3125-4.6875z"/></g><path d="m46.571852 15.913289c-17.673112 0-32 14.326888-32 32s14.326888 32 32 32h70.548888v-1h-.96875v.03125h-69.580138c-17.154178 0-31.03125-13.877072-31.03125-31.03125 0-16.821921 13.368648-30.413929 30.0625-30.9375v4.0625c-14.421025.521297-26 12.327778-26 26.875 0 14.878338 12.090412 26.96875 26.96875 26.96875h69.580138v.03125h.96875v-1h-70.548888c-14.359403 0-26-11.640597-26-26s11.640597-26 26-26zm0 8c-13.254834 0-24 10.745166-24 24s10.745166 24 24 24h70.548888v-1h-.96875v.03125h-69.580138c-12.7359 0-23.03125-10.29535-23.03125-23.03125s10.29535-23.03125 23.03125-23.03125c2.679707 0 5.30136.498136 7.8125 1.40625l-1.5625 3.8125c-1.962649-.690512-4.050116-1.15625-6.25-1.15625-10.46006 0-18.96875 8.50869-18.96875 18.96875s8.50869 18.96875 18.96875 18.96875h69.580138v.03125h.96875v-1h-70.548888c-9.941125 0-18-8.058875-18-18s8.058875-18 18-18c2.415505 0 4.707857.480768 6.8125 1.34375l2.28125-5.5625c-2.887691-1.183132-5.973083-1.78125-9.09375-1.78125zm0 8c-8.836556 0-16 7.163444-16 16s7.163444 16 16 16h70.548888v-1h-.96875v.03125h-69.580138c-8.317622 0-15.03125-6.713628-15.03125-15.03125s6.713628-15.03125 15.03125-15.03125c3.65929 0 7.140411 1.383022 9.875 3.78125l-2.9375 2.9375c-1.899178-1.588333-4.269169-2.65625-6.9375-2.65625-6.041782 0-10.96875 4.926968-10.96875 10.96875s4.926968 10.96875 10.96875 10.96875h69.580138v.03125h.96875v-1h-70.548888c-5.522847 0-10-4.477153-10-10s4.477153-10 10-10c2.761424 0 5.252856 1.127856 7.0625 2.9375l4.25-4.25c-3.000582-3.000582-7.069036-4.6875-11.3125-4.6875z" fill="#2c5e10" opacity=".15"/><path d="m46.571852 15.913289c-17.673112 0-32 14.326888-32 32 0 .166668-.0025.333936 0 .5.266707-17.442958 14.493556-31.5 32-31.5zm0 8c-13.254834 0-24 10.745166-24 24 0 .165582-.0033.335217 0 .5.263839-13.026064 10.910748-23.5 24-23.5 2.998381 0 5.960818.563551 8.75 1.65625l.34375-.875c-2.887691-1.183132-5.973083-1.78125-9.09375-1.78125zm0 8c-8.836556 0-16 7.163444-16 16 0 .169981.02599.331297.03125.5.268299-8.601453 7.302175-15.5 15.96875-15.5 4.007625 0 7.837935 1.523923 10.78125 4.21875l.53125-.53125c-3.000582-3.000582-7.069036-4.6875-11.3125-4.6875zm-26 16.5c-.0031.166131 0 .33312 0 .5 0 14.359403 11.640597 26 26 26h70.548888v-1h-70.548888c-14.192523 0-25.73377-11.371127-26-25.5zm8.03125 0c-.0046.16748-.03125.331407-.03125.5 0 9.941125 8.058875 18 18 18h70.548888v-1h-70.548888c-9.772532 0-17.701788-7.791975-17.96875-17.5zm8 0c-.0081.165362-.03125.332622-.03125.5 0 5.522847 4.477153 10 10 10h70.548888v-1h-70.548888c-5.355469 0-9.708657-4.209049-9.96875-9.5z" fill="#2b5c10" opacity=".2"/><path d="m46.571852 21.913289c-14.359403 0-26 11.640597-26 26 0 .16688-.0031.333869 0 .5.26623-14.128873 11.807477-25.5 26-25.5zm8.75 4.65625-1.9375 4.6875c-2.104643-.862982-4.396995-1.34375-6.8125-1.34375-9.941125 0-18 8.058875-18 18 0 .168593.02664.33252.03125.5.266962-9.708025 8.196218-17.5 17.96875-17.5 2.415505 0 4.707857.480768 6.8125 1.34375l2.28125-5.5625c-.113156-.04636-.229996-.08044-.34375-.125zm2.03125 10.5625-3.71875 3.71875c-1.809644-1.809644-4.301076-2.9375-7.0625-2.9375-5.522847 0-10 4.477153-10 10 0 .167378.02312.334638.03125.5.260093-5.290951 4.613281-9.5 9.96875-9.5 2.761424 0 5.252856 1.127856 7.0625 2.9375l4.25-4.25c-.166763-.166763-.358043-.310166-.53125-.46875zm-42.78125 11.28125c-.0025.166064 0 .333332 0 .5 0 17.673112 14.326888 32 32 32h70.548888v-1h-70.548888c-17.506444 0-31.733293-14.057042-32-31.5zm8 0c-.0033.164783 0 .334418 0 .5 0 13.254834 10.745166 24 24 24h70.548888v-1h-70.548888c-13.089252 0-23.736161-10.473936-24-23.5zm8.03125 0c-.0053.168703-.03125.330019-.03125.5 0 8.836556 7.163444 16 16 16h70.548888v-1h-70.548888c-8.666575 0-15.700451-6.898547-15.96875-15.5z" fill="#3eb66a" opacity=".6"/></g><g fill="#fff" transform="matrix(.79328598 0 0 .79328598 7.319174 -21.503729)"><path d="m26.069824 78.98867h10.078125v2.131348h-3.625488v8.803711h-2.819824v-8.803711h-3.632813z"/><path d="m42.593262 80.834373q-1.289063 0-1.999512.952149-.710449.952148-.710449 2.680664 0 1.721191.710449 2.67334.710449.952148 1.999512.952148 1.296386 0 2.006836-.952148.710449-.952149.710449-2.67334 0-1.728516-.710449-2.680664-.71045-.952149-2.006836-.952149zm0-2.043457q2.636718 0 4.130859 1.50879 1.494141 1.508789 1.494141 4.16748 0 2.651367-1.494141 4.160156-1.494141 1.508789-4.130859 1.508789-2.629395 0-4.13086-1.508789-1.49414-1.508789-1.49414-4.160156 0-2.658691 1.49414-4.16748 1.501465-1.50879 4.13086-1.50879z"/><path d="m54.348633 83.837303q.88623 0 1.26709-.32959.388183-.32959.388183-1.083984 0-.74707-.388183-1.069336-.38086-.322266-1.26709-.322266h-1.186524v2.805176zm-1.186524 1.948242v4.138184h-2.819824v-10.935059h4.306641q2.160644 0 3.164062.725098 1.010742.725098 1.010742 2.29248 0 1.083985-.527343 1.779786-.52002.6958-1.574707 1.02539.578613.131836 1.032715.600586.461425.461426.930175 1.40625l1.530762 3.105469h-3.00293l-1.333007-2.717285q-.402833-.820313-.820313-1.120606-.410156-.300293-1.098633-.300293z"/><path d="m65.891602 83.837303q.88623 0 1.267089-.32959.388184-.32959.388184-1.083984 0-.74707-.388184-1.069336-.380859-.322266-1.267089-.322266h-1.186524v2.805176zm-1.186524 1.948242v4.138184h-2.819824v-10.935059h4.306641q2.160644 0 3.164062.725098 1.010742.725098 1.010742 2.29248 0 1.083985-.527344 1.779786-.520019.6958-1.574707 1.02539.578614.131836 1.032715.600586.461426.461426.930176 1.40625l1.530762 3.105469h-3.00293l-1.333008-2.717285q-.402832-.820313-.820312-1.120606-.410156-.300293-1.098633-.300293z"/></g></g></svg>