<svg height="64" width="64" xmlns="http://www.w3.org/2000/svg" xmlns:xlink="http://www.w3.org/1999/xlink"><linearGradient id="a"><stop offset="0" stop-color="#824b00"/><stop offset=".2" stop-color="#aa630a"/><stop offset="1" stop-color="#a0620c" stop-opacity="0"/></linearGradient><linearGradient id="b" gradientUnits="userSpaceOnUse" x1="6" x2="24" xlink:href="#a" y1="73" y2="73"/><linearGradient id="c" gradientTransform="matrix(-1 0 0 1 96 0)" gradientUnits="userSpaceOnUse" x1="6" x2="24" xlink:href="#a" y1="73" y2="73"/><linearGradient id="d" gradientUnits="userSpaceOnUse" x1="38.748035" x2="38.748035" y1="72.409348" y2="5.833157"><stop offset="0" stop-color="#cd9450"/><stop offset="1" stop-color="#eaaa69"/></linearGradient><radialGradient id="e" cx="90" cy="90" gradientTransform="matrix(0 -1.085034 2 0 -90 187.65306)" gradientUnits="userSpaceOnUse" r="42"><stop offset="0" stop-color="#eaaa69"/><stop offset="1" stop-color="#bb8044"/></radialGradient><linearGradient id="f" gradientTransform="matrix(1.0058652 0 0 .994169 100 0)" gradientUnits="userSpaceOnUse" x1="45.447727" x2="45.447727" y1="92.539597" y2="7.01654"><stop offset="0"/><stop offset="1" stop-opacity=".588235"/></linearGradient><linearGradient id="g" gradientTransform="matrix(1.0238095 0 0 1.0119048 -1.142857 -98.071429)" gradientUnits="userSpaceOnUse" x1="32.251034" x2="32.251034" xlink:href="#f" y1="6.131708" y2="90.238609"/><linearGradient id="h" gradientTransform="translate(0 -97)" gradientUnits="userSpaceOnUse" x1="32.251034" x2="32.251034" xlink:href="#f" y1="6.131708" y2="90.238609"/><linearGradient id="i" gradientUnits="userSpaceOnUse" x1="36.457062" x2="36.288559" y1="71.486015" y2="7.279237"><stop offset="0" stop-color="#fff"/><stop offset="1" stop-color="#fff" stop-opacity="0"/></linearGradient><linearGradient id="j" gradientTransform="matrix(.62750606 0 0 .61878426 2.119563 -.261877)" gradientUnits="userSpaceOnUse" x1="49.632534" x2="49.696461" y1="57.329472" y2="8.431242"><stop offset="0" stop-color="#d3904f"/><stop offset="1" stop-color="#e7af6d"/></linearGradient><g transform="matrix(.65888813 0 0 .65888813 .671564 .416288)"><g><g fill="url(#g)"><path d="m12-95.03125c-5.5110903 0-10.03125 4.52016-10.03125 10.03125v71c0 5.5110902 4.5201598 10.03125 10.03125 10.03125h72c5.51109 0 10.03125-4.5201597 10.03125-10.03125v-71c0-5.51109-4.52016-10.03125-10.03125-10.03125z" opacity=".08" transform="scale(1 -1)"/><path d="m12-94.03125c-4.971633 0-9.03125 4.059617-9.03125 9.03125v71c0 4.9716329 4.0596171 9.03125 9.03125 9.03125h72c4.971633 0 9.03125-4.059617 9.03125-9.03125v-71c0-4.971633-4.059617-9.03125-9.03125-9.03125z" opacity=".1" transform="scale(1 -1)"/><path d="m12-93c-4.4091333 0-8 3.590867-8 8v71c0 4.4091333 3.5908667 8 8 8h72c4.409133 0 8-3.5908667 8-8v-71c0-4.409133-3.590867-8-8-8z" opacity=".2" transform="scale(1 -1)"/><rect height="85" opacity=".3" rx="7" transform="scale(1 -1)" width="86" x="5" y="-92"/></g><rect fill="url(#h)" height="84" opacity=".45" rx="6" transform="scale(1 -1)" width="84" x="6" y="-91"/></g><g><path d="m12 6c-3.324 0-6 2.676-6 6v72c0 3.324 2.676 6 6 6h72c3.324 0 6-2.676 6-6v-72c0-3.324-2.676-6-6-6h-9v3h-6v-3z" fill="url(#e)"/><path d="m6 56v28c0 3.324 2.676 6 6 6h12v-34z" fill="url(#b)"/><path d="m90 56v28c0 3.324-2.676 6-6 6h-12v-34z" fill="url(#c)"/><path d="m5.9999997 81.999998v2c0 3.323997 2.6760006 6.000004 6.0000003 6.000004h72c3.324 0 6-2.676007 6-6.000004v-2c0 3.323997-2.676 6.000004-6 6.000004h-72c-3.3239997 0-6.0000003-2.676007-6.0000003-6.000004z" fill="#502d16" opacity=".3"/><path d="m5.9999997 78.000004v1.999997c0 3.323997 2.6760006 5.999994 6.0000003 5.999994h72c3.324 0 6-2.675997 6-5.999994v-1.999997c0 3.323997-2.676 5.999994-6 5.999994h-72c-3.3239997 0-6.0000003-2.675997-6.0000003-5.999994z" fill="#fff" opacity=".3"/><path d="m5.9999997 76.000004v2c0 3.323997 2.6760006 5.999994 6.0000003 5.999994h72c3.324 0 6-2.675997 6-5.999994v-2c0 3.323997-2.676 5.999994-6 5.999994h-72c-3.3239997 0-6.0000003-2.675997-6.0000003-5.999994z" fill="#502d16" opacity=".3"/><path d="m5.9999997 72v1.999997c0 3.324007 2.6760006 6.000004 6.0000003 6.000004h72c3.324 0 6-2.675997 6-6.000004v-1.999997c0 3.323997-2.676 6.000004-6 6.000004h-72c-3.3239997 0-6.0000003-2.676007-6.0000003-6.000004z" fill="#fff" opacity=".3"/><path d="m5.9999997 70v2c0 3.323997 2.6760006 6.000004 6.0000003 6.000004h72c3.324 0 6-2.676007 6-6.000004v-2c0 3.323997-2.676 6.000004-6 6.000004h-72c-3.3239997 0-6.0000003-2.676007-6.0000003-6.000004z" fill="#502d16" opacity=".3"/><path d="m12 6c-3.3239996 0-6.0000002 2.676-6.0000002 6v56c0 3.324 2.6760006 6 6.0000002 6h71.999998c3.323997 0 6.000004-2.676 6.000004-6v-56c0-3.324-2.676007-6-6.000004-6 0 0-42.98407 0-71.999998 0z" fill="url(#d)"/><path d="m12 6c-3.324 0-6 2.676-6 6v56c0 3.324 2.676 6 6 6h72c3.324 0 6-2.676 6-6v-56c0-3.324-2.676-6-6-6h-9v2h9c2.245802 0 4 1.7541975 4 4v56c0 2.245802-1.754198 4-4 4h-72c-2.2458025 0-4-1.754198-4-4v-56c0-2.2458025 1.7541975-4 4-4h57v-2z" fill="url(#i)" opacity=".3"/><g fill-rule="evenodd" transform="matrix(.95246024 0 0 .93922184 2.149991 -5.681916)"><path d="m47.918547 36.122469 42.061453 36.644449v3.142183l-83.8845718.01002v-3.152203z" fill="#ebae7b" transform="translate(.002481 -.002868)"/><path d="m47.918547 36.122469 42.040861 36.885785c-.0076 3.581155-.18444 7.72354-5.139568 7.714708-14.698005 0-58.678794.01879-73.376799.01879-4.3500028-.097414-5.5595713-2.581992-5.516011-7.77228z" fill="#dc9e5e" transform="translate(.169285 1.97284)"/></g><g transform="matrix(1.51770833176 0 0 1.51770837233 -1.0192382113 -.63180281678)"><path d="m9.6230469 6.5136718c-2.7667575 0-4.9765625 2.2209175-4.9765625 4.9492192v.476562l27.5683596 25.369141 27.566406-25.369141v-.476562c0-2.7283017-2.209805-4.9492192-4.976562-4.9492192z" fill="#b67a40"/><path d="m9.5859375 4.5683594c-2.7667575 0-4.9394531 2.2209168-4.9394531 4.9492187v1.2382809l27.6054686 25.369141 27.529297-25.369141v-1.2382809c0-2.7283019-2.172696-4.9492187-4.939453-4.9492187-15.085287 0-30.170573 0-45.2558595 0z" fill="url(#j)"/></g><g stroke-width="1.517708" transform="translate(120.41442 1.030498)"><g fill="none" opacity=".5" stroke="#fff"><path d="m-103.22116 59.129032h2.90498l2.01571 4.73691 2.027564-4.73691h2.89906v8.851322h-2.157992v-6.473974l-2.03942 4.772481h-1.446566l-2.039416-4.772481v6.473974h-2.16392z"/><path d="m-87.581654 62.555733q.539497 0 .818139-.237142.278642-.237142.278642-.699569 0-.456498-.278642-.69364-.278642-.24307-.818139-.24307h-1.262781v1.873421zm.07707 3.871342q.687711 0 1.031567-.290499.349784-.290499.349784-.877425 0-.575069-.343855-.85964-.343856-.290499-1.037496-.290499h-1.339852v2.318063zm2.12242-3.183631q.73514.213428 1.138281.788497.403141.575069.403141 1.410995 0 1.280566-.865568 1.908992-.865568.628426-2.632275.628426h-3.788342v-8.851322h3.426701q1.843778 0 2.667846.557284.829997.557283.829997 1.784493 0 .646211-.302356 1.102709-.302356.45057-.877425.669926z"/><path d="m-77.835121 60.623026q-1.043425 0-1.618494.770711-.575069.770712-.575069 2.169849 0 1.393209.575069 2.16392.575069.770711 1.618494.770711 1.049353 0 1.624422-.770711.575069-.770711.575069-2.16392 0-1.399137-.575069-2.169849-.575069-.770711-1.624422-.770711zm0-1.654065q2.134277 0 3.343701 1.221281 1.209424 1.221281 1.209424 3.373344 0 2.146134-1.209424 3.367415-1.209424 1.221281-3.343701 1.221281-2.128349 0-3.343701-1.221281-1.209424-1.221281-1.209424-3.367415 0-2.152063 1.209424-3.373344 1.215352-1.221281 3.343701-1.221281z"/><path d="m-67.057022 63.462801 3.070988 4.517553h-2.377348l-2.069063-3.023559-2.051278 3.023559h-2.389205l3.070988-4.517553-2.952417-4.333769h2.383276l1.938636 2.851632 1.932706-2.851632h2.395134z"/></g><g fill="#653a00"><path d="m-103.22116 59.129032h2.90498l2.01571 4.73691 2.027564-4.73691h2.89906v8.851322h-2.157992v-6.473974l-2.03942 4.772481h-1.446566l-2.039416-4.772481v6.473974h-2.16392z"/><path d="m-87.581654 62.555733q.539497 0 .818139-.237142.278642-.237142.278642-.699569 0-.456498-.278642-.69364-.278642-.24307-.818139-.24307h-1.262781v1.873421zm.07707 3.871342q.687711 0 1.031567-.290499.349784-.290499.349784-.877425 0-.575069-.343855-.85964-.343856-.290499-1.037496-.290499h-1.339852v2.318063zm2.12242-3.183631q.73514.213428 1.138281.788497.403141.575069.403141 1.410995 0 1.280566-.865568 1.908992-.865568.628426-2.632275.628426h-3.788342v-8.851322h3.426701q1.843778 0 2.667846.557284.829997.557283.829997 1.784493 0 .646211-.302356 1.102709-.302356.45057-.877425.669926z"/><path d="m-77.835121 60.623026q-1.043425 0-1.618494.770711-.575069.770712-.575069 2.169849 0 1.393209.575069 2.16392.575069.770711 1.618494.770711 1.049353 0 1.624422-.770711.575069-.770711.575069-2.16392 0-1.399137-.575069-2.169849-.575069-.770711-1.624422-.770711zm0-1.654065q2.134277 0 3.343701 1.221281 1.209424 1.221281 1.209424 3.373344 0 2.146134-1.209424 3.367415-1.209424 1.221281-3.343701 1.221281-2.128349 0-3.343701-1.221281-1.209424-1.221281-1.209424-3.367415 0-2.152063 1.209424-3.373344 1.215352-1.221281 3.343701-1.221281z"/><path d="m-67.057022 63.462801 3.070988 4.517553h-2.377348l-2.069063-3.023559-2.051278 3.023559h-2.389205l3.070988-4.517553-2.952417-4.333769h2.383276l1.938636 2.851632 1.932706-2.851632h2.395134z"/></g></g></g></g></svg>