<svg height="64" width="64" xmlns="http://www.w3.org/2000/svg" xmlns:xlink="http://www.w3.org/1999/xlink"><linearGradient id="a"><stop offset="0" stop-color="#ededed"/><stop offset="1" stop-color="#b0b0b0"/></linearGradient><linearGradient id="b"><stop offset="0" stop-color="#b4b4b4"/><stop offset=".20467032" stop-color="#646464"/><stop offset=".49567693" stop-color="#fff"/><stop offset="1" stop-color="#3c3c3c"/></linearGradient><linearGradient id="c"><stop offset="0" stop-color="#818181"/><stop offset=".2" stop-color="#f9f9f9"/><stop offset="1" stop-color="#dcdcdc" stop-opacity="0"/></linearGradient><linearGradient id="d" gradientUnits="userSpaceOnUse" x1="19.035713" x2="87.5" y1="74" y2="27.428572"><stop offset="0" stop-color="#fff"/><stop offset="1" stop-color="#fff" stop-opacity="0"/></linearGradient><linearGradient id="e" gradientUnits="userSpaceOnUse" x1="6" x2="24" xlink:href="#c" y1="73" y2="73"/><linearGradient id="f" gradientTransform="matrix(-1 0 0 1 96 0)" gradientUnits="userSpaceOnUse" x1="6" x2="24" xlink:href="#c" y1="73" y2="73"/><linearGradient id="g" gradientUnits="userSpaceOnUse" x1="38.748035" x2="38.748035" y1="65.59034" y2="5.833157"><stop offset="0" stop-color="#dcdcdc"/><stop offset="1" stop-color="#fafafa"/></linearGradient><radialGradient id="h" cx="90" cy="90" gradientTransform="matrix(0 -1.085034 2 0 -90 187.65306)" gradientUnits="userSpaceOnUse" r="42"><stop offset="0" stop-color="#b4b4b4"/><stop offset="1" stop-color="#dcdcdc"/></radialGradient><clipPath id="i"><path d="m66 6v55c0 1.662 1.338 3 3 3h6c1.662 0 3-1.338 3-3v-55h-4v2h-4v-2z"/></clipPath><filter id="j" color-interpolation-filters="sRGB" height="1.07322" width="1.332308" x="-.166154" y="-.03661"><feGaussianBlur stdDeviation=".9"/></filter><linearGradient id="k" gradientUnits="userSpaceOnUse" x1="68.75" x2="75.25" xlink:href="#b" y1="58" y2="58"/><linearGradient id="l" gradientUnits="userSpaceOnUse" x1="63.484772" x2="79" y1="64.163078" y2="65"><stop offset="0" stop-color="#a2a2a2"/><stop offset="1" stop-color="#fff"/></linearGradient><filter id="m" color-interpolation-filters="sRGB" height="1.190707" width="1.323657" x="-.161828" y="-.095354"><feGaussianBlur stdDeviation=".53551312"/></filter><linearGradient id="n" gradientTransform="matrix(-1 0 0 1 144.03125 -2)" gradientUnits="userSpaceOnUse" x1="68.96875" x2="75.0625" xlink:href="#a" y1="17.5" y2="17.5"/><linearGradient id="o" gradientUnits="userSpaceOnUse" x1="68.02903" x2="75.97097" xlink:href="#a" y1="15.763245" y2="15.763245"/><linearGradient id="p" gradientTransform="matrix(1.1262691 0 0 1 -7.401969 -49.5)" gradientUnits="userSpaceOnUse" x1="68.75" x2="72.250572" xlink:href="#b" y1="59" y2="59"/><linearGradient id="q" gradientTransform="matrix(1.0058652 0 0 .994169 100 0)" gradientUnits="userSpaceOnUse" x1="45.447727" x2="45.447727" y1="92.539597" y2="7.01654"><stop offset="0"/><stop offset="1" stop-opacity=".588235"/></linearGradient><linearGradient id="r" gradientTransform="matrix(1.0238095 0 0 1.0119048 -1.142857 -98.071429)" gradientUnits="userSpaceOnUse" x1="32.251034" x2="32.251034" xlink:href="#q" y1="6.131708" y2="90.238609"/><linearGradient id="s" gradientTransform="translate(0 -97)" gradientUnits="userSpaceOnUse" x1="32.251034" x2="32.251034" xlink:href="#q" y1="6.131708" y2="90.238609"/><linearGradient id="t" gradientUnits="userSpaceOnUse" x1="69" x2="73" y1="53" y2="53"><stop offset="0" stop-color="#fff"/><stop offset=".48973215" stop-color="#8c8c8c"/><stop offset=".50044644" stop-color="#cfcfcf"/><stop offset=".62276787" stop-color="#fff"/><stop offset=".81696427" stop-color="#c8c8c8"/><stop offset="1" stop-color="#505050"/></linearGradient><linearGradient id="u" gradientTransform="matrix(-1 0 0 1 144 -4)" gradientUnits="userSpaceOnUse" x1="69" x2="73" y1="54" y2="54"><stop offset="0" stop-color="#2f2f2f"/><stop offset=".43731192" stop-color="#fff"/><stop offset=".62138397" stop-color="#979797"/><stop offset=".7723214" stop-color="#505050"/><stop offset="1" stop-color="#e6e6e6"/></linearGradient><g transform="matrix(.65888813 0 0 .65888813 .671564 .416288)"><g><g fill="url(#r)"><path d="m12-95.03125c-5.5110903 0-10.03125 4.52016-10.03125 10.03125v71c0 5.5110902 4.5201598 10.03125 10.03125 10.03125h72c5.51109 0 10.03125-4.5201597 10.03125-10.03125v-71c0-5.51109-4.52016-10.03125-10.03125-10.03125z" opacity=".08" transform="scale(1 -1)"/><path d="m12-94.03125c-4.971633 0-9.03125 4.059617-9.03125 9.03125v71c0 4.9716329 4.0596171 9.03125 9.03125 9.03125h72c4.971633 0 9.03125-4.059617 9.03125-9.03125v-71c0-4.971633-4.059617-9.03125-9.03125-9.03125z" opacity=".1" transform="scale(1 -1)"/><path d="m12-93c-4.4091333 0-8 3.590867-8 8v71c0 4.4091333 3.5908667 8 8 8h72c4.409133 0 8-3.5908667 8-8v-71c0-4.409133-3.590867-8-8-8z" opacity=".2" transform="scale(1 -1)"/><rect height="85" opacity=".3" rx="7" transform="scale(1 -1)" width="86" x="5" y="-92"/></g><rect fill="url(#s)" height="84" opacity=".45" rx="6" transform="scale(1 -1)" width="84" x="6" y="-91"/></g><g><path d="m12 6c-3.324 0-6 2.676-6 6v72c0 3.324 2.676 6 6 6h72c3.324 0 6-2.676 6-6v-72c0-3.324-2.676-6-6-6h-9v3h-6v-3z" fill="url(#h)"/><path d="m6 56v28c0 3.324 2.676 6 6 6h12v-34z" fill="url(#e)"/><path d="m90 56v28c0 3.324-2.676 6-6 6h-12v-34z" fill="url(#f)"/><path d="m6 82v2c0 3.324 2.676 6 6 6h72c3.324 0 6-2.676 6-6v-2c0 3.324-2.676 6-6 6h-72c-3.324 0-6-2.676-6-6z" opacity=".15"/><path d="m6 78v2c0 3.324 2.676 6 6 6h72c3.324 0 6-2.676 6-6v-2c0 3.324-2.676 6-6 6h-72c-3.324 0-6-2.676-6-6z" fill="#fff" opacity=".8"/><path d="m6 76v2c0 3.324 2.676 6 6 6h72c3.324 0 6-2.676 6-6v-2c0 3.324-2.676 6-6 6h-72c-3.324 0-6-2.676-6-6z" opacity=".15"/><path d="m6 72v2c0 3.324 2.676 6 6 6h72c3.324 0 6-2.676 6-6v-2c0 3.324-2.676 6-6 6h-72c-3.324 0-6-2.676-6-6z" fill="#fff" opacity=".8"/><path d="m6 70v2c0 3.324 2.676 6 6 6h72c3.324 0 6-2.676 6-6v-2c0 3.324-2.676 6-6 6h-72c-3.324 0-6-2.676-6-6z" opacity=".15"/><path d="m12 6c-3.324 0-6 2.676-6 6v56c0 3.324 2.676 6 6 6h72c3.324 0 6-2.676 6-6v-56c0-3.324-2.676-6-6-6h-9v3h-6v-3z" fill="url(#g)"/><path d="m12 6c-3.324 0-6 2.676-6 6v56c0 3.324 2.676 6 6 6h72c3.324 0 6-2.676 6-6v-56c0-3.324-2.676-6-6-6h-9v2h9c2.245802 0 4 1.7541975 4 4v56c0 2.245802-1.754198 4-4 4h-72c-2.2458025 0-4-1.754198-4-4v-56c0-2.2458025 1.7541975-4 4-4h57v-2z" fill="url(#d)"/></g><g><path d="m66 6v55c0 1.662 1.338 3 3 3h6c1.662 0 3-1.338 3-3v-55h-4v2h-4v-2z" fill="#252525"/><path d="m70 8h4v49h-4z" fill="#4d4d4d"/><rect fill="url(#k)" height="4" rx="1" stroke="#000" stroke-linecap="square" stroke-opacity=".563636" stroke-width=".5" width="6" x="69" y="56"/><path d="m66 6v55c0 1.662 1.338 3 3 3h6c1.662 0 3-1.338 3-3v-55h-4v2h-4v-2z" style="fill:none;stroke:#000;stroke-width:2;stroke-linecap:square;clip-path:url(#i);filter:url(#j)"/><path id="v" d="m69.5 51c-.269774 0-.5.217964-.5.5v3c0 .282036.230229.5.5.5h1c.269774 0 .5-.217964.5-.5v-.5h1.5c.277 0 .5-.223.5-.5v-1c0-.277-.223-.5-.5-.5h-1.5v-.5c0-.282036-.230229-.5-.5-.5z" fill="url(#t)" stroke="#000" stroke-linecap="square" stroke-opacity=".563636" stroke-width=".5"/><use id="w" height="96" transform="translate(0 -6)" width="96" xlink:href="#v"/><use id="x" height="96" transform="translate(0 -6)" width="96" xlink:href="#w"/><use id="y" height="96" transform="translate(0 -6)" width="96" xlink:href="#x"/><use id="z" height="96" transform="translate(0 -6)" width="96" xlink:href="#y"/><use id="A" height="96" transform="translate(0 -6)" width="96" xlink:href="#z"/><use id="B" height="96" transform="translate(0 -6)" width="96" xlink:href="#A"/><use height="96" transform="translate(0 -6)" width="96" xlink:href="#B"/><path id="C" d="m74.5 48c.269774 0 .5.217964.5.5v3c0 .282036-.230229.5-.5.5h-1c-.269774 0-.5-.217964-.5-.5v-.5h-1.5c-.277 0-.5-.223-.5-.5v-1c0-.277.223-.5.5-.5h1.5v-.5c0-.282036.230229-.5.5-.5z" fill="url(#u)" stroke="#000" stroke-linecap="square" stroke-opacity=".563636" stroke-width=".5"/><use id="D" height="96" transform="translate(0 -6)" width="96" xlink:href="#C"/><use id="E" height="96" transform="translate(0 -6)" width="96" xlink:href="#D"/><use id="F" height="96" transform="translate(0 -6)" width="96" xlink:href="#E"/><use id="G" height="96" transform="translate(0 -6)" width="96" xlink:href="#F"/><use id="H" height="96" transform="translate(0 -6)" width="96" xlink:href="#G"/><use height="96" transform="translate(0 -6)" width="96" xlink:href="#H"/><path d="m65 6v55c0 2.202295 1.797705 4 4 4h6c2.202295 0 4-1.797705 4-4v-55h-1v55c0 1.662-1.338 3-3 3h-6c-1.662 0-3-1.338-3-3v-55z" fill="url(#l)"/><path d="m69.5 10.53125c-1.027701 0-1.96875.765203-1.96875 1.8125v10.8125c-.000005 1.047305.918081 1.84375 1.96875 1.84375h5c1.050668 0 1.96875-.796448 1.96875-1.84375v-10.8125c-.000003-1.047297-.941051-1.8125-1.96875-1.8125zm1.0625 9.0625h2.875v1.75h-2.875z" filter="url(#m)" stroke="#000" stroke-linecap="square" stroke-opacity=".563636" stroke-width=".5" transform="translate(0 -2)"/><path d="m69.229249 9.021415c-.687139 0-1.229249.48237-1.229249 1.081548l-.0051 10.815488c.000022.599179.542134 1.081549 1.229271 1.081549h5.583221c.687139 0 1.229249-.48237 1.229249-1.081549l.0051-10.815488c0-.599178-.542112-1.081548-1.229249-1.081548h-5.583221zm.704303 7.949648h4.101324v3.118378h-4.101324z" fill="url(#o)"/><path d="m74.5625 9.96875c.277 0 .5.223.5.5v10.0625c0 .277-.223.5-.5.5h-5.09375c-.277 0-.499999-.223-.5-.5v-10.0625c0-.277.223001-.5.5-.5zm-.4375 6.96875h-4.125v3.125h4.125z" fill="url(#n)"/><rect fill="url(#p)" height="5" rx=".563135" ry=".5" stroke="#000" stroke-linecap="square" stroke-opacity=".563636" width="3.378807" x="70.3106" y="7.5"/><path d="m69.984634 16h4v1h-4z" opacity=".3"/></g></g><path d="m32.639323 17.920521c.02554.685514-.200036 1.018624-.404044 1.607665l-.366875.182445c-.299911.582799.02979.369995-.184998.833341-.468736.416245-1.420398 1.302078-1.725133 1.383227-.222736-.0048.150665-.262741.199469-.36347-.62678.43015-.50307.645791-1.461824.907682l-.02782-.06271c-2.363547 1.112258-5.646974-1.091543-5.603846-4.098041-.02497.190671-.07179.143004-.123994.219613-.122008-1.546661.714455-3.100132 2.125205-3.735424 1.379823-.682675 2.997418-.402909 3.985114.518959-.542508-.71105-1.62327-1.464945-2.903218-1.395145-1.254409.02043-2.428239.817453-2.819798 1.68314-.642385.404329-.717292 1.55943-.99706 1.771099-.377088 2.769293.708498 3.965253 2.54514 5.372883.28828.194645.08115.224437.119738.372549-.610038-.285442-1.168438-.716725-1.628095-1.244763.244016.356659.507043.703389.847247.975778-.575708-.194361-1.344357-1.39401-1.568227-1.442812.991668 1.775637 4.022851 3.114034 5.61094 2.449803-.734885.02724-1.668102.01503-2.493216-.289983-.34758-.178472-.818303-.547616-.734032-.616564 2.166632.808939 4.404198.612309 6.278576-.890089.477251-.371698.998195-1.003586 1.14886-1.012098-.226708.341055.03887.164001-.135344.465049.474413-.76638-.206846-.312113.490869-1.32336l.257635.354675c-.09647-.636711.790213-1.409049.699984-2.415187.203442-.307574.226708.331408.01107 1.039052.299345-.785106.07916-.91137.155772-1.55943.08256.217912.192376.449159.248272.679271-.195212-.759001.199469-1.277677.297643-1.718891-.09704-.04257-.301048.335381-.348149-.560668.0071-.38929.108672-.204009.147545-.299912-.07604-.04398-.276646-.342472-.398369-.914775.08768-.134776.23607.348717.356375.368294-.07745-.454834-.210534-.801846-.216209-1.151129-.351836-.734885-.124562.09817-.409435-.315518-.374536-1.167303.31041-.270971.356943-.800995.566912.821424.89009 2.095413 1.039053 2.622882-.113495-.643235-.296507-1.26661-.520378-1.869555.172797.07292-.27778-1.323076.224439-.398653-.535981-1.970568-2.292042-3.8120346-3.907937-4.6757366.197198.1807422.446605.4077332.357512.4434837-.804113-.4780987-.66281-.5158361-.778008-.7178583-.654019-.2664308-.697714.0218428-1.130417.0005673-1.234264-.6548696-1.472038-.5853533-2.607845-.9950727l.05164.2417459c-.817452-.2723895-.952512.1027132-1.835792.0005679-.05363-.041712.283171-.1520848.560669-.192092-.790498.1044158-.753611-.1560565-1.527083.028656.190387-.1336413.392409-.2224512.595567-.3359472-.644371.039161-1.539.3751035-1.262922.069233-1.051253.4693047-2.91854 1.1278623-3.966387 2.1104506l-.03291-.2201815c-.480087.5762747-2.09371 1.7211619-2.222245 2.4682459l-.128534.02979c-.249409.423054-.411425.90229-.609474 1.337262-.326584.55698-.478951.214506-.432419.301898-.642668 1.30293-.962442 2.397595-1.237953 3.295913.196348.293669.0048 1.768262.07888 2.948332-.322327 5.829134 4.090949 11.488308 8.915081 12.794645.707077.253379 1.758331.2443 2.652676.269265-1.054942-.301897-1.191136-.159743-2.219407-.51811-.741409-.349566-.903708-.74822-1.429193-1.204186l.20798.36744c-1.029969-.364604-.59897-.451142-1.437134-.716436l.222167-.289699c-.333961-.02554-.884414-.56237-1.034797-.860579l-.365456.01447c-.43866-.540806-.672743-.931514-.655436-1.234262l-.118035.210534c-.133642-.229546-1.614759-2.031005-.846394-1.611638-.142721-.129954-.332542-.211954-.538253-.586206l.15634-.178471c-.369143-.475833-.680404-1.085588-.65657-1.288745.197199.266148.333961.316085.469588.361766-.933785-2.316445-.986277-.127398-1.693071-2.35787l.149246-.01192c-.114346-.173365-.18443-.360349-.276361-.544495l.06526-.648344c-.671894-.77631-.187835-3.304141-.09052-4.690206.06667-.563506.560952-1.163614.936338-2.104775l-.228693-.03916c.437525-.762691 2.497471-3.064099 3.451968-2.946064.462211-.58053-.09193-.0023-.182443-.148111 1.015501-1.050687 1.334709-.742262 2.019938-.931515.738573-.438378-.634156.171378-.284022-.167123 1.277675-.326016.905127-.7416939 2.571527-.9071133.175917.099875-.407734.1543533-.554144.2840228 1.064022-.5209447 3.367699-.402059 4.864705.2888461 1.735633.8117774 3.686907 3.2102234 3.764084 5.4668004l.08768.02355c-.04426.897181.137328 1.934816-.177905 2.887611l.213089-.451428" fill="#d70751"/><g transform="matrix(.28373903 0 0 .28373903 9.376411 4.151195)"><path d="m13.437 125.506c-.045.047-.045 7.506-.138 9.453-.092 1.574-.232 4.957-3.568 4.957-3.429 0-4.263-3.939-4.541-5.652-.324-1.9-.324-3.477-.324-4.17 0-2.225.139-8.436 5.375-8.436 1.576 0 2.456.465 3.151.834zm-13.437 5.469c0 13.066 6.951 13.066 7.97 13.066 2.873 0 4.727-1.576 5.514-4.309l.093 4.123c.881-.047 1.761-.139 3.197-.139.51 0 .926 0 1.298.047.371 0 .741.045 1.158.092-.741-1.482-1.297-4.818-1.297-12.049 0-7.043 0-18.951.602-22.566-1.667.789-3.105 1.299-6.256 1.576 1.251 1.344 1.251 2.039 1.251 8.154-.879-.277-1.992-.602-3.892-.602-8.294.001-9.638 7.23-9.638 12.607"/><path d="m25.13 128.609c.047-3.846.835-7.275 4.124-7.275 3.615 0 3.891 3.984 3.799 7.275zm12.51.465c0-5.422-1.065-10.752-7.923-10.752-9.452 0-9.452 10.475-9.452 12.697 0 9.406 4.216 13.113 11.306 13.113 3.149 0 4.68-.461 5.514-.695-.046-1.668.185-2.734.465-4.17-.975.604-2.226 1.391-5.006 1.391-7.229 0-7.322-6.582-7.322-8.852h12.328z"/><path d="m52.715 131.066c0 4.309-.787 10.102-6.162 10.102-.742 0-1.668-.141-2.27-.279-.093-1.668-.093-4.541-.093-7.877 0-3.986.416-6.068.742-7.09.972-3.289 3.15-3.334 3.566-3.334 3.522 0 4.217 4.865 4.217 8.478zm-13.298 5.051c0 3.43 0 5.375-.556 6.857 1.9.742 4.262 1.158 7.09 1.158 1.807 0 7.043 0 9.869-5.791 1.344-2.688 1.807-6.303 1.807-9.037 0-1.668-.186-5.328-1.529-7.646-1.296-2.176-3.382-3.289-5.605-3.289-4.449 0-5.746 3.707-6.44 5.607 0-2.363.045-10.611.415-14.828-3.011 1.391-4.866 1.621-6.857 1.807 1.807.74 1.807 3.801 1.807 13.764v11.398"/><path d="m66.535 143.855c-.928-.139-1.578-.232-2.922-.232-1.48 0-2.502.094-3.566.232.463-.881.648-1.299.787-4.309.186-4.125.232-15.154-.092-17.471-.232-1.762-.648-2.039-1.297-2.502 3.799-.371 4.865-.648 6.625-1.482-.369 2.037-.418 3.059-.418 6.162-.091 15.989-.138 17.702.883 19.602"/><path d="m81.373 130.74c-.092 2.92-.139 4.959-.928 6.58-.973 2.086-2.594 2.688-3.799 2.688-2.783 0-3.383-2.316-3.383-4.586 0-4.355 3.893-4.682 5.652-4.682zm-12.744 5.701c0 2.92.881 5.838 3.477 7.09 1.158.51 2.316.51 2.688.51 4.264 0 5.699-3.152 6.58-5.098-.047 2.039 0 3.289.139 4.912.834-.047 1.668-.139 3.059-.139.787 0 1.529.092 2.316.139-.51-.787-.787-1.252-.928-3.059-.092-1.76-.092-3.521-.092-5.977l.047-9.453c0-3.523-.928-6.998-7.879-6.998-4.586 0-7.273 1.391-8.617 2.086.557 1.02 1.02 1.898 1.436 3.893 1.809-1.576 4.172-2.41 6.58-2.41 3.848 0 3.848 2.549 3.848 6.162-.881-.045-1.623-.137-2.875-.137-5.887.001-9.779 2.268-9.779 8.479"/><path d="m108.063 139.268c.047 1.576.047 3.244.695 4.588-1.021-.092-1.623-.232-3.521-.232-1.113 0-1.715.094-2.596.232.184-.602.279-.834.371-1.623.139-1.064.232-4.633.232-5.885v-5.004c0-2.178 0-5.33-.141-6.441-.092-.787-.322-2.918-3.012-2.918-2.641 0-3.521 1.945-3.846 3.521-.369 1.621-.369 3.383-.369 10.24.045 5.932.045 6.486.508 8.109-.787-.092-1.76-.184-3.15-.184-1.113 0-1.854.045-2.779.184.324-.742.51-1.113.602-3.707.094-2.549.279-15.061-.141-18.025-.23-1.809-.695-2.225-1.203-2.688 3.754-.186 4.957-.789 6.117-1.389v4.91c.555-1.438 1.713-4.635 6.348-4.635 5.793 0 5.838 4.217 5.885 6.996z"/><path d="m66.926 111.533-3.838 3.836-3.836-3.836 3.836-3.836z" fill="#d70751"/></g></svg>