<svg height="64" width="64" xmlns="http://www.w3.org/2000/svg" xmlns:xlink="http://www.w3.org/1999/xlink"><linearGradient id="a"><stop offset="0" stop-color="#fff"/><stop offset="1" stop-color="#fff" stop-opacity="0"/></linearGradient><linearGradient id="b" gradientTransform="matrix(1.0058652 0 0 .994169 100 0)" gradientUnits="userSpaceOnUse" x1="45.447727" x2="45.447727" y1="92.539597" y2="7.01654"><stop offset="0"/><stop offset="1" stop-opacity=".588235"/></linearGradient><linearGradient id="c" gradientTransform="matrix(.88095236 0 0 .88095242 102.24686 -91.378936)" gradientUnits="userSpaceOnUse" x1="32.251034" x2="32.251034" xlink:href="#b" y1="6.131708" y2="90.238609"/><linearGradient id="d" gradientTransform="matrix(.85714286 0 0 .85714286 103.38971 -90.236078)" gradientUnits="userSpaceOnUse" x1="32.251034" x2="32.251034" xlink:href="#b" y1="6.131708" y2="90.238609"/><linearGradient id="e" gradientTransform="matrix(0 -1.0119049 .89285716 0 1.14286 64.285716)" gradientUnits="userSpaceOnUse" x1="7.3709" x2="23.76619" y1="51.470146" y2="51.433136"><stop offset="0" stop-color="#5d3815"/><stop offset="1" stop-color="#774f14"/></linearGradient><linearGradient id="f" gradientTransform="matrix(.88966473 0 0 -.88897608 101.82866 91.764071)" gradientUnits="userSpaceOnUse" x1="32.251034" x2="32.251034" xlink:href="#b" y1="6.131708" y2="90.238609"/><linearGradient id="g" gradientTransform="matrix(.88668581 0 0 -.88621557 101.97166 91.631566)" gradientUnits="userSpaceOnUse" x1="32.251034" x2="32.251034" xlink:href="#b" y1="6.131708" y2="90.238609"/><linearGradient id="h" gradientTransform="matrix(.88419911 0 0 -.88396282 102.09102 91.52343)" gradientUnits="userSpaceOnUse" x1="32.251034" x2="32.251034" xlink:href="#b" y1="6.131708" y2="90.238609"/><linearGradient id="i" gradientUnits="userSpaceOnUse" x1="78.04289384" x2="78.04289384" y1="-43.8124403" y2="-113.82267585329"><stop offset="0" stop-color="#97582e"/><stop offset="1" stop-color="#a76c44"/></linearGradient><radialGradient id="j" cx="48" cy="90.171875" gradientTransform="matrix(1.0333151 0 0 .89285716 -5.599123 -22.296321)" gradientUnits="userSpaceOnUse" r="42" xlink:href="#a"/><linearGradient id="k" gradientTransform="matrix(.83333387 0 0 .83675756 38.042891 -118.83298)" gradientUnits="userSpaceOnUse" x1="36.357143" x2="36.357143" xlink:href="#a" y1="6" y2="63.893143"/><linearGradient id="l" gradientTransform="matrix(2.4467882 0 0 2.4908279 -19.058972 -21.607478)" gradientUnits="userSpaceOnUse" x1="32.891998" x2="36.358002" y1="8.059" y2="5.4565"><stop offset="0" stop-color="#ba8046"/><stop offset="1" stop-color="#a3622c"/></linearGradient><linearGradient id="m" gradientTransform="matrix(1.0028706 0 0 .92473518 -.258364 9.404201)" gradientUnits="userSpaceOnUse" x1="48" x2="48" y1="90" y2="5.987717"><stop offset="0"/><stop offset="1" stop-color="#282828"/></linearGradient><g transform="matrix(.7 0 0 .7 1.2 18)"><g transform="matrix(1.0714286 0 0 1.0714286 -110.85633 -31.885595)"><path d="m114.1583 89.09322c-4.78901 0-8.71691-3.971039-8.71691-8.812629v-62.374743c0-4.841588 3.9279-8.812628 8.71691-8.812628h38.74855l30.7169 30.812628v40.374743c0 4.84159-3.9279 8.812629-8.7169 8.812629z" fill="url(#f)" opacity=".08"/><path d="m114.2634 88.09322c-4.30575 0-7.82165-3.55537-7.82165-7.909474v-62.181052c0-4.354104 3.5159-7.909474 7.82165-7.909474h38.36008l30 30v40.090526c0 4.354104-3.51589 7.909474-7.82165 7.909474z" fill="url(#g)" opacity=".1"/><path d="m114.35075 87.09322c-3.80788 0-6.90909-3.13685-6.90909-6.98851v-62.02298c0-3.851661 3.10121-6.98851 6.90909-6.98851h38.27273l29 29v40.01149c0 3.85166-3.1012 6.98851-6.90909 6.98851z" fill="url(#h)" opacity=".2"/><path d="m114.46511-86.093224h60.13512c3.33689 0 6.02326 2.717977 6.02326 6.094118v38.905886l-29.00001 28.999996h-37.15837c-3.33688 0-6.02325-2.717976-6.02325-6.094117v-61.811765c0-3.376141 2.68637-6.094118 6.02325-6.094118z" fill="url(#c)" opacity=".3" transform="scale(1 -1)"/><path d="m114.58491-85.093224h59.89572c2.84914 0 5.07622 2.294494 5.14286 5.142858v38.857146l-28.00001 27.999996h-37.03857c-2.84914 0-5.14285-2.293714-5.14285-5.142857v-61.714285c0-2.849143 2.29371-5.142858 5.14285-5.142858z" fill="url(#d)" opacity=".45" transform="scale(1 -1)"/></g><g transform="matrix(1.0714286 0 0 1.0714286 -39.617384 105.15619)"><path d="m48.042892-113.81244h37.999998l27 27v38.000001c0 2.77-2.23 5-5 5h-59.999998c-2.77 0-5-2.23-5-5v-60.000001c0-2.77 2.23-5 5-5z" fill="url(#i)"/><path d="m48.042897-113.81244c-2.770002 0-5.000003 2.23916-5.000003 5.02055v1.67351 54.899511c3.856259 8.137855.998427 5.789227.833337.836756v-54.899507-1.67352c0-2.32773 1.848461-4.18379 4.166669-4.18379h1.666668 34.666692 1.66667l26.16667 26.18379v1.67352 32.899507c-2.34559 6.154455.83329 6.970762.83329-.836758v-32.899509-1.67352l-27-27.02054z" fill="url(#k)" opacity=".3"/></g><path d="m6.5000025 52.142855c0 3.36357 2.3892855 6.071428 5.3571425 6.071428h64.285714c2.967857 0 5.357143-2.707858 5.357143-6.071428v-13.571426h-74.9999995z" fill="url(#e)"/><path d="m11.857145 58.214283c-2.967857 0-5.3571425-2.399103-5.3571425-5.379155v-1.793053c.0365465-10.900962.8928589-11.133427.8928589-.896578v1.793052c0 2.493998 1.9804926 4.48263 4.4642856 4.48263h1.785716 60.714274 1.785718c2.483796 0 4.464289-1.988632 4.464289-4.48263v-1.793053c.08764-12.153031.892875-7.994396.892875.896527v1.793052c-.000021 2.980105-2.389307 5.379208-5.357164 5.379208z" fill="url(#j)" opacity=".2"/><g fill="#fff" transform="matrix(.85317451 0 0 .85317451 -37.709536 -38.118702)"><path d="m87.148299 52.937418v17.077167l13.887891-8.538584z"/><path d="m87.039916 52.270341a.66004487.67707464 0 0 0 -.541915.667077v17.077167a.66004487.67707464 0 0 0 .997125.578134l13.894714-8.538584a.66004487.67707464 0 0 0 0-1.156267l-13.894714-8.538583a.66004487.67707464 0 0 0 -.45521-.08894z" opacity=".2"/><path d="m87.169976 51.469849c-.875323-.02408-1.554641.863371-1.430657 1.731061v17.013798c.117438.993031 1.318802 1.597029 2.145986 1.045087 4.661655-2.85881 9.313852-5.735302 13.981415-8.583055.65547-.477314.82602-1.518841.26012-2.134646-.50983-.510588-1.20644-.796296-1.80114-1.205008-4.18291-2.570554-8.365941-5.140904-12.548779-7.711586-.190213-.0967-.401378-.116541-.606945-.155651z" opacity=".05"/></g><path d="m11.793352 14.280276c-3.6177143 0-6.0338738 2.97006-6.0338738 6.219065v58.803007h15.9074858l.000001-2.444601c0-1.072272.820394-1.931414 1.840589-1.931414h47.881019c1.020192 0 1.840588.859142 1.840588 1.931414l-.000001 2.444601h16.770998v-30.375387l-21.234264-22.320236-45.114779-.672824c-1.098555-.016383-1.984151-.923376-1.984151-2.078131v-9.575494zm-2.0227189 4.370865h6.0167319v3.698591h-6.0167319zm0 7.397182h6.0167319v3.698592h-6.0167319zm0 7.397183h6.0167319v3.700782h-6.0167319zm13.7369189 1.346183h47.88102c1.020194 0 1.840588.681202 1.840588 1.526298l.000001 27.330817c0 .845095-.820394 1.526298-1.840588 1.526298h-47.881019c-1.020195 0-1.840589-.681203-1.840589-1.526298l-.000001-27.330817c0-.845096.820394-1.526298 1.840588-1.526298zm-13.7369189 6.053191h6.0167319v3.698591h-6.0167319zm0 7.397183h6.0167319v3.698591h-6.0167319zm70.2016379 0h6.016732v3.698591h-6.016732zm-70.2016379 7.399372h6.0167319v3.698591h-6.0167319zm70.2016379 0h6.016732v3.698591h-6.016732zm-70.2016379 7.397184h6.0167319v3.698591h-6.0167319zm70.2016379 0h6.016732v3.698591h-6.016732zm-70.2016379 7.399372h6.0167319v3.698592h-6.0167319zm70.2016379 0h6.016732v3.698592h-6.016732zm-70.2016379 7.397183h6.0167319v1.456225h-6.0167319zm70.2016379 0h6.016732v1.456225h-6.016732z" fill="url(#m)" opacity=".525" transform="matrix(.8903062 0 0 .85009163 1.35745 -28.925257)"/><g fill-rule="evenodd"><path d="m43.694065-16.752387c5.137078-.03348 1.879587 31.017222 1.879587 31.017222s35.952525-7.1678051 35.952525 5.078738c0-2.983162-.009-6.343468-.009-6.343468l-29.605364-29.74858z" opacity=".2" stroke-width="1.995053"/><path d="m44.813635-16.709453c5.60792-.03348 2.370157 29.409725 2.370157 29.409725s34.154277-6.6177114 34.154277 5.298795c0-2.902768-.0088-6.172516-.0088-6.172516l-28.577099-28.532198z" opacity=".2" stroke-width="1.941287"/><path d="m46.257197-16.741222c5.654616-.0073 2.261853 27.448842 2.261853 27.448842s32.988522-5.4051998 32.988522 6.06048c0-2.792949-.0085-3.796138-.0085-3.796138l-29.767428-29.732304z" opacity=".2" stroke-width="1.871432"/><path d="m47.578312-16.755847c6.006363 0 2.163461 25.935733 2.163461 25.935733s31.765441-4.6711083 31.765441 6.389377c0-2.694248-.0081-3.586255-.0081-3.586255l-28.791275-28.757298z" fill="url(#l)" stroke-width="1.805296"/></g><path d="m6.5000025 38.571429h74.9999995v1.428571h-74.9999995z" opacity=".3"/><path d="m6.5000025 37.142858h74.9999995v1.428571h-74.9999995z" fill="#fff" opacity=".2"/><g fill="#fff" stroke-width="1.145032" transform="matrix(.86640232 0 0 .86640232 4.902945 35.424051)"><path d="m23.690641 8.9914756h2.75076l1.923296 8.0882784 1.908386-8.0882784h2.765669l1.908387 8.0882784 1.923295-8.0882784h2.728397l-2.624032 11.1297684h-3.309857l-2.020206-8.461009-1.997842 8.461009h-3.309858z"/><path d="m41.484853 8.9914756h3.652771l2.534575 5.9562524 2.549485-5.9562524h3.645316v11.1297684h-2.713487v-8.14046l-2.564394 6.00098h-1.81893l-2.564395-6.00098v8.14046h-2.720941z"/><path d="m55.365383 8.9914756h2.884943l2.952035 8.2150064 2.944581-8.2150064h2.884943l-4.122413 11.1297684h-3.421677z"/></g></g></svg>