<svg height="16" width="16" xmlns="http://www.w3.org/2000/svg"><path d="m15 4-6.5 1.21875.8125.84375 5.5-1.03125zm-11.34375 1.34375-2.65625.71875c.091197.3099114.2103043.6089099.34375.90625l2.3125-.625c.1931848.58251.4887679 1.1291493.9375 1.59375 1.5412567 1.5957535 4.0380236 1.6182652 5.625.09375v-.03125-.96875l-.53125.4375c-1.5702283 1.0726601-3.7136319.8976672-5.09375-.53125-.4487321-.4646009-.7443152-1.01124-.9375-1.59375zm10.161051 5.386202 1.182699-6.729952-6.5001124 1.224518 1.7346264 1.7959611c-1.5859315 1.542364-4.0793398 1.5104273-5.6264927-.0914308-.4487321-.4646007-.7718978-1.0109973-.9650826-1.5935073l-2.6429387.7314451c.3126765 1.0625534.8733634 2.0667231 1.6841639 2.9061921 2.602877 2.6949108 6.8416863 2.6880178 9.4994361.0653058z" fill="#bebebe"/></svg>