<svg height="16" width="16" xmlns="http://www.w3.org/2000/svg"><path d="m5.9375 1c-1.2651705 0-2.5353948.4764293-3.5 1.4375-1.0935374 1.0895308-1.52116592 2.5770431-1.375 4 .1086549-1.0930808.5351969-2.1632739 1.375-3 1.9292103-1.9221413 5.0707895-1.9221414 7 0 .816029.8130384 1.278535 1.8469911 1.40625 2.90625.121874-1.400378-.330188-2.8341309-1.40625-3.90625-.9646053-.9610707-2.2348295-1.43750001-3.5-1.4375zm-3.25 5.4375c-.023392.1588634-.03125.3356754-.03125.5 0 1.8122134 1.4936244 3.281251 3.3125 3.28125 1.8188777 0 3.2812498-1.4690368 3.28125-3.28125 0-.1643246-.00783-.3421373-.03125-.5-.2443941 1.5722083-1.6038135 2.78125-3.25 2.78125-1.6461846.0000013-3.0368557-1.2090414-3.28125-2.78125zm7.53125 2.9375c-.04341.074692-.0773.1459265-.125.21875.01634.324513.06952.876549.28125 1.0625.288287.25319.966874-.110576 1.40625.375l3.03125 3.0625s.02196.02111.03125.03125c.362727-.631969-.03125-1.03125-.03125-1.03125l-3.03125-3.0625c-.439376-.4855763-1.117963-.12181-1.40625-.375-.066709-.0585873-.118328-.1724554-.15625-.28125zm-7.7718424-6.9333939c-1.92921019 1.9221416-1.92921009 5.0421398 0 6.9642808 1.6818402 1.6756791 4.272808 1.8988571 6.1889674.6529021.325705.01628.850926.06109 1.037561.272042.254123.287232-.105101.958719.382261 1.396484l3.031041 3.071232s.562273.600501 1.438025-.272043c.875752-.872543.273043-1.432755.273043-1.432755l-3.031042-3.071232c-.439376-.4855761-1.113332-.1276701-1.401619-.3808601-.211729-.185951-.256705-.709248-.273043-1.033761 1.250537-1.909138 1.026539-4.4906119-.655302-6.1662898-1.9292105-1.92214145-5.0606821-1.92214135-6.9898924 0zm1.1831848 1.1425773c.5964074-.594222 1.4205257-.9430796 2.3299641-.9430797 1.8188769 0 3.2947145 1.4704303 3.2947145 3.2826428 0 1.8122134-1.4758368 3.2826434-3.2947145 3.2826434-1.8188758.000001-3.2947148-1.47043-3.2947148-3.2826434.0000001-.9061061.3683435-1.745341.9647507-2.3395631z" fill="#bebebe"/></svg>