<svg height="16" width="16.000002" xmlns="http://www.w3.org/2000/svg"><g fill="#bebebe" transform="translate(-301.0002 -727)"><path d="m302.53143 728c-.84739 0-1.53123.68385-1.53123 1.53125v10.9375c0 .81808.71311 1.53125 1.53123 1.53125h6.46867a1.0000875 1.0001 0 1 0 0-2h-5.99992v-10h3.99995v1a1.0000875 1.0001 0 0 0 .99998 1h6.99991v2a1.0000875 1.0001 0 1 0 1.99998 0v-2.40625c0-.87052-.72327-1.59375-1.59373-1.59375h-6.40617v-.46875c0-.84738-.68389-1.53125-1.53123-1.53125z"/><path d="m313.0002 736.0098v1.9968h-2v1.9967h2v1.9967h2v-1.9967h2v-1.9967h-2v-1.9968z"/></g></svg>