<svg height="16" viewBox="0 0 16 16" width="16" xmlns="http://www.w3.org/2000/svg"><path d="m8 2a6.9999959 5.4999796 0 0 0 -7 5.5 6.9999959 5.4999796 0 0 0 3.0273438 4.527344c.0682999.2081.1432518.556637-.1113282 1.023437-.3560896.6531-.8828125.966797-.8828125.966797l-.0332031.982422h1s1.4663972-.5588 1.9667969-1c.4214797-.3713.5372156-.927947.5722656-1.123047a6.9999959 5.4999796 0 0 0 1.4609375.123047 6.9999959 5.4999796 0 0 0 7-5.5 6.9999959 5.4999796 0 0 0 -7-5.5zm-.8261719.84375h1.546875v1.7226562h-1.546875zm-1.5136719 2.7460938h3.0605469v4.5078122h1.9199219v1.132813h-5.3925781v-1.132813h1.9257812v-3.3749998h-1.5136719z" fill="#bebebe"/></svg>