<svg height="16" width="16" xmlns="http://www.w3.org/2000/svg"><path d="m247.71895 749c-.19186.009-.37223.0353-.5625.0625-1.52218.21741-2.97815 1.02304-3.96875 2.34375-1.98119 2.64144-1.42267 6.42505 1.21875 8.40625 2.64147 1.98122 6.42504 1.42267 8.40625-1.21875.12268-.17164.18932-.38275.1875-.59375v-1h-1c-.31415-.001-.62517.15406-.8125.40625-1.33265 1.77674-3.81702 2.11387-5.59375.78125-1.77674-1.33264-2.1139-3.81699-.78125-5.59375 1.33265-1.77674 3.817-2.11389 5.59375-.78125.42946.32212.76954.73295 1.03125 1.1875h-1.4375c-.55228 0-1 .44772-1 1v1h6v-5-1h-1c-.55229 0-1 .44772-1 1v1.6875c-.38225-.57796-.84927-1.08223-1.40625-1.5-1.15563-.86677-2.53199-1.25227-3.875-1.1875z" fill="#bebebe" transform="translate(-241.0002 -747)"/></svg>