<svg height="16" width="16" xmlns="http://www.w3.org/2000/svg" xmlns:xlink="http://www.w3.org/1999/xlink"><linearGradient id="a" gradientTransform="matrix(.68673263 0 0 .69909319 -3.694973 22.217352)" gradientUnits="userSpaceOnUse" x1="32.891998" x2="36.358002" y1="8.059" y2="5.4565"><stop offset="0" stop-color="#d6dfea"/><stop offset="1" stop-color="#b3bccc"/></linearGradient><radialGradient id="b" cx="48" cy="90.171875" gradientTransform="matrix(.2951992 0 0 .25507295 -.170779 21.999592)" gradientUnits="userSpaceOnUse" r="42" xlink:href="#c"/><linearGradient id="c"><stop offset="0" stop-color="#fff"/><stop offset="1" stop-color="#fff" stop-opacity="0"/></linearGradient><linearGradient id="d" gradientTransform="matrix(0 -.32521809 .25507296 0 1.755283 46.951309)" gradientUnits="userSpaceOnUse" x1="7.3709" x2="23.76619" y1="51.470146" y2="51.433136"><stop offset="0" stop-color="#676f7d"/><stop offset="1" stop-color="#818791"/></linearGradient><linearGradient id="e" gradientUnits="userSpaceOnUse" x1="248.07678816" x2="248.07678816" y1="-62.6598922" y2="-98.66515562275"><stop offset="0" stop-color="#adb6c2"/><stop offset="1" stop-color="#c1c8d4"/></linearGradient><linearGradient id="f" gradientTransform="matrix(.4285717 0 0 .43033246 227.50536 -101.24189)" gradientUnits="userSpaceOnUse" x1="36.357143" x2="36.357143" xlink:href="#c" y1="6" y2="63.893143"/><linearGradient id="g" gradientTransform="matrix(.88394566 0 0 -.88394572 10.163169 89.361561)" gradientUnits="userSpaceOnUse" x1="32.251034" x2="32.251034" y1="6.131708" y2="90.238609"><stop offset="0"/><stop offset="1" stop-opacity=".588235"/></linearGradient><clipPath id="h"><path d="m-88 6c-3.324 0-6 2.676-6 6v72c0 3.324 2.676 6 6 6h72c3.324 0 6-2.676 6-6v-72c0-3.324-2.676-6-6-6zm4 38a36 36 0 0 1 36 36h-7.1875a28.8 28.8 0 0 0 -28.8125-28.8125zm0 12.125a23.862857 23.862857 0 0 1 23.875 23.875h-7a16.868571 16.868571 0 0 0 -16.875-16.875zm4.9375 14c2.726708 0 4.9375 2.210792 4.9375 4.9375 0 2.726709-2.210792 4.9375-4.9375 4.9375-2.726709 0-4.9375-2.210791-4.9375-4.9375 0-2.726708 2.210792-4.9375 4.9375-4.9375z"/></clipPath><filter id="i" color-interpolation-filters="sRGB"><feGaussianBlur stdDeviation="1.08"/></filter><linearGradient id="j" gradientUnits="userSpaceOnUse" x1="38.5" x2="38.5" y1="80" y2="24.997727375"><stop offset="0" stop-color="#d4530d"/><stop offset="1" stop-color="#f7ad25"/></linearGradient><g transform="matrix(.7 0 0 .7 -1.8 -16.5)"><path d="m21.510559 84.057885h62.16399c3.34823 0 6.04372-2.727212 6.04372-6.114824v-39.038079l-29.09854-29.0985314h-39.10917c-3.34822 0-6.04372 2.7272114-6.04372 6.1148244v62.021786c0 3.387612 2.6955 6.114824 6.04372 6.114824z" fill="url(#g)" opacity=".63" transform="matrix(.30783438 0 0 .30783438 -2.189797 20.552665)"/><g transform="matrix(.59517027 0 0 .59517032 -133.64915 82.293312)"><path d="m232.64822-98.6599h19.54285l13.88572 13.885715v19.542857c0 1.424571-1.14685 2.571428-2.57143 2.571428h-30.85714c-1.42458 0-2.57143-1.146857-2.57143-2.571428v-30.857144c0-1.424571 1.14685-2.571428 2.57143-2.571428z" fill="url(#e)"/><path d="m232.64822-98.6599c-1.42457 0-2.57143 1.151568-2.57143 2.581998v.860662 28.234034c1.98322 4.185183.51348 2.977317.42857.430332v-28.09486-.860668c0-1.197119.95064-2.151664 2.14286-2.151664h.85715 17.82858.85715l13.45714 13.326778v.860667 16.919747c-1.2063 3.165148.42855 3.584963.42855-.430333v-16.919747-.860668l-13.88571-13.896278z" fill="url(#f)" opacity=".3"/></g><g transform="matrix(.33068782 0 0 .33068782 -.100529 11.640212)"><path d="m-84 44v7.2a28.8 28.8 0 0 1 28.8 28.8h7.2a36 36 0 0 0 -36-36zm0 12.137143v6.994286a16.868571 16.868571 0 0 1 16.868571 16.868571h6.994286a23.862857 23.862857 0 0 0 -23.862857-23.862857zm4.937142 13.988571c-2.726708 0-4.937142 2.210435-4.937142 4.937143 0 2.726709 2.210434 4.937143 4.937143 4.937143 2.726708 0 4.937143-2.210434 4.937143-4.937143 0-2.726708-2.210435-4.937143-4.937143-4.937143z" style="opacity:.12;fill:none;stroke:#fff;stroke-width:2;clip-path:url(#h);filter:url(#i)" transform="translate(100)"/><path d="m16 44v7.2a28.8 28.8 0 0 1 28.8 28.8h7.2a36 36 0 0 0 -36-36zm0 12.137143v6.994286a16.868571 16.868571 0 0 1 16.868571 16.868571h6.994286a23.862857 23.862857 0 0 0 -23.862857-23.862857zm4.937142 13.988571c-2.726708 0-4.937142 2.210435-4.937142 4.937143 0 2.726709 2.210434 4.937143 4.937143 4.937143 2.726708 0 4.937143-2.210434 4.937143-4.937143 0-2.726708-2.210435-4.937143-4.937144-4.937143z" fill="url(#j)"/><path d="m16 44v7.1875c.323237.01539.646215.03623.96875.0625.000668-.02083.000668-.04167 0-.0625v-6.15625c.812941.02133 1.604135.03984 2.46875.125 1.20415.118598 2.219523.263945 3.40625.5s2.154625.461262 3.3125.8125 2.132128.693212 3.25 1.15625 2.026646.929621 3.09375 1.5 1.962691 1.077773 2.96875 1.75 1.814676 1.294899 2.75 2.0625 1.706918 1.425668 2.5625 2.28125 1.513649 1.627176 2.28125 2.5625 1.390273 1.743941 2.0625 2.75 1.179621 1.901646 1.75 2.96875 1.036962 1.975878 1.5 3.09375.805012 2.092125 1.15625 3.25.576445 2.125773.8125 3.3125.381402 2.2021.5 3.40625c.08516.864615.103674 1.655809.125 2.46875h-6.15625c-.01042-.000167-.02083-.000167-.03125 0 .01585.322711.02627.645689.03125.96875h7.1875c0-9.424778-3.879831-18.79152-10.544156-25.455844-6.664324-6.664325-16.031066-10.544156-25.455844-10.544156zm0 12.125v7c.323427.01154.646522.03238.96875.0625.000668-.02083.000668-.04167 0-.0625v-5.96875c.409214.01676.820495.01733 1.28125.0625.809435.07936 1.421001.154134 2.21875.3125s1.40913.326654 2.1875.5625 1.373515.438949 2.125.75 1.313896.585492 2.03125.96875 1.229945.704482 1.90625 1.15625 1.183765.796578 1.8125 1.3125 1.081149.956149 1.65625 1.53125 1.015328 1.027515 1.53125 1.65625.860732 1.136195 1.3125 1.8125.772992 1.188896 1.15625 1.90625.657699 1.279765.96875 2.03125.514154 1.34663.75 2.125.404134 1.389751.5625 2.1875.233142 1.409315.3125 2.21875c.04517.460755.04574.872036.0625 1.28125h-5.96875c-.02083-.000668-.04167-.000668-.0625 0 .03012.322228.05096.645323.0625.96875h7c.003182-6.251329-2.568908-12.465376-6.989266-16.885734s-10.634405-6.992448-16.885734-6.989266zm4.9375 14c-2.726708 0-4.9375 2.210792-4.9375 4.9375 0 2.726709 2.210791 4.9375 4.9375 4.9375 2.726708 0 4.9375-2.210791 4.9375-4.9375 0-2.726708-2.210792-4.9375-4.9375-4.9375zm0 .96875c2.200152 0 3.96875 1.768598 3.96875 3.96875 0 2.200153-1.768598 3.96875-3.96875 3.96875-2.200153 0-3.96875-1.768597-3.96875-3.96875 0-2.200152 1.768598-3.96875 3.96875-3.96875z" fill="#803300" opacity=".3"/><path d="m16 44v1a36 36 0 0 1 35.9375 35h.0625a36 36 0 0 0 -36-36zm0 12.125v1a23.862857 23.862857 0 0 1 23.8125 22.875h.0625a23.862857 23.862857 0 0 0 -23.875-23.875zm4.9375 14c-2.726708 0-4.9375 2.210792-4.9375 4.9375 0 .170419.0144.334028.03125.5.252831-2.489584 2.349961-4.4375 4.90625-4.4375s4.653419 1.947916 4.90625 4.4375c.01685-.165972.03125-.329581.03125-.5 0-2.726708-2.210792-4.9375-4.9375-4.9375z" fill="#803300" opacity=".5"/><path d="m16 51.1875v1a28.8 28.8 0 0 1 28.8125 28.8125h7.1875a36 36 0 0 0 -.0625-1h-7.125a28.8 28.8 0 0 0 -28.8125-28.8125zm0 11.9375v1a16.868571 16.868571 0 0 1 16.875 16.875h7a23.862857 23.862857 0 0 0 -.0625-1h-6.9375a16.868571 16.868571 0 0 0 -16.875-16.875zm.03125 12.4375c-.016855.165972-.03125.329581-.03125.5 0 2.726709 2.210791 4.9375 4.9375 4.9375 2.726708 0 4.9375-2.210791 4.9375-4.9375 0-.170419-.0144-.334028-.03125-.5-.252831 2.489585-2.349961 4.4375-4.90625 4.4375-2.55629 0-4.653419-1.947915-4.90625-4.4375z" fill="#fff"/></g><path d="m13.460156 23.574305c1.892484 0 .741329 8.506605.741329 8.506605s10.512399-1.113452 10.512399 2.371481c0-.848902-.002-2.614157-.002-2.614157l-8.264401-8.264365z" fill-rule="evenodd" opacity=".2" stroke-width=".568812"/><path d="m3.2857204 43.048691c0 1.081025.6825752 1.951309 1.5304381 1.951309h18.3652535c.847863 0 1.530438-.870284 1.530438-1.951309v-3.762977h-21.4261296z" fill="url(#d)"/><path d="m4.816158 45c-.8478624 0-1.5304376-.68538-1.5304376-1.536727v-.595058c.010437-3.114206.255072-3.180616.255072-.256136v.512242c0 .712489.5657905 1.280605 1.2753656 1.280605h.5101471 17.3449539.510147c.709576 0 1.275366-.568116 1.275366-1.280605v-.512242c.02504-3.471899.255078-2.283853.255078.256121v.595058c-.000006.851362-.682581 1.536742-1.530444 1.536742z" fill="url(#b)" opacity=".2"/><g fill-rule="evenodd"><path d="m14.163648 23.573869c1.789201 0 .69371 7.880154.69371 7.880154s3.488495-.415245 6.314417-.05772c1.923803.243391 3.540539.844919 3.540539 2.179404 0-.802577-.000464-1.737474-.000464-1.737474l-8.264367-8.264364z" opacity=".2" stroke-width=".537769"/><path d="m15.007914 23.579044c1.685788 0 .607213 7.279305.607213 7.279305s9.099163-1.117886 9.099163 1.986428c0-.756187-.0024-1.006543-.0024-1.006543l-8.264407-8.264365z" fill="url(#a)" stroke-width=".506687"/></g></g><path d="m.50000434 11h14.99829066v1h-14.99829066z" opacity=".3"/></svg>