<svg height="16" width="16" xmlns="http://www.w3.org/2000/svg" xmlns:xlink="http://www.w3.org/1999/xlink"><linearGradient id="a" gradientTransform="matrix(.68673263 0 0 .69909319 -3.694973 22.217352)" gradientUnits="userSpaceOnUse" x1="32.891998" x2="36.358002" y1="8.059" y2="5.4565"><stop offset="0" stop-color="#dc8282"/><stop offset="1" stop-color="#d26464"/></linearGradient><radialGradient id="b" cx="48" cy="90.171875" gradientTransform="matrix(.2951992 0 0 .25507295 -.170779 21.999592)" gradientUnits="userSpaceOnUse" r="42" xlink:href="#c"/><linearGradient id="c"><stop offset="0" stop-color="#fff"/><stop offset="1" stop-color="#fff" stop-opacity="0"/></linearGradient><linearGradient id="d" gradientTransform="matrix(0 -.32521809 .25507296 0 1.755283 46.951309)" gradientUnits="userSpaceOnUse" x1="7.3709" x2="23.76619" y1="51.470146" y2="51.433136"><stop offset="0" stop-color="#6e1414"/><stop offset="1" stop-color="#8c2828"/></linearGradient><linearGradient id="e" gradientUnits="userSpaceOnUse" x1="248.07678816" x2="248.07678816" y1="-62.6598922" y2="-98.66515562275"><stop offset="0" stop-color="#aa5050"/><stop offset="1" stop-color="#c86464"/></linearGradient><linearGradient id="f" gradientTransform="matrix(.4285717 0 0 .43033246 227.50536 -101.24189)" gradientUnits="userSpaceOnUse" x1="36.357143" x2="36.357143" xlink:href="#c" y1="6" y2="63.893143"/><linearGradient id="g" gradientTransform="matrix(.88394566 0 0 -.88394572 10.163169 89.361561)" gradientUnits="userSpaceOnUse" x1="32.251034" x2="32.251034" y1="6.131708" y2="90.238609"><stop offset="0"/><stop offset="1" stop-opacity=".588235"/></linearGradient><g transform="matrix(.7 0 0 .7 -1.8 -16.5)"><path d="m21.510559 84.057885h62.16399c3.34823 0 6.04372-2.727212 6.04372-6.114824v-39.038079l-29.09854-29.0985314h-39.10917c-3.34822 0-6.04372 2.7272114-6.04372 6.1148244v62.021786c0 3.387612 2.6955 6.114824 6.04372 6.114824z" fill="url(#g)" opacity=".63" transform="matrix(.30783438 0 0 .30783438 -2.189797 20.552665)"/><g transform="matrix(.59517027 0 0 .59517032 -133.64915 82.293312)"><path d="m232.64822-98.6599h19.54285l13.88572 13.885715v19.542857c0 1.424571-1.14685 2.571428-2.57143 2.571428h-30.85714c-1.42458 0-2.57143-1.146857-2.57143-2.571428v-30.857144c0-1.424571 1.14685-2.571428 2.57143-2.571428z" fill="url(#e)"/><path d="m232.64822-98.6599c-1.42457 0-2.57143 1.151568-2.57143 2.581998v.860662 28.234034c1.98322 4.185183.51348 2.977317.42857.430332v-28.09486-.860668c0-1.197119.95064-2.151664 2.14286-2.151664h.85715 17.82858.85715l13.45714 13.326778v.860667 16.919747c-1.2063 3.165148.42855 3.584963.42855-.430333v-16.919747-.860668l-13.88571-13.896278z" fill="url(#f)" opacity=".3"/></g><g fill-rule="evenodd" transform="matrix(.04377417552 0 0 .04519136523 .07199258043 32.5456794056)"><g transform="matrix(1.2148819 0 0 1.2148819 120.54253 -115.30857)"><path d="m40.38 197.58 146.469-9.939 11.281-147.691-44.63 90.46z" fill="#df4130"/><path d="m140.209 145.93 46.88 41.61-12.589-86.89z" fill="#a61101"/><path d="m40.87 197.391 146.389-9.851-92.229-7.24z" fill="#a61101"/><path d="m13.34 132.771 27.66 64.639 23.04-75.48z" fill="#ff5b49"/><path d="m58.33 120.01 81.87 26.17-21.2-83.04z" fill="#ff5b49"/><path d="m120 69.1 73.32-4.79-57.35-46.84z" fill="#ff5b49"/><path d="m111.49.52 55.01.25-33.73 18.64z" fill="#ff5b49"/><path d="m2.7 101.62-2.7 56.47 14.13-25.77z" fill="#ff5b49"/></g><path d="m122.89935 6.969292 13.97118 39.629444 62.10137-12.014187 67.91526-66.018887 19.55962-62.127841-30.79851-21.746391-52.36138 19.596047c-16.49689 15.343962-48.50904 45.703853-49.66321 46.274855-1.142.583136-21.13894 38.378113-30.72433 56.40696z" fill="#ff5b4b"/><path d="m171.9563-64.222785c35.75395-35.450249 81.84659-56.394805 99.53523-38.548195 17.67774 17.846609-1.06907 61.217891-36.82303 96.6559936-35.75396 35.4381044-81.27565 57.5368074-98.95212 39.6901884-17.68874-17.834462.48594-62.359883 36.23992-97.797987z" fill="#860000"/><path d="m170.35263 124.48477 27.77218-91.733715 92.23389 29.373874c-33.34853 31.271057-70.43892 57.706871-120.00607 62.359841z" fill="#860000"/><path d="m267.00865-31.615356 23.67807 93.788878c27.85721-29.2908 52.85948-60.780538 65.10427-99.729652z" fill="#860000"/><path d="m355.54921-37.082325c9.47607-28.598318 11.66287-69.624875-33.02168-77.242185l-36.66512 20.252079z" fill="#860000"/><path d="m120.54253 76.339046c1.31207 47.199394 35.36513 47.902814 49.87082 48.317044l-33.50637-78.251734z" fill="#9e1209"/><path d="m267.14102-31.469568c21.40628 13.15717 64.54791 39.5808498 65.42264 40.0667995 1.35946.7653786 18.59985-29.0721185 22.51177-45.9346805z" fill="#c22f1c"/><path d="m198.4287 32.635949 36.7865 71.487461c21.95285-11.905859 39.14351-26.411545 54.88833-41.949888z" fill="#c22f1c"/><path d="m136.7611 46.501548-5.26041 62.639282c9.92562 13.55813 23.58083 14.73654 37.9043 13.67954-10.3629-25.791887-31.06449-77.36362-32.64389-76.318822z" fill="#c22f1c"/><path d="m285.64491-93.914499 73.75547 10.350796c-3.93621-16.680327-16.02429-27.444187-36.62868-30.809417z" fill="#c22f1c"/></g><path d="m13.460156 23.574305c1.892484 0 .741329 8.506605.741329 8.506605s10.512399-1.113452 10.512399 2.371481c0-.848902-.002-2.614157-.002-2.614157l-8.264401-8.264365z" fill-rule="evenodd" opacity=".2" stroke-width=".568812"/><path d="m3.2857204 43.048691c0 1.081025.6825752 1.951309 1.5304381 1.951309h18.3652535c.847863 0 1.530438-.870284 1.530438-1.951309v-3.762977h-21.4261296z" fill="url(#d)"/><path d="m4.816158 45c-.8478624 0-1.5304376-.68538-1.5304376-1.536727v-.595058c.010437-3.114206.255072-3.180616.255072-.256136v.512242c0 .712489.5657905 1.280605 1.2753656 1.280605h.5101471 17.3449539.510147c.709576 0 1.275366-.568116 1.275366-1.280605v-.512242c.02504-3.471899.255078-2.283853.255078.256121v.595058c-.000006.851362-.682581 1.536742-1.530444 1.536742z" fill="url(#b)" opacity=".2"/><g fill-rule="evenodd"><path d="m14.163648 23.573869c1.789201 0 .69371 7.880154.69371 7.880154s3.488495-.415245 6.314417-.05772c1.923803.243391 3.540539.844919 3.540539 2.179404 0-.802577-.000464-1.737474-.000464-1.737474l-8.264367-8.264364z" opacity=".2" stroke-width=".537769"/><path d="m15.007914 23.579044c1.685788 0 .607213 7.279305.607213 7.279305s9.099163-1.117886 9.099163 1.986428c0-.756187-.0024-1.006543-.0024-1.006543l-8.264407-8.264365z" fill="url(#a)" stroke-width=".506687"/></g></g><path d="m.50000434 11h14.99829066v1h-14.99829066z" opacity=".3"/></svg>