<svg height="16" width="16" xmlns="http://www.w3.org/2000/svg" xmlns:xlink="http://www.w3.org/1999/xlink"><linearGradient id="a" gradientTransform="matrix(.68673263 0 0 .69909319 -3.694973 22.217352)" gradientUnits="userSpaceOnUse" x1="32.891998" x2="36.358002" y1="8.059" y2="5.4565"><stop offset="0" stop-color="#1e75cc"/><stop offset="1" stop-color="#1160a3"/></linearGradient><radialGradient id="b" cx="48" cy="90.171875" gradientTransform="matrix(.2951992 0 0 .25507295 -.170779 21.999592)" gradientUnits="userSpaceOnUse" r="42" xlink:href="#c"/><linearGradient id="c"><stop offset="0" stop-color="#fff"/><stop offset="1" stop-color="#fff" stop-opacity="0"/></linearGradient><linearGradient id="d" gradientTransform="matrix(0 -.32521809 .25507296 0 1.755283 46.951309)" gradientUnits="userSpaceOnUse" x1="7.3709" x2="23.76619" y1="51.470146" y2="51.433136"><stop offset="0" stop-color="#002a70"/><stop offset="1" stop-color="#003a7e"/></linearGradient><linearGradient id="e" gradientUnits="userSpaceOnUse" x1="248.07678816" x2="248.07678816" y1="-62.6598922" y2="-98.66515562275"><stop offset="0" stop-color="#00498e"/><stop offset="1" stop-color="#0d5ea7"/></linearGradient><linearGradient id="f" gradientTransform="matrix(.4285717 0 0 .43033246 227.50536 -101.24189)" gradientUnits="userSpaceOnUse" x1="36.357143" x2="36.357143" xlink:href="#c" y1="6" y2="63.893143"/><linearGradient id="g" gradientTransform="matrix(.88394566 0 0 -.88394572 10.163169 89.361561)" gradientUnits="userSpaceOnUse" x1="32.251034" x2="32.251034" y1="6.131708" y2="90.238609"><stop offset="0"/><stop offset="1" stop-opacity=".588235"/></linearGradient><radialGradient id="h" cx="41.752941" cy="36.95731" gradientTransform="matrix(4.5608932 -.80134104 .40815326 2.3230351 -148.56388 -20.727491)" gradientUnits="userSpaceOnUse" r="19"><stop offset="0" stop-color="#b3d1ff"/><stop offset=".5" stop-color="#b3d1ff"/><stop offset="1" stop-color="#b3d1ff"/></radialGradient><linearGradient id="i" gradientUnits="userSpaceOnUse" x1="37.0203438" x2="45.6532128" y1="53.2912798" y2="68.830444"><stop offset="0" stop-color="#b3e1ff"/><stop offset="1" stop-color="#f0ffff" stop-opacity="0"/></linearGradient><g transform="matrix(.7 0 0 .7 -1.8 -16.5)"><path d="m21.510559 84.057885h62.16399c3.34823 0 6.04372-2.727212 6.04372-6.114824v-39.038079l-29.09854-29.0985314h-39.10917c-3.34822 0-6.04372 2.7272114-6.04372 6.1148244v62.021786c0 3.387612 2.6955 6.114824 6.04372 6.114824z" fill="url(#g)" opacity=".63" transform="matrix(.30783438 0 0 .30783438 -2.189797 20.552665)"/><g transform="matrix(.59517027 0 0 .59517032 -133.64915 82.293312)"><path d="m232.64822-98.6599h19.54285l13.88572 13.885715v19.542857c0 1.424571-1.14685 2.571428-2.57143 2.571428h-30.85714c-1.42458 0-2.57143-1.146857-2.57143-2.571428v-30.857144c0-1.424571 1.14685-2.571428 2.57143-2.571428z" fill="url(#e)"/><path d="m232.64822-98.6599c-1.42457 0-2.57143 1.151568-2.57143 2.581998v.860662 28.234034c1.98322 4.185183.51348 2.977317.42857.430332v-28.09486-.860668c0-1.197119.95064-2.151664 2.14286-2.151664h.85715 17.82858.85715l13.45714 13.326778v.860667 16.919747c-1.2063 3.165148.42855 3.584963.42855-.430333v-16.919747-.860668l-13.88571-13.896278z" fill="url(#f)" opacity=".3"/></g><path d="m13.460156 23.574305c1.892484 0 .741329 8.506605.741329 8.506605s10.512399-1.113452 10.512399 2.371481c0-.848902-.002-2.614157-.002-2.614157l-8.264401-8.264365z" fill-rule="evenodd" opacity=".2" stroke-width=".568812"/><path d="m3.2857204 43.048691c0 1.081025.6825752 1.951309 1.5304381 1.951309h18.3652535c.847863 0 1.530438-.870284 1.530438-1.951309v-3.762977h-21.4261296z" fill="url(#d)"/><path d="m4.816158 45c-.8478624 0-1.5304376-.68538-1.5304376-1.536727v-.595058c.010437-3.114206.255072-3.180616.255072-.256136v.512242c0 .712489.5657905 1.280605 1.2753656 1.280605h.5101471 17.3449539.510147c.709576 0 1.275366-.568116 1.275366-1.280605v-.512242c.02504-3.471899.255078-2.283853.255078.256121v.595058c-.000006.851362-.682581 1.536742-1.530444 1.536742z" fill="url(#b)" opacity=".2"/><path d="m14.163648 23.573869c1.789201 0 .69371 7.880154.69371 7.880154s3.488495-.415245 6.314417-.05772c1.923803.243391 3.540539.844919 3.540539 2.179404 0-.802577-.000464-1.737474-.000464-1.737474l-8.264367-8.264364z" fill-rule="evenodd" opacity=".2" stroke-width=".537769"/><path d="m15.007914 23.579044c1.685788 0 .607213 7.279305.607213 7.279305s9.099163-1.117886 9.099163 1.986428c0-.756187-.0024-1.006543-.0024-1.006543l-8.264407-8.264365z" fill="url(#a)" fill-rule="evenodd" stroke-width=".506687"/><g transform="matrix(.14184480694 0 0 .14184480694 1.96743579776 25.96831387328)"><path d="m38.994631 25.428559-4.975872-5.405094s.113135 24.845606.11846 29.024068c-3.099725-1.685814-7.518217-1.264359-11.175366 1.386743-4.731162 3.412443-6.376216 9.231267-3.643536 12.983559 2.746259 3.765901 8.78257 4.024178 13.513757.611755 3.725119-2.705454 5.805202-6.9472 5.057461-10.427585-.02727-.108779-.06801-.217536-.09516-.326334l.13979-20.369684c.496976-1.475472 1.305145-2.032863 4.698406 2.249512 3.909781 6.358271-.242773 15.791902-.242773 15.791902s.671594-.594854 1.478642-1.466117c2.948444-3.183051 4.265252-8.865938 2.531103-14.261774-1.492782-3.215162-6.223493-8.506625-7.404942-9.790936z" fill="#6e93b6" transform="matrix(1.9534141 0 0 1.9534141 -10.754156 -45.940692)"/><path d="m76.859862 17.877279c-6.231046-8.9476442-13.750069-16.7790409-21.161308-24.7038518l.231402 56.6239798c.97997.369273 1.902183.800467 2.712315 1.356157v-34.831596c0-5.424632.03076-9.2079316 4.302347-6.126253 7.485907 5.40061 9.551683 6.837095 13.915244 7.681564z" fill="url(#h)" opacity=".7"/><path d="m52.559494 55.017847c2.107921 4.276518-2.493502 8.928749-9.335931 12.30142-6.842427 3.372672-13.334772 4.188625-15.442694-.0879-2.10792-4.276518 1.730157-10.477412 8.572586-13.850084 6.842428-3.372672 14.098119-2.639961 16.206039 1.636557z" fill="url(#i)"/></g></g><path d="m.50000434 11h14.99829066v1h-14.99829066z" opacity=".3"/><g fill="#6e93b6"><path d="m1.500079 1h2.59992v1h-2.59992z" stroke-width=".260957"/><path d="m1.500079 3h2.59992v1h-2.59992z" stroke-width=".260957"/><path d="m1.5 5h2.6v1h-2.6z" stroke-width=".260961"/></g></svg>