<svg height="16" width="16" xmlns="http://www.w3.org/2000/svg" xmlns:xlink="http://www.w3.org/1999/xlink"><linearGradient id="a" gradientTransform="matrix(.68673263 0 0 .69909319 -3.694973 22.217352)" gradientUnits="userSpaceOnUse" x1="32.891998" x2="36.358002" y1="8.059" y2="5.4565"><stop offset="0" stop-color="#6aa96b"/><stop offset="1" stop-color="#5d8a5e"/></linearGradient><radialGradient id="b" cx="48" cy="90.171875" gradientTransform="matrix(.2951992 0 0 .25507295 -.170779 21.999592)" gradientUnits="userSpaceOnUse" r="42" xlink:href="#c"/><linearGradient id="c"><stop offset="0" stop-color="#fff"/><stop offset="1" stop-color="#fff" stop-opacity="0"/></linearGradient><linearGradient id="d" gradientTransform="matrix(0 -.32521809 .25507296 0 1.755283 46.951309)" gradientUnits="userSpaceOnUse" x1="7.3709" x2="23.76619" y1="51.470146" y2="51.433136"><stop offset="0" stop-color="#264c23"/><stop offset="1" stop-color="#345f33"/></linearGradient><linearGradient id="e" gradientUnits="userSpaceOnUse" x1="248.07678816" x2="248.07678816" y1="-62.6598922" y2="-98.66515562275"><stop offset="0" stop-color="#528250"/><stop offset="1" stop-color="#639363"/></linearGradient><linearGradient id="f" gradientTransform="matrix(.4285717 0 0 .43033246 227.50536 -101.24189)" gradientUnits="userSpaceOnUse" x1="36.357143" x2="36.357143" xlink:href="#c" y1="6" y2="63.893143"/><linearGradient id="g" gradientTransform="matrix(.88394566 0 0 -.88394572 10.163169 89.361561)" gradientUnits="userSpaceOnUse" x1="32.251034" x2="32.251034" y1="6.131708" y2="90.238609"><stop offset="0"/><stop offset="1" stop-opacity=".588235"/></linearGradient><g transform="matrix(.7 0 0 .7 -1.8 -16.5)"><path d="m21.510559 84.057885h62.16399c3.34823 0 6.04372-2.727212 6.04372-6.114824v-39.038079l-29.09854-29.0985314h-39.10917c-3.34822 0-6.04372 2.7272114-6.04372 6.1148244v62.021786c0 3.387612 2.6955 6.114824 6.04372 6.114824z" fill="url(#g)" opacity=".63" transform="matrix(.30783438 0 0 .30783438 -2.189797 20.552665)"/><g transform="matrix(.59517027 0 0 .59517032 -133.64915 82.293312)"><path d="m232.64822-98.6599h19.54285l13.88572 13.885715v19.542857c0 1.424571-1.14685 2.571428-2.57143 2.571428h-30.85714c-1.42458 0-2.57143-1.146857-2.57143-2.571428v-30.857144c0-1.424571 1.14685-2.571428 2.57143-2.571428z" fill="url(#e)"/><path d="m232.64822-98.6599c-1.42457 0-2.57143 1.151568-2.57143 2.581998v.860662 28.234034c1.98322 4.185183.51348 2.977317.42857.430332v-28.09486-.860668c0-1.197119.95064-2.151664 2.14286-2.151664h.85715 17.82858.85715l13.45714 13.326778v.860667 16.919747c-1.2063 3.165148.42855 3.584963.42855-.430333v-16.919747-.860668l-13.88571-13.896278z" fill="url(#f)" opacity=".3"/></g><g fill="#6dffad" transform="matrix(.25332193 0 0 .25332193 1.443262 21.157861)"><g fill="#000"><path d="m29.28125 32.09375c-5.661851-.175558-11.868297 2.310769-14.380308 7.685513-2.424026 4.804192-2.462304 10.601791-1.025942 15.720737 1.232767 3.979599 4.141753 7.360277 8.004797 8.998636 6.577742 2.54518 15.116686 1.90348 19.907863-3.794126 1.056831-1.591706 2.559191-3.281145 2.64984-5.26701-.243842-1.779528-2.390323-1.845732-3.695959-2.495096-1.341135-.330093-2.611801-1.380701-4.022791-1.129904-1.837728.586989-1.597302 3.152116-3.1875 4.09375-2.814986 2.388225-8.197828 1.764173-9.716976-1.894974-1.311727-3.400742-1.364752-7.490677.306404-10.777756 2.033006-3.186757 7.097093-3.294806 9.762161-.882669 1.036394.911066.954889 2.933129 2.585911 3.149149 1.871136-.119879 3.657812-.947416 5.497928-1.341718 1.303535-.07489 2.439448-1.320039 2.002072-2.627032-1.468793-5.235705-6.46871-8.853659-11.790278-9.282256-.961372-.111465-1.929725-.155067-2.897222-.155244zm21.5625 7c-1.427199.202562-1.766778 1.781568-1.59375 2.996167v3.003833c-1.604817.105638-3.285431-.211436-4.84375.15625-1.546328.567965-1.158734 2.469282-1.1875 3.774132.02015 1.291286-.341233 3.168098 1.1875 3.725868 1.558861.364546 3.238582.05265 4.84375.15625.106391 1.594267-.212613 3.264806.15625 4.8125.567965 1.546328 2.469282 1.158734 3.774132 1.1875 1.291286-.02015 3.168098.341233 3.725868-1.1875.364361-1.548473.05278-3.217728.15625-4.8125 1.594267-.106391 3.264806.212613 4.8125-.15625 1.546328-.567965 1.158734-2.469282 1.1875-3.774132-.02015-1.291286.341233-3.168098-1.1875-3.725868-1.548473-.364361-3.217728-.05278-4.8125-.15625-.106391-1.594267.212613-3.264806-.15625-4.8125-.567965-1.546328-2.469282-1.158734-3.774132-1.1875-.762785.000003-1.525599-.000004-2.288368 0zm20 0c-1.427199.202562-1.766778 1.781568-1.59375 2.996167v3.003833c-1.604817.105638-3.285431-.211436-4.84375.15625-1.546328.567965-1.158734 2.469282-1.1875 3.774132.02015 1.291286-.341233 3.168098 1.1875 3.725868 1.558861.364546 3.238582.05265 4.84375.15625.106391 1.594267-.212613 3.264806.15625 4.8125.567965 1.546328 2.469282 1.158734 3.774132 1.1875 1.291286-.02015 3.168098.341233 3.725868-1.1875.364361-1.548473.05278-3.217728.15625-4.8125 1.594267-.106391 3.264806.212613 4.8125-.15625 1.546328-.567965 1.158734-2.469282 1.1875-3.774132-.02015-1.291286.341233-3.168098-1.1875-3.725868-1.548473-.364361-3.217728-.05278-4.8125-.15625-.106391-1.594267.212613-3.264806-.15625-4.8125-.567965-1.546328-2.469282-1.158734-3.774132-1.1875-.762785.000003-1.525599-.000004-2.288368 0z" opacity=".05"/><path d="m29.28125 32.96875c-2.55591.000031-4.818087.366532-6.78125 1.125-1.933537.738017-3.570119 1.823757-4.875 3.25-1.299226 1.405-2.243284 3.1086-2.875 5.0625a1.0333011 1.0333011 0 0 0 -.03125 0c-.615337 1.948578-.906251 4.103413-.90625 6.46875-.000001 2.285984.292653 4.417353.90625 6.375a1.0333011 1.0333011 0 0 0 .03125 0c.632016 1.969557 1.573375 3.721314 2.875 5.1875a1.0333011 1.0333011 0 0 0 .03125 0c1.327381 1.463147 2.971261 2.599217 4.9375 3.40625a1.0333011 1.0333011 0 0 0 .03125 0c1.993917.803524 4.278355 1.1875 6.90625 1.1875 2.020115 0 3.796578-.270541 5.34375-.78125a1.0333011 1.0333011 0 0 0 .03125 0c1.515901-.510166 2.858164-1.178698 4-2.03125 1.112427-.83063 2.052051-1.764785 2.8125-2.875.734969-1.073093 1.32909-2.204049 1.78125-3.3125a1.0333011 1.0333011 0 0 0 -.59375-1.34375l-5.3125-2a1.0333011 1.0333011 0 0 0 -1.34375.59375c-.240506.620203-.528022 1.207309-.90625 1.8125a1.0333011 1.0333011 0 0 0 0 .03125c-.340493.563549-.772949 1.075618-1.3125 1.53125a1.0333011 1.0333011 0 0 0 -.03125 0c-.502453.433927-1.122856.797822-1.875 1.09375-.671478.257398-1.5401.406254-2.59375.40625-1.408457.000004-2.552304-.227019-3.46875-.65625-.935812-.443901-1.654968-1.027041-2.25-1.8125-.599372-.791152-1.042104-1.731222-1.34375-2.875-.296485-1.1859-.468758-2.503217-.46875-3.9375-.000008-1.437277.178198-2.709817.46875-3.84375.0023-.0091-.0023-.02218 0-.03125.302755-1.122505.737881-2.06197 1.3125-2.8125.587505-.751999 1.302584-1.314194 2.21875-1.71875a1.0333011 1.0333011 0 0 0 .03125 0c.894049-.406371 2.009251-.624977 3.375-.625.962596.000023 1.801581.11097 2.5.34375a1.0333011 1.0333011 0 0 0 0 .03125c.733483.232298 1.367641.537293 1.875.90625.532099.378414.953509.806636 1.28125 1.28125.33484.473442.554706.972796.71875 1.5a1.0333011 1.0333011 0 0 0 1.28125.6875l5.375-1.46875a1.0333011 1.0333011 0 0 0 .6875-1.3125c-.413019-1.26844-.962588-2.457429-1.71875-3.53125-.747464-1.098242-1.688987-2.053601-2.84375-2.84375-1.152979-.814723-2.507553-1.418835-4.03125-1.84375-1.537138-.432748-3.276467-.624969-5.25-.625zm21.78125 7a1.0333011 1.0333011 0 0 0 -.9375 1.03125v4.96875h-5a1.0333011 1.0333011 0 0 0 -1.03125 1.03125v4a1.0333011 1.0333011 0 0 0 1.03125 1.03125h5v4.96875a1.0333011 1.0333011 0 0 0 1.03125 1.03125h4a1.0333011 1.0333011 0 0 0 1.03125-1.03125v-4.96875h4.96875a1.0333011 1.0333011 0 0 0 1.03125-1.03125v-4a1.0333011 1.0333011 0 0 0 -1.03125-1.03125h-4.96875v-4.96875a1.0333011 1.0333011 0 0 0 -1.03125-1.03125h-4a1.0333011 1.0333011 0 0 0 -.09375 0zm20 0a1.0333011 1.0333011 0 0 0 -.9375 1.03125v4.96875h-5a1.0333011 1.0333011 0 0 0 -1.03125 1.03125v4a1.0333011 1.0333011 0 0 0 1.03125 1.03125h5v4.96875a1.0333011 1.0333011 0 0 0 1.03125 1.03125h4a1.0333011 1.0333011 0 0 0 1.03125-1.03125v-4.96875h4.96875a1.0333011 1.0333011 0 0 0 1.03125-1.03125v-4a1.0333011 1.0333011 0 0 0 -1.03125-1.03125h-4.96875v-4.96875a1.0333011 1.0333011 0 0 0 -1.03125-1.03125h-4a1.0333011 1.0333011 0 0 0 -.09375 0z" opacity=".1"/><path d="m29.28125 34c-2.455186.00003-4.585572.359081-6.40625 1.0625-1.806904.689682-3.313799 1.672225-4.5 2.96875-1.18621 1.282783-2.06315 2.85304-2.65625 4.6875-.579313 1.834502-.875001 3.880405-.875 6.15625-.000001 2.193116.295687 4.214235.875 6.0625.5931 1.848283 1.487495 3.460781 2.6875 4.8125 1.213786 1.337934 2.745466 2.366381 4.59375 3.125 1.848263.744827 4.007098 1.125 6.53125 1.125 1.931016 0 3.61054-.249785 5.03125-.71875 1.43446-.482758 2.684243-1.102585 3.71875-1.875 1.034457-.772411 1.904067-1.64935 2.59375-2.65625.689627-1.006891 1.228634-2.045467 1.65625-3.09375l-5.3125-2c-.262093.675872-.58623 1.337939-1 2-.400022.662076-.910583 1.257118-1.53125 1.78125-.606917.524143-1.346141.950221-2.1875 1.28125-.827604.317246-1.82394.468754-2.96875.46875-1.517256.000004-2.816609-.239651-3.90625-.75-1.075874-.510339-1.935355-1.214649-2.625-2.125-.689665-.910336-1.200224-1.994819-1.53125-3.25-.317249-1.268954-.500008-2.670245-.5-4.1875-.000008-1.531018.182751-2.897396.5-4.125.331026-1.241359.824129-2.304721 1.5-3.1875.689644-.882736 1.562919-1.562261 2.625-2.03125 1.062054-.482734 2.336623-.718725 3.8125-.71875 1.048258.000025 1.984895.130413 2.8125.40625.827566.262094 1.549333.621144 2.15625 1.0625.620668.441402 1.131227.951962 1.53125 1.53125.399976.565539.681873 1.16058.875 1.78125l5.375-1.46875c-.386235-1.186184-.904123-2.270665-1.59375-3.25-.675889-.993077-1.5455-1.876482-2.59375-2.59375-1.034506-.731007-2.28429-1.287471-3.71875-1.6875-1.420709-.39997-3.06532-.59372-4.96875-.59375zm21.875 7v6h-6.03125v4h6.03125v6h4v-6h6v-4h-6v-6zm20 0v6h-6.03125v4h6.03125v6h4v-6h6v-4h-6v-6z" opacity=".2"/></g><path d="m29.28125 33c-2.455186.00003-4.585572.359081-6.40625 1.0625-1.806904.689682-3.313799 1.672225-4.5 2.96875-1.18621 1.282783-2.06315 2.85304-2.65625 4.6875-.579313 1.834502-.875001 3.880405-.875 6.15625-.000001 2.193116.295687 4.214235.875 6.0625.5931 1.848283 1.487495 3.460781 2.6875 4.8125 1.213786 1.337934 2.745466 2.366381 4.59375 3.125 1.848263.744827 4.007098 1.125 6.53125 1.125 1.931016 0 3.61054-.249785 5.03125-.71875 1.43446-.482758 2.684243-1.102585 3.71875-1.875 1.034457-.772411 1.904067-1.64935 2.59375-2.65625.689627-1.006891 1.228634-2.045467 1.65625-3.09375l-5.3125-2c-.262093.675872-.58623 1.337939-1 2-.400022.662076-.910583 1.257118-1.53125 1.78125-.606917.524143-1.346141.950221-2.1875 1.28125-.827604.317246-1.82394.468754-2.96875.46875-1.517256.000004-2.816609-.239651-3.90625-.75-1.075874-.510339-1.935355-1.214649-2.625-2.125-.689665-.910336-1.200224-1.994819-1.53125-3.25-.317249-1.268954-.500008-2.670245-.5-4.1875-.000008-1.531018.182751-2.897396.5-4.125.331026-1.241359.824129-2.304721 1.5-3.1875.689644-.882736 1.562919-1.562261 2.625-2.03125 1.062054-.482734 2.336623-.718725 3.8125-.71875 1.048258.000025 1.984895.130413 2.8125.40625.827566.262094 1.549333.621144 2.15625 1.0625.620668.441402 1.131227.951962 1.53125 1.53125.399976.565539.681873 1.16058.875 1.78125l5.375-1.46875c-.386235-1.186184-.904123-2.270665-1.59375-3.25-.675889-.993077-1.5455-1.876482-2.59375-2.59375-1.034506-.731007-2.28429-1.287471-3.71875-1.6875-1.420709-.39997-3.06532-.59372-4.96875-.59375zm21.875 7v6h-6.03125v4h6.03125v6h4v-6h6v-4h-6v-6zm20 0v6h-6.03125v4h6.03125v6h4v-6h6v-4h-6v-6z" fill="#acffad"/></g><path d="m13.460156 23.574305c1.892484 0 .741329 8.506605.741329 8.506605s10.512399-1.113452 10.512399 2.371481c0-.848902-.002-2.614157-.002-2.614157l-8.264401-8.264365z" fill-rule="evenodd" opacity=".2" stroke-width=".568812"/><path d="m3.2857204 43.048691c0 1.081025.6825752 1.951309 1.5304381 1.951309h18.3652535c.847863 0 1.530438-.870284 1.530438-1.951309v-3.762977h-21.4261296z" fill="url(#d)"/><path d="m4.816158 45c-.8478624 0-1.5304376-.68538-1.5304376-1.536727v-.595058c.010437-3.114206.255072-3.180616.255072-.256136v.512242c0 .712489.5657905 1.280605 1.2753656 1.280605h.5101471 17.3449539.510147c.709576 0 1.275366-.568116 1.275366-1.280605v-.512242c.02504-3.471899.255078-2.283853.255078.256121v.595058c-.000006.851362-.682581 1.536742-1.530444 1.536742z" fill="url(#b)" opacity=".2"/><g fill-rule="evenodd"><path d="m14.163648 23.573869c1.789201 0 .69371 7.880154.69371 7.880154s3.488495-.415245 6.314417-.05772c1.923803.243391 3.540539.844919 3.540539 2.179404 0-.802577-.000464-1.737474-.000464-1.737474l-8.264367-8.264364z" opacity=".2" stroke-width=".537769"/><path d="m15.007914 23.579044c1.685788 0 .607213 7.279305.607213 7.279305s9.099163-1.117886 9.099163 1.986428c0-.756187-.0024-1.006543-.0024-1.006543l-8.264407-8.264365z" fill="url(#a)" stroke-width=".506687"/></g></g><path d="m.50000434 11h14.99829066v1h-14.99829066z" opacity=".3"/></svg>