<svg height="96" width="96" xmlns="http://www.w3.org/2000/svg" xmlns:xlink="http://www.w3.org/1999/xlink"><linearGradient id="a" gradientTransform="matrix(0 -1 1 0 0 96)" gradientUnits="userSpaceOnUse" x1="8" x2="88" y1="48" y2="48"><stop offset="0" stop-color="#aaa"/><stop offset="1" stop-color="#f0f0f0"/></linearGradient><g transform="translate(0 74)"><path d="m88 48a40 40 0 1 1 -39.999999-40l-.000001 40z" fill="#fff" opacity=".3" transform="matrix(.8 0 0 .8 9.6 -64.4)"/><path d="m48-70c-24.815889 0-45 20.184111-45 45 0 24.8158889 20.184111 45 45 45s45-20.1841111 45-45c0-24.815889-20.184111-45-45-45zm-5.25 16.53125c-1.042392 1.22315-1.75 2.750081-1.75 4.46875v11 7 .75c-1.134959 1.420024-2.03125 3.183423-2.03125 5.28125 0 4.9432 4.094576 8.96875 9.03125 8.96875 2.07549 0 3.829101-.897036 5.25-2h.75 7 7c3.841346 0 7-3.158654 7-7s-3.158654-7-7-7h-7-6v-6-11c0-1.718669-.707608-3.2456-1.75-4.46875 13.523872 2.470609 23.75 14.214023 23.75 28.46875 0 16.0579509-12.942049 29-29 29s-29-12.9420491-29-29c0-.533693.0078-1.007077.03125-1.46875.688076-13.574169 10.659578-24.619982 23.71875-27z" opacity=".08"/><path d="m48-69c-24.275282 0-44 19.724718-44 44 0 24.27528154 19.724718 44 44 44s44-19.72471846 44-44c0-24.275282-19.724718-44-44-44zm0 14c16.595359 0 30 13.404641 30 30 0 16.5953587-13.404641 30-30 30s-30-13.4046413-30-30c0-.541728.0065-1.043858.03125-1.53125.804209-15.865212 13.891895-28.46875 29.96875-28.46875zm0 0c-3.295239 0-6 2.704761-6 6v11 7 1.03125c-1.162124 1.342482-2.03125 3.025114-2.03125 5 0 4.392466 3.635924 7.96875 8.03125 7.96875 1.963771 0 3.648521-.860499 5-2h1 7 7c3.295239 0 6-2.704761 6-6s-2.704761-6-6-6h-7-7v-7-11c0-3.295239-2.704761-6-6-6z" opacity=".1"/><path d="m48-68c-23.735282 0-43 19.264718-43 43 0 23.7352819 19.264718 43 43 43s43-19.2647181 43-43c0-23.735282-19.264718-43-43-43zm0 12c17.133789 0 31 13.866211 31 31 0 17.1337891-13.866211 31-31 31s-31-13.8662109-31-31c0-.547948.0051-1.078368.03125-1.59375.830615-16.386135 14.370022-29.40625 30.96875-29.40625zm0 2c-2.751593 0-5 2.248407-5 5v11 7 1.3125c-1.195371 1.241955-2.03125 2.860717-2.03125 4.71875 0 3.842707 3.175296 6.96875 7.03125 6.96875 1.862299 0 3.499062-.819443 4.75-2h1.25 7 7c2.751593 0 5-2.248407 5-5s-2.248407-5-5-5h-7-7-1v-1-7-11c0-2.751593-2.248407-5-5-5zm0 28c.565246 0 1 .434754 1 1s-.434754 1-1 1-1-.434754-1-1 .434754-1 1-1z" opacity=".15"/><path d="m48-67c-23.195959 0-42 18.804041-42 42 0 23.195959 18.804041 42 42 42s42-18.804041 42-42-18.804041-42-42-42zm0 10c17.673112 0 32 14.326888 32 32s-14.326888 32-32 32-32-14.326888-32-32c0-.552285.0036-1.110836.03125-1.65625.85706-16.907836 14.847923-30.34375 31.96875-30.34375zm0 4c-2.216 0-4 1.784-4 4v11 7 1.59375c-1.24023 1.093314-2.03125 2.666085-2.03125 4.4375 0 3.295411 2.710954 5.96875 6.03125 5.96875 1.779776 0 3.371149-.77968 4.46875-2h1.53125 7 7c2.216 0 4-1.784 4-4s-1.784-4-4-4h-7-7-1.59375c-.130038-.140395-.263318-.278805-.40625-.40625v-1.59375-7-11c0-2.216-1.784-4-4-4zm0 26c1.104569 0 2 .895431 2 2s-.895431 2-2 2-2-.895431-2-2 .895431-2 2-2z" opacity=".3"/><g transform="translate(0 -74)"><path d="m48 6c-23.195959 0-42 18.804041-42 42s18.804041 42 42 42 42-18.804041 42-42-18.804041-42-42-42zm0 10c17.673112 0 32 14.326888 32 32s-14.326888 32-32 32-32-14.326888-32-32c0-.552285.0036-1.110836.03125-1.65625.85706-16.907836 14.847923-30.34375 31.96875-30.34375zm0 4c-2.216 0-4 1.784-4 4v11 7 1.59375c-1.24023 1.093314-2.03125 2.666085-2.03125 4.4375 0 3.295411 2.710954 5.96875 6.03125 5.96875 1.779776 0 3.371149-.77968 4.46875-2h1.53125 7 7c2.216 0 4-1.784 4-4s-1.784-4-4-4h-7-7-1.59375c-.130038-.140395-.263318-.278805-.40625-.40625v-1.59375-7-11c0-2.216-1.784-4-4-4zm0 26c1.104569 0 2 .895431 2 2s-.895431 2-2 2-2-.895431-2-2 .895431-2 2-2z" fill="url(#a)"/><path d="m48 6c-23.195959 0-42 18.804041-42 42 0 .336195.0233936.665694.03125 1 .5341965-22.731315 19.108986-41 41.96875-41s41.434553 18.268685 41.96875 41c.007856-.334306.03125-.663805.03125-1 0-23.195959-18.804041-42-42-42zm0 14c-2.216 0-4 1.784-4 4v2c0-2.216 1.784-4 4-4s4 1.784 4 4v-2c0-2.216-1.784-4-4-4zm-4 23.59375c-1.24023 1.093314-2.03125 2.666085-2.03125 4.4375 0 .354405.03366.693786.09375 1.03125.23125-1.370729.929813-2.580432 1.9375-3.46875v-1.59375zm8 0v.40625 1.59375c.142932.127445.276212.265855.40625.40625h1.59375 7 7c1.868974 0 3.400465 1.273103 3.84375 3 .082308-.320645.15625-.652974.15625-1 0-2.216-1.784-4-4-4h-7-7-1.59375c-.130038-.140395-.263318-.278805-.40625-.40625zm-35.96875 5.40625c-.00713.33383-.03125.666467-.03125 1 0 17.673112 14.326888 32 32 32s32-14.326888 32-32c0-.333533-.021118-.668925-.03125-1-.526721 17.211824-14.629171 31-31.96875 31s-31.442029-13.788176-31.96875-31zm30.25 0c-.170758.294544-.28125.635035-.28125 1 0 1.104569.895431 2 2 2s2-.895431 2-2c0-.364965-.110492-.705456-.28125-1-.346043.596896-.979146 1-1.71875 1s-1.372707-.403104-1.71875-1z" fill="#fff" opacity=".6"/></g></g></svg>