<svg height="96" width="96" xmlns="http://www.w3.org/2000/svg" xmlns:xlink="http://www.w3.org/1999/xlink"><linearGradient id="a" gradientUnits="userSpaceOnUse" x1="76.8888886" x2="76.8888886" y1="85.89909279809" y2="10.152778"><stop offset="0" stop-color="#aaa"/><stop offset="1" stop-color="#f0f0f0"/></linearGradient><g transform="translate(0 74)"><path d="m71.875-65.8125c-1.240745.230265-2.081197 1.031507-2.75 1.78125s-1.241278 1.478147-1.78125 1.90625a.98188401.98188401 0 0 0 -.15625.1875c-1.042019 1.335359-3.09916 2.49975-3.96875 4.78125a.98188401.98188401 0 0 0 -.0625.28125c-.0351.721073.173912 1.357856.46875 1.90625-.08453-.07294-.132747-.178475-.21875-.25a.98188401.98188401 0 0 0 -.125-.09375c-.583322-.332843-1.093844-.287518-1.28125-.3125a.98188401.98188401 0 0 0 -.375 0c-1.212894.299249-2.058158 1.096417-2.75 1.84375s-1.257242 1.486067-1.84375 1.9375a.98188401.98188401 0 0 0 -.15625.15625c-1.074506 1.299105-3.118246 2.425794-4.09375 4.59375a.98188401.98188401 0 0 0 -.0625.3125c-.05866.722344.172183 1.335731.4375 1.90625-.496974-.280982-1.078969-.471917-1.71875-.4375a.98188401.98188401 0 0 0 -.21875.03125c-1.227317.386633-2.13428 1.205987-2.875 2s-1.375617 1.5742-2.03125 2.09375a.98188401.98188401 0 0 0 -.15625.1875c-.480143.612259-1.239094 1.192994-2 1.90625s-1.527787 1.58496-1.84375 2.8125a.98188401.98188401 0 0 0 -.03125.40625c.256563 1.561038 1.139652 2.758397 1.875 3.84375s1.336362 2.046927 1.4375 3.125a.98188401.98188401 0 0 0 .03125.1875c1.325871 4.545841-.08093 9.585026-3.0625 13.25a.98188401.98188401 0 0 0 -.1875.3125c-.243598.720031-.221575 1.454239 0 2.0625s.611389 1.090544 1 1.5c.777222.818912 1.656332 1.460989 2.03125 1.96875a.98188401.98188401 0 0 0 .125.15625c1.480863 1.2994663 2.798996 3.2038178 4.8125 4.5a.98188401.98188401 0 0 0 .25.125c.766164.2257116 1.536123.1624141 2.15625-.125.02821-.013075.03491-.048774.0625-.0625-.199694.4800434-.291961 1.0022964-.25 1.5.08336.9887837.653034 1.896107 1.53125 2.5l-.03125.03125c2.063348 1.93982278 3.982379 4.2244052 6.34375 6.125a.98188401.98188401 0 0 0 .3125.1875c.768795.2597384 1.545964.1974366 2.1875-.0625.283249-.1147665.454297-.3325996.6875-.5-.124403.1484832-.25233.2872204-.375.4375a.98188401.98188401 0 0 0 -.1875.3125c-.253812.7203497-.226119 1.4520738 0 2.0625s.6057 1.0895266 1 1.5c.788599.8209467 1.697221 1.473557 2.0625 1.96875a.98188401.98188401 0 0 0 .125.15625c1.438099 1.267758 2.698227 3.126399 4.6875 4.375a.98188401.98188401 0 0 0 .3125.125c.821026.174346 1.641965.01152 2.28125-.3125.639285-.324019 1.12808-.796672 1.5625-1.28125.868841-.969155 1.576479-2.007818 2.15625-2.46875a.98188401.98188401 0 0 0 .125-.125c13.209199-15.031787 17.256861-37.263135 10.09375-55.96875-2.94331-7.811803-7.579619-15.12404-13.6875-20.84375a.98188401.98188401 0 0 0 -.1875-.125c-.51121-.28285-1.009748-.353761-1.4375-.375a.98188401.98188401 0 0 0 -.25 0zm-41.34375 15.875c-1.792735.202346-3.164968 1.175643-4.3125 2.21875s-2.116404 2.173506-3.125 2.9375c-1.309293 1.03524-2.305983 2.277941-3.28125 2.84375-3.19673.125083-6.711997-.467046-10.21875.53125a.98188401.98188401 0 0 0 -.0625.03125c-1.938453.741787-3.1866088 2.253002-3.84375 3.9375-.6454065 1.654418-.7693726 3.476683-.625 5.15625.0003985.03101-.0003817.06273 0 .09375.07303 5.935151-.1592821 11.925169.125 17.9375a.98188401.98188401 0 0 0 0 .125c.6541371 4.1949853 4.851407 6.524928 8.75 6.03125.04188-.0053.0832.00596.125 0h6.03125c2.547293 2.3331893 4.977456 4.8760097 7.71875 7.15625a.98188401.98188401 0 0 0 .125.09375c1.297402.75429153 2.663553.94413745 3.875.65625s2.2461-1.0181685 3.0625-1.9375c1.591477-1.7921312 2.432102-4.3554646 2.0625-6.71875-.0096-.061362.01126-.1264298 0-.1875-.01371-11.23942.01905-22.472232-.03125-33.71875a.98188401.98188401 0 0 0 0-.0625c-.09064-1.631226-.649351-3.314822-1.6875-4.6875s-2.629815-2.418492-4.5625-2.4375a.98188401.98188401 0 0 0 -.125 0zm42.6875 9.84375c3.694552 9.777134 3.636972 20.958618-.25 30.65625 3.76134-9.736413 3.883595-20.844053.25-30.65625zm-14.46875 3.8125c2.58633 5.829455 2.942315 12.532984 1.25 18.6875-.365119 1.327844-.788255 2.648015-1.34375 3.90625.525989-1.274029 1.005917-2.572363 1.34375-3.90625 1.558977-6.155412 1.116936-12.802748-1.25-18.6875zm14.125 27.0625c-.423124 1.0375288-.925161 2.0326736-1.4375 3.03125.491393-1.0052899 1.028736-1.9906386 1.4375-3.03125z" opacity=".08"/><path d="m72.0625-64.84375c-1.840801.341627-2.703067 2.397431-4.09375 3.5-1.210737 1.551573-3.138982 2.682186-3.84375 4.53125-.110061 2.260943 2.657606 3.278181 3.59375 5.125 11.305652 13.795732 12.387124 34.823514 2.53125 49.6875-1.709814 2.89469085-4.193685 5.255076-6.28125 7.8125-.739785 2.0995981 1.8595 3.2059646 2.90625 4.625 1.562836 1.37772 2.804083 3.17755 4.5625 4.28125 2.440845.518317 3.557855-2.604239 5.15625-3.875 12.957566-14.7454341 16.962826-36.622945 9.9375-54.96875-2.894575-7.682456-7.453545-14.86509-13.4375-20.46875-.319943-.177023-.671821-.232153-1.03125-.25zm-10.1875 10.1875c-1.848561.456083-2.789462 2.469579-4.25 3.59375-1.238073 1.496861-3.138683 2.599713-3.9375 4.375-.204308 2.515691 2.971632 3.766158 3.78125 6 7.168043 10.58958 5.809079 25.803432-2.96875 35.0625-1.434761.9744334-1.179975 3.0554571.25 3.90625 2.122273 1.99522061 4.022786 4.2759821 6.28125 6.09375 2.273626.7681477 3.429699-2.1157148 4.78125-3.375 10.481049-12.818531 12.023111-31.969291 3.90625-46.375-1.923042-3.264263-4.013236-6.661771-6.9375-9.09375-.275872-.157412-.604778-.147312-.90625-.1875zm-31.21875 5.6875c-3.001858.338819-4.712753 3.259871-6.96875 4.96875-1.203186.951343-2.225794 2.343046-3.53125 3.03125-3.422325.180722-6.96213-.444881-10.28125.5-3.3270971 1.273178-4.1365537 5.013582-3.84375 8.1875.077082 5.999634-.1580915 12.012849.125 18 .568362 3.644909 4.326415 5.711478 7.78125 5.21875h6.53125c2.682327 2.4327539 5.187752 5.0617331 7.96875 7.375 4.43749 2.57989547 8.283801-3.0759015 7.53125-7.15625-.01432-11.304734.01931-22.602066-.03125-33.90625-.159153-2.864265-2.094385-6.187407-5.28125-6.21875zm20.84375 4.625c-1.94159.611646-2.99945 2.698876-4.5625 3.9375-1.170895 1.493077-3.198532 2.475322-3.6875 4.375.417505 2.540278 3.055503 4.291797 3.3125 7.03125 1.431892 4.909341-.08683 10.268057-3.25 14.15625-.716806 2.118751 1.818864 3.194651 2.875 4.625 1.608991 1.411899 2.901393 3.2877036 4.6875 4.4375 2.243515.6609388 3.26154-2.228036 4.40625-3.5625 7.007917-10.37643 6.000023-25.381045-2.46875-34.625-.396291-.251359-.840166-.400409-1.3125-.375z" opacity=".1"/><path d="m72.0625-63.75a.90418672.90418672 0 0 0 -.5625.28125l-6.09375 6.375a.90418672.90418672 0 0 0 .03125 1.25c7.851812 7.851812 12.625 18.790108 12.625 30.78125 0 12.129735-4.892868 23.1268405-12.90625 31a.90418672.90418672 0 0 0 0 1.28125l6.25 6.25a.90418672.90418672 0 0 0 1.25.03125c9.97928-9.8342398 16.250004-23.4516801 16.25-38.5625 0-15.039597-6.229156-28.613833-16.125-38.4375a.90418672.90418672 0 0 0 -.71875-.25zm-10.1875 10.1875a.90418672.90418672 0 0 0 -.53125.28125l-6.375 6.375a.90418672.90418672 0 0 0 -.03125 1.25c5.066374 5.403418 8.21875 12.585588 8.21875 20.5625 0 8.041398-3.204957 15.3019005-8.34375 20.71875a.90418672.90418672 0 0 0 .03125 1.25l6.3125 6.3125a.90418672.90418672 0 0 0 1.28125 0c7.055031-7.3471949 11.40625-17.298108 11.40625-28.28125 0-10.905422-4.250445-20.847416-11.21875-28.1875a.90418672.90418672 0 0 0 -.75-.28125zm-31.21875 5.65625c-.345799-.00005-.63266.114392-.84375.1875a.90418672.90418672 0 0 0 -.03125 0c-.374293.14485-.862389.361504-1.28125.75l-7.71875 7.0625h-8.46875c-2.8961717 0-5.21875 2.352552-5.21875 5.3125v19.03125c0 2.959948 2.29149 5.4375 5.21875 5.4375h8.59375l7.59375 7.125a.90418672.90418672 0 0 0 .03125.03125c.633998.5503992 1.401951.8755416 2.1875.875s1.55368-.3273091 2.1875-.875c1.277406-1.1038292 2.007406-2.9671776 2-4.9375v-7.71875-18.71875-7.6875c.01644-1.685759-.519108-3.294435-1.46875-4.4375-.727902-.876162-1.724029-1.437339-2.78125-1.4375zm20.875 4.65625a.90418672.90418672 0 0 0 -.5.28125l-6.4375 6.4375a.90418672.90418672 0 0 0 -.09375 1.1875c2.255224 2.856487 3.65625 6.380189 3.65625 10.28125 0 3.968978-1.407864 7.569291-3.71875 10.4375a.90418672.90418672 0 0 0 .0625 1.1875l6.375 6.40625a.90418672.90418672 0 0 0 1.34375-.03125c4.150467-4.833657 6.65625-11.142414 6.65625-18 0-6.791934-2.453892-13.059778-6.53125-17.875a.90418672.90418672 0 0 0 -.8125-.3125z" opacity=".15"/><path d="m72.15625-62.84375-6.09375 6.375c8.018391 8.018391 12.90625 19.174259 12.90625 31.40625 0 12.373534-5.004989 23.616921-13.1875 31.65625l6.25 6.25c9.817146-9.674462 15.968754-23.044921 15.96875-37.90625 0-14.790666-6.108625-28.11713-15.84375-37.78125zm-10.1875 10.1875-6.375 6.375c5.212154 5.558897 8.46875 12.971677 8.46875 21.1875 0 8.28201-3.306201 15.770095-8.59375 21.34375l6.3125 6.3125c6.901422-7.187225 11.15625-16.911791 11.15625-27.65625 0-10.670756-4.154538-20.38473-10.96875-27.5625zm-31.3125 5.65625c-.242952-.000035-.321146.04141-.5625.125-.314988.121899-.692367.306153-.96875.5625l-8 7.3125h-8.8125c-2.4234418 0-4.3125 1.900738-4.3125 4.40625v19.03125c0 2.505512 1.8890586 4.53125 4.3125 4.53125h8.9375l7.875 7.375c.999696.867876 2.186633.86486 3.1875 0 1.000869-.864869 1.693988-2.523874 1.6875-4.25v-7.71875-18.71875-7.6875c.01442-1.479075-.47854-2.946409-1.25-3.875-.578596-.696445-1.364889-1.093639-2.09375-1.09375zm21 4.65625-6.4375 6.4375c2.367766 2.999033 3.84375 6.726611 3.84375 10.84375 0 4.181551-1.47476 7.982101-3.90625 11l6.375 6.40625c4.014675-4.675512 6.4375-10.768671 6.4375-17.40625 0-6.574734-2.369266-12.624424-6.3125-17.28125z" opacity=".3"/><path d="m72.15625 10.15625-6.09375 6.375c8.018391 8.018391 12.90625 19.174259 12.90625 31.40625 0 12.373534-5.004989 23.616921-13.1875 31.65625l6.25 6.25c9.817146-9.674462 15.968754-23.044921 15.96875-37.90625 0-14.790666-6.108625-28.11713-15.84375-37.78125zm-10.1875 10.1875-6.375 6.375c5.212154 5.558897 8.46875 12.971677 8.46875 21.1875 0 8.28201-3.306201 15.770095-8.59375 21.34375l6.3125 6.3125c6.901422-7.187225 11.15625-16.911791 11.15625-27.65625 0-10.670756-4.154538-20.38473-10.96875-27.5625zm-31.3125 5.65625c-.242952-.000035-.321146.04141-.5625.125-.314988.121899-.692367.306153-.96875.5625l-8 7.3125h-8.8125c-2.4234418 0-4.3125 1.900738-4.3125 4.40625v19.03125c0 2.505512 1.8890586 4.53125 4.3125 4.53125h8.9375l7.875 7.375c.999696.867876 2.186633.86486 3.1875 0 1.000869-.864869 1.693988-2.523874 1.6875-4.25v-7.71875-18.71875-7.6875c.01442-1.479075-.47854-2.946409-1.25-3.875-.578596-.696445-1.364889-1.093639-2.09375-1.09375zm21 4.65625-6.4375 6.4375c2.367766 2.999033 3.84375 6.726611 3.84375 10.84375 0 4.181551-1.47476 7.982101-3.90625 11l6.375 6.40625c4.014675-4.675512 6.4375-10.768671 6.4375-17.40625 0-6.574734-2.369266-12.624424-6.3125-17.28125z" fill="url(#a)" transform="translate(0 -74)"/><path d="m72.15625-63.84375-6.09375 6.375c.328845.328845.650557.660743.96875 1l5.125-5.375c9.513829 9.444438 15.542348 22.392965 15.8125 36.78125.0062-.332497.03125-.665972.03125-1 0-14.790666-6.108625-28.11713-15.84375-37.78125zm-10.1875 10.1875-6.375 6.375c.320528.341851.663316.675621.96875 1.03125l5.40625-5.40625c6.601268 6.953465 10.68737 16.284629 10.9375 26.5625.0083-.333726.03125-.664236.03125-1 0-10.670756-4.154538-20.38473-10.96875-27.5625zm-31.3125 5.65625c-.242952-.000035-.321146.04141-.5625.125-.314988.121899-.692367.306153-.96875.5625l-8 7.3125h-8.8125c-2.423442 0-4.3125 1.900738-4.3125 4.40625v2c0-2.505512 1.889058-4.40625 4.3125-4.40625h8.8125l8-7.3125c.276383-.256347.653762-.440601.96875-.5625.241354-.08359.319548-.125035.5625-.125.728861.000111 1.515154.397305 2.09375 1.09375.77146.928591 1.26442 2.395925 1.25 3.875v-2c.01442-1.479075-.47854-2.946409-1.25-3.875-.578596-.696445-1.364889-1.093639-2.09375-1.09375zm21 4.65625-6.4375 6.4375c.295971.374879.576788.759266.84375 1.15625l5.59375-5.59375c3.696782 4.365774 6.006514 9.963394 6.28125 16.0625.0074-.257663.03125-.521872.03125-.78125 0-6.574734-2.369266-12.624424-6.3125-17.28125zm12.375 18.25c-.256815 7.879925-3.490817 14.997641-8.5625 20.34375l.96875.9375c4.720036-5.445545 7.625-12.516866 7.625-20.28125 0-.335414-.02048-.667335-.03125-1zm-15 .03125c-.213967 3.788715-1.637961 7.223449-3.875 10l.875.875c1.919726-2.810503 3.03125-6.20716 3.03125-9.875 0-.335962-.01191-.66941-.03125-1zm29.90625 0c-.261958 11.978157-5.194913 22.834225-13.15625 30.65625l1 1c7.590914-7.957794 12.1875-18.792911 12.1875-30.65625 0-.335158-.02395-.6665-.03125-1z" fill="#fff" opacity=".6"/></g></svg>