<svg height="16" width="16" xmlns="http://www.w3.org/2000/svg"><g fill="#bebebe" transform="translate(0 -6)"><path d="m12.492308 6-1.353846 1.3504587c1.776382 1.6948966 2.861538 4.0493113 2.861538 6.6348623 0 2.61547-1.110336 4.994256-2.923077 6.693578l1.384615 1.321101c2.174876-2.044951 3.538463-4.873349 3.538462-8.014679 0-3.126394-1.350988-5.9425566-3.507692-7.985321z" opacity=".45"/><path d="m10.375 7.9963302-1.4375 1.3504588c1.267 1.190283 2.0625 2.823516 2.0625 4.638532 0 1.829639-.808718 3.475407-2.09375 4.66789l1.40625 1.350459c1.657229-1.53378 2.6875-3.661878 2.6875-6.018349 0-2.333593-.996-4.4586274-2.625-5.9889908z" opacity=".45"/><path d="m5.25 18.991298c-.054405.000008-.070953-.01227-.125-.03125-.070536-.02768-.156859-.06679-.21875-.125l-1.96875-1.835048h-1.96875c-.5426875 0-.96875-.431061-.96875-1v-3.96875c0-.568939.42616521-1.020697.96875-1.03125h2l1.9375-1.852452c.2238644-.197073.4946233-.196388.71875 0 .224127.19639.3764529.57679.375.96875v1.75 4.25 1.75c.00323.335861-.1084949.66414-.28125.875-.1295665.158145-.3055343.249975-.46875.25z"/><path d="m8.25 9.9926606-1.4375 1.3504594c.724.68016 1.1875 1.605049 1.1875 2.642201 0 1.052352-.475969 1.989177-1.21875 2.671559l1.4375 1.35046c1.104347-1.022467 1.78125-2.45142 1.78125-4.022019 0-1.555728-.664-2.972419-1.75-3.9926604z"/></g></svg>