<svg height="96" width="96" xmlns="http://www.w3.org/2000/svg" xmlns:xlink="http://www.w3.org/1999/xlink"><linearGradient id="a" gradientUnits="userSpaceOnUse" x1="25.25712911632" x2="25.25712911632" y1="-3.92588849032" y2="-47.75518138536"><stop offset="0" stop-color="#aaa"/><stop offset="1" stop-color="#f0f0f0"/></linearGradient><g transform="translate(0 74)"><path d="m30.53125-49.9375c-1.792735.202346-3.164968 1.175643-4.3125 2.21875s-2.116404 2.173506-3.125 2.9375c-1.309293 1.03524-2.305983 2.277941-3.28125 2.84375-3.19673.125083-6.711997-.467046-10.21875.53125a.98188401.98188401 0 0 0 -.0625.03125c-1.938453.741787-3.1866088 2.253002-3.84375 3.9375-.6454065 1.654418-.7693726 3.476683-.625 5.15625.0003985.03101-.0003817.06273 0 .09375.07303 5.935151-.1592821 11.925169.125 17.9375a.98188401.98188401 0 0 0 0 .125c.6541371 4.1949853 4.851407 6.524928 8.75 6.03125.04188-.0053.0832.00596.125 0h6.03125c2.547293 2.3331893 4.977456 4.8760097 7.71875 7.15625a.98188401.98188401 0 0 0 .125.09375c1.297402.75429153 2.663553.94413745 3.875.65625s2.2461-1.0181685 3.0625-1.9375c1.591477-1.7921312 2.432102-4.3554646 2.0625-6.71875-.0096-.061362.01126-.1264298 0-.1875-.01371-11.23942.01905-22.472232-.03125-33.71875a.98188401.98188401 0 0 0 0-.0625c-.09064-1.631226-.649351-3.314822-1.6875-4.6875s-2.629815-2.418492-4.5625-2.4375a.98188401.98188401 0 0 0 -.125 0z" opacity=".08"/><path d="m73.21875-40.09375c3.694552 9.777134 3.636972 20.958618-.25 30.65625 3.76134-9.736413 3.883595-20.844053.25-30.65625z" opacity=".08"/><path d="m58.75-36.28125c2.58633 5.829455 2.942315 12.532984 1.25 18.6875-.365119 1.327844-.788255 2.648015-1.34375 3.90625.525989-1.274029 1.005917-2.572363 1.34375-3.90625 1.558977-6.155412 1.116936-12.802748-1.25-18.6875z" opacity=".08"/><path d="m72.875-9.21875c-.423124 1.0375288-.925161 2.0326736-1.4375 3.03125.491393-1.0052899 1.028736-1.9906386 1.4375-3.03125z" opacity=".08"/><path d="m30.65625-48.96875c-3.001858.338819-4.712753 3.259871-6.96875 4.96875-1.203186.951343-2.225794 2.343046-3.53125 3.03125-3.422325.180722-6.96213-.444881-10.28125.5-3.3270971 1.273178-4.1365537 5.013582-3.84375 8.1875.077082 5.999634-.1580915 12.012849.125 18 .568362 3.644909 4.326415 5.711478 7.78125 5.21875h6.53125c2.682327 2.4327539 5.187752 5.0617331 7.96875 7.375 4.43749 2.57989547 8.283801-3.0759015 7.53125-7.15625-.01432-11.304734.01931-22.602066-.03125-33.90625-.159153-2.864265-2.094385-6.187407-5.28125-6.21875z" opacity=".1"/><path d="m30.65625-47.90625c-.345799-.00005-.63266.114392-.84375.1875a.90418672.90418672 0 0 0 -.03125 0c-.374293.14485-.862389.361504-1.28125.75l-7.71875 7.0625h-8.46875c-2.8961717 0-5.21875 2.352552-5.21875 5.3125v19.03125c0 2.959948 2.29149 5.4375 5.21875 5.4375h8.59375l7.59375 7.125a.90418672.90418672 0 0 0 .03125.03125c.633998.5503992 1.401951.8755416 2.1875.875s1.55368-.3273091 2.1875-.875c1.277406-1.1038292 2.007406-2.9671776 2-4.9375v-7.71875-18.71875-7.6875c.01644-1.685759-.519108-3.294435-1.46875-4.4375-.727902-.876162-1.724029-1.437339-2.78125-1.4375z" opacity=".15"/><path d="m30.65625-47c-.242952-.000035-.321146.04141-.5625.125-.314988.121899-.692367.306153-.96875.5625l-8 7.3125h-8.8125c-2.4234418 0-4.3125 1.900738-4.3125 4.40625v19.03125c0 2.505512 1.8890586 4.53125 4.3125 4.53125h8.9375l7.875 7.375c.999696.867876 2.186633.86486 3.1875 0 1.000869-.864869 1.693988-2.523874 1.6875-4.25v-7.71875-18.71875-7.6875c.01442-1.479075-.47854-2.946409-1.25-3.875-.578596-.696445-1.364889-1.093639-2.09375-1.09375z" opacity=".3"/><path d="m72.15625-63.84375-6.09375 6.375c8.018391 8.018391 12.90625 19.174259 12.90625 31.40625 0 12.373534-5.004989 23.616921-13.1875 31.65625l6.25 6.25c9.817146-9.674462 15.968754-23.044921 15.96875-37.90625 0-14.790666-6.108625-28.11713-15.84375-37.78125z" fill="#fff" opacity=".3"/><path d="m61.96875-53.65625-6.375 6.375c5.212154 5.558897 8.46875 12.971677 8.46875 21.1875 0 8.28201-3.306201 15.770095-8.59375 21.34375l6.3125 6.3125c6.901422-7.187225 11.15625-16.911791 11.15625-27.65625 0-10.670756-4.154538-20.38473-10.96875-27.5625z" fill="#fff" opacity=".3"/><path d="m30.65625-48c-.242952-.000035-.321146.04141-.5625.125-.314988.121899-.692367.306153-.96875.5625l-8 7.3125h-8.8125c-2.4234418 0-4.3125 1.900738-4.3125 4.40625v19.03125c0 2.505512 1.8890586 4.53125 4.3125 4.53125h8.9375l7.875 7.375c.999696.867876 2.186633.86486 3.1875 0 1.000869-.864869 1.693988-2.523874 1.6875-4.25v-7.71875-18.71875-7.6875c.01442-1.479075-.47854-2.946409-1.25-3.875-.578596-.696445-1.364889-1.093639-2.09375-1.09375z" fill="url(#a)"/><g fill="#fff"><path d="m51.65625-43.34375-6.4375 6.4375c2.367766 2.999033 3.84375 6.726611 3.84375 10.84375 0 4.181551-1.47476 7.982101-3.90625 11l6.375 6.40625c4.014675-4.675512 6.4375-10.768671 6.4375-17.40625 0-6.574734-2.369266-12.624424-6.3125-17.28125z" opacity=".3"/><path d="m30.65625 26c-.242952-.000035-.321146.04141-.5625.125-.314988.121899-.692367.306153-.96875.5625l-8 7.3125h-8.8125c-2.423442 0-4.3125 1.900738-4.3125 4.40625v2c0-2.505512 1.889058-4.40625 4.3125-4.40625h8.8125l8-7.3125c.276383-.256347.653762-.440601.96875-.5625.241354-.08359.319548-.125035.5625-.125.728861.000111 1.515154.397305 2.09375 1.09375.77146.928591 1.26442 2.395925 1.25 3.875v-2c.01442-1.479075-.47854-2.946409-1.25-3.875-.578596-.696445-1.364889-1.093639-2.09375-1.09375z" opacity=".6" transform="translate(0 -74)"/></g></g></svg>