<svg height="96" width="96" xmlns="http://www.w3.org/2000/svg" xmlns:xlink="http://www.w3.org/1999/xlink"><linearGradient id="a" gradientUnits="userSpaceOnUse" x1="47.91567111195" x2="47.91567111195" y1="75.82089363887" y2="20.63456974629"><stop offset="0" stop-color="#aaa"/><stop offset="1" stop-color="#f0f0f0"/></linearGradient><g transform="translate(0 74)"><path d="m61.8125 18.28125a1.0588514 1.0588514 0 0 0 -.1875.03125c-1.235518.304831-2.117289 1.092778-2.8125 1.84375s-1.268511 1.494741-1.84375 1.9375a1.0588514 1.0588514 0 0 0 -.15625.15625c-1.061684 1.283603-3.104396 2.426264-4.09375 4.625a1.0588514 1.0588514 0 0 0 -.09375.34375c-.05606.690286.167444 1.260156.40625 1.8125-.479073-.245731-.993522-.469789-1.59375-.4375a1.0588514 1.0588514 0 0 0 -.25.0625c-1.247425.392968-2.131287 1.202779-2.875 2s-1.385485 1.58202-2.03125 2.09375a1.0588514 1.0588514 0 0 0 -.1875.1875c-.471889.601733-1.204198 1.189576-1.96875 1.90625s-1.584684 1.625691-1.90625 2.875a1.0588514 1.0588514 0 0 0 0 .40625c.260311 1.583841 1.140316 2.790627 1.875 3.875s1.307257 2.038539 1.40625 3.09375a1.0588514 1.0588514 0 0 0 .03125.1875c1.317561 4.517348-.063911 9.571274-3.03125 13.21875a1.0588514 1.0588514 0 0 0 -.1875.3125c-.248645.734952-.226918 1.502073 0 2.125s.607435 1.117628 1 1.53125c.78513.827244 1.668337 1.445998 2.03125 1.9375a1.0588514 1.0588514 0 0 0 .15625.15625c1.47082 1.290653 2.78117 3.223593 4.8125 4.53125a1.0588514 1.0588514 0 0 0 .25.125c.771273.227217 1.556737.159312 2.1875-.125-.162739.449967-.288715.915806-.25 1.375.08544 1.013412.661845 1.945473 1.5625 2.5625l-.03125.03125c2.058729 1.935481 3.974312 4.217913 6.34375 6.125a1.0588514 1.0588514 0 0 0 .3125.1875c.784503.265045 1.593389.234795 2.25-.03125s1.164549-.703805 1.59375-1.15625c.858402-.904889 1.508988-1.948758 2-2.40625a1.0588514 1.0588514 0 0 0 .09375-.125c10.775931-13.179177 12.373254-32.75721 4.03125-47.5625a1.0588514 1.0588514 0 0 0 -.03125 0c-1.930265-3.276524-4.049968-6.791645-7.15625-9.375a1.0588514 1.0588514 0 0 0 -.15625-.09375c-.607423-.346594-1.134035-.31996-1.3125-.34375a1.0588514 1.0588514 0 0 0 -.1875 0zm-1.25 26.15625c.125709.806277.319982 1.591188.375 2.40625-.05673-.809406-.254489-1.604128-.375-2.40625zm.375 2.59375c.08852 1.453923.07063 2.922704-.0625 4.375.115644-1.459917.155969-2.913448.0625-4.375z" opacity=".08" transform="translate(0 -74)"/><path d="m30.53125-49.9375c-1.792735.202346-3.164968 1.175643-4.3125 2.21875s-2.116404 2.173506-3.125 2.9375c-1.309293 1.03524-2.305983 2.277941-3.28125 2.84375-3.19673.125083-6.711997-.467046-10.21875.53125a.98188401.98188401 0 0 0 -.0625.03125c-1.938453.741787-3.1866088 2.253002-3.84375 3.9375-.6454065 1.654418-.7693726 3.476683-.625 5.15625.0003985.03101-.0003817.06273 0 .09375.07303 5.935151-.1592821 11.925169.125 17.9375a.98188401.98188401 0 0 0 0 .125c.6541371 4.1949853 4.851407 6.524928 8.75 6.03125.04188-.0053.0832.00596.125 0h6.03125c2.547293 2.3331893 4.977456 4.8760097 7.71875 7.15625a.98188401.98188401 0 0 0 .125.09375c1.297402.75429153 2.663553.94413745 3.875.65625s2.2461-1.0181685 3.0625-1.9375c1.591477-1.7921312 2.432102-4.3554646 2.0625-6.71875-.0096-.061362.01126-.1264298 0-.1875-.01371-11.23942.01905-22.472232-.03125-33.71875a.98188401.98188401 0 0 0 0-.0625c-.09064-1.631226-.649351-3.314822-1.6875-4.6875s-2.629815-2.418492-4.5625-2.4375a.98188401.98188401 0 0 0 -.125 0z" opacity=".08"/><path d="m73.21875-40.09375c3.694552 9.777134 3.636972 20.958618-.25 30.65625 3.76134-9.736413 3.883595-20.844053.25-30.65625z" opacity=".08"/><path d="m58.75-36.28125c2.58633 5.829455 2.942315 12.532984 1.25 18.6875-.365119 1.327844-.788255 2.648015-1.34375 3.90625.525989-1.274029 1.005917-2.572363 1.34375-3.90625 1.558977-6.155412 1.116936-12.802748-1.25-18.6875z" opacity=".08"/><path d="m72.875-9.21875c-.423124 1.0375288-.925161 2.0326736-1.4375 3.03125.491393-1.0052899 1.028736-1.9906386 1.4375-3.03125z" opacity=".08"/><path d="m61.875 19.34375c-1.848561.456083-2.789462 2.469579-4.25 3.59375-1.238073 1.496861-3.138683 2.599713-3.9375 4.375-.204308 2.515691 2.971632 3.766158 3.78125 6 7.168043 10.58958 5.809079 25.803432-2.96875 35.0625-1.434761.974433-1.179975 3.055457.25 3.90625 2.122273 1.995221 4.022786 4.275982 6.28125 6.09375 2.273626.768148 3.429699-2.115715 4.78125-3.375 10.481049-12.818531 12.023111-31.969291 3.90625-46.375-1.923042-3.264263-4.013236-6.661771-6.9375-9.09375-.275872-.157412-.604778-.147312-.90625-.1875zm-10.375 10.3125c-1.94159.611646-2.99945 2.698876-4.5625 3.9375-1.170895 1.493077-3.198532 2.475322-3.6875 4.375.417505 2.540278 3.055503 4.291797 3.3125 7.03125 1.431892 4.909341-.08683 10.268057-3.25 14.15625-.716806 2.118751 1.818864 3.194651 2.875 4.625 1.608991 1.411899 2.901393 3.287704 4.6875 4.4375 2.243515.660939 3.26154-2.228036 4.40625-3.5625 7.007917-10.37643 6.000023-25.381045-2.46875-34.625-.396291-.251359-.840166-.400409-1.3125-.375z" opacity=".1" transform="translate(0 -74)"/><path d="m30.65625-48.96875c-3.001858.338819-4.712753 3.259871-6.96875 4.96875-1.203186.951343-2.225794 2.343046-3.53125 3.03125-3.422325.180722-6.96213-.444881-10.28125.5-3.3270971 1.273178-4.1365537 5.013582-3.84375 8.1875.077082 5.999634-.1580915 12.012849.125 18 .568362 3.644909 4.326415 5.711478 7.78125 5.21875h6.53125c2.682327 2.4327539 5.187752 5.0617331 7.96875 7.375 4.43749 2.57989547 8.283801-3.0759015 7.53125-7.15625-.01432-11.304734.01931-22.602066-.03125-33.90625-.159153-2.864265-2.094385-6.187407-5.28125-6.21875z" opacity=".1"/><path d="m61.875-53.5625a.90418672.90418672 0 0 0 -.53125.28125l-6.375 6.375a.90418672.90418672 0 0 0 -.03125 1.25c5.066374 5.403418 8.21875 12.585588 8.21875 20.5625 0 8.041398-3.204957 15.3019005-8.34375 20.71875a.90418672.90418672 0 0 0 .03125 1.25l6.3125 6.3125a.90418672.90418672 0 0 0 1.28125 0c7.055031-7.3471949 11.40625-17.298108 11.40625-28.28125 0-10.905422-4.250445-20.847416-11.21875-28.1875a.90418672.90418672 0 0 0 -.75-.28125z" opacity=".15"/><path d="m30.65625-47.90625c-.345799-.00005-.63266.114392-.84375.1875a.90418672.90418672 0 0 0 -.03125 0c-.374293.14485-.862389.361504-1.28125.75l-7.71875 7.0625h-8.46875c-2.8961717 0-5.21875 2.352552-5.21875 5.3125v19.03125c0 2.959948 2.29149 5.4375 5.21875 5.4375h8.59375l7.59375 7.125a.90418672.90418672 0 0 0 .03125.03125c.633998.5503992 1.401951.8755416 2.1875.875s1.55368-.3273091 2.1875-.875c1.277406-1.1038292 2.007406-2.9671776 2-4.9375v-7.71875-18.71875-7.6875c.01644-1.685759-.519108-3.294435-1.46875-4.4375-.727902-.876162-1.724029-1.437339-2.78125-1.4375z" opacity=".15"/><path d="m51.53125-43.25a.90418672.90418672 0 0 0 -.5.28125l-6.4375 6.4375a.90418672.90418672 0 0 0 -.09375 1.1875c2.255224 2.856487 3.65625 6.380189 3.65625 10.28125 0 3.968978-1.407864 7.569291-3.71875 10.4375a.90418672.90418672 0 0 0 .0625 1.1875l6.375 6.40625a.90418672.90418672 0 0 0 1.34375-.03125c4.150467-4.833657 6.65625-11.142414 6.65625-18 0-6.791934-2.453892-13.059778-6.53125-17.875a.90418672.90418672 0 0 0 -.8125-.3125z" opacity=".15"/><path d="m61.96875-52.65625-6.375 6.375c5.212154 5.558897 8.46875 12.971677 8.46875 21.1875 0 8.28201-3.306201 15.770095-8.59375 21.34375l6.3125 6.3125c6.901422-7.187225 11.15625-16.911791 11.15625-27.65625 0-10.670756-4.154538-20.38473-10.96875-27.5625zm-31.3125 5.65625c-.242952-.000035-.321146.04141-.5625.125-.314988.121899-.692367.306153-.96875.5625l-8 7.3125h-8.8125c-2.4234418 0-4.3125 1.900738-4.3125 4.40625v19.03125c0 2.505512 1.8890586 4.53125 4.3125 4.53125h8.9375l7.875 7.375c.999696.867876 2.186633.86486 3.1875 0 1.000869-.864869 1.693988-2.523874 1.6875-4.25v-7.71875-18.71875-7.6875c.01442-1.479075-.47854-2.946409-1.25-3.875-.578596-.696445-1.364889-1.093639-2.09375-1.09375zm21 4.65625-6.4375 6.4375c2.367766 2.999033 3.84375 6.726611 3.84375 10.84375 0 4.181551-1.47476 7.982101-3.90625 11l6.375 6.40625c4.014675-4.675512 6.4375-10.768671 6.4375-17.40625 0-6.574734-2.369266-12.624424-6.3125-17.28125z" opacity=".3"/><path d="m72.15625-63.84375-6.09375 6.375c8.018391 8.018391 12.90625 19.174259 12.90625 31.40625 0 12.373534-5.004989 23.616921-13.1875 31.65625l6.25 6.25c9.817146-9.674462 15.968754-23.044921 15.96875-37.90625 0-14.790666-6.108625-28.11713-15.84375-37.78125z" fill="#fff" opacity=".3"/><g transform="translate(0 -74)"><path d="m61.96875 20.34375-6.375 6.375c5.212154 5.558897 8.46875 12.971677 8.46875 21.1875 0 8.28201-3.306201 15.770095-8.59375 21.34375l6.3125 6.3125c6.901422-7.187225 11.15625-16.911791 11.15625-27.65625 0-10.670756-4.154538-20.38473-10.96875-27.5625zm-31.3125 5.65625c-.242952-.000035-.321146.04141-.5625.125-.314988.121899-.692367.306153-.96875.5625l-8 7.3125h-8.8125c-2.4234418 0-4.3125 1.900738-4.3125 4.40625v19.03125c0 2.505512 1.8890586 4.53125 4.3125 4.53125h8.9375l7.875 7.375c.999696.867876 2.186633.86486 3.1875 0 1.000869-.864869 1.693988-2.523874 1.6875-4.25v-7.71875-18.71875-7.6875c.01442-1.479075-.47854-2.946409-1.25-3.875-.578596-.696445-1.364889-1.093639-2.09375-1.09375zm21 4.65625-6.4375 6.4375c2.367766 2.999033 3.84375 6.726611 3.84375 10.84375 0 4.181551-1.47476 7.982101-3.90625 11l6.375 6.40625c4.014675-4.675512 6.4375-10.768671 6.4375-17.40625 0-6.574734-2.369266-12.624424-6.3125-17.28125z" fill="url(#a)"/><path d="m61.96875 20.34375-6.375 6.375c.320528.341851.663316.675621.96875 1.03125l5.40625-5.40625c6.601268 6.953465 10.68737 16.284629 10.9375 26.5625.0083-.333726.03125-.664236.03125-1 0-10.670756-4.154538-20.38473-10.96875-27.5625zm-31.3125 5.65625c-.242952-.000035-.321146.04141-.5625.125-.314988.121899-.692367.306153-.96875.5625l-8 7.3125h-8.8125c-2.423442 0-4.3125 1.900738-4.3125 4.40625v2c0-2.505512 1.889058-4.40625 4.3125-4.40625h8.8125l8-7.3125c.276383-.256347.653762-.440601.96875-.5625.241354-.08359.319548-.125035.5625-.125.728861.000111 1.515154.397305 2.09375 1.09375.77146.928591 1.26442 2.395925 1.25 3.875v-2c.01442-1.479075-.47854-2.946409-1.25-3.875-.578596-.696445-1.364889-1.093639-2.09375-1.09375zm21 4.65625-6.4375 6.4375c.295971.374879.576788.759266.84375 1.15625l5.59375-5.59375c3.696782 4.365774 6.006514 9.963394 6.28125 16.0625.0074-.257663.03125-.521872.03125-.78125 0-6.574734-2.369266-12.624424-6.3125-17.28125zm12.375 18.25c-.256815 7.879925-3.490817 14.997641-8.5625 20.34375l.96875.9375c4.720036-5.445545 7.625-12.516866 7.625-20.28125 0-.335414-.02048-.667335-.03125-1zm-15 .03125c-.213967 3.788715-1.637961 7.223449-3.875 10l.875.875c1.919726-2.810503 3.03125-6.20716 3.03125-9.875 0-.335962-.01191-.66941-.03125-1z" fill="#fff" opacity=".6"/></g></g></svg>