<svg height="16.016" width="16.01" xmlns="http://www.w3.org/2000/svg"><g fill="#bebebe" transform="translate(-221 -217)"><path d="m226 228.06v1.9375h3.0002v-2z"/><path d="m226.47 217c-.49033 0-.79607.22846-1.0312.46875-.24.24-.44.56-.44 1.03v.5h-1-1v1 12 1h1 7v-2h-6v-10h1 1v-1-1h4v1 1h1 1v3h2v-4-1h-1-1v-.375-.0312-.0312c-.0239-.4306-.17023-.72105-.40625-1-.22374-.26444-.6267-.52931-1.1562-.53125v-.0312h-.0625-4.9062z"/><path d="m233.88 225a1.0001 1.0001 0 0 0 -.59375.28125l-3 3a1.0001 1.0001 0 0 0 .71 1.72h2.5625l-1.2812 1.2812a1.0165 1.0165 0 1 0 1.4375 1.4375l3-3a1.0001 1.0001 0 0 0 -.72-1.72h-2.5625l1.2812-1.2812a1.0001 1.0001 0 0 0 -.84-1.72z"/><path d="m236 228h1v1h-1z"/><path d="m230 229h1v1h-1z"/><path d="m234 225h1v1h-1z"/><path d="m232 232h1v1h-1z"/><path d="m233.16 225.44-2 3 1.6875 1.125 2-3z"/><path d="m234.16 228.44-2 3 1.6875 1.125 2-3z"/></g></svg>