<svg height="16" width="16" xmlns="http://www.w3.org/2000/svg"><path d="m11-18h2v11h-2z" opacity=".3"/><path d="m8-15h2v8h-2z" opacity=".3"/><path d="m5-13h2v6h-2z" opacity=".3"/><path d="m2-11h2v4h-2z" opacity=".3"/><path d="m6 1c-.554 0-1 .446-1 1v2h2v-1h2v3h-1-1-2-1c-.554 0-1 .446-1 1v6c0 .554.446 1 1 1h8c.554 0 1-.446 1-1v-6c0-.554-.446-1-1-1h-1v-4c0-.554-.446-1-1-1z" fill="#bebebe"/><path d="m6.93464 2.988969h2.065361v3.011031h-2.065361z" fill="#fff" opacity="0" stroke="#fff" stroke-dashoffset="8.6" stroke-linecap="round"/></svg>