<svg height="16" width="16" xmlns="http://www.w3.org/2000/svg"><path d="m8.464261 3.999982c-4.4182777 0-7.9999997 2.91629-7.9999997 6.53125 0 2.302655 1.459222 4.333261 3.65625 5.5-.08355.608184-.480102 2.115864-2.28125 2.625 2.332827.253533 3.89629-.891527 4.71875-1.75.6117587.122546 1.2483267.1875 1.9062497.1875 4.418278 0 8-2.94754 8-6.5625s-3.581722-6.53125-8-6.53125zm-.21875 2c.432284.0000089.850501.05219 1.21875.15625.368241.1000754.669316.2413777.9375.4375.268173.1921362.472893.4385711.625.71875.152095.2801942.249994.5812697.25.9375-.000006.328225-.05219.646082-.15625.90625-.100072.260179-.26462.502611-.46875.71875-.204142.216149-.473049.409632-.78125.59375-.304207.180125-.654232.331892-1.0625.5l-.25 1.125h-.75l-.25-1.5c.352232-.140089.650847-.31187.875-.5.224146-.192123.403161-.408851.53125-.625.132084-.220141.233214-.447334.28125-.6875.04803-.240153.06249-.474581.0625-.71875-.000004-.1961236-.02648-.3711361-.0625-.53125-.03603-.1641019-.0762-.290165-.15625-.40625-.07605-.1200722-.188421-.2171993-.3125-.28125-.120084-.064034-.269392-.093742-.4375-.09375-.184126.0000081-.344671.040952-.46875.125-.124086.084064-.205201.1724144-.28125.3125-.07605.140101-.151478.311882-.1875.5-.03202.1881325-.03125.385618-.03125.59375-.25217.000007-.47536-.02647-.6874997-.0625-.2121408-.03601-.406397-.0882-.5625-.15625-.1521022-.072041-.2869419-.141921-.375-.25-.084057-.1080649-.1250005-.2308966-.125-.375-.0000005-.2001257.05218-.3903774.15625-.5625.1040687-.1761092.2878576-.3406562.5-.46875.2161428-.1280768.4842796-.2091933.8124997-.28125.328217-.076042.703946-.1249911 1.15625-.125zm-.0625 7.03125c.136087.000002.254917.03048.375.0625.124079.03202.251685.0802.34375.15625.09206.07605.135462.184416.1875.3125.05603.124084.09374.280626.09375.46875-.000004.184123-.03771.313418-.09375.4375-.05204.124083-.09544.23645-.1875.3125s-.219671.124229-.34375.15625c-.120083.03602-.238913.0625-.375.0625-.140097 0-.28217-.02647-.40625-.0625-.124085-.03202-.220441-.0802-.3125-.15625-.08806-.07605-.166717-.188417-.21875-.3125-.05204-.124082-.0625-.253377-.0625-.4375-.000002-.188124.01046-.344666.0625-.46875.05203-.128084.130689-.236448.21875-.3125.09206-.07605.188415-.124227.3125-.15625.12408-.03202.266153-.0625.40625-.0625z" fill="#bebebe" transform="translate(-.464261 -2.999982)"/></svg>