<svg height="16" width="16" xmlns="http://www.w3.org/2000/svg"><g transform="translate(0 -6)"><path d="m8 0-1 3h2zm-5.65625 2.34375 1.40625 2.8125 1.40625-1.40625zm11.3125 0-2.8125 1.40625 1.40625 1.40625zm-5.65625 1.65625c-2.209139 0-4 1.790861-4 4s1.790861 4 4 4 4-1.790861 4-4-1.790861-4-4-4zm0 1.5c1.3807119 0 2.5 1.1192881 2.5 2.5s-1.1192881 2.5-2.5 2.5-2.5-1.1192881-2.5-2.5 1.1192881-2.5 2.5-2.5zm-5 1.5-3 1 3 1zm10 0v2l3-1zm-9.25 3.84375-1.40625 2.8125 2.8125-1.40625zm8.5 0-1.40625 1.40625 2.8125 1.40625zm-5.25 2.15625 1 3 1-3z" fill="#bebebe" transform="translate(0 6)"/><path d="m8 30c-2.209139 0-4 1.790861-4 4s1.790861 4 4 4 4-1.790861 4-4-1.790861-4-4-4zm0 2c1.1045695 0 2 .89543 2 2 0 1.104569-.8954305 2-2 2s-2-.895431-2-2c0-1.10457.8954305-2 2-2z" opacity=".35"/><g fill="#808080"><path d="m6 29h4l-2-3z"/><path d="m11.330127 29.767949 2 3.464102 1.598077-3.232051z"/><path d="m13.330127 34.767949-2 3.464102 3.598076-.232051z"/><path d="m10 39h-4.0000002l2.0000001 3z"/><path d="m4.6698729 38.232051-2.0000001-3.464102-1.5980761 3.232051z"/><path d="m2.6698727 33.232051 2.0000003-3.464102-3.5980763.232051z"/></g></g></svg>