<svg height="16" width="16" xmlns="http://www.w3.org/2000/svg"><path d="m8.3023266.99999999c-.1970553.00296891-.3989437.07699161-.5348761.21881301l-5.2758243 5.2515112c-.1902299.184167-.2623203.47347-.1945004.729377.0678223.255905.2536231.443015.5105636.510563.2569436.067549.5444635-.005037.7293766-.1945l5.0570113-5.0326984h4.1331337v4.2303844l-6.5400767 6.5157638-2.6257557-2.625756 4.3033221-4.2790088h.9968143v1.045439l-2.7230059 2.7230058c-.1902315.184168-.2623219.449158-.1945004.705064.0678223.255906.2779365.443015.5348762.510564.256942.067548.5201494-.005036.705064-.1945l2.9418191-2.9418188c.142395-.135385.240144-.314303.243126-.510564v-2.066567c.003067-.198701-.077559-.394192-.218813-.534876-.141251-.1406834-.335372-.2218666-.534877-.2188128h-2.0422539c-.1970554.0029689-.398944.076991-.5348765.2188128l-5.057011 5.0326978c-.2872086.28611-.2878621.758681 0 1.04544l3.6711955 3.646883c.2879197.286701.758172.286053 1.0454398 0l7.2937661-7.2694528c.142395-.135385.240146-.314303.243125-.510564l-.024312-5.251511c-.000922-.2293944-.107732-.4451324-.291751-.5835013-.129331-.1037273-.271763-.1686214-.437626-.17018791z" fill="#bebebe"/></svg>