<svg height="16" width="16" xmlns="http://www.w3.org/2000/svg"><path d="m11 2v2h-1.03125c-3.5740274 0-4.1377224 2.5060606-6.25 4.3125-.5104229.4365184-.9879198.6875-1.75.6875h-.96875v2h.96875c1.2565102 0 2.2996473-.504704 3.0625-1.1875 1.7927728-1.6046313 2.5712417-3.8125 4.9375-3.8125h1.03125v2l4-3zm0 6v2h-1.03125c-1.1237797 0-1.8762367-.5239077-2.5625-1.21875-.3830661.4640984-.8197014.9505764-1.34375 1.46875.9018279.980124 1.9442358 1.75 3.90625 1.75h1.03125v2l4-3zm-10-3v2h.96875c.5138798 0 .8975677.1355749 1.25.34375.4809699-.4471515.8979042-.9659279 1.34375-1.5-.7039502-.4926705-1.5709507-.84375-2.59375-.84375z" fill="#bebebe"/></svg>