<svg height="16" width="16" xmlns="http://www.w3.org/2000/svg"><g fill="#bebebe"><rect height="12" rx="2.5" width="5" x="3"/><path d="m0 5h1v2h-1z"/><path d="m10 5h1v2h-1z"/><path d="m5 13h.999999v3h-.999999z"/><path d="m3 15h5v1h-5z"/><path d="m1 5v4.5c0 2.461522 2.0384777 4.5 4.5 4.5s4.5-2.038478 4.5-4.5v-4.5h-.96875v4.5c0 1.921914-1.6093354 3.53125-3.53125 3.53125s-3.53125-1.609336-3.53125-3.53125v-4.5z"/><rect height="3" rx=".5" width="4" x="12" y="13"/><rect height="3" rx=".5" width="4" x="12" y="9"/><rect height="3" opacity=".45" rx=".5" width="4" x="12" y="5"/></g></svg>