<svg height="16" width="16" xmlns="http://www.w3.org/2000/svg"><g transform="translate(0 -6)"><rect fill="#bebebe" height="12" rx="1" width="15.999998" x="-20" y="8"/><path d="m2 8c-.554 0-1 .446-1 1v10c0 .554.446 1 1 1h12c.554 0 1-.446 1-1v-10c0-.554-.446-1-1-1zm3.5 2h5c.277 0 .346348.269522.5.5v1.5h-4v1h3v2h-3v1h4v1.5c0 .277-.223.5-.5.5h-5c-.277 0-.5-.223-.5-.5v-7c0-.277.223-.5.5-.5z" fill="#bebebe"/><path d="m-15.5 10c-.277 0-.5.223-.5.5v7c0 .277.223.5.5.5h6c.277 0 .5-.223.5-.5v-1.5h-5v-1h3v-2h-3v-1h5v-1.5c0-.277-.223-.5-.5-.5z" fill="#f00"/></g></svg>