<svg height="96" width="96" xmlns="http://www.w3.org/2000/svg" xmlns:xlink="http://www.w3.org/1999/xlink"><linearGradient id="a"><stop offset="0" stop-color="#fff"/><stop offset="1" stop-color="#fff" stop-opacity="0"/></linearGradient><linearGradient id="b" gradientUnits="userSpaceOnUse" x1="36.357143" x2="36.357143" xlink:href="#a" y1="6" y2="63.893143"/><radialGradient id="c" cx="48" cy="90.171875" gradientTransform="matrix(1.1573129 0 0 .99590774 -7.551021 .197132)" gradientUnits="userSpaceOnUse" r="42" xlink:href="#a"/><linearGradient id="d"><stop offset="0" stop-color="#aaa"/><stop offset="1" stop-color="#f0f0f0"/></linearGradient><linearGradient id="e" gradientTransform="matrix(1.0058652 0 0 .994169 100 0)" gradientUnits="userSpaceOnUse" x1="45.447727" x2="45.447727" y1="92.539597" y2="7.01654"><stop offset="0"/><stop offset="1" stop-opacity=".588235"/></linearGradient><linearGradient id="f" gradientTransform="matrix(1.0238095 0 0 -1.0119048 -1.142857 98.071429)" gradientUnits="userSpaceOnUse" x1="32.251034" x2="32.251034" xlink:href="#e" y1="6.131708" y2="90.238609"/><linearGradient id="g" gradientTransform="matrix(1 0 0 -1 0 97)" gradientUnits="userSpaceOnUse" x1="32.251034" x2="32.251034" xlink:href="#e" y1="6.131708" y2="90.238609"/><linearGradient id="h" gradientUnits="userSpaceOnUse" x1="-76" x2="-20" xlink:href="#d" y1="-42" y2="-42"/><linearGradient id="i" gradientUnits="userSpaceOnUse" x1="32.0000000525" x2="32.0000000525" xlink:href="#d" y1="77.99999748665" y2="15.9919362874"/><g><g fill="url(#f)"><path d="m12 3.96875c-5.5110902 0-10.03125 4.5201598-10.03125 10.03125v71c0 5.51109 4.5201597 10.03125 10.03125 10.03125h72c5.51109 0 10.03125-4.52016 10.03125-10.03125v-71c0-5.5110903-4.52016-10.03125-10.03125-10.03125zm0 2.03125h72c3.324 0 6 2.676 6 6v72c0 3.324-2.676 6-6 6h-72c-3.324 0-6-2.676-6-6v-72c0-3.324 2.676-6 6-6z" opacity=".08"/><path d="m12 4.96875c-4.9716329 0-9.03125 4.0596171-9.03125 9.03125v71c0 4.971633 4.059617 9.03125 9.03125 9.03125h72c4.971633 0 9.03125-4.059617 9.03125-9.03125v-71c0-4.971633-4.059617-9.03125-9.03125-9.03125zm0 1.03125h72c3.324 0 6 2.676 6 6v72c0 3.324-2.676 6-6 6h-72c-3.324 0-6-2.676-6-6v-72c0-3.324 2.676-6 6-6z" opacity=".1"/><path d="m11.1875 6.03125c-4.027518.4106511-7.1875 3.8351875-7.1875 7.96875v71c0 4.409133 3.590867 8 8 8h72c4.409133 0 8-3.590867 8-8v-71c0-4.1970618-3.258972-7.6460416-7.375-7.96875 3.032886.306167 5.375 2.8525 5.375 5.96875v72c0 3.324-2.676 6-6 6h-72c-3.324 0-6-2.676-6-6v-72c0-3.11625 2.342114-5.662583 5.375-5.96875-.06227.00488-.12563-.00631-.1875 0z" opacity=".2"/><path d="m6.4375 9.75c-.8994891 1.177446-1.4375 2.647277-1.4375 4.25v71c0 3.878 3.122 7 7 7h72c3.878 0 7-3.122 7-7v-71c0-1.602723-.538011-3.072554-1.4375-4.25.279316.694095.4375 1.453625.4375 2.25v72c0 3.324-2.676 6-6 6h-72c-3.324 0-6-2.676-6-6v-72c0-.796375.1581836-1.555905.4375-2.25z" opacity=".3"/></g><path d="m6 84v1c0 3.324 2.676 6 6 6h72c3.324 0 6-2.676 6-6v-1c0 3.324-2.676 6-6 6h-72c-3.324 0-6-2.676-6-6z" fill="url(#g)" opacity=".45"/></g><g><rect height="84" opacity=".6" rx="6" width="84" x="6" y="6"/><path d="m12 6c-3.324 0-6 2.676-6 6v2 68 2c0 .334721.04135.6507.09375.96875.0487.295596.09704.596915.1875.875.00988.03038.020892.0636.03125.09375.098865.287771.2348802.547452.375.8125.1445918.273507.3156161.535615.5.78125s.3737765.473472.59375.6875c.439947.428056.94291.814526 1.5 1.09375.278545.139612.5734731.246947.875.34375-.2562018-.100222-.4867109-.236272-.71875-.375-.00741-.0044-.023866.0045-.03125 0-.031933-.0193-.062293-.04251-.09375-.0625-.120395-.0767-.2310226-.163513-.34375-.25-.1061728-.0808-.2132809-.161112-.3125-.25-.1779299-.161433-.3474596-.345388-.5-.53125-.1075789-.130255-.2183939-.265285-.3125-.40625-.025089-.03838-.038446-.08587-.0625-.125-.064763-.103032-.1302275-.204517-.1875-.3125-.1010083-.194706-.2056748-.415701-.28125-.625-.00796-.02181-.023589-.04055-.03125-.0625-.0318251-.09195-.0358045-.186831-.0625-.28125-.0303323-.106618-.0703894-.203031-.09375-.3125-.0728786-.341512-.125-.698205-.125-1.0625v-2-68-2c0-2.781848 2.2181517-5 5-5h2 68 2c2.781848 0 5 2.218152 5 5v2 68 2c0 .364295-.05212.720988-.125 1.0625-.04415.206893-.08838.397658-.15625.59375-.0077.02195-.0233.04069-.03125.0625-.06274.173739-.138383.367449-.21875.53125-.04158.0828-.07904.169954-.125.25-.0546.09721-.126774.18835-.1875.28125-.09411.140965-.204921.275995-.3125.40625-.143174.17445-.303141.346998-.46875.5-.01117.0102-.01998.02115-.03125.03125-.138386.125556-.285091.234436-.4375.34375-.102571.07315-.204318.153364-.3125.21875-.0074.0045-.02384-.0044-.03125 0-.232039.138728-.462548.274778-.71875.375.301527-.0968.596455-.204138.875-.34375.55709-.279224 1.060053-.665694 1.5-1.09375.219973-.214028.409366-.441865.59375-.6875s.355408-.507743.5-.78125c.14012-.265048.276135-.524729.375-.8125.01041-.03078.02133-.06274.03125-.09375.09046-.278085.1388-.579404.1875-.875.0524-.31805.09375-.634029.09375-.96875v-2-68-2c0-3.324-2.676-6-6-6z" fill="url(#b)" opacity=".01"/><path d="m12 90c-3.324 0-6-2.676-6-6v-2-68-2c0-.334721.04135-.6507.09375-.96875.0487-.295596.09704-.596915.1875-.875.00988-.03038.020892-.0636.03125-.09375.098865-.287771.2348802-.547452.375-.8125.1445918-.273507.3156161-.535615.5-.78125s.3737765-.473472.59375-.6875c.439947-.428056.94291-.814526 1.5-1.09375.278545-.139612.5734731-.246947.875-.34375-.2562018.100222-.4867109.236272-.71875.375-.00741.0044-.023866-.0045-.03125 0-.031933.0193-.062293.04251-.09375.0625-.120395.0767-.2310226.163513-.34375.25-.1061728.0808-.2132809.161112-.3125.25-.1779299.161433-.3474596.345388-.5.53125-.1075789.130255-.2183939.265285-.3125.40625-.025089.03838-.038446.08587-.0625.125-.064763.103032-.1302275.204517-.1875.3125-.1010083.194706-.2056748.415701-.28125.625-.00796.02181-.023589.04055-.03125.0625-.0318251.09195-.0358045.186831-.0625.28125-.0303323.106618-.0703894.203031-.09375.3125-.0728786.341512-.125.698205-.125 1.0625v2 68 2c0 2.781848 2.2181517 5 5 5h2 68 2c2.781848 0 5-2.218152 5-5v-2-68-2c0-.364295-.05212-.720988-.125-1.0625-.04415-.206893-.08838-.397658-.15625-.59375-.0077-.02195-.0233-.04069-.03125-.0625-.06274-.173739-.138383-.367449-.21875-.53125-.04158-.0828-.07904-.169954-.125-.25-.0546-.09721-.126774-.18835-.1875-.28125-.09411-.140965-.204921-.275995-.3125-.40625-.143174-.17445-.303141-.346998-.46875-.5-.01117-.0102-.01998-.02115-.03125-.03125-.138386-.125556-.285091-.234436-.4375-.34375-.102571-.07315-.204318-.153364-.3125-.21875-.0074-.0045-.02384.0044-.03125 0-.232039-.138728-.462548-.274778-.71875-.375.301527.0968.596455.204138.875.34375.55709.279224 1.060053.665694 1.5 1.09375.219973.214028.409366.441865.59375.6875s.355408.507743.5.78125c.14012.265048.276135.524729.375.8125.01041.03078.02133.06274.03125.09375.09046.278085.1388.579404.1875.875.0524.31805.09375.634029.09375.96875v2 68 2c0 3.324-2.676 6-6 6z" fill="url(#c)" opacity=".15"/></g><path d="m72.75 16c-3.012797.03323-4.548085 2.917441-6.610559 4.673059-2.681897 2.681897-5.363794 5.363794-8.045691 8.045691-2.739339.167435-6.059996-.725357-8.052782 1.738751-2.596988 2.652658-5.353279 5.203016-7.853468 7.917499-1.627173 1.413875-.132647 4.290641-2.759782 3.705505-2.552099.800343-4.013236 3.271524-5.972404 4.949947-1.795043 1.996059-4.11394 3.59959-5.438992 5.953846-.717856 1.98609-.02579 4.280457-.460744 6.241374-3.769883 3.833082-7.693869 7.567927-11.368078 11.461828-1.835359 2.099907-1.36774 5.437718.847112 7.065862 1.975741 1.764552 3.702913 4.706294 6.778013 4.167952 3.028602-.590133 4.637382-3.466453 6.839468-5.354657l7.254157-7.254157c2.738935-.16784 6.060905.726268 8.052017-1.739517 2.605858-2.697873 5.429632-5.248575 7.903784-8.034797 1.503916-1.600238.197425-4.047827 2.815668-3.685166 2.467042-.722064 3.850175-3.123676 5.727935-4.727424 1.834274-2.036463 4.171747-3.692747 5.564205-6.068018.741837-1.995318.0363-4.308308.474745-6.283068 3.769633-3.822883 7.694459-7.546545 11.367896-11.43076 1.822191-2.087009 1.405645-5.437931-.815862-7.065862-1.913169-1.659987-3.395831-4.335024-6.246638-4.277888zm3.3125 1.34375c.03251.103643.05766-.04293 0 0zm-6.625.03125c.103643-.03251-.04293-.05766 0 0z" opacity=".08"/><path d="m72.75 17c-.913336 0-1.857885.354105-2.5625 1.0625-.0063.0063-.02498-.0064-.03125 0l-11.625 11.65625h-4.78125c-.940982-.0076-1.879022.348878-2.59375 1.0625l-8.09375 8.0625v.03125c-1.428112 1.418955-1.450836 3.76311-.03125 5.1875-.655239-.654697-1.560348-1.105906-2.59375-1.09375.01775-.000209-.0167-.0011-.0625 0-.981903.01934-1.852151.446899-2.5 1.09375l-8.125 8.09375c-.713719.714825-1.070014 1.65299-1.0625 2.59375v4.78125l-11.625 11.625v.03125c-1.422895 1.4138-1.422895 3.74245 0 5.15625.0064.0063-.0064.02496 0 .03125l3.59375 3.5625c1.4138 1.422895 3.74245 1.422895 5.15625 0h.03125l11.625-11.625h4.78125c.940982.0076 1.879022-.348878 2.59375-1.0625l8.09375-8.09375v-.03125c1.418648-1.40958 1.441428-3.741251.03125-5.15625.700794.700216 1.630699 1.074887 2.59375 1.0625-.01193.000099.02373.000715.0625 0 .907768-.01676 1.805503-.369071 2.5-1.0625l8.125-8.125c.686013-.687077 1.070162-1.603137 1.0625-2.5625v-4.8125l11.625-11.59375v-.03125c1.432388-1.423204 1.432388-3.764296 0-5.1875l-3.5625-3.59375c-.0064-.0066-.02477.0065-.03125 0-.731444-.735012-1.699906-1.0625-2.59375-1.0625z" opacity=".1"/><path d="m72.75 17.90625c-.710373 0-1.417375.250005-1.9375.78125l-11.9375 11.9375h-5.125c-.728573-.0059-1.433067.246396-1.96875.78125l-8.09375 8.09375c-1.111079 1.087823-1.111079 2.849677 0 3.9375l9.90625 9.90625c.518965.518537 1.236014.790675 1.96875.78125.0099-.000082.02138.000182.03125 0 .701873-.01296 1.390889-.266682 1.90625-.78125l8.125-8.125c.511925-.512719.787065-1.209418.78125-1.9375v-5.15625l11.90625-11.90625c1.111079-1.087823 1.111079-2.849677 0-3.9375l-3.59375-3.59375c-.543017-.554627-1.258377-.78125-1.96875-.78125zm-32.34375 25.96875c-.746405.0147-1.413997.321005-1.90625.8125l-8.125 8.09375c-.534885.535714-.787068 1.240301-.78125 1.96875v5.125l-11.90625 11.9375c-1.099388 1.076376-1.099388 2.829874 0 3.90625l3.59375 3.59375c1.076376 1.099388 2.829874 1.099388 3.90625 0l11.9375-11.90625h5.125c.728573.0059 1.433067-.246396 1.96875-.78125l8.09375-8.125c1.099388-1.076376 1.099388-2.829874 0-3.90625l-9.90625-9.90625c-.496795-.496384-1.193243-.821622-1.96875-.8125-.01054.000124-.02067-.000254-.03125 0z" opacity=".15"/><path d="m72.75 18.90625c-.458475 0-.896962.171332-1.21875.5l-12.21875 12.21875h-5.5625c-.45801-.0037-.925877.176379-1.25.5l-8.09375 8.09375c-.657336.643577-.657336 1.856423 0 2.5l9.90625 9.90625c.330688.330415.782663.511205 1.25.5.448625-.0037.901269-.183008 1.21875-.5l8.125-8.125c.323621-.324123.503658-.76074.5-1.21875v-5.59375l12.1875-12.1875c.657336-.643577.657336-1.856423 0-2.5l-3.59375-3.59375c-.321788-.328668-.791525-.5-1.25-.5zm-32.3125 25.96875c-.448625.0037-.901269.214258-1.21875.53125l-8.125 8.09375c-.323621.324123-.503658.79199-.5 1.25v5.5625l-12.1875 12.21875c-.657336.643577-.657336 1.825173 0 2.46875l3.59375 3.59375c.643577.657336 1.825173.657336 2.46875 0l12.21875-12.1875h5.5625c.45801.0037.925877-.176379 1.25-.5l8.09375-8.125c.657336-.643577.657336-1.825173 0-2.46875l-9.90625-9.90625c-.330688-.330415-.782663-.542455-1.25-.53125z" opacity=".3"/><g transform="matrix(0 -1 1 0 -90 0)"><path d="m-74 16.9375c-3.316401 0-6.0625 2.746099-6.0625 6.0625v50c0 3.316401 2.746099 6.0625 6.0625 6.0625h50c3.316401 0 6.0625-2.746099 6.0625-6.0625v-50c0-3.316401-2.746099-6.0625-6.0625-6.0625z" opacity=".08"/><path d="m-74 17.9375c-2.773313 0-5.0625 2.289187-5.0625 5.0625v50c0 2.773313 2.289187 5.0625 5.0625 5.0625h50c2.773313 0 5.0625-2.289187 5.0625-5.0625v-50c0-2.773313-2.289187-5.0625-5.0625-5.0625z" opacity=".1"/><path d="m-74 19c-2.191679 0-4 1.808321-4 4v50c0 2.191679 1.808321 4 4 4h50c2.191679 0 4-1.808321 4-4v-50c0-2.191679-1.808321-4-4-4z" opacity=".15"/></g><rect height="56" opacity=".3" rx="3" transform="rotate(-90)" width="56" x="-77" y="-70"/><rect fill="url(#h)" height="56" rx="3" transform="rotate(-90)" width="56" x="-76" y="-70"/><path d="m-49.794671 45.02716c-.970839.137402-1.8902.61226-2.562356 1.323458l-6.073728 6.050096c-.81477.784822-1.302958 1.896342-1.328631 3.025049v6.050097c-.000343.0315-.000343.06303 0 .09453l-11.360928 11.204887c-1.189652 1.185024-1.189652 3.163485 0 4.348509 1.189655 1.185021 3.175842 1.185021 4.365494 0l11.360927-11.299424h6.073731c1.133116-.0255 2.24898-.51186 3.036866-1.323457l6.073731-6.050097c1.559152-1.601306 1.559152-4.448791 0-6.050097l-6.073731-6.050093c-.895174-.930345-2.222147-1.43049-3.511375-1.323458z" fill="#fff" opacity=".3"/><path d="m-34.230434 50.997945c.970836-.137402 1.890199-.61226 2.562353-1.323457l6.073731-6.050097c.814769-.784822 1.302958-1.896342 1.328628-3.025049v-6.050096c.000345-.0315.000345-.06303 0-.09453l11.36093-11.204888c1.189652-1.185024 1.189652-3.163485 0-4.348509-1.189655-1.185023-3.175841-1.185023-4.365493 0l-11.360931 11.299424h-6.073728c-1.133119.0255-2.248979.51186-3.036865 1.323457l-6.073731 6.050097c-1.559153 1.601306-1.559153 4.448791 0 6.050097l6.073731 6.050094c.895174.930344 2.222147 1.430486 3.511375 1.323457z" fill="#fff" opacity=".3"/><path d="m72.75 17.90625c-.458475 0-.896962.171332-1.21875.5l-12.21875 12.21875h-5.5625c-.45801-.0037-.925877.176379-1.25.5l-8.09375 8.09375c-.657336.643577-.657336 1.856423 0 2.5l9.90625 9.90625c.330688.330415.782663.511205 1.25.5.448625-.0037.901269-.183008 1.21875-.5l8.125-8.125c.323621-.324123.503658-.76074.5-1.21875v-5.59375l12.1875-12.1875c.657336-.643577.657336-1.856423 0-2.5l-3.59375-3.59375c-.321788-.328668-.791525-.5-1.25-.5zm-32.3125 25.96875c-.448625.0037-.901269.214258-1.21875.53125l-8.125 8.09375c-.323621.324123-.503658.79199-.5 1.25v5.5625l-12.1875 12.21875c-.657336.643577-.657336 1.825173 0 2.46875l3.59375 3.59375c.643577.657336 1.825173.657336 2.46875 0l12.21875-12.1875h5.5625c.45801.0037.925877-.176379 1.25-.5l8.09375-8.125c.657336-.643577.657336-1.825173 0-2.46875l-9.90625-9.90625c-.330688-.330415-.782663-.542455-1.25-.53125z" fill="url(#i)"/><path d="m72.75 17.90625c-.458475 0-.896962.171332-1.21875.5l-12.21875 12.21875h-5.5625c-.45801-.0037-.925877.176379-1.25.5l-8.09375 8.09375c-.447494.438127-.599286 1.14343-.4375 1.75.07587-.284437.227658-.54455.4375-.75l8.09375-8.09375c.324123-.323621.79199-.5037 1.25-.5h5.5625l12.21875-12.21875c.321788-.328668.760275-.5 1.21875-.5s.928212.171332 1.25.5l3.59375 3.59375c.209842.20545.361634.465563.4375.75.161786-.60657.01-1.311873-.4375-1.75l-3.59375-3.59375c-.321788-.328668-.791525-.5-1.25-.5zm-32.3125 25.96875c-.448625.0037-.901269.214258-1.21875.53125l-8.125 8.09375c-.323621.324123-.503658.79199-.5 1.25v1c-.0037-.45801.176379-.925877.5-1.25l8.125-8.09375c.317481-.316992.770125-.52755 1.21875-.53125.467337-.0112.919312.200835 1.25.53125l9.90625 9.90625c.207946.203593.32987.472788.40625.75.177272-.605364.05009-1.303209-.40625-1.75l-9.90625-9.90625c-.330688-.330415-.782663-.542455-1.25-.53125zm-9.84375 15.4375-12.1875 12.21875c-.44939.439984-.571315 1.119669-.40625 1.71875.07808-.266628.205257-.521964.40625-.71875l12.1875-12.21875z" fill="#fff" opacity=".75"/><path d="m78.03125 22.75c-.07587.284437-.227658.54455-.4375.75l-12.1875 12.1875v1l12.1875-12.1875c.447494-.438127.599286-1.14343.4375-1.75zm-34.0625 17.21875c-.161786.60657-.01 1.311873.4375 1.75l9.90625 9.90625c.330688.330415.782663.511205 1.25.5.448625-.0037.901269-.183008 1.21875-.5l8.125-8.125c.323621-.324123.503658-.76074.5-1.21875v-1c.0037.45801-.176379.894627-.5 1.21875l-8.125 8.125c-.317481.316992-.770125.4963-1.21875.5-.467337.0112-.919312-.169585-1.25-.5l-9.90625-9.90625c-.209842-.20545-.361634-.465563-.4375-.75zm8.03125 15.09375c-.07808.266628-.205257.521964-.40625.71875l-8.09375 8.125c-.324123.323621-.79199.5037-1.25.5h-5.5625l-12.21875 12.1875c-.643577.657336-1.825173.657336-2.46875 0l-3.59375-3.59375c-.207946-.203593-.32987-.472788-.40625-.75-.177272.605364-.050093 1.303209.40625 1.75l3.59375 3.59375c.643577.657336 1.825173.657336 2.46875 0l12.21875-12.1875h5.5625c.45801.0037.925877-.176379 1.25-.5l8.09375-8.125c.44939-.439984.571315-1.119669.40625-1.71875z" opacity=".14"/></svg>