<svg height="16" width="16" xmlns="http://www.w3.org/2000/svg"><path d="m5.2019209-11.889421c-.021495.009-.04239.01947-.0625.03125l-1.96875 1.96875c-.098992.09781-.156583.236032-.15625.375v1.53125l-1.8125 1.78125c-.26922787.269227-.26922787.730772 0 1 .2692279.269228.7307721.269228 1 0l1.78125-1.8125h1.53125c.1390676-.000056.2772321-.05762.375-.15625l1.96875-1.96875c.010849-.01.021278-.0204.03125-.03125.0003103-.01041.0003103-.02084 0-.03125z" opacity=".3"/><path d="m5.9054043 19.128126-4.7034834 4.682007c-.26922788.269227-.26922788.718718 0 .987946.2692279.269228.7187184.269228.9879463 0l4.7893918-4.789392c-.3853884-.262256-.7348382-.562818-1.0738547-.880561z" fill="#f00" opacity=".2"/><path d="m10.875 8.46875a.53394727.53394727 0 0 0 -.25.15625l-2 2a.53394727.53394727 0 0 0 -.15625.375v2a.53394727.53394727 0 0 0 .53125.53125h2a.53394727.53394727 0 0 0 .375-.15625l2-2a.53394727.53394727 0 0 0 0-.75l-2-2a.53394727.53394727 0 0 0 -.5-.15625z" fill="#f00" opacity=".2" transform="matrix(.98812296 0 0 .9853749 -4.368166 8.666646)"/><path d="m10.785125-12.097392c.0215-.009.04239-.01947.0625-.03125l1.96875-1.96875c.09899-.09781.156583-.236033.15625-.375v-1.53125l1.8125-1.781251c.269228-.269227.269228-.730772 0-1-.269227-.269228-.730772-.269228-1 0l-1.78125 1.812501h-1.53125c-.139067.000056-.277232.05762-.375.15625l-1.9687496 1.96875c-.010849.01-.021278.0204-.03125.03125-.0003103.01041-.0003103.02084 0 .03125z" opacity=".3"/><g fill="#bebebe"><path d="m4.84375 7.9999999c-.1084038.0356835-.206748.1012463-.28125.1875l-2.375 2.3750001c-.1158555.114427-.1846369.274917-.1875.4375v1.875l-1.75 1.75c-.31441823.314417-.31441823.810582 0 1.125.31441825.314419.8105817.314419 1.125 0l1.75-1.75h1.875c.1626987-.0033.3231288-.07206.4375-.1875l2.375-2.375c.2239116-.232328.2239116-.642672 0-.875l-2.375-2.3750001c-.1479289-.1583805-.3813649-.2320972-.59375-.1875z" opacity=".45"/><path d="m11.159583 7.9722659c.108404-.035684.206748-.1012463.28125-.1875l2.375-2.375c.115855-.1144269.184637-.2749168.1875-.4375v-1.875l1.75-1.7499997c.314418-.314417.314418-.81058195 0-1.12499995-.314418-.314419-.810582-.314419-1.125 0l-1.75 1.74999995h-1.875c-.162699.0033-.323129.072059-.4375.1874997l-2.375 2.375c-.2239116.2323278-.2239116.6426722 0 .875l2.375 2.375c.147929.1583805.381365.2320972.59375.1875z" opacity=".45"/></g></svg>