<svg height="16" width="16" xmlns="http://www.w3.org/2000/svg"><g transform="translate(0 -6)"><path d="m1 2c-.554 0-1 .446-1 1v10c0 .554.446 1 1 1h14c.554 0 1-.446 1-1v-10c0-.554-.446-1-1-1zm1.5 2h4c.277 0 .5.223.5.5v7c0 .277-.223.5-.5.5h-4c-.277 0-.5-.223-.5-.5v-1.5h3v-1h-2v-2h2v-1h-3v-1.5c0-.277.223-.5.5-.5zm6 0h5c.277 0 .5.223.5.5v1.5h-4v1 2 1h2v-1h-1v-2h3v4.5c0 .277-.223.5-.5.5h-5c-.277 0-.5-.223-.5-.5v-7c0-.277.223-.5.5-.5z" fill="#bebebe" transform="translate(0 6)"/><rect fill="#bebebe" height="12" rx="1" width="15.999998" x="-20" y="8"/><g fill="#fff"><path d="m-17.5 10c-.277 0-.5.223-.5.5v1.5h3v1h-2v2h2v1h-3v1.5c0 .277.223.5.5.5h4c.277 0 .5-.223.5-.5v-7c0-.277-.223-.5-.5-.5z"/><path d="m-11.5 10c-.277 0-.5.223-.5.5v7c0 .277.223.5.5.5h5c.277 0 .5-.223.5-.5v-4.5h-3v2h1v1h-2v-1-2-1h4v-1.5c0-.277-.223-.5-.5-.5z"/></g></g></svg>