<svg height="16" width="16" xmlns="http://www.w3.org/2000/svg"><g transform="translate(0 -6)"><rect fill="#bebebe" height="12" rx="1" width="15.999998" x="-20" y="8"/><path d="m2 2c-.554 0-1 .446-1 1v10c0 .554.446 1 1 1h12c.554 0 1-.446 1-1v-10c0-.554-.446-1-1-1zm3.5 2h1.5v6h2v-6h1.5c.277 0 .5.223.5.5v7c0 .277-.223.5-.5.5h-5c-.277 0-.5-.223-.5-.5v-7c0-.277.223-.5.5-.5z" fill="#bebebe" transform="translate(0 6)"/><path d="m-15.5 10c-.277 0-.5.223-.5.5v7c0 .277.223.5.5.5h6c.277 0 .5-.223.5-.5v-1.5h-5v-1h3v-2h-3v-1h5v-1.5c0-.277-.223-.5-.5-.5z" fill="#f00"/><path d="m-14.5 10c-.277 0-.5.223-.5.5v7c0 .277.223.5.5.5h5c.277 0 .5-.223.5-.5v-7c0-.277-.223-.5-.5-.5h-1.5v6h-2v-6z" fill="#fff"/></g></svg>