<svg height="16" width="16" xmlns="http://www.w3.org/2000/svg"><path d="m8 2c-3.1187845 0-5.9561667 1.3284272-8 3.5l1.3529412 1.4375c1.7031945-1.8096442 4.0480724-2.9375 6.6470588-2.9375 2.598986 0 4.943864 1.1278558 6.647059 2.9375l1.352941-1.4375c-2.043833-2.1715728-4.881216-3.5-8-3.5zm0 3c-2.3390881 0-4.467125.9963203-6 2.625l1.3529412 1.4375c1.1922361-1.2667509 2.827768-2.0625 4.6470588-2.0625s3.454823.7957491 4.647059 2.0625l1.352941-1.4375c-1.532875-1.6286797-3.660912-2.625-6-2.625zm0 3c-1.5593924 0-2.9780834.6642136-4 1.75l1.3235294 1.40625c.6812778-.723858 1.6368759-1.15625 2.6764706-1.15625 1.0395948 0 1.9951925.432392 2.676471 1.15625l1.323529-1.40625c-1.021916-1.0857864-2.4406075-1.75-4-1.75zm0 3c-.7796961 0-1.4890417.332107-2 .875l2 2.125 2-2.125c-.5109583-.542893-1.2203039-.875-2-.875z" fill="#bebebe"/></svg>