<svg height="96" width="96" xmlns="http://www.w3.org/2000/svg" xmlns:xlink="http://www.w3.org/1999/xlink"><linearGradient id="a"><stop offset="0" stop-color="#ffdf39"/><stop offset="1" stop-color="#eb9c00" stop-opacity="0"/></linearGradient><linearGradient id="b"><stop offset="0" stop-color="#fff"/><stop offset="1" stop-color="#fff" stop-opacity="0"/></linearGradient><clipPath id="c"><rect height="84" rx="6" width="84" x="6" y="6"/></clipPath><filter id="d" color-interpolation-filters="sRGB" height="1.384" width="1.384" x="-.192" y="-.192"><feGaussianBlur stdDeviation="5.28"/></filter><linearGradient id="e" gradientUnits="userSpaceOnUse" x1="48" x2="48" xlink:href="#b" y1="20.220806" y2="138.66119"/><linearGradient id="f" gradientUnits="userSpaceOnUse" x1="48" x2="48" y1="24" y2="72"><stop offset="0"/><stop offset="1" stop-color="#393939"/></linearGradient><linearGradient id="g" gradientUnits="userSpaceOnUse" x1="53" x2="53" xlink:href="#b" y1="74" y2="32.987808"/><linearGradient id="h" gradientUnits="userSpaceOnUse" x1="48" x2="48" xlink:href="#b" y1="72" y2="24"/><radialGradient id="i" cx="48" cy="70" gradientTransform="matrix(1.1875 0 0 .5625 -9 27)" gradientUnits="userSpaceOnUse" r="16" xlink:href="#b"/><linearGradient id="j" gradientTransform="matrix(.5 0 0 1 18 0)" gradientUnits="userSpaceOnUse" x1="33" x2="33" xlink:href="#a" y1="68" y2="61"/><linearGradient id="k" gradientUnits="userSpaceOnUse" x1="33" x2="33" xlink:href="#a" y1="108" y2="101"/><linearGradient id="l" gradientUnits="userSpaceOnUse" x1="37" x2="37" xlink:href="#a" y1="108" y2="101"/><linearGradient id="m" gradientUnits="userSpaceOnUse" x1="41" x2="41" xlink:href="#a" y1="108" y2="101"/><linearGradient id="n" gradientUnits="userSpaceOnUse" x1="45" x2="45" xlink:href="#a" y1="108" y2="101"/><linearGradient id="o" gradientUnits="userSpaceOnUse" x1="49" x2="49" xlink:href="#a" y1="108" y2="101"/><linearGradient id="p" gradientUnits="userSpaceOnUse" x1="53" x2="53" xlink:href="#a" y1="108" y2="101"/><linearGradient id="q" gradientUnits="userSpaceOnUse" x1="57" x2="57" xlink:href="#a" y1="108" y2="101"/><linearGradient id="r" gradientUnits="userSpaceOnUse" x1="61" x2="61" xlink:href="#a" y1="108" y2="101"/><linearGradient id="s" gradientTransform="matrix(.5 0 0 1 22 0)" gradientUnits="userSpaceOnUse" x1="33" x2="33" xlink:href="#a" y1="68" y2="61"/><linearGradient id="t" gradientTransform="matrix(.5 0 0 1 26 0)" gradientUnits="userSpaceOnUse" x1="33" x2="33" xlink:href="#a" y1="68" y2="61"/><linearGradient id="u" gradientTransform="matrix(.5 0 0 1 30 0)" gradientUnits="userSpaceOnUse" x1="33" x2="33" xlink:href="#a" y1="68" y2="61"/><linearGradient id="v" gradientTransform="matrix(.5 0 0 1 34 0)" gradientUnits="userSpaceOnUse" x1="33" x2="33" xlink:href="#a" y1="68" y2="61"/><linearGradient id="w" gradientTransform="matrix(.5 0 0 1 38 0)" gradientUnits="userSpaceOnUse" x1="33" x2="33" xlink:href="#a" y1="68" y2="61"/><linearGradient id="x" gradientTransform="matrix(.5 0 0 1 42 0)" gradientUnits="userSpaceOnUse" x1="33" x2="33" xlink:href="#a" y1="68" y2="61"/><linearGradient id="y" gradientTransform="matrix(.5 0 0 1 46 0)" gradientUnits="userSpaceOnUse" x1="33" x2="33" xlink:href="#a" y1="68" y2="61"/><linearGradient id="z" gradientTransform="matrix(0 -3.0000004 2.9652505 0 45.335916 123.00001)" gradientUnits="userSpaceOnUse" x1="11" x2="19" y1="11.015625" y2="11.015625"><stop offset="0" stop-color="#c80000"/><stop offset="1" stop-color="#f3604d"/></linearGradient><linearGradient id="A" gradientUnits="userSpaceOnUse" x1="-60" x2="-60" y1="92" y2="7.987717"><stop offset="0" stop-color="#aaa"/><stop offset="1" stop-color="#f0f0f0"/></linearGradient><linearGradient id="B" gradientUnits="userSpaceOnUse" x1="-62" x2="-62" xlink:href="#b" y1="8" y2="80"/><path d="m-98 6.03125c-3.8292 0-6.96875 3.1395505-6.96875 6.96875v72c0 3.829199 3.13955 6.96875 6.96875 6.96875h72c3.829199 0 6.96875-3.139551 6.96875-6.96875v-72c0-3.8291997-3.139551-6.96875-6.96875-6.96875z" opacity=".08"/><path d="m12 7c-3.3032257 0-6 2.6967746-6 6v72c0 3.303225 2.6967743 6 6 6h72c3.303225 0 6-2.696775 6-6v-72c0-3.3032255-2.696775-6-6-6z" opacity=".1" transform="translate(-110)"/><path d="m12 8c-2.7584183 0-5 2.241582-5 5v72c0 2.758418 2.2415817 5 5 5h72c2.758418 0 5-2.241582 5-5v-72c0-2.758418-2.241582-5-5-5z" opacity=".15" transform="translate(-110)"/><rect height="80" opacity=".3" rx="4" width="80" x="-102" y="9"/><rect fill="#fff" height="80" opacity=".2" rx="4" width="80" x="8" y="8"/><rect fill="url(#A)" height="80" rx="4" width="80" x="-102" y="8"/><path d="m-98 8c-2.216 0-4 1.784-4 4v72c0 1.798949 1.18443 3.275003 2.8125 3.78125-1.08001-.449976-1.8125-1.521174-1.8125-2.78125v-72c0-1.680101 1.319899-3 3-3h72c1.680101 0 3 1.319899 3 3v72c0 1.260076-.732486 2.331274-1.8125 2.78125 1.628072-.506247 2.8125-1.982301 2.8125-3.78125v-72c0-2.216-1.784-4-4-4zm73.1875 79.78125c-.158856.06619-.327826.08639-.5.125.17333-.02984.335191-.07375.5-.125zm-74.375 0c.164809.05125.32667.09516.5.125-.172174-.03861-.341144-.05881-.5-.125z" fill="url(#B)" opacity=".6"/><rect height="66" rx="12" style="opacity:.15;stroke:#fff;stroke-width:.5;stroke-linecap:round;clip-path:url(#c);fill:url(#e);filter:url(#d)" width="66" x="15" y="15"/><path d="m39.8125 22.03125a1.9843903 1.9843903 0 0 0 -1.78125 1.96875v2.03125h-2.03125a1.9843903 1.9843903 0 0 0 -1.96875 1.96875v2.03125h-7.03125c-2.726921 0-4.96875 2.241829-4.96875 4.96875v34c0 2.726921 2.241829 4.96875 4.96875 4.96875h42c2.726921 0 4.96875-2.241829 4.96875-4.96875v-34c0-2.726921-2.241829-4.96875-4.96875-4.96875h-7.03125v-2.03125a1.9843903 1.9843903 0 0 0 -1.96875-1.96875h-2.03125v-2.03125a1.9843903 1.9843903 0 0 0 -1.96875-1.96875h-16a1.9843903 1.9843903 0 0 0 -.1875 0z" fill="url(#g)" opacity=".4"/><path d="m40 24v4h-4v4h-9c-1.662 0-3 1.338-3 3v34c0 1.662 1.338 3 3 3h42c1.662 0 3-1.338 3-3v-34c0-1.662-1.338-3-3-3h-9v-4h-4v-4z" fill="url(#f)"/><path d="m130 24v4h-4v4h-9c-1.662 0-3 1.338-3 3v34c0 1.662 1.338 3 3 3h42c1.662 0 3-1.338 3-3v-34c0-1.662-1.338-3-3-3h-9v-4h-4v-4z"/><path d="m40 22v2h16v-2zm-4 4v2h4v-2zm20 0v2h4v-2zm-29 4c-1.662 0-3 1.338-3 3v2c0-1.662 1.338-3 3-3h9v-2zm33 0v2h9c1.662 0 3 1.338 3 3v-2c0-1.662-1.338-3-3-3z" opacity=".15"/><path d="m40 24v4h-4v4h-9c-1.662 0-3 1.338-3 3v34c0 1.662 1.338 3 3 3h42c1.662 0 3-1.338 3-3v-34c0-1.662-1.338-3-3-3h-9v-4h-4v-4zm1.96875 1.96875h12.0625v2.03125a1.9749666 1.9749666 0 0 0 1.96875 1.96875h2.03125v2.03125a1.9749666 1.9749666 0 0 0 1.96875 1.96875h9c.602136 0 1.03125.429114 1.03125 1.03125v34c0 .602136-.429114 1.03125-1.03125 1.03125h-42c-.602136 0-1.03125-.429114-1.03125-1.03125v-34c0-.602136.429114-1.03125 1.03125-1.03125h9a1.9749666 1.9749666 0 0 0 1.96875-1.96875v-2.03125h2.03125a1.9749666 1.9749666 0 0 0 1.96875-1.96875z" fill="url(#h)" opacity=".2"/><path d="m29 54h38v18h-38z" fill="url(#i)" opacity=".2"/><path d="m34 61h1v7h-1z" fill="url(#j)"/><path d="m40 23v1h16v-1zm-4 4v1h4v-1zm20 0v1h4v-1zm-29 4c-1.662 0-3 1.338-3 3v1c0-1.662 1.338-3 3-3h9v-1zm33 0v1h9c1.662 0 3 1.338 3 3v-1c0-1.662-1.338-3-3-3z" opacity=".3"/><path d="m32 101h2v7h-2z" fill="url(#k)"/><path d="m36 101h2v7h-2z" fill="url(#l)"/><path d="m40 101h2v7h-2z" fill="url(#m)"/><path d="m44 101h2v7h-2z" fill="url(#n)"/><path d="m48 101h2v7h-2z" fill="url(#o)"/><path d="m52 101h2v7h-2z" fill="url(#p)"/><path d="m56 101h2v7h-2z" fill="url(#q)"/><path d="m60 101h2v7h-2z" fill="url(#r)"/><path d="m38 61h1v7h-1z" fill="url(#s)"/><path d="m42 61h1v7h-1z" fill="url(#t)"/><path d="m46 61h1v7h-1z" fill="url(#u)"/><path d="m50 61h1v7h-1z" fill="url(#v)"/><path d="m54 61h1v7h-1z" fill="url(#w)"/><path d="m58 61h1v7h-1z" fill="url(#x)"/><path d="m62 61h1v7h-1z" fill="url(#y)"/><g fill-rule="evenodd"><path d="m53.84375-38.96875c.000723-.000084-.09447.03137-.09375.03125.000718-.00012-.09446.000155-.09375 0 .000711-.000155-.09445.03144-.09375.03125.001-.000262-.126005.03158-.125.03125.001-.000335-.125978.06291-.125.0625.000978-.000408-.157196.06298-.15625.0625.000946-.000478-.125908.06305-.125.0625.000908-.000545-.09462.09436-.09375.09375.000866-.00061-.12582.06317-.125.0625.00082-.000671-.09452.09448-.09375.09375.000577-.000547-.06575.06523-.09375.09375-.0093.0095-.03143.03145-.03125.03125l-6 6.0625c.000953-.001-.125853.157339-.125.15625.000853-.0011-.0945.126165-.09375.125.000746-.0012-.09438.15748-.09375.15625.000632-.0012-.09426.188785-.09375.1875.000513-.0013-.06289.157577-.0625.15625.000389-.0013-.03151.188858-.03125.1875.000261-.0014-.03138.188877-.03125.1875.000131-.0014 0 .188883 0 .1875 0-.0014.000131.188877 0 .1875-.000131-.0014.03151.188858.03125.1875-.000261-.0014.03164.188827.03125.1875-.000389-.0013.06301.157535.0625.15625-.000513-.0013.09438.18873.09375.1875-.000632-.0012.0945.157415.09375.15625-.000746-.0012.0946.126089.09375.125-.000853-.0011.125953.157253.125.15625l4.5 4.5625-4.5 4.5625c.000953-.001-.125853.157339-.125.15625.000853-.0011-.0945.126165-.09375.125.000746-.0012-.09438.15748-.09375.15625.000632-.0012-.09426.188785-.09375.1875.000513-.0013-.06289.157577-.0625.15625.000389-.0013-.03151.188858-.03125.1875.000261-.0014-.03138.188877-.03125.1875.000131-.0014 0 .188883 0 .1875 0-.0014.000131.188877 0 .1875-.000131-.0014.03151.188858.03125.1875-.000261-.0014.03164.188827.03125.1875-.000389-.0013.06301.157535.0625.15625-.000513-.0013.09438.18873.09375.1875-.000632-.0012.0945.157415.09375.15625-.000746-.0012.0946.126089.09375.125-.000853-.0011.125953.157253.125.15625l6.03125 6.09375c-.000987-.001.126082.125927.125.125-.0011-.000927.157418.125817.15625.125-.0012-.000817.157492.09445.15625.09375-.0012-.000699.188805.09432.1875.09375-.0013-.000574.188854.06294.1875.0625-.0014-.000444.157641.06281.15625.0625-.0014-.00031.188915.03142.1875.03125-.0014-.000172.220175.000033.21875 0-.0014-.000033.188921-.000106.1875 0-.0014.000106.188904-.03149.1875-.03125-.0014.000245.188874-.03163.1875-.03125-.0014.000381.15758-.06301.15625-.0625-.0013.000513.188773-.06314.1875-.0625-.0013.000641.157455-.09451.15625-.09375-.0012.000762.157374-.125876.15625-.125-.0011.000876.157283-.125982.15625-.125l4.59375-4.5625 4.40625 4.5c-.000508-.000529.06303.063.0625.0625-.000534-.000503.09431.06298.09375.0625-.000559-.000476.06308.06295.0625.0625-.000582-.000447.09435.06292.09375.0625-.000604-.000417.06312.06289.0625.0625-.000624-.000386.09439.06285.09375.0625-.000643-.000354.09441.03157.09375.03125-.00066-.000321.09443.03154.09375.03125-.000675-.000288.06319.0315.0625.03125-.000689-.000253.09445.03147.09375.03125-.0007-.000218.09446.03143.09375.03125-.000711-.000183.125719.0314.125.03125-.000719-.000147.09448.03136.09375.03125-.000725-.00011.09448.000074.09375 0s.09448.000037.09375 0c-.000733-.000037.09448 0 .09375 0-.000734 0 .09448-.000037.09375 0-.000733.000037.09448-.000074.09375 0s.09448-.00011.09375 0c-.000725.00011.09447-.0314.09375-.03125-.000719.000147.125711-.03143.125-.03125-.000711.000183.09445-.03147.09375-.03125-.0007.000218.09444-.0315.09375-.03125-.000689.000253.06318-.03154.0625-.03125-.000675.000288.09441-.03157.09375-.03125-.00066.000321.09439-.0316.09375-.03125-.000643.000354.09437-.06289.09375-.0625-.000624.000386.0631-.06292.0625-.0625-.000604.000417.09433-.06295.09375-.0625-.000582.000447.06306-.06298.0625-.0625-.000559.000476.09428-.063.09375-.0625-.000534.000503.06301-.06303.0625-.0625l6.21875-6.28125c-.000982.001.125876-.157374.125-.15625-.000876.0011.125762-.157455.125-.15625-.000762.0012.09439-.157523.09375-.15625-.000641.0013.06301-.18883.0625-.1875-.000513.0013.06288-.157624.0625-.15625-.000381.0014.0315-.188904.03125-.1875-.000245.0014.03136-.188921.03125-.1875-.000106.0014-.000033-.188925 0-.1875.000033.0014-.000172-.220165 0-.21875.000172.0014-.03156-.188891-.03125-.1875.00031.0014-.06294-.157604-.0625-.15625.000444.0014-.06307-.188805-.0625-.1875.000574.0013-.09445-.188742-.09375-.1875.000699.0012-.09457-.157418-.09375-.15625.000817.0012-.125927-.157332-.125-.15625.000927.0011-.126029-.125987-.125-.125l-4.40625-4.3125 4.40625-4.3125c-.001.000987.125927-.126082.125-.125-.000927.0011.125817-.157418.125-.15625-.000817.0012.09445-.157492.09375-.15625-.000699.0012.09432-.188805.09375-.1875-.000574.0013.06294-.188854.0625-.1875-.000444.0014.06281-.157641.0625-.15625-.00031.0014.03142-.188915.03125-.1875-.000172.0014.000033-.220175 0-.21875-.000033.0014-.000106-.188921 0-.1875.000106.0014-.0315-.188904-.03125-.1875.000245.0014-.03163-.188874-.03125-.1875.000381.0014-.06301-.15758-.0625-.15625.000513.0013-.06314-.188773-.0625-.1875.000641.0013-.09451-.157455-.09375-.15625.000762.0012-.125876-.157374-.125-.15625.000876.0011-.125982-.157283-.125-.15625l-6.21875-6.28125c.000508.000529-.06303-.063-.0625-.0625.000534.000503-.09431-.06298-.09375-.0625.000559.000476-.06308-.06295-.0625-.0625.000582.000447-.09435-.06292-.09375-.0625.000604.000417-.06312-.06289-.0625-.0625.000624.000386-.09439-.06285-.09375-.0625.000643.000354-.09441-.03157-.09375-.03125.00066.000321-.09443-.03154-.09375-.03125.000675.000288-.06319-.0315-.0625-.03125.000689.000253-.09445-.03147-.09375-.03125.0007.000218-.09446-.03143-.09375-.03125.000711.000183-.125719-.0314-.125-.03125.000719.000147-.09448-.03136-.09375-.03125.000725.00011-.09448-.000074-.09375 0s-.09448-.000037-.09375 0c.000733.000037-.09448 0-.09375 0 .000734 0-.09448.000037-.09375 0 .000733-.000037-.09448.000074-.09375 0s-.09448.00011-.09375 0c.000725-.00011-.09447.0314-.09375.03125.000719-.000147-.125711.03143-.125.03125.000711-.000183-.09445.03147-.09375.03125.0007-.000218-.09444.0315-.09375.03125.000689-.000253-.06318.03154-.0625.03125.000675-.000288-.09441.03157-.09375.03125.00066-.000321-.09439.0316-.09375.03125.000643-.000354-.09437.06289-.09375.0625.000624-.000386-.0631.06292-.0625.0625.000604-.000417-.09433.06295-.09375.0625.000582-.000447-.06306.06298-.0625.0625.000559-.000476-.09428.063-.09375.0625.000534-.000503-.06301.06303-.0625.0625l-4.40625 4.5-4.5625-4.53125c.000171.000172-.02075-.0212-.03125-.03125-.021-.0201-.06286-.06283-.0625-.0625.000539.000491-.06306-.06296-.0625-.0625.000563.000463-.06309-.06294-.0625-.0625.000585.000435-.09436-.03166-.09375-.03125.000606.000405-.09438-.06287-.09375-.0625.000626.000374-.06314-.06284-.0625-.0625.000644.000342-.09441-.03156-.09375-.03125.00066.000309-.09443-.03153-.09375-.03125.000675.000276-.09444-.03149-.09375-.03125.000688.000242-.09445-.03146-.09375-.03125.000699.000207-.09446-.03142-.09375-.03125.000708.000172-.09447-.03139-.09375-.03125.000716.000136-.09447-.0001-.09375 0 .000722.0001-.09448-.03131-.09375-.03125.000726.000064-.09448-.000028-.09375 0 .000728.000028-.09448.000009-.09375 0a.9965754.9965754 0 0 0 -.0625 0c.000726-.000047-.09447.000084-.09375 0z" opacity=".1" transform="translate(18 104)"/><path d="m53.8125-37.9375a.95278301.95278301 0 0 0 -.46875.28125l-6.03125 6.09375a.95278301.95278301 0 0 0 0 1.3125l5.1875 5.25-5.1875 5.25a.95278301.95278301 0 0 0 0 1.3125l6.03125 6.09375a.95278301.95278301 0 0 0 1.34375.03125l5.28125-5.25 5.125 5.21875a.95278301.95278301 0 0 0 1.375 0l6.21875-6.28125a.95278301.95278301 0 0 0 -.03125-1.34375l-5.15625-5.03125 5.15625-5.03125a.95278301.95278301 0 0 0 .03125-1.34375l-6.21875-6.28125a.95278301.95278301 0 0 0 -1.375 0l-5.125 5.21875-5.28125-5.25a.95278301.95278301 0 0 0 -.875-.25z" opacity=".15" transform="translate(18 104)"/><path d="m66.000004 84.906252 6.023165 6.093748 5.9305-5.906248 5.837833 5.906248 6.208498-6.281248-5.83784-5.71875 5.83784-5.71875-6.208498-6.281252-5.837833 5.90625-5.9305-5.90625-6.023165 6.093751 5.837841 5.906251z" opacity=".3"/><path d="m66.000004 83.906252 6.023165 6.093748 5.9305-5.906248 5.837833 5.906248 6.208498-6.281248-5.83784-5.71875 5.83784-5.71875-6.208498-6.281252-5.837833 5.90625-5.9305-5.90625-6.023165 6.093751 5.837841 5.906251z" fill="url(#z)"/><path d="m72.031254 66-6.03125 6.09375 1 1 5.03125-5.09375 5.937496 5.90625 5.8125-5.90625 5.21875 5.25 1-.96875-6.21875-6.28125-5.8125 5.90625zm-.194826 11.975812-5.836424 5.930438 1 1 4.84375-4.90625-.0073-2.024188zm12.342641.04727-.02282 1.976918 4.84375 4.75 1-1.03125-5.820931-5.695668z" fill="#fff" opacity=".2"/></g></svg>