<svg height="96" width="96" xmlns="http://www.w3.org/2000/svg" xmlns:xlink="http://www.w3.org/1999/xlink"><linearGradient id="a"><stop offset="0" stop-color="#fff"/><stop offset="1" stop-color="#fff" stop-opacity="0"/></linearGradient><linearGradient id="b"><stop offset="0" stop-color="#aaa"/><stop offset="1" stop-color="#f0f0f0"/></linearGradient><linearGradient id="c" gradientUnits="userSpaceOnUse" x1="56" x2="56" xlink:href="#b" y1="14" y2="-50"/><linearGradient id="d" gradientUnits="userSpaceOnUse" x1="44" x2="44" xlink:href="#b" y1="14" y2="-34"/><linearGradient id="e" gradientUnits="userSpaceOnUse" x1="16" x2="16" xlink:href="#b" y1="14" y2="-18"/><linearGradient id="f" gradientUnits="userSpaceOnUse" x1="19" x2="19" xlink:href="#a" y1="-18" y2="14.140317"/><linearGradient id="g" gradientUnits="userSpaceOnUse" x1="37" x2="37" xlink:href="#a" y1="-34" y2="14.010415"/><linearGradient id="h" gradientUnits="userSpaceOnUse" x1="57" x2="57" xlink:href="#a" y1="-50" y2="14.007812"/><g transform="translate(0 74)"><g transform="translate(0 -74)"><path d="m54 21.9375c-3.881977 0-7.0625 3.180523-7.0625 7.0625v10.96875c-1.277285-1.252719-3.021396-2.03125-4.9375-2.03125h-8c-3.881977 0-7.0625 3.180523-7.0625 7.0625v10.96875c-1.277285-1.252719-3.021396-2.03125-4.9375-2.03125h-8c-3.881977 0-7.0625 3.180523-7.0625 7.0625v24c0 3.881977 3.180523 7.0625 7.0625 7.0625h8c2.587985 0 4.768761-1.468599 6-3.5625 1.231239 2.093901 3.412015 3.5625 6 3.5625h8c2.587985 0 4.768761-1.468599 6-3.5625 1.231239 2.093901 3.412015 3.5625 6 3.5625h8c3.881977 0 7.0625-3.180523 7.0625-7.0625v-56c0-3.881977-3.180523-7.0625-7.0625-7.0625z" opacity=".08"/><path d="m54 23.03125c-3.283091 0-5.96875 2.685659-5.96875 5.96875v56c0 3.283091 2.685659 5.96875 5.96875 5.96875h8c3.283091 0 5.96875-2.685659 5.96875-5.96875v-56c0-3.283091-2.685659-5.96875-5.96875-5.96875zm-20 16c-3.283091 0-5.96875 2.685659-5.96875 5.96875v40c0 3.283091 2.685659 5.96875 5.96875 5.96875h8c3.283091 0 5.96875-2.685659 5.96875-5.96875v-40c0-3.283091-2.685659-5.96875-5.96875-5.96875zm-20 16c-3.283091 0-5.96875 2.685659-5.96875 5.96875v24c0 3.283091 2.685659 5.96875 5.96875 5.96875h8c3.283091 0 5.96875-2.685659 5.96875-5.96875v-24c0-3.283091-2.685659-5.96875-5.96875-5.96875z" opacity=".1"/><path d="m54 23.96875c-2.763365 0-5.03125 2.267885-5.03125 5.03125v56c0 2.763365 2.267885 5.03125 5.03125 5.03125h8c2.763365 0 5.03125-2.267885 5.03125-5.03125v-56c0-2.763365-2.267885-5.03125-5.03125-5.03125zm-20 16c-2.763365 0-5.03125 2.267885-5.03125 5.03125v40c0 2.763365 2.267885 5.03125 5.03125 5.03125h8c2.763365 0 5.03125-2.267885 5.03125-5.03125v-40c0-2.763365-2.267885-5.03125-5.03125-5.03125zm-20 16c-2.763365 0-5.03125 2.267885-5.03125 5.03125v24c0 2.763365 2.267885 5.03125 5.03125 5.03125h8c2.763365 0 5.03125-2.267885 5.03125-5.03125v-24c0-2.763365-2.267885-5.03125-5.03125-5.03125z" opacity=".15"/><path d="m54 25c-2.216 0-4 1.784-4 4v56c0 2.216 1.784 4 4 4h8c2.216 0 4-1.784 4-4v-56c0-2.216-1.784-4-4-4zm-20 16c-2.216 0-4 1.784-4 4v40c0 2.216 1.784 4 4 4h8c2.216 0 4-1.784 4-4v-40c0-2.216-1.784-4-4-4zm-20 16c-2.216 0-4 1.784-4 4v24c0 2.216 1.784 4 4 4h8c2.216 0 4-1.784 4-4v-24c0-2.216-1.784-4-4-4z" opacity=".3"/></g><rect fill="#fff" height="80" opacity=".2" rx="4" width="16" x="70" y="-66"/><rect fill="url(#c)" height="64" rx="4" width="16" x="50" y="-50"/><rect fill="url(#d)" height="48" rx="4" width="16" x="30" y="-34"/><rect fill="url(#e)" height="32" rx="4" width="16" x="10" y="-18"/><path d="m54-50c-2.216 0-4 1.784-4 4v56c0 1.798949 1.184428 3.275003 2.8125 3.78125-1.09126-.454671-1.84375-1.508071-1.84375-2.78125v-56c0-1.697572 1.333678-3.03125 3.03125-3.03125h8c1.697572 0 3.03125 1.333678 3.03125 3.03125v56c0 1.273179-.75249 2.326579-1.84375 2.78125 1.628072-.506247 2.8125-1.982301 2.8125-3.78125v-56c0-2.216-1.784-4-4-4z" fill="url(#h)" opacity=".6"/><path d="m34-34c-2.216 0-4 1.784-4 4v40c0 1.798949 1.184428 3.275003 2.8125 3.78125-1.09126-.454671-1.84375-1.508071-1.84375-2.78125v-40c0-1.697572 1.333678-3.03125 3.03125-3.03125h8c1.697572 0 3.03125 1.333678 3.03125 3.03125v40c0 1.273179-.75249 2.326579-1.84375 2.78125 1.628072-.506247 2.8125-1.982301 2.8125-3.78125v-40c0-2.216-1.784-4-4-4z" fill="url(#g)" opacity=".6"/><path d="m14-18c-2.216 0-4 1.784-4 4v24c0 1.798949 1.184428 3.275003 2.8125 3.78125-1.09126-.454671-1.84375-1.508071-1.84375-2.78125v-24c0-1.697572 1.333678-3.03125 3.03125-3.03125h8c1.697572 0 3.03125 1.333678 3.03125 3.03125v24c0 1.273179-.75249 2.326579-1.84375 2.78125 1.628072-.506247 2.8125-1.982301 2.8125-3.78125v-24c0-2.216-1.784-4-4-4z" fill="url(#f)" opacity=".6"/></g></svg>