<svg height="96" width="96" xmlns="http://www.w3.org/2000/svg" xmlns:xlink="http://www.w3.org/1999/xlink"><linearGradient id="a"><stop offset="0" stop-color="#0c0c0c"/><stop offset=".08692967" stop-color="#2c2c2c"/><stop offset=".09783975" stop-color="#353535"/><stop offset=".5971998" stop-color="#383838"/><stop offset=".60162377" stop-color="#484848"/><stop offset="1" stop-color="#151515"/></linearGradient><linearGradient id="b"><stop offset="0" stop-color="#fff"/><stop offset="1" stop-color="#fff" stop-opacity="0"/></linearGradient><linearGradient id="c"><stop offset="0"/><stop offset="1" stop-opacity="0"/></linearGradient><linearGradient id="d" gradientUnits="userSpaceOnUse" x1="36.357143" x2="36.357143" xlink:href="#b" y1="6" y2="63.893143"/><filter id="e" color-interpolation-filters="sRGB" height="1.384" width="1.384" x="-.192" y="-.192"><feGaussianBlur stdDeviation="5.28"/></filter><linearGradient id="f" gradientUnits="userSpaceOnUse" x1="48" x2="48" xlink:href="#b" y1="20.220806" y2="138.66119"/><radialGradient id="g" cx="48" cy="90.171875" gradientTransform="matrix(1.1573129 0 0 .99590774 -7.551021 .197132)" gradientUnits="userSpaceOnUse" r="42" xlink:href="#b"/><clipPath id="h"><rect height="84" rx="6" width="84" x="6" y="6"/></clipPath><linearGradient id="i" gradientUnits="userSpaceOnUse" x1="48" x2="48" xlink:href="#a" y1="60.51579383078" y2="14.97992468999"/><linearGradient id="j" gradientTransform="matrix(1 0 0 .58611805 10 -14.334166)" gradientUnits="userSpaceOnUse" x1="11" x2="11" xlink:href="#c" y1="84" y2="46.896225"/><clipPath id="k"><path d="m20.15625 18c-1.187143 0-2.15625.892-2.15625 2v70h60v-70c0-1.108-.969107-2-2.15625-2z"/></clipPath><radialGradient id="l" cx="12" cy="64.020409" gradientTransform="matrix(1.0714286 0 0 .4375 -.857143 4.4375)" gradientUnits="userSpaceOnUse" r="4"><stop offset="0" stop-color="#59d338"/><stop offset="1" stop-color="#289140"/></radialGradient><linearGradient id="m" gradientUnits="userSpaceOnUse" x1="19" x2="19" xlink:href="#b" y1="54" y2="15.672464"/><linearGradient id="n" gradientUnits="userSpaceOnUse" x1="15.999999" x2="20.178572" y1="85.0625" y2="85.0625"><stop offset="0" stop-color="#767676"/><stop offset="1" stop-color="#fdfdfd"/></linearGradient><radialGradient id="o" cx="18.089285" cy="85.0625" gradientTransform="matrix(1 0 0 1.0042736 0 -.363523)" gradientUnits="userSpaceOnUse" r="2.089286"><stop offset="0" stop-color="#c1ff97"/><stop offset="1" stop-color="#30c700"/></radialGradient><linearGradient id="p" gradientUnits="userSpaceOnUse" x1="48" x2="48" y1="90" y2="5.987717"><stop offset="0" stop-color="#bebebe"/><stop offset="1" stop-color="#e6e6e6"/></linearGradient><linearGradient id="q" gradientUnits="userSpaceOnUse" x1="48" x2="48" y1="66.468658" y2="51.892151"><stop offset="0" stop-color="#969696"/><stop offset="1" stop-color="#808080" stop-opacity="0"/></linearGradient><linearGradient id="r" gradientUnits="userSpaceOnUse" x1="27.828682" x2="27.828682" xlink:href="#c" y1="65.136421" y2="56.170937"/><linearGradient id="s" gradientUnits="userSpaceOnUse" x1="58.92857" x2="58.92857" y1="72.178574" y2="61.399658"><stop offset="0"/><stop offset="1" stop-color="#1f1f1f"/></linearGradient><radialGradient id="t" cx="48" cy="62.5" gradientTransform="matrix(1 0 0 .03061224 .178571 60.829592)" gradientUnits="userSpaceOnUse" r="28" xlink:href="#b"/><filter id="u" color-interpolation-filters="sRGB" height="1.168" width="1.224" x="-.112" y="-.084"><feGaussianBlur stdDeviation="2.8"/></filter><linearGradient id="v"><stop offset="0" stop-color="#818181"/><stop offset=".2" stop-color="#f9f9f9"/><stop offset="1" stop-color="#dcdcdc" stop-opacity="0"/></linearGradient><linearGradient id="w" gradientUnits="userSpaceOnUse" x1="6" x2="24" xlink:href="#v" y1="73" y2="73"/><linearGradient id="x" gradientTransform="matrix(-1 0 0 1 96 0)" gradientUnits="userSpaceOnUse" x1="6" x2="24" xlink:href="#v" y1="73" y2="73"/><linearGradient id="y" gradientUnits="userSpaceOnUse" x1="148" x2="148" xlink:href="#a" y1="59.608681" y2="18.171156"/><linearGradient id="z" gradientUnits="userSpaceOnUse" x1="28.321428" x2="28.321428" xlink:href="#b" y1="61.933034" y2="70.164193"/><linearGradient id="A" gradientTransform="matrix(1.0058652 0 0 .994169 100 0)" gradientUnits="userSpaceOnUse" x1="45.447727" x2="45.447727" y1="92.539597" y2="7.01654"><stop offset="0"/><stop offset="1" stop-opacity=".588235"/></linearGradient><linearGradient id="B" gradientTransform="matrix(1.0238095 0 0 1.0119048 -1.142857 -98.071429)" gradientUnits="userSpaceOnUse" x1="32.251034" x2="32.251034" xlink:href="#A" y1="6.131708" y2="90.238609"/><linearGradient id="C" gradientTransform="translate(0 -97)" gradientUnits="userSpaceOnUse" x1="32.251034" x2="32.251034" xlink:href="#A" y1="6.131708" y2="90.238609"/><linearGradient id="D"><stop offset="0" stop-color="#ba0000"/><stop offset="1" stop-color="#ff331e"/></linearGradient><linearGradient id="E" gradientTransform="matrix(-.25892856 0 0 -.25892856 64.571427 56.571426)" gradientUnits="userSpaceOnUse" x1="68.457626" x2="68.457626" xlink:href="#D" y1="8" y2="120.01277"/><linearGradient id="F" gradientUnits="userSpaceOnUse" x1="-20.8457924788" x2="-20.8457924788" xlink:href="#D" y1="25.50000248" y2="54.50330771771"/><linearGradient id="G" gradientUnits="userSpaceOnUse" x1="-21.95988578362" x2="-21.95988578362" xlink:href="#b" y1="54.37575155258" y2="36.53083703513"/><linearGradient id="H" gradientUnits="userSpaceOnUse" x1="-23.19200485875" x2="-23.19200485875" xlink:href="#b" y1="25.62246592563" y2="46.14140537612"/><linearGradient id="I" gradientUnits="userSpaceOnUse" x1="51.466244" x2="51.466244" y1="25.606283" y2="73.433472"><stop offset="0" stop-color="#fff6d5"/><stop offset="1" stop-color="#fff6d5" stop-opacity="0"/></linearGradient><g><g fill="url(#B)"><path d="m12-95.03125c-5.5110903 0-10.03125 4.52016-10.03125 10.03125v71c0 5.5110902 4.5201598 10.03125 10.03125 10.03125h72c5.51109 0 10.03125-4.5201597 10.03125-10.03125v-71c0-5.51109-4.52016-10.03125-10.03125-10.03125z" opacity=".08" transform="scale(1 -1)"/><path d="m12-94.03125c-4.971633 0-9.03125 4.059617-9.03125 9.03125v71c0 4.9716329 4.0596171 9.03125 9.03125 9.03125h72c4.971633 0 9.03125-4.059617 9.03125-9.03125v-71c0-4.971633-4.059617-9.03125-9.03125-9.03125z" opacity=".1" transform="scale(1 -1)"/><path d="m12-93c-4.4091333 0-8 3.590867-8 8v71c0 4.4091333 3.5908667 8 8 8h72c4.409133 0 8-3.5908667 8-8v-71c0-4.409133-3.590867-8-8-8z" opacity=".2" transform="scale(1 -1)"/><rect height="85" opacity=".3" rx="7" transform="scale(1 -1)" width="86" x="5" y="-92"/></g><rect fill="url(#C)" height="84" opacity=".45" rx="6" transform="scale(1 -1)" width="84" x="6" y="-91"/></g><g opacity=".98"><rect fill="url(#i)" height="75.918777" rx="5.42277" width="75.918777" x="10.04061" y="10.04061"/><path d="m21 13.7995v42.2005h1v-42.2005zm3 0v42.2005h1v-42.2005zm3 0v42.2005h1v-42.2005zm3 0v42.2005h1v-42.2005zm3 0v42.2005h1v-42.2005zm3 0v42.2005h1v-42.2005zm3 0v42.2005h1v-42.2005zm3 0v42.2005h1v-42.2005zm3 0v42.2005h1v-42.2005zm3 0v42.2005h1v-42.2005zm3 0v42.2005h1v-42.2005zm3 0v42.2005h1v-42.2005zm3 0v42.2005h1v-42.2005zm3 0v42.2005h1v-42.2005zm3 0v42.2005h1v-42.2005zm3 0v42.2005h1v-42.2005zm3 0v42.2005h1v-42.2005zm3 0v42.2005h1v-42.2005zm3 0v42.2005h1v-42.2005z" fill="url(#j)" opacity=".2"/><path d="m19 14v42h1v-42zm3 0v42h1v-42zm3 0v42h1v-42zm3 0v42h1v-42zm3 0v42h1v-42zm3 0v42h1v-42zm3 0v42h1v-42zm3 0v42h1v-42zm3 0v42h1v-42zm3 0v42h1v-42zm3 0v42h1v-42zm3 0v42h1v-42zm3 0v42h1v-42zm3 0v42h1v-42zm3 0v42h1v-42zm3 0v42h1v-42zm3 0v42h1v-42zm3 0v42h1v-42zm3 0v42h1v-42zm3 0v42h1v-42z" fill="url(#m)" opacity=".1"/><path d="m15 48h66v1h-66z" fill="#111"/><path d="m44 49h8v4h-8z" fill="#111"/><rect fill="url(#y)" height="84" rx="6" width="84" x="106" y="6"/><rect height="1" rx=".5" width="54" x="21" y="16"/></g><rect height="66" rx="12" style="opacity:.1;stroke:#fff;stroke-width:.5;stroke-linecap:round;clip-path:url(#h);fill:url(#f);filter:url(#e)" width="66" x="15" y="15"/><rect height="80" rx="2.142857" ry="2" style="opacity:.7;fill:none;stroke:#000;stroke-width:2;clip-path:url(#k);filter:url(#u)" transform="translate(0 -4)" width="60" x="18" y="18"/><g><path d="m48 24.0625c-9.339499 0-16.9375 7.598001-16.9375 16.9375s7.598001 16.9375 16.9375 16.9375 16.9375-7.598001 16.9375-16.9375-7.598001-16.9375-16.9375-16.9375zm1.5 10.375c2.564739.580488 4.482012 2.497762 5.0625 5.0625zm-8.15625 7.625 5.59375 5.59375c-2.922814-.464753-5.128997-2.670936-5.59375-5.59375z" opacity=".1"/><path d="m48 25.09375c-8.773032 0-15.90625 7.133218-15.90625 15.90625s7.133218 15.90625 15.90625 15.90625 15.90625-7.133218 15.90625-15.90625-7.133218-15.90625-15.90625-15.90625zm0 8c4.378516 0 7.90625 3.527736 7.90625 7.90625 0 .379984-.150872.751996-.21875 1.125l-8.8125-8.8125c.37278-.06781.743693-.21875 1.125-.21875zm-7.625 6.5 9.03125 9.03125c-.464125.101141-.917985.28125-1.40625.28125-4.378515 0-7.90625-3.527735-7.90625-7.90625 0-.486713.180017-.9417.28125-1.40625z" opacity=".15"/><path d="m48 25.96875c-8.296448 0-15.03125 6.734802-15.03125 15.03125s6.734802 15.03125 15.03125 15.03125 15.03125-6.734802 15.03125-15.03125-6.734802-15.03125-15.03125-15.03125zm0 6.25c4.853605 0 8.78125 3.927647 8.78125 8.78125 0 1.02665-.242459 1.991274-.5625 2.90625l-11.125-11.125c.914466-.320378 1.877045-.5625 2.90625-.5625zm-8.125 5.625 11.28125 11.28125c-.987415.388147-2.027662.65625-3.15625.65625-4.853604 0-8.78125-3.927646-8.78125-8.78125 0-1.126006.268568-2.16844.65625-3.15625z" opacity=".3"/><path d="m12 6c-3.324 0-6 2.676-6 6v38 24c0 3.324 2.676 6 6 6h72c3.324 0 6-2.676 6-6v-24-38c0-3.324-2.676-6-6-6zm8.15625 8h55.6875c1.187143 0 2.15625.892 2.15625 2v32l-2 2v6 6h-56v-6-6l-2-2v-32c0-1.108.969107-2 2.15625-2z" fill="url(#p)"/><path d="m6 50v24c0 3.324 2.676 6 6 6h72c3.324 0 6-2.676 6-6v-24c0 3.324-2.676 6-6 6h-4-4v6h-56v-6h-4-4c-3.324 0-6-2.676-6-6z" fill="url(#q)" opacity=".98"/><path d="m12 6c-3.324 0-6 2.676-6 6v2 68 2c0 .334721.04135.6507.09375.96875.0487.295596.09704.596915.1875.875.00988.03038.020892.0636.03125.09375.098865.287771.2348802.547452.375.8125.1445918.273507.3156161.535615.5.78125s.3737765.473472.59375.6875c.439947.428056.94291.814526 1.5 1.09375.278545.139612.5734731.246947.875.34375-.2562018-.100222-.4867109-.236272-.71875-.375-.00741-.0044-.023866.0045-.03125 0-.031933-.0193-.062293-.04251-.09375-.0625-.120395-.0767-.2310226-.163513-.34375-.25-.1061728-.0808-.2132809-.161112-.3125-.25-.1779299-.161433-.3474596-.345388-.5-.53125-.1075789-.130255-.2183939-.265285-.3125-.40625-.025089-.03838-.038446-.08587-.0625-.125-.064763-.103032-.1302275-.204517-.1875-.3125-.1010083-.194706-.2056748-.415701-.28125-.625-.00796-.02181-.023589-.04055-.03125-.0625-.0318251-.09195-.0358045-.186831-.0625-.28125-.0303323-.106618-.0703894-.203031-.09375-.3125-.0728786-.341512-.125-.698205-.125-1.0625v-2-68-2c0-2.781848 2.2181517-5 5-5h2 68 2c2.781848 0 5 2.218152 5 5v2 68 2c0 .364295-.05212.720988-.125 1.0625-.04415.206893-.08838.397658-.15625.59375-.0077.02195-.0233.04069-.03125.0625-.06274.173739-.138383.367449-.21875.53125-.04158.0828-.07904.169954-.125.25-.0546.09721-.126774.18835-.1875.28125-.09411.140965-.204921.275995-.3125.40625-.143174.17445-.303141.346998-.46875.5-.01117.0102-.01998.02115-.03125.03125-.138386.125556-.285091.234436-.4375.34375-.102571.07315-.204318.153364-.3125.21875-.0074.0045-.02384-.0044-.03125 0-.232039.138728-.462548.274778-.71875.375.301527-.0968.596455-.204138.875-.34375.55709-.279224 1.060053-.665694 1.5-1.09375.219973-.214028.409366-.441865.59375-.6875s.355408-.507743.5-.78125c.14012-.265048.276135-.524729.375-.8125.01041-.03078.02133-.06274.03125-.09375.09046-.278085.1388-.579404.1875-.875.0524-.31805.09375-.634029.09375-.96875v-2-68-2c0-3.324-2.676-6-6-6z" fill="url(#d)" opacity=".5"/><path d="m6 72v12c0 3.324 2.676 6 6 6h72c3.324 0 6-2.676 6-6v-12c0 3.324-2.676 6-6 6h-72c-3.324 0-6-2.676-6-6z" fill="#424242" opacity=".98"/><path d="m12 90c-3.324 0-6-2.676-6-6v-2-68-2c0-.334721.04135-.6507.09375-.96875.0487-.295596.09704-.596915.1875-.875.00988-.03038.020892-.0636.03125-.09375.098865-.287771.2348802-.547452.375-.8125.1445918-.273507.3156161-.535615.5-.78125s.3737765-.473472.59375-.6875c.439947-.428056.94291-.814526 1.5-1.09375.278545-.139612.5734731-.246947.875-.34375-.2562018.100222-.4867109.236272-.71875.375-.00741.0044-.023866-.0045-.03125 0-.031933.0193-.062293.04251-.09375.0625-.120395.0767-.2310226.163513-.34375.25-.1061728.0808-.2132809.161112-.3125.25-.1779299.161433-.3474596.345388-.5.53125-.1075789.130255-.2183939.265285-.3125.40625-.025089.03838-.038446.08587-.0625.125-.064763.103032-.1302275.204517-.1875.3125-.1010083.194706-.2056748.415701-.28125.625-.00796.02181-.023589.04055-.03125.0625-.0318251.09195-.0358045.186831-.0625.28125-.0303323.106618-.0703894.203031-.09375.3125-.0728786.341512-.125.698205-.125 1.0625v2 68 2c0 2.781848 2.2181517 5 5 5h2 68 2c2.781848 0 5-2.218152 5-5v-2-68-2c0-.364295-.05212-.720988-.125-1.0625-.04415-.206893-.08838-.397658-.15625-.59375-.0077-.02195-.0233-.04069-.03125-.0625-.06274-.173739-.138383-.367449-.21875-.53125-.04158-.0828-.07904-.169954-.125-.25-.0546-.09721-.126774-.18835-.1875-.28125-.09411-.140965-.204921-.275995-.3125-.40625-.143174-.17445-.303141-.346998-.46875-.5-.01117-.0102-.01998-.02115-.03125-.03125-.138386-.125556-.285091-.234436-.4375-.34375-.102571-.07315-.204318-.153364-.3125-.21875-.0074-.0045-.02384.0044-.03125 0-.232039-.138728-.462548-.274778-.71875-.375.301527.0968.596455.204138.875.34375.55709.279224 1.060053.665694 1.5 1.09375.219973.214028.409366.441865.59375.6875s.355408.507743.5.78125c.14012.265048.276135.524729.375.8125.01041.03078.02133.06274.03125.09375.09046.278085.1388.579404.1875.875.0524.31805.09375.634029.09375.96875v2 68 2c0 3.324-2.676 6-6 6z" fill="url(#g)" opacity=".2"/><path d="m19.15625 13c-1.187143 0-2.15625.892-2.15625 2v32l1 1v-32c0-1.108.969107-2 2.15625-2h55.6875c1.187143 0 2.15625.892 2.15625 2v32l1-1v-32c0-1.108-.969107-2-2.15625-2zm-.15625 36v6l-1 1h2v-6zm58 0-1 1v6h2l-1-1z" fill="#fff" opacity=".6"/><g fill="#666" transform="translate(0 -1)"><path d="m42.074835 10.044068h1.4943v.420272h-.887241v.341554h.757824v.394922h-.757824v.799184h-.607059z"/><path d="m44.844627 11.677124h-.688445l-.094728.322876h-.617733l.735142-1.955932h.659093l.735142 1.955932h-.632409l-.09606-.322876m-.126749-.42294-.21614-.703121-.214805.703121z"/><path d="m45.763888 10.044068h1.619715v.417604h-1.01399v.310867h.940609v.398925h-.940609v.385583h1.043342v.442953h-1.649067z"/><path d="m47.743836 10.044068h.564365l.736476 1.082033v-1.082033h.569702v1.955932h-.569702l-.732474-1.074028v1.074028h-.568367z"/><path d="m49.969275 10.044068h1.71044v.39092l-1.09671 1.14474h1.136736v.420272h-1.855867v-.405596l1.084701-1.132732h-.9793z"/><path d="m53.196696 11.677124h-.688445l-.094728.322876h-.617733l.735142-1.955932h.659093l.735143 1.955932h-.63241l-.09606-.322876m-.126748-.42294-.21614-.703121-.214806.703121z"/></g><path d="m110 56h56v6h-56z" fill="#f00" opacity=".7"/><path d="m6 50v34c0 3.324 2.676 6 6 6h12v-34h-4-4-4c-3.324 0-6-2.676-6-6z" fill="url(#w)" opacity=".15"/><path d="m20 62c0 5.54 12.488 10 28 10s28-4.46 28-10z" fill="url(#s)"/><path d="m90 50c0 3.324-2.676 6-6 6h-4-4-4v34h12c3.324 0 6-2.676 6-6z" fill="url(#x)" opacity=".15"/><path d="m21 62.535714c0 2.232915 2.062272 4.276793 5.5 5.9375 6.264007-2.593359 14.151673-4.646346 23.0625-5.9375z" fill="url(#z)" opacity=".6"/><path d="m20 56v6c0 5.54 12.488 10 28 10s28-4.46 28-10v-6h-1v1 .4375 4.5625c0 1.005494-.569544 2.045504-1.84375 3.125s-3.233962 2.123736-5.6875 3c-4.907077 1.752527-11.809563 2.875-19.46875 2.875s-14.561673-1.122473-19.46875-2.875c-2.453538-.876264-4.413294-1.920504-5.6875-3s-1.84375-2.119506-1.84375-3.125v-4.5625-.4375-1z" fill="url(#r)"/><path d="m21 61h54v1h-54z"/><path d="m19 56v7c0 5.54 12.934 10 29 10s29-4.46 29-10v-7h-1v6c0 5.54-12.488 10-28 10s-28-4.46-28-10v-6z" fill="#fff" opacity=".4"/><path d="m6 71v2c0 3.324 2.676 6 6 6h72c3.324 0 6-2.676 6-6v-2c0 3.324-2.676 6-6 6h-72c-3.324 0-6-2.676-6-6z" opacity=".3"/><path d="m6 49v1c0 3.324 2.676 6 6 6h8v-1h-8c-3.324 0-6-2.676-6-6zm84 0c0 3.324-2.676 6-6 6h-8v1h8c3.324 0 6-2.676 6-6z" fill="#fff" opacity=".5"/><path d="m20.178571 61.885714c0 .576113.06646 1.153092.15625 1.714286h55.6875c.08979-.561194.15625-1.138173.15625-1.714286z" fill="url(#t)"/><path d="m48 54.5c8.004 0 14.5-6.496 14.5-14.5s-6.496-14.5-14.5-14.5-14.5 6.496-14.5 14.5c0 8.004001 6.496 14.5 14.5 14.5zm0-5.178574c-5.145429 0-9.321428-4.176-9.321428-9.321426 0-1.390538.311011-2.706373.857701-3.892023l12.363839 12.355753c-1.187377.54863-2.506952.857696-3.900112.857696zm8.350445-5.194751-12.48521-12.477121c1.246889-.619162 2.649023-.970981 4.134765-.970981 5.145427 0 9.321427 4.176 9.321427 9.321427 0 1.483171-.353825 2.881396-.970982 4.126675z" fill="url(#E)" stroke="#a00000" stroke-linecap="round"/><path d="m48 25.09375c-8.773032 0-15.90625 7.133218-15.90625 15.90625s7.133218 15.90625 15.90625 15.90625 15.90625-7.133218 15.90625-15.90625-7.133218-15.90625-15.90625-15.90625zm0 8c4.378516 0 7.90625 3.527736 7.90625 7.90625 0 .379984-.150872.751996-.21875 1.125l-8.8125-8.8125c.37278-.06781.743693-.21875 1.125-.21875zm-7.625 6.5 9.03125 9.03125c-.464125.101141-.917985.28125-1.40625.28125-4.378515 0-7.90625-3.527735-7.90625-7.90625 0-.486713.180017-.9417.28125-1.40625z" opacity=".15" transform="translate(-70)"/><path d="m48 25.96875c-8.296448 0-15.03125 6.734802-15.03125 15.03125s6.734802 15.03125 15.03125 15.03125 15.03125-6.734802 15.03125-15.03125-6.734802-15.03125-15.03125-15.03125zm0 6.25c4.853605 0 8.78125 3.927647 8.78125 8.78125 0 1.02665-.242459 1.991274-.5625 2.90625l-11.125-11.125c.914466-.320378 1.877045-.5625 2.90625-.5625zm-8.125 5.625 11.28125 11.28125c-.987415.388147-2.027662.65625-3.15625.65625-4.853604 0-8.78125-3.927646-8.78125-8.78125 0-1.126006.268568-2.16844.65625-3.15625z" opacity=".3" transform="translate(-70)"/><path d="m-22 25.5c-8.004 0-14.5 6.496-14.5 14.5s6.496 14.500001 14.5 14.500001 14.5-6.496001 14.5-14.500001-6.496-14.5-14.5-14.5zm0 5.178574c5.145428 0 9.321428 4.176 9.321428 9.321426 0 1.390538-.311011 2.706373-.857701 3.892023l-12.363839-12.355753c1.187377-.54863 2.506952-.857696 3.900112-.857696zm-8.350445 5.194751 12.48521 12.477121c-1.246889.619162-2.649023.970981-4.134765.970981-5.145427 0-9.321427-4.176-9.321427-9.321427 0-1.483171.353825-2.881396.970982-4.126675z" fill="url(#F)" stroke="#a00000" stroke-linecap="round"/><path d="m-22 25.63063c-7.931895 0-14.36937 6.437475-14.36937 14.36937s6.437475 14.36937 14.36937 14.36937c7.931892 0 14.369369-6.437475 14.369369-14.36937s-6.437477-14.36937-14.369369-14.36937zm0 .783783c7.499243 0 13.585586 6.086341 13.585586 13.585587s-6.086343 13.585587-13.585586 13.585587c-7.499246 0-13.585587-6.086341-13.585587-13.585587s6.086341-13.585587 13.585587-13.585587z" fill="url(#G)" opacity=".6"/><path d="m-22 25.622466c-7.307198 0-13.344109 5.463458-14.255067 12.524212 1.533285.428891 3.154138.782586 4.841494 1.069538.100371-1.212638.431415-2.355916.947072-3.396393.01469-.03079.04116-.05436.07348-.06532.04622-.01518.09701-.0025.13063.03264l4.057716 4.057711c1.372878.0989 2.777322.155125 4.204674.155125 1.435728 0 2.848596-.0551 4.229167-.155125l-8.221566-8.221562c-.02899-.0298-.04082-.07352-.03266-.114303.0082-.04078.03525-.07343.07348-.08981 1.203408-.556041 2.539767-.865428 3.951577-.865428 4.949826 0 9.014613 3.81487 9.413569 8.662442 1.687356-.286952 3.308214-.640647 4.841499-1.069539-.910954-7.060748-6.947866-12.524206-14.255066-12.524206z" fill="url(#H)" opacity=".8"/><path d="m48 25.5c-8.004 0-14.5 6.496-14.5 14.5 0 .170442.02541.330974.03125.5.268555-7.768487 6.635192-14 14.46875-14s14.200195 6.231513 14.46875 14c.005843-.169026.03125-.329558.03125-.5 0-8.004-6.496-14.5-14.5-14.5zm-3.40625 6.875c-.23899.09514-.489786.167554-.71875.28125l12.46875 12.46875c.617157-1.245279.96875-2.641829.96875-4.125 0-.214512-.01697-.41409-.03125-.625-.05492 1.342062-.373321 2.611618-.9375 3.75zm-5.875 8.28125c-.004292.115017-.03125.22766-.03125.34375 0 5.145426 4.167071 9.3125 9.3125 9.3125 1.39316 0 2.718873-.29512 3.90625-.84375l-.71875-.71875c-.993775.362847-2.068375.5625-3.1875.5625-4.920209 0-8.937552-3.823068-9.28125-8.65625z" fill="url(#I)" opacity=".6"/></g><g><rect fill="#fff" height="4" opacity=".4" rx="1" width="8" x="8" y="31"/><rect fill="url(#l)" height="3.5" rx=".535714" ry=".4375" stroke="#008033" stroke-width=".5" width="7.5" x="8.25" y="30.25"/><path d="m8.75 36c-.4155 0-.75.3345-.75.75v2.5c0 .4155.3345.75.75.75-.4155 0-.75.3345-.75.75v2.5c0 .4155.3345.75.75.75h2.5c.4155 0 .75-.3345.75-.75 0 .4155.3345.75.75.75h2.5c.4155 0 .75-.3345.75-.75v-2.5c0-.4155-.3345-.75-.75-.75.4155 0 .75-.3345.75-.75v-2.5c0-.4155-.3345-.75-.75-.75h-2.5c-.4155 0-.75.3345-.75.75 0-.4155-.3345-.75-.75-.75zm3.25 3.25c0 .4155.3345.75.75.75-.4155 0-.75.3345-.75.75 0-.4155-.3345-.75-.75-.75.4155 0 .75-.3345.75-.75z" opacity=".183761"/><rect fill="#fff" height="3" rx=".5" transform="rotate(-90)" width="3" x="-43" y="8"/><g transform="matrix(.99997954 0 0 1 -7.499675 -34.5)"><path d="m20.178571 85.0625a2.0892856 2.0982144 0 1 1 -4.178572 0 2.0892856 2.0982144 0 1 1 4.178572 0z" fill="url(#n)" transform="matrix(0 1.6709402 1.6638297 0 -122.03844 53.282815)"/><path d="m20.178571 85.0625a2.0892856 2.0982144 0 1 1 -4.178572 0 2.0892856 2.0982144 0 1 1 4.178572 0z" fill="url(#o)" stroke="#000" stroke-linecap="square" stroke-opacity=".531818" stroke-width=".840508" transform="matrix(1.1923077 0 0 1.1872339 -2.076928 -17.480158)"/></g><path d="m8 25h1v1h-1z" fill="#ff7600"/><g fill="#4d4d4d" transform="translate(0 -26)"><path d="m10.638237 52-.393847-.695967c.0021.01882.0041.03763.0058.05645.0017.01625.003.03378.0038.0526.0013.01882.0019.03678.0019.05388v.53304h-.168058v-.903795h.216167l.399619.70174c-.0021-.01796-.0041-.03678-.0058-.05645-.0017-.01668-.0032-.03549-.0045-.05645-.000856-.02095-.0013-.04212-.0013-.0635v-.525343h.168059v.903795h-.22194"/><path d="m11.325224 52.012829c-.05003 0-.09515-.0073-.135345-.02181-.03977-.01497-.07377-.03742-.10199-.06735-.02822-.03036-.04982-.06821-.06479-.113535-.01497-.04576-.02245-.09921-.02245-.160362 0-.06628.0088-.122087.0263-.167416.01796-.04533.04191-.08189.07184-.109687.03036-.02822.06521-.04854.104555-.06094.03934-.0124.08082-.0186.124441-.0186.05474.000001.101347.0096.139834.02886.03891.01882.07077.04533.09558.07954.0248.03421.04298.07526.05452.123157.01155.04747.01732.100065.01732.157795v.0051h-.445162c0 .02908.0026.05623.0077.08146.0051.0248.01347.0464.02502.06479.01154.01796.02651.03229.0449.04298.01839.01026.04062.01539.06671.01539.03164 0 .05752-.0066.07761-.01988.0201-.01368.03442-.03464.04298-.06286l.169982.01475c-.0077.01967-.0186.04062-.03271.06286-.01369.02224-.03207.04276-.05517.06158-.02309.01839-.05196.03378-.08659.04618-.03421.01197-.0759.01796-.125081.01796m0-.606165c-.01839.000001-.03571.0032-.05196.0096-.01582.006-.02972.01582-.04169.02951-.01155.01326-.02095.03058-.02822.05196-.0073.02138-.01133.04704-.01219.07697h.269407c-.0034-.05602-.01689-.09793-.04041-.125723-.02352-.02822-.05517-.04233-.09493-.04234"/><path d="m11.949991 52.011546c-.05303 0-.09387-.01433-.122516-.04298-.02865-.02908-.04298-.07291-.04298-.131496v-.409241h-.08788v-.121875h.09686l.05645-.162926h.112894v.162926h.131496v.121875h-.131496v.360491c0 .03378.0064.0588.01924.07505.01283.01582.03271.02373.05965.02373.01112 0 .02117-.000855.03015-.0026.009-.0017.01903-.0038.03015-.0064v.111611c-.02224.0073-.04576.01262-.07056.01604-.0248.0038-.05196.0058-.08146.0058"/><path d="m12.961548 52h-.190509l-.110328-.423353c-.0034-.01326-.0068-.02801-.01026-.04426-.0034-.01668-.0066-.03229-.0096-.04682l-.01026-.05132c-.0038.01711-.0077.03421-.01155.05132-.0034.01454-.0071.03015-.0109.04682-.0038.01668-.0075.03186-.0109.04554l-.111645.422073h-.190508l-.179605-.694043h.169341l.08788.407959c.0026.01155.0053.02459.0083.03913.003.01411.0058.02737.0083.03977.003.01454.0062.02908.0096.04362.003-.01625.006-.03207.009-.04747.0026-.01326.0053-.02673.0083-.04041s.0056-.02523.0077-.03464l.109045-.407959h.193075l.10648.407959c.003.01112.006.02373.009.03785.003.01411.0058.02737.0083.03977.003.01454.006.02951.009.0449.0034-.0154.0066-.03036.0096-.0449.0026-.0124.0053-.02566.0083-.03977s.0058-.02673.0083-.03785l.09173-.407959h.166775z"/><path d="m13.891642 51.652337c-.000001.05303-.0075.101562-.02245.145608-.01454.04405-.03656.0821-.06607.114177-.02951.03165-.06628.05645-.110328.07441-.04405.01753-.09536.0263-.153947.0263-.05645 0-.106266-.0088-.149457-.0263-.04319-.01753-.07954-.04212-.109045-.07377-.02908-.03165-.0511-.06949-.06607-.113536-.01497-.04447-.02245-.09344-.02245-.146891 0-.05174.0071-.09942.02117-.143042.01454-.04405.03635-.0821.06543-.114177.02908-.03207.06564-.05709.109687-.07505.04405-.01796.09557-.02694.154588-.02694.06243.000001.115673.009.159719.02694.04405.01796.07997.04298.107763.07505.02822.03165.04875.06949.06158.113536.01326.04362.01988.09151.01988.143683m-.188584 0c-.000001-.08253-.01347-.1424-.04041-.179604-.02694-.0372-.06607-.0558-.117385-.05581-.05303.000001-.09365.01882-.121874.05645-.02822.03763-.04234.09729-.04233.178963-.000001.04148.0036.07719.0109.107121.0077.02993.01839.05452.03207.07377.01368.01924.03015.03357.04939.04298.01924.009.04041.01347.0635.01347.02651 0 .05003-.0045.07056-.01347.02095-.0094.03849-.02373.0526-.04298.01411-.01924.0248-.04383.03207-.07377.0073-.02993.0109-.06564.01091-.107121"/><path d="m14.035326 52v-.531116c0-.01497-.000214-.03079-.000642-.04747 0-.01668-.000427-.0325-.0013-.04747-.000427-.01539-.000855-.02908-.0013-.04105-.000428-.0124-.0011-.02138-.0019-.02694h.171907c.000855.0051.0017.01411.0026.02694.000855.0124.0017.02609.0026.04105.000855.01497.0015.02994.0019.0449.000855.01454.0013.0263.0013.03528h.0026c.009-.02523.01796-.04768.02694-.06735.009-.0201.01946-.03699.03143-.05067.0124-.01411.02715-.0248.04426-.03207.0171-.0077.03827-.01154.0635-.01155.01069.000001.02117.0011.03143.0032.01069.0017.01882.0038.02438.0064v.150739c-.01155-.0026-.02331-.0047-.03528-.0064-.01155-.0021-.02544-.0032-.04169-.0032-.0449.000001-.07997.01817-.105197.05452-.0248.03635-.0372.09023-.0372.161644v.340607h-.180246"/><path d="m14.989153 52-.185377-.314308-.07761.05388v.260426h-.180246v-.951903h.180246v.545227l.247598-.287367h.193716l-.243749.27069.262346.423355z"/></g><path d="m8 27h1v1h-1z" fill="#f00"/><g fill="#4d4d4d" transform="translate(0 -26)"><path d="m10.087878 54v-.903795h.71072v.146249h-.521494v.227072h.482366v.146249h-.482366v.237976h.547793v.146249z"/><path d="m10.969222 54v-.531116c0-.01497-.000214-.03079-.000641-.04747 0-.01668-.000428-.0325-.0013-.04747-.000428-.01539-.000855-.02908-.0013-.04105-.000428-.0124-.0011-.02138-.0019-.02694h.171907c.000855.0051.0017.01411.0026.02694.000855.0124.0017.02609.0026.04105.000855.01497.0015.02994.0019.0449.000855.01454.0013.0263.0013.03528h.0026c.009-.02523.01796-.04768.02694-.06735.009-.0201.01946-.03699.03143-.05067.0124-.01411.02715-.0248.04426-.03207.01711-.0077.03827-.01154.0635-.01155.01069.000001.02117.0011.03143.0032.01069.0017.01882.0038.02438.0064v.150739c-.01155-.0026-.02331-.0047-.03528-.0064-.01155-.0021-.02544-.0032-.04169-.0032-.0449.000001-.07997.01817-.105197.05452-.0248.03635-.0372.09023-.0372.161644v.340607h-.180246"/><path d="m11.479812 54v-.531116c0-.01497-.000214-.03079-.000642-.04747 0-.01668-.000427-.0325-.0013-.04747-.000428-.01539-.000856-.02908-.0013-.04105-.000428-.0124-.0011-.02138-.0019-.02694h.171907c.000855.0051.0017.01411.0026.02694.000855.0124.0017.02609.0026.04105.000855.01497.0015.02994.0019.0449.000855.01454.0013.0263.0013.03528h.0026c.009-.02523.01796-.04768.02694-.06735.009-.0201.01946-.03699.03143-.05067.0124-.01411.02715-.0248.04426-.03207.0171-.0077.03827-.01154.0635-.01155.01069.000001.02117.0011.03143.0032.01069.0017.01882.0038.02437.0064v.150739c-.01155-.0026-.02331-.0047-.03528-.0064-.01155-.0021-.02544-.0032-.04169-.0032-.0449.000001-.07997.01817-.105197.05452-.0248.03635-.0372.09023-.0372.161644v.340607h-.180246"/><path d="m12.649806 53.652337c-.000001.05303-.0075.101562-.02245.145608-.01454.04405-.03656.0821-.06607.114177-.02951.03165-.06628.05645-.110329.07441-.04405.01753-.09536.0263-.153946.0263-.05645 0-.106266-.0088-.149457-.0263-.04319-.01753-.07954-.04212-.109045-.07377-.02908-.03165-.0511-.06949-.06607-.113536-.01497-.04447-.02245-.09344-.02245-.146891-.000001-.05174.0071-.09942.02117-.143042.01454-.04405.03635-.0821.06543-.114177.02908-.03207.06564-.05709.109687-.07505.04405-.01796.09558-.02694.154588-.02694.06243.000001.115674.009.15972.02694.04405.01796.07997.04298.107763.07505.02822.03165.04875.06949.06158.113536.01326.04362.01988.09151.01989.143683m-.188584 0c-.000001-.08253-.01347-.1424-.04041-.179604-.02694-.0372-.06607-.0558-.117385-.05581-.05303.000001-.09365.01882-.121874.05645-.02822.03763-.04234.09729-.04233.178963-.000001.04148.0036.07719.0109.107121.0077.02993.01839.05452.03207.07377.01368.01924.03015.03357.04939.04298.01924.009.04041.01347.0635.01347.02651 0 .05003-.0045.07056-.01347.02095-.0094.03849-.02373.0526-.04298.01411-.01924.0248-.04383.03207-.07377.0073-.02993.0109-.06564.0109-.107121"/><path d="m12.79349 54v-.531116c0-.01497-.000214-.03079-.000642-.04747 0-.01668-.000427-.0325-.0013-.04747-.000427-.01539-.000855-.02908-.0013-.04105-.000427-.0124-.0011-.02138-.0019-.02694h.171907c.000855.0051.0017.01411.0026.02694.000855.0124.0017.02609.0026.04105.000855.01497.0015.02994.0019.0449.000855.01454.0013.0263.0013.03528h.0026c.009-.02523.01796-.04768.02694-.06735.009-.0201.01946-.03699.03143-.05067.0124-.01411.02715-.0248.04426-.03207.01711-.0077.03827-.01154.0635-.01155.01069.000001.02117.0011.03143.0032.01069.0017.01882.0038.02437.0064v.150739c-.01155-.0026-.02331-.0047-.03528-.0064-.01155-.0021-.02544-.0032-.04169-.0032-.0449.000001-.07997.01817-.105197.05452-.0248.03635-.0372.09023-.0372.161644v.340607h-.180246"/></g><path d="m8 23h1v1h-1z" fill="#ff7600"/><g fill="#4d4d4d" transform="translate(0 -26)"><path d="m10.831312 49.382289c-.000001.03892-.0066.07655-.01989.112894-.01283.03592-.03271.06778-.05965.09558s-.06115.05003-.102631.06671c-.04148.01625-.09066.02437-.147533.02437h-.224505v.318156h-.189226v-.903795h.406034c.05773.000001.107762.0071.150098.02117.04233.01369.0774.03314.105197.05837.02779.02523.04832.05538.06158.09044.01368.03507.02052.07377.02053.116101m-.190509.0032c-.000001-.04661-.01411-.08189-.04234-.105838-.0278-.02437-.0697-.03656-.125723-.03656h-.19564v.29314h.200772c.02822 0 .05238-.0036.07248-.01091.02053-.0073.03742-.01753.05067-.03079.01368-.01326.02373-.02908.03015-.04747.0064-.01881.0096-.03934.0096-.06158"/><path d="m11.628627 49.652337c-.000001.05303-.0075.101562-.02245.145608-.01454.04405-.03656.0821-.06607.114177-.02951.03165-.06628.05645-.110329.07441-.04405.01753-.09536.0263-.153946.0263-.05645 0-.106267-.0088-.149457-.0263-.04319-.01753-.07954-.04212-.109045-.07377-.02908-.03165-.0511-.06949-.06607-.113536-.01497-.04447-.02245-.09344-.02245-.146891 0-.05174.0071-.09942.02117-.143042.01454-.04405.03635-.0821.06543-.114177.02908-.03207.06564-.05709.109687-.07505.04405-.01796.09558-.02694.154588-.02694.06243.000001.115673.009.15972.02694.04405.01796.07997.04298.107762.07505.02822.03165.04875.06949.06158.113536.01326.04362.01988.09151.01989.143683m-.188585 0c0-.08253-.01347-.1424-.04041-.179604-.02694-.0372-.06607-.0558-.117384-.05581-.05303.000001-.09365.01882-.121874.05645-.02822.03763-.04234.09729-.04234.178963 0 .04148.0036.07719.01091.107121.0077.02993.01839.05452.03207.07377.01368.01924.03015.03357.04939.04298.01924.009.04041.01347.0635.01347.02651 0 .05003-.0045.07056-.01347.02095-.0094.03849-.02373.0526-.04298.01411-.01924.0248-.04383.03207-.07377.0073-.02993.0109-.06564.0109-.107121"/><path d="m12.5228 50h-.190509l-.110328-.423353c-.0034-.01326-.0068-.02801-.01026-.04426-.0034-.01668-.0066-.03229-.0096-.04682l-.01026-.05132c-.0038.01711-.0077.03421-.01155.05132-.0034.01454-.0071.03015-.0109.04682-.0038.01668-.0075.03186-.0109.04554l-.111644.422073h-.190509l-.179605-.694043h.169342l.08788.407959c.0026.01155.0053.02459.0083.03913.003.01411.0058.02737.0083.03977.003.01454.0062.02908.0096.04362.003-.01625.006-.03207.009-.04747.0026-.01326.0053-.02673.0083-.04041s.0056-.02523.0077-.03464l.109045-.407959h.193075l.10648.407959c.003.01112.006.02373.009.03785.003.01411.0058.02737.0083.03977.003.01454.006.02951.009.0449.0034-.0154.0066-.03036.0096-.0449.0026-.0124.0053-.02566.0083-.03977s.0058-.02673.0083-.03785l.09173-.407959h.166775z"/><path d="m13.077649 50.012829c-.05003 0-.09515-.0073-.135344-.02181-.03977-.01497-.07377-.03742-.10199-.06735-.02822-.03036-.04982-.06821-.06479-.113535-.01497-.04576-.02245-.09921-.02245-.160362 0-.06628.0088-.122087.0263-.167416.01796-.04533.04191-.08189.07184-.109687.03036-.02822.06521-.04854.104555-.06094.03934-.0124.08082-.0186.12444-.0186.05474.000001.101348.0096.139835.02886.03891.01882.07077.04533.09558.07954.0248.03421.04298.07526.05452.123157.01154.04747.01732.100065.01732.157795v.0051h-.445162c-.000001.02908.0026.05623.0077.08146.0051.0248.01347.0464.02502.06479.01155.01796.02651.03229.0449.04298.01839.01026.04063.01539.06671.01539.03164 0 .05752-.0066.07761-.01988.0201-.01368.03442-.03464.04298-.06286l.169983.01475c-.0077.01967-.0186.04062-.03271.06286-.01368.02224-.03207.04276-.05516.06158-.02309.01839-.05196.03378-.0866.04618-.03421.01197-.07591.01796-.125082.01796m0-.606165c-.01839.000001-.03571.0032-.05196.0096-.01582.006-.02972.01582-.04169.02951-.01155.01326-.02095.03058-.02822.05196-.0073.02138-.01133.04704-.01219.07697h.269406c-.0034-.05602-.01689-.09793-.04041-.125723-.02352-.02822-.05516-.04233-.09493-.04234"/><path d="m13.524736 50v-.531116c0-.01497-.000214-.03079-.000641-.04747 0-.01668-.000428-.0325-.0013-.04747-.000428-.01539-.000856-.02908-.0013-.04105-.000428-.0124-.0011-.02138-.0019-.02694h.171907c.000855.0051.0017.01411.0026.02694.000855.0124.0017.02609.0026.04105.000855.01497.0015.02994.0019.0449.000855.01454.0013.0263.0013.03528h.0026c.009-.02523.01796-.04768.02694-.06735.009-.0201.01946-.03699.03143-.05067.0124-.01411.02715-.0248.04426-.03207.01711-.0077.03827-.01154.0635-.01155.01069.000001.02117.0011.03143.0032.01069.0017.01882.0038.02437.0064v.150739c-.01155-.0026-.02331-.0047-.03528-.0064-.01155-.0021-.02544-.0032-.04169-.0032-.0449.000001-.07997.01817-.105197.05452-.0248.03635-.0372.09023-.0372.161644v.340607h-.180246"/></g><g fill="#fff" transform="rotate(-90)"><rect height="3" rx=".5" width="3" x="-43" y="12"/><rect height="3" rx=".5" width="3" x="-39" y="8"/><rect height="3" rx=".5" width="3" x="-39" y="12"/></g></g></svg>