<svg height="16" width="16" xmlns="http://www.w3.org/2000/svg"><path d="m8 2c-3.8659929 0-7 2.4101491-7 6 0 3.589851 3.1340071 6 7 6 1.064957 0 2.065093-.229965 2.96875-.625l4.03125 1.625-1.4375-3.5625c.903172-1.094701 1.4375-1.951935 1.4375-3.4375 0-3.5898509-3.134007-6-7-6zm-3 5c.5522847 0 1 .4477153 1 1s-.4477153 1-1 1-1-.4477153-1-1 .4477153-1 1-1zm3 0c.5522847 0 1 .4477153 1 1s-.4477153 1-1 1-1-.4477153-1-1 .4477153-1 1-1zm3 0c.552285 0 1 .4477153 1 1s-.447715 1-1 1-1-.4477153-1-1 .447715-1 1-1z" fill="#bebebe"/></svg>