<svg height="16" width="16" xmlns="http://www.w3.org/2000/svg"><g fill="#bebebe"><path d="m13 8c0 2.209139-2.238576 4-5 4-2.7614237 0-5-1.790861-5-4s2.2385763-4 5-4h.0000001l-.0000001 4z" opacity=".45"/><path d="m8 2c-3.8659929 0-7 2.4101491-7 6 0 3.589851 3.1340071 6 7 6 1.064957 0 2.065093-.229965 2.96875-.625l4.03125 1.625-1.4375-3.5625c.903172-1.094701 1.4375-1.951935 1.4375-3.4375 0-3.5898509-3.134007-6-7-6zm0 2c2.761424 0 5 1.7908611 5 4 0 2.209139-2.238576 4-5 4-2.7614237 0-5-1.790861-5-4 0-2.2091389 2.2385763-4 5-4z"/></g></svg>