<svg height="16" width="16" xmlns="http://www.w3.org/2000/svg"><g fill="#bebebe"><path d="m7.5 3c-2.335799 0-4.2462186 1.7851525-4.46875 4.0625-1.1541843.2213766-2.03125 1.2187563-2.03125 2.4375 0 1.380712 1.1192881 2.5 2.5 2.5h4 4c1.932997 0 3.5-1.567003 3.5-3.5 0-1.9329967-1.567003-3.5-3.5-3.5-.084319 0-.167173.0253863-.25.03125-.803438-1.2285609-2.172482-2.03125-3.75-2.03125z"/><path d="m8.5 8c-1.409389 0-2.601526.8306837-3.15625 2.03125-1.3052.083492-2.34375 1.14247-2.34375 2.46875 0 1.380712 1.119288 2.5 2.5 2.5h3c1.932997 0 3.5-1.567003 3.5-3.5s-1.567003-3.5-3.5-3.5z" transform="translate(-23)"/></g></svg>