<svg height="16" width="16" xmlns="http://www.w3.org/2000/svg"><g fill="#bebebe"><path d="m8.5 14.874521c0 .648031-.4395237 1.125479-.9999996 1.125479-.5643487 0-1.0000004-.473883-1.0000004-1.125477 0-.891773.9999997-1.874523.9999997-1.874523s1.0000003.983027 1.0000003 1.874521z"/><path d="m7.5 0c-2.335799 0-4.246219 1.785153-4.46875 4.0625-1.154184.221377-2.03125 1.218756-2.03125 2.4375 0 1.380712 1.119288 2.5 2.5 2.5h4 4c1.932997 0 3.5-1.567003 3.5-3.5s-1.567003-3.5-3.5-3.5c-.08432 0-.167173.02539-.25.03125-.803438-1.228561-2.172482-2.03125-3.75-2.03125z"/><path d="m11.5 12.874521c0 .648031-.439524 1.125479-1 1.125479-.5643483 0-1-.473883-1-1.125477 0-.891773 1-1.874523 1-1.874523s1 .983027 1 1.874521z"/><path d="m5.5 11.874521c0 .648031-.439524 1.125479-1 1.125479-.5643483 0-1-.473883-1-1.125477 0-.891773 1-1.874523 1-1.874523s1 .983027 1 1.874521z"/></g></svg>