<svg height="16" width="16" xmlns="http://www.w3.org/2000/svg"><path d="m6 18c-1.301321 0-2.3969895.841652-2.8125 2-.05269-.0041-.1025116 0-.15625 0-1.1243729 0-2.03125.906877-2.03125 2.03125s.9068771 2.03125 2.03125 2.03125l6.46875-.0625c.828427 0 1.5-.671573 1.5-1.5s-.671573-1.5-1.5-1.5c-.172589 0-.345681.040108-.5.09375.001016-.032096 0-.061407 0-.09375 0-1.656854-1.3431457-3-3-3z" fill="#f00" opacity=".8"/><g fill="#6e6e6e"><path d="m6.625 30-.40625 4.15625-3-1.71875 1.34375 3.125-4.1875-.375 3.40625 2.4375-3.78125 1.75 3.90625.375c.5914803-.440536 1.2912813-.71875 2.09375-.71875 1.8314761 0 3.3047206 1.301709 3.75 3l.03125-.1875.65625.5c.405443.165684.766319.418607 1.03125.75l2.1875 1.65625-2.21875-4.3125 3.71875.375-2.9375-2.4375 3.78125-1.75-4.15625-.40625 3.15625-4.25-4.5625 2.59375.21875-3.71875-2.28125 2.9375z" opacity=".8"/><path d="m6 40c-1.301321 0-2.3969895.841652-2.8125 2-.05269-.0041-.1025116 0-.15625 0-1.1243729 0-2.03125.906877-2.03125 2.03125s.9068771 2.03125 2.03125 2.03125l6.46875-.0625c.828427 0 1.5-.671573 1.5-1.5s-.671573-1.5-1.5-1.5c-.172589 0-.345681.040108-.5.09375.001016-.032096 0-.061407 0-.09375 0-1.656854-1.3431457-3-3-3z"/><path d="m13 13-3.2961081-2.313382-.3737649 4.009535-1.6978224-3.651502-2.3284571 3.285476.3553936-4.011204-3.6592412 1.681077 2.3133821-3.2961081-4.00953455-.3737649 3.65150175-1.6978224-3.28547634-2.3284571 4.01120444.3553936-1.6810774-3.6592412 3.2961082 2.3133821.3737649-4.00953455 1.6978224 3.65150175 2.3284566-3.28547634-.355393 4.01120444 3.659241-1.6810774-2.313382 3.2961082 4.009535.3737649-3.651502 1.6978224 3.285476 2.3284571-4.011204-.3553936z" opacity=".8" transform="matrix(1.0394804 0 0 1.0394804 -.315843 -19.276362)"/></g><path d="m12.5 9c1.932997 0 3.5 1.567003 3.5 3.5s-1.567003 3.5-3.5 3.5h-3c-1.380712 0-2.5-1.119288-2.5-2.5 0-1.32628 1.03855-2.385258 2.34375-2.46875.554724-1.200566 1.746861-2.03125 3.15625-2.03125z" fill="#bebebe"/><path d="m5.84375 0-.25 2.84375c.5938307-.2744505 1.2547523-.4407658 1.90625-.5zm6.3125.8125-2.21875 1.84375c.314747.1133453.606347.2331004.90625.40625.299904.1731496.556966.3778442.8125.59375zm-4.15625 2.1875c-2.7614237 0-5 2.2385763-5 5 0 2.105586 1.3138263 3.888009 3.15625 4.625.1480881-.499569.3919394-.950345.75-1.3125-1.4005234-.457448-2.40625-1.7591992-2.40625-3.3125 0-1.9329966 1.5670034-3.5 3.5-3.5s3.5 1.5670034 3.5 3.5c0 .0417063.001447.0836465 0 .125.319864-.0783327.651079-.125 1-.125.171496 0 .333436.0437255.5.0625.00027-.0214255 0-.0410103 0-.0625 0-2.7614237-2.238576-5-5-5zm-7.1875.84375 1.84375 2.21875c.1133453-.3147466.2331004-.6063461.40625-.90625.1731496-.299904.3778442-.5569667.59375-.8125zm12.34375 1.75c.274451.5938305.440765 1.2547521.5 1.90625l2.34375-1.65625zm-10.8125 2.90625-2.34375 1.65625 2.84375.25c-.2744504-.5938307-.4407655-1.2547526-.5-1.90625zm2 3.84375-.5 2.84375 2.15625-1.8125c.0008436-.021856.0299691-.040816.03125-.0625-.3003459-.109354-.5871612-.208816-.875-.375-.299904-.17315-.556967-.377844-.8125-.59375z" fill="#bebebe"/></svg>