<svg height="16" width="16" xmlns="http://www.w3.org/2000/svg"><path d="m7.5 19c-1.4497475 0-2.6874211.868797-3.21875 2.125-.247478-.082024-.5062534-.125-.78125-.125-1.3807119 0-2.5 1.119288-2.5 2.5s1.1192881 2.5 2.5 2.5h4 5.5c1.104569 0 2-.895431 2-2s-.895431-2-2-2h-.09375c.053642-.154319.09375-.327411.09375-.5 0-.828427-.671573-1.5-1.5-1.5-.445889 0-.850249.191152-1.125.5-.6320014-.910243-1.6829141-1.5-2.875-1.5z" fill="#f00"/><path d="m-13-18c-1.876884 0-3.443707 1.287639-3.875 3.03125-1.20095.18255-2.125 1.216816-2.125 2.46875 0 1.380712 1.119288 2.5 2.5 2.5h9c1.380712 0 2.5-1.119288 2.5-2.5 0-1.208123-.860792-2.204384-2-2.4375.00065-.02096 0-.04138 0-.0625 0-1.104569-.895431-2-2-2-.379916 0-.728742.128564-1.03125.3125-.731988-.809859-1.791139-1.3125-2.96875-1.3125z" fill="#6e6e6e"/><g fill="#bebebe"><path d="m57.707462 7.220267c-3.484844 2.0649336-5.544695.07251-5.544695.07251-.268614-.3713631-.79862-.3309797-1.031734.078611-.233115.409591-.105903 1.0769334.247636 1.2990797 0 0 3.075122 2.3817813 7.087555-.24115 1.830658-1.1967033 4.364742-1.7266232 6.409889.059647-1.457298-3.1678993-5.088188-2.50147-7.168651-1.2686978z"/><path d="m58.181571 4.63728c3.484844-2.0649339 5.544695-.07251 5.544695-.07251.268614.371363.79862.330979 1.031734-.07861.233114-.409591.105903-1.076934-.247636-1.29908 0 0-3.075123-2.381781-7.087555.24115-1.830658 1.196703-4.364742 1.726623-6.409889-.05965 1.457298 3.167899 5.088187 2.50147 7.168651 1.268698z"/><path d="m58.181571 12.63728c3.484844-2.064934 5.544695-.07251 5.544695-.07251.268614.371363.79862.330979 1.031734-.07861.233114-.409591.105903-1.076934-.247636-1.29908 0 0-3.075123-2.381781-7.087555.24115-1.830658 1.196703-4.364742 1.726623-6.409889-.05965 1.457298 3.167899 5.088187 2.50147 7.168651 1.268698z"/><rect height="2" rx=".5" width="7" x="5" y="-17"/><path d="m-45 5h8v1h-8z"/><path d="m-50 7h7v1h-7z"/><path d="m-42 7h8v1h-8z"/><path d="m-47 9h9v1h-9z"/><path d="m-44 11h8v1h-8z"/><rect height="2" rx=".5" width="7" y="-14"/><rect height="2" rx=".5" width="7" x="9" y="-14"/><rect height="2" rx=".5" width="8" x="3" y="-11"/><rect height="2" rx=".5" width="7" x="7" y="-8"/><path d="m-21 5 3-3 3 3 3-3 3 3 3-3 3 3v2l-3-3-3 3-3-3-3 3-3-3-3 3z"/><path d="m-21 9 3-3 3 3 3-3 3 3 3-3 3 3v2l-3-3-3 3-3-3-3 3-3-3-3 3z"/><path d="m-21 13 3-3 3 3 3-3 3 3 3-3 3 3v2l-3-3-3 3-3-3-3 3-3-3-3 3z"/><path d="m22 2-2 2v2l2-2 2 2 2-2 2 2 2-2 2 2 2-2 2 2v-2l-2-2-2 2-2-2-2 2-2-2-2 2z"/><path d="m22 6-2 2v2l2-2 2 2 2-2 2 2 2-2 2 2 2-2 2 2v-2l-2-2-2 2-2-2-2 2-2-2-2 2z"/><path d="m22 10-2 2v2l2-2 2 2 2-2 2 2 2-2 2 2 2-2 2 2v-2l-2-2-2 2-2-2-2 2-2-2-2 2z"/><rect height="1.999999" rx=".5" width="11.999991" x="4" y="5"/><rect height="2" rx=".5" width="13" y="8"/><rect height="1.999997" rx=".5" width="12.999995" x="2" y="11"/></g></svg>