<svg height="22" width="22" xmlns="http://www.w3.org/2000/svg" xmlns:xlink="http://www.w3.org/1999/xlink"><linearGradient id="a"><stop offset="0" stop-color="#fff"/><stop offset="1" stop-color="#fff" stop-opacity="0"/></linearGradient><linearGradient id="b"><stop offset="0" stop-color="#9e9e9e"/><stop offset="1" stop-color="#656565"/></linearGradient><linearGradient id="c"><stop offset="0" stop-color="#686868"/><stop offset="1" stop-color="#d2d2d2"/></linearGradient><linearGradient id="d"><stop offset="0" stop-color="#dfdfdf"/><stop offset="1" stop-color="#686868"/></linearGradient><linearGradient id="e" gradientUnits="userSpaceOnUse" x1="3.967467" x2="1.053947" xlink:href="#d" y1="14.850126" y2="21.854017"/><linearGradient id="f" gradientUnits="userSpaceOnUse" x1="18.052309" x2="21.013454" xlink:href="#d" y1="15.628317" y2="22.099749"/><linearGradient id="g" gradientUnits="userSpaceOnUse" x1="11.110959" x2="11.02041" xlink:href="#c" y1="34.127409" y2="23.232466"/><linearGradient id="h" gradientUnits="userSpaceOnUse" x1="8.933636" x2="8.899093" xlink:href="#b" y1="23.191507" y2="31.014566"/><linearGradient id="i" gradientUnits="userSpaceOnUse" x1="8.933636" x2="8.899093" xlink:href="#a" y1="23.191507" y2="31.014566"/><linearGradient id="j" gradientUnits="userSpaceOnUse" x1="3.262674" x2="8.189212" xlink:href="#b" y1="15.177793" y2="19.191719"/><linearGradient id="k" gradientTransform="matrix(1.0134538 0 0 .65864057 -1.161652 12.844168)" gradientUnits="userSpaceOnUse" x1="11.334118" x2="11.149202" y1="1.761231" y2="13.319177"><stop offset="0" stop-color="#9e9e9e"/><stop offset="1" stop-color="#878787"/></linearGradient><linearGradient id="l" gradientUnits="userSpaceOnUse" x1="19.60873" x2="15.156401" xlink:href="#b" y1="17.266654" y2="18.536365"/><linearGradient id="m" gradientTransform="matrix(.99609579 0 0 1.1930934 -.953239 3.797543)" gradientUnits="userSpaceOnUse" x1="14.443072" x2="14.522355" xlink:href="#b" y1="15.124065" y2="10.835641"/><linearGradient id="n" gradientTransform="matrix(1.0134538 0 0 .65864057 -1.161652 12.844168)" gradientUnits="userSpaceOnUse" x1="12.759906" x2="12.876342" xlink:href="#c" y1="12.821736" y2="2.80567"/><linearGradient id="o" gradientTransform="matrix(.99735741 0 0 1.1253974 -.968432 -3.7314)" gradientUnits="userSpaceOnUse" x1="12.987228" x2="12.940624" xlink:href="#d" y1="14.997477" y2="29.698929"/><linearGradient id="p" gradientTransform="matrix(1.0092219 0 0 .7670215 -1.11096 12.518015)" gradientUnits="userSpaceOnUse" x1="12.551643" x2="12.40731" xlink:href="#a" y1="6.246773" y2="-1.205439"/><linearGradient id="q" gradientTransform="matrix(0 -.319447 -.313352 0 18.486281 14.08587)" gradientUnits="userSpaceOnUse" x1="28.314739" x2=".815722" y1="20.709501" y2="20.709501"><stop offset="0" stop-color="#d7e866"/><stop offset="1" stop-color="#8cab2a"/></linearGradient><linearGradient id="r" gradientTransform="matrix(0 .3704967 -.3617496 0 20.508315 -2.332054)" gradientUnits="userSpaceOnUse" x1="13.471772" x2="57.726395" xlink:href="#a" y1="25.410501" y2="25.410501"/><g stroke-linejoin="round" transform="translate(0 -10)"><path d="m17.46543 20.477903-12.8638144.04188-4.0297716 8.972634 20.981857.04096-4.088271-9.055472z" fill="url(#o)" stroke="url(#m)" stroke-width="1.008538"/><g stroke-linecap="round"><path d="m18.427663 20.581838.000494-6.076251-15.0231075.02698.011572 6.041542 15.0110415.0077z" fill="url(#n)" stroke="url(#k)"/><path d="m3.4188547 14.504352-2.9328547 6.928713.087889 8.057329 3.9435959-9.418492-.00882-5.582137-1.0898102.01459z" fill="url(#e)" stroke="url(#j)"/><path d="m17.574361 20.093835-.0409-5.567514 1.126387.0014 2.886075 6.981389-.006 8.080717z" fill="url(#f)" stroke="url(#l)"/></g><path d="m21.585707 29.604998-.07992-7.984777-4.946261-.03876.02244 3.012871-11.1026419.04096.063405-3.058233-4.9171127-.120677-.079944 8.025738z" fill="url(#g)" stroke="url(#h)"/><path d="m20.561744 28.581052-.03896-6.018762-3.021214.0022.02244 3.012871-13.0276881.000002.022446-3.017274-2.951108-.03876.00197 5.977815 18.9921111.08191z" fill="none" opacity=".5" stroke="url(#i)"/><path d="m20.439687 21.733763-2.457013-6.209246-13.9273485-.050458-2.4459818 6.127867" fill="none" opacity=".81" stroke="url(#p)" stroke-linecap="round"/></g><g stroke-width=".998294"><path d="m17.176046 6.4999998-6.191561 7.0008532-6.1605314-7.0008532h2.6760464v-6.00085299h7v6.00085299z" fill="url(#q)" stroke="#699536" stroke-linecap="round" stroke-linejoin="round"/><path d="m14.926403 7.4999998-3.926403 4.5451152-4.0369382-4.5451152h1.5369382v-6h5v6z" fill="none" opacity=".354" stroke="url(#r)"/></g></svg>