<svg height="96" width="96" xmlns="http://www.w3.org/2000/svg" xmlns:xlink="http://www.w3.org/1999/xlink"><linearGradient id="a"><stop offset="0"/><stop offset="1" stop-opacity="0"/></linearGradient><linearGradient id="b" gradientTransform="matrix(2.1683519 0 0 2.2464645 141.9485 -68.590473)" gradientUnits="userSpaceOnUse" x1="-51.786404" x2="-51.786404" xlink:href="#a" y1="53.514328" y2="3.633682"/><linearGradient id="c" gradientTransform="matrix(2.6658408 0 0 2.6469079 -143.33283 -66.049513)" gradientUnits="userSpaceOnUse" x1="97.538795" x2="97.538795" y1="8.810323" y2="44.260689"><stop offset="0" stop-color="#fff"/><stop offset=".1088333" stop-color="#fff" stop-opacity=".235294"/><stop offset=".97909725" stop-color="#fff" stop-opacity=".156863"/><stop offset="1" stop-color="#fff" stop-opacity=".392157"/></linearGradient><linearGradient id="d" gradientTransform="matrix(.2134205 0 0 .06641689 -13.147881 75.518568)" gradientUnits="userSpaceOnUse" x1="302.85715" x2="302.85715" y1="366.64789" y2="609.50507"><stop offset="0" stop-opacity="0"/><stop offset=".5"/><stop offset="1" stop-opacity="0"/></linearGradient><radialGradient id="e" cx="605.71429" cy="486.64789" gradientTransform="matrix(.08277507 0 0 .06641689 65.628912 75.518568)" gradientUnits="userSpaceOnUse" r="117.14286" xlink:href="#a"/><radialGradient id="f" cx="605.71429" cy="486.64789" gradientTransform="matrix(-.08277505 0 0 .06641689 62.347829 75.518568)" gradientUnits="userSpaceOnUse" r="117.14286" xlink:href="#a"/><linearGradient id="g" gradientTransform="matrix(1 0 0 1.0266674 147 -70.186593)" gradientUnits="userSpaceOnUse" x1="-91" x2="-91" y1="43.999817" y2="119.05979"><stop offset="0" stop-color="#ce7303"/><stop offset="1" stop-color="#a44c00"/></linearGradient><linearGradient id="h" gradientTransform="matrix(3.036796 0 0 2.6909701 -8.883114 -65.364613)" gradientUnits="userSpaceOnUse" x1="22.934725" x2="22.934725" y1="49.629246" y2="36.599415"><stop offset="0" stop-color="#0a0a0a" stop-opacity=".498"/><stop offset="1" stop-color="#0a0a0a" stop-opacity="0"/></linearGradient><linearGradient id="i" gradientTransform="matrix(2.6658408 0 0 2.7170994 -143.33283 -69.198823)" gradientUnits="userSpaceOnUse" x1="97.538795" x2="97.538795" y1="16.962049" y2="44.260689"><stop offset="0" stop-color="#fff"/><stop offset=".0221225" stop-color="#fff" stop-opacity=".235294"/><stop offset=".97909725" stop-color="#fff" stop-opacity=".156863"/><stop offset="1" stop-color="#fff" stop-opacity=".392157"/></linearGradient><g transform="matrix(.72580649 0 0 .72580649 1.768729 45.445439)"><path d="m12.999997-42.968593c-1.108 0-2 .892-2 2v5.96875h-3.0000004c-1.108 0-2 .892-2 2v11c0 1.108.892 2 2 2h112.0000034c1.108 0 2-.892 2-2v-11c0-1.108-.892-2-2-2h-62.999999v-5.96875c0-1.108-.892-2-2-2z" fill="#cecece"/><path d="m13.662787-43.499683c-1.87818.0205-3.16279.9143-3.16279 2.67225v5.32743c-.9606004 0-1.4771004-.003-2.1044004 0-1.67856.008-2.87762.94491-2.87762 2.83298.0936 27.4976499-.018 28.9219399-.018 31.2565499 3.90581 0 117.0000034-9.8866399 117.0000034-14.1422999v-17.14209c0-1.75796-1.15786-2.82564-3.03605-2.80514h-61.963949v-5.19887c0-1.75795-1.18743-2.80081-2.94827-2.80081h-40.888944z" fill="none" opacity=".8" stroke="url(#b)"/><path d="m13.499997-42.499843c-1.108 0-2 .892-2 2v6h-3.0000004c-1.108 0-2 .892-2 2v11c0 1.108.892 2 2 2h111.0000034c1.108 0 2-.892 2-2v-11c0-1.108-.892-2-2-2h-62.999999v-6c0-1.108-.892-2-2-2z" fill="none" stroke="url(#c)" stroke-linecap="round" stroke-linejoin="round"/><g transform="matrix(1.0027339 0 0 .9919518 -.163313 -57.066403)"><path d="m12.462574 99.870178h103.05159v16.129816h-103.05159z" fill="url(#d)" opacity=".3"/><path d="m115.51417 99.870734v16.128926c4.26271.0304 10.30516-3.61367 10.30516-8.0655s-4.75687-8.063426-10.30516-8.063426z" fill="url(#e)" opacity=".3"/><path d="m12.462574 99.870734v16.128926c-4.2627113.0304-10.3051588-3.61367-10.3051588-8.0655s4.7568636-8.063426 10.3051588-8.063426z" fill="url(#f)" opacity=".3"/></g><path d="m6.2499966-24.500053 115.4999934.001c1.66861 0 2.75001 1.18375 2.75001 2.65543l-2.71648 71.78068c.0386 1.86211-.55015 2.60044-2.48884 2.56139l-109.9330434-.0467c-1.66859 0-3.35116-1.09895-3.35116-2.57064l-2.51048-71.72469c0-1.47169 1.0814-2.65647 2.75-2.65647z" fill="url(#g)"/><path d="m5.7727162-25.000063 116.4545438.001c1.6824 0 2.77274 1.19912 2.77274 2.68993l-2.73893 72.7129c.0389 1.88629-.5547 2.63421-2.50941 2.59465l-110.8415834-.0474c-1.6823804 0-3.3788504-1.11323-3.3788504-2.60404l-2.5312294-72.65607c0-1.4908 1.09034-2.69097 2.7727194-2.69097z" fill="url(#h)" opacity=".4"/><path d="m6.2499966-23.499853c-2.84882.29656-1.40933 3.76689-1.63989 5.72017.78584 22.5479499 1.57466 45.09583 2.35864 67.64381 1.18868 2.48974 4.4300904 1.28205 6.6383204 1.57433 35.235146.0205 70.470294.0412 105.705433.0617 2.566-.16531 1.15721-3.81803 1.65357-5.65555.85465-22.56949 2.54292-67.57135 2.54292-67.57135 0-1.16209-.77992-1.7731-2.20738-1.7731-37.089309 0-77.962299 0-115.0516134 0z" fill="none" opacity=".5" stroke="url(#i)" stroke-linecap="round" stroke-linejoin="round"/><path d="m6.2499966-24.500053 115.4999934.001c1.66861 0 2.75001 1.18375 2.75001 2.65543l-2.71648 71.78068c.0386 1.86211-.55015 2.60044-2.48884 2.56139l-109.9330434-.0467c-1.66859 0-3.35116-1.09895-3.35116-2.57064l-2.51048-71.72469c0-1.47169 1.0814-2.65647 2.75-2.65647z" fill="none" opacity=".3" stroke="#000" stroke-linecap="round" stroke-linejoin="round"/><g fill="#733700" transform="translate(16.256866 -35.46912)"><path d="m48 32c-10.74874 0-21.48649 4.11149-29.6875 12.3125l4.9375 4.9375c13.66835-13.66835 35.83165-13.66835 49.5 0l4.9375-4.9375c-8.20101-8.20101-18.93876-12.3125-29.6875-12.3125zm0 14c-7.16583 0-14.34516 2.72016-19.8125 8.1875l4.96875 4.96875c8.20101-8.20101 21.48649-8.20101 29.6875 0l4.96875-4.96875c-5.46734-5.46734-12.64668-8.1875-19.8125-8.1875zm0 14c-3.58291 0-7.17258 1.36008-9.90625 4.09375l9.90625 9.90625 9.90625-9.90625c-2.73367-2.73367-6.32334-4.09375-9.90625-4.09375z" opacity=".9"/><path d="m48 32c-10.74874 0-21.48649 4.11149-29.6875 12.3125l4.9375 4.9375c13.66835-13.66835 35.83165-13.66835 49.5 0l4.9375-4.9375c-8.20101-8.20101-18.93876-12.3125-29.6875-12.3125zm0 1.9375c9.634016 0 19.191168 3.585307 26.8125 10.5l-2.1875 2.1875c-14.004357-12.590034-35.245643-12.590034-49.25 0l-2.1875-2.1875c7.621332-6.914693 17.178484-10.5 26.8125-10.5zm0 12.0625c-7.16583 0-14.34516 2.72016-19.8125 8.1875l4.96875 4.96875c8.20101-8.20101 21.48649-8.20101 29.6875 0l4.96875-4.96875c-5.46734-5.46734-12.64668-8.1875-19.8125-8.1875zm0 1.9375c6.055974 0 12.063379 2.183175 16.9375 6.375l-2.21875 2.21875c-8.505192-7.1633-20.932308-7.1633-29.4375 0l-2.21875-2.21875c4.87412-4.191826 10.881517-6.375 16.9375-6.375zm0 12.0625c-3.58291 0-7.17258 1.36008-9.90625 4.09375l9.90625 9.90625 9.90625-9.90625c-2.73367-2.73367-6.32334-4.09375-9.90625-4.09375zm0 1.9375c2.450727 0 4.791706.957137 6.875 2.4375l-6.875 6.875-6.875-6.875c2.083294-1.480363 4.424273-2.4375 6.875-2.4375z" opacity=".25"/><path d="m48 32c-10.74874 0-21.48649 4.11149-29.6875 12.3125l4.9375 4.9375c13.66835-13.66835 35.83165-13.66835 49.5 0l4.9375-4.9375c-8.20101-8.20101-18.93876-12.3125-29.6875-12.3125zm0 1.03125c10.164734 0 20.283568 3.822257 28.1875 11.34375l-3.5 3.5c-13.860522-13.096513-35.514478-13.096513-49.375 0l-3.5-3.5c7.903932-7.521493 18.022766-11.34375 28.1875-11.34375zm0 12.96875c-7.16583 0-14.34516 2.72016-19.8125 8.1875l4.96875 4.96875c8.20101-8.20101 21.48649-8.20101 29.6875 0l4.96875-4.96875c-5.46734-5.46734-12.64668-8.1875-19.8125-8.1875zm0 1.03125c6.583583 0 13.146038 2.430754 18.3125 7.21875l-3.53125 3.53125c-8.381706-7.634738-21.180794-7.634738-29.5625 0l-3.53125-3.53125c5.166461-4.787996 11.728907-7.21875 18.3125-7.21875zm0 12.96875c-3.58291 0-7.17258 1.36008-9.90625 4.09375l9.90625 9.90625 9.90625-9.90625c-2.73367-2.73367-6.32334-4.09375-9.90625-4.09375zm0 1.03125c2.999513 0 5.98577 1.060256 8.40625 3.125l-8.40625 8.40625-8.40625-8.40625c2.42048-2.064744 5.406737-3.125 8.40625-3.125z" opacity=".5"/><path d="m48 32c-10.74874 0-21.48649 4.11149-29.6875 12.3125l.5.5c8.134068-7.870257 18.658031-11.8125 29.1875-11.8125s21.053432 3.942243 29.1875 11.8125l.5-.5c-8.20101-8.20101-18.93876-12.3125-29.6875-12.3125zm0 14c-7.16583 0-14.34516 2.72016-19.8125 8.1875l.5.5c5.39966-5.135361 12.367105-7.6875 19.3125-7.6875 6.945385 0 13.91284 2.552139 19.3125 7.6875l.5-.5c-5.46734-5.46734-12.64668-8.1875-19.8125-8.1875zm0 14c-3.58291 0-7.17258 1.36008-9.90625 4.09375l.53125.53125c2.661187-2.4066 6.012743-3.625 9.375-3.625s6.713813 1.2184 9.375 3.625l.53125-.53125c-2.73367-2.73367-6.32334-4.09375-9.90625-4.09375z"/><path d="m48 30c-11.258055 0-22.51257 4.32507-31.09375 12.90625-.0015.0015-.06111.06096-.0625.0625-.0014.0015-.06119.09215-.0625.09375-.0013.0016-.06127.06083-.0625.0625-.0012.0017-.06135.09203-.0625.09375-.0012.0017-.06143.06072-.0625.0625-.0011.0018-.03027.09192-.03125.09375-.000977.0018-.06161.09188-.0625.09375-.000886.0019-.03046.09183-.03125.09375-.000793.0019-.03055.0918-.03125.09375-.000698.002-.03065.06052-.03125.0625-.000601.002-.03075.09174-.03125.09375-.000503.002-.03085.122967-.03125.125-.000404.002.000304.0917 0 .09375-.000304.0021-.03105.09169-.03125.09375-.000203.0021.000102.09168 0 .09375-.000102.0021 0 .09168 0 .09375 0 .0021-.000102.09168 0 .09375.000102.0021-.000203.09169 0 .09375.000203.0021.03095.0917.03125.09375.000304.0021-.000404.09172 0 .09375.000404.002.03075.122989.03125.125.000503.002.03065.09177.03125.09375.000601.002.03055.06055.03125.0625.000698.002.03046.09183.03125.09375.000793.0019.03036.09188.03125.09375.000886.0019.06152.09192.0625.09375.000977.0018.03018.09197.03125.09375.0011.0018.06135.06078.0625.0625.0012.0017.06127.09208.0625.09375.0012.0017.06119.0609.0625.0625.0013.0016.06111.09221.0625.09375.0014.0015.06104.06103.0625.0625l4.9375 4.9375c.0015.0015.06096.06111.0625.0625.0015.0014.09215.06119.09375.0625.0016.0013.06083.06127.0625.0625.0017.0012.09203.06135.09375.0625.0017.0012.06072.06144.0625.0625.0018.0011.09192.03027.09375.03125.0018.000977.09188.06161.09375.0625.0019.000886.09183.03046.09375.03125.0019.000793.0918.03055.09375.03125.002.000698.06052.03065.0625.03125.002.000601.09174.03075.09375.03125.002.000503.122967.03085.125.03125.002.000404.0917-.000304.09375 0 .0021.000304.09169.03105.09375.03125.0021.000203.09168-.000102.09375 0 .0021.000102.09168 0 .09375 0 .0021 0 .09168.000102.09375 0 .0021-.000102.09169.000203.09375 0 .0021-.000203.0917-.03095.09375-.03125.0021-.000304.09172.000404.09375 0 .002-.000404.122989-.03075.125-.03125.002-.000503.09177-.03065.09375-.03125.002-.000601.06055-.03055.0625-.03125.002-.000698.09183-.03046.09375-.03125.0019-.000793.09188-.03036.09375-.03125.0019-.000886.09192-.06152.09375-.0625.0018-.000977.09197-.03019.09375-.03125.0018-.0011.06078-.06135.0625-.0625.0017-.0012.09208-.06127.09375-.0625.0017-.0012.0609-.06119.0625-.0625.0016-.0013.09221-.06111.09375-.0625.0015-.0014.06103-.06103.0625-.0625 12.906109-12.906109 33.781391-12.906109 46.6875 0 .0015.0015.06096.06111.0625.0625.0015.0014.09215.06119.09375.0625.0016.0013.06083.06127.0625.0625.0017.0012.09203.06135.09375.0625.0017.0012.06072.06144.0625.0625.0018.0011.09192.03027.09375.03125.0018.000977.09188.06161.09375.0625.0019.000886.09183.03046.09375.03125.0019.000793.0918.03055.09375.03125.002.000698.06052.03065.0625.03125.002.000601.09174.03075.09375.03125.002.000503.122967.03085.125.03125.002.000404.0917-.000304.09375 0 .0021.000304.09169.03105.09375.03125.0021.000203.09168-.000102.09375 0 .0021.000102.09168 0 .09375 0 .0021 0 .09168.000102.09375 0 .0021-.000102.09169.000203.09375 0 .0021-.000203.0917-.03095.09375-.03125.0021-.000304.09172.000404.09375 0 .002-.000404.122989-.03075.125-.03125.002-.000503.09177-.03065.09375-.03125.002-.000601.06055-.03055.0625-.03125.002-.000698.09183-.03046.09375-.03125.0019-.000793.09188-.03036.09375-.03125.0019-.000886.09192-.06152.09375-.0625.0018-.000977.09197-.03019.09375-.03125.0018-.0011.06078-.06135.0625-.0625.0017-.0012.09208-.06127.09375-.0625.0017-.0012.0609-.06119.0625-.0625.0016-.0013.09221-.06111.09375-.0625.0015-.0014.06103-.06103.0625-.0625l4.9375-4.9375c.0015-.0015.06111-.06096.0625-.0625.0014-.0015.06119-.09215.0625-.09375.0013-.0016.06127-.06083.0625-.0625.0012-.0017.06135-.09203.0625-.09375.0012-.0017.06144-.06072.0625-.0625.0011-.0018.03027-.09192.03125-.09375.000977-.0018.06161-.09188.0625-.09375.000886-.0019.03046-.09183.03125-.09375.000793-.0019.03055-.0918.03125-.09375.000698-.002.03065-.06052.03125-.0625.000601-.002.03075-.09174.03125-.09375.000503-.002.03085-.122967.03125-.125.000404-.002-.000304-.0917 0-.09375.000304-.0021.03105-.09169.03125-.09375.000203-.0021-.000102-.09168 0-.09375.000102-.0021 0-.09168 0-.09375 0-.0021.000102-.09168 0-.09375-.000102-.0021.000203-.09169 0-.09375-.000203-.0021-.03095-.0917-.03125-.09375-.000304-.0021.000404-.09172 0-.09375-.000404-.002-.03075-.122989-.03125-.125-.000503-.002-.03065-.09177-.03125-.09375-.000601-.002-.03055-.06055-.03125-.0625-.000698-.002-.03046-.09183-.03125-.09375-.000793-.0019-.03036-.09188-.03125-.09375-.000886-.0019-.06152-.09192-.0625-.09375-.000977-.0018-.03019-.09197-.03125-.09375-.0011-.0018-.06135-.06078-.0625-.0625-.0012-.0017-.06127-.09208-.0625-.09375-.0012-.0017-.06119-.0609-.0625-.0625-.0013-.0016-.06111-.09221-.0625-.09375-.0014-.0015-.06104-.06103-.0625-.0625-8.58118-8.58118-19.835695-12.90625-31.09375-12.90625zm0 2c10.74874 0 21.48649 4.11149 29.6875 12.3125l-4.9375 4.9375c-13.66835-13.66835-35.83165-13.66835-49.5 0l-4.9375-4.9375c8.20101-8.20101 18.93876-12.3125 29.6875-12.3125zm0 12c-7.671436 0-15.367651 2.930151-21.21875 8.78125-.0015.0015-.06111.06096-.0625.0625-.0014.0015-.06119.09215-.0625.09375-.0013.0016-.06127.06083-.0625.0625-.0012.0017-.06135.09203-.0625.09375-.0012.0017-.06143.06072-.0625.0625-.0011.0018-.03027.09192-.03125.09375-.000977.0018-.06161.09188-.0625.09375-.000886.0019-.03046.09183-.03125.09375-.000793.0019-.03055.0918-.03125.09375-.000698.002-.03065.06052-.03125.0625-.000601.002-.03075.09174-.03125.09375-.000503.002-.03085.122967-.03125.125-.000404.002.000304.0917 0 .09375-.000304.0021-.03105.09169-.03125.09375-.000203.0021.000102.09168 0 .09375-.000102.0021 0 .09168 0 .09375 0 .0021-.000102.09168 0 .09375.000102.0021-.000203.09169 0 .09375.000203.0021.03095.0917.03125.09375.000304.0021-.000404.09172 0 .09375.000404.002.03075.122989.03125.125.000503.002.03065.09177.03125.09375.000601.002.03055.06055.03125.0625.000698.002.03046.09183.03125.09375.000793.0019.03036.09188.03125.09375.000886.0019.06152.09192.0625.09375.000977.0018.03018.09197.03125.09375.0011.0018.06135.06078.0625.0625.0012.0017.06127.09208.0625.09375.0012.0017.06119.0609.0625.0625.0013.0016.06111.09221.0625.09375.0014.0015.06104.06103.0625.0625l4.96875 4.96875c.0015.0015.06096.06111.0625.0625.0015.0014.09215.06119.09375.0625.0016.0013.06083.06127.0625.0625.0017.0012.09203.06135.09375.0625.0017.0012.06072.06144.0625.0625.0018.0011.09192.03027.09375.03125.0018.000977.09188.06161.09375.0625.0019.000886.09183.03046.09375.03125.0019.000793.0918.03055.09375.03125.002.000698.06052.03065.0625.03125.002.000601.09174.03075.09375.03125.002.000503.122967.03085.125.03125.002.000404.0917-.000304.09375 0 .0021.000304.09169.03105.09375.03125.0021.000203.09168-.000102.09375 0 .0021.000102.09168 0 .09375 0 .0021 0 .09168.000102.09375 0 .0021-.000102.09169.000203.09375 0 .0021-.000203.0917-.03095.09375-.03125.0021-.000304.09172.000404.09375 0 .002-.000404.122989-.03075.125-.03125.002-.000503.09177-.03065.09375-.03125.002-.000601.06055-.03055.0625-.03125.002-.000698.09183-.03046.09375-.03125.0019-.000793.09188-.03036.09375-.03125.0019-.000886.09192-.06152.09375-.0625.0018-.000977.09197-.03019.09375-.03125.0018-.0011.06078-.06135.0625-.0625.0017-.0012.09208-.06127.09375-.0625.0017-.0012.0609-.06119.0625-.0625.0016-.0013.09221-.06111.09375-.0625.0015-.0014.06103-.06103.0625-.0625 7.439906-7.439906 19.435094-7.439906 26.875 0 .0015.0015.06096.06111.0625.0625.0015.0014.09215.06119.09375.0625.0016.0013.06083.06127.0625.0625.0017.0012.09203.06135.09375.0625.0017.0012.06072.06144.0625.0625.0018.0011.09192.03027.09375.03125.0018.000977.09188.06161.09375.0625.0019.000886.09183.03046.09375.03125.0019.000793.0918.03055.09375.03125.002.000698.06052.03065.0625.03125.002.000601.09174.03075.09375.03125.002.000503.122967.03085.125.03125.002.000404.0917-.000304.09375 0 .0021.000304.09169.03105.09375.03125.0021.000203.09168-.000102.09375 0 .0021.000102.09168 0 .09375 0 .0021 0 .09168.000102.09375 0 .0021-.000102.09169.000203.09375 0 .0021-.000203.0917-.03095.09375-.03125.0021-.000304.09172.000404.09375 0 .002-.000404.122989-.03075.125-.03125.002-.000503.09177-.03065.09375-.03125.002-.000601.06055-.03055.0625-.03125.002-.000698.09183-.03046.09375-.03125.0019-.000793.09188-.03036.09375-.03125.0019-.000886.09192-.06152.09375-.0625.0018-.000977.09197-.03019.09375-.03125.0018-.0011.06078-.06135.0625-.0625.0017-.0012.09208-.06127.09375-.0625.0017-.0012.0609-.06119.0625-.0625.0016-.0013.09221-.06111.09375-.0625.0015-.0014.06103-.06103.0625-.0625l4.96875-4.96875c.0015-.0015.06111-.06096.0625-.0625.0014-.0015.06119-.09215.0625-.09375.0013-.0016.06127-.06083.0625-.0625.0012-.0017.06135-.09203.0625-.09375.0012-.0017.06144-.06072.0625-.0625.0011-.0018.03027-.09192.03125-.09375.000977-.0018.06161-.09188.0625-.09375.000886-.0019.03046-.09183.03125-.09375.000793-.0019.03055-.0918.03125-.09375.000698-.002.03065-.06052.03125-.0625.000601-.002.03075-.09174.03125-.09375.000503-.002.03085-.122967.03125-.125.000404-.002-.000304-.0917 0-.09375.000304-.0021.03105-.09169.03125-.09375.000203-.0021-.000102-.09168 0-.09375.000102-.0021 0-.09168 0-.09375 0-.0021.000102-.09168 0-.09375-.000102-.0021.000203-.09169 0-.09375-.000203-.0021-.03095-.0917-.03125-.09375-.000304-.0021.000404-.09172 0-.09375-.000404-.002-.03075-.122989-.03125-.125-.000503-.002-.03065-.09177-.03125-.09375-.000601-.002-.03055-.06055-.03125-.0625-.000698-.002-.03046-.09183-.03125-.09375-.000793-.0019-.03036-.09188-.03125-.09375-.000886-.0019-.06152-.09192-.0625-.09375-.000977-.0018-.03019-.09197-.03125-.09375-.0011-.0018-.06135-.06078-.0625-.0625-.0012-.0017-.06127-.09208-.0625-.09375-.0012-.0017-.06119-.0609-.0625-.0625-.0013-.0016-.06111-.09221-.0625-.09375-.0014-.0015-.06104-.06103-.0625-.0625-5.851099-5.851099-13.547323-8.78125-21.21875-8.78125zm0 2c7.16582 0 14.34516 2.72016 19.8125 8.1875l-4.96875 4.96875c-8.20101-8.20101-21.48649-8.20101-29.6875 0l-4.96875-4.96875c5.46734-5.46734 12.64667-8.1875 19.8125-8.1875zm0 12c-4.089027 0-8.194979 1.569979-11.3125 4.6875-.0015.0015-.06111.06096-.0625.0625-.0014.0015-.06119.09215-.0625.09375-.0013.0016-.06127.06083-.0625.0625-.0012.0017-.06135.09203-.0625.09375-.0012.0017-.06144.06072-.0625.0625-.0011.0018-.03027.09192-.03125.09375-.000977.0018-.06161.09188-.0625.09375-.000886.0019-.03046.09183-.03125.09375-.000793.0019-.03055.0918-.03125.09375-.000698.002-.03065.06052-.03125.0625-.000601.002-.03075.09174-.03125.09375-.000503.002-.03085.122967-.03125.125-.000404.002.000304.0917 0 .09375-.000304.0021-.03105.09169-.03125.09375-.000203.0021.000102.09168 0 .09375-.000102.0021 0 .09168 0 .09375 0 .0021-.000102.09168 0 .09375.000102.0021-.000203.09169 0 .09375.000203.0021.03095.0917.03125.09375.000304.0021-.000404.09172 0 .09375.000404.002.03075.122989.03125.125.000503.002.03065.09177.03125.09375.000601.002.03055.06055.03125.0625.000698.002.03046.09183.03125.09375.000793.0019.03036.09188.03125.09375.000886.0019.06152.09192.0625.09375.000977.0018.03019.09197.03125.09375.0011.0018.06135.06078.0625.0625.0012.0017.06127.09208.0625.09375.0012.0017.06119.0609.0625.0625.0013.0016.06111.09221.0625.09375.0014.0015.06103.06103.0625.0625l9.90625 9.90625c.0015.0015.06096.06111.0625.0625.0015.0014.09215.06119.09375.0625.0016.0013.06083.06127.0625.0625.0017.0012.09203.06135.09375.0625.0017.0012.06072.06144.0625.0625.0018.0011.09192.03027.09375.03125.0018.000977.09188.06161.09375.0625.0019.000886.09183.03046.09375.03125.0019.000793.0918.03055.09375.03125.002.000698.06052.03065.0625.03125.002.000601.09174.03075.09375.03125.002.000503.122967.03085.125.03125.002.000404.0917-.000304.09375 0 .0021.000304.09169.03105.09375.03125.0021.000203.09168-.000102.09375 0 .0021.000102.09168 0 .09375 0 .0021 0 .09168.000102.09375 0 .0021-.000102.09169.000203.09375 0 .0021-.000203.0917-.03095.09375-.03125.0021-.000304.09172.000404.09375 0 .002-.000404.122989-.03075.125-.03125.002-.000503.09177-.03065.09375-.03125.002-.000601.06055-.03055.0625-.03125.002-.000698.09183-.03046.09375-.03125.0019-.000793.09188-.03036.09375-.03125.0019-.000886.09192-.06152.09375-.0625.0018-.000977.09197-.03019.09375-.03125.0018-.0011.06078-.06135.0625-.0625.0017-.0012.09208-.06127.09375-.0625.0017-.0012.0609-.06119.0625-.0625.0016-.0013.09221-.06111.09375-.0625.0015-.0014.06103-.06104.0625-.0625l9.90625-9.90625c.0015-.0015.06111-.06096.0625-.0625.0014-.0015.06119-.09215.0625-.09375.0013-.0016.06127-.06083.0625-.0625.0012-.0017.06135-.09203.0625-.09375.0012-.0017.06144-.06072.0625-.0625.0011-.0018.03027-.09192.03125-.09375.000977-.0018.06161-.09188.0625-.09375.000886-.0019.03046-.09183.03125-.09375.000793-.0019.03055-.0918.03125-.09375.000698-.002.03065-.06052.03125-.0625.000601-.002.03075-.09174.03125-.09375.000503-.002.03085-.122967.03125-.125.000404-.002-.000304-.0917 0-.09375.000304-.0021.03105-.09169.03125-.09375.000203-.0021-.000102-.09168 0-.09375.000102-.0021 0-.09168 0-.09375 0-.0021.000102-.09168 0-.09375-.000102-.0021.000203-.09169 0-.09375-.000203-.0021-.03095-.0917-.03125-.09375-.000304-.0021.000404-.09172 0-.09375-.000404-.002-.03075-.122989-.03125-.125-.000503-.002-.03065-.09177-.03125-.09375-.000601-.002-.03055-.06055-.03125-.0625-.000698-.002-.03046-.09183-.03125-.09375-.000793-.0019-.03036-.09188-.03125-.09375-.000886-.0019-.06152-.09192-.0625-.09375-.000977-.0018-.03019-.09197-.03125-.09375-.0011-.0018-.06135-.06078-.0625-.0625-.0012-.0017-.06127-.09208-.0625-.09375-.0012-.0017-.06119-.0609-.0625-.0625-.0013-.0016-.06111-.09221-.0625-.09375-.0014-.0015-.06103-.06103-.0625-.0625-3.117521-3.117521-7.223473-4.6875-11.3125-4.6875zm0 2c3.58291 0 7.17258 1.36008 9.90625 4.09375l-9.90625 9.90625-9.90625-9.90625c2.73367-2.73367 6.32334-4.09375 9.90625-4.09375z" opacity=".05"/><path d="m48 30.9375c-11.019358 0-22.034387 4.221887-30.4375 12.625a1.0613296 1.0613296 0 0 0 0 1.5l4.9375 4.9375a1.0613296 1.0613296 0 0 0 1.5 0c13.262758-13.262758 34.737242-13.262758 48 0a1.0613296 1.0613296 0 0 0 1.5 0l4.9375-4.9375a1.0613296 1.0613296 0 0 0 0-1.5c-8.403113-8.403113-19.418142-12.625-30.4375-12.625zm0 1.0625c10.74874 0 21.48649 4.11149 29.6875 12.3125l-4.9375 4.9375c-13.66835-13.66835-35.83165-13.66835-49.5 0l-4.9375-4.9375c8.20101-8.20101 18.93876-12.3125 29.6875-12.3125zm0 12.9375c-7.434391 0-14.891151 2.828651-20.5625 8.5a1.0613296 1.0613296 0 0 0 0 1.5l4.96875 4.96875a1.0613296 1.0613296 0 0 0 1.5 0c7.7958-7.7958 20.3917-7.7958 28.1875 0a1.0613296 1.0613296 0 0 0 1.5 0l4.96875-4.96875a1.0613296 1.0613296 0 0 0 0-1.5c-5.671349-5.671349-13.128118-8.5-20.5625-8.5zm0 1.0625c7.16582 0 14.34516 2.72016 19.8125 8.1875l-4.96875 4.96875c-8.20101-8.20101-21.48649-8.20101-29.6875 0l-4.96875-4.96875c5.46734-5.46734 12.64667-8.1875 19.8125-8.1875zm0 12.9375c-3.851472 0-7.718571 1.468571-10.65625 4.40625a1.0613296 1.0613296 0 0 0 0 1.5l9.90625 9.90625a1.0613296 1.0613296 0 0 0 1.5 0l9.90625-9.90625a1.0613296 1.0613296 0 0 0 0-1.5c-2.937679-2.937679-6.804778-4.40625-10.65625-4.40625zm0 1.0625c3.58291 0 7.17258 1.36008 9.90625 4.09375l-9.90625 9.90625-9.90625-9.90625c2.73367-2.73367 6.32334-4.09375 9.90625-4.09375z" opacity=".1"/><path d="m48 39c-8.957912 0-17.915825 3.415825-24.75 10.25l-4.4375-4.4375c-.169388.163894-.332702.332702-.5.5l4.9375 4.9375c13.66835-13.66835 35.83165-13.66835 49.5 0l4.9375-4.9375c-.167298-.167298-.330612-.336106-.5-.5l-4.4375 4.4375c-6.834175-6.834175-15.792088-10.25-24.75-10.25zm0 14c-5.371623 0-10.743245 2.055745-14.84375 6.15625l-4.46875-4.46875c-.171376.162988-.331814.331814-.5.5l4.96875 4.96875c8.20101-8.20101 21.48649-8.20101 29.6875 0l4.96875-4.96875c-.168186-.168186-.328624-.337012-.5-.5l-4.46875 4.46875c-4.100505-4.100505-9.472127-6.15625-14.84375-6.15625zm-9.375 11.625c-.174644.157936-.362898.300398-.53125.46875l9.90625 9.90625 9.90625-9.90625c-.168352-.168352-.356606-.310814-.53125-.46875l-9.375 9.375z" opacity=".2"/></g></g></svg>