<svg height="96" width="96" xmlns="http://www.w3.org/2000/svg" xmlns:xlink="http://www.w3.org/1999/xlink"><linearGradient id="a"><stop offset="0"/><stop offset="1" stop-opacity="0"/></linearGradient><linearGradient id="b" gradientTransform="matrix(2.1683519 0 0 2.2464645 141.94852 -68.559003)" gradientUnits="userSpaceOnUse" x1="-51.786404" x2="-51.786404" xlink:href="#a" y1="53.514328" y2="3.633682"/><linearGradient id="c" gradientTransform="matrix(2.6658408 0 0 2.6469079 -143.33282 -66.018043)" gradientUnits="userSpaceOnUse" x1="97.538795" x2="97.538795" y1="8.810323" y2="44.260689"><stop offset="0" stop-color="#fff"/><stop offset=".1088333" stop-color="#fff" stop-opacity=".235294"/><stop offset=".97909725" stop-color="#fff" stop-opacity=".156863"/><stop offset="1" stop-color="#fff" stop-opacity=".392157"/></linearGradient><linearGradient id="d" gradientTransform="matrix(.2134205 0 0 .06641689 -13.147881 75.518568)" gradientUnits="userSpaceOnUse" x1="302.85715" x2="302.85715" y1="366.64789" y2="609.50507"><stop offset="0" stop-opacity="0"/><stop offset=".5"/><stop offset="1" stop-opacity="0"/></linearGradient><radialGradient id="e" cx="605.71429" cy="486.64789" gradientTransform="matrix(.08277507 0 0 .06641689 65.628912 75.518568)" gradientUnits="userSpaceOnUse" r="117.14286" xlink:href="#a"/><radialGradient id="f" cx="605.71429" cy="486.64789" gradientTransform="matrix(-.08277505 0 0 .06641689 62.347829 75.518568)" gradientUnits="userSpaceOnUse" r="117.14286" xlink:href="#a"/><linearGradient id="g" gradientTransform="matrix(1 0 0 .81333428 147 -44.693353)" gradientUnits="userSpaceOnUse" x1="-91" x2="-91" y1="43.999817" y2="119.05979"><stop offset="0" stop-color="#aacb7d"/><stop offset="1" stop-color="#709937"/></linearGradient><linearGradient id="h" gradientTransform="matrix(3.036796 0 0 2.1389772 -8.88311 -41.084763)" gradientUnits="userSpaceOnUse" x1="22.934725" x2="22.934725" y1="49.629246" y2="36.599415"><stop offset="0" stop-color="#0a0a0a" stop-opacity=".498"/><stop offset="1" stop-color="#0a0a0a" stop-opacity="0"/></linearGradient><linearGradient id="i" gradientTransform="matrix(2.6658408 0 0 2.1374512 -143.3107 -43.449953)" gradientUnits="userSpaceOnUse" x1="97.538795" x2="97.538795" y1="16.962049" y2="44.260689"><stop offset="0" stop-color="#fff"/><stop offset=".0221225" stop-color="#fff" stop-opacity=".235294"/><stop offset=".97909725" stop-color="#fff" stop-opacity=".156863"/><stop offset="1" stop-color="#fff" stop-opacity=".392157"/></linearGradient><g transform="matrix(.71428571 0 0 .71428571 2.997575 46.165704)"><path d="m13.00002-42.937123c-1.108 0-2 .892-2 2v5.96875h-3c-1.108 0-2 .892-2 2v30.9999999h116v-30.9999999c0-1.108-.892-2-2-2h-62.999999v-5.96875c0-1.108-.892-2-2-2z" fill="#cecece"/><path d="m13.66281-43.468213c-1.87818.0205-3.16279.9143-3.16279 2.67225v5.32743c-.9606 0-1.4771-.003-2.1044 0-1.67856.008-2.87762.94491-2.87762 2.83298.0936 27.4976499-.018 31.2565499-.018 31.2565499l117 3.01244v-34.2968299c0-1.75796-1.15786-2.82564-3.03605-2.80514h-61.963949v-5.19887c0-1.75795-1.18743-2.80081-2.94827-2.80081h-40.888941z" fill="none" opacity=".8" stroke="url(#b)"/><path d="m13.50002-42.468373c-1.108 0-2 .892-2 2v6h-3c-1.108 0-2 .892-2 2v32.99999988h115v-32.99999988c0-1.108-.892-2-2-2h-62.999999v-6c0-1.108-.892-2-2-2z" fill="none" stroke="url(#c)" stroke-linecap="round" stroke-linejoin="round"/><g transform="matrix(1.0027339 0 0 .9919518 -.16331 -57.066403)"><path d="m12.462574 99.870178h103.05159v16.129816h-103.05159z" fill="url(#d)" opacity=".3"/><path d="m115.51417 99.870734v16.128926c4.26271.0304 10.30516-3.61367 10.30516-8.0655s-4.75687-8.063426-10.30516-8.063426z" fill="url(#e)" opacity=".3"/><path d="m12.462574 99.870734v16.128926c-4.2627113.0304-10.3051588-3.61367-10.3051588-8.0655s4.7568636-8.063426 10.3051588-8.063426z" fill="url(#f)" opacity=".3"/></g><path d="m4.25-8.5001031 119.49999.00079c1.66861.00001 2.75001.93777 2.75001 2.10365l-4.71648 56.8652401c.0386 1.47518-.55015 2.06009-2.48884 2.02916l-109.93304-.037c-1.66859 0-3.35116-.8706-3.35116-2.03648l-4.51048-56.8208901c0-1.16588 1.0814-2.10448 2.75-2.10447z" fill="url(#g)"/><path d="m3.77272-9.0001031 120.45454.0008c1.6824.00001 2.77274.95314 2.77274 2.13815l-4.73893 57.7974601c.0389 1.49936-.5547 2.09386-2.50941 2.06241l-110.84158-.0377c-1.68238 0-3.37885-.88488-3.37885-2.06988l-4.53123002-57.7522601c0-1.185 1.09034002-2.13899 2.77272002-2.13898z" fill="url(#h)" opacity=".4"/><g fill="none" stroke-linecap="round" stroke-linejoin="round"><path d="m2.5431-5.1694431 4.44779 55.3823401c.14298 1.22333 2.02311 1.23847 2.74562 1.23847 0 0 74.362991.0324 109.59813.0485 2.566-.13004 1.15721-3.00352 1.65357-4.44903.85465-17.754671 4.54292-53.1561301 4.54292-53.1561301 0-.91417-.77992-1.39484-2.20738-1.39484h-119.05161c-1.72365 0-1.84508.94578-1.72904 2.33069z" opacity=".5" stroke="url(#i)"/><path d="m4.25-8.5001031 119.49999.00079c1.66861.00001 2.75001.93777 2.75001 2.10365l-4.71648 56.8652401c.0386 1.47518-.55015 2.06009-2.48884 2.02916l-109.93304-.037c-1.66859 0-3.35116-.8706-3.35116-2.03648l-4.51048-56.8208901c0-1.16588 1.0814-2.10448 2.75-2.10447z" opacity=".3" stroke="#000"/></g></g></svg>