<svg height="96" width="96" xmlns="http://www.w3.org/2000/svg" xmlns:xlink="http://www.w3.org/1999/xlink"><linearGradient id="a"><stop offset="0"/><stop offset="1" stop-opacity="0"/></linearGradient><linearGradient id="b" gradientTransform="matrix(2.1683519 0 0 2.2464645 141.9485 -68.590473)" gradientUnits="userSpaceOnUse" x1="-51.786404" x2="-51.786404" xlink:href="#a" y1="53.514328" y2="3.633682"/><linearGradient id="c" gradientTransform="matrix(2.6658408 0 0 2.6469079 -143.33283 -66.049513)" gradientUnits="userSpaceOnUse" x1="97.538795" x2="97.538795" y1="8.810323" y2="44.260689"><stop offset="0" stop-color="#fff"/><stop offset=".1088333" stop-color="#fff" stop-opacity=".235294"/><stop offset=".97909725" stop-color="#fff" stop-opacity=".156863"/><stop offset="1" stop-color="#fff" stop-opacity=".392157"/></linearGradient><linearGradient id="d" gradientTransform="matrix(.2134205 0 0 .06641689 -13.147881 75.518568)" gradientUnits="userSpaceOnUse" x1="302.85715" x2="302.85715" y1="366.64789" y2="609.50507"><stop offset="0" stop-opacity="0"/><stop offset=".5"/><stop offset="1" stop-opacity="0"/></linearGradient><radialGradient id="e" cx="605.71429" cy="486.64789" gradientTransform="matrix(.08277507 0 0 .06641689 65.628912 75.518568)" gradientUnits="userSpaceOnUse" r="117.14286" xlink:href="#a"/><radialGradient id="f" cx="605.71429" cy="486.64789" gradientTransform="matrix(-.08277505 0 0 .06641689 62.347829 75.518568)" gradientUnits="userSpaceOnUse" r="117.14286" xlink:href="#a"/><linearGradient id="g" gradientTransform="matrix(1 0 0 1.0266674 147 -70.186593)" gradientUnits="userSpaceOnUse" x1="-91" x2="-91" y1="43.999817" y2="119.05979"><stop offset="0" stop-color="#aacb7d"/><stop offset="1" stop-color="#709937"/></linearGradient><linearGradient id="h" gradientTransform="matrix(3.036796 0 0 2.6909701 -8.883114 -65.364613)" gradientUnits="userSpaceOnUse" x1="22.934725" x2="22.934725" y1="49.629246" y2="36.599415"><stop offset="0" stop-color="#0a0a0a" stop-opacity=".498"/><stop offset="1" stop-color="#0a0a0a" stop-opacity="0"/></linearGradient><linearGradient id="i" gradientTransform="matrix(2.6658408 0 0 2.7170994 -143.33283 -69.198823)" gradientUnits="userSpaceOnUse" x1="97.538795" x2="97.538795" y1="16.962049" y2="44.260689"><stop offset="0" stop-color="#fff"/><stop offset=".0221225" stop-color="#fff" stop-opacity=".235294"/><stop offset=".97909725" stop-color="#fff" stop-opacity=".156863"/><stop offset="1" stop-color="#fff" stop-opacity=".392157"/></linearGradient><g transform="matrix(.72580649 0 0 .72580649 1.768729 45.445439)"><path d="m12.999997-42.968593c-1.108 0-2 .892-2 2v5.96875h-3.0000004c-1.108 0-2 .892-2 2v11c0 1.108.892 2 2 2h112.0000034c1.108 0 2-.892 2-2v-11c0-1.108-.892-2-2-2h-62.999999v-5.96875c0-1.108-.892-2-2-2z" fill="#cecece"/><path d="m13.662787-43.499683c-1.87818.0205-3.16279.9143-3.16279 2.67225v5.32743c-.9606004 0-1.4771004-.003-2.1044004 0-1.67856.008-2.87762.94491-2.87762 2.83298.0936 27.4976499-.018 28.9219399-.018 31.2565499 3.90581 0 117.0000034-9.8866399 117.0000034-14.1422999v-17.14209c0-1.75796-1.15786-2.82564-3.03605-2.80514h-61.963949v-5.19887c0-1.75795-1.18743-2.80081-2.94827-2.80081h-40.888944z" fill="none" opacity=".8" stroke="url(#b)"/><path d="m13.499997-42.499843c-1.108 0-2 .892-2 2v6h-3.0000004c-1.108 0-2 .892-2 2v11c0 1.108.892 2 2 2h111.0000034c1.108 0 2-.892 2-2v-11c0-1.108-.892-2-2-2h-62.999999v-6c0-1.108-.892-2-2-2z" fill="none" stroke="url(#c)" stroke-linecap="round" stroke-linejoin="round"/><g transform="matrix(1.0027339 0 0 .9919518 -.163313 -57.066403)"><path d="m12.462574 99.870178h103.05159v16.129816h-103.05159z" fill="url(#d)" opacity=".3"/><path d="m115.51417 99.870734v16.128926c4.26271.0304 10.30516-3.61367 10.30516-8.0655s-4.75687-8.063426-10.30516-8.063426z" fill="url(#e)" opacity=".3"/><path d="m12.462574 99.870734v16.128926c-4.2627113.0304-10.3051588-3.61367-10.3051588-8.0655s4.7568636-8.063426 10.3051588-8.063426z" fill="url(#f)" opacity=".3"/></g><path d="m6.2499966-24.500053 115.4999934.001c1.66861 0 2.75001 1.18375 2.75001 2.65543l-2.71648 71.78068c.0386 1.86211-.55015 2.60044-2.48884 2.56139l-109.9330434-.0467c-1.66859 0-3.35116-1.09895-3.35116-2.57064l-2.51048-71.72469c0-1.47169 1.0814-2.65647 2.75-2.65647z" fill="url(#g)"/><path d="m5.7727162-25.000063 116.4545438.001c1.6824 0 2.77274 1.19912 2.77274 2.68993l-2.73893 72.7129c.0389 1.88629-.5547 2.63421-2.50941 2.59465l-110.8415834-.0474c-1.6823804 0-3.3788504-1.11323-3.3788504-2.60404l-2.5312294-72.65607c0-1.4908 1.09034-2.69097 2.7727194-2.69097z" fill="url(#h)" opacity=".4"/><path d="m6.2499966-23.499853c-2.84882.29656-1.40933 3.76689-1.63989 5.72017.78584 22.5479499 1.57466 45.09583 2.35864 67.64381 1.18868 2.48974 4.4300904 1.28205 6.6383204 1.57433 35.235146.0205 70.470294.0412 105.705433.0617 2.566-.16531 1.15721-3.81803 1.65357-5.65555.85465-22.56949 2.54292-67.57135 2.54292-67.57135 0-1.16209-.77992-1.7731-2.20738-1.7731-37.089309 0-77.962299 0-115.0516134 0z" fill="none" opacity=".5" stroke="url(#i)" stroke-linecap="round" stroke-linejoin="round"/><path d="m6.2499966-24.500053 115.4999934.001c1.66861 0 2.75001 1.18375 2.75001 2.65543l-2.71648 71.78068c.0386 1.86211-.55015 2.60044-2.48884 2.56139l-109.9330434-.0467c-1.66859 0-3.35116-1.09895-3.35116-2.57064l-2.51048-71.72469c0-1.47169 1.0814-2.65647 2.75-2.65647z" fill="none" opacity=".3" stroke="#000" stroke-linecap="round" stroke-linejoin="round"/><g fill="#3c5a30" transform="translate(15.696414 -38.9527)"><path d="m44.96875 28c-1.966186 0-3.5625 1.656221-3.5625 3.59375v1.78125c-.658895.236904-1.28357.51271-1.90625.8125l-1.25-1.28125a2.0041028 2.0041028 0 0 0 -.03125 0c-1.353209-1.353242-3.64396-1.418552-5.03125-.03125l-4.3125 4.3125c-1.387442 1.387301-1.321901 3.678097.03125 5.03125a2.0041028 2.0041028 0 0 0 0 .03125l1.28125 1.25c-.299788.622679-.575595 1.247356-.8125 1.90625h-1.78125c-1.937535 0-3.59375 1.596313-3.59375 3.5625v6.0625c0 1.966187 1.656215 3.5625 3.59375 3.5625h1.78125c.236905.658893.512712 1.283571.8125 1.90625l-1.28125 1.25a2.0041028 2.0041028 0 0 0 0 .03125c-1.353036 1.35319-1.418585 3.643904-.03125 5.03125l4.3125 4.3125c.739991.739996 1.701064 1.038519 2.5625 1.03125.902798-.0076 1.815304-.409058 2.46875-1.0625a2.0041028 2.0041028 0 0 0 .03125 0l1.25-1.28125c.62268.29979 1.247354.575595 1.90625.8125v1.78125c0 1.937529 1.596312 3.59375 3.5625 3.59375h6.0625c1.966186 0 3.5625-1.65621 3.5625-3.59375v-1.78125c.658895-.236904 1.28357-.51271 1.90625-.8125l1.25 1.28125a2.0041028 2.0041028 0 0 0 .03125 0c1.3532 1.353233 3.643968 1.418523 5.03125.03125l4.3125-4.3125c1.387436-1.387302 1.321896-3.678095-.03125-5.03125a2.0041028 2.0041028 0 0 0 0-.03125l-1.28125-1.25c.29979-.622679.575595-1.247354.8125-1.90625h1.78125c1.937539 0 3.59375-1.596299 3.59375-3.5625v-6.0625c0-1.966201-1.656216-3.5625-3.59375-3.5625h-1.78125c-.236905-.658896-.512711-1.283571-.8125-1.90625l1.28125-1.25a2.0041028 2.0041028 0 0 0 0-.03125c1.353063-1.353193 1.418576-3.643911.03125-5.03125l-4.3125-4.3125c-1.387294-1.387258-3.678041-1.321963-5.03125.03125a2.0041028 2.0041028 0 0 0 -.03125 0l-1.25 1.28125c-.62268-.29979-1.247355-.575596-1.90625-.8125v-1.78125c0-1.937541-1.596312-3.59375-3.5625-3.59375zm0 2h6.0625c.865802 0 1.5625.713146 1.5625 1.59375v3.09375c1.548119.412478 3.052802 1.056599 4.40625 1.84375l2.1875-2.21875c.622678-.62268 1.606531-.643453 2.21875-.03125l4.3125 4.3125c.61221.612216.591371 1.596069-.03125 2.21875l-2.21875 2.1875c.787147 1.353443 1.43127 2.858126 1.84375 4.40625h3.09375c.880595 0 1.59375.696692 1.59375 1.5625v6.0625c0 .865805-.713155 1.5625-1.59375 1.5625h-3.09375c-.412477 1.548122-1.056603 3.052806-1.84375 4.40625l2.21875 2.1875c.622678.622682.643525 1.606534.03125 2.21875l-4.3125 4.3125c-.61222.612216-1.59607.591445-2.21875-.03125l-2.1875-2.21875c-1.353446.787151-2.858132 1.431272-4.40625 1.84375v3.09375c0 .880605-.696697 1.59375-1.5625 1.59375h-6.0625c-.86581 0-1.5625-.713147-1.5625-1.59375v-3.09375c-1.548119-.412476-3.052804-1.0566-4.40625-1.84375l-2.1875 2.21875c-.311343.311341-.690843.465336-1.09375.46875-.402908.0034-.818895-.131393-1.125-.4375l-4.3125-4.3125c-.612211-.612216-.591361-1.596068.03125-2.21875l2.21875-2.1875c-.787146-1.353444-1.431263-2.858128-1.84375-4.40625h-3.09375c-.880604 0-1.59375-.696694-1.59375-1.5625v-6.0625c0-.865806.713146-1.5625 1.59375-1.5625h3.09375c.412487-1.548124 1.056604-3.052807 1.84375-4.40625l-2.21875-2.1875c-.62268-.622681-.643528-1.606534-.03125-2.21875l4.3125-4.3125c.61221-.612215 1.596073-.591442 2.21875.03125l2.1875 2.21875c1.353446-.787151 2.858131-1.431272 4.40625-1.84375v-3.09375c0-.880604.69669-1.59375 1.5625-1.59375zm3.03125 15.34375c-3.67143 0-6.65625 2.98482-6.65625 6.65625 0 3.671433 2.98482 6.65625 6.65625 6.65625 3.671436 0 6.65625-2.984817 6.65625-6.65625 0-3.67143-2.984814-6.65625-6.65625-6.65625zm0 2c2.585342 0 4.65625 2.070914 4.65625 4.65625 0 2.58534-2.070907 4.65625-4.65625 4.65625-2.585335 0-4.65625-2.070912-4.65625-4.65625 0-2.585334 2.070916-4.65625 4.65625-4.65625z" display="block" opacity=".05"/><path d="m44.96875 29c-1.414927 0-2.5625 1.185713-2.5625 2.59375v2.4375c-1.107715.350515-2.180798.778974-3.1875 1.3125l-1.6875-1.71875a1.0001 1.0001 0 0 0 0-.03125c-.987232-.987256-2.657254-1.030254-3.65625-.03125l-4.3125 4.3125c-.999105.999004-.955954 2.669044.03125 3.65625a1.0001 1.0001 0 0 0 .03125 0l1.71875 1.6875c-.533523 1.0067-.961982 2.079786-1.3125 3.1875h-2.4375c-1.40804 0-2.59375 1.147575-2.59375 2.5625v6.0625c0 1.414925 1.18571 2.5625 2.59375 2.5625h2.4375c.350518 1.107714.778977 2.180799 1.3125 3.1875l-1.71875 1.6875a1.0001 1.0001 0 0 0 -.03125 0c-.987112.987225-1.030268 2.657224-.03125 3.65625l4.3125 4.3125c.522626.522629 1.212025.724081 1.84375.71875.652366-.0055 1.330439-.267942 1.8125-.75a1.0001 1.0001 0 0 0 0-.03125l1.6875-1.71875c1.006702.533526 2.079784.961985 3.1875 1.3125v2.4375c0 1.408037 1.147573 2.59375 2.5625 2.59375h6.0625c1.414923 0 2.5625-1.185707 2.5625-2.59375v-2.4375c1.107715-.350515 2.180797-.778973 3.1875-1.3125l1.6875 1.71875a1.0001 1.0001 0 0 0 0 .03125c.987229.987253 2.657254 1.03024 3.65625.03125l4.3125-4.3125c.999101-.999004.955951-2.669043-.03125-3.65625a1.0001 1.0001 0 0 0 -.03125 0l-1.71875-1.6875c.533525-1.0067.961984-2.079783 1.3125-3.1875h2.4375c1.408038 0 2.59375-1.147568 2.59375-2.5625v-6.0625c0-1.414933-1.185715-2.5625-2.59375-2.5625h-2.4375c-.350516-1.107717-.778976-2.1808-1.3125-3.1875l1.71875-1.6875a1.0001 1.0001 0 0 0 .03125 0c.987131-.987226 1.030263-2.657227.03125-3.65625l-4.3125-4.3125c-.999002-.998976-2.669018-.955985-3.65625.03125a1.0001 1.0001 0 0 0 0 .03125l-1.6875 1.71875c-1.006703-.533526-2.079785-.961985-3.1875-1.3125v-2.4375c0-1.408043-1.147576-2.59375-2.5625-2.59375zm0 1h6.0625c.865802 0 1.5625.713146 1.5625 1.59375v3.09375c1.548119.412478 3.052802 1.056599 4.40625 1.84375l2.1875-2.21875c.622678-.62268 1.606531-.643453 2.21875-.03125l4.3125 4.3125c.61221.612216.591371 1.596069-.03125 2.21875l-2.21875 2.1875c.787147 1.353443 1.43127 2.858126 1.84375 4.40625h3.09375c.880595 0 1.59375.696692 1.59375 1.5625v6.0625c0 .865805-.713155 1.5625-1.59375 1.5625h-3.09375c-.412477 1.548122-1.056603 3.052806-1.84375 4.40625l2.21875 2.1875c.622678.622682.643525 1.606534.03125 2.21875l-4.3125 4.3125c-.61222.612216-1.59607.591445-2.21875-.03125l-2.1875-2.21875c-1.353446.787151-2.858132 1.431272-4.40625 1.84375v3.09375c0 .880605-.696697 1.59375-1.5625 1.59375h-6.0625c-.86581 0-1.5625-.713147-1.5625-1.59375v-3.09375c-1.548119-.412476-3.052804-1.0566-4.40625-1.84375l-2.1875 2.21875c-.311343.311341-.690843.465336-1.09375.46875-.402908.0034-.818895-.131393-1.125-.4375l-4.3125-4.3125c-.612211-.612216-.591361-1.596068.03125-2.21875l2.21875-2.1875c-.787146-1.353444-1.431263-2.858128-1.84375-4.40625h-3.09375c-.880604 0-1.59375-.696694-1.59375-1.5625v-6.0625c0-.865806.713146-1.5625 1.59375-1.5625h3.09375c.412487-1.548124 1.056604-3.052807 1.84375-4.40625l-2.21875-2.1875c-.62268-.622681-.643528-1.606534-.03125-2.21875l4.3125-4.3125c.61221-.612215 1.596073-.591442 2.21875.03125l2.1875 2.21875c1.353446-.787151 2.858131-1.431272 4.40625-1.84375v-3.09375c0-.880604.69669-1.59375 1.5625-1.59375zm3.03125 15.34375c-3.67143 0-6.65625 2.98482-6.65625 6.65625 0 3.671433 2.98482 6.65625 6.65625 6.65625 3.671436 0 6.65625-2.984817 6.65625-6.65625 0-3.67143-2.984814-6.65625-6.65625-6.65625zm0 1c3.129446 0 5.65625 2.526809 5.65625 5.65625 0 3.129444-2.526803 5.65625-5.65625 5.65625-3.12944 0-5.65625-2.526807-5.65625-5.65625 0-3.12944 2.52681-5.65625 5.65625-5.65625z" display="block" opacity=".1"/><path d="m44.962229 74c-.86581 0-1.566862-.718229-1.566862-1.598832v-3.101737c-1.548119-.412476-3.027352-1.035518-4.380798-1.822668l-2.206395 2.206389c-.311343.311341-.684294.476236-1.087201.47965-.402908.0034-.813076-.141566-1.119181-.447673l-4.316853-4.316849c-.612211-.612216-.590701-1.583707.03191-2.206389l2.206391-2.206388c-.787146-1.353444-1.410185-2.83268-1.822672-4.380802h-3.101731c-.880604 0-1.598835-.70105-1.598835-1.566856v-6.075563c0-.865806.718231-1.566857 1.598835-1.566857h3.101731c.412487-1.548124 1.035526-3.027359 1.822672-4.380802l-2.206391-2.206388c-.62268-.622681-.644188-1.594173-.03191-2.206389l4.316853-4.31685c.61221-.612215 1.583705-.590702 2.206382.03199l2.206395 2.206389c1.353446-.787151 2.832679-1.410189 4.380798-1.822667v-3.101737c0-.880604.701052-1.598833 1.566862-1.598833h6.075563c.865802 0 1.566854.718229 1.566854 1.598833v3.101737c1.548119.412478 3.027351 1.035516 4.380799 1.822667l2.206392-2.206389c.622678-.62268 1.594173-.644193 2.206392-.03199l4.316845 4.31685c.61221.612216.590701 1.583708-.03192 2.206389l-2.206384 2.206388c.787147 1.353443 1.410184 2.832678 1.822664 4.380802h3.101741c.880595 0 1.598831.701049 1.598831 1.566857v6.075563c0 .865805-.718236 1.566856-1.598831 1.566856h-3.101741c-.412477 1.548122-1.035513 3.027358-1.82266 4.380802l2.206383 2.206388c.622678.622682.644195 1.594173.03192 2.206389l-4.316844 4.316849c-.61222.612216-1.583713.590705-2.206393-.03199l-2.206393-2.20639c-1.353446.787151-2.832679 1.410193-4.380797 1.822671v3.101733c0 .880605-.701052 1.598833-1.566855 1.598833h-6.075563zm3.037778-15.348792c3.671436 0 6.651146-2.979713 6.651146-6.651146 0-3.67143-2.97971-6.651142-6.651146-6.651142-3.67143 0-6.651146 2.979712-6.651146 6.651142 0 3.671433 2.979716 6.651146 6.651146 6.651146z" display="block" opacity=".9"/><path d="m44.96875 30c-.86581 0-1.5625.713146-1.5625 1.59375v3.09375c-1.548119.412478-3.052804 1.056599-4.40625 1.84375l-2.1875-2.21875c-.622677-.622692-1.60654-.643465-2.21875-.03125l-4.3125 4.3125c-.612278.612216-.59143 1.596069.03125 2.21875l2.21875 2.1875c-.787146 1.353443-1.431263 2.858126-1.84375 4.40625h-3.09375c-.880604 0-1.59375.696694-1.59375 1.5625v6.0625c0 .865806.713146 1.5625 1.59375 1.5625h3.09375c.412487 1.548122 1.056604 3.052806 1.84375 4.40625l-2.21875 2.1875c-.622611.622682-.643461 1.606534-.03125 2.21875l4.3125 4.3125c.306105.306107.722092.4409 1.125.4375.402907-.0034.782407-.157409 1.09375-.46875l2.1875-2.21875c1.353446.78715 2.858131 1.431274 4.40625 1.84375v3.09375c0 .880603.69669 1.59375 1.5625 1.59375h6.0625c.865803 0 1.5625-.713145 1.5625-1.59375v-3.09375c1.548118-.412478 3.052804-1.056599 4.40625-1.84375l2.1875 2.21875c.62268.622695 1.60653.643466 2.21875.03125l4.3125-4.3125c.612275-.612216.591428-1.596068-.03125-2.21875l-2.21875-2.1875c.787147-1.353444 1.431273-2.858128 1.84375-4.40625h3.09375c.880595 0 1.59375-.696695 1.59375-1.5625v-6.0625c0-.865808-.713155-1.5625-1.59375-1.5625h-3.09375c-.41248-1.548124-1.056603-3.052807-1.84375-4.40625l2.21875-2.1875c.622621-.622681.64346-1.606534.03125-2.21875l-4.3125-4.3125c-.612219-.612203-1.596072-.59143-2.21875.03125l-2.1875 2.21875c-1.353448-.787151-2.858131-1.431272-4.40625-1.84375v-3.09375c0-.880604-.696698-1.59375-1.5625-1.59375zm.4375 2h5.1875v2.6875a2.0002 2.0002 0 0 0 1.5 1.9375c1.359125.362123 2.699789.923335 3.90625 1.625a2.0002 2.0002 0 0 0 2.4375-.3125l1.90625-1.90625 3.625 3.625-1.90625 1.90625a2.0002 2.0002 0 0 0 -.3125 2.4375c.701662 1.206457 1.262875 2.547121 1.625 3.90625a2.0002 2.0002 0 0 0 1.9375 1.5h2.6875v5.1875h-2.6875a2.0002 2.0002 0 0 0 -1.9375 1.5c-.362121 1.359123-.923337 2.69979-1.625 3.90625a2.0002 2.0002 0 0 0 .3125 2.4375l1.90625 1.90625-3.625 3.625-1.90625-1.90625a2.0002 2.0002 0 0 0 -2.4375-.3125c-1.206457.701663-2.547126 1.262877-3.90625 1.625a2.0002 2.0002 0 0 0 -1.5 1.9375v2.6875h-5.1875v-2.6875a2.0002 2.0002 0 0 0 -1.5-1.9375c-1.359121-.36212-2.699791-.923336-3.90625-1.625a2.0002 2.0002 0 0 0 -2.4375.3125l-1.90625 1.90625-3.625-3.625 1.90625-1.90625a2.0002 2.0002 0 0 0 .3125-2.4375c-.701659-1.206455-1.262866-2.547112-1.625-3.90625a2.0002 2.0002 0 0 0 -1.9375-1.5h-2.6875v-5.1875h2.6875a2.0002 2.0002 0 0 0 1.9375-1.5c.362133-1.35914.923341-2.699796 1.625-3.90625a2.0002 2.0002 0 0 0 -.3125-2.4375l-1.90625-1.90625 3.625-3.625 1.90625 1.90625a2.0002 2.0002 0 0 0 2.4375.3125c1.206457-.701664 2.547125-1.262877 3.90625-1.625a2.0002 2.0002 0 0 0 1.5-1.9375zm2.59375 11.34375c-4.755411 0-8.65625 3.900839-8.65625 8.65625 0 4.755413 3.90084 8.65625 8.65625 8.65625 4.755414 0 8.65625-3.900839 8.65625-8.65625 0-4.755409-3.900835-8.65625-8.65625-8.65625zm0 2c3.671436 0 6.65625 2.98482 6.65625 6.65625 0 3.671433-2.984814 6.65625-6.65625 6.65625-3.67143 0-6.65625-2.984817-6.65625-6.65625 0-3.67143 2.98482-6.65625 6.65625-6.65625z" display="block" opacity=".25"/><path d="m44.96875 30c-.86581 0-1.5625.713146-1.5625 1.59375v3.09375c-1.548119.412478-3.052804 1.056599-4.40625 1.84375l-2.1875-2.21875c-.622677-.622692-1.60654-.643465-2.21875-.03125l-4.3125 4.3125c-.612278.612216-.59143 1.596069.03125 2.21875l2.21875 2.1875c-.787146 1.353443-1.431263 2.858126-1.84375 4.40625h-3.09375c-.880604 0-1.59375.696694-1.59375 1.5625v6.0625c0 .865806.713146 1.5625 1.59375 1.5625h3.09375c.412487 1.548122 1.056604 3.052806 1.84375 4.40625l-2.21875 2.1875c-.622611.622682-.643461 1.606534-.03125 2.21875l4.3125 4.3125c.306105.306107.722092.4409 1.125.4375.402907-.0034.782407-.157409 1.09375-.46875l2.1875-2.21875c1.353446.78715 2.858131 1.431274 4.40625 1.84375v3.09375c0 .880603.69669 1.59375 1.5625 1.59375h6.0625c.865803 0 1.5625-.713145 1.5625-1.59375v-3.09375c1.548118-.412478 3.052804-1.056599 4.40625-1.84375l2.1875 2.21875c.62268.622695 1.60653.643466 2.21875.03125l4.3125-4.3125c.612275-.612216.591428-1.596068-.03125-2.21875l-2.21875-2.1875c.787147-1.353444 1.431273-2.858128 1.84375-4.40625h3.09375c.880595 0 1.59375-.696695 1.59375-1.5625v-6.0625c0-.865808-.713155-1.5625-1.59375-1.5625h-3.09375c-.41248-1.548124-1.056603-3.052807-1.84375-4.40625l2.21875-2.1875c.622621-.622681.64346-1.606534.03125-2.21875l-4.3125-4.3125c-.612219-.612203-1.596072-.59143-2.21875.03125l-2.1875 2.21875c-1.353448-.787151-2.858131-1.431272-4.40625-1.84375v-3.09375c0-.880604-.696698-1.59375-1.5625-1.59375zm0 1h6.0625c.31668 0 .5625.240585.5625.59375v3.09375a1.0001 1.0001 0 0 0 .75.96875c1.453622.3873 2.876296 1.005592 4.15625 1.75a1.0001 1.0001 0 0 0 1.21875-.1875l2.1875-2.1875c.258124-.258125.555814-.25668.78125-.03125l4.3125 4.3125c.225407.225409.226861.523114-.03125.78125l-2.1875 2.1875a1.0001 1.0001 0 0 0 -.1875 1.21875c.744404 1.27995 1.362698 2.702623 1.75 4.15625a1.0001 1.0001 0 0 0 .96875.75h3.09375c.353155 0 .59375.245817.59375.5625v6.0625c0 .316678-.240598.5625-.59375.5625h-3.09375a1.0001 1.0001 0 0 0 -.96875.75c-.387299 1.453622-1.005595 2.876298-1.75 4.15625a1.0001 1.0001 0 0 0 .1875 1.21875l2.1875 2.1875c.258155.258157.256699.555822.03125.78125l-4.3125 4.3125c-.225444.225442-.523119.226887-.78125-.03125l-2.1875-2.1875a1.0001 1.0001 0 0 0 -1.21875-.1875c-1.279951.744407-2.702629 1.3627-4.15625 1.75a1.0001 1.0001 0 0 0 -.75.96875v3.09375c0 .353167-.245817.59375-.5625.59375h-6.0625c-.316693 0-.5625-.240581-.5625-.59375v-3.09375a1.0001 1.0001 0 0 0 -.75-.96875c-1.45362-.387298-2.876297-1.005593-4.15625-1.75a1.0001 1.0001 0 0 0 -1.21875.1875l-2.1875 2.1875c-.140625.140624-.221552.1862-.375.1875-.174091.001469-.316666-.066665-.40625-.15625l-4.3125-4.3125c-.225404-.225406-.22686-.523111.03125-.78125l2.1875-2.1875a1.0001 1.0001 0 0 0 .1875-1.21875c-.744402-1.279949-1.36269-2.70262-1.75-4.15625a1.0001 1.0001 0 0 0 -.96875-.75h-3.09375c-.353168 0-.59375-.245813-.59375-.5625v-6.0625c0-.316687.240582-.5625.59375-.5625h3.09375a1.0001 1.0001 0 0 0 .96875-.75c.38731-1.453632 1.005598-2.876302 1.75-4.15625a1.0001 1.0001 0 0 0 -.1875-1.21875l-2.1875-2.1875c-.258156-.258156-.256701-.555822-.03125-.78125l4.3125-4.3125c.225424-.225426.523128-.226878.78125.03125l2.1875 2.1875a1.0001 1.0001 0 0 0 1.21875.1875c1.279952-.744407 2.702628-1.3627 4.15625-1.75a1.0001 1.0001 0 0 0 .75-.96875v-3.09375c0-.353171.245807-.59375.5625-.59375zm3.03125 13.34375c-4.21342 0-7.65625 3.44283-7.65625 7.65625 0 4.213423 3.44283 7.65625 7.65625 7.65625 4.213425 0 7.65625-3.442828 7.65625-7.65625 0-4.213419-3.442824-7.65625-7.65625-7.65625zm0 1c3.671436 0 6.65625 2.98482 6.65625 6.65625 0 3.671433-2.984814 6.65625-6.65625 6.65625-3.67143 0-6.65625-2.984817-6.65625-6.65625 0-3.67143 2.98482-6.65625 6.65625-6.65625z" display="block" opacity=".5"/><path d="m44.96875 30c-.86581 0-1.5625.713146-1.5625 1.59375v1c0-.880604.69669-1.59375 1.5625-1.59375h6.0625c.865802 0 1.5625.713146 1.5625 1.59375v-1c0-.880604-.696698-1.59375-1.5625-1.59375zm-9.28125 3.84375c-.397235-.0067-.787645.131393-1.09375.4375l-4.3125 4.3125c-.41839.418348-.506839 1.003314-.34375 1.53125.07436-.1869.19068-.378196.34375-.53125l4.3125-4.3125c.61221-.612215 1.596073-.591442 2.21875.03125l2.1875 2.21875c1.353446-.787151 2.858131-1.431272 4.40625-1.84375v-1c-1.548119.412478-3.052804 1.056599-4.40625 1.84375l-2.1875-2.21875c-.311338-.311346-.727765-.462062-1.125-.46875zm24.625 0c-.397236.0067-.813661.15741-1.125.46875l-2.1875 2.21875c-1.353448-.787151-2.858131-1.431272-4.40625-1.84375v1c1.548119.412478 3.052802 1.056599 4.40625 1.84375l2.1875-2.21875c.622678-.62268 1.606531-.643453 2.21875-.03125l4.3125 4.3125c.153053.153054.269403.34435.34375.53125.163075-.527936.07459-1.112902-.34375-1.53125l-4.3125-4.3125c-.30611-.306102-.696514-.444188-1.09375-.4375zm-28.125 9.8125c-.622177 1.176584-1.151058 2.440371-1.5 3.75h-3.09375c-.880604 0-1.59375.696694-1.59375 1.5625v1c0-.865806.713146-1.5625 1.59375-1.5625h3.09375c.412487-1.548124 1.056604-3.052807 1.84375-4.40625zm31.625 0-.34375.34375c.787147 1.353443 1.43127 2.858126 1.84375 4.40625h3.09375c.880595 0 1.59375.696692 1.59375 1.5625v-1c0-.865808-.713155-1.5625-1.59375-1.5625h-3.09375c-.348936-1.309629-.877823-2.573416-1.5-3.75zm-22.4375 8.84375c-.01212.163934-.03125.332988-.03125.5 0 3.671433 2.98482 6.65625 6.65625 6.65625 3.671436 0 6.65625-2.984817 6.65625-6.65625 0-.167012-.01913-.336066-.03125-.5-.254241 3.439832-3.120576 6.15625-6.625 6.15625-3.504418 0-6.370758-2.716418-6.625-6.15625zm-9.1875 8.84375-1.875 1.84375c-.458718.45877-.58191 1.101983-.375 1.65625.07724-.234015.185622-.466851.375-.65625l2.21875-2.1875c-.121263-.208504-.230446-.441984-.34375-.65625zm31.625 0c-.113304.214266-.222487.447746-.34375.65625l2.21875 2.1875c.189398.189399.297756.422235.375.65625.20693-.554267.08377-1.19748-.375-1.65625z" display="block"/><path d="m29.9375 40.15625c-.206934.554267-.08377 1.197481.375 1.65625l1.875 1.84375c.113304-.214266.222487-.447747.34375-.65625l-2.21875-2.1875c-.189398-.189399-.297757-.422235-.375-.65625zm36.125 0c-.07724.234015-.185619.466851-.375.65625l-2.21875 2.1875c.121263.208503.230446.441984.34375.65625l1.875-1.84375c.458725-.458769.581909-1.101983.375-1.65625zm-18.0625 5.1875c-3.67143 0-6.65625 2.98482-6.65625 6.65625 0 .167012.01913.336066.03125.5.254242-3.439829 3.120582-6.15625 6.625-6.15625 3.504424 0 6.370759 2.716421 6.625 6.15625.01212-.163934.03125-.332988.03125-.5 0-3.67143-2.984814-6.65625-6.65625-6.65625zm-22 9.6875v1c0 .865806.713146 1.5625 1.59375 1.5625h3.09375c.348942 1.309628.877823 2.573415 1.5 3.75l.34375-.34375c-.787146-1.353444-1.431263-2.858128-1.84375-4.40625h-3.09375c-.880604 0-1.59375-.696694-1.59375-1.5625zm44 0c0 .865805-.713155 1.5625-1.59375 1.5625h-3.09375c-.412477 1.548122-1.056603 3.052806-1.84375 4.40625l.34375.34375c.622177-1.176585 1.151067-2.440372 1.5-3.75h3.09375c.880595 0 1.59375-.696695 1.59375-1.5625zm-40.0625 9.84375c-.163072.527936-.07459 1.112902.34375 1.53125l4.3125 4.3125c.306105.306107.722092.4409 1.125.4375.402907-.0034.782407-.157409 1.09375-.46875l2.1875-2.21875c1.353446.78715 2.858131 1.431274 4.40625 1.84375v-1c-1.548119-.412476-3.052804-1.0566-4.40625-1.84375l-2.1875 2.21875c-.311343.311341-.690843.465336-1.09375.46875-.402908.0034-.818895-.131393-1.125-.4375l-4.3125-4.3125c-.153053-.153054-.269403-.34435-.34375-.53125zm36.125 0c-.07435.1869-.190681.378196-.34375.53125l-4.3125 4.3125c-.61222.612216-1.59607.591445-2.21875-.03125l-2.1875-2.21875c-1.353446.787151-2.858132 1.431272-4.40625 1.84375v1c1.548118-.412478 3.052804-1.056599 4.40625-1.84375l2.1875 2.21875c.62268.622695 1.60653.643466 2.21875.03125l4.3125-4.3125c.418388-.418348.506842-1.003314.34375-1.53125zm-22.65625 7.53125v1c0 .880603.69669 1.59375 1.5625 1.59375h6.0625c.865803 0 1.5625-.713145 1.5625-1.59375v-1c0 .880605-.696697 1.59375-1.5625 1.59375h-6.0625c-.86581 0-1.5625-.713147-1.5625-1.59375z" display="block" opacity=".2"/></g></g></svg>