<svg height="64" width="64" xmlns="http://www.w3.org/2000/svg" xmlns:xlink="http://www.w3.org/1999/xlink"><linearGradient id="a" gradientTransform="matrix(1.3117629 0 0 1.0517617 -70.010027 8.080182)" gradientUnits="userSpaceOnUse" x1="97.538795" x2="97.538795" y1="16.962049" y2="44.260689"><stop offset="0" stop-color="#fff"/><stop offset=".0221225" stop-color="#fff" stop-opacity=".235294"/><stop offset=".97909725" stop-color="#fff" stop-opacity=".156863"/><stop offset="1" stop-color="#fff" stop-opacity=".392157"/></linearGradient><linearGradient id="b" gradientTransform="matrix(1.4942964 0 0 1.0525126 -3.863118 9.244006)" gradientUnits="userSpaceOnUse" x1="22.934725" x2="22.934725" y1="49.629246" y2="36.599415"><stop offset="0" stop-color="#0a0a0a" stop-opacity=".498"/><stop offset="1" stop-color="#0a0a0a" stop-opacity="0"/></linearGradient><linearGradient id="c" gradientTransform="matrix(.49206349 0 0 .4002121 72.84127 7.468351)" gradientUnits="userSpaceOnUse" x1="-91" x2="-91" y1="43.999817" y2="119.05979"><stop offset="0" stop-color="#ff5050"/><stop offset="1" stop-color="#963232"/></linearGradient><linearGradient id="d" gradientTransform="matrix(.2134205 0 0 .06641689 -13.147881 75.518568)" gradientUnits="userSpaceOnUse" x1="302.85715" x2="302.85715" y1="366.64789" y2="609.50507"><stop offset="0" stop-opacity="0"/><stop offset=".5"/><stop offset="1" stop-opacity="0"/></linearGradient><radialGradient id="e" cx="605.71429" cy="486.64789" gradientTransform="matrix(.08277507 0 0 .06641689 65.628912 75.518568)" gradientUnits="userSpaceOnUse" r="117.14286" xlink:href="#f"/><linearGradient id="f"><stop offset="0"/><stop offset="1" stop-opacity="0"/></linearGradient><radialGradient id="g" cx="605.71429" cy="486.64789" gradientTransform="matrix(-.08277505 0 0 .06641689 62.347829 75.518568)" gradientUnits="userSpaceOnUse" r="117.14286" xlink:href="#f"/><linearGradient id="h" gradientTransform="matrix(1.3117629 0 0 1.3024467 -70.020911 -3.024751)" gradientUnits="userSpaceOnUse" x1="97.538795" x2="97.538795" y1="8.810323" y2="44.260689"><stop offset="0" stop-color="#fff"/><stop offset=".1088333" stop-color="#fff" stop-opacity=".235294"/><stop offset=".97909725" stop-color="#fff" stop-opacity=".156863"/><stop offset="1" stop-color="#fff" stop-opacity=".392157"/></linearGradient><linearGradient id="i" gradientTransform="matrix(1.0669668 0 0 1.1054032 70.355621 -4.275064)" gradientUnits="userSpaceOnUse" x1="-51.786404" x2="-51.786404" y1="53.514328" y2="3.633682"><stop offset="0" stop-opacity=".321739"/><stop offset="1" stop-opacity=".278261"/></linearGradient><path d="m6.9047717 8.3325268c-.5452063 0-.9841269.4389207-.9841269.984127v2.9370042h-1.4761905c-.5452064 0-.984127.43892-.984127.984127v15.253968h57.0793647v-15.253968c0-.545207-.43892-.984127-.984127-.984127h-30.999999v-2.9370042c0-.5452063-.438921-.984127-.984127-.984127z" fill="#cecece"/><path d="m7.2309065 8.0711968c-.9241838.0100873-1.5562935.4498937-1.5562935 1.3149167v2.6214335c-.4726762 0-.726827-.0015-1.0354984 0-.8259581.0039-1.4159717.464956-1.4159717 1.394006.046057 13.53059-.00886 15.380207-.00886 15.380207l57.5714311 1.482312v-16.876218c0-.865028-.56974-1.390394-1.493929-1.380307h-30.490197v-2.5581738c0-.865023-.584291-1.3781764-1.450736-1.3781764h-20.1199553z" fill="none" opacity=".8" stroke="url(#i)" stroke-width=".492063"/><path d="m7.1508035 8.5631816c-.5452064 0-.984127.4389206-.984127.984127v2.9523814h-1.4761905c-.5452063 0-.984127.43892-.984127.984127v16.238095h56.587302v-16.238095c0-.545207-.438921-.984127-.984127-.984127h-31v-2.9523814c0-.5452064-.43892-.984127-.984127-.984127z" fill="none" stroke="url(#h)" stroke-linecap="round" stroke-linejoin="round" stroke-width=".492063"/><g transform="matrix(.49340874 0 0 .48810327 .427578 1.380024)"><path d="m12.462574 99.870178h103.05159v16.129816h-103.05159z" fill="url(#d)" opacity=".3"/><path d="m115.51417 99.870734v16.128926c4.26271.0304 10.30516-3.61367 10.30516-8.0655s-4.75687-8.063426-10.30516-8.063426z" fill="url(#e)" opacity=".3"/><path d="m12.462574 99.870734v16.128926c-4.2627113.0304-10.3051588-3.61367-10.3051588-8.0655s4.7568636-8.063426 10.3051588-8.063426z" fill="url(#g)" opacity=".3"/></g><path d="m2.5992063 25.277727 58.8015827.000389c.821062.000005 1.353179.461442 1.353179 1.035129l-2.320807 27.981309c.01899.725882-.270709 1.013695-1.224668.998475l-54.0940352-.018206c-.8210522 0-1.6489835-.42839-1.6489835-1.002077l-2.2194426-27.959486c0-.573687.5321175-1.035538 1.3531746-1.035533z" fill="url(#c)"/><path d="m2.3643543 25.031695 59.2712817.000394c.827847.000005 1.364364.469005 1.364364 1.052106l-2.331854 28.44002c.01914.73778-.272948 1.030312-1.234789 1.014836l-54.5410954-.018551c-.8278378 0-1.6626087-.435417-1.6626087-1.018512l-2.2296529-28.417779c0-.583095.5365165-1.052519 1.3643543-1.052514z" fill="url(#b)" opacity=".4"/><g fill="none" stroke-linecap="round" stroke-linejoin="round"><path d="m1.7593032 27.073419 2.1885951 27.094832c.070355.601956.9954985.609406 1.3510193.609406 0 0 36.5913134.01594 53.9292384.02387 1.262635-.06399.569421-1.477923.813662-2.189205.420542-8.736426 2.235405-25.999396 2.235405-25.999396 0-.449829-.38377-.68635-1.086171-.68635h-58.5809514c-.8481452 0-.9078965.465384-.8507974 1.146848z" opacity=".5" stroke="url(#a)"/><path d="m2.5992063 25.277727 58.8015827.000389c.821062.000005 1.353179.461442 1.353179 1.035129l-2.320807 27.981309c.01899.725882-.270709 1.013695-1.224668.998475l-54.0940352-.018206c-.8210522 0-1.6489835-.42839-1.6489835-1.002077l-2.2194426-27.959486c0-.573687.5321175-1.035538 1.3531746-1.035533z" opacity=".3" stroke="#000" stroke-width=".492063"/></g></svg>