<svg height="32" width="32" xmlns="http://www.w3.org/2000/svg" xmlns:xlink="http://www.w3.org/1999/xlink"><linearGradient id="a" gradientTransform="matrix(.89186139 0 0 1.0539115 3.120829 5.412539)" gradientUnits="userSpaceOnUse" x1="27.557428" x2="27.557428" y1="7.162672" y2="21.386522"><stop offset="0" stop-color="#fff"/><stop offset=".0097359" stop-color="#fff" stop-opacity=".235294"/><stop offset=".99001008" stop-color="#fff" stop-opacity=".156863"/><stop offset="1" stop-color="#fff" stop-opacity=".392157"/></linearGradient><linearGradient id="b" gradientTransform="matrix(.7467531 0 0 .6554922 -1.921891 1.167619)" gradientUnits="userSpaceOnUse" x1="22.934725" x2="22.809399" y1="49.629246" y2="36.657963"><stop offset="0" stop-color="#0a0a0a" stop-opacity=".498"/><stop offset="1" stop-color="#0a0a0a" stop-opacity="0"/></linearGradient><linearGradient id="c" gradientTransform="matrix(.64444432 0 0 .64285702 .533519 .892859)" gradientUnits="userSpaceOnUse" x1="35.792694" x2="35.792694" y1="17.118193" y2="43.761127"><stop offset="0" stop-color="#57738b"/><stop offset="1" stop-color="#455157"/></linearGradient><linearGradient id="d" gradientTransform="matrix(.05114282 0 0 .01591575 -2.489957 22.29927)" gradientUnits="userSpaceOnUse" x1="302.85715" x2="302.85715" y1="366.64789" y2="609.50507"><stop offset="0" stop-opacity="0"/><stop offset=".5"/><stop offset="1" stop-opacity="0"/></linearGradient><radialGradient id="e" cx="605.71429" cy="486.64789" gradientTransform="matrix(.01983573 0 0 .01591575 16.38765 22.29927)" gradientUnits="userSpaceOnUse" r="117.14286" xlink:href="#f"/><linearGradient id="f"><stop offset="0"/><stop offset="1" stop-opacity="0"/></linearGradient><radialGradient id="g" cx="605.71429" cy="486.64789" gradientTransform="matrix(-.01983573 0 0 .01591575 15.60139 22.29927)" gradientUnits="userSpaceOnUse" r="117.14286" xlink:href="#f"/><linearGradient id="h" gradientTransform="matrix(.54383556 0 0 .61466406 3.268879 5.091139)" gradientUnits="userSpaceOnUse" x1="21.37039" x2="21.37039" y1="4.73244" y2="34.143417"><stop offset="0" stop-color="#fff"/><stop offset=".1106325" stop-color="#fff" stop-opacity=".235294"/><stop offset=".99001008" stop-color="#fff" stop-opacity=".156863"/><stop offset="1" stop-color="#fff" stop-opacity=".392157"/></linearGradient><linearGradient id="i" gradientUnits="userSpaceOnUse" x1="8.60130091713" x2="8.60130091713" y1="9.47618806" y2="11.33333092"><stop offset="0" stop-color="#f9f9f9"/><stop offset="1" stop-color="#d8d8d8"/></linearGradient><linearGradient id="j" gradientTransform="matrix(.50703384 0 0 .50300255 68.029219 1.329769)" gradientUnits="userSpaceOnUse" x1="-51.786404" x2="-51.786404" y1="53.514328" y2="3.633682"><stop offset="0" stop-opacity=".321739"/><stop offset="1" stop-opacity=".278261"/></linearGradient><path d="m4.0001794 6.500079c-.43342.005-.5.21723-.5.6349v1.36502c-1.24568 0-1-.002-1 .54389.0216 6.53313 0 6.90143 0 7.45611.90135 0 26.9999996-2.34895 26.9999996-3.36005v-4.09606c0-.41767-.34799-.54876-.78141-.54389h-14.21859v-1.36502c0-.41767-.26424-.63977-.69767-.6349z" fill="none" opacity=".8" stroke="url(#j)"/><path d="m4.0001794 6.999999v2h-1v4h25.9999996v-4h-15v-2z" fill="url(#i)"/><path d="m4.5001794 7.499999v2h-1v4h24.9999996v-4h-15v-2z" fill="#cecece" stroke="url(#h)" stroke-linecap="round"/><g transform="translate(.000179 -1.000001)"><path d="m3.647182 28.134747h24.694677v3.865254h-24.694677z" fill="url(#d)" opacity=".3"/><path d="m28.341859 28.13488v3.865041c1.021491.0073 2.469468-.86596 2.469468-1.932769 0-1.06681-1.139908-1.932272-2.469468-1.932272z" fill="url(#e)" opacity=".3"/><path d="m3.6471816 28.13488v3.865041c-1.0214912.0073-2.4694678-.86596-2.4694678-1.932769 0-1.06681 1.1399068-1.932272 2.4694678-1.932272z" fill="url(#g)" opacity=".3"/></g><path d="m1.9270194 11.499999c-.69105.0796-.32196.90258-.37705 1.36535.0802.29906.59771 15.71799.59771 16.24744 0 .46018.22667.38222.80101.38222h26.3974796c.61872.0143.48796.007.48796-.38947.0452-.20269.63993-16.97848.66282-17.24344 0-.279.0581-.3621-.30493-.3621-9.0765 0-19.18849 0-28.2649996 0z" fill="url(#c)"/><path d="m1.6819994 10.999999 28.6363696.00027c.4137 0 .68181.29209.68181.65523l-.6735 17.71211c.01.45948-.1364.64166-.61707.63203l-27.2561296-.0115c-.4137 0-.83086-.27118-.83086-.63432l-.62244-17.69829c0-.36314.26812-.65549.68182-.65549z" fill="url(#b)" opacity=".4"/><path d="m2.5001794 12.499999.62498 16h25.7491696l.62498-16z" fill="none" opacity=".5" stroke="url(#a)" stroke-linecap="round"/><path d="m1.9270194 11.499999c-.69105.0796-.32196.90258-.37705 1.36535.0802.29906.59771 15.71799.59771 16.24744 0 .46018.22667.38222.80101.38222h26.3974796c.61872.0143.48796.007.48796-.38947.0452-.20269.63993-16.97848.66282-17.24344 0-.279.0581-.3621-.30493-.3621-9.0765 0-19.18849 0-28.2649996 0z" fill="none" opacity=".3" stroke="#000" stroke-linecap="round" stroke-linejoin="round"/><path d="m-34.509568 111.99674c-.799068 0-1.446077-.66286-1.446077-1.47558v-2.86264c-1.42878-.38067-2.793984-.95569-4.043097-1.68216l-2.036312 2.03631c-.287342.28733-.631543.43952-1.003392.44267-.371849.003-.750398-.13065-1.032907-.41317l-3.98408-3.98407c-.565018-.56502-.545167-1.46162.02945-2.03631l2.036308-2.036304c-.72647-1.249125-1.301482-2.614325-1.682171-4.043105h-2.862628c-.812722 0-1.475587-.64701-1.475587-1.44607v-5.60722c0-.79906.662865-1.44607 1.475587-1.44607h2.862628c.380689-1.42879.955701-2.79399 1.682168-4.0431l-2.036307-2.03631c-.57468-.57468-.59453-1.47128-.02945-2.0363l3.984081-3.98408c.565017-.56502 1.461622-.54517 2.036299.0295l2.036312 2.0363c1.249112-.72647 2.614316-1.30148 4.043096-1.68216v-2.86263c0-.81272.64701-1.47559 1.446077-1.47559h5.607218c.79906 0 1.446071.66287 1.446071 1.47559v2.86263c1.428778.38068 2.793982.95569 4.043097 1.68216l2.036308-2.0363c.574678-.57468 1.471284-.59454 2.036308-.0295l3.984073 3.98408c.565017.56502.545166 1.46162-.02946 2.0363l-2.036301 2.03631c.726468 1.24911 1.301477 2.61431 1.682161 4.0431h2.862637c.812714 0 1.475583.647 1.475583 1.44607v5.60722c0 .79906-.662869 1.44607-1.475583 1.44607h-2.862637c-.380681 1.42878-.955689 2.79398-1.682157 4.043105l2.0363 2.036304c.574678.57469.594536 1.47129.02946 2.03631l-3.984072 3.98407c-.565027.56503-1.46163.54518-2.03631-.0295l-2.036309-2.0363c-1.249114.72648-2.614317 1.30149-4.043096 1.68217v2.86262c0 .81273-.64701 1.47559-1.446071 1.47559h-5.607217zm2.803605-14.165609c3.388417 0 6.138431-2.75002 6.138431-6.13843s-2.750014-6.13843-6.138431-6.13843c-3.388411 0-6.13843 2.75002-6.13843 6.13843s2.750019 6.13843 6.13843 6.13843z" display="block" fill="#28323c" opacity=".9" transform="matrix(.29550691917 0 0 .29550755516 25.36933209531 -6.0958854599)"/></svg>