<svg height="48" width="48" xmlns="http://www.w3.org/2000/svg" xmlns:xlink="http://www.w3.org/1999/xlink"><linearGradient id="a" gradientTransform="matrix(.89189031 0 0 1.0580283 3.120661 5.353602)" gradientUnits="userSpaceOnUse" x1="112.61407" x2="112.61407" y1="24.172094" y2="43.102074"><stop offset="0" stop-color="#fff"/><stop offset=".01022492" stop-color="#fff" stop-opacity=".235294"/><stop offset=".99001008" stop-color="#fff" stop-opacity=".156863"/><stop offset="1" stop-color="#fff" stop-opacity=".392157"/></linearGradient><linearGradient id="b" gradientTransform="matrix(1.1446925 0 0 .79743335 -3.466087 9.910088)" gradientUnits="userSpaceOnUse" x1="22.934725" x2="22.809399" y1="49.629246" y2="36.657963"><stop offset="0" stop-color="#0a0a0a" stop-opacity=".498"/><stop offset="1" stop-color="#0a0a0a" stop-opacity="0"/></linearGradient><linearGradient id="c" gradientTransform="matrix(1 0 0 1.0357143 13.097313 6.410898)" gradientUnits="userSpaceOnUse" x1="35.792694" x2="35.792694" y1="17.118193" y2="36.751781"><stop offset="0" stop-color="#55a7f3"/><stop offset="1" stop-color="#1374cf"/></linearGradient><radialGradient id="d" cx="605.71429" cy="486.64789" gradientTransform="matrix(-.03079083 0 0 .02470588 23.389813 31.941628)" gradientUnits="userSpaceOnUse" r="117.14286" xlink:href="#e"/><linearGradient id="e"><stop offset="0"/><stop offset="1" stop-opacity="0"/></linearGradient><radialGradient id="f" cx="605.71429" cy="486.64789" gradientTransform="matrix(.03079083 0 0 .02470588 24.610213 31.941628)" gradientUnits="userSpaceOnUse" r="117.14286" xlink:href="#e"/><linearGradient id="g" gradientTransform="matrix(.07938856 0 0 .02470588 -4.693287 31.941628)" gradientUnits="userSpaceOnUse" x1="302.85715" x2="302.85715" y1="366.64789" y2="609.50507"><stop offset="0" stop-opacity="0"/><stop offset=".5"/><stop offset="1" stop-opacity="0"/></linearGradient><linearGradient id="h" gradientTransform="matrix(.89189031 0 0 1.0580283 3.120713 5.353588)" gradientUnits="userSpaceOnUse" x1="21.37039" x2="21.37039" y1="4.247668" y2="34.143417"><stop offset="0" stop-color="#fff"/><stop offset=".07395859" stop-color="#fff" stop-opacity=".235294"/><stop offset=".99001008" stop-color="#fff" stop-opacity=".156863"/><stop offset="1" stop-color="#fff" stop-opacity=".392157"/></linearGradient><linearGradient id="i" gradientTransform="matrix(.80749834 0 0 .83374395 106.87671 -.069852)" gradientUnits="userSpaceOnUse" x1="-51.786404" x2="-51.786404" y1="53.514328" y2="3.633682"><stop offset="0" stop-opacity=".321739"/><stop offset="1" stop-opacity=".278261"/></linearGradient><path d="m5.5000133 8.4999877c-.554 0-1 .446-1 1v2.0000003h-1c-.554 0-1 .446-1 1v12h42.9999997v-12c0-.554-.446-1-1-1h-23v-2.0000003c0-.554-.446-1-1-1z" fill="none" opacity=".8" stroke="url(#i)"/><path d="m5.5000133 8.9999877c-.277 0-.5.223-.5.5v2.5000003h-1.5c-.277 0-.5.223-.5.5v12h41.9999997v-12c0-.277-.223-.5-.5-.5h-23.5v-2.5000003c0-.277-.223-.5-.5-.5z" fill="#cecece"/><path d="m5.5000133 9.4999877v3.0000003h-2v11h40.9999997v-11h-24v-3.0000003z" fill="none" stroke="url(#h)" stroke-linecap="round" stroke-linejoin="round"/><path d="m4.833375 41h38.333332v6.000001h-38.333332z" fill="url(#g)" opacity=".3"/><path d="m43.166713 41.000198v5.99967c1.5856.0113 3.8333-1.34422 3.8333-3.00022s-1.7695-2.99945-3.8333-2.99945z" fill="url(#f)" opacity=".3"/><path d="m4.8333133 41.000198v5.99967c-1.5856.0113-3.8333-1.34422-3.8333-3.00022s1.7695-2.99945 3.8333-2.99945z" fill="url(#d)" opacity=".3"/><path d="m1.1627133 21.499988c-1.07270001.10099-.49950001 1.27922-.58500001 1.86617.3005 1.21697 1.97640001 19.43387 2.17930001 20.74656.3418.78845 1.5944.38468 2.3881.48477h39.5805997c1.0894-.0871.6365-1.14932.7897-1.75724.062-.88455 1.7066-14.73976 2.1793-20.74656-.2512-.77914-1.4877-.5937-2.263-.5937-14.0894 0-30.1796 0-44.2689997 0z" fill="url(#c)"/><path d="m2.0582133 21.871588 43.8964997.00032c.6342 0 1.0452.35535 1.0452.79713l-1.0324 21.5475c.015.55898-.2091.78061-.9459.76889l-41.7807997-.0141c-.6341 0-1.2736-.32989-1.2736-.77166l-.9541-21.53068c0-.44178.411-.79743 1.0451-.79743z" fill="url(#b)" opacity=".4"/><g fill="none" stroke-linecap="round"><path d="m83.65625 30.65625c.02173.102759-.01119.259429 0 .4375h.03125c.08755.354594.111073.716468.1875 1.34375.07643.627282.179267 1.422066.28125 2.375.203965 1.905868.445415 4.344567.6875 6.78125s.465329 4.871394.65625 6.78125c.165726 1.657825.260654 2.659047.3125 3.09375.282286.0038.772765-.04348 1.34375 0v-.03125h39.1875c-.0175-.151887-.0242-.333972.0312-.6875h-.0312c.002-.02462.0288-.157775.0312-.1875.0344-.41345.12159-1.208643.28125-2.625.17113-1.518186.41643-3.526172.65625-5.6875.45396-4.091183.90598-8.589135 1.15625-11.59375-.26313-.01293-.61515 0-1.03125 0h-43.78125z" opacity=".5" stroke="url(#a)" transform="translate(-82.054791 -8.000012)"/><path d="m1.1627133 21.499988c-1.07270001.10099-.49950001 1.27922-.58500001 1.86617.3005 1.21697 1.97640001 19.43387 2.17930001 20.74656.3418.78845 1.5944.38468 2.3881.48477h39.5805997c1.0894-.0871.6365-1.14932.7897-1.75724.062-.88455 1.7066-14.73976 2.1793-20.74656-.2512-.77914-1.4877-.5937-2.263-.5937-14.0894 0-30.1796 0-44.2689997 0z" opacity=".3" stroke="#000" stroke-linejoin="round"/></g></svg>