<svg height="48" width="48" xmlns="http://www.w3.org/2000/svg" xmlns:xlink="http://www.w3.org/1999/xlink"><linearGradient id="a"><stop offset="0" stop-color="#fff"/><stop offset="1" stop-color="#fff" stop-opacity="0"/></linearGradient><linearGradient id="b"><stop offset="0" stop-color="#5b5b5b"/><stop offset="1" stop-color="#0a0a0a"/></linearGradient><linearGradient id="c" gradientTransform="scale(1.0058652 .994169)" gradientUnits="userSpaceOnUse" x1="45.447727" x2="45.447727" y1="92.539597" y2="7.01654"><stop offset="0"/><stop offset="1" stop-opacity="0"/></linearGradient><linearGradient id="d" gradientTransform="scale(1.0058652 .994169)" gradientUnits="userSpaceOnUse" x1="32" x2="32" y1="91" y2="7.945801"><stop offset="0"/><stop offset="1" stop-opacity=".588235"/></linearGradient><filter id="e" color-interpolation-filters="sRGB" height="1.84" width="1.336" x="-.168" y="-.42"><feGaussianBlur stdDeviation=".55"/></filter><linearGradient id="f" gradientUnits="userSpaceOnUse" x1="-90" x2="-48" y1="27" y2="27"><stop offset="0" stop-color="#dcdcdc"/><stop offset="1" stop-color="#f0f0f0"/></linearGradient><linearGradient id="g" gradientUnits="userSpaceOnUse" x1="23.803938" x2="23.803938" xlink:href="#a" y1="48" y2="74.76207"/><radialGradient id="h" cx="27" cy="79.225327" gradientTransform="matrix(1.3472631 -.0000001 .00000008 1.1117545 -9.376109 -10.38195)" gradientUnits="userSpaceOnUse" r="16"><stop offset="0" stop-color="#55a6eb"/><stop offset="1" stop-color="#1754c4"/></radialGradient><linearGradient id="i" gradientUnits="userSpaceOnUse" x1="35.930679" x2="35.930679" xlink:href="#a" y1="50" y2="90.676056"/><linearGradient id="j" gradientUnits="userSpaceOnUse" x1="35.729221" x2="35.729221" xlink:href="#a" y1="54.0625" y2="76.510628"/><linearGradient id="k" gradientUnits="userSpaceOnUse" x1="45.16237" x2="45.16237" y1="90.000002" y2="47.9938605"><stop offset="0" stop-color="#0a0a0a"/><stop offset="1" stop-color="#3c3c3c"/></linearGradient><linearGradient id="l" gradientTransform="translate(18.16237)" gradientUnits="userSpaceOnUse" x1="23.892857" x2="23.892857" xlink:href="#c" y1="70.750648" y2="48"/><radialGradient id="m" cx="34.520515" cy="45" gradientTransform="matrix(.96086367 -.00000005 .00000002 .42336795 .99286 41.948448)" gradientUnits="userSpaceOnUse" r="27" xlink:href="#a"/><radialGradient id="n" cx="85.651291" cy="29.289238" gradientTransform="matrix(-1.1096985 0 0 -.2452675 154.62139 59.659469)" gradientUnits="userSpaceOnUse" r="21"><stop offset="0" stop-color="#52acf6"/><stop offset="1" stop-color="#0060ff"/></radialGradient><linearGradient id="o" gradientUnits="userSpaceOnUse" x1="40.590942" x2="40.590942" xlink:href="#a" y1="48" y2="74.355659"/><filter id="p" color-interpolation-filters="sRGB"><feGaussianBlur stdDeviation=".1903125"/></filter><filter id="q" color-interpolation-filters="sRGB"><feGaussianBlur stdDeviation=".285"/></filter><linearGradient id="r" gradientTransform="matrix(0 .7734129 -.773413 0 66.848695 54.358797)" gradientUnits="userSpaceOnUse" x1="34.571178" x2="43.210567" xlink:href="#b" y1="48" y2="48"/><linearGradient id="s" gradientTransform="matrix(0 .5095957 -.5095957 0 54.140822 55.663521)" gradientUnits="userSpaceOnUse" x1="34.365479" x2="43.416267" xlink:href="#b" y1="48" y2="48"/><linearGradient id="t" gradientTransform="matrix(.5294087 0 0 .5263158 .353035 43.552631)" gradientUnits="userSpaceOnUse" x1="38.473213" x2="38.473213" y1="72" y2="82.013863"><stop offset="0" stop-color="#333"/><stop offset=".43065301" stop-color="#333"/><stop offset=".55547994"/><stop offset="1"/></linearGradient><linearGradient id="u" gradientTransform="matrix(1 0 0 .5263333 -15.000002 42.92621)" gradientUnits="userSpaceOnUse" x1="33" x2="34" xlink:href="#c" y1="76.5" y2="76.5"/><linearGradient id="v" gradientTransform="matrix(1 0 0 .5263158 -57 42.927631)" gradientUnits="userSpaceOnUse" x1="33" x2="34" xlink:href="#c" y1="76.5" y2="76.5"/><linearGradient id="w" gradientTransform="matrix(.5294087 0 0 .5263158 .353035 42.927631)" gradientUnits="userSpaceOnUse" x1="39" x2="39" y1="72" y2="42"><stop offset="0" stop-color="#4f4f4f"/><stop offset="1" stop-color="#a2a2a2"/></linearGradient><linearGradient id="x" gradientTransform="matrix(1 0 0 .6666667 48.000005 -72)" gradientUnits="userSpaceOnUse" x1="33" x2="34" xlink:href="#c" y1="76.5" y2="76.5"/><linearGradient id="y" gradientUnits="userSpaceOnUse" x1="36.925404" x2="42.850594" y1="48" y2="48"><stop offset="0" stop-opacity=".426295"/><stop offset="1" stop-color="#fff" stop-opacity=".317073"/></linearGradient><linearGradient id="z" gradientUnits="userSpaceOnUse" x1="34.139206" x2="43.64254" y1="48" y2="48"><stop offset="0" stop-color="#7c8791"/><stop offset="1" stop-color="#485257"/></linearGradient><g transform="matrix(.52173913959 0 0 .52173913959 -1.04347861579 -1.56521793258)"><g><path d="m12 4c-5.4880548 0-10 4.5119452-10 10v29c0 2.629699 1.2687874 4.795256 2.90625 6.5-1.6374626 1.704744-2.90625 3.870301-2.90625 6.5v29c0 5.488055 4.5119452 10 10 10h30c2.37739 0 4.366863-1.047966 6-2.40625 1.633137 1.358284 3.62261 2.40625 6 2.40625h30c5.488055 0 10-4.511945 10-10v-29c0-5.488055-4.511945-10-10-10h-30c-1.033652 0-1.943371.336473-2.84375.65625.512004-1.1091.84375-2.323437.84375-3.65625v-29c0-5.4880548-4.511945-10-10-10z" opacity=".08"/><path d="m12 5c-4.9509747 0-9 4.0490253-9 9v29c0 2.65329 1.3270302 4.873261 3.15625 6.5-1.8292198 1.626739-3.15625 3.84671-3.15625 6.5v29c0 4.950975 4.0490253 9 9 9h30c2.388675 0 4.414304-1.080788 6-2.59375 1.585696 1.512962 3.611325 2.59375 6 2.59375h30c4.950975 0 9-4.049025 9-9v-29c0-4.950975-4.049025-9-9-9h-30c-2.378476 0-4.384035 1.090383-5.96875 2.59375-.05301-.051-.101792-.106427-.15625-.15625 1.804695-1.627338 3.125-3.806401 3.125-6.4375v-29c0-4.9509747-4.049025-9-9-9z" opacity=".1"/><path d="m12 6c-4.406694 0-8 3.593306-8 8v29c0 2.713879 1.3974519 5.061704 3.46875 6.5-2.0712981 1.438296-3.46875 3.786121-3.46875 6.5v29c0 4.406694 3.593306 8 8 8h30c2.422034 0 4.538346-1.140945 6-2.84375 1.461654 1.702805 3.577966 2.84375 6 2.84375h30c4.406694 0 8-3.593306 8-8v-29c0-4.406694-3.593306-8-8-8h-30c-2.437789 0-4.569366 1.153024-6.03125 2.875-.439573-.511078-.913756-.958559-1.46875-1.34375 2.091169-1.435561 3.5-3.801982 3.5-6.53125v-29c0-4.406694-3.593306-8-8-8z" opacity=".2"/><path d="m12 7c-3.878 0-7 3.122-7 7v29c0 2.969094 1.8392316 5.479063 4.4375 6.5-2.5982684 1.020937-4.4375 3.530906-4.4375 6.5v29c0 3.878 3.122 7 7 7h30c2.557737 0 4.77882-1.368894 6-3.40625 1.22118 2.037356 3.442263 3.40625 6 3.40625h30c3.878 0 7-3.122 7-7v-29c0-3.878-3.122-7-7-7h-30c-2.557737 0-4.77882 1.368894-6 3.40625-.787227-1.31337-1.9946-2.339291-3.4375-2.90625 2.598268-1.020937 4.4375-3.530906 4.4375-6.5v-29c0-3.878-3.122-7-7-7z" opacity=".3"/><path d="m12 7c-3.324 0-6 2.676-6 6v30c0 3.324 2.676 6 6 6-3.324 0-6 2.676-6 6v30c0 3.324 2.676 6 6 6h30c3.324 0 6-2.676 6-6 0 3.324 2.676 6 6 6h30c3.324 0 6-2.676 6-6v-30c0-3.324-2.676-6-6-6h-30c-3.324 0-6 2.676-6 6 0-3.324-2.676-6-6-6 3.324 0 6-2.676 6-6v-30c0-3.324-2.676-6-6-6z" fill="url(#d)" opacity=".45"/></g><g><g id="A" transform="translate(42)"><rect fill="url(#f)" height="42" rx="6" transform="rotate(-90)" width="42" x="-90" y="6"/><path d="m12 48c-3.324 0-6 2.676-6 6v30c0 2.984862 2.152831 5.43487 5 5.90625-2.277431-.458405-3.96875-2.44967-3.96875-4.875v-30c0-2.771806 2.196909-4.96875 4.96875-4.96875h30c2.771841 0 4.968751 2.196944 4.96875 4.96875v30c0 2.42533-1.691319 4.416595-3.96875 4.875 2.847169-.47138 5-2.921388 5-5.90625v-30c0-3.324-2.676-6-6-6z" fill="url(#g)" opacity=".5"/><rect height="34" rx="4" width="38" x="8" y="50"/><path d="m19.5 82c-.831 0-1.5.669-1.5 1.5h-1.5v.5c.828 0 1.5.672 1.5 1.5v1c0 .831.669 1.5 1.5 1.5h15c.831 0 1.5-.669 1.5-1.5v-1c0-.828.672-1.5 1.5-1.5v-.5h-1.5c0-.831-.669-1.5-1.5-1.5z"/><rect fill="#cf0" filter="url(#e)" height="3.142857" opacity=".243028" rx="1.571429" transform="matrix(.5238631 0 0 .7049328 2.507494 28.37848)" width="7.857143" x="50.57143" y="79.535713"/><rect fill="#7fff2a" height="1" rx=".434905" ry=".5" width="2.174526" x="29.970766" y="85.053574"/><path d="m11 53h32v28h-32z" fill="url(#h)"/><path d="m11 53v28h32v-28zm1 1h30v26h-30z" fill="#103c8c"/><path d="m11 81h32v.5h-32z" fill="#7f7f7f"/><path d="m27.28125 50 .875 3h14.84375v28h-6.53125l.875 3h4.65625c2.216 0 4-1.784 4-4v-26c0-2.216-1.784-4-4-4z" fill="url(#i)" fill-rule="evenodd" opacity=".3"/><path d="m28.46875 54.0625 7.6875 25.875h5.78125v-25.875z" fill="url(#j)" fill-rule="evenodd" opacity=".7"/><path d="m28.46875 54.0625 7.6875 25.875h.53125l-7.6875-25.875z" fill="url(#j)" fill-rule="evenodd" opacity=".7"/><path d="m8 80v1c0 2.216 1.784 4 4 4h4.5c.828 0 1.5.672 1.5 1.5v-1c0-.828-.672-1.5-1.5-1.5h-4.5c-2.216 0-4-1.784-4-4zm10 6.5v1c0 .831.669 1.5 1.5 1.5h15c.831 0 1.5-.669 1.5-1.5v-1c0 .831-.669 1.5-1.5 1.5h-15c-.831 0-1.5-.669-1.5-1.5zm18 0c0-.828.672-1.5 1.5-1.5h4.5c2.216 0 4-1.784 4-4v-1c0 2.216-1.784 4-4 4h-4.5c-.828 0-1.5.672-1.5 1.5z" fill="#fff"/></g><use height="96" transform="translate(-42 -42)" width="96" xlink:href="#A"/></g><g transform="matrix(.99999785 0 0 .99212394 -18.162227 .865095)"><rect fill="url(#k)" height="42" rx="6" width="42" x="24.162365" y="48.000004"/><path d="m30.162371 48c-3.324 0-6.000001 2.676-6.000001 6v30c0 3.324 2.676001 6.000004 6.000001 6h30c3.324 0 6-2.675996 6-6v-30c0-3.324-2.676-6-6-6zm0 1h30c2.778924 0 5 2.221076 5 5v30c0 2.778929-2.221075 5-5 5h-30c-2.778922.000003-5-2.221076-5-5v-30c0-2.778924 2.221076-5 5-5z" fill="url(#l)"/><path d="m34.162369 47.666668h30v13.333333h-30z" fill="url(#m)" opacity=".171"/><path d="m38.662369 52.5h21v5h-21z" fill="url(#n)" stroke="#2f24aa" stroke-linecap="square"/><path d="m34.162369 48h1v16h-1z" opacity=".5"/><path d="m63.162371 48.8125v15.1875h1v-14.46875c-.306714-.274579-.640983-.51153-1-.71875z" opacity=".4"/><path d="m30.162371 48c-3.324 0-6.000001 2.676-6.000001 6v30c0 2.984862 2.152831 5.434872 5.000001 5.90625-2.286789-.463119-4-2.474691-4-4.90625v-30c0-2.778924 2.221076-5 5-5h30c2.778924 0 5 2.221076 5 5v30c0 2.431563-1.71321 4.44313-4 4.90625 2.847169-.47138 5-2.921384 5-5.90625v-30c0-3.324-2.676-6-6-6z" fill="url(#o)" opacity=".15"/><g id="B" transform="translate(18.16237)"><path d="m18.336386 69.391447c-.04391.308622-.210923.578128-.463232.740132v2.43421c.291983.187479.479776.517136.479776.888158.000001.371023-.187793.70068-.479776.888158v2.434211c.291983.187478.479776.517135.479776.888158.000001.371022-.187793.700679-.479776.888158v2.43421c.291983.187479.479776.517136.479776.888158.000001.371023-.187793.70068-.479776.888158v1.052632h.49632c.07953-.502989.514104-.888158 1.042274-.888158s.962748.385169 1.042273.888158h2.150723c.07953-.502989.514104-.888158 1.042273-.888158.275103 0 .523066.10841.711393.279605v-2.664474c-.188327.171195-.43629.279606-.711393.279606-.584466 0-1.058817-.471579-1.058817-1.052632.000001-.581053.47435-1.052632 1.058817-1.052632.275103 0 .523066.108411.711393.279606v-2.664474c-.188327.171195-.43629.279605-.711393.279605-.584466 0-1.058817-.471579-1.058817-1.052631.000001-.581053.47435-1.052632 1.058817-1.052632.275103 0 .523066.108411.711393.279605v-2.664473c-.188327.171194-.43629.279605-.711393.279605-.584466 0-1.058817-.471579-1.058817-1.052632.000001-.581052.47435-1.052631 1.058817-1.052631.275103 0 .523066.10841.711393.279605v-1.184211h-1.786754c-.07267.5108-.508517.904606-1.042273.904606s-.969606-.393806-1.042274-.904606zm1.075362.904606c.584468 0 1.058817.471579 1.058817 1.052631.000001.581053-.47435 1.052632-1.058817 1.052632s-1.058818-.471579-1.058818-1.052632c.000001-.581052.474351-1.052631 1.058818-1.052631zm2.117635 2.105263c.584467 0 1.058817.471579 1.058817 1.052631.000001.581053-.47435 1.052632-1.058817 1.052632s-1.058818-.471579-1.058818-1.052632c.000001-.581052.47435-1.052631 1.058818-1.052631zm-2.117635 2.105263c.584468 0 1.058817.471579 1.058817 1.052632.000001.581052-.47435 1.052631-1.058817 1.052631s-1.058818-.471579-1.058818-1.052631c.000001-.581053.474351-1.052632 1.058818-1.052632zm2.117635 2.105263c.584467 0 1.058817.471579 1.058817 1.052632.000001.581052-.47435 1.052631-1.058817 1.052631s-1.058818-.471579-1.058818-1.052631c.000001-.581053.47435-1.052632 1.058818-1.052632zm-2.117635 2.105263c.584468 0 1.058817.471579 1.058817 1.052632.000001.581053-.47435 1.052632-1.058817 1.052632s-1.058818-.471579-1.058818-1.052632c.000001-.581053.474351-1.052632 1.058818-1.052632zm2.117635 2.105264c.584467 0 1.058817.471579 1.058817 1.052631.000001.581053-.47435 1.052632-1.058817 1.052632s-1.058818-.471579-1.058818-1.052632c.000001-.581052.47435-1.052631 1.058818-1.052631z" fill="#999"/><path d="m34 68.96875v6.03125c0 .554.446 1 1 1s1-.446 1-1v-6.03125zm4 0v6.03125c0 .554.446 1 1 1s1-.446 1-1v-6.03125zm4 0v6.03125c0 .554.446 1 1 1s1-.446 1-1v-6.03125z" fill="none" filter="url(#p)" stroke="#000" stroke-linecap="square" stroke-width="1.894442" transform="matrix(.5294087 0 0 .5263158 .353035 42.927631)"/><path d="m16 62h10v26h-10z"/><path d="m18.4375 80c-.277 0-.5.223-.5.5v.125h-.65625v6.09375h7.4375v-6.09375h-.46875v-.125c0-.277-.223-.5-.5-.5z" fill="url(#t)"/><path d="m16.965597 81.973684v4.009634 1.052631h1.058818 5.928797.579041.479776v-5.062265h-1.058817v4.009634h-5.928797v-4.009634z" fill="#656e79"/><path d="m17 81h1v1h-1z"/><path d="m24.176426 80.822365h1.058817v.526316h-1.058817z"/><path d="m18 80.822205h1v4.737h-1z" fill="url(#u)"/><path d="m-24 80.822365h1v4.736842h-1z" fill="url(#v)" transform="scale(-1 1)"/><path d="m34 51.5v15.5c0 .554.446 1 1 1s1-.446 1-1v-13.71875c-.787438-.447486-1.481631-1.043087-2-1.78125zm10 0c-.518369.738163-1.212562 1.333764-2 1.78125v13.71875c0 .554.446 1 1 1s1-.446 1-1zm-6 2.5v13c0 .554.446 1 1 1s1-.446 1-1v-13c-.327491.05456-.657101.09375-1 .09375s-.672508-.03919-1-.09375z" fill="none" filter="url(#q)" stroke="#000" stroke-linecap="square" stroke-width="1.894442" transform="matrix(.5294087 0 0 .5263158 .353035 42.927631)"/><path d="m19 75.84375v6.65625c0 .277.223.5.5.5s.5-.223.5-.5v-6.25c-.358059-.08471-.682581-.238403-1-.40625zm4 0c-.317419.167847-.641941.321539-1 .40625v6.25c0 .277.223.5.5.5s.5-.223.5-.5z" opacity=".7"/><path d="m16.9375 65.03125v15.96875h8.125v-15.96875z" fill="url(#w)"/><path d="m81-24h1v6h-1z" fill="url(#x)" transform="rotate(90)"/><path d="m42.850595 48a3.959722 3.959722 0 1 1 -7.919444 0 3.959722 3.959722 0 1 1 7.919444 0z" fill="url(#y)" transform="matrix(0 .7282863 -.7325661 0 56.163147 39.867098)"/><path d="m42.850595 48a3.959722 3.959722 0 1 1 -7.919444 0 3.959722 3.959722 0 1 1 7.919444 0z" fill="#c6c6c6" stroke="#000" stroke-linecap="square" stroke-width="2.143275" transform="matrix(.4679446 0 0 .4652108 2.801199 45.860671)"/><path d="m42.850595 48a3.959722 3.959722 0 1 1 -7.919444 0 3.959722 3.959722 0 1 1 7.919444 0z" fill="none" stroke="url(#z)" stroke-linecap="square" stroke-width="3.000585" transform="matrix(0 .3322934 -.3342462 0 37.043788 55.267608)"/><path d="m20.999974 67.401316c-.440612 0-.810657.367883-.810657.805921 0 .365031.271486.665088.612129.756579v.263158h.363968v-.246711c.362838-.07326.628672-.389744.628673-.773026 0-.438038-.353502-.805921-.794113-.805921zm0 .263158c.29739 0 .529409.24711.529409.542763-.000001.295652-.232019.526316-.529409.526316-.29739-.000001-.545953-.230664-.545953-.526316.000001-.295653.248563-.542763.545953-.542763z" opacity=".426295"/><path d="m17.611696 60.086811h4.540593v1.513531h-4.540593z" fill="#0ad74a"/><path d="m16 62.5h10v.5h-10z" fill="#c4c4c4"/><path d="m24 81h1v1h-1z"/><path d="m19 71.84375v6.65625c0 .277.223.5.5.5s.5-.223.5-.5v-6.25c-.358059-.08471-.682581-.238403-1-.40625zm4 0c-.317419.167847-.641941.321539-1 .40625v6.25c0 .277.223.5.5.5s.5-.223.5-.5z" fill="#34363a" opacity=".7"/></g><use id="C" height="96" transform="translate(9.999999)" width="96" xlink:href="#B"/><use height="96" transform="translate(9.999999)" width="96" xlink:href="#C"/><g stroke="#000" stroke-linecap="square"><path d="m29.724871 87.5a3.0625005 3.0625001 0 1 1 0-6.125 3.0625005 3.0625001 0 1 1 0 6.125z" fill="url(#r)"/><path d="m29.680228 77.5a2.0178575 2.0178575 0 1 1 0-4.035715 2.0178575 2.0178575 0 1 1 0 4.035715z" fill="url(#s)"/></g></g></g></svg>