<svg height="48" width="48" xmlns="http://www.w3.org/2000/svg" xmlns:xlink="http://www.w3.org/1999/xlink"><linearGradient id="a" gradientTransform="matrix(1.0238095 0 0 1.0119048 -1.142857 -98.071429)" gradientUnits="userSpaceOnUse" x1="32.251034" x2="32.251034" xlink:href="#b" y1="6.131708" y2="90.238609"/><linearGradient id="b" gradientTransform="matrix(1.0058652 0 0 .994169 100 0)" gradientUnits="userSpaceOnUse" x1="45.447727" x2="45.447727" y1="92.539597" y2="7.01654"><stop offset="0"/><stop offset="1" stop-opacity=".588235"/></linearGradient><linearGradient id="c" gradientTransform="translate(0 -97)" gradientUnits="userSpaceOnUse" x1="32.251034" x2="32.251034" xlink:href="#b" y1="6.131708" y2="90.238609"/><linearGradient id="d" gradientUnits="userSpaceOnUse" x1="48" x2="48" y1="90" y2="5.987717"><stop offset="0" stop-color="#0a0a0a"/><stop offset="1" stop-color="#3c3c3c"/></linearGradient><radialGradient id="e" cx="48" cy="90.171875" gradientTransform="matrix(1.1573129 0 0 .99590774 -7.551021 .197132)" gradientUnits="userSpaceOnUse" r="42" xlink:href="#f"/><linearGradient id="f"><stop offset="0" stop-color="#fff"/><stop offset="1" stop-color="#fff" stop-opacity="0"/></linearGradient><linearGradient id="g"><stop offset="0" stop-opacity=".426295"/><stop offset="1" stop-color="#fff" stop-opacity=".317073"/></linearGradient><linearGradient id="h" gradientUnits="userSpaceOnUse" x1="34.571178" x2="43.210567" xlink:href="#i" y1="48" y2="48"/><linearGradient id="i"><stop offset="0" stop-color="#5b5b5b"/><stop offset="1" stop-color="#0a0a0a"/></linearGradient><linearGradient id="j" gradientUnits="userSpaceOnUse" x1="34.139206" x2="43.64254" y1="48" y2="48"><stop offset="0" stop-color="#747474"/><stop offset="1"/></linearGradient><linearGradient id="k" gradientUnits="userSpaceOnUse" x1="34.365479" x2="43.416267" xlink:href="#i" y1="48" y2="48"/><radialGradient id="l" cx="77.203049" cy="-.561552" gradientTransform="matrix(-2.1665545 0 0 -.5395886 244.46766 12.393693)" gradientUnits="userSpaceOnUse" r="21"><stop offset="0" stop-color="#0092f6"/><stop offset="1" stop-color="#004aff"/></radialGradient><linearGradient id="m" gradientUnits="userSpaceOnUse" x1="72.713858" x2="72.713858" xlink:href="#f" y1="5.910714" y2="27.598066"/><radialGradient id="n" cx="34.520515" cy="45" gradientTransform="matrix(1.7295546 -.00000008 .00000004 .7620623 -29.705119 -4.292797)" gradientUnits="userSpaceOnUse" r="27" xlink:href="#f"/><linearGradient id="o" gradientUnits="userSpaceOnUse" x1="30" x2="48" y1="31" y2="31"><stop offset="0" stop-color="#1a1a1a"/><stop offset=".25049603" stop-color="#1a1a1a"/><stop offset=".50099206" stop-color="#cdff01"/><stop offset=".75049603" stop-color="#1a1a1a"/><stop offset="1" stop-color="#1a1a1a"/></linearGradient><linearGradient id="p" gradientUnits="userSpaceOnUse" x1="30" x2="48" y1="31" y2="31"><stop offset="0" stop-color="#1a1a1a"/><stop offset=".25049603" stop-color="#1a1a1a"/><stop offset=".50099206" stop-color="#64ff01"/><stop offset=".75049603" stop-color="#1a1a1a"/><stop offset="1" stop-color="#1a1a1a"/></linearGradient><linearGradient id="q" gradientUnits="userSpaceOnUse" x1="39" x2="39" xlink:href="#r" y1="34" y2="32"/><linearGradient id="r"><stop offset="0" stop-color="#4f4f4f"/><stop offset="1" stop-color="#a2a2a2"/></linearGradient><linearGradient id="s" gradientUnits="userSpaceOnUse" x1="38.473213" x2="38.473213" y1="72" y2="82.013863"><stop offset="0" stop-color="#333"/><stop offset=".43065301" stop-color="#333"/><stop offset=".55547994"/><stop offset="1"/></linearGradient><linearGradient id="t" gradientUnits="userSpaceOnUse" x1="33" x2="34" xlink:href="#u" y1="76.5" y2="76.5"/><linearGradient id="u" gradientTransform="scale(1.0058652 .994169)" gradientUnits="userSpaceOnUse" x1="45.447727" x2="45.447727" y1="92.539597" y2="7.01654"><stop offset="0"/><stop offset="1" stop-opacity="0"/></linearGradient><linearGradient id="v" gradientTransform="translate(-78)" gradientUnits="userSpaceOnUse" x1="33" x2="34" xlink:href="#u" y1="76.5" y2="76.5"/><linearGradient id="w" gradientUnits="userSpaceOnUse" x1="39" x2="39" xlink:href="#r" y1="38" y2="36"/><linearGradient id="x" gradientTransform="matrix(1 0 0 .9107143 0 9.928572)" gradientUnits="userSpaceOnUse" x1="39" x2="39" y1="34" y2="32"><stop offset="0"/><stop offset=".5" stop-color="#656565"/><stop offset="1"/></linearGradient><linearGradient id="y" gradientUnits="userSpaceOnUse" x1="39" x2="39" xlink:href="#r" y1="72" y2="42"/><linearGradient id="z" gradientTransform="matrix(2 0 0 1.3333334 6 -141)" gradientUnits="userSpaceOnUse" x1="33" x2="34" xlink:href="#u" y1="76.5" y2="76.5"/><linearGradient id="A" gradientTransform="matrix(0 1.2346726 -1.2346726 0 98.264285 -.017494)" gradientUnits="userSpaceOnUse" x1="36.925404" x2="42.850594" xlink:href="#g" y1="48" y2="48"/><linearGradient id="B" gradientTransform="matrix(0 .6313575 -.6313575 0 69.305158 23.445955)" gradientUnits="userSpaceOnUse" x1="34.139206" x2="43.64254" y1="48" y2="48"><stop offset="0" stop-color="#fff"/><stop offset="1" stop-color="#7c7c7c"/></linearGradient><linearGradient id="C" gradientUnits="userSpaceOnUse" x1="36.357143" x2="36.357143" xlink:href="#f" y1="6" y2="63.893143"/><linearGradient id="D" gradientUnits="userSpaceOnUse" x1="36.925404" x2="42.850594" xlink:href="#g" y1="48" y2="48"/><g transform="matrix(.48318463 0 0 .48318463 1.01773 1.113361)"><g><g fill="url(#a)"><path d="m12-95.03125c-5.5110903 0-10.03125 4.52016-10.03125 10.03125v71c0 5.5110902 4.5201598 10.03125 10.03125 10.03125h72c5.51109 0 10.03125-4.5201597 10.03125-10.03125v-71c0-5.51109-4.52016-10.03125-10.03125-10.03125z" opacity=".08" transform="scale(1 -1)"/><path d="m12-94.03125c-4.971633 0-9.03125 4.059617-9.03125 9.03125v71c0 4.9716329 4.0596171 9.03125 9.03125 9.03125h72c4.971633 0 9.03125-4.059617 9.03125-9.03125v-71c0-4.971633-4.059617-9.03125-9.03125-9.03125z" opacity=".1" transform="scale(1 -1)"/><path d="m12-93c-4.4091333 0-8 3.590867-8 8v71c0 4.4091333 3.5908667 8 8 8h72c4.409133 0 8-3.5908667 8-8v-71c0-4.409133-3.590867-8-8-8z" opacity=".2" transform="scale(1 -1)"/><rect height="85" opacity=".3" rx="7" transform="scale(1 -1)" width="86" x="5" y="-92"/></g><rect fill="url(#c)" height="84" opacity=".45" rx="6" transform="scale(1 -1)" width="84" x="6" y="-91"/></g><g><rect fill="url(#d)" height="84" rx="6" width="84" x="6" y="6"/><path d="m12 6c-3.324 0-6 2.676-6 6v72c0 3.324 2.676 6 6 6h72c3.324 0 6-2.676 6-6v-72c0-3.324-2.676-6-6-6zm0 1.96875h72c2.269762 0 4.03125 1.7614876 4.03125 4.03125v72c0 2.269762-1.761488 4.03125-4.03125 4.03125h-72c-2.2697624 0-4.03125-1.761488-4.03125-4.03125v-72c0-2.2697624 1.7614876-4.03125 4.03125-4.03125z"/><path d="m12 90c-3.324 0-6-2.676-6-6v-2-68-2c0-.334721.04135-.6507.09375-.96875.0487-.295596.09704-.596915.1875-.875.00988-.03038.020892-.0636.03125-.09375.098865-.287771.2348802-.547452.375-.8125.1445918-.273507.3156161-.535615.5-.78125s.3737765-.473472.59375-.6875c.439947-.428056.94291-.814526 1.5-1.09375.278545-.139612.5734731-.246947.875-.34375-.2562018.100222-.4867109.236272-.71875.375-.00741.0044-.023866-.0045-.03125 0-.031933.0193-.062293.04251-.09375.0625-.120395.0767-.2310226.163513-.34375.25-.1061728.0808-.2132809.161112-.3125.25-.1779299.161433-.3474596.345388-.5.53125-.1075789.130255-.2183939.265285-.3125.40625-.025089.03838-.038446.08587-.0625.125-.064763.103032-.1302275.204517-.1875.3125-.1010083.194706-.2056748.415701-.28125.625-.00796.02181-.023589.04055-.03125.0625-.0318251.09195-.0358045.186831-.0625.28125-.0303323.106618-.0703894.203031-.09375.3125-.0728786.341512-.125.698205-.125 1.0625v2 68 2c0 2.781848 2.2181517 5 5 5h2 68 2c2.781848 0 5-2.218152 5-5v-2-68-2c0-.364295-.05212-.720988-.125-1.0625-.04415-.206893-.08838-.397658-.15625-.59375-.0077-.02195-.0233-.04069-.03125-.0625-.06274-.173739-.138383-.367449-.21875-.53125-.04158-.0828-.07904-.169954-.125-.25-.0546-.09721-.126774-.18835-.1875-.28125-.09411-.140965-.204921-.275995-.3125-.40625-.143174-.17445-.303141-.346998-.46875-.5-.01117-.0102-.01998-.02115-.03125-.03125-.138386-.125556-.285091-.234436-.4375-.34375-.102571-.07315-.204318-.153364-.3125-.21875-.0074-.0045-.02384.0044-.03125 0-.232039-.138728-.462548-.274778-.71875-.375.301527.0968.596455.204138.875.34375.55709.279224 1.060053.665694 1.5 1.09375.219973.214028.409366.441865.59375.6875s.355408.507743.5.78125c.14012.265048.276135.524729.375.8125.01041.03078.02133.06274.03125.09375.09046.278085.1388.579404.1875.875.0524.31805.09375.634029.09375.96875v2 68 2c0 3.324-2.676 6-6 6z" fill="url(#e)" opacity=".2"/></g><g><path d="m42.850595 48a3.959722 3.959722 0 1 1 -7.919444 0 3.959722 3.959722 0 1 1 7.919444 0z" fill="url(#D)" transform="matrix(0 1.767801 -1.767801 0 102.85445 9.248673)"/><path d="m42.850595 48a3.959722 3.959722 0 1 1 -7.919444 0 3.959722 3.959722 0 1 1 7.919444 0z" fill="url(#h)" stroke="#000" stroke-linecap="square" stroke-width=".719949" transform="matrix(0 1.3889865 -1.3889866 0 84.671354 23.981104)"/><path d="m42.850595 48a3.959722 3.959722 0 1 1 -7.919444 0 3.959722 3.959722 0 1 1 7.919444 0z" fill="none" stroke="url(#j)" stroke-linecap="square" stroke-width=".416813" transform="matrix(0 1.1995793 -1.1995793 0 75.579806 31.347314)"/><text fill="#666" font-family="DejaVu Sans" font-size="3" font-stretch="semi-condensed" x="13.787839" y="70"><tspan x="13.787839" y="70">Power</tspan></text><path d="m42.850595 48a3.959722 3.959722 0 1 1 -7.919444 0 3.959722 3.959722 0 1 1 7.919444 0z" fill="url(#D)" transform="matrix(0 1.26271510143 -1.26271510143 0 78.61032607706 10.89190964081)"/><path d="m42.850595 48a3.959722 3.959722 0 1 1 -7.919444 0 3.959722 3.959722 0 1 1 7.919444 0z" fill="url(#k)" stroke="#000" stroke-linecap="square" stroke-width="1.131349" transform="matrix(0 .88390055055 -.88390055055 0 60.42722702108 25.62433785872)"/><path d="m42.850595 48a3.959722 3.959722 0 1 1 -7.919444 0 3.959722 3.959722 0 1 1 7.919444 0z" fill="none" stroke="url(#j)" stroke-linecap="square" stroke-width=".719949" transform="matrix(0 .6944932751 -.6944932751 0 51.33567698172 32.9905494109)"/><text fill="#666" font-family="DejaVu Sans" font-size="3" font-stretch="semi-condensed" x="14.132813" y="54"><tspan x="14.132813" y="54">Reset</tspan></text><text fill="#808080" font-family="Contour Generator" font-size="4.22464" transform="scale(.8972147 1.1145605)" x="10.957088" y="14.355434"><tspan x="10.957088" y="14.355434">FAENZA</tspan></text><text fill="#666" font-family="DejaVu Sans" font-size="2" font-stretch="semi-condensed" font-weight="bold" x="9.848988" y="18.975868"><tspan x="9.848988" y="18.975868">Icon Server</tspan></text></g><g><path d="m30 6h54v24h-54z" fill="#2e2e2e"/><path d="m29 6h1v84h-1z" opacity=".3"/><path d="m84 6h1v84h-1z" opacity=".3"/><path d="m36.5 12.5h41v11h-41z" fill="url(#l)" stroke="#0024b2" stroke-linecap="square"/><g fill="url(#m)" fill-rule="evenodd" transform="translate(40)"><path d="m59.946 5.9107142h24.196428v24.0892858h-15.446428z" opacity=".5"/><path d="m59.9375 5.90625 8.75 24.09375h2l-8.75-24.09375z" opacity=".5"/></g><path d="m30 6h54v24h-54z" fill="url(#n)" opacity=".171"/><path d="m41.166725 14.024744c-.151503.27927.0462.47655.376294.375.226264.08174-.01602.522414.02996.75-.0083.304282-.07639.628078-.0625.96875-.02655.26168-.01046.646459-.440087.5-.271385-.06571-.206637.513823.09634.34375.36359-.02183.813764.04293 1.125-.03125.179262-.390774-.202718-.317916-.471337-.3125-.004-.198881.03243-.578889.06509-.78125.03062-.506668.07797-.954558.125-1.4375.272482.000329.618782.0859.53125-.3125-.148351-.143315-.560372-.02296-.8125-.0625-.1875 0-.375 0-.5625 0zm10.875 0c.0507.359636-.392621.165289-.34375.53125-.0029.288304-.04313.535318-.0625.84375.332925-.07251.134597.386236.5.28125h1c.01325.315324-.08857.620655-.0625.9375-.415918.02158-.91713-.04213-1.28125.03125-.185381.405019.229444.31152.5.3125.271141-.02053.624285.04095.84375-.03125-.02711-.344411.446569-.117086.3125-.5625.04089-.276595.05212-.486858.0625-.75-.332925.07251-.134597-.386236-.5-.28125-.333333 0-.666667 0-1 0-.02119-.316661.08944-.62027.0625-.9375.427209-.02071.936259.04043 1.3125-.03125.124844-.396539-.180237-.363154-.471337-.34375-.290804 0-.581609 0-.872413 0zm2.40625 0c.0507.359636-.392621.165289-.34375.53125-.0029.288304-.04313.535318-.0625.84375.390367.04063.192115.191364-.03125.25-.01489.323903-.06053.673831-.09375 1.03125.332925-.07251.134597.386236.5.28125.363661-.02175.812827.04199 1.125-.03125.179262-.390774-.202718-.317916-.471337-.3125-.259554 0-.519109 0-.778663 0 .03374-.280582.03309-.670683.09375-.9375.417724-.01978.915512.04051 1.28125-.03125.119742-.381021-.201985-.320573-.471337-.3125-.243756-.03892-.679519.07956-.797402-.06255.0483-.308198.06006-.595328.08124-.874945.415693-.02181.916972.04197 1.28125-.03125.190689-.425471-.2068-.352393-.5-.34375-.270833 0-.541667 0-.8125 0zm2.40625 0c.0199.332692-.442734.145333-.34375.5625-.0056.262339-.04448.495631-.0625.78125.432942.06539.12108.153666-.03125.28125.03265.336034-.137809.744292-.03125 1.03125.362253.111822.318796-.182066.34375-.407544.03747-.243565-.05668-.696931.3125-.592456.367324-.08521.449904.11432.46875.377587.03521.203514.125435.352007.125.591163.194393.156163.495921-.06643.34375-.28125-.02573-.169395-.115616-.279162-.09375-.5-.308731-.215415.386601-.09771.1875-.46875.384085.113252.273859-.267808.3125-.5-.02737-.239532.244413-.740075-.1875-.625.11383-.416344-.411162-.193867-.657544-.25-.228735 0-.457471 0-.686206 0zm4.78125 0c.08602.367265-.412467.150033-.3125.53125-.02936.309549-.05888.549154-.0625.84375.376943.03183.173707.187789-.03125.25-.0545.365595-.05203.658264-.09375 1.03125.332925-.07251.134597.386236.5.28125.365694-.01972.811928.0411 1.125-.03125.119742-.381021-.201985-.320573-.471337-.3125-.241364-.03945-.643697.08206-.778663-.06379-.01031-.294319.08934-.57775.0625-.873706.415693-.02181.916972.04197 1.28125-.03125.172286-.37458-.175262-.323871-.440087-.3125-.243001-.03954-.678085.07838-.797402-.06255.03776-.31431.03392-.555352.08124-.874945.416707-.02079.917432.04243 1.28125-.03125.183653-.410261-.180439-.358582-.471337-.34375-.290804 0-.581609 0-.872413 0zm2.40625 0c.05997.336735-.387312.138207-.3125.53125-.0175.255784-.07597.609128-.03125.8125.469616.107562-.07276.112458-.0625.345044-.02417.280497-.0613.61722-.09375.936206.26781.141102.459705-.0246.387511-.343805.109567-.220161-.103108-.720825.268739-.624945.298904-.02685.50236-.02527.46875.25.05916.130375.07557.312967.125.46875-.01137.162389.112602.418767.375.25.07458-.170901-.0091-.448019-.09375-.5625-.0719-.326584-.05474-.394516.21875-.46875-.03029-.331235.436768-.1319.293761-.593805.0082-.230446.137537-.618563-.01251-.749945-.290783.04303-.04461-.422385-.5-.25-.34375 0-.6875 0-1.031251 0zm-25.5625.28125c-.03976.308692-.102666.733548-.09375 1.09375.21926.131295.449864-.02037.375-.3125-.0059-.225326.09286-.547749.03125-.75-.01516-.07517-.237812-.01085-.3125-.03125zm4.84375 0c-.0921.238876-.06974.543586-.09375.8125-.200109.31356.219517.416841.34375.25-.05401-.270922.109411-.765379.09375-.21875.02278.174124.156189.404908.40625.25.07327-.290364-.04805-.376357-.0625-.59375-.157555-.102532-.01954-.398715-.15625-.5-.177083 0-.354167 0-.53125 0zm1.53125 0c-.07285.299608-.07193.71682-.125 1.09375.250391.143428.446293-.03209.40625-.28125-.04932-.263544.111833-.602361.03125-.8125-.104167 0-.208333 0-.3125 0zm.875 0c-.07343.300053-.0702.716978-.125 1.09375.250391.143428.446293-.03209.40625-.28125-.04598-.253727.134946-.661314-.03125-.8125-.08333 0-.166667 0-.25 0zm1.53125 0c-.03976.308692-.102666.733548-.09375 1.09375.21926.131295.449864-.02037.375-.3125-.0059-.225326.09286-.547749.03125-.75-.02879-.07721-.224913-.0097-.3125-.03125zm1.15625 0c-.158508.235434.05644.33201 0 .5625.102561.111768.103181.320759.125.5.148916.178132.53034.048.375-.28125-.125132-.114452-.05313-.426041-.1875-.53125.04777-.287059-.06309-.261156-.3125-.25zm1 0c-.04001.186285-.112945.382206-.21875.53125-.02676.180958-.214435.367599-.09375.59375.365325.105063.347856-.215661.427225-.438351.100455-.181932.151398-.328978.229025-.561649.03896-.20018-.203542-.103088-.34375-.125zm9.5625 0c-.124491.302325-.07255.738546-.125 1.09375.271778.158139.428497-.07654.387511-.375055.002-.259317.09303-.514208.01874-.718695-.09375 0-.1875 0-.28125 0zm1.28125 0c-.07597.19283-.146228.369482-.21875.53125-.05919.152261-.282952.434569-.09375.59375.328611.08799.339151-.225754.40625-.407544.02857-.218151.234163-.339312.21875-.595043.03708-.186644-.178309-.106614-.3125-.122413zm-3.375.09375h1.1875c-.03244.271317-.03993.59844-.09375.90625-.385417 0-.770833 0-1.15625 0-.01478-.304904.08554-.600027.0625-.90625zm7.21875 0h1.1875c-.06399.322565-.03756.577923-.09375.90625-.395833 0-.791667 0-1.1875 0 .07061-.311523.06686-.622142.09375-.90625zm-25.71875 1.1875c-.105206.294724-.05447.636199-.118772.968859.01676.216788.310325.187934.306272.437391.428064-.01985.936358.04053 1.3125-.03125.124844-.396539-.180237-.363154-.471337-.34375-.241914-.03851-.683285.07871-.794441-.06189.04812-.33585.06886-.620097.07828-.938111-.05995-.05428-.204046-.02486-.3125-.03125zm4.8125 0c-.04553.307052-.102411.734786-.09375 1.09375.248716.148683.402535-.05352.375-.28125-.04932-.263544.111833-.602361.03125-.8125-.104167 0-.208333 0-.3125 0zm1.03125 0c-.09469.196077.03645.417571.0625.59375.107662.153186-.02775.549449.251294.53125.289401.03492.546163.02366.467456-.34375.04089-.276595.05212-.486858.0625-.75-.26781-.141102-.459705.0246-.387511.343805-.04606.299932-.10166-.208375-.112489-.281305.02051-.159104-.224166-.07265-.34375-.09375zm1.375 0c-.06354.257969-.04469.673994-.09375.938794-.01362.281517.327689.148628.25.467456.448513-.02024.977708.04021 1.375-.03125-.114627-.395877.453947-.108553.28125-.5625.01945-.249825.150961-.660817 0-.8125-.400105-.126632-.290916.336455-.34375.59375.02475.306861-.03779.526438-.408837.4375-.229447-.06485-.803711.139533-.778969-.123778.01503-.277444.07686-.652233.03156-.876222-.01516-.07517-.237812-.01085-.3125-.03125zm2.9375 0c-.04001.186285-.112945.382206-.21875.53125-.0085.180527-.237443.373592-.125.59375.381526.131526.309986-.190014.4375-.3125.06692-.253852.140039-.388618.231261-.593805.100891-.285086-.114126-.213405-.325011-.218695zm.53125 0c-.158508.235434.05644.33201 0 .5625.102561.111768.103181.320759.125.5.148916.178132.53034.048.375-.28125-.125132-.114452-.05313-.426041-.1875-.53125.04777-.287059-.06309-.261156-.3125-.25zm9.78125 0c-.07285.299608-.07193.71682-.125 1.09375.137767.01072.62742.145705.635488-.09418.05805-.251622.195116-.390201.239512-.655824.202858-.153799.07487-.483111-.25-.34375-.05146.188121-.104864.374303-.1875.53125-.05146-.15838.147506-.667172-.25-.53125h-.03125-.03125zm-17.5625 3.25c.07708.358329-.448006.114494-.3125.53125.0016.259989-.160957.68084 0 .84375.310665-.04854.01946.468249.5.28125h.9375c-.06208.323878-.03783.577839-.09375.90625-.417724.01978-.915512-.04051-1.28125.03125-.124844.396539.180237.363154.471337.34375.291017-.02062.664783.04151.903663-.03125-.114627-.395877.453947-.108553.28125-.5625.02134-.248796.150942-.659738 0-.8125-.496034-.103896.22129-.08649.125-.375.01318-.289814.08068-.667289.03125-.90625-.347672.08726-.105124-.41571-.53125-.25-.34375 0-.6875 0-1.03125 0zm2.40625 0c-.151503.27927.0462.47655.376294.375h.873706c-.06208.323878-.03783.577839-.09375.90625-.417137.02036-.917249-.04225-1.28125.03125-.02855.299861-.405.18215-.3125.5625.06402.245241-.157772.640333 0 .78125.310508-.03967.086.455664.53125.28125.332578-.02159.750092.04176 1.03125-.03125.183653-.410261-.180439-.358582-.471337-.34375-.241364-.03945-.643697.08206-.778663-.06379-.004-.283275.08858-.556992.0625-.842456.427591-.02033.936696.04086 1.3125-.03125-.114627-.395877.453947-.108553.28125-.5625.02134-.248796.150942-.659738 0-.8125-.290783.04303-.04462-.422385-.5-.25-.34375 0-.6875 0-1.03125 0zm5.59375 0c.0199.332692-.442734.145333-.34375.5625.02164.249357-.09789.561234-.03125.78125.469616.107562-.07276.112458-.0625.345044-.02417.280497-.0613.61722-.09375.936206.35417-.08334.114442.427225.5.3125.363661-.02175.812827.04199 1.125-.03125-.06493-.379039.43182-.133162.3125-.5625.01042-.256626.04574-.496291.0625-.78125-.332925.07251-.134597-.386236-.5-.28125-.34375 0-.6875 0-1.03125 0 .07001-.313969.06672-.618897.09375-.90625.415693-.02181.916972.04197 1.28125-.03125.190689-.425471-.2068-.352393-.5-.34375-.270833 0-.541667 0-.8125 0zm2.40625 0c.0199.332692-.442734.145333-.34375.5625.02164.249357-.09789.561234-.03125.78125.490008.124939-.06181.103848-.0625.345044.01935.313992-.13476.701629-.03125.967456.373468-.101341.01733.466678.5.28125.343247-.02134.770812.04165 1.0625-.03125-.06493-.379039.43182-.133162.3125-.5625.04121-.287856.05523-.503371.0625-.78125-.432942-.06539-.12108-.153666.03125-.28125.0179-.308493.06591-.654666.09375-1-.332925.07251-.134597-.386236-.5-.28125-.364583 0-.729167 0-1.09375 0zm5.5625 0c.09446.355739-.406852.115706-.3125.471337-.03632.246068-.0596.582738-.09375.872413.250391.143428.446293-.03209.40625-.28125.06469-.212977-.10297-.719694.190087-.6875h1.028663c.02625.326008-.136427.722877-.03125 1 .356864.117715.363333-.202233.34375-.471337.004-.151964.132293-.558299 0-.653663-.292282.03187-.111491-.409343-.53125-.25-.333333 0-.666667 0-1 0zm2.40625 0c.07708.358329-.448006.114494-.3125.53125-.02919.297969-.05547.532722-.0625.8125.21926.131295.449864-.02037.375-.3125.07552-.203983-.100071-.701443.25-.65625h.96875c-.000241.348238-.06284.647672-.0625.96875.250853.147101.431275-.05169.387511-.343805.0033-.269313.09469-.531978.01874-.749945-.347672.08726-.105124-.41571-.53125-.25-.34375 0-.6875 0-1.03125 0zm3.0625 0c-.151503.27927.0462.47655.376294.375h.873706c-.06208.323878-.03783.577839-.09375.90625-.417137.02036-.917249-.04225-1.28125.03125-.02855.299861-.405.18215-.3125.5625.06402.245241-.157772.640333 0 .78125.310508-.03967.086.455664.53125.28125.332578-.02159.750092.04176 1.03125-.03125.183653-.410261-.180439-.358582-.471337-.34375-.241364-.03945-.643697.08206-.778663-.06379-.004-.283275.08858-.556992.0625-.842456.427591-.02033.936696.04086 1.3125-.03125-.114627-.395877.453947-.108553.28125-.5625.02134-.248796.150942-.659738 0-.8125-.290783.04303-.04461-.422385-.5-.25-.34375 0-.6875 0-1.03125 0zm2.4375 0c.0199.332692-.442734.145333-.34375.5625.02165.249357-.09789.561234-.03125.78125.320195.182211.38439-.114802.368772-.406359.08338-.226622-.09897-.681795.287478-.562391h.9375c-.01712.299588-.06272.634028-.09375.96875.250391.143428.446293-.03209.40625-.28125-.04218-.263764.113631-.601525.03125-.8125-.347672.08726-.105124-.41571-.53125-.25-.34375 0-.6875 0-1.03125 0zm2.40625 0c.09446.355739-.406852.115706-.3125.471337-.03632.246068-.0596.582738-.09375.872413.250391.143428.446293-.03209.40625-.28125.06469-.212977-.10297-.719694.190087-.6875h1.028663c.02625.326008-.136427.722877-.03125 1 .356864.117715.363333-.202233.34375-.471337.004-.151964.132293-.558299 0-.653663-.292282.03187-.111491-.409343-.53125-.25-.333333 0-.666667 0-1 0zm-27.4375.25c-.06769.304435-.07241.715112-.125 1.09375.221971.126192.490891.000793.40625-.3125-.05688-.244034.159539-.641285 0-.78125-.09375 0-.1875 0-.28125 0zm8 0c-.08865.237981-.06607.550155-.09375.8125-.200109.31356.219517.416841.34375.25-.02967-.347934.138607-.76305.03125-1.0625-.09375 0-.1875 0-.28125 0zm7.96875 0c-.06769.304435-.07241.715112-.125 1.09375.221971.126192.490891.000793.40625-.3125-.05688-.244034.159539-.641285 0-.78125-.09375 0-.1875 0-.28125 0zm-14.75.125h1.15625c-.0015.321896-.05333.617317-.0625.90625-.395833 0-.791667 0-1.1875 0 .06513-.320533.03394-.581243.09375-.90625zm10.375 0h1.1875c-.0224.281377-.04597.592151-.09375.90625-.385417 0-.770833 0-1.15625 0-.01632-.305789.08971-.599326.0625-.90625zm-11.71875 1.15625c-.06354.257969-.04469.673994-.09375.938794-.100436.291067.467664.261293.375-.03254.01318-.289814.08068-.667289.03125-.90625-.104167 0-.208333 0-.3125 0zm8 0c-.06089.304218-.09355.710928-.09375 1.09375.21926.131295.449864-.02037.375-.3125-.0076-.225326.09544-.545401.03125-.75-.01516-.07517-.237812-.01085-.3125-.03125zm7.96875 0c-.06354.257969-.04469.673994-.09375.938794-.100436.291067.467664.261293.375-.03254.01318-.289814.08068-.667289.03125-.90625-.104167 0-.208333 0-.3125 0zm.875 0c-.06354.257969-.04469.673994-.09375.938794-.01362.281517.327689.148628.25.467456.448513-.02024.977708.04021 1.375-.03125-.114627-.395877.453947-.108553.28125-.5625.02134-.248796.150942-.659738 0-.8125-.400105-.126632-.290916.336455-.34375.59375.02475.306861-.03779.526438-.408837.4375-.229447-.06485-.803711.139533-.778969-.123778.01428-.27767.07701-.650172.03156-.876222-.02879-.07721-.224913-.0097-.3125-.03125zm2.4375 0c-.08865.237981-.06607.550155-.09375.8125-.219764.430032.340751.178962.21875.5625.385836.0725.90678.0099 1.34375.03125-.08601-.367265.412467-.150033.3125-.53125.0048-.281195.134134-.642955.0625-.875-.395651-.124386-.354093.188436-.375.438794-.04664.220551.0684.690562-.28125.592456-.3125 0-.625 0-.9375 0-.02009-.352018.110901-.720983.03125-1-.02058-.07497-.200806-.01247-.28125-.03125zm5.46875 0c-.03976.308692-.102666.733548-.09375 1.09375.365523-.08667.06284.402344.440087.3125.373359-.02161.831764.04182 1.153663-.03125-.06493-.379039.43182-.133162.3125-.5625.04121-.287856.05523-.503371.0625-.78125-.288128-.15238-.459855.04785-.387511.375055-.109567.220161.103108.720825-.268739.624945-.322917 0-.645833 0-.96875 0 .01789-.308493.06591-.654666.09375-1-.06737-.0578-.226813-.02235-.34375-.03125zm2.40625 0c-.06354.257969-.04469.673994-.09375.938794-.01362.281517.327689.148628.25.467456.448513-.02024.977708.04021 1.375-.03125-.114627-.395877.453947-.108553.28125-.5625.02134-.248796.150942-.659738 0-.8125-.400105-.126632-.290916.336455-.34375.59375.02475.306861-.03779.526438-.408837.4375-.229447-.06485-.803711.139533-.778969-.123778.01428-.27767.07701-.650172.03156-.876222-.02879-.07721-.224913-.0097-.3125-.03125zm-17.96875.125h1.1875c.01629.305759-.08968.599412-.0625.90625-.395833 0-.791667 0-1.1875 0 .01166-.282786.07295-.585249.0625-.90625zm2.4375 0h1.15625c.01629.305759-.08968.599412-.0625.90625-.395833 0-.791667 0-1.1875 0 .02368-.282918.04326-.58892.09375-.90625zm-6.09375 1.0625c-.153119.204443.05936.486018.28125.3125.162099-.273044.03353-.3644-.28125-.3125zm7.96875 0c-.153119.204443.05936.486018.28125.3125.162099-.273044.03353-.3644-.28125-.3125zm8 0c-.153119.204443.05936.486018.28125.3125.112268-.242123.01785-.37398-.28125-.3125z" fill="#c9e2ff"/><path d="m38.512066 27.246492a1.1364216 1.0732871 0 1 1 -2.272843 0 1.1364216 1.0732871 0 1 1 2.272843 0z" fill="#d4ff2a" transform="matrix(.8799551 0 0 .9317171 4.111108 1.613976)"/><path d="m38.512066 27.246492a1.1364216 1.0732871 0 1 1 -2.272843 0 1.1364216 1.0732871 0 1 1 2.272843 0z" fill="#ffa000" transform="matrix(.8799551 0 0 .9317171 8.111108 1.613976)"/><path d="m38.512066 27.246492a1.1364216 1.0732871 0 1 1 -2.272843 0 1.1364216 1.0732871 0 1 1 2.272843 0z" fill="#d4ff2a" transform="matrix(.8799551 0 0 .9317171 12.111108 1.613976)"/><path d="m38.512066 27.246492a1.1364216 1.0732871 0 1 1 -2.272843 0 1.1364216 1.0732871 0 1 1 2.272843 0z" fill="#ff4d2a" transform="matrix(.8799551 0 0 .9317171 16.111108 1.613976)"/></g><g><path d="m30 30h18v2h-18z" fill="url(#o)"/><path d="m30 30h18v2h-18z" fill="url(#p)"/><path d="m30 31.999998h18v1h-18z"/><path d="m33 32h12v2h-12z" fill="url(#q)"/><path d="m30 34h18v50h-18z" fill="#a5a5a5" opacity=".645418"/><path d="m30 33h18v1h-18z" fill="#c4c4c4"/><path d="m30.5 34.5h17v49h-17z" fill="none" stroke="#000" stroke-linecap="square"/><path d="m32 72v10h14v-10h-2v3c0 .554-.446 1-1 1s-1-.446-1-1v-3h-2v3c0 .554-.446 1-1 1s-1-.446-1-1v-3h-2v3c0 .554-.446 1-1 1s-1-.446-1-1v-3z" fill="url(#s)"/><path d="m31 73v8 2h2 12 1.09375.90625v-10h-2v8h-12v-8z" fill="#4f4f4f"/><path d="m31 72h2v1h-2z"/><path d="m45 72h2v1h-2z"/><path d="m33 72h1v9h-1z" fill="url(#t)"/><path d="m-45 72h1v9h-1z" fill="url(#v)" transform="scale(-1 1)"/><path d="m30.535715 34.8125h16.875v7.1875h-16.875z"/><path d="m33 36h12v2h-12z" fill="url(#w)" opacity=".6"/><path d="m33 39.07143h12v1.821429h-12z" fill="url(#x)"/><path d="m31 36h1v5h-1z" fill="#545454"/><path d="m46 36h1v5h-1z" fill="#545454"/><path d="m31 42v30h16v-30z" fill="url(#y)"/><path d="m72-45h2v12h-2z" fill="url(#z)" transform="rotate(90)"/><path d="m39 52.888961a4.8889603 4.8889603 0 1 1 0-9.77792 4.8889603 4.8889603 0 1 1 0 9.77792z" fill="url(#A)"/><path d="m42.499999 48a3.5000003 3.5000003 0 1 1 -7 0 3.5000003 3.5000003 0 1 1 7 0z" fill="#c6c6c6" stroke="#000" stroke-linecap="square"/><path d="m38.999998 50.5a2.5000005 2.5000005 0 1 1 0-5.000001 2.5000005 2.5000005 0 1 1 0 5.000001z" fill="none" stroke="url(#B)" stroke-linecap="square"/><path d="m39 46.5c-.832271 0-1.531249.698979-1.53125 1.53125 0 .69356.512811 1.263667 1.15625 1.4375v.5h.6875v-.46875c.685364-.139186 1.187499-.740513 1.1875-1.46875 0-.832271-.667729-1.531249-1.5-1.53125zm0 .5c.56174.000001 1 .46951 1 1.03125-.000001.56174-.43826 1-1 1-.56174-.000001-1.03125-.43826-1.03125-1 .000001-.56174.46951-1.03125 1.03125-1.03125z" opacity=".426295"/><path d="m34.829748 54.062614v13.77579c0 .57328.461521 1.034802 1.034801 1.034802s1.034801-.461522 1.034801-1.034802v-12.935014c-.741039-.175316-1.412671-.493399-2.069602-.840776zm8.278409 0c-.656931.347377-1.328562.665458-2.069602.840776v12.935014c0 .57328.461521 1.034802 1.034801 1.034802s1.034801-.461522 1.034801-1.034802z" fill="#34363a" opacity=".7"/></g></g><g transform="matrix(.48318463 0 0 .48318463 9.71505334 1.113361)"><path d="m30 30h18v2h-18z" fill="url(#o)"/><path d="m30 30h18v2h-18z" fill="url(#p)"/><path d="m30 31.999998h18v1h-18z"/><path d="m33 32h12v2h-12z" fill="url(#q)"/><path d="m30 34h18v50h-18z" fill="#a5a5a5" opacity=".645418"/><path d="m30 33h18v1h-18z" fill="#c4c4c4"/><path d="m30.5 34.5h17v49h-17z" fill="none" stroke="#000" stroke-linecap="square"/><path d="m32 72v10h14v-10h-2v3c0 .554-.446 1-1 1s-1-.446-1-1v-3h-2v3c0 .554-.446 1-1 1s-1-.446-1-1v-3h-2v3c0 .554-.446 1-1 1s-1-.446-1-1v-3z" fill="url(#s)"/><path d="m31 73v8 2h2 12 1.09375.90625v-10h-2v8h-12v-8z" fill="#4f4f4f"/><path d="m31 72h2v1h-2z"/><path d="m45 72h2v1h-2z"/><path d="m33 72h1v9h-1z" fill="url(#t)"/><path d="m-45 72h1v9h-1z" fill="url(#v)" transform="scale(-1 1)"/><path d="m30.535715 34.8125h16.875v7.1875h-16.875z"/><path d="m33 36h12v2h-12z" fill="url(#w)" opacity=".6"/><path d="m33 39.07143h12v1.821429h-12z" fill="url(#x)"/><path d="m31 36h1v5h-1z" fill="#545454"/><path d="m46 36h1v5h-1z" fill="#545454"/><path d="m31 42v30h16v-30z" fill="url(#y)"/><path d="m72-45h2v12h-2z" fill="url(#z)" transform="rotate(90)"/><path d="m39 52.888961a4.8889603 4.8889603 0 1 1 0-9.77792 4.8889603 4.8889603 0 1 1 0 9.77792z" fill="url(#A)"/><path d="m42.499999 48a3.5000003 3.5000003 0 1 1 -7 0 3.5000003 3.5000003 0 1 1 7 0z" fill="#c6c6c6" stroke="#000" stroke-linecap="square"/><path d="m38.999998 50.5a2.5000005 2.5000005 0 1 1 0-5.000001 2.5000005 2.5000005 0 1 1 0 5.000001z" fill="none" stroke="url(#B)" stroke-linecap="square"/><path d="m39 46.5c-.832271 0-1.531249.698979-1.53125 1.53125 0 .69356.512811 1.263667 1.15625 1.4375v.5h.6875v-.46875c.685364-.139186 1.187499-.740513 1.1875-1.46875 0-.832271-.667729-1.531249-1.5-1.53125zm0 .5c.56174.000001 1 .46951 1 1.03125-.000001.56174-.43826 1-1 1-.56174-.000001-1.03125-.43826-1.03125-1 .000001-.56174.46951-1.03125 1.03125-1.03125z" opacity=".426295"/><path d="m34.829748 54.062614v13.77579c0 .57328.461521 1.034802 1.034801 1.034802s1.034801-.461522 1.034801-1.034802v-12.935014c-.741039-.175316-1.412671-.493399-2.069602-.840776zm8.278409 0c-.656931.347377-1.328562.665458-2.069602.840776v12.935014c0 .57328.461521 1.034802 1.034801 1.034802s1.034801-.461522 1.034801-1.034802z" fill="#34363a" opacity=".7"/></g><g transform="matrix(.48318463 0 0 .48318463 18.41237668 1.113361)"><path d="m30 30h18v2h-18z" fill="url(#o)"/><path d="m30 30h18v2h-18z" fill="url(#p)"/><path d="m30 31.999998h18v1h-18z"/><path d="m33 32h12v2h-12z" fill="url(#q)"/><path d="m30 34h18v50h-18z" fill="#a5a5a5" opacity=".645418"/><path d="m30 33h18v1h-18z" fill="#c4c4c4"/><path d="m30.5 34.5h17v49h-17z" fill="none" stroke="#000" stroke-linecap="square"/><path d="m32 72v10h14v-10h-2v3c0 .554-.446 1-1 1s-1-.446-1-1v-3h-2v3c0 .554-.446 1-1 1s-1-.446-1-1v-3h-2v3c0 .554-.446 1-1 1s-1-.446-1-1v-3z" fill="url(#s)"/><path d="m31 73v8 2h2 12 1.09375.90625v-10h-2v8h-12v-8z" fill="#4f4f4f"/><path d="m31 72h2v1h-2z"/><path d="m45 72h2v1h-2z"/><path d="m33 72h1v9h-1z" fill="url(#t)"/><path d="m-45 72h1v9h-1z" fill="url(#v)" transform="scale(-1 1)"/><path d="m30.535715 34.8125h16.875v7.1875h-16.875z"/><path d="m33 36h12v2h-12z" fill="url(#w)" opacity=".6"/><path d="m33 39.07143h12v1.821429h-12z" fill="url(#x)"/><path d="m31 36h1v5h-1z" fill="#545454"/><path d="m46 36h1v5h-1z" fill="#545454"/><path d="m31 42v30h16v-30z" fill="url(#y)"/><path d="m72-45h2v12h-2z" fill="url(#z)" transform="rotate(90)"/><path d="m39 52.888961a4.8889603 4.8889603 0 1 1 0-9.77792 4.8889603 4.8889603 0 1 1 0 9.77792z" fill="url(#A)"/><path d="m42.499999 48a3.5000003 3.5000003 0 1 1 -7 0 3.5000003 3.5000003 0 1 1 7 0z" fill="#c6c6c6" stroke="#000" stroke-linecap="square"/><path d="m38.999998 50.5a2.5000005 2.5000005 0 1 1 0-5.000001 2.5000005 2.5000005 0 1 1 0 5.000001z" fill="none" stroke="url(#B)" stroke-linecap="square"/><path d="m39 46.5c-.832271 0-1.531249.698979-1.53125 1.53125 0 .69356.512811 1.263667 1.15625 1.4375v.5h.6875v-.46875c.685364-.139186 1.187499-.740513 1.1875-1.46875 0-.832271-.667729-1.531249-1.5-1.53125zm0 .5c.56174.000001 1 .46951 1 1.03125-.000001.56174-.43826 1-1 1-.56174-.000001-1.03125-.43826-1.03125-1 .000001-.56174.46951-1.03125 1.03125-1.03125z" opacity=".426295"/><path d="m34.829748 54.062614v13.77579c0 .57328.461521 1.034802 1.034801 1.034802s1.034801-.461522 1.034801-1.034802v-12.935014c-.741039-.175316-1.412671-.493399-2.069602-.840776zm8.278409 0c-.656931.347377-1.328562.665458-2.069602.840776v12.935014c0 .57328.461521 1.034802 1.034801 1.034802s1.034801-.461522 1.034801-1.034802z" fill="#34363a" opacity=".7"/></g><path d="m12 6c-3.324 0-6 2.676-6 6v2 68 2c0 .334721.04135.6507.09375.96875.0487.295596.09704.596915.1875.875.00988.03038.020892.0636.03125.09375.098865.287771.2348802.547452.375.8125.1445918.273507.3156161.535615.5.78125s.3737765.473472.59375.6875c.439947.428056.94291.814526 1.5 1.09375.278545.139612.5734731.246947.875.34375-.2562018-.100222-.4867109-.236272-.71875-.375-.00741-.0044-.023866.0045-.03125 0-.031933-.0193-.062293-.04251-.09375-.0625-.120395-.0767-.2310226-.163513-.34375-.25-.1061728-.0808-.2132809-.161112-.3125-.25-.1779299-.161433-.3474596-.345388-.5-.53125-.1075789-.130255-.2183939-.265285-.3125-.40625-.025089-.03838-.038446-.08587-.0625-.125-.064763-.103032-.1302275-.204517-.1875-.3125-.1010083-.194706-.2056748-.415701-.28125-.625-.00796-.02181-.023589-.04055-.03125-.0625-.0318251-.09195-.0358045-.186831-.0625-.28125-.0303323-.106618-.0703894-.203031-.09375-.3125-.0728786-.341512-.125-.698205-.125-1.0625v-2-68-2c0-2.781848 2.2181517-5 5-5h2 68 2c2.781848 0 5 2.218152 5 5v2 68 2c0 .364295-.05212.720988-.125 1.0625-.04415.206893-.08838.397658-.15625.59375-.0077.02195-.0233.04069-.03125.0625-.06274.173739-.138383.367449-.21875.53125-.04158.0828-.07904.169954-.125.25-.0546.09721-.126774.18835-.1875.28125-.09411.140965-.204921.275995-.3125.40625-.143174.17445-.303141.346998-.46875.5-.01117.0102-.01998.02115-.03125.03125-.138386.125556-.285091.234436-.4375.34375-.102571.07315-.204318.153364-.3125.21875-.0074.0045-.02384-.0044-.03125 0-.232039.138728-.462548.274778-.71875.375.301527-.0968.596455-.204138.875-.34375.55709-.279224 1.060053-.665694 1.5-1.09375.219973-.214028.409366-.441865.59375-.6875s.355408-.507743.5-.78125c.14012-.265048.276135-.524729.375-.8125.01041-.03078.02133-.06274.03125-.09375.09046-.278085.1388-.579404.1875-.875.0524-.31805.09375-.634029.09375-.96875v-2-68-2c0-3.324-2.676-6-6-6z" fill="url(#C)" opacity=".4" transform="matrix(.48318463 0 0 .48318463 1.01773 1.113361)"/></svg>