<svg height="48" width="48" xmlns="http://www.w3.org/2000/svg" xmlns:xlink="http://www.w3.org/1999/xlink"><linearGradient id="a"><stop offset="0" stop-color="#fff"/><stop offset="1" stop-color="#fff" stop-opacity="0"/></linearGradient><linearGradient id="b" gradientTransform="matrix(1.0238095 0 0 1.0119048 -1.142857 -98.071429)" gradientUnits="userSpaceOnUse" x1="32.251034" x2="32.251034" xlink:href="#c" y1="6.131708" y2="90.238609"/><linearGradient id="c" gradientTransform="matrix(1.0058652 0 0 .994169 100 0)" gradientUnits="userSpaceOnUse" x1="45.447727" x2="45.447727" y1="92.539597" y2="7.01654"><stop offset="0"/><stop offset="1" stop-opacity=".588235"/></linearGradient><linearGradient id="d" gradientTransform="translate(0 -97)" gradientUnits="userSpaceOnUse" x1="32.251034" x2="32.251034" xlink:href="#c" y1="6.131708" y2="90.238609"/><linearGradient id="e" gradientUnits="userSpaceOnUse" x1="48" x2="48" xlink:href="#a" y1="20.220806" y2="138.66119"/><clipPath id="f"><rect height="84" rx="6" width="84" x="6" y="6"/></clipPath><filter id="g" color-interpolation-filters="sRGB" height="1.384" width="1.384" x="-.192" y="-.192"><feGaussianBlur stdDeviation="5.28"/></filter><linearGradient id="h" gradientUnits="userSpaceOnUse" x1="48" x2="48" y1="90" y2="5.987717"><stop offset="0" stop-color="#dd481f" stop-opacity=".941176"/><stop offset="1" stop-color="#ec6829" stop-opacity=".941176"/></linearGradient><linearGradient id="i" gradientUnits="userSpaceOnUse" x1="36.357143" x2="36.357143" xlink:href="#a" y1="6" y2="63.893143"/><radialGradient id="j" cx="48" cy="90.171875" gradientTransform="matrix(1.1573129 0 0 .99590774 -7.551021 .197132)" gradientUnits="userSpaceOnUse" r="42" xlink:href="#a"/><g fill="url(#b)"><path d="m12-95.03125c-5.5110903 0-10.03125 4.52016-10.03125 10.03125v71c0 5.5110902 4.5201598 10.03125 10.03125 10.03125h72c5.51109 0 10.03125-4.5201597 10.03125-10.03125v-71c0-5.51109-4.52016-10.03125-10.03125-10.03125z" opacity=".08" transform="matrix(.49966056 0 0 -.50514756 .01629319382 -.00480383623)"/><path d="m12-94.03125c-4.971633 0-9.03125 4.059617-9.03125 9.03125v71c0 4.9716329 4.0596171 9.03125 9.03125 9.03125h72c4.971633 0 9.03125-4.059617 9.03125-9.03125v-71c0-4.971633-4.059617-9.03125-9.03125-9.03125z" opacity=".1" transform="matrix(.49966056 0 0 -.50514756 .01629319382 -.00480383623)"/><path d="m12-93c-4.4091333 0-8 3.590867-8 8v71c0 4.4091333 3.5908667 8 8 8h72c4.409133 0 8-3.5908667 8-8v-71c0-4.409133-3.590867-8-8-8z" opacity=".2" transform="matrix(.49966056 0 0 -.50514756 .01629319382 -.00480383623)"/><rect height="85" opacity=".3" rx="7" transform="matrix(.49966056 0 0 -.50514756 .01629319382 -.00480383623)" width="86" x="5" y="-92"/></g><rect fill="url(#d)" height="84" opacity=".45" rx="6" transform="matrix(.49966056 0 0 -.50514756 .01629319382 -.00480383623)" width="84" x="6" y="-91"/><g transform="matrix(.49966056 0 0 .50514756 .01629319382 -.00480383623)"><rect fill="url(#h)" height="84" rx="6" width="84" x="6" y="6"/><path d="m12 6c-3.324 0-6 2.676-6 6v2 68 2c0 .334721.04135.6507.09375.96875.0487.295596.09704.596915.1875.875.00988.03038.020892.0636.03125.09375.098865.287771.2348802.547452.375.8125.1445918.273507.3156161.535615.5.78125s.3737765.473472.59375.6875c.439947.428056.94291.814526 1.5 1.09375.278545.139612.5734731.246947.875.34375-.2562018-.100222-.4867109-.236272-.71875-.375-.00741-.0044-.023866.0045-.03125 0-.031933-.0193-.062293-.04251-.09375-.0625-.120395-.0767-.2310226-.163513-.34375-.25-.1061728-.0808-.2132809-.161112-.3125-.25-.1779299-.161433-.3474596-.345388-.5-.53125-.1075789-.130255-.2183939-.265285-.3125-.40625-.025089-.03838-.038446-.08587-.0625-.125-.064763-.103032-.1302275-.204517-.1875-.3125-.1010083-.194706-.2056748-.415701-.28125-.625-.00796-.02181-.023589-.04055-.03125-.0625-.0318251-.09195-.0358045-.186831-.0625-.28125-.0303323-.106618-.0703894-.203031-.09375-.3125-.0728786-.341512-.125-.698205-.125-1.0625v-2-68-2c0-2.781848 2.2181517-5 5-5h2 68 2c2.781848 0 5 2.218152 5 5v2 68 2c0 .364295-.05212.720988-.125 1.0625-.04415.206893-.08838.397658-.15625.59375-.0077.02195-.0233.04069-.03125.0625-.06274.173739-.138383.367449-.21875.53125-.04158.0828-.07904.169954-.125.25-.0546.09721-.126774.18835-.1875.28125-.09411.140965-.204921.275995-.3125.40625-.143174.17445-.303141.346998-.46875.5-.01117.0102-.01998.02115-.03125.03125-.138386.125556-.285091.234436-.4375.34375-.102571.07315-.204318.153364-.3125.21875-.0074.0045-.02384-.0044-.03125 0-.232039.138728-.462548.274778-.71875.375.301527-.0968.596455-.204138.875-.34375.55709-.279224 1.060053-.665694 1.5-1.09375.219973-.214028.409366-.441865.59375-.6875s.355408-.507743.5-.78125c.14012-.265048.276135-.524729.375-.8125.01041-.03078.02133-.06274.03125-.09375.09046-.278085.1388-.579404.1875-.875.0524-.31805.09375-.634029.09375-.96875v-2-68-2c0-3.324-2.676-6-6-6z" fill="url(#i)" opacity=".35"/><path d="m12 90c-3.324 0-6-2.676-6-6v-2-68-2c0-.334721.04135-.6507.09375-.96875.0487-.295596.09704-.596915.1875-.875.00988-.03038.020892-.0636.03125-.09375.098865-.287771.2348802-.547452.375-.8125.1445918-.273507.3156161-.535615.5-.78125s.3737765-.473472.59375-.6875c.439947-.428056.94291-.814526 1.5-1.09375.278545-.139612.5734731-.246947.875-.34375-.2562018.100222-.4867109.236272-.71875.375-.00741.0044-.023866-.0045-.03125 0-.031933.0193-.062293.04251-.09375.0625-.120395.0767-.2310226.163513-.34375.25-.1061728.0808-.2132809.161112-.3125.25-.1779299.161433-.3474596.345388-.5.53125-.1075789.130255-.2183939.265285-.3125.40625-.025089.03838-.038446.08587-.0625.125-.064763.103032-.1302275.204517-.1875.3125-.1010083.194706-.2056748.415701-.28125.625-.00796.02181-.023589.04055-.03125.0625-.0318251.09195-.0358045.186831-.0625.28125-.0303323.106618-.0703894.203031-.09375.3125-.0728786.341512-.125.698205-.125 1.0625v2 68 2c0 2.781848 2.2181517 5 5 5h2 68 2c2.781848 0 5-2.218152 5-5v-2-68-2c0-.364295-.05212-.720988-.125-1.0625-.04415-.206893-.08838-.397658-.15625-.59375-.0077-.02195-.0233-.04069-.03125-.0625-.06274-.173739-.138383-.367449-.21875-.53125-.04158-.0828-.07904-.169954-.125-.25-.0546-.09721-.126774-.18835-.1875-.28125-.09411-.140965-.204921-.275995-.3125-.40625-.143174-.17445-.303141-.346998-.46875-.5-.01117-.0102-.01998-.02115-.03125-.03125-.138386-.125556-.285091-.234436-.4375-.34375-.102571-.07315-.204318-.153364-.3125-.21875-.0074-.0045-.02384.0044-.03125 0-.232039-.138728-.462548-.274778-.71875-.375.301527.0968.596455.204138.875.34375.55709.279224 1.060053.665694 1.5 1.09375.219973.214028.409366.441865.59375.6875s.355408.507743.5.78125c.14012.265048.276135.524729.375.8125.01041.03078.02133.06274.03125.09375.09046.278085.1388.579404.1875.875.0524.31805.09375.634029.09375.96875v2 68 2c0 3.324-2.676 6-6 6z" fill="url(#j)" opacity=".2"/><path d="m61.1875 15.46875c-3.649987 0-6.615932 2.280027-8.0625 5.375-.05383-.0134-.03458-.02095-.09375-.03125-1.558572-.271318-3.162429-.5-4.8125-.5-4.285641.000558-8.544484 1.051862-12.40625 2.96875-.929624.463121-1.584537 1.288389-1.84375 2.21875-.0094.03327.0083.06062 0 .09375-.03048-.0062-.06341-.02589-.09375-.03125-.245561-.04332-.276778-.0052-.34375 0-.06697.0052-.142371-.005-.1875 0-.09026.0099-.146729-.0024-.09375 0-.02882-.0047.0023.0046-.03125 0-.221856-.03059-.399485-.03447-.25-.03125-.260039-.0056-.450353.05931-.46875.0625-.06756.000794-.07258-.02774-.1875 0-.430676.103975-.817205.335365-1.1875.625-4.391217 3.39722-7.670243 8.097687-9.40625 13.34375-.782185-.218431-1.554306-.5-2.40625-.5-5.119532 0-9.34375 4.209883-9.34375 9.34375s4.224218 9.34375 9.34375 9.34375c.885964 0 1.69007-.295858 2.5-.53125 1.743805 5.11269 4.949911 9.694805 9.21875 13.03125.528815.414763 1.447447.917592 2.6875.71875a1.0816859 1.0816859 0 0 0 .03125 0c-.361554.06253-.362043.07391.03125 0 .027-.0051.03603-.02564.0625-.03125a1.0816859 1.0816859 0 0 0 .03125.03125 1.0816859 1.0816859 0 0 0 0 .03125c.175485.638493.678634 1.616571 1.78125 2.1875v.03125c.0081.0041.02305-.0041.03125 0 3.898735 1.955404 8.220408 3 12.53125 3 1.543678 0 3.067355-.21644 4.5625-.46875 1.128131 3.83518 4.453661 6.78125 8.65625 6.78125 5.114929 0 9.3125-4.202975 9.3125-9.3125 0-2.248359-.975756-4.184807-2.3125-5.78125 4.244983-4.475211 6.949399-10.265795 7.5625-16.40625.113486-1.127541-.337978-2.062314-.875-2.65625-.02053-.0227-.04158-.04055-.0625-.0625.01706-.01803.04569-.01265.0625-.03125.645383-.714125.969354-1.674096.875-2.6875-.570043-5.88297-3.061161-11.506199-7-15.90625-.106601-.119714-.171036-.07206-.28125-.15625.9357-1.405768 1.65625-3.003508 1.65625-4.84375 0-5.04701-4.137524-9.21875-9.1875-9.21875zm-12.96875 21.21875c5.608697 0 10.556214 4.230074 11.4375 9.78125.117419.741804.532181 1.372774 1.03125 1.875-.516111.503101-.940604 1.090012-1.0625 1.84375-.891735 5.500044-5.798058 9.6875-11.40625 9.6875-1.569718 0-3.078323-.298919-4.5625-.9375-.675182-.288699-1.462568-.316943-2.1875-.15625-.148685-.651111-.374622-1.315278-.9375-1.8125-2.509722-2.21806-3.9375-5.396842-3.9375-8.6875 0-3.327563 1.440766-6.53813 3.96875-8.75.554364-.486663.810912-1.139772.96875-1.8125.549945.134262 1.118308.09093 1.6875-.0625v.0625c-.000801-.000012.09455-.000012.09375 0a1.0816859 1.0816859 0 0 0 .34375-.09375 1.0816859 1.0816859 0 0 0 .0625 0c1.482216-.629404 2.967161-.9375 4.5-.9375z" opacity=".07"/><path d="m61.1875 16.5625c-3.619334 0-6.570763 2.456388-7.59375 5.75-.254738-.151158-.451719-.385557-.75-.4375-1.529051-.266179-3.068788-.46875-4.625-.46875-4.110597.000535-8.221001.998969-11.9375 2.84375-.651396.324513-1.105757.901374-1.28125 1.53125-.196116.69465.000056 1.423215.3125 1.9375-.403569-.640958-1.077925-.997134-1.625-1.09375-.07396-.01305-.332439.0389-.5.03125-.02025-.0049-.04651.003-.0625 0-.01799-.0033-.04791-.02924-.0625-.03125-.05511-.0076-.08953.000764-.125 0-.09492-.002-.1736.01801-.25.03125-.03781.0066-.08509-.0096-.125 0-.241109.05821-.506395.191265-.78125.40625-4.390504 3.396668-7.676907 8.151917-9.28125 13.4375-.03056.100674.01702.20874 0 .3125-.983267-.419665-2.054897-.65625-3.1875-.65625-4.529476 0-8.25 3.706591-8.25 8.25s3.720524 8.25 8.25 8.25c1.132603 0 2.204233-.236585 3.1875-.65625.0056.02031-.0061.04234 0 .0625 1.592398 5.243944 4.853936 9.956717 9.1875 13.34375.32778.257086 1.046125.63291 1.875.5.01031-.0018.02103.0019.03125 0 .873712-.164166 1.417648-.84839 1.59375-1.125-.458372.726213-.421495 1.394214-.28125 1.90625a1.0043202 1.0043202 0 0 0 0 .03125c.124682.45365.44604 1.12909 1.25 1.53125 3.754417 1.887992 7.913444 2.875 12.0625 2.875 1.584224 0 3.181149-.189137 4.75-.46875.19091-.03361.299925-.180232.46875-.25.607397 3.944006 3.897051 7.03125 8 7.03125 4.525702 0 8.21875-3.698299 8.21875-8.21875 0-2.381309-1.054872-4.494331-2.6875-6 .137812-.09168.317933-.09629.4375-.21875 4.234978-4.338072 6.929864-10.039375 7.53125-16.0625.08322-.826796-.210655-1.385493-.625-1.84375-.482804-.533973-1.176805-.775907-1.78125-.78125.592966-.01035 1.298097-.215348 1.78125-.75.446906-.494507.690445-1.17209.625-1.875-.546935-5.644486-2.964159-11.052112-6.75-15.28125-.256919-.288523-.609531-.371725-.9375-.5 1.223944-1.418897 2.03125-3.206836 2.03125-5.21875 0-4.458882-3.636897-8.125-8.09375-8.125zm-12.96875 19.03125c6.152158 0 11.534469 4.636919 12.5 10.71875.185554 1.17225 1.18899 2.016561 2.375 2.03125-1.176797.02369-2.223331.900184-2.40625 2.03125-.97765 6.029952-6.32494 10.59375-12.46875 10.59375-1.71113 0-3.383152-.335586-5-1.03125-1.010335-.432006-2.311041-.167601-3 .90625.566443-.917703.537159-2.229134-.40625-3.0625-2.740365-2.4219-4.3125-5.894901-4.3125-9.5 0-3.640476 1.57985-7.144214 4.34375-9.5625.880934-.773351 1.0419-2.069991.4375-3.0625.629238 1.003407 1.863983 1.435078 2.96875.96875a1.0043202 1.0043202 0 0 0 .03125 0c1.605132-.681599 3.25483-1.03125 4.9375-1.03125z" opacity=".1"/><path d="m61.1875 17.5625c-3.90651 0-7.0625 3.217042-7.0625 7.125 0 3.90796 3.16172 7.09375 7.0625 7.09375 3.900779 0 7.09375-3.180082 7.09375-7.09375 0-3.913666-3.187241-7.125-7.09375-7.125zm-12.96875 4.84375c-3.945874.000514-7.917839.971901-11.5 2.75-.391649.195112-.646242.533844-.75.90625-.12205.432306-.03007.807745.1875 1.15625l4.96875 7.90625c.361421.576336 1.123266.827048 1.75.5625 1.72738-.73351 3.528239-1.09375 5.34375-1.09375 6.654117 0 12.456428 4.989092 13.5 11.5625.104545.660471.722509 1.1875 1.40625 1.1875h9.375c.38501 0 .751174-.12424 1.0625-.46875.265977-.294307.412169-.694536.375-1.09375-.525402-5.422261-2.857152-10.649349-6.5-14.71875-.487758-.547757-1.267816-.572291-1.8125-.21875-1.27407.826485-2.6888 1.25-4.125 1.25-4.206994 0-7.621337-3.402324-7.65625-7.59375.000007-.000122-.000166-.02626 0-.03125.000332-.01-.000059-.02765 0-.03125.000055-.0083-.000013-.02188 0-.03125.000025-.01875.000031-.03929 0-.0625-.000063-.04641 0-.109185 0-.09375 0-.694723-.539053-1.262079-1.1875-1.375-1.508138-.262538-2.975732-.46875-4.4375-.46875zm-15.28125 5.21875c.04299-.01059-.196157-.04335-.53125.21875-4.222962 3.267051-7.395515 7.857357-8.9375 12.9375-.164567.542152-.01248 1.149208.46875 1.53125 1.818728 1.446975 2.90625 3.695338 2.90625 5.96875 0 2.273532-1.08713 4.521813-2.90625 5.96875-.479985.381747-.633486.987163-.46875 1.53125 1.530058 5.038653 4.674233 9.584933 8.84375 12.84375.219667.17229.57226.373016 1.09375.28125.549548-.09502.794166-.43111.9375-.65625l5.03125-7.90625c.339607-.534557.332392-1.325645-.21875-1.8125-2.953705-2.610448-4.65625-6.352455-4.65625-10.25 0-3.930923 1.70539-7.70329 4.6875-10.3125.515143-.452232.620179-1.222452.25-1.8125l-4.96875-7.90625c-.251054-.39873-.589406-.558006-.96875-.625-.117065-.02065-.341093-.05455-.5625 0zm-13.625 13.53125c-3.982448 0-7.25 3.254033-7.25 7.25s3.267552 7.25 7.25 7.25 7.21875-3.25961 7.21875-7.25-3.236302-7.25-7.21875-7.25zm43.8125 8.15625c-.769569.0016-1.319832.49116-1.4375 1.21875-1.057294 6.521183-6.829216 11.4375-13.46875 11.4375-1.835701 0-3.658053-.341572-5.40625-1.09375-.562548-.240538-1.365233-.09972-1.75.5l-5.03125 7.9375c-.247752.392521-.225944.870547-.15625 1.125.06798.247356.272781.683166.71875.90625 3.614473 1.817618 7.637743 2.78125 11.625 2.78125 1.497072 0 3.025908-.194886 4.5625-.46875.58298-.102634 1.090302-.658937 1.15625-1.21875.446276-3.871628 3.687239-6.75 7.5625-6.75 1.185283 0 2.416068.291028 3.53125.875.546899.286786 1.238374.177988 1.65625-.25 4.075708-4.174925 6.671893-9.678778 7.25-15.46875.03943-.391809-.173898-.840085-.375-1.0625-.309552-.342359-.675067-.470147-1.0625-.46875zm-1.6875 16.6875c-3.980075 0-7.25 3.238162-7.25 7.21875 0 3.980589 3.269925 7.21875 7.25 7.21875s7.21875-3.243767 7.21875-7.21875c0-3.974982-3.238675-7.21875-7.21875-7.21875z" opacity=".15"/><path d="m61.195972 18.5c-3.39725 0-6.148105 2.765875-6.148105 6.175575 0 3.409702 2.750855 6.175576 6.148105 6.175576 3.397249 0 6.148104-2.765874 6.148104-6.175576 0-3.4097-2.750855-6.175575-6.148104-6.175575zm-12.984108 4.836815c-3.791558.000494-7.635678.961696-11.092383 2.677522-.122927.06124-.199587.169934-.236466.3023-.03737.132366-.02978.272112.04299.388673l4.987273 7.924602c.126369.201513.383102.286697.601912.194336 1.845871-.783826 3.761308-1.166017 5.69667-1.166017 7.118944 0 13.329718 5.298822 14.445894 12.329556.03737.236088.235436.410267.472931.410267h9.372634c.136694 0 .273497-.0494.365447-.151151.09195-.101744.141765-.229774.128981-.36708-.505476-5.216622-2.725758-10.267413-6.234091-14.186548-.15833-.177806-.423285-.194676-.62341-.06478-1.414643.917674-3.019703 1.403539-4.643322 1.403539-4.736621 0-8.576759-3.865338-8.577251-8.593982.000492-.0024 0-.16484 0-.172743 0-.235593-.175862-.456137-.408439-.496638-1.481024-.257818-2.918659-.431858-4.299374-.431858zm-15.047807 5.1823c-.0649.01599-.14012.04464-.193471.08637-4.065439 3.145185-7.114281 7.56847-8.598747 12.459115-.05802.191142-.0063.393766.150478.51823 2.043045 1.625441 3.267524 4.127476 3.267524 6.693805s-1.223986 5.068365-3.267524 6.693805c-.155871.123969-.2085.326596-.150478.51823 1.472665 4.849651 4.497475 9.256065 8.512759 12.394336.107685.08446.230719.131672.365447.107964.134237-.02321.249188-.122441.322453-.237521l5.030267-7.903009c.128336-.202007.09349-.467651-.08599-.626196-3.151355-2.785128-4.965777-6.77856-4.965777-10.94761 0-4.200166 1.824471-8.204679 5.00877-10.990795.179474-.157556.234837-.423201.107484-.626196l-4.987273-7.9246c-.07277-.115575-.188216-.192223-.322453-.21593-.06712-.01184-.128566-.01599-.193472 0zm-13.865478 13.560355c-3.476817 0-6.298582 2.836828-6.298582 6.326725s2.821765 6.305132 6.298582 6.305132 6.298582-2.815235 6.298582-6.305132-2.821765-6.326725-6.298582-6.326725zm53.204744 8.162122-9.372634.0216c-.23651.000494-.456566.176154-.494427.410265-1.13142 6.97838-7.325122 12.243187-14.424398 12.243187-1.957981 0-3.894638-.406116-5.76116-1.209204-.218318-.09335-.473576-.02729-.601912.172742l-5.030267 7.924603c-.07326.116068-.07938.255812-.04299.388672.03638.132366.114031.241056.236466.302301 3.483749 1.75188 7.364547 2.677521 11.199867 2.677521 1.42251 0 2.907641-.143062 4.406858-.410265.210451-.03705.361867-.197393.386944-.410265.499575-4.334014 4.1485-7.600708 8.491262-7.600708 1.346296 0 2.731916.34132 3.97692.993274.189307.09927.408947.06723.558918-.08637 3.926287-4.021866 6.408372-9.324414 6.964985-14.899116.01377-.136812-.03654-.264841-.128981-.367079-.09244-.102237-.228752-.151644-.365447-.151151zm-11.070886 16.691329c-3.476817 0-6.298582 2.811646-6.298582 6.283539 0 3.471894 2.821765 6.28354 6.298582 6.28354s6.298582-2.811646 6.298582-6.28354c0-3.471893-2.821765-6.283539-6.298582-6.283539z" opacity=".3"/><path d="m61.195972 17.5c-3.39725 0-6.148105 2.765875-6.148105 6.175575 0 3.409702 2.750855 6.175576 6.148105 6.175576 3.397249 0 6.148104-2.765874 6.148104-6.175576 0-3.4097-2.750855-6.175575-6.148104-6.175575zm-12.984108 4.836815c-3.791558.000494-7.635678.961696-11.092383 2.677522-.122927.06124-.199587.169934-.236466.3023-.03737.132366-.02978.272112.04299.388673l4.987273 7.924602c.126369.201513.383102.286697.601912.194336 1.845871-.783826 3.761308-1.166017 5.69667-1.166017 7.118944 0 13.329718 5.298822 14.445894 12.329556.03737.236088.235436.410267.472931.410267h9.372634c.136694 0 .273497-.0494.365447-.151151.09195-.101744.141765-.229774.128981-.36708-.505476-5.216622-2.725758-10.267413-6.234091-14.186548-.15833-.177806-.423285-.194676-.62341-.06478-1.414643.917674-3.019703 1.403539-4.643322 1.403539-4.736621 0-8.576759-3.865338-8.577251-8.593982.000492-.0024 0-.16484 0-.172743 0-.235593-.175862-.456137-.408439-.496638-1.481024-.257818-2.918659-.431858-4.299374-.431858zm-15.047807 5.1823c-.0649.01599-.14012.04464-.193471.08637-4.065439 3.145185-7.114281 7.56847-8.598747 12.459115-.05802.191142-.0063.393766.150478.51823 2.043045 1.625441 3.267524 4.127476 3.267524 6.693805s-1.223986 5.068365-3.267524 6.693805c-.155871.123969-.2085.326596-.150478.51823 1.472665 4.849651 4.497475 9.256065 8.512759 12.394336.107685.08446.230719.131672.365447.107964.134237-.02321.249188-.122441.322453-.237521l5.030267-7.903009c.128336-.202007.09349-.467651-.08599-.626196-3.151355-2.785128-4.965777-6.77856-4.965777-10.94761 0-4.200166 1.824471-8.204679 5.00877-10.990795.179474-.157556.234837-.423201.107484-.626196l-4.987273-7.9246c-.07277-.115575-.188216-.192223-.322453-.21593-.06712-.01184-.128566-.01599-.193472 0zm-13.865478 13.560355c-3.476817 0-6.298582 2.836828-6.298582 6.326725s2.821765 6.305132 6.298582 6.305132 6.298582-2.815235 6.298582-6.305132-2.821765-6.326725-6.298582-6.326725zm53.204744 8.162122-9.372634.0216c-.23651.000494-.456566.176154-.494427.410265-1.13142 6.97838-7.325122 12.243187-14.424398 12.243187-1.957981 0-3.894638-.406116-5.76116-1.209204-.218318-.09335-.473576-.02729-.601912.172742l-5.030267 7.924603c-.07326.116068-.07938.255812-.04299.388672.03638.132366.114031.241056.236466.302301 3.483749 1.75188 7.364547 2.677521 11.199867 2.677521 1.42251 0 2.907641-.143062 4.406858-.410265.210451-.03705.361867-.197393.386944-.410265.499575-4.334014 4.1485-7.600708 8.491262-7.600708 1.346296 0 2.731916.34132 3.97692.993274.189307.09927.408947.06723.558918-.08637 3.926287-4.021866 6.408372-9.324414 6.964985-14.899116.01377-.136812-.03654-.264841-.128981-.367079-.09244-.102237-.228752-.151644-.365447-.151151zm-11.070886 16.691329c-3.476817 0-6.298582 2.811646-6.298582 6.283539 0 3.471894 2.821765 6.28354 6.298582 6.28354s6.298582-2.811646 6.298582-6.28354c0-3.471893-2.821765-6.283539-6.298582-6.283539z" fill="#fff"/></g><rect height="66" rx="12" style="opacity:.1;stroke:#fff;stroke-width:.5;stroke-linecap:round;clip-path:url(#f);fill:url(#e);filter:url(#g)" transform="matrix(.49966056 0 0 .50514756 .01629319382 -.00480383623)" width="66" x="15" y="15"/></svg>