<svg height="32" width="32" xmlns="http://www.w3.org/2000/svg" xmlns:xlink="http://www.w3.org/1999/xlink"><linearGradient id="a"><stop offset="0" stop-color="#fff"/><stop offset="1" stop-color="#fff" stop-opacity="0"/></linearGradient><linearGradient id="b" gradientUnits="userSpaceOnUse" x1="27" x2="27" y1="90.000002" y2="47.9938605"><stop offset="0" stop-color="#0a0a0a"/><stop offset="1" stop-color="#3c3c3c"/></linearGradient><linearGradient id="c" gradientUnits="userSpaceOnUse" x1="23.892857" x2="23.892857" xlink:href="#d" y1="70.750648" y2="48"/><linearGradient id="d" gradientTransform="scale(1.0058652 .994169)" gradientUnits="userSpaceOnUse" x1="45.447727" x2="45.447727" y1="92.539597" y2="7.01654"><stop offset="0"/><stop offset="1" stop-opacity="0"/></linearGradient><radialGradient id="e" cx="34.520515" cy="45" gradientTransform="matrix(.96086367 -.00000005 .00000002 .42336795 -17.169511 41.948448)" gradientUnits="userSpaceOnUse" r="27" xlink:href="#a"/><radialGradient id="f" cx="85.651291" cy="29.289238" gradientTransform="matrix(-1.1096985 0 0 -.2452675 136.45903 59.659469)" gradientUnits="userSpaceOnUse" r="21"><stop offset="0" stop-color="#52acf6"/><stop offset="1" stop-color="#0060ff"/></radialGradient><linearGradient id="g" gradientUnits="userSpaceOnUse" x1="22.428572" x2="22.428572" xlink:href="#a" y1="48" y2="74.355659"/><filter id="h" color-interpolation-filters="sRGB"><feGaussianBlur stdDeviation=".1903125"/></filter><filter id="i" color-interpolation-filters="sRGB"><feGaussianBlur stdDeviation=".285"/></filter><linearGradient id="j" gradientUnits="userSpaceOnUse" x1="34.571178" x2="43.210567" xlink:href="#k" y1="48" y2="48"/><linearGradient id="k"><stop offset="0" stop-color="#5b5b5b"/><stop offset="1" stop-color="#0a0a0a"/></linearGradient><linearGradient id="l" gradientUnits="userSpaceOnUse" x1="34.365479" x2="43.416267" xlink:href="#k" y1="48" y2="48"/><linearGradient id="m" gradientTransform="matrix(1.0238095 0 0 1.0119048 -1.142857 -98.071429)" gradientUnits="userSpaceOnUse" x1="32.251034" x2="32.251034" y1="6.131708" y2="90.238609"><stop offset="0"/><stop offset="1" stop-opacity=".588235"/></linearGradient><linearGradient id="n" gradientTransform="matrix(.5294087 0 0 .5263158 .353035 43.552631)" gradientUnits="userSpaceOnUse" x1="38.473213" x2="38.473213" y1="72" y2="82.013863"><stop offset="0" stop-color="#333"/><stop offset=".43065301" stop-color="#333"/><stop offset=".55547994"/><stop offset="1"/></linearGradient><linearGradient id="o" gradientTransform="matrix(1 0 0 .5263333 -15.000002 42.92621)" gradientUnits="userSpaceOnUse" x1="33" x2="34" xlink:href="#d" y1="76.5" y2="76.5"/><linearGradient id="p" gradientTransform="matrix(1 0 0 .5263158 -57 42.927631)" gradientUnits="userSpaceOnUse" x1="33" x2="34" xlink:href="#d" y1="76.5" y2="76.5"/><linearGradient id="q" gradientTransform="matrix(.5294087 0 0 .5263158 .353035 42.927631)" gradientUnits="userSpaceOnUse" x1="39" x2="39" y1="72" y2="42"><stop offset="0" stop-color="#4f4f4f"/><stop offset="1" stop-color="#a2a2a2"/></linearGradient><linearGradient id="r" gradientTransform="matrix(1 0 0 .6666667 48.000005 -72)" gradientUnits="userSpaceOnUse" x1="33" x2="34" xlink:href="#d" y1="76.5" y2="76.5"/><linearGradient id="s" gradientUnits="userSpaceOnUse" x1="36.925404" x2="42.850594" y1="48" y2="48"><stop offset="0" stop-opacity=".426295"/><stop offset="1" stop-color="#fff" stop-opacity=".317073"/></linearGradient><linearGradient id="t" gradientUnits="userSpaceOnUse" x1="34.139206" x2="43.64254" y1="48" y2="48"><stop offset="0" stop-color="#fff"/><stop offset="1" stop-color="#7c7c7c"/></linearGradient><g fill="url(#m)" transform="matrix(.32944406 0 0 .32944406 .351407 -.307481)"><path d="m12-95.03125c-5.5110903 0-10.03125 4.52016-10.03125 10.03125v71c0 5.5110902 4.5201598 10.03125 10.03125 10.03125h72c5.51109 0 10.03125-4.5201597 10.03125-10.03125v-71c0-5.51109-4.52016-10.03125-10.03125-10.03125z" opacity=".08" transform="scale(1 -1)"/><path d="m12-94.03125c-4.971633 0-9.03125 4.059617-9.03125 9.03125v71c0 4.9716329 4.0596171 9.03125 9.03125 9.03125h72c4.971633 0 9.03125-4.059617 9.03125-9.03125v-71c0-4.971633-4.059617-9.03125-9.03125-9.03125z" opacity=".1" transform="scale(1 -1)"/><path d="m12-93c-4.4091333 0-8 3.590867-8 8v71c0 4.4091333 3.5908667 8 8 8h72c4.409133 0 8-3.5908667 8-8v-71c0-4.409133-3.590867-8-8-8z" opacity=".2" transform="scale(1 -1)"/><rect height="85" opacity=".3" rx="7" transform="scale(1 -1)" width="86" x="5" y="-92"/></g><g transform="matrix(.66070673 0 0 .66070673 -1.636166 -29.69976)"><rect fill="url(#b)" height="42" rx="6" width="42" x="5.999996" y="48.000004"/><path d="m12 48c-3.324 0-6 2.676-6 6v30c0 3.324 2.676 6.000004 6 6h30c3.324 0 6-2.675996 6-6v-30c0-3.324-2.676-6-6-6zm0 1h30c2.778924 0 5 2.221076 5 5v30c0 2.778929-2.221075 5-5 5h-30c-2.778922.000003-5-2.221076-5-5v-30c0-2.778924 2.221076-5 5-5z" fill="url(#c)"/><path d="m16 47.666668h30v13.333333h-30z" fill="url(#e)" opacity=".171"/><path d="m20.5 52.5h21v5h-21z" fill="url(#f)" stroke="#2f24aa" stroke-linecap="square"/><path d="m16 48h1v16h-1z" opacity=".5"/><path d="m45 48.8125v15.1875h1v-14.46875c-.306714-.274579-.640983-.51153-1-.71875z" opacity=".4"/><path d="m12 48c-3.324 0-6 2.676-6 6v30c0 2.984862 2.1528308 5.434872 5 5.90625-2.286789-.463119-4-2.474691-4-4.90625v-30c0-2.778924 2.2210761-5 5-5h30c2.778924 0 5 2.221076 5 5v30c0 2.431563-1.71321 4.44313-4 4.90625 2.847169-.47138 5-2.921384 5-5.90625v-30c0-3.324-2.676-6-6-6z" fill="url(#g)" opacity=".15"/><g id="u"><path d="m18.336386 69.391447c-.04391.308622-.210923.578128-.463232.740132v2.43421c.291983.187479.479776.517136.479776.888158.000001.371023-.187793.70068-.479776.888158v2.434211c.291983.187478.479776.517135.479776.888158.000001.371022-.187793.700679-.479776.888158v2.43421c.291983.187479.479776.517136.479776.888158.000001.371023-.187793.70068-.479776.888158v1.052632h.49632c.07953-.502989.514104-.888158 1.042274-.888158s.962748.385169 1.042273.888158h2.150723c.07953-.502989.514104-.888158 1.042273-.888158.275103 0 .523066.10841.711393.279605v-2.664474c-.188327.171195-.43629.279606-.711393.279606-.584466 0-1.058817-.471579-1.058817-1.052632.000001-.581053.47435-1.052632 1.058817-1.052632.275103 0 .523066.108411.711393.279606v-2.664474c-.188327.171195-.43629.279605-.711393.279605-.584466 0-1.058817-.471579-1.058817-1.052631.000001-.581053.47435-1.052632 1.058817-1.052632.275103 0 .523066.108411.711393.279605v-2.664473c-.188327.171194-.43629.279605-.711393.279605-.584466 0-1.058817-.471579-1.058817-1.052632.000001-.581052.47435-1.052631 1.058817-1.052631.275103 0 .523066.10841.711393.279605v-1.184211h-1.786754c-.07267.5108-.508517.904606-1.042273.904606s-.969606-.393806-1.042274-.904606zm1.075362.904606c.584468 0 1.058817.471579 1.058817 1.052631.000001.581053-.47435 1.052632-1.058817 1.052632s-1.058818-.471579-1.058818-1.052632c.000001-.581052.474351-1.052631 1.058818-1.052631zm2.117635 2.105263c.584467 0 1.058817.471579 1.058817 1.052631.000001.581053-.47435 1.052632-1.058817 1.052632s-1.058818-.471579-1.058818-1.052632c.000001-.581052.47435-1.052631 1.058818-1.052631zm-2.117635 2.105263c.584468 0 1.058817.471579 1.058817 1.052632.000001.581052-.47435 1.052631-1.058817 1.052631s-1.058818-.471579-1.058818-1.052631c.000001-.581053.474351-1.052632 1.058818-1.052632zm2.117635 2.105263c.584467 0 1.058817.471579 1.058817 1.052632.000001.581052-.47435 1.052631-1.058817 1.052631s-1.058818-.471579-1.058818-1.052631c.000001-.581053.47435-1.052632 1.058818-1.052632zm-2.117635 2.105263c.584468 0 1.058817.471579 1.058817 1.052632.000001.581053-.47435 1.052632-1.058817 1.052632s-1.058818-.471579-1.058818-1.052632c.000001-.581053.474351-1.052632 1.058818-1.052632zm2.117635 2.105264c.584467 0 1.058817.471579 1.058817 1.052631.000001.581053-.47435 1.052632-1.058817 1.052632s-1.058818-.471579-1.058818-1.052632c.000001-.581052.47435-1.052631 1.058818-1.052631z" fill="#999"/><path d="m34 68.96875v6.03125c0 .554.446 1 1 1s1-.446 1-1v-6.03125zm4 0v6.03125c0 .554.446 1 1 1s1-.446 1-1v-6.03125zm4 0v6.03125c0 .554.446 1 1 1s1-.446 1-1v-6.03125z" fill="none" filter="url(#h)" stroke="#000" stroke-linecap="square" stroke-width="1.894442" transform="matrix(.5294087 0 0 .5263158 .353035 42.927631)"/><path d="m16 62h10v26h-10z"/><path d="m18.4375 80c-.277 0-.5.223-.5.5v.125h-.65625v6.09375h7.4375v-6.09375h-.46875v-.125c0-.277-.223-.5-.5-.5z" fill="url(#n)"/><path d="m16.965597 81.973684v4.009634 1.052631h1.058818 5.928797.579041.479776v-5.062265h-1.058817v4.009634h-5.928797v-4.009634z" fill="#656e79"/><path d="m17 81h1v1h-1z"/><path d="m24.176426 80.822365h1.058817v.526316h-1.058817z"/><path d="m18 80.822205h1v4.737h-1z" fill="url(#o)"/><path d="m-24 80.822365h1v4.736842h-1z" fill="url(#p)" transform="scale(-1 1)"/><path d="m34 51.5v15.5c0 .554.446 1 1 1s1-.446 1-1v-13.71875c-.787438-.447486-1.481631-1.043087-2-1.78125zm10 0c-.518369.738163-1.212562 1.333764-2 1.78125v13.71875c0 .554.446 1 1 1s1-.446 1-1zm-6 2.5v13c0 .554.446 1 1 1s1-.446 1-1v-13c-.327491.05456-.657101.09375-1 .09375s-.672508-.03919-1-.09375z" fill="none" filter="url(#i)" stroke="#000" stroke-linecap="square" stroke-width="1.894442" transform="matrix(.5294087 0 0 .5263158 .353035 42.927631)"/><path d="m19 75.84375v6.65625c0 .277.223.5.5.5s.5-.223.5-.5v-6.25c-.358059-.08471-.682581-.238403-1-.40625zm4 0c-.317419.167847-.641941.321539-1 .40625v6.25c0 .277.223.5.5.5s.5-.223.5-.5z" opacity=".7"/><path d="m16.9375 65.03125v15.96875h8.125v-15.96875z" fill="url(#q)"/><path d="m81-24h1v6h-1z" fill="url(#r)" transform="rotate(90)"/><path d="m42.850595 48a3.959722 3.959722 0 1 1 -7.919444 0 3.959722 3.959722 0 1 1 7.919444 0z" fill="url(#s)" transform="matrix(0 .7282863 -.7325661 0 56.163147 39.867098)"/><path d="m42.850595 48a3.959722 3.959722 0 1 1 -7.919444 0 3.959722 3.959722 0 1 1 7.919444 0z" fill="#c6c6c6" stroke="#000" stroke-linecap="square" stroke-width="2.143275" transform="matrix(.4679446 0 0 .4652108 2.801199 45.860671)"/><path d="m42.850595 48a3.959722 3.959722 0 1 1 -7.919444 0 3.959722 3.959722 0 1 1 7.919444 0z" fill="none" stroke="url(#t)" stroke-linecap="square" stroke-width="3.000585" transform="matrix(0 .3322934 -.3342462 0 37.043788 55.267608)"/><path d="m20.999974 67.401316c-.440612 0-.810657.367883-.810657.805921 0 .365031.271486.665088.612129.756579v.263158h.363968v-.246711c.362838-.07326.628672-.389744.628673-.773026 0-.438038-.353502-.805921-.794113-.805921zm0 .263158c.29739 0 .529409.24711.529409.542763-.000001.295652-.232019.526316-.529409.526316-.29739-.000001-.545953-.230664-.545953-.526316.000001-.295653.248563-.542763.545953-.542763z" opacity=".426295"/><path d="m17.611696 60.086811h4.540593v1.513531h-4.540593z" fill="#0ad74a"/><path d="m16 62.5h10v.5h-10z" fill="#c4c4c4"/><path d="m24 81h1v1h-1z"/><path d="m19 71.84375v6.65625c0 .277.223.5.5.5s.5-.223.5-.5v-6.25c-.358059-.08471-.682581-.238403-1-.40625zm4 0c-.317419.167847-.641941.321539-1 .40625v6.25c0 .277.223.5.5.5s.5-.223.5-.5z" fill="#34363a" opacity=".7"/></g><use id="v" height="96" transform="translate(10)" width="96" xlink:href="#u"/><use height="96" transform="translate(10)" width="96" xlink:href="#v"/><g stroke="#000" stroke-linecap="square"><path d="m42.850595 48a3.959722 3.959722 0 1 1 -7.919444 0 3.959722 3.959722 0 1 1 7.919444 0z" fill="url(#j)" stroke-width="1.29297" transform="matrix(0 .7734129 -.773413 0 48.686324 54.358797)"/><path d="m42.850595 48a3.959722 3.959722 0 1 1 -7.919444 0 3.959722 3.959722 0 1 1 7.919444 0z" fill="url(#l)" stroke-width="1.96234" transform="matrix(0 .5095957 -.5095957 0 35.978451 55.663521)"/></g></g></svg>