<svg height="96" width="96" xmlns="http://www.w3.org/2000/svg" xmlns:xlink="http://www.w3.org/1999/xlink"><linearGradient id="a"><stop offset="0" stop-color="#fff"/><stop offset="1" stop-color="#fff" stop-opacity="0"/></linearGradient><filter id="b" color-interpolation-filters="sRGB" height="1.384" width="1.384" x="-.192" y="-.192"><feGaussianBlur stdDeviation="5.28"/></filter><linearGradient id="c" gradientUnits="userSpaceOnUse" x1="48" x2="48" xlink:href="#a" y1="20.220806" y2="138.66119"/><clipPath id="d"><rect height="84" rx="6" width="84" x="6" y="6"/></clipPath><linearGradient id="e" gradientTransform="scale(1.0058652 .994169)" gradientUnits="userSpaceOnUse" x1="45.447727" x2="45.447727" y1="92.539597" y2="7.01654"><stop offset="0"/><stop offset="1" stop-opacity=".588235"/></linearGradient><linearGradient id="f" gradientUnits="userSpaceOnUse" x1="48" x2="48" xlink:href="#i" y1="90" y2="5.987717"/><linearGradient id="g" gradientUnits="userSpaceOnUse" x1="31.714285" x2="31.714285" xlink:href="#a" y1="6" y2="74.09301"/><radialGradient id="h" cx="47.967342" cy="89.688721" gradientTransform="matrix(1.3341109 0 0 .95758929 -16.026413 2.111258)" gradientUnits="userSpaceOnUse" r="42" xlink:href="#a"/><linearGradient id="i" gradientUnits="userSpaceOnUse" x1="58.650177" x2="58.650177" y1="122" y2="5.425234"><stop offset="0" stop-color="#dcdcdc"/><stop offset="1" stop-color="#f5f5f5"/></linearGradient><linearGradient id="j" gradientTransform="matrix(1.0238095 0 0 1.0119048 -1.142857 -.083333)" gradientUnits="userSpaceOnUse" x1="40.716122" x2="40.716122" xlink:href="#e" y1="91.15094" y2="7.291349"/><linearGradient id="k" gradientUnits="userSpaceOnUse" x1="40.716122" x2="40.716122" xlink:href="#e" y1="91.15094" y2="7.291349"/><linearGradient id="l" gradientUnits="userSpaceOnUse" x1="47.726624" x2="47.726624" y1="78.923363" y2="16.640985"><stop offset="0" stop-color="#4d81cf"/><stop offset="1" stop-color="#9cb8e4"/></linearGradient><linearGradient id="m" gradientTransform="matrix(-.96032399 .27888679 .27888679 .96032399 111.43916 15.295347)" gradientUnits="userSpaceOnUse" x1="39.819206" x2="44.586384" xlink:href="#a" y1="13.055696" y2="29.471077"/><linearGradient id="n" gradientUnits="userSpaceOnUse" x1="25.83757" x2="25.83757" xlink:href="#a" y1="53.923836" y2="86.995026"/><linearGradient id="o" gradientUnits="userSpaceOnUse" x1="90.244123" x2="90.244123" xlink:href="#a" y1="45.178782" y2="64.319197"/><linearGradient id="p" gradientTransform="matrix(-1 0 0 1 80.94186 38.325122)" gradientUnits="userSpaceOnUse" x1="76.75824" x2="76.75824" xlink:href="#a" y1="27.409969" y2="56.865051"/><linearGradient id="q" gradientTransform="matrix(-1 0 0 1 85.59375 12.000001)" gradientUnits="userSpaceOnUse" x1="75.917961" x2="75.917961" xlink:href="#a" y1="63.13913" y2="76.550301"/><clipPath id="r"><path d="m16.00013 26.000145h63.999855v63.999855h-63.999855z"/></clipPath><linearGradient id="s" gradientUnits="userSpaceOnUse" x1="49.190796" x2="49.190796" xlink:href="#i" y1="68.262077" y2="27.219465"/><g><path d="m43.09375 3.96875c-1.141012.0143455-2.18286.1986497-2.78125.09375a1.0281567 1.0281567 0 0 0 -.34375-.03125c-.556903.0805586-1.63547-.0679264-2.78125-.03125-.57289.018338-1.187117.076135-1.78125.375s-1.150664.8705016-1.4375 1.59375a1.0281567 1.0281567 0 0 0 -.0625.4375c.05783.7808722-.428666 1.5621849-1.0625 1.9375-.625762.370535-1.209639.4267338-1.875-.21875-.161613-.1717503-.316745-.8371696-.5625-1.71875-.122878-.4407902-.28374-.9461211-.65625-1.40625s-.993423-.8316779-1.6875-.9375a1.0281567 1.0281567 0 0 0 -.125 0c-2.671251-.0758136-5.348108-.0095778-7.96875-.03125a1.0281567 1.0281567 0 0 0 -.1875.03125c-.833144.1496718-1.492036.6734346-1.84375 1.25s-.482136 1.1394653-.59375 1.625-.223385.8712855-.34375 1.09375-.170767.2942628-.46875.375a1.0281567 1.0281567 0 0 0 -.125.0625c-.470378.1983018-.749966.1820484-.96875.125s-.406161-.1812528-.625-.4375c-.437677-.5124944-.825323-1.5274947-1.03125-2.40625a1.0281567 1.0281567 0 0 0 -.1875-.375c-.549471-.6975339-1.333224-1.1235895-2.09375-1.25s-1.499863-.0234772-2.1875.1875c-1.3752733.4219543-2.5797889 1.2525488-3.40625 1.8125a1.0281567 1.0281567 0 0 0 -.125.09375c-.8745253.7994316-1.9388083 1.8655245-2.6875 3.15625-.7486917 1.290725-1.2126772 2.884188-.625 4.46875a1.0281567 1.0281567 0 0 0 .0625.15625c.3771886.673751 1.0134927 1.091051 1.5625 1.3125s1.0352959.299955 1.4375.40625.6919109.240589.8125.34375.1877431.155108.21875.59375a1.0281567 1.0281567 0 0 0 .03125.15625c.1995515.894642.017971 1.062067-.5 1.40625-.5179714.344183-1.4680916.591055-2.34375.8125a1.0281567 1.0281567 0 0 0 -.34375.15625c-1.2182608.852373-1.460717 2.264372-1.4375 3.375s.1984961 2.129459.09375 2.71875a1.0281567 1.0281567 0 0 0 -.03125.3125c.0723765.565621-.0889327 1.688542-.03125 2.84375.028841.577604.1113701 1.192873.4375 1.78125s.9420253 1.095032 1.6875 1.34375a1.0281567 1.0281567 0 0 0 .46875.0625c1.0626292-.151497 1.6996403.543187 1.90625 1.40625.1033049.431532.0419587.854356-.125 1.15625s-.435263.561037-1.0625.6875v.03125c-1.0546439-.02393-2.0395875.41056-2.625 1.15625-.6195746.789206-.8422657 1.825366-.625 2.875h-.03125c.1528444 2.10571-.3650771 4.61548.25 7.15625a1.0281567 1.0281567 0 0 0 .09375.21875c.3741954.707847 1.0209555 1.15147 1.59375 1.375s1.1091923.307694 1.53125.40625c.4220577.09856.6861728.209539.8125.3125s.2144139.191587.25.65625a1.0281567 1.0281567 0 0 0 .03125.125c.2030651.896445.017796 1.062622-.5 1.40625-.5177962.343628-1.4661484.591779-2.34375.8125a1.0281567 1.0281567 0 0 0 -.34375.15625c-1.2182608.852373-1.460717 2.264372-1.4375 3.375s.1984961 2.129459.09375 2.71875a1.0281567 1.0281567 0 0 0 -.03125.3125c.0723765.565621-.0889327 1.688542-.03125 2.84375.028841.577604.1113701 1.192873.4375 1.78125s.9420253 1.095032 1.6875 1.34375a1.0281567 1.0281567 0 0 0 .46875.0625c1.0626288-.151496 1.6996402.543186 1.90625 1.40625.1033049.431532.0419587.854356-.125 1.15625s-.435263.561037-1.0625.6875v.03125c-1.0546439-.02393-2.0395875.410559-2.625 1.15625-.6195746.789206-.8422657 1.825366-.625 2.875h-.03125c.1528444 2.10571-.3650771 4.61548.25 7.15625a1.0281567 1.0281567 0 0 0 .09375.21875c.3741954.707847 1.0209555 1.15147 1.59375 1.375s1.1091924.307694 1.53125.40625c.4220576.09856.6861727.209539.8125.3125s.2144138.191587.25.65625a1.0281567 1.0281567 0 0 0 .03125.125c.1079854.467806.04831.707729-.03125.875s-.2118036.321931-.5.5c-.5763927.356138-1.630865.628244-2.59375 1.0625a1.0281567 1.0281567 0 0 0 -.28125.1875c-.6292459.613303-.9497881 1.426131-1 2.1875-.050212.761369.1355877 1.468234.40625 2.125.5413246 1.313532 1.4312439 2.451173 2.03125 3.21875a1.0281567 1.0281567 0 0 0 .09375.125c.8845134.82949 2.1002839 1.800171 3.5 2.4375s3.120582.951834 4.65625.09375a1.0281567 1.0281567 0 0 0 .1875-.125c1.039584-.930618 1.083562-2.202458 1.28125-2.90625.09884-.351896.213734-.552184.3125-.65625.09877-.104066.222333-.18502.65625-.21875a1.0281567 1.0281567 0 0 0 .125-.03125c.873509-.204383 1.053521-.01428 1.40625.5.352729.514276.619295 1.440637.84375 2.3125a1.0281567 1.0281567 0 0 0 .15625.34375c.852373 1.218261 2.264372 1.460717 3.375 1.4375 1.110628-.02322 2.129459-.198496 2.71875-.09375a1.0281567 1.0281567 0 0 0 .34375.03125c.558817-.08213 1.661688.06587 2.8125.03125.575406-.01731 1.184259-.07664 1.78125-.375.596991-.298356 1.148397-.868111 1.4375-1.59375a1.0281567 1.0281567 0 0 0 .0625-.46875c-.07824-.877365.485092-1.633681 1.1875-1.96875.676357-.322642 1.289449-.313873 1.875.46875.141771.470961.252796 1.228686.59375 2.03125.186389.438737.465887.880292.90625 1.25s1.060196.615664 1.71875.625a1.0281567 1.0281567 0 0 0 .0625 0c2.533291-.141759 5.355045.29659 8.21875-.21875a1.0281567 1.0281567 0 0 0 .21875-.0625c.693375-.311193 1.168425-.894337 1.40625-1.4375s.320651-1.052226.40625-1.46875c.0856-.416524.184775-.746082.28125-.90625.09647-.160168.128196-.202921.4375-.28125a1.0281567 1.0281567 0 0 0 .15625-.0625c.833963-.355345 1.206736-.174321 1.65625.28125s.797029 1.32753.84375 2.09375a1.0281567 1.0281567 0 0 0 .125.4375c.366282.659938.93549 1.129583 1.53125 1.375s1.19159.310391 1.75.3125c1.11682.0042 2.177784-.186475 2.75-.09375a1.0281567 1.0281567 0 0 0 .3125 0c.578715-.09628 1.648904.09405 2.78125.09375.566173-.00015 1.177687-.06885 1.78125-.3125.603563-.243653 1.188585-.710071 1.5625-1.375a1.0281567 1.0281567 0 0 0 .125-.4375c.04672-.76622.394236-1.638179.84375-2.09375s.822287-.636595 1.65625-.28125a1.0281567 1.0281567 0 0 0 .15625.0625c.266536.06883.3119.107055.4375.34375s.220533.686299.34375 1.1875.272615 1.080824.65625 1.65625 1.111611 1.06768 1.96875 1.15625a1.0281567 1.0281567 0 0 0 .125 0c2.616836-.05044 5.467209.274271 8.3125-.125a1.0281567 1.0281567 0 0 0 .21875-.0625c.729908-.274141 1.23774-.85419 1.5-1.40625s.345305-1.06878.4375-1.5c.0922-.43122.179265-.767217.28125-.9375s.15586-.236196.46875-.3125a1.0281567 1.0281567 0 0 0 .15625-.0625c.510206-.218756.75453-.180087.9375-.125.18297.05509.375042.18252.59375.46875.437416.572461.837118 1.649083 1.34375 2.625a1.0281567 1.0281567 0 0 0 .1875.25c.585259.586223 1.343492.896447 2.0625.9375.719008.04105 1.391441-.147273 2-.40625 1.217117-.517953 2.231602-1.346524 2.9375-1.90625a1.0281567 1.0281567 0 0 0 .125-.125c.704789-.777484 1.660877-1.834275 2.3125-3.09375s1.02658-2.880412.21875-4.34375a1.0281567 1.0281567 0 0 0 -.09375-.125c-.863837-1.148592-2.14139-1.232458-2.875-1.4375-.366805-.102521-.610275-.213591-.71875-.3125s-.186817-.171803-.21875-.59375a1.0281567 1.0281567 0 0 0 -.03125-.15625c-.199551-.894643-.01797-1.062067.5-1.40625.517971-.344183 1.468091-.591055 2.34375-.8125a1.0281567 1.0281567 0 0 0 .34375-.15625c1.218261-.852373 1.460717-2.264372 1.4375-3.375-.02322-1.110628-.198496-2.129459-.09375-2.71875a1.0281567 1.0281567 0 0 0 .03125-.3125c-.072376-.565621.088933-1.688542.03125-2.84375-.028841-.577604-.11137-1.192873-.4375-1.78125s-.942025-1.095032-1.6875-1.34375a1.0281567 1.0281567 0 0 0 -.46875-.0625c-1.062629.151496-1.69964-.543187-1.90625-1.40625-.103305-.431531-.04196-.854356.125-1.15625.166959-.301894.435263-.561037 1.0625-.6875v-.03125c1.054644.02393 2.039588-.41056 2.625-1.15625.619575-.789206.842266-1.825366.625-2.875h.03125c-.152845-2.10571.365077-4.61548-.25-7.15625a1.0281567 1.0281567 0 0 0 -.09375-.21875c-.374196-.707846-1.020956-1.15147-1.59375-1.375s-1.109192-.307694-1.53125-.40625c-.422058-.09856-.686173-.209539-.8125-.3125s-.214414-.191587-.25-.65625a1.0281567 1.0281567 0 0 0 -.03125-.125c-.203064-.896442-.0178-1.062621.5-1.40625.517797-.343629 1.466149-.591779 2.34375-.8125a1.0281567 1.0281567 0 0 0 .34375-.15625c1.218261-.852373 1.460717-2.264372 1.4375-3.375-.02322-1.110628-.198496-2.129459-.09375-2.71875a1.0281567 1.0281567 0 0 0 .03125-.3125c-.072376-.565621.088933-1.688542.03125-2.84375-.028841-.577604-.11137-1.192873-.4375-1.78125s-.942025-1.095032-1.6875-1.34375a1.0281567 1.0281567 0 0 0 -.46875-.0625c-1.062629.151495-1.69964-.543187-1.90625-1.40625-.103305-.431531-.04196-.854356.125-1.15625.166959-.301894.435263-.561037 1.0625-.6875v-.03125c1.054644.02393 2.039588-.41056 2.625-1.15625.619575-.789206.842266-1.825366.625-2.875h.03125c-.152845-2.10571.365077-4.61548-.25-7.15625a1.0281567 1.0281567 0 0 0 -.09375-.21875c-.374196-.707846-1.020956-1.15147-1.59375-1.375s-1.109192-.307694-1.53125-.40625c-.422058-.09856-.686173-.209539-.8125-.3125s-.214414-.191587-.25-.65625a1.0281567 1.0281567 0 0 0 -.03125-.125c-.107986-.467806-.04831-.707729.03125-.875s.211804-.321931.5-.5c.576393-.356138 1.630864-.628243 2.59375-1.0625a1.0281567 1.0281567 0 0 0 .28125-.1875c.602852-.565592.92704-1.316291 1-2.03125s-.085-1.380818-.3125-2c-.455009-1.2383641-1.238869-2.3257859-1.75-3.0625a1.0281567 1.0281567 0 0 0 -.09375-.125c-.744466-.7611335-1.772858-1.7582989-3-2.46875s-2.810595-1.1607238-4.3125-.4375a1.0281567 1.0281567 0 0 0 -.125.09375c-1.185386.7998404-1.366162 2.0785181-1.59375 2.8125-.113794.366991-.209277.6053475-.3125.71875s-.203502.1878311-.59375.21875a1.0281567 1.0281567 0 0 0 -.125.03125c-.821581.1851352-1.075199-.020962-1.4375-.5-.362301-.4790385-.628149-1.3324377-.75-2.125a1.0281567 1.0281567 0 0 0 -.15625-.375c-.404973-.6477481-1.013826-1.1180739-1.625-1.34375s-1.212028-.2571756-1.78125-.25c-1.138445.0143512-2.184803.1983092-2.78125.09375a1.0281567 1.0281567 0 0 0 -.34375-.03125c-.556903.0805586-1.63547-.0679264-2.78125-.03125-.57289.018338-1.187117.076135-1.78125.375s-1.150664.8705016-1.4375 1.59375a1.0281567 1.0281567 0 0 0 -.0625.46875c.07824.8773654-.485092 1.6336809-1.1875 1.96875-.676357.3226418-1.289449.3138729-1.875-.46875-.141771-.4709608-.252796-1.2286857-.59375-2.03125-.186389-.4387373-.465887-.8802916-.90625-1.25s-1.060196-.6156634-1.71875-.625a1.0281567 1.0281567 0 0 0 -.0625 0c-2.533292.1417585-5.355045-.2965905-8.21875.21875a1.0281567 1.0281567 0 0 0 -.25.0625c-.690514.3144904-1.136031.8961383-1.375 1.4375s-.317675 1.0535876-.40625 1.46875c-.08857.4151624-.182442.7143306-.28125.875-.09881.1606694-.154089.2338268-.46875.3125a1.0281567 1.0281567 0 0 0 -.15625.0625c-.875515.3755364-1.187932.192803-1.625-.28125s-.778316-1.4067904-.875-2.21875a1.0281567 1.0281567 0 0 0 -.15625-.40625c-.406421-.650064-1.011706-1.118773-1.625-1.34375s-1.210789-.2571722-1.78125-.25z" fill="url(#j)" opacity=".08"/><path d="m20.15625 6a1.0086732 1.0086732 0 0 0 -.8125 1c0 1.9650322-1.592327 3.5625-3.59375 3.5625-1.983857 0-3.566575-1.559709-3.59375-3.5a1.0086732 1.0086732 0 0 0 -1.125-1c-3.4231252.4096085-6.1820304 2.9511878-6.875 6.28125a1.0086732 1.0086732 0 0 0 .96875 1.21875c1.9396044.0644 3.46875 1.638259 3.46875 3.5625 0 1.965034-1.5923231 3.5625-3.59375 3.5625a1.0086732 1.0086732 0 0 0 -1 1v7.0625a1.0086732 1.0086732 0 0 0 1 1c2.0014269 0 3.59375 1.597466 3.59375 3.5625s-1.5923231 3.5625-3.59375 3.5625a1.0086732 1.0086732 0 0 0 -1 1v7.0625a1.0086732 1.0086732 0 0 0 1 1c2.0014267 0 3.59375 1.597467 3.59375 3.5625 0 1.965034-1.5923231 3.5625-3.59375 3.5625a1.0086732 1.0086732 0 0 0 -1 1v7.0625a1.0086732 1.0086732 0 0 0 1 1c2.0014267 0 3.59375 1.597467 3.59375 3.5625 0 1.965035-1.5923228 3.5625-3.59375 3.5625a1.0086732 1.0086732 0 0 0 -1 1v7.0625a1.0086732 1.0086732 0 0 0 1 1c2.0014248-.000003 3.59375 1.597467 3.59375 3.5625 0 1.924238-1.5291419 3.498089-3.46875 3.5625a1.0086732 1.0086732 0 0 0 -.96875 1.21875c.6929696 3.330063 3.451875 5.871641 6.875 6.28125a1.0086732 1.0086732 0 0 0 1.125-1c.02717-1.94029 1.609894-3.5 3.59375-3.5 2.001423 0 3.59375 1.597468 3.59375 3.5625a1.0086732 1.0086732 0 0 0 1 1h7.1875a1.0086732 1.0086732 0 0 0 1-1c0-1.965032 1.592327-3.5625 3.59375-3.5625 2.001435 0 3.625 1.605825 3.625 3.5625a1.0086732 1.0086732 0 0 0 1 1h7.15625a1.0086732 1.0086732 0 0 0 1-1c0-1.965032 1.592327-3.5625 3.59375-3.5625 2.001435 0 3.625 1.605825 3.625 3.5625a1.0086732 1.0086732 0 0 0 1 1h7.15625a1.0086732 1.0086732 0 0 0 1-1c0-1.956675 1.623565-3.5625 3.625-3.5625 2.001423 0 3.59375 1.597468 3.59375 3.5625a1.0086732 1.0086732 0 0 0 1 1h7.15625a1.0086732 1.0086732 0 0 0 1-1c-.000008-1.956668 1.623577-3.5625 3.625-3.5625 1.930812 0 3.456945 1.501521 3.5625 3.375a1.0086732 1.0086732 0 0 0 1.25.90625c2.888364-.781055 5.136029-3.112045 5.75-6.0625a1.0086732 1.0086732 0 0 0 -.96875-1.21875c-1.939609-.06441-3.46875-1.638259-3.46875-3.5625 0-1.965037 1.592326-3.5625 3.59375-3.5625a1.0086732 1.0086732 0 0 0 1-1v-7.0625a1.0086732 1.0086732 0 0 0 -1-1c-2.001423.000001-3.59375-1.597467-3.59375-3.5625 0-1.965032 1.592327-3.5625 3.59375-3.5625a1.0086732 1.0086732 0 0 0 1-1v-7.0625a1.0086732 1.0086732 0 0 0 -1-1c-2.001423.000001-3.59375-1.597468-3.59375-3.5625s1.592327-3.5625 3.59375-3.5625a1.0086732 1.0086732 0 0 0 1-1v-7.0625a1.0086732 1.0086732 0 0 0 -1-1c-2.001423.000001-3.59375-1.597468-3.59375-3.5625 0-1.965033 1.592327-3.5625 3.59375-3.5625a1.0086732 1.0086732 0 0 0 1-1v-7.0625a1.0086732 1.0086732 0 0 0 -1-1c-2.001423.000001-3.59375-1.597468-3.59375-3.5625 0-1.924241 1.529141-3.498089 3.46875-3.5625a1.0086732 1.0086732 0 0 0 .96875-1.21875c-.613971-2.9504552-2.861636-5.2814447-5.75-6.0625a1.0086732 1.0086732 0 0 0 -1.25.90625c-.105571 1.8734915-1.631688 3.375-3.5625 3.375-2.001435 0-3.625-1.6058245-3.625-3.5625a1.0086732 1.0086732 0 0 0 -1-1h-7.15625a1.0086732 1.0086732 0 0 0 -1 1c0 1.9650322-1.592327 3.5625-3.59375 3.5625-2.001435 0-3.625-1.6058245-3.625-3.5625a1.0086732 1.0086732 0 0 0 -1-1h-7.15625a1.0086732 1.0086732 0 0 0 -1 1c0 1.9566755-1.623565 3.5625-3.625 3.5625-2.001423 0-3.59375-1.5974678-3.59375-3.5625a1.0086732 1.0086732 0 0 0 -1-1h-7.15625a1.0086732 1.0086732 0 0 0 -1 1c.000008 1.956668-1.623577 3.5625-3.625 3.5625s-3.59375-1.5974678-3.59375-3.5625a1.0086732 1.0086732 0 0 0 -1-1h-7.1875a1.0086732 1.0086732 0 0 0 -.1875 0z" fill="url(#j)" opacity=".2"/><path d="m12 7c-3.1576964 0-5.7192022 2.4087223-5.96875 5.5 2.4694037.017094 4.46875 2.026594 4.46875 4.5 0 2.484001-2.016 4.5-4.5 4.5v7c2.484 0 4.5 2.016 4.5 4.5 0 2.484001-2.016 4.5-4.5 4.5v7c2.484 0 4.5 2.016 4.5 4.5 0 2.484001-2.016 4.5-4.5 4.5v7c2.484 0 4.5 2.016 4.5 4.5 0 2.484001-2.016 4.5-4.5 4.5v7c2.484-.000004 4.5 2.016 4.5 4.5 0 2.473403-1.9993463 4.482906-4.46875 4.5.2495478 3.091278 2.8110536 5.5 5.96875 5.5 0-2.484 2.016-4.5 4.5-4.5 2.484001 0 4.5 2.016 4.5 4.5h7c0-2.484 2.016-4.5 4.5-4.5 2.484001 0 4.5 2.016 4.5 4.5h7c0-2.484 2.016-4.5 4.5-4.5 2.484001 0 4.5 2.016 4.5 4.5h7c0-2.484 2.016-4.5 4.5-4.5 2.484001 0 4.5 2.016 4.5 4.5h7c-.000004-2.484 2.016-4.5 4.5-4.5 2.452216 0 4.449324 1.966103 4.5 4.40625 2.688537-.445117 4.746004-2.646977 4.96875-5.40625-2.469404-.0171-4.46875-2.026594-4.46875-4.5 0-2.484004 2.016-4.5 4.5-4.5v-7c-2.484.000001-4.5-2.016-4.5-4.5s2.016-4.5 4.5-4.5v-7c-2.484.000001-4.5-2.016-4.5-4.5s2.016-4.5 4.5-4.5v-7c-2.484.000001-4.5-2.016-4.5-4.5s2.016-4.5 4.5-4.5v-7c-2.484.000001-4.5-2.016-4.5-4.5 0-2.473406 1.999346-4.482906 4.46875-4.5-.222746-2.7592732-2.280213-4.961133-4.96875-5.40625-.05068 2.4401476-2.047781 4.40625-4.5 4.40625-2.484004 0-4.5-2.0159999-4.5-4.5h-7c.000001 2.4840004-2.016 4.5-4.5 4.5s-4.5-2.0159999-4.5-4.5h-7c.000001 2.4840004-2.016 4.5-4.5 4.5s-4.5-2.0159999-4.5-4.5h-7c.000001 2.4840004-2.016 4.5-4.5 4.5s-4.5-2.0159999-4.5-4.5h-7c.000001 2.4840004-2.016 4.5-4.5 4.5s-4.5-2.0159999-4.5-4.5z" fill="url(#k)" opacity=".45"/><g fill="url(#j)"><path d="m20.34375 7c0 2.5135714-2.05061 4.5625-4.59375 4.5625-2.52145 0-4.55896-2.0159905-4.59375-4.5-2.996139.3585157-5.394264 2.5891385-6 5.5 2.47044.08203 4.4375 2.100949 4.4375 4.5625 0 2.513572-2.050607 4.5625-4.59375 4.5625v7.0625c2.543143 0 4.59375 2.048928 4.59375 4.5625s-2.050607 4.5625-4.59375 4.5625v7.0625c2.543143 0 4.59375 2.048929 4.59375 4.5625 0 2.513572-2.050607 4.5625-4.59375 4.5625v7.0625c2.543143 0 4.59375 2.048929 4.59375 4.5625 0 2.513573-2.050607 4.5625-4.59375 4.5625v7.0625c2.543143-.000004 4.59375 2.048929 4.59375 4.5625 0 2.461548-1.96706 4.480461-4.4375 4.5625.605736 2.910862 3.003861 5.141484 6 5.5.03479-2.484009 2.0723-4.5 4.59375-4.5 2.54314 0 4.59375 2.048929 4.59375 4.5625h7.1875c0-2.513571 2.05061-4.5625 4.59375-4.5625 2.54315 0 4.625 2.048929 4.625 4.5625h7.15625c0-2.513571 2.05061-4.5625 4.59375-4.5625 2.54315 0 4.625 2.048929 4.625 4.5625h7.15625c0-2.513571 2.08185-4.5625 4.625-4.5625 2.54314 0 4.59375 2.048929 4.59375 4.5625h7.15625c-.00001-2.513571 2.08186-4.5625 4.625-4.5625 2.45596 0 4.4276 1.918171 4.5625 4.3125 2.52264-.682158 4.46306-2.732219 5-5.3125-2.47044-.08204-4.4375-2.100949-4.4375-4.5625 0-2.513575 2.05061-4.5625 4.59375-4.5625v-7.0625c-2.54314.000001-4.59375-2.048928-4.59375-4.5625 0-2.513571 2.05061-4.5625 4.59375-4.5625v-7.0625c-2.54314.000001-4.59375-2.048929-4.59375-4.5625s2.05061-4.5625 4.59375-4.5625v-7.0625c-2.54314.000001-4.59375-2.048929-4.59375-4.5625 0-2.513572 2.05061-4.5625 4.59375-4.5625v-7.0625c-2.54314.000001-4.59375-2.048929-4.59375-4.5625 0-2.461551 1.96706-4.480461 4.4375-4.5625-.53694-2.5802811-2.47736-4.6303417-5-5.3125-.13492 2.3943302-2.10654 4.3125-4.5625 4.3125-2.54315 0-4.625-2.0489286-4.625-4.5625h-7.15625c0 2.5135714-2.05061 4.5625-4.59375 4.5625-2.54315 0-4.625-2.0489286-4.625-4.5625h-7.15625c0 2.5135714-2.08185 4.5625-4.625 4.5625-2.54314 0-4.59375-2.0489286-4.59375-4.5625h-7.15625c.00001 2.5135714-2.08186 4.5625-4.625 4.5625s-4.59375-2.0489286-4.59375-4.5625z" opacity=".3"/><path d="m19.96875 5.0625c-2.330301.4186317-.950962 3.7558066-3.170572 4.3571996-2.520962 1.0627854-3.569154-1.5089107-4.016928-3.4196996-1.606753-2.0397174-4.715591-.1186909-6.3250667.9717752-1.6613339 1.5186787-3.9137203 4.1149238-3.0186833 6.5282248.9629828 1.720122 3.9861383.531711 4.1680278 3.104824.5461165 2.448385-1.8750756 2.988813-3.6055278 3.426426-1.7286298 1.20946-.6257423 3.694278-.9375 5.448197.2132272 1.666364-.7688839 4.399024 1.375 5.114303 3.2092002-.457528 4.5988109 4.586798 1.1075236 5.290707-1.6977216-.250075-2.9026717 1.413619-2.4825236 3.001729.1671286 2.302501-.32294 4.719943.21875 6.957564.9665086 1.828296 4.1170733.443917 4.3224197 3.125209.555306 2.451437-1.86917 3.001056-3.6036697 3.437291-1.7286298 1.20946-.6257423 3.694278-.9375 5.448197.2132272 1.666364-.7688839 4.399024 1.375 5.114303 3.2091998-.457528 4.5988113 4.586799 1.1075238 5.290707-1.6977217-.250075-2.9026719 1.413619-2.4825238 3.001729.1671286 2.302501-.32294 4.719943.21875 6.957564.9665088 1.828296 4.1170724.443917 4.3224195 3.125209.5870661 2.543242-2.0477463 2.849547-3.6974195 3.593541-1.8374172 1.790864.3533881 4.639552 1.5458945 6.165104 1.6687135 1.564907 4.5830745 3.673544 6.9228555 2.366146 1.330571-1.191105.352699-3.84968 2.833692-4.042535 2.41031-.563963 3.030256 1.831448 3.478808 3.573785 1.20946 1.72863 3.694278.625742 5.448197.9375 1.68507-.247643 4.380784.795171 5.208053-1.28125-.239447-2.685137 3.289932-4.615455 5.013433-2.117964.437479 1.22199.475583 3.373362 2.299067 3.399214 2.683689-.150175 5.46253.286003 8.09375-.1875 1.79819-.807044.555747-3.626222 2.701822-4.1697 2.328414-.992119 3.80159 1.269431 3.923178 3.26345 1.043785 1.880609 3.577273.816348 5.28915 1.09375 1.734053-.288484 4.300398.803154 5.3671-1.09375.121588-1.994019 1.594764-4.255569 3.923178-3.26345 2.16926.560156.855076 4.076998 3.264322 4.32595 2.706983-.05218 5.515658.249931 8.1875-.125 1.916491-.719801.637248-3.66501 2.823044-4.198058 2.667281-1.143621 3.288381 1.73641 4.176956 3.448058 1.677995 1.68076 4.249866-.341504 5.660505-1.460037 1.387028-1.530094 3.564531-4.096236 2.370745-6.258713-1.089023-1.448009-3.856277-.449706-4.043028-2.917323-.546116-2.448386 1.875075-2.988814 3.605528-3.426427 1.72863-1.20946.625742-3.694278.9375-5.448197-.213227-1.666364.768884-4.399024-1.375-5.114303-3.209199.457525-4.59881-4.586796-1.107522-5.290707 1.697721.250074 2.90267-1.41362 2.482522-3.001729-.167129-2.302501.32294-4.719943-.21875-6.957564-.966509-1.828295-4.117072-.443918-4.322419-3.12521-.555305-2.451433 1.86917-3.001055 3.603669-3.43729 1.72863-1.20946.625742-3.694278.9375-5.448197-.213227-1.666364.768884-4.399024-1.375-5.114303-3.209199.457525-4.59881-4.586797-1.107522-5.290707 1.697721.250074 2.90267-1.41362 2.482522-3.001729-.167129-2.302501.32294-4.719943-.21875-6.957564-.966509-1.828295-4.117072-.443918-4.322419-3.12521-.587068-2.543243 2.047746-2.849545 3.697419-3.59354 1.737831-1.630423-.158963-4.2635047-1.193111-5.7540643-1.452454-1.4849732-3.892871-3.7555878-6.119389-2.6834357-1.501261 1.0129772-.60947 3.7622126-2.97612 3.9497195-2.306354.5197145-3.156789-1.7030559-3.43013-3.4809695-1.158349-1.8527621-3.7343-.7198417-5.510697-1.03125-1.67606.2424496-4.356707-.786599-5.176803 1.28125.239447 2.6851372-3.289932 4.615455-5.013433 2.117964-.437479-1.2219899-.475583-3.3733618-2.299067-3.399214-2.683689.1501745-5.46253-.2860035-8.09375.1875-1.794229.8171709-.569955 3.6269237-2.729288 4.166811-2.400317 1.029573-3.69224-1.3518578-3.926962-3.323061-1.158349-1.8527621-3.7343-.7198417-5.510697-1.03125-1.67606.2424496-4.356707-.786599-5.176803 1.28125.179641 2.4256801-2.737503 4.471267-4.703415 2.5150323-.995678-1.0581303-.412905-3.4730734-2.327835-3.7650323-2.634651-.074775-5.294204-.00939-7.9375-.03125z" opacity=".1"/></g></g><path d="m12 6c-3.1576964 0-5.7192022 2.4087223-5.96875 5.5 2.4694037.017094 4.46875 2.026594 4.46875 4.5 0 2.484001-2.016 4.5-4.5 4.5v7c2.484 0 4.5 2.016 4.5 4.5 0 2.484001-2.016 4.5-4.5 4.5v7c2.484 0 4.5 2.016 4.5 4.5 0 2.484001-2.016 4.5-4.5 4.5v7c2.484 0 4.5 2.016 4.5 4.5 0 2.484001-2.016 4.5-4.5 4.5v7c2.484-.000004 4.5 2.016 4.5 4.5 0 2.473403-1.9993463 4.482906-4.46875 4.5.2495478 3.091278 2.8110536 5.5 5.96875 5.5 0-2.484 2.016-4.5 4.5-4.5 2.484001 0 4.5 2.016 4.5 4.5h7c0-2.484 2.016-4.5 4.5-4.5 2.484001 0 4.5 2.016 4.5 4.5h7c0-2.484 2.016-4.5 4.5-4.5 2.484001 0 4.5 2.016 4.5 4.5h7c0-2.484 2.016-4.5 4.5-4.5 2.484001 0 4.5 2.016 4.5 4.5h7c-.000004-2.484 2.016-4.5 4.5-4.5 2.452216 0 4.449324 1.966103 4.5 4.40625 2.688537-.445117 4.746004-2.646977 4.96875-5.40625-2.469404-.017097-4.46875-2.026594-4.46875-4.5 0-2.484004 2.016-4.5 4.5-4.5v-7c-2.484.000001-4.5-2.016-4.5-4.5s2.016-4.5 4.5-4.5v-7c-2.484.000001-4.5-2.016-4.5-4.5s2.016-4.5 4.5-4.5v-7c-2.484.000001-4.5-2.016-4.5-4.5s2.016-4.5 4.5-4.5v-7c-2.484.000001-4.5-2.016-4.5-4.5 0-2.473406 1.999346-4.482906 4.46875-4.5-.222746-2.7592732-2.280213-4.961133-4.96875-5.40625-.050679 2.4401476-2.047781 4.40625-4.5 4.40625-2.484004 0-4.5-2.0159999-4.5-4.5h-7c.000001 2.4840004-2.016 4.5-4.5 4.5s-4.5-2.0159999-4.5-4.5h-7c.000001 2.4840004-2.016 4.5-4.5 4.5s-4.5-2.0159999-4.5-4.5h-7c.000001 2.4840004-2.016 4.5-4.5 4.5s-4.5-2.0159999-4.5-4.5h-7c.000001 2.4840004-2.016 4.5-4.5 4.5s-4.5-2.0159999-4.5-4.5z" fill="url(#f)"/><path d="m12 6c-3.1576964 0-5.7192022 2.4087223-5.96875 5.5.3875592.0027.7665092.06132 1.125.15625.5060887-1.9479437 2.0912519-3.3647543 4.125-3.65625.513582 2.458142 2.613584 4.375 5.21875 4.375 2.650061 0 4.786743-1.978914 5.25-4.5h5.5c.463258 2.521086 2.599939 4.5 5.25 4.5s4.786743-1.978914 5.25-4.5h5.5c.463258 2.521086 2.599939 4.5 5.25 4.5s4.786743-1.978914 5.25-4.5h5.5c.463258 2.521086 2.599939 4.5 5.25 4.5s4.786743-1.978914 5.25-4.5h5.5c.463258 2.521085 2.599936 4.5 5.25 4.5 2.533754 0 4.599245-1.797591 5.1875-4.15625 1.565145.5523941 2.734682 1.812675 3.15625 3.4375.358491-.09493.737441-.153567 1.125-.15625-.222746-2.7592732-2.280213-4.961133-4.96875-5.40625-.050679 2.4401476-2.047781 4.40625-4.5 4.40625-2.484004 0-4.5-2.0159999-4.5-4.5h-7c.000001 2.4840004-2.016 4.5-4.5 4.5s-4.5-2.0159999-4.5-4.5h-7c.000001 2.4840004-2.016 4.5-4.5 4.5s-4.5-2.0159999-4.5-4.5h-7c.000001 2.4840004-2.016 4.5-4.5 4.5s-4.5-2.0159999-4.5-4.5h-7c.000001 2.4840004-2.016 4.5-4.5 4.5s-4.5-2.0159999-4.5-4.5zm-3.96875 6c1.4652302.742423 2.46875 2.246206 2.46875 4 0 2.484001-2.016 4.5-4.5 4.5v7c.3210719 0 .6354089.02973.9375.09375v-5.40625c2.5210853-.463258 4.5-2.599938 4.5-5.25 0-2.251307-1.432067-4.133632-3.40625-4.9375zm79.9375 0c-1.974183.803868-3.40625 2.686193-3.40625 4.9375 0 2.650061 1.978914 4.786743 4.5 5.25v5.40625c.302091-.06402.616428-.09375.9375-.09375v-7c-2.484.000001-4.5-2.016-4.5-4.5 0-1.753794 1.00352-3.257577 2.46875-4zm-79.78125 16.09375c1.3691917.771924 2.3125 2.223437 2.3125 3.90625 0 2.484001-2.016 4.5-4.5 4.5v7c.3210719 0 .6354089.02973.9375.09375v-5.40625c2.5210853-.463258 4.5-2.599938 4.5-5.25 0-2.189151-1.359088-4.009194-3.25-4.84375zm79.625 0c-1.890912.834556-3.25 2.654599-3.25 4.84375 0 2.650061 1.978914 4.786743 4.5 5.25v5.40625c.302091-.06402.616428-.09375.9375-.09375v-7c-2.484.000001-4.5-2.016-4.5-4.5 0-1.682813.943308-3.134326 2.3125-3.90625zm-79.625 16c1.3691917.771924 2.3125 2.223437 2.3125 3.90625 0 2.484001-2.016 4.5-4.5 4.5v7c.3210719 0 .6354089.02973.9375.09375v-5.40625c2.5210853-.463258 4.5-2.599938 4.5-5.25 0-2.189151-1.359088-4.009194-3.25-4.84375zm79.625 0c-1.890912.834556-3.25 2.654599-3.25 4.84375 0 2.650061 1.978914 4.786743 4.5 5.25v5.40625c.302091-.06402.616428-.09375.9375-.09375v-7c-2.484.000001-4.5-2.016-4.5-4.5 0-1.682813.943308-3.134326 2.3125-3.90625zm-79.625 16c1.3691917.771924 2.3125 2.223437 2.3125 3.90625 0 2.484001-2.016 4.5-4.5 4.5v7c.3210719-.000001.6354089.02973.9375.09375v-5.40625c2.5210853-.463258 4.5-2.599938 4.5-5.25 0-2.189151-1.359088-4.009194-3.25-4.84375zm79.625 0c-1.890912.834556-3.25 2.654599-3.25 4.84375 0 2.650061 1.978914 4.786743 4.5 5.25v5.40625c.302091-.06402.616428-.09375.9375-.09375v-7c-2.484.000001-4.5-2.016-4.5-4.5 0-1.682813.943308-3.134326 2.3125-3.90625zm-79.625 16c1.3691917.771924 2.3125 2.223437 2.3125 3.90625 0 2.473403-1.9993463 4.482906-4.46875 4.5.2495478 3.091278 2.8110536 5.5 5.96875 5.5 0-2.162928 1.527437-3.974973 3.5625-4.40625-2.154233.400506-3.831866 2.130376-4.28125 4.28125-2.0541834-.294425-3.6354873-1.740587-4.125-3.71875 2.4131399-.548077 4.28125-2.64583 4.28125-5.21875 0-2.189151-1.359087-4.009195-3.25-4.84375zm79.625 0c-1.890912.834555-3.25 2.654597-3.25 4.84375 0 2.572922 1.868111 4.670672 4.28125 5.21875-.408658 1.653304-1.572152 2.940917-3.15625 3.5-.514722-2.063828-2.149193-3.686183-4.25-4.0625 2.010646.421213 3.518381 2.188088 3.5625 4.3125 2.688537-.445117 4.746004-2.646977 4.96875-5.40625-2.469404-.017097-4.46875-2.026594-4.46875-4.5 0-1.682816.943308-3.134327 2.3125-3.90625zm-70.34375 9.5c2.020164.442538 3.53125 2.253894 3.53125 4.40625h.75c-.405351-2.205949-2.090608-3.993005-4.28125-4.40625zm14.0625 0c-2.190642.413245-3.875899 2.200301-4.28125 4.40625h.75c0-2.152356 1.511086-3.963712 3.53125-4.40625zm1.9375 0c2.020164.442538 3.53125 2.253894 3.53125 4.40625h.75c-.405351-2.205949-2.090608-3.993005-4.28125-4.40625zm14.0625 0c-2.190642.413245-3.875899 2.200301-4.28125 4.40625h.75c0-2.152356 1.511086-3.963712 3.53125-4.40625zm1.9375 0c2.020164.442538 3.53125 2.253894 3.53125 4.40625h.75c-.405351-2.205949-2.090608-3.993005-4.28125-4.40625zm14.0625 0c-2.190642.413245-3.875899 2.200301-4.28125 4.40625h.75c0-2.152356 1.511086-3.963712 3.53125-4.40625zm1.9375 0c2.020164.442538 3.53125 2.253894 3.53125 4.40625h.75c-.405351-2.205949-2.090608-3.993005-4.28125-4.40625zm14.0625 0c-2.190642.413244-3.875901 2.200299-4.28125 4.40625h.75c-.000003-2.152356 1.511085-3.963712 3.53125-4.40625z" fill="url(#g)" opacity=".8"/><path d="m6.53125 9.5625c-.2660426.601761-.4444143 1.248931-.5 1.9375 2.126085.01472 3.8905568 1.506965 4.34375 3.5.07377-.323096.125-.654652.125-1 0-2.30245-1.7373139-4.1720004-3.96875-4.4375zm82.9375 0c-2.231436.2654996-3.96875 2.13505-3.96875 4.4375 0 .345348.05123.676904.125 1 .453193-1.993035 2.217665-3.485283 4.34375-3.5-.05569-.689818-.23378-1.336098-.5-1.9375zm-83.46875 15.9375v2c2.138652 0 3.9181313 1.499149 4.375 3.5.07377-.323096.125-.654652.125-1 0-2.484-2.016-4.5-4.5-4.5zm84 0c-2.484 0-4.5 2.016-4.5 4.5 0 .345348.05123.676904.125 1 .456869-2.000851 2.236348-3.5 4.375-3.5zm-84 16v2c2.138652 0 3.9181313 1.499149 4.375 3.5.07377-.323096.125-.654652.125-1 0-2.484-2.016-4.5-4.5-4.5zm84 0c-2.484 0-4.5 2.016-4.5 4.5 0 .345348.05123.676904.125 1 .456869-2.000851 2.236348-3.5 4.375-3.5zm-84 16v2c2.138652 0 3.9181313 1.499149 4.375 3.5.07377-.323096.125-.654652.125-1 0-2.484-2.016-4.5-4.5-4.5zm84 0c-2.484 0-4.5 2.016-4.5 4.5 0 .345348.05123.676904.125 1 .456869-2.000851 2.236348-3.5 4.375-3.5zm-84 16v2c2.138652-.000003 3.9181313 1.499148 4.375 3.5.07318-.321834.125-.656125.125-1 0-2.484-2.016-4.500004-4.5-4.5zm84 0c-2.484 0-4.5 2.015996-4.5 4.5 0 .343875.05182.678166.125 1 .456869-2.000853 2.236348-3.5 4.375-3.5zm-73.5 10c-2.484 0-4.5 2.016-4.5 4.5-2.4543325 0-4.5404155-1.462701-5.46875-3.5625-.1656833.019713-.3293206.061319-.5.0625.2495478 3.091278 2.8110536 5.5 5.96875 5.5 0-2.484 2.016-4.5 4.5-4.5 2.484001 0 4.5 2.016 4.5 4.5h7c0-2.484 2.016-4.5 4.5-4.5 2.484001 0 4.5 2.016 4.5 4.5h7c0-2.484 2.016-4.5 4.5-4.5 2.484001 0 4.5 2.016 4.5 4.5h7c0-2.484 2.016-4.5 4.5-4.5 2.484001 0 4.5 2.016 4.5 4.5h7c-.000004-2.484 2.016-4.5 4.5-4.5 2.452216 0 4.449324 1.966103 4.5 4.40625 2.688537-.445117 4.746004-2.646977 4.96875-5.40625-.170679-.0012-.334317-.04279-.5-.0625-.798659 1.804206-2.452347 3.134912-4.46875 3.46875-.050676-2.440147-2.047784-4.40625-4.5-4.40625-2.484 0-4.500004 2.016-4.5 4.5h-7c0-2.484-2.015999-4.5-4.5-4.5-2.484 0-4.5 2.016-4.5 4.5h-7c0-2.484-2.015999-4.5-4.5-4.5-2.484 0-4.5 2.016-4.5 4.5h-7c0-2.484-2.015999-4.5-4.5-4.5-2.484 0-4.5 2.016-4.5 4.5h-7c0-2.484-2.015999-4.5-4.5-4.5z" fill="url(#h)" opacity=".3"/><g><path d="m16.00013 16.000145h63.999855v63.999855h-63.999855z" fill="url(#l)"/><g clip-path="url(#r)" opacity=".8" transform="translate(0 -10)"><path d="m63.175794 37.576905c1.369476-.397707 2.807779.367992 3.205487 1.737469.262772.904832.01648 1.836087-.581625 2.479326.586553.478664 1.089738 1.056139 1.505518 1.710498.675277-.471862 1.39641-.882052 2.192631-1.189959-.06956-.139988-.145615-.277311-.190748-.432721-.408457-1.406491.403578-2.883197 1.810068-3.291654 1.030523-.299273 2.089976.06539 2.74654.829435.716458-1.339395 1.929589-2.411629 3.485864-2.899711-.365462-1.258437.359975-2.577663 1.618413-2.943125 1.184938-.344117 2.406347.292537 2.852109 1.417058.324269-.235887.702109-.431687 1.109389-.549965 1.887657-.548192 3.866495.539963 4.414688 2.42762.01796.06184.0078.126802.02228.188776.561904-.244831 1.133537-.459353 1.735737-.634238 1.602475-.465372 3.198285-.632208 4.779415-.574459.79208-1.35483 2.08729-2.428468 3.71337-2.900697 3.36817-.978147 6.88309.954696 7.86124 4.322868.14672.505224.22646 1.01969.24699 1.522786 2.14913-.330399 4.24991.963796 4.87265 3.108152.12227.421021.17183.835673.16855 1.252696.2622.121854.51679.249167.76579.395888.63234-.964536 1.59387-1.731977 2.81117-2.085493 2.62791-.76317 5.33539.66766 6.06631 3.184536s-.78897 5.175372-3.41689 5.938542c-.39479.114651-.79196.161401-1.18396.181128.12908 3.889379-2.36252 7.519728-6.27254 8.655233-1.22894.356896-2.47953.422032-3.66904.251997-1.92 2.790095-4.74823 4.958448-8.25444 5.976689-4.73744 1.37579-9.602786.33061-13.287237-2.389162-.585007.617655-1.333104 1.103049-2.209076 1.35744-2.331035.676952-4.754739-.41753-5.805842-2.511733-.02951.0088-.06039.01754-.09003.02614-3.469958 1.007707-7.019558.122007-9.602656-2.027384-.854661 1.601925-2.336349 2.85875-4.217701 3.405112-3.396856.986478-6.953971-.707802-8.344283-3.857177-.398342.22718-.808409.430016-1.268154.56353-3.146095.913654-6.444159-.899938-7.357814-4.046033-.913654-3.146096.899938-6.44416 4.046034-7.357814.328869-.09551.658222-.151626.986469-.188857.336169-.608133.871585-1.066644 1.552717-1.26445.704334-.204545 1.442393-.08217 2.065929.278645-.128873-3.224369 1.928678-6.254798 5.167095-7.195264.70473-.20466 1.409116-.264071 2.106545-.253808-.06387-1.172217.667285-2.276416 1.843037-2.617865z" fill="url(#m)"/><path d="m20.5 50.3125c-.950448 0-1.828481.305591-2.53125.8125-.580044-.08942-1.176174-.15625-1.78125-.15625-2.643739 0-5.050411.91554-7 2.40625-.225196-.03559-.451673-.0625-.6875-.0625-2.312525 0-4.1875 1.771853-4.1875 3.96875 0 .823837.267268 1.583883.71875 2.21875-.267997.977691-.40625 1.999741-.40625 3.0625 0 1.073475.133008 2.107256.40625 3.09375-.619923-.27902-1.307329-.4375-2.03125-.4375-2.736488 0-4.9375 2.201013-4.9375 4.9375 0 2.736488 2.201012 4.96875 4.9375 4.96875.36612 0 .719001-.04965 1.0625-.125-.000643.04129 0 .08355 0 .125 0 4.316713 3.495787 7.8125 7.8125 7.8125 2.785961 0 5.209665-1.462067 6.59375-3.65625 2.041092 1.840971 4.753634 2.96875 7.71875 2.96875 4.014997 0 7.532983-2.07204 9.59375-5.1875 1.294164.971148 2.882433 1.5625 4.625 1.5625 2.724975 0 5.119177-1.435314 6.5-3.5625.693167.556164 1.542148.90625 2.5.90625 1.309291 0 2.478909-.629504 3.21875-1.59375.322673.203233.71549.34375 1.125.34375 1.156262 0 2.09375-.937488 2.09375-2.09375s-.937488-2.09375-2.09375-2.09375c-.180666 0-.364014.01947-.53125.0625-.507331-1.456041-1.819792-2.526386-3.40625-2.6875-.08623-1.348065-1.192663-2.40625-2.5625-2.40625-.381196 0-.736814.07047-1.0625.21875-1.418341-1.583489-3.488111-2.59375-5.78125-2.59375-1.024452 0-1.979942.201263-2.875.5625-.224258-2.373424-2.22414-4.25-4.65625-4.25-.280177 0-.545883.04651-.8125.09375.03207-.217664.0625-.429674.0625-.65625 0-2.505235-2.057265-4.53125-4.5625-4.53125-.939463 0-1.807279.260895-2.53125.75-.124657-.147579-.243234-.296374-.375-.4375.01212-.123274.03125-.248717.03125-.375 0-2.196897-1.874975-3.96875-4.1875-3.96875z" fill="url(#n)"/><path d="m94.09 34.889421c-1.79508 0-3.28711 1.334802-3.53125 3.0625-.99024.397809-1.89622.908493-2.71875 1.5625-.48316-.508483-1.14945-.84375-1.90625-.84375-1.4646 0-2.65625 1.191651-2.65625 2.65625 0 .01073-.00013.02055 0 .03125-1.03573.06809-2.02712.266793-2.96875.59375-.550274-.637053-1.373388-1.03125-2.281252-1.03125-1.636798 0-2.967312 1.308529-3 2.9375-.04347-.0022-.08097-.03125-.125-.03125-1.203669 0-2.223302.869855-2.46875 2-2.45358.166046-4.562623 1.519821-5.78125 3.5-.4926-.208352-1.025254-.3125-1.59375-.3125-2.273983 0-4.125 1.851017-4.125 4.125s1.851017 4.09375 4.125 4.09375c.534254 0 1.0316-.09607 1.5-.28125 1.286055 2.183281 3.657764 3.625 6.375 3.625.877767 0 1.718823-.156911 2.5-.4375 2.085815 2.410336 5.156042 3.9375 8.593752 3.9375 3.57421 0 6.75837-1.640646 8.84375-4.21875 1.21505 1.383268 2.98292 2.28125 4.96875 2.28125 1.54469 0 2.96664-.551752 4.09375-1.4375 1.05752.549176 2.2573.875 3.53125.875 1.54894 0 2.98131-.460945 4.1875-1.25.49805.257126 1.05711.40625 1.65625.40625 1.74332 0 3.21295-1.235953 3.5625-2.875.23611 1.540136 1.55007 2.71875 3.15625 2.71875 1.77293 0 3.21875-1.414564 3.21875-3.1875 0-1.615065-1.19735-2.962289-2.75-3.1875.0458-.258658.0937-.540686.0937-.8125 0-2.505235-2.02602-4.53125-4.53125-4.53125-.84008 0-1.63779.258215-2.3125.65625-.22398-.319863-.44981-.655928-.71875-.9375.10594-.250475.15625-.523434.15625-.8125 0-1.156262-.93749-2.09375-2.09375-2.09375-.0932 0-.1913.01945-.28125.03125-.0172-1.796731-1.48046-3.25-3.28125-3.25-.47744 0-.93457.09784-1.34375.28125-1.42514-2.522984-3.82747-4.414808-6.6875-5.1875-.40134-1.525904-1.75435-2.65625-3.40625-2.65625z" fill="url(#o)"/><path d="m10.66061 61.762622c3.026368.307343 5.375 2.892545 5.375 5.999999 0 .502248-.07128.971235-.1875 1.4375 1.355555-.829233 2.950813-1.3125 4.65625-1.3125.697126 0 1.380076.09893 2.03125.25.475056-1.362518 1.756773-2.34375 3.28125-2.34375 1.927104 0 3.46875 1.572896 3.46875 3.5 0 .923053-.352247 1.75095-.9375 2.375.196494-.02238.391268 0 .59375 0 2.890656 0 5.25 2.328094 5.25 5.21875s-2.359344 5.25-5.25 5.25c-.403981 0-.778551-.06962-1.15625-.15625-1.011736 1.427012-2.435578 2.519337-4.09375 3.15625.0042.11543.03125.227305.03125.34375 0 5.241723-4.258277 9.46875-9.5 9.46875-1.530417 0-2.969848-.356599-4.25-1-2.624598 1.783448-5.806379 2.84375-9.21875 2.84375-6.838671 0-12.693371-4.205133-15.156251-10.15625-4.78516-.596606-8.5-4.646976-8.5-9.59375 0-5.357349 4.33015-9.71875 9.6875-9.71875 1.15953 0 2.28176.220606 3.3125.59375.85422-.731187 1.78936-1.393203 2.78125-1.9375-.0827-.233328-.15625-.488331-.15625-.75 0-1.233347 1.01665-2.21875 2.25-2.21875.94828 0 1.76987.572443 2.09375 1.40625 1.05684-.242785 2.15727-.406213 3.281251-.4375.31043-1.285581 1.462817-2.21875 2.84375-2.21875 1.174447 0 2.188572.690101 2.65625 1.6875 1.078785-1.054211 2.554466-1.6875 4.1875-1.6875.207164 0 .423242-.02049.625 0z" fill="url(#p)" opacity=".8"/><path d="m7.65625 74.65625c3.500466 0 6.464046 2.18625 7.625 5.28125 2.922683.05208 5.28125 2.439881 5.28125 5.375 0 2.96774-2.40726 5.375-5.375 5.375-1.175339 0-2.240467-.391098-3.125-1.03125-1.273613.821117-2.778216 1.3125-4.40625 1.3125-.412169 0-.822986-.03481-1.21875-.09375-.460796.558357-1.157023.9375-1.9375.9375-1.110012 0-2.04265-.720393-2.375-1.71875-.573002.172103-1.183445.28125-1.8125.28125-3.468787 0-6.28125-2.812463-6.28125-6.28125 0-2.905109 1.97757-5.344769 4.65625-6.0625-.02473-.153233-.0625-.308535-.0625-.46875 0-1.618767 1.318733-2.90625 2.9375-2.90625.866194 0 1.650919.371372 2.1875.96875 1.15693-.628482 2.497055-.96875 3.90625-.96875z" fill="url(#q)" opacity=".8"/></g><path d="m48.375 24.75c-7.722632-.07249-15.798159 3.431059-19.9375 10.34375-.0077.01286-.02358.01837-.03125.03125-3.934353 6.271442-4.360339 14.018477-2.90625 20.9375 1.571787 7.59217 7.58745 13.87199 15.03125 15.9375 5.657787 1.644729 11.80564 1.668064 17.46875.03125a1.2345937 1.2345937 0 0 0 .09375-.03125c.971341-.36554 1.604725-1.20613 1.84375-2.03125.232818-.803692.17039-1.613589-.03125-2.34375-.0036-.01513.0033-.04693 0-.0625-.189798-.885787.03727-2.460077-.9375-4 1.284702-.08728 2.562872-.256076 3.6875-.65625a1.2345937 1.2345937 0 0 0 .03125 0c5.158568-1.938033 7.577808-7.313797 8.28125-12.125 1.049233-6.695966-.678114-13.925553-5.4375-19-4.395009-4.749973-10.876876-7.036512-17.15625-7.03125zm11.71875 18.96875c.488199 2.062081.493011 4.218741.03125 6.3125.002-2.097501-.02961-4.207712-.03125-6.3125zm-10.84375.96875c-.03425.250784-.07725.493659-.03125.9375h-.03125c-.01872 2.561315.03874 5.21396 0 7.65625-1.549695.136664-3.013326-.848353-3.1875-2.5a1.2345937 1.2345937 0 0 0 0-.09375c-.21501-1.117491-.2469-2.457475.03125-3.53125.27392-1.057445.775705-1.803361 1.6875-2.25.422025-.156004.956395-.203464 1.53125-.21875z" fill="#072045" opacity=".05"/><path d="m48.375 26c-7.355239-.06904-15.050256 3.266387-18.908916 9.745309-3.729393 5.919145-4.146095 13.374563-2.737428 20.077453 1.471165 7.106136 7.155433 13.061583 14.137987 14.999106 5.42977 1.578444 11.352669 1.606579 16.782812.0371 1.180258-.444161 1.386486-1.874756 1.072527-2.960534-.298722-1.246297-.077113-2.685253-.815732-3.773434-.784371-1.004294-2.141556-.737699-3.180613-.37364-5.640137 1.166845-12.294691.788253-16.617083-3.457003-4.185666-4.552093-4.698083-11.455914-3.102143-17.194733 1.236589-4.210835 4.639841-7.706833 8.918767-8.819031 4.649419-1.325656 10.143475-.638128 13.793572 2.719407-4.122861-1.381358-8.70672-1.86909-12.944827-.731895-5.096147 1.38482-8.594995 6.498258-8.745106 11.685821-.274094 3.805472.764944 7.775608 3.35483 10.638325 2.248486 2.640779 5.860791 3.58315 9.210103 3.657749 1.915426.158133 3.974917-.708079 5.598735-.950628 2.310134 1.618821 5.503232 1.347145 8.05261.440006 4.558662-1.712653 6.837348-6.594667 7.500693-11.131627.995669-6.354132-.646746-13.225352-5.105415-17.979175-4.11487-4.447208-10.287203-6.633586-16.265373-6.628576zm10.34375 12.0625c3.442665 3.910092 3.848248 9.767184 2.038572 14.490258-.317872 1.478699-2.302463 2.792808-1.882322.529439-.0212-4.859665.042161-9.727702-.03125-14.582197-.02821-.149649-.05573-.300079-.125-.4375zm-9.25 5.34375c1.54671-.410264.793986 1.34869.96875 2.226781-.02098 2.871364.04182 5.963628-.03125 8.679469-2.530324.917962-5.337188-.667842-5.624349-3.390912-.486134-2.526625-.202935-5.92816 2.426935-7.170231.717187-.282223 1.496684-.342151 2.259914-.345107z" fill="#072045" opacity=".1"/><path d="m16.4375 16c-.03654.0073-.06024.01707-.09375.03125-.07367.02998-.134622.06872-.1875.125-.09518.101305-.159464.22767-.15625.375v62.90625.03125c.0019.05425.01433.10669.03125.15625.01558.04455.03654.08657.0625.125.01089.01749.01848.04637.03125.0625.0088.01017.02176.02176.03125.03125.05288.05628.113827.09502.1875.125.02947.01199.06172.02443.09375.03125.03461.0069.05711-.000004.09375 0h16.0625 3.8125 1.65625 27.96875 13.4375c.07531-.000007.122246-.0036.1875-.03125.195763-.08281.343729-.274073.34375-.5.000591-.0104-.000001-.02071 0-.03125v-62.90625c-.000007-.07531-.0036-.122246-.03125-.1875-.08281-.195763-.274074-.343727-.5-.34375h-13.4375-27.96875-1.65625-3.8125-16.0625c-.03777-.004-.05597-.004-.09375 0zm.65625 1.09375h14.6875 4.15625 1.125 30.75 11.09375v61.8125h-11.09375-30.75-1.125-4.15625-14.6875z" fill="#3365a8" opacity=".6"/><path d="m48.375 27c-2.83857.000035-5.544671.459396-8.125 1.375-2.559111.920241-4.857662 2.27805-6.84375 4.125-1.968278 1.828054-3.534621 4.162882-4.6875 6.90625-1.168067 2.779532-1.718753 5.980455-1.71875 9.59375-.000003 3.739495.551233 7.000007 1.71875 9.8125a1.0055049 1.0055049 0 0 0 0 .03125c1.188802 2.748053 2.834142 5.047121 4.875 6.84375 2.027318 1.819045 4.370701 3.149152 7.0625 4 2.671708.878276 5.50454 1.312493 8.5 1.3125 1.705538-.000007 3.321749-.106872 4.8125-.34375 1.483277-.230476 2.508179-.437024 3.21875-.6875a1.0055049 1.0055049 0 0 0 .65625-1.0625l-.5-3.625a1.0055049 1.0055049 0 0 0 -1.34375-.8125c-.21848.07935-1.043078.278013-2.28125.5-1.14438.210553-2.68448.343746-4.5625.34375-2.369084-.000004-4.503796-.35716-6.46875-1.0625-1.925464-.671601-3.606395-1.667629-5.03125-3-1.386323-1.354601-2.448988-3.031494-3.25-5.0625-.792594-2.040058-1.218757-4.431191-1.21875-7.1875-.000007-2.628537.38996-4.949738 1.125-6.96875.772583-2.037257 1.80267-3.680421 3.125-5.03125a1.0055049 1.0055049 0 0 0 0-.03125c1.329591-1.388399 2.922878-2.425913 4.78125-3.15625 1.854351-.759076 3.89706-1.15622 6.15625-1.15625 2.267617.00003 4.288177.373355 6.03125 1.09375 1.803266.73272 3.298415 1.707369 4.53125 2.96875 1.23706 1.265821 2.173258 2.764133 2.84375 4.46875.66861 1.669694 1.031213 3.45251 1.03125 5.375-.000037 1.170638-.124439 2.341422-.3125 3.5-.184697 1.106689-.433553 2.061818-.8125 2.90625a1.0055049 1.0055049 0 0 0 -.03125.03125c-.344658.831883-.796359 1.473492-1.3125 1.9375a1.0055049 1.0055049 0 0 0 0 .03125c-.453785.429384-.884659.593754-1.5.59375-.317497.000003-.475503-.09911-.65625-.3125-.09411-.111084-.312529-.603709-.3125-1.53125v-14.90625a1.0055049 1.0055049 0 0 0 -.65625-.9375c-.831842-.288963-1.948315-.578598-3.375-.84375-1.445678-.275016-3.013717-.374974-4.71875-.375-1.866918.000027-3.584815.293536-5.125.9375a1.0055049 1.0055049 0 0 0 -.03125 0c-1.486891.636517-2.744206 1.549314-3.8125 2.6875-1.03744 1.107708-1.843528 2.41569-2.375 3.9375-.530069 1.482449-.781264 3.060314-.78125 4.71875-.000014 1.945982.272644 3.685735.84375 5.21875.561547 1.507454 1.357222 2.822333 2.40625 3.90625a1.0055049 1.0055049 0 0 0 0 .03125c1.036922 1.035742 2.25725 1.83756 3.65625 2.375a1.0055049 1.0055049 0 0 0 .03125 0c1.432772.536677 2.995844.781252 4.65625.78125 1.08466.000002 2.184662-.123593 3.28125-.40625a1.0055049 1.0055049 0 0 0 .03125 0c.838356-.243116 1.498442-.558264 2.15625-.875.449861.358531.895385.736698 1.4375.96875.85627.366566 1.865826.500002 3 .5 1.450372.000002 2.824304-.319172 4.125-.96875 1.307621-.653068 2.472436-1.619455 3.40625-2.875.930317-1.286694 1.64333-2.849082 2.15625-4.625.556393-1.806314.812455-3.837005.8125-6.125-.000045-3.043055-.550334-5.798971-1.65625-8.25-1.09341-2.457197-2.576092-4.562581-4.46875-6.28125-1.889941-1.750391-4.100274-3.050396-6.59375-3.9375-2.489633-.919708-5.130161-1.374965-7.90625-1.375zm1.09375 15.40625c.654661.000019 1.216501.03476 1.71875.09375.142253.01672.132776.01387.25.03125v10.625c-.000034.441405.02978.856831.0625 1.28125.01352.175668.071.355525.09375.53125-.319575.12761-.618286.254951-1 .34375-.613195.116664-1.248608.187506-1.875.1875-1.649185.000005-2.756648-.50768-3.6875-1.65625-.926935-1.143682-1.437517-2.759985-1.4375-4.90625-.000017-2.007142.488686-3.550602 1.46875-4.78125.926117-1.162916 2.299253-1.749981 4.40625-1.75z" fill="#072045" opacity=".15"/><path d="m58.45387 60.485207c-1.040079.000002-1.901367-.146255-2.583866-.43877-.682561-.29251-1.251336-.682527-1.706326-1.170053-.715061.390021-1.576349.731286-2.583866 1.023796-1.007571.260014-2.015115.39002-3.022635.390018-1.560093.000002-2.990155-.243759-4.290193-.731283-1.267575-.487518-2.372623-1.20255-3.315148-2.145096-.942558-.975038-1.67384-2.16134-2.193849-3.55891-.520037-1.397552-.780048-3.022623-.780035-4.875218-.000013-1.560055.243748-3.022619.731283-4.387697.487507-1.397543 1.202539-2.600096 2.145096-3.607662.975027-1.040024 2.145078-1.852559 3.510158-2.437609 1.397541-.585002 2.97386-.877514 4.728962-.877539 1.657548.000025 3.168864.13003 4.533953.390017 1.397532.260036 2.470079.520047 3.217644.780035v14.918169c-.000032 1.040054.178726 1.771336.536274 2.193848.357483.422525.828754.633785 1.413814.633779.845002.000006 1.576285-.292507 2.193848-.87754.649992-.585018 1.170015-1.348802 1.56007-2.291352.422481-.942532.731244-1.998829.926291-3.168892.19497-1.202541.292474-2.421344.292513-3.656414-.000039-2.047574-.357554-3.965158-1.072548-5.752758-.715069-1.820058-1.738864-3.412628-3.071387-4.777714-1.332594-1.365034-2.957665-2.437581-4.875219-3.217645-1.885113-.780004-4.013956-1.170021-6.386536-1.170052-2.372628.000031-4.550223.406299-6.532793 1.218804-1.982604.780064-3.688929 1.917614-5.11898 3.412653-1.430074 1.462591-2.551373 3.26642-3.3639 5.411493-.780043 2.145115-1.17006 4.582722-1.170053 7.312828-.000007 2.860139.422511 5.378999 1.267557 7.556589.845028 2.1451 2.01508 3.948929 3.510157 5.411492 1.527555 1.430064 3.315133 2.502611 5.362741 3.217645 2.080073.74753 4.355173 1.121296 6.825306 1.1213 1.917559-.000004 3.493878-.113759 4.728962-.341265 1.267526-.227514 2.080062-.406272 2.437609-.536274l.487522 3.607661c-.552556.195002-1.560101.406262-3.022636.633779-1.430091.227503-2.973909.341258-4.631457.341265-2.892651-.000007-5.622771-.422526-8.190367-1.267557-2.567629-.812542-4.810228-2.080097-6.727802-3.80267-1.917594-1.690077-3.445161-3.851422-4.582706-6.484041-1.105053-2.665113-1.657577-5.817751-1.657574-9.457924-.000003-3.51014.552521-6.581525 1.657574-9.214163 1.105044-2.632593 2.583859-4.810188 4.436449-6.532793 1.885074-1.755048 4.046418-3.071355 6.484041-3.948927 2.470092-.877505 5.070206-1.316275 7.80035-1.316309 2.665093.000034 5.183953.438804 7.556589 1.316309 2.372572.84507 4.452664 2.096375 6.240279 3.753918 1.787541 1.625101 3.201353 3.607688 4.241441 5.947767 1.040003 2.307625 1.560026 4.923989 1.560069 7.849102-.000043 2.210112-.260054 4.160198-.780035 5.850262-.487563 1.690084-1.153843 3.120147-1.998839 4.290192-.845078 1.137556-1.852622 1.998844-3.022636 2.583866-1.170088.585029-2.405143.877542-3.705166.87754m-9.750437-3.948927c.682506.000006 1.365036-.065 2.047592-.195009.715005-.162501 1.348783-.390011 1.901335-.682531-.09753-.422511-.162535-.84503-.195009-1.267557-.03253-.42251-.04878-.828778-.04875-1.218804v-11.456764c-.195036-.06498-.568802-.129985-1.1213-.195009-.552551-.06498-1.170078-.09748-1.852583-.0975-2.307626.000021-4.030202.715052-5.167732 2.145096-1.137569 1.430082-1.706344 3.233911-1.706326 5.411493-.000018 2.307615.552506 4.143945 1.657574 5.508997 1.105029 1.365068 2.600094 2.047598 4.485201 2.047592" fill="#072045" opacity=".3" transform="scale(1.0005805 .99941983)"/><text fill="url(#s)" font-family="Ubuntu" font-size="48.752186" letter-spacing="0" transform="scale(1.0005805 .99941983)" word-spacing="0" x="24.717358" y="61.580971"><tspan fill="url(#s)" x="24.717358" y="61.580971">@</tspan></text><path d="m48.375 27c-2.731728.000035-5.309724.435504-7.78125 1.3125-2.439038.877063-4.613832 2.183471-6.5 3.9375-1.853666 1.721605-3.331815 3.900185-4.4375 6.53125-1.105695 2.631111-1.656253 5.710646-1.65625 9.21875 0 .169121-.0024.332985 0 .5.05127-3.296408.604459-6.21591 1.65625-8.71875 1.105685-2.631065 2.583834-4.809645 4.4375-6.53125 1.886168-1.754029 4.060962-3.060437 6.5-3.9375 2.471526-.876996 5.049522-1.312465 7.78125-1.3125 2.66664.000035 5.188487.435504 7.5625 1.3125 2.37395.84458 4.461346 2.093418 6.25 3.75 1.788579 1.624158 3.209309 3.598779 4.25 5.9375.971691 2.153547 1.46686 4.589609 1.53125 7.28125.0024-.146499.03125-.28864.03125-.4375-.000043-2.923415-.521892-5.537464-1.5625-7.84375-1.040691-2.338721-2.461421-4.313342-4.25-5.9375-1.788654-1.656582-3.87605-2.90542-6.25-3.75-2.374013-.876996-4.89586-1.312465-7.5625-1.3125zm.75 9.65625c-1.75612.000025-3.351647.290338-4.75.875-1.365872.58471-2.524407 1.398079-3.5 2.4375-.943105 1.006981-1.66846 2.197018-2.15625 3.59375-.487818 1.364286-.718763 2.81585-.71875 4.375-.000001.126457.02882.250665.03125.375.05836-1.31915.267476-2.575315.6875-3.75.48779-1.396732 1.213145-2.586769 2.15625-3.59375.975593-1.039421 2.134128-1.85279 3.5-2.4375 1.398353-.584662 2.99388-.874975 4.75-.875 1.65851.000025 3.165369.115164 4.53125.375 1.398344.259885 2.470751.521413 3.21875.78125v-1c-.747999-.259837-1.820406-.521365-3.21875-.78125-1.365881-.259836-2.87274-.374975-4.53125-.375zm14.65625 9.34375c-.02045 1.084349-.109337 2.159648-.28125 3.21875-.195161 1.169385-.483524 2.214265-.90625 3.15625-.390281.942004-.91213 1.727821-1.5625 2.3125-.617922.584693-1.342007.875006-2.1875.875-.585399.000006-1.079809-.23397-1.4375-.65625-.357756-.422267-.531282-1.148049-.53125-2.1875v1c-.000032 1.039451.173494 1.765233.53125 2.1875.357691.42228.852101.656256 1.4375.65625.845493.000006 1.569578-.290307 2.1875-.875.65037-.584679 1.172219-1.370496 1.5625-2.3125.422726-.941985.711089-1.986865.90625-3.15625.195083-1.201843.312461-2.421896.3125-3.65625-.000004-.19196-.02495-.372827-.03125-.5625zm-21.15625 2.46875c-.0064.159186-.03125.305352-.03125.46875-.000018 2.306276.550541 4.16699 1.65625 5.53125 1.10567 1.364276 2.582549 2.031256 4.46875 2.03125.682902.000006 1.379548-.05756 2.0625-.1875.71542-.162407 1.353377-.39515 1.90625-.6875-.07301-.315926-.08843-.621566-.125-.9375-.524631.263306-1.116122.47401-1.78125.625-.682952.129937-1.379598.187506-2.0625.1875-1.886201.000006-3.36308-.666974-4.46875-2.03125-1.018616-1.256801-1.544782-2.943739-1.625-5zm-10.40625.03125c-.0031.16837-.03125.329343-.03125.5-.000007 2.85848.435714 5.386174 1.28125 7.5625.845519 2.143856 2.004054 3.944535 3.5 5.40625 1.528441 1.429234 3.326204 2.504131 5.375 3.21875 2.081281.747096 4.340933 1.124996 6.8125 1.125 1.918673-.000004 3.5142-.116375 4.75-.34375 1.268262-.227381 2.079745-.432573 2.4375-.5625l.375 2.65625c.03151-.01031.096-.02103.125-.03125l-.5-3.625c-.357755.129927-1.169238.335119-2.4375.5625-1.2358.227375-2.831327.343746-4.75.34375-2.471567-.000004-4.731219-.377904-6.8125-1.125-2.048796-.714619-3.846559-1.789516-5.375-3.21875-1.495946-1.461715-2.654481-3.262394-3.5-5.40625-.795017-2.046293-1.202505-4.413134-1.25-7.0625z" fill="#fff"/></g><rect height="66" rx="12" style="opacity:.1;stroke:#fff;stroke-width:.5;stroke-linecap:round;clip-path:url(#d);fill:url(#c);filter:url(#b)" width="66" x="15" y="15"/></svg>