<svg height="96" width="96" xmlns="http://www.w3.org/2000/svg" xmlns:xlink="http://www.w3.org/1999/xlink"><linearGradient id="a"><stop offset="0" stop-color="#fff"/><stop offset="1" stop-color="#fff" stop-opacity="0"/></linearGradient><linearGradient id="b" gradientTransform="matrix(1.0058652 0 0 .994169 100 0)" gradientUnits="userSpaceOnUse" x1="45.447727" x2="45.447727" y1="92.539597" y2="7.01654"><stop offset="0"/><stop offset="1" stop-opacity=".588235"/></linearGradient><linearGradient id="c" gradientTransform="matrix(.88095236 0 0 .88095242 102.24686 -91.378936)" gradientUnits="userSpaceOnUse" x1="32.251034" x2="32.251034" xlink:href="#b" y1="6.131708" y2="90.238609"/><linearGradient id="d" gradientTransform="matrix(.85714286 0 0 .85714286 103.38971 -90.236078)" gradientUnits="userSpaceOnUse" x1="32.251034" x2="32.251034" xlink:href="#b" y1="6.131708" y2="90.238609"/><linearGradient id="e" gradientTransform="matrix(0 -1.038889 .91666666 0 4.000007 93.23334)" gradientUnits="userSpaceOnUse" x1="7.3709" x2="23.76619" y1="51.470146" y2="51.433136"><stop offset="0" stop-color="#202d3d"/><stop offset="1" stop-color="#2d3b48"/></linearGradient><linearGradient id="f" gradientTransform="matrix(.88966473 0 0 -.88897608 101.82866 91.764071)" gradientUnits="userSpaceOnUse" x1="32.251034" x2="32.251034" xlink:href="#b" y1="6.131708" y2="90.238609"/><linearGradient id="g" gradientTransform="matrix(.88668581 0 0 -.88621557 101.97166 91.631566)" gradientUnits="userSpaceOnUse" x1="32.251034" x2="32.251034" xlink:href="#b" y1="6.131708" y2="90.238609"/><linearGradient id="h" gradientTransform="matrix(.88419911 0 0 -.88396282 102.09102 91.52343)" gradientUnits="userSpaceOnUse" x1="32.251034" x2="32.251034" xlink:href="#b" y1="6.131708" y2="90.238609"/><linearGradient id="i" gradientUnits="userSpaceOnUse" x1="78.04289384" x2="78.04289384" y1="-43.8124403" y2="-113.82267585329"><stop offset="0" stop-color="#404c5c"/><stop offset="1" stop-color="#566671"/></linearGradient><radialGradient id="j" cx="48" cy="90.171875" gradientTransform="matrix(1.0608702 0 0 .91666666 -2.921761 4.342447)" gradientUnits="userSpaceOnUse" r="42" xlink:href="#a"/><linearGradient id="k" gradientTransform="matrix(.83333387 0 0 .83675756 38.042891 -118.83298)" gradientUnits="userSpaceOnUse" x1="36.357143" x2="36.357143" xlink:href="#a" y1="6" y2="63.893143"/><linearGradient id="l" gradientTransform="matrix(2.5120358 0 0 2.5572499 -16.740539 4.83188)" gradientUnits="userSpaceOnUse" x1="32.891998" x2="36.358002" y1="8.059" y2="5.4565"><stop offset="0" stop-color="#697884"/><stop offset="1" stop-color="#5c6874"/></linearGradient><g transform="matrix(1.1 0 0 1.1 -110.98583 -5.502542)"><path d="m114.1583 89.09322c-4.78901 0-8.71691-3.971039-8.71691-8.812629v-62.374743c0-4.841588 3.9279-8.812628 8.71691-8.812628h38.74855l30.7169 30.812628v40.374743c0 4.84159-3.9279 8.812629-8.7169 8.812629z" fill="url(#f)" opacity=".08"/><path d="m114.2634 88.09322c-4.30575 0-7.82165-3.55537-7.82165-7.909474v-62.181052c0-4.354104 3.5159-7.909474 7.82165-7.909474h38.36008l30 30v40.090526c0 4.354104-3.51589 7.909474-7.82165 7.909474z" fill="url(#g)" opacity=".1"/><path d="m114.35075 87.09322c-3.80788 0-6.90909-3.13685-6.90909-6.98851v-62.02298c0-3.851661 3.10121-6.98851 6.90909-6.98851h38.27273l29 29v40.01149c0 3.85166-3.1012 6.98851-6.90909 6.98851z" fill="url(#h)" opacity=".2"/><path d="m114.46511-86.093224h60.13512c3.33689 0 6.02326 2.717977 6.02326 6.094118v38.905886l-29.00001 28.999996h-37.15837c-3.33688 0-6.02325-2.717976-6.02325-6.094117v-61.811765c0-3.376141 2.68637-6.094118 6.02325-6.094118z" fill="url(#c)" opacity=".3" transform="scale(1 -1)"/><path d="m114.58491-85.093224h59.89572c2.84914 0 5.07622 2.294494 5.14286 5.142858v38.857146l-28.00001 27.999996h-37.03857c-2.84914 0-5.14285-2.293714-5.14285-5.142857v-61.714285c0-2.849143 2.29371-5.142858 5.14285-5.142858z" fill="url(#d)" opacity=".45" transform="scale(1 -1)"/></g><g transform="matrix(1.1 0 0 1.1 -37.847176 133.19368)"><path d="m48.042892-113.81244h37.999998l27 27v38.000001c0 2.77-2.23 5-5 5h-59.999998c-2.77 0-5-2.23-5-5v-60.000001c0-2.77 2.23-5 5-5z" fill="url(#i)"/><path d="m48.042897-113.81244c-2.770002 0-5.000003 2.23916-5.000003 5.02055v1.67351 54.899511c3.856259 8.137855.998427 5.789227.833337.836756v-54.899507-1.67352c0-2.32773 1.848461-4.18379 4.166669-4.18379h1.666668 34.666692 1.66667l26.16667 26.18379v1.67352 32.899507c-2.34559 6.154455.83329 6.970762.83329-.836758v-32.899509-1.67352l-27-27.02054z" fill="url(#k)" opacity=".3"/></g><path d="m9.500007 80.766667c0 3.453266 2.453 6.233333 5.5 6.233333h66c3.047 0 5.5-2.780067 5.5-6.233333v-12.766667h-77z" fill="url(#e)"/><path d="m15.000007 87c-3.047 0-5.5-2.463079-5.5-5.522599v-1.999431c.03752-11.191654.916669-11.430318.916669-.920486v1.840867c0 2.560505 2.033306 4.602562 4.583334 4.601891l1.833334-.000484h62.333322 1.833337c2.550031 0 4.583337-2.040903 4.583337-4.601407v-1.840868c.08998-12.477113.916685-8.207579.916685.920435v1.999429c-.000022 3.059574-2.453022 5.522653-5.500022 5.522653z" fill="url(#j)" opacity=".2"/><g transform="matrix(1.0207089 0 0 1.0207089 9.388623 -1.182525)"><path d="m15.358715 34.353155 18.602071-12v16.33729l-18.602071 12z" fill="#9a6820"/><path d="m15.358715 34.353155 18.602071 12v16.33729l-18.602071-12z" fill="#d09f5f"/><path d="m33.960786 22.353155 18.602071 12v16.33729l-18.602071-12z" fill="#d09f5f"/><path d="m33.960786 46.353155 18.602071-12v16.33729l-18.602071 12z" fill="#9a6820"/></g><g fill-rule="evenodd"><path d="m47.685912 9.834481c5.274067-.03438 1.929709 31.844348 1.929709 31.844348s36.911259-7.358947 36.911259 5.214171c0-3.062713-.0092-6.512627-.0092-6.512627l-30.39488-30.541876z" opacity=".2" stroke-width="2.048254"/><path d="m48.835337 9.87792c5.757464-.03438 2.433361 30.193985 2.433361 30.193985s35.065058-6.794184 35.065058 5.440095c0-2.980175-.009-6.337116-.009-6.337116l-29.33919-29.293057z" opacity=".2" stroke-width="1.993055"/><path d="m50.317394 9.897096c5.805406-.0075 2.322169 28.180811 2.322169 28.180811s33.868216-5.549338 33.868216 6.222093c0-2.867429-.0087-3.897369-.0087-3.897369l-30.561253-30.525166z" opacity=".2" stroke-width="1.921337"/><path d="m51.673739 9.812888c6.166533 0 2.221153 26.627352 2.221153 26.627352s32.612519-4.795671 32.612519 6.55976c0-2.766094-.0084-3.681888-.0084-3.681888l-29.558958-29.52416z" fill="url(#l)" stroke-width="1.853437"/></g><path d="m9.500007 68h77v1h-77z" opacity=".3"/><path d="m9.500007 67h77v1h-77z" fill="#fff" opacity=".1"/><g fill="#fff"><path d="m26.664062 71.096354v1.529948h-1.289062q-.494792 0-.690104.182292-.195313.175781-.195313.61849v.507812h1.992188v1.666667h-1.992188v5.624999h-2.330729v-5.624999h-1.158854v-1.666667h1.158854v-.507812q0-1.191407.664063-1.757813.664062-.572917 2.057291-.572917z"/><path d="m27.673177 71.096354h2.330729v10.130208h-2.330729z"/><path d="m35.524739 77.945313q-.729166 0-1.10026.247395-.364583.247396-.364583.729167 0 .442708.292969.696615.299479.247395.826822.247395.657552 0 1.106771-.46875.449219-.47526.449219-1.184895v-.266927zm3.561198-.878907v4.160156h-2.35026v-1.080729q-.46875.664063-1.054688.970052-.585937.29948-1.425781.29948-1.132812 0-1.842448-.657552-.703125-.664063-.703125-1.71875 0-1.282553.878907-1.881511.885416-.598958 2.773437-.598958h1.373698v-.182292q0-.553385-.436198-.807291-.436198-.260417-1.360677-.260417-.748698 0-1.393229.149739-.644531.14974-1.197917.449219v-1.777343q.748698-.182292 1.503906-.273438.755209-.09766 1.510417-.09766 1.972656 0 2.845052.78125.878906.774739.878906 2.526041z"/><path d="m43.812499 71.864584v2.070312h2.402344v1.666667h-2.402344v3.092447q0 .507813.201823.690105.201823.175781.800781.175781h1.197917v1.666666h-1.998698q-1.380208 0-1.959635-.572916-.572917-.579427-.572917-1.959636v-3.092447h-1.158854v-1.666667h1.158854v-2.070312z"/><path d="m49.977863 80.171875v3.828125h-2.33073v-10.065104h2.33073v1.067708q.48177-.638021 1.067708-.9375.585937-.305989 1.347656-.305989 1.347656 0 2.213542 1.074218.865885 1.067709.865885 2.753907 0 1.686198-.865885 2.760416-.865886 1.067709-2.213542 1.067709-.761719 0-1.347656-.29948-.585938-.305989-1.067708-.94401zm1.549479-4.720052q-.748698 0-1.152344.553385-.397135.546875-.397135 1.582032 0 1.035156.397135 1.588541.403646.546875 1.152344.546875.748698 0 1.139323-.546875.397135-.546875.397135-1.588541 0-1.041667-.397135-1.588542-.390625-.546875-1.139323-.546875z"/><path d="m60.472654 77.945313q-.729167 0-1.100261.247395-.364583.247396-.364583.729167 0 .442708.292969.696615.299479.247395.826823.247395.657552 0 1.10677-.46875.449219-.47526.449219-1.184895v-.266927zm3.561197-.878907v4.160156h-2.35026v-1.080729q-.46875.664063-1.054687.970052-.585938.29948-1.425782.29948-1.132812 0-1.842447-.657552-.703125-.664063-.703125-1.71875 0-1.282553.878906-1.881511.885416-.598958 2.773437-.598958h1.373698v-.182292q0-.553385-.436198-.807291-.436198-.260417-1.360677-.260417-.748698 0-1.393229.149739-.644531.14974-1.197917.449219v-1.777343q.748698-.182292 1.503907-.273438.755208-.09766 1.510416-.09766 1.972656 0 2.845052.78125.878906.774739.878906 2.526041z"/><path d="m66.214842 71.096354h2.33073v5.514323l2.682291-2.675781h2.708333l-3.561197 3.346354 3.841145 3.945312h-2.82552l-2.845052-3.040364v3.040364h-2.33073z"/></g></svg>