<svg height="96" width="96" xmlns="http://www.w3.org/2000/svg" xmlns:xlink="http://www.w3.org/1999/xlink"><linearGradient id="a"><stop offset="0" stop-color="#fff"/><stop offset="1" stop-color="#fff" stop-opacity="0"/></linearGradient><linearGradient id="b" gradientTransform="matrix(1.0058652 0 0 .994169 100 0)" gradientUnits="userSpaceOnUse" x1="45.447727" x2="45.447727" y1="92.539597" y2="7.01654"><stop offset="0"/><stop offset="1" stop-opacity=".588235"/></linearGradient><linearGradient id="c" gradientTransform="matrix(.88095236 0 0 .88095242 102.24686 -91.378936)" gradientUnits="userSpaceOnUse" x1="32.251034" x2="32.251034" xlink:href="#b" y1="6.131708" y2="90.238609"/><linearGradient id="d" gradientTransform="matrix(.85714286 0 0 .85714286 103.38971 -90.236078)" gradientUnits="userSpaceOnUse" x1="32.251034" x2="32.251034" xlink:href="#b" y1="6.131708" y2="90.238609"/><linearGradient id="e" gradientTransform="matrix(0 -1.038889 .91666666 0 4.000007 93.23334)" gradientUnits="userSpaceOnUse" x1="7.3709" x2="23.76619" y1="51.470146" y2="51.433136"><stop offset="0" stop-color="#0b4420"/><stop offset="1" stop-color="#195a30"/></linearGradient><linearGradient id="f" gradientTransform="matrix(.88966473 0 0 -.88897608 101.82866 91.764071)" gradientUnits="userSpaceOnUse" x1="32.251034" x2="32.251034" xlink:href="#b" y1="6.131708" y2="90.238609"/><linearGradient id="g" gradientTransform="matrix(.88668581 0 0 -.88621557 101.97166 91.631566)" gradientUnits="userSpaceOnUse" x1="32.251034" x2="32.251034" xlink:href="#b" y1="6.131708" y2="90.238609"/><linearGradient id="h" gradientTransform="matrix(.88419911 0 0 -.88396282 102.09102 91.52343)" gradientUnits="userSpaceOnUse" x1="32.251034" x2="32.251034" xlink:href="#b" y1="6.131708" y2="90.238609"/><linearGradient id="i" gradientUnits="userSpaceOnUse" x1="78.04289384" x2="78.04289384" y1="-43.8124403" y2="-113.82267585329"><stop offset="0" stop-color="#288358"/><stop offset="1" stop-color="#479a6c"/></linearGradient><radialGradient id="j" cx="48" cy="90.171875" gradientTransform="matrix(1.0608702 0 0 .91666666 -2.921761 4.342447)" gradientUnits="userSpaceOnUse" r="42" xlink:href="#a"/><linearGradient id="k" gradientTransform="matrix(.91666731 0 0 .92043332 3.999996 4.504949)" gradientUnits="userSpaceOnUse" x1="36.357143" x2="36.357143" xlink:href="#a" y1="6" y2="63.893143"/><linearGradient id="l" gradientTransform="matrix(2.5120358 0 0 2.5572499 -16.740539 4.83188)" gradientUnits="userSpaceOnUse" x1="32.891998" x2="36.358002" y1="8.059" y2="5.4565"><stop offset="0" stop-color="#50b87b"/><stop offset="1" stop-color="#43906c"/></linearGradient><linearGradient id="m" gradientUnits="userSpaceOnUse" x1="56.99097658855" x2="116.92112425685" xlink:href="#n" y1="-48.80056699151" y2="-48.80056699151"/><linearGradient id="n"><stop offset="0" stop-color="#458c6d"/><stop offset="1" stop-color="#81e1be"/></linearGradient><linearGradient id="o" gradientTransform="matrix(-1.9463379 0 0 -1.9463379 13.797206 -30.526401)" gradientUnits="userSpaceOnUse" x1="-53.080975" x2="-22.28974" xlink:href="#n" y1="-7.735441" y2="-7.735441"/><g transform="matrix(1.1 0 0 1.1 -110.98583 -5.502542)"><path d="m114.1583 89.09322c-4.78901 0-8.71691-3.971039-8.71691-8.812629v-62.374743c0-4.841588 3.9279-8.812628 8.71691-8.812628h38.74855l30.7169 30.812628v40.374743c0 4.84159-3.9279 8.812629-8.7169 8.812629z" fill="url(#f)" opacity=".08"/><path d="m114.2634 88.09322c-4.30575 0-7.82165-3.55537-7.82165-7.909474v-62.181052c0-4.354104 3.5159-7.909474 7.82165-7.909474h38.36008l30 30v40.090526c0 4.354104-3.51589 7.909474-7.82165 7.909474z" fill="url(#g)" opacity=".1"/><path d="m114.35075 87.09322c-3.80788 0-6.90909-3.13685-6.90909-6.98851v-62.02298c0-3.851661 3.10121-6.98851 6.90909-6.98851h38.27273l29 29v40.01149c0 3.85166-3.1012 6.98851-6.90909 6.98851z" fill="url(#h)" opacity=".2"/><path d="m114.46511-86.093224h60.13512c3.33689 0 6.02326 2.717977 6.02326 6.094118v38.905886l-29.00001 28.999996h-37.15837c-3.33688 0-6.02325-2.717976-6.02325-6.094117v-61.811765c0-3.376141 2.68637-6.094118 6.02325-6.094118z" fill="url(#c)" opacity=".3" transform="scale(1 -1)"/><path d="m114.58491-85.093224h59.89572c2.84914 0 5.07622 2.294494 5.14286 5.142858v38.857146l-28.00001 27.999996h-37.03857c-2.84914 0-5.14285-2.293714-5.14285-5.142857v-61.714285c0-2.849143 2.29371-5.142858 5.14285-5.142858z" fill="url(#d)" opacity=".45" transform="scale(1 -1)"/></g><path d="m48.042892-113.81244h37.999998l27 27v38.000001c0 2.77-2.23 5-5 5h-59.999998c-2.77 0-5-2.23-5-5v-60.000001c0-2.77 2.23-5 5-5z" fill="url(#i)" transform="matrix(1.1 0 0 1.1 -37.847176 133.19368)"/><path d="m15.000003 8.027049c-3.047002 0-5.500003 2.463076-5.500003 5.522605v1.840861 62.389952c4.241885 8.95164 1.09827 6.36815.916671.920432v-62.389948-1.840872c0-2.560503 2.033307-4.602169 4.583336-4.602169h1.833334 38.133364 1.833337l28.783339 28.802169v1.840872 38.189948c-2.580149 6.7699.916619 7.667838.916619-.920434v-38.18995-1.840872l-29.700002-29.722594z" fill="url(#k)" opacity=".3"/><path d="m9.500007 80.766667c0 3.453266 2.453 6.233333 5.5 6.233333h66c3.047 0 5.5-2.780067 5.5-6.233333v-12.766667h-77z" fill="url(#e)"/><path d="m15.000007 87c-3.047 0-5.5-2.463079-5.5-5.522599v-1.999431c.03752-11.191654.916669-11.430318.916669-.920486v1.840867c0 2.560505 2.033306 4.602562 4.583334 4.601891l1.833334-.000484h62.333322 1.833337c2.550031 0 4.583337-2.040903 4.583337-4.601407v-1.840868c.08998-12.477113.916685-8.207579.916685.920435v1.999429c-.000022 3.059574-2.453022 5.522653-5.500022 5.522653z" fill="url(#j)" opacity=".2"/><g fill-rule="evenodd"><g transform="matrix(.59068809 0 0 .59068809 -15.648666 61.276477)"><path d="m57.98005-38.206933 14.791798-5.948107c.218524-1.555692 12.527114-10.96334 24.970777 2.155113l-6.75205 7.418239 24.946775-.000362.0004-25.892536-7.55822 6.718072c-6.01102-5.698435-13.391959-9.757645-21.71773-9.220365-20.464122 2.280598-26.962828 15.193587-28.68175 24.769946z" fill="url(#m)" stroke="#20523c" stroke-width="1.55707"/><path d="m92.784746-35.501425 12.098634-6.012207c-10.996559-15.044804-21.765168-10.864255-27.643301-6.844514 5.957743-2.325109 14.525721-1.516996 21.507378 6.349702z" fill="#a4fede"/><path d="m116.12165-26.064253-14.7918 5.948107c-.21852 1.555692-12.527114 10.9633397-24.970774-2.155113l6.752047-7.418239-24.946776.000362-.0004 25.8925357 7.55822-6.7180717c6.011019 5.6984347 13.39196 9.75764473 21.717731 9.2203647 20.464132-2.280598 26.962832-15.1935867 28.681752-24.7699457z" fill="url(#o)" stroke="#20523c" stroke-width="1.55707"/><path d="m81.316952-28.769761-12.098626 6.012207c10.996551 15.0448037 21.76516 10.864255 27.643293 6.844514-5.957743 2.325109-14.525721 1.516996-21.507373-6.349702z" fill="#a4fede"/><g fill="#60ad96"><path d="m60.854217-28.920875-.143819 21.8054927-1.735034 1.568545v-23.3380827z"/><path d="m113.31453-35.33397.14382-21.805491 1.73504-1.56855v23.338091z"/></g></g><path d="m47.685912 9.834481c5.274067-.03438 1.929709 31.844348 1.929709 31.844348s36.911259-7.358947 36.911259 5.214171c0-3.062713-.0092-6.512627-.0092-6.512627l-30.39488-30.541876z" opacity=".2" stroke-width="2.048254"/><path d="m48.835337 9.87792c5.757464-.03438 2.433361 30.193985 2.433361 30.193985s35.065058-6.794184 35.065058 5.440095c0-2.980175-.009-6.337116-.009-6.337116l-29.33919-29.293057z" opacity=".2" stroke-width="1.993055"/><path d="m50.317394 9.897096c5.805406-.0075 2.322169 28.180811 2.322169 28.180811s33.868216-5.549338 33.868216 6.222093c0-2.867429-.0087-3.897369-.0087-3.897369l-30.561253-30.525166z" opacity=".2" stroke-width="1.921337"/><path d="m51.673739 9.812888c6.166533 0 2.221153 26.627352 2.221153 26.627352s32.612519-4.795671 32.612519 6.55976c0-2.766094-.0084-3.681888-.0084-3.681888l-29.558958-29.52416z" fill="url(#l)" stroke-width="1.853437"/></g><path d="m9.500007 68h77v1h-77z" opacity=".3"/><path d="m9.500007 67h77v1h-77z" fill="#fff" opacity=".1"/><g fill="#fff" transform="matrix(.88142887 0 0 .88142887 4.223652 2.60488)"><path d="m34.916428 78.928009h7.609863v2.131348h-4.790039v2.036133h4.504394v2.131347h-4.504394v4.636231h-2.819824z"/><path d="m45.170334 78.928009h7.609863v2.131348h-4.790039v2.036133h4.504395v2.131347h-4.504395v4.636231h-2.819824z"/><path d="m63.034103 79.272247v2.314453q-.900879-.402832-1.757812-.60791-.856934-.205078-1.618652-.205078-1.010743 0-1.494141.27832-.483399.278321-.483399.864258 0 .439453.322266.688477.32959.241699 1.186524.41748l1.201171.2417q1.823731.36621 2.592774 1.113281.769043.74707.769043 2.124023 0 1.809082-1.07666 2.695313-1.069336.878906-3.273926.878906-1.040039 0-2.087402-.197754-1.047364-.197754-2.094727-.585937v-2.380372q1.047363.556641 2.021484.842286.981446.27832 1.889649.27832.922851 0 1.413574-.307617.490723-.307617.490723-.878906 0-.512696-.336914-.791016-.32959-.27832-1.325684-.498047l-1.091309-.241699q-1.640625-.351563-2.402343-1.120606-.754395-.769043-.754395-2.072754 0-1.6333 1.054688-2.512207 1.054687-.878906 3.032226-.878906.900879 0 1.853028.13916.952148.131836 1.970214.402832z"/></g></svg>