<svg height="96" width="96" xmlns="http://www.w3.org/2000/svg" xmlns:xlink="http://www.w3.org/1999/xlink"><linearGradient id="a"><stop offset="0" stop-color="#fff"/><stop offset="1" stop-color="#fff" stop-opacity="0"/></linearGradient><linearGradient id="b" gradientTransform="matrix(1.0058652 0 0 .994169 100 0)" gradientUnits="userSpaceOnUse" x1="45.447727" x2="45.447727" y1="92.539597" y2="7.01654"><stop offset="0"/><stop offset="1" stop-opacity=".588235"/></linearGradient><linearGradient id="c" gradientTransform="matrix(.88095236 0 0 .88095242 102.24686 -91.378936)" gradientUnits="userSpaceOnUse" x1="32.251034" x2="32.251034" xlink:href="#b" y1="6.131708" y2="90.238609"/><linearGradient id="d" gradientTransform="matrix(.85714286 0 0 .85714286 103.38971 -90.236078)" gradientUnits="userSpaceOnUse" x1="32.251034" x2="32.251034" xlink:href="#b" y1="6.131708" y2="90.238609"/><linearGradient id="e" gradientTransform="matrix(0 -1.038889 .91666666 0 4.000007 93.23334)" gradientUnits="userSpaceOnUse" x1="7.3709" x2="23.76619" y1="51.470146" y2="51.433136"><stop offset="0" stop-color="#202d3d"/><stop offset="1" stop-color="#2d3b48"/></linearGradient><linearGradient id="f" gradientTransform="matrix(.88966473 0 0 -.88897608 101.82866 91.764071)" gradientUnits="userSpaceOnUse" x1="32.251034" x2="32.251034" xlink:href="#b" y1="6.131708" y2="90.238609"/><linearGradient id="g" gradientTransform="matrix(.88668581 0 0 -.88621557 101.97166 91.631566)" gradientUnits="userSpaceOnUse" x1="32.251034" x2="32.251034" xlink:href="#b" y1="6.131708" y2="90.238609"/><linearGradient id="h" gradientTransform="matrix(.88419911 0 0 -.88396282 102.09102 91.52343)" gradientUnits="userSpaceOnUse" x1="32.251034" x2="32.251034" xlink:href="#b" y1="6.131708" y2="90.238609"/><linearGradient id="i" gradientUnits="userSpaceOnUse" x1="78.04289384" x2="78.04289384" y1="-43.8124403" y2="-113.82267585329"><stop offset="0" stop-color="#404c5c"/><stop offset="1" stop-color="#566671"/></linearGradient><radialGradient id="j" cx="48" cy="90.171875" gradientTransform="matrix(1.0608702 0 0 .91666666 -2.921761 4.342447)" gradientUnits="userSpaceOnUse" r="42" xlink:href="#a"/><linearGradient id="k" gradientTransform="matrix(.83333387 0 0 .83675756 38.042891 -118.83298)" gradientUnits="userSpaceOnUse" x1="36.357143" x2="36.357143" xlink:href="#a" y1="6" y2="63.893143"/><linearGradient id="l" gradientTransform="matrix(2.5120358 0 0 2.5572499 -16.740539 4.83188)" gradientUnits="userSpaceOnUse" x1="32.891998" x2="36.358002" y1="8.059" y2="5.4565"><stop offset="0" stop-color="#697884"/><stop offset="1" stop-color="#5c6874"/></linearGradient><radialGradient id="m" cx="-22" cy="54" gradientUnits="userSpaceOnUse" r="6" xlink:href="#a"/><radialGradient id="n" cx="-34" cy="54" gradientUnits="userSpaceOnUse" r="4" xlink:href="#a"/><radialGradient id="o" cx="-42" cy="54" gradientUnits="userSpaceOnUse" r="2" xlink:href="#a"/><radialGradient id="p" cx="-26.019238" cy="38.999991" gradientUnits="userSpaceOnUse" r="6.001002" xlink:href="#a"/><radialGradient id="q" cx="-36.411545" cy="45.000011" gradientUnits="userSpaceOnUse" r="4.000668" xlink:href="#a"/><radialGradient id="r" cx="-43.339745" cy="48.999985" gradientUnits="userSpaceOnUse" r="2.000334" xlink:href="#a"/><radialGradient id="s" cx="-37" cy="28.019246" gradientUnits="userSpaceOnUse" r="6.001002" xlink:href="#a"/><radialGradient id="t" cx="-43" cy="38.411551" gradientUnits="userSpaceOnUse" r="4.000668" xlink:href="#a"/><radialGradient id="u" cx="-47" cy="45.339755" gradientUnits="userSpaceOnUse" r="2.000334" xlink:href="#a"/><radialGradient id="v" cx="-52" cy="23.999998" gradientUnits="userSpaceOnUse" r="6" xlink:href="#a"/><radialGradient id="w" cx="-52" cy="36.000004" gradientUnits="userSpaceOnUse" r="4" xlink:href="#a"/><radialGradient id="x" cx="-52" cy="44" gradientUnits="userSpaceOnUse" r="2" xlink:href="#a"/><radialGradient id="y" cx="-67" cy="28.019236" gradientUnits="userSpaceOnUse" r="6.001002" xlink:href="#a"/><radialGradient id="z" cx="-61" cy="38.411554" gradientUnits="userSpaceOnUse" r="4.000668" xlink:href="#a"/><radialGradient id="A" cx="-57" cy="45.339755" gradientUnits="userSpaceOnUse" r="2.000334" xlink:href="#a"/><radialGradient id="B" cx="-77.980759" cy="38.99999" gradientUnits="userSpaceOnUse" r="6.001002" xlink:href="#a"/><radialGradient id="C" cx="-67.588455" cy="45.000013" gradientUnits="userSpaceOnUse" r="4.000668" xlink:href="#a"/><radialGradient id="D" cx="-60.660255" cy="48.99999" gradientUnits="userSpaceOnUse" r="2.000334" xlink:href="#a"/><radialGradient id="E" cx="-82" cy="54" gradientUnits="userSpaceOnUse" r="6" xlink:href="#a"/><radialGradient id="F" cx="-70" cy="54.000007" gradientUnits="userSpaceOnUse" r="4" xlink:href="#a"/><radialGradient id="G" cx="-62" cy="54" gradientUnits="userSpaceOnUse" r="2" xlink:href="#a"/><linearGradient id="H" gradientUnits="userSpaceOnUse" x1="78" x2="78" y1="48" y2="60"><stop offset="0" stop-color="#f00"/><stop offset="1" stop-color="#ff006b"/></linearGradient><linearGradient id="I" gradientUnits="userSpaceOnUse" x1="71" x2="77" y1="34" y2="45"><stop offset="0" stop-color="#ff8200"/><stop offset="1" stop-color="#ff4700"/></linearGradient><linearGradient id="J" gradientUnits="userSpaceOnUse" x1="58" x2="68" y1="25" y2="31"><stop offset="0" stop-color="#ffd500"/><stop offset="1" stop-color="#ff9a00"/></linearGradient><linearGradient id="K" gradientUnits="userSpaceOnUse" x1="42" x2="54" y1="32" y2="32"><stop offset="0" stop-color="#46cc00"/><stop offset="1" stop-color="#85cc00"/></linearGradient><linearGradient id="L" gradientUnits="userSpaceOnUse" x1="28" x2="38.099506" y1="31" y2="25.169048"><stop offset="0" stop-color="#00b4b4"/><stop offset="1" stop-color="#00b464"/></linearGradient><linearGradient id="M" gradientUnits="userSpaceOnUse" x1="19" x2="25" y1="44" y2="34"><stop offset="0" stop-color="#03c"/><stop offset="1" stop-color="#0e7eff"/></linearGradient><linearGradient id="N" gradientUnits="userSpaceOnUse" x1="18" x2="18" y1="60" y2="47.958405"><stop offset="0" stop-color="#609"/><stop offset="1" stop-color="#330eac"/></linearGradient><g transform="matrix(1.1 0 0 1.1 -110.98583 -5.502542)"><path d="m114.1583 89.09322c-4.78901 0-8.71691-3.971039-8.71691-8.812629v-62.374743c0-4.841588 3.9279-8.812628 8.71691-8.812628h38.74855l30.7169 30.812628v40.374743c0 4.84159-3.9279 8.812629-8.7169 8.812629z" fill="url(#f)" opacity=".08"/><path d="m114.2634 88.09322c-4.30575 0-7.82165-3.55537-7.82165-7.909474v-62.181052c0-4.354104 3.5159-7.909474 7.82165-7.909474h38.36008l30 30v40.090526c0 4.354104-3.51589 7.909474-7.82165 7.909474z" fill="url(#g)" opacity=".1"/><path d="m114.35075 87.09322c-3.80788 0-6.90909-3.13685-6.90909-6.98851v-62.02298c0-3.851661 3.10121-6.98851 6.90909-6.98851h38.27273l29 29v40.01149c0 3.85166-3.1012 6.98851-6.90909 6.98851z" fill="url(#h)" opacity=".2"/><path d="m114.46511-86.093224h60.13512c3.33689 0 6.02326 2.717977 6.02326 6.094118v38.905886l-29.00001 28.999996h-37.15837c-3.33688 0-6.02325-2.717976-6.02325-6.094117v-61.811765c0-3.376141 2.68637-6.094118 6.02325-6.094118z" fill="url(#c)" opacity=".3" transform="scale(1 -1)"/><path d="m114.58491-85.093224h59.89572c2.84914 0 5.07622 2.294494 5.14286 5.142858v38.857146l-28.00001 27.999996h-37.03857c-2.84914 0-5.14285-2.293714-5.14285-5.142857v-61.714285c0-2.849143 2.29371-5.142858 5.14285-5.142858z" fill="url(#d)" opacity=".45" transform="scale(1 -1)"/></g><g transform="matrix(1.1 0 0 1.1 -37.847176 133.19368)"><path d="m48.042892-113.81244h37.999998l27 27v38.000001c0 2.77-2.23 5-5 5h-59.999998c-2.77 0-5-2.23-5-5v-60.000001c0-2.77 2.23-5 5-5z" fill="url(#i)"/><path d="m48.042897-113.81244c-2.770002 0-5.000003 2.23916-5.000003 5.02055v1.67351 54.899511c3.856259 8.137855.998427 5.789227.833337.836756v-54.899507-1.67352c0-2.32773 1.848461-4.18379 4.166669-4.18379h1.666668 34.666692 1.66667l26.16667 26.18379v1.67352 32.899507c-2.34559 6.154455.83329 6.970762.83329-.836758v-32.899509-1.67352l-27-27.02054z" fill="url(#k)" opacity=".3"/></g><path d="m9.500007 80.766667c0 3.453266 2.453 6.233333 5.5 6.233333h66c3.047 0 5.5-2.780067 5.5-6.233333v-12.766667h-77z" fill="url(#e)"/><path d="m15.000007 87c-3.047 0-5.5-2.463079-5.5-5.522599v-1.999431c.03752-11.191654.916669-11.430318.916669-.920486v1.840867c0 2.560505 2.033306 4.602562 4.583334 4.601891l1.833334-.000484h62.333322 1.833337c2.550031 0 4.583337-2.040903 4.583337-4.601407v-1.840868c.08998-12.477113.916685-8.207579.916685.920435v1.999429c-.000022 3.059574-2.453022 5.522653-5.500022 5.522653z" fill="url(#j)" opacity=".2"/><g transform="matrix(.74418604 0 0 .74418604 4.069767 19.348838)"><path d="m78 48c-3.313709 0-6 2.68629-6 6s2.686291 6 6 6 6-2.68629 6-6-2.686291-6-6-6zm-12 2c-2.209139 0-4 1.79086-4 4s1.790861 4 4 4 4-1.79086 4-4-1.790861-4-4-4zm-8 2c-1.104569 0-2 .89543-2 2s.895431 2 2 2 2-.89543 2-2-.895431-2-2-2z" fill="url(#H)"/><path d="m70.980762 33.80385c-2.869756 1.65685-3.853007 5.32639-2.196152 8.19615 1.656854 2.86976 5.326396 3.85301 8.196152 2.19615 2.869756-1.65685 3.853007-5.32639 2.196153-8.19615-1.656855-2.86976-5.326397-3.85301-8.196153-2.19615zm-9.392305 7.73205c-1.91317 1.10457-2.568671 3.55093-1.464101 5.4641 1.104569 1.91317 3.550931 2.56867 5.464101 1.4641 1.913171-1.10457 2.568671-3.55093 1.464102-5.4641-1.10457-1.91317-3.550931-2.56867-5.464102-1.4641zm-5.928203 5.73205c-.956585.55228-1.284335 1.77546-.732051 2.73205.552285.95659 1.775466 1.28434 2.732051.73205.956585-.55228 1.284335-1.77546.732051-2.73205-.552285-.95659-1.775466-1.28433-2.732051-.73205z" fill="url(#I)"/><path d="m57.803848 25.01924c-1.656855 2.86975-.673604 6.5393 2.196152 8.19615s6.539298.6736 8.196152-2.19615c1.656855-2.86976.673604-6.5393-2.196152-8.19615-2.869756-1.65686-6.539298-.67361-8.196152 2.19615zm-4.26795 11.3923c-1.104569 1.91317-.449068 4.35953 1.464102 5.4641s4.359532.44907 5.464102-1.4641c1.104569-1.91317.449068-4.35953-1.464102-5.4641s-4.359532-.44907-5.464102 1.4641zm-2.267949 7.92821c-.552284.95658-.224534 2.17976.732051 2.73205.956585.55228 2.179766.22453 2.732051-.73205.552284-.95659.224534-2.17977-.732051-2.73205-.956585-.55229-2.179766-.22454-2.732051.73205z" fill="url(#J)"/><path d="m42.000001 24c-.000001 3.31371 2.68629 6 5.999999 6s6-2.68629 6-6-2.686291-6-6-6-6 2.68629-5.999999 6zm1.999999 12c0 2.20914 1.790862 4 4 4 2.209139 0 4-1.79086 4.000001-4-.000001-2.20914-1.790863-4-4.000001-4s-4 1.79086-4 4zm2 8c.000001 1.10457.895431 2 2 2s2-.89543 2-2-.895431-2-2-2-2 .89543-2 2z" fill="url(#K)"/><path d="m27.803849 31.01924c1.656853 2.86975 5.326395 3.85301 8.196151 2.19615 2.869756-1.65685 3.853007-5.3264 2.196152-8.19615-1.656854-2.86976-5.326396-3.85301-8.196152-2.19615-2.869756 1.65685-3.853007 5.32639-2.196151 8.19615zm7.732049 9.3923c1.10457 1.91317 3.550932 2.56867 5.464102 1.4641 1.913171-1.10457 2.568671-3.55093 1.464103-5.4641-1.104571-1.91317-3.550933-2.56867-5.464103-1.4641s-2.568671 3.55093-1.464102 5.4641zm5.732051 5.92821c.552286.95658 1.775466 1.28433 2.732051.73205.956585-.55229 1.284335-1.77547.732051-2.73205-.552285-.95659-1.775466-1.28434-2.732051-.73205-.956585.55228-1.284335 1.77546-.732051 2.73205z" fill="url(#L)"/><path d="m19.019239 44.19615c2.869755 1.65686 6.539297.67361 8.196152-2.19615 1.656854-2.86976.673603-6.5393-2.196153-8.19615-2.869756-1.65686-6.539298-.67361-8.196152 2.19615-1.656855 2.86976-.673604 6.5393 2.196153 8.19615zm11.392303 4.26795c1.913171 1.10457 4.359533.44907 5.464103-1.4641 1.104569-1.91317.449068-4.35953-1.464101-5.4641-1.913172-1.10457-4.359534-.44907-5.464103 1.4641s-.449069 4.35953 1.464101 5.4641zm7.928204 2.26795c.956586.55229 2.179766.22454 2.732051-.73205.552285-.95658.224534-2.17977-.732051-2.73205s-2.179766-.22454-2.732051.73205c-.552284.95659-.224534 2.17977.732051 2.73205z" fill="url(#M)"/><path d="m18.000001 60c3.313708 0 5.999999-2.68629 6-6-.000001-3.31371-2.686292-6-6.000001-6s-6 2.68629-5.999999 6c-.000001 3.31371 2.68629 6 6 6zm11.999999-2c2.209139 0 4-1.79086 4.000001-4-.000001-2.20914-1.790862-4-4.000001-4s-4 1.79086-4 4 1.790861 4 4 4zm8-2c1.10457 0 2-.89543 2-2 .000001-1.10457-.895431-2-2-2s-2 .89543-2 2 .895431 2 2 2z" fill="url(#N)"/></g><path d="m47.685912 9.834481c5.274067-.03438 1.929709 31.844348 1.929709 31.844348s36.911259-7.358947 36.911259 5.214171c0-3.062713-.0092-6.512627-.0092-6.512627l-30.39488-30.541876z" fill-rule="evenodd" opacity=".2" stroke-width="2.048254"/><g opacity=".3" transform="matrix(.74418604 0 0 .74418604 78.488371 18.604651)"><path d="m-22 48c-3.313709 0-6 2.68629-6 6s2.686291 6 6 6 6-2.68629 6-6-2.686291-6-6-6z" fill="url(#m)"/><path d="m-34 50c-2.209139 0-4 1.79086-4 4s1.790861 4 4 4 4-1.79086 4-4-1.790861-4-4-4z" fill="url(#n)"/><path d="m-42 52c-1.104569 0-2 .89543-2 2s.895431 2 2 2 2-.89543 2-2-.895431-2-2-2z" fill="url(#o)"/><path d="m-29.019238 33.80385c-2.869756 1.65685-3.853007 5.32639-2.196152 8.19615 1.656854 2.86976 5.326396 3.85301 8.196152 2.19615 2.869756-1.65685 3.853007-5.32639 2.196153-8.19615-1.656855-2.86976-5.326397-3.85301-8.196153-2.19615z" fill="url(#p)"/><path d="m-38.411543 41.5359c-1.91317 1.10457-2.568671 3.55093-1.464101 5.4641 1.104569 1.91317 3.550931 2.56867 5.464101 1.4641 1.913171-1.10457 2.568671-3.55093 1.464102-5.4641-1.10457-1.91317-3.550931-2.56867-5.464102-1.4641z" fill="url(#q)"/><path d="m-44.339746 47.26795c-.956585.55228-1.284335 1.77546-.732051 2.73205.552285.95659 1.775466 1.28434 2.732051.73205.956585-.55228 1.284335-1.77546.732051-2.73205-.552285-.95659-1.775466-1.28433-2.732051-.73205z" fill="url(#r)"/><path d="m-42.196152 25.01924c-1.656855 2.86975-.673604 6.5393 2.196152 8.19615s6.539298.6736 8.196152-2.19615c1.656855-2.86976.673604-6.5393-2.196152-8.19615-2.869756-1.65686-6.539298-.67361-8.196152 2.19615z" fill="url(#s)"/><path d="m-46.464102 36.41154c-1.104569 1.91317-.449068 4.35953 1.464102 5.4641s4.359532.44907 5.464102-1.4641c1.104569-1.91317.449068-4.35953-1.464102-5.4641s-4.359532-.44907-5.464102 1.4641z" fill="url(#t)"/><path d="m-48.732051 44.33975c-.552284.95658-.224534 2.17976.732051 2.73205.956585.55228 2.179766.22453 2.732051-.73205.552284-.95659.224534-2.17977-.732051-2.73205-.956585-.55229-2.179766-.22454-2.732051.73205z" fill="url(#u)"/><path d="m-57.999999 24c-.000001 3.31371 2.68629 6 5.999999 6s6-2.68629 6-6-2.686291-6-6-6-6 2.68629-5.999999 6z" fill="url(#v)"/><path d="m-56 36c0 2.20914 1.790862 4 4 4 2.209139 0 4-1.79086 4.000001-4-.000001-2.20914-1.790863-4-4.000001-4s-4 1.79086-4 4z" fill="url(#w)"/><path d="m-54 44c.000001 1.10457.895431 2 2 2s2-.89543 2-2-.895431-2-2-2-2 .89543-2 2z" fill="url(#x)"/><path d="m-72.196151 31.01924c1.656853 2.86975 5.326395 3.85301 8.196151 2.19615 2.869756-1.65685 3.853007-5.3264 2.196152-8.19615-1.656854-2.86976-5.326396-3.85301-8.196152-2.19615-2.869756 1.65685-3.853007 5.32639-2.196151 8.19615z" fill="url(#y)"/><path d="m-64.464102 40.41154c1.10457 1.91317 3.550932 2.56867 5.464102 1.4641 1.913171-1.10457 2.568671-3.55093 1.464103-5.4641-1.104571-1.91317-3.550933-2.56867-5.464103-1.4641s-2.568671 3.55093-1.464102 5.4641z" fill="url(#z)"/><path d="m-58.732051 46.33975c.552286.95658 1.775466 1.28433 2.732051.73205.956585-.55229 1.284335-1.77547.732051-2.73205-.552285-.95659-1.775466-1.28434-2.732051-.73205-.956585.55228-1.284335 1.77546-.732051 2.73205z" fill="url(#A)"/><path d="m-80.980761 44.19615c2.869755 1.65686 6.539297.67361 8.196152-2.19615 1.656854-2.86976.673603-6.5393-2.196153-8.19615-2.869756-1.65686-6.539298-.67361-8.196152 2.19615-1.656855 2.86976-.673604 6.5393 2.196153 8.19615z" fill="url(#B)"/><path d="m-69.588458 48.4641c1.913171 1.10457 4.359533.44907 5.464103-1.4641 1.104569-1.91317.449068-4.35953-1.464101-5.4641-1.913172-1.10457-4.359534-.44907-5.464103 1.4641s-.449069 4.35953 1.464101 5.4641z" fill="url(#C)"/><path d="m-61.660254 50.73205c.956586.55229 2.179766.22454 2.732051-.73205.552285-.95658.224534-2.17977-.732051-2.73205s-2.179766-.22454-2.732051.73205c-.552284.95659-.224534 2.17977.732051 2.73205z" fill="url(#D)"/><path d="m-81.999999 60c3.313708 0 5.999999-2.68629 6-6-.000001-3.31371-2.686292-6-6.000001-6s-6 2.68629-5.999999 6c-.000001 3.31371 2.68629 6 6 6z" fill="url(#E)"/><path d="m-70 58c2.209139 0 4-1.79086 4.000001-4-.000001-2.20914-1.790862-4-4.000001-4s-4 1.79086-4 4 1.790861 4 4 4z" fill="url(#F)"/><path d="m-62 56c1.10457 0 2-.89543 2-2 .000001-1.10457-.895431-2-2-2s-2 .89543-2 2 .895431 2 2 2z" fill="url(#G)"/></g><path d="m48.835337 9.87792c5.757464-.03438 2.433361 30.193985 2.433361 30.193985s35.065058-6.794184 35.065058 5.440095c0-2.980175-.009-6.337116-.009-6.337116l-29.33919-29.293057z" fill-rule="evenodd" opacity=".2" stroke-width="1.993055"/><path d="m50.317394 9.897096c5.805406-.0075 2.322169 28.180811 2.322169 28.180811s33.868216-5.549338 33.868216 6.222093c0-2.867429-.0087-3.897369-.0087-3.897369l-30.561253-30.525166z" fill-rule="evenodd" opacity=".2" stroke-width="1.921337"/><path d="m51.673739 9.812888c6.166533 0 2.221153 26.627352 2.221153 26.627352s32.612519-4.795671 32.612519 6.55976c0-2.766094-.0084-3.681888-.0084-3.681888l-29.558958-29.52416z" fill="url(#l)" fill-rule="evenodd" stroke-width="1.853437"/><path d="m9.500007 68h77v1h-77z" opacity=".3"/><g fill="#fff"><path d="m9.500007 67h77v1h-77z" opacity=".1"/><g transform="matrix(.86140902 0 0 .86140902 6.684282 4.472064)"><path d="m25.188292 79.256676v2.329101h2.702636v1.875h-2.702636v3.479004q0 .571289.22705.776367.227051.197754.900879.197754h1.347656v1.875h-2.248535q-1.552734 0-2.20459-.644531-.644531-.651855-.644531-2.20459v-3.479004h-1.303711v-1.875h1.303711v-2.329101z"/><path d="m37.749327 84.793785v4.995117h-2.636719v-.812988-2.995605q0-1.076661-.05127-1.479493-.04395-.402832-.161132-.593261-.153809-.256348-.417481-.395508-.263672-.146485-.600586-.146485-.820312 0-1.289062.637207-.46875.629883-.46875 1.750489v4.035644h-2.622071v-11.396484h2.622071v4.394531q.593261-.717773 1.259765-1.054687.666504-.344239 1.472168-.344239 1.420899 0 2.153321.871582.739746.871582.739746 2.53418z"/><path d="m48.384092 85.665367v.74707h-6.130371q.09522.922852.666504 1.384278.571289.461426 1.59668.461426.827637 0 1.691894-.2417.871582-.249023 1.78711-.74707v2.021484q-.930176.351563-1.860352.527344-.930176.183106-1.860351.183106-2.226563 0-3.464356-1.12793-1.230469-1.135254-1.230469-3.178711 0-2.006836 1.208496-3.156738 1.215821-1.149903 3.339844-1.149903 1.933594 0 3.090821 1.164551 1.16455 1.164551 1.16455 3.112793zm-2.695312-.871582q0-.74707-.439453-1.201172-.432129-.461426-1.135254-.461426-.761719 0-1.237793.432129-.476074.424805-.593262 1.230469z"/><path d="m57.96417 82.948082q.498047-.761719 1.1792-1.157227.688476-.402832 1.508789-.402832 1.413574 0 2.15332.871582.739746.871582.739746 2.53418v4.995117h-2.636719v-4.277343q.0073-.09522.0073-.197754.0073-.102539.0073-.292969 0-.871582-.256348-1.259766-.256347-.395508-.827637-.395508-.74707 0-1.157226.615235-.402832.615234-.417481 1.779785v4.02832h-2.636718v-4.277343q0-1.362305-.234375-1.750489-.234375-.395508-.834961-.395508-.754395 0-1.164551.622559-.410156.615234-.410156 1.765137v4.035644h-2.636719v-8.203125h2.636719v1.201172q.483398-.695801 1.105957-1.047363.629883-.351563 1.384277-.351563.849609 0 1.501465.410157.651855.410156.988769 1.149902z"/><path d="m74.194639 85.665367v.74707h-6.130371q.09521.922852.666504 1.384278.571289.461426 1.59668.461426.827636 0 1.691894-.2417.871582-.249023 1.78711-.74707v2.021484q-.930176.351563-1.860352.527344-.930176.183106-1.860352.183106-2.226562 0-3.464355-1.12793-1.230469-1.135254-1.230469-3.178711 0-2.006836 1.208496-3.156738 1.215821-1.149903 3.339844-1.149903 1.933594 0 3.09082 1.164551 1.164551 1.164551 1.164551 3.112793zm-2.695312-.871582q0-.74707-.439453-1.201172-.432129-.461426-1.135254-.461426-.761719 0-1.237793.432129-.476075.424805-.593262 1.230469z"/></g><path d="m32.149701 17.830496-2.583645 6.834431h5.176728zm-1.074941-1.830496h2.159322l5.365324 13.733297h-1.980164l-1.282397-3.523098h-6.345987l-1.282396 3.523098h-2.008462z"/><path d="m46.484655 24.554587c-1.367504 0-2.314937.156381-2.842309.4691-.527378.312744-.79107.846207-.791067 1.600531-.000003.600926.196233 1.079201.588702 1.434936.398596.349536.93823.524277 1.618921.524277.938225 0 1.689431-.33114 2.2536-.993383.570298-.668445.85545-1.554576.855455-2.658354v-.377122h-1.683302m3.375815-.699095v5.87782h-1.692513v-1.563791c-.386333.625518-.867715 1.088547-1.444146 1.388953-.576448.294363-1.281649.441541-2.115637.441541-1.054761 0-1.894881-.29434-2.520359-.883084-.619365-.594799-.92905-1.38891-.929048-2.382374-.000002-1.158986.386336-2.032776 1.159007-2.621518.77879-.588677 1.937785-.883043 3.476995-.883043h2.373188v-.165602c-.000005-.778779-.257556-1.379744-.77267-1.80285-.508983-.429263-1.226453-.643897-2.152424-.64391-.588693.000013-1.162067.07049-1.7201.211572-.558037.14104-1.094612.352591-1.609718.634671v-1.563706c.619355-.239197 1.22032-.41698 1.80288-.533479.582563-.122679 1.149804-.184017 1.701703-.184017 1.490144 0 2.60315.386315 3.339032 1.159038.735859.7726 1.103801 1.943902 1.10381 3.513779"/></g></svg>