<svg height="96" width="96" xmlns="http://www.w3.org/2000/svg" xmlns:xlink="http://www.w3.org/1999/xlink"><linearGradient id="a"><stop offset="0" stop-color="#fff"/><stop offset="1" stop-color="#fff" stop-opacity="0"/></linearGradient><linearGradient id="b" gradientTransform="matrix(1.0058652 0 0 .994169 100 0)" gradientUnits="userSpaceOnUse" x1="45.447727" x2="45.447727" y1="92.539597" y2="7.01654"><stop offset="0"/><stop offset="1" stop-opacity=".588235"/></linearGradient><linearGradient id="c" gradientTransform="matrix(.88095236 0 0 .88095242 102.24686 -91.378936)" gradientUnits="userSpaceOnUse" x1="32.251034" x2="32.251034" xlink:href="#b" y1="6.131708" y2="90.238609"/><linearGradient id="d" gradientTransform="matrix(.85714286 0 0 .85714286 103.38971 -90.236078)" gradientUnits="userSpaceOnUse" x1="32.251034" x2="32.251034" xlink:href="#b" y1="6.131708" y2="90.238609"/><linearGradient id="e" gradientTransform="matrix(0 -1.038889 .91666666 0 4.000007 93.23334)" gradientUnits="userSpaceOnUse" x1="7.3709" x2="23.76619" y1="51.470146" y2="51.433136"><stop offset="0" stop-color="#133e6a"/><stop offset="1" stop-color="#285d96"/></linearGradient><linearGradient id="f" gradientTransform="matrix(.88966473 0 0 -.88897608 101.82866 91.764071)" gradientUnits="userSpaceOnUse" x1="32.251034" x2="32.251034" xlink:href="#b" y1="6.131708" y2="90.238609"/><linearGradient id="g" gradientTransform="matrix(.88668581 0 0 -.88621557 101.97166 91.631566)" gradientUnits="userSpaceOnUse" x1="32.251034" x2="32.251034" xlink:href="#b" y1="6.131708" y2="90.238609"/><linearGradient id="h" gradientTransform="matrix(.88419911 0 0 -.88396282 102.09102 91.52343)" gradientUnits="userSpaceOnUse" x1="32.251034" x2="32.251034" xlink:href="#b" y1="6.131708" y2="90.238609"/><linearGradient id="i" gradientUnits="userSpaceOnUse" x1="78.04289384" x2="78.04289384" y1="-43.8124403" y2="-113.82267585329"><stop offset="0" stop-color="#3e6c9c"/><stop offset="1" stop-color="#5587b1"/></linearGradient><radialGradient id="j" cx="48" cy="90.171875" gradientTransform="matrix(1.0608702 0 0 .91666666 -2.921761 4.342447)" gradientUnits="userSpaceOnUse" r="42" xlink:href="#a"/><linearGradient id="k" gradientTransform="matrix(.91666731 0 0 .92043332 3.999996 4.504949)" gradientUnits="userSpaceOnUse" x1="36.357143" x2="36.357143" xlink:href="#a" y1="6" y2="63.893143"/><linearGradient id="l" gradientTransform="matrix(2.5120358 0 0 2.5572499 -16.740539 4.83188)" gradientUnits="userSpaceOnUse" x1="32.891998" x2="36.358002" y1="8.059" y2="5.4565"><stop offset="0" stop-color="#77b0e2"/><stop offset="1" stop-color="#5386bb"/></linearGradient><linearGradient id="m" gradientUnits="userSpaceOnUse" x1="40.237554" x2="40.237554" y1="83.267767" y2="8.047759"><stop offset="0" stop-color="#94c4e0"/><stop offset="1" stop-color="#5a97c7"/></linearGradient><linearGradient id="n" gradientTransform="matrix(1.037083 .14898509 -.15896024 .97200342 11.601829 -3.999178)" gradientUnits="userSpaceOnUse" x1="43.700191" x2="87.732079" y1="82.473648" y2="6.208179"><stop offset="0"/><stop offset="1" stop-opacity="0"/></linearGradient><linearGradient id="o" gradientUnits="userSpaceOnUse" x1="60.899021" x2="68.2229" y1="35.60585" y2="39.53442"><stop offset="0" stop-color="#1a1a1a"/><stop offset=".35185185" stop-color="#636363"/><stop offset=".5" stop-color="#c7c7c7"/><stop offset=".64999998" stop-color="#636363"/><stop offset="1"/></linearGradient><linearGradient id="p" gradientTransform="matrix(.72549189 -.19431313 .19481343 .72674756 26.254071 18.267752)" gradientUnits="userSpaceOnUse" x1="24.248737" x2="13.405647" y1="77.502068" y2="67.6745"><stop offset="0" stop-color="#c38125"/><stop offset=".62962961" stop-color="#c68d31"/><stop offset="1" stop-color="#fffce6"/></linearGradient><linearGradient id="q" gradientUnits="userSpaceOnUse" x1="58.651787" x2="47.450871" xlink:href="#a" y1="68.171875" y2="57.993305"/><radialGradient id="r" cx="59.85154" cy="41.7043" gradientTransform="matrix(1 0 0 .125 0 36.491262)" gradientUnits="userSpaceOnUse" r="18.182745" xlink:href="#a"/><g transform="matrix(1.1 0 0 1.1 -110.98583 -5.502542)"><path d="m114.1583 89.09322c-4.78901 0-8.71691-3.971039-8.71691-8.812629v-62.374743c0-4.841588 3.9279-8.812628 8.71691-8.812628h38.74855l30.7169 30.812628v40.374743c0 4.84159-3.9279 8.812629-8.7169 8.812629z" fill="url(#f)" opacity=".08"/><path d="m114.2634 88.09322c-4.30575 0-7.82165-3.55537-7.82165-7.909474v-62.181052c0-4.354104 3.5159-7.909474 7.82165-7.909474h38.36008l30 30v40.090526c0 4.354104-3.51589 7.909474-7.82165 7.909474z" fill="url(#g)" opacity=".1"/><path d="m114.35075 87.09322c-3.80788 0-6.90909-3.13685-6.90909-6.98851v-62.02298c0-3.851661 3.10121-6.98851 6.90909-6.98851h38.27273l29 29v40.01149c0 3.85166-3.1012 6.98851-6.90909 6.98851z" fill="url(#h)" opacity=".2"/><path d="m114.46511-86.093224h60.13512c3.33689 0 6.02326 2.717977 6.02326 6.094118v38.905886l-29.00001 28.999996h-37.15837c-3.33688 0-6.02325-2.717976-6.02325-6.094117v-61.811765c0-3.376141 2.68637-6.094118 6.02325-6.094118z" fill="url(#c)" opacity=".3" transform="scale(1 -1)"/><path d="m114.58491-85.093224h59.89572c2.84914 0 5.07622 2.294494 5.14286 5.142858v38.857146l-28.00001 27.999996h-37.03857c-2.84914 0-5.14285-2.293714-5.14285-5.142857v-61.714285c0-2.849143 2.29371-5.142858 5.14285-5.142858z" fill="url(#d)" opacity=".45" transform="scale(1 -1)"/></g><path d="m48.042892-113.81244h37.999998l27 27v38.000001c0 2.77-2.23 5-5 5h-59.999998c-2.77 0-5-2.23-5-5v-60.000001c0-2.77 2.23-5 5-5z" fill="url(#i)" transform="matrix(1.1 0 0 1.1 -37.847176 133.19368)"/><g transform="matrix(.66768896 0 0 .66768896 5.879298 9.560951)"><path d="m23.593888.84501927c16.028871 21.14300173-17.0203861 40.53518273-12.500138 57.40498073 4.400555 16.423093 24.273251 15.595561 31.4375 24.53125-4.945125-9.603352-11.708407-9.117987-14.375-18.125-6.780458-22.902515 63.328444-39.686243 40.437592-63.99868457z" fill="url(#m)"/><path d="m90 15.625c-7.159846 8.93153-15.447803 16.153769-21.8125 24.71875-4.155827 5.592495-6.804396 10.995428-7.78125 14.9375-.0044.01801-.02686.04455-.03125.0625-.833902.97909-6.790683 7.975987-9.75 12-3.230781 4.393139-8.125 15.125-8.125 15.125l.875.5625c5.700905-5.22894 17.875-11.375 17.875-11.375l.40625-.21875-.15625-.40625s-.09207-.178891-.125-.71875c-.03294-.539858-.0072-1.404602.28125-2.59375.62682-2.58391 2.837298-5.531402 4.34375-7.34375 3.83462-2.041377 8.944757-6.70411 13.4375-12.75 3.861807-5.196834 7.081801-10.841083 10.5625-16.65625z" fill="url(#n)" opacity=".2"/><path d="m71.440927 41.872208c-4.973511 10.133394-11.991749 17.339878-14.546844 15.967164-2.725395-1.46425-1.407813-10.803266 3.695386-21.200889 5.101999-10.395185 11.200507-20.431431 18.276979-31.0112791 0 0-.676505 1.0928648 1.687226 3.0510466l3.045492 2.5229725c10.12816 8.390455-7.18472 20.537586-12.158239 30.670985z" fill="url(#o)" stroke="#000"/><path d="m60.457628 78.05204a5.4800777 7.7781744 0 1 1 -10.960155 0 5.4800777 7.7781744 0 1 1 10.960155 0z" fill="none" stroke="#2e3436" stroke-linecap="round" stroke-width="3.537709" transform="matrix(.63302987 -.16954844 .23046163 .42762767 6.312337 29.06751)"/><g stroke="#c17d11"><path d="m42.944049 82.580725s2.9568-11.53222 5.258149-16.279482c2.301347-4.747261 7.742418-14.190941 7.742418-14.190941s1.569862-2.348209 4.104002-1.099201c2.53414 1.249007 1.802655 3.648061 1.802655 3.648061s-3.821624 5.755643-4.139564 10.196655c-.183273 2.559974.416839 3.606144.416839 3.606144s-10.524782 7.913669-15.184499 14.118764z" fill="url(#p)" fill-rule="evenodd"/><path d="m-27.930719 71.864853a1.237437 3.0052039 0 1 1 -2.474874 0 1.237437 3.0052039 0 1 1 2.474874 0z" fill-opacity=".6" stroke-linecap="round" stroke-width=".638747" transform="matrix(.49816294 .21338024 -.22864746 .45310119 80.994343 39.610695)"/><path d="m43.003422 82.289431c2.086404-5.378172 3.575502-9.907884 6.18441-14.875218" fill="#c17d11" fill-rule="evenodd" stroke-width=".342977"/></g><path d="m59.6875 52.65625c-.218866.177715-.364551.362516-.375.375-.000061.000107-.03118-.000123-.03125 0-.07544.130951-5.410002 9.430862-7.625 14-.754704 1.556817-1.65246 4.069602-2.46875 6.65625 3.376613-3.039337 6.273524-5.217456 7.0625-5.8125-.150656-.740855-.255031-1.776466-.15625-3.15625.188582-2.634122 1.305989-5.290338 2.34375-7.375.939337-1.886948 1.678929-2.997095 1.84375-3.25.011-.04406.05429-.211139 0-.53125-.05032-.296727-.105839-.58654-.59375-.90625z" fill="url(#q)" fill-rule="evenodd"/><path d="m66.65625 29.34375c-.77115 0-1.522939.133966-2.25.34375-.34567.578188-.664891 1.168334-1 1.75.410501-.06213.827002-.09375 1.25-.09375 3.561545 0 6.757094 2.358001 8.84375 6.03125.439471-1.027772.86359-2.078075 1.28125-3.125-2.065732-3.019569-4.942489-4.90625-8.125-4.90625z" fill="#fff" opacity=".6"/><path d="m78.034285 41.7043a18.182745 2.2728431 0 1 1 -36.36549 0 18.182745 2.2728431 0 1 1 36.36549 0z" fill="url(#r)" transform="matrix(.46309937 -.88630636 .88630636 .46309937 .97992 69.37695)"/></g><path d="m15.000003 8.027049c-3.047002 0-5.500003 2.463076-5.500003 5.522605v1.840861 62.389952c4.241885 8.95164 1.09827 6.36815.916671.920432v-62.389948-1.840872c0-2.560503 2.033307-4.602169 4.583336-4.602169h1.833334 38.133364 1.833337l28.783339 28.802169v1.840872 38.189948c-2.580149 6.7699.916619 7.667838.916619-.920434v-38.18995-1.840872l-29.700002-29.722594z" fill="url(#k)" opacity=".3"/><path d="m9.500007 80.766667c0 3.453266 2.453 6.233333 5.5 6.233333h66c3.047 0 5.5-2.780067 5.5-6.233333v-12.766667h-77z" fill="url(#e)"/><path d="m15.000007 87c-3.047 0-5.5-2.463079-5.5-5.522599v-1.999431c.03752-11.191654.916669-11.430318.916669-.920486v1.840867c0 2.560505 2.033306 4.602562 4.583334 4.601891l1.833334-.000484h62.333322 1.833337c2.550031 0 4.583337-2.040903 4.583337-4.601407v-1.840868c.08998-12.477113.916685-8.207579.916685.920435v1.999429c-.000022 3.059574-2.453022 5.522653-5.500022 5.522653z" fill="url(#j)" opacity=".2"/><g fill-rule="evenodd"><path d="m47.685912 9.834481c5.274067-.03438 1.929709 31.844348 1.929709 31.844348s36.911259-7.358947 36.911259 5.214171c0-3.062713-.0092-6.512627-.0092-6.512627l-30.39488-30.541876z" opacity=".2" stroke-width="2.048254"/><path d="m48.835337 9.87792c5.757464-.03438 2.433361 30.193985 2.433361 30.193985s35.065058-6.794184 35.065058 5.440095c0-2.980175-.009-6.337116-.009-6.337116l-29.33919-29.293057z" opacity=".2" stroke-width="1.993055"/><path d="m50.317394 9.897096c5.805406-.0075 2.322169 28.180811 2.322169 28.180811s33.868216-5.549338 33.868216 6.222093c0-2.867429-.0087-3.897369-.0087-3.897369l-30.561253-30.525166z" opacity=".2" stroke-width="1.921337"/><path d="m51.673739 9.812888c6.166533 0 2.221153 26.627352 2.221153 26.627352s32.612519-4.795671 32.612519 6.55976c0-2.766094-.0084-3.681888-.0084-3.681888l-29.558958-29.52416z" fill="url(#l)" stroke-width="1.853437"/></g><path d="m9.500007 68h77v1h-77z" opacity=".3"/><path d="m9.500007 67h77v1h-77z" fill="#fff" opacity=".1"/><g fill="#fff" transform="matrix(.88142887 0 0 .88142887 5.84829 2.551412)"><path d="m40.983398 79.332909v2.314453q-.900878-.402832-1.757812-.60791-.856934-.205079-1.618652-.205079-1.010743 0-1.494141.278321-.483398.27832-.483398.864258 0 .439453.322265.688476.32959.241699 1.186524.417481l1.201171.241699q1.823731.366211 2.592774 1.113281.769043.74707.769043 2.124024 0 1.809082-1.07666 2.695312-1.069336.878906-3.273926.878906-1.040039 0-2.087402-.197754-1.047364-.197754-2.094727-.585937v-2.380371q1.047363.55664 2.021484.842285.981446.27832 1.889649.27832.922851 0 1.413574-.307617.490723-.307617.490723-.878906 0-.512695-.336914-.791016-.32959-.27832-1.325684-.498047l-1.091309-.241699q-1.640625-.351562-2.402343-1.120605-.754395-.769043-.754395-2.072754 0-1.633301 1.054688-2.512207 1.054687-.878907 3.032226-.878907.900879 0 1.853028.139161.952148.131836 1.970214.402832z"/><path d="m44.184082 78.98867h2.819824v8.803711h4.951172v2.131348h-7.770996z"/><path d="m60.370605 87.931541h-4.409179l-.695801 1.992188h-2.834473l4.050293-10.935059h3.361817l4.050293 10.935059h-2.834473zm-3.706054-2.028808h2.995605l-1.49414-4.350586z"/></g></svg>