<svg height="96" width="96" xmlns="http://www.w3.org/2000/svg" xmlns:xlink="http://www.w3.org/1999/xlink"><linearGradient id="a"><stop offset="0"/><stop offset="1" stop-opacity="0"/></linearGradient><linearGradient id="b" gradientTransform="matrix(2.1683519 0 0 2.2464645 141.9485 -68.590473)" gradientUnits="userSpaceOnUse" x1="-51.786404" x2="-51.786404" xlink:href="#a" y1="53.514328" y2="3.633682"/><linearGradient id="c" gradientTransform="matrix(2.6658408 0 0 2.6469079 -143.33283 -66.049513)" gradientUnits="userSpaceOnUse" x1="97.538795" x2="97.538795" y1="8.810323" y2="44.260689"><stop offset="0" stop-color="#fff"/><stop offset=".1088333" stop-color="#fff" stop-opacity=".235294"/><stop offset=".97909725" stop-color="#fff" stop-opacity=".156863"/><stop offset="1" stop-color="#fff" stop-opacity=".392157"/></linearGradient><linearGradient id="d" gradientTransform="matrix(.2134205 0 0 .06641689 -13.147881 75.518568)" gradientUnits="userSpaceOnUse" x1="302.85715" x2="302.85715" y1="366.64789" y2="609.50507"><stop offset="0" stop-opacity="0"/><stop offset=".5"/><stop offset="1" stop-opacity="0"/></linearGradient><radialGradient id="e" cx="605.71429" cy="486.64789" gradientTransform="matrix(.08277507 0 0 .06641689 65.628912 75.518568)" gradientUnits="userSpaceOnUse" r="117.14286" xlink:href="#a"/><radialGradient id="f" cx="605.71429" cy="486.64789" gradientTransform="matrix(-.08277505 0 0 .06641689 62.347829 75.518568)" gradientUnits="userSpaceOnUse" r="117.14286" xlink:href="#a"/><linearGradient id="g" gradientTransform="matrix(1 0 0 1.0266674 147 -70.186593)" gradientUnits="userSpaceOnUse" x1="-91" x2="-91" y1="43.999817" y2="119.05979"><stop offset="0" stop-color="#ddc08b"/><stop offset="1" stop-color="#c29656"/></linearGradient><linearGradient id="h" gradientTransform="matrix(3.036796 0 0 2.6909701 -8.883114 -65.364613)" gradientUnits="userSpaceOnUse" x1="22.934725" x2="22.934725" y1="49.629246" y2="36.599415"><stop offset="0" stop-color="#0a0a0a" stop-opacity=".498"/><stop offset="1" stop-color="#0a0a0a" stop-opacity="0"/></linearGradient><linearGradient id="i" gradientTransform="matrix(2.6658408 0 0 2.7170994 -143.33283 -69.198823)" gradientUnits="userSpaceOnUse" x1="97.538795" x2="97.538795" y1="16.962049" y2="44.260689"><stop offset="0" stop-color="#fff"/><stop offset=".0221225" stop-color="#fff" stop-opacity=".235294"/><stop offset=".97909725" stop-color="#fff" stop-opacity=".156863"/><stop offset="1" stop-color="#fff" stop-opacity=".392157"/></linearGradient><g transform="matrix(.72580649 0 0 .72580649 1.768729 45.445439)"><path d="m12.999997-42.968593c-1.108 0-2 .892-2 2v5.96875h-3.0000004c-1.108 0-2 .892-2 2v11c0 1.108.892 2 2 2h112.0000034c1.108 0 2-.892 2-2v-11c0-1.108-.892-2-2-2h-62.999999v-5.96875c0-1.108-.892-2-2-2z" fill="#cecece"/><path d="m13.662787-43.499683c-1.87818.0205-3.16279.9143-3.16279 2.67225v5.32743c-.9606004 0-1.4771004-.003-2.1044004 0-1.67856.008-2.87762.94491-2.87762 2.83298.0936 27.4976499-.018 28.9219399-.018 31.2565499 3.90581 0 117.0000034-9.8866399 117.0000034-14.1422999v-17.14209c0-1.75796-1.15786-2.82564-3.03605-2.80514h-61.963949v-5.19887c0-1.75795-1.18743-2.80081-2.94827-2.80081h-40.888944z" fill="none" opacity=".8" stroke="url(#b)"/><path d="m13.499997-42.499843c-1.108 0-2 .892-2 2v6h-3.0000004c-1.108 0-2 .892-2 2v11c0 1.108.892 2 2 2h111.0000034c1.108 0 2-.892 2-2v-11c0-1.108-.892-2-2-2h-62.999999v-6c0-1.108-.892-2-2-2z" fill="none" stroke="url(#c)" stroke-linecap="round" stroke-linejoin="round"/><g transform="matrix(1.0027339 0 0 .9919518 -.163313 -57.066403)"><path d="m12.462574 99.870178h103.05159v16.129816h-103.05159z" fill="url(#d)" opacity=".3"/><path d="m115.51417 99.870734v16.128926c4.26271.0304 10.30516-3.61367 10.30516-8.0655s-4.75687-8.063426-10.30516-8.063426z" fill="url(#e)" opacity=".3"/><path d="m12.462574 99.870734v16.128926c-4.2627113.0304-10.3051588-3.61367-10.3051588-8.0655s4.7568636-8.063426 10.3051588-8.063426z" fill="url(#f)" opacity=".3"/></g><path d="m6.2499966-24.500053 115.4999934.001c1.66861 0 2.75001 1.18375 2.75001 2.65543l-2.71648 71.78068c.0386 1.86211-.55015 2.60044-2.48884 2.56139l-109.9330434-.0467c-1.66859 0-3.35116-1.09895-3.35116-2.57064l-2.51048-71.72469c0-1.47169 1.0814-2.65647 2.75-2.65647z" fill="url(#g)"/><path d="m5.7727162-25.000063 116.4545438.001c1.6824 0 2.77274 1.19912 2.77274 2.68993l-2.73893 72.7129c.0389 1.88629-.5547 2.63421-2.50941 2.59465l-110.8415834-.0474c-1.6823804 0-3.3788504-1.11323-3.3788504-2.60404l-2.5312294-72.65607c0-1.4908 1.09034-2.69097 2.7727194-2.69097z" fill="url(#h)" opacity=".4"/><path d="m6.2499966-23.499853c-2.84882.29656-1.40933 3.76689-1.63989 5.72017.78584 22.5479499 1.57466 45.09583 2.35864 67.64381 1.18868 2.48974 4.4300904 1.28205 6.6383204 1.57433 35.235146.0205 70.470294.0412 105.705433.0617 2.566-.16531 1.15721-3.81803 1.65357-5.65555.85465-22.56949 2.54292-67.57135 2.54292-67.57135 0-1.16209-.77992-1.7731-2.20738-1.7731-37.089309 0-77.962299 0-115.0516134 0z" fill="none" opacity=".5" stroke="url(#i)" stroke-linecap="round" stroke-linejoin="round"/><path d="m6.2499966-24.500053 115.4999934.001c1.66861 0 2.75001 1.18375 2.75001 2.65543l-2.71648 71.78068c.0386 1.86211-.55015 2.60044-2.48884 2.56139l-109.9330434-.0467c-1.66859 0-3.35116-1.09895-3.35116-2.57064l-2.51048-71.72469c0-1.47169 1.0814-2.65647 2.75-2.65647z" fill="none" opacity=".3" stroke="#000" stroke-linecap="round" stroke-linejoin="round"/><path d="m63.696414-7.1664493-23.000001 23.0000013 4.451613 4.451614 3.709681-3.70968v17.806468h11.870973v-8.903227c0-1.64413 1.323604-2.967747 2.967734-2.967747 1.644129 0 2.96776 1.323617 2.96776 2.967747v8.903227h11.870961v-17.806468l3.70968 3.70968 4.4516-4.451614zm8.903227 2.967734v2.225813l5.935494 5.935494v-8.161307z" fill="#9d6a09"/></g></svg>