<svg height="96" width="96" xmlns="http://www.w3.org/2000/svg" xmlns:xlink="http://www.w3.org/1999/xlink"><linearGradient id="a"><stop offset="0" stop-color="#fff"/><stop offset="1" stop-color="#fff" stop-opacity="0"/></linearGradient><linearGradient id="b" gradientTransform="matrix(1.0238095 0 0 1.0119048 -1.142857 -98.071429)" gradientUnits="userSpaceOnUse" x1="32.251034" x2="32.251034" y1="6.131708" y2="90.238609"><stop offset="0"/><stop offset="1" stop-opacity=".588235"/></linearGradient><linearGradient id="c" gradientTransform="matrix(1.8576982 0 0 2.1225772 3.927063 .571947)" gradientUnits="userSpaceOnUse" x1="12.578789" x2="12.578789" xlink:href="#a" y1="2.913743" y2="43.810863"/><linearGradient id="d" gradientTransform="matrix(1.5405634 0 0 1.5027205 -1.132737 -2.625232)" gradientUnits="userSpaceOnUse" x1="33.579403" x2="33.579403" xlink:href="#e" y1="5.708645" y2="16.323294"/><linearGradient id="e"><stop offset="0" stop-color="#262626"/><stop offset="1" stop-color="#303030"/></linearGradient><linearGradient id="f" gradientTransform="matrix(1.890625 0 0 2.2781495 3.139078 -9.992708)" gradientUnits="userSpaceOnUse" x1="16.91585" x2="16.91585" xlink:href="#e" y1="7.000642" y2="14"/><linearGradient id="g" gradientTransform="matrix(1.8338353 0 0 .79955926 4.514517 13.800151)" gradientUnits="userSpaceOnUse" x1="24.682861" x2="24.682861" xlink:href="#h" y1="9.241672" y2="13.523027"/><linearGradient id="h"><stop offset="0"/><stop offset="1" stop-opacity="0"/></linearGradient><radialGradient id="i" cx="26.616697" cy="-2.064498" gradientTransform="matrix(-.00000003 -2.4357554 2.6407402 0 71.136419 123.79768)" gradientUnits="userSpaceOnUse" r="23"><stop offset="0" stop-color="#9bc0ff"/><stop offset="1" stop-color="#4d70ff"/></radialGradient><clipPath id="j"><path d="m30.916245 135.971c-.937266.54113-1.228304 1.74752-.677924 2.7008l1.9375 3.35585c-1.418086 1.4141-2.622273 3.01198-3.595451 4.71l-3.783634-.99095c-.531629-.14245-1.037926-.11751-1.476221.13061-.438159.24835-.796545.66758-.936598 1.19027l-1.978825 7.38507c-.280102 1.04538.365953 2.06538 1.429126 2.35032l3.772195 1.03363c-.0062 1.95711.237711 3.94301.758755 5.87671l-3.355849 1.9375c-.95328.55037-1.304431 1.74066-.763301 2.67792l3.8125 6.60344c.54113.93727 1.747521 1.2283 2.700801.67793l3.355849-1.9375c1.414106 1.41808 3.011983 2.62227 4.709995 3.59545l-.990945 3.78363c-.284894 1.06325.275431 2.13275 1.320874 2.41282l7.385075 1.97883c1.045371.28011 2.065425-.36588 2.35032-1.42913l1.033633-3.77219c1.957118.006 3.943015-.23771 5.876701-.75876l1.9375 3.35585c.550375.95328 1.740658 1.30443 2.677924.7633l6.603444-3.8125c.937258-.54113 1.228299-1.74752.677924-2.7008l-1.9375-3.35585c1.418087-1.4141 2.622272-3.01197 3.595452-4.70999l3.783633.99094c1.063244.2849 2.132709-.27549 2.41282-1.32087l1.978825-7.38508c.280102-1.04537-.365953-2.06538-1.429127-2.35032l-3.772195-1.03363c.0062-1.95711-.237701-3.94301-.758754-5.8767l3.355848-1.9375c.953272-.55037 1.304431-1.74066.763301-2.67793l-3.8125-6.60344c-.54113-.93726-1.747529-1.2283-2.700801-.67792l-3.355849 1.9375c-1.414093-1.4181-3.011984-2.62228-4.709995-3.59546l.990945-3.78363c.284894-1.06324-.275422-2.13275-1.320874-2.41282l-7.385074-1.97882c-1.045381-.28011-2.065426.36588-2.35032 1.42912l-1.033633 3.7722c-1.95712-.006-3.943015.2377-5.876702.75875l-1.9375-3.35585c-.55038-.95328-1.740666-1.30442-2.677924-.7633zm10.051722 9.7851c6.696096-3.866 15.258361-1.57175 19.124356 5.12435s1.57174 15.25836-5.124356 19.12436c-6.696096 3.86599-15.258361 1.57174-19.124356-5.12436s-1.57174-15.25836 5.124356-19.12435z" display="block"/></clipPath><linearGradient id="k" gradientUnits="userSpaceOnUse" x1="48.233639" x2="126.13924" xlink:href="#h" y1="48.047016" y2="66.232674"/><linearGradient id="l" gradientUnits="userSpaceOnUse" x1="48.055065" x2="126.67282" xlink:href="#h" y1="48.031517" y2="62.838562"/><linearGradient id="m" gradientUnits="userSpaceOnUse" x1="47.997307" x2="127.05216" xlink:href="#h" y1="48.028725" y2="60.289631"/><linearGradient id="n" gradientUnits="userSpaceOnUse" x1="47.99826" x2="127.41583" xlink:href="#h" y1="48.028797" y2="57.664623"/><linearGradient id="o" gradientUnits="userSpaceOnUse" x1="48.233643" x2="126.13924" xlink:href="#a" y1="48.04702" y2="66.232674"/><linearGradient id="p" gradientUnits="userSpaceOnUse" x1="48.055069" x2="126.67282" xlink:href="#a" y1="48.031521" y2="62.838566"/><linearGradient id="q" gradientUnits="userSpaceOnUse" x1="47.997311" x2="127.05216" xlink:href="#a" y1="48.028728" y2="60.289635"/><linearGradient id="r" gradientUnits="userSpaceOnUse" x1="47.998264" x2="127.41583" xlink:href="#a" y1="48.028801" y2="57.664627"/><linearGradient id="s" gradientUnits="userSpaceOnUse" x1="41.73630567474" x2="41.73630567474" y1="24.1976112" y2="80.49868073468"><stop offset="0" stop-color="#f0f0f0"/><stop offset="1" stop-color="#aaa"/></linearGradient><g fill="url(#b)"><path d="m12-95.03125c-5.5110903 0-10.03125 4.52016-10.03125 10.03125v71c0 5.5110902 4.5201598 10.03125 10.03125 10.03125h72c5.51109 0 10.03125-4.5201597 10.03125-10.03125v-71c0-5.51109-4.52016-10.03125-10.03125-10.03125z" opacity=".08" transform="scale(1 -1)"/><path d="m12-94.03125c-4.971633 0-9.03125 4.059617-9.03125 9.03125v71c0 4.9716329 4.0596171 9.03125 9.03125 9.03125h72c4.971633 0 9.03125-4.059617 9.03125-9.03125v-71c0-4.971633-4.059617-9.03125-9.03125-9.03125z" opacity=".1" transform="scale(1 -1)"/><path d="m12-93c-4.4091333 0-8 3.590867-8 8v71c0 4.4091333 3.5908667 8 8 8h72c4.409133 0 8-3.5908667 8-8v-71c0-4.409133-3.590867-8-8-8z" opacity=".2" transform="scale(1 -1)"/><rect height="85" opacity=".3" rx="7" transform="scale(1 -1)" width="86" x="5" y="-92"/></g><g fill-rule="evenodd"><rect fill="url(#i)" height="84.565414" rx="4.921875" ry="5.979502" stroke="#505050" stroke-linecap="round" stroke-linejoin="round" stroke-width=".776649" width="85.076622" x="5.975769" y="7.095784"/><path d="m6.326591 21.189417h84.375v3.416858h-84.375z" fill="url(#g)" opacity=".2"/><path d="m11.646889 7.0948754s74.37007.019572 74.37007.019572c2.95868 0 5.03619 2.8731724 5.03619 6.0525416v7.595324h-85.0781298s-.00001-7.595324-.00001-7.595324c0-3.3887953 2.28536-6.0721073 5.6718798-6.0721073z" fill="url(#d)" stroke="url(#f)" stroke-width=".774997"/></g><rect height="82.855606" rx="4.21875" ry="5.125288" style="opacity:.4;fill:none;stroke-width:.777888;stroke-linecap:round;stroke-linejoin:round;stroke:url(#c)" width="83.669243" x="6.679458" y="7.950726"/><g transform="translate(-.045238 3.928091)"><g fill="#bebebe"><path d="m8 2c-3.8659929 0-7 2.4101491-7 6 0 3.589851 3.1340071 6 7 6 1.064957 0 2.065093-.229965 2.96875-.625l4.03125 1.625-1.4375-3.5625c.903172-1.094701 1.4375-1.951935 1.4375-3.4375 0-3.5898509-3.134007-6-7-6z" transform="matrix(.30769231 0 0 .30769231 81.77994453953 8.26261739154)"/><path d="m17.724579 9.1678378c-.750941-.781137-1.968366-.781097-2.719282.000016-.000264.000272-.000589.000624-.000923.0008l-.719619.7485578-.717394-.7462378c-.000106-.000112-.000106-.000112-.000177-.000184-.750918-.781121-1.965381-.784161-2.71625-.0032-.750986.7811848-.750979 2.0475702-.000084 2.8286592.750825.781025 1.968251.781033 2.719236-.000152.000288-.000304.000527-.000552.000923-.0008l.722603-.751662.717371.746222c.000163.000168.000225.000232.0003.000312.750826.781017 1.962328.787185 2.713197.0064.750917-.781121.750932-2.0475304.000107-2.8285472zm-4.797768 2.1620922c-.396231.410986-1.03812.41061-1.434002-.0008-.396298-.412235-.399252-1.083723-.0029-1.4959734.396445-.4123858 1.047924-.4154978 1.444221-.0032.000314.000336.000642.000672.000923.0008l.614894.6396214c.0002.000208.000312.000328.000462.000488.05598.05824.05607.152581.000176.210714-.000106.000112-.000176.00004-.000326.0002l-.623405.648478-.000022-.000024zm2.717492.0016c-.000225-.000232-.000463-.00048-.000706-.000728l-.615277-.640077c-.000138-.000144-.000301-.000312-.000362-.000384-.05598-.05824-.05598-.152437.000048-.210714l.000023-.000024.620397-.6453504c.396567-.4111138 1.038235-.4107218 1.434141.0008.396297.4122354.399297 1.0838274.0029 1.4961414-.39633.412274-1.044894.41221-1.44119-.000024z"/><path d="m37.389571 11.961902c.114639.000001.208435-.0087.28139-.02605.07643-.02084.137219-.0469.182382-.07816.04516-.03474.07643-.07469.0938-.119852.01737-.04516.02605-.09553.02605-.151116-.000002-.118114-.05559-.215384-.166749-.291812-.111168-.0799-.302235-.165011-.573202-.255335-.118115-.04169-.236229-.08858-.354343-.140695-.118115-.05558-.22407-.123324-.317866-.203226-.0938-.08337-.170224-.182381-.229281-.297023-.05906-.118112-.08859-.260544-.08859-.4272964-.000001-.166747.03126-.316126.0938-.4481392.06253-.1354808.151116-.250121.265757-.343921.11464-.093793.253598-.165009.416874-.2136478.163275-.052106.347394-.07816.552358-.078164.243175.0000037.453348.026058.630522.078164.177169.052113.323075.1094329.437717.1719605l-.234491.6409435c-.100747-.05211-.21365-.09727-.33871-.135484-.12159-.04168-.269233-.062528-.442929-.062531-.194542.000003-.335237.027795-.422084.083375-.08338.05211-.125064.13375-.125063.244913-.000001.06601.01563.1215914.0469.1667504.03126.04516.07469.08685.130273.125062.05906.03474.125061.06774.198015.09901.07643.02779.1598.05732.250124.08859.187592.06948.350867.13896.489827.208437.138956.06601.253596.144171.343921.234492.09379.09032.163273.196279.208437.317866.04516.12159.06774.269232.06774.442929-.000003.336973-.118117.599256-.354343.786849-.236231.184119-.59231.276179-1.068239.276179-.159803 0-.303972-.01042-.432507-.03127-.128537-.01737-.243177-.03995-.343921-.06774-.09727-.02779-.182383-.05732-.255335-.08859-.06948-.03127-.128536-.06079-.177172-.08859l.229281-.646155c.107692.05906.239702.112905.39603.161539.159801.04516.354342.06774.583624.06774"/><path d="m41.725222 12.488205c-.132013.03821-.302236.07295-.51067.104219-.208439.03474-.427298.05211-.656577.05211-.232756 0-.427297-.03126-.583623-.0938-.152855-.06253-.274443-.149379-.364765-.260546-.09032-.11464-.154591-.250124-.192804-.406452-.03821-.156327-.05732-.328287-.05732-.515881v-1.5268014h.776427v1.4330044c-.000001.250126.033.430771.09901.541936.066.111167.189329.16675.369975.16675.05558 0 .114639-.0017.177172-.0052.06253-.0069.118112-.01389.166749-.02084v-2.1156354h.776428v2.6471494"/><path d="m42.459148 9.9348526c.13201-.03821.302233-.07295.510671-.104219.208436-.03474.427294-.05211.656576-.05211.232753.000003.425557.03127.578413.0938.156325.05906.27965.1441714.369975.2553354.09032.111169.154588.243179.192804.39603.03821.152856.05732.323079.05732.510671v1.547644h-.776427v-1.453848c-.000002-.250122-.03301-.427294-.09901-.531514-.06601-.104216-.189332-.156325-.369975-.156328-.05559.000003-.114642.0035-.177172.01042-.06253.0035-.118115.0087-.166749.01563v2.115635h-.776428v-2.6471494"/><g transform="translate(1.287637 -.417998)"><path d="m46.496985 10.139203c.100744-.04168.204962-.08858.312655-.140695.111166-.05558.218858-.1146372.323078-.1771714.104217-.066002.203224-.1337438.297022-.2032261.09727-.072949.184118-.1493762.260546-.2292806h.541937v3.6111701h-.776428v-2.600251c-.10422.06948-.220597.13375-.349132.192804-.128537.05559-.253599.104221-.375187.145906z"/><path d="m50.281988 13.078164c-.0938 0-.192805-.0069-.297022-.02084-.104219-.01042-.204964-.02605-.302234-.0469-.09727-.02084-.185856-.04342-.265757-.06774-.0799-.02432-.142432-.0469-.187593-.06774l.151117-.646155c.09032.03821.204962.0799.343921.125062.142431.04169.317865.06253.526303.06253.239701 0 .415135-.04516.526303-.135484.111165-.09032.166748-.21191.16675-.364765-.000002-.0938-.02085-.171959-.06253-.234492-.03822-.066-.09206-.118113-.161539-.156327-.06948-.04169-.152855-.06948-.250124-.08338-.0938-.01737-.194543-.02605-.302234-.02605h-.302233v-.625311h.34392c.07643.000003.149379-.0069.218859-.02084.07295-.01389.13722-.03647.192804-.06774.05558-.03474.09901-.0799.130274-.135484.03474-.05906.05211-.132008.05211-.218859-.000002-.066-.0139-.123323-.04169-.171961-.02779-.04863-.06427-.08858-.109429-.119851-.04169-.03126-.09206-.05384-.151117-.067742-.05558-.017367-.112904-.026052-.17196-.026055-.149381.000003-.288339.022584-.416874.067742-.125063.04516-.239703.100747-.343921.166749l-.276179-.5679986c.05558-.034736.119851-.071212.192804-.1094294.07643-.03821.159801-.072949.250124-.1042185.09032-.031262.185856-.057316.286601-.078164.104218-.02084.213647-.031262.328288-.031266.21191.0000037.394292.026058.547147.078164.156326.048639.284862.1198547.385609.2136478.100742.090326.175432.1980183.224069.3230773.04863.1215904.07295.2553384.07295.4012404-.000002.142435-.03995.281393-.119851.416874-.0799.132012-.187595.232757-.323077.302234.187591.07643.33176.191069.432507.343921.104215.149381.156325.330026.156327.541936-.000002.16675-.02779.321341-.08338.463772-.05558.138958-.142434.260546-.260546.364765-.118116.100745-.269233.180645-.45335.239702-.180647.05558-.396032.08337-.646155.08337"/><path d="m53.181134 10.738459c-.000001.15633-.05037.276181-.151117.359554-.09727.0799-.208438.119853-.333499.119851-.125063.000002-.237966-.03995-.33871-.119851-.09727-.08337-.145906-.203224-.145906-.359554 0-.156325.04863-.274439.145906-.354343.100744-.08337.213647-.125059.33871-.125062.125061.000003.236228.04169.333499.125062.100744.0799.151116.198018.151117.354343m0 1.849878c-.000001.156328-.05037.276179-.151117.359554-.09727.0799-.208438.119851-.333499.119851-.125063 0-.237966-.03995-.33871-.119851-.09727-.08338-.145906-.203226-.145906-.359554 0-.156327.04863-.274441.145906-.354343.100744-.08337.213647-.125061.33871-.125062.125061.000001.236228.04169.333499.125062.100744.0799.151116.198016.151117.354343"/><path d="m54.52604 13.078164c-.0938 0-.192805-.0069-.297022-.02084-.10422-.01042-.204964-.02605-.302234-.0469-.09727-.02084-.185857-.04342-.265757-.06774s-.142432-.0469-.187593-.06774l.151117-.646155c.09032.03821.204962.0799.343921.125062.142431.04169.317865.06253.526303.06253.239701 0 .415135-.04516.526303-.135484.111165-.09032.166748-.21191.16675-.364765-.000002-.0938-.02085-.171959-.06253-.234492-.03822-.066-.09206-.118113-.161539-.156327-.06948-.04169-.152855-.06948-.250124-.08338-.0938-.01737-.194543-.02605-.302234-.02605h-.302234v-.625311h.343921c.07643.000003.149379-.0069.218859-.02084.07295-.01389.13722-.03647.192804-.06774.05558-.03474.09901-.0799.130273-.135484.03474-.05906.05211-.132008.05211-.218859-.000002-.066-.0139-.123323-.04169-.171961-.02779-.04863-.06427-.08858-.109429-.119851-.04169-.03126-.09206-.05384-.151117-.067742-.05558-.017367-.112904-.026052-.17196-.026055-.149381.000003-.288339.022584-.416874.067742-.125063.04516-.239703.100747-.343921.166749l-.276178-.5679986c.05558-.034736.119851-.071212.192804-.1094294.07643-.03821.159801-.072949.250124-.1042185.09032-.031262.185856-.057316.286601-.078164.104218-.02084.213647-.031262.328288-.031266.21191.0000037.394292.026058.547147.078164.156326.048639.284862.1198547.385609.2136478.100742.090326.175432.1980183.224069.3230773.04863.1215904.07295.2553384.07295.4012404-.000002.142435-.03995.281393-.119851.416874-.0799.132012-.187595.232757-.323077.302234.187591.07643.33176.191069.432506.343921.104216.149381.156326.330026.156328.541936-.000002.16675-.02779.321341-.08337.463772-.05559.138958-.142434.260546-.260546.364765-.118116.100745-.269233.180645-.45335.239702-.180647.05558-.396032.08337-.646155.08337"/><path d="m57.039578 13c.02084-.253598.06427-.517618.130274-.79206.066-.274441.145904-.543672.239702-.807694.09727-.264018.204962-.512405.323077-.745162.118113-.236226.237964-.439451.359554-.609678h-1.568488v-.661787h2.527298v.5627797c-.111169.1215913-.234494.2900773-.369976.5054593-.132012.215388-.258811.460301-.380397.734741-.118116.270969-.222335.562781-.312655.875435-.086851.312656-.140697.625311-.161539.937966z"/></g></g><g transform="translate(2.485912 .766824)"><path d="m42.069782 22.743296c-2.81213 0-5.03125 2.349265-5.03125 5.09375v1.875c-.55805.208065-1.11431.409088-1.65625.65625l-1.3125-1.3125c-.81542-.815417-2.04598-1.518664-3.53125-1.53125-1.30326-.01113-2.60958.484578-3.59375 1.46875l-5.40625 5.40625c-1.98399 1.98401-1.84621 5.216073.0625 7.125l1.3125 1.3125c-.24716.541936-.44818 1.098196-.65625 1.65625h-1.875c-2.74449 0-5.09375 2.219124-5.09375 5.03125v7.625c0 2.812126 2.34926 5.03125 5.09375 5.03125h1.875c.20807.558055.40909 1.114314.65625 1.65625l-1.3125 1.3125c-1.90889 1.908901-2.04666 5.141029-.0625 7.125l5.40625 5.40625c1.98395 1.983966 5.21605 1.846454 7.125-.0625l1.3125-1.3125c.54194.247162 1.0982.448185 1.65625.65625v1.875c0 2.744481 2.21912 5.093751 5.03125 5.093751h7.625003c2.812123 0 5.03125-2.34926 5.03125-5.093751v-1.875c.558055-.208065 1.114314-.409088 1.65625-.65625l1.3125 1.3125c1.908959 1.908964 5.141053 2.046443 7.125.0625l5.40625-5.40625c1.983992-1.984009 1.846223-5.216074-.0625-7.125l-1.3125-1.3125c.247162-.541935.448185-1.098194.65625-1.65625h1.875c2.744481 0 5.09375-2.219118 5.09375-5.03125v-7.625c0-2.812131-2.349267-5.03125-5.09375-5.03125h-1.875c-.208065-.558056-.409088-1.114314-.65625-1.65625l1.3125-1.3125c1.908886-1.908892 2.046695-5.141025.0625-7.125l-5.40625-5.40625c-1.983947-1.983938-5.21604-1.846464-7.125.0625l-1.3125 1.3125c-.541936-.247162-1.098195-.448185-1.65625-.65625v-1.875c0-2.744491-2.219127-5.09375-5.03125-5.09375zm3.812503 19.6875c6.075308 0 10.90625 4.830942 10.90625 10.90625s-4.830942 10.90625-10.90625 10.90625c-6.075313 0-10.906253-4.830942-10.906253-10.90625s4.83094-10.90625 10.906253-10.90625z" display="block" opacity=".05"/><path d="m42.069782 23.774546c-2.2266 0-4 1.88144-4 4.0625v2.5625c-1.01664.349685-1.98732.744874-2.9375 1.21875l-1.8125-1.8125c-.67148-.671474-1.63482-1.240285-2.78125-1.25-1.02212-.0087-2.05346.397209-2.84375 1.1875l-5.40625 5.40625c-1.57033 1.570351-1.45543 4.106901.0625 5.625l1.8125 1.8125c-.47387.950174-.86906 1.920858-1.21875 2.9375h-2.5625c-2.18106 0-4.0625 1.773399-4.0625 4v7.625c0 2.226601 1.88144 4 4.0625 4h2.5625c.34969 1.016643.74488 1.987326 1.21875 2.9375l-1.8125 1.8125c-1.51807 1.518078-1.63297 4.054679-.0625 5.625l5.40625 5.40625c1.57031 1.570322 4.10688 1.455615 5.625-.0625l1.8125-1.8125c.95018.473877 1.92086.869066 2.9375 1.21875v2.5625c0 2.181061 1.7734 4.062501 4 4.062501h7.625003c2.226598 0 4-1.88144 4-4.062501v-2.5625c1.016644-.349684 1.987325-.744873 2.9375-1.21875l1.8125 1.8125c1.518117 1.518121 4.054691 1.632806 5.625.0625l5.40625-5.40625c1.570337-1.570351 1.455437-4.106902-.0625-5.625l-1.8125-1.8125c.473875-.950173.869065-1.920855 1.21875-2.9375h2.5625c2.181056 0 4.0625-1.773393 4.0625-4v-7.625c0-2.226606-1.881442-4-4.0625-4h-2.5625c-.349685-1.016646-.744874-1.987327-1.21875-2.9375l1.8125-1.8125c1.518067-1.518072 1.632997-4.054677.0625-5.625l-5.40625-5.40625c-1.570309-1.570302-4.106883-1.45562-5.625.0625l-1.8125 1.8125c-.950175-.473876-1.920856-.869065-2.9375-1.21875v-2.5625c0-2.181066-1.773402-4.0625-4-4.0625zm3.812503 17.625c6.630024 0 11.9375 5.307476 11.9375 11.9375s-5.307476 11.9375-11.9375 11.9375c-6.630023 0-11.937503-5.307476-11.937503-11.9375s5.30748-11.9375 11.937503-11.9375z" display="block" opacity=".08"/><path d="m42.069782 24.805796c-1.64964 0-2.96875 1.39995-2.96875 3.03125v3.21875c-1.46185.450067-2.86523 1.039291-4.1875 1.75l-2.3125-2.28125c-.52527-.525266-1.25012-.930616-2.0625-.9375-.75932-.0065-1.53048.280476-2.125.875l-5.40625 5.40625c-1.16146 1.16147-1.07458 3.050296.0625 4.1875l2.28125 2.3125c-.7107 1.322265-1.29993 2.725645-1.75 4.1875h-3.21875c-1.6313 0-3.03125 1.319113-3.03125 2.96875v7.625c0 1.649637 1.39995 2.96875 3.03125 2.96875h3.21875c.45007 1.461856 1.0393 2.865236 1.75 4.1875l-2.28125 2.3125c-1.13718 1.137186-1.22406 3.026052-.0625 4.1875l5.40625 5.40625c1.16145 1.161455 3.05029 1.074709 4.1875-.0625l2.3125-2.28125c1.32227.71071 2.72565 1.299933 4.1875 1.75v3.21875c0 1.631301 1.31911 3.031251 2.96875 3.031251h7.625003c1.649634 0 2.96875-1.39995 2.96875-3.031251v-3.21875c1.461857-.450067 2.865233-1.03929 4.1875-1.75l2.3125 2.28125c1.137207 1.13721 3.026053 1.223945 4.1875.0625l5.40625-5.40625c1.16146-1.16147 1.074582-3.050297-.0625-4.1875l-2.28125-2.3125c.710707-1.322263 1.299931-2.72564 1.75-4.1875h3.21875c1.631297 0 3.03125-1.319107 3.03125-2.96875v-7.625c0-1.649642-1.399951-2.96875-3.03125-2.96875h-3.21875c-.450068-1.461861-1.039293-2.865237-1.75-4.1875l2.28125-2.3125c1.137179-1.137183 1.224077-3.026052.0625-4.1875l-5.40625-5.40625c-1.161447-1.161442-3.050293-1.074709-4.1875.0625l-2.3125 2.28125c-1.322266-.710709-2.725643-1.299933-4.1875-1.75v-3.21875c0-1.631306-1.319116-3.03125-2.96875-3.03125zm3.812503 15.5625c7.178426 0 12.96875 5.790324 12.96875 12.96875s-5.790324 12.96875-12.96875 12.96875c-7.178423 0-12.968753-5.790324-12.968753-12.96875s5.79033-12.96875 12.968753-12.96875z" display="block" opacity=".2"/><path d="m42.069782 25.837046c-1.08226 0-1.9375.899245-1.9375 2v3.875c-1.93514.515597-3.77694 1.297312-5.46875 2.28125l-2.78125-2.75c-.38918-.389176-.84011-.620732-1.34375-.625-.50363-.0043-1.02362.179866-1.40625.5625l-5.40625 5.40625c-.76526.76527-.71576 1.971648.0625 2.75l2.75 2.78125c-.98393 1.691803-1.76564 3.533599-2.28125 5.46875h-3.875c-1.10075 0-2 .855244-2 1.9375v7.625c0 1.082256.89925 1.9375 2 1.9375h3.875c.51561 1.935152 1.29732 3.776947 2.28125 5.46875l-2.75 2.78125c-.77835.77835-.82784 1.984729-.0625 2.75l5.40625 5.40625c.76526.76527 1.97165.715847 2.75-.0625l2.78125-2.75c1.69181.983939 3.53361 1.765652 5.46875 2.28125v3.875c0 1.100754.85524 2.000001 1.9375 2.000001h7.625003c1.082252 0 1.9375-.899247 1.9375-2.000001v-3.875c1.935147-.515598 3.776941-1.297311 5.46875-2.28125l2.78125 2.75c.778348.77835 1.984727.827772 2.75.0625l5.40625-5.40625c.765263-.76527.715767-1.97165-.0625-2.75l-2.75-2.78125c.983933-1.691803 1.765651-3.533598 2.28125-5.46875h3.875c1.100744 0 2-.855243 2-1.9375v-7.625c0-1.082255-.899256-1.9375-2-1.9375h-3.875c-.515595-1.935151-1.297317-3.776947-2.28125-5.46875l2.75-2.78125c.778348-.778351.827855-1.98473.0625-2.75l-5.40625-5.40625c-.765273-.76527-1.971652-.715849-2.75.0625l-2.78125 2.75c-1.691809-.983938-3.533603-1.765653-5.46875-2.28125v-3.875c0-1.100755-.855248-2-1.9375-2zm3.812503 13.5c7.731986 0 14 6.268014 14 14s-6.268014 14-14 14c-7.731983 0-14.000003-6.268014-14.000003-14s6.26802-14 14.000003-14z" display="block" opacity=".3"/><path d="m42.069782 24.837046c-1.08226 0-1.9375.899245-1.9375 2v3.875c-1.93514.515597-3.77694 1.297312-5.46875 2.28125l-2.78125-2.75c-.38918-.389176-.84011-.620732-1.34375-.625-.50363-.0043-1.02362.179866-1.40625.5625l-5.40625 5.40625c-.76526.76527-.71576 1.971648.0625 2.75l2.75 2.78125c-.98393 1.691803-1.76564 3.533599-2.28125 5.46875h-3.875c-1.10075 0-2 .855244-2 1.9375v7.625c0 1.082256.89925 1.9375 2 1.9375h3.875c.51561 1.935152 1.29732 3.776947 2.28125 5.46875l-2.75 2.78125c-.77835.77835-.82784 1.984729-.0625 2.75l5.40625 5.40625c.76526.76527 1.97165.715847 2.75-.0625l2.78125-2.75c1.69181.983939 3.53361 1.765652 5.46875 2.28125v3.875c0 1.100754.85524 2 1.9375 2h7.625003c1.082252 0 1.9375-.899246 1.9375-2v-3.875c1.935147-.515598 3.776941-1.297311 5.46875-2.28125l2.78125 2.75c.778348.77835 1.984727.827772 2.75.0625l5.40625-5.40625c.765263-.76527.715767-1.97165-.0625-2.75l-2.75-2.78125c.983933-1.691803 1.765651-3.533598 2.28125-5.46875h3.875c1.100744 0 2-.855243 2-1.9375v-7.625c0-1.082255-.899256-1.9375-2-1.9375h-3.875c-.515595-1.935151-1.297317-3.776947-2.28125-5.46875l2.75-2.78125c.778348-.778351.827855-1.98473.0625-2.75l-5.40625-5.40625c-.765273-.76527-1.971652-.715849-2.75.0625l-2.78125 2.75c-1.691809-.983938-3.533603-1.765653-5.46875-2.28125v-3.875c0-1.100755-.855248-2-1.9375-2zm3.812503 13.5c7.731986 0 14 6.268014 14 14s-6.268014 14-14 14c-7.731983 0-14.000003-6.268014-14.000003-14s6.26802-14 14.000003-14z" display="block" fill="url(#s)"/><g clip-path="url(#j)" transform="matrix(.8660254 .5 -.5 .8660254 83.281035 -108.37543)"><g opacity=".9" transform="matrix(.1413721 .99271966 -1.1651755 .12044784 96.937266 104.80532)"><path d="m108.8959 48a60.895905 60.895905 0 0 1 -6.54616 27.466658l-54.34974-27.466658z" fill="url(#k)" opacity=".05" transform="matrix(.99411049 -.1083712 .1083712 .99411049 -5.158219 5.491892)"/><path d="m108.8959 48a60.895905 60.895905 0 0 1 -4.45721 22.86887l-56.43869-22.86887z" fill="url(#l)" opacity=".07" transform="matrix(.99786084 -.06537382 .06537382 .99786084 -3.094012 3.241571)"/><path d="m108.8959 48a60.895905 60.895905 0 0 1 -3.12994 19.271878l-57.76596-19.271878z" fill="url(#m)" opacity=".1" transform="matrix(.99945136 -.0331207 .0331207 .99945136 -1.563459 1.616128)"/><path d="m108.8959 48a60.895905 60.895905 0 0 1 -2.07497 15.76102l-58.82093-15.76102z" fill="url(#n)" opacity=".05"/></g><g fill="#fff" opacity=".9" transform="matrix(1.062807 -.13087531 -.74010065 3.227468 32.525111 9.33226)"><path d="m108.8959 48a60.895905 60.895905 0 0 1 -6.54616 27.466658l-54.34974-27.466658z" fill="url(#o)" opacity=".2" transform="matrix(.99411049 -.1083712 .1083712 .99411049 -5.158219 5.491892)"/><path d="m108.8959 48a60.895905 60.895905 0 0 1 -4.45721 22.86887l-56.43869-22.86887z" fill="url(#p)" opacity=".4" transform="matrix(.99786084 -.06537382 .06537382 .99786084 -3.094012 3.241571)"/><path d="m108.8959 48a60.895905 60.895905 0 0 1 -3.12994 19.271878l-57.76596-19.271878z" fill="url(#q)" opacity=".6" transform="matrix(.99945136 -.0331207 .0331207 .99945136 -1.563459 1.616128)"/><path d="m108.8959 48a60.895905 60.895905 0 0 1 -2.07497 15.76102l-58.82093-15.76102z" fill="url(#r)" opacity=".8"/></g><g opacity=".5" transform="matrix(-.61678932 .78712829 -.78712829 -.61678932 115.00148 150.01193)"><path d="m108.8959 48a60.895905 60.895905 0 0 1 -6.54616 27.466658l-54.34974-27.466658z" fill="url(#k)" opacity=".05" transform="matrix(.99411049 -.1083712 .1083712 .99411049 -5.158219 5.491892)"/><path d="m108.8959 48a60.895905 60.895905 0 0 1 -4.45721 22.86887l-56.43869-22.86887z" fill="url(#l)" opacity=".07" transform="matrix(.99786084 -.06537382 .06537382 .99786084 -3.094012 3.241571)"/><path d="m108.8959 48a60.895905 60.895905 0 0 1 -3.12994 19.271878l-57.76596-19.271878z" fill="url(#m)" opacity=".1" transform="matrix(.99945136 -.0331207 .0331207 .99945136 -1.563459 1.616128)"/><path d="m108.8959 48a60.895905 60.895905 0 0 1 -2.07497 15.76102l-58.82093-15.76102z" fill="url(#n)" opacity=".1"/></g><g opacity=".8" transform="matrix(-.06817198 -1.0460056 2.710673 .60162586 -79.095447 179.08013)"><path d="m108.8959 48a60.895905 60.895905 0 0 1 -6.54616 27.466658l-54.34974-27.466658z" fill="url(#k)" opacity=".05" transform="matrix(.99411049 -.1083712 .1083712 .99411049 -5.158219 5.491892)"/><path d="m108.8959 48a60.895905 60.895905 0 0 1 -4.45721 22.86887l-56.43869-22.86887z" fill="url(#l)" opacity=".07" transform="matrix(.99786084 -.06537382 .06537382 .99786084 -3.094012 3.241571)"/><path d="m108.8959 48a60.895905 60.895905 0 0 1 -3.12994 19.271878l-57.76596-19.271878z" fill="url(#m)" opacity=".1" transform="matrix(.99945136 -.0331207 .0331207 .99945136 -1.563459 1.616128)"/><path d="m108.8959 48a60.895905 60.895905 0 0 1 -2.07497 15.76102l-58.82093-15.76102z" fill="url(#n)" opacity=".1"/></g><g fill="#fff" opacity=".9" transform="matrix(-1.062807 .1308753 .74010064 -3.227468 62.996694 306.66774)"><path d="m108.8959 48a60.895905 60.895905 0 0 1 -6.54616 27.466658l-54.34974-27.466658z" fill="url(#o)" opacity=".2" transform="matrix(.99411049 -.1083712 .1083712 .99411049 -5.158219 5.491892)"/><path d="m108.8959 48a60.895905 60.895905 0 0 1 -4.45721 22.86887l-56.43869-22.86887z" fill="url(#p)" opacity=".4" transform="matrix(.99786084 -.06537382 .06537382 .99786084 -3.094012 3.241571)"/><path d="m108.8959 48a60.895905 60.895905 0 0 1 -3.12994 19.271878l-57.76596-19.271878z" fill="url(#q)" opacity=".6" transform="matrix(.99945136 -.0331207 .0331207 .99945136 -1.563459 1.616128)"/><path d="m108.8959 48a60.895905 60.895905 0 0 1 -2.07497 15.76102l-58.82093-15.76102z" fill="url(#r)" opacity=".8"/></g></g><path d="m42.069782 24.837046c-1.08226 0-1.9375.899245-1.9375 2v1c0-1.100755.85524-2 1.9375-2h7.625003c1.082252 0 1.9375.899245 1.9375 2v-1c0-1.100755-.855248-2-1.9375-2zm-11.53125 4.78125c-.50363-.0043-1.02362.179866-1.40625.5625l-5.40625 5.40625c-.49644.496448-.6346 1.182061-.46875 1.8125.0841-.291632.23476-.578504.46875-.8125l5.40625-5.40625c.38263-.382634.90262-.5668 1.40625-.5625.50364.0043.95457.235824 1.34375.625l2.78125 2.75c1.69181-.983938 3.53361-1.765653 5.46875-2.28125v-1c-1.93514.515597-3.77694 1.297312-5.46875 2.28125l-2.78125-2.75c-.38918-.389176-.84011-.620732-1.34375-.625zm30.718753 0c-.494547.01399-.985826.235826-1.375.625l-2.78125 2.75c-1.691809-.983938-3.533603-1.765653-5.46875-2.28125v1c1.935147.515597 3.776941 1.297312 5.46875 2.28125l2.78125-2.75c.778348-.778349 1.984727-.82777 2.75-.0625l5.40625 5.40625c.234022.233996.38464.520868.46875.8125.165867-.630439.02775-1.316052-.46875-1.8125l-5.40625-5.40625c-.382637-.382635-.880453-.57649-1.375-.5625zm-35.062503 12.15625c-.81275 1.508863-1.48756 3.123824-1.9375 4.8125h-3.875c-1.10075 0-2 .855244-2 1.9375v1c0-1.082256.89925-1.9375 2-1.9375h3.875c.51561-1.935151 1.29732-3.776947 2.28125-5.46875zm39.375003 0-.34375.34375c.983933 1.691803 1.765655 3.533599 2.28125 5.46875h3.875c1.100744 0 2 .855245 2 1.9375v-1c0-1.082255-.899256-1.9375-2-1.9375h-3.875c-.449925-1.688676-1.124742-3.303637-1.9375-4.8125zm-33.656253 11.0625c-.006.16679-.0312.331775-.0312.5 0 7.731986 6.26802 14 14.000003 14 7.731986 0 14-6.268014 14-14 0-.168225-.02537-.33321-.03125-.5-.264589 7.499218-6.404989 13.5-13.96875 13.5-7.563763 0-13.704163-6.000782-13.968753-13.5zm-5.71875 11.0625-2.40625 2.4375c-.54035.540355-.72221 1.275367-.53125 1.9375.0898-.341377.25784-.664083.53125-.9375l2.75-2.78125c-.12532-.21548-.22512-.43602-.34375-.65625zm39.375003 0c-.118628.22023-.218429.44077-.34375.65625l2.75 2.78125c.273388.273417.441444.596123.53125.9375.190945-.662133.009-1.397145-.53125-1.9375z" display="block" fill="#fff" opacity=".7"/><path d="m23.257282 36.399546c-.19094.662133-.009 1.397144.53125 1.9375l2.40625 2.4375c.11863-.22023.21843-.44077.34375-.65625l-2.75-2.78125c-.27338-.273417-.44144-.596123-.53125-.9375zm45.250003 0c-.08982.341377-.257834.664083-.53125.9375l-2.75 2.78125c.125321.21548.225122.43602.34375.65625l2.40625-2.4375c.540353-.540355.722218-1.275367.53125-1.9375zm-22.625.9375c-7.731983 0-14.000003 6.268014-14.000003 14 0 .168225.0254.33321.0312.5.26459-7.499218 6.40499-13.5 13.968753-13.5 7.563761 0 13.704161 6.000782 13.96875 13.5.0059-.16679.03125-.331775.03125-.5 0-7.731986-6.268014-14-14-14zm-27.500003 17.8125v1c0 1.082256.89925 1.9375 2 1.9375h3.875c.44994 1.688677 1.12475 3.303637 1.9375 4.8125l.34375-.34375c-.98393-1.691803-1.76564-3.533598-2.28125-5.46875h-3.875c-1.10075 0-2-.855244-2-1.9375zm55.000003 0c0 1.082257-.899256 1.9375-2 1.9375h-3.875c-.515599 1.935152-1.297317 3.776947-2.28125 5.46875l.34375.34375c.812757-1.508863 1.487571-3.123823 1.9375-4.8125h3.875c1.100744 0 2-.855243 2-1.9375zm-50.125003 12.125c-.16586.630439-.0277 1.316051.46875 1.8125l5.40625 5.40625c.76526.76527 1.97165.715847 2.75-.0625l2.78125-2.75c1.69181.983939 3.53361 1.765652 5.46875 2.28125v-1c-1.93514-.515598-3.77694-1.297311-5.46875-2.28125l-2.78125 2.75c-.77835.778347-1.98474.82777-2.75.0625l-5.40625-5.40625c-.23402-.233996-.38464-.520868-.46875-.8125zm45.250003 0c-.0841.291632-.234756.578504-.46875.8125l-5.40625 5.40625c-.765273.765272-1.971652.71585-2.75-.0625l-2.78125-2.75c-1.691809.983939-3.533603 1.765652-5.46875 2.28125v1c1.935147-.515598 3.776941-1.297311 5.46875-2.28125l2.78125 2.75c.778348.77835 1.984727.827772 2.75.0625l5.40625-5.40625c.496443-.496448.634599-1.182061.46875-1.8125zm-28.375003 9.5625v1c0 1.100754.85524 2 1.9375 2h7.625003c1.082252 0 1.9375-.899246 1.9375-2v-1c0 1.100754-.855248 2-1.9375 2h-7.625003c-1.08226 0-1.9375-.899246-1.9375-2z" display="block" opacity=".2"/></g></g></svg>