<svg height="64" width="64" xmlns="http://www.w3.org/2000/svg" xmlns:xlink="http://www.w3.org/1999/xlink"><linearGradient id="a"><stop offset="0" stop-color="#fff"/><stop offset="1" stop-color="#fff" stop-opacity="0"/></linearGradient><linearGradient id="b" gradientTransform="matrix(1.0058652 0 0 .994169 100 0)" gradientUnits="userSpaceOnUse" x1="45.447727" x2="45.447727" y1="92.539597" y2="7.01654"><stop offset="0"/><stop offset="1" stop-opacity=".588235"/></linearGradient><linearGradient id="c" gradientTransform="matrix(.88095236 0 0 .88095242 102.24686 -91.378936)" gradientUnits="userSpaceOnUse" x1="32.251034" x2="32.251034" xlink:href="#b" y1="6.131708" y2="90.238609"/><linearGradient id="d" gradientTransform="matrix(.85714286 0 0 .85714286 103.38971 -90.236078)" gradientUnits="userSpaceOnUse" x1="32.251034" x2="32.251034" xlink:href="#b" y1="6.131708" y2="90.238609"/><linearGradient id="e" gradientTransform="matrix(0 -1.0119049 .89285716 0 1.14286 64.285716)" gradientUnits="userSpaceOnUse" x1="7.3709" x2="23.76619" y1="51.470146" y2="51.433136"><stop offset="0" stop-color="#676f7d"/><stop offset="1" stop-color="#818791"/></linearGradient><linearGradient id="f" gradientTransform="matrix(.88966473 0 0 -.88897608 101.82866 91.764071)" gradientUnits="userSpaceOnUse" x1="32.251034" x2="32.251034" xlink:href="#b" y1="6.131708" y2="90.238609"/><linearGradient id="g" gradientTransform="matrix(.88668581 0 0 -.88621557 101.97166 91.631566)" gradientUnits="userSpaceOnUse" x1="32.251034" x2="32.251034" xlink:href="#b" y1="6.131708" y2="90.238609"/><linearGradient id="h" gradientTransform="matrix(.88419911 0 0 -.88396282 102.09102 91.52343)" gradientUnits="userSpaceOnUse" x1="32.251034" x2="32.251034" xlink:href="#b" y1="6.131708" y2="90.238609"/><linearGradient id="i" gradientUnits="userSpaceOnUse" x1="78.04289384" x2="78.04289384" y1="-43.8124403" y2="-113.82267585329"><stop offset="0" stop-color="#adb6c2"/><stop offset="1" stop-color="#c1c8d4"/></linearGradient><radialGradient id="j" cx="48" cy="90.171875" gradientTransform="matrix(1.0333151 0 0 .89285716 -5.599123 -22.296321)" gradientUnits="userSpaceOnUse" r="42" xlink:href="#a"/><linearGradient id="k" gradientTransform="matrix(.83333387 0 0 .83675756 38.042891 -118.83298)" gradientUnits="userSpaceOnUse" x1="36.357143" x2="36.357143" xlink:href="#a" y1="6" y2="63.893143"/><linearGradient id="l" gradientTransform="matrix(2.4467882 0 0 2.4908279 -19.058972 -21.607478)" gradientUnits="userSpaceOnUse" x1="32.891998" x2="36.358002" y1="8.059" y2="5.4565"><stop offset="0" stop-color="#d6dfea"/><stop offset="1" stop-color="#b3bccc"/></linearGradient><clipPath id="m"><path d="m-88 6c-3.324 0-6 2.676-6 6v72c0 3.324 2.676 6 6 6h72c3.324 0 6-2.676 6-6v-72c0-3.324-2.676-6-6-6zm4 38a36 36 0 0 1 36 36h-7.1875a28.8 28.8 0 0 0 -28.8125-28.8125zm0 12.125a23.862857 23.862857 0 0 1 23.875 23.875h-7a16.868571 16.868571 0 0 0 -16.875-16.875zm4.9375 14c2.726708 0 4.9375 2.210792 4.9375 4.9375 0 2.726709-2.210792 4.9375-4.9375 4.9375-2.726709 0-4.9375-2.210791-4.9375-4.9375 0-2.726708 2.210792-4.9375 4.9375-4.9375z"/></clipPath><filter id="n" color-interpolation-filters="sRGB"><feGaussianBlur stdDeviation="1.08"/></filter><linearGradient id="o" gradientUnits="userSpaceOnUse" x1="38.5" x2="38.5" y1="80" y2="24.997727375"><stop offset="0" stop-color="#d4530d"/><stop offset="1" stop-color="#f7ad25"/></linearGradient><g transform="matrix(.7 0 0 .7 1.2 18)"><g transform="matrix(1.0714286 0 0 1.0714286 -110.85633 -31.885595)"><path d="m114.1583 89.09322c-4.78901 0-8.71691-3.971039-8.71691-8.812629v-62.374743c0-4.841588 3.9279-8.812628 8.71691-8.812628h38.74855l30.7169 30.812628v40.374743c0 4.84159-3.9279 8.812629-8.7169 8.812629z" fill="url(#f)" opacity=".08"/><path d="m114.2634 88.09322c-4.30575 0-7.82165-3.55537-7.82165-7.909474v-62.181052c0-4.354104 3.5159-7.909474 7.82165-7.909474h38.36008l30 30v40.090526c0 4.354104-3.51589 7.909474-7.82165 7.909474z" fill="url(#g)" opacity=".1"/><path d="m114.35075 87.09322c-3.80788 0-6.90909-3.13685-6.90909-6.98851v-62.02298c0-3.851661 3.10121-6.98851 6.90909-6.98851h38.27273l29 29v40.01149c0 3.85166-3.1012 6.98851-6.90909 6.98851z" fill="url(#h)" opacity=".2"/><path d="m114.46511-86.093224h60.13512c3.33689 0 6.02326 2.717977 6.02326 6.094118v38.905886l-29.00001 28.999996h-37.15837c-3.33688 0-6.02325-2.717976-6.02325-6.094117v-61.811765c0-3.376141 2.68637-6.094118 6.02325-6.094118z" fill="url(#c)" opacity=".3" transform="scale(1 -1)"/><path d="m114.58491-85.093224h59.89572c2.84914 0 5.07622 2.294494 5.14286 5.142858v38.857146l-28.00001 27.999996h-37.03857c-2.84914 0-5.14285-2.293714-5.14285-5.142857v-61.714285c0-2.849143 2.29371-5.142858 5.14285-5.142858z" fill="url(#d)" opacity=".45" transform="scale(1 -1)"/></g><g transform="matrix(1.0714286 0 0 1.0714286 -39.617384 105.15619)"><path d="m48.042892-113.81244h37.999998l27 27v38.000001c0 2.77-2.23 5-5 5h-59.999998c-2.77 0-5-2.23-5-5v-60.000001c0-2.77 2.23-5 5-5z" fill="url(#i)"/><path d="m48.042897-113.81244c-2.770002 0-5.000003 2.23916-5.000003 5.02055v1.67351 54.899511c3.856259 8.137855.998427 5.789227.833337.836756v-54.899507-1.67352c0-2.32773 1.848461-4.18379 4.166669-4.18379h1.666668 34.666692 1.66667l26.16667 26.18379v1.67352 32.899507c-2.34559 6.154455.83329 6.970762.83329-.836758v-32.899509-1.67352l-27-27.02054z" fill="url(#k)" opacity=".3"/></g><path d="m6.5000025 52.142855c0 3.36357 2.3892855 6.071428 5.3571425 6.071428h64.285714c2.967857 0 5.357143-2.707858 5.357143-6.071428v-13.571426h-74.9999995z" fill="url(#e)"/><path d="m11.857145 58.214283c-2.967857 0-5.3571425-2.399103-5.3571425-5.379155v-1.793053c.0365465-10.900962.8928589-11.133427.8928589-.896578v1.793052c0 2.493998 1.9804926 4.48263 4.4642856 4.48263h1.785716 60.714274 1.785718c2.483796 0 4.464289-1.988632 4.464289-4.48263v-1.793053c.08764-12.153031.892875-7.994396.892875.896527v1.793052c-.000021 2.980105-2.389307 5.379208-5.357164 5.379208z" fill="url(#j)" opacity=".2"/><g fill-rule="evenodd"><path d="m43.694065-16.752387c5.137078-.03348 1.879587 31.017222 1.879587 31.017222s35.952525-7.1678051 35.952525 5.078738c0-2.983162-.009-6.343468-.009-6.343468l-29.605364-29.74858z" opacity=".2" stroke-width="1.995053"/><path d="m44.813635-16.709453c5.60792-.03348 2.370157 29.409725 2.370157 29.409725s34.154277-6.6177114 34.154277 5.298795c0-2.902768-.0088-6.172516-.0088-6.172516l-28.577099-28.532198z" opacity=".2" stroke-width="1.941287"/><path d="m46.257197-16.741222c5.654616-.0073 2.261853 27.448842 2.261853 27.448842s32.988522-5.4051998 32.988522 6.06048c0-2.792949-.0085-3.796138-.0085-3.796138l-29.767428-29.732304z" opacity=".2" stroke-width="1.871432"/><path d="m47.578312-16.755847c6.006363 0 2.163461 25.935733 2.163461 25.935733s31.765441-4.6711083 31.765441 6.389377c0-2.694248-.0081-3.586255-.0081-3.586255l-28.791275-28.757298z" fill="url(#l)" stroke-width="1.805296"/></g><path d="m6.5000025 38.571429h74.9999995v1.428571h-74.9999995z" opacity=".3"/><path d="m6.5000025 37.142858h74.9999995v1.428571h-74.9999995z" fill="#fff" opacity=".3"/><g fill="#fff" transform="matrix(.84994926 0 0 .84994926 1.621669 -23.732388)"><path d="m38.739231 83.811882q.886231 0 1.26709-.32959.388184-.32959.388184-1.083984 0-.747071-.388184-1.069336-.380859-.322266-1.26709-.322266h-1.186523v2.805176zm-1.186523 1.948242v4.138184h-2.819825v-10.935059h4.306641q2.160645 0 3.164063.725098 1.010742.725098 1.010742 2.29248 0 1.083985-.527344 1.779785-.52002.695801-1.574707 1.025391.578613.131836 1.032715.600586.461426.461426.930176 1.40625l1.530761 3.105469h-3.002929l-1.333008-2.717285q-.402832-.820313-.820313-1.120606-.410156-.300293-1.098632-.300293z"/><path d="m53.885715 79.307487v2.314454q-.900878-.402832-1.757812-.607911-.856934-.205078-1.618652-.205078-1.010743 0-1.494141.278321-.483398.27832-.483398.864257 0 .439454.322265.688477.32959.241699 1.186524.41748l1.201172.2417q1.82373.366211 2.592773 1.113281.769043.74707.769043 2.124023 0 1.809082-1.07666 2.695313-1.069336.878906-3.273926.878906-1.040039 0-2.087402-.197754-1.047364-.197754-2.094727-.585937v-2.380371q1.047363.55664 2.021484.842285.981446.27832 1.889649.27832.922851 0 1.413574-.307617.490723-.307617.490723-.878906 0-.512696-.336914-.791016-.32959-.27832-1.325684-.498047l-1.091308-.241699q-1.640625-.351563-2.402344-1.120606-.754395-.769042-.754395-2.072753 0-1.633301 1.054688-2.512207 1.054687-.878907 3.032226-.878907.900879 0 1.853028.13916.952148.131836 1.970214.402832z"/><path d="m64.022434 79.307487v2.314454q-.900879-.402832-1.757812-.607911-.856934-.205078-1.618653-.205078-1.010742 0-1.49414.278321-.483399.27832-.483399.864257 0 .439454.322266.688477.32959.241699 1.186523.41748l1.201172.2417q1.823731.366211 2.592774 1.113281.769043.74707.769043 2.124023 0 1.809082-1.07666 2.695313-1.069336.878906-3.273926.878906-1.040039 0-2.087403-.197754-1.047363-.197754-2.094726-.585937v-2.380371q1.047363.55664 2.021484.842285.981446.27832 1.889649.27832.922851 0 1.413574-.307617.490723-.307617.490723-.878906 0-.512696-.336915-.791016-.329589-.27832-1.325683-.498047l-1.091309-.241699q-1.640625-.351563-2.402343-1.120606-.754395-.769042-.754395-2.072753 0-1.633301 1.054687-2.512207 1.054688-.878907 3.032227-.878907.900879 0 1.853027.13916.952149.131836 1.970215.402832z"/></g><g transform="matrix(.99206347 0 0 .99206347 -2.587301 -45.79365)"><path d="m-84 44v7.2a28.8 28.8 0 0 1 28.8 28.8h7.2a36 36 0 0 0 -36-36zm0 12.137143v6.994286a16.868571 16.868571 0 0 1 16.868571 16.868571h6.994286a23.862857 23.862857 0 0 0 -23.862857-23.862857zm4.937142 13.988571c-2.726708 0-4.937142 2.210435-4.937142 4.937143 0 2.726709 2.210434 4.937143 4.937143 4.937143 2.726708 0 4.937143-2.210434 4.937143-4.937143 0-2.726708-2.210435-4.937143-4.937143-4.937143z" style="opacity:.12;fill:none;stroke:#fff;stroke-width:2;clip-path:url(#m);filter:url(#n)" transform="translate(100)"/><path d="m16 44v7.2a28.8 28.8 0 0 1 28.8 28.8h7.2a36 36 0 0 0 -36-36zm0 12.137143v6.994286a16.868571 16.868571 0 0 1 16.868571 16.868571h6.994286a23.862857 23.862857 0 0 0 -23.862857-23.862857zm4.937142 13.988571c-2.726708 0-4.937142 2.210435-4.937142 4.937143 0 2.726709 2.210434 4.937143 4.937143 4.937143 2.726708 0 4.937143-2.210434 4.937143-4.937143 0-2.726708-2.210435-4.937143-4.937144-4.937143z" fill="url(#o)"/><path d="m16 44v7.1875c.323237.01539.646215.03623.96875.0625.000668-.02083.000668-.04167 0-.0625v-6.15625c.812941.02133 1.604135.03984 2.46875.125 1.20415.118598 2.219523.263945 3.40625.5s2.154625.461262 3.3125.8125 2.132128.693212 3.25 1.15625 2.026646.929621 3.09375 1.5 1.962691 1.077773 2.96875 1.75 1.814676 1.294899 2.75 2.0625 1.706918 1.425668 2.5625 2.28125 1.513649 1.627176 2.28125 2.5625 1.390273 1.743941 2.0625 2.75 1.179621 1.901646 1.75 2.96875 1.036962 1.975878 1.5 3.09375.805012 2.092125 1.15625 3.25.576445 2.125773.8125 3.3125.381402 2.2021.5 3.40625c.08516.864615.103674 1.655809.125 2.46875h-6.15625c-.01042-.000167-.02083-.000167-.03125 0 .01585.322711.02627.645689.03125.96875h7.1875c0-9.424778-3.879831-18.79152-10.544156-25.455844-6.664324-6.664325-16.031066-10.544156-25.455844-10.544156zm0 12.125v7c.323427.01154.646522.03238.96875.0625.000668-.02083.000668-.04167 0-.0625v-5.96875c.409214.01676.820495.01733 1.28125.0625.809435.07936 1.421001.154134 2.21875.3125s1.40913.326654 2.1875.5625 1.373515.438949 2.125.75 1.313896.585492 2.03125.96875 1.229945.704482 1.90625 1.15625 1.183765.796578 1.8125 1.3125 1.081149.956149 1.65625 1.53125 1.015328 1.027515 1.53125 1.65625.860732 1.136195 1.3125 1.8125.772992 1.188896 1.15625 1.90625.657699 1.279765.96875 2.03125.514154 1.34663.75 2.125.404134 1.389751.5625 2.1875.233142 1.409315.3125 2.21875c.04517.460755.04574.872036.0625 1.28125h-5.96875c-.02083-.000668-.04167-.000668-.0625 0 .03012.322228.05096.645323.0625.96875h7c.003182-6.251329-2.568908-12.465376-6.989266-16.885734s-10.634405-6.992448-16.885734-6.989266zm4.9375 14c-2.726708 0-4.9375 2.210792-4.9375 4.9375 0 2.726709 2.210791 4.9375 4.9375 4.9375 2.726708 0 4.9375-2.210791 4.9375-4.9375 0-2.726708-2.210792-4.9375-4.9375-4.9375zm0 .96875c2.200152 0 3.96875 1.768598 3.96875 3.96875 0 2.200153-1.768598 3.96875-3.96875 3.96875-2.200153 0-3.96875-1.768597-3.96875-3.96875 0-2.200152 1.768598-3.96875 3.96875-3.96875z" fill="#803300" opacity=".3"/><path d="m16 44v1a36 36 0 0 1 35.9375 35h.0625a36 36 0 0 0 -36-36zm0 12.125v1a23.862857 23.862857 0 0 1 23.8125 22.875h.0625a23.862857 23.862857 0 0 0 -23.875-23.875zm4.9375 14c-2.726708 0-4.9375 2.210792-4.9375 4.9375 0 .170419.0144.334028.03125.5.252831-2.489584 2.349961-4.4375 4.90625-4.4375s4.653419 1.947916 4.90625 4.4375c.01685-.165972.03125-.329581.03125-.5 0-2.726708-2.210792-4.9375-4.9375-4.9375z" fill="#803300" opacity=".5"/><path d="m16 51.1875v1a28.8 28.8 0 0 1 28.8125 28.8125h7.1875a36 36 0 0 0 -.0625-1h-7.125a28.8 28.8 0 0 0 -28.8125-28.8125zm0 11.9375v1a16.868571 16.868571 0 0 1 16.875 16.875h7a23.862857 23.862857 0 0 0 -.0625-1h-6.9375a16.868571 16.868571 0 0 0 -16.875-16.875zm.03125 12.4375c-.016855.165972-.03125.329581-.03125.5 0 2.726709 2.210791 4.9375 4.9375 4.9375 2.726708 0 4.9375-2.210791 4.9375-4.9375 0-.170419-.0144-.334028-.03125-.5-.252831 2.489585-2.349961 4.4375-4.90625 4.4375-2.55629 0-4.653419-1.947915-4.90625-4.4375z" fill="#fff"/></g></g></svg>