<svg height="64" width="64" xmlns="http://www.w3.org/2000/svg" xmlns:xlink="http://www.w3.org/1999/xlink"><linearGradient id="a"><stop offset="0" stop-color="#fff"/><stop offset="1" stop-color="#fff" stop-opacity="0"/></linearGradient><linearGradient id="b" gradientTransform="matrix(1.0058652 0 0 .994169 100 0)" gradientUnits="userSpaceOnUse" x1="45.447727" x2="45.447727" y1="92.539597" y2="7.01654"><stop offset="0"/><stop offset="1" stop-opacity=".588235"/></linearGradient><linearGradient id="c" gradientTransform="matrix(.88095236 0 0 .88095242 102.24686 -91.378936)" gradientUnits="userSpaceOnUse" x1="32.251034" x2="32.251034" xlink:href="#b" y1="6.131708" y2="90.238609"/><linearGradient id="d" gradientTransform="matrix(.85714286 0 0 .85714286 103.38971 -90.236078)" gradientUnits="userSpaceOnUse" x1="32.251034" x2="32.251034" xlink:href="#b" y1="6.131708" y2="90.238609"/><linearGradient id="e" gradientTransform="matrix(0 -1.0119049 .89285716 0 1.14286 64.285716)" gradientUnits="userSpaceOnUse" x1="7.3709" x2="23.76619" y1="51.470146" y2="51.433136"><stop offset="0" stop-color="#780a0a"/><stop offset="1" stop-color="#8f1414"/></linearGradient><linearGradient id="f" gradientTransform="matrix(.88966473 0 0 -.88897608 101.82866 91.764071)" gradientUnits="userSpaceOnUse" x1="32.251034" x2="32.251034" xlink:href="#b" y1="6.131708" y2="90.238609"/><linearGradient id="g" gradientTransform="matrix(.88668581 0 0 -.88621557 101.97166 91.631566)" gradientUnits="userSpaceOnUse" x1="32.251034" x2="32.251034" xlink:href="#b" y1="6.131708" y2="90.238609"/><linearGradient id="h" gradientTransform="matrix(.88419911 0 0 -.88396282 102.09102 91.52343)" gradientUnits="userSpaceOnUse" x1="32.251034" x2="32.251034" xlink:href="#b" y1="6.131708" y2="90.238609"/><linearGradient id="i" gradientUnits="userSpaceOnUse" x1="78.04289384" x2="78.04289384" y1="-43.8124403" y2="-113.82267585329"><stop offset="0" stop-color="#a02828"/><stop offset="1" stop-color="#d83f3f"/></linearGradient><radialGradient id="j" cx="48" cy="90.171875" gradientTransform="matrix(1.0333151 0 0 .89285716 -5.599123 -22.296321)" gradientUnits="userSpaceOnUse" r="42" xlink:href="#a"/><linearGradient id="k" gradientTransform="matrix(.89285774 0 0 .89652598 1.142854 -22.164537)" gradientUnits="userSpaceOnUse" x1="36.357143" x2="36.357143" xlink:href="#a" y1="6" y2="63.893143"/><linearGradient id="l" gradientTransform="matrix(2.4467882 0 0 2.4908279 -19.058972 -21.607478)" gradientUnits="userSpaceOnUse" x1="32.891998" x2="36.358002" y1="8.059" y2="5.4565"><stop offset="0" stop-color="#f04040"/><stop offset="1" stop-color="#962828"/></linearGradient><linearGradient id="m" gradientUnits="userSpaceOnUse" x1="39.75394335251" x2="39.75394335251" y1="38.00418900624" y2="-16.46907492254"><stop offset="0" stop-color="#ff6e6e"/><stop offset="1" stop-color="#ff8c8c"/></linearGradient><g transform="matrix(.7 0 0 .7 1.2 18)"><g transform="matrix(1.0714286 0 0 1.0714286 -110.85633 -31.885595)"><path d="m114.1583 89.09322c-4.78901 0-8.71691-3.971039-8.71691-8.812629v-62.374743c0-4.841588 3.9279-8.812628 8.71691-8.812628h38.74855l30.7169 30.812628v40.374743c0 4.84159-3.9279 8.812629-8.7169 8.812629z" fill="url(#f)" opacity=".08"/><path d="m114.2634 88.09322c-4.30575 0-7.82165-3.55537-7.82165-7.909474v-62.181052c0-4.354104 3.5159-7.909474 7.82165-7.909474h38.36008l30 30v40.090526c0 4.354104-3.51589 7.909474-7.82165 7.909474z" fill="url(#g)" opacity=".1"/><path d="m114.35075 87.09322c-3.80788 0-6.90909-3.13685-6.90909-6.98851v-62.02298c0-3.851661 3.10121-6.98851 6.90909-6.98851h38.27273l29 29v40.01149c0 3.85166-3.1012 6.98851-6.90909 6.98851z" fill="url(#h)" opacity=".2"/><path d="m114.46511-86.093224h60.13512c3.33689 0 6.02326 2.717977 6.02326 6.094118v38.905886l-29.00001 28.999996h-37.15837c-3.33688 0-6.02325-2.717976-6.02325-6.094117v-61.811765c0-3.376141 2.68637-6.094118 6.02325-6.094118z" fill="url(#c)" opacity=".3" transform="scale(1 -1)"/><path d="m114.58491-85.093224h59.89572c2.84914 0 5.07622 2.294494 5.14286 5.142858v38.857146l-28.00001 27.999996h-37.03857c-2.84914 0-5.14285-2.293714-5.14285-5.142857v-61.714285c0-2.849143 2.29371-5.142858 5.14285-5.142858z" fill="url(#d)" opacity=".45" transform="scale(1 -1)"/></g><path d="m48.042892-113.81244h37.999998l27 27v38.000001c0 2.77-2.23 5-5 5h-59.999998c-2.77 0-5-2.23-5-5v-60.000001c0-2.77 2.23-5 5-5z" fill="url(#i)" transform="matrix(1.0714286 0 0 1.0714286 -39.617384 105.15619)"/><path d="m61.714281-1.7992199c-15.477844 19.9621679-39.325717 22.6877469-55.2857096 19.8065999v3.229114c14.9847626 2.704993 33.5308966 2.249592 46.9352816-3.352518-2.887517 4.180688-4.09632 8.861334-4.380907 13.122129-.183052 2.740567.0019 5.323443.308513 7.54831h2.653219c-.315033-2.14682-.508257-4.680733-.329084-7.3632.414977-6.212764 4.464055-18.8886 17.247703-25.375456z" fill-rule="evenodd" opacity=".1"/><path d="m41.154661-16.730924c-2.598516 5.720686-4.567583 11.6055299-5.87405 17.53581377-.678127.53964993-1.367199 1.04386043-2.073205 1.55490053-8.054775 5.8303745-17.716916 9.6399177-26.7788346 9.4157807v4.319166c8.0187346.757018 13.3531946 2.114063 16.9846076 6.943573 3.591627 4.776585 5.602588 9.499779 5.602588 15.516105h2.764276c0-5.998361-2.60268-13.123766-6.120889-17.15739-3.476853-3.986216-7.867921-5.832451-13.78843-7.202721 7.917418-1.060012 15.778561-4.5802973 22.546048-9.4157791-1.951739 11.3338751-1.633599 22.8435141.777441 33.7758901h19.090728c-9.539188-8.649022-13.665722-24.152723-13.648566-38.78612455 5.379034-5.00736615 12.389024-13.90596045 9.841725-16.49921445h-1.030631c-1.819939 4.212519-4.870376 8.5353015-8.724705 12.5255821.234678-4.4088717.938029-8.6290861 1.900427-12.5255821z" fill="url(#m)" fill-rule="evenodd"/><path d="m11.857146-16.785388c-2.9678591 0-5.357146 2.3991-5.357146 5.379161v1.7930468 58.8209082c4.131706 8.719131 1.0697433 6.202743.8928611.896524v-58.8209036-1.7930574c0-2.493996 1.9804941-4.482632 4.4642889-4.482632h1.785715 37.142887 1.785718l28.035719 28.054062v1.793057 35.249474c-2.513132 6.59406.892811 7.468674.892811-.896526v-35.249476-1.793057l-28.928573-28.950581z" fill="url(#k)" opacity=".3"/><path d="m6.5000025 52.142855c0 3.36357 2.3892855 6.071428 5.3571425 6.071428h64.285714c2.967857 0 5.357143-2.707858 5.357143-6.071428v-13.571426h-74.9999995z" fill="url(#e)"/><path d="m11.857145 58.214283c-2.967857 0-5.3571425-2.399103-5.3571425-5.379155v-1.793053c.0365465-10.900962.8928589-11.133427.8928589-.896578v1.793052c0 2.493998 1.9804926 4.48263 4.4642856 4.48263h1.785716 60.714274 1.785718c2.483796 0 4.464289-1.988632 4.464289-4.48263v-1.793053c.08764-12.153031.892875-7.994396.892875.896527v1.793052c-.000021 2.980105-2.389307 5.379208-5.357164 5.379208z" fill="url(#j)" opacity=".2"/><g fill-rule="evenodd"><path d="m43.694065-16.752387c5.137078-.03348 1.879587 31.017222 1.879587 31.017222s35.952525-7.1678051 35.952525 5.078738c0-2.983162-.009-6.343468-.009-6.343468l-29.605364-29.74858z" opacity=".2" stroke-width="1.995053"/><path d="m41.146681-16.731297c-2.598523 5.720687-4.555294 11.6138806-5.861762 17.54416345-.678137.53964815-1.371315 1.03152935-2.077322 1.54257075-8.054767 5.830375-17.717107 9.6440968-26.7790256 9.4199588l.0006064 1.086562c9.0619182.224134 18.7242582-3.589588 26.7790252-9.4199622.706007-.5110422 1.800971-1.1368505 2.479108-1.6764996 1.306468-5.9302838 2.860847-12.1179432 5.45937-17.8386292h1.316334c.05195-.219133.110906-.44102.164543-.658164zm8.309309 0c-1.81034 4.190287-4.853971 8.4912648-8.679513 12.4639666-.01554.2401506-.04819.9069572-.06115 1.1482607 3.854328-3.9902807 6.921264-8.3131493 8.741213-12.5256673l2.652622-.428396c.09008-.221299-.678394-.436801-.594131-.658166zm-8.782355 19.2512741c.352504 13.6342169 4.316863 27.7002889 12.91645 36.0344379h.699297c-8.942988-8.10846-13.141594-22.241925-13.615747-36.0344379zm-6.252556 2.9206001c-.03995.028579-.08338.053787-.1234.082271-.68989 4.2232193-1.060637 8.4616908-1.131215 12.6902108.102833-4.259929.522728-8.5222786 1.254615-12.7724818zm-20.917243 9.1731488c-.54163.09536-1.082371.174185-1.624839.24681 5.920501 1.370272 10.304034 3.640843 13.780893 7.627059 3.390294 3.886973 5.92774 10.212943 6.107971 16.06682h.02059c0-5.998361-2.610954-13.119755-6.129145-17.15338-3.146484-3.607434-7.055545-5.451787-12.155452-6.787309z" fill="#500" opacity=".6"/><path d="m44.813635-16.709453c5.60792-.03348 2.370157 29.409725 2.370157 29.409725s34.154277-6.6177114 34.154277 5.298795c0-2.902768-.0088-6.172516-.0088-6.172516l-28.577099-28.532198z" opacity=".2" stroke-width="1.941287"/><path d="m42.463015-16.073133c-.880881 3.713025-1.526637 7.7043307-1.748248 11.8675039.02039-.021069.04146-.040635.06176-.061694.269737-4.1476664.941361-8.1225669 1.85108-11.8058029zm9.646196 0c-2.250931 5.527623-6.304727 11.0221482-11.476724 15.83676132-.000247.21836157-.000901.43973112 0 .65845276 5.379052-5.00736518 9.365629-9.44890338 11.554551-15.19963708zm-17.688132 20.8552569c-6.767495 4.8354802-14.62468 8.3599511-22.542082 9.4199621.562581.130207 1.089349.271411 1.624839.41164 7.3165-1.288195 14.518103-4.6297045 20.793843-9.0908793.04043-.2478081.08073-.4930733.1234-.7407228zm-27.9925076 11.3124701v.658162c8.0187346.75702 13.3574276 2.122341 16.9888506 6.95185 3.458559 4.599634 5.431468 9.147403 5.57381 14.849809h.02059c0-6.016326-2.002762-10.731384-5.59438-15.507971-3.631427-4.829511-8.97012-6.194832-16.9888553-6.95185zm26.7378926 5.717793c.09446 5.657751.730125 11.270691 1.892213 16.742028h.143971c-1.205534-5.46619-1.899245-11.081337-2.036184-16.742028z" fill="#fff" fill-opacity=".313725" opacity=".8"/><path d="m46.257197-16.741222c5.654616-.0073 2.261853 27.448842 2.261853 27.448842s32.988522-5.4051998 32.988522 6.06048c0-2.792949-.0085-3.796138-.0085-3.796138l-29.767428-29.732304z" opacity=".2" stroke-width="1.871432"/><path d="m47.578312-16.755847c6.006363 0 2.163461 25.935733 2.163461 25.935733s31.765441-4.6711083 31.765441 6.389377c0-2.694248-.0081-3.586255-.0081-3.586255l-28.791275-28.757298z" fill="url(#l)" stroke-width="1.805296"/></g><path d="m6.5000025 38.571429h74.9999995v1.428571h-74.9999995z" opacity=".3"/><path d="m6.5000025 37.142858h74.9999995v1.428571h-74.9999995z" fill="#fff" opacity=".1"/><g fill="#fff" transform="matrix(.99205818 0 0 .99205818 42.730832 -26.596892)"><path d="m-11.680741 70.370044h4.1601561q1.8554687 0 2.845052.826823.9960938.820312.9960938 2.34375 0 1.529947-.9960938 2.35677-.9895833.820313-2.845052.820313h-1.6536458v3.372396h-2.5065103zm2.5065103 1.816406v2.714844h1.3867188q.7291666 0 1.126302-.351563.3971354-.358073.3971354-1.009114 0-.651042-.3971354-1.002605-.3971354-.351562-1.126302-.351562z"/><path d="m.59139434 72.264575v5.930989h.89843746q1.5364583 0 2.34375-.761718.813802-.761719.813802-2.213542 0-1.445312-.8072916-2.200521-.8072917-.755208-2.3502604-.755208zm-2.50651034-1.894531h2.64322908q2.21354162 0 3.29427072.31901 1.0872396.3125 1.8619792 1.067708.6835937.657552 1.0156249 1.516927.3320313.859375.3320313 1.946615 0 1.10026-.3320313 1.966146-.3320312.859375-1.0156249 1.516927-.78125.755208-1.875 1.074219-1.09375.3125-3.28124992.3125h-2.64322908z"/><path d="m9.152591 70.370044h6.764323v1.894531h-4.257813v1.809896h4.003907v1.894531h-4.003907v4.121094h-2.50651z"/></g><path d="m151.74191 16.922094v17.9375l8.09375-17.9375zm9.90625 0 8.09375 17.9375v-17.9375zm-.90625 7.03125-3.03125 7h2.92858l1.71875 3.96875h3.22767l-2.375-5.28125-.0625-.125z" fill-opacity=".313725" opacity=".5" transform="matrix(1.1111111 0 0 1.1111111 -156.74498 -35.58804)"/></g></svg>