<svg height="64" width="64" xmlns="http://www.w3.org/2000/svg" xmlns:xlink="http://www.w3.org/1999/xlink"><linearGradient id="a"><stop offset="0" stop-color="#fff"/><stop offset="1" stop-color="#fff" stop-opacity="0"/></linearGradient><linearGradient id="b" gradientTransform="matrix(1.0058652 0 0 .994169 100 0)" gradientUnits="userSpaceOnUse" x1="45.447727" x2="45.447727" y1="92.539597" y2="7.01654"><stop offset="0"/><stop offset="1" stop-opacity=".588235"/></linearGradient><linearGradient id="c" gradientTransform="matrix(.88095236 0 0 .88095242 102.24686 -91.378936)" gradientUnits="userSpaceOnUse" x1="32.251034" x2="32.251034" xlink:href="#b" y1="6.131708" y2="90.238609"/><linearGradient id="d" gradientTransform="matrix(.85714286 0 0 .85714286 103.38971 -90.236078)" gradientUnits="userSpaceOnUse" x1="32.251034" x2="32.251034" xlink:href="#b" y1="6.131708" y2="90.238609"/><linearGradient id="e" gradientTransform="matrix(0 -1.0119049 .89285716 0 1.14286 64.285716)" gradientUnits="userSpaceOnUse" x1="7.3709" x2="23.76619" y1="51.470146" y2="51.433136"><stop offset="0" stop-color="#0b4420"/><stop offset="1" stop-color="#195a30"/></linearGradient><linearGradient id="f" gradientTransform="matrix(.88966473 0 0 -.88897608 101.82866 91.764071)" gradientUnits="userSpaceOnUse" x1="32.251034" x2="32.251034" xlink:href="#b" y1="6.131708" y2="90.238609"/><linearGradient id="g" gradientTransform="matrix(.88668581 0 0 -.88621557 101.97166 91.631566)" gradientUnits="userSpaceOnUse" x1="32.251034" x2="32.251034" xlink:href="#b" y1="6.131708" y2="90.238609"/><linearGradient id="h" gradientTransform="matrix(.88419911 0 0 -.88396282 102.09102 91.52343)" gradientUnits="userSpaceOnUse" x1="32.251034" x2="32.251034" xlink:href="#b" y1="6.131708" y2="90.238609"/><linearGradient id="i" gradientUnits="userSpaceOnUse" x1="78.04289384" x2="78.04289384" y1="-43.8124403" y2="-113.82267585329"><stop offset="0" stop-color="#288358"/><stop offset="1" stop-color="#479a6c"/></linearGradient><radialGradient id="j" cx="48" cy="90.171875" gradientTransform="matrix(1.0333151 0 0 .89285716 -5.599123 -22.296321)" gradientUnits="userSpaceOnUse" r="42" xlink:href="#a"/><linearGradient id="k" gradientTransform="matrix(.89285774 0 0 .89652598 1.142854 -22.164537)" gradientUnits="userSpaceOnUse" x1="36.357143" x2="36.357143" xlink:href="#a" y1="6" y2="63.893143"/><linearGradient id="l" gradientTransform="matrix(2.4467882 0 0 2.4908279 -19.058972 -21.607478)" gradientUnits="userSpaceOnUse" x1="32.891998" x2="36.358002" y1="8.059" y2="5.4565"><stop offset="0" stop-color="#50b87b"/><stop offset="1" stop-color="#43906c"/></linearGradient><linearGradient id="m" gradientUnits="userSpaceOnUse" x1="56.99097658855" x2="116.92112425685" xlink:href="#n" y1="-48.80056699151" y2="-48.80056699151"/><linearGradient id="n"><stop offset="0" stop-color="#458c6d"/><stop offset="1" stop-color="#81e1be"/></linearGradient><linearGradient id="o" gradientTransform="matrix(-1.9463379 0 0 -1.9463379 13.797206 -30.526401)" gradientUnits="userSpaceOnUse" x1="-53.080975" x2="-22.28974" xlink:href="#n" y1="-7.735441" y2="-7.735441"/><g transform="matrix(.7 0 0 .7 1.2 18)"><g transform="matrix(1.0714286 0 0 1.0714286 -110.85633 -31.885595)"><path d="m114.1583 89.09322c-4.78901 0-8.71691-3.971039-8.71691-8.812629v-62.374743c0-4.841588 3.9279-8.812628 8.71691-8.812628h38.74855l30.7169 30.812628v40.374743c0 4.84159-3.9279 8.812629-8.7169 8.812629z" fill="url(#f)" opacity=".08"/><path d="m114.2634 88.09322c-4.30575 0-7.82165-3.55537-7.82165-7.909474v-62.181052c0-4.354104 3.5159-7.909474 7.82165-7.909474h38.36008l30 30v40.090526c0 4.354104-3.51589 7.909474-7.82165 7.909474z" fill="url(#g)" opacity=".1"/><path d="m114.35075 87.09322c-3.80788 0-6.90909-3.13685-6.90909-6.98851v-62.02298c0-3.851661 3.10121-6.98851 6.90909-6.98851h38.27273l29 29v40.01149c0 3.85166-3.1012 6.98851-6.90909 6.98851z" fill="url(#h)" opacity=".2"/><path d="m114.46511-86.093224h60.13512c3.33689 0 6.02326 2.717977 6.02326 6.094118v38.905886l-29.00001 28.999996h-37.15837c-3.33688 0-6.02325-2.717976-6.02325-6.094117v-61.811765c0-3.376141 2.68637-6.094118 6.02325-6.094118z" fill="url(#c)" opacity=".3" transform="scale(1 -1)"/><path d="m114.58491-85.093224h59.89572c2.84914 0 5.07622 2.294494 5.14286 5.142858v38.857146l-28.00001 27.999996h-37.03857c-2.84914 0-5.14285-2.293714-5.14285-5.142857v-61.714285c0-2.849143 2.29371-5.142858 5.14285-5.142858z" fill="url(#d)" opacity=".45" transform="scale(1 -1)"/></g><path d="m48.042892-113.81244h37.999998l27 27v38.000001c0 2.77-2.23 5-5 5h-59.999998c-2.77 0-5-2.23-5-5v-60.000001c0-2.77 2.23-5 5-5z" fill="url(#i)" transform="matrix(1.0714286 0 0 1.0714286 -39.617384 105.15619)"/><path d="m11.857146-16.785388c-2.9678591 0-5.357146 2.3991-5.357146 5.379161v1.7930468 58.8209082c4.131706 8.719131 1.0697433 6.202743.8928611.896524v-58.8209036-1.7930574c0-2.493996 1.9804941-4.482632 4.4642889-4.482632h1.785715 37.142887 1.785718l28.035719 28.054062v1.793057 35.249474c-2.513132 6.59406.892811 7.468674.892811-.896526v-35.249476-1.793057l-28.928573-28.950581z" fill="url(#k)" opacity=".3"/><path d="m6.5000025 52.142855c0 3.36357 2.3892855 6.071428 5.3571425 6.071428h64.285714c2.967857 0 5.357143-2.707858 5.357143-6.071428v-13.571426h-74.9999995z" fill="url(#e)"/><path d="m11.857145 58.214283c-2.967857 0-5.3571425-2.399103-5.3571425-5.379155v-1.793053c.0365465-10.900962.8928589-11.133427.8928589-.896578v1.793052c0 2.493998 1.9804926 4.48263 4.4642856 4.48263h1.785716 60.714274 1.785718c2.483796 0 4.464289-1.988632 4.464289-4.48263v-1.793053c.08764-12.153031.892875-7.994396.892875.896527v1.793052c-.000021 2.980105-2.389307 5.379208-5.357164 5.379208z" fill="url(#j)" opacity=".2"/><g fill-rule="evenodd"><g transform="matrix(.60746928 0 0 .60746928 -19.176039 34.570045)"><path d="m57.98005-38.206933 14.791798-5.948107c.218524-1.555692 12.527114-10.96334 24.970777 2.155113l-6.75205 7.418239 24.946775-.000362.0004-25.892536-7.55822 6.718072c-6.01102-5.698435-13.391959-9.757645-21.71773-9.220365-20.464122 2.280598-26.962828 15.193587-28.68175 24.769946z" fill="url(#m)" stroke="#20523c" stroke-width="1.55707"/><path d="m92.784746-35.501425 12.098634-6.012207c-10.996559-15.044804-21.765168-10.864255-27.643301-6.844514 5.957743-2.325109 14.525721-1.516996 21.507378 6.349702z" fill="#a4fede"/><path d="m116.12165-26.064253-14.7918 5.948107c-.21852 1.555692-12.527114 10.9633397-24.970774-2.155113l6.752047-7.418239-24.946776.000362-.0004 25.8925357 7.55822-6.7180717c6.011019 5.6984347 13.39196 9.75764473 21.717731 9.2203647 20.464132-2.280598 26.962832-15.1935867 28.681752-24.7699457z" fill="url(#o)" stroke="#20523c" stroke-width="1.55707"/><path d="m81.316952-28.769761-12.098626 6.012207c10.996551 15.0448037 21.76516 10.864255 27.643293 6.844514-5.957743 2.325109-14.525721 1.516996-21.507373-6.349702z" fill="#a4fede"/><g fill="#60ad96"><path d="m60.854217-28.920875-.143819 21.8054927-1.735034 1.568545v-23.3380827z"/><path d="m113.31453-35.33397.14382-21.805491 1.73504-1.56855v23.338091z"/></g></g><path d="m43.694065-16.752387c5.137078-.03348 1.879587 31.017222 1.879587 31.017222s35.952525-7.1678051 35.952525 5.078738c0-2.983162-.009-6.343468-.009-6.343468l-29.605364-29.74858z" opacity=".2" stroke-width="1.995053"/><path d="m44.813635-16.709453c5.60792-.03348 2.370157 29.409725 2.370157 29.409725s34.154277-6.6177114 34.154277 5.298795c0-2.902768-.0088-6.172516-.0088-6.172516l-28.577099-28.532198z" opacity=".2" stroke-width="1.941287"/><path d="m46.257197-16.741222c5.654616-.0073 2.261853 27.448842 2.261853 27.448842s32.988522-5.4051998 32.988522 6.06048c0-2.792949-.0085-3.796138-.0085-3.796138l-29.767428-29.732304z" opacity=".2" stroke-width="1.871432"/><path d="m47.578312-16.755847c6.006363 0 2.163461 25.935733 2.163461 25.935733s31.765441-4.6711083 31.765441 6.389377c0-2.694248-.0081-3.586255-.0081-3.586255l-28.791275-28.757298z" fill="url(#l)" stroke-width="1.805296"/></g><path d="m6.5000025 38.571429h74.9999995v1.428571h-74.9999995z" opacity=".3"/><path d="m6.5000025 37.142858h74.9999995v1.428571h-74.9999995z" fill="#fff" opacity=".1"/><g fill="#fff" transform="matrix(.84994926 0 0 .84994926 1.465665 -23.702436)"><path d="m34.916428 78.928009h7.609863v2.131348h-4.790039v2.036133h4.504394v2.131347h-4.504394v4.636231h-2.819824z"/><path d="m45.170334 78.928009h7.609863v2.131348h-4.790039v2.036133h4.504395v2.131347h-4.504395v4.636231h-2.819824z"/><path d="m63.034103 79.272247v2.314453q-.900879-.402832-1.757812-.60791-.856934-.205078-1.618652-.205078-1.010743 0-1.494141.27832-.483399.278321-.483399.864258 0 .439453.322266.688477.32959.241699 1.186524.41748l1.201171.2417q1.823731.36621 2.592774 1.113281.769043.74707.769043 2.124023 0 1.809082-1.07666 2.695313-1.069336.878906-3.273926.878906-1.040039 0-2.087402-.197754-1.047364-.197754-2.094727-.585937v-2.380372q1.047363.556641 2.021484.842286.981446.27832 1.889649.27832.922851 0 1.413574-.307617.490723-.307617.490723-.878906 0-.512696-.336914-.791016-.32959-.27832-1.325684-.498047l-1.091309-.241699q-1.640625-.351563-2.402343-1.120606-.754395-.769043-.754395-2.072754 0-1.6333 1.054688-2.512207 1.054687-.878906 3.032226-.878906.900879 0 1.853028.13916.952148.131836 1.970214.402832z"/></g></g></svg>