<svg height="64" width="64" xmlns="http://www.w3.org/2000/svg" xmlns:xlink="http://www.w3.org/1999/xlink"><linearGradient id="a"><stop offset="0" stop-color="#fff"/><stop offset="1" stop-color="#fff" stop-opacity="0"/></linearGradient><linearGradient id="b" gradientTransform="matrix(1.0058652 0 0 .994169 100 0)" gradientUnits="userSpaceOnUse" x1="45.447727" x2="45.447727" y1="92.539597" y2="7.01654"><stop offset="0"/><stop offset="1" stop-opacity=".588235"/></linearGradient><linearGradient id="c" gradientTransform="matrix(.88095236 0 0 .88095242 102.24686 -91.378936)" gradientUnits="userSpaceOnUse" x1="32.251034" x2="32.251034" xlink:href="#b" y1="6.131708" y2="90.238609"/><linearGradient id="d" gradientTransform="matrix(.85714286 0 0 .85714286 103.38971 -90.236078)" gradientUnits="userSpaceOnUse" x1="32.251034" x2="32.251034" xlink:href="#b" y1="6.131708" y2="90.238609"/><linearGradient id="e" gradientTransform="matrix(0 -1.0119049 .89285716 0 1.14286 64.285716)" gradientUnits="userSpaceOnUse" x1="7.3709" x2="23.76619" y1="51.470146" y2="51.433136"><stop offset="0" stop-color="#15235f"/><stop offset="1" stop-color="#313d80"/></linearGradient><linearGradient id="f" gradientTransform="matrix(.88966473 0 0 -.88897608 101.82866 91.764071)" gradientUnits="userSpaceOnUse" x1="32.251034" x2="32.251034" xlink:href="#b" y1="6.131708" y2="90.238609"/><linearGradient id="g" gradientTransform="matrix(.88668581 0 0 -.88621557 101.97166 91.631566)" gradientUnits="userSpaceOnUse" x1="32.251034" x2="32.251034" xlink:href="#b" y1="6.131708" y2="90.238609"/><linearGradient id="h" gradientTransform="matrix(.88419911 0 0 -.88396282 102.09102 91.52343)" gradientUnits="userSpaceOnUse" x1="32.251034" x2="32.251034" xlink:href="#b" y1="6.131708" y2="90.238609"/><linearGradient id="i" gradientUnits="userSpaceOnUse" x1="78.04289384" x2="78.04289384" y1="-43.8124403" y2="-113.82267585329"><stop offset="0" stop-color="#3e488e"/><stop offset="1" stop-color="#505daa"/></linearGradient><radialGradient id="j" cx="48" cy="90.171875" gradientTransform="matrix(1.0333151 0 0 .89285716 -5.599123 -22.296321)" gradientUnits="userSpaceOnUse" r="42" xlink:href="#a"/><linearGradient id="k" gradientTransform="matrix(.89285774 0 0 .89652598 1.142854 -22.164537)" gradientUnits="userSpaceOnUse" x1="36.357143" x2="36.357143" xlink:href="#a" y1="6" y2="63.893143"/><linearGradient id="l" gradientTransform="matrix(2.4467882 0 0 2.4908279 -19.058972 -21.607478)" gradientUnits="userSpaceOnUse" x1="32.891998" x2="36.358002" y1="8.059" y2="5.4565"><stop offset="0" stop-color="#6776bf"/><stop offset="1" stop-color="#5361a7"/></linearGradient><linearGradient id="m" gradientUnits="userSpaceOnUse" spreadMethod="reflect" x1="19.013324" x2="19.013324" y1="44.535123" y2="76.011335"><stop offset="0" stop-color="#75a6ea"/><stop offset="1" stop-color="#70c5ff"/></linearGradient><g transform="matrix(.7 0 0 .7 1.2 18)"><g transform="matrix(1.0714286 0 0 1.0714286 -110.85633 -31.885595)"><path d="m114.1583 89.09322c-4.78901 0-8.71691-3.971039-8.71691-8.812629v-62.374743c0-4.841588 3.9279-8.812628 8.71691-8.812628h38.74855l30.7169 30.812628v40.374743c0 4.84159-3.9279 8.812629-8.7169 8.812629z" fill="url(#f)" opacity=".08"/><path d="m114.2634 88.09322c-4.30575 0-7.82165-3.55537-7.82165-7.909474v-62.181052c0-4.354104 3.5159-7.909474 7.82165-7.909474h38.36008l30 30v40.090526c0 4.354104-3.51589 7.909474-7.82165 7.909474z" fill="url(#g)" opacity=".1"/><path d="m114.35075 87.09322c-3.80788 0-6.90909-3.13685-6.90909-6.98851v-62.02298c0-3.851661 3.10121-6.98851 6.90909-6.98851h38.27273l29 29v40.01149c0 3.85166-3.1012 6.98851-6.90909 6.98851z" fill="url(#h)" opacity=".2"/><path d="m114.46511-86.093224h60.13512c3.33689 0 6.02326 2.717977 6.02326 6.094118v38.905886l-29.00001 28.999996h-37.15837c-3.33688 0-6.02325-2.717976-6.02325-6.094117v-61.811765c0-3.376141 2.68637-6.094118 6.02325-6.094118z" fill="url(#c)" opacity=".3" transform="scale(1 -1)"/><path d="m114.58491-85.093224h59.89572c2.84914 0 5.07622 2.294494 5.14286 5.142858v38.857146l-28.00001 27.999996h-37.03857c-2.84914 0-5.14285-2.293714-5.14285-5.142857v-61.714285c0-2.849143 2.29371-5.142858 5.14285-5.142858z" fill="url(#d)" opacity=".45" transform="scale(1 -1)"/></g><path d="m48.042892-113.81244h37.999998l27 27v38.000001c0 2.77-2.23 5-5 5h-59.999998c-2.77 0-5-2.23-5-5v-60.000001c0-2.77 2.23-5 5-5z" fill="url(#i)" transform="matrix(1.0714286 0 0 1.0714286 -39.617384 105.15619)"/><path d="m11.857146-16.785388c-2.9678591 0-5.357146 2.3991-5.357146 5.379161v1.7930468 58.8209082c4.131706 8.719131 1.0697433 6.202743.8928611.896524v-58.8209036-1.7930574c0-2.493996 1.9804941-4.482632 4.4642889-4.482632h1.785715 37.142887 1.785718l28.035719 28.054062v1.793057 35.249474c-2.513132 6.59406.892811 7.468674.892811-.896526v-35.249476-1.793057l-28.928573-28.950581z" fill="url(#k)" opacity=".3"/><path d="m6.5000025 52.142855c0 3.36357 2.3892855 6.071428 5.3571425 6.071428h64.285714c2.967857 0 5.357143-2.707858 5.357143-6.071428v-13.571426h-74.9999995z" fill="url(#e)"/><path d="m11.857145 58.214283c-2.967857 0-5.3571425-2.399103-5.3571425-5.379155v-1.793053c.0365465-10.900962.8928589-11.133427.8928589-.896578v1.793052c0 2.493998 1.9804926 4.48263 4.4642856 4.48263h1.785716 60.714274 1.785718c2.483796 0 4.464289-1.988632 4.464289-4.48263v-1.793053c.08764-12.153031.892875-7.994396.892875.896527v1.793052c-.000021 2.980105-2.389307 5.379208-5.357164 5.379208z" fill="url(#j)" opacity=".2"/><g transform="matrix(.83630587 0 0 .76814022 -120.74138 41.348281)"><path d="m16.966797 9.0878906c-1.377301 0-1.257716 20.4645864-1.474609 35.8652344h3.132812c-.323685-14.158717-.211175-35.8652344-1.658203-35.8652344zm1.658203 35.8652344c.154547 6.760258.400647 11.955078.978516 11.955078 1.040629 0 1.185069-6.346168 1.421875-11.955078zm2.400391 0h2.171875c-.143436-4.760457-.384921-8.369141-.958985-8.369141-.78671 0-1.026865 3.962989-1.21289 8.369141zm2.171875 0c.320831 10.64803.103309 27.69269 1.677734 27.496094 1.264664-.157922 1.421183-14.140145 1.546875-27.496094zm3.224609 0h2.169922c-.09359-12.466097-.20137-23.978955-1.080078-23.910156-.886223.06938-.975242 11.732675-1.089844 23.910156zm2.169922 0c.111763 14.887144.203208 31.161912 1.556641 31.082031 1.67393-.09879 1.41081-18.375701 1.601562-31.082031zm3.158203 0h2.458984c-.159855-5.977906-.351525-11.955078-1.423828-11.955078-.714519 0-.934453 5.247096-1.035156 11.955078zm2.458984 0c.15886 5.940686.284734 11.882565 1.210938 11.955078.691913.05417.99096-5.240271 1.179687-11.955078zm2.390625 0h2.802735c-.242265-12.961784-.247789-28.691406-1.345703-28.691406-1.146462 0-1.119856 16.694884-1.457032 28.691406zm2.802735 0c.167744 8.974731.446684 16.653068 1.291015 16.736328 1.336663.131812 1.167352-9.381968 1.373047-16.736328zm2.664062 0h2.675782c-.09936-4.131172-.161184-8.482167-1.41211-8.369141-.866092.07826-1.136226 3.812486-1.263672 8.369141zm2.675782 0c.08831 3.671626.205938 7.171875 1.224609 7.171875.636632 0 .909793-3.087672 1.068359-7.171875zm2.292968 0h2.884766c-.142606-11.954847-.285399-23.910156-1.31836-23.910156-1.497721 0-1.210415 14.74088-1.566406 23.910156zm2.884766 0c.142606 11.954847.285404 23.908203 1.318359 23.908203.930366 0 1.215653-11.238197 1.386719-23.908203zm2.705078 0h2v-30.203125c-.182243-3.379052-.419549-5.5488186-.75-5.6621094-1.002541-.3437109-1.023018 19.0537944-1.25 35.8652344zm-37.132812 0h-2.699219c.195181 7.883933.346859 16.736328 1.537109 16.736328.777947 0 1.031312-7.448995 1.16211-16.736328zm-2.699219 0c-.155404-6.277211-.337979-11.955078-1.09961-11.955078-.637105 0-.823113 5.380649-.949218 11.955078zm-2.048828 0h-2.978516c.063264 11.954847.1166056 23.908203 1.2910156 23.908203 1.4402884 0 1.4873574-13.47387 1.6875004-23.908203zm-2.978516 0c-.0632637-11.954847-.134885-23.910156-1.34375-23.910156-2.34779 0-1.0538787 23.910156-2.6367188 23.910156zm47.511719.171875c.1916 14.819825.415575 28.618337 1.234375 28.519531 1.131808-.136574 1.173436-16.585331 1.517578-28.519531zm5.085937 0c.153975 5.917926.35296 11.783203 1.419922 11.783203.945468 0 1.193192-5.46845 1.320313-11.783203zm5.332031 0c.10691 10.005514.212811 20.150391 1.361329 20.150391 1.109824 0 1.277494-9.799767 1.371093-20.150391zm5.50586 0c.145392 5.264521.411974 9.390625 1.128906 9.390625.932775 0 1.172919-4.584654 1.359375-9.390625zm5.011719 0c.225055 7.233806.34734 15.369141 1.388671 15.369141.928783 0 1.148983-7.490703 1.322266-15.369141zm5.117187 0c.118545 12.234409.162111 26.128906 1.544922 26.128906 1.271817 0 1.420821-13.037821 1.501953-26.128906z" fill="url(#m)" opacity=".5" transform="translate(153.91341 -81.510263)"/><path d="m186.97132-58.656045c-1.49872.01494-3.02817.209323-4.54282.615173-9.69375 2.597434-15.44509 12.570777-12.84766 22.264531l2.95757-.780797c-.33769-1.256428-.5442-2.564592-.5442-3.927642 0-8.363095 6.77964-15.142721 15.14272-15.142721 8.36311 0 15.14272 6.779626 15.14272 15.142721 0 1.36305-.20649 2.671214-.54418 3.927642l2.95756.780797c.82556-3.081036.82557-6.335844 0-9.41688-2.19158-8.179104-9.62867-13.543536-17.72171-13.462824zm-13.27355 24.252013-3.66738.99374c-2.02579.542813-3.21644 2.611656-2.67363 4.637459l1.96382 7.311094c.54282 2.025805 2.61166 3.21645 4.63746 2.673637l3.64371-.97008zm26.97298 0-3.90399 14.64585 3.64372.97008c2.0258.542813 4.09464-.647832 4.63746-2.673637l1.96382-7.311094c.54281-2.025803-.64783-4.094646-2.67364-4.637459z" fill="#fff" opacity=".7"/></g><g fill-rule="evenodd"><path d="m43.694065-16.752387c5.137078-.03348 1.879587 31.017222 1.879587 31.017222s35.952525-7.1678051 35.952525 5.078738c0-2.983162-.009-6.343468-.009-6.343468l-29.605364-29.74858z" opacity=".2" stroke-width="1.995053"/><path d="m44.813635-16.709453c5.60792-.03348 2.370157 29.409725 2.370157 29.409725s34.154277-6.6177114 34.154277 5.298795c0-2.902768-.0088-6.172516-.0088-6.172516l-28.577099-28.532198z" opacity=".2" stroke-width="1.941287"/><path d="m46.257197-16.741222c5.654616-.0073 2.261853 27.448842 2.261853 27.448842s32.988522-5.4051998 32.988522 6.06048c0-2.792949-.0085-3.796138-.0085-3.796138l-29.767428-29.732304z" opacity=".2" stroke-width="1.871432"/><path d="m47.578312-16.755847c6.006363 0 2.163461 25.935733 2.163461 25.935733s31.765441-4.6711083 31.765441 6.389377c0-2.694248-.0081-3.586255-.0081-3.586255l-28.791275-28.757298z" fill="url(#l)" stroke-width="1.805296"/></g><path d="m6.5000025 38.571429h74.9999995v1.428571h-74.9999995z" opacity=".3"/><path d="m6.5000025 37.142858h74.9999995v1.428571h-74.9999995z" fill="#fff" opacity=".1"/><g fill="#fff" transform="matrix(.97315557 0 0 .97315564 2.733295 -34.811762)"><path d="m34.782552 88.127604h-3.919271l-.618489 1.770833h-2.519532l3.600261-9.720052h2.988281l3.60026 9.720052h-2.519531zm-3.294271-1.803385h2.662761l-1.328125-3.867188z"/><path d="m38.779948 80.178385h2.50651v5.826823q0 1.204427.390625 1.725261.397135.514322 1.289062.514322.898438 0 1.289063-.514322.397135-.520834.397135-1.725261v-5.826823h2.506511v5.826823q0 2.063802-1.035157 3.072917-1.035156 1.009114-3.157552 1.009114-2.115885 0-3.151041-1.009114-1.035156-1.009115-1.035156-3.072917z"/><path d="m49.613281 80.178385h4.160156q1.855468 0 2.845052.826823.996093.820313.996093 2.34375 0 1.529948-.996093 2.356771-.989584.820312-2.845052.820312h-1.653646v3.372396h-2.50651zm2.50651 1.816407v2.714843h1.386719q.729166 0 1.126302-.351562.397135-.358073.397135-1.009115 0-.651041-.397135-1.002604-.397136-.351562-1.126302-.351562z"/></g></g></svg>