<svg height="64" width="64" xmlns="http://www.w3.org/2000/svg" xmlns:xlink="http://www.w3.org/1999/xlink"><linearGradient id="a"><stop offset="0" stop-color="#fff"/><stop offset="1" stop-color="#fff" stop-opacity="0"/></linearGradient><linearGradient id="b" gradientTransform="matrix(1.0058652 0 0 .994169 100 0)" gradientUnits="userSpaceOnUse" x1="45.447727" x2="45.447727" y1="92.539597" y2="7.01654"><stop offset="0"/><stop offset="1" stop-opacity=".588235"/></linearGradient><linearGradient id="c" gradientTransform="matrix(.88095236 0 0 .88095242 102.24686 -91.378936)" gradientUnits="userSpaceOnUse" x1="32.251034" x2="32.251034" xlink:href="#b" y1="6.131708" y2="90.238609"/><linearGradient id="d" gradientTransform="matrix(.85714286 0 0 .85714286 103.38971 -90.236078)" gradientUnits="userSpaceOnUse" x1="32.251034" x2="32.251034" xlink:href="#b" y1="6.131708" y2="90.238609"/><linearGradient id="e" gradientTransform="matrix(0 -1.0119049 .89285716 0 1.14286 64.285716)" gradientUnits="userSpaceOnUse" x1="7.3709" x2="23.76619" y1="51.470146" y2="51.433136"><stop offset="0" stop-color="#372721"/><stop offset="1" stop-color="#493830"/></linearGradient><linearGradient id="f" gradientTransform="matrix(.88966473 0 0 -.88897608 101.82866 91.764071)" gradientUnits="userSpaceOnUse" x1="32.251034" x2="32.251034" xlink:href="#b" y1="6.131708" y2="90.238609"/><linearGradient id="g" gradientTransform="matrix(.88668581 0 0 -.88621557 101.97166 91.631566)" gradientUnits="userSpaceOnUse" x1="32.251034" x2="32.251034" xlink:href="#b" y1="6.131708" y2="90.238609"/><linearGradient id="h" gradientTransform="matrix(.88419911 0 0 -.88396282 102.09102 91.52343)" gradientUnits="userSpaceOnUse" x1="32.251034" x2="32.251034" xlink:href="#b" y1="6.131708" y2="90.238609"/><linearGradient id="i" gradientUnits="userSpaceOnUse" x1="78.04289384" x2="78.04289384" y1="-43.8124403" y2="-113.82267585329"><stop offset="0" stop-color="#5a4c47"/><stop offset="1" stop-color="#716765"/></linearGradient><radialGradient id="j" cx="48" cy="90.171875" gradientTransform="matrix(1.0333151 0 0 .89285716 -5.599123 -22.296321)" gradientUnits="userSpaceOnUse" r="42" xlink:href="#a"/><linearGradient id="k" gradientTransform="matrix(.83333387 0 0 .83675756 38.042891 -118.83298)" gradientUnits="userSpaceOnUse" x1="36.357143" x2="36.357143" xlink:href="#a" y1="6" y2="63.893143"/><linearGradient id="l" gradientTransform="matrix(2.4467882 0 0 2.4908279 -19.058972 -21.607478)" gradientUnits="userSpaceOnUse" x1="32.891998" x2="36.358002" y1="8.059" y2="5.4565"><stop offset="0" stop-color="#9a827b"/><stop offset="1" stop-color="#7a6962"/></linearGradient><g transform="matrix(.7 0 0 .7 1.2 18)"><g transform="matrix(1.0714286 0 0 1.0714286 -110.85633 -31.885595)"><path d="m114.1583 89.09322c-4.78901 0-8.71691-3.971039-8.71691-8.812629v-62.374743c0-4.841588 3.9279-8.812628 8.71691-8.812628h38.74855l30.7169 30.812628v40.374743c0 4.84159-3.9279 8.812629-8.7169 8.812629z" fill="url(#f)" opacity=".08"/><path d="m114.2634 88.09322c-4.30575 0-7.82165-3.55537-7.82165-7.909474v-62.181052c0-4.354104 3.5159-7.909474 7.82165-7.909474h38.36008l30 30v40.090526c0 4.354104-3.51589 7.909474-7.82165 7.909474z" fill="url(#g)" opacity=".1"/><path d="m114.35075 87.09322c-3.80788 0-6.90909-3.13685-6.90909-6.98851v-62.02298c0-3.851661 3.10121-6.98851 6.90909-6.98851h38.27273l29 29v40.01149c0 3.85166-3.1012 6.98851-6.90909 6.98851z" fill="url(#h)" opacity=".2"/><path d="m114.46511-86.093224h60.13512c3.33689 0 6.02326 2.717977 6.02326 6.094118v38.905886l-29.00001 28.999996h-37.15837c-3.33688 0-6.02325-2.717976-6.02325-6.094117v-61.811765c0-3.376141 2.68637-6.094118 6.02325-6.094118z" fill="url(#c)" opacity=".3" transform="scale(1 -1)"/><path d="m114.58491-85.093224h59.89572c2.84914 0 5.07622 2.294494 5.14286 5.142858v38.857146l-28.00001 27.999996h-37.03857c-2.84914 0-5.14285-2.293714-5.14285-5.142857v-61.714285c0-2.849143 2.29371-5.142858 5.14285-5.142858z" fill="url(#d)" opacity=".45" transform="scale(1 -1)"/></g><g transform="matrix(1.0714286 0 0 1.0714286 -39.617384 105.15619)"><path d="m48.042892-113.81244h37.999998l27 27v38.000001c0 2.77-2.23 5-5 5h-59.999998c-2.77 0-5-2.23-5-5v-60.000001c0-2.77 2.23-5 5-5z" fill="url(#i)"/><path d="m48.042897-113.81244c-2.770002 0-5.000003 2.23916-5.000003 5.02055v1.67351 54.899511c3.856259 8.137855.998427 5.789227.833337.836756v-54.899507-1.67352c0-2.32773 1.848461-4.18379 4.166669-4.18379h1.666668 34.666692 1.66667l26.16667 26.18379v1.67352 32.899507c-2.34559 6.154455.83329 6.970762.83329-.836758v-32.899509-1.67352l-27-27.02054z" fill="url(#k)" opacity=".3"/></g><path d="m6.5000025 52.142855c0 3.36357 2.3892855 6.071428 5.3571425 6.071428h64.285714c2.967857 0 5.357143-2.707858 5.357143-6.071428v-13.571426h-74.9999995z" fill="url(#e)"/><path d="m11.857145 58.214283c-2.967857 0-5.3571425-2.399103-5.3571425-5.379155v-1.793053c.0365465-10.900962.8928589-11.133427.8928589-.896578v1.793052c0 2.493998 1.9804926 4.48263 4.4642856 4.48263h1.785716 60.714274 1.785718c2.483796 0 4.464289-1.988632 4.464289-4.48263v-1.793053c.08764-12.153031.892875-7.994396.892875.896527v1.793052c-.000021 2.980105-2.389307 5.379208-5.357164 5.379208z" fill="url(#j)" opacity=".2"/><g transform="matrix(.93441655 0 0 .93441655 -.510407 -25.516944)"><g fill="#ffd8b8" stroke="#ffd8b8" stroke-width=".1" transform="translate(115.92479 13.632399)"><path d="m-100.44531 2.5119758-.10469.4953125h.40625v.16875h-.44219l-.1375.6375h-.17187l.13437-.6375h-.56718l-.13125.6375h-.17188l.13125-.6375h-.31406v-.16875h.35156l.10469-.4953125h-.37656v-.16875h.41093l.13907-.6375h.17187l-.1375.6375h.56719l.1375-.6375h.17187l-.1375.6375h.32969v.16875zm-.73594 0-.10781.4953125h.56562l.10469-.4953125z"/><path d="m-98.903125 3.1932258h-.23125l-.0375-1.4859375h.30625zm-.271875.6203125v-.3140625h.303125v.3140625z"/><path d="m-97.882812 3.8447883 1.282812-2.35h.278125l-1.276562 2.35z"/><path d="m-95.571875 2.1229133v1.071875q0 .24375.07656.3390625.07656.09375.273437.09375.201563 0 .31875-.1375.117188-.1375.117188-.3875v-.9796875h.282812v1.3296875q0 .2953125.0094.3609375h-.265625q-.0016-.00781-.0031-.042187-.0016-.034375-.0047-.078125-.0016-.045313-.0047-.16875h-.0047q-.09687.175-.225.2484375-.126563.071875-.315625.071875-.278125 0-.407813-.1375-.128125-.1390625-.128125-.4578125v-1.126563z"/><path d="m-92.567187 3.3307258q0 .240625-.182813.378125-.18125.1359375-.503125.1359375-.321875 0-.490625-.1-.167187-.1015625-.21875-.31875l.248438-.048437q.02969.134375.126562.196875.09844.060938.334375.060938.421875 0 .421875-.2671875 0-.1-.07656-.1609375-.07656-.0625-.234375-.1015625-.4125-.1015625-.523438-.159375-.110937-.057812-.170312-.14375-.05938-.0875-.05938-.2171875 0-.2296875.165625-.359375.165625-.1296875.479687-.1296875.275 0 .439063.1046875.164062.103125.204687.3015625l-.253125.03125q-.01719-.1125-.110937-.1703125-.09375-.057813-.279688-.057813-.382812 0-.382812.2359375 0 .09375.06406.15.06562.05625.209375.090625l.185938.048438q.254687.0625.365625.1234375.1125.060938.176562.153125.06406.090625.06406.2234375z"/><path d="m-90.671875 2.3791633q-.175-.029688-.33125-.029688-.251562 0-.40625.1890625-.154687.1890625-.154687.48125v.79375h-.28125v-1.095312q0-.11875-.02187-.2796875-.02031-.1609375-.05938-.315625h.267187q.0625.215625.075.390625h.0078q.07813-.175.153125-.25625.075-.082812.178125-.1234375.103125-.042187.251562-.042187.1625 0 .321875.026562z"/><path d="m-90.207812 3.8447883 1.282813-2.35h.278125l-1.276563 2.35z"/><path d="m-86.764062 2.9604133q0 .44375-.159375.6640625-.157812.2203125-.453125.2203125-.38125 0-.521875-.2875h-.0031q0 .075-.0063.15625-.0047.08125-.0078.1h-.271875q.0094-.084375.0094-.3484375v-1.9703125h.28125v.6609375q0 .1015625-.0063.2453125h.0063q.142187-.3125.521875-.3125.610937 0 .610937.871875zm-.290625.00937q0-.35-.09687-.50625-.09531-.1578125-.3-.1578125-.232812 0-.339062.171875-.10625.1703125-.10625.5171875 0 .3265625.103125.484375.103125.1578125.339062.1578125.210938 0 .304688-.1625.09531-.1640625.09531-.5046875z"/><path d="m-85.384375 3.5916633h.59375v.221875h-1.534375v-.221875h.659375v-1.246875h-.498437v-.221875h.779687zm-.3125-1.796875v-.3h.3125v.3z"/><path d="m-83.273436 3.8135383v-1.0859375q0-.2125-.08281-.315625-.08125-.103125-.260937-.103125-.19375 0-.31875.1421875-.123438.140625-.123438.3828125v.9796875h-.28125v-1.3296875q0-.2953125-.0094-.3609375h.265625q.0016.00781.0031.042187.0016.034375.0031.079688.0031.04375.0063.1671875h.0047q.164062-.3203125.540625-.3203125.270312 0 .403125.146875.132812.1453125.132812.4484375v1.1265625z"/><path d="m-82.532812 3.8447883 1.282812-2.35h.278125l-1.276562 2.35z"/><path d="m-79.089062 2.9604133q0 .884375-.6125.884375-.384375 0-.517187-.2875h-.0078q.0062.0125.0062.259375v.6609375h-.282812v-2.0046875q0-.265625-.0094-.35h.273437q.0016.00625.0047.046875.0031.039063.0063.1171875.0047.076563.0047.1140625h.0063q.07813-.1640625.198438-.2375.121875-.075.317187-.075.309375 0 .460938.2140625.151562.2125.151562.6578125zm-.290625 0q0-.353125-.09531-.503125-.09531-.1515625-.3-.1515625-.235938 0-.340625.171875-.104688.1703125-.104688.5171875 0 .3328125.104688.4875.104687.1546875.3375.1546875.207812 0 .303125-.1578125.09531-.1578125.09531-.51875z"/><path d="m-78.370311 3.0276008q0 .284375.125.4453125.126563.1609375.345313.1609375.160937 0 .28125-.06875.121875-.070312.1625-.190625l.246875.070312q-.06875.19375-.253125.296875-.182813.103125-.4375.103125-.36875 0-.567188-.2296875-.198437-.2296875-.198437-.6578125 0-.4171875.19375-.640625.195312-.225.5625-.225.367187 0 .55625.2234375.189062.2234375.189062.675v.0375zm.464063-.728125q-.209375 0-.33125.1375-.121875.1359375-.129688.375h.9125q-.04375-.5125-.451562-.5125z"/><path d="m-75.321875 2.3791633q-.175-.029688-.33125-.029688-.251562 0-.40625.1890625-.154687.1890625-.154687.48125v.79375h-.28125v-1.095312q0-.11875-.02188-.2796875-.02031-.1609375-.05937-.315625h.267187q.0625.215625.075.390625h.0078q.07813-.175.153125-.25625.075-.082812.178125-.1234375.103125-.042187.251562-.042187.1625 0 .321875.026562z"/><path d="m-73.885936 3.5916633h.59375v.221875h-1.534375v-.221875h.659375v-1.875h-.451563v-.221875h.732813z"/><path d="m-101.32812 7.2429137v1.071875q0 .24375.0766.3390625.0766.09375.27344.09375.20156 0 .31875-.1375.11718-.1375.11718-.3875v-.9796875h.28282v1.3296875q0 .2953125.009.3609375h-.26562q-.002-.00781-.003-.042187-.002-.034375-.005-.078125-.002-.045313-.005-.16875h-.005q-.0969.175-.225.2484375-.12656.071875-.31563.071875-.27812 0-.40781-.1375-.12812-.1390625-.12812-.4578125v-1.126563z"/><path d="m-98.323437 8.4507262q0 .240625-.182813.378125-.18125.1359375-.503125.1359375-.321875 0-.490625-.1-.167187-.1015625-.21875-.31875l.248438-.048438q.02969.134375.126562.196875.09844.060937.334375.060937.421875 0 .421875-.2671875 0-.1-.07656-.1609375-.07656-.0625-.234375-.1015625-.4125-.1015625-.523438-.159375-.110937-.057812-.170312-.14375-.05938-.0875-.05938-.2171875 0-.2296875.165625-.359375.165625-.1296875.479687-.1296875.275 0 .439063.1046875.164062.103125.204687.3015625l-.253125.03125q-.01719-.1125-.110937-.1703125-.09375-.057813-.279688-.057813-.382812 0-.382812.2359375 0 .09375.06406.15.06562.05625.209375.090625l.185938.048438q.254687.0625.365625.1234375.1125.060937.176562.153125.06406.090625.06406.2234375z"/><path d="m-97.557812 8.1476012q0 .284375.125.4453125.126562.1609375.345312.1609375.160938 0 .28125-.06875.121875-.070312.1625-.190625l.246875.070312q-.06875.19375-.253125.296875-.182812.103125-.4375.103125-.36875 0-.567187-.2296875-.198438-.2296875-.198438-.6578125 0-.4171875.19375-.640625.195313-.225.5625-.225.367188 0 .55625.2234375.189063.2234375.189063.675v.0375zm.464062-.728125q-.209375 0-.33125.1375-.121875.1359375-.129687.375h.9125q-.04375-.5125-.451563-.5125z"/><path d="m-92.567187 8.4507262q0 .240625-.182813.378125-.18125.1359375-.503125.1359375-.321875 0-.490625-.1-.167187-.1015625-.21875-.31875l.248438-.048438q.02969.134375.126562.196875.09844.060937.334375.060937.421875 0 .421875-.2671875 0-.1-.07656-.1609375-.07656-.0625-.234375-.1015625-.4125-.1015625-.523438-.159375-.110937-.057812-.170312-.14375-.05938-.0875-.05938-.2171875 0-.2296875.165625-.359375.165625-.1296875.479687-.1296875.275 0 .439063.1046875.164062.103125.204687.3015625l-.253125.03125q-.01719-.1125-.110937-.1703125-.09375-.057813-.279688-.057813-.382812 0-.382812.2359375 0 .09375.06406.15.06562.05625.209375.090625l.185938.048438q.254687.0625.365625.1234375.1125.060937.176562.153125.06406.090625.06406.2234375z"/><path d="m-92.007812 7.4647887v-.221875h.265625l.09063-.440625h.1875v.440625h.675v.221875h-.675v1.01875q0 .1234375.06562.1828125.06719.059375.21875.059375.209375 0 .464062-.053125v.2140625q-.264062.071875-.523437.071875-.253125 0-.379688-.10625-.126562-.1078125-.126562-.3390625v-1.0484375z"/><path d="m-88.753124 7.4991637q-.175-.029688-.33125-.029688-.251563 0-.40625.1890625-.154688.1890625-.154688.48125v.79375h-.28125v-1.095312q0-.11875-.02187-.2796875-.02031-.1609375-.05938-.315625h.267188q.0625.215625.075.390625h.0078q.07813-.175.153125-.25625.075-.082813.178125-.1234375.103125-.042187.251563-.042187.1625 0 .321875.026562z"/><path d="m-87.303124 8.7116637h.59375v.221875h-1.534375v-.221875h.659375v-1.246875h-.498438v-.221875h.779688zm-.3125-1.796875v-.3h.3125v.3z"/><path d="m-86.345312 8.0866637q0-.421875.201562-.6484375.201563-.2265625.582813-.2265625.284375 0 .46875.1375.184375.1359375.228125.3671875l-.3.021875q-.025-.1421875-.125-.2234375-.1-.082813-.284375-.082813-.246875 0-.3625.153125-.114063.1531255-.114063.495313 0 .346875.114063.5078125.115625.159375.360937.159375.16875 0 .279688-.082812.110937-.082813.1375-.253125l.296875.01875q-.02031.15-.114063.2734375-.09219.121875-.245312.1921875-.153125.06875-.342188.06875-.382812 0-.582812-.225-.2-.225-.2-.6531255z"/><path d="m-84.332811 7.4647887v-.221875h.265625l.09063-.440625h.1875v.440625h.675v.221875h-.675v1.01875q0 .1234375.06562.1828125.06719.059375.21875.059375.209375 0 .464062-.053125v.2140625q-.264062.071875-.523437.071875-.253125 0-.379688-.10625-.126562-.1078125-.126562-.3390625v-1.0484375z"/><path d="m-81.935937 7.7101012v-.4671875h.367187v.4671875zm-.225 1.790625.264062-1.034375h.414063l-.485938 1.034375z"/><path d="m-101.32812 12.362914v1.071875q0 .24375.0766.339063.0766.09375.27344.09375.20156 0 .31875-.1375.11718-.1375.11718-.3875v-.979688h.28282v1.329688q0 .295312.009.360937h-.26562q-.002-.0078-.003-.04219-.002-.03438-.005-.07813-.002-.04531-.005-.16875h-.005q-.0969.175-.225.248437-.12656.07188-.31563.07188-.27812 0-.40781-.1375-.12812-.139062-.12812-.457812v-1.126563z"/><path d="m-98.323437 13.570727q0 .240625-.182813.378125-.18125.135937-.503125.135937-.321875 0-.490625-.1-.167187-.101562-.21875-.31875l.248438-.04844q.02969.134375.126562.196875.09844.06094.334375.06094.421875 0 .421875-.267187 0-.1-.07656-.160938-.07656-.0625-.234375-.101562-.4125-.101563-.523438-.159375-.110937-.05781-.170312-.14375-.05938-.0875-.05938-.217188 0-.229687.165625-.359375.165625-.129687.479687-.129687.275 0 .439063.104687.164062.103125.204687.301563l-.253125.03125q-.01719-.1125-.110937-.170313-.09375-.05781-.279688-.05781-.382812 0-.382812.235937 0 .09375.06406.15.06562.05625.209375.09063l.185938.04844q.254687.0625.365625.123437.1125.06094.176562.153125.06406.09062.06406.223438z"/><path d="m-97.557812 13.267602q0 .284375.125.445312.126562.160938.345312.160938.160938 0 .28125-.06875.121875-.07031.1625-.190625l.246875.07031q-.06875.19375-.253125.296875-.182812.103125-.4375.103125-.36875 0-.567187-.229687-.198438-.229688-.198438-.657813 0-.417187.19375-.640625.195313-.225.5625-.225.367188 0 .55625.223438.189063.223437.189063.675v.0375zm.464062-.728125q-.209375 0-.33125.1375-.121875.135937-.129687.375h.9125q-.04375-.5125-.451563-.5125z"/><path d="m-92.632812 14.053539h-.31875l-.223438-.735937-.08906-.315625-.06094.217187-.2625.834375h-.317187l-.285938-1.690625h.278125l.145313.948438q.05156.4125.05156.509375.06094-.25.09063-.334375l.210938-.6625h.301562l.203125.664062q.05.164063.08594.332813 0-.04687.0062-.117188.0063-.07031.01563-.14375.0094-.075.01875-.142187.0094-.06719.01406-.10625l.157813-.948438h.275z"/><path d="m-90.584375 13.880102q.04062 0 .09219-.01094v.175q-.10625.025-.217188.025-.15625 0-.228125-.08125-.07031-.08281-.07969-.257812h-.0094q-.101563.189062-.240625.271875-.1375.08281-.340625.08281-.246875 0-.371875-.134375-.125-.134375-.125-.36875 0-.545312.709375-.553125l.36875-.0062v-.09219q0-.204688-.08281-.29375-.08281-.09063-.264062-.09063-.184375 0-.265625.06563-.08125.06563-.09688.203125l-.29375-.02656q.07187-.45625.660937-.45625.3125 0 .46875.146875.157813.145313.157813.421875v.728125q0 .125.03281.189063.03281.0625.125.0625zm-.951562-.0094q.15 0 .265625-.07188.115625-.07188.179687-.192188.06406-.120312.06406-.248437v-.139063l-.296875.0063q-.184375.0031-.28125.04062-.09687.0375-.151563.115625-.05313.07656-.05313.204688 0 .128125.06875.20625.07031.07813.204688.07813z"/><path d="m-88.753124 12.619164q-.175-.02969-.33125-.02969-.251563 0-.40625.189062-.154688.189063-.154688.48125v.79375h-.28125v-1.095312q0-.11875-.02187-.279688-.02031-.160937-.05938-.315625h.267188q.0625.215625.075.390625h.0078q.07813-.175.153125-.25625.075-.08281.178125-.123437.103125-.04219.251563-.04219.1625 0 .321875.02656z"/><path d="m-87.110937 14.053539v-1.085937q0-.2125-.08281-.315625-.08125-.103125-.260938-.103125-.19375 0-.31875.142187-.123437.140625-.123437.382813v.979687h-.28125v-1.329687q0-.295313-.0094-.360938h.265625q.0016.0078.0031.04219.0016.03438.0031.07969.0031.04375.0062.167188h.0047q.164063-.320313.540625-.320313.270313 0 .403125.146875.132813.145313.132813.448438v1.126562z"/><path d="m-85.384375 13.831664h.59375v.221875h-1.534375v-.221875h.659375v-1.246875h-.498437v-.221875h.779687zm-.3125-1.796875v-.3h.3125v.3z"/><path d="m-83.273436 14.053539v-1.085937q0-.2125-.08281-.315625-.08125-.103125-.260937-.103125-.19375 0-.31875.142187-.123438.140625-.123438.382813v.979687h-.28125v-1.329687q0-.295313-.0094-.360938h.265625q.0016.0078.0031.04219.0016.03438.0031.07969.0031.04375.0063.167188h.0047q.164062-.320313.540625-.320313.270312 0 .403125.146875.132812.145313.132812.448438v1.126562z"/><path d="m-81.75 14.716039q-.2625 0-.421875-.107812-.159375-.107813-.203125-.309375l.2875-.03906q.02656.117188.114063.179688.08906.06406.232812.06406.3875 0 .3875-.492187v-.303125h-.0031q-.07656.160937-.2125.24375-.135937.08281-.323437.08281-.309375 0-.453125-.201562-.142188-.203125-.142188-.6375 0-.442188.153125-.65.153125-.209375.471875-.209375.176563 0 .30625.08281.13125.08125.201563.232813h.0047q0-.04687.0062-.157813.0062-.1125.0125-.13125h.267188q-.0094.08437-.0094.35v1.290625q0 .354688-.165625.532813-.165625.179687-.510938.179687zm.396875-1.523437q0-.301563-.117187-.473438-.117188-.173437-.321875-.173437-.214063 0-.309375.15-.09531.148437-.09531.496875 0 .235937.03906.373437.04063.135938.125.198438.08438.0625.235937.0625.132813 0 .232813-.07344.101562-.075.15625-.217187.05469-.14375.05469-.34375z"/><path d="m-79.135937 13.570727q0 .240625-.182812.378125-.18125.135937-.503125.135937-.321875 0-.490625-.1-.167188-.101562-.21875-.31875l.248437-.04844q.02969.134375.126563.196875.09844.06094.334375.06094.421875 0 .421875-.267187 0-.1-.07656-.160938-.07656-.0625-.234375-.101562-.4125-.101563-.523437-.159375-.110938-.05781-.170313-.14375-.05938-.0875-.05938-.217188 0-.229687.165625-.359375.165625-.129687.479688-.129687.275 0 .439062.104687.164063.103125.204688.301563l-.253125.03125q-.01719-.1125-.110938-.170313-.09375-.05781-.279687-.05781-.382813 0-.382813.235937 0 .09375.06406.15.06563.05625.209375.09063l.185937.04844q.254688.0625.365625.123437.1125.06094.176563.153125.06406.09062.06406.223438z"/><path d="m-78.098436 12.830102v-.467188h.367188v.467188zm-.225 1.790625.264063-1.034375h.414062l-.485937 1.034375z"/><path d="m-101.32812 20.816248v1.071875q0 .24375.0766.339062.0766.09375.27344.09375.20156 0 .31875-.1375.11718-.1375.11718-.3875v-.979687h.28282v1.329687q0 .295313.009.360938h-.26562q-.002-.0078-.003-.04219-.002-.03438-.005-.07813-.002-.04531-.005-.16875h-.005q-.0969.175-.225.248438-.12656.07187-.31563.07187-.27812 0-.40781-.1375-.12812-.139063-.12812-.457813v-1.126562z"/><path d="m-98.323437 22.02406q0 .240625-.182813.378125-.18125.135938-.503125.135938-.321875 0-.490625-.1-.167187-.101563-.21875-.31875l.248438-.04844q.02969.134375.126562.196875.09844.06094.334375.06094.421875 0 .421875-.267188 0-.1-.07656-.160937-.07656-.0625-.234375-.101563-.4125-.101562-.523438-.159375-.110937-.05781-.170312-.14375-.05938-.0875-.05938-.217187 0-.229688.165625-.359375.165625-.129688.479687-.129688.275 0 .439063.104688.164062.103125.204687.301562l-.253125.03125q-.01719-.1125-.110937-.170312-.09375-.05781-.279688-.05781-.382812 0-.382812.235938 0 .09375.06406.15.06562.05625.209375.09062l.185938.04844q.254687.0625.365625.123438.1125.06094.176562.153125.06406.09062.06406.223437z"/><path d="m-97.557812 21.720935q0 .284375.125.445313.126562.160937.345312.160937.160938 0 .28125-.06875.121875-.07031.1625-.190625l.246875.07031q-.06875.19375-.253125.296875-.182812.103125-.4375.103125-.36875 0-.567187-.229688-.198438-.229687-.198438-.657812 0-.417188.19375-.640625.195313-.225.5625-.225.367188 0 .55625.223437.189063.223438.189063.675v.0375zm.464062-.728125q-.209375 0-.33125.1375-.121875.135938-.129687.375h.9125q-.04375-.5125-.451563-.5125z"/><path d="m-92.475 21.03031q0 .195313-.09375.348438-.09219.153125-.265625.239062-.171875.08594-.398437.08594h-.439063v.803125h-.298437v-2.107815h.71875q.371875 0 .573437.167188.203125.165625.203125.464062zm-.3.0047q0-.396875-.5125-.396875h-.384375v.829675h.396875q.232813 0 .365625-.114062.134375-.114063.134375-.31875z"/><path d="m-90.584375 22.333435q.04062 0 .09219-.01094v.175q-.10625.025-.217188.025-.15625 0-.228125-.08125-.07031-.08281-.07969-.257813h-.0094q-.101563.189063-.240625.271875-.1375.08281-.340625.08281-.246875 0-.371875-.134375-.125-.134375-.125-.36875 0-.545313.709375-.553125l.36875-.0063v-.09219q0-.204687-.08281-.29375-.08281-.09062-.264062-.09062-.184375 0-.265625.06563-.08125.06563-.09688.203125l-.29375-.02656q.07187-.45625.660937-.45625.3125 0 .46875.146875.157813.145312.157813.421875v.728125q0 .125.03281.189062.03281.0625.125.0625zm-.951562-.0094q.15 0 .265625-.07187.115625-.07188.179687-.192187.06406-.120313.06406-.248438v-.139062l-.296875.0062q-.184375.0031-.28125.04063-.09687.0375-.151563.115625-.05313.07656-.05313.204687 0 .128125.06875.20625.07031.07813.204688.07813z"/><path d="m-90.089062 21.038123v-.221875h.265625l.09063-.440625h.1875v.440625h.675v.221875h-.675v1.01875q0 .123437.06562.182812.06719.05937.21875.05937.209375 0 .464063-.05313v.214063q-.264063.07188-.523438.07188-.253125 0-.379687-.10625-.126563-.107813-.126563-.339063v-1.048437z"/><path d="m-88.178124 20.188123h.282812v.609375q0 .09219-.01406.307812h.0047q.164063-.320312.529688-.320312.546875 0 .546875.595312v1.126563h-.282813v-1.085938q0-.2125-.08281-.315625-.08125-.103125-.260938-.103125-.19375 0-.31875.142188-.123437.140625-.123437.382812v.979688h-.28125z"/><path d="m-85.773437 22.506873v-.467188h.367187v.467188zm0-1.223438v-.467187h.367187v.467187z"/><path d="m-83.854686 22.506873v-.467188h.367187v.467188zm0-1.223438v-.467187h.367187v.467187z"/><path d="m-82.220312 21.44281q0 .426563.132812.640625.134375.2125.409375.2125.157813 0 .285938-.10625.128125-.107812.217187-.334375l.248438.101563q-.232813.58125-.754688.58125-.410937 0-.632812-.282813-.220313-.282812-.220313-.8125 0-1.076562.8375-1.076562.529688 0 .728125.523437l-.2625.101563q-.05781-.176563-.18125-.278125-.121875-.103125-.282812-.103125-.267188 0-.396875.201562-.128125.201563-.128125.63125z"/><path d="m-79.642187 22.284998h.59375v.221875h-1.534375v-.221875h.659375v-1.875h-.451562v-.221875h.732812z"/><path d="m-77.153123 22.333435q.04062 0 .09219-.01094v.175q-.10625.025-.217187.025-.15625 0-.228125-.08125-.07031-.08281-.07969-.257813h-.0094q-.101562.189063-.240625.271875-.1375.08281-.340625.08281-.246875 0-.371875-.134375-.125-.134375-.125-.36875 0-.545313.709375-.553125l.36875-.0063v-.09219q0-.204687-.08281-.29375-.08281-.09062-.264063-.09062-.184375 0-.265625.06563-.08125.06563-.09687.203125l-.29375-.02656q.07188-.45625.660938-.45625.3125 0 .46875.146875.157812.145312.157812.421875v.728125q0 .125.03281.189062.03281.0625.125.0625zm-.951563-.0094q.15 0 .265625-.07187.115625-.07188.179688-.192187.06406-.120313.06406-.248438v-.139062l-.296875.0062q-.184375.0031-.28125.04063-.09688.0375-.151562.115625-.05313.07656-.05313.204687 0 .128125.06875.20625.07031.07813.204687.07813z"/><path d="m-75.298437 22.02406q0 .240625-.182813.378125-.18125.135938-.503125.135938-.321875 0-.490625-.1-.167187-.101563-.21875-.31875l.248438-.04844q.02969.134375.126562.196875.09844.06094.334375.06094.421875 0 .421875-.267188 0-.1-.07656-.160937-.07656-.0625-.234375-.101563-.4125-.101562-.523438-.159375-.110937-.05781-.170312-.14375-.05938-.0875-.05938-.217187 0-.229688.165625-.359375.165625-.129688.479687-.129688.275 0 .439063.104688.164062.103125.204687.301562l-.253125.03125q-.01719-.1125-.110937-.170312-.09375-.05781-.279688-.05781-.382812 0-.382812.235938 0 .09375.06406.15.06562.05625.209375.09062l.185938.04844q.254687.0625.365625.123438.1125.06094.176562.153125.06406.09062.06406.223437z"/><path d="m-73.379686 22.02406q0 .240625-.182813.378125-.18125.135938-.503125.135938-.321875 0-.490625-.1-.167187-.101563-.21875-.31875l.248438-.04844q.02969.134375.126562.196875.09844.06094.334375.06094.421875 0 .421875-.267188 0-.1-.07656-.160937-.07656-.0625-.234375-.101563-.4125-.101562-.523438-.159375-.110937-.05781-.170312-.14375-.05938-.0875-.05938-.217187 0-.229688.165625-.359375.165625-.129688.479687-.129688.275 0 .439063.104688.164062.103125.204687.301562l-.253125.03125q-.01719-.1125-.110937-.170312-.09375-.05781-.279688-.05781-.382812 0-.382812.235938 0 .09375.06406.15.06562.05625.209375.09062l.185938.04844q.254687.0625.365625.123438.1125.06094.176562.153125.06406.09062.06406.223437z"/><path d="m-72.342187 21.283435v-.467187h.367187v.467187zm-.225 1.790625.264062-1.034375h.414063l-.485938 1.034375z"/><path d="m-101.06875 30.960208v-1.071875q0-.240625-.0391-.335938-.0375-.09688-.13906-.09688-.1 0-.1625.15-.0609.15-.0609.40625v.948438h-.26406v-1.329683q0-.295312-.009-.360937h.23281l.009.198437v.075h.003q.0531-.159375.13438-.23125.0812-.07344.20312-.07344.1375 0 .20469.075.0687.075.0984.23125h.003q.0625-.165625.14844-.235938.0875-.07031.22031-.07031.18438 0 .26407.134375.0797.134375.0797.460937v1.126563h-.2625v-1.071875q0-.240625-.0391-.335938-.0375-.09688-.13906-.09688-.10313 0-.16406.13125-.0594.13125-.0594.39375v.979688z"/><path d="m-99.523437 31.62427q-.115625 0-.19375-.01719v-.210938q.05937.0094.13125.0094.123437 0 .23125-.09219.109375-.09219.184375-.29375l.02812-.07656-.734375-1.673437h.3l.4125 1.003125q.142187.35.153125.396875l.06406-.171875.484375-1.228125h.296875l-.7125 1.690625q-.139062.367187-.289062.515625-.148438.148437-.35625.148437z"/><path d="m-94.345312 30.366458q0 .253125-.1875.401562-.1875.146875-.5375.160938v.251562h-.2v-.251562q-.659375-.02188-.76875-.560938l.265625-.05781q.04063.196875.165625.295312.125.09688.3375.107813v-.764065l-.04687-.0125q-.2625-.06406-.385938-.139062-.121875-.07656-.179687-.182813-.05625-.10625-.05625-.253125 0-.232812.170312-.3625.171875-.13125.498438-.142187v-.203125h.2v.203125q.290625.01094.448437.125.157813.1125.228125.376562l-.271875.05156q-.03438-.165622-.13438-.249997-.1-.08438-.270312-.09531v.665625q.26875.06563.389062.121875.120313.05625.192188.128125.07188.07188.107812.167188.03594.09375.03594.21875zm-1.325-.996875q0 .08906.03594.15.0375.05937.107813.1.07031.03906.25625.0875v-.645313q-.196875.0078-.298438.0875-.101562.07813-.101562.220313zm1.05625.992187q0-.103125-.04375-.170312-.04219-.06719-.120313-.110938-.07813-.04531-.292187-.1v.735938q.225-.01406.340625-.104688.115625-.09219.115625-.25z"/><path d="m-92.876562 30.688333q-.07656.164062-.203125.239062-.126563.07344-.315625.07344-.315625 0-.464063-.217188-.148437-.217187-.148437-.654687 0-.884375.6125-.884375.189062 0 .315625.06719.128125.06719.204687.220313h.0031l-.0031-.235938v-.654687h.28125v1.970312q0 .264063.0094.348438h-.26875q-.0062-.02344-.01094-.114063-.0047-.09062-.0047-.157812zm-.840625-.56875q0 .346875.09219.50625.09375.157812.303125.157812.228125 0 .3375-.164062.109375-.165625.109375-.525 0-.335938-.10625-.489063-.104687-.153125-.3375-.153125-.210937 0-.304687.160938-.09375.160937-.09375.50625z"/><path d="m-91.140625 30.738333h.59375v.221875h-1.534375v-.221875h.659375v-1.246875h-.498437v-.221875h.779687zm-.3125-1.796875v-.3h.3125v.3z"/><path d="m-88.753124 29.525833q-.175-.02969-.33125-.02969-.251563 0-.40625.189063-.154688.189062-.154688.48125v.79375h-.28125v-1.095313q0-.11875-.02187-.279687-.02031-.160938-.05938-.315625h.267188q.0625.215625.075.390625h.0078q.07813-.175.153125-.25625.075-.08281.178125-.123438.103125-.04219.251563-.04219.1625 0 .321875.02656z"/><path d="m-86.367187 29.622708v-.23125h1.554687v.23125zm0 .8v-.23125h1.554687v.23125z"/><path d="m-81.364062 30.688333q-.07656.164062-.203125.239062-.126563.07344-.315625.07344-.315625 0-.464063-.217188-.148437-.217187-.148437-.654687 0-.884375.6125-.884375.189062 0 .315625.06719.128125.06719.204687.220313h.0031l-.0031-.235938v-.654687h.28125v1.970312q0 .264063.0094.348438h-.26875q-.0062-.02344-.01094-.114063-.0047-.09062-.0047-.157812zm-.840625-.56875q0 .346875.09219.50625.09375.157812.303125.157812.228125 0 .3375-.164062.109375-.165625.109375-.525 0-.335938-.10625-.489063-.104687-.153125-.3375-.153125-.210937 0-.304687.160938-.09375.160937-.09375.50625z"/><path d="m-79.628124 30.738333h.59375v.221875h-1.534375v-.221875h.659375v-1.246875h-.498438v-.221875h.779688zm-.3125-1.796875v-.3h.3125v.3z"/><path d="m-77.240623 29.525833q-.175-.02969-.33125-.02969-.251563 0-.40625.189063-.154688.189062-.154688.48125v.79375h-.28125v-1.095313q0-.11875-.02187-.279687-.02031-.160938-.05938-.315625h.267188q.0625.215625.075.390625h.0078q.07813-.175.153125-.25625.075-.08281.178125-.123438.103125-.04219.251563-.04219.1625 0 .321875.02656z"/><path d="m-76.128125 30.132083q0 .429687.132813.776562.132812.346875.432812.715625h-.296875q-.3-.36875-.43125-.714062-.129687-.346875-.129687-.78125 0-.426563.128125-.76875.128125-.34375.432812-.71875h.296875q-.3.36875-.432812.717187-.132813.346875-.132813.773438z"/><path d="m-73.967186 29.639895h-.220313l-.06406-.998437h.35z"/><path d="m-72.210937 29.491458v1.46875h-.28125v-1.46875h-.409375v-.221875h.409375v-.03906q0-.320312.15-.454687.151562-.134375.503125-.134375.1125 0 .242187.01094.13125.0094.196875.02188v.226563q-.04687-.0078-.190625-.01719-.142187-.0094-.215625-.0094-.1625 0-.245312.03594-.08281.03594-.121875.117187-.0375.08125-.0375.226563v.01563h.767187v.221875z"/><path d="m-69.484374 30.113333q0 .426562-.196875.653125-.195313.225-.565625.225-.3625 0-.55625-.228125-.192188-.228125-.192188-.65 0-.435938.196875-.654688.198438-.220312.560938-.220312.38125 0 .567187.217187.185938.217188.185938.657813zm-.295313 0q0-.335938-.107812-.501563-.10625-.165625-.345313-.165625-.242187 0-.354687.16875-.1125.16875-.1125.498438 0 .328125.1125.5.1125.170312.3375.170312.248437 0 .359375-.167187.110937-.167188.110937-.503125z"/><path d="m-67.565623 30.113333q0 .426562-.196875.653125-.195313.225-.565625.225-.3625 0-.55625-.228125-.192188-.228125-.192188-.65 0-.435938.196875-.654688.198438-.220312.560938-.220312.38125 0 .567187.217187.185938.217188.185938.657813zm-.295313 0q0-.335938-.107812-.501563-.10625-.165625-.345313-.165625-.242187 0-.354687.16875-.1125.16875-.1125.498438 0 .328125.1125.5.1125.170312.3375.170312.248437 0 .359375-.167187.110937-.167188.110937-.503125z"/><path d="m-66.292185 29.639895h-.220313l-.06406-.998437h.35z"/><path d="m-65.037501 31.527395.264063-1.034375h.414062l-.485937 1.034375z"/><path d="m-62.454687 29.639895h-.220313l-.06406-.998437h.35z"/><path d="m-59.901562 30.107083q0 .44375-.159375.664062-.157812.220313-.453125.220313-.38125 0-.521875-.2875h-.0031q0 .075-.0063.15625-.0047.08125-.0078.1h-.271875q.0094-.08438.0094-.348438v-1.970312h.28125v.660937q0 .101563-.0063.245313h.0063q.142187-.3125.521875-.3125.610937 0 .610937.871875zm-.290625.0094q0-.35-.09688-.50625-.09531-.157813-.3-.157813-.232812 0-.339062.171875-.10625.170313-.10625.517188 0 .326562.103125.484375.103125.157812.339062.157812.210938 0 .304688-.1625.09531-.164062.09531-.504687z"/><path d="m-57.965623 30.78677q.04062 0 .09219-.01094v.175q-.10625.025-.217187.025-.15625 0-.228125-.08125-.07031-.08281-.07969-.257813h-.0094q-.101562.189063-.240625.271875-.1375.08281-.340625.08281-.246875 0-.371875-.134375-.125-.134375-.125-.36875 0-.545313.709375-.553125l.36875-.0062v-.09219q0-.204687-.08281-.29375-.08281-.09062-.264063-.09062-.184375 0-.265625.06563-.08125.06563-.09687.203125l-.29375-.02656q.07187-.45625.660938-.45625.3125 0 .46875.146875.157812.145312.157812.421875v.728125q0 .125.03281.189062.03281.0625.125.0625zm-.951563-.0094q.15 0 .265625-.07187.115625-.07187.179688-.192187.06406-.120313.06406-.248438v-.139062l-.296875.0063q-.184375.0031-.28125.04062-.09687.0375-.151562.115625-.05313.07656-.05313.204687 0 .128125.06875.20625.07031.07813.204687.07813z"/><path d="m-56.134373 29.525833q-.175-.02969-.33125-.02969-.251562 0-.40625.189063-.154687.189062-.154687.48125v.79375h-.28125v-1.095313q0-.11875-.02187-.279687-.02031-.160938-.05938-.315625h.267187q.0625.215625.075.390625h.0078q.07813-.175.153125-.25625.075-.08281.178125-.123438.103125-.04219.251562-.04219.1625 0 .321875.02656z"/><path d="m-54.779684 29.639895h-.220313l-.06406-.998437h.35z"/><path d="m-52.546875 30.128958q0 .4375-.129687.782812-.128125.34375-.428125.7125h-.3q.30625-.376562.4375-.723437.13125-.348438.13125-.76875 0-.41875-.13125-.765625-.13125-.348438-.4375-.725h.3q.304687.375.43125.715625.126562.340625.126562.771875z"/><path d="m-51.235937 29.73677v-.467187h.367188v.467187zm-.225 1.790625.264063-1.034375h.414062l-.485937 1.034375z"/><path d="m-46.72031 29.658645-.104688.495313h.40625v.16875h-.442187l-.1375.6375h-.171875l.134375-.6375h-.567188l-.13125.6375h-.171875l.13125-.6375h-.314062v-.16875h.351562l.104688-.495313h-.376563v-.16875h.410938l.139062-.6375h.171875l-.1375.6375h.567188l.1375-.6375h.171875l-.1375.6375h.329687v.16875zm-.735938 0-.107812.495313h.565625l.104687-.495313z"/><path d="m-43.429687 29.491458v1.46875h-.28125v-1.46875h-.409375v-.221875h.409375v-.03906q0-.320312.15-.454687.151562-.134375.503125-.134375.1125 0 .242187.01094.13125.0094.196875.02188v.226563q-.04687-.0078-.190625-.01719-.142187-.0094-.215625-.0094-.1625 0-.245312.03594-.08281.03594-.121875.117187-.0375.08125-.0375.226563v.01563h.767187v.221875z"/><path d="m-40.703124 30.113333q0 .426562-.196875.653125-.195313.225-.565625.225-.3625 0-.55625-.228125-.192188-.228125-.192188-.65 0-.435938.196875-.654688.198438-.220312.560938-.220312.38125 0 .567187.217187.185938.217188.185938.657813zm-.295313 0q0-.335938-.107812-.501563-.10625-.165625-.345313-.165625-.242187 0-.354687.16875-.1125.16875-.1125.498438 0 .328125.1125.5.1125.170312.3375.170312.248437 0 .359375-.167187.110937-.167188.110937-.503125z"/><path d="m-38.784373 30.113333q0 .426562-.196875.653125-.195313.225-.565625.225-.3625 0-.55625-.228125-.192188-.228125-.192188-.65 0-.435938.196875-.654688.198438-.220312.560938-.220312.38125 0 .567187.217187.185938.217188.185938.657813zm-.295313 0q0-.335938-.107812-.501563-.10625-.165625-.345313-.165625-.242187 0-.354687.16875-.1125.16875-.1125.498438 0 .328125.1125.5.1125.170312.3375.170312.248437 0 .359375-.167187.110937-.167188.110937-.503125z"/><path d="m-100.44531 38.111978-.10469.495313h.40625v.16875h-.44219l-.1375.6375h-.17187l.13437-.6375h-.56718l-.13125.6375h-.17188l.13125-.6375h-.31406v-.16875h.35156l.10469-.495313h-.37656v-.16875h.41093l.13907-.6375h.17187l-.1375.6375h.56719l.1375-.6375h.17187l-.1375.6375h.32969v.16875zm-.73594 0-.10781.495313h.56562l.10469-.495313z"/><path d="m-97.745312 37.305728h1.285937v.24375h-.49375v1.620313h.49375v.24375h-1.285937v-.24375h.49375v-1.620313h-.49375z"/><path d="m-95.845312 37.944791v-.221875h.265625l.09063-.440625h.1875v.440625h.675v.221875h-.675v1.01875q0 .123437.06562.182812.06719.05938.21875.05938.209375 0 .464062-.05313v.214063q-.264062.07187-.523437.07187-.253125 0-.379688-.10625-.126562-.107813-.126562-.339063v-1.048437z"/><path d="m-93.720312 38.627603q0 .284375.125.445313.126562.160937.345312.160937.160938 0 .28125-.06875.121875-.07031.1625-.190625l.246875.07031q-.06875.19375-.253125.296875-.182812.103125-.4375.103125-.36875 0-.567187-.229688-.198438-.229687-.198438-.657812 0-.417188.19375-.640625.195313-.225.5625-.225.367188 0 .55625.223437.189063.223438.189063.675v.0375zm.464062-.728125q-.209375 0-.33125.1375-.121875.135938-.129687.375h.9125q-.04375-.5125-.451563-.5125z"/><path d="m-90.671875 37.979166q-.175-.02969-.33125-.02969-.251562 0-.40625.189063-.154687.189062-.154687.48125v.79375h-.28125v-1.095313q0-.11875-.02187-.279687-.02031-.160938-.05938-.315625h.267187q.0625.215625.075.390625h.0078q.07813-.175.153125-.25625.075-.08281.178125-.123438.103125-.04219.251562-.04219.1625 0 .321875.02656z"/><path d="m-88.665624 39.240103q.04062 0 .09219-.01094v.175q-.10625.025-.217187.025-.15625 0-.228125-.08125-.07031-.08281-.07969-.257813h-.0094q-.101562.189063-.240625.271875-.1375.08281-.340625.08281-.246875 0-.371875-.134375-.125-.134375-.125-.36875 0-.545313.709375-.553125l.36875-.0062v-.09219q0-.204687-.08281-.29375-.08281-.09062-.264063-.09062-.184375 0-.265625.06562-.08125.06562-.09687.203125l-.29375-.02656q.07188-.45625.660938-.45625.3125 0 .46875.146875.157812.145312.157812.421875v.728125q0 .125.03281.189062.03281.0625.125.0625zm-.951563-.0094q.15 0 .265625-.07187.115625-.07187.179688-.192187.06406-.120313.06406-.248438v-.139062l-.296875.0063q-.184375.0031-.28125.04062-.09688.0375-.151562.115625-.05313.07656-.05313.204687 0 .128125.06875.20625.07031.07813.204687.07813z"/><path d="m-88.170312 37.944791v-.221875h.265625l.09062-.440625h.1875v.440625h.675v.221875h-.675v1.01875q0 .123437.06563.182812.06719.05938.21875.05938.209375 0 .464063-.05313v.214063q-.264063.07187-.523438.07187-.253125 0-.379687-.10625-.126563-.107813-.126563-.339063v-1.048437z"/><path d="m-86.045312 38.627603q0 .284375.125.445313.126562.160937.345312.160937.160938 0 .28125-.06875.121875-.07031.1625-.190625l.246875.07031q-.06875.19375-.253125.296875-.182812.103125-.4375.103125-.36875 0-.567187-.229688-.198438-.229687-.198438-.657812 0-.417188.19375-.640625.195313-.225.5625-.225.367188 0 .55625.223437.189063.223438.189063.675v.0375zm.464062-.728125q-.209375 0-.33125.1375-.121875.135938-.129687.375h.9125q-.04375-.5125-.451563-.5125z"/><path d="m-80.996875 38.566666q0 .426562-.196875.653125-.195312.225-.565625.225-.3625 0-.55625-.228125-.192187-.228125-.192187-.65 0-.435938.196875-.654688.198437-.220312.560937-.220312.38125 0 .567188.217187.185937.217188.185937.657813zm-.295312 0q0-.335938-.107813-.501563-.10625-.165625-.345312-.165625-.242188 0-.354688.16875-.1125.16875-.1125.498438 0 .328125.1125.5.1125.170312.3375.170312.248438 0 .359375-.167187.110938-.167188.110938-.503125z"/><path d="m-79.674999 39.413541h-.332813l-.676562-1.690625h.315625l.41875 1.1.02656.08281.08125.2875.05469-.182812.06094-.184375.43125-1.103125h.314063z"/><path d="m-78.370311 38.627603q0 .284375.125.445313.126563.160937.345313.160937.160937 0 .28125-.06875.121875-.07031.1625-.190625l.246875.07031q-.06875.19375-.253125.296875-.182813.103125-.4375.103125-.36875 0-.567188-.229688-.198437-.229687-.198437-.657812 0-.417188.19375-.640625.195312-.225.5625-.225.367187 0 .55625.223437.189062.223438.189062.675v.0375zm.464063-.728125q-.209375 0-.33125.1375-.121875.135938-.129688.375h.9125q-.04375-.5125-.451562-.5125z"/><path d="m-75.321875 37.979166q-.175-.02969-.33125-.02969-.251562 0-.40625.189063-.154687.189062-.154687.48125v.79375h-.28125v-1.095313q0-.11875-.02188-.279687-.02031-.160938-.05937-.315625h.267187q.0625.215625.075.390625h.0078q.07813-.175.153125-.25625.075-.08281.178125-.123438.103125-.04219.251562-.04219.1625 0 .321875.02656z"/><path d="m-72.820312 37.944791v-.221875h.265625l.09063-.440625h.1875v.440625h.675v.221875h-.675v1.01875q0 .123437.06562.182812.06719.05938.21875.05938.209375 0 .464062-.05313v.214063q-.264062.07187-.523437.07187-.253125 0-.379688-.10625-.126562-.107813-.126562-.339063v-1.048437z"/><path d="m-70.909374 37.094791h.282812v.609375q0 .09219-.01406.307812h.0047q.164063-.320312.529688-.320312.546875 0 .546875.595312v1.126563h-.282813v-1.085938q0-.2125-.08281-.315625-.08125-.103125-.260938-.103125-.19375 0-.31875.142188-.123437.140625-.123437.382812v.979688h-.28125z"/><path d="m-68.776561 38.627603q0 .284375.125.445313.126563.160937.345313.160937.160937 0 .28125-.06875.121875-.07031.1625-.190625l.246875.07031q-.06875.19375-.253125.296875-.182813.103125-.4375.103125-.36875 0-.567188-.229688-.198437-.229687-.198437-.657812 0-.417188.19375-.640625.195312-.225.5625-.225.367187 0 .55625.223437.189062.223438.189062.675v.0375zm.464063-.728125q-.209375 0-.33125.1375-.121875.135938-.129688.375h.9125q-.04375-.5125-.451562-.5125z"/><path d="m-65.239063 38.566666q0-.421875.201562-.648438.201563-.226562.582813-.226562.284375 0 .46875.1375.184375.135937.228125.367187l-.3.02188q-.025-.142187-.125-.223437-.1-.08281-.284375-.08281-.246875 0-.3625.153125-.114063.153125-.114063.495313 0 .346875.114063.507812.115625.159375.360937.159375.16875 0 .279688-.08281.110937-.08281.1375-.253125l.296875.01875q-.02031.15-.114063.273437-.09219.121875-.245312.192188-.153125.06875-.342188.06875-.382812 0-.582812-.225-.2-.225-.2-.653125z"/><path d="m-61.809375 38.566666q0 .426562-.196875.653125-.195312.225-.565625.225-.3625 0-.55625-.228125-.192187-.228125-.192187-.65 0-.435938.196875-.654688.198437-.220312.560937-.220312.38125 0 .567188.217187.185937.217188.185937.657813zm-.295312 0q0-.335938-.107813-.501563-.10625-.165625-.345312-.165625-.242188 0-.354688.16875-.1125.16875-.1125.498438 0 .328125.1125.5.1125.170312.3375.170312.248438 0 .359375-.167187.110938-.167188.110938-.503125z"/><path d="m-60.248437 39.413541v-1.085938q0-.2125-.08281-.315625-.08125-.103125-.260938-.103125-.19375 0-.31875.142188-.123437.140625-.123437.382812v.979688h-.28125v-1.329688q0-.295312-.0094-.360937h.265625q.0016.0078.0031.04219.0016.03437.0031.07969.0031.04375.0062.167187h.0047q.164063-.320312.540625-.320312.270313 0 .403125.146875.132813.145312.132813.448437v1.126563z"/><path d="m-59.389061 37.944791v-.221875h.265625l.09062-.440625h.1875v.440625h.675v.221875h-.675v1.01875q0 .123437.06563.182812.06719.05938.21875.05938.209375 0 .464063-.05313v.214063q-.264063.07187-.523438.07187-.253125 0-.379687-.10625-.126563-.107813-.126563-.339063v-1.048437z"/><path d="m-57.26406 38.627603q0 .284375.125.445313.126562.160937.345312.160937.160938 0 .28125-.06875.121875-.07031.1625-.190625l.246875.07031q-.06875.19375-.253125.296875-.182812.103125-.4375.103125-.36875 0-.567187-.229688-.198438-.229687-.198438-.657812 0-.417188.19375-.640625.195313-.225.5625-.225.367188 0 .55625.223437.189063.223438.189063.675v.0375zm.464062-.728125q-.209375 0-.33125.1375-.121875.135938-.129687.375h.9125q-.04375-.5125-.451563-.5125z"/><path d="m-54.492184 39.413541v-1.085938q0-.2125-.08281-.315625-.08125-.103125-.260937-.103125-.19375 0-.31875.142188-.123438.140625-.123438.382812v.979688h-.28125v-1.329688q0-.295312-.0094-.360937h.265625q.0016.0078.0031.04219.0016.03437.0031.07969.0031.04375.0063.167187h.0047q.164062-.320312.540625-.320312.270312 0 .403125.146875.132812.145312.132812.448437v1.126563z"/><path d="m-53.632812 37.944791v-.221875h.265625l.09063-.440625h.1875v.440625h.675v.221875h-.675v1.01875q0 .123437.06562.182812.06719.05938.21875.05938.209375 0 .464062-.05313v.214063q-.264062.07187-.523437.07187-.253125 0-.379688-.10625-.126562-.107813-.126562-.339063v-1.048437z"/><path d="m-48.378123 38.566666q0 .426562-.196875.653125-.195313.225-.565625.225-.3625 0-.55625-.228125-.192188-.228125-.192188-.65 0-.435938.196875-.654688.198438-.220312.560938-.220312.38125 0 .567187.217187.185938.217188.185938.657813zm-.295313 0q0-.335938-.107812-.501563-.10625-.165625-.345313-.165625-.242187 0-.354687.16875-.1125.16875-.1125.498438 0 .328125.1125.5.1125.170312.3375.170312.248437 0 .359375-.167187.110937-.167188.110937-.503125z"/><path d="m-47.267185 37.944791v1.46875h-.28125v-1.46875h-.409375v-.221875h.409375v-.03906q0-.320312.15-.454687.151562-.134375.503125-.134375.1125 0 .242187.01094.13125.0094.196875.02188v.226563q-.04687-.0078-.190625-.01719-.142187-.0094-.215625-.0094-.1625 0-.245312.03594-.08281.03594-.121875.117187-.0375.08125-.0375.226563v.01563h.767187v.221875z"/><path d="m-43.429687 37.944791v1.46875h-.28125v-1.46875h-.409375v-.221875h.409375v-.03906q0-.320312.15-.454687.151562-.134375.503125-.134375.1125 0 .242187.01094.13125.0094.196875.02188v.226563q-.04687-.0078-.190625-.01719-.142187-.0094-.215625-.0094-.1625 0-.245312.03594-.08281.03594-.121875.117187-.0375.08125-.0375.226563v.01563h.767187v.221875z"/><path d="m-40.703124 38.566666q0 .426562-.196875.653125-.195313.225-.565625.225-.3625 0-.55625-.228125-.192188-.228125-.192188-.65 0-.435938.196875-.654688.198438-.220312.560938-.220312.38125 0 .567187.217187.185938.217188.185938.657813zm-.295313 0q0-.335938-.107812-.501563-.10625-.165625-.345313-.165625-.242187 0-.354687.16875-.1125.16875-.1125.498438 0 .328125.1125.5.1125.170312.3375.170312.248437 0 .359375-.167187.110937-.167188.110937-.503125z"/><path d="m-38.784373 38.566666q0 .426562-.196875.653125-.195313.225-.565625.225-.3625 0-.55625-.228125-.192188-.228125-.192188-.65 0-.435938.196875-.654688.198438-.220312.560938-.220312.38125 0 .567187.217187.185938.217188.185938.657813zm-.295313 0q0-.335938-.107812-.501563-.10625-.165625-.345313-.165625-.242187 0-.354687.16875-.1125.16875-.1125.498438 0 .328125.1125.5.1125.170312.3375.170312.248437 0 .359375-.167187.110937-.167188.110937-.503125z"/><path d="m-100.30781 44.53354h-.31875l-.22344-.735938-.0891-.315625-.0609.217188-.2625.834375h-.31719l-.28593-1.690625h.27812l.14531.948437q.0516.4125.0516.509375.0609-.25.0906-.334375l.21094-.6625h.30156l.20313.664063q.05.164062.0859.332812 0-.04687.006-.117187.006-.07031.0156-.14375.009-.075.0188-.142188.009-.06719.0141-.10625l.15781-.948437h.275z"/><path d="m-99.690625 42.21479h.282813v.609375q0 .09219-.01406.307812h.0047q.164062-.320312.529687-.320312.546875 0 .546875.595312v1.126563h-.282812v-1.085938q0-.2125-.08281-.315625-.08125-.103125-.260937-.103125-.19375 0-.31875.142188-.123438.140625-.123438.382812v.979688h-.28125z"/><path d="m-96.896875 44.311665h.59375v.221875h-1.534375v-.221875h.659375v-1.246875h-.498437v-.221875h.779687zm-.3125-1.796875v-.3h.3125v.3z"/><path d="m-94.992187 44.311665h.59375v.221875h-1.534375v-.221875h.659375v-1.875h-.451563v-.221875h.732813z"/><path d="m-93.720312 43.747602q0 .284375.125.445313.126562.160937.345312.160937.160938 0 .28125-.06875.121875-.07031.1625-.190625l.246875.07031q-.06875.19375-.253125.296875-.182812.103125-.4375.103125-.36875 0-.567187-.229688-.198438-.229687-.198438-.657812 0-.417188.19375-.640625.195313-.225.5625-.225.367188 0 .55625.223437.189063.223438.189063.675v.0375zm.464062-.728125q-.209375 0-.33125.1375-.121875.135938-.129687.375h.9125q-.04375-.5125-.451563-.5125z"/><path d="m-89.559374 43.705415q0 .429687.132812.776562.132813.346875.432813.715625h-.296875q-.3-.36875-.43125-.714062-.129688-.346875-.129688-.78125 0-.426563.128125-.76875.128125-.34375.432813-.71875h.296875q-.3.36875-.432813.717187-.132812.346875-.132812.773438z"/><path d="m-87.637499 44.53354v-1.071875q0-.240625-.03906-.335938-.0375-.09687-.139062-.09687-.1 0-.1625.15-.06094.15-.06094.40625v.948438h-.264062v-1.329688q0-.295312-.0094-.360937h.232812l.0094.198437v.075h.0031q.05313-.159375.134375-.23125.08125-.07344.203125-.07344.1375 0 .204688.075.06875.075.09844.23125h.0031q.0625-.165625.148438-.235938.0875-.07031.220312-.07031.184375 0 .264063.134375.07969.134375.07969.460937v1.126563h-.2625v-1.071875q0-.240625-.03906-.335938-.0375-.09687-.139063-.09687-.103125 0-.164062.13125-.05938.13125-.05938.39375v.979688z"/><path d="m-86.092187 45.197602q-.115625 0-.19375-.01719v-.210938q.05938.0094.13125.0094.123437 0 .23125-.09219.109375-.09219.184375-.29375l.02813-.07656-.734375-1.673437h.3l.4125 1.003125q.142187.35.153125.396875l.06406-.171875.484375-1.228125h.296875l-.7125 1.690625q-.139062.367187-.289062.515625-.148438.148437-.35625.148437z"/><path d="m-80.914062 43.93979q0 .253125-.1875.401562-.1875.146875-.5375.160938v.251562h-.2v-.251562q-.659375-.02188-.76875-.560938l.265625-.05781q.04062.196875.165625.295312.125.09688.3375.107813v-.764063l-.04687-.0125q-.2625-.06406-.385938-.139062-.121875-.07656-.179687-.182813-.05625-.10625-.05625-.253125 0-.232812.170312-.3625.171875-.13125.498438-.142187v-.203127h.2v.203125q.290625.01094.448437.125.157813.1125.228125.376562l-.271875.05156q-.03437-.165625-.134375-.25-.1-.08437-.270312-.09531v.665625q.26875.06563.389062.121875.120313.05625.192188.128125.07187.07187.107812.167188.03594.09375.03594.21875zm-1.325-.996875q0 .08906.03594.15.0375.05938.107813.1.07031.03906.25625.0875v-.645313q-.196875.0078-.298438.0875-.101562.07813-.101562.220313zm1.05625.992187q0-.103125-.04375-.170312-.04219-.06719-.120313-.110938-.07813-.04531-.292187-.1v.735938q.225-.01406.340625-.104688.115625-.09219.115625-.25z"/><path d="m-79.885937 43.06479v1.46875h-.28125v-1.46875h-.409375v-.221875h.409375v-.03906q0-.320312.15-.454687.151563-.134375.503125-.134375.1125 0 .242188.01094.13125.0094.196875.02188v.226563q-.04687-.0078-.190625-.01719-.142188-.0094-.215625-.0094-.1625 0-.245313.03594-.08281.03594-.121875.117187-.0375.08125-.0375.226563v.01563h.767188v.221875z"/><path d="m-77.709373 44.311665h.59375v.221875h-1.534375v-.221875h.659375v-1.246875h-.498438v-.221875h.779688zm-.3125-1.796875v-.3h.3125v.3z"/><path d="m-75.804687 44.311665h.59375v.221875h-1.534375v-.221875h.659375v-1.875h-.451563v-.221875h.732813z"/><path d="m-74.532811 43.747602q0 .284375.125.445313.126562.160937.345312.160937.160938 0 .28125-.06875.121875-.07031.1625-.190625l.246875.07031q-.06875.19375-.253125.296875-.182812.103125-.4375.103125-.36875 0-.567187-.229688-.198438-.229687-.198438-.657812 0-.417188.19375-.640625.195313-.225.5625-.225.367188 0 .55625.223437.189063.223438.189063.675v.0375zm.464062-.728125q-.209375 0-.33125.1375-.121875.135938-.129687.375h.9125q-.04375-.5125-.451563-.5125z"/><path d="m-71.017187 43.19604v-.23125h1.554688v.23125zm0 .8v-.23125h1.554688v.23125z"/><path d="m-65.56406 43.93979q0 .253125-.1875.401562-.1875.146875-.5375.160938v.251562h-.2v-.251562q-.659375-.02188-.76875-.560938l.265625-.05781q.04063.196875.165625.295312.125.09688.3375.107813v-.764063l-.04687-.0125q-.2625-.06406-.385938-.139062-.121875-.07656-.179687-.182813-.05625-.10625-.05625-.253125 0-.232812.170312-.3625.171875-.13125.498438-.142187v-.203127h.2v.203125q.290625.01094.448437.125.157813.1125.228125.376562l-.271875.05156q-.03437-.165625-.134375-.25-.1-.08437-.270312-.09531v.665625q.26875.06563.389062.121875.120313.05625.192188.128125.07187.07187.107812.167188.03594.09375.03594.21875zm-1.325-.996875q0 .08906.03594.15.0375.05938.107813.1.07031.03906.25625.0875v-.645313q-.196875.0078-.298438.0875-.101562.07813-.101562.220313zm1.05625.992187q0-.103125-.04375-.170312-.04219-.06719-.120313-.110938-.07813-.04531-.292187-.1v.735938q.225-.01406.340625-.104688.115625-.09219.115625-.25z"/><path d="m-64.095313 44.261665q-.07656.164062-.203125.239062-.126563.07344-.315625.07344-.315625 0-.464063-.217188-.148437-.217187-.148437-.654687 0-.884375.6125-.884375.189062 0 .315625.06719.128125.06719.204687.220313h.0031l-.0031-.235938v-.654692h.28125v1.970312q0 .264063.0094.348438h-.26875q-.0062-.02344-.01094-.114063-.0047-.09063-.0047-.157812zm-.840625-.56875q0 .346875.09219.50625.09375.157812.303125.157812.228125 0 .3375-.164062.109375-.165625.109375-.525 0-.335938-.10625-.489063-.104687-.153125-.3375-.153125-.210937 0-.304687.160938-.09375.160937-.09375.50625z"/><path d="m-62.359375 44.311665h.59375v.221875h-1.534375v-.221875h.659375v-1.246875h-.498437v-.221875h.779687zm-.3125-1.796875v-.3h.3125v.3z"/><path d="m-59.971874 43.099165q-.175-.02969-.33125-.02969-.251563 0-.40625.189063-.154688.189062-.154688.48125v.79375h-.28125v-1.095313q0-.11875-.02188-.279687-.02031-.160938-.05938-.315625h.267188q.0625.215625.075.390625h.0078q.07813-.175.153125-.25625.075-.08281.178125-.123438.103125-.04219.251563-.04219.1625 0 .321875.02656z"/><path d="m-59.164061 43.80854v-.25h.875v.25z"/><path d="m-57.585935 44.292915v-.239063l1.340625-.573437-1.340625-.571875v-.240625l1.554687.653125v.320312z"/><path d="m-54.492184 44.53354v-1.085938q0-.2125-.08281-.315625-.08125-.103125-.260937-.103125-.19375 0-.31875.142188-.123438.140625-.123438.382812v.979688h-.28125v-1.329688q0-.295312-.0094-.360937h.265625q.0016.0078.0031.04219.0016.03437.0031.07969.0031.04375.0063.167187h.0047q.164062-.320312.540625-.320312.270312 0 .403125.146875.132812.145312.132812.448437v1.126563z"/><path d="m-53.426562 43.747602q0 .284375.125.445313.126562.160937.345312.160937.160938 0 .28125-.06875.121875-.07031.1625-.190625l.246875.07031q-.06875.19375-.253125.296875-.182812.103125-.4375.103125-.36875 0-.567187-.229688-.198438-.229687-.198438-.657812 0-.417188.19375-.640625.195313-.225.5625-.225.367188 0 .55625.223437.189063.223438.189063.675v.0375zm.464062-.728125q-.209375 0-.33125.1375-.121875.135938-.129687.375h.9125q-.04375-.5125-.451563-.5125z"/><path d="m-50.554687 44.53354-.501562-.69375-.504688.69375h-.303125l.648438-.86875-.620313-.821875h.310938l.46875.657812.465625-.657812h.314062l-.620312.81875.65625.871875z"/><path d="m-49.795311 43.06479v-.221875h.265625l.09062-.440625h.1875v.440625h.675v.221875h-.675v1.01875q0 .123437.06563.182812.06719.05938.21875.05938.209375 0 .464063-.05313v.214063q-.264063.07187-.523438.07187-.253125 0-.379687-.10625-.126563-.107813-.126563-.339063v-1.048432z"/><path d="m-46.790623 43.70229q0 .4375-.129687.782812-.128125.34375-.428125.7125h-.3q.30625-.376562.4375-.723437.13125-.348438.13125-.76875 0-.41875-.13125-.765625-.13125-.348438-.4375-.725h.3q.304687.375.43125.715625.126562.340625.126562.771875z"/><path d="m-43.092187 45.197602q-.203125 0-.33125-.132812-.128125-.13125-.128125-.340625v-.548438q0-.167187-.114063-.260937-.114062-.09375-.315625-.101563v-.214062q.203125-.0078.315625-.103125.114063-.09531.114063-.257813v-.55q0-.214062.126562-.34375.126563-.129687.332813-.129687h.414062v.217187h-.332812q-.142188 0-.204688.06875-.0625.06875-.0625.235938v.540625q0 .153125-.1.270312-.1.115625-.260937.154688v.0031q.159375.0375.259375.153125.101562.114062.101562.275v.542187q0 .165625.0625.234375.0625.07031.204688.07031h.332812v.217187z"/><path d="m-92.867187 49.653538v-1.085937q0-.2125-.08281-.315625-.08125-.103125-.260937-.103125-.19375 0-.31875.142187-.123438.140625-.123438.382813v.979687h-.28125v-1.329687q0-.295313-.0094-.360938h.265625q.0016.0078.0031.04219.0016.03437.0031.07969.0031.04375.0062.167188h.0047q.164062-.320313.540625-.320313.270312 0 .403125.146875.132812.145313.132812.448438v1.126562z"/><path d="m-91.801562 48.867601q0 .284375.125.445312.126562.160938.345312.160938.160938 0 .28125-.06875.121875-.07031.1625-.190625l.246875.07031q-.06875.19375-.253125.296875-.182812.103125-.4375.103125-.36875 0-.567187-.229687-.198438-.229688-.198438-.657813 0-.417187.19375-.640625.195313-.225.5625-.225.367188 0 .55625.223438.189063.223437.189063.675v.0375zm.464062-.728125q-.209375 0-.33125.1375-.121875.135937-.129687.375h.9125q-.04375-.5125-.451563-.5125z"/><path d="m-88.929687 49.653538-.501562-.69375-.504688.69375h-.303125l.648438-.86875-.620313-.821875h.310938l.46875.657813.465625-.657813h.314062l-.620312.81875.65625.871875z"/><path d="m-88.170312 48.184788v-.221875h.265625l.09062-.440625h.1875v.440625h.675v.221875h-.675v1.01875q0 .123438.06563.182813.06719.05938.21875.05938.209375 0 .464063-.05313v.214062q-.264063.07188-.523438.07188-.253125 0-.379687-.10625-.126563-.107812-.126563-.339062v-1.048438z"/><path d="m-83.465624 49.431663h.59375v.221875h-1.534375v-.221875h.659375v-1.246875h-.498437v-.221875h.779687zm-.3125-1.796875v-.3h.3125v.3z"/><path d="m-81.804687 48.184788v1.46875h-.28125v-1.46875h-.409375v-.221875h.409375v-.03906q0-.320313.15-.454688.151562-.134375.503125-.134375.1125 0 .242187.01094.13125.0094.196875.02188v.226562q-.04687-.0078-.190625-.01719-.142187-.0094-.215625-.0094-.1625 0-.245312.03594-.08281.03594-.121875.117188-.0375.08125-.0375.226562v.01563h.767187v.221875z"/><path d="m-77.076561 49.059788q0 .253125-.1875.401563-.1875.146875-.5375.160937v.251563h-.2v-.251563q-.659375-.02187-.76875-.560937l.265625-.05781q.04063.196875.165625.295313.125.09688.3375.107812v-.764062l-.04687-.0125q-.2625-.06406-.385937-.139063-.121875-.07656-.179688-.182812-.05625-.10625-.05625-.253125 0-.232813.170313-.3625.171875-.13125.498437-.142188v-.203125h.2v.203125q.290625.01094.448438.125.157812.1125.228125.376563l-.271875.05156q-.03437-.165625-.134375-.25-.1-.08438-.270313-.09531v.665625q.26875.06563.389063.121875.120312.05625.192187.128125.07187.07187.107813.167187.03594.09375.03594.21875zm-1.325-.996875q0 .08906.03594.15.0375.05938.107812.1.07031.03906.25625.0875v-.645312q-.196875.0078-.298437.0875-.101563.07813-.101563.220312zm1.05625.992188q0-.103125-.04375-.170313-.04219-.06719-.120312-.110937-.07813-.04531-.292188-.1v.735937q.225-.01406.340625-.104687.115625-.09219.115625-.25z"/><path d="m-76.048437 48.184788v1.46875h-.28125v-1.46875h-.409375v-.221875h.409375v-.03906q0-.320313.15-.454688.151562-.134375.503125-.134375.1125 0 .242187.01094.13125.0094.196875.02188v.226562q-.04687-.0078-.190625-.01719-.142187-.0094-.215625-.0094-.1625 0-.245312.03594-.08281.03594-.121875.117188-.0375.08125-.0375.226562v.01563h.767187v.221875z"/><path d="m-73.871874 49.431663h.59375v.221875h-1.534375v-.221875h.659375v-1.246875h-.498437v-.221875h.779687zm-.3125-1.796875v-.3h.3125v.3z"/><path d="m-71.967187 49.431663h.59375v.221875h-1.534375v-.221875h.659375v-1.875h-.451563v-.221875h.732813z"/><path d="m-70.695312 48.867601q0 .284375.125.445312.126563.160938.345313.160938.160937 0 .28125-.06875.121875-.07031.1625-.190625l.246875.07031q-.06875.19375-.253125.296875-.182813.103125-.4375.103125-.36875 0-.567188-.229687-.198437-.229688-.198437-.657813 0-.417187.19375-.640625.195312-.225.5625-.225.367187 0 .55625.223438.189062.223437.189062.675v.0375zm.464063-.728125q-.209375 0-.33125.1375-.121875.135937-.129688.375h.9125q-.04375-.5125-.451562-.5125z"/><path d="m-68.757811 48.928538v-.25h.875v.25z"/><path d="m-67.179685 49.412913v-.239062l1.340625-.573438-1.340625-.571875v-.240625l1.554687.653125v.320313z"/><path d="m-64.278126 49.431663h.59375v.221875h-1.534375v-.221875h.659375v-1.246875h-.498437v-.221875h.779687zm-.3125-1.796875v-.3h.3125v.3z"/><path d="m-61.867187 49.170726q0 .240625-.182813.378125-.18125.135937-.503125.135937-.321875 0-.490625-.1-.167187-.101562-.21875-.31875l.248438-.04844q.02969.134375.126562.196875.09844.06094.334375.06094.421875 0 .421875-.267187 0-.1-.07656-.160938-.07656-.0625-.234375-.101562-.4125-.101563-.523438-.159375-.110937-.05781-.170312-.14375-.05938-.0875-.05938-.217188 0-.229687.165625-.359375.165625-.129687.479687-.129687.275 0 .439063.104687.164062.103125.204687.301563l-.253125.03125q-.01719-.1125-.110937-.170313-.09375-.05781-.279688-.05781-.382812 0-.382812.235937 0 .09375.06406.15.06562.05625.209375.09062l.185938.04844q.254687.0625.365625.123437.1125.06094.176562.153125.06406.09063.06406.223438z"/><path d="m-61.612499 49.997288v-.15h1.934375v.15z"/><path d="m-58.339061 49.381663q-.07656.164063-.203125.239063-.126562.07344-.315625.07344-.315625 0-.464062-.217187-.148438-.217188-.148438-.654688 0-.884375.6125-.884375.189063 0 .315625.06719.128125.06719.204688.220312h.0031l-.0031-.235937v-.654688h.28125v1.970313q0 .264062.0094.348437h-.26875q-.0062-.02344-.01094-.114062-.0047-.09063-.0047-.157813zm-.840625-.56875q0 .346875.09219.50625.09375.157813.303125.157813.228125 0 .3375-.164063.109375-.165625.109375-.525 0-.335937-.10625-.489062-.104688-.153125-.3375-.153125-.210938 0-.304688.160937-.09375.160938-.09375.50625z"/><path d="m-56.603123 49.431663h.59375v.221875h-1.534375v-.221875h.659375v-1.246875h-.498437v-.221875h.779687zm-.3125-1.796875v-.3h.3125v.3z"/><path d="m-54.215622 48.219163q-.175-.02969-.33125-.02969-.251562 0-.40625.189062-.154687.189063-.154687.48125v.79375h-.28125v-1.095312q0-.11875-.02187-.279688-.02031-.160937-.05938-.315625h.267187q.0625.215625.075.390625h.0078q.07813-.175.153125-.25625.075-.08281.178125-.123437.103125-.04219.251562-.04219.1625 0 .321875.02656z"/><path d="m-53.103125 48.825413q0 .429688.132813.776563.132812.346875.432812.715625h-.296875q-.3-.36875-.43125-.714063-.129687-.346875-.129687-.78125 0-.426562.128125-.76875.128125-.34375.432812-.71875h.296875q-.3.36875-.432812.717188-.132813.346875-.132813.773437z"/><path d="m-50.628124 48.822288q0 .4375-.129688.782813-.128125.34375-.428125.7125h-.3q.30625-.376563.4375-.723438.13125-.348437.13125-.76875 0-.41875-.13125-.765625-.13125-.348437-.4375-.725h.3q.304688.375.43125.715625.126563.340625.126563.771875z"/><path d="m-49.317186 48.430101v-.467188h.367188v.467188zm-.225 1.790625.264063-1.034375h.414062l-.485937 1.034375z"/></g><path d="m24.305753 25.38501c-.145258-.05816-.303989-.05727-.457048-.0771-.45325-.03662-.902488.0587-1.338711.172688-.230646.0842-.46508.15874-.690763.256677-.263292.111418-.534402.202255-.804551.295228-.268498.09225-.539599.180265-.819928.228995-.236095.03878-.468159.101249-.707324.121588-.163946.02298-.329777.0094-.494898.01302-.261874.0072-.521854-.03079-.781603-.06131-.11095-.01912-.22355-.03285-.33261-.06337-.0996-.02037-.20084-.03285-.30115-.05206-.20651-.03599-.41989-.01894-.61908.04587-.64937.201789-1.20813.634466-1.63726 1.154435-.14974.18854-.30162.382762-.38323.612223-.0476.101958-.0932.20581-.11118.317947-.0412.126561-.0009.270392.0849.369271.12041.14691.30375.238222.39318.410435.0802.171279.003.355798-.022.530614-.0451.230646-.10503.466974-.0703.702593.012.163704.0875.322435.20487.436223.0748.04255.15329.11071.24508.08823.0457-.01301.0875-.03671.12325-.06696.26045-.246264.56089-.454201.89444-.588572.19186-.0561.38679-.11307.58763-.12017.14122.0045.28387-.01086.42392.01185.16039-.000898.3151.04901.47431.05583.285534.264719.512868.587629.744933.899652.09699.125619.178846.263534.298307.369756.10527.132943.237746.243895.387968.322434.272762.177653.597799.233959.905325.321959.05089.467926.162052.927801.280804 1.382954.07621.269207.168909.53345.267789.795091.06131.142646.115206.28837.164179.435513.09226.185228.173398.376838.286001.550721.140285.234901.247683.488265.39908.716542.09368.144073.166783.301152.272286.437174.286244.401917.588572.792255.90178 1.173356.071.07405.120179.165589.190909.239398.192328.187598.364541.39435.554975.583608.129407.152816.26945.299483.43362.415165.173407.10054.367153.171513.566805.192562.08608.01984.138634.09462.195883.154952.303037.295462.657166.536996 1.038034.721281.21054.101958.417535.211016.630678.307535.09297.04183.18074.09911.281747.119461.453029.171979.904861.346804 1.357411.519969.435272.174815.871738.349398 1.286428.569641.424402.207704.823481.475493 1.148752.82017.316054.365016.482118.832467.593302 1.295653.07621.324329.122774.654806.164889.985049.01723.354847.06059.708276.06436 1.063589.01589.165122.03456.330244.02935.496551.000242.773324 0 1.546415 0 2.319505-.0045.250286.0036.499854.01589.749673-.162752-.0063-.321492.04165-.476202.08707-.22237.07288-.391513.239882-.558287.39601-.0859.08375-.159915.180498-.211015.289789-.04802.104561-.110952.205334-.124201.322201-.01652.116392-.05538.234201-.02908.352478.01346.199661.07782.392456.166065.570826.06337.121597.168909.211258.265186.305407.04282.03716.0063.09297.0081.139567.000898.356741-.04632.711112-.08778 1.06525-.02244.325037-.09463.643217-.147853.964-.03572.220001-.09226.435747-.151407.650542-.103143.357217-.205567.716551-.361228 1.055313-.05772.10598-.0859.224732-.143355.33072-.09061.176476-.170329.359568-.281281.525165-.117332.188074-.232773.378032-.360043.559948-.272287.355313-.57651.684615-.898711.994986-.226867.248391-.472656.479513-.714181.713714l.0027.01634-.0237.0018-.0054.02316-.02244-.0018.0018.02908-.02836-.0072.0092.03124-.03168-.0072.0063.02962-.03079-.0063.0097.03384-.03456-.0123.01068.03312-.03474-.0081.01158.02531c-.07522.01607-.111188.09533-.168904.140043-.06741.04255-.11947.104328-.176719.15944-.192794.179556-.380868.364075-.57035.547409-.159207.131058-.287662.29547-.449472.423925-.172222.167016-.339937.338287-.501747.515472-.170804.161567-.345386.366435-.330486.61743-.01373.122773.03267.251228.128221.330477.08796.06149.201313.0561.302805.07262.484711.06175.973218.126328 1.46196.11474.28411-.0072.570121-.0081.849264-.06535.21291-.04066.42889-.08213.624763-.177895.162995-.06768.343968-.184519.364783-.375895.05089-.184995-.02226-.374953.0081-.56089.01041-.05772.06014-.09179.115915-.09368.319842.0054.633282-.131292.869377-.34325.09817-.192328.203441-.380868.297357-.57509.214803-.528478.290031-1.097653.406656-1.652394.131057-.53889.323619-1.059801.487556-1.588997.320783-.927091.575323-1.884935 1.034964-2.756913.08778-.171037.164413-.347747.272996-.506954.09557-.195164.237746-.360286.358867-.539366.132476-.173397.276065-.340646.446627-.477386.164655-.150689.360286-.263526.515714-.424626.123248-.111661.221185-.257853.249334-.423926.04138-.250286.09014-.513578.0063-.760309-.03923-.182867-.149028-.337577-.269674-.475968.105978-.202974.195165-.41399.293101-.620509.08258-.191852.182392-.375428.257376-.570117.118995-.28908.226869-.582181.341833-.872679.105988-.209598.174591-.435281.263058-.652445.227343-.572487.447343-1.160816.825376-1.654288.131291-.169852.287185-.332847.491101-.41328.136264-.06553.31818-.142646.454202-.03689.106688.186647.0906.413272.148094.616245.05062.14691.08141.299968.121589.449947.179788.524224.344201 1.054129.520202 1.580003.15803.498678.330244.993334.463671 1.499579.04542.145015.07235.295704.126562.437883-.05278.0622-.118994.11071-.177195.167716-.08114.110476-.112836.246265-.157313.373777-.02908.08402-.05018.171504-.04685.261165-.03312.303271-.0094.613408.07971.9058.05511.292625.301143.481641.514053.663557.124901.129407.226625.278435.325271.428181.08401.109058.158974.224497.224974.345152.157313.218107.262583.466975.384413.70543.09699.185704.16891.382762.255959.572954.209598.481641.367153.983398.519259 1.485387.217165.752267.386075 1.518733.498911 2.293718.0018.18144.01185.364774-.02109.544563-.02962.136031-.149513.21764-.257152.290974-.203207.164655-.440002.27891-.671367.397904-.306583.156837-.588329.405705-.699748.740679-.03743.162752-.0745.347037.0072.501989.109058.09794.258804.123249.395777.158965.251937.07172.516181.0684.775685.07235.456805.0081.918582-.02082 1.360711-.141704.156846-.01939.323862-.114497.35982-.278901.112127-.414698.237746-.826085.366434-1.236044.05134-.1611.118752-.316528.19564-.466507.06193-.214795.200604-.397663.335208-.572245.0081-.08608-.03312-.162052-.07172-.235143-.179546-.43362-.34088-.874816-.511442-1.312223-.258328-.693842-.541026-1.379875-.752508-2.090269-.06768-.223322-.140995-.445926-.178613-.676815-.02316-.158497-.06768-.313207-.07549-.473598-.0018-.08752-.02675-.172213-.03025-.259038-.000898-.32598-.01463-.655039.05134-.976055.0561-.244137.139567-.481174.180964-.728857.06624-.295462.0684-.602996.01068-.900119-.100539-.453735-.447335-.818751-.850203-1.02834-.03528-.106222-.04901-.217883-.07145-.327174-.119694-.485662-.166773-.984573-.206519-1.481599.0018-.163937-.02432-.327874-.0027-.491336.0081-.694551.131767-1.386266.336401-2.049823.0072-.0081.02199-.02459.02935-.03285.263059-.01086.522805-.05888.777579-.12183.25928-.06409.524223-.122065.762679-.246732.15874-.07782.329776-.127979.487323-.208646.136021-.06508.255249-.159925.390571-.226867.167716-.08989.343483-.16725.499144-.277959.25525-.178137.518075-.346329.799112-.481175.241059-.114021.466032-.266137.721282-.347746.06911.166306.145724.329292.214094.495832.136256.287428.290732.566096.419187.85707.264243.542211.570117 1.062646.833409 1.605557.214095.396487.421556.797928.664751 1.17762.166773.383229.406647.728372.610805 1.091971.09723.165355.185462.335925.277017.50435.12017.303989.329767.559239.481641.846433.05772.109759.101249.229229.187597.320774.05089.101016.08348.21835.06597.332138-.05018.245556-.197534.453968-.293101.682245-.06597.235143-.09155.489217-.02011.72673.08258.228752.21291.44142.387493.611272.109534.111185.228052.217883.304222.356032.0473.09084.0535.195164.04237.295228-.02792.155186.0036.313926-.02415.469344-.01562.239641-.07854.471948-.133418.704721-.05816.279862-.106922.562551-.198953.833885-.155894.46982-.290022.945788-.428413 1.420805-.07621.252414-.142171.508139-.234668.755112-.06813.20888-.161343.409017-.221895.6205-.08258.277258-.186179.549302-.318422.807154-.109049.210074-.194455.431493-.301377.642509-.09013.19327-.212676.368571-.324571.549302-.23561.312265-.506953.598032-.80833.847609-.185471.152816-.40689.254307-.593545.40618-.39435.201547-.782076.416584-1.179262.613409-.228995.09226-.440244.228752-.620275.397662-.12254.140752-.204625.322668-.217164.50979-.01822.240349.197058.484011.443556.463429.685799-.0018 1.371599.0018 2.057156-.0018.25928-.03734.524223-.04255.77853-.107398.04901-.0072.09865-.01014.145249-.02648.237989-.05206.465799-.141461.693133-.226867.07666-.03025.155661-.05799.224265-.104319.08796-.04587.192085-.09439.229704-.19328.06202-.232297.05394-.474307.07665-.711345.353186-.251937.724594-.499853.974404-.862976.04237-.07145.06481-.152591.111419-.221428.06059-.08491.05843-.193037.08751-.28908.06552-.220243.07683-.451598.130816-.673969.108825-.556402.24981-1.105695.38891-1.654997.136731-.533451.316996-1.053895.473842-1.581188.143355-.414932.275355-.833418.421313-1.247398.16654-.493472.323153-.990022.487557-1.484203.09203-.280562.233016-.556869.462011-.748721.07755-.07782.15637-.154476.229228-.236571.06714-.0745.147618-.138858.198952-.226382.05682-.114498.153534-.20345.202022-.322677.09345-.148795.155904-.313683.192328-.484954.0072-.171512.0114-.347989-.04757-.511926-.152115-.472656-.48472-.8547-.805736-1.221853-.143597-.16961-.303037-.33615-.380392-.548584-.06032-.129873-.06005-.277016-.111186-.409735-.121597-.354837-.246498-.710869-.306116-1.082743-.0736-.35201-.12017-.708751-.196349-1.060043-.071-.406414-.101482-.81851-.13034-1.228711.0114-.135313-.02056-.268498-.01463-.403344.0027-.141937-.0081-.284583.01346-.425577-.0036-.33379.05933-.663558.06391-.99688.0054-.133652.09841-.238213.185937-.329292.1171-.110243.265428-.18854.425344-.211959.337101-.03411.688394.164404.824182.476669.06409.132243.132476.262349.197058.39435.147852.291925.233959.612699.402868.894212.04066.11544.119228.239407.07046.364308-.04066.120412-.147377.203682-.24745.274889-.143355.110952-.288604.219291-.434562.326931-.115449.08707-.226625.19398-.270634.335683-.02388.109292.07001.19635.06032.304932.09983.234667.244138.460826.457748.60726.139576.152106.287661.297355.422265.454201.151164.205101.186179.469811.163237.71797-.03151.176-.09297.344434-.149989.513577-.0081.0097-.02316.02935-.03097.03932.0081-.000242.02298-.000476.03079-.000709.164412-.175534.370698-.305883.540308-.476202.141703-.140761.285534-.279386.423683-.423683.127513-.143598.237513-.301619.344444-.460593.06768-.123482.129397-.250519.189483-.378031.04021-.129398.08069-.260214.09533-.395535.02836-.16488.01328-.332371.01463-.498436-.02388-.06463-.03905-.131767-.06247-.196115-.139576-.300902-.39838-.519018-.652444-.721515-.136265-.09675-.278201-.192562-.377323-.330002-.08662-.123967-.168434-.252888-.223546-.394592-.07594-.251937-.219535-.49962-.176719-.772139.01445-.08779.122782-.057.184519-.05395.170328.04165.291925.17908.438116.266838.410911.248634.824425.499862 1.184711.819694.138391.123015.286243.235385.41635.367619.263059.251228.462011.561599.622169.88617.09036.148086.153758.309895.229228.465556.02747.04712-.01517.08967-.03806.127746-.124676.178604-.145725.401441-.215989.602521-.02172.06364-.06741.120888-.06813.190676.000897.15471-.01131.311556.02486.463663.02863.120879.05466.244604.114022.355313.08536.148095.16347.303756.286953.425111.190676.200128.403343.392223.661434.498911.15495.0263.22757.197534.38182.226867-.003.07666-.002.154001.0123.229938.0899.701408.18239 1.404478.20084 2.111092.0217.138625.004.280086.0246.419187.0009.590699.0223 1.18542-.0684 1.771631-.01.223546-.0535.443789-.0904.664499-.0641.330244-.13318.659779-.22567.983631-.1216.507429-.3021 1.000668-.541495 1.464563-.121831.289798-.326223.535587-.544814.757715-.151631.148095-.32598.268498-.486605.405947-.180265.155419-.399556.252171-.609154.36052-.167958.08779-.341598.163937-.516414.23727-.0081.145492-.118761.250053-.191386.366911-.163937.244137-.319598.515714-.316043.819218.01158.184995.01535.383947.123715.54292.03483.0447.07046.09746.128455.113313l-.0018.01984.01777-.000898c.01939.01607.04048.03007.06319.04138.303271-.09296.61436-.161334.920234-.246964.277725-.06553.540784-.180498.818034-.247683.45491-.1171.887353-.307059 1.346043-.411153.13106-.02576.2536-.08069.38489-.105028.0347-.0063.0644-.02908.079-.06059.0417-.08231.11119-.147142.14596-.232782.0764-.175292.13366-.359811.15377-.550478.0346-.239174.0802-.498211.25525-.678466.12703-.162286.26992-.312498.42132-.451841.15731-.189016.15281-.445208.21006-.672309.10385-.466741.20321-.935376.25549-1.410869.0593-.42652.0965-.856118.11994-1.285717.0213-.103618-.003-.210073.0198-.313216.0146-.121589-.006-.24508.0127-.366201.0191-.133177-.005-.268498.0142-.401441.0178-.111186.0009-.224032.01-.33545.0265-.155419.007-.313683.013-.470287-.006-.314392.0144-.629969-.0116-.943176-.006-.402868-.002-.805737-.004-1.208605.007-.213385-.0161-.425819-.0119-.638963-.0009-.189958.00048-.379441-.002-.569166.10267-.152824.22095-.294995.3099-.456571.11757-.143597.22474-.304931.25407-.491811.0516-.326698.004-.66002-.0714-.979376-.0568-.180498-.10645-.364308-.19564-.532266-.25596-.598032-.73501-1.074477-1.27744-1.420805-.14337-.10834-.25005-.255725-.36999-.387959-.33402-.387259-.64676-.792488-.9453-1.20742-.25928-.363132-.533221-.716551-.770259-1.095059-.29144-.440953-.491811-.932055-.741154-1.396426-.0473-.102676-.07666-.212677-.100773-.32291-.03195-.132243-.10291-.251238-.134128-.383472-.165364-.478329-.237513-.982921-.281989-1.485145-.03097-.330243-.06884-.660011-.102667-.989779-.03124-.163228.0081-.332613-.02199-.49655-.0081-.0596.000233-.120413-.01203-.179313-.116867-.700467-.155894-1.420806-.392698-2.095484-.09912-.382286-.268022-.740912-.447578-1.091028-.155661-.276307-.338286-.536996-.54362-.778764-.140043-.183101-.286243-.361471-.432202-.540075-.304222-.316286-.625005-.615778-.954297-.9058-.168667-.1242-.329059-.260222-.503175-.376847-.128212-.07477-.242234-.171037-.370222-.246498-.308235-.1831-.616721-.367386-.94341-.516423-.242243-.105746-.490402-.198243-.744466-.271577-.511926-.130106-1.009177-.312498-1.492245-.525408-.212668-.09982-.446393-.161809-.634457-.307768-.308486-.200603-.594254-.432435-.884986-.657166-.53038-.424159-1.065007-.843354-1.604848-1.255683-.22237-.154477-.432911-.325271-.660963-.471705-.0736-.04569-.13744-.105037-.211007-.150931-.302804-.151397-.593302-.326222-.898709-.472656-.09652-.05224-.196107-.09794-.302086-.127504-.207471-.09439-.428657-.151397-.645112-.221185-.424635-.09439-.853524-.202265-1.292108-.190677-.196116-.01463-.392465-.01418-.589281-.01373-.34491.01113-.696445.11544-.962582.341832-.140519.13673-.282923.274179-.391505.438825-.112136.13981-.211725.28908-.326222.426996-.158031.233725-.322677.463662-.505069.679175-.409726.449238-.79106.924731-1.217589 1.358584-.07567.104561-.182392.180974-.259037.284826-.208171.211958-.380869.454668-.580763.674202-.52399.606075-1.089844 1.173123-1.594437 1.796467-.584075.675855-1.171228 1.349115-1.73614 2.041538-.144064.192804-.281037.392932-.452074.563736-.17671.139567-.38725.240349-.610805.274413-.465323.05843-.935843-.02037-1.385557-.140285-.983156-.248159-1.874523-.852097-2.459074-1.681019-.285768-.35674-.501751-.764097-.678936-1.184001-.273471-.657175-.377799-1.371124-.650318-2.029241-.111661-.242477-.211958-.489684-.30635-.739494-.0925-.26164-.205334-.518317-.246264-.794857.102667.01517.205101.0324.308719.02621.177661-.0063.359102.01849.532499-.02935.136498-.04964.277968-.104085.381577-.210064.06858-.121598.02863-.264711.01068-.394117-.03788-.199661-.108107-.402159-.251228-.551663-.04138-.03213-.0894-.057-.140995-.06929-.255725-.02127-.512626-.0272-.769303-.01723-.07333.0027-.148085.0386-.220476.01373.0045-.176001-.08159-.339228-.138392-.502223-.149979-.211016-.291916-.431017-.476202-.614593-.198476-.170795-.410434-.341589-.664499-.41942z" fill="#d7bab8" stroke="#baccff" stroke-width=".023656"/></g><g fill-rule="evenodd"><path d="m43.694065-16.752387c5.137078-.03348 1.879587 31.017222 1.879587 31.017222s35.952525-7.1678051 35.952525 5.078738c0-2.983162-.009-6.343468-.009-6.343468l-29.605364-29.74858z" opacity=".2" stroke-width="1.995053"/><path d="m44.813635-16.709453c5.60792-.03348 2.370157 29.409725 2.370157 29.409725s34.154277-6.6177114 34.154277 5.298795c0-2.902768-.0088-6.172516-.0088-6.172516l-28.577099-28.532198z" opacity=".2" stroke-width="1.941287"/><path d="m46.257197-16.741222c5.654616-.0073 2.261853 27.448842 2.261853 27.448842s32.988522-5.4051998 32.988522 6.06048c0-2.792949-.0085-3.796138-.0085-3.796138l-29.767428-29.732304z" opacity=".2" stroke-width="1.871432"/><path d="m47.578312-16.755847c6.006363 0 2.163461 25.935733 2.163461 25.935733s31.765441-4.6711083 31.765441 6.389377c0-2.694248-.0081-3.586255-.0081-3.586255l-28.791275-28.757298z" fill="url(#l)" stroke-width="1.805296"/></g><path d="m6.5000025 38.571429h74.9999995v1.428571h-74.9999995z" opacity=".3"/><path d="m6.5000025 37.142858h74.9999995v1.428571h-74.9999995z" fill="#fff" opacity=".1"/><g fill="#fff" transform="matrix(.82671511 0 0 .82671511 -8.478661 -19.611496)"><path d="m44.470428 75.994476h4.992188q2.226562 0 3.414062.992188 1.195313.984375 1.195313 2.8125 0 1.835937-1.195313 2.828125-1.1875.984375-3.414062.984375h-1.984375v4.046875h-3.007813zm3.007813 2.179688v3.257812h1.664062q.875 0 1.351563-.421875.476562-.429687.476562-1.210937 0-.78125-.476562-1.203125-.476563-.421875-1.351563-.421875z"/><path d="m56.189178 75.994476h8.117188v2.273438h-5.109375v2.171875h4.804687v2.273437h-4.804687v2.671875h5.28125v2.273438h-8.289063z"/><path d="m71.400116 81.166351q.945312 0 1.351562-.351562.414063-.351563.414063-1.15625 0-.796875-.414063-1.140625-.40625-.34375-1.351562-.34375h-1.265625v2.992187zm-1.265625 2.078125v4.414063h-3.007813v-11.664063h4.59375q2.304688 0 3.375.773438 1.078125.773437 1.078125 2.445312 0 1.15625-.5625 1.898438-.554687.742187-1.679687 1.09375.617187.140625 1.101562.640625.492188.492187.992188 1.5l1.632812 3.3125h-3.203125l-1.421875-2.898438q-.429687-.875-.875-1.195312-.4375-.320313-1.171875-.320313z"/><path d="m79.439178 75.994476h3.007813v9.390625h5.28125v2.273438h-8.289063z"/></g></g></svg>