<svg height="64" width="64" xmlns="http://www.w3.org/2000/svg" xmlns:xlink="http://www.w3.org/1999/xlink"><linearGradient id="a"><stop offset="0" stop-color="#fff"/><stop offset="1" stop-color="#fff" stop-opacity="0"/></linearGradient><linearGradient id="b" gradientTransform="matrix(1.0058652 0 0 .994169 100 0)" gradientUnits="userSpaceOnUse" x1="45.447727" x2="45.447727" y1="92.539597" y2="7.01654"><stop offset="0"/><stop offset="1" stop-opacity=".588235"/></linearGradient><linearGradient id="c" gradientTransform="matrix(.88095236 0 0 .88095242 102.24686 -91.378936)" gradientUnits="userSpaceOnUse" x1="32.251034" x2="32.251034" xlink:href="#b" y1="6.131708" y2="90.238609"/><linearGradient id="d" gradientTransform="matrix(.85714286 0 0 .85714286 103.38971 -90.236078)" gradientUnits="userSpaceOnUse" x1="32.251034" x2="32.251034" xlink:href="#b" y1="6.131708" y2="90.238609"/><linearGradient id="e" gradientTransform="matrix(0 -1.0119049 .89285716 0 1.14286 64.285716)" gradientUnits="userSpaceOnUse" x1="7.3709" x2="23.76619" y1="51.470146" y2="51.433136"><stop offset="0" stop-color="#202d3d"/><stop offset="1" stop-color="#2d3b48"/></linearGradient><linearGradient id="f" gradientTransform="matrix(.88966473 0 0 -.88897608 101.82866 91.764071)" gradientUnits="userSpaceOnUse" x1="32.251034" x2="32.251034" xlink:href="#b" y1="6.131708" y2="90.238609"/><linearGradient id="g" gradientTransform="matrix(.88668581 0 0 -.88621557 101.97166 91.631566)" gradientUnits="userSpaceOnUse" x1="32.251034" x2="32.251034" xlink:href="#b" y1="6.131708" y2="90.238609"/><linearGradient id="h" gradientTransform="matrix(.88419911 0 0 -.88396282 102.09102 91.52343)" gradientUnits="userSpaceOnUse" x1="32.251034" x2="32.251034" xlink:href="#b" y1="6.131708" y2="90.238609"/><linearGradient id="i" gradientUnits="userSpaceOnUse" x1="78.04289384" x2="78.04289384" y1="-43.8124403" y2="-113.82267585329"><stop offset="0" stop-color="#404c5c"/><stop offset="1" stop-color="#566671"/></linearGradient><radialGradient id="j" cx="48" cy="90.171875" gradientTransform="matrix(1.0333151 0 0 .89285716 -5.599123 -22.296321)" gradientUnits="userSpaceOnUse" r="42" xlink:href="#a"/><linearGradient id="k" gradientTransform="matrix(.83333387 0 0 .83675756 38.042891 -118.83298)" gradientUnits="userSpaceOnUse" x1="36.357143" x2="36.357143" xlink:href="#a" y1="6" y2="63.893143"/><linearGradient id="l" gradientTransform="matrix(2.4467882 0 0 2.4908279 -19.058972 -21.607478)" gradientUnits="userSpaceOnUse" x1="32.891998" x2="36.358002" y1="8.059" y2="5.4565"><stop offset="0" stop-color="#697884"/><stop offset="1" stop-color="#5c6874"/></linearGradient><linearGradient id="m" gradientTransform="matrix(.8613768 0 0 .86386487 1.218456 -27.63602)" gradientUnits="userSpaceOnUse" x1="19.862228" x2="79.795067" y1="22.729111" y2="76.817848"><stop offset="0" stop-color="#37424c"/><stop offset="1" stop-color="#95a3b4"/></linearGradient><linearGradient id="n" gradientUnits="userSpaceOnUse" spreadMethod="reflect" x1="48.40678" x2="48" y1="23.38983" y2="72"><stop offset="0" stop-color="#4a7aff"/><stop offset="1" stop-color="#0c577f"/></linearGradient><linearGradient id="o"><stop offset="0" stop-color="#50d8f5"/><stop offset="1" stop-color="#2ca5c2" stop-opacity="0"/></linearGradient><clipPath id="p"><rect height="55.999996" rx="3" width="72" x="12" y="20"/></clipPath><radialGradient id="q" cx="56" cy="24" gradientUnits="userSpaceOnUse" r="16"><stop offset="0" stop-color="#3391aa"/><stop offset="1" stop-color="#2c606a" stop-opacity="0"/></radialGradient><radialGradient id="r" cx="60.562889" cy="49.720657" gradientUnits="userSpaceOnUse" r="19.437111" xlink:href="#o"/><radialGradient id="s" cx="47.977352" cy="64.057671" gradientUnits="userSpaceOnUse" r="24.022646" xlink:href="#o"/><radialGradient id="t" cx="58.5" cy="37.5" gradientUnits="userSpaceOnUse" r="2.5" xlink:href="#a"/><g transform="matrix(.7 0 0 .7 1.2 18)"><g transform="matrix(1.0714286 0 0 1.0714286 -110.85633 -31.885595)"><path d="m114.1583 89.09322c-4.78901 0-8.71691-3.971039-8.71691-8.812629v-62.374743c0-4.841588 3.9279-8.812628 8.71691-8.812628h38.74855l30.7169 30.812628v40.374743c0 4.84159-3.9279 8.812629-8.7169 8.812629z" fill="url(#f)" opacity=".08"/><path d="m114.2634 88.09322c-4.30575 0-7.82165-3.55537-7.82165-7.909474v-62.181052c0-4.354104 3.5159-7.909474 7.82165-7.909474h38.36008l30 30v40.090526c0 4.354104-3.51589 7.909474-7.82165 7.909474z" fill="url(#g)" opacity=".1"/><path d="m114.35075 87.09322c-3.80788 0-6.90909-3.13685-6.90909-6.98851v-62.02298c0-3.851661 3.10121-6.98851 6.90909-6.98851h38.27273l29 29v40.01149c0 3.85166-3.1012 6.98851-6.90909 6.98851z" fill="url(#h)" opacity=".2"/><path d="m114.46511-86.093224h60.13512c3.33689 0 6.02326 2.717977 6.02326 6.094118v38.905886l-29.00001 28.999996h-37.15837c-3.33688 0-6.02325-2.717976-6.02325-6.094117v-61.811765c0-3.376141 2.68637-6.094118 6.02325-6.094118z" fill="url(#c)" opacity=".3" transform="scale(1 -1)"/><path d="m114.58491-85.093224h59.89572c2.84914 0 5.07622 2.294494 5.14286 5.142858v38.857146l-28.00001 27.999996h-37.03857c-2.84914 0-5.14285-2.293714-5.14285-5.142857v-61.714285c0-2.849143 2.29371-5.142858 5.14285-5.142858z" fill="url(#d)" opacity=".45" transform="scale(1 -1)"/></g><g transform="matrix(1.0714286 0 0 1.0714286 -39.617384 105.15619)"><path d="m48.042892-113.81244h37.999998l27 27v38.000001c0 2.77-2.23 5-5 5h-59.999998c-2.77 0-5-2.23-5-5v-60.000001c0-2.77 2.23-5 5-5z" fill="url(#i)"/><path d="m48.042897-113.81244c-2.770002 0-5.000003 2.23916-5.000003 5.02055v1.67351 54.899511c3.856259 8.137855.998427 5.789227.833337.836756v-54.899507-1.67352c0-2.32773 1.848461-4.18379 4.166669-4.18379h1.666668 34.666692 1.66667l26.16667 26.18379v1.67352 32.899507c-2.34559 6.154455.83329 6.970762.83329-.836758v-32.899509-1.67352l-27-27.02054z" fill="url(#k)" opacity=".3"/></g><path d="m17.472052 32.857143c-2.863074 0-3.472052-.430577-3.472052-3.118055v-33.7638905c0-2.6874731.612969-2.9750664 3.472052-3.1180544h38.562233l16.06052 14.628572v22.2533729c0 2.687478-.60898 3.118055-3.472052 3.118055z" fill="url(#m)"/><path d="m6.5000025 52.142855c0 3.36357 2.3892855 6.071428 5.3571425 6.071428h64.285714c2.967857 0 5.357143-2.707858 5.357143-6.071428v-13.571426h-74.9999995z" fill="url(#e)"/><path d="m11.857145 58.214283c-2.967857 0-5.3571425-2.399103-5.3571425-5.379155v-1.793053c.0365465-10.900962.8928589-11.133427.8928589-.896578v1.793052c0 2.493998 1.9804926 4.48263 4.4642856 4.48263h1.785716 60.714274 1.785718c2.483796 0 4.464289-1.988632 4.464289-4.48263v-1.793053c.08764-12.153031.892875-7.994396.892875.896527v1.793052c-.000021 2.980105-2.389307 5.379208-5.357164 5.379208z" fill="url(#j)" opacity=".2"/><g clip-path="url(#p)" stroke="none" stroke-opacity="0" transform="matrix(.7275 0 0 .60948704 8.127143 -16.321012)"><path d="m12 20h50l22 19.999998v35.999998h-72z" fill="url(#n)"/><path d="m72 24a16 16 0 1 1 -32 0 16 16 0 1 1 32 0z" fill="url(#q)" opacity=".5" transform="matrix(2.4668467 0 0 2.4668467 -110.14342 -33.204321)"/><path d="m80 49.720657a19.437111 19.437111 0 1 1 -38.874222 0 19.437111 19.437111 0 1 1 38.874222 0z" fill="url(#r)" opacity=".696721" transform="matrix(.92606356 0 0 .92606356 20.477805 -.044489)"/><path d="m71.999998 64.057671a24.022646 24.022646 0 1 1 -48.045292 0 24.022646 24.022646 0 1 1 48.045292 0z" fill="url(#s)" transform="translate(-23.999998 -16.057671)"/><path d="m80 49.720657a19.437111 19.437111 0 1 1 -38.874222 0 19.437111 19.437111 0 1 1 38.874222 0z" fill="url(#r)" opacity=".434426" transform="translate(-12.562889 -5.157768)"/><g fill="#fff"><path d="m61 37.5a2.5 2.5 0 1 1 -5 0 2.5 2.5 0 1 1 5 0z" opacity=".4"/><path d="m61 37.5a2.5 2.5 0 1 1 -5 0 2.5 2.5 0 1 1 5 0z" opacity=".504098" transform="translate(-33.5 10)"/><path d="m61 37.5a2.5 2.5 0 1 1 -5 0 2.5 2.5 0 1 1 5 0z" opacity=".3" transform="translate(4 13.5)"/><path d="m61 37.5a2.5 2.5 0 1 1 -5 0 2.5 2.5 0 1 1 5 0z" opacity=".504098" transform="translate(17 8.5)"/><path d="m61 37.5a2.5 2.5 0 1 1 -5 0 2.5 2.5 0 1 1 5 0z" opacity=".504098" transform="translate(-17 7.5)"/><path d="m61 37.5a2.5 2.5 0 1 1 -5 0 2.5 2.5 0 1 1 5 0z" opacity=".504098" transform="translate(-42 3.5)"/><path d="m61 37.5a2.5 2.5 0 1 1 -5 0 2.5 2.5 0 1 1 5 0z" opacity=".3" transform="translate(-42 3.5)"/><path d="m61 37.5a2.5 2.5 0 1 1 -5 0 2.5 2.5 0 1 1 5 0z" opacity=".504098" transform="matrix(.4 0 0 .4 -6.4 35)"/><path d="m61 37.5a2.5 2.5 0 1 1 -5 0 2.5 2.5 0 1 1 5 0z" opacity=".504098" transform="matrix(.4 0 0 .4 7.6 38)"/><path d="m61 37.5a2.5 2.5 0 1 1 -5 0 2.5 2.5 0 1 1 5 0z" opacity=".504098" transform="matrix(.4 0 0 .4 9.6 34)"/><path d="m61 37.5a2.5 2.5 0 1 1 -5 0 2.5 2.5 0 1 1 5 0z" opacity=".3" transform="matrix(.4 0 0 .4 16.6 36)"/><path d="m61 37.5a2.5 2.5 0 1 1 -5 0 2.5 2.5 0 1 1 5 0z" opacity=".504098" transform="matrix(.4 0 0 .4 28.6 28)"/><path d="m61 37.5a2.5 2.5 0 1 1 -5 0 2.5 2.5 0 1 1 5 0z" opacity=".504098" transform="matrix(.4 0 0 .4 45.6 33)"/><path d="m61 37.5a2.5 2.5 0 1 1 -5 0 2.5 2.5 0 1 1 5 0z" opacity=".504098" transform="matrix(.4 0 0 .4 47.6 29)"/><path d="m61 37.5a2.5 2.5 0 1 1 -5 0 2.5 2.5 0 1 1 5 0z" opacity=".504098" transform="matrix(.4 0 0 .4 55.6 23)"/><path d="m61 37.5a2.5 2.5 0 1 1 -5 0 2.5 2.5 0 1 1 5 0z" opacity=".504098" transform="matrix(.4 0 0 .4 38.6 30)"/><path d="m61 37.5a2.5 2.5 0 1 1 -5 0 2.5 2.5 0 1 1 5 0z" opacity=".504098" transform="matrix(.4 0 0 .4 38.6 30)"/><path d="m61 37.5a2.5 2.5 0 1 1 -5 0 2.5 2.5 0 1 1 5 0z" opacity=".504098" transform="matrix(.6 0 0 .6 -1.1 21)"/><path d="m61 37.5a2.5 2.5 0 1 1 -5 0 2.5 2.5 0 1 1 5 0z" opacity=".504098" transform="matrix(.6 0 0 .6 -6.6 18.5)"/><path d="m61 37.5a2.5 2.5 0 1 1 -5 0 2.5 2.5 0 1 1 5 0z" opacity=".504098" transform="matrix(.6 0 0 .6 15.9 31)"/><path d="m61 37.5a2.5 2.5 0 1 1 -5 0 2.5 2.5 0 1 1 5 0z" opacity=".504098" transform="matrix(.6 0 0 .6 19.4 26.5)"/><path d="m61 37.5a2.5 2.5 0 1 1 -5 0 2.5 2.5 0 1 1 5 0z" opacity=".504098" transform="matrix(.6 0 0 .6 19.4 26.5)"/><path d="m61 37.5a2.5 2.5 0 1 1 -5 0 2.5 2.5 0 1 1 5 0z" opacity=".504098" transform="matrix(.6 0 0 .6 37.9 29)"/></g><path d="m61 37.5a2.5 2.5 0 1 1 -5 0 2.5 2.5 0 1 1 5 0z" fill="url(#t)" opacity=".3" transform="matrix(1.6 0 0 1.6 -43.6 -16)"/><path d="m61 37.5a2.5 2.5 0 1 1 -5 0 2.5 2.5 0 1 1 5 0z" fill="url(#t)" opacity=".3" transform="matrix(1.6 0 0 1.6 -23.6 -10)"/><path d="m61 37.5a2.5 2.5 0 1 1 -5 0 2.5 2.5 0 1 1 5 0z" fill="url(#t)" opacity=".3" transform="matrix(1.6 0 0 1.6 -72.6 -15)"/><path d="m61 37.5a2.5 2.5 0 1 1 -5 0 2.5 2.5 0 1 1 5 0z" fill="url(#t)" opacity=".3" transform="matrix(1.6 0 0 1.6 -59.6 -9)"/><path d="m61 37.5a2.5 2.5 0 1 1 -5 0 2.5 2.5 0 1 1 5 0z" fill="url(#t)" opacity=".3" transform="translate(-27 2.5)"/><path d="m61 37.5a2.5 2.5 0 1 1 -5 0 2.5 2.5 0 1 1 5 0z" fill="url(#t)" opacity=".3" transform="translate(9 4.5)"/><path d="m61 37.5a2.5 2.5 0 1 1 -5 0 2.5 2.5 0 1 1 5 0z" fill="url(#t)" opacity=".3" transform="translate(21 6.5)"/><path d="m61 37.5a2.5 2.5 0 1 1 -5 0 2.5 2.5 0 1 1 5 0z" fill="url(#t)" opacity=".3" transform="translate(-35 12.5)"/><path d="m61 37.5a2.5 2.5 0 1 1 -5 0 2.5 2.5 0 1 1 5 0z" fill="#fff" opacity=".504098" transform="matrix(.4 0 0 .4 39.6 24)"/><g fill="#fff" transform="translate(0 -.000002)"><path d="m15 20h1v56h-1z" opacity=".3"/><path d="m19 20h1v56h-1z" opacity=".3"/><path d="m27 20h1v56h-1z" opacity=".3"/><path d="m23 20h1v56h-1z" opacity=".3"/><path d="m31 20h1v56h-1z" opacity=".3"/><path d="m35 20h1v56h-1z" opacity=".3"/><path d="m39 20h1v56h-1z" opacity=".3"/><path d="m43 20h1v56h-1z" opacity=".3"/><path d="m47 20h1v56h-1z" opacity=".3"/><path d="m51 20h1v56h-1z" opacity=".3"/><path d="m55 20h1v56h-1z" opacity=".3"/><path d="m59 20h1v56h-1z" opacity=".3"/><path d="m63 20h1v56h-1z" opacity=".3"/><path d="m67 20h1v56h-1z" opacity=".3"/><path d="m71 20h1v56h-1z" opacity=".3"/><path d="m75 20h1v56h-1z" opacity=".3"/><path d="m79 24h1v52h-1z" opacity=".3"/><path d="m72-84h1v72h-1z" opacity=".3" transform="rotate(90)"/><path d="m68-84h1v72h-1z" opacity=".3" transform="rotate(90)"/><path d="m64-84h1v72h-1z" opacity=".3" transform="rotate(90)"/><path d="m60-84h1v72h-1z" opacity=".3" transform="rotate(90)"/><path d="m56-84h1v72h-1z" opacity=".3" transform="rotate(90)"/><path d="m52-84h1v72h-1z" opacity=".3" transform="rotate(90)"/><path d="m48-84h1v72h-1z" opacity=".3" transform="rotate(90)"/><path d="m44-84h1v72h-1z" opacity=".3" transform="rotate(90)"/><path d="m40-84h1v72h-1z" opacity=".3" transform="rotate(90)"/><path d="m36-84h1v72h-1z" opacity=".3" transform="rotate(90)"/><path d="m32-84h1v72h-1z" opacity=".3" transform="rotate(90)"/><path d="m28-84h1v72h-1z" opacity=".3" transform="rotate(90)"/><path d="m24-80h1v68h-1z" opacity=".3" transform="rotate(90)"/></g><g transform="translate(0 -.000002)"><path d="m20 73h3v3h-3z" fill="#194280"/><path d="m20 69h3v3h-3z" fill="#19447f"/><path d="m20 65h3v3h-3z" fill="#2d6499"/><path d="m20 61h3v3h-3z" fill="#3c7fab"/><path d="m20 57h3v3h-3z" fill="#4996bc"/><path d="m20 53h3v3h-3z" fill="#53a7c7"/><path d="m20 49h3v3h-3z" fill="#66bad3"/><path d="m20 45h3v3h-3z" fill="#76c3d8"/><path d="m20 41h3v3h-3z" fill="#6ab9d0"/><path d="m20 37h3v3h-3z" fill="#48a5bf"/><path d="m20 33h3v3h-3z" fill="#3a9ab1"/><path d="m20 29h3v3h-3z" fill="#298ea2"/><path d="m20 25h3v3h-3z" fill="#17808f"/><path d="m20 20h3v4h-3z" fill="#0d7583"/><path d="m12 73h3v3h-3z" fill="#194280"/><path d="m12 69h3v3h-3z" fill="#153d7a"/><path d="m12 65h3v3h-3z" fill="#275691"/><path d="m12 61h3v3h-3z" fill="#3673a5"/><path d="m12 57h3v3h-3z" fill="#4287b4"/><path d="m12 53h3v3h-3z" fill="#4b98bf"/><path d="m12 49h3v3h-3z" fill="#50a3c7"/><path d="m12 45h3v3h-3z" fill="#50a5c7"/><path d="m12 41h3v3h-3z" fill="#49a0c0"/><path d="m12 37h3v3h-3z" fill="#4097b6"/><path d="m12 33h3v3h-3z" fill="#338aa8"/><path d="m12 29h3v3h-3z" fill="#237b97"/><path d="m12 25h3v3h-3z" fill="#136b84"/><path d="m12 20h3v4h-3z" fill="#0e657e"/><path d="m16 73h3v3h-3z" fill="#19427f"/><path d="m16 69h3v3h-3z" fill="#16407d"/><path d="m16 65h3v3h-3z" fill="#2a5f95"/><path d="m16 61h3v3h-3z" fill="#397aa9"/><path d="m16 57h3v3h-3z" fill="#4690b9"/><path d="m16 53h3v3h-3z" fill="#4fa0c3"/><path d="m16 49h3v3h-3z" fill="#9bcee0"/><path d="m16 45h3v3h-3z" fill="#56aecc"/><path d="m16 41h3v3h-3z" fill="#c2e1eb"/><path d="m16 37h3v3h-3z" fill="#459fbb"/><path d="m16 33h3v3h-3z" fill="#3794ae"/><path d="m16 29h3v3h-3z" fill="#28879d"/><path d="m16 25h3v3h-3z" fill="#15778a"/><path d="m16 20h3v4h-3z" fill="#0d6d81"/><path d="m24 73h3v3h-3z" fill="#194280"/><path d="m24 69h3v3h-3z" fill="#19447f"/><path d="m24 65h3v3h-3z" fill="#2e679a"/><path d="m24 61h3v3h-3z" fill="#3d80ad"/><path d="m24 57h3v3h-3z" fill="#4997bc"/><path d="m24 53h3v3h-3z" fill="#53a9c8"/><path d="m24 49h3v3h-3z" fill="#5eb6d0"/><path d="m24 45h3v3h-3z" fill="#aedce8"/><path d="m24 41h3v3h-3z" fill="#54b0ca"/><path d="m24 37h3v3h-3z" fill="#48a6bf"/><path d="m24 33h3v3h-3z" fill="#399bb1"/><path d="m24 29h3v3h-3z" fill="#2992a2"/><path d="m24 25h3v3h-3z" fill="#188a93"/><path d="m24 20h3v4h-3z" fill="#0c7c86"/><path d="m28 73h3v3h-3z" fill="#194380"/><path d="m28 69h3v3h-3z" fill="#17417d"/><path d="m28 65h3v3h-3z" fill="#2b6196"/><path d="m28 61h3v3h-3z" fill="#3a7ba9"/><path d="m28 57h3v3h-3z" fill="#4692b9"/><path d="m28 53h3v3h-3z" fill="#50a3c4"/><path d="m28 49h3v3h-3z" fill="#55aecb"/><path d="m28 45h3v3h-3z" fill="#57b1cd"/><path d="m28 41h3v3h-3z" fill="#86c5d8"/><path d="m28 37h3v3h-3z" fill="#4da6bf"/><path d="m28 33h3v3h-3z" fill="#3799af"/><path d="m28 29h3v3h-3z" fill="#2791a2"/><path d="m28 25h3v3h-3z" fill="#148991"/><path d="m28 20h3v4h-3z" fill="#0b7d87"/><path d="m32 73h3v3h-3z" fill="#194280"/><path d="m32 69h3v3h-3z" fill="#153e7a"/><path d="m32 65h3v3h-3z" fill="#275b93"/><path d="m32 61h3v3h-3z" fill="#3776a6"/><path d="m32 57h3v3h-3z" fill="#428bb5"/><path d="m32 53h3v3h-3z" fill="#519ec3"/><path d="m32 49h3v3h-3z" fill="#80bfd9"/><path d="m32 45h3v3h-3z" fill="#54aecc"/><path d="m32 41h3v3h-3z" fill="#a8d5e3"/><path d="m32 37h3v3h-3z" fill="#43a0bb"/><path d="m32 33h3v3h-3z" fill="#3496ac"/><path d="m32 29h3v3h-3z" fill="#21899b"/><path d="m32 25h3v3h-3z" fill="#107c8a"/><path d="m32 20h3v4h-3z" fill="#0d7684"/><path d="m36 73h3v3h-3z" fill="#194280"/><path d="m36 69h3v3h-3z" fill="#153e7b"/><path d="m36 65h3v3h-3z" fill="#214f8b"/><path d="m36 61h3v3h-3z" fill="#306a9f"/><path d="m36 57h3v3h-3z" fill="#3f83b2"/><path d="m36 53h3v3h-3z" fill="#4997c0"/><path d="m36 49h3v3h-3z" fill="#56a8cc"/><path d="m36 45h3v3h-3z" fill="#53aacd"/><path d="m36 41h3v3h-3z" fill="#4ca5c6"/><path d="m36 37h3v3h-3z" fill="#429dbb"/><path d="m36 33h3v3h-3z" fill="#3390ab"/><path d="m36 29h3v3h-3z" fill="#218299"/><path d="m36 25h3v3h-3z" fill="#0f7285"/><path d="m36 20h3v4h-3z" fill="none"/><path d="m40 73h3v3h-3z" fill="#1a4381"/><path d="m40 69h3v3h-3z" fill="#163f7c"/><path d="m40 65h3v3h-3z" fill="#204c8a"/><path d="m40 61h3v3h-3z" fill="#2d609a"/><path d="m40 57h3v3h-3z" fill="#3d7caf"/><path d="m40 53h3v3h-3z" fill="#4991be"/><path d="m40 49h3v3h-3z" fill="#5ea7ce"/><path d="m40 45h3v3h-3z" fill="#abd5e7"/><path d="m40 41h3v3h-3z" fill="#84c1d9"/><path d="m40 37h3v3h-3z" fill="#429aba"/><path d="m40 33h3v3h-3z" fill="#328aa8"/><path d="m40 29h3v3h-3z" fill="#207a95"/><path d="m40 25h3v3h-3z" fill="#126b84"/><path d="m40 20h3v4h-3z" fill="none"/><path d="m36 20h3v4h-3z" fill="#0d6e81"/><path d="m40 20h3v4h-3z" fill="#0f677f"/><path d="m44 73h3v3h-3z" fill="#194280"/><path d="m44 69h3v3h-3z" fill="#153e7b"/><path d="m44 65h3v3h-3z" fill="#204b8a"/><path d="m44 61h3v3h-3z" fill="#2a5b98"/><path d="m44 57h3v3h-3z" fill="#3770a9"/><path d="m44 53h3v3h-3z" fill="#468bbd"/><path d="m44 49h3v3h-3z" fill="#51a0cd"/><path d="m44 45h3v3h-3z" fill="#58abd4"/><path d="m44 41h3v3h-3z" fill="#51a6cb"/><path d="m44 37h3v3h-3z" fill="#4395ba"/><path d="m44 33h3v3h-3z" fill="#3184a7"/><path d="m44 29h3v3h-3z" fill="#247696"/><path d="m44 25h3v3h-3z" fill="#156684"/><path d="m44 20h3v4h-3z" fill="none"/><path d="m44 20h3v4h-3z" fill="#0f5f7d"/><path d="m48 73h3v3h-3z" fill="#194280"/><path d="m48 69h3v3h-3z" fill="#153e7b"/><path d="m48 65h3v3h-3z" fill="#204b8a"/><path d="m48 61h3v3h-3z" fill="#2c5c9a"/><path d="m48 57h3v3h-3z" fill="#3971ac"/><path d="m48 53h3v3h-3z" fill="#a4c3de"/><path d="m48 49h3v3h-3z" fill="#529acc"/><path d="m48 45h3v3h-3z" fill="#67afd8"/><path d="m48 41h3v3h-3z" fill="#71b3d5"/><path d="m48 37h3v3h-3z" fill="#4492bb"/><path d="m48 33h3v3h-3z" fill="#3280a7"/><path d="m48 29h3v3h-3z" fill="#247094"/><path d="m48 25h3v3h-3z" fill="#166082"/><path d="m48 20h3v4h-3z" fill="none"/><path d="m48 20h3v4h-3z" fill="#10587a"/><path d="m52 73h3v3h-3z" fill="#194380"/><path d="m52 69h3v3h-3z" fill="#153e7b"/><path d="m52 65h3v3h-3z" fill="#204a89"/><path d="m52 61h3v3h-3z" fill="#2b589a"/><path d="m52 57h3v3h-3z" fill="#3a6eac"/><path d="m52 53h3v3h-3z" fill="#4581bc"/><path d="m52 49h3v3h-3z" fill="#73a9d6"/><path d="m52 45h3v3h-3z" fill="#549dd0"/><path d="m52 41h3v3h-3z" fill="#4f98c8"/><path d="m52 37h3v3h-3z" fill="#418ab7"/><path d="m52 33h3v3h-3z" fill="#327aa5"/><path d="m52 29h3v3h-3z" fill="#256a93"/><path d="m52 25h3v3h-3z" fill="#155880"/><path d="m52 20h3v4h-3z" fill="none"/><path d="m52 20h3v4h-3z" fill="#115279"/><path d="m56 73h3v3h-3z" fill="#1a4381"/><path d="m56 69h3v3h-3z" fill="#153e7b"/><path d="m56 65h3v3h-3z" fill="#204a89"/><path d="m56 61h3v3h-3z" fill="#2a5799"/><path d="m56 57h3v3h-3z" fill="#3869ab"/><path d="m56 53h3v3h-3z" fill="#447cbb"/><path d="m56 49h3v3h-3z" fill="#4e8cc8"/><path d="m56 45h3v3h-3z" fill="#5193cc"/><path d="m56 41h3v3h-3z" fill="#4789bf"/><path d="m56 37h3v3h-3z" fill="#8bb2d0"/><path d="m56 33h3v3h-3z" fill="#3071a0"/><path d="m56 29h3v3h-3z" fill="#21608f"/><path d="m56 25h3v3h-3z" fill="#15517e"/><path d="m56 20h3v4h-3z" fill="none"/><path d="m56 20h3v4h-3z" fill="#124d79"/><path d="m60 73h3v3h-3z" fill="#194280"/><path d="m60 69h3v3h-3z" fill="#153e7b"/><path d="m60 65h3v3h-3z" fill="#204b8a"/><path d="m60 61h3v3h-3z" fill="#2a5799"/><path d="m60 57h3v3h-3z" fill="#3563a8"/><path d="m60 53h3v3h-3z" fill="#4477bc"/><path d="m60 49h3v3h-3z" fill="#84aedb"/><path d="m60 45h3v3h-3z" fill="#5394d0"/><path d="m60 41h3v3h-3z" fill="#4a89c2"/><path d="m60 37h3v3h-3z" fill="#5f95c8"/><path d="m60 33h3v3h-3z" fill="#2d679d"/><path d="m60 29h3v3h-3z" fill="#20568b"/><path d="m60 25h3v3h-3z" fill="#164c7e"/><path d="m60 20h3v4h-3z" fill="none"/><path d="m60 20h3v4h-3z" fill="#134779"/><path d="m64 73h3v3h-3z" fill="#194280"/><path d="m64 69h3v3h-3z" fill="#163e7b"/><path d="m64 65h3v3h-3z" fill="#204a8a"/><path d="m64 61h3v3h-3z" fill="#2b5799"/><path d="m64 57h3v3h-3z" fill="#3868ab"/><path d="m64 53h3v3h-3z" fill="#487dbf"/><path d="m64 49h3v3h-3z" fill="#5691d0"/><path d="m64 45h3v3h-3z" fill="#5999d7"/><path d="m64 41h3v3h-3z" fill="#5d95cd"/><path d="m64 37h3v3h-3z" fill="none"/><path d="m64 33h3v3h-3z" fill="#3166a1"/><path d="m64 29h3v3h-3z" fill="#21538d"/><path d="m64 25h3v3h-3z" fill="#17487e"/><path d="m64 20h3v4h-3z" fill="none"/><path d="m64 20h3v4h-3z" fill="#13437a"/><path d="m68 73h3v3h-3z" fill="#194380"/><path d="m68 69h3v3h-3z" fill="#163e7b"/><path d="m68 65h3v3h-3z" fill="none"/><path d="m68 61h3v3h-3z" fill="#2a5799"/><path d="m68 57h3v3h-3z" fill="#3e72b1"/><path d="m68 53h3v3h-3z" fill="#4c87c5"/><path d="m68 49h3v3h-3z" fill="#85b6e2"/><path d="m68 45h3v3h-3z" fill="#81b9e5"/><path d="m68 41h3v3h-3z" fill="#5d9dd4"/><path d="m68 37h3v3h-3z" fill="none"/><path d="m68 33h3v3h-3z" fill="#3970aa"/><path d="m68 29h3v3h-3z" fill="#275693"/><path d="m68 25h3v3h-3z" fill="#18437f"/><path d="m68 20h3v4h-3z" fill="none"/><path d="m68 20h3v4h-3z" fill="#14407a"/><path d="m68 37h3v3h-3z" fill="#4b87c1"/><path d="m72 73h3v3h-3z" fill="#19427f"/><path d="m72 69h3v3h-3z" fill="#153e7b"/><path d="m72 65h3v3h-3z" fill="none"/><path d="m72 61h3v3h-3z" fill="#2d5c9c"/><path d="m72 57h3v3h-3z" fill="#4077b4"/><path d="m72 53h3v3h-3z" fill="#518fca"/><path d="m72 49h3v3h-3z" fill="#b1d5ee"/><path d="m72 45h3v3h-3z" fill="#b5ddf4"/><path d="m72 41h3v3h-3z" fill="#61acdd"/><path d="m72 37h3v3h-3z" fill="none"/><path d="m72 33h3v3h-3z" fill="#4078b3"/><path d="m72 29h3v3h-3z" fill="#2a5996"/><path d="m72 25h3v3h-3z" fill="#1a4381"/><path d="m72 20h3v4h-3z" fill="none"/><path d="m72 20h3v4h-3z" fill="#163e7b"/><path d="m72 37h3v3h-3z" fill="#5191c8"/><path d="m68 65h3v3h-3z" fill="#204a89"/><path d="m64 37h3v3h-3z" fill="#427eb8"/><path d="m72 65h3v3h-3z" fill="#204b8a"/><path d="m76 73h3v3h-3z" fill="#194280"/><path d="m76 69h3v3h-3z" fill="#153e7a"/><path d="m76 65h3v3h-3z" fill="none"/><path d="m76 61h3v3h-3z" fill="#2d5b9c"/><path d="m76 57h3v3h-3z" fill="#4178b5"/><path d="m76 53h3v3h-3z" fill="#5190cb"/><path d="m76 49h3v3h-3z" fill="#64ade0"/><path d="m76 45h3v3h-3z" fill="#b7e0f6"/><path d="m76 41h3v3h-3z" fill="#6db6e2"/><path d="m76 37h3v3h-3z" fill="none"/><path d="m76 33h3v3h-3z" fill="#4079b3"/><path d="m76 29h3v3h-3z" fill="#2c5c99"/><path d="m76 25h3v3h-3z" fill="#194280"/><path d="m76 20h3v4h-3z" fill="none"/><path d="m76 37h3v3h-3z" fill="#76aad5"/><path d="m76 65h3v3h-3z" fill="#204b8a"/><path d="m80 73h4v3h-4z" fill="#194280"/><path d="m80 69h4v3h-4z" fill="#153e7b"/><path d="m80 65h4v3h-4z" fill="none"/><path d="m80 61h4v3h-4z" fill="#2c5899"/><path d="m80 57h4v3h-4z" fill="#3f74b3"/><path d="m80 53h4v3h-4z" fill="#4f8bc8"/><path d="m80 49h4v3h-4z" fill="#5da2da"/><path d="m80 45h4v3h-4z" fill="#65afe3"/><path d="m80 41h4v3h-4z" fill="#5da3d8"/><path d="m80 37h4v3h-4z" fill="none"/><path d="m80 33h4v3h-4z" fill="#3e75b0"/><path d="m80 29h4v3h-4z" fill="#2a5996"/><path d="m80 20h4v4h-4z" fill="none"/><path d="m80 37h4v3h-4z" fill="#4e8bc5"/><path d="m80 65h4v3h-4z" fill="#214b8b"/></g></g><g fill-rule="evenodd"><path d="m43.694065-16.752387c5.137078-.03348 1.879587 31.017222 1.879587 31.017222s35.952525-7.1678051 35.952525 5.078738c0-2.983162-.009-6.343468-.009-6.343468l-29.605364-29.74858z" opacity=".2" stroke-width="1.995053"/><path d="m44.813635-16.709453c5.60792-.03348 2.370157 29.409725 2.370157 29.409725s34.154277-6.6177114 34.154277 5.298795c0-2.902768-.0088-6.172516-.0088-6.172516l-28.577099-28.532198z" opacity=".2" stroke-width="1.941287"/><path d="m46.257197-16.741222c5.654616-.0073 2.261853 27.448842 2.261853 27.448842s32.988522-5.4051998 32.988522 6.06048c0-2.792949-.0085-3.796138-.0085-3.796138l-29.767428-29.732304z" opacity=".2" stroke-width="1.871432"/><path d="m47.578312-16.755847c6.006363 0 2.163461 25.935733 2.163461 25.935733s31.765441-4.6711083 31.765441 6.389377c0-2.694248-.0081-3.586255-.0081-3.586255l-28.791275-28.757298z" fill="url(#l)" stroke-width="1.805296"/></g><path d="m6.5000025 38.571429h74.9999995v1.428571h-74.9999995z" opacity=".3"/><path d="m6.5000025 37.142858h74.9999995v1.428571h-74.9999995z" fill="#fff" opacity=".1"/></g><g fill="#fff" transform="matrix(.59496449 0 0 .59496449 3.329265 1.350845)"><path d="m34.742805 79.024567h2.819825v10.935058h-2.819825z"/><path d="m49.010384 89.359039q-.776368.402832-1.618653.60791-.842285.205079-1.757812.205079-2.731934 0-4.328614-1.523438-1.596679-1.530762-1.596679-4.145508 0-2.62207 1.596679-4.145508 1.59668-1.530761 4.328614-1.530761.915527 0 1.757812.205078.842285.205078 1.618653.60791v2.263184q-.783692-.534668-1.545411-.783692-.761718-.249023-1.604003-.249023-1.50879 0-2.373047.966797-.864258.966797-.864258 2.666015 0 1.691895.864258 2.658692.864257.966797 2.373047.966797.842285 0 1.604003-.249024.761719-.249023 1.545411-.783691z"/><path d="m56.349251 80.87027q-1.289063 0-1.999512.952148-.710449.952149-.710449 2.680664 0 1.721192.710449 2.67334.710449.952149 1.999512.952149 1.296387 0 2.006836-.952149.710449-.952148.710449-2.67334 0-1.728515-.710449-2.680664-.710449-.952148-2.006836-.952148zm0-2.043457q2.636719 0 4.130859 1.508789 1.494141 1.508789 1.494141 4.16748 0 2.651367-1.494141 4.160157-1.49414 1.508789-4.130859 1.508789-2.629395 0-4.13086-1.508789-1.49414-1.50879-1.49414-4.160157 0-2.658691 1.49414-4.16748 1.501465-1.508789 4.13086-1.508789z"/></g></svg>