<svg height="64" width="64" xmlns="http://www.w3.org/2000/svg" xmlns:xlink="http://www.w3.org/1999/xlink"><linearGradient id="a"><stop offset="0" stop-color="#fff"/><stop offset="1" stop-color="#fff" stop-opacity="0"/></linearGradient><linearGradient id="b" gradientTransform="matrix(1.0058652 0 0 .994169 100 0)" gradientUnits="userSpaceOnUse" x1="45.447727" x2="45.447727" y1="92.539597" y2="7.01654"><stop offset="0"/><stop offset="1" stop-opacity=".588235"/></linearGradient><linearGradient id="c" gradientTransform="matrix(.88095236 0 0 .88095242 102.24686 -91.378936)" gradientUnits="userSpaceOnUse" x1="32.251034" x2="32.251034" xlink:href="#b" y1="6.131708" y2="90.238609"/><linearGradient id="d" gradientTransform="matrix(.85714286 0 0 .85714286 103.38971 -90.236078)" gradientUnits="userSpaceOnUse" x1="32.251034" x2="32.251034" xlink:href="#b" y1="6.131708" y2="90.238609"/><linearGradient id="e" gradientTransform="matrix(0 -1.0119049 .89285716 0 1.14286 64.285716)" gradientUnits="userSpaceOnUse" x1="7.3709" x2="23.76619" y1="51.470146" y2="51.433136"><stop offset="0" stop-color="#185185"/><stop offset="1" stop-color="#286699"/></linearGradient><linearGradient id="f" gradientTransform="matrix(.88966473 0 0 -.88897608 101.82866 91.764071)" gradientUnits="userSpaceOnUse" x1="32.251034" x2="32.251034" xlink:href="#b" y1="6.131708" y2="90.238609"/><linearGradient id="g" gradientTransform="matrix(.88668581 0 0 -.88621557 101.97166 91.631566)" gradientUnits="userSpaceOnUse" x1="32.251034" x2="32.251034" xlink:href="#b" y1="6.131708" y2="90.238609"/><linearGradient id="h" gradientTransform="matrix(.88419911 0 0 -.88396282 102.09102 91.52343)" gradientUnits="userSpaceOnUse" x1="32.251034" x2="32.251034" xlink:href="#b" y1="6.131708" y2="90.238609"/><linearGradient id="i" gradientUnits="userSpaceOnUse" x1="78.04289384" x2="78.04289384" y1="-43.8124403" y2="-113.82267585329"><stop offset="0" stop-color="#347ba6"/><stop offset="1" stop-color="#4fa6c9"/></linearGradient><radialGradient id="j" cx="48" cy="90.171875" gradientTransform="matrix(1.0333151 0 0 .89285716 -5.599123 -22.296321)" gradientUnits="userSpaceOnUse" r="42" xlink:href="#a"/><linearGradient id="k" gradientTransform="matrix(.89285774 0 0 .89652598 1.142854 -22.164537)" gradientUnits="userSpaceOnUse" x1="36.357143" x2="36.357143" xlink:href="#a" y1="6" y2="63.893143"/><linearGradient id="l" gradientTransform="matrix(2.4467882 0 0 2.4908279 -19.058972 -21.607478)" gradientUnits="userSpaceOnUse" x1="32.891998" x2="36.358002" y1="8.059" y2="5.4565"><stop offset="0" stop-color="#6bc2e2"/><stop offset="1" stop-color="#3a90bb"/></linearGradient><radialGradient id="m" cx="416.79999" cy="399.14001" gradientTransform="matrix(-.68434476 -.11784438 .05201977 -.30208009 320.90908 232.38496)" gradientUnits="userSpaceOnUse" r="20.131001"><stop offset="0" stop-color="#8ae234"/><stop offset="1" stop-color="#4db07d" stop-opacity=".88235"/></radialGradient><radialGradient id="n" cx="416.64999" cy="392.07999" gradientTransform="matrix(.50495097 -.55051743 .57013949 .52295392 -381.30372 83.382266)" gradientUnits="userSpaceOnUse" r="27.077"><stop offset="0" stop-color="#fce94f"/><stop offset=".5" stop-color="#66d09a"/><stop offset="1" stop-color="#66c6d0"/></radialGradient><linearGradient id="o" gradientUnits="userSpaceOnUse" x1="58.6059632969" x2="49.99575320449" y1="49.1589931942" y2="36.2697023953"><stop offset="0" stop-color="#bcae3e"/><stop offset=".5" stop-color="#3b9a6a"/><stop offset="1" stop-color="#3d8891"/></linearGradient><linearGradient id="p" gradientTransform="matrix(.4428657 -.07397026 .07397026 .4428657 -162.50579 -89.255584)" gradientUnits="userSpaceOnUse" x1="375.63" x2="393.42999" y1="311.79001" y2="374.92001"><stop offset="0" stop-color="#204a87"/><stop offset="1" stop-color="#97bcd4"/></linearGradient><linearGradient id="q" gradientUnits="userSpaceOnUse" x1="22.1489502611" x2="36.20245801129" y1="20.75783509558" y2="48.7368674749"><stop offset="0" stop-color="#304456"/><stop offset="1" stop-color="#6394be"/></linearGradient><g transform="matrix(.7 0 0 .7 1.2 18)"><g transform="matrix(1.0714286 0 0 1.0714286 -110.85633 -31.885595)"><path d="m114.1583 89.09322c-4.78901 0-8.71691-3.971039-8.71691-8.812629v-62.374743c0-4.841588 3.9279-8.812628 8.71691-8.812628h38.74855l30.7169 30.812628v40.374743c0 4.84159-3.9279 8.812629-8.7169 8.812629z" fill="url(#f)" opacity=".08"/><path d="m114.2634 88.09322c-4.30575 0-7.82165-3.55537-7.82165-7.909474v-62.181052c0-4.354104 3.5159-7.909474 7.82165-7.909474h38.36008l30 30v40.090526c0 4.354104-3.51589 7.909474-7.82165 7.909474z" fill="url(#g)" opacity=".1"/><path d="m114.35075 87.09322c-3.80788 0-6.90909-3.13685-6.90909-6.98851v-62.02298c0-3.851661 3.10121-6.98851 6.90909-6.98851h38.27273l29 29v40.01149c0 3.85166-3.1012 6.98851-6.90909 6.98851z" fill="url(#h)" opacity=".2"/><path d="m114.46511-86.093224h60.13512c3.33689 0 6.02326 2.717977 6.02326 6.094118v38.905886l-29.00001 28.999996h-37.15837c-3.33688 0-6.02325-2.717976-6.02325-6.094117v-61.811765c0-3.376141 2.68637-6.094118 6.02325-6.094118z" fill="url(#c)" opacity=".3" transform="scale(1 -1)"/><path d="m114.58491-85.093224h59.89572c2.84914 0 5.07622 2.294494 5.14286 5.142858v38.857146l-28.00001 27.999996h-37.03857c-2.84914 0-5.14285-2.293714-5.14285-5.142857v-61.714285c0-2.849143 2.29371-5.142858 5.14285-5.142858z" fill="url(#d)" opacity=".45" transform="scale(1 -1)"/></g><path d="m48.042892-113.81244h37.999998l27 27v38.000001c0 2.77-2.23 5-5 5h-59.999998c-2.77 0-5-2.23-5-5v-60.000001c0-2.77 2.23-5 5-5z" fill="url(#i)" transform="matrix(1.0714286 0 0 1.0714286 -39.617384 105.15619)"/><path d="m11.857146-16.785388c-2.9678591 0-5.357146 2.3991-5.357146 5.379161v1.7930468 58.8209082c4.131706 8.719131 1.0697433 6.202743.8928611.896524v-58.8209036-1.7930574c0-2.493996 1.9804941-4.482632 4.4642889-4.482632h1.785715 37.142887 1.785718l28.035719 28.054062v1.793057 35.249474c-2.513132 6.59406.892811 7.468674.892811-.896526v-35.249476-1.793057l-28.928573-28.950581z" fill="url(#k)" opacity=".3"/><path d="m6.5000025 52.142855c0 3.36357 2.3892855 6.071428 5.3571425 6.071428h64.285714c2.967857 0 5.357143-2.707858 5.357143-6.071428v-13.571426h-74.9999995z" fill="url(#e)"/><path d="m11.857145 58.214283c-2.967857 0-5.3571425-2.399103-5.3571425-5.379155v-1.793053c.0365465-10.900962.8928589-11.133427.8928589-.896578v1.793052c0 2.493998 1.9804926 4.48263 4.4642856 4.48263h1.785716 60.714274 1.785718c2.483796 0 4.464289-1.988632 4.464289-4.48263v-1.793053c.08764-12.153031.892875-7.994396.892875.896527v1.793052c-.000021 2.980105-2.389307 5.379208-5.357164 5.379208z" fill="url(#j)" opacity=".2"/><g transform="matrix(.93167699 0 0 .93167699 .149069 -25.279501)"><g fill-rule="evenodd" stroke-width="1.445636"><path d="m40.760316 57.865839c2.873541 3.688501 6.566272 4.256149 11.053146 4.20179-.307798.710488-.615576 1.420955-.92336 2.131441.859846-1.027077 1.500823-2.142999 2.922499-2.000169-.879551 1.265614-1.023974 2.084605-1.356816 3.018119 1.701379-1.535366 4.368705-2.062465 6.520398-2.677919-.572381-.873628-1.442285-1.504371-2.01464-2.377965.99566-1.697826 1.420388-3.998262 1.502307-6.035822-.385175 1.061494-.950557 1.911603-1.484659 2.659948 1.089072-2.704668.262612-4.49437-.662461-6.751465.101073 1.068628.20193 2.137392.302888 3.206017-.8585 3.147622-1.843377 3.521375-3.739568 5.434636-3.129512.777781-7.924981 1.480266-12.119632-.808406z" fill="url(#m)" stroke="#4b8748"/><path d="m28.403018 41.208261c.208058 8.363699 7.355398 13.317004 13.979878 17.168178 3.745551 1.405067 7.122171 1.020564 10.977005.547734 2.38144-4.871225 1.386024-8.902037-.70354-13.716207-1.302113-1.878031-1.627252-3.830736-1.914333-6.030217-1.502381 1.401288-.716395 3.703128-.751843 5.681719-.898413-3.361198-2.982448-6.146446-4.802215-9.062977-1.352517-5.080359-6.37545-8.188656-10.374075-11.193841 6.561263 10.252247 8.120234 10.775963 5.321871 23.035711-6.030234 2.187545-9.87794-.860155-11.732986-6.431143z" fill="url(#n)" stroke="url(#o)"/><path d="m22.296653 34.517863c1.497253 5.700998 5.571673 10.344001 11.054876 12.554085 2.455072.520199 4.901476 1.02106 6.876794.438863-.467906-3.625458.31808-7.086699.630774-11.051991.161523-3.417862.336838-6.449455-1.672672-9.252053-3.093658-4.174438-7.100964-5.745929-11.763628-5.450448-1.135304 1.584617-2.272541 2.908625-3.136061 4.271377-1.436007 2.2681-2.544323 6.063373-.73824 8.509393 1.776492 1.661004 4.104258 3.416334 5.480498 3.620268-2.087303.142219-3.499978-.920169-5.204092-1.965489-.508904-.557555-1.017786-1.115104-1.526689-1.672643z" fill="url(#p)" stroke="url(#q)"/></g><path d="m66.799114 66.360404c-3.042963-1.249463-10.074349-4.724736-12.033665-5.947731-1.464453-.914046-2.34636-1.132856-3.799131-.942591-1.329427.174188-1.539027.132486-.704913-.140107.652892-.213357 1.169417-.493518 1.147857-.622572-.021562-.129009-1.316593-1.281891-2.877784-2.561889-10.113668-8.290253-17.735064-19.354181-19.870747-28.843351-.406713-1.808963-.54742-2.706988-.314188-1.994974 3.337103 10.150105 6.970275 16.363832 13.774991 23.560021 4.015002 4.245921 10.32338 9.11097 11.168594 8.613666.401579-.2363.550439-.123393.455013.345335-.173556.85224 4.524061 3.706023 10.225657 6.211973 2.199289.966673 4.164394 2.039117 4.366978 2.382996.45928.780424.511984.782474-1.538645-.05967z" fill="#2a6a28" stroke-width="1.927514"/></g><g fill-rule="evenodd"><path d="m43.694065-16.752387c5.137078-.03348 1.879587 31.017222 1.879587 31.017222s35.952525-7.1678051 35.952525 5.078738c0-2.983162-.009-6.343468-.009-6.343468l-29.605364-29.74858z" opacity=".2" stroke-width="1.995053"/><path d="m44.813635-16.709453c5.60792-.03348 2.370157 29.409725 2.370157 29.409725s34.154277-6.6177114 34.154277 5.298795c0-2.902768-.0088-6.172516-.0088-6.172516l-28.577099-28.532198z" opacity=".2" stroke-width="1.941287"/><path d="m46.257197-16.741222c5.654616-.0073 2.261853 27.448842 2.261853 27.448842s32.988522-5.4051998 32.988522 6.06048c0-2.792949-.0085-3.796138-.0085-3.796138l-29.767428-29.732304z" opacity=".2" stroke-width="1.871432"/><path d="m47.578312-16.755847c6.006363 0 2.163461 25.935733 2.163461 25.935733s31.765441-4.6711083 31.765441 6.389377c0-2.694248-.0081-3.586255-.0081-3.586255l-28.791275-28.757298z" fill="url(#l)" stroke-width="1.805296"/></g><path d="m6.5000025 38.571429h74.9999995v1.428571h-74.9999995z" opacity=".3"/><path d="m6.5000025 37.142858h74.9999995v1.428571h-74.9999995z" fill="#fff" opacity=".1"/><path d="m151.74191 16.922094v17.9375l8.09375-17.9375zm9.90625 0 8.09375 17.9375v-17.9375zm-.90625 7.03125-3.03125 7h2.92858l1.71875 3.96875h3.22767l-2.375-5.28125-.0625-.125z" fill-opacity=".313725" opacity=".5" transform="matrix(1.1111111 0 0 1.1111111 -156.74498 -35.58804)"/><g fill="#fff" transform="matrix(.84994926 0 0 .84994926 1.736992 -23.702437)"><path d="m32.916428 78.928009h4.680175q2.087403 0 3.200684.930176 1.120605.922851 1.120605 2.636719 0 1.721191-1.120605 2.651367-1.113281.922851-3.200684.922851h-1.860351v3.793946h-2.819824zm2.819824 2.043457v3.054199h1.560058q.820313 0 1.26709-.395508.446778-.402832.446778-1.135253 0-.732422-.446778-1.12793-.446777-.395508-1.26709-.395508z"/><path d="m51.512619 79.272247v2.314453q-.900879-.402832-1.757812-.60791-.856934-.205078-1.618653-.205078-1.010742 0-1.49414.27832-.483399.278321-.483399.864258 0 .439453.322266.688477.32959.241699 1.186523.41748l1.201172.2417q1.823731.36621 2.592773 1.113281.769043.74707.769043 2.124023 0 1.809082-1.07666 2.695313-1.069336.878906-3.273925.878906-1.04004 0-2.087403-.197754-1.047363-.197754-2.094726-.585937v-2.380372q1.047363.556641 2.021484.842286.981445.27832 1.889648.27832.922852 0 1.413575-.307617.490722-.307617.490722-.878906 0-.512696-.336914-.791016-.32959-.27832-1.325683-.498047l-1.091309-.241699q-1.640625-.351563-2.402344-1.120606-.754394-.769043-.754394-2.072754 0-1.6333 1.054687-2.512207 1.054688-.878906 3.032227-.878906.900879 0 1.853027.13916.952149.131836 1.970215.402832z"/><path d="m57.533127 81.059357v6.672363h1.010742q1.728516 0 2.636719-.856934.915527-.856933.915527-2.490234 0-1.625977-.908203-2.475586-.908203-.849609-2.644043-.849609zm-2.819824-2.131348h2.973632q2.490235 0 3.706055.358887 1.223145.351562 2.094727 1.201172.769043.739746 1.142578 1.706543.373535.966796.373535 2.189941 0 1.237793-.373535 2.211914-.373535.966797-1.142578 1.706543-.878907.849609-2.109375 1.208496-1.230469.351563-3.691407.351563h-2.973632z"/></g></g></svg>