<svg height="64" width="64" xmlns="http://www.w3.org/2000/svg" xmlns:xlink="http://www.w3.org/1999/xlink"><linearGradient id="a"><stop offset="0" stop-color="#fff"/><stop offset="1" stop-color="#fff" stop-opacity="0"/></linearGradient><linearGradient id="b" gradientTransform="matrix(1.0058652 0 0 .994169 100 0)" gradientUnits="userSpaceOnUse" x1="45.447727" x2="45.447727" y1="92.539597" y2="7.01654"><stop offset="0"/><stop offset="1" stop-opacity=".588235"/></linearGradient><linearGradient id="c" gradientTransform="matrix(.88095236 0 0 .88095242 102.24686 -91.378936)" gradientUnits="userSpaceOnUse" x1="32.251034" x2="32.251034" xlink:href="#b" y1="6.131708" y2="90.238609"/><linearGradient id="d" gradientTransform="matrix(.85714286 0 0 .85714286 103.38971 -90.236078)" gradientUnits="userSpaceOnUse" x1="32.251034" x2="32.251034" xlink:href="#b" y1="6.131708" y2="90.238609"/><linearGradient id="e" gradientTransform="matrix(0 -1.0119049 .89285716 0 1.14286 64.285716)" gradientUnits="userSpaceOnUse" x1="7.3709" x2="23.76619" y1="51.470146" y2="51.433136"><stop offset="0" stop-color="#793600"/><stop offset="1" stop-color="#884b00"/></linearGradient><linearGradient id="f" gradientTransform="matrix(.88966473 0 0 -.88897608 101.82866 91.764071)" gradientUnits="userSpaceOnUse" x1="32.251034" x2="32.251034" xlink:href="#b" y1="6.131708" y2="90.238609"/><linearGradient id="g" gradientTransform="matrix(.88668581 0 0 -.88621557 101.97166 91.631566)" gradientUnits="userSpaceOnUse" x1="32.251034" x2="32.251034" xlink:href="#b" y1="6.131708" y2="90.238609"/><linearGradient id="h" gradientTransform="matrix(.88419911 0 0 -.88396282 102.09102 91.52343)" gradientUnits="userSpaceOnUse" x1="32.251034" x2="32.251034" xlink:href="#b" y1="6.131708" y2="90.238609"/><linearGradient id="i" gradientUnits="userSpaceOnUse" x1="78.04289384" x2="78.04289384" y1="-43.8124403" y2="-113.82267585329"><stop offset="0" stop-color="#ac5900"/><stop offset="1" stop-color="#c66c0a"/></linearGradient><radialGradient id="j" cx="48" cy="90.171875" gradientTransform="matrix(1.0333151 0 0 .89285716 -5.599123 -22.296321)" gradientUnits="userSpaceOnUse" r="42" xlink:href="#a"/><linearGradient id="k" gradientTransform="matrix(.83333387 0 0 .83675756 38.042891 -118.83298)" gradientUnits="userSpaceOnUse" x1="36.357143" x2="36.357143" xlink:href="#a" y1="6" y2="63.893143"/><linearGradient id="l" gradientTransform="matrix(2.4467882 0 0 2.4908279 -19.058972 -21.607478)" gradientUnits="userSpaceOnUse" x1="32.891998" x2="36.358002" y1="8.059" y2="5.4565"><stop offset="0" stop-color="#e38915"/><stop offset="1" stop-color="#bd5f00"/></linearGradient><linearGradient id="m" gradientTransform="matrix(.75234425 0 0 .64734341 -5.743784 -16.073194)" gradientUnits="userSpaceOnUse" x1="61.40464" x2="34.5369" y1="60.062107" y2="44.550011"><stop offset="0" stop-color="#f8ca00" stop-opacity=".313726"/><stop offset="1" stop-color="#eee300" stop-opacity=".156863"/></linearGradient><linearGradient id="n" gradientTransform="matrix(.75234425 0 0 .64734341 -5.743784 -16.073194)" gradientUnits="userSpaceOnUse" x1="48.810036" x2="48.810036" y1="78.173363" y2="18.129204"><stop offset="0" stop-color="#ffb400"/><stop offset="1" stop-color="#ffb400"/></linearGradient><g transform="matrix(.7 0 0 .7 1.2 18)"><g transform="matrix(1.0714286 0 0 1.0714286 -110.85633 -31.885595)"><path d="m114.1583 89.09322c-4.78901 0-8.71691-3.971039-8.71691-8.812629v-62.374743c0-4.841588 3.9279-8.812628 8.71691-8.812628h38.74855l30.7169 30.812628v40.374743c0 4.84159-3.9279 8.812629-8.7169 8.812629z" fill="url(#f)" opacity=".08"/><path d="m114.2634 88.09322c-4.30575 0-7.82165-3.55537-7.82165-7.909474v-62.181052c0-4.354104 3.5159-7.909474 7.82165-7.909474h38.36008l30 30v40.090526c0 4.354104-3.51589 7.909474-7.82165 7.909474z" fill="url(#g)" opacity=".1"/><path d="m114.35075 87.09322c-3.80788 0-6.90909-3.13685-6.90909-6.98851v-62.02298c0-3.851661 3.10121-6.98851 6.90909-6.98851h38.27273l29 29v40.01149c0 3.85166-3.1012 6.98851-6.90909 6.98851z" fill="url(#h)" opacity=".2"/><path d="m114.46511-86.093224h60.13512c3.33689 0 6.02326 2.717977 6.02326 6.094118v38.905886l-29.00001 28.999996h-37.15837c-3.33688 0-6.02325-2.717976-6.02325-6.094117v-61.811765c0-3.376141 2.68637-6.094118 6.02325-6.094118z" fill="url(#c)" opacity=".3" transform="scale(1 -1)"/><path d="m114.58491-85.093224h59.89572c2.84914 0 5.07622 2.294494 5.14286 5.142858v38.857146l-28.00001 27.999996h-37.03857c-2.84914 0-5.14285-2.293714-5.14285-5.142857v-61.714285c0-2.849143 2.29371-5.142858 5.14285-5.142858z" fill="url(#d)" opacity=".45" transform="scale(1 -1)"/></g><g transform="matrix(1.0714286 0 0 1.0714286 -39.617384 105.15619)"><path d="m48.042892-113.81244h37.999998l27 27v38.000001c0 2.77-2.23 5-5 5h-59.999998c-2.77 0-5-2.23-5-5v-60.000001c0-2.77 2.23-5 5-5z" fill="url(#i)"/><path d="m48.042897-113.81244c-2.770002 0-5.000003 2.23916-5.000003 5.02055v1.67351 54.899511c3.856259 8.137855.998427 5.789227.833337.836756v-54.899507-1.67352c0-2.32773 1.848461-4.18379 4.166669-4.18379h1.666668 34.666692 1.66667l26.16667 26.18379v1.67352 32.899507c-2.34559 6.154455.83329 6.970762.83329-.836758v-32.899509-1.67352l-27-27.02054z" fill="url(#k)" opacity=".3"/></g><path d="m6.5000025 52.142855c0 3.36357 2.3892855 6.071428 5.3571425 6.071428h64.285714c2.967857 0 5.357143-2.707858 5.357143-6.071428v-13.571426h-74.9999995z" fill="url(#e)"/><path d="m11.857145 58.214283c-2.967857 0-5.3571425-2.399103-5.3571425-5.379155v-1.793053c.0365465-10.900962.8928589-11.133427.8928589-.896578v1.793052c0 2.493998 1.9804926 4.48263 4.4642856 4.48263h1.785716 60.714274 1.785718c2.483796 0 4.464289-1.988632 4.464289-4.48263v-1.793053c.08764-12.153031.892875-7.994396.892875.896527v1.793052c-.000021 2.980105-2.389307 5.379208-5.357164 5.379208z" fill="url(#j)" opacity=".2"/><g fill-rule="evenodd"><path d="m43.694065-16.752387c5.137078-.03348 1.879587 31.017222 1.879587 31.017222s35.952525-7.1678051 35.952525 5.078738c0-2.983162-.009-6.343468-.009-6.343468l-29.605364-29.74858z" opacity=".2" stroke-width="1.995053"/><path d="m44.813635-16.709453c5.60792-.03348 2.370157 29.409725 2.370157 29.409725s34.154277-6.6177114 34.154277 5.298795c0-2.902768-.0088-6.172516-.0088-6.172516l-28.577099-28.532198z" opacity=".2" stroke-width="1.941287"/><path d="m46.257197-16.741222c5.654616-.0073 2.261853 27.448842 2.261853 27.448842s32.988522-5.4051998 32.988522 6.06048c0-2.792949-.0085-3.796138-.0085-3.796138l-29.767428-29.732304z" opacity=".2" stroke-width="1.871432"/><path d="m47.578312-16.755847c6.006363 0 2.163461 25.935733 2.163461 25.935733s31.765441-4.6711083 31.765441 6.389377c0-2.694248-.0081-3.586255-.0081-3.586255l-28.791275-28.757298z" fill="url(#l)" stroke-width="1.805296"/></g><path d="m6.5000025 38.571429h74.9999995v1.428571h-74.9999995z" opacity=".3"/><path d="m6.5000025 37.142858h74.9999995v1.428571h-74.9999995z" fill="#fff" opacity=".1"/><path d="m39.515441-.83309892c-17.936106-10.57450108-24.931025 8.33021322-12.040739 12.32537592 21.822932 6.763708 12.090512 24.896355-3.384645 22.400182" fill="url(#m)" stroke="url(#n)" stroke-width="1.046808"/><path d="m13.926222 5.3721804-1.354793 3.0195123 3.509283 1.1657107.541918-1.2078037 28.074282 9.3256953-.541916 1.207804 3.509281 1.165713 1.354793-3.019513-3.509282-1.165711-.541917 1.207805-28.074282-9.3256948.541918-1.2078058zm.430897.8370442 2.105572.6994281-.812876 1.8117072-2.105571-.6994274zm31.583567 10.4914084 2.105569.699426-.812875 1.811708-2.10557-.699427z" fill="#fff"/><path d="m37.892193-3.126327h3.761722v3.236717h-3.761722z" fill="#ffb400"/><path d="m28.111706 11.115232h3.761722v3.236717h-3.761722z" fill="#ffb400"/><path d="m21.340609 32.47757h3.761722v3.236717h-3.761722z" fill="#ffb400"/><g fill="#fff" transform="matrix(.95620937 0 0 .95619298 55.879705 10.801149)"><path d="m-24.375704 34.073893h6.764322v1.894532h-4.257812v1.809895h4.003906v1.894532h-4.003906v2.226562h4.401041v1.894531h-6.907551z"/><path d="m-15.261121 34.073893h4.160156q1.8554684 0 2.8450517.826823.9960937.820313.9960937 2.34375 0 1.529948-.9960937 2.356771-.9895833.820313-2.8450517.820313h-1.653646v3.372395h-2.50651zm2.50651 1.816407v2.714843h1.386719q.729166 0 1.126302-.351562.3971351-.358073.3971351-1.009115 0-.651041-.3971351-1.002604-.397136-.351562-1.126302-.351562z"/><path d="m1.2688253 34.379883v2.057292q-.80078119-.358073-1.56249992-.540365-.76171878-.182292-1.43880208-.182292-.8984374 0-1.3281249.247396-.4296875.247396-.4296875.768229 0 .390625.2864583.61198.2929687.214843 1.0546875.371093l1.0677083.214844q1.62109369.325521 2.3046874.989583.6835938.664063.6835938 1.888021 0 1.608073-.95703127 2.395833-.95052081.78125-2.91015613.78125-.9244792 0-1.8554688-.175781-.9309895-.175781-1.8619791-.520833v-2.115886q.9309896.494792 1.796875.748698.8723958.247396 1.6796874.247396.8203125 0 1.25651043-.273437.4361979-.273438.4361979-.78125 0-.455729-.29947916-.703125-.29296877-.247396-1.17838537-.442709l-.9700521-.214843q-1.4583333-.3125-2.1354166-.996094-.6705729-.683594-.6705729-1.842448 0-1.451823.9375-2.233073.9375-.78125 2.6953124-.78125.8007813 0 1.6471354.123698.84635415.117188 1.751302.358073z"/></g><path d="m151.74191 16.922094v17.9375l8.09375-17.9375zm9.90625 0 8.09375 17.9375v-17.9375zm-.90625 7.03125-3.03125 7h2.92858l1.71875 3.96875h3.22767l-2.375-5.28125-.0625-.125z" fill-opacity=".313725" opacity=".5" transform="matrix(1.1111111 0 0 1.1111111 -157.45926 -35.588041)"/></g></svg>