<svg height="64" width="64" xmlns="http://www.w3.org/2000/svg" xmlns:xlink="http://www.w3.org/1999/xlink"><linearGradient id="a"><stop offset="0" stop-color="#fff"/><stop offset="1" stop-color="#fff" stop-opacity="0"/></linearGradient><linearGradient id="b" gradientTransform="matrix(1.0058652 0 0 .994169 100 0)" gradientUnits="userSpaceOnUse" x1="45.447727" x2="45.447727" y1="92.539597" y2="7.01654"><stop offset="0"/><stop offset="1" stop-opacity=".588235"/></linearGradient><linearGradient id="c" gradientTransform="matrix(.88095236 0 0 .88095242 102.24686 -91.378936)" gradientUnits="userSpaceOnUse" x1="32.251034" x2="32.251034" xlink:href="#b" y1="6.131708" y2="90.238609"/><linearGradient id="d" gradientTransform="matrix(.85714286 0 0 .85714286 103.38971 -90.236078)" gradientUnits="userSpaceOnUse" x1="32.251034" x2="32.251034" xlink:href="#b" y1="6.131708" y2="90.238609"/><linearGradient id="e" gradientTransform="matrix(0 -1.0119049 .89285716 0 1.14286 64.285716)" gradientUnits="userSpaceOnUse" x1="7.3709" x2="23.76619" y1="51.470146" y2="51.433136"><stop offset="0" stop-color="#3e0e78"/><stop offset="1" stop-color="#591f9a"/></linearGradient><linearGradient id="f" gradientTransform="matrix(.88966473 0 0 -.88897608 101.82866 91.764071)" gradientUnits="userSpaceOnUse" x1="32.251034" x2="32.251034" xlink:href="#b" y1="6.131708" y2="90.238609"/><linearGradient id="g" gradientTransform="matrix(.88668581 0 0 -.88621557 101.97166 91.631566)" gradientUnits="userSpaceOnUse" x1="32.251034" x2="32.251034" xlink:href="#b" y1="6.131708" y2="90.238609"/><linearGradient id="h" gradientTransform="matrix(.88419911 0 0 -.88396282 102.09102 91.52343)" gradientUnits="userSpaceOnUse" x1="32.251034" x2="32.251034" xlink:href="#b" y1="6.131708" y2="90.238609"/><linearGradient id="i" gradientUnits="userSpaceOnUse" x1="78.04289384" x2="78.04289384" y1="-43.8124403" y2="-113.82267585329"><stop offset="0" stop-color="#7831a8"/><stop offset="1" stop-color="#935fc4"/></linearGradient><radialGradient id="j" cx="48" cy="90.171875" gradientTransform="matrix(1.0333151 0 0 .89285716 -5.599123 -22.296321)" gradientUnits="userSpaceOnUse" r="42" xlink:href="#a"/><linearGradient id="k" gradientTransform="matrix(.83333387 0 0 .83675756 38.042891 -118.83298)" gradientUnits="userSpaceOnUse" x1="36.357143" x2="36.357143" xlink:href="#a" y1="6" y2="63.893143"/><linearGradient id="l" gradientTransform="matrix(2.4467882 0 0 2.4908279 -19.058972 -21.607478)" gradientUnits="userSpaceOnUse" x1="32.891998" x2="36.358002" y1="8.059" y2="5.4565"><stop offset="0" stop-color="#ae4be3"/><stop offset="1" stop-color="#8234c8"/></linearGradient><filter id="m" height="1.336655" width="1.063123" x="-.031561" y="-.168327"><feGaussianBlur stdDeviation=".42081834"/></filter><linearGradient id="n" gradientUnits="userSpaceOnUse" x1=".5" x2="15.5" y1="12" y2="12"><stop offset="0" stop-color="#729fcf"/><stop offset="1" stop-color="#204a87"/></linearGradient><linearGradient id="o" gradientTransform="matrix(1.9333311 0 0 1.8571429 -69.466666 6.7143)" gradientUnits="userSpaceOnUse" x1=".5" x2="15.5" y1="12" y2="12"><stop offset="0" stop-color="#e1b6ff"/><stop offset="1" stop-color="#ca87ff"/></linearGradient><linearGradient id="p" gradientUnits="userSpaceOnUse" x1="-68.03125" x2="-39.96875" y1="24" y2="24"><stop offset="0" stop-color="#ffd3ff" stop-opacity=".6"/><stop offset="1" stop-color="#fff" stop-opacity=".207843"/></linearGradient><linearGradient id="q" gradientUnits="userSpaceOnUse" x1="-69" x2="-54" y1="29" y2="29"><stop offset="0" stop-color="#ffd3ff" stop-opacity=".8"/><stop offset="1" stop-color="#fff" stop-opacity="0"/></linearGradient><linearGradient id="r" gradientUnits="userSpaceOnUse" x1=".5" x2="15.5" y1="12" y2="12"><stop offset="0" stop-color="#d58dff"/><stop offset="1" stop-color="#b168eb"/></linearGradient><g transform="matrix(.7 0 0 .7 1.2 18)"><g transform="matrix(1.0714286 0 0 1.0714286 -110.85633 -31.885595)"><path d="m114.1583 89.09322c-4.78901 0-8.71691-3.971039-8.71691-8.812629v-62.374743c0-4.841588 3.9279-8.812628 8.71691-8.812628h38.74855l30.7169 30.812628v40.374743c0 4.84159-3.9279 8.812629-8.7169 8.812629z" fill="url(#f)" opacity=".08"/><path d="m114.2634 88.09322c-4.30575 0-7.82165-3.55537-7.82165-7.909474v-62.181052c0-4.354104 3.5159-7.909474 7.82165-7.909474h38.36008l30 30v40.090526c0 4.354104-3.51589 7.909474-7.82165 7.909474z" fill="url(#g)" opacity=".1"/><path d="m114.35075 87.09322c-3.80788 0-6.90909-3.13685-6.90909-6.98851v-62.02298c0-3.851661 3.10121-6.98851 6.90909-6.98851h38.27273l29 29v40.01149c0 3.85166-3.1012 6.98851-6.90909 6.98851z" fill="url(#h)" opacity=".2"/><path d="m114.46511-86.093224h60.13512c3.33689 0 6.02326 2.717977 6.02326 6.094118v38.905886l-29.00001 28.999996h-37.15837c-3.33688 0-6.02325-2.717976-6.02325-6.094117v-61.811765c0-3.376141 2.68637-6.094118 6.02325-6.094118z" fill="url(#c)" opacity=".3" transform="scale(1 -1)"/><path d="m114.58491-85.093224h59.89572c2.84914 0 5.07622 2.294494 5.14286 5.142858v38.857146l-28.00001 27.999996h-37.03857c-2.84914 0-5.14285-2.293714-5.14285-5.142857v-61.714285c0-2.849143 2.29371-5.142858 5.14285-5.142858z" fill="url(#d)" opacity=".45" transform="scale(1 -1)"/></g><g transform="matrix(1.0714286 0 0 1.0714286 -39.617384 105.15619)"><path d="m48.042892-113.81244h37.999998l27 27v38.000001c0 2.77-2.23 5-5 5h-59.999998c-2.77 0-5-2.23-5-5v-60.000001c0-2.77 2.23-5 5-5z" fill="url(#i)"/><path d="m48.042897-113.81244c-2.770002 0-5.000003 2.23916-5.000003 5.02055v1.67351 54.899511c3.856259 8.137855.998427 5.789227.833337.836756v-54.899507-1.67352c0-2.32773 1.848461-4.18379 4.166669-4.18379h1.666668 34.666692 1.66667l26.16667 26.18379v1.67352 32.899507c-2.34559 6.154455.83329 6.970762.83329-.836758v-32.899509-1.67352l-27-27.02054z" fill="url(#k)" opacity=".3"/></g><path d="m6.5000025 52.142855c0 3.36357 2.3892855 6.071428 5.3571425 6.071428h64.285714c2.967857 0 5.357143-2.707858 5.357143-6.071428v-13.571426h-74.9999995z" fill="url(#e)"/><path d="m11.857145 58.214283c-2.967857 0-5.3571425-2.399103-5.3571425-5.379155v-1.793053c.0365465-10.900962.8928589-11.133427.8928589-.896578v1.793052c0 2.493998 1.9804926 4.48263 4.4642856 4.48263h1.785716 60.714274 1.785718c2.483796 0 4.464289-1.988632 4.464289-4.48263v-1.793053c.08764-12.153031.892875-7.994396.892875.896527v1.793052c-.000021 2.980105-2.389307 5.379208-5.357164 5.379208z" fill="url(#j)" opacity=".2"/><g transform="matrix(1.5625 0 0 1.2065226 126.23214 -1235.413)"><ellipse cx="-54" cy="13" fill="#2e3436" filter="url(#m)" rx="16" ry="3" transform="matrix(.94062515 0 0 1.4962728 -3.206242 1026.9106)"/><path d="m8 8.5c-4.1421358 0-7.5.8954304-7.5 2v3c0 1.10457 3.3578642 2 7.5 2 4.142136 0 7.5-.89543 7.5-2v-3c0-1.1045696-3.357864-2-7.5-2z" fill="url(#n)" transform="matrix(1.9333311 0 0 1.8571429 -69.466666 1021.0765)"/><path d="m-68.09375 25.375c-.25473.275661-.40625.548144-.40625.84375v5.5625c0 2.051344 6.49188 3.71875 14.5 3.71875s14.5-1.667406 14.5-3.71875v-5.5625c0-.295606-.151521-.568089-.40625-.84375-.133219.103735-.281453.218099-.4375.3125-.805562.487325-1.905303.874679-3.25 1.21875-2.689394.688144-6.36093 1.09375-10.40625 1.09375s-7.716856-.405606-10.40625-1.09375c-1.344697-.344071-2.444438-.731425-3.25-1.21875-.156047-.0944-.304281-.208765-.4375-.3125z" fill="url(#o)" transform="translate(0 1014.3622)"/><path d="m-54 18c-3.967299 0-7.594691.406336-10.15625 1.0625-1.280779.328082-2.305938.692334-2.96875 1.09375s-.875.797954-.875 1.0625v5.5625c0 .264546.212188.661084.875 1.0625s1.687971.765669 2.96875 1.09375c2.561559.656164 6.188951 1.0625 10.15625 1.0625 3.9673 0 7.594691-.406336 10.15625-1.0625 1.28078-.328081 2.305938-.692334 2.96875-1.09375s.875-.797954.875-1.0625v-5.5625c0-.264546-.212188-.661084-.875-1.0625s-1.68797-.765668-2.96875-1.09375c-2.561559-.656164-6.18895-1.0625-10.15625-1.0625zm0 1c3.893777 0 7.407034.375816 9.84375 1 1.218358.312093 2.197793.715746 2.71875 1.03125.390718.236628.440654.370108.4375.3125v5.3125c.0032-.05761-.04678.07587-.4375.3125-.520957.315504-1.500392.719157-2.71875 1.03125-2.436714.624184-5.949973 1-9.84375 1s-7.407035-.375816-9.84375-1c-1.218358-.312093-2.197792-.715746-2.71875-1.03125-.390718-.236628-.440654-.370108-.4375-.3125v-5.3125c-.0032.05761.04678-.07587.4375-.3125.520958-.315504 1.500392-.719157 2.71875-1.03125 2.436715-.624184 5.949973-1 9.84375-1z" fill="url(#p)" transform="translate(0 1019.3622)"/><path d="m8 8.5c-4.1421358 0-7.5.8954304-7.5 2v3c0 1.10457 3.3578642 2 7.5 2 4.142136 0 7.5-.89543 7.5-2v-3c0-1.1045696-3.357864-2-7.5-2z" fill="none" stroke="#9c5cd0" stroke-width=".527745" transform="matrix(1.9333311 0 0 1.8571428 -69.466666 1021.0765)"/><path d="m-66.625 28.09375c-.298856.196392-.377901.302233-.375.25v.65625c.712406.330662 1.586349.616947 2.59375.875 2.686403.688144 6.365429 1.09375 10.40625 1.09375s7.719848-.405606 10.40625-1.09375c1.007401-.258053 1.881344-.544338 2.59375-.875v-.65625c.0029.05223-.07615-.05361-.375-.25-.636677.299404-1.472588.588576-2.46875.84375-2.561559.656164-6.18895 1.09375-10.15625 1.09375-3.967299 0-7.594691-.437586-10.15625-1.09375-.996161-.255174-1.832073-.544346-2.46875-.84375z" fill="url(#q)" transform="translate(0 1012.3622)"/><path d="m8 8.5c-4.1421358 0-7.5.8954304-7.5 2v3c0 1.10457 3.3578642 2 7.5 2 4.142136 0 7.5-.89543 7.5-2v-3c0-1.1045696-3.357864-2-7.5-2z" fill="url(#n)" transform="matrix(1.9333311 0 0 1.8571429 -69.466666 1013.0765)"/><path d="m-68.09375 25.375c-.25473.275661-.40625.548144-.40625.84375v5.5625c0 2.051344 6.49188 3.71875 14.5 3.71875s14.5-1.667406 14.5-3.71875v-5.5625c0-.295606-.151521-.568089-.40625-.84375-.133219.103735-.281453.218099-.4375.3125-.805562.487325-1.905303.874679-3.25 1.21875-2.689394.688144-6.36093 1.09375-10.40625 1.09375s-7.716856-.405606-10.40625-1.09375c-1.344697-.344071-2.444438-.731425-3.25-1.21875-.156047-.0944-.304281-.208765-.4375-.3125z" fill="url(#o)" transform="translate(0 1006.3622)"/><path d="m-54 18c-3.967299 0-7.594691.406336-10.15625 1.0625-1.280779.328082-2.305938.692334-2.96875 1.09375s-.875.797954-.875 1.0625v5.5625c0 .264546.212188.661084.875 1.0625s1.687971.765669 2.96875 1.09375c2.561559.656164 6.188951 1.0625 10.15625 1.0625 3.9673 0 7.594691-.406336 10.15625-1.0625 1.28078-.328081 2.305938-.692334 2.96875-1.09375s.875-.797954.875-1.0625v-5.5625c0-.264546-.212188-.661084-.875-1.0625s-1.68797-.765668-2.96875-1.09375c-2.561559-.656164-6.18895-1.0625-10.15625-1.0625zm0 1c3.893777 0 7.407034.375816 9.84375 1 1.218358.312093 2.197793.715746 2.71875 1.03125.390718.236628.440654.370108.4375.3125v5.3125c.0032-.05761-.04678.07587-.4375.3125-.520957.315504-1.500392.719157-2.71875 1.03125-2.436714.624184-5.949973 1-9.84375 1s-7.407035-.375816-9.84375-1c-1.218358-.312093-2.197792-.715746-2.71875-1.03125-.390718-.236628-.440654-.370108-.4375-.3125v-5.3125c-.0032.05761.04678-.07587.4375-.3125.520958-.315504 1.500392-.719157 2.71875-1.03125 2.436715-.624184 5.949973-1 9.84375-1z" fill="url(#p)" transform="translate(0 1011.3622)"/><path d="m8 8.5c-4.1421358 0-7.5.8954304-7.5 2v3c0 1.10457 3.3578642 2 7.5 2 4.142136 0 7.5-.89543 7.5-2v-3c0-1.1045696-3.357864-2-7.5-2z" fill="none" stroke="#9c5cd0" stroke-width=".527745" transform="matrix(1.9333311 0 0 1.8571428 -69.466666 1013.0765)"/><path d="m-66.625 28.09375c-.298856.196392-.377901.302233-.375.25v.65625c.712406.330662 1.586349.616947 2.59375.875 2.686403.688144 6.365429 1.09375 10.40625 1.09375s7.719848-.405606 10.40625-1.09375c1.007401-.258053 1.881344-.544338 2.59375-.875v-.65625c.0029.05223-.07615-.05361-.375-.25-.636677.299404-1.472588.588576-2.46875.84375-2.561559.656164-6.18895 1.09375-10.15625 1.09375-3.967299 0-7.594691-.437586-10.15625-1.09375-.996161-.255174-1.832073-.544346-2.46875-.84375z" fill="url(#q)" transform="translate(0 1004.3622)"/><path d="m8 8.5c-4.1421358 0-7.5.8954304-7.5 2v3c0 1.10457 3.3578642 2 7.5 2 4.142136 0 7.5-.89543 7.5-2v-3c0-1.1045696-3.357864-2-7.5-2z" fill="url(#r)" transform="matrix(1.9333311 0 0 1.8571429 -69.466666 1005.0765)"/><path d="m-68.09375 25.375c-.25473.275661-.40625.548144-.40625.84375v5.5625c0 2.051344 6.49188 3.71875 14.5 3.71875s14.5-1.667406 14.5-3.71875v-5.5625c0-.295606-.151521-.568089-.40625-.84375-.133219.103735-.281453.218099-.4375.3125-.805562.487325-1.905303.874679-3.25 1.21875-2.689394.688144-6.36093 1.09375-10.40625 1.09375s-7.716856-.405606-10.40625-1.09375c-1.344697-.344071-2.444438-.731425-3.25-1.21875-.156047-.0944-.304281-.208765-.4375-.3125z" fill="url(#o)" transform="translate(0 998.3622)"/><path d="m-54 18c-3.967299 0-7.594691.406336-10.15625 1.0625-1.280779.328082-2.305938.692334-2.96875 1.09375s-.875.797954-.875 1.0625v5.5625c0 .264546.212188.661084.875 1.0625s1.687971.765669 2.96875 1.09375c2.561559.656164 6.188951 1.0625 10.15625 1.0625 3.9673 0 7.594691-.406336 10.15625-1.0625 1.28078-.328081 2.305938-.692334 2.96875-1.09375s.875-.797954.875-1.0625v-5.5625c0-.264546-.212188-.661084-.875-1.0625s-1.68797-.765668-2.96875-1.09375c-2.561559-.656164-6.18895-1.0625-10.15625-1.0625zm0 1c3.893777 0 7.407034.375816 9.84375 1 1.218358.312093 2.197793.715746 2.71875 1.03125.390718.236628.440654.370108.4375.3125v5.3125c.0032-.05761-.04678.07587-.4375.3125-.520957.315504-1.500392.719157-2.71875 1.03125-2.436714.624184-5.949973 1-9.84375 1s-7.407035-.375816-9.84375-1c-1.218358-.312093-2.197792-.715746-2.71875-1.03125-.390718-.236628-.440654-.370108-.4375-.3125v-5.3125c-.0032.05761.04678-.07587.4375-.3125.520958-.315504 1.500392-.719157 2.71875-1.03125 2.436715-.624184 5.949973-1 9.84375-1z" fill="url(#p)" transform="translate(0 1003.3622)"/><path d="m8 8.5c-4.1421358 0-7.5.8954304-7.5 2v3c0 1.10457 3.3578642 2 7.5 2 4.142136 0 7.5-.89543 7.5-2v-3c0-1.1045696-3.357864-2-7.5-2z" fill="none" stroke="#9c5cd0" stroke-width=".527745" transform="matrix(1.9333311 0 0 1.8571428 -69.466666 1005.0765)"/><path d="m-66.625 28.09375c-.298856.196392-.377901.302233-.375.25v.65625c.712406.330662 1.586349.616947 2.59375.875 2.686403.688144 6.365429 1.09375 10.40625 1.09375s7.719848-.405606 10.40625-1.09375c1.007401-.258053 1.881344-.544338 2.59375-.875v-.65625c.0029.05223-.07615-.05361-.375-.25-.636677.299404-1.472588.588576-2.46875.84375-2.561559.656164-6.18895 1.09375-10.15625 1.09375-3.967299 0-7.594691-.437586-10.15625-1.09375-.996161-.255174-1.832073-.544346-2.46875-.84375z" fill="url(#q)" transform="translate(0 996.3622)"/></g><g fill-rule="evenodd"><path d="m43.694065-16.752387c5.137078-.03348 1.879587 31.017222 1.879587 31.017222s35.952525-7.1678051 35.952525 5.078738c0-2.983162-.009-6.343468-.009-6.343468l-29.605364-29.74858z" opacity=".2" stroke-width="1.995053"/><path d="m44.813635-16.709453c5.60792-.03348 2.370157 29.409725 2.370157 29.409725s34.154277-6.6177114 34.154277 5.298795c0-2.902768-.0088-6.172516-.0088-6.172516l-28.577099-28.532198z" opacity=".2" stroke-width="1.941287"/><path d="m46.257197-16.741222c5.654616-.0073 2.261853 27.448842 2.261853 27.448842s32.988522-5.4051998 32.988522 6.06048c0-2.792949-.0085-3.796138-.0085-3.796138l-29.767428-29.732304z" opacity=".2" stroke-width="1.871432"/><path d="m47.578312-16.755847c6.006363 0 2.163461 25.935733 2.163461 25.935733s31.765441-4.6711083 31.765441 6.389377c0-2.694248-.0081-3.586255-.0081-3.586255l-28.791275-28.757298z" fill="url(#l)" stroke-width="1.805296"/></g><path d="m6.5000025 38.571429h74.9999995v1.428571h-74.9999995z" opacity=".3"/><path d="m6.5000025 37.142858h74.9999995v1.428571h-74.9999995z" fill="#fff" opacity=".1"/><g fill="#fff" transform="matrix(.79682741 0 0 .79682741 5.579658 -19.118887)"><path d="m36.288401 80.40638q-1.375 0-2.132813 1.015625-.757812 1.015625-.757812 2.859375 0 1.835937.757812 2.851562.757813 1.015625 2.132813 1.015625 1.382812 0 2.140625-1.015625.757812-1.015625.757812-2.851562 0-1.84375-.757812-2.859375-.757813-1.015625-2.140625-1.015625zm0-2.179688q2.8125 0 4.40625 1.609375 1.59375 1.609375 1.59375 4.445313 0 2.828125-1.59375 4.4375-1.59375 1.609375-4.40625 1.609375-2.804688 0-4.40625-1.609375-1.59375-1.609375-1.59375-4.4375 0-2.835938 1.59375-4.445313 1.601562-1.609375 4.40625-1.609375z"/><path d="m47.561838 80.711067v7.117188h1.078125q1.84375 0 2.8125-.914063.976563-.914062.976563-2.65625 0-1.734375-.96875-2.640625-.96875-.90625-2.820313-.90625zm-3.007812-2.273437h3.171875q2.65625 0 3.953125.382812 1.304687.375 2.234375 1.28125.820312.789063 1.21875 1.820313.398437 1.03125.398437 2.335937 0 1.320313-.398437 2.359375-.398438 1.03125-1.21875 1.820313-.9375.90625-2.25 1.289062-1.3125.375-3.9375.375h-3.171875z"/><path d="m62.507151 82.953255q.710937 0 1.078125-.3125.367187-.3125.367187-.921875 0-.601563-.367187-.914063-.367188-.320312-1.078125-.320312h-1.664063v2.46875zm.101562 5.101562q.90625 0 1.359375-.382812.460938-.382813.460938-1.15625 0-.757813-.453125-1.132813-.453125-.382812-1.367188-.382812h-1.765625v3.054687zm2.796875-4.195312q.96875.28125 1.5 1.039062.53125.757813.53125 1.859375 0 1.6875-1.140625 2.515625-1.140625.828125-3.46875.828125h-4.992187v-11.664062h4.515625q2.429687 0 3.515625.734375 1.09375.734375 1.09375 2.351562 0 .851563-.398438 1.453125-.398437.59375-1.15625.882813z"/></g></g></svg>