<svg height="64" width="64" xmlns="http://www.w3.org/2000/svg" xmlns:xlink="http://www.w3.org/1999/xlink"><linearGradient id="a"><stop offset="0" stop-color="#fff"/><stop offset="1" stop-color="#fff" stop-opacity="0"/></linearGradient><linearGradient id="b" gradientTransform="matrix(1.0058652 0 0 .994169 100 0)" gradientUnits="userSpaceOnUse" x1="45.447727" x2="45.447727" y1="92.539597" y2="7.01654"><stop offset="0"/><stop offset="1" stop-opacity=".588235"/></linearGradient><linearGradient id="c" gradientTransform="matrix(.88095236 0 0 .88095242 102.24686 -91.378936)" gradientUnits="userSpaceOnUse" x1="32.251034" x2="32.251034" xlink:href="#b" y1="6.131708" y2="90.238609"/><linearGradient id="d" gradientTransform="matrix(.85714286 0 0 .85714286 103.38971 -90.236078)" gradientUnits="userSpaceOnUse" x1="32.251034" x2="32.251034" xlink:href="#b" y1="6.131708" y2="90.238609"/><linearGradient id="e" gradientTransform="matrix(0 -1.0119049 .89285716 0 1.14286 64.285716)" gradientUnits="userSpaceOnUse" x1="7.3709" x2="23.76619" y1="51.470146" y2="51.433136"><stop offset="0" stop-color="#443f0d"/><stop offset="1" stop-color="#57541e"/></linearGradient><linearGradient id="f" gradientTransform="matrix(.88966473 0 0 -.88897608 101.82866 91.764071)" gradientUnits="userSpaceOnUse" x1="32.251034" x2="32.251034" xlink:href="#b" y1="6.131708" y2="90.238609"/><linearGradient id="g" gradientTransform="matrix(.88668581 0 0 -.88621557 101.97166 91.631566)" gradientUnits="userSpaceOnUse" x1="32.251034" x2="32.251034" xlink:href="#b" y1="6.131708" y2="90.238609"/><linearGradient id="h" gradientTransform="matrix(.88419911 0 0 -.88396282 102.09102 91.52343)" gradientUnits="userSpaceOnUse" x1="32.251034" x2="32.251034" xlink:href="#b" y1="6.131708" y2="90.238609"/><linearGradient id="i" gradientUnits="userSpaceOnUse" x1="78.04289384" x2="78.04289384" y1="-43.8124403" y2="-113.82267585329"><stop offset="0" stop-color="#99953a"/><stop offset="1" stop-color="#b4af52"/></linearGradient><radialGradient id="j" cx="48" cy="90.171875" gradientTransform="matrix(1.0333151 0 0 .89285716 -5.599123 -22.296321)" gradientUnits="userSpaceOnUse" r="42" xlink:href="#a"/><linearGradient id="k" gradientTransform="matrix(.89285774 0 0 .89652598 1.142854 -22.164537)" gradientUnits="userSpaceOnUse" x1="36.357143" x2="36.357143" xlink:href="#a" y1="6" y2="63.893143"/><linearGradient id="l" gradientTransform="matrix(2.4467882 0 0 2.4908279 -19.058972 -21.607478)" gradientUnits="userSpaceOnUse" x1="32.891998" x2="36.358002" y1="8.059" y2="5.4565"><stop offset="0" stop-color="#b9b46d"/><stop offset="1" stop-color="#999543"/></linearGradient><linearGradient id="m" gradientTransform="matrix(.51020908 0 0 .54296284 3.726178 -19.035337)" gradientUnits="userSpaceOnUse" x1="62.136082" x2="62.136082" y1="103.95654" y2="24.043467"><stop offset="0" stop-color="#3b6800"/><stop offset="1" stop-color="#639632"/></linearGradient><g transform="matrix(.7 0 0 .7 1.2 18)"><g transform="matrix(1.0714286 0 0 1.0714286 -110.85633 -31.885595)"><path d="m114.1583 89.09322c-4.78901 0-8.71691-3.971039-8.71691-8.812629v-62.374743c0-4.841588 3.9279-8.812628 8.71691-8.812628h38.74855l30.7169 30.812628v40.374743c0 4.84159-3.9279 8.812629-8.7169 8.812629z" fill="url(#f)" opacity=".08"/><path d="m114.2634 88.09322c-4.30575 0-7.82165-3.55537-7.82165-7.909474v-62.181052c0-4.354104 3.5159-7.909474 7.82165-7.909474h38.36008l30 30v40.090526c0 4.354104-3.51589 7.909474-7.82165 7.909474z" fill="url(#g)" opacity=".1"/><path d="m114.35075 87.09322c-3.80788 0-6.90909-3.13685-6.90909-6.98851v-62.02298c0-3.851661 3.10121-6.98851 6.90909-6.98851h38.27273l29 29v40.01149c0 3.85166-3.1012 6.98851-6.90909 6.98851z" fill="url(#h)" opacity=".2"/><path d="m114.46511-86.093224h60.13512c3.33689 0 6.02326 2.717977 6.02326 6.094118v38.905886l-29.00001 28.999996h-37.15837c-3.33688 0-6.02325-2.717976-6.02325-6.094117v-61.811765c0-3.376141 2.68637-6.094118 6.02325-6.094118z" fill="url(#c)" opacity=".3" transform="scale(1 -1)"/><path d="m114.58491-85.093224h59.89572c2.84914 0 5.07622 2.294494 5.14286 5.142858v38.857146l-28.00001 27.999996h-37.03857c-2.84914 0-5.14285-2.293714-5.14285-5.142857v-61.714285c0-2.849143 2.29371-5.142858 5.14285-5.142858z" fill="url(#d)" opacity=".45" transform="scale(1 -1)"/></g><path d="m48.042892-113.81244h37.999998l27 27v38.000001c0 2.77-2.23 5-5 5h-59.999998c-2.77 0-5-2.23-5-5v-60.000001c0-2.77 2.23-5 5-5z" fill="url(#i)" transform="matrix(1.0714286 0 0 1.0714286 -39.617384 105.15619)"/><path d="m11.857146-16.785388c-2.9678591 0-5.357146 2.3991-5.357146 5.379161v1.7930468 58.8209082c4.131706 8.719131 1.0697433 6.202743.8928611.896524v-58.8209036-1.7930574c0-2.493996 1.9804941-4.482632 4.4642889-4.482632h1.785715 37.142887 1.785718l28.035719 28.054062v1.793057 35.249474c-2.513132 6.59406.892811 7.468674.892811-.896526v-35.249476-1.793057l-28.928573-28.950581z" fill="url(#k)" opacity=".3"/><path d="m6.5000025 52.142855c0 3.36357 2.3892855 6.071428 5.3571425 6.071428h64.285714c2.967857 0 5.357143-2.707858 5.357143-6.071428v-13.571426h-74.9999995z" fill="url(#e)"/><path d="m11.857145 58.214283c-2.967857 0-5.3571425-2.399103-5.3571425-5.379155v-1.793053c.0365465-10.900962.8928589-11.133427.8928589-.896578v1.793052c0 2.493998 1.9804926 4.48263 4.4642856 4.48263h1.785716 60.714274 1.785718c2.483796 0 4.464289-1.988632 4.464289-4.48263v-1.793053c.08764-12.153031.892875-7.994396.892875.896527v1.793052c-.000021 2.980105-2.389307 5.379208-5.357164 5.379208z" fill="url(#j)" opacity=".2"/><path d="m42.229419-4.2857147-10.593221.021185c1.152934.7332472 2.681101 2.3774017 3.940678 4.25847512 1.406897 2.10108738 2.5266 4.51878288 3.368645 6.63135668l-2.987289 1.737287 9.533899-.021182 4.449153-8.38983008-2.372882 1.58898288-1.504237-2.8601698c-1.008512-1.6140377-1.933108-2.7844211-3.834746-2.9661019zm-13.114407.3389835c-.646776-.013713-1.3361.1007782-2.097459.4025423l-4.618642 6.8432197 8.135592 5.4449165 4.364407-8.24152658c-1.206168-1.77948942-2.981199-4.38970672-5.783898-4.44915192zm22.351695 11.6313562-8.199153 5.275423 3.792374 8.22034 3.262711.02119c1.905421.02191 4.971766-2.785866 4.851695-4.809322zm-27.182204 2.0550853-8.855932.4872867 2.838983 1.546611-.953391 2.012712c-3.076833 6.578024.815073 9.785729 5.423731 16.186441-.658572-1.589009-.619017-3.289563-.04237-4.936441l4.088982-8.75 2.563559 1.334746zm17.394068 9.4279657-4.364406 8.326271 4.364406 8.220339.02119-3.389832h2.139827c6.904654-.0032 7.858597-5.12848 11.186441-12.37288-1.042707 1.335976-2.489081 2.039329-4.131356 2.224576l-9.194915.02118zm-6.885593 2.711865-9.512712.317796-1.48305 3.072033c-.86823 1.805134.130226 5.991582 1.885592 6.779662h9.046611z" fill="url(#m)"/><path d="m43.694065-16.752387c5.137078-.03348 1.879587 31.017222 1.879587 31.017222s35.952525-7.1678051 35.952525 5.078738c0-2.983162-.009-6.343468-.009-6.343468l-29.605364-29.74858z" fill-rule="evenodd" opacity=".2" stroke-width="1.995053"/><path d="m42.229419-4.2857147-10.593221.021185c.270908.1722931.564656.4138326.868644.6779668l9.724577-.021185c1.901638.1816808 2.826234 1.3520642 3.834746 2.96610261l1.504237 2.86016909 1.822034-1.2076277.550848-1.05932128-2.372882 1.58898308-1.504237-2.8601699c-1.008512-1.6140385-1.933108-2.7844219-3.834746-2.9661027zm-13.114407.3389835c-.646776-.013713-1.3361.1007782-2.097459.4025423l-4.618642 6.8432197.317796.2118657 4.300846-6.3771191c.761359-.3017648 1.450683-.4162579 2.097459-.402543 2.652862.056261 4.371534 2.39325941 5.572035 4.15254242l.211863-.3813561c-1.206168-1.77948942-2.981199-4.38970672-5.783898-4.44915192zm9.597458 10.6991531-2.754238 1.610168h1.165254l1.822035-1.0593212c-.07127-.1788079-.157797-.368046-.233051-.5508468zm12.754237.9322031-8.199153 5.275423.233052.529662 7.966101-5.1271201 3.644069 8.5805101c.03674-.190021.07425-.370709.06355-.550848zm-27.182204 2.0550853-8.855932.4872867 1.122882.614408 7.73305-.423731 4.406779 6.864409.65678.338983zm-6.271187 2.5635587-.699153 1.483051c-.836083 1.787481-1.148122 3.324319-1.080507 4.745762.0484-1.232454.375401-2.560332 1.080507-4.067795l.953391-2.012713zm23.665255 6.864407-4.364406 8.326271.169491.338983 4.194915-7.987287zm13.347458.783898c-1.042707 1.335976-2.489081 2.039329-4.131356 2.224576l-9.194914.02118v.67797l9.194914-.02119c1.356928-.153062 2.587068-.66392 3.559323-1.588983.192682-.438331.362625-.857698.572033-1.313559zm-20.233051 1.927967-9.512712.317796-1.48305 3.072033c-.254837.529834-.335343 1.261098-.296611 2.055086.02987-.524914.117333-1.004385.296611-1.377119l1.48305-3.072034 9.512712-.317797zm-12.521186 5.868643c-.03947.590267.0076 1.179066.127119 1.758476.116779.159571.221161.302465.338983.466101-.300839-.725866-.44127-1.467907-.466102-2.224577z" opacity=".3"/><g fill-rule="evenodd"><path d="m44.813635-16.709453c5.60792-.03348 2.370157 29.409725 2.370157 29.409725s34.154277-6.6177114 34.154277 5.298795c0-2.902768-.0088-6.172516-.0088-6.172516l-28.577099-28.532198z" opacity=".2" stroke-width="1.941287"/><path d="m46.257197-16.741222c5.654616-.0073 2.261853 27.448842 2.261853 27.448842s32.988522-5.4051998 32.988522 6.06048c0-2.792949-.0085-3.796138-.0085-3.796138l-29.767428-29.732304z" opacity=".2" stroke-width="1.871432"/><path d="m47.578312-16.755847c6.006363 0 2.163461 25.935733 2.163461 25.935733s31.765441-4.6711083 31.765441 6.389377c0-2.694248-.0081-3.586255-.0081-3.586255l-28.791275-28.757298z" fill="url(#l)" stroke-width="1.805296"/></g><path d="m6.5000025 38.571429h74.9999995v1.428571h-74.9999995z" opacity=".3"/><path d="m6.5000025 37.142858h74.9999995v1.428571h-74.9999995z" fill="#fff" opacity=".1"/><g fill="#fff" transform="matrix(.88182946 0 0 .88182946 1.596773 -26.417834)"><path d="m36.265308 83.196648q.666504 0 1.010743-.292969.344238-.292969.344238-.864258 0-.563965-.344238-.856934-.344239-.300292-1.010743-.300292h-1.560058v2.314453zm.09522 4.782714q.84961 0 1.274414-.358886.432129-.358887.432129-1.083985 0-.710449-.424804-1.062011-.424805-.358887-1.281739-.358887h-1.655273v2.863769zm2.622071-3.933105q.908203.263672 1.40625.974121.498046.710449.498046 1.743164 0 1.582031-1.069336 2.358399-1.069335.776367-3.251953.776367h-4.680175v-10.935059h4.233398q2.277832 0 3.295898.688477 1.025391.688476 1.025391 2.20459 0 .798339-.373535 1.362304-.373535.556641-1.083984.827637z"/><path d="m49.946949 87.90612h-4.40918l-.6958 1.992188h-2.834473l4.050293-10.935059h3.361816l4.050293 10.935059h-2.834472zm-3.706055-2.028808h2.995606l-1.494141-4.350586z"/><path d="m54.912769 78.963249h2.819825v3.991699l4.064941-3.991699h3.273926l-5.266114 5.178223 5.808106 5.756836h-3.530274l-4.350585-4.306641v4.306641h-2.819825z"/></g></g></svg>