<svg height="64" width="64" xmlns="http://www.w3.org/2000/svg" xmlns:xlink="http://www.w3.org/1999/xlink"><linearGradient id="a"><stop offset="0" stop-color="#fff"/><stop offset="1" stop-color="#fff" stop-opacity="0"/></linearGradient><linearGradient id="b"><stop offset="0"/><stop offset="1" stop-opacity="0"/></linearGradient><linearGradient id="c" gradientTransform="matrix(1.0058652 0 0 .994169 100 0)" gradientUnits="userSpaceOnUse" x1="45.447727" x2="45.447727" y1="92.539597" y2="7.01654"><stop offset="0"/><stop offset="1" stop-opacity=".588235"/></linearGradient><linearGradient id="d" gradientTransform="matrix(.88095236 0 0 .88095242 102.24686 -91.378936)" gradientUnits="userSpaceOnUse" x1="32.251034" x2="32.251034" xlink:href="#c" y1="6.131708" y2="90.238609"/><linearGradient id="e" gradientTransform="matrix(.85714286 0 0 .85714286 103.38971 -90.236078)" gradientUnits="userSpaceOnUse" x1="32.251034" x2="32.251034" xlink:href="#c" y1="6.131708" y2="90.238609"/><linearGradient id="f" gradientTransform="matrix(0 -1.0119049 .89285716 0 1.14286 64.285716)" gradientUnits="userSpaceOnUse" x1="7.3709" x2="23.76619" y1="51.470146" y2="51.433136"><stop offset="0" stop-color="#202d3d"/><stop offset="1" stop-color="#2d3b48"/></linearGradient><linearGradient id="g" gradientTransform="matrix(.88966473 0 0 -.88897608 101.82866 91.764071)" gradientUnits="userSpaceOnUse" x1="32.251034" x2="32.251034" xlink:href="#c" y1="6.131708" y2="90.238609"/><linearGradient id="h" gradientTransform="matrix(.88668581 0 0 -.88621557 101.97166 91.631566)" gradientUnits="userSpaceOnUse" x1="32.251034" x2="32.251034" xlink:href="#c" y1="6.131708" y2="90.238609"/><linearGradient id="i" gradientTransform="matrix(.88419911 0 0 -.88396282 102.09102 91.52343)" gradientUnits="userSpaceOnUse" x1="32.251034" x2="32.251034" xlink:href="#c" y1="6.131708" y2="90.238609"/><linearGradient id="j" gradientUnits="userSpaceOnUse" x1="78.04289384" x2="78.04289384" y1="-43.8124403" y2="-113.82267585329"><stop offset="0" stop-color="#404c5c"/><stop offset="1" stop-color="#566671"/></linearGradient><radialGradient id="k" cx="48" cy="90.171875" gradientTransform="matrix(1.0333151 0 0 .89285716 -5.599123 -22.296321)" gradientUnits="userSpaceOnUse" r="42" xlink:href="#a"/><linearGradient id="l" gradientTransform="matrix(.83333387 0 0 .83675756 38.042891 -118.83298)" gradientUnits="userSpaceOnUse" x1="36.357143" x2="36.357143" xlink:href="#a" y1="6" y2="63.893143"/><linearGradient id="m" gradientTransform="matrix(2.4467882 0 0 2.4908279 -19.058972 -21.607478)" gradientUnits="userSpaceOnUse" x1="32.891998" x2="36.358002" y1="8.059" y2="5.4565"><stop offset="0" stop-color="#697884"/><stop offset="1" stop-color="#5c6874"/></linearGradient><linearGradient id="n" gradientUnits="userSpaceOnUse" x1="51.42857" x2="90.714287" y1="72.785713" y2="72.785713"><stop offset="0" stop-color="#5e8a20"/><stop offset="1" stop-color="#a2d625"/></linearGradient><linearGradient id="o" gradientUnits="userSpaceOnUse" x1="45.71890811579" x2="45.99999978133" xlink:href="#b" y1="67.04118454384" y2="30.00000052533"/><linearGradient id="p" gradientUnits="userSpaceOnUse" x1="45.71890811579" x2="45.71890811579" xlink:href="#b" y1="67.04118454384" y2="30.99282968803"/><linearGradient id="q" gradientUnits="userSpaceOnUse" x1="45.71890811579" x2="45.71890811579" xlink:href="#a" y1="47.17105961932" y2="30.15040802073"/><g transform="matrix(.7 0 0 .7 1.2 18)"><g transform="matrix(1.0714286 0 0 1.0714286 -110.85633 -31.885595)"><path d="m114.1583 89.09322c-4.78901 0-8.71691-3.971039-8.71691-8.812629v-62.374743c0-4.841588 3.9279-8.812628 8.71691-8.812628h38.74855l30.7169 30.812628v40.374743c0 4.84159-3.9279 8.812629-8.7169 8.812629z" fill="url(#g)" opacity=".08"/><path d="m114.2634 88.09322c-4.30575 0-7.82165-3.55537-7.82165-7.909474v-62.181052c0-4.354104 3.5159-7.909474 7.82165-7.909474h38.36008l30 30v40.090526c0 4.354104-3.51589 7.909474-7.82165 7.909474z" fill="url(#h)" opacity=".1"/><path d="m114.35075 87.09322c-3.80788 0-6.90909-3.13685-6.90909-6.98851v-62.02298c0-3.851661 3.10121-6.98851 6.90909-6.98851h38.27273l29 29v40.01149c0 3.85166-3.1012 6.98851-6.90909 6.98851z" fill="url(#i)" opacity=".2"/><path d="m114.46511-86.093224h60.13512c3.33689 0 6.02326 2.717977 6.02326 6.094118v38.905886l-29.00001 28.999996h-37.15837c-3.33688 0-6.02325-2.717976-6.02325-6.094117v-61.811765c0-3.376141 2.68637-6.094118 6.02325-6.094118z" fill="url(#d)" opacity=".3" transform="scale(1 -1)"/><path d="m114.58491-85.093224h59.89572c2.84914 0 5.07622 2.294494 5.14286 5.142858v38.857146l-28.00001 27.999996h-37.03857c-2.84914 0-5.14285-2.293714-5.14285-5.142857v-61.714285c0-2.849143 2.29371-5.142858 5.14285-5.142858z" fill="url(#e)" opacity=".45" transform="scale(1 -1)"/></g><g transform="matrix(1.0714286 0 0 1.0714286 -39.617384 105.15619)"><path d="m48.042892-113.81244h37.999998l27 27v38.000001c0 2.77-2.23 5-5 5h-59.999998c-2.77 0-5-2.23-5-5v-60.000001c0-2.77 2.23-5 5-5z" fill="url(#j)"/><path d="m48.042897-113.81244c-2.770002 0-5.000003 2.23916-5.000003 5.02055v1.67351 54.899511c3.856259 8.137855.998427 5.789227.833337.836756v-54.899507-1.67352c0-2.32773 1.848461-4.18379 4.166669-4.18379h1.666668 34.666692 1.66667l26.16667 26.18379v1.67352 32.899507c-2.34559 6.154455.83329 6.970762.83329-.836758v-32.899509-1.67352l-27-27.02054z" fill="url(#l)" opacity=".3"/></g><path d="m6.5000025 52.142855c0 3.36357 2.3892855 6.071428 5.3571425 6.071428h64.285714c2.967857 0 5.357143-2.707858 5.357143-6.071428v-13.571426h-74.9999995z" fill="url(#f)"/><path d="m11.857145 58.214283c-2.967857 0-5.3571425-2.399103-5.3571425-5.379155v-1.793053c.0365465-10.900962.8928589-11.133427.8928589-.896578v1.793052c0 2.493998 1.9804926 4.48263 4.4642856 4.48263h1.785716 60.714274 1.785718c2.483796 0 4.464289-1.988632 4.464289-4.48263v-1.793053c.08764-12.153031.892875-7.994396.892875.896527v1.793052c-.000021 2.980105-2.389307 5.379208-5.357164 5.379208z" fill="url(#k)" opacity=".2"/><g transform="matrix(.78431379 0 0 .78431379 5.964021 -23.753507)"><path d="m90.714283 72.785713a19.642857 19.642857 0 1 1 -39.285713 0 19.642857 19.642857 0 1 1 39.285713 0z" fill="url(#n)" transform="matrix(0 -1.2727272 1.2726491 0 -44.630696 138.45454)"/><path d="m47.999975 23.000004c-13.806271 0-24.998464 11.19288-24.998464 24.999997 0 13.807119 11.192193 24.999999 24.998464 24.999999 13.80627 0 24.998463-11.19288 24.998463-24.999999 0-13.807117-11.192193-24.999997-24.998463-24.999997zm0 3.124999c12.080484 0 21.873655 9.793773 21.873655 21.874998 0 12.081227-9.793171 21.874999-21.873655 21.874999-12.080485 0-21.873656-9.793772-21.873656-21.874999 0-12.081225 9.793171-21.874998 21.873656-21.874998z" opacity=".05"/><path d="m47.999975 23.000004c-13.806271 0-24.998464 11.19288-24.998464 24.999997 0 13.807119 11.192193 24.999999 24.998464 24.999999 13.80627 0 24.998463-11.19288 24.998463-24.999999 0-13.807117-11.192193-24.999997-24.998463-24.999997zm0 2.083332c12.655746 0 22.915258 10.260142 22.915258 22.916665 0 12.656524-10.259512 22.916666-22.915258 22.916666-12.655747 0-22.915259-10.260142-22.915259-22.916666 0-12.656523 10.259512-22.916665 22.915259-22.916665z" opacity=".1"/><path d="m47.999975 23.000004c-13.806271 0-24.998464 11.19288-24.998464 24.999997 0 13.807119 11.192193 24.999999 24.998464 24.999999 13.80627 0 24.998463-11.19288 24.998463-24.999999 0-13.807117-11.192193-24.999997-24.998463-24.999997zm0 1.041667c13.231007 0 23.95686 10.726511 23.95686 23.95833 0 13.231821-10.725853 23.958332-23.95686 23.958332-13.231008 0-23.956861-10.726511-23.956861-23.958332 0-13.231819 10.725853-23.95833 23.956861-23.95833z" opacity=".08"/><g><path d="m39.90625 29.9375a1.0480634 1.0480634 0 0 0 -.96875 1.0625v16.9375h-5.59375a1.0480634 1.0480634 0 0 0 -.8125 1.71875l14.65625 18a1.0480634 1.0480634 0 0 0 1.625 0l14.65625-18a1.0480634 1.0480634 0 0 0 -.8125-1.71875h-5.59375v-16.9375a1.0480634 1.0480634 0 0 0 -1.0625-1.0625h-16a1.0480634 1.0480634 0 0 0 -.09375 0zm.09375.0625h16v18h6.65625l-14.65625 18-14.65625-18h6.65625z" fill="url(#o)" opacity=".1"/><path d="m55.90625 29c-.141597-.0024-.296606.0059-.4375.03125h-15.8125c-1.219937.199362-1.796456 1.466477-1.625 2.59375v15.40625c-1.737179.04037-3.494349-.08166-5.21875.0625-1.472135.340361-1.927489 2.422673-.8125 3.40625 4.876521 5.965328 9.725208 11.971747 14.625 17.90625.920978.93346 2.507698.60473 3.15625-.46875l14.40625-17.6875c1.094987-1.210834.01899-3.42092-1.625-3.21875h-4.59375v-16.3125c-.120522-1.031628-1.07132-1.702186-2.0625-1.71875zm-15.90625 1h16v18h6.65625l-14.65625 18-14.65625-18h6.65625z" fill="url(#o)" opacity=".05"/><path d="m33.34375 49 14.65625 18 14.65625-18h-.8125l-13.84375 17-13.84375-17z" fill="url(#p)" opacity=".3"/><path d="m40.000003 30.000004v17.999996h-6.666667l14.666667 18 14.666666-18h-6.666667v-17.999996z" fill="url(#q)"/></g><path d="m47.999975 23.000004c-13.806271 0-24.998464 11.19288-24.998464 24.999997 0 .172482-.0034.349185 0 .520834.274815-13.568816 11.364664-24.479164 24.998464-24.479164 13.633799 0 24.723648 10.910348 24.998463 24.479164.0035-.171649 0-.348352 0-.520834 0-13.807117-11.192193-24.999997-24.998463-24.999997z" opacity=".2"/><path d="m23 48.5c-.0033.167487 0 .331721 0 .5 0 13.807118 11.19373 25 25 25s25-11.192882 25-25c0-.168279.0033-.332513 0-.5-.268234 13.574632-11.361999 24.5-25 24.5s-24.731766-10.925368-25-24.5z" fill="#284651"/></g><g fill-rule="evenodd"><path d="m43.694065-16.752387c5.137078-.03348 1.879587 31.017222 1.879587 31.017222s35.952525-7.1678051 35.952525 5.078738c0-2.983162-.009-6.343468-.009-6.343468l-29.605364-29.74858z" opacity=".2" stroke-width="1.995053"/><path d="m44.813635-16.709453c5.60792-.03348 2.370157 29.409725 2.370157 29.409725s34.154277-6.6177114 34.154277 5.298795c0-2.902768-.0088-6.172516-.0088-6.172516l-28.577099-28.532198z" opacity=".2" stroke-width="1.941287"/><path d="m46.257197-16.741222c5.654616-.0073 2.261853 27.448842 2.261853 27.448842s32.988522-5.4051998 32.988522 6.06048c0-2.792949-.0085-3.796138-.0085-3.796138l-29.767428-29.732304z" opacity=".2" stroke-width="1.871432"/><path d="m47.578312-16.755847c6.006363 0 2.163461 25.935733 2.163461 25.935733s31.765441-4.6711083 31.765441 6.389377c0-2.694248-.0081-3.586255-.0081-3.586255l-28.791275-28.757298z" fill="url(#m)" stroke-width="1.805296"/></g><path d="m6.5000025 38.571429h74.9999995v1.428571h-74.9999995z" opacity=".3"/><path d="m6.5000025 37.142858h74.9999995v1.428571h-74.9999995z" fill="#fff" opacity=".1"/></g></svg>