<svg height="64" width="64" xmlns="http://www.w3.org/2000/svg" xmlns:xlink="http://www.w3.org/1999/xlink"><linearGradient id="a"><stop offset="0" stop-color="#fff"/><stop offset="1" stop-color="#fff" stop-opacity="0"/></linearGradient><linearGradient id="b" gradientTransform="matrix(1.0058652 0 0 .994169 100 0)" gradientUnits="userSpaceOnUse" x1="45.447727" x2="45.447727" y1="92.539597" y2="7.01654"><stop offset="0"/><stop offset="1" stop-opacity=".588235"/></linearGradient><linearGradient id="c" gradientTransform="matrix(.88095236 0 0 .88095242 102.24686 -91.378936)" gradientUnits="userSpaceOnUse" x1="32.251034" x2="32.251034" xlink:href="#b" y1="6.131708" y2="90.238609"/><linearGradient id="d" gradientTransform="matrix(.85714286 0 0 .85714286 103.38971 -90.236078)" gradientUnits="userSpaceOnUse" x1="32.251034" x2="32.251034" xlink:href="#b" y1="6.131708" y2="90.238609"/><linearGradient id="e" gradientTransform="matrix(0 -1.0119049 .89285716 0 1.14286 64.285716)" gradientUnits="userSpaceOnUse" x1="7.3709" x2="23.76619" y1="51.470146" y2="51.433136"><stop offset="0" stop-color="#202d3d"/><stop offset="1" stop-color="#2d3b48"/></linearGradient><linearGradient id="f" gradientTransform="matrix(.88966473 0 0 -.88897608 101.82866 91.764071)" gradientUnits="userSpaceOnUse" x1="32.251034" x2="32.251034" xlink:href="#b" y1="6.131708" y2="90.238609"/><linearGradient id="g" gradientTransform="matrix(.88668581 0 0 -.88621557 101.97166 91.631566)" gradientUnits="userSpaceOnUse" x1="32.251034" x2="32.251034" xlink:href="#b" y1="6.131708" y2="90.238609"/><linearGradient id="h" gradientTransform="matrix(.88419911 0 0 -.88396282 102.09102 91.52343)" gradientUnits="userSpaceOnUse" x1="32.251034" x2="32.251034" xlink:href="#b" y1="6.131708" y2="90.238609"/><linearGradient id="i" gradientUnits="userSpaceOnUse" x1="78.04289384" x2="78.04289384" y1="-43.8124403" y2="-113.82267585329"><stop offset="0" stop-color="#404c5c"/><stop offset="1" stop-color="#566671"/></linearGradient><radialGradient id="j" cx="48" cy="90.171875" gradientTransform="matrix(1.0333151 0 0 .89285716 -5.599123 -22.296321)" gradientUnits="userSpaceOnUse" r="42" xlink:href="#a"/><linearGradient id="k" gradientTransform="matrix(.83333387 0 0 .83675756 38.042891 -118.83298)" gradientUnits="userSpaceOnUse" x1="36.357143" x2="36.357143" xlink:href="#a" y1="6" y2="63.893143"/><linearGradient id="l" gradientTransform="matrix(2.4467882 0 0 2.4908279 -19.058972 -21.607478)" gradientUnits="userSpaceOnUse" x1="32.891998" x2="36.358002" y1="8.059" y2="5.4565"><stop offset="0" stop-color="#697884"/><stop offset="1" stop-color="#5c6874"/></linearGradient><radialGradient id="m" cx="-22" cy="54" gradientUnits="userSpaceOnUse" r="6" xlink:href="#a"/><radialGradient id="n" cx="-34" cy="54" gradientUnits="userSpaceOnUse" r="4" xlink:href="#a"/><radialGradient id="o" cx="-42" cy="54" gradientUnits="userSpaceOnUse" r="2" xlink:href="#a"/><radialGradient id="p" cx="-26.019238" cy="38.999991" gradientUnits="userSpaceOnUse" r="6.001002" xlink:href="#a"/><radialGradient id="q" cx="-36.411545" cy="45.000011" gradientUnits="userSpaceOnUse" r="4.000668" xlink:href="#a"/><radialGradient id="r" cx="-43.339745" cy="48.999985" gradientUnits="userSpaceOnUse" r="2.000334" xlink:href="#a"/><radialGradient id="s" cx="-37" cy="28.019246" gradientUnits="userSpaceOnUse" r="6.001002" xlink:href="#a"/><radialGradient id="t" cx="-43" cy="38.411551" gradientUnits="userSpaceOnUse" r="4.000668" xlink:href="#a"/><radialGradient id="u" cx="-47" cy="45.339755" gradientUnits="userSpaceOnUse" r="2.000334" xlink:href="#a"/><radialGradient id="v" cx="-52" cy="23.999998" gradientUnits="userSpaceOnUse" r="6" xlink:href="#a"/><radialGradient id="w" cx="-52" cy="36.000004" gradientUnits="userSpaceOnUse" r="4" xlink:href="#a"/><radialGradient id="x" cx="-52" cy="44" gradientUnits="userSpaceOnUse" r="2" xlink:href="#a"/><radialGradient id="y" cx="-67" cy="28.019236" gradientUnits="userSpaceOnUse" r="6.001002" xlink:href="#a"/><radialGradient id="z" cx="-61" cy="38.411554" gradientUnits="userSpaceOnUse" r="4.000668" xlink:href="#a"/><radialGradient id="A" cx="-57" cy="45.339755" gradientUnits="userSpaceOnUse" r="2.000334" xlink:href="#a"/><radialGradient id="B" cx="-77.980759" cy="38.99999" gradientUnits="userSpaceOnUse" r="6.001002" xlink:href="#a"/><radialGradient id="C" cx="-67.588455" cy="45.000013" gradientUnits="userSpaceOnUse" r="4.000668" xlink:href="#a"/><radialGradient id="D" cx="-60.660255" cy="48.99999" gradientUnits="userSpaceOnUse" r="2.000334" xlink:href="#a"/><radialGradient id="E" cx="-82" cy="54" gradientUnits="userSpaceOnUse" r="6" xlink:href="#a"/><radialGradient id="F" cx="-70" cy="54.000007" gradientUnits="userSpaceOnUse" r="4" xlink:href="#a"/><radialGradient id="G" cx="-62" cy="54" gradientUnits="userSpaceOnUse" r="2" xlink:href="#a"/><linearGradient id="H" gradientUnits="userSpaceOnUse" x1="78" x2="78" y1="48" y2="60"><stop offset="0" stop-color="#f00"/><stop offset="1" stop-color="#ff006b"/></linearGradient><linearGradient id="I" gradientUnits="userSpaceOnUse" x1="71" x2="77" y1="34" y2="45"><stop offset="0" stop-color="#ff8200"/><stop offset="1" stop-color="#ff4700"/></linearGradient><linearGradient id="J" gradientUnits="userSpaceOnUse" x1="58" x2="68" y1="25" y2="31"><stop offset="0" stop-color="#ffd500"/><stop offset="1" stop-color="#ff9a00"/></linearGradient><linearGradient id="K" gradientUnits="userSpaceOnUse" x1="42" x2="54" y1="32" y2="32"><stop offset="0" stop-color="#46cc00"/><stop offset="1" stop-color="#85cc00"/></linearGradient><linearGradient id="L" gradientUnits="userSpaceOnUse" x1="28" x2="38.099506" y1="31" y2="25.169048"><stop offset="0" stop-color="#00b4b4"/><stop offset="1" stop-color="#00b464"/></linearGradient><linearGradient id="M" gradientUnits="userSpaceOnUse" x1="19" x2="25" y1="44" y2="34"><stop offset="0" stop-color="#03c"/><stop offset="1" stop-color="#0e7eff"/></linearGradient><linearGradient id="N" gradientUnits="userSpaceOnUse" x1="18" x2="18" y1="60" y2="47.958405"><stop offset="0" stop-color="#609"/><stop offset="1" stop-color="#330eac"/></linearGradient><g transform="matrix(.7 0 0 .7 1.2 18)"><g transform="matrix(1.0714286 0 0 1.0714286 -110.85633 -31.885595)"><path d="m114.1583 89.09322c-4.78901 0-8.71691-3.971039-8.71691-8.812629v-62.374743c0-4.841588 3.9279-8.812628 8.71691-8.812628h38.74855l30.7169 30.812628v40.374743c0 4.84159-3.9279 8.812629-8.7169 8.812629z" fill="url(#f)" opacity=".08"/><path d="m114.2634 88.09322c-4.30575 0-7.82165-3.55537-7.82165-7.909474v-62.181052c0-4.354104 3.5159-7.909474 7.82165-7.909474h38.36008l30 30v40.090526c0 4.354104-3.51589 7.909474-7.82165 7.909474z" fill="url(#g)" opacity=".1"/><path d="m114.35075 87.09322c-3.80788 0-6.90909-3.13685-6.90909-6.98851v-62.02298c0-3.851661 3.10121-6.98851 6.90909-6.98851h38.27273l29 29v40.01149c0 3.85166-3.1012 6.98851-6.90909 6.98851z" fill="url(#h)" opacity=".2"/><path d="m114.46511-86.093224h60.13512c3.33689 0 6.02326 2.717977 6.02326 6.094118v38.905886l-29.00001 28.999996h-37.15837c-3.33688 0-6.02325-2.717976-6.02325-6.094117v-61.811765c0-3.376141 2.68637-6.094118 6.02325-6.094118z" fill="url(#c)" opacity=".3" transform="scale(1 -1)"/><path d="m114.58491-85.093224h59.89572c2.84914 0 5.07622 2.294494 5.14286 5.142858v38.857146l-28.00001 27.999996h-37.03857c-2.84914 0-5.14285-2.293714-5.14285-5.142857v-61.714285c0-2.849143 2.29371-5.142858 5.14285-5.142858z" fill="url(#d)" opacity=".45" transform="scale(1 -1)"/></g><g transform="matrix(1.0714286 0 0 1.0714286 -39.617384 105.15619)"><path d="m48.042892-113.81244h37.999998l27 27v38.000001c0 2.77-2.23 5-5 5h-59.999998c-2.77 0-5-2.23-5-5v-60.000001c0-2.77 2.23-5 5-5z" fill="url(#i)"/><path d="m48.042897-113.81244c-2.770002 0-5.000003 2.23916-5.000003 5.02055v1.67351 54.899511c3.856259 8.137855.998427 5.789227.833337.836756v-54.899507-1.67352c0-2.32773 1.848461-4.18379 4.166669-4.18379h1.666668 34.666692 1.66667l26.16667 26.18379v1.67352 32.899507c-2.34559 6.154455.83329 6.970762.83329-.836758v-32.899509-1.67352l-27-27.02054z" fill="url(#k)" opacity=".3"/></g><path d="m6.5000025 52.142855c0 3.36357 2.3892855 6.071428 5.3571425 6.071428h64.285714c2.967857 0 5.357143-2.707858 5.357143-6.071428v-13.571426h-74.9999995z" fill="url(#e)"/><path d="m11.857145 58.214283c-2.967857 0-5.3571425-2.399103-5.3571425-5.379155v-1.793053c.0365465-10.900962.8928589-11.133427.8928589-.896578v1.793052c0 2.493998 1.9804926 4.48263 4.4642856 4.48263h1.785716 60.714274 1.785718c2.483796 0 4.464289-1.988632 4.464289-4.48263v-1.793053c.08764-12.153031.892875-7.994396.892875.896527v1.793052c-.000021 2.980105-2.389307 5.379208-5.357164 5.379208z" fill="url(#j)" opacity=".2"/><g transform="matrix(.7087486 0 0 .7087486 1.209302 -9.667773)"><path d="m78 48c-3.313709 0-6 2.68629-6 6s2.686291 6 6 6 6-2.68629 6-6-2.686291-6-6-6zm-12 2c-2.209139 0-4 1.79086-4 4s1.790861 4 4 4 4-1.79086 4-4-1.790861-4-4-4zm-8 2c-1.104569 0-2 .89543-2 2s.895431 2 2 2 2-.89543 2-2-.895431-2-2-2z" fill="url(#H)"/><path d="m70.980762 33.80385c-2.869756 1.65685-3.853007 5.32639-2.196152 8.19615 1.656854 2.86976 5.326396 3.85301 8.196152 2.19615 2.869756-1.65685 3.853007-5.32639 2.196153-8.19615-1.656855-2.86976-5.326397-3.85301-8.196153-2.19615zm-9.392305 7.73205c-1.91317 1.10457-2.568671 3.55093-1.464101 5.4641 1.104569 1.91317 3.550931 2.56867 5.464101 1.4641 1.913171-1.10457 2.568671-3.55093 1.464102-5.4641-1.10457-1.91317-3.550931-2.56867-5.464102-1.4641zm-5.928203 5.73205c-.956585.55228-1.284335 1.77546-.732051 2.73205.552285.95659 1.775466 1.28434 2.732051.73205.956585-.55228 1.284335-1.77546.732051-2.73205-.552285-.95659-1.775466-1.28433-2.732051-.73205z" fill="url(#I)"/><path d="m57.803848 25.01924c-1.656855 2.86975-.673604 6.5393 2.196152 8.19615s6.539298.6736 8.196152-2.19615c1.656855-2.86976.673604-6.5393-2.196152-8.19615-2.869756-1.65686-6.539298-.67361-8.196152 2.19615zm-4.26795 11.3923c-1.104569 1.91317-.449068 4.35953 1.464102 5.4641s4.359532.44907 5.464102-1.4641c1.104569-1.91317.449068-4.35953-1.464102-5.4641s-4.359532-.44907-5.464102 1.4641zm-2.267949 7.92821c-.552284.95658-.224534 2.17976.732051 2.73205.956585.55228 2.179766.22453 2.732051-.73205.552284-.95659.224534-2.17977-.732051-2.73205-.956585-.55229-2.179766-.22454-2.732051.73205z" fill="url(#J)"/><path d="m42.000001 24c-.000001 3.31371 2.68629 6 5.999999 6s6-2.68629 6-6-2.686291-6-6-6-6 2.68629-5.999999 6zm1.999999 12c0 2.20914 1.790862 4 4 4 2.209139 0 4-1.79086 4.000001-4-.000001-2.20914-1.790863-4-4.000001-4s-4 1.79086-4 4zm2 8c.000001 1.10457.895431 2 2 2s2-.89543 2-2-.895431-2-2-2-2 .89543-2 2z" fill="url(#K)"/><path d="m27.803849 31.01924c1.656853 2.86975 5.326395 3.85301 8.196151 2.19615 2.869756-1.65685 3.853007-5.3264 2.196152-8.19615-1.656854-2.86976-5.326396-3.85301-8.196152-2.19615-2.869756 1.65685-3.853007 5.32639-2.196151 8.19615zm7.732049 9.3923c1.10457 1.91317 3.550932 2.56867 5.464102 1.4641 1.913171-1.10457 2.568671-3.55093 1.464103-5.4641-1.104571-1.91317-3.550933-2.56867-5.464103-1.4641s-2.568671 3.55093-1.464102 5.4641zm5.732051 5.92821c.552286.95658 1.775466 1.28433 2.732051.73205.956585-.55229 1.284335-1.77547.732051-2.73205-.552285-.95659-1.775466-1.28434-2.732051-.73205-.956585.55228-1.284335 1.77546-.732051 2.73205z" fill="url(#L)"/><path d="m19.019239 44.19615c2.869755 1.65686 6.539297.67361 8.196152-2.19615 1.656854-2.86976.673603-6.5393-2.196153-8.19615-2.869756-1.65686-6.539298-.67361-8.196152 2.19615-1.656855 2.86976-.673604 6.5393 2.196153 8.19615zm11.392303 4.26795c1.913171 1.10457 4.359533.44907 5.464103-1.4641 1.104569-1.91317.449068-4.35953-1.464101-5.4641-1.913172-1.10457-4.359534-.44907-5.464103 1.4641s-.449069 4.35953 1.464101 5.4641zm7.928204 2.26795c.956586.55229 2.179766.22454 2.732051-.73205.552285-.95658.224534-2.17977-.732051-2.73205s-2.179766-.22454-2.732051.73205c-.552284.95659-.224534 2.17977.732051 2.73205z" fill="url(#M)"/><path d="m18.000001 60c3.313708 0 5.999999-2.68629 6-6-.000001-3.31371-2.686292-6-6.000001-6s-6 2.68629-5.999999 6c-.000001 3.31371 2.68629 6 6 6zm11.999999-2c2.209139 0 4-1.79086 4.000001-4-.000001-2.20914-1.790862-4-4.000001-4s-4 1.79086-4 4 1.790861 4 4 4zm8-2c1.10457 0 2-.89543 2-2 .000001-1.10457-.895431-2-2-2s-2 .89543-2 2 .895431 2 2 2z" fill="url(#N)"/></g><path d="m43.694065-16.752387c5.137078-.03348 1.879587 31.017222 1.879587 31.017222s35.952525-7.1678051 35.952525 5.078738c0-2.983162-.009-6.343468-.009-6.343468l-29.605364-29.74858z" fill-rule="evenodd" opacity=".2" stroke-width="1.995053"/><g opacity=".3" transform="matrix(.7087486 0 0 .7087486 72.084163 -10.376523)"><path d="m-22 48c-3.313709 0-6 2.68629-6 6s2.686291 6 6 6 6-2.68629 6-6-2.686291-6-6-6z" fill="url(#m)"/><path d="m-34 50c-2.209139 0-4 1.79086-4 4s1.790861 4 4 4 4-1.79086 4-4-1.790861-4-4-4z" fill="url(#n)"/><path d="m-42 52c-1.104569 0-2 .89543-2 2s.895431 2 2 2 2-.89543 2-2-.895431-2-2-2z" fill="url(#o)"/><path d="m-29.019238 33.80385c-2.869756 1.65685-3.853007 5.32639-2.196152 8.19615 1.656854 2.86976 5.326396 3.85301 8.196152 2.19615 2.869756-1.65685 3.853007-5.32639 2.196153-8.19615-1.656855-2.86976-5.326397-3.85301-8.196153-2.19615z" fill="url(#p)"/><path d="m-38.411543 41.5359c-1.91317 1.10457-2.568671 3.55093-1.464101 5.4641 1.104569 1.91317 3.550931 2.56867 5.464101 1.4641 1.913171-1.10457 2.568671-3.55093 1.464102-5.4641-1.10457-1.91317-3.550931-2.56867-5.464102-1.4641z" fill="url(#q)"/><path d="m-44.339746 47.26795c-.956585.55228-1.284335 1.77546-.732051 2.73205.552285.95659 1.775466 1.28434 2.732051.73205.956585-.55228 1.284335-1.77546.732051-2.73205-.552285-.95659-1.775466-1.28433-2.732051-.73205z" fill="url(#r)"/><path d="m-42.196152 25.01924c-1.656855 2.86975-.673604 6.5393 2.196152 8.19615s6.539298.6736 8.196152-2.19615c1.656855-2.86976.673604-6.5393-2.196152-8.19615-2.869756-1.65686-6.539298-.67361-8.196152 2.19615z" fill="url(#s)"/><path d="m-46.464102 36.41154c-1.104569 1.91317-.449068 4.35953 1.464102 5.4641s4.359532.44907 5.464102-1.4641c1.104569-1.91317.449068-4.35953-1.464102-5.4641s-4.359532-.44907-5.464102 1.4641z" fill="url(#t)"/><path d="m-48.732051 44.33975c-.552284.95658-.224534 2.17976.732051 2.73205.956585.55228 2.179766.22453 2.732051-.73205.552284-.95659.224534-2.17977-.732051-2.73205-.956585-.55229-2.179766-.22454-2.732051.73205z" fill="url(#u)"/><path d="m-57.999999 24c-.000001 3.31371 2.68629 6 5.999999 6s6-2.68629 6-6-2.686291-6-6-6-6 2.68629-5.999999 6z" fill="url(#v)"/><path d="m-56 36c0 2.20914 1.790862 4 4 4 2.209139 0 4-1.79086 4.000001-4-.000001-2.20914-1.790863-4-4.000001-4s-4 1.79086-4 4z" fill="url(#w)"/><path d="m-54 44c.000001 1.10457.895431 2 2 2s2-.89543 2-2-.895431-2-2-2-2 .89543-2 2z" fill="url(#x)"/><path d="m-72.196151 31.01924c1.656853 2.86975 5.326395 3.85301 8.196151 2.19615 2.869756-1.65685 3.853007-5.3264 2.196152-8.19615-1.656854-2.86976-5.326396-3.85301-8.196152-2.19615-2.869756 1.65685-3.853007 5.32639-2.196151 8.19615z" fill="url(#y)"/><path d="m-64.464102 40.41154c1.10457 1.91317 3.550932 2.56867 5.464102 1.4641 1.913171-1.10457 2.568671-3.55093 1.464103-5.4641-1.104571-1.91317-3.550933-2.56867-5.464103-1.4641s-2.568671 3.55093-1.464102 5.4641z" fill="url(#z)"/><path d="m-58.732051 46.33975c.552286.95658 1.775466 1.28433 2.732051.73205.956585-.55229 1.284335-1.77547.732051-2.73205-.552285-.95659-1.775466-1.28434-2.732051-.73205-.956585.55228-1.284335 1.77546-.732051 2.73205z" fill="url(#A)"/><path d="m-80.980761 44.19615c2.869755 1.65686 6.539297.67361 8.196152-2.19615 1.656854-2.86976.673603-6.5393-2.196153-8.19615-2.869756-1.65686-6.539298-.67361-8.196152 2.19615-1.656855 2.86976-.673604 6.5393 2.196153 8.19615z" fill="url(#B)"/><path d="m-69.588458 48.4641c1.913171 1.10457 4.359533.44907 5.464103-1.4641 1.104569-1.91317.449068-4.35953-1.464101-5.4641-1.913172-1.10457-4.359534-.44907-5.464103 1.4641s-.449069 4.35953 1.464101 5.4641z" fill="url(#C)"/><path d="m-61.660254 50.73205c.956586.55229 2.179766.22454 2.732051-.73205.552285-.95658.224534-2.17977-.732051-2.73205s-2.179766-.22454-2.732051.73205c-.552284.95659-.224534 2.17977.732051 2.73205z" fill="url(#D)"/><path d="m-81.999999 60c3.313708 0 5.999999-2.68629 6-6-.000001-3.31371-2.686292-6-6.000001-6s-6 2.68629-5.999999 6c-.000001 3.31371 2.68629 6 6 6z" fill="url(#E)"/><path d="m-70 58c2.209139 0 4-1.79086 4.000001-4-.000001-2.20914-1.790862-4-4.000001-4s-4 1.79086-4 4 1.790861 4 4 4z" fill="url(#F)"/><path d="m-62 56c1.10457 0 2-.89543 2-2 .000001-1.10457-.895431-2-2-2s-2 .89543-2 2 .895431 2 2 2z" fill="url(#G)"/></g><g fill-rule="evenodd"><path d="m44.813635-16.709453c5.60792-.03348 2.370157 29.409725 2.370157 29.409725s34.154277-6.6177114 34.154277 5.298795c0-2.902768-.0088-6.172516-.0088-6.172516l-28.577099-28.532198z" opacity=".2" stroke-width="1.941287"/><path d="m46.257197-16.741222c5.654616-.0073 2.261853 27.448842 2.261853 27.448842s32.988522-5.4051998 32.988522 6.06048c0-2.792949-.0085-3.796138-.0085-3.796138l-29.767428-29.732304z" opacity=".2" stroke-width="1.871432"/><path d="m47.578312-16.755847c6.006363 0 2.163461 25.935733 2.163461 25.935733s31.765441-4.6711083 31.765441 6.389377c0-2.694248-.0081-3.586255-.0081-3.586255l-28.791275-28.757298z" fill="url(#l)" stroke-width="1.805296"/></g><path d="m6.5000025 38.571429h74.9999995v1.428571h-74.9999995z" opacity=".3"/><path d="m6.5000025 37.142858h74.9999995v1.428571h-74.9999995z" fill="#fff" opacity=".1"/><g fill="#fff" transform="matrix(.84994926 0 0 .84994926 1.90975 -23.732388)"><path d="m42.014929 89.297722q-.776367.402832-1.618653.60791-.842285.205078-1.757812.205078-2.731934 0-4.328613-1.523437-1.59668-1.530762-1.59668-4.145508 0-2.62207 1.59668-4.145508 1.596679-1.530762 4.328613-1.530762.915527 0 1.757812.205078.842286.205079 1.618653.607911v2.263183q-.783692-.534668-1.54541-.783691-.761719-.249024-1.604004-.249024-1.508789 0-2.373047.966797-.864258.966797-.864258 2.666016 0 1.691894.864258 2.658691.864258.966797 2.373047.966797.842285 0 1.604004-.249023.761718-.249024 1.54541-.783692z"/><path d="m52.261511 79.307487v2.314454q-.900879-.402832-1.757813-.607911-.856933-.205078-1.618652-.205078-1.010742 0-1.494141.278321-.483398.27832-.483398.864257 0 .439454.322266.688477.329589.241699 1.186523.41748l1.201172.2417q1.82373.366211 2.592773 1.113281.769043.74707.769043 2.124023 0 1.809082-1.07666 2.695313-1.069336.878906-3.273926.878906-1.040039 0-2.087402-.197754-1.047363-.197754-2.094727-.585937v-2.380371q1.047364.55664 2.021485.842285.981445.27832 1.889648.27832.922852 0 1.413574-.307617.490723-.307617.490723-.878906 0-.512696-.336914-.791016-.32959-.27832-1.325684-.498047l-1.091308-.241699q-1.640625-.351563-2.402344-1.120606-.754394-.769042-.754394-2.072753 0-1.633301 1.054687-2.512207 1.054688-.878907 3.032227-.878907.900879 0 1.853027.13916.952148.131836 1.970215.402832z"/><path d="m62.39823 79.307487v2.314454q-.900879-.402832-1.757813-.607911-.856933-.205078-1.618652-.205078-1.010742 0-1.494141.278321-.483398.27832-.483398.864257 0 .439454.322265.688477.32959.241699 1.186524.41748l1.201172.2417q1.82373.366211 2.592773 1.113281.769043.74707.769043 2.124023 0 1.809082-1.07666 2.695313-1.069336.878906-3.273926.878906-1.040039 0-2.087402-.197754-1.047364-.197754-2.094727-.585937v-2.380371q1.047363.55664 2.021485.842285.981445.27832 1.889648.27832.922852 0 1.413574-.307617.490723-.307617.490723-.878906 0-.512696-.336914-.791016-.32959-.27832-1.325684-.498047l-1.091308-.241699q-1.640625-.351563-2.402344-1.120606-.754395-.769042-.754395-2.072753 0-1.633301 1.054688-2.512207 1.054687-.878907 3.032226-.878907.900879 0 1.853028.13916.952148.131836 1.970215.402832z"/></g></g></svg>