<svg height="96" width="96" xmlns="http://www.w3.org/2000/svg" xmlns:xlink="http://www.w3.org/1999/xlink"><linearGradient id="a"><stop offset="0" stop-color="#2557a3"/><stop offset="1" stop-color="#5287d7"/></linearGradient><linearGradient id="b"><stop offset="0" stop-color="#fff"/><stop offset="1" stop-color="#fff" stop-opacity="0"/></linearGradient><linearGradient id="c" gradientUnits="userSpaceOnUse" x1="36.357143" x2="36.357143" xlink:href="#b" y1="6" y2="63.893143"/><radialGradient id="d" cx="48" cy="90.171875" gradientTransform="matrix(1.1573129 0 0 .99590774 -7.551021 .197132)" gradientUnits="userSpaceOnUse" r="42" xlink:href="#b"/><linearGradient id="e" gradientUnits="userSpaceOnUse" x1="48" x2="48" xlink:href="#a" y1="90" y2="5.987717"/><clipPath id="f"><path d="m12 96c-3.324 0-6 2.676-6 6v72c0 3.324 2.676 6 6 6h72c3.324 0 6-2.676 6-6v-72c0-3.324-2.676-6-6-6zm36 11c18.225397 0 33 12.08831 33 27s-14.774603 27-33 27c-2.713933 0-5.351493-.27575-7.875-.78125-3.392649 3.54119-9.783335 8.23332-19.40625 7.1875 7.429736-2.10018 8.999125-8.24125 9.34375-10.75-9.06274-4.81279-15.0625-13.15781-15.0625-22.65625 0-14.91169 14.774603-27 33-27z"/></clipPath><linearGradient gradientUnits="userSpaceOnUse" x1="48" x2="48" xlink:href="#a" y1="180" y2="95.987717"/><filter id="g" color-interpolation-filters="sRGB" height="1.376186" width="1.34515" x="-.172575" y="-.188093"><feGaussianBlur stdDeviation="4.745809"/></filter><linearGradient id="h" gradientUnits="userSpaceOnUse" x1="46.125015" x2="46.125015" y1="63.048103" y2="24.840103"><stop offset="0" stop-color="#dcdcdc"/><stop offset="1" stop-color="#f0f0f0"/></linearGradient><linearGradient id="i" gradientUnits="userSpaceOnUse" x1="15" x2="106.50636" y1="47.277454" y2="47.024918"><stop offset="0" stop-color="#154a99"/><stop offset="1" stop-color="#154a99" stop-opacity="0"/></linearGradient><filter id="j" color-interpolation-filters="sRGB" height="1.232132" width="1.37942" x="-.18971" y="-.116066"><feGaussianBlur stdDeviation="1.8477742"/></filter><linearGradient id="k" gradientTransform="matrix(1.0058652 0 0 .994169 100 0)" gradientUnits="userSpaceOnUse" x1="45.447727" x2="45.447727" y1="92.539597" y2="7.01654"><stop offset="0"/><stop offset="1" stop-opacity=".588235"/></linearGradient><linearGradient id="l" gradientTransform="matrix(1.0238095 0 0 1.0119048 -1.142857 -98.071429)" gradientUnits="userSpaceOnUse" x1="32.251034" x2="32.251034" xlink:href="#k" y1="6.131708" y2="90.238609"/><linearGradient id="m" gradientTransform="translate(0 -97)" gradientUnits="userSpaceOnUse" x1="32.251034" x2="32.251034" xlink:href="#k" y1="6.131708" y2="90.238609"/><g fill="url(#l)"><path d="m12-95.03125c-5.5110903 0-10.03125 4.52016-10.03125 10.03125v71c0 5.5110902 4.5201598 10.03125 10.03125 10.03125h72c5.51109 0 10.03125-4.5201597 10.03125-10.03125v-71c0-5.51109-4.52016-10.03125-10.03125-10.03125z" opacity=".08" transform="scale(1 -1)"/><path d="m12-94.03125c-4.971633 0-9.03125 4.059617-9.03125 9.03125v71c0 4.9716329 4.0596171 9.03125 9.03125 9.03125h72c4.971633 0 9.03125-4.059617 9.03125-9.03125v-71c0-4.971633-4.059617-9.03125-9.03125-9.03125z" opacity=".1" transform="scale(1 -1)"/><path d="m12-93c-4.4091333 0-8 3.590867-8 8v71c0 4.4091333 3.5908667 8 8 8h72c4.409133 0 8-3.5908667 8-8v-71c0-4.409133-3.590867-8-8-8z" opacity=".2" transform="scale(1 -1)"/><rect height="85" opacity=".3" rx="7" transform="scale(1 -1)" width="86" x="5" y="-92"/></g><rect fill="url(#m)" height="84" opacity=".45" rx="6" transform="scale(1 -1)" width="84" x="6" y="-91"/><g><rect fill="url(#e)" height="84" rx="6" width="84" x="6" y="6"/><path d="m12 6c-3.324 0-6 2.676-6 6v2 68 2c0 .334721.04135.6507.09375.96875.0487.295596.09704.596915.1875.875.00988.03038.020892.0636.03125.09375.098865.287771.2348802.547452.375.8125.1445918.273507.3156161.535615.5.78125s.3737765.473472.59375.6875c.439947.428056.94291.814526 1.5 1.09375.278545.139612.5734731.246947.875.34375-.2562018-.100222-.4867109-.236272-.71875-.375-.00741-.0044-.023866.0045-.03125 0-.031933-.0193-.062293-.04251-.09375-.0625-.120395-.0767-.2310226-.163513-.34375-.25-.1061728-.0808-.2132809-.161112-.3125-.25-.1779299-.161433-.3474596-.345388-.5-.53125-.1075789-.130255-.2183939-.265285-.3125-.40625-.025089-.03838-.038446-.08587-.0625-.125-.064763-.103032-.1302275-.204517-.1875-.3125-.1010083-.194706-.2056748-.415701-.28125-.625-.00796-.02181-.023589-.04055-.03125-.0625-.0318251-.09195-.0358045-.186831-.0625-.28125-.0303323-.106618-.0703894-.203031-.09375-.3125-.0728786-.341512-.125-.698205-.125-1.0625v-2-68-2c0-2.781848 2.2181517-5 5-5h2 68 2c2.781848 0 5 2.218152 5 5v2 68 2c0 .364295-.05212.720988-.125 1.0625-.04415.206893-.08838.397658-.15625.59375-.0077.02195-.0233.04069-.03125.0625-.06274.173739-.138383.367449-.21875.53125-.04158.0828-.07904.169954-.125.25-.0546.09721-.126774.18835-.1875.28125-.09411.140965-.204921.275995-.3125.40625-.143174.17445-.303141.346998-.46875.5-.01117.0102-.01998.02115-.03125.03125-.138386.125556-.285091.234436-.4375.34375-.102571.07315-.204318.153364-.3125.21875-.0074.0045-.02384-.0044-.03125 0-.232039.138728-.462548.274778-.71875.375.301527-.0968.596455-.204138.875-.34375.55709-.279224 1.060053-.665694 1.5-1.09375.219973-.214028.409366-.441865.59375-.6875s.355408-.507743.5-.78125c.14012-.265048.276135-.524729.375-.8125.01041-.03078.02133-.06274.03125-.09375.09046-.278085.1388-.579404.1875-.875.0524-.31805.09375-.634029.09375-.96875v-2-68-2c0-3.324-2.676-6-6-6z" fill="url(#c)" opacity=".4"/><path d="m12 90c-3.324 0-6-2.676-6-6v-2-68-2c0-.334721.04135-.6507.09375-.96875.0487-.295596.09704-.596915.1875-.875.00988-.03038.020892-.0636.03125-.09375.098865-.287771.2348802-.547452.375-.8125.1445918-.273507.3156161-.535615.5-.78125s.3737765-.473472.59375-.6875c.439947-.428056.94291-.814526 1.5-1.09375.278545-.139612.5734731-.246947.875-.34375-.2562018.100222-.4867109.236272-.71875.375-.00741.0044-.023866-.0045-.03125 0-.031933.0193-.062293.04251-.09375.0625-.120395.0767-.2310226.163513-.34375.25-.1061728.0808-.2132809.161112-.3125.25-.1779299.161433-.3474596.345388-.5.53125-.1075789.130255-.2183939.265285-.3125.40625-.025089.03838-.038446.08587-.0625.125-.064763.103032-.1302275.204517-.1875.3125-.1010083.194706-.2056748.415701-.28125.625-.00796.02181-.023589.04055-.03125.0625-.0318251.09195-.0358045.186831-.0625.28125-.0303323.106618-.0703894.203031-.09375.3125-.0728786.341512-.125.698205-.125 1.0625v2 68 2c0 2.781848 2.2181517 5 5 5h2 68 2c2.781848 0 5-2.218152 5-5v-2-68-2c0-.364295-.05212-.720988-.125-1.0625-.04415-.206893-.08838-.397658-.15625-.59375-.0077-.02195-.0233-.04069-.03125-.0625-.06274-.173739-.138383-.367449-.21875-.53125-.04158-.0828-.07904-.169954-.125-.25-.0546-.09721-.126774-.18835-.1875-.28125-.09411-.140965-.204921-.275995-.3125-.40625-.143174-.17445-.303141-.346998-.46875-.5-.01117-.0102-.01998-.02115-.03125-.03125-.138386-.125556-.285091-.234436-.4375-.34375-.102571-.07315-.204318-.153364-.3125-.21875-.0074-.0045-.02384.0044-.03125 0-.232039-.138728-.462548-.274778-.71875-.375.301527.0968.596455.204138.875.34375.55709.279224 1.060053.665694 1.5 1.09375.219973.214028.409366.441865.59375.6875s.355408.507743.5.78125c.14012.265048.276135.524729.375.8125.01041.03078.02133.06274.03125.09375.09046.278085.1388.579404.1875.875.0524.31805.09375.634029.09375.96875v2 68 2c0 3.324-2.676 6-6 6z" fill="url(#d)" opacity=".2"/></g><path clip-path="url(#f)" d="m48 107c-18.225397 0-33 12.08831-33 27 0 9.49844 5.99976 17.84346 15.0625 22.65625-.344625 2.50875-1.914014 8.64982-9.34375 10.75 9.622915 1.04582 16.013601-3.64631 19.40625-7.1875 2.523507.5055 5.161067.78125 7.875.78125 18.225397 0 33-12.08831 33-27s-14.774603-27-33-27z" fill="#fff" filter="url(#g)" opacity=".2" transform="translate(0 -90)"/><path d="m-52 17c-18.225397 0-33 12.088312-33 27 0 9.498438 5.99976 17.843462 15.0625 22.65625-.344625 2.508754-1.914014 8.649817-9.34375 10.75 9.622915 1.045823 16.013601-3.646306 19.40625-7.1875 2.523507.505501 5.161067.78125 7.875.78125 18.225397 0 33-12.088312 33-27s-14.774603-27-33-27z" fill="#d40000" opacity=".4"/><path d="m48 17c-18.225397 0-33 12.088312-33 27 0 9.498438 5.99976 17.843462 15.0625 22.65625-.344625 2.508754-1.914014 8.649817-9.34375 10.75 9.622915 1.045823 16.013601-3.646306 19.40625-7.1875 2.523507.505501 5.161067.78125 7.875.78125 18.225397 0 33-12.088312 33-27s-14.774603-27-33-27z" fill="url(#i)" opacity=".6"/><path d="m15 44.40625c-.0053.200069 0 .392631 0 .59375 0 9.441618 5.934255 17.73658 14.90625 22.5625.06714-.329302.120551-.646372.15625-.90625-8.933715-4.744269-14.894683-12.91964-15.0625-22.25zm66 .09375c-.330357 14.677737-14.981603 26.5-33 26.5-2.713933 0-5.351493-.275749-7.875-.78125-3.113855 3.250193-8.747725 7.449531-17.09375 7.3125-.700608.332399-1.466906.635974-2.3125.875 9.622915 1.045823 16.013601-3.646306 19.40625-7.1875 2.523507.505501 5.161067.78125 7.875.78125 18.225397 0 33-12.088312 33-27 0-.169364.0038-.331378 0-.5z" fill="#fff" opacity=".2"/><path d="m48 17c-18.225397 0-33 12.088312-33 27 0 9.498438 5.99976 17.843462 15.0625 22.65625-.344625 2.508754-1.914014 8.649817-9.34375 10.75 9.622915 1.045823 16.013601-3.646306 19.40625-7.1875 2.523507.505501 5.161067.78125 7.875.78125 18.225397 0 33-12.088312 33-27s-14.774603-27-33-27zm0 2.9375c16.920322 0 30.0625 11.100368 30.0625 24.0625s-13.142178 24.0625-30.0625 24.0625c-2.514011 0-4.943414-.281692-7.28125-.75a2.9517629 2.9517629 0 0 0 -2.71875.875c-1.62088 1.691849-4.004104 3.567605-7.125 4.875 1.341535-2.353896 1.934715-4.614792 2.125-6a2.9517629 2.9517629 0 0 0 -1.5625-3c-8.291128-4.403022-13.5-11.80694-13.5-20.0625 0-12.962132 13.142178-24.0625 30.0625-24.0625z" opacity=".05"/><path d="m48 17c-18.225397 0-33 12.088312-33 27 0 9.498438 5.99976 17.843462 15.0625 22.65625-.344625 2.508754-1.914014 8.649817-9.34375 10.75 9.622915 1.045823 16.013601-3.646306 19.40625-7.1875 2.523507.505501 5.161067.78125 7.875.78125 18.225397 0 33-12.088312 33-27s-14.774603-27-33-27zm0 1.875c17.393221 0 31.125 11.456439 31.125 25.125s-13.731779 25.125-31.125 25.125c-2.586453 0-5.094885-.268215-7.5-.75a1.8821808 1.8821808 0 0 0 -1.71875.53125c-2.229762 2.327391-5.862118 5.104965-10.90625 6.21875.603013-.636706 1.319873-1.240512 1.75-1.90625 1.573141-2.434865 2.115946-4.881651 2.3125-6.3125a1.8821808 1.8821808 0 0 0 -1-1.90625c-8.570725-4.551502-14.0625-12.294079-14.0625-21 0-13.668561 13.731779-25.125 31.125-25.125z" opacity=".08"/><path d="m48 17c-18.225397 0-33 12.088312-33 27 0 9.498438 5.99976 17.843462 15.0625 22.65625-.344625 2.508754-1.914014 8.649817-9.34375 10.75 9.622915 1.045823 16.013601-3.646306 19.40625-7.1875 2.523507.505501 5.161067.78125 7.875.78125 18.225397 0 33-12.088312 33-27s-14.774603-27-33-27zm0 1.0625c17.7572 0 31.9375 11.725217 31.9375 25.9375s-14.1803 25.9375-31.9375 25.9375c-2.642211 0-5.199353-.257842-7.65625-.75a1.0589482 1.0589482 0 0 0 -.96875.3125c-2.643757 2.759512-7.248859 6.049087-13.78125 6.71875 1.442602-1.037266 2.550304-2.240676 3.34375-3.46875 1.481728-2.293379 2.001549-4.583837 2.1875-5.9375a1.0589482 1.0589482 0 0 0 -.5625-1.09375c-8.785923-4.665784-14.5-12.666196-14.5-21.71875 0-14.212283 14.1803-25.9375 31.9375-25.9375z" opacity=".15"/><g><g filter="url(#j)" opacity=".8" transform="matrix(.94113621 0 0 .94221106 4.590079 4.595379)"><path d="m57.813014 34.824104c-.000024 2.400023-.736023 4.464021-2.208 6.192-.448021.576019-1.79202 1.744018-4.032 3.504-1.472016 1.184015-2.208015 2.288014-2.208 3.312v1.68h-8.88v-2.736c-.000006-1.823985.703993-3.519983 2.112-5.088.03199-.06398 1.32799-1.24798 3.888-3.552 1.407986-1.247977 2.111985-2.399975 2.112-3.456-.000015-.703974-.272014-1.279973-.816-1.728-.544013-.479972-1.184013-.719972-1.92-.72-.960011.000028-1.68001.352028-2.16 1.056-.480009.704026-.704009 1.552026-.672 2.544h-8.592v-.768c0-3.167972 1.167998-5.695969 3.504-7.584 2.143994-1.759965 4.831991-2.639964 8.064-2.64 3.199985.000036 5.919982.848035 8.16 2.544 2.431977 1.856031 3.647976 4.336029 3.648 7.44m-7.872 23.328c-.000016 1.440001-.464015 2.608-1.392 3.504-.896014.927998-2.064012 1.391997-3.504 1.392-1.44001-.000003-2.624008-.464002-3.552-1.392-.896007-.896-1.344006-2.063999-1.344-3.504-.000006-1.439996.447993-2.623995 1.344-3.552.927992-.927993 2.11199-1.391993 3.552-1.392 1.439988.000007 2.607986.464007 3.504 1.392.927985.928005 1.391984 2.112004 1.392 3.552"/></g><path d="m57.813014 34.824104c-.000024 2.400023-.736023 4.464021-2.208 6.192-.448021.576019-1.79202 1.744018-4.032 3.504-1.472016 1.184015-2.208015 2.288014-2.208 3.312v1.68h-8.88v-2.736c-.000006-1.823985.703993-3.519983 2.112-5.088.03199-.06398 1.32799-1.24798 3.888-3.552 1.407986-1.247977 2.111985-2.399975 2.112-3.456-.000015-.703974-.272014-1.279973-.816-1.728-.544013-.479972-1.184013-.719972-1.92-.72-.960011.000028-1.68001.352028-2.16 1.056-.480009.704026-.704009 1.552026-.672 2.544h-8.592v-.768c0-3.167972 1.167998-5.695969 3.504-7.584 2.143994-1.759965 4.831991-2.639964 8.064-2.64 3.199985.000036 5.919982.848035 8.16 2.544 2.431977 1.856031 3.647976 4.336029 3.648 7.44m-7.872 23.328c-.000016 1.440001-.464015 2.608-1.392 3.504-.896014.927998-2.064012 1.391997-3.504 1.392-1.44001-.000003-2.624008-.464002-3.552-1.392-.896007-.896-1.344006-2.063999-1.344-3.504-.000006-1.439996.447993-2.623995 1.344-3.552.927992-.927993 2.11199-1.391993 3.552-1.392 1.439988.000007 2.607986.464007 3.504 1.392.927985.928005 1.391984 2.112004 1.392 3.552" fill="url(#h)" transform="matrix(.94113621 0 0 .94221106 4.590079 3.595379)"/><path d="m47.875 27c-3.041761.000034-5.544709.841742-7.5625 2.5-2.198496 1.778924-3.3125 4.140101-3.3125 7.125v.71875h.09375c.280046-2.387465 1.345144-4.327712 3.21875-5.84375 2.017791-1.658258 4.520739-2.499966 7.5625-2.5 3.011621.000034 5.579338.808293 7.6875 2.40625 2.036262 1.555805 3.149551 3.577803 3.375 6.0625.03484-.34621.0625-.700474.0625-1.0625-.000023-2.924596-1.148678-5.251227-3.4375-7-2.108162-1.597957-4.675879-2.406216-7.6875-2.40625zm2.21875 10.3125c-.28962.700055-.868872 1.436865-1.75 2.21875-2.409318 2.170873-3.62614 3.28347-3.65625 3.34375-1.325126 1.477403-2.000006 3.062671-2 4.78125v2c-.000006-1.718579.674874-3.303847 2-4.78125.03011-.06028 1.246932-1.172877 3.65625-3.34375 1.325107-1.175858 1.968736-2.255002 1.96875-3.25-.000008-.358281-.07419-.681674-.21875-.96875zm-3.125 16.40625c-1.355246.000007-2.439133.438135-3.3125 1.3125-.843265.874377-1.281256 1.986969-1.28125 3.34375-.000001.339196.03951.660559.09375.96875.16965-.899558.569224-1.671413 1.1875-2.3125.873367-.874365 1.957254-1.312493 3.3125-1.3125 1.355225.000007 2.469229.438135 3.3125 1.3125.640601.641347 1.047317 1.412472 1.21875 2.3125.05482-.308191.09375-.629554.09375-.96875-.000015-1.356781-.43914-2.469373-1.3125-3.34375-.843271-.874365-1.957275-1.312493-3.3125-1.3125z" fill="#fff"/></g></svg>