<svg height="96" width="96" xmlns="http://www.w3.org/2000/svg" xmlns:xlink="http://www.w3.org/1999/xlink"><linearGradient id="a" gradientTransform="scale(1.0058652 .994169)" gradientUnits="userSpaceOnUse" x1="45.447727" x2="45.447727" y1="92.539597" y2="7.01654"><stop offset="0"/><stop offset="1" stop-opacity=".588235"/></linearGradient><linearGradient id="b"><stop offset="0" stop-color="#fff"/><stop offset="1" stop-color="#fff" stop-opacity="0"/></linearGradient><filter id="c" color-interpolation-filters="sRGB"><feGaussianBlur stdDeviation="1.71"/></filter><linearGradient id="d" gradientUnits="userSpaceOnUse" x1="36.357143" x2="36.357143" xlink:href="#b" y1="6" y2="63.893143"/><radialGradient id="e" cx="48" cy="90.171875" gradientTransform="matrix(1.1573129 0 0 .99590774 -7.551021 .197132)" gradientUnits="userSpaceOnUse" r="42" xlink:href="#b"/><linearGradient id="f" gradientUnits="userSpaceOnUse" x1="48" x2="48" y1="190" y2="105.987717"><stop offset="0" stop-color="#2276c5"/><stop offset="1" stop-color="#68baf4"/></linearGradient><clipPath id="g"><path d="m0 0v96h96v-96zm12 6h72c3.324 0 6 2.676 6 6v72c0 3.324-2.676 6-6 6h-72c-3.324 0-6-2.676-6-6v-72c0-3.324 2.676-6 6-6z"/></clipPath><linearGradient id="h" gradientUnits="userSpaceOnUse" x1="44.512066" x2="44.512066" y1="6" y2="90.015434"><stop offset="0" stop-color="#f0f0f0"/><stop offset="1" stop-color="#dcdcdc"/></linearGradient><clipPath id="i"><rect height="76" rx="4" width="76" x="10" y="10"/></clipPath><filter id="j" color-interpolation-filters="sRGB"><feGaussianBlur stdDeviation="1.14"/></filter><linearGradient id="k" gradientUnits="userSpaceOnUse" x1="48" x2="48" y1="72" y2="24"><stop offset="0" stop-color="#aaa"/><stop offset="1" stop-color="#f0f0f0"/></linearGradient><rect clip-path="url(#g)" fill="url(#a)" filter="url(#c)" height="85" opacity=".9" rx="6" width="86" x="5" y="7"/><rect height="84" opacity=".7" rx="6" width="84" x="6" y="6"/><path d="m14 10c-2.216 0-4 1.784-4 4v68c0 2.216 1.784 4 4 4h68c2.216 0 4-1.784 4-4v-68c0-2.216-1.784-4-4-4zm0 3.0625h68c.578769 0 .9375.358731.9375.9375v68c0 .578769-.358731.9375-.9375.9375h-68c-.578769 0-.9375-.358731-.9375-.9375v-68c0-.578769.358731-.9375.9375-.9375z" opacity=".08"/><path d="m12 6c-3.324 0-6 2.676-6 6v72c0 3.324 2.676 6 6 6h72c3.324 0 6-2.676 6-6v-72c0-3.324-2.676-6-6-6zm2 4h68c2.216 0 4 1.784 4 4v68c0 2.216-1.784 4-4 4h-68c-2.216 0-4-1.784-4-4v-68c0-2.216 1.784-4 4-4z" fill="url(#h)"/><path d="m12 6c-3.324 0-6 2.676-6 6v2 68 2c0 .334721.04135.6507.09375.96875.0487.295596.09704.596915.1875.875.00988.03038.020892.0636.03125.09375.098865.287771.2348802.547452.375.8125.1445918.273507.3156161.535615.5.78125s.3737765.473472.59375.6875c.439947.428056.94291.814526 1.5 1.09375.278545.139612.5734731.246947.875.34375-.2562018-.100222-.4867109-.236272-.71875-.375-.00741-.0044-.023866.0045-.03125 0-.031933-.0193-.062293-.04251-.09375-.0625-.120395-.0767-.2310226-.163513-.34375-.25-.1061728-.0808-.2132809-.161112-.3125-.25-.1779299-.161433-.3474596-.345388-.5-.53125-.1075789-.130255-.2183939-.265285-.3125-.40625-.025089-.03838-.038446-.08587-.0625-.125-.064763-.103032-.1302275-.204517-.1875-.3125-.1010083-.194706-.2056748-.415701-.28125-.625-.00796-.02181-.023589-.04055-.03125-.0625-.0318251-.09195-.0358045-.186831-.0625-.28125-.0303323-.106618-.0703894-.203031-.09375-.3125-.0728786-.341512-.125-.698205-.125-1.0625v-2-68-2c0-2.781848 2.2181517-5 5-5h2 68 2c2.781848 0 5 2.218152 5 5v2 68 2c0 .364295-.05212.720988-.125 1.0625-.04415.206893-.08838.397658-.15625.59375-.0077.02195-.0233.04069-.03125.0625-.06274.173739-.138383.367449-.21875.53125-.04158.0828-.07904.169954-.125.25-.0546.09721-.126774.18835-.1875.28125-.09411.140965-.204921.275995-.3125.40625-.143174.17445-.303141.346998-.46875.5-.01117.0102-.01998.02115-.03125.03125-.138386.125556-.285091.234436-.4375.34375-.102571.07315-.204318.153364-.3125.21875-.0074.0045-.02384-.0044-.03125 0-.232039.138728-.462548.274778-.71875.375.301527-.0968.596455-.204138.875-.34375.55709-.279224 1.060053-.665694 1.5-1.09375.219973-.214028.409366-.441865.59375-.6875s.355408-.507743.5-.78125c.14012-.265048.276135-.524729.375-.8125.01041-.03078.02133-.06274.03125-.09375.09046-.278085.1388-.579404.1875-.875.0524-.31805.09375-.634029.09375-.96875v-2-68-2c0-3.324-2.676-6-6-6z" fill="url(#d)"/><path d="m12 90c-3.324 0-6-2.676-6-6v-2-68-2c0-.334721.04135-.6507.09375-.96875.0487-.295596.09704-.596915.1875-.875.00988-.03038.020892-.0636.03125-.09375.098865-.287771.2348802-.547452.375-.8125.1445918-.273507.3156161-.535615.5-.78125s.3737765-.473472.59375-.6875c.439947-.428056.94291-.814526 1.5-1.09375.278545-.139612.5734731-.246947.875-.34375-.2562018.100222-.4867109.236272-.71875.375-.00741.0044-.023866-.0045-.03125 0-.031933.0193-.062293.04251-.09375.0625-.120395.0767-.2310226.163513-.34375.25-.1061728.0808-.2132809.161112-.3125.25-.1779299.161433-.3474596.345388-.5.53125-.1075789.130255-.2183939.265285-.3125.40625-.025089.03838-.038446.08587-.0625.125-.064763.103032-.1302275.204517-.1875.3125-.1010083.194706-.2056748.415701-.28125.625-.00796.02181-.023589.04055-.03125.0625-.0318251.09195-.0358045.186831-.0625.28125-.0303323.106618-.0703894.203031-.09375.3125-.0728786.341512-.125.698205-.125 1.0625v2 68 2c0 2.781848 2.2181517 5 5 5h2 68 2c2.781848 0 5-2.218152 5-5v-2-68-2c0-.364295-.05212-.720988-.125-1.0625-.04415-.206893-.08838-.397658-.15625-.59375-.0077-.02195-.0233-.04069-.03125-.0625-.06274-.173739-.138383-.367449-.21875-.53125-.04158-.0828-.07904-.169954-.125-.25-.0546-.09721-.126774-.18835-.1875-.28125-.09411-.140965-.204921-.275995-.3125-.40625-.143174-.17445-.303141-.346998-.46875-.5-.01117-.0102-.01998-.02115-.03125-.03125-.138386-.125556-.285091-.234436-.4375-.34375-.102571-.07315-.204318-.153364-.3125-.21875-.0074-.0045-.02384.0044-.03125 0-.232039-.138728-.462548-.274778-.71875-.375.301527.0968.596455.204138.875.34375.55709.279224 1.060053.665694 1.5 1.09375.219973.214028.409366.441865.59375.6875s.355408.507743.5.78125c.14012.265048.276135.524729.375.8125.01041.03078.02133.06274.03125.09375.09046.278085.1388.579404.1875.875.0524.31805.09375.634029.09375.96875v2 68 2c0 3.324-2.676 6-6 6z" fill="url(#e)" opacity=".6"/><rect fill="url(#f)" height="84" rx="6" width="84" x="6" y="106"/><rect fill="#f00" height="76" rx="4" width="76" x="10" y="110"/><path clip-path="url(#i)" d="m14 9c-2.752703 0-5 2.247297-5 5v68c0 2.752703 2.247297 5 5 5h68c2.752703 0 5-2.247297 5-5v-68c0-2.752703-2.247297-5-5-5zm0 2h68c1.679297 0 3 1.320703 3 3v68c0 1.679297-1.320703 3-3 3h-68c-1.679297 0-3-1.320703-3-3v-68c0-1.679297 1.320703-3 3-3z" filter="url(#j)" transform="translate(-110)"/><path d="m14.089286 10c-2.216 0-4 1.784-4 4v68c0 2.216 1.784 4 4 4h68c2.216 0 4-1.784 4-4v-68c0-2.216-1.784-4-4-4zm0 2h68c1.140301 0 2 .859699 2 2v68c0 1.140301-.859699 2-2 2h-68c-1.140301 0-2-.859699-2-2v-68c0-1.140301.859699-2 2-2z" opacity=".16"/><path d="m14 10c-2.216 0-4 1.784-4 4v68c0 2.216 1.784 4 4 4h68c2.216 0 4-1.784 4-4v-68c0-2.216-1.784-4-4-4zm0 1h68c1.673848 0 3 1.326152 3 3v68c0 1.673848-1.326152 3-3 3h-68c-1.673848 0-3-1.326152-3-3v-68c0-1.673848 1.326152-3 3-3z" opacity=".36"/><g><path d="m48 22.03125c-14.856534 0-26.96875 12.112216-26.96875 26.96875s12.112216 26.96875 26.96875 26.96875 26.96875-12.112216 26.96875-26.96875-12.112216-26.96875-26.96875-26.96875zm-11.03125 24.21875 4.8125 2.78125-4.8125 2.78125zm12 0 4.8125 2.78125-4.8125 2.78125v-1.78125-.125a1.0401308 1.0401308 0 0 0 -.03125-.25 1.0401308 1.0401308 0 0 0 -.03125-.25l-.03125-.125a1.0401308 1.0401308 0 0 0 0-.09375l-.03125-.09375a1.0401308 1.0401308 0 0 0 -.03125-.0625 1.0401308 1.0401308 0 0 0 .03125-.0625l.03125-.09375a1.0401308 1.0401308 0 0 0 0-.09375l.03125-.125a1.0401308 1.0401308 0 0 0 .03125-.21875v-.03125a1.0401308 1.0401308 0 0 0 .03125-.25v-.125z" opacity=".08"/><path d="m48 23.0625c-14.291532 0-25.9375 11.645968-25.9375 25.9375s11.645968 25.9375 25.9375 25.9375 25.9375-11.645968 25.9375-25.9375-11.645968-25.9375-25.9375-25.9375zm11.9375 19.9375h.125v12.0625h-.125v-5.03125c0-.000005 0-.124995 0-.125s-.03125-.124995-.03125-.125c-.000001-.000005.000001-.124995 0-.125s-.03125-.124996-.03125-.125c-.000001-.000004-.03125-.09375-.03125-.09375-.000001-.000004-.0625-.124996-.0625-.125-.000002-.000004-.03125-.124996-.03125-.125-.000002-.000004-.0625-.124996-.0625-.125-.000001-.000002-.01932-.01159-.03125-.03125.01193-.01966.03125-.03125.03125-.03125.000002-.000004.0625-.124996.0625-.125.000002-.000004.03125-.124996.03125-.125.000002-.000004.0625-.124996.0625-.125.000001-.000004.03125-.09375.03125-.09375.000001-.000004.03125-.124995.03125-.125.000001-.000005-.000001-.124995 0-.125s.03125-.124995.03125-.125 0-.124995 0-.125zm-24 1.4375 7.9375 4.59375-7.9375 4.59375zm12 0 7.9375 4.59375-7.9375 4.59375v-3.59375c0-.000005 0-.124995 0-.125s-.03125-.124995-.03125-.125c-.000001-.000005.000001-.124995 0-.125s-.03125-.124996-.03125-.125c-.000001-.000004-.03125-.09375-.03125-.09375-.000001-.000004-.0625-.124996-.0625-.125-.000002-.000004-.03125-.124996-.03125-.125-.000002-.000004-.0625-.124996-.0625-.125-.000001-.000002-.01932-.01159-.03125-.03125.01193-.01966.03125-.03125.03125-.03125.000002-.000004.0625-.124996.0625-.125.000002-.000004.03125-.124996.03125-.125.000002-.000004.0625-.124996.0625-.125.000001-.000004.03125-.09375.03125-.09375.000001-.000004.03125-.124995.03125-.125.000001-.000005-.000001-.124995 0-.125s.03125-.124995.03125-.125 0-.124995 0-.125z" opacity=".1"/><path d="m48 24.03125c-13.772485 0-24.96875 11.196265-24.96875 24.96875s11.196265 24.96875 24.96875 24.96875 24.96875-11.196265 24.96875-24.96875-11.196265-24.96875-24.96875-24.96875zm10.96875 18h2.0625v14h-2.0625v-6a.9579274.9579274 0 0 0 -1.4375-.84375l-10.5625 6.125v-5.28125a.9579274.9579274 0 0 0 -1.4375-.84375l-10.5625 6.125v-12.5625l10.5625 6.125a.9579274.9579274 0 0 0 1.4375-.84375v-5.28125l10.5625 6.125a.9579274.9579274 0 0 0 1.4375-.84375z" opacity=".15"/><path d="m48 25c-13.254834 0-24 10.745166-24 24s10.745166 24 24 24 24-10.745166 24-24-10.745166-24-24-24zm-14 16.0625 12 6.96875v-6.96875l12 6.96875v-6.96875h4v15.9375h-4v-6.96875l-12 6.96875v-6.96875l-12 6.96875z" opacity=".3"/><path d="m48 24c-13.254834 0-24 10.745166-24 24s10.745166 24 24 24 24-10.745166 24-24-10.745166-24-24-24zm-14 16.0625 12 6.96875v-6.96875l12 6.96875v-6.96875h4v15.9375h-4v-6.96875l-12 6.96875v-6.96875l-12 6.96875z" fill="url(#k)"/><path d="m48 24c-13.254834 0-24 10.745166-24 24 0 .165582-.0033.335217 0 .5.263839-13.026064 10.910748-23.5 24-23.5s23.736161 10.473936 24 23.5c.003338-.164783 0-.334418 0-.5 0-13.254834-10.745166-24-24-24zm-2 25.03125-12 6.96875v1l12-6.96875zm12 0-12 6.96875v1l12-6.96875zm0 6.96875v1h4v-1z" fill="#fff" opacity=".75"/><path d="m34 39.0625v1l12 6.96875v-1zm12 0v1l12 6.96875v-1zm12 0v1h4v-1zm-34 8.4375c-.0033.164783 0 .334418 0 .5 0 13.254834 10.745166 24 24 24s24-10.745166 24-24c0-.165582.0033-.335217 0-.5-.263839 13.026064-10.910748 23.5-24 23.5s-23.736161-10.473936-24-23.5z" opacity=".15"/></g></svg>