<svg height="24" width="24" xmlns="http://www.w3.org/2000/svg" xmlns:xlink="http://www.w3.org/1999/xlink"><linearGradient id="a"><stop offset="0" stop-color="#ededed"/><stop offset="1" stop-color="#b0b0b0"/></linearGradient><linearGradient id="b"><stop offset="0" stop-color="#b4b4b4"/><stop offset=".20467032" stop-color="#646464"/><stop offset=".49567693" stop-color="#fff"/><stop offset="1" stop-color="#3c3c3c"/></linearGradient><linearGradient id="c" gradientUnits="userSpaceOnUse" x1="23.220372" x2="91.684659" y1="71.90767" y2="25.336242"><stop offset="0" stop-color="#c978e0"/><stop offset="1" stop-color="#dab4e4" stop-opacity="0"/></linearGradient><linearGradient id="d" gradientUnits="userSpaceOnUse" x1="42.932694" x2="42.932694" y1="70.317018" y2="3.740827"><stop offset="0" stop-color="#853798"/><stop offset="1" stop-color="#c78bd5"/></linearGradient><clipPath id="e"><path d="m66 6v55c0 1.662 1.338 3 3 3h6c1.662 0 3-1.338 3-3v-55h-4v2h-4v-2z"/></clipPath><filter id="f" color-interpolation-filters="sRGB" height="1.07322" width="1.332308" x="-.166154" y="-.03661"><feGaussianBlur stdDeviation=".9"/></filter><linearGradient id="g" gradientTransform="matrix(.49408989 0 0 .70361229 .420095 36.415006)" gradientUnits="userSpaceOnUse" x1="68.75" x2="75.25" xlink:href="#b" y1="59" y2="59"/><linearGradient id="h" gradientUnits="userSpaceOnUse" x1="31.73695290454" x2="39.49456737" y1="80.58697692489" y2="81.00543795"><stop offset="0" stop-color="#6c257e"/><stop offset="1" stop-color="#be66d4"/></linearGradient><linearGradient id="i" gradientTransform="matrix(-.43495657 0 0 .5232543 67.317063 47.346436)" gradientUnits="userSpaceOnUse" x1="68.96875" x2="75.0625" xlink:href="#a" y1="17.5" y2="17.5"/><linearGradient id="j" gradientTransform="matrix(.43495657 0 0 .5232543 4.669721 47.346436)" gradientUnits="userSpaceOnUse" x1="68.02903" x2="75.97097" xlink:href="#a" y1="17.763245" y2="17.763245"/><linearGradient id="k" gradientTransform="matrix(.56313458 0 0 .50000003 -3.70642 22.997622)" gradientUnits="userSpaceOnUse" x1="68.75" x2="72.250572" xlink:href="#b" y1="59" y2="59"/><linearGradient id="l" gradientTransform="matrix(1.0058652 0 0 .994169 100 0)" gradientUnits="userSpaceOnUse" x1="45.447727" x2="45.447727" y1="92.539597" y2="7.01654"><stop offset="0"/><stop offset="1" stop-opacity=".588235"/></linearGradient><linearGradient id="m" gradientTransform="matrix(1.0238095 0 0 1.0119048 -1.142857 -98.071429)" gradientUnits="userSpaceOnUse" x1="32.251034" x2="32.251034" xlink:href="#l" y1="6.131708" y2="90.238609"/><linearGradient id="n" gradientTransform="translate(0 -97)" gradientUnits="userSpaceOnUse" x1="32.251034" x2="32.251034" xlink:href="#l" y1="6.131708" y2="90.238609"/><linearGradient id="o" gradientTransform="matrix(.53315586 0 0 .68002831 -2.392653 37.944471)" gradientUnits="userSpaceOnUse" x1="69" x2="73" y1="54" y2="54"><stop offset="0" stop-color="#fff"/><stop offset=".48973215" stop-color="#8c8c8c"/><stop offset=".50044644" stop-color="#cfcfcf"/><stop offset=".62276787" stop-color="#fff"/><stop offset=".81696427" stop-color="#c8c8c8"/><stop offset="1" stop-color="#505050"/></linearGradient><linearGradient id="p" gradientTransform="matrix(-.53315586 0 0 .68002831 74.38179 35.904384)" gradientUnits="userSpaceOnUse" x1="69" x2="73" y1="54" y2="54"><stop offset="0" stop-color="#2f2f2f"/><stop offset=".43731192" stop-color="#fff"/><stop offset=".62138397" stop-color="#979797"/><stop offset=".7723214" stop-color="#505050"/><stop offset="1" stop-color="#e6e6e6"/></linearGradient><linearGradient id="q" gradientUnits="userSpaceOnUse" x1="6" x2="24" xlink:href="#t" y1="85" y2="85"/><linearGradient id="r"><stop offset="0" stop-color="#025"/><stop offset=".2" stop-color="#2b81ff"/><stop offset="1" stop-color="#003380" stop-opacity="0"/></linearGradient><linearGradient id="s" gradientUnits="userSpaceOnUse" x1="6" x2="24" xlink:href="#r" y1="79" y2="79"/><linearGradient id="t"><stop offset="0" stop-color="#0d350d"/><stop offset=".2" stop-color="#66d566" stop-opacity=".992157"/><stop offset="1" stop-color="#217821" stop-opacity="0"/></linearGradient><linearGradient id="u" gradientUnits="userSpaceOnUse" x1="6" x2="24" xlink:href="#v" y1="73" y2="73"/><linearGradient id="v"><stop offset="0" stop-color="#461552"/><stop offset=".2" stop-color="#e27ffb" stop-opacity=".886275"/><stop offset="1" stop-color="#892ca0" stop-opacity="0"/></linearGradient><linearGradient id="w" gradientUnits="userSpaceOnUse" x1="36.58217" x2="54.58217" xlink:href="#t" y1="85" y2="85"/><linearGradient id="x" gradientUnits="userSpaceOnUse" x1="36.58217" x2="54.58217" xlink:href="#v" y1="73" y2="73"/><linearGradient id="y" gradientUnits="userSpaceOnUse" x1="36.58217" x2="54.58217" xlink:href="#r" y1="79" y2="79"/><linearGradient id="z" gradientUnits="userSpaceOnUse" x1="53.950653" x2="53.920715" y1="78.994972" y2="35.412758"><stop offset="0" stop-color="#264f8d"/><stop offset="1" stop-color="#4a7fce"/></linearGradient><g transform="matrix(.23896809 0 0 .23896809 .529532 1.290564)"><g fill="url(#m)"><path d="m12-95.03125c-5.5110903 0-10.03125 4.52016-10.03125 10.03125v71c0 5.5110902 4.5201598 10.03125 10.03125 10.03125h72c5.51109 0 10.03125-4.5201597 10.03125-10.03125v-71c0-5.51109-4.52016-10.03125-10.03125-10.03125z" opacity=".08" transform="scale(1 -1)"/><path d="m12-94.03125c-4.971633 0-9.03125 4.059617-9.03125 9.03125v71c0 4.9716329 4.0596171 9.03125 9.03125 9.03125h72c4.971633 0 9.03125-4.059617 9.03125-9.03125v-71c0-4.971633-4.059617-9.03125-9.03125-9.03125z" opacity=".1" transform="scale(1 -1)"/><path d="m12-93c-4.4091333 0-8 3.590867-8 8v71c0 4.4091333 3.5908667 8 8 8h72c4.409133 0 8-3.5908667 8-8v-71c0-4.409133-3.590867-8-8-8z" opacity=".2" transform="scale(1 -1)"/><rect height="85" opacity=".3" rx="7" transform="scale(1 -1)" width="86" x="5" y="-92"/></g><rect fill="url(#n)" height="84" opacity=".45" rx="6" transform="scale(1 -1)" width="84" x="6" y="-91"/></g><g transform="matrix(.23896809 0 0 .23896809 -.470468 .992872)"><path d="m16.184659 3.9076702c-3.324 0-6 2.676-6 5.9999998v69.630682c0 3.324 5.198728 8.369318 8.522728 8.369318h66.954546c3.324 0 8.522726-5.045318 8.522726-8.369318v-69.630682c0-3.3239998-2.676-5.9999998-6-5.9999998h-9v3h-6v-3z" fill="#217821"/><path d="m16.184658 3.9076702c-3.324 0-6 2.676-6 6v63.6302808c0 3.324 2.676 6 6 6h72c3.324003 0 6.000003-2.676 6.000003-6v-63.6302808c0-3.324-2.676-6-6.000003-6h-9.000001v3h-5.999998v-3z" fill="url(#z)"/><path d="m16.184658 3.9076702c-3.324 0-6 2.676-6 6v51.0763048c0 3.323998 2.676 5.999998 6 5.999998h72c3.324004 0 6.000002-2.676 6.000002-5.999998v-51.0763048c0-3.324-2.675998-6-6.000002-6h-9.000001v3h-5.999998v-3z" fill="#892ca0"/><path d="m10.184659 56.808662v4.185372c0 3.324 2.676 6 6 6h72.000004c3.324 0 6-2.676 6-6v-4.185372c0 3.324-2.676 6-6 6h-72.000004c-3.324 0-6-2.676-6-6z" fill="#210e26" opacity=".3"/><path d="m10.183236 60.993321v4.185372c0 3.324 2.676 6 6 6h72c3.324 0 6.000002-2.676 6.000002-6v-4.185372c0 3.324-2.676002 5.999999-6.000002 5.999999h-72c-3.324 0-6-2.675999-6-5.999999z" fill="#fff" opacity=".3"/><path d="m10.18537 69.362639v4.185372c0 3.324 2.676 6 6 6h72c3.324 0 6.000002-2.676 6.000002-6v-4.185372c0 3.324-2.676002 5.999999-6.000002 5.999999h-72c-3.324 0-6-2.675999-6-5.999999z" fill="#000b32" opacity=".3"/><path d="m10.183947 73.547298v4.185371c0 3.324001 2.676 6.000001 6 6.000001h72c3.324 0 6.000002-2.676 6.000002-6.000001v-4.185371c0 3.324-2.676002 5.999999-6.000002 5.999999h-72c-3.324 0-6-2.675999-6-5.999999z" fill="#76e7a7" opacity=".3"/><g transform="matrix(-1.368333 0 0 1.368333 102.39099 -35.2423)"><path d="m6 78v6c0 3.324 2.676 6 6 6h12v-6h-12c-3.324 0-6-2.676-6-6z" fill="url(#q)"/><path d="m6 65.534265v3.116433c0 3.324 2.676 6 6 6h12v-9.116433z" fill="url(#u)"/><path d="m6 68.650698v9.349302c0 3.324 2.676 6 6 6h12v-9.349302h-12c-3.324 0-6-2.676-6-6z" fill="url(#s)"/></g><g transform="matrix(1.368333 0 0 1.368333 -39.873353 -35.2423)"><path d="m36.58217 78v6c0 3.324 2.676 6 6 6h12v-6h-12c-3.324 0-6-2.676-6-6z" fill="url(#w)"/><path d="m36.58217 65.534265v3.116433c0 3.324 2.676 6 6 6h12v-9.116433z" fill="url(#x)"/><path d="m36.58217 68.650698v9.349302c0 3.324 2.676 6 6 6h12v-9.349302h-12c-3.324 0-6-2.676-6-6z" fill="url(#y)"/></g><path d="m16.184659 3.9076702c-3.324 0-6 2.676-6 5.9999998v42.787784c0 3.324 2.676 6 6 6h72c3.324 0 6-2.676 6-6v-42.787784c0-3.3239998-2.676-5.9999998-6-5.9999998h-9v3h-6v-3z" fill="url(#d)"/><path d="m16.184659 3.9076702c-3.324 0-6 2.676-6 5.9999998l.000001 42.440057c0 3.324 2.676 6.276988 5.999999 6.276988h72c3.324 0 6-2.952988 6-6.276988v-42.440057c0-3.3239998-2.676-5.9999998-6-5.9999998h-9v2h9c2.245802 0 4 1.7541975 4 3.9999998v40.347727c0 2.245802-1.754198 4.184659-4 4.184659h-72c-2.245802 0-3.999999-1.938857-3.999999-4.184659l-.000001-40.347727c0-2.2458023 1.754198-3.9999998 4-3.9999998h57v-2z" fill="url(#c)" opacity=".5"/></g><g transform="matrix(.57142857393 0 0 .3696525885 -3.56832357462 -17.14156046271)"><path d="m32.994566 51.505433v27.500002c0 .830999.669 1.499999 1.499999 1.499999h3c.831001 0 1.500001-.669 1.500001-1.499999v-27.500002h-2v1.000001h-2v-1.000001z" fill="#252525"/><path d="m34.994564 52.505436h2v24.5h-2z" fill="#4d4d4d"/><rect fill="url(#g)" height="2.814449" rx=".49409" ry=".703612" stroke="#000" stroke-linecap="square" stroke-opacity=".563636" stroke-width=".294808" width="2.964539" x="34.512299" y="76.520912"/><path d="m66 6v55c0 1.662 1.338 3 3 3h6c1.662 0 3-1.338 3-3v-55h-4v2h-4v-2z" style="fill:none;stroke:#000;stroke-width:2;stroke-linecap:square;clip-path:url(#e);filter:url(#f)" transform="matrix(.50000001 0 0 .50000001 -.005435 48.505434)"/><path id="A" d="m34.661677 73.305932c-.143832 0-.266578.14822-.266578.340013v2.040087c0 .191792.122748.340012.266578.340012h.533157c.143831 0 .266578-.14822.266578-.340012v-.340017h.799732c.147686 0 .266579-.151645.266579-.340013v-.680029c0-.188366-.118893-.340013-.266579-.340013h-.799732v-.340015c0-.191793-.122749-.340013-.266578-.340013z" fill="url(#o)" stroke="#000" stroke-linecap="square" stroke-opacity=".563636" stroke-width=".301065"/><use id="B" height="96" transform="translate(0 -4.08017)" width="96" xlink:href="#A"/><use height="96" transform="translate(0 -4.08017)" width="96" xlink:href="#B"/><path id="C" d="m37.327458 71.265846c.14383 0 .266576.148223.266576.340016v2.040083c0 .191792-.122747.340015-.266576.340015h-.533157c-.143831 0-.266578-.148223-.266578-.340015v-.340013h-.799735c-.147683 0-.266576-.151646-.266576-.340014v-.680029c0-.188368.118893-.340014.266576-.340014h.799735v-.340013c0-.191793.122748-.340016.266578-.340016z" fill="url(#p)" stroke="#000" stroke-linecap="square" stroke-opacity=".563636" stroke-width=".301065"/><use height="96" transform="translate(0 -4.08017)" width="96" xlink:href="#C"/><path d="m32.494566 51.505433v27.500002c0 1.101147.898853 2 1.999999 2h3c1.101148 0 2.000001-.898853 2.000001-2v-27.500002h-.5v27.500002c0 .830999-.669 1.499999-1.500001 1.499999h-3c-.830999 0-1.499999-.669-1.499999-1.499999v-27.500002z" fill="url(#h)"/><path d="m34.781437 53.113439c-.298876 0-.534671.252401-.534671.565924l-.0022 5.659252c.000009.313524.235804.565926.53468.565926h2.428458c.298875 0 .53467-.252402.53467-.565926l.0022-5.659252c0-.313523-.235796-.565924-.53467-.565924z" fill="url(#j)"/><path d="m37.101169 53.609136c.120483 0 .217478.116686.217478.261627v5.265247c0 .144942-.09699.261627-.217478.261627h-2.21556c-.120483 0-.217478-.116685-.217478-.261627v-5.265247c0-.144941.09699-.261627.217478-.261627z" fill="url(#i)"/><rect fill="url(#k)" height="2.5" rx=".281567" ry=".25" stroke="#000" stroke-linecap="square" stroke-opacity=".563636" stroke-width=".5" width="1.689404" x="35.149864" y="51.49762"/><g transform="translate(.068359 -8.103393)"><use height="96" width="96" xlink:href="#B"/><use height="96" width="96" xlink:href="#C"/></g></g></svg>