<svg height="24" width="24" xmlns="http://www.w3.org/2000/svg" xmlns:xlink="http://www.w3.org/1999/xlink"><linearGradient id="a" gradientTransform="matrix(.90659037 0 0 .92290809 -5.072708 14.780623)" gradientUnits="userSpaceOnUse" x1="32.891998" x2="36.358002" y1="8.059" y2="5.4565"><stop offset="0" stop-color="#697884"/><stop offset="1" stop-color="#5c6874"/></linearGradient><radialGradient id="b" cx="48" cy="90.171875" gradientTransform="matrix(.38970735 0 0 .33673464 -.420242 14.493148)" gradientUnits="userSpaceOnUse" r="42" xlink:href="#c"/><linearGradient id="c"><stop offset="0" stop-color="#fff"/><stop offset="1" stop-color="#fff" stop-opacity="0"/></linearGradient><linearGradient id="d" gradientTransform="matrix(0 -.42933676 .33673468 0 2.122449 47.433164)" gradientUnits="userSpaceOnUse" x1="7.3709" x2="23.76619" y1="51.470146" y2="51.433136"><stop offset="0" stop-color="#202d3d"/><stop offset="1" stop-color="#2d3b48"/></linearGradient><linearGradient id="e" gradientUnits="userSpaceOnUse" x1="248.07678816" x2="248.07678816" y1="-62.6598922" y2="-98.66515562275"><stop offset="0" stop-color="#404c5c"/><stop offset="1" stop-color="#566671"/></linearGradient><linearGradient id="f" gradientTransform="matrix(.4285717 0 0 .43033246 227.50536 -101.24189)" gradientUnits="userSpaceOnUse" x1="36.357143" x2="36.357143" xlink:href="#c" y1="6" y2="63.893143"/><linearGradient id="g" gradientTransform="matrix(1.0058652 0 0 .994169 100 0)" gradientUnits="userSpaceOnUse" x1="45.447727" x2="45.447727" y1="92.539597" y2="7.01654"><stop offset="0"/><stop offset="1" stop-opacity=".588235"/></linearGradient><linearGradient id="h" gradientTransform="matrix(.90932204 0 0 -.90907903 8.945106 90.567956)" gradientUnits="userSpaceOnUse" x1="32.251034" x2="32.251034" xlink:href="#g" y1="6.131708" y2="90.238609"/><linearGradient id="i" gradientTransform="matrix(.88394566 0 0 -.88394572 10.163169 89.361561)" gradientUnits="userSpaceOnUse" x1="32.251034" x2="32.251034" xlink:href="#g" y1="6.131708" y2="90.238609"/><g transform="matrix(.7 0 0 .7 -.8 -9.5)"><g transform="matrix(.40210864 0 0 .40210864 -2.862207 11.842456)"><path d="m20.618253 86.01187c-3.916074 0-7.105399-3.225978-7.105399-7.187076v-63.785252c0-3.961099 3.189325-7.1870759 7.105399-7.1870759h41.230022l29.823983 29.8239829v41.148345c0 3.961098-3.189315 7.187076-7.1054 7.187076z" fill="url(#h)" opacity=".329"/><path d="m21.510559 84.057885h62.16399c3.34823 0 6.04372-2.727212 6.04372-6.114824v-39.038079l-29.09854-29.0985314h-39.10917c-3.34822 0-6.04372 2.7272114-6.04372 6.1148244v62.021786c0 3.387612 2.6955 6.114824 6.04372 6.114824z" fill="url(#i)" opacity=".412"/></g><g transform="matrix(.78571428 0 0 .78571428 -176.63176 94.08992)"><path d="m232.64822-98.6599h19.54285l13.88572 13.885715v19.542857c0 1.424571-1.14685 2.571428-2.57143 2.571428h-30.85714c-1.42458 0-2.57143-1.146857-2.57143-2.571428v-30.857144c0-1.424571 1.14685-2.571428 2.57143-2.571428z" fill="url(#e)"/><path d="m232.64822-98.6599c-1.42457 0-2.57143 1.151568-2.57143 2.581998v.860662 28.234034c1.98322 4.185183.51348 2.977317.42857.430332v-28.09486-.860668c0-1.197119.95064-2.151664 2.14286-2.151664h.85715 17.82858.85715l13.45714 13.326778v.860667 16.919747c-1.2063 3.165148.42855 3.584963.42855-.430333v-16.919747-.860668l-13.88571-13.896278z" fill="url(#f)" opacity=".3"/></g><g transform="matrix(.40448989 0 0 .40448989 3.140563 9.981332)"><path d="m15.358715 34.353155 18.602071-12v16.33729l-18.602071 12z" fill="#9a6820"/><path d="m15.358715 34.353155 18.602071 12v16.33729l-18.602071-12z" fill="#d09f5f"/><path d="m33.960786 22.353155 18.602071 12v16.33729l-18.602071-12z" fill="#d09f5f"/><path d="m33.960786 46.353155 18.602071-12v16.33729l-18.602071 12z" fill="#9a6820"/></g><path d="m17.574642 16.572005c2.498363 0 .978665 11.229997.978665 11.229997s13.877949-1.469924 13.877949 3.130712c0-1.120679-.0027-3.451081-.0027-3.451081l-10.910194-10.910204z" fill-rule="evenodd" opacity=".2" stroke-width=".750917"/><path d="m4.142857 42.281122c0 1.427115.901102 2.576021 2.0204085 2.576021h24.2448965c1.119307 0 2.020409-1.148906 2.020409-2.576021v-5.85255h-28.285714z" fill="url(#d)"/><path d="m6.1632649 44.857143c-1.1193059 0-2.0204079-.904805-2.0204079-2.02871v-.785567c.013779-4.111219.3367334-4.198891.3367334-.338138v.676237c0 .940593.7469286 1.690591 1.6836745 1.690591h.6734709 22.8979482.673471c.936746 0 1.683674-.749998 1.683674-1.690591v-.676237c.03306-4.583428.336742-3.015029.336742.338119v.785566c-.000008 1.123925-.90111 2.02873-2.020416 2.02873z" fill="url(#b)" opacity=".2"/><path d="m18.503357 16.571429c2.362014 0 .915801 10.402988.915801 10.402988s4.605338-.548185 8.335981-.0762c2.53971.321312 4.674044 1.11542 4.674044 2.877141 0-1.059522-.000612-2.293727-.000612-2.293727l-10.910209-10.910202z" fill-rule="evenodd" opacity=".2" stroke-width=".709936"/><path d="m19.617915 16.578262c2.225494 0 .801612 9.609776.801612 9.609776s12.012265-1.475777 12.012265 2.622383c0-.99828-.0032-1.328788-.0032-1.328788l-10.91023-10.910204z" fill="url(#a)" fill-rule="evenodd" stroke-width=".668903"/><g fill="#fff" transform="matrix(.48712699 0 0 .48712699 -4.801096 3.38419)"><path d="m26.664062 71.096354v1.529948h-1.289062q-.494792 0-.690104.182292-.195313.175781-.195313.61849v.507812h1.992188v1.666667h-1.992188v5.624999h-2.330729v-5.624999h-1.158854v-1.666667h1.158854v-.507812q0-1.191407.664063-1.757813.664062-.572917 2.057291-.572917z"/><path d="m27.673177 71.096354h2.330729v10.130208h-2.330729z"/><path d="m35.524739 77.945313q-.729166 0-1.10026.247395-.364583.247396-.364583.729167 0 .442708.292969.696615.299479.247395.826822.247395.657552 0 1.106771-.46875.449219-.47526.449219-1.184895v-.266927zm3.561198-.878907v4.160156h-2.35026v-1.080729q-.46875.664063-1.054688.970052-.585937.29948-1.425781.29948-1.132812 0-1.842448-.657552-.703125-.664063-.703125-1.71875 0-1.282553.878907-1.881511.885416-.598958 2.773437-.598958h1.373698v-.182292q0-.553385-.436198-.807291-.436198-.260417-1.360677-.260417-.748698 0-1.393229.149739-.644531.14974-1.197917.449219v-1.777343q.748698-.182292 1.503906-.273438.755209-.09766 1.510417-.09766 1.972656 0 2.845052.78125.878906.774739.878906 2.526041z"/><path d="m43.812499 71.864584v2.070312h2.402344v1.666667h-2.402344v3.092447q0 .507813.201823.690105.201823.175781.800781.175781h1.197917v1.666666h-1.998698q-1.380208 0-1.959635-.572916-.572917-.579427-.572917-1.959636v-3.092447h-1.158854v-1.666667h1.158854v-2.070312z"/><path d="m49.977863 80.171875v3.828125h-2.33073v-10.065104h2.33073v1.067708q.48177-.638021 1.067708-.9375.585937-.305989 1.347656-.305989 1.347656 0 2.213542 1.074218.865885 1.067709.865885 2.753907 0 1.686198-.865885 2.760416-.865886 1.067709-2.213542 1.067709-.761719 0-1.347656-.29948-.585938-.305989-1.067708-.94401zm1.549479-4.720052q-.748698 0-1.152344.553385-.397135.546875-.397135 1.582032 0 1.035156.397135 1.588541.403646.546875 1.152344.546875.748698 0 1.139323-.546875.397135-.546875.397135-1.588541 0-1.041667-.397135-1.588542-.390625-.546875-1.139323-.546875z"/><path d="m60.472654 77.945313q-.729167 0-1.100261.247395-.364583.247396-.364583.729167 0 .442708.292969.696615.299479.247395.826823.247395.657552 0 1.10677-.46875.449219-.47526.449219-1.184895v-.266927zm3.561197-.878907v4.160156h-2.35026v-1.080729q-.46875.664063-1.054687.970052-.585938.29948-1.425782.29948-1.132812 0-1.842447-.657552-.703125-.664063-.703125-1.71875 0-1.282553.878906-1.881511.885416-.598958 2.773437-.598958h1.373698v-.182292q0-.553385-.436198-.807291-.436198-.260417-1.360677-.260417-.748698 0-1.393229.149739-.644531.14974-1.197917.449219v-1.777343q.748698-.182292 1.503907-.273438.755208-.09766 1.510416-.09766 1.972656 0 2.845052.78125.878906.774739.878906 2.526041z"/><path d="m66.214842 71.096354h2.33073v5.514323l2.682291-2.675781h2.708333l-3.561197 3.346354 3.841145 3.945312h-2.82552l-2.845052-3.040364v3.040364h-2.33073z"/></g></g><path d="m2.1 16h19.8v1h-19.8z" opacity=".3"/></svg>