<svg height="24" width="24" xmlns="http://www.w3.org/2000/svg" xmlns:xlink="http://www.w3.org/1999/xlink"><linearGradient id="a" gradientTransform="matrix(.90659037 0 0 .92290809 -3.644137 13.352051)" gradientUnits="userSpaceOnUse" x1="32.891998" x2="36.358002" y1="8.059" y2="5.4565"><stop offset="0" stop-color="#1e75cc"/><stop offset="1" stop-color="#1160a3"/></linearGradient><radialGradient id="b" cx="48" cy="90.171875" gradientTransform="matrix(.38970735 0 0 .33673464 1.008329 13.064576)" gradientUnits="userSpaceOnUse" r="42" xlink:href="#c"/><linearGradient id="c"><stop offset="0" stop-color="#fff"/><stop offset="1" stop-color="#fff" stop-opacity="0"/></linearGradient><linearGradient id="d" gradientTransform="matrix(0 -.42933676 .33673468 0 3.551021 46.004592)" gradientUnits="userSpaceOnUse" x1="7.3709" x2="23.76619" y1="51.470146" y2="51.433136"><stop offset="0" stop-color="#002a70"/><stop offset="1" stop-color="#003a7e"/></linearGradient><linearGradient id="e" gradientUnits="userSpaceOnUse" x1="248.07678816" x2="248.07678816" y1="-62.6598922" y2="-98.66515562275"><stop offset="0" stop-color="#00498e"/><stop offset="1" stop-color="#0d5ea7"/></linearGradient><linearGradient id="f" gradientTransform="matrix(.4285717 0 0 .43033246 227.50536 -101.24189)" gradientUnits="userSpaceOnUse" x1="36.357143" x2="36.357143" xlink:href="#c" y1="6" y2="63.893143"/><linearGradient id="g" gradientTransform="matrix(1.0058652 0 0 .994169 100 0)" gradientUnits="userSpaceOnUse" x1="45.447727" x2="45.447727" y1="92.539597" y2="7.01654"><stop offset="0"/><stop offset="1" stop-opacity=".588235"/></linearGradient><linearGradient id="h" gradientTransform="matrix(.90932204 0 0 -.90907903 8.945106 90.567956)" gradientUnits="userSpaceOnUse" x1="32.251034" x2="32.251034" xlink:href="#g" y1="6.131708" y2="90.238609"/><linearGradient id="i" gradientTransform="matrix(.88394566 0 0 -.88394572 10.163169 89.361561)" gradientUnits="userSpaceOnUse" x1="32.251034" x2="32.251034" xlink:href="#g" y1="6.131708" y2="90.238609"/><radialGradient id="j" cx="41.752941" cy="36.95731" gradientTransform="matrix(4.5608932 -.80134104 .40815326 2.3230351 -148.56388 -20.727491)" gradientUnits="userSpaceOnUse" r="19"><stop offset="0" stop-color="#b3d1ff"/><stop offset=".5" stop-color="#b3d1ff"/><stop offset="1" stop-color="#b3d1ff"/></radialGradient><linearGradient id="k" gradientUnits="userSpaceOnUse" x1="37.0203438" x2="45.6532128" y1="53.2912798" y2="68.830444"><stop offset="0" stop-color="#b3e1ff"/><stop offset="1" stop-color="#f0ffff" stop-opacity="0"/></linearGradient><g transform="matrix(.7 0 0 .7 -1.8 -8.5)"><g transform="matrix(.40210864 0 0 .40210864 -1.433636 10.413884)"><path d="m20.618253 86.01187c-3.916074 0-7.105399-3.225978-7.105399-7.187076v-63.785252c0-3.961099 3.189325-7.1870759 7.105399-7.1870759h41.230022l29.823983 29.8239829v41.148345c0 3.961098-3.189315 7.187076-7.1054 7.187076z" fill="url(#h)" opacity=".329"/><path d="m21.510559 84.057885h62.16399c3.34823 0 6.04372-2.727212 6.04372-6.114824v-39.038079l-29.09854-29.0985314h-39.10917c-3.34822 0-6.04372 2.7272114-6.04372 6.1148244v62.021786c0 3.387612 2.6955 6.114824 6.04372 6.114824z" fill="url(#i)" opacity=".412"/></g><g transform="matrix(.78571428 0 0 .78571428 -175.20319 92.661348)"><path d="m232.64822-98.6599h19.54285l13.88572 13.885715v19.542857c0 1.424571-1.14685 2.571428-2.57143 2.571428h-30.85714c-1.42458 0-2.57143-1.146857-2.57143-2.571428v-30.857144c0-1.424571 1.14685-2.571428 2.57143-2.571428z" fill="url(#e)"/><path d="m232.64822-98.6599c-1.42457 0-2.57143 1.151568-2.57143 2.581998v.860662 28.234034c1.98322 4.185183.51348 2.977317.42857.430332v-28.09486-.860668c0-1.197119.95064-2.151664 2.14286-2.151664h.85715 17.82858.85715l13.45714 13.326778v.860667 16.919747c-1.2063 3.165148.42855 3.584963.42855-.430333v-16.919747-.860668l-13.88571-13.896278z" fill="url(#f)" opacity=".3"/></g><path d="m19.003213 15.143433c2.498363 0 .978665 11.229997.978665 11.229997s13.877949-1.469924 13.877949 3.130712c0-1.120679-.0027-3.451081-.0027-3.451081l-10.910194-10.910204z" fill-rule="evenodd" opacity=".2" stroke-width=".750917"/><path d="m5.5714284 40.85255c0 1.427115.901102 2.576021 2.0204085 2.576021h24.2448961c1.119307 0 2.020409-1.148906 2.020409-2.576021v-5.85255h-28.2857136z" fill="url(#d)"/><path d="m7.5918363 43.428571c-1.1193059 0-2.0204079-.904805-2.0204079-2.02871v-.785567c.013779-4.111219.3367334-4.198891.3367334-.338138v.676237c0 .940593.7469286 1.690591 1.6836745 1.690591h.6734709 22.8979478.673471c.936746 0 1.683674-.749998 1.683674-1.690591v-.676237c.03306-4.583428.336742-3.015029.336742.338119v.785566c-.000008 1.123925-.90111 2.02873-2.020416 2.02873z" fill="url(#b)" opacity=".2"/><path d="m175.38884-77.572533c-1.3773 0-1.25772 20.464586-1.47461 35.865234h3.13281c-.32368-14.158717-.21117-35.865234-1.6582-35.865234zm1.6582 35.865234c.15455 6.760258.40065 11.955078.97852 11.955078 1.04063 0 1.18507-6.346168 1.42187-11.955078zm2.40039 0h2.17188c-.14344-4.760457-.38492-8.369141-.95899-8.369141-.78671 0-1.02686 3.962989-1.21289 8.369141zm2.17188 0c.32083 10.64803.10331 27.69269 1.67773 27.496094 1.26467-.157922 1.42119-14.140145 1.54688-27.496094zm3.22461 0h2.16992c-.0936-12.466097-.20137-23.978955-1.08008-23.910156-.88622.06938-.97524 11.732675-1.08984 23.910156zm2.16992 0c.11176 14.887144.20321 31.161912 1.55664 31.082031 1.67393-.09879 1.41081-18.375701 1.60156-31.082031zm3.1582 0h2.45899c-.15986-5.977906-.35153-11.955078-1.42383-11.955078-.71452 0-.93445 5.247096-1.03516 11.955078zm2.45899 0c.15886 5.940686.28473 11.882565 1.21093 11.955078.69192.05417.99096-5.240271 1.17969-11.955078zm2.39062 0h2.80274c-.24227-12.961784-.24779-28.691406-1.34571-28.691406-1.14646 0-1.11985 16.694884-1.45703 28.691406zm2.80274 0c.16774 8.974731.44668 16.653068 1.29101 16.736328 1.33666.131812 1.16735-9.381968 1.37305-16.736328zm2.66406 0h2.67578c-.0994-4.131172-.16118-8.482167-1.41211-8.369141-.86609.07826-1.13623 3.812486-1.26367 8.369141zm2.67578 0c.0883 3.671626.20594 7.171875 1.22461 7.171875.63663 0 .90979-3.087672 1.06836-7.171875zm2.29297 0h2.88476c-.1426-11.954847-.28539-23.910156-1.31836-23.910156-1.49772 0-1.21041 14.74088-1.5664 23.910156zm2.88476 0c.14261 11.954847.28541 23.908203 1.31836 23.908203.93037 0 1.21566-11.238197 1.38672-23.908203zm2.70508 0h2v-30.203125c-.18224-3.379052-.41955-5.548819-.75-5.662109-1.00254-.343711-1.02302 19.053794-1.25 35.865234zm-37.13281 0h-2.69922c.19518 7.883933.34686 16.736328 1.53711 16.736328.77795 0 1.03131-7.448995 1.16211-16.736328zm-2.69922 0c-.1554-6.277211-.33798-11.955078-1.09961-11.955078-.6371 0-.82311 5.380649-.94922 11.955078zm-2.04883 0h-2.97851c.0633 11.954847.1166 23.908203 1.29101 23.908203 1.44029 0 1.48736-13.47387 1.6875-23.908203zm-2.97851 0c-.0633-11.954847-.13489-23.910156-1.34375-23.910156-2.34779 0-1.05388 23.910156-2.63672 23.910156zm47.51172.171875c.1916 14.819825.41557 28.618337 1.23437 28.519531 1.13181-.136574 1.17344-16.585331 1.51758-28.519531zm5.08593 0c.15398 5.917926.35296 11.783203 1.41993 11.783203.94546 0 1.19319-5.46845 1.32031-11.783203zm5.33203 0c.10691 10.005514.21282 20.150391 1.36133 20.150391 1.10983 0 1.2775-9.799767 1.3711-20.150391zm5.50586 0c.1454 5.264521.41198 9.390625 1.12891 9.390625.93278 0 1.17292-4.584654 1.35938-9.390625zm5.01172 0c.22506 7.233806.34734 15.369141 1.38867 15.369141.92879 0 1.14899-7.490703 1.32227-15.369141zm5.11719 0c.11855 12.234409.16211 26.128906 1.54492 26.128906 1.27182 0 1.42082-13.037821 1.50196-26.128906z" fill="#3ac4ff" opacity=".7" transform="matrix(.31685251 0 0 .27738397 -44.538616 37.947198)"/><path d="m19.931928 15.142857c2.362014 0 .915801 10.402988.915801 10.402988s4.605338-.548185 8.335981-.0762c2.53971.321312 4.674044 1.11542 4.674044 2.877141 0-1.059522-.000612-2.293727-.000612-2.293727l-10.910209-10.910202z" fill-rule="evenodd" opacity=".2" stroke-width=".709936"/><path d="m21.046486 15.14969c2.225494 0 .801612 9.609776.801612 9.609776s12.012265-1.475777 12.012265 2.622383c0-.99828-.0032-1.328788-.0032-1.328788l-10.91023-10.910204z" fill="url(#a)" fill-rule="evenodd" stroke-width=".668903"/><g transform="matrix(.17336587898 0 0 .17336587898 4.05543767663 19.04063731794)"><path d="m38.994631 25.428559-4.975872-5.405094s.113135 24.845606.11846 29.024068c-3.099725-1.685814-7.518217-1.264359-11.175366 1.386743-4.731162 3.412443-6.376216 9.231267-3.643536 12.983559 2.746259 3.765901 8.78257 4.024178 13.513757.611755 3.725119-2.705454 5.805202-6.9472 5.057461-10.427585-.02727-.108779-.06801-.217536-.09516-.326334l.13979-20.369684c.496976-1.475472 1.305145-2.032863 4.698406 2.249512 3.909781 6.358271-.242773 15.791902-.242773 15.791902s.671594-.594854 1.478642-1.466117c2.948444-3.183051 4.265252-8.865938 2.531103-14.261774-1.492782-3.215162-6.223493-8.506625-7.404942-9.790936z" fill="#6e93b6" transform="matrix(1.9534141 0 0 1.9534141 -10.754156 -45.940692)"/><path d="m76.859862 17.877279c-6.231046-8.9476442-13.750069-16.7790409-21.161308-24.7038518l.231402 56.6239798c.97997.369273 1.902183.800467 2.712315 1.356157v-34.831596c0-5.424632.03076-9.2079316 4.302347-6.126253 7.485907 5.40061 9.551683 6.837095 13.915244 7.681564z" fill="url(#j)" opacity=".7"/><path d="m52.559494 55.017847c2.107921 4.276518-2.493502 8.928749-9.335931 12.30142-6.842427 3.372672-13.334772 4.188625-15.442694-.0879-2.10792-4.276518 1.730157-10.477412 8.572586-13.850084 6.842428-3.372672 14.098119-2.639961 16.206039 1.636557z" fill="url(#k)"/></g></g><path d="m2.1 16h19.8v1h-19.8z" opacity=".3"/><g fill="#fff" transform="matrix(.32007143 0 0 .32007143 -3.825161 -7.966466)"><path d="m30.696777 79.564941h2.702637l1.889648 7.946778 1.875-7.946778h2.717286l1.875 7.946778 1.889648-7.946778h2.680664l-2.578125 10.935059h-3.251953l-1.984863-8.312988-1.962891 8.312988h-3.251953z"/><path d="m54.141602 88.507812h-4.40918l-.695801 1.992188h-2.834473l4.050293-10.935059h3.361817l4.050293 10.935059h-2.834473zm-3.706055-2.028808h2.995605l-1.49414-4.350586z"/><path d="m56.77832 79.564941h2.834473l2.900391 8.071289 2.893066-8.071289h2.834473l-4.050293 10.935059h-3.361817z"/></g></svg>