<svg height="24" width="24" xmlns="http://www.w3.org/2000/svg" xmlns:xlink="http://www.w3.org/1999/xlink"><linearGradient id="a" gradientTransform="matrix(.90659037 0 0 .92290809 -5.072708 14.780623)" gradientUnits="userSpaceOnUse" x1="32.891998" x2="36.358002" y1="8.059" y2="5.4565"><stop offset="0" stop-color="#8c8c8c"/><stop offset="1" stop-color="#646464"/></linearGradient><radialGradient id="b" cx="48" cy="90.171875" gradientTransform="matrix(.38970735 0 0 .33673464 -.420242 14.493148)" gradientUnits="userSpaceOnUse" r="42" xlink:href="#c"/><linearGradient id="c"><stop offset="0" stop-color="#fff"/><stop offset="1" stop-color="#fff" stop-opacity="0"/></linearGradient><linearGradient id="d" gradientTransform="matrix(0 -.42933676 .33673468 0 2.122449 47.433164)" gradientUnits="userSpaceOnUse" x1="7.3709" x2="23.76619" y1="51.470146" y2="51.433136"><stop offset="0" stop-color="#323232"/><stop offset="1" stop-color="#464646"/></linearGradient><linearGradient id="e" gradientUnits="userSpaceOnUse" x1="248.07678816" x2="248.07678816" y1="-62.6598922" y2="-98.66515562275"><stop offset="0" stop-color="#505050"/><stop offset="1" stop-color="#787878"/></linearGradient><linearGradient id="f" gradientTransform="matrix(.4285717 0 0 .43033246 227.50536 -101.24189)" gradientUnits="userSpaceOnUse" x1="36.357143" x2="36.357143" xlink:href="#c" y1="6" y2="63.893143"/><linearGradient id="g" gradientTransform="matrix(1.0058652 0 0 .994169 100 0)" gradientUnits="userSpaceOnUse" x1="45.447727" x2="45.447727" y1="92.539597" y2="7.01654"><stop offset="0"/><stop offset="1" stop-opacity=".588235"/></linearGradient><linearGradient id="h" gradientTransform="matrix(.90932204 0 0 -.90907903 8.945106 90.567956)" gradientUnits="userSpaceOnUse" x1="32.251034" x2="32.251034" xlink:href="#g" y1="6.131708" y2="90.238609"/><linearGradient id="i" gradientTransform="matrix(.88394566 0 0 -.88394572 10.163169 89.361561)" gradientUnits="userSpaceOnUse" x1="32.251034" x2="32.251034" xlink:href="#g" y1="6.131708" y2="90.238609"/><clipPath id="j"><path d="m-88 6c-3.324 0-6 2.676-6 6v72c0 3.324 2.676 6 6 6h72c3.324 0 6-2.676 6-6v-72c0-3.324-2.676-6-6-6zm42.03125 18h5.40625l8.46875 44.59375h4.71875l-.65625 3.40625h-17.46875l.65625-3.40625h5.34375l-1.96875-10.53125h-20.1875l-6.09375 10.53125h5.28125l-.625 3.40625h-13.53125l.65625-3.40625h4.21875zm-.46875 7.78125-13.21875 22.8125h17.59375z"/></clipPath><filter id="k" color-interpolation-filters="sRGB" height="1.413192" width="1.402937" x="-.201468" y="-.206596"><feGaussianBlur stdDeviation="4.1319224"/></filter><linearGradient id="l" gradientUnits="userSpaceOnUse" x1="9.61943892" x2="9.61943892" y1="14.95332488" y2="5.04667496"><stop offset="0" stop-color="#bebebe"/><stop offset="1" stop-color="#f0f0f0"/></linearGradient><g transform="matrix(.7 0 0 .7 -.8 -9.5)"><g transform="matrix(.40210864 0 0 .40210864 -2.862207 11.842456)"><path d="m20.618253 86.01187c-3.916074 0-7.105399-3.225978-7.105399-7.187076v-63.785252c0-3.961099 3.189325-7.1870759 7.105399-7.1870759h41.230022l29.823983 29.8239829v41.148345c0 3.961098-3.189315 7.187076-7.1054 7.187076z" fill="url(#h)" opacity=".329"/><path d="m21.510559 84.057885h62.16399c3.34823 0 6.04372-2.727212 6.04372-6.114824v-39.038079l-29.09854-29.0985314h-39.10917c-3.34822 0-6.04372 2.7272114-6.04372 6.1148244v62.021786c0 3.387612 2.6955 6.114824 6.04372 6.114824z" fill="url(#i)" opacity=".412"/></g><g transform="matrix(.78571428 0 0 .78571428 -176.63176 94.08992)"><path d="m232.64822-98.6599h19.54285l13.88572 13.885715v19.542857c0 1.424571-1.14685 2.571428-2.57143 2.571428h-30.85714c-1.42458 0-2.57143-1.146857-2.57143-2.571428v-30.857144c0-1.424571 1.14685-2.571428 2.57143-2.571428z" fill="url(#e)"/><path d="m232.64822-98.6599c-1.42457 0-2.57143 1.151568-2.57143 2.581998v.860662 28.234034c1.98322 4.185183.51348 2.977317.42857.430332v-28.09486-.860668c0-1.197119.95064-2.151664 2.14286-2.151664h.85715 17.82858.85715l13.45714 13.326778v.860667 16.919747c-1.2063 3.165148.42855 3.584963.42855-.430333v-16.919747-.860668l-13.88571-13.896278z" fill="url(#f)" opacity=".3"/></g><g font-family="DejaVu Serif" font-style="italic" transform="matrix(1.4285714 0 0 1.4285714 1.142857 13.571429)"><text fill="url(#l)" font-size="13.589296" stroke-width=".206389" x="5.581796" y="14.953325"><tspan fill="url(#l)" stroke-width=".206389" x="5.581796" y="14.953325">A</tspan></text><text style="font-size:65.843269;opacity:.6;fill:none;stroke:#fff;stroke-width:2;clip-path:url(#j);filter:url(#k)" transform="matrix(.20638854 0 0 .20638854 20.351641 .093351)" x="-71.563293" y="72"><tspan fill="none" stroke="#fff" stroke-width="2" x="-71.563293" y="72">A</tspan></text></g><path d="m17.574642 16.572005c2.498363 0 .978665 11.229997.978665 11.229997s13.877949-1.469924 13.877949 3.130712c0-1.120679-.0027-3.451081-.0027-3.451081l-10.910194-10.910204z" fill-rule="evenodd" opacity=".2" stroke-width=".750917"/><path d="m4.142857 42.281122c0 1.427115.901102 2.576021 2.0204085 2.576021h24.2448965c1.119307 0 2.020409-1.148906 2.020409-2.576021v-5.85255h-28.285714z" fill="url(#d)"/><path d="m6.1632649 44.857143c-1.1193059 0-2.0204079-.904805-2.0204079-2.02871v-.785567c.013779-4.111219.3367334-4.198891.3367334-.338138v.676237c0 .940593.7469286 1.690591 1.6836745 1.690591h.6734709 22.8979482.673471c.936746 0 1.683674-.749998 1.683674-1.690591v-.676237c.03306-4.583428.336742-3.015029.336742.338119v.785566c-.000008 1.123925-.90111 2.02873-2.020416 2.02873z" fill="url(#b)" opacity=".2"/><g fill-rule="evenodd"><path d="m18.503357 16.571429c2.362014 0 .915801 10.402988.915801 10.402988s4.605338-.548185 8.335981-.0762c2.53971.321312 4.674044 1.11542 4.674044 2.877141 0-1.059522-.000612-2.293727-.000612-2.293727l-10.910209-10.910202z" opacity=".2" stroke-width=".709936"/><path d="m19.617915 16.578262c2.225494 0 .801612 9.609776.801612 9.609776s12.012265-1.475777 12.012265 2.622383c0-.99828-.0032-1.328788-.0032-1.328788l-10.91023-10.910204z" fill="url(#a)" stroke-width=".668903"/></g></g><path d="m2.1 16h19.8v1h-19.8z" opacity=".3"/><g fill="#fff" stroke-width="1.322143" transform="matrix(.26250003 0 0 .26250003 -4.369985 -5.655702)"><path d="m37.599938 88.444596h8.943404v2.504842h-5.629438v2.392942h5.293738v2.504842h-5.293738v5.448678h-3.313966z"/><path d="m55.521178 90.613738q-1.514956 0-2.349903 1.119001-.834947 1.119002-.834947 3.15042 0 2.02281.834947 3.141812.834947 1.119001 2.349903 1.119001 1.523564 0 2.358511-1.119001.834947-1.119002.834947-3.141812 0-2.031418-.834947-3.15042-.834947-1.119001-2.358511-1.119001zm0-2.40155q3.098774 0 4.854745 1.773187 1.755972 1.773187 1.755972 4.897784 0 3.115989-1.755972 4.889176-1.755971 1.773185-4.854745 1.773185-3.090166 0-4.854745-1.773185-1.755972-1.773187-1.755972-4.889176 0-3.124597 1.755972-4.897784 1.764579-1.773187 4.854745-1.773187z"/><path d="m64.628128 88.444596h3.701313l4.673984 8.814289v-8.814289h3.141812v12.851304h-3.701313l-4.673984-8.814291v8.814291h-3.141812z"/><path d="m77.866778 88.444596h11.844201v2.504842h-4.260814v10.346462h-3.313966v-10.346462h-4.269421z"/></g></svg>