<svg height="24" width="24" xmlns="http://www.w3.org/2000/svg" xmlns:xlink="http://www.w3.org/1999/xlink"><linearGradient id="a" gradientTransform="matrix(.90659037 0 0 .92290809 -5.072708 14.780623)" gradientUnits="userSpaceOnUse" x1="32.891998" x2="36.358002" y1="8.059" y2="5.4565"><stop offset="0" stop-color="#6776bf"/><stop offset="1" stop-color="#5361a7"/></linearGradient><radialGradient id="b" cx="48" cy="90.171875" gradientTransform="matrix(.38970735 0 0 .33673464 -.420242 14.493148)" gradientUnits="userSpaceOnUse" r="42" xlink:href="#c"/><linearGradient id="c"><stop offset="0" stop-color="#fff"/><stop offset="1" stop-color="#fff" stop-opacity="0"/></linearGradient><linearGradient id="d" gradientTransform="matrix(0 -.42933676 .33673468 0 2.122449 47.433164)" gradientUnits="userSpaceOnUse" x1="7.3709" x2="23.76619" y1="51.470146" y2="51.433136"><stop offset="0" stop-color="#15235f"/><stop offset="1" stop-color="#313d80"/></linearGradient><linearGradient id="e" gradientUnits="userSpaceOnUse" x1="248.07678816" x2="248.07678816" y1="-62.6598922" y2="-98.66515562275"><stop offset="0" stop-color="#3e488e"/><stop offset="1" stop-color="#505daa"/></linearGradient><linearGradient id="f" gradientTransform="matrix(.98340354 0 0 .98744379 140.32442 12.974428)" gradientUnits="userSpaceOnUse" x1="36.357143" x2="36.357143" xlink:href="#c" y1="6" y2="63.893143"/><linearGradient id="g" gradientTransform="matrix(1.0058652 0 0 .994169 100 0)" gradientUnits="userSpaceOnUse" x1="45.447727" x2="45.447727" y1="92.539597" y2="7.01654"><stop offset="0"/><stop offset="1" stop-opacity=".588235"/></linearGradient><linearGradient id="h" gradientTransform="matrix(.90932204 0 0 -.90907903 8.945106 90.567956)" gradientUnits="userSpaceOnUse" x1="32.251034" x2="32.251034" xlink:href="#g" y1="6.131708" y2="90.238609"/><linearGradient id="i" gradientTransform="matrix(.88394566 0 0 -.88394572 10.163169 89.361561)" gradientUnits="userSpaceOnUse" x1="32.251034" x2="32.251034" xlink:href="#g" y1="6.131708" y2="90.238609"/><linearGradient id="j" gradientUnits="userSpaceOnUse" spreadMethod="reflect" x1="19.013324" x2="19.013324" y1="44.535123" y2="76.011335"><stop offset="0" stop-color="#75a6ea"/><stop offset="1" stop-color="#70c5ff"/></linearGradient><g transform="matrix(.7 0 0 .7 -.8 -9.5)"><g transform="matrix(.40210864 0 0 .40210864 -2.862207 11.842456)"><path d="m20.618253 86.01187c-3.916074 0-7.105399-3.225978-7.105399-7.187076v-63.785252c0-3.961099 3.189325-7.1870759 7.105399-7.1870759h41.230022l29.823983 29.8239829v41.148345c0 3.961098-3.189315 7.187076-7.1054 7.187076z" fill="url(#h)" opacity=".329"/><path d="m21.510559 84.057885h62.16399c3.34823 0 6.04372-2.727212 6.04372-6.114824v-39.038079l-29.09854-29.0985314h-39.10917c-3.34822 0-6.04372 2.7272114-6.04372 6.1148244v62.021786c0 3.387612 2.6955 6.114824 6.04372 6.114824z" fill="url(#i)" opacity=".412"/></g><path d="m232.64822-98.6599h19.54285l13.88572 13.885715v19.542857c0 1.424571-1.14685 2.571428-2.57143 2.571428h-30.85714c-1.42458 0-2.57143-1.146857-2.57143-2.571428v-30.857144c0-1.424571 1.14685-2.571428 2.57143-2.571428z" fill="url(#e)" transform="matrix(.78571428 0 0 .78571428 -176.63176 94.08992)"/><g transform="matrix(.3136147 0 0 .28805258 -44.028017 38.005606)"><path d="m16.966797 9.0878906c-1.377301 0-1.257716 20.4645864-1.474609 35.8652344h3.132812c-.323685-14.158717-.211175-35.8652344-1.658203-35.8652344zm1.658203 35.8652344c.154547 6.760258.400647 11.955078.978516 11.955078 1.040629 0 1.185069-6.346168 1.421875-11.955078zm2.400391 0h2.171875c-.143436-4.760457-.384921-8.369141-.958985-8.369141-.78671 0-1.026865 3.962989-1.21289 8.369141zm2.171875 0c.320831 10.64803.103309 27.69269 1.677734 27.496094 1.264664-.157922 1.421183-14.140145 1.546875-27.496094zm3.224609 0h2.169922c-.09359-12.466097-.20137-23.978955-1.080078-23.910156-.886223.06938-.975242 11.732675-1.089844 23.910156zm2.169922 0c.111763 14.887144.203208 31.161912 1.556641 31.082031 1.67393-.09879 1.41081-18.375701 1.601562-31.082031zm3.158203 0h2.458984c-.159855-5.977906-.351525-11.955078-1.423828-11.955078-.714519 0-.934453 5.247096-1.035156 11.955078zm2.458984 0c.15886 5.940686.284734 11.882565 1.210938 11.955078.691913.05417.99096-5.240271 1.179687-11.955078zm2.390625 0h2.802735c-.242265-12.961784-.247789-28.691406-1.345703-28.691406-1.146462 0-1.119856 16.694884-1.457032 28.691406zm2.802735 0c.167744 8.974731.446684 16.653068 1.291015 16.736328 1.336663.131812 1.167352-9.381968 1.373047-16.736328zm2.664062 0h2.675782c-.09936-4.131172-.161184-8.482167-1.41211-8.369141-.866092.07826-1.136226 3.812486-1.263672 8.369141zm2.675782 0c.08831 3.671626.205938 7.171875 1.224609 7.171875.636632 0 .909793-3.087672 1.068359-7.171875zm2.292968 0h2.884766c-.142606-11.954847-.285399-23.910156-1.31836-23.910156-1.497721 0-1.210415 14.74088-1.566406 23.910156zm2.884766 0c.142606 11.954847.285404 23.908203 1.318359 23.908203.930366 0 1.215653-11.238197 1.386719-23.908203zm2.705078 0h2v-30.203125c-.182243-3.379052-.419549-5.5488186-.75-5.6621094-1.002541-.3437109-1.023018 19.0537944-1.25 35.8652344zm-37.132812 0h-2.699219c.195181 7.883933.346859 16.736328 1.537109 16.736328.777947 0 1.031312-7.448995 1.16211-16.736328zm-2.699219 0c-.155404-6.277211-.337979-11.955078-1.09961-11.955078-.637105 0-.823113 5.380649-.949218 11.955078zm-2.048828 0h-2.978516c.063264 11.954847.1166056 23.908203 1.2910156 23.908203 1.4402884 0 1.4873574-13.47387 1.6875004-23.908203zm-2.978516 0c-.0632637-11.954847-.134885-23.910156-1.34375-23.910156-2.34779 0-1.0538787 23.910156-2.6367188 23.910156zm47.511719.171875c.1916 14.819825.415575 28.618337 1.234375 28.519531 1.131808-.136574 1.173436-16.585331 1.517578-28.519531zm5.085937 0c.153975 5.917926.35296 11.783203 1.419922 11.783203.945468 0 1.193192-5.46845 1.320313-11.783203zm5.332031 0c.10691 10.005514.212811 20.150391 1.361329 20.150391 1.109824 0 1.277494-9.799767 1.371093-20.150391zm5.50586 0c.145392 5.264521.411974 9.390625 1.128906 9.390625.932775 0 1.172919-4.584654 1.359375-9.390625zm5.011719 0c.225055 7.233806.34734 15.369141 1.388671 15.369141.928783 0 1.148983-7.490703 1.322266-15.369141zm5.117187 0c.118545 12.234409.162111 26.128906 1.544922 26.128906 1.271817 0 1.420821-13.037821 1.501953-26.128906z" fill="url(#j)" opacity=".5" transform="translate(153.91341 -81.510263)"/><path d="m186.97132-58.656045c-1.49872.01494-3.02817.209323-4.54282.615173-9.69375 2.597434-15.44509 12.570777-12.84766 22.264531l2.95757-.780797c-.33769-1.256428-.5442-2.564592-.5442-3.927642 0-8.363095 6.77964-15.142721 15.14272-15.142721 8.36311 0 15.14272 6.779626 15.14272 15.142721 0 1.36305-.20649 2.671214-.54418 3.927642l2.95756.780797c.82556-3.081036.82557-6.335844 0-9.41688-2.19158-8.179104-9.62867-13.543536-17.72171-13.462824zm-13.27355 24.252013-3.66738.99374c-2.02579.542813-3.21644 2.611656-2.67363 4.637459l1.96382 7.311094c.54282 2.025805 2.61166 3.21645 4.63746 2.673637l3.64371-.97008zm26.97298 0-3.90399 14.64585 3.64372.97008c2.0258.542813 4.09464-.647832 4.63746-2.673637l1.96382-7.311094c.54281-2.025803-.64783-4.094646-2.67364-4.637459z" fill="#fff" opacity=".7"/></g><path d="m152.12526 18.899082c-3.26883 0-5.90042 2.642396-5.90042 5.92467v1.974881 64.786007c4.55071 9.60335 1.17823 6.831772.9834.987443v-64.466657-1.974895c0-2.746917 2.18134-4.937223 4.91702-4.937223h1.96682 40.90958 1.96683l30.87884 30.579716v1.974892 38.824167c-2.76798 7.26277.98336 8.226077.98336-.987445v-38.824167-1.974895l-31.86225-31.886494z" fill="url(#f)" opacity=".3" transform="matrix(.34241783 0 0 .34241783 -45.927136 10.099346)"/><path d="m17.574642 16.572005c2.498363 0 .978665 11.229997.978665 11.229997s13.877949-1.469924 13.877949 3.130712c0-1.120679-.0027-3.451081-.0027-3.451081l-10.910194-10.910204z" fill-rule="evenodd" opacity=".2" stroke-width=".750917"/><path d="m4.142857 42.281122c0 1.427115.901102 2.576021 2.0204085 2.576021h24.2448965c1.119307 0 2.020409-1.148906 2.020409-2.576021v-5.85255h-28.285714z" fill="url(#d)"/><path d="m6.1632649 44.857143c-1.1193059 0-2.0204079-.904805-2.0204079-2.02871v-.785567c.013779-4.111219.3367334-4.198891.3367334-.338138v.676237c0 .940593.7469286 1.690591 1.6836745 1.690591h.6734709 22.8979482.673471c.936746 0 1.683674-.749998 1.683674-1.690591v-.676237c.03306-4.583428.336742-3.015029.336742.338119v.785566c-.000008 1.123925-.90111 2.02873-2.020416 2.02873z" fill="url(#b)" opacity=".2"/><path d="m18.503357 16.571429c2.362014 0 .915801 10.402988.915801 10.402988s4.605338-.548185 8.335981-.0762c2.53971.321312 4.674044 1.11542 4.674044 2.877141 0-1.059522-.000612-2.293727-.000612-2.293727l-10.910209-10.910202z" fill-rule="evenodd" opacity=".2" stroke-width=".709936"/><path d="m19.617915 16.578262c2.225494 0 .801612 9.609776.801612 9.609776s12.012265-1.475777 12.012265 2.622383c0-.99828-.0032-1.328788-.0032-1.328788l-10.91023-10.910204z" fill="url(#a)" fill-rule="evenodd" stroke-width=".668903"/><g fill="#fff" transform="matrix(.50459919 0 0 .50459922 -2.847287 -1.886522)"><path d="m34.782552 88.127604h-3.919271l-.618489 1.770833h-2.519532l3.600261-9.720052h2.988281l3.60026 9.720052h-2.519531zm-3.294271-1.803385h2.662761l-1.328125-3.867188z"/><path d="m38.779948 80.178385h2.50651v5.826823q0 1.204427.390625 1.725261.397135.514322 1.289062.514322.898438 0 1.289063-.514322.397135-.520834.397135-1.725261v-5.826823h2.506511v5.826823q0 2.063802-1.035157 3.072917-1.035156 1.009114-3.157552 1.009114-2.115885 0-3.151041-1.009114-1.035156-1.009115-1.035156-3.072917z"/><path d="m49.613281 80.178385h4.160156q1.855468 0 2.845052.826823.996093.820313.996093 2.34375 0 1.529948-.996093 2.356771-.989584.820312-2.845052.820312h-1.653646v3.372396h-2.50651zm2.50651 1.816407v2.714843h1.386719q.729166 0 1.126302-.351562.397135-.358073.397135-1.009115 0-.651041-.397135-1.002604-.397136-.351562-1.126302-.351562z"/></g></g><path d="m2.1 16h19.8v1h-19.8z" opacity=".3"/></svg>