<svg height="24" width="24" xmlns="http://www.w3.org/2000/svg" xmlns:xlink="http://www.w3.org/1999/xlink"><linearGradient id="a"><stop offset="0"/><stop offset="1" stop-opacity="0"/></linearGradient><linearGradient id="b" gradientTransform="matrix(.90659037 0 0 .92290809 -5.072708 14.780623)" gradientUnits="userSpaceOnUse" x1="32.891998" x2="36.358002" y1="8.059" y2="5.4565"><stop offset="0" stop-color="#697884"/><stop offset="1" stop-color="#5c6874"/></linearGradient><radialGradient id="c" cx="48" cy="90.171875" gradientTransform="matrix(.38970735 0 0 .33673464 -.420242 14.493148)" gradientUnits="userSpaceOnUse" r="42" xlink:href="#d"/><linearGradient id="d"><stop offset="0" stop-color="#fff"/><stop offset="1" stop-color="#fff" stop-opacity="0"/></linearGradient><linearGradient id="e" gradientTransform="matrix(0 -.42933676 .33673468 0 2.122449 47.433164)" gradientUnits="userSpaceOnUse" x1="7.3709" x2="23.76619" y1="51.470146" y2="51.433136"><stop offset="0" stop-color="#202d3d"/><stop offset="1" stop-color="#2d3b48"/></linearGradient><linearGradient id="f" gradientUnits="userSpaceOnUse" x1="248.07678816" x2="248.07678816" y1="-62.6598922" y2="-98.66515562275"><stop offset="0" stop-color="#404c5c"/><stop offset="1" stop-color="#566671"/></linearGradient><linearGradient id="g" gradientTransform="matrix(.4285717 0 0 .43033246 227.50536 -101.24189)" gradientUnits="userSpaceOnUse" x1="36.357143" x2="36.357143" xlink:href="#d" y1="6" y2="63.893143"/><linearGradient id="h" gradientTransform="matrix(1.0058652 0 0 .994169 100 0)" gradientUnits="userSpaceOnUse" x1="45.447727" x2="45.447727" y1="92.539597" y2="7.01654"><stop offset="0"/><stop offset="1" stop-opacity=".588235"/></linearGradient><linearGradient id="i" gradientTransform="matrix(.90932204 0 0 -.90907903 8.945106 90.567956)" gradientUnits="userSpaceOnUse" x1="32.251034" x2="32.251034" xlink:href="#h" y1="6.131708" y2="90.238609"/><linearGradient id="j" gradientTransform="matrix(.88394566 0 0 -.88394572 10.163169 89.361561)" gradientUnits="userSpaceOnUse" x1="32.251034" x2="32.251034" xlink:href="#h" y1="6.131708" y2="90.238609"/><linearGradient id="k" gradientUnits="userSpaceOnUse" x1="51.42857" x2="90.714287" y1="72.785713" y2="72.785713"><stop offset="0" stop-color="#5e8a20"/><stop offset="1" stop-color="#a2d625"/></linearGradient><linearGradient id="l" gradientUnits="userSpaceOnUse" x1="45.71890811579" x2="45.99999978133" xlink:href="#a" y1="67.04118454384" y2="30.00000052533"/><linearGradient id="m" gradientUnits="userSpaceOnUse" x1="45.71890811579" x2="45.71890811579" xlink:href="#a" y1="67.04118454384" y2="30.99282968803"/><linearGradient id="n" gradientUnits="userSpaceOnUse" x1="45.71890811579" x2="45.71890811579" xlink:href="#d" y1="47.17105961932" y2="30.15040802073"/><g transform="matrix(.7 0 0 .7 -.8 -9.5)"><g transform="matrix(.40210864 0 0 .40210864 -2.862207 11.842456)"><path d="m20.618253 86.01187c-3.916074 0-7.105399-3.225978-7.105399-7.187076v-63.785252c0-3.961099 3.189325-7.1870759 7.105399-7.1870759h41.230022l29.823983 29.8239829v41.148345c0 3.961098-3.189315 7.187076-7.1054 7.187076z" fill="url(#i)" opacity=".329"/><path d="m21.510559 84.057885h62.16399c3.34823 0 6.04372-2.727212 6.04372-6.114824v-39.038079l-29.09854-29.0985314h-39.10917c-3.34822 0-6.04372 2.7272114-6.04372 6.1148244v62.021786c0 3.387612 2.6955 6.114824 6.04372 6.114824z" fill="url(#j)" opacity=".412"/></g><g transform="matrix(.78571428 0 0 .78571428 -176.63176 94.08992)"><path d="m232.64822-98.6599h19.54285l13.88572 13.885715v19.542857c0 1.424571-1.14685 2.571428-2.57143 2.571428h-30.85714c-1.42458 0-2.57143-1.146857-2.57143-2.571428v-30.857144c0-1.424571 1.14685-2.571428 2.57143-2.571428z" fill="url(#f)"/><path d="m232.64822-98.6599c-1.42457 0-2.57143 1.151568-2.57143 2.581998v.860662 28.234034c1.98322 4.185183.51348 2.977317.42857.430332v-28.09486-.860668c0-1.197119.95064-2.151664 2.14286-2.151664h.85715 17.82858.85715l13.45714 13.326778v.860667 16.919747c-1.2063 3.165148.42855 3.584963.42855-.430333v-16.919747-.860668l-13.88571-13.896278z" fill="url(#g)" opacity=".3"/></g><g transform="matrix(.30812327 0 0 .30812327 2.628722 13.627448)"><path d="m90.714283 72.785713a19.642857 19.642857 0 1 1 -39.285713 0 19.642857 19.642857 0 1 1 39.285713 0z" fill="url(#k)" transform="matrix(0 -1.2727272 1.2726491 0 -44.630696 138.45454)"/><path d="m47.999975 23.000004c-13.806271 0-24.998464 11.19288-24.998464 24.999997 0 13.807119 11.192193 24.999999 24.998464 24.999999 13.80627 0 24.998463-11.19288 24.998463-24.999999 0-13.807117-11.192193-24.999997-24.998463-24.999997zm0 3.124999c12.080484 0 21.873655 9.793773 21.873655 21.874998 0 12.081227-9.793171 21.874999-21.873655 21.874999-12.080485 0-21.873656-9.793772-21.873656-21.874999 0-12.081225 9.793171-21.874998 21.873656-21.874998z" opacity=".05"/><path d="m47.999975 23.000004c-13.806271 0-24.998464 11.19288-24.998464 24.999997 0 13.807119 11.192193 24.999999 24.998464 24.999999 13.80627 0 24.998463-11.19288 24.998463-24.999999 0-13.807117-11.192193-24.999997-24.998463-24.999997zm0 2.083332c12.655746 0 22.915258 10.260142 22.915258 22.916665 0 12.656524-10.259512 22.916666-22.915258 22.916666-12.655747 0-22.915259-10.260142-22.915259-22.916666 0-12.656523 10.259512-22.916665 22.915259-22.916665z" opacity=".1"/><path d="m47.999975 23.000004c-13.806271 0-24.998464 11.19288-24.998464 24.999997 0 13.807119 11.192193 24.999999 24.998464 24.999999 13.80627 0 24.998463-11.19288 24.998463-24.999999 0-13.807117-11.192193-24.999997-24.998463-24.999997zm0 1.041667c13.231007 0 23.95686 10.726511 23.95686 23.95833 0 13.231821-10.725853 23.958332-23.95686 23.958332-13.231008 0-23.956861-10.726511-23.956861-23.958332 0-13.231819 10.725853-23.95833 23.956861-23.95833z" opacity=".08"/><g><path d="m39.90625 29.9375a1.0480634 1.0480634 0 0 0 -.96875 1.0625v16.9375h-5.59375a1.0480634 1.0480634 0 0 0 -.8125 1.71875l14.65625 18a1.0480634 1.0480634 0 0 0 1.625 0l14.65625-18a1.0480634 1.0480634 0 0 0 -.8125-1.71875h-5.59375v-16.9375a1.0480634 1.0480634 0 0 0 -1.0625-1.0625h-16a1.0480634 1.0480634 0 0 0 -.09375 0zm.09375.0625h16v18h6.65625l-14.65625 18-14.65625-18h6.65625z" fill="url(#l)" opacity=".1"/><path d="m55.90625 29c-.141597-.0024-.296606.0059-.4375.03125h-15.8125c-1.219937.199362-1.796456 1.466477-1.625 2.59375v15.40625c-1.737179.04037-3.494349-.08166-5.21875.0625-1.472135.340361-1.927489 2.422673-.8125 3.40625 4.876521 5.965328 9.725208 11.971747 14.625 17.90625.920978.93346 2.507698.60473 3.15625-.46875l14.40625-17.6875c1.094987-1.210834.01899-3.42092-1.625-3.21875h-4.59375v-16.3125c-.120522-1.031628-1.07132-1.702186-2.0625-1.71875zm-15.90625 1h16v18h6.65625l-14.65625 18-14.65625-18h6.65625z" fill="url(#l)" opacity=".05"/><path d="m33.34375 49 14.65625 18 14.65625-18h-.8125l-13.84375 17-13.84375-17z" fill="url(#m)" opacity=".3"/><path d="m40.000003 30.000004v17.999996h-6.666667l14.666667 18 14.666666-18h-6.666667v-17.999996z" fill="url(#n)"/></g><path d="m47.999975 23.000004c-13.806271 0-24.998464 11.19288-24.998464 24.999997 0 .172482-.0034.349185 0 .520834.274815-13.568816 11.364664-24.479164 24.998464-24.479164 13.633799 0 24.723648 10.910348 24.998463 24.479164.0035-.171649 0-.348352 0-.520834 0-13.807117-11.192193-24.999997-24.998463-24.999997z" opacity=".2"/><path d="m23 48.5c-.0033.167487 0 .331721 0 .5 0 13.807118 11.19373 25 25 25s25-11.192882 25-25c0-.168279.0033-.332513 0-.5-.268234 13.574632-11.361999 24.5-25 24.5s-24.731766-10.925368-25-24.5z" fill="#284651"/></g><path d="m17.574642 16.572005c2.498363 0 .978665 11.229997.978665 11.229997s13.877949-1.469924 13.877949 3.130712c0-1.120679-.0027-3.451081-.0027-3.451081l-10.910194-10.910204z" fill-rule="evenodd" opacity=".2" stroke-width=".750917"/><path d="m4.142857 42.281122c0 1.427115.901102 2.576021 2.0204085 2.576021h24.2448965c1.119307 0 2.020409-1.148906 2.020409-2.576021v-5.85255h-28.285714z" fill="url(#e)"/><path d="m6.1632649 44.857143c-1.1193059 0-2.0204079-.904805-2.0204079-2.02871v-.785567c.013779-4.111219.3367334-4.198891.3367334-.338138v.676237c0 .940593.7469286 1.690591 1.6836745 1.690591h.6734709 22.8979482.673471c.936746 0 1.683674-.749998 1.683674-1.690591v-.676237c.03306-4.583428.336742-3.015029.336742.338119v.785566c-.000008 1.123925-.90111 2.02873-2.020416 2.02873z" fill="url(#c)" opacity=".2"/><g fill-rule="evenodd"><path d="m18.503357 16.571429c2.362014 0 .915801 10.402988.915801 10.402988s4.605338-.548185 8.335981-.0762c2.53971.321312 4.674044 1.11542 4.674044 2.877141 0-1.059522-.000612-2.293727-.000612-2.293727l-10.910209-10.910202z" opacity=".2" stroke-width=".709936"/><path d="m19.617915 16.578262c2.225494 0 .801612 9.609776.801612 9.609776s12.012265-1.475777 12.012265 2.622383c0-.99828-.0032-1.328788-.0032-1.328788l-10.91023-10.910204z" fill="url(#b)" stroke-width=".668903"/></g></g><path d="m2.1 16h19.8v1h-19.8z" opacity=".3"/></svg>