<svg height="22" width="22" xmlns="http://www.w3.org/2000/svg"><path d="m10.965 3.066c-.4 0-.815.16-1.125.469l-6.375 6.375c-.62.62-.62 1.63 0 2.25l6.375 6.375c.62.62 1.63.62 2.25 0l6.375-6.375c.62-.62.62-1.63 0-2.25l-6.375-6.375a1.604 1.604 0 0 0 -1.125-.469zm.152 2.975a3.001 3.001 0 0 1 1.97.873 3.006 3.006 0 0 1 .65 3.27 2.998 2.998 0 0 1 -1.772 1.671v1.18h-2v-2a1 1 0 0 1 1-1c.407 0 .768-.24.924-.617a.994.994 0 0 0 -.217-1.09.994.994 0 0 0 -1.09-.217.994.994 0 0 0 -.617.924h-2c0-1.21.733-2.308 1.852-2.771.419-.174.864-.246 1.3-.223zm-.152 7.994a1 1 0 0 1 1 1 1 1 0 0 1 -1 1 1 1 0 0 1 -1-1 1 1 0 0 1 1-1z" fill="#bebebe"/></svg>