<svg height="22" width="22" xmlns="http://www.w3.org/2000/svg"><path d="m6.8571429.9999998c-2.1450109 0-3.9356648 1.6095488-4.4285715 3.7890625-1.3725143.2281875-2.4285714 1.52102-2.4285714 3.0859375 0 1.72589 1.2791864 3.1250002 2.8571429 3.1250002h10.2857141c1.577957 0 2.857143-1.3991102 2.857143-3.1250002 0-1.5101538-.983762-2.75548-2.285714-3.046875.000743-.0262 0-.051726 0-.078125 0-1.3807113-1.02335-2.5-2.285715-2.5-.434189 0-.832847.160705-1.178571.3906251-.836558-1.0123238-2.0470164-1.6406251-3.3928571-1.6406251z" fill="#e6e6e6" transform="translate(3 4)"/><path d="m11 9c-2.77 0-5 2.23-5 5s2.23 5 5 5 5-2.23 5-5-2.23-5-5-5z" fill="#da4453"/><path d="m10 18v-2h2v2zm0-3v-5h2v5z" fill="#fff" stroke-width="2"/></svg>