<svg height="16" width="16" xmlns="http://www.w3.org/2000/svg" xmlns:xlink="http://www.w3.org/1999/xlink"><linearGradient id="a" gradientTransform="matrix(.3333333 0 0 .3333689 .000711 -1.00048)" gradientUnits="userSpaceOnUse" x1="16.91585" x2="16.91585" y1="7.000642" y2="14"><stop offset="0" stop-color="#616668"/><stop offset="1" stop-color="#4d4d4d"/></linearGradient><linearGradient id="b" gradientTransform="matrix(.3042808 0 0 .2340042 .699331 2.837408)" gradientUnits="userSpaceOnUse" x1="24.682861" x2="24.682861" y1="9.241672" y2="13.523027"><stop offset="0"/><stop offset="1" stop-opacity="0"/></linearGradient><linearGradient id="c" gradientTransform="matrix(.2885901 0 0 .281741 1.073485 1.521639)" gradientUnits="userSpaceOnUse" x1="24.675762" x2="24.675762" xlink:href="#f" y1="1.69257" y2="44.295784"/><radialGradient id="d" cx="26.616697" cy="-2.064498" gradientTransform="matrix(0 -.3743803 .4655272 0 11.988014 19.393247)" gradientUnits="userSpaceOnUse" r="23" xlink:href="#f"/><linearGradient id="e" gradientTransform="matrix(.3191203 0 0 .3174019 .341115 .333339)" gradientUnits="userSpaceOnUse" x1="10.014208" x2="10.014208" y1="44.960102" y2="-11.86743"><stop offset="0" stop-color="#434343"/><stop offset="1" stop-color="#8a8a8a"/></linearGradient><linearGradient id="f"><stop offset="0" stop-color="#c6ddff"/><stop offset="1" stop-color="#7992ba"/></linearGradient><rect height="12.997867" rx="1.528437" ry="1.561794" style="fill-rule:evenodd;stroke-width:1.002133;stroke-linecap:round;stroke-linejoin:round;fill:url(#d);stroke:url(#e)" width="14.997868" x=".501066" y="1.501066"/><rect height="10.997867" rx=".536519" style="opacity:.4;fill:none;stroke-width:1.002133;stroke-linecap:round;stroke-linejoin:round;stroke:url(#c)" width="12.997868" x="1.501066" y="2.501066"/><path d="m1 5h14v1h-14z" fill="url(#b)" fill-rule="evenodd" opacity=".2"/><path d="m1.500711 1.5000001s13.112078.0028628 13.112078.0028628c.521641 0 .887922.4204419.887922.8856889v2.1114482h-14.99999986v-2.1114482c0-.4958934.40292819-.8885517.99999986-.8885517z" fill-rule="evenodd" stroke="url(#a)"/><g fill="#1a1a1a"><path d="m3.5 11.5h9v3h-9z" opacity=".5" stroke="#000"/><path d="m2.5 15v-4.499999h11v4.499999" opacity=".2" stroke="#fff"/></g></svg>