<svg height="16.009" width="16" xmlns="http://www.w3.org/2000/svg"><g fill="#bebebe" transform="translate(-163 -508.99)"><path d="m168.41 515a.50219.50219 0 1 0 .0937 1h6a.50005.50005 0 1 0 0-1h-6a.50005.50005 0 0 0 -.0937 0z"/><path d="m168.41 517a.50219.50219 0 1 0 .0937 1h5a.50005.50005 0 1 0 0-1h-5a.50005.50005 0 0 0 -.0937 0z"/><path d="m168.41 519a.50219.50219 0 1 0 .0937 1h6a.50005.50005 0 1 0 0-1h-6a.50005.50005 0 0 0 -.0937 0z"/><path d="m168.41 521a.50219.50219 0 1 0 .0937 1h3a.50005.50005 0 1 0 0-1h-3a.50005.50005 0 0 0 -.0937 0z"/><path d="m167 510c-1.0907 0-2 .9093-2 2v11c0 1.0907.9093 2 2 2h9c1.0907 0 2-.9093 2-2v-11c0-1.0907-.9093-2-2-2v13h-9z"/><path d="m168.41 509a.50005.50005 0 0 0 -.41.5v3a.50005.50005 0 1 0 1 0v-3a.50005.50005 0 0 0 -.59375-.5z"/><path d="m170.41 509a.50005.50005 0 0 0 -.41.5v3a.50005.50005 0 1 0 1 0v-3a.50005.50005 0 0 0 -.59375-.5z"/><path d="m172.41 509a.50005.50005 0 0 0 -.41.5v3a.50005.50005 0 1 0 1 0v-3a.50005.50005 0 0 0 -.59375-.5z"/><path d="m174.41 509a.50005.50005 0 0 0 -.41.5v3a.50005.50005 0 1 0 1 0v-3a.50005.50005 0 0 0 -.59375-.5z"/></g></svg>