<svg height="16.033" width="16" xmlns="http://www.w3.org/2000/svg"><g fill="#bebebe" transform="translate(-263 -648.99)"><path d="m269.88 649a1.0001 1.0001 0 0 0 -.88 1v3.5625l-1.2812-1.2812a1.0165 1.0165 0 1 0 -1.4375 1.4375l2.72 2.72v1.125l-2.7188 2.7188a1.0165 1.0165 0 1 0 1.4375 1.4375l1.28-1.28v3.56a1.0001 1.0001 0 0 0 1.7188.71875l4-4a1.0001 1.0001 0 0 0 0-1.4375l-2.28-2.28 2.2812-2.2812a1.0001 1.0001 0 0 0 0-1.4375l-4-4a1.0001 1.0001 0 0 0 -.84-.28zm1.12 3.44 1.56 1.56-1.56 1.56v-3.125zm0 6 1.5625 1.5625-1.5625 1.5625z"/><path d="m266 652h1v1h-1z"/><path d="m266 661h1v1h-1z"/><path d="m269 664h1v1h-1z"/><path d="m269 649h1v1h-1z"/></g></svg>