<svg height="16" width="16" xmlns="http://www.w3.org/2000/svg"><g fill="#bebebe" transform="translate(-83.0002 -175)"><path d="m87.38945 176.0625c-.85693.003-2.358.9136-2.358 2.52183v9.85317c0 .85692.70558 1.5625 1.5625 1.5625h9.4375c1.125.0312.93388-.98875.93388-.98875l-9.33599.0253c-2.28266.006-2.08441-2.99124-.0372-2.99375l9.40809-.0115.0312-10zm.63848 1.875h2.6875c3.31698 0 4.27148 1.26309 4.25 3.03125-.03 2.4678-2.19062 3.01183-4.81434 3.10346-.62199.0217-1.50599.0215-2.12316.0215zm2.03125 1.0625v4.03125c1.94269.023 2.99796-.68325 3-2.0625.003-1.76848-1.24077-1.93828-3-1.96875z"/><path d="m85.52087 186.0625h10.44808c-1.18379.49216-1.2956 2.4585 0 3h-10.44808z" opacity=".3"/></g></svg>