<svg height="16.001486" width="16" xmlns="http://www.w3.org/2000/svg"><g fill="#bebebe" transform="translate(-102.99995 -174.99887)"><path d="m110.8752 175c-.18579.0339-.36142.1217-.5.25l-4.90625 4c-.0212.01-.042.0201-.0625.0312 0 0-.32587.29728-.65625.75-.46317.5819-.66609 1.07212-.74995 1.90625-.00051.0118.00036.0195 0 .0312-.00016.0104-.00016.0208 0 .0312-.004.052-.004.10427 0 .15625l-.00005 7.8439c.00005.52358.47642.99995 1 1h7.19232c-.75614-.40392-1.44709-1.32631-1.75482-2h-4.4375v-6.625l4.03125 3.03125.44194-.88726c-1.35833-1.09428-2.76946-2.12305-4.16069-3.17524.0259-.0394.0349-.0872.0625-.125.1908-.26146.31874-.41421.34375-.4375l.0312-.0312 4.25-3.46875 4.3125 3.53125.0312.0312c.021.0255.18032.24952.34375.5l-1.3847 1.09976c.60223-.16145 1.11916-.10963 1.60412.0221l.5984-.45346.0172.42535c.44657.2433.87083.46429 1.47761.8678 0-2.08901-.37164-2.98949-1.37495-3.9928-.0102-.0106-.0206-.0211-.0312-.0312l-4.96888-4.0313c-.17939-.1582-.41707-.24875-.65625-.25-.0312-.001-.0625-.001-.0937 0z"/><path d="m108.9375 184.125-3.03125 5.125.875.53125 3.03125-5.15625z"/><path d="m115.00002 183.03089c-2.20755 0-4.01563 1.7772-4.01563 3.98474 0 2.20753 1.80808 3.98473 4.01563 3.98473 2.20754 0 3.98474-1.7772 3.98474-3.98473 0-2.20754-1.7772-3.98474-3.98474-3.98474zm-.55709.95757c.29815-.0579.61142.22239.5869.52512v2.81094l1.32824 1.32824c.372.372-.34245 1.0864-.71046.71046l-1.48269-1.48269-.12355-.15445v-.21622-2.99628c-.0107-.21455.13563-.42734.33977-.49423.0198-.0117.0405-.0221.0618-.0309z"/></g></svg>