<svg height="17.001" width="16" xmlns="http://www.w3.org/2000/svg"><g fill="#bebebe" transform="translate(-103 -669)"><path d="m105.84 669c-1.0855.0845-1.8627.94343-1.8438 2.0312v12.938c-.0172 1.1595.87136 2.0482 2.0312 2.0312h9.9375c1.1602.0172 2.0481-.87208 2.0312-2.0312v-9.97c-.008-.53261-.2464-1.0006-.625-1.375-.007-.007.007-.0243 0-.0312l-2.9375-2.9688c-.01-.0103-.0212-.0212-.0312-.0312-.38-.37-.88-.58-1.41-.59h-6.9375c-.0105-.00033-.0208.0002-.0312 0-.0314-.0006-.0624-.0006-.0937 0-.0105.0002-.0208-.00033-.0312 0v.8125l-.0625-.8125zm.15625 2h.0312 6.9375.0312v.0312l2.9688 2.9688h.0312v.0312 9.9375.0312h-.0312-9.9375-.0312v-.0312-12.938-.0312z"/><path d="m111 674.88c-2.2408 0-4.0625 1.8217-4.0625 4.0625s1.8217 4.0625 4.0625 4.0625 4.0625-1.8217 4.0625-4.0625-1.8217-4.0625-4.0625-4.0625zm0 1c1.7041 0 3.0625 1.3584 3.0625 3.0625s-1.3584 3.0625-3.0625 3.0625-3.0625-1.3584-3.0625-3.0625 1.3584-3.0625 3.0625-3.0625z"/><path d="m111 676.94c-1.0994 0-2 .90065-2 2s.90065 2 2 2 2-.90065 2-2-.90065-2-2-2zm0 1c.56265 0 1 .43735 1 1s-.43735 1-1 1-1-.43735-1-1 .43735-1 1-1z"/><path d="m109.33 675.6c-.76818.30889-1.3637.91476-1.6689 1.6848l1.9073.95366c.12816-.32566.37765-.59537.69936-.73114l-.93777-1.9073zm3.3378 0-.93777 1.9073c.32171.13577.5712.40548.69936.73114l1.9073-.95366c-.30524-.77005-.90073-1.3759-1.6689-1.6848zm-3.0994 4.069-1.9073.95366c.30877.75714.9099 1.3478 1.6689 1.653l.95366-1.9073c-.31881-.12998-.58152-.3825-.71525-.69935zm2.861 0c-.13373.31685-.39644.56937-.71525.69935l.95366 1.9073c.75901-.3052 1.3601-.89588 1.6689-1.653l-1.9073-.95366z"/></g></svg>