<svg height="16" width="16" xmlns="http://www.w3.org/2000/svg"><g fill="#bebebe" transform="translate(-123 -669)"><path d="m125.5 670c-1.385 0-2.5 1.115-2.5 2.5v1.4375c.71291-.50478 1.5707-.94508 2.5-.94508h7.0625c1.2671 0 2.4171.69286 3.2188 1.5701l3.22-2.56h-4c-.23235-1.1412-1.2256-2-2.4375-2z"/><path d="m125.5 675c-1.385 0-2.5 1.115-2.5 2.5v5c0 1.385 1.115 2.5 2.5 2.5h7.0625c1.385 0 2.4802-1.1151 2.5-2.5v-2.375l3.9375-3.125h-4c-.23235-1.1412-1.2256-2-2.4375-2zm3.9375 1c1.3139-.0736 2.4889.93606 2.5625 2.25-.00008 1.1211-.30842 1.5437-1.2812 2.2812-.15274.11491-.24173.20048-.28125.25-.0395.0497-.0312.0328-.0312.0312.006.42265-.3898.78125-.8125.78125s-.78685-.3586-.78125-.78125c0-.40191.17939-.75474.375-1 .19561-.24531.38054-.42561.5625-.5625.16324-.12845.38116-.31388.5625-.53125.0748-.0897.097-.23988.0937-.34375v-.0312c-.0253-.45059-.39316-.77528-.84375-.75-.45059.0253-.77528.36191-.75.8125h-1.625c-.0736-1.314.93606-2.3326 2.25-2.4062zm.15625 6.4062c.44182 0 .8125.37067.8125.8125 0 .44182-.37068.78125-.8125.78125s-.78125-.33943-.78125-.78125c0-.44183.33943-.8125.78125-.8125z"/></g></svg>