<svg height="16" width="16" xmlns="http://www.w3.org/2000/svg"><path d="m131.0002 236c-3.86599 0-7 3.13401-7 7s3.13401 7 7 7 7-3.13401 7-7-3.13401-7-7-7zm2.90625 2.46875a.50005.50005 0 0 1 .0312 0 .50005.50005 0 0 1 .46875.84375l-2.4062 3.21875c.0752.15039.0937.32043.0937.5 0 .61804-.47571 1.125-1.09375 1.125s-1.125-.50696-1.125-1.125c0-.13341.0509-.25636.0937-.375l-1.3125-1.3125a.50005.50005 0 1 1 .6875-.6875l1.3125 1.3125c.10883-.0353.22316-.0625.34375-.0625.055 0 .10335.0236.15625.0312l2.4375-3.25a.50005.50005 0 0 1 .28125-.1875.50005.50005 0 0 1 .0312-.0312z" fill="#bebebe" transform="translate(-123.00021 -235)"/></svg>