<svg height="16" width="16.000004" xmlns="http://www.w3.org/2000/svg"><g fill="#bebebe" transform="translate(-283.0002 -215)"><path d="m286.15645 216c-1.18715 0-2.15625.892-2.15625 2v10c0 1.108.9691 2 2.15625 2h10.84375s1 0 1-1v-12c0-1-1-1-1-1zm.21875 1h10.25c.21139 0 .375.17565.375.40625v11.1875c0 .23064-.16361.40625-.375.40625h-10.25c-.21137 0-.375-.17561-.375-.40625v-11.1875c0-.2306.16363-.40625.375-.40625zm1 1c-.20679 0-.34375.17516-.34375.40625v9.1875c0 .23108.13696.40625.34375.40625h8.25c.20678 0 .375-.17517.375-.40625v-9.1875c0-.23109-.16822-.40625-.375-.40625zm4.0625 2c.47901-.0152.93858.10167 1.375.375l.0312.0312c1.16448.74186 1.49186 2.27302.75 3.4375s-2.27302 1.49186-3.4375.75-1.49186-2.27302-.75-3.4375c.46114-.72384 1.2329-1.13098 2.03125-1.15625zm-.0625 1.5c-.2655.0385-.50061.1932-.65625.4375-.2782.43668-.15543 1.00305.28125 1.28125s1.00305.15543 1.28125-.28125.15543-1.00305-.28125-1.28125c-.10911-.0683-.22413-.13677-.34375-.15625-.0897-.0146-.19275-.0128-.28125 0z"/><rect height="2" rx=".416252" width="2.00371" x="283.00018" y="219"/><rect height="2" rx=".416252" width="2.003712" x="283.00018" y="225"/></g></svg>