<svg height="16.03125" width="16.03125" xmlns="http://www.w3.org/2000/svg"><g fill="#bebebe" transform="translate(-62.96895 -174.96875)"><path d="m-174-39.984375a2.015625 2.015625 0 1 1 -4.03125 0 2.015625 2.015625 0 1 1 4.03125 0z" transform="translate(241.0002 217)"/><path d="m-174-39.984375a2.015625 2.015625 0 1 1 -4.03125 0 2.015625 2.015625 0 1 1 4.03125 0z" transform="translate(241.0002 228.9375)"/><path d="m-174-39.984375a2.015625 2.015625 0 1 1 -4.03125 0 2.015625 2.015625 0 1 1 4.03125 0z" transform="translate(253.0002 228.9375)"/><path d="m-174-39.984375a2.015625 2.015625 0 1 1 -4.03125 0 2.015625 2.015625 0 1 1 4.03125 0z" transform="translate(253.0002 216.96875)"/><path d="m64.03125 176.03125v1 11.96875 1h1 11.96875 1v-1-11.96875-1h-1-11.96875zm2 2h9.96875v9.96875h-9.96875z"/><path d="m67.9375 180v.5 5 .5h.5 5.0625.5v-.5-5-.5h-.5-5.0625zm1 1h4.0625v4h-4.0625z"/><path d="m-166.5-31.765625a1.265625 1.265625 0 1 1 -2.53125 0 1.265625 1.265625 0 1 1 2.53125 0z" transform="matrix(1.1975309 0 0 1.1975309 274.38909 223.52469)"/><path d="m-166.5-31.765625a1.265625 1.265625 0 1 1 -2.53125 0 1.265625 1.265625 0 1 1 2.53125 0z" transform="matrix(1.1975309 0 0 1.1975309 269.38909 223.52469)"/><path d="m-166.5-31.765625a1.265625 1.265625 0 1 1 -2.53125 0 1.265625 1.265625 0 1 1 2.53125 0z" transform="matrix(1.1975309 0 0 1.1975309 269.38909 218.55594)"/><path d="m-166.5-31.765625a1.265625 1.265625 0 1 1 -2.53125 0 1.265625 1.265625 0 1 1 2.53125 0z" transform="matrix(1.1975309 0 0 1.1975309 274.45159 218.55594)"/><path d="m73.84375 185.1875-.6875.6875 3.40625 3.4375.71875-.71875z"/><path d="m68.5625 185.1875-3.40625 3.40625.6875.71875 3.4375-3.4375z"/><path d="m76.5625 177.1875-3.40625 3.40625.6875.71875 3.4375-3.4375z"/><path d="m65.84375 177.1875-.6875.6875 3.40625 3.4375.71875-.71875z"/></g></svg>