<svg height="16" width="16" xmlns="http://www.w3.org/2000/svg"><g fill="#bebebe" transform="translate(-303.03 -629.03)"><path d="m304 634v5h4.0625v-5zm2 1.9375 1-.9375v3h-1z"/><path d="m305 630c-.61019 0-1 .42165-1 .96875v.0312h1v-1zm0 1v1h1v-1zm1 0h1v-1h-1zm1 0v1h1v-1zm0 1h-1v1h1zm-2 0h-1v1h1z"/><path d="m309.09 634v5h3.9375v-5zm.90625 1h1.047c.77808 0 .95299.39744.95299.99295 0 .0763-.0231.11705-.0625.2258l-.41.78h.46875v1.0625h-1.2188-.8125l1.0282-1.9059c.0469-.0937-.00082-.15272-.0594-.15663h-.94z"/><path d="m309.09 630v1h.9375v-1h-.94zm.9375 1v1h1v-1zm1 0h1v-1h-1zm1 0v1h1v-1zm0 1h-1v1h1zm-2 0h-.9375v1h.9375z"/><path d="m314.09 634v5h3.9375v-5zm.90625 1h2.0312l-.0312.5v.46875.0937l-.0625.125-.15625.3125.1875.34375.0625.125v.125.40625.5h-2.0312v-1h.90625l-.125-.21875-.125-.25.125-.25.16-.27h-.94z"/><path d="m314.09 630v1h.90625v-1zm.90625 1v1h1v-1zm1 0h1v-1h-1zm1 0v1h1v-1zm0 1h-1v1h1zm-2 0h-.90625v1h.91z"/><path d="m309.09 634v5h3.9375v-5zm.90625 1h1.047c.77808 0 .95299.39744.95299.99295 0 .0763-.0231.11705-.0625.2258l-.41.78h.46875v1.0625h-1.2188-.8125l1.0282-1.9059c.0469-.0937-.00082-.15272-.0594-.15663h-.94z"/><path d="m314.09 634v5h3.9375v-5zm.90625 1h2.0312l-.0312.5v.46875.0937l-.0625.125-.15625.3125.1875.34375.0625.125v.125.40625.5h-2.0312v-1h.90625l-.125-.21875-.125-.25.125-.25.16-.27h-.94z"/><path d="m317 643c.61019 0 1-.42165 1-.96875v-.0312h-1v1zm0-1v-1h-1v1zm-1 0h-1v1h1zm-1 0v-1h-1v1zm0-1h1v-1h-1zm2 0h1v-1h-1z"/><path d="m312.91 643v-1h-.9375v1h.94zm-.9375-1v-1h-1v1zm-1 0h-1v1h1zm-1 0v-1h-1v1zm0-1h1v-1h-1zm2 0h.9375v-1h-.9375z"/><path d="m307.91 643v-1h-.90625v1zm-.90625-1v-1h-1v1zm-1 0h-1v1h1zm-1 0v-1h-1v1zm0-1h1v-1h-1zm2 0h.90625v-1h-.91z"/></g></svg>