<svg height="16" width="16" xmlns="http://www.w3.org/2000/svg"><g fill="#bebebe" transform="translate(-123 -529.03)"><path d="m127.96 537.66v2.3661h-3.5909c-.20663 0-.3683.20498-.3683.46705v1.0585c0 .26197.16167.46705.3683.46705h10.263c.20664 0 .36831-.20508.36831-.46705v-1.0585c0-.26197-.16167-.46705-.36831-.46705h-3.655v-2.3661z"/><path d="m126.8 529.03c-.95124 0-1.8.79333-1.8 1.7459v6.6134c0 .95261.84875 1.7459 1.8679 1.7459h5.2642c1.0192 0 1.8679-.79333 1.8679-1.7459v-6.6134c0-.9526-.84875-1.7459-1.8679-1.7459zm.20001 2h5c.00001.31661 0-.31595 0 0v6h-5z"/><path d="m128 532h3v1.0022h-3z"/><path d="m130 534h1v1.0022h-1z"/><path d="m132.23 532.03c.0701 0 0 .20877 0 .47581v1.0783c0 .26693.0701.47581.15975.47581h4.4516c.0896 0 .15974-.20888.15974-.47581v-1.0783c0-.26693-.0701-.47581-.15974-.47581-.15976 0-4.5857.0631-4.6113 0z"/><path d="m128.97 540.65c.0792-.0594.25217.0384.39407.22323l.57302.74611c.14184.18469.19083.37577.11162.43522-1.3118.9846-2.6237 1.9692-3.9356 2.9538-.0792.0594-.25222-.0385-.39407-.22323l-.57302-.74611c-.14184-.18469-.19083-.37577-.11162-.43522 0 0 3.9465-2.8932 3.9356-2.9538z"/><path d="m130.03 540.65c-.0792-.0594-.25217.0384-.39407.22323l-.57302.74611c-.14184.18469-.19083.37577-.11162.43522 1.3118.9846 2.6237 1.9692 3.9356 2.9538.0792.0594.25222-.0385.39407-.22323l.57302-.74611c.14184-.18469.19083-.37577.11162-.43522 0 0-3.9465-2.8932-3.9356-2.9538z"/></g></svg>