<svg height="16" width="16" xmlns="http://www.w3.org/2000/svg"><g fill="#bebebe" transform="translate(-223 -649)"><path d="m230.5 649.01c-4.1303 0-7.4866 3.3563-7.4866 7.4866s3.3563 7.4866 7.4866 7.4866 7.4866-3.3563 7.4866-7.4866-3.3563-7.4866-7.4866-7.4866zm0 1.9732c3.0494 0 5.5134 2.464 5.5134 5.5134s-2.464 5.5134-5.5134 5.5134-5.5134-2.464-5.5134-5.5134 2.464-5.5134 5.5134-5.5134z"/><path d="m227.31 652.97a.50005.50005 0 0 0 -.21875.84375l3.0938 3.0625a.50005.50005 0 0 0 .0625.0312.50005.50005 0 0 0 .0625.0312.50005.50005 0 0 0 .0625.0312.50005.50005 0 0 0 .0312 0 .50005.50005 0 0 0 .0625.0312.50005.50005 0 0 0 .0937 0h.15625 2.7812a.50005.50005 0 1 0 0-1h-2.75l-2.9688-2.875a.50005.50005 0 0 0 -.46875-.15625z"/></g></svg>