<svg height="16" width="16" xmlns="http://www.w3.org/2000/svg"><g fill="#bebebe" transform="translate(-143 -669)"><path d="m146 674.01v2h1.9199c-.0552 0 .084.15932.084.082v.92383h-1.0039c-1.7159 0-3.0301 1.1255-3.0547 2.4844-.0123.67945.30583 1.363.86133 1.8223.5555.45927 1.3154.69922 2.1934.69922h3.0039v-5.9297c0-1.1712-.88715-2.082-2.084-2.082h-1.9199zm1 5.0059h1.0039v1.0059h-1.0039c-.51941 0-.79379-.1379-.91992-.24219-.12614-.10429-.13607-.17218-.13477-.24414.003-.14393.0849-.51953 1.0547-.51953z"/><path d="m151 673v9.0234h3.002c.93855 0 1.7688-.37254 2.2988-.95899.53-.58644.76574-1.3366.75586-2.0664-.01-.72982-.26223-1.4658-.78907-2.043-.53-.57-1.35-.95-2.27-.95h-1.002v-3h-2zm2 5h1.002c.42179 0 .62551.12569.78711.30273.1616.17705.26384.44685.26758.72266.004.27581-.0886.52949-.24024.69727-.15162.16777-.35569.30078-.81445.30078h-1.002v-2.0234z"/></g></svg>