<svg height="16" width="16" xmlns="http://www.w3.org/2000/svg"><g fill="#bebebe" transform="translate(-43 -649)"><path d="m56.289 658.69c-.49379.47964-1.0774.69712-1.7883.69712-.71086 0-1.2972-.22349-1.791-.70313-.77657.27945-1.7052.99058-1.7063 2.2326l-.0027 2.3167c0 .42.313.76.7.76h5.6c.3878 0 .7-.34309.7-.76924v-2.3077c0-1.0667-.77162-1.966-1.7117-2.2356z"/><path d="m52 342.5a2.5 2.5 0 1 1 -5 0 2.5 2.5 0 1 1 5 0z" transform="matrix(.92307 0 0 .92307 8.8082 340.15)"/><path d="m49.289 654.69c-.49379.47964-1.0774.69712-1.7883.69712-.71086 0-1.2972-.22349-1.791-.70313-.77657.27945-1.7052.99058-1.7063 2.2326l-.0027 2.3167c0 .42.313.76.7.76h5.7354c.06219-.3952.26162-.72266.56465-1v-2.0769c0-1.0667-.77162-1.966-1.7117-2.2356z"/><path d="m52 342.5a2.5 2.5 0 1 1 -5 0 2.5 2.5 0 1 1 5 0z" transform="matrix(.92307 0 0 .92307 1.8082 336.15)"/></g></svg>