<svg height="16" width="16" xmlns="http://www.w3.org/2000/svg"><g fill="#bebebe" transform="translate(-283.03 -629.03)"><path d="m288.03 639.03 6.9982-7c1 0 2 1 2 2l-7 7h-2z" fill-rule="evenodd"/><path d="m296.03 631.03c1 0 2 1 2 2l1-1c0-1-.75185-2-2-2z"/><path d="m284.12 629.03c-.56869.00005-1.0937.50285-1.0938 1.0625v12.844.25.78125c.00005.55965.52506 1.0624 1.0938 1.0625h4.3438 1.125 5.3438c.55754-.00005 1.074-.48468 1.0938-1.0312.00039-.0109 0-.0204 0-.0312v-6.9376l-2 2v4h-9v-12h5l2 2 1.5312-1.5312-2.1875-2.125c-.20046-.20837-.48969-.3416-.78125-.34375z"/></g></svg>