<svg height="16" width="16" xmlns="http://www.w3.org/2000/svg"><g fill="#bebebe" transform="translate(-142 -490)"><path d="m144.19 490c-1.21 0-2.19 1.02-2.19 2.22v10.562c0 1.2008.98238 2.2188 2.1875 2.2188h11.625c1.2051 0 2.1875-1.0179 2.1875-2.2188v-10.562c-.01-1.2-.99-2.22-2.2-2.22h-11.625zm0 2h11.625c.12026 0 .1875.08.1875.21875v10.562c-.01.14-.08.22-.2.22h-11.625c-.12026 0-.1875-.08-.1875-.21875v-10.562c.01-.14.08-.22.2-.22z"/><path d="m151.31 493.97a.50005.50005 0 0 0 -.34375.34375l-1.6875 6.0938-.875-1.1875a.50005.50005 0 0 0 -.41-.22h-2.5-.5v1h.5 2.25l1.3125 1.7812a.50005.50005 0 0 0 .875-.15625l1.5312-5.4375 1.0625 3.4688a.50005.50005 0 0 0 .47.35h1.5.5v-1h-.5-1.125l-1.4375-4.6875a.50005.50005 0 0 0 -.625-.34375z"/></g></svg>