<svg height="48" width="48" xmlns="http://www.w3.org/2000/svg" xmlns:xlink="http://www.w3.org/1999/xlink"><linearGradient id="a"><stop offset="0"/><stop offset="1" stop-opacity="0"/></linearGradient><linearGradient id="b"><stop offset="0" stop-color="#fff"/><stop offset="1" stop-color="#fff" stop-opacity="0"/></linearGradient><linearGradient id="c" gradientTransform="matrix(.8148434 0 0 .6596233 -2.259471 3.233974)" gradientUnits="userSpaceOnUse" x1="33.579403" x2="33.579403" y1="5.708645" y2="16.323294"><stop offset="0" stop-color="#434a4a"/><stop offset="1" stop-color="#353b3d"/></linearGradient><linearGradient id="d" gradientUnits="userSpaceOnUse" x1="16.91585" x2="16.91585" y1="7.000642" y2="14"><stop offset="0" stop-color="#a1a1a1"/><stop offset="1" stop-color="#4d4d4d"/></linearGradient><linearGradient id="e" gradientTransform="matrix(.9563112 0 0 .4680085 1.055042 9.674819)" gradientUnits="userSpaceOnUse" x1="24.682861" x2="24.682861" xlink:href="#a" y1="9.241672" y2="13.523027"/><radialGradient id="f" cx="26.616697" cy="-2.064498" gradientTransform="matrix(-.00000002 -1.0656573 1.3967139 0 35.965186 58.558833)" gradientUnits="userSpaceOnUse" r="23"><stop offset="0" stop-color="#9bc0ff"/><stop offset="1" stop-color="#4d70ff"/></radialGradient><linearGradient id="g" gradientTransform="matrix(.9574517 0 0 .9034707 1.021178 4.30563)" gradientUnits="userSpaceOnUse" x1="10.014208" x2="10.014208" y1="44.960102" y2="2.876463"><stop offset="0" stop-color="#434343"/><stop offset="1" stop-color="#8a8a8a"/></linearGradient><radialGradient id="h" cx="605.71429" cy="486.64789" gradientTransform="matrix(-.0655873 0 0 .01647059 47.692226 36.961094)" gradientUnits="userSpaceOnUse" r="117.14286" xlink:href="#a"/><radialGradient id="i" cx="605.71429" cy="486.64789" gradientTransform="matrix(.0655873 0 0 .01647059 .307785 36.961094)" gradientUnits="userSpaceOnUse" r="117.14286" xlink:href="#a"/><linearGradient id="j" gradientTransform="matrix(.0655873 0 0 .01647059 .294877 36.961094)" gradientUnits="userSpaceOnUse" x1="302.85715" x2="302.85715" y1="366.64789" y2="609.50507"><stop offset="0" stop-opacity="0"/><stop offset=".5"/><stop offset="1" stop-opacity="0"/></linearGradient><linearGradient id="k"><stop offset="0" stop-color="#f0f0f0"/><stop offset="1" stop-color="#b0b0b0"/></linearGradient><linearGradient id="l" gradientTransform="matrix(.20718662 0 0 .21091579 3.77382 25.989497)" gradientUnits="userSpaceOnUse" x1="32.891998" x2="36.358002" xlink:href="#k" y1="8.059" y2="5.4565"/><radialGradient id="m" cx="48" cy="90.171875" gradientTransform="matrix(.08906134 0 0 .07695529 4.837066 25.923799)" gradientUnits="userSpaceOnUse" r="42" xlink:href="#b"/><linearGradient id="n" gradientTransform="matrix(0 -.09811801 .07695529 0 5.418158 33.45171)" gradientUnits="userSpaceOnUse" x1="7.3709" x2="23.76619" xlink:href="#o" y1="51.470146" y2="51.433136"/><linearGradient id="o"><stop offset="0" stop-color="#676f7d"/><stop offset="1" stop-color="#818791"/></linearGradient><linearGradient id="p" gradientTransform="matrix(.07695533 0 0 .07727151 5.418155 25.935128)" gradientUnits="userSpaceOnUse" x1="36.357143" x2="36.357143" xlink:href="#b" y1="6" y2="63.893143"/><linearGradient id="q" gradientUnits="userSpaceOnUse" x1="9.11200892" x2="9.11200892" xlink:href="#r" y1="32.8630021" y2="26.39781249817"/><linearGradient id="r" gradientUnits="userSpaceOnUse" x1="10.31979" x2="10.31979" y1="21" y2=".999296"><stop offset="0" stop-color="#e0e0e0"/><stop offset="1" stop-color="#f0f0f0"/></linearGradient><linearGradient id="s" gradientTransform="matrix(.88394566 0 0 -.88394572 10.163169 89.361561)" gradientUnits="userSpaceOnUse" x1="32.251034" x2="32.251034" y1="6.131708" y2="90.238609"><stop offset="0"/><stop offset="1" stop-opacity=".588235"/></linearGradient><linearGradient id="t" gradientTransform="matrix(.20718662 0 0 .21091579 3.77382 17.323311)" gradientUnits="userSpaceOnUse" x1="32.891998" x2="36.358002" xlink:href="#k" y1="8.059" y2="5.4565"/><radialGradient id="u" cx="48" cy="90.171875" gradientTransform="matrix(.08906134 0 0 .07695529 4.837066 17.257613)" gradientUnits="userSpaceOnUse" r="42" xlink:href="#b"/><linearGradient id="v" gradientTransform="matrix(0 -.09811801 .07695529 0 5.418158 24.785524)" gradientUnits="userSpaceOnUse" x1="7.3709" x2="23.76619" xlink:href="#o" y1="51.470146" y2="51.433136"/><linearGradient id="w" gradientTransform="matrix(.07695533 0 0 .07727151 5.418155 17.268942)" gradientUnits="userSpaceOnUse" x1="36.357143" x2="36.357143" xlink:href="#b" y1="6" y2="63.893143"/><linearGradient id="x" gradientUnits="userSpaceOnUse" x1="9.11200892" x2="9.11200892" xlink:href="#r" y1="24.1968161" y2="17.73162649817"/><path d="m8.165353 43h31.669294v4h-31.669294z" fill="url(#j)" opacity=".3"/><path d="m39.834649 43.000138v3.999779c3.377583.007526 8.165353-.896147 8.165351-2.000147 0-1.104-3.769128-1.999632-8.165351-1.999632z" fill="url(#i)" opacity=".3"/><path d="m8.1653532 43.000138v3.999779c-3.3775844.007526-8.1653532-.896147-8.1653532-2.000147s3.7691287-1.999632 8.1653532-1.999632z" fill="url(#h)" opacity=".3"/><rect height="36.997868" rx="2.665984" style="fill-rule:evenodd;stroke-width:1.002133;stroke-linecap:round;stroke-linejoin:round;fill:url(#f);stroke:url(#g)" width="44.997868" x="1.501066" y="7.501066"/><path d="m2 14h44v2h-44z" fill="url(#e)" fill-rule="evenodd" opacity=".2"/><path d="m4.5 7.500642 39.336231.00859c1.564925 0 2.663769 1.2611873 2.663769 2.656781v4.833987h-44.9999999l-.0000001-4.833989c0-1.487521 1.2087852-2.665369 3-2.665369z" fill="url(#c)" fill-rule="evenodd" stroke="url(#d)"/><path d="m8.499999 37.5h31.000002v7h-31.000002z" fill="#1a1a1a" opacity=".5" stroke="#000"/><path d="m7.5000003 45.000002c0-2.615385 0-8.5 0-8.5h33.0000007v8.5" fill="none" opacity=".2" stroke="#fff"/><path d="m21.510559 84.057885h62.16399c3.34823 0 6.04372-2.727212 6.04372-6.114824v-39.038079l-29.09854-29.0985314h-39.10917c-3.34822 0-6.04372 2.7272114-6.04372 6.1148244v62.021786c0 3.387612 2.6955 6.114824 6.04372 6.114824z" fill="url(#s)" opacity=".63" transform="matrix(.09287336 0 0 .09287336 4.22793 16.821075)"/><path d="m6.3416194 17.73257h3.50916l2.4933526 2.493353v3.509161c0 .255799-.205931.461732-.461733.461732h-5.5407796c-.255801 0-.461732-.205933-.461732-.461732v-5.540782c0-.2558.205931-.461732.461732-.461732z" fill="url(#x)"/><path d="m6.3416194 17.73257c-.255799 0-.461732.206778-.461732.463629v.154543 5.06977c.356112.751502.0922.534614.07696.07727v-5.044779-.154544c0-.214958.170699-.386359.384776-.386359h.153912 3.201342.153912l2.4163946 2.392989v.154544 3.038149c-.216606.568342.07695.643725.07695-.07727v-3.038149-.154544l-2.4933496-2.495249z" fill="url(#w)"/><path d="m8.9495074 17.732701c.570961 0 .223658 2.566436.223658 2.566436s3.1715816-.335927 3.1715816.715475c0-.256114-.000619-.788689-.000619-.788689l-2.4933616-2.493353z" fill-rule="evenodd" opacity=".2" stroke-width=".17161"/><path d="m5.8798894 23.608107c0 .326145.205932.588709.461732.588709h5.5407806c.255799 0 .461731-.262564.461731-.588709v-1.135287h-6.4642436z" fill="url(#v)"/><path d="m6.3416214 24.196816c-.2558 0-.461732-.206778-.461732-.463629v-.179529c.0032-.939554.07695-.959588.07695-.07727v.154543c0 .214957.170698.386357.384777.386357h.153911 5.2329556.153911c.214079 0 .384777-.1714.384777-.386357v-.154543c.0076-1.047469.07695-.689036.07695.07727v.179528c-.000001.256856-.205934.463633-.461733.463633z" fill="url(#u)" opacity=".2"/><path d="m9.1617504 17.73257c.5398 0 .209292 2.377437.209292 2.377437s1.0524746-.12528 1.9050536-.01741c.58041.07343 1.068177.254911 1.068177.657524 0-.242137-.00014-.524194-.00014-.524194l-2.4933516-2.493353z" fill-rule="evenodd" opacity=".2" stroke-width=".162244"/><path d="m9.4164644 17.734132c.508601 0 .183195 2.19616.183195 2.19616s2.7452096-.337265 2.7452096.599304c0-.228141-.000731-.303673-.000731-.303673l-2.4933556-2.493353z" fill="url(#t)" fill-rule="evenodd" stroke-width=".152867"/><path d="m21.510559 84.057885h62.16399c3.34823 0 6.04372-2.727212 6.04372-6.114824v-39.038079l-29.09854-29.0985314h-39.10917c-3.34822 0-6.04372 2.7272114-6.04372 6.1148244v62.021786c0 3.387612 2.6955 6.114824 6.04372 6.114824z" fill="url(#s)" opacity=".63" transform="matrix(.09287336 0 0 .09287336 4.22793 25.487262)"/><path d="m6.3416194 26.398757h3.50916l2.4933526 2.493352v3.509161c0 .255799-.205931.461731-.461733.461731h-5.5407796c-.255801 0-.461732-.205932-.461732-.461731v-5.540782c0-.255799.205931-.461731.461732-.461731z" fill="url(#q)"/><path d="m6.3416194 26.398757c-.255799 0-.461732.206777-.461732.463629v.154543 5.06977c.356112.751501.0922.534613.07696.07727v-5.044779-.154544c0-.214957.170699-.386358.384776-.386358h.153912 3.201342.153912l2.4163946 2.392987v.154545 3.038149c-.216606.568342.07695.643725.07695-.07727v-3.03815-.154543l-2.4933496-2.495249z" fill="url(#p)"/><path d="m8.9495074 26.398888c.570961 0 .223658 2.566435.223658 2.566435s3.1715816-.335927 3.1715816.715474c0-.256113-.000619-.788688-.000619-.788688l-2.4933616-2.493352z" fill-rule="evenodd" opacity=".2" stroke-width=".17161"/><path d="m5.8798894 32.274294c0 .326144.205932.588708.461732.588708h5.5407806c.255799 0 .461731-.262564.461731-.588708v-1.135288h-6.4642436z" fill="url(#n)"/><path d="m6.3416214 32.863002c-.2558 0-.461732-.206778-.461732-.46363v-.179528c.0032-.939554.07695-.959589.07695-.07728v.154543c0 .214958.170698.386358.384777.386358h.153911 5.2329556.153911c.214079 0 .384777-.1714.384777-.386358v-.154543c.0076-1.047469.07695-.689037.07695.07727v.179528c-.000001.256855-.205934.463634-.461733.463634z" fill="url(#m)" opacity=".2"/><path d="m9.1617504 26.398757c.5398 0 .209292 2.377436.209292 2.377436s1.0524746-.125281 1.9050536-.01741c.58041.07343 1.068177.254911 1.068177.657525 0-.242137-.00014-.524194-.00014-.524194l-2.4933516-2.493352z" fill-rule="evenodd" opacity=".2" stroke-width=".162244"/><path d="m9.4164644 26.400318c.508601 0 .183195 2.19616.183195 2.19616s2.7452096-.337265 2.7452096.599303c0-.22814-.000731-.303672-.000731-.303672l-2.4933556-2.493352z" fill="url(#l)" fill-rule="evenodd" stroke-width=".152867"/><g fill="#fff"><path d="m6.6251054 11.305438a1.3125529 1.3125529 0 1 1 -2.625105 0 1.3125529 1.3125529 0 1 1 2.625105 0z" opacity=".7"/><path d="m44.577505 11.128951a1.3125534 1.3125534 0 1 1 -2.625101 0 1.3125534 1.3125534 0 1 1 2.625101 0z" opacity=".7"/><path d="m41.213093 11.128951a1.3125555 1.3125555 0 1 1 -2.62511 0 1.3125555 1.3125555 0 1 1 2.62511 0z" opacity=".7"/><path d="m37.848565 11.128951a1.3125565 1.3125565 0 1 1 -2.625113 0 1.3125565 1.3125565 0 1 1 2.625113 0z" opacity=".7"/><text style="font-size:26.251022;font-family:sans-serif;letter-spacing:0;word-spacing:0;opacity:.7;stroke-width:.656277" x="19.107357" y="12.947807"><tspan fill="#fff" font-family="Ubuntu" font-size="3.500144" font-weight="500" stroke-width=".656277" x="19.107357" y="12.947807">18:30</tspan></text></g></svg>