<svg height="48" width="48" xmlns="http://www.w3.org/2000/svg" xmlns:xlink="http://www.w3.org/1999/xlink"><linearGradient id="a" gradientTransform="matrix(1.1538423 0 0 1.1746103 -5.728901 4.720793)" gradientUnits="userSpaceOnUse" x1="32.891998" x2="36.358002" y1="8.059" y2="5.4565"><stop offset="0" stop-color="#d6dfea"/><stop offset="1" stop-color="#b3bccc"/></linearGradient><radialGradient id="b" cx="48" cy="90.171875" gradientTransform="matrix(.49599117 0 0 .42857136 .192419 4.354916)" gradientUnits="userSpaceOnUse" r="42" xlink:href="#c"/><linearGradient id="c"><stop offset="0" stop-color="#fff"/><stop offset="1" stop-color="#fff" stop-opacity="0"/></linearGradient><linearGradient id="d" gradientTransform="matrix(0 -.54642861 .42857142 0 3.428572 46.278573)" gradientUnits="userSpaceOnUse" x1="7.3709" x2="23.76619" y1="51.470146" y2="51.433136"><stop offset="0" stop-color="#676f7d"/><stop offset="1" stop-color="#818791"/></linearGradient><linearGradient id="e" gradientUnits="userSpaceOnUse" x1="248.07678816" x2="248.07678816" y1="-62.6598922" y2="-98.66515562275"><stop offset="0" stop-color="#adb6c2"/><stop offset="1" stop-color="#c1c8d4"/></linearGradient><linearGradient id="f" gradientTransform="matrix(.4285717 0 0 .43033246 227.50536 -101.24189)" gradientUnits="userSpaceOnUse" x1="36.357143" x2="36.357143" xlink:href="#c" y1="6" y2="63.893143"/><linearGradient id="g" gradientTransform="matrix(1.0058652 0 0 .994169 100 0)" gradientUnits="userSpaceOnUse" x1="45.447727" x2="45.447727" y1="92.539597" y2="7.01654"><stop offset="0"/><stop offset="1" stop-opacity=".588235"/></linearGradient><linearGradient id="h" gradientTransform="matrix(.90932204 0 0 -.90907903 8.945106 90.567956)" gradientUnits="userSpaceOnUse" x1="32.251034" x2="32.251034" xlink:href="#g" y1="6.131708" y2="90.238609"/><linearGradient id="i" gradientTransform="matrix(.88394566 0 0 -.88394572 10.163169 89.361561)" gradientUnits="userSpaceOnUse" x1="32.251034" x2="32.251034" xlink:href="#g" y1="6.131708" y2="90.238609"/><clipPath id="j"><path d="m-88 6c-3.324 0-6 2.676-6 6v72c0 3.324 2.676 6 6 6h72c3.324 0 6-2.676 6-6v-72c0-3.324-2.676-6-6-6zm4 38a36 36 0 0 1 36 36h-7.1875a28.8 28.8 0 0 0 -28.8125-28.8125zm0 12.125a23.862857 23.862857 0 0 1 23.875 23.875h-7a16.868571 16.868571 0 0 0 -16.875-16.875zm4.9375 14c2.726708 0 4.9375 2.210792 4.9375 4.9375 0 2.726709-2.210792 4.9375-4.9375 4.9375-2.726709 0-4.9375-2.210791-4.9375-4.9375 0-2.726708 2.210792-4.9375 4.9375-4.9375z"/></clipPath><filter id="k" color-interpolation-filters="sRGB"><feGaussianBlur stdDeviation="1.08"/></filter><linearGradient id="l" gradientUnits="userSpaceOnUse" x1="38.5" x2="38.5" y1="80" y2="24.997727375"><stop offset="0" stop-color="#d4530d"/><stop offset="1" stop-color="#f7ad25"/></linearGradient><g transform="matrix(1.05 0 0 1.05 -1.2 -2.25)"><g transform="matrix(.51177463 0 0 .51177463 -2.915536 .981307)"><path d="m20.618253 86.01187c-3.916074 0-7.105399-3.225978-7.105399-7.187076v-63.785252c0-3.961099 3.189325-7.1870759 7.105399-7.1870759h41.230022l29.823983 29.8239829v41.148345c0 3.961098-3.189315 7.187076-7.1054 7.187076z" fill="url(#h)" opacity=".2"/><path d="m21.510559 84.057885h62.16399c3.34823 0 6.04372-2.727212 6.04372-6.114824v-39.038079l-29.09854-29.0985314h-39.10917c-3.34822 0-6.04372 2.7272114-6.04372 6.1148244v62.021786c0 3.387612 2.6955 6.114824 6.04372 6.114824z" fill="url(#i)" opacity=".3"/></g><g transform="translate(-224.07679 105.6599)"><path d="m232.64822-98.6599h19.54285l13.88572 13.885715v19.542857c0 1.424571-1.14685 2.571428-2.57143 2.571428h-30.85714c-1.42458 0-2.57143-1.146857-2.57143-2.571428v-30.857144c0-1.424571 1.14685-2.571428 2.57143-2.571428z" fill="url(#e)"/><path d="m232.64822-98.6599c-1.42457 0-2.57143 1.151568-2.57143 2.581998v.860662 28.234034c1.98322 4.185183.51348 2.977317.42857.430332v-28.09486-.860668c0-1.197119.95064-2.151664 2.14286-2.151664h.85715 17.82858.85715l13.45714 13.326778v.860667 16.919747c-1.2063 3.165148.42855 3.584963.42855-.430333v-16.919747-.860668l-13.88571-13.896278z" fill="url(#f)" opacity=".3"/></g><path d="m23.095 7.0007336c3.179734 0 1.245573 14.2927244 1.245573 14.2927244s17.662844-1.870813 17.662844 3.984542c0-1.426319-.003417-4.392285-.003417-4.392285l-13.88572-13.885715z" fill-rule="evenodd" opacity=".2" stroke-width=".955713"/><path d="m6 39.721429c0 1.816327 1.146857 3.278571 2.571429 3.278571h30.857142c1.424572 0 2.571429-1.462244 2.571429-3.278571v-6.150001h-36z" fill="url(#d)"/><path d="m8.5714282 43c-1.4245712 0-2.5714282-1.151569-2.5714282-2.581994v-.999812c.017537-5.232461.4285697-5.344044.4285697-.430358v.860665c0 1.197119.9506364 2.151662 2.1428585 2.151662h.8571448 29.142844.857145c1.192222 0 2.142858-.954543 2.142858-2.151662v-.860665c.04207-5.833454.42858-3.83731.42858.430333v.999812c-.00001 1.43045-1.146867 2.582019-2.571438 2.582019z" fill="url(#b)" opacity=".2"/><g fill-rule="evenodd"><path d="m24.277 7c3.0062 0 1.165566 13.240168 1.165566 13.240168s16.558213-1.970967 16.558213 3.564832c0-1.348478-.000779-2.919285-.000779-2.919285l-13.88572-13.885715z" opacity=".2" stroke-width=".903555"/><path d="m25.695529 7.0086975c2.832447 0 1.020233 12.2306245 1.020233 12.2306245s15.288338-1.878262 15.288338 3.337578c0-1.270538-.0041-1.691185-.0041-1.691185l-13.88572-13.885715z" fill="url(#a)" stroke-width=".851331"/></g></g><path d="m5.1000001 33h37.7999999v1h-37.7999999z" opacity=".3"/><path d="m5.1000001 32h37.7999999v1h-37.7999999z" fill="#fff" opacity=".3"/><g fill="#fff" transform="matrix(.45834301 0 0 .45834301 .080426 -.501614)"><path d="m38.739231 83.811882q.886231 0 1.26709-.32959.388184-.32959.388184-1.083984 0-.747071-.388184-1.069336-.380859-.322266-1.26709-.322266h-1.186523v2.805176zm-1.186523 1.948242v4.138184h-2.819825v-10.935059h4.306641q2.160645 0 3.164063.725098 1.010742.725098 1.010742 2.29248 0 1.083985-.527344 1.779785-.52002.695801-1.574707 1.025391.578613.131836 1.032715.600586.461426.461426.930176 1.40625l1.530761 3.105469h-3.002929l-1.333008-2.717285q-.402832-.820313-.820313-1.120606-.410156-.300293-1.098632-.300293z"/><path d="m53.885715 79.307487v2.314454q-.900878-.402832-1.757812-.607911-.856934-.205078-1.618652-.205078-1.010743 0-1.494141.278321-.483398.27832-.483398.864257 0 .439454.322265.688477.32959.241699 1.186524.41748l1.201172.2417q1.82373.366211 2.592773 1.113281.769043.74707.769043 2.124023 0 1.809082-1.07666 2.695313-1.069336.878906-3.273926.878906-1.040039 0-2.087402-.197754-1.047364-.197754-2.094727-.585937v-2.380371q1.047363.55664 2.021484.842285.981446.27832 1.889649.27832.922851 0 1.413574-.307617.490723-.307617.490723-.878906 0-.512696-.336914-.791016-.32959-.27832-1.325684-.498047l-1.091308-.241699q-1.640625-.351563-2.402344-1.120606-.754395-.769042-.754395-2.072753 0-1.633301 1.054688-2.512207 1.054687-.878907 3.032226-.878907.900879 0 1.853028.13916.952148.131836 1.970214.402832z"/><path d="m64.022434 79.307487v2.314454q-.900879-.402832-1.757812-.607911-.856934-.205078-1.618653-.205078-1.010742 0-1.49414.278321-.483399.27832-.483399.864257 0 .439454.322266.688477.32959.241699 1.186523.41748l1.201172.2417q1.823731.366211 2.592774 1.113281.769043.74707.769043 2.124023 0 1.809082-1.07666 2.695313-1.069336.878906-3.273926.878906-1.040039 0-2.087403-.197754-1.047363-.197754-2.094726-.585937v-2.380371q1.047363.55664 2.021484.842285.981446.27832 1.889649.27832.922851 0 1.413574-.307617.490723-.307617.490723-.878906 0-.512696-.336915-.791016-.329589-.27832-1.325683-.498047l-1.091309-.241699q-1.640625-.351563-2.402343-1.120606-.754395-.769042-.754395-2.072753 0-1.633301 1.054687-2.512207 1.054688-.878907 3.032227-.878907.900879 0 1.853027.13916.952149.131836 1.970215.402832z"/></g><g transform="matrix(.46296295 0 0 .46296295 .259259 -6.703703)"><path d="m-84 44v7.2a28.8 28.8 0 0 1 28.8 28.8h7.2a36 36 0 0 0 -36-36zm0 12.137143v6.994286a16.868571 16.868571 0 0 1 16.868571 16.868571h6.994286a23.862857 23.862857 0 0 0 -23.862857-23.862857zm4.937142 13.988571c-2.726708 0-4.937142 2.210435-4.937142 4.937143 0 2.726709 2.210434 4.937143 4.937143 4.937143 2.726708 0 4.937143-2.210434 4.937143-4.937143 0-2.726708-2.210435-4.937143-4.937143-4.937143z" style="opacity:.12;fill:none;stroke:#fff;stroke-width:2;clip-path:url(#j);filter:url(#k)" transform="translate(100)"/><path d="m16 44v7.2a28.8 28.8 0 0 1 28.8 28.8h7.2a36 36 0 0 0 -36-36zm0 12.137143v6.994286a16.868571 16.868571 0 0 1 16.868571 16.868571h6.994286a23.862857 23.862857 0 0 0 -23.862857-23.862857zm4.937142 13.988571c-2.726708 0-4.937142 2.210435-4.937142 4.937143 0 2.726709 2.210434 4.937143 4.937143 4.937143 2.726708 0 4.937143-2.210434 4.937143-4.937143 0-2.726708-2.210435-4.937143-4.937144-4.937143z" fill="url(#l)"/><path d="m16 44v7.1875c.323237.01539.646215.03623.96875.0625.000668-.02083.000668-.04167 0-.0625v-6.15625c.812941.02133 1.604135.03984 2.46875.125 1.20415.118598 2.219523.263945 3.40625.5s2.154625.461262 3.3125.8125 2.132128.693212 3.25 1.15625 2.026646.929621 3.09375 1.5 1.962691 1.077773 2.96875 1.75 1.814676 1.294899 2.75 2.0625 1.706918 1.425668 2.5625 2.28125 1.513649 1.627176 2.28125 2.5625 1.390273 1.743941 2.0625 2.75 1.179621 1.901646 1.75 2.96875 1.036962 1.975878 1.5 3.09375.805012 2.092125 1.15625 3.25.576445 2.125773.8125 3.3125.381402 2.2021.5 3.40625c.08516.864615.103674 1.655809.125 2.46875h-6.15625c-.01042-.000167-.02083-.000167-.03125 0 .01585.322711.02627.645689.03125.96875h7.1875c0-9.424778-3.879831-18.79152-10.544156-25.455844-6.664324-6.664325-16.031066-10.544156-25.455844-10.544156zm0 12.125v7c.323427.01154.646522.03238.96875.0625.000668-.02083.000668-.04167 0-.0625v-5.96875c.409214.01676.820495.01733 1.28125.0625.809435.07936 1.421001.154134 2.21875.3125s1.40913.326654 2.1875.5625 1.373515.438949 2.125.75 1.313896.585492 2.03125.96875 1.229945.704482 1.90625 1.15625 1.183765.796578 1.8125 1.3125 1.081149.956149 1.65625 1.53125 1.015328 1.027515 1.53125 1.65625.860732 1.136195 1.3125 1.8125.772992 1.188896 1.15625 1.90625.657699 1.279765.96875 2.03125.514154 1.34663.75 2.125.404134 1.389751.5625 2.1875.233142 1.409315.3125 2.21875c.04517.460755.04574.872036.0625 1.28125h-5.96875c-.02083-.000668-.04167-.000668-.0625 0 .03012.322228.05096.645323.0625.96875h7c.003182-6.251329-2.568908-12.465376-6.989266-16.885734s-10.634405-6.992448-16.885734-6.989266zm4.9375 14c-2.726708 0-4.9375 2.210792-4.9375 4.9375 0 2.726709 2.210791 4.9375 4.9375 4.9375 2.726708 0 4.9375-2.210791 4.9375-4.9375 0-2.726708-2.210792-4.9375-4.9375-4.9375zm0 .96875c2.200152 0 3.96875 1.768598 3.96875 3.96875 0 2.200153-1.768598 3.96875-3.96875 3.96875-2.200153 0-3.96875-1.768597-3.96875-3.96875 0-2.200152 1.768598-3.96875 3.96875-3.96875z" fill="#803300" opacity=".3"/><path d="m16 44v1a36 36 0 0 1 35.9375 35h.0625a36 36 0 0 0 -36-36zm0 12.125v1a23.862857 23.862857 0 0 1 23.8125 22.875h.0625a23.862857 23.862857 0 0 0 -23.875-23.875zm4.9375 14c-2.726708 0-4.9375 2.210792-4.9375 4.9375 0 .170419.0144.334028.03125.5.252831-2.489584 2.349961-4.4375 4.90625-4.4375s4.653419 1.947916 4.90625 4.4375c.01685-.165972.03125-.329581.03125-.5 0-2.726708-2.210792-4.9375-4.9375-4.9375z" fill="#803300" opacity=".5"/><path d="m16 51.1875v1a28.8 28.8 0 0 1 28.8125 28.8125h7.1875a36 36 0 0 0 -.0625-1h-7.125a28.8 28.8 0 0 0 -28.8125-28.8125zm0 11.9375v1a16.868571 16.868571 0 0 1 16.875 16.875h7a23.862857 23.862857 0 0 0 -.0625-1h-6.9375a16.868571 16.868571 0 0 0 -16.875-16.875zm.03125 12.4375c-.016855.165972-.03125.329581-.03125.5 0 2.726709 2.210791 4.9375 4.9375 4.9375 2.726708 0 4.9375-2.210791 4.9375-4.9375 0-.170419-.0144-.334028-.03125-.5-.252831 2.489585-2.349961 4.4375-4.90625 4.4375-2.55629 0-4.653419-1.947915-4.90625-4.4375z" fill="#fff"/></g></svg>