<svg height="48" width="48" xmlns="http://www.w3.org/2000/svg" xmlns:xlink="http://www.w3.org/1999/xlink"><linearGradient id="a" gradientTransform="matrix(1.1538423 0 0 1.1746103 -5.728901 4.720793)" gradientUnits="userSpaceOnUse" x1="32.891998" x2="36.358002" y1="8.059" y2="5.4565"><stop offset="0" stop-color="#50b87b"/><stop offset="1" stop-color="#43906c"/></linearGradient><radialGradient id="b" cx="48" cy="90.171875" gradientTransform="matrix(.49599117 0 0 .42857136 .192419 4.354916)" gradientUnits="userSpaceOnUse" r="42" xlink:href="#c"/><linearGradient id="c"><stop offset="0" stop-color="#fff"/><stop offset="1" stop-color="#fff" stop-opacity="0"/></linearGradient><linearGradient id="d" gradientTransform="matrix(0 -.54642861 .42857142 0 3.428572 46.278573)" gradientUnits="userSpaceOnUse" x1="7.3709" x2="23.76619" y1="51.470146" y2="51.433136"><stop offset="0" stop-color="#0b4420"/><stop offset="1" stop-color="#195a30"/></linearGradient><linearGradient id="e" gradientUnits="userSpaceOnUse" x1="248.07678816" x2="248.07678816" y1="-62.6598922" y2="-98.66515562275"><stop offset="0" stop-color="#288358"/><stop offset="1" stop-color="#479a6c"/></linearGradient><linearGradient id="f" gradientTransform="matrix(.4285717 0 0 .43033246 3.42857 4.41801)" gradientUnits="userSpaceOnUse" x1="36.357143" x2="36.357143" xlink:href="#c" y1="6" y2="63.893143"/><linearGradient id="g" gradientTransform="matrix(1.0058652 0 0 .994169 100 0)" gradientUnits="userSpaceOnUse" x1="45.447727" x2="45.447727" y1="92.539597" y2="7.01654"><stop offset="0"/><stop offset="1" stop-opacity=".588235"/></linearGradient><linearGradient id="h" gradientTransform="matrix(.90932204 0 0 -.90907903 8.945106 90.567956)" gradientUnits="userSpaceOnUse" x1="32.251034" x2="32.251034" xlink:href="#g" y1="6.131708" y2="90.238609"/><linearGradient id="i" gradientTransform="matrix(.88394566 0 0 -.88394572 10.163169 89.361561)" gradientUnits="userSpaceOnUse" x1="32.251034" x2="32.251034" xlink:href="#g" y1="6.131708" y2="90.238609"/><linearGradient id="j" gradientUnits="userSpaceOnUse" x1="56.99097658855" x2="116.92112425685" xlink:href="#k" y1="-48.80056699151" y2="-48.80056699151"/><linearGradient id="k"><stop offset="0" stop-color="#458c6d"/><stop offset="1" stop-color="#81e1be"/></linearGradient><linearGradient id="l" gradientTransform="matrix(-1.9463379 0 0 -1.9463379 13.797206 -30.526401)" gradientUnits="userSpaceOnUse" x1="-53.080975" x2="-22.28974" xlink:href="#k" y1="-7.735441" y2="-7.735441"/><g transform="matrix(1.05 0 0 1.05 -1.2 -2.25)"><g transform="matrix(.51177463 0 0 .51177463 -2.915536 .981307)"><path d="m20.618253 86.01187c-3.916074 0-7.105399-3.225978-7.105399-7.187076v-63.785252c0-3.961099 3.189325-7.1870759 7.105399-7.1870759h41.230022l29.823983 29.8239829v41.148345c0 3.961098-3.189315 7.187076-7.1054 7.187076z" fill="url(#h)" opacity=".2"/><path d="m21.510559 84.057885h62.16399c3.34823 0 6.04372-2.727212 6.04372-6.114824v-39.038079l-29.09854-29.0985314h-39.10917c-3.34822 0-6.04372 2.7272114-6.04372 6.1148244v62.021786c0 3.387612 2.6955 6.114824 6.04372 6.114824z" fill="url(#i)" opacity=".3"/></g><path d="m232.64822-98.6599h19.54285l13.88572 13.885715v19.542857c0 1.424571-1.14685 2.571428-2.57143 2.571428h-30.85714c-1.42458 0-2.57143-1.146857-2.57143-2.571428v-30.857144c0-1.424571 1.14685-2.571428 2.57143-2.571428z" fill="url(#e)" transform="translate(-224.07679 105.6599)"/><path d="m8.57143 7c-1.42457 0-2.57143 1.151568-2.57143 2.5819985v.8606615 28.234034c1.98322 4.185183.51348 2.977317.42857.430332v-28.09486-.860668c0-1.1971185.95064-2.151664 2.14286-2.151664h.85715 17.82858.85715l13.45714 13.326778v.860667 16.919747c-1.2063 3.165148.42855 3.584963.42855-.430333v-16.919747-.860668l-13.88571-13.896278z" fill="url(#f)" opacity=".3"/><g fill-rule="evenodd" transform="matrix(.29872016 0 0 .29872016 -7.302369 30.854104)"><path d="m57.98005-38.206933 14.791798-5.948107c.218524-1.555692 12.527114-10.96334 24.970777 2.155113l-6.75205 7.418239 24.946775-.000362.0004-25.892536-7.55822 6.718072c-6.01102-5.698435-13.391959-9.757645-21.71773-9.220365-20.464122 2.280598-26.962828 15.193587-28.68175 24.769946z" fill="url(#j)" stroke="#20523c" stroke-width="1.55707"/><path d="m92.784746-35.501425 12.098634-6.012207c-10.996559-15.044804-21.765168-10.864255-27.643301-6.844514 5.957743-2.325109 14.525721-1.516996 21.507378 6.349702z" fill="#a4fede"/><path d="m116.12165-26.064253-14.7918 5.948107c-.21852 1.555692-12.527114 10.9633397-24.970774-2.155113l6.752047-7.418239-24.946776.000362-.0004 25.8925357 7.55822-6.7180717c6.011019 5.6984347 13.39196 9.75764473 21.717731 9.2203647 20.464132-2.280598 26.962832-15.1935867 28.681752-24.7699457z" fill="url(#l)" stroke="#20523c" stroke-width="1.55707"/><path d="m81.316952-28.769761-12.098626 6.012207c10.996551 15.0448037 21.76516 10.864255 27.643293 6.844514-5.957743 2.325109-14.525721 1.516996-21.507373-6.349702z" fill="#a4fede"/><g fill="#60ad96"><path d="m60.854217-28.920875-.143819 21.8054927-1.735034 1.568545v-23.3380827z"/><path d="m113.31453-35.33397.14382-21.805491 1.73504-1.56855v23.338091z"/></g></g><path d="m23.095 7.0007336c3.179734 0 1.245573 14.2927244 1.245573 14.2927244s17.662844-1.870813 17.662844 3.984542c0-1.426319-.003417-4.392285-.003417-4.392285l-13.88572-13.885715z" fill-rule="evenodd" opacity=".2" stroke-width=".955713"/><path d="m6 39.721429c0 1.816327 1.146857 3.278571 2.571429 3.278571h30.857142c1.424572 0 2.571429-1.462244 2.571429-3.278571v-6.150001h-36z" fill="url(#d)"/><path d="m8.5714282 43c-1.4245712 0-2.5714282-1.151569-2.5714282-2.581994v-.999812c.017537-5.232461.4285697-5.344044.4285697-.430358v.860665c0 1.197119.9506364 2.151662 2.1428585 2.151662h.8571448 29.142844.857145c1.192222 0 2.142858-.954543 2.142858-2.151662v-.860665c.04207-5.833454.42858-3.83731.42858.430333v.999812c-.00001 1.43045-1.146867 2.582019-2.571438 2.582019z" fill="url(#b)" opacity=".2"/><path d="m24.277 7c3.0062 0 1.165566 13.240168 1.165566 13.240168s16.558213-1.970967 16.558213 3.564832c0-1.348478-.000779-2.919285-.000779-2.919285l-13.88572-13.885715z" fill-rule="evenodd" opacity=".2" stroke-width=".903555"/><path d="m25.695529 7.0086975c2.832447 0 1.020233 12.2306245 1.020233 12.2306245s15.288338-1.878262 15.288338 3.337578c0-1.270538-.0041-1.691185-.0041-1.691185l-13.88572-13.885715z" fill="url(#a)" fill-rule="evenodd" stroke-width=".851331"/><g fill="#fff" transform="matrix(.43651715 0 0 .43651715 2.091714 1.680513)"><path d="m34.916428 78.928009h7.609863v2.131348h-4.790039v2.036133h4.504394v2.131347h-4.504394v4.636231h-2.819824z"/><path d="m45.170334 78.928009h7.609863v2.131348h-4.790039v2.036133h4.504395v2.131347h-4.504395v4.636231h-2.819824z"/><path d="m63.034103 79.272247v2.314453q-.900879-.402832-1.757812-.60791-.856934-.205078-1.618652-.205078-1.010743 0-1.494141.27832-.483399.278321-.483399.864258 0 .439453.322266.688477.32959.241699 1.186524.41748l1.201171.2417q1.823731.36621 2.592774 1.113281.769043.74707.769043 2.124023 0 1.809082-1.07666 2.695313-1.069336.878906-3.273926.878906-1.040039 0-2.087402-.197754-1.047364-.197754-2.094727-.585937v-2.380372q1.047363.556641 2.021484.842286.981446.27832 1.889649.27832.922851 0 1.413574-.307617.490723-.307617.490723-.878906 0-.512696-.336914-.791016-.32959-.27832-1.325684-.498047l-1.091309-.241699q-1.640625-.351563-2.402343-1.120606-.754395-.769043-.754395-2.072754 0-1.6333 1.054688-2.512207 1.054687-.878906 3.032226-.878906.900879 0 1.853028.13916.952148.131836 1.970214.402832z"/></g></g><path d="m5.1000001 33h37.7999999v1h-37.7999999z" opacity=".3"/><path d="m5.1000001 32h37.7999999v1h-37.7999999z" fill="#fff" opacity=".1"/></svg>