<svg height="48" width="48" xmlns="http://www.w3.org/2000/svg" xmlns:xlink="http://www.w3.org/1999/xlink"><linearGradient id="a" gradientTransform="matrix(1.1538423 0 0 1.1746103 -5.728901 4.720793)" gradientUnits="userSpaceOnUse" x1="32.891998" x2="36.358002" y1="8.059" y2="5.4565"><stop offset="0" stop-color="#1e75cc"/><stop offset="1" stop-color="#1160a3"/></linearGradient><radialGradient id="b" cx="48" cy="90.171875" gradientTransform="matrix(.49599117 0 0 .42857136 .192419 4.354916)" gradientUnits="userSpaceOnUse" r="42" xlink:href="#c"/><linearGradient id="c"><stop offset="0" stop-color="#fff"/><stop offset="1" stop-color="#fff" stop-opacity="0"/></linearGradient><linearGradient id="d" gradientTransform="matrix(0 -.54642861 .42857142 0 3.428572 46.278573)" gradientUnits="userSpaceOnUse" x1="7.3709" x2="23.76619" y1="51.470146" y2="51.433136"><stop offset="0" stop-color="#002a70"/><stop offset="1" stop-color="#003a7e"/></linearGradient><linearGradient id="e" gradientUnits="userSpaceOnUse" x1="248.07678816" x2="248.07678816" y1="-62.6598922" y2="-98.66515562275"><stop offset="0" stop-color="#00498e"/><stop offset="1" stop-color="#0d5ea7"/></linearGradient><linearGradient id="f" gradientTransform="matrix(.4285717 0 0 .43033246 227.50536 -101.24189)" gradientUnits="userSpaceOnUse" x1="36.357143" x2="36.357143" xlink:href="#c" y1="6" y2="63.893143"/><linearGradient id="g" gradientTransform="matrix(1.0058652 0 0 .994169 100 0)" gradientUnits="userSpaceOnUse" x1="45.447727" x2="45.447727" y1="92.539597" y2="7.01654"><stop offset="0"/><stop offset="1" stop-opacity=".588235"/></linearGradient><linearGradient id="h" gradientTransform="matrix(.90932204 0 0 -.90907903 8.945106 90.567956)" gradientUnits="userSpaceOnUse" x1="32.251034" x2="32.251034" xlink:href="#g" y1="6.131708" y2="90.238609"/><linearGradient id="i" gradientTransform="matrix(.88394566 0 0 -.88394572 10.163169 89.361561)" gradientUnits="userSpaceOnUse" x1="32.251034" x2="32.251034" xlink:href="#g" y1="6.131708" y2="90.238609"/><radialGradient id="j" cx="41.752941" cy="36.95731" gradientTransform="matrix(4.5608932 -.80134104 .40815326 2.3230351 -148.56388 -20.727491)" gradientUnits="userSpaceOnUse" r="19"><stop offset="0" stop-color="#b3d1ff"/><stop offset=".5" stop-color="#b3d1ff"/><stop offset="1" stop-color="#b3d1ff"/></radialGradient><linearGradient id="k" gradientUnits="userSpaceOnUse" x1="37.0203438" x2="45.6532128" y1="53.2912798" y2="68.830444"><stop offset="0" stop-color="#b3e1ff"/><stop offset="1" stop-color="#f0ffff" stop-opacity="0"/></linearGradient><linearGradient id="l" gradientUnits="userSpaceOnUse" spreadMethod="reflect" x1="19.013324" x2="19.013324" y1="44.535123" y2="76.011335"><stop offset="0" stop-color="#75a6ea"/><stop offset="1" stop-color="#70c5ff"/></linearGradient><g transform="matrix(1.05 0 0 1.05 -1.2 -2.25)"><g transform="matrix(.51177463 0 0 .51177463 -2.915536 .981307)"><path d="m20.618253 86.01187c-3.916074 0-7.105399-3.225978-7.105399-7.187076v-63.785252c0-3.961099 3.189325-7.1870759 7.105399-7.1870759h41.230022l29.823983 29.8239829v41.148345c0 3.961098-3.189315 7.187076-7.1054 7.187076z" fill="url(#h)" opacity=".2"/><path d="m21.510559 84.057885h62.16399c3.34823 0 6.04372-2.727212 6.04372-6.114824v-39.038079l-29.09854-29.0985314h-39.10917c-3.34822 0-6.04372 2.7272114-6.04372 6.1148244v62.021786c0 3.387612 2.6955 6.114824 6.04372 6.114824z" fill="url(#i)" opacity=".3"/></g><g transform="translate(-224.07679 105.6599)"><path d="m232.64822-98.6599h19.54285l13.88572 13.885715v19.542857c0 1.424571-1.14685 2.571428-2.57143 2.571428h-30.85714c-1.42458 0-2.57143-1.146857-2.57143-2.571428v-30.857144c0-1.424571 1.14685-2.571428 2.57143-2.571428z" fill="url(#e)"/><path d="m232.64822-98.6599c-1.42457 0-2.57143 1.151568-2.57143 2.581998v.860662 28.234034c1.98322 4.185183.51348 2.977317.42857.430332v-28.09486-.860668c0-1.197119.95064-2.151664 2.14286-2.151664h.85715 17.82858.85715l13.45714 13.326778v.860667 16.919747c-1.2063 3.165148.42855 3.584963.42855-.430333v-16.919747-.860668l-13.88571-13.896278z" fill="url(#f)" opacity=".3"/></g><path d="m16.966797 9.0878906c-1.377301 0-1.257716 20.4645864-1.474609 35.8652344h3.132812c-.323685-14.158717-.211175-35.8652344-1.658203-35.8652344zm1.658203 35.8652344c.154547 6.760258.400647 11.955078.978516 11.955078 1.040629 0 1.185069-6.346168 1.421875-11.955078zm2.400391 0h2.171875c-.143436-4.760457-.384921-8.369141-.958985-8.369141-.78671 0-1.026865 3.962989-1.21289 8.369141zm2.171875 0c.320831 10.64803.103309 27.69269 1.677734 27.496094 1.264664-.157922 1.421183-14.140145 1.546875-27.496094zm3.224609 0h2.169922c-.09359-12.466097-.20137-23.978955-1.080078-23.910156-.886223.06938-.975242 11.732675-1.089844 23.910156zm2.169922 0c.111763 14.887144.203208 31.161912 1.556641 31.082031 1.67393-.09879 1.41081-18.375701 1.601562-31.082031zm3.158203 0h2.458984c-.159855-5.977906-.351525-11.955078-1.423828-11.955078-.714519 0-.934453 5.247096-1.035156 11.955078zm2.458984 0c.15886 5.940686.284734 11.882565 1.210938 11.955078.691913.05417.99096-5.240271 1.179687-11.955078zm2.390625 0h2.802735c-.242265-12.961784-.247789-28.691406-1.345703-28.691406-1.146462 0-1.119856 16.694884-1.457032 28.691406zm2.802735 0c.167744 8.974731.446684 16.653068 1.291015 16.736328 1.336663.131812 1.167352-9.381968 1.373047-16.736328zm2.664062 0h2.675782c-.09936-4.131172-.161184-8.482167-1.41211-8.369141-.866092.07826-1.136226 3.812486-1.263672 8.369141zm2.675782 0c.08831 3.671626.205938 7.171875 1.224609 7.171875.636632 0 .909793-3.087672 1.068359-7.171875zm2.292968 0h2.884766c-.142606-11.954847-.285399-23.910156-1.31836-23.910156-1.497721 0-1.210415 14.74088-1.566406 23.910156zm2.884766 0c.142606 11.954847.285404 23.908203 1.318359 23.908203.930366 0 1.215653-11.238197 1.386719-23.908203zm2.705078 0h2v-30.203125c-.182243-3.379052-.419549-5.5488186-.75-5.6621094-1.002541-.3437109-1.023018 19.0537944-1.25 35.8652344zm-37.132812 0h-2.699219c.195181 7.883933.346859 16.736328 1.537109 16.736328.777947 0 1.031312-7.448995 1.16211-16.736328zm-2.699219 0c-.155404-6.277211-.337979-11.955078-1.09961-11.955078-.637105 0-.823113 5.380649-.949218 11.955078zm-2.048828 0h-2.978516c.063264 11.954847.1166056 23.908203 1.2910156 23.908203 1.4402884 0 1.4873574-13.47387 1.6875004-23.908203zm-2.978516 0c-.0632637-11.954847-.134885-23.910156-1.34375-23.910156-2.34779 0-1.0538787 23.910156-2.6367188 23.910156zm47.511719.171875c.1916 14.819825.415575 28.618337 1.234375 28.519531 1.131808-.136574 1.173436-16.585331 1.517578-28.519531zm5.085937 0c.153975 5.917926.35296 11.783203 1.419922 11.783203.945468 0 1.193192-5.46845 1.320313-11.783203zm5.332031 0c.10691 10.005514.212811 20.150391 1.361329 20.150391 1.109824 0 1.277494-9.799767 1.371093-20.150391zm5.50586 0c.145392 5.264521.411974 9.390625 1.128906 9.390625.932775 0 1.172919-4.584654 1.359375-9.390625zm5.011719 0c.225055 7.233806.34734 15.369141 1.388671 15.369141.928783 0 1.148983-7.490703 1.322266-15.369141zm5.117187 0c.118545 12.234409.162111 26.128906 1.544922 26.128906 1.271817 0 1.420821-13.037821 1.501953-26.128906z" fill="url(#l)" opacity=".293" transform="matrix(.40178968 0 0 .34139566 6.28868575161 5.70849396634)"/><path d="m23.095 7.0007336c3.179734 0 1.245573 14.2927244 1.245573 14.2927244s17.662844-1.870813 17.662844 3.984542c0-1.426319-.003417-4.392285-.003417-4.392285l-13.88572-13.885715z" fill-rule="evenodd" opacity=".2" stroke-width=".955713"/><path d="m6 39.721429c0 1.816327 1.146857 3.278571 2.571429 3.278571h30.857142c1.424572 0 2.571429-1.462244 2.571429-3.278571v-6.150001h-36z" fill="url(#d)"/><path d="m8.5714282 43c-1.4245712 0-2.5714282-1.151569-2.5714282-2.581994v-.999812c.017537-5.232461.4285697-5.344044.4285697-.430358v.860665c0 1.197119.9506364 2.151662 2.1428585 2.151662h.8571448 29.142844.857145c1.192222 0 2.142858-.954543 2.142858-2.151662v-.860665c.04207-5.833454.42858-3.83731.42858.430333v.999812c-.00001 1.43045-1.146867 2.582019-2.571438 2.582019z" fill="url(#b)" opacity=".2"/><path d="m24.277 7c3.0062 0 1.165566 13.240168 1.165566 13.240168s16.558213-1.970967 16.558213 3.564832c0-1.348478-.000779-2.919285-.000779-2.919285l-13.88572-13.885715z" fill-rule="evenodd" opacity=".2" stroke-width=".903555"/><path d="m25.695529 7.0086975c2.832447 0 1.020233 12.2306245 1.020233 12.2306245s15.288338-1.878262 15.288338 3.337578c0-1.270538-.0041-1.691185-.0041-1.691185l-13.88572-13.885715z" fill="url(#a)" fill-rule="evenodd" stroke-width=".851331"/><g transform="matrix(.21014045728 0 0 .21014045728 5.53905864959 13.10120579415)"><path d="m38.994631 25.428559-4.975872-5.405094s.113135 24.845606.11846 29.024068c-3.099725-1.685814-7.518217-1.264359-11.175366 1.386743-4.731162 3.412443-6.376216 9.231267-3.643536 12.983559 2.746259 3.765901 8.78257 4.024178 13.513757.611755 3.725119-2.705454 5.805202-6.9472 5.057461-10.427585-.02727-.108779-.06801-.217536-.09516-.326334l.13979-20.369684c.496976-1.475472 1.305145-2.032863 4.698406 2.249512 3.909781 6.358271-.242773 15.791902-.242773 15.791902s.671594-.594854 1.478642-1.466117c2.948444-3.183051 4.265252-8.865938 2.531103-14.261774-1.492782-3.215162-6.223493-8.506625-7.404942-9.790936z" fill="#6e93b6" transform="matrix(1.9534141 0 0 1.9534141 -10.754156 -45.940692)"/><path d="m76.859862 17.877279c-6.231046-8.9476442-13.750069-16.7790409-21.161308-24.7038518l.231402 56.6239798c.97997.369273 1.902183.800467 2.712315 1.356157v-34.831596c0-5.424632.03076-9.2079316 4.302347-6.126253 7.485907 5.40061 9.551683 6.837095 13.915244 7.681564z" fill="url(#j)" opacity=".7"/><path d="m52.559494 55.017847c2.107921 4.276518-2.493502 8.928749-9.335931 12.30142-6.842427 3.372672-13.334772 4.188625-15.442694-.0879-2.10792-4.276518 1.730157-10.477412 8.572586-13.850084 6.842428-3.372672 14.098119-2.639961 16.206039 1.636557z" fill="url(#k)"/></g></g><path d="m5.1000001 33h37.7999999v1h-37.7999999z" opacity=".3"/><g fill="#fff"><path d="m5.1000001 32h37.7999999v1h-37.7999999z" opacity=".1"/><g transform="matrix(.4755347 0 0 .4755347 .402617 -2.23589)"><path d="m30.696777 79.564941h2.702637l1.889648 7.946778 1.875-7.946778h2.717286l1.875 7.946778 1.889648-7.946778h2.680664l-2.578125 10.935059h-3.251953l-1.984863-8.312988-1.962891 8.312988h-3.251953z"/><path d="m54.141602 88.507812h-4.40918l-.695801 1.992188h-2.834473l4.050293-10.935059h3.361817l4.050293 10.935059h-2.834473zm-3.706055-2.028808h2.995605l-1.49414-4.350586z"/><path d="m56.77832 79.564941h2.834473l2.900391 8.071289 2.893066-8.071289h2.834473l-4.050293 10.935059h-3.361817z"/></g></g></svg>