<svg height="48" width="48" xmlns="http://www.w3.org/2000/svg" xmlns:xlink="http://www.w3.org/1999/xlink"><linearGradient id="a" gradientTransform="matrix(1.1538423 0 0 1.1746103 -5.728901 4.720793)" gradientUnits="userSpaceOnUse" x1="32.891998" x2="36.358002" y1="8.059" y2="5.4565"><stop offset="0" stop-color="#8c8c8c"/><stop offset="1" stop-color="#646464"/></linearGradient><radialGradient id="b" cx="48" cy="90.171875" gradientTransform="matrix(.49599117 0 0 .42857136 .192419 4.354916)" gradientUnits="userSpaceOnUse" r="42" xlink:href="#c"/><linearGradient id="c"><stop offset="0" stop-color="#fff"/><stop offset="1" stop-color="#fff" stop-opacity="0"/></linearGradient><linearGradient id="d" gradientTransform="matrix(0 -.54642861 .42857142 0 3.428572 46.278573)" gradientUnits="userSpaceOnUse" x1="7.3709" x2="23.76619" y1="51.470146" y2="51.433136"><stop offset="0" stop-color="#323232"/><stop offset="1" stop-color="#464646"/></linearGradient><linearGradient id="e" gradientUnits="userSpaceOnUse" x1="248.07678816" x2="248.07678816" y1="-62.6598922" y2="-98.66515562275"><stop offset="0" stop-color="#505050"/><stop offset="1" stop-color="#787878"/></linearGradient><linearGradient id="f" gradientTransform="matrix(.4285717 0 0 .43033246 227.50536 -101.24189)" gradientUnits="userSpaceOnUse" x1="36.357143" x2="36.357143" xlink:href="#c" y1="6" y2="63.893143"/><linearGradient id="g" gradientTransform="matrix(1.0058652 0 0 .994169 100 0)" gradientUnits="userSpaceOnUse" x1="45.447727" x2="45.447727" y1="92.539597" y2="7.01654"><stop offset="0"/><stop offset="1" stop-opacity=".588235"/></linearGradient><linearGradient id="h" gradientTransform="matrix(.90932204 0 0 -.90907903 8.945106 90.567956)" gradientUnits="userSpaceOnUse" x1="32.251034" x2="32.251034" xlink:href="#g" y1="6.131708" y2="90.238609"/><linearGradient id="i" gradientTransform="matrix(.88394566 0 0 -.88394572 10.163169 89.361561)" gradientUnits="userSpaceOnUse" x1="32.251034" x2="32.251034" xlink:href="#g" y1="6.131708" y2="90.238609"/><linearGradient id="j" gradientUnits="userSpaceOnUse" x1="25.04984408" x2="25.04984408" y1="38.30641012" y2="11.41693204"><stop offset="0" stop-color="#bebebe"/><stop offset="1" stop-color="#f0f0f0"/></linearGradient><clipPath id="k"><path d="m-88 6c-3.324 0-6 2.676-6 6v72c0 3.324 2.676 6 6 6h72c3.324 0 6-2.676 6-6v-72c0-3.324-2.676-6-6-6zm42.03125 18h5.40625l8.46875 44.59375h4.71875l-.65625 3.40625h-17.46875l.65625-3.40625h5.34375l-1.96875-10.53125h-20.1875l-6.09375 10.53125h5.28125l-.625 3.40625h-13.53125l.65625-3.40625h4.21875zm-.46875 7.78125-13.21875 22.8125h17.59375z"/></clipPath><filter id="l" color-interpolation-filters="sRGB" height="1.413192" width="1.402937" x="-.201468" y="-.206596"><feGaussianBlur stdDeviation="4.1319224"/></filter><linearGradient id="m" gradientTransform="matrix(.63022214 0 0 .28009873 -6.083554 18.139302)" gradientUnits="userSpaceOnUse" x1="16" x2="80" y1="71" y2="71"><stop offset="0" stop-color="#fff" stop-opacity="0"/><stop offset=".25" stop-color="#f5ffff"/><stop offset=".5" stop-color="#e9ffff"/><stop offset=".75" stop-color="#fff"/><stop offset="1" stop-color="#fff" stop-opacity="0"/></linearGradient><linearGradient id="n" gradientTransform="matrix(.4901728 0 0 .28009873 4.169757 -8.750176)" gradientUnits="userSpaceOnUse" x1="16" x2="80" y1="71" y2="71"><stop offset="0" stop-color="#efffff" stop-opacity="0"/><stop offset=".25" stop-color="#fcffff"/><stop offset=".5" stop-color="#f8ffff"/><stop offset=".75" stop-color="#fffff9"/><stop offset="1" stop-color="#f0ffff" stop-opacity="0"/></linearGradient><linearGradient id="o" gradientUnits="userSpaceOnUse" x1="24.86167168" x2="42.7879904" y1="-11.32500717" y2="-11.32500717"><stop offset="0" stop-color="#fffffd" stop-opacity="0"/><stop offset=".5" stop-color="#fff"/><stop offset="1" stop-color="#fff" stop-opacity="0"/></linearGradient><linearGradient id="p" gradientTransform="matrix(.57173794 0 0 .25463521 -3.027386 -54.791268)" gradientUnits="userSpaceOnUse" x1="16" x2="80" y1="71" y2="71"><stop offset="0" stop-color="#fff" stop-opacity="0"/><stop offset=".25" stop-color="#fff"/><stop offset=".5" stop-color="#fffff0"/><stop offset=".75" stop-color="#f6ffff"/><stop offset="1" stop-color="#fbffff" stop-opacity="0"/></linearGradient><g transform="matrix(1.05 0 0 1.05 -1.2 -2.25)"><g transform="matrix(.51177463 0 0 .51177463 -2.915536 .981307)"><path d="m20.618253 86.01187c-3.916074 0-7.105399-3.225978-7.105399-7.187076v-63.785252c0-3.961099 3.189325-7.1870759 7.105399-7.1870759h41.230022l29.823983 29.8239829v41.148345c0 3.961098-3.189315 7.187076-7.1054 7.187076z" fill="url(#h)" opacity=".2"/><path d="m21.510559 84.057885h62.16399c3.34823 0 6.04372-2.727212 6.04372-6.114824v-39.038079l-29.09854-29.0985314h-39.10917c-3.34822 0-6.04372 2.7272114-6.04372 6.1148244v62.021786c0 3.387612 2.6955 6.114824 6.04372 6.114824z" fill="url(#i)" opacity=".3"/></g><g transform="translate(-224.07679 105.6599)"><path d="m232.64822-98.6599h19.54285l13.88572 13.885715v19.542857c0 1.424571-1.14685 2.571428-2.57143 2.571428h-30.85714c-1.42458 0-2.57143-1.146857-2.57143-2.571428v-30.857144c0-1.424571 1.14685-2.571428 2.57143-2.571428z" fill="url(#e)"/><path d="m232.64822-98.6599c-1.42457 0-2.57143 1.151568-2.57143 2.581998v.860662 28.234034c1.98322 4.185183.51348 2.977317.42857.430332v-28.09486-.860668c0-1.197119.95064-2.151664 2.14286-2.151664h.85715 17.82858.85715l13.45714 13.326778v.860667 16.919747c-1.2063 3.165148.42855 3.584963.42855-.430333v-16.919747-.860668l-13.88571-13.896278z" fill="url(#f)" opacity=".3"/></g><g transform="matrix(.70175439 0 0 .70175439 2.145363 3.74369)"><text fill="url(#j)" font-family="DejaVu Serif" font-size="36.885231" font-style="italic" stroke-width=".560197" x="14.090533" y="38.306408"><tspan fill="url(#j)" stroke-width=".560197" x="14.090533" y="38.306408">A</tspan></text><text style="font-style:italic;font-size:65.843269;font-family:DejaVu Serif;opacity:.6;fill:none;stroke:#fff;stroke-width:2;clip-path:url(#k);filter:url(#l)" transform="matrix(.56019746 0 0 .56019746 54.180108 -2.027807)" x="-71.563293" y="72"><tspan fill="none" stroke="#fff" stroke-width="2" x="-71.563293" y="72">A</tspan></text><path d="m4 37.746212h40.334217v.560197h-40.334217z" fill="url(#m)" opacity=".2"/><path d="m12.012521 10.856734h31.371059v.560197h-31.371059z" fill="url(#n)" opacity=".12"/><path d="m24.861671-11.605105h17.926317v.560197h-17.926317z" fill="url(#o)" opacity=".15" transform="rotate(90)"/><path d="m6.120421-36.966801h36.591232v.50927h-36.591232z" fill="url(#p)" opacity=".15" transform="rotate(90)"/></g><path d="m23.095 7.0007336c3.179734 0 1.245573 14.2927244 1.245573 14.2927244s17.662844-1.870813 17.662844 3.984542c0-1.426319-.003417-4.392285-.003417-4.392285l-13.88572-13.885715z" fill-rule="evenodd" opacity=".2" stroke-width=".955713"/><path d="m6 39.721429c0 1.816327 1.146857 3.278571 2.571429 3.278571h30.857142c1.424572 0 2.571429-1.462244 2.571429-3.278571v-6.150001h-36z" fill="url(#d)"/><path d="m8.5714282 43c-1.4245712 0-2.5714282-1.151569-2.5714282-2.581994v-.999812c.017537-5.232461.4285697-5.344044.4285697-.430358v.860665c0 1.197119.9506364 2.151662 2.1428585 2.151662h.8571448 29.142844.857145c1.192222 0 2.142858-.954543 2.142858-2.151662v-.860665c.04207-5.833454.42858-3.83731.42858.430333v.999812c-.00001 1.43045-1.146867 2.582019-2.571438 2.582019z" fill="url(#b)" opacity=".2"/><path d="m24.277 7c3.0062 0 1.165566 13.240168 1.165566 13.240168s16.558213-1.970967 16.558213 3.564832c0-1.348478-.000779-2.919285-.000779-2.919285l-13.88572-13.885715z" fill-rule="evenodd" opacity=".2" stroke-width=".903555"/><path d="m25.695529 7.0086975c2.832447 0 1.020233 12.2306245 1.020233 12.2306245s15.288338-1.878262 15.288338 3.337578c0-1.270538-.0041-1.691185-.0041-1.691185l-13.88572-13.885715z" fill="url(#a)" fill-rule="evenodd" stroke-width=".851331"/><g fill="#fff" stroke-width="1.322143" transform="matrix(.37857147 0 0 .37857147 .241926 2.272049)"><path d="m37.599938 88.444596h8.943404v2.504842h-5.629438v2.392942h5.293738v2.504842h-5.293738v5.448678h-3.313966z"/><path d="m55.521178 90.613738q-1.514956 0-2.349903 1.119001-.834947 1.119002-.834947 3.15042 0 2.02281.834947 3.141812.834947 1.119001 2.349903 1.119001 1.523564 0 2.358511-1.119001.834947-1.119002.834947-3.141812 0-2.031418-.834947-3.15042-.834947-1.119001-2.358511-1.119001zm0-2.40155q3.098774 0 4.854745 1.773187 1.755972 1.773187 1.755972 4.897784 0 3.115989-1.755972 4.889176-1.755971 1.773185-4.854745 1.773185-3.090166 0-4.854745-1.773185-1.755972-1.773187-1.755972-4.889176 0-3.124597 1.755972-4.897784 1.764579-1.773187 4.854745-1.773187z"/><path d="m64.628128 88.444596h3.701313l4.673984 8.814289v-8.814289h3.141812v12.851304h-3.701313l-4.673984-8.814291v8.814291h-3.141812z"/><path d="m77.866778 88.444596h11.844201v2.504842h-4.260814v10.346462h-3.313966v-10.346462h-4.269421z"/></g></g><path d="m5.1000001 33h37.7999999v1h-37.7999999z" opacity=".3"/><path d="m5.1000001 32h37.7999999v1h-37.7999999z" fill="#fff" opacity=".1"/></svg>