<svg height="48" width="48" xmlns="http://www.w3.org/2000/svg" xmlns:xlink="http://www.w3.org/1999/xlink"><linearGradient id="a" gradientTransform="matrix(1.1538423 0 0 1.1746103 -5.728901 4.720793)" gradientUnits="userSpaceOnUse" x1="32.891998" x2="36.358002" y1="8.059" y2="5.4565"><stop offset="0" stop-color="#e38915"/><stop offset="1" stop-color="#bd5f00"/></linearGradient><radialGradient id="b" cx="48" cy="90.171875" gradientTransform="matrix(.49599117 0 0 .42857136 .192419 4.354916)" gradientUnits="userSpaceOnUse" r="42" xlink:href="#c"/><linearGradient id="c"><stop offset="0" stop-color="#fff"/><stop offset="1" stop-color="#fff" stop-opacity="0"/></linearGradient><linearGradient id="d" gradientTransform="matrix(0 -.54642861 .42857142 0 3.428572 46.278573)" gradientUnits="userSpaceOnUse" x1="7.3709" x2="23.76619" y1="51.470146" y2="51.433136"><stop offset="0" stop-color="#793600"/><stop offset="1" stop-color="#884b00"/></linearGradient><linearGradient id="e" gradientUnits="userSpaceOnUse" x1="248.07678816" x2="248.07678816" y1="-62.6598922" y2="-98.66515562275"><stop offset="0" stop-color="#ac5900"/><stop offset="1" stop-color="#c66c0a"/></linearGradient><linearGradient id="f" gradientTransform="matrix(.4285717 0 0 .43033246 227.50536 -101.24189)" gradientUnits="userSpaceOnUse" x1="36.357143" x2="36.357143" xlink:href="#c" y1="6" y2="63.893143"/><linearGradient id="g" gradientTransform="matrix(1.0058652 0 0 .994169 100 0)" gradientUnits="userSpaceOnUse" x1="45.447727" x2="45.447727" y1="92.539597" y2="7.01654"><stop offset="0"/><stop offset="1" stop-opacity=".588235"/></linearGradient><linearGradient id="h" gradientTransform="matrix(.90932204 0 0 -.90907903 8.945106 90.567956)" gradientUnits="userSpaceOnUse" x1="32.251034" x2="32.251034" xlink:href="#g" y1="6.131708" y2="90.238609"/><linearGradient id="i" gradientTransform="matrix(.88394566 0 0 -.88394572 10.163169 89.361561)" gradientUnits="userSpaceOnUse" x1="32.251034" x2="32.251034" xlink:href="#g" y1="6.131708" y2="90.238609"/><linearGradient id="j" gradientTransform="matrix(.39542309 0 0 .3402359 -.626255 3.781122)" gradientUnits="userSpaceOnUse" x1="61.40464" x2="34.5369" y1="60.062107" y2="44.550011"><stop offset="0" stop-color="#f8ca00" stop-opacity=".313726"/><stop offset="1" stop-color="#eee300" stop-opacity=".156863"/></linearGradient><linearGradient id="k" gradientTransform="matrix(.39542309 0 0 .3402359 -.626255 3.781122)" gradientUnits="userSpaceOnUse" x1="48.810036" x2="48.810036" y1="78.173363" y2="18.129204"><stop offset="0" stop-color="#ffb400"/><stop offset="1" stop-color="#ffb400"/></linearGradient><g transform="matrix(1.05 0 0 1.05 -1.2 -2.25)"><g transform="matrix(.51177463 0 0 .51177463 -2.915536 .981307)"><path d="m20.618253 86.01187c-3.916074 0-7.105399-3.225978-7.105399-7.187076v-63.785252c0-3.961099 3.189325-7.1870759 7.105399-7.1870759h41.230022l29.823983 29.8239829v41.148345c0 3.961098-3.189315 7.187076-7.1054 7.187076z" fill="url(#h)" opacity=".2"/><path d="m21.510559 84.057885h62.16399c3.34823 0 6.04372-2.727212 6.04372-6.114824v-39.038079l-29.09854-29.0985314h-39.10917c-3.34822 0-6.04372 2.7272114-6.04372 6.1148244v62.021786c0 3.387612 2.6955 6.114824 6.04372 6.114824z" fill="url(#i)" opacity=".3"/></g><g transform="translate(-224.07679 105.6599)"><path d="m232.64822-98.6599h19.54285l13.88572 13.885715v19.542857c0 1.424571-1.14685 2.571428-2.57143 2.571428h-30.85714c-1.42458 0-2.57143-1.146857-2.57143-2.571428v-30.857144c0-1.424571 1.14685-2.571428 2.57143-2.571428z" fill="url(#e)"/><path d="m232.64822-98.6599c-1.42457 0-2.57143 1.151568-2.57143 2.581998v.860662 28.234034c1.98322 4.185183.51348 2.977317.42857.430332v-28.09486-.860668c0-1.197119.95064-2.151664 2.14286-2.151664h.85715 17.82858.85715l13.45714 13.326778v.860667 16.919747c-1.2063 3.165148.42855 3.584963.42855-.430333v-16.919747-.860668l-13.88571-13.896278z" fill="url(#f)" opacity=".3"/></g><path d="m23.095 7.0007336c3.179734 0 1.245573 14.2927244 1.245573 14.2927244s17.662844-1.870813 17.662844 3.984542c0-1.426319-.003417-4.392285-.003417-4.392285l-13.88572-13.885715z" fill-rule="evenodd" opacity=".2" stroke-width=".955713"/><path d="m6 39.721429c0 1.816327 1.146857 3.278571 2.571429 3.278571h30.857142c1.424572 0 2.571429-1.462244 2.571429-3.278571v-6.150001h-36z" fill="url(#d)"/><path d="m8.5714282 43c-1.4245712 0-2.5714282-1.151569-2.5714282-2.581994v-.999812c.017537-5.232461.4285697-5.344044.4285697-.430358v.860665c0 1.197119.9506364 2.151662 2.1428585 2.151662h.8571448 29.142844.857145c1.192222 0 2.142858-.954543 2.142858-2.151662v-.860665c.04207-5.833454.42858-3.83731.42858.430333v.999812c-.00001 1.43045-1.146867 2.582019-2.571438 2.582019z" fill="url(#b)" opacity=".2"/><g fill-rule="evenodd"><path d="m24.277 7c3.0062 0 1.165566 13.240168 1.165566 13.240168s16.558213-1.970967 16.558213 3.564832c0-1.348478-.000779-2.919285-.000779-2.919285l-13.88572-13.885715z" opacity=".2" stroke-width=".903555"/><path d="m25.695529 7.0086975c2.832447 0 1.020233 12.2306245 1.020233 12.2306245s15.288338-1.878262 15.288338 3.337578c0-1.270538-.0041-1.691185-.0041-1.691185l-13.88572-13.885715z" fill="url(#a)" stroke-width=".851331"/></g></g><path d="m5.1000001 33h37.7999999v1h-37.7999999z" opacity=".3"/><path d="m5.1000001 32h37.7999999v1h-37.7999999z" fill="#fff" opacity=".1"/><path d="m23.161448 11.791133c-9.427-5.5578308-13.103445 4.37826-6.328467 6.47807 11.46987 3.554922 6.354627 13.085224-1.778928 11.773266" fill="url(#j)" stroke="url(#k)" stroke-width=".55019"/><path d="m9.7120632 15.052553-.7120632 1.58702 1.844438.612683.284825-.634807 14.755505 4.901474-.284824.634807 1.844435.612685.712064-1.58702-1.844438-.612684-.284825.634808-14.755504-4.901473.284826-.634809zm.2264745.439941 1.1066633.367611-.427238.952212-1.1066624-.36761zm16.5999433 5.514159 1.106661.367609-.427237.952212-1.106662-.36761z" fill="#fff"/><g fill="#ffb400"><path d="m22.30829 10.58584h1.977116v1.70118h-1.977116z"/><path d="m17.167784 18.071033h1.977116v1.70118h-1.977116z"/><path d="m13.608975 29.29882h1.977116v1.70118h-1.977116z"/></g><g fill="#fff" transform="matrix(.51564475 0 0 .51563592 29.569204 18.120916)"><path d="m-24.375704 34.073893h6.764322v1.894532h-4.257812v1.809895h4.003906v1.894532h-4.003906v2.226562h4.401041v1.894531h-6.907551z"/><path d="m-15.261121 34.073893h4.160156q1.8554684 0 2.8450517.826823.9960937.820313.9960937 2.34375 0 1.529948-.9960937 2.356771-.9895833.820313-2.8450517.820313h-1.653646v3.372395h-2.50651zm2.50651 1.816407v2.714843h1.386719q.729166 0 1.126302-.351562.3971351-.358073.3971351-1.009115 0-.651041-.3971351-1.002604-.397136-.351562-1.126302-.351562z"/><path d="m1.2688253 34.379883v2.057292q-.80078119-.358073-1.56249992-.540365-.76171878-.182292-1.43880208-.182292-.8984374 0-1.3281249.247396-.4296875.247396-.4296875.768229 0 .390625.2864583.61198.2929687.214843 1.0546875.371093l1.0677083.214844q1.62109369.325521 2.3046874.989583.6835938.664063.6835938 1.888021 0 1.608073-.95703127 2.395833-.95052081.78125-2.91015613.78125-.9244792 0-1.8554688-.175781-.9309895-.175781-1.8619791-.520833v-2.115886q.9309896.494792 1.796875.748698.8723958.247396 1.6796874.247396.8203125 0 1.25651043-.273437.4361979-.273438.4361979-.78125 0-.455729-.29947916-.703125-.29296877-.247396-1.17838537-.442709l-.9700521-.214843q-1.4583333-.3125-2.1354166-.996094-.6705729-.683594-.6705729-1.842448 0-1.451823.9375-2.233073.9375-.78125 2.6953124-.78125.8007813 0 1.6471354.123698.84635415.117188 1.751302.358073z"/></g><path d="m151.74191 16.922094v17.9375l8.09375-17.9375zm9.90625 0 8.09375 17.9375v-17.9375zm-.90625 7.03125-3.03125 7h2.92858l1.71875 3.96875h3.22767l-2.375-5.28125-.0625-.125z" fill-opacity=".313725" opacity=".5" transform="matrix(.55555556 0 0 .55555556 -76.501062 -4.301164)"/></svg>