<svg height="48" width="48" xmlns="http://www.w3.org/2000/svg" xmlns:xlink="http://www.w3.org/1999/xlink"><linearGradient id="a" gradientTransform="matrix(1.1538423 0 0 1.1746103 -5.728901 4.720793)" gradientUnits="userSpaceOnUse" x1="32.891998" x2="36.358002" y1="8.059" y2="5.4565"><stop offset="0" stop-color="#d6dfea"/><stop offset="1" stop-color="#b3bccc"/></linearGradient><radialGradient id="b" cx="48" cy="90.171875" gradientTransform="matrix(.49599117 0 0 .42857136 .192419 4.354916)" gradientUnits="userSpaceOnUse" r="42" xlink:href="#c"/><linearGradient id="c"><stop offset="0" stop-color="#fff"/><stop offset="1" stop-color="#fff" stop-opacity="0"/></linearGradient><linearGradient id="d" gradientTransform="matrix(0 -.54642861 .42857142 0 3.428572 46.278573)" gradientUnits="userSpaceOnUse" x1="7.3709" x2="23.76619" y1="51.470146" y2="51.433136"><stop offset="0" stop-color="#676f7d"/><stop offset="1" stop-color="#818791"/></linearGradient><linearGradient id="e" gradientUnits="userSpaceOnUse" x1="248.07678816" x2="248.07678816" y1="-62.6598922" y2="-98.66515562275"><stop offset="0" stop-color="#adb6c2"/><stop offset="1" stop-color="#c1c8d4"/></linearGradient><linearGradient id="f" gradientTransform="matrix(.4285717 0 0 .43033246 227.50536 -101.24189)" gradientUnits="userSpaceOnUse" x1="36.357143" x2="36.357143" xlink:href="#c" y1="6" y2="63.893143"/><linearGradient id="g" gradientTransform="matrix(1.0058652 0 0 .994169 100 0)" gradientUnits="userSpaceOnUse" x1="45.447727" x2="45.447727" y1="92.539597" y2="7.01654"><stop offset="0"/><stop offset="1" stop-opacity=".588235"/></linearGradient><linearGradient id="h" gradientTransform="matrix(.90932204 0 0 -.90907903 8.945106 90.567956)" gradientUnits="userSpaceOnUse" x1="32.251034" x2="32.251034" xlink:href="#g" y1="6.131708" y2="90.238609"/><linearGradient id="i" gradientTransform="matrix(.88394566 0 0 -.88394572 10.163169 89.361561)" gradientUnits="userSpaceOnUse" x1="32.251034" x2="32.251034" xlink:href="#g" y1="6.131708" y2="90.238609"/><linearGradient id="j" gradientTransform="matrix(1.1622027 0 0 1 -9.595095 0)" gradientUnits="userSpaceOnUse" x1="61.40464" x2="34.5369" y1="60.062107" y2="44.550011"><stop offset="0" stop-color="#01caef" stop-opacity=".5"/><stop offset="1" stop-color="#00e3f7" stop-opacity=".3"/></linearGradient><linearGradient id="k" gradientTransform="matrix(1.1622027 0 0 1 -9.595095 0)" gradientUnits="userSpaceOnUse" x1="48.810036" x2="48.810036" y1="78.173363" y2="18.129204"><stop offset="0" stop-color="#004389"/><stop offset="1" stop-color="#0068b5"/></linearGradient><g transform="matrix(1.05 0 0 1.05 -1.2 -2.25)"><g transform="matrix(.51177463 0 0 .51177463 -2.915536 .981307)"><path d="m20.618253 86.01187c-3.916074 0-7.105399-3.225978-7.105399-7.187076v-63.785252c0-3.961099 3.189325-7.1870759 7.105399-7.1870759h41.230022l29.823983 29.8239829v41.148345c0 3.961098-3.189315 7.187076-7.1054 7.187076z" fill="url(#h)" opacity=".2"/><path d="m21.510559 84.057885h62.16399c3.34823 0 6.04372-2.727212 6.04372-6.114824v-39.038079l-29.09854-29.0985314h-39.10917c-3.34822 0-6.04372 2.7272114-6.04372 6.1148244v62.021786c0 3.387612 2.6955 6.114824 6.04372 6.114824z" fill="url(#i)" opacity=".3"/></g><g transform="translate(-224.07679 105.6599)"><path d="m232.64822-98.6599h19.54285l13.88572 13.885715v19.542857c0 1.424571-1.14685 2.571428-2.57143 2.571428h-30.85714c-1.42458 0-2.57143-1.146857-2.57143-2.571428v-30.857144c0-1.424571 1.14685-2.571428 2.57143-2.571428z" fill="url(#e)"/><path d="m232.64822-98.6599c-1.42457 0-2.57143 1.151568-2.57143 2.581998v.860662 28.234034c1.98322 4.185183.51348 2.977317.42857.430332v-28.09486-.860668c0-1.197119.95064-2.151664 2.14286-2.151664h.85715 17.82858.85715l13.45714 13.326778v.860667 16.919747c-1.2063 3.165148.42855 3.584963.42855-.430333v-16.919747-.860668l-13.88571-13.896278z" fill="url(#f)" opacity=".3"/></g><path d="m23.095 7.0007336c3.179734 0 1.245573 14.2927244 1.245573 14.2927244s17.662844-1.870813 17.662844 3.984542c0-1.426319-.003417-4.392285-.003417-4.392285l-13.88572-13.885715z" fill-rule="evenodd" opacity=".2" stroke-width=".955713"/><path d="m6 39.721429c0 1.816327 1.146857 3.278571 2.571429 3.278571h30.857142c1.424572 0 2.571429-1.462244 2.571429-3.278571v-6.150001h-36z" fill="url(#d)"/><path d="m8.5714282 43c-1.4245712 0-2.5714282-1.151569-2.5714282-2.581994v-.999812c.017537-5.232461.4285697-5.344044.4285697-.430358v.860665c0 1.197119.9506364 2.151662 2.1428585 2.151662h.8571448 29.142844.857145c1.192222 0 2.142858-.954543 2.142858-2.151662v-.860665c.04207-5.833454.42858-3.83731.42858.430333v.999812c-.00001 1.43045-1.146867 2.582019-2.571438 2.582019z" fill="url(#b)" opacity=".2"/><g fill-rule="evenodd"><path d="m24.277 7c3.0062 0 1.165566 13.240168 1.165566 13.240168s16.558213-1.970967 16.558213 3.564832c0-1.348478-.000779-2.919285-.000779-2.919285l-13.88572-13.885715z" opacity=".2" stroke-width=".903555"/><path d="m25.695529 7.0086975c2.832447 0 1.020233 12.2306245 1.020233 12.2306245s15.288338-1.878262 15.288338 3.337578c0-1.270538-.0041-1.691185-.0041-1.691185l-13.88572-13.885715z" fill="url(#a)" stroke-width=".851331"/></g></g><path d="m5.1000001 33h37.7999999v1h-37.7999999z" opacity=".3"/><path d="m5.1000001 32h37.7999999v1h-37.7999999z" fill="#fff" opacity=".3"/><g fill="#fff" transform="matrix(.52495703 0 0 .52495703 22.065964 18.01294)"><path d="m-4.5239136 33.804611v2.057292q-.8007812-.358073-1.5624999-.540365-.7617188-.182291-1.4388021-.182291-.8984375 0-1.328125.247396-.4296874.247395-.4296874.768229 0 .390625.2864583.611979.2929687.214844 1.0546875.371094l1.0677083.214843q1.6210937.325521 2.3046874.989584.6835937.664062.6835937 1.888021 0 1.608072-.9570312 2.395833-.9505208.78125-2.9101562.78125-.9244791 0-1.8554687-.175781-.9309891-.175782-1.8619791-.520834v-2.115885q.93099.494792 1.796875.748698.8723958.247396 1.6796874.247396.8203125 0 1.2565104-.273438.4361979-.273437.4361979-.78125 0-.455729-.2994791-.703125-.2929688-.247396-1.1783854-.442708l-.9700521-.214844q-1.4583331-.3125-2.1354171-.996094-.670572-.683593-.670572-1.842448 0-1.451822.9375-2.233072.9374995-.78125 2.695312-.78125.8007812 0 1.6471354.123698.8463541.117187 1.751302.358072z"/><path d="m-2.8377155 33.498622h2.51953122l2.57812498 7.174479 2.5716145-7.174479h2.5195312l-3.6002604 9.720052h-2.98828114z"/><path d="m17.370618 42.496017q-.9375.45573-1.946615.683594-1.009114.227865-2.083333.227865-2.428386 0-3.8476563-1.354167-1.4192708-1.360677-1.4192708-3.684896 0-2.35026 1.4453124-3.697916 1.4453127-1.347656 3.9583337-1.347656.970052 0 1.855468.182291.891927.182292 1.679688.540365v2.011719q-.813802-.46224-1.621094-.690105-.800781-.227864-1.608073-.227864-1.497396 0-2.311198.839844-.807291.833333-.807291 2.389322 0 1.542969.78125 2.382813.78125.839844 2.220052.839844.390625 0 .722656-.04557.338542-.05208.605469-.15625v-1.888021h-1.529948v-1.679688h3.90625z"/></g><g transform="matrix(.36326579 0 0 .36326579 .407398 2.154115)"><path d="m60.320226 23.542521c-27.707248-16.3352256-38.512825 12.868305-18.600231 19.039932 33.711521 10.448409 18.677121 38.45927-5.228517 34.603243" fill="url(#j)" stroke="url(#k)" stroke-width="1.617083"/><path d="m20.790639 33.128282-2.092851 4.664467 5.421054 1.800762.837142-1.865786 43.368452 14.406101-.83714 1.865787 5.42105 1.800763 2.09285-4.664468-5.42105-1.800762-.83714 1.865787-43.368452-14.406101.837142-1.865788zm.665639 1.293045 3.252635 1.080459-1.25571 2.79868-3.252633-1.080458zm48.789508 16.206865 3.25263 1.080457-1.25571 2.798681-3.25263-1.080458z" fill="#505050"/><path d="m57.812668 20h5.811014v5h-5.811014z" fill="#0067b3"/><path d="m42.704025 42h5.811014v5h-5.811014z" fill="#005ba6"/><path d="m32.244202 75h5.811014v5h-5.811014z" fill="#004587"/></g></svg>