<svg height="48" width="48" xmlns="http://www.w3.org/2000/svg" xmlns:xlink="http://www.w3.org/1999/xlink"><linearGradient id="a" gradientTransform="matrix(1.1538423 0 0 1.1746103 -5.728901 4.720793)" gradientUnits="userSpaceOnUse" x1="32.891998" x2="36.358002" y1="8.059" y2="5.4565"><stop offset="0" stop-color="#697884"/><stop offset="1" stop-color="#5c6874"/></linearGradient><radialGradient id="b" cx="48" cy="90.171875" gradientTransform="matrix(.49599117 0 0 .42857136 .192419 4.354916)" gradientUnits="userSpaceOnUse" r="42" xlink:href="#c"/><linearGradient id="c"><stop offset="0" stop-color="#fff"/><stop offset="1" stop-color="#fff" stop-opacity="0"/></linearGradient><linearGradient id="d" gradientTransform="matrix(0 -.54642861 .42857142 0 3.428572 46.278573)" gradientUnits="userSpaceOnUse" x1="7.3709" x2="23.76619" y1="51.470146" y2="51.433136"><stop offset="0" stop-color="#202d3d"/><stop offset="1" stop-color="#2d3b48"/></linearGradient><linearGradient id="e" gradientUnits="userSpaceOnUse" x1="248.07678816" x2="248.07678816" y1="-62.6598922" y2="-98.66515562275"><stop offset="0" stop-color="#404c5c"/><stop offset="1" stop-color="#566671"/></linearGradient><linearGradient id="f" gradientTransform="matrix(.4285717 0 0 .43033246 227.50536 -101.24189)" gradientUnits="userSpaceOnUse" x1="36.357143" x2="36.357143" xlink:href="#c" y1="6" y2="63.893143"/><linearGradient id="g" gradientTransform="matrix(1.0058652 0 0 .994169 100 0)" gradientUnits="userSpaceOnUse" x1="45.447727" x2="45.447727" y1="92.539597" y2="7.01654"><stop offset="0"/><stop offset="1" stop-opacity=".588235"/></linearGradient><linearGradient id="h" gradientTransform="matrix(.90932204 0 0 -.90907903 8.945106 90.567956)" gradientUnits="userSpaceOnUse" x1="32.251034" x2="32.251034" xlink:href="#g" y1="6.131708" y2="90.238609"/><linearGradient id="i" gradientTransform="matrix(.88394566 0 0 -.88394572 10.163169 89.361561)" gradientUnits="userSpaceOnUse" x1="32.251034" x2="32.251034" xlink:href="#g" y1="6.131708" y2="90.238609"/><g transform="matrix(1.05 0 0 1.05 -1.2 -2.25)"><g transform="matrix(.51177463 0 0 .51177463 -2.915536 .981307)"><path d="m20.618253 86.01187c-3.916074 0-7.105399-3.225978-7.105399-7.187076v-63.785252c0-3.961099 3.189325-7.1870759 7.105399-7.1870759h41.230022l29.823983 29.8239829v41.148345c0 3.961098-3.189315 7.187076-7.1054 7.187076z" fill="url(#h)" opacity=".2"/><path d="m21.510559 84.057885h62.16399c3.34823 0 6.04372-2.727212 6.04372-6.114824v-39.038079l-29.09854-29.0985314h-39.10917c-3.34822 0-6.04372 2.7272114-6.04372 6.1148244v62.021786c0 3.387612 2.6955 6.114824 6.04372 6.114824z" fill="url(#i)" opacity=".3"/></g><g transform="translate(-224.07679 105.6599)"><path d="m232.64822-98.6599h19.54285l13.88572 13.885715v19.542857c0 1.424571-1.14685 2.571428-2.57143 2.571428h-30.85714c-1.42458 0-2.57143-1.146857-2.57143-2.571428v-30.857144c0-1.424571 1.14685-2.571428 2.57143-2.571428z" fill="url(#e)"/><path d="m232.64822-98.6599c-1.42457 0-2.57143 1.151568-2.57143 2.581998v.860662 28.234034c1.98322 4.185183.51348 2.977317.42857.430332v-28.09486-.860668c0-1.197119.95064-2.151664 2.14286-2.151664h.85715 17.82858.85715l13.45714 13.326778v.860667 16.919747c-1.2063 3.165148.42855 3.584963.42855-.430333v-16.919747-.860668l-13.88571-13.896278z" fill="url(#f)" opacity=".3"/></g><path d="m17.333336 14.52381c-4.207885 0-7.6190505 3.411163-7.6190505 7.619047 0 4.207883 3.4111655 7.619048 7.6190505 7.619048 4.207882 0 7.619046-3.411165 7.619046-7.619048 0-4.207884-3.411164-7.619047-7.619046-7.619047zm0 1.904763c3.155911 0 5.714285 2.558373 5.714285 5.714284 0 3.155913-2.558374 5.714287-5.714285 5.714287-3.155914 0-5.714288-2.558374-5.714288-5.714287 0-3.155911 2.558374-5.714284 5.714288-5.714284zm.148807 1.269842c-.727463.000008-1.35538.109038-1.89484.317458-.53538.204352-.977898.48886-1.329365.873016-.351471.380086-.617919.845346-.793652 1.388891-.171648.543555-.257937 1.151072-.257936 1.825397-.000001.649808.08629 1.247997.257936 1.795636.175733.547638.438094 1.028058.793652 1.42857.359639.396422.811486.70776 1.359126.932537.547633.220691 1.196548.327381 1.944445.327381.572154 0 1.077065-.06938 1.498015-.208331.425025-.143042.784751-.326694 1.091272-.555555.306504-.228863.559536-.495312.763888-.79365.204334-.29834.369329-.6021.496031-.912699l-1.56746-.595239c-.07766.200256-.184939.39907-.30754.595239-.118524.196167-.262527.370493-.446428.525794-.179828.155302-.39555.278902-.644841.376982-.245216.09399-.543735.148811-.882937.148811-.449556 0-.827939-.07696-1.150795-.228174-.318777-.151214-.58931-.365189-.79365-.634922-.204344-.269732-.348346-.590395-.446428-.962301-.094-.375988-.138892-.790526-.13889-1.240079-.000002-.453636.04489-.856505.13889-1.22024.09808-.367811.246171-.680897.446428-.942461.20434-.261551.459119-.466198.773809-.605157.314685-.143034.693657-.218247 1.130953-.218254.310595.000007.588118.04723.833334.128966.245204.07766.455093.17677.634921.30754.183901.130786.337824.284707.456347.456351.118514.167568.210635.341891.267859.525793l1.587301-.436509c-.114441-.351463-.271856-.672127-.47619-.962302-.200264-.294244-.453297-.541444-.763889-.753966-.306521-.216594-.676167-.387426-1.101192-.505955-.42095-.118507-.914194-.17856-1.478174-.178568z" fill="#8da0b0" opacity=".612"/><path d="m23.095 7.0007336c3.179734 0 1.245573 14.2927244 1.245573 14.2927244s17.662844-1.870813 17.662844 3.984542c0-1.426319-.003417-4.392285-.003417-4.392285l-13.88572-13.885715z" fill-rule="evenodd" opacity=".2" stroke-width=".955713"/><path d="m6 39.721429c0 1.816327 1.146857 3.278571 2.571429 3.278571h30.857142c1.424572 0 2.571429-1.462244 2.571429-3.278571v-6.150001h-36z" fill="url(#d)"/><path d="m8.5714282 43c-1.4245712 0-2.5714282-1.151569-2.5714282-2.581994v-.999812c.017537-5.232461.4285697-5.344044.4285697-.430358v.860665c0 1.197119.9506364 2.151662 2.1428585 2.151662h.8571448 29.142844.857145c1.192222 0 2.142858-.954543 2.142858-2.151662v-.860665c.04207-5.833454.42858-3.83731.42858.430333v.999812c-.00001 1.43045-1.146867 2.582019-2.571438 2.582019z" fill="url(#b)" opacity=".2"/><g fill-rule="evenodd"><path d="m24.277 7c3.0062 0 1.165566 13.240168 1.165566 13.240168s16.558213-1.970967 16.558213 3.564832c0-1.348478-.000779-2.919285-.000779-2.919285l-13.88572-13.885715z" opacity=".2" stroke-width=".903555"/><path d="m25.695529 7.0086975c2.832447 0 1.020233 12.2306245 1.020233 12.2306245s15.288338-1.878262 15.288338 3.337578c0-1.270538-.0041-1.691185-.0041-1.691185l-13.88572-13.885715z" fill="url(#a)" stroke-width=".851331"/></g></g><path d="m5.1000001 33h37.7999999v1h-37.7999999z" opacity=".3"/><path d="m5.1000001 32h37.7999999v1h-37.7999999z" fill="#fff" opacity=".1"/></svg>