<svg height="22" width="22" xmlns="http://www.w3.org/2000/svg" xmlns:xlink="http://www.w3.org/1999/xlink"><linearGradient id="a" gradientTransform="matrix(.62762637 0 0 .79043346 1.97277 -3.815592)" gradientUnits="userSpaceOnUse" x1="27.557428" x2="27.557428" y1="7.162672" y2="21.386522"><stop offset="0" stop-color="#fff"/><stop offset=".0097359" stop-color="#fff" stop-opacity=".235294"/><stop offset=".99001008" stop-color="#fff" stop-opacity=".156863"/><stop offset="1" stop-color="#fff" stop-opacity=".392157"/></linearGradient><linearGradient id="b" gradientTransform="matrix(.54761895 0 0 .48299421 -2.10685 -7.244907)" gradientUnits="userSpaceOnUse" x1="22.934725" x2="22.809399" y1="49.629246" y2="36.657963"><stop offset="0" stop-color="#0a0a0a" stop-opacity=".498"/><stop offset="1" stop-color="#0a0a0a" stop-opacity="0"/></linearGradient><linearGradient id="c" gradientTransform="matrix(.4666607 0 0 .4821427 -.16385 -7.45535)" gradientUnits="userSpaceOnUse" x1="35.792694" x2="35.792694" y1="17.118193" y2="43.761127"><stop offset="0" stop-color="#7b92e4"/><stop offset="1" stop-color="#476bd2"/></linearGradient><linearGradient id="d" gradientTransform="matrix(.43131243 0 0 .48638011 .98956 -4.814587)" gradientUnits="userSpaceOnUse" x1="21.37039" x2="21.37039" y1="4.73244" y2="34.143417"><stop offset="0" stop-color="#fff"/><stop offset=".1106325" stop-color="#fff" stop-opacity=".235294"/><stop offset=".99001008" stop-color="#fff" stop-opacity=".156863"/><stop offset="1" stop-color="#fff" stop-opacity=".392157"/></linearGradient><linearGradient id="e" gradientTransform="matrix(.40212523 0 0 .398023 52.35056 -7.790937)" gradientUnits="userSpaceOnUse" x1="-51.786404" x2="-51.786404" y1="53.514328" y2="3.633682"><stop offset="0" stop-opacity=".321739"/><stop offset="1" stop-opacity=".278261"/></linearGradient><g transform="translate(0 6)"><path d="m2.036-3.5624971c-.277 0-.5.223-.5.5v1.5625h-.5c-.277 0-.5.223-.5.49999999v1.76464998h21v-1.76464998c0-.27699999-.223-.49999999-.5-.49999999h-11.5000002v-1.5625c0-.277-.223-.5-.5-.5z" fill="none" opacity=".8" stroke="url(#e)"/><path d="m2.036-2.9999971v1.99999999h-1v3.00000001h20v-3.00000001h-12.0000002v-1.99999999z" fill="#cecece"/><path d="m2.536-2.4999971v1.99999999h-1v2.33929001h19v-2.33929001h-12v-1.99999999z" fill="none" stroke="url(#d)" stroke-linecap="round"/><path d="m1.3230422.99375244c-.50041004.05971156-.2669271.66566916-.3068171 1.01274386.0581.2242972-.0112151 11.3060137-.0112151 11.7031007 0 .345132.16413.286657.58003.286657h19.11518c.44803.01069.35334.0052.35334-.292099.0327-.15202-.04629-12.2560315-.02971-12.4547515 0-.20925.0421-.27157847-.22081-.27157847-6.57255 0-12.9074408.0159274-19.4799978.0159274z" fill="url(#c)"/><path d="m.536.00000289 21.00001.00019998c.30338 0 .49999.21522.49999.4828l-.016078 14.07038413c.007.33856-.10002.4728-.45251.4657l-20.9275468-.008c-.30338 0-.6093-.19981-.6093-.46739l.0054348-14.06017413c0-.26757.19662-.48299.5-.48299z" fill="url(#b)" opacity=".4"/><g fill="none" stroke-linecap="round"><path d="m1.5678548 1.4681481-.02975 12.0096739 18.9562698.0063.0098-11.9840701z" opacity=".5" stroke="url(#a)"/><path d="m.84522.50000293c-.50041.0575-.28945188.66312237-.32934188.99734237.0581.21599-.004618 12.3121997-.004618 12.6945797 0 .33235.16413.27604.58003.27604 6.15466 0 13.9002366.01593 20.0548966.01593.44803.0103.35334.005.35334-.28128.0327-.14639.01742-13.24972907.034-13.44108907 0-.2015.0421-.26152-.22081-.26152-6.57255 0-13.89494 0-20.467497-.000003z" opacity=".3" stroke="#000" stroke-linejoin="round"/></g></g><path d="m9.571429 8.999999c-.392856 0-.714287.337499-.714287.749999v.750002h-2.142857c-.394285 0-.714285.3375-.714285.75v6c0 .412501.32.75.714285.75h8.571427c.394288 0 .714288-.337499.714288-.75v-6c.000001-.4125-.319999-.75-.714287-.75h-2.142856v-.750002c0-.4125-.321428-.749999-.714284-.749999zm1.428571 2.250001a2.8571428 3.0000002 0 1 1 0 6 2.8571428 3.0000002 0 0 1 0-6zm0 1.5a1.4285715 1.5000002 0 1 0 0 3 1.4285715 1.5000002 0 0 0 0-3z" fill="#24439f" stroke-width=".731925"/></svg>