<svg height="64" width="64" xmlns="http://www.w3.org/2000/svg" xmlns:xlink="http://www.w3.org/1999/xlink"><linearGradient id="a" gradientTransform="matrix(1.201539 0 0 1.4800876 3.886709 -12.080799)" gradientUnits="userSpaceOnUse" x1="42.470848" x2="42.470848" y1="11.952797" y2="35.581654"><stop offset="0" stop-color="#fff"/><stop offset=".0097359" stop-color="#fff" stop-opacity=".235294"/><stop offset=".99001008" stop-color="#fff" stop-opacity=".156863"/><stop offset="1" stop-color="#fff" stop-opacity=".392157"/></linearGradient><linearGradient id="b" gradientTransform="matrix(1.5421097 0 0 1.3441562 -5.016701 -15.837239)" gradientUnits="userSpaceOnUse" x1="22.934725" x2="22.809399" y1="49.629246" y2="36.657963"><stop offset="0" stop-color="#0a0a0a" stop-opacity=".498"/><stop offset="1" stop-color="#0a0a0a" stop-opacity="0"/></linearGradient><linearGradient id="c" gradientTransform="matrix(1.3471825 0 0 1.3952962 -.347177 -19.458372)" gradientUnits="userSpaceOnUse" x1="35.792694" x2="35.792694" y1="17.118193" y2="43.761127"><stop offset="0" stop-color="#a064be"/><stop offset="1" stop-color="#785096"/></linearGradient><radialGradient id="d" cx="605.71429" cy="486.64789" gradientTransform="matrix(-.04148087 0 0 .03328333 31.163084 25.713641)" gradientUnits="userSpaceOnUse" r="117.14286" xlink:href="#e"/><linearGradient id="e"><stop offset="0"/><stop offset="1" stop-opacity="0"/></linearGradient><radialGradient id="f" cx="605.71429" cy="486.64789" gradientTransform="matrix(.04148087 0 0 .03328333 32.807321 25.713641)" gradientUnits="userSpaceOnUse" r="117.14286" xlink:href="#e"/><linearGradient id="g" gradientTransform="matrix(.10695088 0 0 .03328333 -6.669896 25.713641)" gradientUnits="userSpaceOnUse" x1="302.85715" x2="302.85715" y1="366.64789" y2="609.50507"><stop offset="0" stop-opacity="0"/><stop offset=".5"/><stop offset="1" stop-opacity="0"/></linearGradient><linearGradient id="h" gradientTransform="matrix(1.201539 0 0 1.4253572 3.856921 -10.105301)" gradientUnits="userSpaceOnUse" x1="21.37039" x2="21.37039" y1="4.247668" y2="34.143417"><stop offset="0" stop-color="#fff"/><stop offset=".07395859" stop-color="#fff" stop-opacity=".235294"/><stop offset=".99001008" stop-color="#fff" stop-opacity=".156863"/><stop offset="1" stop-color="#fff" stop-opacity=".392157"/></linearGradient><linearGradient id="i" gradientTransform="matrix(1.0878476 0 0 1.1232053 143.63527 -17.411665)" gradientUnits="userSpaceOnUse" x1="-51.786404" x2="-51.786404" y1="53.514328" y2="3.633682"><stop offset="0" stop-opacity=".321739"/><stop offset="1" stop-opacity=".278261"/></linearGradient><g transform="translate(0 16)"><path d="m7.0623263-5.8665264c-.7463391 0-1.3471825.6008434-1.3471825 1.3471825v2.6943654h-1.3471825c-.7463391 0-1.3471824.6008434-1.3471824 1.34718248v8.08309492c0 .7463391.6008433 1.3471825 1.3471824 1.3471825h55.2344817c.746339 0 1.347183-.6008434 1.347183-1.3471825v-8.08309492c0-.74633908-.600844-1.34718248-1.347183-1.34718248h-30.985197v-2.6943654c0-.7463391-.600843-1.3471825-1.347182-1.3471825z" fill="none" opacity=".8" stroke="url(#i)" stroke-width="1.347183"/><path d="m7.0623263-5.1929351c-.3731695 0-.6735912.3004217-.6735912.6735912v3.3679566h-2.0207738c-.3731695 0-.6735912.30042173-.6735912.67359128v8.08309492c0 .3731696.3004217.6735913.6735912.6735913h55.2344817c.37317 0 .673591-.3004217.673591-.6735913v-8.08309492c0-.37316955-.300421-.67359128-.673591-.67359128h-31.658788v-3.3679566c0-.3731695-.300422-.6735912-.673591-.6735912z" fill="#cecece"/><path d="m7.0623263-4.5193439v4.04154788h-2.694365v9.43027742h55.2344817v-9.43027742h-32.332379v-4.04154788z" fill="none" stroke="url(#h)" stroke-linecap="round" stroke-linejoin="round" stroke-width="1.347183"/><path d="m6.164214 37.916904h51.641994v8.083096h-51.641994z" fill="url(#g)" opacity=".3"/><path d="m57.806204 37.917188v8.08265c2.13616.01522 5.164195-1.810909 5.164195-4.041844 0-2.230934-2.383799-4.040806-5.164195-4.040806z" fill="url(#f)" opacity=".3"/><path d="m6.1642002 37.917188v8.08265c-2.1361599.01522-5.1641951-1.810909-5.1641951-4.041844 0-2.230934 2.383799-4.040806 5.1641951-4.040806z" fill="url(#d)" opacity=".3"/><path d="m2.566253 3.5640074c-1.4445973.17283-.6730389 1.9590189-.7882096 2.9634512.1676434.6490995 1.2494848 35.2644284 1.2494848 35.2644284 0 .998801.4738311.829581 1.6744401.829581h55.1820627c1.293403.03112 1.02006.0163 1.02006-.84533 0 0 1.337725-36.8511125 1.385577-37.4262113 0-.605545.121516-.7859193-.637433-.7859193-18.973785 0-40.112197 0-59.085982 0z" fill="url(#c)"/><path d="m2.4256474 4.3251116 59.1365696.0005389c.854329 0 1.408007.5989708 1.408007 1.3436394l-1.390844 36.3205381c.0198.94222-.281683 1.315807-1.2743 1.296044l-56.2862546-.023711c-.8543293 0-1.715812-.556076-1.715812-1.300731l-1.2853738-36.292167c0-.7446686.5536785-1.3441514 1.4080078-1.3441514z" fill="url(#b)" opacity=".4"/><path d="m3.050565 4.9109332c.022623.2468057.029858.7245451.042099 1.2240473.031136.1208799.034385.082858.042099.1311479.014897.093237.03642.1934093.042099.2622959.00862.1045546-.009.2420704 0 .3934437.017988.3027468.061035.7146254.084199 1.2240473.046327 1.0188457.105192 2.3905757.1683978 4.0655857.1264115 3.35002.2735645 7.771917.4209945 12.153041.2860014 8.499002.5315528 16.419733.5472929 16.918082.1650332.005.095795 0 .3367956 0h54.8555882c.0167-.460012.341082-8.990412.673591-18.054697.170676-4.652678.33058-9.352099.463094-12.896213.06625-1.7720567.127094-3.2615628.168398-4.3278814.01781-.4597074.03026-.8015412.0421-1.0928994z" fill="none" opacity=".5" stroke="url(#a)" stroke-linecap="round" stroke-width="1.347183"/><path d="m2.566253 3.5640074c-1.4445973.17283-.6730389 1.9590189-.7882096 2.9634512.1676434.6490995 1.2494848 35.2644284 1.2494848 35.2644284 0 .998801.4738311.829581 1.6744401.829581h55.1820627c1.293403.03112 1.02006.0163 1.02006-.84533 0 0 1.337725-36.8511125 1.385577-37.4262113 0-.605545.121516-.7859193-.637433-.7859193-18.973785 0-40.112197 0-59.085982 0z" style="opacity:.3;fill:none;stroke:#000;stroke-width:1.347183;stroke-linecap:round;stroke-linejoin:round"/><g fill="#482e89" transform="matrix(.41025548478 0 0 .41304283598 4.30773685996 8.6545680954)"><path d="m67.463968 8.4575916c-14.480514 0-28.946223 5.5389284-39.99448 16.5871854l6.651713 6.651713c18.413762-18.413761 48.271772-18.413761 66.685529 0l6.65172-6.651713c-11.048259-11.048257-25.513968-16.5871854-39.994482-16.5871854zm0 18.8605554c-9.653681 0-19.325548 3.664552-26.691053 11.030057l6.693813 6.693813c11.048257-11.048257 28.946223-11.048257 39.99448 0l6.693813-6.693813c-7.365505-7.365505-17.037386-11.030057-26.691053-11.030057zm0 18.860555c-4.826834 0-9.662774 1.832276-13.345527 5.515028l13.345527 13.345527 13.345526-13.345527c-3.682752-3.682752-8.518693-5.515028-13.345526-5.515028z" opacity=".9"/><path d="m67.463968 8.4575916c-14.480514 0-28.946223 5.5389284-39.99448 16.5871854l.673591.673591c10.958074-10.602672 25.135773-15.9135934 39.320889-15.9135934s28.362815 5.3109214 39.320892 15.9135934l.67359-.673591c-11.048259-11.048257-25.513968-16.5871854-39.994482-16.5871854zm0 18.8605554c-9.653681 0-19.325548 3.664552-26.691053 11.030057l.673591.673591c7.274327-6.918268 16.660747-10.356465 26.017462-10.356465 9.356701 0 18.743134 3.438197 26.017462 10.356465l.673591-.673591c-7.365505-7.365505-17.037386-11.030057-26.691053-11.030057zm0 18.860555c-4.826834 0-9.662774 1.832276-13.345527 5.515028l.715691.715691c3.585105-3.242129 8.100262-4.883536 12.629836-4.883536s9.044731 1.641407 12.629836 4.883536l.71569-.715691c-3.682752-3.682752-8.518693-5.515028-13.345526-5.515028z"/></g></g></svg>