<svg height="96" width="96" xmlns="http://www.w3.org/2000/svg" xmlns:xlink="http://www.w3.org/1999/xlink"><linearGradient id="a"><stop offset="0" stop-color="#c3b194"/><stop offset="1" stop-color="#e1c497"/></linearGradient><linearGradient id="b"><stop offset="0" stop-color="#c4c4c4"/><stop offset="1" stop-color="#f1f1f1"/></linearGradient><linearGradient id="c"><stop offset="0" stop-color="#fff"/><stop offset=".49890673" stop-color="#ccc"/><stop offset=".60806364" stop-color="#969696"/><stop offset="1" stop-color="#fff"/></linearGradient><linearGradient id="d"><stop offset="0" stop-color="#fff"/><stop offset=".39724174" stop-color="#ccc"/><stop offset=".49890673" stop-color="#ccc"/><stop offset=".60806364" stop-color="#777"/><stop offset="1" stop-color="#fff"/></linearGradient><linearGradient id="e"><stop offset="0" stop-color="#4d4d4d"/><stop offset="1" stop-color="#333"/></linearGradient><linearGradient id="f"><stop offset="0" stop-color="#ffbd2a"/><stop offset="1" stop-color="#ffe62a"/></linearGradient><linearGradient id="g" gradientTransform="scale(1.0058652 .994169)" gradientUnits="userSpaceOnUse" x1="45.447727" x2="45.447727" y1="92.539597" y2="7.01654"><stop offset="0"/><stop offset="1" stop-opacity=".588235"/></linearGradient><linearGradient id="h"><stop offset="0" stop-color="#fff"/><stop offset="1" stop-color="#fff" stop-opacity="0"/></linearGradient><linearGradient id="i"><stop offset="0" stop-color="#548238"/><stop offset="1" stop-color="#7dc851"/></linearGradient><linearGradient id="j" gradientUnits="userSpaceOnUse" x1="-63.642857" x2="-63.642857" xlink:href="#h" y1="6" y2="63.893143"/><filter id="k" color-interpolation-filters="sRGB" height="1.384" width="1.384" x="-.192" y="-.192"><feGaussianBlur stdDeviation="5.28"/></filter><linearGradient id="l" gradientUnits="userSpaceOnUse" x1="48" x2="48" xlink:href="#h" y1="20.220806" y2="138.66119"/><radialGradient id="m" cx="48" cy="90.171875" gradientTransform="matrix(1.1573129 0 0 .99590774 -107.55102 .197132)" gradientUnits="userSpaceOnUse" r="42" xlink:href="#h"/><clipPath id="n"><rect height="84" rx="6" width="84" x="6" y="6"/></clipPath><linearGradient id="o" gradientUnits="userSpaceOnUse" x1="48" x2="48" y1="90" y2="5.987717"><stop offset="0" stop-color="#3e8116"/><stop offset="1" stop-color="#66ae3b"/></linearGradient><linearGradient id="p" gradientUnits="userSpaceOnUse" x1="-40" x2="-40" xlink:href="#i" y1="102" y2="17.987717"/><linearGradient id="q" gradientUnits="userSpaceOnUse" x1="-52" x2="-52" xlink:href="#i" y1="90" y2="5.987717"/><linearGradient id="r" gradientUnits="userSpaceOnUse" x1="40" x2="40" xlink:href="#h" y1="8" y2="72"/><radialGradient id="s" cx="47.999977" cy="90" gradientTransform="matrix(1.1428571 0 0 1 -6.857143 0)" gradientUnits="userSpaceOnUse" r="42" xlink:href="#h"/><linearGradient id="t" gradientUnits="userSpaceOnUse" x1="37.081696" x2="37.081696" xlink:href="#g" y1="95.233528" y2="4.414762"/><linearGradient id="u" gradientUnits="userSpaceOnUse" x1="41.301643" x2="41.301643" xlink:href="#g" y1="93.716301" y2="4.639952"/><linearGradient id="v" gradientUnits="userSpaceOnUse" x1="38.802448" x2="38.802448" xlink:href="#g" y1="93.282806" y2="5.910502"/><linearGradient id="w" gradientUnits="userSpaceOnUse" x1="35.561268" x2="35.561268" xlink:href="#g" y1="91.98233" y2="6.645172"/><linearGradient id="x" gradientUnits="userSpaceOnUse" x1="40" x2="40" xlink:href="#g" y1="90.817703" y2="6.72829"/><linearGradient id="y" gradientUnits="userSpaceOnUse" x1="60" x2="60" y1="102" y2="17.987717"><stop offset="0" stop-color="#958741"/><stop offset="1" stop-color="#b4ba66"/></linearGradient><linearGradient id="z" gradientTransform="matrix(1 0 0 .5 -166 37)" gradientUnits="userSpaceOnUse" x1="78" x2="88" xlink:href="#f" y1="72" y2="72"/><linearGradient id="A" gradientTransform="matrix(1 0 0 .5 -166 33)" gradientUnits="userSpaceOnUse" x1="78" x2="88" xlink:href="#f" y1="72" y2="72"/><linearGradient id="B" gradientTransform="matrix(1 0 0 .5 -166 29)" gradientUnits="userSpaceOnUse" x1="78" x2="88" xlink:href="#f" y1="72" y2="72"/><linearGradient id="C" gradientTransform="matrix(1 0 0 .5 -166 25)" gradientUnits="userSpaceOnUse" x1="78" x2="88" xlink:href="#f" y1="72" y2="72"/><linearGradient id="D" gradientTransform="matrix(1 0 0 .5 -166 21)" gradientUnits="userSpaceOnUse" x1="78" x2="88" xlink:href="#f" y1="72" y2="72"/><linearGradient id="E" gradientTransform="matrix(1 0 0 .5 -166 17)" gradientUnits="userSpaceOnUse" x1="78" x2="88" xlink:href="#f" y1="72" y2="72"/><linearGradient id="F" gradientTransform="matrix(1 0 0 .5 -166 13)" gradientUnits="userSpaceOnUse" x1="78" x2="88" xlink:href="#f" y1="72" y2="72"/><linearGradient id="G" gradientTransform="matrix(1 0 0 .5 -166 9)" gradientUnits="userSpaceOnUse" x1="78" x2="88" xlink:href="#f" y1="72" y2="72"/><linearGradient id="H" gradientTransform="matrix(1 0 0 .5 -166 -1)" gradientUnits="userSpaceOnUse" x1="78" x2="88" xlink:href="#f" y1="72" y2="72"/><linearGradient id="I" gradientTransform="matrix(1 0 0 .5 -166 -5)" gradientUnits="userSpaceOnUse" x1="78" x2="88" xlink:href="#f" y1="72" y2="72"/><linearGradient id="J" gradientTransform="matrix(1 0 0 .5 -166 -9)" gradientUnits="userSpaceOnUse" x1="78" x2="88" xlink:href="#f" y1="72" y2="72"/><linearGradient id="K" gradientTransform="matrix(1 0 0 .5 -166 -13)" gradientUnits="userSpaceOnUse" x1="78" x2="88" xlink:href="#f" y1="72" y2="72"/><radialGradient id="L" cx="32" cy="32" gradientUnits="userSpaceOnUse" r="24" xlink:href="#e"/><linearGradient id="M" gradientUnits="userSpaceOnUse" x1="40" x2="40" y1="24" y2="48"><stop offset="0" stop-color="#fff"/><stop offset=".19255805" stop-color="#7f7f7f" stop-opacity="0"/><stop offset="1"/></linearGradient><linearGradient id="N" gradientTransform="matrix(1 0 0 .5 0 42)" gradientUnits="userSpaceOnUse" x1="11" x2="16" xlink:href="#d" y1="25" y2="25"/><linearGradient id="O" gradientTransform="matrix(1 0 0 .5 0 40)" gradientUnits="userSpaceOnUse" x1="11" x2="16" xlink:href="#d" y1="25" y2="25"/><linearGradient id="P" gradientTransform="matrix(1 0 0 .5 0 38)" gradientUnits="userSpaceOnUse" x1="11" x2="16" xlink:href="#d" y1="25" y2="25"/><linearGradient id="Q" gradientTransform="matrix(1 0 0 .5 0 36)" gradientUnits="userSpaceOnUse" x1="11" x2="16" xlink:href="#d" y1="25" y2="25"/><linearGradient id="R" gradientTransform="matrix(1 0 0 .5 0 34)" gradientUnits="userSpaceOnUse" x1="11" x2="16" xlink:href="#d" y1="25" y2="25"/><linearGradient id="S" gradientTransform="matrix(1 0 0 .5 0 32)" gradientUnits="userSpaceOnUse" x1="11" x2="16" xlink:href="#d" y1="25" y2="25"/><linearGradient id="T" gradientTransform="matrix(1 0 0 .5 0 30)" gradientUnits="userSpaceOnUse" x1="11" x2="16" xlink:href="#d" y1="25" y2="25"/><linearGradient id="U" gradientTransform="matrix(1 0 0 .5 0 28)" gradientUnits="userSpaceOnUse" x1="11" x2="16" xlink:href="#d" y1="25" y2="25"/><linearGradient id="V" gradientTransform="matrix(1 0 0 .5 0 26)" gradientUnits="userSpaceOnUse" x1="11" x2="16" xlink:href="#d" y1="25" y2="25"/><linearGradient id="W" gradientTransform="matrix(1 0 0 .5 0 24)" gradientUnits="userSpaceOnUse" x1="11" x2="16" xlink:href="#d" y1="25" y2="25"/><linearGradient id="X" gradientTransform="matrix(1 0 0 .5 0 22)" gradientUnits="userSpaceOnUse" x1="11" x2="16" xlink:href="#d" y1="25" y2="25"/><linearGradient id="Y" gradientTransform="matrix(1 0 0 .5 0 20)" gradientUnits="userSpaceOnUse" x1="11" x2="16" xlink:href="#d" y1="25" y2="25"/><linearGradient id="Z" gradientTransform="matrix(1 0 0 .5 0 18)" gradientUnits="userSpaceOnUse" x1="11" x2="16" xlink:href="#d" y1="25" y2="25"/><linearGradient id="aa" gradientTransform="matrix(1 0 0 .5 0 16)" gradientUnits="userSpaceOnUse" x1="11" x2="16" xlink:href="#d" y1="25" y2="25"/><linearGradient id="ab" gradientTransform="matrix(1 0 0 .5 0 14)" gradientUnits="userSpaceOnUse" x1="11" x2="16" xlink:href="#d" y1="25" y2="25"/><linearGradient id="ac" gradientTransform="matrix(1 0 0 .5 0 12)" gradientUnits="userSpaceOnUse" x1="11" x2="16" xlink:href="#d" y1="25" y2="25"/><linearGradient id="ad" gradientTransform="matrix(.8 0 0 1 11.2 -82)" gradientUnits="userSpaceOnUse" x1="11" x2="16" xlink:href="#c" y1="25" y2="25"/><linearGradient id="ae" gradientTransform="matrix(.8 0 0 1 11.2 -86)" gradientUnits="userSpaceOnUse" x1="11" x2="16" xlink:href="#c" y1="25" y2="25"/><linearGradient id="af" gradientTransform="matrix(.8 0 0 1 11.2 -90)" gradientUnits="userSpaceOnUse" x1="11" x2="16" xlink:href="#c" y1="25" y2="25"/><linearGradient id="ag" gradientTransform="matrix(.8 0 0 1 11.2 -94)" gradientUnits="userSpaceOnUse" x1="11" x2="16" xlink:href="#c" y1="25" y2="25"/><linearGradient id="ah" gradientTransform="matrix(.8 0 0 1 -44.8 -82)" gradientUnits="userSpaceOnUse" x1="11" x2="16" xlink:href="#c" y1="25" y2="25"/><linearGradient id="ai" gradientTransform="matrix(.8 0 0 1 -44.8 -86)" gradientUnits="userSpaceOnUse" x1="11" x2="16" xlink:href="#c" y1="25" y2="25"/><linearGradient id="aj" gradientTransform="matrix(.8 0 0 1 -44.8 -90)" gradientUnits="userSpaceOnUse" x1="11" x2="16" xlink:href="#c" y1="25" y2="25"/><linearGradient id="ak" gradientTransform="matrix(.8 0 0 1 -44.8 -94)" gradientUnits="userSpaceOnUse" x1="11" x2="16" xlink:href="#c" y1="25" y2="25"/><linearGradient id="al" gradientUnits="userSpaceOnUse" x1="62" x2="62" xlink:href="#e" y1="25" y2="32"/><linearGradient id="am" gradientUnits="userSpaceOnUse" x1="52.76535" x2="52.76535" y1="81.843025" y2="73.811729"><stop offset="0" stop-color="#dc6819"/><stop offset="1" stop-color="#efa471"/></linearGradient><linearGradient id="an" gradientUnits="userSpaceOnUse" x1="53.611629" x2="53.611629" xlink:href="#b" y1="75.0793" y2="80.929214"/><linearGradient id="ao" gradientUnits="userSpaceOnUse" x1="46" x2="46" xlink:href="#b" y1="70" y2="64"/><linearGradient id="ap" gradientUnits="userSpaceOnUse" x1="52" x2="52" xlink:href="#b" y1="70" y2="64"/><linearGradient id="aq" gradientUnits="userSpaceOnUse" x1="58" x2="58" xlink:href="#b" y1="70" y2="64"/><linearGradient id="ar" gradientUnits="userSpaceOnUse" x1="64" x2="64" xlink:href="#b" y1="70" y2="64"/><linearGradient id="as" gradientUnits="userSpaceOnUse" x1="40" x2="40" xlink:href="#a" y1="80" y2="74"/><linearGradient id="at" gradientUnits="userSpaceOnUse" x1="34" x2="34" xlink:href="#a" y1="80" y2="74"/><linearGradient id="au"><stop offset="0" stop-color="#f7eb93"/><stop offset="1" stop-color="#f7f593" stop-opacity="0"/></linearGradient><linearGradient id="av"><stop offset="0" stop-color="#d24e00"/><stop offset="1" stop-color="#ca5e00" stop-opacity="0"/></linearGradient><filter id="aw" color-interpolation-filters="sRGB"><feGaussianBlur stdDeviation=".42"/></filter><radialGradient id="ax" cx="61" cy="24.63372" gradientTransform="matrix(1.2626263 -.2104377 .09520749 .57124497 -39.365519 28.764811)" gradientUnits="userSpaceOnUse" r="19.007999"><stop offset="0" stop-color="#ffcc0a"/><stop offset="1" stop-color="#d38900" stop-opacity="0"/></radialGradient><radialGradient id="ay" cx="41.752941" cy="36.95731" gradientTransform="matrix(3.3630994 -.59089075 .30096298 1.7129535 -130.78914 8.680567)" gradientUnits="userSpaceOnUse" r="19"><stop offset="0" stop-color="#ffd639"/><stop offset=".5" stop-color="#eed96a" stop-opacity=".67451"/><stop offset="1" stop-color="#e4c731" stop-opacity="0"/></radialGradient><linearGradient id="az" gradientUnits="userSpaceOnUse" x1="59" x2="56" y1="46" y2="46"><stop offset="0" stop-color="#8e4900"/><stop offset=".5" stop-color="#d25800" stop-opacity=".364706"/><stop offset="1" stop-color="#ae5900" stop-opacity="0"/></linearGradient><linearGradient id="aA" gradientUnits="userSpaceOnUse" x1="31" x2="30.631207" y1="19" y2="17.084063"><stop offset="0" stop-color="#fbeda2"/><stop offset="1" stop-color="#fbe4a2" stop-opacity="0"/></linearGradient><radialGradient id="aB" cx="40.284538" cy="39.106094" gradientTransform="matrix(3.3729562 -.5317483 .18746453 1.1891145 -92.604806 22.442362)" gradientUnits="userSpaceOnUse" r="19"><stop offset="0" stop-color="#ffe945"/><stop offset=".5" stop-color="#eed96a" stop-opacity=".67451"/><stop offset="1" stop-color="#e49531" stop-opacity="0"/></radialGradient><radialGradient id="aC" cx="46" cy="50.608784" gradientTransform="matrix(2.6666667 -.00000007 .0000008 30.666677 -97.666707 -1471.0032)" gradientUnits="userSpaceOnUse" r="1.5"><stop offset="0" stop-color="#632e00"/><stop offset=".5" stop-color="#be5800" stop-opacity=".364706"/><stop offset="1" stop-color="#c25a00" stop-opacity="0"/></radialGradient><radialGradient id="aD" cx="39.768967" cy="69.843796" gradientTransform="matrix(1.1597853 -.1400901 .07244171 .58349276 -11.414104 33.34065)" gradientUnits="userSpaceOnUse" r="11"><stop offset="0" stop-color="#f1a801"/><stop offset="1" stop-color="#f17c01" stop-opacity="0"/></radialGradient><linearGradient id="aE" gradientUnits="userSpaceOnUse" x1="19" x2="20.884232" xlink:href="#av" y1="76" y2="68.967953"/><linearGradient id="aF" gradientUnits="userSpaceOnUse" x1="19" x2="21" xlink:href="#av" y1="75" y2="70"/><linearGradient id="aG" gradientUnits="userSpaceOnUse" x1="10" x2="15" xlink:href="#au" y1="70" y2="79"/><linearGradient id="aH" gradientUnits="userSpaceOnUse" x1="53" x2="54.884232" xlink:href="#av" y1="71" y2="63.967953"/><linearGradient id="aI" gradientUnits="userSpaceOnUse" x1="53" x2="55" xlink:href="#av" y1="70" y2="65"/><linearGradient id="aJ" gradientUnits="userSpaceOnUse" x1="44" x2="49" xlink:href="#au" y1="65" y2="74"/><linearGradient id="aK" gradientUnits="userSpaceOnUse" x1="67.19996100237" x2="72.72206934311" y1="191.64883408431" y2="118.78937741298"><stop offset="0" stop-color="#333"/><stop offset="1" stop-color="#515151"/></linearGradient><radialGradient id="aL" cx="40.846539" cy="75.263962" gradientTransform="matrix(.9847961 .02597927 -.01823822 .6913564 1.993706 24.820256)" gradientUnits="userSpaceOnUse" r="14.672466"><stop offset="0" stop-color="#fff"/><stop offset="1" stop-opacity="0"/></radialGradient><filter id="aM" color-interpolation-filters="sRGB"><feGaussianBlur stdDeviation=".7690217"/></filter><path d="m12 3.96875c-5.5294875 0-10.03125 4.5017625-10.03125 10.03125v71c0 5.529487 4.5017624 10.03125 10.03125 10.03125h60c5.529487 0 10.03125-4.501763 10.03125-10.03125v-1.96875h6.46875c3.045094 0 5.53125-2.486156 5.53125-5.53125v-56c0-3.045094-2.486156-5.53125-5.53125-5.53125h-6.46875v-1.96875c0-5.5294876-4.501763-10.03125-10.03125-10.03125z" fill="url(#t)" opacity=".08"/><path d="m12 4.9375c-4.997385 0-9.0625 4.065115-9.0625 9.0625v71c0 4.997385 4.0651149 9.0625 9.0625 9.0625h60c4.997385 0 9.0625-4.065115 9.0625-9.0625v-2.9375h7.4375c2.510363 0 4.5625-2.052137 4.5625-4.5625v-56c0-2.510363-2.052137-4.5625-4.5625-4.5625h-7.4375v-2.9375c0-4.9973851-4.065115-9.0625-9.0625-9.0625z" fill="url(#u)" opacity=".1"/><path d="m12 5.90625c-4.4660423 0-8.09375 3.6277077-8.09375 8.09375v71c0 4.466042 3.6277077 8.09375 8.09375 8.09375h60c4.466042 0 8.09375-3.627708 8.09375-8.09375v-3.90625h8.40625c1.973042 0 3.59375-1.620708 3.59375-3.59375v-56c0-1.973042-1.620708-3.59375-3.59375-3.59375h-8.40625v-3.90625c0-4.4660423-3.627708-8.09375-8.09375-8.09375z" fill="url(#v)" opacity=".2"/><path d="m12 7c-3.878 0-7 3.122-7 7v71c0 3.878 3.122 7 7 7h60c3.878 0 7-3.122 7-7v-5h9.5c1.385 0 2.5-1.115 2.5-2.5v-56c0-1.385-1.115-2.5-2.5-2.5h-9.5v-5c0-3.878-3.122-7-7-7z" fill="url(#w)" opacity=".3"/><path d="m12 7c-3.324 0-6 2.676-6 6v72c0 3.324 2.676 6 6 6h60c3.324 0 6-2.676 6-6v-6h10c1.108 0 2-.892 2-2v-56c0-1.108-.892-2-2-2h-10v-6c0-3.324-2.676-6-6-6z" fill="url(#x)" opacity=".45"/><path d="m12 6c-3.324 0-6 2.676-6 6v72c0 3.324 2.676 6 6 6h60c3.324 0 6-2.676 6-6v-6h10c1.108 0 2-.892 2-2v-56c0-1.108-.892-2-2-2h-10v-6c0-3.324-2.676-6-6-6z" fill="url(#o)"/><path d="m78 18v60h10c1.108 0 2-.892 2-2v-56c0-1.108-.892-2-2-2z" fill="url(#y)"/><path d="m-88 90c-3.324 0-6-2.676-6-6v-2-68-2c0-.334721.04135-.6507.09375-.96875.0487-.295596.09704-.596915.1875-.875.0099-.03038.02089-.0636.03125-.09375.09886-.287771.23488-.547452.375-.8125.144592-.273507.315616-.535615.5-.78125s.373776-.473472.59375-.6875c.439947-.428056.94291-.814526 1.5-1.09375.278545-.139612.573473-.246947.875-.34375-.256202.100222-.486711.236272-.71875.375-.0074.0044-.02387-.0045-.03125 0-.03193.0193-.06229.04251-.09375.0625-.120395.0767-.231023.163513-.34375.25-.106173.0808-.213281.161112-.3125.25-.17793.161433-.34746.345388-.5.53125-.107579.130255-.218394.265285-.3125.40625-.02509.03838-.03845.08587-.0625.125-.06476.103032-.130228.204517-.1875.3125-.101008.194706-.205675.415701-.28125.625-.008.02181-.02359.04055-.03125.0625-.03182.09195-.0358.186831-.0625.28125-.03033.106618-.07039.203031-.09375.3125-.072879.341512-.125.698205-.125 1.0625v2 68 2c0 2.781848 2.218152 5 5 5h2 68 2c2.781848 0 5-2.218152 5-5v-2-68-2c0-.364295-.05212-.720988-.125-1.0625-.04415-.206893-.08838-.397658-.15625-.59375-.0077-.02195-.0233-.04069-.03125-.0625-.06274-.173739-.138383-.367449-.21875-.53125-.04158-.0828-.07904-.169954-.125-.25-.0546-.09721-.126774-.18835-.1875-.28125-.09411-.140965-.204921-.275995-.3125-.40625-.143174-.17445-.303141-.346998-.46875-.5-.01117-.0102-.01998-.02115-.03125-.03125-.138386-.125556-.285091-.234436-.4375-.34375-.102571-.07315-.204318-.153364-.3125-.21875-.0074-.0045-.02384.0044-.03125 0-.232039-.138728-.462548-.274778-.71875-.375.301527.0968.596455.204138.875.34375.55709.279224 1.060053.665694 1.5 1.09375.219973.214028.409366.441865.59375.6875s.355408.507743.5.78125c.14012.265048.276135.524729.375.8125.01041.03078.02133.06274.03125.09375.09046.278085.1388.579404.1875.875.0524.31805.09375.634029.09375.96875v2 68 2c0 3.324-2.676 6-6 6z" fill="url(#m)" opacity=".2"/><rect fill="url(#p)" height="60" rx="2" width="72" x="-82" y="18"/><rect fill="url(#q)" height="84" rx="6" width="72" x="-94" y="6"/><path d="m-88 6c-3.324 0-6 2.676-6 6v2 68 2c0 .334721.0413.6507.0937.96875.0487.295596.097.596915.1875.875.01.03038.0209.0636.0312.09375.0989.287771.23488.547452.375.8125.14459.273507.31562.535615.5.78125s.37378.473472.59375.6875c.43995.428056.94291.814526 1.5 1.09375.27854.139612.57347.246947.875.34375-.2562-.100222-.48671-.236272-.71875-.375-.007-.0044-.0239.0045-.0312 0-.0319-.0193-.0623-.04251-.0937-.0625-.1204-.0767-.23102-.163513-.34375-.25-.10617-.0808-.21328-.161112-.3125-.25-.17793-.161433-.34746-.345388-.5-.53125-.10758-.130255-.21839-.265285-.3125-.40625-.0251-.03838-.0384-.08587-.0625-.125-.0648-.103032-.13023-.204517-.1875-.3125-.10101-.194706-.20568-.415701-.28125-.625-.008-.02181-.0236-.04055-.0312-.0625-.0318-.09195-.0358-.186831-.0625-.28125-.0303-.106618-.0704-.203031-.0937-.3125-.07298-.341512-.1251-.698205-.1251-1.0625v-2-68-2c0-2.781848 2.21815-5 5-5h2 68 2c2.781848 0 5 2.218152 5 5v2 68 2c0 .364295-.05212.720988-.125 1.0625-.04415.206893-.08838.397658-.15625.59375-.0077.02195-.0233.04069-.03125.0625-.06274.173739-.138383.367449-.21875.53125-.04158.0828-.07904.169954-.125.25-.0546.09721-.126774.18835-.1875.28125-.09411.140965-.204921.275995-.3125.40625-.143174.17445-.303141.346998-.46875.5-.01117.0102-.01998.02115-.03125.03125-.138386.125556-.285091.234436-.4375.34375-.102571.07315-.204318.153364-.3125.21875-.0074.0045-.02384-.0044-.03125 0-.232039.138728-.462548.274778-.71875.375.301527-.0968.596455-.204138.875-.34375.55709-.279224 1.060053-.665694 1.5-1.09375.219973-.214028.409366-.441865.59375-.6875s.355408-.507743.5-.78125c.14012-.265048.276135-.524729.375-.8125.01041-.03078.02133-.06274.03125-.09375.09046-.278085.1388-.579404.1875-.875.0524-.31805.09375-.634029.09375-.96875v-2-68-2c0-3.324-2.676-6-6-6z" fill="url(#j)" opacity=".35"/><path d="m12 6c-3.324 0-6 2.676-6 6v72c0 2.984862 2.1528308 5.43487 5 5.90625-2.2894695-.462126-4-2.469791-4-4.90625v-72c0-2.784524 2.2154759-5 5-5h60c2.784524 0 5 2.215476 5 5v6a1.0052675 1.0052675 0 0 0 1 1h10c.568524 0 1 .431476 1 1v56c0 .568524-.431476 1-1 1 1.108 0 2-.892 2-2v-56c0-1.108-.892-2-2-2h-10v-6c0-3.324-2.676-6-6-6zm65.84375 72a1.0052675 1.0052675 0 0 0 -.84375 1v6c0 2.436459-1.710531 4.444124-4 4.90625 2.847169-.47138 5-2.921388 5-5.90625v-6a1.0052675 1.0052675 0 0 0 -.15625 0z" fill="url(#r)" opacity=".35"/><path d="m12 6c-3.324 0-6 2.676-6 6v72c0 3.324 2.676 6 6 6h60c3.324 0 6-2.676 6-6v-6h10c1.108 0 2-.892 2-2v-56c0-1.108-.892-2-2-2h-10v-6c0-3.324-2.676-6-6-6zm0 1.96875h60c2.270777 0 4.03125 1.7604731 4.03125 4.03125v6c-.0032 1.031718.937032 1.971992 1.96875 1.96875h10c.05478 0 .03125-.02353.03125.03125v56c0 .05478.02353.03125-.03125.03125h-10c-1.031718-.003242-1.971992.937032-1.96875 1.96875v6c0 2.270777-1.760473 4.03125-4.03125 4.03125h-60c-2.2707769 0-4.03125-1.760473-4.03125-4.03125v-72c0-2.2707769 1.7604731-4.03125 4.03125-4.03125z" fill="url(#s)" opacity=".2"/><path d="m-88 72h10v2h-10z" fill="url(#z)" transform="scale(-1 1)"/><path d="m-88 68h10v2h-10z" fill="url(#A)" transform="scale(-1 1)"/><path d="m-88 64h10v2h-10z" fill="url(#B)" transform="scale(-1 1)"/><path d="m-88 60h10v2h-10z" fill="url(#C)" transform="scale(-1 1)"/><path d="m-88 56h10v2h-10z" fill="url(#D)" transform="scale(-1 1)"/><path d="m-88 52h10v2h-10z" fill="url(#E)" transform="scale(-1 1)"/><path d="m-88 48h10v2h-10z" fill="url(#F)" transform="scale(-1 1)"/><path d="m-88 44h10v2h-10z" fill="url(#G)" transform="scale(-1 1)"/><path d="m-88 34h10v2h-10z" fill="url(#H)" transform="scale(-1 1)"/><path d="m-88 30h10v2h-10z" fill="url(#I)" transform="scale(-1 1)"/><path d="m-88 26h10v2h-10z" fill="url(#J)" transform="scale(-1 1)"/><path d="m-88 22h10v2h-10z" fill="url(#K)" transform="scale(-1 1)"/><path d="m10 56 6 6h32l6-6v-16l2-2h22v-18h-26l-4-4h-16l-2 2h-14l-6 6zm18.018645 23.973771.109022-5.996208 2.071417-1.853373 37.048666.109022 2.558303-2.058303.116606-24.116606 4.077341-4.058303h4v32h-4l-2 2h-6l-2 2v4l-4 4h-26z" opacity=".15"/><path d="m18 64 3-3h53l4-4" fill="none" opacity=".4" stroke="#fc0" stroke-width=".5"/><path d="m78 61-5 5h-35" fill="none" opacity=".5" stroke="#fc0" stroke-width=".5"/><path d="m38 68h35l3-3h2" fill="none" opacity=".5" stroke="#fc0" stroke-width=".5"/><path d="m24 70 2 2h26l2 2" fill="none" opacity=".5" stroke="#fc0" stroke-width=".5"/><path d="m66 70h7l3 3h2" fill="none" opacity=".5" stroke="#fc0" stroke-width=".5"/><path d="m33.866398 79.994648 2.133602 2.005352h4l4 4h5l4-4" fill="none" opacity=".5" stroke="#fc0" stroke-width=".5"/><path d="m40 80 4 4h5l2-2" fill="none" opacity=".5" stroke="#fc0" stroke-width=".5"/><path d="m24 64 1-1h46" fill="none" opacity=".5" stroke="#fc0" stroke-width=".5"/><path d="m71.805877 63.061447a.90293783.90293783 0 1 1 -1.805876 0 .90293783.90293783 0 1 1 1.805876 0z" fill="#fc0" opacity=".5" transform="matrix(1.107496 0 0 1.107496 -6.524718 -6.840298)"/><g fill="none" stroke="#fc0" stroke-width=".5"><path d="m78 23h-2l-5-5h-17l-6 6" opacity=".5"/><path d="m39 18h11l3-3h16" opacity=".5"/><path d="m50 26 4-4h17l5 5h2" opacity=".5"/><path d="m52 39h16l6 6h4" opacity=".5"/><path d="m78 49h-4l-6-6h-6" opacity=".5"/><path d="m62 47h6l6 6h4" opacity=".5"/><path d="m78 31h-2l-6-6" opacity=".5"/><path d="m78 35h-2l-6-6" opacity=".5"/><path d="m51 59h10l6-6" opacity=".5"/></g><path d="m71.805877 63.061447a.90293783.90293783 0 1 1 -1.805876 0 .90293783.90293783 0 1 1 1.805876 0z" fill="#fc0" opacity=".5" transform="matrix(1.107496 0 0 1.107496 -11.524718 -16.840298)"/><path d="m71.805877 63.061447a.90293783.90293783 0 1 1 -1.805876 0 .90293783.90293783 0 1 1 1.805876 0z" fill="#fc0" opacity=".5" transform="matrix(1.107496 0 0 1.107496 -28.524718 -10.840298)"/><path d="m71.805877 63.061447a.90293783.90293783 0 1 1 -1.805876 0 .90293783.90293783 0 1 1 1.805876 0z" fill="#fc0" opacity=".5" transform="matrix(1.107496 0 0 1.107496 -8.524718 -54.840298)"/><path d="m71.805877 63.061447a.90293783.90293783 0 1 1 -1.805876 0 .90293783.90293783 0 1 1 1.805876 0z" fill="#fc0" opacity=".5" transform="matrix(1.107496 0 0 1.107496 -40.524718 -51.840298)"/><path d="m71.805877 63.061447a.90293783.90293783 0 1 1 -1.805876 0 .90293783.90293783 0 1 1 1.805876 0z" fill="#fc0" opacity=".5" transform="matrix(1.107496 0 0 1.107496 -8.524718 4.159702)"/><path d="m69 74h-3l-4 4h-2" fill="none" opacity=".5" stroke="#fc0" stroke-width=".5"/><path d="m32 79h-8l-3 3" fill="none" opacity=".5" stroke="#fc0" stroke-width=".5"/><path d="m32 77h-8l-6-6v-1" fill="none" opacity=".5" stroke="#fc0" stroke-width=".5"/><path d="m13 55v16l4 4" fill="none" opacity=".5" stroke="#fc0" stroke-width=".5"/><path d="m71.805877 63.061447a.90293783.90293783 0 1 1 -1.805876 0 .90293783.90293783 0 1 1 1.805876 0z" fill="#fc0" opacity=".5" transform="matrix(1.107496 0 0 1.107496 -61.524718 5.159702)"/><path d="m71.805877 63.061447a.90293783.90293783 0 1 1 -1.805876 0 .90293783.90293783 0 1 1 1.805876 0z" fill="#fc0" opacity=".5" transform="matrix(1.107496 0 0 1.107496 -57.524718 12.159702)"/><path d="m11 62v10l6 6" fill="none" opacity=".5" stroke="#fc0" stroke-width=".5"/><path d="m71.805877 63.061447a.90293783.90293783 0 1 1 -1.805876 0 .90293783.90293783 0 1 1 1.805876 0z" fill="#fc0" opacity=".5" transform="matrix(1.107496 0 0 1.107496 -61.524718 8.159702)"/><path d="m71.805877 63.061447a.90293783.90293783 0 1 1 -1.805876 0 .90293783.90293783 0 1 1 1.805876 0z" fill="#fc0" opacity=".5" transform="matrix(1.107496 0 0 1.107496 -67.524718 -8.840298)"/><path d="m50 14 2-2h12" fill="none" opacity=".5" stroke="#fc0" stroke-width=".5"/><path d="m71.805877 63.061447a.90293783.90293783 0 1 1 -1.805876 0 .90293783.90293783 0 1 1 1.805876 0z" fill="#fc0" opacity=".5" transform="matrix(1.107496 0 0 1.107496 -13.524718 -57.840298)"/><path d="m71.805877 63.061447a.90293783.90293783 0 1 1 -1.805876 0 .90293783.90293783 0 1 1 1.805876 0z" fill="#fc0" opacity=".5" transform="matrix(1.107496 0 0 1.107496 -28.524718 -55.840298)"/><rect height="66" rx="12" style="opacity:.1;stroke:#fff;stroke-width:.5;stroke-linecap:round;clip-path:url(#n);fill:url(#l);filter:url(#k)" width="66" x="15" y="15"/><path d="m15.75 22.9375c-1.697085.169142-1.985243 2.057076-1.8125 3.433318.02083 10.271365-.04166 20.549627.03125 30.816682.08169 1.71513 1.995612 2.054644 3.370818 1.875 10.281778-.02088 20.570466.04173 30.847932-.03125 1.71513-.08169 2.054644-1.995612 1.875-3.370818-.02088-10.281778.04173-20.570466-.03125-30.847932-.08169-1.71513-1.995612-2.054644-3.370818-1.875-10.303477 0-20.606955 0-30.910432 0zm40 0c-1.697085.169142-1.985243 2.057076-1.8125 3.433318.09266 2.465283-.192597 4.974017.15625 7.410432.83275 1.869781 3.142873 1.134543 4.752832 1.28125 3.246803-.05984 8.512614.121424 11.747168-.09375 1.953588-.606382 1.393932-2.92189 1.46875-4.48044-.0872-2.085495.184843-4.212721-.15625-6.26956-.83275-1.869781-5.142873-1.134543-6.752832-1.28125-3.134472 0-6.268945 0-9.403418 0zm0 18c-1.697085.169142-1.985243 2.057076-1.8125 3.433318.1007 1.063455.225056 1.948787 0 2.995324-.211486 1.067166.351871 2.162457.0625 3.133858-.08823 2.351338-.139317 4.745165.03125 7.09375.581339 1.877518 2.854634 1.490102 4.375 1.40625 1.83631-.305171 1.721995-2.415969 1.65625-3.841906 0-1.365198 0-2.730396 0-4.095594 1.405792.01885 3.416959.265359 3.90625-1.46875.125519-1.184419.233679-2.532629-.15625-3.625.382522-1.236273.383272-2.701203 0-3.9375-.994477-1.699894-3.214695-.913003-4.826528-1.09375-1.078657 0-2.157315 0-3.235972 0zm-40 22.000002c-1.697085.169142-1.985243 2.057074-1.8125 3.433316.125174 1.857157-.274891 3.805115.25 5.597932.994477 1.699894 3.214695.913003 4.826528 1.09375 1.142908.09811 2.071897-.430686 3.153418 0 1.607665-.09977 3.361825.237192 4.863804-.25 1.336707.488753 2.818935.148523 4.21875.25-1.873041.777623-1.186019 3.068246-1.3125 4.647886.193834 1.615255-.538381 3.609842.75 4.883364 1.488814.885593 3.344341.298204 4.996312.46875 1.107247-.355098 2.00613.0042 3.153418 0 1.618243-.197211 3.75423.595064 4.88152-.9375.684763-1.597902.195911-3.440808.34375-5.143704.01105-1.417893.283395-3.45245-1.46875-3.950046-1.289236-.194346-2.605251-.04863-3.90625-.09375 1.97044-.755157 1.236307-3.155618 1.375-4.784082-.196301-1.615396.59345-3.747401-.9375-4.872168-1.643614-.687565-3.532358-.195161-5.28125-.34375-.933176.440673-1.838521-.155216-2.848426 0-1.332836.120268-2.770369-.269167-4.026574.25-1.70378-.496088-3.563042-.166046-5.328171-.230578-.932981.434838-1.948132-.249535-2.980147-.01942-.970144 0-1.940288 0-2.910432 0zm28 0c-1.697085.169142-1.985243 2.057074-1.8125 3.433316.125174 1.857157-.274891 3.805115.25 5.597932.994477 1.699894 3.214695.913003 4.826528 1.09375 1.179764.06202 3.47607-.530924 1.028042.220481-2.328244.917298-2.159452 3.521627-2.10457 5.561263-.0043 2.053048-.346633 4.688755 1.873425 5.78418 2.008667.807354 4.256739.284442 6.377563.434076 2.094346-.174462 4.38766.46737 6.29439-.613789 2.248808-1.487938 1.422616-4.373585 1.579622-6.632523.844676-2.190907-2.215996-4.857495-2.435162-4.753688 1.083724-.276558 1.93458-.08788 3.042446 0 1.627925-.196753 3.638597.543236 4.923966-.75.885593-1.488814.298204-3.344341.46875-4.996312-.04292-1.505803.414291-3.720171-1.46875-4.284938-1.702518-.149976-3.452424-.142226-5.15625-.03125-.943602.286863-2.057904-.275675-3.11196-.0625-1.113259.09732-2.317967-.233482-3.35679.25-1.70378-.496088-3.563042-.166046-5.328171-.230578-.932981.434838-1.948132-.249535-2.980147-.01942-.970144 0-1.940288 0-2.910432 0zm-10.75 9.843748c.924431.234042-.937841.254733 0 0zm22 0c.924431.234042-.937841.254733 0 0zm-18.3125.28125c.910362-.170611.454133.310641 0 0z" fill="#333" opacity=".1"/><path d="m15.90625 24.0625c-.460356.041891-.850415.47529-.84375.9375v32c-.0051.492249.445251.942598.9375.9375h32c.492249.0051.942598-.445251.9375-.9375v-32c.005098-.492249-.445251-.942598-.9375-.9375h-32c-.03122-.0016-.06253-.0016-.09375 0zm40 0c-.460356.041891-.850415.47529-.84375.9375v8c-.0051.492249.445251.942598.9375.9375h14c.492249.0051.942598-.445251.9375-.9375v-8c.005098-.492249-.445251-.942598-.9375-.9375h-14c-.03122-.0016-.06253-.0016-.09375 0zm0 18c-.460356.041891-.850415.47529-.84375.9375v2c-.0051.492249.445251.942598.9375.9375h6c.492249.0051.942598-.445251.9375-.9375v-2c.005098-.492249-.445251-.942598-.9375-.9375h-6c-.03122-.0016-.06253-.0016-.09375 0zm0 4c-.460356.041891-.850415.47529-.84375.9375v2c-.0051.492249.445251.942598.9375.9375h6c.492249.0051.942598-.445251.9375-.9375v-2c.005098-.492249-.445251-.942598-.9375-.9375h-6c-.03122-.0016-.06253-.0016-.09375 0zm0 4c-.460356.041891-.850415.47529-.84375.9375v6c-.0051.492249.445251.942598.9375.9375h2c.492249.0051.942598-.445251.9375-.9375v-6c.005098-.492249-.445251-.942598-.9375-.9375h-2c-.03122-.0016-.06253-.0016-.09375 0zm-40 14c-.460356.041891-.850415.47529-.84375.9375v6c-.0051.492249.445251.942598.9375.9375h4c.492249.0051.942598-.445251.9375-.9375v-6c.005098-.492249-.445251-.942598-.9375-.9375h-4c-.03122-.0016-.06253-.0016-.09375 0zm6 0c-.460356.041891-.850415.47529-.84375.9375v6c-.0051.492249.445251.942598.9375.9375h4c.492249.0051.942598-.445251.9375-.9375v-6c.005098-.492249-.445251-.942598-.9375-.9375h-4c-.03122-.0016-.06253-.0016-.09375 0zm6 0c-.460356.041891-.850415.47529-.84375.9375v6c-.0051.492249.445251.942598.9375.9375h4c.492249.0051.942598-.445251.9375-.9375v-6c.005098-.492249-.445251-.942598-.9375-.9375h-4c-.03122-.0016-.06253-.0016-.09375 0zm6 0c-.460356.041891-.850415.47529-.84375.9375v6c-.0051.492249.445251.942598.9375.9375h4c.492249.0051.942598-.445251.9375-.9375v-6c.005098-.492249-.445251-.942598-.9375-.9375h-4c-.03122-.0016-.06253-.0016-.09375 0zm10 0c-.460356.041891-.850415.47529-.84375.9375v6c-.0051.492249.445251.942598.9375.9375h4c.492249.0051.942598-.445251.9375-.9375v-6c.005098-.492249-.445251-.942598-.9375-.9375h-4c-.03122-.0016-.06253-.0016-.09375 0zm6 0c-.460356.041891-.850415.47529-.84375.9375v6c-.0051.492249.445251.942598.9375.9375h4c.492249.0051.942598-.445251.9375-.9375v-6c.005098-.492249-.445251-.942598-.9375-.9375h-4c-.03122-.0016-.06253-.0016-.09375 0zm6 0c-.460356.041891-.850415.47529-.84375.9375v6c-.0051.492249.445251.942598.9375.9375h4c.492249.0051.942598-.445251.9375-.9375v-6c.005098-.492249-.445251-.942598-.9375-.9375h-4c-.03122-.0016-.06253-.0016-.09375 0zm6 0c-.460356.041891-.850415.47529-.84375.9375v6c-.0051.492249.445251.942598.9375.9375h4c.492249.0051.942598-.445251.9375-.9375v-6c.005098-.492249-.445251-.942598-.9375-.9375h-4c-.03122-.0016-.06253-.0016-.09375 0zm-30 10c-.460356.041891-.850415.47529-.84375.9375v6c-.0051.492249.445251.942598.9375.9375h4c.492249.0051.942598-.445251.9375-.9375v-6c.005098-.492249-.445251-.942598-.9375-.9375h-4c-.03122-.0016-.06253-.0016-.09375 0zm6 0c-.460356.041891-.850415.47529-.84375.9375v6c-.0051.492249.445251.942598.9375.9375h4c.492249.0051.942598-.445251.9375-.9375v-6c.005098-.492249-.445251-.942598-.9375-.9375h-4c-.03122-.0016-.06253-.0016-.09375 0zm11.59375 0c-1.328978 0-2.4375 1.108522-2.4375 2.4375v5c0 1.328978 1.108522 2.4375 2.4375 2.4375h9c1.328978 0 2.4375-1.108522 2.4375-2.4375v-5c0-1.328978-1.108522-2.4375-2.4375-2.4375z" fill="#333" opacity=".15"/><path d="m16 25v32h32v-32zm40 0v8h14v-8zm0 18v2h6v-2zm0 4v2h6v-2zm0 4v6h2v-6zm-40 14v6h4v-6zm6 0v6h4v-6zm6 0v6h4v-6zm6 0v6h4v-6zm10 0v6h4v-6zm6 0v6h4v-6zm6 0v6h4v-6zm6 0v6h4v-6zm-30 10v6h4v-6zm6 0v6h4v-6zm11.5 0c-.831 0-1.5.669-1.5 1.5v5c0 .831.669 1.5 1.5 1.5h9c.831 0 1.5-.669 1.5-1.5v-5c0-.831-.669-1.5-1.5-1.5z" fill="#333" opacity=".3"/><path d="m16 24h32v32h-32z" fill="url(#L)"/><path d="m56 24h14v8h-14z" fill="url(#al)"/><path d="m16 64h4v6h-4z" fill="#ccc"/><path d="m22 64h4v6h-4z" fill="#ccc"/><path d="m28 64h4v6h-4z" fill="#ccc"/><path d="m34 64h4v6h-4z" fill="#ccc"/><path d="m44 64h4v6h-4z" fill="url(#ao)"/><path d="m32 74h4v6h-4z" fill="url(#at)"/><path d="m38 74h4v6h-4z" fill="url(#as)"/><path d="m56 50h2v6h-2z" fill="#ccc"/><rect fill="url(#am)" height="8" rx="1.5" width="12" x="48" y="74"/><rect fill="url(#an)" height="6" rx="1" width="10" x="49" y="75"/><path d="m16 24v32h32v-32zm1 1h30v30h-30z" fill="url(#M)" opacity=".4"/><g transform="matrix(.8 0 0 1 3.2 0)"><path d="m11 54h5v1h-5z" fill="url(#N)"/><path d="m11 52h5v1h-5z" fill="url(#O)"/><path d="m11 50h5v1h-5z" fill="url(#P)"/><path d="m11 48h5v1h-5z" fill="url(#Q)"/><path d="m11 46h5v1h-5z" fill="url(#R)"/><path d="m11 44h5v1h-5z" fill="url(#S)"/><path d="m11 42h5v1h-5z" fill="url(#T)"/><path d="m11 40h5v1h-5z" fill="url(#U)"/><path d="m11 38h5v1h-5z" fill="url(#V)"/><path d="m11 36h5v1h-5z" fill="url(#W)"/><path d="m11 34h5v1h-5z" fill="url(#X)"/><path d="m11 32h5v1h-5z" fill="url(#Y)"/><path d="m11 30h5v1h-5z" fill="url(#Z)"/><path d="m11 28h5v1h-5z" fill="url(#aa)"/><path d="m11 26h5v1h-5z" fill="url(#ab)"/><path d="m11 24h5v1h-5z" fill="url(#ac)"/></g><g transform="matrix(0 .8 -1 0 72 11.2)"><path d="m11 54h5v1h-5z" fill="url(#N)"/><path d="m11 52h5v1h-5z" fill="url(#O)"/><path d="m11 50h5v1h-5z" fill="url(#P)"/><path d="m11 48h5v1h-5z" fill="url(#Q)"/><path d="m11 46h5v1h-5z" fill="url(#R)"/><path d="m11 44h5v1h-5z" fill="url(#S)"/><path d="m11 42h5v1h-5z" fill="url(#T)"/><path d="m11 40h5v1h-5z" fill="url(#U)"/><path d="m11 38h5v1h-5z" fill="url(#V)"/><path d="m11 36h5v1h-5z" fill="url(#W)"/><path d="m11 34h5v1h-5z" fill="url(#X)"/><path d="m11 32h5v1h-5z" fill="url(#Y)"/><path d="m11 30h5v1h-5z" fill="url(#Z)"/><path d="m11 28h5v1h-5z" fill="url(#aa)"/><path d="m11 26h5v1h-5z" fill="url(#ab)"/><path d="m11 24h5v1h-5z" fill="url(#ac)"/></g><g transform="matrix(-.8 0 0 -1 60.8 80)"><path d="m11 54h5v1h-5z" fill="url(#N)"/><path d="m11 52h5v1h-5z" fill="url(#O)"/><path d="m11 50h5v1h-5z" fill="url(#P)"/><path d="m11 48h5v1h-5z" fill="url(#Q)"/><path d="m11 46h5v1h-5z" fill="url(#R)"/><path d="m11 44h5v1h-5z" fill="url(#S)"/><path d="m11 42h5v1h-5z" fill="url(#T)"/><path d="m11 40h5v1h-5z" fill="url(#U)"/><path d="m11 38h5v1h-5z" fill="url(#V)"/><path d="m11 36h5v1h-5z" fill="url(#W)"/><path d="m11 34h5v1h-5z" fill="url(#X)"/><path d="m11 32h5v1h-5z" fill="url(#Y)"/><path d="m11 30h5v1h-5z" fill="url(#Z)"/><path d="m11 28h5v1h-5z" fill="url(#aa)"/><path d="m11 26h5v1h-5z" fill="url(#ab)"/><path d="m11 24h5v1h-5z" fill="url(#ac)"/></g><g transform="matrix(0 -.8 1 0 -8 68.8)"><path d="m11 54h5v1h-5z" fill="url(#N)"/><path d="m11 52h5v1h-5z" fill="url(#O)"/><path d="m11 50h5v1h-5z" fill="url(#P)"/><path d="m11 48h5v1h-5z" fill="url(#Q)"/><path d="m11 46h5v1h-5z" fill="url(#R)"/><path d="m11 44h5v1h-5z" fill="url(#S)"/><path d="m11 42h5v1h-5z" fill="url(#T)"/><path d="m11 40h5v1h-5z" fill="url(#U)"/><path d="m11 38h5v1h-5z" fill="url(#V)"/><path d="m11 36h5v1h-5z" fill="url(#W)"/><path d="m11 34h5v1h-5z" fill="url(#X)"/><path d="m11 32h5v1h-5z" fill="url(#Y)"/><path d="m11 30h5v1h-5z" fill="url(#Z)"/><path d="m11 28h5v1h-5z" fill="url(#aa)"/><path d="m11 26h5v1h-5z" fill="url(#ab)"/><path d="m11 24h5v1h-5z" fill="url(#ac)"/></g><path d="m20-58h4v2h-4z" fill="url(#ad)" transform="rotate(90)"/><path d="m20-62h4v2h-4z" fill="url(#ae)" transform="rotate(90)"/><path d="m20-66h4v2h-4z" fill="url(#af)" transform="rotate(90)"/><path d="m20-70h4v2h-4z" fill="url(#ag)" transform="rotate(90)"/><path d="m-36-58h4v2h-4z" fill="url(#ah)" transform="matrix(0 -1 -1 0 0 0)"/><path d="m-36-62h4v2h-4z" fill="url(#ai)" transform="matrix(0 -1 -1 0 0 0)"/><path d="m-36-66h4v2h-4z" fill="url(#aj)" transform="matrix(0 -1 -1 0 0 0)"/><path d="m-36-70h4v2h-4z" fill="url(#ak)" transform="matrix(0 -1 -1 0 0 0)"/><path d="m56 24v1h14v-1z" fill="#fff" opacity=".2"/><path d="m56 31v1h14v-1z" opacity=".2"/><g fill="#c89737" transform="translate(-.358398 -.288086)"><path d="m58.152344 28v-.149414h.350586v-1.058594l-.310547.22168v-.166016l.325195-.223633h.162109v1.226563h.334961v.149414z"/><path d="m59.973633 27.688477v.311523h-.166016v-.311523h-.648437v-.136719l.629882-.927735h.184571v.925782h.193359v.138672zm-.166016-.866211c-.0013.0033-.0046.0098-.0098.01953-.0052.0091-.01107.01953-.01758.03125-.0065.01172-.01335.02376-.02051.03613-.0065.01172-.01237.02149-.01758.0293l-.352539.519531c-.0033.0052-.0081.01205-.01465.02051-.0059.0085-.01205.01725-.01855.02637-.0065.0085-.01302.01693-.01953.02539-.0065.0085-.01172.01497-.01563.01953h.486328v-.727539"/><path d="m60.390625 28v-1.375977h1.043945v.152344h-.857422v.441406h.798829v.150391h-.798829v.479492h.897461v.152344z"/><path d="m62.699219 28-.357422-.571289h-.428711v.571289h-.186524v-1.375977h.647461c.07813.000002.147135.0091.207032.02734.06054.01758.111327.0433.152343.07715.04102.03386.07227.0752.09375.124023.02148.04883.03223.103842.03223.165039-.000001.04362-.0065.08659-.01953.128906-.01237.04232-.03223.08106-.05957.116211-.02735.03516-.06218.06543-.104492.09082-.04232.02539-.0931.04329-.152344.05371l.39062.592778zm-.02734-.980469c-.000001-.04167-.0072-.0778-.02148-.108398-.01432-.0306-.03516-.05599-.0625-.07617-.02734-.02083-.06055-.03613-.09961-.0459-.03906-.01042-.08333-.01562-.132812-.01563h-.442383v.507813h.450195c.05338.000001.09961-.0065.138672-.01953.03906-.01367.07096-.03223.0957-.05566.02539-.02344.04394-.05111.05566-.08301.01237-.0319.01855-.0664.01855-.103516"/><path d="m63.358398 26.776367v.511719h.767579v.154297h-.767579v.557617h-.186523v-1.375977h.977539v.152344z"/><path d="m65.258789 27.551758c-.000001.06901-.01042.132162-.03125.189453-.02083.05729-.05176.106771-.09277.148437-.04102.04102-.09212.07292-.153321.0957-.06055.02279-.13086.03418-.210937.03418-.07227 0-.135417-.0085-.189453-.02539-.05339-.01693-.09863-.04004-.135743-.06934-.03711-.02995-.06673-.06478-.08887-.104493-.02148-.03971-.03678-.08236-.0459-.127929l.177734-.02051c.0072.02604.01725.05143.03027.07617.01302.02409.0306.0459.05273.06543.02279.01888.05046.03418.08301.0459.0332.01107.07324.0166.120117.0166.04557 0 .08691-.0068.124023-.02051.03711-.01432.06869-.03516.09473-.0625.02669-.02734.0472-.06087.06152-.100586.01432-.03971.02148-.08529.02148-.136719-.000001-.04232-.0068-.08105-.02051-.116211-.01367-.03581-.0332-.0664-.05859-.0918-.02539-.02604-.05664-.04622-.09375-.06055-.03646-.01432-.07813-.02148-.125-.02148-.0293.000001-.05631.0026-.08105.0078s-.04785.01237-.06934.02148c-.02083.0091-.04004.01986-.05762.03223-.01693.01172-.03288.02409-.04785.03711h-.171875l.0459-.740235h.782227v.149414h-.62207l-.02637.436524c.03125-.02409.07031-.0446.117188-.06152.04687-.01758.102538-.02637.166992-.02637.06836.000001.129882.01042.18457.03125.05469.02083.101237.05046.139649.08887.03841.03776.06803.08301.08887.135743.02083.05274.03125.110677.03125.173828"/><path d="m66.368164 27.549805c-.000001.06901-.0098.132487-.0293.190429-.01888.05729-.0472.106771-.08496.148438-.03711.04102-.08333.07324-.138672.09668-.05534.02279-.119141.03418-.191406.03418-.08008 0-.150065-.0153-.209961-.0459-.0599-.0306-.109701-.07454-.149414-.131836-.03971-.05794-.06966-.128581-.08984-.211914-.01953-.08398-.0293-.179362-.0293-.286133 0-.122395.01107-.229817.0332-.322266.02279-.09245.05534-.169595.09766-.231445s.09375-.108397.154297-.139648c.0612-.03125.130208-.04687.207031-.04687.04687.000001.09082.0049.131836.01465.04101.0098.07812.02572.111328.04785.03385.02149.06348.05013.08887.08594s.04557.07975.06055.131836l-.167969.03027c-.01823-.05924-.04753-.101886-.08789-.127929-.03971-.02669-.08594-.04004-.138672-.04004-.04818.000001-.0918.01139-.13086.03418s-.07227.05697-.09961.102539c-.02734.04492-.0485.101564-.06348.169922-.01432.06836-.02149.148113-.02149.239258.0319-.05924.07682-.104166.134766-.134765.05794-.03125.124348-.04687.199219-.04687.0625 0 .119139.01009.169921.03027.05078.02018.09408.04948.129883.08789.03646.03776.06445.08399.08398.138671.02018.05404.03027.11491.03027.182618m-.178711.0078c-.000001-.04753-.0059-.09049-.01758-.128906-.01172-.03841-.0293-.07096-.05273-.09766-.02344-.02734-.05241-.04818-.08691-.0625-.03451-.01497-.07455-.02246-.120118-.02246-.0319.000001-.06413.0049-.09668.01465-.03255.0091-.06218.02442-.08887.0459-.02604.02083-.04753.0485-.06445.08301-.01628.03451-.02441.0765-.02441.125977 0 .05078.0065.09831.01953.142578.01302.04362.03157.08171.05566.114258.02474.03255.05436.05827.08887.07715.0345.01888.07324.02832.116211.02832.04232 0 .08008-.0072.113281-.02148.03385-.01497.0625-.03613.08594-.06348.02344-.028.04134-.06185.05371-.101563.01237-.03971.01855-.08431.01856-.133789"/><path d="m59.02832 30.051758c-.000001.06901-.01042.132162-.03125.189453-.02083.05729-.05176.106771-.09277.148437-.04102.04102-.09212.07292-.15332.0957-.06055.02279-.13086.03418-.210938.03418-.07227 0-.135417-.0085-.189453-.02539-.05339-.01693-.09863-.04004-.135742-.06934-.03711-.02995-.06673-.06478-.08887-.104493-.02148-.03971-.03678-.08236-.0459-.127929l.177734-.02051c.0072.02604.01725.05143.03027.07617.01302.02409.0306.0459.05273.06543.02279.01888.05046.03418.08301.0459.0332.01107.07324.0166.120117.0166.04557 0 .08691-.0068.124024-.02051.03711-.01432.06868-.03516.09473-.0625.02669-.02734.0472-.06087.06152-.100586.01432-.03971.02148-.08529.02148-.136719-.000001-.04232-.0068-.08105-.02051-.116211-.01367-.03581-.0332-.0664-.05859-.0918-.02539-.02604-.05664-.04622-.09375-.06055-.03646-.01432-.07813-.02148-.125-.02148-.0293.000001-.05632.0026-.08105.0078-.02474.0052-.04785.01237-.06934.02148-.02083.0091-.04004.01986-.05762.03223-.01693.01172-.03288.02409-.04785.03711h-.171875l.0459-.740235h.782226v.149414h-.62207l-.02637.436524c.03125-.02409.07031-.0446.117187-.06152.04687-.01758.102539-.02637.166992-.02637.06836.000001.129882.01042.184571.03125.05469.02083.101236.05046.139648.08887.03841.03776.06803.08301.08887.135743.02083.05274.03125.110677.03125.173828"/><path d="m60.137695 30.049805c-.000001.06901-.0098.132487-.0293.190429-.01888.05729-.0472.106771-.08496.148438-.03711.04102-.08333.07324-.138671.09668-.05534.02279-.119142.03418-.191407.03418-.08008 0-.150065-.0153-.209961-.0459-.0599-.0306-.1097-.07454-.149414-.131836-.03971-.05794-.06966-.128581-.08984-.211914-.01953-.08398-.0293-.179362-.0293-.286133 0-.122395.01107-.229817.0332-.322266.02279-.09245.05534-.169595.09766-.231445s.09375-.108397.154297-.139648c.0612-.03125.130208-.04687.207031-.04687.04687.000001.09082.0049.131836.01465.04102.0098.07812.02572.111328.04785.03385.02149.06348.05013.08887.08594s.04557.07975.06055.131836l-.167968.03027c-.01823-.05924-.04753-.101886-.08789-.127929-.03971-.02669-.08594-.04004-.138672-.04004-.04818.000001-.0918.01139-.130859.03418-.03906.02279-.07227.05697-.09961.102539-.02734.04492-.0485.101564-.06348.169922-.01432.06836-.02148.148113-.02148.239258.0319-.05924.07682-.104166.134766-.134765.05794-.03125.124348-.04687.199219-.04687.0625 0 .11914.01009.169922.03027.05078.02018.09407.04948.129882.08789.03646.03776.06445.08399.08398.138671.02018.05404.03027.11491.03027.182618m-.178711.0078c0-.04753-.0059-.09049-.01758-.128906-.01172-.03841-.0293-.07096-.05273-.09766-.02344-.02734-.05241-.04818-.08691-.0625-.03451-.01497-.07455-.02246-.120117-.02246-.0319.000001-.06413.0049-.09668.01465-.03255.0091-.06217.02442-.08887.0459-.02604.02083-.04753.0485-.06445.08301-.01628.03451-.02441.0765-.02441.125977-.000001.05078.0065.09831.01953.142578.01302.04362.03158.08171.05566.114258.02474.03255.05436.05827.08887.07715s.07324.02832.116211.02832c.04232 0 .08008-.0072.113281-.02148.03385-.01497.0625-.03613.08594-.06348.02344-.028.04134-.06185.05371-.101563.01237-.03971.01855-.08431.01855-.133789"/><path d="m60.929687 29.276367v1.223633h-.185546v-1.223633h-.472657v-.152344h1.13086v.152344z"/><path d="m61.428711 30.046875v-.15625h.488281v.15625z"/><path d="m63.144531 30.5-.357422-.571289h-.428711v.571289h-.186523v-1.375977h.647461c.07812.000002.147134.0091.207031.02734.06055.01758.111327.0433.152344.07715.04101.03386.07226.0752.09375.124023.02148.04883.03222.103842.03223.165039-.000001.04362-.0065.08659-.01953.128906-.01237.04232-.03223.08106-.05957.116211-.02734.03516-.06218.06543-.104492.09082-.04232.02539-.0931.04329-.152344.05371l.39062.592778zm-.02734-.980469c-.000001-.04167-.0072-.0778-.02148-.108398-.01432-.0306-.03516-.05599-.0625-.07617-.02734-.02083-.06055-.03613-.09961-.0459-.03906-.01042-.08333-.01562-.132813-.01563h-.442383v.507813h.450196c.05338.000001.09961-.0065.138672-.01953.03906-.01367.07096-.03223.0957-.05566.02539-.02344.04394-.05111.05566-.08301.01237-.0319.01855-.0664.01855-.103516"/><path d="m64.612305 30.5h-1.095703v-.139648l.83789-1.083985h-.766601v-.152344h.978515v.135743l-.83789 1.08789h.883789z"/><path d="m65.700195 30.120117c-.000001.06315-.01042.119467-.03125.168945-.02018.04948-.05013.09147-.08984.125977-.03906.03385-.08789.0599-.146485.07813-.05794.01758-.124349.02637-.199219.02637-.08529 0-.157227-.01042-.21582-.03125-.05794-.02148-.105794-.04948-.143555-.08398-.03776-.03516-.06608-.07487-.08496-.119141-.01888-.04492-.03125-.09115-.03711-.138672l.181641-.0166c.0052.03646.01465.06966.02832.09961.01432.02995.03353.05566.05762.07715.02409.02148.05371.03809.08887.0498.03516.01172.07682.01758.125.01758.08854.000001.157877-.02181.208008-.06543.05078-.04362.07617-.108398.07617-.194336-.000001-.05078-.01139-.09147-.03418-.122071-.02214-.03125-.05013-.05534-.08398-.07227-.0332-.01758-.06966-.0293-.109375-.03516-.03906-.0059-.0752-.0088-.108398-.0088h-.09961v-.152344h.0957c.0332.000001.06771-.0033.103516-.0098.03581-.0072.06836-.01953.09766-.03711.02995-.01823.05436-.04264.07324-.07324.01953-.0306.0293-.06966.0293-.117188 0-.07357-.02181-.131509-.06543-.173828-.04297-.04297-.107097-.06445-.192383-.06445-.07748.000001-.1403.01986-.188477.05957-.04753.03972-.07519.0957-.08301.167969l-.176757-.01367c.0072-.06055.02376-.11328.0498-.158203.02604-.04492.05892-.08203.09863-.111328.04036-.02995.08626-.05208.137695-.06641.05143-.01497.10612-.02246.164063-.02246.07682.000001.142903.0098.198242.0293.05534.01888.100585.04492.135742.07813.03516.03255.06087.07096.07715.115235.01693.04427.02539.09147.02539.141601-.000001.04037-.0055.07813-.0166.113282-.01107.03516-.02832.06673-.05176.09473s-.05339.05208-.08984.07227c-.03581.02018-.0791.03548-.129883.0459v.0039c.05534.0059.103515.01856.144532.03809.04101.01888.07487.04264.101562.07129.02669.02865.04655.0612.05957.09766.01367.03646.02051.07487.02051.115234"/><path d="m66.806641 29.78418c-.000001.122396-.01172.229818-.03516.322265-.02279.0918-.05567.168295-.09863.229492-.04297.0612-.09538.107097-.157227.137696-.0612.0306-.130209.0459-.207031.0459-.05273 0-.100261-.0055-.142578-.0166-.04232-.01042-.08008-.02702-.113282-.0498-.0332-.02279-.06152-.05241-.08496-.08887s-.04232-.0804-.05664-.131836l.167969-.02637c.01823.05925.04655.102864.08496.130859.03906.02734.08822.04102.147461.04102.04753 0 .09082-.01107.129883-.0332.03971-.02279.07324-.05664.100586-.101563.02799-.04492.0498-.101237.06543-.168945.01562-.06771.02409-.147135.02539-.238282-.01367.0306-.03255.05794-.05664.08203-.02344.02409-.05046.0446-.08106.06152-.02995.01628-.0625.02897-.09766.03809-.03516.0085-.07064.0127-.106445.0127-.0625.000001-.119141-.01107-.169922-.0332-.05013-.02279-.09277-.05436-.12793-.09473-.03516-.04036-.0625-.08887-.08203-.145508-.01888-.05729-.02832-.120767-.02832-.19043 0-.07096.01009-.13509.03027-.192383.02083-.05729.05078-.105793.08984-.145507.03906-.04036.08691-.07129.143554-.09277.05729-.02148.12207-.03223.194336-.03223.152994.000001.26888.05664.347657.169921.07877.113283.118163.28353.118164.510743m-.191407-.169922c0-.05078-.0062-.09863-.01855-.143555-.01172-.04492-.02962-.08398-.05371-.117187-.02344-.0332-.05273-.05924-.08789-.07813-.03451-.01953-.07455-.0293-.120117-.0293-.04232.000001-.0804.0075-.114258.02246-.03385.01497-.0625.03646-.08594.06445-.02344.02735-.04167.06087-.05469.100586-.01237.03971-.01856.08399-.01856.132812 0 .04622.0055.08919.0166.128906.01172.03971.02897.07422.05176.103516.02279.02865.05111.05143.08496.06836.03385.01628.07324.02441.118164.02441.03255 0 .06543-.0055.09863-.0166.03385-.01107.06413-.02799.09082-.05078.02734-.02279.04948-.05143.06641-.08594.01758-.03515.02637-.0765.02637-.124023"/><path d="m67.936523 29.811523c-.000001.132162-.0127.24349-.03809.333985-.02474.08984-.05892.16276-.102539.21875-.04297.05534-.09375.09505-.152343.11914-.0586.02409-.121095.03613-.1875.03613-.06706 0-.129558-.01204-.1875-.03613-.05794-.02409-.108399-.0638-.151368-.11914-.04232-.05534-.07585-.12793-.100585-.217774-.02409-.09049-.03613-.202148-.03613-.334961 0-.138671.01204-.253254.03613-.34375.02474-.09114.05859-.163735.101562-.217773.04297-.05403.09375-.0918.152344-.113281.05859-.02213.122395-.0332.191406-.0332.06576.000001.127278.01107.18457.0332.05794.02149.108398.05925.151368.113281.04297.05404.07682.126629.101562.217773.02474.0905.03711.205079.03711.34375m-.178711 0c0-.109374-.0065-.200194-.01953-.272461-.01302-.07292-.03223-.130858-.05762-.173828-.02539-.04362-.05664-.07422-.09375-.0918-.03646-.01823-.07813-.02734-.125-.02734-.04948.000001-.0931.0091-.130859.02734-.03776.01823-.06966.04915-.0957.09277-.02539.04297-.0446.100912-.05762.173828-.01302.07227-.01953.162761-.01953.271484 0 .10547.0065.194337.01953.266602.01367.07227.0332.130534.05859.174805.02604.04362.05762.0752.09473.09473.03711.01888.07943.02832.126953.02832.04622 0 .08789-.0094.125-.02832.03711-.01953.06836-.05111.09375-.09473.02604-.04427.0459-.102539.05957-.174805.01432-.07227.02148-.161132.02148-.266602"/></g><g fill="#fff" opacity=".5" transform="translate(-60 4)"><path d="m21.509566 37.914192v.87292h1.30938v.263209h-1.30938v.951216h-.318182v-2.347221h1.667543v.259876z"/><path d="m24.974592 40.001537h-1.869115v-.23822l1.429323-1.849125h-1.307714v-.259876h1.66921v.231557l-1.429323 1.855787h1.507619z"/><path d="m27.026954 40.001537-.268207-.686341h-1.069493l-.269872.686341h-.329844l.95788-2.347221h.361495l.942887 2.347221zm-.664686-1.70919c-.01777-.04442-.03498-.0894-.05164-.134936-.01555-.04553-.02943-.08662-.04165-.123275-.01222-.03776-.02277-.06885-.03165-.09329-.0078-.02554-.01222-.04109-.01333-.04664-.0022.0056-.0072.0211-.01499.04664-.0078.02555-.01833.0572-.03165.09495-.01222.03776-.02665.07941-.04331.12494-.01555.04554-.03165.09052-.04831.134936l-.299858.771302h.877917l-.301524-.774633"/><path d="m29.09764 38.780449c-.000002.208791-.01999.392037-.05997.54974-.03887.156593-.09496.287086-.168253.391481-.0733.104395-.162702.182691-.268207.234889-.104396.0522-.222118.0783-.353166.0783-.08996 0-.17103-.0094-.243218-.02832-.07219-.01777-.136602-.04609-.193242-.08496s-.10495-.0894-.144931-.151595c-.03998-.06219-.07219-.137157-.09662-.224893l.286531-.04498c.0311.101064.07941.175473.144931.223228.06664.04664.150484.06997.251548.06997.08107 0 .154926-.01888.221562-.05664.06774-.03887.124939-.09662.171585-.173252.04775-.07663.08496-.172695.111614-.288196.02665-.1155.04109-.250992.04331-.406475-.02332.0522-.05553.09884-.09662.139934-.03998.04109-.08607.07608-.138268.10495-.05109.02777-.106617.04942-.166588.06497-.05997.01444-.120499.02166-.18158.02166-.106617.000001-.203238-.01888-.289863-.05664-.08552-.03887-.158259-.09273-.21823-.16159-.05997-.06885-.106617-.151594-.139934-.248216-.03221-.09773-.04831-.206012-.04831-.324846 0-.121052.01721-.230444.05164-.328178.03554-.09773.08663-.180468.153261-.248216.06663-.06885.148262-.121606.244884-.158258.09773-.03665.208234-.05497.331509-.05497.260987.000003.458671.09662.593053.289863.134379.193244.201569.483661.201571.871254m-.326512-.289863c-.000001-.08662-.01055-.168252-.03165-.244884-.01999-.07663-.05053-.143263-.09162-.199905-.03998-.05664-.08996-.101061-.149929-.13327-.05886-.03332-.127163-.04997-.204903-.04998-.07219.000002-.137158.01277-.194908.03832s-.106616.06219-.146597.109948c-.03998.04665-.07108.103842-.09329.171586-.0211.06775-.03165.143267-.03165.226559 0 .07885.0094.152152.02832.219896.01999.06775.04942.126608.08829.176583.03887.04887.08718.08774.144931.116612.05775.02777.12494.04165.201571.04165.05553.000002.111613-.0094.168254-.02832.05775-.01888.109391-.04775.154927-.08663.04664-.03887.0844-.08774.113279-.146597.02998-.05997.04498-.130493.04498-.211567"/><path d="m31.008401 39.233568c-.000001.117722-.01666.226004-.04998.324846-.03221.09773-.08052.182136-.144931.253213-.0633.06997-.142157.124941-.236555.164922-.0944.03887-.203238.05831-.326512.05831-.136603 0-.25599-.0261-.358164-.0783s-.187134-.127162-.254879-.224894c-.06775-.09884-.118833-.21934-.153261-.361495-.03332-.143265-.04998-.305966-.04998-.488103 0-.208788.01888-.392035.05664-.549739.03887-.157701.0944-.289306.166588-.394813.07219-.105504.159923-.18491.263208-.238221.104395-.05331.222116-.07996.353166-.07996.07996.000003.154926.0083.224894.02499.06996.01666.133269.04387.18991.08163.05775.03665.10828.08552.151595.146598.04331.06108.07774.136048.103284.224893l-.286531.05164c-.0311-.101061-.08107-.173804-.149929-.21823-.06775-.04553-.146598-.0683-.236554-.0683-.08218.000002-.156594.01944-.223228.05831-.06664.03887-.123276.09718-.169919.174917-.04665.07663-.08274.173253-.108283.289863-.02443.116613-.03665.252659-.03665.40814.05442-.101062.131049-.177692.229891-.229891.09884-.05331.212121-.07996.339839-.07996.106615.000001.203236.01722.289863.05164.08662.03443.160478.08441.221562.149929.06219.06442.109946.143267.143265.236555.03443.09218.05164.196019.05164.311519m-.304855.01333c-.000002-.08107-.01-.154371-.02999-.219896-.01999-.06552-.04998-.121053-.08996-.166588-.03998-.04664-.0894-.08218-.148263-.106616-.05886-.02554-.127163-.03831-.204903-.03831-.05442.000001-.109394.0083-.164922.02499-.05553.01555-.106062.04165-.151595.0783-.04442.03554-.08107.08274-.109948.1416-.02777.05886-.04165.130494-.04165.214898-.000001.08663.01111.167699.03332.243218.02221.07441.05386.139379.09496.194908.0422.05553.09273.0994.151594.131604.05886.03221.12494.04831.19824.04831.07219 0 .136601-.01222.193242-.03665.05775-.02554.106615-.06164.146597-.108282.03998-.04775.07052-.105505.09162-.173251.0211-.06774.03165-.14382.03165-.228225"/><path d="m32.914165 39.236899c-.000001.117723-.01777.22545-.05331.323181-.03554.09773-.08829.182136-.158258.253213-.06997.06997-.157149.124386-.261543.163256-.103286.03887-.223229.05831-.35983.05831-.123275 0-.231002-.01444-.32318-.04331-.09107-.02887-.168254-.0683-.231557-.118277-.0633-.05109-.113835-.110503-.151595-.178249-.03665-.06775-.06275-.140489-.0783-.21823l.30319-.03498c.01222.04442.02943.08774.05164.129939.02221.04109.0522.0783.08996.111614.03887.03221.08607.05831.1416.0783.05664.01888.12494.02832.204903.02832.07774 0 .148262-.01166.211566-.03498.0633-.02443.117166-.05997.161591-.106616.04553-.04664.08052-.103839.10495-.171585.02443-.06774.03665-.145486.03665-.233223-.000001-.07219-.01166-.138267-.03498-.19824-.02332-.06108-.05664-.113278-.09995-.156592-.04331-.04442-.09662-.07885-.159924-.103284-.06219-.02443-.133271-.03665-.213233-.03665-.04998.000001-.09607.0044-.138267.01333-.0422.0089-.08163.0211-.118278.03665-.03554.01555-.0683.03387-.09829.05497-.02887.01999-.05608.04109-.08163.0633h-.293194l.0783-1.262735h1.334368v.254879h-1.061164l-.04498.744647c.05331-.04109.119942-.07607.199905-.10495.07996-.02998.174916-.04498.284865-.04498.11661.000002.22156.01777.314851.05331.09329.03554.172694.08607.23822.151595.06552.06442.116055.141601.151595.231557.03554.08996.05331.188801.05331.296526"/><path d="m33.338965 40.001537v-2.347221h.318182v2.087344h1.186105v.259877z"/><path d="m36.712367 39.236899c-.000002.117723-.01777.22545-.05331.323181-.03554.09773-.08829.182136-.158259.253213-.06997.06997-.157149.124386-.261542.163256-.103286.03887-.223229.05831-.35983.05831-.123276 0-.231002-.01444-.32318-.04331-.09107-.02887-.168254-.0683-.231557-.118277-.0633-.05109-.113836-.110503-.151595-.178249-.03665-.06775-.06275-.140489-.0783-.21823l.303189-.03498c.01222.04442.02943.08774.05164.129939.02221.04109.0522.0783.08996.111614.03887.03221.08607.05831.1416.0783.05664.01888.12494.02832.204903.02832.07774 0 .148262-.01166.211566-.03498.0633-.02443.117165-.05997.16159-.106616.04553-.04664.08052-.103839.10495-.171585.02443-.06774.03665-.145486.03665-.233223-.000002-.07219-.01166-.138267-.03498-.19824-.02332-.06108-.05664-.113278-.09995-.156592-.04331-.04442-.09662-.07885-.159925-.103284-.06219-.02443-.133271-.03665-.213232-.03665-.04998.000001-.09607.0044-.138268.01333-.0422.0089-.08163.0211-.118277.03665-.03554.01555-.0683.03387-.09829.05497-.02888.01999-.05608.04109-.08163.0633h-.293194l.0783-1.262735h1.334368v.254879h-1.061164l-.04498.744647c.05331-.04109.119943-.07607.199905-.10495.07996-.02998.174917-.04498.284865-.04498.116611.000002.221561.01777.314851.05331s.172695.08607.238221.151595c.06552.06442.116054.141601.151595.231557.03554.08996.05331.188801.05331.296526"/></g><g fill="#fff" opacity=".5" transform="translate(-60 4)"><path d="m21.966445 42.329205c-.000001.05757-.003.115142-.009.172712-.0055.05702-.01563.111577-.03043.163664-.01426.05209-.03399.100886-.05922.146394-.02522.04496-.0573.08389-.09623.116785-.03893.0329-.08553.05894-.139814.07813-.05428.01864-.117882.02796-.190804.02796-.01042 0-.02193-.000275-.03454-.000823s-.02522-.0016-.03783-.0033c-.01261-.0011-.02495-.0025-.03701-.0041s-.02276-.0038-.03207-.0066v-.1283c.01919.0071.04085.01234.06497.01563.02412.0033.04797.0049.07155.0049.07402 0 .134879-.01288.182581-.03865.0477-.02577.08553-.06059.113496-.104449.02796-.04441.0477-.09595.05922-.154618.01206-.05867.01946-.120623.02221-.18587h-.01069c-.01097.01974-.02412.03811-.03948.0551-.01535.017-.03345.0318-.05428.04441-.02084.01261-.04441.02248-.07073.02961-.02632.0071-.05565.01069-.088.01069-.05209 0-.09924-.008-.141458-.02385-.04222-.01645-.07813-.0403-.107739-.07155-.02961-.03125-.05264-.06936-.06909-.114318-.0159-.04551-.02385-.09732-.02385-.15544 0-.06251.0085-.118704.0255-.1686.01755-.05044.04194-.09293.0732-.127477.0318-.03509.07018-.06196.11514-.0806.04551-.01864.09623-.02796.152151-.02796.05538.000001.106916.01069.154618.03207.0477.02138.0891.05401.124188.09787.03509.04386.06278.09924.08307.166132.02029.06634.03043.144475.03043.234394m-.390716-.403761c-.0329.000001-.06305.0055-.09047.01645-.02687.01097-.05017.02796-.06991.05099s-.03509.05209-.04606.08718c-.01042.03454-.01563.07567-.01563.123366 0 .03838.0044.07292.01316.103626.0093.03016.02303.05593.04112.07731s.04057.03783.06744.04935c.02741.01152.05922.01727.0954.01727.03728 0 .071-.0063.10116-.01892.03016-.01316.05593-.02988.07731-.05017.02138-.02083.03783-.04441.04935-.07073.01206-.02632.01809-.05264.01809-.07895 0-.03674-.0052-.0732-.01563-.109384-.0099-.03674-.02495-.06963-.04523-.09869-.01974-.02961-.04469-.05346-.07484-.07155-.03016-.01809-.06525-.02714-.105272-.02714"/><path d="m22.513364 41.79709c.04606.000001.08937.006.129945.01809.04112.01206.07703.03016.107739.05428.03125.02413.05592.05428.07402.09047.01809.03619.02714.07841.02714.126655-.000001.03674-.0055.06991-.01645.09951-.01097.02961-.02604.05647-.04523.0806-.01919.02358-.04194.04496-.06826.06415-.02632.01864-.05483.03564-.08553.05099.0318.017.06278.03591.09294.05675.0307.02084.05784.04441.08142.07073.02412.02577.04331.05483.05757.08718.0148.03235.0222.06854.02221.108561-.000001.05044-.0093.09622-.02796.137347-.01809.04057-.04386.07512-.07731.103627-.0329.02851-.07265.05044-.119253.06579-.04606.01535-.09705.02303-.152973.02303-.06031 0-.114045-.0074-.161197-.02221-.04661-.0148-.08608-.03591-.118431-.06333-.0318-.02796-.0562-.06196-.0732-.101982-.01645-.04002-.02467-.08526-.02467-.135701 0-.04112.006-.07813.01809-.111029.01261-.0329.02933-.06251.05017-.08882.02083-.02632.04551-.04962.07402-.06991s.05867-.03811.09047-.05346c-.02687-.017-.05209-.03536-.07566-.0551-.02358-.02029-.04414-.04277-.06168-.06744-.017-.02467-.03071-.05181-.04112-.08142-.0099-.03016-.0148-.06333-.0148-.09952 0-.0477.009-.08937.02714-.12501.01864-.03619.04359-.06634.07484-.09047.03125-.02412.06716-.04222.107739-.05428.04112-.01206.08389-.01809.1283-.01809m-.230282.916192c0 .02906.0044.05593.01316.0806.0088.02412.02248.04496.04112.06251.01864.017.04222.03043.07073.0403.02851.0093.06251.01398.101982.01398.03838 0 .0721-.0047.10116-.01398.02961-.0099.05428-.02358.07402-.04112.01974-.01809.03454-.03975.04441-.06497.0099-.02522.0148-.05318.0148-.08389 0-.02851-.0055-.05428-.01645-.07731-.01042-.02303-.02577-.04441-.04606-.06415-.01974-.01974-.04359-.03838-.07155-.05593-.02796-.01754-.05921-.03482-.09376-.05181l-.02467-.01151c-.06908.0329-.121173.07073-.156263.113496-.03509.04222-.05264.09348-.05264.153795m.228619-.791181c-.05812.000001-.10445.01453-.138991.04359-.03399.02906-.05099.07128-.05099.126655-.000001.03125.0047.05812.01398.0806.0099.02248.0233.04249.0403.06004s.03728.03345.06086.0477c.02412.01371.05017.02714.07813.0403.02632-.01206.05099-.02522.07402-.03948.02358-.01425.04386-.03043.06086-.04852.01754-.01809.03125-.03865.04112-.06168.0099-.02303.0148-.04935.0148-.07895-.000001-.05538-.01727-.09759-.05181-.126655-.03454-.02906-.08197-.04359-.142281-.04359"/><path d="m23.06933 42.504384c0-.05757.0027-.114866.0082-.171889.006-.05702.01617-.111576.03043-.163665.0148-.05264.03482-.101432.06004-.146393.02522-.04496.0573-.08389.09623-.116786.03893-.03344.08553-.05949.139814-.07813.05428-.01919.117882-.02878.190805-.02878.01042.000001.02193.000275.03454.000822.01261.000549.02522.0016.03783.0033.01316.0011.02549.0027.03701.0049.01206.0016.02275.0038.03208.0066v.127477c-.01919-.0066-.04085-.01151-.06497-.0148-.02413-.0033-.04798-.0049-.07155-.0049-.04935.000001-.09294.006-.130767.01809-.03728.01152-.06963.02796-.09705.04935s-.05044.04688-.06908.07649c-.01809.02961-.0329.06251-.04441.09869-.01151.03564-.02001.07375-.02549.114319-.0055.04057-.009.08279-.01069.126655h.0099c.01097-.01974.02413-.03811.03948-.0551.0159-.01754.03427-.03235.0551-.04441.02084-.01261.04414-.02248.06991-.02961.02632-.0071.05565-.01069.088-.01069.05209 0 .09924.0082.141459.02467.04222.0159.07813.03948.107739.07073.02961.03125.05236.06963.06826.115141.01645.04496.02467.0965.02467.154618-.000001.06251-.0085.118705-.02549.168599-.017.04989-.0414.09239-.0732.127478-.0318.03454-.07018.06113-.115141.07978-.04496.01864-.0954.02796-.151328.02796-.05483 0-.106369-.01069-.154618-.03207-.0477-.02138-.0891-.05401-.124188-.09787-.03509-.04386-.06278-.09897-.08307-.16531s-.03043-.144748-.03043-.235216m.390657.404638c.0329 0 .06278-.0055.08964-.01645.02741-.01151.05099-.02851.07073-.05099.01974-.02303.03482-.05181.04523-.08636.01096-.03509.01645-.07649.01645-.124188 0-.03838-.0047-.07265-.01398-.102804-.0088-.0307-.02221-.05675-.0403-.07813s-.04085-.03783-.06826-.04935c-.02687-.01151-.05839-.01727-.09458-.01727-.03674.000001-.07046.0066-.10116.01974-.03016.01261-.05593.02933-.07731.05017-.02138.02029-.03811.04359-.05017.06991-.01151.02632-.01727.05264-.01727.07895 0 .03674.0049.07347.0148.110206.01042.03619.0255.06881.04523.09787.02029.02906.04551.05291.07566.07155.03016.01809.06525.02714.105272.02714"/><path d="m24.135206 43.018406.463031-1.065876h-.620116v-.136524h.773089v.119253l-.456451 1.083147z"/><path d="m25.725796 42.748647h-.175179v.269759h-.144748v-.269759h-.555144v-.130767l.545274-.808454h.154618v.802697h.175179zm-.319927-.136524v-.292787c-.000001-.0307.000273-.06278.000822-.09622.0011-.03399.0022-.06689.0033-.09869.0011-.03235.0022-.0625.0033-.09047.0016-.02796.0027-.05126.0033-.06991h-.0074c-.0038.01097-.0088.0233-.0148.03701-.0055.01316-.01179.02659-.01892.0403-.0066.01316-.01343.02604-.02056.03865-.0071.01261-.01371.0233-.01974.03207l-.338021.500041h.408751"/><path d="m25.852451 42.504384c0-.05757.0027-.114866.0082-.171889.006-.05702.01618-.111576.03043-.163665.0148-.05264.03482-.101432.06004-.146393.02522-.04496.0573-.08389.09623-.116786.03893-.03344.08553-.05949.139814-.07813.05428-.01919.117882-.02878.190805-.02878.01042.000001.02193.000275.03454.000822.01261.000549.02522.0016.03783.0033.01316.0011.02549.0027.03701.0049.01206.0016.02275.0038.03207.0066v.127477c-.01919-.0066-.04085-.01151-.06497-.0148-.02413-.0033-.04798-.0049-.07155-.0049-.04935.000001-.09294.006-.130768.01809-.03728.01152-.06963.02796-.09705.04935s-.05044.04688-.06908.07649c-.01809.02961-.0329.06251-.04441.09869-.01151.03564-.02001.07375-.02549.114319-.0055.04057-.009.08279-.01069.126655h.0099c.01097-.01974.02413-.03811.03948-.0551.0159-.01754.03427-.03235.0551-.04441.02083-.01261.04414-.02248.06991-.02961.02632-.0071.05565-.01069.088-.01069.05209 0 .09924.0082.141459.02467.04222.0159.07813.03948.107739.07073.02961.03125.05236.06963.06826.115141.01645.04496.02467.0965.02467.154618-.000001.06251-.0085.118705-.0255.168599-.017.04989-.0414.09239-.0732.127478-.0318.03454-.07018.06113-.115141.07978-.04496.01864-.0954.02796-.151328.02796-.05483 0-.106369-.01069-.154618-.03207-.0477-.02138-.0891-.05401-.124188-.09787-.03509-.04386-.06278-.09897-.08307-.16531s-.03043-.144748-.03043-.235216m.390657.404638c.0329 0 .06278-.0055.08965-.01645.02741-.01151.05099-.02851.07073-.05099.01974-.02303.03481-.05181.04523-.08636.01097-.03509.01645-.07649.01645-.124188-.000001-.03838-.0047-.07265-.01398-.102804-.0088-.0307-.02221-.05675-.0403-.07813s-.04085-.03783-.06826-.04935c-.02687-.01151-.05839-.01727-.09458-.01727-.03674.000001-.07046.0066-.101159.01974-.03016.01261-.05593.02933-.07731.05017-.02138.02029-.03811.04359-.05017.06991-.01151.02632-.01727.05264-.01727.07895 0 .03674.0049.07347.0148.110206.01042.03619.02549.06881.04523.09787.02029.02906.04551.05291.07566.07155.03016.01809.06525.02714.105272.02714"/><path d="m27.477583 42.097278c-.000001.04003-.0063.07649-.01892.109384-.01261.0329-.03043.06141-.05346.08553-.02248.02413-.04962.04414-.08142.06004-.0318.01535-.06717.02632-.106094.0329v.0049c.09705.01206.170792.04304.221235.09294.05044.04935.07566.11377.07566.193272-.000001.05264-.009.100885-.02714.144748-.01755.04386-.04441.0817-.0806.113497-.03619.0318-.08197.05647-.137346.07402-.05538.01755-.120899.02632-.196562.02632-.05976 0-.116238-.0047-.169422-.01398-.05264-.0093-.102256-.02632-.148861-.05099v-.139814c.0477.02522.09924.04469.154618.05839.05593.01371.109384.02056.160375.02056.05044 0 .09403-.0055.130767-.01645.03674-.01096.06689-.02659.09047-.04688.02412-.02029.04167-.04523.05264-.07484.01151-.02961.01727-.06278.01727-.09952-.000001-.03728-.0074-.06908-.02221-.0954-.01426-.02687-.03482-.0488-.06168-.0658-.02687-.01754-.05976-.03043-.09869-.03865-.03838-.0082-.08197-.01234-.130767-.01234h-.109384v-.124188h.109384c.04441.000001.08389-.0055.118431-.01645.03454-.01097.06333-.02659.08635-.04688.02358-.02029.0414-.04441.05346-.07238.01206-.02796.01809-.05867.01809-.09211 0-.02851-.0049-.05401-.0148-.07649s-.02385-.0414-.04194-.05675c-.01809-.0159-.03975-.02796-.06497-.03619-.02522-.0082-.05318-.01234-.08389-.01234-.05867.000001-.110481.0093-.155441.02796-.04441.01809-.0869.04195-.127477.07155l-.075662-.102747c.02084-.017.04386-.0329.06908-.0477.02577-.0148.05373-.02769.08389-.03865.03016-.01151.06223-.02056.09623-.02714.03454-.0066.071-.0099.109384-.0099.05921.000001.111028.0074.15544.0222.04496.01481.08252.03564.112673.06251.03016.02632.05291.05785.06826.09458.01535.03619.02303.07594.02303.119253"/></g><path d="m50 75c-.554 0-1 .446-1 1v1c0-.554.446-1 1-1h8c.554 0 1 .446 1 1v-1c0-.554-.446-1-1-1z" fill="#fff"/><path d="m42-62h2v6h-2z" fill="#ccc" transform="rotate(90)"/><path d="m42-60h2v2h-2z" fill="#767676" transform="rotate(90)"/><path d="m42-62h1v6h-1z" fill="#fff" opacity=".6" transform="rotate(90)"/><path d="m42-62h2v6h-2z" fill="#ccc" transform="matrix(0 1 -1 0 0 4)"/><path d="m42-60h2v2h-2z" fill="#767676" transform="matrix(0 1 -1 0 0 4)"/><path d="m42-62h1v6h-1z" fill="#fff" opacity=".6" transform="matrix(0 1 -1 0 0 4)"/><path d="m56 50h2v1h-2z" fill="#fff"/><path d="m56 51h2v4h-2z" fill="#b28160"/><path d="m17 65h2v4h-2z" opacity=".290043"/><path d="m16 64h4v1h-4z" fill="#fff" opacity=".632035"/><path d="m23 65h2v4h-2z" opacity=".290043"/><path d="m22 64h4v1h-4z" fill="#fff" opacity=".632035"/><path d="m29 65h2v4h-2z" opacity=".290043"/><path d="m28 64h4v1h-4z" fill="#fff" opacity=".632035"/><path d="m35 65h2v4h-2z" opacity=".290043"/><path d="m34 64h4v1h-4z" fill="#fff" opacity=".632035"/><path d="m50 64h4v6h-4z" fill="url(#ap)"/><path d="m56 64h4v6h-4z" fill="url(#aq)"/><path d="m62 64h4v6h-4z" fill="url(#ar)"/><path d="m32 74v1h4v-1z" fill="#fff" opacity=".6"/><path d="m38 74v1h4v-1z" fill="#fff" opacity=".6"/><g transform="matrix(.80742376 0 0 .80742376 110.64695 54.231463)"><path d="m59 12-40 7v49.4375c-2.319276-.626158-5.061972-.588893-7.78125.28125-5.876605 1.880457-9.378261 6.887462-7.843749 11.1875s7.529643 6.255457 13.406249 4.375c5.019769-1.606278 8.288237-5.500996 8.1875-9.28125h.03125v-40l28-5v33.4375c-2.319276-.626158-5.061972-.588893-7.78125.28125-5.876606 1.880457-9.378262 6.887462-7.84375 11.1875s7.529644 6.255457 13.40625 4.375c5.019769-1.606278 8.288237-5.500996 8.1875-9.28125h.03125z" fill="#fa7b00"/><path d="m21 22v13l36-7v-13z" fill="url(#ax)" filter="url(#aw)"/><path d="m58 14-38 7v47.75c.722607.272294 1.402627.590247 2 1v-33.75c0-4 .417188-5.500626 4-7 10.867162-4.547809 27-2 32-15z" fill="url(#ay)"/><path d="m59 12-3 .53125v63.71875c1.916539-1.806998 3.027571-4.042676 2.96875-6.25h.03125z" fill="url(#az)"/><path d="m19 19 1 2 38-7 1-2z" fill="url(#aA)"/><path d="m56.0625 29.4375-2.0625.34375v33.96875c.722607.272294 1.402627.590247 2 1v-33.75c0-.579491.03663-1.080328.0625-1.5625z" fill="url(#aB)"/><path d="m25 35-3 .53125v45.71875c1.916539-1.806998 3.027571-4.042676 2.96875-6.25h.03125z" fill="url(#aC)"/><path d="m51 65a11 8 0 1 1 -22 0 11 8 0 1 1 22 0z" fill="url(#aD)" transform="matrix(.9673215 -.30953355 .34730992 .97323843 -47.26801 25.620844)"/><path d="m15.59375 68c-1.413615.01337-2.905848.248636-4.375.71875-5.876605 1.880457-9.378261 6.887462-7.843749 11.1875s7.529643 6.255457 13.406249 4.375 9.378262-6.887462 7.84375-11.1875c-1.150884-3.225028-4.790405-5.133844-9.03125-5.09375zm.09375 1.84375c1.225586-.01097 2.347709.174813 3.34375.5 1.992081.650375 3.312347 1.823394 3.84375 3.3125s.260889 3.182456-.90625 4.84375-3.221645 3.202202-5.8125 4.03125-5.195419.775375-7.187499.125c-1.992081-.650375-3.312347-1.823394-3.84375-3.3125s-.260889-3.182456.90625-4.84375 3.221645-3.202202 5.812499-4.03125c1.295427-.414524 2.618164-.614034 3.84375-.625z" fill="url(#aE)" opacity=".2"/><path d="m15.59375 68c-1.413615.01337-2.905848.248636-4.375.71875-5.876605 1.880457-9.378261 6.887462-7.843749 11.1875s7.529643 6.255457 13.406249 4.375 9.378262-6.887462 7.84375-11.1875c-1.150884-3.225028-4.790405-5.133844-9.03125-5.09375zm.03125 1.03125c1.308148-.01099 2.561427.173812 3.65625.53125 2.189647.714875 3.768044 2.055356 4.40625 3.84375s.220391 3.767696-1.0625 5.59375-3.439308 3.433105-6.1875 4.3125-5.529103.839875-7.718749.125c-2.189647-.714875-3.768044-2.055356-4.40625-3.84375s-.220391-3.767696 1.0625-5.59375 3.439308-3.433105 6.187499-4.3125c1.374096-.439698 2.754352-.645258 4.0625-.65625z" fill="url(#aF)" opacity=".5"/><path d="m19 71c1.220869 2.476881-1.444191 5.171368-5.407201 7.124758-3.963009 1.95339-7.723257 2.425975-8.944126-.05091-1.220869-2.476881 1.002075-6.068326 4.965085-8.021716 3.963009-1.95339 8.165373-1.529017 9.386242.947864z" fill="url(#aG)"/><path d="m51 65a11 8 0 1 1 -22 0 11 8 0 1 1 22 0z" fill="url(#aD)" transform="matrix(.9673215 -.30953355 .34730992 .97323843 -13.26801 20.620844)"/><path d="m49.59375 63c-1.413615.01337-2.905848.248636-4.375.71875-5.876606 1.880457-9.378262 6.887462-7.84375 11.1875s7.529644 6.255457 13.40625 4.375 9.378262-6.887462 7.84375-11.1875c-1.150884-3.225028-4.790405-5.133844-9.03125-5.09375zm.09375 1.84375c1.225586-.01097 2.347709.174813 3.34375.5 1.992081.650375 3.312347 1.823394 3.84375 3.3125s.260889 3.182456-.90625 4.84375-3.221645 3.202202-5.8125 4.03125-5.195419.775375-7.1875.125-3.312347-1.823394-3.84375-3.3125-.260889-3.182456.90625-4.84375 3.221645-3.202202 5.8125-4.03125c1.295427-.414524 2.618164-.614034 3.84375-.625z" fill="url(#aH)" opacity=".2"/><path d="m49.59375 63c-1.413615.01337-2.905848.248636-4.375.71875-5.876606 1.880457-9.378262 6.887462-7.84375 11.1875s7.529644 6.255457 13.40625 4.375 9.378262-6.887462 7.84375-11.1875c-1.150884-3.225028-4.790405-5.133844-9.03125-5.09375zm.03125 1.03125c1.308148-.01099 2.561427.173812 3.65625.53125 2.189647.714875 3.768044 2.055356 4.40625 3.84375s.220391 3.767696-1.0625 5.59375-3.439308 3.433105-6.1875 4.3125-5.529103.839875-7.71875.125-3.768044-2.055356-4.40625-3.84375-.220391-3.767696 1.0625-5.59375 3.439308-3.433105 6.1875-4.3125c1.374096-.439698 2.754352-.645258 4.0625-.65625z" fill="url(#aI)" opacity=".5"/><path d="m53 66c1.220869 2.476881-1.444191 5.171368-5.407201 7.124758s-7.723258 2.425975-8.944127-.05091c-1.220869-2.476881 1.002075-6.068326 4.965085-8.021716s8.165374-1.529017 9.386243.947864z" fill="url(#aJ)"/></g><path d="m72.15625 108v47.625c-2.955082-1.15725-6.827447-1.32803-10.8125-.25-7.447675 2.01473-12.437142 7.64982-11.125 12.59375 1.312141 4.94395 8.396075 7.32723 15.84375 5.3125 6.327497-1.7117 9.392814-6.04692 9.8125-10.34375h.03125v-43.75c3.726808 2.65814 12.764489 12.96834 8.4375 25.125 2.396324-6.23733 2.614641-12.92683 1.71875-16.53125-1.084096-4.36165-4.745434-8.85696-8.53125-12.90625-3.977035-4.25381-5.375-6.875-5.375-6.875zm11.75 37.40625c-.401834.93359-.866802 1.85879-1.375 2.75.538758-.92199.995679-1.84382 1.375-2.75z" filter="url(#aM)" opacity=".5"/><g transform="matrix(.67444376 0 0 .67444376 41.534539 35.738219)"><path d="m45.389624 105.66008v70.62627c-4.381509-1.71585-10.106689-1.98902-16.015341-.39062-11.042692 2.98725-18.458009 11.34826-16.512492 18.67865 1.945517 7.33041 12.465413 10.87064 23.508106 7.88339 9.381801-2.53795 13.901619-8.96972 14.523888-15.34065h.07102v-64.86537c6.09738 4.34894 21.758864 22.53516 9.83353 42.94319 6.028052-10.57115 6.833981-23.73357 5.226578-30.2006-1.607392-6.46704-7.037648-13.1157-12.65089-19.11959-5.896763-6.30714-7.984401-10.21467-7.984401-10.21467z" fill="url(#aK)"/><path d="m56.391766 82.480003a14.672466 9.280777 0 1 1 -29.344933 0 14.672466 9.280777 0 1 1 29.344933 0z" fill="url(#aL)" transform="matrix(1.1628252 -.27392287 .27392287 1.1628252 -37.780706 103.14581)"/></g><path d="m32.032882 26.773858v18.764695c-1.131872-.455885-2.610853-.52846-4.137231-.103787-2.852649.793681-4.768242 3.015117-4.26566 4.962732.502585 1.947613 3.220182 2.888217 6.072833 2.094535 2.423592-.674305 3.591195-2.38316 3.751944-4.075854h.01835v-17.234079c1.575131 1.155467 5.62095 5.987368 2.540287 11.409578 1.557222-2.80865 1.765417-6.305773 1.350178-8.024-.415237-1.71823-1.818031-3.484709-3.268095-5.079885-1.523307-1.675744-2.062604-2.713935-2.062604-2.713935z" fill="#fff"/><path d="m114 40v9.15625c-.60031-.217048-1.37545-.213789-2.15625.125-1.32979.576994-2.1202 1.808297-1.75 2.75.37021.941703 1.73271 1.264494 3.0625.6875 1.14981-.498901 1.90457-1.507952 1.84375-2.375-.00073-.01037.00096-.02091 0-.03125v-10.3125z" fill="#f2f2f2"/><path d="m122 37v7.09375c-.47318-.1283-1.06311-.126413-1.625.09375-1.05102.411815-1.62003 1.343844-1.28125 2.0625s1.48023.974315 2.53125.5625c.93278-.365486 1.49769-1.14309 1.375-1.8125v-8z" fill="#f2f2f2"/><path d="m108.83956 27.050344v15.678274c-.97265-.380901-2.24358-.44154-3.55524-.08672-2.45136.663136-4.09748 2.51919-3.6656 4.146461.43189 1.627269 2.76719 2.413163 5.21855 1.750026 2.08266-.563395 3.08601-1.991177 3.22415-3.405457h.0158v-14.399414c1.35355.965416 4.83023 5.002564 2.18294 9.532928 1.33816-2.346683 1.51707-5.268598 1.16024-6.70421-.35682-1.435615-1.56228-2.911544-2.80836-4.244345-1.30902-1.400117-1.77245-2.267546-1.77245-2.267546z" fill="#f2f2f2"/></svg>