<svg height="96" width="96" xmlns="http://www.w3.org/2000/svg" xmlns:xlink="http://www.w3.org/1999/xlink"><linearGradient id="a"><stop offset="0" stop-color="#fff"/><stop offset="1" stop-color="#fff" stop-opacity="0"/></linearGradient><linearGradient id="b" gradientUnits="userSpaceOnUse" x1="36.357143" x2="36.357143" xlink:href="#a" y1="6" y2="63.893143"/><radialGradient id="c" cx="48" cy="90.171875" gradientTransform="matrix(1.1573129 0 0 .99590774 -7.551021 .197132)" gradientUnits="userSpaceOnUse" r="42" xlink:href="#a"/><linearGradient id="d" gradientUnits="userSpaceOnUse" x1="48" x2="48" y1="90" y2="5.987717"><stop offset="0" stop-color="#0c0c0c"/><stop offset="1" stop-color="#373737"/></linearGradient><linearGradient id="e" gradientUnits="userSpaceOnUse" x1="16.162441" x2="76.838295" y1="52.098946" y2="52.098946"><stop offset="0" stop-opacity=".689922"/><stop offset=".5" stop-color="#7f7f7f" stop-opacity="0"/><stop offset="1" stop-color="#fff" stop-opacity=".217054"/></linearGradient><linearGradient id="f" gradientUnits="userSpaceOnUse" x1="16.162441" x2="76.771591" y1="44.48222" y2="44.48222"><stop offset="0" stop-color="#4b4b4b"/><stop offset=".37373093" stop-color="#232323"/><stop offset="1" stop-color="#5c5c5c"/></linearGradient><linearGradient id="g" gradientUnits="userSpaceOnUse" x1="16.162441" x2="76.771591" y1="44.48222" y2="44.48222"><stop offset="0" stop-color="#141414"/><stop offset="1" stop-color="#616161"/></linearGradient><radialGradient id="h" cx="47.9999984" cy="47.99999996256" gradientUnits="userSpaceOnUse" r="27.99999911422"><stop offset="0" stop-opacity="0"/><stop offset=".94999999" stop-opacity="0"/><stop offset="1"/></radialGradient><linearGradient id="i" gradientUnits="userSpaceOnUse" x1="16.162441" x2="76.771591" y1="44.48222" y2="44.48222"><stop offset="0" stop-color="#5d5d5d"/><stop offset=".60000002" stop-color="#0a0a0a"/><stop offset="1" stop-color="#4e4e4e"/></linearGradient><clipPath id="j"><path d="m61.366765 45.997448a13.637059 13.637059 0 1 1 -27.274118 0 13.637059 13.637059 0 1 1 27.274118 0z" transform="matrix(1.0266143 0 0 1.0266143 -.999999 .778362)"/></clipPath><filter id="k" color-interpolation-filters="sRGB" height="1.48" width="1.48" x="-.24" y="-.24"><feGaussianBlur stdDeviation="2.8000002"/></filter><radialGradient id="l" cx="47.729706" cy="45.997448" gradientUnits="userSpaceOnUse" r="13.637059"><stop offset="0" stop-color="#fff" stop-opacity=".185484"/><stop offset=".3086735" stop-color="#fff" stop-opacity=".108871"/><stop offset=".43622452" stop-opacity="0"/><stop offset=".54464293" stop-opacity="0"/><stop offset=".58290821" stop-color="#fff" stop-opacity="0"/><stop offset=".61479598" stop-opacity=".181452"/><stop offset=".69132656" stop-opacity=".431452"/><stop offset=".78061229" stop-color="#fff" stop-opacity=".080645"/><stop offset=".87627554" stop-opacity="0"/><stop offset="1" stop-color="#fff" stop-opacity="0"/></radialGradient><linearGradient id="m" gradientUnits="userSpaceOnUse" x1="33.199345" x2="67.957489" xlink:href="#a" y1="45.997448" y2="45.997448"/><linearGradient id="n" gradientUnits="userSpaceOnUse" x1="40.068184" x2="31.793724" xlink:href="#a" y1="58.17598" y2="49.665066"/><linearGradient id="o" gradientUnits="userSpaceOnUse" x1="40.068184" x2="40.068184" xlink:href="#a" y1="58.17598" y2="41.697067"/><radialGradient id="p" cx="41" cy="52" gradientTransform="matrix(1 0 0 .61803397 0 19.862234)" gradientUnits="userSpaceOnUse" r="9.708204"><stop offset="0" stop-color="#fff"/><stop offset=".5" stop-color="#fff"/><stop offset="1" stop-color="#fff" stop-opacity="0"/></radialGradient><filter id="q" color-interpolation-filters="sRGB"><feGaussianBlur stdDeviation=".27274118"/></filter><linearGradient id="r" gradientUnits="userSpaceOnUse" x1="53.93464755338" x2="62.12753065516" y1="111.97316088201" y2="91.7701162477"><stop offset="0" stop-color="#d40000" stop-opacity="0"/><stop offset=".5" stop-color="#d40000"/><stop offset="1" stop-color="#d40000" stop-opacity="0"/></linearGradient><linearGradient id="s" gradientTransform="matrix(.72592593 .72592593 -.72592593 .72592593 46.742509 29.961028)" gradientUnits="userSpaceOnUse" x1="53.730709" x2="62.58559" y1="60.139374" y2="38.831467"><stop offset="0" stop-color="#d42aff" stop-opacity="0"/><stop offset=".5" stop-color="#d42aff"/><stop offset="1" stop-color="#d42aff" stop-opacity="0"/></linearGradient><linearGradient id="t" gradientTransform="matrix(0 1.0266143 -1.0266143 0 95.221638 49.000001)" gradientUnits="userSpaceOnUse" x1="53.387505" x2="61.982975" y1="60.34634" y2="39.437084"><stop offset="0" stop-color="#60f" stop-opacity="0"/><stop offset=".5" stop-color="#60f"/><stop offset="1" stop-color="#60f" stop-opacity="0"/></linearGradient><linearGradient id="u" gradientTransform="matrix(-.72592593 .72592593 -.72592593 -.72592593 116.03897 96.742509)" gradientUnits="userSpaceOnUse" x1="53.295853" x2="61.88982" y1="59.182693" y2="40.223007"><stop offset="0" stop-color="#2a7fff" stop-opacity="0"/><stop offset=".5" stop-color="#2a7fff"/><stop offset="1" stop-color="#2a7fff" stop-opacity="0"/></linearGradient><linearGradient id="v" gradientTransform="matrix(-1.0266143 0 0 -1.0266143 96.999997 145.22164)" gradientUnits="userSpaceOnUse" x1="53.87949" x2="60.999012" y1="61.330303" y2="39.683075"><stop offset="0" stop-color="#5fd3bc" stop-opacity="0"/><stop offset=".5" stop-color="#5fd3bc"/><stop offset="1" stop-color="#5fd3bc" stop-opacity="0"/></linearGradient><linearGradient id="w" gradientTransform="matrix(-.72592593 -.72592593 .72592593 -.72592593 49.25749 166.03897)" gradientUnits="userSpaceOnUse" x1="53.469795" x2="60.324341" y1="59.878456" y2="39.70118"><stop offset="0" stop-color="#55d400" stop-opacity="0"/><stop offset=".5" stop-color="#55d400"/><stop offset="1" stop-color="#55d400" stop-opacity="0"/></linearGradient><linearGradient id="x" gradientTransform="matrix(0 -1.0266143 1.0266143 0 .778363 147)" gradientUnits="userSpaceOnUse" x1="61.628212" x2="52.881298" y1="39.683075" y2="60.715324"><stop offset="0" stop-color="#fc0" stop-opacity="0"/><stop offset=".5" stop-color="#fc0"/><stop offset="1" stop-color="#fc0" stop-opacity="0"/></linearGradient><linearGradient id="y" gradientTransform="matrix(.72592593 -.72592593 .72592593 .72592593 -20.03897 99.25749)" gradientUnits="userSpaceOnUse" x1="53.034939" x2="61.802849" y1="61.183025" y2="40.483921"><stop offset="0" stop-color="#f60" stop-opacity="0"/><stop offset=".5" stop-color="#f60"/><stop offset="1" stop-color="#f60" stop-opacity="0"/></linearGradient><filter id="z" color-interpolation-filters="sRGB"><feGaussianBlur stdDeviation=".42020394"/></filter><linearGradient id="A" gradientUnits="userSpaceOnUse" x1="64.072342" x2="46.604744" xlink:href="#a" y1="64.036171" y2="46.568573"/><linearGradient id="B" gradientTransform="matrix(1.0058652 0 0 .994169 100 0)" gradientUnits="userSpaceOnUse" x1="45.447727" x2="45.447727" y1="92.539597" y2="7.01654"><stop offset="0"/><stop offset="1" stop-opacity=".588235"/></linearGradient><linearGradient id="C" gradientTransform="matrix(1.0238095 0 0 1.0119048 -1.142857 -98.071429)" gradientUnits="userSpaceOnUse" x1="32.251034" x2="32.251034" xlink:href="#B" y1="6.131708" y2="90.238609"/><linearGradient id="D" gradientTransform="translate(0 -97)" gradientUnits="userSpaceOnUse" x1="32.251034" x2="32.251034" xlink:href="#B" y1="6.131708" y2="90.238609"/><linearGradient id="E" gradientUnits="userSpaceOnUse" x1="15.999999" x2="20.178572" y1="85.0625" y2="85.0625"><stop offset="0" stop-color="#767676"/><stop offset="1" stop-color="#fdfdfd"/></linearGradient><radialGradient id="F" cx="18.089285" cy="85.0625" gradientTransform="matrix(1 0 0 1.0042736 0 -.363523)" gradientUnits="userSpaceOnUse" r="2.089286"><stop offset="0" stop-color="#ffbf67"/><stop offset="1" stop-color="#c70000"/></radialGradient><g fill="url(#C)"><path d="m12-95.03125c-5.5110903 0-10.03125 4.52016-10.03125 10.03125v71c0 5.5110902 4.5201598 10.03125 10.03125 10.03125h72c5.51109 0 10.03125-4.5201597 10.03125-10.03125v-71c0-5.51109-4.52016-10.03125-10.03125-10.03125z" opacity=".08" transform="scale(1 -1)"/><path d="m12-94.03125c-4.971633 0-9.03125 4.059617-9.03125 9.03125v71c0 4.9716329 4.0596171 9.03125 9.03125 9.03125h72c4.971633 0 9.03125-4.059617 9.03125-9.03125v-71c0-4.971633-4.059617-9.03125-9.03125-9.03125z" opacity=".1" transform="scale(1 -1)"/><path d="m12-93c-4.4091333 0-8 3.590867-8 8v71c0 4.4091333 3.5908667 8 8 8h72c4.409133 0 8-3.5908667 8-8v-71c0-4.409133-3.590867-8-8-8z" opacity=".2" transform="scale(1 -1)"/><rect height="85" opacity=".3" rx="7" transform="scale(1 -1)" width="86" x="5" y="-92"/></g><rect fill="url(#D)" height="84" opacity=".45" rx="6" transform="scale(1 -1)" width="84" x="6" y="-91"/><g><rect fill="url(#d)" height="84" rx="6" width="84" x="6" y="6"/><path d="m12 6c-3.324 0-6 2.676-6 6v2 68 2c0 .334721.04135.6507.09375.96875.0487.295596.09704.596915.1875.875.00988.03038.020892.0636.03125.09375.098865.287771.2348802.547452.375.8125.1445918.273507.3156161.535615.5.78125s.3737765.473472.59375.6875c.439947.428056.94291.814526 1.5 1.09375.278545.139612.5734731.246947.875.34375-.2562018-.100222-.4867109-.236272-.71875-.375-.00741-.0044-.023866.0045-.03125 0-.031933-.0193-.062293-.04251-.09375-.0625-.120395-.0767-.2310226-.163513-.34375-.25-.1061728-.0808-.2132809-.161112-.3125-.25-.1779299-.161433-.3474596-.345388-.5-.53125-.1075789-.130255-.2183939-.265285-.3125-.40625-.025089-.03838-.038446-.08587-.0625-.125-.064763-.103032-.1302275-.204517-.1875-.3125-.1010083-.194706-.2056748-.415701-.28125-.625-.00796-.02181-.023589-.04055-.03125-.0625-.0318251-.09195-.0358045-.186831-.0625-.28125-.0303323-.106618-.0703894-.203031-.09375-.3125-.0728786-.341512-.125-.698205-.125-1.0625v-2-68-2c0-2.781848 2.2181517-5 5-5h2 68 2c2.781848 0 5 2.218152 5 5v2 68 2c0 .364295-.05212.720988-.125 1.0625-.04415.206893-.08838.397658-.15625.59375-.0077.02195-.0233.04069-.03125.0625-.06274.173739-.138383.367449-.21875.53125-.04158.0828-.07904.169954-.125.25-.0546.09721-.126774.18835-.1875.28125-.09411.140965-.204921.275995-.3125.40625-.143174.17445-.303141.346998-.46875.5-.01117.0102-.01998.02115-.03125.03125-.138386.125556-.285091.234436-.4375.34375-.102571.07315-.204318.153364-.3125.21875-.0074.0045-.02384-.0044-.03125 0-.232039.138728-.462548.274778-.71875.375.301527-.0968.596455-.204138.875-.34375.55709-.279224 1.060053-.665694 1.5-1.09375.219973-.214028.409366-.441865.59375-.6875s.355408-.507743.5-.78125c.14012-.265048.276135-.524729.375-.8125.01041-.03078.02133-.06274.03125-.09375.09046-.278085.1388-.579404.1875-.875.0524-.31805.09375-.634029.09375-.96875v-2-68-2c0-3.324-2.676-6-6-6z" fill="url(#b)" opacity=".25"/><path d="m12 90c-3.324 0-6-2.676-6-6v-2-68-2c0-.334721.04135-.6507.09375-.96875.0487-.295596.09704-.596915.1875-.875.00988-.03038.020892-.0636.03125-.09375.098865-.287771.2348802-.547452.375-.8125.1445918-.273507.3156161-.535615.5-.78125s.3737765-.473472.59375-.6875c.439947-.428056.94291-.814526 1.5-1.09375.278545-.139612.5734731-.246947.875-.34375-.2562018.100222-.4867109.236272-.71875.375-.00741.0044-.023866-.0045-.03125 0-.031933.0193-.062293.04251-.09375.0625-.120395.0767-.2310226.163513-.34375.25-.1061728.0808-.2132809.161112-.3125.25-.1779299.161433-.3474596.345388-.5.53125-.1075789.130255-.2183939.265285-.3125.40625-.025089.03838-.038446.08587-.0625.125-.064763.103032-.1302275.204517-.1875.3125-.1010083.194706-.2056748.415701-.28125.625-.00796.02181-.023589.04055-.03125.0625-.0318251.09195-.0358045.186831-.0625.28125-.0303323.106618-.0703894.203031-.09375.3125-.0728786.341512-.125.698205-.125 1.0625v2 68 2c0 2.781848 2.2181517 5 5 5h2 68 2c2.781848 0 5-2.218152 5-5v-2-68-2c0-.364295-.05212-.720988-.125-1.0625-.04415-.206893-.08838-.397658-.15625-.59375-.0077-.02195-.0233-.04069-.03125-.0625-.06274-.173739-.138383-.367449-.21875-.53125-.04158-.0828-.07904-.169954-.125-.25-.0546-.09721-.126774-.18835-.1875-.28125-.09411-.140965-.204921-.275995-.3125-.40625-.143174-.17445-.303141-.346998-.46875-.5-.01117-.0102-.01998-.02115-.03125-.03125-.138386-.125556-.285091-.234436-.4375-.34375-.102571-.07315-.204318-.153364-.3125-.21875-.0074-.0045-.02384.0044-.03125 0-.232039-.138728-.462548-.274778-.71875-.375.301527.0968.596455.204138.875.34375.55709.279224 1.060053.665694 1.5 1.09375.219973.214028.409366.441865.59375.6875s.355408.507743.5.78125c.14012.265048.276135.524729.375.8125.01041.03078.02133.06274.03125.09375.09046.278085.1388.579404.1875.875.0524.31805.09375.634029.09375.96875v2 68 2c0 3.324-2.676 6-6 6z" fill="url(#c)" opacity=".15"/></g><path d="m76.771595 44.48222a30.304577 30.304577 0 1 1 -60.609154 0 30.304577 30.304577 0 1 1 60.609154 0z" fill="url(#e)" transform="matrix(0 1.1879394 -1.1879394 0 100.84218 -7.200003)"/><path d="m76.771595 44.48222a30.304577 30.304577 0 1 1 -60.609154 0 30.304577 30.304577 0 1 1 60.609154 0z" fill="url(#f)" transform="matrix(.79333332 .79333332 -.79333332 .79333332 46.425393 -24.15306)"/><path d="m76.771595 44.48222a30.304577 30.304577 0 1 1 -60.609154 0 30.304577 30.304577 0 1 1 60.609154 0z" fill="none" stroke="#000" stroke-width=".448957" transform="matrix(0 1.1136932 -1.1136932 0 97.53954 -3.75)"/><path d="m76.771595 44.48222a30.304577 30.304577 0 1 1 -60.609154 0 30.304577 30.304577 0 1 1 60.609154 0z" fill="url(#g)" transform="matrix(0 .92395284 -.92395284 0 89.099473 5.066666)"/><g fill="none" opacity=".2" stroke="#000" transform="matrix(.92592592 0 0 .92592592 3.555556 3.555556)"><path d="m76.771595 44.48222a30.304577 30.304577 0 1 1 -60.609154 0 30.304577 30.304577 0 1 1 60.609154 0z" stroke-width=".611756" transform="matrix(0 .88270495 -.88270495 0 87.264675 6.983333)"/><path d="m76.771595 44.48222a30.304577 30.304577 0 1 1 -60.609154 0 30.304577 30.304577 0 1 1 60.609154 0z" stroke-width=".661191" transform="matrix(0 .81670832 -.81670832 0 84.328998 10.05)"/><path d="m76.771595 44.48222a30.304577 30.304577 0 1 1 -60.609154 0 30.304577 30.304577 0 1 1 60.609154 0z" stroke-width=".635514" transform="matrix(0 .84970663 -.84970663 0 85.796836 8.516667)"/><path d="m76.771595 44.48222a30.304577 30.304577 0 1 1 -60.609154 0 30.304577 30.304577 0 1 1 60.609154 0z" stroke-width=".68903" transform="matrix(0 .78371 -.78371 0 82.861159 11.583334)"/></g><path d="m48 20c-7.16533 0-14.332595 2.731639-19.799557 8.19879-10.933924 10.934302-10.933924 28.666181 0 39.600483 10.933924 10.934303 28.66519 10.934303 39.599114 0 10.933924-10.934302 10.933924-28.666181 0-39.600483-5.466962-5.467151-12.634227-8.19879-19.799557-8.19879zm0 2.592503c6.501873 0 12.9917 2.492512 17.952462 7.453446 9.921524 9.921866 9.921524 25.9843 0 35.906166-9.921523 9.921867-25.983401 9.921867-35.904924 0-9.921524-9.921866-9.921524-25.9843 0-35.906166 4.960762-4.960934 11.450589-7.453446 17.952462-7.453446z" fill="url(#h)" opacity=".6"/><path d="m76.771595 44.48222a30.304577 30.304577 0 1 1 -60.609154 0 30.304577 30.304577 0 1 1 60.609154 0z" fill="url(#i)" stroke="#1a1a1a" stroke-width="1.540648" transform="matrix(0 .64907743 -.64907743 0 76.872405 17.839307)"/><path d="m20.178571 85.0625a2.0892856 2.0982144 0 1 1 -4.178572 0 2.0892856 2.0982144 0 1 1 4.178572 0z" fill="url(#E)" opacity=".402597" transform="matrix(0 1.6709402 1.6638297 0 -126.03844 -14.717185)"/><path d="m20.178571 85.0625a2.0892856 2.0982144 0 1 1 -4.178572 0 2.0892856 2.0982144 0 1 1 4.178572 0z" fill="url(#F)" stroke="#000" stroke-linecap="square" stroke-opacity=".531818" stroke-width=".8405" transform="matrix(1.1923077 0 0 1.1872339 -6.076928 -85.480158)"/><g fill="#b3b3b3" opacity=".709957" transform="matrix(-.5 .8660254 -.8660254 -.5 113.57328 30.437809)"><path d="m45.682364 77.430433 2.189583.08937-.01139.279065-1.7628 2.097825 1.531928.06253-.01243.304434-1.955403-.07981.01107-.271258 1.763118-2.105631-1.766108-.07208.01243-.304434"/><path d="m42.472517 78.425885c.02879-.212908.08593-.402272.171412-.568093.0842-.165997.19274-.303081.325617-.411252.132881-.108172.287729-.184466.464543-.228884.176819-.04442.37168-.05223.584585-.02345.224521.03036.416587.0918.5762.184334.159441.09382.286829.210906.382165.351247.09516.141631.159443.302738.19284.483321.0334.180581.03623.373454.0085.57862-.02879.212905-.08446.401153-.167018.564745-.08256.163589-.189371.297621-.320437.402098-.131239.105763-.285092.179564-.461561.221404-.177931.04295-.375931.04968-.594001.0202-.216775-.02931-.404587-.08821-.563437-.176695-.160134-.08866-.288778-.201318-.385932-.33796-.09844-.136822-.165735-.295051-.20189-.47469-.03615-.179643-.04001-.374626-.01157-.58495m.377425.05103c-.02215.163872-.02101.315785.0034.455739.02315.139777.06956.262991.139229.369644.06838.106475.159731.193719.274042.261734.114316.06801.250829.112747.409539.134208.162585.02198.308657.01545.438217-.01959.129562-.03504.242088-.09472.337579-.179039.0942-.0845.171021-.19105.230455-.319661.05815-.128789.0983-.275119.120452-.438991.02216-.163875.02184-.316991-.000962-.459349-.02426-.141244-.07032-.267039-.138182-.377386-.06932-.109232-.160878-.19979-.274669-.271674-.115254-.07077-.252238-.116881-.410951-.13834-.170324-.02303-.320529-.01509-.450615.02382-.131372.03874-.243045.101816-.335017.18924-.09343.08854-.168106.198668-.224021.330386-.0572.131541-.09671.277959-.118517.439253"/><path d="m39.301436 77.678216c.05112-.208676.127935-.390946.230457-.546811.101263-.156174.223674-.281027.367232-.374559.143564-.09353.305604-.153043.48612-.178537.180521-.02549.375118-.01268.583792.03843.220058.0539.404561.135289.553507.244163.148639.110139.262948.240021.342928.389647.07967.150891.126575.317886.140711.500986.01414.183099-.0034.375192-.05268.57628-.05111.208673-.126357.389988-.225734.543945-.09938.153953-.219747.275954-.361115.366003-.141676.09131-.302464.148447-.482364.171414-.181473.02392-.379076.0097-.592812-.04265-.212467-.05205-.393008-.130451-.541622-.235219-.149874-.105082-.2659-.230693-.348077-.376833-.08344-.146453-.133644-.310906-.150623-.493359-.01697-.182456-.000214-.376756.05028-.5829m.369924.09061c-.03934.160615-.05425.311799-.04474.453551.0083.14144.04139.268868.09941.382282.05676.113102.138377.209507.244865.289216.106493.0797.237517.138609.393072.176713.159354.03903.305298.04797.437834.02681.132539-.02116.250739-.06862.354602-.142382.1026-.07407.190243-.171917.262929-.293531.07142-.121927.126805-.263198.166146-.423814.03934-.160617.0552-.312911.04756-.456881-.0092-.143016-.04172-.272973-.09755-.38987-.0574-.115943-.138876-.215664-.244439-.299165-.107134-.08255-.238481-.14287-.39404-.180972-.166938-.04089-.317142-.04886-.45061-.02391-.134729.02464-.25244.07558-.353131.152797-.102262.07818-.18815.1798-.257665.304875-.07077.124764-.125524.26619-.164248.424278"/><path d="m36.93709 75.37391-.630016 1.724455c-.02278.06237-.04663.125747-.07154.190121-.0249.06437-.04841.123018-.07052.175938-.02523.06148-.05041.120902-.07552.178268.03991-.05612.08021-.111404.120894-.165851.03512-.04678.0734-.09656.114863-.14934.03979-.052.07758-.0985.113345-.139497l1.311189-1.517182.245826.08981.03352 2.00846c.000637.02103.000768.04533.000391.07292-.0016.02714-.0024.05595-.0025.08643-.0017.03126-.0028.06274-.0033.09444-.0022.03248-.0041.06435-.0058.09561-.0029.07241-.0073.147052-.01319.223915.0238-.06894.04676-.137485.06889-.205643.01856-.05838.03884-.119587.06085-.183629.02157-.06282.04106-.118081.05849-.165777l.630016-1.724456.31187.113939-.944354 2.584849-.460466-.168228-.03313-2.043669c.000378-.02759.0016-.06319.0037-.106789.0016-.04238.0043-.08576.008-.130144.0037-.04438.008-.08648.01287-.126299.0032-.03904.0065-.06902.01-.08993-.01082.01823-.02782.0439-.05101.07702s-.04827.06762-.07525.103511c-.0282.03545-.05534.06989-.08142.103335-.02608.03345-.04848.06061-.0672.0815l-1.32992 1.545688-.449459-.164206.944354-2.584848.315538.115279"/><path d="m35.016377 74.508208-1.277834 2.43729-.330392-.173219 1.136356-2.167442-1.231619-.645719.141478-.269849z"/><path d="m33.052264 73.45796-1.475751 2.322801-1.762295-1.119644.16339-.257173 1.447423.919595.473414-.745142-1.348511-.856753.161296-.253876 1.34851.856752.514261-.809436-1.515013-.962537.16339-.257173z"/><path d="m29.39996 70.908274-.273684 2.754447c.03706-.052.07321-.103884.108446-.155651.03068-.04377.06386-.08971.09956-.137827.03387-.04788.06478-.08983.09272-.125828l1.120895-1.444173.262296.203582-1.687331 2.173973-.342528-.265853.270922-2.776371c-.03603.0528-.07207.105595-.108102.158391-.03147.0448-.06574.0932-.102804.145196-.03786.05303-.07475.102686-.11068.148973l-1.106525 1.425657-.265382-.205977 1.687331-2.173973.354871.275434"/><path d="m26.456345 69.279934c.07932-.08449.169006-.146739.269069-.186749.09912-.0409.207358-.05537.324723-.04342.116476.0129.24074.05365.372792.122251.130213.06866.266519.169826.408917.303501.249675.23438.403294.46074.460857.67908.05756.218341.0278.427927-.08929.628758l-.312901-.194615c.03572-.06469.05987-.131317.07244-.199881.01257-.06856.01031-.140343-.0068-.215339-.01895-.07494-.05505-.153477-.108314-.235621-.05326-.08214-.128304-.168665-.225137-.259566-.08069-.07575-.160978-.138615-.240858-.188599-.08077-.04903-.158729-.08203-.233882-.09901-.07515-.01697-.146958-.01562-.215426.004-.07031.01972-.134868.06091-.193687.12357-.06149.06551-.09621.132926-.10415.202264-.0089.06845.0012.141361.0304.218739.02916.07738.07277.160287.130836.248727.05807.08844.122864.185879.194392.292317.04443.06492.08843.131236.132026.198947.04175.06777.07938.136128.112875.205079.03166.06901.05735.138666.07707.208973.01973.07031.02838.140042.02595.209207-.0033.07011-.01909.139239-.04734.207378-.02914.06909-.0749.136856-.137279.20331-.08912.09493-.184298.158276-.285546.190033-.103085.03181-.209301.03747-.318649.01698-.109344-.0205-.219891-.06444-.331643-.131842-.111746-.0674-.221732-.151897-.329959-.25349-.124359-.116745-.221327-.226524-.290903-.329339-.07046-.101866-.117802-.200778-.142025-.296735-.02421-.09596-.02718-.189824-.0089-.281597.01645-.09172.0494-.185796.09886-.282239l.311825.204319c-.03216.06089-.05324.122356-.06326.184391-.01096.06114-.0081.123692.0087.187645.01676.06395.04833.130199.09471.198743.04544.06765.107549.138462.186341.21243.09304.08733.179377.152312.259021.194934.07781.04268.14954.06805.215195.07611.06471.0072.123878-.000692.177502-.02357.05179-.02282.09862-.05654.140506-.101162.05615-.05981.08777-.122988.09488-.189536.0053-.06649-.0057-.136614-.0329-.210369-.0272-.07376-.06648-.150814-.117845-.231175-.05136-.08036-.106992-.164733-.1669-.253115-.04834-.07217-.09576-.144362-.142256-.216586-.04834-.07217-.09071-.144982-.127115-.218447-.03729-.07251-.06723-.145262-.0898-.218243-.02352-.07387-.0346-.147675-.03325-.221412.0014-.07374.01747-.147018.04832-.219845.02991-.07372.07918-.147125.147798-.220224"/><path d="m18.630854 41.246205.610015.126766-.06756.325086-.610014-.126766-.263863 1.269749-.267718-.05563-1.560346-1.610929.07511-.36142 1.812833.37672.07868-.37863.271543.05643-.07868.37863m-1.76374-.02739c.0058.0039.01727.0129.03427.02707.01573.01391.03374.02962.05404.04714s.0411.03581.06241.05486c.0203.01752.03704.03297.05021.04634l.873873.901738c.0089.0085.02027.02084.0342.03703.01419.01492.02888.03061.04408.04706.01393.01619.02785.03239.04177.04858s.02455.02904.03189.03854l.197897-.952311-1.424642-.296051"/><path d="m19.399774 40.683288-.238326-.06876c-.127964-.106035-.234444-.220778-.319439-.344229-.08588-.125063-.159246-.251257-.220086-.378581-.06209-.127684-.117659-.252132-.166711-.373345-.04869-.122462-.100265-.234917-.154731-.337365-.05446-.102444-.117193-.190335-.188189-.263672-.07063-.07458-.159744-.127399-.267336-.158443-.07506-.02166-.143991-.02935-.206787-.02307-.06404.0059-.121594.02455-.172651.05589-.05105.03135-.09463.07434-.130719.128974-.03698.05303-.06594.115819-.08687.188378-.01949.06756-.02852.13407-.02708.199533.0018.06421.01479.124881.03897.181997.02418.05712.06008.108811.107717.155078.04675.04466.105762.08201.177045.112064l-.131524.336087c-.09183-.03869-.173699-.09077-.245611-.15624-.07191-.06547-.12867-.143506-.17029-.234115-.04287-.09097-.06782-.192355-.07487-.304159-.0067-.113052.0093-.236511.04791-.370375.0379-.131359.08729-.243821.148161-.337385.06088-.09356.13207-.166528.213583-.218903.08188-.05362.173268-.0862.27417-.09775.100906-.01154.210158-.000348.327755.03358.08883.02563.16858.06626.239262.121883.07105.05438.135087.118933.192126.193661.0574.07348.109775.154997.157118.244545.04734.08955.09253.181869.135571.276951.04179.09472.08339.190072.124816.286044.04018.09561.08224.187029.126188.274244.04431.08597.09186.165412.142647.238337.04953.07256.105625.134147.168272.184746l.397946-1.379288.287117.08284-.505148 1.750851"/><path d="m20.097629 38.396989-.403551-.141786.126248-.359327.403551.141787z"/><path d="m20.293152 35.445622c.127403.05309.235975.1209.325717.203432.08974.08254.157297.17769.202668.285461.04417.107275.06375.226165.05874.356672-.0045.129308-.03757.267879-.09917.415713-.05559.133413-.119797.243488-.192615.330225-.07232.08554-.149793.151289-.232426.19726-.08384.04547-.170925.07336-.26127.08368-.08984.0091-.180338.0046-.271484-.01368l.09886-.343898c.05359.0068.108224.0077.163913.0027.05449-.0055.108273-.02118.161359-.04702.05238-.02754.101914-.06685.14859-.117936.04597-.05278.08699-.122443.123051-.208981.03506-.08413.05424-.165713.05755-.244741.0021-.07953-.01207-.153845-.04251-.222957-.02995-.07031-.07607-.133965-.138367-.190959-.0623-.05699-.140923-.10527-.235874-.144837-.07812-.03255-.154897-.04973-.230318-.05154-.07662-.0023-.148136.01022-.214544.03755-.06761.02684-.128907.06901-.183897.126499-.05449.05629-.09976.127704-.135822.21424-.02254.05409-.03851.10597-.04793.155648-.0094.04968-.01397.09786-.01367.144531.000802.04547.0059.08919.01517.13116.0086.04027.01918.07923.0317.116888l-.132218.317305-1.331266-.654175.601743-1.444098.275839.11494-.47854 1.148427.785599.384482c-.02043-.07622-.02824-.164112-.02343-.263673.0036-.100058.0302-.209583.07979-.328574.05259-.126199.119146-.231766.199676-.316702.08053-.08493.171027-.148081.271488-.189447.09926-.04186.205581-.06174.318962-.05964s.228365.02745.34495.07603"/><path d="m21.868617 34.296638-1.182497-.629985c-.09078-.04836-.169691-.08303-.23672-.103985-.06703-.02095-.126275-.02744-.177743-.01945-.052.0062-.09711.0272-.135312.06291-.03935.0351-.07587.08425-.109539.147452-.0349.06551-.05321.131728-.05494.198669-.0029.06633.01028.131622.0395.19587.02867.06249.0737.123359.135077.182614.06084.05749.137803.111038.230885.160627l1.080796.575804-.164385.308552-1.466916-.781513c-.03907-.02081-.08017-.04197-.123305-.06348-.04367-.02326-.08477-.04442-.123305-.06348-.03968-.01966-.07362-.03627-.101815-.04982-.02819-.01354-.04662-.02188-.05527-.02502l.156119-.293038c.0064.0019.02248.009.04838.02135.02589.01232.05581.02678.08975.04339.0334.01485.06765.03088.102733.04809.03394.01661.0624.03103.08538.04328l.0028-.0052c-.03932-.05635-.07224-.112252-.09877-.167695-.02652-.05544-.0434-.11238-.05063-.170819-.0078-.0602-.005-.122162.0083-.185895.01276-.06549.03874-.135011.07792-.20856.07531-.141345.162847-.237815.262623-.289409.100391-.05274.220638-.06244.360741-.02911l.0028-.0052c-.03932-.05635-.07163-.1134-.09693-.171142-.0253-.05774-.04065-.11755-.04604-.179438-.0065-.06249-.0025-.126757.01198-.19279.01337-.06664.03965-.136733.07884-.210283.0502-.09423.106006-.168511.167409-.222846.06202-.05548.131087-.09097.207214-.106481.07613-.0155.161645-.01125.256554.01275.09376.0234.198099.06571.313016.126928l1.242829.662128-.163466.306829-1.182497-.629986c-.09078-.04836-.169691-.08303-.236719-.103984-.06703-.02095-.126276-.02744-.177743-.01945-.052.0062-.09711.0272-.135312.06291-.03935.0351-.07587.08425-.109539.147452-.0349.06551-.05379.131423-.05667.197751-.004.06572.008.130399.03605.194033.02867.06249.0737.123361.135077.182614.06199.05811.140676.112569.236057.163382l1.080795.575804-.163465.306828"/><path d="m23.584114 31.437572-1.103844-.759414c-.08475-.0583-.159236-.101646-.223471-.130035-.06424-.02839-.122372-.04151-.174413-.03939-.05237.000321-.09956.01607-.141546.04723-.04306.03043-.08489.07515-.12548.134149-.04207.06115-.06774.12488-.07701.191199-.01035.06558-.0046.131942.01714.199075.02144.06533.05931.130889.113605.196692.05396.06399.124392.12588.211282.185658l1.008907.6941-.198156.288029-1.369346-.942072c-.03647-.02509-.07492-.05075-.115353-.07699-.04076-.02804-.07921-.05371-.115353-.07699-.03721-.02402-.06906-.04435-.09554-.06099s-.04385-.027-.0521-.0311l.188193-.273547c.0061.0026.02132.01151.04566.02667s.05243.03291.08428.05324c.03151.01852.06373.03831.09665.05938.03185.02033.0585.03788.07995.05263l.0033-.0048c-.0327-.06043-.05911-.119687-.07921-.17777-.0201-.05808-.03044-.11656-.03103-.175441-.000919-.06069.0088-.121945.02923-.18377.02007-.06363.05373-.129777.100956-.198434.09078-.131944.188646-.217918.293608-.257922.105701-.04107.226275-.03714.361722.01178l.0033-.0048c-.03271-.06043-.05837-.120759-.077-.180988-.01862-.06022-.02712-.121386-.02549-.183486.000557-.06283.01178-.126235.03366-.190207.02081-.0647.05483-.131385.102063-.200043.06052-.08796.124348-.15547.19149-.202529.06788-.04812.140517-.0756.217907-.08242.07739-.0068.161882.0071.253476.04163.09052.03383.189418.08765.296692.161443l1.160206.798124-.197049.286421-1.103844-.759414c-.08475-.0583-.159237-.101645-.223471-.130036-.06424-.02838-.122373-.04151-.174413-.03939-.05237.000322-.09956.01607-.141546.04723-.04306.03043-.08489.07515-.125481.134148-.04207.06115-.06827.124513-.07862.190092-.01142.06485-.0068.130467.01392.196861.02144.06533.05931.13089.113605.196692.05504.06473.127072.127726.216109.188979l1.008907.6941-.197049.28642"/><path d="m24.787912 28.352718-.23516-.205805.643142-.734876.235161.205805z"/><path d="m27.872659 25.20214c.09453.100568.165856.206864.213976.318889.04812.112029.07083.226493.06814.343395-.0036.115955-.03437.23245-.09233.349485-.05702.116144-.143878.229062-.260572.338753-.105311.09899-.208932.173163-.310863.222515-.100984.04846-.19858.07676-.292789.0849-.0951.0072-.185981-.003-.272638-.03054-.08571-.02844-.166417-.06963-.242126-.123555l.230914-.273348c.04611.02814.09559.05132.148458.06953.05197.01727.107462.02497.166474.02311.05907-.0037.120346-.01931.183836-.04682.06355-.02935.129474-.07613.197784-.140346.06641-.06243.117291-.129016.152642-.199774.03446-.0717.05193-.145316.05243-.220836.0014-.07641-.0146-.153362-.04813-.230856-.03353-.07749-.08552-.153712-.15597-.228665-.05797-.06167-.120992-.108752-.189073-.141257-.06897-.03345-.13935-.05129-.211131-.05351-.07267-.0032-.145858.01023-.219556.04019-.07275.02907-.143278.07571-.211587.139918-.04269.04013-.0785.08094-.107417.122415-.02892.04148-.05279.08357-.07161.126285-.01787.04182-.03115.08378-.03982.125888-.0086.04027-.01491.08014-.0189.119626l-.250467.235436-.947096-1.141588 1.139909-1.071504.204669.217736-.906519.85212.559531.672247c.01254-.07791.04138-.161302.0865-.250181.04423-.08982.113309-.178881.207234-.267172.09962-.09364.203542-.162733.311774-.207287.108231-.04455.216643-.06515.325236-.06179.107699.0024.212847.02777.315444.07608.102595.04831.197145.118481.283651.210507"/><path d="m29.355132 23.367427c.166083.20563.286234.394797.360453.567502.07441.170877.112865.327279.115359.469207.0027.140099-.02642.265704-.08731.376815-.06089.111113-.143002.208395-.246321.291845-.104334.08427-.216712.144073-.337135.179409-.120424.03534-.248834.03695-.38523.0049-.135384-.03292-.278774-.103728-.430171-.212425-.151201-.110527-.310252-.269111-.477155-.475752-.174265-.215756-.299519-.40917-.375764-.580242-.07605-.1729-.114598-.328386-.115652-.466461-.001-.138069.03051-.260635.09467-.367698.06335-.108071.148709-.20547.25608-.292196.102308-.08263.21194-.142725.328895-.180285.117152-.03939.243107-.04404.377867-.01397.134761.03008.278657.100479.43169.211198.152214.109712.315454.272446.48972.4882m-.278053.224582c-.137449-.170173-.26171-.303297-.372783-.399373-.111892-.09708-.214588-.1631-.308091-.19805-.09432-.03596-.181395-.04429-.261223-.02501-.07963.01746-.155915.05564-.228847.114541-.07698.06218-.133396.131178-.16924.206991-.03584.07582-.04661.164021-.03232.264612.01449.09876.05743.213052.1288.342862.07056.128802.174149.277782.310779.446942.132541.164098.254347.294183.36542.390256.112087.09526.215699.16137.310838.198342.09533.03514.184141.04459.266424.02834.08146-.01726.159168-.05575.233113-.115476.07192-.05809.124884-.125137.158896-.201148.03319-.07702.04213-.16542.02682-.265196-.01512-.101605-.05745-.217217-.126988-.346836-.06853-.130434-.169065-.277701-.301605-.441799"/><path d="m31.579813 23.488032-.740347-1.116722c-.05684-.08573-.109752-.153761-.158736-.204087-.04899-.05032-.09801-.08421-.147082-.101676-.0487-.01926-.09835-.02228-.148945-.009-.05131.01215-.106812.03801-.166501.07758-.06186.04101-.109475.09055-.142849.148601-.03409.05697-.05358.120664-.05845.191071-.0045.06861.0061.143568.03193.224888.02616.07952.06838.163229.126655.251133l.676673 1.020677-.29139.193181-.918418-1.385321c-.02446-.0369-.05055-.07506-.07825-.1145-.02734-.04124-.05342-.07941-.07825-.1145-.02555-.03618-.0475-.06693-.06585-.09226-.01835-.02532-.03059-.04143-.03671-.04831l.276739-.183468c.0047.0047.01548.01864.03239.04179.01692.02316.03635.05011.0583.08086.02232.02895.04481.05934.06748.09118.02195.03076.04012.05698.05451.07869l.0049-.0032c-.0078-.06827-.01013-.133102-.0071-.194489.003-.06138.01529-.119494.03674-.174333.02181-.05664.05373-.109825.09575-.159556.04238-.05153.0983-.100321.167761-.14637.133486-.08849.256382-.131695.36869-.129604.113392.0014.223774.05005.331146.146026l.0049-.0032c-.0078-.06827-.009-.133821-.0038-.196648.0052-.06282.02018-.122731.04488-.179729.02398-.05808.05807-.112702.10226-.163873.04347-.05225.09993-.1014.16939-.14745.08899-.05899.173414-.09778.253273-.116357.08094-.01929.158582-.01765.232919.0049.07433.02258.14753.06701.219588.133281.07134.06519.142978.152046.214928.260568l.77812 1.173697-.289762.192102-.740347-1.116722c-.05684-.08573-.109752-.153761-.158736-.204087-.04899-.05032-.09801-.08421-.147081-.101676-.0487-.01926-.09835-.02228-.148945-.009-.05131.01215-.106814.03801-.166501.07758-.06186.04101-.109836.09-.143929.146973-.03481.05589-.05502.118494-.06061.187815-.0045.06861.0061.143569.03193.224888.02688.0806.07017.165943.129893.256016l.676672 1.020678-.289761.192101"/><path d="m34.448904 21.789158-.609488-1.193191c-.04679-.0916-.09168-.165173-.134671-.220709-.04299-.05553-.08787-.09474-.134657-.117637-.04622-.02464-.09521-.03325-.14697-.02581-.05236.0063-.110422.0257-.174197.05828-.0661.03376-.119002.0776-.158718.131517-.04031.05276-.06686.113841-.07966.183247-.01223.06766-.01012.143342.0063.227054.01701.08196.0495.169907.09748.263831l.557069 1.09057-.311343.159035-.756085-1.480183c-.02014-.03942-.04174-.08029-.06482-.122605-.02251-.04406-.04411-.08493-.06482-.122605-.0213-.03883-.03963-.07187-.05501-.09911-.01537-.02723-.02572-.04462-.03102-.05214l.295689-.15104c.0041.0052.01328.02027.02747.04519s.03045.0539.04879.08693c.0189.03129.03782.06402.05675.09822.01834.03304.03343.06115.04527.08434l.0052-.0027c-.000009-.06871.005-.133394.01493-.194045.01-.06065.02869-.117002.0562-.169068.02807-.05381.06579-.103054.113156-.147721.04793-.04642.109007-.08858.183219-.126487.142627-.07285.269616-.101897.380968-.08713.112512.01417.21669.07501.312536.182492l.0052-.0027c-.00001-.06871.0061-.133986.01841-.195821.01228-.06183.03391-.119667.06489-.173511.03039-.055.07043-.105423.120114-.151275.04909-.04701.110745-.08947.184959-.127376.09508-.04857.183347-.07757.264794-.08701.0826-.01002.15956.000377.230871.03121.07131.03083.139019.08324.203131.157228.06352.07283.124892.167221.184125.283175l.640584 1.254068-.309603.158147-.609489-1.193191c-.04679-.0916-.09168-.165173-.134671-.220709-.04299-.05553-.08788-.09474-.134657-.117636-.04622-.02464-.09521-.03325-.14697-.02581-.05236.0063-.110423.0257-.174197.05828-.0661.03376-.119299.07702-.159607.129777-.0409.0516-.06805.111522-.08143.179768-.01223.06766-.01012.143343.0063.227055.0176.08312.05098.172806.100147.269048l.557069 1.09057-.309604.158147"/><path d="m42.744275 18.955546-.04478-.295454.693255-.105066-.317246-2.093284-.547647.531421-.04975-.328283.576028-.539672.320559-.04858.367584 2.425428.662358-.100383.04478.295454-1.705138.258421"/><path d="m44.849923 16.947576-.03792-.402515.379181-.03572.03792.402515zm.16027 1.701453-.03791-.402515.379181-.03572.03791.402515z"/><path d="m46.054835 18.552163-.01133-.298614.700668-.02658-.08025-2.115666-.603843.466582-.01259-.331793.632971-.471596.323985-.01229.09298 2.451363.66944-.02539.01133.298613-1.72337.06537"/><path d="m48.342118 18.501344.0076-.427668.3808.0067-.0076.427668-.380799-.0067"/><path d="m50.84888 18.003867-.04578.621362-.331133-.0244.04578-.621362-1.293369-.09529.02009-.272698 1.392697-1.757888.368143.02712-.13605 1.846558.385673.02841-.02038.276594-.385673-.02841m-.203838-1.752136c-.0031.0063-.01053.01881-.02235.03752-.01173.01742-.02495.03733-.03965.05975-.01471.02242-.03011.04544-.04621.06906-.01471.02242-.02783.04104-.03937.05585l-.779521.984446c-.0073.0099-.018.02283-.03223.03875-.01293.01602-.02656.03264-.04088.04987-.01423.01592-.02846.03185-.04269.04777-.01423.01593-.02557.02815-.03404.03666l.970027.07147.106917-1.451144"/><path d="m77.021288 37.280268c-.21155.08812-.411725.134119-.600525.138007-.187603.0034-.359123-.02744-.514564-.09245-.154241-.06552-.291149-.162243-.410726-.290158-.117876-.127218-.213112-.277969-.285709-.452254l-.395782-.950163 2.540378-1.058172.34997.840182c.08161.195922.132067.386482.151381.571681.02101.185899.0052.359625-.04738.521179-.0514.161051-.141462.307175-.270179.438372-.128222.132397-.30051.243656-.516863.333779m-.144194-.346169c.171881-.0716.308258-.15732.409132-.257168.102072-.100351.173648-.211271.21473-.332759.04107-.121491.05386-.251648.03835-.390471-.01431-.139325-.05226-.282909-.113836-.430751l-.203524-.488604-1.98867.828363.235817.566131c.05557.133418.128528.247609.218863.342571.09083.09616.196195.167939.316083.215329.119885.04739.253296.06798.400234.06179.146934-.0062.30454-.04434.472818-.114432"/><path d="m76.885764 38.221869c-.105493.03348-.199569.07495-.28223.124408-.08103.05031-.146718.108039-.197074.1732-.04872.06601-.07985.140094-.09339.222259-.0123.08177-.0027.172297.02882.271585.04608.145204.112078.251989.197982.320352.0863.0696.179046.105738.278252.108406l.0096.320723c-.06255-.0034-.128468-.01524-.197767-.03559-.06767-.01951-.134502-.05362-.20051-.102342-.06477-.04912-.127209-.116729-.187324-.202837-.05848-.08526-.108991-.194913-.15153-.328948-.09453-.297859-.07788-.553139.04997-.76584.128238-.211461.367348-.37273.717332-.483807.188643-.05987.355605-.0869.500887-.0811.146521.0054.273735.03607.381645.09198.107906.05591.197186.132768.267842.23056.07189.0974.127534.208151.166925.332259.05357.168785.07097.318313.05221.448583-.01837.131509-.06513.246755-.140265.345739-.07351.09983-.170886.184695-.292138.2546-.120861.07114-.256997.130742-.408406.178798l-.04468.01418-.456124-1.437167m.603131 1.009371c.206314-.08597.343694-.188998.41214-.309078.06968-.120476.07794-.264486.02477-.43203-.01773-.05585-.04574-.111846-.08405-.167991-.03668-.0553-.08625-.101724-.148708-.139275-.06247-.03755-.139122-.06172-.229972-.0725-.08961-.01118-.196018.000054-.319218.03369l.345047 1.087183"/><path d="m77.456336 41.797791c-.09624.02305-.186892.02469-.271967.0049-.08351-.01882-.159712-.05747-.228616-.115944-.06764-.05878-.127824-.136745-.180556-.233902-.05116-.0962-.09267-.210774-.124523-.343729-.02852-.119029-.0448-.228935-.04887-.32972-.005-.09922.0041-.189766.02731-.27165.02323-.08188.06185-.155405.115865-.220563.05558-.0642.128763-.119217.219538-.165065l.131231.287896c-.103187.05551-.169818.135077-.199892.238685-.02881.103304-.0238.235996.01503.398077.0176.07344.03874.13934.06343.197694.02499.05962.05483.108706.08951.147262.03594.03825.07706.06455.12334.0789.04785.01531.102169.01569.16295.0011.06205-.01487.109207-.04156.141485-.08009.03354-.03883.05739-.08739.07155-.145677.01415-.05829.02178-.127061.02287-.206319.0027-.0783.0054-.164646.0082-.259047.0018-.08746.0063-.174901.01348-.262311.0072-.08741.0244-.169196.05168-.245355.02885-.0752.07071-.14079.125578-.196781.05487-.05599.131057-.09567.22856-.119025.187403-.0449.345783-.01255.475139.09705.130921.110561.227022.293733.288302.549516.0543.226659.05749.416022.0096.568091-.04762.153333-.155187.268811-.3227.346434l-.111703-.298599c.05045-.02414.08976-.05565.11794-.09453.02944-.03919.04976-.08289.06098-.131095.01248-.04851.01663-.101057.01245-.157628-.0026-.05561-.0109-.112539-.02485-.170786-.03701-.154483-.08774-.262834-.152183-.325052-.06445-.06222-.144155-.08195-.239122-.0592-.05572.01335-.09875.03771-.129099.0731-.02878.03635-.05007.08162-.06387.135805-.01223.05515-.01965.119185-.02226.192113-.0013.07262-.0023.152516-.0028.239677-.000886.05779-.0027.117141-.0055.178066-.0015.06062-.0073.120253-.01739.178897-.0085.0596-.02231.116474-.04147.170607-.0176.05509-.04304.105374-.07633.150841-.03329.04546-.07537.085-.12623.11861-.05056.03487-.11256.06111-.186001.0787"/><path d="m79.476583 41.866986.330152-.06208.06496.345508-.330152.06208-.06496-.345509m-2.518371.473514 2.076888-.390504.06496.345508-2.076888.390504z"/><path d="m76.409909 44.121315c-.01605-.120027-.01802-.228141-.0059-.324341.0121-.0962.03698-.18032.07464-.252352.03637-.07186.08342-.132668.141132-.182422.05772-.04976.124086-.08884.199106-.117265l.09718.343668c-.09369.03617-.161082.09707-.20218.182702-.04221.08709-.05469.195167-.03744.324228.01053.07872.03107.148887.06164.210484.03057.0616.07339.1117.128476.150315.05379.03878.121045.06526.20176.07943.08071.01417.176567.01383.287559-.001l.336846-.04504-.000518-.0039c-.05637-.01874-.111659-.04419-.165878-.07635-.05276-.03104-.101558-.07181-.146406-.122301-.04467-.0492-.08346-.108386-.116353-.177552-.0316-.06934-.05362-.150473-.06604-.243395-.01777-.132932-.01111-.250084.02001-.351454.03257-.100254.08933-.186663.170272-.259228.08111-.07127.185592-.129908.313437-.175902.129307-.04488.281077-.07896.455308-.102258.167777-.02243.320589-.02907.458436-.01991.138017.01045.257629.04043.358837.08996.102667.05064.185166.122372.247498.215191.06379.09394.105265.212533.124421.35579.01984.148418.0028.281405-.05109.398962-.05245.118673-.137292.216063-.254541.29217l.000518.0039c.03226-.0043.06849-.0085.108669-.01256.04035-.0028.07804-.0058.113059-.0092.03648-.0023.0678-.0038.09396-.0047.02616-.000871.04134-.000275.04556.0018l.04426.331039c-.01179.00026-.03197.0016-.06053.0042-.02728.0023-.06036.0054-.09925.0093s-.0823.0084-.130223.01347c-.04646.0062-.09486.01268-.145192.01941l-1.600987.214061c-.292966.03917-.522676-.0037-.689131-.128556-.167573-.123414-.271204-.333538-.310893-.630374m1.940999.280395c.145836-.0195.268222-.05229.367157-.09835.100395-.04495.180053-.09764.238973-.158065.05892-.06042.09938-.126264.121379-.197515.02217-.06996.0286-.13979.01928-.209482-.01191-.08905-.03766-.163771-.07726-.224159-.03943-.0591-.09555-.105456-.168353-.139072-.07134-.0325-.160665-.05208-.267963-.05876-.105837-.0056-.231029.0013-.375575.02066-.151.02019-.27683.04687-.377489.08003-.0992.03428-.177653.0763-.23537.126055-.05772.04975-.0959.108062-.114547.174926-.01865.06686-.0221.144174-.01037.231936.0093.06969.03322.135463.0717.197316.03866.06314.09379.116855.165392.161143.0716.04428.160542.07574.266814.09438.106271.01863.23168.01828.376228-.001"/><path d="m77.478883 46.76703 1.337606-.07741c.102691-.0059.188034-.01871.256028-.03829.06806-.01829.12192-.04553.161563-.08174.04094-.03628.06824-.08286.08191-.139731.01504-.05565.02019-.124422.01545-.206315-.0048-.0832-.02413-.157725-.05794-.223589-.03244-.06464-.07799-.119392-.136671-.164253-.05731-.04364-.127658-.07609-.211055-.09734-.0821-.02134-.175796-.02895-.281087-.02286l-1.222564.07075-.02031-.350976 1.659333-.09603c.0442-.0026.0903-.0059.138327-.01.0494-.0029.0955-.0062.138327-.01.04412-.0039.08174-.0073.112867-.01044.03112-.0031.05119-.0056.06022-.0074l.01918.331477c-.0064.0017-.0239.004-.05242.0069-.02852.003-.0616.0062-.09922.0097-.03625.0047-.07383.0088-.112753.01239-.03762.0035-.06943.006-.09543.0075l.000339.0058c.06305.03026.12044.06411.17217.101551.05173.03744.09603.08183.132916.133168.03818.05126.06836.110818.09055.178661.02348.06777.03786.147145.04313.23814.0068.116991-.0017.218561-.02541.304711s-.06388.158251-.120517.216309c-.05664.05806-.131688.102178-.22515.13237-.09209.03141-.20313.05088-.333119.05841l-1.405851.08136-.02043-.352926"/><path d="m78.487682 47.938431c-.110662-.0018-.213045.0076-.307147.02813-.09282.02191-.17347.05574-.241943.101487-.06719.04707-.12028.107402-.159261.180988-.03768.07361-.05738.162485-.0591.266639-.0025.152321.02607.274555.08575.3667.05966.09345.136094.157216.229294.191313l-.09298.3071c-.05822-.0231-.116941-.05533-.176161-.09667-.05794-.04003-.110448-.09364-.157522-.160827-.04577-.06717-.08345-.15114-.113043-.251901-.02831-.09944-.0413-.219463-.03898-.360068.0052-.312458.102183-.549169.291065-.710134.18886-.159663.466859-.236462.833997-.230398.197888.0033.364774.03077.500659.0825.137183.05175.248028.1213.332537.208645.0845.08734.144689.188613.180554.303805.03716.115212.05467.237914.05252.368105-.0029.177058-.03401.324351-.09325.44188-.05926.118827-.140261.213205-.242991.283135-.101452.07125-.220775.120717-.357968.148405-.137218.02898-.285242.04217-.444073.03955l-.04687-.000774.0249-1.507607m.250592 1.148827c.222947-.01585.38597-.06981.489069-.161867.104397-.09204.158048-.225938.160953-.401694.000965-.05859-.0078-.120588-.02623-.186005-.01717-.06409-.04939-.12388-.09666-.179355-.04727-.05548-.112252-.10278-.194949-.141911-.0814-.03911-.185846-.06232-.313346-.06964l-.01884 1.14047"/><path d="m77.670156 51.238318c-.128928-.07716-.217647-.172223-.266159-.285179-.04863-.111663-.06572-.246591-.05125-.404785.0243-.265819.131669-.453438.322108-.562857.19032-.108124.467015-.14559.830085-.1124.733918.06709 1.077288.358674 1.030113.874752-.01458.15949-.05591.289732-.123975.390727-.06807.100992-.168607.178097-.301607.231316l-.000355.0039c.01297.0012.03312.0024.06047.0036.02853.0026.05776.0046.0877.0061.03112.0028.06029.0055.08753.008.02723.0025.04668.0043.05835.0053l.814961.0745-.032.350103-2.452664-.224209c-.05057-.0046-.0992-.0091-.145876-.01333-.0468-.003-.08971-.0056-.128726-.0078-.03902-.0023-.07285-.004-.101497-.0054-.02735-.0012-.04692-.0017-.05871-.0014l.03058-.334542c.0132-.0014.03159-.0023.05517-.0028.02475.000954.05281.0016.08417.0018.03124.0015.06377.0032.09761.005.03513.0019.06955.0044.103264.0075l.000711-.0078m.812846-.996547c-.145229-.01328-.270539-.01558-.375932-.0069-.105395.0087-.193642.03002-.264743.06406-.06981.03415-.123113.08093-.159923.140321-.03681.0594-.0593.133828-.06748.2233-.0084.09206-.000913.174468.02251.247216.0233.07404.06589.137427.127751.190154.06304.05414.147248.09845.25262.132924.105371.03447.235858.05882.39146.07305.149117.01363.27602.01281.380711-.0025.105985-.01516.192939-.04382.260864-.08599.06792-.04217.118698-.09702.152331-.16455.03481-.06612.05636-.144559.06466-.235325.0078-.08558-.000334-.160856-.02447-.225821-.02414-.06497-.06737-.121221-.129707-.168759-.06234-.04754-.145723-.08654-.250152-.117008-.103254-.02905-.230088-.05045-.380501-.0642"/><path d="m78.791939 53.959052-1.825621-.342233.06478-.345543 1.825621.342232.0547-.291792.251479.04714-.0547.291792.234202.0439c.07551.01415.143934.03427.205287.06034.06263.02631.11414.06246.154538.108456.04143.04751.06947.106418.08411.176727.01592.07055.01416.157651-.0053.261315-.0077.04095-.01752.08282-.02951.12562-.01224.04407-.02532.08203-.03923.113862l-.262997-.0493c.0079-.02104.01591-.04603.02399-.07499.0091-.02744.01583-.05267.02015-.07571.0096-.05119.01047-.09475.0026-.130657-.0081-.03464-.02376-.06407-.04704-.0883-.02224-.02272-.05183-.04151-.08879-.05639-.0372-.0136-.08075-.02507-.130659-.03443l-.18621-.03491-.07593.405054-.251478-.04714.07593-.405054"/><path d="m77.441728 56.26852c-.358999-.08869-.606835-.233741-.743508-.435155-.136672-.201419-.167847-.452553-.09353-.753403.03529-.142842.08832-.265206.159089-.367091.07077-.101886.160081-.181086.267928-.237599.107534-.05525.232818-.08734.375852-.09626.143985-.0073.30636.0113.487124.05596.707885.174875.9861.568852.834647 1.181933-.03935.159273-.09535.290961-.168011.395064-.07297.105364-.162759.183776-.269355.235235-.106911.05272-.231103.08038-.372574.08299-.141473.0026-.300695-.01795-.477666-.06167m.08853-.358367c.159274.03934.293861.05918.403762.05951.109587.0016.201284-.01399.275092-.04672.07349-.03147.13068-.07837.171562-.140695.04214-.06202.07383-.136003.09507-.221959.02155-.08722.02779-.169507.01873-.246852-.0081-.07577-.03767-.146113-.0887-.211025-.04976-.0646-.123192-.122978-.220288-.17513-.09741-.05089-.223855-.09554-.379336-.133948-.159276-.03935-.294807-.05808-.406595-.05618-.110526.0022-.202691.01967-.276498.05241-.07412.034-.131938.08074-.173458.140226-.04183.06075-.07243.130312-.09179.208686-.02155.08722-.02906.169192-.02253.245915.0078.07703.03657.14785.08633.212453.04976.0646.123822.123132.222183.175598.09836.05246.227178.09837.386453.137718"/><path d="m76.277382 56.441011 1.547231.483758c.04225.01321.08532.02599.129208.03835.04474.01399.08781.02677.129208.03835.0414.01158.08031.02238.116742.03241.03643.01002.06913.01888.0981.02658l-.09908.316902c-.02897-.0077-.0623-.01675-.09997-.02716-.03682-.0088-.07468-.01858-.113597-.02938-.0393-.0096-.07697-.01998-.113013-.03124-.03519-.0096-.06521-.01834-.09006-.02611l-.0023.0075c.06967.0477.128383.09334.176149.13693.04862.04521.08531.09147.110085.138783.02601.0477.03995.09912.04181.154271.0031.05554-.0064.118724-.02857.189563-.0085.02734-.01919.05266-.03194.07596-.0115.02369-.02125.04178-.02925.05429l-.307582-.09617c.01321-.02043.02572-.04517.03753-.07421.01305-.02866.02541-.06163.03707-.09891.02409-.07705.02728-.148358.0096-.213917-.01809-.06432-.05276-.123591-.104021-.177815-.0504-.0526-.115956-.100376-.196654-.143341-.07946-.04258-.169517-.0796-.270179-.111077l-1.051371-.328722.104911-.335544"/><path d="m77.57706 60.103407-.941955-.400182-.600272 1.412932-.284025-.120665.600273-1.412932-1.026443-.436076.145868-.343346 2.532851 1.076061-.764469 1.799421-.28043-.119138z"/><path d="m73.672921 62.572089.858474.09708.58473-1.109222-.564288-.655144.180337-.342096 1.910706 2.27677-.197642.374923-2.949922-.305396.177605-.336913m2.136088.245098c.05579.0059.111848.01259.168183.02021.05572.0088.105932.01684.150624.02421.04584.008.08386.01403.114059.01818.03074.0059.0493.0098.05566.01168-.0045-.0053-.01794-.01903-.04018-.04105-.02224-.02203-.0493-.05028-.08118-.08474-.03248-.03332-.06779-.07106-.105902-.113231-.03873-.04102-.07657-.08232-.113535-.123879l-.63601-.732695-.479988.91053.968262.110794"/><path d="m73.310171 63.196101 2.308254 1.498402-1.136829 1.751259-.255563-.165899.93371-1.438358-.740476-.48068-.869903 1.340065-.252286-.163771.869903-1.340065-.804367-.522155-.977311 1.505526-.255563-.165899z"/><path d="m70.724956 66.823317 2.751648.30052c-.05164-.03757-.103165-.07422-.154586-.109958-.04347-.0311-.08909-.06473-.13685-.100896-.04755-.03434-.08919-.06565-.124918-.09394l-1.433179-1.13492.206129-.260299 2.157423 1.708441-.26918.339921-2.773597-.297971c.05244.03655.104887.07309.15733.10964.04449.03191.09255.06664.144187.104215.05266.03837.101951.07575.147886.112127l1.414804 1.120369-.208553.263361-2.157424-1.708441.27888-.35217"/><path d="m68.636859 69.108388 1.509272-1.588823.202497.192358.417682 2.708113 1.055952-1.11161.220906.209845-1.347853 1.418896-.196833-.186978-.423345-2.713493-1.217372 1.281538z"/><path d="m66.845397 70.716316.76893.39389.938663-.831379-.296674-.81217.289494-.256407.983929 2.804704-.317274.281012-2.652176-1.327128zm1.912028.983409c.05013.02517.100201.05127.150218.07828.04904.02788.09317.05315.132381.07582.04008.02364.07351.04273.100299.05727.02668.01637.04266.02657.04796.03058-.0024-.0066-.01007-.02413-.0231-.05259s-.02838-.06445-.04603-.107944c-.01863-.04264-.03833-.09041-.05911-.143327-.02175-.05205-.04258-.104047-.06249-.155984l-.336401-.910045-.770522.682456.866806.445481"/></g><g><path d="m61.366765 45.997448a13.637059 13.637059 0 1 1 -27.274118 0 13.637059 13.637059 0 1 1 27.274118 0z" transform="matrix(1.0266143 0 0 1.0266143 -.999999 .778362)"/><path d="m47.5 33c-8.008129 0-14.5 6.491871-14.5 14.5s6.491871 14.5 14.5 14.5c.08504 0 .165309.0015.25 0-7.616122-.133969-13.75-6.351898-13.75-14 0-7.731986 6.268014-14 14-14 7.648102 0 13.866031 6.133878 14 13.75.0015-.08469 0-.164961 0-.25 0-8.008129-6.491871-14.5-14.5-14.5z" opacity=".6"/><path d="m61.366765 45.997448a13.637059 13.637059 0 1 1 -27.274118 0 13.637059 13.637059 0 1 1 27.274118 0z" fill="url(#l)" transform="matrix(1.0266143 0 0 1.0266143 -.999999 .778362)"/><path d="m61.366765 45.997448a13.637059 13.637059 0 1 1 -27.274118 0 13.637059 13.637059 0 1 1 27.274118 0z" fill="none" filter="url(#q)" stroke="url(#m)" stroke-width=".514606" transform="matrix(0 .97161711 -.97161711 0 92.69191 1.625001)"/><path d="m41.34375 47.375c.07082-.767299.285421-1.486362.59375-2.15625l-4.59375-2.40625c-.603997 1.243084-1.018186 2.621977-1.15625 4.0625zm1.375-3.4375c1.071033-1.389071 2.667628-2.34897 4.5-2.5625l-.59375-5.15625c-3.598468.417087-6.654118 2.435762-8.53125 5.3125z" fill="#fff" opacity=".6"/><path d="m50.708204 52a9.7082043 6 0 1 1 -19.416408 0 9.7082043 6 0 1 1 19.416408 0z" fill="url(#n)" opacity=".431452" transform="matrix(.58268801 -.58268801 .58268801 .58268801 -.743557 46.935862)"/><g fill="url(#o)"><path d="m50.708204 52a9.7082043 6 0 1 1 -19.416408 0 9.7082043 6 0 1 1 19.416408 0z" opacity=".3" transform="matrix(.15076894 -.15076894 .15076894 .15076894 37.387737 49.649792)"/><path d="m50.708204 52a9.7082043 6 0 1 1 -19.416408 0 9.7082043 6 0 1 1 19.416408 0z" opacity=".3" transform="matrix(-.10757707 .10757707 -.10757707 -.10757707 55.999137 47.076819)"/><path d="m50.708204 52a9.7082043 6 0 1 1 -19.416408 0 9.7082043 6 0 1 1 19.416408 0z" opacity=".431452" transform="matrix(-.19358861 .19358861 -.19358861 -.19358861 59.194255 43.21899)"/><path d="m50.708204 52a9.7082043 6 0 1 1 -19.416408 0 9.7082043 6 0 1 1 19.416408 0z" opacity=".6" transform="matrix(.08968638 -.08968638 .08968638 .08968638 40.497472 47.750757)"/></g><path d="m61.366765 45.997448a13.637059 13.637059 0 1 1 -27.274118 0 13.637059 13.637059 0 1 1 27.274118 0z" fill="#f0f" opacity=".6" transform="matrix(1.0266143 0 0 1.0266143 69.000001 .778362)"/><path d="m48 32c-8.836556 0-16 7.163444-16 16s7.163444 16 16 16 16-7.163444 16-16-7.163444-16-16-16zm0 1.5c8.008129 0 14.5 6.491871 14.5 14.5s-6.491871 14.5-14.5 14.5-14.5-6.491871-14.5-14.5 6.491871-14.5 14.5-14.5z" fill="url(#A)" opacity=".7"/></g><g><g clip-path="url(#j)" filter="url(#k)" opacity=".4"><path d="m61.366765 45.997448a13.637059 13.637059 0 0 1 -3.994202 9.642857l-9.642857-9.642857z" fill="#d40000" transform="matrix(1.0266143 0 0 1.0266143 -.999999 .778362)"/><path d="m61.366765 45.997448a13.637059 13.637059 0 0 1 -3.994202 9.642857l-9.642857-9.642857z" fill="#d42aff" transform="matrix(.72592593 .72592593 -.72592593 .72592593 46.742509 -20.038972)"/><path d="m61.366765 45.997448a13.637059 13.637059 0 0 1 -3.994202 9.642857l-9.642857-9.642857z" fill="#60f" transform="matrix(0 1.0266143 -1.0266143 0 95.221638 -.999999)"/><path d="m61.366765 45.997448a13.637059 13.637059 0 0 1 -3.994202 9.642857l-9.642857-9.642857z" fill="#2a7fff" transform="matrix(-.72592593 .72592593 -.72592593 -.72592593 116.03897 46.742509)"/><path d="m61.366765 45.997448a13.637059 13.637059 0 0 1 -3.994202 9.642857l-9.642857-9.642857z" fill="#5fd3bc" transform="matrix(-1.0266143 0 0 -1.0266143 96.999997 95.221637)"/><path d="m61.366765 45.997448a13.637059 13.637059 0 0 1 -3.994202 9.642857l-9.642857-9.642857z" fill="#55d400" transform="matrix(-.72592593 -.72592593 .72592593 -.72592593 49.25749 116.03897)"/><path d="m61.366765 45.997448a13.637059 13.637059 0 0 1 -3.994202 9.642857l-9.642857-9.642857z" fill="#fc0" transform="matrix(0 -1.0266143 1.0266143 0 .778363 96.999997)"/><path d="m61.366765 45.997448a13.637059 13.637059 0 0 1 -3.994202 9.642857l-9.642857-9.642857z" fill="#f60" transform="matrix(.72592593 -.72592593 .72592593 .72592593 -20.03897 49.25749)"/></g><g filter="url(#z)" opacity=".8" transform="translate(0 -50)"><path d="m61.53125 94.375-.96875.25c.287421 1.074342.4375 2.210019.4375 3.375 0 4.80784-2.619633 9.00086-6.5 11.25l.5.875c5.487553-3.16824 8.171252-9.62943 6.53125-15.75z" fill="url(#r)" opacity=".8"/><path d="m59.25 104.5c-2.249137 3.88037-6.442164 6.5-11.25 6.5-1.164981 0-2.300658-.15008-3.375-.4375l-.25.96875c6.120569 1.64 12.58176-1.0437 15.75-6.53125z" fill="url(#s)" opacity=".8"/><path d="m36.75 104.5-.875.5c3.16824 5.48755 9.629431 8.17125 15.75 6.53125l-.25-.96875c-1.074342.28742-2.210019.4375-3.375.4375-4.807836 0-9.000863-2.61963-11.25-6.5z" fill="url(#t)"/><path d="m34.46875 94.375c-1.640002 6.12057 1.043697 12.58176 6.53125 15.75l.5-.875c-3.880367-2.24914-6.5-6.44216-6.5-11.25 0-1.164981.150079-2.300658.4375-3.375z" fill="url(#u)" opacity=".9"/><path d="m41 85.875c-5.487553 3.16824-8.171252 9.629431-6.53125 15.75l.96875-.25c-.287421-1.07434-.4375-2.210019-.4375-3.375 0-4.807836 2.619633-9.000863 6.5-11.25z" fill="url(#v)"/><path d="m48.15625 84c-4.972416-.06059-9.707055 2.541364-12.28125 7l.875.5c2.249137-3.880367 6.442164-6.5 11.25-6.5 1.164981 0 2.300658.150079 3.375.4375l.25-.96875c-1.147607-.3075-2.321269-.454768-3.46875-.46875z" fill="url(#w)"/><path d="m47.84375 84c-1.147481.01398-2.321143.16125-3.46875.46875l.25.96875c1.074342-.287421 2.210019-.4375 3.375-.4375 4.807836 0 9.000863 2.619633 11.25 6.5l.875-.5c-2.574195-4.458637-7.308834-7.060589-12.28125-7z" fill="url(#x)"/><path d="m55 85.875-.5.875c3.880367 2.249137 6.5 6.442164 6.5 11.25 0 1.164981-.150079 2.30066-.4375 3.375l.96875.25c1.640002-6.120569-1.043697-12.58176-6.53125-15.75z" fill="url(#y)" opacity=".9"/></g><path d="m50.708204 52a9.7082043 6 0 1 1 -19.416408 0 9.7082043 6 0 1 1 19.416408 0z" fill="url(#p)" transform="matrix(.23287504 -.23287504 .23287504 .23287504 33.266783 52.13527)"/></g></svg>