<svg height="96" width="96" xmlns="http://www.w3.org/2000/svg" xmlns:xlink="http://www.w3.org/1999/xlink"><linearGradient id="a"><stop offset="0" stop-color="#8c8c8c"/><stop offset="1" stop-color="#f5f5f5"/></linearGradient><linearGradient id="b"><stop offset="0" stop-color="#fff"/><stop offset="1" stop-color="#fff" stop-opacity="0"/></linearGradient><linearGradient id="c" gradientUnits="userSpaceOnUse" x1="36.357143" x2="36.357143" xlink:href="#b" y1="6" y2="63.893143"/><radialGradient id="d" cx="48" cy="90.171875" gradientTransform="matrix(1.1573129 0 0 .99590774 -7.551021 .197132)" gradientUnits="userSpaceOnUse" r="42" xlink:href="#b"/><linearGradient id="e" gradientUnits="userSpaceOnUse" x1="48" x2="48" xlink:href="#a" y1="90" y2="5.987717"/><linearGradient id="f" gradientUnits="userSpaceOnUse" x1="16.162441" x2="76.771591" y1="44.48222" y2="44.48222"><stop offset="0" stop-color="#4b4b4b"/><stop offset=".37373093" stop-color="#232323"/><stop offset="1" stop-color="#5c5c5c"/></linearGradient><linearGradient id="g" gradientUnits="userSpaceOnUse" x1="16.162441" x2="76.771591" y1="44.48222" y2="44.48222"><stop offset="0" stop-color="#a4a4a4"/><stop offset="1" stop-color="#bfbfbf"/></linearGradient><radialGradient id="h" cx="137.99999916" cy="48.00000058638" gradientUnits="userSpaceOnUse" r="22.99999913738"><stop offset="0" stop-opacity="0"/><stop offset=".94999999" stop-opacity="0"/><stop offset="1"/></radialGradient><linearGradient id="i" gradientUnits="userSpaceOnUse" x1="16.162441" x2="76.771591" y1="44.48222" y2="44.48222"><stop offset="0" stop-color="#4c4c4c"/><stop offset=".60000002" stop-color="#0a0a0a"/><stop offset="1" stop-color="#4e4e4e"/></linearGradient><radialGradient id="j" cx="47.729706" cy="45.997448" gradientUnits="userSpaceOnUse" r="13.637059"><stop offset="0" stop-color="#fff" stop-opacity=".185484"/><stop offset=".3086735" stop-color="#fff" stop-opacity=".108871"/><stop offset=".43622452" stop-opacity="0"/><stop offset=".54464293" stop-opacity="0"/><stop offset=".58290821" stop-color="#fff" stop-opacity="0"/><stop offset=".61479598" stop-opacity=".181452"/><stop offset=".69132656" stop-opacity=".431452"/><stop offset=".78061229" stop-color="#fff" stop-opacity=".080645"/><stop offset=".87627554" stop-opacity="0"/><stop offset="1" stop-color="#fff" stop-opacity="0"/></radialGradient><linearGradient id="k" gradientUnits="userSpaceOnUse" x1="33.199345" x2="67.957489" xlink:href="#b" y1="45.997448" y2="45.997448"/><linearGradient id="l" gradientUnits="userSpaceOnUse" x1="40.068184" x2="31.793724" xlink:href="#b" y1="58.17598" y2="49.665066"/><linearGradient id="m" gradientUnits="userSpaceOnUse" x1="40.068184" x2="40.068184" xlink:href="#b" y1="58.17598" y2="41.697067"/><radialGradient id="n" cx="41" cy="52" gradientTransform="matrix(1 0 0 .61803397 0 19.862234)" gradientUnits="userSpaceOnUse" r="9.708204"><stop offset="0" stop-color="#fff"/><stop offset=".5" stop-color="#fff"/><stop offset="1" stop-color="#fff" stop-opacity="0"/></radialGradient><filter id="o" color-interpolation-filters="sRGB"><feGaussianBlur stdDeviation=".27274118"/></filter><linearGradient id="p" gradientTransform="matrix(1.0058652 0 0 .994169 100 0)" gradientUnits="userSpaceOnUse" x1="45.447727" x2="45.447727" y1="92.539597" y2="7.01654"><stop offset="0"/><stop offset="1" stop-opacity=".588235"/></linearGradient><linearGradient id="q" gradientTransform="matrix(1.0238095 0 0 1.0119048 -1.142857 -98.071429)" gradientUnits="userSpaceOnUse" x1="32.251034" x2="32.251034" xlink:href="#p" y1="6.131708" y2="90.238609"/><linearGradient id="r" gradientTransform="translate(0 -97)" gradientUnits="userSpaceOnUse" x1="32.251034" x2="32.251034" xlink:href="#p" y1="6.131708" y2="90.238609"/><linearGradient id="s" gradientUnits="userSpaceOnUse" x1="48" x2="48" y1="80" y2="5.987717"><stop offset="0" stop-color="#0c0c0c"/><stop offset="1" stop-color="#373737"/></linearGradient><linearGradient id="t" gradientUnits="userSpaceOnUse" x1="16.162441" x2="76.838295" y1="52.098946" y2="52.098946"><stop offset="0" stop-opacity=".419847"/><stop offset=".5" stop-opacity="0"/><stop offset="1" stop-color="#fff" stop-opacity=".217054"/></linearGradient><linearGradient id="u" gradientUnits="userSpaceOnUse" x1="15.343399" x2="77.590637" y1="44.48222" y2="44.48222"><stop offset="0" stop-color="#1a1a1a"/><stop offset="1" stop-color="#292929"/></linearGradient><linearGradient id="v" gradientUnits="userSpaceOnUse" x1="64.072342" x2="46.604744" xlink:href="#b" y1="64.036171" y2="46.568573"/><linearGradient id="w" gradientUnits="userSpaceOnUse" x1="48" x2="48" xlink:href="#a" y1="2" y2="-14"/><linearGradient id="x" gradientUnits="userSpaceOnUse" x1="47" x2="47" y1="21" y2="15"><stop offset="0" stop-color="#5dbc1e"/><stop offset="1" stop-color="#acc837"/></linearGradient><g fill="url(#q)"><path d="m12-95.03125c-5.5110903 0-10.03125 4.52016-10.03125 10.03125v71c0 5.5110902 4.5201598 10.03125 10.03125 10.03125h72c5.51109 0 10.03125-4.5201597 10.03125-10.03125v-71c0-5.51109-4.52016-10.03125-10.03125-10.03125z" opacity=".08" transform="scale(1 -1)"/><path d="m12-94.03125c-4.971633 0-9.03125 4.059617-9.03125 9.03125v71c0 4.9716329 4.0596171 9.03125 9.03125 9.03125h72c4.971633 0 9.03125-4.059617 9.03125-9.03125v-71c0-4.971633-4.059617-9.03125-9.03125-9.03125z" opacity=".1" transform="scale(1 -1)"/><path d="m12-93c-4.4091333 0-8 3.590867-8 8v71c0 4.4091333 3.5908667 8 8 8h72c4.409133 0 8-3.5908667 8-8v-71c0-4.409133-3.590867-8-8-8z" opacity=".2" transform="scale(1 -1)"/><rect height="85" opacity=".3" rx="7" transform="scale(1 -1)" width="86" x="5" y="-92"/></g><rect fill="url(#r)" height="84" opacity=".45" rx="6" transform="scale(1 -1)" width="84" x="6" y="-91"/><g><rect fill="url(#e)" height="84" rx="6" width="84" x="6" y="6"/><path d="m12 6c-3.324 0-6 2.676-6 6v2 68 2c0 .334721.04135.6507.09375.96875.0487.295596.09704.596915.1875.875.00988.03038.020892.0636.03125.09375.098865.287771.2348802.547452.375.8125.1445918.273507.3156161.535615.5.78125s.3737765.473472.59375.6875c.439947.428056.94291.814526 1.5 1.09375.278545.139612.5734731.246947.875.34375-.2562018-.100222-.4867109-.236272-.71875-.375-.00741-.0044-.023866.0045-.03125 0-.031933-.0193-.062293-.04251-.09375-.0625-.120395-.0767-.2310226-.163513-.34375-.25-.1061728-.0808-.2132809-.161112-.3125-.25-.1779299-.161433-.3474596-.345388-.5-.53125-.1075789-.130255-.2183939-.265285-.3125-.40625-.025089-.03838-.038446-.08587-.0625-.125-.064763-.103032-.1302275-.204517-.1875-.3125-.1010083-.194706-.2056748-.415701-.28125-.625-.00796-.02181-.023589-.04055-.03125-.0625-.0318251-.09195-.0358045-.186831-.0625-.28125-.0303323-.106618-.0703894-.203031-.09375-.3125-.0728786-.341512-.125-.698205-.125-1.0625v-2-68-2c0-2.781848 2.2181517-5 5-5h2 68 2c2.781848 0 5 2.218152 5 5v2 68 2c0 .364295-.05212.720988-.125 1.0625-.04415.206893-.08838.397658-.15625.59375-.0077.02195-.0233.04069-.03125.0625-.06274.173739-.138383.367449-.21875.53125-.04158.0828-.07904.169954-.125.25-.0546.09721-.126774.18835-.1875.28125-.09411.140965-.204921.275995-.3125.40625-.143174.17445-.303141.346998-.46875.5-.01117.0102-.01998.02115-.03125.03125-.138386.125556-.285091.234436-.4375.34375-.102571.07315-.204318.153364-.3125.21875-.0074.0045-.02384-.0044-.03125 0-.232039.138728-.462548.274778-.71875.375.301527-.0968.596455-.204138.875-.34375.55709-.279224 1.060053-.665694 1.5-1.09375.219973-.214028.409366-.441865.59375-.6875s.355408-.507743.5-.78125c.14012-.265048.276135-.524729.375-.8125.01041-.03078.02133-.06274.03125-.09375.09046-.278085.1388-.579404.1875-.875.0524-.31805.09375-.634029.09375-.96875v-2-68-2c0-3.324-2.676-6-6-6z" fill="url(#c)" opacity=".45"/><path d="m29.46875 6c-.602256 1.0420201-.615501 2.5947213-1.21875 3.59375-3.842254 9.005707-10.285652 16.841932-12.625 26.5-2.703753 10.09031-2.435651 21.478031 3.28125 30.53125 6.90834 11.740264 21.293125 18.338488 34.6875 15.9375 14.16004-2.162984 26.046395-14.189438 28.03125-28.375 1.621397-11.533927-1.854824-23.254948-7.8125-33.09375-2.760405-4.845127-5.770744-9.675582-7.25-15.09375z" opacity=".08"/><path d="m31.125 6.03125a.9707779.9707779 0 0 0 -.84375.71875c-1.49798 5.805839-5.074305 10.941167-8.4375 17.125-3.359481 6.177004-6.462116 13.424481-6.78125 23.40625-.000353.01104.000346.02021 0 .03125-.02769.564157-.03125 1.141108-.03125 1.6875 0 18.197707 14.771043 32.96875 32.96875 32.96875s32.96875-14.771043 32.96875-32.96875c0-.546392-.0036-1.123343-.03125-1.6875-.000346-.01104.000353-.02021 0-.03125-.319134-9.981769-3.421769-17.229246-6.78125-23.40625-3.363195-6.183833-6.93952-11.319161-8.4375-17.125a.9707779.9707779 0 0 0 -.9375-.71875h-33.5625a.9707779.9707779 0 0 0 -.09375 0z" opacity=".15"/><path d="m31.21875 7c-3.111932 12.061157-14.572366 20.714381-15.1875 40.34375-.027647.545414-.03125 1.103965-.03125 1.65625 0 17.673112 14.326888 32 32 32s32-14.326888 32-32c0-.552285-.003603-1.110836-.03125-1.65625-.615134-19.629369-12.075568-28.282593-15.1875-40.34375z" opacity=".3"/><path d="m31.21875 6c-3.111932 12.061157-14.572366 20.714381-15.1875 40.34375-.027647.545414-.03125 1.103965-.03125 1.65625 0 17.673112 14.326888 32 32 32s32-14.326888 32-32c0-.552285-.003603-1.110836-.03125-1.65625-.615134-19.629369-12.075568-28.282593-15.1875-40.34375z" fill="url(#s)"/><path d="m12 90c-3.324 0-6-2.676-6-6v-2-68-2c0-.334721.04135-.6507.09375-.96875.0487-.295596.09704-.596915.1875-.875.00988-.03038.020892-.0636.03125-.09375.098865-.287771.2348802-.547452.375-.8125.1445918-.273507.3156161-.535615.5-.78125s.3737765-.473472.59375-.6875c.439947-.428056.94291-.814526 1.5-1.09375.278545-.139612.5734731-.246947.875-.34375-.2562018.100222-.4867109.236272-.71875.375-.00741.0044-.023866-.0045-.03125 0-.031933.0193-.062293.04251-.09375.0625-.120395.0767-.2310226.163513-.34375.25-.1061728.0808-.2132809.161112-.3125.25-.1779299.161433-.3474596.345388-.5.53125-.1075789.130255-.2183939.265285-.3125.40625-.025089.03838-.038446.08587-.0625.125-.064763.103032-.1302275.204517-.1875.3125-.1010083.194706-.2056748.415701-.28125.625-.00796.02181-.023589.04055-.03125.0625-.0318251.09195-.0358045.186831-.0625.28125-.0303323.106618-.0703894.203031-.09375.3125-.0728786.341512-.125.698205-.125 1.0625v2 68 2c0 2.781848 2.2181517 5 5 5h2 68 2c2.781848 0 5-2.218152 5-5v-2-68-2c0-.364295-.05212-.720988-.125-1.0625-.04415-.206893-.08838-.397658-.15625-.59375-.0077-.02195-.0233-.04069-.03125-.0625-.06274-.173739-.138383-.367449-.21875-.53125-.04158-.0828-.07904-.169954-.125-.25-.0546-.09721-.126774-.18835-.1875-.28125-.09411-.140965-.204921-.275995-.3125-.40625-.143174-.17445-.303141-.346998-.46875-.5-.01117-.0102-.01998-.02115-.03125-.03125-.138386-.125556-.285091-.234436-.4375-.34375-.102571-.07315-.204318-.153364-.3125-.21875-.0074-.0045-.02384.0044-.03125 0-.232039-.138728-.462548-.274778-.71875-.375.301527.0968.596455.204138.875.34375.55709.279224 1.060053.665694 1.5 1.09375.219973.214028.409366.441865.59375.6875s.355408.507743.5.78125c.14012.265048.276135.524729.375.8125.01041.03078.02133.06274.03125.09375.09046.278085.1388.579404.1875.875.0524.31805.09375.634029.09375.96875v2 68 2c0 3.324-2.676 6-6 6z" fill="url(#d)" opacity=".15"/><path d="m76.771595 44.48222a30.304577 30.304577 0 1 1 -60.609154 0 30.304577 30.304577 0 1 1 60.609154 0z" fill="url(#t)" transform="matrix(0 .79195958 -.79195958 0 173.22812 11.2)"/><path d="m16 47.5c-.0012.167276 0 .333332 0 .5 0 17.673112 14.326888 32 32 32s32-14.326888 32-32c0-.166668.0012-.332724 0-.5-.266707 17.442958-14.493556 31.5-32 31.5s-31.733293-14.057042-32-31.5z"/><path d="m44 5.96875a1.0203942 1.0203942 0 0 0 -1.03125 1.03125v2c0 1.844531.487315 3.527847 1.34375 4.8125s2.168805 2.21875 3.6875 2.21875 2.831065-.934097 3.6875-2.21875 1.34375-2.967969 1.34375-4.8125v-2a1.0203942 1.0203942 0 0 0 -1.03125-1.03125z" opacity=".15" transform="translate(0 -20)"/><path d="m44-13v2c0 3.324 1.784 6 4 6s4-2.676 4-6v-2z" opacity=".3"/><path d="m44-14v2c0 3.324 1.784 6 4 6s4-2.676 4-6v-2z" fill="url(#w)"/><path d="m44-13v1c0 3.324 1.784 6 4 6s4-2.676 4-6v-1c0 3.324-1.784 6-4 6s-4-2.676-4-6z" opacity=".15"/><path d="m31.21875 6c-.175451.6800091-.399914 1.3390787-.625 2h34.8125c-.225086-.6609213-.449549-1.3199909-.625-2z" fill="url(#c)" opacity=".15"/><path d="m42 21 6-2 6 2-6-6z" fill="url(#x)"/><path d="m48 14-6 6 1.5-.5 4.5-4.5 4.5 4.5 1.5.5z" opacity=".4"/><path d="m48 15-6 6 1.5-.5 4.5-4.5 4.5 4.5 1.5.5z" fill="#fff" opacity=".3"/></g><g><g transform="matrix(0 -.75896127 -.75896127 0 81.760282 84.266667)"><path d="m46.46875 10.375c-18.81247 0-34.125 15.276639-34.125 34.09375 0 18.816893 15.308107 34.125 34.125 34.125s34.125-15.308107 34.125-34.125c0-18.817111-15.31253-34.09375-34.125-34.09375z" opacity=".05"/><path d="m46.46875 11.75c-18.061089 0-32.75 14.654652-32.75 32.71875 0 18.064028 14.685972 32.75 32.75 32.75s32.75-14.685972 32.75-32.75c0-18.064098-14.688911-32.71875-32.75-32.71875z" opacity=".08"/><path d="m46.46875 12.8125c-17.480704 0-31.6875 14.17383-31.6875 31.65625s14.20508 31.6875 31.6875 31.6875 31.6875-14.20508 31.6875-31.6875-14.206796-31.65625-31.6875-31.65625z" opacity=".15"/><path d="m76.771595 44.48222a30.304577 30.304577 0 1 1 -60.609154 0 30.304577 30.304577 0 1 1 60.609154 0z" opacity=".3"/></g><path d="m76.771595 44.48222a30.304577 30.304577 0 1 1 -60.609154 0 30.304577 30.304577 0 1 1 60.609154 0z" fill="url(#f)" transform="matrix(.65333332 .65333332 -.65333332 .65333332 136.70327 -11.420167)"/><path d="m76.771595 44.48222a30.304577 30.304577 0 1 1 -60.609154 0 30.304577 30.304577 0 1 1 60.609154 0z" fill="none" stroke="#000" stroke-width=".448957" transform="matrix(0 1.1136932 -1.1136932 0 187.53954 -3.75)"/><path d="m76.771595 44.48222a30.304577 30.304577 0 1 1 -60.609154 0 30.304577 30.304577 0 1 1 60.609154 0z" fill="url(#g)" transform="matrix(0 -.75896127 -.75896127 0 81.760282 83.266667)"/><path d="m138 25c-5.88581 0-11.7732 2.243847-16.26392 6.73472-8.98144 8.981749-8.98144 23.547221 0 32.528968 8.98144 8.981749 23.5464 8.981749 32.52784 0 8.98144-8.981747 8.98144-23.547219 0-32.528968-4.49072-4.490873-10.37811-6.73472-16.26392-6.73472zm0 2.129556c5.34082 0 10.67175 2.047421 14.74667 6.122474 8.14982 8.150104 8.14982 21.344247 0 29.49435-8.14983 8.150106-21.34351 8.150106-29.49334 0-8.14982-8.150103-8.14982-21.344246 0-29.49435 4.07492-4.075053 9.40585-6.122474 14.74667-6.122474z" fill="url(#h)" opacity=".6"/><path d="m76.771595 44.48222a30.304577 30.304577 0 1 1 -60.609154 0 30.304577 30.304577 0 1 1 60.609154 0z" fill="url(#i)" stroke="url(#u)" stroke-width="1.638085" transform="matrix(0 .61046884 -.61046884 0 75.155009 19.633333)"/><path d="m48 25c-12.702549 0-23 10.297451-23 23 0 .167023-.0035.333826 0 .5.265891-12.471763 10.464474-22.5 23-22.5s22.734109 10.028237 23 22.5c.003543-.166174 0-.332977 0-.5 0-12.702549-10.297451-23-23-23zm-18.96875 23.5c-.004405.168301-.03125.330636-.03125.5 0 10.49341 8.50659 19 19 19s19-8.50659 19-19c0-.169364-.026845-.331699-.03125-.5-.26849 10.259276-8.644704 18.5-18.96875 18.5s-18.70026-8.240724-18.96875-18.5z" fill="#fff" opacity=".3"/></g><g><path d="m61.366765 45.997448a13.637059 13.637059 0 1 1 -27.274118 0 13.637059 13.637059 0 1 1 27.274118 0z" transform="matrix(1.0266143 0 0 1.0266143 -.999999 .778362)"/><path d="m47.5 33c-8.008129 0-14.5 6.491871-14.5 14.5s6.491871 14.5 14.5 14.5c.08504 0 .165309.0015.25 0-7.616122-.133969-13.75-6.351898-13.75-14 0-7.731986 6.268014-14 14-14 7.648102 0 13.866031 6.133878 14 13.75.0015-.08469 0-.164961 0-.25 0-8.008129-6.491871-14.5-14.5-14.5z" opacity=".6"/><path d="m61.366765 45.997448a13.637059 13.637059 0 1 1 -27.274118 0 13.637059 13.637059 0 1 1 27.274118 0z" fill="url(#j)" transform="matrix(1.0266143 0 0 1.0266143 -.999999 .778362)"/><path d="m61.366765 45.997448a13.637059 13.637059 0 1 1 -27.274118 0 13.637059 13.637059 0 1 1 27.274118 0z" fill="none" filter="url(#o)" stroke="url(#k)" stroke-width=".514606" transform="matrix(0 .97161711 -.97161711 0 92.69191 1.625001)"/><path d="m41.34375 47.375c.07082-.767299.285421-1.486362.59375-2.15625l-4.59375-2.40625c-.603997 1.243084-1.018186 2.621977-1.15625 4.0625zm1.375-3.4375c1.071033-1.389071 2.667628-2.34897 4.5-2.5625l-.59375-5.15625c-3.598468.417087-6.654118 2.435762-8.53125 5.3125z" fill="#fff" opacity=".6"/><path d="m50.708204 52a9.7082043 6 0 1 1 -19.416408 0 9.7082043 6 0 1 1 19.416408 0z" fill="url(#l)" opacity=".431452" transform="matrix(.58268801 -.58268801 .58268801 .58268801 -.743557 46.935862)"/><g fill="url(#m)"><path d="m50.708204 52a9.7082043 6 0 1 1 -19.416408 0 9.7082043 6 0 1 1 19.416408 0z" opacity=".3" transform="matrix(.15076894 -.15076894 .15076894 .15076894 37.387737 49.649792)"/><path d="m50.708204 52a9.7082043 6 0 1 1 -19.416408 0 9.7082043 6 0 1 1 19.416408 0z" opacity=".3" transform="matrix(-.10757707 .10757707 -.10757707 -.10757707 55.999137 47.076819)"/><path d="m50.708204 52a9.7082043 6 0 1 1 -19.416408 0 9.7082043 6 0 1 1 19.416408 0z" opacity=".431452" transform="matrix(-.19358861 .19358861 -.19358861 -.19358861 59.194255 43.21899)"/><path d="m50.708204 52a9.7082043 6 0 1 1 -19.416408 0 9.7082043 6 0 1 1 19.416408 0z" opacity=".6" transform="matrix(.08968638 -.08968638 .08968638 .08968638 40.497472 47.750757)"/></g><path d="m61.366765 45.997448a13.637059 13.637059 0 1 1 -27.274118 0 13.637059 13.637059 0 1 1 27.274118 0z" fill="#f0f" opacity=".6" transform="matrix(1.0266143 0 0 1.0266143 69.000001 .778362)"/><path d="m48 32c-8.836556 0-16 7.163444-16 16s7.163444 16 16 16 16-7.163444 16-16-7.163444-16-16-16zm0 1c8.284271 0 15 6.715729 15 15s-6.715729 15-15 15-15-6.715729-15-15 6.715729-15 15-15z" fill="url(#v)" opacity=".5"/></g><g><path d="m50.708204 52a9.7082043 6 0 1 1 -19.416408 0 9.7082043 6 0 1 1 19.416408 0z" fill="url(#n)" transform="matrix(.23287504 -.23287504 .23287504 .23287504 33.266783 52.13527)"/><path d="m61.366765 45.997448a13.637059 13.637059 0 1 1 -27.274118 0 13.637059 13.637059 0 1 1 27.274118 0z" fill="#5f8dd3" opacity=".3" transform="matrix(1.0266143 0 0 1.0266143 -.999999 .778362)"/></g></svg>