<svg height="16" width="16" xmlns="http://www.w3.org/2000/svg"><path d="m7.5 0c-3.5898508 0-6.5 2.9101492-6.5 6.5 0 3.0065 2.0403331 5.538471 4.8125 6.28125l-3.09375 2.3125c-.3545308.233494-.143183.914503.28125.90625h9c.424433.0083.635781-.672756.28125-.90625l-3.09375-2.3125c2.772167-.742779 4.8125-3.27475 4.8125-6.28125 0-3.5898508-2.910149-6.5-6.5-6.5zm0 1c.2761424 0 .5.2238576.5.5s-.2238576.5-.5.5-.5-.2238576-.5-.5.2238576-.5.5-.5zm0 2c1.6568542 0 3 1.343145 3 3s-1.3431458 3-3 3-3-1.343145-3-3 1.3431458-3 3-3zm0 .84375c-1.1834673 0-2.15625.972783-2.15625 2.15625s.9727827 2.15625 2.15625 2.15625 2.15625-.972783 2.15625-2.15625-.9727827-2.15625-2.15625-2.15625z" fill="#bebebe"/></svg>