<svg height="96" width="96" xmlns="http://www.w3.org/2000/svg" xmlns:xlink="http://www.w3.org/1999/xlink"><linearGradient id="a"><stop offset="0" stop-color="#fff" stop-opacity="0"/><stop offset=".25" stop-color="#fff" stop-opacity="0"/><stop offset=".5" stop-color="#fff" stop-opacity=".701613"/><stop offset=".75" stop-color="#fff" stop-opacity="0"/><stop offset="1" stop-color="#fff" stop-opacity="0"/></linearGradient><linearGradient id="b"><stop offset="0" stop-color="#fff"/><stop offset="1" stop-color="#fff" stop-opacity="0"/></linearGradient><linearGradient id="c" gradientUnits="userSpaceOnUse" x1="36.357143" x2="36.357143" xlink:href="#b" y1="6" y2="63.893143"/><radialGradient id="d" cx="48" cy="90.171875" gradientTransform="matrix(1.1573129 0 0 .99590774 -7.551021 .197132)" gradientUnits="userSpaceOnUse" r="42" xlink:href="#b"/><linearGradient id="e" gradientUnits="userSpaceOnUse" x1="48" x2="48.252537" y1="7.408988" y2="63.184418"><stop offset="0" stop-color="#fff" stop-opacity="0"/><stop offset="1" stop-color="#fff" stop-opacity=".233871"/></linearGradient><linearGradient id="f" gradientUnits="userSpaceOnUse" x1="25.220379" x2="94.567612" y1="61.92226" y2="61.92226"><stop offset="0" stop-color="#4d4d4d"/><stop offset="1" stop-color="#fff"/></linearGradient><radialGradient id="g" cx="59.893993" cy="61.92226" gradientTransform="matrix(1 0 0 .8375435 0 10.059672)" gradientUnits="userSpaceOnUse" r="33.71384"><stop offset="0" stop-opacity="0"/><stop offset=".85000002" stop-opacity="0"/><stop offset="1"/></radialGradient><linearGradient id="h" gradientUnits="userSpaceOnUse" x1="26.180153" x2="93.607834" y1="61.92226" y2="61.92226"><stop offset="0" stop-color="#fff" stop-opacity=".203125"/><stop offset="1" stop-color="#fff" stop-opacity=".679688"/></linearGradient><clipPath id="i"><path d="m48 32c-19.882251 0-36 16.117749-36 36s16.117749 36 36 36 36-16.117749 36-36-16.117749-36-36-36zm0 24c6.627417 0 12 5.372583 12 12s-5.372583 12-12 12-12-5.372583-12-12 5.372583-12 12-12z"/></clipPath><filter id="j" color-interpolation-filters="sRGB" height="1.341402" width="1.380742" x="-.190371" y="-.170701"><feGaussianBlur stdDeviation="4.9476562"/></filter><clipPath id="k"><path d="m48 102c-19.88225 0-36 16.11775-36 36s16.11775 36 36 36 36-16.11775 36-36-16.11775-36-36-36zm0 24c6.62742 0 12 5.37258 12 12s-5.37258 12-12 12-12-5.37258-12-12 5.37258-12 12-12z"/></clipPath><filter id="l" color-interpolation-filters="sRGB" height="1.36" width="1.36" x="-.18" y="-.18"><feGaussianBlur stdDeviation="5.2159999"/></filter><linearGradient id="m" gradientUnits="userSpaceOnUse" x1="158" x2="158" y1="90" y2="6"><stop offset="0" stop-color="#dcdcdc" stop-opacity=".470588"/><stop offset="1" stop-color="#dcdcdc" stop-opacity=".235294"/></linearGradient><linearGradient id="n" gradientUnits="userSpaceOnUse" x1="47.921329" x2="47.921329" y1="89.668793" y2="4.78804"><stop offset="0" stop-color="#a0a0a0" stop-opacity=".541177"/><stop offset="1" stop-color="#a0a0a0" stop-opacity=".345098"/></linearGradient><clipPath id="o"><path d="m12 6c-3.324 0-6 2.676-6 6v72c0 3.324 2.676 6 6 6h72c3.324 0 6-2.676 6-6v-72c0-3.324-2.676-6-6-6zm36 4c20.98682 0 38 17.01318 38 38s-17.01318 38-38 38-38-17.01318-38-38 17.01318-38 38-38z"/></clipPath><linearGradient id="p" gradientUnits="userSpaceOnUse" x1="6.812054" x2="88.142281" xlink:href="#a" y1="49.027908" y2="49.027908"/><radialGradient id="q" cx="46.467018" cy="47.765217" gradientUnits="userSpaceOnUse" r="35.860416"><stop offset="0" stop-opacity="0"/><stop offset=".93000001" stop-opacity="0"/><stop offset="1"/></radialGradient><filter id="r" color-interpolation-filters="sRGB" height="1.24" width="1.24" x="-.12" y="-.12"><feGaussianBlur stdDeviation="4.2"/></filter><filter id="s" color-interpolation-filters="sRGB"><feGaussianBlur stdDeviation="1.44"/></filter><clipPath id="t"><path d="m76.013977 47.51268a28.284271 28.284271 0 1 1 -56.568542 0 28.284271 28.284271 0 1 1 56.568542 0z" transform="matrix(1.3435029 0 0 1.3435029 -16.124998 74.166578)"/></clipPath><linearGradient id="u" gradientTransform="matrix(1.0058652 0 0 .994169 100 0)" gradientUnits="userSpaceOnUse" x1="45.447727" x2="45.447727" y1="92.539597" y2="7.01654"><stop offset="0"/><stop offset="1" stop-opacity=".588235"/></linearGradient><linearGradient id="v" gradientTransform="matrix(1.0238095 0 0 -1.0119048 -1.142857 98.071429)" gradientUnits="userSpaceOnUse" x1="32.251034" x2="32.251034" xlink:href="#u" y1="6.131708" y2="90.238609"/><linearGradient id="w" gradientTransform="matrix(1 0 0 -1 0 97)" gradientUnits="userSpaceOnUse" x1="32.251034" x2="32.251034" xlink:href="#u" y1="6.131708" y2="90.238609"/><g><g fill="url(#v)"><path d="m12 3.96875c-5.5110902 0-10.03125 4.5201598-10.03125 10.03125v71c0 5.51109 4.5201597 10.03125 10.03125 10.03125h72c5.51109 0 10.03125-4.52016 10.03125-10.03125v-71c0-5.5110903-4.52016-10.03125-10.03125-10.03125zm0 2.03125h72c3.324 0 6 2.676 6 6v72c0 3.324-2.676 6-6 6h-72c-3.324 0-6-2.676-6-6v-72c0-3.324 2.676-6 6-6z" opacity=".08"/><path d="m12 4.96875c-4.9716329 0-9.03125 4.0596171-9.03125 9.03125v71c0 4.971633 4.059617 9.03125 9.03125 9.03125h72c4.971633 0 9.03125-4.059617 9.03125-9.03125v-71c0-4.971633-4.059617-9.03125-9.03125-9.03125zm0 1.03125h72c3.324 0 6 2.676 6 6v72c0 3.324-2.676 6-6 6h-72c-3.324 0-6-2.676-6-6v-72c0-3.324 2.676-6 6-6z" opacity=".1"/><path d="m11.1875 6.03125c-4.0275183.4106511-7.1875 3.8351875-7.1875 7.96875v71c0 4.409133 3.5908667 8 8 8h72c4.409133 0 8-3.590867 8-8v-71c0-4.1970618-3.258972-7.6460416-7.375-7.96875 3.032886.306167 5.375 2.8525 5.375 5.96875v72c0 3.324-2.676 6-6 6h-72c-3.324 0-6-2.676-6-6v-72c0-3.11625 2.3421143-5.662583 5.375-5.96875-.06227.00488-.12563-.00631-.1875 0z" opacity=".2"/><path d="m6.4375 9.75c-.8994891 1.177446-1.4375 2.647277-1.4375 4.25v71c0 3.878 3.122 7 7 7h72c3.878 0 7-3.122 7-7v-71c0-1.602723-.538011-3.072554-1.4375-4.25.279316.694095.4375 1.453625.4375 2.25v72c0 3.324-2.676 6-6 6h-72c-3.324 0-6-2.676-6-6v-72c0-.796375.1581836-1.555905.4375-2.25z" opacity=".3"/></g><path d="m6 84v1c0 3.324 2.676 6 6 6h72c3.324 0 6-2.676 6-6v-1c0 3.324-2.676 6-6 6h-72c-3.324 0-6-2.676-6-6z" fill="url(#w)" opacity=".45"/></g><rect fill="url(#n)" height="84" rx="6" width="84" x="6" y="6"/><path d="m-94.85714 8.602679c-20.94383 0-37.96875 17.02492-37.96875 37.968751 0 20.94383 17.02492 37.96875 37.96875 37.96875s37.96875-17.02492 37.96875-37.96875c0-20.943831-17.02492-37.968751-37.96875-37.968751zm0 25.96875c6.62742 0 12 5.372583 12 12.000001 0 6.62742-5.37258 12-12 12s-12-5.37258-12-12c0-6.627418 5.37258-12.000001 12-12.000001z" opacity=".42"/><path d="m82.327435 47.765217a35.860416 35.860416 0 1 1 -71.720833 0 35.860416 35.860416 0 1 1 71.720833 0z" fill="url(#q)" opacity=".4" transform="matrix(1.0596642 0 0 1.0596642 -1.239436 -2.615091)"/><path clip-path="url(#t)" d="m48 102c-19.882251 0-36 16.11775-36 36s16.117749 36 36 36 36-16.11775 36-36-16.117749-36-36-36zm0 24c6.627417 0 12 5.37258 12 12s-5.372583 12-12 12-12-5.37258-12-12 5.372583-12 12-12z" filter="url(#s)" opacity=".8" transform="translate(0 -90)"/><g><path d="m48 12c-19.882251 0-36 16.117749-36 36s16.117749 36 36 36 36-16.117749 36-36-16.117749-36-36-36zm0 24c6.627417 0 12 5.372583 12 12s-5.372583 12-12 12-12-5.372583-12-12 5.372583-12 12-12z" fill="#bbb1bf"/><path d="m81.071426 48.5a34.642857 34.642857 0 1 1 -69.285713 0 34.642857 34.642857 0 1 1 69.285713 0z" fill="#c8c0cb" transform="matrix(1.0391753 0 0 1.0391753 89.752578 -2.400001)"/><path d="m81.071426 48.5a34.642857 34.642857 0 1 1 -69.285713 0 34.642857 34.642857 0 1 1 69.285713 0z" fill="#f00" transform="matrix(.34639176 0 0 .34639176 121.91753 31.2)"/><path d="m48 36c-6.627417 0-12 5.372583-12 12s5.372583 12 12 12 12-5.372583 12-12-5.372583-12-12-12zm0 7c2.761424 0 5 2.238576 5 5s-2.238576 5-5 5-5-2.238576-5-5 2.238576-5 5-5z" fill="#fff" opacity=".3"/><path d="m92.579506 61.92226a32.685513 27.208481 0 1 1 -65.371025 0 32.685513 27.208481 0 1 1 65.371025 0z" fill="none" opacity=".6" stroke="url(#f)" stroke-linecap="round" stroke-width="5.422095" transform="matrix(0 .16827027 -.20214285 0 60.517143 37.921621)"/><path d="m92.579506 61.92226a32.685513 27.208481 0 1 1 -65.371025 0 32.685513 27.208481 0 1 1 65.371025 0z" style="opacity:.5;fill-rule:evenodd;stroke-width:3.139125;stroke-linecap:round;fill:url(#g);stroke:url(#h)" transform="matrix(0 .2906454 -.34915584 0 69.620519 30.592193)"/><g fill="#fff"><path clip-path="url(#i)" d="m57.3125 33.21875-9.3125 34.78125 31.1875-18c-4.773897-8.268632-12.65254-14.310099-21.875-16.78125zm-9.3125 34.78125-31.1875 18c4.773897 8.268632 12.65254 14.3101 21.875 16.78125z" filter="url(#j)" opacity=".8" transform="translate(0 -20)"/><path d="m64.397226 47.38641a20.708128 18.814091 0 0 1 -6.06527 13.303571l-14.642858-13.303571z" opacity=".3" transform="matrix(.4499434 -1.6792116 1.8482599 .49523976 -59.240026 7.89561)"/><path d="m64.397226 47.38641a20.708128 18.814091 0 0 1 -6.06527 13.303571l-14.642858-13.303571z" opacity=".3" transform="matrix(-.4499434 1.6792116 -1.8482599 -.49523976 155.24002 -91.895606)"/></g><g clip-path="url(#k)" filter="url(#l)" opacity=".6" transform="translate(0 -90)"><path d="m60.947452 57.784124a20.708128 18.814091 0 0 1 -2.615496 2.905857l-14.642858-13.303571z" fill="#7137c8" transform="matrix(1.5055399 .86922388 -.95672979 1.6571045 27.560302 21.500167)"/><path d="m60.779363 58.010828a20.708128 18.814091 0 0 1 -3.384016 3.478847l-13.706249-14.103265z" fill="#0cf" transform="matrix(1.6792116 .4499434 -.49523981 1.8482599 -1.895609 30.759984)"/><path d="m62.72377 54.795738a20.708128 18.814091 0 0 1 -2.259683 3.622054l-16.774989-11.031382z" fill="#fc0" transform="matrix(1.7384478 0 -.00000006 1.9134595 -27.951218 47.328031)"/><path d="m61.622863 56.793455a20.708128 18.814091 0 0 1 -1.699251 2.272761l-16.234514-11.679806z" fill="#f00" transform="matrix(1.6792116 -.4499434 .4952397 1.84826 -48.830877 70.075223)"/><path d="m63.123303 53.883448a20.708128 18.814091 0 0 1 -2.370014 4.161918l-17.064191-10.658956z" fill="#0f0" transform="matrix(1.6792116 .4499434 -.49523981 1.8482599 -1.895609 30.759984)"/><path d="m60.947452 57.784124a20.708128 18.814091 0 0 1 -2.615496 2.905857l-14.642858-13.303571z" fill="#7137c8" transform="matrix(-1.5055399 -.86922388 .95672979 -1.6571045 68.439684 254.49984)"/><path d="m60.779363 58.010828a20.708128 18.814091 0 0 1 -3.384016 3.478847l-13.706249-14.103265z" fill="#0cf" transform="matrix(-1.6792116 -.4499434 .49523981 -1.8482599 97.895595 245.24003)"/><path d="m62.72377 54.795738a20.708128 18.814091 0 0 1 -2.259683 3.622054l-16.774989-11.031382z" fill="#fc0" transform="matrix(-1.7384478 0 .00000006 -1.9134595 123.9512 228.67198)"/><path d="m61.622863 56.793455a20.708128 18.814091 0 0 1 -1.699251 2.272761l-16.234514-11.679806z" fill="#f00" transform="matrix(-1.6792116 .4499434 -.4952397 -1.84826 144.83086 205.92479)"/><path d="m63.123303 53.883448a20.708128 18.814091 0 0 1 -2.370014 4.161918l-17.064191-10.658956z" fill="#0f0" transform="matrix(-1.6792116 -.4499434 .49523981 -1.8482599 97.895595 245.24003)"/></g><path d="m48 33.5c-8.008129 0-14.5 6.491871-14.5 14.5s6.491871 14.5 14.5 14.5 14.5-6.491871 14.5-14.5-6.491871-14.5-14.5-14.5zm0 2.5c6.627417 0 12 5.372583 12 12s-5.372583 12-12 12-12-5.372583-12-12 5.372583-12 12-12z" opacity=".2"/><path d="m48 12c-19.88225 0-36 16.117749-36 36 0 .337069.022.665155.0312 1 .53379-19.416215 16.42362-35 35.9688-35 19.545182 0 35.435008 15.583785 35.96875 35 .009205-.334845.03125-.662931.03125-1 0-19.882251-16.117749-36-36-36z" fill="#fff" opacity=".4"/></g><g><path d="m12 6c-3.324 0-6 2.676-6 6v2 68 2c0 .334721.04135.6507.09375.96875.0487.295596.09704.596915.1875.875.00988.03038.020892.0636.03125.09375.098865.287771.2348802.547452.375.8125.1445918.273507.3156161.535615.5.78125s.3737765.473472.59375.6875c.439947.428056.94291.814526 1.5 1.09375.278545.139612.5734731.246947.875.34375-.2562018-.100222-.4867109-.236272-.71875-.375-.00741-.0044-.023866.0045-.03125 0-.031933-.0193-.062293-.04251-.09375-.0625-.120395-.0767-.2310226-.163513-.34375-.25-.1061728-.0808-.2132809-.161112-.3125-.25-.1779299-.161433-.3474596-.345388-.5-.53125-.1075789-.130255-.2183939-.265285-.3125-.40625-.025089-.03838-.038446-.08587-.0625-.125-.064763-.103032-.1302275-.204517-.1875-.3125-.1010083-.194706-.2056748-.415701-.28125-.625-.00796-.02181-.023589-.04055-.03125-.0625-.0318251-.09195-.0358045-.186831-.0625-.28125-.0303323-.106618-.0703894-.203031-.09375-.3125-.0728786-.341512-.125-.698205-.125-1.0625v-2-68-2c0-2.781848 2.2181517-5 5-5h2 68 2c2.781848 0 5 2.218152 5 5v2 68 2c0 .364295-.05212.720988-.125 1.0625-.04415.206893-.08838.397658-.15625.59375-.0077.02195-.0233.04069-.03125.0625-.06274.173739-.138383.367449-.21875.53125-.04158.0828-.07904.169954-.125.25-.0546.09721-.126774.18835-.1875.28125-.09411.140965-.204921.275995-.3125.40625-.143174.17445-.303141.346998-.46875.5-.01117.0102-.01998.02115-.03125.03125-.138386.125556-.285091.234436-.4375.34375-.102571.07315-.204318.153364-.3125.21875-.0074.0045-.02384-.0044-.03125 0-.232039.138728-.462548.274778-.71875.375.301527-.0968.596455-.204138.875-.34375.55709-.279224 1.060053-.665694 1.5-1.09375.219973-.214028.409366-.441865.59375-.6875s.355408-.507743.5-.78125c.14012-.265048.276135-.524729.375-.8125.01041-.03078.02133-.06274.03125-.09375.09046-.278085.1388-.579404.1875-.875.0524-.31805.09375-.634029.09375-.96875v-2-68-2c0-3.324-2.676-6-6-6z" fill="url(#c)" opacity=".6"/><path d="m12 90c-3.324 0-6-2.676-6-6v-2-68-2c0-.334721.04135-.6507.09375-.96875.0487-.295596.09704-.596915.1875-.875.00988-.03038.020892-.0636.03125-.09375.098865-.287771.2348802-.547452.375-.8125.1445918-.273507.3156161-.535615.5-.78125s.3737765-.473472.59375-.6875c.439947-.428056.94291-.814526 1.5-1.09375.278545-.139612.5734731-.246947.875-.34375-.2562018.100222-.4867109.236272-.71875.375-.00741.0044-.023866-.0045-.03125 0-.031933.0193-.062293.04251-.09375.0625-.120395.0767-.2310226.163513-.34375.25-.1061728.0808-.2132809.161112-.3125.25-.1779299.161433-.3474596.345388-.5.53125-.1075789.130255-.2183939.265285-.3125.40625-.025089.03838-.038446.08587-.0625.125-.064763.103032-.1302275.204517-.1875.3125-.1010083.194706-.2056748.415701-.28125.625-.00796.02181-.023589.04055-.03125.0625-.0318251.09195-.0358045.186831-.0625.28125-.0303323.106618-.0703894.203031-.09375.3125-.0728786.341512-.125.698205-.125 1.0625v2 68 2c0 2.781848 2.2181517 5 5 5h2 68 2c2.781848 0 5-2.218152 5-5v-2-68-2c0-.364295-.05212-.720988-.125-1.0625-.04415-.206893-.08838-.397658-.15625-.59375-.0077-.02195-.0233-.04069-.03125-.0625-.06274-.173739-.138383-.367449-.21875-.53125-.04158-.0828-.07904-.169954-.125-.25-.0546-.09721-.126774-.18835-.1875-.28125-.09411-.140965-.204921-.275995-.3125-.40625-.143174-.17445-.303141-.346998-.46875-.5-.01117-.0102-.01998-.02115-.03125-.03125-.138386-.125556-.285091-.234436-.4375-.34375-.102571-.07315-.204318-.153364-.3125-.21875-.0074-.0045-.02384.0044-.03125 0-.232039-.138728-.462548-.274778-.71875-.375.301527.0968.596455.204138.875.34375.55709.279224 1.060053.665694 1.5 1.09375.219973.214028.409366.441865.59375.6875s.355408.507743.5.78125c.14012.265048.276135.524729.375.8125.01041.03078.02133.06274.03125.09375.09046.278085.1388.579404.1875.875.0524.31805.09375.634029.09375.96875v2 68 2c0 3.324-2.676 6-6 6z" fill="url(#d)" opacity=".3"/><path d="m12 6c-3.324 0-6 2.676-6 6v43.65625c18.407332-8.873819 43.000654-14.3125 70.0625-14.3125 4.728571 0 9.37768.179348 13.9375.5v-29.84375c0-3.324-2.676-6-6-6z" fill="url(#e)" opacity=".8"/><path d="m122 6c-3.324 0-6 2.676-6 6v72c0 3.324 2.676 6 6 6h72c3.324 0 6-2.676 6-6v-72c0-3.324-2.676-6-6-6zm36 4c20.98682 0 38 17.01318 38 38s-17.01318 38-38 38-38-17.01318-38-38 17.01318-38 38-38z" fill="url(#m)"/><g fill="none"><path clip-path="url(#o)" d="m12 6c-3.324 0-6 2.676-6 6v72c0 3.324 2.676 6 6 6h72c3.324 0 6-2.676 6-6v-72c0-3.324-2.676-6-6-6zm36 4c20.98682 0 38 17.01318 38 38s-17.01318 38-38 38-38-17.01318-38-38 17.01318-38 38-38z" filter="url(#r)" opacity=".8" stroke="#fff" stroke-width="2"/><path d="m87.125656 49.027908a39.648487 39.648487 0 1 1 -79.2969741 0 39.648487 39.648487 0 1 1 79.2969741 0z" stroke="url(#p)" stroke-linecap="round" stroke-width="2.033256" transform="matrix(.69554141 -.6955414 .6955414 .69554141 -19.123277 46.921397)"/><path d="m87.125656 49.027908a39.648487 39.648487 0 1 1 -79.2969741 0 39.648487 39.648487 0 1 1 79.2969741 0z" opacity=".4" stroke="url(#p)" stroke-linecap="round" stroke-width="2.033256" transform="matrix(-.69554141 -.6955414 -.6955414 .69554141 115.12327 46.921397)"/></g></g></svg>