<svg height="16" width="16" xmlns="http://www.w3.org/2000/svg"><g fill="#bebebe" transform="translate(0 -6)"><path d="m2.5 0c-.8682406-.0342396-1.5762596.7771943-1.5 1.625.00371 2.98867-.01296 4.980348 0 7.96875.037895.846424.8637194 1.475502 1.6875 1.40625 1.2758522-.00138 2.2735679-.000796 3.3125 0 .3136399.00024.6838508-.000489 1 0h4 1c1.14345.0018.248096.0053 1.65625 0 .853504-.04404 1.446329-.904228 1.34375-1.71875-.0028-2.965232.0096-4.941145 0-7.90625-.030626-.8509106-.86892-1.4523902-1.6875-1.375zm.5 2h10v7h-10z" transform="translate(0 6)"/><path d="m3 8h10v7h-10z" opacity=".45"/><path d="m2.6331025 18c-.111514.03642-.2151508.12492-.292764.25l-2.21664183 2.3125c-.30866722.45954-.05898776 1.413058.37641088 1.4375h14.97278745c.435399-.02444.685079-.97796.376411-1.4375l-2.216641-2.3125c-.098682-.149588-.235983-.24078-.376411-.25h-1.254704-1.338349-5.353399-1.3383497-1.2547029c-.027831-.003-.055816-.003-.083647 0z"/></g></svg>