<svg height="96" width="96" xmlns="http://www.w3.org/2000/svg" xmlns:xlink="http://www.w3.org/1999/xlink"><linearGradient id="a"><stop offset="0"/><stop offset="1" stop-opacity="0"/></linearGradient><linearGradient id="b"><stop offset="0" stop-color="#fff"/><stop offset="1" stop-color="#bfbfbf" stop-opacity="0"/></linearGradient><linearGradient id="c"><stop offset="0" stop-color="#fff"/><stop offset="1" stop-color="#fff" stop-opacity="0"/></linearGradient><filter id="d" color-interpolation-filters="sRGB" height="1.923077" width="1.590164" x="-.295082" y="-.461538"><feGaussianBlur stdDeviation="6.6964288"/></filter><linearGradient id="e" gradientUnits="userSpaceOnUse" x1="36.357143" x2="36.357143" xlink:href="#c" y1="6" y2="63.893143"/><linearGradient id="f" gradientUnits="userSpaceOnUse" x1="-1.857143" x2="88" y1="86.214287" y2="8.607142"><stop offset="0" stop-color="#e6e6e6"/><stop offset=".26003402" stop-color="#c3c3c3"/><stop offset=".49180263" stop-color="#b9b9b9"/><stop offset=".75914466" stop-color="#c8c8c8"/><stop offset="1" stop-color="#e6e6e6"/></linearGradient><linearGradient id="g" gradientUnits="userSpaceOnUse" x1="6" x2="32" y1="77.09375" y2="77.09375"><stop offset="0" stop-color="#7a7a7a"/><stop offset=".2032043" stop-color="#f9f9f9"/><stop offset=".42969123" stop-color="#c9c9c9"/><stop offset="1" stop-color="#dedede" stop-opacity="0"/></linearGradient><linearGradient id="h" gradientTransform="matrix(-1 0 0 1 96.030615 0)" gradientUnits="userSpaceOnUse" x1="6" x2="32.030617" y1="77.09375" y2="77.09375"><stop offset="0" stop-color="#7a7a7a"/><stop offset=".14636412" stop-color="#f9f9f9"/><stop offset=".37253973" stop-color="#c9c9c9"/><stop offset="1" stop-color="#dedede" stop-opacity="0"/></linearGradient><linearGradient id="i" gradientTransform="matrix(-1 0 0 1 96 0)" gradientUnits="userSpaceOnUse" x1="6" x2="45.219246" xlink:href="#a" y1="75.5" y2="75.5"/><linearGradient id="j" gradientUnits="userSpaceOnUse" x1="48" x2="48" xlink:href="#a" y1="77.09375" y2="90"/><linearGradient id="k" gradientUnits="userSpaceOnUse" x1="41.041885" x2="48" xlink:href="#c" y1="72" y2="19.160589"/><linearGradient id="l" gradientTransform="matrix(1.0277778 0 0 1.0499999 -.305556 -2.65)" gradientUnits="userSpaceOnUse" x1="38.765545" x2="38.765545" xlink:href="#a" y1="73" y2="-60.29591"/><linearGradient id="m" gradientUnits="userSpaceOnUse" x1="44.324883" x2="44.324883" y1="12" y2="72.11245"><stop offset="0" stop-color="#f0f0f0"/><stop offset="1" stop-color="#b4b4b4"/></linearGradient><linearGradient id="n" gradientTransform="matrix(1 0 0 -1 0 84)" gradientUnits="userSpaceOnUse" x1="18.742928" x2="109.1929" xlink:href="#b" y1="8.046936" y2="68.516502"/><linearGradient id="o" gradientUnits="userSpaceOnUse" x1="15.999999" x2="20.178572" y1="85.0625" y2="85.0625"><stop offset="0" stop-color="#767676"/><stop offset="1" stop-color="#fdfdfd"/></linearGradient><radialGradient id="p" cx="18.089285" cy="85.0625" gradientTransform="matrix(1 0 0 1.0042736 0 -.363523)" gradientUnits="userSpaceOnUse" r="2.089286"><stop offset="0" stop-color="#c1ff97"/><stop offset="1" stop-color="#30c700"/></radialGradient><linearGradient id="q" gradientUnits="userSpaceOnUse" x1="65.071426" x2="65.071426" y1="80" y2="88.011475"><stop offset="0"/><stop offset="1" stop-color="#484848"/></linearGradient><linearGradient id="r" gradientUnits="userSpaceOnUse" x1="67.071426" x2="67.071426" xlink:href="#c" y1="80" y2="88.011475"/><clipPath id="s"><rect height="60" rx="4" width="72" x="12" y="12"/></clipPath><linearGradient id="t" gradientUnits="userSpaceOnUse" x1="15.656256" x2="46.594883" xlink:href="#b" y1="69.394279" y2="39.82095"/><filter id="u" color-interpolation-filters="sRGB" height="1.359824" width="1.245356" x="-.122678" y="-.179912"><feGaussianBlur stdDeviation="3.178304"/></filter><linearGradient id="v" gradientTransform="matrix(1.0058652 0 0 .994169 100 0)" gradientUnits="userSpaceOnUse" x1="45.447727" x2="45.447727" y1="92.539597" y2="7.01654"><stop offset="0"/><stop offset="1" stop-opacity=".588235"/></linearGradient><linearGradient id="w" gradientTransform="matrix(1.0238095 0 0 1.0119048 -1.142857 -98.071429)" gradientUnits="userSpaceOnUse" x1="32.251034" x2="32.251034" xlink:href="#v" y1="6.131708" y2="90.238609"/><linearGradient id="x" gradientTransform="translate(0 -97)" gradientUnits="userSpaceOnUse" x1="32.251034" x2="32.251034" xlink:href="#v" y1="6.131708" y2="90.238609"/><clipPath id="y"><path d="m12.09375 6c-3.3793999 0-6.09375 2.7143501-6.09375 6.09375v67.8125c0 3.3794 2.7143501 6.09375 6.09375 6.09375h71.8125c3.3794 0 6.09375-2.71435 6.09375-6.09375v-67.8125c0-3.3793999-2.71435-6.09375-6.09375-6.09375zm32.875 18h6.0625c.865802 0 1.5625.668199 1.5625 1.46875v2.8125c1.548119.374981 3.052802.940656 4.40625 1.65625l2.1875-2c.622678-.566075 1.606531-.587802 2.21875-.03125l4.3125 3.90625c.61221.556562.591371 1.433924-.03125 2l-2.21875 2.03125c.787147 1.230407 1.43127 2.56136 1.84375 3.96875h3.09375c.880595 0 1.59375.650399 1.59375 1.4375v5.5c0 .787098-.713155 1.4375-1.59375 1.4375h-3.09375c-.412477 1.407388-1.056603 2.738342-1.84375 3.96875l2.21875 2.03125c.622678.566076.643525 1.443438.03125 2l-4.3125 3.90625c-.61222.556561-1.59607.534836-2.21875-.03125l-2.1875-2c-1.353446.715594-2.858132 1.281269-4.40625 1.65625v2.8125c0 .800553-.696697 1.46875-1.5625 1.46875h-6.0625c-.86581 0-1.5625-.6682-1.5625-1.46875v-2.8125c-1.548119-.374979-3.052804-.940657-4.40625-1.65625l-2.1875 2c-.311343.283039-.690843.434397-1.09375.4375-.402908.0031-.818895-.127971-1.125-.40625l-4.3125-3.90625c-.612211-.556562-.591361-1.433924.03125-2l2.21875-2.03125c-.787146-1.230408-1.431263-2.561362-1.84375-3.96875h-3.09375c-.880604 0-1.59375-.650401-1.59375-1.4375v-5.5c0-.787099.713146-1.4375 1.59375-1.4375h3.09375c.412487-1.40739 1.056604-2.738343 1.84375-3.96875l-2.21875-2.03125c-.62268-.566076-.643528-1.443438-.03125-2l4.3125-3.90625c.61221-.556561 1.596073-.534834 2.21875.03125l2.1875 2c1.353446-.715594 2.858131-1.281269 4.40625-1.65625v-2.8125c0-.800549.69669-1.46875 1.5625-1.46875zm3.03125 13.96875c-3.67143 0-6.65625 2.693576-6.65625 6.03125 0 3.337676 2.98482 6.03125 6.65625 6.03125 3.671436 0 6.65625-2.693574 6.65625-6.03125 0-3.337674-2.984814-6.03125-6.65625-6.03125z"/></clipPath><filter id="z" color-interpolation-filters="sRGB" height="1.504" width="1.458182" x="-.229091" y="-.252"><feGaussianBlur stdDeviation="4.2000002"/></filter><linearGradient id="A" gradientTransform="matrix(1.0232529 0 0 -.93023283 23.441935 63.395351)" gradientUnits="userSpaceOnUse" x1="20.758585" x2="20.758585" y1="1" y2="45.017357"><stop offset="0" stop-color="#4d4d4d" stop-opacity=".707317"/><stop offset="1" stop-color="#4d4d4d" stop-opacity=".313726"/></linearGradient><g fill="url(#w)"><path d="m12-95.03125c-5.5110903 0-10.03125 4.52016-10.03125 10.03125v71c0 5.5110902 4.5201598 10.03125 10.03125 10.03125h72c5.51109 0 10.03125-4.5201597 10.03125-10.03125v-71c0-5.51109-4.52016-10.03125-10.03125-10.03125z" opacity=".08" transform="scale(1 -1)"/><path d="m12-94.03125c-4.971633 0-9.03125 4.059617-9.03125 9.03125v71c0 4.9716329 4.0596171 9.03125 9.03125 9.03125h72c4.971633 0 9.03125-4.059617 9.03125-9.03125v-71c0-4.971633-4.059617-9.03125-9.03125-9.03125z" opacity=".1" transform="scale(1 -1)"/><path d="m12-93c-4.4091333 0-8 3.590867-8 8v71c0 4.4091333 3.5908667 8 8 8h72c4.409133 0 8-3.5908667 8-8v-71c0-4.409133-3.590867-8-8-8z" opacity=".2" transform="scale(1 -1)"/><rect height="85" opacity=".3" rx="7" transform="scale(1 -1)" width="86" x="5" y="-92"/></g><rect fill="url(#x)" height="84" opacity=".45" rx="6" transform="scale(1 -1)" width="84" x="6" y="-91"/><path d="m12 6c-3.324 0-6 2.676-6 6v2 68 2c0 .334721.04135.6507.09375.96875.0487.295596.09704.596915.1875.875.00988.03038.020892.0636.03125.09375.098865.287771.2348802.547452.375.8125.1445918.273507.3156161.535615.5.78125s.3737765.473472.59375.6875c.439947.428056.94291.814526 1.5 1.09375.278545.139612.5734731.246947.875.34375-.2562018-.100222-.4867109-.236272-.71875-.375-.00741-.0044-.023866.0045-.03125 0-.031933-.0193-.062293-.04251-.09375-.0625-.120395-.0767-.2310226-.163513-.34375-.25-.1061728-.0808-.2132809-.161112-.3125-.25-.1779299-.161433-.3474596-.345388-.5-.53125-.1075789-.130255-.2183939-.265285-.3125-.40625-.025089-.03838-.038446-.08587-.0625-.125-.064763-.103032-.1302275-.204517-.1875-.3125-.1010083-.194706-.2056748-.415701-.28125-.625-.00796-.02181-.023589-.04055-.03125-.0625-.0318251-.09195-.0358045-.186831-.0625-.28125-.0303323-.106618-.0703894-.203031-.09375-.3125-.0728786-.341512-.125-.698205-.125-1.0625v-2-68-2c0-2.781848 2.2181517-5 5-5h2 68 2c2.781848 0 5 2.218152 5 5v2 68 2c0 .364295-.05212.720988-.125 1.0625-.04415.206893-.08838.397658-.15625.59375-.0077.02195-.0233.04069-.03125.0625-.06274.173739-.138383.367449-.21875.53125-.04158.0828-.07904.169954-.125.25-.0546.09721-.126774.18835-.1875.28125-.09411.140965-.204921.275995-.3125.40625-.143174.17445-.303141.346998-.46875.5-.01117.0102-.01998.02115-.03125.03125-.138386.125556-.285091.234436-.4375.34375-.102571.07315-.204318.153364-.3125.21875-.0074.0045-.02384-.0044-.03125 0-.232039.138728-.462548.274778-.71875.375.301527-.0968.596455-.204138.875-.34375.55709-.279224 1.060053-.665694 1.5-1.09375.219973-.214028.409366-.441865.59375-.6875s.355408-.507743.5-.78125c.14012-.265048.276135-.524729.375-.8125.01041-.03078.02133-.06274.03125-.09375.09046-.278085.1388-.579404.1875-.875.0524-.31805.09375-.634029.09375-.96875v-2-68-2c0-3.324-2.676-6-6-6z" fill="url(#e)" opacity=".5"/><path d="m90 64.1875v19.8125c0 3.324-2.676 6-6 6h-72c-3.324 0-6-2.676-6-6v-19.8125z" fill="#cacaca"/><path d="m90.030615 64.1875v19.8125c0 3.324-2.676 6-6 6h-20.030615v-25.8125z" fill="url(#h)" opacity=".8"/><path d="m6 64.1875v19.8125c0 3.324 2.676 6 6 6h20v-25.8125z" fill="url(#g)" opacity=".8"/><path d="m90 64.1875v19.8125c0 3.324-2.676 6-6 6h-72c-3.324 0-6-2.676-6-6v-19.8125z" fill="url(#j)" opacity=".2"/><path d="m20.178571 85.0625a2.0892856 2.0982144 0 1 1 -4.178572 0 2.0892856 2.0982144 0 1 1 4.178572 0z" fill="url(#o)" transform="matrix(0 1.6709402 1.6638297 0 -122.03844 53.282815)"/><path d="m20.178571 85.0625a2.0892856 2.0982144 0 1 1 -4.178572 0 2.0892856 2.0982144 0 1 1 4.178572 0z" fill="url(#p)" stroke="#000" stroke-linecap="square" stroke-opacity=".531818" stroke-width=".8405" transform="matrix(1.1923077 0 0 1.1872339 -2.076928 -17.480158)"/><path d="m57 79.5c-.817559 0-1.5.682441-1.5 1.5v6c0 .817559.682441 1.5 1.5 1.5s1.5-.682441 1.5-1.5v-6c0-.817559-.682441-1.5-1.5-1.5zm4 0c-.817559 0-1.5.682441-1.5 1.5v6c0 .817559.682441 1.5 1.5 1.5s1.5-.682441 1.5-1.5v-6c0-.817559-.682441-1.5-1.5-1.5zm4 0c-.817559 0-1.5.682441-1.5 1.5v6c0 .817559.682441 1.5 1.5 1.5s1.5-.682441 1.5-1.5v-6c0-.817559-.682441-1.5-1.5-1.5zm4 0c-.817559 0-1.5.682441-1.5 1.5v6c0 .817559.682441 1.5 1.5 1.5s1.5-.682441 1.5-1.5v-6c0-.817559-.682441-1.5-1.5-1.5zm4 0c-.817559 0-1.5.682441-1.5 1.5v6c0 .817559.682441 1.5 1.5 1.5s1.5-.682441 1.5-1.5v-6c0-.817559-.682441-1.5-1.5-1.5zm4 0c-.817559 0-1.5.682441-1.5 1.5v6c0 .817559.682441 1.5 1.5 1.5s1.5-.682441 1.5-1.5v-6c0-.817559-.682441-1.5-1.5-1.5zm4 0c-.817559 0-1.5.682441-1.5 1.5v6c0 .817559.682441 1.5 1.5 1.5s1.5-.682441 1.5-1.5v-6c0-.817559-.682441-1.5-1.5-1.5z" fill="url(#r)" transform="matrix(1 0 0 -1 -2 168)"/><path d="m55 80c-.554 0-1 .446-1 1v6c0 .554.446 1 1 1s1-.446 1-1v-6c0-.554-.446-1-1-1zm4 0c-.554 0-1 .446-1 1v6c0 .554.446 1 1 1s1-.446 1-1v-6c0-.554-.446-1-1-1zm4 0c-.554 0-1 .446-1 1v6c0 .554.446 1 1 1s1-.446 1-1v-6c0-.554-.446-1-1-1zm4 0c-.554 0-1 .446-1 1v6c0 .554.446 1 1 1s1-.446 1-1v-6c0-.554-.446-1-1-1zm4 0c-.554 0-1 .446-1 1v6c0 .554.446 1 1 1s1-.446 1-1v-6c0-.554-.446-1-1-1zm4 0c-.554 0-1 .446-1 1v6c0 .554.446 1 1 1s1-.446 1-1v-6c0-.554-.446-1-1-1zm4 0c-.554 0-1 .446-1 1v6c0 .554.446 1 1 1s1-.446 1-1v-6c0-.554-.446-1-1-1z" fill="url(#q)"/><g><rect fill="url(#f)" height="72" rx="6" width="84" x="6" y="6"/><path d="m12 78c-3.324 0-6-2.676-6-6v-60c0-3.324 2.676-6 6-6h72c3.324 0 6 2.676 6 6v60c0 3.324-2.676 6-6 6zm0-2h72c2.781848 0 5-2.195392 5-4.9375v-59.125c0-2.742107-2.218152-4.937501-5-4.9375h-72c-2.7818483 0-5 2.195389-5 4.9375v59.125c0 2.742108 2.2181517 4.9375 5 4.9375z" fill="url(#n)" opacity=".7"/><rect fill="#803300" height="60" opacity=".2" rx="4" width="72" x="-88" y="12"/><path d="m90 72v1c0 3.324-2.676 6-6 6h-72c-3.324 0-6-2.676-6-6v-1c0 2.984862 2.152831 5.43487 5 5.90625.326884.065386.652269.09375 1 .09375h72c.166304 0 .337194-.01811.5-.03125.04161-.0041.08371.0051.125 0 .127873-.01291.249673-.04175.375-.0625 2.847169-.47138 5-2.921388 5-5.90625z" fill="url(#i)" opacity=".1"/><rect fill="#fff" filter="url(#d)" height="34.82143" opacity=".15" rx="9" transform="matrix(1.0880985 0 0 1.1015333 -1.172257 -1.410072)" width="54.464287" x="13.306199" y="13.887781"/><rect fill="url(#l)" height="63" opacity=".6" rx="4.111111" ry="4.2" width="74" x="11" y="11"/><rect fill="url(#m)" height="60" rx="4" width="72" x="12" y="12"/><path d="m16 12c-2.216 0-4 1.784-4 4v52c0 2.216 1.784 4 4 4h64c2.216 0 4-1.784 4-4v-52c0-2.216-1.784-4-4-4zm0 .125h64c1.639964 0 2.9375 1.297536 2.9375 2.9375v52c0 1.639964-1.297536 2.9375-2.9375 2.9375h-64c-1.639964 0-2.9375-1.297536-2.9375-2.9375v-52c0-1.639964 1.297536-2.9375 2.9375-2.9375z" fill="url(#k)" opacity=".5"/><path clip-path="url(#s)" d="m64.466651 70.746186c-31.60421-1.4832-35.940479-11.416344-14.841311-33.809863-23.872985 7.551548-35.167377 18.170864-43.5574513 25.411699-8.9112411 7.758006-.5291994 17.76928 9.2734603 16.937838 10.158869-.006729 41.020471-1.878858 49.125302-8.539674z" fill="url(#t)" fill-rule="evenodd" filter="url(#u)" opacity=".4" transform="matrix(1.1165614 0 0 1.1165614 -.26673 -9.247337)"/></g><path clip-path="url(#y)" d="m44.962229 64c-.86581 0-1.566862-.652938-1.566862-1.453488v-2.81977c-1.548119-.374979-3.027352-.941383-4.380798-1.656976l-2.206395 2.005814c-.311343.283039-.684294.432944-1.087201.436047-.402908.0031-.813076-.128697-1.119181-.406976l-4.316853-3.924421c-.612211-.556562-.590701-1.439738.03191-2.005814l2.206391-2.005814c-.787146-1.230408-1.410185-2.575172-1.822672-3.98256h-3.101731c-.880604 0-1.598835-.63732-1.598835-1.424419v-5.523256c0-.787099.718231-1.42442 1.598835-1.42442h3.101731c.412487-1.40739 1.035526-2.752153 1.822672-3.98256l-2.206391-2.005813c-.62268-.566076-.644188-1.449253-.03191-2.005815l4.316853-3.924421c.61221-.556561 1.583705-.537004 2.206382.02908l2.206395 2.005814c1.353446-.715594 2.832679-1.281994 4.380798-1.656975v-2.81977c0-.800549.701052-1.453487 1.566862-1.453487h6.075563c.865802 0 1.566854.652938 1.566854 1.453489v2.81977c1.548119.374981 3.027351.941381 4.380799 1.656975l2.206392-2.005814c.622678-.566075 1.594173-.585632 2.206392-.02908l4.316845 3.924421c.61221.556562.590701 1.439739-.03192 2.005815l-2.206384 2.005813c.787147 1.230407 1.410184 2.57517 1.822664 3.98256h3.101741c.880595 0 1.598831.637319 1.598831 1.42442v5.523256c0 .787098-.718236 1.424419-1.598831 1.424419h-3.101741c-.412477 1.407388-1.035513 2.752152-1.82266 3.98256l2.206383 2.005814c.622678.566076.644195 1.449252.03192 2.005814l-4.316844 3.924421c-.61222.556561-1.583713.537006-2.206393-.02908l-2.206393-2.005816c-1.353446.715594-2.832679 1.281998-4.380797 1.656979v2.819766c0 .800553-.701052 1.453489-1.566855 1.453489h-6.075563zm3.037778-13.953491c3.671436 0 6.651146-2.708839 6.651146-6.046515 0-3.337674-2.97971-6.046512-6.651146-6.046512-3.67143 0-6.651146 2.708838-6.651146 6.046512 0 3.337676 2.979716 6.046515 6.651146 6.046515z" display="block" fill="#fff" filter="url(#z)" transform="translate(0 -2)"/><path d="m44.962229 62c-.86581 0-1.566862-.652938-1.566862-1.453488v-2.81977c-1.548119-.374979-3.027352-.941383-4.380798-1.656976l-2.206395 2.005814c-.311343.283039-.684294.432944-1.087201.436047-.402908.0031-.813076-.128697-1.119181-.406976l-4.316853-3.924421c-.612211-.556562-.590701-1.439738.03191-2.005814l2.206391-2.005814c-.787146-1.230408-1.410185-2.575172-1.822672-3.98256h-3.101731c-.880604 0-1.598835-.63732-1.598835-1.424419v-5.523256c0-.787099.718231-1.42442 1.598835-1.42442h3.101731c.412487-1.40739 1.035526-2.752153 1.822672-3.98256l-2.206391-2.005813c-.62268-.566076-.644188-1.449253-.03191-2.005815l4.316853-3.924421c.61221-.556561 1.583705-.537004 2.206382.02908l2.206395 2.005814c1.353446-.715594 2.832679-1.281994 4.380798-1.656975v-2.81977c0-.800549.701052-1.453487 1.566862-1.453487h6.075563c.865802 0 1.566854.652938 1.566854 1.453489v2.81977c1.548119.374981 3.027351.941381 4.380799 1.656975l2.206392-2.005814c.622678-.566075 1.594173-.585632 2.206392-.02908l4.316845 3.924421c.61221.556562.590701 1.439739-.03192 2.005815l-2.206384 2.005813c.787147 1.230407 1.410184 2.57517 1.822664 3.98256h3.101741c.880595 0 1.598831.637319 1.598831 1.42442v5.523256c0 .787098-.718236 1.424419-1.598831 1.424419h-3.101741c-.412477 1.407388-1.035513 2.752152-1.82266 3.98256l2.206383 2.005814c.622678.566076.644195 1.449252.03192 2.005814l-4.316844 3.924421c-.61222.556561-1.583713.537006-2.206393-.02908l-2.206393-2.005816c-1.353446.715594-2.832679 1.281998-4.380797 1.656979v2.819766c0 .800553-.701052 1.453489-1.566855 1.453489h-6.075563zm3.037778-13.953491c3.671436 0 6.651146-2.708839 6.651146-6.046515 0-3.337674-2.97971-6.046512-6.651146-6.046512-3.67143 0-6.651146 2.708838-6.651146 6.046512 0 3.337676 2.979716 6.046515 6.651146 6.046515z" display="block" fill="url(#A)"/><path d="m44.96875 22c-.86581 0-1.5625.668201-1.5625 1.46875v1c0-.800549.69669-1.46875 1.5625-1.46875h6.0625c.865802 0 1.5625.668199 1.5625 1.46875v-1c0-.800551-.696698-1.46875-1.5625-1.46875zm-9.5625 3.5c-.293286.04824-.582921.19754-.8125.40625l-4.3125 3.90625c-.439288.399314-.544908.970919-.34375 1.46875.07436-.169909.19068-.32961.34375-.46875l4.3125-3.90625c.61221-.556561 1.596073-.534834 2.21875.03125l2.1875 2c1.353446-.715594 2.858131-1.281269 4.40625-1.65625v-1c-1.548119.374981-3.052804.940656-4.40625 1.65625l-2.1875-2c-.389173-.353803-.91744-.517896-1.40625-.4375zm24.90625 0c-.397236.0061-.813661.154463-1.125.4375l-2.1875 2c-1.353448-.715594-2.858131-1.281269-4.40625-1.65625v1c1.548119.374981 3.052802.940656 4.40625 1.65625l2.1875-2c.622678-.566075 1.606531-.587802 2.21875-.03125l4.3125 3.90625c.153053.13914.269403.298841.34375.46875.201141-.497831.09549-1.069436-.34375-1.46875l-4.3125-3.90625c-.30611-.278276-.696514-.41233-1.09375-.40625zm-28.15625 9c-.603071 1.049214-1.127538 2.148299-1.46875 3.3125h-3.09375c-.880604 0-1.59375.650401-1.59375 1.4375v1c0-.787099.713146-1.4375 1.59375-1.4375h3.09375c.412487-1.40739 1.056604-2.738343 1.84375-3.96875zm31.6875 0-.375.34375c.787147 1.230407 1.43127 2.56136 1.84375 3.96875h3.09375c.880595 0 1.59375.650399 1.59375 1.4375v-1c0-.787101-.713155-1.4375-1.59375-1.4375h-3.09375c-.341206-1.164201-.865679-2.263286-1.46875-3.3125zm-22.46875 8.125c-.0083.123486-.03125.249629-.03125.375 0 3.337676 2.98482 6.03125 6.65625 6.03125 3.671436 0 6.65625-2.693574 6.65625-6.03125 0-.125371-.02296-.251514-.03125-.375-.340806 3.047762-3.183029 5.40625-6.625 5.40625-3.441966 0-6.284193-2.358488-6.625-5.40625zm-9.21875 7.875-1.84375 1.6875c-.466958.424557-.598042 1.021522-.375 1.53125.07921-.196043.199091-.371314.375-.53125l2.21875-2.03125c-.136014-.212607-.249025-.437081-.375-.65625zm31.6875 0c-.125975.219169-.238986.443643-.375.65625l2.21875 2.03125c.175928.159936.295784.335207.375.53125.223064-.509728.09201-1.106693-.375-1.53125z" display="block" opacity=".4"/></svg>