<svg height="96" width="96" xmlns="http://www.w3.org/2000/svg" xmlns:xlink="http://www.w3.org/1999/xlink"><linearGradient id="a"><stop offset="0" stop-color="#fff"/><stop offset="1" stop-color="#fff" stop-opacity="0"/></linearGradient><linearGradient id="b"><stop offset="0"/><stop offset="1" stop-opacity="0"/></linearGradient><linearGradient id="c"><stop offset="0" stop-color="#fff"/><stop offset="1" stop-color="#bfbfbf" stop-opacity="0"/></linearGradient><linearGradient id="d" gradientUnits="userSpaceOnUse" x1="36.357143" x2="36.357143" xlink:href="#a" y1="6" y2="63.893143"/><linearGradient id="e" gradientUnits="userSpaceOnUse" x1="46" x2="46" y1="6" y2="78.000145"><stop offset="0" stop-color="#f0f0f0"/><stop offset="1" stop-color="#b4b4b4"/></linearGradient><linearGradient id="f" gradientUnits="userSpaceOnUse" x1="6" x2="32" y1="77.09375" y2="77.09375"><stop offset="0" stop-color="#7a7a7a"/><stop offset=".2032043" stop-color="#f9f9f9"/><stop offset=".42969123" stop-color="#c9c9c9"/><stop offset="1" stop-color="#dedede" stop-opacity="0"/></linearGradient><linearGradient id="g" gradientTransform="matrix(-1 0 0 1 96.030615 0)" gradientUnits="userSpaceOnUse" x1="6" x2="32.030617" y1="77.09375" y2="77.09375"><stop offset="0" stop-color="#7a7a7a"/><stop offset=".14636412" stop-color="#f9f9f9"/><stop offset=".37253973" stop-color="#c9c9c9"/><stop offset="1" stop-color="#dedede" stop-opacity="0"/></linearGradient><linearGradient id="h" gradientTransform="matrix(-1 0 0 1 96 -2)" gradientUnits="userSpaceOnUse" x1="6" x2="45.219246" xlink:href="#b" y1="75.5" y2="75.5"/><linearGradient id="i" gradientUnits="userSpaceOnUse" x1="90" x2="21.335417" xlink:href="#b" y1="81.915176" y2="81.915176"/><linearGradient id="j" gradientTransform="matrix(1 0 0 -1 0 84)" gradientUnits="userSpaceOnUse" x1="18.742928" x2="109.1929" xlink:href="#c" y1="8.046936" y2="68.516502"/><linearGradient id="k" gradientUnits="userSpaceOnUse" x1="18.28587011812" x2="52.83074679532" xlink:href="#c" y1="71.80706531223" y2="38.78662768133"/><clipPath id="l"><rect height="72" rx="6" width="84" x="6" y="6"/></clipPath><filter id="m" color-interpolation-filters="sRGB" height="1.359824" width="1.245356" x="-.122678" y="-.179912"><feGaussianBlur stdDeviation="3.5487715"/></filter><linearGradient id="n" gradientUnits="userSpaceOnUse" x1="46.178307" x2="46.178307" y1="80" y2="84.029495"><stop offset="0"/><stop offset="1" stop-color="#484848"/></linearGradient><linearGradient id="o" gradientUnits="userSpaceOnUse" x1="71.671959" x2="71.671959" xlink:href="#b" y1="89" y2="85.982117"/><linearGradient id="p" gradientUnits="userSpaceOnUse" x1="52.92857" x2="52.92857" y1="60.000003" y2="19.986596"><stop offset="0" stop-color="#4d4d4d" stop-opacity=".707317"/><stop offset="1" stop-color="#4d4d4d" stop-opacity=".252033"/></linearGradient><clipPath id="q"><path d="m-72.6875 6.90625v67.5h82.34375v-67.5zm40.6875 13.09375c13.248 0 24 8.96 24 20 0 11.040001-10.752 20.000001-24 20-13.248 0-24-8.959998-24-20 0-11.040001 10.752-20 24-20zm5.71875 2.25-2.84375 8.90625c1.884334.423339 3.565705 1.226629 4.90625 2.34375l7.84375-6.5c-2.867015-2.389179-5.989834-3.875501-9.90625-4.75zm-5.71875 10.25c-4.967999 0-8.999999 3.360001-9 7.5 0 4.139999 4.032001 7.500001 9 7.5 4.967999 0 8.999999-3.36 9-7.5 0-4.139999-4.032-7.500001-9-7.5zm0 2.5c3.311999 0 6 2.240001 6 5-.000001 2.759999-2.688 5.000001-6 5s-6-2.239999-6-5c0-2.76 2.688-5.000001 6-5zm0 1.65625c-2.208 0-3.999999 1.503751-4 3.34375 0 1.84 1.792 3.343748 4 3.34375 2.208 0 4-1.50375 4-3.34375s-1.792-3.343751-4-3.34375zm-7.78125 9.84375-7.78125 6.5c2.867015 2.389177 5.989835 3.8755 9.90625 4.75l2.84375-8.90625c-1.900073-.417584-3.585883-1.222044-4.9375-2.34375z"/></clipPath><filter id="r" color-interpolation-filters="sRGB" height="1.262857" width="1.2208" x="-.1104" y="-.131429"><feGaussianBlur stdDeviation="2.3"/></filter><linearGradient id="s" gradientTransform="matrix(1.0058652 0 0 .994169 100 0)" gradientUnits="userSpaceOnUse" x1="45.447727" x2="45.447727" y1="92.539597" y2="7.01654"><stop offset="0"/><stop offset="1" stop-opacity=".588235"/></linearGradient><linearGradient id="t" gradientTransform="matrix(1.0238095 0 0 1.0119048 -1.142857 -98.071429)" gradientUnits="userSpaceOnUse" x1="32.251034" x2="32.251034" xlink:href="#s" y1="6.131708" y2="90.238609"/><linearGradient id="u" gradientTransform="translate(0 -97)" gradientUnits="userSpaceOnUse" x1="32.251034" x2="32.251034" xlink:href="#s" y1="6.131708" y2="90.238609"/><g><g fill="url(#t)"><path d="m12-95.03125c-5.5110903 0-10.03125 4.52016-10.03125 10.03125v71c0 5.5110902 4.5201598 10.03125 10.03125 10.03125h72c5.51109 0 10.03125-4.5201597 10.03125-10.03125v-71c0-5.51109-4.52016-10.03125-10.03125-10.03125z" opacity=".08" transform="scale(1 -1)"/><path d="m12-94.03125c-4.971633 0-9.03125 4.059617-9.03125 9.03125v71c0 4.9716329 4.0596171 9.03125 9.03125 9.03125h72c4.971633 0 9.03125-4.059617 9.03125-9.03125v-71c0-4.971633-4.059617-9.03125-9.03125-9.03125z" opacity=".1" transform="scale(1 -1)"/><path d="m12-93c-4.4091333 0-8 3.590867-8 8v71c0 4.4091333 3.5908667 8 8 8h72c4.409133 0 8-3.5908667 8-8v-71c0-4.409133-3.590867-8-8-8z" opacity=".2" transform="scale(1 -1)"/><rect height="85" opacity=".3" rx="7" transform="scale(1 -1)" width="86" x="5" y="-92"/></g><rect fill="url(#u)" height="84" opacity=".45" rx="6" transform="scale(1 -1)" width="84" x="6" y="-91"/></g><path d="m12 6c-3.324 0-6 2.676-6 6v2 68 2c0 .334721.04135.6507.09375.96875.0487.295596.09704.596915.1875.875.00988.03038.020892.0636.03125.09375.098865.287771.2348802.547452.375.8125.1445918.273507.3156161.535615.5.78125s.3737765.473472.59375.6875c.439947.428056.94291.814526 1.5 1.09375.278545.139612.5734731.246947.875.34375-.2562018-.100222-.4867109-.236272-.71875-.375-.00741-.0044-.023866.0045-.03125 0-.031933-.0193-.062293-.04251-.09375-.0625-.120395-.0767-.2310226-.163513-.34375-.25-.1061728-.0808-.2132809-.161112-.3125-.25-.1779299-.161433-.3474596-.345388-.5-.53125-.1075789-.130255-.2183939-.265285-.3125-.40625-.025089-.03838-.038446-.08587-.0625-.125-.064763-.103032-.1302275-.204517-.1875-.3125-.1010083-.194706-.2056748-.415701-.28125-.625-.00796-.02181-.023589-.04055-.03125-.0625-.0318251-.09195-.0358045-.186831-.0625-.28125-.0303323-.106618-.0703894-.203031-.09375-.3125-.0728786-.341512-.125-.698205-.125-1.0625v-2-68-2c0-2.781848 2.2181517-5 5-5h2 68 2c2.781848 0 5 2.218152 5 5v2 68 2c0 .364295-.05212.720988-.125 1.0625-.04415.206893-.08838.397658-.15625.59375-.0077.02195-.0233.04069-.03125.0625-.06274.173739-.138383.367449-.21875.53125-.04158.0828-.07904.169954-.125.25-.0546.09721-.126774.18835-.1875.28125-.09411.140965-.204921.275995-.3125.40625-.143174.17445-.303141.346998-.46875.5-.01117.0102-.01998.02115-.03125.03125-.138386.125556-.285091.234436-.4375.34375-.102571.07315-.204318.153364-.3125.21875-.0074.0045-.02384-.0044-.03125 0-.232039.138728-.462548.274778-.71875.375.301527-.0968.596455-.204138.875-.34375.55709-.279224 1.060053-.665694 1.5-1.09375.219973-.214028.409366-.441865.59375-.6875s.355408-.507743.5-.78125c.14012-.265048.276135-.524729.375-.8125.01041-.03078.02133-.06274.03125-.09375.09046-.278085.1388-.579404.1875-.875.0524-.31805.09375-.634029.09375-.96875v-2-68-2c0-3.324-2.676-6-6-6z" fill="url(#d)" opacity=".5"/><path d="m90 64.1875v19.8125c0 3.324-2.676 6-6 6h-72c-3.324 0-6-2.676-6-6v-19.8125z" fill="#cacaca"/><path d="m90.030615 64.1875v19.8125c0 3.324-2.676 6-6 6h-20.030615v-25.8125z" fill="url(#g)" opacity=".8"/><path d="m6 64.1875v19.8125c0 3.324 2.676 6 6 6h20v-25.8125z" fill="url(#f)" opacity=".8"/><path d="m90 64.1875v19.8125c0 3.324-2.676 6-6 6h-72c-3.324 0-6-2.676-6-6v-19.8125z" fill="url(#i)" opacity=".2"/><rect fill="url(#n)" height="4" rx="2" width="64" x="16" y="80"/><path d="m16.0625 82.5c-.040976.159999-.0625.326875-.0625.5 0 1.108.892 2 2 2h60c1.108 0 2-.892 2-2 0-.173125-.02152-.340001-.0625-.5-.22127.863997-1.002625 1.5-1.9375 1.5h-60c-.934875 0-1.71623-.636003-1.9375-1.5z" fill="#ececec"/><path d="m67 85.052979h10v3.947019h-10z" fill="url(#o)" opacity=".5"/><path d="m68 86h8v2h-8z" fill="#f2f2f2"/><g><rect fill="url(#e)" height="70" rx="6" width="84" x="6" y="6"/><path d="m12 76c-3.324 0-6-2.676-6-6v-58c0-3.324 2.676-6 6-6h72c3.324 0 6 2.676 6 6v58c0 3.324-2.676 6-6 6zm0-2h72c2.781848 0 5-2.195392 5-4.9375v-57.125c0-2.742107-2.218152-4.937501-5-4.9375h-72c-2.7818483 0-5 2.195389-5 4.9375v57.125c0 2.742108 2.2181517 4.9375 5 4.9375z" fill="url(#j)" opacity=".7"/><path d="m90 70v1c0 3.324-2.676 6-6 6h-72c-3.324 0-6-2.676-6-6v-1c0 2.984862 2.152831 5.43487 5 5.90625.326884.065386.652269.09375 1 .09375h72c.166304 0 .337194-.01811.5-.03125.04161-.0041.08371.0051.125 0 .127873-.01291.249673-.04175.375-.0625 2.847169-.47138 5-2.921388 5-5.90625z" fill="url(#h)" opacity=".1"/><path clip-path="url(#l)" d="m72.785673 73.316552c-35.288041-1.656084-40.129752-12.747049-16.571235-37.750788-26.655654 8.431767-39.266536 20.288886-48.6345691 28.373723-9.9499479 8.66229-.5908836 19.840492 10.3543881 18.912136 11.343001-.0075 45.801874-2.097861 54.851416-9.535071z" fill="url(#k)" fill-rule="evenodd" filter="url(#m)" opacity=".3" transform="translate(0 -2)"/></g><g><path d="m48 20c-13.248 0-24 8.959999-24 20 0 11.040002 10.752 20 24 20 13.248.000001 24-8.959999 24-20 0-11.04-10.752-20-24-20zm5.71875 2.265625c3.916416.874499 7.039235 2.350404 9.90625 4.739583l-7.84375 6.510417c-1.340545-1.117121-3.021916-1.946453-4.90625-2.369792zm-5.71875 10.234375c4.968-.000001 9 3.360001 9 7.5-.000001 4.14-4.032001 7.5-9 7.5-4.967999.000001-9-3.360001-9-7.5.000001-4.139999 4.032001-7.5 9-7.5zm0 2.5c-3.312-.000001-6 2.24-6 5 0 2.760001 2.688 4.999999 6 5s5.999999-2.240001 6-5c0-2.759999-2.688001-5-6-5zm0 1.666667c2.208 0 4 1.493333 4 3.333333s-1.792 3.333333-4 3.333333c-2.208-.000003-4-1.493333-4-3.333333.000001-1.839999 1.792-3.333333 4-3.333333zm-7.78125 9.817708h.03125c1.351617 1.121706 3.037427 1.952208 4.9375 2.369792l-2.84375 8.880208c-3.916415-.8745-7.039235-2.350406-9.90625-4.739583z" fill="url(#p)"/><path d="m48 20c-13.248 0-24 8.959999-24 20 0 .167119-.0049.333858 0 .5.318728-10.80931 10.952543-19.5 24-19.5s23.681272 8.690691 24 19.5c.0049-.166142 0-.332881 0-.5 0-11.04-10.752-20-24-20zm15 7.53125-7.21875 5.96875c-1.27094-1.059117-2.858841-1.808973-4.625-2.25l-.28125.90625c1.884334.423339 3.565705 1.226629 4.90625 2.34375l7.84375-6.5c-.202665-.168887-.419589-.30888-.625-.46875zm-15 7.46875c-3.312-.000001-6 2.24-6 5 0 .1725.01075.331982.03125.5.307441-2.520264 2.86375-4.500001 5.96875-4.5 3.104999 0 5.661308 1.979737 5.96875 4.5.020496-.168018.03125-.3275.03125-.5 0-2.759999-2.688001-5-6-5zm-8.96875 5.5c-.012727.163083-.03125.334251-.03125.5 0 4.139999 4.032001 7.500001 9 7.5 4.967999 0 8.999999-3.36 9-7.5 0-.165749-.01852-.336917-.03125-.5-.305161 3.910326-4.19965 7-8.96875 7-4.7691.000001-8.66359-3.089675-8.96875-7zm5.03125 0c-.031166.167559-.0625.3252-.0625.5 0 1.84 1.792 3.343748 4 3.34375 2.208 0 4-1.50375 4-3.34375 0-.1748-.03133-.33244-.0625-.5-.296896 1.596225-1.93926 2.84375-3.9375 2.84375-1.99824-.000002-3.640604-1.247525-3.9375-2.84375zm.84375 9.25-2.5625 8c-3.63957-.812683-6.580794-2.1795-9.28125-4.28125l-.625.53125c2.867015 2.389177 5.989835 3.8755 9.90625 4.75l2.84375-8.90625c-.09866-.02168-.183764-.06986-.28125-.09375z" opacity=".4"/><path d="m-32 20c-13.248 0-24 8.959999-24 20 0 11.040002 10.752 20 24 20 13.248.000001 24-8.959999 24-20 0-11.04-10.752-20-24-20zm5.71875 2.265625c3.916416.874499 7.039235 2.350404 9.90625 4.739583l-7.84375 6.510417c-1.340545-1.117121-3.021916-1.946453-4.90625-2.369792zm-5.71875 10.234375c4.968-.000001 9 3.360001 9 7.5-.000001 4.14-4.032001 7.5-9 7.5-4.967999.000001-9-3.360001-9-7.5.000001-4.139999 4.032001-7.5 9-7.5zm0 2.5c-3.312-.000001-6 2.24-6 5 0 2.760001 2.688 4.999999 6 5s5.999999-2.240001 6-5c0-2.759999-2.688001-5-6-5zm0 1.666667c2.208 0 4 1.493333 4 3.333333s-1.792 3.333333-4 3.333333c-2.208-.000003-4-1.493333-4-3.333333.000001-1.839999 1.792-3.333333 4-3.333333zm-7.78125 9.817708h.03125c1.351617 1.121706 3.037427 1.952208 4.9375 2.369792l-2.84375 8.880208c-3.916415-.8745-7.039235-2.350406-9.90625-4.739583z" style="opacity:.8;fill:none;stroke:#fff;stroke-width:2;stroke-linecap:square;clip-path:url(#q);filter:url(#r)" transform="translate(80)"/></g></svg>