<svg height="16" width="16" xmlns="http://www.w3.org/2000/svg"><path d="m1.5 8c-.8682406-.0342396-1.5762596.7771943-1.5 1.625.00371 2.98867-.01296 5.980348 0 8.96875.037895.846424.8637194 1.475502 1.6875 1.40625 4.9950816-.0054 7.974017.01905 12.96875 0 .853504-.04404 1.446329-.904228 1.34375-1.71875-.0028-2.965232.0096-5.941145 0-8.90625-.030626-.8509106-.86892-1.4523902-1.6875-1.375zm.5 2h2v2h-2zm3 0h2v2h-2zm3 0h2v2h-2zm3 0h2v2h-2zm-8 3h2v2h-2zm3 0h2v2h-2zm3 0h2v2h-2zm3 0h2v2h-2zm-10 3h2v2h-2zm3 0h6v2h-6zm7 0h2v2h-2z" fill="#bebebe" transform="translate(0 -6)"/></svg>