<svg height="16" width="16" xmlns="http://www.w3.org/2000/svg"><path d="m8 0c-4.418278 0-8 3.581722-8 8s3.581722 8 8 8 8-3.581722 8-8-3.581722-8-8-8zm2.6875 1.53125c1.715197.710458 3.039543 2.066053 3.75 3.78125l-2.71875 1.15625c-.391749-.945766-1.167011-1.73355-2.1875-2.15625zm-2.6875 3.46875c1.6568542 0 3 1.3431458 3 3s-1.3431458 3-3 3-3-1.3431458-3-3 1.3431458-3 3-3zm0 1c-1.1045695 0-2 .8954305-2 2s.8954305 2 2 2 2-.8954305 2-2-.8954305-2-2-2zm0 1c.5522847 0 1 .4477153 1 1s-.4477153 1-1 1-1-.4477153-1-1 .4477153-1 1-1zm-3.71875 2.53125c.3917491.945766 1.1670108 1.73355 2.1875 2.15625l-1.15625 2.78125c-1.7151966-.710458-3.0395422-2.066053-3.75-3.78125z" fill="#bebebe"/></svg>