<svg height="16" width="16" xmlns="http://www.w3.org/2000/svg"><g fill="#bebebe" transform="translate(0 -6)"><path d="m1.5 0c-.8682406-.0342396-1.5762596.7771943-1.5 1.625.00371 2.98867-.01296 6.980348 0 9.96875.037895.846424.8637194 1.475502 1.6875 1.40625 1.6610151-.001796 2.9491065-.002109 4.3125 0v1h-1.9375c-.020795-.001548-.041705-.001548-.0625 0-.0833222.018211-.1607583.06246-.21875.125l-1.65625 1.15625c-.2306327.22977-.044075.706529.28125.71875h11.1875c.325325-.01222.511883-.48898.28125-.71875l-1.65625-1.15625c-.073734-.074794-.176324-.12039-.28125-.125h-1.9375v-1c1.460196.00098 2.86296.0068 4.65625 0 .853504-.04404 1.446329-.904228 1.34375-1.71875-.0028-2.965232.0096-6.941145 0-9.90625-.030626-.8509106-.86892-1.4523902-1.6875-1.375zm.5 2h12v9h-12z" transform="translate(0 6)"/><path d="m2 8h12v9h-12z" opacity=".45"/></g></svg>