<svg height="96" width="96" xmlns="http://www.w3.org/2000/svg" xmlns:xlink="http://www.w3.org/1999/xlink"><linearGradient id="a"><stop offset="0" stop-color="#fff"/><stop offset="1" stop-color="#fff" stop-opacity="0"/></linearGradient><linearGradient id="b" gradientUnits="userSpaceOnUse" x1="36.357143" x2="36.357143" xlink:href="#a" y1="6" y2="63.893143"/><filter id="c" color-interpolation-filters="sRGB" height="1.384" width="1.384" x="-.192" y="-.192"><feGaussianBlur stdDeviation="5.28"/></filter><linearGradient id="d" gradientUnits="userSpaceOnUse" x1="48" x2="48" xlink:href="#a" y1="20.220806" y2="138.66119"/><radialGradient id="e" cx="48" cy="90.171875" gradientTransform="matrix(1.1573129 0 0 .99590774 -7.551021 .197132)" gradientUnits="userSpaceOnUse" r="42" xlink:href="#a"/><clipPath id="f"><rect height="84" rx="6" width="84" x="6" y="6"/></clipPath><linearGradient id="g" gradientUnits="userSpaceOnUse" x1="48" x2="48" y1="90" y2="5.987717"><stop offset="0" stop-color="#d70751"/><stop offset="1" stop-color="#e7466b"/></linearGradient><linearGradient id="h" gradientTransform="matrix(1.0058652 0 0 .994169 100 0)" gradientUnits="userSpaceOnUse" x1="45.447727" x2="45.447727" y1="92.539597" y2="7.01654"><stop offset="0"/><stop offset="1" stop-opacity=".588235"/></linearGradient><linearGradient id="i" gradientTransform="matrix(1.0238095 0 0 1.0119048 -1.142857 -98.071429)" gradientUnits="userSpaceOnUse" x1="32.251034" x2="32.251034" xlink:href="#h" y1="6.131708" y2="90.238609"/><linearGradient id="j" gradientTransform="translate(0 -97)" gradientUnits="userSpaceOnUse" x1="32.251034" x2="32.251034" xlink:href="#h" y1="6.131708" y2="90.238609"/><g fill="url(#i)"><path d="m12-95.03125c-5.5110903 0-10.03125 4.52016-10.03125 10.03125v71c0 5.5110902 4.5201598 10.03125 10.03125 10.03125h72c5.51109 0 10.03125-4.5201597 10.03125-10.03125v-71c0-5.51109-4.52016-10.03125-10.03125-10.03125z" opacity=".08" transform="scale(1 -1)"/><path d="m12-94.03125c-4.971633 0-9.03125 4.059617-9.03125 9.03125v71c0 4.9716329 4.0596171 9.03125 9.03125 9.03125h72c4.971633 0 9.03125-4.059617 9.03125-9.03125v-71c0-4.971633-4.059617-9.03125-9.03125-9.03125z" opacity=".1" transform="scale(1 -1)"/><path d="m12-93c-4.4091333 0-8 3.590867-8 8v71c0 4.4091333 3.5908667 8 8 8h72c4.409133 0 8-3.5908667 8-8v-71c0-4.409133-3.590867-8-8-8z" opacity=".2" transform="scale(1 -1)"/><rect height="85" opacity=".3" rx="7" transform="scale(1 -1)" width="86" x="5" y="-92"/></g><rect fill="url(#j)" height="84" opacity=".45" rx="6" transform="scale(1 -1)" width="84" x="6" y="-91"/><rect fill="url(#g)" height="84" rx="6" width="84" x="6" y="6"/><path d="m12 6c-3.324 0-6 2.676-6 6v2 68 2c0 .334721.04135.6507.09375.96875.0487.295596.09704.596915.1875.875.00988.03038.020892.0636.03125.09375.098865.287771.2348802.547452.375.8125.1445918.273507.3156161.535615.5.78125s.3737765.473472.59375.6875c.439947.428056.94291.814526 1.5 1.09375.278545.139612.5734731.246947.875.34375-.2562018-.100222-.4867109-.236272-.71875-.375-.00741-.0044-.023866.0045-.03125 0-.031933-.0193-.062293-.04251-.09375-.0625-.120395-.0767-.2310226-.163513-.34375-.25-.1061728-.0808-.2132809-.161112-.3125-.25-.1779299-.161433-.3474596-.345388-.5-.53125-.1075789-.130255-.2183939-.265285-.3125-.40625-.025089-.03838-.038446-.08587-.0625-.125-.064763-.103032-.1302275-.204517-.1875-.3125-.1010083-.194706-.2056748-.415701-.28125-.625-.00796-.02181-.023589-.04055-.03125-.0625-.0318251-.09195-.0358045-.186831-.0625-.28125-.0303323-.106618-.0703894-.203031-.09375-.3125-.0728786-.341512-.125-.698205-.125-1.0625v-2-68-2c0-2.781848 2.2181517-5 5-5h2 68 2c2.781848 0 5 2.218152 5 5v2 68 2c0 .364295-.05212.720988-.125 1.0625-.04415.206893-.08838.397658-.15625.59375-.0077.02195-.0233.04069-.03125.0625-.06274.173739-.138383.367449-.21875.53125-.04158.0828-.07904.169954-.125.25-.0546.09721-.126774.18835-.1875.28125-.09411.140965-.204921.275995-.3125.40625-.143174.17445-.303141.346998-.46875.5-.01117.0102-.01998.02115-.03125.03125-.138386.125556-.285091.234436-.4375.34375-.102571.07315-.204318.153364-.3125.21875-.0074.0045-.02384-.0044-.03125 0-.232039.138728-.462548.274778-.71875.375.301527-.0968.596455-.204138.875-.34375.55709-.279224 1.060053-.665694 1.5-1.09375.219973-.214028.409366-.441865.59375-.6875s.355408-.507743.5-.78125c.14012-.265048.276135-.524729.375-.8125.01041-.03078.02133-.06274.03125-.09375.09046-.278085.1388-.579404.1875-.875.0524-.31805.09375-.634029.09375-.96875v-2-68-2c0-3.324-2.676-6-6-6z" fill="url(#b)" opacity=".4"/><path d="m12 90c-3.324 0-6-2.676-6-6v-2-68-2c0-.334721.04135-.6507.09375-.96875.0487-.295596.09704-.596915.1875-.875.00988-.03038.020892-.0636.03125-.09375.098865-.287771.2348802-.547452.375-.8125.1445918-.273507.3156161-.535615.5-.78125s.3737765-.473472.59375-.6875c.439947-.428056.94291-.814526 1.5-1.09375.278545-.139612.5734731-.246947.875-.34375-.2562018.100222-.4867109.236272-.71875.375-.00741.0044-.023866-.0045-.03125 0-.031933.0193-.062293.04251-.09375.0625-.120395.0767-.2310226.163513-.34375.25-.1061728.0808-.2132809.161112-.3125.25-.1779299.161433-.3474596.345388-.5.53125-.1075789.130255-.2183939.265285-.3125.40625-.025089.03838-.038446.08587-.0625.125-.064763.103032-.1302275.204517-.1875.3125-.1010083.194706-.2056748.415701-.28125.625-.00796.02181-.023589.04055-.03125.0625-.0318251.09195-.0358045.186831-.0625.28125-.0303323.106618-.0703894.203031-.09375.3125-.0728786.341512-.125.698205-.125 1.0625v2 68 2c0 2.781848 2.2181517 5 5 5h2 68 2c2.781848 0 5-2.218152 5-5v-2-68-2c0-.364295-.05212-.720988-.125-1.0625-.04415-.206893-.08838-.397658-.15625-.59375-.0077-.02195-.0233-.04069-.03125-.0625-.06274-.173739-.138383-.367449-.21875-.53125-.04158-.0828-.07904-.169954-.125-.25-.0546-.09721-.126774-.18835-.1875-.28125-.09411-.140965-.204921-.275995-.3125-.40625-.143174-.17445-.303141-.346998-.46875-.5-.01117-.0102-.01998-.02115-.03125-.03125-.138386-.125556-.285091-.234436-.4375-.34375-.102571-.07315-.204318-.153364-.3125-.21875-.0074-.0045-.02384.0044-.03125 0-.232039-.138728-.462548-.274778-.71875-.375.301527.0968.596455.204138.875.34375.55709.279224 1.060053.665694 1.5 1.09375.219973.214028.409366.441865.59375.6875s.355408.507743.5.78125c.14012.265048.276135.524729.375.8125.01041.03078.02133.06274.03125.09375.09046.278085.1388.579404.1875.875.0524.31805.09375.634029.09375.96875v2 68 2c0 3.324-2.676 6-6 6z" fill="url(#e)" opacity=".2"/><path d="m69.584167 42.960445c.07037 1.888848-.551175 2.806692-1.113295 4.429726l-1.010878.502703c-.826372 1.605835.08209 1.019477-.509741 2.296172-1.291547 1.146913-3.913733 3.587718-4.753395 3.811316-.61372-.01336.41514-.723955.549612-1.001497-1.727015 1.185223-1.386146 1.779396-4.027878 2.501005l-.07662-.172781c-6.512465 3.064691-15.55955-3.007616-15.440717-11.291658-.06881.525374-.1978.394031-.34165.60512-.336177-4.261638 1.968595-8.54204 5.855745-10.292508 3.801933-1.881032 8.259023-1.110169 10.9805 1.429925-1.494817-1.95921-4.472725-4.036475-7.999465-3.844151-3.456373.0563-6.690717 2.252391-7.769613 4.637688-1.770014 1.114077-1.976412 4.296819-2.747275 4.880049-1.039022 7.630451 1.952177 10.925773 7.012823 14.804325.794318.536321.223597.61841.329922 1.026515-1.680887-.786499-3.219487-1.974848-4.486016-3.429794.672357.982734 1.397094 1.938103 2.334482 2.68864-1.58629-.535539-3.70421-3.841025-4.321058-3.975496 2.732424 4.892556 11.08448 8.580346 15.460263 6.750134-2.024885.07505-4.59625.04144-6.869751-.799009-.957715-.491757-2.254736-1.508891-2.022538-1.698869 5.969891 2.228935 12.135233 1.687143 17.299857-2.452534 1.315003-1.024168 2.750405-2.765257 3.165543-2.788711-.624666.939734.107105.451887-.372923 1.281386 1.307186-2.111666-.569939-.85999 1.352528-3.646356l.709885.977261c-.265815-1.754378 2.177335-3.882462 1.92872-6.654755.560557-.847481.624666.913153.03049 2.862984.824809-2.163265.218124-2.51117.429212-4.29682.227507.600429.530067 1.237603.684081 1.87165-.537881-2.091338.549614-3.520485.82012-4.736197-.26738-.11728-.829499.924099-.959281-1.544854.01954-1.07264.299433-.56212.406542-.82637-.209526-.121176-.762266-.943643-1.097659-2.520551.241577-.37136.650463.960844.98195 1.014788-.213427-1.253239-.580095-2.209392-.595732-3.171798-.969442-2.024884-.343215.270507-1.128151-.86937-1.031986-3.21636.855299-.746627.983516-2.207046 1.562056 2.263335 2.452535 5.773656 2.862985 7.227037-.312724-1.772359-.816991-3.489992-1.433839-5.151335.476122.200924-.76539-3.645573.618413-1.09844-1.476837-5.429661-6.315449-10.503597-10.767851-12.883423.543357.498013 1.230567 1.123459.985081 1.221966-2.215647-1.317347-1.826306-1.421327-2.14372-1.977974-1.802069-.734118-1.922467.06019-3.114725.0016-3.400867-1.804414-4.056023-1.612871-7.1856-2.741802l.142281.6661c-2.252388-.750535-2.624531.283016-5.058299.0016-.147771-.114929.780244-.41905 1.544852-.529285-2.178118.287705-2.076483-.429994-4.20769.07897.524592-.368233 1.081238-.612938 1.641015-.925662-1.775489.107894-4.240529 1.033551-3.479832.190761-2.896599 1.293112-8.041681 3.107688-10.928898 5.815091l-.09068-.606683c-1.322823 1.587853-5.768965 4.74245-6.123125 6.800951l-.35416.08209c-.687214 1.165638-1.133627 2.486114-1.67933 3.684626-.899862 1.534691-1.319691.591046-1.191475.831844-1.770796 3.590065-2.651893 6.606282-3.411032 9.081486.541013.809172.01336 4.872233.217343 8.123773-.888132 16.061473 11.272115 31.654643 24.564424 35.25409 1.948265.698154 4.844868.673138 7.309127.741936-2.906764-.831845-3.282032-.440157-6.115306-1.427582-2.042866-.963189-2.49006-2.06163-3.937968-3.317995l.573064 1.012441c-2.837964-1.004666-1.650398-1.243118-3.959858-1.974108l.612156-.798227c-.920192-.07037-2.436898-1.549545-2.851257-2.371224l-1.006971.03988c-1.208675-1.490131-1.853664-2.566681-1.805974-3.400872l-.325233.580104c-.368231-.632483-4.449273-5.596185-2.332137-4.440672-.393249-.35807-.916279-.584012-1.483089-1.615217l.430775-.491757c-1.017132-1.311093-1.874775-2.9912-1.809103-3.550976.543356.733338.920187.870936 1.293893.996807-2.572931-6.382683-2.717568-.351031-4.665053-6.496829l.411233-.03284c-.31507-.477685-.508176-.992897-.761483-1.500291l.179816-1.786432c-1.851322-2.139029-.517556-9.10416-.249397-12.923295.183726-1.552671 1.545635-3.206195 2.579968-5.799455l-.630137-.107895c1.205549-2.101501 6.881479-8.442749 9.51148-8.117518 1.273567-1.59958-.253303-.0063-.502701-.408103 2.798091-2.895038 3.677628-2.045211 5.565696-2.566677 2.035047-1.207895-1.747343.472212-.782591-.460485 3.520483-.898299 2.49397-2.043648 7.085532-2.499442.48472.275196-1.123461.425303-1.526873.78259 2.93178-1.4354 9.279283-1.107823 13.404105.795881 4.782324 2.236755 10.15882 8.84538 10.37147 15.063103l.241581.06489c-.121965 2.472077.378394 5.331152-.490196 7.956464l.587139-1.243856" fill="#fff"/><rect height="66" rx="12" style="opacity:.1;stroke:#fff;stroke-width:.5;stroke-linecap:round;clip-path:url(#f);fill:url(#d);filter:url(#c)" width="66" x="15" y="15"/></svg>