<svg height="96" width="96" xmlns="http://www.w3.org/2000/svg" xmlns:xlink="http://www.w3.org/1999/xlink"><linearGradient id="a"><stop offset="0"/><stop offset="1" stop-opacity="0"/></linearGradient><linearGradient id="b" gradientTransform="matrix(2.1683519 0 0 2.2464645 141.9485 -68.590473)" gradientUnits="userSpaceOnUse" x1="-51.786404" x2="-51.786404" xlink:href="#a" y1="53.514328" y2="3.633682"/><linearGradient id="c" gradientTransform="matrix(2.6658408 0 0 2.6469079 -143.33283 -66.049513)" gradientUnits="userSpaceOnUse" x1="97.538795" x2="97.538795" y1="8.810323" y2="44.260689"><stop offset="0" stop-color="#fff"/><stop offset=".1088333" stop-color="#fff" stop-opacity=".235294"/><stop offset=".97909725" stop-color="#fff" stop-opacity=".156863"/><stop offset="1" stop-color="#fff" stop-opacity=".392157"/></linearGradient><linearGradient id="d" gradientTransform="matrix(1 0 0 1.0266674 147 -70.186593)" gradientUnits="userSpaceOnUse" x1="-91" x2="-91" y1="43.999817" y2="119.05979"><stop offset="0" stop-color="#55a7f3"/><stop offset="1" stop-color="#1374cf"/></linearGradient><linearGradient id="e" gradientTransform="matrix(3.036796 0 0 2.6909701 -8.883113 -65.364613)" gradientUnits="userSpaceOnUse" x1="22.934725" x2="22.934725" y1="49.629246" y2="36.599415"><stop offset="0" stop-color="#0a0a0a" stop-opacity=".498"/><stop offset="1" stop-color="#0a0a0a" stop-opacity="0"/></linearGradient><linearGradient id="f" gradientTransform="matrix(2.6658408 0 0 2.7170994 -143.33283 -69.198823)" gradientUnits="userSpaceOnUse" x1="97.538795" x2="97.538795" y1="16.962049" y2="44.260689"><stop offset="0" stop-color="#fff"/><stop offset=".0221225" stop-color="#fff" stop-opacity=".235294"/><stop offset=".97909725" stop-color="#fff" stop-opacity=".156863"/><stop offset="1" stop-color="#fff" stop-opacity=".392157"/></linearGradient><linearGradient id="g" gradientTransform="matrix(.2134205 0 0 .06641689 -13.147881 75.518568)" gradientUnits="userSpaceOnUse" x1="302.85715" x2="302.85715" y1="366.64789" y2="609.50507"><stop offset="0" stop-opacity="0"/><stop offset=".5"/><stop offset="1" stop-opacity="0"/></linearGradient><radialGradient id="h" cx="605.71429" cy="486.64789" gradientTransform="matrix(.08277507 0 0 .06641689 65.628912 75.518568)" gradientUnits="userSpaceOnUse" r="117.14286" xlink:href="#a"/><radialGradient id="i" cx="605.71429" cy="486.64789" gradientTransform="matrix(-.08277505 0 0 .06641689 62.347829 75.518568)" gradientUnits="userSpaceOnUse" r="117.14286" xlink:href="#a"/><g transform="matrix(.72580649 0 0 .72580649 1.554277 46.800454)"><path d="m12.999997-42.968593c-1.108 0-2 .892-2 2v5.96875h-3.0000004c-1.108 0-2 .892-2 2v11c0 1.108.892 2 2 2h112.0000034c1.108 0 2-.892 2-2v-11c0-1.108-.892-2-2-2h-62.999999v-5.96875c0-1.108-.892-2-2-2z" fill="#cecece"/><path d="m13.662787-43.499683c-1.87818.0205-3.16279.9143-3.16279 2.67225v5.32743c-.9606004 0-1.4771004-.003-2.1044004 0-1.67856.008-2.87762.94491-2.87762 2.83298.0936 27.4976499-.018 28.9219399-.018 31.2565499 3.90581 0 117.0000034-9.8866399 117.0000034-14.1422999v-17.14209c0-1.75796-1.15786-2.82564-3.03605-2.80514h-61.963949v-5.19887c0-1.75795-1.18743-2.80081-2.94827-2.80081h-40.888944z" fill="none" opacity=".8" stroke="url(#b)"/><path d="m13.499997-42.499843c-1.108 0-2 .892-2 2v6h-3.0000004c-1.108 0-2 .892-2 2v11c0 1.108.892 2 2 2h111.0000034c1.108 0 2-.892 2-2v-11c0-1.108-.892-2-2-2h-62.999999v-6c0-1.108-.892-2-2-2z" fill="none" stroke="url(#c)" stroke-linecap="round" stroke-linejoin="round"/><g transform="matrix(1.0027339 0 0 .9919518 -.163313 -57.066403)"><path d="m12.462574 99.870178h103.05159v16.129816h-103.05159z" fill="url(#g)" opacity=".3"/><path d="m115.51417 99.870734v16.128926c4.26271.0304 10.30516-3.61367 10.30516-8.0655s-4.75687-8.063426-10.30516-8.063426z" fill="url(#h)" opacity=".3"/><path d="m12.462574 99.870734v16.128926c-4.2627113.0304-10.3051588-3.61367-10.3051588-8.0655s4.7568636-8.063426 10.3051588-8.063426z" fill="url(#i)" opacity=".3"/></g><path d="m6.2499966-24.500053 115.4999934.001c1.66861 0 2.75001 1.18375 2.75001 2.65543l-2.71648 71.78068c.0386 1.86211-.55015 2.60044-2.48884 2.56139l-109.9330434-.0467c-1.66859 0-3.35116-1.09895-3.35116-2.57064l-2.51048-71.72469c0-1.47169 1.0814-2.65647 2.75-2.65647z" fill="url(#d)"/><path d="m5.7727166-25.000063 116.4545434.001c1.6824 0 2.77274 1.19912 2.77274 2.68993l-2.73893 72.7129c.0389 1.88629-.5547 2.63421-2.50941 2.59465l-110.8415834-.0474c-1.68238 0-3.37885-1.11323-3.37885-2.60404l-2.53123-72.65607c0-1.4908 1.09034-2.69097 2.77272-2.69097z" fill="url(#e)" opacity=".4"/><g fill="none" stroke-linecap="round" stroke-linejoin="round"><path d="m6.2499966-23.499853c-2.84882.29656-1.40933 3.76689-1.63989 5.72017.78584 22.5479499 1.57466 45.09583 2.35864 67.64381 1.18868 2.48974 4.4300904 1.28205 6.6383204 1.57433 35.235146.0205 70.470294.0412 105.705433.0617 2.566-.16531 1.15721-3.81803 1.65357-5.65555.85465-22.56949 2.54292-67.57135 2.54292-67.57135 0-1.16209-.77992-1.7731-2.20738-1.7731-37.089309 0-77.962299 0-115.0516134 0z" opacity=".5" stroke="url(#f)"/><path d="m6.2499966-24.500053 115.4999934.001c1.66861 0 2.75001 1.18375 2.75001 2.65543l-2.71648 71.78068c.0386 1.86211-.55015 2.60044-2.48884 2.56139l-109.9330434-.0467c-1.66859 0-3.35116-1.09895-3.35116-2.57064l-2.51048-71.72469c0-1.47169 1.0814-2.65647 2.75-2.65647z" opacity=".3" stroke="#000"/></g></g><g fill="#1b63a5" transform="matrix(.72580649 0 0 .72580649 15.026907 20.697064)"><path d="m58.15625 26.375c-2.802802 0-5.221983 1.742403-6.25 4.1875-.06845-.01677-.08346-.08113-.15625-.09375-1.241988-.215235-2.473028-.34375-3.6875-.34375-3.281759.000425-6.544831.820931-9.5 2.28125-.783662.388759-1.107093.989356-1.25 1.5-.03081.108626.07104.314969.0625.46875-.172446-.07796-.30451-.178885-.53125-.21875-.204154-.03595-.523832-.07788-.96875.03125-.09675.02373-.356266.04565-.875.4375h-.03125v-.03125c-3.436666 2.646862-5.977918 6.333385-7.28125 10.4375-.67701-.224195-1.376525-.40625-2.125-.40625-3.791089 0-6.90625 3.117298-6.90625 6.90625 0 3.788953 3.115162 6.90625 6.90625 6.90625.771784 0 1.492323-.199747 2.1875-.4375 1.31004 4.009336 3.809038 7.614321 7.15625 10.21875v-.03125h.03125c.292423.223804.957871.649742 1.8125.5.230725-.03973.357442-.140309.53125-.21875.0081.151181-.09099.365248-.0625.46875.144984.525055.439283 1.111825 1.21875 1.5 2.99541 1.499577 6.325094 2.28125 9.625 2.28125 1.213895 0 2.462774-.124438 3.71875-.34375.760485 2.976929 3.358419 5.25 6.5625 5.25 3.782564 0 6.90625-3.094371 6.90625-6.875 0-1.7442-.722792-3.291568-1.8125-4.5 3.340302-3.434953 5.430035-7.939324 5.90625-12.6875.06378-.629558-.213947-1.359954-.625-1.8125-.12818-.141132-.345511-.113294-.5-.21875.171855-.102846.342251-.138725.5-.3125.414596-.456716.682538-1.197385.625-1.8125-.435761-4.477068-2.320059-8.793599-5.34375-12.15625-.122592-.137057-.299654-.116361-.4375-.21875.805022-1.11499 1.375-2.407216 1.375-3.875 0-3.720502-3.058372-6.78125-6.78125-6.78125zm0 2c2.643984 0 4.78125 2.139433 4.78125 4.78125 0 2.641819-2.137266 4.78125-4.78125 4.78125s-4.78125-2.139431-4.78125-4.78125c0-2.641817 2.137266-4.78125 4.78125-4.78125zm-10.09375 3.75c1.074573 0 2.191111.112749 3.34375.3125.181008.03138.3125.223713.3125.40625 0 .0061.000383.1231 0 .125.000383 3.663728 3.00112 6.65625 6.6875 6.65625 1.263617 0 2.492772-.382741 3.59375-1.09375.155751-.100634.376776-.07526.5.0625 2.730438 3.036524 4.450353 6.958189 4.84375 11 .01.106383-.02219.20242-.09375.28125s-.174865.09375-.28125.09375h-7.3125c-.184836 0-.31467-.129582-.34375-.3125-.868689-5.447375-5.709523-9.53125-11.25-9.53125-1.506237 0-3.000912.298946-4.4375.90625-.170295.07156-.3704-.000118-.46875-.15625l-3.875-6.15625c-.05664-.090311-.06034-.17869-.03125-.28125.0287-.102556.09183-.20254.1875-.25 2.690258-1.329411 5.674137-2.062118 8.625-2.0625zm-11.71875 4c.05051-.01239.10401-.0092.15625 0 .104473.01837.19336.09795.25.1875l3.875 6.125c.09911.15728.04593.377928-.09375.5-2.47825 2.158669-3.875 5.245734-3.875 8.5 0 3.230157 1.391137 6.310848 3.84375 8.46875.13967.12284.16238.343486.0625.5l-3.90625 6.125c-.05702.08916-.145526.16951-.25.1875-.104855.01837-.19744-.02831-.28125-.09375-3.124984-2.431516-5.478867-5.836267-6.625-9.59375-.04516-.148478.0037-.3102.125-.40625 1.590428-1.259384 2.53125-3.199121 2.53125-5.1875 0-1.988378-.941205-3.928118-2.53125-5.1875-.122013-.09643-.17016-.258154-.125-.40625 1.155319-3.789245 3.523482-7.219377 6.6875-9.65625.04152-.03233.10574-.05011.15625-.0625zm11.71875 6c4.55768 0 8.570046 3.383933 9.28125 7.84375.08945.562679.515015 1.075273 1.0625 1.46875-.544662.349809-.981197.838414-1.09375 1.53125-.720438 4.423668-4.712598 7.8125-9.25 7.8125-1.247985 0-2.506551-.262021-3.71875-.78125-.536578-.228386-1.160232-.184326-1.75.03125-.03152-.596911-.259632-1.166236-.78125-1.625-2.025461-1.782077-3.15625-4.312822-3.15625-6.96875 0-2.681992 1.14071-5.217152 3.1875-7 .488224-.426679.702724-.997499.75-1.625.562028.242817 1.180249.328183 1.8125.0625 1.195138-.505233 2.414642-.75 3.65625-.75zm-22.5 4.5c2.70591 0 4.90625 2.202298 4.90625 4.90625 0 2.703954-2.20034 4.90625-4.90625 4.90625s-4.90625-2.202296-4.90625-4.90625c0-2.703952 2.20034-4.90625 4.90625-4.90625zm34.09375 6.34375h7.3125c.106386-.000382.2093.04578.28125.125.07195.07921.10449.175242.09375.28125-.433196 4.319248-2.350531 8.41513-5.40625 11.53125-.116718.11901-.290167.13942-.4375.0625-.968951-.50513-2.045965-.75-3.09375-.75-3.379851 0-6.236195 2.517029-6.625 5.875-.01952.164933-.117462.2838-.28125.3125-1.1668.207027-2.330399.3125-3.4375.3125-2.984922 0-6.007445-.705153-8.71875-2.0625-.09528-.04745-.15918-.14744-.1875-.25-.02833-.10294-.02577-.19132.03125-.28125l3.90625-6.15625c.09988-.15498.298839-.19732.46875-.125 1.452663.622229 2.976159.9375 4.5.9375 5.52517 0 10.338198-4.093189 11.21875-9.5.02947-.181388.190931-.312117.375-.3125zm-1.8125 12.9375c.164725-.01661.330881 0 .5 0 2.70591 0 4.90625 2.153745 4.90625 4.84375 0 2.690003-2.20034 4.875-4.90625 4.875s-4.90625-2.184997-4.90625-4.875c0-2.52188 1.935378-4.594567 4.40625-4.84375z" fill="#1b63a5" opacity=".05"/><path d="m58.15625 27.34375c-2.85604 0-5.145433 2.122399-5.625 4.84375-.176198-.363806-.431587-.662297-.9375-.75-1.198636-.207722-2.384656-.34375-3.53125-.34375-3.12121.000404-6.267114.759447-9.09375 2.15625-.449852.223163-.631255.593608-.71875.90625-.07772.273996-.05031.795641.15625 1.125l3.875 6.15625c.358291.568791 1.087756.809537 1.75.53125 1.312288-.554757 2.661246-.8125 4.03125-.8125 5.034528 0 9.431135 3.717275 10.21875 8.65625.09185.577757.708949 1.1875 1.375 1.1875h7.3125c.202644 0 .671689-.041411 1.03125-.4375.248157-.273368.409449-.694219.375-1.0625-.41441-4.257705-2.253233-8.360733-5.125-11.5625-.0055-.0061.0055-.02511 0-.03125-.409689-.440885-.978275-.507213-1.5-.3125 1.314613-1.067464 2.21875-2.62122 2.21875-4.4375 0-3.197129-2.613096-5.8125-5.8125-5.8125zm0 1.03125c2.643984 0 4.78125 2.139433 4.78125 4.78125 0 2.641819-2.137266 4.78125-4.78125 4.78125s-4.78125-2.139431-4.78125-4.78125c0-2.641817 2.137266-4.78125 4.78125-4.78125zm-10.09375 3.75c1.074573 0 2.191111.112749 3.34375.3125.181008.03138.3125.223713.3125.40625 0 .0061.000383.1231 0 .125.000383 3.663728 3.00112 6.65625 6.6875 6.65625 1.263617 0 2.492772-.382741 3.59375-1.09375.155751-.100634.376776-.07526.5.0625 2.730438 3.036524 4.450353 6.958189 4.84375 11 .01.106383-.02219.20242-.09375.28125s-.174865.09375-.28125.09375h-7.3125c-.184836 0-.31467-.129582-.34375-.3125-.868689-5.447375-5.709523-9.53125-11.25-9.53125-1.506237 0-3.000912.298946-4.4375.90625-.170295.07156-.3704-.000118-.46875-.15625l-3.875-6.15625c-.05664-.090311-.06034-.17869-.03125-.28125.0287-.102556.09183-.20254.1875-.25 2.690258-1.329411 5.674137-2.062118 8.625-2.0625zm-11.625 2.96875c-.100437-.0049-.216972.000155-.34375.03125-.07575.01858-.228059.01392-.53125.25-3.337298 2.57033-5.843265 6.15737-7.0625 10.15625-.132155.433383.133223.860527.40625 1.21875-.964433-.678152-2.082216-1.15625-3.34375-1.15625-3.264566 0-5.9375 2.674985-5.9375 5.9375 0 3.262517 2.672935 5.9375 5.9375 5.9375 1.22738 0 2.300778-.479989 3.25-1.125-.165703.322094-.420369.645324-.3125 1 1.21027 3.967749 3.705137 7.530053 7 10.09375.186513.145632.595369.368573 1.09375.28125.513907-.08849.771206-.364973.9375-.625l3.90625-6.125c.374013-.586086.307222-1.353672-.25-1.84375-2.232713-1.964426-3.5-4.752959-3.5-7.6875 0-2.959656 1.275118-5.753556 3.53125-7.71875.50508-.441409.700467-1.178465.28125-1.84375l-3.875-6.125c-.169464-.267929-.431592-.536053-.9375-.625-.06522-.01149-.149563-.02635-.25-.03125zm-.09375 1.03125c.05051-.01239.10401-.0092.15625 0 .104473.01837.19336.09795.25.1875l3.875 6.125c.09911.15728.04593.377928-.09375.5-2.47825 2.158669-3.875 5.245734-3.875 8.5 0 3.230157 1.391137 6.310848 3.84375 8.46875.13967.12284.16238.343486.0625.5l-3.90625 6.125c-.05702.08916-.145526.16951-.25.1875-.104855.01837-.19744-.02831-.28125-.09375-3.124984-2.431516-5.478867-5.836267-6.625-9.59375-.04516-.148478.0037-.3102.125-.40625 1.590428-1.259384 2.53125-3.199121 2.53125-5.1875 0-1.988378-.941205-3.928118-2.53125-5.1875-.122013-.09643-.17016-.258154-.125-.40625 1.155319-3.789245 3.523482-7.219377 6.6875-9.65625.04152-.03233.10574-.05011.15625-.0625zm-10.78125 10.5c2.70591 0 4.90625 2.202298 4.90625 4.90625 0 2.703954-2.20034 4.90625-4.90625 4.90625s-4.90625-2.202296-4.90625-4.90625c0-2.703952 2.20034-4.90625 4.90625-4.90625zm34.09375 5.3125c-.670311.0014-1.293882.495802-1.40625 1.1875-.798124 4.900684-5.170838 8.625-10.1875 8.625-1.381829 0-2.764879-.274546-4.09375-.84375-.569653-.242464-1.359104-.106538-1.75.5l-3.90625 6.15625c-.212917.335806-.228796.861398-.15625 1.125.08838.320062.271245.652142.71875.875 2.857564 1.430568 6.040422 2.1875 9.1875 2.1875 1.172495 0 2.401491-.126661 3.625-.34375.285555-.05004.54738-.211943.75-.4375.122558 3.145693 2.723263 5.6875 5.90625 5.6875 3.260177 0 5.9375-2.654788 5.9375-5.90625 0-2.022786-1.088222-3.725489-2.65625-4.78125.383441.01446.781394-.05712 1.0625-.34375 3.22076-3.284423 5.23065-7.601153 5.6875-12.15625.03805-.375534-.128478-.791093-.375-1.0625-.266637-.293578-.624647-.47021-1.03125-.46875zm0 1.03125h7.3125c.106386-.000382.2093.04578.28125.125.07195.07921.10449.175242.09375.28125-.433196 4.319248-2.350531 8.41513-5.40625 11.53125-.116718.11901-.290167.13942-.4375.0625-.968951-.50513-2.045965-.75-3.09375-.75-3.379851 0-6.236195 2.517029-6.625 5.875-.01952.164933-.117462.2838-.28125.3125-1.1668.207027-2.330399.3125-3.4375.3125-2.984922 0-6.007445-.705153-8.71875-2.0625-.09528-.04745-.15918-.14744-.1875-.25-.02833-.10294-.02577-.19132.03125-.28125l3.90625-6.15625c.09988-.15498.298839-.19732.46875-.125 1.452663.622229 2.976159.9375 4.5.9375 5.52517 0 10.338198-4.093189 11.21875-9.5.02947-.181388.190931-.312117.375-.3125zm-1.8125 12.9375c.164725-.01661.330881 0 .5 0 2.70591 0 4.90625 2.153745 4.90625 4.84375 0 2.690003-2.20034 4.875-4.90625 4.875s-4.90625-2.184997-4.90625-4.875c0-2.52188 1.935378-4.594567 4.40625-4.84375z" fill="#1b63a5" opacity=".1"/><path d="m58.161417 28.368764c-2.643984 0-4.784898 2.142985-4.784898 4.784802 0 2.641819 2.140914 4.784803 4.784898 4.784803s4.784898-2.142984 4.784898-4.784803c0-2.641817-2.140914-4.784802-4.784898-4.784802zm-10.10517 3.747538c-2.950863.000382-5.942635.745118-8.632893 2.074529-.09567.04746-.155333.131665-.184034.234221-.02909.10256-.02318.210831.03346.301142l3.881456 6.139938c.09835.156132.298157.222132.468452.150571 1.436588-.607304 2.927321-.903424 4.433558-.903424 5.540477 0 10.374149 4.1055 11.242838 9.552875.02908.182918.183233.317872.368069.317872h7.29446c.106385 0 .212856-.03828.284417-.117111.07156-.07883.110332-.178028.100381-.284411-.393397-4.041811-2.121381-7.955138-4.851819-10.991662-.123224-.137763-.329431-.150834-.485182-.0502-1.100978.711009-2.350152 1.087455-3.613769 1.087455-3.68638 0-6.675052-2.994844-6.675435-6.658572.000383-.0019 0-.127718 0-.13384 0-.182537-.136869-.353413-.317877-.384792-1.152639-.199751-2.27151-.334596-3.346083-.334596zm-11.711289 4.015219c-.05051.01239-.109052.03459-.150573.06692-3.164018 2.436873-5.536846 5.86401-6.692165 9.653255-.04516.148096-.0049.305088.117113.401522 1.590045 1.259382 2.543022 3.197946 2.543022 5.186324 0 1.988379-.952594 3.926941-2.543022 5.186325-.12131.09605-.16227.253044-.117113.401522 1.146133 3.757483 3.50026 7.171549 6.625244 9.603065.08381.06544.179561.102022.284416.08365.104474-.01799.193937-.09487.250957-.18403l3.914916-6.123209c.09988-.156514.07275-.362333-.06692-.485173-2.452613-2.157902-3.864726-5.251993-3.864726-8.48215 0-3.254266 1.419936-6.356941 3.898186-8.51561.13968-.122072.182767-.327892.08366-.485172l-3.88146-6.139942c-.05664-.08955-.146484-.148932-.250957-.1673-.05224-.0092-.100059-.01239-.150574 0zm-10.791115 10.506489c-2.70591 0-4.902011 2.19796-4.902011 4.901912 0 2.703954 2.196101 4.885184 4.902011 4.885184s4.902011-2.18123 4.902011-4.885184c0-2.703952-2.196101-4.901912-4.902011-4.901912zm41.407771 6.323969-7.29446.01673c-.184069.000383-.355332.136484-.384799.317872-.880552 5.406811-5.700938 9.485954-11.226108 9.485954-1.523841 0-3.031087-.314655-4.48375-.936884-.169911-.07232-.368571-.02114-.468451.13384l-3.914917 6.13994c-.05702.08993-.06179.198201-.03346.301141.02832.10256.08875.186769.184035.234221 2.711305 1.357347 5.731622 2.074529 8.716544 2.074529 1.107101 0 2.262936-.110844 3.429736-.317871.163788-.0287.281631-.152938.301147-.317871.388805-3.357971 3.228662-5.888988 6.608513-5.888988 1.047785 0 2.126175.264453 3.095126.769583.147333.07692.318273.05209.434991-.06692 3.055719-3.11612 4.987457-7.224505 5.420653-11.543753.01074-.106008-.02843-.205198-.100381-.284412-.07195-.07922-.178031-.117493-.284417-.117111zm-8.616163 12.932351c-2.70591 0-4.90201 2.178449-4.90201 4.868454 0 2.690003 2.1961 4.868452 4.90201 4.868452s4.902011-2.178449 4.902011-4.868452c0-2.690005-2.196101-4.868454-4.902011-4.868454z" fill="#00508c" opacity=".9"/><g fill="none"><path d="m58.15625 28.375c-2.643984 0-4.78125 2.139433-4.78125 4.78125 0 2.641819 2.137266 4.78125 4.78125 4.78125s4.78125-2.139431 4.78125-4.78125c0-2.641817-2.137266-4.78125-4.78125-4.78125zm0 .96875c2.115013 0 3.8125 1.699552 3.8125 3.8125 0 2.112951-1.697487 3.8125-3.8125 3.8125s-3.8125-1.699549-3.8125-3.8125c0-2.112948 1.697487-3.8125 3.8125-3.8125zm-10.09375 2.78125c-2.950863.000382-5.934742.733089-8.625 2.0625-.09567.04746-.158799.147444-.1875.25-.02909.10256-.02539.190939.03125.28125l3.875 6.15625c.09835.156132.298455.227811.46875.15625 1.436588-.607304 2.931263-.90625 4.4375-.90625 5.540477 0 10.381311 4.083875 11.25 9.53125.02908.182918.158914.3125.34375.3125h7.3125c.106385 0 .209689-.01492.28125-.09375.07156-.07883.103701-.174867.09375-.28125-.393397-4.041811-2.113312-7.963476-4.84375-11-.123224-.137763-.344249-.163134-.5-.0625-1.100978.711009-2.330133 1.09375-3.59375 1.09375-3.68638 0-6.687117-2.992522-6.6875-6.65625.000383-.0019 0-.118878 0-.125 0-.182537-.131492-.374871-.3125-.40625-1.152639-.199751-2.269177-.3125-3.34375-.3125zm0 .96875c.878031 0 1.824075.132953 2.78125.28125.226643 4.000927 3.490566 7.21875 7.5625 7.21875 1.26485 0 2.477564-.388718 3.59375-1 2.274819 2.650907 3.710685 5.962793 4.1875 9.40625h-6.09375c-1.168307-5.659111-6.192504-9.84375-12.03125-9.84375-1.463936 0-2.907895.286542-4.3125.8125l-3.21875-5.15625c2.389444-1.073593 4.972948-1.718419 7.53125-1.71875zm-11.71875 3.03125c-.05051.01239-.114729.03017-.15625.0625-3.164018 2.436873-5.532181 5.867005-6.6875 9.65625-.04516.148096.003.309816.125.40625 1.590045 1.259382 2.53125 3.199122 2.53125 5.1875 0 1.988379-.940822 3.928116-2.53125 5.1875-.12131.09605-.170157.257772-.125.40625 1.146133 3.757483 3.500016 7.162234 6.625 9.59375.08381.06544.176395.112122.28125.09375.104474-.01799.19298-.09834.25-.1875l3.90625-6.125c.09988-.156514.07717-.37716-.0625-.5-2.452613-2.157902-3.84375-5.238593-3.84375-8.46875 0-3.254266 1.39675-6.341331 3.875-8.5.13968-.122072.192857-.34272.09375-.5l-3.875-6.125c-.05664-.08955-.145527-.169132-.25-.1875-.05224-.0092-.105735-.01239-.15625 0zm-.03125 1.34375 3.21875 5.09375c-2.451596 2.32153-3.84375 5.510965-3.84375 8.875 0 3.342003 1.385449 6.523854 3.8125 8.84375l-3.25 5.0625c-2.62521-2.209557-4.6435-5.108104-5.6875-8.34375 1.575462-1.440197 2.5625-3.443469 2.5625-5.5625 0-2.119146-.987367-4.122353-2.5625-5.5625 1.053159-3.26727 3.091915-6.190033 5.75-8.40625zm-10.75 9.15625c-2.70591 0-4.90625 2.202298-4.90625 4.90625 0 2.703954 2.20034 4.90625 4.90625 4.90625s4.90625-2.202296 4.90625-4.90625c0-2.703952-2.20034-4.90625-4.90625-4.90625zm0 .96875c2.173857 0 3.9375 1.765513 3.9375 3.9375 0 2.17199-1.763642 3.9375-3.9375 3.9375s-3.9375-1.76551-3.9375-3.9375c0-2.171987 1.763643-3.9375 3.9375-3.9375zm34.09375 5.375c-.184069.000383-.345533.131112-.375.3125-.880552 5.406811-5.69358 9.5-11.21875 9.5-1.523841 0-3.047337-.315271-4.5-.9375-.169911-.07232-.36887-.02998-.46875.125l-3.90625 6.15625c-.05702.08993-.05958.17831-.03125.28125.02832.10256.09222.202548.1875.25 2.711305 1.357347 5.733828 2.0625 8.71875 2.0625 1.107101 0 2.2707-.105473 3.4375-.3125.163788-.0287.261734-.147567.28125-.3125.388805-3.357971 3.245149-5.875 6.625-5.875 1.047785 0 2.124799.24487 3.09375.75.147333.07692.320782.05651.4375-.0625 3.055719-3.11612 4.973054-7.212002 5.40625-11.53125.01074-.106008-.0218-.202036-.09375-.28125-.07195-.07922-.174864-.125382-.28125-.125zm.40625.96875h6.1875c-.516928 3.740483-2.171225 7.269268-4.78125 10.03125-.984943-.427529-2.030936-.71875-3.0625-.71875-3.684389 0-6.762523 2.64237-7.4375 6.21875-.984218.155162-1.980703.28125-2.90625.28125-2.612083 0-5.241159-.649837-7.65625-1.75l3.25-5.09375c1.431105.548547 2.909753.84375 4.40625.84375 5.825022 0 10.820137-4.193678 12-9.8125zm-2.21875 11.96875c-2.470872.249183-4.40625 2.32187-4.40625 4.84375 0 2.690003 2.20034 4.875 4.90625 4.875s4.90625-2.184997 4.90625-4.875c0-2.690005-2.20034-4.84375-4.90625-4.84375-.169119 0-.335275-.01661-.5 0zm.5.96875c2.185587 0 3.9375 1.719718 3.9375 3.875 0 2.15528-1.759463 3.90625-3.9375 3.90625s-3.9375-1.75097-3.9375-3.90625c0-2.155282 1.751913-3.875 3.9375-3.875zm-18.3125 1.71875c-.0089.02197.01126.04475 0 .0625h-.03125z" opacity=".5"/><path d="m58.15625 28.375c-2.643984 0-4.78125 2.139433-4.78125 4.78125 0 .170901.04502.333719.0625.5.252665-2.404116 2.245807-4.28125 4.71875-4.28125s4.466085 1.877134 4.71875 4.28125c.01748-.166281.0625-.329099.0625-.5 0-2.641817-2.137266-4.78125-4.78125-4.78125zm-10.09375 3.75c-2.950863.000382-5.934742.733089-8.625 2.0625-.09567.04746-.158799.147444-.1875.25-.02909.10256-.02539.190939.03125.28125l.25.40625c2.663788-1.298062 5.617598-1.999623 8.53125-2 1.074573 0 2.191111.112749 3.34375.3125.181008.03138.3125.223713.3125.40625 0 .0061.000383.1231 0 .125.000383 3.663728 3.00112 6.65625 6.6875 6.65625 1.263617 0 2.492772-.382741 3.59375-1.09375.155751-.100634.376776-.07526.5.0625 2.570512 2.85867 4.233537 6.49276 4.75 10.28125.07156-.07883.103701-.174867.09375-.28125-.393397-4.041811-2.113312-7.963476-4.84375-11-.123224-.137763-.344249-.163134-.5-.0625-1.100978.711009-2.330133 1.09375-3.59375 1.09375-3.68638 0-6.687117-2.992522-6.6875-6.65625.000383-.0019 0-.118878 0-.125 0-.182537-.131492-.374871-.3125-.40625-1.152639-.199751-2.269177-.3125-3.34375-.3125zm-11.71875 4c-.05051.01239-.114729.03017-.15625.0625-3.164018 2.436873-5.532181 5.867005-6.6875 9.65625-.04516.148096.003.309816.125.40625.0233.01846.03947.04375.0625.0625 1.209374-3.576565 3.485271-6.803107 6.5-9.125.04152-.03233.10574-.05011.15625-.0625s.10401-.0092.15625 0c.104473.01837.19336.09795.25.1875l3.65625 5.75c.04434-.03986.07996-.08576.125-.125.13968-.122072.192857-.34272.09375-.5l-3.875-6.125c-.05664-.08955-.145527-.169132-.25-.1875-.05224-.0092-.105735-.01239-.15625 0zm-10.78125 10.5c-2.70591 0-4.90625 2.202298-4.90625 4.90625 0 .168997.0145.335492.03125.5.25118-2.469463 2.338209-4.40625 4.875-4.40625s4.62382 1.936787 4.875 4.40625c.01675-.164508.03125-.331003.03125-.5 0-2.703952-2.20034-4.90625-4.90625-4.90625zm6.5625 5.3125c-.143643 1.810907-1.042223 3.533156-2.5 4.6875-.12131.09605-.170157.257772-.125.40625.05516.180846.126789.352066.1875.53125 1.548632-1.26041 2.46875-3.165761 2.46875-5.125 0-.165842-.01817-.335216-.03125-.5zm4.5625 0c-.0074.166076-.03125.333019-.03125.5 0 3.156769 1.337003 6.162455 3.6875 8.3125l.21875-.34375c.09988-.156514.07717-.37716-.0625-.5-2.326766-2.047177-3.675949-4.919583-3.8125-7.96875zm22.96875 1.03125c-.184069.000383-.345533.131112-.375.3125-.880552 5.406811-5.69358 9.5-11.21875 9.5-1.523841 0-3.047337-.315271-4.5-.9375-.169911-.07232-.36887-.02998-.46875.125l-3.90625 6.15625c-.05702.08993-.05958.17831-.03125.28125.02832.10256.09222.202548.1875.25.04178.02092.08307.04189.125.0625l3.625-5.75c.09988-.15498.298839-.19732.46875-.125 1.452663.622229 2.976159.9375 4.5.9375 5.52517 0 10.338198-4.093189 11.21875-9.5.02947-.181388.190931-.312117.375-.3125h7.3125c.106386-.000382.2093.04578.28125.125.03384-.241786.06935-.475487.09375-.71875.01074-.106008-.0218-.202036-.09375-.28125-.07195-.07922-.174864-.125382-.28125-.125zm-1.8125 12.9375c-2.470872.249183-4.40625 2.32187-4.40625 4.84375 0 .168125.0145.336278.03125.5.25118-2.455827 2.338209-4.34375 4.875-4.34375s4.62382 1.887923 4.875 4.34375c.01675-.163722.03125-.331875.03125-.5 0-2.690005-2.20034-4.84375-4.90625-4.84375-.169119 0-.335275-.01661-.5 0z"/></g></g></svg>