<svg height="96" width="96" xmlns="http://www.w3.org/2000/svg" xmlns:xlink="http://www.w3.org/1999/xlink"><linearGradient id="a"><stop offset="0"/><stop offset="1" stop-opacity="0"/></linearGradient><linearGradient id="b" gradientTransform="matrix(2.1683519 0 0 2.2464645 141.9485 -68.590473)" gradientUnits="userSpaceOnUse" x1="-51.786404" x2="-51.786404" xlink:href="#a" y1="53.514328" y2="3.633682"/><linearGradient id="c" gradientTransform="matrix(2.6658408 0 0 2.6469079 -143.33283 -66.049513)" gradientUnits="userSpaceOnUse" x1="97.538795" x2="97.538795" y1="8.810323" y2="44.260689"><stop offset="0" stop-color="#fff"/><stop offset=".1088333" stop-color="#fff" stop-opacity=".235294"/><stop offset=".97909725" stop-color="#fff" stop-opacity=".156863"/><stop offset="1" stop-color="#fff" stop-opacity=".392157"/></linearGradient><linearGradient id="d" gradientTransform="matrix(1 0 0 1.0266674 147 -70.186593)" gradientUnits="userSpaceOnUse" x1="-91" x2="-91" y1="43.999817" y2="119.05979"><stop offset="0" stop-color="#55a7f3"/><stop offset="1" stop-color="#1374cf"/></linearGradient><linearGradient id="e" gradientTransform="matrix(3.036796 0 0 2.6909701 -8.883113 -65.364613)" gradientUnits="userSpaceOnUse" x1="22.934725" x2="22.934725" y1="49.629246" y2="36.599415"><stop offset="0" stop-color="#0a0a0a" stop-opacity=".498"/><stop offset="1" stop-color="#0a0a0a" stop-opacity="0"/></linearGradient><linearGradient id="f" gradientTransform="matrix(2.6658408 0 0 2.7170994 -143.33283 -69.198823)" gradientUnits="userSpaceOnUse" x1="97.538795" x2="97.538795" y1="16.962049" y2="44.260689"><stop offset="0" stop-color="#fff"/><stop offset=".0221225" stop-color="#fff" stop-opacity=".235294"/><stop offset=".97909725" stop-color="#fff" stop-opacity=".156863"/><stop offset="1" stop-color="#fff" stop-opacity=".392157"/></linearGradient><linearGradient id="g" gradientTransform="matrix(.2134205 0 0 .06641689 -13.147881 75.518568)" gradientUnits="userSpaceOnUse" x1="302.85715" x2="302.85715" y1="366.64789" y2="609.50507"><stop offset="0" stop-opacity="0"/><stop offset=".5"/><stop offset="1" stop-opacity="0"/></linearGradient><radialGradient id="h" cx="605.71429" cy="486.64789" gradientTransform="matrix(.08277507 0 0 .06641689 65.628912 75.518568)" gradientUnits="userSpaceOnUse" r="117.14286" xlink:href="#a"/><radialGradient id="i" cx="605.71429" cy="486.64789" gradientTransform="matrix(-.08277505 0 0 .06641689 62.347829 75.518568)" gradientUnits="userSpaceOnUse" r="117.14286" xlink:href="#a"/><g transform="matrix(.72580649 0 0 .72580649 1.554274 46.800461)"><path d="m12.999997-42.968593c-1.108 0-2 .892-2 2v5.96875h-3.0000004c-1.108 0-2 .892-2 2v11c0 1.108.892 2 2 2h112.0000034c1.108 0 2-.892 2-2v-11c0-1.108-.892-2-2-2h-62.999999v-5.96875c0-1.108-.892-2-2-2z" fill="#cecece"/><path d="m13.662787-43.499683c-1.87818.0205-3.16279.9143-3.16279 2.67225v5.32743c-.9606004 0-1.4771004-.003-2.1044004 0-1.67856.008-2.87762.94491-2.87762 2.83298.0936 27.4976499-.018 28.9219399-.018 31.2565499 3.90581 0 117.0000034-9.8866399 117.0000034-14.1422999v-17.14209c0-1.75796-1.15786-2.82564-3.03605-2.80514h-61.963949v-5.19887c0-1.75795-1.18743-2.80081-2.94827-2.80081h-40.888944z" fill="none" opacity=".8" stroke="url(#b)"/><path d="m13.499997-42.499843c-1.108 0-2 .892-2 2v6h-3.0000004c-1.108 0-2 .892-2 2v11c0 1.108.892 2 2 2h111.0000034c1.108 0 2-.892 2-2v-11c0-1.108-.892-2-2-2h-62.999999v-6c0-1.108-.892-2-2-2z" fill="none" stroke="url(#c)" stroke-linecap="round" stroke-linejoin="round"/><g transform="matrix(1.0027339 0 0 .9919518 -.163313 -57.066403)"><path d="m12.462574 99.870178h103.05159v16.129816h-103.05159z" fill="url(#g)" opacity=".3"/><path d="m115.51417 99.870734v16.128926c4.26271.0304 10.30516-3.61367 10.30516-8.0655s-4.75687-8.063426-10.30516-8.063426z" fill="url(#h)" opacity=".3"/><path d="m12.462574 99.870734v16.128926c-4.2627113.0304-10.3051588-3.61367-10.3051588-8.0655s4.7568636-8.063426 10.3051588-8.063426z" fill="url(#i)" opacity=".3"/></g><path d="m6.2499966-24.500053 115.4999934.001c1.66861 0 2.75001 1.18375 2.75001 2.65543l-2.71648 71.78068c.0386 1.86211-.55015 2.60044-2.48884 2.56139l-109.9330434-.0467c-1.66859 0-3.35116-1.09895-3.35116-2.57064l-2.51048-71.72469c0-1.47169 1.0814-2.65647 2.75-2.65647z" fill="url(#d)"/><path d="m5.7727166-25.000063 116.4545434.001c1.6824 0 2.77274 1.19912 2.77274 2.68993l-2.73893 72.7129c.0389 1.88629-.5547 2.63421-2.50941 2.59465l-110.8415834-.0474c-1.68238 0-3.37885-1.11323-3.37885-2.60404l-2.53123-72.65607c0-1.4908 1.09034-2.69097 2.77272-2.69097z" fill="url(#e)" opacity=".4"/><g fill="none" stroke-linecap="round" stroke-linejoin="round"><path d="m6.2499966-23.499853c-2.84882.29656-1.40933 3.76689-1.63989 5.72017.78584 22.5479499 1.57466 45.09583 2.35864 67.64381 1.18868 2.48974 4.4300904 1.28205 6.6383204 1.57433 35.235146.0205 70.470294.0412 105.705433.0617 2.566-.16531 1.15721-3.81803 1.65357-5.65555.85465-22.56949 2.54292-67.57135 2.54292-67.57135 0-1.16209-.77992-1.7731-2.20738-1.7731-37.089309 0-77.962299 0-115.0516134 0z" opacity=".5" stroke="url(#f)"/><path d="m6.2499966-24.500053 115.4999934.001c1.66861 0 2.75001 1.18375 2.75001 2.65543l-2.71648 71.78068c.0386 1.86211-.55015 2.60044-2.48884 2.56139l-109.9330434-.0467c-1.66859 0-3.35116-1.09895-3.35116-2.57064l-2.51048-71.72469c0-1.47169 1.0814-2.65647 2.75-2.65647z" opacity=".3" stroke="#000"/></g></g><g fill="#1b63a5" transform="matrix(.72580649 0 0 .72580649 14.314793 19.365101)"><path d="m45.825935 76.78619c-.994078 0-1.798989-.824633-1.798989-1.835696v-3.561253c-1.77747-.473584-3.475849-1.188928-5.029805-2.092693l-2.533269 2.533261c-.357467.357466-.78567.54679-1.248267.550709-.462598.0039-.933532-.162538-1.284986-.513995l-4.956386-4.956382c-.702909-.702914-.678213-1.81833.03664-2.533261l2.533264-2.53326c-.903763-1.553954-1.619105-3.252336-2.092701-5.029809h-3.561246c-1.011064 0-1.8357-.80491-1.8357-1.798983v-6.975646c0-.994074.824636-1.798984 1.8357-1.798984h3.561246c.473596-1.777476 1.188938-3.475857 2.092698-5.02981l-2.533264-2.53326c-.714929-.71493-.739623-1.830346-.03664-2.533261l4.956386-4.956383c.702908-.702914 1.818328-.678213 2.533253.03673l2.533269 2.533262c1.553956-.903766 3.252335-1.619106 5.029805-2.092692v-3.561254c0-1.011063.804911-1.835697 1.798989-1.835697h6.975646c.994069 0 1.798981.824634 1.798981 1.835697v3.561254c1.777469.473586 3.475847 1.188926 5.029806 2.092692l2.533264-2.533262c.714927-.714929 1.830347-.739629 2.533265-.03673l4.956377 4.956383c.702908.702915.678213 1.818331-.03665 2.533261l-2.533256 2.53326c.903761 1.553953 1.6191 3.252334 2.092688 5.02981h3.561258c1.011054 0 1.835695.804908 1.835695 1.798984v6.975646c0 .994072-.824641 1.798983-1.835695 1.798983h-3.561258c-.473585 1.777473-1.188922 3.475855-2.092683 5.029809l2.533254 2.53326c.714927.714931.739631 1.830347.03665 2.533261l-4.956376 4.956382c-.70292.702915-1.818337.678217-2.533266-.03673l-2.533266-2.533262c-1.553957.903766-3.252335 1.61911-5.029804 2.092696v3.561249c0 1.011065-.804911 1.835697-1.798981 1.835697h-6.975646zm3.487819-17.622686c4.215352 0 7.636501-3.421152 7.636501-7.636501 0-4.215345-3.421149-7.636496-7.636501-7.636496-4.215345 0-7.6365 3.421151-7.6365 7.636496 0 4.215349 3.421155 7.636501 7.6365 7.636501z" display="block" fill="#00508c" opacity=".9"/><path d="m45.833422 26.267674c-.994078 0-1.793981.818797-1.793981 1.829861v3.552083c-1.77747.473586-3.505071 1.213132-5.059028 2.116898l-2.511574-2.547453c-.714925-.714943-1.844545-.738794-2.547453-.03588l-4.951389 4.951389c-.702986.702914-.679049 1.832523.03588 2.547453l2.547453 2.511574c-.90376 1.553953-1.643302 3.281552-2.116898 5.059028h-3.552083c-1.011064 0-1.829861.799908-1.829861 1.793981v6.960648c0 .994073.818797 1.793981 1.829861 1.793981h3.552083c.473596 1.777473 1.213138 3.505074 2.116898 5.059028l-2.547453 2.511574c-.71485.714931-.738789 1.844539-.03588 2.547453l4.951389 4.951389c.351454.351456.829068.506218 1.291666.502315.462597-.0039.89832-.180729 1.255787-.538195l2.511574-2.547453c1.553957.903764 3.281558 1.643314 5.059028 2.116898v3.552083c0 1.011062.799903 1.829861 1.793981 1.829861h6.960648c.99407 0 1.793981-.818796 1.793981-1.829861v-3.552083c1.777469-.473586 3.505071-1.213132 5.059028-2.116898l2.511574 2.547453c.714929.714946 1.844534.738794 2.547453.03588l4.951389-4.951389c.702982-.702914.679047-1.832522-.03588-2.547453l-2.547453-2.511574c.903761-1.553954 1.643313-3.281555 2.116898-5.059028h3.552083c1.011053 0 1.829861-.799909 1.829861-1.793981v-6.960648c0-.994076-.818808-1.793981-1.829861-1.793981h-3.552083c-.473588-1.777476-1.213137-3.505075-2.116898-5.059028l2.547453-2.511574c.714862-.71493.738788-1.844539.03588-2.547453l-4.951389-4.951389c-.702918-.7029-1.832527-.679049-2.547453.03588l-2.511574 2.547453c-1.553959-.903766-3.281558-1.643312-5.059028-2.116898v-3.552083c0-1.011064-.799912-1.829861-1.793981-1.829861zm0 1.148148h6.960648c.363596 0 .645833.276227.645833.681713v3.552083a1.1482629 1.1482629 0 0 0 .861111 1.112269c1.668974.444677 3.302414 1.154568 4.771991 2.009259a1.1482629 1.1482629 0 0 0 1.399305-.215278l2.511574-2.511574c.296365-.296366.638157-.294707.896991-.03588l4.951389 4.951389c.2588.258803.26047.600612-.03588.896991l-2.511574 2.511574a1.1482629 1.1482629 0 0 0 -.215278 1.399305c.854686 1.469572 1.564579 3.103012 2.009259 4.771991a1.1482629 1.1482629 0 0 0 1.112269.861111h3.552083c.405474 0 .681713.282234.681713.645833v6.960648c0 .363593-.276242.645833-.681713.645833h-3.552083a1.1482629 1.1482629 0 0 0 -1.112269.861111c-.444676 1.668973-1.154572 3.302416-2.009259 4.771991a1.1482629 1.1482629 0 0 0 .215278 1.399305l2.511574 2.511574c.2964.296403.294728.638166.03588.896991l-4.951389 4.951388c-.258843.258841-.600618.2605-.896991-.03588l-2.511574-2.511573a1.1482629 1.1482629 0 0 0 -1.399305-.215278c-1.469573.85469-3.103018 1.564581-4.771991 2.009259a1.1482629 1.1482629 0 0 0 -.861111 1.112269v3.552083c0 .405488-.282234.681713-.645833.681713h-6.960648c-.36361 0-.645833-.276223-.645833-.681713v-3.552083a1.1482629 1.1482629 0 0 0 -.861111-1.112269c-1.668971-.444675-3.302415-1.154569-4.771991-2.009259a1.1482629 1.1482629 0 0 0 -1.399305.215278l-2.511574 2.511574c-.161458.161457-.254375.213785-.430556.215278-.199882.0017-.363579-.07654-.466435-.179399l-4.951388-4.951388c-.258798-.2588-.260469-.600609.03588-.896991l2.511573-2.511574a1.1482629 1.1482629 0 0 0 .215278-1.399305c-.854684-1.469571-1.56457-3.103008-2.009259-4.771991a1.1482629 1.1482629 0 0 0 -1.112269-.861111h-3.552083c-.405489 0-.681713-.28223-.681713-.645833v-6.960648c0-.363604.276224-.645833.681713-.645833h3.552083a1.1482629 1.1482629 0 0 0 1.112269-.861111c.444689-1.668985 1.154575-3.302421 2.009259-4.771991a1.1482629 1.1482629 0 0 0 -.215278-1.399305l-2.511574-2.511574c-.296401-.296402-.294731-.638166-.03588-.896991l4.951388-4.951389c.25882-.258822.600629-.260489.896991.03588l2.511574 2.511574a1.1482629 1.1482629 0 0 0 1.399305.215278c1.469575-.85469 3.103018-1.564582 4.771991-2.009259a1.1482629 1.1482629 0 0 0 .861111-1.112269v-3.552083c0-.405493.282223-.681713.645834-.681713zm3.480324 15.320601c-4.83763 0-8.790509 3.952879-8.790509 8.790509 0 4.837633 3.952879 8.790509 8.790509 8.790509 4.837636 0 8.790509-3.952877 8.790509-8.790509 0-4.837629-3.952872-8.790509-8.790509-8.790509zm0 1.148148c4.215352 0 7.642361 3.427016 7.642361 7.642361 0 4.215349-3.427009 7.642361-7.642361 7.642361-4.215345 0-7.642361-3.427012-7.642361-7.642361 0-4.215345 3.427016-7.642361 7.642361-7.642361z" display="block" fill="none" opacity=".5"/></g></svg>