<svg height="96" width="96" xmlns="http://www.w3.org/2000/svg" xmlns:xlink="http://www.w3.org/1999/xlink"><linearGradient id="a"><stop offset="0"/><stop offset="1" stop-opacity="0"/></linearGradient><linearGradient id="b" gradientTransform="matrix(2.1683519 0 0 2.2464645 141.9485 -68.590473)" gradientUnits="userSpaceOnUse" x1="-51.786404" x2="-51.786404" xlink:href="#a" y1="53.514328" y2="3.633682"/><linearGradient id="c" gradientTransform="matrix(2.6658408 0 0 2.6469079 -143.33283 -66.049513)" gradientUnits="userSpaceOnUse" x1="97.538795" x2="97.538795" y1="8.810323" y2="44.260689"><stop offset="0" stop-color="#fff"/><stop offset=".1088333" stop-color="#fff" stop-opacity=".235294"/><stop offset=".97909725" stop-color="#fff" stop-opacity=".156863"/><stop offset="1" stop-color="#fff" stop-opacity=".392157"/></linearGradient><linearGradient id="d" gradientTransform="matrix(1 0 0 1.0266674 147 -70.186593)" gradientUnits="userSpaceOnUse" x1="-91" x2="-91" y1="43.999817" y2="119.05979"><stop offset="0" stop-color="#55a7f3"/><stop offset="1" stop-color="#1374cf"/></linearGradient><linearGradient id="e" gradientTransform="matrix(3.036796 0 0 2.6909701 -8.883113 -65.364613)" gradientUnits="userSpaceOnUse" x1="22.934725" x2="22.934725" y1="49.629246" y2="36.599415"><stop offset="0" stop-color="#0a0a0a" stop-opacity=".498"/><stop offset="1" stop-color="#0a0a0a" stop-opacity="0"/></linearGradient><linearGradient id="f" gradientTransform="matrix(2.6658408 0 0 2.7170994 -143.33283 -69.198823)" gradientUnits="userSpaceOnUse" x1="97.538795" x2="97.538795" y1="16.962049" y2="44.260689"><stop offset="0" stop-color="#fff"/><stop offset=".0221225" stop-color="#fff" stop-opacity=".235294"/><stop offset=".97909725" stop-color="#fff" stop-opacity=".156863"/><stop offset="1" stop-color="#fff" stop-opacity=".392157"/></linearGradient><linearGradient id="g" gradientTransform="matrix(.2134205 0 0 .06641689 -13.147881 75.518568)" gradientUnits="userSpaceOnUse" x1="302.85715" x2="302.85715" y1="366.64789" y2="609.50507"><stop offset="0" stop-opacity="0"/><stop offset=".5"/><stop offset="1" stop-opacity="0"/></linearGradient><radialGradient id="h" cx="605.71429" cy="486.64789" gradientTransform="matrix(.08277507 0 0 .06641689 65.628912 75.518568)" gradientUnits="userSpaceOnUse" r="117.14286" xlink:href="#a"/><radialGradient id="i" cx="605.71429" cy="486.64789" gradientTransform="matrix(-.08277505 0 0 .06641689 62.347829 75.518568)" gradientUnits="userSpaceOnUse" r="117.14286" xlink:href="#a"/><g transform="matrix(.72580649 0 0 .72580649 2.129548 47.074633)"><path d="m12.999997-42.968593c-1.108 0-2 .892-2 2v5.96875h-3.0000004c-1.108 0-2 .892-2 2v11c0 1.108.892 2 2 2h112.0000034c1.108 0 2-.892 2-2v-11c0-1.108-.892-2-2-2h-62.999999v-5.96875c0-1.108-.892-2-2-2z" fill="#cecece"/><path d="m13.662787-43.499683c-1.87818.0205-3.16279.9143-3.16279 2.67225v5.32743c-.9606004 0-1.4771004-.003-2.1044004 0-1.67856.008-2.87762.94491-2.87762 2.83298.0936 27.4976499-.018 28.9219399-.018 31.2565499 3.90581 0 117.0000034-9.8866399 117.0000034-14.1422999v-17.14209c0-1.75796-1.15786-2.82564-3.03605-2.80514h-61.963949v-5.19887c0-1.75795-1.18743-2.80081-2.94827-2.80081h-40.888944z" fill="none" opacity=".8" stroke="url(#b)"/><path d="m13.499997-42.499843c-1.108 0-2 .892-2 2v6h-3.0000004c-1.108 0-2 .892-2 2v11c0 1.108.892 2 2 2h111.0000034c1.108 0 2-.892 2-2v-11c0-1.108-.892-2-2-2h-62.999999v-6c0-1.108-.892-2-2-2z" fill="none" stroke="url(#c)" stroke-linecap="round" stroke-linejoin="round"/><g transform="matrix(1.0027339 0 0 .9919518 -.163313 -57.066403)"><path d="m12.462574 99.870178h103.05159v16.129816h-103.05159z" fill="url(#g)" opacity=".3"/><path d="m115.51417 99.870734v16.128926c4.26271.0304 10.30516-3.61367 10.30516-8.0655s-4.75687-8.063426-10.30516-8.063426z" fill="url(#h)" opacity=".3"/><path d="m12.462574 99.870734v16.128926c-4.2627113.0304-10.3051588-3.61367-10.3051588-8.0655s4.7568636-8.063426 10.3051588-8.063426z" fill="url(#i)" opacity=".3"/></g><path d="m6.2499966-24.500053 115.4999934.001c1.66861 0 2.75001 1.18375 2.75001 2.65543l-2.71648 71.78068c.0386 1.86211-.55015 2.60044-2.48884 2.56139l-109.9330434-.0467c-1.66859 0-3.35116-1.09895-3.35116-2.57064l-2.51048-71.72469c0-1.47169 1.0814-2.65647 2.75-2.65647z" fill="url(#d)"/><path d="m5.7727166-25.000063 116.4545434.001c1.6824 0 2.77274 1.19912 2.77274 2.68993l-2.73893 72.7129c.0389 1.88629-.5547 2.63421-2.50941 2.59465l-110.8415834-.0474c-1.68238 0-3.37885-1.11323-3.37885-2.60404l-2.53123-72.65607c0-1.4908 1.09034-2.69097 2.77272-2.69097z" fill="url(#e)" opacity=".4"/><g fill="none" stroke-linecap="round" stroke-linejoin="round"><path d="m6.2499966-23.499853c-2.84882.29656-1.40933 3.76689-1.63989 5.72017.78584 22.5479499 1.57466 45.09583 2.35864 67.64381 1.18868 2.48974 4.4300904 1.28205 6.6383204 1.57433 35.235146.0205 70.470294.0412 105.705433.0617 2.566-.16531 1.15721-3.81803 1.65357-5.65555.85465-22.56949 2.54292-67.57135 2.54292-67.57135 0-1.16209-.77992-1.7731-2.20738-1.7731-37.089309 0-77.962299 0-115.0516134 0z" opacity=".5" stroke="url(#f)"/><path d="m6.2499966-24.500053 115.4999934.001c1.66861 0 2.75001 1.18375 2.75001 2.65543l-2.71648 71.78068c.0386 1.86211-.55015 2.60044-2.48884 2.56139l-109.9330434-.0467c-1.66859 0-3.35116-1.09895-3.35116-2.57064l-2.51048-71.72469c0-1.47169 1.0814-2.65647 2.75-2.65647z" opacity=".3" stroke="#000"/></g></g><g fill="#1b63a5" transform="matrix(.72580649 0 0 .72580649 14.525003 19.73215)"><path d="m41.53125 28c-4.486553 0-8.991024 1.691037-12.40625 5.09375-6.834424 6.809385-6.834424 17.940616 0 24.75 5.75926 5.738161 14.548183 6.640999 21.28125 2.6875.347368.02725.713547.03673 1 .09375.193916.0386.07969-.03663.15625 0 .0041.188378-.0059.387836 0 .75.01537.937518.271767 2.531996 1.5 3.71875l-.03125.03125.09375.09375 9.40625 9.53125s.02999.02996.03125.03125c.04704.04831.941821.964839 2.34375 1.1875 1.439393.228611 3.342068-.348256 5.03125-2.03125 1.690892-1.684695 2.262182-3.589553 2.03125-5.03125-.218911-1.36665-1.064343-2.221608-1.15625-2.3125l-.0625-.0625-9.40625-9.53125c-.02156-.02382-.04063-.0394-.0625-.0625-1.196484-1.26397-2.864616-1.461028-3.8125-1.46875-.346871-.0028-.530571.0019-.71875 0-.03463-.07217.04512.02628 0-.1875-.05994-.284015-.09591-.631103-.125-.96875 3.965848-6.708378 3.105349-15.478265-2.65625-21.21875-3.420131-3.407598-7.950947-5.09375-12.4375-5.09375zm0 2c3.97625 0 7.968383 1.510742 11 4.53125 5.285785 5.266415 5.961508 13.374852 2.03125 19.375.05134 1.019897.209565 2.665582.875 3.25.906046.79574 3.025354-.338596 4.40625 1.1875l9.53125 9.65625s1.877365 1.757721-.875 4.5c-2.752363 2.74228-4.5.875-4.5.875l-9.53125-9.65625c-1.531708-1.375833-.42008-3.503523-1.21875-4.40625-.586569-.662995-2.226356-.79258-3.25-.84375-6.022216 3.915858-14.151716 3.203919-19.4375-2.0625-6.063231-6.041016-6.063231-15.833983 0-21.875 3.031616-3.020508 6.9925-4.53125 10.96875-4.53125zm.0625 5.15625c-2.858235 0-5.438077 1.101196-7.3125 2.96875s-3.0625 4.495988-3.0625 7.34375c0 5.695529 4.658533 10.312502 10.375 10.3125 5.716472 0 10.34375-4.616971 10.34375-10.3125 0-5.695525-4.627281-10.3125-10.34375-10.3125zm0 2c4.631691 0 8.34375 3.708172 8.34375 8.3125 0 4.604333-3.712055 8.3125-8.34375 8.3125-4.631689.000002-8.375-3.715538-8.375-8.3125 0-2.287421.993593-4.405363 2.5-5.90625 1.500171-1.494673 3.534226-2.40625 5.875-2.40625z" fill="#1b63a5" opacity=".05"/><path d="m30.547424 34.530762c-6.063231 6.041017-6.063231 15.846725 0 21.887741 5.285784 5.266419 13.428825 5.967834 19.451041 2.051976 1.023644.05117 2.674338.191995 3.260907.85499.79867.902727-.330319 3.013115 1.201389 4.388948l9.526129 9.652446s1.767144 1.887287 4.519507-.854993c2.752365-2.742279.858137-4.502947.858137-4.502947l-9.526132-9.652443c-1.380896-1.526096-3.499043-.401246-4.405089-1.196986-.665435-.584418-.806789-2.229066-.858134-3.248963 3.930258-6.000148 3.226264-14.113354-2.059521-19.379769-6.063234-6.041016-15.905001-6.041016-21.968234 0zm3.718582 3.590957c1.874423-1.867554 4.464509-2.963964 7.322744-2.963964 5.716469 0 10.354817 4.621351 10.354817 10.316876 0 5.695529-4.638345 10.31688-10.354817 10.31688-5.716467.000002-10.354817-4.621351-10.354817-10.31688 0-2.847762 1.15765-5.485358 3.032073-7.352912z" fill="#00508c" opacity=".9"/></g></svg>