<svg height="48" width="48" xmlns="http://www.w3.org/2000/svg" xmlns:xlink="http://www.w3.org/1999/xlink"><linearGradient id="a"><stop offset="0" stop-color="#824b00"/><stop offset=".2" stop-color="#aa630a"/><stop offset="1" stop-color="#a0620c" stop-opacity="0"/></linearGradient><linearGradient id="b" gradientUnits="userSpaceOnUse" x1="34.230209" x2="34.201092" y1="37.216057" y2="7.800649"><stop offset="0" stop-color="#fff"/><stop offset="1" stop-color="#fff" stop-opacity="0"/></linearGradient><linearGradient id="c" gradientUnits="userSpaceOnUse" x1="6" x2="24" xlink:href="#a" y1="73" y2="73"/><linearGradient id="d" gradientTransform="matrix(-1 0 0 1 96 0)" gradientUnits="userSpaceOnUse" x1="6" x2="24" xlink:href="#a" y1="73" y2="73"/><linearGradient id="e" gradientUnits="userSpaceOnUse" x1="38.748035" x2="38.748035" y1="72.409348" y2="5.833157"><stop offset="0" stop-color="#cd9450"/><stop offset="1" stop-color="#eaaa69"/></linearGradient><radialGradient id="f" cx="90" cy="90" gradientTransform="matrix(0 -1.085034 2 0 -90 187.65306)" gradientUnits="userSpaceOnUse" r="42"><stop offset="0" stop-color="#cd9450"/><stop offset="1" stop-color="#bb8044"/></radialGradient><linearGradient id="g" gradientTransform="matrix(1.0058652 0 0 .994169 100 0)" gradientUnits="userSpaceOnUse" x1="45.447727" x2="45.447727" y1="92.539597" y2="7.01654"><stop offset="0"/><stop offset="1" stop-opacity=".588235"/></linearGradient><linearGradient id="h" gradientTransform="matrix(1.0238095 0 0 1.0119048 -1.142857 -98.071429)" gradientUnits="userSpaceOnUse" x1="32.251034" x2="32.251034" xlink:href="#g" y1="6.131708" y2="90.238609"/><linearGradient id="i" gradientTransform="translate(0 -97)" gradientUnits="userSpaceOnUse" x1="32.251034" x2="32.251034" xlink:href="#g" y1="6.131708" y2="90.238609"/><linearGradient id="j" gradientTransform="matrix(.4562495 0 0 .45339606 2.156757 -.797482)" gradientUnits="userSpaceOnUse" x1="49.632534" x2="49.696461" y1="57.329472" y2="8.431242"><stop offset="0" stop-color="#d3904f"/><stop offset="1" stop-color="#e7af6d"/></linearGradient><g transform="matrix(.50514756 0 0 .50514756 .005491 -.504804)"><g><g fill="url(#h)"><path d="m12-95.03125c-5.5110903 0-10.03125 4.52016-10.03125 10.03125v71c0 5.5110902 4.5201598 10.03125 10.03125 10.03125h72c5.51109 0 10.03125-4.5201597 10.03125-10.03125v-71c0-5.51109-4.52016-10.03125-10.03125-10.03125z" opacity=".08" transform="scale(1 -1)"/><path d="m12-94.03125c-4.971633 0-9.03125 4.059617-9.03125 9.03125v71c0 4.9716329 4.0596171 9.03125 9.03125 9.03125h72c4.971633 0 9.03125-4.059617 9.03125-9.03125v-71c0-4.971633-4.059617-9.03125-9.03125-9.03125z" opacity=".1" transform="scale(1 -1)"/><path d="m12-93c-4.4091333 0-8 3.590867-8 8v71c0 4.4091333 3.5908667 8 8 8h72c4.409133 0 8-3.5908667 8-8v-71c0-4.409133-3.590867-8-8-8z" opacity=".2" transform="scale(1 -1)"/><rect height="85" opacity=".3" rx="7" transform="scale(1 -1)" width="86" x="5" y="-92"/></g><rect fill="url(#i)" height="84" opacity=".45" rx="6" transform="scale(1 -1)" width="84" x="6" y="-91"/></g><g><path d="m12 6c-3.324 0-6 2.676-6 6v72c0 3.324 2.676 6 6 6h72c3.324 0 6-2.676 6-6v-72c0-3.324-2.676-6-6-6h-9v3h-6v-3z" fill="url(#f)"/><path d="m6 56v28c0 3.324 2.676 6 6 6h12v-34z" fill="url(#c)"/><path d="m90 56v28c0 3.324-2.676 6-6 6h-12v-34z" fill="url(#d)"/><path d="m6 82.000005v2c0 3.323999 2.676 5.999998 6 5.999998h72c3.324 0 6-2.675999 6-5.999998v-2c0 3.323999-2.676 5.999999-6 5.999999h-72c-3.324 0-6-2.676-6-5.999999z" fill="#502d16" opacity=".3"/><path d="m6 77.999996v2c0 3.324009 2.676 6.000008 6 6.000008h72c3.324 0 6-2.675999 6-6.000008v-2c0 3.324009-2.676 6.000009-6 6.000009h-72c-3.324 0-6-2.676-6-6.000009z" fill="#fff" opacity=".3"/><path d="m6 75.999997v1.999999c0 3.324009 2.676 6.000009 6 6.000009h72c3.324 0 6-2.676 6-6.000009v-1.999999c0 3.323999-2.676 6.000008-6 6.000008h-72c-3.324 0-6-2.676009-6-6.000008z" fill="#502d16" opacity=".3"/><path d="m6 71.999998v1.999999c0 3.323999 2.676 5.999999 6 5.999999h72c3.324 0 6-2.676 6-5.999999v-1.999999c0 3.323999-2.676 5.999998-6 5.999998h-72c-3.324 0-6-2.675999-6-5.999998z" fill="#fff" opacity=".3"/><path d="m6 69.999998v2c0 3.323999 2.676 5.999998 6 5.999998h72c3.324 0 6-2.675999 6-5.999998v-2c0 3.323999-2.676 5.999999-6 5.999999h-72c-3.324 0-6-2.676-6-5.999999z" fill="#502d16" opacity=".3"/><path d="m12 6c-3.3240002 0-6.0000004 2.676-6.0000004 6v56c0 3.324 2.6760002 6 6.0000004 6h72c3.324004 0 6.000003-2.676 6.000003-6v-56c0-3.324-2.675999-6-6.000003-6z" fill="url(#e)"/><path d="m12 6c-3.324 0-6 2.676-6 6v56c0 3.324 2.676 6 6 6h72c3.324 0 6-2.676 6-6v-56c0-3.324-2.676-6-6-6h-9v2h9c2.245802 0 4 1.7541975 4 4v56c0 2.245802-1.754198 4-4 4h-72c-2.2458025 0-4-1.754198-4-4v-56c0-2.2458025 1.7541975-4 4-4h57v-2z" fill="url(#b)" opacity=".4"/><g fill-rule="evenodd" transform="matrix(.90559401 0 0 .89993031 4.249355 -5.584331)"><path d="m47.918547 35.422607 44.292464 38.163485v2.323009l-88.187635.01002v-2.333026z" fill="#f5bb86" transform="translate(.002481 -.002868)"/><path d="m47.918547 36.122469 44.12566 37.815935c-.05722 8.708979-.0022 10.450315-8.179632 10.41443-14.698005-.000001-57.259929-.094774-71.957934-.094775-8.0110838.100578-7.9818151-3.120187-8.0504623-10.319657z" fill="#dc9e5e" transform="translate(.169285 1.97284)"/></g><g transform="matrix(1.97961956886 0 0 1.97961956992 -.01086938152 .99932090233)"><path d="m7.6135155 3.0015235c-2.0116645 0-3.6188313 1.6278703-3.6191406 3.6269531l-.0002343 1.5141015 20.0058594 18.5878909 20.025391-18.5878909.000234-1.5141015c.000309-1.9990828-1.607476-3.6269531-3.619141-3.6269531z" fill="#a1612a"/><path d="m7.5859375 2.7421875c-2.0116646 0-3.5917969 1.6278698-3.5917969 3.6269531v.7128906l20.0156254 18.5878908 20.015625-18.5878908v-.7128906c0-1.9990833-1.57818-3.6269531-3.589844-3.6269531-10.94987 0-21.89974 0-32.8496095 0z" fill="url(#j)"/></g><g stroke-width="1.97962" transform="translate(-.59738 -.080481)"><g fill="none" opacity=".5" stroke="#fff"><path d="m16.423467 58.578987h3.157596l2.190985 5.148815 2.203874-5.148815h3.151152v9.621002h-2.345643v-7.036929l-2.216762 5.18748h-1.572354l-2.216761-5.18748v7.036929h-2.352087z"/><path d="m33.422934 62.303661q.586411 0 .889283-.257763.302871-.257763.302871-.7604 0-.496194-.302871-.753957-.302872-.264207-.889283-.264207h-1.372587v2.036327zm.08377 4.207981q.747513 0 1.121269-.31576.380201-.315759.380201-.953723 0-.625075-.373757-.934391-.373756-.315759-1.127713-.315759h-1.45636v2.519633zm2.306979-3.460468q.799065.231987 1.237262.857062.438197.625075.438197 1.53369 0 1.39192-.940835 2.074991-.940834.683072-2.861169.683072h-4.117763v-9.621002h3.724675q2.004107 0 2.899833.605742.902171.605743.902171 1.939667 0 .702404-.328648 1.198598-.328648.489749-.953723.72818z"/><path d="m44.016991 60.202893q-1.134157 0-1.759232.83773-.625075.83773-.625075 2.358531 0 1.514357.625075 2.352087.625075.83773 1.759232.83773 1.140601 0 1.765676-.83773.625076-.83773.625076-2.352087 0-1.520801-.625076-2.358531-.625075-.83773-1.765676-.83773zm0-1.797896q2.319867 0 3.634458 1.327479 1.314591 1.327479 1.314591 3.666678 0 2.332755-1.314591 3.660234-1.314591 1.327479-3.634458 1.327479-2.313423 0-3.634458-1.327479-1.314591-1.327479-1.314591-3.660234 0-2.339199 1.314591-3.666678 1.321035-1.327479 3.634458-1.327479z"/><path d="m55.732317 63.289605 3.33803 4.910384h-2.584074l-2.248982-3.286478-2.229649 3.286478h-2.596962l3.33803-4.910384-3.209149-4.710618h2.590518l2.107212 3.099599 2.100769-3.099599h2.603406z"/></g><g fill="#653a00"><path d="m16.423467 58.578987h3.157596l2.190985 5.148815 2.203874-5.148815h3.151152v9.621002h-2.345643v-7.036929l-2.216762 5.18748h-1.572354l-2.216761-5.18748v7.036929h-2.352087z"/><path d="m33.422934 62.303661q.586411 0 .889283-.257763.302871-.257763.302871-.7604 0-.496194-.302871-.753957-.302872-.264207-.889283-.264207h-1.372587v2.036327zm.08377 4.207981q.747513 0 1.121269-.31576.380201-.315759.380201-.953723 0-.625075-.373757-.934391-.373756-.315759-1.127713-.315759h-1.45636v2.519633zm2.306979-3.460468q.799065.231987 1.237262.857062.438197.625075.438197 1.53369 0 1.39192-.940835 2.074991-.940834.683072-2.861169.683072h-4.117763v-9.621002h3.724675q2.004107 0 2.899833.605742.902171.605743.902171 1.939667 0 .702404-.328648 1.198598-.328648.489749-.953723.72818z"/><path d="m44.016991 60.202893q-1.134157 0-1.759232.83773-.625075.83773-.625075 2.358531 0 1.514357.625075 2.352087.625075.83773 1.759232.83773 1.140601 0 1.765676-.83773.625076-.83773.625076-2.352087 0-1.520801-.625076-2.358531-.625075-.83773-1.765676-.83773zm0-1.797896q2.319867 0 3.634458 1.327479 1.314591 1.327479 1.314591 3.666678 0 2.332755-1.314591 3.660234-1.314591 1.327479-3.634458 1.327479-2.313423 0-3.634458-1.327479-1.314591-1.327479-1.314591-3.660234 0-2.339199 1.314591-3.666678 1.321035-1.327479 3.634458-1.327479z"/><path d="m55.732317 63.289605 3.33803 4.910384h-2.584074l-2.248982-3.286478-2.229649 3.286478h-2.596962l3.33803-4.910384-3.209149-4.710618h2.590518l2.107212 3.099599 2.100769-3.099599h2.603406z"/></g></g></g></g></svg>