<svg height="48" width="48" xmlns="http://www.w3.org/2000/svg" xmlns:xlink="http://www.w3.org/1999/xlink"><linearGradient id="a" gradientTransform="matrix(1.1538423 0 0 1.1746103 -5.728901 4.720793)" gradientUnits="userSpaceOnUse" x1="32.891998" x2="36.358002" y1="8.059" y2="5.4565"><stop offset="0" stop-color="#f0f0f0"/><stop offset="1" stop-color="#b0b0b0"/></linearGradient><radialGradient id="b" cx="48" cy="90.171875" gradientTransform="matrix(.49599117 0 0 .42857136 .192419 4.354916)" gradientUnits="userSpaceOnUse" r="42" xlink:href="#c"/><linearGradient id="c"><stop offset="0" stop-color="#fff"/><stop offset="1" stop-color="#fff" stop-opacity="0"/></linearGradient><linearGradient id="d" gradientTransform="matrix(0 -.54642861 .42857142 0 3.428572 46.278573)" gradientUnits="userSpaceOnUse" x1="7.3709" x2="23.76619" y1="51.470146" y2="51.433136"><stop offset="0" stop-color="#961414"/><stop offset="1" stop-color="#be2828"/></linearGradient><linearGradient id="e" gradientUnits="userSpaceOnUse" x1="248.07678816" x2="248.07678816" y1="-62.6598922" y2="-98.66515562275"><stop offset="0" stop-color="#e0e0e0"/><stop offset="1" stop-color="#f0f0f0"/></linearGradient><linearGradient id="f" gradientTransform="matrix(.4285717 0 0 .43033246 3.42857 4.41801)" gradientUnits="userSpaceOnUse" x1="36.357143" x2="36.357143" xlink:href="#c" y1="6" y2="63.893143"/><linearGradient id="g" gradientTransform="matrix(1.0058652 0 0 .994169 100 0)" gradientUnits="userSpaceOnUse" x1="45.447727" x2="45.447727" y1="92.539597" y2="7.01654"><stop offset="0"/><stop offset="1" stop-opacity=".588235"/></linearGradient><linearGradient id="h" gradientTransform="matrix(.90932204 0 0 -.90907903 8.945106 90.567956)" gradientUnits="userSpaceOnUse" x1="32.251034" x2="32.251034" xlink:href="#g" y1="6.131708" y2="90.238609"/><linearGradient id="i" gradientTransform="matrix(.88394566 0 0 -.88394572 10.163169 89.361561)" gradientUnits="userSpaceOnUse" x1="32.251034" x2="32.251034" xlink:href="#g" y1="6.131708" y2="90.238609"/><linearGradient id="j" gradientTransform="matrix(.31746029 0 0 .31645815 4.095239 5.090192)" gradientUnits="userSpaceOnUse" x1="56.633896" x2="56.633896" y1="89.164001" y2="6.398416"><stop offset="0" stop-color="#d23232"/><stop offset="1" stop-color="#ff5a5a"/></linearGradient><g transform="matrix(1.05 0 0 1.05 -1.2 -2.25)"><g transform="matrix(.51177463 0 0 .51177463 -2.915536 .981307)"><path d="m20.618253 86.01187c-3.916074 0-7.105399-3.225978-7.105399-7.187076v-63.785252c0-3.961099 3.189325-7.1870759 7.105399-7.1870759h41.230022l29.823983 29.8239829v41.148345c0 3.961098-3.189315 7.187076-7.1054 7.187076z" fill="url(#h)" opacity=".2"/><path d="m21.510559 84.057885h62.16399c3.34823 0 6.04372-2.727212 6.04372-6.114824v-39.038079l-29.09854-29.0985314h-39.10917c-3.34822 0-6.04372 2.7272114-6.04372 6.1148244v62.021786c0 3.387612 2.6955 6.114824 6.04372 6.114824z" fill="url(#i)" opacity=".3"/></g><path d="m232.64822-98.6599h19.54285l13.88572 13.885715v19.542857c0 1.424571-1.14685 2.571428-2.57143 2.571428h-30.85714c-1.42458 0-2.57143-1.146857-2.57143-2.571428v-30.857144c0-1.424571 1.14685-2.571428 2.57143-2.571428z" fill="url(#e)" transform="translate(-224.07679 105.6599)"/><path d="m32.666665 14.107143c-7.465628 9.628608-18.968478 10.943271-26.6666652 9.55357v1.557539c7.2277922 1.304735 16.1733872 1.085076 22.6388962-1.617061-1.392774 2.016524-1.97583 4.2742-2.113099 6.329364-.08829 1.321892.000868 2.567724.148809 3.640873h1.279761c-.151954-1.035503-.245154-2.257717-.158731-3.551586.200161-2.996683 2.153205-9.11078 8.319305-12.239668z" fill-rule="evenodd" opacity=".1"/><path d="m22.74988 6.9891215c-1.253375 2.7506215-2.203142 5.5801735-2.833307 8.4315735-.327088.259474-.659458.501909-.999996.747627-3.88516 2.803361-8.545626 4.635068-12.9165772 4.527296v2.076744c3.8677789.36399 6.4408182 1.016484 8.1924032 3.338609 1.732395 2.296678 2.702368 4.567687 2.702368 7.460457h1.333329c0-2.884134-1.255383-6.310171-2.952366-8.249619-1.677035-1.916653-3.795036-2.804361-6.6507516-3.463215 3.8189106-.509674 7.6106766-2.202299 10.8749256-4.527295-.941408 5.449555-.787956 10.983623.374992 16.240129h9.208276c-4.601159-4.158625-6.591563-11.613117-6.583287-18.64915 2.594537-2.407644 5.975756-6.6862677 4.747084-7.9331565h-.497118c-.877834 2.0254641-2.349189 4.1039455-4.208298 6.0225515.113196-2.119874.452452-4.1490376.916659-6.0225515z" fill="url(#j)" fill-rule="evenodd"/><path d="m8.57143 7c-1.42457 0-2.57143 1.151568-2.57143 2.5819985v.8606615 28.234034c1.98322 4.185183.51348 2.977317.42857.430332v-28.09486-.860668c0-1.1971185.95064-2.151664 2.14286-2.151664h.85715 17.82858.85715l13.45714 13.326778v.860667 16.919747c-1.2063 3.165148.42855 3.584963.42855-.430333v-16.919747-.860668l-13.88571-13.896278z" fill="url(#f)" opacity=".6"/><path d="m23.095 7.0007336c3.179734 0 1.245573 14.2927244 1.245573 14.2927244s17.662844-1.870813 17.662844 3.984542c0-1.426319-.003417-4.392285-.003417-4.392285l-13.88572-13.885715z" fill-rule="evenodd" opacity=".2" stroke-width=".955713"/><path d="m22.746031 6.9889422c-1.253379 2.7506219-2.197213 5.5841878-2.827379 8.4355878-.327095.259473-.661443.49598-1.001981.741698-3.88516 2.803362-8.54572 4.637078-12.9166712 4.529306l.0002922.522442c4.370951.107769 9.031511-1.725946 12.916671-4.529308.340537-.24572.868686-.546621 1.195781-.806094.630163-2.851401 1.379908-5.826552 2.633287-8.5771734h.634924c.02505-.1053635.05349-.2120512.07936-.3164584zm4.007935 0c-.873205 2.0147744-2.341278 4.0827708-4.1865 5.9929258-.0076.11547-.02324.436084-.02949.552108 1.859106-1.918608 3.338421-3.9971298 4.21626-6.0225938l1.279468-.2059816c.043452-.1064049-.327218-.2100226-.286575-.3164594zm-4.236105 9.2564018c.170027 6.555605 2.082207 13.318858 6.230156 17.326084h.337301c-4.313586-3.898712-6.338752-10.694367-6.567457-17.326084zm-3.015876 1.404284c-.01926.01375-.04023.02587-.05953.03956-.332765 2.030609-.511591 4.068553-.545633 6.101709.0496-2.048261.252134-4.097684.605154-6.141266zm-10.0892824 4.410634c-.2612516.04584-.522074.08375-.7837292.118672 2.8557116.658853 4.9700776 1.75059 6.6471146 3.667243 1.635284 1.868935 2.859203 4.910588 2.946136 7.725251h.01c0-2.884134-1.259375-6.308244-2.956349-8.247692-1.51768-1.734526-3.403187-2.621329-5.8630905-3.263474z" fill="#500" fill-rule="evenodd" opacity=".6"/><path d="m6 39.721429c0 1.816327 1.146857 3.278571 2.571429 3.278571h30.857142c1.424572 0 2.571429-1.462244 2.571429-3.278571v-6.150001h-36z" fill="url(#d)"/><path d="m8.5714282 43c-1.4245712 0-2.5714282-1.151569-2.5714282-2.581994v-.999812c.017537-5.232461.4285697-5.344044.4285697-.430358v.860665c0 1.197119.9506364 2.151662 2.1428585 2.151662h.8571448 29.142844.857145c1.192222 0 2.142858-.954543 2.142858-2.151662v-.860665c.04207-5.833454.42858-3.83731.42858.430333v.999812c-.00001 1.43045-1.146867 2.582019-2.571438 2.582019z" fill="url(#b)" opacity=".2"/><g fill-rule="evenodd"><path d="m23.380955 7.3054006c-.424887 1.7852979-.736361 3.7043964-.843255 5.7061344.0099-.01013.01999-.01954.02978-.02966.130107-1.994281.454058-3.9054925.892856-5.676467zm4.652773 0c-1.08572 2.6577933-3.04104 5.2996704-5.535715 7.6146334-.00012.104993-.000435.211432 0 .316598 2.594547-2.407641 4.517444-4.543224 5.573255-7.3082913zm-8.531743 10.0276294c-3.264253 2.324995-7.05411 4.019632-10.8730116 4.529306.2713568.0626.525439.130499.7837292.197926 3.5290614-.619391 7.0027024-2.226056 10.0297614-4.371078.01951-.119152.03894-.237081.05953-.356154zm-13.5019852 5.439263v.316458c3.8677789.36399 6.4428592 1.020464 8.1944502 3.342589 1.668211 2.211597 2.619829 4.398256 2.688486 7.140088h.01c0-2.89277-.966017-5.159865-2.698409-7.456546-1.751587-2.322126-4.326667-2.9786-8.1944459-3.342589zm12.8968312 2.74923c.04557 2.72036.35217 5.419176.912694 8.049905h.06944c-.581477-2.628254-.916083-5.32813-.982134-8.049905z" fill="#fff" fill-opacity=".313725" opacity=".8"/><path d="m24.277 7c3.0062 0 1.165566 13.240168 1.165566 13.240168s16.558213-1.970967 16.558213 3.564832c0-1.348478-.000779-2.919285-.000779-2.919285l-13.88572-13.885715z" opacity=".2" stroke-width=".903555"/><path d="m25.695529 7.0086975c2.832447 0 1.020233 12.2306245 1.020233 12.2306245s15.288338-1.878262 15.288338 3.337578c0-1.270538-.0041-1.691185-.0041-1.691185l-13.88572-13.885715z" fill="url(#a)" stroke-width=".851331"/></g><path d="m151.74191 16.922094v17.9375l8.09375-17.9375zm9.90625 0 8.09375 17.9375v-17.9375zm-.90625 7.03125-3.03125 7h2.92858l1.71875 3.96875h3.22767l-2.375-5.28125-.0625-.125z" fill-opacity=".313725" opacity=".5" transform="matrix(.52910053 0 0 .52910053 -71.715295 -1.953489)"/></g><path d="m5.1000001 33h37.7999999v1h-37.7999999z" opacity=".3"/><g fill="#fff"><path d="m5.1000001 32h37.7999999v1h-37.7999999z" opacity=".3"/><g transform="matrix(.54464729 0 0 .54464729 23.161884 -3.120854)"><path d="m-11.680741 70.370044h4.1601561q1.8554687 0 2.845052.826823.9960938.820312.9960938 2.34375 0 1.529947-.9960938 2.35677-.9895833.820313-2.845052.820313h-1.6536458v3.372396h-2.5065103zm2.5065103 1.816406v2.714844h1.3867188q.7291666 0 1.126302-.351563.3971354-.358073.3971354-1.009114 0-.651042-.3971354-1.002605-.3971354-.351562-1.126302-.351562z"/><path d="m.59139434 72.264575v5.930989h.89843746q1.5364583 0 2.34375-.761718.813802-.761719.813802-2.213542 0-1.445312-.8072916-2.200521-.8072917-.755208-2.3502604-.755208zm-2.50651034-1.894531h2.64322908q2.21354162 0 3.29427072.31901 1.0872396.3125 1.8619792 1.067708.6835937.657552 1.0156249 1.516927.3320313.859375.3320313 1.946615 0 1.10026-.3320313 1.966146-.3320312.859375-1.0156249 1.516927-.78125.755208-1.875 1.074219-1.09375.3125-3.28124992.3125h-2.64322908z"/><path d="m9.152591 70.370044h6.764323v1.894531h-4.257813v1.809896h4.003907v1.894531h-4.003907v4.121094h-2.50651z"/></g></g></svg>