<svg height="48" width="48" xmlns="http://www.w3.org/2000/svg" xmlns:xlink="http://www.w3.org/1999/xlink"><linearGradient id="a"><stop offset="0" stop-color="#fff"/><stop offset="1" stop-color="#fff" stop-opacity="0"/></linearGradient><linearGradient id="b" gradientUnits="userSpaceOnUse" x1="36.357143" x2="36.357143" xlink:href="#a" y1="6" y2="63.893143"/><radialGradient id="c" cx="48" cy="90.171875" gradientTransform="matrix(1.1573129 0 0 .99590774 -7.551021 .197132)" gradientUnits="userSpaceOnUse" r="42" xlink:href="#a"/><linearGradient id="d" gradientUnits="userSpaceOnUse" x1="48" x2="48" y1="90" y2="5.987717"><stop offset="0" stop-color="#697890"/><stop offset="1" stop-color="#a4b4c2"/></linearGradient><linearGradient id="e" gradientTransform="matrix(1.0058652 0 0 .994169 100 0)" gradientUnits="userSpaceOnUse" x1="45.447727" x2="45.447727" y1="92.539597" y2="7.01654"><stop offset="0"/><stop offset="1" stop-opacity=".588235"/></linearGradient><linearGradient id="f" gradientTransform="matrix(1.0238095 0 0 1.0119048 -1.142857 -98.071429)" gradientUnits="userSpaceOnUse" x1="32.251034" x2="32.251034" xlink:href="#e" y1="6.131708" y2="90.238609"/><linearGradient id="g" gradientTransform="translate(0 -97)" gradientUnits="userSpaceOnUse" x1="32.251034" x2="32.251034" xlink:href="#e" y1="6.131708" y2="90.238609"/><linearGradient id="h" gradientUnits="userSpaceOnUse" x1="48.233639" x2="126.13924" xlink:href="#i" y1="48.047016" y2="66.232674"/><linearGradient id="i"><stop offset="0"/><stop offset="1" stop-opacity="0"/></linearGradient><linearGradient id="j" gradientUnits="userSpaceOnUse" x1="48.055065" x2="126.67282" xlink:href="#i" y1="48.031517" y2="62.838562"/><linearGradient id="k" gradientUnits="userSpaceOnUse" x1="47.997307" x2="127.05216" xlink:href="#i" y1="48.028725" y2="60.289631"/><linearGradient id="l" gradientUnits="userSpaceOnUse" x1="47.99826" x2="127.41583" xlink:href="#i" y1="48.028797" y2="57.664623"/><linearGradient id="m" gradientUnits="userSpaceOnUse" x1="48.233643" x2="126.13924" xlink:href="#a" y1="48.04702" y2="66.232674"/><linearGradient id="n" gradientUnits="userSpaceOnUse" x1="48.055069" x2="126.67282" xlink:href="#a" y1="48.031521" y2="62.838566"/><linearGradient id="o" gradientUnits="userSpaceOnUse" x1="47.997311" x2="127.05216" xlink:href="#a" y1="48.028728" y2="60.289635"/><linearGradient id="p" gradientUnits="userSpaceOnUse" x1="47.998264" x2="127.41583" xlink:href="#a" y1="48.028801" y2="57.664627"/><clipPath id="q"><path d="m30.916245 135.971c-.937266.54113-1.228304 1.74752-.677924 2.7008l1.9375 3.35585c-1.418086 1.4141-2.622273 3.01198-3.595451 4.71l-3.783634-.99095c-.531629-.14245-1.037926-.11751-1.476221.13061-.438159.24835-.796545.66758-.936598 1.19027l-1.978825 7.38507c-.280102 1.04538.365953 2.06538 1.429126 2.35032l3.772195 1.03363c-.0062 1.95711.237711 3.94301.758755 5.87671l-3.355849 1.9375c-.95328.55037-1.304431 1.74066-.763301 2.67792l3.8125 6.60344c.54113.93727 1.747521 1.2283 2.700801.67793l3.355849-1.9375c1.414106 1.41808 3.011983 2.62227 4.709995 3.59545l-.990945 3.78363c-.284894 1.06325.275431 2.13275 1.320874 2.41282l7.385075 1.97883c1.045371.28011 2.065425-.36588 2.35032-1.42913l1.033633-3.77219c1.957118.006 3.943015-.23771 5.876701-.75876l1.9375 3.35585c.550375.95328 1.740658 1.30443 2.677924.7633l6.603444-3.8125c.937258-.54113 1.228299-1.74752.677924-2.7008l-1.9375-3.35585c1.418087-1.4141 2.622272-3.01197 3.595452-4.70999l3.783633.99094c1.063244.2849 2.132709-.27549 2.41282-1.32087l1.978825-7.38508c.280102-1.04537-.365953-2.06538-1.429127-2.35032l-3.772195-1.03363c.0062-1.95711-.237701-3.94301-.758754-5.8767l3.355848-1.9375c.953272-.55037 1.304431-1.74066.763301-2.67793l-3.8125-6.60344c-.54113-.93726-1.747529-1.2283-2.700801-.67792l-3.355849 1.9375c-1.414093-1.4181-3.011984-2.62228-4.709995-3.59546l.990945-3.78363c.284894-1.06324-.275422-2.13275-1.320874-2.41282l-7.385074-1.97882c-1.045381-.28011-2.065426.36588-2.35032 1.42912l-1.033633 3.7722c-1.95712-.006-3.943015.2377-5.876702.75875l-1.9375-3.35585c-.55038-.95328-1.740666-1.30442-2.677924-.7633zm10.051722 9.7851c6.696096-3.866 15.258361-1.57175 19.124356 5.12435s1.57174 15.25836-5.124356 19.12436c-6.696096 3.86599-15.258361 1.57174-19.124356-5.12436s-1.57174-15.25836 5.124356-19.12435z" display="block"/></clipPath><linearGradient id="r" gradientTransform="matrix(.64611318 0 0 .64611666 8.540248 8.581931)" gradientUnits="userSpaceOnUse" x1="20.758585" x2="20.758585" y1="1" y2="45.017357"><stop offset="0" stop-color="#f0f0f0"/><stop offset="1" stop-color="#aaa"/></linearGradient><g transform="matrix(.50514482 0 0 .50514756 .005496 -.504804)"><g fill="url(#f)"><path d="m12-95.03125c-5.5110903 0-10.03125 4.52016-10.03125 10.03125v71c0 5.5110902 4.5201598 10.03125 10.03125 10.03125h72c5.51109 0 10.03125-4.5201597 10.03125-10.03125v-71c0-5.51109-4.52016-10.03125-10.03125-10.03125z" opacity=".08" transform="scale(1 -1)"/><path d="m12-94.03125c-4.971633 0-9.03125 4.059617-9.03125 9.03125v71c0 4.9716329 4.0596171 9.03125 9.03125 9.03125h72c4.971633 0 9.03125-4.059617 9.03125-9.03125v-71c0-4.971633-4.059617-9.03125-9.03125-9.03125z" opacity=".1" transform="scale(1 -1)"/><path d="m12-93c-4.4091333 0-8 3.590867-8 8v71c0 4.4091333 3.5908667 8 8 8h72c4.409133 0 8-3.5908667 8-8v-71c0-4.409133-3.590867-8-8-8z" opacity=".2" transform="scale(1 -1)"/><rect height="85" opacity=".3" rx="7" transform="scale(1 -1)" width="86" x="5" y="-92"/></g><rect fill="url(#g)" height="84" opacity=".45" rx="6" transform="scale(1 -1)" width="84" x="6" y="-91"/></g><g transform="matrix(.50514482 0 0 .50514756 .005496 -.504804)"><rect fill="url(#d)" height="84" rx="6" width="84" x="6" y="6"/><path d="m12 90c-3.324 0-6-2.676-6-6v-2-68-2c0-.334721.04135-.6507.09375-.96875.0487-.295596.09704-.596915.1875-.875.00988-.03038.020892-.0636.03125-.09375.098865-.287771.2348802-.547452.375-.8125.1445918-.273507.3156161-.535615.5-.78125s.3737765-.473472.59375-.6875c.439947-.428056.94291-.814526 1.5-1.09375.278545-.139612.5734731-.246947.875-.34375-.2562018.100222-.4867109.236272-.71875.375-.00741.0044-.023866-.0045-.03125 0-.031933.0193-.062293.04251-.09375.0625-.120395.0767-.2310226.163513-.34375.25-.1061728.0808-.2132809.161112-.3125.25-.1779299.161433-.3474596.345388-.5.53125-.1075789.130255-.2183939.265285-.3125.40625-.025089.03838-.038446.08587-.0625.125-.064763.103032-.1302275.204517-.1875.3125-.1010083.194706-.2056748.415701-.28125.625-.00796.02181-.023589.04055-.03125.0625-.0318251.09195-.0358045.186831-.0625.28125-.0303323.106618-.0703894.203031-.09375.3125-.0728786.341512-.125.698205-.125 1.0625v2 68 2c0 2.781848 2.2181517 5 5 5h2 68 2c2.781848 0 5-2.218152 5-5v-2-68-2c0-.364295-.05212-.720988-.125-1.0625-.04415-.206893-.08838-.397658-.15625-.59375-.0077-.02195-.0233-.04069-.03125-.0625-.06274-.173739-.138383-.367449-.21875-.53125-.04158-.0828-.07904-.169954-.125-.25-.0546-.09721-.126774-.18835-.1875-.28125-.09411-.140965-.204921-.275995-.3125-.40625-.143174-.17445-.303141-.346998-.46875-.5-.01117-.0102-.01998-.02115-.03125-.03125-.138386-.125556-.285091-.234436-.4375-.34375-.102571-.07315-.204318-.153364-.3125-.21875-.0074-.0045-.02384.0044-.03125 0-.232039-.138728-.462548-.274778-.71875-.375.301527.0968.596455.204138.875.34375.55709.279224 1.060053.665694 1.5 1.09375.219973.214028.409366.441865.59375.6875s.355408.507743.5.78125c.14012.265048.276135.524729.375.8125.01041.03078.02133.06274.03125.09375.09046.278085.1388.579404.1875.875.0524.31805.09375.634029.09375.96875v2 68 2c0 3.324-2.676 6-6 6z" fill="url(#c)" opacity=".2"/><path d="m12 6c-3.324 0-6 2.676-6 6v2 68 2c0 .334721.04135.6507.09375.96875.0487.295596.09704.596915.1875.875.00988.03038.020892.0636.03125.09375.098865.287771.2348802.547452.375.8125.1445918.273507.3156161.535615.5.78125s.3737765.473472.59375.6875c.439947.428056.94291.814526 1.5 1.09375.278545.139612.5734731.246947.875.34375-.2562018-.100222-.4867109-.236272-.71875-.375-.00741-.0044-.023866.0045-.03125 0-.031933-.0193-.062293-.04251-.09375-.0625-.120395-.0767-.2310226-.163513-.34375-.25-.1061728-.0808-.2132809-.161112-.3125-.25-.1779299-.161433-.3474596-.345388-.5-.53125-.1075789-.130255-.2183939-.265285-.3125-.40625-.025089-.03838-.038446-.08587-.0625-.125-.064763-.103032-.1302275-.204517-.1875-.3125-.1010083-.194706-.2056748-.415701-.28125-.625-.00796-.02181-.023589-.04055-.03125-.0625-.0318251-.09195-.0358045-.186831-.0625-.28125-.0303323-.106618-.0703894-.203031-.09375-.3125-.0728786-.341512-.125-.698205-.125-1.0625v-2-68-2c0-2.781848 2.2181517-5 5-5h2 68 2c2.781848 0 5 2.218152 5 5v2 68 2c0 .364295-.05212.720988-.125 1.0625-.04415.206893-.08838.397658-.15625.59375-.0077.02195-.0233.04069-.03125.0625-.06274.173739-.138383.367449-.21875.53125-.04158.0828-.07904.169954-.125.25-.0546.09721-.126774.18835-.1875.28125-.09411.140965-.204921.275995-.3125.40625-.143174.17445-.303141.346998-.46875.5-.01117.0102-.01998.02115-.03125.03125-.138386.125556-.285091.234436-.4375.34375-.102571.07315-.204318.153364-.3125.21875-.0074.0045-.02384-.0044-.03125 0-.232039.138728-.462548.274778-.71875.375.301527-.0968.596455-.204138.875-.34375.55709-.279224 1.060053-.665694 1.5-1.09375.219973-.214028.409366-.441865.59375-.6875s.355408-.507743.5-.78125c.14012-.265048.276135-.524729.375-.8125.01041-.03078.02133-.06274.03125-.09375.09046-.278085.1388-.579404.1875-.875.0524-.31805.09375-.634029.09375-.96875v-2-68-2c0-3.324-2.676-6-6-6z" fill="url(#b)" opacity=".3"/></g><path d="m22.1211 8.4934038c-1.420532 0-2.54151 1.1867255-2.54151 2.5730952v.947152c-.281899.105103-.56289.20665-.836646.331503l-.663003-.663006c-.411907-.411906-1.033515-.76715-1.783792-.773507-.658338-.0056-1.318219.244783-1.815364.741935l-2.73094 2.730954c-1.002202 1.002218-.932607 2.634887.03157 3.599176l.663003.663007c-.124853.273757-.226399.554751-.331501.83665h-.947147c-1.3863639 0-2.5730818 1.120985-2.5730818 2.541524v3.85175c0 1.420539 1.1867179 2.541524 2.5730818 2.541524h.947147c.105102.2819.206648.562893.331501.83665l-.663003.663007c-.964269.964276-1.03386 2.596978-.03157 3.599176l2.73094 2.730954c1.00218 1.002196 2.634857.932732 3.599156-.03157l.663003-.663006c.273756.124853.554747.2264.836646.331503v.947152c0 1.386369 1.120978 2.573095 2.54151 2.573095h3.85173c1.420529 0 2.541509-1.186722 2.541509-2.573095v-.947152c.281899-.105103.56289-.20665.836646-.331503l.663003.663006c.964301.964309 2.596976 1.033756 3.599157.03157l2.730939-2.730954c1.002203-1.002217.93261-2.634887-.03157-3.599176l-.663004-.663007c.124852-.273757.226398-.55475.331501-.83665h.947147c1.38636 0 2.573081-1.120982 2.573081-2.541524v-3.85175c0-1.420541-1.18672-2.541524-2.573081-2.541524h-.947147c-.105103-.2819-.206649-.562893-.331501-.83665l.663002-.663007c.964264-.964272 1.033878-2.596976.03157-3.599176l-2.730939-2.730954c-1.002181-1.002181-2.634856-.932737-3.599157.03157l-.663003.663006c-.273756-.124853-.554747-.2264-.836646-.331503v-.947152c0-1.3863727-1.12098-2.5730952-2.541509-2.5730952zm1.925865 9.9450922c3.06891 0 5.509235 2.440339 5.509235 5.509266s-2.440325 5.509266-5.509235 5.509266c-3.068911 0-5.509236-2.440339-5.509236-5.509266s2.440325-5.509266 5.509236-5.509266z" display="block" opacity=".05"/><path d="m22.1211 9.0143372c-1.124757 0-2.020579.9504049-2.020579 2.0521618v1.294441c-.513553.176642-1.003887.376271-1.483863.615648l-.915575-.91558c-.339194-.339193-.82582-.626526-1.404934-.631434-.516321-.0044-1.037297.200649-1.436506.599863l-2.730939 2.730954c-.793246.793259-.735204 2.074591.03157 2.841455l.915575.91558c-.239376.479978-.439003.970317-.615646 1.483871h-1.294433c-1.101753 0-2.0521509.895828-2.0521509 2.02059v3.85175c0 1.124762.9503979 2.02059 2.0521509 2.02059h1.294433c.176643.513555.37627 1.003893.615646 1.483871l-.915575.91558c-.766848.766854-.824887 2.048212-.03157 2.841455l2.730939 2.730954c.793232.793245 2.074571.735301 2.84144-.03157l.915575-.91558c.479976.239378.97031.439006 1.483863.615648v1.294441c0 1.101757.895822 2.052162 2.020579 2.052162h3.85173c1.124754 0 2.020579-.950402 2.020579-2.052162v-1.294441c.513552-.176642 1.003887-.37627 1.483863-.615648l.915574.91558c.76687.766875 2.048207.824808 2.84144.03157l2.730939-2.730954c.793248-.793259.735207-2.074591-.03157-2.841455l-.915575-.91558c.239375-.479977.439004-.970315.615645-1.483871h1.294434c1.101749 0 2.052151-.895825 2.052151-2.02059v-3.85175c0-1.124765-.950401-2.02059-2.052151-2.02059h-1.294435c-.176641-.513557-.376269-1.003894-.615645-1.483871l.915575-.91558c.766843-.766851.8249-2.04821.03157-2.841455l-2.730939-2.730954c-.793233-.793234-2.07457-.735303-2.84144.03157l-.915574.91558c-.479975-.239376-.97031-.439005-1.483862-.615647v-1.294441c0-1.10176-.895825-2.0521618-2.020579-2.0521618zm1.925865 8.9032258c3.349122 0 6.030166 2.681059 6.030166 6.030199 0 3.349141-2.681044 6.030199-6.030166 6.030199-3.349123 0-6.030167-2.681058-6.030167-6.030199 0-3.34914 2.681044-6.030199 6.030167-6.030199z" display="block" opacity=".08"/><path d="m22.1211 9.5352707c-.833306 0-1.499649.7071813-1.499649 1.5312283v1.625944c-.738449.22735-1.447358.524995-2.115293.884008l-1.168148-1.152368c-.265337-.265337-.631495-.470098-1.041861-.473576-.38357-.0033-.773115.141682-1.073433.442005l-2.730939 2.730954c-.586704.586713-.542818 1.540849.03157 2.115305l1.152362 1.168154c-.359009.667939-.656652 1.376853-.884003 2.115305h-1.625935c-.824044 0-1.5312205.666347-1.5312205 1.499657v3.85175c0 .83331.7071765 1.499657 1.5312205 1.499657h1.625935c.227351.738453.524994 1.447367.884003 2.115305l-1.152362 1.168154c-.574442.574447-.618326 1.528603-.03157 2.115306l2.730939 2.730954c.586697.586706 1.540838.542886 2.115294-.03157l1.168148-1.152368c.667936.359013 1.376844.656658 2.115293.884008v1.625944c0 .824047.666343 1.531228 1.499649 1.531228h3.85173c.833304 0 1.499648-.707178 1.499648-1.531228v-1.625944c.738449-.22735 1.447358-.524995 2.115294-.884008l1.168147 1.152368c.574455.574459 1.528596.618273 2.115294.03157l2.730939-2.730954c.586706-.586714.54282-1.540851-.03157-2.115306l-1.152362-1.168154c.35901-.667938.656654-1.37685.884004-2.115305h1.625935c.824041 0 1.53122-.666344 1.53122-1.499657v-3.85175c0-.833313-.707178-1.499657-1.53122-1.499657h-1.625935c-.22735-.738455-.524994-1.447367-.884004-2.115305l1.152362-1.168154c.57444-.574445.618336-1.528603.03157-2.115305l-2.730939-2.730954c-.586698-.5867-1.540839-.542887-2.115294.03157l-1.168147 1.152368c-.667936-.359013-1.376845-.656658-2.115294-.884008v-1.625944c0-.82405-.666344-1.5312283-1.499648-1.5312283zm1.925865 7.8613593c3.626144 0 6.551097 2.924968 6.551097 6.551132s-2.924953 6.551133-6.551097 6.551133c-3.626145 0-6.551097-2.924969-6.551097-6.551133s2.924952-6.551132 6.551097-6.551132z" display="block" opacity=".2"/><path d="m22.1211 10.056204c-.546699 0-.978718.454252-.978718 1.010295v1.957447c-.977529.260453-1.907903.655334-2.762511 1.152368l-1.404934-1.389156c-.196592-.196591-.42438-.313561-.678788-.315717-.254408-.0022-.517076.09086-.71036.284145l-2.730939 2.730954c-.386568.386575-.361566.995974.03157 1.389156l1.389148 1.404942c-.497029.85461-.891904 1.784989-1.152361 2.762526h-1.957437c-.556039 0-1.010289.432024-1.010289.978723v3.85175c0 .546699.45425.978724 1.010289.978724h1.957437c.260457.977537.655332 1.907915 1.152361 2.762525l-1.389148 1.404942c-.393179.393182-.418181 1.002581-.03157 1.389156l2.730939 2.730954c.386568.386574.99597.361608 1.389148-.03157l1.404934-1.389156c.854608.497035 1.784982.891915 2.762511 1.152368v1.957447c0 .556043.432019 1.010295.978718 1.010295h3.85173c.546693 0 .978717-.454252.978717-1.010295v-1.957447c.97753-.260453 1.907902-.655333 2.762511-1.152368l1.404934 1.389156c.393179.393182 1.002575.418147 1.389148.03157l2.73094-2.730954c.386568-.386575.361566-.995974-.03157-1.389156l-1.38915-1.404942c.497029-.85461.891909-1.784988 1.152362-2.762525h1.957436c.556035 0 1.010289-.432024 1.010289-.978724v-3.85175c0-.546698-.454254-.978723-1.010289-.978723h-1.957436c-.260451-.977537-.655333-1.907916-1.152362-2.762526l1.389148-1.404942c.393179-.393182.418187-1.002581.03157-1.389156l-2.73094-2.730954c-.386573-.386574-.995969-.361609-1.389148.03157l-1.404934 1.389156c-.854607-.497032-1.784979-.891913-2.762509-1.152366v-1.957447c0-.556043-.432024-1.010295-.978717-1.010295zm1.925865 6.819492c3.905772 0 7.072027 3.166272 7.072027 7.072066s-3.166255 7.072066-7.072027 7.072066c-3.905773 0-7.072028-3.166272-7.072028-7.072066s3.166255-7.072066 7.072028-7.072066z" display="block" opacity=".3"/><path d="m22.1211 9.5510565c-.546699 0-.978718.4542515-.978718 1.0102955v1.957446c-.977529.260453-1.907903.655334-2.762511 1.152368l-1.404934-1.389155c-.196592-.196592-.42438-.313562-.678788-.315718-.254408-.0022-.517076.09086-.71036.284146l-2.730939 2.730954c-.386568.386574-.361566.995973.03157 1.389156l1.389148 1.404941c-.497029.85461-.891904 1.784989-1.152361 2.762526h-1.957437c-.556039 0-1.010289.432024-1.010289.978723v3.851751c0 .546699.45425.978723 1.010289.978723h1.957437c.260457.977537.655332 1.907916 1.152361 2.762526l-1.389148 1.404941c-.393179.393182-.418181 1.002581-.03157 1.389156l2.730939 2.730954c.386568.386574.99597.361609 1.389148-.03157l1.404934-1.389155c.854608.497034 1.784982.891914 2.762511 1.152368v1.957446c0 .556044.432019 1.010296.978718 1.010296h3.85173c.546693 0 .978717-.454252.978717-1.010296v-1.957446c.97753-.260454 1.907902-.655334 2.762511-1.152368l1.404934 1.389155c.393179.393182 1.002575.418148 1.389148.03157l2.73094-2.730954c.386568-.386574.361566-.995974-.03157-1.389156l-1.38915-1.404941c.497029-.85461.891909-1.784989 1.152362-2.762526h1.957436c.556035 0 1.010289-.432024 1.010289-.978723v-3.851751c0-.546698-.454254-.978723-1.010289-.978723h-1.957436c-.260451-.977537-.655333-1.907916-1.152362-2.762526l1.389148-1.404941c.393179-.393182.418187-1.002582.03157-1.389156l-2.73094-2.730954c-.386573-.386574-.995969-.36161-1.389148.03157l-1.404934 1.389155c-.854609-.497034-1.784981-.891915-2.762511-1.152368v-1.957446c0-.556044-.432024-1.0102955-.978717-1.0102955zm1.925865 6.8194925c3.905772 0 7.072027 3.166272 7.072027 7.072066 0 3.905793-3.166255 7.072065-7.072027 7.072065-3.905773 0-7.072028-3.166272-7.072028-7.072065 0-3.905794 3.166255-7.072066 7.072028-7.072066z" display="block" fill="url(#r)"/><g clip-path="url(#q)" transform="matrix(.43746825 .25257378 -.25257241 .43747062 42.938749 -57.740898)"><g opacity=".9" transform="matrix(.1413721 .99271966 -1.1651755 .12044784 96.937266 104.80532)"><path d="m108.8959 48a60.895905 60.895905 0 0 1 -6.54616 27.466658l-54.34974-27.466658z" fill="url(#h)" opacity=".05" transform="matrix(.9941105 -.1083712 .1083712 .9941105 -5.158219 5.491891)"/><path d="m108.8959 48a60.895905 60.895905 0 0 1 -4.45721 22.86887l-56.43869-22.86887z" fill="url(#j)" opacity=".07" transform="matrix(.99786084 -.06537382 .06537382 .99786084 -3.094012 3.241571)"/><path d="m108.8959 48a60.895905 60.895905 0 0 1 -3.12994 19.271878l-57.76596-19.271878z" fill="url(#k)" opacity=".1" transform="matrix(.99945136 -.0331207 .0331207 .99945136 -1.563459 1.616128)"/><path d="m108.8959 48a60.895905 60.895905 0 0 1 -2.07497 15.76102l-58.82093-15.76102z" fill="url(#l)" opacity=".05"/></g><g fill="#fff" opacity=".9" transform="matrix(1.062807 -.13087531 -.74010065 3.227468 32.525111 9.33226)"><path d="m108.8959 48a60.895905 60.895905 0 0 1 -6.54616 27.466658l-54.34974-27.466658z" fill="url(#m)" opacity=".2" transform="matrix(.9941105 -.1083712 .1083712 .9941105 -5.158219 5.491891)"/><path d="m108.8959 48a60.895905 60.895905 0 0 1 -4.45721 22.86887l-56.43869-22.86887z" fill="url(#n)" opacity=".4" transform="matrix(.99786084 -.06537382 .06537382 .99786084 -3.094012 3.241571)"/><path d="m108.8959 48a60.895905 60.895905 0 0 1 -3.12994 19.271878l-57.76596-19.271878z" fill="url(#o)" opacity=".6" transform="matrix(.99945136 -.0331207 .0331207 .99945136 -1.563459 1.616128)"/><path d="m108.8959 48a60.895905 60.895905 0 0 1 -2.07497 15.76102l-58.82093-15.76102z" fill="url(#p)" opacity=".8"/></g><g opacity=".5" transform="matrix(-.61678931 .78712829 -.78712829 -.61678931 115.001479 150.011927)"><path d="m108.8959 48a60.895905 60.895905 0 0 1 -6.54616 27.466658l-54.34974-27.466658z" fill="url(#h)" opacity=".05" transform="matrix(.9941105 -.1083712 .1083712 .9941105 -5.158219 5.491891)"/><path d="m108.8959 48a60.895905 60.895905 0 0 1 -4.45721 22.86887l-56.43869-22.86887z" fill="url(#j)" opacity=".07" transform="matrix(.99786084 -.06537382 .06537382 .99786084 -3.094012 3.241571)"/><path d="m108.8959 48a60.895905 60.895905 0 0 1 -3.12994 19.271878l-57.76596-19.271878z" fill="url(#k)" opacity=".1" transform="matrix(.99945136 -.0331207 .0331207 .99945136 -1.563459 1.616128)"/><path d="m108.8959 48a60.895905 60.895905 0 0 1 -2.07497 15.76102l-58.82093-15.76102z" fill="url(#l)" opacity=".1"/></g><g opacity=".8" transform="matrix(-.06817198 -1.0460056 2.710673 .60162586 -79.095447 179.08013)"><path d="m108.8959 48a60.895905 60.895905 0 0 1 -6.54616 27.466658l-54.34974-27.466658z" fill="url(#h)" opacity=".05" transform="matrix(.9941105 -.1083712 .1083712 .9941105 -5.158219 5.491891)"/><path d="m108.8959 48a60.895905 60.895905 0 0 1 -4.45721 22.86887l-56.43869-22.86887z" fill="url(#j)" opacity=".07" transform="matrix(.99786084 -.06537382 .06537382 .99786084 -3.094012 3.241571)"/><path d="m108.8959 48a60.895905 60.895905 0 0 1 -3.12994 19.271878l-57.76596-19.271878z" fill="url(#k)" opacity=".1" transform="matrix(.99945136 -.0331207 .0331207 .99945136 -1.563459 1.616128)"/><path d="m108.8959 48a60.895905 60.895905 0 0 1 -2.07497 15.76102l-58.82093-15.76102z" fill="url(#l)" opacity=".1"/></g><g fill="#fff" opacity=".9" transform="matrix(-1.062807 .1308753 .74010064 -3.227468 62.996694 306.66774)"><path d="m108.8959 48a60.895905 60.895905 0 0 1 -6.54616 27.466658l-54.34974-27.466658z" fill="url(#m)" opacity=".2" transform="matrix(.9941105 -.1083712 .1083712 .9941105 -5.158219 5.491891)"/><path d="m108.8959 48a60.895905 60.895905 0 0 1 -4.45721 22.86887l-56.43869-22.86887z" fill="url(#n)" opacity=".4" transform="matrix(.99786084 -.06537382 .06537382 .99786084 -3.094012 3.241571)"/><path d="m108.8959 48a60.895905 60.895905 0 0 1 -3.12994 19.271878l-57.76596-19.271878z" fill="url(#o)" opacity=".6" transform="matrix(.99945136 -.0331207 .0331207 .99945136 -1.563459 1.616128)"/><path d="m108.8959 48a60.895905 60.895905 0 0 1 -2.07497 15.76102l-58.82093-15.76102z" fill="url(#p)" opacity=".8"/></g></g><path d="m22.1211 9.5510565c-.546699 0-.978718.4542515-.978718 1.0102955v.505147c0-.556043.432019-1.010295.978718-1.010295h3.85173c.546693 0 .978717.454252.978717 1.010295v-.505147c0-.556044-.432024-1.0102955-.978717-1.0102955zm-5.824951 2.4152365c-.254408-.0022-.517076.09086-.71036.284146l-2.730939 2.730954c-.250776.250779-.320565.597115-.236787.91558.04248-.147317.118586-.29223.236787-.410433l2.730939-2.730954c.193284-.193286.455952-.286317.71036-.284145.254408.0022.482196.119126.678788.315717l1.404934 1.389156c.854608-.497034 1.784982-.891915 2.762511-1.152368v-.505148c-.977529.260453-1.907903.655334-2.762511 1.152368l-1.404934-1.389155c-.196592-.196592-.42438-.313562-.678788-.315718zm15.517417 0c-.249818.0071-.497985.119127-.694574.315718l-1.404934 1.389155c-.854609-.497034-1.784981-.891915-2.762511-1.152368v.505148c.97753.260453 1.907902.655334 2.762511 1.152368l1.404934-1.389156c.393179-.393181 1.002575-.418146 1.389148-.03157l2.73094 2.730954c.118215.118203.194299.263116.236786.410433.08379-.318465.01402-.664801-.236786-.91558l-2.73094-2.730954c-.193287-.193287-.444756-.291213-.694574-.284146zm-17.71164 6.1407c-.410559.762199-.751434 1.577992-.978718 2.431023h-1.957436c-.55604 0-1.01029.432024-1.01029.978723v.505148c0-.546699.45425-.978723 1.01029-.978723h1.957436c.260458-.977537.655333-1.907916 1.152361-2.762526zm19.890077 0-.173643.173645c.497029.85461.891911 1.784989 1.152362 2.762526h1.957436c.556035 0 1.010289.432025 1.010289.978723v-.505148c0-.546698-.454254-.978723-1.010289-.978723h-1.957436c-.227278-.853031-.568158-1.668824-.978719-2.431023zm-17.00128 5.588195c-.003.08425-.01579.167596-.01579.252574 0 3.905794 3.166255 7.072066 7.072028 7.072066 3.905772 0 7.072027-3.166272 7.072027-7.072066 0-.08498-.01282-.16832-.01579-.252574-.133655 3.788212-3.235447 6.819492-7.056241 6.819492-3.820795 0-6.922586-3.03128-7.056242-6.819492zm-2.888797 5.588195-1.215505 1.231297c-.272956.272959-.364824.644249-.268358.978724.04537-.172446.130244-.33546.268358-.473576l1.389148-1.404942c-.06331-.108849-.113719-.220254-.173643-.331503zm19.890077 0c-.05992.111249-.110338.222654-.173643.331503l1.389148 1.404942c.138101.138116.222993.30113.268358.473576.09645-.334475.0045-.705765-.268358-.978724z" display="block" fill="#fff" opacity=".7"/><path d="m12.618063 15.391825c-.09645.334475-.0045.705764.268358.978724l1.215505 1.231297c.05992-.111249.110338-.222654.173643-.331503l-1.389148-1.404942c-.1381-.138116-.222993-.30113-.268358-.473576zm22.857803 0c-.04537.172446-.130243.33546-.268358.473576l-1.389148 1.404942c.0633.108849.113719.220254.173643.331503l1.215505-1.231297c.272956-.272959.364825-.644249.268358-.978724zm-11.428901.473576c-3.905773 0-7.072028 3.166272-7.072028 7.072066 0 .08498.01282.16832.01579.252574.133656-3.788212 3.235447-6.819492 7.056242-6.819492 3.820794 0 6.922586 3.03128 7.056241 6.819492.003-.08425.01579-.167596.01579-.252574 0-3.905794-3.166255-7.072066-7.072027-7.072066zm-13.891483 8.997941v.505148c0 .546699.45425.978723 1.01029.978723h1.957436c.227284.853031.568159 1.668824.978718 2.431023l.173643-.173645c-.497028-.85461-.891903-1.784988-1.152361-2.762526h-1.957436c-.55604 0-1.01029-.432024-1.01029-.978723zm27.782965 0c0 .5467-.454254.978723-1.010289.978723h-1.957436c-.260453.977538-.655333 1.907916-1.152362 2.762526l.173643.173645c.41056-.762199.751439-1.577992.978719-2.431023h1.957436c.556035 0 1.010289-.432024 1.010289-.978723zm-25.320384 6.124914c-.08379.318465-.01402.6648.236787.91558l2.730939 2.730954c.386568.386574.99597.361609 1.389148-.03157l1.404934-1.389155c.854608.497034 1.784982.891914 2.762511 1.152368v-.50515c-.977529-.260453-1.907903-.655333-2.762511-1.152368l-1.404934 1.389156c-.393178.39318-1.00258.418146-1.389148.03157l-2.730939-2.730952c-.118214-.118203-.194299-.263116-.236787-.410433zm22.857803 0c-.04248.147317-.118585.29223-.236786.410433l-2.73094 2.730954c-.386573.386575-.995969.36161-1.389148-.03157l-1.404934-1.389156c-.854609.497035-1.784981.891915-2.762511 1.152368v.505148c.97753-.260454 1.907902-.655334 2.762511-1.152368l1.404934 1.389155c.393179.393182 1.002575.418148 1.389148.03157l2.73094-2.730954c.250775-.250779.320564-.597115.236786-.91558zm-14.333484 4.830474v.505147c0 .556044.432019 1.010296.978718 1.010296h3.85173c.546693 0 .978717-.454252.978717-1.010296v-.505147c0 .556043-.432024 1.010295-.978717 1.010295h-3.85173c-.546699 0-.978718-.454252-.978718-1.010295z" display="block" opacity=".2"/></svg>