<svg height="48" width="48" xmlns="http://www.w3.org/2000/svg" xmlns:xlink="http://www.w3.org/1999/xlink"><linearGradient id="a" gradientTransform="matrix(1.1538423 0 0 1.1746103 -5.728901 4.720793)" gradientUnits="userSpaceOnUse" x1="32.891998" x2="36.358002" y1="8.059" y2="5.4565"><stop offset="0" stop-color="#f0f0f0"/><stop offset="1" stop-color="#b0b0b0"/></linearGradient><radialGradient id="b" cx="48" cy="90.171875" gradientTransform="matrix(.49599117 0 0 .42857136 .192419 4.354916)" gradientUnits="userSpaceOnUse" r="42" xlink:href="#c"/><linearGradient id="c"><stop offset="0" stop-color="#fff"/><stop offset="1" stop-color="#fff" stop-opacity="0"/></linearGradient><linearGradient id="d" gradientTransform="matrix(0 -.54642861 .42857142 0 3.428572 46.278573)" gradientUnits="userSpaceOnUse" x1="7.3709" x2="23.76619" y1="51.470146" y2="51.433136"><stop offset="0" stop-color="#00498e"/><stop offset="1" stop-color="#0d5ea7"/></linearGradient><linearGradient id="e" gradientUnits="userSpaceOnUse" x1="248.07678816" x2="248.07678816" y1="-62.6598922" y2="-98.66515562275"><stop offset="0" stop-color="#e0e0e0"/><stop offset="1" stop-color="#f0f0f0"/></linearGradient><linearGradient id="f" gradientTransform="matrix(.4285717 0 0 .43033246 227.50536 -101.24189)" gradientUnits="userSpaceOnUse" x1="36.357143" x2="36.357143" xlink:href="#c" y1="6" y2="63.893143"/><linearGradient id="g" gradientTransform="matrix(1.0058652 0 0 .994169 100 0)" gradientUnits="userSpaceOnUse" x1="45.447727" x2="45.447727" y1="92.539597" y2="7.01654"><stop offset="0"/><stop offset="1" stop-opacity=".588235"/></linearGradient><linearGradient id="h" gradientTransform="matrix(.90932204 0 0 -.90907903 8.945106 90.567956)" gradientUnits="userSpaceOnUse" x1="32.251034" x2="32.251034" xlink:href="#g" y1="6.131708" y2="90.238609"/><linearGradient id="i" gradientTransform="matrix(.88394566 0 0 -.88394572 10.163169 89.361561)" gradientUnits="userSpaceOnUse" x1="32.251034" x2="32.251034" xlink:href="#g" y1="6.131708" y2="90.238609"/><radialGradient id="j" cx="41.752941" cy="36.95731" gradientTransform="matrix(4.5608932 -.80134104 .40815326 2.3230351 -148.56388 -20.727491)" gradientUnits="userSpaceOnUse" r="19"><stop offset="0" stop-color="#83b4e3"/><stop offset=".5" stop-color="#83b4e3"/><stop offset="1" stop-color="#83b4e3"/></radialGradient><linearGradient id="k" gradientUnits="userSpaceOnUse" x1="37.0203438" x2="45.6532128" y1="53.2912798" y2="68.830444"><stop offset="0" stop-color="#b3e1ff"/><stop offset="1" stop-color="#f0ffff" stop-opacity="0"/></linearGradient><g transform="matrix(1.05 0 0 1.05 -1.2 -2.25)"><g transform="matrix(.51177463 0 0 .51177463 -2.915536 .981307)"><path d="m20.618253 86.01187c-3.916074 0-7.105399-3.225978-7.105399-7.187076v-63.785252c0-3.961099 3.189325-7.1870759 7.105399-7.1870759h41.230022l29.823983 29.8239829v41.148345c0 3.961098-3.189315 7.187076-7.1054 7.187076z" fill="url(#h)" opacity=".2"/><path d="m21.510559 84.057885h62.16399c3.34823 0 6.04372-2.727212 6.04372-6.114824v-39.038079l-29.09854-29.0985314h-39.10917c-3.34822 0-6.04372 2.7272114-6.04372 6.1148244v62.021786c0 3.387612 2.6955 6.114824 6.04372 6.114824z" fill="url(#i)" opacity=".3"/></g><g transform="translate(-224.07679 105.6599)"><path d="m232.64822-98.6599h19.54285l13.88572 13.885715v19.542857c0 1.424571-1.14685 2.571428-2.57143 2.571428h-30.85714c-1.42458 0-2.57143-1.146857-2.57143-2.571428v-30.857144c0-1.424571 1.14685-2.571428 2.57143-2.571428z" fill="url(#e)"/><path d="m232.64822-98.6599c-1.42457 0-2.57143 1.151568-2.57143 2.581998v.860662 28.234034c1.98322 4.185183.51348 2.977317.42857.430332v-28.09486-.860668c0-1.197119.95064-2.151664 2.14286-2.151664h.85715 17.82858.85715l13.45714 13.326778v.860667 16.919747c-1.2063 3.165148.42855 3.584963.42855-.430333v-16.919747-.860668l-13.88571-13.896278z" fill="url(#f)"/></g><path d="m23.095 7.0007336c3.179734 0 1.245573 14.2927244 1.245573 14.2927244s17.662844-1.870813 17.662844 3.984542c0-1.426319-.003417-4.392285-.003417-4.392285l-13.88572-13.885715z" fill-rule="evenodd" opacity=".2" stroke-width=".955713"/><path d="m6 39.721429c0 1.816327 1.146857 3.278571 2.571429 3.278571h30.857142c1.424572 0 2.571429-1.462244 2.571429-3.278571v-6.150001h-36z" fill="url(#d)"/><path d="m8.5714282 43c-1.4245712 0-2.5714282-1.151569-2.5714282-2.581994v-.999812c.017537-5.232461.4285697-5.344044.4285697-.430358v.860665c0 1.197119.9506364 2.151662 2.1428585 2.151662h.8571448 29.142844.857145c1.192222 0 2.142858-.954543 2.142858-2.151662v-.860665c.04207-5.833454.42858-3.83731.42858.430333v.999812c-.00001 1.43045-1.146867 2.582019-2.571438 2.582019z" fill="url(#b)" opacity=".2"/><path d="m24.277 7c3.0062 0 1.165566 13.240168 1.165566 13.240168s16.558213-1.970967 16.558213 3.564832c0-1.348478-.000779-2.919285-.000779-2.919285l-13.88572-13.885715z" fill-rule="evenodd" opacity=".2" stroke-width=".903555"/><path d="m25.695529 7.0086975c2.832447 0 1.020233 12.2306245 1.020233 12.2306245s15.288338-1.878262 15.288338 3.337578c0-1.270538-.0041-1.691185-.0041-1.691185l-13.88572-13.885715z" fill="url(#a)" fill-rule="evenodd" stroke-width=".851331"/><g transform="matrix(.21014045728 0 0 .21014045728 5.53905864959 13.10120579415)"><path d="m38.994631 25.428559-4.975872-5.405094s.113135 24.845606.11846 29.024068c-3.099725-1.685814-7.518217-1.264359-11.175366 1.386743-4.731162 3.412443-6.376216 9.231267-3.643536 12.983559 2.746259 3.765901 8.78257 4.024178 13.513757.611755 3.725119-2.705454 5.805202-6.9472 5.057461-10.427585-.02727-.108779-.06801-.217536-.09516-.326334l.13979-20.369684c.496976-1.475472 1.305145-2.032863 4.698406 2.249512 3.909781 6.358271-.242773 15.791902-.242773 15.791902s.671594-.594854 1.478642-1.466117c2.948444-3.183051 4.265252-8.865938 2.531103-14.261774-1.492782-3.215162-6.223493-8.506625-7.404942-9.790936z" fill="#346190" transform="matrix(1.9534141 0 0 1.9534141 -10.754156 -45.940692)"/><path d="m76.859862 17.877279c-6.231046-8.9476442-13.750069-16.7790409-21.161308-24.7038518l.231402 56.6239798c.97997.369273 1.902183.800467 2.712315 1.356157v-34.831596c0-5.424632.03076-9.2079316 4.302347-6.126253 7.485907 5.40061 9.551683 6.837095 13.915244 7.681564z" fill="url(#j)" opacity=".7"/><path d="m52.559494 55.017847c2.107921 4.276518-2.493502 8.928749-9.335931 12.30142-6.842427 3.372672-13.334772 4.188625-15.442694-.0879-2.10792-4.276518 1.730157-10.477412 8.572586-13.850084 6.842428-3.372672 14.098119-2.639961 16.206039 1.636557z" fill="url(#k)"/></g></g><path d="m5.1000001 33h37.7999999v1h-37.7999999z" opacity=".3"/><g fill="#fff"><path d="m5.1000001 32h37.7999999v1h-37.7999999z" opacity=".8"/><g stroke-width="2.060053" transform="matrix(.25969071 0 0 .25969071 2.313558 8.869274)"><path d="m45.001386 102.93293h4.948955l3.460245 14.5518 3.433421-14.5518h4.975779l3.433421 14.5518 3.460245-14.5518h4.90872l-4.720955 20.02382h-5.95484l-3.634598-15.2224-3.594363 15.2224h-5.954841z"/><path d="m77.015357 102.93293h6.571783l4.560013 10.71603 4.586836-10.71603h6.558372v20.02382h-4.881896v-14.64569l-4.61366 10.7965h-3.27248l-4.61366-10.7965v14.64569h-4.895308z"/><path d="m116.52653 119.30874h-8.07391l-1.27412 3.64801h-5.19037l7.41673-20.02382h6.15602l7.41672 20.02382h-5.19036zm-6.78637-3.71507h5.48542l-2.73601-7.96661z"/></g></g></svg>