<svg height="48" width="48" xmlns="http://www.w3.org/2000/svg" xmlns:xlink="http://www.w3.org/1999/xlink"><linearGradient id="a"><stop offset="0" stop-color="#ededed"/><stop offset="1" stop-color="#b0b0b0"/></linearGradient><linearGradient id="b"><stop offset="0" stop-color="#b4b4b4"/><stop offset=".20467032" stop-color="#646464"/><stop offset=".49567693" stop-color="#fff"/><stop offset="1" stop-color="#3c3c3c"/></linearGradient><linearGradient id="c"><stop offset="0" stop-color="#818181"/><stop offset=".2" stop-color="#f9f9f9"/><stop offset="1" stop-color="#dcdcdc" stop-opacity="0"/></linearGradient><linearGradient id="d" gradientUnits="userSpaceOnUse" x1="19.035713" x2="87.5" y1="74" y2="27.428572"><stop offset="0" stop-color="#fff"/><stop offset="1" stop-color="#fff" stop-opacity="0"/></linearGradient><linearGradient id="e" gradientUnits="userSpaceOnUse" x1="6" x2="24" xlink:href="#c" y1="73" y2="73"/><linearGradient id="f" gradientTransform="matrix(-1 0 0 1 96 0)" gradientUnits="userSpaceOnUse" x1="6" x2="24" xlink:href="#c" y1="73" y2="73"/><linearGradient id="g" gradientUnits="userSpaceOnUse" x1="38.748035" x2="38.748035" y1="65.59034" y2="5.833157"><stop offset="0" stop-color="#dcdcdc"/><stop offset="1" stop-color="#fafafa"/></linearGradient><radialGradient id="h" cx="90" cy="90" gradientTransform="matrix(0 -1.085034 2 0 -90 187.65306)" gradientUnits="userSpaceOnUse" r="42"><stop offset="0" stop-color="#b4b4b4"/><stop offset="1" stop-color="#dcdcdc"/></radialGradient><clipPath id="i"><path d="m66 6v55c0 1.662 1.338 3 3 3h6c1.662 0 3-1.338 3-3v-55h-4v2h-4v-2z"/></clipPath><filter id="j" color-interpolation-filters="sRGB" height="1.07322" width="1.332308" x="-.166154" y="-.03661"><feGaussianBlur stdDeviation=".9"/></filter><linearGradient id="k" gradientUnits="userSpaceOnUse" x1="68.75" x2="75.25" xlink:href="#b" y1="58" y2="58"/><linearGradient id="l" gradientUnits="userSpaceOnUse" x1="63.484772" x2="79" y1="64.163078" y2="65"><stop offset="0" stop-color="#a2a2a2"/><stop offset="1" stop-color="#fff"/></linearGradient><filter id="m" color-interpolation-filters="sRGB" height="1.190707" width="1.323657" x="-.161828" y="-.095354"><feGaussianBlur stdDeviation=".53551312"/></filter><linearGradient id="n" gradientTransform="matrix(-1 0 0 1 144.03125 -2)" gradientUnits="userSpaceOnUse" x1="68.96875" x2="75.0625" xlink:href="#a" y1="17.5" y2="17.5"/><linearGradient id="o" gradientUnits="userSpaceOnUse" x1="68.02903" x2="75.97097" xlink:href="#a" y1="15.763245" y2="15.763245"/><linearGradient id="p" gradientTransform="matrix(1.1262691 0 0 1 -7.401969 -49.5)" gradientUnits="userSpaceOnUse" x1="68.75" x2="72.250572" xlink:href="#b" y1="59" y2="59"/><linearGradient id="q" gradientTransform="matrix(1.0058652 0 0 .994169 100 0)" gradientUnits="userSpaceOnUse" x1="45.447727" x2="45.447727" y1="92.539597" y2="7.01654"><stop offset="0"/><stop offset="1" stop-opacity=".588235"/></linearGradient><linearGradient id="r" gradientTransform="matrix(1.0238095 0 0 1.0119048 -1.142857 -98.071429)" gradientUnits="userSpaceOnUse" x1="32.251034" x2="32.251034" xlink:href="#q" y1="6.131708" y2="90.238609"/><linearGradient id="s" gradientTransform="translate(0 -97)" gradientUnits="userSpaceOnUse" x1="32.251034" x2="32.251034" xlink:href="#q" y1="6.131708" y2="90.238609"/><linearGradient id="t" gradientUnits="userSpaceOnUse" x1="69" x2="73" y1="53" y2="53"><stop offset="0" stop-color="#fff"/><stop offset=".48973215" stop-color="#8c8c8c"/><stop offset=".50044644" stop-color="#cfcfcf"/><stop offset=".62276787" stop-color="#fff"/><stop offset=".81696427" stop-color="#c8c8c8"/><stop offset="1" stop-color="#505050"/></linearGradient><linearGradient id="u" gradientTransform="matrix(-1 0 0 1 144 -4)" gradientUnits="userSpaceOnUse" x1="69" x2="73" y1="54" y2="54"><stop offset="0" stop-color="#2f2f2f"/><stop offset=".43731192" stop-color="#fff"/><stop offset=".62138397" stop-color="#979797"/><stop offset=".7723214" stop-color="#505050"/><stop offset="1" stop-color="#e6e6e6"/></linearGradient><g transform="matrix(.50514756 0 0 .50514756 .005491 -.504804)"><g><g fill="url(#r)"><path d="m12-95.03125c-5.5110903 0-10.03125 4.52016-10.03125 10.03125v71c0 5.5110902 4.5201598 10.03125 10.03125 10.03125h72c5.51109 0 10.03125-4.5201597 10.03125-10.03125v-71c0-5.51109-4.52016-10.03125-10.03125-10.03125z" opacity=".08" transform="scale(1 -1)"/><path d="m12-94.03125c-4.971633 0-9.03125 4.059617-9.03125 9.03125v71c0 4.9716329 4.0596171 9.03125 9.03125 9.03125h72c4.971633 0 9.03125-4.059617 9.03125-9.03125v-71c0-4.971633-4.059617-9.03125-9.03125-9.03125z" opacity=".1" transform="scale(1 -1)"/><path d="m12-93c-4.4091333 0-8 3.590867-8 8v71c0 4.4091333 3.5908667 8 8 8h72c4.409133 0 8-3.5908667 8-8v-71c0-4.409133-3.590867-8-8-8z" opacity=".2" transform="scale(1 -1)"/><rect height="85" opacity=".3" rx="7" transform="scale(1 -1)" width="86" x="5" y="-92"/></g><rect fill="url(#s)" height="84" opacity=".45" rx="6" transform="scale(1 -1)" width="84" x="6" y="-91"/></g><g><path d="m12 6c-3.324 0-6 2.676-6 6v72c0 3.324 2.676 6 6 6h72c3.324 0 6-2.676 6-6v-72c0-3.324-2.676-6-6-6h-9v3h-6v-3z" fill="url(#h)"/><path d="m6 56v28c0 3.324 2.676 6 6 6h12v-34z" fill="url(#e)"/><path d="m90 56v28c0 3.324-2.676 6-6 6h-12v-34z" fill="url(#f)"/><path d="m6 82v2c0 3.324 2.676 6 6 6h72c3.324 0 6-2.676 6-6v-2c0 3.324-2.676 6-6 6h-72c-3.324 0-6-2.676-6-6z" opacity=".15"/><path d="m6 78v2c0 3.324 2.676 6 6 6h72c3.324 0 6-2.676 6-6v-2c0 3.324-2.676 6-6 6h-72c-3.324 0-6-2.676-6-6z" fill="#fff" opacity=".8"/><path d="m6 76v2c0 3.324 2.676 6 6 6h72c3.324 0 6-2.676 6-6v-2c0 3.324-2.676 6-6 6h-72c-3.324 0-6-2.676-6-6z" opacity=".15"/><path d="m6 72v2c0 3.324 2.676 6 6 6h72c3.324 0 6-2.676 6-6v-2c0 3.324-2.676 6-6 6h-72c-3.324 0-6-2.676-6-6z" fill="#fff" opacity=".8"/><path d="m6 70v2c0 3.324 2.676 6 6 6h72c3.324 0 6-2.676 6-6v-2c0 3.324-2.676 6-6 6h-72c-3.324 0-6-2.676-6-6z" opacity=".15"/><path d="m12 6c-3.324 0-6 2.676-6 6v56c0 3.324 2.676 6 6 6h72c3.324 0 6-2.676 6-6v-56c0-3.324-2.676-6-6-6h-9v3h-6v-3z" fill="url(#g)"/><path d="m12 6c-3.324 0-6 2.676-6 6v56c0 3.324 2.676 6 6 6h72c3.324 0 6-2.676 6-6v-56c0-3.324-2.676-6-6-6h-9v2h9c2.245802 0 4 1.7541975 4 4v56c0 2.245802-1.754198 4-4 4h-72c-2.2458025 0-4-1.754198-4-4v-56c0-2.2458025 1.7541975-4 4-4h57v-2z" fill="url(#d)"/></g><g><path d="m66 6v55c0 1.662 1.338 3 3 3h6c1.662 0 3-1.338 3-3v-55h-4v2h-4v-2z" fill="#252525"/><path d="m70 8h4v49h-4z" fill="#4d4d4d"/><rect fill="url(#k)" height="4" rx="1" stroke="#000" stroke-linecap="square" stroke-opacity=".563636" stroke-width=".5" width="6" x="69" y="56"/><path d="m66 6v55c0 1.662 1.338 3 3 3h6c1.662 0 3-1.338 3-3v-55h-4v2h-4v-2z" style="fill:none;stroke:#000;stroke-width:2;stroke-linecap:square;clip-path:url(#i);filter:url(#j)"/><path id="v" d="m69.5 51c-.269774 0-.5.217964-.5.5v3c0 .282036.230229.5.5.5h1c.269774 0 .5-.217964.5-.5v-.5h1.5c.277 0 .5-.223.5-.5v-1c0-.277-.223-.5-.5-.5h-1.5v-.5c0-.282036-.230229-.5-.5-.5z" fill="url(#t)" stroke="#000" stroke-linecap="square" stroke-opacity=".563636" stroke-width=".5"/><use id="w" height="96" transform="translate(0 -6)" width="96" xlink:href="#v"/><use id="x" height="96" transform="translate(0 -6)" width="96" xlink:href="#w"/><use id="y" height="96" transform="translate(0 -6)" width="96" xlink:href="#x"/><use id="z" height="96" transform="translate(0 -6)" width="96" xlink:href="#y"/><use id="A" height="96" transform="translate(0 -6)" width="96" xlink:href="#z"/><use id="B" height="96" transform="translate(0 -6)" width="96" xlink:href="#A"/><use height="96" transform="translate(0 -6)" width="96" xlink:href="#B"/><path id="C" d="m74.5 48c.269774 0 .5.217964.5.5v3c0 .282036-.230229.5-.5.5h-1c-.269774 0-.5-.217964-.5-.5v-.5h-1.5c-.277 0-.5-.223-.5-.5v-1c0-.277.223-.5.5-.5h1.5v-.5c0-.282036.230229-.5.5-.5z" fill="url(#u)" stroke="#000" stroke-linecap="square" stroke-opacity=".563636" stroke-width=".5"/><use id="D" height="96" transform="translate(0 -6)" width="96" xlink:href="#C"/><use id="E" height="96" transform="translate(0 -6)" width="96" xlink:href="#D"/><use id="F" height="96" transform="translate(0 -6)" width="96" xlink:href="#E"/><use id="G" height="96" transform="translate(0 -6)" width="96" xlink:href="#F"/><use id="H" height="96" transform="translate(0 -6)" width="96" xlink:href="#G"/><use height="96" transform="translate(0 -6)" width="96" xlink:href="#H"/><path d="m65 6v55c0 2.202295 1.797705 4 4 4h6c2.202295 0 4-1.797705 4-4v-55h-1v55c0 1.662-1.338 3-3 3h-6c-1.662 0-3-1.338-3-3v-55z" fill="url(#l)"/><path d="m69.5 10.53125c-1.027701 0-1.96875.765203-1.96875 1.8125v10.8125c-.000005 1.047305.918081 1.84375 1.96875 1.84375h5c1.050668 0 1.96875-.796448 1.96875-1.84375v-10.8125c-.000003-1.047297-.941051-1.8125-1.96875-1.8125zm1.0625 9.0625h2.875v1.75h-2.875z" filter="url(#m)" stroke="#000" stroke-linecap="square" stroke-opacity=".563636" stroke-width=".5" transform="translate(0 -2)"/><path d="m69.229249 9.021415c-.687139 0-1.229249.48237-1.229249 1.081548l-.0051 10.815488c.000022.599179.542134 1.081549 1.229271 1.081549h5.583221c.687139 0 1.229249-.48237 1.229249-1.081549l.0051-10.815488c0-.599178-.542112-1.081548-1.229249-1.081548h-5.583221zm.704303 7.949648h4.101324v3.118378h-4.101324z" fill="url(#o)"/><path d="m74.5625 9.96875c.277 0 .5.223.5.5v10.0625c0 .277-.223.5-.5.5h-5.09375c-.277 0-.499999-.223-.5-.5v-10.0625c0-.277.223001-.5.5-.5zm-.4375 6.96875h-4.125v3.125h4.125z" fill="url(#n)"/><rect fill="url(#p)" height="5" rx=".563135" ry=".5" stroke="#000" stroke-linecap="square" stroke-opacity=".563636" width="3.378807" x="70.3106" y="7.5"/><path d="m69.984634 16h4v1h-4z" opacity=".3"/></g></g><path d="m25.753276 14.298158c.01949.523155-.152659.77737-.30835 1.226902l-.279983.139234c-.22888.444768.02273.282365-.141183.635971-.35772.317661-1.083988.993692-1.316549 1.055621-.169982-.0037.114982-.200514.152226-.277384-.478331.328271-.383921.49284-1.115602.692703l-.02122-.04785c-1.803759.848829-4.309533-.83302-4.27662-3.127453-.01906.145513-.05478.109135-.09463.1676-.09311-1.180347.545243-2.365891 1.621867-2.850718 1.053023-.52099 2.287504-.307484 3.041272.396047-.414019-.542643-1.238811-1.117984-2.215614-1.064716-.957312.01559-1.853129.623846-2.151951 1.284502-.490241.308566-.547407 1.190091-.760914 1.351628-.287777 2.113408.540696 3.026114 1.942344 4.100358.220002.148545.06193.171281.09138.284314-.465556-.217837-.891703-.546974-1.242494-.949951.186223.272188.386954.536797.646583.744673-.439356-.148329-1.025957-1.06385-1.196805-1.101094.7568 1.355092 3.070071 2.376501 4.282033 1.869586-.560833.02079-1.273024.01148-1.902717-.221302-.265258-.136202-.624495-.417918-.560182-.470536 1.653482.617349 3.361098.467289 4.791545-.679278.364217-.283665.76178-.765895.876761-.772391-.173013.260279.02967.125159-.103288.354906.362052-.584868-.157856-.238192.37461-1.009932l.196617.270672c-.07362-.48591.603057-1.075326.534198-1.843169.155258-.234727.173014.252916.0084.792961.228448-.59916.06041-.695519.118879-1.190091.06301.166301.146813.342779.189471.518391-.148978-.579238.152226-.975069.227148-1.311785-.07406-.03248-.229747.255948-.265692-.427879.0054-.297089.08293-.155691.1126-.22888-.05803-.03356-.211125-.261361-.304019-.698117.06691-.102856.180159.266125.271971.281066-.05911-.34711-.160671-.611936-.165002-.878494-.268506-.560833-.09506.07492-.312464-.24079-.285829-.890836.236893-.206793.272405-.611285.432643.626876.679279 1.59913.792962 2.001673-.08662-.49089-.226283-.966623-.397132-1.426766.131872.05565-.21199-1.009715.171283-.304235-.40904-1.5038541-1.749192-2.9091837-2.982375-3.5683246.150494.1379348.340831.3111648.272838.3384481-.613668-.3648656-.505832-.3936652-.593746-.54784-.49912-.2033289-.532466.01667-.862687.0004329-.941938-.4997689-1.123398-.446717-1.990197-.7593976l.03941.1844902c-.623845-.2078761-.726917.078386-1.400999.0004335-.04093-.031833.216104-.1160648.427878-.1465966-.603274.079686-.575124-.1190957-1.165405.021869.145296-.1019893.299471-.1697654.454512-.2563807-.491757.029886-1.1745.2862632-.963809.052835-.802272.3581536-2.227307.8607371-3.02698 1.6106071l-.02512-.1680332c-.366382.4397886-1.597831 1.3135182-1.695923 1.8836612l-.09809.022734c-.190337.3228579-.31398.6885897-.465124 1.0205417-.249234.425064-.365514.163702-.330002.230396-.490458.994341-.734496 1.829743-.944755 2.515301.149844.224117.0037 1.349464.0602 2.250043-.245987 4.448551 3.12204 8.767394 6.803614 9.764336.539612.193368 1.341884.186439 2.024411.205491-.805087-.230395-.909025-.121909-1.693758-.3954-.565813-.266774-.689672-.57101-1.0907-.918984l.158722.280415c-.786032-.27825-.457111-.344292-1.096763-.546754l.169549-.221085c-.254865-.01949-.674948-.429178-.789713-.656759l-.278901.01105c-.334767-.412721-.51341-.710893-.500201-.941939l-.09008.160671c-.10199-.175179-1.232316-1.549976-.645933-1.229934-.108918-.09917-.253782-.161753-.410771-.447367l.119311-.136202c-.281715-.363134-.519256-.828473-.501067-.983515.150493.203113.254864.241223.358369.276086-.712625-1.767813-.752685-.09723-1.29208-1.799428l.113899-.0091c-.08726-.132305-.14075-.275003-.210908-.415536l.0498-.494788c-.512761-.592447-.143347-2.521582-.06907-3.579369.05088-.430043.428095-.88802.714574-1.606276l-.17453-.02989c.333902-.582053 1.905966-2.3383898 2.634398-2.2483107.35274-.443036-.07016-.00176-.139234-.1130321.774989-.8018396 1.018594-.5664627 1.541533-.710893.563647-.3345513-.483962.1307884-.216755-.127541.975069-.2488018.690756-.5660297 1.962482-.6922709.134253.076221-.311165.117796-.422899.2167543.812016-.397563 2.570086-.3068345 3.712539.2204352 1.324561.6195146 2.813691 2.4499062 2.872589 4.1720302l.06691.01797c-.03378.684692.104804 1.47657-.13577 2.203704l.162621-.344511" fill="#d70751"/><g transform="matrix(.2165377 0 0 .2165377 8 3.789988)"><path d="m13.437 125.506c-.045.047-.045 7.506-.138 9.453-.092 1.574-.232 4.957-3.568 4.957-3.429 0-4.263-3.939-4.541-5.652-.324-1.9-.324-3.477-.324-4.17 0-2.225.139-8.436 5.375-8.436 1.576 0 2.456.465 3.151.834zm-13.437 5.469c0 13.066 6.951 13.066 7.97 13.066 2.873 0 4.727-1.576 5.514-4.309l.093 4.123c.881-.047 1.761-.139 3.197-.139.51 0 .926 0 1.298.047.371 0 .741.045 1.158.092-.741-1.482-1.297-4.818-1.297-12.049 0-7.043 0-18.951.602-22.566-1.667.789-3.105 1.299-6.256 1.576 1.251 1.344 1.251 2.039 1.251 8.154-.879-.277-1.992-.602-3.892-.602-8.294.001-9.638 7.23-9.638 12.607"/><path d="m25.13 128.609c.047-3.846.835-7.275 4.124-7.275 3.615 0 3.891 3.984 3.799 7.275zm12.51.465c0-5.422-1.065-10.752-7.923-10.752-9.452 0-9.452 10.475-9.452 12.697 0 9.406 4.216 13.113 11.306 13.113 3.149 0 4.68-.461 5.514-.695-.046-1.668.185-2.734.465-4.17-.975.604-2.226 1.391-5.006 1.391-7.229 0-7.322-6.582-7.322-8.852h12.328z"/><path d="m52.715 131.066c0 4.309-.787 10.102-6.162 10.102-.742 0-1.668-.141-2.27-.279-.093-1.668-.093-4.541-.093-7.877 0-3.986.416-6.068.742-7.09.972-3.289 3.15-3.334 3.566-3.334 3.522 0 4.217 4.865 4.217 8.478zm-13.298 5.051c0 3.43 0 5.375-.556 6.857 1.9.742 4.262 1.158 7.09 1.158 1.807 0 7.043 0 9.869-5.791 1.344-2.688 1.807-6.303 1.807-9.037 0-1.668-.186-5.328-1.529-7.646-1.296-2.176-3.382-3.289-5.605-3.289-4.449 0-5.746 3.707-6.44 5.607 0-2.363.045-10.611.415-14.828-3.011 1.391-4.866 1.621-6.857 1.807 1.807.74 1.807 3.801 1.807 13.764v11.398"/><path d="m66.535 143.855c-.928-.139-1.578-.232-2.922-.232-1.48 0-2.502.094-3.566.232.463-.881.648-1.299.787-4.309.186-4.125.232-15.154-.092-17.471-.232-1.762-.648-2.039-1.297-2.502 3.799-.371 4.865-.648 6.625-1.482-.369 2.037-.418 3.059-.418 6.162-.091 15.989-.138 17.702.883 19.602"/><path d="m81.373 130.74c-.092 2.92-.139 4.959-.928 6.58-.973 2.086-2.594 2.688-3.799 2.688-2.783 0-3.383-2.316-3.383-4.586 0-4.355 3.893-4.682 5.652-4.682zm-12.744 5.701c0 2.92.881 5.838 3.477 7.09 1.158.51 2.316.51 2.688.51 4.264 0 5.699-3.152 6.58-5.098-.047 2.039 0 3.289.139 4.912.834-.047 1.668-.139 3.059-.139.787 0 1.529.092 2.316.139-.51-.787-.787-1.252-.928-3.059-.092-1.76-.092-3.521-.092-5.977l.047-9.453c0-3.523-.928-6.998-7.879-6.998-4.586 0-7.273 1.391-8.617 2.086.557 1.02 1.02 1.898 1.436 3.893 1.809-1.576 4.172-2.41 6.58-2.41 3.848 0 3.848 2.549 3.848 6.162-.881-.045-1.623-.137-2.875-.137-5.887.001-9.779 2.268-9.779 8.479"/><path d="m108.063 139.268c.047 1.576.047 3.244.695 4.588-1.021-.092-1.623-.232-3.521-.232-1.113 0-1.715.094-2.596.232.184-.602.279-.834.371-1.623.139-1.064.232-4.633.232-5.885v-5.004c0-2.178 0-5.33-.141-6.441-.092-.787-.322-2.918-3.012-2.918-2.641 0-3.521 1.945-3.846 3.521-.369 1.621-.369 3.383-.369 10.24.045 5.932.045 6.486.508 8.109-.787-.092-1.76-.184-3.15-.184-1.113 0-1.854.045-2.779.184.324-.742.51-1.113.602-3.707.094-2.549.279-15.061-.141-18.025-.23-1.809-.695-2.225-1.203-2.688 3.754-.186 4.957-.789 6.117-1.389v4.91c.555-1.438 1.713-4.635 6.348-4.635 5.793 0 5.838 4.217 5.885 6.996z"/><path d="m66.926 111.533-3.838 3.836-3.836-3.836 3.836-3.836z" fill="#d70751"/></g></svg>