<svg height="48" width="48" xmlns="http://www.w3.org/2000/svg" xmlns:xlink="http://www.w3.org/1999/xlink"><linearGradient id="a" gradientTransform="matrix(1.1538423 0 0 1.1746103 -5.728901 4.720793)" gradientUnits="userSpaceOnUse" x1="32.891998" x2="36.358002" y1="8.059" y2="5.4565"><stop offset="0" stop-color="#ddecff"/><stop offset="1" stop-color="#bfd3e6"/></linearGradient><radialGradient id="b" cx="48" cy="90.171875" gradientTransform="matrix(.49599117 0 0 .42857136 .192419 4.354916)" gradientUnits="userSpaceOnUse" r="42" xlink:href="#c"/><linearGradient id="c"><stop offset="0" stop-color="#fff"/><stop offset="1" stop-color="#fff" stop-opacity="0"/></linearGradient><linearGradient id="d" gradientTransform="matrix(0 -.54642861 .42857142 0 3.428572 46.278573)" gradientUnits="userSpaceOnUse" x1="7.3709" x2="23.76619" y1="51.470146" y2="51.433136"><stop offset="0" stop-color="#637381"/><stop offset="1" stop-color="#6a7e8d"/></linearGradient><linearGradient id="e" gradientUnits="userSpaceOnUse" x1="248.07678816" x2="248.07678816" y1="-62.6598922" y2="-98.66515562275"><stop offset="0" stop-color="#a8bece"/><stop offset="1" stop-color="#cddfed"/></linearGradient><linearGradient id="f" gradientTransform="matrix(.4285717 0 0 .43033246 227.50536 -101.24189)" gradientUnits="userSpaceOnUse" x1="36.357143" x2="36.357143" xlink:href="#c" y1="6" y2="63.893143"/><linearGradient id="g" gradientTransform="matrix(1.0058652 0 0 .994169 100 0)" gradientUnits="userSpaceOnUse" x1="45.447727" x2="45.447727" y1="92.539597" y2="7.01654"><stop offset="0"/><stop offset="1" stop-opacity=".588235"/></linearGradient><linearGradient id="h" gradientTransform="matrix(.90932204 0 0 -.90907903 8.945106 90.567956)" gradientUnits="userSpaceOnUse" x1="32.251034" x2="32.251034" xlink:href="#g" y1="6.131708" y2="90.238609"/><linearGradient id="i" gradientTransform="matrix(.88394566 0 0 -.88394572 10.163169 89.361561)" gradientUnits="userSpaceOnUse" x1="32.251034" x2="32.251034" xlink:href="#g" y1="6.131708" y2="90.238609"/><linearGradient id="j" gradientTransform="matrix(.4306884 0 0 .43193244 3.323514 .467704)" gradientUnits="userSpaceOnUse" x1="19.862228" x2="79.795067" y1="22.729111" y2="76.817848"><stop offset="0" stop-color="#8f9fb1"/><stop offset="1" stop-color="#e5efff"/></linearGradient><clipPath id="k"><rect height="55.999996" rx="3" width="72" x="12" y="20"/></clipPath><linearGradient id="l" gradientUnits="userSpaceOnUse" spreadMethod="reflect" x1="48.40678" x2="48" y1="23.38983" y2="72"><stop offset="0" stop-color="#4a7aff"/><stop offset="1" stop-color="#0c577f"/></linearGradient><radialGradient id="m" cx="56" cy="24" gradientUnits="userSpaceOnUse" r="16"><stop offset="0" stop-color="#3391aa"/><stop offset="1" stop-color="#2c606a" stop-opacity="0"/></radialGradient><radialGradient id="n" cx="60.562889" cy="49.720657" gradientUnits="userSpaceOnUse" r="19.437111" xlink:href="#o"/><linearGradient id="o"><stop offset="0" stop-color="#50d8f5"/><stop offset="1" stop-color="#2ca5c2" stop-opacity="0"/></linearGradient><radialGradient id="p" cx="47.977352" cy="64.057671" gradientUnits="userSpaceOnUse" r="24.022646" xlink:href="#o"/><radialGradient id="q" cx="58.5" cy="37.5" gradientUnits="userSpaceOnUse" r="2.5" xlink:href="#c"/><g transform="matrix(1.05 0 0 1.05 -1.2 -2.25)"><g transform="matrix(.51177463 0 0 .51177463 -2.915536 .981307)"><path d="m20.618253 86.01187c-3.916074 0-7.105399-3.225978-7.105399-7.187076v-63.785252c0-3.961099 3.189325-7.1870759 7.105399-7.1870759h41.230022l29.823983 29.8239829v41.148345c0 3.961098-3.189315 7.187076-7.1054 7.187076z" fill="url(#h)" opacity=".2"/><path d="m21.510559 84.057885h62.16399c3.34823 0 6.04372-2.727212 6.04372-6.114824v-39.038079l-29.09854-29.0985314h-39.10917c-3.34822 0-6.04372 2.7272114-6.04372 6.1148244v62.021786c0 3.387612 2.6955 6.114824 6.04372 6.114824z" fill="url(#i)" opacity=".3"/></g><g transform="translate(-224.07679 105.6599)"><path d="m232.64822-98.6599h19.54285l13.88572 13.885715v19.542857c0 1.424571-1.14685 2.571428-2.57143 2.571428h-30.85714c-1.42458 0-2.57143-1.146857-2.57143-2.571428v-30.857144c0-1.424571 1.14685-2.571428 2.57143-2.571428z" fill="url(#e)"/><path d="m232.64822-98.6599c-1.42457 0-2.57143 1.151568-2.57143 2.581998v.860662 28.234034c1.98322 4.185183.51348 2.977317.42857.430332v-28.09486-.860668c0-1.197119.95064-2.151664 2.14286-2.151664h.85715 17.82858.85715l13.45714 13.326778v.860667 16.919747c-1.2063 3.165148.42855 3.584963.42855-.430333v-16.919747-.860668l-13.88571-13.896278z" fill="url(#f)" opacity=".5"/></g><path d="m11.450312 30.714286c-1.431537 0-1.7360265-.215288-1.7360265-1.559027v-16.881946c0-1.343737.3064845-1.487533 1.7360265-1.559027h19.281116l8.03026 7.314286v11.126687c0 1.343739-.30449 1.559027-1.736026 1.559027z" fill="url(#j)"/><g clip-path="url(#k)" stroke="none" stroke-opacity="0" transform="matrix(.36375661 0 0 .30782315 6.777778 5.891156)"><path d="m12 20h50l22 19.999998v35.999998h-72z" fill="url(#l)"/><path d="m72 24a16 16 0 1 1 -32 0 16 16 0 1 1 32 0z" fill="url(#m)" opacity=".5" transform="matrix(2.4668467 0 0 2.4668467 -110.14342 -33.204321)"/><path d="m80 49.720657a19.437111 19.437111 0 1 1 -38.874222 0 19.437111 19.437111 0 1 1 38.874222 0z" fill="url(#n)" opacity=".696721" transform="matrix(.92606356 0 0 .92606356 20.477805 -.044489)"/><path d="m71.999998 64.057671a24.022646 24.022646 0 1 1 -48.045292 0 24.022646 24.022646 0 1 1 48.045292 0z" fill="url(#p)" transform="translate(-23.999998 -16.057671)"/><path d="m80 49.720657a19.437111 19.437111 0 1 1 -38.874222 0 19.437111 19.437111 0 1 1 38.874222 0z" fill="url(#n)" opacity=".434426" transform="translate(-12.562889 -5.157768)"/><g fill="#fff"><path d="m61 37.5a2.5 2.5 0 1 1 -5 0 2.5 2.5 0 1 1 5 0z" opacity=".4"/><path d="m61 37.5a2.5 2.5 0 1 1 -5 0 2.5 2.5 0 1 1 5 0z" opacity=".504098" transform="translate(-33.5 10)"/><path d="m61 37.5a2.5 2.5 0 1 1 -5 0 2.5 2.5 0 1 1 5 0z" opacity=".3" transform="translate(4 13.5)"/><path d="m61 37.5a2.5 2.5 0 1 1 -5 0 2.5 2.5 0 1 1 5 0z" opacity=".504098" transform="translate(17 8.5)"/><path d="m61 37.5a2.5 2.5 0 1 1 -5 0 2.5 2.5 0 1 1 5 0z" opacity=".504098" transform="translate(-17 7.5)"/><path d="m61 37.5a2.5 2.5 0 1 1 -5 0 2.5 2.5 0 1 1 5 0z" opacity=".504098" transform="translate(-42 3.5)"/><path d="m61 37.5a2.5 2.5 0 1 1 -5 0 2.5 2.5 0 1 1 5 0z" opacity=".3" transform="translate(-42 3.5)"/><path d="m61 37.5a2.5 2.5 0 1 1 -5 0 2.5 2.5 0 1 1 5 0z" opacity=".504098" transform="matrix(.4 0 0 .4 -6.4 35)"/><path d="m61 37.5a2.5 2.5 0 1 1 -5 0 2.5 2.5 0 1 1 5 0z" opacity=".504098" transform="matrix(.4 0 0 .4 7.6 38)"/><path d="m61 37.5a2.5 2.5 0 1 1 -5 0 2.5 2.5 0 1 1 5 0z" opacity=".504098" transform="matrix(.4 0 0 .4 9.6 34)"/><path d="m61 37.5a2.5 2.5 0 1 1 -5 0 2.5 2.5 0 1 1 5 0z" opacity=".3" transform="matrix(.4 0 0 .4 16.6 36)"/><path d="m61 37.5a2.5 2.5 0 1 1 -5 0 2.5 2.5 0 1 1 5 0z" opacity=".504098" transform="matrix(.4 0 0 .4 28.6 28)"/><path d="m61 37.5a2.5 2.5 0 1 1 -5 0 2.5 2.5 0 1 1 5 0z" opacity=".504098" transform="matrix(.4 0 0 .4 45.6 33)"/><path d="m61 37.5a2.5 2.5 0 1 1 -5 0 2.5 2.5 0 1 1 5 0z" opacity=".504098" transform="matrix(.4 0 0 .4 47.6 29)"/><path d="m61 37.5a2.5 2.5 0 1 1 -5 0 2.5 2.5 0 1 1 5 0z" opacity=".504098" transform="matrix(.4 0 0 .4 55.6 23)"/><path d="m61 37.5a2.5 2.5 0 1 1 -5 0 2.5 2.5 0 1 1 5 0z" opacity=".504098" transform="matrix(.4 0 0 .4 38.6 30)"/><path d="m61 37.5a2.5 2.5 0 1 1 -5 0 2.5 2.5 0 1 1 5 0z" opacity=".504098" transform="matrix(.4 0 0 .4 38.6 30)"/><path d="m61 37.5a2.5 2.5 0 1 1 -5 0 2.5 2.5 0 1 1 5 0z" opacity=".504098" transform="matrix(.6 0 0 .6 -1.1 21)"/><path d="m61 37.5a2.5 2.5 0 1 1 -5 0 2.5 2.5 0 1 1 5 0z" opacity=".504098" transform="matrix(.6 0 0 .6 -6.6 18.5)"/><path d="m61 37.5a2.5 2.5 0 1 1 -5 0 2.5 2.5 0 1 1 5 0z" opacity=".504098" transform="matrix(.6 0 0 .6 15.9 31)"/><path d="m61 37.5a2.5 2.5 0 1 1 -5 0 2.5 2.5 0 1 1 5 0z" opacity=".504098" transform="matrix(.6 0 0 .6 19.4 26.5)"/><path d="m61 37.5a2.5 2.5 0 1 1 -5 0 2.5 2.5 0 1 1 5 0z" opacity=".504098" transform="matrix(.6 0 0 .6 19.4 26.5)"/><path d="m61 37.5a2.5 2.5 0 1 1 -5 0 2.5 2.5 0 1 1 5 0z" opacity=".504098" transform="matrix(.6 0 0 .6 37.9 29)"/></g><path d="m61 37.5a2.5 2.5 0 1 1 -5 0 2.5 2.5 0 1 1 5 0z" fill="url(#q)" opacity=".3" transform="matrix(1.6 0 0 1.6 -43.6 -16)"/><path d="m61 37.5a2.5 2.5 0 1 1 -5 0 2.5 2.5 0 1 1 5 0z" fill="url(#q)" opacity=".3" transform="matrix(1.6 0 0 1.6 -23.6 -10)"/><path d="m61 37.5a2.5 2.5 0 1 1 -5 0 2.5 2.5 0 1 1 5 0z" fill="url(#q)" opacity=".3" transform="matrix(1.6 0 0 1.6 -72.6 -15)"/><path d="m61 37.5a2.5 2.5 0 1 1 -5 0 2.5 2.5 0 1 1 5 0z" fill="url(#q)" opacity=".3" transform="matrix(1.6 0 0 1.6 -59.6 -9)"/><path d="m61 37.5a2.5 2.5 0 1 1 -5 0 2.5 2.5 0 1 1 5 0z" fill="url(#q)" opacity=".3" transform="translate(-27 2.5)"/><path d="m61 37.5a2.5 2.5 0 1 1 -5 0 2.5 2.5 0 1 1 5 0z" fill="url(#q)" opacity=".3" transform="translate(9 4.5)"/><path d="m61 37.5a2.5 2.5 0 1 1 -5 0 2.5 2.5 0 1 1 5 0z" fill="url(#q)" opacity=".3" transform="translate(21 6.5)"/><path d="m61 37.5a2.5 2.5 0 1 1 -5 0 2.5 2.5 0 1 1 5 0z" fill="url(#q)" opacity=".3" transform="translate(-35 12.5)"/><path d="m61 37.5a2.5 2.5 0 1 1 -5 0 2.5 2.5 0 1 1 5 0z" fill="#fff" opacity=".504098" transform="matrix(.4 0 0 .4 39.6 24)"/></g><path d="m23.095 7.0007336c3.179734 0 1.245573 14.2927244 1.245573 14.2927244s17.662844-1.870813 17.662844 3.984542c0-1.426319-.003417-4.392285-.003417-4.392285l-13.88572-13.885715z" fill-rule="evenodd" opacity=".2" stroke-width=".955713"/><path d="m6 39.721429c0 1.816327 1.146857 3.278571 2.571429 3.278571h30.857142c1.424572 0 2.571429-1.462244 2.571429-3.278571v-6.150001h-36z" fill="url(#d)"/><path d="m8.5714282 43c-1.4245712 0-2.5714282-1.151569-2.5714282-2.581994v-.999812c.017537-5.232461.4285697-5.344044.4285697-.430358v.860665c0 1.197119.9506364 2.151662 2.1428585 2.151662h.8571448 29.142844.857145c1.192222 0 2.142858-.954543 2.142858-2.151662v-.860665c.04207-5.833454.42858-3.83731.42858.430333v.999812c-.00001 1.43045-1.146867 2.582019-2.571438 2.582019z" fill="url(#b)" opacity=".2"/><g fill-rule="evenodd"><path d="m24.277 7c3.0062 0 1.165566 13.240168 1.165566 13.240168s16.558213-1.970967 16.558213 3.564832c0-1.348478-.000779-2.919285-.000779-2.919285l-13.88572-13.885715z" opacity=".2" stroke-width=".903555"/><path d="m25.695529 7.0086975c2.832447 0 1.020233 12.2306245 1.020233 12.2306245s15.288338-1.878262 15.288338 3.337578c0-1.270538-.0041-1.691185-.0041-1.691185l-13.88572-13.885715z" fill="url(#a)" stroke-width=".851331"/></g></g><path d="m5.1000001 33h37.7999999v1h-37.7999999z" opacity=".3"/><g fill="#fff"><path d="m5.1000001 32h37.7999999v1h-37.7999999z" opacity=".4"/><g transform="matrix(.477513 0 0 .477513 .719584 1.366422)"><path d="m33.972657 70.610675h2.506511v8.776041q0 1.816406-.989583 2.714844-.983073.898437-2.981771.898437h-.507813v-1.894531h.390625q.78125 0 1.178386-.436198.403645-.436198.403645-1.282552z"/><path d="m38.946616 70.610675h4.160156q1.855468 0 2.845052.826823.996093.820312.996093 2.34375 0 1.529947-.996093 2.35677-.989584.820313-2.845052.820313h-1.653646v3.372396h-2.50651zm2.50651 1.816406v2.714844h1.386719q.729166 0 1.126302-.351563.397135-.358073.397135-1.009114 0-.651042-.397135-1.002605-.397136-.351562-1.126302-.351562z"/><path d="m48.712241 70.610675h6.764322v1.894531h-4.257812v1.809896h4.003906v1.894531h-4.003906v2.226562h4.401041v1.894532h-6.907551z"/><path d="m66.563802 79.60807q-.937499.45573-1.946614.683594-1.009115.227865-2.083333.227865-2.428386 0-3.847656-1.354167-1.419271-1.360677-1.419271-3.684896 0-2.35026 1.445312-3.697916 1.445313-1.347656 3.958333-1.347656.970052 0 1.855469.182291.891927.182292 1.679688.540365v2.011718q-.813802-.462239-1.621094-.690104-.800781-.227864-1.608073-.227864-1.497396 0-2.311198.839843-.807292.833334-.807292 2.389323 0 1.542969.78125 2.382813.78125.839843 2.220052.839843.390625 0 .722657-.04557.338541-.05208.605468-.15625v-1.888021h-1.529947v-1.679688h3.906249z"/></g></g></svg>