<svg height="96" width="96" xmlns="http://www.w3.org/2000/svg" xmlns:xlink="http://www.w3.org/1999/xlink"><linearGradient id="a"><stop offset="0" stop-color="#fff"/><stop offset="1" stop-color="#fff" stop-opacity="0"/></linearGradient><linearGradient id="b" gradientTransform="matrix(1.0238095 0 0 1.0119048 -1.142857 -98.071429)" gradientUnits="userSpaceOnUse" x1="32.251034" x2="32.251034" y1="6.131708" y2="90.238609"><stop offset="0"/><stop offset="1" stop-opacity=".588235"/></linearGradient><linearGradient id="c" gradientTransform="matrix(1.8576982 0 0 2.1225772 3.927063 .571947)" gradientUnits="userSpaceOnUse" x1="12.578789" x2="12.578789" xlink:href="#a" y1="2.913743" y2="43.810863"/><linearGradient id="d" gradientTransform="matrix(1.5405634 0 0 1.5027205 -1.132737 -2.625232)" gradientUnits="userSpaceOnUse" x1="33.579403" x2="33.579403" xlink:href="#e" y1="5.708645" y2="16.323294"/><linearGradient id="e"><stop offset="0" stop-color="#262626"/><stop offset="1" stop-color="#303030"/></linearGradient><linearGradient id="f" gradientTransform="matrix(1.890625 0 0 2.2781495 3.139078 -9.992708)" gradientUnits="userSpaceOnUse" x1="16.91585" x2="16.91585" xlink:href="#e" y1="7.000642" y2="14"/><linearGradient id="g" gradientTransform="matrix(1.8338353 0 0 .79955926 4.514517 13.800151)" gradientUnits="userSpaceOnUse" x1="24.682861" x2="24.682861" y1="9.241672" y2="13.523027"><stop offset="0"/><stop offset="1" stop-opacity="0"/></linearGradient><radialGradient id="h" cx="26.616697" cy="-2.064498" gradientTransform="matrix(-.00000003 -2.4357554 2.6407402 0 71.136419 123.79768)" gradientUnits="userSpaceOnUse" r="23"><stop offset="0" stop-color="#c5f2ac"/><stop offset="1" stop-color="#63a851"/></radialGradient><g fill="url(#b)"><path d="m12-95.03125c-5.5110903 0-10.03125 4.52016-10.03125 10.03125v71c0 5.5110902 4.5201598 10.03125 10.03125 10.03125h72c5.51109 0 10.03125-4.5201597 10.03125-10.03125v-71c0-5.51109-4.52016-10.03125-10.03125-10.03125z" opacity=".08" transform="scale(1 -1)"/><path d="m12-94.03125c-4.971633 0-9.03125 4.059617-9.03125 9.03125v71c0 4.9716329 4.0596171 9.03125 9.03125 9.03125h72c4.971633 0 9.03125-4.059617 9.03125-9.03125v-71c0-4.971633-4.059617-9.03125-9.03125-9.03125z" opacity=".1" transform="scale(1 -1)"/><path d="m12-93c-4.4091333 0-8 3.590867-8 8v71c0 4.4091333 3.5908667 8 8 8h72c4.409133 0 8-3.5908667 8-8v-71c0-4.409133-3.590867-8-8-8z" opacity=".2" transform="scale(1 -1)"/><rect height="85" opacity=".3" rx="7" transform="scale(1 -1)" width="86" x="5" y="-92"/></g><g fill-rule="evenodd"><rect fill="url(#h)" height="84.565414" rx="4.921875" ry="5.979502" stroke="#505050" stroke-linecap="round" stroke-linejoin="round" stroke-width=".776649" width="85.076622" x="5.975769" y="7.095784"/><path d="m6.326591 21.189417h84.375v3.416858h-84.375z" fill="url(#g)" opacity=".2"/><path d="m11.646889 7.0948754s74.37007.019572 74.37007.019572c2.95868 0 5.03619 2.8731724 5.03619 6.0525416v7.595324h-85.0781298s-.00001-7.595324-.00001-7.595324c0-3.3887953 2.28536-6.0721073 5.6718798-6.0721073z" fill="url(#d)" stroke="url(#f)" stroke-width=".774997"/></g><rect height="82.855606" rx="4.21875" ry="5.125288" style="opacity:.4;fill:none;stroke-width:.777888;stroke-linecap:round;stroke-linejoin:round;stroke:url(#c)" width="83.669243" x="6.679458" y="7.950726"/></svg>