<svg height="22" width="22" xmlns="http://www.w3.org/2000/svg" xmlns:xlink="http://www.w3.org/1999/xlink"><linearGradient id="a" gradientTransform="matrix(.90659037 0 0 .92290809 -6.501279 16.209194)" gradientUnits="userSpaceOnUse" x1="32.891998" x2="36.358002" y1="8.059" y2="5.4565"><stop offset="0" stop-color="#697884"/><stop offset="1" stop-color="#5c6874"/></linearGradient><radialGradient id="b" cx="48" cy="90.171875" gradientTransform="matrix(.38970735 0 0 .33673464 -1.848814 15.921719)" gradientUnits="userSpaceOnUse" r="42" xlink:href="#c"/><linearGradient id="c"><stop offset="0" stop-color="#fff"/><stop offset="1" stop-color="#fff" stop-opacity="0"/></linearGradient><linearGradient id="d" gradientTransform="matrix(0 -.42933676 .33673468 0 .693878 48.861735)" gradientUnits="userSpaceOnUse" x1="7.3709" x2="23.76619" y1="51.470146" y2="51.433136"><stop offset="0" stop-color="#202d3d"/><stop offset="1" stop-color="#2d3b48"/></linearGradient><linearGradient id="e" gradientUnits="userSpaceOnUse" x1="248.07678816" x2="248.07678816" y1="-62.6598922" y2="-98.66515562275"><stop offset="0" stop-color="#404c5c"/><stop offset="1" stop-color="#566671"/></linearGradient><linearGradient id="f" gradientTransform="matrix(.4285717 0 0 .43033246 227.50536 -101.24189)" gradientUnits="userSpaceOnUse" x1="36.357143" x2="36.357143" xlink:href="#c" y1="6" y2="63.893143"/><linearGradient id="g" gradientTransform="matrix(1.0058652 0 0 .994169 100 0)" gradientUnits="userSpaceOnUse" x1="45.447727" x2="45.447727" y1="92.539597" y2="7.01654"><stop offset="0"/><stop offset="1" stop-opacity=".588235"/></linearGradient><linearGradient id="h" gradientTransform="matrix(.90932204 0 0 -.90907903 8.945106 90.567956)" gradientUnits="userSpaceOnUse" x1="32.251034" x2="32.251034" xlink:href="#g" y1="6.131708" y2="90.238609"/><linearGradient id="i" gradientTransform="matrix(.88394566 0 0 -.88394572 10.163169 89.361561)" gradientUnits="userSpaceOnUse" x1="32.251034" x2="32.251034" xlink:href="#g" y1="6.131708" y2="90.238609"/><radialGradient id="j" cx="-22" cy="54" gradientUnits="userSpaceOnUse" r="6" xlink:href="#c"/><radialGradient id="k" cx="-34" cy="54" gradientUnits="userSpaceOnUse" r="4" xlink:href="#c"/><radialGradient id="l" cx="-42" cy="54" gradientUnits="userSpaceOnUse" r="2" xlink:href="#c"/><radialGradient id="m" cx="-26.019238" cy="38.999991" gradientUnits="userSpaceOnUse" r="6.001002" xlink:href="#c"/><radialGradient id="n" cx="-36.411545" cy="45.000011" gradientUnits="userSpaceOnUse" r="4.000668" xlink:href="#c"/><radialGradient id="o" cx="-43.339745" cy="48.999985" gradientUnits="userSpaceOnUse" r="2.000334" xlink:href="#c"/><radialGradient id="p" cx="-37" cy="28.019246" gradientUnits="userSpaceOnUse" r="6.001002" xlink:href="#c"/><radialGradient id="q" cx="-43" cy="38.411551" gradientUnits="userSpaceOnUse" r="4.000668" xlink:href="#c"/><radialGradient id="r" cx="-47" cy="45.339755" gradientUnits="userSpaceOnUse" r="2.000334" xlink:href="#c"/><radialGradient id="s" cx="-52" cy="23.999998" gradientUnits="userSpaceOnUse" r="6" xlink:href="#c"/><radialGradient id="t" cx="-52" cy="36.000004" gradientUnits="userSpaceOnUse" r="4" xlink:href="#c"/><radialGradient id="u" cx="-52" cy="44" gradientUnits="userSpaceOnUse" r="2" xlink:href="#c"/><radialGradient id="v" cx="-67" cy="28.019236" gradientUnits="userSpaceOnUse" r="6.001002" xlink:href="#c"/><radialGradient id="w" cx="-61" cy="38.411554" gradientUnits="userSpaceOnUse" r="4.000668" xlink:href="#c"/><radialGradient id="x" cx="-57" cy="45.339755" gradientUnits="userSpaceOnUse" r="2.000334" xlink:href="#c"/><radialGradient id="y" cx="-77.980759" cy="38.99999" gradientUnits="userSpaceOnUse" r="6.001002" xlink:href="#c"/><radialGradient id="z" cx="-67.588455" cy="45.000013" gradientUnits="userSpaceOnUse" r="4.000668" xlink:href="#c"/><radialGradient id="A" cx="-60.660255" cy="48.99999" gradientUnits="userSpaceOnUse" r="2.000334" xlink:href="#c"/><radialGradient id="B" cx="-82" cy="54" gradientUnits="userSpaceOnUse" r="6" xlink:href="#c"/><radialGradient id="C" cx="-70" cy="54.000007" gradientUnits="userSpaceOnUse" r="4" xlink:href="#c"/><radialGradient id="D" cx="-62" cy="54" gradientUnits="userSpaceOnUse" r="2" xlink:href="#c"/><linearGradient id="E" gradientUnits="userSpaceOnUse" x1="78" x2="78" y1="48" y2="60"><stop offset="0" stop-color="#f00"/><stop offset="1" stop-color="#ff006b"/></linearGradient><linearGradient id="F" gradientUnits="userSpaceOnUse" x1="71" x2="77" y1="34" y2="45"><stop offset="0" stop-color="#ff8200"/><stop offset="1" stop-color="#ff4700"/></linearGradient><linearGradient id="G" gradientUnits="userSpaceOnUse" x1="58" x2="68" y1="25" y2="31"><stop offset="0" stop-color="#ffd500"/><stop offset="1" stop-color="#ff9a00"/></linearGradient><linearGradient id="H" gradientUnits="userSpaceOnUse" x1="42" x2="54" y1="32" y2="32"><stop offset="0" stop-color="#46cc00"/><stop offset="1" stop-color="#85cc00"/></linearGradient><linearGradient id="I" gradientUnits="userSpaceOnUse" x1="28" x2="38.099506" y1="31" y2="25.169048"><stop offset="0" stop-color="#00b4b4"/><stop offset="1" stop-color="#00b464"/></linearGradient><linearGradient id="J" gradientUnits="userSpaceOnUse" x1="19" x2="25" y1="44" y2="34"><stop offset="0" stop-color="#03c"/><stop offset="1" stop-color="#0e7eff"/></linearGradient><linearGradient id="K" gradientUnits="userSpaceOnUse" x1="18" x2="18" y1="60" y2="47.958405"><stop offset="0" stop-color="#609"/><stop offset="1" stop-color="#330eac"/></linearGradient><g transform="matrix(.7 0 0 .7 -.8 -11.5)"><g transform="matrix(.40210864 0 0 .40210864 -4.290778 13.271027)"><path d="m20.618253 86.01187c-3.916074 0-7.105399-3.225978-7.105399-7.187076v-63.785252c0-3.961099 3.189325-7.1870759 7.105399-7.1870759h41.230022l29.823983 29.8239829v41.148345c0 3.961098-3.189315 7.187076-7.1054 7.187076z" fill="url(#h)" opacity=".329"/><path d="m21.510559 84.057885h62.16399c3.34823 0 6.04372-2.727212 6.04372-6.114824v-39.038079l-29.09854-29.0985314h-39.10917c-3.34822 0-6.04372 2.7272114-6.04372 6.1148244v62.021786c0 3.387612 2.6955 6.114824 6.04372 6.114824z" fill="url(#i)" opacity=".412"/></g><g transform="matrix(.78571428 0 0 .78571428 -178.06033 95.518491)"><path d="m232.64822-98.6599h19.54285l13.88572 13.885715v19.542857c0 1.424571-1.14685 2.571428-2.57143 2.571428h-30.85714c-1.42458 0-2.57143-1.146857-2.57143-2.571428v-30.857144c0-1.424571 1.14685-2.571428 2.57143-2.571428z" fill="url(#e)"/><path d="m232.64822-98.6599c-1.42457 0-2.57143 1.151568-2.57143 2.581998v.860662 28.234034c1.98322 4.185183.51348 2.977317.42857.430332v-28.09486-.860668c0-1.197119.95064-2.151664 2.14286-2.151664h.85715 17.82858.85715l13.45714 13.326778v.860667 16.919747c-1.2063 3.165148.42855 3.584963.42855-.430333v-16.919747-.860668l-13.88571-13.896278z" fill="url(#f)" opacity=".3"/></g><g transform="matrix(.27685493 0 0 .27685493 .67774 21.245847)"><path d="m78 48c-3.313709 0-6 2.68629-6 6s2.686291 6 6 6 6-2.68629 6-6-2.686291-6-6-6zm-12 2c-2.209139 0-4 1.79086-4 4s1.790861 4 4 4 4-1.79086 4-4-1.790861-4-4-4zm-8 2c-1.104569 0-2 .89543-2 2s.895431 2 2 2 2-.89543 2-2-.895431-2-2-2z" fill="url(#E)"/><path d="m70.980762 33.80385c-2.869756 1.65685-3.853007 5.32639-2.196152 8.19615 1.656854 2.86976 5.326396 3.85301 8.196152 2.19615 2.869756-1.65685 3.853007-5.32639 2.196153-8.19615-1.656855-2.86976-5.326397-3.85301-8.196153-2.19615zm-9.392305 7.73205c-1.91317 1.10457-2.568671 3.55093-1.464101 5.4641 1.104569 1.91317 3.550931 2.56867 5.464101 1.4641 1.913171-1.10457 2.568671-3.55093 1.464102-5.4641-1.10457-1.91317-3.550931-2.56867-5.464102-1.4641zm-5.928203 5.73205c-.956585.55228-1.284335 1.77546-.732051 2.73205.552285.95659 1.775466 1.28434 2.732051.73205.956585-.55228 1.284335-1.77546.732051-2.73205-.552285-.95659-1.775466-1.28433-2.732051-.73205z" fill="url(#F)"/><path d="m57.803848 25.01924c-1.656855 2.86975-.673604 6.5393 2.196152 8.19615s6.539298.6736 8.196152-2.19615c1.656855-2.86976.673604-6.5393-2.196152-8.19615-2.869756-1.65686-6.539298-.67361-8.196152 2.19615zm-4.26795 11.3923c-1.104569 1.91317-.449068 4.35953 1.464102 5.4641s4.359532.44907 5.464102-1.4641c1.104569-1.91317.449068-4.35953-1.464102-5.4641s-4.359532-.44907-5.464102 1.4641zm-2.267949 7.92821c-.552284.95658-.224534 2.17976.732051 2.73205.956585.55228 2.179766.22453 2.732051-.73205.552284-.95659.224534-2.17977-.732051-2.73205-.956585-.55229-2.179766-.22454-2.732051.73205z" fill="url(#G)"/><path d="m42.000001 24c-.000001 3.31371 2.68629 6 5.999999 6s6-2.68629 6-6-2.686291-6-6-6-6 2.68629-5.999999 6zm1.999999 12c0 2.20914 1.790862 4 4 4 2.209139 0 4-1.79086 4.000001-4-.000001-2.20914-1.790863-4-4.000001-4s-4 1.79086-4 4zm2 8c.000001 1.10457.895431 2 2 2s2-.89543 2-2-.895431-2-2-2-2 .89543-2 2z" fill="url(#H)"/><path d="m27.803849 31.01924c1.656853 2.86975 5.326395 3.85301 8.196151 2.19615 2.869756-1.65685 3.853007-5.3264 2.196152-8.19615-1.656854-2.86976-5.326396-3.85301-8.196152-2.19615-2.869756 1.65685-3.853007 5.32639-2.196151 8.19615zm7.732049 9.3923c1.10457 1.91317 3.550932 2.56867 5.464102 1.4641 1.913171-1.10457 2.568671-3.55093 1.464103-5.4641-1.104571-1.91317-3.550933-2.56867-5.464103-1.4641s-2.568671 3.55093-1.464102 5.4641zm5.732051 5.92821c.552286.95658 1.775466 1.28433 2.732051.73205.956585-.55229 1.284335-1.77547.732051-2.73205-.552285-.95659-1.775466-1.28434-2.732051-.73205-.956585.55228-1.284335 1.77546-.732051 2.73205z" fill="url(#I)"/><path d="m19.019239 44.19615c2.869755 1.65686 6.539297.67361 8.196152-2.19615 1.656854-2.86976.673603-6.5393-2.196153-8.19615-2.869756-1.65686-6.539298-.67361-8.196152 2.19615-1.656855 2.86976-.673604 6.5393 2.196153 8.19615zm11.392303 4.26795c1.913171 1.10457 4.359533.44907 5.464103-1.4641 1.104569-1.91317.449068-4.35953-1.464101-5.4641-1.913172-1.10457-4.359534-.44907-5.464103 1.4641s-.449069 4.35953 1.464101 5.4641zm7.928204 2.26795c.956586.55229 2.179766.22454 2.732051-.73205.552285-.95658.224534-2.17977-.732051-2.73205s-2.179766-.22454-2.732051.73205c-.552284.95659-.224534 2.17977.732051 2.73205z" fill="url(#J)"/><path d="m18.000001 60c3.313708 0 5.999999-2.68629 6-6-.000001-3.31371-2.686292-6-6.000001-6s-6 2.68629-5.999999 6c-.000001 3.31371 2.68629 6 6 6zm11.999999-2c2.209139 0 4-1.79086 4.000001-4-.000001-2.20914-1.790862-4-4.000001-4s-4 1.79086-4 4 1.790861 4 4 4zm8-2c1.10457 0 2-.89543 2-2 .000001-1.10457-.895431-2-2-2s-2 .89543-2 2 .895431 2 2 2z" fill="url(#K)"/></g><path d="m16.146071 18.000576c2.498363 0 .978665 11.229997.978665 11.229997s13.877949-1.469924 13.877949 3.130712c0-1.120679-.0027-3.451081-.0027-3.451081l-10.910194-10.910204z" fill-rule="evenodd" opacity=".2" stroke-width=".750917"/><path d="m2.7142856 43.709693c0 1.427115.901102 2.576021 2.0204085 2.576021h24.2448969c1.119307 0 2.020409-1.148906 2.020409-2.576021v-5.85255h-28.2857144z" fill="url(#d)"/><path d="m4.7346935 46.285714c-1.1193059 0-2.0204079-.904805-2.0204079-2.02871v-.785567c.013779-4.111219.3367334-4.198891.3367334-.338138v.676237c0 .940593.7469286 1.690591 1.6836745 1.690591h.6734709 22.8979486.673471c.936746 0 1.683674-.749998 1.683674-1.690591v-.676237c.03306-4.583428.336742-3.015029.336742.338119v.785566c-.000008 1.123925-.90111 2.02873-2.020416 2.02873z" fill="url(#b)" opacity=".2"/><g opacity=".3" transform="matrix(.27685493 0 0 .27685493 28.363235 20.968993)"><path d="m-22 48c-3.313709 0-6 2.68629-6 6s2.686291 6 6 6 6-2.68629 6-6-2.686291-6-6-6z" fill="url(#j)"/><path d="m-34 50c-2.209139 0-4 1.79086-4 4s1.790861 4 4 4 4-1.79086 4-4-1.790861-4-4-4z" fill="url(#k)"/><path d="m-42 52c-1.104569 0-2 .89543-2 2s.895431 2 2 2 2-.89543 2-2-.895431-2-2-2z" fill="url(#l)"/><path d="m-29.019238 33.80385c-2.869756 1.65685-3.853007 5.32639-2.196152 8.19615 1.656854 2.86976 5.326396 3.85301 8.196152 2.19615 2.869756-1.65685 3.853007-5.32639 2.196153-8.19615-1.656855-2.86976-5.326397-3.85301-8.196153-2.19615z" fill="url(#m)"/><path d="m-38.411543 41.5359c-1.91317 1.10457-2.568671 3.55093-1.464101 5.4641 1.104569 1.91317 3.550931 2.56867 5.464101 1.4641 1.913171-1.10457 2.568671-3.55093 1.464102-5.4641-1.10457-1.91317-3.550931-2.56867-5.464102-1.4641z" fill="url(#n)"/><path d="m-44.339746 47.26795c-.956585.55228-1.284335 1.77546-.732051 2.73205.552285.95659 1.775466 1.28434 2.732051.73205.956585-.55228 1.284335-1.77546.732051-2.73205-.552285-.95659-1.775466-1.28433-2.732051-.73205z" fill="url(#o)"/><path d="m-42.196152 25.01924c-1.656855 2.86975-.673604 6.5393 2.196152 8.19615s6.539298.6736 8.196152-2.19615c1.656855-2.86976.673604-6.5393-2.196152-8.19615-2.869756-1.65686-6.539298-.67361-8.196152 2.19615z" fill="url(#p)"/><path d="m-46.464102 36.41154c-1.104569 1.91317-.449068 4.35953 1.464102 5.4641s4.359532.44907 5.464102-1.4641c1.104569-1.91317.449068-4.35953-1.464102-5.4641s-4.359532-.44907-5.464102 1.4641z" fill="url(#q)"/><path d="m-48.732051 44.33975c-.552284.95658-.224534 2.17976.732051 2.73205.956585.55228 2.179766.22453 2.732051-.73205.552284-.95659.224534-2.17977-.732051-2.73205-.956585-.55229-2.179766-.22454-2.732051.73205z" fill="url(#r)"/><path d="m-57.999999 24c-.000001 3.31371 2.68629 6 5.999999 6s6-2.68629 6-6-2.686291-6-6-6-6 2.68629-5.999999 6z" fill="url(#s)"/><path d="m-56 36c0 2.20914 1.790862 4 4 4 2.209139 0 4-1.79086 4.000001-4-.000001-2.20914-1.790863-4-4.000001-4s-4 1.79086-4 4z" fill="url(#t)"/><path d="m-54 44c.000001 1.10457.895431 2 2 2s2-.89543 2-2-.895431-2-2-2-2 .89543-2 2z" fill="url(#u)"/><path d="m-72.196151 31.01924c1.656853 2.86975 5.326395 3.85301 8.196151 2.19615 2.869756-1.65685 3.853007-5.3264 2.196152-8.19615-1.656854-2.86976-5.326396-3.85301-8.196152-2.19615-2.869756 1.65685-3.853007 5.32639-2.196151 8.19615z" fill="url(#v)"/><path d="m-64.464102 40.41154c1.10457 1.91317 3.550932 2.56867 5.464102 1.4641 1.913171-1.10457 2.568671-3.55093 1.464103-5.4641-1.104571-1.91317-3.550933-2.56867-5.464103-1.4641s-2.568671 3.55093-1.464102 5.4641z" fill="url(#w)"/><path d="m-58.732051 46.33975c.552286.95658 1.775466 1.28433 2.732051.73205.956585-.55229 1.284335-1.77547.732051-2.73205-.552285-.95659-1.775466-1.28434-2.732051-.73205-.956585.55228-1.284335 1.77546-.732051 2.73205z" fill="url(#x)"/><path d="m-80.980761 44.19615c2.869755 1.65686 6.539297.67361 8.196152-2.19615 1.656854-2.86976.673603-6.5393-2.196153-8.19615-2.869756-1.65686-6.539298-.67361-8.196152 2.19615-1.656855 2.86976-.673604 6.5393 2.196153 8.19615z" fill="url(#y)"/><path d="m-69.588458 48.4641c1.913171 1.10457 4.359533.44907 5.464103-1.4641 1.104569-1.91317.449068-4.35953-1.464101-5.4641-1.913172-1.10457-4.359534-.44907-5.464103 1.4641s-.449069 4.35953 1.464101 5.4641z" fill="url(#z)"/><path d="m-61.660254 50.73205c.956586.55229 2.179766.22454 2.732051-.73205.552285-.95658.224534-2.17977-.732051-2.73205s-2.179766-.22454-2.732051.73205c-.552284.95659-.224534 2.17977.732051 2.73205z" fill="url(#A)"/><path d="m-81.999999 60c3.313708 0 5.999999-2.68629 6-6-.000001-3.31371-2.686292-6-6.000001-6s-6 2.68629-5.999999 6c-.000001 3.31371 2.68629 6 6 6z" fill="url(#B)"/><path d="m-70 58c2.209139 0 4-1.79086 4.000001-4-.000001-2.20914-1.790862-4-4.000001-4s-4 1.79086-4 4 1.790861 4 4 4z" fill="url(#C)"/><path d="m-62 56c1.10457 0 2-.89543 2-2 .000001-1.10457-.895431-2-2-2s-2 .89543-2 2 .895431 2 2 2z" fill="url(#D)"/></g><path d="m17.074786 18c2.362014 0 .915801 10.402988.915801 10.402988s4.605338-.548185 8.335981-.0762c2.53971.321312 4.674044 1.11542 4.674044 2.877141 0-1.059522-.000612-2.293727-.000612-2.293727l-10.910209-10.910202z" fill-rule="evenodd" opacity=".2" stroke-width=".709936"/><path d="m11.124145 20.680988-.961177 2.54257h1.925867zm-.399902-.680988h.803318l1.996028 5.109113h-.736668l-.477082-1.310677h-2.3608584l-.477082 1.310677h-.747196z" fill="#fff"/><path d="m18.189344 18.006833c2.225494 0 .801612 9.609776.801612 9.609776s12.012265-1.475777 12.012265 2.622383c0-.99828-.0032-1.328788-.0032-1.328788l-10.91023-10.910204z" fill="url(#a)" fill-rule="evenodd" stroke-width=".668903"/><g fill="#fff"><g transform="matrix(.43070451 0 0 .43070451 -3.729288 6.236032)"><path d="m25.188292 79.256676v2.329101h2.702636v1.875h-2.702636v3.479004q0 .571289.22705.776367.227051.197754.900879.197754h1.347656v1.875h-2.248535q-1.552734 0-2.20459-.644531-.644531-.651855-.644531-2.20459v-3.479004h-1.303711v-1.875h1.303711v-2.329101z"/><path d="m37.749327 84.793785v4.995117h-2.636719v-.812988-2.995605q0-1.076661-.05127-1.479493-.04395-.402832-.161132-.593261-.153809-.256348-.417481-.395508-.263672-.146485-.600586-.146485-.820312 0-1.289062.637207-.46875.629883-.46875 1.750489v4.035644h-2.622071v-11.396484h2.622071v4.394531q.593261-.717773 1.259765-1.054687.666504-.344239 1.472168-.344239 1.420899 0 2.153321.871582.739746.871582.739746 2.53418z"/><path d="m48.384092 85.665367v.74707h-6.130371q.09522.922852.666504 1.384278.571289.461426 1.59668.461426.827637 0 1.691894-.2417.871582-.249023 1.78711-.74707v2.021484q-.930176.351563-1.860352.527344-.930176.183106-1.860351.183106-2.226563 0-3.464356-1.12793-1.230469-1.135254-1.230469-3.178711 0-2.006836 1.208496-3.156738 1.215821-1.149903 3.339844-1.149903 1.933594 0 3.090821 1.164551 1.16455 1.164551 1.16455 3.112793zm-2.695312-.871582q0-.74707-.439453-1.201172-.432129-.461426-1.135254-.461426-.761719 0-1.237793.432129-.476074.424805-.593262 1.230469z"/><path d="m57.96417 82.948082q.498047-.761719 1.1792-1.157227.688476-.402832 1.508789-.402832 1.413574 0 2.15332.871582.739746.871582.739746 2.53418v4.995117h-2.636719v-4.277343q.0073-.09522.0073-.197754.0073-.102539.0073-.292969 0-.871582-.256348-1.259766-.256347-.395508-.827637-.395508-.74707 0-1.157226.615235-.402832.615234-.417481 1.779785v4.02832h-2.636718v-4.277343q0-1.362305-.234375-1.750489-.234375-.395508-.834961-.395508-.754395 0-1.164551.622559-.410156.615234-.410156 1.765137v4.035644h-2.636719v-8.203125h2.636719v1.201172q.483398-.695801 1.105957-1.047363.629883-.351563 1.384277-.351563.849609 0 1.501465.410157.651855.410156.988769 1.149902z"/><path d="m74.194639 85.665367v.74707h-6.130371q.09521.922852.666504 1.384278.571289.461426 1.59668.461426.827636 0 1.691894-.2417.871582-.249023 1.78711-.74707v2.021484q-.930176.351563-1.860352.527344-.930176.183106-1.860352.183106-2.226562 0-3.464355-1.12793-1.230469-1.135254-1.230469-3.178711 0-2.006836 1.208496-3.156738 1.215821-1.149903 3.339844-1.149903 1.933594 0 3.09082 1.164551 1.164551 1.164551 1.164551 3.112793zm-2.695312-.871582q0-.74707-.439453-1.201172-.432129-.461426-1.135254-.461426-.761719 0-1.237793.432129-.476075.424805-.593262 1.230469z"/></g><path d="m16.457091 23.182509c-.508745 0-.861213.05818-1.057408.174518-.196197.116347-.294297.314807-.294296.595434-.000001.22356.07301.401489.219012.533831.148287.130035.349044.195044.602277.195044.349042 0 .628509-.123192.838393-.369563.212165-.248677.318248-.578339.318249-.98897v-.140299h-.626227m1.255882-.26008v2.186689h-.629655v-.581767c-.143725.232707-.32281.404965-.537256.516724-.214453.109509-.476803.164262-.787068.164262-.392397 0-.704941-.109501-.937633-.328527-.230419-.22128-.34563-.516707-.345629-.886301-.000001-.43117.143727-.75624.431179-.975265.289728-.219003.720902-.328515 1.293526-.328515h.882881v-.0616c-.000001-.289725-.09581-.513298-.287452-.670704-.189353-.159696-.45627-.239545-.800752-.23955-.219008.000005-.432317.02623-.639919.07871-.207603.05247-.407222.131173-.598853.236112v-.581741c.230416-.08899.453988-.155127.670714-.198468.216728-.04564.427755-.06846.633074-.06846.554369 0 .968434.143719 1.2422.43119.273757.287426.41064.723178.410643 1.307209"/></g></g><path d="m1.1 15h19.8v1h-19.8z" opacity=".3"/></svg>