<svg height="22" width="22" xmlns="http://www.w3.org/2000/svg" xmlns:xlink="http://www.w3.org/1999/xlink"><linearGradient id="a"><stop offset="0"/><stop offset="1" stop-opacity="0"/></linearGradient><linearGradient id="b" gradientTransform="matrix(.90659037 0 0 .92290809 -6.501279 16.209194)" gradientUnits="userSpaceOnUse" x1="32.891998" x2="36.358002" y1="8.059" y2="5.4565"><stop offset="0" stop-color="#966b33"/><stop offset="1" stop-color="#805123"/></linearGradient><radialGradient id="c" cx="48" cy="90.171875" gradientTransform="matrix(.38970735 0 0 .33673464 -1.848814 15.921719)" gradientUnits="userSpaceOnUse" r="42" xlink:href="#d"/><linearGradient id="d"><stop offset="0" stop-color="#fff"/><stop offset="1" stop-color="#fff" stop-opacity="0"/></linearGradient><linearGradient id="e" gradientTransform="matrix(0 -.42933676 .33673468 0 .693878 48.861735)" gradientUnits="userSpaceOnUse" x1="7.3709" x2="23.76619" y1="51.470146" y2="51.433136"><stop offset="0" stop-color="#4e2b08"/><stop offset="1" stop-color="#6a4017"/></linearGradient><linearGradient id="f" gradientUnits="userSpaceOnUse" x1="248.07678816" x2="248.07678816" y1="-62.6598922" y2="-98.66515562275"><stop offset="0" stop-color="#724c25"/><stop offset="1" stop-color="#866038"/></linearGradient><linearGradient id="g" gradientTransform="matrix(.98340354 0 0 .98744379 140.32442 12.974428)" gradientUnits="userSpaceOnUse" x1="36.357143" x2="36.357143" xlink:href="#d" y1="6" y2="63.893143"/><linearGradient id="h" gradientTransform="matrix(1.0058652 0 0 .994169 100 0)" gradientUnits="userSpaceOnUse" x1="45.447727" x2="45.447727" y1="92.539597" y2="7.01654"><stop offset="0"/><stop offset="1" stop-opacity=".588235"/></linearGradient><linearGradient id="i" gradientTransform="matrix(.90932204 0 0 -.90907903 8.945106 90.567956)" gradientUnits="userSpaceOnUse" x1="32.251034" x2="32.251034" xlink:href="#h" y1="6.131708" y2="90.238609"/><linearGradient id="j" gradientTransform="matrix(.88394566 0 0 -.88394572 10.163169 89.361561)" gradientUnits="userSpaceOnUse" x1="32.251034" x2="32.251034" xlink:href="#h" y1="6.131708" y2="90.238609"/><radialGradient id="k" cx="18.557627" cy="22.300018" gradientTransform="matrix(2.1157858 0 0 1.5475939 -13.456982 9.888744)" gradientUnits="userSpaceOnUse" r="19.2292"><stop offset="0" stop-color="#937c63"/><stop offset="1" stop-color="#291f19"/></radialGradient><linearGradient id="l" gradientUnits="userSpaceOnUse" x1="40.07646983167" x2="26.78448572519" xlink:href="#a" y1="51.71546280094" y2="54.35276132001"/><linearGradient id="m" gradientUnits="userSpaceOnUse" x1="23.91064047188" x2="53.21810093427" xlink:href="#d" y1="40.59361083532" y2="73.86256230983"/><radialGradient id="n" cx="22.33046590394" cy="39.90528641078" gradientUnits="userSpaceOnUse" r="7.0683807147" xlink:href="#o"/><linearGradient id="o"><stop offset="0" stop-color="#fff"/><stop offset="1" stop-color="#b9b9b0"/></linearGradient><radialGradient id="p" cx="6.024219" cy="25.271027" gradientTransform="matrix(.95183294 -.549541 .64140465 1.1109468 -10.558153 20.872304)" gradientUnits="userSpaceOnUse" r="4.831029"><stop offset="0" stop-color="#5b676b"/><stop offset="1" stop-color="#141718"/></radialGradient><linearGradient id="q" gradientTransform="matrix(.95526818 -.71548351 .71548351 .95526818 -12.184704 26.530736)" gradientUnits="userSpaceOnUse" x1="6.305153" x2="5.984629" xlink:href="#d" y1="23.362427" y2="31.57"/><radialGradient id="r" cx="32.35217386" cy="39.8388560416" gradientUnits="userSpaceOnUse" r="8.2976624679" xlink:href="#o"/><linearGradient id="s" gradientUnits="userSpaceOnUse" x1="-12.287321" x2="-21.551067" y1="21.117612" y2="13.060211"><stop offset="0" stop-color="#6e3d09"/><stop offset=".24242425" stop-color="#ea8113"/><stop offset=".62121212" stop-color="#5c3307"/><stop offset="1" stop-color="#e07c12"/></linearGradient><linearGradient id="t" gradientUnits="userSpaceOnUse" x1="-27.012215" x2="-23.297619" y1="28.198475" y2="31.635975"><stop offset="0" stop-color="#bdbdbd"/><stop offset=".33333334" stop-color="#e2e2e2"/><stop offset=".66666669" stop-color="#a3a3a3"/><stop offset="1" stop-color="#ddd"/></linearGradient><radialGradient id="u" cx="15.415101" cy="35.356506" gradientTransform="matrix(1.572694 0 0 1.532639 -55.36682 -21.35823)" gradientUnits="userSpaceOnUse" r="7.579156"><stop offset="0" stop-color="#696969"/><stop offset="1"/></radialGradient><linearGradient id="v" gradientTransform="matrix(.755165 .395143 -.395143 .755165 -25.91245 6.532586)" gradientUnits="userSpaceOnUse" x1="13.236155" x2="7.752109" xlink:href="#d" y1="37.752247" y2="42.282146"/><linearGradient id="w" gradientUnits="userSpaceOnUse" x1="37.27097421696" x2="35.08201581357" xlink:href="#a" y1="54.23850479268" y2="54.7659647352"/><g transform="matrix(.7 0 0 .7 -.8 -11.5)"><g transform="matrix(.40210864 0 0 .40210864 -4.290778 13.271027)"><path d="m20.618253 86.01187c-3.916074 0-7.105399-3.225978-7.105399-7.187076v-63.785252c0-3.961099 3.189325-7.1870759 7.105399-7.1870759h41.230022l29.823983 29.8239829v41.148345c0 3.961098-3.189315 7.187076-7.1054 7.187076z" fill="url(#i)" opacity=".329"/><path d="m21.510559 84.057885h62.16399c3.34823 0 6.04372-2.727212 6.04372-6.114824v-39.038079l-29.09854-29.0985314h-39.10917c-3.34822 0-6.04372 2.7272114-6.04372 6.1148244v62.021786c0 3.387612 2.6955 6.114824 6.04372 6.114824z" fill="url(#j)" opacity=".412"/></g><path d="m232.64822-98.6599h19.54285l13.88572 13.885715v19.542857c0 1.424571-1.14685 2.571428-2.57143 2.571428h-30.85714c-1.42458 0-2.57143-1.146857-2.57143-2.571428v-30.857144c0-1.424571 1.14685-2.571428 2.57143-2.571428z" fill="url(#f)" transform="matrix(.78571428 0 0 .78571428 -178.06033 95.518491)"/><path d="m152.12526 18.899082c-3.26883 0-5.90042 2.642396-5.90042 5.92467v1.974881 64.786007c4.55071 9.60335 1.17823 6.831772.9834.987443v-64.466657-1.974895c0-2.746917 2.18134-4.937223 4.91702-4.937223h1.96682 40.90958 1.96683l30.87884 30.579716v1.974892 38.824167c-2.76798 7.26277.98336 8.226077.98336-.987445v-38.824167-1.974895l-31.86225-31.886494z" fill="url(#g)" opacity=".3" transform="matrix(.34241783 0 0 .34241783 -47.355707 11.527917)"/><g transform="matrix(.34979321 0 0 .34979321 1.639645 13.912354)"><path d="m18.42722 32.665404s3.43074 7.07466 11.45674 6.875074c16.81949-.421967 19.76887-9.195895 20.19084-10.461799.42197-1.265903 1.06763-1.074152 1.2169.0958 5.48559 49.79219-38.069136 28.428302-39.615959 19.947667 8.650329-2.531805 6.540493-7.384435 6.540493-7.384435z" fill="url(#k)" fill-rule="evenodd" stroke="#2e3436" stroke-miterlimit="10" stroke-width="1.193505"/><path d="m24.82849 53.6689c8.04291 1.60865 12.13877.117071 14.53591-1.733895-.63295-.817563-1.71424-1.714245-1.71424-1.714245s2.80868.780483 3.7977 2.057093c.98619 1.272954.36618 2.057253.10814 3.685985-.57457-1.430534-1.64702-1.967006-1.79222-2.535401-2.15578 2.980095-7.52677 2.856296-14.93524.240463z" fill="url(#l)" fill-rule="evenodd"/><path d="m50.16774 31.920497c-.67072 1.106253-1.67865 2.426593-3.20754 3.692405-3.14121 2.600698-8.41488 4.967782-17.04474 5.184288-5.04181.125376-8.29813-2.308417-10.29398-4.475644l-.14919 5.333475c.16245.499843.49585 1.659567-.0746 3.244842-.61383 1.705872-2.571406 3.450856-5.930217 4.774019.29877.623049.59136 1.245566 1.49188 2.125931 1.22686 1.199407 2.932491 2.492096 4.960497 3.655108 4.05606 2.326025 9.31124 4.169166 14.21017 4.251862 4.89894.0827 9.37752-1.473442 12.45721-5.967525 2.83905-4.142916 4.39506-11.156815 3.58051-21.818761z" fill="none" opacity=".185393" stroke="url(#m)" stroke-miterlimit="10" stroke-width="1.193505"/><path d="m27.18309 43.3201a4.85263 4.85263 0 1 1 -9.705256 0 4.85263 4.85263 0 1 1 9.705256 0z" fill="url(#n)" fill-rule="evenodd" stroke="#888a85" stroke-miterlimit="10" stroke-width="1.193505"/><path d="m17.516374 45.148442a7.2789429 5.1691043 54.192151 1 1 -8.384113 6.048563 7.2789429 5.1691043 54.192151 1 1 8.384113-6.048563z" fill="url(#p)" fill-rule="evenodd" stroke="#000" stroke-miterlimit="10" stroke-width="1.193505"/><path d="m25.80162 44.039002a2.3364513 2.3364513 0 1 1 -4.67289 0 2.3364513 2.3364513 0 1 1 4.67289 0z" fill="#2e3436" fill-rule="evenodd" stroke="#000" stroke-miterlimit="10" stroke-width="1.193505"/><path d="m9.488891 43.33592c-.762543.571134-1.164428 1.537452-1.128218 2.848761.03621 1.31131.553711 2.916825 1.615879 4.334964s2.457334 2.366295 3.705531 2.769843c1.24819.403548 2.28854.289656 3.05108-.281478.762541-.571134 1.165871-1.5836 1.135711-2.900973-.0302-1.317373-.53367-2.890059-1.593521-4.305112-1.05985-1.415052-2.42746-2.340535-3.683172-2.739991s-2.340748-.297148-3.10329.273986z" fill="none" opacity=".280899" stroke="url(#q)" stroke-miterlimit="10" stroke-width="1.193505"/><g fill-rule="evenodd"><path d="m13.007831 45.53542a2.1098386 2.531806 0 1 1 -4.219676 0 2.1098386 2.531806 0 1 1 4.219676 0z" fill="#fff"/><path d="m24.18407 42.960621a1.6175453 1.6175453 0 1 1 -3.23509 0 1.6175453 1.6175453 0 1 1 3.23509 0z" fill="#fff"/><path d="m38.04875 43.847554a5.696565 5.696565 0 1 1 -11.39313 0 5.696565 5.696565 0 1 1 11.39313 0z" fill="url(#r)" stroke="#888a85" stroke-miterlimit="10" stroke-width="1.193504"/><path d="m36.42704 44.691485a2.7427901 2.7427901 0 1 1 -5.48557 0 2.7427901 2.7427901 0 1 1 5.48557 0z" fill="#2e3436" stroke="#000" stroke-miterlimit="10" stroke-width="1.193505"/><path d="m34.52819 43.425582a1.898855 1.898855 0 1 1 -3.79771 0 1.898855 1.898855 0 1 1 3.79771 0z" fill="#fff"/></g><g transform="matrix(-.13707642 -.46530459 .46530459 -.13707642 35.54292 53.219391)"><g stroke-linecap="round" stroke-width="2.460453"><path d="m-23.364209 23.568336 3.710098 3.469175c8.346983-6.380847 17.0940772-20.0993736 17.0940772-20.0993736 1.97631487-2.2424123-.1169199-3.7504826-2.1649066-2.3979188 0 0-12.9703626 10.1148664-18.6392686 19.0281174z" fill="url(#s)" stroke="#673907"/><path d="m-30.449715 32.813894 2.24632 1.93382 8.492766-7.367031.275061-.705828 1.094405-.01782c-.4375-1.5625-2.941514-4.383455-4.816514-4.383455l.08202 1.090075-.669991.380027z" fill="url(#t)" stroke="#888a85"/><path d="m-23.801371 28.376767-4.364933 5.266471" fill="none" stroke="#fff" stroke-linejoin="round"/></g><path d="m-45.341208 42.769835c10.443958 0 18.370039 1.24373 19.870605-6.354738 1.209249-6.123314-7.210534-9.057368-11.38287-3.590861-4.019277 5.265971-8.487735 9.945599-8.487735 9.945599z" fill="url(#u)"/><path d="m8.8749989 37.75a1.2499999 1.2499999 0 1 1 -2.4999997 0 1.2499999 1.2499999 0 1 1 2.4999997 0z" fill="#fff" opacity=".527778" transform="matrix(2.069903 0 0 2.069903 -44.75012 -41.50978)"/><path d="m8.8749989 37.75a1.2499999 1.2499999 0 1 1 -2.4999997 0 1.2499999 1.2499999 0 1 1 2.4999997 0z" fill="#fff" transform="matrix(1.396669 0 0 1.396669 -32.05526 -25.87664)"/><path d="m-38.543723 40.909242s3.72152.0943 6.116538-1.411995c.847351-.532923 1.515774.649985.493819 1.087367-2.207394.944732-6.610357.324628-6.610357.324628z" fill="url(#v)" opacity=".427778"/></g><path d="m33.49964 55.662644c1.78711.170781 3.40104-.324888 4.0721-.565778.11721-.662855.64038-1.934978 2.44202-2.018775l-.63295-1.107664s-2.34719 1.60875-4.85262 2.083464z" fill="url(#w)" fill-rule="evenodd"/></g><path d="m16.146071 18.000576c2.498363 0 .978665 11.229997.978665 11.229997s13.877949-1.469924 13.877949 3.130712c0-1.120679-.0027-3.451081-.0027-3.451081l-10.910194-10.910204z" fill-rule="evenodd" opacity=".2" stroke-width=".750917"/><path d="m2.7142856 43.709693c0 1.427115.901102 2.576021 2.0204085 2.576021h24.2448969c1.119307 0 2.020409-1.148906 2.020409-2.576021v-5.85255h-28.2857144z" fill="url(#e)"/><path d="m4.7346935 46.285714c-1.1193059 0-2.0204079-.904805-2.0204079-2.02871v-.785567c.013779-4.111219.3367334-4.198891.3367334-.338138v.676237c0 .940593.7469286 1.690591 1.6836745 1.690591h.6734709 22.8979486.673471c.936746 0 1.683674-.749998 1.683674-1.690591v-.676237c.03306-4.583428.336742-3.015029.336742.338119v.785566c-.000008 1.123925-.90111 2.02873-2.020416 2.02873z" fill="url(#c)" opacity=".2"/><path d="m17.074786 18c2.362014 0 .915801 10.402988.915801 10.402988s4.605338-.548185 8.335981-.0762c2.53971.321312 4.674044 1.11542 4.674044 2.877141 0-1.059522-.000612-2.293727-.000612-2.293727l-10.910209-10.910202z" fill-rule="evenodd" opacity=".2" stroke-width=".709936"/><path d="m18.189344 18.006833c2.225494 0 .801612 9.609776.801612 9.609776s12.012265-1.475777 12.012265 2.622383c0-.99828-.0032-1.328788-.0032-1.328788l-10.91023-10.910204z" fill="url(#b)" fill-rule="evenodd" stroke-width=".668903"/><g fill="#fff" transform="matrix(.44071443 0 0 .44071443 -4.23938670515 5.60624226321)"><path d="m40.467285 83.592674 3.793945 5.581055h-2.937011l-2.556153-3.735352-2.534179 3.735352h-2.95166l3.793945-5.581055-3.647461-5.354004h2.944336l2.395019 3.52295 2.387696-3.52295h2.958984z"/><path d="m54.090332 88.573143q-.776367.402832-1.618652.60791-.842285.205078-1.757813.205078-2.731933 0-4.328613-1.523437-1.59668-1.530762-1.59668-4.145508 0-2.62207 1.59668-4.145508 1.59668-1.530762 4.328613-1.530762.915528 0 1.757813.205079.842285.205078 1.618652.60791v2.263183q-.783691-.534668-1.54541-.783691-.761719-.249024-1.604004-.249024-1.508789 0-2.373047.966797-.864258.966797-.864258 2.666016 0 1.691895.864258 2.658691.864258.966797 2.373047.966797.842285 0 1.604004-.249023.761719-.249024 1.54541-.783692z"/><path d="m56.434082 78.23867h7.609863v2.131348h-4.790039v2.036133h4.504395v2.131347h-4.504395v4.636231h-2.819824z"/></g></g><path d="m1.1 15h19.8v1h-19.8z" opacity=".3"/></svg>