<svg height="22" width="22" xmlns="http://www.w3.org/2000/svg" xmlns:xlink="http://www.w3.org/1999/xlink"><linearGradient id="a" gradientTransform="matrix(.90659037 0 0 .92290809 -5.072708 14.780623)" gradientUnits="userSpaceOnUse" x1="32.891998" x2="36.358002" y1="8.059" y2="5.4565"><stop offset="0" stop-color="#697884"/><stop offset="1" stop-color="#5c6874"/></linearGradient><radialGradient id="b" cx="48" cy="90.171875" gradientTransform="matrix(.38970735 0 0 .33673464 -.420242 14.493148)" gradientUnits="userSpaceOnUse" r="42" xlink:href="#c"/><linearGradient id="c"><stop offset="0" stop-color="#fff"/><stop offset="1" stop-color="#fff" stop-opacity="0"/></linearGradient><linearGradient id="d" gradientTransform="matrix(0 -.42933676 .33673468 0 2.122449 47.433164)" gradientUnits="userSpaceOnUse" x1="7.3709" x2="23.76619" y1="51.470146" y2="51.433136"><stop offset="0" stop-color="#202d3d"/><stop offset="1" stop-color="#2d3b48"/></linearGradient><linearGradient id="e" gradientUnits="userSpaceOnUse" x1="248.07678816" x2="248.07678816" y1="-62.6598922" y2="-98.66515562275"><stop offset="0" stop-color="#404c5c"/><stop offset="1" stop-color="#566671"/></linearGradient><linearGradient id="f" gradientTransform="matrix(.4285717 0 0 .43033246 227.50536 -101.24189)" gradientUnits="userSpaceOnUse" x1="36.357143" x2="36.357143" xlink:href="#c" y1="6" y2="63.893143"/><linearGradient id="g" gradientTransform="matrix(1.0058652 0 0 .994169 100 0)" gradientUnits="userSpaceOnUse" x1="45.447727" x2="45.447727" y1="92.539597" y2="7.01654"><stop offset="0"/><stop offset="1" stop-opacity=".588235"/></linearGradient><linearGradient id="h" gradientTransform="matrix(.90932204 0 0 -.90907903 8.945106 90.567956)" gradientUnits="userSpaceOnUse" x1="32.251034" x2="32.251034" xlink:href="#g" y1="6.131708" y2="90.238609"/><linearGradient id="i" gradientTransform="matrix(.88394566 0 0 -.88394572 10.163169 89.361561)" gradientUnits="userSpaceOnUse" x1="32.251034" x2="32.251034" xlink:href="#g" y1="6.131708" y2="90.238609"/><linearGradient id="j" gradientTransform="matrix(.33839803 0 0 .33937548 1.835821 11.234829)" gradientUnits="userSpaceOnUse" x1="19.862228" x2="79.795067" y1="22.729111" y2="76.817848"><stop offset="0" stop-color="#37424c"/><stop offset="1" stop-color="#95a3b4"/></linearGradient><clipPath id="k"><rect height="55.999996" rx="3" width="72" x="12" y="20"/></clipPath><linearGradient id="l" gradientUnits="userSpaceOnUse" spreadMethod="reflect" x1="48.40678" x2="48" y1="23.38983" y2="72"><stop offset="0" stop-color="#5173d2"/><stop offset="1" stop-color="#5100ca"/></linearGradient><radialGradient id="m" cx="56" cy="24" gradientUnits="userSpaceOnUse" r="16" xlink:href="#n"/><linearGradient id="n"><stop offset="0" stop-color="#856eff"/><stop offset="1" stop-color="#7a54ff" stop-opacity="0"/></linearGradient><radialGradient id="o" cx="60.562889" cy="49.720657" gradientUnits="userSpaceOnUse" r="19.437111" xlink:href="#n"/><radialGradient id="p" cx="47.977352" cy="64.057671" gradientUnits="userSpaceOnUse" r="24.022646" xlink:href="#n"/><radialGradient id="q" cx="58.5" cy="37.5" gradientUnits="userSpaceOnUse" r="2.5" xlink:href="#c"/><g transform="matrix(.7 0 0 .7 -1.8 -10.5)"><g transform="matrix(.40210864 0 0 .40210864 -2.862207 11.842456)"><path d="m20.618253 86.01187c-3.916074 0-7.105399-3.225978-7.105399-7.187076v-63.785252c0-3.961099 3.189325-7.1870759 7.105399-7.1870759h41.230022l29.823983 29.8239829v41.148345c0 3.961098-3.189315 7.187076-7.1054 7.187076z" fill="url(#h)" opacity=".329"/><path d="m21.510559 84.057885h62.16399c3.34823 0 6.04372-2.727212 6.04372-6.114824v-39.038079l-29.09854-29.0985314h-39.10917c-3.34822 0-6.04372 2.7272114-6.04372 6.1148244v62.021786c0 3.387612 2.6955 6.114824 6.04372 6.114824z" fill="url(#i)" opacity=".412"/></g><g transform="matrix(.78571428 0 0 .78571428 -176.63176 94.08992)"><path d="m232.64822-98.6599h19.54285l13.88572 13.885715v19.542857c0 1.424571-1.14685 2.571428-2.57143 2.571428h-30.85714c-1.42458 0-2.57143-1.146857-2.57143-2.571428v-30.857144c0-1.424571 1.14685-2.571428 2.57143-2.571428z" fill="url(#e)"/><path d="m232.64822-98.6599c-1.42457 0-2.57143 1.151568-2.57143 2.581998v.860662 28.234034c1.98322 4.185183.51348 2.977317.42857.430332v-28.09486-.860668c0-1.197119.95064-2.151664 2.14286-2.151664h.85715 17.82858.85715l13.45714 13.326778v.860667 16.919747c-1.2063 3.165148.42855 3.584963.42855-.430333v-16.919747-.860668l-13.88571-13.896278z" fill="url(#f)" opacity=".3"/></g><path d="m8.2211626 35c-1.124779 0-1.36402-.169155-1.36402-1.22495v-13.264386c0-1.055793.240809-1.168776 1.36402-1.22495h15.1494484l6.30949 5.746939v8.742397c0 1.055795-.239242 1.22495-1.364021 1.22495z" fill="url(#j)"/><g clip-path="url(#k)" stroke="none" stroke-opacity="0" transform="matrix(.28581349 0 0 .24186506 4.550238 15.495399)"><path d="m12 20h50l22 19.999998v35.999998h-72z" fill="url(#l)"/><path d="m72 24a16 16 0 1 1 -32 0 16 16 0 1 1 32 0z" fill="url(#m)" opacity=".5" transform="matrix(2.4668467 0 0 2.4668467 -110.14342 -33.204321)"/><path d="m80 49.720657a19.437111 19.437111 0 1 1 -38.874222 0 19.437111 19.437111 0 1 1 38.874222 0z" fill="url(#o)" opacity=".696721" transform="matrix(.92606356 0 0 .92606356 20.477805 -.044489)"/><path d="m71.999998 64.057671a24.022646 24.022646 0 1 1 -48.045292 0 24.022646 24.022646 0 1 1 48.045292 0z" fill="url(#p)" transform="translate(-23.999998 -16.057671)"/><path d="m80 49.720657a19.437111 19.437111 0 1 1 -38.874222 0 19.437111 19.437111 0 1 1 38.874222 0z" fill="url(#o)" opacity=".434426" transform="translate(-12.562889 -5.157768)"/><g fill="#fff"><path d="m61 37.5a2.5 2.5 0 1 1 -5 0 2.5 2.5 0 1 1 5 0z" opacity=".4"/><path d="m61 37.5a2.5 2.5 0 1 1 -5 0 2.5 2.5 0 1 1 5 0z" opacity=".504098" transform="translate(-33.5 10)"/><path d="m61 37.5a2.5 2.5 0 1 1 -5 0 2.5 2.5 0 1 1 5 0z" opacity=".3" transform="translate(4 13.5)"/><path d="m61 37.5a2.5 2.5 0 1 1 -5 0 2.5 2.5 0 1 1 5 0z" opacity=".504098" transform="translate(17 8.5)"/><path d="m61 37.5a2.5 2.5 0 1 1 -5 0 2.5 2.5 0 1 1 5 0z" opacity=".504098" transform="translate(-17 7.5)"/><path d="m61 37.5a2.5 2.5 0 1 1 -5 0 2.5 2.5 0 1 1 5 0z" opacity=".504098" transform="translate(-42 3.5)"/><path d="m61 37.5a2.5 2.5 0 1 1 -5 0 2.5 2.5 0 1 1 5 0z" opacity=".3" transform="translate(-42 3.5)"/><path d="m61 37.5a2.5 2.5 0 1 1 -5 0 2.5 2.5 0 1 1 5 0z" opacity=".504098" transform="matrix(.4 0 0 .4 -6.4 35)"/><path d="m61 37.5a2.5 2.5 0 1 1 -5 0 2.5 2.5 0 1 1 5 0z" opacity=".504098" transform="matrix(.4 0 0 .4 7.6 38)"/><path d="m61 37.5a2.5 2.5 0 1 1 -5 0 2.5 2.5 0 1 1 5 0z" opacity=".504098" transform="matrix(.4 0 0 .4 9.6 34)"/><path d="m61 37.5a2.5 2.5 0 1 1 -5 0 2.5 2.5 0 1 1 5 0z" opacity=".3" transform="matrix(.4 0 0 .4 16.6 36)"/><path d="m61 37.5a2.5 2.5 0 1 1 -5 0 2.5 2.5 0 1 1 5 0z" opacity=".504098" transform="matrix(.4 0 0 .4 28.6 28)"/><path d="m61 37.5a2.5 2.5 0 1 1 -5 0 2.5 2.5 0 1 1 5 0z" opacity=".504098" transform="matrix(.4 0 0 .4 45.6 33)"/><path d="m61 37.5a2.5 2.5 0 1 1 -5 0 2.5 2.5 0 1 1 5 0z" opacity=".504098" transform="matrix(.4 0 0 .4 47.6 29)"/><path d="m61 37.5a2.5 2.5 0 1 1 -5 0 2.5 2.5 0 1 1 5 0z" opacity=".504098" transform="matrix(.4 0 0 .4 55.6 23)"/><path d="m61 37.5a2.5 2.5 0 1 1 -5 0 2.5 2.5 0 1 1 5 0z" opacity=".504098" transform="matrix(.4 0 0 .4 38.6 30)"/><path d="m61 37.5a2.5 2.5 0 1 1 -5 0 2.5 2.5 0 1 1 5 0z" opacity=".504098" transform="matrix(.4 0 0 .4 38.6 30)"/><path d="m61 37.5a2.5 2.5 0 1 1 -5 0 2.5 2.5 0 1 1 5 0z" opacity=".504098" transform="matrix(.6 0 0 .6 -1.1 21)"/><path d="m61 37.5a2.5 2.5 0 1 1 -5 0 2.5 2.5 0 1 1 5 0z" opacity=".504098" transform="matrix(.6 0 0 .6 -6.6 18.5)"/><path d="m61 37.5a2.5 2.5 0 1 1 -5 0 2.5 2.5 0 1 1 5 0z" opacity=".504098" transform="matrix(.6 0 0 .6 15.9 31)"/><path d="m61 37.5a2.5 2.5 0 1 1 -5 0 2.5 2.5 0 1 1 5 0z" opacity=".504098" transform="matrix(.6 0 0 .6 19.4 26.5)"/><path d="m61 37.5a2.5 2.5 0 1 1 -5 0 2.5 2.5 0 1 1 5 0z" opacity=".504098" transform="matrix(.6 0 0 .6 19.4 26.5)"/><path d="m61 37.5a2.5 2.5 0 1 1 -5 0 2.5 2.5 0 1 1 5 0z" opacity=".504098" transform="matrix(.6 0 0 .6 37.9 29)"/></g><path d="m61 37.5a2.5 2.5 0 1 1 -5 0 2.5 2.5 0 1 1 5 0z" fill="url(#q)" opacity=".3" transform="matrix(1.6 0 0 1.6 -43.6 -16)"/><path d="m61 37.5a2.5 2.5 0 1 1 -5 0 2.5 2.5 0 1 1 5 0z" fill="url(#q)" opacity=".3" transform="matrix(1.6 0 0 1.6 -23.6 -10)"/><path d="m61 37.5a2.5 2.5 0 1 1 -5 0 2.5 2.5 0 1 1 5 0z" fill="url(#q)" opacity=".3" transform="matrix(1.6 0 0 1.6 -72.6 -15)"/><path d="m61 37.5a2.5 2.5 0 1 1 -5 0 2.5 2.5 0 1 1 5 0z" fill="url(#q)" opacity=".3" transform="matrix(1.6 0 0 1.6 -59.6 -9)"/><path d="m61 37.5a2.5 2.5 0 1 1 -5 0 2.5 2.5 0 1 1 5 0z" fill="url(#q)" opacity=".3" transform="translate(-27 2.5)"/><path d="m61 37.5a2.5 2.5 0 1 1 -5 0 2.5 2.5 0 1 1 5 0z" fill="url(#q)" opacity=".3" transform="translate(9 4.5)"/><path d="m61 37.5a2.5 2.5 0 1 1 -5 0 2.5 2.5 0 1 1 5 0z" fill="url(#q)" opacity=".3" transform="translate(21 6.5)"/><path d="m61 37.5a2.5 2.5 0 1 1 -5 0 2.5 2.5 0 1 1 5 0z" fill="url(#q)" opacity=".3" transform="translate(-35 12.5)"/><path d="m61 37.5a2.5 2.5 0 1 1 -5 0 2.5 2.5 0 1 1 5 0z" fill="#fff" opacity=".504098" transform="matrix(.4 0 0 .4 39.6 24)"/></g><path d="m17.574642 16.572005c2.498363 0 .978665 11.229997.978665 11.229997s13.877949-1.469924 13.877949 3.130712c0-1.120679-.0027-3.451081-.0027-3.451081l-10.910194-10.910204z" fill-rule="evenodd" opacity=".2" stroke-width=".750917"/><path d="m4.142857 42.281122c0 1.427115.901102 2.576021 2.0204085 2.576021h24.2448965c1.119307 0 2.020409-1.148906 2.020409-2.576021v-5.85255h-28.285714z" fill="url(#d)"/><path d="m6.1632649 44.857143c-1.1193059 0-2.0204079-.904805-2.0204079-2.02871v-.785567c.013779-4.111219.3367334-4.198891.3367334-.338138v.676237c0 .940593.7469286 1.690591 1.6836745 1.690591h.6734709 22.8979482.673471c.936746 0 1.683674-.749998 1.683674-1.690591v-.676237c.03306-4.583428.336742-3.015029.336742.338119v.785566c-.000008 1.123925-.90111 2.02873-2.020416 2.02873z" fill="url(#b)" opacity=".2"/><g fill-rule="evenodd"><path d="m18.503357 16.571429c2.362014 0 .915801 10.402988.915801 10.402988s4.605338-.548185 8.335981-.0762c2.53971.321312 4.674044 1.11542 4.674044 2.877141 0-1.059522-.000612-2.293727-.000612-2.293727l-10.910209-10.910202z" opacity=".2" stroke-width=".709936"/><path d="m19.617915 16.578262c2.225494 0 .801612 9.609776.801612 9.609776s12.012265-1.475777 12.012265 2.622383c0-.99828-.0032-1.328788-.0032-1.328788l-10.91023-10.910204z" fill="url(#a)" stroke-width=".668903"/></g></g><path d="m1.1 15h19.8v1h-19.8z" opacity=".3"/><g fill="#fff" transform="matrix(.36008038 0 0 .36008038 22.562845 -9.526591)"><path d="m-43.492981 76.042969q.592448 0 .898437-.260417.30599-.260416.30599-.768229 0-.501302-.30599-.761719-.305989-.266927-.898437-.266927h-1.386719v2.057292zm.08463 4.251302q.755209 0 1.132813-.319011.384114-.31901.384114-.963541 0-.631511-.377604-.944011-.377604-.31901-1.139323-.31901h-1.471349v2.545573zm2.330729-3.496094q.807292.234375 1.25.865886.442709.63151.442709 1.549479 0 1.40625-.950521 2.096354-.950516.690104-2.89062.690104h-4.160156v-9.720052h3.763021q2.024739 0 2.929687.611979.911458.611979.911458 1.959636 0 .709635-.332031 1.210937-.332031.494792-.963542.735677z"/><path d="m-37.22996 72.279948h3.190104l2.213542 5.201823 2.226562-5.201823h3.183594v9.720052h-2.369792v-7.109375l-2.239583 5.240885h-1.588542l-2.239583-5.240885v7.109375h-2.376302z"/><path d="m-23.94871 72.279948h4.160156q1.855469 0 2.845052.826823.996094.820313.996094 2.34375 0 1.529948-.996094 2.356771-.989583.820312-2.845052.820312h-1.653646v3.372396h-2.50651zm2.50651 1.816406v2.714844h1.386719q.729167 0 1.126302-.351562.397135-.358073.397135-1.009115 0-.651042-.397135-1.002604-.397135-.351563-1.126302-.351563z"/></g></svg>