<svg height="96" width="96" xmlns="http://www.w3.org/2000/svg" xmlns:xlink="http://www.w3.org/1999/xlink"><linearGradient id="a" gradientUnits="userSpaceOnUse" x1="76.8882" x2="76.8882" y1="85.8985792" y2="10.15267"><stop offset="0" stop-color="#aaa"/><stop offset="1" stop-color="#f0f0f0"/></linearGradient><path d="m71.875 8.188c-1.2407.23026-2.0812 1.0315-2.75 1.7812-.6688.74974-1.2413 1.4781-1.7812 1.9062a.98188.98188 0 0 0 -.15625.1875c-1.042 1.3354-3.0992 2.4998-3.9688 4.7812a.98188.98188 0 0 0 -.0625.28125c-.0351.72107.17391 1.3579.46875 1.9062-.08453-.07294-.13275-.17848-.21875-.25a.98188.98188 0 0 0 -.125-.09375c-.583-.331-1.094-.286-1.281-.311a.98188.98188 0 0 0 -.375 0c-1.2129.29925-2.0582 1.0964-2.75 1.8438-.69184.74733-1.2572 1.4861-1.8438 1.9375a.98188.98188 0 0 0 -.156.156c-1.0745 1.2991-3.1182 2.4258-4.0938 4.5938a.98188.98188 0 0 0 -.0625.3125c-.05866.72234.17218 1.3357.4375 1.9062-.49697-.28098-1.079-.47192-1.7188-.4375a.98188.98188 0 0 0 -.21875.03125c-1.2273.38663-2.1343 1.206-2.875 2-.74072.79401-1.3756 1.5742-2.0312 2.0938a.98188.98188 0 0 0 -.156.188c-.48014.61226-1.2391 1.193-2 1.9062-.76091.71326-1.5278 1.585-1.8438 2.8125a.98188.98188 0 0 0 -.03125.40625c.25656 1.561 1.1397 2.7584 1.875 3.8438.73535 1.0854 1.3364 2.0469 1.4375 3.125a.98188.98188 0 0 0 .03125.1875c1.3259 4.5458-.08093 9.585-3.0625 13.25a.98188.98188 0 0 0 -.1875.3125c-.2436.72003-.22158 1.4542 0 2.0625.22158.60826.61139 1.0905 1 1.5.77722.81891 1.6563 1.461 2.0312 1.9688a.98188.98188 0 0 0 .125.15625c1.4809 1.2995 2.799 3.2038 4.8125 4.5a.98188.98188 0 0 0 .25.125c.76616.22571 1.5361.16241 2.1562-.125.02821-.01308.03491-.04877.0625-.0625-.19969.48004-.29196 1.0023-.25 1.5.08336.98878.65303 1.8961 1.5312 2.5l-.03.0309c2.0633 1.9398 3.9824 4.2244 6.3438 6.125a.98188.98188 0 0 0 .3125.1875c.7688.25974 1.546.19744 2.1875-.0625.28325-.11477.4543-.3326.6875-.5-.1244.14848-.25233.28722-.375.4375a.98188.98188 0 0 0 -.187.3125c-.25381.72035-.22612 1.4521 0 2.0625.22612.61043.6057 1.0895 1 1.5.7886.82095 1.6972 1.4736 2.0625 1.9688a.98188.98188 0 0 0 .125.15625c1.4381 1.2678 2.6982 3.1264 4.6875 4.375a.98188.98188 0 0 0 .3125.125c.82103.17435 1.642.01152 2.2812-.3125.63928-.32402 1.1281-.79667 1.5625-1.2812.86884-.96916 1.5765-2.0078 2.1562-2.4688a.98188.98188 0 0 0 .125-.125c13.21-15.031 17.258-37.262 10.095-55.968-2.944-7.812-7.58-15.124-13.688-20.843a.98188.98188 0 0 0 -.185-.1221c-.511-.2829-1.009-.3538-1.437-.375a.98188.98188 0 0 0 -.25 0zm-41.344 15.875c-1.7927.20235-3.165 1.1756-4.3125 2.2188-1.1475 1.0431-2.1164 2.1735-3.125 2.9375-1.3093 1.0352-2.306 2.2779-3.2812 2.8438-3.1967.12508-6.712-.46705-10.219.53125a.98188.98188 0 0 0 -.0622.032c-1.9385.74179-3.1866 2.253-3.8438 3.9375-.64541 1.6544-.76937 3.4767-.625 5.1562.0003985.03101-.0003817.06273 0 .09375.07303 5.9352-.15928 11.925.125 17.938a.98188.98188 0 0 0 0 .125c.65414 4.195 4.8514 6.5249 8.75 6.0312.04188-.0053.0832.006.125 0h6.0312c2.5473 2.3332 4.9775 4.876 7.7188 7.1562a.98188.98188 0 0 0 .125.09375c1.2974.75429 2.6636.94414 3.875.65625s2.2461-1.0182 3.0625-1.9375c1.5915-1.7921 2.4321-4.3555 2.0625-6.7188-.0096-.06136.01126-.12643 0-.1875-.01371-11.239.01905-22.472-.03125-33.719a.98188.98188 0 0 0 0-.0625c-.09064-1.6312-.64935-3.3148-1.6875-4.6875-1.0381-1.3727-2.6298-2.4185-4.5625-2.4375a.98188.98188 0 0 0 -.125 0zm42.688 9.8438c3.6946 9.7771 3.637 20.959-.25 30.656 3.7613-9.7364 3.8836-20.844.25-30.656zm-14.469 3.812c2.5863 5.8295 2.9423 12.533 1.25 18.688-.36512 1.3278-.78826 2.648-1.3438 3.9062.52599-1.274 1.0059-2.5724 1.3438-3.9062 1.559-6.1554 1.1169-12.803-1.25-18.688zm14.125 27.062c-.42312 1.0375-.92516 2.0327-1.4375 3.0312.49139-1.0053 1.0287-1.9906 1.4375-3.0312z" opacity=".08"/><path d="m72.062 9.156c-1.8408.34163-2.7031 2.3974-4.0938 3.5-1.2107 1.5516-3.139 2.6822-3.8438 4.5312-.11006 2.2609 2.6576 3.2782 3.5938 5.125 11.306 13.796 12.388 34.824 2.532 49.688-1.7098 2.8947-4.1937 5.2551-6.2812 7.8125-.73978 2.0996 1.8595 3.206 2.9062 4.625 1.5628 1.3777 2.8041 3.1776 4.5625 4.2812 2.4408.51832 3.5579-2.6042 5.1562-3.875 12.958-14.745 16.963-36.623 9.9375-54.969-2.894-7.682-7.453-14.864-13.438-20.468-.32-.1771-.671-.2322-1.031-.2501zm-10.188 10.188c-1.8486.45608-2.7895 2.4696-4.25 3.5938-1.2381 1.4969-3.1387 2.5997-3.9375 4.375-.20431 2.5157 2.9716 3.7662 3.7812 6 7.168 10.59 5.8091 25.803-2.9688 35.062-1.4348.97443-1.18 3.0555.25 3.9062 2.1223 1.9952 4.0228 4.276 6.2812 6.0938 2.2736.76815 3.4297-2.1157 4.7812-3.375 10.481-12.819 12.023-31.969 3.9062-46.375-1.924-3.265-4.014-6.662-6.938-9.094-.276-.157-.605-.147-.906-.187zm-31.219 5.6875c-3.0019.33882-4.7128 3.2599-6.9688 4.9688-1.2032.95134-2.2258 2.343-3.5312 3.0312-3.4223.18072-6.9621-.44488-10.281.5-3.3271 1.2732-4.1366 5.0136-3.8438 8.1875.077082 5.9996-.15809 12.013.125 18 .56836 3.6449 4.3264 5.7115 7.7812 5.2188h6.5312c2.6823 2.4328 5.1878 5.0617 7.9688 7.375 4.4375 2.5799 8.2838-3.0759 7.5312-7.1562-.01432-11.305.01931-22.602-.03125-33.906-.15915-2.8643-2.0944-6.1874-5.2812-6.2188zm20.844 4.625c-1.9416.61165-2.9994 2.6989-4.5625 3.9375-1.1709 1.4931-3.1985 2.4753-3.6875 4.375.4175 2.5403 3.0555 4.2918 3.3125 7.0312 1.4319 4.9093-.08683 10.268-3.25 14.156-.71681 2.1188 1.8189 3.1947 2.875 4.625 1.609 1.4119 2.9014 3.2877 4.6875 4.4375 2.2435.66094 3.2615-2.228 4.4062-3.5625 7.0079-10.376 6-25.381-2.4688-34.625-.39629-.25136-.84017-.40041-1.3125-.375z" opacity=".1"/><path d="m72.062 10.25a.90419.90419 0 0 0 -.562.281l-6.0938 6.375a.90419.90419 0 0 0 .03125 1.25c7.8518 7.8518 12.625 18.79 12.625 30.781 0 12.13-4.8929 23.127-12.906 31a.90419.90419 0 0 0 0 1.2812l6.25 6.25a.90419.90419 0 0 0 1.25.03125c9.9793-9.8342 16.25-23.452 16.25-38.562 0-15.04-6.2292-28.614-16.125-38.438a.90419.90419 0 0 0 -.719-.249zm-10.187 10.188a.90419.90419 0 0 0 -.53125.28125l-6.375 6.375a.90419.90419 0 0 0 -.03125 1.25c5.0664 5.4034 8.2188 12.586 8.2188 20.562 0 8.0414-3.205 15.302-8.3438 20.719a.90419.90419 0 0 0 .03125 1.25l6.3125 6.3125a.90419.90419 0 0 0 1.2812 0c7.055-7.3472 11.406-17.298 11.406-28.281 0-10.905-4.2504-20.847-11.219-28.188a.90419.90419 0 0 0 -.75-.28125zm-31.219 5.6562c-.3458-.00005-.63266.11439-.84375.1875a.90419.90419 0 0 0 -.03125 0c-.37429.14485-.86239.3615-1.2812.75l-7.7188 7.0625h-8.4688c-2.8962 0-5.2188 2.3526-5.2188 5.3125v19.031c0 2.9599 2.2915 5.4375 5.2188 5.4375h8.5938l7.594 7.126a.90419.90419 0 0 0 .03125.03125c.634.5504 1.402.87554 2.1875.875.78555-.000542 1.5537-.32731 2.1875-.875 1.2774-1.1038 2.0074-2.9672 2-4.9375v-34.126c.01644-1.6858-.51911-3.2944-1.4688-4.4375-.7279-.87616-1.724-1.4373-2.7812-1.4375zm20.875 4.6562a.90419.90419 0 0 0 -.5.28125l-6.4375 6.4375a.90419.90419 0 0 0 -.094 1.188c2.2552 2.8565 3.6562 6.3802 3.6562 10.281 0 3.969-1.4079 7.5693-3.7188 10.438a.90419.90419 0 0 0 .0625 1.1875l6.375 6.4062a.90419.90419 0 0 0 1.3438-.03125c4.1505-4.8337 6.6562-11.142 6.6562-18 0-6.7919-2.4539-13.06-6.5312-17.875a.90419.90419 0 0 0 -.8125-.3125z" opacity=".15"/><path d="m72.156 11.156-6.0938 6.375c8.0184 8.0184 12.906 19.174 12.906 31.406 0 12.374-5.005 23.617-13.188 31.656l6.25 6.25c9.818-9.6737 15.97-23.044 15.97-37.905 0-14.791-6.109-28.118-15.844-37.782zm-10.188 10.188-6.375 6.375c5.2122 5.5589 8.4688 12.972 8.4688 21.188 0 8.282-3.3062 15.77-8.5938 21.344l6.3125 6.3125c6.9014-7.1872 11.156-16.912 11.156-27.656 0-10.671-4.1545-20.385-10.969-27.562zm-31.312 5.656c-.24295-.000035-.32115.04141-.5625.125-.31499.1219-.69237.30615-.96875.5625l-8 7.3125h-8.8125c-2.4239 0-4.313 1.901-4.313 4.406v19.031c0 2.5055 1.8891 4.5312 4.3125 4.5312h8.9375l7.875 7.375c.9997.86788 2.1866.86486 3.1875 0 1.0009-.86487 1.694-2.5239 1.6875-4.25v-34.126c.01442-1.4791-.47854-2.9464-1.25-3.875-.578-.695-1.364-1.092-2.093-1.092zm21 4.6562-6.4375 6.4375c2.3678 2.999 3.8438 6.7266 3.8438 10.844 0 4.1816-1.4748 7.9821-3.9062 11l6.375 6.4062c4.0147-4.6755 6.4375-10.769 6.4375-17.406 0-6.5747-2.3693-12.624-6.3125-17.281z" opacity=".3"/><path d="m72.156 10.156-6.0938 6.375c8.0184 8.0184 12.906 19.174 12.906 31.406 0 12.374-5.005 23.617-13.188 31.656l6.25 6.25c9.818-9.674 15.97-23.044 15.97-37.905 0-14.791-6.109-28.118-15.844-37.782zm-10.188 10.188-6.375 6.375c5.2122 5.5589 8.4688 12.972 8.4688 21.188 0 8.282-3.3062 15.77-8.5938 21.344l6.3125 6.3125c6.903-7.189 11.158-16.913 11.158-27.658 0-10.671-4.1545-20.385-10.969-27.562zm-31.312 5.656c-.24295-.000035-.32115.04141-.5625.125-.31499.1219-.69237.30615-.96875.5625l-8 7.3125h-8.8125c-2.4239 0-4.313 1.901-4.313 4.406v19.032c0 2.5055 1.8891 4.5312 4.3125 4.5312h8.9375l7.875 7.375c.9997.86788 2.1866.86486 3.1875 0 1.0009-.86487 1.694-2.5239 1.6875-4.25v-34.126c.01442-1.4791-.47854-2.9464-1.25-3.875-.578-.696-1.364-1.093-2.093-1.093zm21 4.6562-6.4375 6.4375c2.3678 2.999 3.8438 6.7266 3.8438 10.844 0 4.1816-1.4748 7.9821-3.9062 11l6.375 6.4062c4.0147-4.6755 6.4375-10.769 6.4375-17.406 0-6.5747-2.3693-12.624-6.3125-17.281z" fill="url(#a)"/><path d="m72.156 10.156-6.0938 6.375c.32884.32884.65056.66074.96875 1l5.125-5.375c9.5138 9.4444 15.542 22.393 15.812 36.781.0062-.3325.03125-.66597.03125-1 0-14.791-6.1086-28.117-15.844-37.781zm-10.188 10.188-6.375 6.375c.32053.34185.66332.67562.96875 1.0312l5.4062-5.4062c6.6013 6.9535 10.687 16.285 10.938 26.562.0083-.33373.03125-.66424.03125-1 0-10.671-4.1545-20.385-10.969-27.562zm-31.312 5.656c-.24295-.000035-.32115.04141-.5625.125-.31499.1219-.69237.30615-.96875.5625l-8 7.3125h-8.8125c-2.4239 0-4.313 1.901-4.313 4.406v2c0-2.505 1.8891-4.406 4.312-4.406h8.8125l8-7.3125c.27638-.25635.65376-.4406.96875-.5625.24135-.08359.31955-.12504.5625-.125.72886.000111 1.5152.3973 2.0938 1.0938.77146.92859 1.2644 2.3959 1.25 3.875v-2c.01442-1.4791-.47854-2.9464-1.25-3.875-.578-.697-1.364-1.094-2.093-1.094zm21 4.6562-6.4375 6.4375c.29597.37488.57679.75927.84375 1.1562l5.5938-5.5938c3.6968 4.3658 6.0065 9.9634 6.2812 16.062.0074-.25766.03125-.52187.03125-.78125 0-6.5747-2.3693-12.624-6.3125-17.281zm12.375 18.25c-.25682 7.8799-3.4908 14.998-8.5625 20.344l.96875.9375c4.72-5.4455 7.625-12.517 7.625-20.281 0-.33541-.02048-.66734-.03125-1zm-15 .03125c-.21397 3.7887-1.638 7.2234-3.875 10l.875.875c1.9197-2.8105 3.0312-6.2072 3.0312-9.875 0-.33596-.01191-.66941-.03125-1zm29.906 0c-.261 11.979-5.194 22.835-13.156 30.657l1 1c7.5909-7.9578 12.188-18.793 12.188-30.656 0-.33516-.02395-.6665-.03125-1z" fill="#fff" opacity=".6"/></svg>