<svg height="96" width="96" xmlns="http://www.w3.org/2000/svg" xmlns:xlink="http://www.w3.org/1999/xlink"><linearGradient id="a" stop-color="#fff"><stop offset="0"/><stop offset="1" stop-opacity="0"/></linearGradient><filter id="b" color-interpolation-filters="sRGB" height="1.384" width="1.384" x="-.192" y="-.192"><feGaussianBlur stdDeviation="5.28"/></filter><linearGradient id="c" gradientUnits="userSpaceOnUse" x1="48" x2="48" xlink:href="#a" y1="20.221" y2="138.66"/><clipPath id="d"><rect height="84" rx="6" width="84" x="6" y="6"/></clipPath><linearGradient id="e" gradientTransform="matrix(1.0059 0 0 .99417 100 0)" gradientUnits="userSpaceOnUse" x1="45.448" x2="45.448" y1="92.54" y2="7.0165"><stop offset="0"/><stop offset="1" stop-opacity=".58824"/></linearGradient><linearGradient id="f" gradientTransform="translate(0 -97)" gradientUnits="userSpaceOnUse" x1="32.251" x2="32.251" xlink:href="#e" y1="6.1317" y2="90.239"/><radialGradient id="g" cx="48" cy="90.172" gradientTransform="matrix(1.1573 0 0 .99591 -7.551 .19713)" gradientUnits="userSpaceOnUse" r="42" xlink:href="#a"/><linearGradient id="h" gradientUnits="userSpaceOnUse" x1="36.357" x2="36.357" xlink:href="#a" y1="6" y2="63.893"/><linearGradient id="i" gradientUnits="userSpaceOnUse" x1="48" x2="48" y1="90" y2="5.9877"><stop offset="0" stop-color="#a90c0c"/><stop offset="1" stop-color="#f05530"/></linearGradient><linearGradient id="j" gradientUnits="userSpaceOnUse" x1="48.082" x2="46.655" y1="76.562" y2="17.973"><stop offset="0" stop-color="#dcdcdc"/><stop offset=".30654" stop-color="#ebebeb"/><stop offset=".70706" stop-color="#fff"/><stop offset=".84501" stop-color="#fafafa"/><stop offset="1" stop-color="#f0f0f0"/></linearGradient><linearGradient id="k" gradientTransform="matrix(1.0238 0 0 1.0119 -1.1429 -98.071)" gradientUnits="userSpaceOnUse" x1="32.251" x2="32.251" xlink:href="#e" y1="6.1317" y2="90.239"/><linearGradient id="l" gradientTransform="matrix(1.0238 0 0 -1.0119 -1.1429 98.071)" gradientUnits="userSpaceOnUse" x1="32.251" x2="32.251" xlink:href="#e" y1="6.1317" y2="90.239"/><g fill="url(#l)"><path d="m12 95.031c-5.5111 0-10.031-4.52-10.031-10.031v-71c0-5.5111 4.5202-10.031 10.031-10.031h72c5.5111 0 10.031 4.5202 10.031 10.031v71c0 5.5111-4.5202 10.031-10.031 10.031z" opacity=".08"/><path d="m12 94.031c-4.9716 0-9.0312-4.0596-9.0312-9.0312v-71c0-4.9718 4.0596-9.0314 9.0312-9.0314h72c4.9716 0 9.0312 4.0596 9.0312 9.0312v71c0 4.9716-4.0596 9.0312-9.0312 9.0312h-72z" opacity=".1"/><path d="m12 93c-4.4091 0-8-3.591-8-8v-71c0-4.4091 3.5909-8 8-8h72c4.4091 0 8 3.5909 8 8v71c0 4.4091-3.5909 8-8 8z" opacity=".2"/></g><rect fill="url(#k)" height="85" opacity=".3" rx="7" transform="scale(1 -1)" width="86" x="5" y="-92"/><rect fill="url(#f)" height="84" opacity=".45" rx="6" transform="scale(1 -1)" width="84" x="6" y="-91"/><rect fill="url(#i)" height="84" rx="6" width="84" x="6" y="6"/><path d="m12 6c-3.324 0-6 2.676-6 6v72c0 .33472.04135.6507.09375.96875.0487.2956.09704.59692.1875.875.00988.03038.020892.0636.03125.09375.098865.28777.23488.54745.375.8125.14459.27351.31562.53562.5.78125.18438.24564.37378.47347.59375.6875.43995.42806.94291.81453 1.5 1.0938.27854.13961.57347.24695.875.34375-.2562-.10022-.48671-.23627-.71875-.375-.00741-.0044-.023866.0045-.03125 0-.0319-.019-.0622-.042-.0937-.062-.1204-.077-.231-.164-.3437-.25-.1062-.081-.2133-.161-.3126-.25-.1778-.162-.3473-.346-.4999-.531-.1075-.131-.2183-.266-.3124-.407-.0251-.038-.0385-.086-.0626-.125-.0647-.103-.1302-.204-.1874-.312-.1011-.195-.2057-.416-.2813-.625-.008-.022-.0236-.041-.0313-.063-.0318-.092-.0358-.187-.0624-.281-.0304-.107-.0704-.203-.0938-.313-.0729-.341-.125-.698-.125-1.062v-72c0-2.782 2.2182-5 5-5h72c2.7818 0 5 2.2182 5 5v72c0 .3643-.05212.72099-.125 1.0625-.04415.20689-.08838.39766-.15625.59375-.0077.02195-.0233.04069-.03125.0625-.06274.17374-.13838.36745-.21875.53125-.04158.0828-.07904.16995-.125.25-.0546.09721-.12677.18835-.1875.28125-.09411.14096-.20492.276-.3125.40625-.14317.17445-.30314.347-.46875.5-.01117.0102-.01998.02115-.03125.03125-.13839.12556-.28509.23444-.4375.34375-.10257.07315-.20432.15336-.3125.21875-.0074.0045-.02384-.0044-.03125 0-.23204.13873-.46255.27478-.71875.375.30153-.0968.59646-.20414.875-.34375.55709-.27922 1.0601-.66569 1.5-1.0938.21997-.21403.40937-.44186.59375-.6875s.35541-.50774.5-.78125c.14012-.26505.27614-.52473.375-.8125.01041-.03078.02133-.06274.03125-.09375.09046-.27808.1388-.5794.1875-.875.053-.318.094-.634.094-.969v-72c0-3.324-2.676-6-6-6h-72z" fill="url(#h)" opacity=".4"/><path d="m12 90c-3.324 0-6-2.676-6-6v-72c0-.33472.04135-.6507.09375-.96875.0487-.2956.09704-.59692.1875-.875.0099-.03.0209-.063.0313-.094.0989-.2873.2349-.547.375-.812.1446-.2735.3156-.5356.5-.7812.1844-.2457.3738-.4735.5937-.6876.44-.428.943-.8145 1.5-1.0937.2786-.1396.5735-.2469.8748-.3437-.256.1002-.4865.2362-.7185.375-.00741.0044-.023866-.0045-.03125 0-.031933.0193-.062293.04251-.09375.0625-.1204.0767-.23102.16351-.34375.25-.10617.0808-.21328.16111-.3125.25-.1779.1614-.3474.3453-.5.5312-.1075.1303-.2183.2653-.3124.4063-.0251.0383-.0385.0858-.0626.125-.0647.103-.1302.2045-.1874.3124-.1011.1948-.2057.4158-.2813.625-.008.0219-.0236.0406-.0313.0626-.0318.0919-.0358.1868-.0624.2812-.0304.1066-.0704.203-.0938.3125-.0729.3415-.125.6985-.125 1.0625v72c0 2.7818 2.2182 5 5 5h72c2.7818 0 5-2.2182 5-5v-72c0-.364-.052-.721-.125-1.0625-.044-.2069-.088-.3977-.156-.5937-.008-.022-.024-.0407-.031-.0626-.063-.1737-.139-.3674-.219-.5312-.042-.0828-.079-.17-.125-.25-.055-.0972-.127-.1884-.188-.2812-.094-.141-.205-.276-.312-.4063-.143-.1745-.303-.347-.469-.5-.011-.0102-.02-.0211-.031-.0313-.139-.1255-.285-.2344-.438-.3437-.102-.0731-.204-.1534-.312-.2187-.0074-.0045-.02384.0044-.03125 0-.23204-.13873-.46255-.27478-.71875-.375.30153.0968.59646.20414.875.34375.55709.27922 1.0601.66569 1.5 1.0938.21997.21403.40937.44186.59375.6875s.35541.50774.5.78125c.14012.26505.27614.52473.375.8125.01041.03078.02133.06274.03125.09375.09046.27808.1388.5794.1875.875.053.318.094.634.094.969v72c0 3.324-2.676 6-6 6h-72z" fill="url(#g)" opacity=".2"/><rect height="66" rx="12" style="opacity:.1;stroke:#fff;stroke-linecap:round;stroke-width:.5;clip-path:url(#d);filter:url(#b);fill:url(#c)" width="66" x="15" y="15"/><path d="m48 14.75c-20.117 0-37.25 13.556-37.25 31.25 0 10.082 5.918 18.698 14.344 24.281-.15691.52532-.26659 1.039-.625 1.5938-.91988 1.4238-2.1321 2.6471-4.8438 3.4375-.01115.0032-.02005-.0032-.03125 0-.01706.0041-.01361-.0051-.03125 0-.06018.01709-.12731.03202-.125.03125.0027-.000911-.10648.04343-.15625.0625-.01244.0048-.03191.03154-.03125.03125l-.125.03125a1.2012 1.2012 0 0 0 -.03125 0v.03125a1.2012 1.2012 0 0 0 -.0625 0 1.2012 1.2012 0 0 0 0 .03125 1.2012 1.2012 0 0 0 -.03125 0 1.2012 1.2012 0 0 0 -.125.0625 1.2012 1.2012 0 0 0 -.09375.03125s-.04304.06225-.09375.09375a1.2012 1.2012 0 0 0 -.03125 0c-.01203.0075-.0194.02387-.03125.03125-.0071.0044-.02439-.0043-.03125 0 .000311-.0016-.02944.000453-.03125 0-.01135.0055.0064.02802 0 .03125-.0064.0032-.02556-.0029-.03125 0-.0173.0078-.0138-.0022-.0625.03125a1.2012 1.2012 0 0 0 -.0625.03125c-.02259.01561-.0032.01018-.03125.03125-.08339.05003-.01856.02974-.0625.0625.000255-.0016-.02938.000414-.03125 0a1.2012 1.2012 0 0 0 -.064.063c-.02131.01331.0037.0063-.03125.03125-.02227.01587-.0025-.0216-.03125 0a1.2012 1.2012 0 0 0 -.0625.03125c-.0002.000987-.0036.03323 0 .03125.0036-.002-.035.0024-.03125 0a1.2012 1.2012 0 0 0 -.21875.1875s-.03924.06292-.09375.125c-.02725.03104-.07117.03661-.09375.0625-.0056.0065.0051.02544 0 .03125-.0051.0058-.02656-.0054-.03125 0-.0011.000663.0026.02921 0 .03125-.0076.0071.0073.02449 0 .03125a1.2012 1.2012 0 0 0 -.03125.03125 1.2012 1.2012 0 0 0 -.03125 0c-.0052.0048.0042.02735 0 .03125a1.2012 1.2012 0 0 0 -.03125 0c-.0029.0027.0016.02973 0 .03125-.0018.0017-.03125-.000005-.03125 0a1.2012 1.2012 0 0 0 -.0625.0625s-.05453.07039-.09375.125c-.01961.02731-.01399.03821-.03125.0625-.0048.0068-.03376.03711-.03125.03125a1.2012 1.2012 0 0 0 -.032.034 1.2012 1.2012 0 0 0 0 .031c-.01159.01821.0056-.03024-.03125.03125a1.2012 1.2012 0 0 0 -.031.031c.0038-.0054.0052.015 0 .03125-.0066.01-.02415-.01127-.03125 0-.006.0091.0056.02198 0 .03125a1.2012 1.2012 0 0 0 -.0625.0625 1.2012 1.2012 0 0 0 -.0625.125c-.0021.0039.000015.03121 0 .03125-.0078.01754-.03697.06771-.0625.125-.01543.03462-.01866.06536-.03125.09375s-.0061-.04717-.0625.09375c.10388-.25972.05856-.16201-.03125.0625-.01017.0212-.02229.0089-.03125.03125-.008.02004.0069.01183 0 .03125l-.063.157a1.2012 1.2012 0 0 0 -.0625.3125 1.2012 1.2012 0 0 0 0 .03125c-.0082.01102-.0625.06249-.0625.0625-.0055.02756.004.0078 0 .03125-.0027.01126.0023.01981 0 .03125-.0042.01621-.02797.01485-.03125.03125-.0042.02103.0032.01174 0 .03125l-.032.155a1.2012 1.2012 0 0 0 0 .03125c-.0055.02741.004.0079 0 .03125-.0027.01126.0023.01981 0 .03125-.0046.02317.0033.01139 0 .03125-.0014.0065-.02995-.0065-.03125 0-.02535.12674-.001.11406 0 .1875a1.2012 1.2012 0 0 0 -.031.313v.1875a1.2012 1.2012 0 0 0 0 .09375 1.2012 1.2012 0 0 0 0 .03125v.03125a1.2012 1.2012 0 0 0 0 .09375 1.2012 1.2012 0 0 0 0 .0625s-.0077.06251 0 .125c.0038.03125.02777.03514.03125.0625.0035.02736-.04918-.08964 0 .15625.0033.01647.02708.01498.03125.03125.0025.0098-.0028.02148 0 .03125.004.02339-.0055.0038 0 .03125a1.2012 1.2012 0 0 0 0 .03125l.03125.15625a1.2012 1.2012 0 0 0 .125.28125 1.2012 1.2012 0 0 0 0 .03125c-.00071.01656-.000002.09374 0 .09375.009.02249.02105.01.03125.03125.0102.02126.02005.01121.03125.03125-.000134-.0011-.0032.02044 0 .03125a1.2012 1.2012 0 0 0 0 .03125l.0625.15625a1.2012 1.2012 0 0 0 0 .03125c.009.02239.02108.01006.03125.03125s.02007.01127.03125.03125c.0044.009-.0048.02234 0 .03125a1.2012 1.2012 0 0 0 0 .03125 1.2012 1.2012 0 0 0 .03125.03125 1.2012 1.2012 0 0 0 0 .03125 1.2012 1.2012 0 0 0 .03125.03125 1.2012 1.2012 0 0 0 .0625.125 1.2012 1.2012 0 0 0 0 .03125 1.2012 1.2012 0 0 0 .03125.09375l.09375.15625c-.0021-.0035.12745.19079.125.1875l.09375.125a1.2012 1.2012 0 0 0 .25.25 1.2012 1.2012 0 0 0 .0625.03125c.03396.03875-.01591.01534.03125.0625a1.2012 1.2012 0 0 0 .09375.09375s.02413.03173.0625.0625c.0061.0049.02927-.0018.03125 0l.03125.03125c.0017.0018.01733.02046.03125.03125a1.2012 1.2012 0 0 0 .033.033c.000044.000037.02773-.0024.03125 0 .0022.0015-.0033.02902 0 .03125a1.2012 1.2012 0 0 0 .094.094c.0033.0027.02685-.0035.03125 0 .02037.01414.0076.02915.09375.09375.01734.01312.01135.01633.03125.03125.04616.03462.03062.0106.0625.03125a1.2012 1.2012 0 0 0 .21875.15625s.08702.03165.15625.0625c.03462.01543.06536.01866.09375.03125s-.04735.0061.09375.0625c-.26005-.10401-.16189-.05853.0625.03125.02117.01016.0089.0223.03125.03125.02002.008.01185-.0069.03125 0l.15625.0625.15625.0625a1.2012 1.2012 0 0 0 .3125.0625c.0039.0028.02816-.0023.03125 0 .01094.008.06249.0625.0625.0625.02753.0055.0078-.004.03125 0 .0097.0028.02143-.0025.03125 0 .01622.0042.01484.02797.03125.03125.02105.0042.01174-.0032.03125 0l.15625.03125a1.2012 1.2012 0 0 0 .1875 0c-.0023-.000131.12728 0 .125 0-.0017 0 .05646.0011.09375 0 .01122.0012.02004-.0011.03125 0-.000022.000821.000018.03125 0 .03125h.09375v-.026c9.7538.95831 16.717-3.1403 20.906-6.9375 2.092.335 4.237.594 6.532.594 20.117 0 37.25-13.556 37.25-31.25s-17.133-31.25-37.25-31.25zm-7.844 19.25 5.844 5.844a2.8128 2.8128 0 0 0 4 0l5.844-5.844 3.156 3.156-5.844 5.844a2.8128 2.8128 0 0 0 0 4l5.844 5.844-3.156 3.156-5.844-5.844a2.8128 2.8128 0 0 0 -4 0l-5.844 5.844-3.156-3.156 5.844-5.844a2.8128 2.8128 0 0 0 0-4l-5.844-5.844zm-19.718 49.25a1.2012 1.2012 0 0 0 .03125 0v.15625l-.031-.156z" opacity=".05"/><path d="m48 15.938c-19.579 0-36.062 13.148-36.062 30.062 0 9.945 5.9764 18.491 14.594 23.875-.21998.83356-.43648 1.6873-1.0625 2.6562-1.0314 1.5963-2.548 3.0757-5.5312 3.9375-.01077.0031-.02044-.0031-.03125 0a1.0828 1.0828 0 0 0 -.1875.0625l-.15625.0625.40625 1c-.21083-.49864-.43017-1.0029-.4375-1-.01466.0059-.01172.02344-.03125.03125-.01953.0078-.0479.02541-.0625.03125-.0146.0058-.03125 0-.03125 0s-.23834.1475-.25.15625c-.01166.0087-.04687.01953-.0625.03125.01466-.0088-.0625.03125-.0625.03125-.012.009-.023.028-.032.033-.01461.0088-.03125 0-.03125 0s-.08203.08496-.09375.09375c-.01172.0088-.04687.01953-.0625.03125s-.01957.02249-.03125.03125c-.01168.0088-.03125 0-.03125 0s-.21001.23835-.21875.25c-.0087.01165-.01953.01562-.03125.03125-.006.006.0063.025 0 .03125-.0023.003-.02911-.0028-.03125 0-.01328.01555-.03125.03125-.03125.03125l-.032.033s-.14748.20414-.15625.21875c-.0088.01461-.01953.04296-.03125.0625s-.02245.01659-.03125.03125-.03125.03125-.03125.03125c-.0043.0057.0035.02658 0 .03125-.0087.01166-.03125 0-.03125 0s-.11916.26665-.125.28125c-.0058.0146-.02343.04296-.03125.0625-.0078.01954-.02538.01659-.03125.03125-.0059.01466 0 .03125 0 .03125l-.0625.15625 1 .40625 1.0312.34375s-2.0908-.54584-2.0938-.53125c-.0029.01459.0039.04297 0 .0625s-.02832.01659-.03125.03125c-.0029.01466 0 .03125 0 .03125l-.032.157.71875.15625c-.32438-.05392-.71776-.12997-.71875-.125-.0029.01467.0039.04296 0 .0625s-.02833.01666-.03125.03125c-.0029.01459 0 .03125 0 .03125l1.0625.21875h-1.0938v.1875h1.0938c-.5413.0092-1.0938.02392-1.0938.03125v.125s.02833.23539.03125.25c.0029.01461.02734.01171.03125.03125.0039.01954-.0029.04785 0 .0625s0 .03125 0 .03125l.031.157 1.063-.219 1.031-.281s-2.0371.70415-2.0312.71875c.0058.0146.02344.01171.03125.03125.0078.01954.02539.04784.03125.0625.0059.01466 0 .03125 0 .03125l.0625.15625.8125-.34375c-.39954.17642-.81494.36891-.8125.375.0059.01467.02343.01172.03125.03125.0078.01953.02541.04791.03125.0625.0058.01459 0 .03125 0 .03125l1-.40625-.9375.5625.09375.15625a1.0828 1.0828 0 0 0 .063.094l.09375.125.875-.65625.84375-.6875s-1.6054 1.4571-1.5938 1.4688c.01169.01169.04687.01562.0625.03125s.01953.05078.03125.0625c0 0 .14459.11625.15625.125.01166.0087.01562.01953.03125.03125l.03125.03125c.0078.0066.02631-.0042.03125 0 .0073.0073-.0058.02541 0 .03125l.03125.03125.125.09375c.01172.0088.01562.01953.03125.03125s.05082.02249.0625.03125c.01168.0088 0 .03125 0 .03125s.26667.11917.28125.125c.01458.0058.04297.02343.0625.03125.01953.0078.01657.02538.03125.03125.01468.0059.03125 0 .03125 0l.15625.0625.15625.0625.40625-1 .314-1.031s-.5146 2.0908-.5 2.0938c.0146.0029.04297-.0039.0625 0s.0166.02832.03125.03125c.01465.0029.03125 0 .03125 0l.15625.03125a1.0828 1.0828 0 0 0 .125 0 1.0828 1.0828 0 0 0 .0625.03125c-.001-.000016.09477-.000016.09375 0v-.03125c9.7462 1.0017 16.58-3.2481 20.562-7 2.216.37 4.49.656 6.876.656 19.579 0 36.062-13.148 36.062-30.062s-16.483-30.062-36.062-30.062zm-7.8438 17 6.375 6.375a2.0984 2.0984 0 0 0 2.9375 0l6.375-6.375 4.2188 4.2188-6.375 6.375a2.0984 2.0984 0 0 0 0 2.9375l6.375 6.375-4.2188 4.2188-6.375-6.375a2.0984 2.0984 0 0 0 -2.9375 0l-6.375 6.375-4.2188-4.2188 6.375-6.375a2.0984 2.0984 0 0 0 0-2.9375l-6.375-6.375z" opacity=".05"/><path d="m48 17.031c-19.097 0-34.969 12.762-34.969 28.969 0 9.8126 6.0152 18.31 14.812 23.5-.22779 1.0474-.61321 2.3008-1.4688 3.625-1.149 1.7784-2.9471 3.4814-6.2188 4.4062a.98626.98626 0 0 0 -.03125 0l-.15625.0625c.000101-.000043-.15635.06255-.15625.0625.000097-.000052-.12509.09381-.125.09375.000092-.00006-.15634.09382-.15625.09375.000087-.000067-.12508.09382-.125.09375.000081-.000074-.09382.12508-.09375.125.000074-.000081-.12507.12509-.125.125.000067-.000087-.09381.15634-.09375.15625.00006-.000092-.0938.1251-.09375.125.000052-.000097-.06254.15635-.0625.15625l-.0625.15625c.000035-.000104-.03128.15636-.03125.15625l-.03125.15625c.000017-.000109-.03126.15636-.03125.15625v.1875c-.000002-.00011.000011.15636 0 .15625-.000011-.000109.03127.15636.03125.15625l.03125.15625c-.000029-.000106.06254.15635.0625.15625l.0625.15625c-.000046-.0001.06255.15634.0625.15625l.09375.15625.09375.125c-.00007-.000085.12508.12508.125.125-.000077-.000079.12508.09382.125.09375-.000083-.000072.12509.12506.125.125-.000089-.000065.12509.09381.125.09375-.000094-.000057.15635.06255.15625.0625l.15625.0625.15625.0625c-.000105-.000032.15636.03127.15625.03125l.158.035a.98626.98626 0 0 0 .03125 0c9.7546 1.0601 16.452-3.3592 20.25-7.0625 2.3307.41039 4.728.6875 7.2188.6875 19.097 0 34.969-12.762 34.969-28.969s-15.872-28.969-34.969-28.969zm-7.8438 15.031 6.8125 6.8125a1.4734 1.4734 0 0 0 2.0625 0l6.8125-6.8125 5.0938 5.0938-6.8125 6.8125a1.4734 1.4734 0 0 0 0 2.0625l6.8125 6.8125-5.0938 5.0938-6.8125-6.8125a1.4734 1.4734 0 0 0 -2.0625 0l-6.8125 6.8125-5.0938-5.0938 6.8125-6.8125a1.4734 1.4734 0 0 0 0-2.0625l-6.8125-6.8125z" opacity=".12"/><path d="m48 18.031c-18.66 0-33.969 12.408-33.969 27.969 0 9.6667 5.998 18.089 14.938 23.094-.21052 1.1926-.65132 2.862-1.75 4.5625-1.2551 1.9426-3.2901 3.8256-6.7812 4.8125a.98224.98224 0 0 0 .187 1.906c9.69 1.053 16.246-3.496 19.844-7.125 2.429.454 4.934.719 7.531.719 18.66 0 33.969-12.409 33.969-27.969s-15.309-27.969-33.969-27.969zm-7.844 12.969 7.344 7.344a.71436.71436 0 0 0 1 0l7.344-7.344 6.156 6.156-7.344 7.344a.71436.71436 0 0 0 0 1l7.344 7.344-6.156 6.156-7.344-7.344a.71436.71436 0 0 0 -1 0l-7.344 7.344-6.156-6.156 7.344-7.344a.71436.71436 0 0 0 0-1l-7.344-7.344z" opacity=".24"/><path d="m48 18c-18.225 0-33 12.088-33 27 0 9.4984 5.9998 17.843 15.062 22.656-.34462 2.5088-1.914 8.6498-9.3438 10.75 9.6229 1.0458 16.014-3.6463 19.406-7.1875 2.525.506 5.162.782 7.876.782 18.225 0 33-12.088 33-27s-14.775-27-33-27zm-7.844 11 7.844 7.844 7.844-7.844 7.156 7.156-7.844 7.844 7.844 7.844-7.156 7.156-7.844-7.844-7.844 7.844-7.156-7.156 7.844-7.844-7.844-7.844z" fill="url(#j)"/><path d="m48 18c-18.225 0-33 12.088-33 27 0 .20841.0255.41773.03125.625.884-14.266 15.313-25.625 32.969-25.625 17.811 0 32.318 11.557 32.969 26 .015-.336.031-.661.031-1 0-14.912-14.775-27-33-27zm-14 19.156-1 1 6.8438 6.8438 1-1-6.844-6.844zm28 0-6.844 6.844 1 1 6.844-6.844zm-14 14-7.844 7.844-6.156-6.156-1 1 7.156 7.156 7.844-7.844 7.844 7.844 7.156-7.156-1-1-6.156 6.156zm-18.312 18.282c-.78888 2.9258-2.9421 7.2652-8.9688 8.9688 1.4386.15635 2.7988.17086 4.0938.09375 3.9509-2.7354 4.9814-6.8885 5.25-8.8438-.1292-.06861-.24706-.14871-.375-.21875z" fill="#fff" opacity=".8"/></svg>