<svg height="96" width="96" xmlns="http://www.w3.org/2000/svg" xmlns:xlink="http://www.w3.org/1999/xlink"><linearGradient id="a"><stop offset="0" stop-color="#e4e4e4"/><stop offset="1" stop-color="#989898"/></linearGradient><linearGradient id="b"><stop offset="0" stop-color="#dadada"/><stop offset=".39129" stop-color="#fff"/><stop offset="1" stop-color="#b9b9b9"/></linearGradient><linearGradient id="c"><stop offset="0"/><stop offset="1" stop-opacity="0"/></linearGradient><linearGradient id="d" xlink:href="#c"/><linearGradient id="e"><stop offset="0" stop-color="#fff"/><stop offset="1" stop-color="#989898"/></linearGradient><filter id="f" color-interpolation-filters="sRGB" height="1.384" width="1.384" x="-.192" y="-.192"><feGaussianBlur stdDeviation="5.28"/></filter><linearGradient id="g" gradientUnits="userSpaceOnUse" x1="48" x2="48" xlink:href="#d" y1="20.221" y2="138.66"/><clipPath id="h"><rect height="84" rx="6" width="84" x="6" y="6"/></clipPath><linearGradient id="i"><stop offset="0" stop-color="#323232"/><stop offset="1" stop-color="#505050"/></linearGradient><filter id="j" color-interpolation-filters="sRGB" height="1.15" width="1.6" x="-.3" y="-.075"><feGaussianBlur stdDeviation=".75"/></filter><linearGradient id="k" gradientTransform="matrix(1.0059 0 0 .99417 100 0)" gradientUnits="userSpaceOnUse" x1="45.448" x2="45.448" y1="92.54" y2="7.0165"><stop offset="0"/><stop offset="1" stop-opacity=".58824"/></linearGradient><radialGradient id="l" cx="61" cy="59" gradientUnits="userSpaceOnUse" r="3" xlink:href="#d"/><radialGradient id="m" cx="53" cy="59" gradientUnits="userSpaceOnUse" r="3" xlink:href="#d"/><radialGradient id="n" cx="61" cy="53" gradientUnits="userSpaceOnUse" r="3" xlink:href="#d"/><radialGradient id="o" cx="53" cy="53" gradientUnits="userSpaceOnUse" r="3" xlink:href="#d"/><radialGradient id="p" cx="61" cy="47" gradientUnits="userSpaceOnUse" r="3" xlink:href="#d"/><radialGradient id="q" cx="53" cy="47" gradientUnits="userSpaceOnUse" r="3" xlink:href="#d"/><linearGradient id="r" gradientUnits="userSpaceOnUse" x1="28" x2="36" xlink:href="#d" y1="52.359" y2="52"/><linearGradient id="s" gradientUnits="userSpaceOnUse" x1="30.00033585" x2="35.00042146" xlink:href="#a" y1="37.00033612" y2="37.99996926"/><linearGradient id="t" gradientUnits="userSpaceOnUse" x1="28" x2="34" xlink:href="#e" y1="52" y2="52"/><linearGradient id="u" gradientTransform="matrix(0 .95995 .95995 0 -5.822 8.8485)" gradientUnits="userSpaceOnUse" x1="24.117" x2="36.618" xlink:href="#e" y1="38.358" y2="38.358"/><linearGradient id="v" gradientUnits="userSpaceOnUse" x1="64.904" x2="64.904" xlink:href="#i" y1="60" y2="64"/><linearGradient id="w" gradientUnits="userSpaceOnUse" x1="56.904" x2="56.904" xlink:href="#i" y1="60" y2="64"/><linearGradient id="x" gradientUnits="userSpaceOnUse" x1="48.904" x2="48.904" xlink:href="#i" y1="60" y2="64"/><linearGradient id="y" gradientUnits="userSpaceOnUse" x1="64.904" x2="64.904" xlink:href="#i" y1="54" y2="58"/><linearGradient id="z" gradientUnits="userSpaceOnUse" x1="56.904" x2="56.904" xlink:href="#i" y1="54" y2="58"/><linearGradient id="A" gradientUnits="userSpaceOnUse" x1="48.904" x2="48.904" xlink:href="#i" y1="54" y2="58"/><linearGradient id="B" gradientUnits="userSpaceOnUse" x1="64.904" x2="64.904" xlink:href="#i" y1="48" y2="52"/><linearGradient id="C" gradientUnits="userSpaceOnUse" x1="56.904" x2="56.904" xlink:href="#i" y1="48" y2="52"/><linearGradient id="D" gradientUnits="userSpaceOnUse" x1="48.903999" x2="48.903999" xlink:href="#i" y1="48" y2="52"/><linearGradient id="E" gradientUnits="userSpaceOnUse" x1="64.904" x2="64.904" xlink:href="#i" y1="42.000001" y2="46.000001"/><linearGradient id="F" gradientUnits="userSpaceOnUse" x1="48.904" x2="48.904" xlink:href="#i" y1="42" y2="46"/><radialGradient id="G" cx="57" cy="43.639" gradientTransform="matrix(1.4248 -.00000005 .00000002 .51299 -24.212 14.391)" gradientUnits="userSpaceOnUse" r="11"><stop offset="0" stop-color="#9ae8fb"/><stop offset="1" stop-color="#50bad4"/></radialGradient><linearGradient id="H" gradientUnits="userSpaceOnUse" x1="49.914" x2="49.929" y1="30.338" y2="37.283"><stop offset="0" stop-color="#267387"/><stop offset="1" stop-color="#5bb9d2"/></linearGradient><linearGradient id="I" gradientUnits="userSpaceOnUse" x1="55.733" x2="55.733" xlink:href="#a" y1="38.798" y2="28.783"/><linearGradient id="J" gradientTransform="translate(0 1)" gradientUnits="userSpaceOnUse" x1="32.251" x2="32.251" xlink:href="#k" y1="90" y2="6"/><radialGradient id="K" cx="48" cy="90.172" gradientTransform="matrix(1.1573 0 0 .99591 -7.551 .19713)" gradientUnits="userSpaceOnUse" r="42" xlink:href="#d"/><linearGradient id="L" gradientUnits="userSpaceOnUse" x1="36.357" x2="36.357" xlink:href="#d" y1="6" y2="63.893"/><linearGradient id="M" gradientUnits="userSpaceOnUse" x1="48" x2="48" y1="90" y2="5.9877"><stop offset="0" stop-color="#b9b9b9"/><stop offset="1" stop-color="#dedede"/></linearGradient><linearGradient id="N" gradientTransform="matrix(.66667 0 0 1.5 23.333 -48)" gradientUnits="userSpaceOnUse" x1="82" x2="88" xlink:href="#b" y1="76" y2="76"/><linearGradient id="O" gradientTransform="matrix(.66667 0 0 1.5 23.333 -84)" gradientUnits="userSpaceOnUse" x1="82" x2="88" xlink:href="#b" y1="76" y2="76"/><linearGradient id="P" gradientUnits="userSpaceOnUse" stop-color="#fff" x1="38.75" x2="38.75" xlink:href="#c" y1="15" y2="104.2"/><linearGradient id="Q" gradientUnits="userSpaceOnUse" x1="47.9996303" x2="47.9996303" y1="80.0002" y2="16"><stop offset="0" stop-color="#808080"/><stop offset="1" stop-color="#d0d0d0"/></linearGradient><linearGradient id="R" gradientUnits="userSpaceOnUse" x1="47" x2="47" xlink:href="#d" y1="84" y2="14"/><linearGradient id="S" gradientTransform="matrix(0 -1 1 0 1 -1)" gradientUnits="userSpaceOnUse" x1="-83" x2="-15" xlink:href="#d" y1="48" y2="48"/><linearGradient id="T" gradientTransform="matrix(1.0238 0 0 1.0119 -1.1429 .929)" gradientUnits="userSpaceOnUse" x1="32.251" x2="32.251" xlink:href="#k" y1="90" y2="5.9996"/><linearGradient id="U" gradientTransform="matrix(1.0238 0 0 -1.0119 -1.1429 98.071)" gradientUnits="userSpaceOnUse" x1="32.251" x2="32.251" xlink:href="#k" y1="6.1317" y2="90.239"/><linearGradient id="V" gradientUnits="userSpaceOnUse" x1="56.904" x2="56.904" xlink:href="#i" y1="42.000001" y2="46.000001"/><g fill="url(#U)"><path d="m12 95.031c-5.5111 0-10.031-4.52-10.031-10.031v-71c0-5.5111 4.5202-10.031 10.031-10.031h72c5.5111 0 10.031 4.5202 10.031 10.031v71c0 5.5111-4.5202 10.031-10.031 10.031z" opacity=".08"/><path d="m12 94.031c-4.9716 0-9.0312-4.0596-9.0312-9.0312v-71c0-4.9722 4.0596-9.0318 9.0312-9.0318h72c4.9716 0 9.0312 4.0596 9.0312 9.0312v71c0 4.9716-4.0596 9.0312-9.0312 9.0312h-72z" opacity=".1"/><path d="m12 93c-4.4091 0-8-3.591-8-8v-71c0-4.4091 3.5909-8 8-8h72c4.4091 0 8 3.5909 8 8v71c0 4.4091-3.5909 8-8 8z" opacity=".2"/></g><rect fill="url(#T)" height="85" opacity=".3" rx="7" width="86" x="5" y="7"/><rect fill="url(#J)" height="84" opacity=".45" rx="6" width="84" x="6" y="7"/><rect fill="url(#M)" height="84" rx="6" width="84" x="6" y="6"/><path d="m12 6c-3.324 0-6 2.676-6 6v72c0 .33472.04135.6507.09375.96875.0487.2956.09704.59692.1875.875.00988.03038.020892.0636.03125.09375.098865.28777.23488.54745.375.8125.14459.27351.31562.53562.5.78125.18438.24564.37378.47347.59375.6875.43995.42806.94291.81453 1.5 1.0938.27854.13961.57347.24695.875.34375-.2562-.10022-.48671-.23627-.71875-.375-.00741-.0044-.023866.0045-.03125 0-.0319-.019-.0622-.042-.0937-.062-.1204-.077-.231-.164-.3437-.25-.1062-.081-.2133-.161-.3126-.25-.1778-.162-.3473-.346-.4999-.531-.1075-.131-.2183-.266-.3124-.407-.0251-.038-.0385-.086-.0626-.125-.0647-.103-.1302-.204-.1874-.312-.1011-.195-.2057-.416-.2813-.625-.008-.022-.0236-.041-.0313-.063-.0318-.092-.0358-.187-.0624-.281-.0304-.107-.0704-.203-.0938-.313-.0729-.341-.125-.698-.125-1.062v-72c0-2.782 2.2182-5 5-5h72c2.7818 0 5 2.2182 5 5v72c0 .3643-.05212.72099-.125 1.0625-.04415.20689-.08838.39766-.15625.59375-.0077.02195-.0233.04069-.03125.0625-.06274.17374-.13838.36745-.21875.53125-.04158.0828-.07904.16995-.125.25-.0546.09721-.12677.18835-.1875.28125-.09411.14096-.20492.276-.3125.40625-.14317.17445-.30314.347-.46875.5-.01117.0102-.01998.02115-.03125.03125-.13839.12556-.28509.23444-.4375.34375-.10257.07315-.20432.15336-.3125.21875-.0074.0045-.02384-.0044-.03125 0-.23204.13873-.46255.27478-.71875.375.30153-.0968.59646-.20414.875-.34375.55709-.27922 1.0601-.66569 1.5-1.0938.21997-.21403.40937-.44186.59375-.6875s.35541-.50774.5-.78125c.14012-.26505.27614-.52473.375-.8125.01041-.03078.02133-.06274.03125-.09375.09046-.27808.1388-.5794.1875-.875.053-.318.094-.634.094-.969v-72c0-3.324-2.676-6-6-6h-72z" fill="url(#L)" opacity=".5"/><path d="m12 90c-3.324 0-6-2.676-6-6v-72c0-.33472.04135-.6507.09375-.96875.0487-.2956.09704-.59692.1875-.875.0099-.03.0209-.063.0313-.094.0989-.2873.2349-.547.375-.812.1446-.2735.3156-.5356.5-.7812.1844-.2457.3738-.4735.5937-.6876.44-.428.943-.8145 1.5-1.0937.2786-.1396.5735-.2469.8748-.3437-.256.1002-.4865.2362-.7185.375-.00741.0044-.023866-.0045-.03125 0-.031933.0193-.062293.04251-.09375.0625-.1204.0767-.23102.16351-.34375.25-.10617.0808-.21328.16111-.3125.25-.1779.1614-.3474.3453-.5.5312-.1075.1303-.2183.2653-.3124.4063-.0251.0383-.0385.0858-.0626.125-.0647.103-.1302.2045-.1874.3124-.1011.1948-.2057.4158-.2813.625-.008.0219-.0236.0406-.0313.0626-.0318.0919-.0358.1868-.0624.2812-.0304.1066-.0704.203-.0938.3125-.0729.3415-.125.6985-.125 1.0625v72c0 2.7818 2.2182 5 5 5h72c2.7818 0 5-2.2182 5-5v-72c0-.364-.052-.721-.125-1.0625-.044-.2069-.088-.3977-.156-.5937-.008-.022-.024-.0407-.031-.0626-.063-.1737-.139-.3674-.219-.5312-.042-.0828-.079-.17-.125-.25-.055-.0972-.127-.1884-.188-.2812-.094-.141-.205-.276-.312-.4063-.143-.1745-.303-.347-.469-.5-.011-.0102-.02-.0211-.031-.0313-.139-.1255-.285-.2344-.438-.3437-.102-.0731-.204-.1534-.312-.2187-.0074-.0045-.02384.0044-.03125 0-.23204-.13873-.46255-.27478-.71875-.375.30153.0968.59646.20414.875.34375.55709.27922 1.0601.66569 1.5 1.0938.21997.21403.40937.44186.59375.6875s.35541.50774.5.78125c.14012.26505.27614.52473.375.8125.01041.03078.02133.06274.03125.09375.09046.27808.1388.5794.1875.875.053.318.094.634.094.969v72c0 3.324-2.676 6-6 6h-72z" fill="url(#K)" opacity=".25"/><path d="m13 79c0 2.2042 1.7958 4 4 4h62c2.2042 0 4-1.7958 4-4v-60c0-2.2042-1.7958-4-4-4h-62c-2.2042 0-4 1.7958-4 4z" fill="url(#S)" opacity=".1"/><rect fill="url(#R)" height="66" opacity=".2" rx="3" width="68" x="14" y="16"/><rect height="66" opacity=".4" rx="2" width="66" x="15" y="15"/><path d="m16 16h64v64h-64z" fill="url(#Q)"/><rect height="14" opacity=".4" rx="2" width="6" x="77" y="23"/><path d="m16 16v64h64v-64zm2 2h60v60h-60z" fill="url(#P)" opacity=".5"/><rect fill="url(#O)" height="12" rx="1" width="4" x="78" y="24"/><rect height="14" opacity=".4" rx="2" width="6" x="77" y="59"/><rect fill="url(#N)" height="12" rx="1" width="4" x="78" y="60"/><path d="m78 30h4v1h-4z" opacity=".2"/><path d="m78 66h4v1h-4z" opacity=".2"/><path d="m79 24c-.554 0-1 .446-1 1v1c0-.554.446-1 1-1h2c.554 0 1 .446 1 1v-1c0-.554-.446-1-1-1z" fill="#fff"/><path d="m79 60c-.554 0-1 .446-1 1v1c0-.554.446-1 1-1h2c.554 0 1 .446 1 1v-1c0-.554-.446-1-1-1z" fill="#fff"/><rect height="66" rx="12" style="opacity:.1;stroke:#fff;stroke-linecap:round;stroke-width:.5;clip-path:url(#h);filter:url(#f);fill:url(#g)" width="66" x="15" y="15"/><rect filter="url(#j)" height="24" opacity=".1" rx="1" width="6" x="32" y="42"/><path d="m30.998 44.998a7 7 0 0 0 0-14 7 7 0 1 0 0 14z" opacity=".15"/><path d="m31 45a6.0002 6.0002 0 0 0 0-12 6.0002 6.0002 0 1 0 0 12z" opacity=".4"/><rect fill="url(#I)" height="10" rx="2" width="24" x="45" y="29"/><rect fill="url(#G)" height="7" rx="1" stroke="url(#H)" width="21" x="46.5" y="30.5"/><text font-family="Liberation Sans" font-size="2" letter-spacing=".5" opacity=".4" x="48.368675" y="34.94722">ENTER CODE</text><path d="m46 45.5v1c0 .277.223.5.5.5h5c.277 0 .5-.223.5-.5v-1c0 .277-.223.5-.5.5h-5c-.277 0-.5-.223-.5-.5z" opacity=".2"/><path d="m54 45.5v1c0 .277.223.5.5.5h5c.277 0 .5-.223.5-.5v-1c0 .277-.223.5-.5.5h-5c-.277 0-.5-.223-.5-.5z" opacity=".2"/><path d="m62 45.5v1c0 .277.223.5.5.5h5c.277 0 .5-.223.5-.5v-1c0 .277-.223.5-.5.5h-5c-.277 0-.5-.223-.5-.5z" opacity=".2"/><path d="m46 51.5v1c0 .277.223.5.5.5h5c.277 0 .5-.223.5-.5v-1c0 .277-.223.5-.5.5h-5c-.277 0-.5-.223-.5-.5z" opacity=".2"/><path d="m54 51.5v1c0 .277.223.5.5.5h5c.277 0 .5-.223.5-.5v-1c0 .277-.223.5-.5.5h-5c-.277 0-.5-.223-.5-.5z" opacity=".2"/><path d="m62 51.5v1c0 .277.223.5.5.5h5c.277 0 .5-.223.5-.5v-1c0 .277-.223.5-.5.5h-5c-.277 0-.5-.223-.5-.5z" opacity=".2"/><path d="m46 57.5v1c0 .277.223.5.5.5h5c.277 0 .5-.223.5-.5v-1c0 .277-.223.5-.5.5h-5c-.277 0-.5-.223-.5-.5z" opacity=".2"/><path d="m54 57.5v1c0 .277.223.5.5.5h5c.277 0 .5-.223.5-.5v-1c0 .277-.223.5-.5.5h-5c-.277 0-.5-.223-.5-.5z" opacity=".2"/><path d="m62 57.5v1c0 .277.223.5.5.5h5c.277 0 .5-.223.5-.5v-1c0 .277-.223.5-.5.5h-5c-.277 0-.5-.223-.5-.5z" opacity=".2"/><path d="m46 63.5v1c0 .277.223.5.5.5h5c.277 0 .5-.223.5-.5v-1c0 .277-.223.5-.5.5h-5c-.277 0-.5-.223-.5-.5z" opacity=".2"/><path d="m54 63.5v1c0 .277.223.5.5.5h5c.277 0 .5-.223.5-.5v-1c0 .277-.223.5-.5.5h-5c-.277 0-.5-.223-.5-.5z" opacity=".2"/><path d="m62 63.5v1c0 .277.223.5.5.5h5c.277 0 .5-.223.5-.5v-1c0 .277-.223.5-.5.5h-5c-.277 0-.5-.223-.5-.5z" opacity=".2"/><rect fill="url(#F)" height="4" rx=".5" width="6" x="46" y="42"/><rect fill="url(#V)" height="4" rx=".5" width="6" x="54" y="42"/><rect fill="url(#E)" height="4" rx=".5" width="6" x="62" y="42"/><rect fill="url(#D)" height="4" rx=".5" width="6" x="46" y="48"/><rect fill="url(#C)" height="4" rx=".5" width="6" x="54" y="48"/><rect fill="url(#B)" height="4" rx=".5" width="6" x="62" y="48"/><rect fill="url(#A)" height="4" rx=".5" width="6" x="46" y="54"/><rect fill="url(#z)" height="4" rx=".5" width="6" x="54" y="54"/><rect fill="url(#y)" height="4" rx=".5" width="6" x="62" y="54"/><rect fill="url(#x)" height="4" rx=".5" width="6" x="46" y="60"/><rect fill="url(#w)" height="4" rx=".5" width="6" x="54" y="60"/><rect fill="url(#v)" height="4" rx=".5" width="6" x="62" y="60"/><g fill="#fff" font-family="Liberation Sans" font-size="3.4445" text-anchor="middle"><text x="49.001682" y="45.18573">7</text><text x="57.001682" y="45.18573">8</text><text x="65.001678" y="45.18573">9</text><text x="49.001682" y="51.18573">4</text><text x="57.001682" y="51.18573">5</text><text x="65.001678" y="51.18573">6</text><text x="49.001682" y="57.18573">1</text><text x="57.001682" y="57.18573">2</text><text x="65.001678" y="57.18573">3</text><text x="49.001682" y="63.18573">*</text><text x="57.001682" y="63.18573">0</text><text x="65.001678" y="63.18573">#</text></g><path d="m31 44a6.0002 6.0002 0 0 0 0-12 6.0002 6.0002 0 1 0 0 12z" fill="url(#u)"/><path d="m32 34c-1.8769 0-3.4437 1.2876-3.875 3.0312-.632.092-1.125.545-1.125 1.125v25.688c0 .646.605 1.156 1.344 1.156h6.3125c.739 0 1.344-.51 1.344-1.156v-25.688c0-.02262.0014-.0402 0-.0625.000722-.03127 0-.06231 0-.09375 0-2.2091-1.7909-4-4-4z" opacity=".15"/><path d="m28.344 37c-.076 0-.147.021-.219.031-.076.309-.125.637-.125.969 0 .03144-.000722.06248 0 .09375-.0014.0223 0 .03988 0 .0625v25.688c0 .646.605 1.156 1.344 1.156h4.3125c.739 0 1.344-.51 1.344-1.156v-25.688c0-.646-.605-1.156-1.344-1.156h-5.312z" opacity=".4"/><rect fill="url(#t)" height="24" rx="1" width="6" x="28" y="40"/><path d="m35 38a4.0002 4.0002 0 0 1 -8 0 4.0002 4.0002 0 1 1 8 0z" fill="url(#s)"/><path d="m28.062 40.719c-.028.093-.062.178-.062.281v22c0 .554.446 1 1 1h4c.554 0 1-.446 1-1v-22c0-.103-.034-.188-.062-.281-.272.294-.59.517-.938.719v21.062c0 .277-.223.5-.5.5h-3c-.277 0-.5-.223-.5-.5v-21.062c-.34837-.20196-.66594-.42491-.9375-.71875z" fill="url(#r)"/><path d="m31 34c-2.2091 0-4 1.7909-4 4 0 .17012.04189.33547.0625.5.248-1.972 1.899-3.5 3.938-3.5s3.6904 1.528 3.9375 3.5c.02-.165.062-.33.062-.5 0-2.209-1.791-4-4-4z" opacity=".2"/><path d="m52 44v3h-2v1h2v2h2v-2h2v-1h-2v-3z" fill="url(#q)" opacity=".4"/><path d="m60 44v3h-2v1h2v2h2v-2h2v-1h-2v-3z" fill="url(#p)" opacity=".4"/><path d="m52 50v3h-2v1h2v2h2v-2h2v-1h-2v-3z" fill="url(#o)" opacity=".4"/><path d="m60 50v3h-2v1h2v2h2v-2h2v-1h-2v-3z" fill="url(#n)" opacity=".4"/><path d="m52 56v3h-2v1h2v2h2v-2h2v-1h-2v-3z" fill="url(#m)" opacity=".4"/><path d="m60 56v3h-2v1h2v2h2v-2h2v-1h-2v-3z" fill="url(#l)" opacity=".4"/></svg>