<svg height="96" width="96" xmlns="http://www.w3.org/2000/svg" xmlns:xlink="http://www.w3.org/1999/xlink"><linearGradient id="a" stop-color="#fff"><stop offset="0"/><stop offset="1" stop-opacity="0"/></linearGradient><filter id="b" color-interpolation-filters="sRGB" height="1.384" width="1.384" x="-.192" y="-.192"><feGaussianBlur stdDeviation="5.28"/></filter><linearGradient id="c" gradientUnits="userSpaceOnUse" x1="48" x2="48" xlink:href="#a" y1="20.221" y2="138.66"/><clipPath id="d"><rect height="84" rx="6" width="84" x="6" y="6"/></clipPath><linearGradient id="e" gradientTransform="matrix(1.0059 0 0 .99417 100 0)" gradientUnits="userSpaceOnUse" x1="45.448" x2="45.448" y1="92.54" y2="7.0165"><stop offset="0"/><stop offset="1" stop-opacity=".58824"/></linearGradient><linearGradient id="f" gradientTransform="translate(0 1)" gradientUnits="userSpaceOnUse" x1="32.251" x2="32.251" xlink:href="#e" y1="90" y2="6"/><radialGradient id="g" cx="48" cy="90.172" gradientTransform="matrix(1.1573 0 0 .99591 -7.551 .19713)" gradientUnits="userSpaceOnUse" r="42" xlink:href="#a"/><linearGradient id="h" gradientUnits="userSpaceOnUse" x1="36.357" x2="36.357" xlink:href="#a" y1="6" y2="63.893"/><linearGradient id="i" gradientUnits="userSpaceOnUse" x1="48" x2="48" y1="90" y2="5.9877"><stop offset="0" stop-color="#1e57ae"/><stop offset="1" stop-color="#7da8e9"/></linearGradient><linearGradient id="j" gradientUnits="userSpaceOnUse" x1="48.082" x2="46.655" y1="76.562" y2="17.973"><stop offset="0" stop-color="#dcdcdc"/><stop offset=".30654" stop-color="#ebebeb"/><stop offset=".70706" stop-color="#fff"/><stop offset=".84501" stop-color="#fafafa"/><stop offset="1" stop-color="#f0f0f0"/></linearGradient><linearGradient id="k" gradientTransform="matrix(1.0238 0 0 1.0119 -1.1429 .929)" gradientUnits="userSpaceOnUse" x1="32.251" x2="32.251" xlink:href="#e" y1="90" y2="5.9996"/><linearGradient id="l" gradientTransform="matrix(1.0238 0 0 -1.0119 -1.1429 98.071)" gradientUnits="userSpaceOnUse" x1="32.251" x2="32.251" xlink:href="#e" y1="6.1317" y2="90.239"/><g fill="url(#l)"><path d="m12 95.031c-5.5111 0-10.031-4.52-10.031-10.031v-71c0-5.5111 4.5202-10.031 10.031-10.031h72c5.5111 0 10.031 4.5202 10.031 10.031v71c0 5.5111-4.5202 10.031-10.031 10.031z" opacity=".08"/><path d="m12 94.031c-4.9716 0-9.0312-4.0596-9.0312-9.0312v-71c0-4.9718 4.0596-9.0314 9.0312-9.0314h72c4.9716 0 9.0312 4.0596 9.0312 9.0312v71c0 4.9716-4.0596 9.0312-9.0312 9.0312h-72z" opacity=".1"/><path d="m12 93c-4.4091 0-8-3.591-8-8v-71c0-4.4091 3.5909-8 8-8h72c4.4091 0 8 3.5909 8 8v71c0 4.4091-3.5909 8-8 8z" opacity=".2"/></g><rect fill="url(#k)" height="85" opacity=".3" rx="7" width="86" x="5" y="7"/><rect fill="url(#f)" height="84" opacity=".45" rx="6" width="84" x="6" y="7"/><rect fill="url(#i)" height="84" rx="6" width="84" x="6" y="6"/><path d="m12 6c-3.324 0-6 2.676-6 6v72c0 .33472.04135.6507.09375.96875.0487.2956.09704.59692.1875.875.00988.03038.020892.0636.03125.09375.098865.28777.23488.54745.375.8125.14459.27351.31562.53562.5.78125.18438.24564.37378.47347.59375.6875.43995.42806.94291.81453 1.5 1.0938.27854.13961.57347.24695.875.34375-.2562-.10022-.48671-.23627-.71875-.375-.00741-.0044-.023866.0045-.03125 0-.0319-.019-.0622-.042-.0937-.062-.1204-.077-.231-.164-.3437-.25-.1062-.081-.2133-.161-.3126-.25-.1778-.162-.3473-.346-.4999-.531-.1075-.131-.2183-.266-.3124-.407-.0251-.038-.0385-.086-.0626-.125-.0647-.103-.1302-.204-.1874-.312-.1011-.195-.2057-.416-.2813-.625-.008-.022-.0236-.041-.0313-.063-.0318-.092-.0358-.187-.0624-.281-.0304-.107-.0704-.203-.0938-.313-.0729-.341-.125-.698-.125-1.062v-72c0-2.782 2.2182-5 5-5h72c2.7818 0 5 2.2182 5 5v72c0 .3643-.05212.72099-.125 1.0625-.04415.20689-.08838.39766-.15625.59375-.0077.02195-.0233.04069-.03125.0625-.06274.17374-.13838.36745-.21875.53125-.04158.0828-.07904.16995-.125.25-.0546.09721-.12677.18835-.1875.28125-.09411.14096-.20492.276-.3125.40625-.14317.17445-.30314.347-.46875.5-.01117.0102-.01998.02115-.03125.03125-.13839.12556-.28509.23444-.4375.34375-.10257.07315-.20432.15336-.3125.21875-.0074.0045-.02384-.0044-.03125 0-.23204.13873-.46255.27478-.71875.375.30153-.0968.59646-.20414.875-.34375.55709-.27922 1.0601-.66569 1.5-1.0938.21997-.21403.40937-.44186.59375-.6875s.35541-.50774.5-.78125c.14012-.26505.27614-.52473.375-.8125.01041-.03078.02133-.06274.03125-.09375.09046-.27808.1388-.5794.1875-.875.053-.318.094-.634.094-.969v-72c0-3.324-2.676-6-6-6h-72z" fill="url(#h)" opacity=".3"/><path d="m12 90c-3.324 0-6-2.676-6-6v-72c0-.33472.04135-.6507.09375-.96875.0487-.2956.09704-.59692.1875-.875.0099-.03.0209-.063.0313-.094.0989-.2873.2349-.547.375-.812.1446-.2735.3156-.5356.5-.7812.1844-.2457.3738-.4735.5937-.6876.44-.428.943-.8145 1.5-1.0937.2786-.1396.5735-.2469.8748-.3437-.256.1002-.4865.2362-.7185.375-.00741.0044-.023866-.0045-.03125 0-.031933.0193-.062293.04251-.09375.0625-.1204.0767-.23102.16351-.34375.25-.10617.0808-.21328.16111-.3125.25-.1779.1614-.3474.3453-.5.5312-.1075.1303-.2183.2653-.3124.4063-.0251.0383-.0385.0858-.0626.125-.0647.103-.1302.2045-.1874.3124-.1011.1948-.2057.4158-.2813.625-.008.0219-.0236.0406-.0313.0626-.0318.0919-.0358.1868-.0624.2812-.0304.1066-.0704.203-.0938.3125-.0729.3415-.125.6985-.125 1.0625v72c0 2.7818 2.2182 5 5 5h72c2.7818 0 5-2.2182 5-5v-72c0-.364-.052-.721-.125-1.0625-.044-.2069-.088-.3977-.156-.5937-.008-.022-.024-.0407-.031-.0626-.063-.1737-.139-.3674-.219-.5312-.042-.0828-.079-.17-.125-.25-.055-.0972-.127-.1884-.188-.2812-.094-.141-.205-.276-.312-.4063-.143-.1745-.303-.347-.469-.5-.011-.0102-.02-.0211-.031-.0313-.139-.1255-.285-.2344-.438-.3437-.102-.0731-.204-.1534-.312-.2187-.0074-.0045-.02384.0044-.03125 0-.23204-.13873-.46255-.27478-.71875-.375.30153.0968.59646.20414.875.34375.55709.27922 1.0601.66569 1.5 1.0938.21997.21403.40937.44186.59375.6875s.35541.50774.5.78125c.14012.26505.27614.52473.375.8125.01041.03078.02133.06274.03125.09375.09046.27808.1388.5794.1875.875.053.318.094.634.094.969v72c0 3.324-2.676 6-6 6h-72z" fill="url(#g)" opacity=".2"/><rect height="66" rx="12" style="opacity:.1;stroke:#fff;stroke-linecap:round;stroke-width:.5;clip-path:url(#d);filter:url(#b);fill:url(#c)" width="66" x="15" y="15"/><path d="m48 15c-13.668-.12297-28.134 6.6392-34.406 19.531-.000048.000098.0014.0275 0 .03125h.03125c-.02958.05976-.03345.12757-.0625.1875-.01207.04027-.0277.06869-.03125.09375-4.777 9.961-2.35 22.296 5.344 30.032a.99107.99107 0 0 0 .125.15625.99107.99107 0 0 0 .03125.0625c.0053.0056.0259-.0056.03125 0 1.904 1.9934 4.0604 3.6758 6.3438 5.1562-.95348 2.6244-3.3345 4.8383-6.0625 5.4062a.99107.99107 0 0 0 -.03125 0c-.000718.000166-.1243.03104-.125.03125-.000705.000213-.12431.06224-.125.0625-.00069.000259-.12433.03095-.125.03125-.000671.000303-.12435.06215-.125.0625-.00065.000347-.12437.06211-.125.0625-.000626.000388-.09315.06207-.09375.0625-.000599.000429-.09318.09328-.09375.09375-.000479.000392-.07123.074-.09375.09375-.0043.0038-.03116-.000081-.03125 0l.03125.03125c-1.1311 1.0344-1.9565 2.3642-1.6875 3.8438.26524 1.4591 1.389 2.3215 2.375 2.8125 1.6879.84062 3.6555 1.0163 5.4375.65625.03021-.0061.06367.0064.09375 0a.99107.99107 0 0 0 .21875.03125c6.166-.352 12.072-2.968 16.593-7.156 14.974 2.482 31.802-3.35 39.906-16.875 5.821-9.837 4.477-23.006-3.219-31.469-.0056-.0062.0056-.02509 0-.03125-.0056-.0052-.04521-.08405 0-.03125-7.464-8.715-18.989-12.989-30.125-12.968z" opacity=".05"/><path d="m48 16c-13.334-.11997-27.432 6.4957-33.5 18.969-.004.0082.004.02308 0 .03125-4.7897 9.6771-2.3663 21.888 5.25 29.375v.03125c2.0386 2.1376 4.3756 3.9502 6.875 5.5-.87146 3.2839-3.7569 6.0241-7.0938 6.7188a1.0247 1.0247 0 0 0 -.46875.25c-1.004.91214-1.5631 1.9339-1.375 2.9688.18812 1.0349 1.0084 1.709 1.8438 2.125 1.5945.7941 3.6165.97086 5.25.53125v.03125c6.084-.347 11.952-2.966 16.344-7.187 14.724 2.628 31.432-3.088 39.375-16.344 5.592-9.45 4.307-22.222-3.094-30.344-.009-.011-.021-.02-.031-.031-7.24-8.453-18.495-12.645-29.375-12.625zm-6.3125 17c-.2145.49891-.44664 1.0373-.625 1.4062-.26111.54011-.48537.70042-.4375.6875.02394-.0065.03212.0098-.125-.0625-.122-.056-.371-.247-.625-.469-.123-.255-.173-.378-.063-.562.129-.214.502-.512 1.032-.781.27-.137.525-.113.844-.219zm11.875.59375c2.3089 1.6438 3.4915 4.8999 1.9375 7.4688a1.0247 1.0247 0 0 0 -.0625.125c-.31008.7463-1.3827 1.7386-2.5312 2.5625 1.5863-3.1287 1.7679-6.8218.65625-10.156zm-6.907 26.594a1.0247 1.0247 0 0 0 .21875.03125c.74809-.05321.79543.08503.875.25s.09191.61801-.09375 1.0312c-.18566.41324-.52358.71384-.75.78125-.21227.0632-.46337.01994-.9375-.46875-.27675-.38176-.30184-.86462-.15625-1.1875.14936-.33123.28778-.52486.84375-.4375z" opacity=".05"/><path d="m48 17.031c-12.996-.11693-26.751 6.347-32.601 18.398-4.5943 9.2527-2.2338 21.092 5.0792 28.266 2.1633 2.2716 4.6651 4.2117 7.3652 5.8042-.72552 4.0163-4.1318 7.3002-8.0938 8.125-3.4662 3.1491 2.4255 4.6878 4.9731 3.882 6.004-.342 11.846-2.966 16.09-7.225 14.449 2.774 31.048-2.836 38.816-15.802 5.356-9.05 4.085-21.393-3.018-29.159-7.005-8.201-17.981-12.309-28.61-12.289zm-3.8438 14.312c-2.2177.98041-1.8318 7.0921-5.1897 3.809-1.4065-2.537 3.4756-3.8309 5.1897-3.809zm7 .21875c4.5261.56575 7.6943 5.9626 5.2313 10.034-1.0606 2.5525-5.9044 4.9709-6.8897 5.0317 3.86-3.4 4.913-9.476 2.718-14.069-.284-.4-.684-.691-1.06-.997zm-3.1875 16.062c-.98774 1.3955-.99682 4.729-1.3216 1.23-.01609-.71511.70706-1.1251 1.3216-1.23zm-1.156 11.564c4.0799-.29021 1.2254 6.4705-1.6613 3.2942-1.07-1.385-.251-3.595 1.661-3.294z" opacity=".12"/><path d="m48 17.969c-18.678 0-34.031 12.444-34.031 28.031 0 9.6705 6.039 18.081 14.969 23.094-.20989 1.1888-.65532 2.8369-1.75 4.5312-1.2505 1.9355-3.2682 3.797-6.75 4.7812a1.0234 1.0234 0 0 0 .15625 2.0312c9.7051 1.0548 16.303-3.5216 19.906-7.1562 2.4222.45137 4.9111.75 7.5.75 18.678 0 34.031-12.443 34.031-28.031s-15.353-28.031-34.031-28.031zm-.90625 12.125c1.6468.000034 3.1599.20624 4.5312.59375 1.368.37178 2.5376.88996 3.5 1.5938a1.0234 1.0234 0 0 0 0 .03125c.9547.684 1.6848 1.5164 2.2188 2.5.52095.95971.78123 2.0302.78125 3.3125-.000023 1.2045-.17005 2.2532-.53125 3.1562a1.0234 1.0234 0 0 0 -.03125 0c-.35217.91562-.86046 1.7548-1.5938 2.5312-.74421.78798-1.6809 1.5241-2.8438 2.2188-1.1644.68947-2.5287 1.374-4.125 2.0312a1.0234 1.0234 0 0 0 -.625.71875l-.8125 3.6562h-1.3125l-.75-4.5c1.1224-.51412 2.195-1.0431 3-1.7188.96008-.82291 1.7601-1.7026 2.3438-2.6875.57874-.96458 1.001-2.0049 1.2188-3.0938.20613-1.0307.31248-2.0548.3125-3.0938-.000018-.8494-.08593-1.6457-.25-2.375-.162-.739-.411-1.437-.813-2.031-.008-.014-.022-.019-.031-.032-.406-.625-.974-1.086-1.593-1.406-.659-.351-1.395-.5-2.188-.5-.88818.00004-1.7149.21918-2.4062.6875-.62411.42282-1.1796.98214-1.5625 1.6875-.37064.68278-.59237 1.458-.75 2.2812a1.0234 1.0234 0 0 0 0 .03125c-.07905.4644-.09273.95308-.125 1.4375-.589-.031-1.213-.038-1.718-.124-.76961-.13066-1.3736-.33288-1.9062-.5625-.0097-.0046-.02168.0046-.03125 0-.47967-.23061-.80333-.48006-1.0312-.75-.0078-.0092-.02368-.02195-.03125-.03125-.19186-.25876-.28125-.54373-.28125-.875-.000002-.62263.13976-1.1434.46875-1.6875.31734-.53702.83479-1.0606 1.5625-1.5.73038-.43279 1.7259-.78965 2.9688-1.0625 1.2212-.28292 2.6903-.43746 4.4375-.4375zm-.282 28.156c.4699.000006.89786.05402 1.2812.15625.36111.0932.66197.23572.90625.4375.23622.19515.44376.44332.59375.8125a1.0234 1.0234 0 0 0 0 .03125c.13279.29405.21874.79634.21875 1.4688-.000014.65467-.08273 1.1363-.21875 1.4375-.152.364-.37.661-.593.845-.21775.17987-.50616.303-.90625.40625a1.0234 1.0234 0 0 0 -.032.031c-.38385.11515-.79921.15625-1.25.15625-.4695-.000001-.8728-.03767-1.2812-.15625a1.0234 1.0234 0 0 0 -.031-.031c-.40012-.10325-.68854-.2264-.90625-.40625-.20659-.17841-.40319-.46384-.5625-.84375-.1395-.33265-.21876-.79768-.21875-1.4375-.000007-.65788.08213-1.143.21875-1.4688a1.0234 1.0234 0 0 0 0-.03125c.15652-.38528.34246-.62247.5625-.8125.24424-.20176.54512-.3443.90625-.4375.40759-.10518.82444-.15624 1.3125-.15625z" opacity=".24"/><path d="m48 18c-18.225 0-33 12.088-33 27 0 9.4984 5.9998 17.843 15.062 22.656-.34462 2.5088-1.914 8.6498-9.3438 10.75 9.6229 1.0458 16.014-3.6463 19.406-7.1875 2.525.506 5.162.782 7.876.782 18.225 0 33-12.088 33-27s-14.775-27-33-27zm-.90625 10.062c1.7291.000036 3.3395.20876 4.8125.625 1.473.4003 2.7398.99676 3.8125 1.7812 1.0727.76854 1.9228 1.723 2.5312 2.8438.60838 1.1208.90622 2.3876.90625 3.8125-.000025 1.3129-.20875 2.4906-.625 3.5312-.40029 1.0407-.99598 1.9792-1.8125 2.8438-.81656.8646-1.8297 1.6698-3.0625 2.4062-1.217.721-2.648 1.422-4.281 2.094l-1 4.4688h-3l-.969-6.063c1.4089-.56036 2.5409-1.2162 3.4375-1.9688.89658-.76849 1.6126-1.5729 2.125-2.4375.52834-.88056.90161-1.7893 1.0938-2.75.19211-.96062.28123-1.9296.28125-2.9062 0-.785-.075-1.516-.219-2.156-.144-.657-.367-1.224-.687-1.688-.305-.48-.723-.838-1.219-1.094-.481-.256-1.047-.375-1.719-.375-.7365.000033-1.3474.16381-1.8438.5-.49634.33626-.91456.78341-1.2188 1.3438-.30421.5604-.51216 1.2163-.65625 1.9688-.12809.75253-.18751 1.5425-.1875 2.375-1.0087.000026-1.9639-.07463-2.8125-.21875-.84857-.14407-1.5631-.35279-2.1875-.625-.60841-.28816-1.0853-.63018-1.4375-1.0625-.33623-.43226-.53125-.95484-.53125-1.5312-.000002-.8005.20872-1.5303.625-2.2188.41628-.70444 1.0577-1.3314 1.9062-1.8438.86457-.51231 1.9684-.89927 3.2812-1.1875 1.3129-.30417 2.847-.46871 4.6562-.46875zm-.282 28.157c.54435.000007 1.0509.05942 1.5312.1875.49632.12809.94424.35205 1.3125.65625.36823.30421.66685.70641.875 1.2188.22413.49634.31248 1.1225.3125 1.875-.000016.73649-.08837 1.3474-.3125 1.8438-.20815.49633-.50677.91455-.875 1.2188-.36826.3042-.81618.49691-1.3125.625-.48033.1441-.9869.21875-1.5312.21875-.56038-.000001-1.0662-.07466-1.5625-.21875-.49634-.12809-.94426-.3208-1.3125-.625-.352-.304-.635-.723-.843-1.219-.20815-.49633-.31251-1.1073-.3125-1.8438-.000008-.7525.10435-1.3787.3125-1.875.20813-.51234.49151-.91454.84375-1.2188.36824-.3042.81616-.52816 1.3125-.65625.49632-.12808 1.0021-.18749 1.5625-.1875z" fill="url(#j)"/><path d="m48 18c-18.225 0-33 12.088-33 27 0 .13523-.0024.2715 0 .40625.391-14.634 15.02-26.406 33-26.406 18.018 0 32.67 11.822 33 26.5.004-.169 0-.331 0-.5 0-14.912-14.775-27-33-27zm-.5 13.031c-.7365.000033-1.3474.16381-1.8438.5-.49634.33626-.91456.78341-1.2188 1.3438-.30421.5604-.51216 1.2163-.65625 1.9688-.12809.75253-.18751 1.5425-.1875 2.375-1.0087.000026-1.9639-.07463-2.8125-.21875-.84857-.14407-1.5631-.35279-2.1875-.625-.60841-.28816-1.0853-.63018-1.4375-1.0625-.25217-.32419-.42939-.71459-.5-1.125-.02607.19174-.03125.39362-.03125.59375-.000002.57641.19502 1.099.53125 1.5312.35223.43232.82909.77434 1.4375 1.0625.62441.27221 1.3389.48093 2.1875.625.84856.14412 1.8038.21878 2.8125.21875-.000009-.83253.05941-1.6225.1875-2.375.14409-.75247.35204-1.4083.65625-1.9688.30419-.56034.72241-1.0075 1.2188-1.3438.49632-.33619 1.1072-.49997 1.8438-.5.67244.000033 1.2384.11886 1.7188.375.49632.2562.91453.61346 1.2188 1.0938.3202.46434.54339 1.0311.6875 1.6875.11604.51581.16425 1.1048.1875 1.7188.0066-.18656.03125-.37537.03125-.5625 0-.784-.075-1.515-.219-2.155-.144-.657-.367-1.224-.687-1.688-.305-.48-.723-.838-1.219-1.094-.481-.256-1.047-.375-1.719-.375zm11.625 6.75c-.05873 1.0523-.24803 2.0107-.59375 2.875-.40029 1.0407-.99598 1.9792-1.8125 2.8438-.81656.8646-1.8297 1.6698-3.0625 2.4062-1.217.721-2.648 1.422-4.281 2.094l-1 4.4688h-3l-.8125-5.125c-.05346.02187-.10197.04091-.15625.0625l.96875 6.0625h3l1-4.4688c1.6331-.67243 3.0644-1.3733 4.2812-2.0938 1.2328-.73647 2.2459-1.5417 3.0625-2.4062.81652-.86456 1.4122-1.803 1.8125-2.8438.41625-1.0407.62498-2.2184.625-3.5312-.000002-.11896-.02709-.22699-.03125-.34375zm-16.312 22.875c-.01219.16713-.03125.31804-.03125.5-.000008.73649.10435 1.3474.3125 1.8438.20813.49633.49151.91455.84375 1.2188.36824.3042.81616.49691 1.3125.625.49632.14409 1.0021.21875 1.5625.21875.54435-.000001 1.0509-.07466 1.5312-.21875.49632-.12809.94424-.3208 1.3125-.625.36823-.3042.66685-.72242.875-1.2188.22413-.49633.31248-1.1073.3125-1.8438-.000004-.18244-.02018-.33246-.03125-.5-.03536.5058-.11315.9715-.28125 1.3438-.20815.49633-.50677.91455-.875 1.2188-.36826.3042-.81618.49691-1.3125.625-.48033.1441-.9869.21875-1.5312.21875-.56038-.000001-1.0662-.07466-1.5625-.21875-.49634-.12809-.94426-.3208-1.3125-.625-.353-.304-.636-.723-.844-1.219-.157-.373-.242-.837-.282-1.344zm-12.907 7.906c-.58097 2.8496-2.5274 7.9611-9.1875 9.8438.79077.08594 1.5653.11273 2.3125.125 5.4552-2.5882 6.7258-7.6518 7.0312-9.875-.05421-.02879-.10226-.06471-.15625-.09375z" fill="#fff" opacity=".8"/></svg>