<svg height="96" width="96" xmlns="http://www.w3.org/2000/svg" xmlns:xlink="http://www.w3.org/1999/xlink"><linearGradient id="a" stop-color="#fff"><stop offset="0"/><stop offset="1" stop-opacity="0"/></linearGradient><linearGradient id="b" gradientTransform="matrix(1.0059 0 0 .99417 100 0)" gradientUnits="userSpaceOnUse" x1="45.448" x2="45.448" y1="92.54" y2="7.0165"><stop offset="0"/><stop offset="1" stop-opacity=".58824"/></linearGradient><linearGradient id="c" gradientTransform="matrix(1 0 0 -1 0 97)" gradientUnits="userSpaceOnUse" x1="32.251" x2="32.251" xlink:href="#b" y1="6.1317" y2="90.239"/><radialGradient id="d" cx="48" cy="90.172" gradientTransform="matrix(1.1573 0 0 .99591 -7.551 .19713)" gradientUnits="userSpaceOnUse" r="42" xlink:href="#a"/><linearGradient id="e" gradientUnits="userSpaceOnUse" x1="36.357" x2="36.357" xlink:href="#a" y1="6" y2="63.893"/><linearGradient id="f" gradientTransform="matrix(1.0238 0 0 -1.0119 -1.1429 98.071)" gradientUnits="userSpaceOnUse" x1="32.251" x2="32.251" xlink:href="#b" y1="6.1317" y2="90.239"/><linearGradient id="g" gradientTransform="matrix(0 -3.01 2.9786 0 33.299 110.58)" gradientUnits="userSpaceOnUse" x1="11" x2="18.939" y1="11" y2="11"><stop offset="0" stop-color="#c80000"/><stop offset="1" stop-color="#f3604d"/></linearGradient><g fill="url(#f)"><path d="m12 3.9688c-5.5111 0-10.031 4.5201-10.031 10.031v71c0 5.5111 4.5202 10.031 10.031 10.031h72c5.5111 0 10.031-4.5202 10.031-10.031v-71c0-5.5115-4.52-10.031-10.031-10.031h-72zm0 2.0312h72c3.324 0 6 2.676 6 6v72c0 3.324-2.676 6-6 6h-72c-3.324 0-6-2.676-6-6v-72c0-3.324 2.676-6 6-6z" opacity=".08"/><path d="m12 4.9688c-4.9716 0-9.0312 4.0596-9.0312 9.0312v71c0 4.9716 4.0596 9.0312 9.0312 9.0312h72c4.9716 0 9.0312-4.0596 9.0312-9.0312v-71c0-4.9716-4.059-9.0312-9.031-9.0312h-72zm0 1.0312h72c3.324 0 6 2.676 6 6v72c0 3.324-2.676 6-6 6h-72c-3.324 0-6-2.676-6-6v-72c0-3.324 2.676-6 6-6z" opacity=".1"/><path d="m11.188 6.0312c-4.028.4107-7.188 3.8352-7.188 7.9688v71c0 4.4091 3.5909 8 8 8h72c4.4091 0 8-3.5909 8-8v-71c0-4.1971-3.259-7.646-7.375-7.9688 3.033.3062 5.375 2.8526 5.375 5.9688v72c0 3.324-2.676 6-6 6h-72c-3.324 0-6-2.676-6-6v-72c0-3.1162 2.3421-5.6626 5.375-5.9688-.06227.00488-.12563-.00631-.1875 0z" opacity=".2"/><path d="m6.4375 9.75c-.8995 1.177-1.4375 2.647-1.4375 4.25v71c0 3.878 3.122 7 7 7h72c3.878 0 7-3.122 7-7v-71c0-1.603-.538-3.073-1.438-4.25.28.694.438 1.454.438 2.25v72c0 3.324-2.676 6-6 6h-72c-3.324 0-6-2.676-6-6v-72c0-.796.1582-1.556.4375-2.25z" opacity=".3"/></g><path d="m6 84v1c0 3.324 2.676 6 6 6h72c3.324 0 6-2.676 6-6v-1c0 3.324-2.676 6-6 6h-72c-3.324 0-6-2.676-6-6z" fill="url(#c)" opacity=".45"/><rect height="84" opacity=".6" rx="6" width="84" x="6" y="6"/><path d="m12 6c-3.324 0-6 2.676-6 6v72c0 .33472.04135.6507.09375.96875.0487.2956.09704.59692.1875.875.00988.03038.020892.0636.03125.09375.098865.28777.23488.54745.375.8125.14459.27351.31562.53562.5.78125.18438.24564.37378.47347.59375.6875.43995.42806.94291.81453 1.5 1.0938.27854.13961.57347.24695.875.34375-.2562-.10022-.48671-.23627-.71875-.375-.00741-.0044-.023866.0045-.03125 0-.0319-.019-.0622-.042-.0937-.062-.1204-.077-.231-.164-.3437-.25-.1062-.081-.2133-.161-.3126-.25-.1778-.162-.3473-.346-.4999-.531-.1075-.131-.2183-.266-.3124-.407-.0251-.038-.0385-.086-.0626-.125-.0647-.103-.1302-.204-.1874-.312-.1011-.195-.2057-.416-.2813-.625-.008-.022-.0236-.041-.0313-.063-.0318-.092-.0358-.187-.0624-.281-.0304-.107-.0704-.203-.0938-.313-.0729-.341-.125-.698-.125-1.062v-72c0-2.782 2.2182-5 5-5h72c2.7818 0 5 2.2182 5 5v72c0 .3643-.05212.72099-.125 1.0625-.04415.20689-.08838.39766-.15625.59375-.0077.02195-.0233.04069-.03125.0625-.06274.17374-.13838.36745-.21875.53125-.04158.0828-.07904.16995-.125.25-.0546.09721-.12677.18835-.1875.28125-.09411.14096-.20492.276-.3125.40625-.14317.17445-.30314.347-.46875.5-.01117.0102-.01998.02115-.03125.03125-.13839.12556-.28509.23444-.4375.34375-.10257.07315-.20432.15336-.3125.21875-.0074.0045-.02384-.0044-.03125 0-.23204.13873-.46255.27478-.71875.375.30153-.0968.59646-.20414.875-.34375.55709-.27922 1.0601-.66569 1.5-1.0938.21997-.21403.40937-.44186.59375-.6875s.35541-.50774.5-.78125c.14012-.26505.27614-.52473.375-.8125.01041-.03078.02133-.06274.03125-.09375.09046-.27808.1388-.5794.1875-.875.053-.318.094-.634.094-.969v-72c0-3.324-2.676-6-6-6h-72z" fill="url(#e)" opacity=".01"/><path d="m12 90c-3.324 0-6-2.676-6-6v-72c0-.33472.04135-.6507.09375-.96875.0487-.2956.09704-.59692.1875-.875.0099-.03.0209-.063.0313-.094.0989-.2873.2349-.547.375-.812.1446-.2735.3156-.5356.5-.7812.1844-.2457.3738-.4735.5937-.6876.44-.428.943-.8145 1.5-1.0937.2786-.1396.5735-.2469.8748-.3437-.256.1002-.4865.2362-.7185.375-.00741.0044-.023866-.0045-.03125 0-.031933.0193-.062293.04251-.09375.0625-.1204.0767-.23102.16351-.34375.25-.10617.0808-.21328.16111-.3125.25-.1779.1614-.3474.3453-.5.5312-.1075.1303-.2183.2653-.3124.4063-.0251.0383-.0385.0858-.0626.125-.0647.103-.1302.2045-.1874.3124-.1011.1948-.2057.4158-.2813.625-.008.0219-.0236.0406-.0313.0626-.0318.0919-.0358.1868-.0624.2812-.0304.1066-.0704.203-.0938.3125-.0729.3415-.125.6985-.125 1.0625v72c0 2.7818 2.2182 5 5 5h72c2.7818 0 5-2.2182 5-5v-72c0-.364-.052-.721-.125-1.0625-.044-.2069-.088-.3977-.156-.5937-.008-.022-.024-.0407-.031-.0626-.063-.1737-.139-.3674-.219-.5312-.042-.0828-.079-.17-.125-.25-.055-.0972-.127-.1884-.188-.2812-.094-.141-.205-.276-.312-.4063-.143-.1745-.303-.347-.469-.5-.011-.0102-.02-.0211-.031-.0313-.139-.1255-.285-.2344-.438-.3437-.102-.0731-.204-.1534-.312-.2187-.0074-.0045-.02384.0044-.03125 0-.23204-.13873-.46255-.27478-.71875-.375.30153.0968.59646.20414.875.34375.55709.27922 1.0601.66569 1.5 1.0938.21997.21403.40937.44186.59375.6875s.35541.50774.5.78125c.14012.26505.27614.52473.375.8125.01041.03078.02133.06274.03125.09375.09046.27808.1388.5794.1875.875.053.318.094.634.094.969v72c0 3.324-2.676 6-6 6h-72z" fill="url(#d)" opacity=".15"/><path d="m72.75 17.906c-.45848 0-.89696.17133-1.2188.5l-7.2188 7.2188h-5.5625c-.45801-.0037-.92588.17638-1.25.5l-8.0938 8.0938c-.65734.64358-.65734 1.8564 0 2.5l9.906 9.906c.33069.33042.78266.5112 1.25.5.44862-.0037.90127-.18301 1.2188-.5l8.125-8.125c.32362-.32412.50366-.76074.5-1.2188v-5.594l7.1875-7.1875c.65734-.64358.65734-1.8564 0-2.5l-3.594-3.594c-.32179-.32867-.79152-.5-1.25-.5zm-37.312 30.969c-.44862.0037-.90127.21426-1.2188.53125l-8.125 8.094c-.32362.32412-.50366.79199-.5 1.25v5.5625l-7.1875 7.2188c-.65734.64358-.65734 1.8252 0 2.4688l3.594 3.594c.64358.65734 1.8252.65734 2.4688 0l7.2188-7.1875h5.5625c.45801.0037.92588-.17638 1.25-.5l8.0938-8.125c.65734-.64358.65734-1.8252 0-2.4688l-9.906-9.906c-.33069-.33042-.78266-.54246-1.25-.53125z" fill="#fff" opacity=".2"/><g fill-rule="evenodd"><path d="m58.762 53.538-6.0995 6.0995c-.7997.7997-.7997 1.9497 0 2.7494l4.5503 4.5503-4.5503 4.5503c-.7997.7997-.7997 1.9497 0 2.7494l6.1 6.1c.8.8 1.9506.8 2.7506 0l4.5497-4.5497 4.5497 4.5497c.8.8 1.9506.8 2.7506 0l6.1005-6.1005c.7998-.7998.7998-1.9486 0-2.7489l-4.5508-4.5503 4.5508-4.5513c.7998-.7998.7998-1.9486 0-2.7484l-6.1-6.1c-.79924-.7992-1.9524-.7992-2.7516 0l-4.5492 4.5492-4.5492-4.5492c-.79924-.7987-1.9524-.7987-2.7516.0005z" opacity=".1"/><path d="m60.138 53.576-6.775 6.775c-.4.4-.4.9232 0 1.3232l5.2634 5.2634-5.2634 5.2634c-.4.4-.4.9232 0 1.3232l6.1134 6.1134c.4.4.92326.4 1.3233 0l5.2634-5.2634 5.2634 5.2634c.39999.4.92323.4 1.3232 0l6.1134-6.1134c.4-.4.4-.9232 0-1.3232l-5.2634-5.2634 5.2634-5.2634c.4-.4.4-.9237 0-1.3237l-6.7747-6.7747-5.9258 5.9247z" opacity=".15"/><path d="m54.115 72.863 6.0224 6.0224 5.925-5.9249 5.925 5.9249 6.0224-6.0224-5.925-5.925 5.9253-5.9253-6.0224-6.0223-5.9253 5.9252-5.925-5.925-6.0224 6.0224 5.9251 5.925z" opacity=".3"/><path d="m54.115 71.448 6.0224 6.0224 5.925-5.9249 5.925 5.9249 6.0224-6.0224-5.925-5.925 5.9252-5.9253-6.0224-6.0223-5.9258 5.9247-5.9245-5.9245-6.0224 6.0224 5.925 5.925z" fill="url(#g)"/><path d="m60.138 53.576-6.0153 6.0295.98289.98288 5.0325-5.0325 5.9245 5.9245 5.9258-5.9247 5.0324 5.0324.98995-.98995-6.0224-6.0223-5.9258 5.9247zm-.09736 11.947-5.925 5.925.98995.98995 4.9351-4.9351zm12.045 0v1.9799l4.9351 4.9351.98995-.98995z" fill="#fff" opacity=".2"/></g></svg>