<svg height="96" width="96" xmlns="http://www.w3.org/2000/svg" xmlns:xlink="http://www.w3.org/1999/xlink"><linearGradient id="a" gradientUnits="userSpaceOnUse" x1="68.22911" x2="68.22911" y1="12.015744" y2="-63.998234"><stop offset="0" stop-color="#aaa"/><stop offset="1" stop-color="#f0f0f0"/></linearGradient><g transform="translate(0 74)"><path d="m52.51367-66.019531a1.0001 1.0001 0 0 0 -.09961.0059 1.0001 1.0001 0 0 0 -.27344.07227c-.55347.07177-1.05585.292504-1.48828.644531-.002.0018-.0058.0021-.0078.0039a1.0001 1.0001 0 0 0 -.33984.240235l-35.019534 38.029296a1.0001 1.0001 0 0 0 -.11914.160157c-.739997.937723-.694581 2.18425-.142578 3.224609a1.0001 1.0001 0 0 0 .263671.681641l35.015611 38.021445c.56818.619675 1.37023.972824 2.21094.972656h25.48438c1.25722.001 2.29554-.763913 2.74804-1.794921.4525-1.031023.31243-2.314053-.53906-3.238282l-32.79492-35.621094a1.0001 1.0001 0 0 0 -.36719-.25c-.0197-.01511-.04064-.02653-.06054-.04102l33.22265-36.078125c.85221-.925008.99185-2.208557.53906-3.240234-.45279-1.031667-1.49238-1.793968-2.74804-1.792969h-25.47071a1.0001 1.0001 0 0 0 -.01172 0h-.0019z" opacity=".08"/><path d="m52.51367-65.019531c-.55822-.000025-1.09233.234052-1.4707.644531a1.0001 1.0001 0 0 0 -.0019 0l-35.019536 38.029297a1.0001 1.0001 0 0 0 0 .002c-.698447.760113-.696797 1.950907.0039 2.708984h-.002l35.015622 38.023438c.37861.412927.91445.648549 1.47461.648437h25.484384c.83264.000662 1.53876-.529065 1.83203-1.197265.29326-.668201.2048-1.545828-.35938-2.158203l-32.79492-35.621141a1.0001 1.0001 0 0 0 -.002 0c-.37177-.403143-.87672-.575269-1.39649-.59375l34.19336-37.130859c.56418-.612376.65264-1.491956.35938-2.160157-.29327-.6682-.99939-1.195974-1.83203-1.195312h-25.48243z" opacity=".1"/><path d="m52.51367-64.019641c-.27971-.000274-.54675.116601-.73633.322266l-35.019528 38.029296c-.352325.383432-.351475.973055.002 1.355469l35.015628 38.025391c.18969.206887.45759.324536.73828.324218h25.48438c.87176.000693 1.32701-1.036588.73633-1.677734l-32.79498-35.621094c-.34057-.369316-.90227-.428662-1.3125-.138672l-5.95117 4.208985 5.01563-5.097656c.008-.0083.0158-.01679.0234-.02539l35.01954-38.027344c.59068-.641146.13543-1.678427-.73633-1.677734z" opacity=".15"/><path d="m52.51289-63.019701-35.018694 38.02834 12.31248 13.297386-.000793.000792 22.706987 24.730183h25.4853l-32.79433-35.621396-15.10241 10.682319 12.8773-13.089284 35.01946-38.02834z" opacity=".3"/><path d="m52.51289-64.019596-35.018694 38.02834 12.31248 13.297386-.000793.000792 22.706987 24.730183h25.4853l-32.79433-35.621396-15.10241 10.682319 12.8773-13.089284 35.01946-38.02834z" fill="url(#a)"/><path d="m52.51367-64.01964-35.019529 38.027343.923828.998047 34.095701-37.02539h23.64258l1.8418-2zm-7.31055 40.435547-8.63281 6.107422-5.771482 5.865234.121094.130859 14.283198-10.103515 30.95313 33.621093h1.8418z" fill="#fff" opacity=".6"/></g></svg>