<svg height="96" width="96" xmlns="http://www.w3.org/2000/svg" xmlns:xlink="http://www.w3.org/1999/xlink"><linearGradient id="a" stop-color="#fff"><stop offset="0"/><stop offset="1" stop-opacity="0"/></linearGradient><linearGradient id="b" gradientTransform="matrix(1.0059 0 0 .99417 100 0)" gradientUnits="userSpaceOnUse" x1="45.448" x2="45.448" y1="92.54" y2="7.0165"><stop offset="0"/><stop offset="1" stop-opacity=".58824"/></linearGradient><linearGradient id="c" gradientTransform="matrix(1 0 0 -1 0 97)" gradientUnits="userSpaceOnUse" x1="32.251" x2="32.251" xlink:href="#b" y1="6.1317" y2="90.239"/><radialGradient id="d" cx="48" cy="90.172" gradientTransform="matrix(1.1573 0 0 .99591 -7.551 .19713)" gradientUnits="userSpaceOnUse" r="42" xlink:href="#a"/><linearGradient id="e" gradientUnits="userSpaceOnUse" x1="36.357" x2="36.357" xlink:href="#a" y1="6" y2="63.893"/><linearGradient id="f" gradientUnits="userSpaceOnUse" x1="31.9999525" x2="31.9999525" y1="77.9997326" y2="15.9916865"><stop offset="0" stop-color="#aaa"/><stop offset="1" stop-color="#f0f0f0"/></linearGradient><linearGradient id="g" gradientTransform="matrix(1.0238 0 0 -1.0119 -1.1429 98.071)" gradientUnits="userSpaceOnUse" x1="32.251" x2="32.251" xlink:href="#b" y1="6.1317" y2="90.239"/><g fill="url(#g)"><path d="m12 3.9688c-5.5111 0-10.031 4.5201-10.031 10.031v71c0 5.5111 4.5202 10.031 10.031 10.031h72c5.5111 0 10.031-4.5202 10.031-10.031v-71c0-5.5113-4.52-10.031-10.031-10.031h-72zm0 2.0312h72c3.324 0 6 2.676 6 6v72c0 3.324-2.676 6-6 6h-72c-3.324 0-6-2.676-6-6v-72c0-3.324 2.676-6 6-6z" opacity=".08"/><path d="m12 4.9688c-4.9716 0-9.0312 4.0596-9.0312 9.0312v71c0 4.9716 4.0596 9.0312 9.0312 9.0312h72c4.9716 0 9.0312-4.0596 9.0312-9.0312v-71c0-4.9716-4.059-9.0312-9.031-9.0312h-72zm0 1.0312h72c3.324 0 6 2.676 6 6v72c0 3.324-2.676 6-6 6h-72c-3.324 0-6-2.676-6-6v-72c0-3.324 2.676-6 6-6z" opacity=".1"/><path d="m11.188 6.0312c-4.028.4107-7.188 3.8352-7.188 7.9688v71c0 4.4091 3.5909 8 8 8h72c4.4091 0 8-3.5909 8-8v-71c0-4.1971-3.259-7.646-7.375-7.9688 3.033.3062 5.375 2.8526 5.375 5.9688v72c0 3.324-2.676 6-6 6h-72c-3.324 0-6-2.676-6-6v-72c0-3.1162 2.3421-5.6626 5.375-5.9688-.06227.00488-.12563-.00631-.1875 0z" opacity=".2"/><path d="m6.4375 9.75c-.8995 1.177-1.4375 2.647-1.4375 4.25v71c0 3.878 3.122 7 7 7h72c3.878 0 7-3.122 7-7v-71c0-1.603-.538-3.073-1.438-4.25.28.694.438 1.454.438 2.25v72c0 3.324-2.676 6-6 6h-72c-3.324 0-6-2.676-6-6v-72c0-.796.1582-1.556.4375-2.25z" opacity=".3"/></g><path d="m6 84v1c0 3.324 2.676 6 6 6h72c3.324 0 6-2.676 6-6v-1c0 3.324-2.676 6-6 6h-72c-3.324 0-6-2.676-6-6z" fill="url(#c)" opacity=".45"/><rect height="84" opacity=".6" rx="6" width="84" x="6" y="6"/><path d="m12 6c-3.324 0-6 2.676-6 6v72c0 .33472.04135.6507.09375.96875.0487.2956.09704.59692.1875.875.00988.03038.020892.0636.03125.09375.098865.28777.23488.54745.375.8125.14459.27351.31562.53562.5.78125.18438.24564.37378.47347.59375.6875.43995.42806.94291.81453 1.5 1.0938.27854.13961.57347.24695.875.34375-.2562-.10022-.48671-.23627-.71875-.375-.00741-.0044-.023866.0045-.03125 0-.0319-.019-.0622-.042-.0937-.062-.1204-.077-.231-.164-.3437-.25-.1062-.081-.2133-.161-.3126-.25-.1778-.162-.3473-.346-.4999-.531-.1075-.131-.2183-.266-.3124-.407-.0251-.038-.0385-.086-.0626-.125-.0647-.103-.1302-.204-.1874-.312-.1011-.195-.2057-.416-.2813-.625-.008-.022-.0236-.041-.0313-.063-.0318-.092-.0358-.187-.0624-.281-.0304-.107-.0704-.203-.0938-.313-.0729-.341-.125-.698-.125-1.062v-72c0-2.782 2.2182-5 5-5h72c2.7818 0 5 2.2182 5 5v72c0 .3643-.05212.72099-.125 1.0625-.04415.20689-.08838.39766-.15625.59375-.0077.02195-.0233.04069-.03125.0625-.06274.17374-.13838.36745-.21875.53125-.04158.0828-.07904.16995-.125.25-.0546.09721-.12677.18835-.1875.28125-.09411.14096-.20492.276-.3125.40625-.14317.17445-.30314.347-.46875.5-.01117.0102-.01998.02115-.03125.03125-.13839.12556-.28509.23444-.4375.34375-.10257.07315-.20432.15336-.3125.21875-.0074.0045-.02384-.0044-.03125 0-.23204.13873-.46255.27478-.71875.375.30153-.0968.59646-.20414.875-.34375.55709-.27922 1.0601-.66569 1.5-1.0938.21997-.21403.40937-.44186.59375-.6875s.35541-.50774.5-.78125c.14012-.26505.27614-.52473.375-.8125.01041-.03078.02133-.06274.03125-.09375.09046-.27808.1388-.5794.1875-.875.053-.318.094-.634.094-.969v-72c0-3.324-2.676-6-6-6h-72z" fill="url(#e)" opacity=".01"/><path d="m12 90c-3.324 0-6-2.676-6-6v-72c0-.33472.04135-.6507.09375-.96875.0487-.2956.09704-.59692.1875-.875.0099-.03.0209-.063.0313-.094.0989-.2873.2349-.547.375-.812.1446-.2735.3156-.5356.5-.7812.1844-.2457.3738-.4735.5937-.6876.44-.428.943-.8145 1.5-1.0937.2786-.1396.5735-.2469.8748-.3437-.256.1002-.4865.2362-.7185.375-.00741.0044-.023866-.0045-.03125 0-.031933.0193-.062293.04251-.09375.0625-.1204.0767-.23102.16351-.34375.25-.10617.0808-.21328.16111-.3125.25-.1779.1614-.3474.3453-.5.5312-.1075.1303-.2183.2653-.3124.4063-.0251.0383-.0385.0858-.0626.125-.0647.103-.1302.2045-.1874.3124-.1011.1948-.2057.4158-.2813.625-.008.0219-.0236.0406-.0313.0626-.0318.0919-.0358.1868-.0624.2812-.0304.1066-.0704.203-.0938.3125-.0729.3415-.125.6985-.125 1.0625v72c0 2.7818 2.2182 5 5 5h72c2.7818 0 5-2.2182 5-5v-72c0-.364-.052-.721-.125-1.0625-.044-.2069-.088-.3977-.156-.5937-.008-.022-.024-.0407-.031-.0626-.063-.1737-.139-.3674-.219-.5312-.042-.0828-.079-.17-.125-.25-.055-.0972-.127-.1884-.188-.2812-.094-.141-.205-.276-.312-.4063-.143-.1745-.303-.347-.469-.5-.011-.0102-.02-.0211-.031-.0313-.139-.1255-.285-.2344-.438-.3437-.102-.0731-.204-.1534-.312-.2187-.0074-.0045-.02384.0044-.03125 0-.23204-.13873-.46255-.27478-.71875-.375.30153.0968.59646.20414.875.34375.55709.27922 1.0601.66569 1.5 1.0938.21997.21403.40937.44186.59375.6875s.35541.50774.5.78125c.14012.26505.27614.52473.375.8125.01041.03078.02133.06274.03125.09375.09046.27808.1388.5794.1875.875.053.318.094.634.094.969v72c0 3.324-2.676 6-6 6h-72z" fill="url(#d)" opacity=".15"/><path d="m72.75 16c-3.0128.03323-4.5481 2.9174-6.6106 4.6731l-8.0457 8.0457c-2.7393.16744-6.06-.72536-8.0528 1.7388-2.597 2.6527-5.3533 5.203-7.8535 7.9175-1.6272 1.4139-.13265 4.2906-2.7598 3.7055-2.5521.80034-4.0132 3.2715-5.9724 4.9499-1.795 1.9961-4.1139 3.5996-5.439 5.9538-.71786 1.9861-.02579 4.2805-.46074 6.2414-3.7699 3.8331-7.6939 7.5679-11.368 11.462-1.8354 2.0999-1.3677 5.4377.84711 7.0659 1.9757 1.7646 3.7029 4.7063 6.778 4.168 3.0286-.59013 4.6374-3.4665 6.8395-5.3547l7.2542-7.2542c2.7389-.16784 6.0609.72627 8.052-1.7395 2.6059-2.6979 5.4296-5.2486 7.9038-8.0348 1.5039-1.6002.19742-4.0478 2.8157-3.6852 2.467-.72206 3.8502-3.1237 5.7279-4.7274 1.8343-2.0365 4.1717-3.6927 5.5642-6.068.74184-1.9953.0363-4.3083.47474-6.2831 3.7696-3.8229 7.6945-7.5465 11.368-11.431 1.8222-2.087 1.4056-5.4379-.81586-7.0659-1.914-1.661-3.396-4.336-6.247-4.279zm3.3125 1.3438c.03251.10364.05766-.04293 0 0zm-6.625.03125c.10364-.03251-.04293-.05766 0 0z" opacity=".08"/><path d="m72.75 17c-.91334 0-1.8579.3541-2.5625 1.0625-.0063.0063-.02498-.0064-.03125 0l-11.625 11.656h-4.7812c-.94098-.0076-1.879.34888-2.5938 1.0625l-8.0938 8.0625v.03125c-1.4281 1.419-1.4508 3.7631-.03125 5.1875-.65524-.6547-1.5603-1.1059-2.5938-1.0938.01775-.000209-.0167-.0011-.0625 0-.9819.01934-1.8522.4469-2.5 1.0938l-8.125 8.0938c-.71372.71482-1.07 1.653-1.0625 2.5938v4.7812l-11.625 11.625v.03125c-1.4229 1.4138-1.4229 3.7424 0 5.1562.0064.0063-.0064.02496 0 .03125l3.5938 3.5625c1.4138 1.4229 3.7424 1.4229 5.1562 0h.03125l11.625-11.625h4.7812c.94098.0076 1.879-.34888 2.5938-1.0625l8.0938-8.0938v-.027c1.4186-1.4096 1.4414-3.7413.03125-5.1562.70079.70022 1.6307 1.0749 2.5938 1.0625-.01193.000099.02373.000715.0625 0 .90777-.01676 1.8055-.36907 2.5-1.0625l8.125-8.125c.68601-.68708 1.0702-1.6031 1.0625-2.5625v-4.8125l11.625-11.594v-.03125c1.4324-1.4232 1.4324-3.7643 0-5.1875l-3.562-3.594c-.0064-.0066-.02477.0065-.03125 0-.732-.735-1.7-1.062-2.594-1.062z" opacity=".1"/><path d="m72.75 17.906c-.71037 0-1.4174.25-1.9375.78125l-11.937 11.938h-5.125c-.72857-.0059-1.4331.2464-1.9688.78125l-8.093 8.094c-1.1111 1.0878-1.1111 2.8497 0 3.9375l9.9062 9.9062c.51896.51854 1.236.79068 1.9688.78125.0099-.000082.02138.000182.03125 0 .70187-.01296 1.3909-.26668 1.9062-.78125l8.125-8.125c.51192-.51272.78706-1.2094.78125-1.9375v-5.1562l11.906-11.906c1.1111-1.0878 1.1111-2.8497 0-3.9375l-3.593-3.594c-.543-.555-1.259-.782-1.969-.782zm-32.344 25.969c-.746.015-1.414.321-1.906.813l-8.125 8.0938c-.53488.53571-.78707 1.2403-.78125 1.9688v5.125l-11.906 11.938c-1.0994 1.0764-1.0994 2.8299 0 3.9062l3.5938 3.5938c1.0764 1.0994 2.8299 1.0994 3.9062 0l11.938-11.906h5.125c.72857.0059 1.4331-.2464 1.9688-.78125l8.092-8.127c1.0994-1.0764 1.0994-2.8299 0-3.9062l-9.906-9.906c-.4968-.49638-1.1932-.82162-1.9688-.8125-.01054.000124-.02067-.000254-.03125 0z" opacity=".15"/><path d="m72.75 18.906c-.45848 0-.89696.17133-1.2188.5l-12.219 12.219h-5.5625c-.45801-.0037-.92588.17638-1.25.5l-8.0938 8.0938c-.65734.64358-.65734 1.8564 0 2.5l9.906 9.906c.33069.33042.78266.5112 1.25.5.44862-.0037.90127-.18301 1.2188-.5l8.125-8.125c.32362-.32412.50366-.76074.5-1.2188v-5.5938l12.188-12.187c.65734-.64358.65734-1.8564 0-2.5l-3.594-3.594c-.32179-.32867-.79152-.5-1.25-.5zm-32.312 25.969c-.44862.0037-.90127.21426-1.2188.53125l-8.125 8.094c-.32362.32412-.50366.79199-.5 1.25v5.5625l-12.188 12.219c-.65734.64358-.65734 1.8252 0 2.4688l3.594 3.593c.64358.65734 1.8252.65734 2.4688 0l12.219-12.188h5.5625c.45801.0037.92588-.17638 1.25-.5l8.0938-8.125c.65734-.64358.65734-1.8252 0-2.4688l-9.907-9.906c-.33069-.33042-.78266-.54246-1.25-.53125z" opacity=".3"/><path d="m72.75 17.906c-.45848 0-.89696.17133-1.2188.5l-12.219 12.219h-5.5625c-.45801-.0037-.92588.17638-1.25.5l-8.0938 8.0938c-.65734.64358-.65734 1.8564 0 2.5l9.906 9.906c.33069.33042.78266.5112 1.25.5.44862-.0037.90127-.18301 1.2188-.5l8.125-8.125c.32362-.32412.50366-.76074.5-1.2188v-5.5938l12.188-12.187c.65734-.64358.65734-1.8564 0-2.5l-3.594-3.594c-.32179-.32867-.79152-.5-1.25-.5zm-32.312 25.969c-.44862.0037-.90127.21426-1.2188.53125l-8.125 8.094c-.32362.32412-.50366.79199-.5 1.25v5.5625l-12.188 12.219c-.65734.64358-.65734 1.8252 0 2.4688l3.594 3.593c.64358.65734 1.8252.65734 2.4688 0l12.219-12.188h5.5625c.45801.0037.92588-.17638 1.25-.5l8.0938-8.125c.65734-.64358.65734-1.8252 0-2.4688l-9.907-9.906c-.33069-.33042-.78266-.54246-1.25-.53125z" fill="url(#f)"/><path d="m72.75 17.906c-.45848 0-.89696.17133-1.2188.5l-12.219 12.219h-5.5625c-.45801-.0037-.92588.17638-1.25.5l-8.0938 8.0938c-.44749.43813-.59929 1.1434-.4375 1.75.07587-.28444.22766-.54455.4375-.75l8.094-8.094c.32412-.32362.79199-.5037 1.25-.5h5.5625l12.219-12.219c.32179-.32867.76028-.5 1.2188-.5.45848 0 .92821.17133 1.25.5l3.593 3.594c.20984.20545.36163.46556.4375.75.16179-.60657.01-1.3119-.4375-1.75l-3.594-3.594c-.32179-.32867-.79152-.5-1.25-.5zm-32.312 25.969c-.44862.0037-.90127.21426-1.2188.53125l-8.125 8.094c-.32362.32412-.50366.79199-.5 1.25v1c-.0037-.45801.17638-.92588.5-1.25l8.125-8.0938c.31748-.31699.77012-.52755 1.2188-.53125.46734-.0112.91931.20084 1.25.53125l9.9062 9.9062c.20795.20359.32987.47279.40625.75.17727-.60536.05009-1.3032-.40625-1.75l-9.906-9.906c-.331-.33-.783-.542-1.25-.531zm-9.844 15.437-12.188 12.219c-.449.44-.571 1.12-.406 1.719.07808-.26663.20526-.52196.40625-.71875l12.188-12.219v-1z" fill="#fff" opacity=".75"/><path d="m78.031 22.75c-.07587.28444-.22766.54455-.4375.75l-12.188 12.188v1l12.188-12.188c.44749-.43813.59929-1.1434.4375-1.75zm-34.062 17.219c-.16179.60657-.01 1.3119.4375 1.75l9.906 9.906c.33069.33042.78266.5112 1.25.5.44862-.0037.90127-.18301 1.2188-.5l8.125-8.125c.32362-.32412.50366-.76074.5-1.2188v-1c.0037.45801-.17638.89463-.5 1.2188l-8.125 8.125c-.31748.31699-.77012.4963-1.2188.5-.46734.0112-.91931-.16958-1.25-.5l-9.9062-9.9062c-.20984-.20545-.36163-.46556-.4375-.75zm8.031 15.093c-.07808.26663-.20526.52196-.40625.71875l-8.094 8.125c-.32412.32362-.79199.5037-1.25.5h-5.5625l-12.219 12.188c-.64358.65734-1.8252.65734-2.4688 0l-3.593-3.594c-.208-.204-.33-.473-.406-.75-.177.605-.05 1.303.406 1.75l3.594 3.594c.64358.65734 1.8252.65734 2.4688 0l12.219-12.188h5.5625c.45801.0037.92588-.17638 1.25-.5l8.0938-8.125c.448-.44.57-1.119.405-1.719z" opacity=".14"/></svg>