<svg height="96" width="96" xmlns="http://www.w3.org/2000/svg" xmlns:xlink="http://www.w3.org/1999/xlink"><linearGradient id="a"><stop offset="0" stop-color="#ffdf39"/><stop offset="1" stop-color="#eb9c00" stop-opacity="0"/></linearGradient><linearGradient id="b"><stop offset="0"/><stop offset="1" stop-opacity="0"/></linearGradient><linearGradient id="c" stop-color="#fff" xlink:href="#b"/><clipPath id="d"><rect height="84" rx="6" width="84" x="6" y="6"/></clipPath><filter id="e" color-interpolation-filters="sRGB" height="1.384" width="1.384" x="-.192" y="-.192"><feGaussianBlur stdDeviation="5.28"/></filter><linearGradient id="f" gradientUnits="userSpaceOnUse" stop-color="#fff" x1="48" x2="48" xlink:href="#b" y1="20.221" y2="138.66"/><linearGradient id="g" gradientTransform="matrix(.5 0 0 1 46 0)" gradientUnits="userSpaceOnUse" x1="33" x2="33" xlink:href="#a" y1="68" y2="61"/><linearGradient id="h" gradientTransform="matrix(.5 0 0 1 42 0)" gradientUnits="userSpaceOnUse" x1="33" x2="33" xlink:href="#a" y1="68" y2="61"/><linearGradient id="i" gradientTransform="matrix(.5 0 0 1 38 0)" gradientUnits="userSpaceOnUse" x1="33" x2="33" xlink:href="#a" y1="68" y2="61"/><linearGradient id="j" gradientTransform="matrix(.5 0 0 1 34 0)" gradientUnits="userSpaceOnUse" x1="33" x2="33" xlink:href="#a" y1="68" y2="61"/><linearGradient id="k" gradientTransform="matrix(.5 0 0 1 30 0)" gradientUnits="userSpaceOnUse" x1="33" x2="33" xlink:href="#a" y1="68" y2="61"/><linearGradient id="l" gradientTransform="matrix(.5 0 0 1 26 0)" gradientUnits="userSpaceOnUse" x1="33" x2="33" xlink:href="#a" y1="68" y2="61"/><linearGradient id="m" gradientTransform="matrix(.5 0 0 1 22 0)" gradientUnits="userSpaceOnUse" x1="33" x2="33" xlink:href="#a" y1="68" y2="61"/><linearGradient id="n" gradientTransform="matrix(.5 0 0 1 18 0)" gradientUnits="userSpaceOnUse" x1="33" x2="33" xlink:href="#a" y1="68" y2="61"/><radialGradient id="o" cx="48" cy="70" gradientTransform="matrix(1.1875 0 0 .5625 -9 27)" gradientUnits="userSpaceOnUse" r="16" xlink:href="#c"/><linearGradient id="p" gradientUnits="userSpaceOnUse" x1="48" x2="48" xlink:href="#c" y1="72" y2="24"/><linearGradient id="q" gradientUnits="userSpaceOnUse" x1="48" x2="48" y1="24" y2="72"><stop offset="0"/><stop offset="1" stop-color="#393939"/></linearGradient><linearGradient id="r" gradientUnits="userSpaceOnUse" x1="53" x2="53" xlink:href="#c" y1="74" y2="32.988"/><linearGradient id="s" gradientTransform="matrix(0 -3.01 2.9786 0 45.299 122.58)" gradientUnits="userSpaceOnUse" x1="11" x2="18.939" y1="11" y2="11"><stop offset="0" stop-color="#c80000"/><stop offset="1" stop-color="#f3604d"/></linearGradient><rect fill="#fff" height="80" opacity=".2" rx="4" width="80" x="8" y="8"/><rect height="66" rx="12" style="opacity:.15;stroke:#fff;stroke-linecap:round;stroke-width:.5;clip-path:url(#d);filter:url(#e);fill:url(#f)" width="66" x="15" y="15"/><path d="m39.812 22.031a1.9844 1.9844 0 0 0 -1.781 1.969v2.0312h-2.0312a1.9844 1.9844 0 0 0 -1.969 1.969v2.0312h-7.0312c-2.7269 0-4.9688 2.2418-4.9688 4.9688v34c0 2.7269 2.2418 4.9688 4.9688 4.9688h42c2.7269 0 4.9688-2.2418 4.9688-4.9688v-34c0-2.7269-2.2418-4.9688-4.9688-4.9688h-7.0312v-2.0312a1.9844 1.9844 0 0 0 -1.969-1.969h-2.032v-2.031a1.9844 1.9844 0 0 0 -1.969-1.969h-16a1.9844 1.9844 0 0 0 -.1875 0z" fill="url(#r)" opacity=".4"/><path d="m40 24v4h-4v4h-9c-1.662 0-3 1.338-3 3v34c0 1.662 1.338 3 3 3h42c1.662 0 3-1.338 3-3v-34c0-1.662-1.338-3-3-3h-9v-4h-4v-4z" fill="url(#q)"/><path d="m40 22v2h16v-2zm-4 4v2h4v-2zm20 0v2h4v-2zm-29 4c-1.662 0-3 1.338-3 3v2c0-1.662 1.338-3 3-3h9v-2zm33 0v2h9c1.662 0 3 1.338 3 3v-2c0-1.662-1.338-3-3-3z" opacity=".15"/><path d="m40 24v4h-4v4h-9c-1.662 0-3 1.338-3 3v34c0 1.662 1.338 3 3 3h42c1.662 0 3-1.338 3-3v-34c0-1.662-1.338-3-3-3h-9v-4h-4v-4zm1.9688 1.9688h12.062v2.031a1.975 1.975 0 0 0 1.969 1.969h2.031v2.031a1.975 1.975 0 0 0 1.969 1.969h9c.60214 0 1.0312.42911 1.0312 1.0312v34c0 .60214-.42911 1.0312-1.0312 1.0312h-42c-.60214 0-1.0312-.42911-1.0312-1.0312v-34c0-.60214.42911-1.0312 1.0312-1.0312h9a1.975 1.975 0 0 0 1.969-1.969v-2.031h2.0312a1.975 1.975 0 0 0 1.969-1.969v-2.0312z" fill="url(#p)" opacity=".2"/><path d="m29 54h38v18h-38z" fill="url(#o)" opacity=".2"/><path d="m34 61h1v7h-1z" fill="url(#n)"/><path d="m40 23v1h16v-1zm-4 4v1h4v-1zm20 0v1h4v-1zm-29 4c-1.662 0-3 1.338-3 3v1c0-1.662 1.338-3 3-3h9v-1zm33 0v1h9c1.662 0 3 1.338 3 3v-1c0-1.662-1.338-3-3-3z" opacity=".3"/><path d="m38 61h1v7h-1z" fill="url(#m)"/><path d="m42 61h1v7h-1z" fill="url(#l)"/><path d="m46 61h1v7h-1z" fill="url(#k)"/><path d="m50 61h1v7h-1z" fill="url(#j)"/><path d="m54 61h1v7h-1z" fill="url(#i)"/><path d="m58 61h1v7h-1z" fill="url(#h)"/><path d="m62 61h1v7h-1z" fill="url(#g)"/><g fill-rule="evenodd"><path d="m70.762 65.538-6.0995 6.0995c-.7997.7997-.7997 1.9497 0 2.7494l4.5503 4.5503-4.5503 4.5503c-.7997.7997-.7997 1.9497 0 2.7494l6.1 6.1c.8.8 1.9506.8 2.7506 0l4.5497-4.5497 4.5497 4.5497c.8.8 1.9506.8 2.7506 0l6.1005-6.1005c.7998-.7998.7998-1.9486 0-2.7489l-4.5508-4.5503 4.5508-4.5513c.7998-.7998.7998-1.9486 0-2.7484l-6.1-6.1c-.79924-.7992-1.9524-.7992-2.7516 0l-4.5492 4.5492-4.5492-4.5492c-.79924-.7987-1.9524-.7987-2.7516.0005z" opacity=".1"/><path d="m72.138 65.576-6.775 6.775c-.4.4-.4.9232 0 1.3232l5.2634 5.2634-5.2634 5.2634c-.4.4-.4.9232 0 1.3232l6.1134 6.1134c.4.4.92326.4 1.3233 0l5.2634-5.2634 5.2634 5.2634c.39999.4.92323.4 1.3232 0l6.1134-6.1134c.4-.4.4-.9232 0-1.3232l-5.2634-5.2634 5.2634-5.2634c.4-.4.4-.9237 0-1.3237l-6.7747-6.7747-5.9258 5.9247z" opacity=".15"/><path d="m66.115 84.863 6.0224 6.0224 5.925-5.9249 5.925 5.9249 6.0224-6.0224-5.925-5.925 5.9253-5.9253-6.0224-6.0223-5.9253 5.9252-5.925-5.925-6.0224 6.0224 5.9251 5.925z" opacity=".3"/><path d="m66.115 83.448 6.0224 6.0224 5.925-5.9249 5.925 5.9249 6.0224-6.0224-5.925-5.925 5.9252-5.9253-6.0224-6.0223-5.9258 5.9247-5.9245-5.9245-6.0224 6.0224 5.925 5.925z" fill="url(#s)"/><path d="m72.138 65.576-6.0153 6.0295.98289.98288 5.0325-5.0325 5.9245 5.9245 5.9258-5.9247 5.0324 5.0324.98995-.98995-6.0224-6.0223-5.9258 5.9247zm-.09736 11.947-5.925 5.925.98995.98995 4.9351-4.9351zm12.045 0v1.9799l4.9351 4.9351.98995-.98995z" fill="#fff" opacity=".2"/></g></svg>