<svg height="96" width="96" xmlns="http://www.w3.org/2000/svg" xmlns:xlink="http://www.w3.org/1999/xlink"><linearGradient id="a" gradientTransform="matrix(0 -3.01 2.9786 0 45.299 122.58)" gradientUnits="userSpaceOnUse" x1="11" x2="18.939" y1="11" y2="11"><stop offset="0" stop-color="#c80000"/><stop offset="1" stop-color="#f3604d"/></linearGradient><g fill="#fff"><rect height="80" opacity=".2" rx="4" width="16" x="70" y="8"/><rect height="64" opacity=".2" rx="4" width="16" x="50" y="24"/><rect height="48" opacity=".2" rx="4" width="16" x="30" y="40"/><rect height="32" opacity=".2" rx="4" width="16" x="10" y="56"/></g><g fill-rule="evenodd"><path d="m70.762 65.538-6.0995 6.0995c-.7997.7997-.7997 1.9497 0 2.7494l4.5503 4.5503-4.5503 4.5503c-.7997.7997-.7997 1.9497 0 2.7494l6.1 6.1c.8.8 1.9506.8 2.7506 0l4.5497-4.5497 4.5497 4.5497c.8.8 1.9506.8 2.7506 0l6.1005-6.1005c.7998-.7998.7998-1.9486 0-2.7489l-4.5508-4.5503 4.5508-4.5513c.7998-.7998.7998-1.9486 0-2.7484l-6.1-6.1c-.79924-.7992-1.9524-.7992-2.7516 0l-4.5492 4.5492-4.5492-4.5492c-.79924-.7987-1.9524-.7987-2.7516.0005z" opacity=".1"/><path d="m72.138 65.576-6.775 6.775c-.4.4-.4.9232 0 1.3232l5.2634 5.2634-5.2634 5.2634c-.4.4-.4.9232 0 1.3232l6.1134 6.1134c.4.4.92326.4 1.3233 0l5.2634-5.2634 5.2634 5.2634c.39999.4.92323.4 1.3232 0l6.1134-6.1134c.4-.4.4-.9232 0-1.3232l-5.2634-5.2634 5.2634-5.2634c.4-.4.4-.9237 0-1.3237l-6.7747-6.7747-5.9258 5.9247z" opacity=".15"/><path d="m66.115 84.863 6.0224 6.0224 5.925-5.9249 5.925 5.9249 6.0224-6.0224-5.925-5.925 5.9253-5.9253-6.0224-6.0223-5.9253 5.9252-5.925-5.925-6.0224 6.0224 5.9251 5.925z" opacity=".3"/><path d="m66.115 83.448 6.0224 6.0224 5.925-5.9249 5.925 5.9249 6.0224-6.0224-5.925-5.925 5.9252-5.9253-6.0224-6.0223-5.9258 5.9247-5.9245-5.9245-6.0224 6.0224 5.925 5.925z" fill="url(#a)"/><path d="m72.138 65.576-6.0153 6.0295.98289.98288 5.0325-5.0325 5.9245 5.9245 5.9258-5.9247 5.0324 5.0324.98995-.98995-6.0224-6.0223-5.9258 5.9247zm-.09736 11.947-5.925 5.925.98995.98995 4.9351-4.9351zm12.045 0v1.9799l4.9351 4.9351.98995-.98995z" fill="#fff" opacity=".2"/></g></svg>