<svg height="96" width="96" xmlns="http://www.w3.org/2000/svg" xmlns:xlink="http://www.w3.org/1999/xlink"><linearGradient id="a" stop-color="#fff"><stop offset="0"/><stop offset="1" stop-opacity="0"/></linearGradient><linearGradient id="b"><stop offset="0" stop-color="#aaa"/><stop offset="1" stop-color="#f0f0f0"/></linearGradient><linearGradient id="c" gradientUnits="userSpaceOnUse" x1="19" x2="19" xlink:href="#a" y1="56" y2="88.14"/><linearGradient id="d" gradientUnits="userSpaceOnUse" x1="37" x2="37" xlink:href="#a" y1="40" y2="88.01"/><linearGradient id="e" gradientUnits="userSpaceOnUse" x1="57" x2="57" xlink:href="#a" y1="24" y2="88.008"/><linearGradient id="f" gradientUnits="userSpaceOnUse" x1="16" x2="16" xlink:href="#b" y1="88" y2="56"/><linearGradient id="g" gradientUnits="userSpaceOnUse" x1="44" x2="44" xlink:href="#b" y1="88" y2="40"/><linearGradient id="h" gradientUnits="userSpaceOnUse" x1="56" x2="56" xlink:href="#b" y1="88" y2="24"/><path d="m54 21.938c-3.882 0-7.0625 3.1805-7.0625 7.0625v10.969c-1.278-1.253-3.022-2.031-4.938-2.031h-8c-3.882 0-7.0625 3.1805-7.0625 7.0625v10.97c-1.278-1.253-3.022-2.031-4.938-2.031h-8c-3.882 0-7.0625 3.1805-7.0625 7.0625v24c0 3.882 3.1805 7.0625 7.0625 7.0625h8c2.588 0 4.7688-1.4686 6-3.5625 1.2312 2.0939 3.412 3.5625 6 3.5625h8c2.588 0 4.7688-1.4686 6-3.5625 1.2312 2.0939 3.412 3.5625 6 3.5625h8c3.882 0 7.0625-3.1805 7.0625-7.0625v-56c0-3.882-3.1805-7.0625-7.0625-7.0625h-8z" opacity=".08"/><path d="m54 23.031c-3.2831 0-5.9688 2.6857-5.9688 5.9688v56c0 3.2831 2.6857 5.9688 5.9688 5.9688h8c3.2831 0 5.9688-2.6857 5.9688-5.9688v-56c0-3.283-2.686-5.969-5.969-5.969h-8zm-20 16c-3.2831 0-5.9688 2.6857-5.9688 5.9688v40c0 3.2831 2.6857 5.9688 5.9688 5.9688h8c3.2831 0 5.9688-2.6857 5.9688-5.9688v-40c0-3.283-2.686-5.969-5.969-5.969h-8zm-20 16c-3.2831 0-5.9688 2.6857-5.9688 5.9688v24c0 3.2831 2.6857 5.9688 5.9688 5.9688h8c3.2831 0 5.9688-2.6857 5.9688-5.9688v-24c0-3.283-2.686-5.969-5.969-5.969h-8z" opacity=".1"/><path d="m54 23.969c-2.7634 0-5.0312 2.2679-5.0312 5.0312v56c0 2.7634 2.2679 5.0312 5.0312 5.0312h8c2.7634 0 5.0312-2.2679 5.0312-5.0312v-56c0-2.763-2.268-5.031-5.031-5.031h-8zm-20 16c-2.7634 0-5.0312 2.2679-5.0312 5.0312v40c0 2.7634 2.2679 5.0312 5.0312 5.0312h8c2.7634 0 5.0312-2.2679 5.0312-5.0312v-40c0-2.763-2.268-5.031-5.031-5.031h-8zm-20 16c-2.7634 0-5.0312 2.2679-5.0312 5.0312v24c0 2.7634 2.2679 5.0312 5.0312 5.0312h8c2.7634 0 5.0312-2.2679 5.0312-5.0312v-24c0-2.763-2.268-5.031-5.031-5.031h-8z" opacity=".15"/><path d="m54 25c-2.216 0-4 1.784-4 4v56c0 2.216 1.784 4 4 4h8c2.216 0 4-1.784 4-4v-56c0-2.216-1.784-4-4-4zm-20 16c-2.216 0-4 1.784-4 4v40c0 2.216 1.784 4 4 4h8c2.216 0 4-1.784 4-4v-40c0-2.216-1.784-4-4-4zm-20 16c-2.216 0-4 1.784-4 4v24c0 2.216 1.784 4 4 4h8c2.216 0 4-1.784 4-4v-24c0-2.216-1.784-4-4-4z" opacity=".3"/><rect fill="#fff" height="80" opacity=".2" rx="4" width="16" x="70" y="8"/><rect fill="url(#h)" height="64" rx="4" width="16" x="50" y="24"/><rect fill="url(#g)" height="48" rx="4" width="16" x="30" y="40"/><rect fill="url(#f)" height="32" rx="4" width="16" x="10" y="56"/><path d="m54 24c-2.216 0-4 1.784-4 4v56c0 1.7989 1.1844 3.275 2.8125 3.7812-1.091-.454-1.843-1.508-1.843-2.781v-56c0-1.6976 1.3337-3.0312 3.0312-3.0312h8c1.6976 0 3.0312 1.3337 3.0312 3.0312v56c0 1.2732-.75249 2.3266-1.8438 2.7812 1.629-.506 2.813-1.982 2.813-3.781v-56c0-2.216-1.784-4-4-4h-8z" fill="url(#e)" opacity=".6"/><path d="m34 40c-2.216 0-4 1.784-4 4v40c0 1.7989 1.1844 3.275 2.8125 3.7812-1.091-.454-1.843-1.508-1.843-2.781v-40c0-1.6976 1.3337-3.0312 3.0312-3.0312h8c1.6976 0 3.0312 1.3337 3.0312 3.0312v40c0 1.2732-.75249 2.3266-1.8438 2.7812 1.629-.506 2.813-1.982 2.813-3.781v-40c0-2.216-1.784-4-4-4h-8z" fill="url(#d)" opacity=".6"/><path d="m14 56c-2.216 0-4 1.784-4 4v24c0 1.7989 1.1844 3.275 2.8125 3.7812-1.091-.454-1.843-1.508-1.843-2.781v-24c0-1.6976 1.3337-3.0312 3.0312-3.0312h8c1.6976 0 3.0312 1.3337 3.0312 3.0312v24c0 1.2732-.75249 2.3266-1.8438 2.7812 1.629-.506 2.813-1.982 2.813-3.781v-24c0-2.216-1.784-4-4-4h-8z" fill="url(#c)" opacity=".6"/></svg>