<svg height="96" width="96" xmlns="http://www.w3.org/2000/svg" xmlns:xlink="http://www.w3.org/1999/xlink"><linearGradient id="a" stop-color="#fff"><stop offset="0"/><stop offset="1" stop-opacity="0"/></linearGradient><filter id="b" color-interpolation-filters="sRGB" height="1.384" width="1.384" x="-.192" y="-.192"><feGaussianBlur stdDeviation="5.28"/></filter><linearGradient id="c" gradientUnits="userSpaceOnUse" x1="48" x2="48" xlink:href="#a" y1="20.221" y2="138.66"/><clipPath id="d"><rect height="84" rx="6" width="84" x="6" y="6"/></clipPath><linearGradient id="e" gradientTransform="matrix(1.0059 0 0 .99417 100 0)" gradientUnits="userSpaceOnUse" x1="45.448" x2="45.448" y1="92.54" y2="7.0165"><stop offset="0"/><stop offset="1" stop-opacity=".58824"/></linearGradient><linearGradient id="f" gradientUnits="userSpaceOnUse" x1="32" x2="64" y1="24" y2="64"><stop offset="0" stop-color="#fdffb0"/><stop offset="1" stop-color="#fff" stop-opacity="0"/></linearGradient><linearGradient id="g" gradientUnits="userSpaceOnUse" x1="59.323" x2="45.899" y1="92.401" y2="40.661"><stop offset="0" stop-color="#eef87e"/><stop offset=".26238" stop-color="#cde34f"/><stop offset=".66094" stop-color="#93b723"/><stop offset="1" stop-color="#5a7e0d"/></linearGradient><radialGradient id="h" cx="48" cy="90.172" gradientTransform="matrix(1.1573 0 0 .99591 -7.551 .19713)" gradientUnits="userSpaceOnUse" r="42" xlink:href="#a"/><linearGradient id="i" gradientUnits="userSpaceOnUse" x1="36.357" x2="36.357" xlink:href="#a" y1="6" y2="63.893"/><linearGradient id="j" gradientUnits="userSpaceOnUse" x1="48" x2="48" y1="90" y2="5.9877"><stop offset="0" stop-color="#9bbd29"/><stop offset="1" stop-color="#d5e85a"/></linearGradient><linearGradient id="k" gradientTransform="translate(0 1)" gradientUnits="userSpaceOnUse" x1="32.251" x2="32.251" xlink:href="#e" y1="90" y2="6"/><linearGradient id="l" gradientTransform="matrix(1.0238 0 0 1.0119 -1.1429 .929)" gradientUnits="userSpaceOnUse" x1="32.251" x2="32.251" xlink:href="#e" y1="90" y2="5.9996"/><linearGradient id="m" gradientTransform="matrix(1.0238 0 0 -1.0119 -1.1429 98.071)" gradientUnits="userSpaceOnUse" x1="32.251" x2="32.251" xlink:href="#e" y1="6.1317" y2="90.239"/><linearGradient id="n" gradientUnits="userSpaceOnUse" x1="80" x2="48" xlink:href="#a" y1="80" y2="48"/><linearGradient id="o" gradientUnits="userSpaceOnUse" x1="16" x2="48" xlink:href="#a" y1="16" y2="48"/><g fill="url(#m)"><path d="m12 95.031c-5.5111 0-10.031-4.52-10.031-10.031v-71c0-5.5111 4.5202-10.031 10.031-10.031h72c5.5111 0 10.031 4.5202 10.031 10.031v71c0 5.5111-4.5202 10.031-10.031 10.031z" opacity=".08"/><path d="m12 94.031c-4.9716 0-9.0312-4.0596-9.0312-9.0312v-71c0-4.9718 4.0596-9.0314 9.0312-9.0314h72c4.9716 0 9.0312 4.0596 9.0312 9.0312v71c0 4.9716-4.0596 9.0312-9.0312 9.0312h-72z" opacity=".1"/><path d="m12 93c-4.4091 0-8-3.591-8-8v-71c0-4.4091 3.5909-8 8-8h72c4.4091 0 8 3.5909 8 8v71c0 4.4091-3.5909 8-8 8z" opacity=".2"/></g><rect fill="url(#l)" height="85" opacity=".3" rx="7" width="86" x="5" y="7"/><rect fill="url(#k)" height="84" opacity=".45" rx="6" width="84" x="6" y="7"/><rect fill="url(#j)" height="84" rx="6" width="84" x="6" y="6"/><path d="m12 6c-3.324 0-6 2.676-6 6v72c0 .33472.04135.6507.09375.96875.0487.2956.09704.59692.1875.875.00988.03038.020892.0636.03125.09375.098865.28777.23488.54745.375.8125.14459.27351.31562.53562.5.78125.18438.24564.37378.47347.59375.6875.43995.42806.94291.81453 1.5 1.0938.27854.13961.57347.24695.875.34375-.2562-.10022-.48671-.23627-.71875-.375-.00741-.0044-.023866.0045-.03125 0-.0319-.019-.0622-.042-.0937-.062-.1204-.077-.231-.164-.3437-.25-.1062-.081-.2133-.161-.3126-.25-.1778-.162-.3473-.346-.4999-.531-.1075-.131-.2183-.266-.3124-.407-.0251-.038-.0385-.086-.0626-.125-.0647-.103-.1302-.204-.1874-.312-.1011-.195-.2057-.416-.2813-.625-.008-.022-.0236-.041-.0313-.063-.0318-.092-.0358-.187-.0624-.281-.0304-.107-.0704-.203-.0938-.313-.0729-.341-.125-.698-.125-1.062v-72c0-2.782 2.2182-5 5-5h72c2.7818 0 5 2.2182 5 5v72c0 .3643-.05212.72099-.125 1.0625-.04415.20689-.08838.39766-.15625.59375-.0077.02195-.0233.04069-.03125.0625-.06274.17374-.13838.36745-.21875.53125-.04158.0828-.07904.16995-.125.25-.0546.09721-.12677.18835-.1875.28125-.09411.14096-.20492.276-.3125.40625-.14317.17445-.30314.347-.46875.5-.01117.0102-.01998.02115-.03125.03125-.13839.12556-.28509.23444-.4375.34375-.10257.07315-.20432.15336-.3125.21875-.0074.0045-.02384-.0044-.03125 0-.23204.13873-.46255.27478-.71875.375.30153-.0968.59646-.20414.875-.34375.55709-.27922 1.0601-.66569 1.5-1.0938.21997-.21403.40937-.44186.59375-.6875s.35541-.50774.5-.78125c.14012-.26505.27614-.52473.375-.8125.01041-.03078.02133-.06274.03125-.09375.09046-.27808.1388-.5794.1875-.875.053-.318.094-.634.094-.969v-72c0-3.324-2.676-6-6-6h-72z" fill="url(#i)" opacity=".5"/><path d="m12 90c-3.324 0-6-2.676-6-6v-72c0-.33472.04135-.6507.09375-.96875.0487-.2956.09704-.59692.1875-.875.0099-.03.0209-.063.0313-.094.0989-.2873.2349-.547.375-.812.1446-.2735.3156-.5356.5-.7812.1844-.2457.3738-.4735.5937-.6876.44-.428.943-.8145 1.5-1.0937.2786-.1396.5735-.2469.8748-.3437-.256.1002-.4865.2362-.7185.375-.00741.0044-.023866-.0045-.03125 0-.031933.0193-.062293.04251-.09375.0625-.1204.0767-.23102.16351-.34375.25-.10617.0808-.21328.16111-.3125.25-.1779.1614-.3474.3453-.5.5312-.1075.1303-.2183.2653-.3124.4063-.0251.0383-.0385.0858-.0626.125-.0647.103-.1302.2045-.1874.3124-.1011.1948-.2057.4158-.2813.625-.008.0219-.0236.0406-.0313.0626-.0318.0919-.0358.1868-.0624.2812-.0304.1066-.0704.203-.0938.3125-.0729.3415-.125.6985-.125 1.0625v72c0 2.7818 2.2182 5 5 5h72c2.7818 0 5-2.2182 5-5v-72c0-.364-.052-.721-.125-1.0625-.044-.2069-.088-.3977-.156-.5937-.008-.022-.024-.0407-.031-.0626-.063-.1737-.139-.3674-.219-.5312-.042-.0828-.079-.17-.125-.25-.055-.0972-.127-.1884-.188-.2812-.094-.141-.205-.276-.312-.4063-.143-.1745-.303-.347-.469-.5-.011-.0102-.02-.0211-.031-.0313-.139-.1255-.285-.2344-.438-.3437-.102-.0731-.204-.1534-.312-.2187-.0074-.0045-.02384.0044-.03125 0-.23204-.13873-.46255-.27478-.71875-.375.30153.0968.59646.20414.875.34375.55709.27922 1.0601.66569 1.5 1.0938.21997.21403.40937.44186.59375.6875s.35541.50774.5.78125c.14012.26505.27614.52473.375.8125.01041.03078.02133.06274.03125.09375.09046.27808.1388.5794.1875.875.053.318.094.634.094.969v72c0 3.324-2.676 6-6 6h-72z" fill="url(#h)" opacity=".2"/><rect height="66" rx="12" style="opacity:.1;stroke:#fff;stroke-linecap:round;stroke-width:.5;clip-path:url(#d);filter:url(#b);fill:url(#c)" width="66" x="15" y="15"/><path d="m33.406 13.031c-11.201 0-20.375 9.174-20.375 20.375 0 3.0781.81359 5.943 2.0312 8.5312-.36216 1.9699-.625 3.9843-.625 6.0625 0 18.491 15.072 33.562 33.562 33.562 2.0782 0 4.0926-.26284 6.0625-.625 2.5932 1.2252 5.4487 2.0312 8.5312 2.0312 11.201 0 20.375-9.174 20.375-20.375 0-3.0826-.80604-5.9381-2.0312-8.5312.36216-1.9699.625-3.9843.625-6.0625 0-18.491-15.072-33.562-33.562-33.562-2.1185 0-4.1356.32069-6.0625.6875-2.5622-1.2185-5.4179-2.0938-8.5312-2.0938z" fill="#5a691d" opacity=".1"/><path d="m33.406 14.031c-10.663 0-19.375 8.7122-19.375 19.375 0 3.0389.77865 5.8806 2.0312 8.4375-.38296 2.0108-.625 4.0575-.625 6.1562 0 17.955 14.607 32.562 32.562 32.562 2.0988 0 4.1455-.24204 6.1562-.625 2.5621 1.261 5.3918 2.0312 8.4375 2.0312 10.663 0 19.375-8.7122 19.375-19.375 0-3.0457-.77022-5.8754-2.0312-8.4375.384-2.01.626-4.056.626-6.155 0-17.955-14.607-32.562-32.562-32.562-2.1229 0-4.1814.30251-6.1562.6875-2.5383-1.2527-5.3733-2.0938-8.4375-2.0938z" fill="#5a691d" opacity=".15"/><path d="m33.406 16c-9.6 0-17.406 7.806-17.406 17.406 0 2.9652.72093 5.7437 2.0312 8.1875-.43745 2.0593-.625 4.2172-.625 6.4062 0 16.896 13.698 30.594 30.594 30.594 2.189 0 4.347-.18755 6.4062-.625 2.452 1.322 5.208 2.031 8.188 2.031 9.6 0 17.406-7.806 17.406-17.406 0-2.98-.709-5.736-2.031-8.188.437-2.059.625-4.217.625-6.406 0-16.896-13.698-30.594-30.594-30.594-2.1896 0-4.3465.24984-6.4062.6875-2.444-1.311-5.222-2.094-8.188-2.094z" fill="url(#g)"/><path d="m33.406 16c-9.6 0-17.406 7.806-17.406 17.406 0 2.9652.72093 5.7437 2.0312 8.1875-.43745 2.0593-.625 4.2172-.625 6.4062 0 4.3817.93294 8.5426 2.5938 12.312 16.555-13.711 43.222-18.149 57.75-19.593-3.269-13.387-15.361-23.313-29.75-23.313-2.1896 0-4.3465.24984-6.4062.6875-2.444-1.311-5.222-2.094-8.188-2.094z" fill="url(#f)" opacity=".6"/><path d="m33.406 15.062c-10.104 0-18.344 8.2401-18.344 18.344 0 2.9972.74773 5.8076 2.0312 8.3125-.40864 2.0419-.625 4.1454-.625 6.2812 0 17.398 14.133 31.531 31.531 31.531 2.1358 0 4.2393-.21636 6.2812-.625 2.511 1.2931 5.3055 2.0312 8.3125 2.0312 10.104 0 18.344-8.2401 18.344-18.344 0-3.007-.73818-5.8015-2.0312-8.3125.40864-2.0419.625-4.1454.625-6.2812 0-17.398-14.133-31.531-31.531-31.531-2.1532 0-4.2541.27619-6.2812.6875-2.495-1.283-5.303-2.0938-8.3125-2.0938zm0 .9375c-.6 0-1.1967.03423-1.7812.09375-.49975.05089-.98231.12635-1.4688.21875.48778-.0922.96772-.16804 1.4688-.21875.585-.059 1.181-.094 1.781-.094zm3.4062.34375c.64612.13139 1.2859.29786 1.9062.5-.61832-.20328-1.2599-.36655-1.9062-.5zm-7.1562.0625c-.47838.10565-.94344.23078-1.4062.375.45955-.14201.93146-.27078 1.4062-.375zm-1.625.4375c-.47068.15341-.95405.33971-1.4062.53125.46235-.19546.92461-.37551 1.4062-.53125zm18.344.594c-.54231.03026-1.0898.09767-1.625.15625.54057-.0614 1.0801-.125 1.625-.15625zm-12.969.5c2.6228 0 5.094.70209 7.2812 1.875a1.9466 1.9466 0 0 0 1.313.187c1.9368-.41154 3.9585-.65625 6-.65625 15.844 0 28.656 12.812 28.656 28.656 0 2.0779-.19023 4.1005-.59375 6a1.9466 1.9466 0 0 0 .1875 1.3438c1.171 2.1718 1.8125 4.5795 1.8125 7.25 0 8.5448-6.9239 15.469-15.469 15.469-2.6705 0-5.0782-.64156-7.25-1.8125a1.9466 1.9466 0 0 0 -1.344-.188c-1.8995.40352-3.9221.59375-6 .59375-15.844 0-28.656-12.812-28.656-28.656 0-2.0779.19023-4.1005.59375-6a1.9466 1.9466 0 0 0 -.188-1.312c-1.1605-2.1643-1.8125-4.6316-1.8125-7.2812 0-8.5448 6.9239-15.469 15.469-15.469zm-8.281.156c-.49323.26823-.97443.56193-1.4375.875-.40779.2757-.80524.56667-1.1875.875.38072-.30562.78143-.60172 1.1875-.875.46302-.3116.94431-.60813 1.4375-.875zm34.781 1.7188c.91539.38739 1.8201.80986 2.6875 1.2812-.86698-.47098-1.7725-.89421-2.6875-1.2812zm-37.562.155c-.42998.35498-.85605.73106-1.25 1.125-.29.29-.575.596-.844.906.27183-.31322.55037-.61332.84375-.90625.39793-.3973.8151-.7676 1.25-1.125zm43.969 3.5c.78574.58774 1.5251 1.2161 2.25 1.875-.72441-.65841-1.4647-1.2877-2.25-1.875zm4.3438 3.9688c.65888.72488 1.2873 1.4643 1.875 2.25-.58729-.78529-1.2166-1.5256-1.875-2.25zm-53.875.8125c-.16675.53514-.32249 1.0692-.4375 1.625.11385-.55592.27193-1.0897.4375-1.625zm58.125 5.1562c.47139.86739.89386 1.7721 1.2812 2.6875-.38704-.91504-.81027-1.8205-1.2812-2.6875zm-55.094 26.5c.38704.91504.81027 1.8205 1.2812 2.6875-.47139-.86739-.89386-1.7721-1.2812-2.6875zm60.093 4.469c-.0595.58452-.1339 1.1526-.25 1.7188.1161-.5661.19048-1.1342.25-1.7188zm-.25 1.75c-.11501.55577-.27075 1.0899-.4375 1.625.16675-.53514.32249-1.0692.4375-1.625zm-56.188.1875c.58729.78529 1.2166 1.5256 1.875 2.25-.65888-.72488-1.2873-1.4643-1.875-2.25zm3.9688 4.3438c.72441.65841 1.4647 1.2877 2.25 1.875-.78574-.58774-1.5251-1.2161-2.25-1.875zm5.9688 4.25c.86698.47098 1.7725.89421 2.6875 1.2812-.91539-.38739-1.8201-.80986-2.6875-1.2812z" fill="#6d9114"/><path d="m33.406 16c-9.601 0-17.406 7.805-17.406 17.406 0 2.8437.68416 5.5212 1.9062 7.9062.09573.18024.12928.39278.09375.59375-.39701 1.9838-.59375 4.0203-.59375 6.0938 0 8.4253 3.4288 16.03 8.9375 21.562-4.938-5.432-7.938-12.641-7.938-20.562 0-.16581-.0025-.33467 0-.5-.0027-.16603 0-.33332 0-.5 0-1.9241.19127-3.7969.53125-5.5938.000176-.01042.000176-.02083 0-.03125-.009-.021-.02-.042-.031-.063-1.222-2.385-1.906-5.062-1.906-7.906 0-.12654.02855-.2491.03125-.375-.008-.21-.031-.412-.031-.625 0-9.043 7.363-16.406 16.406-16.406.21131 0 .41564.02261.625.03125.126-.002.249-.031.375-.031 2.8437 0 5.4898.7422 7.875 1.9688.02043.0112.04128.02163.0625.03125.01042.000176.02083.000176.03125 0 1.6431-.32128 3.3369-.52498 5.0625-.5625.18618-.004.37574-.03125.5625-.03125.16668 0 .33397-.0027.5 0 .16537-.0032.33412 0 .5 0 7.921 0 15.13 2.9997 20.562 7.9375-5.532-5.509-13.137-8.938-21.562-8.938-2.0743 0-4.1094.25364-6.0938.65625-.2107.04282-.43613.009-.625-.09375-2.385-1.226-5.031-1.968-7.875-1.968z" fill="url(#o)" opacity=".6"/><path d="m62.594 80c9.601 0 17.406-7.805 17.406-17.406 0-2.844-.684-5.521-1.906-7.906-.096-.181-.13-.393-.094-.594.397-1.984.594-4.021.594-6.094 0-8.4253-3.4288-16.03-8.9375-21.562 4.9378 5.4329 7.9375 12.641 7.9375 20.562 0 .16581.0025.33467 0 .5.0027.16603 0 .33332 0 .5 0 1.9241-.19127 3.7969-.53125 5.5938-.000176.01042-.000176.02083 0 .03125.0096.02122.02005.04207.03125.0625 1.222 2.385 1.906 5.062 1.906 7.906 0 .12654-.02855.2491-.03125.375.008.21.031.412.031.625 0 9.043-7.363 16.406-16.406 16.406-.212 0-.416-.023-.625-.031-.126.002-.249.031-.375.031-2.844 0-5.49-.742-7.875-1.969-.021-.011-.042-.021-.063-.031-.01042-.000176-.02083-.000176-.03125 0-1.6431.32128-3.3369.52498-5.0625.5625-.18618.004-.37574.03125-.5625.03125-.16668 0-.33397.0027-.5 0-.16537.0032-.33412 0-.5 0-7.921 0-15.13-2.9997-20.562-7.9375 5.5324 5.5087 13.137 8.9375 21.562 8.9375 2.0743 0 4.1094-.25364 6.0938-.65625.2107-.04282.43613-.009.625.09375 2.385 1.227 5.031 1.969 7.875 1.969z" fill="url(#n)" opacity=".6"/><path d="m33.406 16.938c-8.5448 0-15.469 6.9239-15.469 15.469 0 .21747.02255.44131.03125.65625.18354-8.3853 7.0081-15.125 15.438-15.125 2.6228 0 5.094.70209 7.2812 1.875a1.9466 1.9466 0 0 0 1.313.187c1.9368-.41154 3.9585-.65625 6-.65625 15.676 0 28.388 12.546 28.656 28.156.0024-.16542 0-.33384 0-.5 0-15.844-12.812-28.656-28.656-28.656-2.0415 0-4.0632.24471-6 .65625a1.9466 1.9466 0 0 1 -1.3125-.1875c-2.1872-1.1729-4.6584-1.875-7.2812-1.875zm-18.312 16.125c-.0022.11551-.03125.22774-.03125.34375 0 2.8901.70577 5.5949 1.9062 8.0312.04255-.24084.07713-.47955.125-.71875-1.1899-2.3222-1.8999-4.9036-2-7.6562zm4.8125 8.0312c-.38975 1.8718-.5625 3.8632-.5625 5.9062 0 .16848-.0029.33222 0 .5.02813-1.9032.2225-3.7524.59375-5.5a1.9466 1.9466 0 0 0 -.031-.906zm-3.437 6.406c-.0026.16704 0 .33255 0 .5 0 17.398 14.133 31.531 31.531 31.531 2.1358 0 4.2393-.21636 6.2812-.625 2.511 1.2931 5.3055 2.0312 8.3125 2.0312 10.104 0 18.344-8.2401 18.344-18.344 0-.21938-.02346-.43916-.03125-.65625-.18622 9.9445-8.3249 18-18.312 18-3.007 0-5.8015-.7382-8.3125-2.0312-2.0419.40864-4.1454.625-6.2812.625-17.231 0-31.263-13.864-31.531-31.031zm63.062 0c-.03113 1.9635-.2484 3.8994-.625 5.7812.0462.08972.08022.19081.125.28125.32071-1.8151.5-3.6769.5-5.5625 0-.16723.0026-.33338 0-.5zm-3.4375 6.4062c-.007.032-.025.062-.032.094a1.9466 1.9466 0 0 0 .1875 1.3438c1.0748 1.9936 1.6853 4.1818 1.7812 6.5938.0025-.1148.03125-.22834.03125-.34375 0-2.6705-.64155-5.0782-1.8125-7.25a1.9466 1.9466 0 0 1 -.15625-.4375z" fill="#688c13"/><g fill="#6e8511"><path d="m39.969 30.156c-3.008.07922-4.8728 3.034-5.4688 5.6875-.8885 3.8554-.28564 8.5651 2.9686 11.158 2.0792 1.5973 5.315.71551 6.5467-1.5286 2.6067-3.9191 2.5167-9.5486-.26639-13.322-.90138-1.1589-2.2737-2.0322-3.7801-1.9954zm16 0c-3.008.07922-4.8728 3.034-5.4688 5.6875-.8885 3.8554-.28564 8.5651 2.9686 11.158 2.0792 1.5973 5.315.71551 6.5467-1.5286 2.6067-3.9191 2.5167-9.5486-.26639-13.322-.90138-1.1589-2.2737-2.0322-3.7801-1.9954zm-24.5 15.906c-1.8432.62419-1.4731 2.925-1.3469 4.4392 1.1154 9.4749 10.983 16.696 20.347 15.169 7.7817-1.1114 14.703-7.7202 15.408-15.67.18924-1.512.14203-4.052-1.9968-3.9328-1.6941.09266-1.6413 1.94-2.1291 3.1198-1.6803 3.4676-5.6677 4.9269-9.2302 5.5561-5.3031.873-11.126.4534-15.742-2.5136-1.571-1.112-2.919-2.806-3.029-4.792-.242-.995-1.312-1.545-2.281-1.376z" opacity=".1"/><path d="m40 30.812c-2.7099.07059-4.2781 2.8408-4.8348 5.1867-.7878 3.4854-.35412 7.6791 2.3726 10.233 1.6036 1.5357 4.3159 1.0886 5.5788-.65551 2.4881-3.2217 2.6379-7.8859 1.0293-11.529-.758-1.631-2.209-3.243-4.146-3.235zm16 0c-2.7099.07059-4.2781 2.8408-4.8348 5.1867-.7878 3.4854-.35412 7.6791 2.3726 10.233 1.6036 1.5357 4.3159 1.0886 5.5788-.65551 2.4881-3.2217 2.6379-7.8859 1.0293-11.529-.758-1.631-2.209-3.243-4.146-3.235zm-24.344 15.907c-1.1482.30805-.96458 1.7341-.96313 2.6549.34783 7.5088 6.5796 13.922 13.784 15.445 6.5614 1.4859 13.662-1.5028 17.593-6.8709 2.195-2.9498 3.5957-6.7304 3.0547-10.417-.23834-.81406-1.5205-1.1079-2.0312-.34375-.4968.58476-.29438 1.5955-.73258 2.2922-1.5365 3.3674-5.2926 4.9455-8.6902 5.7327-5.3228 1.0779-11.147.83483-16.046-1.6812-2.2722-1.1772-4.3128-3.284-4.5312-5.9375-.16169-.61565-.80758-.97343-1.4375-.875z" opacity=".3"/><path d="m40 31.469c-1.3587 0-2.499.9435-3.2812 2.3125-.78229 1.369-1.25 3.2028-1.25 5.2188s.46771 3.8497 1.25 5.2188c.78229 1.369 1.9225 2.3125 3.2812 2.3125s2.499-.9435 3.2812-2.3125c.78229-1.369 1.25-3.2028 1.25-5.2188s-.46771-3.8497-1.25-5.2188c-.782-1.369-1.922-2.312-3.281-2.312zm16 0c-1.3587 0-2.499.9435-3.2812 2.3125-.78229 1.369-1.25 3.2028-1.25 5.2188s.46771 3.8497 1.25 5.2188c.78229 1.369 1.9225 2.3125 3.2812 2.3125s2.499-.9435 3.2812-2.3125c.78229-1.369 1.25-3.2028 1.25-5.2188s-.46771-3.8497-1.25-5.2188c-.782-1.369-1.922-2.312-3.281-2.312zm-24.188 15.906a.53755.53755 0 0 0 -.40625.46875c-.03809.37109-.0625.76432-.0625 1.1562 0 7.5397 7.4279 15.531 16.625 15.531s16.625-7.9916 16.625-15.531c0-.39194-.02442-.78518-.0625-1.1562a.53755.53755 0 0 0 -1.0625 0c-.31321 2.6232-2.079 4.7399-4.8438 6.25s-6.512 2.375-10.656 2.375c-4.1442 0-7.8915-.86488-10.656-2.375-2.7648-1.5101-4.5305-3.6268-4.8438-6.25a.53755.53755 0 0 0 -.656-.469z" opacity=".6"/></g><path d="m40 32c-2.2091 0-4 3.134-4 7s1.7909 7 4 7 4-3.134 4-7-1.7909-7-4-7zm16 0c-2.2091 0-4 3.134-4 7s1.7909 7 4 7 4-3.134 4-7-1.7909-7-4-7zm-24.062 15.906c-.037.359-.063.727-.063 1.094 0 7.1797 7.2122 15 16.094 15 8.881 0 16.093-7.82 16.093-15 0-.367-.025-.735-.062-1.094-.675 5.651-7.596 9.094-16.031 9.094s-15.357-3.443-16.031-9.094z" fill="#fff"/></svg>