<svg height="96" width="96" xmlns="http://www.w3.org/2000/svg" xmlns:xlink="http://www.w3.org/1999/xlink"><linearGradient id="a"><stop offset="0" stop-color="#fefefd"/><stop offset="1" stop-color="#fefefd" stop-opacity="0"/></linearGradient><linearGradient id="b" stop-color="#fefefd" xlink:href="#a"/><linearGradient id="c" stop-color="#ffda56"><stop offset="0" stop-color="#ffda54"/><stop offset=".64062" stop-color="#ffda54"/><stop offset="1" stop-color="#ffda54" stop-opacity="0"/></linearGradient><linearGradient id="d" gradientTransform="matrix(1.0059 0 0 .99417 100 0)" gradientUnits="userSpaceOnUse" x1="45.448" x2="45.448" y1="92.54" y2="7.0165"><stop offset="0"/><stop offset="1" stop-opacity=".58824"/></linearGradient><clipPath id="e"><path d="m96 32a32 32 0 1 1 -64 0 32 32 0 1 1 64 0z" transform="matrix(.84375 0 0 .84375 -6 14)"/></clipPath><filter id="f" color-interpolation-filters="sRGB" height="1.2401" width="1.235" x="-.11752" y="-.12003"><feGaussianBlur stdDeviation=".56854841"/></filter><filter id="g" color-interpolation-filters="sRGB" height="1.257" width="1.2709" x="-.13547" y="-.12851"><feGaussianBlur stdDeviation=".56854841"/></filter><filter id="h" color-interpolation-filters="sRGB"><feGaussianBlur stdDeviation=".56854841"/></filter><filter id="i" color-interpolation-filters="sRGB" height="1.2323" width="1.1375" x="-.068762" y="-.11615"><feGaussianBlur stdDeviation=".56854841"/></filter><filter id="j" color-interpolation-filters="sRGB" height="1.2004" width="1.1461" x="-.073075" y="-.10019"><feGaussianBlur stdDeviation=".56854841"/></filter><filter id="k" color-interpolation-filters="sRGB" height="1.4207" width="1.2069" x="-.10344" y="-.21037"><feGaussianBlur stdDeviation=".5685484"/></filter><filter id="l" color-interpolation-filters="sRGB" height="1.2205" width="1.1421" x="-.071041" y="-.11024"><feGaussianBlur stdDeviation=".5685484"/></filter><filter id="m" color-interpolation-filters="sRGB"><feGaussianBlur stdDeviation=".5685484"/></filter><filter id="n" color-interpolation-filters="sRGB" height="1.241" width="1.1401" x="-.070045" y="-.12051"><feGaussianBlur stdDeviation=".56854841"/></filter><clipPath id="o"><rect height="84" rx="6" width="84" x="6" y="6"/></clipPath><radialGradient id="p" cx="57.034" cy="44.185" gradientTransform="matrix(1 0 0 1.069 0 -3.0472)" gradientUnits="userSpaceOnUse" r="10.81"><stop offset="0" stop-color="#f60"/><stop offset="1" stop-color="#f60" stop-opacity="0"/></radialGradient><linearGradient id="q" gradientUnits="userSpaceOnUse" stop-color="#fefefd" x1="64.996" x2="64.996" xlink:href="#a" y1="-.90906" y2="55.536"/><linearGradient id="r" gradientUnits="userSpaceOnUse" stop-color="#ccc" x1="49.033" x2="49.033" y1="80.189" y2="64.151"><stop offset="0" stop-color="#cccccb"/><stop offset="1" stop-color="#cccccb" stop-opacity="0"/></linearGradient><clipPath id="s"><rect height="84" rx="6" width="84" x="6" y="6"/></clipPath><radialGradient id="t" cx="48" cy="90.172" gradientTransform="matrix(1.1573 0 0 .99591 -7.551 .19713)" gradientUnits="userSpaceOnUse" r="42" xlink:href="#b"/><linearGradient id="u" gradientUnits="userSpaceOnUse" x1="36.357" x2="36.357" y1="6" y2="63.893"><stop offset="0" stop-color="#fefefd"/><stop offset="1" stop-opacity="0"/></linearGradient><linearGradient id="v" gradientUnits="userSpaceOnUse" x1="48" x2="48" y1="90" y2="5.9877"><stop offset="0" stop-color="#b7c6d4"/><stop offset="1" stop-color="#68b0f4"/></linearGradient><linearGradient id="w" gradientTransform="translate(0 1)" gradientUnits="userSpaceOnUse" x1="32.251" x2="32.251" xlink:href="#d" y1="90" y2="6"/><linearGradient id="x" gradientTransform="matrix(1.0238 0 0 1.0119 -1.1429 .929)" gradientUnits="userSpaceOnUse" x1="32.251" x2="32.251" xlink:href="#d" y1="90" y2="5.9996"/><linearGradient id="y" gradientTransform="matrix(1.0238 0 0 -1.0119 -1.1429 98.071)" gradientUnits="userSpaceOnUse" x1="32.251" x2="32.251" xlink:href="#d" y1="6.1317" y2="90.239"/><linearGradient id="z" gradientUnits="userSpaceOnUse" x1="87.77" x2="87.77" xlink:href="#b" y1="74.496" y2="87.666"/><linearGradient id="A" gradientUnits="userSpaceOnUse" stop-color="#fefefd" x1="16.918" x2="16.918" xlink:href="#a" y1="42.139" y2="55.55"/><linearGradient id="B" gradientTransform="matrix(-.96032 .27889 .27889 .96032 101.44 41.295)" gradientUnits="userSpaceOnUse" x1="39.819" x2="43.837" xlink:href="#b" y1="13.056" y2="26.892"/><linearGradient id="C" gradientUnits="userSpaceOnUse" x1="70.1061" x2="70.1061" xlink:href="#b" y1="57.735" y2="87.19"/><linearGradient id="D" gradientUnits="userSpaceOnUse" x1="30.244" x2="30.244" xlink:href="#b" y1="71.179" y2="90.319"/><linearGradient id="E" gradientUnits="userSpaceOnUse" x1="22.838" x2="22.838" xlink:href="#b" y1="50.924" y2="83.995"/><linearGradient id="F" gradientUnits="userSpaceOnUse" x1="56.77" x2="56.77" xlink:href="#b" y1="46.496" y2="59.666"/><linearGradient id="G" gradientTransform="matrix(-1 0 0 1 110.25 -12)" gradientUnits="userSpaceOnUse" x1="29.3" x2="29.3" xlink:href="#b" y1="52.948" y2="73.401"/><radialGradient id="H" cx="37.999875" cy="53.000125" gradientUnits="userSpaceOnUse" r="27"><stop offset="0" stop-color="#fff894"/><stop offset=".8" stop-color="#ffc822"/><stop offset="1" stop-color="#ffb400"/></radialGradient><radialGradient id="I" cx="47.9968" cy="42.9984" gradientUnits="userSpaceOnUse" r="32.9984"><stop offset="0" stop-color="#ffdc4d"/><stop offset=".77642" stop-color="#ffe041"/><stop offset="1" stop-color="#fffda4" stop-opacity="0"/></radialGradient><radialGradient id="J" cx="48" cy="44" gradientUnits="userSpaceOnUse" r="40" xlink:href="#c"/><radialGradient id="K" cx="65.325" cy="31.114" gradientTransform="matrix(1 0 0 1.0084 -18 12.737)" gradientUnits="userSpaceOnUse" r="52.047" xlink:href="#c"/><g fill="url(#y)"><path d="m12 95.031c-5.5111 0-10.031-4.52-10.031-10.031v-71c0-5.5111 4.5202-10.031 10.031-10.031h72c5.5111 0 10.031 4.5202 10.031 10.031v71c0 5.5111-4.5202 10.031-10.031 10.031z" opacity=".08"/><path d="m12 94.031c-4.9716 0-9.0312-4.0596-9.0312-9.0312v-71c0-4.9718 4.0596-9.0314 9.0312-9.0314h72c4.9716 0 9.0312 4.0596 9.0312 9.0312v71c0 4.9716-4.0596 9.0312-9.0312 9.0312h-72z" opacity=".1"/><path d="m12 93c-4.4091 0-8-3.591-8-8v-71c0-4.4091 3.5909-8 8-8h72c4.4091 0 8 3.5909 8 8v71c0 4.4091-3.5909 8-8 8z" opacity=".2"/></g><rect fill="url(#x)" height="85" opacity=".3" rx="7" width="86" x="5" y="7"/><rect fill="url(#w)" height="84" opacity=".45" rx="6" width="84" x="6" y="7"/><rect fill="url(#v)" height="84" rx="6" width="84" x="6" y="6"/><g clip-path="url(#o)"><path d="m72.833-1.4758-14.337 31.045 27.385-20.478-23.228 25.094 32.373-11.013-29.846 16.689 34.192-.471-33.543 6.649 32.664 10.119-33.956-4.042 27.939 19.717-31.045-14.337 20.478 27.385-25.094-23.228 8.258 26.272-13.934-23.745-.513 32.42-5.665-31.771-8.741 28.334 2.664-29.626-15.978 20.264 10.598-23.37-31.518 25.201 27.361-29.817-32.373 11.013 29.846-16.689-24.942-.71 24.293-5.468-30.893-9.528 32.185 3.451-20.46-14.01 23.566 8.63-20.478-27.385 25.094 23.228-11.013-32.373 16.689 29.846-.471-34.192 6.649 33.543 10.119-32.664-4.042 33.956 19.717-27.939z" fill="url(#K)" opacity=".3"/><path d="m82.641 64-14.654-6.005 10.655 11.717-13.389-8.459 8.459 13.389-11.717-10.655 6.005 14.654-9.688-12.527 3.369 15.474-7.366-14.019.631 15.823-4.819-15.085-2.127 15.693-2.127-15.693-4.819 15.085.631-15.823-7.366 14.019 3.369-15.474-9.688 12.527 6.005-14.654-11.717 10.655 8.459-13.389-13.389 8.459 10.655-11.717-14.654 6.005 12.527-9.688-15.474 3.369 14.019-7.366-15.823.631 15.085-4.819-15.693-2.127 15.693-2.127-15.085-4.819 15.823.631-14.019-7.366 15.474 3.369-12.527-9.688 14.654 6.005-10.655-11.716 13.389 8.458-8.459-13.389 11.717 10.655-6.005-14.654 9.688 12.527-3.369-15.474 7.366 14.019-.631-15.823 4.819 15.085 2.127-15.693 2.127 15.693 4.819-15.085-.631 15.823 7.366-14.019-3.369 15.474 9.688-12.527-6.005 14.654 11.717-10.655-8.459 13.389 13.389-8.4585-10.655 11.716 14.654-6.004-12.527 9.688 15.476-3.369-14.021 7.366 15.821-.631-15.083 4.819 15.693 2.127-15.693 2.127 15.083 4.819-15.821-.631 14.021 7.366-15.476-3.369z" fill="url(#J)" opacity=".8"/><path d="m80.995 42.998a32.998 32.998 0 0 1 -65.997 0 32.998 32.998 0 1 1 65.997 0z" fill="url(#I)"/><path d="m75 43a27 27 0 0 1 -54 0 27 27 0 1 1 54 0z" fill="url(#H)"/><path d="m48 16c-14.912 0-27 12.088-27 27s12.088 27 27 27 27-12.088 27-27-12.088-27-27-27zm0 1c14.359 0 26 11.641 26 26s-11.641 26-26 26-26-11.641-26-26 11.641-26 26-26z" fill="#ffc000"/><g clip-path="url(#e)" fill="url(#p)" transform="translate(0 2)"><path d="m67.844 44.185a10.81 11.557 0 1 1 -21.621 0 10.81 11.557 0 1 1 21.621 0z" opacity=".3" transform="matrix(1.3218 0 0 1.3218 -14.876 -17.94)"/><path d="m67.844 44.185a10.81 11.557 0 1 1 -21.621 0 10.81 11.557 0 1 1 21.621 0z" opacity=".3" transform="matrix(1.0423 0 0 1.0423 -26.557 -5.5868)"/><path d="m67.844 44.185a10.81 11.557 0 1 1 -21.621 0 10.81 11.557 0 1 1 21.621 0z" opacity=".3" transform="matrix(1.4509 0 0 1.4509 -43.952 -36.067)"/><path d="m67.844 44.185a10.81 11.557 0 1 1 -21.621 0 10.81 11.557 0 1 1 21.621 0z" opacity=".3" transform="matrix(1.9221 0 0 1.6982 -48.091 -49.355)"/></g><path d="m96 32a32 32 0 1 1 -64 0 32 32 0 1 1 64 0z" fill="url(#q)" opacity=".5" transform="matrix(.58747 0 0 .37002 10.402 18.734)"/><g fill="#f60"><path d="m24.81 39.351c-.48644 1.5237.0317 3.8322 1.8734 3.5386 1.0774 2.3671-3.4187 3.0283-2.4565 5.5284.39069 1.4186 2.4627 1.2096 1.5423-.44499-.27464-2.1005 2.9952-2.623 2.9997-.28195.91369 1.6127 3.71 2.7178 4.9141.84697.85384-1.4404-3.4044-3.4838-.65032-4.1775 2.548.77036 3.5376-2.508 1.7883-4.0171-1.2512-1.4606-2.7918.09474-3.1004 1.3859-2.1249 1.4956-4.4407-.98157-4.1928-3.0686-.75242-.95344-2.4912-.48632-2.7178.69026z" filter="url(#f)" opacity=".07"/><path d="m41.211 51.528c-1.1403-1.5758-2.3142-4.7414.0246-5.7916 2.3942-.6691 3.112 2.3026 4.93 2.9444 2.0672.09268 2.8987 1.7057 2.57 3.5446.31242 1.4266 2.5284 3.158.0925 3.9475-1.6775.43783-3.8348-.88801-3.6021-2.7638.04456-2.1216-2.2411-2.2051-3.5854-1.5065l-.24715-.1438-.18246-.23077z" filter="url(#g)" opacity=".07"/><path d="m31.271 47.552c2.0676-.4704 1.5928-3.4727 3.4445-4.142 2.7459.54445 1.7901 4.1632 1.6408 6.1658 1.332 1.9684 5.7867.4749 5.5454 3.7003-.42877 2.6355 1.508 4.7387 1.826 7.1091-.60003 2.6435-4.9458 2.9579-5.5196.11003-1.1428-2.1695 3.3334-3.8415.38219-5.4696-1.8897-.83289-4.5492-2.1149-6.029.08389-1.4733 1.9468-4.4451-.12929-4.1283-2.1789.29698-2.1872 5.1204-.81226 3.9456-3.5521-.34871-.56815-1.7974-.9851-1.1075-1.8267z" filter="url(#h)" opacity=".07"/><path d="m34.005 59.481c-1.9162-.98572-2.8005-4.9222.05414-5.1531 2.1846-.07762 2.9497 2.5892 2.6322 4.3595-.25837 2.6803 3.6841 2.9829 5.1689 1.363 2.2486-.1592 4.1713 3.201 6.3801 1.1664 1.0062-.75363 2.7794-3.5887 3.8333-1.924-.65567 1.6798-3.7719 2.2218-2.832 4.5608-.29362 2.2843-3.3065 2.6919-5.0093 1.7422-1.5317-1.0042-3.3235-4.116-5.2419-1.9056-1.7956 1.4246-4.8942-.2323-4.5964-2.5351-.10832-.56242-.20247-1.1307-.38897-1.6741z" filter="url(#i)" opacity=".07"/><path d="m57.862 41.588c1.6916-.3866 3.76-1.1037 5.2527.17694 1.6227 1.2104.94717 3.4383 1.4656 5.1202 1.0754 1.5788 2.8681 2.6301 3.3903 4.5725.5495 1.2124 1.0054 3.0547-.32076 3.9365-1.6793.73423-4.2024.78641-5.2021-1.0391-1.2955-1.3245-1.3877-3.3926-2.4846-4.7369-1.8798-.59972-3.9437-.11482-5.8556-.7948-1.655-.18308-3.1725-1.7224-2.7222-3.4462.57506-2.2933 3.031-3.7321 5.3115-3.6481.3905-.02534.78214-.05803 1.1653-.14112z" filter="url(#h)" opacity=".07"/><path d="m34.875 37.544c1.6916-.3866 3.76-1.1037 5.2527.17694 1.6227 1.2104.94717 3.4383 1.4656 5.1202 1.0754 1.5788 2.8681 2.6301 3.3903 4.5725.5495 1.2124 1.0054 3.0547-.32076 3.9365-1.6793.73423-4.2024.78641-5.2021-1.0391-1.2955-1.3245-1.3877-3.3926-2.4846-4.7369-1.8798-.59972-3.9437-.11482-5.8556-.7948-1.655-.18307-3.1725-1.7224-2.7222-3.4462.57506-2.2933 3.031-3.7321 5.3115-3.6481.3905-.02534.78214-.05803 1.1653-.14112z" filter="url(#h)" opacity=".07"/><path d="m55.418 42.073c-1.9162-.98572-2.8005-4.9222.05414-5.1531 2.1846-.07762 2.9497 2.5892 2.6322 4.3595-.25837 2.6803 3.6841 2.9829 5.1689 1.363 2.2486-.1592 4.1713 3.201 6.3801 1.1664 1.0062-.75363 2.7794-3.5887 3.8333-1.924-.65567 1.6798-3.7719 2.2218-2.832 4.5608-.29362 2.2843-3.3065 2.6919-5.0093 1.7422-1.5317-1.0042-3.3235-4.116-5.2419-1.9056-1.7956 1.4246-4.8942-.2323-4.5964-2.5351-.10832-.56242-.20247-1.1307-.38897-1.6741z" filter="url(#h)" opacity=".07" transform="matrix(-.43764 .89915 -.89915 -.43764 125.1 15.56)"/><path d="m63.496 27.343c1.6916-.3866 3.76-1.1037 5.2527.17694 1.6227 1.2104.94717 3.4383 1.4656 5.1202 1.0754 1.5788 2.8681 2.6301 3.3903 4.5725.5495 1.2124 1.0054 3.0547-.32076 3.9365-1.6793.73423-4.2024.78641-5.2021-1.0391-1.2955-1.3245-1.3877-3.3926-2.4846-4.7369-1.8798-.59972-3.9437-.11482-5.8556-.7948-1.655-.18307-3.1725-1.7224-2.7222-3.4462.57506-2.2933 3.031-3.7321 5.3115-3.6481.3905-.02534.78214-.05803 1.1653-.14112z" filter="url(#j)" opacity=".07" transform="matrix(-.97171 .23619 -.23619 -.97171 124.6 78.075)"/><path d="m46.679 46.806c2.0676-.4704 1.5928-3.4727 3.4445-4.142 2.7459.54445 1.7901 4.1632 1.6408 6.1658 1.332 1.9684 5.7867.4749 5.5454 3.7003-.42877 2.6355 1.508 4.7387 1.826 7.1091-.60003 2.6435-4.9458 2.9579-5.5196.11003-1.1428-2.1695 3.3334-3.8415.38219-5.4696-1.8897-.83289-4.5492-2.1149-6.029.08389-1.4733 1.9468-4.4451-.12929-4.1283-2.1789.29698-2.1872 5.1204-.81226 3.9456-3.5521-.34871-.56815-1.7974-.9851-1.1075-1.8267z" filter="url(#h)" opacity=".07"/><path d="m35.911 43.497c1.6916-.3866 3.76-1.1037 5.2527.17694 1.6227 1.2104.94717 3.4383 1.4656 5.1202 1.0754 1.5788 2.8681 2.6301 3.3903 4.5725.5495 1.2124 1.0054 3.0547-.32076 3.9365-1.6793.73423-4.2024.78641-5.2021-1.0391-1.2955-1.3245-1.3877-3.3926-2.4846-4.7369-1.8798-.59972-3.9437-.11482-5.8556-.7948-1.655-.18307-3.1725-1.7224-2.7222-3.4462.57506-2.2933 3.031-3.7321 5.3115-3.6481.3905-.02534.78214-.05803 1.1653-.14112z" filter="url(#h)" opacity=".07" transform="matrix(-.97412 -.22601 .22601 -.97412 56.552 110)"/><path d="m57.655 36.606c-1.1403-1.5758-2.3142-4.7414.0246-5.7916 2.3942-.6691 3.112 2.3026 4.93 2.9444 2.0672.09268 2.8987 1.7057 2.57 3.5446.31242 1.4266 2.5284 3.158.0925 3.9475-1.6775.43783-3.8348-.88801-3.6021-2.7638.04456-2.1216-2.2411-2.2051-3.5854-1.5065l-.24715-.1438-.18246-.23077z" filter="url(#k)" opacity=".07" transform="matrix(-.67461 .73817 -.73817 -.67461 106.62 34.56)"/><path d="m47.714 32.629c2.0676-.4704 1.5928-3.4727 3.4445-4.142 2.7459.54445 1.7901 4.1632 1.6408 6.1658 1.332 1.9684 5.7867.4749 5.5454 3.7003-.42877 2.6355 1.508 4.7387 1.826 7.1091-.60003 2.6435-4.9458 2.9579-5.5196.11003-1.1428-2.1695 3.3334-3.8415.38219-5.4696-1.8897-.83289-4.5492-2.1149-6.029.08389-1.4733 1.9468-4.4451-.12929-4.1283-2.1789.29698-2.1872 5.1204-.81226 3.9456-3.5521-.349-.567-1.798-.984-1.108-1.826z" filter="url(#l)" opacity=".07" transform="matrix(-.67461 .73817 -.73817 -.67461 106.62 34.56)"/><path d="m50.448 44.558c-1.9162-.98572-2.8005-4.9222.05414-5.1531 2.1846-.07762 2.9497 2.5892 2.6322 4.3595-.25837 2.6803 3.6841 2.9829 5.1689 1.363 2.2486-.1592 4.1713 3.201 6.3801 1.1664 1.0062-.75363 2.7794-3.5887 3.8333-1.924-.65567 1.6798-3.7719 2.2218-2.832 4.5608-.29362 2.2843-3.3065 2.6919-5.0093 1.7422-1.5317-1.0042-3.3235-4.116-5.2419-1.9056-1.7956 1.4246-4.8942-.2323-4.5964-2.5351-.10832-.56242-.20247-1.1307-.38897-1.6741z" filter="url(#m)" opacity=".07" transform="matrix(-.67461 .73817 -.73817 -.67461 106.62 34.56)"/><path d="m35.911 43.497c1.6916-.3866 3.76-1.1037 5.2527.17694 1.6227 1.2104.94717 3.4383 1.4656 5.1202 1.0754 1.5788 2.8681 2.6301 3.3903 4.5725.5495 1.2124 1.0054 3.0547-.32076 3.9365-1.6793.73423-4.2024.78641-5.2021-1.0391-1.2955-1.3245-1.3877-3.3926-2.4846-4.7369-1.8798-.59972-3.9437-.11482-5.8556-.7948-1.655-.18307-3.1725-1.7224-2.7222-3.4462.57506-2.2933 3.031-3.7321 5.3115-3.6481.3905-.02534.78214-.05803 1.1653-.14112z" filter="url(#n)" opacity=".07" transform="matrix(.82399 -.5666 .5666 .82399 -12.806 24.303)"/></g></g><g clip-path="url(#s)"><path d="m6 63.969v20.031c0 3.324 2.676 6 6 6h72c3.324 0 6-2.676 6-6v-20.031z" fill="url(#r)"/><path d="m82.812 35.156c2.1969 0 4 1.7719 4 3.9688 0 .74779-.2349 1.4337-.59375 2.0312.39647.46247.79097.9255 1.125 1.4375.68153-.13582 1.4015-.1875 2.125-.1875 2.3423 0 4.486.73926 6.2188 2 1.1746-2.4369 3.5287-4.0938 6.25-4.0938 3.8928 0 7.0625 3.3927 7.0625 7.5938 0 1.9117-.67101 3.6637-1.75 5 1.4288 1.6503 2.3125 3.7998 2.3125 6.125 0 5.2417-4.3854 9.4688-9.7812 9.4688-1.8794 0-3.6351-.51283-5.125-1.4062-1.1591 1.3147-2.6697 2.3513-4.375 2.9062-2.5789 2.6941-6.226 4.375-10.25 4.375-4.2967 0-8.152-1.917-10.75-4.9375-1.905-.36612-3.6277-1.2715-5.0312-2.5-.15556.01128-.31031.03125-.46875.03125-2.1099 0-3.9859-1.0224-5.1562-2.5938-.34661.04367-.70314.09375-1.0625.09375-4.3553 0-7.875-3.3208-7.875-7.4062 0-4.0855 3.5197-7.4062 7.875-7.4062.08406 0 .16657.0288.25.03125.13822-2.2711 2.0844-4.0625 4.5-4.0625.05453 0 .10219.02943.15625.03125 1.8914-5.4662 7.0468-9.375 13.156-9.375 1.3663 0 2.6895.19651 3.9375.5625.71942-1.026 1.9018-1.6875 3.25-1.6875z" fill="url(#G)" opacity=".8"/><path d="m54.094 46.5c-1.259 0-2.334.69184-2.9062 1.7188-1.9182.13278-3.6115 1.0249-4.7812 2.4062-.53405-.72001-1.3784-1.1875-2.3438-1.1875-1.6188 0-2.9375 1.3187-2.9375 2.9375 0 .44432.10432.84141.28125 1.2188-1.5885.35705-2.7812 1.7412-2.7812 3.4375 0 1.9656 1.5656 3.5625 3.5312 3.5625 1.5444 0 2.8512-.99995 3.3438-2.375 1.141 2.241 3.467 3.781 6.155 3.781 1.0952 0 2.1424-.26513 3.0625-.71875.57196.52723 1.3483.84375 2.1875.84375 1.6569 0 2.9848-1.2636 3.1562-2.875.30913.04735.61513.09375.9375.09375 1.5171 0 2.9214-.56524 4-1.4688.71605.81008 1.7713 1.3125 2.9375 1.3125 2.1584 0 3.9062-1.7479 3.9062-3.9062 0-2.1584-1.7479-3.9062-3.9062-3.9062-.31601 0-.64322.0542-.9375.125-.71569-2.64-3.1335-4.5938-6-4.5938-1.5007 0-2.8639.55146-3.9375 1.4375-.552-1.092-1.661-1.844-2.968-1.844z" fill="url(#F)" opacity=".8"/><path d="m17.5 47.312c-.95045 0-1.8285.30559-2.5312.8125-.58004-.08942-1.1762-.15625-1.7812-.15625-2.6437 0-5.0504.91554-7 2.4062-.2257-.035-.4522-.062-.688-.062-2.3125 0-4.1875 1.7719-4.1875 3.9688 0 .82384.26727 1.5839.71875 2.2188-.268.97769-.40625 1.9997-.40625 3.0625 0 1.0735.13301 2.1073.40625 3.0938-.6199-.279-1.3073-.437-2.0312-.437-2.7365 0-4.9375 2.201-4.9375 4.9375s2.201 4.9688 4.9375 4.9688c.36612 0 .719-.04965 1.0625-.125-.000643.04129 0 .08355 0 .125 0 4.3167 3.4958 7.8125 7.8125 7.8125 2.786 0 5.2097-1.4621 6.5938-3.6562 2.0411 1.841 4.7536 2.9688 7.7188 2.9688 4.015 0 7.533-2.072 9.5938-5.1875 1.2942.97115 2.8824 1.5625 4.625 1.5625 2.725 0 5.1192-1.4353 6.5-3.5625.69317.55616 1.5421.90625 2.5.90625 1.3093 0 2.4789-.6295 3.2188-1.5938.32267.20323.71549.34375 1.125.34375 1.1563 0 2.0938-.93749 2.0938-2.0938s-.93749-2.0938-2.0938-2.0938c-.18067 0-.36401.01947-.53125.0625-.509-1.456-1.821-2.527-3.408-2.688-.086-1.348-1.192-2.406-2.562-2.406-.3812 0-.73681.07047-1.0625.21875-1.4183-1.5835-3.4881-2.5938-5.7812-2.5938-1.0245 0-1.9799.20126-2.875.5625-.22426-2.3734-2.2241-4.25-4.6562-4.25-.28018 0-.54588.04651-.8125.09375.03207-.21766.0625-.42967.0625-.65625 0-2.5052-2.0573-4.5312-4.5625-4.5312-.93946 0-1.8073.2609-2.5312.75-.12466-.14758-.24323-.29637-.375-.4375.01212-.12327.03125-.24872.03125-.375 0-2.1969-1.875-3.9688-4.1875-3.9688z" fill="url(#E)"/><path d="m34.09 60.889c-1.7951 0-3.2871 1.3348-3.5312 3.0625-.99024.39781-1.8962.90849-2.7188 1.5625-.48316-.50848-1.1494-.84375-1.9062-.84375-1.4646 0-2.6562 1.1917-2.6562 2.6562 0 .01073-.000127.02055 0 .03125-1.0357.06809-2.0271.26679-2.9688.59375-.55027-.63705-1.3734-1.0312-2.2812-1.0312-1.6368 0-2.9673 1.3085-3 2.9375-.04347-.0022-.08097-.03125-.125-.03125-1.2037 0-2.2233.86986-2.4688 2-2.4536.16605-4.5626 1.5198-5.7812 3.5-.493-.208-1.0257-.312-1.5942-.312-2.274 0-4.125 1.851-4.125 4.125s1.851 4.0938 4.125 4.0938c.53425 0 1.0316-.09607 1.5-.28125 1.2861 2.1833 3.6578 3.625 6.375 3.625.87777 0 1.7188-.15691 2.5-.4375 2.0858 2.4103 5.156 3.9375 8.5938 3.9375 3.5742 0 6.7584-1.6406 8.8438-4.2188 1.2151 1.3833 2.9829 2.2812 4.9688 2.2812 1.5447 0 2.9666-.55175 4.0938-1.4375 1.0575.54918 2.2573.875 3.5312.875 1.5489 0 2.9813-.46094 4.1875-1.25.49805.25713 1.0571.40625 1.6562.40625 1.7433 0 3.213-1.236 3.5625-2.875.23611 1.5401 1.5501 2.7188 3.1562 2.7188 1.7729 0 3.2188-1.4146 3.2188-3.1875 0-1.6151-1.1974-2.9623-2.75-3.1875.04583-.25866.09375-.54069.09375-.8125 0-2.5052-2.026-4.5312-4.5312-4.5312-.84007 0-1.6378.25822-2.3125.65625-.22397-.31986-.4498-.65593-.71875-.9375.10594-.25048.15625-.52343.15625-.8125 0-1.1563-.93749-2.0938-2.0938-2.0938-.09318 0-.19129.01945-.28125.03125-.01718-1.7967-1.4805-3.25-3.2812-3.25-.47744 0-.93457.09784-1.3438.28125-1.4251-2.523-3.8275-4.4148-6.6875-5.1875-.40134-1.5259-1.7544-2.6562-3.4062-2.6562z" fill="url(#D)"/><path d="m63.629 53.763c-3.0264.30734-5.375 2.8925-5.375 6 0 .50225.07128.97124.1875 1.4375-1.3556-.82923-2.9508-1.3125-4.6562-1.3125-.69713 0-1.3801.09893-2.0312.25-.47506-1.3625-1.7568-2.3438-3.2812-2.3438-1.9271 0-3.4688 1.5729-3.4688 3.5 0 .92305.35225 1.751.9375 2.375-.19649-.02238-.39127 0-.59375 0-2.8907 0-5.25 2.3281-5.25 5.2188s2.3593 5.25 5.25 5.25c.40398 0 .77855-.06962 1.1562-.15625 1.0117 1.427 2.4356 2.5193 4.0938 3.1562-.0042.11543-.03125.2273-.03125.34375 0 5.2417 4.2583 9.4688 9.5 9.4688 1.5304 0 2.9698-.3566 4.25-1 2.6246 1.7834 5.8064 2.8438 9.2188 2.8438 6.8387 0 12.693-4.2051 15.156-10.156 4.7852-.59661 8.5-4.647 8.5-9.5938 0-5.3573-4.3302-9.7188-9.6875-9.7188-1.1595 0-2.2818.22061-3.3125.59375-.85422-.73119-1.7894-1.3932-2.7812-1.9375.0827-.23333.15625-.48833.15625-.75 0-1.2333-1.0166-2.2188-2.25-2.2188-.94828 0-1.7699.57244-2.0938 1.4062-1.0568-.24278-2.1573-.40621-3.2813-.4375-.31043-1.2856-1.4628-2.2188-2.8438-2.2188-1.1744 0-2.1886.6901-2.6562 1.6875-1.0788-1.0542-2.5545-1.6875-4.1875-1.6875-.20716 0-.42324-.02049-.625 0z" fill="url(#C)" opacity=".8"/><path d="m53.176 63.577c1.3695-.39771 2.8078.36799 3.2055 1.7375.26277.90483.01648 1.8361-.58162 2.4793.58655.47866 1.0897 1.0561 1.5055 1.7105.67528-.47186 1.3964-.88205 2.1926-1.19-.06956-.13999-.14562-.27731-.19075-.43272-.40846-1.4065.40358-2.8832 1.8101-3.2917 1.0305-.29927 2.09.06539 2.7465.82944.71646-1.3394 1.9296-2.4116 3.4859-2.8997-.36546-1.2584.35998-2.5777 1.6184-2.9431 1.1849-.34412 2.4063.29254 2.8521 1.4171.32427-.23589.70211-.43169 1.1094-.54996 1.8877-.54819 3.8665.53996 4.4147 2.4276.01796.06184.0078.1268.02228.18878.5619-.24483 1.1335-.45935 1.7357-.63424 1.6025-.46537 3.1983-.63221 4.7794-.57446.79208-1.3548 2.0873-2.4285 3.7134-2.9007 3.3682-.97815 6.8831.9547 7.8612 4.3229.14672.50522.22646 1.0197.24699 1.5228 2.1491-.3304 4.2499.9638 4.8726 3.1082.12227.42102.17183.83567.16855 1.2527.2622.12185.51679.24917.76579.39589.63234-.96454 1.5939-1.732 2.8112-2.0855 2.6279-.76317 5.3354.66766 6.0663 3.1845.73092 2.5169-.78897 5.1754-3.4169 5.9385-.39479.11465-.79196.1614-1.184.18113.12908 3.8894-2.3625 7.5197-6.2725 8.6552-1.2289.3569-2.4795.42203-3.669.252-1.92 2.7901-4.7482 4.9584-8.2544 5.9767-4.7374 1.3758-9.6028.33061-13.287-2.3892-.58501.61766-1.3331 1.103-2.2091 1.3574-2.331.67695-4.7547-.41753-5.8058-2.5117-.02951.0088-.06039.01754-.09003.02614-3.47 1.0077-7.0196.12201-9.6027-2.0274-.85466 1.6019-2.3363 2.8588-4.2177 3.4051-3.3969.98648-6.954-.7078-8.3443-3.8572-.39834.22718-.80841.43002-1.2682.56353-3.1461.91365-6.4442-.89994-7.3578-4.046-.91365-3.1461.89994-6.4442 4.046-7.3578.32887-.09551.65822-.15163.98647-.18886.33617-.60813.87158-1.0666 1.5527-1.2644.70433-.20454 1.4424-.08217 2.0659.27864-.12887-3.2244 1.9287-6.2548 5.1671-7.1953.70473-.20466 1.4091-.26407 2.1065-.25381-.06387-1.1722.66728-2.2764 1.843-2.6179z" fill="url(#B)"/><path d="m18.938 41.656c-3.5005 0-6.464 2.1862-7.625 5.2812-2.9227.05208-5.2812 2.4399-5.2812 5.375 0 2.9677 2.4073 5.375 5.375 5.375 1.1753 0 2.2405-.3911 3.125-1.0312 1.2736.82112 2.7782 1.3125 4.4062 1.3125.41217 0 .82299-.03481 1.2188-.09375.4608.55836 1.157.9375 1.9375.9375 1.11 0 2.0426-.72039 2.375-1.7188.573.1721 1.1834.28125 1.8125.28125 3.4688 0 6.2812-2.8125 6.2812-6.2812 0-2.9051-1.9776-5.3448-4.6562-6.0625.02473-.15323.0625-.30854.0625-.46875 0-1.6188-1.3187-2.9062-2.9375-2.9062-.86619 0-1.6509.37137-2.1875.96875-1.1569-.62848-2.4971-.96875-3.9062-.96875z" fill="url(#A)" opacity=".8"/><path d="m85.094 74.5c-1.259 0-2.334.69184-2.9062 1.7188-1.9182.13278-3.6115 1.0249-4.7812 2.4062-.53405-.72001-1.3784-1.1875-2.3438-1.1875-1.6188 0-2.9375 1.3187-2.9375 2.9375 0 .44432.10432.84141.28125 1.2188-1.5885.35705-2.7812 1.7412-2.7812 3.4375 0 1.9656 1.5656 3.5625 3.5312 3.5625 1.5444 0 2.8512-.99995 3.3438-2.375 1.141 2.241 3.467 3.781 6.155 3.781 1.0952 0 2.1424-.26513 3.0625-.71875.57196.52723 1.3483.84375 2.1875.84375 1.6569 0 2.9848-1.2636 3.1562-2.875.30913.04735.61513.09375.9375.09375 1.5171 0 2.9214-.56524 4-1.4688.71605.81008 1.7713 1.3125 2.9375 1.3125 2.1584 0 3.9062-1.7479 3.9062-3.9062 0-2.1584-1.7479-3.9062-3.9062-3.9062-.31601 0-.64322.0542-.9375.125-.71569-2.64-3.1335-4.5938-6-4.5938-1.5007 0-2.8639.55146-3.9375 1.4375-.552-1.092-1.661-1.844-2.968-1.844z" fill="url(#z)"/></g><path d="m12 6c-3.324 0-6 2.676-6 6v72c0 .33472.04135.6507.09375.96875.0487.2956.09704.59692.1875.875.00988.03038.020892.0636.03125.09375.098865.28777.23488.54745.375.8125.14459.27351.31562.53562.5.78125.18438.24564.37378.47347.59375.6875.43995.42806.94291.81453 1.5 1.0938.27854.13961.57347.24695.875.34375-.2562-.10022-.48671-.23627-.71875-.375-.00741-.0044-.023866.0045-.03125 0-.0319-.019-.0622-.042-.0937-.062-.1204-.077-.231-.164-.3437-.25-.1062-.081-.2133-.161-.3126-.25-.1778-.162-.3473-.346-.4999-.531-.1075-.131-.2183-.266-.3124-.407-.0251-.038-.0385-.086-.0626-.125-.0647-.103-.1302-.204-.1874-.312-.1011-.195-.2057-.416-.2813-.625-.008-.022-.0236-.041-.0313-.063-.0318-.092-.0358-.187-.0624-.281-.0304-.107-.0704-.203-.0938-.313-.0729-.341-.125-.698-.125-1.062v-72c0-2.782 2.2182-5 5-5h72c2.7818 0 5 2.2182 5 5v72c0 .3643-.05212.72099-.125 1.0625-.04415.20689-.08838.39766-.15625.59375-.0077.02195-.0233.04069-.03125.0625-.06274.17374-.13838.36745-.21875.53125-.04158.0828-.07904.16995-.125.25-.0546.09721-.12677.18835-.1875.28125-.09411.14096-.20492.276-.3125.40625-.14317.17445-.30314.347-.46875.5-.01117.0102-.01998.02115-.03125.03125-.13839.12556-.28509.23444-.4375.34375-.10257.07315-.20432.15336-.3125.21875-.0074.0045-.02384-.0044-.03125 0-.23204.13873-.46255.27478-.71875.375.30153-.0968.59646-.20414.875-.34375.55709-.27922 1.0601-.66569 1.5-1.0938.21997-.21403.40937-.44186.59375-.6875s.35541-.50774.5-.78125c.14012-.26505.27614-.52473.375-.8125.01041-.03078.02133-.06274.03125-.09375.09046-.27808.1388-.5794.1875-.875.053-.318.094-.634.094-.969v-72c0-3.324-2.676-6-6-6h-72z" fill="url(#u)" opacity=".4"/><path d="m12 90c-3.324 0-6-2.676-6-6v-72c0-.33472.04135-.6507.09375-.96875.0487-.2956.09704-.59692.1875-.875.0099-.03.0209-.063.0313-.094.0989-.2873.2349-.547.375-.812.1446-.2735.3156-.5356.5-.7812.1844-.2457.3738-.4735.5937-.6876.44-.428.943-.8145 1.5-1.0937.2786-.1396.5735-.2469.8748-.3437-.256.1002-.4865.2362-.7185.375-.0074.0044-.02387-.0045-.03125 0-.03193.0193-.06229.04251-.09375.0625-.1204.0767-.23102.16351-.34375.25-.10617.0808-.21328.16111-.3125.25-.1779.1614-.3474.3453-.5.5312-.1075.1303-.2183.2653-.3124.4063-.0251.0383-.0385.0858-.0626.125-.0647.103-.1302.2045-.1874.3124-.1011.1948-.2057.4158-.2813.625-.008.0219-.0236.0406-.0313.0626-.0318.0919-.0358.1868-.0624.2812-.0304.1066-.0704.203-.0938.3125-.0729.3415-.125.6985-.125 1.0625v72c0 2.7818 2.2182 5 5 5h72c2.7818 0 5-2.2182 5-5v-72c0-.364-.052-.721-.125-1.0625-.044-.2069-.088-.3977-.156-.5937-.008-.022-.024-.0407-.031-.0626-.063-.1737-.139-.3674-.219-.5312-.042-.0828-.079-.17-.125-.25-.055-.0972-.127-.1884-.188-.2812-.094-.141-.205-.276-.312-.4063-.143-.1745-.303-.347-.469-.5-.011-.0102-.02-.0211-.031-.0313-.139-.1255-.285-.2344-.438-.3437-.102-.0731-.204-.1534-.312-.2187-.0074-.0045-.02384.0044-.03125 0-.23204-.13873-.46255-.27478-.71875-.375.30153.0968.59646.20414.875.34375.55709.27922 1.0601.66569 1.5 1.0938.21997.21403.40937.44186.59375.6875s.35541.50774.5.78125c.14012.26505.27614.52473.375.8125.01041.03078.02133.06274.03125.09375.09046.27808.1388.5794.1875.875.053.318.094.634.094.969v72c0 3.324-2.676 6-6 6h-72z" fill="url(#t)" opacity=".2"/></svg>