<svg height="96" width="96" xmlns="http://www.w3.org/2000/svg" xmlns:xlink="http://www.w3.org/1999/xlink"><linearGradient id="a" stop-color="#fff"><stop offset="0"/><stop offset="1" stop-opacity="0"/></linearGradient><linearGradient id="b" gradientTransform="matrix(1.8576984 0 0 1.7471456 3.380041 10.350978)" gradientUnits="userSpaceOnUse" x1="12.578789" x2="12.578789" xlink:href="#a" y1="2.913743" y2="43.810863"/><linearGradient id="c" gradientTransform="matrix(1.5405636 0 0 1.2369262 -1.679756 7.719302)" gradientUnits="userSpaceOnUse" x1="33.579403" x2="33.579403" y1="5.708645" y2="16.323294"><stop offset="0" stop-color="#434a4a"/><stop offset="1" stop-color="#353b3d"/></linearGradient><linearGradient id="d" gradientTransform="matrix(1.8906253 0 0 1.8752009 2.592057 1.654951)" gradientUnits="userSpaceOnUse" x1="16.91585" x2="16.91585" y1="7.000642" y2="14"><stop offset="0" stop-color="#262626"/><stop offset="1" stop-color="#303030"/></linearGradient><linearGradient id="e" gradientTransform="matrix(1.8338355 0 0 .65813693 3.967497 21.239441)" gradientUnits="userSpaceOnUse" x1="24.682861" x2="24.682861" xlink:href="#a" y1="9.241672" y2="13.523027"/><radialGradient id="f" cx="26.616697" cy="-2.064498" gradientTransform="matrix(-.00000003 -2.0049302 2.6407404 0 70.589407 111.78112)" gradientUnits="userSpaceOnUse" r="23"><stop offset="0" stop-color="#64ffff"/><stop offset="1" stop-color="#329696"/></radialGradient><radialGradient id="g" cx="605.71429" cy="486.64789" gradientTransform="matrix(-.10165993 0 0 .03763786 76.889735 66.256253)" gradientUnits="userSpaceOnUse" r="117.14286" xlink:href="#a"/><radialGradient id="h" cx="605.71429" cy="486.64789" gradientTransform="matrix(.10166 0 0 .03763786 19.044388 66.256253)" gradientUnits="userSpaceOnUse" r="117.14286" xlink:href="#a"/><linearGradient id="i" gradientTransform="matrix(.13396817 0 0 .03763786 -.452873 66.256253)" gradientUnits="userSpaceOnUse" x1="302.85715" x2="302.85715" y1="366.64789" y2="609.50507"><stop offset="0" stop-opacity="0"/><stop offset=".5"/><stop offset="1" stop-opacity="0"/></linearGradient><linearGradient id="j"><stop offset="0" stop-color="#f0f0f0"/><stop offset="1" stop-color="#b0b0b0"/></linearGradient><linearGradient id="k" gradientTransform="matrix(.36836795 0 0 .37499824 8.6389 50.012942)" gradientUnits="userSpaceOnUse" x1="32.891998" x2="36.358002" xlink:href="#j" y1="8.059" y2="5.4565"/><radialGradient id="l" cx="48" cy="90.171875" gradientTransform="matrix(.15834682 0 0 .13682283 10.5293 49.896134)" gradientUnits="userSpaceOnUse" r="42" xlink:href="#a"/><linearGradient id="m" gradientTransform="matrix(0 -.17444915 .13682283 0 11.56245 63.280401)" gradientUnits="userSpaceOnUse" x1="7.3709" x2="23.76619" xlink:href="#n" y1="51.470146" y2="51.433136"/><linearGradient id="n"><stop offset="0" stop-color="#676f7d"/><stop offset="1" stop-color="#818791"/></linearGradient><linearGradient id="o" gradientTransform="matrix(.13682292 0 0 .13738506 11.56245 49.916277)" gradientUnits="userSpaceOnUse" x1="36.357143" x2="36.357143" xlink:href="#a" y1="6" y2="63.893143"/><linearGradient id="p" gradientTransform="matrix(.13682284 0 0 .13682285 11.56245 49.919651)" gradientUnits="userSpaceOnUse" x1="48" x2="48" xlink:href="#q" y1="90" y2="5.987717"/><linearGradient id="q" gradientUnits="userSpaceOnUse" x1="10.31979" x2="10.31979" y1="21" y2=".999296"><stop offset="0" stop-color="#e0e0e0"/><stop offset="1" stop-color="#f0f0f0"/></linearGradient><linearGradient id="r" gradientTransform="matrix(.88394566 0 0 -.88394572 10.163169 89.361561)" gradientUnits="userSpaceOnUse" x1="32.251034" x2="32.251034" y1="6.131708" y2="90.238609"><stop offset="0"/><stop offset="1" stop-opacity=".588235"/></linearGradient><linearGradient id="s" gradientTransform="matrix(.36836795 0 0 .37499824 8.6389 33.012942)" gradientUnits="userSpaceOnUse" x1="32.891998" x2="36.358002" xlink:href="#j" y1="8.059" y2="5.4565"/><radialGradient id="t" cx="48" cy="90.171875" gradientTransform="matrix(.15834682 0 0 .13682283 10.5293 32.896134)" gradientUnits="userSpaceOnUse" r="42" xlink:href="#a"/><linearGradient id="u" gradientTransform="matrix(0 -.17444915 .13682283 0 11.56245 46.2804)" gradientUnits="userSpaceOnUse" x1="7.3709" x2="23.76619" xlink:href="#n" y1="51.470146" y2="51.433136"/><linearGradient id="v" gradientTransform="matrix(.13682292 0 0 .13738506 11.56245 32.916277)" gradientUnits="userSpaceOnUse" x1="36.357143" x2="36.357143" xlink:href="#a" y1="6" y2="63.893143"/><linearGradient id="w" gradientTransform="matrix(.13682284 0 0 .13682285 11.56245 32.919651)" gradientUnits="userSpaceOnUse" x1="48" x2="48" xlink:href="#q" y1="90" y2="5.987717"/><path d="m15.623315 80.056091h64.687508v9.140626h-64.687508z" fill="url(#i)" opacity=".3"/><path d="m80.310811 80.056412v9.1401c5.235236.0172 12.656259-2.04782 12.65625-4.57064 0-2.52281-5.842134-4.56946-12.65625-4.56946z" fill="url(#h)" opacity=".3"/><path d="m15.623312 80.056412v9.1401c-5.235236.0172-12.6562504-2.04782-12.6562504-4.57064 0-2.52281 5.8421282-4.56946 12.6562504-4.56946z" fill="url(#g)" opacity=".3"/><rect height="69.60788" rx="4.921876" style="fill-rule:evenodd;stroke:#505050;stroke-width:.704625;stroke-linecap:round;stroke-linejoin:round;fill:url(#f)" width="85.07663" x="5.428751" y="15.720916"/><path d="m5.779563 27.321726h84.375v2.8125h-84.375z" fill="url(#e)" fill-rule="evenodd" opacity=".2"/><path d="m11.09987 15.720163s74.370069.0161 74.370069.0161c2.958686 0 5.036185 2.36498 5.036185 4.981997v6.251899h-85.078129v-6.251899c0-2.789401 2.2853597-4.998101 5.671875-4.998101z" fill="url(#c)" fill-rule="evenodd" stroke="url(#d)" stroke-width=".703125"/><rect height="68.200493" rx="4.21875" style="opacity:.4;fill:none;stroke-width:.705749;stroke-linecap:round;stroke-linejoin:round;stroke:url(#b)" width="83.669258" x="6.132434" y="16.424635"/><path d="m18.787376 71.970146h58.359383v13.359377h-58.359383z" fill="#1a1a1a" opacity=".684" stroke="#000" stroke-width=".703125"/><path d="m18.08425 85.681102v-14.414071h59.765623v14.414071" fill="none" opacity=".2" stroke="#fff" stroke-width=".703125"/><path d="m14.577 22.268919a2 2 0 1 1 -4 0 2 2 0 1 1 4 0z" fill="#fff" opacity=".7"/><path d="m21.510559 84.057885h62.16399c3.34823 0 6.04372-2.727212 6.04372-6.114824v-39.038079l-29.09854-29.0985314h-39.10917c-3.34822 0-6.04372 2.7272114-6.04372 6.1148244v62.021786c0 3.387612 2.6955 6.114824 6.04372 6.114824z" fill="url(#r)" opacity=".63" transform="matrix(.16512441 0 0 .16512441 9.44629 32.119991)"/><path d="m13.20433 33.740585h6.23912l4.43306 4.433061v6.239122c0 .454798-.36614.820936-.82094.820936h-9.85124c-.45481 0-.82094-.366138-.82094-.820936v-9.851246c0-.454799.36613-.820937.82094-.820937z" fill="url(#w)"/><path d="m13.20433 33.740585c-.4548 0-.82094.367642-.82094.824311v.27477 9.013809c.63315 1.336133.16393.950518.13682.137384v-8.969376-.274772c0-.382184.3035-.686926.68412-.686926h.27364 5.69184.27364l4.29624 4.254618v.274772 5.401684c-.38511 1.010485.13682 1.144512.13682-.137385v-5.401685-.274771l-4.43306-4.436433z" fill="url(#v)"/><path d="m17.84103 33.740819c1.01514 0 .39765 4.563.39765 4.563s5.63892-.597263 5.63892 1.272079c0-.455358-.001-1.402252-.001-1.402252l-4.43308-4.43306z" fill-rule="evenodd" opacity=".2" stroke-width=".305115"/><path d="m12.38339 44.187009c0 .57987.36614 1.046696.82094 1.046696h9.85124c.4548 0 .82094-.466826.82094-1.046696v-2.018486h-11.49312z" fill="url(#u)"/><path d="m13.20433 45.233705c-.4548 0-.82094-.367642-.82094-.824311v-.319193c.006-1.670481.13682-1.706103.13682-.137393v.27477c0 .382184.3035.686925.68412.686925h.27364 9.30395.27365c.38062 0 .68411-.304741.68411-.686925v-.27477c.0134-1.862349.13683-1.225074.13683.137385v.319193c0 .456677-.36614.824319-.82094.824319z" fill="url(#t)" opacity=".2"/><path d="m18.21838 33.740586c.95974 0 .37211 4.226967.37211 4.226967s1.87126-.222741 3.3871-.03096c1.03194.130557 1.89917.45322 1.89917 1.169047 0-.430507-.00025-.931992-.00025-.931992l-4.43306-4.43306z" fill-rule="evenodd" opacity=".2" stroke-width=".288463"/><path d="m18.67125 33.743362c.90427 0 .32572 3.904667.32572 3.904667s4.88085-.599641 4.88085 1.065534c0-.405624-.001-.539917-.001-.539917l-4.43307-4.43306z" fill="url(#s)" fill-rule="evenodd" stroke-width=".27179"/><path d="m21.510559 84.057885h62.16399c3.34823 0 6.04372-2.727212 6.04372-6.114824v-39.038079l-29.09854-29.0985314h-39.10917c-3.34822 0-6.04372 2.7272114-6.04372 6.1148244v62.021786c0 3.387612 2.6955 6.114824 6.04372 6.114824z" fill="url(#r)" opacity=".63" transform="matrix(.16512441 0 0 .16512441 9.44629 49.119991)"/><path d="m13.20433 50.740585h6.23912l4.43306 4.433061v6.239123c0 .454798-.36614.820936-.82094.820936h-9.85124c-.45481 0-.82094-.366138-.82094-.820936v-9.851247c0-.454799.36613-.820937.82094-.820937z" fill="url(#p)"/><path d="m13.20433 50.740585c-.4548 0-.82094.367642-.82094.824311v.27477 9.01381c.63315 1.336133.16393.950518.13682.137384v-8.969377-.274772c0-.382184.3035-.686926.68412-.686926h.27364 5.69184.27364l4.29624 4.254618v.274772 5.401685c-.38511 1.010485.13682 1.144512.13682-.137385v-5.401686-.274771l-4.43306-4.436433z" fill="url(#o)"/><path d="m17.84103 50.740819c1.01514 0 .39765 4.563.39765 4.563s5.63892-.597263 5.63892 1.272079c0-.455358-.001-1.402252-.001-1.402252l-4.43308-4.43306z" fill-rule="evenodd" opacity=".2" stroke-width=".305115"/><path d="m12.38339 61.18701c0 .57987.36614 1.046696.82094 1.046696h9.85124c.4548 0 .82094-.466826.82094-1.046696v-2.018487h-11.49312z" fill="url(#m)"/><path d="m13.20433 62.233706c-.4548 0-.82094-.367642-.82094-.824311v-.319193c.006-1.670482.13682-1.706104.13682-.137393v.27477c0 .382184.3035.686925.68412.686925h.27364 9.30395.27365c.38062 0 .68411-.304741.68411-.686925v-.27477c.0134-1.86235.13683-1.225075.13683.137385v.319193c0 .456677-.36614.824319-.82094.824319z" fill="url(#l)" opacity=".2"/><path d="m18.21838 50.740586c.95974 0 .37211 4.226967.37211 4.226967s1.87126-.222741 3.3871-.03096c1.03194.130557 1.89917.45322 1.89917 1.169047 0-.430507-.00025-.931992-.00025-.931992l-4.43306-4.43306z" fill-rule="evenodd" opacity=".2" stroke-width=".288463"/><path d="m18.67125 50.743362c.90427 0 .32572 3.904667.32572 3.904667s4.88085-.599641 4.88085 1.065534c0-.405624-.001-.539917-.001-.539917l-4.43307-4.43306z" fill="url(#k)" fill-rule="evenodd" stroke-width=".27179"/><g fill="#fff"><path d="m85.350453 22a2 2 0 1 1 -4 0 2 2 0 1 1 4 0z" opacity=".7"/><path d="m80.223929 22a2 2 0 1 1 -4 0 2 2 0 1 1 4 0z" opacity=".7"/><path d="m75.097241 22a2 2 0 1 1 -4 0 2 2 0 1 1 4 0z" opacity=".7"/><text font-family="sans-serif" font-size="40" letter-spacing="0" opacity=".7" word-spacing="0" x="39.244671" y="23.9193"><tspan fill="#fff" font-family="Ubuntu" font-size="5.333333" font-weight="500" x="39.244671" y="23.9193">18:30</tspan></text></g></svg>