<svg height="64" width="64" xmlns="http://www.w3.org/2000/svg" xmlns:xlink="http://www.w3.org/1999/xlink"><linearGradient id="a"><stop offset="0" stop-color="#fff"/><stop offset="1" stop-color="#fff" stop-opacity="0"/></linearGradient><linearGradient id="b" gradientTransform="matrix(1.0238095 0 0 1.0119048 -1.142857 -98.071429)" gradientUnits="userSpaceOnUse" x1="32.251034" x2="32.251034" xlink:href="#c" y1="6.131708" y2="90.238609"/><linearGradient id="c" gradientTransform="matrix(1.0058652 0 0 .994169 100 0)" gradientUnits="userSpaceOnUse" x1="45.447727" x2="45.447727" y1="92.539597" y2="7.01654"><stop offset="0"/><stop offset="1" stop-opacity=".588235"/></linearGradient><linearGradient id="d" gradientTransform="translate(0 -97)" gradientUnits="userSpaceOnUse" x1="32.251034" x2="32.251034" xlink:href="#c" y1="6.131708" y2="90.238609"/><linearGradient id="e" gradientUnits="userSpaceOnUse" x1="48" x2="48" y1="90" y2="5.987717"><stop offset="0" stop-color="#076c56"/><stop offset="1" stop-color="#12a386"/></linearGradient><linearGradient id="f" gradientUnits="userSpaceOnUse" x1="36.357143" x2="36.357143" xlink:href="#a" y1="6" y2="63.893143"/><radialGradient id="g" cx="48" cy="90.171875" gradientTransform="matrix(1.1573129 0 0 .99590774 -7.551021 .197132)" gradientUnits="userSpaceOnUse" r="42" xlink:href="#a"/><linearGradient id="h" gradientUnits="userSpaceOnUse" x1="48" x2="48" xlink:href="#a" y1="20.220806" y2="138.66119"/><clipPath id="i"><rect height="84" rx="6" width="84" x="6" y="6"/></clipPath><filter id="j" color-interpolation-filters="sRGB" height="1.384" width="1.384" x="-.192" y="-.192"><feGaussianBlur stdDeviation="5.28"/></filter><g fill="url(#b)"><path d="m12-95.03125c-5.5110903 0-10.03125 4.52016-10.03125 10.03125v71c0 5.5110902 4.5201598 10.03125 10.03125 10.03125h72c5.51109 0 10.03125-4.5201597 10.03125-10.03125v-71c0-5.51109-4.52016-10.03125-10.03125-10.03125z" opacity=".08" transform="matrix(.65173116 0 0 -.65888812 .71690391835 .38503831044)"/><path d="m12-94.03125c-4.971633 0-9.03125 4.059617-9.03125 9.03125v71c0 4.9716329 4.0596171 9.03125 9.03125 9.03125h72c4.971633 0 9.03125-4.059617 9.03125-9.03125v-71c0-4.971633-4.059617-9.03125-9.03125-9.03125z" opacity=".1" transform="matrix(.65173116 0 0 -.65888812 .71690391835 .38503831044)"/><path d="m12-93c-4.4091333 0-8 3.590867-8 8v71c0 4.4091333 3.5908667 8 8 8h72c4.409133 0 8-3.5908667 8-8v-71c0-4.409133-3.590867-8-8-8z" opacity=".2" transform="matrix(.65173116 0 0 -.65888812 .71690391835 .38503831044)"/><rect height="85" opacity=".3" rx="7" transform="matrix(.65173116 0 0 -.65888812 .71690391835 .38503831044)" width="86" x="5" y="-92"/></g><rect fill="url(#d)" height="84" opacity=".45" rx="6" transform="matrix(.65173116 0 0 -.65888812 .71690391835 .38503831044)" width="84" x="6" y="-91"/><g transform="matrix(.65173116 0 0 .65888812 .71690391835 .38503831044)"><rect fill="url(#e)" height="84" rx="6" width="84" x="6" y="6"/><path d="m12 6c-3.324 0-6 2.676-6 6v2 68 2c0 .334721.04135.6507.09375.96875.0487.295596.09704.596915.1875.875.00988.03038.020892.0636.03125.09375.098865.287771.2348802.547452.375.8125.1445918.273507.3156161.535615.5.78125s.3737765.473472.59375.6875c.439947.428056.94291.814526 1.5 1.09375.278545.139612.5734731.246947.875.34375-.2562018-.100222-.4867109-.236272-.71875-.375-.00741-.0044-.023866.0045-.03125 0-.031933-.0193-.062293-.04251-.09375-.0625-.120395-.0767-.2310226-.163513-.34375-.25-.1061728-.0808-.2132809-.161112-.3125-.25-.1779299-.161433-.3474596-.345388-.5-.53125-.1075789-.130255-.2183939-.265285-.3125-.40625-.025089-.03838-.038446-.08587-.0625-.125-.064763-.103032-.1302275-.204517-.1875-.3125-.1010083-.194706-.2056748-.415701-.28125-.625-.00796-.02181-.023589-.04055-.03125-.0625-.0318251-.09195-.0358045-.186831-.0625-.28125-.0303323-.106618-.0703894-.203031-.09375-.3125-.0728786-.341512-.125-.698205-.125-1.0625v-2-68-2c0-2.781848 2.2181517-5 5-5h2 68 2c2.781848 0 5 2.218152 5 5v2 68 2c0 .364295-.05212.720988-.125 1.0625-.04415.206893-.08838.397658-.15625.59375-.0077.02195-.0233.04069-.03125.0625-.06274.173739-.138383.367449-.21875.53125-.04158.0828-.07904.169954-.125.25-.0546.09721-.126774.18835-.1875.28125-.09411.140965-.204921.275995-.3125.40625-.143174.17445-.303141.346998-.46875.5-.01117.0102-.01998.02115-.03125.03125-.138386.125556-.285091.234436-.4375.34375-.102571.07315-.204318.153364-.3125.21875-.0074.0045-.02384-.0044-.03125 0-.232039.138728-.462548.274778-.71875.375.301527-.0968.596455-.204138.875-.34375.55709-.279224 1.060053-.665694 1.5-1.09375.219973-.214028.409366-.441865.59375-.6875s.355408-.507743.5-.78125c.14012-.265048.276135-.524729.375-.8125.01041-.03078.02133-.06274.03125-.09375.09046-.278085.1388-.579404.1875-.875.0524-.31805.09375-.634029.09375-.96875v-2-68-2c0-3.324-2.676-6-6-6z" fill="url(#f)" opacity=".4"/><path d="m12 90c-3.3240004 0-6.0000004-2.676-6.0000004-6v-2-68-2c0-.334721.04135-.6507.09375-.96875.0487-.295596.09704-.596915.1875-.875.0099-.03038.02089-.0636.03125-.09375.09886-.287771.234881-.547452.375-.8125.144592-.273507.315616-.535615.5-.78125s.373777-.473472.59375-.6875c.439947-.428056.94291-.814526 1.5-1.09375.278545-.139612.573473-.246947.8750004-.34375-.2562014.100222-.4867114.236272-.7187504.375-.0074.0044-.02387-.0045-.03125 0-.03193.0193-.06229.04251-.09375.0625-.120395.0767-.231022.163513-.34375.25-.106172.0808-.213281.161112-.3125.25-.17793.161433-.347459.345388-.5.53125-.107579.130255-.218394.265285-.3125.40625-.02509.03838-.03845.08587-.0625.125-.06476.103032-.130227.204517-.1875.3125-.101008.194706-.205674.415701-.28125.625-.008.02181-.02359.04055-.03125.0625-.03183.09195-.0358.186831-.0625.28125-.03033.106618-.07039.203031-.09375.3125-.07288.341512-.125.698205-.125 1.0625v2 68 2c0 2.781848 2.218152 5 5.0000004 5h2 68 2.000002c2.78185 0 4.999997-2.218152 4.999997-5v-2-68-2c0-.364295-.0521-.720988-.125-1.0625-.0442-.206893-.0884-.397658-.15625-.59375-.008-.02195-.0233-.04069-.0312-.0625-.0628-.173739-.13843-.367449-.2188-.53125-.0416-.0828-.079-.169954-.125-.25-.0546-.09721-.12677-.18835-.1875-.28125-.0941-.140965-.204917-.275995-.312497-.40625-.14318-.17445-.30314-.346998-.46875-.5-.0112-.0102-.02-.02115-.0312-.03125-.13839-.125556-.28509-.234436-.4375-.34375-.10257-.07315-.20432-.153364-.3125-.21875-.007-.0045-.0238.0044-.0312 0-.23204-.138728-.46255-.274778-.71875-.375.30153.0968.59645.204138.875.34375.55709.279224 1.06005.665694 1.499997 1.09375.21997.214028.40937.441865.59375.6875.18439.245635.35541.507743.5.78125.14012.265048.27614.524729.375.8125.0104.03078.0213.06274.0312.09375.0905.278085.1388.579404.1875.875.0524.31805.0937.634029.0937.96875v2 68 2c0 3.324-2.675997 6-5.999997 6z" fill="url(#g)" opacity=".2"/></g><rect height="66" rx="12" style="opacity:.1;stroke:#fff;stroke-width:.5;stroke-linecap:round;clip-path:url(#i);fill:url(#h);filter:url(#j)" transform="matrix(.65173116 0 0 .65888812 .71690391835 .38503831044)" width="66" x="15" y="15"/><g fill="#fff" transform="matrix(.65217388098 0 0 .65217391169 14.29182007076 -12.14369886583)"><path d="m1.1145523 42v.05514h-1.1145523v21.646374h.08056879v32.298486h15.96163421l-.084406-38h19.042203v-16z" stroke-width=".939893"/><path d="m19 61h16v35h-16z" stroke-width=".939066"/><path d="m38 42h16v54h-16z" stroke-width="1.166431"/></g></svg>