<svg height="64" width="64" xmlns="http://www.w3.org/2000/svg" xmlns:xlink="http://www.w3.org/1999/xlink"><linearGradient id="a"><stop offset="0" stop-color="#fff"/><stop offset="1" stop-color="#fff" stop-opacity="0"/></linearGradient><linearGradient id="b" gradientTransform="matrix(1.0238095 0 0 1.0119048 -1.142857 -98.071429)" gradientUnits="userSpaceOnUse" x1="32.251034" x2="32.251034" xlink:href="#c" y1="6.131708" y2="90.238609"/><linearGradient id="c" gradientTransform="matrix(1.0058652 0 0 .994169 100 0)" gradientUnits="userSpaceOnUse" x1="45.447727" x2="45.447727" y1="92.539597" y2="7.01654"><stop offset="0"/><stop offset="1" stop-opacity=".588235"/></linearGradient><linearGradient id="d" gradientTransform="translate(0 -97)" gradientUnits="userSpaceOnUse" x1="32.251034" x2="32.251034" xlink:href="#c" y1="6.131708" y2="90.238609"/><radialGradient id="e" cx="47.757603" cy="25.975586" gradientTransform="matrix(1.3929362 0 0 .59319877 -2.504356 -14.459396)" gradientUnits="userSpaceOnUse" r="37.015839"><stop offset="0" stop-color="#515151"/><stop offset="1" stop-color="#272727"/></radialGradient><linearGradient id="f" gradientTransform="matrix(1.1666667 0 0 1.1681397 -10.535808 -6.859846)" gradientUnits="userSpaceOnUse" x1="48.972488" x2="48.972488" y1="23.557802" y2="48.325878"><stop offset="0" stop-color="#a2a2a2"/><stop offset="1" stop-color="#838383"/></linearGradient><filter id="g" color-interpolation-filters="sRGB"><feGaussianBlur stdDeviation=".59217069"/></filter><linearGradient id="h" gradientUnits="userSpaceOnUse" x1="43.225687" x2="43.225687" xlink:href="#i" y1="28.05317" y2="46.450768"/><linearGradient id="i"><stop offset="0" stop-color="#dcdcdc"/><stop offset="1" stop-color="#a5a5a5"/></linearGradient><filter id="j" color-interpolation-filters="sRGB"><feGaussianBlur stdDeviation=".66463039"/></filter><linearGradient id="k" gradientUnits="userSpaceOnUse" x1="80.30378" x2="83.099548" xlink:href="#i" y1="34.651314" y2="45.08527"/><linearGradient id="l" gradientTransform="matrix(0 1.3636364 -1.3636364 0 130.19319 -34.556819)" gradientUnits="userSpaceOnUse" x1="48" x2="48" y1="90" y2="5.987717"><stop offset="0" stop-color="#a0a0a0"/><stop offset=".1362071" stop-color="#dcdcdc"/><stop offset=".3023597" stop-color="#f5f5f5"/><stop offset=".61225069" stop-color="#dcdcdc"/><stop offset="1" stop-color="#b4b4b4"/></linearGradient><linearGradient id="m" gradientUnits="userSpaceOnUse" x1="64.7386382" x2="64.7386382" y1="88.170457" y2="-26.3917501459"><stop offset="0" stop-opacity=".15625"/><stop offset="1" stop-color="#fff" stop-opacity="0"/></linearGradient><linearGradient id="n" gradientUnits="userSpaceOnUse" x1="48.86201459481" x2="48.86201459481" xlink:href="#a" y1="-26.3750006" y2="52.57019650521"/><radialGradient id="o" cx="48" cy="90.171875" gradientTransform="matrix(1.578154 0 0 1.358056 -11.012756 -34.288003)" gradientUnits="userSpaceOnUse" r="42" xlink:href="#a"/><filter id="p" color-interpolation-filters="sRGB"><feGaussianBlur stdDeviation=".56241694"/></filter><linearGradient id="q" gradientUnits="userSpaceOnUse" x1="87.228699" x2="69.920662" xlink:href="#r" y1="103.55167" y2="103.55167"/><linearGradient id="r"><stop offset="0" stop-color="#046efe"/><stop offset="1" stop-color="#00adff"/></linearGradient><linearGradient id="s" gradientUnits="userSpaceOnUse" x1="82.855774" x2="86.748848" xlink:href="#t" y1="87.433334" y2="97.972473"/><linearGradient id="t"><stop offset="0" stop-color="#0082ff"/><stop offset="1" stop-color="#005aff"/></linearGradient><linearGradient id="u" gradientUnits="userSpaceOnUse" x1="52.105541" x2="61.130371" xlink:href="#t" y1="76.541229" y2="68.295815"/><linearGradient id="v" gradientUnits="userSpaceOnUse" x1="66.740204" x2="75.281227" xlink:href="#r" y1="63.588692" y2="80.814972"/><linearGradient id="w" gradientUnits="userSpaceOnUse" x1="43.245415" x2="48.193569" xlink:href="#r" y1="104.21532" y2="93.471298"/><linearGradient id="x" gradientUnits="userSpaceOnUse" x1="60.413662" x2="46.921165" xlink:href="#t" y1="106.16137" y2="110.65887"/><g transform="matrix(.47793618 0 0 .47793618 1.028063 17.612127)"><g transform="matrix(1.3636364 0 0 1.3636364 -.715909 -34.556819)"><g fill="url(#b)"><path d="m12-95.03125c-5.5110903 0-10.03125 4.52016-10.03125 10.03125v71c0 5.5110902 4.5201598 10.03125 10.03125 10.03125h72c5.51109 0 10.03125-4.5201597 10.03125-10.03125v-71c0-5.51109-4.52016-10.03125-10.03125-10.03125z" opacity=".08" transform="scale(1 -1)"/><path d="m12-94.03125c-4.971633 0-9.03125 4.059617-9.03125 9.03125v71c0 4.9716329 4.0596171 9.03125 9.03125 9.03125h72c4.971633 0 9.03125-4.059617 9.03125-9.03125v-71c0-4.971633-4.059617-9.03125-9.03125-9.03125z" opacity=".1" transform="scale(1 -1)"/><path d="m12-93c-4.4091333 0-8 3.590867-8 8v71c0 4.4091333 3.5908667 8 8 8h72c4.409133 0 8-3.5908667 8-8v-71c0-4.409133-3.590867-8-8-8z" opacity=".2" transform="scale(1 -1)"/><rect height="85" opacity=".3" rx="7" transform="scale(1 -1)" width="86" x="5" y="-92"/></g><rect fill="url(#d)" height="84" opacity=".45" rx="6" transform="scale(1 -1)" width="84" x="6" y="-91"/></g><g fill-rule="evenodd"><path d="m20.830043-21.008461c-4.630115 0-8.357615 3.739305-8.357615 8.384092-.04452 8.5175635.02994 17.0310918.02994 25.512528 13.440358 7.310336 29.295658 10.018881 52.928846 10.018881 24.11343 0 36.752146-2.889677 50.148436-10.45555-.0177-8.3638909-.0299-16.6632014-.0299-25.075859 0-4.644787-3.72749-8.384092-8.35762-8.384092z" fill="url(#e)"/><g transform="matrix(1.31512805352 0 0 1.29271143892 -19.59095515512 -43.58241688581)"><path d="m35.813418 50.722162-.583009-16.052994 5.247082.875618-2.332037-6.71307 12.826202-7.588689-7.287615 7.880562 4.955578 1.459362 4.372569-2.33498 6.996109 4.086216 3.78956-3.794344 4.372569-.291872 2.040531 2.043108 5.10133-7.588688-.145752 10.215541 3.498055-.583745-.874513-2.334981 6.121596 1.16749-1.457524 2.918727 8.745137 4.961835-3.498055 17.804229-27.984438 3.502471z" fill="url(#f)"/><path d="m53.091873 28.618375 3.180212 12.190813 4.151943-7.685513 3.268551 8.03887v-12.279152l-3.445229 3.533568z" fill="#6c6c6c"/><path d="m48.144876 31.621908-7.067138 3.710248 5.565371-1.14841s-.441696 17.314488-.530035 16.696113c-.08834-.618375 2.120141-19.257951 2.031802-19.257951z" fill="#696969"/><path d="m77.915194 30.031802 4.770318 3.621909-5.388692.795053-.618375-1.634276 2.075972-.397527z" fill="#6b6b6b"/><path d="m49.823321 21.992933-11.484099 6.89046 3.533569.176678-2.473498 2.120141h8.657244l-5.830389-1.236749z" fill="#bdbdbd"/></g><g transform="matrix(1.31512805352 0 0 1.29271143892 -19.59095515512 -43.58241688581)"><path d="m54.15625 29.9375-4 .25a.88348055.88348055 0 0 0 -.75.5l-2.75 5.90625-1.59375-1.4375a.88348055.88348055 0 0 0 -1.40625.3125l-1.1875 2.75-4.09375-4.5a.88348055.88348055 0 0 0 -1.53125.59375v4.25l-.875.5625-1.78125-2.5625a.88348055.88348055 0 0 0 -1.15625-.28125l-6.71875 3.75a.88348055.88348055 0 0 0 -.28125 1.3125l4.71875 6.46875a.88348055.88348055 0 0 0 .59375.34375l31.5 4.75a.88348055.88348055 0 0 0 .96875-.625l1.75-6a.88348055.88348055 0 0 0 -.0625-.65625l-3-5.96875a.88348055.88348055 0 0 0 -.34375-.375l-4.40625-2.53125 1.1875-1.6875a.88348055.88348055 0 0 0 -.125-1.15625l-4-3.75a.88348055.88348055 0 0 0 -.65625-.21875z" filter="url(#g)" opacity=".3"/><path d="m31.482493 47.29488-4.74736-6.496387 6.746248-3.747916 2.24875 3.248194 1.998888-1.249306v-4.74736l4.997221 5.496943 1.749028-3.997776 2.49861 2.248749 3.248194-6.996109 3.997777-.249861 3.997777 3.747915-1.749028 2.498611 5.247082 2.998332 2.998333 5.996666-1.749027 5.996665z" fill="url(#h)"/><path d="m44.611307 37.09894 1.325089 9.187279.795053-7.243816z" fill="#a6a6a6"/><path d="m50.530035 31.975265 3.268551-.618374-2.385159 3.710247 4.151944 1.766785-7.773852 4.770318 5.123675-4.681979-3.621908-2.031802z" fill="#f9f9f9"/><path d="m38.162544 35.862191-.08834 6.89046 4.416961-1.855124-4.328622-5.035336z" fill="#e6e6e6"/></g><g transform="matrix(1.31512805352 0 0 1.29271143892 -19.59095515512 -43.58241688581)"><path d="m62.3125 26.1875a.88348055.88348055 0 0 0 -.34375 1.59375l5.71875 4.03125-2.59375 1.84375a.88348055.88348055 0 0 0 -.28125 1.125l.96875 1.8125-4.03125 1a.88348055.88348055 0 0 0 -.5625.40625l-3.25 5.96875a.88348055.88348055 0 0 0 .0625.9375l4 5.625a.88348055.88348055 0 0 0 .625.375l20.5 2.5a.88348055.88348055 0 0 0 .46875-.09375l16.46875-8a.88348055.88348055 0 0 0 .3125-1.34375l-4.5625-5.34375 3.0625-.6875a.88348055.88348055 0 0 0 .375-1.5625l-3.875-3.125-.0625-.0625-.0625-.0625-2.125-2.625a.88348055.88348055 0 0 0 -1.21875-.15625l-3.75 2.75a.88348055.88348055 0 0 0 -.34375.625l-.21875 2-1.625-2.84375a.88348055.88348055 0 0 0 -.65625-.4375l-3.96875-.5a.88348055.88348055 0 0 0 -.78125.28125l-1.625 1.78125-1.96875-3.875 1-1.59375a.88348055.88348055 0 0 0 -.78125-1.34375s-1.432745.03127-3.09375.03125c-1.661005-.000017-3.574479-.04951-4.375-.15625-2.018317-.26911-7.15625-.875-7.15625-.875a.88348055.88348055 0 0 0 -.25 0z" filter="url(#j)" opacity=".3"/><path d="m62.715124 50.043352-3.997777-5.621874 3.248193-5.996666 5.122152-1.249304-1.499167-2.810937 3.622987-2.561076-6.746249-4.74736s5.124267.608276 7.12104.874513c1.873957.249862 7.620762.124931 7.620762.124931l-1.249306 1.998889 2.748472 5.496943 2.498609-2.748472 3.99778.499722 2.99833 5.247082.49972-4.74736 3.74792-2.748471 2.24875 2.748471 3.99778 3.248194-4.4975.999444 5.49694 6.496388-16.49083 7.995553z" fill="url(#k)"/><path d="m75.088339 30.29682-4.946997 1.590106 5.830389 2.120142-4.416961 2.650176 8.833922 7.597173-6.007067-7.067137 2.473498-3.180212-3.533569-2.120142z" fill="#b3b3b3"/><path d="m66.607774 34.537103 3.445229-2.385159 5.477032 1.766784z" fill="#fff"/><path d="m81.537102 33.918728-2.738516 2.826855 3.621908 7.773852z" fill="#f7f7f7"/><path d="m82.86219 34.625442 3.975265 9.09894 3.621909-3.35689-.706714-5.918728 3.268551 6.80212-6.272085 7.508834z" fill="#909090"/></g><g transform="matrix(1.31512805352 0 0 1.29271143892 -14.33044294103 -43.58241688581)"><path d="m55.5 37.6875a.88788697.88788697 0 0 0 -.28125.15625l-4 2.75a.88788697.88788697 0 0 0 -.1875.15625l-1.8125 2.1875-2.125-.9375a.88788697.88788697 0 0 0 -.8125.03125l-5.25 2.96875a.88788697.88788697 0 0 0 -.3125 1.25l3.5 5.5a.88788697.88788697 0 0 0 .34375.3125l13.5 7a.88788697.88788697 0 0 0 .6875.0625l22.5-7.25a.88788697.88788697 0 0 0 .4375-1.34375l-7.5-10.96875a.88788697.88788697 0 0 0 -.59375-.375l-5.5-.75a.88788697.88788697 0 0 0 -.8125.3125l-3.46875 4.1875-.75-2.40625a.88788697.88788697 0 0 0 -1.375-.4375l-2.09375 1.53125-3.21875-3.65625a.88788697.88788697 0 0 0 -.875-.28125z" filter="url(#g)" opacity=".3"/><path d="m44.974989 51.292657-3.498054-5.496943 5.247082-2.998333 2.748471 1.249305 2.24875-2.748471 3.997777-2.748472 3.747915 4.247638 2.748472-1.998888 1.249305 3.997777 4.497499-5.496944 5.496943.749584 7.495832 10.993886-22.487495 7.24597z" fill="#f2f2f2"/><path d="m55.56537 39.4841.971732 12.985865 2.208481-9.363958c.478871.331639-2.120142-2.414605-3.180213-3.621907z" fill="#c9c9c9"/><path d="m61.749116 41.69258s-.441696 10.865724-.353357 10.070671c.08834-.795053 1.678446-6.272085 1.678446-6.272085z" fill="#c9c9c9"/><path d="m68.286219 39.925795 1.766784 6.625442 3.180212-5.918727z" fill="#dbdbdb"/></g></g><g><path d="m15.647727-26.375001c-4.532727 0-8.1818179 3.649091-8.1818179 8.181818v98.181819c0 4.532728 3.6490909 8.181818 8.1818179 8.181818h98.181823c4.53272 0 8.18181-3.64909 8.18181-8.181818v-98.181819c0-4.532727-3.64909-8.181818-8.18181-8.181818zm6.479936 5.811435h84.545457c4.53273 0 8.18182 3.649091 8.18182 8.181818 0 8.2096952.012 16.3087776.0293 24.47088-13.11451 7.383343-25.48736 10.203303-49.093576 10.203303-23.136078 0-38.657872-2.643199-51.815518-9.777166 0-8.2768162-.07287-16.5849468-.0293-24.897017 0-4.532727 3.649094-8.181818 8.181819-8.181818z" fill="url(#l)"/><path d="m15.647727-26.375001c-4.532727 0-8.1818179 3.649091-8.1818179 8.181818v98.181819c0 4.532728 3.6490909 8.181818 8.1818179 8.181818h98.181823c4.53272 0 8.18181-3.64909 8.18181-8.181818v-98.181819c0-4.532727-3.64909-8.181818-8.18181-8.181818z" fill="url(#m)"/><g fill-rule="evenodd" transform="matrix(.7118644 0 0 .7118644 2.440678 7.299789)"><path d="m167.96835 11.875677c-18.42279 10.371836-47.84741 17.088069-81.008528 17.088069-32.500681 0-61.417208-6.469954-79.9005687-16.491478v4.331844c18.4833607 10.021523 47.3998877 16.491477 79.9005687 16.491477 33.161118 0 62.585738-6.716232 81.008528-17.088068z" fill="#a4a4a4"/><path d="m167.96835 16.207521c-18.42279 10.371836-47.84741 17.088068-81.008528 17.088068-32.500681 0-61.417208-6.469954-79.9005687-16.491477v4.329518c18.4833607 10.021523 47.3998877 16.491477 79.9005687 16.491477 33.161118 0 62.585738-6.716232 81.008528-17.088068z" fill="#e8e8e8"/></g><path d="m15.647727-26.375001c-4.532727 0-8.1818179 3.649091-8.1818179 8.181818v2.727273 92.727273 2.727273c0 .456437.056386.887318.127841 1.321023.066409.403091.1323272.813968.2556818 1.193182.013473.04145.028489.08673.042614.127773.1348159.392413.3202912.746522.5113637 1.107954.1971706.372968.4303855.730391.6818181 1.065341s.5096953.645641.8096591.9375c.5999272.583718 1.2857862 1.110723 2.0454542 1.491477.379834.190378.782009.33675 1.193182.46875-.349366-.136663-.663697-.322186-.980114-.511363-.0101-.0055-.03254.0055-.04261 0-.04354-.02632-.08495-.05796-.127841-.08523-.164178-.104589-.315034-.222966-.468753-.340907-.144781-.110182-.290838-.219695-.426137-.340909-.242631-.220132-.473808-.470986-.681818-.724432-.146698-.177627-.29781-.361759-.4261363-.553977-.0342123-.052364-.0524263-.117136-.0852273-.170454-.0883131-.140496-.1775829-.278891-.2556818-.426137-.1377386-.265513-.2804656-.566863-.3835227-.852273-.010855-.02973-.032167-.05523-.042614-.08523-.043398-.12525-.048825-.2547-.085227-.383454-.0413621-.145388-.0959855-.276856-.1278408-.426134-.0993799-.465695-.1704546-.952091-.1704546-1.448863v-2.727273-92.727274-2.727273c0-3.793429 3.0247525-6.818181 6.8181815-6.818181h2.727273 92.72727 2.72728c3.79343 0 6.81818 3.024752 6.81818 6.818181v2.727273 92.727274 2.727273c0 .496772-.0711.983168-.17046 1.448863-.0602.282123-.12051.542264-.21306.809659-.0105.03-.0318.0555-.0426.08523-.0856.236918-.1887.501068-.29829.724431-.0567.11291-.10779.23175-.17046.34091-.0745.132545-.17287.25684-.25568.383522-.12833.192218-.27944.37635-.42614.553978-.19523.237886-.41337.473181-.6392.681818-.0152.01391-.0272.02891-.0426.04255-.18871.171218-.38876.319691-.5966.46875-.13986.09968-.27861.209127-.42613.298296-.0101.0055-.0325-.0055-.0426 0-.31641.189177-.63074.3747-.98011.511363.41117-.132.81335-.278372 1.19318-.46875.75967-.380754 1.44553-.907759 2.04546-1.491477.29996-.291859.55822-.60255.80966-.9375.25143-.33495.48464-.692373.68181-1.065341.19108-.361432.37655-.715541.51137-1.107954.0142-.042.0291-.0855.0426-.127773.12336-.379214.18927-.790091.25568-1.193182.0715-.433705.12784-.864586.12784-1.321023v-2.727273-92.727273-2.727273c0-4.532727-3.64909-8.181818-8.18181-8.181818z" fill="url(#n)" opacity=".5"/><path d="m15.647727 88.170454c-4.532727 0-8.1818179-3.64909-8.1818179-8.181818v-2.727273-92.727273-2.727273c0-.456438.056386-.887318.127841-1.321023.066409-.403085.1323272-.813975.2556818-1.193181.013473-.04143.028489-.08673.042614-.127841.1348159-.392415.3202912-.746526.5113637-1.107955.1971706-.372964.4303855-.730384.6818181-1.065341s.5096953-.645644.8096591-.9375c.5999272-.583713 1.2857862-1.110717 2.0454542-1.491477.379834-.19038.782009-.336746 1.193182-.46875-.349367.136666-.663697.322189-.980114.511363-.01009.006-.03255-.0061-.04261 0-.04354.02632-.08494.05797-.127841.08523-.164175.104591-.315032.222972-.46875.340909-.144782.110182-.290838.219698-.426137.340909-.242632.220136-.473809.470984-.681818.724432-.146699.17762-.29781.361752-.4261359.553977-.034212.05234-.052426.117095-.085227.170455-.088313.140498-.1775829.278886-.2556818.426136-.1377386.265508-.2804656.566865-.3835227.852273-.010855.02974-.032167.0553-.042614.08523-.043398.125386-.048824.25477-.085227.383523-.041362.145388-.095986.27686-.1278409.426136-.09938.465698-.1704546.952098-.1704546 1.448864v2.727272 92.727274 2.727273c0 3.793432 3.0247529 6.818182 6.8181819 6.818182h2.727273 92.727266 2.72728c3.79343 0 6.81818-3.02475 6.81818-6.818182v-2.727273-92.727274-2.727272c0-.496766-.0711-.983166-.17046-1.448864-.0602-.282127-.12051-.542261-.21306-.809659-.0105-.02993-.0318-.05549-.0426-.08523-.0856-.236917-.1887-.501067-.29829-.724432-.0567-.112909-.10779-.231756-.17046-.340909-.0745-.132559-.17287-.256841-.25568-.383523-.12833-.192225-.27944-.376357-.42614-.553977-.19523-.237887-.41337-.473179-.6392-.681818-.0152-.01391-.0272-.02884-.0426-.04261-.18871-.171213-.38876-.319686-.5966-.46875-.13986-.09975-.27861-.209133-.42613-.298296-.0101-.0061-.0325.006-.0426 0-.31641-.189174-.63074-.374697-.98011-.511363.41117.132.81335.27837 1.19318.46875.75967.38076 1.44553.907764 2.04546 1.491477.29996.291856.55822.602543.80966.9375.25143.334957.48464.692377.68181 1.065341.19108.361429.37655.71554.51137 1.107955.0142.04197.0291.08555.0426.127841.12336.379206.18927.790096.25568 1.193181.0715.433705.12784.864585.12784 1.321023v2.727273 92.727273 2.727273c0 4.532728-3.64909 8.181818-8.18181 8.181818z" fill="url(#o)" opacity=".3"/></g><g transform="matrix(1.3636364 0 0 1.3636364 -.715909 -33.1931834)"><path d="m75.778112 90.690282 6.331728-11.357102.0301 4.153571 13.32572-.03009c2.381109-.252345 4.468715-1.220077 5.98052-3.03994-4.82499 9.868303-6.214719 16.850853-16.225668 16.855073h-3.080572l-.0301 4.615066-6.331728-11.196576zm14.50003-8.958701-5.880177-10.835396 11.880769-7.193494 5.749716 11.517614c.17409 2.756344-4.276921 6.591993-7.03956 6.562155zm-36.130683-24.001691 6.070024-9.095652c5.887367-2.192329 9.297705 2.540579 11.45008 5.523983l-5.719617 10.975852zm23.98171 4.527497c-1.220865-2.877741-2.852085-6.169487-4.891922-9.031583-1.826241-2.562393-4.032809-4.798031-5.704429-5.796859l15.352678-.03009c2.757154.247485 4.096834 1.8546 5.559059 4.053238l2.207565 3.882684 3.411713-2.177108-6.422024 11.437374-13.84751.03009 4.33487-2.367748zm-21.24424 4.246398 7.342774 10.731394-3.73163-1.825529-5.916252 11.938462c-.836067 2.24336-.900829 4.54314.05403 6.70769-6.682023-8.71903-12.312881-13.076862-7.851827-22.037427l1.373917-2.756768-4.117916-2.085235zm1.682452 16.972943 13.538353-.429582-.07542 13.840216-12.87471.0086c-2.545077-1.07352-3.993562-6.76734-2.734733-9.22628l2.146512-4.192914z" filter="url(#p)" opacity=".8" transform="matrix(.6207391 0 0 .6207391 2.663876 22.254842)"/><path d="m75.778112 92.690282 6.331728-11.357102.0301 4.153572 13.32572-.03009c2.381109-.25235 4.468715-1.22008 5.98052-3.039943-4.82499 9.868303-6.214719 16.850853-16.225668 16.855073h-3.080572l-.0301 4.615068zm14.50003-8.958701-5.880177-10.835396 11.880769-7.193494 5.749716 11.517614c.17409 2.756344-4.276921 6.591993-7.03956 6.562155zm-36.130683-24.001691 6.070024-9.095652c5.887367-2.192329 9.297705 2.540579 11.45008 5.523983l-5.719617 10.975852zm23.98171 4.527497c-1.220865-2.877741-2.852085-6.169487-4.891922-9.031583-1.826241-2.562393-4.032809-4.798031-5.704429-5.796859l15.352678-.03009c2.757154.247485 4.096834 1.8546 5.559059 4.053238l2.207565 3.882684 3.411713-2.177108-6.422024 11.437374-13.84751.03009 4.33487-2.367748zm-21.24424 4.246398 7.342774 10.731394-3.73163-1.825529-5.916252 11.938462c-.836067 2.24336-.900829 4.54314.05403 6.70769-6.682023-8.71903-12.312881-13.076862-7.851827-22.037427l1.373917-2.756768-4.117916-2.085235zm1.682452 16.972947 13.538353-.42959-.07542 13.84022-12.87471.0086c-2.545077-1.07352-3.993562-6.76734-2.734733-9.22628l2.146512-4.19291z" fill="#fff" filter="url(#p)" opacity=".8" transform="matrix(.6207391 0 0 .6207391 2.663876 22.013364)"/><g transform="matrix(.6207391 0 0 .6207391 8.274131 12.705176)"><path d="m66.740086 106.88012 6.331728-11.357102.0301 4.153571 13.32572-.03009c2.381109-.252345 4.468715-1.220077 5.98052-3.03994-4.82499 9.868301-6.214719 16.850851-16.225668 16.855071h-3.080572l-.0301 4.61507z" fill="url(#q)"/><path d="m81.240116 97.921419-5.880177-10.835396 11.880769-7.193494 5.749712 11.517614c.174089 2.756344-4.276917 6.591993-7.039556 6.562155z" fill="url(#s)"/><path d="m45.109433 73.919728 6.070024-9.095652c5.887367-2.192329 9.297705 2.540579 11.45008 5.523983l-5.719617 10.975852z" fill="url(#u)"/><path d="m69.091143 78.447225c-1.220865-2.877741-2.852085-6.169487-4.891922-9.031583-1.826241-2.562393-4.032809-4.798031-5.704429-5.796859l15.352678-.03009c2.757154.247485 4.096834 1.8546 5.559059 4.053238l2.207565 3.882684 3.411713-2.177108-6.422024 11.437374-13.84751.03009 4.33487-2.367748z" fill="url(#v)"/><path d="m47.846903 82.693623 7.342774 10.731394-3.73163-1.825529-5.916252 11.938462c-.836067 2.24336-.900829 4.54314.05403 6.70769-6.682019-8.71903-12.312877-13.076862-7.851823-22.037427l1.373917-2.756768-4.117916-2.085235 12.846904-.672587z" fill="url(#w)"/><path d="m49.529355 99.666566 13.538353-.429582-.07542 13.840216-12.87471.009c-2.545077-1.07352-3.993562-6.76734-2.734733-9.22628l2.146512-4.192914z" fill="url(#x)"/></g></g></g></svg>