<svg height="96" width="96" xmlns="http://www.w3.org/2000/svg" xmlns:xlink="http://www.w3.org/1999/xlink"><linearGradient id="a"><stop offset="0" stop-color="#fefefe"/><stop offset="1" stop-color="#fefefe" stop-opacity="0"/></linearGradient><linearGradient id="b" gradientUnits="userSpaceOnUse" x1="36.357143" x2="36.357143" xlink:href="#a" y1="6" y2="63.893143"/><filter id="c" color-interpolation-filters="sRGB" height="1.384" width="1.384" x="-.192" y="-.192"><feGaussianBlur stdDeviation="5.28"/></filter><linearGradient id="d" gradientUnits="userSpaceOnUse" x1="48" x2="48" xlink:href="#a" y1="20.220806" y2="138.66119"/><radialGradient id="e" cx="48" cy="90.171875" gradientTransform="matrix(1.1573129 0 0 .99590774 -7.551021 .197132)" gradientUnits="userSpaceOnUse" r="42" xlink:href="#a"/><clipPath id="f"><rect height="84" rx="6" width="84" x="6" y="6"/></clipPath><linearGradient id="g" gradientUnits="userSpaceOnUse" x1="48" x2="48" y1="90" y2="5.987717"><stop offset="0" stop-color="#580a50"/><stop offset="1" stop-color="#ee0dd6"/></linearGradient><linearGradient id="h" gradientTransform="matrix(1.0058652 0 0 .994169 100 0)" gradientUnits="userSpaceOnUse" x1="45.447727" x2="45.447727" y1="92.539597" y2="7.01654"><stop offset="0"/><stop offset="1" stop-opacity=".588235"/></linearGradient><linearGradient id="i" gradientTransform="matrix(1.0238095 0 0 1.0119048 -1.142857 -98.071429)" gradientUnits="userSpaceOnUse" x1="32.251034" x2="32.251034" xlink:href="#h" y1="6.131708" y2="90.238609"/><linearGradient id="j" gradientTransform="translate(0 -97)" gradientUnits="userSpaceOnUse" x1="32.251034" x2="32.251034" xlink:href="#h" y1="6.131708" y2="90.238609"/><clipPath id="k"><path d="m48 102c-19.88225 0-36 16.11775-36 36s16.11775 36 36 36 36-16.11775 36-36-16.11775-36-36-36zm0 24c6.62742 0 12 5.37258 12 12s-5.37258 12-12 12-12-5.37258-12-12 5.37258-12 12-12z"/></clipPath><filter id="l" color-interpolation-filters="sRGB" height="1.36" width="1.36" x="-.18" y="-.18"><feGaussianBlur stdDeviation="5.2159999"/></filter><clipPath id="m"><path d="m48 32c-19.882251 0-36 16.117749-36 36s16.117749 36 36 36 36-16.117749 36-36-16.117749-36-36-36zm0 24c6.627417 0 12 5.372583 12 12s-5.372583 12-12 12-12-5.372583-12-12 5.372583-12 12-12z"/></clipPath><filter id="n" color-interpolation-filters="sRGB" height="1.341402" width="1.380742" x="-.190371" y="-.170701"><feGaussianBlur stdDeviation="4.9476562"/></filter><radialGradient id="o" cx="59.893993" cy="61.92226" gradientTransform="matrix(0 .2906454 -.2924332 0 67.016278 30.818504)" gradientUnits="userSpaceOnUse" r="33.71384"><stop offset="0" stop-opacity="0"/><stop offset=".85000002" stop-opacity="0"/><stop offset="1"/></radialGradient><linearGradient id="p" gradientTransform="matrix(0 .2906454 -.34915584 0 70.528668 30.818504)" gradientUnits="userSpaceOnUse" x1="26.180153" x2="93.607834" y1="61.92226" y2="61.92226"><stop offset="0" stop-color="#fefefe" stop-opacity=".203125"/><stop offset="1" stop-color="#fefefe" stop-opacity=".679688"/></linearGradient><linearGradient id="q" gradientTransform="matrix(0 .16827027 -.20214285 0 61.425295 38.147932)" gradientUnits="userSpaceOnUse" x1="25.220379" x2="94.567612" y1="61.92226" y2="61.92226"><stop offset="0" stop-color="#4d4d4d"/><stop offset="1" stop-color="#fefefe"/></linearGradient><g fill="url(#i)"><path d="m12-95.03125c-5.5110903 0-10.03125 4.52016-10.03125 10.03125v71c0 5.5110902 4.5201598 10.03125 10.03125 10.03125h72c5.51109 0 10.03125-4.5201597 10.03125-10.03125v-71c0-5.51109-4.52016-10.03125-10.03125-10.03125z" opacity=".08" transform="scale(1 -1)"/><path d="m12-94.03125c-4.971633 0-9.03125 4.059617-9.03125 9.03125v71c0 4.9716329 4.0596171 9.03125 9.03125 9.03125h72c4.971633 0 9.03125-4.059617 9.03125-9.03125v-71c0-4.971633-4.059617-9.03125-9.03125-9.03125z" opacity=".1" transform="scale(1 -1)"/><path d="m12-93c-4.4091333 0-8 3.590867-8 8v71c0 4.4091333 3.5908667 8 8 8h72c4.409133 0 8-3.5908667 8-8v-71c0-4.409133-3.590867-8-8-8z" opacity=".2" transform="scale(1 -1)"/><rect height="85" opacity=".3" rx="7" transform="scale(1 -1)" width="86" x="5" y="-92"/></g><rect fill="url(#j)" height="84" opacity=".45" rx="6" transform="scale(1 -1)" width="84" x="6" y="-91"/><rect fill="url(#g)" height="84" rx="6" width="84" x="6" y="6"/><path d="m12 6c-3.324 0-6 2.676-6 6v2 68 2c0 .334721.04135.6507.09375.96875.0487.295596.09704.596915.1875.875.00988.03038.020892.0636.03125.09375.098865.287771.2348802.547452.375.8125.1445918.273507.3156161.535615.5.78125s.3737765.473472.59375.6875c.439947.428056.94291.814526 1.5 1.09375.278545.139612.5734731.246947.875.34375-.2562018-.100222-.4867109-.236272-.71875-.375-.00741-.0044-.023866.0045-.03125 0-.031933-.0193-.062293-.04251-.09375-.0625-.120395-.0767-.2310226-.163513-.34375-.25-.1061728-.0808-.2132809-.161112-.3125-.25-.1779299-.161433-.3474596-.345388-.5-.53125-.1075789-.130255-.2183939-.265285-.3125-.40625-.025089-.03838-.038446-.08587-.0625-.125-.064763-.103032-.1302275-.204517-.1875-.3125-.1010083-.194706-.2056748-.415701-.28125-.625-.00796-.02181-.023589-.04055-.03125-.0625-.0318251-.09195-.0358045-.186831-.0625-.28125-.0303323-.106618-.0703894-.203031-.09375-.3125-.0728786-.341512-.125-.698205-.125-1.0625v-2-68-2c0-2.781848 2.2181517-5 5-5h2 68 2c2.781848 0 5 2.218152 5 5v2 68 2c0 .364295-.05212.720988-.125 1.0625-.04415.206893-.08838.397658-.15625.59375-.0077.02195-.0233.04069-.03125.0625-.06274.173739-.138383.367449-.21875.53125-.04158.0828-.07904.169954-.125.25-.0546.09721-.126774.18835-.1875.28125-.09411.140965-.204921.275995-.3125.40625-.143174.17445-.303141.346998-.46875.5-.01117.0102-.01998.02115-.03125.03125-.138386.125556-.285091.234436-.4375.34375-.102571.07315-.204318.153364-.3125.21875-.0074.0045-.02384-.0044-.03125 0-.232039.138728-.462548.274778-.71875.375.301527-.0968.596455-.204138.875-.34375.55709-.279224 1.060053-.665694 1.5-1.09375.219973-.214028.409366-.441865.59375-.6875s.355408-.507743.5-.78125c.14012-.265048.276135-.524729.375-.8125.01041-.03078.02133-.06274.03125-.09375.09046-.278085.1388-.579404.1875-.875.0524-.31805.09375-.634029.09375-.96875v-2-68-2c0-3.324-2.676-6-6-6z" fill="url(#b)" opacity=".4"/><path d="m12 90c-3.324 0-6-2.676-6-6v-2-68-2c0-.334721.04135-.6507.09375-.96875.0487-.295596.09704-.596915.1875-.875.00988-.03038.020892-.0636.03125-.09375.098865-.287771.2348802-.547452.375-.8125.1445918-.273507.3156161-.535615.5-.78125s.3737765-.473472.59375-.6875c.439947-.428056.94291-.814526 1.5-1.09375.278545-.139612.5734731-.246947.875-.34375-.2562018.100222-.4867109.236272-.71875.375-.00741.0044-.023866-.0045-.03125 0-.031933.0193-.062293.04251-.09375.0625-.120395.0767-.2310226.163513-.34375.25-.1061728.0808-.2132809.161112-.3125.25-.1779299.161433-.3474596.345388-.5.53125-.1075789.130255-.2183939.265285-.3125.40625-.025089.03838-.038446.08587-.0625.125-.064763.103032-.1302275.204517-.1875.3125-.1010083.194706-.2056748.415701-.28125.625-.00796.02181-.023589.04055-.03125.0625-.0318251.09195-.0358045.186831-.0625.28125-.0303323.106618-.0703894.203031-.09375.3125-.0728786.341512-.125.698205-.125 1.0625v2 68 2c0 2.781848 2.2181517 5 5 5h2 68 2c2.781848 0 5-2.218152 5-5v-2-68-2c0-.364295-.05212-.720988-.125-1.0625-.04415-.206893-.08838-.397658-.15625-.59375-.0077-.02195-.0233-.04069-.03125-.0625-.06274-.173739-.138383-.367449-.21875-.53125-.04158-.0828-.07904-.169954-.125-.25-.0546-.09721-.126774-.18835-.1875-.28125-.09411-.140965-.204921-.275995-.3125-.40625-.143174-.17445-.303141-.346998-.46875-.5-.01117-.0102-.01998-.02115-.03125-.03125-.138386-.125556-.285091-.234436-.4375-.34375-.102571-.07315-.204318-.153364-.3125-.21875-.0074-.0045-.02384.0044-.03125 0-.232039-.138728-.462548-.274778-.71875-.375.301527.0968.596455.204138.875.34375.55709.279224 1.060053.665694 1.5 1.09375.219973.214028.409366.441865.59375.6875s.355408.507743.5.78125c.14012.265048.276135.524729.375.8125.01041.03078.02133.06274.03125.09375.09046.278085.1388.579404.1875.875.0524.31805.09375.634029.09375.96875v2 68 2c0 3.324-2.676 6-6 6z" fill="url(#e)" opacity=".2"/><rect height="66" rx="12" style="opacity:.1;stroke:#fefefe;stroke-width:.5;stroke-linecap:round;clip-path:url(#f);fill:url(#d);filter:url(#c)" width="66" x="15" y="15"/><path d="m48.908152 12.226311c-19.882251 0-36 16.117749-36 36.000004 0 19.88225 16.117749 36 36 36 19.882246 0 35.999996-16.11775 35.999996-36 0-19.882255-16.11775-36.000004-35.999996-36.000004zm0 24c6.627417 0 12 5.372583 12 12.000004 0 6.62741-5.372583 12-12 12s-12-5.37259-12-12c0-6.627421 5.372583-12.000004 12-12.000004z" fill="#bbb1bf"/><path d="m48.908152 36.226311c-6.627417 0-12 5.372583-12 12.000004 0 6.62741 5.372583 12 12 12s12-5.37259 12-12c0-6.627421-5.372583-12.000004-12-12.000004zm0 7c2.761424 0 5 2.238576 5 5.000004 0 2.76142-2.238576 5-5 5s-5-2.23858-5-5c0-2.761428 2.238576-5.000004 5-5.000004z" fill="#fefefe" opacity=".3"/><path d="m48.908153 53.726315a5.5000023 5.5000025 0 1 1 0-11.000005 5.5000023 5.5000025 0 1 1 0 11.000005z" fill="none" opacity=".6" stroke="url(#q)" stroke-linecap="round"/><path d="m48.908152 57.726315a9.5000015 9.4998955 0 1 1 0-18.999791 9.5000015 9.4998955 0 1 1 0 18.999791z" fill="url(#o)" fill-rule="evenodd" opacity=".5" stroke="url(#p)" stroke-linecap="round"/><path clip-path="url(#m)" d="m57.3125 33.21875-9.3125 34.78125 31.1875-18c-4.773897-8.268632-12.65254-14.310099-21.875-16.78125zm-9.3125 34.78125-31.1875 18c4.773897 8.268632 12.65254 14.3101 21.875 16.78125z" fill="#fefefe" filter="url(#n)" opacity=".8" transform="translate(.908152 -19.773689)"/><g clip-path="url(#k)" filter="url(#l)" opacity=".6" transform="translate(.908152 -89.773689)"><path d="m60.947452 57.784124a20.708128 18.814091 0 0 1 -2.615496 2.905857l-14.642858-13.303571z" fill="#7137c8" transform="matrix(1.5055399 .86922388 -.95672979 1.6571045 27.560302 21.500167)"/><path d="m60.779363 58.010828a20.708128 18.814091 0 0 1 -3.384016 3.478847l-13.706249-14.103265z" fill="#0cf" transform="matrix(1.6792116 .4499434 -.49523981 1.8482599 -1.895609 30.759984)"/><path d="m62.72377 54.795738a20.708128 18.814091 0 0 1 -2.259683 3.622054l-16.774989-11.031382z" fill="#fc0" transform="matrix(1.7384478 0 -.00000006 1.9134595 -27.951218 47.328031)"/><path d="m61.622863 56.793455a20.708128 18.814091 0 0 1 -1.699251 2.272761l-16.234514-11.679806z" fill="#f00" transform="matrix(1.6792116 -.4499434 .4952397 1.84826 -48.830877 70.075223)"/><path d="m63.123303 53.883448a20.708128 18.814091 0 0 1 -2.370014 4.161918l-17.064191-10.658956z" fill="#0f0" transform="matrix(1.6792116 .4499434 -.49523981 1.8482599 -1.895609 30.759984)"/><path d="m60.947452 57.784124a20.708128 18.814091 0 0 1 -2.615496 2.905857l-14.642858-13.303571z" fill="#7137c8" transform="matrix(-1.5055399 -.86922388 .95672979 -1.6571045 68.439684 254.49984)"/><path d="m60.779363 58.010828a20.708128 18.814091 0 0 1 -3.384016 3.478847l-13.706249-14.103265z" fill="#0cf" transform="matrix(-1.6792116 -.4499434 .49523981 -1.8482599 97.895595 245.24003)"/><path d="m62.72377 54.795738a20.708128 18.814091 0 0 1 -2.259683 3.622054l-16.774989-11.031382z" fill="#fc0" transform="matrix(-1.7384478 0 .00000006 -1.9134595 123.9512 228.67198)"/><path d="m61.622863 56.793455a20.708128 18.814091 0 0 1 -1.699251 2.272761l-16.234514-11.679806z" fill="#f00" transform="matrix(-1.6792116 .4499434 -.4952397 -1.84826 144.83086 205.92479)"/><path d="m63.123303 53.883448a20.708128 18.814091 0 0 1 -2.370014 4.161918l-17.064191-10.658956z" fill="#0f0" transform="matrix(-1.6792116 -.4499434 .49523981 -1.8482599 97.895595 245.24003)"/></g><path d="m48.908152 33.726311c-8.008129 0-14.5 6.491871-14.5 14.500004 0 8.00813 6.491871 14.5 14.5 14.5s14.5-6.49187 14.5-14.5c0-8.008133-6.491871-14.500004-14.5-14.500004zm0 2.5c6.627417 0 12 5.372583 12 12.000004 0 6.62741-5.372583 12-12 12s-12-5.37259-12-12c0-6.627421 5.372583-12.000004 12-12.000004z" opacity=".2"/><path d="m48.908152 12.226311c-19.88225 0-36 16.117749-36 36.000004 0 .33707.022.66515.0312 1 .53379-19.416219 16.42362-35.000004 35.9688-35.000004 19.545186 0 35.435006 15.583785 35.968746 35.000004.009-.33485.0312-.66293.0312-1 0-19.882255-16.11775-36.000004-35.999996-36.000004z" fill="#fefefe" opacity=".4"/></svg>