<svg height="96" width="96" xmlns="http://www.w3.org/2000/svg" xmlns:xlink="http://www.w3.org/1999/xlink"><linearGradient id="a" gradientTransform="matrix(1.0058652 0 0 .994169 100 0)" gradientUnits="userSpaceOnUse" x1="45.447727" x2="45.447727" y1="92.539597" y2="7.01654"><stop offset="0"/><stop offset="1" stop-opacity=".588235"/></linearGradient><linearGradient id="b" gradientTransform="matrix(1.0238095 0 0 1.0119048 -1.142857 -98.071429)" gradientUnits="userSpaceOnUse" x1="32.251034" x2="32.251034" xlink:href="#a" y1="6.131708" y2="90.238609"/><linearGradient id="c" gradientTransform="translate(0 -97)" gradientUnits="userSpaceOnUse" x1="32.251034" x2="32.251034" xlink:href="#a" y1="6.131708" y2="90.238609"/><linearGradient id="d"><stop offset="0" stop-color="#fcda5d"/><stop offset="1" stop-color="#fcda5d" stop-opacity="0"/></linearGradient><linearGradient id="e"><stop offset="0" stop-color="#2b1c13"/><stop offset="1" stop-color="#2b1c13" stop-opacity="0"/></linearGradient><filter id="f" color-interpolation-filters="sRGB" height="1.157965" width="3.264906" x="-1.132453" y="-.078982"><feGaussianBlur stdDeviation="1.7361749"/></filter><linearGradient id="g"><stop offset="0" stop-color="#ffdd5e"/><stop offset="1" stop-color="#ffdd5e" stop-opacity="0"/></linearGradient><filter id="h" color-interpolation-filters="sRGB" height="1.363963" width="1.352968" x="-.176484" y="-.181982"><feGaussianBlur stdDeviation="1.3318564"/></filter><linearGradient id="i"><stop offset="0" stop-color="#fefefe"/><stop offset="1" stop-color="#fefefe" stop-opacity="0"/></linearGradient><linearGradient id="j"><stop offset="0" stop-color="#e5db9d"/><stop offset="1" stop-color="#e5db9d" stop-opacity="0"/></linearGradient><linearGradient id="k"><stop offset="0" stop-color="#bd8d6e"/><stop offset="1" stop-color="#bd8d6e" stop-opacity="0"/></linearGradient><linearGradient id="l"><stop offset="0" stop-color="#1f150e"/><stop offset="1" stop-color="#1f150e" stop-opacity="0"/></linearGradient><linearGradient id="m"><stop offset="0"/><stop offset="1" stop-opacity="0"/></linearGradient><linearGradient id="n"><stop offset="0" stop-color="#b08163"/><stop offset="1" stop-color="#b08163" stop-opacity="0"/></linearGradient><linearGradient id="o"><stop offset="0" stop-color="#efea94"/><stop offset="1" stop-color="#efea94" stop-opacity="0"/></linearGradient><linearGradient id="p" gradientUnits="userSpaceOnUse" x1="50.957497" x2="50.929363" y1="10.902484" y2="99.61763"><stop offset="0"/><stop offset="1" stop-color="#4e4e4e"/></linearGradient><linearGradient id="q" gradientTransform="matrix(-1.0180373 0 0 .99931366 215.74609 -12.42778)" gradientUnits="userSpaceOnUse" x1="58.204136" x2="64.930923" y1="49.911224" y2="47.903038"><stop offset="0" stop-color="#67633d"/><stop offset="1" stop-color="#a58c6d"/></linearGradient><linearGradient id="r" gradientTransform="matrix(1.2870072 0 0 1.2022531 101.31533 -16.937395)" gradientUnits="userSpaceOnUse" x1="39.59798" x2="61.164738" y1="74.96357" y2="74.96357"><stop offset="0" stop-color="#554532"/><stop offset=".55795956" stop-color="#9b7e5b"/><stop offset="1" stop-color="#5e4d38"/></linearGradient><linearGradient id="s" gradientTransform="matrix(1.3941748 0 0 .81261678 97.272705 8.107033)" gradientUnits="userSpaceOnUse" x1="47.762913" x2="47.841682" y1="62.787418" y2="65.055725"><stop offset="0" stop-color="#1a150f"/><stop offset="1" stop-color="#1a150f" stop-opacity="0"/></linearGradient><linearGradient id="t" gradientTransform="matrix(1.0641364 0 0 1.2877291 112.23769 -22.370937)" gradientUnits="userSpaceOnUse" x1="54.069805" x2="53.364769" y1="54.169132" y2="66.169136"><stop offset="0" stop-color="#4b3d2c"/><stop offset="1" stop-color="#6a563e"/></linearGradient><linearGradient id="u" gradientTransform="matrix(1.0355116 0 0 1.0151346 114.85266 -.196966)" gradientUnits="userSpaceOnUse" x1="35.906479" x2="49.563107" y1="47.917667" y2="48.851452"><stop offset="0" stop-color="#7d6648"/><stop offset="1" stop-color="#7d6648" stop-opacity="0"/></linearGradient><linearGradient id="v" gradientTransform="matrix(-1.0355116 0 0 1.0151346 218.27339 .686313)" gradientUnits="userSpaceOnUse" x1="39.406876" x2="46.12347" y1="44.067242" y2="47.218765"><stop offset="0" stop-color="#3b3022"/><stop offset="1" stop-color="#3b3022" stop-opacity="0"/></linearGradient><linearGradient id="w" gradientTransform="matrix(.99932111 0 0 .99931366 115.72894 .571543)" gradientUnits="userSpaceOnUse" x1="58.905415" x2="59.358196" y1="54.722641" y2="52.424545"><stop offset="0" stop-color="#efea94"/><stop offset="1" stop-color="#cfc8ad" stop-opacity="0"/></linearGradient><linearGradient id="x" gradientTransform="matrix(.84635397 .19202379 -.19617697 .86464646 132.65699 -19.225259)" gradientUnits="userSpaceOnUse" x1="29.735254" x2="57.506596" y1="51.290073" y2="32.790073"><stop offset="0" stop-color="#6f4a31"/><stop offset="1" stop-color="#62402a"/></linearGradient><radialGradient id="y" cx="35.090176" cy="38.370796" gradientTransform="matrix(.16466296 .00151491 -.27849996 .30499196 182.86476 14.3335)" gradientUnits="userSpaceOnUse" r="7.51301" xlink:href="#l"/><radialGradient id="z" cx="35.090176" cy="38.370796" gradientTransform="matrix(.45764294 .0295944 -1.078836 .53766482 197.64449 8.996017)" gradientUnits="userSpaceOnUse" r="7.51301" xlink:href="#k"/><radialGradient id="A" cx="35.090176" cy="38.370796" gradientTransform="matrix(.16466296 .00151491 -.27849996 .30499196 184.38945 17.810569)" gradientUnits="userSpaceOnUse" r="7.51301" xlink:href="#l"/><radialGradient id="B" cx="35.090176" cy="38.370796" gradientTransform="matrix(.34730879 .01247091 -1.2958238 .86633711 209.87324 1.51304)" gradientUnits="userSpaceOnUse" r="7.51301" xlink:href="#l"/><linearGradient id="C" gradientTransform="matrix(1.0180373 0 0 .99931366 113.95436 -12.42778)" gradientUnits="userSpaceOnUse" x1="61.168327" x2="67.926292" y1="46.944401" y2="47.651512"><stop offset="0" stop-color="#705b42"/><stop offset="1" stop-color="#a58c6d"/></linearGradient><radialGradient id="D" cx="35.090176" cy="38.370796" gradientTransform="matrix(.211295 .28388631 -.44605985 .04611888 185.74221 11.945066)" gradientUnits="userSpaceOnUse" r="7.51301" xlink:href="#l"/><linearGradient id="E" gradientTransform="matrix(.95833329 0 0 .89258146 117.8109 5.823211)" gradientUnits="userSpaceOnUse" x1="66.056862" x2="66.251801" xlink:href="#m" y1="21.048689" y2="19.897156"/><radialGradient id="F" cx="35.090176" cy="38.370796" gradientTransform="matrix(.78524502 .43139639 -2.1690788 .58529002 213.54008 -4.291481)" gradientUnits="userSpaceOnUse" r="7.51301" xlink:href="#k"/><radialGradient id="G" cx="15.8125" cy="48.0625" gradientTransform="matrix(.95871844 .35522513 -.15901613 .44029887 124.48918 23.302816)" gradientUnits="userSpaceOnUse" r="10.0625" xlink:href="#m"/><radialGradient id="H" cx="35.090176" cy="38.370796" gradientTransform="matrix(.50623394 .40259756 -1.6913326 .53840086 206.53022 4.121638)" gradientUnits="userSpaceOnUse" r="7.51301" xlink:href="#l"/><radialGradient id="I" cx="35.090176" cy="38.370796" gradientTransform="matrix(.33425588 -.0544941 -1.0743587 1.0521573 176.13263 8.121568)" gradientUnits="userSpaceOnUse" r="7.51301" xlink:href="#l"/><linearGradient id="J" gradientTransform="matrix(.56730471 .14856757 -.11102606 .56483301 130.32948 6.868192)" gradientUnits="userSpaceOnUse" x1="10.66655" x2="25.044115" y1="79.420532" y2="92.999924"><stop offset="0" stop-color="#4e4729"/><stop offset="1" stop-color="#696342"/></linearGradient><radialGradient id="K" cx="22.231243" cy="58.851971" gradientTransform="matrix(-.89517524 -.90078465 .95230015 -.92590858 96.20606 141.2456)" gradientUnits="userSpaceOnUse" r="11.180935" xlink:href="#o"/><linearGradient id="L" gradientTransform="matrix(.69952475 0 0 .78973188 130.88608 18.963512)" gradientUnits="userSpaceOnUse" x1="47.022602" x2="52.325905" y1="78.057167" y2="78.057167"><stop offset="0" stop-color="#95846e"/><stop offset="1" stop-color="#c8baa8"/></linearGradient><radialGradient id="M" cx="40.394608" cy="47.612804" gradientTransform="matrix(.1676077 -.64543566 .15218094 .65108752 141.14705 69.194218)" gradientUnits="userSpaceOnUse" r="9.055947" xlink:href="#j"/><radialGradient id="N" cx="87.375" cy="71.75" gradientTransform="matrix(.44275714 0 0 .40350848 126.77434 41.787354)" gradientUnits="userSpaceOnUse" r="24.625" xlink:href="#g"/><radialGradient id="O" cx="40.394608" cy="47.612804" gradientTransform="matrix(.39759774 -.73932296 .3610025 .74579694 145.70073 67.944098)" gradientUnits="userSpaceOnUse" r="9.055947"><stop offset="0" stop-color="#382f23"/><stop offset="1" stop-color="#382f23" stop-opacity="0"/></radialGradient><radialGradient id="P" cx="40.394608" cy="47.612804" gradientTransform="matrix(.22098857 -.73932296 .20064859 .74579693 134.55601 66.354218)" gradientUnits="userSpaceOnUse" r="9.055947"><stop offset="0" stop-color="#3c3124"/><stop offset="1" stop-color="#3c3124" stop-opacity="0"/></radialGradient><radialGradient id="Q" cx="40.394608" cy="47.612804" gradientTransform="matrix(.69020227 -.04125239 -.69624612 -.03745548 171.46405 89.83699)" gradientUnits="userSpaceOnUse" r="9.055947" xlink:href="#j"/><radialGradient id="R" cx="40.394608" cy="47.612804" gradientTransform="matrix(1.0694492 .13343588 -1.0788139 .12115433 175.63988 47.23753)" gradientUnits="userSpaceOnUse" r="9.055947" xlink:href="#j"/><linearGradient id="S" gradientTransform="matrix(.05390122 0 0 .13599144 160.82083 63.921251)" gradientUnits="userSpaceOnUse" x1="89.338524" x2="94.270683" y1="93.884216" y2="34.859646"><stop offset="0" stop-color="#d9c48a"/><stop offset="1" stop-color="#ffdd5e" stop-opacity="0"/></linearGradient><radialGradient id="T" cx="87.375" cy="71.75" gradientTransform="matrix(.55658203 0 0 .49969252 117.28462 35.380995)" gradientUnits="userSpaceOnUse" r="24.625" xlink:href="#g"/><radialGradient id="U" cx="55.596272" cy="13.533671" gradientTransform="matrix(1.4650991 0 0 1.0901726 88.861188 -1.710027)" gradientUnits="userSpaceOnUse" r="1.856155" xlink:href="#e"/><radialGradient id="V" cx="55.596272" cy="13.533671" gradientTransform="matrix(1.4962212 0 0 1.0037672 81.587705 -1.970179)" gradientUnits="userSpaceOnUse" r="1.856155" xlink:href="#e"/><radialGradient id="W" cx="248.375" cy="179.51294" gradientTransform="matrix(1.0358155 -.93499112 .41308502 .42453619 -174.12982 205.24816)" gradientUnits="userSpaceOnUse" r="8.375"><stop offset="0" stop-color="#fad95d"/><stop offset="1" stop-color="#fad95d" stop-opacity="0"/></radialGradient><radialGradient id="X" cx="87.375" cy="71.75" gradientTransform="matrix(.77747429 0 0 .60517067 98.322465 26.72923)" gradientUnits="userSpaceOnUse" r="24.625" xlink:href="#g"/><radialGradient id="Y" cx="248.375" cy="179.51294" gradientTransform="matrix(1.1926432 -1.0235752 .29314463 .02565232 -215.67974 315.54508)" gradientUnits="userSpaceOnUse" r="8.375" xlink:href="#d"/><radialGradient id="Z" cx="35.090176" cy="38.370796" gradientTransform="matrix(.30676341 1.1725035 -1.6810579 1.1803965 208.86403 -57.199239)" gradientUnits="userSpaceOnUse" r="7.51301" xlink:href="#k"/><radialGradient id="aa" cx="35.090176" cy="38.370796" gradientTransform="matrix(.26780971 1.1504381 -1.4675924 1.1581825 203.19001 -59.958449)" gradientUnits="userSpaceOnUse" r="7.51301" xlink:href="#k"/><radialGradient id="ab" cx="35.090176" cy="38.370796" gradientTransform="matrix(.54644116 -.10996327 -1.7563606 2.1231411 189.68187 -51.288211)" gradientUnits="userSpaceOnUse" r="7.51301" xlink:href="#l"/><radialGradient id="ac" cx="35.090176" cy="38.370796" gradientTransform="matrix(.61341088 -.12034573 -1.9716134 2.3236028 198.72293 -58.820515)" gradientUnits="userSpaceOnUse" r="7.51301" xlink:href="#l"/><radialGradient id="ad" cx="35.090176" cy="38.370796" gradientTransform="matrix(.47068193 .02211018 -.52906294 .82562346 173.52915 -6.806265)" gradientUnits="userSpaceOnUse" r="7.51301" xlink:href="#l"/><radialGradient id="ae" cx="35.090176" cy="38.370796" gradientTransform="matrix(.00830441 .83688188 -1.2124711 .58822758 205.41661 -31.945588)" gradientUnits="userSpaceOnUse" r="7.51301" xlink:href="#k"/><radialGradient id="af" cx="35.090176" cy="38.370796" gradientTransform="matrix(.3064136 .01298167 -.34441954 .48475272 174.21408 6.87538)" gradientUnits="userSpaceOnUse" r="7.51301" xlink:href="#m"/><radialGradient id="ag" cx="35.090176" cy="38.370796" gradientTransform="matrix(.22135634 .29042866 -.73955375 .38839536 193.01817 -2.712264)" gradientUnits="userSpaceOnUse" r="7.51301" xlink:href="#l"/><radialGradient id="ah" cx="248.375" cy="179.51294" gradientTransform="matrix(.34039685 -1.1380286 .12793163 -.03655313 71.806668 332.39208)" gradientUnits="userSpaceOnUse" r="8.375" xlink:href="#d"/><radialGradient id="ai" cx="41.630913" cy="16.892427" gradientTransform="matrix(.58278794 .9274556 -1.7910066 1.2464194 160.80338 -45.390146)" gradientUnits="userSpaceOnUse" r="2.740039" xlink:href="#m"/><radialGradient id="aj" cx="35.090176" cy="38.370796" gradientTransform="matrix(-.22864057 .88936544 -1.1484422 .49881121 194.64222 -10.583066)" gradientUnits="userSpaceOnUse" r="7.51301" xlink:href="#k"/><radialGradient id="ak" cx="35.090176" cy="38.370796" gradientTransform="matrix(.00448206 .408105 -.65439632 .28684888 195.69926 -8.43563)" gradientUnits="userSpaceOnUse" r="7.51301" xlink:href="#k"/><radialGradient id="al" cx="35.090176" cy="38.370796" gradientTransform="matrix(-.25356152 .08925171 -.38832825 -.55357011 200.65422 36.659276)" gradientUnits="userSpaceOnUse" r="7.51301" xlink:href="#k"/><radialGradient id="am" cx="248.375" cy="179.51294" gradientTransform="matrix(.71593078 -.67069898 .17597155 .01680872 -63.87888 210.89007)" gradientUnits="userSpaceOnUse" r="8.375" xlink:href="#d"/><radialGradient id="an" cx="248.375" cy="179.51294" gradientTransform="matrix(.97250522 -.31082547 .1490617 .10385887 -113.18428 100.78183)" gradientUnits="userSpaceOnUse" r="8.375" xlink:href="#d"/><radialGradient id="ao" cx="35.090176" cy="38.370796" gradientTransform="matrix(-.2022287 .57817053 -1.0157777 .32427382 187.77794 6.028539)" gradientUnits="userSpaceOnUse" r="7.51301" xlink:href="#k"/><radialGradient id="ap" cx="35.090176" cy="38.370796" gradientTransform="matrix(.00147699 .07298378 -.21564802 .05129886 172.88114 6.256884)" gradientUnits="userSpaceOnUse" r="7.51301" xlink:href="#k"/><radialGradient id="aq" cx="35.090176" cy="38.370796" gradientTransform="matrix(-.02749308 .06725906 -.24081215 .00675144 180.14313 9.234897)" gradientUnits="userSpaceOnUse" r="7.51301" xlink:href="#k"/><radialGradient id="ar" cx="35.090176" cy="38.370796" gradientTransform="matrix(-.02975363 .11075925 -.26061241 .01111793 185.80382 11.541517)" gradientUnits="userSpaceOnUse" r="7.51301" xlink:href="#k"/><radialGradient id="as" cx="35.090176" cy="38.370796" gradientTransform="matrix(.13445338 .001959 -.13511666 .32217548 172.54649 12.108133)" gradientUnits="userSpaceOnUse" r="7.51301" xlink:href="#m"/><radialGradient id="at" cx="35.090176" cy="38.370796" gradientTransform="matrix(-.01280857 .08169695 -.2264435 .02009378 167.65733 8.251717)" gradientUnits="userSpaceOnUse" r="7.51301" xlink:href="#k"/><radialGradient id="au" cx="55.596272" cy="13.533671" gradientTransform="matrix(2.2928383 -1.8257901 -.76166922 1.7527419 46.833966 93.875971)" gradientUnits="userSpaceOnUse" r="1.856155" xlink:href="#n"/><radialGradient id="av" cx="55.596272" cy="13.533671" gradientTransform="matrix(1.3403238 -.91403368 -.44524875 .87746402 92.797319 52.09897)" gradientUnits="userSpaceOnUse" r="1.856155" xlink:href="#n"/><radialGradient id="aw" cx="55.596272" cy="13.533671" gradientTransform="matrix(1.5711709 -.95293617 -.58500771 .99448831 91.299188 57.034842)" gradientUnits="userSpaceOnUse" r="1.856155" xlink:href="#n"/><linearGradient id="ax" gradientTransform="matrix(.84018942 0 0 .65330432 125.61194 10.434134)" gradientUnits="userSpaceOnUse" x1="66.078499" x2="66.229706" y1="20.247272" y2="19.333948"><stop offset="0" stop-color="#fefefe" stop-opacity="0"/><stop offset="1" stop-color="#fefefe"/></linearGradient><linearGradient id="ay" gradientTransform="matrix(.55870244 0 0 .49769483 150.63744 28.090267)" gradientUnits="userSpaceOnUse" x1="43.21117" x2="45.380661" xlink:href="#m" y1="50.400043" y2="47.874859"/><radialGradient id="az" cx="22.362251" cy="46.679302" gradientTransform="matrix(.68161385 .66966563 -1.2916296 1.3316447 182.49094 -25.020972)" gradientUnits="userSpaceOnUse" r="7.159456" xlink:href="#o"/><radialGradient id="aA" cx="22.362251" cy="46.679302" gradientTransform="matrix(.49802273 .44845165 -.94373214 .89175594 181.30543 -7.255603)" gradientUnits="userSpaceOnUse" r="7.159456" xlink:href="#o"/><radialGradient id="aB" cx="49.189259" cy="87.753372" gradientTransform="matrix(.79760561 -.01147857 .01444534 .98657083 124.05127 2.081302)" gradientUnits="userSpaceOnUse" r="42" xlink:href="#i"/><linearGradient id="aC" gradientTransform="matrix(.99932112 0 0 1.0048946 115.6993 .539313)" gradientUnits="userSpaceOnUse" x1="36.357143" x2="36.357143" xlink:href="#i" y1="6" y2="63.893143"/><g fill="url(#b)"><path d="m12-95.03125c-5.5110903 0-10.03125 4.52016-10.03125 10.03125v71c0 5.5110902 4.5201598 10.03125 10.03125 10.03125h72c5.51109 0 10.03125-4.5201597 10.03125-10.03125v-71c0-5.51109-4.52016-10.03125-10.03125-10.03125z" opacity=".08" transform="matrix(1 0 0 -.99676191 0 -.775077)"/><path d="m12-94.03125c-4.971633 0-9.03125 4.059617-9.03125 9.03125v71c0 4.9716329 4.0596171 9.03125 9.03125 9.03125h72c4.971633 0 9.03125-4.059617 9.03125-9.03125v-71c0-4.971633-4.059617-9.03125-9.03125-9.03125z" opacity=".1" transform="matrix(1 0 0 -.99676191 0 -.775077)"/><path d="m12-93c-4.4091333 0-8 3.590867-8 8v71c0 4.4091333 3.5908667 8 8 8h72c4.409133 0 8-3.5908667 8-8v-71c0-4.409133-3.590867-8-8-8z" opacity=".2" transform="matrix(1 0 0 -.99676191 0 -.775077)"/><rect height="85" opacity=".3" rx="7" transform="matrix(1 0 0 -.99676191 0 -.775077)" width="86" x="5" y="-92"/></g><rect fill="url(#c)" height="84" opacity=".45" rx="6" transform="matrix(1 0 0 -.99676191 0 -.775077)" width="84" x="6" y="-91"/><g transform="matrix(1 0 0 .99676191 -116.08528 -1.21587501946)"><rect fill="url(#p)" height="84" rx="6" transform="matrix(.99932111 0 0 .99931366 115.72894 .571543)" width="84" x="6" y="6"/><path d="m158.08751 25.257955s-3.67738-2.777665-7.13255.531137c-1.72493 1.651857-3.91571 4.880109-3.61206 7.987856.57253 5.859848 4.81608 18.301313 5.7191 19.312447.90301 1.011121 1.95653 1.516667 2.25754 1.112228.30101-.404454 1.05351-1.820027 0-1.921134-1.05353-.101065-4.51508-9.302324-4.81609-11.324579-.30101-2.02224-2.52908-7.404421-.57256-11.14557 1.95655-3.741148 2.52909-3.616809 4.78663-3.616809s3.55314 2.247729 3.55314 2.247729z" fill="url(#q)"/><rect fill="url(#r)" height="31.02943" rx="7.722043" ry="1.262665" width="27.756573" x="152.27821" y="57.673073"/><rect fill="url(#s)" height="4.672546" opacity=".746544" rx="8.365049" ry=".85345" width="28.23204" x="152.34262" y="56.457733"/><path d="m146.09829 56.633501c0 3.186972 40.61035 2.731683 41.00849 1.365841-3.26388-6.162107-13.10391-19.282432-20.21817-19.154852-6.71627-.557445-20.43903 15.346915-20.79032 17.789011z" fill="url(#t)"/><path d="m160.06316 41.43795s-16.159 14.289855-13.77929 15.54602c2.3797 1.256166 14.20299.92371 19.60505.895742 3.43487-.01778 1.65379-18.081921.006-18.620277-1.64749-.538356-5.83207 2.178515-5.83207 2.178515z" fill="url(#u)" opacity=".520737"/><path d="m173.62692 41.080325s15.19085 15.17529 12.81115 16.431455c-2.37971 1.256166-16.335 1.156374-19.26387-.638148-2.92887-1.794521-2.54919-17.377457-.9017-17.915813 1.64748-.538356 7.35442 2.122506 7.35442 2.122506z" fill="url(#v)" opacity=".556054"/><path d="m176.85215 53.313418a2.2082086 1.678226 0 1 1 -4.41641 0 2.2082086 1.678226 0 1 1 4.41641 0z" fill="#171510" stroke="url(#w)" stroke-linecap="round" stroke-width=".575607"/><path d="m138.39126 56.27197s7.74813-12.320119 15.71046-13.329199c7.96234-1.009079 13.52414-4.462654 15.7416-5.777078 4.34431-2.575133 9.57378-5.71389 11.28006-8.852804.15359-.282525.59333-.995218.71129-2.405492.2023-2.418624-.50515-4.234512-2.01177-2.18015-.90802 1.238162-3.02094 2.277836-4.06582 2.886204-2.68132 1.561155-4.10608 1.406161-4.10608 1.406161s1.47724-3.442792 4.08362-3.439952c2.72921.0027 2.09394 1.517079 3.82027-.443536 1.76497-2.004501-1.92521-8.601699-3.89187-8.820678-1.51652-.16886-2.20877.543698-2.86156-.408879-.6528-.952564.532-2.589184-1.18931-3.320658-1.79493-.762746-2.90428.682416-3.64388.112384-.73957-.570019-1.64594-1.783393-3.45472-1.087643-1.80881.695736-2.22052 1.207832-2.96426 1.039095-.74375-.168749-1.97044-1.233412-3.30865-.382423-2.05321 1.305671-3.33564 2.092769-5.88309 4.129293-2.54749 2.036512-4.36819 4.997755-7.1368 8.391904-2.76861 3.394148-2.48027 3.666628-4.30153 5.566238-1.82126 1.899598-3.87049 2.579468-6.02233 4.404073-2.15181 1.824605-7.01868 7.210868-8.15898 8.003479-1.55013 1.077467-4.23589 5.673505-3.55723 6.129153.67866.455634 15.21058 8.380576 15.21058 8.380576z" fill="url(#x)"/><path d="m179.19366 26.100824a.88762458 3.2204467 46.967919 1 1 -2.47423-.02276.88762458 3.2204467 46.967919 1 1 2.47423.02276z" fill="url(#y)" opacity=".219731"/><path d="m175.74574 30.88746a1.6432 9.5490551 66.858328 1 1 -6.87655-.444686 1.6432 9.5490551 66.858328 1 1 6.87655.444686z" fill="url(#z)" opacity=".318386"/><path d="m180.71835 29.577893a.88762458 3.2204467 46.967919 1 1 -2.47423-.02276.88762458 3.2204467 46.967919 1 1 2.47423.02276z" fill="url(#A)" opacity=".336323"/><path d="m174.94791 35.286384a1.5033579 11.903886 57.564676 1 1 -5.21867-.187388 1.5033579 11.903886 57.564676 0 1 5.21867.187388z" fill="url(#B)" opacity=".64574"/><path d="m171.61296 25.257955s3.44166-2.512524 7.13255.531137c2.43156 2.005143 3.38575 3.466865 3.61207 7.987856.29439 5.880392-4.81609 18.301313-5.71911 19.312447-.903 1.011121-1.95651 1.516667-2.25752 1.112228-.30101-.404454-.34691-1.996678.70661-2.097785 1.05353-.101065 3.38743-6.527651 4.46278-10.971263 1.3558-5.602499 1.29248-8.817666.21924-11.322235-1.66291-3.880598-2.52909-3.616809-4.78663-3.616809s-3.21432 1.828804-3.21432 1.828804z" fill="url(#C)"/><path d="m177.62837 25.809146a3.7771121 2.0379936 13.050219 0 1 -3.17492-4.265682 3.7771121 2.0379936 13.050219 0 1 3.17492 4.265682z" fill="url(#D)" opacity=".421525"/><path d="m180.66684 23.034139s-.38985 1.020319-.12994 1.407289c.25989.386969.97462.86324 1.13706.684638.16243-.178601.19492-.506037.12995-.922773-.065-.416737-.23124-1.143531-.5198-1.220444-.36598-.09755-.61727.05129-.61727.05129z" fill="none" opacity=".497758" stroke="url(#E)" stroke-width=".092487"/><path d="m171.8374 25.003993s3.96733-2.798139 7.63144.714034c2.32884 2.232294 2.93239 3.712567 3.18072 8.27341.32293 5.932277-4.99311 18.069393-5.98382 19.089423-.99073 1.020044-.20154 1.173629-.53176.76562-.33025-.408023.004-1.531835.47477-2.263926.59084-.919124 2.75709-6.081147 3.93687-10.56394 1.48747-5.6519 1.71561-8.984554.53814-11.511199-1.82442-3.91481-3.62049-5.071793-6.09727-5.071793-2.4768 0-2.80185 1.007379-2.80185 1.007379z" fill="#202018"/><path d="m163.76474 36.545423a4.4716733 17.613049 79.38673 0 1 -11.79911-6.482171 4.4716733 17.613049 79.38673 1 1 11.79911 6.482171z" fill="url(#F)" opacity=".461883"/><path d="m141.6533 53.65613a10.288112 4.7103927 20.456245 0 1 -19.29419-7.148905 10.288112 4.7103927 20.456245 0 1 19.29419 7.148905z" fill="url(#G)" opacity=".484305"/><path d="m163.19962 41.932445a3.9477389 13.633034 76.028086 1 1 -7.60668-6.049439 3.9477389 13.633034 76.028086 0 1 7.60668 6.049439z" fill="url(#H)" opacity=".627803"/><path d="m149.149 46.17206a1.4399821 11.490847 46.942059 1 1 -5.02254.81883 1.4399821 11.490847 46.942059 0 1 5.02254-.81883z" fill="url(#I)" opacity=".479821"/><path d="m121.80839 44.969562c3.69313 1.597105 11.63752 3.981636 12.91947 3.897393 1.28194-.08424 1.58281-.0055 2.08853 1.176891.874 2.043281 4.47742 2.772536 4.90517 4.0143.51678 1.500204 1.98671 3.010804 1.02353 4.275001-6.65501 8.734677-21.27837 17.40779-21.10876 16.026824.0572-.465299.2175-6.831301.0686-9.109445-.14886-2.27813.10343-20.280964.10343-20.280964z" fill="url(#J)"/><path d="m121.92819 44.495604c3.69312 1.597105 11.63751 3.981636 12.91946 3.897392 1.28194-.08424 1.58281-.0055 2.08853 1.176892.874 2.043281 4.47742 2.772536 4.90517 4.0143.51678 1.500203 1.98672 3.010803 1.02353 4.275001-6.65501 8.734677-21.27837 17.40779-21.10874 16.026823.0572-.465299.21748-6.831301.0686-9.109445-.14886-2.278129.10343-20.280963.10343-20.280963z" fill="url(#K)" opacity=".416667"/><rect height="24.755966" opacity=".603687" rx="8.888985" ry="1.333329" width="20.740965" x="155.37654" y="61.579906"/><path d="m176.02966 85.302711a10.272135 1.0367839 0 0 1 -20.54427 0 10.272135 1.0367839 0 1 1 20.54427 0z" fill="#423503" opacity=".556054"/><rect fill="url(#L)" height="11.308103" rx="3.513321" ry=".674459" width="3.70979" x="163.77957" y="74.953705"/><path d="m154.67511 67.584441s-.33442 17.309291.24494 16.656793c.57936-.652497-.40714 3.621979.46291.236366.55323-2.152716.26004-22.639878-.0898-21.969042-.3499.670836-.61802 5.075883-.61802 5.075883z" fill="url(#M)" opacity=".525346"/><path d="m176.36314 70.739087a10.902895 9.9363962 0 0 1 -21.80579 0 10.902895 9.9363962 0 1 1 21.80579 0z" fill="url(#N)"/><path d="m43.660058 41.014183s-13.753905 12.55941-11.455808 13.796847-3.936705 1.610276 1.280101 1.582725c3.317073-.01752 17.432642-16.962663 15.841651-17.492993-1.59099-.53033-5.665944 2.113421-5.665944 2.113421z" fill="#e5db9d" filter="url(#h)" opacity=".525346" transform="matrix(.04967156 -.64543566 .04650472 .67137063 172.20226 68.405151)"/><path d="m177.79189 66.100163s-.79331 19.827135.58105 19.079736c1.37435-.747413-.96581 4.148842 1.09813.270753 1.31234-2.465866.61685-25.933154-.21313-25.164741-.83.768412-1.46605 5.814252-1.46605 5.814252z" fill="url(#O)" opacity=".626728"/><path d="m152.39258 64.510277s-.44092 19.827147.32295 19.079738c.76388-.747409-.5368 4.148848.61036.270756.72941-2.465862.34285-25.933158-.11847-25.164741-.46131.768415-.81484 5.814247-.81484 5.814247z" fill="url(#P)" opacity=".626728"/><path d="m43.660058 41.014183s-13.753905 12.55941-11.455808 13.796847-3.936705 1.610276 1.280101 1.582725c3.317073-.01752 17.432642-16.962663 15.841651-17.492993-1.59099-.53033-5.665944 2.113421-5.665944 2.113421z" fill="#382f23" filter="url(#f)" opacity=".626728" transform="matrix(.64475322 .22978721 -.67066075 .21513704 171.80521 67.265949)"/><path d="m173.18548 86.507396s-18.50983.08232-17.81208-.06025c.69775-.142581-3.8732.100238-.25276-.113888 2.30202-.136086 24.21014-.06397 23.49279.02206-.71736.08617-5.42795.152107-5.42795.152107z" fill="url(#Q)" opacity=".377189"/><path d="m178.30719 58.007491s-28.68047-.266244-27.59933.195002c1.08115.461233-6.00141-.324126-.39164.368536 3.56693.440427 37.51295.207012 36.40141-.07156-1.11152-.278544-8.41044-.492007-8.41044-.492007z" fill="url(#R)" opacity=".40553"/><path d="m166.85777 73.678637a1.32732 3.161807 0 0 1 -2.65464 0 1.32732 3.161807 0 1 1 2.65464 0z" fill="url(#S)"/><path d="m179.62181 71.233934a13.705835 12.304931 0 0 1 -27.41167 0 13.705835 12.304931 0 1 1 27.41167 0z" fill="url(#T)" opacity=".757848"/><path d="m173.03468 13.044011a2.7194518 2.0235299 0 1 1 -5.4389 0 2.7194518 2.0235299 0 1 1 5.4389 0z" fill="url(#U)" opacity=".29148"/><path d="m167.54924 11.614475a2.77722 1.8631484 0 0 1 -5.55444 0 2.77722 1.8631484 0 1 1 5.55444 0z" fill="url(#V)" opacity=".26009"/><path d="m165.96992 41.398924a4.9566332 11.688217 48.399441 0 1 -17.34991 15.661101 4.9566332 11.688217 48.399441 1 1 17.34991-15.661101z" fill="url(#W)" opacity=".152466"/><path d="m185.39958 70.150226a19.145305 14.902329 0 0 1 -38.29061 0 19.145305 14.902329 0 1 1 38.29061 0z" fill="url(#X)" opacity=".635945"/><path d="m143.15465 57.347068a1.7467868 13.276934 50.366859 0 1 -19.97677 17.144884 1.7467868 13.276934 50.366859 1 1 19.97677-17.144884z" fill="url(#Y)" opacity=".387255"/><path d="m157.4296 38.045898a8.2904639 15.885156 46.338807 1 1 -4.60943-17.61806 8.2904639 15.885156 46.338807 1 1 4.60943 17.61806z" fill="url(#Z)" opacity=".331839"/><path d="m158.28687 33.494264a7.6483379 14.749426 40.514898 1 1 -4.02411-17.286505 7.6483379 14.749426 40.514898 1 1 4.02411 17.286505z" fill="url(#aa)" opacity=".327354"/><path d="m145.56905 25.493617a2.6042425 20.959907 40.735753 1 1 -8.21083 1.652311 2.6042425 20.959907 40.735753 1 1 8.21083-1.652311z" fill="url(#ab)" opacity=".717489"/><path d="m149.20381 25.210864a2.8915036 23.191997 41.478964 1 1 -9.21712 1.808317 2.8915036 23.191997 41.478964 1 1 9.21712-1.808317z" fill="url(#ac)" opacity=".41704"/><path d="m173.28114 25.815528a2.966734 7.6162191 39.018461 0 1 -7.07248-.332228 2.966734 7.6162191 39.018461 1 1 7.07248.332228z" fill="url(#ad)" opacity=".565022"/><path d="m159.24693 26.279006a5.4224507 10.613383 53.349934 0 1 -.12479-12.575003 5.4224507 10.613383 53.349934 1 1 .12479 12.575003z" fill="url(#ae)" opacity=".327354"/><path d="m174.05262 26.028788a1.8473576 4.6750464 43.013453 1 1 -4.60418-.195063 1.8473576 4.6750464 43.013453 0 1 4.60418.195063z" fill="url(#af)" opacity=".892377"/><path d="m174.07139 24.563961a2.6962558 6.2963567 64.486579 0 1 -3.32611-4.363987 2.6962558 6.2963567 64.486579 1 1 3.32611 4.363987z" fill="url(#ag)" opacity=".798206"/><path d="m182.16894 33.641475a.93704501 9.9664726 16.980484 1 1 -5.70165 19.061979.93704501 9.9664726 16.980484 0 1 5.70165-19.061979z" fill="url(#ah)" opacity=".600897"/><path d="m156.40779 16.816992a2.996912 5.9810757 54.261044 1 1 -3.19373-5.082529 2.996912 5.9810757 54.261044 0 1 3.19373 5.082529z" fill="url(#ai)" opacity=".237668"/><path d="m140.83476 46.446517a4.8212125 10.622828 51.02541 1 1 3.43555-13.363622 4.8212125 10.622828 51.02541 0 1 -3.43555 13.363622z" fill="url(#aj)" opacity=".390135"/><path d="m170.78051 19.957563a2.7310953 5.5461233 57.88146 1 1 -.0673-6.132194 2.7310953 5.5461233 57.88146 1 1 .0673 6.132194z" fill="url(#ak)" opacity=".237668"/><path d="m174.95123 19.220757a5.1143227 1.9316791 52.238164 1 1 3.81002-1.341098 5.1143227 1.9316791 52.238164 1 1 -3.81002 1.341098z" fill="url(#al)" opacity=".237668"/><path d="m151.52551 41.705488a1.102366 8.2752339 47.794657 1 1 -11.99184 11.234208 1.102366 8.2752339 47.794657 0 1 11.99184-11.234208z" fill="url(#am)" opacity=".493274"/><path d="m163.26494 39.621405a1.2014513 8.6014381 73.157926 0 1 -16.28947 5.206327 1.2014513 8.6014381 73.157926 1 1 16.28947-5.206327z" fill="url(#an)" opacity=".493274"/><path d="m140.18614 43.10309a3.4334214 8.576981 62.676745 0 1 3.03869-8.687602 3.4334214 8.576981 62.676745 1 1 -3.03869 8.687602z" fill="url(#ao)" opacity=".188341"/><path d="m164.66948 11.334604a.53456499 1.6698845 75.193785 0 1 -.0222-1.096656.53456499 1.6698845 75.193785 0 1 .0222 1.096656z" fill="url(#ap)" opacity=".237668"/><path d="m169.73168 12.359405a.49536794 1.8244143 86.344931 0 1 .41311-1.010636.49536794 1.8244143 86.344931 1 1 -.41311 1.010636z" fill="url(#aq)" opacity=".237668"/><path d="m174.53632 16.686817a.81332842 1.9803011 83.80836 1 1 .44707-1.66427.81332842 1.9803011 83.80836 1 1 -.44707 1.66427z" fill="url(#ar)" opacity=".237668"/><path d="m173.0901 24.553722a.92637863 2.655525 26.029316 0 1 -2.0203-.02944.92637863 2.655525 26.029316 1 1 2.0203.02944z" fill="url(#as)" opacity=".726457"/><path d="m158.42283 12.503282a.60024295 1.7154666 82.919668 1 1 .19246-1.22758.60024295 1.7154666 82.919668 0 1 -.19246 1.22758z" fill="url(#at)" opacity=".237668"/><path d="m168.25491 12.700931a1.429205 6.3354468 43.526771 0 1 -8.51173 6.7779 1.429205 6.3354468 43.526771 0 1 8.51173-6.7779z" fill="url(#au)" opacity=".345292"/><path d="m163.77632 11.460826a.77110635 3.4364123 48.434703 0 1 -4.9757 3.393177.77110635 3.4364123 48.434703 1 1 4.9757-3.393177z" fill="url(#av)" opacity=".345292"/><path d="m173.64946 15.745423a.881115 3.9298662 51.196834 1 1 -5.83267 3.537595.881115 3.9298662 51.196834 1 1 5.83267-3.537595z" fill="url(#aw)" opacity=".345292"/><path d="m180.72072 22.910408s-.38985 1.083573-.12995 1.494532c.2599.41096.97462.916757 1.13706.727083.16244-.189673.19493-.537408.12995-.97998-.065-.442573-.23124-1.214424-.5198-1.296105-.36597-.103593-.61726.05447-.61726.05447z" fill="#c6c6b2" fill-opacity=".104712"/><path d="m180.71896 23.031274s-.34179.7468-.11393 1.030033.85448.631828.99689.501105c.14241-.130721.1709-.370381.11393-.675402-.057-.305022-.22774-.786634-.45572-.893276-.28373-.132719-.54117.03754-.54117.03754z" fill="none" opacity=".183857" stroke="url(#ax)" stroke-width=".074088"/><path d="m176.41525 53.257893a1.7283975 1.4076935 0 1 1 -3.45679 0 1.7283975 1.4076935 0 1 1 3.45679 0z" fill="url(#ay)"/><path d="m142.32097 56.908946a6.840929 13.28197 43.993458 1 1 -9.75997-9.588884 6.840929 13.28197 43.993458 0 1 9.75997 9.588884z" fill="url(#az)" opacity=".205882"/><path d="m151.95515 47.610001a4.7768967 9.3067942 48.282942 0 1 -7.13114-6.42134 4.7768967 9.3067942 48.282942 1 1 7.13114 6.42134z" fill="url(#aA)" opacity=".142157"/><path d="m127.20156 90.477877c-3.32174 0-5.99593-2.651193-5.99593-5.944376v-1.981457-67.369581-1.981459c0-.331617.0413-.644667.0937-.959768.0487-.292856.097-.591382.18737-.866888.01-.0301.0209-.06301.0312-.09288.0988-.285104.23472-.542378.37475-.804968.14449-.270973.3154-.5306502.49966-.7740079s.37352-.4690826.59334-.6811264c.43965-.4240874.94227-.8069745 1.49899-1.0836099.27835-.1383177.57308-.2446576.8744-.3405631-.25603.099293-.48638.2340816-.71826.3715234-.007.00435-.0238-.00445-.0312 0-.0319.01912-.0623.042116-.0937.061921-.12032.075989-.23087.1619969-.34352.247682-.1061.080051-.21314.159618-.31229.2476819-.17781.1599364-.34722.3421859-.49966.5263249-.10751.1290473-.21825.2628256-.31229.4024837-.0251.038025-.0384.085074-.0625.1238411-.0647.1020768-.13013.2026211-.18737.3096029-.10094.1929004-.20553.4118464-.28106.6192064-.008.0216-.0236.04017-.0312.06193-.0318.0911-.0358.185099-.0624.278643-.0303.105628-.0703.201148-.0937.309602-.0728.338347-.12492.691732-.12492 1.05265v1.981458 67.36958 1.981458c0 2.756057 2.21665 4.953645 4.99661 4.953645h1.99864 67.95384 1.99864c2.77996 0 4.99661-2.197588 4.99661-4.953645v-1.981458-67.36958-1.981458c0-.360918-.0521-.714303-.12492-1.05265-.0441-.204975-.0883-.393971-.15614-.588245-.008-.02174-.0233-.04031-.0312-.06193-.0627-.172128-.13829-.364043-.2186-.5263255-.0416-.082033-.079-.1683785-.12492-.2476824-.0546-.096309-.12669-.1866038-.18737-.2786425-.094-.1396581-.20478-.2734364-.31229-.4024837-.14307-.1728328-.30293-.343781-.46843-.4953647-.0112-.010105-.02-.020954-.0312-.03096-.13829-.124392-.2849-.2322625-.4372-.3405632-.10251-.072471-.20418-.1519421-.31229-.2167219-.007-.00445-.0238.00435-.0312 0-.23188-.1374418-.46223-.2722306-.71826-.3715234.30132.095902.59605.2022454.8744.3405631.55671.2766354 1.05934.6595225 1.49898 1.0836099.21983.2120438.40909.4377687.59335.6811264s.35517.5030359.49966.7740069c.14003.262591.27595.519866.37475.804969.0104.03049.0213.06215.0312.09288.0904.275507.1387.574032.18737.866887.0524.315101.0937.628151.0937.959769v1.981458 67.369581 1.981457c0 3.293184-2.67418 5.944376-5.99593 5.944376h-71.95112z" fill="url(#aB)" opacity=".2"/><path d="m127.69116 6.5686805c-3.32175 0-5.99593 2.6890979-5.99593 6.0293685v2.009789 68.332835 2.00979c0 .336358.0413.653884.0937.973491.0487.297042.097.599836.18737.879283.01.03053.0209.06391.0312.09421.0988.289178.23472.550131.37474.816476.1445.274846.31541.538237.49967.785073.18425.246839.37352.47579.59334.690867.43965.43015.94227.818512 1.49898 1.099103.27836.140296.57309.248156.87441.345433-.25603-.100713-.48638-.23743-.71826-.376836-.007-.0044-.0238.0045-.0312 0-.0319-.0194-.0623-.04272-.0937-.0628-.12032-.07708-.23087-.164322-.34352-.251233-.1061-.08119-.21314-.161899-.31229-.251221-.17781-.162224-.34723-.347078-.49966-.533851-.10751-.130893-.21825-.266583-.31229-.408238-.0251-.03857-.0384-.08629-.0625-.125611-.0647-.103538-.13014-.20552-.18737-.314031-.10094-.195659-.20554-.417736-.28106-.628058-.008-.02192-.0236-.04075-.0312-.06281-.0318-.0924-.0358-.187745-.0625-.282626-.0303-.107142-.0703-.204026-.0937-.314032-.0728-.343184-.12492-.701622-.12492-1.0677v-2.00979-68.332834-2.00979c0-2.795464 2.21665-5.0244733 4.99661-5.0244733h1.99864 67.95384 1.99864c2.77996 0 4.99661 2.2290093 4.99661 5.0244733v2.00979 68.332834 2.00979c0 .366078-.0521.724516-.12492 1.0677-.0441.207905-.0883.399605-.15614.596656-.008.02206-.0233.04089-.0312.06282-.0627.174589-.13829.369247-.2186.533849-.0416.08321-.079.170786-.12492.251224-.0546.09768-.12669.189273-.18737.282627-.094.141655-.20478.277345-.31229.408238-.14308.175305-.30294.348696-.46843.502447-.0112.01025-.02.02125-.0312.0314-.1383.126171-.2849.235583-.43721.345432-.1025.07351-.20418.154114-.31228.219821-.007.0045-.0238-.0044-.0312 0-.23189.139406-.46224.276123-.71827.376835.30132-.09728.59605-.205136.87441-.345432.55671-.280591 1.05933-.668953 1.49898-1.099103.21982-.215077.40909-.444028.59335-.690867.18426-.246836.35516-.510227.49966-.785073.14002-.266345.27595-.527298.37474-.816476.0104-.03093.0213-.06305.0312-.09421.0904-.279447.13871-.582241.18738-.879283.0524-.319616.0937-.637142.0937-.9735v-2.00979-68.332835-2.009789c0-3.3402706-2.67419-6.0293685-5.99593-6.0293685z" fill="url(#aC)" opacity=".4"/></g></svg>