<svg height="96" width="96" xmlns="http://www.w3.org/2000/svg" xmlns:xlink="http://www.w3.org/1999/xlink"><linearGradient id="a"><stop offset="0" stop-color="#fefefe"/><stop offset="1" stop-color="#fefefe" stop-opacity="0"/></linearGradient><linearGradient id="b" gradientUnits="userSpaceOnUse" x1="48" x2="48" y1="90" y2="5.987717"><stop offset="0" stop-color="#84cf18"/><stop offset="1" stop-color="#bff571"/></linearGradient><linearGradient id="c" gradientUnits="userSpaceOnUse" x1="36.357143" x2="36.357143" xlink:href="#a" y1="6" y2="63.893143"/><radialGradient id="d" cx="48" cy="90.171875" gradientTransform="matrix(1.1573129 0 0 .99590774 -7.551021 .197132)" gradientUnits="userSpaceOnUse" r="42" xlink:href="#a"/><linearGradient id="e" gradientUnits="userSpaceOnUse" x1="49.59148258364" x2="37.26715318073" y1="28.98887019066" y2="73.1566677733"><stop offset="0" stop-color="#0362b2"/><stop offset="1" stop-color="#66bbfb"/></linearGradient><linearGradient id="f" gradientUnits="userSpaceOnUse" x1="40.22348029118" x2="43.48365489718" y1="48.1787430247" y2="33.30817432059"><stop offset="0" stop-color="#fefefe"/><stop offset="1" stop-color="#c7c7c7"/></linearGradient><clipPath id="g"><rect height="84" rx="6" width="84" x="6" y="6"/></clipPath><filter id="h" color-interpolation-filters="sRGB" height="1.384" width="1.384" x="-.192" y="-.192"><feGaussianBlur stdDeviation="5.28"/></filter><linearGradient id="i" gradientUnits="userSpaceOnUse" x1="48" x2="48" xlink:href="#a" y1="20.220806" y2="138.66119"/><linearGradient id="j" gradientTransform="matrix(1.0058652 0 0 .994169 100 0)" gradientUnits="userSpaceOnUse" x1="45.447727" x2="45.447727" y1="92.539597" y2="7.01654"><stop offset="0"/><stop offset="1" stop-opacity=".588235"/></linearGradient><linearGradient id="k" gradientTransform="matrix(1.0238095 0 0 1.0119048 -1.142857 -98.071429)" gradientUnits="userSpaceOnUse" x1="32.251034" x2="32.251034" xlink:href="#j" y1="6.131708" y2="90.238609"/><linearGradient id="l" gradientTransform="translate(0 -97)" gradientUnits="userSpaceOnUse" x1="32.251034" x2="32.251034" xlink:href="#j" y1="6.131708" y2="90.238609"/><g><g fill="url(#k)"><path d="m12-95.03125c-5.5110903 0-10.03125 4.52016-10.03125 10.03125v71c0 5.5110902 4.5201598 10.03125 10.03125 10.03125h72c5.51109 0 10.03125-4.5201597 10.03125-10.03125v-71c0-5.51109-4.52016-10.03125-10.03125-10.03125z" opacity=".08" transform="scale(1 -1)"/><path d="m12-94.03125c-4.971633 0-9.03125 4.059617-9.03125 9.03125v71c0 4.9716329 4.0596171 9.03125 9.03125 9.03125h72c4.971633 0 9.03125-4.059617 9.03125-9.03125v-71c0-4.971633-4.059617-9.03125-9.03125-9.03125z" opacity=".1" transform="scale(1 -1)"/><path d="m12-93c-4.4091333 0-8 3.590867-8 8v71c0 4.4091333 3.5908667 8 8 8h72c4.409133 0 8-3.5908667 8-8v-71c0-4.409133-3.590867-8-8-8z" opacity=".2" transform="scale(1 -1)"/><rect height="85" opacity=".3" rx="7" transform="scale(1 -1)" width="86" x="5" y="-92"/></g><rect fill="url(#l)" height="84" opacity=".45" rx="6" transform="scale(1 -1)" width="84" x="6" y="-91"/></g><rect fill="url(#b)" height="84" rx="6" width="84" x="6" y="6"/><path d="m12 6c-3.324 0-6 2.676-6 6v2 68 2c0 .334721.04135.6507.09375.96875.0487.295596.09704.596915.1875.875.00988.03038.020892.0636.03125.09375.098865.287771.2348802.547452.375.8125.1445918.273507.3156161.535615.5.78125s.3737765.473472.59375.6875c.439947.428056.94291.814526 1.5 1.09375.278545.139612.5734731.246947.875.34375-.2562018-.100222-.4867109-.236272-.71875-.375-.00741-.0044-.023866.0045-.03125 0-.031933-.0193-.062293-.04251-.09375-.0625-.120395-.0767-.2310226-.163513-.34375-.25-.1061728-.0808-.2132809-.161112-.3125-.25-.1779299-.161433-.3474596-.345388-.5-.53125-.1075789-.130255-.2183939-.265285-.3125-.40625-.025089-.03838-.038446-.08587-.0625-.125-.064763-.103032-.1302275-.204517-.1875-.3125-.1010083-.194706-.2056748-.415701-.28125-.625-.00796-.02181-.023589-.04055-.03125-.0625-.0318251-.09195-.0358045-.186831-.0625-.28125-.0303323-.106618-.0703894-.203031-.09375-.3125-.0728786-.341512-.125-.698205-.125-1.0625v-2-68-2c0-2.781848 2.2181517-5 5-5h2 68 2c2.781848 0 5 2.218152 5 5v2 68 2c0 .364295-.05212.720988-.125 1.0625-.04415.206893-.08838.397658-.15625.59375-.0077.02195-.0233.04069-.03125.0625-.06274.173739-.138383.367449-.21875.53125-.04158.0828-.07904.169954-.125.25-.0546.09721-.126774.18835-.1875.28125-.09411.140965-.204921.275995-.3125.40625-.143174.17445-.303141.346998-.46875.5-.01117.0102-.01998.02115-.03125.03125-.138386.125556-.285091.234436-.4375.34375-.102571.07315-.204318.153364-.3125.21875-.0074.0045-.02384-.0044-.03125 0-.232039.138728-.462548.274778-.71875.375.301527-.0968.596455-.204138.875-.34375.55709-.279224 1.060053-.665694 1.5-1.09375.219973-.214028.409366-.441865.59375-.6875s.355408-.507743.5-.78125c.14012-.265048.276135-.524729.375-.8125.01041-.03078.02133-.06274.03125-.09375.09046-.278085.1388-.579404.1875-.875.0524-.31805.09375-.634029.09375-.96875v-2-68-2c0-3.324-2.676-6-6-6z" fill="url(#c)" opacity=".5"/><path d="m12 90c-3.324 0-6-2.676-6-6v-2-68-2c0-.334721.04135-.6507.09375-.96875.0487-.295596.09704-.596915.1875-.875.00988-.03038.020892-.0636.03125-.09375.098865-.287771.2348802-.547452.375-.8125.1445918-.273507.3156161-.535615.5-.78125s.3737765-.473472.59375-.6875c.439947-.428056.94291-.814526 1.5-1.09375.278545-.139612.5734731-.246947.875-.34375-.2562018.100222-.4867109.236272-.71875.375-.00741.0044-.023866-.0045-.03125 0-.031933.0193-.062293.04251-.09375.0625-.120395.0767-.2310226.163513-.34375.25-.1061728.0808-.2132809.161112-.3125.25-.1779299.161433-.3474596.345388-.5.53125-.1075789.130255-.2183939.265285-.3125.40625-.025089.03838-.038446.08587-.0625.125-.064763.103032-.1302275.204517-.1875.3125-.1010083.194706-.2056748.415701-.28125.625-.00796.02181-.023589.04055-.03125.0625-.0318251.09195-.0358045.186831-.0625.28125-.0303323.106618-.0703894.203031-.09375.3125-.0728786.341512-.125.698205-.125 1.0625v2 68 2c0 2.781848 2.2181517 5 5 5h2 68 2c2.781848 0 5-2.218152 5-5v-2-68-2c0-.364295-.05212-.720988-.125-1.0625-.04415-.206893-.08838-.397658-.15625-.59375-.0077-.02195-.0233-.04069-.03125-.0625-.06274-.173739-.138383-.367449-.21875-.53125-.04158-.0828-.07904-.169954-.125-.25-.0546-.09721-.126774-.18835-.1875-.28125-.09411-.140965-.204921-.275995-.3125-.40625-.143174-.17445-.303141-.346998-.46875-.5-.01117-.0102-.01998-.02115-.03125-.03125-.138386-.125556-.285091-.234436-.4375-.34375-.102571-.07315-.204318-.153364-.3125-.21875-.0074-.0045-.02384.0044-.03125 0-.232039-.138728-.462548-.274778-.71875-.375.301527.0968.596455.204138.875.34375.55709.279224 1.060053.665694 1.5 1.09375.219973.214028.409366.441865.59375.6875s.355408.507743.5.78125c.14012.265048.276135.524729.375.8125.01041.03078.02133.06274.03125.09375.09046.278085.1388.579404.1875.875.0524.31805.09375.634029.09375.96875v2 68 2c0 3.324-2.676 6-6 6z" fill="url(#d)" opacity=".25"/><path d="m12 90c-3.324 0-6-2.676-6-6v-2-68-2c0-.334721.04135-.6507.09375-.96875.0487-.295596.09704-.596915.1875-.875.00988-.03038.020892-.0636.03125-.09375.098865-.287771.2348802-.547452.375-.8125.1445918-.273507.3156161-.535615.5-.78125s.3737765-.473472.59375-.6875c.439947-.428056.94291-.814526 1.5-1.09375.278545-.139612.5734731-.246947.875-.34375-.2562018.100222-.4867109.236272-.71875.375-.00741.0044-.023866-.0045-.03125 0-.031933.0193-.062293.04251-.09375.0625-.120395.0767-.2310226.163513-.34375.25-.1061728.0808-.2132809.161112-.3125.25-.1779299.161433-.3474596.345388-.5.53125-.1075789.130255-.2183939.265285-.3125.40625-.025089.03838-.038446.08587-.0625.125-.064763.103032-.1302275.204517-.1875.3125-.1010083.194706-.2056748.415701-.28125.625-.00796.02181-.023589.04055-.03125.0625-.0318251.09195-.0358045.186831-.0625.28125-.0303323.106618-.0703894.203031-.09375.3125-.0728786.341512-.125.698205-.125 1.0625v2 68 2c0 2.781848 2.2181517 5 5 5h2 68 2c2.781848 0 5-2.218152 5-5v-2-68-2c0-.364295-.05212-.720988-.125-1.0625-.04415-.206893-.08838-.397658-.15625-.59375-.0077-.02195-.0233-.04069-.03125-.0625-.06274-.173739-.138383-.367449-.21875-.53125-.04158-.0828-.07904-.169954-.125-.25-.0546-.09721-.126774-.18835-.1875-.28125-.09411-.140965-.204921-.275995-.3125-.40625-.143174-.17445-.303141-.346998-.46875-.5-.01117-.0102-.01998-.02115-.03125-.03125-.138386-.125556-.285091-.234436-.4375-.34375-.102571-.07315-.204318-.153364-.3125-.21875-.0074-.0045-.02384.0044-.03125 0-.232039-.138728-.462548-.274778-.71875-.375.301527.0968.596455.204138.875.34375.55709.279224 1.060053.665694 1.5 1.09375.219973.214028.409366.441865.59375.6875s.355408.507743.5.78125c.14012.265048.276135.524729.375.8125.01041.03078.02133.06274.03125.09375.09046.278085.1388.579404.1875.875.0524.31805.09375.634029.09375.96875v2 68 2c0 3.324-2.676 6-6 6z" fill="url(#d)" opacity=".25"/><rect height="66" rx="12" style="opacity:.2;stroke:#fefefe;stroke-width:.5;stroke-linecap:round;clip-path:url(#g);fill:url(#i);filter:url(#h)" width="66" x="15" y="15"/><path d="m58.125 9.75c-4.901528-.073546-9.618199 3.126264-10.883807 7.951798-1.474977 1.565429 1.076336 6.501511-.122929 5.906329-3.712538-1.869013-7.944832-2.387495-12.055764-2.358127 1.980495-5.350639-3.020287-10.604906-8.198222-11.128125-3.386561-.7132214-7.039446.573678-9.239278 3.065625-2.731752 3.203222-2.911445 8.853879.857749 11.415526 3.169256 1.566405-3.091936 3.287011-3.864823 5.531094-5.7347617 6.21816-6.9509513 16.000101-2.796082 23.393187 7.492964 14.037732 27.193351 20.074699 41.053156 11.972693.813325 2.727099-1.881007 7.211827.209214 10.570395 3.573758 11.277904 19.621863 16.829032 28.795543 8.826404 4.184108-3.989846 6.142553-10.421799 3.804005-15.893213-3.426305-9.177232-14.942092-14.340544-24.027512-10.534836-1.993944-1.247476 1.493937-3.769426 1.25-5.375 3.044901-7.743106-.121522-16.626199-5.75-22.34375 5.475146 1.532856 12.662745.0077 15.03125-5.6875 2.056774-4.969354-.579079-10.871495-5.318779-13.178825-2.654568-1.468378-5.708646-2.2316019-8.743721-2.133675z" opacity=".05"/><path d="m58.15625 10.65625c-3.430152.115629-6.79758 1.410716-8.59375 4.28125-.492514.787112-.884588 1.597178-1.1875 2.3125-.794554 1.876342-.771391 3.929795-.125 5.75.270627.762058.751095 1.261609 1.1875 1.78125l-.59375.625c-1.361045-.717889-2.740933-1.414497-4.3125-1.9375-3.663565-1.219201-7.346055-1.499436-10.875-1.34375.137195-.227816.269849-.41223.40625-.6875 1.031844-2.082266.525571-4.438457-.46875-6.125-.973046-1.650457-2.606173-2.91731-4.59375-3.6875-1.990702-.771407-4.093056-.926821-6-.59375-1.774673.309969-3.467572 1.197089-4.625 2.75-.0047.0063-.0266-.0063-.03125 0a.8610501.8610501 0 0 0 -.3125.3125.8610501.8610501 0 0 0 -.03125.03125c-.552302.893835-.791032 1.73489-.9375 2.03125-.949192 1.920589-.73615 4.140473.28125 5.875.913546 1.557474 2.455181 2.694767 4.25 3.46875-5.011346 2.829923-8.799191 7.305239-10.46875 12.59375-3.7136403 11.763347 4.757242 24.113882 18.21875 28.59375 8.509999 2.832045 17.22386 1.750914 23.71875-2.28125l1.59375 1.5625c-.221532.410939-.458585.817315-.65625 1.3125-1.37179 3.436559-.839257 7.164339.6875 10.375 1.616114 3.398564 4.583748 6.361126 8.46875 8.21875 7.768142 3.71435 17.127854 1.92758 20.625-4.96875.318149-.627389.795272-1.298656 1.1875-2.28125 1.376028-3.447184.886336-7.31857-.65625-10.5625-1.618206-3.40298-4.591193-6.333441-8.46875-8.1875-4.905741-2.345698-10.16428-2.335906-14.4375-.40625l-1.71875-1.59375c.701512-1.051682 1.384518-2.141392 1.84375-3.4375.136768-.386004.274298-.824053.40625-1.28125.03594-.07104.02504-.07648.03125-.09375.02585-.07192.0544-.0926.0625-.125.0052-.01989-.0038-.01313 0-.03125s-.0025-.0149 0-.03125c.0039-.01743.02466-.03625.03125-.0625.05104-.140841.0893-.274245.125-.375 2.777239-7.838352-.339982-16.144144-6.5625-22.09375l.625-.65625c2.675414.772531 5.563171 1.004862 8.1875.40625 2.942175-.671113 5.673213-2.352002 6.84375-5.1875.0056-.01353.02574-.01767.03125-.03125h-.03125c1.28339-3.118293.69097-6.03464-.53125-8.125-1.286385-2.200097-3.515133-3.928115-6.28125-5-2.07664-.804713-4.251762-1.163217-6.3125-1.09375z" opacity=".1"/><path d="m58.1875 11.53125c-3.23364.109005-6.308547 1.321645-7.90625 3.875-.461141.736973-.83588 1.504747-1.125 2.1875-.702965 1.660055-.67545 3.486961-.09375 5.125.293501.826467.89736 1.478591 1.46875 2.15625l-1.46875 1.5625c-1.50978-.824519-3.078898-1.579323-4.8125-2.15625-4.114463-1.369255-8.266191-1.68048-12.1875-1.3125.04956-.06883.110119-.113774.15625-.1875a.90097567.90097567 0 0 0 .03125 0c.353622-.570928.703294-1.056907 1.03125-1.71875.860039-1.735563.438743-3.826238-.4375-5.3125-.85642-1.452639-2.315596-2.599243-4.15625-3.3125-1.840013-.713014-3.77906-.868541-5.53125-.5625-1.755765.306666-3.432772 1.131745-4.40625 2.6875a.90097567.90097567 0 0 0 -.03125 0c-.471021.762291-.64433 1.502018-.875 1.96875-.807896 1.634692-.630231 3.561828.25 5.0625.861509 1.468757 2.350243 2.600555 4.1875 3.3125.513105.198831.996387.21725 1.5.3125-5.753199 2.58103-10.044414 7.425405-11.84375 13.125-3.5474514 11.236926 4.570924 23.166172 17.6875 27.53125 8.533748 2.839949 17.290221 1.679032 23.59375-2.5l2.5 2.40625c-.308977.586795-.648968 1.167963-.90625 1.8125-1.264092 3.166758-.792621 6.640628.65625 9.6875 1.523523 3.203852 4.345544 6.035228 8.0625 7.8125 7.431845 3.553549 16.227513 1.829181 19.46875-4.5625.355334-.700717.804646-1.337926 1.15625-2.21875 1.266994-3.174035.83269-6.8096-.625-9.875-1.524558-3.206044-4.349426-6.005839-8.0625-7.78125-4.902438-2.344119-10.169983-2.259105-14.28125-.1875l-2.59375-2.4375c.836259-1.20318 1.617478-2.4426 2.125-3.875.163196-.460592.337746-.935732.46875-1.4375.0026-.0099-.0026-.02134 0-.03125-.03193.130005-.01425.08762.03125-.09375.0592-.161317.113151-.315867.15625-.4375 2.74165-7.737908-.429278-16.043038-6.90625-21.84375l1.46875-1.5625c2.696162.876964 5.680597 1.10034 8.3125.5 2.770631-.631984 5.223146-2.158027 6.25-4.6875 1.191679-2.869915.619815-5.459783-.5-7.375-1.165932-1.994087-3.222909-3.60941-5.84375-4.625-1.966895-.762186-4.027234-1.096698-5.96875-1.03125z" opacity=".15"/><path d="m58.213084 12.44856c-3.029549.102125-5.802756 1.226181-7.185984 3.436775-.418558.668919-.741179 1.373502-1.023581 2.040389-.609917 1.440322-.613725 3.035785-.101187 4.479068.333427.938895.965232 1.79742 1.749635 2.582788l-2.374502 2.54113c-1.642391-.941181-3.404434-1.760716-5.311372-2.395328-4.344838-1.445921-8.743425-1.80116-12.830627-1.270565l-.395748-.729012c.283152-.240357.528948-.513419.72901-.833159.371351-.599552.704373-1.058356.993833-1.642512.659261-1.330392.347809-3.188434-.389793-4.439537-.737601-1.251102-2.024031-2.284511-3.707552-2.936879-1.683496-.652363-3.479476-.817861-5.061432-.541553s-3.01335 1.015313-3.811696 2.291183c-.372067.602146-.552041 1.317429-.845056 1.910309-.658468 1.33234-.495651 2.915819.24102 4.171741.736669 1.255921 2.022264 2.304653 3.70755 2.957709.914734.354464 1.862463.468274 2.79108.541552l.333262.624869c-6.354035 2.200354-11.037148 7.38606-12.928818 13.378132-3.3725752 10.682987 4.356813 22.180014 17.115432 26.425967 8.575048 2.853693 17.3835 1.576614 23.453379-2.77025l3.457603 3.311805c-.0026.0051.0026.01542 0 .02077-.387646.764436-.863726 1.565652-1.169801 2.332424-1.151566 2.884862-.738929 6.1026.628255 8.97769 1.426627 3.000086 4.082171 5.65937 7.623389 7.352612 7.081688 3.386121 15.318734 1.710037 18.287816-4.144958.387646-.764436.821647-1.397335 1.127721-2.164099 1.151567-2.884871.781017-6.270924-.586175-9.146014-1.426619-3.000086-4.082171-5.65937-7.623398-7.352612-4.908291-2.346918-10.250108-2.186565-14.14284.04162l-3.478433-3.290942c.996797-1.313428 1.829208-2.75548 2.395323-4.35325.164687-.464799.316337-.926263.437413-1.395534.0069-.02809.0137-.05515.02077-.08333.06963-.175021.144936-.341949.208283-.520727 2.701962-7.625896-.548496-15.953891-7.310959-21.578786l2.416194-2.56196c.05722.02267.109692.06126.166627.08331 5.270947 1.885582 12.061813.791546 13.833379-3.572393 1.084733-2.612356.577242-4.830848-.440366-6.57126-1.041126-1.780631-2.909078-3.293985-5.373866-4.249104-1.849502-.716695-3.807514-1.019358-5.623813-.958131v-.000033z" opacity=".3"/><g transform="matrix(1.0078478 0 0 1.0078478 -1.521576 -2.464799)"><path d="m59.269524 13.80502c-3.005959.10133-5.757571 1.216633-7.130029 3.410014-.415299.66371-.735407 1.362807-1.01561 2.024501-.605168 1.429107-.608947 3.012146-.100399 4.444191.33083.931584.957716 1.783424 1.736011 2.562676l-2.356013 2.521343c-1.629602-.933852-3.377925-1.747005-5.270014-2.376676-4.311006-1.434662-8.675342-1.787135-12.730719-1.260671l-.392666-.723336c.280947-.238485.524829-.509421.723333-.826671.36846-.594884.698889-1.050115.986095-1.629723.654127-1.320032.3451-3.163606-.386758-4.404967-.731858-1.24136-2.008271-2.266722-3.678683-2.914011-1.670387-.647283-3.452382-.811492-5.02202-.537336-1.569638.274157-2.989886 1.007407-3.782015 2.273343-.36917.597457-.547743 1.30717-.838476 1.895434-.653341 1.321965-.491792 2.893114.239143 4.139256.730933 1.246142 2.006517 2.286708 3.678681 2.934679.907611.351704 1.84796.464627 2.769346.537335l.330667.620003c-6.304558 2.183221-10.951205 7.328547-12.828145 13.273961-3.346314 10.599802 4.322888 22.007305 16.982159 26.220196 8.508277 2.831472 17.24814 1.564337 23.270755-2.748679l3.43068 3.286017c-.0026.0051.0026.0153 0 .02061-.384628.758484-.857001 1.553461-1.160692 2.314262-1.142599 2.862399-.733175 6.055081.623363 8.907784 1.415518 2.976725 4.050384 5.615302 7.564028 7.295359 7.026545 3.359755 15.199452 1.696722 18.145414-4.112682.384628-.758484.815249-1.386455 1.11894-2.147248 1.1426-2.862407.774935-6.222094-.581611-9.074797-1.41551-2.976725-4.050384-5.615302-7.564037-7.295359-4.870071-2.328644-10.170293-2.169539-14.032714.0413l-3.451347-3.265317c.989035-1.303201 1.814964-2.734024 2.376671-4.319352.163405-.46118.313874-.919051.434007-1.384668.0068-.02787.01359-.05472.02061-.08268.06909-.173658.143808-.339286.206662-.516672 2.680922-7.566516-.544225-15.829663-7.254031-21.410759l2.39738-2.542011c.05677.02249.108837.06078.165329.08266 5.229904 1.870899 11.967892.785382 13.725663-3.544576 1.076284-2.59202.572745-4.793237-.436939-6.520097-1.033019-1.766766-2.886426-3.268336-5.332021-4.216017-1.835101-.711115-3.777867-1.011421-5.580023-.950671v-.000032z" fill="#024c88"/><path d="m59.310857 14.75569c-2.788823.09401-5.229049 1.139357-6.365356 2.955346-1.439536 2.300582-.3441 5.143044 2.43867 7.10936l-4.794683 5.125354c-1.756301-1.066854-3.665456-1.973837-5.745353-2.66601-4.407933-1.466916-8.891118-1.795018-12.978722-1.157338l-1.777343-3.327347c1.090366-.309929 1.996745-.889311 2.500677-1.694673 1.201853-1.920731-.27032-4.411428-3.286009-5.580022s-6.444848-.577392-7.646697 1.343338c-1.201853 1.920732.270321 4.432095 3.286013 5.600689.998244.386829 2.046422.585269 3.038014.599336l1.839342 3.451347c-6.356754 1.551957-11.504469 5.548318-13.536721 11.284048-3.507217 9.898589 3.585849 21.234909 15.851393 25.316767 8.546925 2.844332 17.347897 1.417416 23.084759-3.058681l5.063352 4.815349c-.60958.626185-1.146447 1.312196-1.550006 2.108011-2.654506 5.234657.593334 12.067229 7.254027 15.252062 6.660701 3.184824 14.230236 1.535308 16.884741-3.69935 2.654515-5.234657-.593325-12.067229-7.254035-15.252062-4.882298-2.334483-10.245288-2.061933-13.805387.310002l-5.104684-4.836016c1.770742-1.726802 3.148408-3.787152 3.988676-6.158693 2.715427-7.663888-.935407-16.202826-8.411367-21.555419l4.877356-5.187354c.240837.111336.488156.21086.744.310001 4.561993 1.767791 9.73461.859578 11.552712-2.046008 1.818111-2.905586-.398027-6.705575-4.960012-8.473367-1.710744-.662923-3.514063-.945075-5.187357-.88867z" fill="url(#e)"/><path d="m94.9375 243.8125c-2.034588.0427-4.043899.16751-6.0625.375a1.7928089 1.7928089 0 0 0 -1.4375 1l-2.4375 5.09375a1.7928089 1.7928089 0 0 0 2.09375 2.5c1.572446-.43144 3.226732-.70738 4.9375-.84375 1.743771-.13901 3.566234-.14476 5.53125.0312 2.49136.2232 4.18551.7225 4.84375 1.125a1.7928089 1.7928089 0 0 0 .0312 0c.0503.03.024.036.0625.0625l-4.25-.46875c-5.544372-.62518-9.807064-.4465-13.15625.71875-3.330879 1.16807-5.933993 3.52321-7.625 6.875-1.488965 2.95131-1.7733 6.07664-.4375 8.8125a1.7928089 1.7928089 0 0 0 .03125.0312c1.450191 2.88118 4.34853 4.7953 8.21875 5.6875 2.925232.67435 5.771417.77751 8.40625.1875 1.204384-.27974 2.37195-.75683 3.53125-1.3125l-.25.84375a1.7928089 1.7928089 0 0 0 1.3125 2.25l13.875 3.125a1.7928089 1.7928089 0 0 0 2.1875-1.46875l3.2813-19.6874c.80369-4.84067-.38716-8.81779-3.46875-11.1875-2.87162-2.24445-7.17491-3.25949-12.90625-3.625-2.081409-.13266-4.198792-.17898-6.28125-.125-.01036.00027-.02089-.00027-.03125 0zm-.78125 17.3125c.741323-.0297 1.654575.0415 2.6875.1875l3.5625.5c-.489477 1.03355-1.202809 1.93022-2.40625 2.625-.0078.005-.0234-.005-.03125 0-1.583121.88763-3.136921 1.16903-4.875.84375-1.394964-.26107-2.097659-.72172-2.375-1.0625-.246129-.3413-.318696-.46673 0-1.25.319759-.78593.741784-1.2185 1.625-1.53125.0082-.003.02299.003.03125 0 .485281-.16242 1.062331-.28366 1.78125-.3125z" fill="#024c88" transform="matrix(.66133595 0 0 .66133595 -26.270146 -129.43622)"/><path d="m59.310857 14.75569c-2.788823.09401-5.229049 1.139357-6.365356 2.955346-.556268.888987-.730541 1.862348-.57867 2.831344.08645-.518276.276082-1.025104.57867-1.508673 1.136307-1.815989 3.576533-2.861336 6.365356-2.955345 1.673294-.05641 3.476613.225747 5.187357.888671 3.136361 1.215357 5.168521 3.394604 5.538683 5.580021.39441-2.587681-1.763586-5.439825-5.538683-6.902694-1.710744-.662923-3.514063-.945075-5.187357-.88867zm-33.438799.165334c-1.846516.05674-3.464858.742218-4.216017 1.942674-.403673.645127-.487484 1.361546-.330668 2.066676.06888-.254774.180439-.503912.330668-.744003 1.201849-1.920732 4.631008-2.511932 7.646697-1.343339 1.9838.76873 3.290566 2.118319 3.616685 3.492681.466199-1.774775-.987634-3.796585-3.616685-4.815353-1.130886-.438221-2.322761-.633368-3.43068-.599336zm4.815348 8.969369c-.193733.07879-.390571.167993-.599336.227334l1.777343 3.327347c4.087604-.63768 8.570789-.309578 12.978722 1.157337 2.079897.692175 3.989052 1.599157 5.745353 2.666011l4.794683-5.125354c-.250679-.177131-.479991-.367689-.702668-.558002l-4.092015 4.360684c-1.756301-1.066854-3.665456-1.973837-5.745353-2.66601-4.407933-1.466916-8.891118-1.795018-12.978722-1.157338zm-1.487999 2.790011c-6.068479 1.65578-10.951374 5.571821-12.916718 11.118714-.679111 1.916688-.944371 3.887294-.868003 5.848684.06709-1.521346.341508-3.040058.868003-4.526014 2.032252-5.735729 7.179967-9.732089 13.536721-11.284046zm23.808093 4.918686-.723342.764669c5.561315 3.981757 8.997596 9.725682 9.279373 15.562062.207525-6.019272-3.022479-12.063654-8.556031-16.326731zm4.360684 27.796779c-.214861.233604-.4331.459436-.661335.682001l5.104684 4.836024c3.560099-2.371943 8.923089-2.644485 13.805387-.310001 4.843291 2.315826 7.865565 6.569597 8.142707 10.726039.361491-4.555743-2.779777-9.484427-8.142707-12.048718-4.882298-2.334483-10.245288-2.061933-13.805387.310002zm2.27334 6.200026c-.343612.425568-.65588.884858-.909337 1.384669-.7243 1.428309-.992661 2.966336-.888672 4.526022.08749-1.102456.371461-2.183416.888672-3.203352.403559-.795807.940426-1.481827 1.550006-2.108002z" fill="#fefefe" opacity="0"/><path d="m21.325373 17.628368c-.466202 1.778802.987633 3.817251 3.616681 4.836019.998244.386829 2.046422.585269 3.038014.599336l1.219339 2.294009c.206594-.05635.410716-.114239.620003-.165334l-1.839342-3.451347c-.991592-.01408-2.03977-.212507-3.038014-.599336-1.993291-.772413-3.298532-2.125969-3.616681-3.513347zm11.59405 1.405339c-.06892.254205-.180438.503912-.330676.744003-.503932.805362-1.410311 1.384745-2.500677 1.694673l.599336 1.095338c.818166-.332725 1.4939-.816175 1.901341-1.467339.407466-.651178.493859-1.358205.330676-2.066675zm19.447408.186001c-.287804 1.725333.585032 3.564409 2.314672 5.042686l.702668-.764669c-1.707444-1.206496-2.776194-2.739386-3.01734-4.278017zm17.670066 2.004674c-.08217.539379-.26507 1.069493-.578671 1.570673-1.818102 2.905587-6.990719 3.813799-11.552712 2.046009-.255844-.09914-.503163-.198666-.744-.310002l-4.877356 5.187354c.249439.178587.482513.372471.723342.558002l4.154014-4.422684c.240837.111336.488156.21086.744.310001 4.561993 1.767791 9.73461.859578 11.552712-2.046008.568162-.907994.746933-1.899972.578671-2.893345zm-54.622211 21.10075c-.379859 8.613027 6.295128 17.321656 16.719396 20.790753 8.546925 2.844332 17.347897 1.417416 23.084759-3.058681l4.422683 4.216013c.203498-.25203.41394-.490422.640669-.723334l-5.063352-4.815349c-5.736862 4.476089-14.537834 5.903013-23.084759 3.058681-9.890537-3.291481-16.401372-11.299999-16.719396-19.468083zm46.148845 4.278019c-.05412 1.570211-.324948 3.137985-.868006 4.670686-.840268 2.371541-2.217934 4.431891-3.988676 6.158693l.661335.640669c1.452157-1.578812 2.59538-3.410826 3.327341-5.476692.695434-1.962775.965018-3.984016.868006-5.993356zm-3.720016 23.580756c-.361491 4.555752 2.779785 9.484428 8.142699 12.048719 6.660701 3.184824 14.230236 1.535308 16.884741-3.69935.7243-1.428309.99267-2.966337.888672-4.526013-.08748 1.102447-.371461 2.183407-.888672 3.203343-2.654505 5.234658-10.22404 6.884174-16.884741 3.69935-4.843283-2.315827-7.865557-6.569606-8.142699-10.726049z" fill="#fefefe" opacity=".2"/><path d="m37.9378 42.205632c-1.471275-.208004-2.634191-.160097-3.515116.139747-.867637.301502-1.46387.851854-1.794674 1.66494-.310762.763768-.269883 1.427395.13442 1.988015.431536.563981 1.197108.953047 2.304925 1.160376 1.411328.264129 2.771534.03591 4.047682-.685413 1.270042-.728104 2.088173-1.746493 2.452025-3.02477 0 0 .199676-.701538.199676-.701538s-3.828938-.541357-3.828938-.541357m12.401753-.698213s-2.161467 13.017806-2.161467 13.017806-9.176384-2.063634-9.176384-2.063634.991147-3.48229.991147-3.48229c-1.495395 1.16206-3.031943 1.931745-4.58248 2.291885-1.536266.344015-3.221488.302913-5.019574-.111599-2.337536-.538868-3.874554-1.603309-4.648848-3.141636-.714133-1.462622-.604646-3.059912.267096-4.787817 1.005862-1.993743 2.452461-3.287488 4.383368-3.964615 1.944836-.67664 4.625719-.822791 8.196805-.420121 0 0 4.154672.46849 4.154672.46849s.121432-.426611.121432-.426611c.241052-.846997-.02941-1.494412-.792121-1.949487-.740716-.452929-1.989451-.754448-3.722469-.909707-1.367867-.122525-2.654096-.133821-3.869886-.0369-1.200118.09566-2.354013.296569-3.469944.602757 0 0 1.609047-3.360363 1.609047-3.360363 1.313837-.135044 2.627435-.216627 3.944573-.243675 1.344166-.03551 2.690075-.01111 4.041859.07505 3.677332.234516 6.342492.937491 7.898364 2.153562 1.674106 1.287369 2.32377 3.34388 1.83481 6.288944" fill="url(#f)"/><path d="m36.350103 34.595769c-.644516-.006-1.252112.03419-1.860008.08266-.94489.07532-1.857058.228182-2.748679.434002l-.723342 1.488008c1.11594-.306188 2.271903-.503675 3.472021-.599337 1.215791-.09692 2.496812-.101859 3.864679.02063 1.733018.155265 2.979299.456408 3.720016.909337.364338.217384.606407.479366.743999.785332l.0413-.144663c.241051-.846989-.02266-1.508269-.785332-1.963342-.740717-.452929-1.986998-.754074-3.720016-.909337-.683934-.06124-1.360155-.09731-2.004671-.103333zm14.115388 4.546685c-.02591.334532-.06413.672331-.124006 1.033335l-2.170009 13.020054-8.824699-1.984005-.351334 1.240006 9.176033 2.066669 2.170009-13.020054c.144458-.870075.175368-1.637964.124006-2.356005zm-14.508062 1.612005c-.58475.02351-1.088878.118747-1.529341.268669-.867637.301494-1.467196.860917-1.798 1.674003-.243181.59767-.275792 1.117684-.08268 1.591339.02787-.09233.04386-.173195.08268-.26866.330804-.813087.930363-1.372519 1.798-1.674012.880925-.299852 2.042079-.352676 3.513354-.144663l3.43068.47533c.07439-.178856.131778-.367502.185996-.558004l.20667-.702667-3.823346-.537338c-.735637-.103998-1.399255-.147451-1.984013-.123997zm-10.643376 4.588021c-.124911.933364.0218 1.821625.434007 2.666006.774285 1.538327 2.312484 2.602477 4.650011 3.141345 1.798095.414512 3.485762.46802 5.022028.124006 1.384113-.321485 2.749517-.980716 4.092016-1.942673l.47533-1.674012c-1.495395 1.162052-3.016809 1.933874-4.567346 2.294015-1.536266.344015-3.223933.290506-5.022028-.124006-2.337527-.538868-3.875726-1.603018-4.650011-3.141345-.213792-.437872-.366194-.881438-.434007-1.343336z" fill="#fefefe"/></g></svg>