<svg height="96" width="96" xmlns="http://www.w3.org/2000/svg" xmlns:xlink="http://www.w3.org/1999/xlink"><linearGradient id="a"><stop offset="0" stop-color="#fefefe"/><stop offset="1" stop-color="#fefefe" stop-opacity="0"/></linearGradient><linearGradient id="b" gradientUnits="userSpaceOnUse" x1="36.357143" x2="36.357143" xlink:href="#a" y1="6" y2="63.893143"/><filter id="c" color-interpolation-filters="sRGB" height="1.384" width="1.384" x="-.192" y="-.192"><feGaussianBlur stdDeviation="5.28"/></filter><linearGradient id="d" gradientUnits="userSpaceOnUse" x1="48" x2="48" xlink:href="#a" y1="20.220806" y2="138.66119"/><radialGradient id="e" cx="48" cy="90.171875" gradientTransform="matrix(1.1573129 0 0 .99590774 -7.551021 .197132)" gradientUnits="userSpaceOnUse" r="42" xlink:href="#a"/><clipPath id="f"><rect height="84" rx="6" width="84" x="6" y="6"/></clipPath><linearGradient id="g" gradientUnits="userSpaceOnUse" x1="48" x2="48" y1="-6" y2="-90.012283"><stop offset="0" stop-color="#d9cce6"/><stop offset="1" stop-color="#a895b9"/></linearGradient><linearGradient id="h" gradientTransform="matrix(1.0058652 0 0 .994169 100 0)" gradientUnits="userSpaceOnUse" x1="45.447727" x2="45.447727" y1="92.539597" y2="7.01654"><stop offset="0"/><stop offset="1" stop-opacity=".588235"/></linearGradient><linearGradient id="i" gradientTransform="matrix(1.0238095 0 0 1.0119048 -1.142857 -98.071429)" gradientUnits="userSpaceOnUse" x1="32.251034" x2="32.251034" xlink:href="#h" y1="6.131708" y2="90.238609"/><linearGradient id="j" gradientTransform="translate(0 -97)" gradientUnits="userSpaceOnUse" x1="32.251034" x2="32.251034" xlink:href="#h" y1="6.131708" y2="90.238609"/><linearGradient id="k" gradientTransform="matrix(-1 0 0 1 95.976106 110)" gradientUnits="userSpaceOnUse" x1="54.669384" x2="54.669384" y1="23.993031" y2="87.240341"><stop offset="0" stop-color="#d9cce6"/><stop offset="1" stop-color="#73667f"/></linearGradient><linearGradient id="l" gradientUnits="userSpaceOnUse" x1="4.459111" x2="106.06667" y1="48" y2="48"><stop offset="0" stop-color="#47294f"/><stop offset="1" stop-color="#47294f" stop-opacity="0"/></linearGradient><g fill="url(#i)"><path d="m12-95.03125c-5.5110903 0-10.03125 4.52016-10.03125 10.03125v71c0 5.5110902 4.5201598 10.03125 10.03125 10.03125h72c5.51109 0 10.03125-4.5201597 10.03125-10.03125v-71c0-5.51109-4.52016-10.03125-10.03125-10.03125z" opacity=".08" transform="scale(1 -1)"/><path d="m12-94.03125c-4.971633 0-9.03125 4.059617-9.03125 9.03125v71c0 4.9716329 4.0596171 9.03125 9.03125 9.03125h72c4.971633 0 9.03125-4.059617 9.03125-9.03125v-71c0-4.971633-4.059617-9.03125-9.03125-9.03125z" opacity=".1" transform="scale(1 -1)"/><path d="m12-93c-4.4091333 0-8 3.590867-8 8v71c0 4.4091333 3.5908667 8 8 8h72c4.409133 0 8-3.5908667 8-8v-71c0-4.409133-3.590867-8-8-8z" opacity=".2" transform="scale(1 -1)"/><rect height="85" opacity=".3" rx="7" transform="scale(1 -1)" width="86" x="5" y="-92"/></g><rect fill="url(#j)" height="84" opacity=".45" rx="6" transform="scale(1 -1)" width="84" x="6" y="-91"/><rect fill="url(#g)" height="84" rx="6" transform="scale(1 -1)" width="84" x="6" y="-90"/><path d="m12 6c-3.324 0-6 2.676-6 6v2 68 2c0 .334721.04135.6507.09375.96875.0487.295596.09704.596915.1875.875.00988.03038.020892.0636.03125.09375.098865.287771.2348802.547452.375.8125.1445918.273507.3156161.535615.5.78125s.3737765.473472.59375.6875c.439947.428056.94291.814526 1.5 1.09375.278545.139612.5734731.246947.875.34375-.2562018-.100222-.4867109-.236272-.71875-.375-.00741-.0044-.023866.0045-.03125 0-.031933-.0193-.062293-.04251-.09375-.0625-.120395-.0767-.2310226-.163513-.34375-.25-.1061728-.0808-.2132809-.161112-.3125-.25-.1779299-.161433-.3474596-.345388-.5-.53125-.1075789-.130255-.2183939-.265285-.3125-.40625-.025089-.03838-.038446-.08587-.0625-.125-.064763-.103032-.1302275-.204517-.1875-.3125-.1010083-.194706-.2056748-.415701-.28125-.625-.00796-.02181-.023589-.04055-.03125-.0625-.0318251-.09195-.0358045-.186831-.0625-.28125-.0303323-.106618-.0703894-.203031-.09375-.3125-.0728786-.341512-.125-.698205-.125-1.0625v-2-68-2c0-2.781848 2.2181517-5 5-5h2 68 2c2.781848 0 5 2.218152 5 5v2 68 2c0 .364295-.05212.720988-.125 1.0625-.04415.206893-.08838.397658-.15625.59375-.0077.02195-.0233.04069-.03125.0625-.06274.173739-.138383.367449-.21875.53125-.04158.0828-.07904.169954-.125.25-.0546.09721-.126774.18835-.1875.28125-.09411.140965-.204921.275995-.3125.40625-.143174.17445-.303141.346998-.46875.5-.01117.0102-.01998.02115-.03125.03125-.138386.125556-.285091.234436-.4375.34375-.102571.07315-.204318.153364-.3125.21875-.0074.0045-.02384-.0044-.03125 0-.232039.138728-.462548.274778-.71875.375.301527-.0968.596455-.204138.875-.34375.55709-.279224 1.060053-.665694 1.5-1.09375.219973-.214028.409366-.441865.59375-.6875s.355408-.507743.5-.78125c.14012-.265048.276135-.524729.375-.8125.01041-.03078.02133-.06274.03125-.09375.09046-.278085.1388-.579404.1875-.875.0524-.31805.09375-.634029.09375-.96875v-2-68-2c0-3.324-2.676-6-6-6z" fill="url(#b)" opacity=".5"/><path d="m12 90c-3.324 0-6-2.676-6-6v-2-68-2c0-.334721.04135-.6507.09375-.96875.0487-.295596.09704-.596915.1875-.875.00988-.03038.020892-.0636.03125-.09375.098865-.287771.2348802-.547452.375-.8125.1445918-.273507.3156161-.535615.5-.78125s.3737765-.473472.59375-.6875c.439947-.428056.94291-.814526 1.5-1.09375.278545-.139612.5734731-.246947.875-.34375-.2562018.100222-.4867109.236272-.71875.375-.00741.0044-.023866-.0045-.03125 0-.031933.0193-.062293.04251-.09375.0625-.120395.0767-.2310226.163513-.34375.25-.1061728.0808-.2132809.161112-.3125.25-.1779299.161433-.3474596.345388-.5.53125-.1075789.130255-.2183939.265285-.3125.40625-.025089.03838-.038446.08587-.0625.125-.064763.103032-.1302275.204517-.1875.3125-.1010083.194706-.2056748.415701-.28125.625-.00796.02181-.023589.04055-.03125.0625-.0318251.09195-.0358045.186831-.0625.28125-.0303323.106618-.0703894.203031-.09375.3125-.0728786.341512-.125.698205-.125 1.0625v2 68 2c0 2.781848 2.2181517 5 5 5h2 68 2c2.781848 0 5-2.218152 5-5v-2-68-2c0-.364295-.05212-.720988-.125-1.0625-.04415-.206893-.08838-.397658-.15625-.59375-.0077-.02195-.0233-.04069-.03125-.0625-.06274-.173739-.138383-.367449-.21875-.53125-.04158-.0828-.07904-.169954-.125-.25-.0546-.09721-.126774-.18835-.1875-.28125-.09411-.140965-.204921-.275995-.3125-.40625-.143174-.17445-.303141-.346998-.46875-.5-.01117-.0102-.01998-.02115-.03125-.03125-.138386-.125556-.285091-.234436-.4375-.34375-.102571-.07315-.204318-.153364-.3125-.21875-.0074-.0045-.02384.0044-.03125 0-.232039-.138728-.462548-.274778-.71875-.375.301527.0968.596455.204138.875.34375.55709.279224 1.060053.665694 1.5 1.09375.219973.214028.409366.441865.59375.6875s.355408.507743.5.78125c.14012.265048.276135.524729.375.8125.01041.03078.02133.06274.03125.09375.09046.278085.1388.579404.1875.875.0524.31805.09375.634029.09375.96875v2 68 2c0 3.324-2.676 6-6 6z" fill="url(#e)" opacity=".2"/><path d="m74.823853 160.70427 4.273182-8.54637-19.015662-11.53759.427318-3.63221-24.998117-10.68295 2.136591 6.62343s-20.297616 18.58834-7.478069 52.56014l17.09273 7.05075 23.075185-5.76879s-23.288844-1.0683-21.152253-27.98935c0 0 9.187342-5.55513 25.639095 1.92294z" fill="url(#k)"/><rect height="66" rx="12" style="opacity:.1;stroke:#fefefe;stroke-width:.5;stroke-linecap:round;clip-path:url(#f);fill:url(#d);filter:url(#c)" width="66" x="15" y="15"/><g><path d="m80 48a32 32 0 1 1 -64 0 32 32 0 1 1 64 0z" fill="url(#l)" transform="matrix(0 1 1 0 -.023893 0)"/><path d="m16 47.5c-.0025.166277-.03125.333117-.03125.5 0 17.673112 14.326888 32 32 32s32-14.326888 32-32c0-.166668.0025-.333936 0-.5-.266707 17.442958-14.493556 31.5-32 31.5-17.506229 0-31.701704-14.057339-31.96875-31.5z" fill="#fefefe" opacity=".4"/><path d="m48.21875 14.84375c-14.000856-.190874-23.825501 6.580025-29.34375 16.125-5.51372 9.537141-6.945738 21.704687-4.9375 32.75a.97695028.97695028 0 0 0 .03125.03125c.0006.0025.0305.122562.03125.125.000749.0024.03035.122612.03125.125.000896.0024.06146.122671.0625.125.001.0023.03007.09149.03125.09375 0 0 .125709.273009.34375.5625.186117.247107.457999.550108.84375.84375.668476.508858 1.685402.950978 3 1.21875.38263 4.249954.887902 8.810669 1.5 14.71875.000207.0021-.00031.09169 0 .09375.00031.0021.03084.122955.03125.125.000412.002.03074.09173.03125.09375.000513.002-.000612.09176 0 .09375.000612.002.06179.09179.0625.09375.000711.002.03044.09183.03125.09375.000807.0019.03035.09187.03125.09375.000901.0019.06151.09192.0625.09375.000994.0018.03017.09197.03125.09375.0011.0018.06133.09202.0625.09375.0012.0017.06124.09208.0625.09375.0013.0017.06116.0609.0625.0625.0013.0016.06109.09222.0625.09375.0014.0015.06101.06104.0625.0625.0015.0015.09219.06111.09375.0625.0016.0014.06087.06119.0625.0625a.97695028.97695028 0 0 0 .03125.03125s2.846764 2.236893 6.875 2.78125c.0026.000334.122359-.000169.125 0 .0026.000169.122354.03125.125.03125.0026.000002.153609-.03109.15625-.03125.0026-.000164.122375.00033.125 0 .0026-.00033.122401-.03075.125-.03125.0026-.000495.122437-.03059.125-.03125.0026-.000657.122483-.03043.125-.03125.0025-.000817.12254-.03028.125-.03125.0025-.000974.122606-.06137.125-.0625.0024-.0011.122681-.06122.125-.0625.0023-.0013.09152-.06108.09375-.0625.0022-.0014.12286-.06094.125-.0625.0021-.0016.09171-.09206.09375-.09375.002-.0017.09182-.09194.09375-.09375.0019-.0018.09194-.06057.09375-.0625.0018-.0019.09207-.12296.09375-.125.0017-.002.06095-.09161.0625-.09375.0016-.0021.09233-.09152.09375-.09375.0014-.0022.06123-.12268.0625-.125.0013-.0023.06138-.122605.0625-.125.0011-.0024.03028-.122539.03125-.125.000971-.0025.06169-.122482.0625-.125.000814-.0025.0306-.122436.03125-.125.000654-.0026.03076-.1224.03125-.125.000492-.0026.03092-.122374.03125-.125.000327-.0026-.000161-.122359 0-.125.000161-.0026.000005-.122354 0-.125-.000005-.0026.000171-.12236 0-.125-.000171-.0026-.03091-.122376-.03125-.125-.000337-.0026.000502-.153652 0-.15625-.000502-.0026-.03059-.122439-.03125-.125-.000664-.0026-.03043-.122486-.03125-.125-.371106-1.078527-.643879-2.137544-.9375-3.1875 1.172237.529268 2.621558 1.072922 4.21875 1.3125.0027.00042.12232-.000249.125 0 .0027.000249.15356.03117.15625.03125.0027.000077.12231.000095.125 0 .0027-.000095.122322-.03098.125-.03125.0027-.000267.122345.000438.125 0 .0027-.000438.153628-.03064.15625-.03125.0026-.000607.122422-.03048.125-.03125.0026-.000773.122477-.03031.125-.03125.0025-.000937.122542-.0614.125-.0625.0025-.0011.09137-.06125.09375-.0625.0024-.0013.122702-.0611.125-.0625.0023-.0014.122796-.06096.125-.0625.0022-.0015.09165-.09207.09375-.09375.0021-.0017.09176-.09194.09375-.09375.002-.0018.09188-.09181.09375-.09375.0019-.0019.09201-.0917.09375-.09375.0017-.0021.09215-.09159.09375-.09375.0016-.0022.06104-.122742.0625-.125.0015-.0023.09243-.0914.09375-.09375.0013-.0023.06134-.122573.0625-.125.0012-.0024.03024-.122504.03125-.125.001-.0025.06166-.122445.0625-.125.000844-.0026.03057-.122396.03125-.125.000679-.0026.03074-.122358.03125-.125.000511-.0026.03091-.12233.03125-.125.000341-.0027-.00017-.153564 0-.15625.00017-.0027.000003-.122309 0-.125-.000003-.0027.000175-.122314 0-.125-.000175-.0027.000346-.122331 0-.125-.000346-.0027-.03073-.153609-.03125-.15625-.000516-.0026-.03057-.122397-.03125-.125-.000523-.002-.02082-.0588-.03125-.09375-.0032-.01019.0032-.02106 0-.03125-8.128522-25.937956-6.155775-40.342386-.34375-47.40625 5.817655-7.070706 16.114232-7.838507 26.59375-5.15625a.97695028.97695028 0 0 0 .0625.03125c.0038.000768.183667.03083.1875.03125.0038.000418.183645-.000066.1875 0 .0039.000066.183655.000288.1875 0 .0038-.000288.183697-.03061.1875-.03125.0038-.000639.183772-.03027.1875-.03125.0037-.000984.183878-.06118.1875-.0625.0036-.0013.152764-.06085.15625-.0625.0035-.0016.18418-.09179.1875-.09375.0033-.002.153123-.122744.15625-.125.0031-.0023.153343-.09122.15625-.09375.0029-.0025.122337-.153461.125-.15625.0027-.0028.122604-.121979.125-.125.0024-.003.12289-.153022.125-.15625.0021-.0032.09195-.152843.09375-.15625.0018-.0034.06101-.183942.0625-.1875.0015-.0036.0926-.183821.09375-.1875.0012-.0037.03044-.18373.03125-.1875.000811-.0038.03079-.183672.03125-.1875.000463-.0038.03114-.183646.03125-.1875.00011-.0039-.03101-.183652-.03125-.1875-.000041-.000641.000953-.02237 0-.03125.595213.137334 1.055497.142708 1.6875.3125a.97695028.97695028 0 0 0 .0625.03125c.0038.000768.183667.03083.1875.03125.0038.000418.183645-.000066.1875 0 .0039.000066.183655.000288.1875 0 .0038-.000288.183697-.03061.1875-.03125.0038-.000639.183772-.03027.1875-.03125.0037-.000984.183878-.06118.1875-.0625.0036-.0013.152764-.06085.15625-.0625.0035-.0016.18418-.09179.1875-.09375.0033-.002.153123-.122744.15625-.125.0031-.0023.153343-.09122.15625-.09375.0029-.0025.122337-.153461.125-.15625.0027-.0028.122604-.121979.125-.125.0024-.003.12289-.153022.125-.15625.0021-.0032.09194-.152843.09375-.15625.0018-.0034.06101-.183942.0625-.1875.0015-.0036.0926-.183821.09375-.1875.0012-.0037.03044-.18373.03125-.1875.000811-.0038.03079-.183672.03125-.1875.000463-.0038.03114-.183646.03125-.1875.00011-.0039-.03101-.183652-.03125-.1875-.000243-.0038.000595-.18369 0-.1875-.000595-.0038-.03031-.183761-.03125-.1875-.000941-.0037-.06122-.183863-.0625-.1875-.0013-.0036-.06089-.152745-.0625-.15625-.0016-.0035-.09183-.184157-.09375-.1875-.0019-.0033-.12278-.153097-.125-.15625-.0022-.0032-.09125-.153314-.09375-.15625-.0025-.0029-.122242-.122305-.125-.125-.0028-.0027-.153257-.122569-.15625-.125-.003-.0024-.153047-.122853-.15625-.125-.0032-.0021-.152864-.09191-.15625-.09375-.0034-.0018-.183959-.09222-.1875-.09375a.97695028.97695028 0 0 0 -.03125 0s-2.463363-.897132-5.5625-1.78125c-.252161-.07194-.497883-.125529-.75-.1875-.0024-.02942.000134-.06129 0-.0625-.000269-.0024-.03084-.122599-.03125-.125-.000408-.0024-.0307-.122626-.03125-.125-.000547-.0024-.03057-.09141-.03125-.09375-.000683-.0023-.03043-.122705-.03125-.125-.000818-.0023-.0303-.122757-.03125-.125-.000949-.0022-.06142-.09156-.0625-.09375-.0011-.0022-.0613-.122881-.0625-.125-.0012-.0021-.06118-.09171-.0625-.09375-.0013-.002-.06106-.09179-.0625-.09375-.0014-.002-.06095-.09187-.0625-.09375-.0016-.0019-.09209-.09196-.09375-.09375-.0017-.0018-.06074-.09206-.0625-.09375-.0018-.0017-.0919-.06092-.09375-.0625-.0019-.0016-.09181-.09228-.09375-.09375-.0019-.0015-.09173-.06114-.09375-.0625-.002-.0014-.122902-.06126-.125-.0625-.0021-.0012-.09158-.06139-.09375-.0625-.0022-.0011-.122773-.06151-.125-.0625-.0022-.000987-.09147-.03039-.09375-.03125-.0023-.000857-.122674-.03053-.125-.03125-.0023-.000723-.09139-.03066-.09375-.03125a.97695028.97695028 0 0 0 -.03125 0c-3.846468-.882523-7.497887-1.391034-10.90625-1.4375z" opacity=".08"/><path d="m48.21875 15.8125c-13.682817-.186538-23.130576 6.368699-28.5 15.65625s-6.783455 21.222245-4.8125 32.0625a1.1029713 1.1029713 0 0 0 .09375.25s.104308.212816.25.40625.349938.423079.65625.65625c.612625.466343 1.584018.939166 3.03125 1.15625a1.1029713 1.1029713 0 0 0 .28125 0c.386835 4.406694.918954 9.257126 1.5625 15.46875a1.1029713 1.1029713 0 0 0 .40625.75s2.671246 2.089019 6.40625 2.59375a1.1029713 1.1029713 0 0 0 1.1875-1.4375c-.642698-1.867842-1.0815-3.615958-1.59375-5.40625.569671.331602 3.275619 1.846031 5.96875 2.25a1.1029713 1.1029713 0 0 0 1.21875-1.4375c-8.183889-26.09823-6.309571-40.865079-.15625-48.34375s16.921284-8.200393 27.59375-5.46875a1.1029713 1.1029713 0 0 0 .65625-2.09375c-1.692668-.617876-3.182241-.937965-4.75-1.375 2.540245.340692 5.187044.754075 8.3125 1.59375a1.1029713 1.1029713 0 0 0 .65625-2.09375s-2.435057-.875637-5.5-1.75c-.501578-.14309-1.066645-.265515-1.59375-.40625a1.1029713 1.1029713 0 0 0 -.6875-1.625c-3.79418-.870526-7.365717-1.360964-10.6875-1.40625zm-18.84375 11.71875c-2.647846 3.379157-4.398945 7.572397-5.4375 12.1875.008-.04018.0625-.4375.0625-.4375a1.1029713 1.1029713 0 0 0 -1.4375-1.25c1.711415-4.216281 4.018689-7.699309 6.8125-10.5z" opacity=".12"/><path d="m48.227974 16.917351c3.224529.04396 6.708741.500347 10.443888 1.357329-21.274734-4.204408-44.738791 10.212148-39.588745 46.63931-2.593257-.388988-3.091693-1.58355-3.091693-1.58355-3.85747-21.216087 5.57994-46.776499 32.23655-46.413089zm3.468727 1.621254c5.020681.08789 14.628984 3.506431 14.628984 3.506431-15.49541-4.162946-24.243392-1.281922-24.243392-1.281922s3.511225-2.331346 9.614408-2.224509zm-5.014574 2.186806c4.356914.02044 9.476527.997272 15.420759 3.1671-21.783362-5.575504-45.272709 2.722262-28.805525 55.235723-2.593257-.388988-5.957163-2.337621-5.957163-2.337621-6.128596-20.391511-7.283651-56.190124 19.341929-56.065202zm-23.790949 18.323933s-3.964351 19.02203 4.863759 44.678726c-3.402501-.459798-5.881756-2.375325-5.881756-2.375325-2.115067-20.415004-3.763897-27.773802 1.017997-42.303401z" opacity=".3"/><path d="m48.227974 15.917351c3.224529.04396 6.708741.500347 10.443888 1.357329-21.274734-4.204408-44.738791 10.212148-39.588745 46.63931-2.593257-.388988-3.091693-1.58355-3.091693-1.58355-3.85747-21.216087 5.57994-46.776499 32.23655-46.413089zm3.468727 1.621254c5.020681.08789 14.628984 3.506431 14.628984 3.506431-15.49541-4.162946-24.243392-1.281922-24.243392-1.281922s3.511225-2.331346 9.614408-2.224509zm-5.014574 2.186806c4.356914.02044 9.476527.997272 15.420759 3.1671-21.783362-5.575504-45.272709 2.722262-28.805525 55.235723-2.593257-.388988-5.957163-2.337621-5.957163-2.337621-6.128596-20.391511-7.283651-56.190124 19.341929-56.065202zm-23.790949 18.323933s-3.964351 19.02203 4.863759 44.678726c-3.402501-.459798-5.881756-2.375325-5.881756-2.375325-2.115067-20.415004-3.763897-27.773802 1.017997-42.303401z" fill="#fefefe"/><path d="m33.65625 11.78125c.0029-.000385-.0618.02617-.09375.03125-.0098.0016-.03215.00017-.03125 0-.03756.0086-.160904.03251-.15625.03125.0056-.0015-.161657.06447-.15625.0625.0054-.002-.161469.06492-.15625.0625.0052-.0024-.161243.06536-.15625.0625.005-.0029-.16098.09703-.15625.09375.0047-.0033-.129433.128668-.125.125.0044-.0037-.129104.09778-.125.09375.0041-.004-.128745.160619-.125.15625.0037-.0044-.09711.129673-.09375.125.0034-.0047-.127947.161192-.125.15625.0029-.0049-.06501.130176-.0625.125.0025-.0052-.06456.161621-.0625.15625.0021-.0054-.0641.193028-.0625.1875.0016-.0055-.03237.161894-.03125.15625.0011-.0056-.03188.193219-.03125.1875.000511-.0046-.02822.08198-.03125.125-.000597.01193.000585.01934 0 .03125-.223347 4.549524.406109 7.865034 1.65625 10.3125 1.261426 2.469557 3.208571 3.960208 5.125 4.65625 3.748041 1.361279 7.282679.06488 7.375.03125.0012-.00044.0625 0 .0625 0v-.03125c.05312-.01753.09722-.03258.09375-.03125-.0059.0023.193182-.06531.1875-.0625-.0057.0028.161643-.09708.15625-.09375-.0054.0033.161305-.09758.15625-.09375-.0051.0038.160923-.129285.15625-.125-.0047.0043.129249-.160956.125-.15625-.0042.0047.128788-.130084.125-.125-.0038.0051.128293-.161668.125-.15625-.0033.0054.09652-.193204.09375-.1875-.0028.0057.06472-.162189.0625-.15625-.0022.0059.06415-.193621.0625-.1875-.0017.0061.03232-.193749.03125-.1875-.00052.003-.0058-.0462 0-.09375.562708.219511 1.314152.557883 1.9375.8125-.01336.0154-.03219.03241-.03125.03125.0028-.0035-.09632.09739-.09375.09375.0026-.0036-.06482.128808-.0625.125.0023-.0038-.06457.128953-.0625.125.0021-.004-.0643.129082-.0625.125.0018-.0041-.06403.129192-.0625.125.0015-.0042-.03249.129284-.03125.125.0012-.0043-.03221.129357-.03125.125.000959-.0044-.03192.129411-.03125.125.000668-.0044-.000375.129445 0 .125.000375-.0044-.03133.16071-.03125.15625.000079-.0045.03147.129456.03125.125-.000216-.0045.000511.129432 0 .125-.000511-.0044.03205.160638.03125.15625-.000602-.0033-.0081.05643 0 .09375 0 0-.000072.03092 0 .03125.0057.02615.255036 1.039701.78125 2.1875.502132 1.095268 1.350368 2.737612 3.21875 3.3125-.0045-.0013.160821.03222.15625.03125-.0046-.000966.129627.0319.125.03125-.0046-.000647.160911.03157.15625.03125-.0047-.000324.129672 0 .125 0-.0047 0 .129661-.000324.125 0-.0047.000324.160877-.0319.15625-.03125-.0046.000647.129571-.03222.125-.03125-.0037.00078.09099-.0229.125-.03125.01-.0026.0213.0027.03125 0 .825601-.22352 1.465875-.626228 2-1.09375.03406.03509.06537.09648.0625.09375-.004-.0038.129281.09721.125.09375-.0043-.0035.160799.09685.15625.09375-.0045-.0031.129787.09646.125.09375-.0048-.0027.161243.06481.15625.0625-.005-.0023.161415.0644.15625.0625a1.1140287 1.1140287 0 0 0 0 .03125s9.568284 3.521483 17.09375 10.125c-.318871.491401-.67867.964491-.90625 1.46875-.0352.078-.03315.08988-.0625.15625-7.422781-3.789038-13.498644-4.266554-17.75-3.3125-2.993196.671708-4.653083 1.70921-5.6875 2.46875-.723991-.618973-1.724649-1.565685-2.5625-3-.626418-1.072362-.950016-2.165541-.8125-3.15625.139275-1.003379.649446-2.071678 2.46875-3.40625-.000746.000507.02428.0051.03125 0 .02789-.02045.09659-.06472.09375-.0625-.0035.0028.09711-.09676.09375-.09375-.0034.003.0969-.09698.09375-.09375-.0031.0032.09667-.09718.09375-.09375-.0029.0034.09644-.09737.09375-.09375-.0027.0036.06494-.12879.0625-.125-.0024.0038.06468-.128945.0625-.125-.0022.0039.06441-.129082.0625-.125-.0019.0041.06414-.129201.0625-.125-.0016.0042.0326-.129301.03125-.125-.0014.0043.06356-.129382.0625-.125-.0011.0044.000763-.129443 0-.125-.000763.0044.03171-.129484.03125-.125-.000464.0045.000163-.160755 0-.15625-.000163.0045-.000139-.129506 0-.125.000139.0045-.00044-.129486 0-.125.00044.0045-.000739-.160697 0-.15625.000739.0044-.03229-.129387-.03125-.125.001.0044-.03258-.129308-.03125-.125.0013.0043-.06411-.12921-.0625-.125.0016.0042-.06439-.129093-.0625-.125.0019.0041-.03341-.128957-.03125-.125.0022.004-.09617-.128804-.09375-.125.0024.0038-.06517-.128633-.0625-.125.0027.0036-.09666-.0972-.09375-.09375.0029.0034-.09688-.09699-.09375-.09375.0031.0032-.09709-.09678-.09375-.09375.0033.003-.09728-.09655-.09375-.09375.0035.0028-.128714-.0963-.125-.09375.0037.0026-.09763-.0648-.09375-.0625.0039.0023-.129022-.06453-.125-.0625.004.002-.129149-.06426-.125-.0625-1.556431-.691747-4.8125-2.40625-4.8125-2.40625.0051.0027-.161509-.09599-.15625-.09375.0053.0022-.16168-.06429-.15625-.0625.0054.0018-.193062-.03257-.1875-.03125.0056.0013-.161904-.03209-.15625-.03125.0057.000841-.193205-.03161-.1875-.03125.0057.000358-.161965.000127-.15625 0 .0057-.000127-.193183.000611-.1875 0 .0057-.000611-.161861.03234-.15625.03125.0056-.0011-.161748.03281-.15625.03125.0055-.0016-.192846.06452-.1875.0625.0053-.002-.161405.06497-.15625.0625.0052-.0025-.161177.09665-.15625.09375.0049-.0029-.129663.09706-.125.09375.0047-.0033-.160616.09744-.15625.09375.0044-.0037-.129037.129046-.125.125.0034-.0034-.06804.0659-.09375.09375-.0049.0053-.000589.03195 0 .03125-2.846427 3.223401-4.034769 6.497889-3.90625 9.5.128657 3.005316 1.508571 5.530168 3.125 7.53125 3.218417 3.984288 7.649009 6.199793 7.6875 6.21875.000167.000082.03125 0 .03125 0 .03286.01594.09681.03262.09375.03125-.004-.0018.129103.06403.125.0625-.0041-.0015.129194.03251.125.03125-.0042-.0013.129267.03223.125.03125-.0043-.00098.129321.03195.125.03125-.0043-.0007.129358.03167.125.03125-.0044-.000418.160625.000134.15625 0-.0044-.000134.129375-.000151.125 0-.0044.000151.129356-.000435.125 0-.0044.000435.129318-.03197.125-.03125-.0043.000717.129263-.03225.125-.03125-.0043.000996.129189-.03252.125-.03125-.0042.0013.129097-.03279.125-.03125-.0041.0015.128989-.0643.125-.0625-.004.0018.128863-.06456.125-.0625-.0039.0021.128721-.06481.125-.0625 10.79067-6.936859 25.25 2.375 25.25 2.375-.0035-.0023.128599.06461.125.0625-.0036-.0021.09747.06438.09375.0625-.0037-.0019.128832.0329.125.03125-.0038-.0016.09768.06391.09375.0625-.0039-.0014.129006.03241.125.03125-.004-.0012.12907.03216.125.03125-.0041-.000911.129119.03191.125.03125-.0041-.000657.129152.000401.125 0-.0042-.000401.129169.03139.125.03125-.0042-.000143.12917-.000115.125 0-.0042.000115.129154-.03162.125-.03125-.0042.000373.129123-.00063.125 0-.0041.00063.129076-.03213.125-.03125-.0041.000884.129014-.03238.125-.03125-.004.0011.128936-.03263.125-.03125-.0039.0014.128843-.03287.125-.03125-.0038.0016.09749-.06436.09375-.0625-.0037.0019.128613-.06459.125-.0625-.0036.0021.09723-.0648.09375-.0625-.0035.0023.09708-.09627.09375-.09375-.0033.0025.128165-.06522.125-.0625-.0032.0027.06549-.09666.0625-.09375-.003.0029.09655-.09684.09375-.09375-.0028.0031.09636-.09701.09375-.09375-.0026.0033.0649-.09716.0625-.09375-.0024.0034.09594-.0973.09375-.09375-.0022.0036.03321-.128681.03125-.125-.002.0037.06423-.09755.0625-.09375-.0017.0038.06399-.128895.0625-.125-.0015.0039.0325-.12898.03125-.125-.0012.004.03225-.12905.03125-.125-.000763.0031.02392-.05973.03125-.09375.0023-.01047.000175-.03222 0-.03125 1.253167-6.666478 4.53125-9.96875 4.53125-9.96875a1.1140287 1.1140287 0 0 0 .03125-.03125c-.0042.0045.128806-.129842.125-.125-.0038.0048.0971-.16142.09375-.15625-.0033.0052.09661-.161704.09375-.15625-.0029.0055.0961-.161943.09375-.15625-.0024.0057.06432-.193384.0625-.1875-.0018.0059.03253-.193525.03125-.1875-.0013.006.03197-.162367.03125-.15625-.00072.0061.03141-.193657.03125-.1875-.000158.0062-.03166-.193646-.03125-.1875.000405.0061-.000965-.193583 0-.1875.000965.0061-.03277-.193469-.03125-.1875.0015.006-.06456-.193306-.0625-.1875.0021.0058-.06508-.161843-.0625-.15625.0026.0056-.09683-.161584-.09375-.15625.0031.0053-.0973-.161281-.09375-.15625.0036.005-.128998-.160935-.125-.15625-3.324593-3.905077-8.298736-7.204241-12.46875-9.625-3.43972-1.996811-5.426859-2.873405-6.25-3.25l.125-.96875v-.03125c.0032-.03302.03146-.09678.03125-.09375-.00027.004.000035-.128976 0-.125-.000035.004-.000199-.128971 0-.125.000199.004-.03168-.128953-.03125-.125.000434.004-.000666-.12892 0-.125.000666.0039-.03215-.09762-.03125-.09375.000896.0039-.03237-.128814-.03125-.125.0011.0038-.0326-.128741-.03125-.125.0013.0037-.03281-.0974-.03125-.09375.0016.0037-.06428-.128556-.0625-.125.0018.0036-.06449-.09719-.0625-.09375.002.0034-.06468-.09707-.0625-.09375.0022.0033-.06488-.09694-.0625-.09375.0024.0032-.06506-.09679-.0625-.09375.0026.003-.09649-.09663-.09375-.09375.0027.0029-.09665-.09647-.09375-.09375-3.195549-2.899666-8.502662-4.561917-13.96875-6.625-5.471388-2.065083-11.087995-4.461599-14.46875-7.5-.0202-.01711-.09627-.06452-.09375-.0625.003.0024-.09691-.06475-.09375-.0625.0032.0022-.09703-.06456-.09375-.0625.0033.0021-.09715-.06437-.09375-.0625.0034.0019-.128499-.06417-.125-.0625.0035.0017-.09734-.03272-.09375-.03125.0036.0015-.128668-.06376-.125-.0625.0037.0013-.09748-.0323-.09375-.03125.0037.001-.128788-.03208-.125-.03125.0038.000829-.09758-.000609-.09375 0 .0038.000609-.128859-.03164-.125-.03125.0039.000388-.128875-.000165-.125 0 .0039.000165-.128878.000058-.125 0 .0039-.000058-.09762.000282-.09375 0 .0039-.000282-.128845.000504-.125 0z" opacity=".08"/><path d="m33.75 12.90625a.91199594.91199594 0 0 0 -.75.875c-.221954 4.439076.395358 7.557456 1.53125 9.78125s2.821711 3.4842 4.5 4.09375c3.356579 1.219101 6.6875.03125 6.6875.03125a.91199594.91199594 0 0 0 -.375-1.78125c-.780185.0593-2.397247-.07104-3.75-.84375-.908093-.518714-1.615225-1.488904-2.125-2.75 1.662229.946353 3.383272 1.716491 5.5 2.5 2.659035.984245 6.139537 2.34174 10.75 4.53125-.638452-.014995-1.765818-.250344-2.71875-.5-.984751-.257993-1.78125-.53125-1.78125-.53125a.91199594.91199594 0 0 0 -1.15625 1.09375s.211061.960773.6875 2 1.156973 2.295895 2.53125 2.71875a.91199594.91199594 0 0 0 .5 0c1.445286-.382576 2.277311-1.390362 2.625-2.25s.3125-1.65625.3125-1.65625a.91199594.91199594 0 0 0 -.15625-.5c.09151.04445.157485.04853.25.09375l-.15625 2.8125a.91199594.91199594 0 0 0 .59375.9375s10.35459 3.703456 18.1875 10.90625c-.57164.674078-1.026866 1.447375-1.375 2.21875-.277778.615485-.325876.756503-.46875 1.15625-7.763421-4.259987-13.910105-4.626359-18.09375-3.6875-3.491775.783595-5.292342 2.160502-6.03125 2.78125-.622172-.487509-2.25653-1.822051-3.4375-3.84375-.712185-1.219187-1.120215-2.558665-.9375-3.875s.937044-2.695243 2.9375-4.15625a.91199594.91199594 0 0 0 -.15625-1.59375c-1.655103-.735601-4.90625-2.46875-4.90625-2.46875a.91199594.91199594 0 0 0 -1.125.21875c-2.715766 3.067809-3.740226 6.027162-3.625 8.71875s1.355347 5.024973 2.875 6.90625c3.039305 3.762554 7.34375 5.90625 7.34375 5.90625a.91199594.91199594 0 0 0 .90625-.03125c11.533769-7.414565 26.46875 2.375 26.46875 2.375a.91199594.91199594 0 0 0 1.40625-.59375c1.302724-6.978881 4.84375-10.5625 4.84375-10.5625a.91199594.91199594 0 0 0 .03125-1.21875c-3.16532-3.717995-8.066382-6.982626-12.1875-9.375-3.793053-2.201927-6.397364-3.378051-6.875-3.59375l.21875-1.75a.91199594.91199594 0 0 0 -.28125-.78125c-2.876244-2.609926-8.130069-4.332281-13.625-6.40625s-11.198374-4.439361-14.8125-7.6875a.91199594.91199594 0 0 0 -.78125-.21875z" opacity=".12"/><path d="m33.915088 13.825659c7.606699 6.836401 23.224639 9.375564 28.424153 14.093643l-.276346 2.368679s13.278115 5.902475 19.344216 13.027737c0 0-3.744638 3.79281-5.09266 11.01436 0 0-15.344479-10.207431-27.476682-2.408158 0 0-16.71551-8.347244-6.316479-20.094298 0 0 3.241055 1.716816 4.974226 2.487114-8.569571 6.258677 1.934422 13.777818 1.934422 13.777818s8.497474-8.449208 24.673744.986951c0 0 1.200717-3.831295 2.645026-4.697881-8.088135-7.799273-19.186304-11.685485-19.186304-11.685485l.19739-3.434586c-11.265617-5.584665-15.388734-5.551969-19.817952-8.922026.467056 5.905755 5.554774 6.619294 7.461341 6.474391 0 0-12.354681 4.343459-11.488095-12.988259zm17.015013 15.356939s3.25634 1.065906 4.895272 1.065906c0 0 .07158 2.385726-2.250245 3.000327-1.775511-.546312-2.645027-4.066233-2.645027-4.066233z" opacity=".3"/><path d="m33.915088 12.825659c7.606699 6.836401 23.224639 9.375564 28.424153 14.093643l-.276346 2.368679s13.278115 5.902475 19.344216 13.027737c0 0-3.744638 3.79281-5.09266 11.01436 0 0-15.344479-10.207431-27.476682-2.408158 0 0-16.71551-8.347244-6.316479-20.094298 0 0 3.241055 1.716816 4.974226 2.487114-8.569571 6.258677 1.934422 13.777818 1.934422 13.777818s8.497474-8.449208 24.673744.986951c0 0 1.200717-3.831295 2.645026-4.697881-8.088135-7.799273-19.186304-11.685485-19.186304-11.685485l.19739-3.434586c-11.265617-5.584665-15.388734-5.551969-19.817952-8.922026.467056 5.905755 5.554774 6.619294 7.461341 6.474391 0 0-12.354681 4.343459-11.488095-12.988259zm17.015013 15.356939s3.25634 1.065906 4.895272 1.065906c0 0 .07158 2.385726-2.250245 3.000327-1.775511-.546312-2.645027-4.066233-2.645027-4.066233z" fill="#fefefe"/></g></svg>