<svg height="96" width="96" xmlns="http://www.w3.org/2000/svg" xmlns:xlink="http://www.w3.org/1999/xlink"><linearGradient id="a"><stop offset="0" stop-color="#fefefe"/><stop offset="1" stop-color="#fefefe" stop-opacity="0"/></linearGradient><linearGradient id="b" gradientUnits="userSpaceOnUse" x1="36.357143" x2="36.357143" xlink:href="#a" y1="6" y2="63.893143"/><filter id="c" color-interpolation-filters="sRGB" height="1.384" width="1.384" x="-.192" y="-.192"><feGaussianBlur stdDeviation="5.28"/></filter><linearGradient id="d" gradientUnits="userSpaceOnUse" x1="48" x2="48" xlink:href="#a" y1="20.220806" y2="138.66119"/><radialGradient id="e" cx="48" cy="90.171875" gradientTransform="matrix(1.1573129 0 0 .99590774 -7.551021 .197132)" gradientUnits="userSpaceOnUse" r="42" xlink:href="#a"/><clipPath id="f"><rect height="84" rx="6" width="84" x="6" y="6"/></clipPath><linearGradient id="g" gradientUnits="userSpaceOnUse" x1="40" x2="40" y1="56.208946" y2="104"><stop offset="0" stop-color="#fefefe"/><stop offset=".29591838" stop-color="#fefefe" stop-opacity=".498039"/><stop offset="1" stop-color="#fefefe" stop-opacity="0"/></linearGradient><linearGradient id="h" gradientUnits="userSpaceOnUse" x1="16" x2="16" y1="56" y2="52.090794"><stop offset="0"/><stop offset=".25925925" stop-opacity=".498039"/><stop offset="1" stop-opacity="0"/></linearGradient><linearGradient id="i" gradientUnits="userSpaceOnUse" x1="48" x2="48" y1="56.251743" y2="5.987717"><stop offset="0" stop-color="#3465a4"/><stop offset="1" stop-color="#729fcf"/></linearGradient><filter id="j" color-interpolation-filters="sRGB"><feGaussianBlur stdDeviation=".8"/></filter><clipPath id="k"><path d="m33 1c-.277 0-.541812.055313-.78125.15625-.37163.2634649-.714453.582314-1 .9375-.137536.2716304-.21875.5798487-.21875.90625v4.96875c.890327 1.293115 2.373856 2.156251 4.0625 2.15625 2.726858 0 4.9375-2.2106417 4.9375-4.9375 0-1.7704906-.943686-3.3160284-2.34375-4.1875zm7.53125 0 .5625.84375.46875-.25.4375-.09375h1.125l.25.59375-.75.8125-.40625.25-.53125.15625.25 1.09375.5-.0625.46875.0625 1.03125.4375v.65625l-1.03125.46875-.46875.03125-.5-.03125-.25 1.125.53125.15625.40625.21875.75.8125-.25.59375-1.125.03125-.4375-.125-.46875-.28125-.625.96875.375.3125.3125.40625.4375 1.03125-.46875.46875-1.03125-.4375-.40625-.25-.3125-.4375-.96875.65625.25.4375.15625.5-.03125 1.0625-.625.28125-.78125-.78125-.28125-.40625-.09375-.53125-1.125.25.03125.5-.0625.5-.4375 1h-.65625l-.46875-1-.03125-.5.03125-.5-1.125-.25-.09375.53125-.28125.40625-.78125.78125-.59375-.28125-.0625-1.0625.15625-.5.25-.4375-.75-.5v8.28125c0 1.108.892 2 2 2h6.84375l.28125-.25.46875-.25-.46875-1.15625-.53125.1875-.5.03125-1.15625-.25-.15625-.6875.96875-.6875.5-.15625.53125-.0625v-1.21875l-.53125-.03125-.5-.1875-1-.65625.15625-.6875 1.15625-.25h.5l.53125.1875.46875-1.15625-.5-.25-.40625-.3125-.625-1 .375-.59375 1.15625.1875.5.25.40625.34375.84375-.875-.34375-.40625-.21875-.46875-.21875-1.1875.5625-.375 1 .625.34375.375.28125.5 1.125-.46875-.1875-.53125-.03125-.53125.25-1.15625.6875-.125.6875.96875.15625.46875.0625.5625 1.21875-.03125.03125-.53125.1875-.5.65625-.96875.6875.125.28125 1.15625-.03125.53125-.1875.5 1.15625.46875.25-.46875.28125-.34375v-6.65625c0-1.108-.892-2-2-2zm-5.5.3125c2.121665 0 3.84375 1.7220854 3.84375 3.84375s-1.722085 3.84375-3.84375 3.84375-3.84375-1.7220854-3.84375-3.84375 1.722085-3.84375 3.84375-3.84375zm0 1.71875c-1.24195 0-2.25.9520473-2.25 2.125s1.00805 2.125 2.25 2.125 2.25-.9520473 2.25-2.125-1.00805-2.125-2.25-2.125zm12.09375 8.375c-1.276229 0-2.459907.441669-3.40625 1.15625l1.8125 1.9375c.461136-.287236 1.010845-.4375 1.59375-.4375.293976 0 .575112.04631.84375.125l1.21875-2.375c-.640216-.252167-1.332916-.40625-2.0625-.40625zm3.09375.9375-1.21875 2.375c.685742.544483 1.11379 1.372153 1.125 2.3125l.875.15625v-4.21875c-.242222-.227764-.502051-.44206-.78125-.625zm-7.34375 1c-.873486.993935-1.40625 2.292591-1.40625 3.71875 0 .637183.117557 1.240877.3125 1.8125l2.40625-1.09375c-.0552-.227756-.0625-.474117-.0625-.71875 0-.662658.199196-1.28387.5625-1.78125zm4.25 2.75c-.535035 0-.96875.433715-.96875.96875s.433715.96875.96875.96875.96875-.433715.96875-.96875-.433715-.96875-.96875-.96875zm2.8125 2.0625c-.322038.823782-1.002368 1.464646-1.84375 1.75l.15625 1.09375h.75c1.108 0 2-.892 2-2v-.65625zm-5.25.65625-2.4375 1.125c.230479.390313.497541.7398.8125 1.0625h4l-.125-.9375c-.933758-.05393-1.735493-.535346-2.25-1.25z"/></clipPath><filter id="l" color-interpolation-filters="sRGB" height="1.36" width="1.36" x="-.18" y="-.18"><feGaussianBlur stdDeviation="1.2"/></filter><clipPath id="m"><rect height="20" rx="2" width="20" x="1" y="1"/></clipPath><clipPath id="n"><rect height="20" rx="2" width="20" x="1" y="1"/></clipPath><linearGradient id="o" gradientUnits="userSpaceOnUse" x1="11.375" x2="11.375" y1="22" y2="-9.817296"><stop offset="0"/><stop offset="1" stop-opacity="0"/></linearGradient><linearGradient id="p" gradientUnits="userSpaceOnUse" x1="8.058574" x2="8.058574" y1="21" y2=".99546"><stop offset="0" stop-color="#afafaf"/><stop offset="1" stop-color="#d8d8d8"/></linearGradient><linearGradient id="q" gradientUnits="userSpaceOnUse" x1="3.982759" x2="3.982759" y1="20.2586214" y2="-.18767744689"><stop offset="0" stop-color="#969696"/><stop offset="1" stop-color="#cacaca"/></linearGradient><linearGradient id="r" gradientUnits="userSpaceOnUse" x1="54.093639" x2="53.634274" xlink:href="#w" y1="42.659012" y2="20.779154"/><linearGradient id="s" gradientUnits="userSpaceOnUse" x1="50.448495" x2="50.448495" y1="20.406943" y2="41.423171"><stop offset="0" stop-color="#dcdcdc"/><stop offset="1" stop-color="#fefefe"/></linearGradient><linearGradient id="t" gradientUnits="userSpaceOnUse" x1="54.093639" x2="54.071827" xlink:href="#w" y1="42.659012" y2="22.155571"/><linearGradient id="u" gradientTransform="matrix(.1989658 0 0 .1811141 -1.733807 -.591531)" gradientUnits="userSpaceOnUse" x1="51.484161" x2="51.484161" y1="23" y2="105"><stop offset="0" stop-color="#414141"/><stop offset="1" stop-color="#696969"/></linearGradient><linearGradient id="v" gradientTransform="matrix(.1989658 0 0 .1811141 -1.733807 -.591531)" gradientUnits="userSpaceOnUse" x1="45.987217" x2="45.987217" y1="105" y2="22.989777"><stop offset="0" stop-color="#c8c8c8"/><stop offset="1" stop-color="#d9d9d9"/></linearGradient><linearGradient id="w"><stop offset="0" stop-opacity=".539063"/><stop offset="1" stop-opacity="0"/></linearGradient><linearGradient id="x" gradientUnits="userSpaceOnUse" x1="8.058574" x2="8.058574" y1="21" y2=".99546"><stop offset="0" stop-color="#a0a0a0"/><stop offset="1" stop-color="#dcdcdc"/></linearGradient><linearGradient id="y" gradientTransform="matrix(1.0058652 0 0 .994169 100 0)" gradientUnits="userSpaceOnUse" x1="45.447727" x2="45.447727" y1="92.539597" y2="7.01654"><stop offset="0"/><stop offset="1" stop-opacity=".588235"/></linearGradient><linearGradient id="z" gradientTransform="matrix(1.0238095 0 0 1.0119048 -1.142857 -98.071429)" gradientUnits="userSpaceOnUse" x1="32.251034" x2="32.251034" xlink:href="#y" y1="6.131708" y2="90.238609"/><linearGradient id="A" gradientTransform="translate(0 -97)" gradientUnits="userSpaceOnUse" x1="32.251034" x2="32.251034" xlink:href="#y" y1="6.131708" y2="90.238609"/><g><g fill="url(#z)"><path d="m12-95.03125c-5.5110903 0-10.03125 4.52016-10.03125 10.03125v71c0 5.5110902 4.5201598 10.03125 10.03125 10.03125h72c5.51109 0 10.03125-4.5201597 10.03125-10.03125v-71c0-5.51109-4.52016-10.03125-10.03125-10.03125z" opacity=".08" transform="scale(1 -1)"/><path d="m12-94.03125c-4.971633 0-9.03125 4.059617-9.03125 9.03125v71c0 4.9716329 4.0596171 9.03125 9.03125 9.03125h72c4.971633 0 9.03125-4.059617 9.03125-9.03125v-71c0-4.971633-4.059617-9.03125-9.03125-9.03125z" opacity=".1" transform="scale(1 -1)"/><path d="m12-93c-4.4091333 0-8 3.590867-8 8v71c0 4.4091333 3.5908667 8 8 8h72c4.409133 0 8-3.5908667 8-8v-71c0-4.409133-3.590867-8-8-8z" opacity=".2" transform="scale(1 -1)"/><rect height="85" opacity=".3" rx="7" transform="scale(1 -1)" width="86" x="5" y="-92"/></g><rect fill="url(#A)" height="84" opacity=".45" rx="6" transform="scale(1 -1)" width="84" x="6" y="-91"/></g><rect fill="url(#i)" height="84" rx="6" width="84" x="6" y="6"/><path d="m12 6c-3.324 0-6 2.676-6 6v2 68 2c0 .334721.04135.6507.09375.96875.0487.295596.09704.596915.1875.875.00988.03038.020892.0636.03125.09375.098865.287771.2348802.547452.375.8125.1445918.273507.3156161.535615.5.78125s.3737765.473472.59375.6875c.439947.428056.94291.814526 1.5 1.09375.278545.139612.5734731.246947.875.34375-.2562018-.100222-.4867109-.236272-.71875-.375-.00741-.0044-.023866.0045-.03125 0-.031933-.0193-.062293-.04251-.09375-.0625-.120395-.0767-.2310226-.163513-.34375-.25-.1061728-.0808-.2132809-.161112-.3125-.25-.1779299-.161433-.3474596-.345388-.5-.53125-.1075789-.130255-.2183939-.265285-.3125-.40625-.025089-.03838-.038446-.08587-.0625-.125-.064763-.103032-.1302275-.204517-.1875-.3125-.1010083-.194706-.2056748-.415701-.28125-.625-.00796-.02181-.023589-.04055-.03125-.0625-.0318251-.09195-.0358045-.186831-.0625-.28125-.0303323-.106618-.0703894-.203031-.09375-.3125-.0728786-.341512-.125-.698205-.125-1.0625v-2-68-2c0-2.781848 2.2181517-5 5-5h2 68 2c2.781848 0 5 2.218152 5 5v2 68 2c0 .364295-.05212.720988-.125 1.0625-.04415.206893-.08838.397658-.15625.59375-.0077.02195-.0233.04069-.03125.0625-.06274.173739-.138383.367449-.21875.53125-.04158.0828-.07904.169954-.125.25-.0546.09721-.126774.18835-.1875.28125-.09411.140965-.204921.275995-.3125.40625-.143174.17445-.303141.346998-.46875.5-.01117.0102-.01998.02115-.03125.03125-.138386.125556-.285091.234436-.4375.34375-.102571.07315-.204318.153364-.3125.21875-.0074.0045-.02384-.0044-.03125 0-.232039.138728-.462548.274778-.71875.375.301527-.0968.596455-.204138.875-.34375.55709-.279224 1.060053-.665694 1.5-1.09375.219973-.214028.409366-.441865.59375-.6875s.355408-.507743.5-.78125c.14012-.265048.276135-.524729.375-.8125.01041-.03078.02133-.06274.03125-.09375.09046-.278085.1388-.579404.1875-.875.0524-.31805.09375-.634029.09375-.96875v-2-68-2c0-3.324-2.676-6-6-6z" fill="url(#b)" opacity=".3"/><path d="m12 90c-3.324 0-6-2.676-6-6v-2-68-2c0-.334721.04135-.6507.09375-.96875.0487-.295596.09704-.596915.1875-.875.00988-.03038.020892-.0636.03125-.09375.098865-.287771.2348802-.547452.375-.8125.1445918-.273507.3156161-.535615.5-.78125s.3737765-.473472.59375-.6875c.439947-.428056.94291-.814526 1.5-1.09375.278545-.139612.5734731-.246947.875-.34375-.2562018.100222-.4867109.236272-.71875.375-.00741.0044-.023866-.0045-.03125 0-.031933.0193-.062293.04251-.09375.0625-.120395.0767-.2310226.163513-.34375.25-.1061728.0808-.2132809.161112-.3125.25-.1779299.161433-.3474596.345388-.5.53125-.1075789.130255-.2183939.265285-.3125.40625-.025089.03838-.038446.08587-.0625.125-.064763.103032-.1302275.204517-.1875.3125-.1010083.194706-.2056748.415701-.28125.625-.00796.02181-.023589.04055-.03125.0625-.0318251.09195-.0358045.186831-.0625.28125-.0303323.106618-.0703894.203031-.09375.3125-.0728786.341512-.125.698205-.125 1.0625v2 68 2c0 2.781848 2.2181517 5 5 5h2 68 2c2.781848 0 5-2.218152 5-5v-2-68-2c0-.364295-.05212-.720988-.125-1.0625-.04415-.206893-.08838-.397658-.15625-.59375-.0077-.02195-.0233-.04069-.03125-.0625-.06274-.173739-.138383-.367449-.21875-.53125-.04158-.0828-.07904-.169954-.125-.25-.0546-.09721-.126774-.18835-.1875-.28125-.09411-.140965-.204921-.275995-.3125-.40625-.143174-.17445-.303141-.346998-.46875-.5-.01117-.0102-.01998-.02115-.03125-.03125-.138386-.125556-.285091-.234436-.4375-.34375-.102571-.07315-.204318-.153364-.3125-.21875-.0074-.0045-.02384.0044-.03125 0-.232039-.138728-.462548-.274778-.71875-.375.301527.0968.596455.204138.875.34375.55709.279224 1.060053.665694 1.5 1.09375.219973.214028.409366.441865.59375.6875s.355408.507743.5.78125c.14012.265048.276135.524729.375.8125.01041.03078.02133.06274.03125.09375.09046.278085.1388.579404.1875.875.0524.31805.09375.634029.09375.96875v2 68 2c0 3.324-2.676 6-6 6z" fill="url(#e)" opacity=".2"/><rect height="66" rx="12" style="opacity:.1;stroke:#fefefe;stroke-width:.5;stroke-linecap:round;clip-path:url(#f);fill:url(#d);filter:url(#c)" width="66" x="15" y="15"/><path d="m6 56v28c0 3.324 2.676 6 6 6h72c3.324 0 6-2.676 6-6v-28z" fill="url(#g)" opacity=".5"/><path d="m6 56h84v1h-84z" fill="#fefefe" opacity=".6"/><path d="m6 56h84v1h-84z" opacity="0"/><path d="m6 52h84v4h-84z" fill="url(#h)" opacity=".3"/><path d="m22.065421 76.685725-7.065421 7.314275 14-.135453z" fill="#fefefe" fill-opacity=".677596"/><g transform="translate(-80.75 21.5)"><g transform="translate(117.75 41.5)"><g><g><rect fill="url(#o)" height="21.5" opacity=".3" rx="2.5" width="21" x=".5" y=".5"/><rect height="20" opacity=".5" rx="2.380952" ry="2.325581" width="20" x="1" y="2"/></g><rect fill="url(#p)" fill-rule="evenodd" height="20" rx="2" width="20" x="1" y="1"/></g><rect clip-path="url(#m)" fill="#fefefe" filter="url(#l)" height="16" opacity=".15" rx="2" width="16" x="3" y="3"/><path clip-path="url(#n)" d="m4.75-3.65625-.46875 1-.03125.46875.03125.53125-1.125.21875-.09375-.46875-.28125-.4375-.78125-.78125-.59375.25-.0625 1.125.15625.46875.25.4375-.96875.625-.3125-.375-.375-.3125-1.0625-.375-.46875.4375.4375 1.03125.28125.40625.40625.3125-.65625.9375-.40625-.25-.46875-.09375h-1.125l-.28125.59375.78125.8125.4375.25.5.15625-.25 1.09375-.5-.0625-.5.0625-1 .4375v.65625l1 .46875.5.03125.5-.03125.25 1.125-.5.15625-.4375.21875-.78125.8125.28125.59375 1.125.03125.46875-.125.40625-.28125.65625.96875-.40625.3125-.28125.40625-.4375 1.03125.46875.46875 1.0625-.4375.375-.25.3125-.4375.96875.65625-.25.4375-.15625.5.0625 1.0625.59375.28125.78125-.78125.28125-.40625.09375-.53125 1.125.25-.03125.5.03125.5.46875 1h.65625l.4375-1 .0625-.5-.03125-.5 1.125-.25.09375.53125.28125.40625.78125.78125.625-.28125.03125-1.0625-.15625-.5-.25-.4375.96875-.65625.3125.4375.40625.25 1.03125.4375.46875-.46875-.4375-1.03125-.3125-.40625-.375-.3125.625-.96875.46875.28125.4375.125 1.125-.03125.25-.59375-.75-.8125-.40625-.21875-.53125-.15625.25-1.125.5.03125.46875-.03125 1.03125-.46875v-.65625l-1.03125-.4375-.46875-.0625-.5.0625-.25-1.09375.53125-.15625.40625-.25.75-.8125-.25-.59375h-1.125l-.4375.09375-.46875.25-.625-.9375.375-.3125.3125-.40625.4375-1.03125-.46875-.4375-1.03125.375-.40625.3125-.3125.375-.96875-.625.25-.4375.15625-.46875-.03125-1.125-.625-.25-.78125.78125-.28125.4375-.09375.46875-1.125-.21875.03125-.53125-.0625-.46875-.4375-1zm.3125 3.90625c2.7268582 0 4.9375 2.2106418 4.9375 4.9375 0 2.7268583-2.2106418 4.9375-4.9375 4.9375-2.7268579.000001-4.9375-2.2106417-4.9375-4.9375.00000012-2.7268582 2.2106421-4.9375 4.9375-4.9375zm-.03125 1.0625c-2.1216646 0-3.84375 1.7220854-3.84375 3.84375s1.7220854 3.84375 3.84375 3.84375 3.84375-1.7220854 3.84375-3.84375-1.7220854-3.84375-3.84375-3.84375zm0 1.71875c1.24195 0 2.25.9520473 2.25 2.125s-1.00805 2.125-2.25 2.125-2.25-.9520473-2.25-2.125 1.00805-2.125 2.25-2.125zm13.53125 4.65625-.65625.96875-.1875.5-.03125.53125-1.21875.03125-.0625-.5625-.15625-.46875-.6875-.96875-.6875.125-.25 1.15625.03125.53125.1875.53125-1.125.46875-.28125-.5-.34375-.375-1-.625-.5625.375.21875 1.1875.21875.46875.34375.40625-.84375.875-.40625-.34375-.5-.25-1.15625-.1875-.375.59375.625 1 .40625.3125.5.25-.46875 1.15625-.53125-.1875h-.5l-1.15625.25-.15625.6875 1 .65625.5.1875.53125.03125v1.21875l-.53125.0625-.5.15625-.96875.6875.15625.6875 1.15625.25.5-.03125.53125-.1875.46875 1.15625-.46875.25-.40625.34375-.625 1 .40625.5625 1.15625-.1875.46875-.25.40625-.34375.875.84375-.34375.4375-.21875.46875-.21875 1.15625.59375.375 1-.625.34375-.40625.25-.5 1.125.46875-.15625.53125-.03125.5.25 1.1875.6875.125.6875-1 .15625-.46875.03125-.5625h1.25l.03125.53125.1875.5.6875.96875.6875-.15625.25-1.15625-.0625-.5-.15625-.53125 1.125-.46875.25.46875.34375.40625 1 .625.59375-.40625-.21875-1.15625-.25-.46875-.34375-.40625.875-.875.40625.34375.46875.21875 1.1875.21875.375-.59375-.65625-1-.40625-.34375-.46875-.25.46875-1.125.5.15625.53125.03125 1.15625-.25.125-.6875-.96875-.6875-.5-.15625-.53125-.03125-.03125-1.25.5625-.03125.46875-.1875.96875-.6875-.125-.6875-1.15625-.21875-.53125.03125-.5.15625-.5-1.125.5-.25.375-.34375.625-1-.375-.59375-1.1875.21875-.4375.25-.4375.34375-.875-.875.34375-.40625.25-.46875.1875-1.15625-.59375-.40625-.96875.65625-.34375.40625-.25.46875-1.15625-.46875.1875-.5.03125-.53125-.28125-1.15625zm-1.4375 3.71875c.729584 0 1.422284.154083 2.0625.40625l-1.21875 2.375c-.268638-.07869-.549774-.125-.84375-.125-.582905 0-1.132614.150264-1.59375.4375l-1.8125-1.9375c.946343-.714581 2.130021-1.15625 3.40625-1.15625zm3.09375.9375c1.539196 1.008529 2.562501 2.741853 2.5625 4.71875 0 .14764-.02011.292694-.03125.4375l-2.625-.46875c-.01121-.940347-.439258-1.768017-1.125-2.3125zm-7.34375 1 1.8125 1.9375c-.363304.49738-.5625 1.118592-.5625 1.78125 0 .244633.0073.490994.0625.71875l-2.40625 1.09375c-.194943-.571623-.3125-1.175317-.3125-1.8125 0-1.426159.532764-2.724815 1.40625-3.71875zm4.25 2.75c.535035 0 .96875.433715.96875.96875s-.433715.96875-.96875.96875-.96875-.433715-.96875-.96875.433715-.96875.96875-.96875zm2.8125 2.0625 2.625.46875c-.559934 1.936858-2.153842 3.462992-4.125 3.9375l-.34375-2.65625c.841382-.285354 1.521712-.926218 1.84375-1.75zm-5.25.65625c.514507.714654 1.316242 1.196072 2.25 1.25l.375 2.65625c-.05979.0019-.12725-.000001-.1875 0-2.071485.000001-3.891877-1.116347-4.875-2.78125z" fill="url(#q)"/></g><path d="m128.4375 42.71875-.21875.1875.625.9375.46875-.25.4375-.09375h1.125l.0937.25.15625-.15625-.25-.59375h-1.125l-.4375.09375-.46875.25-.40625-.625zm-5.65625.09375c-2.12167 0-3.84375 1.722085-3.84375 3.84375 0 .08492.0258.166448.0312.25.1303-2.004009 1.77575-3.59375 3.8125-3.59375s3.6822 1.589741 3.8125 3.59375c.005-.08355.0312-.165083.0312-.25 0-2.121665-1.72208-3.84375-3.84375-3.84375zm6.75 2.46875-.0937.03125.25 1.09375.5-.0625.46875.0625 1.03125.4375v-.5l-1.03125-.4375-.46875-.0625-.5.0625-.15625-.625zm-8.96875 1.625c-.0101.08156-.0312.165899-.0312.25 0 1.172953 1.00805 2.125 2.25 2.125s2.25-.952047 2.25-2.125c0-.0841-.0212-.168439-.0312-.25-.1305 1.055955-1.06585 1.875-2.21875 1.875s-2.08825-.819045-2.21875-1.875zm7.1875.03125c-.13175 2.609247-2.29552 4.6875-4.9375 4.6875-1.69203.000001-3.17092-.857841-4.0625-2.15625v.5c.89033 1.293115 2.37386 2.156251 4.0625 2.15625 2.72686 0 4.9375-2.210642 4.9375-4.9375 0-.08488.004-.166169 0-.25zm1.78125 1.6875-.0937.46875.53125.15625.40625.21875.59375.65625.15625-.34375-.75-.8125-.40625-.21875-.4375-.125zm6.78125.5625-.65625.96875-.1875.5-.0312.53125-1.21875.03125-.0625-.5625-.1563-.46875-.6875-.96875-.6875.125-.25 1.15625.0312.40625.21875-1.0625.6875-.125.6875.96875.15625.46875.0625.5625 1.21875-.03125.0312-.53125.1875-.5.65625-.96875.6875.125.25 1.0625.0312-.40625-.2811-1.15625zm-6.875 1.625-.15625.09375.0937.4375.46875-.3125 1 .625.34375.375.28125.5 1.125-.46875-.15625-.4375-.96875.40625-.28125-.5-.34375-.375-.4375-.28125-.65625.03125-.3125-.09375zm-1 .34375-.21875.3125.375.3125.3125.40625.28125.6875.15625-.15625-.4375-1.03125-.3125-.40625zm10.3125 0-.28125.34375-.25.46875-1-.40625-.15625.4375 1.15625.46875.25-.46875.28125-.34375zm-11.59375 1.90625-.375.59375.15625.25.21875-.34375 1.15625.1875.5.25.40625.34375.84375-.875-.21875-.28125-.625.65625-.28125-.21875-.0625.0625-1.03125-.4375-.15625-.09375zm-7.875.03125-.0312.0625-.15625.5.0312.40625.125-.40625.25-.4375zm7.09375 0-.21875.125.25.4375.15625.46875v-.46875l-.15625-.5-.0312-.0625zm10.34375.65625-1 1.9375c-.26864-.07869-.54977-.125-.84375-.125-.58291 0-1.13261.150264-1.59375.4375l-1.53125-1.625c-.0946.06312-.19087.119253-.28125.1875l1.8125 1.9375c.46114-.287236 1.01084-.4375 1.59375-.4375.29398 0 .57511.04631.84375.125l1.21875-2.375c-.0695-.02737-.14804-.03751-.21875-.0625zm-14.71875.28125v.25l.0312-.25zm1.625 0v.15625l.0312-.15625zm4.53125 1.59375-.3125.75-.53125-.1875h-.5l-1.15625.25-.15625.6875.0937.0625.0625-.25 1.15625-.25h.5l.53125.1875.46875-1.15625-.15625-.09375zm8.75.75-.15625.34375c.68574.544483 1.11379 1.372153 1.125 2.3125l.875.15625v-.5l-.875-.15625c-.0103-.861985-.38054-1.614961-.96875-2.15625zm-4.65625.71875c-.24217.438222-.375.932651-.375 1.46875 0 .122317-.009.254361 0 .375.0231-.616264.22181-1.189835.5625-1.65625zm-3 1.71875c-.004.08572-.0312.1633-.0312.25 0 .637183.11756 1.240877.3125 1.8125l2.40625-1.09375c-.0368-.151837-.0563-.306399-.0625-.46875l-2.34375 1.0625c-.16894-.495218-.2547-1.018219-.2813-1.5625zm4.6875 0c-.0223.08151-.0312.16143-.0312.25 0 .535035.43371.96875.96875.96875.53503 0 .96875-.433715.96875-.96875 0-.08857-.009-.168491-.0312-.25-.11222.410872-.49104.71875-.9375.71875-.44647 0-.82528-.307878-.9375-.71875zm-6.40625.40625-.53125.0625-.5.15625-.96875.6875.0937.4375.875-.625.5-.15625.53125-.0625v-.5zm2.71875 2.59375-.25.125c.11547.195548.23738.383007.375.5625h.4375c-.20566-.212244-.39189-.445475-.5625-.6875zm5.65625.0625c-.0221.0081-.0401.02366-.0625.03125l.0625.59375h.0937zm-7.71875.21875-.3125.15625-.28125.25h.75z" opacity=".2"/><path clip-path="url(#k)" d="m37.65625 1c1.400064.8714716 2.34375 2.4170094 2.34375 4.1875 0 2.7268583-2.210642 4.9375-4.9375 4.9375-1.688644.000001-3.172173-.863135-4.0625-2.15625v2.75l.75.5-.25.4375-.15625.5.0625 1.0625.59375.28125.78125-.78125.28125-.40625.09375-.53125 1.125.25-.03125.5.03125.5.46875 1h.65625l.4375-1 .0625-.5-.03125-.5 1.125-.25.09375.53125.28125.40625.78125.78125.625-.28125.03125-1.0625-.15625-.5-.25-.4375.96875-.65625.3125.4375.40625.25 1.03125.4375.46875-.46875-.4375-1.03125-.3125-.40625-.375-.3125.625-.96875.46875.28125.4375.125 1.125-.03125.25-.59375-.75-.8125-.40625-.21875-.53125-.15625.25-1.125.5.03125.46875-.03125 1.03125-.46875v-.65625l-1.03125-.4375-.46875-.0625-.5.0625-.25-1.09375.53125-.15625.40625-.25.75-.8125-.25-.59375h-1.125l-.4375.09375-.46875.25-.5625-.84375zm-5.4375.15625c-.457524.1928742-.823137.5508367-1.03125 1 .294989-.3757431.64102-.7233484 1.03125-1zm2.8125.15625c-2.121665 0-3.84375 1.7220854-3.84375 3.84375s1.722085 3.84375 3.84375 3.84375 3.84375-1.7220854 3.84375-3.84375-1.722085-3.84375-3.84375-3.84375zm0 1.71875c1.24195 0 2.25.9520473 2.25 2.125s-1.00805 2.125-2.25 2.125-2.25-.9520473-2.25-2.125 1.00805-2.125 2.25-2.125zm13.53125 4.65625-.65625.96875-.1875.5-.03125.53125-1.21875.03125-.0625-.5625-.15625-.46875-.6875-.96875-.6875.125-.25 1.15625.03125.53125.1875.53125-1.125.46875-.28125-.5-.34375-.375-1-.625-.5625.375.21875 1.1875.21875.46875.34375.40625-.84375.875-.40625-.34375-.5-.25-1.15625-.1875-.375.59375.625 1 .40625.3125.5.25-.46875 1.15625-.53125-.1875h-.5l-1.15625.25-.15625.6875 1 .65625.5.1875.53125.03125v1.21875l-.53125.0625-.5.15625-.96875.6875.15625.6875 1.15625.25.5-.03125.53125-.1875.46875 1.15625-.46875.25-.28125.25h3.21875c-.314959-.3227-.582021-.672187-.8125-1.0625l2.4375-1.125c.514507.714654 1.316242 1.196072 2.25 1.25l.125.9375h1.1875l-.15625-1.09375c.841382-.285354 1.521712-.926218 1.84375-1.75l1.0625.1875v-1.15625l-.875-.15625c-.01121-.940347-.439258-1.768017-1.125-2.3125l1.21875-2.375c.279199.18294.539028.397236.78125.625v-3.3125l-.28125.34375-.25.46875-1.15625-.46875.1875-.5.03125-.53125-.28125-1.15625zm-1.4375 3.71875c.729584 0 1.422284.154083 2.0625.40625l-1.21875 2.375c-.268638-.07869-.549774-.125-.84375-.125-.582905 0-1.132614.150264-1.59375.4375l-1.8125-1.9375c.946343-.714581 2.130021-1.15625 3.40625-1.15625zm-4.25 1.9375 1.8125 1.9375c-.363304.49738-.5625 1.118592-.5625 1.78125 0 .244633.0073.490994.0625.71875l-2.40625 1.09375c-.194943-.571623-.3125-1.175317-.3125-1.8125 0-1.426159.532764-2.724815 1.40625-3.71875zm4.25 2.75c.535035 0 .96875.433715.96875.96875s-.433715.96875-.96875.96875-.96875-.433715-.96875-.96875.433715-.96875.96875-.96875z" fill="#fefefe" filter="url(#j)" opacity=".5" transform="translate(87.75 41.5)"/><g fill-rule="evenodd" transform="translate(117.75 41.5)"><path d="m2.9999999.99999982c-1.108 0-1.99999997.89199998-1.99999997 1.99999998v1c0-1.108.89199997-2 1.99999997-2h16.0000001c1.108 0 2 .892 2 2v-1c0-1.108-.892-1.99999998-2-1.99999998z" fill="#fefefe" opacity=".4"/><path d="m2.9999999 20.999999c-1.108 0-1.99999997-.891999-1.99999997-1.999999v-1c0 1.108.89199997 2 1.99999997 2h16.0000001c1.108 0 2-.892 2-2v1c0 1.108-.892 1.999999-2 1.999999z" opacity=".15"/></g></g><g transform="translate(-54.75 21.5)"><g transform="translate(117.75 41.5)"><g><g><rect fill="url(#o)" height="21.5" opacity=".3" rx="2.5" width="21" x=".5" y=".5"/><rect height="20" opacity=".5" rx="2.380952" ry="2.325581" width="20" x="1" y="2"/></g><rect fill="url(#p)" fill-rule="evenodd" height="20" rx="2" width="20" x="1" y="1"/></g><rect clip-path="url(#m)" fill="#fefefe" filter="url(#l)" height="16" opacity=".15" rx="2" width="16" x="3" y="3"/><path clip-path="url(#n)" d="m4.75-3.65625-.46875 1-.03125.46875.03125.53125-1.125.21875-.09375-.46875-.28125-.4375-.78125-.78125-.59375.25-.0625 1.125.15625.46875.25.4375-.96875.625-.3125-.375-.375-.3125-1.0625-.375-.46875.4375.4375 1.03125.28125.40625.40625.3125-.65625.9375-.40625-.25-.46875-.09375h-1.125l-.28125.59375.78125.8125.4375.25.5.15625-.25 1.09375-.5-.0625-.5.0625-1 .4375v.65625l1 .46875.5.03125.5-.03125.25 1.125-.5.15625-.4375.21875-.78125.8125.28125.59375 1.125.03125.46875-.125.40625-.28125.65625.96875-.40625.3125-.28125.40625-.4375 1.03125.46875.46875 1.0625-.4375.375-.25.3125-.4375.96875.65625-.25.4375-.15625.5.0625 1.0625.59375.28125.78125-.78125.28125-.40625.09375-.53125 1.125.25-.03125.5.03125.5.46875 1h.65625l.4375-1 .0625-.5-.03125-.5 1.125-.25.09375.53125.28125.40625.78125.78125.625-.28125.03125-1.0625-.15625-.5-.25-.4375.96875-.65625.3125.4375.40625.25 1.03125.4375.46875-.46875-.4375-1.03125-.3125-.40625-.375-.3125.625-.96875.46875.28125.4375.125 1.125-.03125.25-.59375-.75-.8125-.40625-.21875-.53125-.15625.25-1.125.5.03125.46875-.03125 1.03125-.46875v-.65625l-1.03125-.4375-.46875-.0625-.5.0625-.25-1.09375.53125-.15625.40625-.25.75-.8125-.25-.59375h-1.125l-.4375.09375-.46875.25-.625-.9375.375-.3125.3125-.40625.4375-1.03125-.46875-.4375-1.03125.375-.40625.3125-.3125.375-.96875-.625.25-.4375.15625-.46875-.03125-1.125-.625-.25-.78125.78125-.28125.4375-.09375.46875-1.125-.21875.03125-.53125-.0625-.46875-.4375-1zm.3125 3.90625c2.7268582 0 4.9375 2.2106418 4.9375 4.9375 0 2.7268583-2.2106418 4.9375-4.9375 4.9375-2.7268579.000001-4.9375-2.2106417-4.9375-4.9375.00000012-2.7268582 2.2106421-4.9375 4.9375-4.9375zm-.03125 1.0625c-2.1216646 0-3.84375 1.7220854-3.84375 3.84375s1.7220854 3.84375 3.84375 3.84375 3.84375-1.7220854 3.84375-3.84375-1.7220854-3.84375-3.84375-3.84375zm0 1.71875c1.24195 0 2.25.9520473 2.25 2.125s-1.00805 2.125-2.25 2.125-2.25-.9520473-2.25-2.125 1.00805-2.125 2.25-2.125zm13.53125 4.65625-.65625.96875-.1875.5-.03125.53125-1.21875.03125-.0625-.5625-.15625-.46875-.6875-.96875-.6875.125-.25 1.15625.03125.53125.1875.53125-1.125.46875-.28125-.5-.34375-.375-1-.625-.5625.375.21875 1.1875.21875.46875.34375.40625-.84375.875-.40625-.34375-.5-.25-1.15625-.1875-.375.59375.625 1 .40625.3125.5.25-.46875 1.15625-.53125-.1875h-.5l-1.15625.25-.15625.6875 1 .65625.5.1875.53125.03125v1.21875l-.53125.0625-.5.15625-.96875.6875.15625.6875 1.15625.25.5-.03125.53125-.1875.46875 1.15625-.46875.25-.40625.34375-.625 1 .40625.5625 1.15625-.1875.46875-.25.40625-.34375.875.84375-.34375.4375-.21875.46875-.21875 1.15625.59375.375 1-.625.34375-.40625.25-.5 1.125.46875-.15625.53125-.03125.5.25 1.1875.6875.125.6875-1 .15625-.46875.03125-.5625h1.25l.03125.53125.1875.5.6875.96875.6875-.15625.25-1.15625-.0625-.5-.15625-.53125 1.125-.46875.25.46875.34375.40625 1 .625.59375-.40625-.21875-1.15625-.25-.46875-.34375-.40625.875-.875.40625.34375.46875.21875 1.1875.21875.375-.59375-.65625-1-.40625-.34375-.46875-.25.46875-1.125.5.15625.53125.03125 1.15625-.25.125-.6875-.96875-.6875-.5-.15625-.53125-.03125-.03125-1.25.5625-.03125.46875-.1875.96875-.6875-.125-.6875-1.15625-.21875-.53125.03125-.5.15625-.5-1.125.5-.25.375-.34375.625-1-.375-.59375-1.1875.21875-.4375.25-.4375.34375-.875-.875.34375-.40625.25-.46875.1875-1.15625-.59375-.40625-.96875.65625-.34375.40625-.25.46875-1.15625-.46875.1875-.5.03125-.53125-.28125-1.15625zm-1.4375 3.71875c.729584 0 1.422284.154083 2.0625.40625l-1.21875 2.375c-.268638-.07869-.549774-.125-.84375-.125-.582905 0-1.132614.150264-1.59375.4375l-1.8125-1.9375c.946343-.714581 2.130021-1.15625 3.40625-1.15625zm3.09375.9375c1.539196 1.008529 2.562501 2.741853 2.5625 4.71875 0 .14764-.02011.292694-.03125.4375l-2.625-.46875c-.01121-.940347-.439258-1.768017-1.125-2.3125zm-7.34375 1 1.8125 1.9375c-.363304.49738-.5625 1.118592-.5625 1.78125 0 .244633.0073.490994.0625.71875l-2.40625 1.09375c-.194943-.571623-.3125-1.175317-.3125-1.8125 0-1.426159.532764-2.724815 1.40625-3.71875zm4.25 2.75c.535035 0 .96875.433715.96875.96875s-.433715.96875-.96875.96875-.96875-.433715-.96875-.96875.433715-.96875.96875-.96875zm2.8125 2.0625 2.625.46875c-.559934 1.936858-2.153842 3.462992-4.125 3.9375l-.34375-2.65625c.841382-.285354 1.521712-.926218 1.84375-1.75zm-5.25.65625c.514507.714654 1.316242 1.196072 2.25 1.25l.375 2.65625c-.05979.0019-.12725-.000001-.1875 0-2.071485.000001-3.891877-1.116347-4.875-2.78125z" fill="url(#q)"/></g><path d="m128.4375 42.71875-.21875.1875.625.9375.46875-.25.4375-.09375h1.125l.0937.25.15625-.15625-.25-.59375h-1.125l-.4375.09375-.46875.25-.40625-.625zm-5.65625.09375c-2.12167 0-3.84375 1.722085-3.84375 3.84375 0 .08492.0258.166448.0312.25.1303-2.004009 1.77575-3.59375 3.8125-3.59375s3.6822 1.589741 3.8125 3.59375c.005-.08355.0312-.165083.0312-.25 0-2.121665-1.72208-3.84375-3.84375-3.84375zm6.75 2.46875-.0937.03125.25 1.09375.5-.0625.46875.0625 1.03125.4375v-.5l-1.03125-.4375-.46875-.0625-.5.0625-.15625-.625zm-8.96875 1.625c-.0101.08156-.0312.165899-.0312.25 0 1.172953 1.00805 2.125 2.25 2.125s2.25-.952047 2.25-2.125c0-.0841-.0212-.168439-.0312-.25-.1305 1.055955-1.06585 1.875-2.21875 1.875s-2.08825-.819045-2.21875-1.875zm7.1875.03125c-.13175 2.609247-2.29552 4.6875-4.9375 4.6875-1.69203.000001-3.17092-.857841-4.0625-2.15625v.5c.89033 1.293115 2.37386 2.156251 4.0625 2.15625 2.72686 0 4.9375-2.210642 4.9375-4.9375 0-.08488.004-.166169 0-.25zm1.78125 1.6875-.0937.46875.53125.15625.40625.21875.59375.65625.15625-.34375-.75-.8125-.40625-.21875-.4375-.125zm6.78125.5625-.65625.96875-.1875.5-.0312.53125-1.21875.03125-.0625-.5625-.1563-.46875-.6875-.96875-.6875.125-.25 1.15625.0312.40625.21875-1.0625.6875-.125.6875.96875.15625.46875.0625.5625 1.21875-.03125.0312-.53125.1875-.5.65625-.96875.6875.125.25 1.0625.0312-.40625-.2811-1.15625zm-6.875 1.625-.15625.09375.0937.4375.46875-.3125 1 .625.34375.375.28125.5 1.125-.46875-.15625-.4375-.96875.40625-.28125-.5-.34375-.375-.4375-.28125-.65625.03125-.3125-.09375zm-1 .34375-.21875.3125.375.3125.3125.40625.28125.6875.15625-.15625-.4375-1.03125-.3125-.40625zm10.3125 0-.28125.34375-.25.46875-1-.40625-.15625.4375 1.15625.46875.25-.46875.28125-.34375zm-11.59375 1.90625-.375.59375.15625.25.21875-.34375 1.15625.1875.5.25.40625.34375.84375-.875-.21875-.28125-.625.65625-.28125-.21875-.0625.0625-1.03125-.4375-.15625-.09375zm-7.875.03125-.0312.0625-.15625.5.0312.40625.125-.40625.25-.4375zm7.09375 0-.21875.125.25.4375.15625.46875v-.46875l-.15625-.5-.0312-.0625zm10.34375.65625-1 1.9375c-.26864-.07869-.54977-.125-.84375-.125-.58291 0-1.13261.150264-1.59375.4375l-1.53125-1.625c-.0946.06312-.19087.119253-.28125.1875l1.8125 1.9375c.46114-.287236 1.01084-.4375 1.59375-.4375.29398 0 .57511.04631.84375.125l1.21875-2.375c-.0695-.02737-.14804-.03751-.21875-.0625zm-14.71875.28125v.25l.0312-.25zm1.625 0v.15625l.0312-.15625zm4.53125 1.59375-.3125.75-.53125-.1875h-.5l-1.15625.25-.15625.6875.0937.0625.0625-.25 1.15625-.25h.5l.53125.1875.46875-1.15625-.15625-.09375zm8.75.75-.15625.34375c.68574.544483 1.11379 1.372153 1.125 2.3125l.875.15625v-.5l-.875-.15625c-.0103-.861985-.38054-1.614961-.96875-2.15625zm-4.65625.71875c-.24217.438222-.375.932651-.375 1.46875 0 .122317-.009.254361 0 .375.0231-.616264.22181-1.189835.5625-1.65625zm-3 1.71875c-.004.08572-.0312.1633-.0312.25 0 .637183.11756 1.240877.3125 1.8125l2.40625-1.09375c-.0368-.151837-.0563-.306399-.0625-.46875l-2.34375 1.0625c-.16894-.495218-.2547-1.018219-.2813-1.5625zm4.6875 0c-.0223.08151-.0312.16143-.0312.25 0 .535035.43371.96875.96875.96875.53503 0 .96875-.433715.96875-.96875 0-.08857-.009-.168491-.0312-.25-.11222.410872-.49104.71875-.9375.71875-.44647 0-.82528-.307878-.9375-.71875zm-6.40625.40625-.53125.0625-.5.15625-.96875.6875.0937.4375.875-.625.5-.15625.53125-.0625v-.5zm2.71875 2.59375-.25.125c.11547.195548.23738.383007.375.5625h.4375c-.20566-.212244-.39189-.445475-.5625-.6875zm5.65625.0625c-.0221.0081-.0401.02366-.0625.03125l.0625.59375h.0937zm-7.71875.21875-.3125.15625-.28125.25h.75z" opacity=".2"/><path clip-path="url(#k)" d="m37.65625 1c1.400064.8714716 2.34375 2.4170094 2.34375 4.1875 0 2.7268583-2.210642 4.9375-4.9375 4.9375-1.688644.000001-3.172173-.863135-4.0625-2.15625v2.75l.75.5-.25.4375-.15625.5.0625 1.0625.59375.28125.78125-.78125.28125-.40625.09375-.53125 1.125.25-.03125.5.03125.5.46875 1h.65625l.4375-1 .0625-.5-.03125-.5 1.125-.25.09375.53125.28125.40625.78125.78125.625-.28125.03125-1.0625-.15625-.5-.25-.4375.96875-.65625.3125.4375.40625.25 1.03125.4375.46875-.46875-.4375-1.03125-.3125-.40625-.375-.3125.625-.96875.46875.28125.4375.125 1.125-.03125.25-.59375-.75-.8125-.40625-.21875-.53125-.15625.25-1.125.5.03125.46875-.03125 1.03125-.46875v-.65625l-1.03125-.4375-.46875-.0625-.5.0625-.25-1.09375.53125-.15625.40625-.25.75-.8125-.25-.59375h-1.125l-.4375.09375-.46875.25-.5625-.84375zm-5.4375.15625c-.457524.1928742-.823137.5508367-1.03125 1 .294989-.3757431.64102-.7233484 1.03125-1zm2.8125.15625c-2.121665 0-3.84375 1.7220854-3.84375 3.84375s1.722085 3.84375 3.84375 3.84375 3.84375-1.7220854 3.84375-3.84375-1.722085-3.84375-3.84375-3.84375zm0 1.71875c1.24195 0 2.25.9520473 2.25 2.125s-1.00805 2.125-2.25 2.125-2.25-.9520473-2.25-2.125 1.00805-2.125 2.25-2.125zm13.53125 4.65625-.65625.96875-.1875.5-.03125.53125-1.21875.03125-.0625-.5625-.15625-.46875-.6875-.96875-.6875.125-.25 1.15625.03125.53125.1875.53125-1.125.46875-.28125-.5-.34375-.375-1-.625-.5625.375.21875 1.1875.21875.46875.34375.40625-.84375.875-.40625-.34375-.5-.25-1.15625-.1875-.375.59375.625 1 .40625.3125.5.25-.46875 1.15625-.53125-.1875h-.5l-1.15625.25-.15625.6875 1 .65625.5.1875.53125.03125v1.21875l-.53125.0625-.5.15625-.96875.6875.15625.6875 1.15625.25.5-.03125.53125-.1875.46875 1.15625-.46875.25-.28125.25h3.21875c-.314959-.3227-.582021-.672187-.8125-1.0625l2.4375-1.125c.514507.714654 1.316242 1.196072 2.25 1.25l.125.9375h1.1875l-.15625-1.09375c.841382-.285354 1.521712-.926218 1.84375-1.75l1.0625.1875v-1.15625l-.875-.15625c-.01121-.940347-.439258-1.768017-1.125-2.3125l1.21875-2.375c.279199.18294.539028.397236.78125.625v-3.3125l-.28125.34375-.25.46875-1.15625-.46875.1875-.5.03125-.53125-.28125-1.15625zm-1.4375 3.71875c.729584 0 1.422284.154083 2.0625.40625l-1.21875 2.375c-.268638-.07869-.549774-.125-.84375-.125-.582905 0-1.132614.150264-1.59375.4375l-1.8125-1.9375c.946343-.714581 2.130021-1.15625 3.40625-1.15625zm-4.25 1.9375 1.8125 1.9375c-.363304.49738-.5625 1.118592-.5625 1.78125 0 .244633.0073.490994.0625.71875l-2.40625 1.09375c-.194943-.571623-.3125-1.175317-.3125-1.8125 0-1.426159.532764-2.724815 1.40625-3.71875zm4.25 2.75c.535035 0 .96875.433715.96875.96875s-.433715.96875-.96875.96875-.96875-.433715-.96875-.96875.433715-.96875.96875-.96875z" fill="#fefefe" filter="url(#j)" opacity=".5" transform="translate(87.75 41.5)"/><g fill-rule="evenodd" transform="translate(117.75 41.5)"><path d="m2.9999999.99999982c-1.108 0-1.99999997.89199998-1.99999997 1.99999998v1c0-1.108.89199997-2 1.99999997-2h16.0000001c1.108 0 2 .892 2 2v-1c0-1.108-.892-1.99999998-2-1.99999998z" fill="#fefefe" opacity=".4"/><path d="m2.9999999 20.999999c-1.108 0-1.99999997-.891999-1.99999997-1.999999v-1c0 1.108.89199997 2 1.99999997 2h16.0000001c1.108 0 2-.892 2-2v1c0 1.108-.892 1.999999-2 1.999999z" opacity=".15"/></g></g><rect height="6" opacity=".4" rx="1" width="24" x="10" y="42"/><g transform="translate(11 51)"><g><g><rect fill="url(#o)" height="21.5" opacity=".3" rx="2.5" width="21" x=".5" y=".5"/><rect height="20" opacity=".5" rx="2.380952" ry="2.325581" width="20" x="1" y="2"/></g><g fill-rule="evenodd"><rect fill="url(#x)" height="20" rx="2" width="20" x="1" y="1"/><path d="m2.9999997.99999979c-1.108 0-2 .89200001-2 2.00000001v1c0-1.108.892-2 2-2h15.9999993c1.108 0 2 .892 2 2v-1c0-1.108-.892-2.00000001-2-2.00000001z" fill="#ececec"/><path d="m2.9999997 21c-1.108 0-2-.892-2-2v-1c0 1.108.892 2 2 2h15.9999993c1.108 0 2-.892 2-2v1c0 1.108-.892 2-2 2z" fill="#8b8b8b"/></g></g><g><path d="m4.1468255 3.7508835h.7958636c.220454 0 .397931.1615539.397931.3622288v13.7646767c0 .200675-.177477.362229-.397931.362229h-.7958636c-.2204539 0-.397931-.161554-.397931-.362229v-13.7646767c0-.2006749.1774771-.3622288.397931-.3622288zm5.9693765.00433h.795864c.220454 0 .397932.1615539.397932.3622288v13.7646767c0 .200675-.177478.362228-.397932.362228h-.795864c-.2204537 0-.3979307-.161553-.3979307-.362228v-13.7646767c0-.2006749.177477-.3622288.3979307-.3622288zm6.013547-.00433h.795863c.220454 0 .397931.1615539.397931.3622288v13.7646767c0 .200675-.177477.362229-.397931.362229h-.795863c-.220454 0-.397932-.161554-.397932-.362229v-13.7646767c0-.2006749.177478-.3622288.397932-.3622288z" fill="url(#u)" fill-rule="evenodd" stroke="url(#v)" stroke-linejoin="round" stroke-width=".5"/><g stroke-width="3.586423"><g transform="matrix(.2855208 0 0 .2722949 -4.690109 5.020316)"><rect fill="url(#s)" fill-rule="evenodd" height="22" rx="2" stroke="url(#t)" stroke-linejoin="round" width="14" x="46.201412" y="20.159012"/><path d="m47.94785 31.540637h10.507115" fill="none" opacity=".1" stroke="#000"/></g><g transform="matrix(.2855208 0 0 .2722949 -10.690108 .014384)"><rect fill="url(#s)" fill-rule="evenodd" height="22" rx="2" stroke="url(#r)" stroke-linejoin="round" width="14" x="46.201412" y="20.159012"/><path d="m47.94785 31.540637h10.507115" fill="none" opacity=".1" stroke="#000"/></g><g transform="matrix(.2855208 0 0 .2722949 1.309892 2.014384)"><rect fill="url(#s)" fill-rule="evenodd" height="22" rx="2" stroke="url(#r)" stroke-linejoin="round" width="14" x="46.201412" y="20.159012"/><path d="m47.94785 31.540637h10.507115" fill="none" opacity=".1" stroke="#000"/></g></g></g></g><g fill="#fefefe"><path d="m14.455239 45.809189-.176292-.507723h-.757354l-.176292.507723h-.416051l.724916-1.987171h.490798l.722095 1.987171zm-.465412-1.392007c-.01128-.03291-.02257-.06581-.03385-.09872-.01034-.03385-.01975-.0644-.02821-.09167-.0075-.0282-.0141-.05124-.01974-.06911-.0047-.01786-.0075-.02773-.0085-.02962-.000941.0028-.0038.01317-.0085.03103-.0047.01787-.01128.04043-.01974.0677-.0075.02727-.01693.05783-.02821.09167-.01034.03291-.02116.06582-.03244.09872l-.196037.571188h.571188l-.196037-.571188"/><path d="m16.745634 45.809189h-.418872l-.242578-.930825c-.0075-.02915-.01505-.06158-.02257-.09731-.0075-.03667-.01457-.07099-.02116-.102955l-.02257-.112827c-.0085.03761-.01693.07522-.02539.112827-.0075.03197-.01551.06629-.02398.102955-.0085.03667-.01646.07005-.02398.100134l-.2454.928005h-.418871l-.394895-1.52599h.37233l.193216.896978c.0056.02539.01175.05406.01834.08603.0066.03103.01269.06018.01833.08744.0066.03197.01363.06394.02115.0959.0066-.03573.01316-.07052.01975-.104365.0056-.02915.01175-.05876.01834-.08885.0066-.03009.01222-.05547.01692-.07616l.239758-.896978h.424512l.234117.896978c.0066.02445.01316.05218.01975.08321.0066.03103.01269.06018.01833.08744.0066.03197.01316.06488.01975.09872.0075-.03385.01457-.06676.02116-.09872.0056-.02727.01175-.05641.01834-.08744.0066-.03103.01269-.05876.01833-.08321l.201679-.896978h.366689l-.400537 1.52599"/><path d="m18.329447 45.809189v-.856077c-.000001-.05923-.0047-.113297-.0141-.16219-.0094-.04983-.02492-.09214-.04654-.12693-.02163-.03573-.04983-.06346-.08462-.08321-.03479-.01974-.0771-.02962-.126931-.02962-.04795.000002-.09167.01081-.131161.03244-.03855.02069-.07193.05077-.100135.09026-.02821.03855-.0503.08509-.06629.139624-.01504.05359-.02257.112828-.02257.177703v.817998h-.396306v-1.184687c0-.03291-.00047-.06676-.0014-.101544-.000001-.03479-.000941-.0677-.0028-.09872-.00094-.03197-.0019-.06017-.0028-.08462-.00094-.02538-.0024-.04419-.0042-.05641h.377972c.0019.01128.0038.02962.0056.055.0019.02445.0038.05171.0056.0818.0019.03009.0033.06018.0042.09026.0019.03009.0028.05548.0028.07616h.0056c.05359-.116587.120818-.201207.201678-.253862.08086-.05265.177232-.07898.28912-.07898.09214.000002.16971.01505.232707.04513.06393.03009.115646.07146.155137.12411.04043.05265.06958.114709.08744.186165.01786.07146.02679.148557.0268.231296v.968905h-.394896"/><path d="m21.519639 45.23659c-.000002.09026-.01646.172532-.04936.24681-.03291.07334-.08415.136333-.153727.188986-.06864.05265-.157019.09355-.265144.122699-.107187.02821-.235058.04231-.383613.04231-.131633 0-.247751-.01175-.348354-.03526-.100605-.02351-.187106-.05829-.259503-.104365-.07146-.04607-.129752-.102955-.174882-.170651-.04419-.06864-.07616-.147146-.0959-.235527l.401948-.06629c.01128.04419.02774.08462.04936.121289.02162.03667.05124.06864.08885.0959.03855.02633.08603.04701.142445.06206.05735.0141.126459.02116.20732.02115.141033.000001.248689-.02115.322968-.06346.07522-.04325.112826-.110476.112827-.201679-.000001-.05453-.01505-.09919-.04513-.133982-.03009-.03479-.07005-.06347-.119879-.08603-.04983-.02257-.107187-.04137-.172061-.05641-.06488-.01504-.132573-.02962-.203089-.04372-.05642-.01316-.112829-.0268-.169241-.0409-.05642-.0141-.110478-.03103-.16219-.05077-.05077-.01974-.09825-.04325-.142444-.07052-.04419-.02726-.08274-.06064-.115648-.100134-.03197-.04043-.05735-.08744-.07616-.141034-.01786-.05359-.0268-.116587-.0268-.188986 0-.09872.01974-.183343.05923-.253861.03949-.07052.09402-.127869.1636-.172062.07052-.04513.154197-.07804.251041-.09872.09684-.02068.202618-.03102.317326-.03103.129751.000002.240697.01034.332841.03103.09308.01975.17065.0503.232706.09167.06299.04137.112356.09355.148086.156548.03667.06206.06346.134925.08039.218603l-.403358.055c-.02069-.08556-.063-.149965-.126931-.193217-.063-.04325-.153728-.06487-.272196-.06488-.07334.000002-.134453.0066-.183344.01975-.04795.01222-.0865.02915-.115648.05077-.02821.02163-.04842.04701-.06065.07616-.01222.02821-.01834.0583-.01833.09026-.000001.04889.01175.08932.03526.12129.02351.03103.05641.05736.09872.07898.04231.02069.09261.03855.150907.05359.05923.0141.124109.02868.194627.04372.06205.01317.123639.02727.184755.04231.06111.0141.119407.03103.174882.05077.05547.01975.107184.04372.155138.07193.04795.02821.08932.063.12411.104366.03573.04043.06346.08885.08321.145265.02068.05641.03102.12317.03103.200268"/><path d="m22.461747 45.837396c-.110007 0-.209201-.01598-.297582-.04795-.08744-.03291-.162189-.08227-.224244-.148086-.06205-.06676-.109537-.149966-.142444-.24963-.03291-.100604-.04936-.218132-.04936-.352586-.000001-.145734.01927-.268433.05782-.368099.03949-.09966.09214-.180052.157958-.241168.06676-.06205.143384-.106714.229885-.133982.0865-.02726.177703-.0409.273607-.0409.120348.000001.222833.02116.307454.06347.08556.04137.155606.09967.210141.174882.05453.07522.09449.165482.119879.270786.02538.104366.03808.220014.03808.346944v.01128h-.978777c0 .06394.0056.12364.01692.179113.01128.05453.02962.102015.055.142444.02538.03949.05829.07099.09872.09449.04043.02257.08932.03385.146675.03385.06958.000001.12646-.01457.170651-.04372.04419-.03009.07569-.07616.09449-.138214l.373741.03244c-.01693.04325-.0409.08932-.07193.138214-.03009.04889-.07052.09402-.121289.135393-.05077.04043-.114239.07428-.190396.101544-.07522.02633-.166891.03949-.275017.03949m0-1.332773c-.04043.000001-.07851.0071-.114237.02116-.03479.01317-.06535.03479-.09167.06488-.02539.02915-.04607.06723-.06206.114238-.01598.04701-.02492.103426-.0268.169241h.592343c-.0075-.123169-.03714-.215311-.08885-.276427-.05171-.06205-.12129-.09308-.208731-.09308"/><path d="m23.83542 45.834575c-.116589 0-.206381-.0315-.269376-.09449-.063-.06394-.09449-.160308-.09449-.28912v-.899798h-.193217v-.267965h.212961l.12411-.358226h.248221v.358226h.289119v.267965h-.289119v.792612c-.000001.07428.0141.129282.04231.16501.02821.03479.07193.05218.131162.05218.02445 0 .04654-.0019.06629-.0056.01974-.0038.04184-.0085.06629-.0141v.245399c-.04889.01598-.100606.02774-.155138.03526-.05453.0085-.114238.01269-.179113.01269"/><path d="m24.800093 45.834575c-.116589 0-.206381-.0315-.269375-.09449-.063-.06394-.09449-.160308-.09449-.28912v-.899798h-.193217v-.267965h.212961l.12411-.358226h.248221v.358226h.28912v.267965h-.28912v.792612c-.000001.07428.0141.129282.04231.16501.02821.03479.07193.05218.131162.05218.02445 0 .04654-.0019.06629-.0056.01974-.0038.04184-.0085.06629-.0141v.245399c-.04889.01598-.100606.02774-.155138.03526-.05453.0085-.114238.01269-.179113.01269"/><path d="m25.374102 44.008183v-.291941h.396306v.291941zm0 1.801006v-1.52599h.396306v1.52599z"/><path d="m27.163825 45.809189v-.856077c-.000001-.05923-.0047-.113297-.0141-.16219-.0094-.04983-.02492-.09214-.04654-.12693-.02163-.03573-.04983-.06346-.08462-.08321-.03479-.01974-.0771-.02962-.12693-.02962-.04795.000002-.09167.01081-.131162.03244-.03855.02069-.07193.05077-.100134.09026-.02821.03855-.0503.08509-.06629.139624-.01505.05359-.02257.112828-.02257.177703v.817998h-.396306v-1.184687c0-.03291-.00047-.06676-.0014-.101544 0-.03479-.000941-.0677-.0028-.09872-.00094-.03197-.0019-.06017-.0028-.08462-.00094-.02538-.0023-.04419-.0042-.05641h.377972c.0019.01128.0038.02962.0056.055.0019.02445.0038.05171.0056.0818.0019.03009.0033.06018.0042.09026.0019.03009.0028.05548.0028.07616h.0056c.05359-.116587.120818-.201207.201679-.253862.08086-.05265.177231-.07898.28912-.07898.09214.000002.169709.01505.232706.04513.06393.03009.115646.07146.155137.12411.04043.05265.06958.114709.08744.186165.01786.07146.02679.148557.0268.231296v.968905h-.394896"/><path d="m28.579808 46.421277c-.100605-.000001-.189457-.01034-.266555-.03103-.07616-.01975-.141504-.04795-.196037-.08462-.05359-.03573-.09684-.07898-.129751-.129751-.03197-.04983-.05406-.104836-.06629-.16501l.396306-.04654c.0141.06112.04419.109067.09026.143855.04701.03479.108126.05218.183345.05218.04701-.000001.08979-.0066.128341-.01975.03949-.01316.07287-.03573.100134-.0677.02821-.03103.04983-.0724.06488-.12411.01598-.05171.02397-.115648.02398-.191807-.000001-.02633-.000001-.05312 0-.08039-.000001-.02727.000469-.05218.0014-.07475.000939-.02633.0014-.05171.0014-.07616h-.0028c-.04607.09872-.110947.170182-.194627.214372-.08274.04419-.181464.06629-.296171.06629-.09684 0-.180525-.0188-.251041-.05641-.06958-.03855-.127401-.09167-.173472-.159369-.04607-.06864-.08039-.149966-.102955-.243989-.02163-.09496-.03244-.199328-.03244-.313096 0-.117527.01175-.223773.03526-.318737.02351-.0959.05923-.178172.107186-.24681.04889-.06864.110006-.121288.183344-.157958.07428-.03761.162189-.05641.263734-.05641.101544.000002.192275.02163.272196.06488.08086.04325.143853.113299.188985.210141h.0071c-.000001-.01974.000469-.04231.0014-.0677.0019-.02632.0038-.05124.0056-.07475.0019-.02444.0038-.04607.0056-.06488.0028-.0188.0052-.0315.0071-.03808h.375151c-.0019.03385-.0038.08133-.0056.142445-.0019.06112-.0028.131163-.0028.210141v1.126863c-.000002.110946-.01599.20732-.04795.28912-.03197.08274-.07898.151376-.141034.205909-.06112.05453-.136804.09543-.227065.1227-.08932.02727-.191337.0409-.306044.0409m.33143-1.396238c-.000001-.0959-.0094-.175822-.02821-.239758-.01881-.06393-.04325-.115177-.07334-.153727s-.06488-.06582-.104366-.0818c-.03855-.01598-.07757-.02398-.117058-.02398-.05077.000001-.0959.0099-.135393.02962-.03855.01975-.07146.0503-.09872.09167-.02727.04137-.04795.09402-.06206.157958-.0141.06394-.02116.140095-.02116.228475 0 .164541.02633.28865.07898.37233s.131161.125521.235527.125521c.03949 0 .07851-.0075.117059-.02257.03949-.01598.07475-.04325.105775-.0818.03103-.03949.05594-.09167.07475-.156548.0188-.06488.02821-.146674.02821-.245399"/><path d="m30.992902 45.363521c-.000002.07334-.01552.139154-.04654.197448-.03009.05829-.07428.108126-.132572.149496-.05829.04043-.129752.07193-.214372.09449-.08462.02163-.180994.03244-.28912.03244-.09684 0-.184285-.0071-.262323-.02116-.07804-.0141-.146676-.03714-.20591-.06911-.05829-.03291-.107186-.07522-.146675-.126931-.03949-.05171-.06911-.115648-.08885-.191806l.348354-.05218c.01128.04231.0268.07663.04654.102955.01974.02633.04419.04654.07334.06065.02915.0141.063.02351.101545.02821.03949.0047.08415.0071.133982.0071.04513 0 .08697-.0023.125521-.0071.03949-.0056.07334-.01457.101544-.0268.02915-.01316.05171-.03103.0677-.05359.01598-.02351.02397-.05265.02398-.08744-.000002-.03949-.01175-.07052-.03526-.09308-.02257-.02351-.05406-.04231-.09449-.05641-.03949-.01504-.0865-.02774-.141034-.03808-.05359-.01128-.110948-.02398-.172062-.03808-.06394-.0141-.126931-.03103-.188985-.05077-.06206-.01974-.117529-.04654-.166421-.08039-.04889-.03385-.08838-.07663-.118468-.128341-.03009-.05265-.04513-.118937-.04513-.198858 0-.0724.0141-.136802.04231-.193216.02821-.05735.06958-.105775.12411-.145266.05453-.04043.121759-.07099.201679-.09167.08086-.02162.173471-.03244.277837-.03244.08274.000002.159838.008.231296.02398.07146.01505.135392.03949.191807.07334.05641.03291.103423.07522.141034.126931.03855.05171.06534.114238.08039.187575l-.351175.03667c-.0066-.03667-.01834-.06675-.03526-.09026-.01693-.02445-.03808-.04372-.06347-.05782-.02445-.0141-.05312-.0235-.08603-.02821-.03291-.0056-.06911-.0085-.108596-.0085-.09402.000001-.16454.01222-.211551.03667-.04701.02351-.07052.06347-.07052.119879-.000001.03479.0094.06253.02821.08321.01974.02069.04701.03808.0818.05218.03573.01316.07757.02492.125521.03526.04889.0094.102014.02116.159368.03526.07052.01504.139623.03291.207321.05359.06863.01975.12928.04748.181934.08321.05359.03479.09637.07992.128341.135393.03291.05547.04936.125991.04936.211551"/></g></svg>