<svg height="96" width="96" xmlns="http://www.w3.org/2000/svg" xmlns:xlink="http://www.w3.org/1999/xlink"><linearGradient id="a"><stop offset="0" stop-color="#fefefe"/><stop offset="1" stop-color="#fefefe" stop-opacity="0"/></linearGradient><linearGradient id="b" gradientUnits="userSpaceOnUse" x1="36.357143" x2="36.357143" xlink:href="#a" y1="6" y2="63.893143"/><radialGradient id="c" cx="48" cy="90.171875" gradientTransform="matrix(1.1573129 0 0 .99590774 -7.551021 .197132)" gradientUnits="userSpaceOnUse" r="42" xlink:href="#a"/><linearGradient id="d" gradientTransform="scale(1.0058652 .994169)" gradientUnits="userSpaceOnUse" x1="48" x2="48" y1="90" y2="5.987717"><stop offset="0" stop-color="#141414"/><stop offset="1" stop-color="#25556e" stop-opacity=".968627"/></linearGradient><linearGradient id="e" gradientTransform="matrix(1.0058652 0 0 .994169 100 0)" gradientUnits="userSpaceOnUse" x1="45.447727" x2="45.447727" y1="92.539597" y2="7.01654"><stop offset="0"/><stop offset="1" stop-opacity=".588235"/></linearGradient><linearGradient id="f" gradientTransform="matrix(1.0238095 0 0 1.0119048 -1.142857 -98.071429)" gradientUnits="userSpaceOnUse" x1="32.251034" x2="32.251034" xlink:href="#e" y1="6.131708" y2="90.238609"/><linearGradient id="g" gradientTransform="translate(0 -97)" gradientUnits="userSpaceOnUse" x1="32.251034" x2="32.251034" xlink:href="#e" y1="6.131708" y2="90.238609"/><g><g fill="url(#f)"><path d="m12-95.03125c-5.5110903 0-10.03125 4.52016-10.03125 10.03125v71c0 5.5110902 4.5201598 10.03125 10.03125 10.03125h72c5.51109 0 10.03125-4.5201597 10.03125-10.03125v-71c0-5.51109-4.52016-10.03125-10.03125-10.03125z" opacity=".08" transform="scale(1 -1)"/><path d="m12-94.03125c-4.971633 0-9.03125 4.059617-9.03125 9.03125v71c0 4.9716329 4.0596171 9.03125 9.03125 9.03125h72c4.971633 0 9.03125-4.059617 9.03125-9.03125v-71c0-4.971633-4.059617-9.03125-9.03125-9.03125z" opacity=".1" transform="scale(1 -1)"/><path d="m12-93c-4.4091333 0-8 3.590867-8 8v71c0 4.4091333 3.5908667 8 8 8h72c4.409133 0 8-3.5908667 8-8v-71c0-4.409133-3.590867-8-8-8z" opacity=".2" transform="scale(1 -1)"/><rect height="85" opacity=".3" rx="7" transform="scale(1 -1)" width="86" x="5" y="-92"/></g><rect fill="url(#g)" height="84" opacity=".45" rx="6" transform="scale(1 -1)" width="84" x="6" y="-91"/></g><rect fill="url(#d)" height="84" rx="6" width="84" x="6" y="6"/><path d="m12 6c-3.324 0-6 2.676-6 6v2 68 2c0 .334721.04135.6507.09375.96875.0487.295596.09704.596915.1875.875.00988.03038.020892.0636.03125.09375.098865.287771.2348802.547452.375.8125.1445918.273507.3156161.535615.5.78125s.3737765.473472.59375.6875c.439947.428056.94291.814526 1.5 1.09375.278545.139612.5734731.246947.875.34375-.2562018-.100222-.4867109-.236272-.71875-.375-.00741-.0044-.023866.0045-.03125 0-.031933-.0193-.062293-.04251-.09375-.0625-.120395-.0767-.2310226-.163513-.34375-.25-.1061728-.0808-.2132809-.161112-.3125-.25-.1779299-.161433-.3474596-.345388-.5-.53125-.1075789-.130255-.2183939-.265285-.3125-.40625-.025089-.03838-.038446-.08587-.0625-.125-.064763-.103032-.1302275-.204517-.1875-.3125-.1010083-.194706-.2056748-.415701-.28125-.625-.00796-.02181-.023589-.04055-.03125-.0625-.0318251-.09195-.0358045-.186831-.0625-.28125-.0303323-.106618-.0703894-.203031-.09375-.3125-.0728786-.341512-.125-.698205-.125-1.0625v-2-68-2c0-2.781848 2.2181517-5 5-5h2 68 2c2.781848 0 5 2.218152 5 5v2 68 2c0 .364295-.05212.720988-.125 1.0625-.04415.206893-.08838.397658-.15625.59375-.0077.02195-.0233.04069-.03125.0625-.06274.173739-.138383.367449-.21875.53125-.04158.0828-.07904.169954-.125.25-.0546.09721-.126774.18835-.1875.28125-.09411.140965-.204921.275995-.3125.40625-.143174.17445-.303141.346998-.46875.5-.01117.0102-.01998.02115-.03125.03125-.138386.125556-.285091.234436-.4375.34375-.102571.07315-.204318.153364-.3125.21875-.0074.0045-.02384-.0044-.03125 0-.232039.138728-.462548.274778-.71875.375.301527-.0968.596455-.204138.875-.34375.55709-.279224 1.060053-.665694 1.5-1.09375.219973-.214028.409366-.441865.59375-.6875s.355408-.507743.5-.78125c.14012-.265048.276135-.524729.375-.8125.01041-.03078.02133-.06274.03125-.09375.09046-.278085.1388-.579404.1875-.875.0524-.31805.09375-.634029.09375-.96875v-2-68-2c0-3.324-2.676-6-6-6z" fill="url(#b)" opacity=".2"/><path d="m12 90c-3.324 0-6-2.676-6-6v-2-68-2c0-.334721.04135-.6507.09375-.96875.0487-.295596.09704-.596915.1875-.875.00988-.03038.020892-.0636.03125-.09375.098865-.287771.2348802-.547452.375-.8125.1445918-.273507.3156161-.535615.5-.78125s.3737765-.473472.59375-.6875c.439947-.428056.94291-.814526 1.5-1.09375.278545-.139612.5734731-.246947.875-.34375-.2562018.100222-.4867109.236272-.71875.375-.00741.0044-.023866-.0045-.03125 0-.031933.0193-.062293.04251-.09375.0625-.120395.0767-.2310226.163513-.34375.25-.1061728.0808-.2132809.161112-.3125.25-.1779299.161433-.3474596.345388-.5.53125-.1075789.130255-.2183939.265285-.3125.40625-.025089.03838-.038446.08587-.0625.125-.064763.103032-.1302275.204517-.1875.3125-.1010083.194706-.2056748.415701-.28125.625-.00796.02181-.023589.04055-.03125.0625-.0318251.09195-.0358045.186831-.0625.28125-.0303323.106618-.0703894.203031-.09375.3125-.0728786.341512-.125.698205-.125 1.0625v2 68 2c0 2.781848 2.2181517 5 5 5h2 68 2c2.781848 0 5-2.218152 5-5v-2-68-2c0-.364295-.05212-.720988-.125-1.0625-.04415-.206893-.08838-.397658-.15625-.59375-.0077-.02195-.0233-.04069-.03125-.0625-.06274-.173739-.138383-.367449-.21875-.53125-.04158-.0828-.07904-.169954-.125-.25-.0546-.09721-.126774-.18835-.1875-.28125-.09411-.140965-.204921-.275995-.3125-.40625-.143174-.17445-.303141-.346998-.46875-.5-.01117-.0102-.01998-.02115-.03125-.03125-.138386-.125556-.285091-.234436-.4375-.34375-.102571-.07315-.204318-.153364-.3125-.21875-.0074-.0045-.02384.0044-.03125 0-.232039-.138728-.462548-.274778-.71875-.375.301527.0968.596455.204138.875.34375.55709.279224 1.060053.665694 1.5 1.09375.219973.214028.409366.441865.59375.6875s.355408.507743.5.78125c.14012.265048.276135.524729.375.8125.01041.03078.02133.06274.03125.09375.09046.278085.1388.579404.1875.875.0524.31805.09375.634029.09375.96875v2 68 2c0 3.324-2.676 6-6 6z" fill="url(#c)" opacity=".2"/><path d="m59.828551 82.57745c-.64503-.22943-1.07266-.503-1.7491-1.11899-1.21094-1.10273-2.81683-3.01191-4.51995-5.37364-.6978-.96762-2.14252-3.11913-2.71395-4.04166l-.35192-.56814-.32422.20763c-1.97428 1.26428-4.37403 2.27664-6.27537 2.64732-2.2792.44435-3.86966.12749-4.76308-.94893-.20033-.24136-.35722-.53614-.51309-.96407-.13146-.36091-.11999-1.30515.0233-1.91894.17868-.7653.52749-1.73962.8258-2.30666l.28163-.53532-.97827.48817c-4.41352 2.20238-8.44409 2.91479-11.01005 1.94605-1.54325-.58263-2.58058-1.89305-2.88376-3.64296-.0856-.49393-.0978-1.61365-.0252-2.31337.39591-3.81712 2.64114-9.16891 6.13269-14.61801.43149-.67341.48009-.77122.43683-.87921-.0268-.0668-.23462-.5806-.46189-1.14171-1.56493-3.86376-2.57086-7.49753-2.87551-10.38739-.0361-.34246-.0733-.62999-.0826-.63897-.0398-.0382-1.46836-.12219-2.59178-.15238-2.46471-.0662-6.42248.19844-9.15748.6124-.94437.14293-1.96335.3339-2.35519.44139-.36196.0993-.60824.11979-.60824.0506 0-.1324 1.04593-.89497 1.43313-1.04487.40335-.15615 2.07924-.5407 3.49782-.8026 2.77775-.51283 5.63515-.81429 8.61095-.90844l1.03234-.0327.00025-.63706c.00073-2.07417.31274-4.60351.75695-6.13639.40978-1.41408.92422-2.38512 1.64073-3.09702.94722-.94112 2.22432-1.16939 3.35503-.59969.93256.46987 2.03693 1.6305 2.79529 2.9377.11737.20233.19978.30152.21388.25745.0126-.0394.0363-.44049.0525-.89123.0881-2.43993.59797-5.21525 1.31314-7.14773.25824-.6978.74523-1.67569 1.10079-2.21042.35749-.53764 1.19767-1.40915 1.60817-1.66816.84247-.53155 1.48586-.72148 2.46619-.72799.86536-.006 1.50023.13648 2.36884.53068 3.27517 1.48639 7.20446 6.26662 10.85831 13.20982l.61396 1.16668.88881.11123c3.95818.49532 8.04774 1.52163 10.91717 2.73977l.70084.29752.12652-.15155c.27333-.32741 1.55372-2.53933 2.47784-4.28056.57999-1.09282 1.84491-3.64054 2.20959-4.45042.71891-1.59653 1.27614-3.09775 1.46061-3.93505l.0856-.38864.0769.19432c.12452.31464.10357 1.6208-.035 2.18298-.44253 1.79507-2.27172 6.52957-3.19201 8.26189-.24127.45417-1.57544 3.20938-1.57544 3.25347 0 .011.21315.14422.47366.29596 1.87526 1.09228 3.41161 2.24579 4.63973 3.48359 2.50071 2.52041 3.0366 5.08551 1.32638 6.34892-.85394.63084-2.11983.97866-3.83883 1.05474-.5534.0245-.70625.0448-.64056.0849.90027.54985 2.50107 1.70704 3.4078 2.46344.73536.61343 1.92144 1.79131 2.48836 2.47113 2.20225 2.64084 2.84354 5.18251 1.78513 7.07512-1.41642 2.53281-5.9002 4.13416-12.70226 4.53654-.49757.0294-2.31279.0519-4.06656.0503l-3.16781-.003-.3756.49837c-2.72054 3.60977-5.73148 6.68268-8.12457 8.29179l-.44476.29905.11723.20458c.0645.11253.26472.47785.44498.81185 2.21282 4.09994 5.06103 8.332 7.23385 10.7485.25827.28724.46299.52178.45493.52122-.008-.00058-.15675-.0516-.33043-.11334zm-15.36937-12.5692c.88612-.12325 2.0988-.52996 3.24846-1.08949.40079-.19506.7697-.38578.81979-.42382.0863-.0655.0228-.19662-1.2087-2.49442-.71488-1.33389-1.31777-2.445-1.33976-2.46913-.0234-.0257-.0791-.0156-.13415.0243-.63124.45689-2.18969 1.54886-2.80094 1.96255-.42751.28934-.82873.57173-.89158.62753-.14549.12914-.50323.83731-.67048 1.32725-.17802.52148-.18703 1.10185-.0223 1.43546.45058.91234 1.52227 1.30526 2.99963 1.09978zm6.61688-3.06928c2.54259-1.69731 5.8287-4.68296 7.95971-7.23192 2.90225-3.47145 4.77252-7.00596 5.52368-10.43884.24169-1.10456.35999-2.03647.38188-3.00845l.0125-.55512-.70443-.38435c-5.22508-2.85096-12.87908-5.50575-20.48895-7.10659l-.8866-.18651.00004-.5614c.00004-.6135.0687-1.47194.15261-1.90713.0505-.26206.0602-.2758.18112-.25546.0703.0118.45566.0669.85646.12236 5.84945.80977 13.44249 2.67958 18.47493 4.54952.5422.20147.99892.35322 1.01493.33721.0406-.0406-.51098-1.14518-.79195-1.58611-.91017-1.42837-2.3824-2.97508-4.04844-4.25327-.17238-.13225-.34727-.26731-.38865-.30014-.10133-.0804.35053.0497.82352.23714 1.55355.61556 3.21726 2.07775 4.6917 4.12338.18069.2507.44239.63715.58154.85878.18613.29646.2658.38691.3014.3422.20015-.25129 2.927-4.08227 2.927-4.11216 0-.0587-1.36557-.67871-2.50191-1.13596-3.86082-1.55354-7.88919-2.52366-11.85372-2.85463-1.6545-.13812-3.83864-.13733-4.89805.002-2.14171.28121-4.23255.9091-6.2468 1.87594l-.74856.35931.0306 1.12928c.0361 1.33372.0985 2.29665.23059 3.55832.50365 4.81038 1.92328 11.05865 3.93904 17.33698.18761.58433.32294 1.07841.30073 1.09797-.0555.0489-2.32349 1.02166-2.38192 1.02166-.0258 0-.2128-.35525-.41548-.78944-2.03575-4.36113-3.75261-10.14999-5.21933-17.5984-.17889-.90846-.3335-1.66235-.34358-1.67531-.0653-.084-.86335 1.17653-1.27596 2.01538-.74876 1.52228-1.22503 3.29504-1.35554 5.04558-.0256.34361-.0566.63473-.0688.64695-.0371.0371-.12433-.27989-.17629-.64013-.027-.18703-.0631-.76636-.0802-1.28739-.0248-.75392-.0149-1.05643.0485-1.48171.1898-1.27203.66586-2.681 1.465-4.33584.22257-.46091.38981-.83791.37162-.83777-.0182.00015-1.17775-.11037-2.57683-.24557s-2.54894-.23915-2.55525-.23101c-.0464.06.21918 2.22295.41641 3.39118 1.10857 6.56631 3.39128 12.2602 6.4077 15.98309 1.33254 1.64463 2.76571 2.9141 4.37856 3.87843.23082.13802.44284.25094.47114.25094.14695 0 2.37422-1.43214 3.648-2.34567 1.93455-1.38743 4.1761-3.22619 6.34328-5.20346 2.4088-2.19771 5.37504-5.19834 7.06469-7.14657.27808-.32063.53063-.61082.56122-.64485.0442-.0491.14527-.006.48997.20979.44404.27775 1.65737 1.17343 1.76459 1.30262.0494.0595-.0545.21937-.60909.93803-3.31092 4.29032-7.29022 8.47074-12.51914 13.1519l-1.3084 1.17134.26197.0405c.38043.0588 2.10965.004 2.7844-.0884 1.43927-.19677 3.1093-.66133 4.47005-1.24345l.44039-.1884-.27386.25901c-1.08907 1.03001-2.87949 1.80787-4.97286 2.16049-.55663.0938-1.73385.19189-2.58269.21527l-.39655.0109.40202.89874c.66014 1.47578 1.62917 3.41753 1.83622 3.67947.0552.0699.0152.0905.66018-.34005zm-16.3395-3.7772c1.94682-.1382 3.74718-.67265 5.63537-1.6729.82772-.43847.99506-.53332.99551-.56424.00024-.015-.19089-.13339-.42468-.26309-1.20938-.67091-2.30475-1.53084-3.58479-2.81428-1.6567-1.6611-3.00545-3.48143-4.22323-5.69984l-.29958-.54575-.41795.81294c-1.0333 2.00981-1.87503 4.26792-2.16825 5.81676-.42251 2.23181-.0915 3.62017 1.04245 4.37286.34124.22651.91293.43528 1.38047.50413.20039.0295.419.0617.4858.0715.24829.0364.91901.0288 1.57888-.0181zm29.24565-4.56686c4.55729-.26739 7.69037-1.34988 8.58841-2.96732.27796-.50062.34259-.79842.31473-1.45027-.0206-.48106-.0501-.63931-.20698-1.10912-.5703-1.70777-2.25462-3.66902-4.75417-5.53586-.6795-.5075-1.36452-.98465-1.41359-.98465-.0146 0-.0266.21315-.0267.47366-.00048.99489-.1922 2.56121-.46547 3.80145-.55121 2.50163-1.69825 5.21595-3.07946 7.28712-.15146.22712-.29151.44027-.31122.47367-.0448.0759.21688.0781 1.35444.0113zm8.01583-15.30541c.83112-.0852 1.41276-.50419 1.61403-1.16267.10411-.34061.10215-.95868-.004-1.31378-.32567-1.08776-1.66801-2.50379-3.64758-3.84783-.2657-.18041-.50894-.32802-.54053-.32802-.0316 0-.18385.21315-.33838.47367-.3817.64348-1.33937 2.17257-2.05808 3.28611-.32581.50479-.59681.93689-.60223.96023-.005.0233.31808.18908.71887.3683.40079.17923 1.31897.62434 2.0404.98914l1.31168.66327.53439-.0218c.29391-.012.73114-.042.97161-.0666zm-35.00247-8.64266c0-.0526-.0538-.7358-.11955-1.51815-.0658-.78234-.14124-1.75709-.16776-2.16611-.0542-.83541-.10704-1.00048-.5156-1.60944-.52179-.77771-1.25198-1.28788-1.84577-1.2896-.81925-.002-1.72449.87315-2.26107 2.18684-.4145 1.01483-.67689 2.49701-.67701 3.82418-.00003.45766.004.4738.10927.47762.0601.002 1.04935.0429 2.19828.0904 1.14894.0476 2.35678.0895 2.68409.0932.562.006.59512.001.59512-.089zm5.07213-2.8628c1.98557-1.05574 4.29274-1.77586 6.85446-2.13943 1.25782-.17851 1.64532-.20581 3.29135-.23188.90178-.0143 1.6396-.0386 1.6396-.054 0-.0451-.56626-.90146-1.0658-1.61178-1.04165-1.48115-1.93178-2.5655-2.89144-3.52232-1.05504-1.05191-2.07401-1.74252-2.86643-1.94273-.76197-.19252-1.64.007-2.36137.5365-.32407.23789-.9153.87773-1.17427 1.27082-1.03813 1.57578-1.79575 4.2541-1.95539 6.91265-.0152.25383-.0397.59815-.0544.76515-.0147.16699-.0106.30363.009.30363.0197 0 .27827-.12896.57469-.28657z" fill="#008dff" stroke-width=".048581"/></svg>