<svg height="96" width="96" xmlns="http://www.w3.org/2000/svg" xmlns:xlink="http://www.w3.org/1999/xlink"><linearGradient id="a"><stop offset="0" stop-color="#fefefe"/><stop offset="1" stop-color="#fefefe" stop-opacity="0"/></linearGradient><linearGradient id="b" gradientUnits="userSpaceOnUse" x1="36.357143" x2="36.357143" xlink:href="#a" y1="6" y2="63.893143"/><radialGradient id="c" cx="48" cy="90.171875" gradientTransform="matrix(1.1573129 0 0 .99590774 -7.551021 .197132)" gradientUnits="userSpaceOnUse" r="42" xlink:href="#a"/><linearGradient id="d" gradientUnits="userSpaceOnUse" x1="48" x2="48" y1="90" y2="5.987717"><stop offset="0" stop-color="#bf1313"/><stop offset="1" stop-color="#ff5b35"/></linearGradient><linearGradient id="e" gradientTransform="matrix(1.0058652 0 0 .994169 100 0)" gradientUnits="userSpaceOnUse" x1="45.447727" x2="45.447727" y1="92.539597" y2="7.01654"><stop offset="0"/><stop offset="1" stop-opacity=".588235"/></linearGradient><linearGradient id="f" gradientTransform="matrix(1.0238095 0 0 -1.0119048 -1.142857 98.071429)" gradientUnits="userSpaceOnUse" x1="32.251034" x2="32.251034" xlink:href="#e" y1="6.131708" y2="90.238609"/><linearGradient id="g" gradientTransform="matrix(1.0238095 0 0 1.0119048 -1.142857 -98.071429)" gradientUnits="userSpaceOnUse" x1="32.251034" x2="32.251034" xlink:href="#e" y1="6.131708" y2="90.238609"/><linearGradient id="h" gradientTransform="translate(0 -97)" gradientUnits="userSpaceOnUse" x1="32.251034" x2="32.251034" xlink:href="#e" y1="6.131708" y2="90.238609"/><linearGradient id="i" gradientTransform="matrix(.29837204 0 0 .29684839 23.108259 9.209407)" gradientUnits="userSpaceOnUse" x1="60.486027" x2="110.94" y1="169.5625" y2="159.17"><stop offset="0" stop-color="#ffb87d"/><stop offset="1" stop-color="#ffcb8b"/></linearGradient><linearGradient id="j" gradientTransform="matrix(.29837204 0 0 .29684839 23.278719 9.664657)" gradientUnits="userSpaceOnUse" x1="163.86353" x2="106.38776" y1="21.589359" y2="167.39952"><stop offset="0" stop-color="#5d5d5d"/><stop offset="1" stop-color="#212121"/></linearGradient><linearGradient id="k" gradientUnits="userSpaceOnUse" x1="69.057976" x2="54.77459" xlink:href="#a" y1="6.175928" y2="56.861904"/><linearGradient id="l" gradientUnits="userSpaceOnUse" x1="58.472698" x2="64.34137" y1="63.78336" y2="66.585457"><stop offset="0"/><stop offset="1" stop-color="#fefefe" stop-opacity="0"/></linearGradient><linearGradient id="m" gradientUnits="userSpaceOnUse" x1="46.810825" x2="79.899368" y1="74.620186" y2="51.804909"><stop offset="0"/><stop offset="1" stop-opacity="0"/></linearGradient><g fill="url(#f)"><path d="m12 95.03125c-5.5110903 0-10.03125-4.52016-10.03125-10.03125v-71c0-5.5110902 4.5201598-10.03125 10.03125-10.03125h72c5.51109 0 10.03125 4.5201597 10.03125 10.03125v71c0 5.51109-4.52016 10.03125-10.03125 10.03125z" opacity=".08"/><path d="m12 94.03125c-4.971633 0-9.03125-4.059617-9.03125-9.03125v-71c0-4.9716329 4.0596171-9.03125 9.03125-9.03125h72c4.971633 0 9.03125 4.059617 9.03125 9.03125v71c0 4.971633-4.059617 9.03125-9.03125 9.03125z" opacity=".1"/><path d="m12 93c-4.4091333 0-8-3.590867-8-8v-71c0-4.4091333 3.5908667-8 8-8h72c4.409133 0 8 3.5908667 8 8v71c0 4.409133-3.590867 8-8 8z" opacity=".2"/></g><rect fill="url(#g)" height="85" opacity=".3" rx="7" transform="scale(1 -1)" width="86" x="5" y="-92"/><rect fill="url(#h)" height="84" opacity=".45" rx="6" transform="scale(1 -1)" width="84" x="6" y="-91"/><rect fill="url(#d)" height="84" rx="6" width="84" x="6" y="6"/><path d="m88.187374 44.162219c.133069 1.473861-3.131902-2.998554-3.131902-2.998554l-9.323441 9.626512-9.009547-4.267341-1.178662 10.783422-.112651.170288.01149-.0886-3.48602 1.770265-2.413629 1.064687-2.139449.587127-2.256675.35974-2.221953-.01236-1.171661-.248261-.241424.197563-.506739.64187-.733743 1.157807-1.124512 1.983457-.742648 1.544517-.79751 2.292053-.329722 1.003079.09333.474131 1.397208 1.089744-1.918844.545122-.288185.293677-.269656 1.226559-.09666 1.369412c-.08808 1.73079 2.551744.316836 2.551744.316836s.02561-.151551-.447456.414376l-.175728-.203864 1.310148-.295266.354483.981419-1.040051-.693231 1.605377.249409c.977814.712435.435181 2.522618 2.132017 1.722376l1.444779-.640153 3.173162-.744321 1.578813-1.083652 2.998246-2.256497 2.408965-1.858518 1.257496-.99793.05504.04478.143035-.126404c5.644984-3.720567 14.238397-7.245521 18.453398-11.718323.611599-.649006-3.83641-4.104572-3.18689-4.659728l7.624215-6.913268z" fill="url(#m)" opacity=".5"/><path d="m12 6c-3.324 0-6 2.676-6 6v2 68 2c0 .334721.04135.6507.09375.96875.0487.295596.09704.596915.1875.875.00988.03038.020892.0636.03125.09375.098865.287771.2348802.547452.375.8125.1445918.273507.3156161.535615.5.78125s.3737765.473472.59375.6875c.439947.428056.94291.814526 1.5 1.09375.278545.139612.5734731.246947.875.34375-.2562018-.100222-.4867109-.236272-.71875-.375-.00741-.0044-.023866.0045-.03125 0-.031933-.0193-.062293-.04251-.09375-.0625-.120395-.0767-.2310226-.163513-.34375-.25-.1061728-.0808-.2132809-.161112-.3125-.25-.1779299-.161433-.3474596-.345388-.5-.53125-.1075789-.130255-.2183939-.265285-.3125-.40625-.025089-.03838-.038446-.08587-.0625-.125-.064763-.103032-.1302275-.204517-.1875-.3125-.1010083-.194706-.2056748-.415701-.28125-.625-.00796-.02181-.023589-.04055-.03125-.0625-.0318251-.09195-.0358045-.186831-.0625-.28125-.0303323-.106618-.0703894-.203031-.09375-.3125-.0728786-.341512-.125-.698205-.125-1.0625v-2-68-2c0-2.781848 2.2181517-5 5-5h2 68 2c2.781848 0 5 2.218152 5 5v2 68 2c0 .364295-.05212.720988-.125 1.0625-.04415.206893-.08838.397658-.15625.59375-.0077.02195-.0233.04069-.03125.0625-.06274.173739-.138383.367449-.21875.53125-.04158.0828-.07904.169954-.125.25-.0546.09721-.126774.18835-.1875.28125-.09411.140965-.204921.275995-.3125.40625-.143174.17445-.303141.346998-.46875.5-.01117.0102-.01998.02115-.03125.03125-.138386.125556-.285091.234436-.4375.34375-.102571.07315-.204318.153364-.3125.21875-.0074.0045-.02384-.0044-.03125 0-.232039.138728-.462548.274778-.71875.375.301527-.0968.596455-.204138.875-.34375.55709-.279224 1.060053-.665694 1.5-1.09375.219973-.214028.409366-.441865.59375-.6875s.355408-.507743.5-.78125c.14012-.265048.276135-.524729.375-.8125.01041-.03078.02133-.06274.03125-.09375.09046-.278085.1388-.579404.1875-.875.0524-.31805.09375-.634029.09375-.96875v-2-68-2c0-3.324-2.676-6-6-6z" fill="url(#b)" opacity=".35"/><path d="m12 90c-3.324 0-6-2.676-6-6v-2-68-2c0-.334721.04135-.6507.09375-.96875.0487-.295596.09704-.596915.1875-.875.00988-.03038.020892-.0636.03125-.09375.098865-.287771.2348802-.547452.375-.8125.1445918-.273507.3156161-.535615.5-.78125s.3737765-.473472.59375-.6875c.439947-.428056.94291-.814526 1.5-1.09375.278545-.139612.5734731-.246947.875-.34375-.2562018.100222-.4867109.236272-.71875.375-.00741.0044-.023866-.0045-.03125 0-.031933.0193-.062293.04251-.09375.0625-.120395.0767-.2310226.163513-.34375.25-.1061728.0808-.2132809.161112-.3125.25-.1779299.161433-.3474596.345388-.5.53125-.1075789.130255-.2183939.265285-.3125.40625-.025089.03838-.038446.08587-.0625.125-.064763.103032-.1302275.204517-.1875.3125-.1010083.194706-.2056748.415701-.28125.625-.00796.02181-.023589.04055-.03125.0625-.0318251.09195-.0358045.186831-.0625.28125-.0303323.106618-.0703894.203031-.09375.3125-.0728786.341512-.125.698205-.125 1.0625v2 68 2c0 2.781848 2.2181517 5 5 5h2 68 2c2.781848 0 5-2.218152 5-5v-2-68-2c0-.364295-.05212-.720988-.125-1.0625-.04415-.206893-.08838-.397658-.15625-.59375-.0077-.02195-.0233-.04069-.03125-.0625-.06274-.173739-.138383-.367449-.21875-.53125-.04158-.0828-.07904-.169954-.125-.25-.0546-.09721-.126774-.18835-.1875-.28125-.09411-.140965-.204921-.275995-.3125-.40625-.143174-.17445-.303141-.346998-.46875-.5-.01117-.0102-.01998-.02115-.03125-.03125-.138386-.125556-.285091-.234436-.4375-.34375-.102571-.07315-.204318-.153364-.3125-.21875-.0074-.0045-.02384.0044-.03125 0-.232039-.138728-.462548-.274778-.71875-.375.301527.0968.596455.204138.875.34375.55709.279224 1.060053.665694 1.5 1.09375.219973.214028.409366.441865.59375.6875s.355408.507743.5.78125c.14012.265048.276135.524729.375.8125.01041.03078.02133.06274.03125.09375.09046.278085.1388.579404.1875.875.0524.31805.09375.634029.09375.96875v2 68 2c0 3.324-2.676 6-6 6z" fill="url(#c)" opacity=".2"/><path d="m70.460938 16.005859c-.152702-.0078-.305795-.0056-.458985.0059-1.470232.109797-2.824239 1.053394-3.730469 2.49414a2.0002 2.0002 0 0 0 -.07227.123047l-2.97461 5.578125a2.0002 2.0002 0 0 0 -.05664.117188l-2.556641 5.65039-3.125 6.169922a2.0002 2.0002 0 0 0 -.05664.121094l-1.39648 3.275351-.574219-.240235-3.472656-1.488281a2.0002 2.0002 0 0 0 -.789062-.162109h-.851563a2.0002 2.0002 0 0 0 -.539062.07422l-.726563.203125a2.0002 2.0002 0 0 0 -1.048828.710938l-1.171875 1.53125a2.0002 2.0002 0 0 0 -.0039.0039l-3.398438 4.464844a2.0002 2.0002 0 0 0 -.18164.289062l-3.449219 3.914063-2.685547 2.597656-2.957031 1.974609-3.634766 1.904297-4.21289 1.558594-2.666016.617188a2.0002 2.0002 0 0 0 -1.445313 1.314453l-.121093.361328a2.0002 2.0002 0 0 0 -.07617.960937l.160156.966797a2.0002 2.0002 0 0 0 .117188.421875l.648437 1.609375a2.0002 2.0002 0 0 0 .07813.169922l1.375 2.658203a2.0002 2.0002 0 0 0 .121094.205078l1.335937 1.970703a2.0002 2.0002 0 0 0 .212891.261719l2.589844 2.697266a2.0002 2.0002 0 0 0 .0332.0332l1.171875 1.166016a2.0002 2.0002 0 0 0 .753896.47071l1.050781.365234a2.0002 2.0002 0 0 0 .582031.109375l-.01758.214844a2.0002 2.0002 0 0 0 .763672 1.736328l1.699219 1.326172a2.0002 2.0002 0 0 0 .232422.15625l2.304687 1.328125a2.0002 2.0002 0 0 0 .02734.01758c1.149485.637499 2.317561.749864 3.386719.619141a2.0002 2.0002 0 0 0 1.894537 1.365232h2.832031a2.0002 2.0002 0 0 0 .316407-.02539l1.496093-.240234a2.0002 2.0002 0 0 0 .191407-.04102 2.0002 2.0002 0 0 0 .599609.103516l3.078125.03906a2.0002 2.0002 0 0 0 .07227 0c3.994065-.09356 6.706566-2.469095 8.714843-4.556641a2.0002 2.0002 0 0 0 .08008-.08984l2.023437-2.375a2.0002 2.0002 0 0 0 .144526-.189451l1.578125-2.375a2.0002 2.0002 0 0 0 .09375-.158203l1.171875-2.171875a2.0002 2.0002 0 0 0 .07617-.154297l1.863281-4.306641a2.0002 2.0002 0 0 0 .01953-.04687l1.414062-3.501953a2.0002 2.0002 0 0 0 .01953-.05273l.203125-.548828h-1.199218a2.0002 2.0002 0 0 0 1.941406-1.523438l.05469-.222656a2.0002 2.0002 0 0 0 .0332-.154297l.742187-4.554687.609375-3.679688a2.0002 2.0002 0 0 0 .02148-.171875l.06055-.787109a2.0002 2.0002 0 0 0 -.234375-1.103516l-.445312-.826172a2.0002 2.0002 0 0 0 -.929688-.871094l-2.996094-1.367187a2.0002 2.0002 0 0 0 -.04297-.01758l-1.152335-.494148 1.214844-2.998047 1.595703-3.865234a2.0002 2.0002 0 0 0 .01953-.04883l1.992188-5.207031 1.535156-3.675782a2.0002 2.0002 0 0 0 .01172-.03125l1.314453-3.298828a2.0002 2.0002 0 0 0 .03711-.09961l1.080078-3.197266a2.0002 2.0002 0 0 0 .03516-.117187c.3376-1.246667.12839-2.595751-.619141-3.56836-.654089-.851032-1.686951-1.367501-2.755859-1.421875zm-.310547 2c1.202155-.08978 2.159937.974137 1.755859 2.466797l-1.080078 3.197266-1.314453 3.298828-1.546875 3.705078-2.001953 5.234375-1.59961 3.871094-1.777343 4.384765-.142579.226563.121094.05273 1.0625.679688 1.738281.744141 2.996094 1.367187.445313.826172-.06055.787109-.609375 3.681641-.744141 4.556641-.05469.222656h-.191407l-.6875 1.853515-1.414062 3.501953-1.863281 4.306641-1.171875 2.171875-1.578125 2.375-2.023438 2.375c-1.924059 2.000002-4.071258 3.867241-7.320312 3.94336l-3.078125-.03906.566406-.884766-1.699219.847657-1.496088.240235h-2.832031c-.08879-.872022 1.355469-3.347656 1.355469-3.347656s-2.685156 3.26645-5.666016 1.613281l-2.304687-1.328125-1.699219-1.326172.03906-.484375 2.832031-1.931641-4.773438.04297-1.050781-.365234-1.171875-1.166016-2.589844-2.697265-1.335937-1.970704-1.375-2.658203-.648435-1.609376-.160156-.966796.121094-.361329 2.789062-.646484 4.453125-1.646484 3.84375-2.013672 3.195313-2.134766 2.871094-2.777344 3.722656-4.224609.138672.08984-.08594-.240235 3.398438-4.464843 1.171875-1.53125.726562-.203125h.851563l3.480468 1.492187 2.416016 1.011719 2.175781-5.105469 3.146485-6.208984 2.574218-5.691406 2.97461-5.578126c.655174-1.041615 1.464253-1.510586 2.185547-1.564453z" opacity=".1"/><path d="m70.076172 17.007812c-1.095757.08184-2.17633.788115-2.957031 2.029297l-.01953.03125-3.007812 5.638672-2.578125 5.701172-3.150391 6.21875-1.800781 4.220703-1.494141-.625-3.666015-1.572265h-1.19336l-1.18164.330078-1.375 1.796875-3.728516 4.898437.0078.01953-3.382813 3.837891-2.777344 2.6875-3.076172 2.054688-3.738281 1.958984-4.333984 1.603516-3.271485.757812-.378906 1.126953.21875 1.320313.707032 1.755859 1.423828 2.751953 1.417968 2.089844 2.65625 2.767578 1.341797 1.333985 1.429688.498046 1.652343-.01563-.505859.345703-.121094 1.498047 2.179688 1.701172 2.373047 1.367188.0078.0039c1.432952.794707 2.792045.567294 3.939453.136719-.06978.255999-.17283.48886-.138671.824218l.089866.89845h3.816407l1.359374-.21875 4.273438.05469h.01758c3.621561-.08484 6.051409-2.206226 8.017578-4.25l.02148-.02148 2.082031-2.443359 1.634766-2.462891 1.214843-2.25 1.884766-4.357422 1.423828-3.527343.451172-1.214844h.279297l.251953-1.023438.75-4.59375.617187-3.722656.08594-1.125-.744141-1.378906-3.3125-1.511719-1.673828-.716797-.365234-.234375 1.558593-3.84375 1.603516-3.880859 2-5.232422 1.544922-3.699219 1.328125-3.330078 1.097656-3.251953.0078-.0293c.26977-.996532.0961-1.990292-.447266-2.697266-.543113-.707007-1.434358-1.097502-2.347656-1.029297zm.07422.998047c1.202155-.08978 2.159937.974137 1.755859 2.466797l-1.080078 3.197266-1.314453 3.298828-1.546875 3.705078-2.001953 5.234375-1.59961 3.871094-1.777343 4.384765-.142579.226563.121094.05273 1.0625.679688 1.738281.744141 2.996094 1.367187.445313.826172-.06055.787109-.609375 3.681641-.744141 4.556641-.05469.222656h-.191407l-.6875 1.853515-1.414062 3.501953-1.863281 4.306641-1.171875 2.171875-1.578125 2.375-2.023438 2.375c-1.924059 2.000002-4.071258 3.867239-7.320312 3.94336l-3.078125-.03906.566406-.884766-1.699219.847657-1.496089.240235h-2.832031c-.08879-.872022 1.355469-3.347656 1.355469-3.347656s-2.685156 3.26645-5.666016 1.613281l-2.304687-1.328125-1.699219-1.326172.03906-.484375 2.832031-1.931641-4.773438.04297-1.050781-.365234-1.171875-1.166016-2.589844-2.697265-1.335937-1.970704-1.375-2.658203-.648435-1.609376-.160156-.966796.121094-.361329 2.789062-.646484 4.453125-1.646484 3.84375-2.013672 3.195313-2.134766 2.871094-2.777344 3.722656-4.224609.138672.08984-.08594-.240235 3.398438-4.464843 1.171875-1.53125.726562-.203125h.851563l3.480468 1.492187 2.416016 1.011719 2.175781-5.105469 3.146485-6.208984 2.574218-5.691406 2.97461-5.578126c.655174-1.041615 1.464253-1.510583 2.185547-1.564453z" opacity=".15"/><path d="m70.150286 19.00586c-.721294.05387-1.530373.522838-2.185547 1.564453l-2.97461 5.578126-2.574218 5.691406-3.146485 6.208984-2.175781 5.105469-2.416016-1.011719-3.480468-1.492187h-.851563l-.726562.203125-1.171875 1.53125-3.398438 4.464843.08594.240235-.138674-.08984-3.722656 4.224609-2.871094 2.777344-3.195313 2.134766-3.84375 2.013672-4.453125 1.646484-2.789062.646484-.121094.361329.160156.966796.648438 1.609375 1.375 2.658203 1.335937 1.970704 2.589844 2.697265 1.171875 1.166016 1.050781.365234 4.773438-.04297-2.832031 1.931641-.03906.484375 1.699219 1.326172 2.304687 1.328125c2.98086 1.653169 5.666016-1.613281 5.666016-1.613281s-1.444263 2.475634-1.355469 3.347656h2.832031l1.496094-.240234 1.699219-.847657-.566406.884766 3.078125.03906c3.249054-.07612 5.396253-1.943358 7.320312-3.94336l2.023438-2.375 1.578125-2.375 1.171875-2.171875 1.863281-4.306641 1.414062-3.501953.6875-1.853515h.191407l.05469-.222656.744141-4.556641.609375-3.681641.06055-.787109-.445313-.826172-2.996094-1.367187-1.738281-.744141-1.0625-.679688-.121094-.05273.142579-.226563 1.777343-4.384765 1.59961-3.871094 2.001953-5.234375 1.546875-3.705078 1.314453-3.298828 1.080078-3.197266c.404078-1.49266-.553704-2.556574-1.755859-2.466797z" opacity=".3"/><path d="m44.996244 45.999712-3.722768 4.224262-2.870984 2.778891-3.195266 2.133639-3.843833 2.013193-4.453485 1.647548-2.788833.645255-.121071.361341.159989.96788.648564 1.608833 1.37496 2.658445 1.336046 1.970174 2.589939 2.697163 1.171742 1.165758 1.050676.365643 4.773444-.04301-2.832071 1.931459-.03892.486091 1.699242 1.324922 2.304571 1.329221c2.98086 1.653169 5.665192-1.61418 5.665192-1.61418s-1.443188 2.475741-1.354394 3.347764h2.832071l1.496024-.240895 1.699244-.847434-.566415.886149 3.078525.03872c3.249054-.07612 5.396086-1.94465 7.320146-3.944652l2.023523-2.374534 1.578178-2.374534 1.171742-2.172354 1.863546-4.305993 1.413871-3.501578.851784-2.297102-7.484445-1.247497-.246455.27961.142677-.27961-6.230554-4.267278-3.238505-2.013191-2.953135-1.849728z" fill="url(#i)"/><path d="m67.964117 19.570116-2.974755 5.579295-2.572643 5.691138-3.147705 6.207342-2.174858 5.106108-2.416988-1.010897-3.480637-1.492688h-.851781l-.726394.202186-1.171742 1.531403-3.398484 4.465155.159989.443074.363198.524808 2.507786 1.488385 3.156353 1.93146c3.80682 2.307345 6.019174 5.323059 10.126908 6.480527l5.114358.591651h.860431l.05621-.223689.743688-4.555491.609652-3.682248.06052-.78721-.445347-.825925-2.996374-1.367938-1.738156-.744194-1.063648-.679665-.121071-.05163.142678-.227989 1.777071-4.383425 1.599795-3.871521 2.001906-5.235159 1.547911-3.703757 1.314426-3.299398 1.079679-3.197314c.646525-2.388256-2.194846-3.680039-3.941978-.902398z" fill="url(#j)"/><path d="m70.150391 18.005859c-.721294.053867-1.530373.522838-2.185547 1.564453l-2.97461 5.578126-2.574218 5.691406-3.146485 6.208984-2.175781 5.105469-2.416016-1.011719-3.480468-1.492187h-.851563l-.726562.203125-1.171875 1.53125-3.398438 4.464843.160156.44336.363282.523437 2.507812 1.488282 3.15625 1.93164c3.80682 2.307345 6.019219 5.323001 10.126953 6.480469l5.113281.591797h.861329l.054687-.222656.744141-4.556641.609375-3.681641.060547-.787109-.445313-.826172-2.996094-1.367187-1.738281-.744141-1.0625-.679688-.121094-.052734.142579-.228516 1.777343-4.382812 1.59961-3.871094 2.001953-5.234375 1.546875-3.705078 1.314453-3.298828 1.080078-3.197266c.404078-1.49266-.553704-2.556574-1.755859-2.466797zm.060547.992188c.121487-.007345.228354.009259.314453.037109.343871.111231.626639.38272.416015 1.169922l-1.054687 3.119141-1.300781 3.267578-1.544922 3.695312a1.0001 1.0001 0 0 0 -.011719.029297l-1.996094 5.222656-1.595703 3.859376a1.0001 1.0001 0 0 0 -.001953.005859l-1.744141 4.302734-.095703.154297a1.0001 1.0001 0 0 0 .455078 1.449219l.044922.019531.994141.634766a1.0001 1.0001 0 0 0 .144531.076172l1.726563.740234 2.679687 1.222656.146484.273438-.033203.449218-.603515 3.640626a1.0001 1.0001 0 0 0 0 .001953l-.642579 3.935547-4.917968-.566407c-3.730768-1.070259-5.861711-3.945674-9.832032-6.353515l-.003906-.003907-3.152344-1.927734a1.0001 1.0001 0 0 0 -.011718-.007813l-2.320313-1.376953-.0625-.089843 3.035157-3.988282.966796-1.263672.271485-.076171h.509765l3.292969 1.412109a1.0001 1.0001 0 0 0 .007813.003906l2.417968 1.009766a1.0001 1.0001 0 0 0 1.304688-.53125l2.162109-5.074219 3.132813-6.177734a1.0001 1.0001 0 0 0 .019531-.041016l2.558594-5.660156 2.927734-5.492188c.528545-.837366 1.032023-1.079527 1.396485-1.101562z" fill="url(#k)" opacity=".2"/><path d="m65.365234 45.867188s-3.572352 7.165578-3.972656 10.613281c-4.760825 10.646836-12.816406 20.43164-12.816406 20.43164l-.566406.884766 3.078125.039063c3.249054-.076121 5.396252-1.943358 7.320312-3.94336l2.023438-2.375 1.578125-2.375 1.171875-2.171875 1.863281-4.306641 1.414062-3.501953.6875-1.853515h.191407l.054687-.222656.744141-4.556641.609375-3.681641.060547-.787109-.445313-.826172z" fill="url(#l)" opacity=".15"/><path d="m65.365234 45.867188s-3.572352 7.165578-3.972656 10.613281c-4.760825 10.646836-12.816406 20.43164-12.816406 20.43164l-.566406.884766 3.078125.039063c.041446-.000972.078051-.010169.11914-.011719l-2.207031-.027344.566406-.884766s8.055582-9.784804 12.816406-20.43164c.36869-3.175418 3.313971-9.262281 3.794922-10.242188z" opacity=".05"/></svg>