<svg height="96" width="96" xmlns="http://www.w3.org/2000/svg" xmlns:xlink="http://www.w3.org/1999/xlink"><linearGradient id="a"><stop offset="0" stop-color="#fefefe"/><stop offset="1" stop-color="#fefefe" stop-opacity="0"/></linearGradient><linearGradient id="b" gradientUnits="userSpaceOnUse" x1="36.357143" x2="36.357143" xlink:href="#a" y1="6" y2="63.893143"/><filter id="c" color-interpolation-filters="sRGB" height="1.384" width="1.384" x="-.192" y="-.192"><feGaussianBlur stdDeviation="5.28"/></filter><linearGradient id="d" gradientUnits="userSpaceOnUse" x1="48" x2="48" xlink:href="#a" y1="20.220806" y2="138.66119"/><radialGradient id="e" cx="48" cy="90.171875" gradientTransform="matrix(1.1573129 0 0 .99590774 -7.551021 .197132)" gradientUnits="userSpaceOnUse" r="42" xlink:href="#a"/><clipPath id="f"><rect height="84" rx="6" width="84" x="6" y="6"/></clipPath><linearGradient id="g" gradientUnits="userSpaceOnUse" x1="48" x2="48" y1="-6" y2="-90.012283"><stop offset="0" stop-color="#dad7ed"/><stop offset="1" stop-color="#9e99c2"/></linearGradient><linearGradient id="h" gradientTransform="matrix(1.0058652 0 0 .994169 100 0)" gradientUnits="userSpaceOnUse" x1="45.447727" x2="45.447727" y1="92.539597" y2="7.01654"><stop offset="0"/><stop offset="1" stop-opacity=".588235"/></linearGradient><linearGradient id="i" gradientTransform="matrix(1.0238095 0 0 1.0119048 -1.142857 -98.071429)" gradientUnits="userSpaceOnUse" x1="32.251034" x2="32.251034" xlink:href="#h" y1="6.131708" y2="90.238609"/><linearGradient id="j" gradientTransform="translate(0 -97)" gradientUnits="userSpaceOnUse" x1="32.251034" x2="32.251034" xlink:href="#h" y1="6.131708" y2="90.238609"/><linearGradient id="k" gradientUnits="userSpaceOnUse" x1="-128" x2="-67.417709" y1="64" y2="38.740906"><stop offset="0"/><stop offset="1" stop-color="#19007b" stop-opacity=".847059"/></linearGradient><g fill="url(#i)"><path d="m12-95.03125c-5.5110903 0-10.03125 4.52016-10.03125 10.03125v71c0 5.5110902 4.5201598 10.03125 10.03125 10.03125h72c5.51109 0 10.03125-4.5201597 10.03125-10.03125v-71c0-5.51109-4.52016-10.03125-10.03125-10.03125z" opacity=".08" transform="scale(1 -1)"/><path d="m12-94.03125c-4.971633 0-9.03125 4.059617-9.03125 9.03125v71c0 4.9716329 4.0596171 9.03125 9.03125 9.03125h72c4.971633 0 9.03125-4.059617 9.03125-9.03125v-71c0-4.971633-4.059617-9.03125-9.03125-9.03125z" opacity=".1" transform="scale(1 -1)"/><path d="m12-93c-4.4091333 0-8 3.590867-8 8v71c0 4.4091333 3.5908667 8 8 8h72c4.409133 0 8-3.5908667 8-8v-71c0-4.409133-3.590867-8-8-8z" opacity=".2" transform="scale(1 -1)"/><rect height="85" opacity=".3" rx="7" transform="scale(1 -1)" width="86" x="5" y="-92"/></g><rect fill="url(#j)" height="84" opacity=".45" rx="6" transform="scale(1 -1)" width="84" x="6" y="-91"/><rect fill="url(#g)" height="84" rx="6" transform="scale(1 -1)" width="84" x="6" y="-90"/><path d="m12 6c-3.324 0-6 2.676-6 6v2 68 2c0 .334721.04135.6507.09375.96875.0487.295596.09704.596915.1875.875.00988.03038.020892.0636.03125.09375.098865.287771.2348802.547452.375.8125.1445918.273507.3156161.535615.5.78125s.3737765.473472.59375.6875c.439947.428056.94291.814526 1.5 1.09375.278545.139612.5734731.246947.875.34375-.2562018-.100222-.4867109-.236272-.71875-.375-.00741-.0044-.023866.0045-.03125 0-.031933-.0193-.062293-.04251-.09375-.0625-.120395-.0767-.2310226-.163513-.34375-.25-.1061728-.0808-.2132809-.161112-.3125-.25-.1779299-.161433-.3474596-.345388-.5-.53125-.1075789-.130255-.2183939-.265285-.3125-.40625-.025089-.03838-.038446-.08587-.0625-.125-.064763-.103032-.1302275-.204517-.1875-.3125-.1010083-.194706-.2056748-.415701-.28125-.625-.00796-.02181-.023589-.04055-.03125-.0625-.0318251-.09195-.0358045-.186831-.0625-.28125-.0303323-.106618-.0703894-.203031-.09375-.3125-.0728786-.341512-.125-.698205-.125-1.0625v-2-68-2c0-2.781848 2.2181517-5 5-5h2 68 2c2.781848 0 5 2.218152 5 5v2 68 2c0 .364295-.05212.720988-.125 1.0625-.04415.206893-.08838.397658-.15625.59375-.0077.02195-.0233.04069-.03125.0625-.06274.173739-.138383.367449-.21875.53125-.04158.0828-.07904.169954-.125.25-.0546.09721-.126774.18835-.1875.28125-.09411.140965-.204921.275995-.3125.40625-.143174.17445-.303141.346998-.46875.5-.01117.0102-.01998.02115-.03125.03125-.138386.125556-.285091.234436-.4375.34375-.102571.07315-.204318.153364-.3125.21875-.0074.0045-.02384-.0044-.03125 0-.232039.138728-.462548.274778-.71875.375.301527-.0968.596455-.204138.875-.34375.55709-.279224 1.060053-.665694 1.5-1.09375.219973-.214028.409366-.441865.59375-.6875s.355408-.507743.5-.78125c.14012-.265048.276135-.524729.375-.8125.01041-.03078.02133-.06274.03125-.09375.09046-.278085.1388-.579404.1875-.875.0524-.31805.09375-.634029.09375-.96875v-2-68-2c0-3.324-2.676-6-6-6z" fill="url(#b)" opacity=".45"/><path d="m12 90c-3.324 0-6-2.676-6-6v-2-68-2c0-.334721.04135-.6507.09375-.96875.0487-.295596.09704-.596915.1875-.875.00988-.03038.020892-.0636.03125-.09375.098865-.287771.2348802-.547452.375-.8125.1445918-.273507.3156161-.535615.5-.78125s.3737765-.473472.59375-.6875c.439947-.428056.94291-.814526 1.5-1.09375.278545-.139612.5734731-.246947.875-.34375-.2562018.100222-.4867109.236272-.71875.375-.00741.0044-.023866-.0045-.03125 0-.031933.0193-.062293.04251-.09375.0625-.120395.0767-.2310226.163513-.34375.25-.1061728.0808-.2132809.161112-.3125.25-.1779299.161433-.3474596.345388-.5.53125-.1075789.130255-.2183939.265285-.3125.40625-.025089.03838-.038446.08587-.0625.125-.064763.103032-.1302275.204517-.1875.3125-.1010083.194706-.2056748.415701-.28125.625-.00796.02181-.023589.04055-.03125.0625-.0318251.09195-.0358045.186831-.0625.28125-.0303323.106618-.0703894.203031-.09375.3125-.0728786.341512-.125.698205-.125 1.0625v2 68 2c0 2.781848 2.2181517 5 5 5h2 68 2c2.781848 0 5-2.218152 5-5v-2-68-2c0-.364295-.05212-.720988-.125-1.0625-.04415-.206893-.08838-.397658-.15625-.59375-.0077-.02195-.0233-.04069-.03125-.0625-.06274-.173739-.138383-.367449-.21875-.53125-.04158-.0828-.07904-.169954-.125-.25-.0546-.09721-.126774-.18835-.1875-.28125-.09411-.140965-.204921-.275995-.3125-.40625-.143174-.17445-.303141-.346998-.46875-.5-.01117-.0102-.01998-.02115-.03125-.03125-.138386-.125556-.285091-.234436-.4375-.34375-.102571-.07315-.204318-.153364-.3125-.21875-.0074-.0045-.02384.0044-.03125 0-.232039-.138728-.462548-.274778-.71875-.375.301527.0968.596455.204138.875.34375.55709.279224 1.060053.665694 1.5 1.09375.219973.214028.409366.441865.59375.6875s.355408.507743.5.78125c.14012.265048.276135.524729.375.8125.01041.03078.02133.06274.03125.09375.09046.278085.1388.579404.1875.875.0524.31805.09375.634029.09375.96875v2 68 2c0 3.324-2.676 6-6 6z" fill="url(#e)" opacity=".2"/><rect height="66" rx="12" style="opacity:.1;stroke:#fefefe;stroke-width:.5;stroke-linecap:round;clip-path:url(#f);fill:url(#d);filter:url(#c)" width="66" x="15" y="15"/><g><g fill="#fefefe"><path d="m64.375 12.65625c-3.045977.395139-4.974282 2.816893-5.40625 5.28125-.373283 2.129561.150473 4.288445 1.25 6.09375-.755416.160918-1.736707.296148-2.0625.375-.407761.09869-.528015.08383-.46875.09375.0561.0094-.03159-.01444-.34375-.28125-.000592-.000555-.02351.0069-.03125 0-.0258-.02298-.06043-.06076-.0625-.0625-.0027-.0023-.09094-.09163-.09375-.09375-.0028-.0021-.122086-.06053-.125-.0625-.0029-.002-.09074-.06069-.09375-.0625-.003-.0018-.121894-.06085-.125-.0625-.0031-.0016-.09056-.06102-.09375-.0625-.0032-.0015-.121736-.06119-.125-.0625-.0033-.0013-.121671-.03012-.125-.03125a1.0960827 1.0960827 0 0 0 -.03125-.03125c-2.119963-.621797-4.291359.03588-5.625 1.46875-.50953.547443-.766885 1.208743-.96875 1.875-.9721-.125304-1.950169-.273987-3.0625-.125-2.315254.310109-4.859796 1.422308-6.34375 3.875-.0022.0036-.06055.121271-.0625.125-.002.0037-.06079.121154-.0625.125-.0017.0038-.06104.152303-.0625.15625-.0015.0039-.06129.152217-.0625.15625-.000925.0031-.02061.05349-.03125.09375-.0033.01239.000224.03028 0 .03125-.131184.03604-.173044.03841-.46875.0625-.517576.04217-1.193969.04662-1.875.0625-.587108.01369-1.100899.153636-1.53125.25-.0086.0019-.02276-.0019-.03125 0a1.0960827 1.0960827 0 0 0 -.09375.03125c-.01775.0061-.05305-.0041-.0625 0 .106757-.02893.125336-.0031-.03125 0-.01276.000252-.04744.03053-.0625.03125-.112682.0054-.31414.03735-.5.09375-.09421.02859-.156038.01234-.25.0625a1.0960827 1.0960827 0 0 0 -.3125.28125c-.533787.221488-1.096132.427583-1.46875.875-.163511.196335-.175567.23795-.25.375-2.45633.531769-4.318742 2.337858-5.09375 4.5-.811625 2.264297-.653245 4.895643.6875 7.0625-.03957.02785-.08862.06872-.125.09375-.759836-.509374-1.597044-.929832-2.59375-1.03125-.09819-.01-.07065.03182-.15625.03125-.353363-1.058638-.974864-2.004305-1.90625-2.53125-.986245-.557982-1.960861-.612607-2.6875-.625-.689436-.01176-1.299849-.01607-1.75-.03125-.450151-.015178-.78021-.131041-.59375-.03125a1.0960827 1.0960827 0 0 0 -.0625-.03125c-.0056-.0027-.181658-.06034-.1875-.0625-.0058-.0022-.212731-.09215-.21875-.09375-.006-.0016-.212606-.03022-.21875-.03125-.0053-.000887-.139691-.02571-.1875-.03125-.0078-.000902-.03038.000063-.03125 0-1.456624-.153057-2.757769.374406-3.75 1.0625-.997218.691552-1.815987 1.632727-2.375 2.6875-.402434.759332-.596837 1.63273-.59375 2.5625-.624952.288474-1.267221.582138-1.71875.96875-.6295635.539049-1.1549929 1.085025-1.59375 1.5s-.8637852.70981-.8125.6875c-.00435.0019-.1520465.06031-.15625.0625-.0042.0022-.152214.09127-.15625.09375-.00404.0025-.1211521.09099-.125.09375-.00385.0028-.1526101.09072-.15625.09375-.00364.003-.1215867.121714-.125.125-.00341.0033-.090581.121478-.09375.125-.00317.0035-.1220914.12126-.125.125-.00291.0037-.091117.152311-.09375.15625-.8848135 1.341528-.9219577 2.870828-.625 4.125.2958647 1.249556.9423846 2.367869 1.78125 3.25.8297193.872514 2.0389973 1.703261 3.59375 1.65625.375312-.01135.598523-.226248.90625-.34375.979508 1.625421 1.781824 3.470943 2.09375 5.25a1.0960827 1.0960827 0 0 0 .03125.09375c.0017.0066.0601.212356.0625.21875.0014.0038.03481.09272.0625.15625.219469.5453.307406 1.530651.28125 1.84375-.03639.0012-.06043-.000135-.0625 0-.0041.00027-.152142-.000528-.15625 0-.0041.000528-.152183.03047-.15625.03125-.0041.000784-.15224.03021-.15625.03125-.004.001-.121063.06121-.125.0625-.0039.0013-.152401.02972-.15625.03125-.0038.0015-.121255.06073-.125.0625-.0037.0018-.121373.0605-.125.0625-.0036.002-.152755.09153-.15625.09375-.0035.0022-.121651.09131-.125.09375-.0033.0024-.09056.05986-.09375.0625-.0032.0026-.121982.122163-.125.125-.003.0028-.09092.09073-.09375.09375-.0028.003-.09111.121808-.09375.125-.0026.0032-.09132.0904-.09375.09375a1.0960827 1.0960827 0 0 0 -.03125.03125c-1.619549 2.323258-.94989 5.194245.5625 6.96875 1.273528 1.494246 3.317479 2.422547 5.46875 2.125.771164.230784 1.960631.532307 3.375.34375.846526-.112854 1.863215-.461663 2.65625-1.3125.619938-.665123.76823-1.421543.875-2.09375a1.0960827 1.0960827 0 0 0 0-.03125c.0018-.01171.02946-.01961.03125-.03125.07454-.140509.03907-.217081.0625-.34375.934526.668971 1.931115 1.220037 2.96875 1.53125 1.954556.586221 3.832133.736549 5.28125 1a1.0960827 1.0960827 0 0 0 .03125 0c.0039.000604.121086-.000372.125 0 .0039.000372.152321.03111.15625.03125.0039.000138.12107.000096.125 0 .0039-.000096.152333-.03092.15625-.03125.0039-.000329.121109.000561.125 0 .0015-.000216.03763.0043.0625 0 .280172.636547.788765 1.309168 1.5625 2.03125a1.0960827 1.0960827 0 0 0 0 .03125 1.0960827 1.0960827 0 0 0 .25.4375c.329982.323592.477506.37183.34375.25 2.449937 2.231514 6.028801 3.465534 9.5 2.53125.724867.214929 1.83721.594437 3.21875.75 1.580051.177916 3.651353-.09918 5.1875-1.625.649823.186523 1.688536.345217 2.90625.15625a1.0960827 1.0960827 0 0 0 .375.0625c.612464-.016989.845439-.174145.71875-.15625 1.667529-.235546 3.182448-.955215 4.34375-2.03125.733126-.679297 1.146889-1.537141 1.53125-2.40625 1.799782-.172216 3.649006-.604973 5.34375-1.46875 1.84117-.938407 3.355796-2.389525 4.34375-4.1875 1.605288-.76753 3.211783-1.81686 4.53125-3.28125 1.258672-1.396916 2.056084-3.197179 2.28125-5.1875 1.210701-1.51397 4.423143-4.302114 4.71875-8.53125-.0047.06721.02434-.244345.0625-.40625h.03125c.02757-.101073.01046-.182217.03125-.28125.0023-.01089-.0022-.02038 0-.03125.367939-1.812041-.331868-3.111179-1-4 2.427501-4.215822 3.183326-9.59534.6875-14.15625-.000304-.000576.003-.02597 0-.03125-.01737-.03061-.09177-.121785-.09375-.125-.0023-.0038-.05993-.121395-.0625-.125-.0026-.0036-.09095-.121575-.09375-.125-.0028-.0034-.121972-.12177-.125-.125-.003-.0032-.09051-.12198-.09375-.125-.0032-.003-.121568-.09095-.125-.09375-.0034-.0028-.121388-.09119-.125-.09375-.007-.02655.0079.0057 0-.03125-.05743-.268682-.09038-.994048-.125-1.8125-.03473-.821132-.09635-1.843448-.4375-2.9375-.335159-1.074849-1.014816-2.183274-2.125-3-.0016-.0016-.06088-.06093-.0625-.0625a1.0960827 1.0960827 0 0 0 -.09375-.09375 1.0960827 1.0960827 0 0 0 -.0625-.0625c-.861282-.540263-1.140055-.830743-1.375-1.25-.220448-.393387-.429692-1.071082-.5625-2.25-.29694-2.410645-1.633494-4.726924-3.65625-6.21875-1.026501-.757066-2.368019-1.361828-3.875-1.28125-.664738.03554-1.173339.381153-1.71875.65625-.367032-.487553-.708592-.980055-1.3125-1.46875-1.227139-.993026-2.86831-1.777069-4.78125-1.71875-.0019-.000069-.0301.000014-.0625 0-.0486-.000021-.09088-.000104-.09375 0a1.0960827 1.0960827 0 0 0 -.125 0zm-30.3125 39.875c.02239.0246.0059.03792.03125.0625.716573.693566 1.561409 1.005176 2.28125 1.125.239966.03994.346435-.03453.5625-.03125-.883881 1.716721-1.695555 3.482918-2.34375 5.34375-.122504-.03933-.215063-.128817-.34375-.15625-2.089721-.445484-4.213964.774215-5.21875 2.90625-.284496-.241532-.479631-.416988-.8125-.6875-.54101-.439661-1.221545-.841974-1.96875-1.1875a1.0960827 1.0960827 0 0 0 -.125-.125c.05493-.0068.0627-.02899.125-.03125.02512.000892.0609 0 .0625 0 .0048 0 .182721.000347.1875 0a1.0960827 1.0960827 0 0 0 .125-.03125c2.396574-.462355 4.055324-2.091874 4.84375-3.90625.417088-.95983.464501-1.877962.53125-2.78125.441704-.08584.893573-.14972 1.28125-.28125.30997-.105166.530655-.143887.78125-.21875zm-3.9375 10.1875c.04823.03062.04847-.01216.125.0625.20015.195265.221376.294181.15625.1875-.07642-.12518-.187937-.16733-.28125-.25zm4.5 11.40625c-.0411.03616-.18112.130113-.28125.21875.07367-.0847.156384-.156353.15625-.15625-.000111.000085.06278-.02813.125-.0625zm-.5625.875c-.01281.214551.02325.278003.0625.34375-.01336-.04658-.06256-.188013-.0625-.1875.000031.000281-.0016-.0788 0-.15625z" opacity=".05"/><path d="m64.53125 13.75c-2.544224.330049-4.109334 2.324548-4.46875 4.375-.351187 2.003503.142605 4.106621 1.28125 5.75.02668.03851.03511.08704.0625.125.171555.325252.219613.504569.375.84375-1.482072-.01775-2.6351.445922-3.375.625-.774816.187529-.987714.286072-1.8125-.4375a1.2942275 1.2942275 0 0 0 -.46875-.28125c-1.726786-.506476-3.458513.03727-4.5 1.15625-.562087.60391-.857829 1.406925-.96875 2.25-1.157451-.210943-2.398763-.333051-3.71875-.15625-2.086993.279535-4.292421 1.244553-5.5625 3.34375a1.2942275 1.2942275 0 0 0 -.1875.625c-.0071.343659-.01296.269673-.1875.375-.174536.105327-.631196.233378-1.21875.28125-.587554.04787-1.27504.04705-1.9375.0625-.431331.01006-.899497.11991-1.34375.21875-.04752-.0035-.07849.03172-.125.03125-.199491.05407-.372145-.02455-.59375.09375v.03125c-.625238.171765-1.173604.489357-1.46875.84375-.229311.275343-.253423.414106-.375.625-2.316597.276674-4.068809 1.949909-4.78125 3.9375-.799719 2.231081-.609974 4.880901.96875 6.8125a1.2942275 1.2942275 0 0 0 .15625.15625c-.411344.320907-.845898.638514-1.15625.84375-.326578.215966-.394004.217398-.46875.25-.768158-.645263-1.661262-1.114327-2.6875-1.21875-.301328-.03066-.624025.120109-.9375.15625.0037-.113882.06687-.196369.0625-.3125a1.2942275 1.2942275 0 0 0 -.03125-.25c-.237171-.988016-.814839-1.79575-1.5625-2.21875s-1.518076-.488583-2.1875-.5c-1.338849-.022833-2.433868.031863-2.84375-.1875a1.2942275 1.2942275 0 0 0 -.46875-.125c-1.136227-.127271-2.180091.284737-3.03125.875s-1.55698 1.386374-2.03125 2.28125c-.431654.814466-.643564 1.748306-.46875 2.71875-.830733.239261-1.534982.677817-2.09375 1.15625-1.1827866 1.012734-2.1193216 2.096587-2.6875 2.34375a1.2942275 1.2942275 0 0 0 -.5625.46875c-.6779389 1.027871-.716241 2.235996-.46875 3.28125s.7920537 2.00554 1.5 2.75 1.6242653 1.347484 2.78125 1.3125c.51289-.01551.992662-.258874 1.4375-.5625 1.237419 1.869026 2.294896 4.135803 2.6875 6.375a1.2942275 1.2942275 0 0 0 .09375.25c.323202.80304.480922 1.948158.34375 2.59375-.06859.322796-.184172.509979-.28125.59375-.09708.08377-.222039.174388-.65625.15625a1.2942275 1.2942275 0 0 0 -1.125.53125c-1.292301 1.853818-.745231 4.163956.5 5.625 1.130811 1.326794 2.948757 2.159767 4.8125 1.75.728366.221664 1.802231.507597 3.03125.34375.674546-.08993 1.426234-.353164 2-.96875.450355-.48318.580095-1.208722.6875-1.9375l.0625.03125c.07685-.144868.01183-.264689.0625-.40625.0034-.06196.06137-.09344.0625-.15625h-.03125c.132608-.443475.218857-.876413.21875-1.28125 1.202977 1.193224 2.586911 2.044929 4 2.46875 1.814131.544104 3.624042.690193 5.15625.96875a1.2942275 1.2942275 0 0 0 1.125-.375c.02077-.02073.01197-.01314.03125-.03125.0327.04985-.03639-.01303 0 .0625.348607.723681.753463 2.177265 2.09375 3.09375l-.0625.0625c.0899.08816.218825.133427.3125.21875 2.31369 2.107414 5.706763 3.261188 8.875 2.21875.788601.223269 1.910771.63397 3.21875.78125 1.421735.160089 3.169902-.05294 4.40625-1.375a1.2942275 1.2942275 0 0 0 .25-.375c.09683.01418.128353.01454.40625.09375.734936.209469 1.949006.584869 3.25.1875v.0625c.212334-.0059.38793-.127177.59375-.15625 1.451607-.205046 2.7588-.831577 3.75-1.75.794961-.736592 1.353406-1.630458 1.65625-2.59375 1.841877-.113699 3.756766-.564936 5.46875-1.4375 1.799632-.917236 3.27744-2.307252 4.125-4.0625 1.587033-.72804 3.17461-1.754652 4.4375-3.15625 1.202082-1.334111 1.976437-3.065461 2.09375-5 1.318185-1.714877 4.361679-4.295271 4.625-8.0625.01536-.219775.130503-.397125.125-.625.526472-1.929703-.534182-3.345734-1.15625-4 2.540442-4.025324 3.369552-9.325515.96875-13.6875a1.2942275 1.2942275 0 0 0 -.46875-.5c-.171564-.102675-.244691-.192791-.34375-.65625-.09906-.463459-.121928-1.188553-.15625-2-.03432-.811447-.08361-1.721771-.375-2.65625-.291389-.934479-.886348-1.896111-1.875-2.5625a1.2942275 1.2942275 0 0 0 -.03125-.03125c-.943647-.591929-1.418573-1.064821-1.75-1.65625s-.546713-1.406502-.6875-2.65625c-.257315-2.088958-1.454043-4.167241-3.21875-5.46875-.882353-.650754-1.978807-1.125458-3.15625-1.0625-.743752.03977-1.444974.380189-2.125.84375-.511407-.661115-.957408-1.340732-1.65625-1.90625-1.085304-.87825-2.505142-1.534257-4.125-1.46875a1.2942275 1.2942275 0 0 0 -.09375 0zm-29.9375 37.46875c.114402.182739.09832.446942.25.59375.507336.491047 1.145462.717071 1.71875.8125.784062.130514 1.422017-.0499 2.09375-.15625-1.42689 2.462337-2.604244 5.156342-3.5 7.96875-.343237-.236388-.721236-.413926-1.125-.5-1.798244-.383347-3.868469.863725-4.40625 3.1875a1.2942275 1.2942275 0 0 0 -.03125.15625c-.01775.187498-.03689.197777-.0625.3125-.09374-.03826.02781-.01-.21875-.1875-.493127-.355068-1.11474-.927099-1.78125-1.46875-.637586-.518145-1.288229-.987051-2.125-1.28125l.03125-.03125c-.614314-.279141-.874945-.550741-.96875-.71875-.0938-.168009-.08022-.241892-.03125-.375.09795-.266215.695167-.835584 1.78125-.875a1.2942275 1.2942275 0 0 0 .1875 0c2.019055-.389523 3.400609-1.758064 4.0625-3.28125.460617-1.060001.562969-2.165879.59375-3.25.67975-.06868 1.316361-.216716 1.875-.40625.660051-.223941 1.148265-.362683 1.65625-.5z" opacity=".08"/><path d="m64.6875 15.03125c-4.048338.52517-4.139721 5.551756-2.208742 8.227788.915318 1.685537 2.349283 4.494532-.581675 2.820631-2.478636-.113759-3.955882 1.839068-6.148144-.08417-2.579819-.756675-4.656153 1.595602-3.655189 3.817003-2.525077-.955874-7.590651-1.17583-9.625532 2.187437-.05848 2.834282-4.829371 1.52955-6.061968 2.187563-.922715-.06736-1.405498 1.038582-1.6875 1.5-4.322128-.18749-6.024658 5.806988-3.59375 8.78125 1.112651.850807 2.826457.372665 3.53125-.71875 1.221426-1.331261 4.454942-.113105 1.262276.203127-2.978058.01248-5.863076 4.12443-7.53322 3.990719-1.004278-1.368889-4.221835-2.184866-4.760306-.0063-.285104.843623.863703 2.194661-.40625 2.09375-.655253-.632369.64898-3.346217.59375-4.8125-.702726-2.927444-4.027246-1.023436-5.96875-2.0625-2.891343-.323864-6.311021 4.939435-2.5 5.90625 1.464343-.335642.574607 1.992189-.418532.200852-3.063379-1.608253-4.571342 2.245347-6.706468 3.174148-1.7399165 2.63801 2.58785 7.81928 4.34375 3.9375 1.795597 2.165925 3.267696 5.293181 3.793245 8.290624.811554 2.016418.882857 5.198772-1.855745 5.084376-1.83663 2.634662 1.497016 6.366807 4.375 5.3125 1.333419.410606 4.460172 1.198492 4.514703-1.822313.846313-1.595316-.967047-5.951732 1.485297-2.990235 2.3146 3.283516 6.11802 3.304898 9.349049 3.892302 2.249817-2.245848 2.013399 2.187721 3.85991 3.16134 2.11936 2.078313 5.532783 3.25373 8.353541 2.071358 1.74485.459677 4.87559 1.714433 6.625-.15625.472175-2.073238 3.10326.50415 4.799357-.422907 2.562708-.07109 5.13863-2.707844 5.055879-4.423444 3.757734.09373 8.6267-2.045068 9.761964-5.349549 3.069745-1.333758 6.318693-4.070837 6.1953-7.71035 1.533368-2.090884 4.701595-4.66152 4.619318-8.06844.88721-1.758735-.985677-3.364798-1.388503-3.882374 2.72924-3.731247 3.638893-9.070278 1.362935-13.205436-2.188983-1.310032.10551-5.967081-2.797199-7.923616-2.107052-1.321707-2.741044-2.624271-3.039931-5.277456-.406436-3.299562-4.378988-7.587671-7.38162-4.048928-1.262144-1.88778-3.068554-3.975855-5.5625-3.875zm-6.75 13.53125c.066.244704.113361.260285 0 0zm-3.875 7.78125c.416005 1.811583 1.36571 3.578278.84375 5.46875-1.612737-1.249213-4.517222-1.367856-1.798986-3.217999.508304-.659876.807279-1.435757.955236-2.250751zm-20.4375 6.5c.167186-.0603-.03947.09757 0 0zm1.625 6.875c.369634 4.205437 9.115765-1.425467 4.69575 3.101291-2.081202 3.554924-3.967323 7.420921-4.57075 11.523709.863578-3.538503-3.666443-4.535321-4.497061-.946184-.400924 4.235387-3.757272-.866065-5.964526-1.571538-3.181505-1.445658-1.743142-4.343364 1.244825-4.451803 3.242094-.625476 3.860705-3.90436 3.654262-6.561725 1.811546.442696 3.636124-.927423 5.4375-1.09375z" opacity=".1"/><path d="m64.75 15.78125c-.76588.05558-1.465846.488323-1.96875 1.09375-.60734.73116-.906109 1.643941-.8125 2.5625.108769 1.067572.454781 2.017473 1.59375 4.28125.610376 1.213171.735274 1.534245.9375 2.46875.245201 1.133124.318525 2.21883.34375 3.46875-.266035-.870658-.640501-1.611331-1.25-2.125-.752942-.634559-1.778924-.843857-2.8125-.6875-.298459.04515-.60503.135882-.90625.21875-.15061.04143-.305805.07672-.4375.125-.06585.02414-.109494.05528-.1875.09375-.07801.03847-.189427.01067-.40625.28125-.000481.0006-.09804.155351-.125.21875-.02696.0634-.05238.112746-.0625.15625-.02025.08701.0017.142608 0 .1875-.0033.08978-.0051.14585 0 .1875.0052.04278.02493.06151.03125.09375-1.140569-1.09014-2.431126-1.798967-3.8125-1.71875-.328056.01905-.637416.08341-.9375.15625-.150042.03642-.303823.07838-.4375.125s-.221573.01034-.5.25c-.05699.04906-.265489.349691-.3125.5625-.04701.212809-.04439.332509-.03125.4375.02629.209981.08848.417391.1875.8125.04413.176097.24582.902766.3125 1.15625-.03205.01428-.08247.01335-.125.03125-.154086.06487-.364699.160338-.625.28125-.336041.156094-.971037.475081-1.53125.75.0031-.170531.02268-.264629-.0625-.5625-.04493-.157114-.155652-.398798-.3125-.53125s-.26455-.167475-.3125-.1875c-.387487-.161828-.43069-.111455-.625-.125-.19431-.01355-.419086-.0029-.65625 0-.483636.0059-.968853.03543-1.3125.09375-1.795203.304733-3.298593.950611-4.21875 2.0625-.526381.636071-.690116 1.423287-.65625 2.21875-.07082.0081-.10929.02241-.1875.03125-.648168.07325-1.524194.178588-2.5.28125-1.60357.168706-2.489585.276711-2.96875.34375-.05162.0072-.158235.01715-.25.03125-.04038.0062-.07035.02798-.09375.03125-.02978.0042-.05135-.01385-.125 0-.0092-.000102-.02264.000074-.03125 0-.01292-.000111-.01563-.000082-.03125 0-.0078.000041-.01165-.000669-.03125 0-.0098.000334-.03027-.0028-.0625 0-.01611.0014-.06236-.000025-.0625 0-.000069.000012-.124959.03124-.125.03125 0 0-.09375.03125-.09375.03125s-.15625.09375-.15625.09375l.53125.78125-.65625-.65625c-.000131.000131-.218633.280991-.21875.28125s-.02202.09089-.03125.125c-.01845.06822-.02775.09768-.03125.125-.007.05464.000685.0736 0 .09375-.0014.0403-.000398.07448 0 .09375.000797.03854-.000158.05886 0 .0625a.94440718.94440718 0 0 0 0 .03125c-.000043.01231-.000534.01323 0 .03125.00064.02163-.0046.05608 0 .09375.0031.02511-.0082.02482 0 .0625.01027.0471.06228.187003.0625.1875.02396.120963.0838.295101.125.4375-.364655-.116873-.71885-.388733-1.09375-.40625-.971954-.0454-1.856509.309199-2.53125.96875-.01877.01833-.02155.05273-.03125.0625-.275824.276196-.555895.568227-.78125 1.03125-.317074.65147-.488862 1.311406-.53125 2.0625-.05376.952242.119931 1.970413.46875 2.78125l.09375.21875a.94440718.94440718 0 0 0 .875.5625h.375c.123366 0 .244092-.0011.40625-.03125.108106-.02011.208955-.0749.3125-.125.03787-.01609.07789-.06709.125-.09375.102-.05772.201439-.09118.28125-.1875.02812-.03404.01049-.06342.03125-.09375-.0168.01341.02562-.02692.03125-.03125a.94440718.94440718 0 0 0 .03125-.03125c.0069-.01255.02519-.01892.03125-.03125.05546-.05503.108711-.08339.15625-.15625.216335-.331572.728939-.715488 1.375-.875.30721-.07584 1.375091-.07412 1.90625.03125 1.025449.203423 1.870325.67332 2.5 1.1875-.238922.04407-.392098.03979-.65625.09375-3.694888.754709-6.712636 2.040005-8.59375 3.84375-.211765.203056-.420598.446236-.59375.65625-.08658.105007-.151593.187159-.21875.28125-.03358.04705-.05652.09253-.09375.15625-.01861.03186-.06695.06311-.09375.125s-.0625.135707-.0625.40625c0 .0062-.0053.02984 0 .09375.0026.03196.03117.155932.03125.15625.000041.000159.06245.156132.0625.15625.000054.000118.124931.21867.125.21875s.281164.218705.28125.21875.312396.09374.3125.09375c.000052.000006.06471.000407.125 0s.124938.000008.125 0c.000124-.000017.156104-.03121.15625-.03125.03602-.0083.0789-.01959.125-.03125.0922-.02332.221194-.05285.375-.09375.307611-.08181.739841-.204386 1.25-.34375 1.020319-.278729 2.370942-.625378 3.71875-1 .14926-.04149.257436-.08358.40625-.125-.106499.0946-.218082.206029-.3125.3125-.04721.05324-.09948.09892-.15625.1875s-.15625.176318-.15625.5625c0 .243731.145427.559295.3125.71875s.299255.217238.40625.25c.213991.06553.326166.06085.46875.0625.285167.0033.637269-.03733 1.1875-.09375.52315-.05366.902322-.13787 1.25-.1875 1.988658-.283888 3.421238-.704977 4.59375-1.46875.916265-.596854 1.572825-1.463312 2-2.4375.624015.327489 1.224006.519576 1.8125.59375-2.321466.823903-4.350634 2.285505-6.03125 4.28125-1.573199 1.868186-2.890341 4.208319-4.15625 7.375-.391001.978102-1.185536 3.140178-1.40625 3.84375-.470752 1.500629-.716575 3.07811-.78125 4.78125-.146661-.364083-.196668-.651298-.40625-1.09375-.592402-1.250671-.663097-1.543259-.75-2.25-.04128-.335722-.05983-.584204 0-1.0625.0085-.06787.02502-.114999.03125-.25.0031-.0675.02884-.156935-.0625-.40625-.04567-.124657-.159957-.300908-.34375-.4375s-.406661-.1875-.5625-.1875c-.432303 0-.4859.107282-.5625.15625-.0766.04897-.11087.08649-.15625.125-.09076.07702-.168663.16483-.25.25-.162675.17034-.325014.350708-.46875.5625-.631669.930733-1.08361 2.188862-1.34375 3.6875-.03731.214907-.01521.570638-.03125.78125-.200953-.23772-.349584-.546871-.59375-.78125-.751836-.721704-1.506144-1.276911-3.65625-2.65625-1.798788-1.153962-2.513587-1.698627-3.15625-2.34375-.839558-.842761-1.059301-1.314484-1.09375-2.09375-.02968-.670609.001-.780526.40625-1.1875.435979-.437843.850672-.643355 2.59375-1.25.960416-.334252 1.634816-.619123 2.1875-.9375s1.002567-.746139 1.25-1.25c.07778-.15841.165855-.365237.1875-.5625.02164-.197263.000042-.327231 0-.5-.000046-.15489.0088-.262329 0-.4375-.008-.158684-.0735-.380505-.15625-.5625.127783-.08274.267579-.117998.34375-.25.149265-.258678.117211-.312169.125-.375.0078-.06283-.000835-.118132 0-.15625.0017-.07624.0036-.116437 0-.1875-.0073-.142126-.01332-.328409-.03125-.5-.03586-.343182-.08749-.675824-.15625-.96875-.319251-1.359818-1.343285-2.370679-2.71875-2.71875-.244511-.061866-.388803-.127268-.71875-.15625a.94440718.94440718 0 0 0 -.09375 0h-.15625a.94440718.94440718 0 0 0 -.9375.9375v.125a.94440718.94440718 0 0 0 0 .09375c.04547.487633.189916 1.085968.375 1.59375.114143.31315.327678.54476.5.8125-.340627-.04814-.585025-.164894-.96875-.1875a.94440718.94440718 0 0 0 -.0625 0h-.5a.94440718.94440718 0 0 0 -.65625.25l-1.3125 1.28125c.11997-.630728.231686-1.161063.375-1.90625.255474-1.3284.478221-2.573592.65625-3.46875.08901-.447579.167628-.803963.21875-1.0625.02556-.129269.04825-.238011.0625-.3125.0071-.03724.02646-.06688.03125-.09375.0024-.01344-.0027-.01394 0-.03125.0014-.0087-.0021-.0142 0-.03125s0-.124296 0-.125c0-.09654.0092-.390804-.21875-.65625-.227909-.265446-.522222-.322875-.65625-.34375-.268057-.04175-.351668-.01314-.5625 0-.677702.04214-1.395965.213148-2 .5-.049.02327-.07726.06898-.125.09375-.0016-.151415-.03198-.406983-.28125-.65625-.000642-.000641-.159012-.154852-.21875-.1875-.05974-.03265-.08561-.0488-.125-.0625-.07879-.0274-.147456-.02468-.1875-.03125-.08009-.01313-.1166.001-.15625 0-.0793-.002-.125268-.004-.1875 0-.124464.0081-.261211.01293-.40625.03125-.290077.03665-.583309.09104-.84375.15625-1.22768.30742-2.181101 1.235885-2.59375 2.5-.03251.09963-.06528.184404-.09375.28125-.01423.04842-.01843.1034-.03125.15625s-.03125.05346-.03125.28125c0 .106401-.02717.360931.21875.65625.245922.295319.614254.373995.78125.375.333991.002.419825-.06815.625-.125.547954-.151846.929837-.524904 1.375-.8125-.1748.420612-.401125.796067-.5 1.28125-.173369.850749-.1959 1.887036-.21875 3.59375-.03074-.05536-.06251-.131526-.09375-.1875-.0137-.02455-.04716-.120766-.09375-.21875-.04659-.09798-.04713-.131069-.1875-.34375-.365928-.554422-.82946-1.030945-1.34375-1.375-.438376-.293274-.877816-.53125-1.5625-.53125-1.323899 0-2.264976 1.080375-2.625 2.375-.03936-.01076-.08856-.02399-.125-.03125-.128737-.02566-.251671-.03125-.40625-.03125-.03982 0-.05767.0034-.125 0-.067327-.0034-.20409-.05279-.5.0625-.3511902.13687-.5045007.384117-.5625.5-.057999.115883-.061698.154309-.0625.15625-.1385053.335194-.1459111.514007-.1875.78125-.041589.267243-.0625.519793-.0625.78125 0 1.04267.5424276 2.00984 1.40625 2.59375.140762.09515.12196.186791.59375.28125.117948.02361.301748.05349.53125-.03125s.413578-.305273.5-.46875c.172845-.326953.125938-.428356.125-.5-.0017-.153411.01036-.176838 0-.28125s-.04562-.253318-.0625-.40625c-.0099-.08978-.01972-.210986-.03125-.3125.197322.153418.287136.407466.53125.5.318289.120709.626783.147026 1.09375.15625.01165.000229.01968-.000227.03125 0 .252574.683363.682173 1.525216 1.375 2.6875.751301 1.26038 1.251265 2.199257 1.40625 2.625.09094.249802 1.244609 4.727463 1.34375 5.28125.112116.626247.100479 1.279625.09375 1.3125.01546-.0756-.128186.426317-.25.71875-.210615.505608-.369836.935723-.40625 1.40625-.02122.274248.09924.521108.15625.78125-.221569-.111315-.473529-.198183-.6875-.28125-.112909-.04383-.215031-.09347-.3125-.125-.04873-.01576-.100732-.0172-.15625-.03125-.05552-.01405-.07768-.03125-.28125-.03125-.18422 0-.467081.07182-.65625.25-.189169.178176-.252457.377521-.28125.5-.05759.244958-.04126.316112-.03125.40625.02003.180276.04303.344694.09375.59375.188706.926309.653849 1.792424 1.46875 2.21875.421372.220442.829327.318605 1.34375.40625.0922.01569.179974.01957.25.03125.07003.01168.04332.01656.15625.03125.312564.04103.811967-.192041.96875-.4375.111845-.175104.113835-.274024.125-.375.452555.378855.87364.79691 1.4375 1.03125.20124.08364.372631.215961.84375.15625.23556-.02986.50993-.18272.65625-.34375s.211155-.283221.25-.375c.262561-.620393.466972-1.512392.5625-2.28125.148124-1.19215.0066-2.173366-.5625-4.6875-.01432-.06328-.01725-.122541-.03125-.1875 1.336085 1.018727 1.513783 1.12679 3.125 2.71875.631834.624287 1.079438 1.096534 1.5 1.46875.820657.726312 1.454678 1.142828 2.21875 1.40625.365624.126049.720737.186946 1.09375.1875.48183.000465.999428-.128421 1.40625-.46875.341875.458845.760224.839866 1.28125 1.03125.272139.09993.428929.122599.6875.125.700883.007 1.308889-.385218 1.71875-.875.312328-.37323.482613-.871164.65625-1.375.04498.227744.0064.492185.0625.71875.400611 1.618856 1.0246 2.942053 1.875 4.03125.189529.24275.391558.477151.625.71875.0034.0054.02812-.0049.03125 0 .0058.006-.0058.0253 0 .03125.01079.01685.0312.06245.03125.0625a.94440718.94440718 0 0 0 .03125 0c1.103697 1.106608 2.380881 1.814153 3.90625 2.125.589775.120191 1.271797.149248 1.875.15625.301602.0035.594669-.000636.84375-.03125.12454-.01531.238904-.03476.40625-.09375.08367-.02949.16637-.03959.3125-.15625s.375-.413554.375-.78125c0-.000492.0043-.129133 0-.15625-.0043-.02712.0029-.04918 0-.0625-.0058-.02665-.02777-.01826-.03125-.03125-.007-.02597-.02522-.04265-.03125-.0625.242308.219433.489385.634754.75.8125.682114.465232 1.458116.763126 2.1875.875.532935.08172 1.173161.140916 1.84375 0 .24153-.05071.488277-.123277.6875-.1875.09961-.03211.185453-.05232.28125-.09375.0958-.04143.13852.01663.4375-.34375a.94440718.94440718 0 0 0 .03125 0c.0004-.0005.156068-.374199.15625-.375s.03216-.194381.03125-.25c-.0018-.111238-.02134-.145127-.03125-.1875-.01982-.08475-.02089-.128964-.03125-.15625-.02073-.05457-.03291-.06667-.03125-.0625a.94440718.94440718 0 0 0 -.09375-.15625.94440718.94440718 0 0 0 0-.03125.94440718.94440718 0 0 0 -.03125 0 .94440718.94440718 0 0 0 -.03125-.03125.94440718.94440718 0 0 0 0-.0625.94440718.94440718 0 0 0 -.03125-.0625.94440718.94440718 0 0 0 -.0625-.09375c-.04476-.08214-.215124-.354635-.28125-.46875.808648.410483 1.623883.780312 2.40625 1 2.240276.629051 4.482168.34597 6.1875-.9375.275251-.207161.543413-.447214.75-.65625.103294-.104518.195806-.172119.28125-.28125.04272-.05456.07145-.121294.125-.21875.05355-.09746.290829-.18299.09375-.78125-.000043-.00013-.09366-.2186-.09375-.21875-.000094-.00015-.0936-.12483-.09375-.125-.000291-.00034-.09809-.07096-.125-.09375-.05382-.04557-.07071-.079-.09375-.09375-.04608-.0295-.07338-.02062-.09375-.03125-.04074-.02125-.06043-.04722-.09375-.0625-.06665-.03056-.149932-.05107-.25-.09375-.200135-.08537-.470779-.20273-.8125-.34375-.27615-.11396-.71551-.294946-1.0625-.4375 1.382858.143275 2.036839.1881 3.15625.1875 1.333699-.000716 2.016437-.02966 3.0625-.25 1.726622-.363714 3.496131-1.235307 4.96875-2.34375.286472-.215632.513224-.378405.6875-.53125.08714-.07642.159099-.141775.25-.25.04545-.05411.08945-.106297.15625-.25s.223631-.524936-.03125-.9375c-.00007-.000113-.218613-.218638-.21875-.21875-.000077-.000063-.0531-.03517-.09375-.0625.578359-.220724 1.174503-.384846 1.71875-.65625 1.378263-.687314 2.355682-1.3835 3.28125-2.3125 1.143011-1.147252 1.892715-2.464195 2-3.84375.01311-.16871.05956-.217726 0-.53125-.02978-.156762-.155438-.477498-.4375-.65625-.06223-.03944-.07118-.0091-.125-.03125 2.713992-1.534772 4.495904-3.783004 5.0625-6.78125.09311-.492436.153425-1.112088.1875-1.625.01704-.256456.03505-.486916.03125-.6875-.0019-.100292-.01011-.18399-.03125-.3125-.01057-.06426-.02858-.135426-.09375-.28125-.03259-.07291-.06034-.155134-.1875-.28125-.127159-.126116-.403325-.28125-.6875-.28125-.000085 0-.187361-.000031-.1875 0s-.09356.03119-.09375.03125c-.000386.000122-.04764.02524-.0625.03125-.02972.01202-.05147.02606-.0625.03125-.02205.01038-.05-.0064-.0625 0-.02501.01282-.03208.04619-.0625.0625-.06084.03263-.145838.06781-.25.125-.208323.114377-.512052.267149-.875.46875-.119253.06624-.335748.176009-.46875.25 2.293785-2.53345 3.827532-5.394508 4.1875-8.5.116449-1.004964.102208-2.471952-.0625-3.4375-.08755-.513242-.236123-1.097858-.375-1.59375-.06944-.247946-.15017-.468461-.21875-.65625-.03429-.0939-.04373-.181374-.09375-.28125-.02501-.04994-.0661-.106639-.125-.1875-.0589-.08086-.08642-.247555-.46875-.375-.000099-.000033-.531105-.000035-.53125 0s-.218558.0624-.21875.0625c-.000384.000207-.158323.100477-.1875.125-.05836.04905-.04612.07597-.0625.09375-.03276.03557-.04877.04532-.0625.0625.455426-1.890892.590018-3.71952.03125-5.40625-.244249-.7373-.736944-1.642318-1.15625-2.28125-.194197-.295916-.425976-.614786-.625-.875-.09951-.130107-.192101-.242829-.28125-.34375-.04457-.05046-.08488-.09236-.15625-.15625-.03569-.03195-.06034-.06751-.15625-.125-.04795-.02875-.102905-.05932-.21875-.09375-.05792-.01722-.123316-.02653-.21875-.03125-.04772-.0024-.187008-.000059-.1875 0s-.187065.03111-.1875.03125c-.000098.000033-.281119.18739-.28125.1875s-.124837.09356-.125.09375c-.000327.000373-.04853.07299-.0625.09375-.02793.04152-.05386.0782-.0625.09375-.01727.0311-.02273.04519-.03125.0625-.01703.03462-.01195.05166-.03125.09375.009-.332492.03077-.673627 0-.96875-.230774-2.214-.934301-4.824324-1.8125-6.46875-.508847-.95281-1.120264-1.739639-1.96875-2.15625-.288972-.141886-.701323-.21875-1.09375-.21875-.415075 0-.838291.100976-1.15625.25-.495463.232213-.955615.637955-1.1875 1.1875-.09298.220355-.08371.512045-.125.75-.900219-1.632434-2.112075-3.217234-3.40625-4.0625-.722926-.472166-1.488274-.742783-2.25-.6875zm-17.875 17.4375c.0111-.0038.03895.0064.0625 0-.01765.0084-.05086.02587-.0625.03125.0064-.0025-.01665-.02559 0-.03125zm7.1875.34375c.0896.326689.08537.284648.1875.65625l1.59375 5.78125-.34375 3.53125c-.0062.0613-.02513.09562-.03125.15625-.385943-.557253-.716998-1.16624-1.28125-1.53125-.532982-.344782-1.190551-.638347-2.21875-1.03125-.981738-.375147-1.395468-.57698-1.8125-.84375 1.265435-.697144 2.316805-1.694837 2.9375-3.15625.328317-.773011.549713-1.687561.9375-3.40625.01398-.06194.01675-.09291.03125-.15625zm-2.21875 11.9375c.02467.05759.037.09672.0625.15625.137813.321732.266399.609709.375.84375-.711451-.01933-1.510099-.09758-1.96875-.03125-.03453.005-.08923.02558-.125.03125.500603-.24834 1.016569-.470482 1.65625-1z" opacity=".15"/></g><g transform="matrix(.706098 0 0 .706098 130.63254 20.2435)"><path d="m-93.21875-5c-.701739.05093-1.32386.399002-1.875 1.0625-.62238.749266-.93515 1.759368-.84375 2.65625.13502 1.325258.52701 2.417639 2.125 5.59375.87829 1.745672 1.16603 2.444852 1.46875 3.84375.42751 1.97561.59675 3.706343.59375 6-.0032 2.112224-.1327 3.650165-.46875 5.65625-.29504 1.76132-.8001 3.87913-.90625 3.84375-.162-.054-.35435-1.69724-.5-4.09375-.17149-2.821717-.31607-3.950392-.5625-5.0625-.65564-2.958878-2.11383-4.209451-4.53125-3.84375-.67827.102606-1.77316.43541-1.875.5625-.0436.05437.20036.913528.875 2.84375.53005 1.516555.96871 2.78499.96875 2.8125.00013.09547-.38595.22495-.46875.15625-.04265-.03539-.42522-.579562-.84375-1.1875-.88323-1.28291-1.3326-1.906774-1.9375-2.625-1.62721-1.932077-3.38917-2.856245-5.21875-2.75-.66765.03877-1.67213.258525-1.84375.40625-.11903.102464-.0899.276019 2.1875 8.5625l2.34375 8.46875-.53125 5.1875c-.28764 2.86077-.56605 5.2662-.59375 5.34375-.0493.1379-.059.15625-1 .15625-.52915 0-1.60216-.0384-2.375-.0937-1.70766-.12234-3.83674-.13626-4.5625-.0313-.73777.10675-1.81055.37512-2.8125.71875-3.12922 1.07321-5.86797 2.97015-8.15625 5.6875-2.10913 2.50461-3.89736 5.69387-5.65625 10.09375-.5279 1.32056-1.66848 4.48619-1.9375 5.34375-.66555 2.12159-1.03385 4.37359-1.09375 6.8125-.0533 2.17221.11172 3.95965.5625 5.78125.52879 2.13682 1.31646 3.79169 2.40625 5.1875.26089.33415.54197.62928.84375.9375.0104.0107.0208.0206.0313.0313.009.01.0218.0217.0313.0313.006.006-.006.0249 0 .0313 1.40287 1.40657 2.92962 2.22856 4.875 2.625 1.3904.28335 3.8125.32956 3.8125.0625 0-.0446-.4207-1.30134-.9375-2.78125s-.93732-2.71245-.9375-2.75c-.00037-.0657.25943-.21875.375-.21875.0308 0 .3575.45089.71875 1 1.45424 2.21052 2.57226 3.47656 3.84375 4.34375.75495.51491 1.74465.9106 2.53125 1.03125.48581.0745 1.64629.0693 2.125-.0313.59097-.12407 1.1774-.31874 1.25-.40625.009-.0114-.0412-.0716-.0625-.125.0103.0393-.0454.0625-.0937.0937-.0621.0401-.14877.0937-.375.15625-.12845.0355-.23844.0592-.375.0937.0198-.005.0434-.0263.0625-.0313.33517-.0878.6359-.18988.6875-.21875.0543-.0304-.29763-.65861-1-1.78125.32996.52658.78819 1.19289.875 1.34375-.0172 0-.006.0561.0313.125.0369.0689.0765.125.0937.125.0131 0-.011-.0474-.0313-.0937.007.0136.12404.1838.125.1875-.10052-.2518-.53852-.99519-1.71875-2.84375-1.92758-3.01907-2.00895-3.14727-1.96875-3.1875.0136-.0136.34184.20661.71875.5 2.46002 1.91496 4.96826 3.26554 7.25 3.90625 2.85756.80238 5.55016.41305 7.59375-1.125.64668-.48671 1.31515-1.14709 1.28125-1.25-.01558-.0473-2.38964-1.05518-5.28125-2.25-2.8916-1.19481-5.26775-2.20935-5.28125-2.25-.0388-.11642 2.24262.0174 4.71875.28125.79274.0845 2.08225.22765 2.875.3125 2.54925.27286 3.12042.31344 4.875.3125 1.86273-.001 2.67853-.0769 4.09375-.375 2.2045-.46438 4.56691-1.57621 6.5-3.03125.78703-.59241 1.1712-.95647 1.125-1.03125-.02533-.041-3.1242-.0302-9.125 0-6.17774.0311-8.98913.0118-9.09375-.0313-.0173-.003-.0526.004-.0625 0-.0398-.0644.61915-1.86605.71875-1.96875.0285-.0294.25964.0447.5.1875 4.16124 2.47215 13.12473 1.83529 19.625-1.40625 1.86524-.93016 3.09359-1.80782 4.3125-3.03125 1.45803-1.46344 2.3184-3.06228 2.4375-4.59375.0351-.45169.0192-.46875-.09375-.46875-.13878 0-2.41005.62255-3.625 1-.44807.1392-1.59741.50712-2.5625.8125-6.30376 1.99468-8.9192 2.5298-12.34375 2.59375-1.9574.0366-3.71255-.0812-3.65625-.25.06364-.19092 2.7257-1.10539 4.53125-1.5625 1.54136-.39022 2.35258-.55732 5.9375-1.28125 5.29944-1.07015 7.21991-1.56672 9.5625-2.5 4.94058-1.96832 7.74281-5.17548 8.625-9.84375.22963-1.2145.36615-3.34375.21875-3.34375-.03081 0-2.56666 1.43169-5.65625 3.15625-3.08981 1.72456-5.6501 3.11687-5.6875 3.09375-.08551-.0528-.44835-.86418-.40625-.90625.01709-.0171.41292-.23446.90625-.5 2.36944-1.27538 4.17035-2.61488 6.125-4.5625 3.65295-3.63981 5.79083-7.84323 6.3125-12.34375.14038-1.21147.09561-3.42116-.09375-4.53125-.22428-1.31484-.74788-3.25971-.90625-3.3125-.03585-.0119-2.24473 3.17505-4.875 7.0625-5.53878 8.18614-5.8314 8.6061-5.875 8.5625-.09954-.0995 1.21984-2.43512 3.4375-6.125.96007-1.59741 1.99248-3.32674 2.28125-3.84375.71049-1.27202 1.71166-3.38147 2.09375-4.375 1.34231-3.49033 1.53069-6.452943.59375-9.28125-.27208-.821313-.92696-2.159548-1.4375-2.9375-.50619-.77133-1.26495-1.74502-1.34375-1.71875-.0356.01187-1.55402 3.598518-3.375 7.96875l-3.3125 7.9375-4.59375 7.84375c-4.59423 7.85403-4.79605 8.23519-4.84375 8.1875-.03824-.0382.38166-1.2152.8125-2.28125 1.07774-2.66676 2.18465-4.79068 5.21875-10 1.93777-3.32699 2.8102-4.88521 3.59375-6.4375 2.44093-4.835682 3.6161-8.738738 3.90625-13 .0587-.866091.0588-1.279734 0-1.84375-.30668-2.942092-1.34262-6.606092-2.4375-8.65625-.63612-1.191129-1.45973-2.142662-2.1875-2.5-.32935-.161712-.43875-.1875-.96875-.1875-.54631 0-.64466.02292-1.0625.21875-1.01973.477927-1.31313 1.227599-1.3125 3.15625.0003 1.034299.07975 1.842931.40625 4.15625l.21875 1.625-.03125 1.84375c-.03501 1.829126-.06126 2.418113-.25 4.125-.41512 3.754179-1.43298 8.07279-2.9375 12.65625-.56757 1.72908-1.4068 4.13597-1.5 4.28125-.21774.33933.31949-2.14061 1.40625-6.59375 1.78234-7.303308 2.20745-9.909888 2.28125-13.59375.05097-2.549335-.12028-4.310363-.59385-6.375-.28388-1.237515-.39564-1.560526-.8125-2.4061-1.16863-2.370557-3.20826-4.88015-4.875-5.96875-.859165-.561147-1.642011-.800928-2.34375-.75z" fill="url(#k)"/><path d="m-115.75 14.9375c-.60515.0073-1.25259.06179-1.625.125-2.34424.397931-4.21371 1.260803-5.1875 2.4375-.76254.921442-.97744 2.073836-.59375 3.1875.0507.14793.0872.28775.0625.3125-.0247.0247-2.32418.27112-5.09375.5625-2.2608.23785-3.49975.40815-4.15625.5-.0888.0124-.5232.0551-.5625.0625-.0261.005-.37249.0287-.375.0313-.006.006.0302.0996.0313.125.002.0365-.007.0559 0 .0625.0251.2065.12314.65051.375 1.53125.44575 1.55802.53765 1.875.46875 1.875-.0151 0-.24774-.1628-.5-.34375-1.04232-.7477-1.98596-1.10887-3-1.15625-1.11962-.0523-1.82805.25224-2.625 1.03125-.0172.0168-.0452.0139-.0625.0313-.39978.40032-.55043.58654-.8125 1.125-.38185.78456-.5728 1.4813-.625 2.40625-.061 1.08043.17689 2.44739.5625 3.34375l.125.3125h.53125c.3303 0 .44513.005.5625-.0937h-.0625c.0231-.0152.0629-.0253.0937-.0625.0427-.0517.0485-.0937.0313-.0937l.125-.21875c.074-.11331.16894-.20899.25-.3125-.0918.12036-.16975.24194-.25.375l-.15625.25c.075-.08.17634-.16631.3125-.375.54896-.84138 1.53669-1.4894 2.71875-1.78125.8044-.19858 2.28321-.19799 3.28125 0 3.59637.71343 6.29212 3.15472 6.15625 5.59375-.0362.65037-.2671 1.0768-.84375 1.65625-.48068.48301-1.10866.91121-2.1875 1.5-.37913.20692-1.00987.5642-1.40625.78125-.39637.21705-.96184.55918-1.25.75-.57094.3781-1.28125 1.00589-1.28125 1.15625 0 .12954.35434.12462 1.875-.0313.65221-.0669 1.18782-.16975 1.75-.25 2.7268-.38926 4.54649-.91729 5.96875-1.84375 1.35183-.88058 2.36841-2.27876 2.75-3.75.0619-.23879.11895-.40625.15625-.40625s.2839.12732.53125.28125c1.60533.99903 2.92542 1.35898 4.03125 1.125.98834-.20912 1.9396-.8042 3.6875-2.3125.4635-.39996.86605-.75.90625-.75s.40438.79722.8125 1.75.79055 1.78003.84375 1.84375c.0937.11214.1701.12346 1.65625-.125.84445-.14118 1.55975-.31161 1.59375-.34375.0868-.082-.2362-1.17578-.53125-1.875-.47544-1.1267-1.29574-2.14373-2.28125-2.78125-.59067-.3821-1.47814-.79803-2.90625-1.34375-1.55478-.59412-2.35838-.97604-3.09375-1.46875-.72849-.4881-1.43325-1.13503-1.34375-1.21875.0345-.0323.28676-.12307.5625-.21875 2.1963-.76212 3.7005-2.20738 4.6875-4.53125.40613-.95622.73627-2.17838 1.28125-4.59375.24726-1.095849.56754-2.333324.6875-2.75.11999-.416676.2058-.79614.1875-.84375-.002-.0054-.0734.02682-.0937.03125-.21834.04752-1.46883.624931-4.53125 2.15625-2.52038 1.260286-4.62295 2.29235-4.65625 2.28125s.77086-.741045 1.78125-1.625c1.0104-.883955 1.9224-1.67689 2-1.75.0499-.04702.0414-.09447.0625-.15625.0316-.09267.0625-.21781.0625-.5 0-.520896-.0187-.5545-.1875-.625-.1367-.05709-.6761-.06978-1.28125-.0625z"/><path d="m-126.625 34.21875c-.49727.0386-1.54152.20981-2.65625.4375-5.07501 1.03661-9.13574 2.82673-11.5 5.09375-.47774.45809-1.125 1.21966-1.125 1.3125 0 .021.0194.0303.0625.0313.18406.004 15.24798-4.20507 15.4375-4.3125-.018 0-3.39056.92787-7.5 2.0625-4.10945 1.13464-7.55537 2.06847-7.65625 2.09375-.004-.004-.0188.005-.0313 0-.0339-.0136-.0676-.009-.0937 0 .008.0113.0162.0331.0625.0313l-.125.0313.0625-.0625.0937-.15625c.0124 0 .0625-.0309.0937-.0625l-.1875.21875.21875-.0625c.11964-.0236 3.54064-.9655 7.625-2.09375l7.4375-2.03125c-.00045.0007.00045.0313 0 .0313.00072-.00041.0622.00029.0625 0 .11728-.11762.11709-2.46552 0-2.5625-.0228-.0189-.11549-.0129-.28125 0z" fill="#f00"/><path d="m-158.71875 34.78125c-.0582-.0581-1.26055.0962-1.75.21875-1.39057.34821-2.22653 1.17963-2.71875 2.6875-.0883.2706-.15625.52922-.15625.59375 0 .14672.0492.1509.59375 0 1.1339-.31422 2.02765-.84435 2.75-1.59375.591-.61313 1.39414-1.79336 1.28125-1.90625z" fill-opacity=".482353"/><path d="m-154.3125 35.28125c-.74609.0464-1.70767.27527-2.3125.5625-1.72595.81965-2.74005 2.30725-3.21875 4.65625-.28011 1.37454-.32735 2.12786-.34375 5.78125-.009 1.9059-.0377 3.47574-.0625 3.5-.0248.0243-.11474-.0356-.21875-.15625-.38961-.45189-.89025-1.25754-1.59375-2.65625-.25913-.51521-.46831-.85723-.6875-1.25-.11807-.21158-.2821-.59409-.34375-.6875-.38174-.57838-1.08502-1.30557-1.5625-1.625-.40834-.27318-1.02423-.5-1.4375-.5-1.19363 0-2.24584 1.09346-2.5625 2.65625-.30433 1.50194.28778 2.7474 1.53125 3.21875.20356.0772.51917.11303 1.125.125.46161.009.88215.0347.90625.0625s.12415.28676.21875.5625c.27666.8066.94767 2.13079 1.96875 3.84375 1.0789 1.80996 1.76777 3.12788 2.0625 3.9375.316.86805 1.79843 6.59281 2 7.71875.17541.97978.2211 1.8742.125 2.34375-.0423.2068-.23588.79723-.4375 1.28125-.55938 1.34286-.6017 1.84609-.21875 2.90625.7618 2.10901 2.10163 3.5418 4.03125 4.34375.48816.20288.5702.21465.6875-.0625.26277-.62089.60257-1.97118.71875-2.90625.1902-1.53079.0505-2.61984-.75-6.15625-.37037-1.63618-.66131-3.625-.53125-3.625.0303.00004.27293.16386.53125.375s1.11333.89548 1.90625 1.5c2.06943 1.57771 2.32566 1.79139 4.6875 4.125.89253.88187 1.53763 1.47656 2.09375 1.96875 1.10601.97886 1.76727 1.40149 2.6875 1.71875.49581.17093.70061.21812 1.125.21875 1.03585.001 1.5078-.43173 1.5625-1.4375.0386-.70995-.17809-1.52704-.75-2.6875-.55922-1.13471-1.00752-1.72979-1.875-2.5625-1.00951-.96905-1.94617-1.6547-4.96875-3.59375-2.57335-1.65086-3.7205-2.49793-4.71875-3.5-1.31565-1.32067-1.8744-2.41637-1.9375-3.84375-.052-1.17505.2404-1.92465 1-2.6875.77881-.78214 1.63831-1.21743 4.15625-2.09375 2.66039-.92589 3.65245-1.50761 4.09375-2.40625.15358-.31278.15638-.41302.15625-.9375-.00015-.504.00022-.63626-.125-.875-.57961-1.10501-2.32402-1.77065-5.15625-1.9375l-.71875-.0313-2.40625 2.40625c-1.32228 1.32063-2.4176 2.36363-2.4375 2.34375-.0199-.0199.55592-3.10352 1.28125-6.875.72532-3.77148 1.34375-6.90494 1.34375-6.96875 0-.10758-.0584-.12901-.625-.0937z" fill="#240000" fill-opacity=".878431"/><g fill-opacity=".482353"><path d="m-149.21875 39.6875.0313.21875c.0393.42143.26001 1.4193.4375 1.90625.56027 1.5371 1.53229 2.47801 3.125 3 .37851.12405.55235.13425.59375.0625.0592-.10259-.0952-1.5674-.21875-2.09375-.36618-1.55971-1.30385-2.50075-2.90625-2.90625-.31261-.0791-.67463-.14414-.8125-.15625l-.25-.0313z"/><path d="m-170.96875 46.1875c-.0657.0256-.0832.0863-.125.1875-.113.27347-.28125 1.31522-.28125 1.71875 0 1.06126.48448 1.93942 1.40625 2.5625.35695.24128.40825.24638.40625.0937-.003-.27215-.49595-4.44289-.53125-4.5-.0218-.0353-.22776-.0625-.46875-.0625-.21767 0-.34053-.0256-.40625 0z"/><path d="m-137.53125 59.96875c-.10793 0-.67024.57495-.9375.96875-.73699 1.08592-1.31161 2.70207-1.65625 4.6875-.12234.70458-.123 1.03352-.125 2.5625-.002 1.93275.0407 2.37028.40625 3.46875.40281 1.2105 1.07121 2.01725 1.875 2.3125.12882.0473.35892.0921.53125.0937 1.00909.01 1.94317-1.11018 2.375-2.8125.36712-1.44725.0929-2.66498-1.25-5.5-.85945-1.81446-1.08414-2.53028-1.21875-3.625-.0651-.52951-.0674-1.05469.0313-1.84375.0276-.22108.0147-.3125-.0313-.3125z"/><path d="m-162.78125 71.875c-.0841 0-.0793.17879.0625.875.23134 1.13559.6423 1.81908 1.40625 2.21875.46923.24548.7653.31765 1.46875.4375.2585.044.50435.0902.53125.0937.1836.0241.0365-.71138-.28125-1.375-.29389-.61387-.99444-1.28547-1.71875-1.65625-.52708-.26981-1.34388-.59375-1.46875-.59375z"/></g><path d="m-129.25284 25.510799s1.39127-.970054 2.64875-.918954c1.46564.05956 2.43253 1.351403 2.43253 1.351403-3.24337 2.000077-5.08128-.432449-5.08128-.432449z" fill="#f00"/></g></g></svg>