<svg height="96" width="96" xmlns="http://www.w3.org/2000/svg" xmlns:xlink="http://www.w3.org/1999/xlink"><linearGradient id="a"><stop offset="0" stop-color="#fefefe"/><stop offset="1" stop-color="#fefefe" stop-opacity="0"/></linearGradient><linearGradient id="b" gradientUnits="userSpaceOnUse" x1="36.357143" x2="36.357143" xlink:href="#a" y1="6" y2="63.893143"/><filter id="c" color-interpolation-filters="sRGB" height="1.384" width="1.384" x="-.192" y="-.192"><feGaussianBlur stdDeviation="5.28"/></filter><linearGradient id="d" gradientUnits="userSpaceOnUse" x1="48" x2="48" xlink:href="#a" y1="20.220806" y2="138.66119"/><radialGradient id="e" cx="48" cy="90.171875" gradientTransform="matrix(1.1573129 0 0 .99590774 -7.551021 .197132)" gradientUnits="userSpaceOnUse" r="42" xlink:href="#a"/><clipPath id="f"><rect height="84" rx="6" width="84" x="6" y="6"/></clipPath><linearGradient id="g" gradientUnits="userSpaceOnUse" x1="48" x2="48" y1="90" y2="5.987717"><stop offset="0" stop-color="#553025"/><stop offset="1" stop-color="#a55033"/></linearGradient><linearGradient id="h" gradientTransform="matrix(1.0058652 0 0 .994169 100 0)" gradientUnits="userSpaceOnUse" x1="45.447727" x2="45.447727" y1="92.539597" y2="7.01654"><stop offset="0"/><stop offset="1" stop-opacity=".588235"/></linearGradient><linearGradient id="i" gradientTransform="matrix(1.0238095 0 0 1.0119048 -1.142857 -98.071429)" gradientUnits="userSpaceOnUse" x1="32.251034" x2="32.251034" xlink:href="#h" y1="6.131708" y2="90.238609"/><linearGradient id="j" gradientTransform="translate(0 -97)" gradientUnits="userSpaceOnUse" x1="32.251034" x2="32.251034" xlink:href="#h" y1="6.131708" y2="90.238609"/><linearGradient id="k" gradientUnits="userSpaceOnUse" x1="47.2644" x2="47.2644" y1="77.865364" y2="12.540652"><stop offset="0" stop-color="#e7cf93"/><stop offset="1" stop-color="#fefef4"/></linearGradient><radialGradient id="l" cx="108.53934" cy="7.457119" gradientTransform="matrix(-1.3703659 .00000001 -.00000001 -1.4503877 228.44457 16.815712)" gradientUnits="userSpaceOnUse" r="56.542881"><stop offset="0" stop-color="#dc916c"/><stop offset="1" stop-color="#dc916c" stop-opacity="0"/></radialGradient><g fill="url(#i)"><path d="m12-95.03125c-5.5110903 0-10.03125 4.52016-10.03125 10.03125v71c0 5.5110902 4.5201598 10.03125 10.03125 10.03125h72c5.51109 0 10.03125-4.5201597 10.03125-10.03125v-71c0-5.51109-4.52016-10.03125-10.03125-10.03125z" opacity=".08" transform="scale(1 -1)"/><path d="m12-94.03125c-4.971633 0-9.03125 4.059617-9.03125 9.03125v71c0 4.9716329 4.0596171 9.03125 9.03125 9.03125h72c4.971633 0 9.03125-4.059617 9.03125-9.03125v-71c0-4.971633-4.059617-9.03125-9.03125-9.03125z" opacity=".1" transform="scale(1 -1)"/><path d="m12-93c-4.4091333 0-8 3.590867-8 8v71c0 4.4091333 3.5908667 8 8 8h72c4.409133 0 8-3.5908667 8-8v-71c0-4.409133-3.590867-8-8-8z" opacity=".2" transform="scale(1 -1)"/><rect height="85" opacity=".3" rx="7" transform="scale(1 -1)" width="86" x="5" y="-92"/></g><rect fill="url(#j)" height="84" opacity=".45" rx="6" transform="scale(1 -1)" width="84" x="6" y="-91"/><rect fill="url(#g)" height="84" rx="6" width="84" x="6" y="6"/><path d="m12 6c-3.324 0-6 2.676-6 6v2 68 2c0 .334721.04135.6507.09375.96875.0487.295596.09704.596915.1875.875.00988.03038.020892.0636.03125.09375.098865.287771.2348802.547452.375.8125.1445918.273507.3156161.535615.5.78125s.3737765.473472.59375.6875c.439947.428056.94291.814526 1.5 1.09375.278545.139612.5734731.246947.875.34375-.2562018-.100222-.4867109-.236272-.71875-.375-.00741-.0044-.023866.0045-.03125 0-.031933-.0193-.062293-.04251-.09375-.0625-.120395-.0767-.2310226-.163513-.34375-.25-.1061728-.0808-.2132809-.161112-.3125-.25-.1779299-.161433-.3474596-.345388-.5-.53125-.1075789-.130255-.2183939-.265285-.3125-.40625-.025089-.03838-.038446-.08587-.0625-.125-.064763-.103032-.1302275-.204517-.1875-.3125-.1010083-.194706-.2056748-.415701-.28125-.625-.00796-.02181-.023589-.04055-.03125-.0625-.0318251-.09195-.0358045-.186831-.0625-.28125-.0303323-.106618-.0703894-.203031-.09375-.3125-.0728786-.341512-.125-.698205-.125-1.0625v-2-68-2c0-2.781848 2.2181517-5 5-5h2 68 2c2.781848 0 5 2.218152 5 5v2 68 2c0 .364295-.05212.720988-.125 1.0625-.04415.206893-.08838.397658-.15625.59375-.0077.02195-.0233.04069-.03125.0625-.06274.173739-.138383.367449-.21875.53125-.04158.0828-.07904.169954-.125.25-.0546.09721-.126774.18835-.1875.28125-.09411.140965-.204921.275995-.3125.40625-.143174.17445-.303141.346998-.46875.5-.01117.0102-.01998.02115-.03125.03125-.138386.125556-.285091.234436-.4375.34375-.102571.07315-.204318.153364-.3125.21875-.0074.0045-.02384-.0044-.03125 0-.232039.138728-.462548.274778-.71875.375.301527-.0968.596455-.204138.875-.34375.55709-.279224 1.060053-.665694 1.5-1.09375.219973-.214028.409366-.441865.59375-.6875s.355408-.507743.5-.78125c.14012-.265048.276135-.524729.375-.8125.01041-.03078.02133-.06274.03125-.09375.09046-.278085.1388-.579404.1875-.875.0524-.31805.09375-.634029.09375-.96875v-2-68-2c0-3.324-2.676-6-6-6z" fill="url(#b)" opacity=".35"/><path d="m12 90c-3.324 0-6-2.676-6-6v-2-68-2c0-.334721.04135-.6507.09375-.96875.0487-.295596.09704-.596915.1875-.875.00988-.03038.020892-.0636.03125-.09375.098865-.287771.2348802-.547452.375-.8125.1445918-.273507.3156161-.535615.5-.78125s.3737765-.473472.59375-.6875c.439947-.428056.94291-.814526 1.5-1.09375.278545-.139612.5734731-.246947.875-.34375-.2562018.100222-.4867109.236272-.71875.375-.00741.0044-.023866-.0045-.03125 0-.031933.0193-.062293.04251-.09375.0625-.120395.0767-.2310226.163513-.34375.25-.1061728.0808-.2132809.161112-.3125.25-.1779299.161433-.3474596.345388-.5.53125-.1075789.130255-.2183939.265285-.3125.40625-.025089.03838-.038446.08587-.0625.125-.064763.103032-.1302275.204517-.1875.3125-.1010083.194706-.2056748.415701-.28125.625-.00796.02181-.023589.04055-.03125.0625-.0318251.09195-.0358045.186831-.0625.28125-.0303323.106618-.0703894.203031-.09375.3125-.0728786.341512-.125.698205-.125 1.0625v2 68 2c0 2.781848 2.2181517 5 5 5h2 68 2c2.781848 0 5-2.218152 5-5v-2-68-2c0-.364295-.05212-.720988-.125-1.0625-.04415-.206893-.08838-.397658-.15625-.59375-.0077-.02195-.0233-.04069-.03125-.0625-.06274-.173739-.138383-.367449-.21875-.53125-.04158-.0828-.07904-.169954-.125-.25-.0546-.09721-.126774-.18835-.1875-.28125-.09411-.140965-.204921-.275995-.3125-.40625-.143174-.17445-.303141-.346998-.46875-.5-.01117-.0102-.01998-.02115-.03125-.03125-.138386-.125556-.285091-.234436-.4375-.34375-.102571-.07315-.204318-.153364-.3125-.21875-.0074-.0045-.02384.0044-.03125 0-.232039-.138728-.462548-.274778-.71875-.375.301527.0968.596455.204138.875.34375.55709.279224 1.060053.665694 1.5 1.09375.219973.214028.409366.441865.59375.6875s.355408.507743.5.78125c.14012.265048.276135.524729.375.8125.01041.03078.02133.06274.03125.09375.09046.278085.1388.579404.1875.875.0524.31805.09375.634029.09375.96875v2 68 2c0 3.324-2.676 6-6 6z" fill="url(#e)" opacity=".15"/><path d="m12.518008 6c-3.610551 0-6.518008 2.907457-6.518008 6.518008v70.963982c0 3.61055 2.907457 6.51801 6.518008 6.51801h2.625c19.232134-9.94713 17.273219-48.761728 32.23411-54.746823 17.258856-6.904394 39.822669-1.991741 39.108049-28.519067-.898643-.465935-1.917264-.73411-3.003177-.73411z" fill="url(#l)" opacity=".4"/><rect height="66" rx="12" style="opacity:.1;stroke:#fefefe;stroke-width:.5;stroke-linecap:round;clip-path:url(#f);fill:url(#d);filter:url(#c)" width="66" x="15" y="15"/><path d="m49.78125 10.96875a1.0326559 1.0326559 0 0 0 -.09375.03125c-1.428724.347094-2.23332 1.496988-2.75 2.5s-.895035 1.959633-1.3125 2.46875a1.0326559 1.0326559 0 0 0 -.03125.0625c-.729437 1.04734-1.313951 2.544458-1.8125 3.96875-.248289-.214186-.473346-.445373-.8125-.5625-.0062-.0021.0062-.02916 0-.03125-.01083-.0039-.02042.0037-.03125 0-1.2026-.413837-2.413064.07912-3.125.78125-.658927.649851-1.022767 1.437469-1.3125 2.125-.0019.0045-.02935-.0045-.03125 0-.03676.05795-.05761.128865-.09375.1875-2.248258 3.647155-3.297875 8.602474-.59375 12.5625a1.0326559 1.0326559 0 0 0 .03125.0625c1.436995 1.803717 1.090903 4.247251.875 6.875a1.0326559 1.0326559 0 0 0 .03125.3125c.16687.811185.646001 1.336908 1.25 1.71875-4.182841-.01441-8.373605-.06797-12.5625.03125a1.0326559 1.0326559 0 0 0 -.28125.0625c-.698179.225989-1.287718.650824-1.625 1.1875s-.44852 1.119244-.5 1.65625c-.10296 1.074012.04771 2.096698 0 2.6875a1.0326559 1.0326559 0 0 0 0 .09375c-.07674 6.668443-.268673 14.089578 4.03125 20.125a1.0326559 1.0326559 0 0 0 .09375.125c-.127992-.0059-.20768.007-.34375 0a1.0326559 1.0326559 0 0 0 -.0625 0c-4.399614.04439-8.853109-.08894-13.3125.0625a1.0326559 1.0326559 0 0 0 -.3125.0625c-.812516.283687-1.454023.856352-1.78125 1.53125s-.368279 1.408308-.28125 2.09375c.172971 1.362321.875148 2.602511 1.84375 3.4375v.03125c4.783461 4.175447 11.383629 4.638229 17.09375 4.78125a1.0326559 1.0326559 0 0 0 .03125 0c11.507155-.04277 23.028858.09606 34.5625-.0625a1.0326559 1.0326559 0 0 0 .09375 0c5.018429-.411353 10.90636-1.079753 14.875-5.1875v-.03125c.890586-.890673 1.450574-2.127394 1.46875-3.4375.00915-.659563-.139571-1.364136-.53125-1.96875s-1.042966-1.062857-1.84375-1.25a1.0326559 1.0326559 0 0 0 -.25-.03125c-4.53134-.062119-9.046515-.030714-13.5625-.03125 1.867399-2.338984 2.709411-5.257447 3.28125-8 1.172686-.01012 2.454659.09464 3.84375 0 1.64884-.112341 3.451076-.61274 4.71875-2.1875a1.0326559 1.0326559 0 0 0 0-.03125c1.101006-1.412625 1.34783-3.052627 1.375-4.5625.026762-1.487169-.120322-2.881983-.03125-4.09375.0034-.02134-.0032-.04117 0-.0625.562071-3.805412-2.677319-7.432227-6.59375-7.03125-.04494.0046-.07989-.03693-.125-.03125h-20.28125c1.209921-2.133803 2.221069-4.474395 2.75-6.9375.497601.279437 1.017166.537145 1.53125.5.640236-.04626 1.198104-.331386 1.65625-.65625.863015-.61195 1.446761-1.444875 1.875-2.15625.02644-.04391.09993-.08221.125-.125l-.03125-.03125c2.688344-3.405456 2.489629-8.135353.1875-11.59375a1.0326559 1.0326559 0 0 0 -.0625-.09375c-.634279-.795431-.649968-1.487118-.46875-2.5s.640709-2.186329.78125-3.5a1.0326559 1.0326559 0 0 0 0-.1875c-.116155-1.754505-1.762059-2.967604-3.4375-2.71875a1.0326559 1.0326559 0 0 0 -.15625.03125c-1.273837.392537-2.04458 1.390238-2.59375 2.3125s-.935977 1.836086-1.34375 2.4375a1.0326559 1.0326559 0 0 0 -.03125.0625c-.59128.947808-.877136 1.916481-1.0625 2.90625-.301429-2.14071-.187939-4.374915.3125-6.53125h-.03125c.379057-1.016554.240237-2.106232-.3125-2.9375-.58654-.882104-1.687703-1.495013-2.90625-1.3125zm-3 27.21875c.168504 1.081202.227151 2.154064.03125 3.25h.0625c-.465353 1.030198-.321529 2.012867-.34375 2.5625-.0016.04049.004-.000615 0 .03125a1.0326559 1.0326559 0 0 0 -.3125-.03125c-.942512.0065-1.898961-.000202-2.84375 0 .36796-.237881.671699-.555403.90625-.96875l.0625.0625c1.14617-1.394081 1.929485-3.112567 2.4375-4.90625zm24.21875 14.8125c.01658.0013.0834-.000788.09375 0-.0031.06592-.0087.06692-.0625.25a1.0326559 1.0326559 0 0 0 0 .125 1.0326559 1.0326559 0 0 0 -.03125 0z" fill="#280b0b" opacity=".05"/><path d="m49.9375 12c-2.051391.498364-2.323795 3.179968-3.508342 4.624574-1.388438 1.993546-2.77058 6.632587-2.603099 7.493218.173398-1.312047.397767-3.221708-1.201059-3.742792-1.680685-.601328-2.747003 1.201092-3.271252 2.50487-2.175659 3.43039-3.17068 8.016651-.727783 11.594125 1.760379 2.209629 1.303856 5.050813 1.092785 7.619755.37917 1.843209 3.080747 2.006095 3.825911.328591 2.568526-3.124085 3.849353-7.763569 1.580339-11.422341 1.823918 3.22275 3.388805 6.829303 2.710409 10.624477-.775838 1.244656.593434 4.083814-1.628251 3.406773-6.254064.04316-12.52728-.08536-18.769658.0625-2.005876.649269-1.278665 3.068249-1.40625 4.648185-.0768 6.673918-.210429 13.858089 3.845657 19.551259 2.417225 1.927037.882138 1.842695-1.150092 1.738056-4.427117.04467-8.873947-.08745-13.289315.0625-2.356328.822703-1.338882 4.108501.109289 5.343913 4.451819 3.900052 10.77497 4.388865 16.453211 4.531087 11.518001-.04281 23.0392.08814 34.555086-.07018 4.996193-.40953 10.618425-1.084455 14.262843-4.871744 1.31884-1.303705 1.863215-4.425375-.442929-4.964321-5.317745-.0729-10.646695-.01043-15.96875-.03125 3.115736-2.38126 4.189873-6.393984 4.90625-10.0625 2.890101-.194106 6.417006.793857 8.516711-1.814487 1.826642-2.343637.919391-5.44949 1.139539-8.188391.506169-3.186484-2.271655-6.347257-5.549611-5.934622-7.379296 0-14.758593 0-22.137889 0 3.26479-5.069708 5.578432-11.933019 2.302151-17.568655-2.232627-3.762095-2.526492-8.271686-1.552571-12.468201.64326-1.445484-.454256-3.239898-2.09333-2.994399zm8.125 3.03125c-1.859151.572904-2.393845 2.863232-3.391059 4.333998-2.409202 3.861897-.542678 8.206816 1.305445 11.789157.09659 1.618807-1.778363 3.705755.02311 4.970595 1.655884 1.252376 3.269075-.702175 4.042753-2.022827 2.488661-3.020011 2.296529-7.363714.186059-10.53419-1.697349-2.128597-.155515-4.550833.08369-6.786733-.07301-1.102809-1.177333-1.909324-2.25-1.75zm-14.3125 10.9375c.123577 1.723117.804482 4.392029.10145 1.257507-.05533-.41707-.08847-.837012-.10145-1.257507zm26.21875 26c1.352528-.148707 2.563463-.155821 2.0625 1.548963.539037 1.165914-2.61908 1.193594-2.0625-.01094 0-.512673 0-1.025346 0-1.538019z" fill="#280b0b" opacity=".1"/><path d="m50.09375 13.0625a.91274745.91274745 0 0 0 -.65625.4375c-2.095266 3.510328-3.517171 6.141271-4.21875 8.5625s-.643597 4.635603.15625 7c1.4871 4.395955 4.879919 5.995423 3.15625 15.0625a.91274745.91274745 0 0 0 1.6875.65625c2.989975-4.666295 5.364004-10.868767 2.84375-16-2.313701-4.710695-3.374003-7.077055-1.9375-14.65625a.91274745.91274745 0 0 0 -1.03125-1.0625zm8.125 3.03125a.91274745.91274745 0 0 0 -.59375.40625c-1.467796 2.170946-2.42954 3.900584-2.84375 5.59375s-.233762 3.339286.46875 4.96875c.698508 1.620179 1.375973 2.499153 1.625 3.3125s.262837 1.72049-.5625 3.84375a.91274745.91274745 0 0 0 1.53125.9375c1.647908-1.858364 2.587014-3.460064 2.90625-5.0625s-.047658-3.103428-.75-4.59375c-.700604-1.486633-1.304156-2.410392-1.53125-3.4375s-.167386-2.336675.75-4.75a.91274745.91274745 0 0 0 -1-1.21875zm-16.375 5.25a.91274745.91274745 0 0 0 -.65625.4375c-1.319255 2.265622-2.209058 3.987479-2.65625 5.59375s-.420768 3.12995.125 4.6875c1.026282 2.92888 3.117173 3.68573 2.09375 9.40625a.91274745.91274745 0 0 0 1.625.71875c1.706512-2.152919 2.583792-4.083529 2.8125-5.875s-.208993-3.3862-1-4.8125c-1.38341-2.494492-2.166299-4.306185-1.3125-9.09375a.91274745.91274745 0 0 0 -1.03125-1.0625zm-14.03125 24.75a.91274745.91274745 0 0 0 -.71875.90625v8c0 4.554456.908101 8.659951 2.4375 11.71875s3.762925 5.1875 6.46875 5.1875h24c2.283675 0 4.26063-1.521426 5.71875-3.8125 1.342312-2.109111 2.2476-4.976064 2.75-8.1875h5.53125c2.151825 0 3.90625-1.754425 3.90625-3.90625v-6c0-2.151825-1.754425-3.90625-3.90625-3.90625h-6-40a.91274745.91274745 0 0 0 -.1875 0zm5.0625 3.78125h.21875v5.125c.0084.725211.0012 1.613427 0 2.46875-.042784-.819574-.158089-1.759171-.21875-2.46875v-.09375zm36.03125 1.03125h3.21875c.548925 0 .96875.419825.96875.96875v2.5c0 .548925-.419825.96875-.96875.96875h-3.21875c.002-.116467 0-.223709 0-.34375zm-53.09375 21.1875a.91274745.91274745 0 0 0 -.71875.90625c0 1.15755.631248 2.202854 1.5625 3.03125s2.169741 1.493341 3.6875 2.0625c3.035517 1.138319 7.132408 1.8125 11.65625 1.8125h32c4.523842 0 8.620733-.674181 11.65625-1.8125 1.517759-.569159 2.756248-1.234104 3.6875-2.0625s1.5625-1.8737 1.5625-3.03125a.91274745.91274745 0 0 0 -.90625-.90625h-64a.91274745.91274745 0 0 0 -.1875 0z" fill="#280b0b" opacity=".15"/><path d="m50.21875 13.96875c-4.166912 6.981084-5.471938 10.368983-3.96875 14.8125 1.362615 4.027969 4.958328 6.184849 3.1875 15.5 2.908149-4.538594 5.096255-10.444028 2.8125-15.09375-2.322749-4.729117-3.491833-7.512507-2.03125-15.21875zm8.15625 3.03125c-2.882729 4.263705-3.56807 6.702743-2.28125 9.6875 1.310285 3.039185 2.783751 3.446912 1.0625 7.875 3.175759-3.581339 3.339455-5.911577 2.03125-8.6875-1.334539-2.831798-2.714297-3.872028-.8125-8.875zm-16.40625 5.25c-2.615365 4.491496-3.429174 6.669894-2.4375 9.5.898933 2.565443 3.192512 3.908042 2.125 9.875 3.276218-4.133245 3.169375-7.071815 1.71875-9.6875-1.414239-2.550082-2.286577-4.751182-1.40625-9.6875zm-13.96875 24.75v8c0 8.864 3.568 16 8 16h24c3.7395 0 6.864919-5.088026 7.75-12h6.25c1.662 0 3-1.338 3-3v-6c0-1.662-1.338-3-3-3h-6zm3.96875 1.96875h2.03125v6.03125c.05175 4.461807-.542701 11.504655 4 14.03125h-1.5c-4.607784-2.172357-4.156231-9.789332-4.53125-14.03125zm36.03125 1.03125h4.125c1.03875 0 1.875.83625 1.875 1.875v2.5c0 1.03875-.83625 1.875-1.875 1.875h-4.15625c.016197-.41761.03125-.823799.03125-1.25zm-52 23c0 3.324 7.136 6 16 6h32c8.864 0 16-2.676 16-6z" fill="#280b0b" opacity=".3"/><path d="m50.21875 12.96875c-4.166912 6.981084-5.471938 10.368983-3.96875 14.8125 1.362615 4.027969 4.958328 6.184849 3.1875 15.5 2.908149-4.538594 5.096255-10.444028 2.8125-15.09375-2.322749-4.729117-3.491833-7.512507-2.03125-15.21875zm8.15625 3.03125c-2.882729 4.263705-3.56807 6.702743-2.28125 9.6875 1.310285 3.039185 2.783751 3.446912 1.0625 7.875 3.175759-3.581339 3.339455-5.911577 2.03125-8.6875-1.334539-2.831798-2.714297-3.872028-.8125-8.875zm-16.40625 5.25c-2.615365 4.491496-3.429174 6.669894-2.4375 9.5.898933 2.565443 3.192512 3.908042 2.125 9.875 3.276218-4.133245 3.169375-7.071815 1.71875-9.6875-1.414239-2.550082-2.286577-4.751182-1.40625-9.6875zm-13.96875 24.75v8c0 8.864 3.568 16 8 16h24c3.7395 0 6.864919-5.088026 7.75-12h6.25c1.662 0 3-1.338 3-3v-6c0-1.662-1.338-3-3-3h-6zm3.96875 1.96875h2.03125v6.03125c.05175 4.461807-.542701 11.504655 4 14.03125h-1.5c-4.607784-2.172357-4.156231-9.789332-4.53125-14.03125zm36.03125 1.03125h4.125c1.03875 0 1.875.83625 1.875 1.875v2.5c0 1.03875-.83625 1.875-1.875 1.875h-4.15625c.016197-.41761.03125-.823799.03125-1.25zm-52 23c0 3.324 7.136 6 16 6h32c8.864 0 16-2.676 16-6z" fill="url(#k)"/><path d="m50.21875 12.96875c-3.175193 5.319596-4.687046 8.546264-4.5625 11.75.188504-2.815411 1.65008-5.830738 4.34375-10.375.07225-.454123.125395-.882448.21875-1.375zm8.15625 3.03125c-2.14085 3.166428-3.065727 5.312888-2.875 7.4375.121763-1.58137.876359-3.272406 2.25-5.4375.149209-.599483.334696-1.236311.625-2zm-8.8125 3.4375c-.07356 3.948058 1.015893 6.346609 2.6875 9.75.566377 1.153143.863981 2.388644.9375 3.65625.04524-1.61826-.223827-3.203212-.9375-4.65625-1.526719-3.108399-2.576754-5.372364-2.6875-8.75zm7.90625 1.03125c-.206764 2.280419.767808 3.388419 1.71875 5.40625.398445.845474.636903 1.658023.71875 2.46875.103835-1.163172-.156473-2.275637-.71875-3.46875-.797515-1.692272-1.598918-2.76554-1.71875-4.40625zm-15.5.78125c-2.063372 3.543531-2.993741 5.6613-2.8125 7.78125.135223-1.744141 1.012593-3.640399 2.625-6.4375.05367-.43272.101541-.861744.1875-1.34375zm-.3125 3.96875c-.113707 2.978924.625502 4.747463 1.71875 6.71875.512796.924645.850632 1.893648.9375 2.9375.108943-1.439307-.264599-2.724163-.9375-3.9375-.963826-1.737921-1.641565-3.328738-1.71875-5.71875zm16.25 5.59375c-.0737.726242-.300768 1.594307-.75 2.75.195616-.220599.35813-.413498.53125-.625.229553-.877619.288504-1.540064.21875-2.125zm-16 7.4375c-.02523.704967-.09038 1.482807-.25 2.375.0696-.0878.120938-.163268.1875-.25.08902-.798256.09323-1.496224.0625-2.125zm8 1.03125c-.03661 1.176045-.180452 2.483456-.46875 4 .07995-.12478.171213-.248209.25-.375.196022-1.36607.243373-2.560597.21875-3.625zm-21.90625 6.71875v1h40 6c1.662 0 3 1.338 3 3v-1c0-1.662-1.338-3-3-3h-6zm46 7.375c0 1.03875-.83625 1.875-1.875 1.875h-4.125c-.0044.335618-.01829.66586-.03125 1h4.15625c1.03875 0 1.875-.83625 1.875-1.875zm-42.03125.625v1c.375019 4.241918-.07653 11.858893 4.53125 14.03125h1.5c-.500391-.278311-.929044-.621578-1.3125-1h-.1875c-4.607784-2.172357-4.156231-9.789332-4.53125-14.03125zm-15.96875 18c0 .337467.0773.678013.21875 1h63.5625c.141445-.321987.21875-.662533.21875-1z" fill="#fefefe"/></svg>