<svg height="96" width="96" xmlns="http://www.w3.org/2000/svg" xmlns:xlink="http://www.w3.org/1999/xlink"><linearGradient id="a"><stop offset="0" stop-color="#fefefe"/><stop offset="1" stop-color="#fefefe" stop-opacity="0"/></linearGradient><linearGradient id="b" gradientUnits="userSpaceOnUse" x1="36.357143" x2="36.357143" xlink:href="#a" y1="6" y2="63.893143"/><filter id="c" color-interpolation-filters="sRGB" height="1.384" width="1.384" x="-.192" y="-.192"><feGaussianBlur stdDeviation="5.28"/></filter><linearGradient id="d" gradientUnits="userSpaceOnUse" x1="48" x2="48" xlink:href="#a" y1="20.220806" y2="138.66119"/><radialGradient id="e" cx="48" cy="90.171875" gradientTransform="matrix(1.1573129 0 0 .99590774 -7.551021 .197132)" gradientUnits="userSpaceOnUse" r="42" xlink:href="#a"/><clipPath id="f"><rect height="84" rx="6" width="84" x="6" y="6"/></clipPath><linearGradient id="g" gradientUnits="userSpaceOnUse" x1="48" x2="48" y1="90" y2="5.987717"><stop offset="0" stop-color="#e9a2b2"/><stop offset="1" stop-color="#ffbecb"/></linearGradient><linearGradient id="h" gradientTransform="matrix(1.0058652 0 0 .994169 100 0)" gradientUnits="userSpaceOnUse" x1="45.447727" x2="45.447727" y1="92.539597" y2="7.01654"><stop offset="0"/><stop offset="1" stop-opacity=".588235"/></linearGradient><linearGradient id="i" gradientTransform="matrix(1.0238095 0 0 1.0119048 -1.142857 -98.071429)" gradientUnits="userSpaceOnUse" x1="32.251034" x2="32.251034" xlink:href="#h" y1="6.131708" y2="90.238609"/><linearGradient id="j" gradientTransform="translate(0 -97)" gradientUnits="userSpaceOnUse" x1="32.251034" x2="32.251034" xlink:href="#h" y1="6.131708" y2="90.238609"/><radialGradient id="k" cx="41.247238" cy="11.364712" fx="41.771999" fy="11.680827" gradientTransform="matrix(.3650513 -.5609361 1.4421477 .9385381 10.519018 23.382758)" gradientUnits="userSpaceOnUse" r="4.917909" xlink:href="#l"/><linearGradient id="l"><stop offset="0" stop-color="#59a40f"/><stop offset="1" stop-color="#306102"/></linearGradient><radialGradient id="m" cx="29.495701" cy="-3.597383" gradientTransform="matrix(-.7988298 .07667792 -.03200596 -.3334379 53.946913 1.611458)" gradientUnits="userSpaceOnUse" r="9.750001" xlink:href="#l"/><radialGradient id="n" cx="33.921108" cy="32.026119" gradientTransform="matrix(1.097181 -.06040066 .05995679 1.0724194 -4.798916 -.439541)" gradientUnits="userSpaceOnUse" r="12.011442" xlink:href="#o"/><linearGradient id="o"><stop offset="0" stop-color="#d50f0f"/><stop offset="1" stop-color="#860000"/></linearGradient><radialGradient id="p" cx="25.346392" cy="30.310101" fx="22.505642" fy="25.064268" gradientTransform="matrix(.7893072 .4930809 -.2597058 .4157284 13.249074 5.188737)" gradientUnits="userSpaceOnUse" r="12.011442" xlink:href="#a"/><linearGradient id="q" gradientUnits="userSpaceOnUse" x1="42.550949" x2="22.733898" xlink:href="#o" y1="46.025867" y2="23.322678"/><radialGradient id="r" cx="16.357241" cy="27.468206" gradientTransform="matrix(1.0249592 .00838735 -.00872225 .9898042 1.275464 -3.434276)" gradientUnits="userSpaceOnUse" r="11.05701" xlink:href="#o"/><radialGradient id="s" cx="9.795707" cy="24.748089" fx="9.623257" fy="19.022348" gradientTransform="matrix(.6056649 .551086 -.313263 .3495356 13.582145 6.08885)" gradientUnits="userSpaceOnUse" r="11.05701" xlink:href="#a"/><linearGradient id="t" gradientTransform="matrix(.9456547 .04095475 -.04171466 .949375 3.270955 -2.808759)" gradientUnits="userSpaceOnUse" x1="25.127941" x2="7.213109" xlink:href="#o" y1="38.802361" y2="18.547888"/><radialGradient id="u" cx="23.261456" cy="33.479305" gradientTransform="matrix(1.0945361 .0051153 -.0049669 .9433728 -.772008 -1.480212)" gradientUnits="userSpaceOnUse" r="11.05701"><stop offset="0"/><stop offset="1" stop-opacity="0"/></radialGradient><g fill="url(#i)"><path d="m12-95.03125c-5.5110903 0-10.03125 4.52016-10.03125 10.03125v71c0 5.5110902 4.5201598 10.03125 10.03125 10.03125h72c5.51109 0 10.03125-4.5201597 10.03125-10.03125v-71c0-5.51109-4.52016-10.03125-10.03125-10.03125z" opacity=".08" transform="scale(1 -1)"/><path d="m12-94.03125c-4.971633 0-9.03125 4.059617-9.03125 9.03125v71c0 4.9716329 4.0596171 9.03125 9.03125 9.03125h72c4.971633 0 9.03125-4.059617 9.03125-9.03125v-71c0-4.971633-4.059617-9.03125-9.03125-9.03125z" opacity=".1" transform="scale(1 -1)"/><path d="m12-93c-4.4091333 0-8 3.590867-8 8v71c0 4.4091333 3.5908667 8 8 8h72c4.409133 0 8-3.5908667 8-8v-71c0-4.409133-3.590867-8-8-8z" opacity=".2" transform="scale(1 -1)"/><rect height="85" opacity=".3" rx="7" transform="scale(1 -1)" width="86" x="5" y="-92"/></g><rect fill="url(#j)" height="84" opacity=".45" rx="6" transform="scale(1 -1)" width="84" x="6" y="-91"/><rect fill="url(#g)" height="84" rx="6" width="84" x="6" y="6"/><path d="m12 6c-3.324 0-6 2.676-6 6v2 68 2c0 .334721.04135.6507.09375.96875.0487.295596.09704.596915.1875.875.00988.03038.020892.0636.03125.09375.098865.287771.2348802.547452.375.8125.1445918.273507.3156161.535615.5.78125s.3737765.473472.59375.6875c.439947.428056.94291.814526 1.5 1.09375.278545.139612.5734731.246947.875.34375-.2562018-.100222-.4867109-.236272-.71875-.375-.00741-.0044-.023866.0045-.03125 0-.031933-.0193-.062293-.04251-.09375-.0625-.120395-.0767-.2310226-.163513-.34375-.25-.1061728-.0808-.2132809-.161112-.3125-.25-.1779299-.161433-.3474596-.345388-.5-.53125-.1075789-.130255-.2183939-.265285-.3125-.40625-.025089-.03838-.038446-.08587-.0625-.125-.064763-.103032-.1302275-.204517-.1875-.3125-.1010083-.194706-.2056748-.415701-.28125-.625-.00796-.02181-.023589-.04055-.03125-.0625-.0318251-.09195-.0358045-.186831-.0625-.28125-.0303323-.106618-.0703894-.203031-.09375-.3125-.0728786-.341512-.125-.698205-.125-1.0625v-2-68-2c0-2.781848 2.2181517-5 5-5h2 68 2c2.781848 0 5 2.218152 5 5v2 68 2c0 .364295-.05212.720988-.125 1.0625-.04415.206893-.08838.397658-.15625.59375-.0077.02195-.0233.04069-.03125.0625-.06274.173739-.138383.367449-.21875.53125-.04158.0828-.07904.169954-.125.25-.0546.09721-.126774.18835-.1875.28125-.09411.140965-.204921.275995-.3125.40625-.143174.17445-.303141.346998-.46875.5-.01117.0102-.01998.02115-.03125.03125-.138386.125556-.285091.234436-.4375.34375-.102571.07315-.204318.153364-.3125.21875-.0074.0045-.02384-.0044-.03125 0-.232039.138728-.462548.274778-.71875.375.301527-.0968.596455-.204138.875-.34375.55709-.279224 1.060053-.665694 1.5-1.09375.219973-.214028.409366-.441865.59375-.6875s.355408-.507743.5-.78125c.14012-.265048.276135-.524729.375-.8125.01041-.03078.02133-.06274.03125-.09375.09046-.278085.1388-.579404.1875-.875.0524-.31805.09375-.634029.09375-.96875v-2-68-2c0-3.324-2.676-6-6-6z" fill="url(#b)" opacity=".4"/><path d="m12 90c-3.324 0-6-2.676-6-6v-2-68-2c0-.334721.04135-.6507.09375-.96875.0487-.295596.09704-.596915.1875-.875.00988-.03038.020892-.0636.03125-.09375.098865-.287771.2348802-.547452.375-.8125.1445918-.273507.3156161-.535615.5-.78125s.3737765-.473472.59375-.6875c.439947-.428056.94291-.814526 1.5-1.09375.278545-.139612.5734731-.246947.875-.34375-.2562018.100222-.4867109.236272-.71875.375-.00741.0044-.023866-.0045-.03125 0-.031933.0193-.062293.04251-.09375.0625-.120395.0767-.2310226.163513-.34375.25-.1061728.0808-.2132809.161112-.3125.25-.1779299.161433-.3474596.345388-.5.53125-.1075789.130255-.2183939.265285-.3125.40625-.025089.03838-.038446.08587-.0625.125-.064763.103032-.1302275.204517-.1875.3125-.1010083.194706-.2056748.415701-.28125.625-.00796.02181-.023589.04055-.03125.0625-.0318251.09195-.0358045.186831-.0625.28125-.0303323.106618-.0703894.203031-.09375.3125-.0728786.341512-.125.698205-.125 1.0625v2 68 2c0 2.781848 2.2181517 5 5 5h2 68 2c2.781848 0 5-2.218152 5-5v-2-68-2c0-.364295-.05212-.720988-.125-1.0625-.04415-.206893-.08838-.397658-.15625-.59375-.0077-.02195-.0233-.04069-.03125-.0625-.06274-.173739-.138383-.367449-.21875-.53125-.04158-.0828-.07904-.169954-.125-.25-.0546-.09721-.126774-.18835-.1875-.28125-.09411-.140965-.204921-.275995-.3125-.40625-.143174-.17445-.303141-.346998-.46875-.5-.01117-.0102-.01998-.02115-.03125-.03125-.138386-.125556-.285091-.234436-.4375-.34375-.102571-.07315-.204318-.153364-.3125-.21875-.0074-.0045-.02384.0044-.03125 0-.232039-.138728-.462548-.274778-.71875-.375.301527.0968.596455.204138.875.34375.55709.279224 1.060053.665694 1.5 1.09375.219973.214028.409366.441865.59375.6875s.355408.507743.5.78125c.14012.265048.276135.524729.375.8125.01041.03078.02133.06274.03125.09375.09046.278085.1388.579404.1875.875.0524.31805.09375.634029.09375.96875v2 68 2c0 3.324-2.676 6-6 6z" fill="url(#e)" opacity=".2"/><rect height="66" rx="12" style="opacity:.1;stroke:#fefefe;stroke-width:.5;stroke-linecap:round;clip-path:url(#f);fill:url(#d);filter:url(#c)" width="66" x="15" y="15"/><g transform="matrix(1.4879413 0 0 1.4879413 11.293426 15.10881)"><path d="m23.835864 30.313446c-3.509264 4.432047-10.085752 7.113205-14.6313401 3.714008-5.2695411-2.203642-6.054396-9.086931-3.7720246-14.219332 2.5635189-5.76462 8.1349067-6.618003 14.2693627-3.116229 6.134453 3.501778 8.075541 8.643559 4.134002 13.621553z" fill="url(#r)" stroke="#520000"/><path d="m23.835864 30.313446c-3.509264 4.432047-10.085752 7.113205-14.6313401 3.714008-5.2695411-2.203642-6.054396-9.086931-3.7720246-14.219332 2.5635189-5.76462 8.1349067-6.618003 14.2693627-3.116229 6.134453 3.501778 8.075541 8.643559 4.134002 13.621553z" fill="url(#s)" opacity=".66" stroke="#520000"/><path d="m12.677627 15.595635c-4.2954133.128084-6.4033233 3.738112-7.1326048 6.981594-1.0576304 4.703817.4641236 9.228628 4.2269864 10.623419 3.3642544 2.685912 8.6911344 1.057484 11.9031124-2.017887 3.105949-2.973855 4.225221-6.053196 2.265473-9.344724-1.655439-2.90808-6.896197-6.261542-11.262967-6.242402z" fill="none" stroke="url(#t)"/><path d="m15.809853 16.254682c-.410357 2.183341 2.730353 4.455747 5.52119 3.060608" fill="none" stroke="#520000"/><path d="m24.554584 30.151668c-4.223221 5.640284-11.131712 7.647228-15.6772997 4.248032-5.2695411-2.203642-5.7271564-9.459177-3.444785-14.591578 2.5635189-5.76462 8.3726127-7.016468 14.5302327-3.555589 6.463972 3.625349 8.162684 9.15455 4.591852 13.899135z" fill="url(#u)"/></g><g transform="matrix(1.3690096 .05928955 -.06062287 1.3797027 16.948845 11.697247)"><path d="m41.737504 37.155718c-2.279722 6.288872-8.636377 11.670921-14.976424 9.411231-6.70613-.642133-10.13411-8.200552-9.485159-14.85215.72889-7.470957 6.639519-10.416091 14.793381-8.602451 8.153861 1.813641 12.228746 6.979824 9.668202 14.04337z" fill="url(#n)" stroke="#520000"/><path d="m41.711204 37.144794c-2.277279 6.295786-8.627121 11.683751-14.960373 9.421577-6.698943-.642839-10.123249-8.209567-9.474994-14.868477.728109-7.47917 6.632404-10.427541 14.777527-8.611908 8.145122 1.815635 12.21564 6.987497 9.65784 14.058808z" fill="url(#p)" opacity=".66" stroke="#520000"/><g fill="none"><path d="m26.576435 23.697387c-3.07205.155699-5.787765 1.525561-7.161646 4.252889-2.536789 5.035851-.534722 11.521311 1.70598 14.298856 2.676736 3.324223 4.934282 3.044001 6.227098 3.37753 4.357162 1.420678 8.868153-1.071186 11.727552-5.604975 4.783396-7.584431 1.766894-12.681507-4.479051-15.087571-2.496318-.961632-5.266809-1.376265-8.019933-1.236729z" stroke="url(#q)"/><path d="m27.84062 23.746953c-.601384 3.336063 4.88838 5.213413 6.335518 2.000743" stroke="#520000"/></g></g><g transform="matrix(1.3690096 .05928955 -.06937637 1.5789217 16.967183 11.279881)"><path d="m24.613318 3.4222499c4.379842-2.7467726 13.961143.2358344 13.961143.2358344s-7.194349 6.7152987-10.797264 5.9843217c-3.083646-.6308716-11.58128-5.2338955-11.58128-5.2338955s4.589896 1.4036024 8.417401-.9862606z" fill="url(#m)" stroke="#2d5a00"/><path d="m20.413638 5.5583702c3.252501 1.6506296 6.390266 2.9191585 6.970787 3.1115861 2.6918.8922622 7.755537-3.3330921 9.323126-4.624991-2.065222-.5116908-8.081642-1.6512721-11.074123-.1601552-1.050744.5235917-3.020116 1.5519953-5.21979 1.6735601z" fill="none" stroke="#59aa0a" stroke-miterlimit="9"/></g><path d="m70.056682 18.511571s-2.47543 1.709015-2.47543 1.709015c-25.343566 8.569608-27.908717 20.957064-31.306895 20.87125.853731 1.696898 2.531208 2.027758 4.769416 2.17413-2.753532-2.989974 8.10215-14.45763 24.600153-20.592184-6.343422 9.009373-7.890521 25.944706-10.119944 26.127423 1.787363 1.208905 2.852073 1.687989 4.725995.723595-1.787264-1.962621 1.362485-17.93069 7.307738-26.894227 0 0 4.054487-2.451629 4.054487-2.451629z" fill="#4e9a06" stroke="#275000" stroke-width="1.487941"/><g transform="matrix(1.3690096 .05928955 -.0606869 1.38116 16.951893 11.62789)"><path d="m39.150684 3.4294307c-.231607 1.1725256-.737803 2.1469717 5.65175 5.6215444 2.956888 1.6079249.964183 5.0964169.410371 9.7184059-5.078247-4.748055-10.409304-10.070394-6.062121-15.3399503z" fill="url(#k)" stroke="#2d5a00"/><path d="m38.775684 5.9606807c-.125.25-.788081 2.0597804.715085 4.7895463.987771 1.945642 3.283821 4.336522 5.050161 6.019154.725687-3.731364 1.518337-5.789898-.051-6.749656-.6673-.4081036-2.440288-1.3294194-3.675136-2.1967486-1.649885-1.1588418-2.03911-1.8622957-2.03911-1.8622957z" fill="none" stroke="#59aa0a"/></g></svg>