<svg height="96" width="96" xmlns="http://www.w3.org/2000/svg" xmlns:xlink="http://www.w3.org/1999/xlink"><linearGradient id="a"><stop offset="0" stop-color="#2f5a88"/><stop offset="1" stop-color="#346396" stop-opacity="0"/></linearGradient><linearGradient id="b"><stop offset="0" stop-color="#fefefe"/><stop offset="1" stop-color="#fefefe" stop-opacity="0"/></linearGradient><linearGradient id="c"><stop offset="0" stop-color="#e0e0e0"/><stop offset="1" stop-color="#fefefe"/></linearGradient><linearGradient id="d" gradientUnits="userSpaceOnUse" x1="36.357143" x2="36.357143" xlink:href="#b" y1="6" y2="63.893143"/><radialGradient id="e" cx="48" cy="90.171875" gradientTransform="matrix(1.1573129 0 0 .99590774 -7.551021 .197132)" gradientUnits="userSpaceOnUse" r="42" xlink:href="#b"/><linearGradient id="f" gradientUnits="userSpaceOnUse" x1="158" x2="158" xlink:href="#c" y1="90" y2="5.987717"/><linearGradient id="g" gradientTransform="matrix(1.0058652 0 0 .994169 100 0)" gradientUnits="userSpaceOnUse" x1="45.447727" x2="45.447727" y1="92.539597" y2="7.01654"><stop offset="0"/><stop offset="1" stop-opacity=".588235"/></linearGradient><linearGradient id="h" gradientTransform="matrix(1.0238095 0 0 1.0119048 -1.142857 -98.071429)" gradientUnits="userSpaceOnUse" x1="32.251034" x2="32.251034" xlink:href="#g" y1="6.131708" y2="90.238609"/><linearGradient id="i" gradientTransform="translate(0 -97)" gradientUnits="userSpaceOnUse" x1="32.251034" x2="32.251034" xlink:href="#g" y1="6.131708" y2="90.238609"/><radialGradient id="j" cx="45.437672" cy="37.516293" gradientTransform="matrix(.00000003 1.7777777 -2.6666668 .00000004 148.04345 -47.000303)" gradientUnits="userSpaceOnUse" r="16"><stop offset="0" stop-color="#98bbe2"/><stop offset="1" stop-color="#3878bb"/></radialGradient><radialGradient id="k" cx="48" cy="-6.55" gradientTransform="matrix(1.9047619 0 0 .625 -43.428571 12.09375)" gradientUnits="userSpaceOnUse" r="42"><stop offset="0" stop-color="#5f89b7"/><stop offset="1" stop-color="#4071a0"/></radialGradient><radialGradient id="l" cx="30.791513" cy="55.203083" gradientTransform="matrix(0 1.6122867 -1.6663814 0 132.20162 -1.574011)" gradientUnits="userSpaceOnUse" r="30.40625"><stop offset="0" stop-color="#89b7e1"/><stop offset=".57428855" stop-color="#85b4df"/><stop offset=".75" stop-color="#77a9d9"/><stop offset="1" stop-color="#679cd2"/></radialGradient><radialGradient id="m" cx="80.272285" cy="57.492752" gradientTransform="matrix(0 2.6037253 -2.4520544 0 198.1082 -168.17716)" gradientUnits="userSpaceOnUse" r="21"><stop offset="0" stop-color="#d0e2f1"/><stop offset=".60882944" stop-color="#c6dcef"/><stop offset=".79731107" stop-color="#b1cfea"/><stop offset="1" stop-color="#92bce3"/></radialGradient><linearGradient id="n" gradientTransform="matrix(0 1 -1 0 206 0)" gradientUnits="userSpaceOnUse" x1="26" x2="70" y1="48" y2="48"><stop offset="0"/><stop offset="1" stop-opacity="0"/></linearGradient><linearGradient id="o" gradientUnits="userSpaceOnUse" x1="48.0000008" x2="48.0000008" xlink:href="#c" y1="93.818183" y2="2.16841896352"/><linearGradient id="p" gradientUnits="userSpaceOnUse" x1="49.922932" x2="55.387222" xlink:href="#a" y1="26.065477" y2="42.517231"/><linearGradient id="q" gradientUnits="userSpaceOnUse" x1="63.780933" x2="39.036816" xlink:href="#a" y1="63.379192" y2="66.370422"/><linearGradient id="r" gradientUnits="userSpaceOnUse" x1="25.870298" x2="36.988956" xlink:href="#a" y1="51.93507" y2="30.996477"/><g fill="url(#h)"><path d="m12-95.03125c-5.5110903 0-10.03125 4.52016-10.03125 10.03125v71c0 5.5110902 4.5201598 10.03125 10.03125 10.03125h72c5.51109 0 10.03125-4.5201597 10.03125-10.03125v-71c0-5.51109-4.52016-10.03125-10.03125-10.03125z" opacity=".08" transform="scale(1 -1)"/><path d="m12-94.03125c-4.971633 0-9.03125 4.059617-9.03125 9.03125v71c0 4.9716329 4.0596171 9.03125 9.03125 9.03125h72c4.971633 0 9.03125-4.059617 9.03125-9.03125v-71c0-4.971633-4.059617-9.03125-9.03125-9.03125z" opacity=".1" transform="scale(1 -1)"/><path d="m12-93c-4.4091333 0-8 3.590867-8 8v71c0 4.4091333 3.5908667 8 8 8h72c4.409133 0 8-3.5908667 8-8v-71c0-4.409133-3.590867-8-8-8z" opacity=".2" transform="scale(1 -1)"/><rect height="85" opacity=".3" rx="7" transform="scale(1 -1)" width="86" x="5" y="-92"/></g><rect fill="url(#i)" height="84" opacity=".45" rx="6" transform="scale(1 -1)" width="84" x="6" y="-91"/><path d="m46 16c-3.324 0-6 2.676-6 6v5.5c2.47995-.968744 5.176988-1.5 8-1.5 12.150264 0 22 9.849736 22 22h20v-22-10z" fill="#dca325"/><path d="m69.9375 49.5c-.230003 3.446727-1.239296 6.669962-2.875 9.5-.08047.139231-.166586.268969-.25.40625-3.858519 6.350273-10.838889 10.59375-18.8125 10.59375-2.827806 0-5.516321-.529223-8-1.5v21.5h9.15625 22.84375v-36c0-1.806203-.80762-3.401835-2.0625-4.5z" fill="#3b9342"/><path d="m6 16v3.28125 52.71875h28c2.503387 0 4.629252-1.518162 5.53125-3.6875-4.46382-1.864159-8.194031-5.160588-10.59375-9.3125-.096786-.167457-.188788-.329793-.28125-.5-1.693393-3.117252-2.65625-6.703042-2.65625-10.5 0-9.327252 5.806228-17.299263 14-20.5v-5.5c0-3.324-2.676-6-6-6z" fill="#df2227"/><path d="m48 24c-13.25484 0-24 10.745164-24 24s10.74516 24 24 24 24-10.745164 24-24-10.74516-24-24-24z" fill="url(#o)"/><rect fill="url(#f)" height="84" rx="6" width="84" x="116" y="6"/><path d="m12 6c-3.324 0-6 2.676-6 6v7.28125l22.65625 39.21875c-1.693393-3.117252-2.65625-6.703042-2.65625-10.5 0-12.150264 9.849736-22 22-22h42v-14c0-3.324-2.676-6-6-6z" fill="url(#k)"/><path d="m48 26c12.150264 0 22 9.849736 22 22 0 4.004278-1.068124 7.765671-2.9375 11-.08047.139231-.166586.268969-.25.40625l-17.65625 30.59375h34.84375c3.324 0 6-2.676 6-6v-58z" fill="url(#m)"/><path d="m6 19.28125v64.71875c0 3.324 2.676 6 6 6h37.15625l17.65625-30.59375c-3.858519 6.350273-10.838889 10.59375-18.8125 10.59375-8.145986 0-15.259591-4.420337-19.0625-11-.096786-.167457-.188788-.329793-.28125-.5z" fill="url(#l)"/><path d="m48 216h66v-46h-134v100h68z" fill="#f00" opacity=".5"/><path d="m67.052559 249-33 57.15768 39.837168 23 67.000003-116.04741-86.602543-50-34 58.88973z" fill="#f00" opacity=".5"/><path d="m28.947442 249-33.0000031-57.15768-39.8371679 23 67.000001 116.04741 86.602538-50-33.999996-58.88973z" fill="#f00" opacity=".5"/><path d="m64 48a16 16 0 1 1 -32 0 16 16 0 1 1 32 0z" fill="url(#j)" transform="matrix(1.1875 0 0 1.1875 -9 -9)"/><path d="m180 48c0-12.150264-9.84974-22-22-22s-22 9.849736-22 22 9.84974 22 22 22 22-9.849736 22-22zm-1 0c0 11.59798-9.40202 21-21 21s-21-9.40202-21-21 9.40202-21 21-21 21 9.40202 21 21z" fill="url(#n)" opacity=".1"/><path d="m48 26c6.945511 0 13.124331 3.223003 17.15625 8.25l24.84375-6.09375v-2.15625z" fill="url(#p)" opacity=".3"/><path d="m66.8125 59.40625c-3.308282 5.444704-8.912198 9.343326-15.46875 10.34375l-5.9375 20.25h3.75z" fill="url(#q)" opacity=".25"/><path d="m6 16.3125v2.96875l22.65625 39.21875c-1.693393-3.117252-2.65625-6.703042-2.65625-10.5 0-2.872424.561262-5.609468 1.5625-8.125z" fill="url(#r)"/><path d="m12 90c-3.324 0-6-2.676-6-6v-2-68-2c0-.334721.04135-.6507.09375-.96875.0487-.295596.09704-.596915.1875-.875.00988-.03038.020892-.0636.03125-.09375.098865-.287771.2348802-.547452.375-.8125.1445918-.273507.3156161-.535615.5-.78125s.3737765-.473472.59375-.6875c.439947-.428056.94291-.814526 1.5-1.09375.278545-.139612.5734731-.246947.875-.34375-.2562018.100222-.4867109.236272-.71875.375-.00741.0044-.023866-.0045-.03125 0-.031933.0193-.062293.04251-.09375.0625-.120395.0767-.2310226.163513-.34375.25-.1061728.0808-.2132809.161112-.3125.25-.1779299.161433-.3474596.345388-.5.53125-.1075789.130255-.2183939.265285-.3125.40625-.025089.03838-.038446.08587-.0625.125-.064763.103032-.1302275.204517-.1875.3125-.1010083.194706-.2056748.415701-.28125.625-.00796.02181-.023589.04055-.03125.0625-.0318251.09195-.0358045.186831-.0625.28125-.0303323.106618-.0703894.203031-.09375.3125-.0728786.341512-.125.698205-.125 1.0625v2 68 2c0 2.781848 2.2181517 5 5 5h2 68 2c2.781848 0 5-2.218152 5-5v-2-68-2c0-.364295-.05212-.720988-.125-1.0625-.04415-.206893-.08838-.397658-.15625-.59375-.0077-.02195-.0233-.04069-.03125-.0625-.06274-.173739-.138383-.367449-.21875-.53125-.04158-.0828-.07904-.169954-.125-.25-.0546-.09721-.126774-.18835-.1875-.28125-.09411-.140965-.204921-.275995-.3125-.40625-.143174-.17445-.303141-.346998-.46875-.5-.01117-.0102-.01998-.02115-.03125-.03125-.138386-.125556-.285091-.234436-.4375-.34375-.102571-.07315-.204318-.153364-.3125-.21875-.0074-.0045-.02384.0044-.03125 0-.232039-.138728-.462548-.274778-.71875-.375.301527.0968.596455.204138.875.34375.55709.279224 1.060053.665694 1.5 1.09375.219973.214028.409366.441865.59375.6875s.355408.507743.5.78125c.14012.265048.276135.524729.375.8125.01041.03078.02133.06274.03125.09375.09046.278085.1388.579404.1875.875.0524.31805.09375.634029.09375.96875v2 68 2c0 3.324-2.676 6-6 6z" fill="url(#e)" opacity=".2"/><path d="m12 6c-3.324 0-6 2.676-6 6v2 68 2c0 .334721.04135.6507.09375.96875.0487.295596.09704.596915.1875.875.00988.03038.020892.0636.03125.09375.098865.287771.2348802.547452.375.8125.1445918.273507.3156161.535615.5.78125s.3737765.473472.59375.6875c.439947.428056.94291.814526 1.5 1.09375.278545.139612.5734731.246947.875.34375-.2562018-.100222-.4867109-.236272-.71875-.375-.00741-.0044-.023866.0045-.03125 0-.031933-.0193-.062293-.04251-.09375-.0625-.120395-.0767-.2310226-.163513-.34375-.25-.1061728-.0808-.2132809-.161112-.3125-.25-.1779299-.161433-.3474596-.345388-.5-.53125-.1075789-.130255-.2183939-.265285-.3125-.40625-.025089-.03838-.038446-.08587-.0625-.125-.064763-.103032-.1302275-.204517-.1875-.3125-.1010083-.194706-.2056748-.415701-.28125-.625-.00796-.02181-.023589-.04055-.03125-.0625-.0318251-.09195-.0358045-.186831-.0625-.28125-.0303323-.106618-.0703894-.203031-.09375-.3125-.0728786-.341512-.125-.698205-.125-1.0625v-2-68-2c0-2.781848 2.2181517-5 5-5h2 68 2c2.781848 0 5 2.218152 5 5v2 68 2c0 .364295-.05212.720988-.125 1.0625-.04415.206893-.08838.397658-.15625.59375-.0077.02195-.0233.04069-.03125.0625-.06274.173739-.138383.367449-.21875.53125-.04158.0828-.07904.169954-.125.25-.0546.09721-.126774.18835-.1875.28125-.09411.140965-.204921.275995-.3125.40625-.143174.17445-.303141.346998-.46875.5-.01117.0102-.01998.02115-.03125.03125-.138386.125556-.285091.234436-.4375.34375-.102571.07315-.204318.153364-.3125.21875-.0074.0045-.02384-.0044-.03125 0-.232039.138728-.462548.274778-.71875.375.301527-.0968.596455-.204138.875-.34375.55709-.279224 1.060053-.665694 1.5-1.09375.219973-.214028.409366-.441865.59375-.6875s.355408-.507743.5-.78125c.14012-.265048.276135-.524729.375-.8125.01041-.03078.02133-.06274.03125-.09375.09046-.278085.1388-.579404.1875-.875.0524-.31805.09375-.634029.09375-.96875v-2-68-2c0-3.324-2.676-6-6-6z" fill="url(#d)" opacity=".25"/></svg>