<svg height="96" width="96" xmlns="http://www.w3.org/2000/svg" xmlns:xlink="http://www.w3.org/1999/xlink"><linearGradient id="a"><stop offset="0" stop-color="#fefefe"/><stop offset="1" stop-color="#fefefe" stop-opacity="0"/></linearGradient><linearGradient id="b" gradientUnits="userSpaceOnUse" x1="36.357143" x2="36.357143" xlink:href="#a" y1="6" y2="63.893143"/><filter id="c" color-interpolation-filters="sRGB" height="1.384" width="1.384" x="-.192" y="-.192"><feGaussianBlur stdDeviation="5.28"/></filter><linearGradient id="d" gradientUnits="userSpaceOnUse" x1="48" x2="48" xlink:href="#a" y1="20.220806" y2="138.66119"/><radialGradient id="e" cx="48" cy="90.171875" gradientTransform="matrix(1.1573129 0 0 .99590774 -7.551021 .197132)" gradientUnits="userSpaceOnUse" r="42" xlink:href="#a"/><clipPath id="f"><rect height="84" rx="6" width="84" x="6" y="6"/></clipPath><linearGradient id="g" gradientUnits="userSpaceOnUse" x1="48" x2="48" y1="90" y2="5.987717"><stop offset="0" stop-color="#26768a"/><stop offset="1" stop-color="#42a1ad"/></linearGradient><linearGradient id="h" gradientTransform="matrix(1.0058652 0 0 .994169 100 0)" gradientUnits="userSpaceOnUse" x1="45.447727" x2="45.447727" y1="92.539597" y2="7.01654"><stop offset="0"/><stop offset="1" stop-opacity=".588235"/></linearGradient><linearGradient id="i" gradientTransform="matrix(1.0238095 0 0 1.0119048 -1.142857 -98.071429)" gradientUnits="userSpaceOnUse" x1="32.251034" x2="32.251034" xlink:href="#h" y1="6.131708" y2="90.238609"/><linearGradient id="j" gradientTransform="translate(0 -97)" gradientUnits="userSpaceOnUse" x1="32.251034" x2="32.251034" xlink:href="#h" y1="6.131708" y2="90.238609"/><linearGradient id="k" gradientTransform="matrix(-1 0 0 -1 95.949196 95.85964)" gradientUnits="userSpaceOnUse" x1="36.357143" x2="36.357143" xlink:href="#a" y1="6" y2="63.893143"/><g fill="url(#i)"><path d="m12-95.03125c-5.5110903 0-10.03125 4.52016-10.03125 10.03125v71c0 5.5110902 4.5201598 10.03125 10.03125 10.03125h72c5.51109 0 10.03125-4.5201597 10.03125-10.03125v-71c0-5.51109-4.52016-10.03125-10.03125-10.03125z" opacity=".08" transform="scale(1 -1)"/><path d="m12-94.03125c-4.971633 0-9.03125 4.059617-9.03125 9.03125v71c0 4.9716329 4.0596171 9.03125 9.03125 9.03125h72c4.971633 0 9.03125-4.059617 9.03125-9.03125v-71c0-4.971633-4.059617-9.03125-9.03125-9.03125z" opacity=".1" transform="scale(1 -1)"/><path d="m12-93c-4.4091333 0-8 3.590867-8 8v71c0 4.4091333 3.5908667 8 8 8h72c4.409133 0 8-3.5908667 8-8v-71c0-4.409133-3.590867-8-8-8z" opacity=".2" transform="scale(1 -1)"/><rect height="85" opacity=".3" rx="7" transform="scale(1 -1)" width="86" x="5" y="-92"/></g><rect fill="url(#j)" height="84" opacity=".45" rx="6" transform="scale(1 -1)" width="84" x="6" y="-91"/><rect fill="url(#g)" height="84" rx="6" width="84" x="6" y="6"/><path d="m12 6c-3.324 0-6 2.676-6 6v2 68 2c0 .334721.04135.6507.09375.96875.0487.295596.09704.596915.1875.875.00988.03038.020892.0636.03125.09375.098865.287771.2348802.547452.375.8125.1445918.273507.3156161.535615.5.78125s.3737765.473472.59375.6875c.439947.428056.94291.814526 1.5 1.09375.278545.139612.5734731.246947.875.34375-.2562018-.100222-.4867109-.236272-.71875-.375-.00741-.0044-.023866.0045-.03125 0-.031933-.0193-.062293-.04251-.09375-.0625-.120395-.0767-.2310226-.163513-.34375-.25-.1061728-.0808-.2132809-.161112-.3125-.25-.1779299-.161433-.3474596-.345388-.5-.53125-.1075789-.130255-.2183939-.265285-.3125-.40625-.025089-.03838-.038446-.08587-.0625-.125-.064763-.103032-.1302275-.204517-.1875-.3125-.1010083-.194706-.2056748-.415701-.28125-.625-.00796-.02181-.023589-.04055-.03125-.0625-.0318251-.09195-.0358045-.186831-.0625-.28125-.0303323-.106618-.0703894-.203031-.09375-.3125-.0728786-.341512-.125-.698205-.125-1.0625v-2-68-2c0-2.781848 2.2181517-5 5-5h2 68 2c2.781848 0 5 2.218152 5 5v2 68 2c0 .364295-.05212.720988-.125 1.0625-.04415.206893-.08838.397658-.15625.59375-.0077.02195-.0233.04069-.03125.0625-.06274.173739-.138383.367449-.21875.53125-.04158.0828-.07904.169954-.125.25-.0546.09721-.126774.18835-.1875.28125-.09411.140965-.204921.275995-.3125.40625-.143174.17445-.303141.346998-.46875.5-.01117.0102-.01998.02115-.03125.03125-.138386.125556-.285091.234436-.4375.34375-.102571.07315-.204318.153364-.3125.21875-.0074.0045-.02384-.0044-.03125 0-.232039.138728-.462548.274778-.71875.375.301527-.0968.596455-.204138.875-.34375.55709-.279224 1.060053-.665694 1.5-1.09375.219973-.214028.409366-.441865.59375-.6875s.355408-.507743.5-.78125c.14012-.265048.276135-.524729.375-.8125.01041-.03078.02133-.06274.03125-.09375.09046-.278085.1388-.579404.1875-.875.0524-.31805.09375-.634029.09375-.96875v-2-68-2c0-3.324-2.676-6-6-6z" fill="url(#b)" opacity=".5"/><path d="m12 90c-3.324 0-6-2.676-6-6v-2-68-2c0-.334721.04135-.6507.09375-.96875.0487-.295596.09704-.596915.1875-.875.00988-.03038.020892-.0636.03125-.09375.098865-.287771.2348802-.547452.375-.8125.1445918-.273507.3156161-.535615.5-.78125s.3737765-.473472.59375-.6875c.439947-.428056.94291-.814526 1.5-1.09375.278545-.139612.5734731-.246947.875-.34375-.2562018.100222-.4867109.236272-.71875.375-.00741.0044-.023866-.0045-.03125 0-.031933.0193-.062293.04251-.09375.0625-.120395.0767-.2310226.163513-.34375.25-.1061728.0808-.2132809.161112-.3125.25-.1779299.161433-.3474596.345388-.5.53125-.1075789.130255-.2183939.265285-.3125.40625-.025089.03838-.038446.08587-.0625.125-.064763.103032-.1302275.204517-.1875.3125-.1010083.194706-.2056748.415701-.28125.625-.00796.02181-.023589.04055-.03125.0625-.0318251.09195-.0358045.186831-.0625.28125-.0303323.106618-.0703894.203031-.09375.3125-.0728786.341512-.125.698205-.125 1.0625v2 68 2c0 2.781848 2.2181517 5 5 5h2 68 2c2.781848 0 5-2.218152 5-5v-2-68-2c0-.364295-.05212-.720988-.125-1.0625-.04415-.206893-.08838-.397658-.15625-.59375-.0077-.02195-.0233-.04069-.03125-.0625-.06274-.173739-.138383-.367449-.21875-.53125-.04158-.0828-.07904-.169954-.125-.25-.0546-.09721-.126774-.18835-.1875-.28125-.09411-.140965-.204921-.275995-.3125-.40625-.143174-.17445-.303141-.346998-.46875-.5-.01117-.0102-.01998-.02115-.03125-.03125-.138386-.125556-.285091-.234436-.4375-.34375-.102571-.07315-.204318-.153364-.3125-.21875-.0074-.0045-.02384.0044-.03125 0-.232039-.138728-.462548-.274778-.71875-.375.301527.0968.596455.204138.875.34375.55709.279224 1.060053.665694 1.5 1.09375.219973.214028.409366.441865.59375.6875s.355408.507743.5.78125c.14012.265048.276135.524729.375.8125.01041.03078.02133.06274.03125.09375.09046.278085.1388.579404.1875.875.0524.31805.09375.634029.09375.96875v2 68 2c0 3.324-2.676 6-6 6z" fill="url(#e)" opacity=".2"/><path d="m83.949197 89.85964c3.324 0 6.000001-2.676001 6.000001-6v-2-68-2c0-.334722-.04135-.6507-.09375-.96875-.0487-.295597-.09704-.596914-.1875-.875-.0099-.03038-.02089-.0636-.03125-.09375-.09886-.287771-.234881-.547452-.375-.8125-.144593-.273507-.315617-.535615-.5-.78125-.184384-.245635-.373777-.473472-.59375-.6875-.439948-.428056-.94291-.814526-1.5-1.09375-.278545-.139612-.573474-.246947-.875-.34375.256202.100222.48671.236272.71875.375.0074.0044.02387-.0045.03125 0 .03193.0193.06229.04251.09375.0625.120395.0767.231022.163513.34375.25.106172.0808.21328.161112.3125.25.17793.161433.347459.345388.5.53125.107579.130255.218394.265285.3125.40625.02509.03838.03845.08587.0625.125.06476.103032.130228.204517.1875.3125.101008.194706.205674.415701.28125.625.008.02181.02359.04055.03125.0625.03182.09195.0358.186831.0625.28125.03033.106618.07039.203031.09375.3125.07288.3415112.125.6982052.125 1.0625002v2 68 2c0 2.781847-2.218153 5-5.000001 5h-2-67.999994-2c-2.7818515 0-5.0000005-2.218153-5.0000005-5v-2-68-2c0-.364295.0521-.720989.125-1.0625002.0442-.206893.0884-.397658.15625-.59375.008-.02195.0233-.04069.0312-.0625.0627-.173739.138379-.367449.21875-.53125.0416-.0828.079-.169954.125-.25.0546-.09721.126769-.18835.1875-.28125.0941-.140965.20492-.275995.3125-.40625.143169-.17445.30314-.346998.46875-.5.0112-.0102.02-.02115.0312-.03125.13838-.125556.28509-.234436.4375-.34375.10257-.07315.204311-.153364.3125-.21875.007-.0045.0238.0044.0312 0 .23203-.138728.462541-.274778.7187505-.375-.3015305.0968-.5964595.204138-.8750005.34375-.55709.279224-1.060059.665694-1.5 1.09375-.21998.214028-.409369.441865-.59375.6875-.184389.245635-.35541.507743-.5.78125-.140119.265048-.27614.524729-.375.8125-.0104.03078-.0213.06274-.0312.09375-.0905.278085-.1388.579403-.1875.875-.0524.31805-.0937.634028-.0937.96875v2 68 2c0 3.323999 2.676 6 6.0000005 6z" fill="url(#k)" opacity=".084"/><rect height="66" rx="12" style="opacity:.1;stroke:#fefefe;stroke-width:.5;stroke-linecap:round;clip-path:url(#f);fill:url(#d);filter:url(#c)" width="66" x="15" y="15"/><path d="m48.222131 78.747317c-1.878218-.37922-4.403437-1.72294-5.552997-2.95486-.846795-.90747-1.156095-.98201-3.27705-.78968-3.001993.27221-4.076015-.0155-5.840066-1.56434-1.940494-1.70378-2.711727-3.34117-2.711727-5.75722s.771233-4.05344 2.711727-5.75722c1.73418-1.52263 2.798226-1.8232 5.624578-1.58881 5.212403.43225 8.219677 6.08112 5.781594 10.86016l-.854578 1.67511 1.354568 1.13085c1.869259 1.56052 3.81395 2.02272 6.282805 1.49325 5.109963-1.09589 5.70371-6.20171 1.279354-11.00157-1.228121-1.33236-1.992984-1.83128-2.807419-1.83128-2.463505 0-6.415173-6.18383-6.736019-10.540964-.101897-1.383777-.356355-2.308974-.635041-2.308974-.978033 0-6.138854-2.78126-7.731316-4.166547-2.626803-2.285062-4.259049-4.992107-4.000249-6.634328.134627-.854283-.102064-2.280207-.633229-3.814827-1.251053-3.614488-1.218158-9.48143.07509-13.393155l.962506-2.911315h4.338127 4.338127v1.606243 1.606242h-3.197008-3.197007l-.490839 1.706633c-1.263082 4.391704-.120305 12.086287 1.869179 12.585615.518576.130155 1.860727 1.291932 2.982557 2.581728 5.401211 6.209906 13.093847 6.204578 18.56666-.01286 1.138062-1.292904 2.460515-2.448949 2.938785-2.568987 1.84904-.464079 3.012069-5.828152 2.281927-10.524609-.260265-1.674087-.573848-3.206632-.696852-3.405658-.123005-.199025-1.839301-.361864-3.813992-.361864h-3.590347v-1.60624-1.606243h4.739688 4.739687l.962506 2.911315c1.29325 3.911725 1.326145 9.778667.07509 13.393155-.556497 1.607806-.768658 2.940881-.616891 3.876113.188485 1.161494.000683 1.76072-1.01411 3.235663-2.318412 3.369697-6.652077 6.361755-10.85251 7.492814l-1.745494.470013.19536 1.733229c.13307 1.18059.724859 2.472666 1.856016 4.052308.91336 1.27549 1.660655 2.77496 1.660655 3.33215 0 .58104.647206 1.79474 1.517591 2.84595 1.992352 2.40625 2.67285 3.52051 3.278626 5.36844 1.156101 3.52671.140784 7.72891-2.277372 9.42559-2.026363 1.42179-5.734522 2.2048-8.140695 1.71898zm-6.525361-8.27049c.651373-.74499.903512-1.54002.903512-2.84889 0-4.96816-7.076789-5.87679-8.401597-1.07873-.910146 3.29628 2.053751 6.20595 5.389892 5.29128.662575-.18166 1.611262-.79531 2.108193-1.36366z" fill="#fffffd" stroke-width=".401561"/></svg>