<svg height="96" width="96" xmlns="http://www.w3.org/2000/svg" xmlns:xlink="http://www.w3.org/1999/xlink"><linearGradient id="a"><stop offset="0" stop-color="#fefefe"/><stop offset="1" stop-color="#fefefe" stop-opacity="0"/></linearGradient><linearGradient id="b" gradientUnits="userSpaceOnUse" x1="36.357143" x2="36.357143" xlink:href="#a" y1="6" y2="63.893143"/><filter id="c" color-interpolation-filters="sRGB" height="1.384" width="1.384" x="-.192" y="-.192"><feGaussianBlur stdDeviation="5.28"/></filter><linearGradient id="d" gradientUnits="userSpaceOnUse" x1="48" x2="48" xlink:href="#a" y1="20.220806" y2="138.66119"/><radialGradient id="e" cx="48" cy="90.171875" gradientTransform="matrix(1.1573129 0 0 .99590774 -7.551021 .197132)" gradientUnits="userSpaceOnUse" r="42" xlink:href="#a"/><clipPath id="f"><rect height="84" rx="6" width="84" x="6" y="6"/></clipPath><linearGradient id="g" gradientUnits="userSpaceOnUse" x1="48" x2="48" y1="90" y2="5.987717"><stop offset="0" stop-color="#667981"/><stop offset="1" stop-color="#a4b2b8"/></linearGradient><linearGradient id="h" gradientTransform="matrix(1.0058652 0 0 .994169 100 0)" gradientUnits="userSpaceOnUse" x1="45.447727" x2="45.447727" y1="92.539597" y2="7.01654"><stop offset="0"/><stop offset="1" stop-opacity=".588235"/></linearGradient><linearGradient id="i" gradientTransform="matrix(1.0238095 0 0 1.0119048 -1.142857 -98.071429)" gradientUnits="userSpaceOnUse" x1="32.251034" x2="32.251034" xlink:href="#h" y1="6.131708" y2="90.238609"/><linearGradient id="j" gradientTransform="translate(0 -97)" gradientUnits="userSpaceOnUse" x1="32.251034" x2="32.251034" xlink:href="#h" y1="6.131708" y2="90.238609"/><linearGradient id="k" gradientUnits="userSpaceOnUse" x1="576.6493" x2="1017.8839" y1="1435.5206" y2="502.13968"><stop offset="0" stop-color="#1011a1"/><stop offset="1" stop-color="#6969e1"/></linearGradient><linearGradient id="l" gradientTransform="matrix(-2.1510215 -.07025797 -.03821188 -.48210687 -1498.469 1058.0104)" gradientUnits="userSpaceOnUse" x1="-1229.327" x2="-555.82379" y1="918.44379" y2="917.51282"><stop offset="0" stop-color="#321e1d"/><stop offset=".02012207" stop-color="#5a5bd7" stop-opacity="0"/><stop offset="1" stop-color="#fefefe" stop-opacity="0"/></linearGradient><linearGradient id="m" gradientUnits="userSpaceOnUse" x1="1170.61908" x2="1787.21616" y1="728.41388" y2="1769.275"><stop offset="0" stop-color="#b40e0e"/><stop offset="1" stop-color="#ff5959"/></linearGradient><linearGradient id="n" gradientUnits="userSpaceOnUse" x1="1425.17749" x2="554.022" y1="1842.8141" y2="1769.275"><stop offset="0" stop-color="#01a300"/><stop offset="1" stop-color="#01df00"/></linearGradient><linearGradient id="o" gradientTransform="matrix(-1.9407023 .93972781 -.43581582 -.90003588 -412.21511 3168.6506)" gradientUnits="userSpaceOnUse" x1="-1238.0465" x2="-552.84039" xlink:href="#p" y1="919.71448" y2="913.40582"/><linearGradient id="p"><stop offset="0" stop-color="#321e1d"/><stop offset=".02012207" stop-color="#555548" stop-opacity="0"/><stop offset="1" stop-color="#fefefe" stop-opacity="0"/></linearGradient><linearGradient id="q" gradientTransform="matrix(-.83179183 1.989334 -.83312221 -.35033011 1447.5752 4603.6836)" gradientUnits="userSpaceOnUse" x1="-1238.0465" x2="-555.82379" y1="919.71448" y2="917.51282"><stop offset="0" stop-color="#32691d"/><stop offset=".02012207" stop-color="#01d200" stop-opacity="0"/><stop offset="1" stop-color="#fefefe" stop-opacity="0"/></linearGradient><linearGradient id="r" gradientTransform="matrix(.02700295 -2.1560608 .90368745 .01314507 114.37039 -755.42907)" gradientUnits="userSpaceOnUse" x1="-1238.0465" x2="-555.83728" xlink:href="#p" y1="919.71448" y2="915.30005"/><linearGradient id="s" gradientTransform="matrix(.85312044 -1.9803029 .91840135 .39565006 2182.2918 -885.93458)" gradientUnits="userSpaceOnUse" x1="-1242.2334" x2="-551.12549" y1="915.73645" y2="910.64618"><stop offset="0" stop-color="#321e1d"/><stop offset=".01739271" stop-color="#555548" stop-opacity="0"/><stop offset="1" stop-color="#fefefe" stop-opacity="0"/></linearGradient><linearGradient id="t" gradientTransform="matrix(-1.3798164 -1.6569612 .7684458 -.63991489 -2195.6367 413.8935)" gradientUnits="userSpaceOnUse" x1="-1237.1112" x2="-555.82379" y1="920.41797" y2="917.51282"><stop offset="0" stop-color="#321e1d"/><stop offset=".01546729" stop-color="#555548" stop-opacity="0"/><stop offset="1" stop-color="#fefefe" stop-opacity="0"/></linearGradient><linearGradient id="u" gradientTransform="matrix(1.3829904 1.654313 -.7672176 .6413869 2930.535 3096.9376)" gradientUnits="userSpaceOnUse" x1="-1242.5582" x2="-866.86804" y1="918.09875" y2="917.18665"><stop offset="0" stop-color="#ebebec"/><stop offset=".00518292" stop-color="#d3d3d3" stop-opacity="0"/><stop offset="1" stop-color="#fefefe" stop-opacity="0"/></linearGradient><g fill="url(#i)"><path d="m12-95.03125c-5.5110903 0-10.03125 4.52016-10.03125 10.03125v71c0 5.5110902 4.5201598 10.03125 10.03125 10.03125h72c5.51109 0 10.03125-4.5201597 10.03125-10.03125v-71c0-5.51109-4.52016-10.03125-10.03125-10.03125z" opacity=".08" transform="scale(1 -1)"/><path d="m12-94.03125c-4.971633 0-9.03125 4.059617-9.03125 9.03125v71c0 4.9716329 4.0596171 9.03125 9.03125 9.03125h72c4.971633 0 9.03125-4.059617 9.03125-9.03125v-71c0-4.971633-4.059617-9.03125-9.03125-9.03125z" opacity=".1" transform="scale(1 -1)"/><path d="m12-93c-4.4091333 0-8 3.590867-8 8v71c0 4.4091333 3.5908667 8 8 8h72c4.409133 0 8-3.5908667 8-8v-71c0-4.409133-3.590867-8-8-8z" opacity=".2" transform="scale(1 -1)"/><rect height="85" opacity=".3" rx="7" transform="scale(1 -1)" width="86" x="5" y="-92"/></g><rect fill="url(#j)" height="84" opacity=".45" rx="6" transform="scale(1 -1)" width="84" x="6" y="-91"/><rect fill="url(#g)" height="84" rx="6" width="84" x="6" y="6"/><path d="m12 6c-3.324 0-6 2.676-6 6v2 68 2c0 .334721.04135.6507.09375.96875.0487.295596.09704.596915.1875.875.00988.03038.020892.0636.03125.09375.098865.287771.2348802.547452.375.8125.1445918.273507.3156161.535615.5.78125s.3737765.473472.59375.6875c.439947.428056.94291.814526 1.5 1.09375.278545.139612.5734731.246947.875.34375-.2562018-.100222-.4867109-.236272-.71875-.375-.00741-.0044-.023866.0045-.03125 0-.031933-.0193-.062293-.04251-.09375-.0625-.120395-.0767-.2310226-.163513-.34375-.25-.1061728-.0808-.2132809-.161112-.3125-.25-.1779299-.161433-.3474596-.345388-.5-.53125-.1075789-.130255-.2183939-.265285-.3125-.40625-.025089-.03838-.038446-.08587-.0625-.125-.064763-.103032-.1302275-.204517-.1875-.3125-.1010083-.194706-.2056748-.415701-.28125-.625-.00796-.02181-.023589-.04055-.03125-.0625-.0318251-.09195-.0358045-.186831-.0625-.28125-.0303323-.106618-.0703894-.203031-.09375-.3125-.0728786-.341512-.125-.698205-.125-1.0625v-2-68-2c0-2.781848 2.2181517-5 5-5h2 68 2c2.781848 0 5 2.218152 5 5v2 68 2c0 .364295-.05212.720988-.125 1.0625-.04415.206893-.08838.397658-.15625.59375-.0077.02195-.0233.04069-.03125.0625-.06274.173739-.138383.367449-.21875.53125-.04158.0828-.07904.169954-.125.25-.0546.09721-.126774.18835-.1875.28125-.09411.140965-.204921.275995-.3125.40625-.143174.17445-.303141.346998-.46875.5-.01117.0102-.01998.02115-.03125.03125-.138386.125556-.285091.234436-.4375.34375-.102571.07315-.204318.153364-.3125.21875-.0074.0045-.02384-.0044-.03125 0-.232039.138728-.462548.274778-.71875.375.301527-.0968.596455-.204138.875-.34375.55709-.279224 1.060053-.665694 1.5-1.09375.219973-.214028.409366-.441865.59375-.6875s.355408-.507743.5-.78125c.14012-.265048.276135-.524729.375-.8125.01041-.03078.02133-.06274.03125-.09375.09046-.278085.1388-.579404.1875-.875.0524-.31805.09375-.634029.09375-.96875v-2-68-2c0-3.324-2.676-6-6-6z" fill="url(#b)" opacity=".4"/><path d="m12 90c-3.324 0-6-2.676-6-6v-2-68-2c0-.334721.04135-.6507.09375-.96875.0487-.295596.09704-.596915.1875-.875.00988-.03038.020892-.0636.03125-.09375.098865-.287771.2348802-.547452.375-.8125.1445918-.273507.3156161-.535615.5-.78125s.3737765-.473472.59375-.6875c.439947-.428056.94291-.814526 1.5-1.09375.278545-.139612.5734731-.246947.875-.34375-.2562018.100222-.4867109.236272-.71875.375-.00741.0044-.023866-.0045-.03125 0-.031933.0193-.062293.04251-.09375.0625-.120395.0767-.2310226.163513-.34375.25-.1061728.0808-.2132809.161112-.3125.25-.1779299.161433-.3474596.345388-.5.53125-.1075789.130255-.2183939.265285-.3125.40625-.025089.03838-.038446.08587-.0625.125-.064763.103032-.1302275.204517-.1875.3125-.1010083.194706-.2056748.415701-.28125.625-.00796.02181-.023589.04055-.03125.0625-.0318251.09195-.0358045.186831-.0625.28125-.0303323.106618-.0703894.203031-.09375.3125-.0728786.341512-.125.698205-.125 1.0625v2 68 2c0 2.781848 2.2181517 5 5 5h2 68 2c2.781848 0 5-2.218152 5-5v-2-68-2c0-.364295-.05212-.720988-.125-1.0625-.04415-.206893-.08838-.397658-.15625-.59375-.0077-.02195-.0233-.04069-.03125-.0625-.06274-.173739-.138383-.367449-.21875-.53125-.04158-.0828-.07904-.169954-.125-.25-.0546-.09721-.126774-.18835-.1875-.28125-.09411-.140965-.204921-.275995-.3125-.40625-.143174-.17445-.303141-.346998-.46875-.5-.01117-.0102-.01998-.02115-.03125-.03125-.138386-.125556-.285091-.234436-.4375-.34375-.102571-.07315-.204318-.153364-.3125-.21875-.0074-.0045-.02384.0044-.03125 0-.232039-.138728-.462548-.274778-.71875-.375.301527.0968.596455.204138.875.34375.55709.279224 1.060053.665694 1.5 1.09375.219973.214028.409366.441865.59375.6875s.355408.507743.5.78125c.14012.265048.276135.524729.375.8125.01041.03078.02133.06274.03125.09375.09046.278085.1388.579404.1875.875.0524.31805.09375.634029.09375.96875v2 68 2c0 3.324-2.676 6-6 6z" fill="url(#e)" opacity=".2"/><rect height="66" rx="12" style="opacity:.304;stroke:#fefefe;stroke-width:.5;stroke-linecap:round;clip-path:url(#f);fill:url(#d);filter:url(#c)" width="66" x="15" y="15"/><g transform="matrix(.04131971 0 0 .03626689207 4.80464866901 9.04435584918)"><path d="m1143.3083 1084.3217-984.61711 841.7401 901.81951-1801.95966z" fill="url(#k)" stroke="#000"/><path d="m1147.188 1083.1536-50.1671 40.0537-52.7887-888.7261c-4.0533-47.4341-6.2416-43.17076-6.5492-68.17004l25.1004-48.95208z" fill="url(#l)"/><path d="m1188.9362 1609.9939-127.9574-1486.05369 902.9741 1802.28589z" fill="url(#m)" stroke="#000"/><path d="m743.40929 1423.8349 1221.47011 502.1736-1805.95141-.1985z" fill="url(#n)" stroke="#000"/><path d="m1963.6891 1926.5277-56.7139-24.6169-795.9854-1603.05217c-21.9472-24.37845-34.3449-39.62306-41.2192-51.95192-1.1264-32.3188-2.943-61.0813-9.9138-126.2626z" fill="url(#o)"/><path d="m1962.8676 1925.4594-68.0643-1.0486-1174.86681-479.6332 23.5048-18.7167 470.76241 191.9416z" fill="url(#q)"/><path d="m159.98259 1925.4405 50.2958-42.8864 1643.00831.1531 110.3276 42.727-1803.63171.01z" fill="url(#r)"/><path d="m1199.8469 1610.9874-2.1608-22.3386 610.5884 235.1678c39.4555 18.7661 69.1058 27.2993 88.8249 43.327 12.6947 5.2081 34.7241 12.6345 46.1135 16.4736 13.9264 9.2219 11.5065 23.9583 20.3177 41.5431z" fill="url(#s)"/><path d="m1958.5868 1931.807-1797.08691-.1258c-11.0291-1.2221-8.5403-6.713-5.9958-12.2215l900.87981-1799.48562c3.3139-5.27718 6.2883-4.43721 9.0861-.4108l900.8561 1799.43632c4.5781 9.1667 1.5811 13.1503-7.7393 12.8074z" fill="none" stroke="#000" stroke-width="12.2"/><path d="m160.09059 1924.1505 25.5248-54.5322 52.0681-38.5691 899.32641-780.8749c4.7998 18.518 1.8803 6.9336 6.1315 33.989z" fill="url(#t)"/><path d="m1141.0494 1090.571c-7.8922 86.6075-17.7158 81.5443-53.2471 118.0205l-263.40721 244.6992-74.9445-29.2367z" fill="url(#u)"/></g></svg>