<svg height="96" width="96" xmlns="http://www.w3.org/2000/svg" xmlns:xlink="http://www.w3.org/1999/xlink"><linearGradient id="a"><stop offset="0" stop-color="#fefefe"/><stop offset="1" stop-color="#fefefe" stop-opacity="0"/></linearGradient><linearGradient id="b" gradientUnits="userSpaceOnUse" x1="36.357143" x2="36.357143" xlink:href="#a" y1="6" y2="63.893143"/><filter id="c" color-interpolation-filters="sRGB" height="1.384" width="1.384" x="-.192" y="-.192"><feGaussianBlur stdDeviation="5.28"/></filter><linearGradient id="d" gradientUnits="userSpaceOnUse" x1="48" x2="48" xlink:href="#a" y1="20.220806" y2="138.66119"/><radialGradient id="e" cx="48" cy="90.171875" gradientTransform="matrix(1.1573129 0 0 .99590774 -7.551021 .197132)" gradientUnits="userSpaceOnUse" r="42" xlink:href="#a"/><clipPath id="f"><rect height="84" rx="6" width="84" x="6" y="6"/></clipPath><linearGradient id="g" gradientUnits="userSpaceOnUse" x1="48" x2="48" y1="90" y2="5.987717"><stop offset="0" stop-color="#a5aaaf"/><stop offset="1" stop-color="#d4d7d9"/></linearGradient><linearGradient id="h" gradientTransform="matrix(1.0058652 0 0 .994169 100 0)" gradientUnits="userSpaceOnUse" x1="45.447727" x2="45.447727" y1="92.539597" y2="7.01654"><stop offset="0"/><stop offset="1" stop-opacity=".588235"/></linearGradient><linearGradient id="i" gradientTransform="matrix(1.0238095 0 0 1.0119048 -1.142857 -98.071429)" gradientUnits="userSpaceOnUse" x1="32.251034" x2="32.251034" xlink:href="#h" y1="6.131708" y2="90.238609"/><linearGradient id="j" gradientTransform="translate(0 -97)" gradientUnits="userSpaceOnUse" x1="32.251034" x2="32.251034" xlink:href="#h" y1="6.131708" y2="90.238609"/><g fill="url(#i)"><path d="m12-95.03125c-5.5110903 0-10.03125 4.52016-10.03125 10.03125v71c0 5.5110902 4.5201598 10.03125 10.03125 10.03125h72c5.51109 0 10.03125-4.5201597 10.03125-10.03125v-71c0-5.51109-4.52016-10.03125-10.03125-10.03125z" opacity=".08" transform="scale(1 -1)"/><path d="m12-94.03125c-4.971633 0-9.03125 4.059617-9.03125 9.03125v71c0 4.9716329 4.0596171 9.03125 9.03125 9.03125h72c4.971633 0 9.03125-4.059617 9.03125-9.03125v-71c0-4.971633-4.059617-9.03125-9.03125-9.03125z" opacity=".1" transform="scale(1 -1)"/><path d="m12-93c-4.4091333 0-8 3.590867-8 8v71c0 4.4091333 3.5908667 8 8 8h72c4.409133 0 8-3.5908667 8-8v-71c0-4.409133-3.590867-8-8-8z" opacity=".2" transform="scale(1 -1)"/><rect height="85" opacity=".3" rx="7" transform="scale(1 -1)" width="86" x="5" y="-92"/></g><rect fill="url(#j)" height="84" opacity=".45" rx="6" transform="scale(1 -1)" width="84" x="6" y="-91"/><rect fill="url(#g)" height="84" rx="6" width="84" x="6" y="6"/><path d="m12 6c-3.324 0-6 2.676-6 6v2 68 2c0 .334721.04135.6507.09375.96875.0487.295596.09704.596915.1875.875.00988.03038.020892.0636.03125.09375.098865.287771.2348802.547452.375.8125.1445918.273507.3156161.535615.5.78125s.3737765.473472.59375.6875c.439947.428056.94291.814526 1.5 1.09375.278545.139612.5734731.246947.875.34375-.2562018-.100222-.4867109-.236272-.71875-.375-.00741-.0044-.023866.0045-.03125 0-.031933-.0193-.062293-.04251-.09375-.0625-.120395-.0767-.2310226-.163513-.34375-.25-.1061728-.0808-.2132809-.161112-.3125-.25-.1779299-.161433-.3474596-.345388-.5-.53125-.1075789-.130255-.2183939-.265285-.3125-.40625-.025089-.03838-.038446-.08587-.0625-.125-.064763-.103032-.1302275-.204517-.1875-.3125-.1010083-.194706-.2056748-.415701-.28125-.625-.00796-.02181-.023589-.04055-.03125-.0625-.0318251-.09195-.0358045-.186831-.0625-.28125-.0303323-.106618-.0703894-.203031-.09375-.3125-.0728786-.341512-.125-.698205-.125-1.0625v-2-68-2c0-2.781848 2.2181517-5 5-5h2 68 2c2.781848 0 5 2.218152 5 5v2 68 2c0 .364295-.05212.720988-.125 1.0625-.04415.206893-.08838.397658-.15625.59375-.0077.02195-.0233.04069-.03125.0625-.06274.173739-.138383.367449-.21875.53125-.04158.0828-.07904.169954-.125.25-.0546.09721-.126774.18835-.1875.28125-.09411.140965-.204921.275995-.3125.40625-.143174.17445-.303141.346998-.46875.5-.01117.0102-.01998.02115-.03125.03125-.138386.125556-.285091.234436-.4375.34375-.102571.07315-.204318.153364-.3125.21875-.0074.0045-.02384-.0044-.03125 0-.232039.138728-.462548.274778-.71875.375.301527-.0968.596455-.204138.875-.34375.55709-.279224 1.060053-.665694 1.5-1.09375.219973-.214028.409366-.441865.59375-.6875s.355408-.507743.5-.78125c.14012-.265048.276135-.524729.375-.8125.01041-.03078.02133-.06274.03125-.09375.09046-.278085.1388-.579404.1875-.875.0524-.31805.09375-.634029.09375-.96875v-2-68-2c0-3.324-2.676-6-6-6z" fill="url(#b)" opacity=".5"/><path d="m12 90c-3.324 0-6-2.676-6-6v-2-68-2c0-.334721.04135-.6507.09375-.96875.0487-.295596.09704-.596915.1875-.875.00988-.03038.020892-.0636.03125-.09375.098865-.287771.2348802-.547452.375-.8125.1445918-.273507.3156161-.535615.5-.78125s.3737765-.473472.59375-.6875c.439947-.428056.94291-.814526 1.5-1.09375.278545-.139612.5734731-.246947.875-.34375-.2562018.100222-.4867109.236272-.71875.375-.00741.0044-.023866-.0045-.03125 0-.031933.0193-.062293.04251-.09375.0625-.120395.0767-.2310226.163513-.34375.25-.1061728.0808-.2132809.161112-.3125.25-.1779299.161433-.3474596.345388-.5.53125-.1075789.130255-.2183939.265285-.3125.40625-.025089.03838-.038446.08587-.0625.125-.064763.103032-.1302275.204517-.1875.3125-.1010083.194706-.2056748.415701-.28125.625-.00796.02181-.023589.04055-.03125.0625-.0318251.09195-.0358045.186831-.0625.28125-.0303323.106618-.0703894.203031-.09375.3125-.0728786.341512-.125.698205-.125 1.0625v2 68 2c0 2.781848 2.2181517 5 5 5h2 68 2c2.781848 0 5-2.218152 5-5v-2-68-2c0-.364295-.05212-.720988-.125-1.0625-.04415-.206893-.08838-.397658-.15625-.59375-.0077-.02195-.0233-.04069-.03125-.0625-.06274-.173739-.138383-.367449-.21875-.53125-.04158-.0828-.07904-.169954-.125-.25-.0546-.09721-.126774-.18835-.1875-.28125-.09411-.140965-.204921-.275995-.3125-.40625-.143174-.17445-.303141-.346998-.46875-.5-.01117-.0102-.01998-.02115-.03125-.03125-.138386-.125556-.285091-.234436-.4375-.34375-.102571-.07315-.204318-.153364-.3125-.21875-.0074-.0045-.02384.0044-.03125 0-.232039-.138728-.462548-.274778-.71875-.375.301527.0968.596455.204138.875.34375.55709.279224 1.060053.665694 1.5 1.09375.219973.214028.409366.441865.59375.6875s.355408.507743.5.78125c.14012.265048.276135.524729.375.8125.01041.03078.02133.06274.03125.09375.09046.278085.1388.579404.1875.875.0524.31805.09375.634029.09375.96875v2 68 2c0 3.324-2.676 6-6 6z" fill="url(#e)" opacity=".2"/><rect height="66" rx="12" style="opacity:.1;stroke:#fefefe;stroke-width:.5;stroke-linecap:round;clip-path:url(#f);fill:url(#d);filter:url(#c)" width="66" x="15" y="15"/><path d="m33.035161 77.611096c-4.95185-1.16737-10.334181-5.54524-12.565472-10.2205-4.178294-8.75483-1.52718-18.81814 6.410512-24.33353 2.158932-1.50009 2.763845-1.58428 2.763845-.38464 0 1.53874 1.697007 5.81844 3.101306 7.82121 1.150915 1.6414 1.252025 1.98416.679788 2.3044-1.083364.60628-2.547139 2.92244-2.943001 4.65676-.751847 3.29394 1.521599 7.35976 4.702237 8.40946 1.479519.48829 4.401305.38958 5.830225-.19697.475066-.195.885224.28913 1.487111 1.75533.457114 1.11354 1.995038 3.26885 3.417613 4.78958l2.586499 2.76498-1.886965.96469c-3.894936 1.99124-9.365913 2.66354-13.583698 1.66923zm1.550069-13.50278c-2.698145-1.64515-3.654094-5.57586-2.026242-8.33158.430787-.72927 1.630412-1.73604 2.665827-2.23728 2.416374-1.16974 4.437053-.83196 6.537343 1.09281 3.012729 2.76096 2.283426 7.89812-1.367204 9.63046-1.981227.94015-4.107263.88364-5.809724-.15441z" fill="#b40000" stroke-width=".437329"/><path d="m63.976487 77.611096c4.95185-1.16737 10.334181-5.54524 12.565472-10.2205 4.178294-8.75483 1.52718-18.81814-6.410512-24.33353-2.158932-1.50009-2.763845-1.58428-2.763845-.38464 0 1.53874-1.697007 5.81844-3.101306 7.82121-1.150915 1.6414-1.252025 1.98416-.679788 2.3044 1.083364.60628 2.547139 2.92244 2.943001 4.65676.751847 3.29394-1.521599 7.35976-4.702237 8.40946-1.479519.48829-4.401305.38958-5.830225-.19697-.475066-.195-.885224.28913-1.487111 1.75533-.457114 1.11354-1.995038 3.26885-3.417613 4.78958l-2.586499 2.76498 1.886965.96469c3.894936 1.99124 9.365913 2.66354 13.583698 1.66923zm-1.550069-13.50278c2.698145-1.64515 3.654094-5.57586 2.026242-8.33158-.430787-.72927-1.630412-1.73604-2.665827-2.23728-2.416374-1.16974-4.437053-.83196-6.537343 1.09281-3.012729 2.76096-2.283426 7.89812 1.367204 9.63046 1.981227.94015 4.107263.88364 5.809724-.15441z" fill="#04f" stroke-width=".437329"/><path d="m62.439071 27.033951c-3.42169-3.765031-9.86006-6.35009-15.0309-6.035013-9.682831.590009-17.199107 7.787516-18.174702 17.403896-.265344 2.615492-.04572 3.185379 1.003512 2.603775 1.345838-.745959 5.911658-1.336589 8.344132-1.079326 1.993588.210853 2.342368.13311 2.345048-.522635.005-1.24147 1.32114-3.644608 2.64609-4.831656 2.51644-2.254508 7.17467-2.237245 9.63477.03567 1.14435 1.057293 2.47453 3.660607 2.65427 5.194736.0598.510037.68205.634056 2.25622.44966 1.19553-.140061 3.82622.160123 5.84595.667074l3.67227.921716-.0711-2.11807c-.14672-4.371956-2.2111-9.482929-5.12557-12.689828zm-11.05831 7.901998c-2.74696-1.56227-6.6483-.49272-8.26929 2.267048-.42899.730321-.72794 2.267634-.66432 3.416239.1484 2.680511 1.42346 4.284083 4.12515 5.187877 3.87539 1.296455 8.01488-1.831954 7.76016-5.864722-.13823-2.188609-1.21839-4.020687-2.95167-5.006431z" fill="#009536" stroke-width=".437329"/></svg>