<svg height="96" width="96" xmlns="http://www.w3.org/2000/svg" xmlns:xlink="http://www.w3.org/1999/xlink"><linearGradient id="a"><stop offset="0" stop-color="#cae6f9"/><stop offset=".37064087" stop-color="#71bddf"/><stop offset=".7159912" stop-color="#2b6e8b"/><stop offset="1" stop-color="#1d3f5a"/></linearGradient><linearGradient id="b"><stop offset="0" stop-color="#fefefe"/><stop offset="1" stop-color="#fefefe" stop-opacity="0"/></linearGradient><linearGradient id="c" gradientUnits="userSpaceOnUse" x1="36.357143" x2="36.357143" xlink:href="#b" y1="6" y2="63.893143"/><filter id="d" color-interpolation-filters="sRGB" height="1.384" width="1.384" x="-.192" y="-.192"><feGaussianBlur stdDeviation="5.28"/></filter><radialGradient id="e" cx="48" cy="90.171875" gradientTransform="matrix(1.1573129 0 0 .99590774 -7.551021 .197132)" gradientUnits="userSpaceOnUse" r="42" xlink:href="#b"/><clipPath id="f"><rect height="84" rx="6" width="84" x="6" y="6"/></clipPath><linearGradient id="g" gradientUnits="userSpaceOnUse" x1="-90" x2="-6" y1="48" y2="48"><stop offset="0" stop-color="#033b62"/><stop offset="1" stop-color="#156c95"/></linearGradient><linearGradient id="h" gradientUnits="userSpaceOnUse" x1="40" x2="40" xlink:href="#b" y1="8" y2="56"/><filter id="i" color-interpolation-filters="sRGB" height="1.36" width="1.36" x="-.18" y="-.18"><feGaussianBlur stdDeviation=".75"/></filter><radialGradient id="j" cx="21" cy="71" gradientUnits="userSpaceOnUse" r="6" xlink:href="#a"/><linearGradient id="k" gradientUnits="userSpaceOnUse" x1="19.501364" x2="19.501364" xlink:href="#b" y1="64.030319" y2="74.196297"/><radialGradient id="l" cx="21.7644264" cy="71.0796692" gradientUnits="userSpaceOnUse" r="6" xlink:href="#a"/><linearGradient id="m" gradientTransform="matrix(1.0058652 0 0 .994169 100 0)" gradientUnits="userSpaceOnUse" x1="45.447727" x2="45.447727" y1="92.539597" y2="7.01654"><stop offset="0"/><stop offset="1" stop-opacity=".588235"/></linearGradient><linearGradient id="n" gradientTransform="matrix(1.0238095 0 0 1.0119048 -1.142857 -98.071429)" gradientUnits="userSpaceOnUse" x1="32.251034" x2="32.251034" xlink:href="#m" y1="6.131708" y2="90.238609"/><linearGradient id="o" gradientTransform="translate(0 -97)" gradientUnits="userSpaceOnUse" x1="32.251034" x2="32.251034" xlink:href="#m" y1="6.131708" y2="90.238609"/><g><g fill="url(#n)"><path d="m12-95.03125c-5.5110903 0-10.03125 4.52016-10.03125 10.03125v71c0 5.5110902 4.5201598 10.03125 10.03125 10.03125h72c5.51109 0 10.03125-4.5201597 10.03125-10.03125v-71c0-5.51109-4.52016-10.03125-10.03125-10.03125z" opacity=".08" transform="scale(1 -1)"/><path d="m12-94.03125c-4.971633 0-9.03125 4.059617-9.03125 9.03125v71c0 4.9716329 4.0596171 9.03125 9.03125 9.03125h72c4.971633 0 9.03125-4.059617 9.03125-9.03125v-71c0-4.971633-4.059617-9.03125-9.03125-9.03125z" opacity=".1" transform="scale(1 -1)"/><path d="m12-93c-4.4091333 0-8 3.590867-8 8v71c0 4.4091333 3.5908667 8 8 8h72c4.409133 0 8-3.5908667 8-8v-71c0-4.409133-3.590867-8-8-8z" opacity=".2" transform="scale(1 -1)"/><rect height="85" opacity=".3" rx="7" transform="scale(1 -1)" width="86" x="5" y="-92"/></g><rect fill="url(#o)" height="84" opacity=".45" rx="6" transform="scale(1 -1)" width="84" x="6" y="-91"/></g><rect fill="url(#g)" height="84" rx="6" transform="rotate(-90)" width="84" x="-90" y="6"/><path d="m12 6c-3.324 0-6 2.676-6 6v2 68 2c0 .334721.04135.6507.09375.96875.0487.295596.09704.596915.1875.875.00988.03038.020892.0636.03125.09375.098865.287771.2348802.547452.375.8125.1445918.273507.3156161.535615.5.78125s.3737765.473472.59375.6875c.439947.428056.94291.814526 1.5 1.09375.278545.139612.5734731.246947.875.34375-.2562018-.100222-.4867109-.236272-.71875-.375-.00741-.0044-.023866.0045-.03125 0-.031933-.0193-.062293-.04251-.09375-.0625-.120395-.0767-.2310226-.163513-.34375-.25-.1061728-.0808-.2132809-.161112-.3125-.25-.1779299-.161433-.3474596-.345388-.5-.53125-.1075789-.130255-.2183939-.265285-.3125-.40625-.025089-.03838-.038446-.08587-.0625-.125-.064763-.103032-.1302275-.204517-.1875-.3125-.1010083-.194706-.2056748-.415701-.28125-.625-.00796-.02181-.023589-.04055-.03125-.0625-.0318251-.09195-.0358045-.186831-.0625-.28125-.0303323-.106618-.0703894-.203031-.09375-.3125-.0728786-.341512-.125-.698205-.125-1.0625v-2-68-2c0-2.781848 2.2181517-5 5-5h2 68 2c2.781848 0 5 2.218152 5 5v2 68 2c0 .364295-.05212.720988-.125 1.0625-.04415.206893-.08838.397658-.15625.59375-.0077.02195-.0233.04069-.03125.0625-.06274.173739-.138383.367449-.21875.53125-.04158.0828-.07904.169954-.125.25-.0546.09721-.126774.18835-.1875.28125-.09411.140965-.204921.275995-.3125.40625-.143174.17445-.303141.346998-.46875.5-.01117.0102-.01998.02115-.03125.03125-.138386.125556-.285091.234436-.4375.34375-.102571.07315-.204318.153364-.3125.21875-.0074.0045-.02384-.0044-.03125 0-.232039.138728-.462548.274778-.71875.375.301527-.0968.596455-.204138.875-.34375.55709-.279224 1.060053-.665694 1.5-1.09375.219973-.214028.409366-.441865.59375-.6875s.355408-.507743.5-.78125c.14012-.265048.276135-.524729.375-.8125.01041-.03078.02133-.06274.03125-.09375.09046-.278085.1388-.579404.1875-.875.0524-.31805.09375-.634029.09375-.96875v-2-68-2c0-3.324-2.676-6-6-6z" fill="url(#c)" opacity=".3"/><path d="m12 90c-3.324 0-6-2.676-6-6v-2-68-2c0-.334721.04135-.6507.09375-.96875.0487-.295596.09704-.596915.1875-.875.00988-.03038.020892-.0636.03125-.09375.098865-.287771.2348802-.547452.375-.8125.1445918-.273507.3156161-.535615.5-.78125s.3737765-.473472.59375-.6875c.439947-.428056.94291-.814526 1.5-1.09375.278545-.139612.5734731-.246947.875-.34375-.2562018.100222-.4867109.236272-.71875.375-.00741.0044-.023866-.0045-.03125 0-.031933.0193-.062293.04251-.09375.0625-.120395.0767-.2310226.163513-.34375.25-.1061728.0808-.2132809.161112-.3125.25-.1779299.161433-.3474596.345388-.5.53125-.1075789.130255-.2183939.265285-.3125.40625-.025089.03838-.038446.08587-.0625.125-.064763.103032-.1302275.204517-.1875.3125-.1010083.194706-.2056748.415701-.28125.625-.00796.02181-.023589.04055-.03125.0625-.0318251.09195-.0358045.186831-.0625.28125-.0303323.106618-.0703894.203031-.09375.3125-.0728786.341512-.125.698205-.125 1.0625v2 68 2c0 2.781848 2.2181517 5 5 5h2 68 2c2.781848 0 5-2.218152 5-5v-2-68-2c0-.364295-.05212-.720988-.125-1.0625-.04415-.206893-.08838-.397658-.15625-.59375-.0077-.02195-.0233-.04069-.03125-.0625-.06274-.173739-.138383-.367449-.21875-.53125-.04158-.0828-.07904-.169954-.125-.25-.0546-.09721-.126774-.18835-.1875-.28125-.09411-.140965-.204921-.275995-.3125-.40625-.143174-.17445-.303141-.346998-.46875-.5-.01117-.0102-.01998-.02115-.03125-.03125-.138386-.125556-.285091-.234436-.4375-.34375-.102571-.07315-.204318-.153364-.3125-.21875-.0074-.0045-.02384.0044-.03125 0-.232039-.138728-.462548-.274778-.71875-.375.301527.0968.596455.204138.875.34375.55709.279224 1.060053.665694 1.5 1.09375.219973.214028.409366.441865.59375.6875s.355408.507743.5.78125c.14012.265048.276135.524729.375.8125.01041.03078.02133.06274.03125.09375.09046.278085.1388.579404.1875.875.0524.31805.09375.634029.09375.96875v2 68 2c0 3.324-2.676 6-6 6z" fill="url(#e)" opacity=".2"/><path d="m12 6c-3.324 0-6 2.676-6 6v29.09375c11.241723 4.283511 25.921632 6.90625 42 6.90625s30.758277-2.622739 42-6.90625v-29.09375c0-3.324-2.676-6-6-6z" fill="url(#h)" opacity=".6"/><g stroke="#fefefe"><rect height="66" rx="12" style="opacity:.2;fill:#26d3ff;stroke-width:.5;stroke-linecap:round;clip-path:url(#f);filter:url(#d)" width="66" x="15" y="15"/><path d="m48.09375 36c-7.608404-.0089-15.241624 1.190687-22.5625 3.59375l6.75 20.40625c10.264119-3.369177 21.336016-3.355643 31.59375.03125l6.75-20.375c-7.315248-2.420143-14.922846-3.647371-22.53125-3.65625z" fill="none" stroke-linejoin="round" stroke-width="4"/><path d="m50 64a2 2 0 1 1 -4 0 2 2 0 1 1 4 0z" fill="none" stroke-dashoffset="1" stroke-linejoin="round" stroke-width="2.666667" transform="matrix(1.5 0 0 1.5 -24 -24)"/><path d="m47.867955 71.976929-6.723113-25.091" fill="none" stroke-linecap="round" stroke-width="4"/></g><path d="m57.5625 19.15625-.84375.21875-.34375.84375.5.75.3125.15625.5625.09375.5625.15625.03125.03125h.0625l.5.21875.90625-.0625.46875-.75-.3125-.84375-.3125-.1875-.59375-.25-.09375-.03125-.71875-.25h-.125zm-4.375.34375-.34375.0625-.3125.125-.09375.03125-.6875.34375-.09375.03125-.65625.40625-.0625.0625-.125.0625-.40625.8125.40625.8125.875.15625.34375-.15625v-.03125l.09375-.0625.5-.28125.59375-.3125.09375-.03125.21875-.0625.625-.65625-.15625-.90625zm9.375 2.75-.84375.34375-.1875.875.125.3125.40625.65625h.03125l.25.5.1875.4375.6875.5625.875-.15625.34375-.84375-.03125-.34375-.21875-.4375v-.0625l-.375-.6875-.0625-.09375-.4375-.625zm-13.5625 1.1875-.84375.28125-.21875.28125-.21875.4375-.03125.09375-.28125.75-.03125.09375-.15625.6875.1875.875.8125.375.78125-.4375.15625-.3125.125-.59375h.03125l.21875-.65625.03125-.09375.1875-.34375-.03125-.90625zm14.71875 4.59375-.65625.59375-.0625.375v2l.40625.78125.875.15625.65625-.59375.0625-.34375v-2l-.40625-.8125zm-16 1.3125-.65625.625-.0625.34375v2l.40625.78125.875.1875.65625-.625.0625-.34375v-2l-.40625-.8125zm0 6-.65625.625-.0625.34375v2l.40625.78125.875.1875.65625-.625.0625-.34375v-2l-.40625-.8125zm0 6-.65625.625-.0625.34375v2l.40625.78125.875.1875.65625-.625.0625-.34375v-2l-.40625-.8125zm0 6-.65625.625-.0625.34375v2l.40625.78125.875.1875.65625-.625.0625-.34375v-2l-.40625-.8125z" fill="#fefefe"/><path d="m38.4375 19.15625.84375.21875.34375.84375-.5.75-.3125.15625-.5625.09375-.5625.15625-.03125.03125h-.0625l-.5.21875-.90625-.0625-.46875-.75.3125-.84375.3125-.1875.59375-.25.09375-.03125.71875-.25h.125zm4.375.34375.34375.0625.3125.125.09375.03125.6875.34375.09375.03125.65625.40625.0625.0625.125.0625.40625.8125-.40625.8125-.875.15625-.34375-.15625v-.03125l-.09375-.0625-.5-.28125-.59375-.3125-.09375-.03125-.21875-.0625-.625-.65625.15625-.90625zm-9.375 2.75.84375.34375.1875.875-.125.3125-.40625.65625h-.03125l-.25.5-.1875.4375-.6875.5625-.875-.15625-.34375-.84375.03125-.34375.21875-.4375v-.0625l.375-.6875.0625-.09375.4375-.625zm13.5625 1.1875.84375.28125.21875.28125.21875.4375.03125.09375.28125.75.03125.09375.15625.6875-.1875.875-.8125.375-.78125-.4375-.15625-.3125-.125-.59375h-.03125l-.21875-.65625-.03125-.09375-.1875-.34375.03125-.90625zm-14.71875 4.59375.65625.59375.0625.375v2l-.40625.78125-.875.15625-.65625-.59375-.0625-.34375v-2l.40625-.8125zm16 1.3125.65625.625.0625.34375v2l-.40625.78125-.875.1875-.65625-.625-.0625-.34375v-2l.40625-.8125zm0 6 .65625.625.0625.34375v2l-.40625.78125-.875.1875-.65625-.625-.0625-.34375v-2l.40625-.8125zm0 6 .65625.625.0625.34375v2l-.40625.78125-.875.1875-.65625-.625-.0625-.34375v-2l.40625-.8125zm0 6 .65625.625.0625.34375v2l-.40625.78125-.875.1875-.65625-.625-.0625-.34375v-2l.40625-.8125z" fill="#fefefe"/><g><g transform="matrix(.49713928 0 0 .39748921 63.498272 -.539543)"><path d="m26 69a5 5 0 1 1 -10 0 5 5 0 1 1 10 0z" fill="#162d50" filter="url(#i)" transform="translate(0 1)"/><path d="m26 69a5 5 0 1 1 -10 0 5 5 0 1 1 10 0z" fill="url(#j)"/><path d="m21 64.6875c-2.374424 0-4.3125 1.938076-4.3125 4.3125 0 1.404322.708594 2.621657 1.75 3.40625-.463567-.686169-.75-1.515841-.75-2.40625 0-2.374424 1.938076-4.3125 4.3125-4.3125.890409 0 1.720081.286433 2.40625.75-.784593-1.041406-2.001928-1.75-3.40625-1.75z" fill="#fefefe" opacity=".4"/><path d="m26 69a5 5 0 1 1 -10 0 5 5 0 1 1 10 0z" fill="url(#k)" transform="matrix(.42107535 -.20640511 .10320256 .21053768 3.676105 56.253029)"/></g><g transform="matrix(.79643821 0 0 .63679458 62.287742 -24.306909)"><path d="m26 69a5 5 0 1 1 -10 0 5 5 0 1 1 10 0z" fill="#162d50" filter="url(#i)" transform="translate(0 1)"/><path d="m26 69a5 5 0 1 1 -10 0 5 5 0 1 1 10 0z" fill="url(#j)"/><path d="m21 64.6875c-2.374424 0-4.3125 1.938076-4.3125 4.3125 0 1.404322.708594 2.621657 1.75 3.40625-.463567-.686169-.75-1.515841-.75-2.40625 0-2.374424 1.938076-4.3125 4.3125-4.3125.890409 0 1.720081.286433 2.40625.75-.784593-1.041406-2.001928-1.75-3.40625-1.75z" fill="#fefefe" opacity=".4"/><path d="m26 69a5 5 0 1 1 -10 0 5 5 0 1 1 10 0z" fill="url(#k)" transform="matrix(.42107535 -.20640511 .10320256 .21053768 3.676105 56.253029)"/></g><g transform="matrix(.60888611 0 0 .48683673 66.597384 22.533864)"><path d="m26 69a5 5 0 1 1 -10 0 5 5 0 1 1 10 0z" fill="#162d50" filter="url(#i)" transform="translate(0 1)"/><path d="m26 69a5 5 0 1 1 -10 0 5 5 0 1 1 10 0z" fill="url(#j)"/><path d="m21 64.6875c-2.374424 0-4.3125 1.938076-4.3125 4.3125 0 1.404322.708594 2.621657 1.75 3.40625-.463567-.686169-.75-1.515841-.75-2.40625 0-2.374424 1.938076-4.3125 4.3125-4.3125.890409 0 1.720081.286433 2.40625.75-.784593-1.041406-2.001928-1.75-3.40625-1.75z" fill="#fefefe" opacity=".4"/><path d="m26 69a5 5 0 1 1 -10 0 5 5 0 1 1 10 0z" fill="url(#k)" transform="matrix(.42107535 -.20640511 .10320256 .21053768 3.676105 56.253029)"/></g><g transform="matrix(1.0838101 0 0 .86656364 46.302298 14.129241)"><path d="m26 69a5 5 0 1 1 -10 0 5 5 0 1 1 10 0z" fill="#162d50" filter="url(#i)" transform="translate(0 1)"/><path d="m26 69a5 5 0 1 1 -10 0 5 5 0 1 1 10 0z" fill="url(#j)"/><path d="m21 64.6875c-2.374424 0-4.3125 1.938076-4.3125 4.3125 0 1.404322.708594 2.621657 1.75 3.40625-.463567-.686169-.75-1.515841-.75-2.40625 0-2.374424 1.938076-4.3125 4.3125-4.3125.890409 0 1.720081.286433 2.40625.75-.784593-1.041406-2.001928-1.75-3.40625-1.75z" fill="#fefefe" opacity=".4"/><path d="m26 69a5 5 0 1 1 -10 0 5 5 0 1 1 10 0z" fill="url(#k)" transform="matrix(.42107535 -.20640511 .10320256 .21053768 3.676105 56.253029)"/></g><g transform="matrix(.48782703 0 0 .39004358 70.216119 43.840267)"><path d="m26 69a5 5 0 1 1 -10 0 5 5 0 1 1 10 0z" fill="#162d50" filter="url(#i)" transform="translate(0 1)"/><path d="m26 69a5 5 0 1 1 -10 0 5 5 0 1 1 10 0z" fill="url(#j)"/><path d="m21 64.6875c-2.374424 0-4.3125 1.938076-4.3125 4.3125 0 1.404322.708594 2.621657 1.75 3.40625-.463567-.686169-.75-1.515841-.75-2.40625 0-2.374424 1.938076-4.3125 4.3125-4.3125.890409 0 1.720081.286433 2.40625.75-.784593-1.041406-2.001928-1.75-3.40625-1.75z" fill="#fefefe" opacity=".4"/><path d="m26 69a5 5 0 1 1 -10 0 5 5 0 1 1 10 0z" fill="url(#k)" transform="matrix(.42107535 -.20640511 .10320256 .21053768 3.676105 56.253029)"/></g><g transform="matrix(.72063292 0 0 .57618423 44.8738 40.27828)"><path d="m26 69a5 5 0 1 1 -10 0 5 5 0 1 1 10 0z" fill="#162d50" filter="url(#i)" transform="translate(0 1)"/><path d="m26 69a5 5 0 1 1 -10 0 5 5 0 1 1 10 0z" fill="url(#j)"/><path d="m21 64.6875c-2.374424 0-4.3125 1.938076-4.3125 4.3125 0 1.404322.708594 2.621657 1.75 3.40625-.463567-.686169-.75-1.515841-.75-2.40625 0-2.374424 1.938076-4.3125 4.3125-4.3125.890409 0 1.720081.286433 2.40625.75-.784593-1.041406-2.001928-1.75-3.40625-1.75z" fill="#fefefe" opacity=".4"/><path d="m26 69a5 5 0 1 1 -10 0 5 5 0 1 1 10 0z" fill="url(#k)" transform="matrix(.42107535 -.20640511 .10320256 .21053768 3.676105 56.253029)"/></g><g transform="matrix(.61558355 0 0 .49484778 12.034709 -14.931809)"><path d="m26 69a5 5 0 1 1 -10 0 5 5 0 1 1 10 0z" fill="#162d50" filter="url(#i)" transform="translate(0 1)"/><path d="m26 69a5 5 0 1 1 -10 0 5 5 0 1 1 10 0z" fill="url(#j)"/><path d="m21 64.6875c-2.374424 0-4.3125 1.938076-4.3125 4.3125 0 1.404322.708594 2.621657 1.75 3.40625-.463567-.686169-.75-1.515841-.75-2.40625 0-2.374424 1.938076-4.3125 4.3125-4.3125.890409 0 1.720081.286433 2.40625.75-.784593-1.041406-2.001928-1.75-3.40625-1.75z" fill="#fefefe" opacity=".4"/><path d="m26 69a5 5 0 1 1 -10 0 5 5 0 1 1 10 0z" fill="url(#k)" transform="matrix(.42107535 -.20640511 .10320256 .21053768 3.676105 56.253029)"/></g><g transform="matrix(.87894092 0 0 .70275987 -2.713585 -22.596095)"><path d="m26 69a5 5 0 1 1 -10 0 5 5 0 1 1 10 0z" fill="#162d50" filter="url(#i)" transform="translate(0 1)"/><path d="m26 69a5 5 0 1 1 -10 0 5 5 0 1 1 10 0z" fill="url(#j)"/><path d="m21 64.6875c-2.374424 0-4.3125 1.938076-4.3125 4.3125 0 1.404322.708594 2.621657 1.75 3.40625-.463567-.686169-.75-1.515841-.75-2.40625 0-2.374424 1.938076-4.3125 4.3125-4.3125.890409 0 1.720081.286433 2.40625.75-.784593-1.041406-2.001928-1.75-3.40625-1.75z" fill="#fefefe" opacity=".4"/><path d="m26 69a5 5 0 1 1 -10 0 5 5 0 1 1 10 0z" fill="url(#k)" transform="matrix(.42107535 -.20640511 .10320256 .21053768 3.676105 56.253029)"/></g><g transform="matrix(.49713928 0 0 .39748921 4.481048 46.452058)"><path d="m26 69a5 5 0 1 1 -10 0 5 5 0 1 1 10 0z" fill="#162d50" filter="url(#i)" transform="translate(0 1)"/><path d="m26 69a5 5 0 1 1 -10 0 5 5 0 1 1 10 0z" fill="url(#j)"/><path d="m21 64.6875c-2.374424 0-4.3125 1.938076-4.3125 4.3125 0 1.404322.708594 2.621657 1.75 3.40625-.463567-.686169-.75-1.515841-.75-2.40625 0-2.374424 1.938076-4.3125 4.3125-4.3125.890409 0 1.720081.286433 2.40625.75-.784593-1.041406-2.001928-1.75-3.40625-1.75z" fill="#fefefe" opacity=".4"/><path d="m26 69a5 5 0 1 1 -10 0 5 5 0 1 1 10 0z" fill="url(#k)" transform="matrix(.42107535 -.20640511 .10320256 .21053768 3.676105 56.253029)"/></g><g transform="matrix(.49713928 0 0 .39748921 9.926843 22.655837)"><path d="m26 69a5 5 0 1 1 -10 0 5 5 0 1 1 10 0z" fill="#162d50" filter="url(#i)" transform="translate(0 1)"/><path d="m26 69a5 5 0 1 1 -10 0 5 5 0 1 1 10 0z" fill="url(#j)"/><path d="m21 64.6875c-2.374424 0-4.3125 1.938076-4.3125 4.3125 0 1.404322.708594 2.621657 1.75 3.40625-.463567-.686169-.75-1.515841-.75-2.40625 0-2.374424 1.938076-4.3125 4.3125-4.3125.890409 0 1.720081.286433 2.40625.75-.784593-1.041406-2.001928-1.75-3.40625-1.75z" fill="#fefefe" opacity=".4"/><path d="m26 69a5 5 0 1 1 -10 0 5 5 0 1 1 10 0z" fill="url(#k)" transform="matrix(.42107535 -.20640511 .10320256 .21053768 3.676105 56.253029)"/></g><g transform="translate(-32)"><path d="m26 69a5 5 0 1 1 -10 0 5 5 0 1 1 10 0z" fill="#162d50" filter="url(#i)" transform="matrix(1 0 0 .79955302 0 11.208824)"/><path d="m26 69a5 5 0 1 1 -10 0 5 5 0 1 1 10 0z" fill="url(#l)" transform="matrix(-1 0 0 .79955302 42 10.409271)"/><path d="m26 69a5 5 0 1 1 -10 0 5 5 0 1 1 10 0z" fill="url(#k)" transform="matrix(-.42107535 -.16503183 -.10320256 .16833604 38.323895 55.38655)"/><path d="m16.65625 63.65625c-.400178.574857-.65625 1.232919-.65625 1.9375 0 2.207905 2.238576 3.96875 5 3.96875 2.357014 0 4.315505-1.307568 4.84375-3.0625-.853837 1.226537-2.463545 2.0625-4.34375 2.0625-2.761424 0-5-1.760845-5-3.96875 0-.323347.06562-.636394.15625-.9375z" fill="#fefefe" opacity=".5"/></g><g transform="matrix(1.0181588 0 0 .81407198 1.620817 11.160601)"><path d="m26 69a5 5 0 1 1 -10 0 5 5 0 1 1 10 0z" fill="#162d50" filter="url(#i)" transform="translate(0 1)"/><path d="m26 69a5 5 0 1 1 -10 0 5 5 0 1 1 10 0z" fill="url(#j)"/><path d="m21 64.6875c-2.374424 0-4.3125 1.938076-4.3125 4.3125 0 1.404322.708594 2.621657 1.75 3.40625-.463567-.686169-.75-1.515841-.75-2.40625 0-2.374424 1.938076-4.3125 4.3125-4.3125.890409 0 1.720081.286433 2.40625.75-.784593-1.041406-2.001928-1.75-3.40625-1.75z" fill="#fefefe" opacity=".4"/><path d="m26 69a5 5 0 1 1 -10 0 5 5 0 1 1 10 0z" fill="url(#k)" transform="matrix(.42107535 -.20640511 .10320256 .21053768 3.676105 56.253029)"/></g></g></svg>