<svg height="96" width="96" xmlns="http://www.w3.org/2000/svg" xmlns:xlink="http://www.w3.org/1999/xlink"><linearGradient id="a" stop-color="#fff"><stop offset="0"/><stop offset="1" stop-opacity="0"/></linearGradient><filter id="b" color-interpolation-filters="sRGB" height="1.384" width="1.384" x="-.192" y="-.192"><feGaussianBlur stdDeviation="5.28"/></filter><linearGradient id="c" gradientUnits="userSpaceOnUse" x1="48" x2="48" xlink:href="#a" y1="20.221" y2="138.66"/><clipPath id="d"><rect height="84" rx="6" width="84" x="6" y="6"/></clipPath><linearGradient id="e" gradientTransform="matrix(1.0172 0 0 1.0172 -1.1034 -1.1034)" gradientUnits="userSpaceOnUse" x1="58.65" x2="58.65" y1="122" y2="5.4252"><stop offset="0" stop-color="#e4b31e"/><stop offset="1" stop-color="#ffef64"/></linearGradient><clipPath id="f"><path d="m62 6c-3.324 0-6 2.676-6 6v.53125c0-3.6103 2.921-6.531 6.531-6.531h-.531zm71.469 0c3.61 0 6.53 2.9207 6.53 6.531v-.531c0-3.324-2.676-6-6-6h-.53125zm6.53 6.531c0 36.735-3.5426 60.105-7.8438 69.938-10.82 5.031-35.685 7.531-69.634 7.531h71.469c3.324 0 6-2.676 6-6v-71.469zm-77.47 77.469c-3.61-.006-6.531-2.921-6.531-6.531v.531c0 3.324 2.676 6 6 6h.53125z"/></clipPath><linearGradient gradientTransform="translate(50)" gradientUnits="userSpaceOnUse" x1="48" x2="48" xlink:href="#e" y1="90" y2="5.9877"/><filter id="g" color-interpolation-filters="sRGB"><feGaussianBlur stdDeviation="1.2600071"/></filter><linearGradient id="h" gradientTransform="matrix(1.0059 0 0 .99417 100 0)" gradientUnits="userSpaceOnUse" x1="45.448" x2="45.448" y1="92.54" y2="7.0165"><stop offset="0"/><stop offset="1" stop-opacity=".58824"/></linearGradient><linearGradient id="i" gradientUnits="userSpaceOnUse" x1="36.357" x2="36.357" xlink:href="#a" y1="6" y2="63.893"/><linearGradient id="j" gradientUnits="userSpaceOnUse" x1="82.08" x2="59.612" xlink:href="#a" y1="82.29" y2="59.821"/><linearGradient id="k" gradientUnits="userSpaceOnUse" x1="44.71664168" x2="81.4500414" y1="34.09782606" y2="82.4608826"><stop offset="0" stop-color="#e7ba26" stop-opacity="0"/><stop offset=".48412" stop-color="#e9ab2c" stop-opacity=".83137"/><stop offset=".69663" stop-color="#eaa82e"/><stop offset=".84266" stop-color="#ebba3f"/><stop offset="1" stop-color="#f3e38c"/></linearGradient><radialGradient id="l" cx="48" cy="90.172" gradientTransform="matrix(1.1573 0 0 .99591 -7.551 .19713)" gradientUnits="userSpaceOnUse" r="42" xlink:href="#a"/><linearGradient id="m" gradientUnits="userSpaceOnUse" x1="48" x2="48" xlink:href="#e" y1="90" y2="6"/><linearGradient id="n" gradientTransform="translate(0 1)" gradientUnits="userSpaceOnUse" x1="32.251" x2="32.251" xlink:href="#h" y1="90" y2="6"/><linearGradient id="o" gradientTransform="matrix(1.0238 0 0 1.0119 -1.1429 .929)" gradientUnits="userSpaceOnUse" x1="32.251" x2="32.251" xlink:href="#h" y1="90" y2="6"/><linearGradient id="p" gradientTransform="matrix(1.0238 0 0 -1.0119 -1.1429 98.071)" gradientUnits="userSpaceOnUse" x1="32.251" x2="32.251" xlink:href="#h" y1="6.1317" y2="90.239"/><g fill="url(#p)"><path d="m12 95.031c-5.5111 0-10.031-4.52-10.031-10.031v-71c0-5.5111 4.5202-10.031 10.031-10.031h72c5.5111 0 10.031 4.5202 10.031 10.031v71c0 5.5111-4.5202 10.031-10.031 10.031z" opacity=".08"/><path d="m12 94.031c-4.9716 0-9.0312-4.0596-9.0312-9.0312v-71c0-4.9718 4.0596-9.0314 9.0312-9.0314h72c4.9716 0 9.0312 4.0596 9.0312 9.0312v71c0 4.9716-4.0596 9.0312-9.0312 9.0312h-72z" opacity=".1"/><path d="m12 93c-4.4091 0-8-3.591-8-8v-71c0-4.4091 3.5909-8 8-8h72c4.4091 0 8 3.5909 8 8v71c0 4.4091-3.5909 8-8 8z" opacity=".2"/></g><rect fill="url(#o)" height="85" opacity=".3" rx="7" width="86" x="5" y="7"/><rect fill="url(#n)" height="84" opacity=".45" rx="6" width="84" x="6" y="7"/><rect fill="url(#m)" height="84" rx="6" width="84" x="6" y="6"/><path d="m12 90c-3.324 0-6-2.676-6-6v-72c0-.33472.04135-.6507.09375-.96875.0487-.2956.09704-.59692.1875-.875.0099-.03.0209-.063.0313-.094.0989-.2873.2349-.547.375-.812.1446-.2735.3156-.5356.5-.7812.1844-.2457.3738-.4735.5937-.6876.44-.428.943-.8145 1.5-1.0937.2786-.1396.5735-.2469.8748-.3437-.256.1002-.4865.2362-.7185.375-.00741.0044-.023866-.0045-.03125 0-.031933.0193-.062293.04251-.09375.0625-.1204.0767-.23102.16351-.34375.25-.10617.0808-.21328.16111-.3125.25-.1779.1614-.3474.3453-.5.5312-.1075.1303-.2183.2653-.3124.4063-.0251.0383-.0385.0858-.0626.125-.0647.103-.1302.2045-.1874.3124-.1011.1948-.2057.4158-.2813.625-.008.0219-.0236.0406-.0313.0626-.0318.0919-.0358.1868-.0624.2812-.0304.1066-.0704.203-.0938.3125-.0729.3415-.125.6985-.125 1.0625v72c0 2.7818 2.2182 5 5 5h72c2.7818 0 5-2.2182 5-5v-72c0-.364-.052-.721-.125-1.0625-.044-.2069-.088-.3977-.156-.5937-.008-.022-.024-.0407-.031-.0626-.063-.1737-.139-.3674-.219-.5312-.042-.0828-.079-.17-.125-.25-.055-.0972-.127-.1884-.188-.2812-.094-.141-.205-.276-.312-.4063-.143-.1745-.303-.347-.469-.5-.011-.0102-.02-.0211-.031-.0313-.139-.1255-.285-.2344-.438-.3437-.102-.0731-.204-.1534-.312-.2187-.0074-.0045-.02384.0044-.03125 0-.23204-.13873-.46255-.27478-.71875-.375.30153.0968.59646.20414.875.34375.55709.27922 1.0601.66569 1.5 1.0938.21997.21403.40937.44186.59375.6875s.35541.50774.5.78125c.14012.26505.27614.52473.375.8125.01041.03078.02133.06274.03125.09375.09046.27808.1388.5794.1875.875.053.318.094.634.094.969v72c0 3.324-2.676 6-6 6h-72z" fill="url(#l)" opacity=".2"/><path clip-path="url(#f)" d="m62.517 6c-3.61 0-6.517 2.9067-6.517 6.517v70.966c0 3.6105 2.9067 6.5117 6.5172 6.5172 33.948 0 61.157.16315 73.402-3.7963 3.23-10.012 4.08-36.952 4.08-73.687 0-3.6103-2.91-6.517-6.52-6.517h-70.963z" fill="#a14b09" filter="url(#g)" opacity=".5" transform="translate(-50)"/><path d="m12 6c-3.324 0-6 2.676-6 6v6h84v-6c0-3.324-2.676-6-6-6z" fill="#fff" opacity=".35"/><path d="m12.517 6c-3.6103 0-6.517 2.9067-6.517 6.517v70.966c0 3.61 2.9067 6.511 6.517 6.517 33.949 0 58.836-2.515 69.652-7.546 4.302-9.833 7.831-33.202 7.831-69.937 0-3.6103-2.907-6.517-6.517-6.517h-70.966z" fill="url(#k)"/><path d="m12.519 46.915c.0293-.4398.11361-.76232.25288-.96756s.43246-.45812.87961-.75866c.44712-.30052.93457-.42147 1.4623-.36284.52775.05865.60105.35551.2199.8906-.38117.5351-.56442 1.0629-.54976 1.5833.0147.52044.2932.89427.83562 1.1215s1.1325.18692 1.7702-.12094c.63771-.30786 1.3817-.76598 2.232-1.3744.85027-.60839 1.7079-1.378 2.5728-2.309.86493-.9309 1.6016-1.8582 2.21-2.7817.60838-.92357 1.0958-1.7849 1.4623-2.5838.36648-.79896.59372-1.5869.68169-2.3639.08794-.77697-.15761-1.51-.73667-2.199-.57909-.68901-.87962-1.2681-.90159-1.7372-.02201-.4691.24554-.92357.80264-1.3634.99687.000019 1.6896.29322 2.0781.8796.38848.58642.74032 1.1875 1.0555 1.8032.31517.61574.58638 1.2425.81363 1.8802.22721.63773.46544 1.2168.71468 1.7372.2492.52045.43245 1.0555.54975 1.6053.11726.54976.30418 1.1362.56075 1.7592.25653.62306.47643 1.2791.6597 1.9681.18323.68903.48009.72202.8906.09896.41046-.62304 1.0592-1.4074 1.9461-2.3529.88691-.94556 1.6566-1.7445 2.309-2.3969.65234-.65236 1.3817-1.3011 2.188-1.9461.80627-.64503 1.6272-1.2241 2.4629-1.7372.83559-.51309 1.7665-.97488 2.7927-1.3854 1.0262-.41046 1.9424-.60837 2.7488-.59373.80627.01468 1.5613.14295 2.265.38483.70364.24191 1.2827.52045 1.7372.83562.45442.31521.82092.70736 1.0995 1.1765.2785.46914.43243 1.2901.46179 2.4629-.21994.49845-.48749.72568-.80264.68169-.31523-.04396-.49482-.38848-.53876-1.0335-.04402-.64503-.28225-1.1765-.71468-1.5943-.43251-.4178-.86498-.72199-1.2974-.91259-.43251-.19056-1.0006-.3445-1.7042-.46179-.70372-.11726-1.3964-.06228-2.0781.16492-.68173.22725-1.4184.58642-2.21 1.0775-.79168.49113-1.7153 1.0959-2.7708 1.8142-1.0556.71836-2.0781 1.5796-3.0676 2.5838-.98958 1.0042-1.8032 1.9388-2.4409 2.8037-.63774.86495-1.2021 1.6969-1.6932 2.4959-.49113.79898-.8503 1.6493-1.0775 2.5508-.22725.9016-.51312 1.7629-.85761 2.5838-.34453.82096-.78067 1.4513-1.3084 1.8911-.79166-.11728-1.2058-.35551-1.2424-.71468-.03667-.35917.06962-.76599.31886-1.2204.2492-.45446.46177-1.0299.63771-1.7262.1759-.69635.27852-1.4184.30786-2.166.0293-.74766-.08065-1.5136-.32985-2.298-.24924-.7843-.48747-1.444-.71468-1.9791-.22725-.53508-.47647-.97855-.74766-1.3304-.27123-.35183-.56076-.34084-.86861.03298-.30788.37384-.75134.93459-1.3304 1.6822-.57909.74767-1.2974 1.543-2.155 2.3859-.85763.84296-1.9791 1.7959-3.3645 2.8587-1.3854 1.0629-2.6388 1.7739-3.7603 2.133-1.1215.35917-2.0341.43247-2.7378.2199-.70368-.21257-1.1838-.56807-1.4404-1.0665-.25655-.49844-.43614-1.2681-.53875-2.309m26.08 2.0011c.23456.35184.5241.53509.86861.54975s.67069-.08063.97856-.28587c.30786-.20524.67069-.39948 1.0885-.58274.41781-.18325.82462-.41048 1.2204-.68169.39581-.27121.59372-.61205.59373-1.0225-.000006-.41048-.15394-.72933-.46179-.95657-.30787-.22722-.43614-.51676-.38483-.86861.0513-.35184.21256-.59373.48378-.72567.2712-.13193.722-.20523 1.3524-.2199.65969.13195 1.0628.4618 1.2095.98955.14659.52777.1356 1.0189-.03298 1.4733-.1686.45447.0403.86495.62672 1.2314.58639.3665 1.1105.48745 1.5723.36284.46178-.12461.722.01833.78065.42881-.07331.4398-.19426.70368-.36284.79164-.1686.08796-.50945.16859-1.0225.24189-.51311.0733-1.1288-.08429-1.8472-.47279-.71835-.38849-1.2315-.46545-1.5393-.2309-.30787.23456-.76966.53876-1.3854.91259-.61573.37383-1.2205.6707-1.8142.8906-.59374.2199-1.2718.32985-2.0341.32985-.70368-.23456-1.2021-.5974-1.4953-1.0885-.2932-.49111-.4398-1.0299-.4398-1.6163.0733-.41048.3775-.86128.91259-1.3524.53509-.49111 1.0482-.90159 1.5393-1.2314.49111-.32985.98955-.57174 1.4953-.72567.50577-.15392.86494-.13193 1.0775.06597.21257.19792.35184.43981.41781.72567.06596.28588.03664.51677-.08796.69269-.12462.17592-.30787.2932-.54975.35184-.2419.05864-.57541.13561-1.0005.2309-.42514.09529-.88327.32986-1.3744.70368-.49111.37383-.61939.73667-.38483 1.0885m9.4557-.32985c.1466-.39582.34818-.81363.60473-1.2534.25655-.4398.84662-1.0775 1.7702-1.9131.92358-.83562 1.6053-1.5833 2.0451-2.243-.67437.08797-1.1252.13561-1.3524.14294-.22724.0073-.36284-.12827-.40682-.40682-.04398-.27853.02199-.48377.19791-.61572.17592-.13193.52043-.23089 1.0335-.29687.5131-.06596 1.0482-.15026 1.6053-.25289.98222-.92357 1.7849-1.6639 2.4079-2.221.62304-.55707 1.2901-1.1581 2.0011-1.8032.711-.64503 1.3854-1.1838 2.0231-1.6163.6377-.43246 1.1911-.65602 1.6603-.6707.27853.36652.01831.90527-.78065 1.6163-.79898.71103-1.433 1.3011-1.9021 1.7702l-1.3524 1.3524c-.43248.43248-.92726.94925-1.4843 1.5503.71833-.08795 1.7922-.21256 3.2215-.37383 1.4293-.16125 2.8917-.31152 4.387-.4508 1.4953-.13926 3.0016-.26021 4.519-.36284 1.5173-.10261 3.0053-.16858 4.464-.19791 1.4586-.02931 2.976-.02564 4.5519.011 1.5759.03666 2.8587.10263 3.8483.19791.98952.0953 1.7775.3995 2.3639.91259-.6011.19059-1.1509.2529-1.6493.18692-.49847-.06596-1.0336-.11727-1.6053-.15393-.57178-.03664-1.2571-.04397-2.0561-.02199-.799.022-1.7666.05132-2.9027.08796-1.1362.03666-2.3493.06232-3.6394.07696-1.2901.01467-2.5985.07698-3.9252.18692-1.3268.10996-2.5875.22724-3.7823.35184-1.1948.12462-2.4372.23823-3.7273.34084-1.2901.10263-2.2063.17226-2.7488.20891-.54243.03666-.98956.07698-1.3414.12095-.35185.04399-.64138.12095-.86861.2309-.22724.10996-.46913.27488-.72567.49478-.25656.21991-.57541.5241-.95657.91259-.38117.3885-.83196.89427-1.3524 1.5173-.52044.62306-.98223 1.1581-1.3854 1.6053-.40316.44714-.69269.86494-.86861 1.2534-.17592.38849-.19791.733-.06597 1.0335.13194.30053.38116.48378.74766.54975s1.0702-.08063 2.111-.4398c1.0409-.35917 1.7812-.67803 2.221-.95657.43979-.27854.77331-.45446 1.0005-.52776.22722-.0733.40314-.02565.52776.14294.1246.16859-.05499.45813-.53876.86861-.48379.41048-.91626.72567-1.2974.94557-.38117.2199-.8173.42514-1.3084.61572-.49112.19058-1.0445.32985-1.6603.41781-.39583.05864-.76966.08796-1.1215.08796-.2199-.000001-.43248-.0073-.63771-.02199-.55708-.05864-.99322-.18692-1.3084-.38483-.31519-.19791-.5241-.45813-.62672-.78065-.11728-.2932-.17592-.55708-.17592-.79164 0-.01466.0073-.03665.02199-.06597 0-.24922.0733-.57174.2199-.96756m9.7856-1.0995c.89426-.2932 1.4917-.57174 1.7922-.83562.30053-.26388.4288-.50577.38483-.72567-.04399-.2199-.2932-.21257-.74766.02199-.45446.23457-.76599.47279-.93458.71468-.16859.2419-.33352.51677-.49478.82463m-1.9351 1.4513c0-.76232.09529-1.3487.28587-1.7592.19058-.41048.50211-.83562.93458-1.2754.43247-.4398.86494-.82096 1.2974-1.1435.43247-.32251.87594-.54242 1.3304-.6597l.50577-.02199c.45446.01467.85028.13928 1.1875.37383.33718.23457.48011.64871.42881 1.2424-.05132.59374-.34452 1.1068-.8796 1.5393-.5351.43248-1.1398.744-1.8142.93458-.67436.19058-1.0372.36284-1.0885.51677-.05131.15393.05864.32252.32985.50577s.8796.30053 1.8252.35184c.94557.05131 1.7189.000002 2.32-.15393.60106-.15393 1.0885-.31885 1.4623-.49478.37382-.17592.66702-.2932.8796-.35184.21256-.05864.38482.05131.51677.32985-.38117.54242-.79898.94191-1.2534 1.1985-.45447.25655-1.0225.48745-1.7042.69269s-1.5137.32985-2.4959.37383h-.59373c-1.0702-.10262-1.7922-.24556-2.166-.42881-.37383-.18325-.66337-.39948-.86861-.64871-.20524-.24922-.35184-.62305-.4398-1.1215m9.9725.19791c.15393.42514.4398.60473.85761.53876s.79897-.2089 1.1435-.42881c.35184-.22723.70734-.56074 1.0665-1.0005.35917-.44713.51676-.75132.47279-.91259-.86495.63038-1.5466 1.0482-2.0451 1.2534-.49112.20524-.98956.38849-1.4953.54975m-2.21-.98955c.01466-.46912.06231-.82829.14294-1.0775.08063-.24922.21624-.41781.40682-.50577s.43247-.11728.72567-.08796c.2932.02933.5131.5241.6597 1.4843.61572-.11728 1.1471-.28953 1.5943-.51677.44713-.22723.87227-.44346 1.2754-.64871.40315-.21257.87593-.43613 1.4184-.6707.54242-.23456 1.0482-.49111 1.5173-.76965.46911-.28587.82096-.56441 1.0555-.83562.23455-.27853.41047-.55708.52776-.83562.11727-.28586.31518-.46178.59373-.52776.32984.0073.57173.07697.72567.2089.15392.12462.24921.42148.28587.8906-.01467.20525-.06598.40682-.15393.60473-.08797.19792-.28222.43614-.58274.71468-.29321.27122-.6084.49478-.94557.6707-.32986.1686-.70002.3775-1.1105.62672-.40316.24922-.80998.58274-1.2204 1.0005-.40316.41781-.69636.82463-.8796 1.2204-.17593.38849-.35918.744-.54975 1.0665-.19058.31519-.48012.57541-.86861.78065-.3885.19791-.98956.32252-1.8032.37383-.54242-.01466-.96756-.08429-1.2754-.2089-.30786-.12461-.63038-.49478-.96756-1.1105s-.52776-1.2314-.57174-1.8472" fill="#22225e" opacity=".9"/><path d="m87.562 7.4375c.896 1.1156 1.438 2.5457 1.438 4.0935 0 36.735-3.543 60.105-7.844 69.938-10.816 5.031-35.676 7.531-69.625 7.531-1.5478-.002-2.9779-.543-4.0935-1.438 1.1925 1.486 3.0315 2.435 5.0935 2.438 33.949 0 58.809-2.5 69.625-7.531 4.301-9.833 7.844-33.203 7.844-69.938 0-2.062-.951-3.901-2.438-5.0935z" fill="url(#j)" opacity=".3"/><path d="m89.969 19.281c-.40529 32.853-3.7815 53.972-7.8125 63.188-10.14 4.7164-32.629 7.2052-63.375 7.5 30.865-.09992 54.681-1.0063 64.812-5.7188 4.0323-9.2182 6.1284-31.901 6.375-64.969z" fill="#520" opacity=".2"/><path d="m12 6c-3.324 0-6 2.676-6 6v72c0 .33472.04135.6507.09375.96875.0487.2956.09704.59692.1875.875.00988.03038.020892.0636.03125.09375.098865.28777.23488.54745.375.8125.14459.27351.31562.53562.5.78125.18438.24564.37378.47347.59375.6875.43995.42806.94291.81453 1.5 1.0938.27854.13961.57347.24695.875.34375-.2562-.10022-.48671-.23627-.71875-.375-.00741-.0044-.023866.0045-.03125 0-.0319-.019-.0622-.042-.0937-.062-.1204-.077-.231-.164-.3437-.25-.1062-.081-.2133-.161-.3126-.25-.1778-.162-.3473-.346-.4999-.531-.1075-.131-.2183-.266-.3124-.407-.0251-.038-.0385-.086-.0626-.125-.0647-.103-.1302-.204-.1874-.312-.1011-.195-.2057-.416-.2813-.625-.008-.022-.0236-.041-.0313-.063-.0318-.092-.0358-.187-.0624-.281-.0304-.107-.0704-.203-.0938-.313-.0729-.341-.125-.698-.125-1.062v-72c0-2.782 2.2182-5 5-5h72c2.7818 0 5 2.2182 5 5v72c0 .3643-.05212.72099-.125 1.0625-.04415.20689-.08838.39766-.15625.59375-.0077.02195-.0233.04069-.03125.0625-.06274.17374-.13838.36745-.21875.53125-.04158.0828-.07904.16995-.125.25-.0546.09721-.12677.18835-.1875.28125-.09411.14096-.20492.276-.3125.40625-.14317.17445-.30314.347-.46875.5-.01117.0102-.01998.02115-.03125.03125-.13839.12556-.28509.23444-.4375.34375-.10257.07315-.20432.15336-.3125.21875-.0074.0045-.02384-.0044-.03125 0-.23204.13873-.46255.27478-.71875.375.30153-.0968.59646-.20414.875-.34375.55709-.27922 1.0601-.66569 1.5-1.0938.21997-.21403.40937-.44186.59375-.6875s.35541-.50774.5-.78125c.14012-.26505.27614-.52473.375-.8125.01041-.03078.02133-.06274.03125-.09375.09046-.27808.1388-.5794.1875-.875.053-.318.094-.634.094-.969v-72c0-3.324-2.676-6-6-6h-72z" fill="url(#i)" opacity=".6"/><rect height="66" rx="12" style="opacity:.1;stroke:#fff;stroke-linecap:round;stroke-width:.5;clip-path:url(#d);filter:url(#b);fill:url(#c)" width="66" x="15" y="15"/></svg>