<svg height="96" width="96" xmlns="http://www.w3.org/2000/svg" xmlns:xlink="http://www.w3.org/1999/xlink"><linearGradient id="a"><stop offset="0" stop-color="#c3b194"/><stop offset="1" stop-color="#e1c497"/></linearGradient><linearGradient id="b"><stop offset="0" stop-color="#c4c4c4"/><stop offset="1" stop-color="#f1f1f1"/></linearGradient><linearGradient id="c"><stop offset="0" stop-color="#fff"/><stop offset=".49891" stop-color="#ccc"/><stop offset=".60806" stop-color="#969696"/><stop offset="1" stop-color="#fff"/></linearGradient><linearGradient id="d"><stop offset="0" stop-color="#fff"/><stop offset=".39724" stop-color="#ccc"/><stop offset=".49891" stop-color="#ccc"/><stop offset=".60806" stop-color="#777"/><stop offset="1" stop-color="#fff"/></linearGradient><linearGradient id="e"><stop offset="0" stop-color="#4d4d4d"/><stop offset="1" stop-color="#333"/></linearGradient><linearGradient id="f"><stop offset="0" stop-color="#ffbd2a"/><stop offset="1" stop-color="#ffe62a"/></linearGradient><linearGradient id="g" gradientTransform="scale(1.0059 .99417)" gradientUnits="userSpaceOnUse" x1="45.448" x2="45.448" y1="92.54" y2="7.0165"><stop offset="0"/><stop offset="1" stop-opacity=".58824"/></linearGradient><filter id="h" color-interpolation-filters="sRGB" height="1.384" width="1.384" x="-.192" y="-.192"><feGaussianBlur stdDeviation="5.28"/></filter><linearGradient id="i" gradientUnits="userSpaceOnUse" x1="48" x2="48" y1="20.221" y2="138.66"><stop offset="0"/><stop offset="1" stop-opacity="0"/></linearGradient><clipPath id="j"><rect height="84" rx="6" width="84" x="6" y="6"/></clipPath><radialGradient id="k" cx="48" cy="90" gradientTransform="matrix(1.1429 0 0 1 -6.8571 0)" gradientUnits="userSpaceOnUse" r="42"><stop offset="0" stop-color="#fcffff"/><stop offset="1" stop-color="#fff" stop-opacity="0"/></radialGradient><linearGradient id="l" gradientUnits="userSpaceOnUse" x1="40" x2="40" y1="8" y2="72"><stop offset="0" stop-color="#f7ffff"/><stop offset="1" stop-color="#fff" stop-opacity="0"/></linearGradient><linearGradient id="m" gradientUnits="userSpaceOnUse" x1="60" x2="60" y1="102" y2="17.9877"><stop offset="0" stop-color="#958741"/><stop offset="1" stop-color="#b4ba66"/></linearGradient><linearGradient id="n" gradientUnits="userSpaceOnUse" x1="48" x2="48" y1="90" y2="5.9877"><stop offset="0" stop-color="#3e8116"/><stop offset="1" stop-color="#66ae3b"/></linearGradient><linearGradient id="o" gradientUnits="userSpaceOnUse" x1="62" x2="62" xlink:href="#e" y1="25" y2="32"/><radialGradient id="p" cx="32" cy="32" gradientUnits="userSpaceOnUse" r="24" xlink:href="#e"/><linearGradient id="q" gradientUnits="userSpaceOnUse" x1="64" x2="64" xlink:href="#b" y1="70" y2="64"/><linearGradient id="r" gradientUnits="userSpaceOnUse" x1="58" x2="58" xlink:href="#b" y1="70" y2="64"/><linearGradient id="s" gradientUnits="userSpaceOnUse" x1="52" x2="52" xlink:href="#b" y1="70" y2="64"/><linearGradient id="t" gradientTransform="matrix(.8 0 0 1 -44.8 -94)" gradientUnits="userSpaceOnUse" x1="11" x2="16" xlink:href="#c" y1="25" y2="25"/><linearGradient id="u" gradientTransform="matrix(.8 0 0 1 -44.8 -90)" gradientUnits="userSpaceOnUse" x1="11" x2="16" xlink:href="#c" y1="25" y2="25"/><linearGradient id="v" gradientTransform="matrix(.8 0 0 1 -44.8 -86)" gradientUnits="userSpaceOnUse" x1="11" x2="16" xlink:href="#c" y1="25" y2="25"/><linearGradient id="w" gradientTransform="matrix(.8 0 0 1 -44.8 -82)" gradientUnits="userSpaceOnUse" x1="11" x2="16" xlink:href="#c" y1="25" y2="25"/><linearGradient id="x" gradientTransform="matrix(.8 0 0 1 11.2 -94)" gradientUnits="userSpaceOnUse" x1="11" x2="16" xlink:href="#c" y1="25" y2="25"/><linearGradient id="y" gradientTransform="matrix(.8 0 0 1 11.2 -90)" gradientUnits="userSpaceOnUse" x1="11" x2="16" xlink:href="#c" y1="25" y2="25"/><linearGradient id="z" gradientTransform="matrix(.8 0 0 1 11.2 -86)" gradientUnits="userSpaceOnUse" x1="11" x2="16" xlink:href="#c" y1="25" y2="25"/><linearGradient id="A" gradientTransform="matrix(.8 0 0 1 11.2 -82)" gradientUnits="userSpaceOnUse" x1="11" x2="16" xlink:href="#c" y1="25" y2="25"/><linearGradient id="B" gradientTransform="matrix(.8 0 0 .5 -68.8 4)" gradientUnits="userSpaceOnUse" x1="11" x2="16" xlink:href="#d" y1="25" y2="25"/><linearGradient id="C" gradientTransform="matrix(.8 0 0 .5 -68.8 6)" gradientUnits="userSpaceOnUse" x1="11" x2="16" xlink:href="#d" y1="25" y2="25"/><linearGradient id="D" gradientTransform="matrix(.8 0 0 .5 -68.8 8)" gradientUnits="userSpaceOnUse" x1="11" x2="16" xlink:href="#d" y1="25" y2="25"/><linearGradient id="E" gradientTransform="matrix(.8 0 0 .5 -68.8 10)" gradientUnits="userSpaceOnUse" x1="11" x2="16" xlink:href="#d" y1="25" y2="25"/><linearGradient id="F" gradientTransform="matrix(.8 0 0 .5 -68.8 12)" gradientUnits="userSpaceOnUse" x1="11" x2="16" xlink:href="#d" y1="25" y2="25"/><linearGradient id="G" gradientTransform="matrix(.8 0 0 .5 -68.8 14)" gradientUnits="userSpaceOnUse" x1="11" x2="16" xlink:href="#d" y1="25" y2="25"/><linearGradient id="H" gradientTransform="matrix(.8 0 0 .5 -68.8 16)" gradientUnits="userSpaceOnUse" x1="11" x2="16" xlink:href="#d" y1="25" y2="25"/><linearGradient id="I" gradientTransform="matrix(.8 0 0 .5 -68.8 18)" gradientUnits="userSpaceOnUse" x1="11" x2="16" xlink:href="#d" y1="25" y2="25"/><linearGradient id="J" gradientTransform="matrix(.8 0 0 .5 -68.8 20)" gradientUnits="userSpaceOnUse" x1="11" x2="16" xlink:href="#d" y1="25" y2="25"/><linearGradient id="K" gradientTransform="matrix(.8 0 0 .5 -68.8 22)" gradientUnits="userSpaceOnUse" x1="11" x2="16" xlink:href="#d" y1="25" y2="25"/><linearGradient id="L" gradientTransform="matrix(.8 0 0 .5 -68.8 24)" gradientUnits="userSpaceOnUse" x1="11" x2="16" xlink:href="#d" y1="25" y2="25"/><linearGradient id="M" gradientTransform="matrix(.8 0 0 .5 -68.8 26)" gradientUnits="userSpaceOnUse" x1="11" x2="16" xlink:href="#d" y1="25" y2="25"/><linearGradient id="N" gradientTransform="matrix(.8 0 0 .5 -68.8 28)" gradientUnits="userSpaceOnUse" x1="11" x2="16" xlink:href="#d" y1="25" y2="25"/><linearGradient id="O" gradientTransform="matrix(.8 0 0 .5 -68.8 30)" gradientUnits="userSpaceOnUse" x1="11" x2="16" xlink:href="#d" y1="25" y2="25"/><linearGradient id="P" gradientTransform="matrix(.8 0 0 .5 -68.8 32)" gradientUnits="userSpaceOnUse" x1="11" x2="16" xlink:href="#d" y1="25" y2="25"/><linearGradient id="Q" gradientTransform="matrix(.8 0 0 .5 -68.8 34)" gradientUnits="userSpaceOnUse" x1="11" x2="16" xlink:href="#d" y1="25" y2="25"/><linearGradient id="R" gradientTransform="matrix(.8 0 0 .5 -60.8 -68)" gradientUnits="userSpaceOnUse" x1="11" x2="16" xlink:href="#d" y1="25" y2="25"/><linearGradient id="S" gradientTransform="matrix(.8 0 0 .5 -60.8 -66)" gradientUnits="userSpaceOnUse" x1="11" x2="16" xlink:href="#d" y1="25" y2="25"/><linearGradient id="T" gradientTransform="matrix(.8 0 0 .5 -60.8 -64)" gradientUnits="userSpaceOnUse" x1="11" x2="16" xlink:href="#d" y1="25" y2="25"/><linearGradient id="U" gradientTransform="matrix(.8 0 0 .5 -60.8 -62)" gradientUnits="userSpaceOnUse" x1="11" x2="16" xlink:href="#d" y1="25" y2="25"/><linearGradient id="V" gradientTransform="matrix(.8 0 0 .5 -60.8 -60)" gradientUnits="userSpaceOnUse" x1="11" x2="16" xlink:href="#d" y1="25" y2="25"/><linearGradient id="W" gradientTransform="matrix(.8 0 0 .5 -60.8 -58)" gradientUnits="userSpaceOnUse" x1="11" x2="16" xlink:href="#d" y1="25" y2="25"/><linearGradient id="X" gradientTransform="matrix(.8 0 0 .5 -60.8 -56)" gradientUnits="userSpaceOnUse" x1="11" x2="16" xlink:href="#d" y1="25" y2="25"/><linearGradient id="Y" gradientTransform="matrix(.8 0 0 .5 -60.8 -54)" gradientUnits="userSpaceOnUse" x1="11" x2="16" xlink:href="#d" y1="25" y2="25"/><linearGradient id="Z" gradientTransform="matrix(.8 0 0 .5 -60.8 -52)" gradientUnits="userSpaceOnUse" x1="11" x2="16" xlink:href="#d" y1="25" y2="25"/><linearGradient id="aa" gradientTransform="matrix(.8 0 0 .5 -60.8 -50)" gradientUnits="userSpaceOnUse" x1="11" x2="16" xlink:href="#d" y1="25" y2="25"/><linearGradient id="ab" gradientTransform="matrix(.8 0 0 .5 -60.8 -48)" gradientUnits="userSpaceOnUse" x1="11" x2="16" xlink:href="#d" y1="25" y2="25"/><linearGradient id="ac" gradientTransform="matrix(.8 0 0 .5 -60.8 -46)" gradientUnits="userSpaceOnUse" x1="11" x2="16" xlink:href="#d" y1="25" y2="25"/><linearGradient id="ad" gradientTransform="matrix(.8 0 0 .5 -60.8 -44)" gradientUnits="userSpaceOnUse" x1="11" x2="16" xlink:href="#d" y1="25" y2="25"/><linearGradient id="ae" gradientTransform="matrix(.8 0 0 .5 -60.8 -42)" gradientUnits="userSpaceOnUse" x1="11" x2="16" xlink:href="#d" y1="25" y2="25"/><linearGradient id="af" gradientTransform="matrix(.8 0 0 .5 -60.8 -40)" gradientUnits="userSpaceOnUse" x1="11" x2="16" xlink:href="#d" y1="25" y2="25"/><linearGradient id="ag" gradientTransform="matrix(.8 0 0 .5 -60.8 -38)" gradientUnits="userSpaceOnUse" x1="11" x2="16" xlink:href="#d" y1="25" y2="25"/><linearGradient id="ah" gradientTransform="matrix(.8 0 0 .5 11.2 -60)" gradientUnits="userSpaceOnUse" x1="11" x2="16" xlink:href="#d" y1="25" y2="25"/><linearGradient id="ai" gradientTransform="matrix(.8 0 0 .5 11.2 -58)" gradientUnits="userSpaceOnUse" x1="11" x2="16" xlink:href="#d" y1="25" y2="25"/><linearGradient id="aj" gradientTransform="matrix(.8 0 0 .5 11.2 -56)" gradientUnits="userSpaceOnUse" x1="11" x2="16" xlink:href="#d" y1="25" y2="25"/><linearGradient id="ak" gradientTransform="matrix(.8 0 0 .5 11.2 -54)" gradientUnits="userSpaceOnUse" x1="11" x2="16" xlink:href="#d" y1="25" y2="25"/><linearGradient id="al" gradientTransform="matrix(.8 0 0 .5 11.2 -52)" gradientUnits="userSpaceOnUse" x1="11" x2="16" xlink:href="#d" y1="25" y2="25"/><linearGradient id="am" gradientTransform="matrix(.8 0 0 .5 11.2 -50)" gradientUnits="userSpaceOnUse" x1="11" x2="16" xlink:href="#d" y1="25" y2="25"/><linearGradient id="an" gradientTransform="matrix(.8 0 0 .5 11.2 -48)" gradientUnits="userSpaceOnUse" x1="11" x2="16" xlink:href="#d" y1="25" y2="25"/><linearGradient id="ao" gradientTransform="matrix(.8 0 0 .5 11.2 -46)" gradientUnits="userSpaceOnUse" x1="11" x2="16" xlink:href="#d" y1="25" y2="25"/><linearGradient id="ap" gradientTransform="matrix(.8 0 0 .5 11.2 -44)" gradientUnits="userSpaceOnUse" x1="11" x2="16" xlink:href="#d" y1="25" y2="25"/><linearGradient id="aq" gradientTransform="matrix(.8 0 0 .5 11.2 -42)" gradientUnits="userSpaceOnUse" x1="11" x2="16" xlink:href="#d" y1="25" y2="25"/><linearGradient id="ar" gradientTransform="matrix(.8 0 0 .5 11.2 -40)" gradientUnits="userSpaceOnUse" x1="11" x2="16" xlink:href="#d" y1="25" y2="25"/><linearGradient id="as" gradientTransform="matrix(.8 0 0 .5 11.2 -38)" gradientUnits="userSpaceOnUse" x1="11" x2="16" xlink:href="#d" y1="25" y2="25"/><linearGradient id="at" gradientTransform="matrix(.8 0 0 .5 11.2 -36)" gradientUnits="userSpaceOnUse" x1="11" x2="16" xlink:href="#d" y1="25" y2="25"/><linearGradient id="au" gradientTransform="matrix(.8 0 0 .5 11.2 -34)" gradientUnits="userSpaceOnUse" x1="11" x2="16" xlink:href="#d" y1="25" y2="25"/><linearGradient id="av" gradientTransform="matrix(.8 0 0 .5 11.2 -32)" gradientUnits="userSpaceOnUse" x1="11" x2="16" xlink:href="#d" y1="25" y2="25"/><linearGradient id="aw" gradientTransform="matrix(.8 0 0 .5 11.2 -30)" gradientUnits="userSpaceOnUse" x1="11" x2="16" xlink:href="#d" y1="25" y2="25"/><linearGradient id="ax" gradientTransform="matrix(.8 0 0 .5 3.2 12)" gradientUnits="userSpaceOnUse" x1="11" x2="16" xlink:href="#d" y1="25" y2="25"/><linearGradient id="ay" gradientTransform="matrix(.8 0 0 .5 3.2 14)" gradientUnits="userSpaceOnUse" x1="11" x2="16" xlink:href="#d" y1="25" y2="25"/><linearGradient id="az" gradientTransform="matrix(.8 0 0 .5 3.2 16)" gradientUnits="userSpaceOnUse" x1="11" x2="16" xlink:href="#d" y1="25" y2="25"/><linearGradient id="aA" gradientTransform="matrix(.8 0 0 .5 3.2 18)" gradientUnits="userSpaceOnUse" x1="11" x2="16" xlink:href="#d" y1="25" y2="25"/><linearGradient id="aB" gradientTransform="matrix(.8 0 0 .5 3.2 20)" gradientUnits="userSpaceOnUse" x1="11" x2="16" xlink:href="#d" y1="25" y2="25"/><linearGradient id="aC" gradientTransform="matrix(.8 0 0 .5 3.2 22)" gradientUnits="userSpaceOnUse" x1="11" x2="16" xlink:href="#d" y1="25" y2="25"/><linearGradient id="aD" gradientTransform="matrix(.8 0 0 .5 3.2 24)" gradientUnits="userSpaceOnUse" x1="11" x2="16" xlink:href="#d" y1="25" y2="25"/><linearGradient id="aE" gradientTransform="matrix(.8 0 0 .5 3.2 26)" gradientUnits="userSpaceOnUse" x1="11" x2="16" xlink:href="#d" y1="25" y2="25"/><linearGradient id="aF" gradientTransform="matrix(.8 0 0 .5 3.2 28)" gradientUnits="userSpaceOnUse" x1="11" x2="16" xlink:href="#d" y1="25" y2="25"/><linearGradient id="aG" gradientTransform="matrix(.8 0 0 .5 3.2 30)" gradientUnits="userSpaceOnUse" x1="11" x2="16" xlink:href="#d" y1="25" y2="25"/><linearGradient id="aH" gradientTransform="matrix(.8 0 0 .5 3.2 32)" gradientUnits="userSpaceOnUse" x1="11" x2="16" xlink:href="#d" y1="25" y2="25"/><linearGradient id="aI" gradientTransform="matrix(.8 0 0 .5 3.2 34)" gradientUnits="userSpaceOnUse" x1="11" x2="16" xlink:href="#d" y1="25" y2="25"/><linearGradient id="aJ" gradientTransform="matrix(.8 0 0 .5 3.2 36)" gradientUnits="userSpaceOnUse" x1="11" x2="16" xlink:href="#d" y1="25" y2="25"/><linearGradient id="aK" gradientTransform="matrix(.8 0 0 .5 3.2 38)" gradientUnits="userSpaceOnUse" x1="11" x2="16" xlink:href="#d" y1="25" y2="25"/><linearGradient id="aL" gradientTransform="matrix(.8 0 0 .5 3.2 40)" gradientUnits="userSpaceOnUse" x1="11" x2="16" xlink:href="#d" y1="25" y2="25"/><linearGradient id="aM" gradientTransform="matrix(.8 0 0 .5 3.2 42)" gradientUnits="userSpaceOnUse" x1="11" x2="16" xlink:href="#d" y1="25" y2="25"/><linearGradient id="aN" gradientUnits="userSpaceOnUse" x1="40" x2="40" y1="24" y2="48"><stop offset="0" stop-color="#fff"/><stop offset=".19256" stop-color="#7f7f7f" stop-opacity="0"/><stop offset="1"/></linearGradient><linearGradient id="aO" gradientUnits="userSpaceOnUse" x1="53.612" x2="53.612" xlink:href="#b" y1="75.079" y2="80.929"/><linearGradient id="aP" gradientUnits="userSpaceOnUse" x1="52.765" x2="52.765" y1="81.843" y2="73.812"><stop offset="0" stop-color="#dc6819"/><stop offset="1" stop-color="#efa471"/></linearGradient><linearGradient id="aQ" gradientUnits="userSpaceOnUse" x1="40" x2="40" xlink:href="#a" y1="80" y2="74"/><linearGradient id="aR" gradientUnits="userSpaceOnUse" x1="34" x2="34" xlink:href="#a" y1="80" y2="74"/><linearGradient id="aS" gradientUnits="userSpaceOnUse" x1="46" x2="46" xlink:href="#b" y1="70" y2="64"/><linearGradient id="aT" gradientTransform="matrix(1 0 0 .5 -166 -13)" gradientUnits="userSpaceOnUse" x1="78" x2="88" xlink:href="#f" y1="72" y2="72"/><linearGradient id="aU" gradientTransform="matrix(1 0 0 .5 -166 -9)" gradientUnits="userSpaceOnUse" x1="78" x2="88" xlink:href="#f" y1="72" y2="72"/><linearGradient id="aV" gradientTransform="matrix(1 0 0 .5 -166 -5)" gradientUnits="userSpaceOnUse" x1="78" x2="88" xlink:href="#f" y1="72" y2="72"/><linearGradient id="aW" gradientTransform="matrix(1 0 0 .5 -166 -1)" gradientUnits="userSpaceOnUse" x1="78" x2="88" xlink:href="#f" y1="72" y2="72"/><linearGradient id="aX" gradientTransform="matrix(1 0 0 .5 -166 9)" gradientUnits="userSpaceOnUse" x1="78" x2="88" xlink:href="#f" y1="72" y2="72"/><linearGradient id="aY" gradientTransform="matrix(1 0 0 .5 -166 13)" gradientUnits="userSpaceOnUse" x1="78" x2="88" xlink:href="#f" y1="72" y2="72"/><linearGradient id="aZ" gradientTransform="matrix(1 0 0 .5 -166 17)" gradientUnits="userSpaceOnUse" x1="78" x2="88" xlink:href="#f" y1="72" y2="72"/><linearGradient id="a0" gradientTransform="matrix(1 0 0 .5 -166 21)" gradientUnits="userSpaceOnUse" x1="78" x2="88" xlink:href="#f" y1="72" y2="72"/><linearGradient id="a1" gradientTransform="matrix(1 0 0 .5 -166 25)" gradientUnits="userSpaceOnUse" x1="78" x2="88" xlink:href="#f" y1="72" y2="72"/><linearGradient id="a2" gradientTransform="matrix(1 0 0 .5 -166 29)" gradientUnits="userSpaceOnUse" x1="78" x2="88" xlink:href="#f" y1="72" y2="72"/><linearGradient id="a3" gradientTransform="matrix(1 0 0 .5 -166 33)" gradientUnits="userSpaceOnUse" x1="78" x2="88" xlink:href="#f" y1="72" y2="72"/><linearGradient id="a4" gradientTransform="matrix(1 0 0 .5 -166 37)" gradientUnits="userSpaceOnUse" x1="78" x2="88" xlink:href="#f" y1="72" y2="72"/><linearGradient id="a5" gradientUnits="userSpaceOnUse" x1="40" x2="40" xlink:href="#g" y1="90.818" y2="6.7283"/><linearGradient id="a6" gradientUnits="userSpaceOnUse" x1="35.561" x2="35.561" xlink:href="#g" y1="91.982" y2="6.6452"/><linearGradient id="a7" gradientUnits="userSpaceOnUse" x1="38.802" x2="38.802" xlink:href="#g" y1="93.283" y2="5.9105"/><linearGradient id="a8" gradientUnits="userSpaceOnUse" x1="41.302" x2="41.302" xlink:href="#g" y1="93.716" y2="4.64"/><linearGradient id="a9" gradientUnits="userSpaceOnUse" x1="37.082" x2="37.082" xlink:href="#g" y1="95.234" y2="4.4148"/><path d="m12 3.9688c-5.5295 0-10.031 4.5017-10.031 10.031v71c0 5.5295 4.5018 10.031 10.031 10.031h60c5.5295 0 10.031-4.5018 10.031-10.031v-1.969h6.4688c3.0451 0 5.5312-2.4862 5.5312-5.5312v-56c0-3.0451-2.4862-5.5312-5.5312-5.5312h-6.469v-1.969c0-5.5297-4.502-10.031-10.031-10.031h-60z" fill="url(#a9)" opacity=".08"/><path d="m12 4.9375c-4.9974 0-9.0625 4.0651-9.0625 9.0625v71c0 4.9974 4.0651 9.0625 9.0625 9.0625h60c4.9974 0 9.0625-4.0651 9.0625-9.0625v-2.938h7.438c2.5104 0 4.5625-2.0521 4.5625-4.5625v-56c0-2.5104-2.0521-4.5625-4.5625-4.5625h-7.438v-2.938c0-4.9974-4.065-9.0625-9.062-9.0625h-60z" fill="url(#a8)" opacity=".1"/><path d="m12 5.9062c-4.466 0-8.0938 3.6278-8.0938 8.0938v71c0 4.466 3.6277 8.0938 8.0938 8.0938h60c4.466 0 8.0938-3.6277 8.0938-8.0938v-3.906h8.406c1.973 0 3.5938-1.6207 3.5938-3.5938v-56c0-1.973-1.6207-3.5938-3.5938-3.5938h-8.406v-3.906c0-4.466-3.628-8.0938-8.094-8.0938h-60z" fill="url(#a7)" opacity=".2"/><path d="m12 7c-3.878 0-7 3.122-7 7v71c0 3.878 3.122 7 7 7h60c3.878 0 7-3.122 7-7v-5h9.5c1.385 0 2.5-1.115 2.5-2.5v-56c0-1.385-1.115-2.5-2.5-2.5h-9.5v-5c0-3.878-3.122-7-7-7z" fill="url(#a6)" opacity=".3"/><path d="m12 7c-3.324 0-6 2.676-6 6v72c0 3.324 2.676 6 6 6h60c3.324 0 6-2.676 6-6v-6h10c1.108 0 2-.892 2-2v-56c0-1.108-.892-2-2-2h-10v-6c0-3.324-2.676-6-6-6z" fill="url(#a5)" opacity=".45"/><path d="m12 6c-3.324 0-6 2.676-6 6v72c0 3.324 2.676 6 6 6h60c3.324 0 6-2.676 6-6v-6h10c1.108 0 2-.892 2-2v-56c0-1.108-.892-2-2-2h-10v-6c0-3.324-2.676-6-6-6z" fill="url(#n)"/><path d="m78 18v60h10c1.108 0 2-.892 2-2v-56c0-1.108-.892-2-2-2z" fill="url(#m)"/><path d="m12 6c-3.324 0-6 2.676-6 6v72c0 2.9849 2.1528 5.4349 5 5.9062-2.2895-.462-4-2.47-4-4.906v-72c0-2.785 2.2155-5 5-5h60c2.7845 0 5 2.2155 5 5v6a1.0053 1.0053 0 0 0 1 1h10c.56852 0 1 .43148 1 1v56c0 .56852-.43148 1-1 1 1.108 0 2-.892 2-2v-56c0-1.108-.892-2-2-2h-10v-6c0-3.324-2.676-6-6-6h-60zm65.844 72a1.0053 1.0053 0 0 0 -.844 1v6c0 2.4365-1.7105 4.4441-4 4.9062 2.847-.471 5-2.921 5-5.906v-6a1.0053 1.0053 0 0 0 -.15625 0z" fill="url(#l)" opacity=".35"/><path d="m12 6c-3.324 0-6 2.676-6 6v72c0 3.324 2.676 6 6 6h60c3.324 0 6-2.676 6-6v-6h10c1.108 0 2-.892 2-2v-56c0-1.108-.892-2-2-2h-10v-6c0-3.324-2.676-6-6-6zm0 1.9688h60c2.2708 0 4.0312 1.7605 4.0312 4.0312v6c-.003 1.032.937 1.972 1.969 1.969h10c.05478 0 .03125-.02353.03125.03125v56c0 .05478.02353.03125-.03125.03125h-10c-1.032-.003-1.972.937-1.969 1.969v6c0 2.2708-1.7605 4.0312-4.0312 4.0312h-60c-2.2708 0-4.0312-1.76-4.0312-4.031v-72c0-2.2701 1.7604-4.0305 4.0312-4.0305z" fill="url(#k)" opacity=".2"/><path d="m-88 72h10v2h-10z" fill="url(#a4)" transform="scale(-1 1)"/><path d="m-88 68h10v2h-10z" fill="url(#a3)" transform="scale(-1 1)"/><path d="m-88 64h10v2h-10z" fill="url(#a2)" transform="scale(-1 1)"/><path d="m-88 60h10v2h-10z" fill="url(#a1)" transform="scale(-1 1)"/><path d="m-88 56h10v2h-10z" fill="url(#a0)" transform="scale(-1 1)"/><path d="m-88 52h10v2h-10z" fill="url(#aZ)" transform="scale(-1 1)"/><path d="m-88 48h10v2h-10z" fill="url(#aY)" transform="scale(-1 1)"/><path d="m-88 44h10v2h-10z" fill="url(#aX)" transform="scale(-1 1)"/><path d="m-88 34h10v2h-10z" fill="url(#aW)" transform="scale(-1 1)"/><path d="m-88 30h10v2h-10z" fill="url(#aV)" transform="scale(-1 1)"/><path d="m-88 26h10v2h-10z" fill="url(#aU)" transform="scale(-1 1)"/><path d="m-88 22h10v2h-10z" fill="url(#aT)" transform="scale(-1 1)"/><path d="m10 56 6 6h32l6-6v-16l2-2h22v-18h-26l-4-4h-16l-2 2h-14l-6 6zm18.019 23.974.109-5.996 2.071-1.854 37.049.109 2.558-2.058.117-24.117 4.077-4.058h4v32h-4l-2 2h-6l-2 2v4l-4 4h-26l-5.9814-6.0262z" opacity=".15"/><g fill="none" stroke="#fc0" stroke-width=".5"><path d="m18 64 3-3h53l4-4" opacity=".4"/><path d="m78 61-5 5h-35" opacity=".5"/><path d="m38 68h35l3-3h2" opacity=".5"/><path d="m24 70 2 2h26l2 2" opacity=".5"/><path d="m66 70h7l3 3h2" opacity=".5"/><path d="m33.866 79.995 2.134 2.005h4l4 4h5l4-4" opacity=".5"/><path d="m40 80 4 4h5l2-2" opacity=".5"/><path d="m24 64 1-1h46" opacity=".5"/></g><path d="m71.806 63.061a.90295.90295 0 1 1 -1.8059 0 .90295.90295 0 1 1 1.8059 0z" fill="#fc0" opacity=".5" transform="matrix(1.1075 0 0 1.1075 -6.5247 -6.8403)"/><g fill="none" stroke="#fc0" stroke-width=".5"><path d="m78 23h-2l-5-5h-17l-6 6" opacity=".5"/><path d="m39 18h11l3-3h16" opacity=".5"/><path d="m50 26 4-4h17l5 5h2" opacity=".5"/><path d="m52 39h16l6 6h4" opacity=".5"/><path d="m78 49h-4l-6-6h-6" opacity=".5"/><path d="m62 47h6l6 6h4" opacity=".5"/><path d="m78 31h-2l-6-6" opacity=".5"/><path d="m78 35h-2l-6-6" opacity=".5"/><path d="m51 59h10l6-6" opacity=".5"/></g><g fill="#fc0"><path d="m68 53a1 1 0 1 1 -2 0 1 1 0 1 1 2 0z" opacity=".5"/><path d="m51 59a1 1 0 1 1 -2 0 1 1 0 1 1 2 0z" opacity=".5"/><path d="m71 15a1 1 0 1 1 -2 0 1 1 0 1 1 2 0z" opacity=".5"/><path d="m39 18a1 1 0 1 1 -2 0 1 1 0 1 1 2 0z" opacity=".5"/><path d="m71 74a1 1 0 1 1 -2 0 1 1 0 1 1 2 0z" opacity=".5"/></g><g fill="none" stroke="#fc0" stroke-width=".5"><path d="m69 74h-3l-4 4h-2" opacity=".5"/><path d="m32 79h-8l-3 3" opacity=".5"/><path d="m32 77h-8l-6-6v-1" opacity=".5"/><path d="m13 55v16l4 4" opacity=".5"/></g><path d="m71.806 63.061a.90295.90295 0 1 1 -1.8059 0 .90295.90295 0 1 1 1.8059 0z" fill="#fc0" opacity=".5" transform="matrix(1.1075 0 0 1.1075 -61.525 5.1597)"/><path d="m71.806 63.061a.90295.90295 0 1 1 -1.8059 0 .90295.90295 0 1 1 1.8059 0z" fill="#fc0" opacity=".5" transform="matrix(1.1075 0 0 1.1075 -57.525 12.16)"/><path d="m11 62v10l6 6" fill="none" opacity=".5" stroke="#fc0" stroke-width=".5"/><path d="m71.806 63.061a.90295.90295 0 1 1 -1.8059 0 .90295.90295 0 1 1 1.8059 0z" fill="#fc0" opacity=".5" transform="matrix(1.1075 0 0 1.1075 -61.525 8.1597)"/><path d="m71.806 63.061a.90295.90295 0 1 1 -1.8059 0 .90295.90295 0 1 1 1.8059 0z" fill="#fc0" opacity=".5" transform="matrix(1.1075 0 0 1.1075 -67.525 -8.8403)"/><path d="m50 14 2-2h12" fill="none" opacity=".5" stroke="#fc0" stroke-width=".5"/><path d="m71.806 63.061a.90295.90295 0 1 1 -1.8059 0 .90295.90295 0 1 1 1.8059 0z" fill="#fc0" opacity=".5" transform="matrix(1.1075 0 0 1.1075 -13.525 -57.84)"/><path d="m71.806 63.061a.90295.90295 0 1 1 -1.8059 0 .90295.90295 0 1 1 1.8059 0z" fill="#fc0" opacity=".5" transform="matrix(1.1075 0 0 1.1075 -28.525 -55.84)"/><rect height="66" rx="12" style="stroke-width:.5;stroke-linecap:round;stroke:#fff;opacity:.1;fill:url(#i);filter:url(#h);clip-path:url(#j)" width="66" x="15" y="15"/><g fill="#333"><path d="m15.75 22.938c-1.6971.16914-1.9852 2.0571-1.8125 3.4333.02083 10.271-.04166 20.55.03125 30.817.08169 1.7151 1.9956 2.0546 3.3708 1.875 10.282-.02088 20.57.04173 30.848-.03125 1.7151-.08169 2.0546-1.9956 1.875-3.3708-.02088-10.282.04173-20.57-.03125-30.848-.08169-1.7151-1.9956-2.0546-3.3708-1.875h-30.91zm40 0c-1.6971.16914-1.9852 2.0571-1.8125 3.4333.09266 2.4653-.1926 4.974.15625 7.4104.83275 1.8698 3.1429 1.1345 4.7528 1.2812 3.2468-.05984 8.5126.12142 11.747-.09375 1.9536-.60638 1.3939-2.9219 1.4688-4.4804-.0872-2.0855.18484-4.2127-.15625-6.2696-.83275-1.8698-5.1429-1.1345-6.7528-1.2812h-9.4034zm0 18c-1.6971.16914-1.9852 2.0571-1.8125 3.4333.1007 1.0635.22506 1.9488 0 2.9953-.212 1.066.351 2.162.062 3.133-.08823 2.3513-.13932 4.7452.03125 7.0938.58134 1.8775 2.8546 1.4901 4.375 1.4062 1.8363-.30517 1.722-2.416 1.6562-3.8419v-4.0956c1.4058.01885 3.417.26536 3.9062-1.4688.12552-1.1844.23368-2.5326-.15625-3.625.38252-1.2363.38327-2.7012 0-3.9375-.99448-1.6999-3.2147-.913-4.8265-1.0938h-3.236zm-40 22c-1.6971.16914-1.9852 2.0571-1.8125 3.4333.12517 1.8572-.27489 3.8051.25 5.5979.99448 1.6999 3.2147.913 4.8265 1.0938 1.1429.09811 2.0719-.43069 3.1534 0 1.6077-.09977 3.3618.23719 4.8638-.25 1.3367.48875 2.8189.14852 4.2188.25-1.873.77762-1.186 3.0682-1.3125 4.6479.19383 1.6153-.53838 3.6098.75 4.8834 1.4888.88559 3.3443.2982 4.9963.46875 1.1072-.3551 2.0061.0042 3.1534 0 1.6182-.19721 3.7542.59506 4.8815-.9375.68476-1.5979.19591-3.4408.34375-5.1437.01105-1.4179.2834-3.4524-1.4688-3.95-1.2892-.19435-2.6053-.04863-3.9062-.09375 1.9704-.75516 1.2363-3.1556 1.375-4.7841-.1963-1.6154.59345-3.7474-.9375-4.8722-1.6436-.68756-3.5324-.19516-5.2812-.34375-.93318.44067-1.8385-.15522-2.8484 0-1.3328.12027-2.7704-.26917-4.0266.25-1.7038-.49609-3.563-.16605-5.3282-.23058-.93298.43484-1.9481-.24954-2.9801-.01942h-2.9104zm28 0c-1.6971.16914-1.9852 2.0571-1.8125 3.4333.12517 1.8572-.27489 3.8051.25 5.5979.99448 1.6999 3.2147.913 4.8265 1.0938 1.1798.06202 3.4761-.53092 1.028.22048-2.3282.9173-2.1595 3.5216-2.1046 5.5613-.0043 2.053-.34663 4.6888 1.8734 5.7842 2.0087.80735 4.2567.28444 6.3776.43408 2.0943-.17446 4.3877.46737 6.2944-.61379 2.2488-1.4879 1.4226-4.3736 1.5796-6.6325.84468-2.1909-2.216-4.8575-2.4352-4.7537 1.0837-.27656 1.9346-.08788 3.0424 0 1.6279-.19675 3.6386.54324 4.924-.75.88559-1.4888.2982-3.3443.46875-4.9963-.042-1.506.415-3.72-1.468-4.285-1.703-.15-3.453-.142-5.156-.031-.9436.28686-2.0579-.27568-3.112-.0625-1.1133.09732-2.318-.23348-3.3568.25-1.7038-.49609-3.563-.16605-5.3282-.23058-.93298.43484-1.9481-.24954-2.9801-.01942h-2.9104zm-10.75 9.843c.92443.23404-.93784.25473 0 0zm22 0c.92443.23404-.93784.25473 0 0zm-18.312.281c.91036-.17061.45413.31064 0 0z" opacity=".1"/><path d="m15.906 24.062c-.46.042-.85.476-.844.938v32c-.0051.49225.44525.9426.9375.9375h32c.492.005.943-.446.938-.938v-32c.005-.492-.446-.943-.938-.938h-32c-.03122-.0016-.06253-.0016-.09375 0zm40 0c-.46.042-.85.476-.844.938v8c-.0051.49225.44525.9426.9375.9375h14c.492.005.943-.446.938-.938v-8c.005-.492-.446-.943-.938-.938h-14c-.03122-.0016-.06253-.0016-.09375 0zm0 18c-.46.042-.85.476-.844.938v2c-.0051.49225.44525.9426.9375.9375h6c.492.005.943-.446.938-.938v-2c.005-.492-.446-.943-.938-.938h-6c-.03122-.0016-.06253-.0016-.09375 0zm0 4c-.46.042-.85.476-.844.938v2c-.0051.49225.44525.9426.9375.9375h6c.492.005.943-.446.938-.938v-2c.005-.492-.446-.943-.938-.938h-6c-.03122-.0016-.06253-.0016-.09375 0zm0 4c-.46.042-.85.476-.844.938v6c-.0051.49225.44525.9426.9375.9375h2c.492.005.943-.446.938-.938v-6c.005-.492-.446-.943-.938-.938h-2c-.03122-.0016-.06253-.0016-.09375 0zm-40 14c-.46.042-.85.476-.844.938v6c-.0051.49225.44525.9426.9375.9375h4c.492.005.943-.446.938-.938v-6c.005-.492-.446-.943-.938-.938h-4c-.03122-.0016-.06253-.0016-.09375 0zm6 0c-.46.042-.85.476-.844.938v6c-.0051.49225.44525.9426.9375.9375h4c.492.005.943-.446.938-.938v-6c.005-.492-.446-.943-.938-.938h-4c-.03122-.0016-.06253-.0016-.09375 0zm6 0c-.46.042-.85.476-.844.938v6c-.0051.49225.44525.9426.9375.9375h4c.492.005.943-.446.938-.938v-6c.005-.492-.446-.943-.938-.938h-4c-.03122-.0016-.06253-.0016-.09375 0zm6 0c-.46.042-.85.476-.844.938v6c-.0051.49225.44525.9426.9375.9375h4c.492.005.943-.446.938-.938v-6c.005-.492-.446-.943-.938-.938h-4c-.03122-.0016-.06253-.0016-.09375 0zm10 0c-.46.042-.85.476-.844.938v6c-.0051.49225.44525.9426.9375.9375h4c.492.005.943-.446.938-.938v-6c.005-.492-.446-.943-.938-.938h-4c-.03122-.0016-.06253-.0016-.09375 0zm6 0c-.46.042-.85.476-.844.938v6c-.0051.49225.44525.9426.9375.9375h4c.492.005.943-.446.938-.938v-6c.005-.492-.446-.943-.938-.938h-4c-.03122-.0016-.06253-.0016-.09375 0zm6 0c-.46.042-.85.476-.844.938v6c-.0051.49225.44525.9426.9375.9375h4c.492.005.943-.446.938-.938v-6c.005-.492-.446-.943-.938-.938h-4c-.03122-.0016-.06253-.0016-.09375 0zm6 0c-.46.042-.85.476-.844.938v6c-.0051.49225.44525.9426.9375.9375h4c.492.005.943-.446.938-.938v-6c.005-.492-.446-.943-.938-.938h-4c-.03122-.0016-.06253-.0016-.09375 0zm-30 10c-.46.042-.85.476-.844.938v6c-.0051.49225.44525.9426.9375.9375h4c.492.005.943-.446.938-.938v-6c.005-.492-.446-.943-.938-.938h-4c-.03122-.0016-.06253-.0016-.09375 0zm6 0c-.46.042-.85.476-.844.938v6c-.0051.49225.44525.9426.9375.9375h4c.492.005.943-.446.938-.938v-6c.005-.492-.446-.943-.938-.938h-4c-.03122-.0016-.06253-.0016-.09375 0zm11.594 0c-1.329 0-2.4375 1.1085-2.4375 2.4375v5c0 1.329 1.1085 2.4375 2.4375 2.4375h9c1.329 0 2.4375-1.1085 2.4375-2.4375v-5c0-1.329-1.1085-2.4375-2.4375-2.4375z" opacity=".15"/><path d="m16 25v32h32v-32zm40 0v8h14v-8zm0 18v2h6v-2zm0 4v2h6v-2zm0 4v6h2v-6zm-40 14v6h4v-6zm6 0v6h4v-6zm6 0v6h4v-6zm6 0v6h4v-6zm10 0v6h4v-6zm6 0v6h4v-6zm6 0v6h4v-6zm6 0v6h4v-6zm-30 10v6h4v-6zm6 0v6h4v-6zm11.5 0c-.831 0-1.5.669-1.5 1.5v5c0 .831.669 1.5 1.5 1.5h9c.831 0 1.5-.669 1.5-1.5v-5c0-.831-.669-1.5-1.5-1.5z" opacity=".3"/></g><path d="m16 24h32v32h-32z" fill="url(#p)"/><path d="m56 24h14v8h-14z" fill="url(#o)"/><g fill="#ccc"><path d="m16 64h4v6h-4z"/><path d="m22 64h4v6h-4z"/><path d="m28 64h4v6h-4z"/><path d="m34 64h4v6h-4z"/></g><path d="m44 64h4v6h-4z" fill="url(#aS)"/><path d="m32 74h4v6h-4z" fill="url(#aR)"/><path d="m38 74h4v6h-4z" fill="url(#aQ)"/><path d="m56 50h2v6h-2z" fill="#ccc"/><rect fill="url(#aP)" height="8" rx="1.5" width="12" x="48" y="74"/><rect fill="url(#aO)" height="6" rx="1" width="10" x="49" y="75"/><path d="m16 24v32h32v-32zm1 1h30v30h-30z" fill="url(#aN)" opacity=".4"/><path d="m12 54h4v1h-4z" fill="url(#aM)"/><path d="m12 52h4v1h-4z" fill="url(#aL)"/><path d="m12 50h4v1h-4z" fill="url(#aK)"/><path d="m12 48h4v1h-4z" fill="url(#aJ)"/><path d="m12 46h4v1h-4z" fill="url(#aI)"/><path d="m12 44h4v1h-4z" fill="url(#aH)"/><path d="m12 42h4v1h-4z" fill="url(#aG)"/><path d="m12 40h4v1h-4z" fill="url(#aF)"/><path d="m12 38h4v1h-4z" fill="url(#aE)"/><path d="m12 36h4v1h-4z" fill="url(#aD)"/><path d="m12 34h4v1h-4z" fill="url(#aC)"/><path d="m12 32h4v1h-4z" fill="url(#aB)"/><path d="m12 30h4v1h-4z" fill="url(#aA)"/><path d="m12 28h4v1h-4z" fill="url(#az)"/><path d="m12 26h4v1h-4z" fill="url(#ay)"/><path d="m12 24h4v1h-4z" fill="url(#ax)"/><g transform="rotate(90)"><path d="m20-18h4v1h-4z" fill="url(#aw)"/><path d="m20-20h4v1h-4z" fill="url(#av)"/><path d="m20-22h4v1h-4z" fill="url(#au)"/><path d="m20-24h4v1h-4z" fill="url(#at)"/><path d="m20-26h4v1h-4z" fill="url(#as)"/><path d="m20-28h4v1h-4z" fill="url(#ar)"/><path d="m20-30h4v1h-4z" fill="url(#aq)"/><path d="m20-32h4v1h-4z" fill="url(#ap)"/><path d="m20-34h4v1h-4z" fill="url(#ao)"/><path d="m20-36h4v1h-4z" fill="url(#an)"/><path d="m20-38h4v1h-4z" fill="url(#am)"/><path d="m20-40h4v1h-4z" fill="url(#al)"/><path d="m20-42h4v1h-4z" fill="url(#ak)"/><path d="m20-44h4v1h-4z" fill="url(#aj)"/><path d="m20-46h4v1h-4z" fill="url(#ai)"/><path d="m20-48h4v1h-4z" fill="url(#ah)"/></g><path d="m-52-26h4v1h-4z" fill="url(#ag)" transform="scale(-1)"/><path d="m-52-28h4v1h-4z" fill="url(#af)" transform="scale(-1)"/><path d="m-52-30h4v1h-4z" fill="url(#ae)" transform="scale(-1)"/><path d="m-52-32h4v1h-4z" fill="url(#ad)" transform="scale(-1)"/><path d="m-52-34h4v1h-4z" fill="url(#ac)" transform="scale(-1)"/><path d="m-52-36h4v1h-4z" fill="url(#ab)" transform="scale(-1)"/><path d="m-52-38h4v1h-4z" fill="url(#aa)" transform="scale(-1)"/><path d="m-52-40h4v1h-4z" fill="url(#Z)" transform="scale(-1)"/><path d="m-52-42h4v1h-4z" fill="url(#Y)" transform="scale(-1)"/><path d="m-52-44h4v1h-4z" fill="url(#X)" transform="scale(-1)"/><path d="m-52-46h4v1h-4z" fill="url(#W)" transform="scale(-1)"/><path d="m-52-48h4v1h-4z" fill="url(#V)" transform="scale(-1)"/><path d="m-52-50h4v1h-4z" fill="url(#U)" transform="scale(-1)"/><path d="m-52-52h4v1h-4z" fill="url(#T)" transform="scale(-1)"/><path d="m-52-54h4v1h-4z" fill="url(#S)" transform="scale(-1)"/><path d="m-52-56h4v1h-4z" fill="url(#R)" transform="scale(-1)"/><path d="m-60 46h4v1h-4z" fill="url(#Q)" transform="rotate(-90)"/><path d="m-60 44h4v1h-4z" fill="url(#P)" transform="rotate(-90)"/><path d="m-60 42h4v1h-4z" fill="url(#O)" transform="rotate(-90)"/><path d="m-60 40h4v1h-4z" fill="url(#N)" transform="rotate(-90)"/><path d="m-60 38h4v1h-4z" fill="url(#M)" transform="rotate(-90)"/><path d="m-60 36h4v1h-4z" fill="url(#L)" transform="rotate(-90)"/><path d="m-60 34h4v1h-4z" fill="url(#K)" transform="rotate(-90)"/><path d="m-60 32h4v1h-4z" fill="url(#J)" transform="rotate(-90)"/><path d="m-60 30h4v1h-4z" fill="url(#I)" transform="rotate(-90)"/><path d="m-60 28h4v1h-4z" fill="url(#H)" transform="rotate(-90)"/><path d="m-60 26h4v1h-4z" fill="url(#G)" transform="rotate(-90)"/><path d="m-60 24h4v1h-4z" fill="url(#F)" transform="rotate(-90)"/><path d="m-60 22h4v1h-4z" fill="url(#E)" transform="rotate(-90)"/><path d="m-60 20h4v1h-4z" fill="url(#D)" transform="rotate(-90)"/><path d="m-60 18h4v1h-4z" fill="url(#C)" transform="rotate(-90)"/><path d="m-60 16h4v1h-4z" fill="url(#B)" transform="rotate(-90)"/><path d="m20-58h4v2h-4z" fill="url(#A)" transform="rotate(90)"/><path d="m20-62h4v2h-4z" fill="url(#z)" transform="rotate(90)"/><path d="m20-66h4v2h-4z" fill="url(#y)" transform="rotate(90)"/><path d="m20-70h4v2h-4z" fill="url(#x)" transform="rotate(90)"/><path d="m-36-58h4v2h-4z" fill="url(#w)" transform="matrix(0 -1 -1 0 0 0)"/><path d="m-36-62h4v2h-4z" fill="url(#v)" transform="matrix(0 -1 -1 0 0 0)"/><path d="m-36-66h4v2h-4z" fill="url(#u)" transform="matrix(0 -1 -1 0 0 0)"/><path d="m-36-70h4v2h-4z" fill="url(#t)" transform="matrix(0 -1 -1 0 0 0)"/><path d="m56 24v1h14v-1z" fill="#fff" opacity=".2"/><path d="m56 31v1h14v-1z" opacity=".2"/><path d="m42-62h2v6h-2z" fill="#ccc" transform="rotate(90)"/><path d="m42-60h2v2h-2z" fill="#767676" transform="rotate(90)"/><path d="m42-62h1v6h-1z" fill="#fff" opacity=".6" transform="rotate(90)"/><path d="m46-62h2v6h-2z" fill="#ccc" transform="rotate(90)"/><path d="m46-60h2v2h-2z" fill="#767676" transform="rotate(90)"/><path d="m46-62h1v6h-1z" fill="#fff" opacity=".6" transform="rotate(90)"/><path d="m56 50h2v1h-2z" fill="#fff"/><path d="m56 51h2v4h-2z" fill="#b28160"/><path d="m17 65h2v4h-2z" opacity=".3"/><path d="m16 64h4v1h-4z" fill="#fff" opacity=".6"/><path d="m23 65h2v4h-2z" opacity=".3"/><path d="m22 64h4v1h-4z" fill="#fff" opacity=".6"/><path d="m29 65h2v4h-2z" opacity=".3"/><path d="m28 64h4v1h-4z" fill="#fff" opacity=".6"/><path d="m35 65h2v4h-2z" opacity=".3"/><path d="m34 64h4v1h-4z" fill="#fff" opacity=".6"/><path d="m50 64h4v6h-4z" fill="url(#s)"/><path d="m56 64h4v6h-4z" fill="url(#r)"/><path d="m62 64h4v6h-4z" fill="url(#q)"/><path d="m32 74v1h4v-1z" fill="#fff" opacity=".6"/><path d="m38 74v1h4v-1z" fill="#fff" opacity=".6"/></svg>