<svg height="96" width="96" xmlns="http://www.w3.org/2000/svg" xmlns:xlink="http://www.w3.org/1999/xlink"><linearGradient id="a"><stop offset="0"/><stop offset="1" stop-opacity="0"/></linearGradient><linearGradient id="b" stop-color="#fff" xlink:href="#a"/><filter id="c" color-interpolation-filters="sRGB" height="1.384" width="1.384" x="-.192" y="-.192"><feGaussianBlur stdDeviation="5.28"/></filter><linearGradient id="d" gradientUnits="userSpaceOnUse" x1="48" x2="48" xlink:href="#b" y1="20.221" y2="138.66"/><clipPath id="e"><rect height="84" rx="6" width="84" x="6" y="6"/></clipPath><linearGradient id="f" gradientUnits="userSpaceOnUse" x1="48" x2="48" y1="90" y2="5.9877"><stop offset="0" stop-color="#afafaf"/><stop offset="1" stop-color="#d8d8d8"/></linearGradient><clipPath id="g"><path d="m112 6c-3.324 0-6 2.676-6 6v23.719c4.1648 5.5909 10.839 9.2188 18.344 9.2188 12.613 0 22.844-10.231 22.844-22.844 0-6.2749-2.527-11.964-6.625-16.094h-7.3438c5.7812 3.1123 9.7188 9.2251 9.7188 16.25 0 10.182-8.256 18.438-18.438 18.438s-18.438-8.256-18.438-18.438c0-7.0249 3.9376-13.138 9.7188-16.25h-3.78zm34.375 0 .46875.59375.5625-.40625.5-.1875h-1.5312zm5.9688 0 .40625.75-1.6562 2.1562-1.4375 1.1875-.625.28125 1.0625 2.5625.65625-.25 1.8438-.15625 2.7188.34375.4375 1.7188-2.1562 1.6875-1.6875.75-.6875.125.375 2.75.6875-.0625 1.8125.3125 2.5312 1.0625v1.7812l-2.5312 1.0312-1.8125.3125-.6875-.0625-.375 2.75.6875.125 1.6875.75 2.1562 1.6875-.4375 1.7188-2.7188.375-1.85-.186-.65625-.21875-1.0625 2.5625.625.25 1.4375 1.1875 1.6562 2.1875-.87 1.531-2.72-.344-1.75-.656-.5625-.375-1.6875 2.1875.53125.4375 1.0625 1.5 1.0625 2.5312-1.25 1.2812-2.57-1.062-1.5-1.0625-.4375-.53125-2.1875 1.6875.375.5625.65625 1.75.34375 2.7188-1.5312.875-2.1875-1.6562-1.1562-1.4375-.3125-.625-2.5312 1.0625.21875.65625.1875 1.8438-.375 2.7188-1.7188.46875-1.6562-2.1875-.78125-1.6875-.125-.6875-2.7188.375.0625.65625-.3125 1.8438-1.0625 2.5312h-1.7812l-1.0625-2.5312-.29-1.844.0625-.65625-2.75-.375-.125.6875-.75 1.6875-1.6875 2.1875-1.7188-.46875-.375-2.7188.15625-1.8438.25-.65625-2.5312-1.0625-.3125.625-1.1875 1.4375-2.15 1.656-1.5625-.875.375-2.7188.625-1.75.40625-.5625-2.1875-1.6875-.4375.53125-.22.157v40.406c0 3.324 2.676 6 6 6h25.875l-.25-.40625 1.8438-2.4375 1.5938-1.2812.65625-.34375-1.1562-2.8125-.71875.25-2.0312.21875-3-.40625-.53125-1.9062 2.4062-1.875 1.875-.8125.75-.15625-.4-3.032-.75.0625-2.0312-.34375-2.8125-1.1562v-1.9688l2.8125-1.1875 2.0312-.3125.75.0625.40625-3.0312-.75-.15625-1.875-.84375-2.4062-1.8438.53125-1.9062 3-.40625 2.0312.1875.71875.25 1.1562-2.8125-.65625-.3125-1.5938-1.3125-1.8438-2.4062 1-1.7188 3 .40625 1.9062.71875.625.4375 1.875-2.4375-.59375-.5-1.19-1.658-1.16-2.812 1.41-1.375 2.8125 1.125 1.6562 1.2188.5.5625 2.4062-1.8438-.4375-.65625-.6875-1.875-.40625-3.0312 1.6875-1 2.4375 1.8438 1.3125 1.5938.3125.6875 2.8125-1.1875-.25-.6875-.1875-2.0625.40625-3 1.875-.5 1.875 2.4062.84375 1.875.125.71875 3.0312-.375-.0625-.78125.34375-2 1.1875-2.8125h1.9688l1.1562 2.8125.34375 2-.0625.78125 3.0312.375.125-.71875.84375-1.875 1.875-2.4062 1.875.5.4375 3-.21875 2.0625-.25.6875 2.8125 1.1875.34375-.6875 1.2812-1.5938 2.4062-1.8438 1.7188 1-.375 3.0312-.75 1.875-.40625.65625 2.4062 1.8438.5-.5625.84-.625v-36.344c0-3.324-2.676-6-6-6h-31.66zm-27.85 2.625c-7.5315 0-13.656 6.0935-13.656 13.625s6.1247 13.656 13.656 13.656c7.5315 0 13.625-6.1247 13.625-13.656 0-7.5315-6.0935-13.625-13.625-13.625zm44.562 38.531c-5.7458 0-11.052 1.9079-15.312 5.125l8.1562 8.7812c2.0761-1.2932 4.5319-2.0312 7.1562-2.0312 1.3235 0 2.603.17696 3.8125.53125l5.5-10.625c-2.8824-1.1353-6.0278-1.7812-9.3125-1.7812zm13.906 4.1562-5.5 10.656c3.0873 2.4513 5.1058 6.2039 5.1562 10.438l7.37 1.344v-15.562c-1.8742-2.718-4.2632-5.0613-7.0312-6.875zm-62.656 2.1562h1.2188l.9375 2.0938.0625.71875-.1875 1.2812 2.2188.59375.46875-1.1875.4375-.59375 1.875-1.3125 1.0625.625-.25 2.25-.28125.6875-.8125.96875 1.625 1.6562 1-.78125.6875-.3125 2.25-.21875.625 1.0625-1.3438 1.8438-.59375.4375-1.1875.46875.59375 2.2188 1.25-.1875.75.09375 2.0625.9375v1.25l-2.0938.9375-.71875.0625-1.25-.1875-.625 2.2188 1.1875.46875.59375.4375 1.3438 1.8438-.625 1.0625-2.2812-.21875-.65625-.3125-1-.78125-1.625 1.625.78125 1 .28125.65625.21875 2.2812-1.0625.59375-1.8438-1.3125-.4375-.625-.46875-1.1562-2.2188.5625.1875 1.2812-.0625.71875-.96875 2.0938h-1.2188l-.9375-2.0938-.0625-.75.1875-1.25-2.2188-.59375-.5 1.1875-.40625.59375-1.875 1.3125-1.0625-.625.21875-2.25.3125-.6875.8125-1-1.625-1.625-1 .78125-.6875.3125-2.2812.21875-.59375-1.0625 1.3438-1.875.59375-.40625 1.1875-.46875-.59375-2.2188-1.25.15625-.75-.0625-2.0625-.9375v-1.25l2.0625-.9375.75-.0625 1.25.1875.59375-2.2188-1.1562-.46875-.59375-.4375-1.3438-1.8438.625-1.0625 2.2812.21875.65625.3125 1 .78125 1.625-1.625-.78125-1-.32-.656-.21-2.281 1.09-.625 1.8438 1.3438.4375.59375.4375 1.1875 2.25-.59375-.1875-1.25.0625-.71875.96875-2.0938zm29.625 2.3438c-3.9326 4.4748-6.3125 10.329-6.3125 16.75 0 2.8687.49734 5.614 1.375 8.1875l10.906-4.9688c-.25-1.025-.41-2.117-.41-3.219 0-2.9834.9581-5.7295 2.5938-7.9688l-8.15-8.781zm-29.094 8.375c-1.8132 0-3.2812 1.4681-3.2812 3.2812s1.4681 3.2812 3.2812 3.2812c1.8132 0 3.2812-1.4681 3.2812-3.2812s-1.4681-3.2812-3.2812-3.2812zm48.219 3.2812c-2.7895 0-5.0312 2.2418-5.0312 5.0312 0 2.7895 2.2418 5.0625 5.0312 5.0625 2.7895 0 5.0625-2.273 5.0625-5.0625s-2.273-5.0312-5.0625-5.0312zm12.62 10.032c-1.4499 3.7088-4.4932 6.6216-8.2812 7.9062l.62 4.594h9.97c3.324 0 6-2.676 6-6v-4.969l-8.31-1.531zm-23.625 2.9688-10.906 5c.96641 1.6366 2.111 3.156 3.4062 4.5312h18.25l-.53125-3.9062c-4.2039-.24279-7.9024-2.4075-10.219-5.625zm-13.9 9.281-.35.25h.53125l-.1875-.25z"/></clipPath><linearGradient id="h" gradientUnits="userSpaceOnUse" x1="57.4039096" x2="57.4039096" y1="90.4446" y2="4.5898684"><stop offset="0" stop-color="#969696"/><stop offset="1" stop-color="#d2d2d2"/></linearGradient><clipPath id="i"><path d="m115.78 6c-5.7812 3.1123-9.7188 9.2251-9.7188 16.25 0 10.182 8.256 18.438 18.438 18.438s18.438-8.256 18.438-18.438c0-7.0249-3.9376-13.138-9.7188-16.25h-17.438zm24.781 0c4.098 4.1293 6.625 9.8189 6.625 16.094 0 12.613-10.231 22.844-22.844 22.844-7.5048.000001-14.179-3.6278-18.344-9.2188v7.875l.21875-.15625.4375-.53125 2.1875 1.6875-.40625.5625-.625 1.75-.375 2.7188 1.5625.875 2.1562-1.6562 1.1875-1.4375.3125-.625 2.5312 1.0625-.25.65625-.15625 1.8438.375 2.7188 1.7188.46875 1.6875-2.1875.75-1.6875.125-.6875 2.75.375-.07.656.28125 1.8438 1.0625 2.5312h1.7812l1.0625-2.5312.31-1.844-.0625-.65625 2.7188-.375.125.6875.78125 1.6875 1.6562 2.1875 1.7188-.46875.375-2.7188-.18-1.844-.21875-.65625 2.5312-1.0625.3125.625 1.1562 1.4375 2.1875 1.6562 1.5312-.875-.34375-2.7188-.65625-1.75-.375-.5625 2.1875-1.6875.4375.53125 1.5 1.0625 2.5625 1.0625 1.25-1.2812-1.0625-2.5312-1.0625-1.5-.53125-.4375 1.6875-2.1875.5625.375 1.75.65625 2.72.344.875-1.5312-1.6562-2.1875-1.4375-1.1875-.625-.25 1.0625-2.5625.65625.21875 1.8438.1875 2.7188-.375.4375-1.7188-2.1562-1.6875-1.6875-.75-.6875-.125.375-2.75.6875.0625 1.8125-.3125 2.52-1.032v-1.7812l-2.5312-1.0625-1.8125-.3125-.6875.0625-.375-2.75.6875-.125 1.6875-.75 2.1562-1.6875-.4375-1.7188-2.7188-.34375-1.8438.15625-.65625.25-1.0625-2.5625.625-.28125 1.4375-1.1875 1.66-2.156-.41-.75h-4.4375l-.5.1875-.5625.40625-.46-.5938h-5.82zm-16.06 2.625c7.5315 0 13.625 6.0935 13.625 13.625s-6.0935 13.656-13.625 13.656-13.656-6.1247-13.656-13.656c0-7.5315 6.1247-13.625 13.656-13.625zm43.594 28.219-1.1875 2.8125-.34375 2 .0625.78125-3.0312.375-.125-.71875-.84375-1.875-1.875-2.4062-1.875.5-.40625 3 .1875 2.0625.25.6875-2.8125 1.1875-.3125-.6875-1.3125-1.5938-2.4375-1.8438-1.6875 1 .40625 3.0312.6875 1.875.4375.65625-2.4062 1.8438-.5-.5625-1.65-1.218-2.81-1.125-1.41 1.375 1.1562 2.8125 1.1875 1.6562.59375.5-1.875 2.4375-.625-.4375-1.9062-.71875-3-.40625-1 1.7188 1.8438 2.4062 1.5938 1.3125.65625.3125-1.1562 2.8125-.71875-.25-2.0312-.1875-3 .40625-.53125 1.9062 2.4062 1.8438 1.875.84375.75.15625-.40625 3.0312-.75-.0625-2.0312.3125-2.8125 1.1875v1.9688l2.8125 1.1562 2.0312.34375.75-.0625.40625 3.0312-.75.15625-1.875.8125-2.4062 1.875.53125 1.9062 3 .40625 2.0312-.21875.71875-.25 1.1562 2.8125-.65625.34375-1.5938 1.2812-1.8438 2.4375.25.40625h5.9375l.34375-.25.1875.25h6.2188c-1.2952-1.3752-2.4398-2.8946-3.4062-4.5312l10.906-5c2.3164 3.2175 6.0148 5.3822 10.219 5.625l.53 3.91h5.2188l-.625-4.5938c3.788-1.2847 6.8314-4.1975 8.2812-7.9062l8.32 1.531v-5.281l-7.38-1.344c-.0504-4.2336-2.069-7.9862-5.1562-10.438l5.5-10.656c2.768 1.8137 5.157 4.157 7.0312 6.875v-9.8438l-.84375.625-.5.5625-2.4062-1.8438.40625-.65625.75-1.875.375-3.0312-1.7188-1-2.4062 1.8438-1.2812 1.5938-.34375.6875-2.8125-1.1875.25-.6875.21875-2.0625-.4375-3-1.875-.5-1.875 2.4062-.84375 1.875-.125.71875-3.0312-.375.0625-.78125-.34375-2-1.1562-2.8125h-1.9688zm.96875 10.312c3.2847 0 6.4301.64595 9.3125 1.7812l-5.5 10.625c-1.2094-.35429-2.489-.53125-3.8125-.53125-2.6243 0-5.0802.73807-7.1562 2.0312l-8.15-8.781c4.2606-3.2171 9.5667-5.125 15.312-5.125zm-48.75 6.3125-.96875 2.0938-.0625.71875.1875 1.25-2.25.59375-.4375-1.1875-.4375-.59375-1.84-1.344-1.0938.625.21875 2.2812.3125.65625.78125 1-1.625 1.625-1-.78125-.65625-.3125-2.2812-.21875-.625 1.0625 1.3438 1.8438.59375.4375 1.1562.46875-.59375 2.2188-1.25-.1875-.75.0625-2.0625.9375v1.25l2.0625.9375.75.0625 1.25-.15625.59375 2.2188-1.1875.46875-.59375.40625-1.3438 1.875.59375 1.0625 2.2812-.21875.6875-.3125 1-.78125 1.625 1.625-.8125 1-.3125.6875-.21875 2.25 1.0625.625 1.875-1.3125.40625-.59375.5-1.1875 2.2188.59375-.1875 1.25.0625.75.9375 2.0938h1.2188l.96875-2.0938.0625-.71875-.1875-1.2812 2.2188-.5625.46875 1.1562.4375.625 1.8438 1.3125 1.0625-.59375-.21875-2.2812-.28125-.65625-.78125-1 1.625-1.625 1 .78125.65625.3125 2.2812.21875.625-1.0625-1.34-1.844-.59375-.4375-1.1875-.46875.625-2.2188 1.25.1875.71875-.0625 2.0938-.9375v-1.25l-2.0625-.9375-.75-.09375-1.25.1875-.59375-2.2188 1.1875-.46875.59375-.4375 1.34-1.844-.625-1.0625-2.25.21875-.6875.3125-1 .78125-1.625-1.6562.8125-.96875.28125-.6875.25-2.25-1.0625-.625-1.875 1.3125-.4375.59375-.46875 1.1875-2.2188-.59375.1875-1.2812-.0625-.71875-.9375-2.0938h-1.2188zm29.625 2.3438 8.1562 8.7812c-1.64 2.24-2.6 4.986-2.6 7.969 0 1.1014.15791 2.1934.40625 3.2188l-10.91 4.969c-.87766-2.5735-1.375-5.3188-1.375-8.1875 0-6.4208 2.3799-12.275 6.3125-16.75zm-29.094 8.375c1.8132 0 3.2812 1.4681 3.2812 3.2812s-1.4681 3.2812-3.2812 3.2812c-1.8132 0-3.2812-1.4681-3.2812-3.2812s1.4681-3.2812 3.2812-3.2812zm48.219 3.2812c2.7895 0 5.0625 2.2418 5.0625 5.0312 0 2.7895-2.273 5.0625-5.0625 5.0625s-5.0312-2.273-5.0312-5.0625 2.2418-5.0312 5.0312-5.0312z"/></clipPath><filter id="j" color-interpolation-filters="sRGB"><feGaussianBlur stdDeviation=".42"/></filter><filter id="k" color-interpolation-filters="sRGB" height="1.24" width="1.24" x="-.12" y="-.12"><feGaussianBlur stdDeviation="4.2"/></filter><linearGradient id="l" gradientTransform="matrix(1.0059 0 0 .99417 100 0)" gradientUnits="userSpaceOnUse" x1="45.448" x2="45.448" y1="92.54" y2="7.0165"><stop offset="0"/><stop offset="1" stop-opacity=".58824"/></linearGradient><linearGradient id="m" gradientUnits="userSpaceOnUse" stop-color="#fff" x1="52.821" x2="52.821" xlink:href="#a" y1="32.81" y2="74.185"/><linearGradient id="n" gradientUnits="userSpaceOnUse" x1="48.714" x2="48.714" y1="76.203" y2="18.702"><stop offset="0" stop-color="#dcdcdc"/><stop offset="1" stop-color="#f0f0f0"/></linearGradient><linearGradient id="o" gradientTransform="matrix(5.5945 .29482 -.29472 5.5956 -8.9771 -12.186)" gradientUnits="userSpaceOnUse" x1="11.087" x2="10.541" y1="15.373" y2="4.9937"><stop offset="0" stop-color="#ff9604"/><stop offset="1" stop-color="#fff580"/></linearGradient><radialGradient id="p" cx="48" cy="90.172" gradientTransform="matrix(1.1573 0 0 .99591 -7.551 .19713)" gradientUnits="userSpaceOnUse" r="42" xlink:href="#b"/><linearGradient id="q" gradientUnits="userSpaceOnUse" x1="36.357" x2="36.357" xlink:href="#b" y1="6" y2="63.893"/><linearGradient id="r" gradientTransform="translate(.000001 1)" gradientUnits="userSpaceOnUse" x1="32.251" x2="32.251" xlink:href="#l" y1="90" y2="6"/><linearGradient id="s" gradientTransform="matrix(1.0238 0 0 1.0119 -1.1429 .929)" gradientUnits="userSpaceOnUse" x1="32.251" x2="32.251" xlink:href="#l" y1="90" y2="5.9996"/><linearGradient id="t" gradientTransform="matrix(1.0238 0 0 -1.0119 -1.1429 98.071)" gradientUnits="userSpaceOnUse" x1="32.251" x2="32.251" xlink:href="#l" y1="6.1317" y2="90.239"/><g fill="url(#t)"><path d="m12 95.031c-5.5111 0-10.031-4.52-10.031-10.031v-71c0-5.5111 4.5202-10.031 10.031-10.031h72c5.5111 0 10.031 4.5202 10.031 10.031v71c0 5.5111-4.5202 10.031-10.031 10.031z" opacity=".08"/><path d="m12 94.031c-4.9716 0-9.0312-4.0596-9.0312-9.0312v-71c0-4.9718 4.0596-9.0314 9.0312-9.0314h72c4.9716 0 9.0312 4.0596 9.0312 9.0312v71c0 4.9716-4.0596 9.0312-9.0312 9.0312h-72z" opacity=".1"/><path d="m12 93c-4.4091 0-8-3.591-8-8v-71c0-4.4091 3.5909-8 8-8h72c4.4091 0 8 3.5909 8 8v71c0 4.4091-3.5909 8-8 8z" opacity=".2"/></g><rect fill="url(#s)" height="85" opacity=".3" rx="7" width="86" x="5" y="7"/><rect fill="url(#r)" height="84" opacity=".45" rx="6" width="84" x="6" y="7"/><rect fill="url(#f)" height="84" rx="6" width="84" x="6" y="6"/><path clip-path="url(#g)" d="m115.78 6c-5.7812 3.1123-9.7188 9.2251-9.7188 16.25 0 10.182 8.256 18.438 18.438 18.438s18.438-8.256 18.438-18.438c0-7.0249-3.9376-13.138-9.7188-16.25h-17.438zm24.781 0c4.098 4.1293 5.936 9.8568 6.625 16.094 1.4921 13.506 7.8478 20.596-22.844 22.844-7.4848.54821-14.179-3.6278-18.344-9.2188v7.875l.21875-.15625.4375-.53125 2.1875 1.6875-.40625.5625-.625 1.75-.375 2.7188 1.5625.875 2.1562-1.6562 1.1875-1.4375.3125-.625 2.5312 1.0625-.25.65625-.15625 1.8438.375 2.7188 1.7188.46875 1.6875-2.1875.75-1.6875.125-.6875 2.75.375-.07.656.28125 1.8438 1.0625 2.5312h1.7812l1.0625-2.5312.31-1.844c36.684 17.947 2.3415-12.427 28.696-18.688l.4375-1.7188-2.1562-1.6875-1.6875-.75c-1.2924-.25326-.46704-1.7417-.3125-2.875l.6875.0625 1.8125-.3125 2.52-1.032v-1.7812l-2.5312-1.0625-1.8125-.3125-.6875.0625-.375-2.75.6875-.125 1.6875-.75 2.1562-1.6875-.4375-1.7188-2.7188-.34375-1.8438.15625-.65625.25-1.0625-2.5625.625-.28125 1.4375-1.1875 1.66-2.156-.41-.75h-4.4375l-.5.1875-.5625.40625-.46-.5938h-5.82zm-16.06 2.625c7.5315 0 13.625 6.0935 13.625 13.625s-6.0935 13.656-13.625 13.656-13.656-6.1247-13.656-13.656c0-7.5315 6.1247-13.625 13.656-13.625zm43.594 28.219-1.1875 2.8125c-21.422 25.248-38.364 32.005-30.776 35.063l2.0312.34375.75-.0625.40625 3.0312-.75.15625-1.875.8125-2.4062 1.875.53125 1.9062 3 .40625 2.0312-.21875.71875-.25 1.1562 2.8125-.65625.34375-1.5938 1.2812-1.8438 2.4375.25.40625h5.9375l.34375-.25.1875.25h6.2188c-1.2952-1.3752-2.4398-2.8946-3.4062-4.5312l10.906-5c2.3164 3.2175 6.0148 5.3822 10.219 5.625l.53 3.91h5.2188l-.625-4.5938c3.788-1.2847 6.8314-4.1975 8.2812-7.9062l8.32 1.531v-5.281l-7.38-1.344c-.0504-4.2336-2.069-7.9862-5.1562-10.438l5.5-10.656c2.768 1.8137 5.157 4.157 7.0312 6.875v-9.8438l-.84375.625-.5.5625-2.4062-1.8438.40625-.65625.75-1.875.375-3.0312-1.7188-1-2.4062 1.8438-1.2812 1.5938-.34375.6875-2.8125-1.1875.25-.6875.21875-2.0625-.4375-3-1.875-.5-1.875 2.4062c-.99771 3.4494-3.2024 2.5611-4.2812-.5625l-1.1562-2.8125h-1.9688zm.96875 10.312c3.2847 0 6.4301.64595 9.3125 1.7812l-5.5 10.625c-1.2094-.35429-2.489-.53125-3.8125-.53125-2.6243 0-5.0802.73807-7.1562 2.0312l-8.15-8.781c4.2606-3.2171 9.5667-5.125 15.312-5.125zm-48.75 6.3125-.96875 2.0938-.0625.71875.1875 1.25-2.25.59375-.4375-1.1875-.4375-.59375-1.84-1.344-1.0938.625.21875 2.2812.3125.65625.78125 1-1.625 1.625-1-.78125-.65625-.3125-2.2812-.21875-.625 1.0625 1.3438 1.8438.59375.4375 1.1562.46875-.59375 2.2188-1.25-.1875-.75.0625-2.0625.9375v1.25l2.0625.9375.75.0625 1.25-.15625.59375 2.2188-1.1875.46875-.59375.40625-1.3438 1.875.59375 1.0625 2.2812-.21875.6875-.3125 1-.78125 1.625 1.625-.8125 1-.3125.6875-.21875 2.25 1.0625.625 1.875-1.3125.40625-.59375.5-1.1875 2.2188.59375-.1875 1.25.0625.75.9375 2.0938h1.2188l.96875-2.0938.0625-.71875-.1875-1.2812 2.2188-.5625.46875 1.1562.4375.625 1.8438 1.3125 1.0625-.59375-.21875-2.2812-.28125-.65625-.78125-1 1.625-1.625c.50066.46873 1.0462.80325 1.6562 1.0938l2.2812.21875.625-1.0625c-.76158-1.4215-1.799-2.2264-3.1212-2.7502.28756-1.6091 10.15-6.2747.62505-5.125l-.59375-2.2188 1.1875-.46875c1.4191-1.0323 1.7929-2.4936 1.3088-3.344l-2.25.21875-.6875.3125-1 .78125-1.625-1.6562.8125-.96875.28125-.6875.25-2.25-1.0625-.625-1.875 1.3125-.4375.59375-.46875 1.1875-2.2188-.59375.1875-1.2812-.0625-.71875-.9375-2.0938h-1.2188zm29.625 2.3438 8.1562 8.7812c-1.64 2.24-2.6 4.986-2.6 7.969 0 1.1014.15791 2.1934.40625 3.2188l-10.91 4.969c-.87766-2.5735-1.375-5.3188-1.375-8.1875 0-6.4208 2.3799-12.275 6.3125-16.75zm-29.094 8.375c1.8132 0 3.2812 1.4681 3.2812 3.2812s-1.4681 3.2812-3.2812 3.2812c-1.8132 0-3.2812-1.4681-3.2812-3.2812s1.4681-3.2812 3.2812-3.2812zm48.219 3.2812c2.7895 0 5.0625 2.2418 5.0625 5.0312 0 2.7895-2.273 5.0625-5.0625 5.0625s-5.0312-2.273-5.0312-5.0625 2.2418-5.0312 5.0312-5.0312z" fill="#fff" filter="url(#k)" opacity=".5" transform="translate(-100)"/><path d="m15.781 6c-5.781 3.1123-9.7185 9.225-9.7185 16.25 0 10.182 8.256 18.438 18.438 18.438s18.438-8.256 18.438-18.438c0-7.0249-3.9376-13.138-9.7188-16.25h-17.439zm24.781 0c4.098 4.1293 6.625 9.8189 6.625 16.094 0 12.613-10.231 22.844-22.844 22.844-7.504 0-14.178-3.628-18.343-9.219v7.875l.21875-.15625.4375-.53125 2.1875 1.6875-.40625.5625-.625 1.75-.3751 2.718 1.5625.875 2.1562-1.6562 1.1875-1.4375.3125-.625 2.5312 1.0625-.25.65625-.15625 1.8438.375 2.7188 1.7188.46875 1.6875-2.1875.75-1.6875.125-.6875 2.75.375-.062.656.28125 1.8438 1.0625 2.5312h1.7812l1.0625-2.5312.313-1.844-.0625-.65625c14.919 9.582 18.488-15.977 26.033-17.657l2.7188-.375.4375-1.7188-2.1562-1.6875-1.6875-.75c-1.2924-.25326-.46704-1.7417-.3125-2.875l.6875.0625 1.8125-.3125 2.531-1.031v-1.7812l-2.5312-1.0625-1.8125-.3125-.6875.0625-.375-2.75.6875-.125 1.6875-.75 2.156-1.687-.438-1.719-2.718-.344-1.844.157-.65625.25-1.0625-2.5625.625-.28125 1.4375-1.1875 1.656-2.1567-.406-.75h-4.4375l-.5.1875-.564.4068-.468-.5938h-5.814zm-16.062 2.625c7.5315 0 13.625 6.0935 13.625 13.625s-6.0935 13.656-13.625 13.656-13.656-6.1247-13.656-13.656c0-7.5315 6.1247-13.625 13.656-13.625zm43.594 28.219-1.1875 2.8125c-11.819-2.483-20.41 5.798-25.599 14.941-5.188 9.144-12.799 17.929-5.182 20.123l2.0312.34375.75-.0625.40625 3.0312-.75.15625-1.875.8125-2.4062 1.875.53125 1.9062 3 .40625 2.0312-.21875.71875-.25 1.1562 2.8125-.65625.34375-1.5938 1.2812-1.8438 2.4375.25.40625h5.9375l.34375-.25.1875.25h6.2188c-1.2952-1.3752-2.4398-2.8946-3.4062-4.5312l10.906-5c2.3164 3.2175 6.0148 5.3822 10.219 5.625l.531 3.908h5.2188l-.625-4.5938c3.788-1.284 6.832-4.197 8.282-7.906l8.312 1.531v-5.281l-7.375-1.344c-.05044-4.2336-2.0689-7.9862-5.1562-10.438l5.5-10.656c2.768 1.8137 5.157 4.157 7.0312 6.875v-9.8438l-.84375.625-.5.5625-2.4062-1.8438.40625-.65625.75-1.875.375-3.0312-1.7188-1-2.4062 1.8438-1.2812 1.5938-.34375.6875-2.8125-1.1875.25-.6875.21875-2.0625-.4375-3-1.875-.5-1.875 2.4062c-.64322 3.1596-3.7981 2.1279-4.2812-.5625l-1.1562-2.8125h-1.9688zm.96875 10.312c3.2847 0 6.4301.64595 9.3125 1.7812l-5.5 10.625c-1.2094-.35429-2.489-.53125-3.8125-.53125-2.6243 0-5.0801.73807-7.1562 2.0312l-8.157-8.781c4.2606-3.2171 9.5667-5.125 15.312-5.125zm-48.75 6.3125-.96875 2.0938-.0625.71875.1875 1.25-2.25.59375-.4375-1.1875-.4375-.59375-1.844-1.344-1.0938.625.21875 2.2812.3125.65625.78125 1-1.625 1.625-1-.78125-.65625-.3125-2.2812-.21875-.625 1.0625 1.3438 1.8438.59375.4375 1.1562.46875-.59375 2.2188-1.25-.1875-.75.0625-2.0625.9375v1.25l2.0625.9375.75.0625 1.25-.15625.594 2.219-1.187.469-.5942.406-1.3438 1.875.5938 1.063 2.2812-.219.6875-.3125 1-.78125 1.625 1.625-.8125 1-.3125.6875-.21875 2.25 1.0625.625 1.875-1.3125.40625-.59375.5-1.1875 2.2188.59375-.1875 1.25.0625.75.9375 2.0938h1.2188l.96875-2.0938.0625-.71875-.1875-1.2812 2.2188-.5625.46875 1.1562.4375.625 1.843 1.313 1.062-.594-.218-2.281-.282-.656-.78125-1 1.625-1.625 1 .78125.65625.3125 2.2812.21875.625-1.0625c-3.7108-4.5681 7.2142-9.1935-2.499-7.8748l-.594-2.219 1.187-.469c1.9639-2.2951 2.0859-3.4186-.937-3.1248l-.6875.3125-1 .78125-1.625-1.6562.8125-.96875.28125-.6875.25-2.25-1.0625-.625-1.875 1.3125-.4375.59375-.46875 1.1875-2.2188-.59375.1875-1.2812-.0625-.71875-.9375-2.0938h-1.2188zm29.625 2.3438 8.1562 8.7812c-1.636 2.24-2.594 4.986-2.594 7.969 0 1.1014.15791 2.1934.40625 3.2188l-10.906 4.969c-.87766-2.5735-1.375-5.3188-1.375-8.1875 0-6.4208 2.3799-12.275 6.3125-16.75zm-29.094 8.375c1.8131 0 3.2812 1.4681 3.2812 3.2812s-1.4681 3.2812-3.2812 3.2812-3.2812-1.4681-3.2812-3.2812 1.4681-3.2812 3.2812-3.2812zm48.219 3.2812c2.7895 0 5.0625 2.2418 5.0625 5.0312 0 2.7895-2.273 5.0625-5.0625 5.0625s-5.0312-2.273-5.0312-5.0625 2.2418-5.0312 5.0312-5.0312z" fill="url(#h)"/><path d="m115.78 6.5c-5.7812 3.1123-9.7188 9.2251-9.7188 16.25 0 10.182 8.256 18.438 18.438 18.438s18.438-8.256 18.438-18.438c0-7.0249-3.9376-13.138-9.7188-16.25h-17.438zm24.781 0c4.098 4.1293 6.625 9.8189 6.625 16.094 0 12.613-10.231 22.844-22.844 22.844-7.5048.000001-14.179-3.6278-18.344-9.2188v7.875l.21875-.15625.4375-.53125 2.1875 1.6875-.40625.5625-.625 1.75-.375 2.7188 1.56.874 2.1562-1.6562 1.1875-1.4375.3125-.625 2.5312 1.0625-.25.65625-.15625 1.8438.375 2.7188 1.7188.46875 1.6875-2.1875.75-1.6875.125-.6875 2.75.375-.0625.65625.28125 1.8438 1.0625 2.5312h1.7812l1.0625-2.5312.3125-1.8438-.0625-.65625 2.7188-.375c17.683 12.911-2.255-10.836 26.035-17.657l.4375-1.7188-2.1562-1.6875-1.6875-.75-.6875-.125.375-2.75.6875.0625 1.8125-.3125 2.5312-1.0312v-1.7812l-2.5312-1.0625-1.8125-.3125-.6875.0625-.375-2.75.6875-.125 1.6875-.75 2.1562-1.6875-.4375-1.7188-2.7188-.34375-1.8438.15625-.65625.25-1.0625-2.5625.625-.28125 1.4375-1.1875 1.66-2.156-.41-.75h-4.4375l-.5.1875-.5625.40625-.46-.5938h-5.8125zm-16.06 2.625c7.5315 0 13.625 6.0935 13.625 13.625s-6.0935 13.656-13.625 13.656-13.656-6.1247-13.656-13.656c0-7.5315 6.1247-13.625 13.656-13.625zm43.594 28.219-1.1875 2.8125c-10.543 5.6642-27.609 22.825-33.585 33.907l2.8125 1.1562 2.0312.34375.75-.0625.40625 3.0312-.75.15625-1.875.8125-2.4062 1.875.53125 1.9062 3 .40625 2.0312-.21875.71875-.25 1.1562 2.8125-.65625.34375-1.5938 1.2812-1.8438 2.4375.25.40625h5.9375l.34375-.25.1875.25h6.2188c-1.2952-1.3752-2.4398-2.8946-3.4062-4.5312l10.906-5c2.3164 3.2175 6.0148 5.3822 10.219 5.625l.53125 3.9062h5.2188l-.625-4.5938c3.79-1.279 6.84-4.192 8.29-7.901l8.31 1.531v-5.281l-7.38-1.344c-.0504-4.2336-2.069-7.9862-5.1562-10.438l5.5-10.656c2.768 1.8137 5.157 4.157 7.0312 6.875v-9.8438l-.84375.625-.5.5625-2.4062-1.8438.40625-.65625.75-1.875.375-3.0312-1.7188-1-2.4062 1.8438-1.2812 1.5938-.34375.6875-2.8125-1.1875.25-.6875.21875-2.0625-.4375-3-1.875-.5-1.875 2.4062c-.99771 3.4494-3.2024 2.5611-4.2812-.5625l-1.1562-2.8125h-1.9688zm.96875 10.312c3.2847 0 6.4301.64595 9.3125 1.7812l-5.5 10.625c-1.2094-.35429-2.489-.53125-3.8125-.53125-2.6243 0-5.0802.73807-7.1562 2.0312l-8.15-8.781c4.2606-3.2171 9.5667-5.125 15.312-5.125zm-48.75 6.3125-.96875 2.0938-.0625.71875.1875 1.25-2.25.59375-.4375-1.1875-.4375-.59375-1.84-1.344-1.0938.625.21875 2.2812.3125.65625.78125 1-1.625 1.625-1-.78125-.65625-.3125-2.2812-.21875-.625 1.0625 1.3438 1.8438.59375.4375 1.1562.46875-.59375 2.2188-1.25-.1875-.75.0625-2.0625.9375v1.25l2.0625.9375.75.0625 1.25-.15625.59375 2.2188-1.1875.46875-.59375.40625-1.3438 1.875.59375 1.0625 2.2812-.21875.6875-.3125 1-.78125 1.625 1.625-.8125 1-.3125.6875-.21875 2.25 1.0625.625 1.875-1.3125.40625-.59375.5-1.1875 2.2188.59375-.1875 1.25.0625.75.9375 2.0938h1.2188l.96875-2.0938.0625-.71875-.1875-1.2812 2.2188-.5625.46875 1.1562.4375.625 1.8438 1.3125 1.0625-.59375-.21875-2.2812-.28125-.65625-.78125-1 1.625-1.625 1 .78125c.88514.51061 1.9438.43597 2.9374.53125l.625-1.0625c-.76158-1.4215-1.799-2.2264-3.1212-2.7502 1.2489-1.8692 9.6477-6.2141.62505-5.125l-.59375-2.2188 1.1875-.46875c1.4191-1.0323 1.7929-2.4936 1.3088-3.344l-2.25.21875-.6875.3125-1 .78125-1.625-1.6562.8125-.96875.28125-.6875.25-2.25-1.0625-.625-1.875 1.3125-.4375.59375-.46875 1.1875-2.2188-.59375.1875-1.2812-.0625-.71875-.9375-2.0938h-1.2188zm29.625 2.3438 8.1562 8.7812c-1.64 2.24-2.6 4.986-2.6 7.969 0 1.1014.15791 2.1934.40625 3.2188l-10.91 4.969c-.87766-2.5735-1.375-5.3188-1.375-8.1875 0-6.4208 2.3799-12.275 6.3125-16.75zm-29.094 8.375c1.8132 0 3.2812 1.4681 3.2812 3.2812s-1.4681 3.2812-3.2812 3.2812c-1.8132 0-3.2812-1.4681-3.2812-3.2812s1.4681-3.2812 3.2812-3.2812zm48.219 3.2812c2.7895 0 5.0625 2.2418 5.0625 5.0312 0 2.7895-2.273 5.0625-5.0625 5.0625s-5.0312-2.273-5.0312-5.0625 2.2418-5.0312 5.0312-5.0312z" style="opacity:.2;stroke:#000;stroke-width:1.5;fill:none;clip-path:url(#i);filter:url(#j)" transform="translate(-100)"/><rect height="66" rx="12" style="opacity:.1;stroke:#fff;stroke-linecap:round;stroke-width:.5;clip-path:url(#e);filter:url(#c);fill:url(#d)" width="66" x="15" y="15"/><path d="m12 6c-3.324 0-6 2.676-6 6v72c0 .33472.04135.6507.09375.96875.0487.2956.09704.59692.1875.875.00988.03038.020892.0636.03125.09375.098865.28777.23488.54745.375.8125.14459.27351.31562.53562.5.78125.18438.24564.37378.47347.59375.6875.43995.42806.94291.81453 1.5 1.0938.27854.13961.57347.24695.875.34375-.2562-.10022-.48671-.23627-.71875-.375-.00741-.0044-.023866.0045-.03125 0-.0319-.019-.0622-.042-.0937-.062-.1204-.077-.231-.164-.3437-.25-.1062-.081-.2133-.161-.3126-.25-.1778-.162-.3473-.346-.4999-.531-.1075-.131-.2183-.266-.3124-.407-.0251-.038-.0385-.086-.0626-.125-.0647-.103-.1302-.204-.1874-.312-.1011-.195-.2057-.416-.2813-.625-.008-.022-.0236-.041-.0313-.063-.0318-.092-.0358-.187-.0624-.281-.0304-.107-.0704-.203-.0938-.313-.0729-.341-.125-.698-.125-1.062v-72c0-2.782 2.2182-5 5-5h72c2.7818 0 5 2.2182 5 5v72c0 .3643-.05212.72099-.125 1.0625-.04415.20689-.08838.39766-.15625.59375-.0077.02195-.0233.04069-.03125.0625-.06274.17374-.13838.36745-.21875.53125-.04158.0828-.07904.16995-.125.25-.0546.09721-.12677.18835-.1875.28125-.09411.14096-.20492.276-.3125.40625-.14317.17445-.30314.347-.46875.5-.01117.0102-.01998.02115-.03125.03125-.13839.12556-.28509.23444-.4375.34375-.10257.07315-.20432.15336-.3125.21875-.0074.0045-.02384-.0044-.03125 0-.23204.13873-.46255.27478-.71875.375.30153-.0968.59646-.20414.875-.34375.55709-.27922 1.0601-.66569 1.5-1.0938.21997-.21403.40937-.44186.59375-.6875s.35541-.50774.5-.78125c.14012-.26505.27614-.52473.375-.8125.01041-.03078.02133-.06274.03125-.09375.09046-.27808.1388-.5794.1875-.875.053-.318.094-.634.094-.969v-72c0-3.324-2.676-6-6-6h-72z" fill="url(#q)" opacity=".5"/><path d="m12 90c-3.324 0-6-2.676-6-6v-72c0-.33472.04135-.6507.09375-.96875.0487-.2956.09704-.59692.1875-.875.0099-.03.0209-.063.0313-.094.0989-.2873.2349-.547.375-.812.1446-.2735.3156-.5356.5-.7812.1844-.2457.3738-.4735.5937-.6876.44-.428.943-.8145 1.5-1.0937.2786-.1396.5735-.2469.8748-.3437-.256.1002-.4865.2362-.7185.375-.00741.0044-.023866-.0045-.03125 0-.031933.0193-.062293.04251-.09375.0625-.1204.0767-.23102.16351-.34375.25-.10617.0808-.21328.16111-.3125.25-.1779.1614-.3474.3453-.5.5312-.1075.1303-.2183.2653-.3124.4063-.0251.0383-.0385.0858-.0626.125-.0647.103-.1302.2045-.1874.3124-.1011.1948-.2057.4158-.2813.625-.008.0219-.0236.0406-.0313.0626-.0318.0919-.0358.1868-.0624.2812-.0304.1066-.0704.203-.0938.3125-.0729.3415-.125.6985-.125 1.0625v72c0 2.7818 2.2182 5 5 5h72c2.7818 0 5-2.2182 5-5v-72c0-.364-.052-.721-.125-1.0625-.044-.2069-.088-.3977-.156-.5937-.008-.022-.024-.0407-.031-.0626-.063-.1737-.139-.3674-.219-.5312-.042-.0828-.079-.17-.125-.25-.055-.0972-.127-.1884-.188-.2812-.094-.141-.205-.276-.312-.4063-.143-.1745-.303-.347-.469-.5-.011-.0102-.02-.0211-.031-.0313-.139-.1255-.285-.2344-.438-.3437-.102-.0731-.204-.1534-.312-.2187-.0074-.0045-.02384.0044-.03125 0-.23204-.13873-.46255-.27478-.71875-.375.30153.0968.59646.20414.875.34375.55709.27922 1.0601.66569 1.5 1.0938.21997.21403.40937.44186.59375.6875s.35541.50774.5.78125c.14012.26505.27614.52473.375.8125.01041.03078.02133.06274.03125.09375.09046.27808.1388.5794.1875.875.053.318.094.634.094.969v72c0 3.324-2.676 6-6 6h-72z" fill="url(#p)" opacity=".2"/><path d="m47.281 16.719c.0045-.000313-.08594.02723-.125.03125-.0093.000956-.03231.000149-.03125 0-.0433.0088-.22616.03313-.21875.03125.0084-.0021-.25816.06555-.25.0625.0082-.0031-.22653.12893-.21875.125.0078-.0039-.22605.12976-.21875.125.0073-.0048-.19423.13053-.1875.125.0067-.0055-.19359.19374-.1875.1875.0061-.0062-.16162.19437-.15625.1875.0054-.0069-.16083.19492-.15625.1875a1.2463 1.2463 0 0 0 0 .03125c-2.0785 3.4725-3.7456 7.097-5.5625 10.469-.01296.02405-.04953.03848-.0625.0625a1.2463 1.2463 0 0 0 -.031.03 1.2463 1.2463 0 0 0 -.063.156 1.2463 1.2463 0 0 0 -.031.031l-3.5625 6.8125c-6.3802 1.1346-12.779 2.2528-19.156 3.4062.0055-.001-.16164.03264-.15625.03125.0054-.0014-.16153.03302-.15625.03125.0053-.0018-.16139.06464-.15625.0625.0051-.0021-.12998.06499-.125.0625.005-.0025-.16104.09658-.15625.09375.0048-.0028-.12958.06566-.125.0625.0046-.0032-.12935.09723-.125.09375.0038-.003-.1032.0752-.125.09375v.03125c-1.1005 1.0121-1.236 2.4307-.875 3.5312.20431.6228.63979.96156 1.0312 1.3438a1.2463 1.2463 0 0 0 0 .03125 1.2463 1.2463 0 0 0 .28125.5l12.656 13.094c-.8849 6.361-1.8214 12.717-2.6562 19.125.001-.008-.000201.22682 0 .21875.000201-.0081.000619.25804 0 .25-.000619-.008.03268.22669.03125.21875-.0014-.0079.06473.2265.0625.21875a1.2463 1.2463 0 0 0 0 .03125c.25.822.759 1.442 1.532 1.845.65533.34168 1.3221.40637 1.8125.375.64513-.04126 1.0709-.33083 1.5312-.5625.0083-.0042.02303.0042.03125 0a1.2463 1.2463 0 0 0 .625-.187l.03125-.03125.125-.0625 15.969-7.781c5.6382 2.7626 11.303 5.5561 17 8.2812.03364.0161.0601.04641.09375.0625.01578.0086.03263.03194.03125.03125-.0049-.0025.16133.06461.15625.0625a1.2463 1.2463 0 0 0 .094.031c1.4346.45099 2.8295-.10192 3.5938-1.2188.4879-.71297.54738-1.5446.4375-2.3125a1.2463 1.2463 0 0 0 0-.46875l-2.593-18.281c4.4512-4.5644 9.0139-9.1023 13.438-13.781.02546-.02693.03705-.06681.0625-.09375.03194-.03136.06461-.06476.0625-.0625-.0048.0052.12932-.16181.125-.15625-.0043.0056.12882-.16217.125-.15625-.0038.0059.09702-.16249.09375-.15625a1.2463 1.2463 0 0 0 .0625-.09375c.55887-1.27.2446-2.6501-.625-3.5625-.562-.591-1.253-.783-1.906-.876a1.2463 1.2463 0 0 0 -.437-.156l-18.094-3.188c-3.043-5.708-6.023-11.498-9.156-17.218.000407.000789.0039-.02422 0-.03125-.01559-.02814-.0643-.09681-.0625-.09375.0023.0038-.06496-.09745-.0625-.09375.0025.0037-.06517-.12855-.0625-.125.0027.0036-.06536-.09715-.0625-.09375a1.2463 1.2463 0 0 0 -.032-.031c-.692-.772-1.576-.928-2.094-.969-.19538-.01561-.3515-.02741-.46875-.03125-.11725-.0038-.33179-.03277-.09375 0v.03125c-.03906-.004-.12947-.03156-.125-.03125.0055.000388-.19305 0-.1875 0 .0055 0-.16179.000388-.15625 0z" opacity=".05"/><path d="m47.312 17.969a1.0082 1.0082 0 0 0 -.71875.46875c-2.0835 3.4808-3.7912 7.1959-5.6875 10.688a1.0082 1.0082 0 0 0 -.03125 0l-3.844 7.374c-6.5801 1.1722-13.182 2.3121-19.75 3.5a1.0082 1.0082 0 0 0 -.5.25c-.66259.59871-.75247 1.5756-.53125 2.25.19364.59029.59132.99525 1.0625 1.3438l-.031.031 13.094 13.531c-.909 6.568-1.891 13.127-2.75 19.719a1.0082 1.0082 0 0 0 .031.406c.1428.46948.50554.91608.90625 1.125s.801.24147 1.1562.21875c.64755-.04142 1.1707-.29986 1.625-.59375v.03125l.15625-.09375 16.656-8.125c5.8599 2.8663 11.697 5.8058 17.594 8.625a1.0082 1.0082 0 0 0 .125.0625c.83324.26194 1.7691-.13858 2.1875-.75.37096-.54208.39695-1.2188.1875-1.875h.0625l-2.6875-18.938c4.6131-4.7406 9.3463-9.4231 13.906-14.25a1.0082 1.0082 0 0 0 .22-.281c.336-.765.125-1.663-.375-2.188-.429-.45-1.061-.591-1.687-.594l.031-.094-18.688-3.281c-3.153-5.9-6.214-11.897-9.437-17.781a1.0082 1.0082 0 0 0 -.125-.1875c-.3759-.4187-.91236-.53552-1.25-.5625s-.57121-.02385-.625-.03125a1.0082 1.0082 0 0 0 -.28125 0z" opacity=".1"/><path d="m47.464 18.967c-2.0481 3.4217-3.7552 7.1139-5.6706 10.641-1.3552 2.5946-2.7103 5.1891-4.0655 7.7837-6.749 1.204-13.529 2.385-20.259 3.6021-.72372.65394-.16644 1.7538.54358 2.1942 4.4736 4.6205 8.9471 9.2411 13.421 13.862-.92848 6.7315-1.9391 13.456-2.8166 20.192.29705.97658 1.6839.57968 2.2912.14957 5.7511-2.8043 11.502-5.6087 17.253-8.413 6.0152 2.9375 12.006 5.962 18.036 8.8452.89511.28139 1.4696-.7186 1.1142-1.5007-.911-6.485-1.823-12.97-2.734-19.455 4.729-4.87 9.577-9.647 14.232-14.574.378-.859-.408-1.59-1.267-1.484-6.376-1.127-12.753-2.254-19.129-3.38-3.241-6.053-6.394-12.167-9.69-18.183-.327-.364-.831-.221-1.259-.28z" opacity=".15"/><path d="m18 41.712 20.359-3.5176 9.6446-18.274 9.6401 18.28 20.358 3.5288-14.407 14.814 2.9338 20.456-18.538-9.124-18.542 9.112 2.947-20.449-14.396-14.826z" opacity=".3"/><path d="m18 40.712 20.359-3.5176 9.6446-18.274 9.6401 18.28 20.358 3.5288-14.407 14.814 2.9338 20.456-18.538-9.124-18.542 9.112 2.947-20.449-14.396-14.826z" fill="url(#o)"/><g fill="#a40"><path d="m48 23.728-7.999 15.193-16.934 2.935 11.973 12.311-2.467 17.012 15.427-7.584 15.401 7.584-2.441-17.012 11.973-12.311-16.908-2.935zm.02598 4.0516 6.3631 12.129a1.8459 1.8456 1.5484 0 0 1.2467.96096l13.583 2.3115-9.5577 9.6876a1.8459 1.8456 1.5484 0 0 -.49347 1.4285l1.896 13.66-12.207-6.025a1.8459 1.8456 1.5484 0 0 -1.6103.05194l-12.259 5.921 1.87-13.453a1.8459 1.8456 1.5484 0 0 -.49347-1.4804l-9.5317-9.8434 13.531-2.4933a1.8459 1.8456 1.5484 0 0 1.3505-.93499l6.3112-11.921z" opacity=".1"/><path d="m48 22.299-8.481 16.109-17.953 3.111 12.694 13.052-2.616 18.036 16.356-8.04 16.329 8.04-2.589-18.036 12.694-13.052-17.925-3.111zm.02754 4.2956 6.7463 12.859a1.9571 1.9567 1.5484 0 0 1.3217 1.0188l14.401 2.4507-10.133 10.271a1.9571 1.9567 1.5484 0 0 -.52318 1.5145l2.0101 14.484-12.942-6.3883a1.9571 1.9567 1.5484 0 0 -1.7072.05507l-12.997 6.2782 1.9826-14.264a1.9571 1.9567 1.5484 0 0 -.524-1.571l-10.106-10.436 14.346-2.643a1.9571 1.9567 1.5484 0 0 1.4319-.99129l6.6912-12.639z" opacity=".2"/><path d="m48 20.513-9.083 17.252-19.228 3.333 13.595 13.978-2.801 19.317 17.517-8.611 17.488 8.611-2.772-19.317 13.595-13.978-19.198-3.333zm.02949 4.6005 7.2252 13.772a2.096 2.0956 1.5484 0 0 1.4156 1.0912l15.424 2.6247-10.853 11a2.096 2.0956 1.5484 0 0 -.56032 1.622l2.1528 15.512-13.861-6.8418a2.096 2.0956 1.5484 0 0 -1.8284.05898l-13.92 6.724 2.123-15.276a2.096 2.0956 1.5484 0 0 -.56-1.681l-10.823-11.177 15.365-2.831a2.096 2.0956 1.5484 0 0 1.5335-1.0617l7.1662-13.536z" opacity=".4"/></g><path d="m48 18.906-9.625 18.282-20.375 3.531 14.406 14.812-2.968 20.469 18.562-9.125 18.531 9.125-2.937-20.469 14.406-14.812-20.344-3.531zm.03125 4.875 7.6562 14.594a2.2211 2.2206 1.5484 0 0 1.5 1.1562l16.344 2.7812-11.5 11.656a2.2211 2.2206 1.5484 0 0 -.593 1.72l2.2812 16.438-14.688-7.25a2.2211 2.2206 1.5484 0 0 -1.9375.0625l-14.75 7.125 2.25-16.188a2.2211 2.2206 1.5484 0 0 -.594-1.781l-11.469-11.844 16.281-3a2.2211 2.2206 1.5484 0 0 1.625-1.125l7.5938-14.344z" fill="url(#n)"/><path d="m48 18.906-9.625 18.282-20.375 3.531 14.406 14.812-2.968 20.469 18.562-9.125 18.531 9.125-2.937-20.469 14.406-14.812-20.344-3.531zm.03125 1.7188 8.9062 16.969a.72745.72731 1.5484 0 0 .1875.15625.72745.72731 1.5484 0 0 .15625.1875.72745.72731 1.5484 0 0 .1875.03125.72745.72731 1.5484 0 0 .15625 0l18.938 3.2812-13.5 13.656a.72745.72731 1.5484 0 0 -.1875.15625.72745.72731 1.5484 0 0 -.03125.1875.72745.72731 1.5484 0 0 0 .1875.72745.72731 1.5484 0 0 0 .15625l2.657 19.094-17.062-8.438a.72745.72731 1.5484 0 0 -.1875-.03125.72745.72731 1.5484 0 0 -.1875 0 .72745.72731 1.5484 0 0 -.15625 0 .72745.72731 1.5484 0 0 -.1875-.03125l-17.25 8.4062 2.5625-19a.72745.72731 1.5484 0 0 0-.15625.72745.72731 1.5484 0 0 .031-.188.72745.72731 1.5484 0 0 -.187-.188l-13.281-13.844 18.938-3.375a.72745.72731 1.5484 0 0 .15625 0 .72745.72731 1.5484 0 0 .187-.155.72745.72731 1.5484 0 0 .187-.188l8.9688-16.875z" fill="url(#m)"/></svg>