<svg height="96" width="96" xmlns="http://www.w3.org/2000/svg" xmlns:xlink="http://www.w3.org/1999/xlink"><linearGradient id="a"><stop offset="0" stop-color="#1a1a1a"/><stop offset=".34999999" stop-color="#1e1e1e"/><stop offset="1" stop-color="#0a0a0a"/></linearGradient><linearGradient id="b"><stop offset="0" stop-color="#fefefe"/><stop offset="1" stop-color="#fefefe" stop-opacity="0"/></linearGradient><linearGradient id="c" gradientUnits="userSpaceOnUse" x1="36.357143" x2="36.357143" xlink:href="#b" y1="6" y2="63.893143"/><linearGradient id="d" gradientUnits="userSpaceOnUse" x1="48" x2="48" y1="90" y2="5.987717"><stop offset="0" stop-color="#b4b4b4"/><stop offset="1" stop-color="#e6e6e6"/></linearGradient><linearGradient id="e" gradientUnits="userSpaceOnUse" x1="43.03676446513" x2="43.03676446513" y1="11.9705884" y2="84.33264926334"><stop offset="0" stop-color="#919191"/><stop offset="1" stop-color="#fdfdfd"/></linearGradient><radialGradient id="f" cx="48" cy="90.171875" gradientTransform="matrix(1.1573129 0 0 .99590774 -7.551021 .197132)" gradientUnits="userSpaceOnUse" r="42" xlink:href="#b"/><clipPath id="g"><rect height="84" rx="6" width="84" x="6" y="6"/></clipPath><filter id="h" color-interpolation-filters="sRGB" height="1.384" width="1.384" x="-.192" y="-.192"><feGaussianBlur stdDeviation="5.28"/></filter><linearGradient id="i" gradientUnits="userSpaceOnUse" x1="48" x2="48" xlink:href="#b" y1="20.220806" y2="138.66119"/><linearGradient id="j" gradientUnits="userSpaceOnUse" spreadMethod="repeat" x1="39.285713" x2="39.285713" xlink:href="#a" y1="19.75" y2="25.84864"/><linearGradient id="k" gradientUnits="userSpaceOnUse" spreadMethod="repeat" x1="31.607143" x2="31.607143" xlink:href="#a" y1="35.92857" y2="42.015106"/><linearGradient id="l" gradientUnits="userSpaceOnUse" spreadMethod="repeat" x1="61.607143" x2="61.607143" xlink:href="#a" y1="63.92857" y2="70.015106"/><linearGradient id="m" gradientUnits="userSpaceOnUse" spreadMethod="repeat" x1="61.785713" x2="61.785713" xlink:href="#a" y1="36.035713" y2="48.041718"/><radialGradient id="n" cx="32.410713" cy="65.73214" gradientUnits="userSpaceOnUse" r="12.053572"><stop offset="0" stop-color="#1a1a1a"/><stop offset=".85000002" stop-color="#0f0f0f"/><stop offset="1"/></radialGradient><linearGradient id="o" gradientUnits="userSpaceOnUse" x1="44.758911" x2="44.758911" y1="82.362946" y2="13.924098"><stop offset="0" stop-color="#282828"/><stop offset="1" stop-color="#464646"/></linearGradient><linearGradient id="p" gradientTransform="matrix(1.0058652 0 0 .994169 100 0)" gradientUnits="userSpaceOnUse" x1="45.447727" x2="45.447727" y1="92.539597" y2="7.01654"><stop offset="0"/><stop offset="1" stop-opacity=".588235"/></linearGradient><linearGradient id="q" gradientTransform="matrix(1.0238095 0 0 1.0119048 -1.142857 -98.071429)" gradientUnits="userSpaceOnUse" x1="32.251034" x2="32.251034" xlink:href="#p" y1="6.131708" y2="90.238609"/><linearGradient id="r" gradientTransform="translate(0 -97)" gradientUnits="userSpaceOnUse" x1="32.251034" x2="32.251034" xlink:href="#p" y1="6.131708" y2="90.238609"/><g><g fill="url(#q)"><path d="m12-95.03125c-5.5110903 0-10.03125 4.52016-10.03125 10.03125v71c0 5.5110902 4.5201598 10.03125 10.03125 10.03125h72c5.51109 0 10.03125-4.5201597 10.03125-10.03125v-71c0-5.51109-4.52016-10.03125-10.03125-10.03125z" opacity=".08" transform="scale(1 -1)"/><path d="m12-94.03125c-4.971633 0-9.03125 4.059617-9.03125 9.03125v71c0 4.9716329 4.0596171 9.03125 9.03125 9.03125h72c4.971633 0 9.03125-4.059617 9.03125-9.03125v-71c0-4.971633-4.059617-9.03125-9.03125-9.03125z" opacity=".1" transform="scale(1 -1)"/><path d="m12-93c-4.4091333 0-8 3.590867-8 8v71c0 4.4091333 3.5908667 8 8 8h72c4.409133 0 8-3.5908667 8-8v-71c0-4.409133-3.590867-8-8-8z" opacity=".2" transform="scale(1 -1)"/><rect height="85" opacity=".3" rx="7" transform="scale(1 -1)" width="86" x="5" y="-92"/></g><rect fill="url(#r)" height="84" opacity=".45" rx="6" transform="scale(1 -1)" width="84" x="6" y="-91"/></g><rect fill="url(#o)" height="78.516495" rx="5.852768" ry="6.173287" width="77.914963" x="8.140881" y="8.254433"/><rect fill="url(#j)" height="12" rx="3" width="56" x="20" y="20"/><rect fill="url(#k)" height="12" rx="3" width="26" x="20" y="36"/><rect fill="url(#m)" height="24" rx="3" width="26" x="50" y="36"/><path d="m44.464285 65.73214a12.053572 12.053572 0 1 1 -24.107144 0 12.053572 12.053572 0 1 1 24.107144 0z" fill="url(#n)" transform="matrix(.99555553 0 0 .99555553 -.266665 -1.439995)"/><path d="m23 19c-1.662 0-3 1.338-3 3v1c0-1.662 1.338-3 3-3h50c1.662 0 3 1.338 3 3v-1c0-1.662-1.338-3-3-3z" opacity=".8"/><path d="m20 29v1c0 1.662 1.338 3 3 3h50c1.662 0 3-1.338 3-3v-1c0 1.662-1.338 3-3 3h-50c-1.662 0-3-1.338-3-3z" fill="#fefefe" opacity=".3"/><path d="m23 35c-1.662 0-3 1.338-3 3v1c0-1.662 1.338-3 3-3h20c1.662 0 3 1.338 3 3v-1c0-1.662-1.338-3-3-3z" opacity=".8"/><path d="m20 45v1c0 1.662 1.338 3 3 3h20c1.662 0 3-1.338 3-3v-1c0 1.662-1.338 3-3 3h-20c-1.662 0-3-1.338-3-3z" fill="#fefefe" opacity=".3"/><path d="m53 35c-1.662 0-3 1.338-3 3v1c0-1.662 1.338-3 3-3h20c1.662 0 3 1.338 3 3v-1c0-1.662-1.338-3-3-3z" opacity=".8"/><path d="m50 57v1c0 1.662 1.338 3 3 3h20c1.662 0 3-1.338 3-3v-1c0 1.662-1.338 3-3 3h-20c-1.662 0-3-1.338-3-3z" fill="#fefefe" opacity=".3"/><path d="m53 63c-1.662 0-3 1.338-3 3v1c0-1.662 1.338-3 3-3h20c1.662 0 3 1.338 3 3v-1c0-1.662-1.338-3-3-3z" opacity=".8"/><path d="m50 73v1c0 1.662 1.338 3 3 3h20c1.662 0 3-1.338 3-3v-1c0 1.662-1.338 3-3 3h-20c-1.662 0-3-1.338-3-3z" fill="#fefefe" opacity=".3"/><path d="m32 51c-6.627417 0-12 5.372583-12 12 0 .170031.02425.33169.03125.5.265962-6.392009 5.511364-11.5 11.96875-11.5s11.702788 5.107991 11.96875 11.5c.007003-.16831.03125-.329969.03125-.5 0-6.627417-5.372583-12-12-12z" opacity=".6"/><path d="m20.03125 64.5c-.007003.16831-.03125.329969-.03125.5 0 6.627417 5.372583 12 12 12s12-5.372583 12-12c0-.170031-.02425-.33169-.03125-.5-.265962 6.392009-5.511364 11.5-11.96875 11.5s-11.702788-5.107991-11.96875-11.5z" fill="#fefefe" opacity=".3"/><rect fill="url(#l)" height="12" rx="3" width="26" x="50" y="64"/><g fill="#f2f2f2"><path d="m35.828965 29.889656v-1.075862c.176551-.386205.391723-.733791.645517-1.042759.253792-.312641.518619-.597698.794483-.855172.279538-.261146.5554-.502066.827586-.722759.275859-.224364.522296-.439536.73931-.645517.220686-.209651.399077-.419306.535173-.628966.136088-.20965.204134-.432178.204138-.667586-.000004-.345741-.08644-.601373-.259311-.766896-.172877-.165511-.42667-.24827-.761379-.248276-.331037.000006-.58483.09012-.761379.270345-.172876.176558-.28506.443224-.336552.8l-1.561379-.08828c.03678-.305282.112183-.592178.226207-.86069.114022-.268499.275861-.503901.485517-.706207.213332-.202291.478159-.360452.794483-.474483.319997-.117693.700687-.176543 1.142069-.176551.419306.000008.7908.04966 1.114482.148965.323674.09564.595858.237249.816552.424828.220685.187593.388041.417478.502069.689655.114017.268512.171029.575638.171035.921379-.000006.364144-.07173.693339-.215173.987587-.143453.294257-.327361.56644-.551724.816551-.224373.246441-.474487.478165-.750345.695173-.272188.217014-.537015.428508-.794483.634483-.257474.205979-.492876.413795-.706207.623448-.209657.209657-.365979.434024-.468965.673103h3.608276v1.274483h-5.44"/><path d="m47.547586 26.000001c-.000006.742991-.06805 1.370117-.204138 1.881379-.136098.507588-.325523.919541-.568276 1.235862-.239085.312644-.524143.538851-.855173.678621-.32736.136092-.68598.204138-1.075862.204138-.389888 0-.748508-.06805-1.075862-.204138-.327358-.136092-.608737-.360459-.844138-.673104-.235403-.31632-.419311-.728274-.551724-1.235862-.132414-.511261-.198621-1.140226-.198621-1.886896 0-.783444.06437-1.4308.193104-1.942069.132413-.514936.31816-.925051.557241-1.230345.239079-.30528.524136-.518613.855173-.64.33471-.12505.704365-.187578 1.108965-.187586.378847.000008.730111.06254 1.053793.187586.327352.121387.608731.33472.844138.64.239075.305294.424822.715409.557242 1.230345.136086.511269.204132 1.158625.204138 1.942069m-1.555862 0c-.000005-.548042-.02023-1.000455-.06069-1.357242-.04046-.360454-.104832-.645511-.193104-.855172-.08828-.213327-.204141-.362292-.347586-.446897-.139773-.08459-.310808-.12689-.513103-.126896-.217015.000006-.399083.04414-.546207.132414-.147129.0846-.266669.233569-.358621.446896-.08828.213339-.152646.500236-.193103.86069-.03678.356786-.05518.805522-.05517 1.346207-.000002.533336.02023.978394.06069 1.335172.04046.356784.104825.64368.193103.86069.08827.213335.204136.364139.347587.452414.143445.08828.319997.132415.529655.132414.202295.000001.375169-.04414.51862-.132414.143445-.08827.261146-.239079.353104-.452414.09195-.21701.158157-.503906.198621-.86069.04413-.356778.0662-.801836.06621-1.335172"/><path d="m53.837241 26.000001c-.000006.742991-.06805 1.370117-.204138 1.881379-.136098.507588-.325523.919541-.568276 1.235862-.239085.312644-.524142.538851-.855172.678621-.327361.136092-.685981.204138-1.075863.204138-.389887 0-.748508-.06805-1.075862-.204138-.327358-.136092-.608737-.360459-.844138-.673104-.235403-.31632-.419311-.728274-.551724-1.235862-.132414-.511261-.198621-1.140226-.19862-1.886896-.000001-.783444.06437-1.4308.193103-1.942069.132413-.514936.31816-.925051.557241-1.230345.239079-.30528.524137-.518613.855173-.64.33471-.12505.704365-.187578 1.108965-.187586.378847.000008.730111.06254 1.053794.187586.327351.121387.60873.33472.844138.64.239075.305294.424822.715409.557241 1.230345.136086.511269.204132 1.158625.204138 1.942069m-1.555862 0c-.000005-.548042-.02023-1.000455-.06069-1.357242-.04046-.360454-.104832-.645511-.193103-.855172-.08828-.213327-.204142-.362292-.347587-.446897-.139773-.08459-.310808-.12689-.513103-.126896-.217014.000006-.399083.04414-.546207.132414-.147129.0846-.266669.233569-.358621.446896-.08828.213339-.152645.500236-.193103.86069-.03678.356786-.05517.805522-.05517 1.346207-.000002.533336.02023.978394.06069 1.335172.04046.356784.104826.64368.193104.86069.08827.213335.204135.364139.347586.452414.143445.08828.319997.132415.529655.132414.202295.000001.375169-.04414.518621-.132414.143444-.08827.261145-.239079.353103-.452414.09195-.21701.158157-.503906.198621-.86069.04413-.356778.0662-.801836.06621-1.335172"/><path d="m60.093792 23.346208c-.349431.55173-.680465 1.086902-.993103 1.605517-.30897.518625-.579315 1.040923-.811035 1.566896-.231728.522302-.415636 1.061152-.551724 1.616552-.132417.551726-.198624 1.136553-.198621 1.754483h-1.616551c-.000002-.614252.07172-1.19724.215172-1.748966.147124-.5554.345745-1.096089.595862-1.622069.250112-.525973.540687-1.044593.871724-1.555862.331031-.514937.680456-1.039074 1.048276-1.572413h-3.862069v-1.274483h5.302069z"/></g><path d="m20 25.5h56v.5h-56z" opacity=".8"/><g fill="#f2f2f2"><path d="m29.604137 43.649656c-.000007.353105-.06438.674944-.193103.965517-.128743.286898-.329202.533334-.60138.739311-.268511.205977-.614258.365977-1.037241.48-.419315.110344-.919545.165517-1.50069.165517-.514946 0-.969198-.04598-1.362758-.137931-.393566-.09195-.731956-.228046-1.015173-.408276-.279541-.180229-.507587-.402758-.684138-.667586-.172874-.268505-.297931-.575631-.375172-.92138l1.572414-.25931c.04414.172876.108503.331037.193103.474483.0846.14345.200458.268507.347586.375172.150802.10299.336549.18391.557242.242759.224364.05517.494709.08276.811034.08276.55172.000001.972869-.08276 1.263449-.248276.294247-.169194.441373-.432182.441379-.788966-.000006-.213331-.05886-.388043-.176552-.524138-.117706-.136089-.274028-.248273-.468965-.336552-.194948-.08827-.419315-.161835-.673104-.220689-.253797-.05885-.518624-.115859-.794483-.171035-.220693-.05149-.441382-.104824-.662069-.16-.220692-.05517-.432186-.121375-.634482-.19862-.198623-.07724-.38437-.169192-.557242-.275863-.172875-.106662-.323679-.237237-.452414-.391724-.125058-.158156-.224368-.342064-.297931-.551724-.06988-.20965-.104828-.456086-.104827-.73931-.000001-.386201.07724-.717235.231724-.993104.154482-.275855.367815-.500222.64-.673103.27586-.176544.603216-.30528.982069-.386207.378848-.08091.79264-.121371 1.241379-.121379.507582.000008.941605.04047 1.302069.121379.364133.07725.667581.196789.910345.358621.246431.161846.439534.365984.57931.612413.143442.242766.24827.527823.314483.855173l-1.577931.215172c-.08093-.334706-.246442-.58666-.496552-.755862-.246441-.169189-.601383-.253786-1.064827-.253793-.2869.000007-.52598.02575-.717242.07724-.187589.04782-.338393.114029-.452413.19862-.110348.0846-.189428.183915-.237242.297931-.04782.110351-.07173.228052-.07172.353104-.000002.19127.04598.34943.137931.474482.09195.121385.220687.224373.386207.308966.165514.08093.362296.150809.590345.209655.23172.05518.485513.112189.761379.171035.242754.0515.483674.106671.722759.165517.239075.05518.467121.121384.684138.198621.217006.07724.419304.171038.606896.281379.18758.110349.349419.24644.485518.408276.139763.158164.248269.347589.325517.568276.08091.220692.121372.481841.121379.783448"/><path d="m32.307586 39.920001v3.348965c-.000003.231727.01839.44506.05517.64.03678.191267.09747.356784.182069.496552.0846.136093.193101.24276.325517.32.136089.07724.301606.115863.496552.115862.187583.000001.356778-.04046.507586-.121379.154479-.0846.286893-.202298.397242-.353104.11034-.154481.194938-.336549.253793-.546207.06252-.213331.09379-.446894.09379-.700689v-3.2h1.550345v4.634483c-.000007.125058-.000007.257472 0 .397241.0037.136093.0074.266667.01103.391724.0074.12138.01287.231725.01655.331035.0074.09563.01287.167356.01655.215172h-1.478621c-.0037-.04414-.01104-.114023-.02207-.209655-.0074-.09931-.01472-.207816-.02207-.325517-.0037-.117701-.0092-.235402-.01655-.353104-.0037-.1177-.0055-.21701-.0055-.297931h-.02759c-.205982.452415-.46897.78161-.788966.987586-.316325.205977-.693336.308966-1.131034.308966-.356784 0-.660232-.05885-.910345-.176552-.250117-.117701-.454254-.277701-.612414-.48-.154484-.205976-.266668-.448734-.336552-.728276-.06989-.279538-.104828-.581147-.104827-.904827v-3.790345z"/><path d="m41.62069 45.889656v-3.348966c-.000005-.23172-.0184-.443214-.05517-.634482-.03679-.194939-.09748-.360456-.182068-.496552-.0846-.139766-.194947-.248271-.331035-.325517-.136096-.07724-.301613-.115857-.496552-.115862-.187589.000005-.358624.0423-.513103.126896-.150808.08092-.281382.198625-.391724.353104-.110348.150809-.196784.332877-.259311.546207-.05885.209658-.08828.441382-.08828.695172v3.2h-1.550344v-4.634483c-.000001-.128731-.0018-.261144-.0055-.397241 0-.136087-.0037-.264823-.01103-.386207-.0037-.125052-.0074-.235397-.01103-.331035-.0037-.0993-.0092-.172867-.01655-.220689h1.47862c.0074.04414.01471.115868.02207.215172.0074.09564.01471.202305.02207.32.0074.117707.01287.235408.01655.353104.0074.117706.01103.217016.01103.297931h.02207c.209653-.456087.472641-.787121.788966-.993104.316318-.205971.69333-.308959 1.131035-.308965.360455.000006.663903.05886.910344.176551.25011.117707.452409.279546.606897.485518.158155.205982.272178.44874.342069.728276.06988.279544.104821.581153.104828.904827v3.790345h-1.544828"/></g><path d="m20 41.5h26v.5h-26z" opacity=".8"/><g fill="#f2f2f2" transform="scale(.95407876 1.0481315)"><path d="m65.100578 45.795783c-.000011 1.417745-.129853 2.6144-.389527 3.589968-.259695.968557-.621148 1.754629-1.08436 2.358219-.456212.596574-1.000146 1.028212-1.631803 1.294915-.624655.259685-1.308959.389527-2.052915.389528-.743967-.000001-1.428271-.129843-2.052914-.389528-.624651-.259684-1.161566-.687813-1.610748-1.284387-.449187-.60359-.800112-1.389662-1.052777-2.358219-.252667-.975569-.379-2.175733-.378999-3.600496-.000001-1.494934.122823-2.730191.368472-3.705774.252665-.982579.607099-1.765142 1.063304-2.347691.4562-.582523 1.000134-.989596 1.631804-1.221221.638679-.238615 1.344039-.357929 2.11608-.357944.7229.000015 1.393167.119329 2.010804.357944.624638.231625 1.161554.638698 1.610748 1.221221.456193.582549.810627 1.365112 1.063304 2.347691.259674.975583.389516 2.21084.389527 3.705774m-2.96883 0c-.000008-1.04575-.03861-1.909026-.115805-2.589831-.07721-.687803-.200035-1.231737-.368472-1.631803-.168451-.407062-.389534-.691311-.663249-.852749-.26671-.161413-.59307-.242126-.979082-.242139-.414098.000013-.761514.08423-1.042249.252667-.280745.161438-.508846.445687-.684305.852749-.168448.407084-.291272.954528-.368471 1.642331-.07019.680805-.105282 1.537062-.105278 2.568775-.000004 1.01769.0386 1.866929.115805 2.547719.0772.6808.200024 1.228243.368472 1.642331.16844.407077.389523.694835.663249.863277.273717.168447.610605.252669 1.010666.252667.386012.000002.715881-.08422.98961-.252667.273714-.168442.498307-.4562.673777-.863277.175455-.414088.301788-.961531.378999-1.642331.08421-.68079.126325-1.530029.126333-2.547719"/><path d="m67.35352 53.217857v-2.200303h3.67419v-10.117182l-3.558384 2.221358v-2.326636l3.716301-2.410858h2.800385v12.633318h3.400469v2.200303z"/></g><path d="m50 47.5h26v.5h-26z" opacity=".8"/><g fill="#f2f2f2"><path d="m54.462068 73.997239c-.389888 0-.737473-.04046-1.042759-.121379-.305289-.08092-.570116-.209655-.794482-.386207-.224369-.176551-.410116-.404597-.557242-.684138-.143448-.283217-.251954-.625286-.325517-1.026207l1.616552-.237241c.03678.217013.08827.400921.154483.551724.0662.147128.145285.268507.237241.364138.09563.09196.204135.160001.325517.204138.121377.04046.25379.06069.397242.06069.323674.000001.568272-.108504.733793-.325517.169191-.21701.253789-.527814.253793-.932414v-4.077241h-1.550345v-1.274483h3.172414v5.313103c-.000006.393566-.05702.750347-.171035 1.070345-.114028.316323-.283223.586668-.507586.811035-.220694.22069-.494717.391724-.822069.513103-.323682.117701-.697015.176552-1.12.176552"/><path d="m64.111723 73.886894-.689655-1.986207h-2.962759l-.689655 1.986207h-1.627586l2.835862-7.773793h1.92l2.824828 7.773793zm-1.820689-5.445517c-.04414-.12873-.08828-.257466-.132414-.386207-.04046-.132408-.07725-.251948-.110345-.358621-.02943-.110338-.05518-.200453-.07724-.270345-.0184-.06988-.02943-.108499-.0331-.115862-.0037.01104-.01472.0515-.0331.12138-.01839.06989-.04414.158167-.07724.264827-.02943.106673-.06621.226213-.110344.358621-.04046.128741-.08276.257477-.126897.386207l-.766897 2.234483h2.234483l-.766896-2.234483"/><path d="m71.515862 73.886894-3.387586-5.986207c.01839.161845.03494.323684.04966.485517.01471.139776.02575.29058.0331.452414.01103.161844.01655.316327.01655.463449v4.584827h-1.445517v-7.773793h1.85931l3.437242 6.035862c-.0184-.154481-.03495-.31632-.04966-.485517-.01472-.143446-.02759-.305285-.03862-.485517-.0074-.180227-.01104-.362296-.01103-.546207v-4.518621h1.445517v7.773793z"/></g><path d="m50 69.5h26v.5h-26z" opacity=".8"/><g fill="#f2f2f2" opacity=".3"><path d="m32 53h1v3h-1z"/><path d="m59.784241 28.406487h1v3h-1z" transform="matrix(.8660254 .5 -.5 .8660254 0 0)"/><path d="m71.549339-6.784242h1v3h-1z" transform="matrix(.5 .8660254 -.8660254 .5 0 0)"/><path d="m64.142853-43.142857h1v3h-1z" transform="rotate(90)"/><path d="m39.549339-70.927101h1v3h-1z" transform="matrix(-.5 .8660254 -.8660254 -.5 0 0)"/><path d="m4.358611-82.6922h1v3h-1z" transform="matrix(-.8660254 .5 -.5 -.8660254 0 0)"/><path d="m-32.000004-75.285713h1v3h-1z" transform="scale(-1)"/><path d="m-59.784245-50.6922h1v3h-1z" transform="matrix(-.8660254 -.5 .5 -.8660254 0 0)"/><path d="m-71.549347-15.501472h1v3h-1z" transform="matrix(-.5 -.8660254 .8660254 -.5 0 0)"/><path d="m-64.14286 20.857143h1v3h-1z" transform="rotate(-90)"/><path d="m-39.549347 48.641384h1v3h-1z" transform="matrix(.5 -.8660254 .8660254 .5 0 0)"/><path d="m-4.358619 60.406487h1v3h-1z" transform="matrix(.8660254 -.5 .5 .8660254 0 0)"/></g><path d="m-14.845207-81.101463h1v11h-1z" fill="#d40000" transform="matrix(-.96592583 .25881905 -.25881905 -.96592583 0 0)"/><g fill="#f2f2f2"><path d="m33.84011 64.053925a1.8940361 1.8940361 0 1 1 -3.788073 0 1.8940361 1.8940361 0 1 1 3.788073 0z" transform="matrix(1.0559461 0 0 1.0559461 -1.733332 -3.637492)"/><path d="m25.948539 58.737752.811535-.811535 6.326497 4.987212-2.173142 2.173142z"/><path d="m40.381225 58.516708.573842.993923-8.186745 5.820142-1.536644-2.661546z"/></g><path d="m33.84011 64.053925a1.8940361 1.8940361 0 1 1 -3.788073 0 1.8940361 1.8940361 0 1 1 3.788073 0z" transform="matrix(.52261278 0 0 .52261278 15.304574 30.524601)"/><path d="m19 13c-3.289406 0-6 2.710594-6 6v58c0 3.289406 2.710594 6 6 6h58c3.289406 0 6-2.710594 6-6v-58c0-3.289406-2.710594-6-6-6zm0 4h58c1.142594 0 2 .857406 2 2v58c0 1.142594-.857406 2-2 2h-58c-1.142594 0-2-.857406-2-2v-58c0-1.142594.857406-2 2-2z" opacity=".15"/><path d="m17 14c-1.662 0-3 1.338-3 3v62c0 1.662 1.338 3 3 3h62c1.662 0 3-1.338 3-3v-62c0-1.662-1.338-3-3-3zm0 1.9375h62c.618163 0 1.0625.444337 1.0625 1.0625v62c0 .618163-.444337 1.0625-1.0625 1.0625h-62c-.618163 0-1.0625-.444337-1.0625-1.0625v-62c0-.618163.444337-1.0625 1.0625-1.0625z" opacity=".3"/><path d="m17 14c-1.662 0-3 1.338-3 3v62c0 1.662 1.338 3 3 3h62c1.662 0 3-1.338 3-3v-62c0-1.662-1.338-3-3-3zm0 .96875h62c1.140081 0 2.03125.891169 2.03125 2.03125v62c0 1.140081-.891169 2.03125-2.03125 2.03125h-62c-1.140081 0-2.03125-.891169-2.03125-2.03125v-62c0-1.140081.891169-2.03125 2.03125-2.03125z" opacity=".6"/><g><path d="m12 6c-3.324 0-6 2.676-6 6v72c0 3.324 2.676 6 6 6h72c3.324 0 6-2.676 6-6v-72c0-3.324-2.676-6-6-6zm5 7h62c2.216001 0 4 1.784 4 4v62c.000001 2.216001-1.784 4-4 4h-62c-2.215999.000001-4-1.784-4-4v-62c0-2.215999 1.784-4 4-4z" fill="url(#d)"/><path d="m12 6c-3.324 0-6 2.676-6 6v2 68 2c0 .334721.04135.6507.09375.96875.0487.295596.09704.596915.1875.875.00988.03038.020892.0636.03125.09375.098865.287771.2348802.547452.375.8125.1445918.273507.3156161.535615.5.78125s.3737765.473472.59375.6875c.439947.428056.94291.814526 1.5 1.09375.278545.139612.5734731.246947.875.34375-.2562018-.100222-.4867109-.236272-.71875-.375-.00741-.0044-.023866.0045-.03125 0-.031933-.0193-.062293-.04251-.09375-.0625-.120395-.0767-.2310226-.163513-.34375-.25-.1061728-.0808-.2132809-.161112-.3125-.25-.1779299-.161433-.3474596-.345388-.5-.53125-.1075789-.130255-.2183939-.265285-.3125-.40625-.025089-.03838-.038446-.08587-.0625-.125-.064763-.103032-.1302275-.204517-.1875-.3125-.1010083-.194706-.2056748-.415701-.28125-.625-.00796-.02181-.023589-.04055-.03125-.0625-.0318251-.09195-.0358045-.186831-.0625-.28125-.0303323-.106618-.0703894-.203031-.09375-.3125-.0728786-.341512-.125-.698205-.125-1.0625v-2-68-2c0-2.781848 2.2181517-5 5-5h2 68 2c2.781848 0 5 2.218152 5 5v2 68 2c0 .364295-.05212.720988-.125 1.0625-.04415.206893-.08838.397658-.15625.59375-.0077.02195-.0233.04069-.03125.0625-.06274.173739-.138383.367449-.21875.53125-.04158.0828-.07904.169954-.125.25-.0546.09721-.126774.18835-.1875.28125-.09411.140965-.204921.275995-.3125.40625-.143174.17445-.303141.346998-.46875.5-.01117.0102-.01998.02115-.03125.03125-.138386.125556-.285091.234436-.4375.34375-.102571.07315-.204318.153364-.3125.21875-.0074.0045-.02384-.0044-.03125 0-.232039.138728-.462548.274778-.71875.375.301527-.0968.596455-.204138.875-.34375.55709-.279224 1.060053-.665694 1.5-1.09375.219973-.214028.409366-.441865.59375-.6875s.355408-.507743.5-.78125c.14012-.265048.276135-.524729.375-.8125.01041-.03078.02133-.06274.03125-.09375.09046-.278085.1388-.579404.1875-.875.0524-.31805.09375-.634029.09375-.96875v-2-68-2c0-3.324-2.676-6-6-6z" fill="url(#c)" opacity=".5"/><path d="m17 12c-2.752703 0-5 2.247297-5 5v62c0 2.752703 2.247298 5 5 5h62c2.752703 0 5.000001-2.247297 5-5v-62c0-2.752703-2.247297-5-5-5zm0 2h62c1.679298 0 3 1.320703 3 3v62c.000001 1.679297-1.320703 3-3 3h-62c-1.679296 0-3-1.320703-3-3v-62c0-1.679297 1.320703-3 3-3z" fill="url(#e)"/><path d="m12 90c-3.324 0-6-2.676-6-6v-2-68-2c0-.334721.04135-.6507.09375-.96875.0487-.295596.09704-.596915.1875-.875.00988-.03038.020892-.0636.03125-.09375.098865-.287771.2348802-.547452.375-.8125.1445918-.273507.3156161-.535615.5-.78125s.3737765-.473472.59375-.6875c.439947-.428056.94291-.814526 1.5-1.09375.278545-.139612.5734731-.246947.875-.34375-.2562018.100222-.4867109.236272-.71875.375-.00741.0044-.023866-.0045-.03125 0-.031933.0193-.062293.04251-.09375.0625-.120395.0767-.2310226.163513-.34375.25-.1061728.0808-.2132809.161112-.3125.25-.1779299.161433-.3474596.345388-.5.53125-.1075789.130255-.2183939.265285-.3125.40625-.025089.03838-.038446.08587-.0625.125-.064763.103032-.1302275.204517-.1875.3125-.1010083.194706-.2056748.415701-.28125.625-.00796.02181-.023589.04055-.03125.0625-.0318251.09195-.0358045.186831-.0625.28125-.0303323.106618-.0703894.203031-.09375.3125-.0728786.341512-.125.698205-.125 1.0625v2 68 2c0 2.781848 2.2181517 5 5 5h2 68 2c2.781848 0 5-2.218152 5-5v-2-68-2c0-.364295-.05212-.720988-.125-1.0625-.04415-.206893-.08838-.397658-.15625-.59375-.0077-.02195-.0233-.04069-.03125-.0625-.06274-.173739-.138383-.367449-.21875-.53125-.04158-.0828-.07904-.169954-.125-.25-.0546-.09721-.126774-.18835-.1875-.28125-.09411-.140965-.204921-.275995-.3125-.40625-.143174-.17445-.303141-.346998-.46875-.5-.01117-.0102-.01998-.02115-.03125-.03125-.138386-.125556-.285091-.234436-.4375-.34375-.102571-.07315-.204318-.153364-.3125-.21875-.0074-.0045-.02384.0044-.03125 0-.232039-.138728-.462548-.274778-.71875-.375.301527.0968.596455.204138.875.34375.55709.279224 1.060053.665694 1.5 1.09375.219973.214028.409366.441865.59375.6875s.355408.507743.5.78125c.14012.265048.276135.524729.375.8125.01041.03078.02133.06274.03125.09375.09046.278085.1388.579404.1875.875.0524.31805.09375.634029.09375.96875v2 68 2c0 3.324-2.676 6-6 6z" fill="url(#f)" opacity=".4"/><rect height="66" rx="12" style="opacity:.1;stroke:#fefefe;stroke-width:.5;stroke-linecap:round;clip-path:url(#g);fill:url(#i);filter:url(#h)" width="66" x="15" y="15"/></g></svg>