<svg height="96" width="96" xmlns="http://www.w3.org/2000/svg" xmlns:xlink="http://www.w3.org/1999/xlink"><linearGradient id="a"><stop offset="0"/><stop offset="1" stop-opacity="0"/></linearGradient><linearGradient id="b" stop-color="#fff" xlink:href="#a"/><linearGradient id="c"><stop offset="0" stop-color="#aaa"/><stop offset="1" stop-color="#f0f0f0"/></linearGradient><linearGradient id="d" gradientTransform="matrix(1.0059 0 0 .99417 100 0)" gradientUnits="userSpaceOnUse" x1="45.448" x2="45.448" y1="92.54" y2="7.0165"><stop offset="0"/><stop offset="1" stop-opacity=".58824"/></linearGradient><linearGradient id="e" gradientTransform="matrix(1 0 0 -1 0 97)" gradientUnits="userSpaceOnUse" x1="32.251" x2="32.251" xlink:href="#d" y1="6.1317" y2="90.239"/><linearGradient id="f" gradientTransform="matrix(1.0238 0 0 -1.0119 -1.1429 98.071)" gradientUnits="userSpaceOnUse" x1="32.251" x2="32.251" xlink:href="#d" y1="6.1317" y2="90.239"/><radialGradient id="g" cx="48" cy="90.172" gradientTransform="matrix(1.1573 0 0 .99591 -7.551 .19713)" gradientUnits="userSpaceOnUse" r="42" xlink:href="#b"/><linearGradient id="h" gradientUnits="userSpaceOnUse" x1="36.357" x2="36.357" xlink:href="#b" y1="6" y2="63.893"/><linearGradient id="i" gradientUnits="userSpaceOnUse" stop-color="#fff" x1="24" x2="24" xlink:href="#a" y1="54" y2="74"/><linearGradient id="j" gradientUnits="userSpaceOnUse" stop-color="#fff" x1="40" x2="40" xlink:href="#a" y1="42" y2="73"/><linearGradient id="k" gradientUnits="userSpaceOnUse" x1="56" x2="56" xlink:href="#b" y1="30" y2="73"/><linearGradient id="l" gradientUnits="userSpaceOnUse" x1="72" x2="72" xlink:href="#b" y1="18" y2="72.009"/><linearGradient id="m" gradientTransform="matrix(.75 0 0 .78947 4.5 79.579)" gradientUnits="userSpaceOnUse" x1="24" x2="24" xlink:href="#c" y1="-2" y2="-34"/><linearGradient id="n" gradientTransform="matrix(.75 0 0 .75658 2.5 79.513)" gradientUnits="userSpaceOnUse" x1="56" x2="56" xlink:href="#c" y1="-2" y2="-50"/><linearGradient id="o" gradientTransform="matrix(.75 0 0 .74013 .61111 79.48)" gradientUnits="userSpaceOnUse" x1="72" x2="72" xlink:href="#c" y1="-2" y2="-66"/><linearGradient id="p" gradientUnits="userSpaceOnUse" x1="70.5" x2="70.5" xlink:href="#c" y1="78" y2="18"/><g fill="url(#f)"><path d="m12 3.9688c-5.5111 0-10.031 4.5201-10.031 10.031v71c0 5.5111 4.5202 10.031 10.031 10.031h72c5.5111 0 10.031-4.5202 10.031-10.031v-71c0-5.5113-4.52-10.031-10.031-10.031h-72zm0 2.0312h72c3.324 0 6 2.676 6 6v72c0 3.324-2.676 6-6 6h-72c-3.324 0-6-2.676-6-6v-72c0-3.324 2.676-6 6-6z" opacity=".08"/><path d="m12 4.9688c-4.9716 0-9.0312 4.0596-9.0312 9.0312v71c0 4.9716 4.0596 9.0312 9.0312 9.0312h72c4.9716 0 9.0312-4.0596 9.0312-9.0312v-71c0-4.9716-4.059-9.0312-9.031-9.0312h-72zm0 1.0312h72c3.324 0 6 2.676 6 6v72c0 3.324-2.676 6-6 6h-72c-3.324 0-6-2.676-6-6v-72c0-3.324 2.676-6 6-6z" opacity=".1"/><path d="m11.188 6.0312c-4.028.4107-7.188 3.8352-7.188 7.9688v71c0 4.4091 3.5909 8 8 8h72c4.4091 0 8-3.5909 8-8v-71c0-4.1971-3.259-7.646-7.375-7.9688 3.033.3062 5.375 2.8526 5.375 5.9688v72c0 3.324-2.676 6-6 6h-72c-3.324 0-6-2.676-6-6v-72c0-3.1162 2.3421-5.6626 5.375-5.9688-.06227.00488-.12563-.00631-.1875 0z" opacity=".2"/><path d="m6.4375 9.75c-.8995 1.177-1.4375 2.647-1.4375 4.25v71c0 3.878 3.122 7 7 7h72c3.878 0 7-3.122 7-7v-71c0-1.603-.538-3.073-1.438-4.25.28.694.438 1.454.438 2.25v72c0 3.324-2.676 6-6 6h-72c-3.324 0-6-2.676-6-6v-72c0-.796.1582-1.556.4375-2.25z" opacity=".3"/></g><path d="m6 84v1c0 3.324 2.676 6 6 6h72c3.324 0 6-2.676 6-6v-1c0 3.324-2.676 6-6 6h-72c-3.324 0-6-2.676-6-6z" fill="url(#e)" opacity=".45"/><rect height="84" opacity=".6" rx="6" width="84" x="6" y="6"/><path d="m12 6c-3.324 0-6 2.676-6 6v72c0 .33472.04135.6507.09375.96875.0487.2956.09704.59692.1875.875.00988.03038.020892.0636.03125.09375.098865.28777.23488.54745.375.8125.14459.27351.31562.53562.5.78125.18438.24564.37378.47347.59375.6875.43995.42806.94291.81453 1.5 1.0938.27854.13961.57347.24695.875.34375-.2562-.10022-.48671-.23627-.71875-.375-.00741-.0044-.023866.0045-.03125 0-.0319-.019-.0622-.042-.0937-.062-.1204-.077-.231-.164-.3437-.25-.1062-.081-.2133-.161-.3126-.25-.1778-.162-.3473-.346-.4999-.531-.1075-.131-.2183-.266-.3124-.407-.0251-.038-.0385-.086-.0626-.125-.0647-.103-.1302-.204-.1874-.312-.1011-.195-.2057-.416-.2813-.625-.008-.022-.0236-.041-.0313-.063-.0318-.092-.0358-.187-.0624-.281-.0304-.107-.0704-.203-.0938-.313-.0729-.341-.125-.698-.125-1.062v-72c0-2.782 2.2182-5 5-5h72c2.7818 0 5 2.2182 5 5v72c0 .3643-.05212.72099-.125 1.0625-.04415.20689-.08838.39766-.15625.59375-.0077.02195-.0233.04069-.03125.0625-.06274.17374-.13838.36745-.21875.53125-.04158.0828-.07904.16995-.125.25-.0546.09721-.12677.18835-.1875.28125-.09411.14096-.20492.276-.3125.40625-.14317.17445-.30314.347-.46875.5-.01117.0102-.01998.02115-.03125.03125-.13839.12556-.28509.23444-.4375.34375-.10257.07315-.20432.15336-.3125.21875-.0074.0045-.02384-.0044-.03125 0-.23204.13873-.46255.27478-.71875.375.30153-.0968.59646-.20414.875-.34375.55709-.27922 1.0601-.66569 1.5-1.0938.21997-.21403.40937-.44186.59375-.6875s.35541-.50774.5-.78125c.14012-.26505.27614-.52473.375-.8125.01041-.03078.02133-.06274.03125-.09375.09046-.27808.1388-.5794.1875-.875.053-.318.094-.634.094-.969v-72c0-3.324-2.676-6-6-6h-72z" fill="url(#h)" opacity=".01"/><path d="m12 90c-3.324 0-6-2.676-6-6v-72c0-.33472.04135-.6507.09375-.96875.0487-.2956.09704-.59692.1875-.875.0099-.03.0209-.063.0313-.094.0989-.2873.2349-.547.375-.812.1446-.2735.3156-.5356.5-.7812.1844-.2457.3738-.4735.5937-.6876.44-.428.943-.8145 1.5-1.0937.2786-.1396.5735-.2469.8748-.3437-.256.1002-.4865.2362-.7185.375-.00741.0044-.023866-.0045-.03125 0-.031933.0193-.062293.04251-.09375.0625-.1204.0767-.23102.16351-.34375.25-.10617.0808-.21328.16111-.3125.25-.1779.1614-.3474.3453-.5.5312-.1075.1303-.2183.2653-.3124.4063-.0251.0383-.0385.0858-.0626.125-.0647.103-.1302.2045-.1874.3124-.1011.1948-.2057.4158-.2813.625-.008.0219-.0236.0406-.0313.0626-.0318.0919-.0358.1868-.0624.2812-.0304.1066-.0704.203-.0938.3125-.0729.3415-.125.6985-.125 1.0625v72c0 2.7818 2.2182 5 5 5h72c2.7818 0 5-2.2182 5-5v-72c0-.364-.052-.721-.125-1.0625-.044-.2069-.088-.3977-.156-.5937-.008-.022-.024-.0407-.031-.0626-.063-.1737-.139-.3674-.219-.5312-.042-.0828-.079-.17-.125-.25-.055-.0972-.127-.1884-.188-.2812-.094-.141-.205-.276-.312-.4063-.143-.1745-.303-.347-.469-.5-.011-.0102-.02-.0211-.031-.0313-.139-.1255-.285-.2344-.438-.3437-.102-.0731-.204-.1534-.312-.2187-.0074-.0045-.02384.0044-.03125 0-.23204-.13873-.46255-.27478-.71875-.375.30153.0968.59646.20414.875.34375.55709.27922 1.0601.66569 1.5 1.0938.21997.21403.40937.44186.59375.6875s.35541.50774.5.78125c.14012.26505.27614.52473.375.8125.01041.03078.02133.06274.03125.09375.09046.27808.1388.5794.1875.875.053.318.094.634.094.969v72c0 3.324-2.676 6-6 6h-72z" fill="url(#g)" opacity=".15"/><path d="m69 16c-3.2948 0-6 2.7052-6 6v7.4688c-1.034-.914-2.384-1.469-3.875-1.469h-6.125c-3.2833 0-6 2.6799-6 5.9688v7.625c-1.063-.968-2.456-1.594-4-1.594h-6c-3.3103 0-6 2.7349-6 6.0312v7.625c-1.057-.995-2.431-1.656-4-1.656h-6c-3.3632 0-6 2.8431-6 6.1562v17.688c0 3.313 2.637 6.156 6 6.156h6c2.15 0 3.9133-1.2353 4.9688-2.9375 1.055 1.721 2.873 2.938 5.031 2.938h6c2.1414 0 3.9397-1.2072 5-2.9062 1.063 1.697 2.863 2.906 5 2.906h6.125c2.1032 0 3.8817-1.1579 4.9375-2.8125 1.055 1.658 2.831 2.812 4.938 2.812h6c3.2948 0 6-2.7052 6-6v-54c0-3.2948-2.7052-6-6-6h-6z" opacity=".08"/><path d="m69 17c-2.7545 0-5 2.2455-5 5v11.312c-.34-2.422-2.361-4.312-4.875-4.312h-6.125c-2.7465 0-5 2.2241-5 4.9688v12.062c0-2.76-2.234-5.031-5-5.031h-6c-2.766 0-5 2.2714-5 5.0312v12.125c0-2.792-2.196-5.156-5-5.156h-6c-2.8044 0-5 2.3644-5 5.1562v17.688c0 2.792 2.196 5.156 5 5.156h6c2.8044 0 5-2.3644 5-5.1562v.125c0 2.76 2.234 5.031 5 5.031h6c2.7445 0 4.9654-2.2378 5-4.9688 0 2.745 2.253 4.969 5 4.969h6.125c2.6356 0 4.7646-2.0643 4.9375-4.6562.188 2.587 2.305 4.656 4.938 4.656h6c2.7545 0 5-2.2455 5-5v-54c0-2.7545-2.2455-5-5-5h-6z" opacity=".1"/><path d="m69 18.062c-2.169 0-3.9375 1.7685-3.9375 3.9375v54c0 2.169 1.7685 3.9375 3.9375 3.9375h6c2.169 0 3.9375-1.7685 3.9375-3.9375v-54c0-2.17-1.769-3.938-3.938-3.938h-6zm-16 12c-2.1654 0-3.9375 1.7524-3.9375 3.9062v42.062c0 2.1539 1.7721 3.9062 3.9375 3.9062h6.125c2.1654 0 3.9375-1.7524 3.9375-3.9062v-42.062c0-2.1539-1.7721-3.9062-3.9375-3.9062h-6.124zm-16 12c-2.1753 0-3.9375 1.7896-3.9375 3.9688v29.938c0 2.1792 1.7622 3.9688 3.9375 3.9688h6c2.1753 0 3.9375-1.7896 3.9375-3.9688v-29.938c0-2.179-1.763-3.969-3.938-3.969h-6zm-16 12c-2.1951 0-3.9375 1.8626-3.9375 4.0938v17.688c0 2.2311 1.7424 4.0938 3.9375 4.0938h6c2.1951 0 3.9375-1.8626 3.9375-4.0938v-17.688c0-2.231-1.743-4.094-3.938-4.094h-6z" opacity=".15"/><path d="m69 19c-1.662 0-3 1.338-3 3v54c0 1.662 1.338 3 3 3h6c1.662 0 3-1.338 3-3v-54c0-1.662-1.338-3-3-3zm-16 12c-1.662 0-3 1.3286-3 2.9688v42.062c0 1.64 1.338 2.969 3 2.969h6.125c1.662 0 3-1.3286 3-2.9688v-42.062c0-1.64-1.338-2.969-3-2.969zm-16 12c-1.662 0-3 1.3547-3 3.0312v29.938c0 1.676 1.338 3.031 3 3.031h6c1.662 0 3-1.3547 3-3.0312v-29.938c0-1.676-1.338-3.031-3-3.031zm-16 12c-1.662 0-3 1.4068-3 3.1562v17.688c0 1.749 1.338 3.156 3 3.156h6c1.662 0 3-1.4068 3-3.1562v-17.688c0-1.749-1.338-3.156-3-3.156z" opacity=".3"/><rect fill="url(#p)" height="60" rx="3" width="12" x="66" y="18"/><rect fill="url(#o)" height="48" rx="3" width="12" x="50" y="30"/><rect fill="url(#n)" height="36" rx="3" width="12" x="34" y="42"/><rect fill="url(#m)" height="24" rx="3" width="12" x="18" y="54"/><path d="m69 18c-1.662 0-3 1.338-3 3v54c0 1.662 1.338 3 3 3h6c1.662 0 3-1.338 3-3v-54c0-1.662-1.338-3-3-3zm0 1.0625h6c1.0839 0 1.9375.85356 1.9375 1.9375v54c0 1.0839-.85356 1.9375-1.9375 1.9375h-6c-1.0839 0-1.9375-.85356-1.9375-1.9375v-54c0-1.0839.85356-1.9375 1.9375-1.9375z" fill="url(#l)" opacity=".6"/><path d="m53 30c-1.662 0-3 1.3286-3 2.9688v42.062c0 1.64 1.338 2.969 3 2.969h6.125c1.662 0 3-1.3286 3-2.9688v-42.062c0-1.64-1.338-2.969-3-2.969zm0 1h6.125c1.1321 0 2 .86933 2 1.9688v42.062c0 1.1-.868 1.969-2 1.969h-6.125c-1.1321 0-2-.86933-2-1.9688v-42.062c0-1.1.868-1.969 2-1.969z" fill="url(#k)" opacity=".6"/><path d="m37 42c-1.662 0-3 1.3547-3 3.0312v29.938c0 1.676 1.338 3.031 3 3.031h6c1.662 0 3-1.3547 3-3.0312v-29.938c0-1.676-1.338-3.031-3-3.031zm0 1h6c1.1218 0 2 .88363 2 2.0312v29.938c0 1.147-.878 2.031-2 2.031h-6c-1.1218 0-2-.88363-2-2.0312v-29.938c0-1.147.878-2.031 2-2.031z" fill="url(#j)" opacity=".6"/><path d="m21 54c-1.662 0-3 1.4068-3 3.1562v17.688c0 1.749 1.338 3.156 3 3.156h6c1.662 0 3-1.4068 3-3.1562v-17.688c0-1.749-1.338-3.156-3-3.156zm0 1.0625h6c1.0542 0 1.9375.89344 1.9375 2.0938v17.688c0 1.2003-.88328 2.0938-1.9375 2.0938h-6c-1.0542 0-1.9375-.89344-1.9375-2.0938v-17.688c0-1.2003.88328-2.0938 1.9375-2.0938z" fill="url(#i)" opacity=".6"/></svg>