<svg height="96" width="96" xmlns="http://www.w3.org/2000/svg" xmlns:xlink="http://www.w3.org/1999/xlink"><linearGradient id="a"><stop offset="0" stop-color="#cbcbcb"/><stop offset=".5" stop-color="#eee"/><stop offset="1" stop-color="#d1d1d1"/></linearGradient><linearGradient id="b" gradientTransform="matrix(1.0058652 0 0 .994169 100 0)" gradientUnits="userSpaceOnUse" x1="45.447727" x2="45.447727" y1="92.539597" y2="7.01654"><stop offset="0"/><stop offset="1" stop-opacity=".588235"/></linearGradient><linearGradient id="c"><stop offset="0" stop-color="#fefefe"/><stop offset="1" stop-color="#fefefe" stop-opacity="0"/></linearGradient><linearGradient id="d" gradientTransform="matrix(1.0238095 0 0 1.0119048 -1.142857 -98.071429)" gradientUnits="userSpaceOnUse" x1="32.251034" x2="32.251034" xlink:href="#b" y1="6.131708" y2="90.238609"/><linearGradient id="e" gradientTransform="translate(0 -97)" gradientUnits="userSpaceOnUse" x1="32.251034" x2="32.251034" xlink:href="#b" y1="6.131708" y2="90.238609"/><radialGradient id="f" cx="48" cy="90.171875" gradientTransform="matrix(-1.1573032 .0047467 -.0040847 -.99589936 185.60862 145.68824)" gradientUnits="userSpaceOnUse" r="42" xlink:href="#c"/><linearGradient id="g" gradientUnits="userSpaceOnUse" x1="-129.4585" x2="-129.4585" y1="-56.64542" y2="-140.657703"><stop offset="0" stop-color="#e9e9e9"/><stop offset=".5" stop-color="#dadada"/><stop offset="1" stop-color="#969696"/></linearGradient><linearGradient id="h" gradientUnits="userSpaceOnUse" x1="127.73303" x2="127.73303" y1="61.073315" y2="136.07332"><stop offset="0" stop-color="#e7e7e7"/><stop offset=".5" stop-color="#dadada"/><stop offset="1" stop-color="#9e9e9e"/></linearGradient><linearGradient id="i" gradientUnits="userSpaceOnUse" x1="50.5" x2="50.5" y1="30.999998" y2="77"><stop offset="0" stop-color="#8d8d8d"/><stop offset="1" stop-color="#ebebeb"/></linearGradient><linearGradient id="j" gradientUnits="userSpaceOnUse" x1="45.5" x2="46.5" y1="30.999998" y2="77"><stop offset="0" stop-color="#e7e7e7"/><stop offset="1" stop-color="#fefefe"/></linearGradient><linearGradient id="k" gradientUnits="userSpaceOnUse" x1="50.671875" x2="50.671875" y1="33.390625" y2="57.609375"><stop offset="0" stop-color="#414141"/><stop offset="1" stop-color="#383838"/></linearGradient><linearGradient id="l" gradientUnits="userSpaceOnUse" x1="49.195492" x2="49.635201" y1="40.01218" y2="59.792934"><stop offset="0" stop-color="#dadada"/><stop offset="1" stop-color="#e6e6e6"/></linearGradient><linearGradient id="m" gradientUnits="userSpaceOnUse" x1="48.808163" x2="48.905602" y1="41.665653" y2="57.158951"><stop offset="0" stop-color="#fefefe"/><stop offset="1" stop-color="#7e7e7e"/></linearGradient><linearGradient id="n" gradientUnits="userSpaceOnUse" x1="89.995874" x2="95.878955" xlink:href="#a" y1="118.247108" y2="118.247108"/><linearGradient id="o" gradientUnits="userSpaceOnUse" x1="90.121081" x2="96.004162" xlink:href="#a" y1="75.801874" y2="75.801874"/><linearGradient id="p" gradientTransform="matrix(1 0 0 2.3805313 149.59366 33.283777)" gradientUnits="userSpaceOnUse" x1="7.262845" x2="13.145926" xlink:href="#a" y1="27.073447" y2="27.073447"/><g enable-background="new" transform="translate(-82.733029 -51.073313)"><path d="m12-95.03125c-5.5110903 0-10.03125 4.52016-10.03125 10.03125v71c0 5.5110902 4.5201598 10.03125 10.03125 10.03125h72c5.51109 0 10.03125-4.5201597 10.03125-10.03125v-71c0-5.51109-4.52016-10.03125-10.03125-10.03125z" fill="url(#d)" opacity=".08" transform="matrix(1 0 0 -1 81.861999 50.113614)"/><path d="m12-94.03125c-4.971633 0-9.03125 4.059617-9.03125 9.03125v71c0 4.9716329 4.0596171 9.03125 9.03125 9.03125h72c4.971633 0 9.03125-4.059617 9.03125-9.03125v-71c0-4.971633-4.059617-9.03125-9.03125-9.03125z" fill="url(#d)" opacity=".1" transform="matrix(1 0 0 -1 81.861999 50.113614)"/><path d="m12-93c-4.4091333 0-8 3.590867-8 8v71c0 4.4091333 3.5908667 8 8 8h72c4.409133 0 8-3.5908667 8-8v-71c0-4.409133-3.590867-8-8-8z" fill="url(#d)" opacity=".2" transform="matrix(1 0 0 -1 81.861999 50.113614)"/><rect fill="url(#d)" height="85" opacity=".3" rx="7" transform="matrix(1 0 0 -1 81.861999 50.113614)" width="86" x="5" y="-92"/><rect fill="url(#e)" height="84" opacity=".45" rx="6" transform="matrix(1 0 0 -1 81.861999 50.113614)" width="84" x="6" y="-91"/><rect fill="url(#g)" height="84" rx="6" transform="matrix(-.99999159 .00410148 -.00410148 -.99999159 0 0)" width="84" x="-171.4585" y="-140.64542"/><path d="m165.68944 55.966315c3.32397-.01363 6.01092 2.651368 6.02456 5.97534l.008 1.999983.2789 67.999432.008 1.99998c.001.33472-.0387.65086-.0898.96913-.0475.29579-.0946.5973-.18391.87576-.01.0304-.0206.0637-.0309.0939-.0977.28817-.23263.54841-.37166.81403-.14347.27409-.31342.5369-.49679.78329-.18338.24639-.37184.475-.59093.68993-.43819.42986-.93956.81839-1.4955 1.09989-.27797.14076-.57246.2493-.87358.34734.25579-.10127.48573-.23827.7172-.37795.007-.004.0239.004.0312-.00012.0319-.0194.0621-.0428.0935-.0629.12007-.0772.23035-.16446.34272-.25141.10584-.0812.21262-.16198.31147-.25128.17727-.16216.34604-.34681.49782-.53329.10704-.1307.2173-.26618.31083-.40753.0249-.0385.0381-.086.062-.12526.0643-.10329.12939-.20504.18622-.31326.10021-.19512.20397-.41654.27868-.62615.008-.0218.0234-.0406.031-.0626.0315-.0921.035-.18697.0613-.2815.0299-.10674.0696-.20332.0925-.31288.0715-.34181.12214-.69872.12064-1.06301l-.008-1.99998-.2789-67.999428-.008-1.999984c-.0114-2.781824-2.23864-4.99086-5.02047-4.97945l-1.99998.0082-67.999431.2789-1.999983.0082c-2.781824.01141-4.99086 2.238641-4.97945 5.020466l.0082 1.999983.2789 67.999427.0082 1.99998c.0015.3643.05508.72077.129357 1.06198.045.20671.09001.39729.158684.59311.0078.0219.02347.0406.03151.0624.06345.17348.139889.36688.220927.53035.04192.0826.07974.16962.126024.24948.055.097.127546.18783.188652.28048.09469.14058.206052.27515.314164.40497.143888.17386.304562.34575.470797.49807.01121.0102.02007.0211.03138.0311.138899.12499.28605.23326.438906.34195.10287.0727.204945.15253.313394.21747.0074.004.02382-.005.03125-.00013.232606.13778.463671.27288.720282.37205-.301921-.0956-.597287-.20169-.876402-.34016-.558231-.27694-1.062775-.66134-1.504474-1.08759-.220849-.21312-.411175-.44018-.596564-.68506-.18539-.24487-.357488-.50628-.503201-.77919-.141205-.26447-.278284-.52359-.378329-.81095-.01054-.0307-.02159-.0627-.03163-.0936-.0916-.27772-.141175-.57883-.191087-.87423-.0537-.31783-.09635-.63364-.09772-.96836l-.0082-1.99998-.2789-67.999427-.0082-1.999983c-.01363-3.323972 2.651368-6.010925 5.97534-6.024559l71.999397-.295306z" fill="url(#f)" opacity=".2"/><rect height="76" opacity=".5" rx="6" width="75" x="92.733032" y="60.073315"/><rect fill="url(#h)" height="74" rx="6" width="72.999992" x="93.733032" y="61.073315"/><path d="m71 54a23 23 0 1 1 -46 0 23 23 0 1 1 46 0z" fill="url(#i)" stroke="url(#j)" transform="translate(80.233029 44.073315)"/><path d="m62 45.5c0 6.903559-5.596441 12.5-12.5 12.5s-12.5-5.596441-12.5-12.5 5.596441-12.5 12.5-12.5 12.5 5.596441 12.5 12.5z" fill="url(#k)" transform="matrix(1.52 0 0 1.52 52.9930293125 28.913315375)"/><path d="m60 50c0 5.522847-4.477153 10-10 10s-10-4.477153-10-10 4.477153-10 10-10 10 4.477153 10 10z" fill="url(#l)" stroke="#eee" stroke-width=".701754" transform="matrix(1.425 0 0 1.425 56.9830293125 26.823315375)"/><path d="m57 49.5c0 4.142136-3.357864 7.5-7.5 7.5s-7.5-3.357864-7.5-7.5 3.357864-7.5 7.5-7.5 7.5 3.357864 7.5 7.5z" fill="url(#m)" stroke="#acacac" stroke-linecap="round" stroke-linejoin="round" stroke-width=".842105" transform="matrix(1.1875 0 0 1.1875 69.4901070625 39.5386770625)"/><path d="m51.924549 48.271584c0 2.180467-1.758363 3.948084-3.927414 3.948084s-3.927414-1.767617-3.927414-3.948084 1.758363-3.948085 3.927414-3.948085 3.927414 1.767618 3.927414 3.948085z" fill="#dfdfdf" stroke="#e4e4e4" stroke-linecap="round" stroke-linejoin="round" stroke-width=".828997" transform="matrix(1.2094471375 0 0 1.20311503125 70.0740886875 40.2625438125)"/><path d="m126.16279 78.164181 2.14567 3.747485 1.9678-3.819123z" fill="#fefefe"/><rect fill="url(#n)" height="14.148409" rx="2" stroke="#949494" width="4.883081" x="90.495872" y="111.1729"/><path d="m90.952431 114.52312h3.911151v1h-3.911151z" fill-opacity=".54902"/><path d="m90.974564 121.2075h3.911151v1h-3.911151z" fill-opacity=".548077"/><rect fill="url(#o)" height="14.148409" rx="2" stroke="#949494" width="4.883081" x="90.621078" y="68.727661"/><path d="m91.077637 72.077881h3.911151v1h-3.911151z" fill-opacity=".54902"/><path d="m91.09977 78.76226h3.911151v1h-3.911151z" fill-opacity=".548077"/><rect fill="url(#p)" height="33.680733" rx="2" stroke="#949494" width="4.883081" x="157.35651" y="80.892578"/><g fill-opacity=".392157"><path d="m127.73344 83.292519h1v4.776905h-1z"/><path d="m127.73344 107.99241h1v4.776905h-1z"/><g transform="matrix(0 1 -1 0 226.26435 -30.202521)"><path d="m127.73344 83.292519h1v4.776905h-1z"/><path d="m127.73344 107.99241h1v4.776905h-1z"/></g><g transform="matrix(.70710678 .70710678 -.70710678 .70710678 106.87703 -61.962142)"><path d="m127.73344 83.292519h1v4.776905h-1z"/><path d="m127.73344 107.99241h1v4.776905h-1z"/></g><g transform="matrix(-.70710678 .70710678 -.70710678 -.70710678 288.22649 76.674508)"><path d="m127.73344 83.292519h1v4.776905h-1z"/><path d="m127.73344 107.99241h1v4.776905h-1z"/></g></g></g></svg>