<svg height="96" width="96" xmlns="http://www.w3.org/2000/svg" xmlns:xlink="http://www.w3.org/1999/xlink"><linearGradient id="a"><stop offset="0"/><stop offset="1" stop-opacity="0"/></linearGradient><linearGradient id="b" stop-color="#fff" xlink:href="#a"/><linearGradient id="c" gradientTransform="matrix(1.0059 0 0 .99417 100 0)" gradientUnits="userSpaceOnUse" x1="45.448" x2="45.448" y1="92.54" y2="7.0165"><stop offset="0"/><stop offset="1" stop-opacity=".58824"/></linearGradient><linearGradient id="d" gradientTransform="translate(0 1)" gradientUnits="userSpaceOnUse" x1="32.251" x2="32.251" xlink:href="#c" y1="90" y2="6"/><linearGradient id="e" gradientTransform="matrix(1.0238 0 0 1.0119 -1.1429 .929)" gradientUnits="userSpaceOnUse" x1="32.251" x2="32.251" xlink:href="#c" y1="90" y2="5.9996"/><linearGradient id="f" gradientTransform="matrix(1.0238 0 0 -1.0119 -1.1429 98.071)" gradientUnits="userSpaceOnUse" x1="32.251" x2="32.251" xlink:href="#c" y1="6.1317" y2="90.239"/><linearGradient id="g" gradientUnits="userSpaceOnUse" x1="32" x2="32" y1="-18" y2="-88"><stop offset="0" stop-color="#fffffe"/><stop offset="1" stop-color="#fffffe" stop-opacity="0"/></linearGradient><radialGradient id="h" cx="56.066" cy="-15.871" gradientTransform="matrix(-.0022617 -1.2346 1.3856 0 70.085 140.27)" gradientUnits="userSpaceOnUse" r="35.938"><stop offset="0" stop-color="#909090"/><stop offset="1" stop-color="#8f8f8f"/></radialGradient><radialGradient id="i" cx="48" cy="90.172" gradientTransform="matrix(1.1573 0 0 .99591 -7.551 .19713)" gradientUnits="userSpaceOnUse" r="42" stop-color="#fff" xlink:href="#a"/><linearGradient id="j" gradientUnits="userSpaceOnUse" x1="43.0366626" x2="43.0366626" y1="11.9704" y2="84.332073"><stop offset="0" stop-color="#919191"/><stop offset="1" stop-color="#fdfdfd"/></linearGradient><linearGradient id="k" gradientUnits="userSpaceOnUse" x1="36.357" x2="36.357" xlink:href="#b" y1="6" y2="63.893"/><linearGradient id="l" gradientUnits="userSpaceOnUse" x1="48" x2="48" y1="90" y2="5.9877"><stop offset="0" stop-color="#b4b4b4"/><stop offset="1" stop-color="#e6e6e6"/></linearGradient><linearGradient id="m" gradientUnits="userSpaceOnUse" x1="64" x2="64" xlink:href="#b" y1="-50.000002" y2="-120.000002"/><g fill="url(#f)"><path d="m12 95.031c-5.5111 0-10.031-4.52-10.031-10.031v-71c0-5.5111 4.5202-10.031 10.031-10.031h72c5.5111 0 10.031 4.5202 10.031 10.031v71c0 5.5111-4.5202 10.031-10.031 10.031z" opacity=".08"/><path d="m12 94.031c-4.9716 0-9.0312-4.0596-9.0312-9.0312v-71c0-4.9718 4.0596-9.0314 9.0312-9.0314h72c4.9716 0 9.0312 4.0596 9.0312 9.0312v71c0 4.9716-4.0596 9.0312-9.0312 9.0312h-72z" opacity=".1"/><path d="m12 93c-4.4091 0-8-3.591-8-8v-71c0-4.4091 3.5909-8 8-8h72c4.4091 0 8 3.5909 8 8v71c0 4.4091-3.5909 8-8 8z" opacity=".2"/></g><rect fill="url(#e)" height="85" opacity=".3" rx="7" width="86" x="5" y="7"/><rect fill="url(#d)" height="84" opacity=".45" rx="6" width="84" x="6" y="7"/><path d="m83.937 83.875v-71.869h-71.94v71.869z" fill="url(#h)"/><path d="m19 13c-3.2894 0-6 2.7106-6 6v58c0 3.2894 2.7106 6 6 6h58c3.2894 0 6-2.7106 6-6v-58c0-3.2894-2.7106-6-6-6zm0 4h58c1.1426 0 2 .85741 2 2v58c0 1.1426-.85741 2-2 2h-58c-1.1426 0-2-.85741-2-2v-58c0-1.1426.85741-2 2-2z" opacity=".08"/><path d="m17 14c-1.662 0-3 1.338-3 3v62c0 1.662 1.338 3 3 3h62c1.662 0 3-1.338 3-3v-62c0-1.662-1.338-3-3-3zm0 1.9375h62c.61816 0 1.0625.44434 1.0625 1.0625v62c0 .61816-.44434 1.0625-1.0625 1.0625h-62c-.61816 0-1.0625-.44434-1.0625-1.0625v-62c0-.61816.44434-1.0625 1.0625-1.0625z" opacity=".1"/><path d="m17 14c-1.662 0-3 1.338-3 3v62c0 1.662 1.338 3 3 3h62c1.662 0 3-1.338 3-3v-62c0-1.662-1.338-3-3-3zm0 .96875h62c1.1401 0 2.0312.89117 2.0312 2.0312v62c0 1.1401-.89117 2.0312-2.0312 2.0312h-62c-1.1401 0-2.0312-.89117-2.0312-2.0312v-62c0-1.1401.89117-2.0312 2.0312-2.0312z" opacity=".25"/><rect fill="url(#g)" height="28" opacity=".3" rx="2" transform="scale(1 -1)" width="28" x="18" y="-46"/><path d="m20 16c-2.1807 0-4 1.8193-4 4v24c0 2.1807 1.8193 4 4 4h24c2.1807 0 4-1.8193 4-4v-24c0-2.1807-1.8193-4-4-4zm0 2h24c1.108 0 2 .892 2 2v24c0 1.108-.892 2-2 2h-24c-1.108 0-2-.892-2-2v-24c0-1.108.892-2 2-2z" fill="#0f2e61" opacity=".15"/><path d="m20 16.969c-1.6603 0-3.0312 1.371-3.0312 3.0312v24c0 1.6603 1.371 3.0312 3.0312 3.0312h24c1.6603 0 3.0312-1.371 3.0312-3.0312v-24c0-1.66-1.371-3.031-3.031-3.031h-24zm0 1.031h24c1.108 0 2 .892 2 2v24c0 1.108-.892 2-2 2h-24c-1.108 0-2-.892-2-2v-24c0-1.108.892-2 2-2z" fill="#0c1752" opacity=".3"/><rect fill="url(#m)" height="25.501274" opacity=".2" rx="2" transform="scale(1 -1)" width="57.15189" x="19.36968" y="-76.600029"/><path d="m12 6c-3.324 0-6 2.676-6 6v72c0 3.324 2.676 6 6 6h72c3.324 0 6-2.676 6-6v-72c0-3.324-2.676-6-6-6zm5 8h62c1.6838 0 3 1.3162 3 3v62c.000001 1.6838-1.3162 3-3 3h-62c-1.6838.000001-3-1.3162-3-3v-62c0-1.6838 1.3162-3 3-3z" fill="url(#l)"/><path d="m12 6c-3.324 0-6 2.676-6 6v72c0 .33472.04135.6507.09375.96875.0487.2956.09704.59692.1875.875.00988.03038.020892.0636.03125.09375.098865.28777.23488.54745.375.8125.14459.27351.31562.53562.5.78125.18438.24564.37378.47347.59375.6875.43995.42806.94291.81453 1.5 1.0938.27854.13961.57347.24695.875.34375-.2562-.10022-.48671-.23627-.71875-.375-.00741-.0044-.023866.0045-.03125 0-.0319-.019-.0622-.042-.0937-.062-.1204-.077-.231-.164-.3437-.25-.1062-.081-.2133-.161-.3126-.25-.1778-.162-.3473-.346-.4999-.531-.1075-.131-.2183-.266-.3124-.407-.0251-.038-.0385-.086-.0626-.125-.0647-.103-.1302-.204-.1874-.312-.1011-.195-.2057-.416-.2813-.625-.008-.022-.0236-.041-.0313-.063-.0318-.092-.0358-.187-.0624-.281-.0304-.107-.0704-.203-.0938-.313-.0729-.341-.125-.698-.125-1.062v-72c0-2.782 2.2182-5 5-5h72c2.7818 0 5 2.2182 5 5v72c0 .3643-.05212.72099-.125 1.0625-.04415.20689-.08838.39766-.15625.59375-.0077.02195-.0233.04069-.03125.0625-.06274.17374-.13838.36745-.21875.53125-.04158.0828-.07904.16995-.125.25-.0546.09721-.12677.18835-.1875.28125-.09411.14096-.20492.276-.3125.40625-.14317.17445-.30314.347-.46875.5-.01117.0102-.01998.02115-.03125.03125-.13839.12556-.28509.23444-.4375.34375-.10257.07315-.20432.15336-.3125.21875-.0074.0045-.02384-.0044-.03125 0-.23204.13873-.46255.27478-.71875.375.30153-.0968.59646-.20414.875-.34375.55709-.27922 1.0601-.66569 1.5-1.0938.21997-.21403.40937-.44186.59375-.6875s.35541-.50774.5-.78125c.14012-.26505.27614-.52473.375-.8125.01041-.03078.02133-.06274.03125-.09375.09046-.27808.1388-.5794.1875-.875.053-.318.094-.634.094-.969v-72c0-3.324-2.676-6-6-6h-72z" fill="url(#k)" opacity=".7"/><rect height="70" rx="4" style="stroke-linejoin:round;stroke-opacity:.7;stroke-linecap:square;stroke-width:2;fill:none;stroke:url(#j)" width="70" x="13" y="13"/><path d="m12 90c-3.324 0-6-2.676-6-6v-72c0-.33472.04135-.6507.09375-.96875.0487-.2956.09704-.59692.1875-.875.0099-.03.0209-.063.0313-.094.0989-.2873.2349-.547.375-.812.1446-.2735.3156-.5356.5-.7812.1844-.2457.3738-.4735.5937-.6876.44-.428.943-.8145 1.5-1.0937.2786-.1396.5735-.2469.8748-.3437-.256.1002-.4865.2362-.7185.375-.00741.0044-.023866-.0045-.03125 0-.031933.0193-.062293.04251-.09375.0625-.1204.0767-.23102.16351-.34375.25-.10617.0808-.21328.16111-.3125.25-.1779.1614-.3474.3453-.5.5312-.1075.1303-.2183.2653-.3124.4063-.0251.0383-.0385.0858-.0626.125-.0647.103-.1302.2045-.1874.3124-.1011.1948-.2057.4158-.2813.625-.008.0219-.0236.0406-.0313.0626-.0318.0919-.0358.1868-.0624.2812-.0304.1066-.0704.203-.0938.3125-.0729.3415-.125.6985-.125 1.0625v72c0 2.7818 2.2182 5 5 5h72c2.7818 0 5-2.2182 5-5v-72c0-.364-.052-.721-.125-1.0625-.044-.2069-.088-.3977-.156-.5937-.008-.022-.024-.0407-.031-.0626-.063-.1737-.139-.3674-.219-.5312-.042-.0828-.079-.17-.125-.25-.055-.0972-.127-.1884-.188-.2812-.094-.141-.205-.276-.312-.4063-.143-.1745-.303-.347-.469-.5-.011-.0102-.02-.0211-.031-.0313-.139-.1255-.285-.2344-.438-.3437-.102-.0731-.204-.1534-.312-.2187-.0074-.0045-.02384.0044-.03125 0-.23204-.13873-.46255-.27478-.71875-.375.30153.0968.59646.20414.875.34375.55709.27922 1.0601.66569 1.5 1.0938.21997.21403.40937.44186.59375.6875s.35541.50774.5.78125c.14012.26505.27614.52473.375.8125.01041.03078.02133.06274.03125.09375.09046.27808.1388.5794.1875.875.053.318.094.634.094.969v72c0 3.324-2.676 6-6 6h-72z" fill="url(#i)" opacity=".4"/><rect fill="none" height="31.096931" rx="4" stroke="#0d2f5e" stroke-opacity=".14902" width="63.136196" x="16.373005" y="48.41227"/><rect fill="none" height="29.212269" rx="3" stroke="#0c1d56" stroke-opacity=".407843" width="61.251534" x="17.197546" y="49.236809"/><rect fill="url(#g)" height="28" opacity=".3" rx="2" transform="scale(1 -1)" width="60.157055" x="17.685888" y="-77.725151"/><rect height="4.595301" opacity=".50211" rx="2.5" width="60.107594" x="17.706505" y="49.661564"/><rect height="4.595" opacity=".50211" rx="2.5" ry="1.8322" width="27.922745" x="18.005171" y="17.907442"/></svg>