<svg height="96" width="96" xmlns="http://www.w3.org/2000/svg" xmlns:xlink="http://www.w3.org/1999/xlink"><linearGradient id="a"><stop offset="0" stop-color="#fefefe"/><stop offset="1" stop-color="#fefefe" stop-opacity="0"/></linearGradient><linearGradient id="b" gradientUnits="userSpaceOnUse" x1="36.357143" x2="36.357143" xlink:href="#a" y1="6" y2="63.893143"/><filter id="c" color-interpolation-filters="sRGB" height="1.384" width="1.384" x="-.192" y="-.192"><feGaussianBlur stdDeviation="5.28"/></filter><linearGradient id="d" gradientUnits="userSpaceOnUse" x1="48" x2="48" xlink:href="#a" y1="20.220806" y2="138.66119"/><radialGradient id="e" cx="48" cy="90.171875" gradientTransform="matrix(1.1573129 0 0 .99590774 -7.551021 .197132)" gradientUnits="userSpaceOnUse" r="42" xlink:href="#a"/><clipPath id="f"><rect height="84" rx="6" width="84" x="6" y="6"/></clipPath><linearGradient id="g" gradientUnits="userSpaceOnUse" x1="48" x2="48" y1="80" y2="16"><stop offset="0" stop-color="#5c6061"/><stop offset="1" stop-color="#bab5af"/></linearGradient><linearGradient id="h" gradientTransform="matrix(1.0058652 0 0 .994169 100 0)" gradientUnits="userSpaceOnUse" x1="45.447727" x2="45.447727" y1="92.539597" y2="7.01654"><stop offset="0"/><stop offset="1" stop-opacity=".588235"/></linearGradient><linearGradient id="i" gradientTransform="matrix(1.0238095 0 0 1.0119048 -1.142857 -98.071429)" gradientUnits="userSpaceOnUse" x1="32.251034" x2="32.251034" xlink:href="#h" y1="6.131708" y2="90.238609"/><linearGradient id="j" gradientTransform="translate(0 -97)" gradientUnits="userSpaceOnUse" x1="32.251034" x2="32.251034" xlink:href="#h" y1="6.131708" y2="90.238609"/><linearGradient id="k" gradientUnits="userSpaceOnUse" x1="47" x2="47" y1="80" y2="16"><stop offset="0" stop-color="#d8d5cc"/><stop offset="1" stop-color="#40474b"/></linearGradient><g fill="url(#i)"><path d="m12-95.03125c-5.5110903 0-10.03125 4.52016-10.03125 10.03125v71c0 5.5110902 4.5201598 10.03125 10.03125 10.03125h72c5.51109 0 10.03125-4.5201597 10.03125-10.03125v-71c0-5.51109-4.52016-10.03125-10.03125-10.03125z" opacity=".08" transform="scale(1 -1)"/><path d="m12-94.03125c-4.971633 0-9.03125 4.059617-9.03125 9.03125v71c0 4.9716329 4.0596171 9.03125 9.03125 9.03125h72c4.971633 0 9.03125-4.059617 9.03125-9.03125v-71c0-4.971633-4.059617-9.03125-9.03125-9.03125z" opacity=".1" transform="scale(1 -1)"/><path d="m12-93c-4.4091333 0-8 3.590867-8 8v71c0 4.4091333 3.5908667 8 8 8h72c4.409133 0 8-3.5908667 8-8v-71c0-4.409133-3.590867-8-8-8z" opacity=".2" transform="scale(1 -1)"/><rect height="85" opacity=".3" rx="7" transform="scale(1 -1)" width="86" x="5" y="-92"/></g><rect fill="url(#j)" height="84" opacity=".45" rx="6" transform="scale(1 -1)" width="84" x="6" y="-91"/><rect fill="url(#g)" height="84" rx="6" width="84" x="6" y="6"/><path d="m12 6c-3.324 0-6 2.676-6 6v2 68 2c0 .334721.04135.6507.09375.96875.0487.295596.09704.596915.1875.875.00988.03038.020892.0636.03125.09375.098865.287771.2348802.547452.375.8125.1445918.273507.3156161.535615.5.78125s.3737765.473472.59375.6875c.439947.428056.94291.814526 1.5 1.09375.278545.139612.5734731.246947.875.34375-.2562018-.100222-.4867109-.236272-.71875-.375-.00741-.0044-.023866.0045-.03125 0-.031933-.0193-.062293-.04251-.09375-.0625-.120395-.0767-.2310226-.163513-.34375-.25-.1061728-.0808-.2132809-.161112-.3125-.25-.1779299-.161433-.3474596-.345388-.5-.53125-.1075789-.130255-.2183939-.265285-.3125-.40625-.025089-.03838-.038446-.08587-.0625-.125-.064763-.103032-.1302275-.204517-.1875-.3125-.1010083-.194706-.2056748-.415701-.28125-.625-.00796-.02181-.023589-.04055-.03125-.0625-.0318251-.09195-.0358045-.186831-.0625-.28125-.0303323-.106618-.0703894-.203031-.09375-.3125-.0728786-.341512-.125-.698205-.125-1.0625v-2-68-2c0-2.781848 2.2181517-5 5-5h2 68 2c2.781848 0 5 2.218152 5 5v2 68 2c0 .364295-.05212.720988-.125 1.0625-.04415.206893-.08838.397658-.15625.59375-.0077.02195-.0233.04069-.03125.0625-.06274.173739-.138383.367449-.21875.53125-.04158.0828-.07904.169954-.125.25-.0546.09721-.126774.18835-.1875.28125-.09411.140965-.204921.275995-.3125.40625-.143174.17445-.303141.346998-.46875.5-.01117.0102-.01998.02115-.03125.03125-.138386.125556-.285091.234436-.4375.34375-.102571.07315-.204318.153364-.3125.21875-.0074.0045-.02384-.0044-.03125 0-.232039.138728-.462548.274778-.71875.375.301527-.0968.596455-.204138.875-.34375.55709-.279224 1.060053-.665694 1.5-1.09375.219973-.214028.409366-.441865.59375-.6875s.355408-.507743.5-.78125c.14012-.265048.276135-.524729.375-.8125.01041-.03078.02133-.06274.03125-.09375.09046-.278085.1388-.579404.1875-.875.0524-.31805.09375-.634029.09375-.96875v-2-68-2c0-3.324-2.676-6-6-6z" fill="url(#b)" opacity=".35"/><path d="m12 90c-3.324 0-6-2.676-6-6v-2-68-2c0-.334721.04135-.6507.09375-.96875.0487-.295596.09704-.596915.1875-.875.00988-.03038.020892-.0636.03125-.09375.098865-.287771.2348802-.547452.375-.8125.1445918-.273507.3156161-.535615.5-.78125s.3737765-.473472.59375-.6875c.439947-.428056.94291-.814526 1.5-1.09375.278545-.139612.5734731-.246947.875-.34375-.2562018.100222-.4867109.236272-.71875.375-.00741.0044-.023866-.0045-.03125 0-.031933.0193-.062293.04251-.09375.0625-.120395.0767-.2310226.163513-.34375.25-.1061728.0808-.2132809.161112-.3125.25-.1779299.161433-.3474596.345388-.5.53125-.1075789.130255-.2183939.265285-.3125.40625-.025089.03838-.038446.08587-.0625.125-.064763.103032-.1302275.204517-.1875.3125-.1010083.194706-.2056748.415701-.28125.625-.00796.02181-.023589.04055-.03125.0625-.0318251.09195-.0358045.186831-.0625.28125-.0303323.106618-.0703894.203031-.09375.3125-.0728786.341512-.125.698205-.125 1.0625v2 68 2c0 2.781848 2.2181517 5 5 5h2 68 2c2.781848 0 5-2.218152 5-5v-2-68-2c0-.364295-.05212-.720988-.125-1.0625-.04415-.206893-.08838-.397658-.15625-.59375-.0077-.02195-.0233-.04069-.03125-.0625-.06274-.173739-.138383-.367449-.21875-.53125-.04158-.0828-.07904-.169954-.125-.25-.0546-.09721-.126774-.18835-.1875-.28125-.09411-.140965-.204921-.275995-.3125-.40625-.143174-.17445-.303141-.346998-.46875-.5-.01117-.0102-.01998-.02115-.03125-.03125-.138386-.125556-.285091-.234436-.4375-.34375-.102571-.07315-.204318-.153364-.3125-.21875-.0074-.0045-.02384.0044-.03125 0-.232039-.138728-.462548-.274778-.71875-.375.301527.0968.596455.204138.875.34375.55709.279224 1.060053.665694 1.5 1.09375.219973.214028.409366.441865.59375.6875s.355408.507743.5.78125c.14012.265048.276135.524729.375.8125.01041.03078.02133.06274.03125.09375.09046.278085.1388.579404.1875.875.0524.31805.09375.634029.09375.96875v2 68 2c0 3.324-2.676 6-6 6z" fill="url(#e)" opacity=".2"/><rect height="66" rx="12" style="opacity:.1;stroke:#fefefe;stroke-width:.5;stroke-linecap:round;clip-path:url(#f);fill:url(#d);filter:url(#c)" width="66" x="15" y="15"/><path d="m25.5 10.9375c-1.218459.186771-2.036323 1.143888-2.34375 2.0625-.296393.885644-.292058 1.750633-.21875 2.5.000055.03124-.000053.06251 0 .09375.02037 11.901245-.04158 23.810098.03125 35.71875a1.0335694 1.0335694 0 0 0 0 .125c.135571 1.216642 1.042032 1.995625 2.03125 2.34375-.502465.519933-1.035987 1.006588-1.53125 1.53125a1.0335694 1.0335694 0 0 0 -.25.4375c-.641283 2.168172-.159887 4.273366-.28125 5.96875a1.0335694 1.0335694 0 0 0 0 .0625c.02112 7.496045-.04219 14.990091.03125 22.5a1.0335694 1.0335694 0 0 0 0 .09375c.265735 2.514429 3.438772 3.404848 5.1875 1.78125l.03125.03125c16.581042-11.629663 33.225064-23.205418 49.78125-34.875a1.0335694 1.0335694 0 0 0 .09375-.09375c.920555-.840985 1.127776-2.089151.8125-3.09375-.288711-.919951-.97749-1.684124-1.875-2.125-.0055-.0027.0055-.0286 0-.03125-16.512529-11.534842-32.99315-23.124277-49.53125-34.625a1.0335694 1.0335694 0 0 0 -.09375-.0625c-.612002-.329888-1.263111-.371812-1.78125-.34375a1.0335694 1.0335694 0 0 0 -.09375 0zm7.53125 16.53125 7 4.90625c-2.487673-.763861-5.106514.01995-7 1.75zm23.78125 16.65625 6.9375 4.875-6.5625 4.59375c1.345725-1.441119 1.956876-3.386634 1.78125-5.25-.153377-1.627307-.965264-3.089811-2.15625-4.21875zm-15.84375.78125 5.78125 4.125-5.71875 4.0625c.0064-2.704465.07834-5.422144-.0625-8.1875zm-7.9375 18.84375c1.719914 1.77511 4.223951 2.741217 6.75 2.03125l-6.75 4.75z" opacity=".05"/><path d="m25.65625 11.96875c-1.699374.260488-1.83079 2.161975-1.6875 3.52894.02087 11.937235-.04172 23.882733.03125 35.81481.209321 1.878492 2.869365 2.270696 3.826349.736151l10.392401-10.392401c3.4375 2.458333 6.875 4.916667 10.3125 7.375-2.833333 2.020833-5.666667 4.041667-8.5 6.0625-.06462-3.558926.127963-7.145392-.09375-10.6875-.443475-1.694968-2.863407-1.865798-3.763341-.454395-3.964647 4.039024-8.088412 7.982857-11.955409 12.079395-.540549 1.827592-.113927 3.833796-.25 5.734678.02114 7.503788-.04207 15.017959.03125 22.515322.181251 1.715026 2.488492 2.27742 3.606758 1.059645 16.583278-11.631231 33.215596-23.205058 49.768242-34.872145 1.24318-1.135723.449488-3.086677-.969662-3.650498-16.514296-11.536076-32.995205-23.132092-49.530338-34.630752-.381225-.205492-.795644-.241665-1.21875-.21875zm6.34375 13.53125c11.1875 7.833333 22.375 15.666667 33.5625 23.5-11.1875 7.833333-22.375 15.666667-33.5625 23.5 0-4.333333 0-8.666667 0-13 .255659 3.632338 4.136119 6.384708 7.65625 5.28125 2.605507-1.096791 4.690359-3.142203 7.060452-4.672052 3.152423-2.305711 6.551592-4.595226 9.533298-6.890448 2.650057-2.402177 2.116042-7.294451-.78125-9.0625-4.803701-3.431175-9.593887-6.914659-14.40625-10.3125-2.747429-1.743414-6.322867-.633007-8.219813 1.813563-1.17809 1.713694-.794659-.342456-.842687-1.356972 0-2.933447 0-5.866894 0-8.800341z" opacity=".1"/><path d="m25.90625 13.0625a.93394522.93394522 0 0 0 -.84375.9375v37a.93394522.93394522 0 0 0 1.59375.65625l11.4375-11.4375 12.3125 8.78125-11.46875 8.1875v-12.1875a.93394522.93394522 0 0 0 -1.59375-.65625l-12 12a.93394522.93394522 0 0 0 -.28125.65625v27a.93394522.93394522 0 0 0 1.46875.75l50-35a.93394522.93394522 0 0 0 0-1.5l-50-35a.93394522.93394522 0 0 0 -.625-.1875zm5 10.34375 36.5625 25.59375-36.5625 25.59375v-15.5625l2.1875-2.1875v2.15625c-.000185.06934-.0046.274559 0 .34375.0046.06919.05318.243787.0625.3125.0093.06871.01723.275839.03125.34375.01402.06791.0751.245713.09375.3125.01865.06679.07056.278401.09375.34375.02319.06535.09737.248899.125.3125.02763.0636.124319.219697.15625.28125.03193.06155.120166.253286.15625.3125.03608.05921.147434.224654.1875.28125.04007.0566.143641.19629.1875.25.04386.05371.202555.19943.25.25.04745.05057.167943.202808.21875.25.05081.04719.196072.17516.25.21875.05393.04359.224455.178967.28125.21875.0568.03978.221856.120462.28125.15625.05939.03579.219538.155877.28125.1875.06171.03162.248762.09769.3125.125.06374.02731.247036.102133.3125.125.06546.02287.24562.07543.3125.09375s.27577.08007.34375.09375.243741.05352.3125.0625c.06876.009.274537.02702.34375.03125.06921.0042.27441.000532.34375 0s.27461-.02596.34375-.03125c.06914-.0053.243887-.02122.3125-.03125.06861-.01003.275988-.04778.34375-.0625.06776-.01472.245909-.04316.3125-.0625.06659-.01934.278645-.101132.34375-.125.06511-.02387.249188-.09672.3125-.125.06331-.02828.22003-.09243.28125-.125s.253662-.150806.3125-.1875c.05431-.03387.183981-.140862.25-.1875h.03125l13.96875-10c.04863-.03485.203521-.118579.25-.15625.04648-.03767.174586-.14714.21875-.1875.04416-.04036.145806-.175843.1875-.21875.04169-.04291.179673-.173447.21875-.21875.03908-.0453.151177-.17121.1875-.21875.03632-.04754.122809-.169141.15625-.21875.03344-.04961.125809-.198496.15625-.25.03044-.0515.09766-.196782.125-.25.02734-.05322.100868-.226505.125-.28125.02413-.05474.104155-.193921.125-.25.02085-.05608.07627-.224034.09375-.28125.01748-.05722.04844-.223098.0625-.28125.01406-.05815.05191-.222367.0625-.28125.01059-.05888.05542-.221843.0625-.28125.0071-.05941.0277-.252777.03125-.3125.0035-.05972 0-.221422 0-.28125 0-.05983.0035-.221527 0-.28125-.0035-.05972-.02417-.253093-.03125-.3125-.0071-.05941-.05191-.222367-.0625-.28125-.01059-.05888-.04844-.223098-.0625-.28125-.01406-.05815-.04502-.224034-.0625-.28125-.01748-.05722-.0729-.225171-.09375-.28125-.02085-.05608-.100868-.195255-.125-.25-.02413-.05474-.09766-.228032-.125-.28125-.02734-.05322-.09456-.198496-.125-.25-.03044-.0515-.122809-.200391-.15625-.25-.03344-.04961-.119927-.17121-.15625-.21875-.03632-.04754-.148423-.173447-.1875-.21875-.03908-.0453-.177056-.175843-.21875-.21875-.04169-.04291-.143336-.17839-.1875-.21875-.04416-.04036-.172271-.149829-.21875-.1875-.04648-.03767-.20137-.1214-.25-.15625l-13.96875-10c-.0042-.003-.02621.0036-.03125 0-.0823-.05823-.271717-.206915-.34375-.25-.07644-.04572-.294822-.148697-.375-.1875-.08018-.0388-.322963-.155919-.40625-.1875-.08329-.03158-.320502-.100887-.40625-.125-.08575-.02411-.31871-.07729-.40625-.09375s-.348849-.05383-.4375-.0625c-.08865-.0087-.34843-.03043-.4375-.03125s-.348705-.007-.4375 0c-.08879.007-.318421.04766-.40625.0625-.08783.01484-.351323.07122-.4375.09375-.08618.02253-.322395.09496-.40625.125-.08385.03004-.325372.118929-.40625.15625-.08088.03732-.297728.174442-.375.21875-.07727.04431-.301937.1678-.375.21875-.07306.05095-.275465.224055-.34375.28125-.06829.0572-.249525.218255-.3125.28125l-3.625 3.625z" opacity=".15"/><path d="m26 14v37l12-12 14 10-14 10v-14l-12 12v27l50-35zm3.96875 7.625 39.09375 27.375-39.09375 27.375v-17.71875l4.0625-4.0625v4.40625a3.9599199 3.9599199 0 0 0 6.28125 3.21875l14-10a3.9599199 3.9599199 0 0 0 0-6.4375l-14-10a3.9599199 3.9599199 0 0 0 -5.125.40625l-5.21875 5.21875z" opacity=".3"/><path d="m26 13v37l12-12 14 10-14 10v-14l-12 12v27l50-35zm3.96875 7.625 39.09375 27.375-39.09375 27.375v-17.71875l4.0625-4.0625v4.40625a3.9599199 3.9599199 0 0 0 6.28125 3.21875l14-10a3.9599199 3.9599199 0 0 0 0-6.4375l-14-10a3.9599199 3.9599199 0 0 0 -5.125.40625l-5.21875 5.21875z" fill="url(#k)"/><path d="m-63 13v70l50-35z" fill="#f00"/><path d="m-51 38-14 14v6l14-14v14l14-10z" fill="#500"/><path d="m26 13v1l49.28125 34.5.71875-.5zm11.6875 21.03125a3.9599199 3.9599199 0 0 0 -2.5 1.15625l-5.21875 5.21875v1l5.21875-5.21875a3.9599199 3.9599199 0 0 1 5.125-.40625l14 10a3.9599199 3.9599199 0 0 1 1.625 2.8125 3.9599199 3.9599199 0 0 0 -1.625-3.8125l-14-10a3.9599199 3.9599199 0 0 0 -2.625-.75zm.3125 9.96875-12 12v1l12-12zm13.3125 4.5-13.3125 9.5v1l14-10zm17.03125 0-38.375 26.875v1l39.09375-27.375z" fill="#fefefe" opacity=".3"/></svg>