<svg height="96" width="96" xmlns="http://www.w3.org/2000/svg" xmlns:xlink="http://www.w3.org/1999/xlink"><linearGradient id="a"><stop offset="0" stop-color="#c9d4dc"/><stop offset="1" stop-color="#f0ffff"/></linearGradient><linearGradient id="b"><stop offset="0" stop-color="#f3f8ff"/><stop offset="1" stop-color="#2e3436" stop-opacity="0"/></linearGradient><linearGradient id="c"><stop offset="0" stop-color="#fefefe"/><stop offset="1" stop-color="#fefefe" stop-opacity="0"/></linearGradient><linearGradient id="d" gradientUnits="userSpaceOnUse" x1="36.357143" x2="36.357143" xlink:href="#c" y1="6" y2="63.893143"/><filter id="e" color-interpolation-filters="sRGB" height="1.384" width="1.384" x="-.192" y="-.192"><feGaussianBlur stdDeviation="5.28"/></filter><linearGradient id="f" gradientUnits="userSpaceOnUse" x1="48" x2="48" xlink:href="#c" y1="20.220806" y2="138.66119"/><radialGradient id="g" cx="48" cy="90.171875" gradientTransform="matrix(1.1573129 0 0 .99590774 -7.551021 .197132)" gradientUnits="userSpaceOnUse" r="42" xlink:href="#c"/><clipPath id="h"><rect height="84" rx="6" width="84" x="6" y="6"/></clipPath><linearGradient id="i" gradientUnits="userSpaceOnUse" x1="48" x2="48" y1="90" y2="5.987717"><stop offset="0" stop-color="#0072c6"/><stop offset="1" stop-color="#4290f9"/></linearGradient><linearGradient id="j" gradientTransform="matrix(1.0058652 0 0 .994169 100 0)" gradientUnits="userSpaceOnUse" x1="45.447727" x2="45.447727" y1="92.539597" y2="7.01654"><stop offset="0"/><stop offset="1" stop-opacity=".588235"/></linearGradient><linearGradient id="k" gradientTransform="matrix(1.0238095 0 0 1.0119048 -1.142857 -98.071429)" gradientUnits="userSpaceOnUse" x1="32.251034" x2="32.251034" xlink:href="#j" y1="6.131708" y2="90.238609"/><linearGradient id="l" gradientTransform="translate(0 -97)" gradientUnits="userSpaceOnUse" x1="32.251034" x2="32.251034" xlink:href="#j" y1="6.131708" y2="90.238609"/><linearGradient id="m" gradientTransform="matrix(-1 0 0 -1 95.949196 95.85964)" gradientUnits="userSpaceOnUse" x1="36.357143" x2="36.357143" xlink:href="#c" y1="6" y2="63.893143"/><linearGradient id="n"><stop offset="0" stop-color="#2d2d2d"/><stop offset="1" stop-color="#fff"/></linearGradient><radialGradient id="o" cx="23.801941" cy="33.735012" gradientTransform="matrix(.551865 -.07423106 .05764729 .428573 10.8571 24.32541)" gradientUnits="userSpaceOnUse" r="12.990843"><stop offset="0" stop-color="#7b838a"/><stop offset="1" stop-color="#7b838a" stop-opacity="0"/></radialGradient><linearGradient id="p" gradientUnits="userSpaceOnUse" x1="22.625" x2="23.625" xlink:href="#n" y1="15.6875" y2="42.721909"/><linearGradient id="q" gradientUnits="userSpaceOnUse" x1="35.222755" x2="35.222755" xlink:href="#n" y1="1.51406" y2="14.403073"/><linearGradient id="r" gradientUnits="userSpaceOnUse" x1="23.113552" x2="23.113552" xlink:href="#n" y1="3.292501" y2="12.78336"/><linearGradient id="s" gradientUnits="userSpaceOnUse" x1="15.202796" x2="15.202796" xlink:href="#n" y1="6.215852" y2="14.586771"/><linearGradient id="t" gradientUnits="userSpaceOnUse" x1="8.352699" x2="8.352699" xlink:href="#n" y1="11.509477" y2="19.071247"/><radialGradient id="u" cx="19.450382" cy="21.81378" gradientTransform="matrix(1.987042 -.338101 .124071 .729175 -21.555181 15.839709)" gradientUnits="userSpaceOnUse" r="17.994564" xlink:href="#a"/><radialGradient id="v" cx="18.107206" cy="8.082788" gradientTransform="matrix(2.140448 -.00000145 0 .93766 -21.832521 4.715689)" gradientUnits="userSpaceOnUse" r="17.994564" xlink:href="#a"/><radialGradient id="w" cx="14.95366" cy="13.681828" gradientTransform="matrix(2.140448 -.00000145 0 .93766 -21.832521 4.715689)" gradientUnits="userSpaceOnUse" r="17.994564" xlink:href="#a"/><radialGradient id="x" cx="21.494347" cy="4.350097" gradientTransform="matrix(2.140448 -.00000145 0 .93766 -21.832521 4.715689)" gradientUnits="userSpaceOnUse" r="17.994564" xlink:href="#a"/><radialGradient id="y" cx="25.640675" cy="3.68355" gradientTransform="matrix(2.140448 -.00000145 0 .93766 -21.832521 4.715689)" gradientUnits="userSpaceOnUse" r="17.994564" xlink:href="#a"/><linearGradient id="z" gradientUnits="userSpaceOnUse" x1="23.936737" x2="21.678997" xlink:href="#b" y1="18.389484" y2="41.193676"/><linearGradient id="A" gradientUnits="userSpaceOnUse" x1="33.305901" x2="33.305901" xlink:href="#b" y1="3.717019" y2="12.644369"/><linearGradient id="B" gradientUnits="userSpaceOnUse" x1="33.129124" x2="33.129124" xlink:href="#b" y1="12.426562" y2="15.742812"/><g fill="url(#k)"><path d="m12-95.03125c-5.5110903 0-10.03125 4.52016-10.03125 10.03125v71c0 5.5110902 4.5201598 10.03125 10.03125 10.03125h72c5.51109 0 10.03125-4.5201597 10.03125-10.03125v-71c0-5.51109-4.52016-10.03125-10.03125-10.03125z" opacity=".08" transform="scale(1 -1)"/><path d="m12-94.03125c-4.971633 0-9.03125 4.059617-9.03125 9.03125v71c0 4.9716329 4.0596171 9.03125 9.03125 9.03125h72c4.971633 0 9.03125-4.059617 9.03125-9.03125v-71c0-4.971633-4.059617-9.03125-9.03125-9.03125z" opacity=".1" transform="scale(1 -1)"/><path d="m12-93c-4.4091333 0-8 3.590867-8 8v71c0 4.4091333 3.5908667 8 8 8h72c4.409133 0 8-3.5908667 8-8v-71c0-4.409133-3.590867-8-8-8z" opacity=".2" transform="scale(1 -1)"/><rect height="85" opacity=".3" rx="7" transform="scale(1 -1)" width="86" x="5" y="-92"/></g><rect fill="url(#l)" height="84" opacity=".45" rx="6" transform="scale(1 -1)" width="84" x="6" y="-91"/><rect fill="url(#i)" height="84" rx="6" width="84" x="6" y="6"/><path d="m12 6c-3.324 0-6 2.676-6 6v2 68 2c0 .334721.04135.6507.09375.96875.0487.295596.09704.596915.1875.875.00988.03038.020892.0636.03125.09375.098865.287771.2348802.547452.375.8125.1445918.273507.3156161.535615.5.78125s.3737765.473472.59375.6875c.439947.428056.94291.814526 1.5 1.09375.278545.139612.5734731.246947.875.34375-.2562018-.100222-.4867109-.236272-.71875-.375-.00741-.0044-.023866.0045-.03125 0-.031933-.0193-.062293-.04251-.09375-.0625-.120395-.0767-.2310226-.163513-.34375-.25-.1061728-.0808-.2132809-.161112-.3125-.25-.1779299-.161433-.3474596-.345388-.5-.53125-.1075789-.130255-.2183939-.265285-.3125-.40625-.025089-.03838-.038446-.08587-.0625-.125-.064763-.103032-.1302275-.204517-.1875-.3125-.1010083-.194706-.2056748-.415701-.28125-.625-.00796-.02181-.023589-.04055-.03125-.0625-.0318251-.09195-.0358045-.186831-.0625-.28125-.0303323-.106618-.0703894-.203031-.09375-.3125-.0728786-.341512-.125-.698205-.125-1.0625v-2-68-2c0-2.781848 2.2181517-5 5-5h2 68 2c2.781848 0 5 2.218152 5 5v2 68 2c0 .364295-.05212.720988-.125 1.0625-.04415.206893-.08838.397658-.15625.59375-.0077.02195-.0233.04069-.03125.0625-.06274.173739-.138383.367449-.21875.53125-.04158.0828-.07904.169954-.125.25-.0546.09721-.126774.18835-.1875.28125-.09411.140965-.204921.275995-.3125.40625-.143174.17445-.303141.346998-.46875.5-.01117.0102-.01998.02115-.03125.03125-.138386.125556-.285091.234436-.4375.34375-.102571.07315-.204318.153364-.3125.21875-.0074.0045-.02384-.0044-.03125 0-.232039.138728-.462548.274778-.71875.375.301527-.0968.596455-.204138.875-.34375.55709-.279224 1.060053-.665694 1.5-1.09375.219973-.214028.409366-.441865.59375-.6875s.355408-.507743.5-.78125c.14012-.265048.276135-.524729.375-.8125.01041-.03078.02133-.06274.03125-.09375.09046-.278085.1388-.579404.1875-.875.0524-.31805.09375-.634029.09375-.96875v-2-68-2c0-3.324-2.676-6-6-6z" fill="url(#d)" opacity=".435897"/><path d="m12 90c-3.324 0-6-2.676-6-6v-2-68-2c0-.334721.04135-.6507.09375-.96875.0487-.295596.09704-.596915.1875-.875.00988-.03038.020892-.0636.03125-.09375.098865-.287771.2348802-.547452.375-.8125.1445918-.273507.3156161-.535615.5-.78125s.3737765-.473472.59375-.6875c.439947-.428056.94291-.814526 1.5-1.09375.278545-.139612.5734731-.246947.875-.34375-.2562018.100222-.4867109.236272-.71875.375-.00741.0044-.023866-.0045-.03125 0-.031933.0193-.062293.04251-.09375.0625-.120395.0767-.2310226.163513-.34375.25-.1061728.0808-.2132809.161112-.3125.25-.1779299.161433-.3474596.345388-.5.53125-.1075789.130255-.2183939.265285-.3125.40625-.025089.03838-.038446.08587-.0625.125-.064763.103032-.1302275.204517-.1875.3125-.1010083.194706-.2056748.415701-.28125.625-.00796.02181-.023589.04055-.03125.0625-.0318251.09195-.0358045.186831-.0625.28125-.0303323.106618-.0703894.203031-.09375.3125-.0728786.341512-.125.698205-.125 1.0625v2 68 2c0 2.781848 2.2181517 5 5 5h2 68 2c2.781848 0 5-2.218152 5-5v-2-68-2c0-.364295-.05212-.720988-.125-1.0625-.04415-.206893-.08838-.397658-.15625-.59375-.0077-.02195-.0233-.04069-.03125-.0625-.06274-.173739-.138383-.367449-.21875-.53125-.04158-.0828-.07904-.169954-.125-.25-.0546-.09721-.126774-.18835-.1875-.28125-.09411-.140965-.204921-.275995-.3125-.40625-.143174-.17445-.303141-.346998-.46875-.5-.01117-.0102-.01998-.02115-.03125-.03125-.138386-.125556-.285091-.234436-.4375-.34375-.102571-.07315-.204318-.153364-.3125-.21875-.0074-.0045-.02384.0044-.03125 0-.232039-.138728-.462548-.274778-.71875-.375.301527.0968.596455.204138.875.34375.55709.279224 1.060053.665694 1.5 1.09375.219973.214028.409366.441865.59375.6875s.355408.507743.5.78125c.14012.265048.276135.524729.375.8125.01041.03078.02133.06274.03125.09375.09046.278085.1388.579404.1875.875.0524.31805.09375.634029.09375.96875v2 68 2c0 3.324-2.676 6-6 6z" fill="url(#g)" opacity=".2"/><g fill="none" opacity=".5" transform="matrix(1.3852022 0 0 1.3852022 14.49712487281 16.46412507281)"><path d="m37.84375.54882812c-4.906083 0-7.913346 3.64281208-8.902344 7.19531248-.494499 1.7762502-.540876 3.5576814-.05078 5.0253904.490095 1.46771 1.729045 2.681641 3.390625 2.681641 1.661459 0 3.295515-.957447 4.837891-2.253906 1.542375-1.29646 2.970916-2.98779 3.972656-4.7226566 1.00174-1.7348671 1.644708-3.5166892 1.259765-5.1601563-.192472-.8217335-.710843-1.5869609-1.496094-2.0664062-.785251-.47944537-1.785158-.69921877-3.011719-.69921878z" opacity="1" stroke="url(#q)" stroke-linejoin="round"/><path d="m27.501953 15.529297c-3.680005-.06067-7.836063.79396-11.388672 2.585937-3.549362 1.79034-6.5040153 4.57433-7.3769529 8.382813-.9636585 4.205201.9598441 8.838889 4.2265629 12.527344 3.258685 3.679384 7.900081 6.445312 12.849609 6.445312 2.570406 0 5.098005-1.126586 7.208984-2.839844 2.11098-1.713257 3.837751-4.076138 4.38086-6.880859.100703-.519236-.0047-1.425986-.265625-1.871094-.414813-.70761-.898167-.915958-1.316407-1.107422-1.144941-.524135-2.210706-.54284-3.478515-.419922-1.219836.118268-2.383035.390595-3.417969.9375-.560226.296049-.920149.576609-1.263672.998047-.06516.07994-.104421.124508-.177734.230469-.03666.05298-.07968.09428-.183594.324219-.103914.229934-.158226 1.076002-.158203 1.076172.156008 1.160732-.274973 1.86629-.818359 2.15625-.574304.306457-1.479181.297783-2.554688-.5-.955107-.708446-1.344279-1.27549-1.464844-1.703125-.09484-.33638-.0083-.756449.292969-1.197266.729946-1.068153 2.513358-2.231645 4.701172-3.548828 2.169424-1.306111 4.566015-2.697452 6.429687-4.380859.912768-.824479 1.700767-1.688571 2.244141-2.744141.543375-1.05557.780344-2.336136.564453-3.585938-.283022-1.638406-1.582884-2.953255-3.166015-3.697265-1.617983-.760389-3.636491-1.150724-5.867188-1.1875z" opacity="1" stroke="url(#p)"/><g stroke-linejoin="round"><path d="m23.574219 2.5976562c-1.51491.1842466-2.662624 1.0212925-3.289063 2.0996094-.626439 1.078317-.79583 2.3431573-.708984 3.5566406.08685 1.2134834.432046 2.3886468.986328 3.3398438s1.368684 1.778482 2.509766 1.84375c1.245722.07128 2.111668-.838537 2.767578-1.849609s1.142593-2.2818994 1.382812-3.572266.259625-2.6059975-.273437-3.7246094c-.533063-1.1186118-1.83057-1.8811285-3.375-1.6933594z" opacity="1" stroke="url(#r)"/><path d="m8.8457031 10.962891c-.6110673-.02139-1.2037865.212395-1.7265625.58789a.97583383.97583383 0 0 0 -.00195 0c-1.0442823.750537-1.5450896 1.89268-1.5703125 2.978516-.025223 1.085836.3414284 2.126878.8671875 3.035156s1.213049 1.688503 1.9824219 2.230469c.7693728.541966 1.7339036.938947 2.6972656.498047.938304-.429618 1.204012-1.35871 1.318359-2.238281.114348-.879572.04587-1.864934-.158203-2.837891-.2040711-.972957-.5410621-1.925385-1.0585971-2.716797-.517534-.791412-1.3001334-1.500372-2.3496089-1.537109z" opacity="1" stroke="url(#t)"/><path d="m15.949219 5.609375c-.618454-.1493425-1.272674-.05249-1.904297.1972656-1.269521.5020115-2.080677 1.5228213-2.361328 2.6171875-.280651 1.0943663-.119372 2.2306249.242187 3.2617189.36156 1.031094.929206 1.966858 1.628907 2.673828.6997.70697 1.602701 1.280117 2.664062 1.072266 1.025992-.20045 1.56126-1.060578 1.890625-1.921875.329365-.861298.483171-1.869914.486328-2.896485.003157-1.0265701-.143346-2.0647614-.523437-2.9765622-.380092-.9118009-1.065577-1.7719886-2.123047-2.0273438z" opacity="1" stroke="url(#s)"/></g></g><g transform="matrix(1.3852022 0 0 1.3852022 10.97241 11.554208)"><g stroke="#aab8c5"><path d="m40.380836 5.0445496c-8.885099 0-10.551823 13.0000024-5.553458 13.0000024 4.997643 0 14.438919-13.0000024 5.553458-13.0000024z" fill="url(#y)"/><path d="m25.66308 16.042756c2.679773.153342 5.619921-9.582826.583302-8.9704828-5.0348.6123432-3.264165 8.8171418-.583302 8.9704828z" fill="url(#x)"/><path d="m13.218438 22.953494c1.905915-.872654.245468-9.408186-2.995424-7.080348-3.2394367 2.328216 1.089509 7.952625 2.995424 7.080348z" fill="url(#w)"/><path d="m18.588528 18.023182c2.268841-.443268 2.393212-9.3615811-1.652812-7.761707-4.04675 1.600222-.614213 8.20567 1.652812 7.761707z" fill="url(#v)"/><path d="m30.632723 39.331951c.406855 3.027068-2.279419 4.521983-4.910198 2.570539-8.374904-6.212043 13.866533-9.310724 12.400456-17.797902-1.216891-7.04454-23.402831-4.875749-25.92923 6.146517-1.710116 7.455597 7.039299 17.798617 16.16874 17.798617 4.491216 0 9.671549-3.950871 10.640724-8.955884.740207-3.816595-8.710089-2.287308-8.370492.238113z" fill="url(#u)"/></g><path d="m27.490234 17.044922c-3.416215-.05632-7.414058.764767-10.707031 2.425781s-5.853619 4.131549-6.595703 7.369141c-.7974855 3.476797.862903 7.784521 3.890625 11.203125 3.027722 3.418603 7.375481 5.910156 11.734375 5.910156 4.172531 0 9.211007-3.794271 10.121094-8.494141.07249-.373744.01891-.611708-.09766-.810546-.116562-.198839-.323113-.377027-.638672-.521485-.631119-.288916-1.661966-.390954-2.712891-.289062-1.050925.101891-2.126147.398495-2.865234.789062-.369544.195283-.651101.414206-.808594.607422-.157494.193216-.195455.328303-.175781.474609.226098 1.682213-.431725 3.079014-1.597657 3.701172-1.165931.622159-2.735797.44119-4.175781-.626953-1.101983-.81739-1.765925-1.625345-2.009766-2.490234-.24384-.864889-.0063-1.727753.496094-2.462891 1.004746-1.470277 2.997857-2.684486 5.169922-3.992187s4.530269-2.675445 6.212891-4.195313c1.682621-1.519868 2.652324-3.098217 2.326172-4.986328-.191814-1.110407-.995587-1.966708-2.333985-2.595703-1.338398-.628996-3.182676-.981832-5.232422-1.015625z" fill="url(#o)" opacity=".7" transform="translate(2.544549 3.544549)"/><g fill="none" opacity=".3" stroke="#2e3436"><path d="m27.482422 17.515625c-3.33604-.055-7.27351.752463-10.486328 2.373047-3.212818 1.620583-5.648294 3.996914-6.34961 7.05664-.7479834 3.260985.82764 7.449981 3.783204 10.78711 2.955563 3.337129 7.200889 5.751953 11.382812 5.751953 3.898524 0 8.800874-3.67773 9.660156-8.115234.05526-.284901.01496-.386935-.04102-.482422-.05598-.09549-.17684-.216282-.429688-.332031-.505696-.2315-1.476275-.346604-2.472656-.25-.996381.0966-2.027964.387688-2.691406.738281-.331722.175296-.564254.365834-.664063.488281-.09981.122447-.07431.114555-.07422.115234.245592 1.827245-.488977 3.457803-1.841797 4.179688-1.352819.721884-3.128669.481592-4.675781-.666016-1.149376-.852543-1.898659-1.729585-2.183593-2.740234-.284935-1.010649.0087-2.04503.5625-2.855469 1.107662-1.620877 3.137038-2.817984 5.314453-4.128906s4.514778-2.67204 6.140625-4.140625c1.625846-1.468585 2.469179-2.873358 2.177734-4.560547-.160558-.929466-.819252-1.660097-2.070312-2.248047-1.251061-.58795-3.039361-.937703-5.041016-.970703z" opacity="1" stroke="url(#z)" transform="translate(2.544549 3.544549)"/><path d="m37.84375 2.515625c-3.947445 0-6.194933 2.8289635-7.009766 5.7558594-.407416 1.4634479-.396293 2.9221666-.07813 3.8749996.318168.952834.715849 1.337891 1.525391 1.337891.809298 0 2.22304-.657221 3.574219-1.792969 1.351178-1.135747 2.662662-2.6915688 3.533203-4.1992185.870546-1.5076497 1.22804-2.9634107 1.048833-3.7285156-.089604-.3825525-.240154-.6148427-.605469-.8378907-.365315-.2230479-1.00137-.4101562-1.988281-.4101562z" opacity="1" stroke="url(#A)" transform="translate(2.544549 3.544549)"/><path d="m23.810547 4.5429688c-.980763.1192824-1.471028.520623-1.830078 1.1386718-.359051.6180489-.517093 1.5124936-.451172 2.4335938.06592.9211002.353805 1.8558543.724609 2.4921876.370805.636333.77027.865881.929688.875.04534.0026.533042-.218104 1.013672-.958984.480629-.7408813.908467-1.8299531 1.101562-2.867188s.123277-2.0168793-.117187-2.5214844c-.240465-.5046051-.421408-.707258-1.371094-.5917968z" opacity="1" stroke="url(#A)" transform="translate(2.544549 3.544549)"/><path d="m8.7773438 12.923828c-.089821-.0031-.2274958.01515-.5136719.220703-.5729038.411752-.7421477.839403-.7558594 1.429688-.013712.590284.2133128 1.333715.6035156 2.007812.3902029.674097.9396207 1.273791 1.4160157 1.609375.4763952.335585.7656632.311191.7500002.31836-.110099.05041.1144-.129722.189453-.707032.07505-.577309.03226-1.394632-.132813-2.18164-.165067-.787009-.4567868-1.550708-.7812496-2.046875-.3244629-.496168-.5980976-.644185-.7753906-.650391z" opacity="1" stroke="url(#B)" transform="translate(2.544549 3.544549)"/><path d="m15.488281 7.515625c-.140497-.033927-.342678-.036969-.722656.1132812-.754048.2981763-1.033324.7029068-1.181641 1.28125-.148316.5783433-.07578 1.3649778.191407 2.1269528.267191.761976.721955 1.488766 1.171875 1.94336.449919.454594.82396.541546.896484.527343-.03298.0064.222394-.139866.435547-.697265s.352943-1.381699.355469-2.203125c.0025-.821426-.133374-1.6465292-.371094-2.216797-.237721-.5702678-.504717-.8096384-.775391-.875z" opacity="1" stroke="url(#A)" transform="translate(2.544549 3.544549)"/></g></g><path d="m83.949197 89.85964c3.324 0 6.000001-2.676001 6.000001-6v-2-68-2c0-.334722-.04135-.6507-.09375-.96875-.0487-.295597-.09704-.596914-.1875-.875-.0099-.03038-.02089-.0636-.03125-.09375-.09886-.287771-.234881-.547452-.375-.8125-.144593-.273507-.315617-.535615-.5-.78125-.184384-.245635-.373777-.473472-.59375-.6875-.439948-.428056-.94291-.814526-1.5-1.09375-.278545-.139612-.573474-.246947-.875-.34375.256202.100222.48671.236272.71875.375.0074.0044.02387-.0045.03125 0 .03193.0193.06229.04251.09375.0625.120395.0767.231022.163513.34375.25.106172.0808.21328.161112.3125.25.17793.161433.347459.345388.5.53125.107579.130255.218394.265285.3125.40625.02509.03838.03845.08587.0625.125.06476.103032.130228.204517.1875.3125.101008.194706.205674.415701.28125.625.008.02181.02359.04055.03125.0625.03182.09195.0358.186831.0625.28125.03033.106618.07039.203031.09375.3125.07288.3415112.125.6982052.125 1.0625002v2 68 2c0 2.781847-2.218153 5-5.000001 5h-2-67.999994-2c-2.7818515 0-5.0000005-2.218153-5.0000005-5v-2-68-2c0-.364295.0521-.720989.125-1.0625002.0442-.206893.0884-.397658.15625-.59375.008-.02195.0233-.04069.0312-.0625.0627-.173739.138379-.367449.21875-.53125.0416-.0828.079-.169954.125-.25.0546-.09721.126769-.18835.1875-.28125.0941-.140965.20492-.275995.3125-.40625.143169-.17445.30314-.346998.46875-.5.0112-.0102.02-.02115.0312-.03125.13838-.125556.28509-.234436.4375-.34375.10257-.07315.204311-.153364.3125-.21875.007-.0045.0238.0044.0312 0 .23203-.138728.462541-.274778.7187505-.375-.3015305.0968-.5964595.204138-.8750005.34375-.55709.279224-1.060059.665694-1.5 1.09375-.21998.214028-.409369.441865-.59375.6875-.184389.245635-.35541.507743-.5.78125-.140119.265048-.27614.524729-.375.8125-.0104.03078-.0213.06274-.0312.09375-.0905.278085-.1388.579403-.1875.875-.0524.31805-.0937.634028-.0937.96875v2 68 2c0 3.323999 2.676 6 6.0000005 6z" fill="url(#m)" opacity=".084"/><rect height="66" rx="12" style="opacity:.1;stroke:#fefefe;stroke-width:.5;stroke-linecap:round;clip-path:url(#h);fill:url(#f);filter:url(#e)" width="66" x="15" y="15"/></svg>