<svg height="96" width="96" xmlns="http://www.w3.org/2000/svg" xmlns:xlink="http://www.w3.org/1999/xlink"><linearGradient id="a"><stop offset="0" stop-color="#fefefe"/><stop offset="1" stop-color="#fefefe" stop-opacity="0"/></linearGradient><linearGradient id="b" gradientUnits="userSpaceOnUse" x1="36.357143" x2="36.357143" xlink:href="#a" y1="6" y2="63.893143"/><filter id="c" color-interpolation-filters="sRGB" height="1.384" width="1.384" x="-.192" y="-.192"><feGaussianBlur stdDeviation="5.28"/></filter><radialGradient id="d" cx="48" cy="90.171875" gradientTransform="matrix(1.1573129 0 0 .99590774 -7.551021 .197132)" gradientUnits="userSpaceOnUse" r="42" xlink:href="#a"/><clipPath id="e"><rect height="84" rx="6" width="84" x="6" y="6"/></clipPath><linearGradient id="f" gradientUnits="userSpaceOnUse" x1="47.7241392" x2="47.7241392" y1="90.448278" y2="4.98750562388"><stop offset="0" stop-color="#a67150"/><stop offset="1" stop-color="#d1a57e"/></linearGradient><linearGradient id="g" gradientTransform="matrix(1.0058652 0 0 .994169 100 0)" gradientUnits="userSpaceOnUse" x1="45.447727" x2="45.447727" y1="92.539597" y2="7.01654"><stop offset="0"/><stop offset="1" stop-opacity=".588235"/></linearGradient><linearGradient id="h" gradientTransform="matrix(1.0238095 0 0 1.0119048 -1.142857 -98.071429)" gradientUnits="userSpaceOnUse" x1="32.251034" x2="32.251034" xlink:href="#g" y1="6.131708" y2="90.238609"/><linearGradient id="i" gradientTransform="translate(0 -97)" gradientUnits="userSpaceOnUse" x1="32.251034" x2="32.251034" xlink:href="#g" y1="6.131708" y2="90.238609"/><linearGradient id="j" gradientUnits="userSpaceOnUse" x1="48" x2="48" xlink:href="#a" y1="20.220806" y2="138.66119"/><linearGradient id="k"><stop offset="0"/><stop offset="1" stop-opacity="0"/></linearGradient><radialGradient id="l" cx="63.937504" cy="95.865532" gradientTransform="matrix(.1433207 -.1433132 .8374475 .8374024 38.231607 -15.647539)" gradientUnits="userSpaceOnUse" r="20.6875"><stop offset="0" stop-color="#d0d0d0"/><stop offset="1" stop-color="#a1a1a1"/></radialGradient><linearGradient id="m" gradientUnits="userSpaceOnUse" x1="40.113346" x2="40.113346" y1="2.60251" y2="75.039833"><stop offset="0" stop-color="#5496b4" stop-opacity=".198473"/><stop offset="1" stop-color="#dfecf2" stop-opacity="0"/></linearGradient><linearGradient id="n" gradientUnits="userSpaceOnUse" x1="12.75" x2="63.25" y1="11.75" y2="64"><stop offset="0" stop-color="#404040"/><stop offset=".5" stop-color="#b7b7b7"/><stop offset="1" stop-color="#404040"/></linearGradient><filter id="o" color-interpolation-filters="sRGB"><feGaussianBlur stdDeviation="1.9857422"/></filter><linearGradient id="p" gradientUnits="userSpaceOnUse" x1="31.916745432" x2="25.22145284713" xlink:href="#a" y1="-3.91234565397" y2="48.4982105845"/><linearGradient id="q" gradientUnits="userSpaceOnUse" x1="124.34372" x2="10.007462" xlink:href="#a" y1="42.893944" y2="21.098124"/><radialGradient id="r" cx="31.357048" cy="22.817865" gradientTransform="matrix(1.0000002 .00000005 -.00000003 .7208464 -.000007 6.369689)" gradientUnits="userSpaceOnUse" r="7.357049" xlink:href="#a"/><linearGradient id="s" gradientTransform="matrix(.6875241 -.6874876 .6875241 .6874876 23.861388 39.569248)" gradientUnits="userSpaceOnUse" x1="53.797203" x2="61.486988" xlink:href="#k" y1="73.685364" y2="81.817085"/><linearGradient id="t" gradientUnits="userSpaceOnUse" x1="58.89583936" x2="43.28201705933" y1="170.39819678625" y2="170.39819678625"><stop offset="0"/><stop offset=".2" stop-color="#646464"/><stop offset=".30000001" stop-color="#c8c8c8"/><stop offset=".40000001" stop-color="#646464"/><stop offset="1"/></linearGradient><linearGradient id="u" gradientTransform="matrix(.6875241 -.6874876 .6875241 .6874876 23.861388 39.569248)" gradientUnits="userSpaceOnUse" x1="64.414215" x2="64.414215" xlink:href="#a" y1="87.40625" y2="75.81768"/><filter id="v" color-interpolation-filters="sRGB" height="1.333462" width="1.187459" x="-.09373" y="-.166731"><feGaussianBlur stdDeviation=".31930287"/></filter><linearGradient id="w" gradientTransform="matrix(.9207401 .39017645 -.39017645 .9207401 11.483175 -7.7523)" gradientUnits="userSpaceOnUse" x1="22.221363" x2="83.446823" xlink:href="#k" y1="14.907595" y2="78.167587"/><linearGradient id="x" gradientTransform="matrix(.98449154 .17543207 -.17543207 .98449154 3.99317 -1.212342)" gradientUnits="userSpaceOnUse" x1="22.221363" x2="83.446823" xlink:href="#k" y1="14.907595" y2="78.167587"/><g><g fill="url(#h)"><path d="m12-95.03125c-5.5110903 0-10.03125 4.52016-10.03125 10.03125v71c0 5.5110902 4.5201598 10.03125 10.03125 10.03125h72c5.51109 0 10.03125-4.5201597 10.03125-10.03125v-71c0-5.51109-4.52016-10.03125-10.03125-10.03125z" opacity=".08" transform="scale(1 -1)"/><path d="m12-94.03125c-4.971633 0-9.03125 4.059617-9.03125 9.03125v71c0 4.9716329 4.0596171 9.03125 9.03125 9.03125h72c4.971633 0 9.03125-4.059617 9.03125-9.03125v-71c0-4.971633-4.059617-9.03125-9.03125-9.03125z" opacity=".1" transform="scale(1 -1)"/><path d="m12-93c-4.4091333 0-8 3.590867-8 8v71c0 4.4091333 3.5908667 8 8 8h72c4.409133 0 8-3.5908667 8-8v-71c0-4.409133-3.590867-8-8-8z" opacity=".2" transform="scale(1 -1)"/><rect height="85" opacity=".3" rx="7" transform="scale(1 -1)" width="86" x="5" y="-92"/></g><rect fill="url(#i)" height="84" opacity=".45" rx="6" transform="scale(1 -1)" width="84" x="6" y="-91"/></g><rect fill="url(#f)" height="84" rx="6" width="84" x="6" y="6"/><path d="m12 90c-3.324 0-6-2.676-6-6v-2-68-2c0-.334721.04135-.6507.09375-.96875.0487-.295596.09704-.596915.1875-.875.00988-.03038.020892-.0636.03125-.09375.098865-.287771.2348802-.547452.375-.8125.1445918-.273507.3156161-.535615.5-.78125s.3737765-.473472.59375-.6875c.439947-.428056.94291-.814526 1.5-1.09375.278545-.139612.5734731-.246947.875-.34375-.2562018.100222-.4867109.236272-.71875.375-.00741.0044-.023866-.0045-.03125 0-.031933.0193-.062293.04251-.09375.0625-.120395.0767-.2310226.163513-.34375.25-.1061728.0808-.2132809.161112-.3125.25-.1779299.161433-.3474596.345388-.5.53125-.1075789.130255-.2183939.265285-.3125.40625-.025089.03838-.038446.08587-.0625.125-.064763.103032-.1302275.204517-.1875.3125-.1010083.194706-.2056748.415701-.28125.625-.00796.02181-.023589.04055-.03125.0625-.0318251.09195-.0358045.186831-.0625.28125-.0303323.106618-.0703894.203031-.09375.3125-.0728786.341512-.125.698205-.125 1.0625v2 68 2c0 2.781848 2.2181517 5 5 5h2 68 2c2.781848 0 5-2.218152 5-5v-2-68-2c0-.364295-.05212-.720988-.125-1.0625-.04415-.206893-.08838-.397658-.15625-.59375-.0077-.02195-.0233-.04069-.03125-.0625-.06274-.173739-.138383-.367449-.21875-.53125-.04158-.0828-.07904-.169954-.125-.25-.0546-.09721-.126774-.18835-.1875-.28125-.09411-.140965-.204921-.275995-.3125-.40625-.143174-.17445-.303141-.346998-.46875-.5-.01117-.0102-.01998-.02115-.03125-.03125-.138386-.125556-.285091-.234436-.4375-.34375-.102571-.07315-.204318-.153364-.3125-.21875-.0074-.0045-.02384.0044-.03125 0-.232039-.138728-.462548-.274778-.71875-.375.301527.0968.596455.204138.875.34375.55709.279224 1.060053.665694 1.5 1.09375.219973.214028.409366.441865.59375.6875s.355408.507743.5.78125c.14012.265048.276135.524729.375.8125.01041.03078.02133.06274.03125.09375.09046.278085.1388.579404.1875.875.0524.31805.09375.634029.09375.96875v2 68 2c0 3.324-2.676 6-6 6z" fill="url(#d)" opacity=".2"/><path d="m12 6c-3.324 0-6 2.676-6 6v2 68 2c0 .334721.04135.6507.09375.96875.0487.295596.09704.596915.1875.875.00988.03038.020892.0636.03125.09375.098865.287771.2348802.547452.375.8125.1445918.273507.3156161.535615.5.78125s.3737765.473472.59375.6875c.439947.428056.94291.814526 1.5 1.09375.278545.139612.5734731.246947.875.34375-.2562018-.100222-.4867109-.236272-.71875-.375-.00741-.0044-.023866.0045-.03125 0-.031933-.0193-.062293-.04251-.09375-.0625-.120395-.0767-.2310226-.163513-.34375-.25-.1061728-.0808-.2132809-.161112-.3125-.25-.1779299-.161433-.3474596-.345388-.5-.53125-.1075789-.130255-.2183939-.265285-.3125-.40625-.025089-.03838-.038446-.08587-.0625-.125-.064763-.103032-.1302275-.204517-.1875-.3125-.1010083-.194706-.2056748-.415701-.28125-.625-.00796-.02181-.023589-.04055-.03125-.0625-.0318251-.09195-.0358045-.186831-.0625-.28125-.0303323-.106618-.0703894-.203031-.09375-.3125-.0728786-.341512-.125-.698205-.125-1.0625v-2-68-2c0-2.781848 2.2181517-5 5-5h2 68 2c2.781848 0 5 2.218152 5 5v2 68 2c0 .364295-.05212.720988-.125 1.0625-.04415.206893-.08838.397658-.15625.59375-.0077.02195-.0233.04069-.03125.0625-.06274.173739-.138383.367449-.21875.53125-.04158.0828-.07904.169954-.125.25-.0546.09721-.126774.18835-.1875.28125-.09411.140965-.204921.275995-.3125.40625-.143174.17445-.303141.346998-.46875.5-.01117.0102-.01998.02115-.03125.03125-.138386.125556-.285091.234436-.4375.34375-.102571.07315-.204318.153364-.3125.21875-.0074.0045-.02384-.0044-.03125 0-.232039.138728-.462548.274778-.71875.375.301527-.0968.596455-.204138.875-.34375.55709-.279224 1.060053-.665694 1.5-1.09375.219973-.214028.409366-.441865.59375-.6875s.355408-.507743.5-.78125c.14012-.265048.276135-.524729.375-.8125.01041-.03078.02133-.06274.03125-.09375.09046-.278085.1388-.579404.1875-.875.0524-.31805.09375-.634029.09375-.96875v-2-68-2c0-3.324-2.676-6-6-6z" fill="url(#b)" opacity=".3"/><path d="m32.085893 44.257211c-6.148569.291159-15.637355 13.21668-15.637355 13.21668l3.421388 4.628883s20.608358-7.218107 15.780867-15.71384c-.905153-1.592948-2.146008-2.19891-3.5649-2.131723zm-16.573072 14.008467s-6.532365 2.388304-3.23769 6.839781c3.503607 4.733771 6.773892-2.040362 6.773892-2.040362z" fill="#3f3f3f" stroke-width="2.503681"/><path d="m61.903342 16.401351c-6.148569.291159-15.637355 13.216681-15.637355 13.216681l3.421388 4.628883s20.608358-7.218107 15.780867-15.713841c-.905153-1.592948-2.146008-2.19891-3.5649-2.131723zm-16.573072 14.008468s-6.532365 2.388304-3.237691 6.839781c3.503608 4.733771 6.773893-2.040362 6.773893-2.040362z" fill="#3f3f3f" stroke-width="2.503681"/><rect height="66" rx="12" style="opacity:.15;stroke:#fefefe;stroke-width:.5;stroke-linecap:round;clip-path:url(#e);fill:url(#j);filter:url(#c)" width="66" x="15" y="15"/><path d="m39.820254 64.125252c-6.991488.760741-17.936751 10.567271-17.936751 10.567271l2.822085 5.512517s23.837406-3.308515 20.237638-13.133334c-.899941-2.456206-2.792476-3.20004-5.122972-2.946454zm-19.099905 11.199112s-7.581316 1.149801-4.862374 6.453835c2.891371 5.640412 7.773444-.734998 7.773444-.734998z" fill="#3f3f3f" stroke-width="2.503681"/><path d="m70.722449 36.472783c-6.991488.760741-17.936751 10.567271-17.936751 10.567271l2.822085 5.512517s23.837406-3.308515 20.237638-13.133334c-.899941-2.456206-2.792476-3.20004-5.122972-2.946454zm-19.099905 11.199112s-7.581316 1.149801-4.862374 6.453835c2.891371 5.640408 7.773444-.734998 7.773444-.734998z" fill="#3f3f3f" stroke-width="2.503681"/><g transform="matrix(-1.1148466 0 0 1.1148466 94.041404 -8.781677)"><path d="m50.011751 48.471391c-2.647565 3.098191-6.017057 5.239289-9.632165 6.391807 1.827922.34134 3.767887 1.156513 5.26239 2.920263-.526144.677453-.712911 1.591985-.200151 2.32366l19.45351 27.741595c.628956.897377 1.912984 1.116346 2.814295.490789l4.52169-3.137417c.901372-.625667 1.119864-1.916881.49079-2.814295l-19.409475-27.745363c-.530896-.757452-1.520795-.903486-2.357608-.596448-1.06163-1.892944-1.189473-3.838318-.943276-5.574591z" fill="url(#x)" opacity=".6"/><g transform="matrix(.52465708 0 0 .52465708 -13.243243 24.785858)"><path d="m101.03596 56.584567s14.86816-7.132238 24.66538 2.664461l5.84395-5.671773c-9.8966-9.896076-2.75054-24.750002-2.75054-24.75-2.1751 6.421196-2.96877 10.530978-10.05504 17.61687-7.12919 7.12881-17.70375 10.140442-17.70375 10.140442z" fill="url(#l)" fill-rule="evenodd" stroke="#404141" stroke-width="1.906007"/><path d="m74.25 37.75a36.25 36.25 0 1 1 -72.5 0 36.25 36.25 0 1 1 72.5 0z" fill="url(#m)" stroke="url(#n)" stroke-width="3.84621" transform="matrix(.9911353 0 0 .9910827 55.641208 -16.409904)"/><path d="m56.375449 13.756925c5.137338 5.453482 8.3125 12.861855 8.3125 21.03125-.000002 16.735097-13.280226 30.34375-29.625 30.34375-6.317804 0-12.159384-2.043738-16.96875-5.5 5.380898 5.665106 12.897015 9.1875 21.21875 9.1875 16.344774 0 29.625001-13.577403 29.625-30.3125 0-10.231102-4.973959-19.25883-12.5625-24.75z" fill="#b0cedd" filter="url(#o)" opacity=".4" transform="matrix(.9980182 0 0 .9979653 55.503044 -16.792511)"/><g opacity=".692623" transform="matrix(.96592583 -.25881905 .25881905 .96592583 -2.475027 25.129232)"><path d="m38.25 3.46875c-16.614748 0-30.388067 11.786531-33.6875 27.40625a.44506709.44506709 0 0 0 .21875.5c8.190652 4.350104 19.485294 7.15625 32.09375 7.15625 13.927809 0 26.283255-3.442975 34.5625-8.59375a.44506709.44506709 0 0 0 .1875-.5c-3.819215-14.900649-17.268662-25.96875-33.375-25.96875z" fill="url(#p)" stroke="url(#q)" stroke-width="1.909842" transform="matrix(.9980182 0 0 .9979653 54.750298 -17.441387)"/><path d="m38.714097 22.817865a7.3570485 5.3033009 0 1 1 -14.714097 0 7.3570485 5.3033009 0 1 1 14.714097 0z" fill="url(#r)" opacity=".6" transform="matrix(1.4329562 0 0 1.4328803 36.223175 -31.240403)"/></g><path d="m122.72062 43.549949c-9.33464 9.461891.48615 13.368497.48615 13.368497-4.25384-3.281359-15.31381-3.038294-15.31381-3.038294s3.64614-.972255 14.82766-10.330203z" fill="url(#s)" fill-rule="evenodd" opacity=".6"/><rect fill="url(#t)" height="69.031891" rx="1.94456" stroke="#000" stroke-width="1.906007" transform="matrix(.70712558 -.70708798 .70712558 .70708798 0 0)" width="14.584202" x="43.8255" y="130.89931"/><g fill-rule="evenodd"><path d="m127.24782 56.326758-5.38119-5.259368s-1.39963-3.833156 2.45921-7.631024c.3507 6.973953 5.09198 10.763478 5.09198 10.763478z" fill="url(#u)"/><path d="m62.35798 89.064933 8.175922.04419s-2.902651.516443-3.402951 4.551999c-.353553-4.065864-4.772971-4.596193-4.772971-4.596193z" fill="#fefefe" filter="url(#v)" opacity=".4" transform="matrix(.6875241 -.6874876 .6875241 .6874876 23.861388 39.569248)"/><path d="m62.35798 89.064933 8.175922.04419s-2.902651.516443-3.402951 4.551999c-.353553-4.065864-4.772971-4.596193-4.772971-4.596193z" fill="#fefefe" filter="url(#v)" opacity=".4" transform="matrix(.6875241 -.6874876 -.6875241 -.6874876 194.52843 210.22725)"/></g></g><path d="m45.287661 50.92853c-3.270789 2.431115-7.032346 3.76845-10.813301 4.087336 1.706079.739668 3.415915 1.966221 4.480314 4.018393-.663744.543337-1.049398 1.393349-.712372 2.220807l12.790202 31.37588c.413422 1.014867 1.616491 1.514164 2.634437 1.104933l5.106626-2.052182c1.018027-.409325 1.51846-1.619507 1.104932-2.634436l-12.746432-31.369752c-.34897-.856624-1.281526-1.219344-2.16569-1.106281-.613628-2.081769-.305227-4.006792.321284-5.644698z" fill="url(#w)" opacity=".2"/></g></svg>