<svg height="96" width="96" xmlns="http://www.w3.org/2000/svg" xmlns:xlink="http://www.w3.org/1999/xlink"><filter id="a" color-interpolation-filters="sRGB" height="1.384" width="1.384" x="-.192" y="-.192"><feGaussianBlur stdDeviation="5.28"/></filter><linearGradient id="b" gradientUnits="userSpaceOnUse" x1="48" x2="48" y1="20.220806" y2="138.66119"><stop offset="0" stop-color="#fff"/><stop offset="1" stop-color="#fff" stop-opacity="0"/></linearGradient><clipPath id="c"><rect height="84" rx="6" width="84" x="6" y="6"/></clipPath><linearGradient id="d" gradientUnits="userSpaceOnUse" x1="48" x2="48" y1="90" y2="5.987717"><stop offset="0" stop-color="#e3880a"/><stop offset="1" stop-color="#f7ae1a"/></linearGradient><linearGradient id="e" gradientTransform="matrix(1.0058652 0 0 .994169 100 0)" gradientUnits="userSpaceOnUse" x1="45.447727" x2="45.447727" y1="92.539597" y2="7.01654"><stop offset="0"/><stop offset="1" stop-opacity=".588235"/></linearGradient><linearGradient id="f" gradientTransform="matrix(1.0238095 0 0 1.0119048 -1.142857 -98.071429)" gradientUnits="userSpaceOnUse" x1="32.251034" x2="32.251034" xlink:href="#e" y1="6.131708" y2="90.238609"/><linearGradient id="g" gradientTransform="translate(0 -97)" gradientUnits="userSpaceOnUse" x1="32.251034" x2="32.251034" xlink:href="#e" y1="6.131708" y2="90.238609"/><linearGradient id="h"><stop offset=".0112" stop-color="#faf0bb"/><stop offset=".4917" stop-color="#faf0bd"/><stop offset=".6648" stop-color="#fbf2c5"/><stop offset=".7882" stop-color="#fcf6d0"/><stop offset=".8879" stop-color="#fcf8e1"/><stop offset=".9723" stop-color="#fffdf7"/><stop offset="1" stop-color="#fff"/></linearGradient><radialGradient id="i" cx="148.0723" cy="319.09381" gradientTransform="matrix(-.76004701 0 0 -.76004701 143.97069 518.35762)" gradientUnits="userSpaceOnUse" r="3.9265" xlink:href="#h"/><radialGradient id="j" cx="132.0938" cy="320.1113" gradientTransform="matrix(1 0 0 -1 -88.772949 587.64266)" gradientUnits="userSpaceOnUse" r="4.1713" xlink:href="#h"/><radialGradient id="k" cx="147.44189" cy="301.21091" gradientTransform="matrix(1.3664031 0 0 -1.3664031 -105.22375 679.7903)" gradientUnits="userSpaceOnUse" r="2.5313" xlink:href="#h"/><radialGradient id="l" cx="48" cy="90.171875" gradientTransform="matrix(1.1104379 0 0 .99590774 -5.301022 .197137)" gradientUnits="userSpaceOnUse" r="42"><stop offset="0" stop-color="#fff" stop-opacity=".5"/><stop offset="1" stop-color="#fff" stop-opacity="0"/></radialGradient><linearGradient id="m" gradientUnits="userSpaceOnUse" x1="36.357143" x2="36.357143" y1="5.94375" y2="63.836893"><stop offset="0" stop-color="#fff" stop-opacity=".4"/><stop offset="1" stop-color="#fff" stop-opacity="0"/></linearGradient><g fill="url(#f)"><path d="m12-95.03125c-5.5110903 0-10.03125 4.52016-10.03125 10.03125v71c0 5.5110902 4.5201598 10.03125 10.03125 10.03125h72c5.51109 0 10.03125-4.5201597 10.03125-10.03125v-71c0-5.51109-4.52016-10.03125-10.03125-10.03125z" opacity=".08" transform="scale(1 -1)"/><path d="m12-94.03125c-4.971633 0-9.03125 4.059617-9.03125 9.03125v71c0 4.9716329 4.0596171 9.03125 9.03125 9.03125h72c4.971633 0 9.03125-4.059617 9.03125-9.03125v-71c0-4.971633-4.059617-9.03125-9.03125-9.03125z" opacity=".1" transform="scale(1 -1)"/><path d="m12-93c-4.4091333 0-8 3.590867-8 8v71c0 4.4091333 3.5908667 8 8 8h72c4.409133 0 8-3.5908667 8-8v-71c0-4.409133-3.590867-8-8-8z" opacity=".2" transform="scale(1 -1)"/><rect height="85" opacity=".3" rx="7" transform="scale(1 -1)" width="86" x="5" y="-92"/></g><rect fill="url(#g)" height="84" opacity=".45" rx="6" transform="scale(1 -1)" width="84" x="6" y="-91"/><rect fill="url(#d)" height="84" rx="6" width="84" x="6" y="6"/><g transform="translate(86)"><g transform="matrix(1.0487673 0 0 1.0463983 -106.50277 -265.60573)"><path d="m32.74754 278.16498c-.840612.41727-1.77319.51683-2.58948.30782-.863414-.22117-1.557337-.77677-1.822593-1.59762-.263736-.81249-.03648-1.67286.513032-2.37059.515312-.6544 1.29664-1.14159 2.192735-1.33464.823131-.17709 1.602939-.0722 2.214777.22118.583716.27969 1.037464.74104 1.250278 1.33768.211293.59664.150489 1.25104-.131488 1.84387-.299459.62476-.855053 1.21-1.627261 1.5923z" fill="url(#i)"/><path d="m46.482251 264.88326c-.85-.392-1.938-.592-3.115-.521-1.177.07-2.29.405-3.157.906-.916.53-1.6 1.269-1.798 2.11-.216.917.182 1.777 1.05 2.403.918.663 2.32 1.032 3.923.914 1.588-.118 2.959-.687 3.847-1.468.833-.732 1.209-1.627.998-2.496-.195-.799-.859-1.438-1.748-1.848z" fill="url(#j)"/><path d="m98.392444 271.01797c.897726-.19539 1.530371-.6914 1.728506-1.40603.18173-.65587-.041-1.3869-.520606-2.04277-.457745-.62581-1.165542-1.21063-2.046872-1.63422-.88133-.42358-1.821415-.62991-2.650822-.61625-.878597.015-1.671111.27329-2.153451.80208-.526065.57663-.584821 1.36094-.207693 2.16439.397623.8499 1.263922 1.68204 2.474556 2.24363 1.196969.55749 2.418533.69687 3.376382.48917z" fill="url(#k)"/></g><path d="m-70.623774 21.829451c-.19293-.543992-.608986-.964706-1.142267-1.219207-.558761-.267221-1.272174-.363453-2.023866-.201223-.818636.176498-1.533635.620352-2.004727 1.217641-.502177.636242-.710224 1.42041-.468714 2.161641.243134.747593.877635 1.255009 1.665979 1.457025.746878.190802 1.598203.09936 2.367427-.280753.706222-.348336 1.213195-.882006 1.485808-1.45223.259064-.541614.314062-1.138902.120437-1.682894z"/><path d="m-61.103489 11.466148c1.052974-.06283 2.026235.116237 2.78554.465635.794963.366235 1.388559.936533 1.56266 1.648096.188727.775379-.147775 1.572733-.892506 2.226737-.792877.696887-2.018884 1.204387-3.439949 1.310068-1.433681.105809-2.686954-.223825-3.508141-.815132-.77609-.558776-1.13266-1.325787-.939687-2.144075.17728-.750275.789724-1.409492 1.607757-1.881434.777133-.447855 1.771379-.747121 2.824326-.809895z"/><path d="m-4.8797454 12.90546c.7122158.341634 1.2839913.813561 1.6551665 1.318295.3869175.529027.5674658 1.11811.4198642 1.647137-.1591736.576189-.6721104.977983-1.3986447 1.133818-.7738365.167169-1.7626259.05422-2.7313633-.393173-.9787805-.451838-1.6781029-1.123843-2.000518-1.810134-.3051424-.647712-.2578758-1.281107.1675155-1.745804.3897679-.427511 1.0332058-.636245 1.7411132-.647678.6721091-.01038 1.434476.155695 2.1466931.497539z"/><path d="m-53.198887 71.760112c5.856351-5.008822 6.450049-14.017535 2.356272-20.640837-3.109662-5.030344-8.867742-8.46355-13.765262-7.886541 4.57686 1.04047 9.784003 3.450077 12.731 8.21989 3.970757 6.422733 2.825555 14.641682-1.32201 20.307488z" fill="#fff"/><path d="m-39.577344 41.267582c-1.460923 2.62853-7.42408 8.338306-10.252602 9.122052 7.587238 26.581071-11.806139 29.384156-30.170054 23.649433v10.601562c-.0064 1.575848 1.664646 5.099401 6 5.359371h71.73125c3.6929961.0069 5.842106-2.64486 6.219836-4.99023-.00001-4.891847.0002-10.76321.00033-15.669922-13.756319 13.251333-47.522027 5.591677-33.2104-21.050781v-.002c-3.658104-1.273468-8.556418-3.831156-10.31836-7.019532z" fill="#fdd99b"/><path d="m-41.177147 56.305467c-.458479-.599773-.724299-1.35527-.70357-2.169171.03548-1.399094.903534-2.582818 2.119224-3.09015-1.781455 1.214153-1.848312 4.10035.07459 5.501841.801127.582768 1.269363 1.373544 1.070613 2.461189-.154956.851606-.758455 1.919764-1.707084 2.737331-1.082796.931922-2.980298 1.522763-4.122828 1.382829 1.092525-.268806 2.187504-.9258 3.069096-1.799317.759636-.75186 1.283971-1.615649 1.499786-2.333443.430445-1.427039-.525519-1.678901-1.299823-2.691109zm5.781803 10.148899c-.675535 2.228786-3.058991 4.249487-5.513559 4.249487-2.210658 0-4.513029-1.672332-5.361677-3.564149 1.092525 1.512235 2.992108 2.374519 5.002803 2.374519 2.281395 0 4.853038-1.191165 5.872433-3.059857z"/></g><path d="m12 90c-3.324 0-6-2.676-6-6v-2-67.999995-2c0-.334721.04135-.6507.09375-.96875.0487-.295596.09704-.596915.1875-.875.0099-.03038.02089-.0636.03125-.09375.09886-.2877711.23488-.5474522.375-.8125002.144591-.273507.315616-.535615.5-.78125.184383-.245635.373776-.473472.59375-.6875.439947-.428056.94291-.814526 1.5-1.09375.278545-.139612.573473-.246947.875-.34375-.256202.100222-.486711.236272-.71875.375-.0074.0044-.02387-.0045-.03125 0-.03193.0193-.06229.04251-.09375.0625-.120395.0767-.231023.163513-.34375.25-.106173.0808-.213281.161112-.3125.25-.17793.161433-.34746.345388-.5.53125-.107579.130255-.218394.265285-.3125.40625-.02509.03838-.03845.08587-.0625.125-.06476.103032-.130228.204517-.1875.3125-.101009.194706-.205675.415701-.28125.625-.008.02181-.02359.04055-.03125.0625-.03183.09195-.0358.186831-.0625.28125-.03033.1066181-.07039.2030311-.09375.3125001-.07288.3415121-.125.6982051-.125 1.0625001v2 67.999995 2c0 2.78185 2.218151 5 5 5h2 68 2c2.781848 0 5-2.21815 5-5v-2-67.999995-2c0-.364295-.05212-.720988-.125-1.0625001-.04415-.206893-.08838-.3976581-.15625-.5937501-.0077-.02195-.0233-.04069-.03125-.0625-.06274-.173739-.138383-.367449-.21875-.53125-.04158-.0828-.07904-.169954-.125-.25-.0546-.09721-.126774-.18835-.1875-.28125-.09411-.140965-.204921-.275995-.3125-.40625-.143174-.17445-.303141-.346998-.46875-.5-.01117-.0102-.01998-.02115-.03125-.03125-.138386-.125556-.285091-.234436-.4375-.34375-.102571-.07315-.204318-.153364-.3125-.21875-.0074-.0045-.02384.0044-.03125 0-.232039-.138728-.462548-.274778-.71875-.375.301527.0968.596455.204138.875.34375.55709.279224 1.060053.665694 1.5 1.09375.219973.214028.409366.441865.59375.6875s.355408.507743.499999.78125c.14012.265048.27614.5247291.375.8125002.0104.03078.0213.06274.0312.09375.0905.278085.1388.579404.1875.875.0524.31805.0937.634029.0937.96875v2 67.999995 2c0 3.324-2.675999 6-5.999999 6h-72z" fill="url(#l)"/><path d="m12 5.94375c-3.324 0-6 2.676-6 6v2 68 2c0 .334721.04135.6507.09375.96875.0487.295596.09704.596915.1875.875.00988.03038.020892.0636.03125.09375.098865.287771.2348802.547452.375.8125.1445918.273507.3156161.535615.5.78125s.3737765.473472.59375.6875c.439947.428056.94291.814526 1.4999996 1.09375.278545.139612.573474.246947.8750004.34375-.2562014-.100222-.4867104-.236272-.7187504-.375-.0074-.0044-.02387.0045-.03125 0-.03193-.0193-.06229-.04251-.09375-.0625-.120395-.0767-.231022-.163513-.34375-.25-.1061724-.0808-.2132805-.161112-.3124996-.25-.1779299-.161433-.3474596-.345388-.5-.53125-.1075789-.130255-.2183939-.265285-.3125-.40625-.025089-.03838-.038446-.08587-.0625-.125-.064763-.103032-.1302275-.204517-.1875-.3125-.1010083-.194706-.2056748-.415701-.28125-.625-.00796-.02181-.023589-.04055-.03125-.0625-.031825-.09195-.035804-.186831-.0625-.28125-.030332-.106618-.070389-.203031-.09375-.3125-.072879-.341512-.125-.698205-.125-1.0625v-2-68-2c0-2.781848 2.2181516-5 5-5h2 68 2c2.781848 0 5 2.218152 5 5v2 68 2c0 .364295-.05212.720988-.125 1.0625-.04415.206893-.08838.397658-.15625.59375-.0077.02195-.0233.04069-.03125.0625-.06274.173739-.138383.367449-.21875.53125-.04158.0828-.07904.169954-.125.25-.0546.09721-.126774.18835-.1875.28125-.09411.140965-.204921.275995-.3125.40625-.143174.17445-.303141.346998-.46875.5-.01117.0102-.01998.02115-.03125.03125-.138386.125556-.285091.234436-.4375.34375-.102571.07315-.204318.153364-.3125.21875-.0074.0045-.02384-.0044-.03125 0-.232039.138728-.462548.274778-.71875.375.301527-.0968.596455-.204138.875-.34375.55709-.279224 1.060053-.665694 1.5-1.09375.219973-.214028.409366-.441865.59375-.6875s.355408-.507743.5-.78125c.14012-.265048.276135-.524729.375-.8125.01041-.03078.02133-.06274.03125-.09375.09046-.278085.1388-.579404.1875-.875.0524-.31805.09375-.634029.09375-.96875v-2-68-2c0-3.324-2.676-6-6-6h-72z" fill="url(#m)" opacity=".6"/><rect height="66" rx="12" style="opacity:.1;stroke:#fff;stroke-width:.5;stroke-linecap:round;clip-path:url(#c);fill:url(#b);filter:url(#a)" width="66" x="15" y="15"/><path d="m51.144039 77.350161c.866508.372975 1.603604.864516 2.123129 1.380805.544115.542881.868544 1.13287.81721 1.64712-.05521.561303-.544135.932138-1.320309 1.052995-.827469.126964-1.954718-.03487-3.129209-.520372-1.186805-.493982-2.108738-1.190236-2.611778-1.882706-.476551-.653529-.55643-1.276283-.178748-1.714739.345083-.403851 1.016397-.577689 1.804866-.555182.743264.01993 1.628253.221087 2.494722.592079zm-11.514827-1.052997c.244492.04981.466096.161833.634449.309236.174245.153865.29978.354552.324174.56544.02486.229563-.0697.432231-.256454.569523-.199168.143429-.494974.209149-.825413.145407-.334649-.06124-.618022-.235545-.794617-.456634-.168371-.207154-.232039-.446673-.168371-.663788.05776-.200674.213636-.346083.414801-.426255.188733-.07371.425276-.09411.671412-.04481zm18.516567 7.540556c.468073.09611.891097.311228 1.209359.59412.336607.294795.572895.673996.618062 1.077595.04973.440202-.133523.825577-.490491 1.087805-.381949.27637-.944546.397376-1.576958.280851-.638579-.121012-1.178583-.450658-1.515307-.87064-.318203-.395386-.443679-.852267-.322177-1.268117.111008-.380943.410807-.659704.792561-.813326.365504-.145407.81721-.18425 1.285342-.08814zm-11.463552-2.173093c-.453645-.194724-.917802-.299277-1.309991-.309237-.412824-.01-.765876.07966-.944487.290812-.197191.229563-.155842.55518.09456.897282.262914.364509.747394.727278 1.369547.987463.615987.255957 1.205268-1.66188 1.640548-1.727614.406344-.06324.663228 1.742055.691969 1.446862.02486-.270395-.143899-.577738-.427253-.862474-.275366-.270396-.661153-.528539-1.114934-.723194z" fill="#d9bb7a"/><path d="m32 20.341797a15.40901 15.40901 0 0 0 -15.408203 15.408203 15.40901 15.40901 0 0 0 1.798828 7.205078 16.793787 14.407301 0 0 1 1.585937-.076172 16.793787 14.407301 0 0 1 15.019532 7.972656 15.40901 15.40901 0 0 0 12.412109-15.101562 15.40901 15.40901 0 0 0 -15.408203-15.408203z"/><path d="m31.822266 22.015625a14.40901 14.40901 0 0 0 -14.410157 14.408203 14.40901 14.40901 0 0 0 1.480469 6.339844 16.793787 14.407301 0 0 1 1.4375-.0625 16.793787 14.407301 0 0 1 14.861328 7.714844 14.40901 14.40901 0 0 0 11.039063-13.992188 14.40901 14.40901 0 0 0 -14.408203-14.408203z" fill="#fff"/><path d="m23.542969 42.732422c-.676053-.09647-4.420286.115617-5.152344.222656.03598-.000319.07359-.0056.109376-.0039 13.549536.650888 19.070312 8.322411 19.070311 17.976563 0 9.654151-7.798503 14.833985-17.070312 14.833985-4.435375 0-9.962098-.677845-14.5-2.419922v1.158196c4.209087 2.176497 10.017652 2.441413 15.042969 2.441413 9.669119 0 17.81587-5.61843 17.81587-15.686274.000001-10.067845-4.146751-16.92896-15.31587-18.522717z"/><path d="m61.5 13.847656c-11.129991-.000383-20.152727 9.022353-20.152344 20.152344.01129 8.515348 5.373815 16.104504 13.396485 18.958984 3.401232-5.75434 10.713784-9.012756 18.97166-9.018995 2.622432-.04019 3.49123.257277 5.043697.674823 1.745454-3.042694 2.887409-7.107025 2.892846-10.614812.000383-11.129991-9.022353-20.152727-20.152344-20.152344z"/><path d="m60.988281 16.361328a18.651651 18.651651 0 0 0 -18.652343 18.650391 18.651651 18.651651 0 0 0 12.755859 17.677734 21.036427 16.08668 0 0 1 18.685547-8.726562 21.036427 16.08668 0 0 1 3.429687.234375 18.651651 18.651651 0 0 0 2.431641-9.185547 18.651651 18.651651 0 0 0 -18.650391-18.650391z" fill="#fff"/><path d="m62.370879 30.949036c1.139715-.657252 2.481499-.650556 3.576747-.102261-.303191.03267-.604881.127759-.886444.289144-1.080415.622326-1.452248 2.002763-.827177 3.080726.623765 1.079336 2.007305 1.448982 3.087718.825316.280321-.162705.51327-.375036.693779-.620988-.07122 1.220444-.736872 2.383125-1.877925 3.040378-1.801179 1.037679-4.106155.42071-5.147526-1.376386-1.03732-1.798402-.420319-4.096877 1.380828-5.135862zm-26.998489 3.129113c.821755-.473115 1.787686-.469097 2.577128-.07384-.219553.02288-.436492.09148-.638564.208444-.778662.4476-1.045391 1.442252-.595438 2.219179.448612.776895 1.445485 1.043007 2.224145.594067.202236-.116955.370494-.270193.501148-.447567-.05259.87906-.532121 1.716429-1.352535 2.189579-1.29732.747262-2.958372.303845-3.707399-.992007-.751707-1.293039-.305805-2.950366.991515-3.697695z"/><path d="m74.855201 43.923406c-12.789909-.000192-22.353333 6.442559-22.353248 16.223078.0092 9.198601 11.851443 17.360289 21.962891 15.382813-11.316511-1.519371-20.302295-6.599844-20.3125-15.162109-.000088-9.780515 9.718159-15.817016 22.853248-15.816829.585502.0054 1.170536.0269 1.753906.06445-.953995-.449941-2.55289-.686442-3.904297-.691406z"/><path d="m75.034727 44.567589c-11.633059-.000175-21.038576 6.840142-21.038499 15.736011.0084 8.366586 9.740501 14.99306 20.468616 15.225697-8.94918-2.006944-18.958221-7.237149-18.967503-15.024956-.00008-8.895865 9.546256-15.226052 21.493274-15.225882.532543.0049 1.050779-.213422 1.768883-.663647-.867706-.112369-2.495599-.04271-3.724771-.04722z" fill="#edecec"/></svg>