<svg height="96" width="96" xmlns="http://www.w3.org/2000/svg" xmlns:xlink="http://www.w3.org/1999/xlink"><linearGradient id="a" gradientTransform="scale(1.0058652 .994169)" gradientUnits="userSpaceOnUse" x1="45.447727" x2="45.447727" y1="92.539597" y2="7.01654"><stop offset="0"/><stop offset="1" stop-opacity=".588235"/></linearGradient><linearGradient id="b"><stop offset="0" stop-color="#fefefe"/><stop offset="1" stop-color="#fefefe" stop-opacity="0"/></linearGradient><linearGradient id="c" gradientUnits="userSpaceOnUse" x1="48" x2="48" y1="90" y2="5.987717"><stop offset="0" stop-color="#2c67a6"/><stop offset="1" stop-color="#6bb5ff"/></linearGradient><linearGradient id="d" gradientUnits="userSpaceOnUse" x1="44" x2="44" xlink:href="#b" y1="6" y2="64.215118"/><radialGradient id="e" cx="48" cy="72" gradientTransform="matrix(1.1428571 0 0 .95238095 -6.857143 3.428571)" gradientUnits="userSpaceOnUse" r="42" xlink:href="#b"/><linearGradient id="f" gradientTransform="translate(0 1)" gradientUnits="userSpaceOnUse" x1="48" x2="48" xlink:href="#a" y1="90" y2="5.987717"/><linearGradient id="g" gradientTransform="translate(-1 1)" gradientUnits="userSpaceOnUse" x1="48" x2="48" xlink:href="#a" y1="90.868095" y2="5.987717"/><g fill="url(#g)"><path d="m12 4.03125c-6.0701637-.1617408-10.6911509 5.6895113-9.96875 11.5.0000716.04167-.0000701.08333 0 .125.030431 18.086218-.077787 36.153437.03125 54.25a.93232674.93232674 0 0 0 0 .0625c.4297709 5.831518 6.2168912 9.674679 11.71875 9 .0418-.0051.08323.0056.125 0h5.3125c-.679778 4.428501-1.596836 8.895227-2.0625 13.40625a.93232674.93232674 0 0 0 .03125.28125c.279995 1.294203 1.371731 2.108795 2.46875 2.25 1.023884.131791 2.065552-.225148 2.84375-1v.03125l22.84375-14.96875c13.185056-.02898 26.362788.07707 39.5625-.03125a.93232674.93232674 0 0 0 .0625 0c5.831518-.429771 9.674679-6.216892 9-11.71875-.0051-.0418.0056-.08323 0-.125-.03043-18.00176.07779-35.987855-.03125-54a.93232674.93232674 0 0 0 0-.0625c-.429771-5.8315178-6.216892-9.6746792-11.71875-9h-.125-70.0625z" opacity=".08"/><path d="m12 4.96875c-5.501783-.1656394-9.7593033 5.261556-9.03125 10.551463.031153 18.132768-.06237 36.268711.046873 54.39949.3891125 5.279828 5.7301904 8.791471 10.757959 8.111547h6.538918c-.693629 4.811167-1.723208 9.637038-2.21875 14.4375.399566 1.846889 2.79006 1.976363 3.910163.694482 7.696612-5.043994 15.393225-10.087988 23.089837-15.131982 13.274928-.03092 26.553011.06205 39.825953-.04687 5.279828-.389113 8.791471-5.730191 8.111547-10.757959-.031152-18.048315.062369-36.099801-.046873-54.146124-.389113-5.2798278-5.730191-8.7914714-10.757959-8.111547-23.408806 0-46.817612 0-70.226418 0z" opacity=".1"/><path d="m12 6c-4.4078522 0-8 3.5921478-8 8v55c0 4.407852 3.5921478 8 8 8h9.5l-2.40625 14.90625a.98733463.98733463 0 0 0 1.5.96875l24.21875-15.875h39.1875c4.407852 0 8-3.592148 8-8v-55c0-4.4078522-3.592148-8-8-8z" opacity=".15"/><path d="m12 7c-3.878 0-7 3.122-7 7v55c0 3.878 3.122 7 7 7h10.65625l-2.59375 16.0625 24.5-16.0625h39.4375c3.878 0 7-3.122 7-7v-55c0-3.878-3.122-7-7-7z" opacity=".3"/></g><path d="m12 7c-3.324 0-6 2.676-6 6v56c0 3.324 2.676 6 6 6h12l-3 16 23-16h40c3.324 0 6-2.676 6-6v-56c0-3.324-2.676-6-6-6z" fill="url(#f)" opacity=".45"/><path d="m12 6c-3.324 0-6 2.676-6 6v56c0 3.324 2.676 6 6 6h12l-3 16 23-16h40c3.324 0 6-2.676 6-6v-56c0-3.324-2.676-6-6-6z" fill="url(#c)"/><path d="m12 6c-3.324 0-6 2.676-6 6v56c0 2.9085 2.0422266 5.317352 4.78125 5.875-2.2021357-.53769-3.8125-2.49722-3.8125-4.875v-56c0-2.797389 2.2338615-5.03125 5.03125-5.03125h72c2.797388 0 5.03125 2.233861 5.03125 5.03125v56c0 2.37778-1.610365 4.33731-3.8125 4.875 2.739023-.557648 4.78125-2.9665 4.78125-5.875v-56c0-3.324-2.676-6-6-6zm12 68.03125-3 15.96875 22.96875-15.96875a.98129583.98129583 0 0 0 -.53125.15625l-21.03125 14.625 2.5625-13.625a.98129583.98129583 0 0 0 -.96875-1.15625z" fill="url(#d)" opacity=".3"/><path d="m12 6c-3.324 0-6 2.676-6 6v56c0 3.324 2.676 6 6 6h12l-3 16 23-16h40c3.324 0 6-2.676 6-6v-56c0-3.324-2.676-6-6-6zm0 2h72c2.251468 0 4 1.748532 4 4v56c0 2.251468-1.748532 4-4 4h-40a1.9985725 1.9985725 0 0 0 -1.15625.375l-18.96875 13.1875 2.09375-11.1875a1.9985725 1.9985725 0 0 0 -1.96875-2.375h-12c-2.2514679 0-4-1.748532-4-4v-56c0-2.251468 1.7485321-4 4-4z" fill="url(#e)" opacity=".15"/><path d="m39.783022 18.51722c-.745315.000981-6.910629.161192-13.396589 5.041565 0 0-6.910719 12.529473-6.910719 27.984073 0 0 4.054418 6.996785 14.662701 7.322253 0 0 1.757393-2.133475 3.204856-3.968839-6.107804-1.806502-8.41561-5.643295-8.41561-5.643295s.468177.326803 1.324634.818751c.06943.04259.138508.07956.211207.120234.13839.07899.287887.160287.445483.245909 1.24392.687333 2.42631 1.231321 3.528045 1.65326 1.939032.783852 4.31892 1.556256 7.048772 2.06573 3.620017.673075 7.851366.880747 12.446537.02645 2.250436-.415795 4.584286-1.085457 6.980122-2.080737 1.684819-.64287 3.554579-1.548779 5.539567-2.849596 0 0-2.376181 3.947496-8.683839 5.716636 1.435748 1.819806 3.14821 3.895498 3.14821 3.895498 10.607756-.325468 14.661576-7.322253 14.661576-7.322253 0-15.4546-6.914471-27.984073-6.914471-27.984073-6.914559-5.205731-13.47143-5.041002-13.47143-5.041002l-.672072.772236c8.192719 2.485579 11.966726 6.103784 11.966726 6.103784-4.994399-2.729659-9.909124-4.096423-14.470062-4.611086-3.482155-.391205-6.76074-.286642-9.712861.08685-.27299.03496-.537373.07586-.80656.11442-1.681037.162494-5.743022.772416-10.899629 3.037544-1.81894.774343-2.851847 1.372277-2.851847 1.372277s3.942818-3.825287 12.607849-6.310864l-.49538-.565155s-.02553-.000672-.07521-.000581zm-1.184143 17.913512c2.7143 0 4.914204 2.379925 4.914204 5.31467 0 2.936617-2.199904 5.315982-4.914204 5.315982-2.718129 0-4.917765-2.379365-4.917765-5.315982 0-2.934745 2.199636-5.31467 4.917765-5.31467zm17.502731 0c2.718084 0 4.917955 2.379925 4.917955 5.31467 0 2.936617-2.199871 5.315982-4.917955 5.315982-2.714337 0-4.914201-2.379365-4.914201-5.315982 0-2.934745 2.199864-5.31467 4.914201-5.31467z" opacity=".1" stroke="#000" stroke-linejoin="round" stroke-width="2"/><path d="m39.783022 18.51722c-.745315.000981-6.910629.161192-13.396589 5.041565 0 0-6.910719 12.529472-6.910719 27.984072 0 0 4.054418 6.996785 14.662701 7.322253 0 0 1.757393-2.133475 3.204856-3.968839-6.107804-1.806502-8.41561-5.643295-8.41561-5.643295s.468177.326803 1.324634.818751c.06943.04259.138508.07956.211207.120234.13839.07899.287887.160287.445483.245909 1.24392.687333 2.42631 1.231321 3.528045 1.65326 1.939032.783852 4.31892 1.556256 7.048772 2.06573 3.620017.673075 7.851366.880747 12.446537.02645 2.250436-.415795 4.584286-1.085457 6.980122-2.080737 1.684819-.64287 3.554579-1.548779 5.539567-2.849596 0 0-2.376181 3.947496-8.683839 5.716636 1.435748 1.819806 3.14821 3.895498 3.14821 3.895498 10.607756-.325468 14.661576-7.322253 14.661576-7.322253 0-15.4546-6.914471-27.984072-6.914471-27.984072-6.914559-5.205731-13.47143-5.041002-13.47143-5.041002l-.672072.772236c8.192719 2.485579 11.966726 6.103784 11.966726 6.103784-4.994399-2.729659-9.909124-4.096423-14.470062-4.611086-3.482155-.391205-6.76074-.286642-9.712861.08685-.27299.03496-.537373.07586-.80656.11442-1.681037.162494-5.743022.772416-10.899629 3.037544-1.81894.774343-2.851847 1.372277-2.851847 1.372277s3.942818-3.825287 12.607849-6.310864l-.49538-.565155s-.02553-.000672-.07521-.000581zm-1.184143 17.913511c2.7143 0 4.914204 2.379925 4.914204 5.31467 0 2.936617-2.199904 5.315982-4.914204 5.315982-2.718129 0-4.917765-2.379365-4.917765-5.315982 0-2.934745 2.199636-5.31467 4.917765-5.31467zm17.502731 0c2.718084 0 4.917955 2.379925 4.917955 5.31467 0 2.936617-2.199871 5.315982-4.917955 5.315982-2.714337 0-4.914201-2.379365-4.914201-5.315982 0-2.934745 2.199864-5.31467 4.914201-5.31467z" opacity=".1" stroke="#000" stroke-linejoin="round" stroke-width="4"/><path d="m39.783024 18.517219c-.745315.000981-6.910629.161192-13.396589 5.041565 0 0-6.910719 12.529473-6.910719 27.984073 0 0 4.054418 6.996785 14.662701 7.322253 0 0 1.757393-2.133475 3.204856-3.968839-6.107804-1.806502-8.41561-5.643295-8.41561-5.643295s.468177.326803 1.324634.818751c.06943.04259.138508.07956.211207.120234.13839.07899.287887.160287.445483.245909 1.24392.687333 2.42631 1.231321 3.528045 1.65326 1.939032.783852 4.31892 1.556256 7.048768 2.06573 3.62002.673075 7.85137.880747 12.44654.02645 2.25044-.415795 4.58429-1.085457 6.98012-2.080737 1.68482-.64287 3.55458-1.548779 5.53957-2.849596 0 0-2.37618 3.947496-8.68384 5.716636 1.43575 1.819806 3.14821 3.895498 3.14821 3.895498 10.60776-.325468 14.66158-7.322253 14.66158-7.322253 0-15.4546-6.91447-27.984073-6.91447-27.984073-6.91456-5.205731-13.47143-5.041002-13.47143-5.041002l-.67208.772236c8.19272 2.485579 11.96673 6.103784 11.96673 6.103784-4.9944-2.729659-9.90912-4.096423-14.47006-4.611086-3.48216-.391205-6.76074-.286642-9.71286.08685-.27299.03496-.53738.07586-.80656.11442-1.68104.162494-5.743025.772416-10.899632 3.037544-1.81894.774343-2.851847 1.372277-2.851847 1.372277s3.942818-3.825287 12.607849-6.310864l-.49538-.565155s-.02553-.000672-.07521-.000581zm-1.184143 17.913512c2.714299 0 4.914199 2.379925 4.914199 5.31467 0 2.936617-2.1999 5.315982-4.914199 5.315982-2.718129 0-4.917765-2.379365-4.917765-5.315982 0-2.934745 2.199636-5.31467 4.917765-5.31467zm17.502729 0c2.71809 0 4.91796 2.379925 4.91796 5.31467 0 2.936617-2.19987 5.315982-4.91796 5.315982-2.71434 0-4.9142-2.379365-4.9142-5.315982 0-2.934745 2.19986-5.31467 4.9142-5.31467z" opacity=".1" stroke="#000" stroke-linejoin="round" stroke-width="6"/><path d="m39.783022 18.51722c-.745315.000981-6.910629.161192-13.396589 5.041565 0 0-6.910719 12.529474-6.910719 27.984074 0 0 4.054418 6.996785 14.662701 7.322253 0 0 1.757393-2.133475 3.204856-3.968839-6.107804-1.806502-8.41561-5.643295-8.41561-5.643295s.468177.326803 1.324634.818751c.06943.04259.138508.07956.211207.120234.13839.07899.287887.160287.445483.245909 1.24392.687333 2.42631 1.231321 3.528045 1.65326 1.939032.783852 4.31892 1.556256 7.048772 2.06573 3.620017.673075 7.851366.880747 12.446537.02645 2.250436-.415795 4.584286-1.085457 6.980122-2.080737 1.684819-.64287 3.554579-1.548779 5.539567-2.849596 0 0-2.376181 3.947496-8.683839 5.716636 1.435748 1.819806 3.14821 3.895498 3.14821 3.895498 10.607756-.325468 14.661576-7.322253 14.661576-7.322253 0-15.4546-6.914471-27.984074-6.914471-27.984074-6.914559-5.205731-13.47143-5.041002-13.47143-5.041002l-.672072.772236c8.192719 2.485579 11.966726 6.103784 11.966726 6.103784-4.994399-2.729659-9.909124-4.096423-14.470062-4.611086-3.482155-.391205-6.76074-.286642-9.712861.08685-.27299.03496-.537373.07586-.80656.11442-1.681037.162494-5.743022.772416-10.899629 3.037544-1.81894.774343-2.851847 1.372277-2.851847 1.372277s3.942818-3.825287 12.607849-6.310864l-.49538-.565155s-.02553-.000672-.07521-.000581zm-1.184143 17.913513c2.7143 0 4.914204 2.379925 4.914204 5.31467 0 2.936617-2.199904 5.315982-4.914204 5.315982-2.718129 0-4.917765-2.379365-4.917765-5.315982 0-2.934745 2.199636-5.31467 4.917765-5.31467zm17.502731 0c2.718084 0 4.917955 2.379925 4.917955 5.31467 0 2.936617-2.199871 5.315982-4.917955 5.315982-2.714337 0-4.914201-2.379365-4.914201-5.315982 0-2.934745 2.199864-5.31467 4.914201-5.31467z" fill="#fff" stroke="#207c69" stroke-linejoin="round" stroke-width=".03876"/></svg>