<svg height="96" width="96" xmlns="http://www.w3.org/2000/svg" xmlns:xlink="http://www.w3.org/1999/xlink"><linearGradient id="a" gradientTransform="matrix(1.0058652 0 0 .994169 100 0)" gradientUnits="userSpaceOnUse" x1="45.447727" x2="45.447727" y1="92.539597" y2="7.01654"><stop offset="0"/><stop offset="1" stop-opacity=".588235"/></linearGradient><linearGradient id="b"><stop offset="0" stop-color="#fefefe"/><stop offset="1" stop-color="#fefefe" stop-opacity="0"/></linearGradient><linearGradient id="c" gradientUnits="userSpaceOnUse" x1="36.357143" x2="36.357143" xlink:href="#b" y1="6" y2="63.893143"/><filter id="d" color-interpolation-filters="sRGB" height="1.384" width="1.384" x="-.192" y="-.192"><feGaussianBlur stdDeviation="5.28"/></filter><linearGradient id="e" gradientUnits="userSpaceOnUse" x1="48" x2="48" xlink:href="#b" y1="20.220806" y2="138.66119"/><radialGradient id="f" cx="48" cy="90.171875" gradientTransform="matrix(1.1573129 0 0 .99590774 -7.551021 .197132)" gradientUnits="userSpaceOnUse" r="42" xlink:href="#b"/><clipPath id="g"><rect height="84" rx="6" width="84" x="6" y="6"/></clipPath><linearGradient gradientUnits="userSpaceOnUse" x1="48" x2="48" y1="90" y2="5.987717"><stop offset="0" stop-color="#70a83e"/><stop offset="1" stop-color="#9fd058"/></linearGradient><clipPath id="h"><rect height="84" rx="6" width="84" x="6" y="6"/></clipPath><linearGradient id="i" gradientUnits="userSpaceOnUse" x1="48" x2="48" y1="-6" y2="-90.012283"><stop offset="0" stop-color="#51cfee"/><stop offset=".26238" stop-color="#49a3d2"/><stop offset=".704952" stop-color="#3470b4"/><stop offset="1" stop-color="#1b5699"/></linearGradient><linearGradient id="j" gradientTransform="matrix(.32811093 0 0 .34059034 6.36064 3.973393)" gradientUnits="userSpaceOnUse" x1="116.29638" x2="116.29638" y1="32.374962" y2="226.17993"><stop offset="0" stop-color="#fefefe"/><stop offset="1" stop-color="#ced3d6"/></linearGradient><linearGradient id="k" gradientTransform="translate(0 -97)" gradientUnits="userSpaceOnUse" x1="32.251034" x2="32.251034" xlink:href="#a" y1="6.131708" y2="90.238609"/><linearGradient id="l" gradientTransform="matrix(1.0238095 0 0 1.0119048 -1.142857 -98.071429)" gradientUnits="userSpaceOnUse" x1="32.251034" x2="32.251034" xlink:href="#a" y1="6.131708" y2="90.238609"/><g fill="url(#l)"><path d="m12-95.03125c-5.5110903 0-10.03125 4.52016-10.03125 10.03125v71c0 5.5110902 4.5201598 10.03125 10.03125 10.03125h72c5.51109 0 10.03125-4.5201597 10.03125-10.03125v-71c0-5.51109-4.52016-10.03125-10.03125-10.03125z" opacity=".08" transform="scale(1 -1)"/><path d="m12-94.03125c-4.971633 0-9.03125 4.059617-9.03125 9.03125v71c0 4.9716329 4.0596171 9.03125 9.03125 9.03125h72c4.971633 0 9.03125-4.059617 9.03125-9.03125v-71c0-4.971633-4.059617-9.03125-9.03125-9.03125z" opacity=".1" transform="scale(1 -1)"/><path d="m12-93c-4.4091333 0-8 3.590867-8 8v71c0 4.4091333 3.5908667 8 8 8h72c4.409133 0 8-3.5908667 8-8v-71c0-4.409133-3.590867-8-8-8z" opacity=".2" transform="scale(1 -1)"/><rect height="85" opacity=".3" rx="7" transform="scale(1 -1)" width="86" x="5" y="-92"/></g><rect fill="url(#k)" height="84" opacity=".45" rx="6" transform="scale(1 -1)" width="84" x="6" y="-91"/><rect fill="url(#i)" height="84" rx="6" transform="scale(1 -1)" width="84" x="6" y="-90"/><path d="m12 6c-3.324 0-6 2.676-6 6v2 68 2c0 .334721.04135.6507.09375.96875.0487.295596.09704.596915.1875.875.00988.03038.020892.0636.03125.09375.098865.287771.2348802.547452.375.8125.1445918.273507.3156161.535615.5.78125s.3737765.473472.59375.6875c.439947.428056.94291.814526 1.5 1.09375.278545.139612.5734731.246947.875.34375-.2562018-.100222-.4867109-.236272-.71875-.375-.00741-.0044-.023866.0045-.03125 0-.031933-.0193-.062293-.04251-.09375-.0625-.120395-.0767-.2310226-.163513-.34375-.25-.1061728-.0808-.2132809-.161112-.3125-.25-.1779299-.161433-.3474596-.345388-.5-.53125-.1075789-.130255-.2183939-.265285-.3125-.40625-.025089-.03838-.038446-.08587-.0625-.125-.064763-.103032-.1302275-.204517-.1875-.3125-.1010083-.194706-.2056748-.415701-.28125-.625-.00796-.02181-.023589-.04055-.03125-.0625-.0318251-.09195-.0358045-.186831-.0625-.28125-.0303323-.106618-.0703894-.203031-.09375-.3125-.0728786-.341512-.125-.698205-.125-1.0625v-2-68-2c0-2.781848 2.2181517-5 5-5h2 68 2c2.781848 0 5 2.218152 5 5v2 68 2c0 .364295-.05212.720988-.125 1.0625-.04415.206893-.08838.397658-.15625.59375-.0077.02195-.0233.04069-.03125.0625-.06274.173739-.138383.367449-.21875.53125-.04158.0828-.07904.169954-.125.25-.0546.09721-.126774.18835-.1875.28125-.09411.140965-.204921.275995-.3125.40625-.143174.17445-.303141.346998-.46875.5-.01117.0102-.01998.02115-.03125.03125-.138386.125556-.285091.234436-.4375.34375-.102571.07315-.204318.153364-.3125.21875-.0074.0045-.02384-.0044-.03125 0-.232039.138728-.462548.274778-.71875.375.301527-.0968.596455-.204138.875-.34375.55709-.279224 1.060053-.665694 1.5-1.09375.219973-.214028.409366-.441865.59375-.6875s.355408-.507743.5-.78125c.14012-.265048.276135-.524729.375-.8125.01041-.03078.02133-.06274.03125-.09375.09046-.278085.1388-.579404.1875-.875.0524-.31805.09375-.634029.09375-.96875v-2-68-2c0-3.324-2.676-6-6-6z" fill="url(#c)" opacity=".4"/><path d="m12 90c-3.324 0-6-2.676-6-6v-2-68-2c0-.334721.04135-.6507.09375-.96875.0487-.295596.09704-.596915.1875-.875.00988-.03038.020892-.0636.03125-.09375.098865-.287771.2348802-.547452.375-.8125.1445918-.273507.3156161-.535615.5-.78125s.3737765-.473472.59375-.6875c.439947-.428056.94291-.814526 1.5-1.09375.278545-.139612.5734731-.246947.875-.34375-.2562018.100222-.4867109.236272-.71875.375-.00741.0044-.023866-.0045-.03125 0-.031933.0193-.062293.04251-.09375.0625-.120395.0767-.2310226.163513-.34375.25-.1061728.0808-.2132809.161112-.3125.25-.1779299.161433-.3474596.345388-.5.53125-.1075789.130255-.2183939.265285-.3125.40625-.025089.03838-.038446.08587-.0625.125-.064763.103032-.1302275.204517-.1875.3125-.1010083.194706-.2056748.415701-.28125.625-.00796.02181-.023589.04055-.03125.0625-.0318251.09195-.0358045.186831-.0625.28125-.0303323.106618-.0703894.203031-.09375.3125-.0728786.341512-.125.698205-.125 1.0625v2 68 2c0 2.781848 2.2181517 5 5 5h2 68 2c2.781848 0 5-2.218152 5-5v-2-68-2c0-.364295-.05212-.720988-.125-1.0625-.04415-.206893-.08838-.397658-.15625-.59375-.0077-.02195-.0233-.04069-.03125-.0625-.06274-.173739-.138383-.367449-.21875-.53125-.04158-.0828-.07904-.169954-.125-.25-.0546-.09721-.126774-.18835-.1875-.28125-.09411-.140965-.204921-.275995-.3125-.40625-.143174-.17445-.303141-.346998-.46875-.5-.01117-.0102-.01998-.02115-.03125-.03125-.138386-.125556-.285091-.234436-.4375-.34375-.102571-.07315-.204318-.153364-.3125-.21875-.0074-.0045-.02384.0044-.03125 0-.232039-.138728-.462548-.274778-.71875-.375.301527.0968.596455.204138.875.34375.55709.279224 1.060053.665694 1.5 1.09375.219973.214028.409366.441865.59375.6875s.355408.507743.5.78125c.14012.265048.276135.524729.375.8125.01041.03078.02133.06274.03125.09375.09046.278085.1388.579404.1875.875.0524.31805.09375.634029.09375.96875v2 68 2c0 3.324-2.676 6-6 6z" fill="url(#f)" opacity=".2"/><g clip-path="url(#h)" fill="#aef" opacity=".9"><path d="m48 48 24-56h16z" opacity=".15"/><path d="m48 48 55.25122 25.67688-.48222 15.992731z" opacity=".15"/><path d="m48 47.999999-59.82794 11.515948-8.968813-13.24992z" opacity=".15"/><path d="m48 48-49.3111997-35.782748 3.5360521-15.6043688z" opacity=".15"/><path d="m48 48 17.519239-62.073153 30.435955 12.7142695z" opacity=".15"/><path d="m48 48 61.6356-19.001391 5.8539 32.461237z" opacity=".15"/><path d="m48 48-31.245933 56.42421-26.7233121-19.335577z" opacity=".15"/><path d="m48 48-62.811967-14.651165 11.3036334-30.9875428z" opacity=".15"/><path d="m48 48 45.809637 45.403493-3.691734 9.021517z" opacity=".15"/><path d="m48 48-2.970052 64.42964-9.168463 3.30998z" opacity=".15"/><path d="m48 48-44.8594211 46.342551-9.0644809-3.58495z" opacity=".15"/><path d="m48 47.999999-62.116138 17.366205-6.01593-7.669763z" opacity=".15"/><path d="m48.000001 47.999998-29.146629-57.5367157 6.349274-7.3961743z" opacity=".15"/><path d="m48.000003 48.000001 59.481677-24.938521 6.921 6.864135z" opacity=".15"/><path d="m47.999999 47.999999 40.186744 45.793287-6.896299 14.437484z" opacity=".15"/><path d="m48.000001 48-35.957968-49.1835747 8.152103-13.7674653z" opacity=".15"/></g><rect height="66" rx="12" style="opacity:.1;stroke:#fefefe;stroke-width:.5;stroke-linecap:round;clip-path:url(#g);fill:url(#e);filter:url(#d)" width="66" x="15" y="15"/><path d="m48 13.09375c-5.630264 0-10.251691 4.62695-10.25 10.25-.000735 2.450902.976439 4.578918 2.4375 6.25h-5.9375c-2.070135 0-3.8125 1.697099-3.8125 3.8125v2.75c0 2.061464 1.670506 3.84375 3.8125 3.84375h8.09375v29.0625c-.598416-.05288-.975294-.150645-2.125-.46875-2.582761-.75822-5.097343-1.84612-7.5-3.125-.00009-.00005-.0259.0026-.03125 0-.02009-.01115-.04268-.01998-.0625-.03125-.0275-.01235-.04235-.02457-.0625-.03125-.119394-.0694-.229301-.176451-.34375-.25.165933-.38791.245697-.678739.25-.84375.0014-.002.06123-.06039.0625-.0625.0013-.0021.0301-.09157.03125-.09375.0012-.0022.06146-.09152.0625-.09375.001-.0022.03034-.09146.03125-.09375.000915-.0023.03046-.09142.03125-.09375.000792-.0023.03058-.09138.03125-.09375.000667-.0024.03071-.09135.03125-.09375s-.000411-.09132 0-.09375c.000411-.0024.03097-.122553.03125-.125.000281-.0024-.000151-.09129 0-.09375.000151-.0025-.00002-.09129 0-.09375.00002-.0025.000111-.09129 0-.09375a.88006445.88006445 0 0 0 0-.03125c-.0062-.08457-.06093-.156239-.09375-.25-.01102-.03147.01158-.06591 0-.09375-.0012-.0029-.03005.0028-.03125 0-.01156-.02733.01077-.07265 0-.09375-.01404-.02978-.01892-.04118-.03125-.0625-.02467-.04264-.06412-.127365-.0625-.125-.159024-.976661-.426483-1.917138-.90625-2.71875a.88006445.88006445 0 0 0 0-.03125c-1.055989-1.736961-2.514943-2.838265-3.8125-3.71875-.0064-.0044-.02485.0043-.03125 0a.88006445.88006445 0 0 0 -.0625-.0625.88006445.88006445 0 0 0 0-.03125c-.000389-.000385-.0266.0043-.03125 0 .28657.192643.280218.177485-.03125-.03125-.02416-.02225-.03-.06143-.03125-.0625-.0025-.0021-.09111-.06054-.09375-.0625-.0026-.002-.12223-.09199-.125-.09375-1.310462-.836881-2.377633-1.680921-2.75-2.28125a.88006445.88006445 0 0 0 -.03125 0c-.0097-.02958-.02108-.03893-.03125-.0625a.88006445.88006445 0 0 0 -.03125-.0625c-.000679-.00074-.02043-.0204-.03125-.03125-.0054-.0054.0067-.02457 0-.03125a.88006445.88006445 0 0 0 -.03125-.03125c-.0096-.01544-.02249.01331-.03125 0-.01897-.02884-.01601-.01121-.03125-.03125-.0082-.01079.0072-.02264 0-.03125-.0072-.0086.0062-.02457 0-.03125-.01421-.01747-.02159-.02194-.03125-.03125-.0033-.0033-.03088.000339-.03125 0v-.03125c-.01117-.007-.06471-.06438-.0625-.0625-.07968-.122032-.124504-.239619-.28125-.40625-.198956-.211503-.668465-.689332-1.375-.9375-.555031-.194953-1.096133-.09444-1.625 0 .07466.02722.180448.07501.15625.0625-.02654-.01371-.164298-.03716-.28125-.0625-.100473.02165-.215634-.02987-.3125 0-.01905.0048-.04671-.0051-.0625 0s-.0495-.0046-.0625 0c-.0032.0011-.153187.06115-.15625.0625-.0031.0014-.122043.06093-.125.0625-.003.0016-.09091.06072-.09375.0625-.0028.0018-.1223.09177-.125.09375-.0027.002-.0912.06033-.09375.0625-.0025.0022-.122614.0914-.125.09375-.0024.0023-.09154.122485-.09375.125-.0022.0025-.06048.09108-.0625.09375a.88006445.88006445 0 0 0 -.09375.125.88006445.88006445 0 0 0 0 .03125c-.576924.423695-1.058353.847609-1.3125 1.25l-.03125-.03125-.0625.0625a.88006445.88006445 0 0 0 -.03125.0625c-.0011.0013-.01044.0361-.03125.0625s-.06151.02989-.0625.03125c-.002.0027-.09197.12215-.09375.125-.0018.0029-.06093.122028-.0625.125-.000785.0015-.01664.03223-.03125.0625s-.03057.06096-.03125.0625c-.917531 1.769516-1.349488 3.528658-1.6875 5.09375h.03125c-.348387 1.561293-.424834 3.093978-.3125 4.5625a.88006445.88006445 0 0 0 .03125.1875.88006445.88006445 0 0 0 .03125.0625c.09134 1.18776.182044 2.724622.875 4.34375.0091.02182.04559.03727.0625.0625.02127.03174.03307.05966.0625.09375.536623 1.174556 1.267129 2.068214 1.84375 2.6875l.65625-.59375c-.310751.303104-.578256.609423-.59375.625.0088.0088.01951.01951.03125.03125l.03125.03125c.0044.0044-.0025.02877 0 .03125.0059.0059.02342.02343.03125.03125l.03125.03125s.0536.02978.09375.0625c.0061.0061.02342.02343.03125.03125.0037.003.000057.03129 0 .03125.0036.0036.0285-.0027.03125 0 0 0 .0255-.0047.03125 0 .01539.01269.03125.03125.03125.03125.03692.03013.06224.06233.0625.0625.00046.000306.03003.03044.03125.03125.0087.0058.01951-.0078.03125 0s.02252.02543.03125.03125c0 0 .0655.03374.125.0625.02975.01438.04588.02317.0625.03125.01016.0049.03161.03137.03125.03125.01296.0063.0407-.01056.0625 0 .0099.0049.03125.03125.03125.03125.04709.02282.09417.06264.09375.0625.0018.00059.02702-.0014.03125 0 .0054.0036.02712-.0028.03125 0 .01174.0039.02225.02825.03125.03125.02184.01078.04949-.0064.0625 0 .07753.02274.143851.06239.25.09375.01188.0035.02085-.0031.03125 0 .01174.0039.02276.02842.03125.03125.0032.0011.02671-.0015.03125 0 .01115.0034.06287-.000004.0625 0 .0054.0018-.0042.02986 0 .03125 0 0 .282599.03124.28125.03125.0054.0018.02725-.0013.03125 0 0 0 .05011.000114.0625 0 .06167.01032.125 0 .125 0 .139221-.0012.251887.000117.3125 0 .01212-.000023.06284-.000117.0625 0 .004-.0013.02586.0018.03125 0 0 0 .28258-.0317.28125-.03125.0042-.0014-.0054-.02944 0-.03125.02741-.0043.03151.0049.0625 0 .0045-.0015.02805.0011.03125 0 .0085-.0028.01951-.02734.03125-.03125.01076-.0017.0251.00096.03125 0 .105634-.03286.173939-.0703.25-.09375.02819-.0087.0941-.03149.09375-.03125.01105-.0054.02123.0049.03125 0 .0042-.0014.02947.00059.03125 0 0 0 .04696-.03941.09375-.0625.0092-.0031.01951-.02732.03125-.03125.02249-.011.0531-.01155.09375-.03125.01623-.008.03395-.0172.0625-.03125.01022-.0049.03125-.03125.03125-.03125.03801-.01872.0936-.03115.09375-.03125.0087-.0058.01951-.02342.03125-.03125.01174-.0078.0225.0058.03125 0 .0012-.000814.03079-.03094.03125-.03125 0 0 .02419-.03084.0625-.0625.0089-.006.01951-.02342.03125-.03125.03845-.03146.09375-.0625.09375-.0625.03937-.03246.09396-.06271.09375-.0625.0057-.0057.02342-.02343.03125-.03125l.03125-.03125c.0025-.0025-.0044-.02687 0-.03125.0088-.0088.01951-.01951.03125-.03125s.02249-.0225.03125-.03125l.03125-.03125c.271329-.286878.512461-.530426.75-.78125.216013.122046.468935.294627.75.5h.03125v-.03125c.0162.01262.04628.01855.0625.03125-.01819-.01081-.04609.01209-.0625 0 .01932.01271.04139.02012.0625.03125.909014.713076 1.828992 1.560005 2.96875 2.40625h.03125v-.03125c.05477.04174.101316.08395.15625.125.0057.0032.03132.000028.03125 0 .0063.0022.0192.02727.03125.03125 1.82725 1.356152 3.74177 2.344155 5.5625 3.21875a.88006445.88006445 0 0 0 .15625.125c-.02733-.01269-.0059-.00049.0625.03125a.88006445.88006445 0 0 0 .0625 0c.000628.000244.0205-.0039.03125 0v.03125c.03723.01725.08766.01398.125.03125 1.412415.653176 2.893897 1.295994 4.4375 1.875.000451.000268.09909.05229.125.0625.0048.0024.03867.01941.0625.03125.0149.0074.0095.02144.03125.03125.05003.02254.04924-.01259.09375 0 .03132.0089.03426.0263.0625.03125.286427.109027.531519.144269.71875.1875.02786.01706.0723.03962.0625.03125-.0039-.0033.0313.000025.03125 0 .02914.009.102193.02047.125.03125.06151.02908.06564.08296.34375.03125.000059-.000011-.250112-.000014-.25 0s-.09391-.03129-.09375-.03125c.000324.000076-.08031.0044-.09375 0 2.578374 1.080871 4.408358 2.174401 6 4.0625.01004.01191.02123.01927.03125.03125.0024.0048-.0029.02551 0 .03125.0043.0086.02655.02186.03125.03125.0029.0032-.0036.02658 0 .03125.0036.0073.02843-.0056.03125 0-.0021-.0044 0 .03125 0 .03125s.02368.02091.03125.03125c.03913.05344.12677.189238.125.1875l.03125.03125c.01149.01149.0156.01559.03125.03125s.01942.01941.03125.03125c.0059.0059.02761.02761.03125.03125.0022.0022.02693-.0043.03125 0l.03125.03125c.01174.01174.02248.02247.03125.03125.0044.0044-.0025.02874 0 .03125 0 0 .09636.09567.09375.09375.0028.0021.02553-.0043.03125 0-.000327-.000332.02689-.0038.03125 0 .0073.0055-.0078.02537 0 .03125.0072.0063.02307-.0072.03125 0 .0074.0055-.0059.02681 0 .03125.0073.0064.02667-.004.03125 0 .0018.0014-.0014.03017 0 .03125 0 0 .09318.09332.09375.09375.0035.0026.02537-.0044.03125 0 .01176.0088.01559.01951.03125.03125s.01972.0226.03125.03125c.0058.0043.02829-.0022.03125 0-.0017-.0013 0 .03125 0 .03125s.09364.03119.09375.03125c.0042.0025-.0073.02686 0 .03125.01464.0088.04293.01951.0625.03125s.04798.02253.0625.03125c-.000977-.000592.03125 0 .03125 0s.03129.03127.03125.03125c.000766.000382.02959-.00083.03125 0 .01169.0058.01559.02343.03125.03125.01566.0078.05095.02547.0625.03125 0 0 .169972.0459.21875.0625.0087.0029.03195.03138.03125.03125.01417.0028.04293-.0039.0625 0s.04756-.003.0625 0c.0075.0015-.0049.03027 0 .03125-.0027-.0011.03125 0 .03125 0s.09353.03119.09375.03125c.0034.000843.02539-.0015.03125 0 .01172.0029.0156.02734.03125.03125.01565.0039.05102-.0029.0625 0 0 0 .222766.0312.21875.03125.03191.0032.0918-.0035.125 0 .0071.0014-.0032.0306 0 .03125-.0042-.0009.03125 0 .03125 0a.88006445.88006445 0 0 0 .125 0c.00082.000017.03031-.000018.03125 0 .0176.00013.06414.000703.09375 0-.01448.000343-.01282.001.03125 0a.88006445.88006445 0 0 0 .03125 0h.03125c.02576.000434.04631.000095.0625 0a.88006445.88006445 0 0 0 .15625 0c.0044-.000738.02261.0014.03125 0 .01036-.0017.01776-.02901.03125-.03125a.88006445.88006445 0 0 0 .125 0s.265905-.05368.3125-.0625c-.000392.000076.0237.0022.03125 0 .0142-.0057.04292-.02344.0625-.03125.01957-.0039.04826.0028.0625 0-.004.000744.03125 0 .03125 0s.156611-.06265.15625-.0625c.01458-.0058.04293-.02342.0625-.03125.01957-.0078.04798-.02545.0625-.03125 0 0 .158063-.0636.15625-.0625.01444-.0087.04292-.01951.0625-.03125s.04781-.02244.0625-.03125c.0073-.0044-.0043-.02865 0-.03125 0 0 .09631-.06446.09375-.0625.0028-.0021.02553.0043.03125 0 .01145-.0086.01559-.01951.03125-.03125s.01944-.0224.03125-.03125c.0059-.0044.02767.0027.03125 0 0 0 .000717-.03179 0-.03125.0032-.0024.02544.0044.03125 0 .01163-.0087.01559-.01951.03125-.03125s.01962-.02253.03125-.03125c.0058-.0044.02807.0024.03125 0 .0013-.000981-.0018-.02991 0-.03125.0036-.0027.02535.0044.03125 0 .0118-.0089.0156-.0195.03125-.03125s.0198-.02266.03125-.03125c.0057-.0043.02847.0021.03125 0 0 0 .09385-.09385.09375-.09375.0033-.0033.02541-.0254.03125-.03125.01168-.01169.01559-.01559.03125-.03125s.01964-.01964.03125-.03125l.03125-.03125s.09489-.09529.09375-.09375c.0022-.003-.0043-.02548 0-.03125.0087-.01155.01951-.0156.03125-.03125s.02247-.01955.03125-.03125c.0044-.0059-.0025-.0279 0-.03125.000312-.000415.03118.000097.03125 0 0 0 .03227-.09547.03125-.09375.0023-.0038.02692.0072.03125 0 .0087-.01446.0195-.04293.03125-.0625.01477-.02186.03125-.0625.03125-.0625.01173-.01566.02274-.0199.03125-.03125.0043-.0057-.0019-.0287 0-.03125l-.03125-.03125-.65625-.5-.78125-.40625s.442217.159062.875.3125l.625.53125c1.570812-1.831959 3.437533-2.895025 6-3.96875.124646-.05223.141161-.06405.0625-.03125.191925-.04298.468287-.09963.78125-.21875.01499-.0057.01606-.0253.03125-.03125.01385-.0015.01616.0017.03125 0a.88006445.88006445 0 0 0 .09375 0c.02179-.0098.01635-.02385.03125-.03125.02384-.01184.05768-.02881.0625-.03125 1.595732-.592298 3.113641-1.266886 4.5625-1.9375.0022-.000607.09162-.03054.09375-.03125.0021-.000711.09165-.03044.09375-.03125.0021-.000814.06045-.03033.0625-.03125a.88006445.88006445 0 0 0 .0625-.0625c.02838-.01359.06533-.01761.09375-.03125a.88006445.88006445 0 0 0 .09375-.0625c1.802389-.867221 3.693151-1.846489 5.5-3.1875.0078-.0026.03135-.03129.03125-.03125.0072-.0054.02406.0054.03125 0 .05493-.04105.101477-.08326.15625-.125v.03125h.03125c1.139746-.84624 2.059726-1.693163 2.96875-2.40625.02111-.01113.04318-.01854.0625-.03125-.01641.0121-.04431-.01082-.0625 0 .01622-.0127.0463-.01863.0625-.03125v.03125c.0086-.0057.02309.006.03125 0 .281063-.205373.533991-.377955.75-.5.237536.250822.478663.494365.75.78125l.625-.59375c-.310751.303104-.578256.609423-.59375.625l.03125.03125.03125.03125c.0044.0044-.0025.02877 0 .03125.0059.0059.02342.02343.03125.03125l.03125.03125s.0536.02978.09375.0625c.0061.0061.02342.02343.03125.03125.0037.003.000057.03129 0 .03125.0036.0036.0285-.0027.03125 0 .02948.0243.0625.03125.0625.03125.03692.03013.06224.06233.0625.0625.00046.000306.03003.03044.03125.03125.0087.0058.01951-.0078.03125 0s.02252.02543.03125.03125c0 0 .0655.03374.125.0625.02975.01438.04588.02317.0625.03125.01016.0049.03161.03137.03125.03125.01296.0063.0407-.01056.0625 0 .0099.0049.03125.03125.03125.03125.04709.02282.09417.06264.09375.0625.0018.00059.02702-.0014.03125 0 .0054.0036.02712-.0028.03125 0 0 0 .0282-.000893.03125 0 .0055.0018-.0045.02975 0 .03125.0021.000684.02696-.0014.03125 0 .0093.0046.02475-.0032.03125 0 .07752.02274.143851.06239.25.09375.01188.0035.02085-.0031.03125 0 .01174.0039.02276.02842.03125.03125.0032.0011.02671-.0015.03125 0 .01115.0034.06288-.000004.0625 0 .0054.0018-.0042.02986 0 .03125 0 0 .282599.03124.28125.03125.0054.0018.02725-.0013.03125 0 0 0 .05011.000114.0625 0 .08671-.000801.352641.000163.4375 0 .01212-.000023.06284-.000117.0625 0 .004-.0013.02586.0018.03125 0 0 0 .28258-.0317.28125-.03125.0042-.0014-.0054-.02944 0-.03125.02741-.0043.03151.0049.0625 0 .0045-.0015.02805.0011.03125 0 .0085-.0028.01951-.02734.03125-.03125.01076-.0017.0251.00096.03125 0 .105634-.03286.173939-.0703.25-.09375.02819-.0087.0941-.03149.09375-.03125.01105-.0054.02123.0049.03125 0 .0042-.0014.02947.00059.03125 0 0 0 .04696-.03941.09375-.0625.0092-.0031.01951-.02732.03125-.03125.0225-.011.0531-.01155.09375-.03125.01623-.008.03395-.0172.0625-.03125.01022-.0049.03125-.03125.03125-.03125.03801-.01872.0936-.03115.09375-.03125.0087-.0058.01951-.02342.03125-.03125.01174-.0078.0225.0058.03125 0 .0012-.000814.03079-.03094.03125-.03125 0 0 .02419-.03084.0625-.0625.0089-.006.01951-.02342.03125-.03125.038452-.031458.09375-.0625.09375-.0625.03937-.03246.09396-.06271.09375-.0625.0057-.0057.02342-.02343.03125-.03125l.03125-.03125c.0025-.0025-.0044-.02687 0-.03125l.03125-.03125.03125-.03125-.59375-.625.65625.59375c.500752-.537803.985585-1.287234 1.4375-2.09375.0021-.0017.09179-.09191.09375-.09375.00049-.000459-.0073-.02404 0-.03125.02182-.02164.06111-.02979.0625-.03125.0019-.0019.09202-.0917.09375-.09375.0017-.0021.06089-.0916.0625-.09375.0016-.0021.06101-.06026.0625-.0625.0015-.0022.06115-.09143.0625-.09375.0014-.0023.03003-.122604.03125-.125.0012-.0024.06143-.09129.0625-.09375.0029-.0069-.0031-.02349 0-.03125.0028-.0067-.0029-.02376 0-.03125.0024-.0062-.0025-.0242 0-.03125.0031-.0085.02787-.02117.03125-.03125.0031-.0098-.003-.0202 0-.03125.0041-.01004-.0041-.02122 0-.03125.01331-.057.02989-.179535.03125-.21875.0014.05254.0032.08149 0 .125.598175-1.522078.724467-2.965283.8125-4.09375a.88006445.88006445 0 0 0 0-.03125c.0015-.01933.02975-.04336.03125-.0625a.88006445.88006445 0 0 0 .03125-.15625c.112341-1.468551.03587-3.001241-.3125-4.5625h.03125c-.342179-1.58436-.777347-3.364746-1.71875-5.15625a.88006445.88006445 0 0 0 -.0625-.09375c-.0014-.0034-.03024.0025-.03125 0-.0023-.0058.000018-.03122 0-.03125-.0003-.000509.0045-.02399 0-.03125-.000203-.000444-.02888.0048-.03125 0-.0036-.0072.0062-.0188 0-.03125-.000679-.00074-.02043-.0204-.03125-.03125-.000426-.000639.0075-.0206 0-.03125a.88006445.88006445 0 0 0 -.03125-.03125v-.03125a.88006445.88006445 0 0 0 -.125-.15625l-.0625-.0625-.03125.03125c-.256559-.412549-.735822-.887556-1.375-1.34375-.0073-.0052.0073-.02607 0-.03125a.88006445.88006445 0 0 0 -.0625-.09375s-.215498-.185421-.21875-.1875c-.01061-.0068-.0444-.01971-.0625-.03125-.03619-.02309-.0746-.06151-.125-.09375-.03877-.0248-.05521-.0063-.09375-.03125a.88006445.88006445 0 0 0 -.03125 0c-.0031-.003.01113-.02112 0-.03125-.0069-.0062-.03753-.01184-.0625-.03125a.88006445.88006445 0 0 0 -.3125-.1875c-.01921-.0063-.04313.006-.0625 0-.116248-.03585-.253669.0239-.375 0-.02899.0071-.04028-.0073-.0625 0-.52889-.09444-1.070004-.194937-1.625 0-.706555.248171-1.17607.726029-1.375.9375-.184484.196115-.263974.342794-.34375.46875l-.03125.03125c-.0086.01376-.02383.05072-.03125.0625-.002.0032-.02934-.003-.03125 0a.88006445.88006445 0 0 0 0 .03125.88006445.88006445 0 0 0 -.03125 0c-.01006.01514.0112.01323 0 .03125-.01758.02482-.03026.06101-.03125.0625-.01082.01085-.03057.03051-.03125.03125a.88006445.88006445 0 0 0 -.09375.125c-.37238.600345-1.439541 1.44437-2.75 2.28125-.0019.0012-.0919.06117-.09375.0625-.0018.0013-.06072.06108-.0625.0625-.0018.0014-.06079.06099-.0625.0625-.000656.00058-.01906.01993-.03125.03125-.0073.0068-.02394-.0068-.03125 0-.01218.01132-.03062.03064-.03125.03125-.03254.03245-.09171.09153-.09375.09375-1.303521.884362-2.757899 1.984071-3.8125 3.71875a.88006445.88006445 0 0 0 0 .03125c-.429055.716881-.63683 1.574234-.8125 2.4375-.01241.01531-.03124.03123-.03125.03125-.000072.000103-.06242.124831-.0625.125-.00047.000987-.0588.08266-.0625.09375s.0027.02294 0 .03125c-.0053.01662-.0256.04486-.03125.0625-.0113.03528-.0089.08528 0 .0625a.88006445.88006445 0 0 0 -.0625.15625c-.0037.01934.0016.0362 0 .0625a.88006445.88006445 0 0 0 0 .03125c-.0012.02689-.0011.03228 0 .0625-.02152.07214-.05789.124814-.0625.1875a.88006445.88006445 0 0 0 0 .03125c-.000106.0023-.000012.09141 0 .09375.000012.0023-.00013.09142 0 .09375.00013.0023-.000248.09143 0 .09375.000248.0023.03088.09144.03125.09375.000365.0023-.000481.09146 0 .09375.000481.0023.03065.09149.03125.09375.000596.0023.03054.09152.03125.09375.000709.0022.03043.09156.03125.09375.000821.0022.03032.09161.03125.09375.00093.0021.03021.06041.03125.0625.001.0021.06136.09171.0625.09375.0011.002.03001.09177.03125.09375.000622.00099.01832.01177.03125.03125.0043.165013.08407.455842.25.84375-.114449.07355-.224356.180602-.34375.25-.01958.01138-.04268.01998-.0625.03125-.0275.01235-.04967.02506-.0625.03125-.0053.0026-.03116-.00005-.03125 0-2.40266 1.27888-4.91724 2.36678-7.5 3.125-1.149721.318109-1.526606.41588-2.125.46875v-29.0625h8.09375c2.054936 0 3.8125-1.699846 3.8125-3.84375v-2.75c0-2.128325-1.753744-3.8125-3.8125-3.8125h-5.9375c1.461061-1.671081 2.438238-3.799095 2.4375-6.25.0017-5.623042-4.619745-10.25-10.25-10.25zm-.15625 9.40625c.291339 0 .44217.07174.53125.15625s.15632.206296.15625.4375c.000114.380534-.303224.6875-.6875.6875-.384304 0-.687615-.306949-.6875-.6875-.00007-.231216.06717-.352995.15625-.4375.089076-.084505.239898-.15625.53125-.15625zm-23.125 31.125c-.0052-.02114.02192-.04346.03125 0 .0023.01087-.0047.02962 0 .0625-.0058-.03095-.02865-.05193-.03125-.0625zm46.53125 0c.0093-.04345.03646-.02113.03125 0-.0026.01057-.02542.03155-.03125.0625.0047-.03286-.0023-.05164 0-.0625zm-7.875 9.03125c-.01651.02603-.01078.107868-.03125.15625-.0012.0028-.03004-.0029-.03125 0 .03594-.12648.117074-.242311.0625-.15625zm15.90625 5.3125c.0075.02074.03129.06273.03125.0625.0016.0046.000016.03135 0 .03125.0043.01601-.000014.0623 0 .0625-.006-.02275-.01207-.08432-.03125-.15625zm-26.34375 2.125h.03125l.15625.84375s-.09105-.425105-.1875-.84375zm.1875 0h.03125l.0625.8125s-.04456-.410135-.09375-.8125zm-2.96875 12.78125c.25961.09245.544473.209812.5625.21875-.0012.0051.000607.02885 0 .03125z" opacity=".05"/><path d="m48 13.96875c-5.147654 0-9.376546 4.234732-9.375 9.375-.000898 2.995204 1.561874 5.478967 3.75 7.125h-8.125c-1.585928 0-2.9375 1.308985-2.9375 2.9375v2.75c0 1.584862 1.28756 2.96875 2.9375 2.96875h8.96875v30.90625c-.09287.01211-.147613.0193-.25.03125a1.0188664 1.0188664 0 0 0 -.03125 0 1.0188664 1.0188664 0 0 0 -.15625-.03125c-.971873-.006-1.456796-.218649-2.8125-.59375-2.658721-.78052-5.232139-1.878627-7.6875-3.1875-.0084-.0047-.02288.0046-.03125 0-.515779-.286307-.921034-.586866-1.375-.875.152727-.120017.364696-.211514.46875-.34375.234207-.29764.177059-.675668.25-1.03125a1.0188664 1.0188664 0 0 0 .3125-.78125c-.0067-.09178-.04487-.0942-.0625-.15625-.03029-.106601-.05702-.269751-.0625-.28125-.006-.01259.0053.119444.03125.21875-.112992-1.008048-.429771-1.953882-.90625-2.75-.975699-1.604895-2.368797-2.662882-3.65625-3.53125a1.0188664 1.0188664 0 0 0 -.03125-.03125c-.01155-.0078-.01972-.02352-.03125-.03125a1.0188664 1.0188664 0 0 0 -.21875-.1875c-1.337954-.854438-2.495125-1.698161-3.03125-2.5625a1.0188664 1.0188664 0 0 0 -.0625-.0625c.01656.0248-.0076-.04205 0-.03125a1.0188664 1.0188664 0 0 0 -.0625-.0625c-.01026-.01702.0125-.01084 0-.03125.000152.000159-.01531-.01531-.03125-.03125-.0061-.0098-.02476-.02109-.03125-.03125-.08627-.134987-.178065-.292617-.34375-.46875-.174638-.185651-.504006-.513284-1-.6875-.547884-.192443-1.045159-.169261-1.5625 0-.03636.0095-.02083-.01481-.0625 0a1.0188664 1.0188664 0 0 0 -.46875.34375 1.0188664 1.0188664 0 0 0 0 .03125c-.799812.470833-1.280412 1.05061-1.5 1.4375.000318-.000304-.0628.06282-.0625.0625a1.0188664 1.0188664 0 0 0 -.15625.25c-.879625 1.673943-1.285879 3.367273-1.625 4.9375-.326552 1.463439-.388085 2.915861-.28125 4.3125a1.0188664 1.0188664 0 0 0 .03125.03125c.09696 1.225134.183394 2.738294.84375 4.28125.01964.04726.03932.0229.0625.0625.478696 1.097396 1.175579 1.914327 1.75 2.53125-.000344-.000363.09411.0941.09375.09375-.000362-.000346.06288.06283.0625.0625-.000379-.000327.09415.06281.09375.0625-.000395-.000307.06291.06279.0625.0625-.00041-.000287.09417.06276.09375.0625-.000424-.000265.09419.03149.09375.03125-.000437-.000243.0942.06272.09375.0625-.000449-.000221.09421.03145.09375.03125-.000459-.000198.09422.03142.09375.03125-.000469-.000174.09423.06265.09375.0625-.000477-.00015.09423.000126.09375 0-.000484-.000126.09424.03135.09375.03125-.00049-.000101.09424.03133.09375.03125-.000494-.000076.09425.000051.09375 0-.000498-.000051.1255.000025.125 0s.09425.03125.09375.03125.09425-.03127.09375-.03125c-.0005.000025.125498-.000051.125 0s.09424-.000076.09375 0c-.000494.000076.09424-.03135.09375-.03125-.00049.000101.09423-.03138.09375-.03125-.000484.000126.09423-.00015.09375 0-.000477.00015.09422-.06267.09375-.0625-.000469.000174.09421-.03145.09375-.03125-.000459.000198.0942-.03147.09375-.03125-.000449.000221.09419-.06274.09375-.0625-.000437.000243.09417-.03151.09375-.03125-.000424.000265.09416-.06279.09375-.0625-.00041.000287.0629-.06281.0625-.0625-.000395.000307.09413-.06283.09375-.0625-.000379.000327.06286-.06285.0625-.0625-.000362.000346.09409-.09411.09375-.09375.373901-.395329.742608-.801159 1.0625-1.125.218952-.214379.103157-.119587.0625-.125.270625.03483.873174.362896 1.53125.84375.01035.0076.02087-.0077.03125 0 .96388.750728 1.906235 1.602202 3.03125 2.4375.0071.0053.02414-.0053.03125 0 1.855818 1.414201 3.833663 2.426022 5.75 3.34375a1.0188664 1.0188664 0 0 0 .03125.03125c.02046.0095.04202.02175.0625.03125a1.0188664 1.0188664 0 0 0 .09375.03125c1.478437.685105 3.027459 1.375779 4.625 1.96875.0072.0043.05954.01393.09375.03125.02395.01213.03881.02058.0625.03125.01015.0046.0226-.0035.03125 0 .290005.116035.529901.17646.71875.21875.131838.02952.147462.03288.15625.03125.0038-.000707.117061.05075.0625.03125 2.654579 1.112817 4.666216 2.301876 6.375 4.34375.0047.0057-.0047.02557 0 .03125.01637.02829.09409.125543.09375.125-.000401-.000637.06295.125604.0625.125-.000449-.000604.125493.125568.125.125s.09428.09428.09375.09375c-.000535-.000529.125574.09424.125.09375-.000574-.000486.09436.09419.09375.09375-.00061-.000441.125642.09414.125.09375-.000642-.000393.15692.09409.15625.09375-.00067-.000343.125694.06279.125.0625-.000694-.000291.156964.03149.15625.03125-.000714-.000237.15698.06268.15625.0625-.00073-.000182.125742.03137.125.03125-.000742-.000125.156999.000068.15625 0s.157003.03126.15625.03125c-.000301-.000004.0329.000703.0625 0 .0148-.000351.01645.000349.03125 0 .0296-.000698.0628-.000019.0625 0 .01191.000002.0314-.000005.03125 0 .03195.000538.06282-.000008.0625 0-.000812.00002.188308-.03134.1875-.03125-.000808.000087.157048-.000153.15625 0s.157032-.06272.15625-.0625c-.000782.000218.157012-.03153.15625-.03125-.000762.000282.156986-.06284.15625-.0625-.000736.000344.156955-.09415.15625-.09375-.000705.000403.125669-.09421.125-.09375s.125629-.09426.125-.09375c-.000629.000514.125585-.09431.125-.09375-.000585.000564.125536-.12561.125-.125s.09423-.125652.09375-.125c-.000484.000652.09418-.15694.09375-.15625-.000429.00069.09412-.125723.09375-.125-.000217.000424.01143-.05076.03125-.09375.0082-.0177.02648-.02091.03125-.03125 1.684813-1.964913 3.694695-3.121837 6.3125-4.21875.02317-.0097.03923-.02155.0625-.03125.0088.0016.02441-.0017.15625-.03125.188845-.04229.428753-.102721.71875-.21875.0086-.0035.0211.0046.03125 0 .02368-.01067.03856-.01913.0625-.03125.02202-.0096.10819-.03983.09375-.03125 1.588402-.589577 3.123104-1.287526 4.59375-1.96875a1.0188664 1.0188664 0 0 0 .1875-.0625 1.0188664 1.0188664 0 0 0 .03125-.03125c1.916341-.917728 3.894182-1.929548 5.75-3.34375.0071-.0053.02415.0053.03125 0 1.125006-.835296 2.067363-1.686763 3.03125-2.4375.01038-.0077.0209.0076.03125 0 .658067-.48085 1.260597-.808913 1.53125-.84375-.04061.0054-.156447-.08938.0625.125.319888.323837.68859.729665 1.0625 1.125-.000344-.000363.09411.0941.09375.09375-.000362-.000346.06288.06283.0625.0625-.000379-.000327.09414.06281.09375.0625-.000395-.000307.06291.06279.0625.0625-.00041-.000287.09417.06276.09375.0625-.000424-.000265.09419.03149.09375.03125-.000437-.000243.0942.06272.09375.0625-.000449-.000221.09421.03145.09375.03125-.000459-.000198.09422.03142.09375.03125-.000469-.000174.09423.06265.09375.0625-.000477-.00015.09423.000126.09375 0-.000484-.000126.09424.03135.09375.03125-.00049-.000101.09424.03133.09375.03125-.000494-.000076.09425.000051.09375 0-.000498-.000051.1255.000025.125 0s.09425.03125.09375.03125.09425-.03127.09375-.03125c-.0005.000025.125498-.000051.125 0s.09424-.000076.09375 0c-.000494.000076.09424-.03135.09375-.03125-.00049.000101.09423-.03138.09375-.03125-.000484.000126.09423-.00015.09375 0-.000477.00015.09422-.06267.09375-.0625-.000469.000174.09421-.03145.09375-.03125-.000459.000198.0942-.03147.09375-.03125-.000449.000221.09419-.06274.09375-.0625-.000437.000243.09417-.03151.09375-.03125-.000424.000265.09416-.06279.09375-.0625-.00041.000287.06289-.06281.0625-.0625-.000395.000307.09413-.06283.09375-.0625-.000379.000327.06286-.06285.0625-.0625-.000362.000346.09409-.09411.09375-.09375.495101-.531734 1.038011-1.307617 1.5-2.1875.0031-.0059.02815.0059.03125 0a1.0188664 1.0188664 0 0 0 .28125-.375c.0089-.02109-.0075-.01145 0-.03125.009-.02166-.0075-.01105 0-.03125.64912-1.532841.747404-3.032677.84375-4.25a1.0188664 1.0188664 0 0 0 .03125-.03125c.106841-1.396657.04528-2.849084-.28125-4.3125-.339125-1.570218-.745372-3.263555-1.625-4.9375a1.0188664 1.0188664 0 0 0 -.0625-.0625c-.0023-.004.0024-.02701 0-.03125a1.0188664 1.0188664 0 0 0 -.0625-.09375 1.0188664 1.0188664 0 0 0 -.03125-.0625c.000304.000318-.06282-.0628-.0625-.0625-.221102-.389553-.68966-.998039-1.5-1.46875-.0078-.0045-.02336.0045-.03125 0-.0016-.003.000018-.03123 0-.03125-.000246-.000294-.377486-.24028-.4375-.28125-.005-.0034-.03122-.03124-.03125-.03125-.0195-.006-.01307.0047-.03125 0-.517366-.169279-1.01464-.192431-1.5625 0-.496001.174216-.825372.501863-1 .6875-.165686.176132-.257483.33376-.34375.46875-.0065.01016-.02517.02146-.03125.03125-.01594.01594-.0314.03141-.03125.03125a1.0188664 1.0188664 0 0 0 -.0625.09375c.0076-.01079-.01655.05603 0 .03125a1.0188664 1.0188664 0 0 0 -.0625.0625c-.536135.864348-1.6933 1.708064-3.03125 2.5625a1.0188664 1.0188664 0 0 0 -.15625.125 1.0188664 1.0188664 0 0 0 -.0625.0625c-1.306621.875632-2.725523 1.960023-3.71875 3.59375-.471612.787986-.789518 1.722841-.90625 2.71875.02277-.07266.03642-.198343.03125-.1875-.0038.0079-.04173.134097-.0625.1875-.0031.01619.0022.01541 0 .03125-.0023.02065.0021.04177 0 .0625-.01763.06204-.05575.06447-.0625.15625a1.0188664 1.0188664 0 0 0 .28125.75 1.0188664 1.0188664 0 0 0 .03125.03125c.07294.355585.0158.733617.25 1.03125.10405.132231.316022.223732.46875.34375-.453966.288134-.859221.588693-1.375.875-.0084.0046-.02286-.0047-.03125 0-2.455364 1.308873-5.02878 2.40698-7.6875 3.1875-1.35572.375106-1.840656.587741-2.8125.59375a1.0188664 1.0188664 0 0 0 -.0625 0c.000945-.000065-.188434.03141-.1875.03125.000607-.000101-.06895.01912-.125.03125.000192-.000034-.05179.0013-.0625 0v-30.96875h8.96875c1.56246 0 2.9375-1.311638 2.9375-2.96875v-2.75c0-1.642307-1.360588-2.9375-2.9375-2.9375h-8.125c2.188124-1.646032 3.750902-4.129793 3.75-7.125.0015-5.140262-4.227357-9.375-9.375-9.375zm-.15625 7.65625c.950022-.000001 1.562764.594875 1.5625 1.46875.000257.858836-.699749 1.5625-1.5625 1.5625-.862766-.000001-1.562759-.703658-1.5625-1.5625-.000263-.873885.612465-1.46875 1.5625-1.46875z" opacity=".08"/><path d="m48 15c-4.591503 0-8.345129 3.759802-8.34375 8.34375-.000963 3.21033 1.938909 5.823347 4.59375 7.1875v.96875h-10c-1.013129 0-1.90625.854446-1.90625 1.90625v2.75c0 1.0116.853846 1.9375 1.90625 1.9375h10v32.71875c-.0394.01962-.04357.06354-.15625.09375-.323997.08687-.836519.137491-1.3125.1875v-.03125c-1.140975-.0071-1.788776-.295185-3.09375-.65625-2.738716-.804004-5.385291-1.903993-7.90625-3.25-1.060633-.588028-2.017731-1.161743-2.90625-1.875-.01244-.01062-.01896-.02056-.03125-.03125-.172057-.149614-.354024-.320499-.4375-.4375-.08944-.125358-.06217-.160634-.0625-.15625.0073-.02502-.007-.04511 0-.0625.04017.0087.219712.0775.59375.21875.04114.01554.01606.01372.0625.03125v-.03125c.27737.102626.63448.124642.90625.03125.290492-.09983.483889-.25817.625-.4375.254-.322794.329141-.691238.28125-1.125h.0625c-.0025-.03431-.02804-.05966-.03125-.09375-.00096-.01022.001-.02105 0-.03125-.08655-.864293-.389372-1.668022-.8125-2.375-.920535-1.514157-2.305225-2.56825-3.625-3.4375a.98923895.98923895 0 0 0 0-.03125c-1.353924-.864637-2.638673-1.738278-3.34375-2.875a.98923895.98923895 0 0 0 -.03125-.03125c-.03616-.05416-.118073-.25812-.375-.53125-.128464-.136565-.315882-.30865-.59375-.40625-.268605-.09435-.630892-.09009-.90625 0-.0095.0031-.02192-.0033-.03125 0v.03125c-.961309.334376-1.342015 1.128275-1.59375 1.5625a.98923895.98923895 0 0 0 -.03125.03125c-.806832 1.535416-1.195982 3.135114-1.53125 4.6875-.299821 1.343646-.350744 2.714239-.25 4.03125.09716 1.227605.202592 2.616685.78125 3.96875.0062.01489.02494.01648.03125.03125.403095.943974 1.033667 1.679726 1.59375 2.28125a.98923895.98923895 0 0 0 1.4375 0c.36471-.385611.751411-.809685 1.09375-1.15625.316712-.310097.58608-.448875.90625-.40625.629474.08102 1.319605.506684 2.03125 1.03125 1.008095.78392 1.963114 1.622818 3.0625 2.4375 1.769822 1.352531 3.686919 2.336824 5.59375 3.25a.98923895.98923895 0 0 0 .03125 0c1.565565.72703 3.18068 1.453548 4.84375 2.0625.03438.01502.02962.0181.0625.03125.449655.179913.794645.210113.90625.25 2.805582 1.170109 5.031192 2.462386 6.90625 4.75a.98923895.98923895 0 0 0 0 .03125.98923895.98923895 0 0 0 .96875.59375.98923895.98923895 0 0 0 .0625 0 .98923895.98923895 0 0 0 1-.6875.98923895.98923895 0 0 0 .03125-.0625c1.853767-2.208822 4.079855-3.472541 6.84375-4.625.111618-.03989.456604-.07009.90625-.25.03288-.01315.02812-.01623.0625-.03125 1.663074-.608951 3.278188-1.335472 4.84375-2.0625a.98923895.98923895 0 0 0 .03125 0c1.906835-.913176 3.823928-1.897468 5.59375-3.25 1.099381-.814682 2.054402-1.653574 3.0625-2.4375.711638-.524563 1.401765-.950226 2.03125-1.03125.32019-.04262.589548.09616.90625.40625.342336.346562.729034.770635 1.09375 1.15625a.98923895.98923895 0 0 0 1.4375 0c.560084-.601526 1.190654-1.337283 1.59375-2.28125h.03125c.0037-.0087-.0036-.02251 0-.03125.578663-1.352065.684091-2.741149.78125-3.96875.100749-1.317017.04981-2.687614-.25-4.03125-.335273-1.552383-.724417-3.152084-1.53125-4.6875a.98923895.98923895 0 0 0 -.03125-.03125c-.251735-.434222-.632452-1.228117-1.59375-1.5625-.0065-.0023.0066-.02903 0-.03125-.0093-.0033-.02175.0031-.03125 0-.275362-.0901-.637643-.09435-.90625 0-.277869.0976-.465284.269685-.59375.40625-.256932.273131-.338825.477065-.375.53125a.98923895.98923895 0 0 0 -.03125.03125c-.705085 1.136726-1.989829 2.010365-3.34375 2.875a.98923895.98923895 0 0 0 0 .03125c-1.319781.86925-2.704465 1.923342-3.625 3.4375-.423134.706987-.72594 1.510725-.8125 2.375-.0023.01194.002.01945 0 .03125-.0032.03409-.02873.05944-.03125.09375h.0625c-.0479.433772.02725.802205.28125 1.125.141112.179331.334502.337674.625.4375.271776.09339.628877.07139.90625-.03125v.03125c.04645-.01753.02136-.01571.0625-.03125.374036-.141251.553584-.21008.59375-.21875.007.01738-.0073.03748 0 .0625-.000332-.0044.02694.03089-.0625.15625-.08348.117-.265436.28788-.4375.4375-.01229.01069-.01881.02063-.03125.03125-.888515.713257-1.845617 1.286972-2.90625 1.875-2.520962 1.346007-5.167535 2.445996-7.90625 3.25-1.304984.361068-1.952788.649195-3.09375.65625a.98923895.98923895 0 0 0 -.1875.03125c-.322622.05751-.763947-.02519-1.0625-.15625-.116886-.05131-.173486-.08929-.21875-.125v-32.71875h10c1.027891 0 1.90625-.809037 1.90625-1.9375v-2.75c0-1.051785-.914494-1.90625-1.90625-1.90625h-10v-.96875c2.654836-1.364153 4.594717-3.977168 4.59375-7.1875.001359-4.583945-3.75226-8.34375-8.34375-8.34375zm-.15625 5.59375c1.454601-.000001 2.594179 1.080662 2.59375 2.5.000425 1.419335-1.170548 2.59375-2.59375 2.59375-1.423211-.000001-2.594178-1.174412-2.59375-2.59375-.000427-1.419341 1.139141-2.5 2.59375-2.5z" opacity=".2"/><path d="m47.999998 16c-4.055617 0-7.334552 3.285396-7.333334 7.333333-.000916 3.054258 1.920022 5.576141 4.583334 6.674479v2.492188h-11c-.486938 0-.916667.39897-.916667.916667v2.75c0 .517697.398166.916666.916667.916666h11v33.916667c0 .941791-1.571584.961362-2.463542 1.059896-1.306778-.0081-2.101268-.341564-3.351563-.6875-2.823575-.825657-5.519111-1.969943-8.10677-3.351563-1.089483-.604023-2.153021-1.192856-3.122396-1.976562-.417815-.356455-.903781-.871834-.859375-1.460938.05644-.445952.282272-.921019.773437-1.002604.442684-.07011.840325.167338 1.231771.315104.337446.145517.569602-.263781.515625-.544271-.0543-.738926-.30469-1.422887-.6875-2.0625-.796456-1.310064-2.022134-2.284521-3.294271-3.122395-1.358227-.867385-2.806176-1.821056-3.666666-3.208334-.171181-.25639-.361288-.680589-.744792-.544271-.533132.172922-.82742.695418-1.088542 1.145834-.734692 1.398133-1.101046 2.906347-1.432291 4.440104-.272306 1.220339-.324283 2.509164-.229167 3.752604.09847 1.244155.183629 2.50481.6875 3.666667.317322.763526.87598 1.379088 1.432292 1.976562.354978-.375322.725382-.778191 1.088541-1.145833.470619-.472454 1.058623-.779199 1.747396-.6875.937459.120657 1.784126.688732 2.520833 1.231771 1.037703.806944 2.007807 1.651403 3.065105 2.434896 1.673034 1.278564 3.518369 2.214553 5.414062 3.122395 1.579378.733445 3.202172 1.466017 4.841146 2.0625.293511.128188.617842.12237.916667.229167 2.949775 1.226784 5.434764 2.654621 7.476562 5.213542.0029.03511-.0029.109761 0 .143229.02349-.03034.06237-.05592.08594-.08589.02349.02998.06252.05564.08594.08589.01542-.07067-.01517-.158198 0-.229167 2.035399-2.529239 4.544678-3.908254 7.476563-5.127604.298827-.106796.623153-.100981.916666-.229167 1.638976-.596481 3.261769-1.329057 4.841146-2.0625 1.895696-.907841 3.741028-1.84383 5.414063-3.122395 1.057296-.783495 2.027401-1.627949 3.065104-2.434896.736707-.543042 1.583376-1.111106 2.520833-1.231771.688773-.09169 1.276777.215038 1.747396.6875.363158.367641.733561.770511 1.088542 1.145833.556312-.597475 1.114967-1.213039 1.432291-1.976562.503874-1.161853.589031-2.422515.6875-3.666667.09512-1.243436.04313-2.532264-.229166-3.752604-.33125-1.533758-.6976-3.041973-1.432292-4.440104-.261122-.450414-.555407-.972905-1.088542-1.145834-.383497-.136324-.573622.287881-.744791.544271-.860496 1.387278-2.308441 2.34095-3.666667 3.208334-1.272141.837873-2.497814 1.812328-3.294271 3.122395-.382812.639616-.633188 1.323572-.6875 2.0625-.05398.280492.178185.689799.515625.544271.391445-.147767.789087-.385216 1.231771-.315104.491166.0816.716996.556652.773437 1.002604.04442.589103-.441559 1.104479-.859375 1.460938-.969373.783709-2.032913 1.37254-3.122395 1.976562-2.587661 1.381619-5.283196 2.525906-8.106771 3.351563-1.250296.345937-2.044783.67942-3.351563.6875-1.12276.200131-2.463541-.409432-2.463541-1.059896v-33.916667h11c.423811 0 .916666-.367406.916666-.916666v-2.75c0-.533479-.429728-.916667-.916666-.916667h-11v-2.492188c2.663306-1.098339 4.584253-3.620221 4.583333-6.674479.0012-4.047937-3.277731-7.333333-7.333333-7.333333zm-.14323 3.580729c1.968741-.000001 3.581324 1.55842 3.58073 3.523438.000588 1.96502-1.611988 3.580729-3.58073 3.580729-1.968748-.000001-3.609967-1.615706-3.609375-3.580729-.000591-1.965018 1.640628-3.523438 3.609375-3.523438z" opacity=".3"/><path d="m47.999998 15c-4.055617 0-7.334552 3.285396-7.333334 7.333333-.000916 3.054258 1.920022 5.576141 4.583334 6.674479v2.492188h-11c-.486938 0-.916667.39897-.916667.916667v2.75c0 .517697.398166.916666.916667.916666h11v33.916667c0 .941791-1.571584.961362-2.463542 1.059896-1.306778-.0081-2.101268-.341564-3.351563-.6875-2.823575-.825657-5.519111-1.969943-8.10677-3.351563-1.089483-.604023-2.153021-1.192856-3.122396-1.976562-.417815-.356455-.903781-.871834-.859375-1.460938.05644-.445952.282272-.921019.773437-1.002604.442684-.07011.840325.167338 1.231771.315104.337446.145517.569602-.263781.515625-.544271-.0543-.738926-.30469-1.422887-.6875-2.0625-.796456-1.310064-2.022134-2.284521-3.294271-3.122395-1.358227-.867385-2.806176-1.821056-3.666666-3.208334-.171181-.25639-.361288-.680589-.744792-.544271-.533132.172922-.82742.695418-1.088542 1.145834-.734692 1.398133-1.101046 2.906347-1.432291 4.440104-.272306 1.220339-.324283 2.509164-.229167 3.752604.09847 1.244155.183629 2.50481.6875 3.666667.317322.763526.87598 1.379088 1.432292 1.976562.354978-.375322.725382-.778191 1.088541-1.145833.470619-.472454 1.058623-.779199 1.747396-.6875.937459.120657 1.784126.688732 2.520833 1.231771 1.037703.806944 2.007807 1.651403 3.065105 2.434896 1.673034 1.278564 3.518369 2.214553 5.414062 3.122395 1.579378.733445 3.202172 1.466017 4.841146 2.0625.293511.128188.617842.12237.916667.229167 2.949775 1.226784 5.434764 2.654621 7.476562 5.213542.0029.03511-.0029.109761 0 .143229.02349-.03034.06237-.05592.08594-.08589.02349.02998.06252.05564.08594.08589.01542-.07067-.01517-.158198 0-.229167 2.035399-2.529239 4.544678-3.908254 7.476563-5.127604.298827-.106796.623153-.100981.916666-.229167 1.638976-.596481 3.261769-1.329057 4.841146-2.0625 1.895696-.907841 3.741028-1.84383 5.414063-3.122395 1.057296-.783495 2.027401-1.627949 3.065104-2.434896.736707-.543042 1.583376-1.111106 2.520833-1.231771.688773-.09169 1.276777.215038 1.747396.6875.363158.367641.733561.770511 1.088542 1.145833.556312-.597475 1.114967-1.213039 1.432291-1.976562.503874-1.161853.589031-2.422515.6875-3.666667.09512-1.243436.04313-2.532264-.229166-3.752604-.33125-1.533758-.6976-3.041973-1.432292-4.440104-.261122-.450414-.555407-.972905-1.088542-1.145834-.383497-.136324-.573622.287881-.744791.544271-.860496 1.387278-2.308441 2.34095-3.666667 3.208334-1.272141.837873-2.497814 1.812328-3.294271 3.122395-.382812.639616-.633188 1.323572-.6875 2.0625-.05398.280492.178185.689799.515625.544271.391445-.147767.789087-.385216 1.231771-.315104.491166.0816.716996.556652.773437 1.002604.04442.589103-.441559 1.104479-.859375 1.460938-.969373.783709-2.032913 1.37254-3.122395 1.976562-2.587661 1.381619-5.283196 2.525906-8.106771 3.351563-1.250296.345937-2.044783.67942-3.351563.6875-1.12276.200131-2.463541-.409432-2.463541-1.059896v-33.916667h11c.423811 0 .916666-.367406.916666-.916666v-2.75c0-.533479-.429728-.916667-.916666-.916667h-11v-2.492188c2.663306-1.098339 4.584253-3.620221 4.583333-6.674479.0012-4.047937-3.277731-7.333333-7.333333-7.333333zm-.14323 3.580729c1.968741-.000001 3.581324 1.55842 3.58073 3.523438.000588 1.96502-1.611988 3.580729-3.58073 3.580729-1.968748-.000001-3.609967-1.615706-3.609375-3.580729-.000591-1.965018 1.640628-3.523438 3.609375-3.523438z" fill="url(#j)"/><path d="m48 15c-4.055617 0-7.344968 3.295813-7.34375 7.34375-.000052.174184.01902.329444.03125.5.256206-3.814584 3.425576-6.84375 7.3125-6.84375 3.88691 0 7.056278 3.029166 7.3125 6.84375.01223-.170556.0313-.325816.03125-.5.0012-4.047937-3.288148-7.34375-7.34375-7.34375zm-3.71875 7.59375c-.02381.163635-.0313.32949-.03125.5-.000592 1.965023 1.625002 3.593749 3.59375 3.59375 1.968742 0 3.594338-1.62873 3.59375-3.59375.000052-.17051-.0078-.336365-.03125-.5-.246485 1.73044-1.764592 3.09375-3.5625 3.09375-1.797914-.000001-3.311872-1.363308-3.5625-3.09375zm-10.03125 8.90625c-.486938 0-.90625.388553-.90625.90625v1c0-.517697.419312-.90625.90625-.90625h11v-1zm16.5 0v1h11c.486938 0 .90625.372771.90625.90625v-1c0-.533479-.419312-.90625-.90625-.90625zm-29.28125 21.90625c-.533132.172922-.832628.705834-1.09375 1.15625-.734692 1.398133-1.106255 2.903743-1.4375 4.4375-.20423.915254-.262744 1.868238-.25 2.8125.03692-.609181.11834-1.222468.25-1.8125.331245-1.533757.702808-3.039367 1.4375-4.4375.261122-.450416.560618-.983328 1.09375-1.15625.383504-.136318.578819.30611.75.5625.86049 1.387278 2.298023 2.320115 3.65625 3.1875 1.272137.837874 2.516044 1.814936 3.3125 3.125.275184.459787.447823.959185.5625 1.46875.08221-.11775.15036-.274468.125-.40625-.0543-.738926-.30469-1.422887-.6875-2.0625-.796456-1.310064-2.040363-2.287126-3.3125-3.125-1.358227-.867385-2.79576-1.800222-3.65625-3.1875-.171181-.25639-.366496-.698818-.75-.5625zm52.8125 0c-.223284.07381-.371623.370207-.5.5625-.860496 1.387278-2.298024 2.320116-3.65625 3.1875-1.272141.837873-2.516043 1.814933-3.3125 3.125-.382812.639616-.633188 1.323572-.6875 2.0625-.02536.131783.04279.288499.125.40625.114677-.509564.287315-1.00896.5625-1.46875.796457-1.310067 2.040359-2.287127 3.3125-3.125 1.358226-.867384 2.795754-1.800222 3.65625-3.1875.171169-.25639.366503-.698824.75-.5625.533135.172929.832628.705836 1.09375 1.15625.734692 1.398131 1.10625 2.903742 1.4375 4.4375.131655.590032.213074 1.203318.25 1.8125.01274-.944261-.04578-1.897245-.25-2.8125-.33125-1.533758-.702808-3.039369-1.4375-4.4375-.261122-.450414-.560615-.983321-1.09375-1.15625-.09587-.03408-.175572-.02461-.25 0zm-46.8125 10.75c-.05689.135974-.106754.293334-.125.4375-.04441.589104.457185 1.081045.875 1.4375.969375.783706 2.004267 1.395977 3.09375 2 2.587659 1.38162 5.301425 2.518093 8.125 3.34375 1.250295.345936 2.036972.6794 3.34375.6875.891958-.098534 2.46875-.120709 2.46875-1.0625v-1c0 .941791-1.576792.963966-2.46875 1.0625-1.306778-.0081-2.093455-.341564-3.34375-.6875-2.823575-.825657-5.537341-1.96213-8.125-3.34375-1.089483-.604023-2.124375-1.216294-3.09375-2-.274127-.233869-.586238-.528371-.75-.875zm41.0625 0c-.163762.346628-.475872.641128-.75.875-.969373.783709-2.004268 1.395978-3.09375 2-2.587661 1.381619-5.301425 2.518093-8.125 3.34375-1.250296.345937-2.03697.67942-3.34375.6875-1.12276.200131-2.46875-.412036-2.46875-1.0625v1c0 .650464 1.34599 1.262631 2.46875 1.0625 1.30678-.0081 2.093454-.341563 3.34375-.6875 2.823575-.825657 5.537339-1.962131 8.125-3.34375 1.089482-.604022 2.124377-1.216291 3.09375-2 .417816-.356459.91942-.848397.875-1.4375-.01825-.144166-.06811-.301528-.125-.4375z" fill="#fefefe"/></svg>