<svg height="96" width="96" xmlns="http://www.w3.org/2000/svg" xmlns:xlink="http://www.w3.org/1999/xlink"><linearGradient id="a"><stop offset="0" stop-color="#520"/><stop offset="1" stop-color="#520" stop-opacity="0"/></linearGradient><linearGradient id="b"><stop offset="0" stop-color="#389bed"/><stop offset="1" stop-color="#c2e5fc"/></linearGradient><linearGradient id="c"><stop offset="0" stop-color="#0d82e4"/><stop offset="1" stop-color="#bcdbf7"/></linearGradient><linearGradient id="d"><stop offset="0" stop-color="#a8d4fb"/><stop offset="1" stop-color="#dff0fa"/></linearGradient><linearGradient id="e"><stop offset="0" stop-color="#fefefe"/><stop offset="1" stop-color="#fefefe" stop-opacity="0"/></linearGradient><linearGradient id="f" gradientUnits="userSpaceOnUse" x1="36.357143" x2="36.357143" xlink:href="#e" y1="6" y2="63.893143"/><filter id="g" color-interpolation-filters="sRGB" height="1.384" width="1.384" x="-.192" y="-.192"><feGaussianBlur stdDeviation="5.28"/></filter><linearGradient id="h" gradientUnits="userSpaceOnUse" x1="48" x2="48" xlink:href="#e" y1="20.220806" y2="138.66119"/><radialGradient id="i" cx="48" cy="90.171875" gradientTransform="matrix(1.1573129 0 0 .99590774 -7.551021 .197132)" gradientUnits="userSpaceOnUse" r="42" xlink:href="#e"/><clipPath id="j"><rect height="84" rx="6" width="84" x="6" y="6"/></clipPath><linearGradient id="k" gradientUnits="userSpaceOnUse" x1="48" x2="48" y1="90" y2="5.987717"><stop offset="0" stop-color="#0b1d59"/><stop offset="1" stop-color="#1768c5"/></linearGradient><linearGradient id="l" gradientTransform="matrix(1.0058652 0 0 .994169 100 0)" gradientUnits="userSpaceOnUse" x1="45.447727" x2="45.447727" y1="92.539597" y2="7.01654"><stop offset="0"/><stop offset="1" stop-opacity=".588235"/></linearGradient><linearGradient id="m" gradientTransform="matrix(1.0238095 0 0 1.0119048 -1.142857 -98.071429)" gradientUnits="userSpaceOnUse" x1="32.251034" x2="32.251034" xlink:href="#l" y1="6.131708" y2="90.238609"/><linearGradient id="n" gradientTransform="translate(0 -97)" gradientUnits="userSpaceOnUse" x1="32.251034" x2="32.251034" xlink:href="#l" y1="6.131708" y2="90.238609"/><linearGradient id="o" gradientUnits="userSpaceOnUse" x1="31" x2="48.03513" xlink:href="#d" y1="47.979362" y2="47.979362"/><linearGradient id="p" gradientUnits="userSpaceOnUse" x1="48.077351" x2="65.11248" xlink:href="#d" y1="47.979362" y2="47.979362"/><linearGradient id="q" gradientUnits="userSpaceOnUse" x1="27.3953" x2="48.11248" xlink:href="#c" y1="59.064777" y2="59.064777"/><linearGradient id="r" gradientUnits="userSpaceOnUse" x1="48" x2="69.017853" xlink:href="#c" y1="59.064777" y2="59.064777"/><linearGradient id="s" gradientUnits="userSpaceOnUse" x1="47.916752" x2="76.623817" y1="33.304859" y2="33.304859"><stop offset="0" stop-color="#5cacf5"/><stop offset="1" stop-color="#abd4f4"/></linearGradient><linearGradient id="t" gradientUnits="userSpaceOnUse" x1="19.288221" x2="47.995289" y1="33.25" y2="33.25"><stop offset="0" stop-color="#5aabf2"/><stop offset="1" stop-color="#badaf5"/></linearGradient><linearGradient id="u" gradientUnits="userSpaceOnUse" x1="19.068768" x2="47.885559" xlink:href="#b" y1="53.649677" y2="53.649677"/><linearGradient id="v" gradientUnits="userSpaceOnUse" x1="47.916729" x2="76.733521" xlink:href="#b" y1="53.649677" y2="53.649677"/><linearGradient id="w" gradientUnits="userSpaceOnUse" x1="31.085375" x2="48.11248" y1="59.064777" y2="59.064777"><stop offset="0" stop-color="#1b8cee"/><stop offset="1" stop-color="#79b8e8"/></linearGradient><linearGradient id="x" gradientUnits="userSpaceOnUse" x1="48" x2="69.017853" y1="59.064777" y2="59.064777"><stop offset="0" stop-color="#107cd9"/><stop offset="1" stop-color="#79b8e8"/></linearGradient><linearGradient id="y" gradientUnits="userSpaceOnUse" x1="53.245571" x2="53.245571" xlink:href="#a" y1="77.264755" y2="21.94384"/><linearGradient id="z" gradientUnits="userSpaceOnUse" x1="47.835155" x2="48.321796" xlink:href="#a" y1="74.687927" y2="28.007326"/><g><g fill="url(#m)"><path d="m12-95.03125c-5.5110903 0-10.03125 4.52016-10.03125 10.03125v71c0 5.5110902 4.5201598 10.03125 10.03125 10.03125h72c5.51109 0 10.03125-4.5201597 10.03125-10.03125v-71c0-5.51109-4.52016-10.03125-10.03125-10.03125z" opacity=".08" transform="scale(1 -1)"/><path d="m12-94.03125c-4.971633 0-9.03125 4.059617-9.03125 9.03125v71c0 4.9716329 4.0596171 9.03125 9.03125 9.03125h72c4.971633 0 9.03125-4.059617 9.03125-9.03125v-71c0-4.971633-4.059617-9.03125-9.03125-9.03125z" opacity=".1" transform="scale(1 -1)"/><path d="m12-93c-4.4091333 0-8 3.590867-8 8v71c0 4.4091333 3.5908667 8 8 8h72c4.409133 0 8-3.5908667 8-8v-71c0-4.409133-3.590867-8-8-8z" opacity=".2" transform="scale(1 -1)"/><rect height="85" opacity=".3" rx="7" transform="scale(1 -1)" width="86" x="5" y="-92"/></g><rect fill="url(#n)" height="84" opacity=".45" rx="6" transform="scale(1 -1)" width="84" x="6" y="-91"/></g><g><rect fill="url(#k)" height="84" rx="6" width="84" x="6" y="6"/><path d="m12 6c-3.324 0-6 2.676-6 6v2 68 2c0 .334721.04135.6507.09375.96875.0487.295596.09704.596915.1875.875.00988.03038.020892.0636.03125.09375.098865.287771.2348802.547452.375.8125.1445918.273507.3156161.535615.5.78125s.3737765.473472.59375.6875c.439947.428056.94291.814526 1.5 1.09375.278545.139612.5734731.246947.875.34375-.2562018-.100222-.4867109-.236272-.71875-.375-.00741-.0044-.023866.0045-.03125 0-.031933-.0193-.062293-.04251-.09375-.0625-.120395-.0767-.2310226-.163513-.34375-.25-.1061728-.0808-.2132809-.161112-.3125-.25-.1779299-.161433-.3474596-.345388-.5-.53125-.1075789-.130255-.2183939-.265285-.3125-.40625-.025089-.03838-.038446-.08587-.0625-.125-.064763-.103032-.1302275-.204517-.1875-.3125-.1010083-.194706-.2056748-.415701-.28125-.625-.00796-.02181-.023589-.04055-.03125-.0625-.0318251-.09195-.0358045-.186831-.0625-.28125-.0303323-.106618-.0703894-.203031-.09375-.3125-.0728786-.341512-.125-.698205-.125-1.0625v-2-68-2c0-2.781848 2.2181517-5 5-5h2 68 2c2.781848 0 5 2.218152 5 5v2 68 2c0 .364295-.05212.720988-.125 1.0625-.04415.206893-.08838.397658-.15625.59375-.0077.02195-.0233.04069-.03125.0625-.06274.173739-.138383.367449-.21875.53125-.04158.0828-.07904.169954-.125.25-.0546.09721-.126774.18835-.1875.28125-.09411.140965-.204921.275995-.3125.40625-.143174.17445-.303141.346998-.46875.5-.01117.0102-.01998.02115-.03125.03125-.138386.125556-.285091.234436-.4375.34375-.102571.07315-.204318.153364-.3125.21875-.0074.0045-.02384-.0044-.03125 0-.232039.138728-.462548.274778-.71875.375.301527-.0968.596455-.204138.875-.34375.55709-.279224 1.060053-.665694 1.5-1.09375.219973-.214028.409366-.441865.59375-.6875s.355408-.507743.5-.78125c.14012-.265048.276135-.524729.375-.8125.01041-.03078.02133-.06274.03125-.09375.09046-.278085.1388-.579404.1875-.875.0524-.31805.09375-.634029.09375-.96875v-2-68-2c0-3.324-2.676-6-6-6z" fill="url(#f)" opacity=".5"/><path d="m12 90c-3.324 0-6-2.676-6-6v-2-68-2c0-.334721.04135-.6507.09375-.96875.0487-.295596.09704-.596915.1875-.875.00988-.03038.020892-.0636.03125-.09375.098865-.287771.2348802-.547452.375-.8125.1445918-.273507.3156161-.535615.5-.78125s.3737765-.473472.59375-.6875c.439947-.428056.94291-.814526 1.5-1.09375.278545-.139612.5734731-.246947.875-.34375-.2562018.100222-.4867109.236272-.71875.375-.00741.0044-.023866-.0045-.03125 0-.031933.0193-.062293.04251-.09375.0625-.120395.0767-.2310226.163513-.34375.25-.1061728.0808-.2132809.161112-.3125.25-.1779299.161433-.3474596.345388-.5.53125-.1075789.130255-.2183939.265285-.3125.40625-.025089.03838-.038446.08587-.0625.125-.064763.103032-.1302275.204517-.1875.3125-.1010083.194706-.2056748.415701-.28125.625-.00796.02181-.023589.04055-.03125.0625-.0318251.09195-.0358045.186831-.0625.28125-.0303323.106618-.0703894.203031-.09375.3125-.0728786.341512-.125.698205-.125 1.0625v2 68 2c0 2.781848 2.2181517 5 5 5h2 68 2c2.781848 0 5-2.218152 5-5v-2-68-2c0-.364295-.05212-.720988-.125-1.0625-.04415-.206893-.08838-.397658-.15625-.59375-.0077-.02195-.0233-.04069-.03125-.0625-.06274-.173739-.138383-.367449-.21875-.53125-.04158-.0828-.07904-.169954-.125-.25-.0546-.09721-.126774-.18835-.1875-.28125-.09411-.140965-.204921-.275995-.3125-.40625-.143174-.17445-.303141-.346998-.46875-.5-.01117-.0102-.01998-.02115-.03125-.03125-.138386-.125556-.285091-.234436-.4375-.34375-.102571-.07315-.204318-.153364-.3125-.21875-.0074-.0045-.02384.0044-.03125 0-.232039-.138728-.462548-.274778-.71875-.375.301527.0968.596455.204138.875.34375.55709.279224 1.060053.665694 1.5 1.09375.219973.214028.409366.441865.59375.6875s.355408.507743.5.78125c.14012.265048.276135.524729.375.8125.01041.03078.02133.06274.03125.09375.09046.278085.1388.579404.1875.875.0524.31805.09375.634029.09375.96875v2 68 2c0 3.324-2.676 6-6 6z" fill="url(#i)" opacity=".2"/></g><rect height="66" rx="12" style="opacity:.1;stroke:#fefefe;stroke-width:.5;stroke-linecap:round;clip-path:url(#j);fill:url(#h);filter:url(#g)" width="66" x="15" y="15"/><g fill="url(#y)"><path d="m36.0625 20.53125a1.0566354 1.0566354 0 0 0 -.375.09375c-3.236851 1.54755-6.059887 3.67115-9 5.3125a1.0566354 1.0566354 0 0 0 -.0625.03125c-3.187868 2.02748-6.654855 3.863874-9.84375 6.15625a1.0566354 1.0566354 0 0 0 -.1875.1875c-.548347.672318-.843795 1.418183-.84375 2.15625s.273534 1.397495.625 1.9375c.666884 1.024626 1.599926 1.732206 2.3125 2.3125.0357.0421.08814.08334.125.125 1.122089 1.268007 2.751725 2.316708 4.15625 3.375 1.243546.936997 1.90644 1.777735 2.1875 2.3125-2.926183 2.395535-6.058915 4.644332-8.90625 7.3125a1.0566354 1.0566354 0 0 0 -.21875.28125c-.459359.84228-.593073 1.719223-.40625 2.5s.645536 1.39124 1.15625 1.875c1.021428.967519 2.316598 1.579911 3.09375 2.09375a1.0566354 1.0566354 0 0 0 .03125 0c2.546665 1.628596 5.090532 3.224665 7.59375 4.875-.0587 1.185825.251147 2.287626.9375 3.0625.825551.932024 1.916649 1.547898 2.84375 2.03125v.03125c.03759.02635.08741.03613.125.0625 5.014154 3.51744 9.973265 7.187759 15.125 10.5625a1.0566354 1.0566354 0 0 0 .3125.15625c1.513141.423542 2.854848-.21468 3.84375-.90625s1.818779-1.456754 2.5-1.8125a1.0566354 1.0566354 0 0 0 .125-.09375c4.67167-3.38712 9.54982-6.533301 14.21875-10.0625a1.0566354 1.0566354 0 0 0 .3125-.375c.567218-1.138897.675647-2.190772.90625-2.8125s.362012-.856583 1.375-1.125a1.0566354 1.0566354 0 0 0 .3125-.15625c2.909016-1.924154 6.08098-3.643556 8.96875-5.875a1.0566354 1.0566354 0 0 0 .21875-.25c.869327-1.263538.668078-2.780629.03125-3.8125-.594996-.96409-1.495736-1.616524-2.3125-2.125l.03125-.03125c-.05337-.04801-.133313-.07706-.1875-.125-2.199166-1.945544-4.863419-3.816418-6.53125-5.5 2.906965-2.521705 6.004433-4.948344 8.8125-7.6875a1.0566354 1.0566354 0 0 0 .1875-.28125c.480281-.93358.587678-1.894688.3125-2.71875s-.836009-1.452903-1.4375-1.9375c-1.202983-.969195-2.719362-1.597253-3.46875-2.125a1.0566354 1.0566354 0 0 0 -.0625-.03125c-4.800363-2.882857-9.531564-5.898466-14.4375-8.6875a1.0566354 1.0566354 0 0 0 -.3125-.125c-1.613487-.34663-2.941617.454024-3.875 1.28125s-1.687782 1.705829-2.34375 2.09375a1.0566354 1.0566354 0 0 0 -.0625.03125c-1.267661.882218-2.434387 2.098856-3.5625 3.125-.988775.8994-1.903645 1.470685-2.65625 1.78125-3.211857-2.634171-6.260303-5.648222-9.75-8.15625a1.0566354 1.0566354 0 0 0 -.21875-.125c-.685546-.277774-1.281837-.216781-1.625-.21875a1.0566354 1.0566354 0 0 0 -.09375 0z" opacity=".05"/><path d="m36.15625 21.59375c-3.11202 1.487868-5.947267 3.586995-8.968666 5.273724-3.238132 2.059448-6.673647 3.867277-9.781334 6.101276-1.718019 2.106431.615013 3.833892 2.096332 5.054956 1.897732 2.238169 6.709048 4.47438 7.046575 6.714937-3.16527 2.655087-6.575957 5.07096-9.580407 7.886357-1.459629 2.676372 1.749738 3.931457 3.504798 5.091872 2.679286 1.713407 5.376038 3.400011 8.026452 5.158128-.711335 2.376744 1.565758 3.91405 3.375 4.84375 5.065088 3.550629 10.091821 7.246038 15.25 10.625 2.261001.632875 3.770616-1.682764 5.554776-2.614485 4.702616-3.409557 9.59929-6.575372 14.226474-10.073015.930009-1.867332.38408-3.816775 2.934145-4.49248 2.958571-1.956932 6.110231-3.688131 8.909605-5.85127 1.288049-1.872136-.574843-3.689453-2.09375-4.59375-2.378531-2.139534-5.811139-4.272972-7.5625-6.40625 3.189054-2.823848 6.59187-5.478805 9.625-8.4375 1.53236-2.978632-2.406054-4.130045-4.242931-5.423641-4.816331-2.892446-9.569521-5.929885-14.444569-8.701359-2.417754-.519413-3.675878 2.183955-5.47771 3.249508-2.284176 1.589653-4.638487 4.716994-6.904768 5.327486-3.480083-2.784841-6.679705-6.025206-10.273772-8.608244-.392542-.159053-.808917-.122648-1.21875-.125z" opacity=".1"/><path d="m36.3125 22.53125a.80774307.80774307 0 0 0 -.3125.125c-5.864787 3.526154-11.844527 7.141703-17.6875 10.75a.80774307.80774307 0 0 0 -.21875.21875c-.279021.385356-.401754.921024-.28125 1.34375s.388311.683668.625.90625c.473377.445164 1.008184.778161 1.125.90625a.80774307.80774307 0 0 0 .0625.09375c2.958674 2.538312 5.984957 4.980459 8.875 7.53125-.02031.01581-.0067.01411-.03125.03125-.232119.161903-.636516.425729-1 .8125l-.03125-.03125c-3.14791 2.552255-6.331953 5.061416-9.46875 7.65625a.80774307.80774307 0 0 0 -.1875.21875c-.219363.383366-.296981.889951-.15625 1.28125s.38662.654858.625.84375c.47676.377784 1.017215.596198 1.1875.71875a.80774307.80774307 0 0 0 .03125.03125c3.332036 2.153237 6.708122 4.194981 9.96875 6.375.06811.426712-.09472 1.059797-.03125 1.96875a.80774307.80774307 0 0 0 .125.375c.819403 1.228396 2.236272 1.687117 2.90625 2.28125a.80774307.80774307 0 0 0 .0625.0625c4.920145 3.434697 9.842475 6.959758 14.78125 10.34375a.80774307.80774307 0 0 0 .34375.125c.822244.136774 1.463905-.298514 1.90625-.65625s.790046-.657431 1-.75a.80774307.80774307 0 0 0 .15625-.09375c5.08402-3.644668 10.302704-7.224188 15.375-10.8125a.80774307.80774307 0 0 0 .125-.125c.319835-.349054.437226-.78979.46875-1.15625.03152-.36646.000202-.659642-.03125-.9375-.05872-.518709-.02865-.770646.03125-.875 3.683539-2.377882 7.470481-4.691123 11.125-7.15625a.80774307.80774307 0 0 0 .3125-.34375c.17911-.436276.149161-.969293-.03125-1.34375s-.439012-.616079-.6875-.8125c-.496977-.392842-.993535-.694816-1.09375-.8125a.80774307.80774307 0 0 0 -.125-.09375c-2.926501-2.395887-5.899163-4.713645-8.75-7.125.01889-.01522.0088-.01485.03125-.03125.232781-.170322.643176-.403401 1-.8125l.03125.03125c3.084662-2.662992 6.261103-5.304508 9.3125-8.03125a.80774307.80774307 0 0 0 .1875-.25c.190709-.410459.209833-.932534.03125-1.3125s-.464922-.607658-.71875-.78125c-.507657-.347184-1.019314-.58294-1.15625-.6875a.80774307.80774307 0 0 0 -.09375-.03125c-5.360455-3.2265-10.715195-6.578018-16.09375-9.75a.80774307.80774307 0 0 0 -.28125-.125c-.844755-.121184-1.45979.410057-1.875.8125s-.779328.797274-.96875.90625a.80774307.80774307 0 0 0 -.125.0625c-2.928262 2.482033-5.785773 5.030986-8.71875 7.4375-.08758-.042-.137757-.04278-.3125-.21875-.238795-.240476-.549763-.61283-1-.90625-.03934-.03327-.08567-.06043-.125-.09375-3.063867-2.595365-6.128469-5.339778-9.25-7.875a.80774307.80774307 0 0 0 -.28125-.15625c-.263252-.07915-.470236-.06797-.625-.0625a.80774307.80774307 0 0 0 -.0625 0z" opacity=".15"/></g><path d="m36.40625 22.34375c-.03257.0074.000838.02199-.03125.03125-.03209.0093-.03101-.01112-.0625 0s-.000457.01832-.03125.03125c-.03079.01293-.0013-.0147-.03125 0-.02999.0147-.0022.01483-.03125.03125-.02908.01642-.0032-.01809-.03125 0a.49998753.49998753 0 0 1 -.03125.03125l-17.25 10.5c-.02886.01761-.0035-.01928-.03125 0-.02777.01928-.0047.01037-.03125.03125-.02658.02088-.0059.0088-.03125.03125-.02531.02241-.0073.0074-.03125.03125-.02394.02387-.0088.006-.03125.03125-.02249.02524-.01028.0047-.03125.03125-.02097.02652-.01188.0035-.03125.03125-.01937.02771.0177.0024 0 .03125-.0177.0288-.01528.0015-.03125.03125-.01597.02979-.01706.03182-.03125.0625s.01235-.000217 0 .03125c-.01235.03147-.02077-.00089-.03125.03125s.0086-.0015 0 .03125c-.0086.0327.0066.02935 0 .0625s.0047-.0022 0 .03125c-.0047.03348-.02858-.0024-.03125.03125-.0027.0337.000683.0287 0 .0625s-.0013-.0025 0 .03125c.0013.03378-.0033.02886 0 .0625s.02597-.0021.03125.03125c.0053.03339-.0072-.0018 0 .03125.0072.03302-.0092.02996 0 .0625s.02018-.00069.03125.03125-.01293.000018 0 .03125c.01293.03123.0165.000835.03125.03125.01475.03041-.01652.03301 0 .0625s.01302.0028.03125.03125c.01823.02847.01137.0039.03125.03125.01988.02734.0098.0051.03125.03125.02145.02612-.02296.0064 0 .03125.02296.02481.0069.0078.03125.03125.02438.02342.0055.0093.03125.03125l10.5 8.875a.49998753.49998753 0 0 1 0 .75l-10.6875 8.59375c-.02626.02113-.0063.0086-.03125.03125-.02498.02263-.0076.0072-.03125.03125-.0236.02406-.0091.0058-.03125.03125-.02215.02541-.01064.0046-.03125.03125-.02061.02667-.01224.0034-.03125.03125-.01901.02783.01734.0336 0 .0625s-.01563.0014-.03125.03125c-.01562.02987-.01742.000513-.03125.03125-.01383.03074.012-.000246 0 .03125-.012.0315-.02112-.000897-.03125.03125-.01013.03215.0082.02981 0 .0625s.0063-.0019 0 .03125c-.0063.03311.0043-.0022 0 .03125-.0043.03343-.02889.02888-.03125.0625-.0024.03362.000378-.0025 0 .03125-.000378.0337-.0016.02883 0 .0625s.02767-.0023.03125.03125c.0036.03352-.0055-.002 0 .03125s-.0075.02964 0 .0625-.0094-.0011 0 .03125c.0094.03237.01996-.000508.03125.03125.01129.03176-.01314.000211 0 .03125.01314.03104.01631.03229.03125.0625s-.01669.002 0 .03125c.01669.02928.01287.003.03125.03125s.01124.0041.03125.03125c.02001.02712.0097.0054.03125.03125.02157.0259.0082.0067.03125.03125.02306.02459.0068.0081.03125.03125.02446.02319.0055.0095.03125.03125.02578.02171.0042.01109.03125.03125.01351.01008.02949-.0012.03125 0l11.40625 7.25a.49998753.49998753 0 0 1 .21875.4375l-.03125 1.375a.49998753.49998753 0 0 1 -.03125.1875c-.0093.02251-.02296.0084-.03125.03125-.0083.02288.0073.008 0 .03125-.0073.02322.0063.0077 0 .03125-.0063.0235.0053.0075 0 .03125s-.02695.0073-.03125.03125c-.0043.02396.0033.0071 0 .03125-.0033.02412.0023.007 0 .03125-.0023.02423.0012.0069 0 .03125-.0012.02431.000188.0069 0 .03125-.000188.02434-.000845.0069 0 .03125.000845.02432-.0019.007 0 .03125.0019.02426-.0029.0071 0 .03125.0029.02416-.0039.0072 0 .03125.0039.02402.02631.0074.03125.03125.006.0236-.0069.0079 0 .03125.0069.02332-.0079.0082 0 .03125.0079.02301.02235.0086.03125.03125s-.0099.009 0 .03125-.01079.0094 0 .03125c.01079.02181.01954.0099.03125.03125.01171.02134-.0126.01043 0 .03125s.01778.01098.03125.03125c.01432.01968.0161.0122.03125.03125s.01531.01286.03125.03125-.01671.01355 0 .03125.01381-.01697.03125 0 .0131.01503.03125.03125-.01882.01582 0 .03125.01179-.01462.03125 0 .01119.01747.03125.03125l17.0625 12c.01799.01269.01279-.01199.03125 0s.01234.01998.03125.03125c.01933.01054.01153.02146.03125.03125.01972.0098.01117-.009.03125 0s.01084-.0082.03125 0 .01054.02379.03125.03125c.02071.0075.01027-.0067.03125 0 .02122.0058.0098.02622.03125.03125.02143.005.0096-.0042.03125 0 .02161.0042.0095-.0034.03125 0s.0094-.0025.03125 0c.02187.0025.0093-.0017.03125 0s.0093-.000845.03125 0c.022.000845.0092 0 .03125 0 .022-.000845.0093.0017.03125 0s.0094.0025.03125 0c.02187-.0025.0095.0034.03125 0s.0096.0042.03125 0c.02161-.0042.0098.005.03125 0 .02143-.005.01003-.0254.03125-.03125.02098-.0067.01054.0075.03125 0s.01084-.023.03125-.03125c.02041-.0082.01117.009.03125 0s.01153.0098.03125 0 .01192-.02071.03125-.03125c.01891-.01127.01279-.01926.03125-.03125s.01326.01269.03125 0l10.59375-7.5a.49998753.49998753 0 0 1 .03125 0 .49998753.49998753 0 0 1 .0625-.0625.49998753.49998753 0 0 1 .03125 0l.0625-.03125 6.15625-4.3125a.49998753.49998753 0 0 1 .03125-.03125c.02269-.01366.0092.01469.03125 0 .02204-.01469.0099-.01555.03125-.03125a.49998753.49998753 0 0 1 .03125-.03125c.01829-.01034.01335.011.03125 0 .0089-.0055.03012.000724.03125 0 .0011-.000724-.0087-.02543 0-.03125.01704-.01228.01467-.01835.03125-.03125a.49998753.49998753 0 0 1 .0625-.0625.49998753.49998753 0 0 1 .03125-.03125c.01847-.01903-.01757-.01139 0-.03125s.01462-.0106.03125-.03125.0156-.0098.03125-.03125c.01465-.0221.01764-.0085.03125-.03125.01361-.02276-.01254-.0079 0-.03125.01254-.02336.0198-.0073.03125-.03125.01145-.02392-.01033-.0068 0-.03125.01033-.02442.02206-.0064.03125-.03125.0092-.02487-.008-.006 0-.03125.008-.02527-.0069-.0056 0-.03125.0069-.02562-.0057-.0053 0-.03125.0057-.0259.02679-.0051.03125-.03125.0045-.02614-.0032-.0049 0-.03125.0032-.02632-.002-.0048 0-.03125.002-.02644-.000799-.0047 0-.03125l-.03125-2.03125a.49998753.49998753 0 0 1 .21875-.4375l11.0625-7.03125c.0018-.0012.01774.01008.03125 0 .02701-.02016.0055-.0095.03125-.03125.02578-.02171.0068-.0081.03125-.03125.02446-.02319.0082-.0067.03125-.03125.02306-.02459.0097-.0054.03125-.03125.02157-.0259.01124-.0041.03125-.03125.02001-.02712.01287-.003.03125-.03125s.01456-.002.03125-.03125c.01669-.02928-.01494-.001 0-.03125.01494-.03021.01811-.03146.03125-.0625s-.01129.000508 0-.03125c.01129-.03176.02184.0011.03125-.03125.0094-.03237-.0075.0016 0-.03125.0075-.03286-.0055-.02925 0-.0625s-.0036.0023 0-.03125c.0036-.03352.02965.0024.03125-.03125.0016-.03367.000378-.0288 0-.0625s.0024.0024 0-.03125c-.0024-.03362-.02692-.02907-.03125-.0625-.0043-.03343.0063.0019 0-.03125-.0063-.03311.0082.0014 0-.03125-.0082-.03269.01013-.03035 0-.0625s-.01925.000246-.03125-.03125c-.012-.0315.01383-.000513 0-.03125-.01383-.03074-.01564-.0014-.03125-.03125-.01561-.02987-.01391-.0023-.03125-.03125-.01734-.0289.01901-.03467 0-.0625s-.01063-.0046-.03125-.03125c-.02062-.02667-.0091-.0058-.03125-.03125-.02215-.02541-.0076-.0072-.03125-.03125-.0236-.02406-.0063-.0086-.03125-.03125-.02497-.02263-.005-.01012-.03125-.03125l-10.5625-8.5a.49998753.49998753 0 0 1 0-.75l10.5-8.9375c.02572-.02194.0069-.0078.03125-.03125.02438-.02342.0083-.0064.03125-.03125.02296-.02481-.02145-.0051 0-.03125.02145-.02612.01137-.0039.03125-.03125.01988-.02734.01302-.0028.03125-.03125.01823-.02847.01473-.0018.03125-.03125.01652-.02949-.01475-.03209 0-.0625s.01832-.000018.03125-.03125c.01293-.03123-.01107.00069 0-.03125s.02208.0013.03125-.03125c.0092-.03254-.0072-.02948 0-.0625s-.0053.0021 0-.03125c.0053-.03339.02795.0024.03125-.03125.0033-.03364-.0013-.02872 0-.0625s.000683.0025 0-.03125c-.000683-.0338.0027-.0288 0-.0625s-.02659.0022-.03125-.03125c-.0047-.03348.0066.0019 0-.03125s.0086-.0298 0-.0625.01048.00089 0-.03125-.0189.000217-.03125-.03125c-.01235-.03147.01419-.000566 0-.03125-.01419-.03068-.01528-.03271-.03125-.0625s-.01355-.0024-.03125-.03125c-.0177-.0288.01937-.0035 0-.03125-.01937-.02771-.01028-.0047-.03125-.03125-.02097-.02652-.0088-.006-.03125-.03125-.02249-.02524-.0073-.0074-.03125-.03125-.02394-.02387-.0059-.0088-.03125-.03125-.02531-.02241-.0047-.01037-.03125-.03125-.02658-.02088-.0035-.01197-.03125-.03125-.02777-.01928-.0024.01761-.03125 0l-17.25-10.46875c-.01882-.01153-.012-.02046-.03125-.03125s-.0116.01004-.03125 0-.01123-.02197-.03125-.03125c-.02002-.0093-.01088.0085-.03125 0-.02068-.0077-.01029-.02434-.03125-.03125-.02096-.0069-.01004.0061-.03125 0s-.0098.0053-.03125 0c-.02143-.0053-.0096.0044-.03125 0-.02162-.0044-.0095.0036-.03125 0-.02177-.0036.02189-.02848 0-.03125-.02189-.0028-.0093.0019-.03125 0-.02199-.0019-.0092.0011-.03125 0-.02204-.0011-.0092.00023-.03125 0-.02207-.00023-.0092-.000619-.03125 0-.02206.000619-.0092-.0015-.03125 0-.02202.0015-.0093-.0023-.03125 0s-.0094-.0032-.03125 0c-.02184.0032-.0095.02725-.03125.03125-.02153.0048-.0099-.0057-.03125 0-.02133.0057-.01015-.0065-.03125 0s-.01042.02397-.03125.03125c-.02083.0073-.01071-.0081-.03125 0s-.01104-.0089-.03125 0 .01986.02162 0 .03125c-.01986.0096-.01178-.01039-.03125 0s-.01219-.01113-.03125 0-.01264.01939-.03125.03125c-.01814.01256-.0136.018-.03125.03125s-.01413-.01392-.03125 0l-10.59375 9.125a.49998753.49998753 0 0 1 -.625 0l-10.6875-9.1875c-.02122-.01778-.0092.01673-.03125 0s-.0084-.0156-.03125-.03125c-.02283-.01565-.0077-.01672-.03125-.03125-.02356-.01453-.007.01337-.03125 0-.02424-.01337-.0064-.01906-.03125-.03125s-.0058.01097-.03125 0c-.02541-.01097-.0053-.02152-.03125-.03125-.02591-.0097-.0049.0085-.03125 0s-.0045.0072-.03125 0c-.02673-.0072-.0042-.02536-.03125-.03125-.02705-.0059-.004.0046-.03125 0-.0273-.0046-.0038.0033-.03125 0-.02749-.0033-.0036.0019-.03125 0-.02761-.0019-.03482.000587-.0625 0s-.0036-.000749-.03125 0c-.0166.0018-.02913-.000288-.03125 0-.0021.000288-.01478-.0027-.03125 0-.03295.0055.0013-.0074-.03125 0z" fill="url(#z)" opacity=".3" transform="translate(0 1)"/><path d="m36.40625 22.34375c-.03257.0074.000838.02199-.03125.03125-.03209.0093-.03101-.01112-.0625 0s-.000457.01832-.03125.03125c-.03079.01293-.0013-.0147-.03125 0-.02999.0147-.0022.01483-.03125.03125-.02908.01642-.0032-.01809-.03125 0a.49998753.49998753 0 0 1 -.03125.03125l-17.25 10.5c-.02886.01761-.0035-.01928-.03125 0-.02777.01928-.0047.01037-.03125.03125-.02658.02088-.0059.0088-.03125.03125-.02531.02241-.0073.0074-.03125.03125-.02394.02387-.0088.006-.03125.03125-.02249.02524-.01028.0047-.03125.03125-.02097.02652-.01188.0035-.03125.03125-.01937.02771.0177.0024 0 .03125-.0177.0288-.01528.0015-.03125.03125-.01597.02979-.01706.03182-.03125.0625s.01235-.000217 0 .03125c-.01235.03147-.02077-.00089-.03125.03125s.0086-.0015 0 .03125c-.0086.0327.0066.02935 0 .0625s.0047-.0022 0 .03125c-.0047.03348-.02858-.0024-.03125.03125-.0027.0337.000683.0287 0 .0625s-.0013-.0025 0 .03125c.0013.03378-.0033.02886 0 .0625s.02597-.0021.03125.03125c.0053.03339-.0072-.0018 0 .03125.0072.03302-.0092.02996 0 .0625s.02018-.00069.03125.03125-.01293.000018 0 .03125c.01293.03123.0165.000835.03125.03125.01475.03041-.01652.03301 0 .0625s.01302.0028.03125.03125c.01823.02847.01137.0039.03125.03125.01988.02734.0098.0051.03125.03125.02145.02612-.02296.0064 0 .03125.02296.02481.0069.0078.03125.03125.02438.02342.0055.0093.03125.03125l10.5 8.875a.49998753.49998753 0 0 1 0 .75l-10.6875 8.59375c-.02626.02113-.0063.0086-.03125.03125-.02498.02263-.0076.0072-.03125.03125-.0236.02406-.0091.0058-.03125.03125-.02215.02541-.01064.0046-.03125.03125-.02061.02667-.01224.0034-.03125.03125-.01901.02783.01734.0336 0 .0625s-.01563.0014-.03125.03125c-.01562.02987-.01742.000513-.03125.03125-.01383.03074.012-.000246 0 .03125-.012.0315-.02112-.000897-.03125.03125-.01013.03215.0082.02981 0 .0625s.0063-.0019 0 .03125c-.0063.03311.0043-.0022 0 .03125-.0043.03343-.02889.02888-.03125.0625-.0024.03362.000378-.0025 0 .03125-.000378.0337-.0016.02883 0 .0625s.02767-.0023.03125.03125c.0036.03352-.0055-.002 0 .03125s-.0075.02964 0 .0625-.0094-.0011 0 .03125c.0094.03237.01996-.000508.03125.03125.01129.03176-.01314.000211 0 .03125.01314.03104.01631.03229.03125.0625s-.01669.002 0 .03125c.01669.02928.01287.003.03125.03125s.01124.0041.03125.03125c.02001.02712.0097.0054.03125.03125.02157.0259.0082.0067.03125.03125.02306.02459.0068.0081.03125.03125.02446.02319.0055.0095.03125.03125.02578.02171.0042.01109.03125.03125.01351.01008.02949-.0012.03125 0l11.40625 7.25a.49998753.49998753 0 0 1 .21875.4375l-.03125 1.375a.49998753.49998753 0 0 1 -.03125.1875c-.0093.02251-.02296.0084-.03125.03125-.0083.02288.0073.008 0 .03125-.0073.02322.0063.0077 0 .03125-.0063.0235.0053.0075 0 .03125s-.02695.0073-.03125.03125c-.0043.02396.0033.0071 0 .03125-.0033.02412.0023.007 0 .03125-.0023.02423.0012.0069 0 .03125-.0012.02431.000188.0069 0 .03125-.000188.02434-.000845.0069 0 .03125.000845.02432-.0019.007 0 .03125.0019.02426-.0029.0071 0 .03125.0029.02416-.0039.0072 0 .03125.0039.02402.02631.0074.03125.03125.006.0236-.0069.0079 0 .03125.0069.02332-.0079.0082 0 .03125.0079.02301.02235.0086.03125.03125s-.0099.009 0 .03125-.01079.0094 0 .03125c.01079.02181.01954.0099.03125.03125.01171.02134-.0126.01043 0 .03125s.01778.01098.03125.03125c.01432.01968.0161.0122.03125.03125s.01531.01286.03125.03125-.01671.01355 0 .03125.01381-.01697.03125 0 .0131.01503.03125.03125-.01882.01582 0 .03125.01179-.01462.03125 0 .01119.01747.03125.03125l17.0625 12c.01799.01269.01279-.01199.03125 0s.01234.01998.03125.03125c.01933.01054.01153.02146.03125.03125.01972.0098.01117-.009.03125 0s.01084-.0082.03125 0 .01054.02379.03125.03125c.02071.0075.01027-.0067.03125 0 .02122.0058.0098.02622.03125.03125.02143.005.0096-.0042.03125 0 .02161.0042.0095-.0034.03125 0s.0094-.0025.03125 0c.02187.0025.0093-.0017.03125 0s.0093-.000845.03125 0c.022.000845.0092 0 .03125 0 .022-.000845.0093.0017.03125 0s.0094.0025.03125 0c.02187-.0025.0095.0034.03125 0s.0096.0042.03125 0c.02161-.0042.0098.005.03125 0 .02143-.005.01003-.0254.03125-.03125.02098-.0067.01054.0075.03125 0s.01084-.023.03125-.03125c.02041-.0082.01117.009.03125 0s.01153.0098.03125 0 .01192-.02071.03125-.03125c.01891-.01127.01279-.01926.03125-.03125s.01326.01269.03125 0l10.59375-7.5a.49998753.49998753 0 0 1 .03125 0 .49998753.49998753 0 0 1 .0625-.0625.49998753.49998753 0 0 1 .03125 0l.0625-.03125 6.15625-4.3125a.49998753.49998753 0 0 1 .03125-.03125c.02269-.01366.0092.01469.03125 0 .02204-.01469.0099-.01555.03125-.03125a.49998753.49998753 0 0 1 .03125-.03125c.01829-.01034.01335.011.03125 0 .0089-.0055.03012.000724.03125 0 .0011-.000724-.0087-.02543 0-.03125.01704-.01228.01467-.01835.03125-.03125a.49998753.49998753 0 0 1 .0625-.0625.49998753.49998753 0 0 1 .03125-.03125c.01847-.01903-.01757-.01139 0-.03125s.01462-.0106.03125-.03125.0156-.0098.03125-.03125c.01465-.0221.01764-.0085.03125-.03125.01361-.02276-.01254-.0079 0-.03125.01254-.02336.0198-.0073.03125-.03125.01145-.02392-.01033-.0068 0-.03125.01033-.02442.02206-.0064.03125-.03125.0092-.02487-.008-.006 0-.03125.008-.02527-.0069-.0056 0-.03125.0069-.02562-.0057-.0053 0-.03125.0057-.0259.02679-.0051.03125-.03125.0045-.02614-.0032-.0049 0-.03125.0032-.02632-.002-.0048 0-.03125.002-.02644-.000799-.0047 0-.03125l-.03125-2.03125a.49998753.49998753 0 0 1 .21875-.4375l11.0625-7.03125c.0018-.0012.01774.01008.03125 0 .02701-.02016.0055-.0095.03125-.03125.02578-.02171.0068-.0081.03125-.03125.02446-.02319.0082-.0067.03125-.03125.02306-.02459.0097-.0054.03125-.03125.02157-.0259.01124-.0041.03125-.03125.02001-.02712.01287-.003.03125-.03125s.01456-.002.03125-.03125c.01669-.02928-.01494-.001 0-.03125.01494-.03021.01811-.03146.03125-.0625s-.01129.000508 0-.03125c.01129-.03176.02184.0011.03125-.03125.0094-.03237-.0075.0016 0-.03125.0075-.03286-.0055-.02925 0-.0625s-.0036.0023 0-.03125c.0036-.03352.02965.0024.03125-.03125.0016-.03367.000378-.0288 0-.0625s.0024.0024 0-.03125c-.0024-.03362-.02692-.02907-.03125-.0625-.0043-.03343.0063.0019 0-.03125-.0063-.03311.0082.0014 0-.03125-.0082-.03269.01013-.03035 0-.0625s-.01925.000246-.03125-.03125c-.012-.0315.01383-.000513 0-.03125-.01383-.03074-.01564-.0014-.03125-.03125-.01561-.02987-.01391-.0023-.03125-.03125-.01734-.0289.01901-.03467 0-.0625s-.01063-.0046-.03125-.03125c-.02062-.02667-.0091-.0058-.03125-.03125-.02215-.02541-.0076-.0072-.03125-.03125-.0236-.02406-.0063-.0086-.03125-.03125-.02497-.02263-.005-.01012-.03125-.03125l-10.5625-8.5a.49998753.49998753 0 0 1 0-.75l10.5-8.9375c.02572-.02194.0069-.0078.03125-.03125.02438-.02342.0083-.0064.03125-.03125.02296-.02481-.02145-.0051 0-.03125.02145-.02612.01137-.0039.03125-.03125.01988-.02734.01302-.0028.03125-.03125.01823-.02847.01473-.0018.03125-.03125.01652-.02949-.01475-.03209 0-.0625s.01832-.000018.03125-.03125c.01293-.03123-.01107.00069 0-.03125s.02208.0013.03125-.03125c.0092-.03254-.0072-.02948 0-.0625s-.0053.0021 0-.03125c.0053-.03339.02795.0024.03125-.03125.0033-.03364-.0013-.02872 0-.0625s.000683.0025 0-.03125c-.000683-.0338.0027-.0288 0-.0625s-.02659.0022-.03125-.03125c-.0047-.03348.0066.0019 0-.03125s.0086-.0298 0-.0625.01048.00089 0-.03125-.0189.000217-.03125-.03125c-.01235-.03147.01419-.000566 0-.03125-.01419-.03068-.01528-.03271-.03125-.0625s-.01355-.0024-.03125-.03125c-.0177-.0288.01937-.0035 0-.03125-.01937-.02771-.01028-.0047-.03125-.03125-.02097-.02652-.0088-.006-.03125-.03125-.02249-.02524-.0073-.0074-.03125-.03125-.02394-.02387-.0059-.0088-.03125-.03125-.02531-.02241-.0047-.01037-.03125-.03125-.02658-.02088-.0035-.01197-.03125-.03125-.02777-.01928-.0024.01761-.03125 0l-17.25-10.46875c-.01882-.01153-.012-.02046-.03125-.03125s-.0116.01004-.03125 0-.01123-.02197-.03125-.03125c-.02002-.0093-.01088.0085-.03125 0-.02068-.0077-.01029-.02434-.03125-.03125-.02096-.0069-.01004.0061-.03125 0s-.0098.0053-.03125 0c-.02143-.0053-.0096.0044-.03125 0-.02162-.0044-.0095.0036-.03125 0-.02177-.0036.02189-.02848 0-.03125-.02189-.0028-.0093.0019-.03125 0-.02199-.0019-.0092.0011-.03125 0-.02204-.0011-.0092.00023-.03125 0-.02207-.00023-.0092-.000619-.03125 0-.02206.000619-.0092-.0015-.03125 0-.02202.0015-.0093-.0023-.03125 0s-.0094-.0032-.03125 0c-.02184.0032-.0095.02725-.03125.03125-.02153.0048-.0099-.0057-.03125 0-.02133.0057-.01015-.0065-.03125 0s-.01042.02397-.03125.03125c-.02083.0073-.01071-.0081-.03125 0s-.01104-.0089-.03125 0 .01986.02162 0 .03125c-.01986.0096-.01178-.01039-.03125 0s-.01219-.01113-.03125 0-.01264.01939-.03125.03125c-.01814.01256-.0136.018-.03125.03125s-.01413-.01392-.03125 0l-10.59375 9.125a.49998753.49998753 0 0 1 -.625 0l-10.6875-9.1875c-.02122-.01778-.0092.01673-.03125 0s-.0084-.0156-.03125-.03125c-.02283-.01565-.0077-.01672-.03125-.03125-.02356-.01453-.007.01337-.03125 0-.02424-.01337-.0064-.01906-.03125-.03125s-.0058.01097-.03125 0c-.02541-.01097-.0053-.02152-.03125-.03125-.02591-.0097-.0049.0085-.03125 0s-.0045.0072-.03125 0c-.02673-.0072-.0042-.02536-.03125-.03125-.02705-.0059-.004.0046-.03125 0-.0273-.0046-.0038.0033-.03125 0-.02749-.0033-.0036.0019-.03125 0-.02761-.0019-.03482.000587-.0625 0s-.0036-.000749-.03125 0c-.0166.0018-.02913-.000288-.03125 0-.0021.000288-.01478-.0027-.03125 0-.03295.0055.0013-.0074-.03125 0z" fill="#0b5a9a"/><path d="m47.958369 50.999999 17.041631 12.020816-17.041632 12.020816-17.04163-12.020816z" fill="#fdfffe"/><path d="m59.38401 23.109718 17.23981 10.493732-11.66544 9.89655-17.04163-10.499999z" fill="url(#s)"/><path d="m36.52803 23.054859-17.239809 10.493732 11.665439 9.89655 17.04163-10.499999z" fill="url(#t)"/><path d="m31 63 .172556-19.753556 16.862573-10.287716v18.022842z" fill="url(#o)"/><path d="m47.957778 74.805756.154702-20.884838-17.017276-10.597122v19.72457z" fill="url(#q)" opacity=".6"/><path d="m65.002762 63-.06284-19.753556-16.917432-10.342575v18.297137z" fill="url(#p)"/><path d="m48.154702 74.805756-.154702-20.884838 17.017276-10.597122v19.72457z" fill="url(#r)" opacity=".6"/><path d="m64.95835 43.451404 11.77517 9.457676-17.15135 10.938871-11.66544-9.896549z" fill="url(#v)"/><path d="m30.84393 43.451404-11.775163 9.457676 17.151343 10.938871 11.66545-9.896549z" fill="url(#u)"/><path d="m47.958369 50.999999 17.041631 12.020816-17.041632 12.020816-17.04163-12.020816z" fill="#fdfffe" opacity=".2"/><path d="m31.09375 43.59375v16.96875l5.125 3.28125 11.65625-9.90625z" fill="url(#w)" opacity=".6"/><path d="m64.96875 43.4375-12.96875 8-4 2.46875v.125l11.59375 9.8125 5.4375-3.46875v-16.875z" fill="url(#x)" opacity=".6"/></svg>