<svg height="96" width="96" xmlns="http://www.w3.org/2000/svg" xmlns:xlink="http://www.w3.org/1999/xlink"><linearGradient id="a"><stop offset="0" stop-color="#fefefe" stop-opacity="0"/><stop offset=".25" stop-color="#fefefe" stop-opacity="0"/><stop offset=".5" stop-color="#fefefe" stop-opacity=".701613"/><stop offset=".75" stop-color="#fefefe" stop-opacity="0"/><stop offset="1" stop-color="#fefefe" stop-opacity="0"/></linearGradient><linearGradient id="b"><stop offset="0" stop-color="#fefefe"/><stop offset="1" stop-color="#fefefe" stop-opacity="0"/></linearGradient><linearGradient id="c" gradientUnits="userSpaceOnUse" x1="36.357143" x2="36.357143" xlink:href="#b" y1="6" y2="63.893143"/><radialGradient id="d" cx="48" cy="90.171875" gradientTransform="matrix(1.1573129 0 0 .99590774 -7.551021 .197132)" gradientUnits="userSpaceOnUse" r="42" xlink:href="#b"/><linearGradient id="e" gradientUnits="userSpaceOnUse" x1="25.220379" x2="94.567612" y1="61.92226" y2="61.92226"><stop offset="0" stop-color="#4d4d4d"/><stop offset="1" stop-color="#fefefe"/></linearGradient><radialGradient id="f" cx="59.893993" cy="61.92226" gradientTransform="matrix(1 0 0 .8375435 0 10.059672)" gradientUnits="userSpaceOnUse" r="33.71384"><stop offset="0" stop-opacity="0"/><stop offset=".85000002" stop-opacity="0"/><stop offset="1"/></radialGradient><linearGradient id="g" gradientUnits="userSpaceOnUse" x1="26.180153" x2="93.607834" y1="61.92226" y2="61.92226"><stop offset="0" stop-color="#fefefe" stop-opacity=".203125"/><stop offset="1" stop-color="#fefefe" stop-opacity=".679688"/></linearGradient><clipPath id="h"><path d="m48 32c-19.882251 0-36 16.117749-36 36s16.117749 36 36 36 36-16.117749 36-36-16.117749-36-36-36zm0 24c6.627417 0 12 5.372583 12 12s-5.372583 12-12 12-12-5.372583-12-12 5.372583-12 12-12z"/></clipPath><filter id="i" color-interpolation-filters="sRGB" height="1.341402" width="1.380742" x="-.190371" y="-.170701"><feGaussianBlur stdDeviation="4.9476562"/></filter><clipPath id="j"><path d="m48 102c-19.88225 0-36 16.11775-36 36s16.11775 36 36 36 36-16.11775 36-36-16.11775-36-36-36zm0 24c6.62742 0 12 5.37258 12 12s-5.37258 12-12 12-12-5.37258-12-12 5.37258-12 12-12z"/></clipPath><filter id="k" color-interpolation-filters="sRGB" height="1.36" width="1.36" x="-.18" y="-.18"><feGaussianBlur stdDeviation="5.2159999"/></filter><linearGradient id="l" gradientUnits="userSpaceOnUse" x1="158" x2="158" y1="90" y2="6"><stop offset="0" stop-color="#dcdcdc" stop-opacity=".470588"/><stop offset="1" stop-color="#dcdcdc" stop-opacity=".235294"/></linearGradient><linearGradient id="m" gradientUnits="userSpaceOnUse" x1="47.921329" x2="47.921329" y1="89.668793" y2="4.78804"><stop offset="0" stop-color="#a0a0a0" stop-opacity=".541177"/><stop offset="1" stop-color="#a0a0a0" stop-opacity=".345098"/></linearGradient><clipPath id="n"><path d="m12 6c-3.324 0-6 2.676-6 6v72c0 3.324 2.676 6 6 6h72c3.324 0 6-2.676 6-6v-72c0-3.324-2.676-6-6-6zm36 4c20.98682 0 38 17.01318 38 38s-17.01318 38-38 38-38-17.01318-38-38 17.01318-38 38-38z"/></clipPath><linearGradient id="o" gradientUnits="userSpaceOnUse" x1="6.812054" x2="88.142281" xlink:href="#a" y1="49.027908" y2="49.027908"/><radialGradient id="p" cx="46.467018" cy="47.765217" gradientUnits="userSpaceOnUse" r="35.860416"><stop offset="0" stop-opacity="0"/><stop offset=".93000001" stop-opacity="0"/><stop offset="1"/></radialGradient><filter id="q" color-interpolation-filters="sRGB" height="1.24" width="1.24" x="-.12" y="-.12"><feGaussianBlur stdDeviation="4.2"/></filter><filter id="r" color-interpolation-filters="sRGB"><feGaussianBlur stdDeviation="1.44"/></filter><clipPath id="s"><path d="m76.013977 47.51268a28.284271 28.284271 0 1 1 -56.568542 0 28.284271 28.284271 0 1 1 56.568542 0z" transform="matrix(1.3435029 0 0 1.3435029 -16.124998 74.166578)"/></clipPath><linearGradient id="t" gradientTransform="matrix(1.0058652 0 0 .994169 100 0)" gradientUnits="userSpaceOnUse" x1="45.447727" x2="45.447727" y1="92.539597" y2="7.01654"><stop offset="0"/><stop offset="1" stop-opacity=".588235"/></linearGradient><linearGradient id="u" gradientTransform="matrix(1.0238095 0 0 -1.0119048 -1.142857 98.071429)" gradientUnits="userSpaceOnUse" x1="32.251034" x2="32.251034" xlink:href="#t" y1="6.131708" y2="90.238609"/><linearGradient id="v" gradientTransform="matrix(1 0 0 -1 0 97)" gradientUnits="userSpaceOnUse" x1="32.251034" x2="32.251034" xlink:href="#t" y1="6.131708" y2="90.238609"/><linearGradient id="w" gradientUnits="userSpaceOnUse" x1="40" x2="40" y1="96" y2="64"><stop offset="0" stop-color="#002e93"/><stop offset="1" stop-color="#2f62c6"/></linearGradient><linearGradient id="x" gradientUnits="userSpaceOnUse" x1="48" x2="48.252537" y1="7.408988" y2="63.184418"><stop offset="0" stop-color="#fefefe" stop-opacity="0"/><stop offset="1" stop-color="#fefefe" stop-opacity=".233871"/></linearGradient><linearGradient id="y" gradientTransform="matrix(1 0 0 1.3333333 0 -23.333333)" gradientUnits="userSpaceOnUse" x1="11" x2="11" y1="64" y2="61"><stop offset="0"/><stop offset=".30000001" stop-opacity=".498039"/><stop offset="1" stop-opacity="0"/></linearGradient><linearGradient id="z" gradientUnits="userSpaceOnUse" x1="40" x2="40" y1="88" y2="64"><stop offset="0" stop-color="#dbdbdb"/><stop offset="1" stop-color="#fefefe"/></linearGradient><g><g fill="url(#u)"><path d="m12 3.96875c-5.5110902 0-10.03125 4.5201598-10.03125 10.03125v71c0 5.51109 4.5201597 10.03125 10.03125 10.03125h72c5.51109 0 10.03125-4.52016 10.03125-10.03125v-71c0-5.5110903-4.52016-10.03125-10.03125-10.03125zm0 2.03125h72c3.324 0 6 2.676 6 6v72c0 3.324-2.676 6-6 6h-72c-3.324 0-6-2.676-6-6v-72c0-3.324 2.676-6 6-6z" opacity=".08"/><path d="m12 4.96875c-4.9716329 0-9.03125 4.0596171-9.03125 9.03125v71c0 4.971633 4.059617 9.03125 9.03125 9.03125h72c4.971633 0 9.03125-4.059617 9.03125-9.03125v-71c0-4.971633-4.059617-9.03125-9.03125-9.03125zm0 1.03125h72c3.324 0 6 2.676 6 6v72c0 3.324-2.676 6-6 6h-72c-3.324 0-6-2.676-6-6v-72c0-3.324 2.676-6 6-6z" opacity=".1"/><path d="m11.1875 6.03125c-4.0275183.4106511-7.1875 3.8351875-7.1875 7.96875v71c0 4.409133 3.5908667 8 8 8h72c4.409133 0 8-3.590867 8-8v-71c0-4.1970618-3.258972-7.6460416-7.375-7.96875 3.032886.306167 5.375 2.8525 5.375 5.96875v72c0 3.324-2.676 6-6 6h-72c-3.324 0-6-2.676-6-6v-72c0-3.11625 2.3421143-5.662583 5.375-5.96875-.06227.00488-.12563-.00631-.1875 0z" opacity=".2"/><path d="m6.4375 9.75c-.8994891 1.177446-1.4375 2.647277-1.4375 4.25v71c0 3.878 3.122 7 7 7h72c3.878 0 7-3.122 7-7v-71c0-1.602723-.538011-3.072554-1.4375-4.25.279316.694095.4375 1.453625.4375 2.25v72c0 3.324-2.676 6-6 6h-72c-3.324 0-6-2.676-6-6v-72c0-.796375.1581836-1.555905.4375-2.25z" opacity=".3"/></g><path d="m6 84v1c0 3.324 2.676 6 6 6h72c3.324 0 6-2.676 6-6v-1c0 3.324-2.676 6-6 6h-72c-3.324 0-6-2.676-6-6z" fill="url(#v)" opacity=".45"/></g><rect fill="url(#m)" height="84" rx="6" width="84" x="6" y="6"/><path d="m-94.85714 8.602679c-20.94383 0-37.96875 17.02492-37.96875 37.968751 0 20.94383 17.02492 37.96875 37.96875 37.96875s37.96875-17.02492 37.96875-37.96875c0-20.943831-17.02492-37.968751-37.96875-37.968751zm0 25.96875c6.62742 0 12 5.372583 12 12.000001 0 6.62742-5.37258 12-12 12s-12-5.37258-12-12c0-6.627418 5.37258-12.000001 12-12.000001z" opacity=".42"/><path d="m82.327435 47.765217a35.860416 35.860416 0 1 1 -71.720833 0 35.860416 35.860416 0 1 1 71.720833 0z" fill="url(#p)" opacity=".4" transform="matrix(1.0596642 0 0 1.0596642 -1.239436 -2.615091)"/><path clip-path="url(#s)" d="m48 102c-19.882251 0-36 16.11775-36 36s16.117749 36 36 36 36-16.11775 36-36-16.117749-36-36-36zm0 24c6.627417 0 12 5.37258 12 12s-5.372583 12-12 12-12-5.37258-12-12 5.372583-12 12-12z" filter="url(#r)" opacity=".8" transform="translate(0 -90)"/><g><path d="m48 12c-19.882251 0-36 16.117749-36 36s16.117749 36 36 36 36-16.117749 36-36-16.117749-36-36-36zm0 24c6.627417 0 12 5.372583 12 12s-5.372583 12-12 12-12-5.372583-12-12 5.372583-12 12-12z" fill="#ccbb98"/><path d="m81.071426 48.5a34.642857 34.642857 0 1 1 -69.285713 0 34.642857 34.642857 0 1 1 69.285713 0z" fill="#c8c0cb" transform="matrix(1.0391753 0 0 1.0391753 89.752578 -2.400001)"/><path d="m81.071426 48.5a34.642857 34.642857 0 1 1 -69.285713 0 34.642857 34.642857 0 1 1 69.285713 0z" fill="#f00" transform="matrix(.34639176 0 0 .34639176 121.91753 31.2)"/><path d="m48 36c-6.627417 0-12 5.372583-12 12s5.372583 12 12 12 12-5.372583 12-12-5.372583-12-12-12zm0 7c2.761424 0 5 2.238576 5 5s-2.238576 5-5 5-5-2.238576-5-5 2.238576-5 5-5z" fill="#fefefe" opacity=".3"/><path d="m92.579506 61.92226a32.685513 27.208481 0 1 1 -65.371025 0 32.685513 27.208481 0 1 1 65.371025 0z" fill="none" opacity=".6" stroke="url(#e)" stroke-linecap="round" stroke-width="5.422095" transform="matrix(0 .16827027 -.20214285 0 60.517143 37.921621)"/><path d="m92.579506 61.92226a32.685513 27.208481 0 1 1 -65.371025 0 32.685513 27.208481 0 1 1 65.371025 0z" style="opacity:.5;fill-rule:evenodd;stroke-width:3.139125;stroke-linecap:round;fill:url(#f);stroke:url(#g)" transform="matrix(0 .2906454 -.34915584 0 69.620519 30.592193)"/><g fill="#fefefe"><path clip-path="url(#h)" d="m57.3125 33.21875-9.3125 34.78125 31.1875-18c-4.773897-8.268632-12.65254-14.310099-21.875-16.78125zm-9.3125 34.78125-31.1875 18c4.773897 8.268632 12.65254 14.3101 21.875 16.78125z" filter="url(#i)" opacity=".8" transform="translate(0 -20)"/><path d="m64.397226 47.38641a20.708128 18.814091 0 0 1 -6.06527 13.303571l-14.642858-13.303571z" opacity=".3" transform="matrix(.4499434 -1.6792116 1.8482599 .49523976 -59.240026 7.89561)"/><path d="m64.397226 47.38641a20.708128 18.814091 0 0 1 -6.06527 13.303571l-14.642858-13.303571z" opacity=".3" transform="matrix(-.4499434 1.6792116 -1.8482599 -.49523976 155.24002 -91.895606)"/></g><g clip-path="url(#j)" filter="url(#k)" opacity=".6" transform="translate(0 -90)"><path d="m60.947452 57.784124a20.708128 18.814091 0 0 1 -2.615496 2.905857l-14.642858-13.303571z" fill="#7137c8" transform="matrix(1.5055399 .86922388 -.95672979 1.6571045 27.560302 21.500167)"/><path d="m60.779363 58.010828a20.708128 18.814091 0 0 1 -3.384016 3.478847l-13.706249-14.103265z" fill="#0cf" transform="matrix(1.6792116 .4499434 -.49523981 1.8482599 -1.895609 30.759984)"/><path d="m62.72377 54.795738a20.708128 18.814091 0 0 1 -2.259683 3.622054l-16.774989-11.031382z" fill="#fc0" transform="matrix(1.7384478 0 -.00000006 1.9134595 -27.951218 47.328031)"/><path d="m61.622863 56.793455a20.708128 18.814091 0 0 1 -1.699251 2.272761l-16.234514-11.679806z" fill="#f00" transform="matrix(1.6792116 -.4499434 .4952397 1.84826 -48.830877 70.075223)"/><path d="m63.123303 53.883448a20.708128 18.814091 0 0 1 -2.370014 4.161918l-17.064191-10.658956z" fill="#0f0" transform="matrix(1.6792116 .4499434 -.49523981 1.8482599 -1.895609 30.759984)"/><path d="m60.947452 57.784124a20.708128 18.814091 0 0 1 -2.615496 2.905857l-14.642858-13.303571z" fill="#7137c8" transform="matrix(-1.5055399 -.86922388 .95672979 -1.6571045 68.439684 254.49984)"/><path d="m60.779363 58.010828a20.708128 18.814091 0 0 1 -3.384016 3.478847l-13.706249-14.103265z" fill="#0cf" transform="matrix(-1.6792116 -.4499434 .49523981 -1.8482599 97.895595 245.24003)"/><path d="m62.72377 54.795738a20.708128 18.814091 0 0 1 -2.259683 3.622054l-16.774989-11.031382z" fill="#fc0" transform="matrix(-1.7384478 0 .00000006 -1.9134595 123.9512 228.67198)"/><path d="m61.622863 56.793455a20.708128 18.814091 0 0 1 -1.699251 2.272761l-16.234514-11.679806z" fill="#f00" transform="matrix(-1.6792116 .4499434 -.4952397 -1.84826 144.83086 205.92479)"/><path d="m63.123303 53.883448a20.708128 18.814091 0 0 1 -2.370014 4.161918l-17.064191-10.658956z" fill="#0f0" transform="matrix(-1.6792116 -.4499434 .49523981 -1.8482599 97.895595 245.24003)"/></g><path d="m48 33.5c-8.008129 0-14.5 6.491871-14.5 14.5s6.491871 14.5 14.5 14.5 14.5-6.491871 14.5-14.5-6.491871-14.5-14.5-14.5zm0 2.5c6.627417 0 12 5.372583 12 12s-5.372583 12-12 12-12-5.372583-12-12 5.372583-12 12-12z" opacity=".2"/><path d="m48 12c-19.88225 0-36 16.117749-36 36 0 .337069.022.665155.0312 1 .53379-19.416215 16.42362-35 35.9688-35 19.545182 0 35.435008 15.583785 35.96875 35 .009205-.334845.03125-.662931.03125-1 0-19.882251-16.117749-36-36-36z" fill="#fefefe" opacity=".4"/><path d="m44.649417 66.417828-4.914749.01107h-3.697131l-.376355 1.5663 2.800522.01107h.647551c1.79774 0 2.8962.725935 2.590205 1.997998-.330243 1.394031-1.907108 2.003536-3.569834 2.003536h-.619878l.802521-3.425935h-2.783918l-1.189945 5.003303h3.962793c2.971366 0 5.809105-1.563275 6.298407-3.580904.09761-.36713.08873-1.287466-.143901-1.837496 0-.02455-.01555-.0341-.02767-.08302-.01254-.01214-.02124-.09878.02767-.110693.02466-.01235.07089.03748.08302.04981.02425.06114.03874.10516.03874.10516l2.518255 7.117531 6.420168-7.239293h2.711969.653085c1.797739 0 2.895144.725935 2.601275 1.997998-.342367 1.394031-1.917973 2.003536-3.580904 2.003536h-.625413l.808056-3.425935h-2.789453l-1.18441 5.003303h3.962793c2.971778 0 5.821641-1.563275 6.298406-3.580904.489099-2.005605-1.61537-3.575369-4.599275-3.575369h-5.905448s-1.56597 1.848085-1.859634 2.202784c-1.55278 1.870693-1.837988 2.372582-1.887308 2.507186.01233-.134604-.04815-.633766-.708433-2.529324-.183103-.513656-.74164-2.180646-.74164-2.180646h-2.020139v-.01107zm2.545929 8.855403c-7.533121 0-13.637322.867902-13.637322 1.931587 0 1.076215 6.104201 1.931582 13.637322 1.931582 7.532916 0 13.642857-.855367 13.642857-1.931582 0-1.063685-6.109941-1.931587-13.642857-1.931587zm-.492582 1.333845c1.724372 0 3.121531.282194 3.121531.636482 0 .354699-1.397159.647552-3.121531.647552-1.72458 0-3.115995-.292853-3.115995-.647552 0-.354288 1.391415-.636482 3.115995-.636482z" fill-rule="evenodd" opacity=".6"/></g><g><path d="m122 6c-3.324 0-6 2.676-6 6v72c0 3.324 2.676 6 6 6h72c3.324 0 6-2.676 6-6v-72c0-3.324-2.676-6-6-6zm36 4c20.98682 0 38 17.01318 38 38s-17.01318 38-38 38-38-17.01318-38-38 17.01318-38 38-38z" fill="url(#l)"/><path d="m87.125656 49.027908a39.648487 39.648487 0 1 1 -79.2969741 0 39.648487 39.648487 0 1 1 79.2969741 0z" fill="none" stroke="url(#o)" stroke-linecap="round" stroke-width="2.033256" transform="matrix(.69554141 -.6955414 .6955414 .69554141 -19.123277 46.921397)"/><path d="m87.125656 49.027908a39.648487 39.648487 0 1 1 -79.2969741 0 39.648487 39.648487 0 1 1 79.2969741 0z" fill="none" opacity=".4" stroke="url(#o)" stroke-linecap="round" stroke-width="2.033256" transform="matrix(-.69554141 -.6955414 -.6955414 .69554141 115.12327 46.921397)"/><path d="m12 6c-3.324 0-6 2.676-6 6v43.65625c18.407332-8.873819 43.000654-14.3125 70.0625-14.3125 4.72857 0 9.37768.179348 13.9375.5v-29.84375c0-3.324-2.676-6-6-6z" fill="url(#x)" opacity=".8"/><path d="m12 6c-3.324 0-6 2.676-6 6v72c0 3.324 2.676 6 6 6h72c3.324 0 6-2.676 6-6v-72c0-3.324-2.676-6-6-6zm36 4c20.98682 0 38 17.01318 38 38s-17.01318 38-38 38-38-17.01318-38-38 17.01318-38 38-38z" style="opacity:.8;fill:none;stroke:#fefefe;stroke-width:2;clip-path:url(#n);filter:url(#q)"/></g><path d="m6 62v22c0 3.324 2.676 6 6 6h72c3.324 0 6-2.676 6-6v-22z" fill="url(#w)"/><path d="m51.65625 63.34375c-1.347452.225584-1.729098 1.69342-1.5625 2.873662.09963 1.234526-.236623 2.560724.25 3.720088-1.930147-1.255087-4.357333-.688128-6.25-.40625-1.903333-.282591-3.894072-.04848-5.83202-.125-1.434042-.202636-2.437664 1.256343-2.16798 2.574937.0209 4.463736-.04176 8.934389.03125 13.393813.241495 1.393583 1.762837 1.676888 2.944899 1.53125 1.744103-.05589 3.519401.115869 5.242601-.09375 1.537616-.407775 1.378204-2.170623 1.34375-3.417349.0757-2.157766-.27521-4.419361.585777-6.462751 1.082562.479963 2.722764.794533 3.382973-.4949.557676-1.445151.491378-.451314.46875.533611.02117 2.800406-.04214 5.607804.03125 8.403889.241495 1.393583 1.762837 1.676888 2.944899 1.53125 1.827316-.05683 3.686241.117222 5.492601-.09375 1.537616-.407775 1.378204-2.170623 1.34375-3.417349-.02096-4.235011.04184-8.476954-.03125-12.707651-.439417-.907578.262197-1.87992.03125-2.891136-.14248-1.427655.515496-3.353321-1-4.233864-1.533716-.451106-3.195279-.114757-4.784634-.21875-.821789 0-1.643577 0-2.465366 0zm20.125 5.71875c-1.673752.211542-2.900245.840759-4.494962.3125-1.904193.05825-3.840631-.119241-5.723788.09375-1.537616.407775-1.378204 2.170623-1.34375 3.417349.02091 5.485015-.04177 10.976949.03125 16.457651.241495 1.393583 1.762837 1.676888 2.944899 1.53125 1.7957-.05953 3.62427.121115 5.398851-.09375 1.537616-.407775 1.378204-2.170623 1.34375-3.417349-.302848-1.865334 2.613092.379859 3.683859-.712749 3.691116-.952318 5.591831-4.946372 5.409891-8.526152.158834-4.268614-2.428195-9.168541-7.25-9.0625zm-52.125.03125c-1.347452.225584-1.729098 1.69342-1.5625 2.873662.05792 1.861335-.118777 3.754772.09375 5.595088.282705.768639-.312816 1.654156-.09375 2.538649.05771 1.81678-.118498 3.665581.09375 5.461351.407775 1.537616 2.170623 1.378204 3.417349 1.34375 1.649114-.05587 3.329446.115864 4.957651-.09375.839353-.247223 1.816865.293188 2.774874.09375 1.738212-.05638 3.507848.116583 5.225126-.09375 1.537616-.407775 1.378204-2.170623 1.34375-3.417349-.05587-1.649114.115864-3.329446-.09375-4.957651-.247223-.839353.293188-1.816865.09375-2.774874-.05638-1.738212.116583-3.507848-.09375-5.225126-.407775-1.537616-2.170623-1.378204-3.417349-1.34375-1.638673.05193-3.299883-.0981-4.926401.0625-.830617.350588-1.749802-.288961-2.672386-.0625-1.713372 0-3.426743 0-5.140114 0zm50.46875 7.59375c.65982 1.09122-.296895 3.713437-.206878 1.021131.0351-.340159.08218-.711047.206878-1.021131z" opacity=".08"/><path d="m12 6c-3.324 0-6 2.676-6 6v2 68 2c0 .334721.04135.6507.09375.96875.0487.295596.09704.596915.1875.875.00988.03038.020892.0636.03125.09375.098865.287771.2348802.547452.375.8125.1445918.273507.3156161.535615.5.78125s.3737765.473472.59375.6875c.439947.428056.94291.814526 1.5 1.09375.278545.139612.5734731.246947.875.34375-.2562018-.100222-.4867109-.236272-.71875-.375-.00741-.0044-.023866.0045-.03125 0-.031933-.0193-.062293-.04251-.09375-.0625-.120395-.0767-.2310226-.163513-.34375-.25-.1061728-.0808-.2132809-.161112-.3125-.25-.1779299-.161433-.3474596-.345388-.5-.53125-.1075789-.130255-.2183939-.265285-.3125-.40625-.025089-.03838-.038446-.08587-.0625-.125-.064763-.103032-.1302275-.204517-.1875-.3125-.1010083-.194706-.2056748-.415701-.28125-.625-.00796-.02181-.023589-.04055-.03125-.0625-.0318251-.09195-.0358045-.186831-.0625-.28125-.0303323-.106618-.0703894-.203031-.09375-.3125-.0728786-.341512-.125-.698205-.125-1.0625v-2-68-2c0-2.781848 2.2181517-5 5-5h2 68 2c2.781848 0 5 2.218152 5 5v2 68 2c0 .364295-.05212.720988-.125 1.0625-.04415.206893-.08838.397658-.15625.59375-.0077.02195-.0233.04069-.03125.0625-.06274.173739-.138383.367449-.21875.53125-.04158.0828-.07904.169954-.125.25-.0546.09721-.126774.18835-.1875.28125-.09411.140965-.204921.275995-.3125.40625-.143174.17445-.303141.346998-.46875.5-.01117.0102-.01998.02115-.03125.03125-.138386.125556-.285091.234436-.4375.34375-.102571.07315-.204318.153364-.3125.21875-.0074.0045-.02384-.0044-.03125 0-.232039.138728-.462548.274778-.71875.375.301527-.0968.596455-.204138.875-.34375.55709-.279224 1.060053-.665694 1.5-1.09375.219973-.214028.409366-.441865.59375-.6875s.355408-.507743.5-.78125c.14012-.265048.276135-.524729.375-.8125.01041-.03078.02133-.06274.03125-.09375.09046-.278085.1388-.579404.1875-.875.0524-.31805.09375-.634029.09375-.96875v-2-68-2c0-3.324-2.676-6-6-6z" fill="url(#c)" opacity=".6"/><path d="m6 62v1h84v-1z" fill="#fefefe" opacity=".2"/><path d="m6 58v4h84v-4z" fill="url(#y)" opacity=".3"/><path d="m51.90625 64.3125a.93835873.93835873 0 0 0 -.84375.9375v3.75a.93835873.93835873 0 0 0 .9375.9375h6a.93835873.93835873 0 0 0 .9375-.9375v-3.75a.93835873.93835873 0 0 0 -.9375-.9375h-6a.93835873.93835873 0 0 0 -.09375 0zm19.875 5.71875c-1.006081.000015-1.987409.24212-2.84375.71875-.125923.07039-.22333.258303-.34375.34375a.93835873.93835873 0 0 0 -.90625-.75h-5.5625a.93835873.93835873 0 0 0 -.9375.9375v17.6875a.93835873.93835873 0 0 0 .9375.9375h5.90625a.93835873.93835873 0 0 0 .9375-.9375v-3.75c.124549.06713.213498.192948.34375.25.747851.32338 1.572836.46875 2.4375.46875 1.795861 0 3.398374-.750851 4.5625-2.09375 1.199688-1.393913 1.749984-3.343649 1.75-5.71875-.000016-2.165837-.507867-4.076357-1.5625-5.625-1.074146-1.590816-2.764063-2.468735-4.71875-2.46875zm-51.875.03125a.93835873.93835873 0 0 0 -.84375.9375v6a.93835873.93835873 0 0 0 .9375.9375h6a.93835873.93835873 0 0 0 .9375-.9375v-6a.93835873.93835873 0 0 0 -.9375-.9375h-6a.93835873.93835873 0 0 0 -.09375 0zm8 0a.93835873.93835873 0 0 0 -.84375.9375v6a.93835873.93835873 0 0 0 .9375.9375h6a.93835873.93835873 0 0 0 .9375-.9375v-6a.93835873.93835873 0 0 0 -.9375-.9375h-6a.93835873.93835873 0 0 0 -.09375 0zm19.09375 0c-.956971.000017-1.843526.239152-2.5625.71875-.06696.04438-.09176.169783-.15625.21875a.93835873.93835873 0 0 0 -.90625-.625h-5.375a.93835873.93835873 0 0 0 -.9375.9375v13.6875a.93835873.93835873 0 0 0 .9375.9375h5.75a.93835873.93835873 0 0 0 .9375-.9375v-4.59375c-.000007-2.101697.361566-3.423648.71875-3.90625.259785-.356667.505098-.499993 1-.5.158955.000004.612534.100654 1.25.34375a.93835873.93835873 0 0 0 1.1875-.46875l1.78125-3.75a.93835873.93835873 0 0 0 -.4375-1.25c-1.100027-.52692-2.166674-.812483-3.1875-.8125zm4.90625.0625a.93835873.93835873 0 0 0 -.84375.9375v13.9375a.93835873.93835873 0 0 0 .9375.9375h6a.93835873.93835873 0 0 0 .9375-.9375v-13.9375a.93835873.93835873 0 0 0 -.9375-.9375h-6a.93835873.93835873 0 0 0 -.09375 0zm18.28125 5.5625c.283305.000005.453009.06456.71875.40625a.93835873.93835873 0 0 0 0 .03125c.197913.250329.40624.807807.40625 1.78125-.00001 1.04988-.230295 1.667723-.40625 1.90625-.260604.331893-.378422.406252-.65625.40625-.387568.000002-.591699-.09382-.875-.4375-.237746-.288398-.437506-.827205-.4375-1.75-.000006-1.039011.206274-1.658996.40625-1.90625.272531-.336962.490088-.437494.84375-.4375zm-50.28125 2.375a.93835873.93835873 0 0 0 -.84375.9375v6a.93835873.93835873 0 0 0 .9375.9375h6a.93835873.93835873 0 0 0 .9375-.9375v-6a.93835873.93835873 0 0 0 -.9375-.9375h-6a.93835873.93835873 0 0 0 -.09375 0zm8 0a.93835873.93835873 0 0 0 -.84375.9375v6a.93835873.93835873 0 0 0 .9375.9375h6a.93835873.93835873 0 0 0 .9375-.9375v-6a.93835873.93835873 0 0 0 -.9375-.9375h-6a.93835873.93835873 0 0 0 -.09375 0z" opacity=".12"/><path d="m52 65.25v3.75h6v-3.75zm19.78125 5.71875c-.862284.000013-1.66443.198254-2.375.59375-.526953.294542-1.088019.854417-1.71875 1.6875v-1.96875h-5.5625v17.6875h5.90625v-5.59375c.487019.530154 1.041472.949467 1.65625 1.21875.622746.269283 1.311991.40625 2.0625.40625 1.548891 0 2.829765-.611549 3.84375-1.78125 1.013957-1.178113 1.531235-2.863741 1.53125-5.09375-.000015-2.019618-.472134-3.722076-1.40625-5.09375-.926161-1.371649-2.236913-2.062487-3.9375-2.0625zm-51.78125.03125v6h6v-6zm8 0v6h6v-6zm19 0c-.807521.000014-1.477269.192962-2.03125.5625-.544609.360971-1.077326 1.028865-1.59375 2v-2.25h-5.375v13.6875h5.75v-4.59375c-.000007-2.191521.314693-3.669478.90625-4.46875.413138-.567209.998816-.87499 1.75-.875.394356.00001.917682.148433 1.59375.40625l1.78125-3.75c-1.004708-.481262-1.93619-.718736-2.78125-.71875zm5 .0625v13.9375h6v-13.9375zm18.1875 3.6875c.57484.00001 1.069538.267938 1.46875.78125.399191.504915.593739 1.289459.59375 2.375-.000011 1.178122-.210528 2.003514-.59375 2.5-.383243.488081-.839394.750004-1.40625.75-.646714.000004-1.170603-.267924-1.59375-.78125-.42316-.513316-.656257-1.283441-.65625-2.34375-.000007-1.152862.209824-1.98667.625-2.5.415161-.513312.939737-.78124 1.5625-.78125zm-50.1875 4.25v6h6v-6zm8 0v6h6v-6z" opacity=".3"/><path d="m52 64.25v3.75h6v-3.75zm19.78125 5.71875c-.862284.000013-1.66443.198254-2.375.59375-.526953.294542-1.088019.854417-1.71875 1.6875v-1.96875h-5.5625v17.6875h5.90625v-5.59375c.487019.530154 1.041472.949467 1.65625 1.21875.622746.269283 1.311991.40625 2.0625.40625 1.548891 0 2.829765-.611549 3.84375-1.78125 1.013957-1.178113 1.531235-2.863741 1.53125-5.09375-.000015-2.019618-.472134-3.722076-1.40625-5.09375-.926161-1.371649-2.236913-2.062487-3.9375-2.0625zm-51.78125.03125v6h6v-6zm8 0v6h6v-6zm19 0c-.807521.000014-1.477269.192962-2.03125.5625-.544609.360971-1.077326 1.028865-1.59375 2v-2.25h-5.375v13.6875h5.75v-4.59375c-.000007-2.191521.314693-3.669478.90625-4.46875.413138-.567209.998816-.87499 1.75-.875.394356.00001.917682.148433 1.59375.40625l1.78125-3.75c-1.004708-.481262-1.93619-.718736-2.78125-.71875zm5 .0625v13.9375h6v-13.9375zm18.1875 3.6875c.57484.00001 1.069538.267938 1.46875.78125.399191.504915.593739 1.289459.59375 2.375-.000011 1.178122-.210528 2.003514-.59375 2.5-.383243.488081-.839394.750004-1.40625.75-.646714.000004-1.170603-.267924-1.59375-.78125-.42316-.513316-.656257-1.283441-.65625-2.34375-.000007-1.152862.209824-1.98667.625-2.5.415161-.513312.939737-.78124 1.5625-.78125zm-50.1875 4.25v6h6v-6zm8 0v6h6v-6z" fill="url(#z)"/><path d="m12 90c-3.324 0-6-2.676-6-6v-2-68-2c0-.334721.04135-.6507.09375-.96875.0487-.295596.09704-.596915.1875-.875.00988-.03038.020892-.0636.03125-.09375.098865-.287771.2348802-.547452.375-.8125.1445918-.273507.3156161-.535615.5-.78125s.3737765-.473472.59375-.6875c.439947-.428056.94291-.814526 1.5-1.09375.278545-.139612.5734731-.246947.875-.34375-.2562018.100222-.4867109.236272-.71875.375-.00741.0044-.023866-.0045-.03125 0-.031933.0193-.062293.04251-.09375.0625-.120395.0767-.2310226.163513-.34375.25-.1061728.0808-.2132809.161112-.3125.25-.1779299.161433-.3474596.345388-.5.53125-.1075789.130255-.2183939.265285-.3125.40625-.025089.03838-.038446.08587-.0625.125-.064763.103032-.1302275.204517-.1875.3125-.1010083.194706-.2056748.415701-.28125.625-.00796.02181-.023589.04055-.03125.0625-.0318251.09195-.0358045.186831-.0625.28125-.0303323.106618-.0703894.203031-.09375.3125-.0728786.341512-.125.698205-.125 1.0625v2 68 2c0 2.781848 2.2181517 5 5 5h2 68 2c2.781848 0 5-2.218152 5-5v-2-68-2c0-.364295-.05212-.720988-.125-1.0625-.04415-.206893-.08838-.397658-.15625-.59375-.0077-.02195-.0233-.04069-.03125-.0625-.06274-.173739-.138383-.367449-.21875-.53125-.04158-.0828-.07904-.169954-.125-.25-.0546-.09721-.126774-.18835-.1875-.28125-.09411-.140965-.204921-.275995-.3125-.40625-.143174-.17445-.303141-.346998-.46875-.5-.01117-.0102-.01998-.02115-.03125-.03125-.138386-.125556-.285091-.234436-.4375-.34375-.102571-.07315-.204318-.153364-.3125-.21875-.0074-.0045-.02384.0044-.03125 0-.232039-.138728-.462548-.274778-.71875-.375.301527.0968.596455.204138.875.34375.55709.279224 1.060053.665694 1.5 1.09375.219973.214028.409366.441865.59375.6875s.355408.507743.5.78125c.14012.265048.276135.524729.375.8125.01041.03078.02133.06274.03125.09375.09046.278085.1388.579404.1875.875.0524.31805.09375.634029.09375.96875v2 68 2c0 3.324-2.676 6-6 6z" fill="url(#d)" opacity=".3"/></svg>