<svg height="96" width="96" xmlns="http://www.w3.org/2000/svg" xmlns:xlink="http://www.w3.org/1999/xlink"><linearGradient id="a"><stop offset="0" stop-color="#fefefe"/><stop offset="1" stop-color="#fefefe" stop-opacity="0"/></linearGradient><linearGradient id="b"><stop offset="0" stop-color="#e9e9e9"/><stop offset="1" stop-color="#828282"/></linearGradient><linearGradient id="c"><stop offset="0" stop-color="#305388"/><stop offset="1" stop-color="#7e9fd2"/></linearGradient><linearGradient id="d" gradientUnits="userSpaceOnUse" x1="36.357143" x2="36.357143" xlink:href="#a" y1="6" y2="63.893143"/><filter id="e" color-interpolation-filters="sRGB" height="1.384" width="1.384" x="-.192" y="-.192"><feGaussianBlur stdDeviation="5.28"/></filter><linearGradient id="f" gradientUnits="userSpaceOnUse" x1="48" x2="48" xlink:href="#a" y1="20.220806" y2="138.66119"/><radialGradient id="g" cx="48" cy="90.171875" gradientTransform="matrix(1.1573129 0 0 .99590774 -7.551021 .197132)" gradientUnits="userSpaceOnUse" r="42" xlink:href="#a"/><clipPath id="h"><rect height="84" rx="6" width="84" x="6" y="6"/></clipPath><linearGradient id="i" gradientTransform="matrix(1.0058652 0 0 .994169 100 0)" gradientUnits="userSpaceOnUse" x1="45.447727" x2="45.447727" y1="92.539597" y2="7.01654"><stop offset="0"/><stop offset="1" stop-opacity=".588235"/></linearGradient><linearGradient id="j" gradientTransform="matrix(1 0 0 -1 0 97)" gradientUnits="userSpaceOnUse" x1="32.251034" x2="32.251034" xlink:href="#i" y1="6.131708" y2="90.238609"/><linearGradient id="k" gradientTransform="matrix(.97368421 0 0 .9736825 1.263158 1.263305)" gradientUnits="userSpaceOnUse" x1="59.445351" x2="59.445351" y1="69.246223" y2="13.154833"><stop offset="0" stop-color="#ebebeb"/><stop offset="1" stop-color="#fefefe"/></linearGradient><linearGradient id="l" gradientUnits="userSpaceOnUse" x1="162" x2="122" xlink:href="#c" y1="80" y2="8"/><linearGradient id="m" gradientUnits="userSpaceOnUse" x1="162" x2="122" xlink:href="#c" y1="80" y2="16"/><linearGradient id="n" gradientTransform="matrix(.97368421 0 0 .9736825 1.263158 1.263305)" gradientUnits="userSpaceOnUse" x1="48" x2="60.594677" y1="40" y2="87.003983"><stop offset="0" stop-color="#b77223"/><stop offset="1" stop-color="#b27024"/></linearGradient><linearGradient id="o" gradientUnits="userSpaceOnUse" x1="48" x2="48" y1="90" y2="5.987717"><stop offset="0" stop-color="#d78a26"/><stop offset="1" stop-color="#eaac5e"/></linearGradient><linearGradient id="p" gradientTransform="matrix(0 -1 -1 0 33 33)" gradientUnits="userSpaceOnUse" x1="10" x2="23" xlink:href="#b" y1="16.5" y2="16.5"/><linearGradient id="q" gradientTransform="matrix(0 1 -1 0 33 0)" gradientUnits="userSpaceOnUse" x1="10" x2="23" xlink:href="#b" y1="16.5" y2="16.5"/><linearGradient id="r" gradientTransform="matrix(1.0238095 0 0 -1.0119048 -1.142857 98.071429)" gradientUnits="userSpaceOnUse" x1="32.251034" x2="32.251034" xlink:href="#i" y1="6.131708" y2="90.238609"/><linearGradient id="s" gradientUnits="userSpaceOnUse" x1="147.474781" x2="145.96315" xlink:href="#a" y1="51.296783" y2="-22.609013"/><linearGradient id="t" gradientTransform="matrix(.97368421 0 0 .9736825 1.263158 1.263305)" gradientUnits="userSpaceOnUse" x1="35.951328" x2="35.951328" y1="9.965951" y2="85.237114"><stop offset="0" stop-color="#e7b67d" stop-opacity=".713726"/><stop offset="1" stop-color="#e2ac6e"/></linearGradient><g fill="url(#r)"><path d="m12 3.9375c-5.527646 0-10.0625 4.534854-10.0625 10.0625v71c0 5.527646 4.534854 10.0625 10.0625 10.0625h72c5.527646 0 10.0625-4.534854 10.0625-10.0625v-71c0-5.527646-4.534854-10.0625-10.0625-10.0625zm3.75 12.1875c.953469 0 1.53125.600715 1.53125 1.5s-.577781 1.5-1.53125 1.5-1.53125-.600715-1.53125-1.5.577781-1.5 1.53125-1.5z" opacity=".08"/><path d="m12 5.09375c-4.9035532 0-8.90625 4.0026968-8.90625 8.90625v71c0 4.903553 4.0026968 8.90625 8.90625 8.90625h72c4.903553 0 8.90625-4.002697 8.90625-8.90625v-71c0-4.9035532-4.002697-8.90625-8.90625-8.90625zm3.75 9.875c1.534264 0 2.6875 1.165508 2.6875 2.65625s-1.153236 2.65625-2.6875 2.65625-2.6875-1.165508-2.6875-2.65625 1.153236-2.65625 2.6875-2.65625z" opacity=".1"/><path d="m12 5.9375c-4.4439981 0-8.0625 3.6185019-8.0625 8.0625v71c0 4.443998 3.6185019 8.0625 8.0625 8.0625h72c4.443998 0 8.0625-3.618502 8.0625-8.0625v-71c0-4.4439981-3.618502-8.0625-8.0625-8.0625zm3.75 8.1875c1.978675 0 3.53125 1.558033 3.53125 3.5s-1.552575 3.5-3.53125 3.5-3.53125-1.558033-3.53125-3.5 1.552575-3.5 3.53125-3.5z" opacity=".2"/><path d="m12 7c-3.878 0-7 3.122-7 7v71c0 3.878 3.122 7 7 7h72c3.878 0 7-3.122 7-7v-71c0-3.878-3.122-7-7-7zm3.75 6.0625c2.544454 0 4.59375 2.047632 4.59375 4.5625s-2.049296 4.5625-4.59375 4.5625-4.59375-2.047632-4.59375-4.5625 2.049296-4.5625 4.59375-4.5625z" opacity=".3"/></g><path d="m12 7c-3.324 0-6 2.676-6 6v72c0 3.324 2.676 6 6 6h72c3.324 0 6-2.676 6-6v-72c0-3.324-2.676-6-6-6zm4.5 6c2.485281 0 4.5 2.014719 4.5 4.5s-2.014719 4.5-4.5 4.5-4.5-2.014719-4.5-4.5 2.014719-4.5 4.5-4.5z" fill="url(#j)" opacity=".45"/><g><path d="m12 6c-3.324 0-6 2.676-6 6v72c0 3.324 2.676 6 6 6h72c3.324 0 6-2.676 6-6v-72c0-3.324-2.676-6-6-6zm4.5 4c3.589851 0 6.5 2.910149 6.5 6.5s-2.910149 6.5-6.5 6.5-6.5-2.910149-6.5-6.5 2.910149-6.5 6.5-6.5z" fill="url(#o)"/><path d="m12 6c-3.324 0-6 2.676-6 6v2 68 2c0 .334721.04135.6507.09375.96875.0487.295596.09704.596915.1875.875.00988.03038.020892.0636.03125.09375.098865.287771.2348802.547452.375.8125.1445918.273507.3156161.535615.5.78125s.3737765.473472.59375.6875c.439947.428056.94291.814526 1.5 1.09375.278545.139612.5734731.246947.875.34375-.2562018-.100222-.4867109-.236272-.71875-.375-.00741-.0044-.023866.0045-.03125 0-.031933-.0193-.062293-.04251-.09375-.0625-.120395-.0767-.2310226-.163513-.34375-.25-.1061728-.0808-.2132809-.161112-.3125-.25-.1779299-.161433-.3474596-.345388-.5-.53125-.1075789-.130255-.2183939-.265285-.3125-.40625-.025089-.03838-.038446-.08587-.0625-.125-.064763-.103032-.1302275-.204517-.1875-.3125-.1010083-.194706-.2056748-.415701-.28125-.625-.00796-.02181-.023589-.04055-.03125-.0625-.0318251-.09195-.0358045-.186831-.0625-.28125-.0303323-.106618-.0703894-.203031-.09375-.3125-.0728786-.341512-.125-.698205-.125-1.0625v-2-68-2c0-2.781848 2.2181517-5 5-5h2 68 2c2.781848 0 5 2.218152 5 5v2 68 2c0 .364295-.05212.720988-.125 1.0625-.04415.206893-.08838.397658-.15625.59375-.0077.02195-.0233.04069-.03125.0625-.06274.173739-.138383.367449-.21875.53125-.04158.0828-.07904.169954-.125.25-.0546.09721-.126774.18835-.1875.28125-.09411.140965-.204921.275995-.3125.40625-.143174.17445-.303141.346998-.46875.5-.01117.0102-.01998.02115-.03125.03125-.138386.125556-.285091.234436-.4375.34375-.102571.07315-.204318.153364-.3125.21875-.0074.0045-.02384-.0044-.03125 0-.232039.138728-.462548.274778-.71875.375.301527-.0968.596455-.204138.875-.34375.55709-.279224 1.060053-.665694 1.5-1.09375.219973-.214028.409366-.441865.59375-.6875s.355408-.507743.5-.78125c.14012-.265048.276135-.524729.375-.8125.01041-.03078.02133-.06274.03125-.09375.09046-.278085.1388-.579404.1875-.875.0524-.31805.09375-.634029.09375-.96875v-2-68-2c0-3.324-2.676-6-6-6z" fill="url(#d)" opacity=".4"/><path d="m12 90c-3.324 0-6-2.676-6-6v-2-68-2c0-.334721.04135-.6507.09375-.96875.0487-.295596.09704-.596915.1875-.875.00988-.03038.020892-.0636.03125-.09375.098865-.287771.2348802-.547452.375-.8125.1445918-.273507.3156161-.535615.5-.78125s.3737765-.473472.59375-.6875c.439947-.428056.94291-.814526 1.5-1.09375.278545-.139612.5734731-.246947.875-.34375-.2562018.100222-.4867109.236272-.71875.375-.00741.0044-.023866-.0045-.03125 0-.031933.0193-.062293.04251-.09375.0625-.120395.0767-.2310226.163513-.34375.25-.1061728.0808-.2132809.161112-.3125.25-.1779299.161433-.3474596.345388-.5.53125-.1075789.130255-.2183939.265285-.3125.40625-.025089.03838-.038446.08587-.0625.125-.064763.103032-.1302275.204517-.1875.3125-.1010083.194706-.2056748.415701-.28125.625-.00796.02181-.023589.04055-.03125.0625-.0318251.09195-.0358045.186831-.0625.28125-.0303323.106618-.0703894.203031-.09375.3125-.0728786.341512-.125.698205-.125 1.0625v2 68 2c0 2.781848 2.2181517 5 5 5h2 68 2c2.781848 0 5-2.218152 5-5v-2-68-2c0-.364295-.05212-.720988-.125-1.0625-.04415-.206893-.08838-.397658-.15625-.59375-.0077-.02195-.0233-.04069-.03125-.0625-.06274-.173739-.138383-.367449-.21875-.53125-.04158-.0828-.07904-.169954-.125-.25-.0546-.09721-.126774-.18835-.1875-.28125-.09411-.140965-.204921-.275995-.3125-.40625-.143174-.17445-.303141-.346998-.46875-.5-.01117-.0102-.01998-.02115-.03125-.03125-.138386-.125556-.285091-.234436-.4375-.34375-.102571-.07315-.204318-.153364-.3125-.21875-.0074-.0045-.02384.0044-.03125 0-.232039-.138728-.462548-.274778-.71875-.375.301527.0968.596455.204138.875.34375.55709.279224 1.060053.665694 1.5 1.09375.219973.214028.409366.441865.59375.6875s.355408.507743.5.78125c.14012.265048.276135.524729.375.8125.01041.03078.02133.06274.03125.09375.09046.278085.1388.579404.1875.875.0524.31805.09375.634029.09375.96875v2 68 2c0 3.324-2.676 6-6 6z" fill="url(#g)" opacity=".2"/><path d="m28.526316 12.947494v3.89473c0 5.91525-4.795266 10.710509-10.710527 10.710509h-4.868421v51.605172c0 2.15768 1.737053 3.89473 3.894737 3.89473h62.31579c2.157684 0 3.894737-1.73705 3.894737-3.89473v-62.315681c0-2.15768-1.737053-3.89473-3.894737-3.89473z" fill="url(#k)"/><rect height="72" opacity=".4" rx="4" width="72" x="112" y="12"/><path d="m112 1v5.1875c-2.38603 1.218394-4.23507 3.298069-5.21875 5.8125h-5.78125v15h16c6.07513 0 11-4.924868 11-11v-15z" opacity=".4"/><path d="m184 1v5.1875c2.38603 1.218394 4.23507 3.298069 5.21875 5.8125h5.78125v15h-16c-6.07513 0-11-4.924868-11-11v-15z" opacity=".4"/><path d="m112 95v-5.1875c-2.38603-1.218394-4.23507-3.298069-5.21875-5.8125h-5.78125v-15h16c6.07513 0 11 4.924868 11 11v15z" opacity=".4"/><path d="m184 95v-5.1875c2.38603-1.218394 4.23507-3.298069 5.21875-5.8125h5.78125v-15h-16c-6.07513 0-11 4.924868-11 11v15z" opacity=".4"/><path d="m119.96875 13.96875v2.03125c0 7.146618-5.82213 12.96875-12.96875 12.96875h-3.03125v51.03125c0 1.151924.87933 2.03125 2.03125 2.03125h64c1.15192 0 2.03125-.879326 2.03125-2.03125v-64c0-1.151924-.87933-2.03125-2.03125-2.03125zm2.03125 2.03125h48v64h-64v-49h1c8.23724 0 15-6.762763 15-15z" fill="url(#l)" opacity=".8"/><path d="m123.75 17.9375c-.94478 8.082607-7.60037 14.442199-15.8125 14.90625v45.21875h60.125v-60.125zm.875 1.09375h42.34375v57.9375h-57.9375v-43.1875c7.91911-.916009 14.2381-6.963518 15.59375-14.75z" fill="url(#m)"/><path d="m128 12v4c0 6.075132-4.92487 11-11 11h-5v34.03125c13.55992-10.156915 34.4484-16.65625 57.875-16.65625 4.83554 0 9.54816.251838 14.125.78125v-29.15625c0-2.216-1.784-4-4-4z" fill="url(#s)" opacity=".6"/><path d="m28.526316 12.947494v3.89473c0 5.91525-4.795266 10.710509-10.710527 10.710509h-4.868421v51.605172c0 2.15768 1.737053 3.89473 3.894737 3.89473h62.31579c2.157684 0 3.894737-1.73705 3.894737-3.89473v-62.315681c0-2.15768-1.737053-3.89473-3.894737-3.89473zm2.038651 2.038649h48.592928c1.055477 0 1.856085.800606 1.856085 1.856081v62.315681c0 1.055475-.800608 1.856082-1.856085 1.856082h-62.31579c-1.055477 0-1.856085-.800607-1.856085-1.856082v-49.566525h2.829769c7.025143 0 12.749178-5.724025 12.749178-12.749156z" fill="#a06e2c" opacity=".1"/><path d="m28.526316 12.947494v3.89473c0 5.91525-4.795266 10.710509-10.710527 10.710509h-4.868421v51.605172c0 2.15768 1.737053 3.89473 3.894737 3.89473h62.31579c2.157684 0 3.894737-1.73705 3.894737-3.89473v-62.315681c0-2.15768-1.737053-3.89473-3.894737-3.89473zm.943256.943256h49.688323c1.643321 0 2.95148 1.308156 2.95148 2.951474v62.315681c0 1.643318-1.308159 2.951475-2.95148 2.951475h-62.31579c-1.643321 0-2.95148-1.308157-2.95148-2.951475v-50.661918h3.925164c6.433206 0 11.653783-5.220568 11.653783-11.653763z" fill="#a06e2c" opacity=".3"/><path d="m28.34375 11.00013a1.9573072 1.9573038 0 0 0 -1.764803 1.947364v3.89473c0 4.857551-3.905599 8.763143-8.763158 8.763143h-4.868421a1.9573072 1.9573038 0 0 0 -1.947368 1.947366v51.605172c0 3.208066 2.634034 5.842095 5.842105 5.842095h62.31579c3.208071 0 5.842105-2.634029 5.842105-5.842095v-62.315681c0-3.208065-2.634034-5.842094-5.842105-5.842094h-50.631579a1.9573072 1.9573038 0 0 0 -.182566 0zm.121711 1.886509a.06605907.06605895 0 0 1 .03043 0 .06605907.06605895 0 0 1 .03043 0h50.631579c2.193135 0 3.955592 1.762454 3.955592 3.955585v62.315681c0 2.193131-1.762457 3.955585-3.955592 3.955585h-62.31579c-2.193135 0-3.955592-1.762454-3.955592-3.955585v-51.605172a.06605907.06605895 0 0 1 0-.03043.06605907.06605895 0 0 1 .03043-.03043.06605907.06605895 0 0 1 .03043 0h4.868421c5.879563 0 10.649672-4.7701 10.649672-10.649653v-3.89473a.06605907.06605895 0 0 1 0-.03043.06605907.06605895 0 0 1 0-.03043z" fill="url(#t)"/><path d="m28.34375 12.034667a.9157814.91577979 0 0 0 -.730263.912827v3.89473c0 5.420375-4.377313 9.797681-9.797698 9.797681h-4.868421a.9157814.91577979 0 0 0 -.912829.912828v51.605172c0 2.649133 2.158429 4.807558 4.807566 4.807558h62.31579c2.649137 0 4.807566-2.158425 4.807566-4.807558v-62.315681c0-2.649132-2.158429-4.807557-4.807566-4.807557h-50.631579a.9157814.91577979 0 0 0 -.09128 0 .9157814.91577979 0 0 0 -.09128 0zm.182566.912827h50.631579c2.157684 0 3.894737 1.73705 3.894737 3.89473v62.315681c0 2.15768-1.737053 3.89473-3.894737 3.89473h-62.31579c-2.157684 0-3.894737-1.73705-3.894737-3.89473v-51.605172h4.868421c5.915261 0 10.710527-4.795259 10.710527-10.710509z" fill="url(#n)"/><path d="m21 16a5 5 0 1 1 -10 0 5 5 0 1 1 10 0z" opacity=".4" transform="matrix(1.3 0 0 1.3 -34.3 -4.3)"/><path d="m23.991309 16.5c0-4.137336-3.353973-7.4913089-7.491309-7.4913089s-7.4913089 3.3539729-7.4913089 7.4913089 3.3539729 7.491309 7.4913089 7.491309 7.491309-3.353973 7.491309-7.491309zm-1.152509 0c0 3.500822-2.837978 6.3388-6.3388 6.3388s-6.3388-2.837978-6.3388-6.3388 2.837978-6.3388 6.3388-6.3388 6.3388 2.837978 6.3388 6.3388z" fill="#ba782c" opacity=".3"/><path d="m23 16.5c0 3.589851-2.910149 6.5-6.5 6.5s-6.5-2.910149-6.5-6.5 2.910149-6.5 6.5-6.5 6.5 2.910149 6.5 6.5zm-2 0c0-2.485281-2.014719-4.5-4.5-4.5s-4.5 2.014719-4.5 4.5 2.014719 4.5 4.5 4.5 4.5-2.014719 4.5-4.5z" fill="url(#p)"/><path d="m23 16.5c0-3.589851-2.910149-6.5-6.5-6.5s-6.5 2.910149-6.5 6.5 2.910149 6.5 6.5 6.5 6.5-2.910149 6.5-6.5zm-1 0c0 3.037566-2.462434 5.5-5.5 5.5s-5.5-2.462434-5.5-5.5 2.462434-5.5 5.5-5.5 5.5 2.462434 5.5 5.5z" fill="url(#q)"/><path d="m10.03125 17.15625c-.006185.116225-.03125.225983-.03125.34375 0 3.589851 2.910149 6.5 6.5 6.5s6.5-2.910149 6.5-6.5c0-.117767-.025065-.227525-.03125-.34375-.332865 3.277665-3.103265 5.84375-6.46875 5.84375s-6.135885-2.566085-6.46875-5.84375z" fill="#ba772b"/></g><g><path d="m20.0625 42.6875c-.366193-.0022-.5608.146602-.5625.4375-.000408.116326.04664.2018.125.28125.07837.07945.167784.124282.28125.125.0962.0005.203827-.0086.34375-.03125.06121-.01518.158764-.0321.28125-.03125.445908.0023.65985.322961.65625.9375l-.03125 4.96875c-.004.622771-.210361.9401-.65625.9375-.08743-.00038-.18528-.0063-.28125-.03125-.192232-.01746-.29991-.03092-.34375-.03125-.271042-.0015-.40455.139864-.40625.40625-.0018.300174.163517.4352.53125.4375.0088.000118.05015-.000055.09375 0 .04384-.01053.08993-.000213.125 0 .787978-.04367 1.58335-.0675 2.40625-.0625.54258.0033 1.193412.01025 1.9375.03125.743777.02171 1.06136.03181 1 .03125.280062.0017.488632.02215.59375.03125.210015.01776.37232.03047.46875.03125.402549.0025.59135-.20332.59375-.59375.00093-.116289.0093-.303025 0-.53125-.0095-.228499-.03221-.383197-.03125-.5.00097-.149051.01858-.380111.03125-.6875.01269-.307132-.000747-.537917 0-.6875.0023-.381924-.139443-.5604-.46875-.5625-.312036-.0019-.46655.15809-.46875.53125-.00076.124814-.01353.317717 0 .5625.01382.244801.03199.437942.03125.5625-.0022.398186-.118944.668851-.3125.8125-.193613.144415-.545954.22175-1.0625.21875l-1.78125-.03125c-.359227-.0022-.59165-.03497-.6875-.09375-.130964-.08351-.1805-.261722-.1875-.59375.00067-.09128-.02425-.288516-.03125-.5625-.0073-.224207-.000569-.398424 0-.53125v-.78125c.0014-.273371.03646-.44896.09375-.53125.05732-.0828.214996-.1266.46875-.125h.59375c.498488.003.7521.20507.75.5625-.00068.09154-.0088.200152-.03125.375-.02268.174572-.03083.31469-.03125.40625-.0023.349162.131129.52945.4375.53125.315135.0019.46695-.137838.46875-.4375.00058-.108057-.0063-.254327-.03125-.4375-.03355-.224816-.0542-.37085-.0625-.4375-.03433-.424561-.03218-.73991-.03125-.90625.0017-.291155.0109-.618026.0625-1 .06005-.448959.09357-.71444.09375-.78125.0021-.357687-.157722-.52965-.46875-.53125-.310735-.0021-.46665.167595-.46875.5-.00075.124557.0107.247904.03125.40625.02038.157558.03174.3067.03125.40625-.0018.357449-.268874.53445-.8125.53125h-.53125c-.146741-.0008-.25232-.01426-.3125-.03125-.155262-.05069-.22075-.262372-.21875-.59375v-.15625c.0003-.04978-.000628-.134205 0-.25.000872-.116032-.000403-.18372 0-.25v-.5625c.0024-.408746.185836-.66086.5625-.75.113744-.02451.472244-.03485 1.09375-.03125.944616.0058 1.554211.03223 1.78125.125.305076.126791.4418.551915.4375 1.25v.65625c-.0024.440738.15774.65445.46875.65625s.46685-.153102.46875-.46875c.00068-.116565-.03557-.289884-.0625-.53125-.01357-.116301-.0017-.334102 0-.625.00097-.224128.01152-.452893.03125-.71875.02655-.356695.0311-.58996.03125-.65625.0021-.382712-.20288-.5599-.65625-.5625-.113228-.00043-.266671-.0072-.40625 0-.392412.02144-.59515.0318-.65625.03125l-3.15625.0625h-.125c.08743.000384-.536328-.03439-1.84375-.125-.122133-.0093-.179.000099-.1875 0zm51.53125.0625c-1.194776-.0071-2.132168.400727-2.84375 1.21875-.71138.818813-1.08545 1.933087-1.09375 3.3125-.0079 1.287599.344863 2.323345 1.03125 3.125.686369.801912 1.58946 1.21225 2.71875 1.21875.901037.0055 1.614916-.227428 2.125-.65625.114466-.0988.265254-.27506.46875-.53125-.0106.18241-.02175.3316-.03125.40625l-.03125.28125c-.0016.290128.162378.4357.46875.4375.315904.0019.46655-.161931.46875-.5.0007-.09902-.01616-.233077-.03125-.40625-.0151-.173173-.03255-.379193-.03125-.59375l.03125-.96875c.005-.808196.178781-1.220927.5625-1.21875.02657.000114.08115-.000073.125 0 .04309.000017.07621.000022.09375 0 .05236.0002.114048-.0006.21875 0 .121973.000816.21985-.04243.3125-.125.09163-.08264.155823-.164667.15625-.28125.0015-.274911-.181813-.4355-.53125-.4375-.131543-.00047-.238374.01539-.34375.03125-.480987.07257-.94638.1273-1.375.125-.332404-.0021-.761859-.04754-1.3125-.125-.140016-.01889-.261772-.03081-.375-.03125-.358714-.0022-.5606.146621-.5625.4375-.0016.282648.204393.40375.625.40625.07014.00043.181446.007.3125 0 .131605-.0075.24259-.000149.3125 0 .253259.0013.431058.04323.53125.15625.100154.113532.1269.310607.125.59375-.0039.692439-.192402 1.220602-.5625 1.59375-.369566.372929-.88812.5663-1.5625.5625-.875499-.0055-1.540614-.317977-2.03125-.96875-.490599-.651286-.7569-1.563428-.75-2.71875.0062-1.088809.265259-1.941704.75-2.5625.483697-.620613 1.152845-.9425 2-.9375.673059.0043 1.198242.195656 1.59375.53125.395526.335338.59705.769434.59375 1.34375v.375c-.0024.407462.161096.6232.46875.625.325438.0021.46645-.188056.46875-.5625-.000543-.0746 0-.125 0-.125-.03935-.515738-.06335-.84191-.0625-1 .00074-.199377.03132-.388026.0625-.5625l.09375-.59375c.0096-.05813.03031-.133454.03125-.25.0016-.357467-.152845-.5606-.46875-.5625-.289596-.0018-.4357.131614-.4375.40625.00034.01679.01619.114786.03125.28125-.00018.01676-.0057.102044.03125.21875-.70745-.627999-1.497136-.96385-2.375-.96875zm-20.90625.125c-.33191-.0018-.4977.151095-.5.5.00042-.06653.0053.122032.03125.5625.01343.224653.0013.44866 0 .65625-.00033.108077-.0073.351319-.03125.75-.02334.265854-.03068.454699-.03125.5625-.0026.382418.176359.59175.5.59375.341187.002.497-.257736.5-.78125.00084-.133064.0088-.23756 0-.3125l-.0625-.46875c-.0083-.0749-.0011-.229378 0-.4375.0036-.581264.307744-.8787.9375-.875l.40625.03125c.637731.004.97215.284954.96875.875l-.03125 2.03125v1.0625 1.09375.875c-.004.623028-.250905.9402-.6875.9375-.07016-.00017-.172413-.0098-.3125-.03125-.139868-.02094-.24261-.03084-.3125-.03125-.27955-.0016-.40425.108633-.40625.375-.0017.290642.177459.4355.5625.4375.01753.000234.05017.03094.09375.03125.03466-.0083.0672-.03162.09375-.03125l.65625-.09375c.254131-.03221.542339-.03335.875-.03125.306133.0015.599117.02754.84375.0625l.625.09375c.01753.00024.0495-.0089.09375 0 .03456.000175.07622-.000234.09375 0 .394042.0024.59185-.14662.59375-.4375.000328-.108076-.04227-.20148-.125-.28125-.08302-.07927-.199034-.124283-.3125-.125-.07042-.00019-.172286.01171-.3125.03125-.140488.0198-.24263.03191-.3125.03125-.446641-.0029-.66005-.314198-.65625-.9375l.03125-4.21875.0625-.875c.01904-.299188.07817-.528123.21875-.65625.14056-.127874.395365-.1895.71875-.1875h.34375c.689854.0039 1.03445.298869 1.03125.875-.0011.150334-.0047.359928-.03125.65625-.02632.296341-.03015.537165-.03125.6875-.0026.417765.137886.623.46875.625.339885.0021.52935-.159327.53125-.5.00082-.08276-.03177-.306768-.0625-.65625-.02515-.266005-.03176-.468917-.03125-.59375v-.125c.02686-.257344.07107-.494127.09375-.71875.02314-.223815.03065-.38546.03125-.46875v-.03125c.0022-.340398-.219655-.4973-.65625-.5-.200898-.0011-.48577.01145-.84375.03125-.401577.01976-.677923.03214-.84375.03125-.759496.01014-1.231404.001-1.40625 0h-1.5c-.672025-.03644-1.01866-.06217-1.0625-.0625-.445244-.02933-.721777-.03043-.84375-.03125zm11.84375 0c-.410818-.0023-.670382.181874-.8125.53125l-2.5 6.28125c-.124332.324604-.19747.49612-.25.5625-.124042.174211-.294766.28265-.53125.28125h-.1875c-.03508-.0322-.08559-.06204-.15625-.0625-.331891-.0021-.4981.147391-.5.4375-.0017.273096.159089.40405.5.40625.113723.00074.317395-.0061.5625-.03125l.53125-.0625c.121654-.0126.349878-.0018.65625 0 .279787.0019.471276-.0153.59375 0l.65625.09375c.121849.0168.21085.03081.28125.03125.39406.0022.59155-.133191.59375-.40625.0013-.289633-.172537-.4353-.53125-.4375-.07865-.00053-.181925-.01514-.34375 0-.161825.01511-.28784.03187-.375.03125-.341425-.0022-.53315-.140653-.53125-.40625.00058-.08303.02653-.15921.0625-.25l.40625-.96875c.106291-.257022.18443-.41105.25-.46875.0661-.05791.168922-.09505.34375-.09375l2.34375.03125c.174572.0013.28711.02874.34375.0625.05589.03345.10497.117039.15625.25l.46875 1.21875c.06911.182495.12576.28056.125.3125-.0012.224109-.149463.34575-.4375.34375-.07893-.00029-.190715-.014-.34375-.03125-.153328-.01676-.29635-.03073-.375-.03125-.384784-.002-.561.124885-.5625.40625-.0015.281364.1813.4354.53125.4375.09566.00072.22226-.01642.40625-.03125.726958-.0597 1.269833-.0642 1.59375-.0625.271556.0016.66832.02766 1.21875.09375.157342.01834.2788.03075.375.03125.33345.0019.4986-.147354.5-.4375.0011-.272877-.167063-.40435-.5-.40625l-.34375.03125c-.03484.01093-.11787.000388-.1875 0-.22772-.0012-.378003-.06207-.5-.1875-.12121-.12563-.259612-.389853-.40625-.78125l-2.3125-6.1875c-.129531-.349655-.409951-.52875-.8125-.53125zm-.0625 1.03125 1.1875 3.4375c.01655.04995.000161.07725 0 .09375-.00066.06625-.05153.09409-.15625.09375h-2.0625c-.130996-.000952-.218995-.0502-.21875-.125.00061-.0085.01344-.01244.03125-.0625zm-31.0625.75c-.691118-.0043-1.262603.170931-1.75.5-.487671.329307-.7471.722287-.75 1.1875-.0012.215859.0663.412166.21875.5625.152466.15008.366304.21725.59375.21875.19263.0013.341317-.04936.46875-.15625.12799-.107365.186555-.239654.1875-.40625.000953-.198846-.06532-.35385-.1875-.4375-.07867-.05031-.09381-.09198-.09375-.125.000406-.0913.05591-.16766.1875-.25.342239-.205399.700203-.3146 1.09375-.3125.445871.0028.814335.115777 1.0625.3125.247909.196705.34595.440852.34375.78125-.0021.35743-.08861.618605-.3125.75-.223632.131413-.702557.24229-1.4375.3125-.516631.05529-.860681.08882-1.03125.125-.170863.03667-.388046.127031-.625.25-.622984.320303-.9334.811191-.9375 1.5-.0033.556257.202339 1.009031.625 1.34375.422422.334443.97858.4957 1.6875.5.953397.0057 1.674984-.287589 2.125-.90625.162716.590183.595074.8706 1.3125.875.875242.0055 1.32151-.390611 1.34375-1.1875v-.71875-.0625c.0025-.398167-.12153-.59225-.40625-.59375-.267155-.0018-.40485.143714-.40625.40625v.59375c-.0031.52531-.162122.78305-.46875.78125-.245248-.0015-.41799-.147457-.46875-.4375-.01679-.07449-.0024-.290359 0-.6875v-2.53125c.0087-1.448273-.783083-2.178-2.375-2.1875zm9.03125 0c-.15775.05709-.217475.20559-.21875.4375v.0625c-.390723-.291132-.884388-.434-1.46875-.4375-.741407-.0046-1.348033.173177-1.8125.53125-.464467.358074-.71525.825756-.71875 1.40625-.0036.613513.24747 1.033832.71875 1.28125.471261.247674 1.16108.43464 2.0625.53125.944998.09692 1.40955.405013 1.40625.96875-.0019.314878-.156147.575835-.4375.78125-.281133.205948-.633643.3151-1.0625.3125-.595455-.0036-1.084921-.117873-1.46875-.34375-.383865-.225363-.58725-.519267-.59375-.875-.0068-.356007-.01485-.57309-.0625-.65625-.04791-.08318-.160139-.1239-.34375-.125-.2803-.0019-.4358.146603-.4375.4375-.00074.09953.02869.231467.0625.40625.03381.174784.03245.36316.03125.5625-.00068.116565-.01328.227145-.03125.34375-.05553.490047-.06284.71453-.0625.65625-.002.341186.144595.498.46875.5.298102.0019.46695-.137582.46875-.4375.000495-.07504-.000601-.13546 0-.21875.529755.391476 1.150844.58965 1.875.59375.776222.0048 1.392927-.196411 1.875-.5625.482074-.366089.7468-.840469.75-1.4375.0059-.978405-.762889-1.581684-2.25-1.78125l-.75-.09375c-.770072-.10415-1.15955-.406782-1.15625-.9375.0016-.290385.164774-.556861.4375-.75.272744-.193399.597176-.28355 1-.28125.394042.0024.739015.101723 1.03125.28125.292217.179783.4302.408043.4375.65625v.40625c.0067.264926.162076.3734.4375.375.283932.0017.40455-.152313.40625-.46875.00078-.100045.02021-.245897 0-.4375-.02048-.191365-.03199-.33797-.03125-.4375.00094-.166597.0014-.333941.03125-.5.01549-.199604.03101-.32522.03125-.375.0017-.266386-.148931-.3732-.4375-.375-.06995-.000411-.134917-.01903-.1875 0zm2 .28125c-.402567-.0023-.59225.153037-.59375.4375-.0015.267687.16236.40475.46875.40625.04356.00057.114277-.0096.25-.03125.135724-.02167.22863-.03144.28125-.03125.19263.0013.353421.188135.5.5625l.15625.375 1.4375 3.46875c.233064.566372.34505.980166.34375 1.1875-.0026.406674-.189104.767795-.5625 1.09375-.37389.325662-.786583.47155-1.25.46875-.367476-.0023-.620295-.09825-.75-.28125.256309-.07307.3734-.234641.375-.5.00087-.16557-.05682-.293866-.1875-.40625-.1309-.112912-.298075-.1863-.5-.1875-.254011-.0016-.466538.08859-.625.25-.158444.16115-.21685.36714-.21875.625-.0019.365956.170293.677157.53125.9375.361506.259867.810189.40305 1.34375.40625.89176.0054 1.6198-.342889 2.21875-1.0625.352483-.422151.726275-1.125378 1.125-2.0625l1.8125-4.21875c.177618-.422919.36491-.625926.53125-.625.04358.00031.105178.0034.21875.03125.04329.01858.13132.03086.21875.03125.288551.002.4357-.134456.4375-.40625.0017-.28032-.186259-.4351-.5625-.4375-.148556-.00067-.367265.02637-.65625.0625-.288931.03537-.507694.06317-.65625.0625-.140032-.00083-.283924-.0139-.40625-.03125l-.46875-.0625c-.122326-.01733-.19738-.03106-.25-.03125-.376478-.0027-.59225.153037-.59375.4375-.0018.267926.147372.3734.4375.375.04358.00031.140654.0177.28125 0 .06169-.01824.144527-.03191.25-.03125.20191.0014.313168.07742.3125.21875-.0007.06677-.01796.133509-.0625.25l-1.625 4.15625-1.5-4.21875c-.03455-.100277-.06243-.18317-.0625-.25.000958-.116798.0645-.18839.1875-.1875.05262.00019.136073.01192.25.03125.113946.01908.19738.03106.25.03125.333193.0019.4984-.130055.5-.40625.0016-.275681-.163773-.40395-.53125-.40625-.08769-.0004-.259964.0044-.53125.03125-.359387.03569-.71584.0641-1.03125.0625-.04358-.00031-.09497-.02245-.15625-.03125-.06087-.00027-.08525.000099-.09375 0l-.53125-.0625c-.07048-.01002-.180994-.03026-.3125-.03125zm-9.6875 2.96875v.875c-.01172.529849-.192435.949151-.53125 1.25-.338761.300078-.820329.47215-1.40625.46875-.411074-.0024-.729466-.09729-.96875-.28125-.239065-.183424-.34535-.43536-.34375-.75.0035-.604749.506505-.94618 1.5-1.03125.549276-.04648.911066-.12247 1.125-.1875.213659-.0648.43227-.179403.625-.34375zm-6.34375 10.71875c-.201594-.000937-.280303.06539-.28125.21875-.00059.06147.02185.11417.0625.15625.0407.04139.06527.06203.125.0625.05032.00014.1142.01323.1875 0 .03207-.0085.09198-.0317.15625-.03125.23408.0012.34545.177182.34375.5v2.625c-.002.326991-.141641.47025-.375.46875-.04577-.00017-.07432.0145-.125 0-.10036-.009-.16477-.03135-.1875-.03125-.141813-.0012-.218037.0783-.21875.21875-.0012.157535.08455.249067.28125.25.01363-.000063.03945-.000268.0625 0 .02303-.0042.0531-.03158.0625-.03125l.3125-.03125c.150772-.02122.307521-.03255.5-.03125.132748.00085.255728.01319.375.03125l.375.0625c.01364-.0001.01342-.0048.03125 0 .02305.000267.0527-.000008.0625 0 .201221.0013.311625-.09279.3125-.25.001-.140075-.07691-.186687-.21875-.1875-.03703-.00023-.10022-.01326-.1875 0-.05972.0089-.11994.03178-.15625.03125-.234079-.0012-.34575-.172662-.34375-.5l.03125-2.625c.0017-.322819.110391-.47025.34375-.46875.0643.0001.09317-.0093.125 0 .0773.01361.1421.03077.1875.03125.05974.00047.11449-.02148.15625-.0625.04109-.04142.06225-.09476.0625-.15625.000947-.153366-.07966-.249063-.28125-.25-.02727.0001-.05709.02695-.09375.03125l-.3125.03125c-.169598.02059-.326887.03171-.46875.03125-.146706-.0012-.300445-.01261-.4375-.03125l-.375-.0625c-.037-.0055-.06651.000221-.09375 0zm2.65625.03125c-.206487-.000941-.311679.06713-.3125.21875-.0013.138656.07691.186687.21875.1875.0412.00053.10558.01156.1875 0 .05542-.0076.08377-.000183.125 0 .234054.0015.34575.141412.34375.46875v2.625c-.002.32699-.110044.5015-.34375.5-.0639-.00078-.12444-.02165-.15625-.03125-.0734-.01439-.13718.000141-.1875 0-.06008-.0005-.11481.02111-.15625.0625-.04112.04176-.06228.0951-.0625.15625-.000599.153382.115451.217792.3125.21875.01398-.000038.0082-.000268.03125 0 .02303-.0043.0534.000042.0625 0l.34375-.0625c.0963-.01228.192126-.000821.34375 0 .174324.0011.339198.01718.5.03125l.5.03125c.105223.0094.211542-.000655.3125 0 .499551.0032.926777-.08668 1.28125-.28125.294962-.159377.516395-.40867.6875-.75.172492-.341229.2471-.728674.25-1.15625.0021-.483905-.101374-.914047-.3125-1.28125-.211448-.367576-.477865-.599488-.84375-.75-.279336-.114902-.645032-.1849-1.0625-.1875-.142212-.00049-.25647-.0084-.34375 0l-.4375.0625c-.128835.01271-.246772.000529-.375 0-.156491-.0012-.331695-.01261-.46875-.03125l-.34375-.03125c-.03703-.0051-.07105.000243-.09375 0zm5.5625.03125c-.182396-.0006-.29803.0031-.34375.03125-.04607.02813-.06166.10068-.0625.21875-.0001.07409.000572.15763 0 .21875.0001.06152.000797.158982 0 .28125-.00032.05275.0077.112011 0 .21875-.0081.107062-.03096.1976-.03125.25-.000975.187615.0942.28015.25.28125.15999.0011.21735-.115979.21875-.34375.00039-.04401.0086-.10404 0-.1875-.0087-.08311-.000011-.14381 0-.1875.000733-.135903.04155-.2153.15625-.25.05992-.02152.196131-.03225.375-.03125h1.59375l-1.4375 1.34375c-.07387.06945-.125056.13507-.125.1875-.000864.113529.04657.155315.15625.15625.03706-.00012.08312.0089.125 0 .192636-.03955.383606-.0632.5625-.0625.678767.0043 1.0029.276372 1 .84375-.002.322098-.09927.606836-.34375.8125-.244135.205692-.557088.28395-.9375.28125-.339931-.0018-.657249-.06131-.90625-.21875-.249323-.157816-.34515-.350103-.34375-.5625v-.0625h.0625c.269347.0016.40485-.09521.40625-.3125.000537-.109005-.05057-.18206-.125-.25-.07549-.06766-.162137-.124081-.28125-.125-.183066-.000996-.343981.07853-.46875.21875-.124451.140593-.186.326899-.1875.53125-.002.356694.188561.635644.53125.875.34274.238661.767691.3721 1.28125.375.559654.0034 1.01784-.14771 1.375-.4375.357533-.290112.52825-.662827.53125-1.125.0016-.370703-.126664-.667071-.375-.90625-.248337-.239179-.547972-.3727-.9375-.375-.01818.000085-.05287.000158-.09375 0-.0454-.000484-.09775.000221-.125 0l1.28125-1.15625c.115098-.103173.155348-.18171.15625-.28125.000825-.156512-.104933-.2487-.375-.25-.14601-.0011-.296323-.0025-.40625 0-.219606.0065-.37723.000671-.46875 0zm15.78125.03125c-.229857-.0016-.343008.07306-.34375.21875-.000762.141139.08022.1864.25.1875.03671-.00015.08916.01437.15625 0 .0667-.01368.11959-.0318.15625-.03125.105849.000659.16511.08362.1875.21875.0097.03984.0011.138177 0 .3125v.65625c-.222749-.336937-.545502-.4972-1-.5-.467439-.0027-.843619.153913-1.125.46875-.281704.314465-.4351.722781-.4375 1.25-.0035.522598.124231.956806.40625 1.28125.282068.323749.657909.46615 1.125.46875.46252.003.818405-.130802 1.0625-.4375v.09375.03125c-.0012.15753.06382.24945.1875.25.04158.00021.10008-.01818.15625-.03125.09145-.0081.14264-.000284.15625 0 .04543.00014.12416.01987.21875.03125.09352.01166.14106-.00056.1875 0 .206834.000966.3113-.071.3125-.21875.000193-.142937-.07672-.217762-.25-.21875-.02864-.00032-.07992.02455-.15625.03125-.03232.0071-.09545.0002-.15625 0-.08943-.000521-.13336-.02359-.15625-.09375-.02361-.06986-.02835-.2743-.03125-.5625v-1.09375-.625c.00054-.113898.01964-.281352.03125-.5.01643-.309866.03145-.47377.03125-.5.005-.21843-.0037-.33074 0-.34375v-.09375c.0014-.174642-.05863-.2487-.1875-.25-.04158-.00021-.10881-.01039-.1875 0-.07797.01005-.14593.03146-.1875.03125-.0045-.00032-.07141-.01955-.21875-.03125-.09598-.01145-.15082.000204-.1875 0zm-19.40625.375c.284372.0017.517054.03619.71875.09375.315817.08888.570562.259798.75.5625.179706.30377.28365.690047.28125 1.125-.0035.555804-.168277 1.006526-.46875 1.34375-.248892.281187-.636936.40965-1.1875.40625-.316858-.0019-.52512-.01371-.59375-.03125-.206128-.0446-.314-.175195-.3125-.375l.03125-2.75c.000946-.182371.0446-.27357.125-.3125.08105-.03818.293619-.0646.65625-.0625zm10.46875.625c-.36263-.0021-.650493.07695-.90625.25-.255434.173417-.40505.380787-.40625.625-.000864.113525.04472.23365.125.3125.07958.0788.192691.09278.3125.09375.101356-.00002.18304-.0065.25-.0625.06703-.05702.09338-.1314.09375-.21875.00059-.104808-.02911-.17494-.09375-.21875-.04108-.02638-.06306-.04507-.0625-.0625-.000009-.04824.02492-.11299.09375-.15625.180127-.108258.387288-.15755.59375-.15625.233384.0011.401368.05285.53125.15625.129905.103054.21947.258258.21875.4375-.0016.187213-.06994.30556-.1875.375-.116811.0688-.363916.11914-.75.15625-.270489.02868-.47273.04382-.5625.0625-.08948.0194-.18829.06023-.3125.125-.326336.167945-.4976.45059-.5.8125-.0016.292419.121911.512097.34375.6875.221467.17572.50328.27925.875.28125.500619.003.889086-.175935 1.125-.5.0855.311292.310887.46665.6875.46875.459019.0031.67687-.175816.6875-.59375l.03125-.375v-.03125c.0015-.209243-.10014-.34275-.25-.34375-.140793-.000737-.186616.08076-.1875.21875v.3125c-.0017.275629-.08896.40745-.25.40625-.128924-.000579-.22363-.06621-.25-.21875-.0087-.03907-.0011-.165732 0-.375v-1.3125c.0043-.761248-.415411-1.15115-1.25-1.15625zm4.5625.03125c-.459714-.0032-.815114.169935-1.09375.5v-.1875c.000608-.134162-.086-.217895-.21875-.21875-.0045-.00033-.0686.02062-.1875.03125-.05502.01171-.11448.000383-.1875 0l-.25-.03125c-.01817-.0048-.03419-.000051-.0625 0-.205393-.0016-.3114.07309-.3125.21875-.000415.141168.08231.217816.25.21875.03283.00028.09251-.01978.15625-.03125.06299-.01082.09179.000047.125 0 .07438.00083.12632.0076.15625.0625.02991.05528.054.164048.0625.3125v.25.78125.71875c-.0064.252578-.07902.376-.21875.375-.0608-.0002-.1241.01262-.1875 0-.06342-.01226-.10195-.03098-.125-.03125-.149863-.001-.249041.07972-.25.21875-.000893.147775.119326.21735.3125.21875.02725.00023.141616-.01021.34375-.03125.160232-.01672.27821-.0316.375-.03125.123659.00089.242703.01731.34375.03125.201746.02786.30707.03105.34375.03125.18339.0014.28015-.07763.28125-.21875.0011-.145663-.07656-.217912-.21875-.21875-.04088-.00015-.09196.01702-.15625.03125-.06426.01391-.11954.03111-.15625.03125-.07337-.000408-.09823-.05526-.125-.125-.02743-.07014-.0638-.183216-.0625-.375v-.875c.0023-.409099.07672-.705808.1875-.875.161167-.247333.415118-.377.78125-.375.191783.0013.381274.05524.53125.15625.136969.09238.21062.240188.25.40625.02302.08729.03325.237876.03125.46875v.5.375.34375c-.01068.239684-.07606.375713-.1875.375-.02342.00005-.06762-.01471-.15625-.03125-.04621-.0086-.088-.03067-.125-.03125-.158974-.000654-.249.08391-.25.21875-.000847.151969.09853.217779.28125.21875.01433-.00002.114367-.0055.34375-.03125.07784-.0084.193039-.000944.3125 0 .128576.00055.25941.0126.40625.03125.146145.01863.2482-.000102.3125 0 .07722.00034.16355-.01931.21875-.0625.0548-.04252.06235-.09125.0625-.15625.00059-.05658-.0189-.08515-.0625-.125-.04296-.0391-.09687-.06205-.15625-.0625-.02727.00013-.05826-.0095-.125 0-.06677.0098-.11537.03141-.15625.03125-.100261-.000604-.16537-.101611-.1875-.25-.0044-.03527-.03255-.124913-.03125-.3125l.03125-1.25c.0013-.240015-.03077-.444855-.09375-.59375-.07722-.179281-.248952-.316068-.46875-.4375-.220519-.121137-.439115-.186-.6875-.1875zm10.125.0625c-.220469-.000902-.383516.02264-.53125.09375-.147362.07079-.302169.219422-.46875.40625v-.1875c.000352-.125797-.07815-.186937-.1875-.1875h-.1875c-.0049-.000004-.004.000222-.03125 0-.02724-.000221-.07068-.00008-.09375 0-.06393-.00043-.13126.0081-.21875 0-.08682-.0076-.13686-.03074-.1875-.03125-.188302-.001-.280705.07095-.28125.21875-.000985.139384.08022.21765.25.21875.02797-.00008.04735.0085.09375 0 .109645-.02283.169-.03154.1875-.03125.09152.000672.16823.03379.1875.125.02056.09201.03285.317145.03125.6875l-.03125 1v.375c-.01088.213457-.0621.3135-.1875.3125-.01433 0-.02665.0038-.03125 0l-.1875-.03125c-.0094-.0003-.01302.0041-.03125 0-.01853.00006-.02185-.000017-.03125 0-.177481-.000942-.27935.05063-.28125.1875-.0014.150182.09853.249029.28125.25.04192.00024.147183-.0147.34375-.03125.14766-.012.25732-.03174.3125-.03125.109701.00059.249997.01227.40625.03125.114334.01385.20267.03046.28125.03125.206139.000916.311-.07766.3125-.21875.000021-.145394-.102406-.21735-.28125-.21875-.01364.000063-.01272-.000059-.03125 0-.01823.0057-.0538.00028-.0625 0-.07331.02301-.10195.06277-.125.0625-.08208-.000689-.13904-.101267-.15625-.25-.0037-.03033-.000393-.137778 0-.3125v-.84375c.002-.423802.08487-.736631.21875-.90625.16116-.208539.385295-.3141.6875-.3125.275977.0018.455183.0691.5625.21875.106668.148906.15855.43241.15625.8125v.53125c.000353.0042.00081.04607 0 .125-.0003.09155.000676.18484 0 .28125l-.03125.3125c-.0059.222551-.04655.344338-.15625.34375-.03216.00012-.09184-.01331-.15625-.03125-.02644-.01133-.07436-.03074-.125-.03125-.137291-.000834-.187039.08178-.1875.21875-.001.14986.09364.217775.28125.21875.08735.00037.166791-.01436.28125-.03125.114484-.01727.24699-.000701.34375 0 .06813.00038.147324-.01842.28125 0 .135316.01854.24368.03082.3125.03125.215552.0012.312232-.07478.3125-.21875.00087-.0604-.019-.08376-.0625-.125s-.09197-.06205-.15625-.0625c-.02727.00012-.07259-.0095-.125 0-.05281.01021-.06653.000569-.09375 0-.08734-.000371-.16764-.02256-.1875-.125-.01976-.103136-.0023-.371804 0-.78125v-.46875c.0026-.423056.05525-.7058.15625-.875.129299-.212589.331345-.3143.65625-.3125.168388.000984.336439.01429.46875.09375.131615.07941.23385.206466.28125.34375.04737.137631.0643.355809.0625.65625v.4375.375c-.0064.296264-.04143.48853-.0625.5625s-.07834.125387-.15625.125c-.04543-.00014-.06723-.02095-.09375-.03125-.07299-.01053-.1065.000289-.125 0-.145344-.000716-.21787.0544-.21875.1875-.000972.153708.08875.217771.28125.21875.07789.00074.195218.01443.34375 0 .149277-.0151.26584-.03164.34375-.03125.07374.00008.173183.01489.3125.03125.139988.01679.2437.03047.3125.03125.183436.000673.27955-.09599.28125-.25.000483-.132424-.08966-.1864-.25-.1875-.03214-.00023-.09164.0174-.15625.03125-.06359.01424-.09286.000226-.125 0-.09571-.000625-.1653-.06162-.1875-.21875-.0038-.03942-.0014-.164558 0-.34375v-.46875-.65625c.0018-.310226-.0041-.543476-.0625-.6875-.08623-.214183-.271632-.381094-.5-.5-.206599-.105804-.425506-.15445-.6875-.15625-.252582-.0015-.46487.05164-.625.125-.160824.07331-.31156.192386-.46875.375-.207999-.333075-.551089-.4973-1-.5zm5.9375.03125c-.491206-.0026-.8627.154792-1.15625.46875-.293922.314281-.4341.749909-.4375 1.28125-.0025.532111.119209.932183.40625 1.25.287413.317495.674481.4973 1.15625.5.495353.0033.886418-.178547 1.1875-.5.300335-.320807.46595-.718261.46875-1.25.0045-.531961-.149262-.970336-.4375-1.28125-.286823-.311161-.686533-.46575-1.1875-.46875zm4.15625.03125c-.398617-.0022-.697519.15127-.9375.46875v-.1875c.0017-.124994-.06891-.1891-.1875-.1875-.05026-.00083-.08781.01961-.125.03125-.08293.01114-.15082.000204-.1875 0-.04577-.00017-.12669.01259-.21875 0-.09211-.01185-.14173-.03109-.1875-.03125-.197397-.000984-.312374.06708-.3125.21875-.000909.138338.06782.217979.21875.21875.03703.00023.09045-.02028.15625-.03125.06369-.01082.11957-.000204.15625 0 .123335.000524.20729.117639.21875.375v1.5.34375c-.01065.200539-.07221.281892-.1875.28125-.01885-.00032-.04722.009-.09375 0l-.09375-.03125c-.02307-.0048-.07851-.000136-.125 0-.176058-.0012-.24969.05262-.25.1875-.0012.152298.09225.2489.28125.25l.375-.03125c.104791-.0088.254806-.03255.4375-.03125.06952.00048.173878.01494.3125.03125.140012.0164.24365.03117.3125.03125h.03125c.188998.0011.28125-.06881.28125-.21875.000809-.136949-.07063-.217833-.21875-.21875-.03669-.00021-.07425.02059-.125.03125-.06431.01453-.12742.000497-.1875 0-.12018-.000646-.19653-.126298-.21875-.375-.0034-.0352-.0019-.177051 0-.46875v-.4375c.0019-.37942.01944-.656895.09375-.84375.121627-.304713.362055-.47075.71875-.46875.174671.0011.320844.03688.4375.125.115639.08769.1886.217657.1875.34375-.00036.04366-.003.07321-.03125.125-.04547-.01408-.08014-.03097-.09375-.03125-.07443-.00014-.16382.0397-.21875.09375-.05634.05429-.06234.11761-.0625.1875-.000346.087.02098.15687.09375.21875.07351.06123.175399.09309.28125.09375.165607.000783.304671-.06832.40625-.1875.102274-.119128.156017-.245641.15625-.4375.002-.270016-.114278-.514153-.3125-.6875-.198223-.173341-.459152-.248-.78125-.25zm3.03125 0c-.487332-.0031-.882364.170802-1.1875.5-.304491.329943-.46525.749562-.46875 1.28125-.0025.518477.155394.941277.4375 1.25.282776.309121.643231.46605 1.125.46875.385703.002.727498-.09434 1.03125-.3125.305118-.217709.46685-.467044.46875-.75.000436-.165637-.08022-.2489-.25-.25-.119486-.000596-.18675.05197-.21875.15625l-.0625.1875c-.05115.161269-.175152.271499-.34375.375-.168599.103497-.360583.15755-.5625.15625-.307444-.0016-.543969-.09246-.75-.3125-.204641-.219944-.3138-.515666-.3125-.84375.00042-.03492.01306-.04774.03125-.0625.01894-.01546.06492-.03175.125-.03125l2.1875.03125c.110398.00064.1642-.02539.1875-.0625.02258-.03681.03015-.146919.03125-.3125.0032-.421963-.128364-.756035-.40625-1.03125-.278532-.275962-.631397-.435-1.0625-.4375zm-19.4375.3125c.240015.0013.440762.105624.625.25.15639.123491.27202.281434.3125.5.0225.105076.03315.301704.03125.59375-.0014.227076-.01211.418491-.03125.5625-.02932.226804-.114784.394392-.28125.53125-.167484.136432-.375225.22035-.625.21875-.328034-.002-.593042-.135623-.78125-.375-.188261-.238682-.28365-.554064-.28125-.96875.0017-.40145.09722-.738796.28125-.96875.183679-.229979.425816-.34585.75-.34375zm12.28125.09375c.697346.0036 1.03735.440236 1.03125 1.3125-.002.414364-.08972.736542-.28125.96875-.192921.232107-.446212.34555-.78125.34375-.326295-.0019-.60106-.109495-.78125-.34375-.179818-.234577-.2524-.558609-.25-.96875.000593-.05658 0-.09375 0-.09375.01995-.392096.12727-.693508.3125-.90625.184535-.212792.428598-.3144.75-.3125zm7.15625.03125c.248385.0015.47325.0788.65625.25.181984.170774.28295.3941.28125.625-.000225.06115-.06019.0944-.15625.09375l-1.65625-.03125c-.101652-.00071-.156474-.0326-.15625-.09375.0014-.217638.130885-.388103.34375-.5625.211899-.175516.430373-.28275.6875-.28125zm-27.09375 1.125v.46875c-.0062.279153-.103839.498514-.28125.65625-.177386.157389-.411678.22065-.71875.21875-.2159-.0013-.405411-.05978-.53125-.15625-.125819-.09682-.188308-.209046-.1875-.375.002-.3179.2604-.51765.78125-.5625.287647-.0243.48186-.0592.59375-.09375.112536-.03381.242794-.06988.34375-.15625z" fill="#333"/><path d="m20 38.911858h56v1.088142h-56z" opacity=".15"/><path d="m20 50.911858h56v1.088142h-56z" opacity=".15"/><path d="m20 62.911858h56v1.088142h-56z" opacity=".15"/><path d="m20 74.911858h56v1.088142h-56z" opacity=".15"/><path d="m32.022011 26.911858h43.977989v1.088142h-43.977989z" opacity=".15"/></g><rect height="66" rx="12" style="opacity:.1;stroke:#fefefe;stroke-width:.5;stroke-linecap:round;clip-path:url(#h);fill:url(#f);filter:url(#e)" width="66" x="15" y="15"/></svg>