<svg height="96" width="96" xmlns="http://www.w3.org/2000/svg" xmlns:xlink="http://www.w3.org/1999/xlink"><linearGradient id="a"><stop offset="0" stop-color="#fefefe"/><stop offset="1" stop-color="#fefefe" stop-opacity="0"/></linearGradient><linearGradient id="b" gradientUnits="userSpaceOnUse" x1="36.357143" x2="36.357143" xlink:href="#a" y1="6" y2="63.893143"/><filter id="c" color-interpolation-filters="sRGB" height="1.384" width="1.384" x="-.192" y="-.192"><feGaussianBlur stdDeviation="5.28"/></filter><linearGradient id="d" gradientUnits="userSpaceOnUse" x1="48" x2="48" xlink:href="#a" y1="20.220806" y2="138.66119"/><radialGradient id="e" cx="48" cy="90.171875" gradientTransform="matrix(1.1573129 0 0 .99590774 -7.551021 .197132)" gradientUnits="userSpaceOnUse" r="42" xlink:href="#a"/><clipPath id="f"><rect height="84" rx="6" width="84" x="6" y="6"/></clipPath><linearGradient id="g" gradientUnits="userSpaceOnUse" x1="47.7241392" x2="47.7241392" y1="90.448278" y2="4.98750562388"><stop offset="0" stop-color="#e26f00"/><stop offset="1" stop-color="#f9a314"/></linearGradient><radialGradient id="h" cx="10" cy="150.57812" gradientTransform="matrix(1.4074074 -.00000009 .00000003 .45414222 -4.074078 17.616125)" gradientUnits="userSpaceOnUse" r="54"><stop offset="0" stop-color="#d93503"/><stop offset="1" stop-color="#d83603" stop-opacity="0"/></radialGradient><radialGradient id="i" cx="107.81625" cy="-22.578123" gradientTransform="matrix(-1.2753709 .00000004 -.00000001 -.48355014 216.33937 -.917657)" gradientUnits="userSpaceOnUse" r="54"><stop offset="0" stop-color="#ffd812"/><stop offset="1" stop-color="#ffd812" stop-opacity="0"/></radialGradient><filter id="j" color-interpolation-filters="sRGB" height="1.36" width="1.36" x="-.18" y="-.18"><feGaussianBlur stdDeviation="1.1130742"/></filter><radialGradient id="k" cx="-24.450422" cy="8.760899" gradientTransform="matrix(.97684246 0 0 1.0276209 96.185651 43.30453)" gradientUnits="userSpaceOnUse" r="14.746116"><stop offset="0" stop-color="#fefefe"/><stop offset=".2" stop-color="#fefefe"/><stop offset=".25276113" stop-color="#ffde34"/><stop offset="1" stop-color="#ffd602" stop-opacity="0"/></radialGradient><linearGradient id="l" gradientUnits="userSpaceOnUse" x1="45.01949333277" x2="45.01949333277" y1="17.99999931124" y2="78.23249695629"><stop offset="0" stop-color="#dc4300"/><stop offset="1" stop-color="#ae3500"/></linearGradient><linearGradient id="m" gradientTransform="matrix(1.0058652 0 0 .994169 100 0)" gradientUnits="userSpaceOnUse" x1="45.447727" x2="45.447727" y1="92.539597" y2="7.01654"><stop offset="0"/><stop offset="1" stop-opacity=".588235"/></linearGradient><linearGradient id="n" gradientTransform="matrix(1.0238095 0 0 1.0119048 -1.142857 -98.071429)" gradientUnits="userSpaceOnUse" x1="32.251034" x2="32.251034" xlink:href="#m" y1="6.131708" y2="90.238609"/><linearGradient id="o" gradientTransform="translate(0 -97)" gradientUnits="userSpaceOnUse" x1="32.251034" x2="32.251034" xlink:href="#m" y1="6.131708" y2="90.238609"/><g><g fill="url(#n)"><path d="m12-95.03125c-5.5110903 0-10.03125 4.52016-10.03125 10.03125v71c0 5.5110902 4.5201598 10.03125 10.03125 10.03125h72c5.51109 0 10.03125-4.5201597 10.03125-10.03125v-71c0-5.51109-4.52016-10.03125-10.03125-10.03125z" opacity=".08" transform="scale(1 -1)"/><path d="m12-94.03125c-4.971633 0-9.03125 4.059617-9.03125 9.03125v71c0 4.9716329 4.0596171 9.03125 9.03125 9.03125h72c4.971633 0 9.03125-4.059617 9.03125-9.03125v-71c0-4.971633-4.059617-9.03125-9.03125-9.03125z" opacity=".1" transform="scale(1 -1)"/><path d="m12-93c-4.4091333 0-8 3.590867-8 8v71c0 4.4091333 3.5908667 8 8 8h72c4.409133 0 8-3.5908667 8-8v-71c0-4.409133-3.590867-8-8-8z" opacity=".2" transform="scale(1 -1)"/><rect height="85" opacity=".3" rx="7" transform="scale(1 -1)" width="86" x="5" y="-92"/></g><rect fill="url(#o)" height="84" opacity=".45" rx="6" transform="scale(1 -1)" width="84" x="6" y="-91"/></g><rect fill="url(#g)" height="84" rx="6" width="84" x="6" y="6"/><path d="m12 6c-3.324 0-6 2.676-6 6v2 68 2c0 .334721.04135.6507.09375.96875.0487.295596.09704.596915.1875.875.00988.03038.020892.0636.03125.09375.098865.287771.2348802.547452.375.8125.1445918.273507.3156161.535615.5.78125s.3737765.473472.59375.6875c.439947.428056.94291.814526 1.5 1.09375.278545.139612.5734731.246947.875.34375-.2562018-.100222-.4867109-.236272-.71875-.375-.00741-.0044-.023866.0045-.03125 0-.031933-.0193-.062293-.04251-.09375-.0625-.120395-.0767-.2310226-.163513-.34375-.25-.1061728-.0808-.2132809-.161112-.3125-.25-.1779299-.161433-.3474596-.345388-.5-.53125-.1075789-.130255-.2183939-.265285-.3125-.40625-.025089-.03838-.038446-.08587-.0625-.125-.064763-.103032-.1302275-.204517-.1875-.3125-.1010083-.194706-.2056748-.415701-.28125-.625-.00796-.02181-.023589-.04055-.03125-.0625-.0318251-.09195-.0358045-.186831-.0625-.28125-.0303323-.106618-.0703894-.203031-.09375-.3125-.0728786-.341512-.125-.698205-.125-1.0625v-2-68-2c0-2.781848 2.2181517-5 5-5h2 68 2c2.781848 0 5 2.218152 5 5v2 68 2c0 .364295-.05212.720988-.125 1.0625-.04415.206893-.08838.397658-.15625.59375-.0077.02195-.0233.04069-.03125.0625-.06274.173739-.138383.367449-.21875.53125-.04158.0828-.07904.169954-.125.25-.0546.09721-.126774.18835-.1875.28125-.09411.140965-.204921.275995-.3125.40625-.143174.17445-.303141.346998-.46875.5-.01117.0102-.01998.02115-.03125.03125-.138386.125556-.285091.234436-.4375.34375-.102571.07315-.204318.153364-.3125.21875-.0074.0045-.02384-.0044-.03125 0-.232039.138728-.462548.274778-.71875.375.301527-.0968.596455-.204138.875-.34375.55709-.279224 1.060053-.665694 1.5-1.09375.219973-.214028.409366-.441865.59375-.6875s.355408-.507743.5-.78125c.14012-.265048.276135-.524729.375-.8125.01041-.03078.02133-.06274.03125-.09375.09046-.278085.1388-.579404.1875-.875.0524-.31805.09375-.634029.09375-.96875v-2-68-2c0-3.324-2.676-6-6-6z" fill="url(#b)" opacity=".5"/><path d="m12 90c-3.324 0-6-2.676-6-6v-2-68-2c0-.334721.04135-.6507.09375-.96875.0487-.295596.09704-.596915.1875-.875.00988-.03038.020892-.0636.03125-.09375.098865-.287771.2348802-.547452.375-.8125.1445918-.273507.3156161-.535615.5-.78125s.3737765-.473472.59375-.6875c.439947-.428056.94291-.814526 1.5-1.09375.278545-.139612.5734731-.246947.875-.34375-.2562018.100222-.4867109.236272-.71875.375-.00741.0044-.023866-.0045-.03125 0-.031933.0193-.062293.04251-.09375.0625-.120395.0767-.2310226.163513-.34375.25-.1061728.0808-.2132809.161112-.3125.25-.1779299.161433-.3474596.345388-.5.53125-.1075789.130255-.2183939.265285-.3125.40625-.025089.03838-.038446.08587-.0625.125-.064763.103032-.1302275.204517-.1875.3125-.1010083.194706-.2056748.415701-.28125.625-.00796.02181-.023589.04055-.03125.0625-.0318251.09195-.0358045.186831-.0625.28125-.0303323.106618-.0703894.203031-.09375.3125-.0728786.341512-.125.698205-.125 1.0625v2 68 2c0 2.781848 2.2181517 5 5 5h2 68 2c2.781848 0 5-2.218152 5-5v-2-68-2c0-.364295-.05212-.720988-.125-1.0625-.04415-.206893-.08838-.397658-.15625-.59375-.0077-.02195-.0233-.04069-.03125-.0625-.06274-.173739-.138383-.367449-.21875-.53125-.04158-.0828-.07904-.169954-.125-.25-.0546-.09721-.126774-.18835-.1875-.28125-.09411-.140965-.204921-.275995-.3125-.40625-.143174-.17445-.303141-.346998-.46875-.5-.01117-.0102-.01998-.02115-.03125-.03125-.138386-.125556-.285091-.234436-.4375-.34375-.102571-.07315-.204318-.153364-.3125-.21875-.0074-.0045-.02384.0044-.03125 0-.232039-.138728-.462548-.274778-.71875-.375.301527.0968.596455.204138.875.34375.55709.279224 1.060053.665694 1.5 1.09375.219973.214028.409366.441865.59375.6875s.355408.507743.5.78125c.14012.265048.276135.524729.375.8125.01041.03078.02133.06274.03125.09375.09046.278085.1388.579404.1875.875.0524.31805.09375.634029.09375.96875v2 68 2c0 3.324-2.676 6-6 6z" fill="url(#e)" opacity=".2"/><rect height="66" rx="12" style="opacity:.1;stroke:#fefefe;stroke-width:.5;stroke-linecap:round;clip-path:url(#f);fill:url(#d);filter:url(#c)" width="66" x="15" y="15"/><path d="m110.77738 70.756187a7.4204946 7.4204946 0 1 1 -14.840987 0 7.4204946 7.4204946 0 1 1 14.840987 0z" fill="#ffd812" filter="url(#j)" opacity=".8" transform="matrix(.84191818 0 0 .84191818 -14.873671 -7.14461)"/><path d="m51.792165 18.557949s-6.429936 6.684222-6.582736 14.575341c-3.358179-1.922829-5.831273-6.198417-3.368362-10.887344 2.469468-4.70141 5.876587-4.740145 9.951098-3.687997zm-14.175535 42.471683s-3.6111 8.093716-.650022 16.082804c-3.814039-.650862-7.60498-3.68403-7.1654-8.802804.438751-5.109223 2.18193-7.129914 7.815422-7.28zm3.776237.135983s-3.397348 4.86619-.65718 16.834385c7.228972-.394553 9.782606-1.275773 14.852252-8.154153 5.069647-6.878379 10.301428-31.63151 8.674768-39.324076-1.62666-7.692567-7.886152-9.995417-7.886152-9.995417-6.966101 3.551003-7.097537 13.809458-7.097537 13.809458s6.534174 1.715508 1.971539 16.834387c-4.58827 15.20382-9.85769 9.995416-9.85769 9.995416z" fill="url(#l)" fill-rule="evenodd"/><path d="m15.5 53.406014c1.109605-5.337846.632286-13.723037 2.72528-13.722926 3.74957.000201 4.81073 17.522553 7.175101 17.534321 2.351896.01236.126937-13.146382 3.172507-12.997642 4.897034.248133 3.377707-10.248812 5.697242-10.262357 4.280453-.025 2.434576 22.95913 5.958806 22.80033 2.831913-.127605 2.18785-5.855423 4.486244-5.489268 2.649813.422139 1.885928 4.56338 3.644104 4.493737 2.750749-.10896.647229-18.818689 3.368033-18.771045 2.110487.03696 4.662498 18.888248 7.218037 18.888248 4.536398 0-1.087823-12.618218 8.610624-5.56561 2.425015 1.763445 1.551819 1.23856 4.592879 2.013759" fill="none" stroke="#fff4ad" stroke-linecap="round" stroke-width="3"/><path d="m77.73037 44.522852-3.062327 5.524808 10.650692-8.872129-9.676927 10.282494 9.02051-.302139-8.564001 1.562956 8.053035 2.615386-9.157858-1.654179 4.386991 5.823121-5.469738-4.319794 2.738064 10.228681-4.497485-9.687601-2.123822 10.354807.996843-10.639942-3.079168 6.332863 2.429993-6.420257-7.922316 7.62533 6.886293-8.865034-7.638714 3.074006 6.38995-3.895406-4.375639-1.590544 5.258399.151785-5.736037-3.239526 5.664591 1.345663-6.434209-7.789869 7.923618 6.855894-2.072788-7.261872 2.889876 7.669489-.804477-13.659413 1.93145 13.334541 3.37896-7.763095-2.119039 8.009186z" fill="url(#k)"/><path d="m12.814815 10.000003c-1.559408 0-2.814815 1.255407-2.814815 2.814815v8.092592c6.035454-1.282508 12.339853-1.979166 18.824074-1.979166 22.433049 0 42.706833 8.139165 57.175926 21.221064v-27.33449c0-1.559408-1.255407-2.814815-2.814815-2.814815h-70.37037z" fill="url(#i)" opacity=".8"/><path d="m83.185185 86c1.559408 0 2.814815-1.25541 2.814815-2.81481v-8.09259c-6.035456 1.2825-12.339853 1.97916-18.824074 1.97916-22.433049 0-42.706833-8.139164-57.175926-21.221063v27.334493c0 1.5594 1.255407 2.81481 2.814815 2.81481z" fill="url(#h)" opacity=".8"/><g fill="none" stroke="#fff4ad" stroke-linecap="round"><path d="m15.5 53.406014c1.109605-5.337846.632286-13.723037 2.72528-13.722926 3.74957.000201 4.81073 17.522553 7.175101 17.534321 2.351896.01236.126937-13.146382 3.172507-12.997642 4.897034.248133 3.377707-10.248812 5.697242-10.262357 4.280453-.025 2.434576 22.95913 5.958806 22.80033 2.831913-.127605 2.18785-5.855423 4.486244-5.489268 2.649813.422139 1.885928 4.56338 3.644104 4.493737 2.750749-.10896.647229-18.818689 3.368033-18.771045 2.110487.03696 4.662498 18.888248 7.218037 18.888248 4.536398 0-1.087823-12.618218 8.610624-5.56561 2.425015 1.763445 1.551819 1.23856 4.592879 2.013759" opacity=".15" stroke-width="7"/><path d="m15.5 53.406014c1.109605-5.337846.632286-13.723037 2.72528-13.722926 3.74957.000201 4.81073 17.522553 7.175101 17.534321 2.351896.01236.126937-13.146382 3.172507-12.997642 4.897034.248133 3.377707-10.248812 5.697242-10.262357 4.280453-.025 2.434576 22.95913 5.958806 22.80033 2.831913-.127605 2.18785-5.855423 4.486244-5.489268 2.649813.422139 1.885928 4.56338 3.644104 4.493737 2.750749-.10896.647229-18.818689 3.368033-18.771045 2.110487.03696 4.662498 18.888248 7.218037 18.888248 4.536398 0-1.087823-12.618218 8.610624-5.56561 2.425015 1.763445 1.551819 1.23856 4.592879 2.013759" opacity=".3" stroke-width="5"/></g></svg>