<svg height="96" width="96" xmlns="http://www.w3.org/2000/svg" xmlns:xlink="http://www.w3.org/1999/xlink"><linearGradient id="a"><stop offset="0" stop-color="#fefefe"/><stop offset="1" stop-color="#fefefe" stop-opacity="0"/></linearGradient><linearGradient id="b" gradientUnits="userSpaceOnUse" x1="36.357143" x2="36.357143" xlink:href="#a" y1="6" y2="63.893143"/><radialGradient id="c" cx="48" cy="90.171875" gradientTransform="matrix(1.1573129 0 0 .99590774 -7.551021 .197132)" gradientUnits="userSpaceOnUse" r="42" xlink:href="#a"/><linearGradient id="d" gradientTransform="scale(1.0058652 .994169)" gradientUnits="userSpaceOnUse" x1="48" x2="48" y1="90" y2="5.987717"><stop offset="0" stop-color="#323232"/><stop offset="1" stop-color="#505050" stop-opacity=".968627"/></linearGradient><linearGradient id="e" gradientTransform="matrix(1.0058652 0 0 .994169 100 0)" gradientUnits="userSpaceOnUse" x1="45.447727" x2="45.447727" y1="92.539597" y2="7.01654"><stop offset="0"/><stop offset="1" stop-opacity=".588235"/></linearGradient><linearGradient id="f" gradientTransform="matrix(1.0238095 0 0 1.0119048 -1.142857 -98.071429)" gradientUnits="userSpaceOnUse" x1="32.251034" x2="32.251034" xlink:href="#e" y1="6.131708" y2="90.238609"/><linearGradient id="g" gradientTransform="translate(0 -97)" gradientUnits="userSpaceOnUse" x1="32.251034" x2="32.251034" xlink:href="#e" y1="6.131708" y2="90.238609"/><g transform="translate(0 -1)"><g fill="url(#f)"><path d="m12-95.03125c-5.5110903 0-10.03125 4.52016-10.03125 10.03125v71c0 5.5110902 4.5201598 10.03125 10.03125 10.03125h72c5.51109 0 10.03125-4.5201597 10.03125-10.03125v-71c0-5.51109-4.52016-10.03125-10.03125-10.03125z" opacity=".08" transform="scale(1 -1)"/><path d="m12-94.03125c-4.971633 0-9.03125 4.059617-9.03125 9.03125v71c0 4.9716329 4.0596171 9.03125 9.03125 9.03125h72c4.971633 0 9.03125-4.059617 9.03125-9.03125v-71c0-4.971633-4.059617-9.03125-9.03125-9.03125z" opacity=".1" transform="scale(1 -1)"/><path d="m12-93c-4.4091333 0-8 3.590867-8 8v71c0 4.4091333 3.5908667 8 8 8h72c4.409133 0 8-3.5908667 8-8v-71c0-4.409133-3.590867-8-8-8z" opacity=".2" transform="scale(1 -1)"/><rect height="85" opacity=".3" rx="7" transform="scale(1 -1)" width="86" x="5" y="-92"/></g><rect fill="url(#g)" height="84" opacity=".45" rx="6" transform="scale(1 -1)" width="84" x="6" y="-91"/></g><rect fill="url(#d)" height="84" rx="6" width="84" x="6" y="6"/><path d="m12 6c-3.324 0-6 2.676-6 6v2 68 2c0 .334721.04135.6507.09375.96875.0487.295596.09704.596915.1875.875.00988.03038.020892.0636.03125.09375.098865.287771.2348802.547452.375.8125.1445918.273507.3156161.535615.5.78125s.3737765.473472.59375.6875c.439947.428056.94291.814526 1.5 1.09375.278545.139612.5734731.246947.875.34375-.2562018-.100222-.4867109-.236272-.71875-.375-.00741-.0044-.023866.0045-.03125 0-.031933-.0193-.062293-.04251-.09375-.0625-.120395-.0767-.2310226-.163513-.34375-.25-.1061728-.0808-.2132809-.161112-.3125-.25-.1779299-.161433-.3474596-.345388-.5-.53125-.1075789-.130255-.2183939-.265285-.3125-.40625-.025089-.03838-.038446-.08587-.0625-.125-.064763-.103032-.1302275-.204517-.1875-.3125-.1010083-.194706-.2056748-.415701-.28125-.625-.00796-.02181-.023589-.04055-.03125-.0625-.0318251-.09195-.0358045-.186831-.0625-.28125-.0303323-.106618-.0703894-.203031-.09375-.3125-.0728786-.341512-.125-.698205-.125-1.0625v-2-68-2c0-2.781848 2.2181517-5 5-5h2 68 2c2.781848 0 5 2.218152 5 5v2 68 2c0 .364295-.05212.720988-.125 1.0625-.04415.206893-.08838.397658-.15625.59375-.0077.02195-.0233.04069-.03125.0625-.06274.173739-.138383.367449-.21875.53125-.04158.0828-.07904.169954-.125.25-.0546.09721-.126774.18835-.1875.28125-.09411.140965-.204921.275995-.3125.40625-.143174.17445-.303141.346998-.46875.5-.01117.0102-.01998.02115-.03125.03125-.138386.125556-.285091.234436-.4375.34375-.102571.07315-.204318.153364-.3125.21875-.0074.0045-.02384-.0044-.03125 0-.232039.138728-.462548.274778-.71875.375.301527-.0968.596455-.204138.875-.34375.55709-.279224 1.060053-.665694 1.5-1.09375.219973-.214028.409366-.441865.59375-.6875s.355408-.507743.5-.78125c.14012-.265048.276135-.524729.375-.8125.01041-.03078.02133-.06274.03125-.09375.09046-.278085.1388-.579404.1875-.875.0524-.31805.09375-.634029.09375-.96875v-2-68-2c0-3.324-2.676-6-6-6z" fill="url(#b)" opacity=".2"/><path d="m12 90c-3.324 0-6-2.676-6-6v-2-68-2c0-.334721.04135-.6507.09375-.96875.0487-.295596.09704-.596915.1875-.875.00988-.03038.020892-.0636.03125-.09375.098865-.287771.2348802-.547452.375-.8125.1445918-.273507.3156161-.535615.5-.78125s.3737765-.473472.59375-.6875c.439947-.428056.94291-.814526 1.5-1.09375.278545-.139612.5734731-.246947.875-.34375-.2562018.100222-.4867109.236272-.71875.375-.00741.0044-.023866-.0045-.03125 0-.031933.0193-.062293.04251-.09375.0625-.120395.0767-.2310226.163513-.34375.25-.1061728.0808-.2132809.161112-.3125.25-.1779299.161433-.3474596.345388-.5.53125-.1075789.130255-.2183939.265285-.3125.40625-.025089.03838-.038446.08587-.0625.125-.064763.103032-.1302275.204517-.1875.3125-.1010083.194706-.2056748.415701-.28125.625-.00796.02181-.023589.04055-.03125.0625-.0318251.09195-.0358045.186831-.0625.28125-.0303323.106618-.0703894.203031-.09375.3125-.0728786.341512-.125.698205-.125 1.0625v2 68 2c0 2.781848 2.2181517 5 5 5h2 68 2c2.781848 0 5-2.218152 5-5v-2-68-2c0-.364295-.05212-.720988-.125-1.0625-.04415-.206893-.08838-.397658-.15625-.59375-.0077-.02195-.0233-.04069-.03125-.0625-.06274-.173739-.138383-.367449-.21875-.53125-.04158-.0828-.07904-.169954-.125-.25-.0546-.09721-.126774-.18835-.1875-.28125-.09411-.140965-.204921-.275995-.3125-.40625-.143174-.17445-.303141-.346998-.46875-.5-.01117-.0102-.01998-.02115-.03125-.03125-.138386-.125556-.285091-.234436-.4375-.34375-.102571-.07315-.204318-.153364-.3125-.21875-.0074-.0045-.02384.0044-.03125 0-.232039-.138728-.462548-.274778-.71875-.375.301527.0968.596455.204138.875.34375.55709.279224 1.060053.665694 1.5 1.09375.219973.214028.409366.441865.59375.6875s.355408.507743.5.78125c.14012.265048.276135.524729.375.8125.01041.03078.02133.06274.03125.09375.09046.278085.1388.579404.1875.875.0524.31805.09375.634029.09375.96875v2 68 2c0 3.324-2.676 6-6 6z" fill="url(#c)" opacity=".2"/><g transform="matrix(.90269658 0 0 .90269658 .63939 5.500902)"><path d="m29.573566 69.754342c-9.222228-2.53853-15.977429-13.391392-14.416623-23.161649 1.231476-7.708729 6.251819-15.360455 13.383909-20.399005 4.181078-2.953773 6.444965-3.638881 12.024397-3.638881 4.38793 0 4.999126.111238 7.735258 1.407824 3.974068 1.883214 6.010795 3.764982 7.671024 7.087388 3.080533 6.164696 1.081239 11.286666-6.709161 17.188133-2.63685 1.997494-11.756405 7.040129-12.090172 6.685231-.07876-.08375 1.179021-1.785768 2.795066-3.782272 5.837548-7.211858 7.009143-11.563368 4.581475-17.016412-2.897621-6.508656-9.435651-8.090255-15.676233-3.792201-4.70894 3.243171-6.557802 6.55045-6.525059 11.672153.03874 6.060207 2.996988 12.28095 8.460194 17.790504 5.415555 5.461497 9.59723 6.995327 14.882482 5.458867 2.85928-.83121 8.001162-4.680434 10.849459-8.121919 2.268051-2.74039 7.310707-6.470705 10.246801-7.580092 6.515282-2.461762 13.568961.359712 11.896509 4.758603-.785007 2.064724-2.337249 2.60779-8.53112 2.984694-6.981652.424842-9.659203 1.302181-14.972731 4.906034-8.170876 5.54182-10.882411 6.89069-15.681402 7.8008-3.027716.57419-7.327941.46682-9.924073-.2478z" fill="#fefefe" stroke-width=".453751"/><path d="m35.299475 77.21148c-3.213607-.487688-5.019917-1.294875-8.11905-3.628135-2.184498-1.644665-5.032287-4.66109-4.400497-4.66109.103284 0 1.206563.685584 2.45173 1.523512 3.723579 2.505788 10.228003 3.989484 14.220062 3.243694 2.924191-.5463 5.616863-1.859456 12.464439-6.07861 8.75242-5.392837 11.210459-6.451237 16.282476-7.011009 7.00415-.773016 10.951912.422691 13.347535 4.042725 1.466457 2.215969 1.526404 5.043131.162965 7.685766-1.179317 2.285765-3.000531 3.458981-5.932318 3.821559-2.5888.320166-4.1709-.183262-6.214284-1.977375-2.932946-2.575162-4.792153-2.531372-14.585405.343509-8.425705 2.473425-15.108542 3.388847-19.677653 2.695454z" fill="#0069ff" stroke-width=".437281"/><path d="m80.939621 59.450682c-1.04283-1.04283-.90856-1.914893.58771-3.817098 2.55874-3.252903 7.55265-4.000378 8.59412-1.286344.58512 1.524807-.74355 4.395943-2.37918 5.141188-1.9883.905925-5.88058.884328-6.80265-.03774z" fill="#008600" stroke-width=".607207"/><path d="m58.045215 42.67462c.08352-.23732.913412-1.97852 1.844202-3.86933 2.97859-6.05073 2.407928-8.32111-3.832472-15.247531-2.65564-2.947579-3.310634-3.966611-3.691713-5.743521-.320015-1.492178-.325552-2.417513-.01791-2.992355 1.320868-2.468065 6.992526-2.893185 8.906881-.667616 1.167571 1.357382 1.241636 2.176619.382648 4.232466-.603187 1.443632-.5612 1.622522 1.323053 5.636997 3.506642 7.47103 3.105679 10.5839-2.054504 15.95008-1.656625 1.72276-2.94371 2.93812-2.860189 2.70081z" fill="#ff3d3a" stroke-width=".431486"/><path d="m65.44823 37.329621c2.777543-5.777189 3.606862-7.759425 3.876274-9.265068.390876-2.184376 2.344752-6.721667 3.393612-7.880642 1.022364-1.129705 2.1807-1.049849 3.697583.254912 1.764527 1.517789 1.288488 2.937536-1.897667 5.659548-2.520384 2.153236-2.563404 2.23202-2.293668 4.199987.264492 1.929715.197628 2.067396-1.7676 3.639457-2.824811 2.259667-5.255674 3.905871-5.008534 3.391806z" fill="#ff5b00" stroke-width=".468039"/></g></svg>