<svg height="96" width="96" xmlns="http://www.w3.org/2000/svg" xmlns:xlink="http://www.w3.org/1999/xlink"><linearGradient id="a"><stop offset="0" stop-color="#fefefe"/><stop offset="1" stop-color="#fefefe" stop-opacity="0"/></linearGradient><radialGradient id="b" cx="48.945152" cy="36.822456" gradientTransform="matrix(1.9640932 .01992785 -.01407911 1.771525 -44.517026 -37.273088)" gradientUnits="userSpaceOnUse" r="42"><stop offset="0" stop-color="#755552"/><stop offset="1" stop-color="#120507"/></radialGradient><radialGradient id="c" cx="48.701981" cy="84.208084" gradientTransform="matrix(1.0805638 0 0 .0632182 -3.244671 84.782852)" gradientUnits="userSpaceOnUse" r="39.183765" xlink:href="#a"/><g transform="matrix(.98515691 0 0 .9836407 .353966 -.192962)"><path d="m8.3809422 3.4362279c-2.6064647 0-3.9063111.6454976-5.007842 2.7911092.2759327.185339.3882853.2998501.3882853.2998501l20.7524745 22.5049488s-3.989647 6.469837-3.944391 21.254667c.0505 16.486059 3.446901 25.561176 3.446901 25.561176l-22.3160188 12.711125v.555677c0 3.651033 2.9854801 6.598674 6.680591 6.598674h80.0249578c3.695111 0 6.68059-2.947641 6.68059-6.598674v-1.354463l-21.178898-12.08599s3.396415-9.075115 3.446903-25.561174c.04527-14.78483-3.94439-21.219939-3.94439-21.219939l20.610333-22.4007596c-1.183596-1.8249228-3.248891-3.0562275-5.614538-3.0562275zm-6.680591 11.9123451v16.53141l14.2850938 6.425022 1.918895-7.119618zm93.3861388.972435-15.031328 14.690728 1.918892 7.154349 13.112436-5.904075zm-93.3861388 24.415087v16.809252l14.4627688-1.041897s-.198054-10.042808-.355348-11.773421c-.110018-1.210528-9.3465521-3.09437-14.1074208-3.993934zm93.3861388.06946c-4.94599.957293-12.867614 2.655774-12.970295 3.785555-.157302 1.730615-.319817 11.738692-.319817 11.738692l13.290112.972432zm-13.538858 21.601972s-.741313 5.118581-1.314798 8.647733c-.18394 1.131949 9.309506 6.239039 14.853656 9.133952v-16.705059zm-65.135764.17365-14.7115168 1.180815v17.226005c5.2262802-2.706218 16.1882268-8.57872 15.9907778-9.793819-.573483-3.529152-1.279261-8.613003-1.279261-8.613003z" opacity=".083333"/><path d="m9.2119927 4.0018832c-2.5590089 0-3.8351892.6378684-4.9166647 2.7581241.2709089.1831481.3812159.2963062.3812159.2963062l20.3746371 22.2389885s-3.917011 6.393379-3.872577 21.003484c.04958 16.291228 3.384144 25.259096 3.384144 25.259096l-21.9097133 12.560909v.54911c0 3.607885 2.9311238 6.520691 6.558958 6.520691h78.5679513c3.627835 0 6.558958-2.912806 6.558958-6.520691v-1.338456l-20.793295-11.94316s3.334575-8.967868 3.384144-25.259096c.04444-14.610106-3.872577-20.969166-3.872577-20.969166l20.235086-22.1360305c-1.162047-1.8033566-3.189741-3.0201093-5.512316-3.0201093zm-6.558958 11.7715658v16.336046l14.0250063 6.349092 1.883957-7.035481zm91.6858673.960943-14.757656 14.517116 1.883956 7.0698 12.8737-5.834303zm-91.6858673 24.126554v16.610602l14.1994463-1.029582s-.194447-9.924125-.348878-11.634286c-.108015-1.196222-9.1763802-3.057801-13.8505683-3.946734zm91.6858673.06865c-4.85594.945982-12.633334 2.624391-12.734147 3.740821-.154437 1.710163-.313994 11.599965-.313994 11.599965l13.048141.960941zm-13.292358 21.346671s-.727815 5.058089-1.290859 8.545536c-.18059 1.118571 9.140008 6.165306 14.583217 9.026007v-16.507642zm-63.949844.171597-14.4436653 1.166861v17.022431c5.1311259-2.674236 15.8934903-8.477336 15.6996343-9.678076-.563042-3.487445-1.255969-8.511216-1.255969-8.511216z" opacity=".074561"/><path d="m10.012777 4.7622547c-2.5068459 0-3.7570112.6259011-4.8164418 2.7063761.2653866.1797124.3734447.2907468.3734447.2907468l19.9593101 21.8217414s-3.837163 6.273428-3.793635 20.60942c.04856 15.985575 3.31516 24.785188 3.31516 24.785188l-21.4630957 12.325242v.538808c0 3.540194 2.8713744 6.39835 6.4252577 6.39835h76.966384c3.553883 0 6.425257-2.858156 6.425257-6.39835v-1.313345l-20.369435-11.719083s3.266602-8.799613 3.315161-24.785188c.04354-14.335992-3.793636-20.575744-3.793636-20.575744l19.822603-21.7207163c-1.138359-1.7695225-3.12472-2.963446-5.39995-2.963446zm-6.4252577 11.5507083v16.029549l13.7391147 6.229972 1.845553-6.903482zm89.8168987.942913-14.456828 14.244748 1.845552 6.937157 12.611276-5.724839zm-89.8168987 23.673894v16.298956l13.9099987-1.010265s-.190484-9.737929-.341768-11.416004c-.105812-1.173778-8.989324-3.000431-13.5682307-3.872687zm89.8168987.06735c-4.756954.928231-12.375811 2.575149-12.474568 3.670632-.151289 1.678078-.307593 11.38233-.307593 11.38233l12.782161.942911zm-13.021399 20.946179s-.71298 4.963191-1.264547 8.385206c-.17691 1.097585 8.953694 6.049633 14.285946 8.856662v-16.197927zm-62.64626.168379-14.1492397 1.144967v16.703059c5.0265307-2.624062 15.5695097-8.318285 15.3796057-9.496497-.551563-3.422015-1.230366-8.351529-1.230366-8.351529z" opacity=".144737"/><path d="m11.000458 5.5226263c-2.454682 0-3.6788339.6139334-4.7162186 2.6546279.2598644.176277.3656739.2851878.3656739.2851878l19.5439847 21.404495s-3.757318 6.153476-3.714695 20.215355c.04755 15.679921 3.246175 24.311279 3.246175 24.311279l-21.0164772 12.089576v.528505c0 3.472508 2.8116252 6.276012 6.2915572 6.276012h75.364817c3.479931 0 6.291556-2.803504 6.291556-6.276012v-1.288232l-19.945574-11.495007s3.198628-8.631359 3.246176-24.311279c.04263-14.061879-3.714697-20.182325-3.714697-20.182325l19.410124-21.3053993c-1.114672-1.7356885-3.059699-2.9067834-5.287585-2.9067834zm-6.2915572 11.3298497v15.723055l13.4532222 6.11085 1.807151-6.771483zm87.9479302.924885-14.156002 13.972378 1.807148 6.804515 12.348854-5.615376zm-87.9479302 23.221234v15.98731l13.6205512-.990949s-.18652-9.551733-.334656-11.197723c-.103611-1.151334-8.8022692-2.943061-13.2858952-3.798638zm87.9479302.06607c-4.657968.910483-12.118287 2.52591-12.214991 3.600447-.148137 1.645992-.301191 11.164693-.301191 11.164693l12.516182.924878zm-12.750441 20.545666s-.698144 4.868292-1.238233 8.224876c-.17323 1.076599 8.767378 5.93396 13.988674 8.687318v-15.888213zm-61.342677.165159-13.8548122 1.123075v16.383687c4.9219359-2.573888 15.2455302-8.159235 15.0595772-9.314918-.540087-3.356585-1.204765-8.191844-1.204765-8.191844z" opacity=".144737"/><path d="m11.77452 4.259932c-2.41818 0-3.6241281.6154286-4.6460862 2.6610913.2559999.1767058.3602359.2858816.3602359.2858816l19.2533553 21.4566111s-3.701445 6.168459-3.659456 20.264578c.04684 15.718098 3.197903 24.370473 3.197903 24.370473l-20.7039509 12.119013v.529792c0 3.480962 2.7698148 6.29129 6.1979989 6.29129h74.244099c3.428184 0 6.197997-2.810328 6.197997-6.29129v-1.29137l-19.648972-11.522995s3.151062-8.652375 3.197904-24.370474c.04199-14.096118-3.659457-20.231465-3.659457-20.231465l19.121483-21.3572752c-1.098095-1.739915-3.014199-2.9138608-5.208955-2.9138608zm-6.1979989 11.357434v15.761339l13.2531659 6.12573 1.780277-6.787971zm86.6400949.927138-13.945495 14.0064 1.780277 6.821082 12.165218-5.629049zm-86.6400949 23.277774v16.026237l13.4180059-.993361s-.183745-9.574991-.32968-11.224989c-.10207-1.154137-8.6713742-2.950226-13.0883259-3.807887zm86.6400949.06623c-4.588701.912699-11.938082 2.53206-12.033346 3.609213-.145936 1.649999-.296713 11.191877-.296713 11.191877l12.330059.927138zm-12.560835 20.595694s-.687762 4.880145-1.21982 8.244902c-.170653 1.07922 8.637003 5.948409 13.780655 8.70847v-15.926898zm-60.430477.165561-13.6487829 1.12581v16.423578c4.8487439-2.580154 15.0188199-8.179101 14.8356329-9.337599-.532056-3.364757-1.18685-8.211789-1.18685-8.211789z" fill="url(#b)"/><path d="m49.501734 24.312808s-16.832629 3.792002-19.159085 13.136579c-2.326457 9.344576.821103 16.251437.821103 16.251437s-3.831811-1.760574-3.010707 0c.821104 1.760572 1.094795 4.469145 2.326458 5.146289 1.231648.677143.410545.812571 1.09481 2.573142.684249 1.760574 1.779043 3.792004 2.600147 3.927432.821103.135427 2.326474-.677142 2.326474-.677142l1.231646-.135428.547397-.677142h.547413s-1.915914.406286.547396-1.083429 3.237158-1.076316 3.237158-1.076316 2.921126.263745 2.373714 1.753459c-.547398 1.489715-.957941 3.11486-.410544 3.385716.547396.270858 2.017986 2.206227 2.017986 2.206227l.992721-3.831371s.547412 1.896002 1.505354 1.760574c.957955-.135428 2.052765-.541716 2.052765-.541716s.957957-.270856 1.231648.270857c.273707.541715-1.779047 1.218859-1.779047 1.218859l.136871 1.625142 1.505368.406287.684251-1.218857v-2.573144l.68425.135428.136868 1.489716-.821102.677141-.136869 1.760574s1.09481.541714 1.505354-.406285c.410558-.948003 1.094808-2.03143 1.094808-2.03143l-1.094808-1.08343.821102-.270858 1.231663 1.896001-.684265 1.08343h1.915912v-1.625143s-.821132-.135428-.68428-.948003c.136869-.812573-.273707-1.760571-.273707-1.760571s.684251-1.489716-.684249-2.03143c-1.368502-.541717-2.189604-1.083429-1.642207-1.354288.547397-.270858.68425-1.218858 1.231661-1.083429.547398.135428 1.505353.406286 1.505353.406286l.821105-.541715 2.326458 4.333717 1.094809-1.625143s.136868-.270858.821103.406286c.684251.677143 2.873854 2.437714 3.421267 1.625143.547397-.812572 2.737001-1.625143 2.46331-2.708574-.273706-1.083429-1.368515-2.573141-.136869-3.792001 1.231648-1.218858 2.600163-2.166858 2.737002-3.792001.136867-1.625143-.957943-1.218859-.957943-1.218859s-1.094807-2.166858-.547411-3.385716c.547411-1.218856 2.052765-14.626293-5.063473-19.637153-7.116225-5.01086-12.066474-6.500576-13.298137-6.500576-1.231646 0-3.235373.477556-3.235373.477556z" fill="#fefefe" opacity=".83871"/><path d="m41.2907 49.908822s-4.379224.812571-5.610871 2.573144c-1.231663 1.760573-2.600162 4.333717-1.505369 4.740003 1.09481.406285 2.326474 1.354286 3.421266.541713 1.09481-.812569 1.09481-.677141 2.18962-.406285 1.094794.270857 2.737 1.896002 3.558104.677145.821104-1.218859 3.421266-3.521146 2.737018-4.740003-.684251-1.218858 2.279199-1.518238 2.279199-1.518238s-.29732-1.104839-1.52898-.563124c-1.231648.541713.344591.591646-1.023927.591646-1.3685 0-2.326457-1.489715-3.147559-1.760573-.821105-.270857-1.368501-.135428-1.368501-.135428z" fill="#422d2d"/><path d="m48.680631 52.617394s-2.873871 4.604575-2.737017 5.823434c.136868 1.218856 1.368517 1.760571 1.368517 1.760571s-1.094811 1.218856-.410561 1.489715c.684251.270857 2.189605-1.08343 2.189605-1.08343s.547412-.270856 1.094808.135429c.547398.406285 2.052766.270855 2.326459-.406288.273705-.677142-.273693-5.95886-1.505354-6.636003-1.231649-.677143-2.326457-1.08343-2.326457-1.08343z" fill="#432f2f"/><path d="m57.986473 50.04425s-1.915913-1.083429-2.463311.406286c-.547411 1.489714-1.231661 1.760573-1.231661 1.760573s-.547397 1.354286-.410545 2.708574c.136869 1.354284 1.642206 2.03143 2.873856 2.573143 1.231661.541716 1.779058 1.083429 1.779058 1.083429l-1.779058.135428s.547396 1.083427 1.642205 1.083427c1.09481 0 2.326458-.677142 2.326458-.677142l-1.505355-.406285v-.677144s3.558121.406284 4.242371-1.218858c.684249-1.625144 2.737017-1.896001.821102-3.656574-1.915913-1.760571-3.010706-2.844001-3.694971-2.97943-.684251-.135427-2.600149-.135427-2.600149-.135427z" fill="#3f2b2b"/><g fill="#fefefe"><path d="m52.666475 73.509617c2.322431-.957624 4.451326.383052 4.451326.383052l.193536 1.340675-2.322431 1.340675s.774143-2.872875 0-3.064402c-.774145-.191524-1.161216 2.298302-1.161216 2.298302h-.967681z" opacity=".889401"/><path d="m49.976479 74.029347.547398 1.760573.957956-.270859z" opacity=".889401"/><path d="m51.208127 78.227636s-.273691.948.821103.541716c1.094811-.406289 2.873868-1.35429 3.558119-.948002.684252.406286 1.09481 1.218857 1.779061 1.354286.684248.135428 1.231647.812572 0 .677143-1.231662-.135427-1.231662-.406287-2.600163-.541715-1.368502-.135428-2.189605.677144-2.189605.677144z" opacity=".889401"/></g><path d="m8.0271719 7.5022013s.5368598-1.8073331 2.2440961-2.0537877c3.017093-.4355436 74.802209-1.0748948 77.333171.00931 2.530964 1.0841988 2.860099 2.4892654 2.860099 2.4892654" fill="none" opacity=".205882" stroke="#fefefe" stroke-width="1.997347"/><path d="m8.0271719 89.015505s.4693245 1.807333 2.1765611 2.053787c3.017093.435544 74.869744.936556 77.400706-.147643 2.530964-1.084198 3.13024-2.281756 3.13024-2.281756" fill="none" opacity=".196078" stroke="url(#c)" stroke-width="2.21555"/></g></svg>