<svg height="96" width="96" xmlns="http://www.w3.org/2000/svg" xmlns:xlink="http://www.w3.org/1999/xlink"><linearGradient id="a" stop-color="#fff"><stop offset="0" stop-color="#fefefe"/><stop offset="1" stop-opacity="0"/></linearGradient><filter id="b" color-interpolation-filters="sRGB" height="1.384" width="1.384" x="-.192" y="-.192"><feGaussianBlur stdDeviation="5.28"/></filter><linearGradient id="c" gradientUnits="userSpaceOnUse" x1="48" x2="48" y1="20.221" y2="138.66"><stop offset="0"/><stop offset="1" stop-opacity="0"/></linearGradient><clipPath id="d"><rect height="84" rx="6" width="84" x="6" y="6"/></clipPath><clipPath id="e"><rect height="84" rx="6" width="84" x="6" y="6"/></clipPath><linearGradient gradientUnits="userSpaceOnUse" x1="48" x2="48" y1="90" y2="5.9877"><stop offset="0" stop-color="#70a83e"/><stop offset="1" stop-color="#9fd058"/></linearGradient><linearGradient id="f" gradientTransform="translate(100)" gradientUnits="userSpaceOnUse" x1="45.448" x2="45.448" y1="92.54" y2="7.0165"><stop offset="0"/><stop offset="1" stop-opacity=".58824"/></linearGradient><linearGradient id="g" gradientUnits="userSpaceOnUse" x1="57.18577899" x2="56.56572417" y1="64.472653" y2="29.52505185"><stop offset="0" stop-color="#e5e5e5"/><stop offset="1" stop-color="#ababab"/></linearGradient><linearGradient id="h" gradientUnits="userSpaceOnUse" x1="43.8548369" x2="43.8548369" y1="18.8611" y2="75.1632447"><stop offset="0" stop-color="#f6f6f6"/><stop offset="1" stop-color="#d2d2d2"/></linearGradient><linearGradient id="i" gradientUnits="userSpaceOnUse" x1="64.8857991" x2="64.8857991" y1="18.8611" y2="75.1415"><stop offset="0" stop-color="#aaa"/><stop offset="1" stop-color="#8c8c8c"/></linearGradient><radialGradient id="j" cx="48" cy="90.172" gradientTransform="matrix(1.1573 0 0 .99591 -7.551 .19713)" gradientUnits="userSpaceOnUse" r="42" xlink:href="#a"/><linearGradient id="k" gradientUnits="userSpaceOnUse" x1="36.357" x2="36.357" xlink:href="#a" y1="6" y2="63.893"/><linearGradient id="l" gradientUnits="userSpaceOnUse" x1="48" x2="48" y1="6" y2="90"><stop offset="0" stop-color="#80a2c8"/><stop offset="1" stop-color="#2e4c6d"/></linearGradient><linearGradient id="m" gradientTransform="translate(0 1)" gradientUnits="userSpaceOnUse" x1="32.251" x2="32.251" xlink:href="#f" y1="90" y2="6"/><linearGradient id="n" gradientTransform="matrix(1.0238 0 0 1.0119 -1.1429 .929)" gradientUnits="userSpaceOnUse" x1="32.251" x2="32.251" xlink:href="#f" y1="90" y2="5.9996"/><linearGradient id="o" gradientTransform="matrix(1.0238 0 0 -1.0119 -1.1429 98.071)" gradientUnits="userSpaceOnUse" x1="32.251" x2="32.251" xlink:href="#f" y1="6.1317" y2="90.239"/><g fill="url(#o)"><path d="m12 95.031c-5.5111 0-10.031-4.52-10.031-10.031v-71c0-5.5111 4.5202-10.031 10.031-10.031h72c5.5111 0 10.031 4.5202 10.031 10.031v71c0 5.5111-4.5202 10.031-10.031 10.031z" opacity=".08"/><path d="m12 94.031c-4.9716 0-9.0312-4.0596-9.0312-9.0312v-71c0-4.9718 4.0596-9.0314 9.0312-9.0314h72c4.9716 0 9.0312 4.0596 9.0312 9.0312v71c0 4.9716-4.0596 9.0312-9.0312 9.0312h-72z" opacity=".1"/><path d="m12 93c-4.4091 0-8-3.591-8-8v-71c0-4.4091 3.5909-8 8-8h72c4.4091 0 8 3.5909 8 8v71c0 4.4091-3.5909 8-8 8z" opacity=".2"/></g><rect fill="url(#n)" height="85" opacity=".3" rx="7" width="86" x="5" y="7"/><rect fill="url(#m)" height="84" opacity=".45" rx="6" width="84" x="6" y="7"/><rect fill="url(#l)" height="84" rx="6" width="84" x="6" y="6"/><path d="m12 6c-3.324 0-6 2.676-6 6v72c0 .33472.04135.6507.09375.96875.0487.2956.09704.59692.1875.875.00988.03038.020892.0636.03125.09375.098865.28777.23488.54745.375.8125.14459.27351.31562.53562.5.78125.18438.24564.37378.47347.59375.6875.43995.42806.94291.81453 1.5 1.0938.27854.13961.57347.24695.875.34375-.2562-.10022-.48671-.23627-.71875-.375-.00741-.0044-.023866.0045-.03125 0-.0319-.019-.0622-.042-.0937-.062-.1204-.077-.231-.164-.3437-.25-.1062-.081-.2133-.161-.3126-.25-.1778-.162-.3473-.346-.4999-.531-.1075-.131-.2183-.266-.3124-.407-.0251-.038-.0385-.086-.0626-.125-.0647-.103-.1302-.204-.1874-.312-.1011-.195-.2057-.416-.2813-.625-.008-.022-.0236-.041-.0313-.063-.0318-.092-.0358-.187-.0624-.281-.0304-.107-.0704-.203-.0938-.313-.0729-.341-.125-.698-.125-1.062v-72c0-2.782 2.2182-5 5-5h72c2.7818 0 5 2.2182 5 5v72c0 .3643-.05212.72099-.125 1.0625-.04415.20689-.08838.39766-.15625.59375-.0077.02195-.0233.04069-.03125.0625-.06274.17374-.13838.36745-.21875.53125-.04158.0828-.07904.16995-.125.25-.0546.09721-.12677.18835-.1875.28125-.09411.14096-.20492.276-.3125.40625-.14317.17445-.30314.347-.46875.5-.01117.0102-.01998.02115-.03125.03125-.13839.12556-.28509.23444-.4375.34375-.10257.07315-.20432.15336-.3125.21875-.0074.0045-.02384-.0044-.03125 0-.23204.13873-.46255.27478-.71875.375.30153-.0968.59646-.20414.875-.34375.55709-.27922 1.0601-.66569 1.5-1.0938.21997-.21403.40937-.44186.59375-.6875s.35541-.50774.5-.78125c.14012-.26505.27614-.52473.375-.8125.01041-.03078.02133-.06274.03125-.09375.09046-.27808.1388-.5794.1875-.875.053-.318.094-.634.094-.969v-72c0-3.324-2.676-6-6-6h-72z" fill="url(#k)" opacity=".4"/><path d="m12 90c-3.324 0-6-2.676-6-6v-72c0-.33472.04135-.6507.09375-.96875.0487-.2956.09704-.59692.1875-.875.0099-.03.0209-.063.0313-.094.0989-.2873.2349-.547.375-.812.1446-.2735.3156-.5356.5-.7812.1844-.2457.3738-.4735.5937-.6876.44-.428.943-.8145 1.5-1.0937.2786-.1396.5735-.2469.8748-.3437-.256.1002-.4865.2362-.7185.375-.00741.0044-.023866-.0045-.03125 0-.031933.0193-.062293.04251-.09375.0625-.1204.0767-.23102.16351-.34375.25-.10617.0808-.21328.16111-.3125.25-.1779.1614-.3474.3453-.5.5312-.1075.1303-.2183.2653-.3124.4063-.0251.0383-.0385.0858-.0626.125-.0647.103-.1302.2045-.1874.3124-.1011.1948-.2057.4158-.2813.625-.008.0219-.0236.0406-.0313.0626-.0318.0919-.0358.1868-.0624.2812-.0304.1066-.0704.203-.0938.3125-.0729.3415-.125.6985-.125 1.0625v72c0 2.7818 2.2182 5 5 5h72c2.7818 0 5-2.2182 5-5v-72c0-.364-.052-.721-.125-1.0625-.044-.2069-.088-.3977-.156-.5937-.008-.022-.024-.0407-.031-.0626-.063-.1737-.139-.3674-.219-.5312-.042-.0828-.079-.17-.125-.25-.055-.0972-.127-.1884-.188-.2812-.094-.141-.205-.276-.312-.4063-.143-.1745-.303-.347-.469-.5-.011-.0102-.02-.0211-.031-.0313-.139-.1255-.285-.2344-.438-.3437-.102-.0731-.204-.1534-.312-.2187-.0074-.0045-.02384.0044-.03125 0-.23204-.13873-.46255-.27478-.71875-.375.30153.0968.59646.20414.875.34375.55709.27922 1.0601.66569 1.5 1.0938.21997.21403.40937.44186.59375.6875s.35541.50774.5.78125c.14012.26505.27614.52473.375.8125.01041.03078.02133.06274.03125.09375.09046.27808.1388.5794.1875.875.053.318.094.634.094.969v72c0 3.324-2.676 6-6 6h-72z" fill="url(#j)" opacity=".2"/><g clip-path="url(#e)" fill="#acf" opacity=".9"><path d="m48 48 24-56h16z" opacity=".15"/><path d="m48 48 55.25 25.677-.48 15.993z" opacity=".15"/><path d="m48 48-59.828 11.516-8.969-13.25z" opacity=".15"/><path d="m48 48-49.311-35.783 3.5359-15.604 45.775 51.387z" opacity=".15"/><path d="m48 48 17.519-62.073 30.436 12.714z" opacity=".15"/><path d="m48 48 61.64-19.001 5.85 32.461z" opacity=".15"/><path d="m48 48-31.246 56.42-26.723-19.331z" opacity=".15"/><path d="m48 48-62.812-14.651 11.304-30.988z" opacity=".15"/><path d="m48 48 45.81 45.403-3.692 9.027z" opacity=".15"/><path d="m48 48-2.9701 64.43-9.1685 3.31 12.137-67.74z" opacity=".15"/><path d="m48 48-44.859 46.343-9.0649-3.585 53.924-42.758z" opacity=".15"/><path d="m48 48-62.116 17.366-6.016-7.67z" opacity=".15"/><path d="m48 48-29.147-57.537 6.35-7.396z" opacity=".15"/><path d="m48 48 59.482-24.939 6.921 6.8641-66.4 18.074z" opacity=".15"/><path d="m48 48 40.187 45.793-6.897 14.437z" opacity=".15"/><path d="m48 48-35.958-49.184 8.152-13.767z" opacity=".15"/></g><rect height="66" rx="12" style="opacity:.1;stroke:#fff;stroke-linecap:round;stroke-width:.5;clip-path:url(#d);filter:url(#b);fill:url(#c)" width="66" x="15" y="15"/><path d="m44.188 17c-3.032 0-5.438 2.542-5.438 5.5v1.5c-.40375.15655-.79124.35424-1.1875.53125l-1.093-1.093c-.885-.885-2.2116-1.6427-3.8125-1.6562-1.3981-.01194-2.8068.52558-3.875 1.5938l-5.407 5.405c-2.1478 2.1478-2.0043 5.6205.0625 7.6875l1.0938 1.0938c-.178.397-.375.784-.532 1.188h-1.5c-2.9583 0-5.5 2.406-5.5 5.438v7.625c0 3.0316 2.5417 5.4375 5.5 5.4375h1.5c.15655.40375.35424.79124.53125 1.1875l-1.0938 1.0938c-2.067 2.067-2.2105 5.5397-.0625 7.6875l5.4062 5.4062c2.1478 2.1478 5.6204 2.0046 7.6875-.0625l1.094-1.095c.397.177.784.374 1.188.531v1.5c0 2.9583 2.4059 5.5 5.4375 5.5h7.625c3.0316 0 5.4375-2.5417 5.4375-5.5v-1.5c.40375-.15655.79124-.35424 1.1875-.53125l1.0938 1.0938c2.0671 2.0671 5.5397 2.2103 7.6875.0625l5.405-5.407c2.1478-2.1478 2.0043-5.6205-.0625-7.6875l-1.093-1.094c.177-.397.374-.784.531-1.188h1.5c2.9583 0 5.5-2.4059 5.5-5.4375v-7.625c0-3.031-2.542-5.437-5.5-5.437h-1.5c-.157-.406-.355-.793-.532-1.189l1.0938-1.0938c2.067-2.067 2.2105-5.5397.0625-7.6875l-5.407-5.405c-2.1478-2.1478-5.6204-2.0046-7.6875.0625l-1.094 1.093c-.397-.177-.784-.374-1.188-.531v-1.5c0-2.9583-2.4059-5.5-5.4375-5.5h-7.625zm3.812 26.188c2.7171 0 4.8125 2.0954 4.8125 4.8125s-2.0954 4.8125-4.8125 4.8125-4.8125-2.0954-4.8125-4.8125 2.0954-4.8125 4.8125-4.8125z" display="block" opacity=".05"/><path d="m44.188 18.031c-2.4655 0-4.4062 2.0565-4.4062 4.4688v2.1875c-.84674.30617-1.673.6425-2.4688 1.0312l-1.563-1.563c-.729-.729-1.806-1.333-3.094-1.344-1.14-.009-2.288.414-3.156 1.282l-5.406 5.406c-1.7411 1.7412-1.6182 4.5691.0625 6.25l1.5625 1.5625c-.38875.79572-.72508 1.622-1.0312 2.4688h-2.1875c-2.4122 0-4.4688 1.9408-4.4688 4.4062v7.625c0 2.4655 2.0565 4.4062 4.4688 4.4062h2.1875c.30618.84674.6425 1.673 1.0312 2.4688l-1.5625 1.5625c-1.6808 1.6808-1.8038 4.5089-.0625 6.25l5.406 5.406c1.7411 1.7411 4.5691 1.6184 6.25-.0625l1.5625-1.5625c.79572.38875 1.622.72508 2.4688 1.0312v2.1875c0 2.4122 1.9408 4.4688 4.4062 4.4688h7.625c2.4655 0 4.4062-2.0565 4.4062-4.4688v-2.1875c.84674-.30617 1.673-.6425 2.4688-1.0312l1.563 1.562c1.6809 1.6809 4.5089 1.8036 6.25.0625l5.406-5.406c1.7411-1.7412 1.6182-4.5691-.0625-6.25l-1.563-1.563c.38875-.79571.72508-1.622 1.0312-2.4688h2.1875c2.4122 0 4.4688-1.9408 4.4688-4.4062v-7.625c0-2.4655-2.0565-4.4062-4.4688-4.4062h-2.1875c-.306-.847-.642-1.674-1.031-2.47l1.5625-1.5625c1.6808-1.6808 1.8038-4.5089.0625-6.25l-5.406-5.406c-1.7411-1.7411-4.5691-1.6184-6.25.0625l-1.5625 1.5625c-.796-.388-1.623-.724-2.469-1.03v-2.1875c0-2.4122-1.9408-4.4688-4.4062-4.4688h-7.625zm3.812 24.125c3.2563 0 5.8438 2.5874 5.8438 5.8438 0 3.2563-2.5874 5.8438-5.8438 5.8438-3.2563 0-5.8438-2.5874-5.8438-5.8438 0-3.2563 2.5874-5.8438 5.8438-5.8438z" display="block" opacity=".08"/><path d="m44.188 19.031c-1.8975 0-3.4062 1.6003-3.4062 3.4688v2.875c-1.2828.41908-2.5201.94925-3.6875 1.5625l-2.0625-2.0625c-.58342-.58342-1.4117-1.0543-2.375-1.0625-.87648-.0075-1.766.32854-2.4375 1l-5.4062 5.4062c-1.3357 1.3357-1.2376 3.5123.0625 4.8125l2.0625 2.0625c-.61325 1.1674-1.1434 2.4047-1.5625 3.6875h-2.875c-1.8685 0-3.4688 1.5087-3.4688 3.4062v7.625c0 1.8975 1.6003 3.4062 3.4688 3.4062h2.875c.41908 1.2828.94925 2.5201 1.5625 3.6875l-2.0625 2.0625c-1.3002 1.3002-1.3983 3.4768-.0625 4.8125l5.4062 5.4062c1.3356 1.3357 3.5123 1.2377 4.8125-.0625l2.0625-2.0625c1.1674.61325 2.4047 1.1434 3.6875 1.5625v2.875c0 1.8684 1.5087 3.4688 3.4062 3.4688h7.625c1.8975 0 3.4062-1.6003 3.4062-3.4688v-2.875c1.2828-.41908 2.5201-.94925 3.6875-1.5625l2.0625 2.0625c1.3002 1.3002 3.4769 1.3981 4.8125.0625l5.4062-5.4062c1.3357-1.3357 1.2376-3.5123-.0625-4.8125l-2.0625-2.0625c.61325-1.1674 1.1434-2.4047 1.5625-3.6875h2.875c1.8684 0 3.4688-1.5087 3.4688-3.4062v-7.625c0-1.8975-1.6003-3.4062-3.4688-3.4062h-2.875c-.41908-1.2828-.94925-2.5201-1.5625-3.6875l2.0625-2.0625c1.3002-1.3002 1.3983-3.4768.0625-4.8125l-5.405-5.408c-1.3356-1.3356-3.5123-1.2377-4.8125.0625l-2.0625 2.0625c-1.166-.614-2.403-1.144-3.686-1.563v-2.875c0-1.8685-1.5088-3.4688-3.4062-3.4688h-7.625zm3.812 22.125c3.7968 0 6.8438 3.047 6.8438 6.8438s-3.047 6.8438-6.8438 6.8438-6.8438-3.047-6.8438-6.8438 3.047-6.8438 6.8438-6.8438z" display="block" opacity=".2"/><path d="m44.188 20c-1.363 0-2.438 1.138-2.438 2.5v3.5c-1.7179.49094-3.3491 1.2076-4.875 2.0625l-2.5312-2.5c-.45629-.45628-1.0316-.77569-1.6875-.78125-.62972-.0054-1.2629.23163-1.75.71875l-5.406 5.406c-.96063.96064-.8927 2.4822.0625 3.4375l2.5 2.5312c-.854 1.526-1.571 3.157-2.062 4.875h-3.5c-1.3624 0-2.5 1.0755-2.5 2.4375v7.625c0 1.362 1.1376 2.4375 2.5 2.4375h3.5c.49095 1.7179 1.2076 3.3491 2.0625 4.875l-2.5 2.5312c-.95529.95529-1.0232 2.4769-.0625 3.4375l5.406 5.406c.96062.96063 2.4822.8928 3.4375-.0625l2.5312-2.5c1.5259.85495 3.1571 1.5716 4.875 2.0625v3.5c0 1.3624 1.0755 2.5 2.4375 2.5h7.625c1.362 0 2.4375-1.1376 2.4375-2.5v-3.5c1.7179-.49094 3.3491-1.2076 4.875-2.0625l2.5312 2.5c.9553.95531 2.4769 1.0231 3.4375.0625l5.406-5.406c.96063-.96064.8927-2.4822-.0625-3.4375l-2.5-2.5312c.854-1.526 1.571-3.157 2.062-4.875h3.5c1.3624 0 2.5-1.0755 2.5-2.4375v-7.625c0-1.362-1.138-2.437-2.5-2.437h-3.5c-.49094-1.7179-1.2076-3.3491-2.0625-4.875l2.5-2.5312c.95529-.95529 1.0232-2.4769.0625-3.4375l-5.406-5.406c-.96063-.96062-2.4822-.8928-3.4375.0625l-2.5312 2.5c-1.526-.853-3.157-1.57-4.875-2.061v-3.5c0-1.3624-1.0755-2.5-2.4375-2.5h-7.625zm3.812 20.188c4.3161 0 7.8125 3.4964 7.8125 7.8125s-3.4964 7.8125-7.8125 7.8125-7.8125-3.4964-7.8125-7.8125 3.4964-7.8125 7.8125-7.8125z" display="block" opacity=".3"/><path d="m44.203 19.5c-1.0823 0-1.9586.89778-1.9586 1.9985v3.8772c-1.9351.5156-3.7842 1.2944-5.476 2.2783l-2.758-2.758c-.38918-.38918-.85537-.5953-1.359-.59956-.50363-.0043-1.0163.17696-1.399.55959l-5.3961 5.3961c-.76526.76527-.73838 1.9796.03989 2.758l2.758 2.758c-.98393 1.6918-1.7627 3.5408-2.2783 5.476h-3.8772c-1.1008 0-1.9985.87631-1.9985 1.9586v7.5944c0 1.0823.89779 1.9586 1.9985 1.9586h3.8772c.51561 1.9352 1.2944 3.7842 2.2783 5.476l-2.758 2.758c-.77835.77835-.80523 1.9927-.03989 2.758l5.3961 5.3961c.76526.76527 1.9796.73838 2.758-.03997l2.758-2.758c1.6918.98394 3.5408 1.7627 5.476 2.2783v3.8772c0 1.1008.87632 1.9985 1.9586 1.9985h7.5944c1.0823 0 1.9586-.89779 1.9586-1.9985v-3.8772c1.9351-.5156 3.7842-1.2944 5.476-2.2783l2.758 2.758c.77835.77835 1.9927.80524 2.758.03997l5.3961-5.3961c.76526-.76527.73838-1.9796-.03989-2.758l-2.758-2.758c.98393-1.6918 1.7627-3.5408 2.2783-5.476h3.8772c1.1007 0 1.9985-.87631 1.9985-1.9586v-7.5944c0-1.0823-.89779-1.9586-1.9985-1.9586h-3.8772c-.514-1.934-1.293-3.783-2.277-5.475l2.758-2.758c.77835-.77835.80524-1.9927.03989-2.758l-5.3961-5.3961c-.76527-.76527-1.9796-.73838-2.758.03997l-2.758 2.758c-1.6918-.98394-3.5408-1.7627-5.476-2.2783v-3.8772c0-1.1008-.87631-1.9985-1.9586-1.9985h-7.5944zm3.7972 19.186c4.5893 0 8.3139 3.7246 8.3139 8.3139s-3.7246 8.3139-8.3139 8.3139-8.3139-3.7246-8.3139-8.3139 3.7246-8.3139 8.3139-8.3139z" display="block" fill="url(#h)" stroke="url(#i)" stroke-linejoin="round"/><path d="m48 29.733c-9.5212 0-17.267 7.7461-17.267 17.267 0 9.5212 7.7461 17.267 17.267 17.267 9.5212 0 17.267-7.7461 17.267-17.267 0-9.5212-7.7462-17.267-17.267-17.267z" fill="none" stroke="url(#g)" stroke-width="2"/><path d="m48 30.372c-9.1688 0-16.628 7.4591-16.628 16.628 0 9.1687 7.4591 16.628 16.628 16.628 9.1688-.000002 16.628-7.4591 16.628-16.628 0-9.1687-7.4591-16.628-16.628-16.628zm0 7.6744c4.9423 0 8.9535 4.0111 8.9535 8.9535 0 4.9423-4.0112 8.9535-8.9535 8.9535s-8.9535-4.0111-8.9535-8.9535c0-4.9423 4.0112-8.9535 8.9535-8.9535z" opacity=".05"/></svg>