<svg height="96" width="96" xmlns="http://www.w3.org/2000/svg" xmlns:xlink="http://www.w3.org/1999/xlink"><linearGradient id="a"><stop offset="0" stop-color="#fefefe"/><stop offset="1" stop-color="#fefefe" stop-opacity="0"/></linearGradient><linearGradient id="b"><stop offset="0"/><stop offset="1" stop-opacity="0"/></linearGradient><linearGradient id="c"><stop offset="0" stop-color="#848484"/><stop offset="1" stop-color="#454545"/></linearGradient><linearGradient id="d" gradientUnits="userSpaceOnUse" x1="36.357143" x2="36.357143" xlink:href="#a" y1="6" y2="63.893143"/><radialGradient id="e" cx="48" cy="90.171875" gradientTransform="matrix(1.1573129 0 0 .99590774 -7.551021 .197132)" gradientUnits="userSpaceOnUse" r="42" xlink:href="#a"/><linearGradient id="f" gradientTransform="translate(0 -97)" gradientUnits="userSpaceOnUse" x1="32.251034" x2="32.251034" xlink:href="#g" y1="6.131708" y2="90.238609"/><linearGradient id="g" gradientTransform="matrix(1.0058652 0 0 .994169 100 0)" gradientUnits="userSpaceOnUse" x1="45.447727" x2="45.447727" y1="92.539597" y2="7.01654"><stop offset="0"/><stop offset="1" stop-opacity=".588235"/></linearGradient><linearGradient id="h" gradientTransform="matrix(1.0238095 0 0 1.0119048 -1.142857 -98.071429)" gradientUnits="userSpaceOnUse" x1="32.251034" x2="32.251034" xlink:href="#g" y1="6.131708" y2="90.238609"/><linearGradient id="i" gradientUnits="userSpaceOnUse" x1="40" x2="40" y1="88" y2="72"><stop offset="0" stop-color="#ccc"/><stop offset="1" stop-color="#dfdfdf"/></linearGradient><linearGradient id="j" gradientUnits="userSpaceOnUse" x1="40" x2="40" y1="72" y2="68"><stop offset="0"/><stop offset=".34375" stop-opacity=".498039"/><stop offset="1" stop-opacity="0"/></linearGradient><linearGradient id="k" gradientUnits="userSpaceOnUse" x1="-90" x2="-6" xlink:href="#b" y1="48" y2="48"/><linearGradient id="l" gradientUnits="userSpaceOnUse" x1="37" x2="37" y1="78" y2="82"><stop offset="0" stop-color="#333"/><stop offset="1" stop-color="#494949"/></linearGradient><radialGradient id="m" cx="32" cy="78.199997" gradientTransform="matrix(1.5 .00000099 -.00000099 1.499999 -15.999923 -39.299957)" gradientUnits="userSpaceOnUse" r="4"><stop offset="0" stop-color="#ebebeb"/><stop offset="1" stop-color="#c0c0c0"/></radialGradient><linearGradient id="n" gradientUnits="userSpaceOnUse" x1="39" x2="39" xlink:href="#a" y1="83" y2="74.937744"/><linearGradient id="o" gradientUnits="userSpaceOnUse" x1="47.33430087126" x2="99.94521157532" xlink:href="#c" y1="22.31694657688" y2="22.31694657688"/><linearGradient id="p" gradientTransform="matrix(.7620812 .7620812 -.7620812 .7620812 48.272417 -29.567134)" gradientUnits="userSpaceOnUse" x1="48.916553" x2="97.732262" xlink:href="#c" y1="24.14736" y2="24.14736"/><linearGradient id="q" gradientTransform="matrix(.7620812 .7620812 -.7620812 .7620812 48.272417 -29.567134)" gradientUnits="userSpaceOnUse" x1="56.270466" x2="53.392128" xlink:href="#b" y1="22.625397" y2="23.509279"/><linearGradient id="r" gradientTransform="matrix(0 1.0777456 -1.0777456 0 101.3184 -7.344013)" gradientUnits="userSpaceOnUse" x1="48.916553" x2="97.732262" xlink:href="#c" y1="24.14736" y2="24.14736"/><linearGradient id="s" gradientTransform="matrix(0 1.0777456 -1.0777456 0 101.3184 -7.344013)" gradientUnits="userSpaceOnUse" x1="56.270466" x2="53.392128" xlink:href="#b" y1="22.625397" y2="23.509279"/><linearGradient id="t" gradientTransform="matrix(-.7620812 .7620812 -.7620812 -.7620812 123.30024 45.94078)" gradientUnits="userSpaceOnUse" x1="48.916553" x2="97.732262" xlink:href="#c" y1="24.14736" y2="24.14736"/><linearGradient id="u" gradientTransform="matrix(-.7620812 .7620812 -.7620812 -.7620812 123.30024 45.94078)" gradientUnits="userSpaceOnUse" x1="56.270466" x2="53.392128" xlink:href="#b" y1="22.625397" y2="23.509279"/><linearGradient id="v" gradientTransform="matrix(-1.0777456 0 0 -1.0777456 102.59234 101.76469)" gradientUnits="userSpaceOnUse" x1="48.916553" x2="97.732262" xlink:href="#c" y1="24.14736" y2="24.14736"/><linearGradient id="w" gradientTransform="matrix(-1.0777456 0 0 -1.0777456 102.59234 101.76469)" gradientUnits="userSpaceOnUse" x1="56.270466" x2="53.392128" xlink:href="#b" y1="22.625397" y2="23.509279"/><linearGradient id="x" gradientTransform="matrix(-.7620812 -.7620812 .7620812 -.7620812 48.297395 122.98892)" gradientUnits="userSpaceOnUse" x1="48.916553" x2="97.732262" xlink:href="#c" y1="24.14736" y2="24.14736"/><linearGradient id="y" gradientTransform="matrix(-.7620812 -.7620812 .7620812 -.7620812 48.297395 122.98892)" gradientUnits="userSpaceOnUse" x1="56.270466" x2="53.392128" xlink:href="#b" y1="22.625397" y2="23.509279"/><linearGradient id="z" gradientTransform="matrix(0 -1.0777456 1.0777456 0 -6.768893 100.51326)" gradientUnits="userSpaceOnUse" x1="48.916553" x2="97.732262" xlink:href="#c" y1="24.14736" y2="24.14736"/><linearGradient id="A" gradientTransform="matrix(0 -1.0777456 1.0777456 0 -6.768893 100.51326)" gradientUnits="userSpaceOnUse" x1="56.270466" x2="53.392128" xlink:href="#b" y1="22.625397" y2="23.509279"/><linearGradient id="B" gradientTransform="matrix(.7620812 -.7620812 .7620812 .7620812 -27.993121 47.228467)" gradientUnits="userSpaceOnUse" x1="48.916553" x2="97.732262" xlink:href="#c" y1="24.14736" y2="24.14736"/><linearGradient id="C" gradientTransform="matrix(.7620812 -.7620812 .7620812 .7620812 -27.993121 47.228467)" gradientUnits="userSpaceOnUse" x1="56.270466" x2="53.392128" xlink:href="#b" y1="22.625397" y2="23.509279"/><linearGradient id="D" gradientUnits="userSpaceOnUse" x1="55.2599475144" x2="52.15783168742" xlink:href="#b" y1="20.67665780246" y2="21.62925765049"/><clipPath id="E"><rect height="94.482986" rx="6.748785" width="94.482986" x="1.466293" y="8.411515"/></clipPath><g><g fill="url(#h)"><path d="m12-95.03125c-5.5110903 0-10.03125 4.52016-10.03125 10.03125v71c0 5.5110902 4.5201598 10.03125 10.03125 10.03125h72c5.51109 0 10.03125-4.5201597 10.03125-10.03125v-71c0-5.51109-4.52016-10.03125-10.03125-10.03125z" opacity=".08" transform="scale(1 -1)"/><path d="m12-94.03125c-4.971633 0-9.03125 4.059617-9.03125 9.03125v71c0 4.9716329 4.0596171 9.03125 9.03125 9.03125h72c4.971633 0 9.03125-4.059617 9.03125-9.03125v-71c0-4.971633-4.059617-9.03125-9.03125-9.03125z" opacity=".1" transform="scale(1 -1)"/><path d="m12-93c-4.4091333 0-8 3.590867-8 8v71c0 4.4091333 3.5908667 8 8 8h72c4.409133 0 8-3.5908667 8-8v-71c0-4.409133-3.590867-8-8-8z" opacity=".2" transform="scale(1 -1)"/><rect height="85" opacity=".3" rx="7" transform="scale(1 -1)" width="86" x="5" y="-92"/></g><rect fill="url(#f)" height="84" opacity=".45" rx="6" transform="scale(1 -1)" width="84" x="6" y="-91"/></g><g><path d="m64 48a16 16 0 1 1 -32 0 16 16 0 1 1 32 0z" fill="#333" transform="matrix(1.4852529 0 0 1.4852529 -22.946186 -30.588664)"/><g clip-path="url(#E)" fill-rule="evenodd" transform="matrix(.88904892 0 0 .88904892 4.696394 -1.478248)"><path d="m63.746354 52.94225-18.231643-65.799586 54.430498 4.5489774v60.1619206z" fill="url(#o)"/><path d="m45.879436-13.704817 17.87938 66.646052 1.532644-.640209-17.87938-66.612374z" fill="#fefefe" opacity=".2"/><path d="m57.098267 59.373936 31.705649-54.9157968 37.201534 37.2015308-42.540907 42.540905z" fill="url(#p)"/><path d="m88.805611 4.4407396-31.697815 54.9412914 1.695692.538445 31.674-54.917476z" fill="#fefefe" opacity=".2"/><path d="m85.302388 1.0891496-31.242917 55.2445564 3.11977 2.92925 31.62637-54.8222164z" fill="url(#q)" opacity=".6"/><path d="m44.668383 61.787642 61.250617-16.412054v52.610912h-60.161929z" fill="url(#r)"/><path d="m105.9325 45.364483-61.263103 16.435621.03368 1.835908 61.229423-16.43562z" fill="#fefefe" opacity=".2"/><path d="m105.9325 41.053501-61.263103 16.43562.134718 4.277303 61.128385-16.401941z" fill="url(#s)" opacity=".6"/><path d="m34.35917 54.76663 54.915797 31.705649-37.201531 37.201531-42.5409048-42.540904z" fill="url(#t)"/><path d="m89.292366 86.473974-54.941291-31.697815-1.097629 1.392426 54.917476 31.674z" fill="#fefefe" opacity=".2"/><path d="m92.340691 83.425649-54.941291-31.697815-2.92925 3.11977 54.822216 31.62637z" fill="url(#u)" opacity=".6"/><path d="m33.460686 45.114673 16.412053 61.250617h-52.6109111v-60.161929z" fill="url(#v)"/><path d="m49.883844 106.37879-16.43562-61.263103-1.684276.488577 16.435621 61.229426z" fill="#fefefe" opacity=".2"/><path d="m54.194827 106.37879-16.435621-61.263103-4.277303.134718 16.401941 61.128385z" fill="url(#w)" opacity=".6"/><path d="m39.471545 34.04785-31.7056492 54.915797-37.2015308-37.201531 42.540904-42.5409048z" fill="url(#x)"/><path d="m7.7642012 88.981046 31.6978148-54.941291-1.392426-1.193164-31.6740004 54.917476z" fill="#fefefe" opacity=".2"/><path d="m10.812526 92.029371 31.697815-54.941291-3.11977-2.92925-31.6263698 54.822216z" fill="url(#y)" opacity=".6"/><path d="m-11.375-4.8125v52.59375l61.25-16.40625-1.03125-34.09375-.5625-2.09375z" fill="url(#z)"/><path d="m-11.382991 47.804764 61.263102-16.43562-.488578-1.684276-61.229422 16.435621z" fill="#fefefe" opacity=".2"/><path d="m-11.382991 52.115747 61.263102-16.435621-.134719-4.277303-61.128383 16.401941z" fill="url(#A)" opacity=".6"/><path d="m43.21875-30.5-37.1875 37.1875 53.625 30.96875-13.277484-49.292584h18.09375z" fill="url(#B)"/><path d="m6.6532389 5.179337-.6532389 1.508163 53.65625 30.96875-.503011-2.226913z" fill="#fefefe" opacity=".2"/><path d="m6 6.6875-3.03125 3.0625 54.9375 31.6875 2.15625-2.28125-.40625-1.53125z" fill="url(#C)" opacity=".6"/><path d="m41.635307-13.543825 17.802193 66.481325 1.40625-.03125 1.96875-3.4375-16.864693-63.012575z" fill="url(#D)" opacity=".6"/></g><rect fill="url(#k)" height="84" opacity=".4" rx="6" transform="rotate(-90)" width="84" x="-90" y="6"/></g><g><path d="m6 72v12c0 3.324 2.676 6 6 6h72c3.324 0 6-2.676 6-6v-12z" fill="url(#i)"/><path d="m6 72v1h84v-1z" fill="#fefefe" opacity=".6"/><path d="m6 68v4h84v-4z" fill="url(#j)" opacity=".6"/><path d="m27 77.0625c-1.614913 0-2.9375 1.322587-2.9375 2.9375s1.322587 2.9375 2.9375 2.9375h46c1.614913 0 2.9375-1.322587 2.9375-2.9375s-1.322587-2.9375-2.9375-2.9375z" fill="url(#n)" opacity=".6"/><rect fill="url(#l)" height="4" rx="2" width="50.000015" x="25" y="78"/><g transform="translate(4)"><g transform="matrix(1.125 0 0 1.125 -4 -9.5)"><path d="m32 74.21875c-3.171143 0-5.78125 2.610107-5.78125 5.78125s2.610107 5.78125 5.78125 5.78125 5.78125-2.610107 5.78125-5.78125-2.610107-5.78125-5.78125-5.78125z" opacity=".05"/><path d="m32 75.125c-2.681563 0-4.875 2.193437-4.875 4.875s2.193437 4.875 4.875 4.875 4.875-2.193437 4.875-4.875-2.193437-4.875-4.875-4.875z" opacity=".15"/><path d="m36 80a4 4 0 1 1 -8 0 4 4 0 1 1 8 0z" opacity=".3"/></g><path d="m36 80a4 4 0 1 1 -8 0 4 4 0 1 1 8 0z" fill="url(#m)"/><path d="m32 76c-2.209139 0-4 1.790861-4 4 0 .17012.04189.335468.0625.5.247066-1.972046 1.898481-3.5 3.9375-3.5s3.690434 1.527954 3.9375 3.5c.020613-.164532.0625-.32988.0625-.5 0-2.209139-1.790861-4-4-4z" fill="#fefefe" opacity=".6"/></g><path d="m77 84h3v3h2v-3h3l-4-9z" opacity=".3"/><path d="m16 83h2v3h2v-3h2l-3-7z" opacity=".3"/><path d="m10 83h2v3h2v-3h2l-3-7z" opacity=".3"/><path d="m81 75-4 9h.4375l3.5625-8 3.5625 8h.4375zm-68 1-3 7h.4375l2.5625-6 2.5625 6h.4375zm3 7h.4375l2.5625-6 2.5625 6h.4375l-3-7z" opacity=".2"/><path d="m10.4375 83-.4375 1h2v-1zm3.5625 0v1h2l-.4375-1zm2 1h2v-1h-1.5625zm4-1v1h2l-.4375-1zm57.4375 1-.4375 1h3v-1zm4.5625 0v1h3l-.4375-1zm-70 2v1h2v-1zm6 0v1h2v-1zm62 1v1h2v-1z" fill="#fefefe" opacity=".3"/></g><path d="m12 6c-3.324 0-6 2.676-6 6v2 68 2c0 .334721.04135.6507.09375.96875.0487.295596.09704.596915.1875.875.00988.03038.020892.0636.03125.09375.098865.287771.2348802.547452.375.8125.1445918.273507.3156161.535615.5.78125s.3737765.473472.59375.6875c.439947.428056.94291.814526 1.5 1.09375.278545.139612.5734731.246947.875.34375-.2562018-.100222-.4867109-.236272-.71875-.375-.00741-.0044-.023866.0045-.03125 0-.031933-.0193-.062293-.04251-.09375-.0625-.120395-.0767-.2310226-.163513-.34375-.25-.1061728-.0808-.2132809-.161112-.3125-.25-.1779299-.161433-.3474596-.345388-.5-.53125-.1075789-.130255-.2183939-.265285-.3125-.40625-.025089-.03838-.038446-.08587-.0625-.125-.064763-.103032-.1302275-.204517-.1875-.3125-.1010083-.194706-.2056748-.415701-.28125-.625-.00796-.02181-.023589-.04055-.03125-.0625-.0318251-.09195-.0358045-.186831-.0625-.28125-.0303323-.106618-.0703894-.203031-.09375-.3125-.0728786-.341512-.125-.698205-.125-1.0625v-2-68-2c0-2.781848 2.2181517-5 5-5h2 68 2c2.781848 0 5 2.218152 5 5v2 68 2c0 .364295-.05212.720988-.125 1.0625-.04415.206893-.08838.397658-.15625.59375-.0077.02195-.0233.04069-.03125.0625-.06274.173739-.138383.367449-.21875.53125-.04158.0828-.07904.169954-.125.25-.0546.09721-.126774.18835-.1875.28125-.09411.140965-.204921.275995-.3125.40625-.143174.17445-.303141.346998-.46875.5-.01117.0102-.01998.02115-.03125.03125-.138386.125556-.285091.234436-.4375.34375-.102571.07315-.204318.153364-.3125.21875-.0074.0045-.02384-.0044-.03125 0-.232039.138728-.462548.274778-.71875.375.301527-.0968.596455-.204138.875-.34375.55709-.279224 1.060053-.665694 1.5-1.09375.219973-.214028.409366-.441865.59375-.6875s.355408-.507743.5-.78125c.14012-.265048.276135-.524729.375-.8125.01041-.03078.02133-.06274.03125-.09375.09046-.278085.1388-.579404.1875-.875.0524-.31805.09375-.634029.09375-.96875v-2-68-2c0-3.324-2.676-6-6-6z" fill="url(#d)" opacity=".3"/><path d="m12 90c-3.324 0-6-2.676-6-6v-2-68-2c0-.334721.04135-.6507.09375-.96875.0487-.295596.09704-.596915.1875-.875.00988-.03038.020892-.0636.03125-.09375.098865-.287771.2348802-.547452.375-.8125.1445918-.273507.3156161-.535615.5-.78125s.3737765-.473472.59375-.6875c.439947-.428056.94291-.814526 1.5-1.09375.278545-.139612.5734731-.246947.875-.34375-.2562018.100222-.4867109.236272-.71875.375-.00741.0044-.023866-.0045-.03125 0-.031933.0193-.062293.04251-.09375.0625-.120395.0767-.2310226.163513-.34375.25-.1061728.0808-.2132809.161112-.3125.25-.1779299.161433-.3474596.345388-.5.53125-.1075789.130255-.2183939.265285-.3125.40625-.025089.03838-.038446.08587-.0625.125-.064763.103032-.1302275.204517-.1875.3125-.1010083.194706-.2056748.415701-.28125.625-.00796.02181-.023589.04055-.03125.0625-.0318251.09195-.0358045.186831-.0625.28125-.0303323.106618-.0703894.203031-.09375.3125-.0728786.341512-.125.698205-.125 1.0625v2 68 2c0 2.781848 2.2181517 5 5 5h2 68 2c2.781848 0 5-2.218152 5-5v-2-68-2c0-.364295-.05212-.720988-.125-1.0625-.04415-.206893-.08838-.397658-.15625-.59375-.0077-.02195-.0233-.04069-.03125-.0625-.06274-.173739-.138383-.367449-.21875-.53125-.04158-.0828-.07904-.169954-.125-.25-.0546-.09721-.126774-.18835-.1875-.28125-.09411-.140965-.204921-.275995-.3125-.40625-.143174-.17445-.303141-.346998-.46875-.5-.01117-.0102-.01998-.02115-.03125-.03125-.138386-.125556-.285091-.234436-.4375-.34375-.102571-.07315-.204318-.153364-.3125-.21875-.0074-.0045-.02384.0044-.03125 0-.232039-.138728-.462548-.274778-.71875-.375.301527.0968.596455.204138.875.34375.55709.279224 1.060053.665694 1.5 1.09375.219973.214028.409366.441865.59375.6875s.355408.507743.5.78125c.14012.265048.276135.524729.375.8125.01041.03078.02133.06274.03125.09375.09046.278085.1388.579404.1875.875.0524.31805.09375.634029.09375.96875v2 68 2c0 3.324-2.676 6-6 6z" fill="url(#e)" opacity=".45"/></svg>