<svg height="96" width="96" xmlns="http://www.w3.org/2000/svg" xmlns:xlink="http://www.w3.org/1999/xlink"><linearGradient id="a"><stop offset="0" stop-color="#fefefe"/><stop offset="1" stop-color="#fefefe" stop-opacity="0"/></linearGradient><linearGradient id="b" gradientUnits="userSpaceOnUse" x1="36.357143" x2="36.357143" xlink:href="#a" y1="6" y2="63.893143"/><filter id="c" color-interpolation-filters="sRGB" height="1.384" width="1.384" x="-.192" y="-.192"><feGaussianBlur stdDeviation="5.28"/></filter><linearGradient id="d" gradientUnits="userSpaceOnUse" x1="48" x2="48" xlink:href="#a" y1="20.220806" y2="138.66119"/><radialGradient id="e" cx="48" cy="90.171875" gradientTransform="matrix(1.1573129 0 0 .99590774 -7.551021 .197132)" gradientUnits="userSpaceOnUse" r="42" xlink:href="#a"/><clipPath id="f"><rect height="84" rx="6" width="84" x="6" y="6"/></clipPath><linearGradient id="g" gradientUnits="userSpaceOnUse" x1="48" x2="48" y1="90" y2="5.987717"><stop offset="0" stop-color="#282828"/><stop offset="1" stop-color="#5a5a5a"/></linearGradient><linearGradient id="h" gradientUnits="userSpaceOnUse"><stop offset="0"/><stop offset=".2" stop-opacity=".354839"/><stop offset=".55254942" stop-opacity="0"/><stop offset="1" stop-opacity="0"/></linearGradient><linearGradient id="i" gradientTransform="matrix(.72413795 0 0 .75 1.655173 4.5)" gradientUnits="userSpaceOnUse" x1="43.476658" x2="43.476658" xlink:href="#h" y1="26" y2="34.001266"/><linearGradient id="j" gradientTransform="matrix(1 0 0 1.25 0 -4.598212)" gradientUnits="userSpaceOnUse" x1="48" x2="48" xlink:href="#h" y1="16" y2="11.924657"/><linearGradient id="k" gradientUnits="userSpaceOnUse" x1="50.464287" x2="50.464287" y1="15.357143" y2="19.651315"><stop offset="0" stop-color="#fefefe"/><stop offset=".30000001" stop-color="#fefefe" stop-opacity=".498039"/><stop offset="1" stop-color="#fefefe" stop-opacity="0"/></linearGradient><linearGradient id="l" gradientTransform="matrix(1 0 0 1.25 0 4.401788)" gradientUnits="userSpaceOnUse" x1="48" x2="48" xlink:href="#h" y1="16" y2="11.924657"/><linearGradient id="m" gradientTransform="matrix(.81330712 0 0 .81132563 3.993543 2.028185)" gradientUnits="userSpaceOnUse" x1="11" x2="16" y1="10.441942" y2="24"><stop offset="0" stop-color="#5d5d5d"/><stop offset="1" stop-color="#171717"/></linearGradient><linearGradient id="n" gradientTransform="matrix(.81330712 0 0 .81132563 3.993543 2.028185)" gradientUnits="userSpaceOnUse" x1="13.125" x2="19.25" y1="9.941942" y2="24.5"><stop offset="0" stop-color="#919191"/><stop offset="1" stop-color="#232323"/></linearGradient><radialGradient id="o" cx="11.3125" cy="14.9375" gradientUnits="userSpaceOnUse" r="1.4375"><stop offset="0" stop-color="#dfdfdf"/><stop offset="1" stop-color="#434343"/></radialGradient><linearGradient id="p" gradientUnits="userSpaceOnUse" x1="31.642857" x2="31.642857" y1="25.779018" y2="69.410355"><stop offset="0" stop-color="#f6e2a9"/><stop offset="1" stop-color="#f6e3a9" stop-opacity="0"/></linearGradient><linearGradient id="q" gradientTransform="matrix(1.0058652 0 0 .994169 100 0)" gradientUnits="userSpaceOnUse" x1="45.447727" x2="45.447727" y1="92.539597" y2="7.01654"><stop offset="0"/><stop offset="1" stop-opacity=".588235"/></linearGradient><linearGradient id="r" gradientTransform="matrix(1.0238095 0 0 1.0119048 -1.142857 -98.071429)" gradientUnits="userSpaceOnUse" x1="32.251034" x2="32.251034" xlink:href="#q" y1="6.131708" y2="90.238609"/><linearGradient id="s" gradientTransform="translate(0 -97)" gradientUnits="userSpaceOnUse" x1="32.251034" x2="32.251034" xlink:href="#q" y1="6.131708" y2="90.238609"/><radialGradient id="t" cx="48" cy="85.131531" gradientTransform="matrix(1.4018647 .00000001 -.00000001 1.2212402 -19.289505 -25.867403)" gradientUnits="userSpaceOnUse" r="36"><stop offset="0" stop-color="#b30707"/><stop offset="1" stop-color="#e42c0d"/></radialGradient><linearGradient id="u" gradientTransform="matrix(.56904514 0 0 .58994208 18.57573 28.898855)" gradientUnits="userSpaceOnUse" x1="62.336792" x2="62.336792" y1="79.015236" y2="12.797539"><stop offset="0" stop-color="#e6e6e6"/><stop offset="1" stop-color="#f5f5f5"/></linearGradient><g><g fill="url(#r)"><path d="m12-95.03125c-5.5110903 0-10.03125 4.52016-10.03125 10.03125v71c0 5.5110902 4.5201598 10.03125 10.03125 10.03125h72c5.51109 0 10.03125-4.5201597 10.03125-10.03125v-71c0-5.51109-4.52016-10.03125-10.03125-10.03125z" opacity=".08" transform="scale(1 -1)"/><path d="m12-94.03125c-4.971633 0-9.03125 4.059617-9.03125 9.03125v71c0 4.9716329 4.0596171 9.03125 9.03125 9.03125h72c4.971633 0 9.03125-4.059617 9.03125-9.03125v-71c0-4.971633-4.059617-9.03125-9.03125-9.03125z" opacity=".1" transform="scale(1 -1)"/><path d="m12-93c-4.4091333 0-8 3.590867-8 8v71c0 4.4091333 3.5908667 8 8 8h72c4.409133 0 8-3.5908667 8-8v-71c0-4.409133-3.590867-8-8-8z" opacity=".2" transform="scale(1 -1)"/><rect height="85" opacity=".3" rx="7" transform="scale(1 -1)" width="86" x="5" y="-92"/></g><rect fill="url(#s)" height="84" opacity=".45" rx="6" transform="scale(1 -1)" width="84" x="6" y="-91"/></g><g><rect fill="url(#g)" height="84" rx="6" width="84" x="6" y="6"/><path d="m12 30v4 36 10c0 2.216 1.784 4 4 4h64c2.216 0 4-1.784 4-4v-10-36-4h-4-64z" fill="url(#t)"/><path d="m12 30v4 31.84375c15.836766-9.953189 42.040184-16.658922 72-17.28125v-14.5625-4h-4-64z" fill="url(#p)" opacity=".4"/><path d="m12 30v4 36 10c0 2.216 1.784 4 4 4h64c2.216 0 4-1.784 4-4v-10-36-4h-4-64zm3.09375 3.09375h.90625 64 .90625v.90625 36 10c0 .550784-.355466.90625-.90625.90625h-64c-.550784 0-.90625-.355466-.90625-.90625v-10-36z" opacity=".08"/><path d="m12 80v1c0 2.216 1.784 4 4 4h64c2.216 0 4-1.784 4-4v-1c0 2.216-1.784 4-4 4h-64c-2.216 0-4-1.784-4-4z" fill="#fefefe" opacity=".3"/><path d="m12 30v4 36 10c0 2.216 1.784 4 4 4h64c2.216 0 4-1.784 4-4v-10-36-4h-4-64zm2.03125 2.03125h1.96875 64 1.96875v1.96875 36 10c0 1.118634-.850116 1.96875-1.96875 1.96875h-64c-1.118634 0-1.96875-.850116-1.96875-1.96875v-10-36z" opacity=".2"/><path d="m12 30v4 36 10c0 2.216 1.784 4 4 4h64c2.216 0 4-1.784 4-4v-10-36-4h-4-64zm1.0625 1.0625h2.9375 64 2.9375v2.9375 36 10c0 1.640961-1.296539 2.9375-2.9375 2.9375h-64c-1.640961 0-2.9375-1.296539-2.9375-2.9375v-10-36z" fill="#800000"/><path d="m63.75 35.125c-6.723177-.227927-13.026804 3.809899-16.546236 9.386851-2.35519 3.470814-3.576176 7.514627-4.727792 11.500837-1.35279 3.897916-3.42212 8.138396-7.437315 9.838883-.994017.573691-2.13977.266565-3.163657.460929-.942998.352073-.939952 1.435863-.875 2.282051.02198 2.413669-.04324 4.847925.03125 7.249199.228677.923245 1.299168 1.15911 2.146058 1.042149 5.813893.03215 11.231715-3.316576 14.477893-8.025527 1.648195-2.295656 2.895864-4.860081 3.844799-7.516622 2.861935-.02163 5.744178.04275 8.59375-.03125.884804-.198272 1.171142-1.173217 1.03125-1.990117-.02165-2.511059.04278-5.042438-.03125-7.541133-.198272-.884804-1.173217-1.171142-1.990117-1.03125-1.024128 0-2.048255 0-3.072383 0 1.240946-3.115041 4.527506-5.208176 7.875-5.03125.853995-.190624 1.250889-1.088485 1.09375-1.913639-.02189-2.557329.04311-5.135169-.03125-7.680111-.152867-.529787-.644325-.99354-1.21875-1z" fill="#fefefe" opacity=".1"/><path d="m63.6875 35.875s-3.688837-.292416-7.96875 1.84375-9.20538 6.729109-11.8125 16.25c-2.023273 7.38875-4.953465 10.56687-7.3125 11.96875-1.179517.70094-2.226381.97692-2.96875 1.0625s-1.125 0-1.125 0a.63438363.63438363 0 0 0 -.75.625v7.84375a.63438363.63438363 0 0 0 .5625.625s3.359372.410382 7.375-1.40625c3.937889-1.781464 8.4931-5.788514 11.3125-14.09375h8.75a.63438363.63438363 0 0 0 .625-.625v-7.84375a.63438363.63438363 0 0 0 -.625-.625h-5c.244185-.673034.65877-1.65475 1.5625-2.84375 1.384175-1.821104 3.598404-3.622238 7.3125-3.6875a.63438363.63438363 0 0 0 .625-.625v-7.84375a.63438363.63438363 0 0 0 -.5625-.625z" fill="#fefefe" opacity=".2"/><path d="m63.610614 36.49958v7.850903c-7.838521.137735-9.764937 7.782037-9.764937 7.782037h5.912105v7.850904h-9.167085c-5.513535 17.010291-18.201311 15.495205-18.201311 15.495205v-7.850904s8.051179 1.493552 12.156352-13.498046c5.135195-18.753121 19.064876-17.630099 19.064876-17.630099z" fill="url(#u)"/></g><path d="m12 90c-3.324 0-6-2.676-6-6v-2-68-2c0-.334721.04135-.6507.09375-.96875.0487-.295596.09704-.596915.1875-.875.00988-.03038.020892-.0636.03125-.09375.098865-.287771.2348802-.547452.375-.8125.1445918-.273507.3156161-.535615.5-.78125s.3737765-.473472.59375-.6875c.439947-.428056.94291-.814526 1.5-1.09375.278545-.139612.5734731-.246947.875-.34375-.2562018.100222-.4867109.236272-.71875.375-.00741.0044-.023866-.0045-.03125 0-.031933.0193-.062293.04251-.09375.0625-.120395.0767-.2310226.163513-.34375.25-.1061728.0808-.2132809.161112-.3125.25-.1779299.161433-.3474596.345388-.5.53125-.1075789.130255-.2183939.265285-.3125.40625-.025089.03838-.038446.08587-.0625.125-.064763.103032-.1302275.204517-.1875.3125-.1010083.194706-.2056748.415701-.28125.625-.00796.02181-.023589.04055-.03125.0625-.0318251.09195-.0358045.186831-.0625.28125-.0303323.106618-.0703894.203031-.09375.3125-.0728786.341512-.125.698205-.125 1.0625v2 68 2c0 2.781848 2.2181517 5 5 5h2 68 2c2.781848 0 5-2.218152 5-5v-2-68-2c0-.364295-.05212-.720988-.125-1.0625-.04415-.206893-.08838-.397658-.15625-.59375-.0077-.02195-.0233-.04069-.03125-.0625-.06274-.173739-.138383-.367449-.21875-.53125-.04158-.0828-.07904-.169954-.125-.25-.0546-.09721-.126774-.18835-.1875-.28125-.09411-.140965-.204921-.275995-.3125-.40625-.143174-.17445-.303141-.346998-.46875-.5-.01117-.0102-.01998-.02115-.03125-.03125-.138386-.125556-.285091-.234436-.4375-.34375-.102571-.07315-.204318-.153364-.3125-.21875-.0074-.0045-.02384.0044-.03125 0-.232039-.138728-.462548-.274778-.71875-.375.301527.0968.596455.204138.875.34375.55709.279224 1.060053.665694 1.5 1.09375.219973.214028.409366.441865.59375.6875s.355408.507743.5.78125c.14012.265048.276135.524729.375.8125.01041.03078.02133.06274.03125.09375.09046.278085.1388.579404.1875.875.0524.31805.09375.634029.09375.96875v2 68 2c0 3.324-2.676 6-6 6z" fill="url(#e)" opacity=".2"/><rect height="66" rx="12" style="opacity:.1;stroke:#fefefe;stroke-width:.5;stroke-linecap:round;clip-path:url(#f);fill:url(#d);filter:url(#c)" width="66" x="15" y="15"/><path d="m12 6c-3.324 0-6 2.676-6 6v12h84v-12c0-3.324-2.676-6-6-6z"/><g fill-rule="evenodd"><path d="m6 24h84v6h-84z" fill="url(#i)" opacity=".8"/><path d="m6 15h84v5h-84z" fill="url(#k)" opacity=".3"/><g fill="#f0f0f0" transform="translate(1)"><path d="m28.333333 6-5.333333 9 5.333333 9h10.666667l-5.333333-9 5.333333-9z"/><path d="m50.333333 6-5.333333 9 5.333333 9h10.666667l-5.333333-9 5.333333-9z"/><path d="m72.333333 6-5.333333 9 5.333333 9h10.666667l-5.333333-9 5.333333-9z"/></g><path d="m6 10h84v5h-84z" fill="url(#j)" opacity=".7"/><path d="m6 19h84v5h-84z" fill="url(#l)" opacity=".7"/><path d="m12.005391 10.5c1.109513 0 1.770155.983693 6.03003 4.302704 4.304387 3.353689 5.477493 3.726472 5.477493 5.074645 0 1.348423-1.088205 1.622651-2.439921 1.622651h-8.133072c-1.351716 0-2.439921-1.085554-2.439921-2.433977v-6.490605c0-1.348423.467611-2.075418 1.505391-2.075418z" fill="url(#m)" stroke="url(#n)" stroke-linejoin="round"/><path d="m12.75 14.9375a1.4375 1.4375 0 1 1 -2.875 0 1.4375 1.4375 0 1 1 2.875 0z" fill="url(#o)" transform="matrix(.81330712 0 0 .81132563 3.58689 1.074678)"/><path d="m12.75 14.9375a1.4375 1.4375 0 1 1 -2.875 0 1.4375 1.4375 0 1 1 2.875 0z" fill="url(#o)" transform="matrix(.81330712 0 0 .81132563 3.58689 7.09897)"/><path d="m12.75 14.9375a1.4375 1.4375 0 1 1 -2.875 0 1.4375 1.4375 0 1 1 2.875 0z" fill="url(#o)" transform="matrix(.81330712 0 0 .81132563 11.618297 7.09897)"/></g><path d="m12 6c-3.324 0-6 2.676-6 6v2 68 2c0 .334721.04135.6507.09375.96875.0487.295596.09704.596915.1875.875.00988.03038.020892.0636.03125.09375.098865.287771.2348802.547452.375.8125.1445918.273507.3156161.535615.5.78125s.3737765.473472.59375.6875c.439947.428056.94291.814526 1.5 1.09375.278545.139612.5734731.246947.875.34375-.2562018-.100222-.4867109-.236272-.71875-.375-.00741-.0044-.023866.0045-.03125 0-.031933-.0193-.062293-.04251-.09375-.0625-.120395-.0767-.2310226-.163513-.34375-.25-.1061728-.0808-.2132809-.161112-.3125-.25-.1779299-.161433-.3474596-.345388-.5-.53125-.1075789-.130255-.2183939-.265285-.3125-.40625-.025089-.03838-.038446-.08587-.0625-.125-.064763-.103032-.1302275-.204517-.1875-.3125-.1010083-.194706-.2056748-.415701-.28125-.625-.00796-.02181-.023589-.04055-.03125-.0625-.0318251-.09195-.0358045-.186831-.0625-.28125-.0303323-.106618-.0703894-.203031-.09375-.3125-.0728786-.341512-.125-.698205-.125-1.0625v-2-68-2c0-2.781848 2.2181517-5 5-5h2 68 2c2.781848 0 5 2.218152 5 5v2 68 2c0 .364295-.05212.720988-.125 1.0625-.04415.206893-.08838.397658-.15625.59375-.0077.02195-.0233.04069-.03125.0625-.06274.173739-.138383.367449-.21875.53125-.04158.0828-.07904.169954-.125.25-.0546.09721-.126774.18835-.1875.28125-.09411.140965-.204921.275995-.3125.40625-.143174.17445-.303141.346998-.46875.5-.01117.0102-.01998.02115-.03125.03125-.138386.125556-.285091.234436-.4375.34375-.102571.07315-.204318.153364-.3125.21875-.0074.0045-.02384-.0044-.03125 0-.232039.138728-.462548.274778-.71875.375.301527-.0968.596455-.204138.875-.34375.55709-.279224 1.060053-.665694 1.5-1.09375.219973-.214028.409366-.441865.59375-.6875s.355408-.507743.5-.78125c.14012-.265048.276135-.524729.375-.8125.01041-.03078.02133-.06274.03125-.09375.09046-.278085.1388-.579404.1875-.875.0524-.31805.09375-.634029.09375-.96875v-2-68-2c0-3.324-2.676-6-6-6z" fill="url(#b)" opacity=".3"/></svg>