<svg height="96" width="96" xmlns="http://www.w3.org/2000/svg" xmlns:xlink="http://www.w3.org/1999/xlink"><linearGradient id="a"><stop offset="0" stop-color="#fefefe"/><stop offset="1" stop-color="#fefefe" stop-opacity="0"/></linearGradient><linearGradient id="b" gradientUnits="userSpaceOnUse" x1="36.357143" x2="36.357143" xlink:href="#a" y1="6" y2="63.893143"/><filter id="c" color-interpolation-filters="sRGB" height="1.384" width="1.384" x="-.192" y="-.192"><feGaussianBlur stdDeviation="5.28"/></filter><linearGradient id="d" gradientUnits="userSpaceOnUse" x1="48" x2="48" xlink:href="#a" y1="20.220806" y2="138.66119"/><radialGradient id="e" cx="48" cy="90.171875" gradientTransform="matrix(1.1573129 0 0 .99590774 -7.551021 .197132)" gradientUnits="userSpaceOnUse" r="42" xlink:href="#a"/><clipPath id="f"><rect height="84" rx="6" width="84" x="6" y="6"/></clipPath><linearGradient id="g" gradientUnits="userSpaceOnUse" x1="48" x2="48" y1="90" y2="5.987717"><stop offset="0" stop-color="#e1e1e1"/><stop offset="1" stop-color="#f5f5f5"/></linearGradient><linearGradient id="h" gradientTransform="matrix(1.0058652 0 0 .994169 100 0)" gradientUnits="userSpaceOnUse" x1="45.447727" x2="45.447727" y1="92.539597" y2="7.01654"><stop offset="0"/><stop offset="1" stop-opacity=".588235"/></linearGradient><linearGradient id="i" gradientTransform="matrix(1.0238095 0 0 1.0119048 -1.142857 -98.071429)" gradientUnits="userSpaceOnUse" x1="32.251034" x2="32.251034" xlink:href="#h" y1="6.131708" y2="90.238609"/><linearGradient id="j" gradientTransform="translate(0 -97)" gradientUnits="userSpaceOnUse" x1="32.251034" x2="32.251034" xlink:href="#h" y1="6.131708" y2="90.238609"/><linearGradient id="k" gradientUnits="userSpaceOnUse" x1="16" x2="48" y1="40" y2="40"><stop offset="0" stop-color="#ff41a3"/><stop offset="1" stop-color="#ff0084"/></linearGradient><linearGradient id="l" gradientUnits="userSpaceOnUse" x1="16" x2="48" y1="40" y2="40"><stop offset="0" stop-color="#167fff"/><stop offset="1" stop-color="#0063db"/></linearGradient><path d="m12-95.03125c-5.5110903 0-10.03125 4.52016-10.03125 10.03125v71c0 5.5110902 4.5201598 10.03125 10.03125 10.03125h72c5.51109 0 10.03125-4.5201597 10.03125-10.03125v-71c0-5.51109-4.52016-10.03125-10.03125-10.03125z" fill="url(#i)" opacity=".08" transform="scale(1 -1)"/><path d="m12-94.03125c-4.971633 0-9.03125 4.059617-9.03125 9.03125v71c0 4.9716329 4.0596171 9.03125 9.03125 9.03125h72c4.971633 0 9.03125-4.059617 9.03125-9.03125v-71c0-4.971633-4.059617-9.03125-9.03125-9.03125z" fill="url(#i)" opacity=".1" transform="scale(1 -1)"/><path d="m12-93c-4.4091333 0-8 3.590867-8 8v71c0 4.4091333 3.5908667 8 8 8h72c4.409133 0 8-3.5908667 8-8v-71c0-4.409133-3.590867-8-8-8z" fill="url(#i)" opacity=".2" transform="scale(1 -1)"/><rect fill="url(#i)" height="85" opacity=".3" rx="7" transform="scale(1 -1)" width="86" x="5" y="-92"/><rect fill="url(#j)" height="84" opacity=".45" rx="6" transform="scale(1 -1)" width="84" x="6" y="-91"/><rect fill="url(#g)" height="84" rx="6" width="84" x="6" y="6"/><path d="m12 6c-3.324 0-6 2.676-6 6v2 68 2c0 .334721.04135.6507.09375.96875.0487.295596.09704.596915.1875.875.00988.03038.020892.0636.03125.09375.098865.287771.2348802.547452.375.8125.1445918.273507.3156161.535615.5.78125s.3737765.473472.59375.6875c.439947.428056.94291.814526 1.5 1.09375.278545.139612.5734731.246947.875.34375-.2562018-.100222-.4867109-.236272-.71875-.375-.00741-.0044-.023866.0045-.03125 0-.031933-.0193-.062293-.04251-.09375-.0625-.120395-.0767-.2310226-.163513-.34375-.25-.1061728-.0808-.2132809-.161112-.3125-.25-.1779299-.161433-.3474596-.345388-.5-.53125-.1075789-.130255-.2183939-.265285-.3125-.40625-.025089-.03838-.038446-.08587-.0625-.125-.064763-.103032-.1302275-.204517-.1875-.3125-.1010083-.194706-.2056748-.415701-.28125-.625-.00796-.02181-.023589-.04055-.03125-.0625-.0318251-.09195-.0358045-.186831-.0625-.28125-.0303323-.106618-.0703894-.203031-.09375-.3125-.0728786-.341512-.125-.698205-.125-1.0625v-2-68-2c0-2.781848 2.2181517-5 5-5h2 68 2c2.781848 0 5 2.218152 5 5v2 68 2c0 .364295-.05212.720988-.125 1.0625-.04415.206893-.08838.397658-.15625.59375-.0077.02195-.0233.04069-.03125.0625-.06274.173739-.138383.367449-.21875.53125-.04158.0828-.07904.169954-.125.25-.0546.09721-.126774.18835-.1875.28125-.09411.140965-.204921.275995-.3125.40625-.143174.17445-.303141.346998-.46875.5-.01117.0102-.01998.02115-.03125.03125-.138386.125556-.285091.234436-.4375.34375-.102571.07315-.204318.153364-.3125.21875-.0074.0045-.02384-.0044-.03125 0-.232039.138728-.462548.274778-.71875.375.301527-.0968.596455-.204138.875-.34375.55709-.279224 1.060053-.665694 1.5-1.09375.219973-.214028.409366-.441865.59375-.6875s.355408-.507743.5-.78125c.14012-.265048.276135-.524729.375-.8125.01041-.03078.02133-.06274.03125-.09375.09046-.278085.1388-.579404.1875-.875.0524-.31805.09375-.634029.09375-.96875v-2-68-2c0-3.324-2.676-6-6-6z" fill="url(#b)" opacity=".5"/><path d="m12 90c-3.324 0-6-2.676-6-6v-2-68-2c0-.334721.04135-.6507.09375-.96875.0487-.295596.09704-.596915.1875-.875.00988-.03038.020892-.0636.03125-.09375.098865-.287771.2348802-.547452.375-.8125.1445918-.273507.3156161-.535615.5-.78125s.3737765-.473472.59375-.6875c.439947-.428056.94291-.814526 1.5-1.09375.278545-.139612.5734731-.246947.875-.34375-.2562018.100222-.4867109.236272-.71875.375-.00741.0044-.023866-.0045-.03125 0-.031933.0193-.062293.04251-.09375.0625-.120395.0767-.2310226.163513-.34375.25-.1061728.0808-.2132809.161112-.3125.25-.1779299.161433-.3474596.345388-.5.53125-.1075789.130255-.2183939.265285-.3125.40625-.025089.03838-.038446.08587-.0625.125-.064763.103032-.1302275.204517-.1875.3125-.1010083.194706-.2056748.415701-.28125.625-.00796.02181-.023589.04055-.03125.0625-.0318251.09195-.0358045.186831-.0625.28125-.0303323.106618-.0703894.203031-.09375.3125-.0728786.341512-.125.698205-.125 1.0625v2 68 2c0 2.781848 2.2181517 5 5 5h2 68 2c2.781848 0 5-2.218152 5-5v-2-68-2c0-.364295-.05212-.720988-.125-1.0625-.04415-.206893-.08838-.397658-.15625-.59375-.0077-.02195-.0233-.04069-.03125-.0625-.06274-.173739-.138383-.367449-.21875-.53125-.04158-.0828-.07904-.169954-.125-.25-.0546-.09721-.126774-.18835-.1875-.28125-.09411-.140965-.204921-.275995-.3125-.40625-.143174-.17445-.303141-.346998-.46875-.5-.01117-.0102-.01998-.02115-.03125-.03125-.138386-.125556-.285091-.234436-.4375-.34375-.102571-.07315-.204318-.153364-.3125-.21875-.0074-.0045-.02384.0044-.03125 0-.232039-.138728-.462548-.274778-.71875-.375.301527.0968.596455.204138.875.34375.55709.279224 1.060053.665694 1.5 1.09375.219973.214028.409366.441865.59375.6875s.355408.507743.5.78125c.14012.265048.276135.524729.375.8125.01041.03078.02133.06274.03125.09375.09046.278085.1388.579404.1875.875.0524.31805.09375.634029.09375.96875v2 68 2c0 3.324-2.676 6-6 6z" fill="url(#e)" opacity=".2"/><rect height="66" rx="12" style="opacity:.1;stroke:#fefefe;stroke-width:.5;stroke-linecap:round;clip-path:url(#f);fill:url(#d);filter:url(#c)" width="66" x="15" y="15"/><g fill="#0063db"><path d="m17.986014 67.983419h-2.986014v-3.68282h3.053626v-.738455c0-4.04327 1.647311-5.451965 4.896741-5.451965.880115 0 1.854009.156493 2.372947.260994l-.248142 3.234487c-.338407-.130433-.973895-.208744-1.583098-.208744-1.037991 0-1.444243.834715-1.444243 2.165228v.738585h3.185334v3.682819h-3.185334v10.003291h-4.061817z"/><path d="m28.062168 57.925232h4.09213v20.061472h-4.09213z"/><path d="m35.994019 58.136108h4.092259v3.804891h-4.092259z"/><path d="m35.994019 64.234993h3.99327v13.751593h-3.99327z"/><path d="m53.005172 68.37977c-.757475-.516148-1.514951-.748742-2.502033-.748742-1.790408 0-3.167691 1.394536-3.167691 3.718932 0 2.143533 1.606888 3.537812 3.397297 3.537812.941231 0 1.882463-.232209 2.570927-.645538l.09182 3.460537c-1.033051.387656-2.272428.594192-3.374254.594192-3.948328 0-6.955188-2.582534-6.955188-7.024406 0-4.467801 3.00686-7.050207 6.955188-7.050207 1.239613 0 2.341203.232465 3.282435.74887l-.2985 3.40855z"/><path d="m69.738861 64.136009-5.073614 6.568029 5.461313 7.282672h-5.337038l-4.414238-6.662679h-.05176v6.662679h-4.05779v-19.863499h4.05779v12.064679h.05176l4.56937-6.051881z"/></g><path d="m80.883711 67.854684c-.477905-.154677-.955931-.154677-1.457453-.154677-2.007079 0-3.130309 1.575142-3.130309 4.209407v6.077296h-4.300897v-13.850701h3.918574v2.479203h.04785c.740537-1.704532 1.815915-2.789071 3.679806-2.789071.5014 0 1.027157.0774 1.457702.154806z" fill="#ff0084"/><path d="m48 40a16 16 0 1 1 -32 0 16 16 0 1 1 32 0z" fill="url(#l)" transform="matrix(0 .9375 -.9375 0 68.5 4)"/><path d="m48 40a16 16 0 1 1 -32 0 16 16 0 1 1 32 0z" fill="url(#k)" transform="matrix(0 .9375 -.9375 0 102.5 4)"/><path d="m31 19c-8.284271 0-15 6.715729-15 15s6.715729 15 15 15 15-6.715729 15-15-6.715729-15-15-15zm0 2c7.20379 0 13 5.79621 13 13s-5.79621 13-13 13-13-5.79621-13-13 5.79621-13 13-13z" opacity=".08"/><path d="m31 19c-8.284271 0-15 6.715729-15 15s6.715729 15 15 15 15-6.715729 15-15-6.715729-15-15-15zm0 .875c7.808009 0 14.125 6.316991 14.125 14.125s-6.316991 14.125-14.125 14.125-14.125-6.316991-14.125-14.125 6.316991-14.125 14.125-14.125z" opacity=".15"/><path d="m16.03125 34.5c-.00556.167863-.03125.330784-.03125.5 0 8.284271 6.715729 15 15 15s15-6.715729 15-15c0-.169216-.02569-.332137-.03125-.5-.266646 8.050182-6.853695 14.5-14.96875 14.5s-14.702104-6.449818-14.96875-14.5z" fill="#fefefe"/><path d="m50.03125 34.5c-.00556.167863-.03125.330784-.03125.5 0 8.284271 6.715729 15 15 15s15-6.715729 15-15c0-.169216-.02569-.332137-.03125-.5-.266646 8.050182-6.853695 14.5-14.96875 14.5s-14.702104-6.449818-14.96875-14.5z" fill="#fefefe"/><path d="m65 19c-8.284271 0-15 6.715729-15 15s6.715729 15 15 15 15-6.715729 15-15-6.715729-15-15-15zm0 2c7.20379 0 13 5.79621 13 13s-5.79621 13-13 13-13-5.79621-13-13 5.79621-13 13-13z" opacity=".08"/><path d="m65 19c-8.284271 0-15 6.715729-15 15s6.715729 15 15 15 15-6.715729 15-15-6.715729-15-15-15zm0 .875c7.808009 0 14.125 6.316991 14.125 14.125s-6.316991 14.125-14.125 14.125-14.125-6.316991-14.125-14.125 6.316991-14.125 14.125-14.125z" opacity=".15"/><path d="m31 19c-8.284271 0-15 6.715729-15 15 0 .169216.02569.332137.03125.5.266646-8.050182 6.853695-14.5 14.96875-14.5s14.702104 6.449818 14.96875 14.5c.00556-.167863.03125-.330784.03125-.5 0-8.284271-6.715729-15-15-15z" opacity=".3"/><path d="m65 19c-8.284271 0-15 6.715729-15 15 0 .169216.02569.332137.03125.5.266646-8.050182 6.853695-14.5 14.96875-14.5s14.702104 6.449818 14.96875 14.5c.00556-.167863.03125-.330784.03125-.5 0-8.284271-6.715729-15-15-15z" opacity=".3"/></svg>