<svg height="96" width="96" xmlns="http://www.w3.org/2000/svg" xmlns:xlink="http://www.w3.org/1999/xlink"><linearGradient id="a" gradientTransform="matrix(1.0059 0 0 .99417 100 0)" gradientUnits="userSpaceOnUse" x1="45.448" x2="45.448" y1="92.54" y2="7.0165"><stop offset="0"/><stop offset="1" stop-opacity=".58824"/></linearGradient><linearGradient id="b"><stop offset="0" stop-color="#333" stop-opacity="0"/><stop offset=".25"/><stop offset=".5"/><stop offset=".75"/><stop offset="1" stop-color="#333" stop-opacity="0"/></linearGradient><linearGradient id="c" gradientTransform="translate(0 1)" gradientUnits="userSpaceOnUse" x1="32.251" x2="32.251" xlink:href="#a" y1="90" y2="6"/><linearGradient id="d" gradientUnits="userSpaceOnUse" x1="48" x2="48" y1="72" y2="24"><stop offset="0" stop-color="#2b4777"/><stop offset="1" stop-color="#5672a0"/></linearGradient><linearGradient id="e" gradientTransform="matrix(1.25 0 0 .5 -12 -108)" gradientUnits="userSpaceOnUse" x1="16" x2="80" xlink:href="#b" y1="71" y2="71"/><linearGradient id="f" gradientUnits="userSpaceOnUse" x1="48" x2="80" xlink:href="#b" y1="-23.5" y2="-23.5"/><linearGradient id="g" gradientTransform="matrix(.875 0 0 .5 18 -12)" gradientUnits="userSpaceOnUse" x1="16" x2="80" xlink:href="#b" y1="71" y2="71"/><linearGradient id="h" gradientTransform="matrix(1.125 0 0 .5 -10 36)" gradientUnits="userSpaceOnUse" x1="16" x2="80" xlink:href="#b" y1="71" y2="71"/><radialGradient id="i" cx="48" cy="90.172" gradientTransform="matrix(1.1573 0 0 .99591 -7.551 .19713)" gradientUnits="userSpaceOnUse" r="42" stop-color="#fff"><stop offset="0" stop-color="#fefefe"/><stop offset="1" stop-color="#fefefe" stop-opacity="0"/></radialGradient><linearGradient id="j" gradientUnits="userSpaceOnUse" stop-color="#fff" x1="36.357" x2="36.357" y1="6" y2="63.893"><stop offset="0" stop-color="#fefefe"/><stop offset="1" stop-opacity="0"/></linearGradient><linearGradient id="k" gradientUnits="userSpaceOnUse" x1="48" x2="48" y1="90" y2="5.9877"><stop offset="0" stop-color="#ebebeb"/><stop offset="1" stop-color="#fafafa"/></linearGradient><linearGradient id="l" gradientTransform="matrix(1.0238 0 0 1.0119 -1.1429 .929)" gradientUnits="userSpaceOnUse" x1="32.251" x2="32.251" xlink:href="#a" y1="90" y2="5.9996"/><linearGradient id="m" gradientTransform="matrix(1.0238 0 0 -1.0119 -1.1429 98.071)" gradientUnits="userSpaceOnUse" x1="32.251" x2="32.251" xlink:href="#a" y1="6.1317" y2="90.239"/><g fill="url(#m)"><path d="m12 95.031c-5.5111 0-10.031-4.52-10.031-10.031v-71c0-5.5111 4.5202-10.031 10.031-10.031h72c5.5111 0 10.031 4.5202 10.031 10.031v71c0 5.5111-4.5202 10.031-10.031 10.031z" opacity=".08"/><path d="m12 94.031c-4.9716 0-9.0312-4.0596-9.0312-9.0312v-71c0-4.9718 4.0596-9.0314 9.0312-9.0314h72c4.9716 0 9.0312 4.0596 9.0312 9.0312v71c0 4.9716-4.0596 9.0312-9.0312 9.0312h-72z" opacity=".1"/><path d="m12 93c-4.4091 0-8-3.591-8-8v-71c0-4.4091 3.5909-8 8-8h72c4.4091 0 8 3.5909 8 8v71c0 4.4091-3.5909 8-8 8z" opacity=".2"/></g><rect fill="url(#l)" height="85" opacity=".3" rx="7" width="86" x="5" y="7"/><rect fill="url(#c)" height="84" opacity=".45" rx="6" width="84" x="6" y="7"/><rect fill="url(#k)" height="84" rx="6" width="84" x="6" y="6"/><path d="m12 6c-3.324 0-6 2.676-6 6v72c0 .33472.04135.6507.09375.96875.0487.2956.09704.59692.1875.875.0099.03038.02089.0636.03125.09375.09886.28777.23488.54745.375.8125.14459.27351.31562.53562.5.78125.18438.24564.37378.47347.59375.6875.43995.42806.94291.81453 1.5 1.0938.27854.13961.57347.24695.875.34375-.2562-.10022-.48671-.23627-.71875-.375-.0074-.0044-.02387.0045-.03125 0-.0319-.019-.0622-.042-.0937-.062-.1204-.077-.231-.164-.3437-.25-.1062-.081-.2133-.161-.3126-.25-.1778-.162-.3473-.346-.4999-.531-.1075-.131-.2183-.266-.3124-.407-.0251-.038-.0385-.086-.0626-.125-.0647-.103-.1302-.204-.1874-.312-.1011-.195-.2057-.416-.2813-.625-.008-.022-.0236-.041-.0313-.063-.0318-.092-.0358-.187-.0624-.281-.0304-.107-.0704-.203-.0938-.313-.0729-.341-.125-.698-.125-1.062v-72c0-2.782 2.2182-5 5-5h72c2.7818 0 5 2.2182 5 5v72c0 .3643-.05212.72099-.125 1.0625-.04415.20689-.08838.39766-.15625.59375-.0077.02195-.0233.04069-.03125.0625-.06274.17374-.13838.36745-.21875.53125-.04158.0828-.07904.16995-.125.25-.0546.09721-.12677.18835-.1875.28125-.09411.14096-.20492.276-.3125.40625-.14317.17445-.30314.347-.46875.5-.01117.0102-.01998.02115-.03125.03125-.13839.12556-.28509.23444-.4375.34375-.10257.07315-.20432.15336-.3125.21875-.0074.0045-.02384-.0044-.03125 0-.23204.13873-.46255.27478-.71875.375.30153-.0968.59646-.20414.875-.34375.55709-.27922 1.0601-.66569 1.5-1.0938.21997-.21403.40937-.44186.59375-.6875s.35541-.50774.5-.78125c.14012-.26505.27614-.52473.375-.8125.01041-.03078.02133-.06274.03125-.09375.09046-.27808.1388-.5794.1875-.875.053-.318.094-.634.094-.969v-72c0-3.324-2.676-6-6-6h-72z" fill="url(#j)" opacity=".5"/><path d="m12 90c-3.324 0-6-2.676-6-6v-72c0-.33472.04135-.6507.09375-.96875.0487-.2956.09704-.59692.1875-.875.0099-.03.0209-.063.0313-.094.0989-.2873.2349-.547.375-.812.1446-.2735.3156-.5356.5-.7812.1844-.2457.3738-.4735.5937-.6876.44-.428.943-.8145 1.5-1.0937.2786-.1396.5735-.2469.8748-.3437-.256.1002-.4865.2362-.7185.375-.00741.0044-.023866-.0045-.03125 0-.031933.0193-.062293.04251-.09375.0625-.1204.0767-.23102.16351-.34375.25-.10617.0808-.21328.16111-.3125.25-.1779.1614-.3474.3453-.5.5312-.1075.1303-.2183.2653-.3124.4063-.0251.0383-.0385.0858-.0626.125-.0647.103-.1302.2045-.1874.3124-.1011.1948-.2057.4158-.2813.625-.008.0219-.0236.0406-.0313.0626-.0318.0919-.0358.1868-.0624.2812-.0304.1066-.0704.203-.0938.3125-.0729.3415-.125.6985-.125 1.0625v72c0 2.7818 2.2182 5 5 5h72c2.7818 0 5-2.2182 5-5v-72c0-.364-.052-.721-.125-1.0625-.044-.2069-.088-.3977-.156-.5937-.008-.022-.024-.0407-.031-.0626-.063-.1737-.139-.3674-.219-.5312-.042-.0828-.079-.17-.125-.25-.055-.0972-.127-.1884-.188-.2812-.094-.141-.205-.276-.312-.4063-.143-.1745-.303-.347-.469-.5-.011-.0102-.02-.0211-.031-.0313-.139-.1255-.285-.2344-.438-.3437-.102-.0731-.204-.1534-.312-.2187-.0074-.0045-.02384.0044-.03125 0-.23204-.13873-.46255-.27478-.71875-.375.30153.0968.59646.20414.875.34375.55709.27922 1.0601.66569 1.5 1.0938.21997.21403.40937.44186.59375.6875s.35541.50774.5.78125c.14012.26505.27614.52473.375.8125.01041.03078.02133.06274.03125.09375.09046.27808.1388.5794.1875.875.053.318.094.634.094.969v72c0 3.324-2.676 6-6 6h-72z" fill="url(#i)" opacity=".4"/><path d="m8 71h72v1h-72z" fill="url(#h)" opacity=".2"/><path d="m32 23h56v1h-56z" fill="url(#g)" opacity=".12"/><path d="m48-24h32v1h-32z" fill="url(#f)" opacity=".15" transform="rotate(90)"/><path d="m8-73h80v1h-80z" fill="url(#e)" opacity=".15" transform="rotate(90)"/><path d="m40.36707 54.607696h17.617343l-4.372187-22.825389zm-16.942225 17.392304.642968-3.407734h4.211445l25.783046-44.589881h5.400937l8.487187 44.589881h4.693672l-.642969 3.407734h-17.456601l.642969-3.407734h5.33664l-1.961054-10.544687h-20.189218l-6.076054 10.544687h5.272343l-.642968 3.407734z" fill="url(#d)"/></svg>