<svg height="96" width="96" xmlns="http://www.w3.org/2000/svg" xmlns:xlink="http://www.w3.org/1999/xlink"><linearGradient id="a" gradientTransform="matrix(1.0058652 0 0 .994169 100 0)" gradientUnits="userSpaceOnUse" x1="45.447727" x2="45.447727" y1="92.539597" y2="7.01654"><stop offset="0"/><stop offset="1" stop-opacity=".588235"/></linearGradient><linearGradient id="b" gradientTransform="matrix(1.0238095 0 0 1.0119048 -1.142857 -98.071429)" gradientUnits="userSpaceOnUse" x1="32.251034" x2="32.251034" xlink:href="#a" y1="6.131708" y2="90.238609"/><linearGradient id="c" gradientTransform="translate(0 -97)" gradientUnits="userSpaceOnUse" x1="32.251034" x2="32.251034" xlink:href="#a" y1="6.131708" y2="90.238609"/><linearGradient id="d"><stop offset="0" stop-color="#fefefe"/><stop offset="1" stop-color="#fefefe" stop-opacity="0"/></linearGradient><filter id="e" color-interpolation-filters="sRGB"><feGaussianBlur stdDeviation="1.9988837"/></filter><radialGradient id="f" cx="48" cy="48" gradientTransform="matrix(1.7161502 0 .00000001 1.7387599 -34.547573 -35.460475)" gradientUnits="userSpaceOnUse" r="42"><stop offset="0" stop-color="#fefefe"/><stop offset=".30223531" stop-color="#fefefe" stop-opacity=".878542"/><stop offset="1" stop-color="#cacaca" stop-opacity="0"/></radialGradient><radialGradient id="g" cx="48" cy="90.171875" gradientTransform="matrix(1.1573129 0 0 .99590774 -7.723381 .197132)" gradientUnits="userSpaceOnUse" r="42" xlink:href="#d"/><linearGradient id="h" gradientUnits="userSpaceOnUse" x1="36.184783" x2="36.184783" xlink:href="#d" y1="6" y2="63.893143"/><radialGradient id="i" cx="47.82764" cy="48" gradientUnits="userSpaceOnUse" r="42"><stop offset="0" stop-color="#f6f6f6"/><stop offset="1" stop-color="#9f9f9f"/></radialGradient><g><g fill="url(#b)"><path d="m12-95.03125c-5.5110903 0-10.03125 4.52016-10.03125 10.03125v71c0 5.5110902 4.5201598 10.03125 10.03125 10.03125h72c5.51109 0 10.03125-4.5201597 10.03125-10.03125v-71c0-5.51109-4.52016-10.03125-10.03125-10.03125z" opacity=".08" transform="scale(1 -1)"/><path d="m12-94.03125c-4.971633 0-9.03125 4.059617-9.03125 9.03125v71c0 4.9716329 4.0596171 9.03125 9.03125 9.03125h72c4.971633 0 9.03125-4.059617 9.03125-9.03125v-71c0-4.971633-4.059617-9.03125-9.03125-9.03125z" opacity=".1" transform="scale(1 -1)"/><path d="m12-93c-4.4091333 0-8 3.590867-8 8v71c0 4.4091333 3.5908667 8 8 8h72c4.409133 0 8-3.5908667 8-8v-71c0-4.409133-3.590867-8-8-8z" opacity=".2" transform="scale(1 -1)"/><rect height="85" opacity=".3" rx="7" transform="scale(1 -1)" width="86" x="5" y="-92"/></g><rect fill="url(#c)" height="84" opacity=".45" rx="6" transform="scale(1 -1)" width="84" x="6" y="-91"/></g><text x="150.16377" y="275.7851"><tspan x="150.16377" y="275.7851"/></text><text x="178.03636" y="282.47272"><tspan x="178.03636" y="282.47272"/></text><text x="150.16377" y="275.7851"><tspan x="150.16377" y="275.7851"/></text><text x="178.03636" y="282.47272"><tspan x="178.03636" y="282.47272"/></text><rect fill="url(#i)" height="84" rx="6" width="84" x="5.82764" y="6"/><path d="m20.70264 6 25.78125 40.65625-40.6562499-26.15625v18.5l40.2187499 9-40.2187499 8.75v18.375l40.6562499-25.78125-26.15625 40.65625h18.5l9-40.21875 8.75 40.21875h18.375l-25.78125-40.65625 40.65625 26.15625v-18.5l-40.21875-9 40.21875-8.75v-18.375l-40.65625 25.78125 26.15625-40.65625h-18.5l-9 40.21875-8.75-40.21875z" fill="url(#f)" opacity=".45"/><g transform="translate(-.17236)"><g transform="matrix(.90427081 0 0 .90427081 -.640267 16.005585)"><text font-family="Times New Roman" font-size="60.297741" font-weight="500" letter-spacing="0" word-spacing="0" x="33.876759" y="63.561573"><tspan x="33.876759" y="63.561573">A</tspan></text><path d="m34.625 74.1875c-2.488447.251206-4.4375 2.349404-4.4375 4.90625v10.90625h35.625v-10.90625c0-2.727303-2.210197-4.90625-4.9375-4.90625h-25.75c-.170456 0-.334104-.01675-.5 0zm-27.4375 1.59375 17.3125 14.21875h3.875v-9.90625c0-1.75537.808438-3.32207 2.09375-4.3125zm58.34375 0c1.285312.99043 2.09375 2.55713 2.09375 4.3125v9.90625h3.875l17.3125-14.21875z" transform="matrix(1.1058634 0 0 1.1058634 .708047 -17.699991)"/></g><g transform="matrix(.40838561 -.50140588 .50140588 .40838561 -110.22849 69.975752)"><path d="m218.4763 166.20264h9.6v45.68684h-9.6z"/><path d="m229.77113 148.1865h-24.89016v16.31286h38.46661v-7.54187c-5.08729-.34198-12.21569 1.92403-13.57645-8.77099z"/></g></g><path d="m11.82764 6c-3.3239999 0-5.9999999 2.676-5.9999999 6v2 68 2c0 .334721.04135.6507.09375.96875.0487.295596.09704.596915.1875.875.00988.03038.020892.0636.03125.09375.098865.287771.2348802.547452.375.8125.1445918.273507.3156161.535615.5.78125s.3737765.473472.59375.6875c.439947.428056.94291.814526 1.5 1.09375.278545.139612.5734731.246947.875.34375-.2562018-.100222-.4867109-.236272-.71875-.375-.00741-.0044-.023866.0045-.03125 0-.031933-.0193-.062293-.04251-.09375-.0625-.120395-.0767-.2310226-.163513-.34375-.25-.1061728-.0808-.2132809-.161112-.3125-.25-.1779299-.161433-.3474596-.345388-.5-.53125-.1075789-.130255-.2183939-.265285-.3125-.40625-.025089-.03838-.038446-.08587-.0625-.125-.064763-.103032-.1302275-.204517-.1875-.3125-.1010083-.194706-.2056748-.415701-.28125-.625-.00796-.02181-.023589-.04055-.03125-.0625-.031825-.09195-.035805-.186831-.0625-.28125-.030332-.106618-.070389-.203031-.09375-.3125-.072879-.341512-.125-.698205-.125-1.0625v-2-68-2c0-2.781848 2.2181517-5 4.9999999-5h2 68 2c2.781848 0 5 2.218152 5 5v2 68 2c0 .364295-.05212.720988-.125 1.0625-.04415.206893-.08838.397658-.15625.59375-.0077.02195-.0233.04069-.03125.0625-.06274.173739-.138383.367449-.21875.53125-.04158.0828-.07904.169954-.125.25-.0546.09721-.126774.18835-.1875.28125-.09411.140965-.204921.275995-.3125.40625-.143174.17445-.303141.346998-.46875.5-.01117.0102-.01998.02115-.03125.03125-.138386.125556-.285091.234436-.4375.34375-.102571.07315-.204318.153364-.3125.21875-.0074.0045-.02384-.0044-.03125 0-.232039.138728-.462548.274778-.71875.375.301527-.0968.596455-.204138.875-.34375.55709-.279224 1.060053-.665694 1.5-1.09375.219973-.214028.409366-.441865.59375-.6875s.355408-.507743.5-.78125c.14012-.265048.276135-.524729.375-.8125.01041-.03078.02133-.06274.03125-.09375.09046-.278085.1388-.579404.1875-.875.0524-.31805.09375-.634029.09375-.96875v-2-68-2c0-3.324-2.676-6-6-6z" fill="url(#h)" opacity=".5"/><path d="m11.82764 90c-3.3239999 0-5.9999999-2.676-5.9999999-6v-2-68-2c0-.334721.04135-.6507.09375-.96875.0487-.295596.09704-.596915.1875-.875.00988-.03038.020892-.0636.03125-.09375.098865-.287771.2348802-.547452.375-.8125.1445918-.273507.3156161-.535615.5-.78125s.3737765-.473472.59375-.6875c.439947-.428056.94291-.814526 1.5-1.09375.278545-.139612.5734731-.246947.875-.34375-.2562018.100222-.4867109.236272-.71875.375-.00741.0044-.023866-.0045-.03125 0-.031933.0193-.062293.04251-.09375.0625-.120395.0767-.2310226.163513-.34375.25-.1061728.0808-.2132809.161112-.3125.25-.1779299.161433-.3474596.345388-.5.53125-.1075789.130255-.2183939.265285-.3125.40625-.025089.03838-.038446.08587-.0625.125-.064763.103032-.1302275.204517-.1875.3125-.1010083.194706-.2056748.415701-.28125.625-.00796.02181-.023589.04055-.03125.0625-.031825.09195-.035805.186831-.0625.28125-.030332.106618-.070389.203031-.09375.3125-.072879.341512-.125.698205-.125 1.0625v2 68 2c0 2.781848 2.2181517 5 4.9999999 5h2 68 2c2.781848 0 5-2.218152 5-5v-2-68-2c0-.364295-.05212-.720988-.125-1.0625-.04415-.206893-.08838-.397658-.15625-.59375-.0077-.02195-.0233-.04069-.03125-.0625-.06274-.173739-.138383-.367449-.21875-.53125-.04158-.0828-.07904-.169954-.125-.25-.0546-.09721-.126774-.18835-.1875-.28125-.09411-.140965-.204921-.275995-.3125-.40625-.143174-.17445-.303141-.346998-.46875-.5-.01117-.0102-.01998-.02115-.03125-.03125-.138386-.125556-.285091-.234436-.4375-.34375-.102571-.07315-.204318-.153364-.3125-.21875-.0074-.0045-.02384.0044-.03125 0-.232039-.138728-.462548-.274778-.71875-.375.301527.0968.596455.204138.875.34375.55709.279224 1.060053.665694 1.5 1.09375.219973.214028.409366.441865.59375.6875s.355408.507743.5.78125c.14012.265048.276135.524729.375.8125.01041.03078.02133.06274.03125.09375.09046.278085.1388.579404.1875.875.0524.31805.09375.634029.09375.96875v2 68 2c0 3.324-2.676 6-6 6z" fill="url(#g)" opacity=".2"/><g fill="#969696" filter="url(#e)" opacity=".4" transform="translate(-.17236)"><g transform="matrix(.90427081 0 0 .90427081 -.640267 16.005585)"><text font-family="Times New Roman" font-size="60.297741" font-weight="500" letter-spacing="0" word-spacing="0" x="33.876759" y="63.561573"><tspan x="33.876759" y="63.561573">A</tspan></text><path d="m34.625 74.1875c-2.488447.251206-4.4375 2.349404-4.4375 4.90625v10.90625h35.625v-10.90625c0-2.727303-2.210197-4.90625-4.9375-4.90625h-25.75c-.170456 0-.334104-.01675-.5 0zm-27.4375 1.59375 17.3125 14.21875h3.875v-9.90625c0-1.75537.808438-3.32207 2.09375-4.3125zm58.34375 0c1.285312.99043 2.09375 2.55713 2.09375 4.3125v9.90625h3.875l17.3125-14.21875z" transform="matrix(1.1058634 0 0 1.1058634 .708047 -17.699991)"/></g><g transform="matrix(.40838561 -.50140588 .50140588 .40838561 -110.22849 69.975752)"><path d="m218.4763 166.20264h9.6v45.68684h-9.6z"/><path d="m229.77113 148.1865h-24.89016v16.31286h38.46661v-7.54187c-5.08729-.34198-12.21569 1.92403-13.57645-8.77099z"/></g></g></svg>