<svg height="96" width="96" xmlns="http://www.w3.org/2000/svg" xmlns:xlink="http://www.w3.org/1999/xlink"><linearGradient id="a" gradientTransform="matrix(1.0058652 0 0 .994169 100 0)" gradientUnits="userSpaceOnUse" x1="45.447727" x2="45.447727" y1="92.539597" y2="7.01654"><stop offset="0"/><stop offset="1" stop-opacity=".588235"/></linearGradient><linearGradient id="b"><stop offset="0" stop-color="#fefefe"/><stop offset="1" stop-color="#fefefe" stop-opacity="0"/></linearGradient><linearGradient id="c" gradientTransform="translate(0 -97)" gradientUnits="userSpaceOnUse" x1="32.251034" x2="32.251034" xlink:href="#a" y1="6.131708" y2="90.238609"/><linearGradient id="d" gradientTransform="matrix(1.0238095 0 0 1.0119048 -1.142857 -98.071429)" gradientUnits="userSpaceOnUse" x1="32.251034" x2="32.251034" xlink:href="#a" y1="6.131708" y2="90.238609"/><radialGradient id="e" cx="48" cy="90.171875" gradientTransform="matrix(1.1573129 0 0 .99590774 -7.551021 .197132)" gradientUnits="userSpaceOnUse" r="42" xlink:href="#b"/><linearGradient id="f" gradientUnits="userSpaceOnUse" x1="36.357143" x2="36.357143" xlink:href="#b" y1="6" y2="63.893143"/><linearGradient id="g" gradientUnits="userSpaceOnUse" x1="48" x2="48" y1="-6" y2="-90.012283"><stop offset="0" stop-color="#efefef"/><stop offset="1" stop-color="#c0c0c0"/></linearGradient><linearGradient id="h" gradientUnits="userSpaceOnUse" x1="20.490465" x2="84.245369" y1="33.621021" y2="33.621021"><stop offset="0" stop-color="#be0000"/><stop offset="1" stop-color="#810000"/></linearGradient><g fill="url(#d)"><path d="m12-95.03125c-5.5110903 0-10.03125 4.52016-10.03125 10.03125v71c0 5.5110902 4.5201598 10.03125 10.03125 10.03125h72c5.51109 0 10.03125-4.5201597 10.03125-10.03125v-71c0-5.51109-4.52016-10.03125-10.03125-10.03125z" opacity=".08" transform="scale(1 -1)"/><path d="m12-94.03125c-4.971633 0-9.03125 4.059617-9.03125 9.03125v71c0 4.9716329 4.0596171 9.03125 9.03125 9.03125h72c4.971633 0 9.03125-4.059617 9.03125-9.03125v-71c0-4.971633-4.059617-9.03125-9.03125-9.03125z" opacity=".1" transform="scale(1 -1)"/><path d="m12-93c-4.4091333 0-8 3.590867-8 8v71c0 4.4091333 3.5908667 8 8 8h72c4.409133 0 8-3.5908667 8-8v-71c0-4.409133-3.590867-8-8-8z" opacity=".2" transform="scale(1 -1)"/><rect height="85" opacity=".3" rx="7" transform="scale(1 -1)" width="86" x="5" y="-92"/></g><rect fill="url(#c)" height="84" opacity=".45" rx="6" transform="scale(1 -1)" width="84" x="6" y="-91"/><rect fill="url(#g)" height="84" rx="6" transform="scale(1 -1)" width="84" x="6" y="-90"/><path d="m12 6c-3.324 0-6 2.676-6 6v2 68 2c0 .334721.04135.6507.09375.96875.0487.295596.09704.596915.1875.875.00988.03038.020892.0636.03125.09375.098865.287771.2348802.547452.375.8125.1445918.273507.3156161.535615.5.78125s.3737765.473472.59375.6875c.439947.428056.94291.814526 1.5 1.09375.278545.139612.5734731.246947.875.34375-.2562018-.100222-.4867109-.236272-.71875-.375-.00741-.0044-.023866.0045-.03125 0-.031933-.0193-.062293-.04251-.09375-.0625-.120395-.0767-.2310226-.163513-.34375-.25-.1061728-.0808-.2132809-.161112-.3125-.25-.1779299-.161433-.3474596-.345388-.5-.53125-.1075789-.130255-.2183939-.265285-.3125-.40625-.025089-.03838-.038446-.08587-.0625-.125-.064763-.103032-.1302275-.204517-.1875-.3125-.1010083-.194706-.2056748-.415701-.28125-.625-.00796-.02181-.023589-.04055-.03125-.0625-.0318251-.09195-.0358045-.186831-.0625-.28125-.0303323-.106618-.0703894-.203031-.09375-.3125-.0728786-.341512-.125-.698205-.125-1.0625v-2-68-2c0-2.781848 2.2181517-5 5-5h2 68 2c2.781848 0 5 2.218152 5 5v2 68 2c0 .364295-.05212.720988-.125 1.0625-.04415.206893-.08838.397658-.15625.59375-.0077.02195-.0233.04069-.03125.0625-.06274.173739-.138383.367449-.21875.53125-.04158.0828-.07904.169954-.125.25-.0546.09721-.126774.18835-.1875.28125-.09411.140965-.204921.275995-.3125.40625-.143174.17445-.303141.346998-.46875.5-.01117.0102-.01998.02115-.03125.03125-.138386.125556-.285091.234436-.4375.34375-.102571.07315-.204318.153364-.3125.21875-.0074.0045-.02384-.0044-.03125 0-.232039.138728-.462548.274778-.71875.375.301527-.0968.596455-.204138.875-.34375.55709-.279224 1.060053-.665694 1.5-1.09375.219973-.214028.409366-.441865.59375-.6875s.355408-.507743.5-.78125c.14012-.265048.276135-.524729.375-.8125.01041-.03078.02133-.06274.03125-.09375.09046-.278085.1388-.579404.1875-.875.0524-.31805.09375-.634029.09375-.96875v-2-68-2c0-3.324-2.676-6-6-6z" fill="url(#f)" opacity=".4"/><path d="m12 90c-3.324 0-6-2.676-6-6v-2-68-2c0-.334721.04135-.6507.09375-.96875.0487-.295596.09704-.596915.1875-.875.00988-.03038.020892-.0636.03125-.09375.098865-.287771.2348802-.547452.375-.8125.1445918-.273507.3156161-.535615.5-.78125s.3737765-.473472.59375-.6875c.439947-.428056.94291-.814526 1.5-1.09375.278545-.139612.5734731-.246947.875-.34375-.2562018.100222-.4867109.236272-.71875.375-.00741.0044-.023866-.0045-.03125 0-.031933.0193-.062293.04251-.09375.0625-.120395.0767-.2310226.163513-.34375.25-.1061728.0808-.2132809.161112-.3125.25-.1779299.161433-.3474596.345388-.5.53125-.1075789.130255-.2183939.265285-.3125.40625-.025089.03838-.038446.08587-.0625.125-.064763.103032-.1302275.204517-.1875.3125-.1010083.194706-.2056748.415701-.28125.625-.00796.02181-.023589.04055-.03125.0625-.0318251.09195-.0358045.186831-.0625.28125-.0303323.106618-.0703894.203031-.09375.3125-.0728786.341512-.125.698205-.125 1.0625v2 68 2c0 2.781848 2.2181517 5 5 5h2 68 2c2.781848 0 5-2.218152 5-5v-2-68-2c0-.364295-.05212-.720988-.125-1.0625-.04415-.206893-.08838-.397658-.15625-.59375-.0077-.02195-.0233-.04069-.03125-.0625-.06274-.173739-.138383-.367449-.21875-.53125-.04158-.0828-.07904-.169954-.125-.25-.0546-.09721-.126774-.18835-.1875-.28125-.09411-.140965-.204921-.275995-.3125-.40625-.143174-.17445-.303141-.346998-.46875-.5-.01117-.0102-.01998-.02115-.03125-.03125-.138386-.125556-.285091-.234436-.4375-.34375-.102571-.07315-.204318-.153364-.3125-.21875-.0074-.0045-.02384.0044-.03125 0-.232039-.138728-.462548-.274778-.71875-.375.301527.0968.596455.204138.875.34375.55709.279224 1.060053.665694 1.5 1.09375.219973.214028.409366.441865.59375.6875s.355408.507743.5.78125c.14012.265048.276135.524729.375.8125.01041.03078.02133.06274.03125.09375.09046.278085.1388.579404.1875.875.0524.31805.09375.634029.09375.96875v2 68 2c0 3.324-2.676 6-6 6z" fill="url(#e)" opacity=".2"/><g opacity=".65" stroke="#000" stroke-linecap="round" stroke-linejoin="round" transform="translate(-1 1)"><path d="m25 14.9375-1.25 4.65625c-3.913875-1.053708-6.712846-1.703435-6.78125-1.71875l.59375 12.25c.860849.216151 1.9786.513737 3.09375.8125l-9.25 33.9375 59.59375 16.1875 1.1875-4.40625 10.8125 3.40625s.209351-6.219821.09375-13.5c-.115605-7.280178-.302783-15.141604-2.03125-20.9375-.070418-.236125-.13902-.463158-.21875-.6875l3.75-13.8125z" opacity=".08" stroke-width="10"/><path d="m25 14.9375-1.25 4.65625c-3.913875-1.053708-6.712846-1.703435-6.78125-1.71875l.59375 12.25c.860849.216151 1.9786.513737 3.09375.8125l-9.25 33.9375 59.59375 16.1875 1.1875-4.40625 10.8125 3.40625s.209351-6.219821.09375-13.5c-.115605-7.280178-.302783-15.141604-2.03125-20.9375-.070418-.236125-.13902-.463158-.21875-.6875l3.75-13.8125z" opacity=".1" stroke-width="8"/><path d="m25 14.9375-1.25 4.65625c-3.913875-1.053708-6.712846-1.703435-6.78125-1.71875l.59375 12.25c.860849.216151 1.9786.513737 3.09375.8125l-9.25 33.9375 59.59375 16.1875 1.1875-4.40625 10.8125 3.40625s.209351-6.219821.09375-13.5c-.115605-7.280178-.302783-15.141604-2.03125-20.9375-.070418-.236125-.13902-.463158-.21875-.6875l3.75-13.8125z" opacity=".2" stroke-width="6"/><path d="m25 14.9375-1.25 4.65625c-3.913875-1.053708-6.712846-1.703435-6.78125-1.71875l.59375 12.25c.860849.216151 1.9786.513737 3.09375.8125l-9.25 33.9375 59.59375 16.1875 1.1875-4.40625 10.8125 3.40625s.209351-6.219821.09375-13.5c-.115605-7.280178-.302783-15.141604-2.03125-20.9375-.070418-.236125-.13902-.463158-.21875-.6875l3.75-13.8125z" opacity=".3" stroke-width="4"/></g><path d="m21.490465 7.749094h61.754906v51.743858h-61.754906z" fill="url(#h)" stroke="#000" stroke-linecap="round" stroke-linejoin="round" stroke-width="2" transform="matrix(.96496086 .26239387 -.26239387 .96496086 6.288959 1.816008)"/><g stroke="#000" stroke-width="1.699502" transform="matrix(1.1226538 .35290642 -.35290642 1.1226538 -231.942881 -196.645152)"><path d="m10.6875 16.0625.59375 12.25c2.174599.546022 5.277119 1.366621 8.71875 2.40625l.40625 27.53125 11.8125 3.71875-.40625-27.09375c1.740425.728722 3.383294 1.470848 4.75 2.21875 6.419523 2.971546 5.159547 10.926078 4.96875 16.46875-.108603 2.814664-.319505 5.016943-.46875 6.625l11.46875 3.59375s.571596-4.378962.78125-9.8125.254881-11.804886-1.40625-17.375c-1.589652-5.330397-5.615918-7.567309-9.71875-9.8125s-8.86097-4.056252-13.5-5.625c-1.159756-.392202-2.308527-.770847-3.4375-1.125-7.838276-2.459029-14.453948-3.944446-14.5625-3.96875z" fill="#eeeeec" stroke-width="2" transform="matrix(.81064211 -.25482549 .25482549 .81064211 243.69372 100.17343)"/><path d="m291.87926 109.99862c2.03163.92803 3.98657 2.37488 5.71875 4.9375 1.22059 1.80576 2.19627 3.69517 3 5.59375.91424.11455 1.77242.24926 2.5625.40625 6.82135 1.15131 8.08517 10.25226 9.78125 15.3125 1.06165 3.19885 1.85365 5.85571 2.4375 7.8125h10.4375s-1.42611-5.09659-3.375-10.96875-4.09064-12.21081-6.96875-16.46875c-2.64696-3.91596-6.47694-4.72546-10.375-5.5s-8.21465-1.03545-12.375-1.125c-.28652-.006-.55911.004-.84375 0z" fill="#f4dbbe" stroke-width="1.699502"/></g></svg>