<svg height="96" width="96" xmlns="http://www.w3.org/2000/svg" xmlns:xlink="http://www.w3.org/1999/xlink"><linearGradient id="a"><stop offset="0" stop-color="#fefefe"/><stop offset="1" stop-color="#fefefe" stop-opacity="0"/></linearGradient><linearGradient id="b" gradientUnits="userSpaceOnUse" x1="36.357143" x2="36.357143" xlink:href="#a" y1="6" y2="63.893143"/><radialGradient id="c" cx="48" cy="90.171875" gradientTransform="matrix(1.1573129 0 0 .99590774 -7.551021 .197132)" gradientUnits="userSpaceOnUse" r="42" xlink:href="#a"/><linearGradient id="d" gradientUnits="userSpaceOnUse" x1="74.847458" x2="27.661016" y1="86.745766" y2="15.343649"><stop offset="0" stop-color="#58bd5d"/><stop offset="1" stop-color="#6cce84"/></linearGradient><linearGradient id="e" gradientTransform="matrix(1.0058652 0 0 .994169 100 0)" gradientUnits="userSpaceOnUse" x1="45.447727" x2="45.447727" y1="92.539597" y2="7.01654"><stop offset="0"/><stop offset="1" stop-opacity=".588235"/></linearGradient><linearGradient id="f" gradientTransform="matrix(1.0238095 0 0 1.0119048 -1.142857 -98.071429)" gradientUnits="userSpaceOnUse" x1="32.251034" x2="32.251034" xlink:href="#e" y1="6.131708" y2="90.238609"/><linearGradient id="g" gradientTransform="translate(0 -97)" gradientUnits="userSpaceOnUse" x1="32.251034" x2="32.251034" xlink:href="#e" y1="6.131708" y2="90.238609"/><radialGradient id="h" cx="48" cy="48" gradientTransform="matrix(1.1428572 -.00000004 .00000004 1.1428571 -6.857147 -6.857141)" gradientUnits="userSpaceOnUse" r="42"><stop offset="0" stop-color="#effac2"/><stop offset=".5" stop-color="#effac2" stop-opacity=".793893"/><stop offset="1" stop-color="#effac2" stop-opacity="0"/></radialGradient><g fill="url(#f)"><path d="m12-95.03125c-5.5110903 0-10.03125 4.52016-10.03125 10.03125v71c0 5.5110902 4.5201598 10.03125 10.03125 10.03125h72c5.51109 0 10.03125-4.5201597 10.03125-10.03125v-71c0-5.51109-4.52016-10.03125-10.03125-10.03125z" opacity=".08" transform="scale(1 -1)"/><path d="m12-94.03125c-4.971633 0-9.03125 4.059617-9.03125 9.03125v71c0 4.9716329 4.0596171 9.03125 9.03125 9.03125h72c4.971633 0 9.03125-4.059617 9.03125-9.03125v-71c0-4.971633-4.059617-9.03125-9.03125-9.03125z" opacity=".1" transform="scale(1 -1)"/><path d="m12-93c-4.4091333 0-8 3.590867-8 8v71c0 4.4091333 3.5908667 8 8 8h72c4.409133 0 8-3.5908667 8-8v-71c0-4.409133-3.590867-8-8-8z" opacity=".2" transform="scale(1 -1)"/><rect height="85" opacity=".3" rx="7" transform="scale(1 -1)" width="86" x="5" y="-92"/></g><rect fill="url(#g)" height="84" opacity=".45" rx="6" transform="scale(1 -1)" width="84" x="6" y="-91"/><rect fill="url(#d)" height="84" rx="6" width="84" x="6" y="6"/><path d="m12 6c-3.324 0-6 2.676-6 6v2 68 2c0 .334721.04135.6507.09375.96875.0487.295596.09704.596915.1875.875.00988.03038.020892.0636.03125.09375.098865.287771.2348802.547452.375.8125.1445918.273507.3156161.535615.5.78125s.3737765.473472.59375.6875c.439947.428056.94291.814526 1.5 1.09375.278545.139612.5734731.246947.875.34375-.2562018-.100222-.4867109-.236272-.71875-.375-.00741-.0044-.023866.0045-.03125 0-.031933-.0193-.062293-.04251-.09375-.0625-.120395-.0767-.2310226-.163513-.34375-.25-.1061728-.0808-.2132809-.161112-.3125-.25-.1779299-.161433-.3474596-.345388-.5-.53125-.1075789-.130255-.2183939-.265285-.3125-.40625-.025089-.03838-.038446-.08587-.0625-.125-.064763-.103032-.1302275-.204517-.1875-.3125-.1010083-.194706-.2056748-.415701-.28125-.625-.00796-.02181-.023589-.04055-.03125-.0625-.0318251-.09195-.0358045-.186831-.0625-.28125-.0303323-.106618-.0703894-.203031-.09375-.3125-.0728786-.341512-.125-.698205-.125-1.0625v-2-68-2c0-2.781848 2.2181517-5 5-5h2 68 2c2.781848 0 5 2.218152 5 5v2 68 2c0 .364295-.05212.720988-.125 1.0625-.04415.206893-.08838.397658-.15625.59375-.0077.02195-.0233.04069-.03125.0625-.06274.173739-.138383.367449-.21875.53125-.04158.0828-.07904.169954-.125.25-.0546.09721-.126774.18835-.1875.28125-.09411.140965-.204921.275995-.3125.40625-.143174.17445-.303141.346998-.46875.5-.01117.0102-.01998.02115-.03125.03125-.138386.125556-.285091.234436-.4375.34375-.102571.07315-.204318.153364-.3125.21875-.0074.0045-.02384-.0044-.03125 0-.232039.138728-.462548.274778-.71875.375.301527-.0968.596455-.204138.875-.34375.55709-.279224 1.060053-.665694 1.5-1.09375.219973-.214028.409366-.441865.59375-.6875s.355408-.507743.5-.78125c.14012-.265048.276135-.524729.375-.8125.01041-.03078.02133-.06274.03125-.09375.09046-.278085.1388-.579404.1875-.875.0524-.31805.09375-.634029.09375-.96875v-2-68-2c0-3.324-2.676-6-6-6z" fill="url(#b)" opacity=".25"/><path d="m12 90c-3.324 0-6-2.676-6-6v-2-68-2c0-.334721.04135-.6507.09375-.96875.0487-.295596.09704-.596915.1875-.875.0099-.03038.02089-.0636.03125-.09375.09886-.287771.23488-.547452.375-.8125.144592-.273507.315616-.535615.5-.78125s.373777-.473472.59375-.6875c.439947-.428056.94291-.814526 1.5-1.09375.278545-.139612.573473-.246947.875-.34375-.256202.100222-.486711.236272-.71875.375-.0074.0044-.02387-.0045-.03125 0-.03193.0193-.06229.04251-.09375.0625-.120395.0767-.231023.163513-.34375.25-.106173.0808-.213281.161112-.3125.25-.17793.161433-.34746.345388-.5.53125-.107579.130255-.218394.265285-.3125.40625-.02509.03838-.03845.08587-.0625.125-.06476.103032-.130227.204517-.1875.3125-.101008.194706-.205675.415701-.28125.625-.008.02181-.02359.04055-.03125.0625-.03182.09195-.0358.186831-.0625.28125-.030332.106618-.070389.203031-.09375.3125-.072879.341512-.125.698205-.125 1.0625v2 68 2c0 2.781848 2.218152 5 5 5h2 68 2c2.781848 0 5-2.218152 5-5v-2-68-2c0-.364295-.05212-.720988-.125-1.0625-.04415-.206893-.08838-.397658-.15625-.59375-.0077-.02195-.0233-.04069-.03125-.0625-.06274-.173739-.138383-.367449-.21875-.53125-.04158-.0828-.07904-.169954-.125-.25-.0546-.09721-.126774-.18835-.1875-.28125-.09411-.140965-.204921-.275995-.3125-.40625-.143174-.17445-.303141-.346998-.46875-.5-.01117-.0102-.01998-.02115-.03125-.03125-.138386-.125556-.285091-.234436-.4375-.34375-.102571-.07315-.204318-.153364-.3125-.21875-.0074-.0045-.02384.0044-.03125 0-.232039-.138728-.462548-.274778-.71875-.375.301527.0968.596455.204138.875.34375.55709.279224 1.060053.665694 1.5 1.09375.219973.214028.409366.441865.59375.6875s.355408.507743.5.78125c.14012.265048.276135.524729.375.8125.01041.03078.02133.06274.03125.09375.09046.278085.1388.579404.1875.875.0524.31805.09375.634029.09375.96875v2 68 2c0 3.324-2.676 6-6 6z" fill="url(#c)" opacity=".2"/><g transform="matrix(1.0962553 0 0 1.0962553 -.577532 -8.668896)"><path d="m71.73141 66.659392c1.5 11.674411-1.075479 21.607908-3.729632 23.215883l-32.297839.124061s-18.736501.508879-18.736501-23.339944 6.845125-38.932114 22.381988-38.932116c15.536865 0 29.342725 15.277744 32.381984 38.932116z" fill="#eae784"/><ellipse cx="44.125" cy="58.75" fill="#fefefe" rx="4.625" ry="4.25"/><ellipse cx="65" cy="60.5" fill="#fefefe" rx="4.625" ry="4.25"/><path d="m6 84.532222.00441-35.279325 6.111822-5.923745c5.345513-5.181017 15.824268-13.210404 17.626347-13.210404.377809 0-.438476 2.077833-1.813967 4.617402-7.880925 14.550572-5.804937 30.215991 3.861038 48.043741l3.914289 7.219445-24.140221.0622c-2.122717-.052286-5.5178045-1.429562-5.563718-5.529314zm30.227689-19.297598c-5.594532-6.036597-2.67743-16.204795 4.999533-17.426974 5.455106-.423435 9.337392 4.759011 9.37207 9.227203 0 4.13269-1.860083 8.278502-4.300196 9.584413-3.185221 1.704674-7.795775 1.070803-10.071407-1.384642zm9.860104-5.777008c.346119-1.79725-2.164456-3.008288-3.489499-1.683244-1.325043 1.325043-.114004 3.835617 1.683246 3.489496.833016-.16042 1.645829-.973235 1.806253-1.806252zm15.5878 6.970009c-2.127779-1.615776-3.079672-5.06878-2.248161-8.155243 1.362029-5.055675 7.823916-5.829102 10.28475-1.230989 3.136991 5.861514-3.09429 13.139265-8.036589 9.386232zm5.403266-4.523947c.919049-1.487055-1.450043-3.678642-2.674054-2.454628-2.048874 2.488615 1.428408 4.280969 2.674054 2.454628z" stroke-width=".869674"/><g fill="none" stroke="#000"><path d="m29.132207 62.231958c8.101808 17.942457 33.155559 27.140785 50.12725 1.782926" stroke-width="2.519132"/><path d="m39.220023 35.730285c-.747008-.509954-.234587-1.276493.348729-1.780979 1.043408-.902406 2.773897-.275147 3.512137.772175 1.083398 1.536987.02148 3.16619-1.494533 4.122405-2.020593 1.274486-4.685246.36794-5.853567-1.619074-1.470216-2.500454-.342046-5.721441 2.117252-7.099007 4.77198-3.91021 12.269954.528166 13.724754 4.259409 1.022249 2.562929-.38933 8.080157-2.269763 10.000119" stroke-width="1.690866"/><path d="m69.235067 43.904809c.708874-.129075.58433-.852966.323272-1.409115-.466951-.994813-1.929571-1.099031-2.806178-.576049-1.28646.767512-1.041532 2.297259-.248062 3.484366 1.057543 1.582223 3.290498 1.785874 4.784581.718366 1.880152-1.343346 2.102775-4.052986.759364-5.852376-2.20586-4.391886-9.100674-3.591307-11.368404-1.347255-1.574384 1.53396-2.334776 6.006536-1.588383 8.013094" stroke-width="1.5"/></g></g><rect fill="url(#h)" height="84" opacity=".35" rx="6" width="84" x="6" y="6"/></svg>