<svg height="96" width="96" xmlns="http://www.w3.org/2000/svg" xmlns:xlink="http://www.w3.org/1999/xlink"><linearGradient id="a"><stop offset="0"/><stop offset="1" stop-opacity=".588235"/></linearGradient><linearGradient id="b" gradientTransform="scale(1.0058652 .994169)" gradientUnits="userSpaceOnUse" x1="45.447727" x2="45.447727" xlink:href="#a" y1="92.539597" y2="7.01654"/><linearGradient id="c"><stop offset="0" stop-color="#fffac8"/><stop offset="1" stop-color="#feff67" stop-opacity="0"/></linearGradient><linearGradient id="d" gradientUnits="userSpaceOnUse" x1="36.357143" x2="36.357143" xlink:href="#c" y1="6" y2="63.893143"/><filter id="e" color-interpolation-filters="sRGB" height="1.384" width="1.384" x="-.192" y="-.192"><feGaussianBlur stdDeviation="5.28"/></filter><linearGradient id="f" gradientUnits="userSpaceOnUse" x1="48" x2="48" xlink:href="#c" y1="20.220806" y2="138.66119"/><radialGradient id="g" cx="48" cy="90.171875" gradientTransform="matrix(1.1573129 0 0 .99590774 -7.551021 .197132)" gradientUnits="userSpaceOnUse" r="42" xlink:href="#c"/><clipPath id="h"><rect height="84" rx="6" width="84" x="6" y="6"/></clipPath><linearGradient id="i" gradientUnits="userSpaceOnUse" x1="48" x2="48" y1="90" y2="5.987717"><stop offset="0" stop-color="#003b62"/><stop offset="1" stop-color="#0077ad"/></linearGradient><linearGradient id="j" gradientTransform="matrix(1.0058652 0 0 .994169 100 0)" gradientUnits="userSpaceOnUse" x1="45.447727" x2="45.447727" xlink:href="#a" y1="92.539597" y2="7.01654"/><linearGradient id="k" gradientTransform="matrix(1.0238095 0 0 1.0119048 -1.142857 -98.071429)" gradientUnits="userSpaceOnUse" x1="32.251034" x2="32.251034" xlink:href="#j" y1="6.131708" y2="90.238609"/><linearGradient id="l" gradientTransform="translate(0 -97)" gradientUnits="userSpaceOnUse" x1="32.251034" x2="32.251034" xlink:href="#j" y1="6.131708" y2="90.238609"/><linearGradient id="m" gradientUnits="userSpaceOnUse" x1="45.36130396" x2="45.36130396" y1="22.39978954" y2="60.79246134745"><stop offset="0" stop-color="#fefefe"/><stop offset="1" stop-color="#fefefe" stop-opacity="0"/></linearGradient><linearGradient id="n" gradientUnits="userSpaceOnUse" x1="47.99929032" x2="47.99929032" y1="77.7975031" y2="22.39168894339"><stop offset="0" stop-color="#95c2e6"/><stop offset="1" stop-color="#d9ecfd"/></linearGradient><linearGradient id="o" gradientTransform="translate(-1 1)" gradientUnits="userSpaceOnUse" x1="48" x2="48" xlink:href="#b" y1="90.868095" y2="5.987717"/><linearGradient id="p" gradientTransform="translate(0 1)" gradientUnits="userSpaceOnUse" x1="48" x2="48" xlink:href="#b" y1="90" y2="5.987717"/><linearGradient id="q" gradientTransform="scale(1.0058652 .994169)" gradientUnits="userSpaceOnUse" x1="45.447727" x2="45.447727" xlink:href="#b" y1="92.539597" y2="7.01654"/><g fill="url(#k)"><path d="m12-95.03125c-5.5110903 0-10.03125 4.52016-10.03125 10.03125v71c0 5.5110902 4.5201598 10.03125 10.03125 10.03125h72c5.51109 0 10.03125-4.5201597 10.03125-10.03125v-71c0-5.51109-4.52016-10.03125-10.03125-10.03125z" opacity=".08" transform="scale(1 -1)"/><path d="m12-94.03125c-4.971633 0-9.03125 4.059617-9.03125 9.03125v71c0 4.9716329 4.0596171 9.03125 9.03125 9.03125h72c4.971633 0 9.03125-4.059617 9.03125-9.03125v-71c0-4.971633-4.059617-9.03125-9.03125-9.03125z" opacity=".1" transform="scale(1 -1)"/><path d="m12-93c-4.4091333 0-8 3.590867-8 8v71c0 4.4091333 3.5908667 8 8 8h72c4.409133 0 8-3.5908667 8-8v-71c0-4.409133-3.590867-8-8-8z" opacity=".2" transform="scale(1 -1)"/><rect height="85" opacity=".3" rx="7" transform="scale(1 -1)" width="86" x="5" y="-92"/></g><rect fill="url(#l)" height="84" opacity=".45" rx="6" transform="scale(1 -1)" width="84" x="6" y="-91"/><rect fill="url(#i)" height="84" rx="6" width="84" x="6" y="6"/><path d="m12 6c-3.324 0-6 2.676-6 6v2 68 2c0 .334721.04135.6507.09375.96875.0487.295596.09704.596915.1875.875.00988.03038.020892.0636.03125.09375.098865.287771.2348802.547452.375.8125.1445918.273507.3156161.535615.5.78125s.3737765.473472.59375.6875c.439947.428056.94291.814526 1.5 1.09375.278545.139612.5734731.246947.875.34375-.2562018-.100222-.4867109-.236272-.71875-.375-.00741-.0044-.023866.0045-.03125 0-.031933-.0193-.062293-.04251-.09375-.0625-.120395-.0767-.2310226-.163513-.34375-.25-.1061728-.0808-.2132809-.161112-.3125-.25-.1779299-.161433-.3474596-.345388-.5-.53125-.1075789-.130255-.2183939-.265285-.3125-.40625-.025089-.03838-.038446-.08587-.0625-.125-.064763-.103032-.1302275-.204517-.1875-.3125-.1010083-.194706-.2056748-.415701-.28125-.625-.00796-.02181-.023589-.04055-.03125-.0625-.0318251-.09195-.0358045-.186831-.0625-.28125-.0303323-.106618-.0703894-.203031-.09375-.3125-.0728786-.341512-.125-.698205-.125-1.0625v-2-68-2c0-2.781848 2.2181517-5 5-5h2 68 2c2.781848 0 5 2.218152 5 5v2 68 2c0 .364295-.05212.720988-.125 1.0625-.04415.206893-.08838.397658-.15625.59375-.0077.02195-.0233.04069-.03125.0625-.06274.173739-.138383.367449-.21875.53125-.04158.0828-.07904.169954-.125.25-.0546.09721-.126774.18835-.1875.28125-.09411.140965-.204921.275995-.3125.40625-.143174.17445-.303141.346998-.46875.5-.01117.0102-.01998.02115-.03125.03125-.138386.125556-.285091.234436-.4375.34375-.102571.07315-.204318.153364-.3125.21875-.0074.0045-.02384-.0044-.03125 0-.232039.138728-.462548.274778-.71875.375.301527-.0968.596455-.204138.875-.34375.55709-.279224 1.060053-.665694 1.5-1.09375.219973-.214028.409366-.441865.59375-.6875s.355408-.507743.5-.78125c.14012-.265048.276135-.524729.375-.8125.01041-.03078.02133-.06274.03125-.09375.09046-.278085.1388-.579404.1875-.875.0524-.31805.09375-.634029.09375-.96875v-2-68-2c0-3.324-2.676-6-6-6z" fill="url(#d)" opacity=".35"/><path d="m12 90c-3.324 0-6-2.676-6-6v-2-68-2c0-.334721.04135-.6507.09375-.96875.0487-.295596.09704-.596915.1875-.875.00988-.03038.020892-.0636.03125-.09375.098865-.287771.2348802-.547452.375-.8125.1445918-.273507.3156161-.535615.5-.78125s.3737765-.473472.59375-.6875c.439947-.428056.94291-.814526 1.5-1.09375.278545-.139612.5734731-.246947.875-.34375-.2562018.100222-.4867109.236272-.71875.375-.00741.0044-.023866-.0045-.03125 0-.031933.0193-.062293.04251-.09375.0625-.120395.0767-.2310226.163513-.34375.25-.1061728.0808-.2132809.161112-.3125.25-.1779299.161433-.3474596.345388-.5.53125-.1075789.130255-.2183939.265285-.3125.40625-.025089.03838-.038446.08587-.0625.125-.064763.103032-.1302275.204517-.1875.3125-.1010083.194706-.2056748.415701-.28125.625-.00796.02181-.023589.04055-.03125.0625-.0318251.09195-.0358045.186831-.0625.28125-.0303323.106618-.0703894.203031-.09375.3125-.0728786.341512-.125.698205-.125 1.0625v2 68 2c0 2.781848 2.2181517 5 5 5h2 68 2c2.781848 0 5-2.218152 5-5v-2-68-2c0-.364295-.05212-.720988-.125-1.0625-.04415-.206893-.08838-.397658-.15625-.59375-.0077-.02195-.0233-.04069-.03125-.0625-.06274-.173739-.138383-.367449-.21875-.53125-.04158-.0828-.07904-.169954-.125-.25-.0546-.09721-.126774-.18835-.1875-.28125-.09411-.140965-.204921-.275995-.3125-.40625-.143174-.17445-.303141-.346998-.46875-.5-.01117-.0102-.01998-.02115-.03125-.03125-.138386-.125556-.285091-.234436-.4375-.34375-.102571-.07315-.204318-.153364-.3125-.21875-.0074-.0045-.02384.0044-.03125 0-.232039-.138728-.462548-.274778-.71875-.375.301527.0968.596455.204138.875.34375.55709.279224 1.060053.665694 1.5 1.09375.219973.214028.409366.441865.59375.6875s.355408.507743.5.78125c.14012.265048.276135.524729.375.8125.01041.03078.02133.06274.03125.09375.09046.278085.1388.579404.1875.875.0524.31805.09375.634029.09375.96875v2 68 2c0 3.324-2.676 6-6 6z" fill="url(#g)" opacity=".2"/><g transform="matrix(.65949659 0 0 .65949659 16.343454 18.44281)"><path d="m12 4.03125c-6.0701637-.1617408-10.6911509 5.6895113-9.96875 11.5.0000716.04167-.0000701.08333 0 .125.030431 18.086218-.077787 36.153437.03125 54.25a.93232674.93232674 0 0 0 0 .0625c.4297709 5.831518 6.2168912 9.674679 11.71875 9 .0418-.0051.08323.0056.125 0h5.3125c-.679778 4.428501-1.596836 8.895227-2.0625 13.40625a.93232674.93232674 0 0 0 .03125.28125c.279995 1.294203 1.371731 2.108795 2.46875 2.25 1.023884.131791 2.065552-.225148 2.84375-1v.03125l22.84375-14.96875c13.185056-.02898 26.362788.07707 39.5625-.03125a.93232674.93232674 0 0 0 .0625 0c5.831518-.429771 9.674679-6.216892 9-11.71875-.0051-.0418.0056-.08323 0-.125-.03043-18.00176.07779-35.987855-.03125-54a.93232674.93232674 0 0 0 0-.0625c-.429771-5.8315178-6.216892-9.6746792-11.71875-9h-.125-70.0625z" fill="url(#o)" opacity=".08"/><path d="m12 4.96875c-5.501783-.1656394-9.7593033 5.261556-9.03125 10.551463.031153 18.132768-.06237 36.268711.046873 54.39949.3891125 5.279828 5.7301904 8.791471 10.757959 8.111547h6.538918c-.693629 4.811167-1.723208 9.637038-2.21875 14.4375.399566 1.846889 2.79006 1.976363 3.910163.694482 7.696612-5.043994 15.393225-10.087988 23.089837-15.131982 13.274928-.03092 26.553011.06205 39.825953-.04687 5.279828-.389113 8.791471-5.730191 8.111547-10.757959-.031152-18.048315.062369-36.099801-.046873-54.146124-.389113-5.2798278-5.730191-8.7914714-10.757959-8.111547-23.408806 0-46.817612 0-70.226418 0z" fill="url(#o)" opacity=".1"/><path d="m12 6c-4.4078522 0-8 3.5921478-8 8v55c0 4.407852 3.5921478 8 8 8h9.5l-2.40625 14.90625a.98733463.98733463 0 0 0 1.5.96875l24.21875-15.875h39.1875c4.407852 0 8-3.592148 8-8v-55c0-4.4078522-3.592148-8-8-8z" fill="url(#q)" opacity=".15"/><path d="m12 7c-3.878 0-7 3.122-7 7v55c0 3.878 3.122 7 7 7h10.65625l-2.59375 16.0625 24.5-16.0625h39.4375c3.878 0 7-3.122 7-7v-55c0-3.878-3.122-7-7-7z" fill="url(#o)" opacity=".3"/><path d="m12 7c-3.324 0-6 2.676-6 6v56c0 3.324 2.676 6 6 6h12l-3 16 23-16h40c3.324 0 6-2.676 6-6v-56c0-3.324-2.676-6-6-6z" fill="url(#p)" opacity=".45"/></g><path d="m24.257413 22.39979c-2.192167 0-3.95698 1.76481-3.95698 3.95697v36.93181c0 2.19217 1.764813 3.95698 3.95698 3.95698h7.91396l-1.97849 10.55195 15.168421-10.55195h26.379864c2.192167 0 3.95698-1.76481 3.95698-3.95698v-36.93181c0-2.19216-1.764813-3.95697-3.95698-3.95697z" fill="url(#n)"/><path d="m24.257413 22.39979c-2.192167 0-3.95698 1.76481-3.95698 3.95697v36.93181c0 1.91815 1.346842 3.50678 3.153218 3.87455-1.452301-.35461-2.514331-1.64691-2.514331-3.21505v-36.93181c0-1.84487 1.473225-3.31809 3.318093-3.31809h47.483755c1.844868 0 3.318092 1.47322 3.318092 3.31809v36.93181c0 1.56814-1.06203 2.86044-2.51433 3.21505 1.806376-.36777 3.153218-1.9564 3.153218-3.87455v-36.93181c0-2.19216-1.764813-3.95697-3.95698-3.95697zm7.91396 44.86637-1.97849 10.53134 15.147812-10.53134a.64716126.64716126 0 0 0 -.350357.10305l-13.870038 9.64514 1.68996-8.98564a.64716126.64716126 0 0 0 -.638887-.76255z" fill="url(#m)" opacity=".4"/><g transform="translate(52)"><rect height="66" rx="12" style="opacity:.1;stroke:#fefefe;stroke-width:.5;stroke-linecap:round;clip-path:url(#h);fill:url(#f);filter:url(#e)" transform="translate(-156)" width="66" x="15" y="15"/><path d="m3.940503 38.189669c-2.93033 0-5.303861 2.247957-5.303861 5.014207.0071.317014.0092.671021.04176 1.065335-.463748.25005-.525024 1.230122-.111367 2.215915.159508.380121.378759.68735.59859896.9375.0073.0084.02046.02029.02783.02843.05247.260457.08967.45905.153129.752836.1966.59655 1.010797 1.72005 1.72619104 2.684664.07134.744129.07393 1.483107-.0696 2.329543-2.059148 1.727922-7.330281 2.500936-7.322387 4.289772l-.09745.6818h20.714285l-.09745-.681815c-.0084-1.531007-5.3024086-2.500935-7.3363086-4.289778-.082351-.685222-.097604-1.356343-.055686-2.03125.6504257-1.014793 1.5085414-2.322543 1.7261907-2.98295.079991-.342015.118845-.5728.1809707-.866479.1920707-.23745.3732879-.514386.5150736-.852271.3928279-.93615.344685-1.840936-.055686-2.144886.027979-.406771.057907-.788714.0696-1.136364.0000121-2.76625-2.3735222-5.014207-5.3038504-5.014207z" fill="#274a93" opacity=".742"/><path d="m-11.416641 29.61824c-4.401108 0-7.965951 3.371929-7.965951 7.521307.0107.475529.01378 1.006536.06273 1.598014-.69651.375065-.788542 1.845179-.167265 3.323865.239568.570185.568865 1.031021.899045 1.40625.01101.01257.03073.03036.04181.04257.07882.390679.134673.688572.229987 1.129257.295276.894822 1.518131 2.580072 2.592593 4.026993.10715 1.116193.111043 2.224664-.10454 3.494314-3.092666 2.591886-11.009465 3.751408-10.997609 6.434658l-.146359 1.022771h31.111111l-.146356-1.022729c-.01261-2.2965-7.963771-3.7514-11.018518-6.434657-.123683-1.027835-.146593-2.034514-.08363-3.046878.976885-1.522193 2.265702-3.483815 2.592592-4.474429.12014-.513014.178496-.8592.271803-1.299714.288474-.356172.560647-.771579.773597-1.278407.589995-1.404229.517689-2.761407-.08363-3.217336.04202-.61015.08697-1.183071.10454-1.704543.000011-4.149371-3.564837-7.521307-7.965945-7.521307z" fill="#2e4794"/></g></svg>