<svg height="96" width="96" xmlns="http://www.w3.org/2000/svg" xmlns:xlink="http://www.w3.org/1999/xlink"><linearGradient id="a"><stop offset="0" stop-color="#fefefe"/><stop offset="1" stop-color="#fefefe" stop-opacity="0"/></linearGradient><linearGradient id="b" gradientUnits="userSpaceOnUse" x1="36.357143" x2="36.357143" xlink:href="#a" y1="6" y2="63.893143"/><linearGradient id="c" gradientUnits="userSpaceOnUse" x1="43.549291" x2="43.549291" y1="6.422537" y2="89.158667"><stop offset="0" stop-color="#fefefe"/><stop offset=".5" stop-color="#088eff"/><stop offset="1" stop-color="#a6d7ff" stop-opacity=".547826"/></linearGradient><radialGradient id="d" cx="48" cy="90.171875" gradientTransform="matrix(1.1573129 0 0 .99590774 -7.551021 .197132)" gradientUnits="userSpaceOnUse" r="42" xlink:href="#a"/><linearGradient id="e" gradientTransform="matrix(1.0058652 0 0 .994169 100 0)" gradientUnits="userSpaceOnUse" x1="45.447727" x2="45.447727" y1="92.539597" y2="7.01654"><stop offset="0"/><stop offset="1" stop-opacity=".588235"/></linearGradient><linearGradient id="f" gradientTransform="matrix(1.0238095 0 0 1.0119048 -1.142857 -98.071429)" gradientUnits="userSpaceOnUse" x1="32.251034" x2="32.251034" xlink:href="#e" y1="6.131708" y2="90.238609"/><linearGradient id="g" gradientTransform="translate(0 -97)" gradientUnits="userSpaceOnUse" x1="32.251034" x2="32.251034" xlink:href="#e" y1="6.131708" y2="90.238609"/><clipPath id="h"><rect height="84" rx="6" width="84" x="6" y="6"/></clipPath><filter id="i" color-interpolation-filters="sRGB" height="1.384" width="1.384" x="-.192" y="-.192"><feGaussianBlur stdDeviation="6.56"/></filter><path d="m12-95.03125c-5.5110903 0-10.03125 4.52016-10.03125 10.03125v71c0 5.5110902 4.5201598 10.03125 10.03125 10.03125h72c5.51109 0 10.03125-4.5201597 10.03125-10.03125v-71c0-5.51109-4.52016-10.03125-10.03125-10.03125z" fill="url(#f)" opacity=".08" transform="scale(1 -1)"/><path d="m12-94.03125c-4.971633 0-9.03125 4.059617-9.03125 9.03125v71c0 4.9716329 4.0596171 9.03125 9.03125 9.03125h72c4.971633 0 9.03125-4.059617 9.03125-9.03125v-71c0-4.971633-4.059617-9.03125-9.03125-9.03125z" fill="url(#f)" opacity=".1" transform="scale(1 -1)"/><path d="m12-93c-4.4091333 0-8 3.590867-8 8v71c0 4.4091333 3.5908667 8 8 8h72c4.409133 0 8-3.5908667 8-8v-71c0-4.409133-3.590867-8-8-8z" fill="url(#f)" opacity=".2" transform="scale(1 -1)"/><rect fill="url(#f)" height="85" opacity=".3" rx="7" transform="scale(1 -1)" width="86" x="5" y="-92"/><rect fill="url(#g)" height="84" opacity=".45" rx="6" transform="scale(1 -1)" width="84" x="6" y="-91"/><rect fill="#088eff" height="84" rx="6" width="84" x="6" y="6"/><path d="m12 6c-3.324 0-6 2.676-6 6v2 68 2c0 .334721.04135.6507.09375.96875.0487.295596.09704.596915.1875.875.00988.03038.020892.0636.03125.09375.098865.287771.2348802.547452.375.8125.1445918.273507.3156161.535615.5.78125s.3737765.473472.59375.6875c.439947.428056.94291.814526 1.5 1.09375.278545.139612.5734731.246947.875.34375-.2562018-.100222-.4867109-.236272-.71875-.375-.00741-.0044-.023866.0045-.03125 0-.031933-.0193-.062293-.04251-.09375-.0625-.120395-.0767-.2310226-.163513-.34375-.25-.1061728-.0808-.2132809-.161112-.3125-.25-.1779299-.161433-.3474596-.345388-.5-.53125-.1075789-.130255-.2183939-.265285-.3125-.40625-.025089-.03838-.038446-.08587-.0625-.125-.064763-.103032-.1302275-.204517-.1875-.3125-.1010083-.194706-.2056748-.415701-.28125-.625-.00796-.02181-.023589-.04055-.03125-.0625-.0318251-.09195-.0358045-.186831-.0625-.28125-.0303323-.106618-.0703894-.203031-.09375-.3125-.0728786-.341512-.125-.698205-.125-1.0625v-2-68-2c0-2.781848 2.2181517-5 5-5h2 68 2c2.781848 0 5 2.218152 5 5v2 68 2c0 .364295-.05212.720988-.125 1.0625-.04415.206893-.08838.397658-.15625.59375-.0077.02195-.0233.04069-.03125.0625-.06274.173739-.138383.367449-.21875.53125-.04158.0828-.07904.169954-.125.25-.0546.09721-.126774.18835-.1875.28125-.09411.140965-.204921.275995-.3125.40625-.143174.17445-.303141.346998-.46875.5-.01117.0102-.01998.02115-.03125.03125-.138386.125556-.285091.234436-.4375.34375-.102571.07315-.204318.153364-.3125.21875-.0074.0045-.02384-.0044-.03125 0-.232039.138728-.462548.274778-.71875.375.301527-.0968.596455-.204138.875-.34375.55709-.279224 1.060053-.665694 1.5-1.09375.219973-.214028.409366-.441865.59375-.6875s.355408-.507743.5-.78125c.14012-.265048.276135-.524729.375-.8125.01041-.03078.02133-.06274.03125-.09375.09046-.278085.1388-.579404.1875-.875.0524-.31805.09375-.634029.09375-.96875v-2-68-2c0-3.324-2.676-6-6-6z" fill="url(#b)" opacity=".35"/><path d="m12 90c-3.324 0-6-2.676-6-6v-2-68-2c0-.334721.04135-.6507.09375-.96875.0487-.295596.09704-.596915.1875-.875.00988-.03038.020892-.0636.03125-.09375.098865-.287771.2348802-.547452.375-.8125.1445918-.273507.3156161-.535615.5-.78125s.3737765-.473472.59375-.6875c.439947-.428056.94291-.814526 1.5-1.09375.278545-.139612.5734731-.246947.875-.34375-.2562018.100222-.4867109.236272-.71875.375-.00741.0044-.023866-.0045-.03125 0-.031933.0193-.062293.04251-.09375.0625-.120395.0767-.2310226.163513-.34375.25-.1061728.0808-.2132809.161112-.3125.25-.1779299.161433-.3474596.345388-.5.53125-.1075789.130255-.2183939.265285-.3125.40625-.025089.03838-.038446.08587-.0625.125-.064763.103032-.1302275.204517-.1875.3125-.1010083.194706-.2056748.415701-.28125.625-.00796.02181-.023589.04055-.03125.0625-.0318251.09195-.0358045.186831-.0625.28125-.0303323.106618-.0703894.203031-.09375.3125-.0728786.341512-.125.698205-.125 1.0625v2 68 2c0 2.781848 2.2181517 5 5 5h2 68 2c2.781848 0 5-2.218152 5-5v-2-68-2c0-.364295-.05212-.720988-.125-1.0625-.04415-.206893-.08838-.397658-.15625-.59375-.0077-.02195-.0233-.04069-.03125-.0625-.06274-.173739-.138383-.367449-.21875-.53125-.04158-.0828-.07904-.169954-.125-.25-.0546-.09721-.126774-.18835-.1875-.28125-.09411-.140965-.204921-.275995-.3125-.40625-.143174-.17445-.303141-.346998-.46875-.5-.01117-.0102-.01998-.02115-.03125-.03125-.138386-.125556-.285091-.234436-.4375-.34375-.102571-.07315-.204318-.153364-.3125-.21875-.0074-.0045-.02384.0044-.03125 0-.232039-.138728-.462548-.274778-.71875-.375.301527.0968.596455.204138.875.34375.55709.279224 1.060053.665694 1.5 1.09375.219973.214028.409366.441865.59375.6875s.355408.507743.5.78125c.14012.265048.276135.524729.375.8125.01041.03078.02133.06274.03125.09375.09046.278085.1388.579404.1875.875.0524.31805.09375.634029.09375.96875v2 68 2c0 3.324-2.676 6-6 6z" fill="url(#d)" opacity=".2"/><rect clip-path="url(#h)" fill="url(#c)" filter="url(#i)" height="82" opacity=".9" rx="6" width="82" x="7" y="7"/><g fill-rule="evenodd"><path d="m29.03125 19.84375c-1.169564.11717-2.105677 1.349224-1.34375 2.78125 3.350623 6.771629 5.339725 11.590087 8.8125 19.03125.626729-1.423684 1.002004-2.409919 1.9375-4.53125-3.586538-7.0797-4.091014-10.063439-7.40625-16.09375-.530025-.901446-1.29826-1.257803-2-1.1875zm38.40625.25c-.730531-.03232-1.521533.416772-2 1.53125-4.379367 9.814243-12.434862 29.673048-16.03125 37.65625-2.04759 4.162326 1.615179 5.827051 3 3.53125 4.637039-9.6139 11.610535-28.036258 16.6875-39.78125.631511-1.559004-.438702-2.883636-1.65625-2.9375zm-22.1875 12.6875c-.73053-.03231-1.459033.416772-1.9375 1.53125-4.379367 9.814243-12.497363 29.735551-16.09375 37.71875-2.047591 4.162326 1.5781 5.369957 3.15625 2.6875 4.637036-9.613899 11.485535-27.255009 16.5625-39 .631511-1.559006-.469952-2.883633-1.6875-2.9375zm7.34375 1.875c-.73053-.03231-1.459032.354272-1.9375 1.46875-4.379366 9.814243-5.934863 14.641801-9.53125 22.625-2.04759 4.162328 1.427679 5.600364 2.8125 2.53125 4.637036-9.6139 5.266787-11.94251 10.34375-23.6875.631512-1.559006-.469952-2.883636-1.6875-2.9375zm37.40625 1.1875c-7.13458 1.692462-12.858061 4.673964-19.3125 8.75-1.903827-1.495117-3.133187-2.730241-4.65625-4.28125-.494851.911597-1.690354 3.417086-2.125 4.09375 1.59279 1.552519 2.263354 2.48834 3.53125 3.40625-1.525494 1.092494-1.510869 1.439895-5.15625 4.65625.76153 1.438835 1.17597 2.816973 1.9375 4.21875 1.764157-1.895806 3.071669-3.417139 6.875-5.9375 5.259905 2.764345 9.732524 5.655862 18.90625 8.1875v-5.1875c-4.33879-1.369866-10.679579-3.26965-14.625-6.03125 3.072558-2.164346 7.211578-4.311001 14.625-6.03125zm-84 1.3125v4.9375c4.361358 1.391612 10.712424 3.386392 14.625 6.125-3.072558 2.164348-7.211578 4.256517-14.625 5.96875v5.90625c7.138453-1.696335 12.92056-4.736464 19.375-8.8125 1.903827 1.495117 3.070687 2.792742 4.59375 4.34375.494851-.911596 1.721604-3.479586 2.15625-4.15625-1.592788-1.552519-2.232106-2.425838-3.5-3.34375 1.525491-1.092492 1.510867-1.439895 5.15625-4.65625-.761532-1.438836-1.17597-2.816976-1.9375-4.21875-1.764157 1.895804-3.134169 3.417139-6.9375 5.9375-5.199362-2.732527-9.922824-5.525458-18.90625-8.03125zm53.40625 16.1875c-.62673 1.423686-1.064504 2.347418-2 4.46875 3.586538 7.079698 4.153512 10.125937 7.46875 16.15625 1.413396 2.403854 4.562831.697493 3.34375-1.59375-3.350626-6.771631-5.339725-11.590088-8.8125-19.03125z" fill="#fefefe"/><path d="m29.03125 18.84375c-1.030722.10326-1.896868 1.072429-1.5625 2.28125.200272-.705557.841319-1.209 1.5625-1.28125.70174-.0703 1.469975.286054 2 1.1875 3.237395 5.888721 3.823335 8.895513 7.1875 15.625.09511-.218927.109698-.283965.21875-.53125-3.586538-7.0797-4.091014-10.063439-7.40625-16.09375-.530025-.901446-1.29826-1.257803-2-1.1875zm38.40625.25c-.730531-.03232-1.521533.416772-2 1.53125-4.379367 9.814243-12.434862 29.673048-16.03125 37.65625-.55198 1.122061-.683981 2.050854-.5625 2.78125.06861-.530492.236229-1.118008.5625-1.78125 3.596388-7.983202 11.651883-27.842007 16.03125-37.65625.478467-1.114478 1.269469-1.56357 2-1.53125.819159.03624 1.56885.660205 1.78125 1.53125.304296-1.370613-.674467-2.482286-1.78125-2.53125zm-22.1875 12.6875c-.73053-.03231-1.459033.416772-1.9375 1.53125-4.379367 9.814243-12.497363 29.735551-16.09375 37.71875-.557469 1.133219-.690266 2.042432-.5625 2.71875.07237-.502523.242564-1.068387.5625-1.71875 3.596387-7.983199 11.714383-27.904507 16.09375-37.71875.478467-1.114478 1.20697-1.56356 1.9375-1.53125.819159.03624 1.590843.660206 1.8125 1.53125.299598-1.370614-.705717-2.482284-1.8125-2.53125zm7.34375 1.875c-.73053-.03231-1.459032.354272-1.9375 1.46875-4.379366 9.814243-5.934863 14.641801-9.53125 22.625-.562759 1.143973-.707294 2.085859-.59375 2.78125.07483-.522182.263438-1.109793.59375-1.78125 3.596387-7.983199 5.151884-12.810757 9.53125-22.625.478468-1.114478 1.20697-1.50106 1.9375-1.46875.819159.03624 1.590843.660205 1.8125 1.53125.299598-1.370615-.705717-2.482286-1.8125-2.53125zm37.40625 1.1875c-7.13458 1.692462-12.858061 4.673964-19.3125 8.75-1.903827-1.495117-3.133187-2.730241-4.65625-4.28125-.494851.911597-1.690354 3.417086-2.125 4.09375.143574.139944.21405.213389.34375.34375.539723-.992664 1.368874-2.677836 1.78125-3.4375 1.523063 1.551009 2.752423 2.786133 4.65625 4.28125 6.454439-4.076036 12.17792-7.057538 19.3125-8.75zm-84 1.3125v1c8.983426 2.505792 13.706888 5.298723 18.90625 8.03125 3.803331-2.520361 5.173343-4.041696 6.9375-5.9375.638341 1.175016 1.03431 2.339777 1.59375 3.53125.13563-.120779.196523-.1826.34375-.3125-.761532-1.438836-1.17597-2.816976-1.9375-4.21875-1.764157 1.895804-3.134169 3.417139-6.9375 5.9375-5.199362-2.732527-9.922824-5.525458-18.90625-8.03125zm70.15625 11.0625c-.257622.170866-.538082.328709-.78125.5 3.945421 2.7616 10.28621 4.661384 14.625 6.03125v-1c-4.071431-1.285454-9.880099-3.038306-13.84375-5.53125zm-9.34375.09375c-.963807.7871-1.493432 1.475954-4.53125 4.15625.123189.232753.235788.457567.34375.6875 3.222597-2.869732 3.348617-3.295379 4.8125-4.34375-.227981-.16505-.42681-.330311-.625-.5zm-37.5625.3125c-.192761.15742-.370752.317918-.625.5 1.152639.834471 1.853955 1.69543 3.15625 3 .138715-.259472.256522-.520452.34375-.65625-1.299967-1.267101-1.985186-2.088005-2.875-2.84375zm-9.375.09375c-2.999717 1.985928-7.031841 3.888227-13.875 5.46875v1c7.413422-1.712233 11.552442-3.804402 14.625-5.96875-.237597-.166306-.49541-.339149-.75-.5zm39.53125 4.625c-.62673 1.423686-1.064504 2.347418-2 4.46875.08646.170676.166965.302664.25.46875.726971-1.635703 1.198416-2.684517 1.75-3.9375 3.472775 7.441162 5.461874 12.259619 8.8125 19.03125.08855.166425.142708.341098.1875.5.124369-.432661.10386-.952393-.1875-1.5-3.350626-6.771631-5.339725-11.590088-8.8125-19.03125z" fill="#0075d8" opacity=".5"/><path d="m27.46875 22.125c-.124516.438669-.07335.950995.21875 1.5 3.350623 6.771629 5.339725 11.590087 8.8125 19.03125.626729-1.423684 1.002004-2.409919 1.9375-4.53125-.08421-.16623-.137861-.306944-.21875-.46875-.720803 1.659135-1.165079 2.742276-1.71875 4-3.472775-7.441163-5.461877-12.259621-8.8125-19.03125-.09045-.17-.173709-.337167-.21875-.5zm41.75.5c-.03045.137169-.06755.264421-.125.40625-5.076965 11.744992-12.050461 30.16735-16.6875 39.78125-1.011507 1.676909-3.233343 1.229034-3.5625-.75-.361981 2.798733 2.398342 3.679979 3.5625 1.75 4.637039-9.6139 11.610535-28.036258 16.6875-39.78125.206634-.510115.228298-.982627.125-1.40625zm-22.15625 12.6875c-.02998.137169-.06755.264421-.125.40625-5.076965 11.744991-11.925464 29.386101-16.5625 39-1.148489 1.952142-3.377229 1.839056-3.71875.03125-.390814 2.713624 2.387186 3.232073 3.71875.96875 4.637036-9.613899 11.485535-27.255009 16.5625-39 .206634-.510116.2328-.982627.125-1.40625zm7.34375 1.875c-.02998.137169-.06755.264421-.125.40625-5.076963 11.74499-5.706714 14.0736-10.34375 23.6875-1.004217 2.225599-3.106667 2.084778-3.40625.25-.389019 2.714798 2.244825 3.324012 3.40625.75 4.637036-9.6139 5.266787-11.94251 10.34375-23.6875.206634-.510116.2328-.982627.125-1.40625zm35.59375 4.5c-7.413422 1.720249-11.552442 3.866904-14.625 6.03125.24312.170172.520968.336295.78125.5 2.997569-1.988119 7.017041-3.947145 13.84375-5.53125zm-84 .40625v1c4.096508 1.307104 9.937182 3.137065 13.875 5.625.249976-.165494.513649-.333512.75-.5-3.912576-2.738608-10.263642-4.733388-14.625-6.125zm27.4375 1.6875c-3.222599 2.869733-3.34862 3.295381-4.8125 4.34375.233092.168751.424567.329767.625.5.963806-.787099 1.493431-1.475954 4.53125-4.15625-.123189-.232753-.235788-.457567-.34375-.6875zm30.8125.96875c-.107945.198533-.271309.543473-.34375.65625 1.306389 1.273359 2.002227 2.132228 2.90625 2.90625.192761-.15742.370751-.317918.625-.5-1.153608-.83517-1.878322-1.746654-3.1875-3.0625zm6.84375 6c-3.803331 2.520361-5.110843 4.041694-6.875 5.9375-.638341-1.175019-1.034311-2.339778-1.59375-3.53125-.13563.120779-.196523.1826-.34375.3125.76153 1.438835 1.17597 2.816973 1.9375 4.21875 1.764157-1.895806 3.071669-3.417139 6.875-5.9375 5.259905 2.764345 9.732524 5.655862 18.90625 8.1875v-1c-9.173726-2.531638-13.646345-5.423155-18.90625-8.1875zm-45.71875.53125c-6.45444 4.076036-12.236547 7.116165-19.375 8.8125v1c7.138453-1.696335 12.92056-4.736464 19.375-8.8125 1.903827 1.495117 3.070687 2.792742 4.59375 4.34375.494851-.911596 1.721604-3.479586 2.15625-4.15625-.144789-.141128-.21353-.213303-.34375-.34375-.552483 1.033439-1.41696 2.77135-1.8125 3.5-1.523063-1.551008-2.689923-2.848633-4.59375-4.34375zm32.28125 7c-.09904.222844-.137832.276898-.25.53125 3.586538 7.079698 4.153512 10.125937 7.46875 16.15625 1.310734 2.22925 4.10313.935026 3.53125-1.09375-.396003 1.377637-2.455656 1.923083-3.53125.09375-3.235315-5.884935-3.857485-8.964286-7.21875-15.6875z" fill="#fefefe" opacity=".2"/><path d="m29.03125 19.84375c-1.169564.11717-2.105677 1.349224-1.34375 2.78125 3.350623 6.771629 5.339725 11.590087 8.8125 19.03125.626729-1.423684 1.002004-2.409919 1.9375-4.53125-3.586538-7.0797-4.091014-10.063439-7.40625-16.09375-.530025-.901446-1.29826-1.257803-2-1.1875zm38.40625.25c-.730531-.03232-1.521533.416772-2 1.53125-4.379367 9.814243-12.434862 29.673048-16.03125 37.65625-2.04759 4.162326 1.615179 5.827051 3 3.53125 4.637039-9.6139 11.610535-28.036258 16.6875-39.78125.631511-1.559004-.438702-2.883636-1.65625-2.9375zm-38.3125.59375c.34801-.03486.766963.115914 1.15625.75.0097.01584.02156.01477.03125.03125 3.180444 5.795063 3.796205 8.877073 7.1875 15.65625-.456517 1.045373-.737189 1.704686-1.03125 2.40625-2.923069-6.344657-4.977976-11.110566-8.03125-17.28125a.85088106.85088106 0 0 0 0-.03125c-.265572-.499136-.206124-.809674-.0625-1.0625s.437125-.437405.75-.46875zm38.28125.25c.616669.02728 1.315968.680506.90625 1.75-.005.01317.0054.01795 0 .03125-5.088562 11.774757-12.09307 30.15646-16.6875 39.6875-.0032.0066.0032.02464 0 .03125-.464121.68553-1.037044.711667-1.46875.375-.45153-.352126-.915268-1.295699 0-3.15625a.85088106.85088106 0 0 0 .03125-.03125c3.617998-8.031171 11.667713-27.877482 16.03125-37.65625.377055-.878263.831722-1.04699 1.1875-1.03125zm-22.15625 11.84375c-.73053-.03231-1.459033.416772-1.9375 1.53125-4.379367 9.814243-12.497363 29.735551-16.09375 37.71875-2.047591 4.162326 1.5781 5.369957 3.15625 2.6875 4.637036-9.613899 11.485535-27.255009 16.5625-39 .631511-1.559006-.469952-2.883633-1.6875-2.9375zm-.03125.84375c.617307.02731 1.343044.689015.9375 1.75-.005.01307.0053.01806 0 .03125-5.088489 11.773994-11.963003 29.401429-16.5625 38.9375-.607558.95404-1.369474 1.075603-1.71875.875-.180453-.103641-.35503-.279827-.40625-.71875s.03919-1.157028.5-2.09375a.85088106.85088106 0 0 0 .03125-.03125c3.617164-8.029319 11.729533-27.938459 16.09375-37.71875.38765-.902941.767068-1.047081 1.125-1.03125zm7.375 1.03125c-.73053-.03231-1.459032.354272-1.9375 1.46875-4.379366 9.814243-5.934863 14.641801-9.53125 22.625-2.04759 4.162328 1.427679 5.600364 2.8125 2.53125 4.637036-9.6139 5.266787-11.94251 10.34375-23.6875.631512-1.559006-.469952-2.883636-1.6875-2.9375zm-.03125.84375c.617305.02731 1.343045.689015.9375 1.75-.005.01307.0053.01806 0 .03125-5.068386 11.726969-5.721821 14.042422-10.34375 23.625a.85088106.85088106 0 0 0 0 .03125c-.281094.622976-.639806.936114-.90625 1.0625s-.42582.08628-.5625 0-.302243-.281103-.34375-.75c-.04151-.468897.06999-1.187364.53125-2.125a.85088106.85088106 0 0 0 .03125-.03125c3.611411-8.016548 5.163642-12.837107 9.53125-22.625.383102-.892346.718684-.986721 1.125-.96875zm37.4375.34375c-7.13458 1.692462-12.858061 4.673964-19.3125 8.75-1.903827-1.495117-3.133187-2.730241-4.65625-4.28125-.494851.911597-1.690354 3.417086-2.125 4.09375 1.59279 1.552519 2.263354 2.48834 3.53125 3.40625-1.525494 1.092494-1.510869 1.439895-5.15625 4.65625.76153 1.438835 1.17597 2.816973 1.9375 4.21875 1.764157-1.895806 3.071669-3.417139 6.875-5.9375 5.259905 2.764345 9.732524 5.655862 18.90625 8.1875v-5.1875c-4.33879-1.369866-10.679579-3.26965-14.625-6.03125 3.072558-2.164346 7.211578-4.311001 14.625-6.03125zm-.84375 1.125v4.0625c-7.053515 1.712045-11.233429 3.853079-14.28125 6a.85088106.85088106 0 0 0 0 1.375c3.982829 2.787784 9.975268 4.616907 14.28125 5.96875v3.40625c-8.290322-2.421923-12.590579-5.118985-17.65625-7.78125a.85088106.85088106 0 0 0 -.875.03125c-3.234816 2.143622-4.717963 3.621718-6.15625 5.15625-.358369-.800837-.737316-1.6204-1.15625-2.5 2.766771-2.492353 3.302475-3.240364 4.625-4.1875a.85088106.85088106 0 0 0 0-1.375c-1.004926-.72753-1.763298-1.650624-2.96875-2.875.234243-.426382.462029-.833929.75-1.40625.22559-.448342.363922-.763471.5625-1.15625 1.201065 1.206875 2.280431 2.31025 3.875 3.5625a.85088106.85088106 0 0 0 1 .0625c6.091361-3.846749 11.474879-6.642709 18-8.34375zm-83.15625.1875v4.9375c4.361358 1.391612 10.712424 3.386392 14.625 6.125-3.072558 2.164348-7.211578 4.256517-14.625 5.96875v5.90625c7.138453-1.696335 12.92056-4.736464 19.375-8.8125 1.903827 1.495117 3.070687 2.792742 4.59375 4.34375.494851-.911596 1.721604-3.479586 2.15625-4.15625-1.592788-1.552519-2.232106-2.425838-3.5-3.34375 1.525491-1.092492 1.510867-1.439895 5.15625-4.65625-.761532-1.438836-1.17597-2.816976-1.9375-4.21875-1.764157 1.895804-3.134169 3.417139-6.9375 5.9375-5.199362-2.732527-9.922824-5.525458-18.90625-8.03125zm.84375 1.15625c8.144663 2.392751 12.667215 5.00301 17.65625 7.625a.85088106.85088106 0 0 0 .875-.03125c3.246303-2.151234 4.757421-3.642456 6.21875-5.1875.362948.808454.732996 1.64258 1.15625 2.53125-2.766773 2.492353-3.302478 3.240366-4.625 4.1875a.85088106.85088106 0 0 0 0 1.375c1.010926.731876 1.747197 1.608555 2.9375 2.8125-.237963.433137-.455095.851331-.75 1.4375-.228276.453733-.393073.759181-.59375 1.15625-1.171923-1.208351-2.211371-2.336348-3.8125-3.59375a.85088106.85088106 0 0 0 -1-.0625c-6.092451 3.847437-11.531014 6.697126-18.0625 8.40625v-4.125c7.049638-1.700449 11.228267-3.786941 14.28125-5.9375a.85088106.85088106 0 0 0 0-1.375c-3.947199-2.762842-9.947609-4.68218-14.28125-6.0625zm52.5625 15.03125c-.62673 1.423686-1.064504 2.347418-2 4.46875 3.586538 7.079698 4.153512 10.125937 7.46875 16.15625 1.413396 2.403854 4.562831.697493 3.34375-1.59375-3.350626-6.771631-5.339725-11.590088-8.8125-19.03125zm0 2.0625c2.941164 6.38118 4.998032 11.150446 8.0625 17.34375a.85088106.85088106 0 0 0 0 .03125c.425697.80009.125786 1.183495-.3125 1.40625-.429534.218307-1.017331.209755-1.53125-.625-.01047-.01701-.02082-.01352-.03125-.03125-3.177142-5.788754-3.869855-8.928013-7.25-15.6875.470042-1.060914.745499-1.7359 1.0625-2.4375z" fill="#088eff" opacity=".15"/><path d="m29.03125 19.84375c-1.030722.10326-1.896868 1.072429-1.5625 2.28125.200272-.705557.841319-1.209 1.5625-1.28125.70174-.0703 1.469975.286054 2 1.1875 3.237395 5.888721 3.823335 8.895513 7.1875 15.625.09511-.218927.109698-.283965.21875-.53125-3.586538-7.0797-4.091014-10.063439-7.40625-16.09375-.530025-.901446-1.29826-1.257803-2-1.1875zm38.40625.25c-.730531-.03232-1.521533.416772-2 1.53125-4.379367 9.814243-12.434862 29.673048-16.03125 37.65625-.55198 1.122061-.683981 2.050854-.5625 2.78125.06861-.530492.236229-1.118008.5625-1.78125 3.596388-7.983202 11.651883-27.842007 16.03125-37.65625.478467-1.114478 1.269469-1.56357 2-1.53125.819159.03624 1.56885.660205 1.78125 1.53125.304296-1.370613-.674467-2.482286-1.78125-2.53125zm-22.1875 12.6875c-.73053-.03231-1.459033.416772-1.9375 1.53125-4.379367 9.814243-12.497363 29.735551-16.09375 37.71875-.557469 1.133219-.690266 2.042432-.5625 2.71875.07237-.502523.242564-1.068387.5625-1.71875 3.596387-7.983199 11.714383-27.904507 16.09375-37.71875.478467-1.114478 1.20697-1.56356 1.9375-1.53125.819159.03624 1.590843.660206 1.8125 1.53125.299598-1.370614-.705717-2.482284-1.8125-2.53125zm7.34375 1.875c-.73053-.03231-1.459032.354272-1.9375 1.46875-4.379366 9.814243-5.934863 14.641801-9.53125 22.625-.562759 1.143973-.707294 2.085859-.59375 2.78125.07483-.522182.263438-1.109793.59375-1.78125 3.596387-7.983199 5.151884-12.810757 9.53125-22.625.478468-1.114478 1.20697-1.50106 1.9375-1.46875.819159.03624 1.590843.660205 1.8125 1.53125.299598-1.370615-.705717-2.482286-1.8125-2.53125zm37.40625 1.1875c-7.13458 1.692462-12.858061 4.673964-19.3125 8.75-1.903827-1.495117-3.133187-2.730241-4.65625-4.28125-.494851.911597-1.690354 3.417086-2.125 4.09375.143574.139944.21405.213389.34375.34375.539723-.992664 1.368874-2.677836 1.78125-3.4375 1.523063 1.551009 2.752423 2.786133 4.65625 4.28125 6.454439-4.076036 12.17792-7.057538 19.3125-8.75zm-84 1.3125v1c8.983426 2.505792 13.706888 5.298723 18.90625 8.03125 3.803331-2.520361 5.173343-4.041696 6.9375-5.9375.638341 1.175016 1.03431 2.339777 1.59375 3.53125.13563-.120779.196523-.1826.34375-.3125-.761532-1.438836-1.17597-2.816976-1.9375-4.21875-1.764157 1.895804-3.134169 3.417139-6.9375 5.9375-5.199362-2.732527-9.922824-5.525458-18.90625-8.03125zm70.15625 11.0625c-.257622.170866-.538082.328709-.78125.5 3.945421 2.7616 10.28621 4.661384 14.625 6.03125v-1c-4.071431-1.285454-9.880099-3.038306-13.84375-5.53125zm-9.34375.09375c-.963807.7871-1.493432 1.475954-4.53125 4.15625.123189.232753.235788.457567.34375.6875 3.222597-2.869732 3.348617-3.295379 4.8125-4.34375-.227981-.16505-.42681-.330311-.625-.5zm-37.5625.3125c-.192761.15742-.370752.317918-.625.5 1.152639.834471 1.853955 1.69543 3.15625 3 .138715-.259472.256522-.520452.34375-.65625-1.299967-1.267101-1.985186-2.088005-2.875-2.84375zm-9.375.09375c-2.999717 1.985928-7.031841 3.888227-13.875 5.46875v1c7.413422-1.712233 11.552442-3.804402 14.625-5.96875-.237597-.166306-.49541-.339149-.75-.5zm39.53125 4.625c-.62673 1.423686-1.064504 2.347418-2 4.46875.08646.170676.166965.302664.25.46875.726971-1.635703 1.198416-2.684517 1.75-3.9375 3.472775 7.441162 5.461874 12.259619 8.8125 19.03125.08855.166425.142708.341098.1875.5.124369-.432661.10386-.952393-.1875-1.5-3.350626-6.771631-5.339725-11.590088-8.8125-19.03125z" fill="#088eff" opacity=".2"/></g></svg>