<svg height="96" width="96" xmlns="http://www.w3.org/2000/svg" xmlns:xlink="http://www.w3.org/1999/xlink"><linearGradient id="a"><stop offset="0" stop-color="#fefefe"/><stop offset="1" stop-color="#fefefe" stop-opacity="0"/></linearGradient><linearGradient id="b" gradientTransform="matrix(1.0058652 0 0 .994169 100 0)" gradientUnits="userSpaceOnUse" x1="45.447727" x2="45.447727" y1="92.539597" y2="7.01654"><stop offset="0"/><stop offset="1" stop-opacity=".588235"/></linearGradient><filter id="c" color-interpolation-filters="sRGB" height="2.058776" width="1.242935" x="-.121467" y="-.529388"><feGaussianBlur stdDeviation="1.004627"/></filter><linearGradient id="d" gradientTransform="matrix(1.0238095 0 0 -1.0031582 -1.142857 98.04515)" gradientUnits="userSpaceOnUse" x1="32.251034" x2="32.251034" xlink:href="#b" y1="6.131708" y2="90.238609"/><linearGradient id="e" gradientTransform="matrix(1.0238095 0 0 -1.0089238 -1.08964 98.269424)" gradientUnits="userSpaceOnUse" x1="32.251034" x2="32.251034" xlink:href="#b" y1="6.131708" y2="90.238609"/><linearGradient id="f" gradientTransform="matrix(1.0238095 0 0 -1.0082428 -1.142857 98.053076)" gradientUnits="userSpaceOnUse" x1="32.251034" x2="32.251034" xlink:href="#b" y1="6.131708" y2="90.238609"/><linearGradient id="g" gradientTransform="matrix(.97625359 0 0 .98025781 -30.793685 -.755245)" gradientUnits="userSpaceOnUse" x1="77.486557" x2="77.369827" xlink:href="#a" y1="-3.899342" y2="-47.38641"/><radialGradient id="h" cx="59.314705" cy="27.342279" gradientTransform="matrix(1.2134723 -.92564549 .78352621 1.0279094 -47.543331 41.14449)" gradientUnits="userSpaceOnUse" r="42"><stop offset="0" stop-color="#cbe2ed"/><stop offset="1" stop-color="#2283bf"/></radialGradient><radialGradient id="i" cx="122.20043" cy="47.534485" gradientTransform="matrix(.9990497 .04358546 -.07276376 1.667864 -73.925086 -36.572734)" gradientUnits="userSpaceOnUse" r="37.793537"><stop offset="0" stop-color="#c411ff"/><stop offset="1" stop-color="#54007f"/></radialGradient><radialGradient id="j" cx="57.27565" cy="75.493904" gradientTransform="matrix(1 0 0 .56666665 0 32.714026)" gradientUnits="userSpaceOnUse" r="10.606602"><stop offset="0"/><stop offset="1" stop-opacity="0"/></radialGradient><linearGradient id="k" gradientTransform="matrix(1.4257259 0 0 1.4662687 -719.54422 -117.14794)" gradientUnits="userSpaceOnUse" x1="535.49811" x2="535.73889" y1="83.098267" y2="91.209145"><stop offset="0" stop-color="#f2f2f2"/><stop offset="1" stop-color="#f2f2f2" stop-opacity="0"/></linearGradient><linearGradient id="l" gradientTransform="matrix(1.7748487 0 0 1.5052717 -64.413858 -38.268617)" gradientUnits="userSpaceOnUse" x1="53.892601" x2="53.18367" y1="70.478401" y2="81.978401"><stop offset="0" stop-color="#fefefe"/><stop offset="1" stop-color="#adadad"/></linearGradient><linearGradient id="m" gradientUnits="userSpaceOnUse" x1="33.672676" x2="43.622051" y1="48.149033" y2="48.694565"><stop offset="0" stop-color="#fefefe"/><stop offset="1" stop-color="#a3a3a3"/></linearGradient><linearGradient id="n" gradientTransform="matrix(1.1501654 0 0 1.2235495 -7.08026 -17.656493)" gradientUnits="userSpaceOnUse" x1="32.844723" x2="33.5" y1="61.040894" y2="54.540894"><stop offset="0" stop-color="#d29900"/><stop offset="1" stop-color="#ffd259"/></linearGradient><linearGradient id="o" gradientUnits="userSpaceOnUse" x1="25.678415" x2="18.661795" y1="49.031689" y2="49.360035"><stop offset="0" stop-color="#fefefe"/><stop offset="1" stop-color="#bbb"/></linearGradient><linearGradient id="p" gradientTransform="matrix(1.2622252 -.10437489 .13738597 .99518191 -28.24497 -2.998466)" gradientUnits="userSpaceOnUse" x1="76.612244" x2="68.83371" y1="61.25" y2="54.65704"><stop offset="0" stop-color="#7c06ad"/><stop offset="1" stop-color="#7d06ae" stop-opacity="0"/></linearGradient><linearGradient id="q" gradientTransform="matrix(1.4209995 0 0 1.4788027 -710.64754 -83.930416)" gradientUnits="userSpaceOnUse" x1="526.2652" x2="526.25427" y1="63.444996" y2="70.516014"><stop offset="0" stop-color="#f8f8ff"/><stop offset="1" stop-color="#f9f9fe" stop-opacity="0"/></linearGradient><radialGradient id="r" cx="48" cy="90.171875" gradientTransform="matrix(1.1573129 0 0 .99590774 -68.19406 2.513928)" gradientUnits="userSpaceOnUse" r="42" xlink:href="#a"/><radialGradient id="s" cx="-27.375" cy="56.125" gradientTransform="matrix(1 0 0 2.6190476 0 -90.869048)" gradientUnits="userSpaceOnUse" r="7.875" xlink:href="#a"/><g transform="matrix(.96204439 0 0 .96184311 1.843422 2.100446)"><g transform="matrix(1.0387474 0 0 1.0534426 -1.892639 -3.880319)"><path d="m12 95.03125c-5.5110903 0-10.03125-4.481089-10.03125-9.944543v-70.386298c0-5.4634549 4.5201598-9.9445439 10.03125-9.9445439h72c5.51109 0 10.03125 4.4810889 10.03125 9.9445439v70.386298c0 5.463454-4.52016 9.944543-10.03125 9.944543z" fill="url(#d)" opacity=".08"/><path d="m12.053217 94.241147c-4.9716333 0-9.0312503-4.047658-9.0312503-9.004645v-70.790839c0-4.9569861 4.0596171-9.0046439 9.0312503-9.0046439h72c4.971633 0 9.03125 4.0476577 9.03125 9.0046439v70.790839c0 4.956987-4.059617 9.004645-9.03125 9.004645z" fill="url(#e)" opacity=".1"/><path d="m12 93c-4.4091333 0-8-3.577872-8-7.971049v-70.743056c0-4.3931773 3.5908667-7.971049 8-7.971049h72c4.409133 0 8 3.5778717 8 7.971049v70.743056c0 4.393177-3.590867 7.971049-8 7.971049z" fill="url(#f)" opacity=".2"/><g transform="scale(1 -1)"><rect height="85" opacity=".269608" rx="7" width="86" x="5" y="-92"/><rect fill="#212121" height="84" opacity=".220588" rx="6" width="84" x="6" y="-91"/></g></g><rect fill="url(#g)" height="87.774849" rx="7.098566" ry="7.228518" transform="scale(1 -1)" width="87.21096" x="4.124229" y="-90.92028"/><path d="m15.697961 2.9840106-3.96931 18.1390844s-1.610067-4.242395-4.0594988-17.3720097c-1.9612546 1.048188-3.2927256 3.0878172-3.2927256 5.504898v75.3539037c0 3.4786 2.7399171 6.271971 6.1794794 6.271971h74.514593c3.439563 0 6.224576-2.793371 6.224576-6.271971v-75.3539037c0-3.4478948-2.736767-6.2232548-6.13437-6.2719727l-2.751451 9.6561284s-1.170822-2.559063-2.931863-9.6561284h-1.398282l-3.743769 13.8976074s-1.581686-3.433447-4.014402-13.8976074h-43.391652l-1.39828 4.5573321s-.629929-1.2403208-1.578707-4.5573321h-1.443389l-2.525914 9.6561284s-1.067884-2.521664-2.661225-9.6561284h-1.62381z" fill="url(#h)"/><path d="m34.249999 3.2499992 30.5.25s17.5 37.2499998 17.25 47.2500008c-.25 10-1.449143 34.728538-13.828176 40.359935-.553534.251811-56.171824.390065-56.171824.390065s-11.25000033-8.75-2.0000003-24.25c5.5029563-9.22117 5.7500003-21.75 5.5000003-31.000001-.25-9.25-.5-15 4.75-21.75 3.93114-5.0543202 14-11.2499998 14-11.2499998z" fill="url(#i)"/><path d="m67.882252 75.493904a10.606602 6.0104074 0 1 1 -21.213204 0 10.606602 6.0104074 0 1 1 21.213204 0z" fill="url(#j)" opacity=".666667" transform="matrix(.96527708 .78611592 -.52306807 .53543153 57.733149 -25.781364)"/><path d="m15.51916 3.0563544-3.969547 17.2902926s-1.6101937-4.043878-4.0597537-16.5591118c-1.9614026.9991375-3.2929426 2.9433282-3.2929426 5.2473041v71.8278107c0 3.315835 2.7400848 5.978488 6.1798633 5.978488h74.519323c3.439777 0 6.224961-2.662653 6.224961-5.978488v-71.8278107c0-3.2865555-2.736937-5.9320475-6.134756-5.9784849l-2.751621 9.2042846s-1.170891-2.4393167-2.932049-9.2042846h-1.398365l-3.744014 13.2472886s-1.581786-3.272783-4.014658-13.2472886h-43.394404l-1.398366 4.3440788s-.629971-1.1822815-1.578805-4.3440788h-1.443491l-2.526072 9.2042846s-1.067954-2.4036647-2.661394-9.2042846z" fill="url(#k)"/><path d="m21.344404 63.887252s-16.7104633 25.957651-2.830262 27.489734c4.933216.544525 10.622325.294519 22.80572.175709 15.616403-.152284 13.03527-23.025637 3.216029-28.518604-5.466268-3.057877 2.242285-8.794255 2.242285-8.794255z" fill="url(#l)" opacity=".857143"/><path d="m44 48.375a12.625 22.625 0 1 1 -25.25 0 12.625 22.625 0 1 1 25.25 0z" fill="url(#m)" transform="matrix(.92361163 0 0 .54398211 -5.726696 -.625522)"/><path d="m73.614374 38.702784c0 9-3.364374 15.547216-3.364374 15.547216s1.25-.5 4.25-4.5-.885626-11.047216-.885626-11.047216z" fill="#876200" filter="url(#c)" transform="matrix(.16301992 2.3625802 -2.3331654 -.08069338 125.64159 -108.86109)"/><path d="m67.882252 75.493904a10.606602 6.0104074 0 1 1 -21.213204 0 10.606602 6.0104074 0 1 1 21.213204 0z" fill="url(#j)" opacity=".824561" transform="matrix(2.1424986 0 0 2.9412913 -90.995816 -168.48454)"/><path d="m34.803941 33.830345s-6.078996-1.074462-12.736852 1.84306c-14.6411867 6.415898-15.1487534 23.514618-15.1487534 23.514618s13.3481494 10.792917 32.8090354 4.387942c15.734666-5.17862 15.776597-29.245652 15.776597-29.245652z" fill="url(#n)"/><path d="m44 48.375a12.625 22.625 0 1 1 -25.25 0 12.625 22.625 0 1 1 25.25 0z" fill="url(#o)" transform="matrix(1.2215052 0 0 .74873804 5.92641 -10.869273)"/><path d="m44 48.375a12.625 22.625 0 1 1 -25.25 0 12.625 22.625 0 1 1 25.25 0z" transform="matrix(.50900227 .08215301 -.05570598 .28203704 25.454799 9.148194)"/><path d="m44 48.375a12.625 22.625 0 1 1 -25.25 0 12.625 22.625 0 1 1 25.25 0z" transform="matrix(.37879236 .03293169 -.02119954 .1991893 9.366258 14.522467)"/><path d="m60.125891 33.730283s20.506835 12.144222 25.811218 20.512846c5.30437 8.368621 3.529109 16.316124 3.529109 16.316124s-25.371189-15.013247-27.69818-22.621531c-2.326949-7.60829-1.642147-14.207439-1.642147-14.207439z" fill="url(#p)"/><path d="m32.143094 84.648289s.621108 1.43554-1.278999 1.994376c-.812261.238893-1.899972-2.155625-1.899972-2.155625" fill="none" opacity=".29386" stroke="#000" stroke-width=".796739"/><path d="m67.882252 75.493904a10.606602 6.0104074 0 1 1 -21.213204 0 10.606602 6.0104074 0 1 1 21.213204 0z" fill="url(#j)" opacity=".416667" transform="matrix(.8089245 .71215239 -.43834312 .48505422 63.207974 -17.806833)"/><path d="m15.479464 4.3965992-3.956127 17.5003818s-1.6047577-4.093013-4.0460388-16.7603156c-1.9547718 1.0112779-3.2818221 2.9790912-3.2818221 5.3110606v72.700573c0 3.356125 2.7308292 6.051129 6.1589939 6.051129h74.267565c3.428158 0 6.203932-2.695004 6.203932-6.051129v-72.700573c0-3.3264868-2.727684-6.0041249-6.114026-6.0511268l-2.742326 9.3161228s-1.166941-2.468957-2.922153-9.3161228h-1.393633l-3.731367 13.4082518s-1.576439-3.312548-4.001101-13.4082518h-43.247795l-1.393646 4.3968633s-.627848-1.1966473-1.573474-4.3968633h-1.438619l-2.517526 9.3161228s-1.064352-2.432872-2.652404-9.3161228z" fill="none" opacity=".327189" stroke="url(#q)" stroke-width="1.736972"/><path d="m-48.643039 92.316796c-3.324 0-6-2.676-6-6v-2-68-2c0-.334721.04135-.6507.09375-.96875.0487-.295596.09704-.596915.1875-.875.0099-.03038.02089-.0636.03125-.09375.09887-.287771.23488-.547452.375-.8125.144592-.273507.315616-.535615.5-.78125s.373776-.473472.59375-.6875c.439947-.4280556.94291-.8145256 1.5-1.0937496.278545-.139612.573473-.246947.875-.34375-.256202.100222-.486711.236272-.71875.375-.0074.0044-.02387-.0045-.03125 0-.03193.0193-.06229.04251-.09375.0625-.120395.0767-.231023.163513-.34375.25-.106173.0808-.213281.161112-.3125.25-.17793.161433-.34746.345388-.5.5312496-.107579.130255-.218394.265285-.3125.40625-.02509.03838-.03845.08587-.0625.125-.06476.103032-.130228.204517-.1875.3125-.101008.194706-.205675.415701-.28125.625-.008.02181-.02359.04055-.03125.0625-.03182.09195-.0358.186831-.0625.28125-.03033.106618-.07039.203031-.09375.3125-.07288.341512-.125.698205-.125 1.0625v2 68 2c0 2.781848 2.218152 5 5 5h2 68 2c2.781848 0 5-2.218152 5-5v-2-68-2c0-.364295-.05212-.720988-.125-1.0625-.04415-.206893-.08838-.397658-.15625-.59375-.0077-.02195-.0233-.04069-.03125-.0625-.06274-.173739-.138383-.367449-.21875-.53125-.04158-.0828-.07904-.169954-.125-.25-.0546-.09721-.126774-.18835-.1875-.28125-.09411-.140965-.204921-.275995-.3125-.40625-.143174-.1744496-.303141-.3469976-.46875-.4999996-.01117-.0102-.01998-.02115-.03125-.03125-.138386-.125556-.285091-.234436-.4375-.34375-.102571-.07315-.204318-.153364-.3125-.21875-.0074-.0045-.02384.0044-.03125 0-.232039-.138728-.462548-.274778-.71875-.375.301527.0968.596455.204138.875.34375.55709.279224 1.060053.665694 1.5 1.0937496.219973.214028.409366.441865.59375.6875s.355408.507743.5.78125c.14012.265048.276135.524729.375.8125.01041.03078.02133.06274.03125.09375.09046.278085.1388.579404.1875.875.0524.31805.09375.634029.09375.96875v2 68 2c0 3.324-2.676 6-6 6z" fill="url(#r)" opacity=".322581" transform="matrix(1.0218908 0 0 1.0352094 60.37476 -4.293826)"/><g fill="url(#s)"><path d="m-19.5 56.125a7.875 20.625 0 1 1 -15.75 0 7.875 20.625 0 1 1 15.75 0z" opacity=".421053" transform="matrix(.39800058 -.41207627 .40570079 .40505005 66.218796 19.260804)"/><path d="m-19.5 56.125a7.875 20.625 0 1 1 -15.75 0 7.875 20.625 0 1 1 15.75 0z" opacity=".267544" transform="matrix(.39800058 -.41207627 .40570079 .40505005 70.287956 20.850054)"/><path d="m-19.5 56.125a7.875 20.625 0 1 1 -15.75 0 7.875 20.625 0 1 1 15.75 0z" opacity=".679825" transform="matrix(.35693767 -.40107956 .64775478 .22144482 5.803661 23.517374)"/><path d="m-19.5 56.125a7.875 20.625 0 1 1 -15.75 0 7.875 20.625 0 1 1 15.75 0z" opacity=".679825" transform="matrix(.35693767 -.40107956 .64775478 .22144482 10.891603 24.661324)"/></g></g></svg>