<svg height="96" width="96" xmlns="http://www.w3.org/2000/svg" xmlns:xlink="http://www.w3.org/1999/xlink"><linearGradient id="a"><stop offset="0" stop-color="#fefefe"/><stop offset="1" stop-color="#fefefe" stop-opacity="0"/></linearGradient><linearGradient id="b" gradientUnits="userSpaceOnUse" x1="36.357143" x2="36.357143" xlink:href="#a" y1="6" y2="63.893143"/><filter id="c" color-interpolation-filters="sRGB" height="1.384" width="1.384" x="-.192" y="-.192"><feGaussianBlur stdDeviation="5.28"/></filter><linearGradient id="d" gradientUnits="userSpaceOnUse" x1="48" x2="48" xlink:href="#a" y1="20.220806" y2="138.66119"/><radialGradient id="e" cx="48" cy="90.171875" gradientTransform="matrix(1.1573129 0 0 .99590774 -7.551021 .197132)" gradientUnits="userSpaceOnUse" r="42" xlink:href="#a"/><clipPath id="f"><rect height="84" rx="6" width="84" x="6" y="6"/></clipPath><linearGradient id="g" gradientUnits="userSpaceOnUse" x1="47.7241392" x2="47.7241392" y1="90.448278" y2="4.98750562388"><stop offset="0" stop-color="#242424"/><stop offset="1" stop-color="#505050"/></linearGradient><linearGradient id="h"><stop offset="0" stop-color="#fdb377"/><stop offset="1" stop-color="#fdb377" stop-opacity="0"/></linearGradient><radialGradient id="i" cx="99.94442" cy="67.783485" gradientTransform="matrix(1 0 0 .6034483 0 26.879657)" gradientUnits="userSpaceOnUse" r="14.491941"><stop offset="0" stop-color="#fdb377"/><stop offset=".82258064" stop-color="#fdb377" stop-opacity=".46875"/><stop offset="1" stop-color="#fdb377" stop-opacity="0"/></radialGradient><filter id="j" color-interpolation-filters="sRGB" height="1.210887" width="1.1929" x="-.09645" y="-.105444"><feGaussianBlur stdDeviation="2.2552138"/></filter><filter id="k" color-interpolation-filters="sRGB" height="1.210887" width="1.240287" x="-.120143" y="-.105444"><feGaussianBlur stdDeviation="2.2552138"/></filter><linearGradient id="l" gradientUnits="userSpaceOnUse" spreadMethod="reflect" x1="28.274937" x2="30.996277" xlink:href="#h" y1="31.704529" y2="5.812706"/><linearGradient id="m" gradientUnits="userSpaceOnUse" spreadMethod="reflect" x1="68.954239" x2="66.271294" xlink:href="#h" y1="64.098991" y2="89.625511"/><clipPath id="n"><path d="m34.3125 6c-2.8756.00634-5.80714.026275-8.8125.0625-24.682208 28.496894-.18233 46.842213 20.4375 51.28125-21.82374-14.150499-4.06283-40.539758 14.25-51.3125-9.01648.0442935-17.24821-.0502635-25.875-.03125zm16.59375 32.46875c21.82374 14.150496 2.495 41.958775-25.34375 51.3125 12.02197-.05906 37.91608.0824 49.9375-.0625 16.88827-29.738529-3.97392-46.810961-24.59375-51.25z"/></clipPath><linearGradient id="o" gradientTransform="translate(0 -97)" gradientUnits="userSpaceOnUse" x1="32.251034" x2="32.251034" xlink:href="#p" y1="6.131708" y2="90.238609"/><linearGradient id="p" gradientTransform="matrix(1.0058652 0 0 .994169 100 0)" gradientUnits="userSpaceOnUse" x1="45.447727" x2="45.447727" y1="92.539597" y2="7.01654"><stop offset="0"/><stop offset="1" stop-opacity=".588235"/></linearGradient><linearGradient id="q" gradientTransform="matrix(1.0238095 0 0 1.0119048 -1.142857 -98.071429)" gradientUnits="userSpaceOnUse" x1="32.251034" x2="32.251034" xlink:href="#p" y1="6.131708" y2="90.238609"/><g><g fill="url(#q)"><path d="m12-95.03125c-5.5110903 0-10.03125 4.52016-10.03125 10.03125v71c0 5.5110902 4.5201598 10.03125 10.03125 10.03125h72c5.51109 0 10.03125-4.5201597 10.03125-10.03125v-71c0-5.51109-4.52016-10.03125-10.03125-10.03125z" opacity=".08" transform="scale(1 -1)"/><path d="m12-94.03125c-4.971633 0-9.03125 4.059617-9.03125 9.03125v71c0 4.9716329 4.0596171 9.03125 9.03125 9.03125h72c4.971633 0 9.03125-4.059617 9.03125-9.03125v-71c0-4.971633-4.059617-9.03125-9.03125-9.03125z" opacity=".1" transform="scale(1 -1)"/><path d="m12-93c-4.4091333 0-8 3.590867-8 8v71c0 4.4091333 3.5908667 8 8 8h72c4.409133 0 8-3.5908667 8-8v-71c0-4.409133-3.590867-8-8-8z" opacity=".2" transform="scale(1 -1)"/><rect height="85" opacity=".3" rx="7" transform="scale(1 -1)" width="86" x="5" y="-92"/></g><rect fill="url(#o)" height="84" opacity=".45" rx="6" transform="scale(1 -1)" width="84" x="6" y="-91"/></g><rect fill="url(#g)" height="84" rx="6" width="84" x="6" y="6"/><g fill-rule="evenodd"><path d="m12.53125 6c-3.610551 0-6.53125 2.920699-6.53125 6.53125v36.9375c4.869569-2.841757 8.574151-3.084487 12.46875 1.03125 2.08904 2.207658 6.657708 1.523014 9.75-.15625 5.833155-1.553824 5.662928-1.456263 10.3125.71875 2.750239 1.430501 3.554628.728377 4.28125-.8125 2.610228-.202045 12.545241 6.501777 13.53125 3.03125 1.254988-3.108028 2.243723-1.655129 4.8125-.375 4.401208 3.064233 12.078556-.841574 17.59375 1.34375 3.87103 2.221575 9.42347.03455 11.21875-4.8125.0141-.02252.01715-.03996.03125-.0625v-36.84375c0-3.610551-2.92071-6.53125-6.53125-6.53125z" fill="#c8c8c8" opacity=".1"/><path d="m50.804251 37.858747c-.238861.04576-.428904.244023-.476561.488057-.04766.244034.05664.484835.259942.621163 5.347945 3.467602 8.111974 7.70269 8.90302 12.267974.791047 4.565283-.399313 9.519796-3.140968 14.375492-5.48331 9.711394-17.184302 18.947904-30.976445 23.582016-.239511.09727-.381379.34066-.368251.598978h51.143627c8.374921-14.894604 7.397608-26.854861 1.624638-35.539408-5.804288-8.731656-16.309854-14.150867-26.730722-16.394272-.07861-.01645-.159666-.01645-.23828 0z"/><path d="m24.701722 6.0241312c-6.008435 7.0401348-9.082592 13.5217408-9.942789 19.3669818-.875827 5.95145.565448 11.223562 3.444234 15.684372 5.75757 8.921621 17.166627 14.636836 27.597196 16.882329.28575.04394.563316-.124927.671518-.399319.108201-.27439.01878-.582661-.216619-.754269-5.349467-3.468591-8.1943-7.625914-9.271272-12.090499-1.076971-4.464586-.36054-9.277617 1.602977-14.042726 3.927034-9.530219 12.85906-18.773743 21.90013-24.0922598.199582-.1142074.323343-.3287572.324928-.55461h-36.110303z"/><path d="m25.50321 6.0685c-24.68220823 28.496894-.192708 46.829114 20.427124 51.268151-21.823743-14.150499-4.059335-40.539778 14.253497-51.3125198-12.021968.059058-22.659198-.1005305-34.680621.0443688z" fill="#e72121"/></g><path d="m114.43636 67.783485a14.491941 8.7451372 0 1 1 -28.983882 0 14.491941 8.7451372 0 1 1 28.983882 0z" fill="#e00" stroke="#000" stroke-linecap="square" stroke-linejoin="round" stroke-width="1.425537" transform="matrix(.49015172 .50197571 -.49015172 .50197571 32.614386 -36.287054)"/><path d="m41.85783 51.701108c-12.847586-10.003778 1.904252-35.741518 16.778366-42.5187962-21.595815 15.3786822-25.037394 35.0655342-16.778366 42.5187962z" fill="#fefefe" fill-rule="evenodd" opacity=".3"/><path d="m49.144784 39.346826c-9.443994-5.454719-11.289616-1.282267-9.85882 5.769513-.371674-3.64606-.04749-9.276373 9.85882-5.769513z" fill-rule="evenodd" opacity=".3"/><path d="m47.672556 56.412797c9.443994 5.454719 11.289616 1.282268 9.85882-5.769513.371674 3.64606.04748 9.276373-9.85882 5.769513z" fill="#fefefe" fill-rule="evenodd" opacity=".3"/><path d="m31.959289 53.302006c-18.820113-5.561716-28.7372185-26.61669-11.823406-42.763887-14.8754118 20.739244-2.806927 36.358407 11.823406 42.763887z" fill-rule="evenodd" opacity=".3"/><path d="m114.43636 67.783485a14.491941 8.7451372 0 1 1 -28.983882 0 14.491941 8.7451372 0 1 1 28.983882 0z" fill="url(#i)" transform="matrix(.49738705 .50938559 -.49738705 .50938559 32.38169 -37.5299)"/><path d="m75.507424 89.729651c16.888271-29.738529-3.966367-46.82911-24.586199-51.268149 21.823743 14.150496 2.494384 41.958793-25.344365 51.312518 12.021969-.05906 37.909141.100529 49.930564-.04437z" fill="#e72121" fill-rule="evenodd"/><path d="m54.993729 44.097043c12.847586 10.003781-3.28984 33.613-21.281526 40.567657 22.808204-13.427537 30.406546-31.163251 21.281526-40.567657z" fill-rule="evenodd" opacity=".3"/><path d="m64.89227 42.496146c18.820115 5.561718 25.966044 28.567831 13.208996 45.601911 11.931035-21.8035 1.421336-39.196426-13.208996-45.601911z" fill="#fefefe" fill-rule="evenodd" opacity=".2"/><g clip-path="url(#n)" fill-rule="evenodd" opacity=".8"><path d="m52.40625 8.46875c-8.575773-.0127561-16.892075-.0606759-25.71875.03125-5.453186 6.520741-8.141163 12.350404-8.875 17.34375-.766103 5.212895.432799 9.633263 2.96875 13.5625 3.421535 5.301372 9.494091 9.448987 16.0625 12.3125-1.296048-2.002058-2.317225-4.099181-2.84375-6.28125-1.26938-5.26067-.39256-10.736753 1.75-15.9375 3.294845-7.99775 9.569675-15.435188 16.65625-21.03125z" fill="url(#l)" filter="url(#k)"/><path d="m59.09375 43.3125c1.603818 2.329455 2.642147 4.862645 3.09375 7.46875.927705 5.353589-.500792 10.930861-3.46875 16.1875-4.542518 8.04539-12.742331 15.469886-22.78125 20.6875 12.720504.0024 28.507282.03673 38.21875-.0625 7.509556-13.836136 6.457273-24.126634 1.34375-31.8125-3.693122-5.550937-9.728794-9.708708-16.40625-12.46875z" fill="url(#m)" filter="url(#j)"/></g><rect height="66" rx="12" style="opacity:.1;stroke:#fefefe;stroke-width:.5;stroke-linecap:round;clip-path:url(#f);fill:url(#d);filter:url(#c)" width="66" x="15" y="15"/><path d="m12 90c-3.324 0-6-2.676-6-6v-2-68-2c0-.334721.04135-.6507.09375-.96875.0487-.295596.09704-.596915.1875-.875.00988-.03038.020892-.0636.03125-.09375.098865-.287771.2348802-.547452.375-.8125.1445918-.273507.3156161-.535615.5-.78125s.3737765-.473472.59375-.6875c.439947-.428056.94291-.814526 1.5-1.09375.278545-.139612.5734731-.246947.875-.34375-.2562018.100222-.4867109.236272-.71875.375-.00741.0044-.023866-.0045-.03125 0-.031933.0193-.062293.04251-.09375.0625-.120395.0767-.2310226.163513-.34375.25-.1061728.0808-.2132809.161112-.3125.25-.1779299.161433-.3474596.345388-.5.53125-.1075789.130255-.2183939.265285-.3125.40625-.025089.03838-.038446.08587-.0625.125-.064763.103032-.1302275.204517-.1875.3125-.1010083.194706-.2056748.415701-.28125.625-.00796.02181-.023589.04055-.03125.0625-.0318251.09195-.0358045.186831-.0625.28125-.0303323.106618-.0703894.203031-.09375.3125-.0728786.341512-.125.698205-.125 1.0625v2 68 2c0 2.781848 2.2181517 5 5 5h2 68 2c2.781848 0 5-2.218152 5-5v-2-68-2c0-.364295-.05212-.720988-.125-1.0625-.04415-.206893-.08838-.397658-.15625-.59375-.0077-.02195-.0233-.04069-.03125-.0625-.06274-.173739-.138383-.367449-.21875-.53125-.04158-.0828-.07904-.169954-.125-.25-.0546-.09721-.126774-.18835-.1875-.28125-.09411-.140965-.204921-.275995-.3125-.40625-.143174-.17445-.303141-.346998-.46875-.5-.01117-.0102-.01998-.02115-.03125-.03125-.138386-.125556-.285091-.234436-.4375-.34375-.102571-.07315-.204318-.153364-.3125-.21875-.0074-.0045-.02384.0044-.03125 0-.232039-.138728-.462548-.274778-.71875-.375.301527.0968.596455.204138.875.34375.55709.279224 1.060053.665694 1.5 1.09375.219973.214028.409366.441865.59375.6875s.355408.507743.5.78125c.14012.265048.276135.524729.375.8125.01041.03078.02133.06274.03125.09375.09046.278085.1388.579404.1875.875.0524.31805.09375.634029.09375.96875v2 68 2c0 3.324-2.676 6-6 6z" fill="url(#e)" opacity=".2"/><path d="m12 6c-3.324 0-6 2.676-6 6v2 68 2c0 .334721.04135.6507.09375.96875.0487.295596.09704.596915.1875.875.00988.03038.020892.0636.03125.09375.098865.287771.2348802.547452.375.8125.1445918.273507.3156161.535615.5.78125s.3737765.473472.59375.6875c.439947.428056.94291.814526 1.5 1.09375.278545.139612.5734731.246947.875.34375-.2562018-.100222-.4867109-.236272-.71875-.375-.00741-.0044-.023866.0045-.03125 0-.031933-.0193-.062293-.04251-.09375-.0625-.120395-.0767-.2310226-.163513-.34375-.25-.1061728-.0808-.2132809-.161112-.3125-.25-.1779299-.161433-.3474596-.345388-.5-.53125-.1075789-.130255-.2183939-.265285-.3125-.40625-.025089-.03838-.038446-.08587-.0625-.125-.064763-.103032-.1302275-.204517-.1875-.3125-.1010083-.194706-.2056748-.415701-.28125-.625-.00796-.02181-.023589-.04055-.03125-.0625-.0318251-.09195-.0358045-.186831-.0625-.28125-.0303323-.106618-.0703894-.203031-.09375-.3125-.0728786-.341512-.125-.698205-.125-1.0625v-2-68-2c0-2.781848 2.2181517-5 5-5h2 68 2c2.781848 0 5 2.218152 5 5v2 68 2c0 .364295-.05212.720988-.125 1.0625-.04415.206893-.08838.397658-.15625.59375-.0077.02195-.0233.04069-.03125.0625-.06274.173739-.138383.367449-.21875.53125-.04158.0828-.07904.169954-.125.25-.0546.09721-.126774.18835-.1875.28125-.09411.140965-.204921.275995-.3125.40625-.143174.17445-.303141.346998-.46875.5-.01117.0102-.01998.02115-.03125.03125-.138386.125556-.285091.234436-.4375.34375-.102571.07315-.204318.153364-.3125.21875-.0074.0045-.02384-.0044-.03125 0-.232039.138728-.462548.274778-.71875.375.301527-.0968.596455-.204138.875-.34375.55709-.279224 1.060053-.665694 1.5-1.09375.219973-.214028.409366-.441865.59375-.6875s.355408-.507743.5-.78125c.14012-.265048.276135-.524729.375-.8125.01041-.03078.02133-.06274.03125-.09375.09046-.278085.1388-.579404.1875-.875.0524-.31805.09375-.634029.09375-.96875v-2-68-2c0-3.324-2.676-6-6-6z" fill="url(#b)" opacity=".3"/></svg>