<svg height="96" width="96" xmlns="http://www.w3.org/2000/svg" xmlns:xlink="http://www.w3.org/1999/xlink"><linearGradient id="a"><stop offset="0" stop-color="#fefefe"/><stop offset="1" stop-color="#fefefe" stop-opacity="0"/></linearGradient><linearGradient id="b" gradientUnits="userSpaceOnUse" x1="36.357143" x2="36.357143" xlink:href="#a" y1="6" y2="63.893143"/><radialGradient id="c" cx="48" cy="90.171875" gradientTransform="matrix(1.1573129 0 0 .99590774 -7.551021 .197132)" gradientUnits="userSpaceOnUse" r="42" xlink:href="#a"/><linearGradient id="d" gradientTransform="scale(1.0058652 .994169)" gradientUnits="userSpaceOnUse" x1="48" x2="48" y1="90" y2="5.987717"><stop offset="0" stop-color="#323232"/><stop offset="1" stop-color="#505050" stop-opacity=".968627"/></linearGradient><linearGradient id="e" gradientTransform="matrix(1.0058652 0 0 .994169 100 0)" gradientUnits="userSpaceOnUse" x1="45.447727" x2="45.447727" y1="92.539597" y2="7.01654"><stop offset="0"/><stop offset="1" stop-opacity=".588235"/></linearGradient><linearGradient id="f" gradientTransform="matrix(1.0238095 0 0 1.0119048 -1.142857 -98.071429)" gradientUnits="userSpaceOnUse" x1="32.251034" x2="32.251034" xlink:href="#e" y1="6.131708" y2="90.238609"/><linearGradient id="g" gradientTransform="translate(0 -97)" gradientUnits="userSpaceOnUse" x1="32.251034" x2="32.251034" xlink:href="#e" y1="6.131708" y2="90.238609"/><g><g fill="url(#f)"><path d="m12-95.03125c-5.5110903 0-10.03125 4.52016-10.03125 10.03125v71c0 5.5110902 4.5201598 10.03125 10.03125 10.03125h72c5.51109 0 10.03125-4.5201597 10.03125-10.03125v-71c0-5.51109-4.52016-10.03125-10.03125-10.03125z" opacity=".08" transform="scale(1 -1)"/><path d="m12-94.03125c-4.971633 0-9.03125 4.059617-9.03125 9.03125v71c0 4.9716329 4.0596171 9.03125 9.03125 9.03125h72c4.971633 0 9.03125-4.059617 9.03125-9.03125v-71c0-4.971633-4.059617-9.03125-9.03125-9.03125z" opacity=".1" transform="scale(1 -1)"/><path d="m12-93c-4.4091333 0-8 3.590867-8 8v71c0 4.4091333 3.5908667 8 8 8h72c4.409133 0 8-3.5908667 8-8v-71c0-4.409133-3.590867-8-8-8z" opacity=".2" transform="scale(1 -1)"/><rect height="85" opacity=".3" rx="7" transform="scale(1 -1)" width="86" x="5" y="-92"/></g><rect fill="url(#g)" height="84" opacity=".45" rx="6" transform="scale(1 -1)" width="84" x="6" y="-91"/></g><rect fill="url(#d)" height="84" rx="6" width="84" x="6" y="6"/><path d="m12 6c-3.324 0-6 2.676-6 6v2 68 2c0 .334721.04135.6507.09375.96875.0487.295596.09704.596915.1875.875.00988.03038.020892.0636.03125.09375.098865.287771.2348802.547452.375.8125.1445918.273507.3156161.535615.5.78125s.3737765.473472.59375.6875c.439947.428056.94291.814526 1.5 1.09375.278545.139612.5734731.246947.875.34375-.2562018-.100222-.4867109-.236272-.71875-.375-.00741-.0044-.023866.0045-.03125 0-.031933-.0193-.062293-.04251-.09375-.0625-.120395-.0767-.2310226-.163513-.34375-.25-.1061728-.0808-.2132809-.161112-.3125-.25-.1779299-.161433-.3474596-.345388-.5-.53125-.1075789-.130255-.2183939-.265285-.3125-.40625-.025089-.03838-.038446-.08587-.0625-.125-.064763-.103032-.1302275-.204517-.1875-.3125-.1010083-.194706-.2056748-.415701-.28125-.625-.00796-.02181-.023589-.04055-.03125-.0625-.0318251-.09195-.0358045-.186831-.0625-.28125-.0303323-.106618-.0703894-.203031-.09375-.3125-.0728786-.341512-.125-.698205-.125-1.0625v-2-68-2c0-2.781848 2.2181517-5 5-5h2 68 2c2.781848 0 5 2.218152 5 5v2 68 2c0 .364295-.05212.720988-.125 1.0625-.04415.206893-.08838.397658-.15625.59375-.0077.02195-.0233.04069-.03125.0625-.06274.173739-.138383.367449-.21875.53125-.04158.0828-.07904.169954-.125.25-.0546.09721-.126774.18835-.1875.28125-.09411.140965-.204921.275995-.3125.40625-.143174.17445-.303141.346998-.46875.5-.01117.0102-.01998.02115-.03125.03125-.138386.125556-.285091.234436-.4375.34375-.102571.07315-.204318.153364-.3125.21875-.0074.0045-.02384-.0044-.03125 0-.232039.138728-.462548.274778-.71875.375.301527-.0968.596455-.204138.875-.34375.55709-.279224 1.060053-.665694 1.5-1.09375.219973-.214028.409366-.441865.59375-.6875s.355408-.507743.5-.78125c.14012-.265048.276135-.524729.375-.8125.01041-.03078.02133-.06274.03125-.09375.09046-.278085.1388-.579404.1875-.875.0524-.31805.09375-.634029.09375-.96875v-2-68-2c0-3.324-2.676-6-6-6z" fill="url(#b)" opacity=".2"/><path d="m12 90c-3.324 0-6-2.676-6-6v-2-68-2c0-.334721.04135-.6507.09375-.96875.0487-.295596.09704-.596915.1875-.875.00988-.03038.020892-.0636.03125-.09375.098865-.287771.2348802-.547452.375-.8125.1445918-.273507.3156161-.535615.5-.78125s.3737765-.473472.59375-.6875c.439947-.428056.94291-.814526 1.5-1.09375.278545-.139612.5734731-.246947.875-.34375-.2562018.100222-.4867109.236272-.71875.375-.00741.0044-.023866-.0045-.03125 0-.031933.0193-.062293.04251-.09375.0625-.120395.0767-.2310226.163513-.34375.25-.1061728.0808-.2132809.161112-.3125.25-.1779299.161433-.3474596.345388-.5.53125-.1075789.130255-.2183939.265285-.3125.40625-.025089.03838-.038446.08587-.0625.125-.064763.103032-.1302275.204517-.1875.3125-.1010083.194706-.2056748.415701-.28125.625-.00796.02181-.023589.04055-.03125.0625-.0318251.09195-.0358045.186831-.0625.28125-.0303323.106618-.0703894.203031-.09375.3125-.0728786.341512-.125.698205-.125 1.0625v2 68 2c0 2.781848 2.2181517 5 5 5h2 68 2c2.781848 0 5-2.218152 5-5v-2-68-2c0-.364295-.05212-.720988-.125-1.0625-.04415-.206893-.08838-.397658-.15625-.59375-.0077-.02195-.0233-.04069-.03125-.0625-.06274-.173739-.138383-.367449-.21875-.53125-.04158-.0828-.07904-.169954-.125-.25-.0546-.09721-.126774-.18835-.1875-.28125-.09411-.140965-.204921-.275995-.3125-.40625-.143174-.17445-.303141-.346998-.46875-.5-.01117-.0102-.01998-.02115-.03125-.03125-.138386-.125556-.285091-.234436-.4375-.34375-.102571-.07315-.204318-.153364-.3125-.21875-.0074-.0045-.02384.0044-.03125 0-.232039-.138728-.462548-.274778-.71875-.375.301527.0968.596455.204138.875.34375.55709.279224 1.060053.665694 1.5 1.09375.219973.214028.409366.441865.59375.6875s.355408.507743.5.78125c.14012.265048.276135.524729.375.8125.01041.03078.02133.06274.03125.09375.09046.278085.1388.579404.1875.875.0524.31805.09375.634029.09375.96875v2 68 2c0 3.324-2.676 6-6 6z" fill="url(#c)" opacity=".2"/><g transform="matrix(.44321766 0 0 .44321766 76.234585 42.569302)"><path d="m-100.75424 42.206865c-7.45429-3.04266-12.46198-8.21372-15.5528-16.06021-3.26991-8.30111-3.33325-28.0948799-.12737-39.79745 4.53195-16.543127 14.66563-34.167716 25.558573-44.45171 10.84608-10.239751 19.78275-11.856326 34.39404-6.221618 10.46132 4.034314 14.22756 7.068314 14.22756 11.461418 0 3.744561-2.55981 6.566094-5.95702 6.566094-1.26474 0-4.60431-1.307441-7.42125-2.905425-11.71735-6.646953-17.71484-6.513644-25.59228.568851-9.72212 8.741021-19.009513 24.425512-22.700573 38.336574-2.55328 9.62293608-2.45472 27.201306.18215 32.486806 2.65708 5.326 7.353923 8.28546 14.417883 9.08466l6.970919.498058-2.389185 6.643207c-.864997 2.405155-1.115173 6.670305-1.115173 6.670305-1.9281-.013-11.595471-1.53258-14.895474-2.87956zm29.500793-.68609c.001-2.46018 5.67215-13.28668 11.21876-21.41893 5.29847-7.76844 10.47196-19.0402799 9.28417-20.22806992-1.23529-1.23528998-18.82989 1.85143002-27.47711 4.82047002-8.5866 2.94824-9.31942 3.04731-11.58076 1.56562-2.9236-1.91562-4.01616-5.62232002-2.49498-8.464684 3.10552-5.802711 21.23104-10.7487791 43.08328-11.7565061 11.97191-.55209 13.73203-.426248 15.24849 1.090217 2.93682 2.9368141 3.21447 6.4108481.77597 9.7090961-1.20922 1.635557-2.89265 5.311867-3.74095 8.169567-5.14374 17.3279199-18.623566 33.7171069-32.06766 37.1500399-3.217216.821512-3.520936 1.789844-2.24921-.63682z" fill="#328cff"/><path d="m-59.681817 89.845803c-10.42022-2.04707-18.97917-9.0977-23.97133-19.74692-2.38318-5.08377-2.65756-6.8214-2.63309-16.67515.0216-8.72053.49109-12.35757 2.26536-17.55118 2.92492-8.56175 9.71409-20.379506 16.6136-28.9188903 5.49976-6.80695099 5.55479-6.84269299 11.06186-7.18545599 3.044023-.189462 5.737367-.31778729 5.736617.0255597.677237 2.30011359-3.164049 11.31141259-9.005261 20.26961359-3.82809 5.870838-8.81733 13.671253-10.03253 16.894823s-2.017537 5.556262-2.183557 5.929575c-.266205.598592-1.638549 4.162325-1.827199 8.594555-.39591 9.30183 1.09766 13.99579 6.14447 19.31064 8.59312 9.04951 20.220964 8.25191 36.225379-2.48486 8.504711-5.70549 12.093986-6.5667 14.818957-3.55564 4.364549 4.82277.378839 10.6817-12.345012 18.14697-10.570208 6.20169-21.797798 8.72826-30.868264 6.94636zm38.392163-80.6720723c-.80109-.9625-2.498662-3.325-3.772382-5.25-1.851537-2.798266-3.061263-3.56222699-6.033686-3.81036499-2.044807-.170701-3.663899-.37337132-3.663899-.61517032s.696717-1.42817779 1.610504-2.77821939c1.204978-1.780251 2.202213-3.8374234.962735-6.6360174-.944486-2.1325356-1.921751-3.1199896-3.43425-3.9648536l7.925212.949027c2.016282.241445 4.29243-.240248 5.037813-.858862 1.896984-1.574356 6.130144-2.453185 7.44435-1.545491 2.322944 1.604409 3.626024 5.8026687 4.143239 13.3486697.429973 6.273182.205539 8.340059-1.126336 10.372757-1.991411 3.0392783-6.868036 3.4621543-9.0933.788525z" fill="#ff4644"/></g></svg>