<svg height="96" width="96" xmlns="http://www.w3.org/2000/svg" xmlns:xlink="http://www.w3.org/1999/xlink"><linearGradient id="a" gradientUnits="userSpaceOnUse" x1="61.294735" x2="117.36092" xlink:href="#c" y1="121.32806" y2="18.868103"/><filter id="b" color-interpolation-filters="sRGB"><feGaussianBlur stdDeviation=".91605611"/></filter><linearGradient id="c"><stop offset="0"/><stop offset="1" stop-opacity="0"/></linearGradient><linearGradient id="d" gradientUnits="userSpaceOnUse" x1="61.294735" x2="104.6299" xlink:href="#c" y1="121.32806" y2="41.346642"/><filter id="e" color-interpolation-filters="sRGB" height="1.27541" width="2.866667" x="-.933333" y="-.137705"><feGaussianBlur stdDeviation=".92807767"/></filter><filter id="f" color-interpolation-filters="sRGB" height="1.271477" width="3.069921" x="-1.034961" y="-.135738"><feGaussianBlur stdDeviation=".9498173"/></filter><linearGradient id="g" gradientUnits="userSpaceOnUse" spreadMethod="repeat" x1="137" x2="139.03125" y1="106" y2="106"><stop offset="0" stop-color="#3d3d3d"/><stop offset="1" stop-color="#fff"/></linearGradient><linearGradient id="h" gradientUnits="userSpaceOnUse" spreadMethod="reflect" x1="143.000002" x2="149.000002" xlink:href="#n" y1="111.500001" y2="111.500001"/><linearGradient id="i" gradientUnits="userSpaceOnUse" spreadMethod="reflect" x1="143.000002" x2="149.000002" xlink:href="#B" y1="110.500001" y2="110.500001"/><linearGradient id="j" gradientUnits="userSpaceOnUse" spreadMethod="reflect" x1="143.000002" x2="149.000002" xlink:href="#n" y1="109.500001" y2="109.500001"/><linearGradient id="k" gradientUnits="userSpaceOnUse" spreadMethod="reflect" x1="143.000002" x2="149.000002" xlink:href="#B" y1="108.500001" y2="108.500001"/><linearGradient id="l" gradientUnits="userSpaceOnUse" spreadMethod="reflect" x1="143.000002" x2="149.000002" xlink:href="#n" y1="103.500001" y2="103.500001"/><linearGradient id="m" gradientUnits="userSpaceOnUse" spreadMethod="reflect" x1="143.000002" x2="149.000002" xlink:href="#B" y1="102.500001" y2="102.500001"/><linearGradient id="n"><stop offset="0" stop-color="#fff"/><stop offset=".69999999" stop-color="#fff" stop-opacity=".498039"/><stop offset="1" stop-color="#fff" stop-opacity="0"/></linearGradient><linearGradient id="o" gradientUnits="userSpaceOnUse" spreadMethod="reflect" x1="143.000002" x2="149.000002" xlink:href="#n" y1="101.500001" y2="101.500001"/><linearGradient id="p" gradientUnits="userSpaceOnUse" spreadMethod="reflect" x1="143.000002" x2="149.000002" xlink:href="#B" y1="100.500001" y2="100.500001"/><linearGradient id="q" gradientUnits="userSpaceOnUse" x1="136" x2="150" y1="106" y2="106"><stop offset="0" stop-color="#444542"/><stop offset="1" stop-color="#71746e"/></linearGradient><linearGradient id="r" gradientUnits="userSpaceOnUse" x1="136" x2="150" y1="106" y2="106"><stop offset="0" stop-color="#404040"/><stop offset=".2" stop-color="#808080"/><stop offset=".69999999" stop-color="#efefef"/><stop offset="1" stop-color="#dcdcdc"/></linearGradient><filter id="s" color-interpolation-filters="sRGB" height="1.2988" width="2.219592" x="-.609796" y="-.1494"><feGaussianBlur stdDeviation=".77812506"/></filter><filter id="t" color-interpolation-filters="sRGB" height="1.227422" width="1.863226" x="-.431613" y="-.113711"><feGaussianBlur stdDeviation=".73914765"/></filter><linearGradient id="u" gradientTransform="matrix(1 0 0 1.2653524 -29.85843 -54.364173)" gradientUnits="userSpaceOnUse" x1="146.10596" x2="146.07562" xlink:href="#v" y1="118.94019" y2="66"/><linearGradient id="v"><stop offset="0" stop-color="#fff"/><stop offset="1" stop-color="#fff" stop-opacity="0"/></linearGradient><linearGradient id="w" gradientTransform="matrix(1 0 0 1.2653524 -23.73343 -54.364173)" gradientUnits="userSpaceOnUse" x1="146.10596" x2="146.07562" xlink:href="#v" y1="118.94019" y2="66"/><linearGradient id="x" gradientUnits="userSpaceOnUse" x1="113.25461" x2="125.2617" y1="17.043356" y2="17.043356"><stop offset="0" stop-color="#da8539"/><stop offset="1" stop-color="#fadfc7"/></linearGradient><linearGradient id="y" gradientUnits="userSpaceOnUse" x1="117.51659" x2="121.07909" y1="4.921872" y2="4.921872"><stop offset="0"/><stop offset=".5" stop-color="#7d7d7d"/><stop offset="1"/></linearGradient><linearGradient id="z" gradientUnits="userSpaceOnUse" x1="119.26657" x2="119.26657" y1=".000002" y2="120.01752"><stop offset="0"/><stop offset=".06588447"/><stop offset=".07" stop-color="#ad5f1b"/><stop offset=".1913653" stop-color="#ad601a"/><stop offset=".20983393" stop-color="#785800"/><stop offset="1" stop-color="#785700"/></linearGradient><linearGradient id="A" gradientUnits="userSpaceOnUse" x1="112.26657" x2="126.26657" y1="60" y2="60"><stop offset="0" stop-color="#945a00"/><stop offset=".25" stop-color="#e28e0a"/><stop offset=".30000001" stop-color="#ffba14"/><stop offset=".69999999" stop-color="#f3ac00"/><stop offset=".75" stop-color="#ffd314"/><stop offset="1" stop-color="#ffed94"/></linearGradient><linearGradient id="B"><stop offset="0"/><stop offset=".69999999" stop-opacity=".498039"/><stop offset="1" stop-opacity="0"/></linearGradient><linearGradient id="C" gradientTransform="matrix(1.0893815 0 0 1 -13.275943 0)" gradientUnits="userSpaceOnUse" x1="137.40625" x2="148.53125" xlink:href="#B" y1="116.46875" y2="116.46875"/><filter id="D" color-interpolation-filters="sRGB" height="1.353367" width="1.366887" x="-.183443" y="-.176683"><feGaussianBlur stdDeviation=".65925"/></filter><filter id="E" color-interpolation-filters="sRGB" height="1.333333" width="1.857143" x="-.428571" y="-.166667"><feGaussianBlur stdDeviation=".55242721"/></filter><linearGradient id="F" gradientUnits="userSpaceOnUse" x1="136.41356" x2="149.52968" y1="115.49392" y2="115.49392"><stop offset="0" stop-color="#e6605b"/><stop offset="1" stop-color="#f08682"/></linearGradient><linearGradient id="G"><stop offset="0"/><stop offset="1" stop-opacity=".588235"/></linearGradient><linearGradient id="H" gradientTransform="scale(1.0058652 .994169)" gradientUnits="userSpaceOnUse" x1="45.447727" x2="45.447727" xlink:href="#G" y1="92.539597" y2="7.01654"/><linearGradient id="I" gradientUnits="userSpaceOnUse" x1="36.357143" x2="36.357143" xlink:href="#v" y1="6" y2="63.893143"/><linearGradient id="J" gradientUnits="userSpaceOnUse" x1="48" x2="48" y1="90" y2="5.987717"><stop offset="0" stop-color="#dcdcdc"/><stop offset="1" stop-color="#f5f5f5"/></linearGradient><radialGradient id="K" cx="48" cy="90.171875" gradientTransform="matrix(1.1573129 0 0 .99590774 -7.551021 .197132)" gradientUnits="userSpaceOnUse" r="42" xlink:href="#v"/><linearGradient id="L" gradientTransform="matrix(1.0238095 0 0 1.0119048 -1.142857 .928571)" gradientUnits="userSpaceOnUse" x1="48" x2="48" xlink:href="#H" y1="90" y2="5.987717"/><linearGradient id="M" gradientUnits="userSpaceOnUse" x1="48" x2="48" xlink:href="#G" y1="91" y2="6.987717"/><linearGradient id="N" gradientUnits="userSpaceOnUse" x1="-43.723812" x2="-43.723812" y1="78.145744" y2="-.675956"><stop offset="0"/><stop offset="1" stop-color="#f5f5f5"/></linearGradient><g><path d="m20.90625 4.03125c-1.119919-.039226-2.394393.038225-3.5.8125a.90582636.90582636 0 0 0 -.1875.21875c-.124567-.1239065-.170691-.3445452-.3125-.4375-.564947-.3703198-1.191585-.4853741-1.78125-.53125-1.179329-.091752-2.375524.078075-3.03125 0a.90582636.90582636 0 0 0 -.0625 0c-6.0495585-.1795842-10.6570233 5.6506622-9.9375 11.4375.0000552.04167-.0000543.08333 0 .125.030515 23.419957-.077539 46.822793.03125 70.25a.90582636.90582636 0 0 0 0 .0625c.4299168 5.796659 6.1856257 9.608197 11.65625 8.9375.04188-.0051.08315.0057.125 0 23.668957-.03053 47.323899.07754 71-.03125a.90582636.90582636 0 0 0 .0625 0c5.796659-.429919 9.608197-6.185626 8.9375-11.65625-.0051-.04188.0057-.08315 0-.125-.03051-23.335574.07754-46.657154-.03125-70a.90582636.90582636 0 0 0 0-.0625c-.424923-5.7293294-6.056034-9.4665061-11.46875-8.90625-.100978-.0205853-.209405-.0169484-.3125-.03125-.884307-.1226741-1.849013-.0272948-2.6875.40625-.269401.1392956-.463483.3965714-.6875.625-.372691-.4240388-.836199-.8095295-1.46875-.96875a.90582636.90582636 0 0 0 -.21875-.03125c-3.033095.0345539-6.229358-.2377707-9.40625.125a.90582636.90582636 0 0 0 -.3125.09375c-.414294.2141609-.60892.6109323-.875.9375-.185439-.2140684-.27292-.5465295-.5-.6875-.586128-.3638661-1.232708-.4885828-1.84375-.53125-1.222084-.0853343-2.451686.1125297-3.15625.03125a.90582636.90582636 0 0 0 -.21875 0c-.812752.1113555-1.850439-.02345-2.96875-.0625s-2.392948.037212-3.5.8125a.90582636.90582636 0 0 0 -.1875.21875c-.01486.019982-.01689.042383-.03125.0625-.150476-.1513851-.201302-.4234187-.375-.53125-.586128-.3638661-1.232708-.4885828-1.84375-.53125-1.222084-.0853343-2.451686.1125297-3.15625.03125a.90582636.90582636 0 0 0 -.21875 0c-.812752.1113555-1.850439-.02345-2.96875-.0625s-2.392948.037212-3.5.8125a.90582636.90582636 0 0 0 -.1875.21875c-.014863.0199821-.016885.0423835-.03125.0625-.150476-.1513851-.201302-.4234187-.375-.53125-.586128-.3638661-1.232708-.4885828-1.84375-.53125-1.222084-.0853343-2.451686.1125297-3.15625.03125a.90582636.90582636 0 0 0 -.21875 0c-.812752.1113555-1.850439-.02345-2.96875-.0625s-2.392948.037212-3.5.8125a.90582636.90582636 0 0 0 -.1875.21875c-.01486.019982-.01688.042383-.03125.0625-.150476-.1513851-.201302-.4234187-.375-.53125-.586128-.3638661-1.232708-.4885828-1.84375-.53125-1.222084-.0853343-2.451686.1125297-3.15625.03125a.90582636.90582636 0 0 0 -.21875 0c-.808121.1107211-1.849089-.0232834-2.96875-.0625zm57.84375 8.3125c.201026.225089.344561.493603.625.65625v.03125c.04503.02958.0521.03375.09375.0625.98578.680457 1.084241 1.153991 1 1.53125-.0878.3932-.571145.932733-1.21875 1.21875s-1.366204.296382-1.71875.09375c-.336521-.193422-.587454-.625484-.4375-1.8125.131473-.348897.622364-.737477 1.28125-1.3125.136052-.118736.238546-.325605.375-.46875zm-61.46875.09375c.408191.450973.863545.813739 1.1875 1.09375.28627.247438.456812.458741.53125.625.07444.166259.09357.303898-.03125.6875a.90582636.90582636 0 0 0 0 .03125c-.325433 1.095545-.743516 1.310614-1.15625 1.375-.412734.06439-.993831-.126184-1.46875-.5625s-.770592-1.059696-.75-1.5c.02059-.440304.200828-.854569 1.21875-1.28125a.90582636.90582636 0 0 0 .28125-.1875c.09005-.08243.109697-.192714.1875-.28125zm12.28125 0c.408191.450973.863545.813739 1.1875 1.09375.28627.247438.456812.458741.53125.625.07444.166259.09357.303898-.03125.6875a.90582636.90582636 0 0 0 0 .03125c-.325434 1.095545-.743517 1.310614-1.15625 1.375-.412733.06439-.993831-.126184-1.46875-.5625s-.770592-1.059696-.75-1.5c.02059-.440304.200828-.854569 1.21875-1.28125a.90582636.90582636 0 0 0 .28125-.1875c.09005-.08243.109697-.192714.1875-.28125zm12.28125 0c.408191.450973.863545.813739 1.1875 1.09375.28627.247438.456812.458741.53125.625.07444.166259.09357.303898-.03125.6875a.90582636.90582636 0 0 0 0 .03125c-.325433 1.095545-.743516 1.310614-1.15625 1.375-.412734.06439-.993831-.126184-1.46875-.5625s-.770592-1.059696-.75-1.5c.02059-.440304.200828-.854569 1.21875-1.28125a.90582636.90582636 0 0 0 .28125-.1875c.09005-.08243.109697-.192714.1875-.28125zm12.28125 0c.408343.450688.86385.814129 1.1875 1.09375.286.247093.456928.458802.53125.625.07432.166198.09375.302764-.03125.6875a.90582636.90582636 0 0 0 0 .03125c-.31729 1.091755-.713819 1.31137-1.125 1.375s-1.021672-.156233-1.5-.59375-.769167-1.031139-.75-1.46875c.01917-.437611.198808-.856404 1.21875-1.28125a.90582636.90582636 0 0 0 .28125-.1875c.09005-.08243.109697-.192714.1875-.28125zm12.25 0c.39574.436423.835222.790037 1.15625 1.0625.301951.256272.513511.453631.59375.625.08024.171369.09739.323744-.03125.71875a.90582636.90582636 0 0 0 0 .03125c-.31729 1.091755-.713819 1.31137-1.125 1.375s-1.021672-.156233-1.5-.59375-.769167-1.031139-.75-1.46875c.01917-.437611.198808-.856404 1.21875-1.28125a.90582636.90582636 0 0 0 .28125-.1875c.08798-.08054.08078-.1955.15625-.28125z" fill="url(#L)" opacity=".08"/><path d="m12 7c-3.878 0-7 3.122-7 7v71c0 3.878 3.122 7 7 7h72c3.878 0 7-3.122 7-7v-71c0-3.878-3.122-7-7-7h-3.25v3.53125c1.505298.749421 2.5625 2.283953 2.5625 4.0625 0 2.513571-2.050607 4.5625-4.59375 4.5625s-4.625-2.048929-4.625-4.5625c0-1.778547 1.057202-3.313079 2.5625-4.0625v-3.53125h-8.1875v3.53125c1.505298.749421 2.5625 2.283953 2.5625 4.0625 0 2.513571-2.050607 4.5625-4.59375 4.5625-2.543142 0-4.625-2.048929-4.625-4.5625 0-1.778547 1.057202-3.313079 2.5625-4.0625v-3.53125h-8.1875v3.53125c1.505298.749421 2.5625 2.283953 2.5625 4.0625 0 2.513571-2.050607 4.5625-4.59375 4.5625s-4.625-2.048929-4.625-4.5625c0-1.778547 1.057202-3.313079 2.5625-4.0625v-3.53125h-8.1875v3.53125c1.505298.749421 2.5625 2.283953 2.5625 4.0625 0 2.513571-2.081857 4.5625-4.625 4.5625s-4.59375-2.048929-4.59375-4.5625c0-1.778547 1.057202-3.313079 2.5625-4.0625v-3.53125h-8.1875v3.53125c1.505298.749421 2.5625 2.283953 2.5625 4.0625 0 2.513571-2.081858 4.5625-4.625 4.5625-2.543143 0-4.59375-2.048929-4.59375-4.5625 0-1.778547 1.057202-3.313079 2.5625-4.0625v-3.53125h-8.1875v3.53125c1.505298.749421 2.5625 2.283953 2.5625 4.0625 0 2.513571-2.081857 4.5625-4.625 4.5625s-4.59375-2.048929-4.59375-4.5625c0-1.778547 1.057202-3.313079 2.5625-4.0625v-3.53125z" fill="url(#L)" opacity=".3"/><path d="m12 7c-3.324 0-6 2.676-6 6v72c0 3.324 2.676 6 6 6h72c3.324 0 6-2.676 6-6v-72c0-3.324-2.676-6-6-6h-4v3.5c1.470291.740605 2.5 2.242377 2.5 4 0 2.484-2.016 4.5-4.5 4.5s-4.5-2.016-4.5-4.5c0-1.757623 1.029709-3.259395 2.5-4v-3.5h-8v3.5c1.470291.740605 2.5 2.242377 2.5 4 0 2.484-2.016 4.5-4.5 4.5s-4.5-2.016-4.5-4.5c0-1.757623 1.029709-3.259395 2.5-4v-3.5h-8v3.5c1.470291.740605 2.5 2.242377 2.5 4 0 2.484-2.016 4.5-4.5 4.5s-4.5-2.016-4.5-4.5c0-1.757623 1.029709-3.259395 2.5-4v-3.5h-8v3.5c1.470291.740605 2.5 2.242377 2.5 4 0 2.484-2.016 4.5-4.5 4.5s-4.5-2.016-4.5-4.5c0-1.757623 1.029709-3.259395 2.5-4v-3.5h-8v3.5c1.470291.740605 2.5 2.242377 2.5 4 0 2.484-2.016 4.5-4.5 4.5s-4.5-2.016-4.5-4.5c0-1.757623 1.029709-3.259395 2.5-4v-3.5h-8v3.5c1.470291.740605 2.5 2.242377 2.5 4 0 2.484-2.016 4.5-4.5 4.5s-4.5-2.016-4.5-4.5c0-1.757623 1.029709-3.259395 2.5-4v-3.5z" fill="url(#M)" opacity=".45"/><g fill="url(#L)"><path d="m12 6.03125c-4.3908374 0-7.96875 3.5779126-7.96875 7.96875v71c0 4.390837 3.5779126 7.96875 7.96875 7.96875h72c4.390837 0 7.96875-3.577913 7.96875-7.96875v-71c0-4.3908374-3.577913-7.96875-7.96875-7.96875h-3.25a.955629.955629 0 0 0 -.96875.96875v3.53125a.955629.955629 0 0 0 .53125.84375c1.199222.597039 2.03125 1.818861 2.03125 3.21875 0 1.993879-1.595085 3.59375-3.625 3.59375s-3.65625-1.607791-3.65625-3.59375c0-1.399889.832028-2.621711 2.03125-3.21875a.955629.955629 0 0 0 .53125-.84375v-3.53125a.955629.955629 0 0 0 -.96875-.96875h-8.1875a.955629.955629 0 0 0 -.96875.96875v3.53125a.955629.955629 0 0 0 .53125.84375c1.199222.597039 2.03125 1.818861 2.03125 3.21875 0 1.993879-1.595085 3.59375-3.625 3.59375-2.029913 0-3.65625-1.607791-3.65625-3.59375 0-1.399889.832028-2.621711 2.03125-3.21875a.955629.955629 0 0 0 .53125-.84375v-3.53125a.955629.955629 0 0 0 -.96875-.96875h-8.1875a.955629.955629 0 0 0 -.96875.96875v3.53125a.955629.955629 0 0 0 .53125.84375c1.199222.597039 2.03125 1.818861 2.03125 3.21875 0 1.993879-1.595085 3.59375-3.625 3.59375s-3.65625-1.607791-3.65625-3.59375c0-1.399889.832028-2.621711 2.03125-3.21875a.955629.955629 0 0 0 .53125-.84375v-3.53125a.955629.955629 0 0 0 -.96875-.96875h-8.1875a.955629.955629 0 0 0 -.96875.96875v3.53125a.955629.955629 0 0 0 .53125.84375c1.199222.597039 2.03125 1.818861 2.03125 3.21875 0 1.985959-1.626335 3.59375-3.65625 3.59375s-3.625-1.599871-3.625-3.59375c0-1.399889.832028-2.621711 2.03125-3.21875a.955629.955629 0 0 0 .53125-.84375v-3.53125a.955629.955629 0 0 0 -.96875-.96875h-8.1875a.955629.955629 0 0 0 -.96875.96875v3.53125a.955629.955629 0 0 0 .53125.84375c1.199222.597039 2.03125 1.818861 2.03125 3.21875 0 1.985959-1.626337 3.59375-3.65625 3.59375-2.029915 0-3.625-1.599871-3.625-3.59375 0-1.399889.832028-2.621711 2.03125-3.21875a.955629.955629 0 0 0 .53125-.84375v-3.53125a.955629.955629 0 0 0 -.96875-.96875h-8.1875a.955629.955629 0 0 0 -.96875.96875v3.53125a.955629.955629 0 0 0 .53125.84375c1.199222.597039 2.03125 1.818861 2.03125 3.21875 0 1.985959-1.626335 3.59375-3.65625 3.59375s-3.625-1.599871-3.625-3.59375c0-1.399889.832028-2.621711 2.03125-3.21875a.955629.955629 0 0 0 .53125-.84375v-3.53125a.955629.955629 0 0 0 -.96875-.96875z" opacity=".15"/><path d="m12 5c-5.482887-.1627623-9.7256585 5.246897-9 10.518889.0310699 23.465278-.062205 46.933727.046752 70.397018.390261 5.261971 5.7137757 8.762119 10.725285 8.084093 23.714228-.03108 47.431629.06221 71.14387-.04675 5.261971-.390263 8.762119-5.713778 8.084093-10.725287-.031069-23.380895.062204-46.764962-.046752-70.14387-.390261-5.2619714-5.713776-8.7621193-10.725285-8.084093-1.534139-.3127471-3.675515.3363878-3.477963 2.2531482.224121 1.6435449-.700479 4.0831528 1.125 5.0281018 5.178641 3.401619-4.621409 7.77131-3.677467 1.595936.488417-1.496372 2.882779-1.913998 2.458717-3.852232-.121979-1.7118672.649566-4.4211695-1.625-4.993704-3.090776.035211-6.255859-.2240392-9.3125.125-2.070773 1.0704447-1.005692 3.804248-1.21875 5.65625.307784 1.807323 3.218034 2.044863 2.481093 4.30775-1.524417 5.24533-8.338137-.995549-3.387343-3.05775 1.466276-1.342226.531716-3.6816652.75-5.4375-.684181-2.4454604-3.663285-1.411634-5.512825-1.625-1.983632.2717785-4.322549-.6157856-6.049675.59375-1.115931 1.5002401-.440668 3.6014275-.53125 5.34375.414508 1.696213 3.166521 1.976837 2.449843 4.18275-1.524418 5.24533-8.338137-.995549-3.387343-3.05775 1.466276-1.342226.531716-3.6816652.75-5.4375-.684181-2.4454604-3.663285-1.411634-5.512825-1.625-1.983632.2717785-4.322549-.6157856-6.049675.59375-1.115931 1.5002401-.440668 3.6014275-.53125 5.34375.412301 1.6952 3.165202 1.973895 2.448391 4.176784-1.560691 5.253942-8.327596-.980378-3.385891-3.051784 1.466276-1.342226.531716-3.6816652.75-5.4375-.684181-2.4454604-3.663285-1.411634-5.512825-1.625-1.983632.2717785-4.322549-.6157856-6.049675.59375-1.115931 1.5002401-.440668 3.6014275-.53125 5.34375.412301 1.6952 3.165202 1.973895 2.448391 4.176784-1.560692 5.253942-8.327595-.980378-3.385891-3.051784 1.466276-1.342226.531716-3.6816652.75-5.4375-.684181-2.4454604-3.663285-1.411634-5.512825-1.625-1.983632.2717785-4.322549-.6157856-6.049675.59375-1.115931 1.5002401-.440668 3.6014275-.53125 5.34375.412301 1.6952 3.165202 1.973895 2.448391 4.176784-1.560691 5.253942-8.327596-.980378-3.385891-3.051784 1.466276-1.342226.531716-3.6816652.75-5.4375-.601502-2.4121121-3.458332-1.4153923-5.21875-1.625z" opacity=".1"/></g></g><path d="m12 6c-3.324 0-6 2.676-6 6v72c0 3.324 2.676 6 6 6h72c3.324 0 6-2.676 6-6v-72c0-3.324-2.676-6-6-6h-4v3.5c1.470291.740605 2.5 2.242377 2.5 4 0 2.484-2.016 4.5-4.5 4.5s-4.5-2.016-4.5-4.5c0-1.757623 1.029709-3.259395 2.5-4v-3.5h-8v3.5c1.470291.740605 2.5 2.242377 2.5 4 0 2.484-2.016 4.5-4.5 4.5s-4.5-2.016-4.5-4.5c0-1.757623 1.029709-3.259395 2.5-4v-3.5h-8v3.5c1.470291.740605 2.5 2.242377 2.5 4 0 2.484-2.016 4.5-4.5 4.5s-4.5-2.016-4.5-4.5c0-1.757623 1.029709-3.259395 2.5-4v-3.5h-8v3.5c1.470291.740605 2.5 2.242377 2.5 4 0 2.484-2.016 4.5-4.5 4.5s-4.5-2.016-4.5-4.5c0-1.757623 1.029709-3.259395 2.5-4v-3.5h-8v3.5c1.470291.740605 2.5 2.242377 2.5 4 0 2.484-2.016 4.5-4.5 4.5s-4.5-2.016-4.5-4.5c0-1.757623 1.029709-3.259395 2.5-4v-3.5h-8v3.5c1.470291.740605 2.5 2.242377 2.5 4 0 2.484-2.016 4.5-4.5 4.5s-4.5-2.016-4.5-4.5c0-1.757623 1.029709-3.259395 2.5-4v-3.5z" fill="url(#J)"/><path d="m12 6c-3.324 0-6 2.676-6 6v2 68 2c0 .334721.04135.6507.09375.96875.0487.295596.09704.596915.1875.875.00988.03038.020892.0636.03125.09375.098865.287771.2348802.547452.375.8125.1445918.273507.3156161.535615.5.78125s.3737765.473472.59375.6875c.439947.428056.94291.814526 1.5 1.09375.278545.139612.5734731.246947.875.34375-.2562018-.100222-.4867109-.236272-.71875-.375-.00741-.0044-.023866.0045-.03125 0-.031933-.0193-.062293-.04251-.09375-.0625-.120395-.0767-.2310226-.163513-.34375-.25-.1061728-.0808-.2132809-.161112-.3125-.25-.1779299-.161433-.3474596-.345388-.5-.53125-.1075789-.130255-.2183939-.265285-.3125-.40625-.025089-.03838-.038446-.08587-.0625-.125-.064763-.103032-.1302275-.204517-.1875-.3125-.1010083-.194706-.2056748-.415701-.28125-.625-.00796-.02181-.023589-.04055-.03125-.0625-.0318251-.09195-.0358045-.186831-.0625-.28125-.0303323-.106618-.0703894-.203031-.09375-.3125-.0728786-.341512-.125-.698205-.125-1.0625v-2-68-2c0-2.781848 2.2181517-5 5-5h2 2v-2zm8 0v2h8v-2zm12 0v2h8v-2zm12 0v2h8v-2zm12 0v2h8v-2zm12 0v2h8v-2zm12 0v2h2 2c2.781848 0 5 2.218152 5 5v2 68 2c0 .364295-.05212.720988-.125 1.0625-.04415.206893-.08838.397658-.15625.59375-.0077.02195-.0233.04069-.03125.0625-.06274.173739-.138383.367449-.21875.53125-.04158.0828-.07904.169954-.125.25-.0546.09721-.126774.18835-.1875.28125-.09411.140965-.204921.275995-.3125.40625-.143174.17445-.303141.346998-.46875.5-.01117.0102-.01998.02115-.03125.03125-.138386.125556-.285091.234436-.4375.34375-.102571.07315-.204318.153364-.3125.21875-.0074.0045-.02384-.0044-.03125 0-.232039.138728-.462548.274778-.71875.375.301527-.0968.596455-.204138.875-.34375.55709-.279224 1.060053-.665694 1.5-1.09375.219973-.214028.409366-.441865.59375-.6875s.355408-.507743.5-.78125c.14012-.265048.276135-.524729.375-.8125.01041-.03078.02133-.06274.03125-.09375.09046-.278085.1388-.579404.1875-.875.0524-.31805.09375-.634029.09375-.96875v-2-68-2c0-3.324-2.676-6-6-6z" fill="url(#I)" opacity=".5"/><path d="m12 90c-3.324 0-6-2.676-6-6v-2-68-2c0-.334721.04135-.6507.09375-.96875.0487-.295596.09704-.596915.1875-.875.00988-.03038.020892-.0636.03125-.09375.098865-.287771.2348802-.547452.375-.8125.1445918-.273507.3156161-.535615.5-.78125s.3737765-.473472.59375-.6875c.439947-.428056.94291-.814526 1.5-1.09375.278545-.139612.5734731-.246947.875-.34375-.2562018.100222-.4867109.236272-.71875.375-.00741.0044-.023866-.0045-.03125 0-.031933.0193-.062293.04251-.09375.0625-.120395.0767-.2310226.163513-.34375.25-.1061728.0808-.2132809.161112-.3125.25-.1779299.161433-.3474596.345388-.5.53125-.1075789.130255-.2183939.265285-.3125.40625-.025089.03838-.038446.08587-.0625.125-.064763.103032-.1302275.204517-.1875.3125-.1010083.194706-.2056748.415701-.28125.625-.00796.02181-.023589.04055-.03125.0625-.0318251.09195-.0358045.186831-.0625.28125-.0303323.106618-.0703894.203031-.09375.3125-.0728786.341512-.125.698205-.125 1.0625v2 68 2c0 2.781848 2.2181517 5 5 5h2 68 2c2.781848 0 5-2.218152 5-5v-2-68-2c0-.364295-.05212-.720988-.125-1.0625-.04415-.206893-.08838-.397658-.15625-.59375-.0077-.02195-.0233-.04069-.03125-.0625-.06274-.173739-.138383-.367449-.21875-.53125-.04158-.0828-.07904-.169954-.125-.25-.0546-.09721-.126774-.18835-.1875-.28125-.09411-.140965-.204921-.275995-.3125-.40625-.143174-.17445-.303141-.346998-.46875-.5-.01117-.0102-.01998-.02115-.03125-.03125-.138386-.125556-.285091-.234436-.4375-.34375-.102571-.07315-.204318-.153364-.3125-.21875-.0074-.0045-.02384.0044-.03125 0-.232039-.138728-.462548-.274778-.71875-.375.301527.0968.596455.204138.875.34375.55709.279224 1.060053.665694 1.5 1.09375.219973.214028.409366.441865.59375.6875s.355408.507743.5.78125c.14012.265048.276135.524729.375.8125.01041.03078.02133.06274.03125.09375.09046.278085.1388.579404.1875.875.0524.31805.09375.634029.09375.96875v2 68 2c0 3.324-2.676 6-6 6z" fill="url(#K)" opacity=".6"/><path d="m-56.584101 48.991102 4.895261 8.467844-4.401538 7.645344 5.508357 9.528381 8.822339.0018 4.929794 8.52758 9.74133.003 4.862043-8.445205-5.507857-9.527516-8.822338-.0018-4.317699-7.468775 4.400036-7.647941-5.507356-9.526648-9.745293-.0019-4.857079 8.445801zm27.693205 18.202741 4.353234 7.530243-3.710118 6.441702-7.433511-.003-4.352232-7.528511 3.706885-6.443298 7.435742.0029zm-9.395436-1.001113-.0017.000972-3.708752 6.442067-7.431644-.0018-4.353234-7.530243 3.707887-6.441566 7.434241.000301 4.353233 7.530243zm-4.850419-23.641429 4.351732 7.527645-3.708617 6.444299-7.433511-.003-4.351732-7.527646 3.706385-6.444162 7.435743.0029zm7.837717 36.009859 6.814823-.07015.01 1.000303-6.816188.06978-.0086-.999938zm8.302188-3.251694-3.628529-6.276644.865744-.500488 3.628528 6.276646zm-22.462413-31.720524.858542.512058-3.474249 5.838693-.859408-.511556zm-.07479 11.329478-.01444-1.000033 6.794208-.09981.01567.998165-6.795439.101678z" fill="url(#N)" transform="matrix(1.4231391 0 0 1.5217191 91.564006 -39.598799)"/><g transform="matrix(.92442121 0 0 .92442121 8.014118 3.228152)"><path d="m118.375 11.03125c-.52336-.06895-1.05794-.0102-1.5625.125-1.00643.269671-1.88554.918974-2.4375 1.875l-2.0625 3.5625a1.0491519 1.0491519 0 0 0 -.84375.53125l-9.5 16.46875-36 62.34375a1.0491519 1.0491519 0 0 0 -.09375.25l-6.375 24.03125a1.0491519 1.0491519 0 0 0 1.75 1.03125l17.625-17.53125a1.0491519 1.0491519 0 0 0 .15625-.21875l36-62.34375 9.5-16.46875a1.0491519 1.0491519 0 0 0 .0625-.90625l2.09375-3.625c1.11127-1.924777.4576-4.419069-1.46875-5.53125l-5.3125-3.0625c-.47927-.276705-1.00789-.462302-1.53125-.53125z" fill="url(#a)" filter="url(#b)" opacity=".3" transform="matrix(.7141758 .1253856 -.1253856 .7141758 2.656947 -15.447757)"/><path d="m118.375 11.03125c-.52336-.06895-1.05794-.0102-1.5625.125-1.00643.269671-1.88554.918974-2.4375 1.875l-2.0625 3.5625a1.0491519 1.0491519 0 0 0 -.84375.53125l-9.5 16.46875-36 62.34375a1.0491519 1.0491519 0 0 0 -.09375.25l-6.375 24.03125a1.0491519 1.0491519 0 0 0 1.75 1.03125l17.625-17.53125a1.0491519 1.0491519 0 0 0 .15625-.21875l36-62.34375 9.5-16.46875a1.0491519 1.0491519 0 0 0 .0625-.90625l2.09375-3.625c1.11127-1.924777.4576-4.419069-1.46875-5.53125l-5.3125-3.0625c-.47927-.276705-1.00789-.462302-1.53125-.53125z" fill="url(#d)" filter="url(#b)" opacity=".5" transform="matrix(.6274055 .3634982 -.3634982 .6274055 36.873047 -19.138811)"/><g transform="matrix(-.6279542 -.3625495 .3625495 -.6279542 120.29091 131.31477)"><rect fill="url(#F)" height="16" rx="3" stroke="#df453f" stroke-linejoin="round" stroke-width="1.379122" width="12.116117" x="136.91356" y="107.49392"/><path d="m141.24458 118.1889a1.5467962 3.9774759 0 1 1 -3.09359 0 1.5467962 3.9774759 0 1 1 3.09359 0z" fill="#701300" filter="url(#E)" opacity=".3" transform="matrix(1.8857143 0 0 1 -123.51329 -1.944544)"/><path d="m146.31251 113.125c-.85193 9.50672-3.9375 8.3125-6.5 8.9375 4.07634.0625 8.625-.0625 8.625-.0625-2.4375-.5625-1.8125-2.375-2.125-8.875z" fill="#fff" fill-rule="evenodd" filter="url(#D)" opacity=".8"/><path d="m136.41188 115.96875h12.119369v1h-12.119369z" fill="url(#C)" opacity=".2"/><g transform="translate(23.73343)"><path d="m112.76657 24.500002 6.5-23.9999996 6.5 23.9999996v71.999997h-13z" fill="url(#A)" stroke="url(#z)" stroke-linejoin="round" stroke-width="1.379122"/><path d="m117.69336 8.0716529 3.14265.022097-1.58237-5.7913293" fill="url(#y)" fill-rule="evenodd"/><path d="m117.73213 8.0901517-3.76756 13.9098483s-.46779 1.653465-.698 2.60832c-.19122.64228 1.95886 1.611283 3.0182-1.60832 1.21534 4.513809 5.57589 3.437953 5.98831.01105.3425 1.701476 1.75396 2.949961 2.98863 1.521937-.23478-.908743-.43641-1.521937-.43641-1.521937l-4.02168-14.9208973h-3.07149z" fill="url(#x)" fill-rule="evenodd"/><path d="m122.37252 96.304856v-67.217294" fill="none" opacity=".5" stroke="url(#w)" stroke-width="1.379122"/><path d="m116.24752 96.304856v-67.217294" fill="none" opacity=".5" stroke="url(#u)" stroke-width="1.379122"/><path d="m118.7044 5.9798798-4.77297 17.8986412 1.98873-.839689z" fill="#ac4311" fill-rule="evenodd" filter="url(#t)" opacity=".4"/><path d="m113.07908 24.624995s1.48667 1.76491 3.25-1.53125c2 5.25 5.16858 2.087146 5.93749-.03125 1.375 3.4375 3.12501 1.4375 3.12501 1.4375" fill="none" opacity=".15" stroke="#4d2600" stroke-width="1.379122"/><path d="m144.06251 8.9374939-.375 12.5000011 3.0625-.3125z" fill="#fff" fill-rule="evenodd" filter="url(#s)" opacity=".8" transform="matrix(1.122449 0 0 1.345 -41.70282 -4.770935)"/></g><path d="m136.5 96.5h13v19h-13z" fill="url(#r)" stroke="url(#q)" stroke-linejoin="round" stroke-width="1.379122"/><path d="m137 100h12v1h-12z" fill="url(#p)" opacity=".4"/><path d="m137 101h12v1h-12z" fill="url(#o)" opacity=".6"/><path d="m137 102h12v1h-12z" fill="url(#m)" opacity=".4"/><path d="m137 103h12v1h-12z" fill="url(#l)" opacity=".6"/><path d="m137 108h12v1h-12z" fill="url(#k)" opacity=".4"/><path d="m137 109h12v1h-12z" fill="url(#j)" opacity=".6"/><path d="m137 110h12v1h-12z" fill="url(#i)" opacity=".4"/><path d="m137 111h12v1h-12z" fill="url(#h)" opacity=".6"/><path d="m137 104h12v4h-12z" fill="url(#g)" opacity=".3"/><path d="m140.00001 106.07969a1.10128 8.3968973 0 1 1 -2.20256 0 1.10128 8.3968973 0 1 1 2.20256 0z" filter="url(#f)" opacity=".6" transform="matrix(1.2553848 0 0 1 -35.75387 0)"/><path d="m147.34339 106.03549a1.193245 8.0875489 0 1 1 -2.38649 0 1.193245 8.0875489 0 1 1 2.38649 0z" fill="#fff" filter="url(#e)" opacity=".8"/></g></g></svg>