<svg height="96" width="96" xmlns="http://www.w3.org/2000/svg" xmlns:xlink="http://www.w3.org/1999/xlink"><linearGradient id="a"><stop offset="0" stop-color="#027f39"/><stop offset="1" stop-color="#00e456"/></linearGradient><linearGradient id="b"><stop offset="0" stop-color="#ce7400"/><stop offset="1" stop-color="#ffcc2a"/></linearGradient><linearGradient id="c"><stop offset="0" stop-color="#167fff"/><stop offset="1" stop-color="#0063db"/></linearGradient><linearGradient id="d"><stop offset="0" stop-color="#fefefe"/><stop offset="1" stop-color="#fefefe" stop-opacity="0"/></linearGradient><linearGradient id="e" gradientUnits="userSpaceOnUse" x1="36.357143" x2="36.357143" xlink:href="#d" y1="6" y2="63.893143"/><filter id="f" color-interpolation-filters="sRGB" height="1.384" width="1.384" x="-.192" y="-.192"><feGaussianBlur stdDeviation="5.28"/></filter><linearGradient id="g" gradientUnits="userSpaceOnUse" x1="48" x2="48" xlink:href="#d" y1="20.220806" y2="138.66119"/><radialGradient id="h" cx="48" cy="90.171875" gradientTransform="matrix(1.1573129 0 0 .99590774 -7.551021 .197132)" gradientUnits="userSpaceOnUse" r="42" xlink:href="#d"/><clipPath id="i"><rect height="84" rx="6" width="84" x="6" y="6"/></clipPath><linearGradient id="j" gradientUnits="userSpaceOnUse" x1="48" x2="48" y1="90" y2="5.987717"><stop offset="0" stop-color="#e1e1e1"/><stop offset="1" stop-color="#f5f5f5"/></linearGradient><linearGradient id="k" gradientTransform="matrix(1.0058652 0 0 .994169 100 0)" gradientUnits="userSpaceOnUse" x1="45.447727" x2="45.447727" y1="92.539597" y2="7.01654"><stop offset="0"/><stop offset="1" stop-opacity=".588235"/></linearGradient><linearGradient id="l" gradientTransform="matrix(1.0238095 0 0 1.0119048 -1.142857 -98.071429)" gradientUnits="userSpaceOnUse" x1="32.251034" x2="32.251034" xlink:href="#k" y1="6.131708" y2="90.238609"/><linearGradient id="m" gradientTransform="translate(0 -97)" gradientUnits="userSpaceOnUse" x1="32.251034" x2="32.251034" xlink:href="#k" y1="6.131708" y2="90.238609"/><linearGradient id="n"><stop offset="0" stop-color="#ce1500"/><stop offset="1" stop-color="#ff815a"/></linearGradient><linearGradient id="o" gradientUnits="userSpaceOnUse" x1="27.43351964" x2="27.43351964" xlink:href="#n" y1="80.9461002" y2="64.94376146108"/><linearGradient id="p" gradientUnits="userSpaceOnUse" x1="27.43352012" x2="27.43352012" xlink:href="#c" y1="64.9461061" y2="48.94376652096"/><linearGradient id="q" gradientUnits="userSpaceOnUse" x1="35.43351864" x2="35.43351864" xlink:href="#n" y1="80.9461012" y2="64.94376246108"/><linearGradient id="r" gradientUnits="userSpaceOnUse" x1="43.43351864" x2="43.43351864" xlink:href="#n" y1="80.9461032" y2="64.94376446108"/><linearGradient id="s" gradientUnits="userSpaceOnUse" x1="51.43351964" x2="51.43351964" xlink:href="#n" y1="80.9460972" y2="64.94375846108"/><linearGradient id="t" gradientUnits="userSpaceOnUse" x1="59.43351964" x2="59.43351964" xlink:href="#n" y1="80.9461022" y2="64.94376346108"/><linearGradient id="u" gradientUnits="userSpaceOnUse" x1="67.43351864" x2="67.43351864" xlink:href="#n" y1="80.9461022" y2="64.94376346108"/><linearGradient id="v" gradientUnits="userSpaceOnUse" x1="75.43351664" x2="75.43351664" xlink:href="#n" y1="80.9461012" y2="64.94376246108"/><linearGradient id="w" gradientUnits="userSpaceOnUse" x1="83.43352364" x2="83.43352364" xlink:href="#n" y1="80.9460992" y2="64.94376046108"/><linearGradient id="x" gradientUnits="userSpaceOnUse" x1="67.43351812" x2="67.43351812" xlink:href="#a" y1="64.9461141" y2="48.94377452096"/><linearGradient id="y" gradientUnits="userSpaceOnUse" x1="19.43352012" x2="19.43352012" xlink:href="#c" y1="64.9461081" y2="48.94376852096"/><linearGradient id="z" gradientUnits="userSpaceOnUse" x1="19.43352112" x2="19.43352112" xlink:href="#c" y1="56.9461061" y2="40.94376652096"/><linearGradient id="A" gradientUnits="userSpaceOnUse" x1="27.43352112" x2="27.43352112" xlink:href="#c" y1="56.9461041" y2="40.94376452096"/><linearGradient id="B" gradientUnits="userSpaceOnUse" x1="19.43352012" x2="19.43352012" xlink:href="#c" y1="48.9461081" y2="32.94376852096"/><linearGradient id="C" gradientUnits="userSpaceOnUse" x1="27.43352012" x2="27.43352012" xlink:href="#c" y1="48.9461061" y2="32.94376652096"/><linearGradient id="D" gradientUnits="userSpaceOnUse" x1="19.43352112" x2="19.43352112" xlink:href="#c" y1="40.9461081" y2="24.94376852096"/><linearGradient id="E" gradientUnits="userSpaceOnUse" x1="27.43352112" x2="27.43352112" xlink:href="#c" y1="40.9461061" y2="24.94376652096"/><linearGradient id="F" gradientUnits="userSpaceOnUse" x1="27.43352012" x2="27.43352012" xlink:href="#c" y1="32.9461061" y2="16.94376652096"/><linearGradient id="G" gradientUnits="userSpaceOnUse" x1="19.43352012" x2="19.43352012" xlink:href="#c" y1="32.9461081" y2="16.94376852096"/><linearGradient id="H" gradientUnits="userSpaceOnUse" x1="19.43352012" x2="19.43352012" xlink:href="#c" y1="24.9461111" y2="8.94377152096"/><linearGradient id="I" gradientUnits="userSpaceOnUse" x1="43.43352012" x2="43.43352012" xlink:href="#b" y1="64.9461061" y2="48.94376652096"/><linearGradient id="J" gradientUnits="userSpaceOnUse" x1="51.43352112" x2="51.43352112" xlink:href="#b" y1="64.9461051" y2="48.94376552096"/><linearGradient id="K" gradientUnits="userSpaceOnUse" x1="59.43352012" x2="59.43352012" xlink:href="#b" y1="64.9461101" y2="48.94377052096"/><linearGradient id="L" gradientUnits="userSpaceOnUse" x1="59.43352112" x2="59.43352112" xlink:href="#b" y1="56.9461141" y2="40.94377452096"/><linearGradient id="M" gradientUnits="userSpaceOnUse" x1="51.43352112" x2="51.43352112" xlink:href="#b" y1="56.9461061" y2="40.94376652096"/><linearGradient id="N" gradientUnits="userSpaceOnUse" x1="43.43352112" x2="43.43352112" xlink:href="#b" y1="56.9461081" y2="40.94376852096"/><linearGradient id="O" gradientUnits="userSpaceOnUse" x1="35.43352112" x2="35.43352112" xlink:href="#b" y1="56.9461081" y2="40.94376852096"/><linearGradient id="P" gradientUnits="userSpaceOnUse" x1="35.43352212" x2="35.43352212" xlink:href="#b" y1="48.9461061" y2="32.94376652096"/><linearGradient id="Q" gradientUnits="userSpaceOnUse" x1="43.43352212" x2="43.43352212" xlink:href="#b" y1="48.9461061" y2="32.94376652096"/><linearGradient id="R" gradientUnits="userSpaceOnUse" x1="51.43351912" x2="51.43351912" xlink:href="#b" y1="48.9461141" y2="32.94377452096"/><linearGradient id="S" gradientUnits="userSpaceOnUse" x1="59.43352112" x2="59.43352112" xlink:href="#b" y1="48.9461121" y2="32.94377252096"/><linearGradient id="T" gradientUnits="userSpaceOnUse" x1="75.43351912" x2="75.43351912" xlink:href="#a" y1="64.9461121" y2="48.94377252096"/><linearGradient id="U" gradientUnits="userSpaceOnUse" x1="83.43351812" x2="83.43351812" xlink:href="#a" y1="64.9461141" y2="48.94377452096"/><linearGradient id="V" gradientUnits="userSpaceOnUse" x1="67.43351812" x2="67.43351812" xlink:href="#a" y1="56.9461121" y2="40.94377252096"/><linearGradient id="W" gradientUnits="userSpaceOnUse" x1="67.43351812" x2="67.43351812" xlink:href="#a" y1="48.9461141" y2="32.94377452096"/><linearGradient id="X" gradientUnits="userSpaceOnUse" x1="67.43351412" x2="67.43351412" xlink:href="#a" y1="40.9461131" y2="24.94377352096"/><linearGradient id="Y" gradientUnits="userSpaceOnUse" x1="67.43351412" x2="67.43351412" xlink:href="#a" y1="32.9461131" y2="16.94377352096"/><linearGradient id="Z" gradientUnits="userSpaceOnUse" x1="75.43351112" x2="75.43351112" xlink:href="#a" y1="32.9461141" y2="16.94377452096"/><linearGradient id="aa" gradientUnits="userSpaceOnUse" x1="83.43350712" x2="83.43350712" xlink:href="#a" y1="32.9461141" y2="16.94377452096"/><linearGradient id="ab" gradientUnits="userSpaceOnUse" x1="75.43350712" x2="75.43350712" xlink:href="#a" y1="40.9461131" y2="24.94377352096"/><linearGradient id="ac" gradientUnits="userSpaceOnUse" x1="83.43350812" x2="83.43350812" xlink:href="#a" y1="40.9461161" y2="24.94377652096"/><linearGradient id="ad" gradientUnits="userSpaceOnUse" x1="75.43351512" x2="75.43351512" xlink:href="#a" y1="48.9461151" y2="32.94377552096"/><linearGradient id="ae" gradientUnits="userSpaceOnUse" x1="83.43351212" x2="83.43351212" xlink:href="#a" y1="48.9461131" y2="32.94377352096"/><linearGradient id="af" gradientUnits="userSpaceOnUse" x1="75.43352112" x2="75.43352112" xlink:href="#a" y1="56.9461141" y2="40.94377452096"/><linearGradient id="ag" gradientUnits="userSpaceOnUse" x1="83.43350712" x2="83.43350712" xlink:href="#a" y1="56.9461141" y2="40.94377452096"/><linearGradient id="ah" gradientUnits="userSpaceOnUse" x1="83.43350912" x2="83.43350912" xlink:href="#c" y1="24.9461171" y2="8.94377752096"/><linearGradient id="ai" gradientUnits="userSpaceOnUse" x1="35.43351564" x2="35.43351564" xlink:href="#n" y1="64.9460972" y2="48.94375846108"/><g fill="url(#l)"><path d="m12-95.03125c-5.5110903 0-10.03125 4.52016-10.03125 10.03125v71c0 5.5110902 4.5201598 10.03125 10.03125 10.03125h72c5.51109 0 10.03125-4.5201597 10.03125-10.03125v-71c0-5.51109-4.52016-10.03125-10.03125-10.03125z" opacity=".08" transform="scale(1 -1)"/><path d="m12-94.03125c-4.971633 0-9.03125 4.059617-9.03125 9.03125v71c0 4.9716329 4.0596171 9.03125 9.03125 9.03125h72c4.971633 0 9.03125-4.059617 9.03125-9.03125v-71c0-4.971633-4.059617-9.03125-9.03125-9.03125z" opacity=".1" transform="scale(1 -1)"/><path d="m12-93c-4.4091333 0-8 3.590867-8 8v71c0 4.4091333 3.5908667 8 8 8h72c4.409133 0 8-3.5908667 8-8v-71c0-4.409133-3.590867-8-8-8z" opacity=".2" transform="scale(1 -1)"/><rect height="85" opacity=".3" rx="7" transform="scale(1 -1)" width="86" x="5" y="-92"/></g><rect fill="url(#m)" height="84" opacity=".45" rx="6" transform="scale(1 -1)" width="84" x="6" y="-91"/><rect fill="url(#j)" height="84" rx="6" width="84" x="6" y="6"/><path d="m12 6c-3.324 0-6 2.676-6 6v2 68 2c0 .334721.04135.6507.09375.96875.0487.295596.09704.596915.1875.875.00988.03038.020892.0636.03125.09375.098865.287771.2348802.547452.375.8125.1445918.273507.3156161.535615.5.78125s.3737765.473472.59375.6875c.439947.428056.94291.814526 1.5 1.09375.278545.139612.5734731.246947.875.34375-.2562018-.100222-.4867109-.236272-.71875-.375-.00741-.0044-.023866.0045-.03125 0-.031933-.0193-.062293-.04251-.09375-.0625-.120395-.0767-.2310226-.163513-.34375-.25-.1061728-.0808-.2132809-.161112-.3125-.25-.1779299-.161433-.3474596-.345388-.5-.53125-.1075789-.130255-.2183939-.265285-.3125-.40625-.025089-.03838-.038446-.08587-.0625-.125-.064763-.103032-.1302275-.204517-.1875-.3125-.1010083-.194706-.2056748-.415701-.28125-.625-.00796-.02181-.023589-.04055-.03125-.0625-.0318251-.09195-.0358045-.186831-.0625-.28125-.0303323-.106618-.0703894-.203031-.09375-.3125-.0728786-.341512-.125-.698205-.125-1.0625v-2-68-2c0-2.781848 2.2181517-5 5-5h2 68 2c2.781848 0 5 2.218152 5 5v2 68 2c0 .364295-.05212.720988-.125 1.0625-.04415.206893-.08838.397658-.15625.59375-.0077.02195-.0233.04069-.03125.0625-.06274.173739-.138383.367449-.21875.53125-.04158.0828-.07904.169954-.125.25-.0546.09721-.126774.18835-.1875.28125-.09411.140965-.204921.275995-.3125.40625-.143174.17445-.303141.346998-.46875.5-.01117.0102-.01998.02115-.03125.03125-.138386.125556-.285091.234436-.4375.34375-.102571.07315-.204318.153364-.3125.21875-.0074.0045-.02384-.0044-.03125 0-.232039.138728-.462548.274778-.71875.375.301527-.0968.596455-.204138.875-.34375.55709-.279224 1.060053-.665694 1.5-1.09375.219973-.214028.409366-.441865.59375-.6875s.355408-.507743.5-.78125c.14012-.265048.276135-.524729.375-.8125.01041-.03078.02133-.06274.03125-.09375.09046-.278085.1388-.579404.1875-.875.0524-.31805.09375-.634029.09375-.96875v-2-68-2c0-3.324-2.676-6-6-6z" fill="url(#e)" opacity=".5"/><path d="m12 90c-3.324 0-6-2.676-6-6v-2-68-2c0-.334721.04135-.6507.09375-.96875.0487-.295596.09704-.596915.1875-.875.00988-.03038.020892-.0636.03125-.09375.098865-.287771.2348802-.547452.375-.8125.1445918-.273507.3156161-.535615.5-.78125s.3737765-.473472.59375-.6875c.439947-.428056.94291-.814526 1.5-1.09375.278545-.139612.5734731-.246947.875-.34375-.2562018.100222-.4867109.236272-.71875.375-.00741.0044-.023866-.0045-.03125 0-.031933.0193-.062293.04251-.09375.0625-.120395.0767-.2310226.163513-.34375.25-.1061728.0808-.2132809.161112-.3125.25-.1779299.161433-.3474596.345388-.5.53125-.1075789.130255-.2183939.265285-.3125.40625-.025089.03838-.038446.08587-.0625.125-.064763.103032-.1302275.204517-.1875.3125-.1010083.194706-.2056748.415701-.28125.625-.00796.02181-.023589.04055-.03125.0625-.0318251.09195-.0358045.186831-.0625.28125-.0303323.106618-.0703894.203031-.09375.3125-.0728786.341512-.125.698205-.125 1.0625v2 68 2c0 2.781848 2.2181517 5 5 5h2 68 2c2.781848 0 5-2.218152 5-5v-2-68-2c0-.364295-.05212-.720988-.125-1.0625-.04415-.206893-.08838-.397658-.15625-.59375-.0077-.02195-.0233-.04069-.03125-.0625-.06274-.173739-.138383-.367449-.21875-.53125-.04158-.0828-.07904-.169954-.125-.25-.0546-.09721-.126774-.18835-.1875-.28125-.09411-.140965-.204921-.275995-.3125-.40625-.143174-.17445-.303141-.346998-.46875-.5-.01117-.0102-.01998-.02115-.03125-.03125-.138386-.125556-.285091-.234436-.4375-.34375-.102571-.07315-.204318-.153364-.3125-.21875-.0074-.0045-.02384.0044-.03125 0-.232039-.138728-.462548-.274778-.71875-.375.301527.0968.596455.204138.875.34375.55709.279224 1.060053.665694 1.5 1.09375.219973.214028.409366.441865.59375.6875s.355408.507743.5.78125c.14012.265048.276135.524729.375.8125.01041.03078.02133.06274.03125.09375.09046.278085.1388.579404.1875.875.0524.31805.09375.634029.09375.96875v2 68 2c0 3.324-2.676 6-6 6z" fill="url(#h)" opacity=".2"/><rect height="66" rx="12" style="opacity:.1;stroke:#fefefe;stroke-width:.5;stroke-linecap:round;clip-path:url(#i);fill:url(#g);filter:url(#f)" width="66" x="15" y="15"/><rect fill="url(#o)" height="8" rx="1" width="8" x="19.433523" y="72.946106"/><rect fill="url(#p)" height="8" rx="1" width="8" x="19.433521" y="56.946106"/><rect fill="url(#q)" height="8" rx="1" width="8" x="27.433523" y="72.946106"/><rect fill="url(#r)" height="8" rx="1" width="8" x="35.433521" y="72.946106"/><rect fill="url(#s)" height="8" rx="1" width="8" x="43.433521" y="72.946106"/><rect fill="url(#t)" height="8" rx="1" width="8" x="51.433521" y="72.946106"/><rect fill="url(#u)" height="8" rx="1" width="8" x="59.433521" y="72.946106"/><rect fill="url(#v)" height="8" rx="1" width="8" x="67.433525" y="72.946106"/><rect fill="url(#w)" height="8" rx="1" width="8" x="75.433525" y="72.946106"/><rect fill="url(#x)" height="8" rx="1" width="8" x="59.433517" y="56.946114"/><rect fill="url(#y)" height="8" rx="1" width="8" x="11.43352" y="56.946106"/><rect fill="url(#A)" height="8" rx="1" width="8" x="19.433521" y="48.946106"/><rect fill="url(#z)" height="8" rx="1" width="8" x="11.43352" y="48.946106"/><rect fill="url(#C)" height="8" rx="1" width="8" x="19.433521" y="40.946106"/><rect fill="url(#B)" height="8" rx="1" width="8" x="11.43352" y="40.946106"/><rect fill="url(#E)" height="8" rx="1" width="8" x="19.433521" y="32.946106"/><rect fill="url(#D)" height="8" rx="1" width="8" x="11.433522" y="32.946106"/><rect fill="url(#F)" height="8" rx="1" width="8" x="19.433521" y="24.946106"/><rect fill="url(#G)" height="8" rx="1" width="8" x="11.433522" y="24.946106"/><rect fill="url(#H)" height="8" rx="1" width="8" x="11.433522" y="16.946108"/><rect fill="url(#I)" height="8" rx="1" width="8" x="35.433517" y="56.946106"/><rect fill="url(#J)" height="8" rx="1" width="8" x="43.433517" y="56.946106"/><rect fill="url(#K)" height="8" rx="1" width="8" x="51.433517" y="56.94611"/><rect fill="url(#L)" height="8" rx="1" width="8" x="51.433517" y="48.946114"/><rect fill="url(#M)" height="8" rx="1" width="8" x="43.433517" y="48.946106"/><rect fill="url(#N)" height="8" rx="1" width="8" x="35.433517" y="48.946106"/><rect fill="url(#O)" height="8" rx="1" width="8" x="27.433521" y="48.946106"/><rect fill="url(#P)" height="8" rx="1" width="8" x="27.433521" y="40.946106"/><rect fill="url(#Q)" height="8" rx="1" width="8" x="35.433517" y="40.946106"/><rect fill="url(#R)" height="8" rx="1" width="8" x="43.433517" y="40.946114"/><rect fill="url(#S)" height="8" rx="1" width="8" x="51.433517" y="40.946114"/><rect fill="url(#T)" height="8" rx="1" width="8" x="67.433517" y="56.946114"/><rect fill="url(#U)" height="8" rx="1" width="8" x="75.433517" y="56.946114"/><rect fill="url(#V)" height="8" rx="1" width="8" x="59.433517" y="48.946114"/><rect fill="url(#W)" height="8" rx="1" width="8" x="59.433517" y="40.946114"/><rect fill="url(#X)" height="8" rx="1" width="8" x="59.433514" y="32.946114"/><rect fill="url(#Y)" height="8" rx="1" width="8" x="59.433514" y="24.946114"/><rect fill="url(#Z)" height="8" rx="1" width="8" x="67.43351" y="24.946114"/><rect fill="url(#aa)" height="8" rx="1" width="8" x="75.43351" y="24.946114"/><rect fill="url(#ab)" height="8" rx="1" width="8" x="67.43351" y="32.946114"/><rect fill="url(#ac)" height="8" rx="1" width="8" x="75.43351" y="32.946114"/><rect fill="url(#ad)" height="8" rx="1" width="8" x="67.433517" y="40.946114"/><rect fill="url(#ae)" height="8" rx="1" width="8" x="75.43351" y="40.946114"/><rect fill="url(#af)" height="8" rx="1" width="8" x="67.433517" y="48.946114"/><rect fill="url(#ag)" height="8" rx="1" width="8" x="75.43351" y="48.946114"/><rect fill="url(#ah)" height="8" rx="1" width="8" x="75.43351" y="16.946114"/><rect fill="url(#ai)" height="8" rx="1" width="8" x="27.433519" y="56.946106"/></svg>