<svg height="96" width="96" xmlns="http://www.w3.org/2000/svg" xmlns:xlink="http://www.w3.org/1999/xlink"><linearGradient id="a"><stop offset="0" stop-color="#fefefe"/><stop offset="1" stop-color="#fefefe" stop-opacity="0"/></linearGradient><linearGradient id="b" gradientUnits="userSpaceOnUse" x1="36.357143" x2="36.357143" xlink:href="#a" y1="6" y2="63.893143"/><radialGradient id="c" cx="48" cy="90.171875" gradientTransform="matrix(1.1573129 0 0 .99590774 -7.551021 .197132)" gradientUnits="userSpaceOnUse" r="42" xlink:href="#a"/><linearGradient id="d" gradientUnits="userSpaceOnUse" x1="48" x2="48" y1="90" y2="5.987717"><stop offset="0" stop-color="#0f0f0f"/><stop offset="1" stop-color="#323232"/></linearGradient><linearGradient id="e" gradientTransform="matrix(1.0058652 0 0 .994169 100 0)" gradientUnits="userSpaceOnUse" x1="45.447727" x2="45.447727" y1="92.539597" y2="7.01654"><stop offset="0"/><stop offset="1" stop-opacity=".588235"/></linearGradient><linearGradient id="f" gradientTransform="matrix(1.0238095 0 0 1.0119048 -1.142857 -98.071429)" gradientUnits="userSpaceOnUse" x1="32.251034" x2="32.251034" xlink:href="#e" y1="6.131708" y2="90.238609"/><linearGradient id="g" gradientTransform="translate(0 -97)" gradientUnits="userSpaceOnUse" x1="32.251034" x2="32.251034" xlink:href="#e" y1="6.131708" y2="90.238609"/><g fill="url(#f)"><path d="m12-95.03125c-5.5110903 0-10.03125 4.52016-10.03125 10.03125v71c0 5.5110902 4.5201598 10.03125 10.03125 10.03125h72c5.51109 0 10.03125-4.5201597 10.03125-10.03125v-71c0-5.51109-4.52016-10.03125-10.03125-10.03125z" opacity=".08" transform="scale(1 -1)"/><path d="m12-94.03125c-4.971633 0-9.03125 4.059617-9.03125 9.03125v71c0 4.9716329 4.0596171 9.03125 9.03125 9.03125h72c4.971633 0 9.03125-4.059617 9.03125-9.03125v-71c0-4.971633-4.059617-9.03125-9.03125-9.03125z" opacity=".1" transform="scale(1 -1)"/><path d="m12-93c-4.4091333 0-8 3.590867-8 8v71c0 4.4091333 3.5908667 8 8 8h72c4.409133 0 8-3.5908667 8-8v-71c0-4.409133-3.590867-8-8-8z" opacity=".2" transform="scale(1 -1)"/><rect height="85" opacity=".3" rx="7" transform="scale(1 -1)" width="86" x="5" y="-92"/></g><rect fill="url(#g)" height="84" opacity=".45" rx="6" transform="scale(1 -1)" width="84" x="6" y="-91"/><rect fill="url(#d)" height="84" rx="6" width="84" x="6" y="6"/><path d="m12 6c-3.324 0-6 2.676-6 6v2 68 2c0 .334721.04135.6507.09375.96875.0487.295596.09704.596915.1875.875.00988.03038.020892.0636.03125.09375.098865.287771.2348802.547452.375.8125.1445918.273507.3156161.535615.5.78125s.3737765.473472.59375.6875c.439947.428056.94291.814526 1.5 1.09375.278545.139612.5734731.246947.875.34375-.2562018-.100222-.4867109-.236272-.71875-.375-.00741-.0044-.023866.0045-.03125 0-.031933-.0193-.062293-.04251-.09375-.0625-.120395-.0767-.2310226-.163513-.34375-.25-.1061728-.0808-.2132809-.161112-.3125-.25-.1779299-.161433-.3474596-.345388-.5-.53125-.1075789-.130255-.2183939-.265285-.3125-.40625-.025089-.03838-.038446-.08587-.0625-.125-.064763-.103032-.1302275-.204517-.1875-.3125-.1010083-.194706-.2056748-.415701-.28125-.625-.00796-.02181-.023589-.04055-.03125-.0625-.0318251-.09195-.0358045-.186831-.0625-.28125-.0303323-.106618-.0703894-.203031-.09375-.3125-.0728786-.341512-.125-.698205-.125-1.0625v-2-68-2c0-2.781848 2.2181517-5 5-5h2 68 2c2.781848 0 5 2.218152 5 5v2 68 2c0 .364295-.05212.720988-.125 1.0625-.04415.206893-.08838.397658-.15625.59375-.0077.02195-.0233.04069-.03125.0625-.06274.173739-.138383.367449-.21875.53125-.04158.0828-.07904.169954-.125.25-.0546.09721-.126774.18835-.1875.28125-.09411.140965-.204921.275995-.3125.40625-.143174.17445-.303141.346998-.46875.5-.01117.0102-.01998.02115-.03125.03125-.138386.125556-.285091.234436-.4375.34375-.102571.07315-.204318.153364-.3125.21875-.0074.0045-.02384-.0044-.03125 0-.232039.138728-.462548.274778-.71875.375.301527-.0968.596455-.204138.875-.34375.55709-.279224 1.060053-.665694 1.5-1.09375.219973-.214028.409366-.441865.59375-.6875s.355408-.507743.5-.78125c.14012-.265048.276135-.524729.375-.8125.01041-.03078.02133-.06274.03125-.09375.09046-.278085.1388-.579404.1875-.875.0524-.31805.09375-.634029.09375-.96875v-2-68-2c0-3.324-2.676-6-6-6z" fill="url(#b)" opacity=".2"/><path d="m12 90c-3.324 0-6-2.676-6-6v-2-68-2c0-.334721.04135-.6507.09375-.96875.0487-.295596.09704-.596915.1875-.875.00988-.03038.020892-.0636.03125-.09375.098865-.287771.2348802-.547452.375-.8125.1445918-.273507.3156161-.535615.5-.78125s.3737765-.473472.59375-.6875c.439947-.428056.94291-.814526 1.5-1.09375.278545-.139612.5734731-.246947.875-.34375-.2562018.100222-.4867109.236272-.71875.375-.00741.0044-.023866-.0045-.03125 0-.031933.0193-.062293.04251-.09375.0625-.120395.0767-.2310226.163513-.34375.25-.1061728.0808-.2132809.161112-.3125.25-.1779299.161433-.3474596.345388-.5.53125-.1075789.130255-.2183939.265285-.3125.40625-.025089.03838-.038446.08587-.0625.125-.064763.103032-.1302275.204517-.1875.3125-.1010083.194706-.2056748.415701-.28125.625-.00796.02181-.023589.04055-.03125.0625-.0318251.09195-.0358045.186831-.0625.28125-.0303323.106618-.0703894.203031-.09375.3125-.0728786.341512-.125.698205-.125 1.0625v2 68 2c0 2.781848 2.2181517 5 5 5h2 68 2c2.781848 0 5-2.218152 5-5v-2-68-2c0-.364295-.05212-.720988-.125-1.0625-.04415-.206893-.08838-.397658-.15625-.59375-.0077-.02195-.0233-.04069-.03125-.0625-.06274-.173739-.138383-.367449-.21875-.53125-.04158-.0828-.07904-.169954-.125-.25-.0546-.09721-.126774-.18835-.1875-.28125-.09411-.140965-.204921-.275995-.3125-.40625-.143174-.17445-.303141-.346998-.46875-.5-.01117-.0102-.01998-.02115-.03125-.03125-.138386-.125556-.285091-.234436-.4375-.34375-.102571-.07315-.204318-.153364-.3125-.21875-.0074-.0045-.02384.0044-.03125 0-.232039-.138728-.462548-.274778-.71875-.375.301527.0968.596455.204138.875.34375.55709.279224 1.060053.665694 1.5 1.09375.219973.214028.409366.441865.59375.6875s.355408.507743.5.78125c.14012.265048.276135.524729.375.8125.01041.03078.02133.06274.03125.09375.09046.278085.1388.579404.1875.875.0524.31805.09375.634029.09375.96875v2 68 2c0 3.324-2.676 6-6 6z" fill="url(#c)" opacity=".1"/><path d="m30.14934 19.82662c-5.6052 4.9407-9.1494 12.1578-9.1494 20.2518 0 10.9338 6.4473 20.2869 15.75 24.5412v.21096h.43506c1.30062.56658 2.66709 1.00209 4.065 1.36242v4.584a31.5 31.503 0 0 1 -24.75-30.696 31.5 31.503 0 0 1 1.3272-9h-4.6539a36 36.003 0 0 0 -1.1733 9 36 36.003 0 0 0 33.75 35.919v-2.16669-2.36448-11.3697c.7752.12147 1.54542.21585 2.29833.23292.7788-.03183 1.48971-.12711 2.20167-.21975v11.3871 2.3337 2.13594a36 36.003 0 0 0 33.75-35.889 36 36.003 0 0 0 -1.191-9h-4.6494a31.5 31.503 0 0 1 1.34034 9.0009 31.5 31.503 0 0 1 -24.75 30.729v-4.6146c1.39785-.36033 2.76432-.79584 4.065-1.36242h.43506v-.21096c9.3027-4.2543 15.75-13.6074 15.75-24.5412 0-8.094-3.5442-15.3111-9.1494-20.2518h-8.0595c7.5267 3.6315 12.7089 11.3049 12.7089 20.2518 0 8.3565-4.5222 15.6057-11.25 19.4871v-2.91822c1.55469-1.50087 1.64142-3.768.05274-5.4804l-.8877-.9537.30324-1.74918c.44949-2.60421 1.52565-4.5624 3.1158-5.6694.71772-.49962 1.44525-1.07055 1.61718-1.27452.38481-.45645.40392-2.74125.03513-4.0566-1.01112-3.6063-6.3126-11.2869-10.2261-14.8152-2.22303-2.00418-3.9645-2.91558-5.6469-2.81274-1.00941.06168-1.99449.48912-3.0543 1.26573-1.41366 1.03602-5.0397 4.8414-6.7545 7.0935-3.6624 4.8102-5.5548 8.6961-5.5548 11.3961 0 1.78995.16014 2.07768 1.70946 3.1071 1.71372 1.1388 2.7051 2.80749 3.2256 5.4366l.4131 2.10078-.6504.58452c-1.06911.96486-1.51809 2.0463-1.38867 3.3576.08892.90111.55122 1.79067 1.19091 2.46555v2.92263c-6.7278-3.8814-11.25-11.1306-11.25-19.4871 0-8.9469 5.1825-16.6203 12.7089-20.2518h-8.0595zm11.1 31.503a2.25 2.25021 0 0 1 2.25 2.25 2.25 2.25021 0 0 1 -2.25 2.25 2.25 2.25021 0 0 1 -2.25-2.25 2.25 2.25021 0 0 1 2.25-2.25zm13.5 0a2.25 2.25021 0 0 1 2.25 2.25021 2.25 2.25021 0 0 1 -2.25 2.25021 2.25 2.25021 0 0 1 -2.25-2.25 2.25 2.25021 0 0 1 2.25-2.25z" style="opacity:.1;fill:none;stroke:#000;stroke-width:4;stroke-linecap:round;stroke-linejoin:round"/><path d="m30.14934 21.82662c-5.6052 4.9407-9.1494 12.1578-9.1494 20.2518 0 10.9338 6.4473 20.2869 15.75 24.5412v.21096h.43506c1.30062.56658 2.66709 1.00209 4.065 1.36242v4.584a31.5 31.503 0 0 1 -24.75-30.696 31.5 31.503 0 0 1 1.3272-9h-4.6539a36 36.003 0 0 0 -1.1733 9 36 36.003 0 0 0 33.75 35.919v-2.16669-2.36448-11.3697c.7752.12147 1.54542.21585 2.29833.23292.7788-.03183 1.48971-.12711 2.20167-.21975v11.3871 2.3337 2.13594a36 36.003 0 0 0 33.75-35.889 36 36.003 0 0 0 -1.191-9h-4.6494a31.5 31.503 0 0 1 1.34034 9.0009 31.5 31.503 0 0 1 -24.75 30.729v-4.6146c1.39785-.36033 2.76432-.79584 4.065-1.36242h.43506v-.21096c9.3027-4.2543 15.75-13.6074 15.75-24.5412 0-8.094-3.5442-15.3111-9.1494-20.2518h-8.0595c7.5267 3.6315 12.7089 11.3049 12.7089 20.2518 0 8.3565-4.5222 15.6057-11.25 19.4871v-2.91822c1.55469-1.50087 1.64142-3.768.05274-5.4804l-.8877-.9537.30324-1.74918c.44949-2.60421 1.52565-4.5624 3.1158-5.6694.71772-.49962 1.44525-1.07055 1.61718-1.27452.38481-.45645.40392-2.74125.03513-4.0566-1.01112-3.6063-6.3126-11.2869-10.2261-14.8152-2.22303-2.00418-3.9645-2.91558-5.6469-2.81274-1.00941.06168-1.99449.48912-3.0543 1.26573-1.41366 1.03602-5.0397 4.8414-6.7545 7.0935-3.6624 4.8102-5.5548 8.6961-5.5548 11.3961 0 1.78995.16014 2.07768 1.70946 3.1071 1.71372 1.1388 2.7051 2.80749 3.2256 5.4366l.4131 2.10078-.6504.58452c-1.06911.96486-1.51809 2.0463-1.38867 3.3576.08892.90111.55122 1.79067 1.19091 2.46555v2.92263c-6.7278-3.8814-11.25-11.1306-11.25-19.4871 0-8.9469 5.1825-16.6203 12.7089-20.2518h-8.0595zm11.1 31.503a2.25 2.25021 0 0 1 2.25 2.25 2.25 2.25021 0 0 1 -2.25 2.25 2.25 2.25021 0 0 1 -2.25-2.25 2.25 2.25021 0 0 1 2.25-2.25zm13.5 0a2.25 2.25021 0 0 1 2.25 2.25021 2.25 2.25021 0 0 1 -2.25 2.25021 2.25 2.25021 0 0 1 -2.25-2.25 2.25 2.25021 0 0 1 2.25-2.25z" opacity=".1"/><path d="m30.14934 19.82662c-5.6052 4.9407-9.1494 12.1578-9.1494 20.2518 0 10.9338 6.4473 20.2869 15.75 24.5412v.21096h.43506c1.30062.56658 2.66709 1.00209 4.065 1.36242v4.584a31.5 31.503 0 0 1 -24.75-30.696 31.5 31.503 0 0 1 1.3272-9h-4.6539a36 36.003 0 0 0 -1.1733 9 36 36.003 0 0 0 33.75 35.919v-2.16669-2.36448-11.3697c.7752.12147 1.54542.21585 2.29833.23292.7788-.03183 1.48971-.12711 2.20167-.21975v11.3871 2.3337 2.13594a36 36.003 0 0 0 33.75-35.889 36 36.003 0 0 0 -1.191-9h-4.6494a31.5 31.503 0 0 1 1.34034 9.0009 31.5 31.503 0 0 1 -24.75 30.729v-4.6146c1.39785-.36033 2.76432-.79584 4.065-1.36242h.43506v-.21096c9.3027-4.2543 15.75-13.6074 15.75-24.5412 0-8.094-3.5442-15.3111-9.1494-20.2518h-8.0595c7.5267 3.6315 12.7089 11.3049 12.7089 20.2518 0 8.3565-4.5222 15.6057-11.25 19.4871v-2.91822c1.55469-1.50087 1.64142-3.768.05274-5.4804l-.8877-.9537.30324-1.74918c.44949-2.60421 1.52565-4.5624 3.1158-5.6694.71772-.49962 1.44525-1.07055 1.61718-1.27452.38481-.45645.40392-2.74125.03513-4.0566-1.01112-3.6063-6.3126-11.2869-10.2261-14.8152-2.22303-2.00418-3.9645-2.91558-5.6469-2.81274-1.00941.06168-1.99449.48912-3.0543 1.26573-1.41366 1.03602-5.0397 4.8414-6.7545 7.0935-3.6624 4.8102-5.5548 8.6961-5.5548 11.3961 0 1.78995.16014 2.07768 1.70946 3.1071 1.71372 1.1388 2.7051 2.80749 3.2256 5.4366l.4131 2.10078-.6504.58452c-1.06911.96486-1.51809 2.0463-1.38867 3.3576.08892.90111.55122 1.79067 1.19091 2.46555v2.92263c-6.7278-3.8814-11.25-11.1306-11.25-19.4871 0-8.9469 5.1825-16.6203 12.7089-20.2518h-8.0595zm11.1 31.503a2.25 2.25021 0 0 1 2.25 2.25 2.25 2.25021 0 0 1 -2.25 2.25 2.25 2.25021 0 0 1 -2.25-2.25 2.25 2.25021 0 0 1 2.25-2.25zm13.5 0a2.25 2.25021 0 0 1 2.25 2.25021 2.25 2.25021 0 0 1 -2.25 2.25021 2.25 2.25021 0 0 1 -2.25-2.25 2.25 2.25021 0 0 1 2.25-2.25z" fill="#3fb2ab"/></svg>