<svg height="96" width="96" xmlns="http://www.w3.org/2000/svg" xmlns:xlink="http://www.w3.org/1999/xlink"><linearGradient id="a"><stop offset="0" stop-color="#fefefe"/><stop offset="1" stop-color="#fefefe" stop-opacity="0"/></linearGradient><linearGradient id="b" gradientUnits="userSpaceOnUse" x1="36.357143" x2="36.357143" xlink:href="#a" y1="6" y2="63.893143"/><filter id="c" color-interpolation-filters="sRGB" height="1.384" width="1.384" x="-.192" y="-.192"><feGaussianBlur stdDeviation="5.28"/></filter><linearGradient id="d" gradientUnits="userSpaceOnUse" x1="48" x2="48" xlink:href="#a" y1="20.220806" y2="138.66119"/><radialGradient id="e" cx="48" cy="90.171875" gradientTransform="matrix(1.1573129 0 0 .99590774 -7.551021 .197132)" gradientUnits="userSpaceOnUse" r="42" xlink:href="#a"/><clipPath id="f"><rect height="84" rx="6" width="84" x="6" y="6"/></clipPath><linearGradient id="g" gradientUnits="userSpaceOnUse" x1="48" x2="48" y1="90" y2="5.987717"><stop offset="0" stop-color="#509528"/><stop offset="1" stop-color="#78cd46"/></linearGradient><linearGradient id="h" gradientTransform="matrix(1.0058652 0 0 .994169 100 0)" gradientUnits="userSpaceOnUse" x1="45.447727" x2="45.447727" y1="92.539597" y2="7.01654"><stop offset="0"/><stop offset="1" stop-opacity=".588235"/></linearGradient><linearGradient id="i" gradientTransform="matrix(1.0238095 0 0 1.0119048 -1.142857 -98.071429)" gradientUnits="userSpaceOnUse" x1="32.251034" x2="32.251034" xlink:href="#h" y1="6.131708" y2="90.238609"/><linearGradient id="j" gradientTransform="translate(0 -97)" gradientUnits="userSpaceOnUse" x1="32.251034" x2="32.251034" xlink:href="#h" y1="6.131708" y2="90.238609"/><linearGradient id="k" gradientUnits="userSpaceOnUse" x1="59" x2="67" y1="38.001213" y2="38.001213"><stop offset="0"/><stop offset="1" stop-opacity="0"/></linearGradient><linearGradient id="l" gradientUnits="userSpaceOnUse" x1="56.037025" x2="56.037025" y1="49.333305" y2="13.593002"><stop offset="0" stop-color="#1a1a1a"/><stop offset="1"/></linearGradient><radialGradient id="m" cx="49.170681" cy="69.609459" gradientTransform="matrix(.85251736 .16517015 -.12915082 .69789091 15.599342 11.44984)" gradientUnits="userSpaceOnUse" r="10"><stop offset="0" stop-color="#828282"/><stop offset="1" stop-color="#1a1a1a"/></radialGradient><linearGradient id="n" gradientUnits="userSpaceOnUse" x1="49.659111" x2="50.133987" xlink:href="#a" y1="55.023781" y2="72.838806"/><radialGradient id="o" cx="55.5" cy="36" gradientTransform="matrix(1 0 0 26 1 -900)" gradientUnits="userSpaceOnUse" r=".5" xlink:href="#a"/><linearGradient id="p" gradientUnits="userSpaceOnUse" x1="68" x2="58" xlink:href="#a" y1="35" y2="19"/><linearGradient id="q" gradientUnits="userSpaceOnUse" x1="-64.94915" x2="-64.94915" y1="22.949152" y2="70.949152"><stop offset="0" stop-color="#f5f5f5"/><stop offset="1" stop-color="#d7d7d7"/></linearGradient><g fill="url(#i)"><path d="m12-95.03125c-5.5110903 0-10.03125 4.52016-10.03125 10.03125v71c0 5.5110902 4.5201598 10.03125 10.03125 10.03125h72c5.51109 0 10.03125-4.5201597 10.03125-10.03125v-71c0-5.51109-4.52016-10.03125-10.03125-10.03125z" opacity=".08" transform="scale(1 -1)"/><path d="m12-94.03125c-4.971633 0-9.03125 4.059617-9.03125 9.03125v71c0 4.9716329 4.0596171 9.03125 9.03125 9.03125h72c4.971633 0 9.03125-4.059617 9.03125-9.03125v-71c0-4.971633-4.059617-9.03125-9.03125-9.03125z" opacity=".1" transform="scale(1 -1)"/><path d="m12-93c-4.4091333 0-8 3.590867-8 8v71c0 4.4091333 3.5908667 8 8 8h72c4.409133 0 8-3.5908667 8-8v-71c0-4.409133-3.590867-8-8-8z" opacity=".2" transform="scale(1 -1)"/><rect height="85" opacity=".3" rx="7" transform="scale(1 -1)" width="86" x="5" y="-92"/></g><rect fill="url(#j)" height="84" opacity=".45" rx="6" transform="scale(1 -1)" width="84" x="6" y="-91"/><rect fill="url(#g)" height="84" rx="6" width="84" x="6" y="6"/><path d="m12 6c-3.324 0-6 2.676-6 6v2 68 2c0 .334721.04135.6507.09375.96875.0487.295596.09704.596915.1875.875.00988.03038.020892.0636.03125.09375.098865.287771.2348802.547452.375.8125.1445918.273507.3156161.535615.5.78125s.3737765.473472.59375.6875c.439947.428056.94291.814526 1.5 1.09375.278545.139612.5734731.246947.875.34375-.2562018-.100222-.4867109-.236272-.71875-.375-.00741-.0044-.023866.0045-.03125 0-.031933-.0193-.062293-.04251-.09375-.0625-.120395-.0767-.2310226-.163513-.34375-.25-.1061728-.0808-.2132809-.161112-.3125-.25-.1779299-.161433-.3474596-.345388-.5-.53125-.1075789-.130255-.2183939-.265285-.3125-.40625-.025089-.03838-.038446-.08587-.0625-.125-.064763-.103032-.1302275-.204517-.1875-.3125-.1010083-.194706-.2056748-.415701-.28125-.625-.00796-.02181-.023589-.04055-.03125-.0625-.0318251-.09195-.0358045-.186831-.0625-.28125-.0303323-.106618-.0703894-.203031-.09375-.3125-.0728786-.341512-.125-.698205-.125-1.0625v-2-68-2c0-2.781848 2.2181517-5 5-5h2 68 2c2.781848 0 5 2.218152 5 5v2 68 2c0 .364295-.05212.720988-.125 1.0625-.04415.206893-.08838.397658-.15625.59375-.0077.02195-.0233.04069-.03125.0625-.06274.173739-.138383.367449-.21875.53125-.04158.0828-.07904.169954-.125.25-.0546.09721-.126774.18835-.1875.28125-.09411.140965-.204921.275995-.3125.40625-.143174.17445-.303141.346998-.46875.5-.01117.0102-.01998.02115-.03125.03125-.138386.125556-.285091.234436-.4375.34375-.102571.07315-.204318.153364-.3125.21875-.0074.0045-.02384-.0044-.03125 0-.232039.138728-.462548.274778-.71875.375.301527-.0968.596455-.204138.875-.34375.55709-.279224 1.060053-.665694 1.5-1.09375.219973-.214028.409366-.441865.59375-.6875s.355408-.507743.5-.78125c.14012-.265048.276135-.524729.375-.8125.01041-.03078.02133-.06274.03125-.09375.09046-.278085.1388-.579404.1875-.875.0524-.31805.09375-.634029.09375-.96875v-2-68-2c0-3.324-2.676-6-6-6z" fill="url(#b)" opacity=".4"/><path d="m12 90c-3.324 0-6-2.676-6-6v-2-68-2c0-.334721.04135-.6507.09375-.96875.0487-.295596.09704-.596915.1875-.875.00988-.03038.020892-.0636.03125-.09375.098865-.287771.2348802-.547452.375-.8125.1445918-.273507.3156161-.535615.5-.78125s.3737765-.473472.59375-.6875c.439947-.428056.94291-.814526 1.5-1.09375.278545-.139612.5734731-.246947.875-.34375-.2562018.100222-.4867109.236272-.71875.375-.00741.0044-.023866-.0045-.03125 0-.031933.0193-.062293.04251-.09375.0625-.120395.0767-.2310226.163513-.34375.25-.1061728.0808-.2132809.161112-.3125.25-.1779299.161433-.3474596.345388-.5.53125-.1075789.130255-.2183939.265285-.3125.40625-.025089.03838-.038446.08587-.0625.125-.064763.103032-.1302275.204517-.1875.3125-.1010083.194706-.2056748.415701-.28125.625-.00796.02181-.023589.04055-.03125.0625-.0318251.09195-.0358045.186831-.0625.28125-.0303323.106618-.0703894.203031-.09375.3125-.0728786.341512-.125.698205-.125 1.0625v2 68 2c0 2.781848 2.2181517 5 5 5h2 68 2c2.781848 0 5-2.218152 5-5v-2-68-2c0-.364295-.05212-.720988-.125-1.0625-.04415-.206893-.08838-.397658-.15625-.59375-.0077-.02195-.0233-.04069-.03125-.0625-.06274-.173739-.138383-.367449-.21875-.53125-.04158-.0828-.07904-.169954-.125-.25-.0546-.09721-.126774-.18835-.1875-.28125-.09411-.140965-.204921-.275995-.3125-.40625-.143174-.17445-.303141-.346998-.46875-.5-.01117-.0102-.01998-.02115-.03125-.03125-.138386-.125556-.285091-.234436-.4375-.34375-.102571-.07315-.204318-.153364-.3125-.21875-.0074-.0045-.02384.0044-.03125 0-.232039-.138728-.462548-.274778-.71875-.375.301527.0968.596455.204138.875.34375.55709.279224 1.060053.665694 1.5 1.09375.219973.214028.409366.441865.59375.6875s.355408.507743.5.78125c.14012.265048.276135.524729.375.8125.01041.03078.02133.06274.03125.09375.09046.278085.1388.579404.1875.875.0524.31805.09375.634029.09375.96875v2 68 2c0 3.324-2.676 6-6 6z" fill="url(#e)" opacity=".2"/><rect height="66" rx="12" style="opacity:.1;stroke:#fefefe;stroke-width:.5;stroke-linecap:round;clip-path:url(#f);fill:url(#d);filter:url(#c)" width="66" x="15" y="15"/><g transform="translate(103.20308 10.374934)"><g transform="translate(-104.57415 -8.644598)"><path d="m54.03125 10.03125a.97501717.97501717 0 0 0 -.84375.96875v37.59375c-2.798229-.868688-6.140446-.70235-9.28125.71875-2.750088 1.244315-4.811564 3.180499-5.9375 5.40625s-1.273889 4.78574-.09375 6.96875c1.180435 2.183558 3.403486 3.549651 5.96875 4.0625s5.501762.180978 8.25-1.0625c4.155182-1.880069 6.693464-5.394023 6.75-8.96875a.97501717.97501717 0 0 0 .03125-.03125c.000115-.01036-.000071-.02089 0-.03125a.97501717.97501717 0 0 0 .09375-.4375v-30.78125c1.632103 1.525052 3.583049 3.698783 5.15625 6.78125 2.073221 4.062185 3.277278 9.137958 1.65625 14.6875a.98338244.98338244 0 0 0 1.875.59375c2.072736-6.08184 2.2599-12.282823 1.34375-15.96875-1.170218-4.70815-4.932512-9.229338-8.75-13.3125-3.918423-4.19112-5.21875-6.6875-5.21875-6.6875a.97501717.97501717 0 0 0 -1-.5z" fill="url(#k)" opacity=".1"/><path d="m54.15625 11v38.9375c-2.702975-1.283963-6.422694-1.297904-9.84375.25-5.134116 2.323001-7.625107 7.273666-5.59375 11.03125s7.834634 4.916751 12.96875 2.59375c4.107395-1.858447 6.51324-5.396065 6.28125-8.65625.0068.02146.02494.04104.03125.0625v-33.03125c3.610345 2.575068 12.124498 12.340523 8.71875 24 2.011979-5.903567 2.186109-12.017206 1.34375-15.40625-1.084096-4.361655-4.745434-8.856964-8.53125-12.90625-3.977035-4.253811-5.375-6.875-5.375-6.875z" opacity=".3"/><path d="m54.15625 10v39.4375c1.32164.825929 2.402837 1.914151 3.125 3.25.266645.493237.56622 1.01271.71875 1.53125v-33.03125c3.726808 2.658135 12.670739 12.968337 8.34375 25.125 2.396324-6.237329 2.614641-12.926833 1.71875-16.53125-1.084096-4.361655-4.745434-8.856964-8.53125-12.90625-3.977035-4.253811-5.375-6.875-5.375-6.875z" fill="url(#l)"/><path d="m60 63a10 8 0 1 1 -20 0 10 8 0 1 1 20 0z" fill="url(#m)" transform="matrix(.92961385 -.42061661 .45976226 .8504635 -27.445715 23.45163)"/><path d="m49.1875 48c-1.600312.07229-3.270589.461562-4.875 1.1875-5.134116 2.323001-7.625107 7.273666-5.59375 11.03125s7.834634 4.916751 12.96875 2.59375 7.625107-7.273666 5.59375-11.03125c-1.396558-2.583339-4.573063-3.940283-8.09375-3.78125zm.03125.9375c3.180144-.150057 5.997385 1.048537 7.1875 3.25 1.731077 3.202128-.441962 7.634066-5.1875 9.78125s-9.893923 1.045878-11.625-2.15625.441962-7.634066 5.1875-9.78125c1.482981-.670995 2.99198-1.025542 4.4375-1.09375z" fill="#1a1a1a"/><path d="m60 63a10 8 0 1 1 -20 0 10 8 0 1 1 20 0z" fill="url(#n)" opacity=".8" transform="matrix(.59999998 -.27147827 .29674402 .54891403 -1.991836 33.113184)"/><path d="m56.84375 54c-.202314 2.59571-2.227104 5.354686-5.65625 6.90625-4.703432 2.128133-9.801461.98569-11.5-2.15625-.297952-.551149-.461324-1.141026-.53125-1.75-.07518.964578.07107 1.898764.53125 2.75 1.698539 3.14194 6.796568 4.284383 11.5 2.15625 3.878372-1.754823 5.984953-5.043636 5.65625-7.90625z" fill="#fefefe" opacity=".2"/><rect fill="url(#o)" height="26" opacity=".2" rx="6" width="1" x="56" y="23"/><path d="m56.25 13.40625v5.53125s2.385119.385119 3.375 1.375c2.069991 1.476415 5.278234 4.78816 7.53125 9.40625.463612.950282.863977 1.975534 1.21875 3.03125-.06936-1.023397-.193321-1.987806-.375-2.71875-.987908-3.974662-4.499558-8.394799-8.25-12.40625-1.642416-1.756718-2.627461-3.054145-3.5-4.21875z" fill="url(#p)" opacity=".3"/></g><path d="m-56.980403 18.886653c-11.678425-.167655-22.858622 7.472333-26.90625 18.4375-.0033.0089.0033.02235 0 .03125-1.842009 4.759096-2.324316 9.994972-1.53125 15.03125-.454949.112608-.851955.225452-1.4375.375-.890247.227368-1.966467.616614-2.65625 1.625a1.0931642 1.0931642 0 0 0 -.03125.0625c-.606453 1.036241-.453022 2.268877.0625 3.09375.486044.777706 1.222967 1.300662 1.96875 1.65625l-.03125.03125c3.564821 2.253915 7.092785 4.685869 10.78125 6.875a1.0931642 1.0931642 0 0 0 .25.09375c1.018408.318461 2.041077.04822 2.75-.5.658278-.509054 1.057392-1.228462 1.3125-1.96875l.03125.03125c1.899074-3.84064 4.02468-7.663098 5.84375-11.625a1.0931642 1.0931642 0 0 0 .0625-.21875c.281038-1.270613-.339089-2.470498-1.25-3.09375-.902895-.617767-2.150719-.799485-3.25-.25-.0098.0049-.02151-.005-.03125 0-.587562.254045-.831085.196645-.78125.25-.01167-.132298-.01836-.337777.0625-.71875a1.0931642 1.0931642 0 0 0 .03125-.25c-.15976-6.821577 5.143479-13.379842 11.875-14.5625a1.0931642 1.0931642 0 0 0 .21875-.03125c.3918-.155097 1.300261-.127111 2.34375-.1875.521745-.03019 1.112794-.110828 1.6875-.375s1.119907-.761176 1.4375-1.4375a1.0931642 1.0931642 0 0 0 .0625-.1875c.541521-1.932447.110187-3.745546.21875-5.15625a1.0931642 1.0931642 0 0 0 0-.1875c-.114222-1.342049.347801-3.142101-.28125-5.0625a1.0931642 1.0931642 0 0 0 -.0625-.15625c-.525761-.997509-1.550516-1.632699-2.6875-1.625-.02096.000142-.04147-.000574-.0625 0zm21.5625 16a1.0931642 1.0931642 0 0 0 -.15625.0625c-1.069067.335044-1.806882 1.055677-2.375 1.71875s-1.020611 1.290286-1.46875 1.6875a1.0931642 1.0931642 0 0 0 -.09375.09375c-2.285604 2.613163-4.809155 5.148042-7.0625 7.9375a1.0931642 1.0931642 0 0 0 -.125.1875c-1.19554 2.241167.933539 4.846753 3.34375 4.40625v.03125c.531856-.05097.758479-.03895.96875-.03125-.0352.09869-.0074.05958-.09375.21875a1.0931642 1.0931642 0 0 0 -.09375.3125c-1.485849 6.790325-8.405624 11.961142-15.34375 11.34375a1.0931642 1.0931642 0 0 0 -.0625 0c-2.42353-.0652-4.775924-1.067522-7.125-2.21875a1.0931642 1.0931642 0 0 0 -.25-.09375c-1.208852-.247262-2.293205.35854-2.90625 1.0625s-.985872 1.486402-1.28125 2.03125c-1.031491 1.916017-2.363235 3.849849-3.34375 6.03125a1.0931642 1.0931642 0 0 0 -.0625.25c-.125716.709897-.02335 1.416762.28125 1.96875.304603.551988.742118.939969 1.1875 1.25.890764.620061 1.907987.958607 2.5 1.25a1.0931642 1.0931642 0 0 0 0 .03125c10.8178 5.071544 24.530216 2.547136 32.71875-6.21875.0056-.0058-.0056-.02544 0-.03125 4.483843-4.628037 7.295224-10.752635 7.96875-17.15625.443524.01148.850872.01704 1.40625.03125.876162.02242 1.929771-.03659 2.875-.6875a1.0931642 1.0931642 0 0 0 .09375-.09375c.898615-.774927 1.147174-1.940292.9375-2.90625-.194894-.89787-.721028-1.652336-1.40625-2.21875l.03125-.03125c-2.877819-3.13-5.68073-6.42956-8.6875-9.53125a1.0931642 1.0931642 0 0 0 -.125-.125c-.72121-.555563-1.551392-.588628-2.15625-.5625a1.0931642 1.0931642 0 0 0 -.09375 0z" opacity=".05"/><path d="m-56.949153 19.980403c-11.218282-.187786-22.029747 7.207835-25.906188 17.744446-1.899852 4.893194-2.378693 10.322699-1.375062 15.474304-1.437048.60333-3.418547.414273-4.375 1.8125-.809524 1.383226.438539 2.735013 1.662585 3.277306 3.591693 2.270905 7.10043 4.716657 10.743665 6.878944 1.342876.419923 2.447506-.714605 2.81014-1.916039 1.913692-3.870203 4.018422-7.67135 5.81486-11.583961.362243-1.637751-1.547605-2.847424-2.965947-2.119782-1.68356.784416-2.738443.489515-2.283726-1.652917-.173172-7.394236 5.475306-14.374515 12.777557-15.657444 1.54044-.609797 4.014276.395251 4.878366-1.444857.440354-1.571428.06148-3.317935.1875-4.955483-.13575-1.594992.279551-3.304528-.21875-4.825767-.332323-.630506-1.035475-1.050743-1.75-1.03125zm21.6875 16c-1.54828.485229-2.286823 2.166426-3.452382 3.199535-2.316249 2.6482-4.810462 5.163483-7.016368 7.894215-.780994 1.464056.716256 3.223819 2.295217 2.84375 1.518444-.145522 3.027051-.189192 1.935951 1.822122-1.610093 7.358117-8.973661 12.876733-16.503372 12.206699-2.703769-.07274-5.197986-1.178094-7.571546-2.341321-1.632379-.333891-2.366792 1.395051-3.003825 2.57011-1.071679 1.990668-2.384588 3.874027-3.308675 5.92989-.347727 1.963554 2.018724 2.646286 3.388485 3.320492 10.374341 4.863644 23.619789 2.429927 31.458842-5.976965 4.550986-4.689234 7.366393-11.011548 7.808923-17.531027 1.514028-.187065 3.26807.444144 4.59375-.46875 1.201619-1.036225.578416-2.774355-.531401-3.607807-2.899867-3.15398-5.685658-6.452978-8.656099-9.517193-.415369-.319967-.929898-.365677-1.4375-.34375z" opacity=".1"/><path d="m-56.949153 20.886653c-2.347894.0036-4.702921.290751-7 .90625-14.067377 3.769341-22.490231 18.011385-19.3125 32.09375l-3.90625 1.0625a1.0555079 1.0555079 0 0 0 -.28125 1.90625l11.28125 7.3125a1.0555079 1.0555079 0 0 0 1.5-.40625l6.09375-11.96875a1.0555079 1.0555079 0 0 0 -1.21875-1.5l-3.6875.96875c-1.747558-8.700787 3.460823-17.326317 12.15625-19.65625 1.441107-.386143 2.904919-.592551 4.375-.59375a1.0555079 1.0555079 0 0 0 1.0625-1.0625v-8a1.0555079 1.0555079 0 0 0 -1.0625-1.0625zm21.9375 16a1.0555079 1.0555079 0 0 0 -.71875.34375l-9 10a1.0555079 1.0555079 0 0 0 .78125 1.78125h3.84375c-.558484 8.862917-7.837917 15.875-16.84375 15.875-2.975631 0-5.893683-.763284-8.46875-2.25a1.0555079 1.0555079 0 0 0 -1.4375.375l-4 6.9375a1.0555079 1.0555079 0 0 0 .375 1.4375c4.114581 2.375555 8.784338 3.625 13.53125 3.625 14.564591 0 26.364247-11.574679 26.9375-26h4.0625a1.0555079 1.0555079 0 0 0 .78125-1.78125l-9-10a1.0555079 1.0555079 0 0 0 -.84375-.34375z" opacity=".15"/><path d="m-56.949153 21.949153c-2.261594.0035-4.51453.284382-6.71875.875-13.870118 3.716486-22.122737 17.973632-18.40625 31.84375l-4.8125 1.3125 11.28125 7.3125 6.09375-11.96875-4.8125 1.28125c-2.572952-9.60239 3.116361-19.458297 12.71875-22.03125 1.525999-.40889 3.09022-.623723 4.65625-.625zm22 16-9 10h5c0 9.941125-8.058875 18-18 18-3.15966 0-6.263654-.82642-9-2.40625l-4 6.9375c3.952499 2.281977 8.436047 3.46875 13 3.46875 14.359403 0 26-11.640597 26-26h5z" opacity=".3"/><path d="m-56.949153 20.949153c-2.261594.0035-4.51453.284382-6.71875.875-13.870118 3.716486-22.122737 17.973632-18.40625 31.84375l-4.8125 1.3125 11.28125 7.3125 6.09375-11.96875-4.8125 1.28125c-2.572952-9.60239 3.116361-19.458297 12.71875-22.03125 1.525999-.40889 3.09022-.623723 4.65625-.625zm22 16-9 10h5c0 9.941125-8.058875 18-18 18-3.15966 0-6.263654-.82642-9-2.40625l-4 6.9375c3.952499 2.281977 8.436047 3.46875 13 3.46875 14.359403 0 26-11.640597 26-26h5z" fill="url(#q)"/><path d="m-56.949153 20.949153c-2.261594.0035-4.51453.284382-6.71875.875-11.607766 3.110291-19.265277 13.592379-19.28125 25.0625.445761-11.07525 8.011779-21.042855 19.28125-24.0625 2.20422-.590618 4.457156-.8715 6.71875-.875zm22 16-9 10h.90625l8.09375-9 8.09375 9h.90625zm-4.0625 11c-.52128 9.473719-8.333561 17-17.9375 17-3.15966 0-6.263654-.82642-9-2.40625l-4 6.9375c.145898.08423.290178.168755.4375.25l3.5625-6.1875c2.736346 1.57983 5.84034 2.40625 9 2.40625 9.941125 0 18-8.058875 18-18zm-35.90625.0625c.0063 1.519299.181852 3.056525.59375 4.59375l4.21875-1.125.59375-1.15625-4.8125 1.28125c-.321619-1.200299-.521832-2.400249-.59375-3.59375zm-7.375 5.71875-4.59375 1.25 1.09375.71875 3.71875-1.03125c-.08287-.309269-.147713-.627968-.21875-.9375z" fill="#fefefe"/><path d="m-56.949153 27.949153c-1.56603.0013-3.130251.21611-4.65625.625-8.138867 2.180803-13.444249 9.600268-13.3125 17.65625.302653-7.66391 5.510559-14.565726 13.3125-16.65625 1.525999-.40889 3.09022-.623723 4.65625-.625zm13.90625 18-.90625 1h4.9375c.0183-.332615.0625-.662814.0625-1zm12.09375 0c0 14.359403-11.640597 26-26 26-4.395485 0-8.718732-1.098997-12.5625-3.21875l-.4375.75c3.952499 2.281977 8.436047 3.46875 13 3.46875 14.359403 0 26-11.640597 26-26h5l-.90625-1zm-52 .21875c-.06341 2.161911.151788 4.364395.65625 6.5625l.21875-.0625c-.580701-2.167206-.854498-4.355582-.875-6.5zm13.4375 4.15625-.59375.15625-5.5 10.8125-10.1875-6.59375-1.09375.28125 11.28125 7.3125z" opacity=".15"/></g></svg>