<svg height="96" width="96" xmlns="http://www.w3.org/2000/svg" xmlns:xlink="http://www.w3.org/1999/xlink"><linearGradient id="a"><stop offset="0" stop-color="#fefefe"/><stop offset="1" stop-color="#fefefe" stop-opacity="0"/></linearGradient><linearGradient id="b"><stop offset="0" stop-color="#ea880b"/><stop offset="1" stop-color="#f7cc2e"/></linearGradient><linearGradient id="c" gradientTransform="scale(1.0058652 .994169)" gradientUnits="userSpaceOnUse" x1="45.447727" x2="45.447727" y1="92.539597" y2="7.01654"><stop offset="0"/><stop offset="1" stop-opacity=".588235"/></linearGradient><linearGradient id="d"><stop offset="0" stop-color="#1d56a5"/><stop offset="1" stop-color="#5e97ea"/></linearGradient><linearGradient id="e" gradientUnits="userSpaceOnUse" x1="156.357143" x2="156.357143" xlink:href="#a" y1="6" y2="63.893143"/><filter id="f" color-interpolation-filters="sRGB" height="1.384" width="1.384" x="-.192" y="-.192"><feGaussianBlur stdDeviation="5.28"/></filter><linearGradient id="g" gradientUnits="userSpaceOnUse" x1="48" x2="48" xlink:href="#a" y1="20.220806" y2="138.66119"/><radialGradient id="h" cx="48" cy="90.171875" gradientTransform="matrix(1.1573129 0 0 .99590774 112.44898 .197132)" gradientUnits="userSpaceOnUse" r="42" xlink:href="#a"/><clipPath id="i"><rect height="84" rx="6" width="84" x="6" y="6"/></clipPath><linearGradient id="j" gradientUnits="userSpaceOnUse" x1="168" x2="168" xlink:href="#d" y1="90" y2="5.987717"/><linearGradient id="k" gradientUnits="userSpaceOnUse" x1="-52" x2="-52" xlink:href="#d" y1="90" y2="5.987717"/><linearGradient id="l" gradientUnits="userSpaceOnUse" x1="-10" x2="-10" xlink:href="#d" y1="48" y2="-36.012283"/><linearGradient id="m" gradientUnits="userSpaceOnUse" x1="-59.99999964" x2="-59.99999964" xlink:href="#d" y1="40.0000003" y2="-8.00701843713"/><linearGradient id="n" gradientUnits="userSpaceOnUse" x1="-19.99999964" x2="-19.99999964" xlink:href="#d" y1="80.0000003" y2="31.99298156287"/><linearGradient id="o" gradientTransform="translate(0 1)" gradientUnits="userSpaceOnUse" x1="48" x2="48" xlink:href="#c" y1="90" y2="5.987717"/><linearGradient id="p" gradientUnits="userSpaceOnUse" x1="55" x2="55" xlink:href="#c" y1="92" y2="6.905934"/><linearGradient id="q" gradientUnits="userSpaceOnUse" x1="58" x2="80" xlink:href="#a" y1="-27" y2="-27"/><linearGradient id="r" gradientUnits="userSpaceOnUse" x1="90" x2="90" xlink:href="#b" y1="48" y2="6"/><linearGradient id="s" gradientUnits="userSpaceOnUse" x1="48" x2="48" xlink:href="#b" y1="90" y2="48"/><linearGradient id="t" gradientUnits="userSpaceOnUse" x1="16" x2="38" xlink:href="#a" y1="-69" y2="-69"/><linearGradient id="u" gradientUnits="userSpaceOnUse" x1="40" x2="40" xlink:href="#a" y1="8" y2="72.498062"/><radialGradient id="v" cx="48" cy="90.171875" gradientTransform="matrix(1.1573129 0 0 .99590774 -7.55102 .197132)" gradientUnits="userSpaceOnUse" r="42" xlink:href="#a"/><linearGradient id="w" gradientUnits="userSpaceOnUse" x1="40.00000036" x2="40.00000036" xlink:href="#d" y1="40.0000003" y2="16.00000036"/><linearGradient id="x" gradientUnits="userSpaceOnUse" x1="80.00000036" x2="80.00000036" xlink:href="#d" y1="80.0000003" y2="56.00000036"/><linearGradient id="y" gradientUnits="userSpaceOnUse" x1="27" x2="27" xlink:href="#a" y1="16" y2="36.099751"/><linearGradient id="z" gradientUnits="userSpaceOnUse" x1="67" x2="67" xlink:href="#a" y1="56" y2="76.099751"/><g fill="url(#p)"><path d="m54 3.96875c-5.525119 0-10.03125 4.5061313-10.03125 10.03125v6.1875c-.174144-3.439581-2.988373-6.21875-6.46875-6.21875h-19c-3.59127 0-6.53125 2.93998-6.53125 6.53125v18c0 3.59127 2.93998 6.53125 6.53125 6.53125h19c3.480377 0 6.294606-2.779169 6.46875-6.21875v4.1875c0 1.235864.26047 2.396071.6875 3.46875-.839961-.269167-1.70895-.5-2.65625-.5h-30c-5.5251187 0-10.03125 4.506131-10.03125 10.03125v29c0 5.525119 4.5061313 10.03125 10.03125 10.03125h30c5.525119 0 10.03125-4.506131 10.03125-10.03125v-6.1875c.174144 3.439581 2.988373 6.21875 6.46875 6.21875h19c3.59127 0 6.53125-2.93998 6.53125-6.53125v-18c0-3.59127-2.93998-6.53125-6.53125-6.53125h-19c-3.480377 0-6.294606 2.779169-6.46875 6.21875v-4.1875c0-1.235864-.26047-2.396071-.6875-3.46875.839961.269167 1.70895.5 2.65625.5h30c5.525119 0 10.03125-4.506131 10.03125-10.03125v-29c0-5.5251187-4.506131-10.03125-10.03125-10.03125z" opacity=".08"/><path d="m54 4.96875c-4.979974 0-9.03125 4.0512759-9.03125 9.03125v29c0 2.287681.935423 4.312054 2.34375 5.90625-1.510624-1.135194-3.283165-1.9375-5.3125-1.9375h-30c-4.9799741 0-9.03125 4.051276-9.03125 9.03125v29c0 4.979974 4.0512759 9.03125 9.03125 9.03125h30c4.979974 0 9.03125-4.051276 9.03125-9.03125v-29c0-2.287681-.935423-4.312054-2.34375-5.90625 1.510624 1.135194 3.283165 1.9375 5.3125 1.9375h30c4.979974 0 9.03125-4.051276 9.03125-9.03125v-29c0-4.9799741-4.051276-9.03125-9.03125-9.03125zm-35.5 10c-3.043538 0-5.53125 2.487712-5.53125 5.53125v18c0 3.043538 2.487712 5.53125 5.53125 5.53125h19c3.043538 0 5.53125-2.487712 5.53125-5.53125v-18c0-3.043538-2.487712-5.53125-5.53125-5.53125zm40 40c-3.043538 0-5.53125 2.487712-5.53125 5.53125v18c0 3.043538 2.487712 5.53125 5.53125 5.53125h19c3.043538 0 5.53125-2.487712 5.53125-5.53125v-18c0-3.043538-2.487712-5.53125-5.53125-5.53125z" opacity=".1"/><path d="m54 7c-3.878 0-7 3.122-7 7v29c0 3.878 3.122 7 7 7h30c3.878 0 7-3.122 7-7v-29c0-3.878-3.122-7-7-7zm-35.5 10c-1.939 0-3.5 1.561-3.5 3.5v18c0 1.939 1.561 3.5 3.5 3.5h19c1.939 0 3.5-1.561 3.5-3.5v-18c0-1.939-1.561-3.5-3.5-3.5zm-6.5 32c-3.878 0-7 3.122-7 7v29c0 3.878 3.122 7 7 7h30c3.878 0 7-3.122 7-7v-29c0-3.878-3.122-7-7-7zm46.5 8c-1.939 0-3.5 1.561-3.5 3.5v18c0 1.939 1.561 3.5 3.5 3.5h19c1.939 0 3.5-1.561 3.5-3.5v-18c0-1.939-1.561-3.5-3.5-3.5z" opacity=".3"/><path d="m54 5.96875c-4.437195 0-8.03125 3.5940551-8.03125 8.03125v29c0 4.437195 3.594055 8.03125 8.03125 8.03125h30c4.437195 0 8.03125-3.594055 8.03125-8.03125v-29c0-4.4371949-3.594055-8.03125-8.03125-8.03125zm-35.5 10c-2.498195 0-4.53125 2.033055-4.53125 4.53125v18c0 2.498195 2.033055 4.53125 4.53125 4.53125h19c2.498195 0 4.53125-2.033055 4.53125-4.53125v-18c0-2.498195-2.033055-4.53125-4.53125-4.53125zm-6.5 32c-4.4371949 0-8.03125 3.594055-8.03125 8.03125v29c0 4.437195 3.5940551 8.03125 8.03125 8.03125h30c4.437195 0 8.03125-3.594055 8.03125-8.03125v-29c0-4.437195-3.594055-8.03125-8.03125-8.03125zm46.5 8c-2.498195 0-4.53125 2.033055-4.53125 4.53125v18c0 2.498195 2.033055 4.53125 4.53125 4.53125h19c2.498195 0 4.53125-2.033055 4.53125-4.53125v-18c0-2.498195-2.033055-4.53125-4.53125-4.53125z" opacity=".2"/></g><path d="m54 7c-3.324 0-6 2.676-6 6v30c0 3.324 2.676 6 6 6h30c3.324 0 6-2.676 6-6v-30c0-3.324-2.676-6-6-6zm-35 10c-1.662 0-3 1.338-3 3v18c0 1.662 1.338 3 3 3h18c1.662 0 3-1.338 3-3v-18c0-1.662-1.338-3-3-3zm-7 32c-3.324 0-6 2.676-6 6v30c0 3.324 2.676 6 6 6h30c3.324 0 6-2.676 6-6v-30c0-3.324-2.676-6-6-6zm47 8c-1.662 0-3 1.338-3 3v18c0 1.662 1.338 3 3 3h18c1.662 0 3-1.338 3-3v-18c0-1.662-1.338-3-3-3z" fill="url(#o)" opacity=".45"/><rect fill="url(#k)" height="42" rx="6" width="42" x="-94" y="48"/><rect fill="url(#l)" height="42" rx="6" width="42" x="-52" y="6"/><rect fill="url(#m)" height="24" rx="3" width="24" x="-84" y="16"/><rect fill="url(#n)" height="24" rx="3" width="24" x="-44" y="56"/><rect fill="url(#j)" height="84" rx="6" width="84" x="126" y="6"/><rect fill="url(#s)" height="42" rx="6" width="42" x="6" y="48"/><path d="m132 6c-3.324 0-6 2.676-6 6v2 68 2c0 .334721.0413.6507.0937.96875.0487.295596.097.596915.1875.875.01.03038.0209.0636.0312.09375.0989.287771.23488.547452.375.8125.14459.273507.31562.535615.5.78125s.37378.473472.59375.6875c.43995.428056.94291.814526 1.5 1.09375.27854.139612.57347.246947.875.34375-.2562-.100222-.48671-.236272-.71875-.375-.007-.0044-.0239.0045-.0312 0-.0319-.0193-.0623-.04251-.0937-.0625-.1204-.0767-.23102-.163513-.34375-.25-.10617-.0808-.21328-.161112-.3125-.25-.17793-.161433-.34746-.345388-.5-.53125-.10758-.130255-.21839-.265285-.3125-.40625-.0251-.03838-.0384-.08587-.0625-.125-.0648-.103032-.13023-.204517-.1875-.3125-.10101-.194706-.20567-.415701-.28125-.625-.008-.02181-.0236-.04055-.0312-.0625-.0318-.09195-.0358-.186831-.0625-.28125-.0303-.106618-.0704-.203031-.0937-.3125-.07298-.341512-.1251-.698205-.1251-1.0625v-2-68-2c0-2.781848 2.21815-5 5-5h2 68 2c2.78185 0 5 2.218152 5 5v2 68 2c0 .364295-.0521.720988-.125 1.0625-.0442.206893-.0884.397658-.15625.59375-.008.02195-.0233.04069-.0312.0625-.0627.173739-.13838.367449-.21875.53125-.0416.0828-.079.169954-.125.25-.0546.09721-.12677.18835-.1875.28125-.0941.140965-.20492.275995-.3125.40625-.14317.17445-.30314.346998-.46875.5-.0112.0102-.02.02115-.0312.03125-.13839.125556-.28509.234436-.4375.34375-.10257.07315-.20432.153364-.3125.21875-.007.0045-.0238-.0044-.0312 0-.23204.138728-.46255.274778-.71875.375.30153-.0968.59646-.204138.875-.34375.55709-.279224 1.06005-.665694 1.5-1.09375.21997-.214028.40937-.441865.59375-.6875s.35541-.507743.5-.78125c.14012-.265048.27613-.524729.375-.8125.0104-.03078.0213-.06274.0312-.09375.0905-.278085.1388-.579404.1875-.875.0523-.31805.09365-.634029.09365-.96875v-2-68-2c0-3.324-2.676-6-6-6z" fill="url(#e)" opacity=".5"/><path d="m132 90c-3.324 0-6-2.676-6-6v-2-68-2c0-.334721.0413-.6507.0937-.96875.0487-.295596.097-.596915.1875-.875.01-.03038.0209-.0636.0312-.09375.0989-.287771.23488-.547452.375-.8125.14459-.273507.31562-.535615.5-.78125s.37378-.473472.59375-.6875c.43995-.428056.94291-.814526 1.5-1.09375.27854-.139612.57347-.246947.875-.34375-.2562.100222-.48671.236272-.71875.375-.007.0044-.0239-.0045-.0312 0-.0319.0193-.0623.04251-.0937.0625-.1204.0767-.23102.163513-.34375.25-.10617.0808-.21328.161112-.3125.25-.17793.161433-.34746.345388-.5.53125-.10758.130255-.21839.265285-.3125.40625-.0251.03838-.0384.08587-.0625.125-.0648.103032-.13023.204517-.1875.3125-.10101.194706-.20567.415701-.28125.625-.008.02181-.0236.04055-.0312.0625-.0318.09195-.0358.186831-.0625.28125-.0303.106618-.0704.203031-.0937.3125-.07298.341512-.1251.698205-.1251 1.0625v2 68 2c0 2.781848 2.21815 5 5 5h2 68 2c2.78185 0 5-2.218152 5-5v-2-68-2c0-.364295-.0521-.720988-.125-1.0625-.0442-.206893-.0884-.397658-.15625-.59375-.008-.02195-.0233-.04069-.0312-.0625-.0627-.173739-.13838-.367449-.21875-.53125-.0416-.0828-.079-.169954-.125-.25-.0546-.09721-.12677-.18835-.1875-.28125-.0941-.140965-.20492-.275995-.3125-.40625-.14317-.17445-.30314-.346998-.46875-.5-.0112-.0102-.02-.02115-.0312-.03125-.13839-.125556-.28509-.234436-.4375-.34375-.10257-.07315-.20432-.153364-.3125-.21875-.007-.0045-.0238.0044-.0312 0-.23204-.138728-.46255-.274778-.71875-.375.30153.0968.59646.204138.875.34375.55709.279224 1.06005.665694 1.5 1.09375.21997.214028.40937.441865.59375.6875s.35541.507743.5.78125c.14012.265048.27613.524729.375.8125.0104.03078.0213.06274.0312.09375.0905.278085.1388.579404.1875.875.0523.31805.09365.634029.09365.96875v2 68 2c0 3.324-2.676 6-6 6z" fill="url(#h)" opacity=".2"/><rect fill="url(#r)" height="42" rx="6" width="42" x="48" y="6"/><rect fill="url(#w)" height="24" rx="3" width="24" x="16" y="16"/><rect fill="url(#x)" height="24" rx="3" width="24" x="56" y="56"/><path d="m58-38h22v22h-22z" fill="url(#q)" opacity=".4" transform="rotate(90)"/><path d="m12 48c-1.662 0-3.1655.6655-4.25 1.75l8.25 8.25h22l8.25-8.25c-1.0845-1.0845-2.588-1.75-4.25-1.75z" fill="#fefefe" opacity=".15"/><path d="m12 90c-1.662 0-3.1655-.6655-4.25-1.75l8.25-8.25h22l8.25 8.25c-1.0845 1.0845-2.588 1.75-4.25 1.75z" fill="#803300" opacity=".2"/><path d="m48 84c0 1.662-.6655 3.1655-1.75 4.25l-8.25-8.25v-22l8.25-8.25c1.0845 1.0845 1.75 2.588 1.75 4.25z" fill="#803300" opacity=".1"/><path d="m16-80h22v22h-22z" fill="url(#t)" opacity=".4" transform="rotate(90)"/><path d="m54 6c-1.662 0-3.1655.6655-4.25 1.75l8.25 8.25h22l8.25-8.25c-1.0845-1.0845-2.588-1.75-4.25-1.75z" fill="#fefefe" opacity=".15"/><path d="m54 48c-1.662 0-3.1655-.6655-4.25-1.75l8.25-8.25h22l8.25 8.25c-1.0845 1.0845-2.588 1.75-4.25 1.75z" fill="#803300" opacity=".2"/><path d="m90 42c0 1.662-.6655 3.1655-1.75 4.25l-8.25-8.25v-22l8.25-8.25c1.0845 1.0845 1.75 2.588 1.75 4.25z" fill="#803300" opacity=".1"/><path d="m54 6c-3.324 0-6 2.676-6 6v30c0 2.468282 1.473018 4.576699 3.59375 5.5-1.615193-.857718-2.71875-2.52636-2.71875-4.5v-30c0-2.852501 2.2725-5.125 5.125-5.125h30c2.8525 0 5.125 2.272499 5.125 5.125v30c0 1.97364-1.103557 3.642282-2.71875 4.5 2.120732-.923301 3.59375-3.031718 3.59375-5.5v-30c0-3.324-2.676-6-6-6zm-42 42c-3.324 0-6 2.676-6 6v30c0 2.468282 1.4730176 4.576699 3.59375 5.5-1.6151927-.857718-2.71875-2.526361-2.71875-4.5v-30c0-2.8525 2.2724992-5.125 5.125-5.125h30c2.852501 0 5.125 2.272499 5.125 5.125v30c0 1.97364-1.103557 3.642282-2.71875 4.5 2.120732-.923301 3.59375-3.031718 3.59375-5.5v-30c0-3.324-2.676-6-6-6z" fill="url(#u)" opacity=".4"/><path d="m7 50.6875c-.6305661.950028-1 2.081981-1 3.3125v28 2c0 3.324 2.676 6 6 6h30c1.781762 0 3.371709-.774568 4.46875-2h-32.46875-2c-2.78185 0-5-2.218152-5-5v-2z" fill="url(#v)" opacity=".2"/><path d="m19 16c-1.662 0-3 1.338-3 3v18c0 1.385.947222 2.526806 2.21875 2.875-.730953-.305183-1.25-1.023459-1.25-1.875v-18c0-1.135388.895862-2.03125 2.03125-2.03125h18c1.135388 0 2.03125.895862 2.03125 2.03125v18c0 .851541-.519047 1.569817-1.25 1.875 1.271528-.348194 2.21875-1.49 2.21875-2.875v-18c0-1.662-1.338-3-3-3z" fill="url(#y)" opacity=".3"/><path d="m59 56c-1.662 0-3 1.338-3 3v18c0 1.385.947222 2.526806 2.21875 2.875-.730953-.305183-1.25-1.023459-1.25-1.875v-18c0-1.135388.895862-2.03125 2.03125-2.03125h18c1.135388 0 2.03125.895862 2.03125 2.03125v18c0 .851541-.519047 1.569817-1.25 1.875 1.271528-.348194 2.21875-1.49 2.21875-2.875v-18c0-1.662-1.338-3-3-3z" fill="url(#z)" opacity=".3"/><rect height="66" rx="12" style="opacity:.1;stroke:#fefefe;stroke-width:.5;stroke-linecap:round;clip-path:url(#i);fill:url(#g);filter:url(#f)" width="66" x="15" y="15"/></svg>