<svg height="96" width="96" xmlns="http://www.w3.org/2000/svg" xmlns:xlink="http://www.w3.org/1999/xlink"><linearGradient id="a"><stop offset="0"/><stop offset="1" stop-opacity=".588235"/></linearGradient><linearGradient id="b" gradientTransform="scale(1.0058652 .994169)" gradientUnits="userSpaceOnUse" x1="45.447727" x2="45.447727" xlink:href="#a" y1="92.539597" y2="7.01654"/><linearGradient id="c"><stop offset="0" stop-color="#fefefe"/><stop offset="1" stop-color="#fefefe" stop-opacity="0"/></linearGradient><linearGradient id="d" gradientUnits="userSpaceOnUse" x1="36.357143" x2="36.357143" xlink:href="#c" y1="6" y2="63.893143"/><filter id="e" color-interpolation-filters="sRGB" height="1.384" width="1.384" x="-.192" y="-.192"><feGaussianBlur stdDeviation="5.28"/></filter><linearGradient id="f" gradientUnits="userSpaceOnUse" x1="48" x2="48" xlink:href="#c" y1="20.220806" y2="138.66119"/><radialGradient id="g" cx="48" cy="90.171875" gradientTransform="matrix(1.1573129 0 0 .99590774 -7.551021 .197132)" gradientUnits="userSpaceOnUse" r="42" xlink:href="#c"/><clipPath id="h"><rect height="84" rx="6" width="84" x="6" y="6"/></clipPath><linearGradient id="i" gradientUnits="userSpaceOnUse" x1="48" x2="48" y1="90" y2="5.987717"><stop offset="0" stop-color="#a5aaaf"/><stop offset="1" stop-color="#d4d7d9"/></linearGradient><linearGradient id="j" gradientTransform="matrix(1.0058652 0 0 .994169 100 0)" gradientUnits="userSpaceOnUse" x1="45.447727" x2="45.447727" xlink:href="#a" y1="92.539597" y2="7.01654"/><linearGradient id="k" gradientTransform="matrix(1.0238095 0 0 1.0119048 -1.142857 -98.071429)" gradientUnits="userSpaceOnUse" x1="32.251034" x2="32.251034" xlink:href="#j" y1="6.131708" y2="90.238609"/><linearGradient id="l" gradientTransform="translate(0 -97)" gradientUnits="userSpaceOnUse" x1="32.251034" x2="32.251034" xlink:href="#j" y1="6.131708" y2="90.238609"/><linearGradient id="m" gradientTransform="matrix(.69545118 0 0 .69347601 17.631002 13.304688)" gradientUnits="userSpaceOnUse" x1="36.181816" x2="36.181816" xlink:href="#b" y1="19.555605" y2="76.44445"/><linearGradient id="n" gradientUnits="userSpaceOnUse" x1="53.20710879509" x2="53.20710879509" y1="92.9556462" y2="139.23019679682"><stop offset="0" stop-color="#f6f6f6"/><stop offset="1" stop-color="#d2d2d2"/></linearGradient><linearGradient id="o" gradientUnits="userSpaceOnUse" x1="70.4923883282" x2="70.4923883282" y1="92.9556462" y2="139.212327"><stop offset="0" stop-color="#aaa"/><stop offset="1" stop-color="#8c8c8c"/></linearGradient><g fill="url(#k)"><path d="m12-95.03125c-5.5110903 0-10.03125 4.52016-10.03125 10.03125v71c0 5.5110902 4.5201598 10.03125 10.03125 10.03125h72c5.51109 0 10.03125-4.5201597 10.03125-10.03125v-71c0-5.51109-4.52016-10.03125-10.03125-10.03125z" opacity=".08" transform="scale(1 -1)"/><path d="m12-94.03125c-4.971633 0-9.03125 4.059617-9.03125 9.03125v71c0 4.9716329 4.0596171 9.03125 9.03125 9.03125h72c4.971633 0 9.03125-4.059617 9.03125-9.03125v-71c0-4.971633-4.059617-9.03125-9.03125-9.03125z" opacity=".1" transform="scale(1 -1)"/><path d="m12-93c-4.4091333 0-8 3.590867-8 8v71c0 4.4091333 3.5908667 8 8 8h72c4.409133 0 8-3.5908667 8-8v-71c0-4.409133-3.590867-8-8-8z" opacity=".2" transform="scale(1 -1)"/><rect height="85" opacity=".3" rx="7" transform="scale(1 -1)" width="86" x="5" y="-92"/></g><rect fill="url(#l)" height="84" opacity=".45" rx="6" transform="scale(1 -1)" width="84" x="6" y="-91"/><rect fill="url(#i)" height="84" rx="6" width="84" x="6" y="6"/><path d="m12 6c-3.324 0-6 2.676-6 6v2 68 2c0 .334721.04135.6507.09375.96875.0487.295596.09704.596915.1875.875.00988.03038.020892.0636.03125.09375.098865.287771.2348802.547452.375.8125.1445918.273507.3156161.535615.5.78125s.3737765.473472.59375.6875c.439947.428056.94291.814526 1.5 1.09375.278545.139612.5734731.246947.875.34375-.2562018-.100222-.4867109-.236272-.71875-.375-.00741-.0044-.023866.0045-.03125 0-.031933-.0193-.062293-.04251-.09375-.0625-.120395-.0767-.2310226-.163513-.34375-.25-.1061728-.0808-.2132809-.161112-.3125-.25-.1779299-.161433-.3474596-.345388-.5-.53125-.1075789-.130255-.2183939-.265285-.3125-.40625-.025089-.03838-.038446-.08587-.0625-.125-.064763-.103032-.1302275-.204517-.1875-.3125-.1010083-.194706-.2056748-.415701-.28125-.625-.00796-.02181-.023589-.04055-.03125-.0625-.0318251-.09195-.0358045-.186831-.0625-.28125-.0303323-.106618-.0703894-.203031-.09375-.3125-.0728786-.341512-.125-.698205-.125-1.0625v-2-68-2c0-2.781848 2.2181517-5 5-5h2 68 2c2.781848 0 5 2.218152 5 5v2 68 2c0 .364295-.05212.720988-.125 1.0625-.04415.206893-.08838.397658-.15625.59375-.0077.02195-.0233.04069-.03125.0625-.06274.173739-.138383.367449-.21875.53125-.04158.0828-.07904.169954-.125.25-.0546.09721-.126774.18835-.1875.28125-.09411.140965-.204921.275995-.3125.40625-.143174.17445-.303141.346998-.46875.5-.01117.0102-.01998.02115-.03125.03125-.138386.125556-.285091.234436-.4375.34375-.102571.07315-.204318.153364-.3125.21875-.0074.0045-.02384-.0044-.03125 0-.232039.138728-.462548.274778-.71875.375.301527-.0968.596455-.204138.875-.34375.55709-.279224 1.060053-.665694 1.5-1.09375.219973-.214028.409366-.441865.59375-.6875s.355408-.507743.5-.78125c.14012-.265048.276135-.524729.375-.8125.01041-.03078.02133-.06274.03125-.09375.09046-.278085.1388-.579404.1875-.875.0524-.31805.09375-.634029.09375-.96875v-2-68-2c0-3.324-2.676-6-6-6z" fill="url(#d)" opacity=".5"/><path d="m12 90c-3.324 0-6-2.676-6-6v-2-68-2c0-.334721.04135-.6507.09375-.96875.0487-.295596.09704-.596915.1875-.875.00988-.03038.020892-.0636.03125-.09375.098865-.287771.2348802-.547452.375-.8125.1445918-.273507.3156161-.535615.5-.78125s.3737765-.473472.59375-.6875c.439947-.428056.94291-.814526 1.5-1.09375.278545-.139612.5734731-.246947.875-.34375-.2562018.100222-.4867109.236272-.71875.375-.00741.0044-.023866-.0045-.03125 0-.031933.0193-.062293.04251-.09375.0625-.120395.0767-.2310226.163513-.34375.25-.1061728.0808-.2132809.161112-.3125.25-.1779299.161433-.3474596.345388-.5.53125-.1075789.130255-.2183939.265285-.3125.40625-.025089.03838-.038446.08587-.0625.125-.064763.103032-.1302275.204517-.1875.3125-.1010083.194706-.2056748.415701-.28125.625-.00796.02181-.023589.04055-.03125.0625-.0318251.09195-.0358045.186831-.0625.28125-.0303323.106618-.0703894.203031-.09375.3125-.0728786.341512-.125.698205-.125 1.0625v2 68 2c0 2.781848 2.2181517 5 5 5h2 68 2c2.781848 0 5-2.218152 5-5v-2-68-2c0-.364295-.05212-.720988-.125-1.0625-.04415-.206893-.08838-.397658-.15625-.59375-.0077-.02195-.0233-.04069-.03125-.0625-.06274-.173739-.138383-.367449-.21875-.53125-.04158-.0828-.07904-.169954-.125-.25-.0546-.09721-.126774-.18835-.1875-.28125-.09411-.140965-.204921-.275995-.3125-.40625-.143174-.17445-.303141-.346998-.46875-.5-.01117-.0102-.01998-.02115-.03125-.03125-.138386-.125556-.285091-.234436-.4375-.34375-.102571-.07315-.204318-.153364-.3125-.21875-.0074-.0045-.02384.0044-.03125 0-.232039-.138728-.462548-.274778-.71875-.375.301527.0968.596455.204138.875.34375.55709.279224 1.060053.665694 1.5 1.09375.219973.214028.409366.441865.59375.6875s.355408.507743.5.78125c.14012.265048.276135.524729.375.8125.01041.03078.02133.06274.03125.09375.09046.278085.1388.579404.1875.875.0524.31805.09375.634029.09375.96875v2 68 2c0 3.324-2.676 6-6 6z" fill="url(#g)" opacity=".2"/><rect height="66" rx="12" style="opacity:.1;stroke:#fefefe;stroke-width:.5;stroke-linecap:round;clip-path:url(#h);fill:url(#f);filter:url(#e)" width="66" x="15" y="15"/><g transform="matrix(1.52715247519 0 0 1.52715247519 -38.61805883762 -130.05263124414)"><g stroke-width=".821897"><path d="m53.480934 91.426014c-2.491991 0-4.469475 2.089262-4.469475 4.520433v1.232845c-.33184.128668-.650317.291149-.976002.436633l-.898333-.898333c-.727379-.727379-1.817707-1.35013-3.133482-1.361226-1.149094-.0098-2.3069.431973-3.18485 1.309939l-4.443997 4.442355c-1.76527 1.76527-1.647327 4.61947.05137 6.31833l.898991.89899c-.146298.32629-.308212.64437-.437249.97641h-1.232846c-2.431417 0-4.520432 1.97749-4.520432 4.46948v6.26696c0 2.49166 2.089015 4.46907 4.520432 4.46907h1.232846c.128668.33184.291148.65031.436632.976l-.89899.89899c-1.698861 1.69886-1.816803 4.55306-.05137 6.31833l4.443339 4.44334c1.76527 1.76527 4.619389 1.64757 6.318332-.0514l.899155-.89998c.326293.14548.644367.30739.976413.43643v1.23284c0 2.43142 1.977402 4.52044 4.469064 4.52044h6.266964c2.491662 0 4.469064-2.08902 4.469064-4.52044v-1.23284c.331841-.12867.650318-.29115.976002-.43663l.898991.89899c1.698943 1.69894 4.553062 1.81664 6.318332.0514l4.442353-4.444c1.76527-1.76527 1.647327-4.61947-.05137-6.31833l-.898333-.89916c.145476-.32629.307389-.64436.436427-.97641h1.232845c2.431418 0 4.520433-1.9774 4.520433-4.46906v-6.26697c0-2.49117-2.089262-4.46865-4.520433-4.46865h-1.232845c-.129038-.33369-.291773-.65176-.437249-.97724l.898991-.89899c1.69886-1.69886 1.816803-4.55306.05137-6.31833l-4.443996-4.44235c-1.76527-1.76527-4.619389-1.647575-6.318332.05137l-.899155.898333c-.326293-.145475-.644367-.307389-.976414-.436427v-1.232845c0-2.431418-1.977401-4.520433-4.469064-4.520433h-6.266964zm3.133071 21.523836c2.233176 0 3.955379 1.7222 3.955379 3.95538 0 2.23317-1.722203 3.95538-3.955379 3.95538s-3.955378-1.72221-3.955378-3.95538c0-2.23318 1.722202-3.95538 3.955378-3.95538z" display="block" opacity=".05"/><path d="m53.480934 92.27339c-2.026386 0-3.621441 1.690231-3.621441 3.672892v1.7979c-.695933.25164-1.375034.528069-2.029099.84754l-1.284625-1.284625c-.599163-.599163-1.484346-1.095588-2.542949-1.104629-.936962-.0074-1.8805.340265-2.593906 1.053671l-4.443175 4.443171c-1.431004 1.43109-1.329993 3.75533.05137 5.13686l1.284214 1.28421c-.319513.654-.595941 1.33312-.84754 2.0291h-1.7979c-1.982579 0-3.672892 1.59514-3.672892 3.62144v6.26697c0 2.02638 1.69023 3.62144 3.672892 3.62144h1.7979c.251648.69593.528068 1.37503.84754 2.0291l-1.284214 1.28421c-1.381444 1.38145-1.482538 3.70585-.05137 5.13686l4.443175 4.44317c1.431004 1.43101 3.755328 1.33016 5.136855-.0514l1.284214-1.28421c.653999.31951 1.333116.59594 2.029099.84754v1.7979c0 1.98258 1.595137 3.67289 3.621441 3.67289h6.266964c2.026387 0 3.621442-1.69023 3.621442-3.67289v-1.7979c.695933-.25164 1.375033-.52807 2.029099-.84754l1.284624 1.2838c1.381527 1.38153 3.705851 1.48237 5.136856.0514l4.443174-4.44317c1.431005-1.43109 1.329994-3.75533-.05137-5.13686l-1.284623-1.28462c.319512-.654.595941-1.33312.84754-2.0291h1.797899c1.98258 0 3.672893-1.59514 3.672893-3.62145v-6.26696c0-2.02639-1.690231-3.62144-3.672893-3.62144h-1.797899c-.251501-.69615-.527658-1.37586-.847376-2.03009l1.284214-1.28421c1.381444-1.38144 1.482537-3.70585.05137-5.13685l-4.443175-4.443179c-1.431004-1.431004-3.755329-1.330158-5.136855.05137l-1.284214 1.284214c-.65423-.318896-1.333938-.595054-2.029263-.846554v-1.797899c0-1.98258-1.595138-3.672893-3.621442-3.672893h-6.266964zm3.133071 19.82826c2.676343 0 4.803001 2.12658 4.803001 4.803 0 2.67634-2.126576 4.803-4.803001 4.803-2.676343 0-4.803001-2.12657-4.803001-4.803 0-2.67634 2.126576-4.803 4.803001-4.803z" display="block" opacity=".08"/><path d="m53.480934 93.095287c-1.559549 0-2.799545 1.315281-2.799545 2.850995v2.362954c-1.054329.34444-2.071262.780185-3.030744 1.284214l-1.695162-1.695163c-.479512-.479511-1.160272-.866525-1.952005-.873265-.720377-.0062-1.45147.270026-2.003374.821897l-4.443339 4.443341c-1.097807 1.0978-1.017179 2.88675.05137 3.95538l1.695162 1.69516c-.504028.95948-.939757 1.97641-1.284214 3.03074h-2.362954c-1.535714 0-2.850996 1.24-2.850996 2.79955v6.26696c0 1.55955 1.315282 2.79955 2.850996 2.79955h2.362953c.344441 1.05433.780186 2.07126 1.284214 3.03074l-1.695162 1.69516c-1.06863 1.06863-1.149259 2.85757-.05137 3.95538l4.443339 4.44334c1.097725 1.09781 2.886748 1.01726 3.955379-.0514l1.695162-1.69516c.959482.50403 1.976415.93976 3.030744 1.28421v2.36296c0 1.53563 1.239996 2.85099 2.799545 2.85099h6.266964c1.559549 0 2.799545-1.31528 2.799545-2.85099v-2.36296c1.054329-.34444 2.071262-.78018 3.030744-1.28421l1.695163 1.69516c1.06863 1.06863 2.857653 1.14909 3.955378.0514l4.443339-4.44334c1.097808-1.09781 1.01718-2.88675-.05137-3.95538l-1.695162-1.69516c.504028-.95948.939757-1.97641 1.284214-3.03074h2.362953c1.535633 0 2.850996-1.24 2.850996-2.79955v-6.26696c0-1.55955-1.315281-2.79955-2.850996-2.79955h-2.362953c-.34444-1.05433-.780186-2.07126-1.284214-3.03074l1.695162-1.69516c1.068631-1.06863 1.149259-2.85758.05137-3.95538l-4.442352-4.44482c-1.097726-1.097726-2.886749-1.017262-3.955379.05137l-1.695162 1.695162c-.958332-.504644-1.975018-.94025-3.029512-1.284624v-2.362954c0-1.535714-1.240078-2.850996-2.799545-2.850996h-6.266963zm3.133071 18.184463c3.120578 0 5.624898 2.50432 5.624898 5.6249s-2.50432 5.6249-5.624898 5.6249-5.624897-2.50432-5.624897-5.6249 2.504319-5.6249 5.624897-5.6249z" display="block" opacity=".2"/><path d="m53.480934 93.891705c-1.120245 0-2.003784.935318-2.003784 2.054742v2.876639c-1.411937.403502-2.752615.992522-4.006747 1.695164l-2.080385-2.054744c-.375024-.375015-.847869-.637537-1.386951-.642107-.517565-.0044-1.037974.190376-1.43832.590738l-4.443174 4.443173c-.789539.78955-.733708 2.04011.05137 2.82527l2.054742 2.08039c-.701899 1.25421-1.2912 2.59473-1.694751 4.00674h-2.876639c-1.119752 0-2.054742.88395-2.054742 2.00338v6.26696c0 1.11942.93499 2.00337 2.054742 2.00337h2.876639c.40351 1.41194.992523 2.75262 1.695162 4.00675l-2.054742 2.08039c-.78515.78515-.840965 2.03575-.05137 2.82527l4.443174 4.44317c.789531.78954 2.040112.73379 2.82527-.0514l2.080386-2.05474c1.254132.70268 2.59481 1.29169 4.006747 1.69516v2.87664c0 1.11975.88395 2.05474 2.003373 2.05474h6.266964c1.119423 0 2.003373-.93499 2.003373-2.05474v-2.87664c1.411937-.4035 2.752615-.99252 4.006748-1.69516l2.080385 2.05474c.785158.78517 2.035756.84088 2.82527.0514l4.443175-4.44317c.789538-.78955.733707-2.04011-.05137-2.82527l-2.054742-2.08039c.7019-1.25421 1.2912-2.59473 1.694751-4.00675h2.876639c1.119752 0 2.054742-.88395 2.054742-2.00337v-6.26696c0-1.11943-.935318-2.00297-2.054742-2.00297h-2.876638c-.403502-1.41193-.992522-2.75261-1.695162-4.00674l2.054742-2.08039c.78515-.78515.840965-2.03575.05137-2.82527l-4.443175-4.443172c-.789538-.78953-2.040112-.733789-2.82527.05137l-2.080386 2.054742c-1.254215-.701079-2.594729-1.290379-4.006748-1.69393v-2.876639c0-1.119753-.88395-2.054742-2.003373-2.054742h-6.266964zm3.133071 16.592455c3.547389 0 6.421069 2.87368 6.421069 6.42107s-2.87368 6.42107-6.421069 6.42107-6.421069-2.87368-6.421069-6.42107 2.87368-6.42107 6.421069-6.42107z" display="block" opacity=".3"/><path d="m53.493263 93.480756c-.889539 0-1.609767.737883-1.609767 1.642561v3.186659c-1.590453.42377-3.110222 1.063863-4.500707 1.872524l-2.266792-2.266788c-.319866-.319866-.703026-.489275-1.116958-.492777-.413932-.0035-.835293.145443-1.149833.459925l-4.435038 4.43504c-.628965.62897-.606872 1.62702.03279 2.26679l2.266791 2.26679c-.808689 1.39049-1.448758 2.91017-1.872528 4.50071h-3.186662c-.904744 0-1.642561.72023-1.642561 1.60976v6.24182c0 .88954.737891 1.60977 1.642561 1.60977h3.186658c.423779 1.59053 1.063864 3.11022 1.872528 4.5007l-2.266791 2.26679c-.639724.63973-.661816 1.6378-.03279 2.2668l4.435038 4.43503c.628964.62898 1.627027.60688 2.266791-.0328l2.266792-2.26679c1.390485.8087 2.910172 1.44876 4.500707 1.87253v3.18666c0 .90474.720244 1.64256 1.609767 1.64256h6.241813c.889539 0 1.609767-.73789 1.609767-1.64256v-3.18666c1.590453-.42377 3.110222-1.06386 4.500708-1.87253l2.266791 2.26679c.639723.63973 1.637794.66183 2.266792.0328l4.435037-4.43503c.628965-.62898.606872-1.62703-.03279-2.2668l-2.266792-2.26679c.808689-1.39048 1.448758-2.91017 1.872528-4.5007h3.186658c.904662 0 1.642561-.72024 1.642561-1.60977v-6.24182c0-.88953-.737891-1.60976-1.642561-1.60976h-3.186649c-.422455-1.58955-1.062713-3.10924-1.871459-4.49989l2.266791-2.26679c.639724-.63972.661824-1.63779.03279-2.26679l-4.435042-4.435038c-.628973-.628973-1.627027-.606872-2.266791.03285l-2.266792 2.266788c-1.390485-.808694-2.910172-1.448754-4.500707-1.872524v-3.186659c0-.904744-.720237-1.642561-1.609767-1.642561h-6.241814z" display="block" fill="url(#n)" stroke="url(#o)" stroke-linejoin="round"/></g><path d="m56.614005 101.89123c-7.825444 0-14.191693 6.36649-14.191693 14.19169 0 7.82544 6.366496 14.19169 14.191693 14.19169 7.825444 0 14.191693-6.36649 14.191693-14.19169 0-7.82545-6.366577-14.19169-14.191693-14.19169z" fill="none" stroke="#555556" stroke-width="1.643794"/><path d="m56.614005 102.41642c-7.535808 0-13.666501 6.13061-13.666501 13.6665 0 7.53572 6.130611 13.6665 13.666501 13.6665 7.535808 0 13.666501-6.13061 13.666501-13.6665 0-7.53573-6.130611-13.6665-13.666501-13.6665z" opacity=".05" stroke-width=".821897"/></g><g transform="matrix(.70793217433 0 0 .70793217433 10.57217991838 14.94302707727)"><path d="m48.725418 68.375997c-2.133468-.709964-3.374075-1.41468-5.46905-3.106647-5.623092-4.54137-8.549995-11.236908-6.956792-15.914238.658205-1.932349 1.408419-3.156798 2.765764-4.514076 2.356826-2.356711 6.031983-4.095039 10.625457-5.025767 7.132568-1.445202 12.749522.356981 13.188759 4.231575.3189 2.813082-1.845539 5.373649-8.085423 9.56518-4.429488 2.975426-6.154876 4.560863-6.154876 5.655616 0 1.573627 1.914587 3.151451 3.824114 3.151451 1.20489 0 1.82378-.649061 2.356629-2.471499.705475-2.412851 2.147283-3.263832 5.583581-3.295526 2.407089-.02222 3.154654.533924 3.265156 2.429003.06471 1.109864-.07143 1.669777-.728854 2.997554-1.077652 2.176504-3.603659 4.675517-5.825084 5.762859-1.515841.741969-1.983793.841293-4.333488.919721-2.049678.06841-2.949602-.01703-4.055893-.385206zm-13.803179-26.529771c-1.81782-1.586927-2.599913-4.755138-1.45488-5.893622 1.745304-1.735303 3.959407-.457032 4.663131 2.692175.741671 3.319022-1.038601 5.095515-3.208251 3.201447zm6.127836-4.422294c-1.302656-1.364822-1.736561-2.445184-1.748837-4.354379-.01041-1.618833-.01239-2.065211.839821-2.912537 1.691164-1.681483 3.815474-.431355 4.470157 3.089877.321961 1.731674-.04142 3.300452-.997314 4.305551-.882415.927837-1.589416.8924-2.563827-.128512zm17.506099.0049c-.841632-.439747-1.761558-1.825693-1.97991-2.982947-.423491-2.24448 1.19335-6.312494 3.138931-7.897621 3.175792-2.587422 7.862253-2.897989 9.057322-.600219.972288 1.869433-.309242 5.198338-3.154759 8.194797-2.634126 2.773855-5.494278 4.104759-7.061584 3.285941zm-9.502606-1.794194c-1.006501-.482952-1.732864-2.392432-1.73914-4.571907-.0092-3.182698 1.259874-4.880276 3.649884-4.882413 1.457999-.0012 2.306274.979101 2.554198 2.952046.302927 2.410688-1.220069 5.996556-2.77591 6.53582-.939285.325558-.940697.325535-1.689032-.03356z" fill="url(#m)" opacity=".8"/><path d="m65.627011 24.400341c-1.852094-.04439-4.121001.702054-5.907384 2.157479-1.859891 1.515312-3.421052 5.285667-3.18485 7.576862.127761-2.290406 1.531226-5.407705 3.18485-6.754965 3.175791-2.587422 7.845797-2.914193 9.040865-.616423.157209.302268.265932.656367.308212 1.027371.06103-.701779-.0395-1.332613-.308212-1.849268-.522842-1.005274-1.692964-1.506528-3.133481-1.541056zm-14.665722 1.772215c-2.390011.0021-3.656348 1.697315-3.647168 4.880012.000466.161866.01746.329588.02569.488002.08404-2.95381 1.32192-4.544061 3.621483-4.546117 1.457999-.0012 2.320504.980746 2.568427 2.953692.0094.0751-.0059.153902 0 .231158.02284-.365473.04171-.721122 0-1.053055-.247928-1.972946-1.110433-2.954925-2.568432-2.953692zm-9.169287 3.236219c-.55502-.02696-1.115305.21938-1.643794.744844-.809596.804959-.854656 1.292289-.847581 2.722533.035-.848207.208426-1.265142.847581-1.900636 1.691165-1.681484 3.814382-.439119 4.469064 3.082113.0531.285616.06082.572627.07705.847581.04058-.523792.02971-1.095248-.07705-1.669478-.450094-2.420847-1.604227-3.767646-2.82527-3.826957zm-6.600859 5.753278c-.57657-.01143-1.175439.253931-1.720846.796212-.429388.426932-.579295 1.144637-.513686 1.952005.06443-.460222.237446-.855449.513686-1.130108 1.745303-1.735303 3.945129-.452358 4.648854 2.696849.07998.357917.130106.682315.154105 1.001687.04407-.536612-.00031-1.135341-.154105-1.823584-.483811-2.16508-1.659554-3.467902-2.928008-3.493061zm19.52005 4.160852c-1.53647-.02627-3.225292.126701-5.008434.488002-4.593474.930728-8.276465 2.677407-10.63329 5.034118-1.357346 1.357278-2.115697 2.588083-2.773902 4.520433-.331917.974443-.454909 2.021573-.410948 3.133481.03519-.813461.16201-1.580752.410948-2.311585.658205-1.932349 1.416556-3.163154 2.773902-4.520432 2.356825-2.356711 6.039816-4.10339 10.63329-5.034118 7.132568-1.445202 12.736797.363312 13.176034 4.237905.01814-.273365.03134-.545441 0-.821897-.329428-2.905945-3.55819-4.647115-8.1676-4.725907zm5.701909 17.336887c-3.436297.03169-4.893697.874736-5.599172 3.287587-.532849 1.822438-1.158063 2.465691-2.362953 2.465691-1.703886 0-3.401807-1.256887-3.749905-2.645481-.03213.113915-.05137.229656-.05137.333896 0 1.573627 1.891746 3.133482 3.801273 3.133482 1.20489 0 1.830104-.643253 2.362953-2.465691.705475-2.412851 2.162875-3.255893 5.599172-3.287587 2.371496-.02189 3.134254.509061 3.261904 2.337269.01394-.229313.01617-.467378 0-.744844-.110502-1.895079-.854814-2.436538-3.261904-2.414322z" opacity=".5"/><path d="m69.068704 27.790665c-.159776 1.837495-1.382592 4.175689-3.441693 6.344017-2.634127 2.773855-5.49587 4.106405-7.063176 3.287587-.841632-.439747-1.759338-1.822122-1.97769-2.979376-.01865-.09886-.04049-.202649-.05137-.308211-.02256.404385-.01218.793297.05137 1.130108.218352 1.157254 1.136058 2.539629 1.97769 2.979376 1.567306.818818 4.429049-.513732 7.063176-3.287587 2.385426-2.511963 3.660899-5.242369 3.441693-7.165914zm-15.538988 2.388638c-.143064 2.288799-1.457972 5.031423-2.799586 5.496435-.939285.325559-.921142.307724-1.669478-.05137-.93175-.447084-1.618267-2.109223-1.720846-4.0838-.0033.116181-.02603.213449-.02569.333895.0062 2.179475.740031 4.088849 1.746531 4.571802.748336.359092.730193.376926 1.669478.05137 1.507371-.522464 2.984538-3.915775 2.799586-6.318332zm-14.229089 2.902323c-.0053.242558-.0021.498131 0 .821897.01228 1.909195.443875 2.975822 1.746531 4.340643.974411 1.020912 1.686012 1.056259 2.568428.128421.798229-.839321 1.160918-2.075296 1.078739-3.467377-.08179 1.055778-.439826 1.973677-1.078739 2.64548-.882416.927838-1.594017.892491-2.568428-.128421-1.302656-1.364821-1.734255-2.431448-1.746531-4.340643zm-6.344016 4.880013c-.177887 1.445744.614325 3.510028 1.977689 4.700222 1.935679 1.689816 3.537504.459054 3.338956-2.183163-.168471 2.051179-1.619211 2.862575-3.338956 1.361267-1.122274-.979727-1.854707-2.5429-1.977689-3.878326zm29.922182 7.140229c-.28596 2.43196-2.630649 4.833905-8.090547 8.501495-4.429488 2.975425-6.138542 4.581472-6.138542 5.676225 0 .169468.0094.320413.05137.488001.305319-1.082436 2.079454-2.650218 6.087174-5.342329 6.064824-4.073939 8.263851-6.601561 8.090547-9.323392zm-26.994174 7.397071c-.190012 4.392694 2.626903 9.755202 7.371387 13.586982 2.094975 1.691968 3.337283 2.397834 5.470751 3.107798 1.106291.368177 2.008437.453671 4.058115.385264 2.349696-.07842 2.824801-.182665 4.340643-.924634 2.221424-1.087342 4.726994-3.576773 5.804647-5.753278.657422-1.327777.809551-1.895196.744844-3.00506-.05185.653877-.270303 1.224746-.744844 2.183163-1.077653 2.176505-3.583223 4.665936-5.804647 5.753278-1.515842.741969-1.990947.846206-4.340643.924634-2.049678.06841-2.951824-.01709-4.058115-.385264-2.133468-.709963-3.375776-1.41583-5.470751-3.107797-4.451615-3.595252-7.204337-8.539837-7.371387-12.765086z" fill="#fefefe" opacity=".5"/></g></svg>