<svg height="96" width="96" xmlns="http://www.w3.org/2000/svg" xmlns:xlink="http://www.w3.org/1999/xlink"><linearGradient id="a"><stop offset="0"/><stop offset="1" stop-opacity="0"/></linearGradient><linearGradient id="b"><stop offset="0" stop-color="#fefefe"/><stop offset="1" stop-color="#fefefe" stop-opacity="0"/></linearGradient><linearGradient id="c"><stop offset="0" stop-color="#1f1f1f"/><stop offset="1" stop-color="#191919"/></linearGradient><linearGradient id="d" gradientUnits="userSpaceOnUse" x1="36.357143" x2="36.357143" xlink:href="#b" y1="6" y2="63.893143"/><radialGradient id="e" cx="48" cy="90.171875" gradientTransform="matrix(1.1573129 0 0 .99590774 -7.551021 .197132)" gradientUnits="userSpaceOnUse" r="42" xlink:href="#b"/><linearGradient id="f" gradientUnits="userSpaceOnUse" x1="6.571429" x2="88.898651" y1="-51.964287" y2="-51.964287"><stop offset="0" stop-color="#373795"/><stop offset=".5" stop-color="#7343bc"/><stop offset="1" stop-color="#c83737"/></linearGradient><filter id="g" color-interpolation-filters="sRGB"><feGaussianBlur stdDeviation=".71783716"/></filter><radialGradient id="h" cx="28.125" cy="74.094757" gradientTransform="matrix(1.4729191 0 0 1.2638196 -13.300848 -19.750136)" gradientUnits="userSpaceOnUse" r="12.053572"><stop offset="0" stop-color="#f73c00"/><stop offset=".71272212" stop-color="#b61100"/><stop offset="1" stop-color="#9c0000"/></radialGradient><linearGradient id="i" gradientUnits="userSpaceOnUse" x1="55.939182" x2="55.939182" y1="22.032881" y2="76.053574"><stop offset="0" stop-color="#dedede"/><stop offset="1" stop-color="#fefefe"/></linearGradient><radialGradient id="j" cx="28.125" cy="75.058144" gradientTransform="matrix(1.5148225 -.00000009 .00000007 1.1024691 -14.479387 -7.79491)" gradientUnits="userSpaceOnUse" r="12.053572"><stop offset="0" stop-color="#f73c00"/><stop offset="1" stop-color="#9c0000"/></radialGradient><linearGradient id="k" gradientUnits="userSpaceOnUse" x1="16.071428" x2="40.178574" xlink:href="#b" y1="68.053574" y2="68.053574"/><linearGradient id="l" gradientUnits="userSpaceOnUse" x1="16.071428" x2="40.178574" y1="68.053574" y2="68.053574"><stop offset="0" stop-color="#fea"/><stop offset="1" stop-color="#fea" stop-opacity="0"/></linearGradient><linearGradient id="m" gradientUnits="userSpaceOnUse" x1="148" x2="148" xlink:href="#c" y1="90" y2="5.987717"/><linearGradient id="n" gradientUnits="userSpaceOnUse" x1="10" x2="94" xlink:href="#a" y1="48" y2="48"/><linearGradient id="o" gradientUnits="userSpaceOnUse" x1="48" x2="48" xlink:href="#c" y1="90" y2="5.987717"/><clipPath id="p"><rect height="84" rx="6" width="84" x="6" y="6"/></clipPath><linearGradient id="q" gradientUnits="userSpaceOnUse" x1="9.282996" x2="9.282996" y1="54.56599" y2="30.797007"><stop offset="0" stop-color="#c83771"/><stop offset="1" stop-color="#c83771" stop-opacity="0"/></linearGradient><linearGradient id="r" gradientUnits="userSpaceOnUse" x1="16.535534" x2="16.535534" y1="62.394672" y2="40.421619"><stop offset="0" stop-color="#d35fbc"/><stop offset="1" stop-color="#d35fbc" stop-opacity="0"/></linearGradient><linearGradient id="s" gradientUnits="userSpaceOnUse" x1="22.525381" x2="22.525381" y1="66.206116" y2="32.08049"><stop offset="0" stop-color="#8d5fd3"/><stop offset="1" stop-color="#8d5fd3" stop-opacity="0"/></linearGradient><linearGradient id="t" gradientUnits="userSpaceOnUse" x1="29.77792" x2="29.77792" y1="54.060917" y2="23.20402"><stop offset="0" stop-color="#59f"/><stop offset="1" stop-color="#59f" stop-opacity="0"/></linearGradient><linearGradient id="u" gradientUnits="userSpaceOnUse" x1="37.030457" x2="37.030457" y1="68.960663" y2="46.717045"><stop offset="0" stop-color="#37abc8"/><stop offset="1" stop-color="#37abc8" stop-opacity="0"/></linearGradient><linearGradient id="v" gradientUnits="userSpaceOnUse" x1="44.282997" x2="44.282997" y1="64.162437" y2="37.391563"><stop offset="0" stop-color="#70e4cd"/><stop offset="1" stop-color="#70e4cd" stop-opacity="0"/></linearGradient><linearGradient id="w" gradientUnits="userSpaceOnUse" x1="51.282997" x2="51.282997" y1="60.879444" y2="12.370317"><stop offset="0" stop-color="#53df53"/><stop offset="1" stop-color="#53df53" stop-opacity="0"/></linearGradient><linearGradient id="x" gradientUnits="userSpaceOnUse" x1="57.525383" x2="57.525383" y1="65.677666" y2="27.464857"><stop offset="0" stop-color="#aad400"/><stop offset="1" stop-color="#aad400" stop-opacity="0"/></linearGradient><linearGradient id="y" gradientUnits="userSpaceOnUse" x1="64.777916" x2="64.777916" y1="63.909901" y2="35.095482"><stop offset="0" stop-color="#ffd42a"/><stop offset="1" stop-color="#ffd42a" stop-opacity="0"/></linearGradient><linearGradient id="z" gradientUnits="userSpaceOnUse" x1="72.788071" x2="72.788071" y1="60.12183" y2="18.954224"><stop offset="0" stop-color="#ff992a"/><stop offset="1" stop-color="#ff992a" stop-opacity="0"/></linearGradient><linearGradient id="A" gradientUnits="userSpaceOnUse" x1="78.272842" x2="78.272842" y1="58.354065" y2="40.421116"><stop offset="0" stop-color="#f60"/><stop offset="1" stop-color="#f60" stop-opacity="0"/></linearGradient><linearGradient id="B" gradientUnits="userSpaceOnUse" x1="85.525383" x2="85.525383" y1="60.879444" y2="34.361088"><stop offset="0" stop-color="#d40000"/><stop offset="1" stop-color="#d40000" stop-opacity="0"/></linearGradient><linearGradient id="C" gradientUnits="userSpaceOnUse" x1="48" x2="48" xlink:href="#a" y1="89.929901" y2="75.200184"/><linearGradient id="D" gradientTransform="matrix(1.0058652 0 0 .994169 100 0)" gradientUnits="userSpaceOnUse" x1="45.447727" x2="45.447727" y1="92.539597" y2="7.01654"><stop offset="0"/><stop offset="1" stop-opacity=".588235"/></linearGradient><linearGradient id="E" gradientTransform="matrix(1.0238095 0 0 1.0119048 -1.142857 -98.071429)" gradientUnits="userSpaceOnUse" x1="32.251034" x2="32.251034" xlink:href="#D" y1="6.131708" y2="90.238609"/><linearGradient id="F" gradientTransform="translate(0 -97)" gradientUnits="userSpaceOnUse" x1="32.251034" x2="32.251034" xlink:href="#D" y1="6.131708" y2="90.238609"/><g><g fill="url(#E)"><path d="m12-95.03125c-5.5110903 0-10.03125 4.52016-10.03125 10.03125v71c0 5.5110902 4.5201598 10.03125 10.03125 10.03125h72c5.51109 0 10.03125-4.5201597 10.03125-10.03125v-71c0-5.51109-4.52016-10.03125-10.03125-10.03125z" opacity=".08" transform="scale(1 -1)"/><path d="m12-94.03125c-4.971633 0-9.03125 4.059617-9.03125 9.03125v71c0 4.9716329 4.0596171 9.03125 9.03125 9.03125h72c4.971633 0 9.03125-4.059617 9.03125-9.03125v-71c0-4.971633-4.059617-9.03125-9.03125-9.03125z" opacity=".1" transform="scale(1 -1)"/><path d="m12-93c-4.4091333 0-8 3.590867-8 8v71c0 4.4091333 3.5908667 8 8 8h72c4.409133 0 8-3.5908667 8-8v-71c0-4.409133-3.590867-8-8-8z" opacity=".2" transform="scale(1 -1)"/><rect height="85" opacity=".3" rx="7" transform="scale(1 -1)" width="86" x="5" y="-92"/></g><rect fill="url(#F)" height="84" opacity=".45" rx="6" transform="scale(1 -1)" width="84" x="6" y="-91"/></g><rect fill="url(#o)" height="84" rx="6" width="84" x="6" y="6"/><g clip-path="url(#p)"><path d="m7 6c-.554 0-1 .446-1 1v2c0 .554.446 1 1 1h4c.554 0 1-.446 1-1v-2c0-.554-.446-1-1-1zm0 5c-.554 0-1 .446-1 1v2c0 .554.446 1 1 1h4c.554 0 1-.446 1-1v-2c0-.554-.446-1-1-1zm0 5c-.554 0-1 .446-1 1v2c0 .554.446 1 1 1h4c.554 0 1-.446 1-1v-2c0-.554-.446-1-1-1zm0 5c-.554 0-1 .446-1 1v2c0 .554.446 1 1 1h4c.554 0 1-.446 1-1v-2c0-.554-.446-1-1-1zm0 5c-.554 0-1 .446-1 1v2c0 .554.446 1 1 1h4c.554 0 1-.446 1-1v-2c0-.554-.446-1-1-1zm0 5c-.554 0-1 .446-1 1v2c0 .554.446 1 1 1h4c.554 0 1-.446 1-1v-2c0-.554-.446-1-1-1zm0 5c-.554 0-1 .446-1 1v2c0 .554.446 1 1 1h4c.554 0 1-.446 1-1v-2c0-.554-.446-1-1-1zm0 5c-.554 0-1 .446-1 1v2c0 .554.446 1 1 1h4c.554 0 1-.446 1-1v-2c0-.554-.446-1-1-1zm0 5c-.554 0-1 .446-1 1v2c0 .554.446 1 1 1h4c.554 0 1-.446 1-1v-2c0-.554-.446-1-1-1zm0 5c-.554 0-1 .446-1 1v2c0 .554.446 1 1 1h4c.554 0 1-.446 1-1v-2c0-.554-.446-1-1-1zm0 5c-.554 0-1 .446-1 1v2c0 .554.446 1 1 1h4c.554 0 1-.446 1-1v-2c0-.554-.446-1-1-1zm0 5c-.554 0-1 .446-1 1v2c0 .554.446 1 1 1h4c.554 0 1-.446 1-1v-2c0-.554-.446-1-1-1zm0 5c-.554 0-1 .446-1 1v2c0 .554.446 1 1 1h4c.554 0 1-.446 1-1v-2c0-.554-.446-1-1-1zm0 5c-.554 0-1 .446-1 1v2c0 .554.446 1 1 1h4c.554 0 1-.446 1-1v-2c0-.554-.446-1-1-1zm0 5c-.554 0-1 .446-1 1v2c0 .554.446 1 1 1h4c.554 0 1-.446 1-1v-2c0-.554-.446-1-1-1zm0 5c-.554 0-1 .446-1 1v2c0 .554.446 1 1 1h4c.554 0 1-.446 1-1v-2c0-.554-.446-1-1-1zm0 5c-.554 0-1 .446-1 1v2c0 .554.446 1 1 1h4c.554 0 1-.446 1-1v-2c0-.554-.446-1-1-1z" fill="url(#q)"/><path d="m14 6c-.554 0-1 .446-1 1v2c0 .554.446 1 1 1h4c.554 0 1-.446 1-1v-2c0-.554-.446-1-1-1zm0 5c-.554 0-1 .446-1 1v2c0 .554.446 1 1 1h4c.554 0 1-.446 1-1v-2c0-.554-.446-1-1-1zm0 5c-.554 0-1 .446-1 1v2c0 .554.446 1 1 1h4c.554 0 1-.446 1-1v-2c0-.554-.446-1-1-1zm0 5c-.554 0-1 .446-1 1v2c0 .554.446 1 1 1h4c.554 0 1-.446 1-1v-2c0-.554-.446-1-1-1zm0 5c-.554 0-1 .446-1 1v2c0 .554.446 1 1 1h4c.554 0 1-.446 1-1v-2c0-.554-.446-1-1-1zm0 5c-.554 0-1 .446-1 1v2c0 .554.446 1 1 1h4c.554 0 1-.446 1-1v-2c0-.554-.446-1-1-1zm0 5c-.554 0-1 .446-1 1v2c0 .554.446 1 1 1h4c.554 0 1-.446 1-1v-2c0-.554-.446-1-1-1zm0 5c-.554 0-1 .446-1 1v2c0 .554.446 1 1 1h4c.554 0 1-.446 1-1v-2c0-.554-.446-1-1-1zm0 5c-.554 0-1 .446-1 1v2c0 .554.446 1 1 1h4c.554 0 1-.446 1-1v-2c0-.554-.446-1-1-1zm0 5c-.554 0-1 .446-1 1v2c0 .554.446 1 1 1h4c.554 0 1-.446 1-1v-2c0-.554-.446-1-1-1zm0 5c-.554 0-1 .446-1 1v2c0 .554.446 1 1 1h4c.554 0 1-.446 1-1v-2c0-.554-.446-1-1-1zm0 5c-.554 0-1 .446-1 1v2c0 .554.446 1 1 1h4c.554 0 1-.446 1-1v-2c0-.554-.446-1-1-1zm0 5c-.554 0-1 .446-1 1v2c0 .554.446 1 1 1h4c.554 0 1-.446 1-1v-2c0-.554-.446-1-1-1zm0 5c-.554 0-1 .446-1 1v2c0 .554.446 1 1 1h4c.554 0 1-.446 1-1v-2c0-.554-.446-1-1-1zm0 5c-.554 0-1 .446-1 1v2c0 .554.446 1 1 1h4c.554 0 1-.446 1-1v-2c0-.554-.446-1-1-1zm0 5c-.554 0-1 .446-1 1v2c0 .554.446 1 1 1h4c.554 0 1-.446 1-1v-2c0-.554-.446-1-1-1zm0 5c-.554 0-1 .446-1 1v2c0 .554.446 1 1 1h4c.554 0 1-.446 1-1v-2c0-.554-.446-1-1-1z" fill="url(#r)"/><path d="m21 6c-.554 0-1 .446-1 1v2c0 .554.446 1 1 1h4c.554 0 1-.446 1-1v-2c0-.554-.446-1-1-1zm0 5c-.554 0-1 .446-1 1v2c0 .554.446 1 1 1h4c.554 0 1-.446 1-1v-2c0-.554-.446-1-1-1zm0 5c-.554 0-1 .446-1 1v2c0 .554.446 1 1 1h4c.554 0 1-.446 1-1v-2c0-.554-.446-1-1-1zm0 5c-.554 0-1 .446-1 1v2c0 .554.446 1 1 1h4c.554 0 1-.446 1-1v-2c0-.554-.446-1-1-1zm0 5c-.554 0-1 .446-1 1v2c0 .554.446 1 1 1h4c.554 0 1-.446 1-1v-2c0-.554-.446-1-1-1zm0 5c-.554 0-1 .446-1 1v2c0 .554.446 1 1 1h4c.554 0 1-.446 1-1v-2c0-.554-.446-1-1-1zm0 5c-.554 0-1 .446-1 1v2c0 .554.446 1 1 1h4c.554 0 1-.446 1-1v-2c0-.554-.446-1-1-1zm0 5c-.554 0-1 .446-1 1v2c0 .554.446 1 1 1h4c.554 0 1-.446 1-1v-2c0-.554-.446-1-1-1zm0 5c-.554 0-1 .446-1 1v2c0 .554.446 1 1 1h4c.554 0 1-.446 1-1v-2c0-.554-.446-1-1-1zm0 5c-.554 0-1 .446-1 1v2c0 .554.446 1 1 1h4c.554 0 1-.446 1-1v-2c0-.554-.446-1-1-1zm0 5c-.554 0-1 .446-1 1v2c0 .554.446 1 1 1h4c.554 0 1-.446 1-1v-2c0-.554-.446-1-1-1zm0 5c-.554 0-1 .446-1 1v2c0 .554.446 1 1 1h4c.554 0 1-.446 1-1v-2c0-.554-.446-1-1-1zm0 5c-.554 0-1 .446-1 1v2c0 .554.446 1 1 1h4c.554 0 1-.446 1-1v-2c0-.554-.446-1-1-1zm0 5c-.554 0-1 .446-1 1v2c0 .554.446 1 1 1h4c.554 0 1-.446 1-1v-2c0-.554-.446-1-1-1zm0 5c-.554 0-1 .446-1 1v2c0 .554.446 1 1 1h4c.554 0 1-.446 1-1v-2c0-.554-.446-1-1-1zm0 5c-.554 0-1 .446-1 1v2c0 .554.446 1 1 1h4c.554 0 1-.446 1-1v-2c0-.554-.446-1-1-1zm0 5c-.554 0-1 .446-1 1v2c0 .554.446 1 1 1h4c.554 0 1-.446 1-1v-2c0-.554-.446-1-1-1z" fill="url(#s)"/><path d="m28 6c-.554 0-1 .446-1 1v2c0 .554.446 1 1 1h4c.554 0 1-.446 1-1v-2c0-.554-.446-1-1-1zm0 5c-.554 0-1 .446-1 1v2c0 .554.446 1 1 1h4c.554 0 1-.446 1-1v-2c0-.554-.446-1-1-1zm0 5c-.554 0-1 .446-1 1v2c0 .554.446 1 1 1h4c.554 0 1-.446 1-1v-2c0-.554-.446-1-1-1zm0 5c-.554 0-1 .446-1 1v2c0 .554.446 1 1 1h4c.554 0 1-.446 1-1v-2c0-.554-.446-1-1-1zm0 5c-.554 0-1 .446-1 1v2c0 .554.446 1 1 1h4c.554 0 1-.446 1-1v-2c0-.554-.446-1-1-1zm0 5c-.554 0-1 .446-1 1v2c0 .554.446 1 1 1h4c.554 0 1-.446 1-1v-2c0-.554-.446-1-1-1zm0 5c-.554 0-1 .446-1 1v2c0 .554.446 1 1 1h4c.554 0 1-.446 1-1v-2c0-.554-.446-1-1-1zm0 5c-.554 0-1 .446-1 1v2c0 .554.446 1 1 1h4c.554 0 1-.446 1-1v-2c0-.554-.446-1-1-1zm0 5c-.554 0-1 .446-1 1v2c0 .554.446 1 1 1h4c.554 0 1-.446 1-1v-2c0-.554-.446-1-1-1zm0 5c-.554 0-1 .446-1 1v2c0 .554.446 1 1 1h4c.554 0 1-.446 1-1v-2c0-.554-.446-1-1-1zm0 5c-.554 0-1 .446-1 1v2c0 .554.446 1 1 1h4c.554 0 1-.446 1-1v-2c0-.554-.446-1-1-1zm0 5c-.554 0-1 .446-1 1v2c0 .554.446 1 1 1h4c.554 0 1-.446 1-1v-2c0-.554-.446-1-1-1zm0 5c-.554 0-1 .446-1 1v2c0 .554.446 1 1 1h4c.554 0 1-.446 1-1v-2c0-.554-.446-1-1-1zm0 5c-.554 0-1 .446-1 1v2c0 .554.446 1 1 1h4c.554 0 1-.446 1-1v-2c0-.554-.446-1-1-1zm0 5c-.554 0-1 .446-1 1v2c0 .554.446 1 1 1h4c.554 0 1-.446 1-1v-2c0-.554-.446-1-1-1zm0 5c-.554 0-1 .446-1 1v2c0 .554.446 1 1 1h4c.554 0 1-.446 1-1v-2c0-.554-.446-1-1-1zm0 5c-.554 0-1 .446-1 1v2c0 .554.446 1 1 1h4c.554 0 1-.446 1-1v-2c0-.554-.446-1-1-1z" fill="url(#t)"/><path d="m35 6c-.554 0-1 .446-1 1v2c0 .554.446 1 1 1h4c.554 0 1-.446 1-1v-2c0-.554-.446-1-1-1zm0 5c-.554 0-1 .446-1 1v2c0 .554.446 1 1 1h4c.554 0 1-.446 1-1v-2c0-.554-.446-1-1-1zm0 5c-.554 0-1 .446-1 1v2c0 .554.446 1 1 1h4c.554 0 1-.446 1-1v-2c0-.554-.446-1-1-1zm0 5c-.554 0-1 .446-1 1v2c0 .554.446 1 1 1h4c.554 0 1-.446 1-1v-2c0-.554-.446-1-1-1zm0 5c-.554 0-1 .446-1 1v2c0 .554.446 1 1 1h4c.554 0 1-.446 1-1v-2c0-.554-.446-1-1-1zm0 5c-.554 0-1 .446-1 1v2c0 .554.446 1 1 1h4c.554 0 1-.446 1-1v-2c0-.554-.446-1-1-1zm0 5c-.554 0-1 .446-1 1v2c0 .554.446 1 1 1h4c.554 0 1-.446 1-1v-2c0-.554-.446-1-1-1zm0 5c-.554 0-1 .446-1 1v2c0 .554.446 1 1 1h4c.554 0 1-.446 1-1v-2c0-.554-.446-1-1-1zm0 5c-.554 0-1 .446-1 1v2c0 .554.446 1 1 1h4c.554 0 1-.446 1-1v-2c0-.554-.446-1-1-1zm0 5c-.554 0-1 .446-1 1v2c0 .554.446 1 1 1h4c.554 0 1-.446 1-1v-2c0-.554-.446-1-1-1zm0 5c-.554 0-1 .446-1 1v2c0 .554.446 1 1 1h4c.554 0 1-.446 1-1v-2c0-.554-.446-1-1-1zm0 5c-.554 0-1 .446-1 1v2c0 .554.446 1 1 1h4c.554 0 1-.446 1-1v-2c0-.554-.446-1-1-1zm0 5c-.554 0-1 .446-1 1v2c0 .554.446 1 1 1h4c.554 0 1-.446 1-1v-2c0-.554-.446-1-1-1zm0 5c-.554 0-1 .446-1 1v2c0 .554.446 1 1 1h4c.554 0 1-.446 1-1v-2c0-.554-.446-1-1-1zm0 5c-.554 0-1 .446-1 1v2c0 .554.446 1 1 1h4c.554 0 1-.446 1-1v-2c0-.554-.446-1-1-1zm0 5c-.554 0-1 .446-1 1v2c0 .554.446 1 1 1h4c.554 0 1-.446 1-1v-2c0-.554-.446-1-1-1zm0 5c-.554 0-1 .446-1 1v2c0 .554.446 1 1 1h4c.554 0 1-.446 1-1v-2c0-.554-.446-1-1-1z" fill="url(#u)"/><path d="m42 6c-.554 0-1 .446-1 1v2c0 .554.446 1 1 1h4c.554 0 1-.446 1-1v-2c0-.554-.446-1-1-1zm0 5c-.554 0-1 .446-1 1v2c0 .554.446 1 1 1h4c.554 0 1-.446 1-1v-2c0-.554-.446-1-1-1zm0 5c-.554 0-1 .446-1 1v2c0 .554.446 1 1 1h4c.554 0 1-.446 1-1v-2c0-.554-.446-1-1-1zm0 5c-.554 0-1 .446-1 1v2c0 .554.446 1 1 1h4c.554 0 1-.446 1-1v-2c0-.554-.446-1-1-1zm0 5c-.554 0-1 .446-1 1v2c0 .554.446 1 1 1h4c.554 0 1-.446 1-1v-2c0-.554-.446-1-1-1zm0 5c-.554 0-1 .446-1 1v2c0 .554.446 1 1 1h4c.554 0 1-.446 1-1v-2c0-.554-.446-1-1-1zm0 5c-.554 0-1 .446-1 1v2c0 .554.446 1 1 1h4c.554 0 1-.446 1-1v-2c0-.554-.446-1-1-1zm0 5c-.554 0-1 .446-1 1v2c0 .554.446 1 1 1h4c.554 0 1-.446 1-1v-2c0-.554-.446-1-1-1zm0 5c-.554 0-1 .446-1 1v2c0 .554.446 1 1 1h4c.554 0 1-.446 1-1v-2c0-.554-.446-1-1-1zm0 5c-.554 0-1 .446-1 1v2c0 .554.446 1 1 1h4c.554 0 1-.446 1-1v-2c0-.554-.446-1-1-1zm0 5c-.554 0-1 .446-1 1v2c0 .554.446 1 1 1h4c.554 0 1-.446 1-1v-2c0-.554-.446-1-1-1zm0 5c-.554 0-1 .446-1 1v2c0 .554.446 1 1 1h4c.554 0 1-.446 1-1v-2c0-.554-.446-1-1-1zm0 5c-.554 0-1 .446-1 1v2c0 .554.446 1 1 1h4c.554 0 1-.446 1-1v-2c0-.554-.446-1-1-1zm0 5c-.554 0-1 .446-1 1v2c0 .554.446 1 1 1h4c.554 0 1-.446 1-1v-2c0-.554-.446-1-1-1zm0 5c-.554 0-1 .446-1 1v2c0 .554.446 1 1 1h4c.554 0 1-.446 1-1v-2c0-.554-.446-1-1-1zm0 5c-.554 0-1 .446-1 1v2c0 .554.446 1 1 1h4c.554 0 1-.446 1-1v-2c0-.554-.446-1-1-1zm0 5c-.554 0-1 .446-1 1v2c0 .554.446 1 1 1h4c.554 0 1-.446 1-1v-2c0-.554-.446-1-1-1z" fill="url(#v)"/><path d="m49 6c-.554 0-1 .446-1 1v2c0 .554.446 1 1 1h4c.554 0 1-.446 1-1v-2c0-.554-.446-1-1-1zm0 5c-.554 0-1 .446-1 1v2c0 .554.446 1 1 1h4c.554 0 1-.446 1-1v-2c0-.554-.446-1-1-1zm0 5c-.554 0-1 .446-1 1v2c0 .554.446 1 1 1h4c.554 0 1-.446 1-1v-2c0-.554-.446-1-1-1zm0 5c-.554 0-1 .446-1 1v2c0 .554.446 1 1 1h4c.554 0 1-.446 1-1v-2c0-.554-.446-1-1-1zm0 5c-.554 0-1 .446-1 1v2c0 .554.446 1 1 1h4c.554 0 1-.446 1-1v-2c0-.554-.446-1-1-1zm0 5c-.554 0-1 .446-1 1v2c0 .554.446 1 1 1h4c.554 0 1-.446 1-1v-2c0-.554-.446-1-1-1zm0 5c-.554 0-1 .446-1 1v2c0 .554.446 1 1 1h4c.554 0 1-.446 1-1v-2c0-.554-.446-1-1-1zm0 5c-.554 0-1 .446-1 1v2c0 .554.446 1 1 1h4c.554 0 1-.446 1-1v-2c0-.554-.446-1-1-1zm0 5c-.554 0-1 .446-1 1v2c0 .554.446 1 1 1h4c.554 0 1-.446 1-1v-2c0-.554-.446-1-1-1zm0 5c-.554 0-1 .446-1 1v2c0 .554.446 1 1 1h4c.554 0 1-.446 1-1v-2c0-.554-.446-1-1-1zm0 5c-.554 0-1 .446-1 1v2c0 .554.446 1 1 1h4c.554 0 1-.446 1-1v-2c0-.554-.446-1-1-1zm0 5c-.554 0-1 .446-1 1v2c0 .554.446 1 1 1h4c.554 0 1-.446 1-1v-2c0-.554-.446-1-1-1zm0 5c-.554 0-1 .446-1 1v2c0 .554.446 1 1 1h4c.554 0 1-.446 1-1v-2c0-.554-.446-1-1-1zm0 5c-.554 0-1 .446-1 1v2c0 .554.446 1 1 1h4c.554 0 1-.446 1-1v-2c0-.554-.446-1-1-1zm0 5c-.554 0-1 .446-1 1v2c0 .554.446 1 1 1h4c.554 0 1-.446 1-1v-2c0-.554-.446-1-1-1zm0 5c-.554 0-1 .446-1 1v2c0 .554.446 1 1 1h4c.554 0 1-.446 1-1v-2c0-.554-.446-1-1-1zm0 5c-.554 0-1 .446-1 1v2c0 .554.446 1 1 1h4c.554 0 1-.446 1-1v-2c0-.554-.446-1-1-1z" fill="url(#w)"/><path d="m56 6c-.554 0-1 .446-1 1v2c0 .554.446 1 1 1h4c.554 0 1-.446 1-1v-2c0-.554-.446-1-1-1zm0 5c-.554 0-1 .446-1 1v2c0 .554.446 1 1 1h4c.554 0 1-.446 1-1v-2c0-.554-.446-1-1-1zm0 5c-.554 0-1 .446-1 1v2c0 .554.446 1 1 1h4c.554 0 1-.446 1-1v-2c0-.554-.446-1-1-1zm0 5c-.554 0-1 .446-1 1v2c0 .554.446 1 1 1h4c.554 0 1-.446 1-1v-2c0-.554-.446-1-1-1zm0 5c-.554 0-1 .446-1 1v2c0 .554.446 1 1 1h4c.554 0 1-.446 1-1v-2c0-.554-.446-1-1-1zm0 5c-.554 0-1 .446-1 1v2c0 .554.446 1 1 1h4c.554 0 1-.446 1-1v-2c0-.554-.446-1-1-1zm0 5c-.554 0-1 .446-1 1v2c0 .554.446 1 1 1h4c.554 0 1-.446 1-1v-2c0-.554-.446-1-1-1zm0 5c-.554 0-1 .446-1 1v2c0 .554.446 1 1 1h4c.554 0 1-.446 1-1v-2c0-.554-.446-1-1-1zm0 5c-.554 0-1 .446-1 1v2c0 .554.446 1 1 1h4c.554 0 1-.446 1-1v-2c0-.554-.446-1-1-1zm0 5c-.554 0-1 .446-1 1v2c0 .554.446 1 1 1h4c.554 0 1-.446 1-1v-2c0-.554-.446-1-1-1zm0 5c-.554 0-1 .446-1 1v2c0 .554.446 1 1 1h4c.554 0 1-.446 1-1v-2c0-.554-.446-1-1-1zm0 5c-.554 0-1 .446-1 1v2c0 .554.446 1 1 1h4c.554 0 1-.446 1-1v-2c0-.554-.446-1-1-1zm0 5c-.554 0-1 .446-1 1v2c0 .554.446 1 1 1h4c.554 0 1-.446 1-1v-2c0-.554-.446-1-1-1zm0 5c-.554 0-1 .446-1 1v2c0 .554.446 1 1 1h4c.554 0 1-.446 1-1v-2c0-.554-.446-1-1-1zm0 5c-.554 0-1 .446-1 1v2c0 .554.446 1 1 1h4c.554 0 1-.446 1-1v-2c0-.554-.446-1-1-1zm0 5c-.554 0-1 .446-1 1v2c0 .554.446 1 1 1h4c.554 0 1-.446 1-1v-2c0-.554-.446-1-1-1zm0 5c-.554 0-1 .446-1 1v2c0 .554.446 1 1 1h4c.554 0 1-.446 1-1v-2c0-.554-.446-1-1-1z" fill="url(#x)"/><path d="m63 6c-.554 0-1 .446-1 1v2c0 .554.446 1 1 1h4c.554 0 1-.446 1-1v-2c0-.554-.446-1-1-1zm0 5c-.554 0-1 .446-1 1v2c0 .554.446 1 1 1h4c.554 0 1-.446 1-1v-2c0-.554-.446-1-1-1zm0 5c-.554 0-1 .446-1 1v2c0 .554.446 1 1 1h4c.554 0 1-.446 1-1v-2c0-.554-.446-1-1-1zm0 5c-.554 0-1 .446-1 1v2c0 .554.446 1 1 1h4c.554 0 1-.446 1-1v-2c0-.554-.446-1-1-1zm0 5c-.554 0-1 .446-1 1v2c0 .554.446 1 1 1h4c.554 0 1-.446 1-1v-2c0-.554-.446-1-1-1zm0 5c-.554 0-1 .446-1 1v2c0 .554.446 1 1 1h4c.554 0 1-.446 1-1v-2c0-.554-.446-1-1-1zm0 5c-.554 0-1 .446-1 1v2c0 .554.446 1 1 1h4c.554 0 1-.446 1-1v-2c0-.554-.446-1-1-1zm0 5c-.554 0-1 .446-1 1v2c0 .554.446 1 1 1h4c.554 0 1-.446 1-1v-2c0-.554-.446-1-1-1zm0 5c-.554 0-1 .446-1 1v2c0 .554.446 1 1 1h4c.554 0 1-.446 1-1v-2c0-.554-.446-1-1-1zm0 5c-.554 0-1 .446-1 1v2c0 .554.446 1 1 1h4c.554 0 1-.446 1-1v-2c0-.554-.446-1-1-1zm0 5c-.554 0-1 .446-1 1v2c0 .554.446 1 1 1h4c.554 0 1-.446 1-1v-2c0-.554-.446-1-1-1zm0 5c-.554 0-1 .446-1 1v2c0 .554.446 1 1 1h4c.554 0 1-.446 1-1v-2c0-.554-.446-1-1-1zm0 5c-.554 0-1 .446-1 1v2c0 .554.446 1 1 1h4c.554 0 1-.446 1-1v-2c0-.554-.446-1-1-1zm0 5c-.554 0-1 .446-1 1v2c0 .554.446 1 1 1h4c.554 0 1-.446 1-1v-2c0-.554-.446-1-1-1zm0 5c-.554 0-1 .446-1 1v2c0 .554.446 1 1 1h4c.554 0 1-.446 1-1v-2c0-.554-.446-1-1-1zm0 5c-.554 0-1 .446-1 1v2c0 .554.446 1 1 1h4c.554 0 1-.446 1-1v-2c0-.554-.446-1-1-1zm0 5c-.554 0-1 .446-1 1v2c0 .554.446 1 1 1h4c.554 0 1-.446 1-1v-2c0-.554-.446-1-1-1z" fill="url(#y)"/><path d="m70 6c-.554 0-1 .446-1 1v2c0 .554.446 1 1 1h4c.554 0 1-.446 1-1v-2c0-.554-.446-1-1-1zm0 5c-.554 0-1 .446-1 1v2c0 .554.446 1 1 1h4c.554 0 1-.446 1-1v-2c0-.554-.446-1-1-1zm0 5c-.554 0-1 .446-1 1v2c0 .554.446 1 1 1h4c.554 0 1-.446 1-1v-2c0-.554-.446-1-1-1zm0 5c-.554 0-1 .446-1 1v2c0 .554.446 1 1 1h4c.554 0 1-.446 1-1v-2c0-.554-.446-1-1-1zm0 5c-.554 0-1 .446-1 1v2c0 .554.446 1 1 1h4c.554 0 1-.446 1-1v-2c0-.554-.446-1-1-1zm0 5c-.554 0-1 .446-1 1v2c0 .554.446 1 1 1h4c.554 0 1-.446 1-1v-2c0-.554-.446-1-1-1zm0 5c-.554 0-1 .446-1 1v2c0 .554.446 1 1 1h4c.554 0 1-.446 1-1v-2c0-.554-.446-1-1-1zm0 5c-.554 0-1 .446-1 1v2c0 .554.446 1 1 1h4c.554 0 1-.446 1-1v-2c0-.554-.446-1-1-1zm0 5c-.554 0-1 .446-1 1v2c0 .554.446 1 1 1h4c.554 0 1-.446 1-1v-2c0-.554-.446-1-1-1zm0 5c-.554 0-1 .446-1 1v2c0 .554.446 1 1 1h4c.554 0 1-.446 1-1v-2c0-.554-.446-1-1-1zm0 5c-.554 0-1 .446-1 1v2c0 .554.446 1 1 1h4c.554 0 1-.446 1-1v-2c0-.554-.446-1-1-1zm0 5c-.554 0-1 .446-1 1v2c0 .554.446 1 1 1h4c.554 0 1-.446 1-1v-2c0-.554-.446-1-1-1zm0 5c-.554 0-1 .446-1 1v2c0 .554.446 1 1 1h4c.554 0 1-.446 1-1v-2c0-.554-.446-1-1-1zm0 5c-.554 0-1 .446-1 1v2c0 .554.446 1 1 1h4c.554 0 1-.446 1-1v-2c0-.554-.446-1-1-1zm0 5c-.554 0-1 .446-1 1v2c0 .554.446 1 1 1h4c.554 0 1-.446 1-1v-2c0-.554-.446-1-1-1zm0 5c-.554 0-1 .446-1 1v2c0 .554.446 1 1 1h4c.554 0 1-.446 1-1v-2c0-.554-.446-1-1-1zm0 5c-.554 0-1 .446-1 1v2c0 .554.446 1 1 1h4c.554 0 1-.446 1-1v-2c0-.554-.446-1-1-1z" fill="url(#z)"/><path d="m77 6c-.554 0-1 .446-1 1v2c0 .554.446 1 1 1h4c.554 0 1-.446 1-1v-2c0-.554-.446-1-1-1zm0 5c-.554 0-1 .446-1 1v2c0 .554.446 1 1 1h4c.554 0 1-.446 1-1v-2c0-.554-.446-1-1-1zm0 5c-.554 0-1 .446-1 1v2c0 .554.446 1 1 1h4c.554 0 1-.446 1-1v-2c0-.554-.446-1-1-1zm0 5c-.554 0-1 .446-1 1v2c0 .554.446 1 1 1h4c.554 0 1-.446 1-1v-2c0-.554-.446-1-1-1zm0 5c-.554 0-1 .446-1 1v2c0 .554.446 1 1 1h4c.554 0 1-.446 1-1v-2c0-.554-.446-1-1-1zm0 5c-.554 0-1 .446-1 1v2c0 .554.446 1 1 1h4c.554 0 1-.446 1-1v-2c0-.554-.446-1-1-1zm0 5c-.554 0-1 .446-1 1v2c0 .554.446 1 1 1h4c.554 0 1-.446 1-1v-2c0-.554-.446-1-1-1zm0 5c-.554 0-1 .446-1 1v2c0 .554.446 1 1 1h4c.554 0 1-.446 1-1v-2c0-.554-.446-1-1-1zm0 5c-.554 0-1 .446-1 1v2c0 .554.446 1 1 1h4c.554 0 1-.446 1-1v-2c0-.554-.446-1-1-1zm0 5c-.554 0-1 .446-1 1v2c0 .554.446 1 1 1h4c.554 0 1-.446 1-1v-2c0-.554-.446-1-1-1zm0 5c-.554 0-1 .446-1 1v2c0 .554.446 1 1 1h4c.554 0 1-.446 1-1v-2c0-.554-.446-1-1-1zm0 5c-.554 0-1 .446-1 1v2c0 .554.446 1 1 1h4c.554 0 1-.446 1-1v-2c0-.554-.446-1-1-1zm0 5c-.554 0-1 .446-1 1v2c0 .554.446 1 1 1h4c.554 0 1-.446 1-1v-2c0-.554-.446-1-1-1zm0 5c-.554 0-1 .446-1 1v2c0 .554.446 1 1 1h4c.554 0 1-.446 1-1v-2c0-.554-.446-1-1-1zm0 5c-.554 0-1 .446-1 1v2c0 .554.446 1 1 1h4c.554 0 1-.446 1-1v-2c0-.554-.446-1-1-1zm0 5c-.554 0-1 .446-1 1v2c0 .554.446 1 1 1h4c.554 0 1-.446 1-1v-2c0-.554-.446-1-1-1zm0 5c-.554 0-1 .446-1 1v2c0 .554.446 1 1 1h4c.554 0 1-.446 1-1v-2c0-.554-.446-1-1-1z" fill="url(#A)"/><path d="m84 6c-.554 0-1 .446-1 1v2c0 .554.446 1 1 1h4c.554 0 1-.446 1-1v-2c0-.554-.446-1-1-1zm0 5c-.554 0-1 .446-1 1v2c0 .554.446 1 1 1h4c.554 0 1-.446 1-1v-2c0-.554-.446-1-1-1zm0 5c-.554 0-1 .446-1 1v2c0 .554.446 1 1 1h4c.554 0 1-.446 1-1v-2c0-.554-.446-1-1-1zm0 5c-.554 0-1 .446-1 1v2c0 .554.446 1 1 1h4c.554 0 1-.446 1-1v-2c0-.554-.446-1-1-1zm0 5c-.554 0-1 .446-1 1v2c0 .554.446 1 1 1h4c.554 0 1-.446 1-1v-2c0-.554-.446-1-1-1zm0 5c-.554 0-1 .446-1 1v2c0 .554.446 1 1 1h4c.554 0 1-.446 1-1v-2c0-.554-.446-1-1-1zm0 5c-.554 0-1 .446-1 1v2c0 .554.446 1 1 1h4c.554 0 1-.446 1-1v-2c0-.554-.446-1-1-1zm0 5c-.554 0-1 .446-1 1v2c0 .554.446 1 1 1h4c.554 0 1-.446 1-1v-2c0-.554-.446-1-1-1zm0 5c-.554 0-1 .446-1 1v2c0 .554.446 1 1 1h4c.554 0 1-.446 1-1v-2c0-.554-.446-1-1-1zm0 5c-.554 0-1 .446-1 1v2c0 .554.446 1 1 1h4c.554 0 1-.446 1-1v-2c0-.554-.446-1-1-1zm0 5c-.554 0-1 .446-1 1v2c0 .554.446 1 1 1h4c.554 0 1-.446 1-1v-2c0-.554-.446-1-1-1zm0 5c-.554 0-1 .446-1 1v2c0 .554.446 1 1 1h4c.554 0 1-.446 1-1v-2c0-.554-.446-1-1-1zm0 5c-.554 0-1 .446-1 1v2c0 .554.446 1 1 1h4c.554 0 1-.446 1-1v-2c0-.554-.446-1-1-1zm0 5c-.554 0-1 .446-1 1v2c0 .554.446 1 1 1h4c.554 0 1-.446 1-1v-2c0-.554-.446-1-1-1zm0 5c-.554 0-1 .446-1 1v2c0 .554.446 1 1 1h4c.554 0 1-.446 1-1v-2c0-.554-.446-1-1-1zm0 5c-.554 0-1 .446-1 1v2c0 .554.446 1 1 1h4c.554 0 1-.446 1-1v-2c0-.554-.446-1-1-1zm0 5c-.554 0-1 .446-1 1v2c0 .554.446 1 1 1h4c.554 0 1-.446 1-1v-2c0-.554-.446-1-1-1z" fill="url(#B)"/></g><rect fill="url(#f)" height="84" rx="6" width="84" x="6" y="-94"/><path d="m12 6c-3.324 0-6 2.676-6 6v2 68 2c0 .334721.04135.6507.09375.96875.0487.295596.09704.596915.1875.875.00988.03038.020892.0636.03125.09375.098865.287771.2348802.547452.375.8125.1445918.273507.3156161.535615.5.78125s.3737765.473472.59375.6875c.439947.428056.94291.814526 1.5 1.09375.278545.139612.5734731.246947.875.34375-.2562018-.100222-.4867109-.236272-.71875-.375-.00741-.0044-.023866.0045-.03125 0-.031933-.0193-.062293-.04251-.09375-.0625-.120395-.0767-.2310226-.163513-.34375-.25-.1061728-.0808-.2132809-.161112-.3125-.25-.1779299-.161433-.3474596-.345388-.5-.53125-.1075789-.130255-.2183939-.265285-.3125-.40625-.025089-.03838-.038446-.08587-.0625-.125-.064763-.103032-.1302275-.204517-.1875-.3125-.1010083-.194706-.2056748-.415701-.28125-.625-.00796-.02181-.023589-.04055-.03125-.0625-.0318251-.09195-.0358045-.186831-.0625-.28125-.0303323-.106618-.0703894-.203031-.09375-.3125-.0728786-.341512-.125-.698205-.125-1.0625v-2-68-2c0-2.781848 2.2181517-5 5-5h2 68 2c2.781848 0 5 2.218152 5 5v2 68 2c0 .364295-.05212.720988-.125 1.0625-.04415.206893-.08838.397658-.15625.59375-.0077.02195-.0233.04069-.03125.0625-.06274.173739-.138383.367449-.21875.53125-.04158.0828-.07904.169954-.125.25-.0546.09721-.126774.18835-.1875.28125-.09411.140965-.204921.275995-.3125.40625-.143174.17445-.303141.346998-.46875.5-.01117.0102-.01998.02115-.03125.03125-.138386.125556-.285091.234436-.4375.34375-.102571.07315-.204318.153364-.3125.21875-.0074.0045-.02384-.0044-.03125 0-.232039.138728-.462548.274778-.71875.375.301527-.0968.596455-.204138.875-.34375.55709-.279224 1.060053-.665694 1.5-1.09375.219973-.214028.409366-.441865.59375-.6875s.355408-.507743.5-.78125c.14012-.265048.276135-.524729.375-.8125.01041-.03078.02133-.06274.03125-.09375.09046-.278085.1388-.579404.1875-.875.0524-.31805.09375-.634029.09375-.96875v-2-68-2c0-3.324-2.676-6-6-6z" fill="url(#d)" opacity=".2"/><rect fill="url(#C)" height="48" opacity=".4" rx="6" width="84" x="6" y="42"/><path d="m12 90c-3.324 0-6-2.676-6-6v-2-68-2c0-.334721.04135-.6507.09375-.96875.0487-.295596.09704-.596915.1875-.875.00988-.03038.020892-.0636.03125-.09375.098865-.287771.2348802-.547452.375-.8125.1445918-.273507.3156161-.535615.5-.78125s.3737765-.473472.59375-.6875c.439947-.428056.94291-.814526 1.5-1.09375.278545-.139612.5734731-.246947.875-.34375-.2562018.100222-.4867109.236272-.71875.375-.00741.0044-.023866-.0045-.03125 0-.031933.0193-.062293.04251-.09375.0625-.120395.0767-.2310226.163513-.34375.25-.1061728.0808-.2132809.161112-.3125.25-.1779299.161433-.3474596.345388-.5.53125-.1075789.130255-.2183939.265285-.3125.40625-.025089.03838-.038446.08587-.0625.125-.064763.103032-.1302275.204517-.1875.3125-.1010083.194706-.2056748.415701-.28125.625-.00796.02181-.023589.04055-.03125.0625-.0318251.09195-.0358045.186831-.0625.28125-.0303323.106618-.0703894.203031-.09375.3125-.0728786.341512-.125.698205-.125 1.0625v2 68 2c0 2.781848 2.2181517 5 5 5h2 68 2c2.781848 0 5-2.218152 5-5v-2-68-2c0-.364295-.05212-.720988-.125-1.0625-.04415-.206893-.08838-.397658-.15625-.59375-.0077-.02195-.0233-.04069-.03125-.0625-.06274-.173739-.138383-.367449-.21875-.53125-.04158-.0828-.07904-.169954-.125-.25-.0546-.09721-.126774-.18835-.1875-.28125-.09411-.140965-.204921-.275995-.3125-.40625-.143174-.17445-.303141-.346998-.46875-.5-.01117-.0102-.01998-.02115-.03125-.03125-.138386-.125556-.285091-.234436-.4375-.34375-.102571-.07315-.204318-.153364-.3125-.21875-.0074-.0045-.02384.0044-.03125 0-.232039-.138728-.462548-.274778-.71875-.375.301527.0968.596455.204138.875.34375.55709.279224 1.060053.665694 1.5 1.09375.219973.214028.409366.441865.59375.6875s.355408.507743.5.78125c.14012.265048.276135.524729.375.8125.01041.03078.02133.06274.03125.09375.09046.278085.1388.579404.1875.875.0524.31805.09375.634029.09375.96875v2 68 2c0 3.324-2.676 6-6 6z" fill="url(#e)" opacity=".2"/><rect fill="url(#m)" height="84" rx="6" width="84" x="106" y="6"/><rect fill="url(#n)" height="84" opacity=".3" rx="6" transform="rotate(-90)" width="84" x="10" y="6"/><path d="m47.96875 20.03125c-6.129588-.130239-11.320075 5.438993-10.90625 11.53125h-.03125v12.5625c-.198974-.02185-.415541-.09349-.59375-.09375-.80461-.0012-1.460193.07822-1.84375.03125a1.2043073 1.2043073 0 0 0 -.21875 0c-1.166616.06995-2.641359-.236779-4.28125.125a1.2043073 1.2043073 0 0 0 -.21875.09375c-1.222724.527853-1.765199 1.775463-1.84375 2.71875-.0731.877794.04773 1.628003.03125 2.09375-.0012.03475.0026.125199 0 .15625-.14068.892637.08097 1.796088.59375 2.5.514587.706392 1.403715 1.171661 2.40625 1.15625-.0026.03035.0047-.0013 0 .03125a1.2043073 1.2043073 0 0 0 0 .125c-.235999 4.136227.645875 8.48782 3.34375 11.90625.0089.01179.02229.01948.03125.03125 1.939812 2.54784 4.642845 4.445197 7.625 5.59375.01137.179406-.008.413466 0 .5625-.351151.03042-.668114-.03703-1.03125.09375-.791801.285158-1.622507 1.005746-1.875 2.03125a1.2043073 1.2043073 0 0 0 -.03125.21875c-.0837 1.302397-.168679 2.724697.03125 4.15625a1.2043073 1.2043073 0 0 0 .03125.15625c.276505 1.052938 1.162615 1.722508 1.96875 1.96875.760943.232438 1.483353.21191 2.09375.15625v.03125c3.693899-.04212 7.477158.08688 11.25-.0625a1.2043073 1.2043073 0 0 0 .21875-.0625c1.01567-.250195 1.742398-1.057399 2.03125-1.84375.272916-.742966.262453-1.465621.1875-2.125h.03125c-.01602-.448565.07203-1.212623-.03125-2.0625-.101888-.838425-.605242-1.929867-1.65625-2.4375-.0068-.0033.0068-.02802 0-.03125-.01105-.0055-.02023.0053-.03125 0-.499638-.241215-.945004-.29818-1.34375-.3125-.008-.06249.0037-.195375 0-.25-.0051-.07513-.000739-.07406 0-.125 6.639395-2.463793 11.400532-9.172976 11.03125-16.34375h.03125v-1.46875c.300354-.02598.556797.03425.875-.0625.806816-.245318 1.691995-.915642 1.96875-1.96875a1.2043073 1.2043073 0 0 0 .03125-.15625c.197423-1.42829.116988-2.881652.03125-4.1875a1.2043073 1.2043073 0 0 0 -.03125-.1875c-.250195-1.01567-1.057399-1.742398-1.84375-2.03125-.742966-.272916-1.465621-.262453-2.125-.1875v-.03125c-1.486347.05468-3.186886-.01515-4.90625.125-.02136-4.700787.04781-9.443424-.0625-14.1875a1.2043073 1.2043073 0 0 0 -.03125-.0625c-.470639-5.494906-5.326467-9.939432-10.84375-9.875-.0209.000244-.04158-.000373-.0625 0z" opacity=".08"/><path d="m48 20.1875c-5.94656 0-10.8125 4.86594-10.8125 10.8125v13.1875c-.02987-.0041-.06249.000001-.0625 0-.0023-.00013-.153971.00002-.15625 0h-1.96875-1-2.90625-.03125c-.000931-.000046-.03035.000245-.0625 0-.04823-.000368-.113353 0-.09375 0 .02614 0-.07964-.000364-.125 0-.0233-.000044-.15509-.000115-.15625 0a1.0551535 1.0551535 0 0 0 -.1875.0625 1.0551535 1.0551535 0 0 0 -.03125 0c-.009.0018-.02154-.0019-.03125 0-.03886.0077-.185569.06191-.1875.0625-.01872.0093-.03315.03231-.03125.03125-.06593.0253-.269547.0828-.21875.0625-.0037.0015-.182394.09118-.1875.09375.105817-.05325-.215314.09163-.21875.09375-.0034.0021-.351929.278177-.1875.15625-.03692.02738-.03139.008-.0625.03125-.03111.02328-.123489.123663-.125.125-.003.0027-.153467.153326-.15625.15625-.000348.000366-.08874.08716-.09375.09375.000314-.000316.0037.02761 0 .03125-.008.01072-.05378.01958-.0625.03125-.02325.03113.0013.02967 0 .03125-.0057.0057-.02338-.008-.03125 0-.0039.004-.02216.02159-.03125.03125-.0045.0048.01133.0185 0 .03125s-.09368.09365-.09375.09375c-.0022.0034-.154305.246463-.15625.25-.0019.0035-.09212.18381-.09375.1875-.000817.0018.01566.000139 0 .03125-.0078.01556-.0243.01732-.03125.03125-.0035.007.0039.02334 0 .03125-.0039.0082-.06242.124761-.0625.125-.000082.000239-.02943.116682-.03125.125-.0018.0086.0017.02287 0 .03125-.0034.01676-.02741.04307-.03125.0625-.0077.03886.00049.02929 0 .03125-.000979.0039-.03061.246015-.03125.25-.000319.002-.0234-.0076-.03125.03125-.0039.01942.0033.04587 0 .0625-.0016.0084-.03121.155747-.03125.15625-.000147.002-.000031.09375 0 .125s-.0014-.04969 0 .0625v3c.00002.0023-.00013.153974 0 .15625.000001.000015.02663.02862.03125.0625-.000038.0079.000004.02177 0 .03125-.000014.0064.000051.0196 0 .03125.0013.0098-.000003.03124 0 .03125-.000004.006-.000076.02232 0 .03125.000038.0045-.000285.01982 0 .03125.0026.0097-.0015.02597 0 .03125.000341.0067.02712.03067.03125.0625.0056.04341-.000008.09371 0 .09375.000057.000279.02928.118997.03125.125.0035.01044-.0039.01962 0 .03125.01011.03097.05646.110618.0625.125.0073.01738-.003.0247 0 .03125.000855.0026.03037-.0026.03125 0 .0017.0035-.0012.02887 0 .03125.0049.0098-.004.02346 0 .03125.0029.0085-.00015.03084 0 .03125.000097.000268.05956.08776.0625.09375.0018.0053-.0021.02514 0 .03125.0012.0033.0205.03651.03125.0625.0013.0038-.0045.01926 0 .03125.0053.01287.03123.03121.03125.03125.0049.01079-.0055.0192 0 .03125.002.0056.02509.0156.03125.03125.0068.01348-.000324.03065 0 .03125.0034.0081-.000016.03121 0 .03125.000032.000073.06248.09372.0625.09375.000005.000009.02187.01786.03125.03125.0039.0078.02668.0221.03125.03125.01802.02571.03123.06247.03125.0625.000047.000058.0248.02393.03125.03125.01997.03045.03122.06247.03125.0625.01095.01395.02836.02806.03125.03125.01223.01452.01835.01605.03125.03125s.02923.02915.03125.03125c.0061.0063-.0026.02866 0 .03125.0076.0075.02345.0235.03125.03125.02529.02723.05378.05381.0625.0625.0015.0017.116204.116204.09375.09375-.02245-.02245.09206.09222.09375.09375.0087.0087.03526.03721.0625.0625.0077.0078.0237.0237.03125.03125.0026.0026.02495-.0061.03125 0 .0021.002.01605.01835.03125.03125s.01673.01902.03125.03125.03121.03122.03125.03125c.0037.0036.02099.02161.03125.03125.0107.0071.01983-.0075.03125 0 .0073.0064.03119.0312.03125.03125.01358.0077.02594.0284.03125.03125.0077.0054.0219-.0066.03125 0 .0092.0046.02341.02738.03125.03125.01339.0094.03124.03124.03125.03125.000031.000018.09368.06247.09375.0625.000073.000032.05467-.0031.0625 0 .03146.01584.06106.03056.0625.03125.01619.0074.02765.02989.03125.03125.01199.0045.0275-.0013.03125 0 .02599.01075.05917.03009.0625.03125.0061.0021.026-.0018.03125 0 .0105.0035.0196.0274.03125.03125.03113.01328.06234.03119.0625.03125.0031.0016.02736-.002.03125 0 .01707.0057.03614-.0088.0625 0 .0035.0017-.0066.02824 0 .03125.02559.0085.06166-.000259.0625 0 .03195.01113.06923.05449.09375.0625.01163.0039.02081-.0035.03125 0 .006.002.124721.03119.125.03125.00004.000008.05034-.0056.09375 0 .03183.0041.0558.03091.0625.03125.0053.0015.02152-.0026.03125 0 .01143.000285.02679-.000038.03125 0 .01138.002.03126.000001.03125 0 .000045.00001.04755-.0063.09375 0 .03388.0046.06248.03125.0625.03125.0023.00013.153971-.00002.15625 0h.1875v2.1875c0 7.122527 4.688041 13.056905 11 15.46875v.71875h-.1875c-.0023.00002-.153974-.00013-.15625 0-.000015.000001-.02862.02663-.0625.03125-.0462.0063-.0937-.00001-.09375 0-.000039.000008-.02105-.0024-.03125 0s-.02638-.0013-.03125 0c-.0057.000142-.01541-.000807-.03125 0-.0067.000341-.03067.02712-.0625.03125-.04341.0056-.09371-.000008-.09375 0-.000279.000057-.118997.02928-.125.03125.0011-.000283-.05451.0078-.03125 0-.03097.01011-.110618.05646-.125.0625-.01738.0073-.0247-.003-.03125 0-.01311.006-.02649.02894-.03125.03125-.02559.0086-.06168-.000299-.0625 0-.000165.00006-.03137.01797-.0625.03125-.01165.0039-.02074.02775-.03125.03125-.0053.0018-.02514-.0021-.03125 0-.0033.0012-.03651.0205-.0625.03125-.0038.0013-.01926-.0045-.03125 0s-.125063.06253-.125.0625c-.0081.0034-.03121-.000016-.03125 0-.000073.000032-.09372.06248-.09375.0625-.000017.00001-.02977.03956-.0625.0625-.02571.01802-.06247.03123-.0625.03125-.01358.0077-.09369.06246-.09375.0625-.01395.01095-.02806.02836-.03125.03125-.0077.0078-.02763.02761-.03125.03125-.0152.0129-.02915.02923-.03125.03125-.0063.0061-.02866-.0026-.03125 0-.0075.0076-.0235.02345-.03125.03125-.02723.02529-.05381.05378-.0625.0625-.0017.0015-.116204.116204-.09375.09375.02245-.02245-.09222.09206-.09375.09375-.0087.0087-.03721.03526-.0625.0625-.0078.0077-.0237.0237-.03125.03125-.0038.0041.000116.03111 0 .03125-.002.0021-.01835.01605-.03125.03125-.0036.0036-.02343.02352-.03125.03125-.0078.0077-.02259.02261-.03125.03125-.0036.0037-.02161.02099-.03125.03125-.0048.0051.0129.0166 0 .03125-.01248.01903-.02827.02603-.03125.03125-.0077.01358-.0284.02594-.03125.03125-.0057.01063.0021.02719 0 .03125-.0046.0092-.02738.02341-.03125.03125-.0094.01339-.03124.03124-.03125.03125-.000018.00003-.06247.09368-.0625.09375-.000032.000073.0031.05467 0 .0625-.0091.01798-.02221.01327-.03125.03125-.003.0088.002.02533 0 .03125-.0039.01184-.02742.01959-.03125.03125-.0038.01166.0021.02483 0 .03125-.01075.02599-.03009.05917-.03125.0625.0079-.0156-.00044.0323 0 .03125-.0035.0105-.0274.0196-.03125.03125-.01328.03113-.03119.06234-.03125.0625-.0016.0031.002.02736 0 .03125-.004.0078.0049.02145 0 .03125-.0051.01535-.02612.0159-.03125.03125-.003.0066.0073.01387 0 .03125-.0028.0085.000129.03083 0 .03125-.01113.03195-.05449.06923-.0625.09375.0078-.02326-.000283.03235 0 .03125-.002.006-.03119.124721-.03125.125-.000008.00004.0056.05034 0 .09375-.0041.03183-.03091.0558-.03125.0625-.000807.01584.000142.02554 0 .03125-.000285.01143.000038.02679 0 .03125-.000076.0089-.000004.0253 0 .03125.000008.0119-.000051.0196 0 .03125-.000128.0074.000005.03019 0 .03125.000004.0095-.000038.0234 0 .03125-.0046.03388-.03125.06248-.03125.0625-.00013.0023.00002.153971 0 .15625v3c.00002.0023-.00013.153974 0 .15625.000001.000015.02663.02862.03125.0625.0016.02879.000045.09418 0 .09375-.000004.006-.000076.02232 0 .03125.000038.0045-.000285.01982 0 .03125.0026.0097-.0015.02597 0 .03125.000341.0067.02712.03067.03125.0625.0056.04341-.000008.09371 0 .09375.000057.000279.02928.118997.03125.125.0035.01044-.0039.01962 0 .03125.01011.03097.05646.110618.0625.125.0073.01738-.003.0247 0 .03125.000855.0026.03037-.0026.03125 0 .0017.0035-.0012.02887 0 .03125.0049.0098-.004.02346 0 .03125.0029.0085-.00015.03084 0 .03125.00006.000165.01797.03137.03125.0625.0039.01165.02775.02075.03125.03125.004.008-.0039.02345 0 .03125.0012.0033.0205.03651.03125.0625.0021.0064-.0038.01959 0 .03125s.02731.01941.03125.03125c.002.0059-.003.02246 0 .03125.002.0056.02509.0156.03125.03125.0068.01348-.000324.03065 0 .03125.0034.0081-.000016.03121 0 .03125.000032.000073.06248.09372.0625.09375.000005.000009.02187.01786.03125.03125.0039.0078.02668.0221.03125.03125.01802.02571.03123.06248.03125.0625.000047.000058.0248.02393.03125.03125.0075.01142-.0071.02055 0 .03125.0096.01026.02761.02753.03125.03125.0087.0086.02343.02352.03125.03125.01223.01452.01835.01605.03125.03125s.02923.02915.03125.03125c.0061.0063-.0026.02866 0 .03125.0076.0075.02345.0235.03125.03125.02529.02724.05378.05381.0625.0625.0015.0017.116204.116204.09375.09375-.02245-.02245.09206.09222.09375.09375.0087.0087.03527.03721.0625.0625.0077.0078.0237.0237.03125.03125.0026.0026.02495-.0061.03125 0 .0021.002.01605.01835.03125.03125s.01673.01902.03125.03125.03121.03122.03125.03125c.0037.0036.02099.02161.03125.03125.0107.0071.01983-.0075.03125 0 .0073.0064.03119.0312.03125.03125.01358.0077.02594.0284.03125.03125.0077.0054.0219-.0066.03125 0 .0092.0046.02341.02738.03125.03125.01339.0094.03124.03124.03125.03125.000031.000018.09368.06247.09375.0625.000073.000032.05467-.0031.0625 0 .03146.01584.06106.03056.0625.03125.01619.0074.02765.02989.03125.03125.01199.0045.0275-.0013.03125 0 .02599.01075.05917.03009.0625.03125.0061.0021.026-.0018.03125 0 .01051.0035.0196.0274.03125.03125.03113.01328.06233.03119.0625.03125.0021.001.02663-.0022.03125 0 .01707.0057.03614-.0088.0625 0 .0035.0017-.0066.02824 0 .03125.02559.0085.06166-.000259.0625 0 .03195.01113.06923.05449.09375.0625.01163.0039.02081-.0035.03125 0 .006.002.124721.03119.125.03125.00004.000008.05034-.0056.09375 0 .03183.0041.0558.03091.0625.03125.0053.0015.02152-.0026.03125 0 .01575.0027.01987-.002.03125 0s.03126.000001.03125 0c.000045.00001.04755-.0063.09375 0 .03388.0046.06249.03125.0625.03125.0023.00013.153971-.00002.15625 0h12c.0023-.00002.153974.00013.15625 0 .000015-.000001.02862-.02663.0625-.03125.0462-.0063.0937.00001.09375 0 .01196-.001.01609.0014.03125 0 .02275-.0039.03625.0045.0625 0 .0067-.000341.03067-.02712.0625-.03125.04341-.0056.09371.000008.09375 0 .000279-.000057.118997-.02928.125-.03125.000057-.000015.08464-.04844.125-.0625-.000136.000042.115757-.0269.125-.03125.0046-.0022.02914.001.03125 0 .000268-.000097.08776-.05956.09375-.0625.0053-.0018.02514.0021.03125 0 .0067-.0023.124871-.06244.125-.0625.000617-.000295.01776.0068.03125 0 .0056-.002.0156-.02509.03125-.03125.01348-.0068.03065.000324.03125 0 .0081-.0034.03121.000016.03125 0 .000073-.000032.09372-.06248.09375-.0625.000009-.000005.01786-.02187.03125-.03125.0285-.01668.09394-.06263.09375-.0625.000058-.000047.02393-.0248.03125-.03125.03224-.02487.08554-.05506.09375-.0625.0114-.01033-.0036-.02778 0-.03125.02488-.02101.05935-.02822.0625-.03125.00088-.000724.109488-.07818.125-.09375.0017-.0015.116204-.116204.09375-.09375-.02245.02245.09222-.09206.09375-.09375.01557-.01551.09303-.12412.09375-.125.002-.0021.01835-.01605.03125-.03125.0013-.0014-.0069-.02398 0-.03125.007-.0083.02513.0073.03125 0 .0074-.0082.03763-.06151.0625-.09375.0064-.0073.0312-.03119.03125-.03125-.000127.000189.04582-.06525.0625-.09375.0094-.01339.03124-.03124.03125-.03125.000018-.00003.06247-.09368.0625-.09375.000032-.000073-.0031-.05467 0-.0625.0062-.01565.02921-.02563.03125-.03125.0068-.01349-.000295-.03063 0-.03125.000061-.000129.06017-.118346.0625-.125-.0079.0156.00044-.0323 0-.03125.0029-.006.0624-.09348.0625-.09375.0016-.0031-.002-.02736 0-.03125.004-.0078-.0049-.02145 0-.03125.01534-.03927.03128-.09385.03125-.09375.01406-.04036.06249-.124943.0625-.125.002-.006.03119-.124721.03125-.125.000008-.00004-.0056-.05034 0-.09375.0041-.03183.03091-.0558.03125-.0625.0023-.01312-.0027-.0155 0-.03125.0013-.0049-.0024-.02105 0-.03125.0028-.03032-.000145-.05716 0-.0625.0011-.01991-.0011-.04331 0-.0625.0046-.03388.03125-.06248.03125-.0625.00013-.0023-.00002-.153971 0-.15625v-3c-.00002-.0023.00013-.153974 0-.15625-.000001-.000015-.02663-.02862-.03125-.0625.000038-.0079-.000004-.02177 0-.03125-.000043-.0043.000309-.01991 0-.03125-.000145-.0053.0028-.03218 0-.0625-.002-.01138.0027-.0155 0-.03125-.0026-.0097.0015-.02597 0-.03125-.000341-.0067-.02712-.03067-.03125-.0625-.0056-.04341.000008-.09371 0-.09375-.000057-.000279-.02928-.118997-.03125-.125-.000015-.000057-.04844-.08464-.0625-.125.000032.000104-.01591-.05448-.03125-.09375-.0049-.0098.004-.02346 0-.03125-.0022-.0046.001-.02914 0-.03125-.000097-.000268-.05956-.08776-.0625-.09375.00044.0011-.0079-.04685 0-.03125-.0023-.0067-.06244-.124871-.0625-.125-.000295-.000617.0068-.01776 0-.03125-.002-.0056-.02509-.0156-.03125-.03125-.0031-.0078.000032-.06243 0-.0625-.000032-.000073-.06248-.09372-.0625-.09375-.000002-.000004-.02914.003-.03125 0-.0014-.0028-.06266-.125237-.0625-.125-.000047-.000058-.0248-.02393-.03125-.03125-.02487-.03224-.05506-.08554-.0625-.09375-.02446-.02903-.05846-.0583-.0625-.0625-.000116-.000141.0038-.02713 0-.03125-.0076-.0075-.02345-.0235-.03125-.03125-.02529-.02724-.05378-.05381-.0625-.0625-.0015-.0017-.116204-.116204-.09375-.09375.02245.02245-.09206-.09222-.09375-.09375-.0087-.0087-.03527-.03721-.0625-.0625.01549.01559-.06338-.03197-.0625-.03125-.0031-.003-.03762-.01024-.0625-.03125-.0036-.0035.0114-.02092 0-.03125-.0032-.0029-.0173-.0203-.03125-.03125-.0037-.0036-.02099-.02161-.03125-.03125-.0089-.0069-.02408.0055-.03125 0-.0073-.0064-.03119-.0312-.03125-.03125-.000016-.000013-.01786-.02186-.03125-.03125-.01063-.0057-.02719.0021-.03125 0-.02675-.01574-.06108-.03053-.0625-.03125-.003-.0021.000004-.03125 0-.03125-.000031-.000018-.09368-.06247-.09375-.0625-.000036-.000016-.02319.0034-.03125 0-.000602-.000324-.01777.0068-.03125 0-.01565-.0062-.02563-.02921-.03125-.03125-.01349-.0068-.03063.000295-.03125 0-.000064-.000031-.03651-.0205-.0625-.03125s-.05917-.03009-.0625-.03125c.01561.0079-.0323-.00044-.03125 0 .0011.00044-.05455-.03896-.03125-.03125-.03113-.01328-.06233-.03119-.0625-.03125-.0013-.000479-.05281-.01758-.09375-.03125-.03089-.01186-.06256-.00002-.0625 0-.03195-.01113-.06923-.05449-.09375-.0625.02326.0078-.03235-.000283-.03125 0-.006-.002-.124721-.03119-.125-.03125-.00004-.000008-.05034.0056-.09375 0-.03183-.0041-.0558-.03091-.0625-.03125-.0053-.0015-.02152.0026-.03125 0-.01575-.0027-.01987.002-.03125 0-.01374-.0014-.02026.001-.03125 0 .000425.000045-.06496.0016-.09375 0-.03388-.0046-.06249-.03125-.0625-.03125-.0023-.00013-.153971.00002-.15625 0h-.1875v-.71875c6.311959-2.411845 11-8.346223 11-15.46875v-2.1875h.1875c.0023-.00002.153974.00013.15625 0 .000015-.000001.02862-.02663.0625-.03125.01919-.0011.04259.0011.0625 0 .0053-.000145.03218.0028.0625 0 .02275-.0039.03625.0045.0625 0 .0067-.000341.03067-.02712.0625-.03125.04341-.0056.09371.000008.09375 0 .000279-.000057.118997-.02928.125-.03125.000057-.000015.08464-.04844.125-.0625-.000072.000022.02746-.01777.0625-.03125.0035-.0017.02887.0012.03125 0 .0098-.0049.02346.004.03125 0 .0039-.002.02812.0016.03125 0 .000268-.000097.08776-.05956.09375-.0625-.0011.00044.04685-.0079.03125 0 .0033-.0012.03651-.0205.0625-.03125s.06244-.03122.0625-.03125c.000617-.000295.01776.0068.03125 0 .0056-.002.0156-.02509.03125-.03125.0078-.0031.06243.000032.0625 0 .000073-.000032.09372-.06248.09375-.0625.000009-.000005.01786-.02187.03125-.03125.01069-.0063.0152-.02181.03125-.03125.02571-.01802.06248-.03123.0625-.03125.0052-.003.01222-.01877.03125-.03125.01465-.0129.02612.0048.03125 0 .01564-.01211.0173-.0203.03125-.03125.0086-.0087.02352-.02343.03125-.03125.0114-.01033-.0036-.02778 0-.03125.02488-.02101.05935-.02822.0625-.03125.0063-.0061.02866.0026.03125 0 .02164-.01997.08072-.08067.09375-.09375.0017-.0015.116204-.116204.09375-.09375-.02245.02245.09222-.09206.09375-.09375.0087-.0087.03721-.03527.0625-.0625-.0094.0093.01673-.01471.03125-.03125.0026-.0026-.0061-.02495 0-.03125.002-.0021.01835-.01605.03125-.03125.0013-.0014-.0069-.02398 0-.03125.0035-.0036.02092.0114.03125 0 .0074-.0082.03763-.06151.0625-.09375.0064-.0073.0312-.03119.03125-.03125-.000127.000189.04582-.06525.0625-.09375.0094-.01339.03124-.03124.03125-.03125.000018-.000031.06247-.09368.0625-.09375.000032-.000073-.0031-.05467 0-.0625.0062-.01565.02921-.02563.03125-.03125.0068-.01349-.000295-.03063 0-.03125.000061-.000129.06017-.118346.0625-.125-.0079.01561.00044-.0323 0-.03125.0029-.006.0624-.09348.0625-.09375.0016-.0031-.002-.02736 0-.03125.004-.0078-.0049-.02145 0-.03125.01534-.03927.03128-.09385.03125-.09375.01406-.04036.06248-.124943.0625-.125.002-.006.03119-.124721.03125-.125.000008-.00004-.0056-.05034 0-.09375.0041-.03183.03091-.0558.03125-.0625.0023-.01312-.0027-.0155 0-.03125.000285-.01143-.000038-.02679 0-.03125.0028-.03032-.000145-.05716 0-.0625.0011-.01991-.0011-.04331 0-.0625.0046-.03388.03125-.06249.03125-.0625.00013-.0023-.00002-.153971 0-.15625v-3c-.00002-.0023.00013-.153974 0-.15625-.000001-.000015-.02663-.02862-.03125-.0625.000038-.0079-.000004-.02177 0-.03125-.000729-.0132.000541-.0213 0-.03125.000051-.01165-.000008-.01935 0-.03125.000004-.006.000076-.02232 0-.03125-.002-.01138.0027-.0155 0-.03125-.000142-.0057.000807-.01541 0-.03125-.000341-.0067-.02712-.03067-.03125-.0625-.0056-.04341.000008-.09371 0-.09375-.000057-.000279-.02928-.118997-.03125-.125-.000015-.000057-.04844-.08464-.0625-.125.00001.000032.0042-.02034 0-.03125-.0073-.01738.003-.0247 0-.03125-.006-.01311-.02894-.02649-.03125-.03125-.0049-.0098.004-.02346 0-.03125-.0022-.0046.001-.02914 0-.03125-.00006-.000165-.01797-.03137-.03125-.0625.0077.0233-.03169-.0323-.03125-.03125-.0018-.0053.0021-.02514 0-.03125-.0016-.0047-.01879-.06372-.03125-.09375-.0014-.0036-.02388-.01506-.03125-.03125-.000295-.000617.0068-.01776 0-.03125-.002-.0056-.02509-.0156-.03125-.03125-.0031-.0078.000032-.06243 0-.0625-.000032-.000073-.06248-.09372-.0625-.09375-.000002-.000004-.02914.003-.03125 0-.000287-.000566.0042-.02412 0-.03125-.0039-.0078-.02668-.0221-.03125-.03125-.0021-.0041.0057-.02062 0-.03125-.0028-.0053-.0235-.01767-.03125-.03125-.000047-.000058-.0248-.02393-.03125-.03125-.0055-.0072.0069-.02231 0-.03125-.0096-.01026-.0276-.02753-.03125-.03125-.000043-.000057-.04149-.0064-.0625-.03125-.0069-.0073.0013-.02988 0-.03125-.0129-.0152-.02923-.02915-.03125-.03125-.0061-.0063.0026-.02866 0-.03125-.0076-.0075-.02345-.0235-.03125-.03125-.02529-.02723-.05378-.05381-.0625-.0625-.0015-.0017-.116204-.116204-.09375-.09375.02245.02245-.09206-.09222-.09375-.09375-.0087-.0087-.03526-.03721-.0625-.0625.01549.01559-.06338-.03197-.0625-.03125-.0031-.003-.03762-.01024-.0625-.03125-.0036-.0035.0114-.02092 0-.03125-.0077-.0078-.02261-.02259-.03125-.03125-.000022-.000016-.01342-.01945-.03125-.03125-.0089-.0069-.02408.0055-.03125 0-.0073-.0064-.03119-.0312-.03125-.03125-.000025-.000021-.03679-.01323-.0625-.03125-.0092-.0046-.02341-.02738-.03125-.03125-.0071-.0042-.03068.000287-.03125 0-.003-.0021.000004-.03125 0-.03125-.00003-.000018-.09368-.06247-.09375-.0625-.000036-.000016-.02319.0034-.03125 0-.000602-.000324-.01777.0068-.03125 0-.01565-.0062-.02563-.02921-.03125-.03125-.01349-.0068-.03063.000295-.03125 0-.000064-.000031-.03651-.0205-.0625-.03125s-.05917-.03009-.0625-.03125c-.0078-.0039-.02322.004-.03125 0-.006-.0029-.09348-.0624-.09375-.0625-.0013-.000479-.05281-.01758-.09375-.03125-.03089-.01186-.06256-.00002-.0625 0-.03195-.01113-.06923-.05449-.09375-.0625.02326.0078-.03235-.000283-.03125 0-.006-.002-.124721-.03119-.125-.03125-.00004-.000008-.05034.0056-.09375 0-.03183-.0041-.0558-.03091-.0625-.03125-.0053-.0015-.02152.0026-.03125 0-.01575-.0027-.01987.002-.03125 0-.03032-.0028-.05716.000145-.0625 0-.01961-.0027-.0317.0042-.0625 0-.03388-.0046-.06248-.03125-.0625-.03125-.0023-.00013-.153971.00002-.15625 0h-3-1-1.96875c-.0023.00002-.153974-.00013-.15625 0-.000014.000001-.03263-.0041-.0625 0v-13.1875c0-5.94656-4.86594-10.8125-10.8125-10.8125z" opacity=".08"/><path d="m48 21.25c-5.418876-.149439-10.16751 4.907763-9.75 10.299182v14.294568c-.971053-1.025857-2.544123-.44006-3.799182-.59375-1.36195.08166-2.782958-.167114-4.107068.125-1.581358.682676-.979626 2.612638-1.09375 3.959025-.244271 1.183563.607184 2.51286 1.887296 2.415975 1.168051-.339497 1.25328.403826 1.112704 1.372956-.224105 3.927764.648295 7.998403 3.136041 11.130689 1.972371 2.604858 4.757593 4.579716 7.863959 5.590105-.09618.751673.189658 1.885355-.137296 2.40625-1.087251-.140543-2.494555.0711-2.800204 1.3125-.08273 1.287325-.146796 2.662633.03125 3.9375.332929 1.2678 1.805495 1.359733 2.891911 1.25 3.730424-.04254 7.488371.08453 11.201839-.0625 1.234147-.304014 1.455052-1.701813 1.3125-2.785865-.0425-1.190377.333745-2.849833-1-3.464135-.619393-.307225-1.329892-.148373-2-.1875.169691-.783768-.356857-2.067473.294306-2.50552 6.40408-2.121828 11.083853-8.640934 10.705694-15.430958 0-.854507 0-1.709015 0-2.563522 1.08954.108463 2.571384.02423 2.90625-1.25.176228-1.274951.115774-2.650138.03125-3.9375-.304014-1.234147-1.701813-1.455052-2.785865-1.3125-1.783547.06561-3.616115-.128224-5.370385.09375-.828223.541305-.867891.419035-.78125-.598365-.03102-4.913029.06372-9.83006-.05046-14.74045-.415562-4.851861-4.825343-8.841847-9.69954-8.754935z" opacity=".15"/><path d="m48 22.0625c-4.939485 0-8.9375 3.998015-8.9375 8.9375v24c0 4.939485 3.998015 8.9375 8.9375 8.9375s8.9375-3.998015 8.9375-8.9375v-24c0-4.939485-3.998015-8.9375-8.9375-8.9375zm-17.1875 24a.94565447.94565447 0 0 0 -.75.9375v3a.94565447.94565447 0 0 0 .9375.9375h2.0625v4.0625c0 6.790569 4.725806 12.503757 11 14.28125v3.78125h-2.0625a.94565447.94565447 0 0 0 -.9375.9375v3a.94565447.94565447 0 0 0 .9375.9375h12a.94565447.94565447 0 0 0 .9375-.9375v-3a.94565447.94565447 0 0 0 -.9375-.9375h-2.0625v-3.78125c6.274194-1.777493 11-7.490681 11-14.28125v-4.0625h2.0625a.94565447.94565447 0 0 0 .9375-.9375v-3a.94565447.94565447 0 0 0 -.9375-.9375h-3-1-1.96875a.94565447.94565447 0 0 0 -.9375.9375v8c0 5.545237-4.548513 10.09375-10.09375 10.09375s-10.09375-4.548513-10.09375-10.09375v-8a.94565447.94565447 0 0 0 -.9375-.9375h-1.96875-1-3a.94565447.94565447 0 0 0 -.1875 0z" opacity=".25"/><path d="m48 23c-4.432 0-8 3.568-8 8v24c0 4.432 3.568 8 8 8s8-3.568 8-8v-24c0-4.432-3.568-8-8-8zm-17 24v3h3v5c0 6.611862 4.770404 12.250041 11 13.65625v5.34375h-3v3h12v-3h-3v-5.34375c6.229596-1.406209 11-7.044388 11-13.65625v-5h3v-3h-3-1-1.96875v8c0 6.061981-4.969269 11.03125-11.03125 11.03125s-11.03125-4.969269-11.03125-11.03125v-8h-1.96875-1z" opacity=".6"/><path d="m40.178572 68.053574a12.053572 11.875 0 1 1 -24.107144 0 12.053572 11.875 0 1 1 24.107144 0z" filter="url(#g)" transform="matrix(.99555553 0 0 1.0105263 -104 4.230073)"/><path d="m40.178572 68.053574a12.053572 11.875 0 1 1 -24.107144 0 12.053572 11.875 0 1 1 24.107144 0z" fill="url(#h)" transform="matrix(.99555553 0 0 -1.0105263 -104 140.76992)"/><path d="m48 22c-4.432 0-8 3.568-8 8v24c0 4.432 3.568 8 8 8s8-3.568 8-8v-24c0-4.432-3.568-8-8-8zm-17 24v3h3v5c0 6.611862 4.770404 12.250041 11 13.65625v5.34375h-3v3h12v-3h-3v-5.34375c6.229596-1.406209 11-7.044388 11-13.65625v-5h3v-3h-3-1-1.96875v8c0 6.061981-4.969269 11.03125-11.03125 11.03125s-11.03125-4.969269-11.03125-11.03125v-8h-1.96875-1z" fill="url(#i)"/><path d="m48 22c-4.432 0-8 3.568-8 8v2c0-4.432 3.568-8 8-8s8 3.568 8 8v-2c0-4.432-3.568-8-8-8zm-17 24v2h3 1 1.96875v-2h-1.96875-1zm28.03125 0v2h1.96875 1 3v-2h-3-1zm-22.0625 8v2c0 6.061981 4.969269 11.03125 11.03125 11.03125s11.03125-4.969269 11.03125-11.03125v-2c0 6.061981-4.969269 11.03125-11.03125 11.03125s-11.03125-4.969269-11.03125-11.03125zm5.03125 19v2h3v-2zm9 0v2h3v-2z" fill="#fefefe"/><path d="m40.178572 68.053574a12.053572 11.875 0 1 1 -24.107144 0 12.053572 11.875 0 1 1 24.107144 0z" filter="url(#g)" transform="matrix(.99555553 0 0 1.0105263 -63.999999 4.230073)"/><path d="m40.178572 68.053574a12.053572 11.875 0 1 1 -24.107144 0 12.053572 11.875 0 1 1 24.107144 0z" fill="url(#j)" transform="matrix(.99555553 0 0 1.0105263 -63.999999 3.230073)"/><path d="m-36 84c-6.627417 0-12-5.372583-12-12 0-.340063.03477-.667101.0625-1 .512775 6.154902 5.650146 11 11.9375 11s11.424725-4.845098 11.9375-11c.02773.332899.0625.659937.0625 1 0 6.627417-5.372583 12-12 12z" fill="#fea" opacity=".3"/><path d="m40.178572 68.053574a12.053572 11.875 0 1 1 -24.107144 0 12.053572 11.875 0 1 1 24.107144 0z" fill="url(#k)" opacity=".8" transform="matrix(0 .46222221 -.73984961 0 14.34941 53.285714)"/><path d="m40.178572 68.053574a12.053572 11.875 0 1 1 -24.107144 0 12.053572 11.875 0 1 1 24.107144 0z" fill="url(#l)" opacity=".3" transform="matrix(0 .99555553 1.0105263 0 -144.76993 43.999995)"/><path d="m-76 60c-6.627417 0-12 5.372583-12 12s5.372583 12 12 12 12-5.372583 12-12-5.372583-12-12-12zm0 .96875c6.114428 0 11.03125 4.941202 11.03125 11.03125s-4.916822 11-11.03125 11-11.03125-4.909952-11.03125-11 4.916822-11.03125 11.03125-11.03125z" fill="#730000"/><path d="m-76 61c-6.075132 0-11 4.924868-11 11 0 .295579.03962.585302.0625.875.56331-5.546817 5.242064-9.875 10.9375-9.875s10.37419 4.328183 10.9375 9.875c.022882-.289698.0625-.579421.0625-.875 0-6.075132-4.924868-11-11-11z" fill="#ffe680" opacity=".3"/></svg>