<svg height="96" width="96" xmlns="http://www.w3.org/2000/svg" xmlns:xlink="http://www.w3.org/1999/xlink"><linearGradient id="a"><stop offset="0" stop-color="#fefefe"/><stop offset="1" stop-color="#fefefe" stop-opacity="0"/></linearGradient><linearGradient id="b" gradientUnits="userSpaceOnUse" x1="36.357143" x2="36.357143" xlink:href="#a" y1="6" y2="63.893143"/><filter id="c" color-interpolation-filters="sRGB" height="1.384" width="1.384" x="-.192" y="-.192"><feGaussianBlur stdDeviation="5.28"/></filter><linearGradient id="d" gradientUnits="userSpaceOnUse" x1="48" x2="48" xlink:href="#a" y1="20.220806" y2="138.66119"/><radialGradient id="e" cx="48" cy="90.171875" gradientTransform="matrix(1.1573129 0 0 .99590774 -7.551021 .197132)" gradientUnits="userSpaceOnUse" r="42" xlink:href="#a"/><clipPath id="f"><rect height="84" rx="6" width="84" x="6" y="6"/></clipPath><linearGradient id="g" gradientUnits="userSpaceOnUse" x1="48" x2="48" y1="90" y2="5.987717"><stop offset="0" stop-color="#2f2f2f"/><stop offset="1" stop-color="#4f4f4f"/></linearGradient><linearGradient id="h" gradientTransform="matrix(1.0058652 0 0 .994169 100 0)" gradientUnits="userSpaceOnUse" x1="45.447727" x2="45.447727" y1="92.539597" y2="7.01654"><stop offset="0"/><stop offset="1" stop-opacity=".588235"/></linearGradient><linearGradient id="i" gradientTransform="matrix(1.0238095 0 0 1.0119048 -1.142857 -98.071429)" gradientUnits="userSpaceOnUse" x1="32.251034" x2="32.251034" xlink:href="#h" y1="6.131708" y2="90.238609"/><linearGradient id="j" gradientTransform="translate(0 -97)" gradientUnits="userSpaceOnUse" x1="32.251034" x2="32.251034" xlink:href="#h" y1="6.131708" y2="90.238609"/><linearGradient id="k" gradientTransform="matrix(-.70710678 -.70710678 .70710678 -.70710678 20.293538 182.77339)" gradientUnits="userSpaceOnUse" x1="70" x2="77" xlink:href="#a" y1="71" y2="78"/><linearGradient id="l" gradientUnits="userSpaceOnUse" x1="15.949031" x2="48" xlink:href="#a" y1="32" y2="32"/><radialGradient id="m" cx="32" cy="41.676769" gradientTransform="matrix(.9062532 0 0 .78488074 2.999898 9.175072)" gradientUnits="userSpaceOnUse" r="16"><stop offset="0" stop-color="#66c7f1"/><stop offset="1" stop-color="#1677bb"/></radialGradient><radialGradient id="n" cx="32" cy="41.676769" gradientTransform="matrix(.9062532 0 0 .78488074 2.999898 9.175072)" gradientUnits="userSpaceOnUse" r="16"><stop offset="0" stop-color="#9ee82d"/><stop offset="1" stop-color="#328c22"/></radialGradient><linearGradient id="o" gradientTransform="matrix(-.70710678 -.70710678 .70710678 -.70710678 74.293538 182.77339)" gradientUnits="userSpaceOnUse" x1="70" x2="77" xlink:href="#a" y1="71" y2="78"/><radialGradient id="p" cx="32" cy="41.676769" gradientTransform="matrix(.9062532 0 0 .78488074 2.999898 9.175072)" gradientUnits="userSpaceOnUse" r="16"><stop offset="0" stop-color="#ff5b2a"/><stop offset="1" stop-color="#c21313"/></radialGradient><linearGradient id="q" gradientTransform="matrix(-.70710678 -.70710678 .70710678 -.70710678 74.293538 164.77339)" gradientUnits="userSpaceOnUse" x1="70" x2="77" xlink:href="#a" y1="71" y2="78"/><g fill="url(#i)"><path d="m12-95.03125c-5.5110903 0-10.03125 4.52016-10.03125 10.03125v71c0 5.5110902 4.5201598 10.03125 10.03125 10.03125h72c5.51109 0 10.03125-4.5201597 10.03125-10.03125v-71c0-5.51109-4.52016-10.03125-10.03125-10.03125z" opacity=".08" transform="scale(1 -1)"/><path d="m12-94.03125c-4.971633 0-9.03125 4.059617-9.03125 9.03125v71c0 4.9716329 4.0596171 9.03125 9.03125 9.03125h72c4.971633 0 9.03125-4.059617 9.03125-9.03125v-71c0-4.971633-4.059617-9.03125-9.03125-9.03125z" opacity=".1" transform="scale(1 -1)"/><path d="m12-93c-4.4091333 0-8 3.590867-8 8v71c0 4.4091333 3.5908667 8 8 8h72c4.409133 0 8-3.5908667 8-8v-71c0-4.409133-3.590867-8-8-8z" opacity=".2" transform="scale(1 -1)"/><rect height="85" opacity=".3" rx="7" transform="scale(1 -1)" width="86" x="5" y="-92"/></g><rect fill="url(#j)" height="84" opacity=".45" rx="6" transform="scale(1 -1)" width="84" x="6" y="-91"/><rect fill="url(#g)" height="84" rx="6" width="84" x="6" y="6"/><path d="m12 6c-3.324 0-6 2.676-6 6v2 68 2c0 .334721.04135.6507.09375.96875.0487.295596.09704.596915.1875.875.00988.03038.020892.0636.03125.09375.098865.287771.2348802.547452.375.8125.1445918.273507.3156161.535615.5.78125s.3737765.473472.59375.6875c.439947.428056.94291.814526 1.5 1.09375.278545.139612.5734731.246947.875.34375-.2562018-.100222-.4867109-.236272-.71875-.375-.00741-.0044-.023866.0045-.03125 0-.031933-.0193-.062293-.04251-.09375-.0625-.120395-.0767-.2310226-.163513-.34375-.25-.1061728-.0808-.2132809-.161112-.3125-.25-.1779299-.161433-.3474596-.345388-.5-.53125-.1075789-.130255-.2183939-.265285-.3125-.40625-.025089-.03838-.038446-.08587-.0625-.125-.064763-.103032-.1302275-.204517-.1875-.3125-.1010083-.194706-.2056748-.415701-.28125-.625-.00796-.02181-.023589-.04055-.03125-.0625-.0318251-.09195-.0358045-.186831-.0625-.28125-.0303323-.106618-.0703894-.203031-.09375-.3125-.0728786-.341512-.125-.698205-.125-1.0625v-2-68-2c0-2.781848 2.2181517-5 5-5h2 68 2c2.781848 0 5 2.218152 5 5v2 68 2c0 .364295-.05212.720988-.125 1.0625-.04415.206893-.08838.397658-.15625.59375-.0077.02195-.0233.04069-.03125.0625-.06274.173739-.138383.367449-.21875.53125-.04158.0828-.07904.169954-.125.25-.0546.09721-.126774.18835-.1875.28125-.09411.140965-.204921.275995-.3125.40625-.143174.17445-.303141.346998-.46875.5-.01117.0102-.01998.02115-.03125.03125-.138386.125556-.285091.234436-.4375.34375-.102571.07315-.204318.153364-.3125.21875-.0074.0045-.02384-.0044-.03125 0-.232039.138728-.462548.274778-.71875.375.301527-.0968.596455-.204138.875-.34375.55709-.279224 1.060053-.665694 1.5-1.09375.219973-.214028.409366-.441865.59375-.6875s.355408-.507743.5-.78125c.14012-.265048.276135-.524729.375-.8125.01041-.03078.02133-.06274.03125-.09375.09046-.278085.1388-.579404.1875-.875.0524-.31805.09375-.634029.09375-.96875v-2-68-2c0-3.324-2.676-6-6-6z" fill="url(#b)" opacity=".3"/><path d="m12 90c-3.324 0-6-2.676-6-6v-2-68-2c0-.334721.04135-.6507.09375-.96875.0487-.295596.09704-.596915.1875-.875.00988-.03038.020892-.0636.03125-.09375.098865-.287771.2348802-.547452.375-.8125.1445918-.273507.3156161-.535615.5-.78125s.3737765-.473472.59375-.6875c.439947-.428056.94291-.814526 1.5-1.09375.278545-.139612.5734731-.246947.875-.34375-.2562018.100222-.4867109.236272-.71875.375-.00741.0044-.023866-.0045-.03125 0-.031933.0193-.062293.04251-.09375.0625-.120395.0767-.2310226.163513-.34375.25-.1061728.0808-.2132809.161112-.3125.25-.1779299.161433-.3474596.345388-.5.53125-.1075789.130255-.2183939.265285-.3125.40625-.025089.03838-.038446.08587-.0625.125-.064763.103032-.1302275.204517-.1875.3125-.1010083.194706-.2056748.415701-.28125.625-.00796.02181-.023589.04055-.03125.0625-.0318251.09195-.0358045.186831-.0625.28125-.0303323.106618-.0703894.203031-.09375.3125-.0728786.341512-.125.698205-.125 1.0625v2 68 2c0 2.781848 2.2181517 5 5 5h2 68 2c2.781848 0 5-2.218152 5-5v-2-68-2c0-.364295-.05212-.720988-.125-1.0625-.04415-.206893-.08838-.397658-.15625-.59375-.0077-.02195-.0233-.04069-.03125-.0625-.06274-.173739-.138383-.367449-.21875-.53125-.04158-.0828-.07904-.169954-.125-.25-.0546-.09721-.126774-.18835-.1875-.28125-.09411-.140965-.204921-.275995-.3125-.40625-.143174-.17445-.303141-.346998-.46875-.5-.01117-.0102-.01998-.02115-.03125-.03125-.138386-.125556-.285091-.234436-.4375-.34375-.102571-.07315-.204318-.153364-.3125-.21875-.0074-.0045-.02384.0044-.03125 0-.232039-.138728-.462548-.274778-.71875-.375.301527.0968.596455.204138.875.34375.55709.279224 1.060053.665694 1.5 1.09375.219973.214028.409366.441865.59375.6875s.355408.507743.5.78125c.14012.265048.276135.524729.375.8125.01041.03078.02133.06274.03125.09375.09046.278085.1388.579404.1875.875.0524.31805.09375.634029.09375.96875v2 68 2c0 3.324-2.676 6-6 6z" fill="url(#e)" opacity=".15"/><rect height="66" rx="12" style="opacity:.1;stroke:#fefefe;stroke-width:.5;stroke-linecap:round;clip-path:url(#f);fill:url(#d);filter:url(#c)" width="66" x="15" y="15"/><path d="m21 12c-6.046947 0-11 4.953053-11 11s4.953053 11 11 11c3.818109 0 7.075298-2.052792 9.03125-5.03125.801699 1.201806 1.798194 2.198301 3 3-2.978458 1.955952-5.03125 5.213141-5.03125 9.03125 0 3.793234 2.022503 7.038692 4.96875 9-2.946247 1.961308-4.96875 5.206766-4.96875 9 0 6.046947 4.953053 11 11 11s11-4.953053 11-11c0-3.818109-2.052792-7.075298-5.03125-9.03125 1.201806-.801699 2.198301-1.798194 3-3 1.955952 2.978458 5.213141 5.03125 9.03125 5.03125 6.046947 0 11-4.953053 11-11s-4.953053-11-11-11c-3.818109 0-7.075298 2.052792-9.03125 5.03125-.801699-1.201806-1.798194-2.198301-3-3 2.978458-1.955952 5.03125-5.213141 5.03125-9.03125 0-6.046947-4.953053-11-11-11-3.793234 0-7.038692 2.022503-9 4.96875-1.961308-2.946247-5.206766-4.96875-9-4.96875zm54 0c-6.046947 0-11 4.953053-11 11s4.953053 11 11 11 11-4.953053 11-11-4.953053-11-11-11zm0 36c-6.046947 0-11 4.953053-11 11 0 3.818109 2.052792 7.075298 5.03125 9.03125-1.201806.801699-2.198301 1.798194-3 3-1.955952-2.978458-5.213141-5.03125-9.03125-5.03125-6.046947 0-11 4.953053-11 11s4.953053 11 11 11c3.793234 0 7.038692-2.022503 9-4.96875 1.961308 2.946247 5.206766 4.96875 9 4.96875 6.046947 0 11-4.953053 11-11 0-3.793234-2.022503-7.038692-4.96875-9 2.946247-1.961308 4.96875-5.206766 4.96875-9 0-6.046947-4.953053-11-11-11zm-54 18c-6.046947 0-11 4.953053-11 11s4.953053 11 11 11 11-4.953053 11-11-4.953053-11-11-11z" opacity=".05"/><path d="m21 13.0625c-5.464705 0-9.9375 4.472795-9.9375 9.9375s4.472795 9.9375 9.9375 9.9375c4.00944 0 7.451658-2.434878 9-5.875.989881 2.19024 2.74726 3.947619 4.9375 4.9375-3.440122 1.548342-5.875 4.99056-5.875 9s2.434878 7.451658 5.875 9c-3.440122 1.548342-5.875 4.99056-5.875 9 0 5.464705 4.472795 9.9375 9.9375 9.9375s9.9375-4.472795 9.9375-9.9375c0-4.00944-2.434878-7.451658-5.875-9 2.19024-.989881 3.947619-2.74726 4.9375-4.9375 1.548342 3.440122 4.99056 5.875 9 5.875 5.464705 0 9.9375-4.472795 9.9375-9.9375s-4.472795-9.9375-9.9375-9.9375c-4.00944 0-7.451658 2.434878-9 5.875-.989881-2.19024-2.74726-3.947619-4.9375-4.9375 3.440122-1.548342 5.875-4.99056 5.875-9 0-5.464705-4.472795-9.9375-9.9375-9.9375-4.00944 0-7.451658 2.434878-9 5.875-1.548342-3.440122-4.99056-5.875-9-5.875zm54 0c-5.464705 0-9.9375 4.472795-9.9375 9.9375s4.472795 9.9375 9.9375 9.9375 9.9375-4.472795 9.9375-9.9375-4.472795-9.9375-9.9375-9.9375zm0 36c-5.464705 0-9.9375 4.472795-9.9375 9.9375 0 4.00944 2.434878 7.451658 5.875 9-2.19024.989881-3.947619 2.74726-4.9375 4.9375-1.548342-3.440122-4.99056-5.875-9-5.875-5.464705 0-9.9375 4.472795-9.9375 9.9375s4.472795 9.9375 9.9375 9.9375c4.00944 0 7.451658-2.434878 9-5.875 1.548342 3.440122 4.99056 5.875 9 5.875 5.464705 0 9.9375-4.472795 9.9375-9.9375 0-4.00944-2.434878-7.451658-5.875-9 3.440122-1.548342 5.875-4.99056 5.875-9 0-5.464705-4.472795-9.9375-9.9375-9.9375zm-54 18c-5.464705 0-9.9375 4.472795-9.9375 9.9375s4.472795 9.9375 9.9375 9.9375 9.9375-4.472795 9.9375-9.9375-4.472795-9.9375-9.9375-9.9375z" opacity=".1"/><path d="m21 13.9375c-4.994952 0-9.0625 4.067548-9.0625 9.0625s4.067548 9.0625 9.0625 9.0625c4.88452 0 8.82543-3.906889 9-8.75.170624 4.733616 3.953884 8.516876 8.6875 8.6875-4.843111.17457-8.75 4.11548-8.75 9s3.906889 8.82543 8.75 9c-4.843111.17457-8.75 4.11548-8.75 9 0 4.994952 4.067548 9.0625 9.0625 9.0625s9.0625-4.067548 9.0625-9.0625c0-4.88452-3.906889-8.82543-8.75-9 4.733616-.170624 8.516876-3.953884 8.6875-8.6875.17457 4.843111 4.11548 8.75 9 8.75 4.994952 0 9.0625-4.067548 9.0625-9.0625s-4.067548-9.0625-9.0625-9.0625c-4.88452 0-8.82543 3.906889-9 8.75-.170624-4.733616-3.953884-8.516876-8.6875-8.6875 4.843111-.17457 8.75-4.11548 8.75-9 0-4.994952-4.067548-9.0625-9.0625-9.0625-4.88452 0-8.82543 3.906889-9 8.75-.17457-4.843111-4.11548-8.75-9-8.75zm54 0c-4.994952 0-9.0625 4.067548-9.0625 9.0625s4.067548 9.0625 9.0625 9.0625 9.0625-4.067548 9.0625-9.0625-4.067548-9.0625-9.0625-9.0625zm0 36c-4.994952 0-9.0625 4.067548-9.0625 9.0625 0 4.88452 3.906889 8.82543 8.75 9-4.733616.170624-8.516876 3.953884-8.6875 8.6875-.17457-4.843111-4.11548-8.75-9-8.75-4.994952 0-9.0625 4.067548-9.0625 9.0625s4.067548 9.0625 9.0625 9.0625c4.88452 0 8.82543-3.906889 9-8.75.17457 4.843111 4.11548 8.75 9 8.75 4.994952 0 9.0625-4.067548 9.0625-9.0625 0-4.88452-3.906889-8.82543-8.75-9 4.843111-.17457 8.75-4.11548 8.75-9 0-4.994952-4.067548-9.0625-9.0625-9.0625zm-54 18c-4.994952 0-9.0625 4.067548-9.0625 9.0625s4.067548 9.0625 9.0625 9.0625 9.0625-4.067548 9.0625-9.0625-4.067548-9.0625-9.0625-9.0625z" opacity=".15"/><path d="m21 15c-4.418278 0-8 3.581722-8 8s3.581722 8 8 8 8-3.581722 8-8-3.581722-8-8-8zm18 0c-4.418278 0-8 3.581722-8 8s3.581722 8 8 8 8-3.581722 8-8-3.581722-8-8-8zm36 0c-4.418278 0-8 3.581722-8 8s3.581722 8 8 8 8-3.581722 8-8-3.581722-8-8-8zm-36 18c-4.418278 0-8 3.581722-8 8s3.581722 8 8 8 8-3.581722 8-8-3.581722-8-8-8zm18 0c-4.418278 0-8 3.581722-8 8s3.581722 8 8 8 8-3.581722 8-8-3.581722-8-8-8zm-18 18c-4.418278 0-8 3.581722-8 8s3.581722 8 8 8 8-3.581722 8-8-3.581722-8-8-8zm36 0c-4.418278 0-8 3.581722-8 8s3.581722 8 8 8 8-3.581722 8-8-3.581722-8-8-8zm-54 18c-4.418278 0-8 3.581722-8 8s3.581722 8 8 8 8-3.581722 8-8-3.581722-8-8-8zm36 0c-4.418278 0-8 3.581722-8 8s3.581722 8 8 8 8-3.581722 8-8-3.581722-8-8-8zm18 0c-4.418278 0-8 3.581722-8 8s3.581722 8 8 8 8-3.581722 8-8-3.581722-8-8-8z" opacity=".3"/><path d="m48 32a16 16 0 1 1 -32 0 16 16 0 1 1 32 0z" fill="url(#m)" transform="matrix(.5 0 0 .5 5 60)"/><path d="m21 68c-4.418278 0-8 3.581722-8 8s3.581722 8 8 8 8-3.581722 8-8-3.581722-8-8-8zm0 1c3.865993 0 7 3.134007 7 7s-3.134007 7-7 7-7-3.134007-7-7 3.134007-7 7-7z" opacity=".2"/><path d="m16.050897 80.950014c2.73367 2.73367 7.165825 2.73367 9.899495 0 2.73367-2.733669 2.73367-7.165825 0-9.899495-.05931-.05931-.115915-.120016-.176777-.176776 2.360368 2.549521 2.30133 6.537505-.176776 9.015611-2.538408 2.538408-6.653981 2.538408-9.192389 0-2.478106-2.478106-2.537144-6.46609-.176776-9.015611-.06086.05676-.117461.117461-.176777.176776-2.73367 2.73367-2.73367 7.165826 0 9.899495z" fill="url(#k)" opacity=".3"/><path d="m48 32a16 16 0 1 1 -32 0 16 16 0 1 1 32 0z" fill="url(#l)" transform="matrix(0 .21971455 -.30527537 0 30.768812 65.475893)"/><g transform="translate(36)"><path d="m48 32a16 16 0 1 1 -32 0 16 16 0 1 1 32 0z" fill="url(#m)" transform="matrix(.5 0 0 .5 5 60)"/><path d="m21 68c-4.418278 0-8 3.581722-8 8s3.581722 8 8 8 8-3.581722 8-8-3.581722-8-8-8zm0 1c3.865993 0 7 3.134007 7 7s-3.134007 7-7 7-7-3.134007-7-7 3.134007-7 7-7z" opacity=".2"/><path d="m16.050897 80.950014c2.73367 2.73367 7.165825 2.73367 9.899495 0 2.73367-2.733669 2.73367-7.165825 0-9.899495-.05931-.05931-.115915-.120016-.176777-.176776 2.360368 2.549521 2.30133 6.537505-.176776 9.015611-2.538408 2.538408-6.653981 2.538408-9.192389 0-2.478106-2.478106-2.537144-6.46609-.176776-9.015611-.06086.05676-.117461.117461-.176777.176776-2.73367 2.73367-2.73367 7.165826 0 9.899495z" fill="url(#k)" opacity=".3"/><path d="m48 32a16 16 0 1 1 -32 0 16 16 0 1 1 32 0z" fill="url(#l)" transform="matrix(0 .21971455 -.30527537 0 30.768812 65.475893)"/></g><g transform="translate(18 -18)"><path d="m48 32a16 16 0 1 1 -32 0 16 16 0 1 1 32 0z" fill="url(#m)" transform="matrix(.5 0 0 .5 5 60)"/><path d="m21 68c-4.418278 0-8 3.581722-8 8s3.581722 8 8 8 8-3.581722 8-8-3.581722-8-8-8zm0 1c3.865993 0 7 3.134007 7 7s-3.134007 7-7 7-7-3.134007-7-7 3.134007-7 7-7z" opacity=".2"/><path d="m16.050897 80.950014c2.73367 2.73367 7.165825 2.73367 9.899495 0 2.73367-2.733669 2.73367-7.165825 0-9.899495-.05931-.05931-.115915-.120016-.176777-.176776 2.360368 2.549521 2.30133 6.537505-.176776 9.015611-2.538408 2.538408-6.653981 2.538408-9.192389 0-2.478106-2.478106-2.537144-6.46609-.176776-9.015611-.06086.05676-.117461.117461-.176777.176776-2.73367 2.73367-2.73367 7.165826 0 9.899495z" fill="url(#k)" opacity=".3"/><path d="m48 32a16 16 0 1 1 -32 0 16 16 0 1 1 32 0z" fill="url(#l)" transform="matrix(0 .21971455 -.30527537 0 30.768812 65.475893)"/></g><g transform="translate(36 -36)"><path d="m48 32a16 16 0 1 1 -32 0 16 16 0 1 1 32 0z" fill="url(#m)" transform="matrix(.5 0 0 .5 5 60)"/><path d="m21 68c-4.418278 0-8 3.581722-8 8s3.581722 8 8 8 8-3.581722 8-8-3.581722-8-8-8zm0 1c3.865993 0 7 3.134007 7 7s-3.134007 7-7 7-7-3.134007-7-7 3.134007-7 7-7z" opacity=".2"/><path d="m16.050897 80.950014c2.73367 2.73367 7.165825 2.73367 9.899495 0 2.73367-2.733669 2.73367-7.165825 0-9.899495-.05931-.05931-.115915-.120016-.176777-.176776 2.360368 2.549521 2.30133 6.537505-.176776 9.015611-2.538408 2.538408-6.653981 2.538408-9.192389 0-2.478106-2.478106-2.537144-6.46609-.176776-9.015611-.06086.05676-.117461.117461-.176777.176776-2.73367 2.73367-2.73367 7.165826 0 9.899495z" fill="url(#k)" opacity=".3"/><path d="m48 32a16 16 0 1 1 -32 0 16 16 0 1 1 32 0z" fill="url(#l)" transform="matrix(0 .21971455 -.30527537 0 30.768812 65.475893)"/></g><g transform="translate(54 -54)"><path d="m48 32a16 16 0 1 1 -32 0 16 16 0 1 1 32 0z" fill="url(#m)" transform="matrix(.5 0 0 .5 5 60)"/><path d="m21 68c-4.418278 0-8 3.581722-8 8s3.581722 8 8 8 8-3.581722 8-8-3.581722-8-8-8zm0 1c3.865993 0 7 3.134007 7 7s-3.134007 7-7 7-7-3.134007-7-7 3.134007-7 7-7z" opacity=".2"/><path d="m16.050897 80.950014c2.73367 2.73367 7.165825 2.73367 9.899495 0 2.73367-2.733669 2.73367-7.165825 0-9.899495-.05931-.05931-.115915-.120016-.176777-.176776 2.360368 2.549521 2.30133 6.537505-.176776 9.015611-2.538408 2.538408-6.653981 2.538408-9.192389 0-2.478106-2.478106-2.537144-6.46609-.176776-9.015611-.06086.05676-.117461.117461-.176777.176776-2.73367 2.73367-2.73367 7.165826 0 9.899495z" fill="url(#k)" opacity=".3"/><path d="m48 32a16 16 0 1 1 -32 0 16 16 0 1 1 32 0z" fill="url(#l)" transform="matrix(0 .21971455 -.30527537 0 30.768812 65.475893)"/></g><path d="m48 32a16 16 0 1 1 -32 0 16 16 0 1 1 32 0z" fill="url(#n)" transform="matrix(.5 0 0 .5 59 60)"/><path d="m75 68c-4.418278 0-8 3.581722-8 8s3.581722 8 8 8 8-3.581722 8-8-3.581722-8-8-8zm0 1c3.865993 0 7 3.134007 7 7s-3.134007 7-7 7-7-3.134007-7-7 3.134007-7 7-7z" opacity=".2"/><path d="m70.050897 80.950014c2.73367 2.73367 7.165825 2.73367 9.899495 0 2.73367-2.733669 2.73367-7.165825 0-9.899495-.05931-.05931-.115915-.120016-.176777-.176776 2.360368 2.549521 2.30133 6.537505-.176776 9.015611-2.538408 2.538408-6.653981 2.538408-9.192389 0-2.478106-2.478106-2.537144-6.46609-.176776-9.015611-.06086.05676-.117461.117461-.176777.176776-2.73367 2.73367-2.73367 7.165826 0 9.899495z" fill="url(#o)" opacity=".3"/><path d="m48 32a16 16 0 1 1 -32 0 16 16 0 1 1 32 0z" fill="url(#l)" transform="matrix(0 .21971455 -.30527537 0 84.768812 65.475893)"/><g transform="translate(-36 -36)"><path d="m48 32a16 16 0 1 1 -32 0 16 16 0 1 1 32 0z" fill="url(#n)" transform="matrix(.5 0 0 .5 59 60)"/><path d="m75 68c-4.418278 0-8 3.581722-8 8s3.581722 8 8 8 8-3.581722 8-8-3.581722-8-8-8zm0 1c3.865993 0 7 3.134007 7 7s-3.134007 7-7 7-7-3.134007-7-7 3.134007-7 7-7z" opacity=".2"/><path d="m70.050897 80.950014c2.73367 2.73367 7.165825 2.73367 9.899495 0 2.73367-2.733669 2.73367-7.165825 0-9.899495-.05931-.05931-.115915-.120016-.176777-.176776 2.360368 2.549521 2.30133 6.537505-.176776 9.015611-2.538408 2.538408-6.653981 2.538408-9.192389 0-2.478106-2.478106-2.537144-6.46609-.176776-9.015611-.06086.05676-.117461.117461-.176777.176776-2.73367 2.73367-2.73367 7.165826 0 9.899495z" fill="url(#o)" opacity=".3"/><path d="m48 32a16 16 0 1 1 -32 0 16 16 0 1 1 32 0z" fill="url(#l)" transform="matrix(0 .21971455 -.30527537 0 84.768812 65.475893)"/></g><g transform="translate(-54 -54)"><path d="m48 32a16 16 0 1 1 -32 0 16 16 0 1 1 32 0z" fill="url(#n)" transform="matrix(.5 0 0 .5 59 60)"/><path d="m75 68c-4.418278 0-8 3.581722-8 8s3.581722 8 8 8 8-3.581722 8-8-3.581722-8-8-8zm0 1c3.865993 0 7 3.134007 7 7s-3.134007 7-7 7-7-3.134007-7-7 3.134007-7 7-7z" opacity=".2"/><path d="m70.050897 80.950014c2.73367 2.73367 7.165825 2.73367 9.899495 0 2.73367-2.733669 2.73367-7.165825 0-9.899495-.05931-.05931-.115915-.120016-.176777-.176776 2.360368 2.549521 2.30133 6.537505-.176776 9.015611-2.538408 2.538408-6.653981 2.538408-9.192389 0-2.478106-2.478106-2.537144-6.46609-.176776-9.015611-.06086.05676-.117461.117461-.176777.176776-2.73367 2.73367-2.73367 7.165826 0 9.899495z" fill="url(#o)" opacity=".3"/><path d="m48 32a16 16 0 1 1 -32 0 16 16 0 1 1 32 0z" fill="url(#l)" transform="matrix(0 .21971455 -.30527537 0 84.768812 65.475893)"/></g><path d="m48 32a16 16 0 1 1 -32 0 16 16 0 1 1 32 0z" fill="url(#p)" transform="matrix(.5 0 0 .5 59 42)"/><path d="m75 50c-4.418278 0-8 3.581722-8 8s3.581722 8 8 8 8-3.581722 8-8-3.581722-8-8-8zm0 1c3.865993 0 7 3.134007 7 7s-3.134007 7-7 7-7-3.134007-7-7 3.134007-7 7-7z" opacity=".2"/><path d="m70.050897 62.950014c2.73367 2.73367 7.165825 2.73367 9.899495 0 2.73367-2.733669 2.73367-7.165825 0-9.899495-.05931-.05931-.115915-.120016-.176777-.176776 2.360368 2.549521 2.30133 6.537505-.176776 9.015611-2.538408 2.538408-6.653981 2.538408-9.192389 0-2.478106-2.478106-2.537144-6.46609-.176776-9.015611-.06086.05676-.117461.117461-.176777.176776-2.73367 2.73367-2.73367 7.165826 0 9.899495z" fill="url(#q)" opacity=".3"/><path d="m48 32a16 16 0 1 1 -32 0 16 16 0 1 1 32 0z" fill="url(#l)" transform="matrix(0 .21971455 -.30527537 0 84.768812 47.475893)"/><g transform="translate(-36 -36)"><path d="m48 32a16 16 0 1 1 -32 0 16 16 0 1 1 32 0z" fill="url(#p)" transform="matrix(.5 0 0 .5 59 42)"/><path d="m75 50c-4.418278 0-8 3.581722-8 8s3.581722 8 8 8 8-3.581722 8-8-3.581722-8-8-8zm0 1c3.865993 0 7 3.134007 7 7s-3.134007 7-7 7-7-3.134007-7-7 3.134007-7 7-7z" opacity=".2"/><path d="m70.050897 62.950014c2.73367 2.73367 7.165825 2.73367 9.899495 0 2.73367-2.733669 2.73367-7.165825 0-9.899495-.05931-.05931-.115915-.120016-.176777-.176776 2.360368 2.549521 2.30133 6.537505-.176776 9.015611-2.538408 2.538408-6.653981 2.538408-9.192389 0-2.478106-2.478106-2.537144-6.46609-.176776-9.015611-.06086.05676-.117461.117461-.176777.176776-2.73367 2.73367-2.73367 7.165826 0 9.899495z" fill="url(#q)" opacity=".3"/><path d="m48 32a16 16 0 1 1 -32 0 16 16 0 1 1 32 0z" fill="url(#l)" transform="matrix(0 .21971455 -.30527537 0 84.768812 47.475893)"/></g></svg>