<svg height="96" width="96" xmlns="http://www.w3.org/2000/svg" xmlns:xlink="http://www.w3.org/1999/xlink"><linearGradient id="a"><stop offset="0" stop-color="#fefefe"/><stop offset="1" stop-color="#fefefe" stop-opacity="0"/></linearGradient><linearGradient id="b" gradientUnits="userSpaceOnUse" x1="36.357143" x2="36.357143" xlink:href="#a" y1="6" y2="63.893143"/><filter id="c" color-interpolation-filters="sRGB" height="1.384" width="1.384" x="-.192" y="-.192"><feGaussianBlur stdDeviation="5.28"/></filter><linearGradient id="d" gradientUnits="userSpaceOnUse" x1="48" x2="48" xlink:href="#a" y1="20.220806" y2="138.66119"/><radialGradient id="e" cx="48" cy="90.171875" gradientTransform="matrix(1.1573129 0 0 .99590774 -7.551021 .197132)" gradientUnits="userSpaceOnUse" r="42" xlink:href="#a"/><clipPath id="f"><rect height="84" rx="6" width="84" x="6" y="6"/></clipPath><linearGradient id="g" gradientUnits="userSpaceOnUse" x1="48" x2="48" y1="90" y2="5.987717"><stop offset="0" stop-color="#5c8947"/><stop offset="1" stop-color="#99c376"/></linearGradient><linearGradient id="h" gradientUnits="userSpaceOnUse" x1="48" x2="48" y1="90" y2="5.987717"><stop offset="0" stop-color="#f3840c"/><stop offset="1" stop-color="#f2b80c"/></linearGradient><linearGradient id="i" gradientTransform="matrix(1.0058652 0 0 .994169 100 0)" gradientUnits="userSpaceOnUse" x1="45.447727" x2="45.447727" y1="92.539597" y2="7.01654"><stop offset="0"/><stop offset="1" stop-opacity=".588235"/></linearGradient><linearGradient id="j" gradientTransform="matrix(1.0238095 0 0 1.0119048 -1.142857 -98.071429)" gradientUnits="userSpaceOnUse" x1="32.251034" x2="32.251034" xlink:href="#i" y1="6.131708" y2="90.238609"/><linearGradient id="k" gradientTransform="translate(0 -97)" gradientUnits="userSpaceOnUse" x1="32.251034" x2="32.251034" xlink:href="#i" y1="6.131708" y2="90.238609"/><linearGradient id="l" gradientUnits="userSpaceOnUse" x1="44.27918287224" x2="45.272703641" y1="44.40179786555" y2="46.51855300373"><stop offset="0" stop-color="#d0d0d0"/><stop offset="1" stop-color="#b0b0b0" stop-opacity="0"/></linearGradient><linearGradient id="m" gradientUnits="userSpaceOnUse" x1="32.65802948838" x2="49.56672210984" y1="46.77240280276" y2="43.0700422314"><stop offset="0" stop-color="#d0d0d0"/><stop offset=".40000001" stop-color="#fefefe"/><stop offset=".69999999" stop-color="#fefefe"/><stop offset="1" stop-color="#d0d0d0"/></linearGradient><linearGradient id="n" gradientUnits="userSpaceOnUse" x1="24.4194415682" x2="79.56541346168" y1="22.12940110257" y2="47.89165551038"><stop offset="0" stop-color="#eeeeec"/><stop offset="1" stop-color="#eeeeec" stop-opacity="0"/></linearGradient><radialGradient id="o" cx="40" cy="40.301125" gradientTransform="matrix(1 0 0 1.0391132 0 -1.877432)" gradientUnits="userSpaceOnUse" r="26.875792"><stop offset="0" stop-color="#f4d7d7"/><stop offset="1" stop-color="#e9afaf"/></radialGradient><radialGradient id="p" cx="48" cy="48" gradientTransform="matrix(1.7161502 0 .00000001 1.7387599 -34.375213 -35.460475)" gradientUnits="userSpaceOnUse" r="42"><stop offset="0" stop-color="#e9ddaf"/><stop offset="1" stop-color="#e9ddaf" stop-opacity="0"/></radialGradient><g><g fill="url(#j)"><path d="m12-95.03125c-5.5110903 0-10.03125 4.52016-10.03125 10.03125v71c0 5.5110902 4.5201598 10.03125 10.03125 10.03125h72c5.51109 0 10.03125-4.5201597 10.03125-10.03125v-71c0-5.51109-4.52016-10.03125-10.03125-10.03125z" opacity=".08" transform="scale(1 -1)"/><path d="m12-94.03125c-4.971633 0-9.03125 4.059617-9.03125 9.03125v71c0 4.9716329 4.0596171 9.03125 9.03125 9.03125h72c4.971633 0 9.03125-4.059617 9.03125-9.03125v-71c0-4.971633-4.059617-9.03125-9.03125-9.03125z" opacity=".1" transform="scale(1 -1)"/><path d="m12-93c-4.4091333 0-8 3.590867-8 8v71c0 4.4091333 3.5908667 8 8 8h72c4.409133 0 8-3.5908667 8-8v-71c0-4.409133-3.590867-8-8-8z" opacity=".2" transform="scale(1 -1)"/><rect height="85" opacity=".3" rx="7" transform="scale(1 -1)" width="86" x="5" y="-92"/></g><rect fill="url(#k)" height="84" opacity=".45" rx="6" transform="scale(1 -1)" width="84" x="6" y="-91"/></g><rect fill="url(#h)" height="84" rx="6" width="84" x="6" y="6"/><rect fill="url(#g)" height="84" rx="6" width="84" x="6" y="6"/><path d="m12 6c-3.324 0-6 2.676-6 6v2 68 2c0 .334721.04135.6507.09375.96875.0487.295596.09704.596915.1875.875.00988.03038.020892.0636.03125.09375.098865.287771.2348802.547452.375.8125.1445918.273507.3156161.535615.5.78125s.3737765.473472.59375.6875c.439947.428056.94291.814526 1.5 1.09375.278545.139612.5734731.246947.875.34375-.2562018-.100222-.4867109-.236272-.71875-.375-.00741-.0044-.023866.0045-.03125 0-.031933-.0193-.062293-.04251-.09375-.0625-.120395-.0767-.2310226-.163513-.34375-.25-.1061728-.0808-.2132809-.161112-.3125-.25-.1779299-.161433-.3474596-.345388-.5-.53125-.1075789-.130255-.2183939-.265285-.3125-.40625-.025089-.03838-.038446-.08587-.0625-.125-.064763-.103032-.1302275-.204517-.1875-.3125-.1010083-.194706-.2056748-.415701-.28125-.625-.00796-.02181-.023589-.04055-.03125-.0625-.0318251-.09195-.0358045-.186831-.0625-.28125-.0303323-.106618-.0703894-.203031-.09375-.3125-.0728786-.341512-.125-.698205-.125-1.0625v-2-68-2c0-2.781848 2.2181517-5 5-5h2 68 2c2.781848 0 5 2.218152 5 5v2 68 2c0 .364295-.05212.720988-.125 1.0625-.04415.206893-.08838.397658-.15625.59375-.0077.02195-.0233.04069-.03125.0625-.06274.173739-.138383.367449-.21875.53125-.04158.0828-.07904.169954-.125.25-.0546.09721-.126774.18835-.1875.28125-.09411.140965-.204921.275995-.3125.40625-.143174.17445-.303141.346998-.46875.5-.01117.0102-.01998.02115-.03125.03125-.138386.125556-.285091.234436-.4375.34375-.102571.07315-.204318.153364-.3125.21875-.0074.0045-.02384-.0044-.03125 0-.232039.138728-.462548.274778-.71875.375.301527-.0968.596455-.204138.875-.34375.55709-.279224 1.060053-.665694 1.5-1.09375.219973-.214028.409366-.441865.59375-.6875s.355408-.507743.5-.78125c.14012-.265048.276135-.524729.375-.8125.01041-.03078.02133-.06274.03125-.09375.09046-.278085.1388-.579404.1875-.875.0524-.31805.09375-.634029.09375-.96875v-2-68-2c0-3.324-2.676-6-6-6z" fill="url(#b)" opacity=".5"/><path d="m12 90c-3.324 0-6-2.676-6-6v-2-68-2c0-.334721.04135-.6507.09375-.96875.0487-.295596.09704-.596915.1875-.875.00988-.03038.020892-.0636.03125-.09375.098865-.287771.2348802-.547452.375-.8125.1445918-.273507.3156161-.535615.5-.78125s.3737765-.473472.59375-.6875c.439947-.428056.94291-.814526 1.5-1.09375.278545-.139612.5734731-.246947.875-.34375-.2562018.100222-.4867109.236272-.71875.375-.00741.0044-.023866-.0045-.03125 0-.031933.0193-.062293.04251-.09375.0625-.120395.0767-.2310226.163513-.34375.25-.1061728.0808-.2132809.161112-.3125.25-.1779299.161433-.3474596.345388-.5.53125-.1075789.130255-.2183939.265285-.3125.40625-.025089.03838-.038446.08587-.0625.125-.064763.103032-.1302275.204517-.1875.3125-.1010083.194706-.2056748.415701-.28125.625-.00796.02181-.023589.04055-.03125.0625-.0318251.09195-.0358045.186831-.0625.28125-.0303323.106618-.0703894.203031-.09375.3125-.0728786.341512-.125.698205-.125 1.0625v2 68 2c0 2.781848 2.2181517 5 5 5h2 68 2c2.781848 0 5-2.218152 5-5v-2-68-2c0-.364295-.05212-.720988-.125-1.0625-.04415-.206893-.08838-.397658-.15625-.59375-.0077-.02195-.0233-.04069-.03125-.0625-.06274-.173739-.138383-.367449-.21875-.53125-.04158-.0828-.07904-.169954-.125-.25-.0546-.09721-.126774-.18835-.1875-.28125-.09411-.140965-.204921-.275995-.3125-.40625-.143174-.17445-.303141-.346998-.46875-.5-.01117-.0102-.01998-.02115-.03125-.03125-.138386-.125556-.285091-.234436-.4375-.34375-.102571-.07315-.204318-.153364-.3125-.21875-.0074-.0045-.02384.0044-.03125 0-.232039-.138728-.462548-.274778-.71875-.375.301527.0968.596455.204138.875.34375.55709.279224 1.060053.665694 1.5 1.09375.219973.214028.409366.441865.59375.6875s.355408.507743.5.78125c.14012.265048.276135.524729.375.8125.01041.03078.02133.06274.03125.09375.09046.278085.1388.579404.1875.875.0524.31805.09375.634029.09375.96875v2 68 2c0 3.324-2.676 6-6 6z" fill="url(#e)" opacity=".2"/><path d="m20.875 6 25.78125 40.65625-40.65625-26.15625v18.5l40.21875 9-40.21875 8.75v18.375l40.65625-25.78125-26.15625 40.65625h18.5l9-40.21875 8.75 40.21875h18.375l-25.78125-40.65625 40.65625 26.15625v-18.5l-40.21875-9 40.21875-8.75v-18.375l-40.65625 25.78125 26.15625-40.65625h-18.5l-9 40.21875-8.75-40.21875z" fill="url(#p)" opacity=".45"/><rect height="66" rx="12" style="opacity:.1;stroke:#fefefe;stroke-width:.5;stroke-linecap:round;clip-path:url(#f);fill:url(#d);filter:url(#c)" width="66" x="15" y="15"/><g fill-rule="evenodd"><path d="m42.5625 17.9375c-9.189682-.08049-18.368344 7.400939-18.46875 17a1.056579 1.056579 0 0 0 0 .03125c.138821 6.351246 2.050675 12.546658 3.90625 18.4375a1.056579 1.056579 0 0 0 0 .03125c2.727397 7.814508 5.747831 15.870959 11.03125 22.59375a1.056579 1.056579 0 0 0 .03125 0c1.670344 2.088035 4.367419 4.183636 7.4375 3.8125v.03125c.05455.000587.101886-.03085.15625-.03125 3.380483-.02466 6.368769-1.91494 8.28125-4.53125h.03125c.0046-.0063-.0046-.02497 0-.03125 1.966559-2.529348 3.500558-5.223429 5.15625-7.78125 2.634781 4.940344 6.307872 10.166481 12.5 11.21875a1.056579 1.056579 0 0 0 .03125 0c1.862475.276465 4.010974.29082 6-.3125 1.955138-.593041 3.775893-1.866533 4.71875-3.96875h.03125c.01102-.02133.02056-.0411.03125-.0625.0048-.0096-.0047-.02164 0-.03125.811108-1.648318.681772-3.508517-.0625-5-.754331-1.511642-2.100168-2.734234-3.75-3.3125-.0088-.0032-.02249.0032-.03125 0-2.628873-.974761-4.970001-2.646155-5.75-5.21875-1.718745-5.502883-3.564799-11.935704-8.875-15.71875a1.056579 1.056579 0 0 0 -.09375-.03125c-.747647-.446105-1.700604-.931358-2.78125-1.15625-1.011017-.210401-2.207055-.11256-3.1875.59375l-.03125-.03125c-.04791.02591-.07761.06737-.125.09375-.01935.01559-.04335.0151-.0625.03125-3.15487 1.777968-5.143642 4.563401-6.90625 7.40625 2.337076-5.499478 5.570571-11.272419 4.5625-17.9375h.03125c-.000725-.05164-.03011-.104494-.03125-.15625-.131554-5.980545-2.994791-12.752191-9.1875-15.03125-1.474228-.569576-3.027476-.82862-4.53125-.9375a1.056579 1.056579 0 0 0 -.0625 0z" opacity=".05"/><path d="m42.5625 19c-8.602548-.07535-17.318703 7.014992-17.411975 15.932031.134516 6.154287 1.993858 12.281785 3.8471 18.165221 2.721158 7.796633 5.719417 15.726701 10.870266 22.280806 1.555518 1.944495 4.101121 3.811149 6.632109 3.434442 3.052199.03282 5.850549-1.712894 7.622078-4.154996 2.258675-2.900116 3.972008-6.173665 6.065422-9.188754 2.628166 5.263808 6.345523 11.137029 12.629512 12.204909 3.478765.516387 8.064091-.03564 9.643157-3.72824 1.393288-2.697371-.446416-5.963331-3.206752-6.91753-2.818593-1.03939-5.502404-2.903251-6.416159-5.917001-1.721314-5.511107-3.549581-11.618377-8.488765-15.137106-1.371469-.818327-3.569583-1.751357-4.973493-.567532-4.724013 2.55443-6.836277 7.81768-9.787532 12.020726-.974102.512164.06815-3.16722.531775-4.246298 2.377005-6.131108 6.301696-12.254395 5.193257-19.118178-.079845-5.688491-2.841997-12.103974-8.537529-14.20006-1.344354-.519398-2.780679-.758772-4.212471-.86244zm2.21875 59.3125c.724121.643756.07982.267362 0 0z" opacity=".1"/><path d="m42.53125 20.09375c-1.313648-.03256-2.646392.137467-3.9375.46875-3.44764.884632-6.719169 2.936328-9.0625 5.71875-2.328437 2.764738-3.720696 6.353193-3.28125 10.15625-.01186-.158426-.01326-.144476 0 .03125.000679.009-.000689.02223 0 .03125.480734 6.289944 3.394561 16.304519 7.03125 24.9375 1.824644 4.331445 3.847944 8.26942 5.875 11.21875 1.013551 1.474698 2.019923 2.71191 3.09375 3.625 1.032494.877944 2.181871 1.474354 3.4375 1.5.04301.0049.01151.03107.0625.03125.0547.0068.02733.03257.09375.03125a.96110072.96110072 0 0 0 .375-.09375c1.788174.108145 3.437972-.429705 4.78125-1.46875 1.489706-1.15231 2.694019-2.733996 3.8125-4.4375 1.921985-2.92728 3.641881-6.120576 5.4375-8.4375.06541.114698.08628.121712.15625.25.663388 1.216386 1.559317 3.041142 2.71875 4.9375 1.159705 1.896802 2.581899 3.884856 4.4375 5.4375 1.844118 1.543036 4.179006 2.669174 6.90625 2.6875.01077.000072.02047-.000038.03125 0 .01052.000694.02073-.000668.03125 0 1.601314.101649 3.236712-.09132 4.625-.78125 1.450219-.720708 2.616619-2.159999 2.6875-4a.96110072.96110072 0 0 0 0-.03125c.01509-1.521355-.906288-2.670479-1.9375-3.3125-.970052-.603944-1.990695-.936993-3.03125-1.46875-2.102622-1.074506-4.303507-2.628816-5.75-7.78125-1.211146-4.314124-2.849554-7.571547-4.59375-9.8125-1.735052-2.229205-3.676283-3.611596-5.75-3.5625h-.03125-.0625a.96110072.96110072 0 0 0 -.40625.09375.96110072.96110072 0 0 0 -.03125 0l-.0625.03125v.03125c-1.472442.570239-2.674508 1.744942-3.84375 3.15625-1.199438 1.447755-2.351491 3.19123-3.4375 4.90625-1.083489 1.711041-2.108714 3.389335-2.96875 4.71875-.393129.607686-.589188.803682-.875 1.15625-.687246-1.015317-1.041117-2.062095-.9375-3.34375.150471-1.861204.976237-4.128068 2.0625-6.59375 2.108508-4.786053 5.062115-10.315942 4.0625-16.0625-.0018-.01052.0019-.02073 0-.03125a.96110072.96110072 0 0 0 0-.09375.96110072.96110072 0 0 0 .03125-.25c-.464758-5.635187-2.551544-9.447149-5.53125-11.5625-1.482292-1.052308-3.162749-1.677825-4.90625-1.90625-.434458-.05692-.873816-.114127-1.3125-.125z" opacity=".15"/><path d="m42.5 21.0625c-1.21559-.03013-2.441144.125718-3.65625.4375-3.240283.831426-6.354487 2.784501-8.5625 5.40625-2.201442 2.613947-3.48879 5.942222-3.0625 9.46875.000666.0089-.000676.02229 0 .03125.457792 6.066845 3.328916 16.089987 6.9375 24.65625 1.806958 4.28946 3.812776 8.198406 5.78125 11.0625.984237 1.432047 1.963926 2.609657 2.9375 3.4375.951637.80919 1.896854 1.277882 2.875 1.28125.02255.000078.03994.0317.0625.03125v-.03125c1.734607.25135 3.266929-.286184 4.59375-1.3125 1.343763-1.039421 2.499222-2.551728 3.59375-4.21875 2.136769-3.254407 4.063901-7.141207 6.28125-9.59375.03842.03245.06587.02376.125.09375.218536.258673.501671.747767.84375 1.375.684157 1.254467 1.558275 3.0593 2.6875 4.90625 1.129226 1.84695 2.515949 3.736561 4.25 5.1875 1.726535 1.44465 3.831604 2.460094 6.3125 2.46875.0108.000038.02044 0 .03125 0 1.49464.102332 2.992047-.0934 4.1875-.6875 1.203916-.598304 2.099688-1.687965 2.15625-3.15625.01152-1.161155-.633284-1.979848-1.46875-2.5s-1.857821-.86978-2.96875-1.4375c-2.221858-1.135439-4.743799-3.009883-6.25-8.375-1.184632-4.219682-2.762281-7.356569-4.40625-9.46875s-3.379707-3.237053-5-3.1875h-.09375l-.0625.03125c-1.225968.445415-2.376079 1.543176-3.53125 2.9375s-2.299814 3.083321-3.375 4.78125-2.094035 3.397894-2.96875 4.75c-.741404 1.146039-1.318203 1.835471-1.75 2.25-1.464435-1.49291-1.997258-3.132477-1.84375-5.03125.167797-2.075511 1.057863-4.413048 2.15625-6.90625 2.188476-4.96757 5.130698-10.505199 3.96875-15.96875h.03125c-.44862-5.439516-2.416625-8.952272-5.125-10.875-1.354187-.961364-2.874318-1.541105-4.46875-1.75-.398608-.052224-.813553-.083707-1.21875-.09375z" opacity=".3"/><path d="m27.704522 35.331718c.884801 11.890272 11.546048 40.162695 18.111756 40.030581 6.469551 1.012875 9.504137-10.12875 14.256205-15.193125 1.648397-.988633 5.00858 14.076821 14.457407 14.076821 2.873381.204838 5.746762-.779352 5.845747-3.348911.0398-4.011906-7.604291-1.208741-10.680943-12.167832-2.342376-8.343589-6.1628-12.383578-8.897401-12.299947-4.249065 1.543757-9.555042 13.524527-11.822396 15.068283-7.706658-6.784282 6.121287-18.19256 3.831309-28.676038-1.761522-21.358451-26.775129-11.009511-25.101684 2.510168z" fill="url(#o)" stroke="#d87070"/></g><path d="m29.025663 35.199604c.884802 11.890272 11.678163 38.709439 16.790615 38.709439 6.469551 1.012875 8.97568-12.506804 14.256205-15.193124 3.365881-1.384975 4.876466 14.07682 14.325293 14.07682 2.873381.204838 4.557735-.118787 4.524605-1.763541.436138-2.55865-6.815321-1.369803-10.416714-12.167833-2.738718-8.211475-4.973773-11.062435-7.708374-10.978804-4.249065 1.543756-7.837559 12.731842-11.822396 15.332511-10.481054-8.898109 4.800146-19.77793 2.510168-30.261408-1.100952-18.584054-23.208048-11.141625-22.459402 2.24594z" fill="none" stroke="url(#n)"/><path d="m50.725987 36.978459c-.532533.231872-1.064328.632293-1.557152.938298-4.140004 2.570611-10.999071 5.713431-16.036007 7.279896-.505728.157279-.569328.658356-.492071.997939.276625 1.215902 1.204143 2.796993 2.432764 4.102127s3.041667 2.30797 5.578341 2.336188c1.107034.01236 2.193154-.5356 3.255949-1.37044 1.062794-.834842 2.105013-1.987851 3.039805-3.32953 1.86958-2.683357 3.314919-5.909004 3.357122-9.390744.0056-.463737.267351-1.123382.421249-1.563734zm-2.017032 2.95257c-.357194 2.457616-1.51499 5.077412-2.966225 7.160329-.865825 1.242692-1.829335 2.296177-2.740883 3.012211s-1.769269 1.064029-2.336189 1.057723c-2.173166-.02417-3.514143-.802556-4.520617-1.87171-.805878-.856065-1.338492-1.907067-1.793532-2.915638 4.772469-1.378605 10.344365-4.022441 14.357446-6.442915z" fill="#571e00" fill-opacity=".322034"/><path d="m38.234295 26.570837c-2.158135.0726-4.16209.458638-5.598395 1.000231-.893718 1.240193-1.651171 2.752796-2.056423 4.625061-.737201-2.440447-.569936-4.763835.574929-6.808157 2.596877-.535959 5.426476.223159 7.079889 1.182865z"/><path d="m47.820025 25.638919c-1.821521-1.159694-3.692969-1.973664-5.184002-2.338515-1.438177.518128-2.917877 1.338003-4.310252 2.653635.770922-2.430006 2.221892-4.252309 4.321693-5.291929 2.445336 1.025351 4.35081 3.250671 5.172561 4.976809z"/><path d="m33.320496 45.909287c5.316643-1.392015 12.071623-4.680937 16.246399-7.373722-.06164 6.086747-5.559321 13.399481-8.907232 13.362242-4.709841-.05239-6.311051-3.56102-7.339167-5.98852z" fill="url(#m)"/><path d="m39.357686 36.133479c.449921-5.680402-2.241978 3.386291-4.127947 5.888544-1.325364-.05624-3.119327-2.739221-3.119327-5.888544 0-3.149325 1.623389-5.705301 3.623636-5.705301s3.623638 2.555976 3.623638 5.705301z" fill="#571e00" fill-opacity=".322034"/><path d="m46.469504 32.664046c0 2.936532-1.761551 5.319807-3.932032 5.319807s-3.932031-2.383275-3.932031-5.319807c0-2.936534 1.76155-5.319808 3.932031-5.319808s3.932032 2.383274 3.932032 5.319808z" fill="#571e00" fill-opacity=".322034"/><path d="m42.88959 27.689306c-1.905845.19359-3.404672 2.736145-3.646846 5.92785-.805537-1.729078-2.020141-2.821301-3.260548-2.690296-1.903462.201033-3.137728 3.180236-2.75468 6.64986.221932 2.01023.947049 3.725748 1.880909 4.791948 1.327016-1.071621 3.009694-1.989613 4.939108-2.658106.0384-.237959.07539-.479814.09658-.731208.103556.21697.232336.39032.349509.584047.89345-.286011 1.830314-.524822 2.809865-.694418 1.049003-.181621 2.076788-.271215 3.076595-.294324.495443-1.236822.77496-2.751605.712814-4.382653-.145152-3.809511-2.030291-6.72343-4.203301-6.5027z" fill="#fefefe"/><path d="m43.789483 34.521293a.94818856 1.8286495 0 0 1 -1.896377 0 .94818856 1.8286495 0 1 1 1.896377 0z"/><path d="m49.058463 41.816536c-.977746 1.401516-3.031387 2.467727-6.452112 4.125121 3.900869-.902124 3.82533-.02891 3.950366 1.273867.853044-1.293697 1.974533-3.318306 2.501746-5.398988zm-8.21805 4.865528c-3.618311 1.16454-5.210264 1.435446-6.723442.942754.77283 1.606649 2.015086 2.94133 3.426104 3.596259-.591955-1.315561-.589712-2.506812 3.297338-4.539013z" fill="url(#l)"/><path d="m37.725318 36.080017a.94818856 1.8286495 0 0 1 -1.896377 0 .94818856 1.8286495 0 1 1 1.896377 0z"/><path d="m60.59375 56.15625c-.183722-.000922-.391453.028784-.59375.0625-4.989988 1.348645-8.0692 14.03125-12.25 14.03125-7.590755.944803-12.8125-10.9375-12.8125-10.9375l-.375.40625c3.60736 8.595161 7.950836 15.722635 11.25 15.65625 6.469551 1.012875 9.497932-10.154375 14.25-15.21875 1.648397-.988633 5.019923 14.09375 14.46875 14.09375 2.612073.18621 5.222152-.610767 5.75-2.6875l-.71875-2.40625c-16.069951 3.135601-13.273354-12.971421-18.96875-13z" fill="#d35f5f" opacity=".15"/><path d="m60.59375 58.15625c-.183722-.000922-.391453.028784-.59375.0625-4.989988 1.348645-8.0692 14.03125-12.25 14.03125-4.69114.583895-8.479316-3.7118-10.6875-7.09375 2.987745 5.947241 6.18528 10.270357 8.75 10.21875 6.469551 1.012875 9.497932-10.154375 14.25-15.21875 1.648397-.988633 5.019923 14.09375 14.46875 14.09375 2.242716.159879 4.482737-.397703 5.40625-1.875l-.375-1.21875c-16.069951 3.135601-13.273354-12.971421-18.96875-13z" fill="#d35f5f" opacity=".3"/></svg>