<svg enable-background="new" height="96" width="96" xmlns="http://www.w3.org/2000/svg" xmlns:xlink="http://www.w3.org/1999/xlink"><linearGradient id="a"><stop offset="0" stop-color="#fefefe"/><stop offset="1" stop-color="#fefefe" stop-opacity="0"/></linearGradient><linearGradient id="b" gradientUnits="userSpaceOnUse" x1="36.357143" x2="36.357143" xlink:href="#a" y1="6" y2="63.893143"/><linearGradient id="c" gradientTransform="matrix(1.0058652 0 0 .994169 100 0)" gradientUnits="userSpaceOnUse" x1="45.447727" x2="45.447727" y1="92.539597" y2="7.01654"><stop offset="0"/><stop offset="1" stop-opacity=".588235"/></linearGradient><linearGradient id="d" gradientTransform="matrix(1.0238095 0 0 1.0119048 -1.142857 -98.071429)" gradientUnits="userSpaceOnUse" x1="32.251034" x2="32.251034" xlink:href="#c" y1="6.131708" y2="90.238609"/><linearGradient id="e" gradientTransform="translate(0 -97)" gradientUnits="userSpaceOnUse" x1="32.251034" x2="32.251034" xlink:href="#c" y1="6.131708" y2="90.238609"/><linearGradient id="f" gradientUnits="userSpaceOnUse" x1="48" x2="48" y1="90" y2="5.987717"><stop offset="0" stop-color="#383838"/><stop offset="1" stop-color="#797979"/></linearGradient><clipPath id="g"><rect height="38" rx="6" width="84" x="6" y="48"/></clipPath><linearGradient id="h" gradientUnits="userSpaceOnUse" x1="29" x2="29" y1="84" y2="68"><stop offset="0" stop-color="#ffdf60"/><stop offset="1" stop-color="#ffd917"/></linearGradient><linearGradient id="i"><stop offset="0" stop-color="#fefefe" stop-opacity="0"/><stop offset=".15000001" stop-color="#fefefe"/><stop offset=".69999999" stop-color="#fefefe"/><stop offset="1" stop-color="#fefefe" stop-opacity="0"/></linearGradient><linearGradient id="j" gradientTransform="matrix(.96211505 0 0 .87330444 -95.57031 -79.361014)" gradientUnits="userSpaceOnUse" x1="10" x2="69" xlink:href="#i" y1="11.5" y2="11.5"/><linearGradient id="k" gradientTransform="matrix(.4855183 0 0 .7255309 37.114939 -90.36289)" gradientUnits="userSpaceOnUse" x1="10" x2="69" xlink:href="#i" y1="11.5" y2="11.5"/><linearGradient id="l" gradientTransform="matrix(.87389375 0 0 .73044508 1.490766 -23.654619)" gradientUnits="userSpaceOnUse" x1="10" x2="69" xlink:href="#i" y1="11.5" y2="11.5"/><linearGradient id="m" gradientTransform="matrix(.86592537 0 0 .87330444 1.627466 5.60979)" gradientUnits="userSpaceOnUse" x1="10" x2="69" xlink:href="#i" y1="11.5" y2="11.5"/><g fill="url(#d)"><path d="m12-95.03125c-5.5110903 0-10.03125 4.52016-10.03125 10.03125v71c0 5.5110902 4.5201598 10.03125 10.03125 10.03125h72c5.51109 0 10.03125-4.5201597 10.03125-10.03125v-71c0-5.51109-4.52016-10.03125-10.03125-10.03125z" opacity=".08" transform="scale(1 -1)"/><path d="m12-94.03125c-4.971633 0-9.03125 4.059617-9.03125 9.03125v71c0 4.9716329 4.0596171 9.03125 9.03125 9.03125h72c4.971633 0 9.03125-4.059617 9.03125-9.03125v-71c0-4.971633-4.059617-9.03125-9.03125-9.03125z" opacity=".1" transform="scale(1 -1)"/><path d="m12-93c-4.4091333 0-8 3.590867-8 8v71c0 4.4091333 3.5908667 8 8 8h72c4.409133 0 8-3.5908667 8-8v-71c0-4.409133-3.590867-8-8-8z" opacity=".2" transform="scale(1 -1)"/><rect height="85" opacity=".3" rx="7" transform="scale(1 -1)" width="86" x="5" y="-92"/></g><rect fill="url(#e)" height="84" opacity=".45" rx="6" transform="scale(1 -1)" width="84" x="6" y="-91"/><rect fill="url(#f)" height="84" rx="6" width="84" x="6" y="6"/><path d="m12 6c-3.324 0-6 2.676-6 6v2 68 2c0 .334721.04135.6507.09375.96875.0487.295596.09704.596915.1875.875.00988.03038.020892.0636.03125.09375.098865.287771.2348802.547452.375.8125.1445918.273507.3156161.535615.5.78125s.3737765.473472.59375.6875c.439947.428056.94291.814526 1.5 1.09375.278545.139612.5734731.246947.875.34375-.2562018-.100222-.4867109-.236272-.71875-.375-.00741-.0044-.023866.0045-.03125 0-.031933-.0193-.062293-.04251-.09375-.0625-.120395-.0767-.2310226-.163513-.34375-.25-.1061728-.0808-.2132809-.161112-.3125-.25-.1779299-.161433-.3474596-.345388-.5-.53125-.1075789-.130255-.2183939-.265285-.3125-.40625-.025089-.03838-.038446-.08587-.0625-.125-.064763-.103032-.1302275-.204517-.1875-.3125-.1010083-.194706-.2056748-.415701-.28125-.625-.00796-.02181-.023589-.04055-.03125-.0625-.0318251-.09195-.0358045-.186831-.0625-.28125-.0303323-.106618-.0703894-.203031-.09375-.3125-.0728786-.341512-.125-.698205-.125-1.0625v-2-68-2c0-2.781848 2.2181517-5 5-5h2 68 2c2.781848 0 5 2.218152 5 5v2 68 2c0 .364295-.05212.720988-.125 1.0625-.04415.206893-.08838.397658-.15625.59375-.0077.02195-.0233.04069-.03125.0625-.06274.173739-.138383.367449-.21875.53125-.04158.0828-.07904.169954-.125.25-.0546.09721-.126774.18835-.1875.28125-.09411.140965-.204921.275995-.3125.40625-.143174.17445-.303141.346998-.46875.5-.01117.0102-.01998.02115-.03125.03125-.138386.125556-.285091.234436-.4375.34375-.102571.07315-.204318.153364-.3125.21875-.0074.0045-.02384-.0044-.03125 0-.232039.138728-.462548.274778-.71875.375.301527-.0968.596455-.204138.875-.34375.55709-.279224 1.060053-.665694 1.5-1.09375.219973-.214028.409366-.441865.59375-.6875s.355408-.507743.5-.78125c.14012-.265048.276135-.524729.375-.8125.01041-.03078.02133-.06274.03125-.09375.09046-.278085.1388-.579404.1875-.875.0524-.31805.09375-.634029.09375-.96875v-2-68-2c0-3.324-2.676-6-6-6z" fill="url(#b)" opacity=".25"/><g clip-path="url(#g)" transform="translate(-.050847 4.881356)"><path d="m12 68-8 16h12l8-16zm24 0-8 16h12l8-16zm24 0-8 16h12l8-16zm24 0-8 16h12l8-16z" fill="url(#h)"/></g><path d="m10.28672 15.216141h51.089596v.873304h-51.089596z" fill="url(#m)"/><path d="m10.229704-15.61972h51.559734v.730445h-51.559734z" fill="url(#l)" transform="rotate(90)"/><path d="m41.970123-82.382057h28.64558v.725531h-28.64558z" fill="url(#k)" transform="rotate(90)"/><path d="m-85.94915-69.754662h56.76479v.873304h-56.76479z" fill="url(#j)" transform="scale(-1)"/><g enable-background="new" fill="none" opacity=".1" stroke="#000"><path d="m42.958327 59.719974v3.152185h-1.357191q-5.450653 0-7.311318-1.619873-1.838775-1.619873-1.838775-6.457602v-5.231751q0-3.305417-1.182069-4.575047-1.18207-1.26963-4.290474-1.26963h-1.335301v-3.130295h1.335301q3.130295 0 4.290474-1.24774 1.182069-1.26963 1.182069-4.531266v-5.253642q0-4.837728 1.838775-6.435711 1.860665-1.619873 7.311318-1.619873h1.357191v3.130295h-1.488532q-3.086514 0-4.027792.963168-.941277.963167-.941277 4.049682v5.428763q0 3.436758-1.006948 4.99096-.985058 1.554202-3.392978 2.101457 2.42981.591034 3.414868 2.145237.985058 1.554202.985058 4.969069v5.428764q0 3.086514.941277 4.049682.941278.963168 4.027792.963168z"/><path d="m54.187987 59.719974h1.532313q3.064624 0 3.984011-.941278.941278-.941277.941278-4.071572v-5.428764q0-3.414867.985058-4.969069.985058-1.554203 3.414867-2.145237-2.429809-.547255-3.414867-2.101457-.985058-1.554202-.985058-4.99096v-5.428763q0-3.108405-.941278-4.049682-.919387-.963168-3.984011-.963168h-1.532313v-3.130295h1.379081q5.450654 0 7.267538 1.619873 1.838775 1.597983 1.838775 6.435711v5.253642q0 3.261636 1.182069 4.531266 1.18207 1.24774 4.290475 1.24774h1.35719v3.130295h-1.35719q-3.108405 0-4.290475 1.26963-1.182069 1.26963-1.182069 4.575047v5.231751q0 4.837729-1.838775 6.457602-1.816884 1.619873-7.267538 1.619873h-1.379081z"/></g><g enable-background="new" fill="none" opacity=".1" stroke="#000" stroke-width="2"><path d="m42.944917 59.745723v3.152185h-1.357191q-5.450654 0-7.311319-1.619873-1.838774-1.619873-1.838774-6.457601v-5.231752q0-3.305416-1.18207-4.575047-1.182069-1.26963-4.290474-1.26963h-1.335301v-3.130295h1.335301q3.130295 0 4.290474-1.24774 1.18207-1.26963 1.18207-4.531266v-5.253642q0-4.837728 1.838774-6.435711 1.860665-1.619873 7.311319-1.619873h1.357191v3.130295h-1.488532q-3.086515 0-4.027792.963168-.941278.963167-.941278 4.049682v5.428763q0 3.436758-1.006948 4.99096-.985058 1.554203-3.392977 2.101457 2.429809.591035 3.414867 2.145237.985058 1.554202.985058 4.96907v5.428763q0 3.086515.941278 4.049682.941277.963168 4.027792.963168z"/><path d="m54.174577 59.745723h1.532312q3.064624 0 3.984012-.941278.941277-.941277.941277-4.071572v-5.428763q0-3.414868.985058-4.96907.985058-1.554202 3.414867-2.145237-2.429809-.547254-3.414867-2.101457-.985058-1.554202-.985058-4.99096v-5.428763q0-3.108405-.941277-4.049682-.919388-.963168-3.984012-.963168h-1.532312v-3.130295h1.379081q5.450653 0 7.267538 1.619873 1.838774 1.597983 1.838774 6.435711v5.253642q0 3.261636 1.18207 4.531266 1.182069 1.24774 4.290474 1.24774h1.357191v3.130295h-1.357191q-3.108405 0-4.290474 1.26963-1.18207 1.269631-1.18207 4.575047v5.231752q0 4.837728-1.838774 6.457601-1.816885 1.619873-7.267538 1.619873h-1.379081z"/></g><g enable-background="new" fill="none" opacity=".1" stroke="#000" stroke-width="3"><path d="m42.941474 59.732173v3.152185h-1.357191q-5.450654 0-7.311318-1.619873-1.838775-1.619873-1.838775-6.457601v-5.231752q0-3.305416-1.182069-4.575046-1.18207-1.26963-4.290475-1.26963h-1.3353v-3.130295h1.3353q3.130295 0 4.290475-1.24774 1.182069-1.26963 1.182069-4.531267v-5.253641q0-4.837729 1.838775-6.435712 1.860664-1.619873 7.311318-1.619873h1.357191v3.130295h-1.488532q-3.086515 0-4.027792.963168-.941278.963168-.941278 4.049682v5.428764q0 3.436757-1.006948 4.990959-.985058 1.554203-3.392977 2.101457 2.42981.591035 3.414867 2.145237.985058 1.554203.985058 4.96907v5.428763q0 3.086515.941278 4.049682.941277.963168 4.027792.963168z"/><path d="m54.171134 59.732173h1.532312q3.064625 0 3.984012-.941277.941278-.941278.941278-4.071573v-5.428763q0-3.414867.985057-4.96907.985058-1.554202 3.414868-2.145237-2.42981-.547254-3.414868-2.101457-.985057-1.554202-.985057-4.990959v-5.428764q0-3.108405-.941278-4.049682-.919387-.963168-3.984012-.963168h-1.532312v-3.130295h1.379081q5.450653 0 7.267538 1.619873 1.838775 1.597983 1.838775 6.435712v5.253641q0 3.261637 1.182069 4.531267 1.182069 1.24774 4.290474 1.24774h1.357191v3.130295h-1.357191q-3.108405 0-4.290474 1.26963-1.182069 1.26963-1.182069 4.575046v5.231752q0 4.837728-1.838775 6.457601-1.816885 1.619873-7.267538 1.619873h-1.379081z"/></g><g fill="#fff" stroke-width="1.120777"><path d="m42.951669 59.73624v3.152185h-1.357191q-5.450654 0-7.311319-1.619873-1.838774-1.619873-1.838774-6.457602v-5.231751q0-3.305417-1.18207-4.575047-1.182069-1.26963-4.290474-1.26963h-1.335301v-3.130295h1.335301q3.130295 0 4.290474-1.24774 1.18207-1.26963 1.18207-4.531266v-5.253642q0-4.837729 1.838774-6.435711 1.860665-1.619873 7.311319-1.619873h1.357191v3.130295h-1.488532q-3.086515 0-4.027792.963167-.941278.963168-.941278 4.049683v5.428763q0 3.436757-1.006948 4.99096-.985058 1.554202-3.392977 2.101457 2.429809.591034 3.414867 2.145237.985058 1.554202.985058 4.969069v5.428764q0 3.086514.941278 4.049682.941277.963168 4.027792.963168z"/><path d="m54.181329 59.73624h1.532312q3.064624 0 3.984012-.941278.941277-.941277.941277-4.071572v-5.428764q0-3.414867.985058-4.969069.985058-1.554203 3.414867-2.145237-2.429809-.547255-3.414867-2.101457-.985058-1.554203-.985058-4.99096v-5.428763q0-3.108405-.941277-4.049683-.919388-.963167-3.984012-.963167h-1.532312v-3.130295h1.379081q5.450653 0 7.267538 1.619873 1.838774 1.597982 1.838774 6.435711v5.253642q0 3.261636 1.18207 4.531266 1.182069 1.24774 4.290474 1.24774h1.357191v3.130295h-1.357191q-3.108405 0-4.290474 1.26963-1.18207 1.26963-1.18207 4.575047v5.231751q0 4.837729-1.838774 6.457602-1.816885 1.619873-7.267538 1.619873h-1.379081z"/></g></svg>