<svg height="96" width="96" xmlns="http://www.w3.org/2000/svg" xmlns:xlink="http://www.w3.org/1999/xlink"><linearGradient id="a"><stop offset="0" stop-color="#676767"/><stop offset="1" stop-color="#282828"/></linearGradient><linearGradient id="b" gradientTransform="matrix(1.0058652 0 0 .994169 100 0)" gradientUnits="userSpaceOnUse" x1="45.447727" x2="45.447727" y1="92.539597" y2="7.01654"><stop offset="0"/><stop offset="1" stop-opacity=".588235"/></linearGradient><linearGradient id="c"><stop offset="0" stop-color="#fefefe"/><stop offset="1" stop-color="#fefefe" stop-opacity="0"/></linearGradient><linearGradient id="d" gradientUnits="userSpaceOnUse" x1="36.357143" x2="36.357143" xlink:href="#c" y1="6" y2="63.893143"/><filter id="e" color-interpolation-filters="sRGB" height="1.384" width="1.384" x="-.192" y="-.192"><feGaussianBlur stdDeviation="5.28"/></filter><linearGradient id="f" gradientUnits="userSpaceOnUse" x1="48" x2="48" xlink:href="#c" y1="20.220806" y2="138.66119"/><radialGradient id="g" cx="48" cy="90.171875" gradientTransform="matrix(1.1573129 0 0 .99590774 -7.551021 .197132)" gradientUnits="userSpaceOnUse" r="42" xlink:href="#c"/><clipPath id="h"><rect height="84" rx="6" width="84" x="6" y="6"/></clipPath><linearGradient gradientUnits="userSpaceOnUse" x1="48" x2="48" y1="90" y2="5.987717"><stop offset="0" stop-color="#70a83e"/><stop offset="1" stop-color="#9fd058"/></linearGradient><clipPath id="i"><rect height="84" rx="6" width="84" x="6" y="6"/></clipPath><linearGradient id="j" gradientUnits="userSpaceOnUse" x1="48" x2="48" y1="90" y2="5.987717"><stop offset="0" stop-color="#ff7612"/><stop offset="1" stop-color="#ffc149"/></linearGradient><linearGradient id="k" gradientTransform="translate(0 -97)" gradientUnits="userSpaceOnUse" x1="32.251034" x2="32.251034" xlink:href="#b" y1="6.131708" y2="90.238609"/><linearGradient id="l" gradientTransform="matrix(1.0238095 0 0 1.0119048 -1.142857 -98.071429)" gradientUnits="userSpaceOnUse" x1="32.251034" x2="32.251034" xlink:href="#b" y1="6.131708" y2="90.238609"/><linearGradient id="m" gradientUnits="userSpaceOnUse" x1="45" x2="51" xlink:href="#a" y1="28.878111" y2="28.878111"/><linearGradient id="n" gradientTransform="matrix(1 0 0 -1 0 96)" gradientUnits="userSpaceOnUse" x1="45" x2="51" xlink:href="#a" y1="28.878111" y2="28.878111"/><linearGradient id="o" gradientTransform="matrix(0 1 -1 0 95.927112 .072888)" gradientUnits="userSpaceOnUse" x1="45" x2="51" xlink:href="#a" y1="28.878111" y2="28.878111"/><radialGradient id="p" cx="37.5" cy="37.5" gradientUnits="userSpaceOnUse" r="8"><stop offset="0" stop-color="#fefefe"/><stop offset=".26277161" stop-color="#828282"/><stop offset=".49462891" stop-color="#555"/><stop offset=".74731445" stop-color="#3d3d3d"/><stop offset="1" stop-color="#242424"/></radialGradient><radialGradient id="q" cx="48" cy="48" gradientUnits="userSpaceOnUse" r="3" xlink:href="#a"/><radialGradient id="r" cx="35.355156" cy="47.746105" gradientTransform="matrix(2.0070362 -.00000031 .00000023 1.4609398 -35.348992 -22.262273)" gradientUnits="userSpaceOnUse" r="3.531846" xlink:href="#a"/><linearGradient id="s" gradientUnits="userSpaceOnUse" x1="45" x2="51" y1="48" y2="48"><stop offset="0" stop-color="#fefefe"/><stop offset=".5" stop-color="#fefefe" stop-opacity="0"/><stop offset="1" stop-color="#fefefe" stop-opacity="0"/></linearGradient><radialGradient id="t" cx="35.355156" cy="47.746105" gradientTransform="matrix(-.00000039 -2.5087953 1.8261748 -.00000028 -39.677785 152.12729)" gradientUnits="userSpaceOnUse" r="3.531846" xlink:href="#a"/><radialGradient id="u" cx="35.355156" cy="47.746105" gradientTransform="matrix(-2.5087953 -.00000039 -.00000028 1.8261748 152.27735 -39.827841)" gradientUnits="userSpaceOnUse" r="3.531846" xlink:href="#a"/><g fill="url(#l)"><path d="m12-95.03125c-5.5110903 0-10.03125 4.52016-10.03125 10.03125v71c0 5.5110902 4.5201598 10.03125 10.03125 10.03125h72c5.51109 0 10.03125-4.5201597 10.03125-10.03125v-71c0-5.51109-4.52016-10.03125-10.03125-10.03125z" opacity=".08" transform="scale(1 -1)"/><path d="m12-94.03125c-4.971633 0-9.03125 4.059617-9.03125 9.03125v71c0 4.9716329 4.0596171 9.03125 9.03125 9.03125h72c4.971633 0 9.03125-4.059617 9.03125-9.03125v-71c0-4.971633-4.059617-9.03125-9.03125-9.03125z" opacity=".1" transform="scale(1 -1)"/><path d="m12-93c-4.4091333 0-8 3.590867-8 8v71c0 4.4091333 3.5908667 8 8 8h72c4.409133 0 8-3.5908667 8-8v-71c0-4.409133-3.590867-8-8-8z" opacity=".2" transform="scale(1 -1)"/><rect height="85" opacity=".3" rx="7" transform="scale(1 -1)" width="86" x="5" y="-92"/></g><rect fill="url(#k)" height="84" opacity=".45" rx="6" transform="scale(1 -1)" width="84" x="6" y="-91"/><rect fill="url(#j)" height="84" rx="6" width="84" x="6" y="6"/><path d="m12 6c-3.324 0-6 2.676-6 6v2 68 2c0 .334721.04135.6507.09375.96875.0487.295596.09704.596915.1875.875.00988.03038.020892.0636.03125.09375.098865.287771.2348802.547452.375.8125.1445918.273507.3156161.535615.5.78125s.3737765.473472.59375.6875c.439947.428056.94291.814526 1.5 1.09375.278545.139612.5734731.246947.875.34375-.2562018-.100222-.4867109-.236272-.71875-.375-.00741-.0044-.023866.0045-.03125 0-.031933-.0193-.062293-.04251-.09375-.0625-.120395-.0767-.2310226-.163513-.34375-.25-.1061728-.0808-.2132809-.161112-.3125-.25-.1779299-.161433-.3474596-.345388-.5-.53125-.1075789-.130255-.2183939-.265285-.3125-.40625-.025089-.03838-.038446-.08587-.0625-.125-.064763-.103032-.1302275-.204517-.1875-.3125-.1010083-.194706-.2056748-.415701-.28125-.625-.00796-.02181-.023589-.04055-.03125-.0625-.0318251-.09195-.0358045-.186831-.0625-.28125-.0303323-.106618-.0703894-.203031-.09375-.3125-.0728786-.341512-.125-.698205-.125-1.0625v-2-68-2c0-2.781848 2.2181517-5 5-5h2 68 2c2.781848 0 5 2.218152 5 5v2 68 2c0 .364295-.05212.720988-.125 1.0625-.04415.206893-.08838.397658-.15625.59375-.0077.02195-.0233.04069-.03125.0625-.06274.173739-.138383.367449-.21875.53125-.04158.0828-.07904.169954-.125.25-.0546.09721-.126774.18835-.1875.28125-.09411.140965-.204921.275995-.3125.40625-.143174.17445-.303141.346998-.46875.5-.01117.0102-.01998.02115-.03125.03125-.138386.125556-.285091.234436-.4375.34375-.102571.07315-.204318.153364-.3125.21875-.0074.0045-.02384-.0044-.03125 0-.232039.138728-.462548.274778-.71875.375.301527-.0968.596455-.204138.875-.34375.55709-.279224 1.060053-.665694 1.5-1.09375.219973-.214028.409366-.441865.59375-.6875s.355408-.507743.5-.78125c.14012-.265048.276135-.524729.375-.8125.01041-.03078.02133-.06274.03125-.09375.09046-.278085.1388-.579404.1875-.875.0524-.31805.09375-.634029.09375-.96875v-2-68-2c0-3.324-2.676-6-6-6z" fill="url(#d)" opacity=".4"/><path d="m12 90c-3.324 0-6-2.676-6-6v-2-68-2c0-.334721.04135-.6507.09375-.96875.0487-.295596.09704-.596915.1875-.875.00988-.03038.020892-.0636.03125-.09375.098865-.287771.2348802-.547452.375-.8125.1445918-.273507.3156161-.535615.5-.78125s.3737765-.473472.59375-.6875c.439947-.428056.94291-.814526 1.5-1.09375.278545-.139612.5734731-.246947.875-.34375-.2562018.100222-.4867109.236272-.71875.375-.00741.0044-.023866-.0045-.03125 0-.031933.0193-.062293.04251-.09375.0625-.120395.0767-.2310226.163513-.34375.25-.1061728.0808-.2132809.161112-.3125.25-.1779299.161433-.3474596.345388-.5.53125-.1075789.130255-.2183939.265285-.3125.40625-.025089.03838-.038446.08587-.0625.125-.064763.103032-.1302275.204517-.1875.3125-.1010083.194706-.2056748.415701-.28125.625-.00796.02181-.023589.04055-.03125.0625-.0318251.09195-.0358045.186831-.0625.28125-.0303323.106618-.0703894.203031-.09375.3125-.0728786.341512-.125.698205-.125 1.0625v2 68 2c0 2.781848 2.2181517 5 5 5h2 68 2c2.781848 0 5-2.218152 5-5v-2-68-2c0-.364295-.05212-.720988-.125-1.0625-.04415-.206893-.08838-.397658-.15625-.59375-.0077-.02195-.0233-.04069-.03125-.0625-.06274-.173739-.138383-.367449-.21875-.53125-.04158-.0828-.07904-.169954-.125-.25-.0546-.09721-.126774-.18835-.1875-.28125-.09411-.140965-.204921-.275995-.3125-.40625-.143174-.17445-.303141-.346998-.46875-.5-.01117-.0102-.01998-.02115-.03125-.03125-.138386-.125556-.285091-.234436-.4375-.34375-.102571-.07315-.204318-.153364-.3125-.21875-.0074-.0045-.02384.0044-.03125 0-.232039-.138728-.462548-.274778-.71875-.375.301527.0968.596455.204138.875.34375.55709.279224 1.060053.665694 1.5 1.09375.219973.214028.409366.441865.59375.6875s.355408.507743.5.78125c.14012.265048.276135.524729.375.8125.01041.03078.02133.06274.03125.09375.09046.278085.1388.579404.1875.875.0524.31805.09375.634029.09375.96875v2 68 2c0 3.324-2.676 6-6 6z" fill="url(#g)" opacity=".2"/><g clip-path="url(#i)" fill="#f00" opacity=".9"><path d="m48 48 24-56h16z" opacity=".15"/><path d="m48 48 55.25122 25.67688-.48222 15.992731z" opacity=".15"/><path d="m48 47.999999-59.82794 11.515948-8.968813-13.24992z" opacity=".15"/><path d="m48 48-49.3111997-35.782748 3.5360521-15.6043688z" opacity=".15"/><path d="m48 48 17.519239-62.073153 30.435955 12.7142695z" opacity=".15"/><path d="m48 48 61.6356-19.001391 5.8539 32.461237z" opacity=".15"/><path d="m48 48-31.245933 56.42421-26.7233121-19.335577z" opacity=".15"/><path d="m48 48-62.811967-14.651165 11.3036334-30.9875428z" opacity=".15"/><path d="m48 48 45.809637 45.403493-3.691734 9.021517z" opacity=".15"/><path d="m48 48-2.970052 64.42964-9.168463 3.30998z" opacity=".15"/><path d="m48 48-44.8594211 46.342551-9.0644809-3.58495z" opacity=".15"/><path d="m48 47.999999-62.116138 17.366205-6.01593-7.669763z" opacity=".15"/><path d="m48.000001 47.999998-29.146629-57.5367157 6.349274-7.3961743z" opacity=".15"/><path d="m48.000003 48.000001 59.481677-24.938521 6.921 6.864135z" opacity=".15"/><path d="m47.999999 47.999999 40.186744 45.793287-6.896299 14.437484z" opacity=".15"/><path d="m48.000001 48-35.957968-49.1835747 8.152103-13.7674653z" opacity=".15"/></g><rect height="66" rx="12" style="opacity:.1;stroke:#fefefe;stroke-width:.5;stroke-linecap:round;clip-path:url(#h);fill:url(#f);filter:url(#e)" width="66" x="15" y="15"/><path d="m47.625 16.03125c-1.342749.262313-2.087683 1.363767-2.4375 2.3125s-.50661 1.862684-.75 2.375a.98517637.98517637 0 0 0 -.0625.125l-2.03125 6.09375c-1.025751.261935-2.018084.688307-2.6875.90625-.419843.136689-.71814.138386-.90625.09375-.18811-.04464-.346277-.120301-.625-.5625a.98517637.98517637 0 0 0 -.28125-.28125c-.544824-.385931-1.089805-1.002901-1.75-1.625s-1.475234-1.269891-2.5625-1.53125a.98517637.98517637 0 0 0 -.09375 0c-1.200057-.135165-2.279793.522904-2.8125 1.40625-.495659.821912-.582385 1.848284-.21875 2.8125h-.03125l.0625.21875 1.03125 5.125c-.240658.464195-.453587.55686-.8125.59375-.424454.04363-1.144252-.09441-1.96875-.3125a.98517637.98517637 0 0 0 -.125-.03125c-.586875-.07864-1.503046-.429903-2.53125-.53125-.514102-.05067-1.09169-.02676-1.65625.1875-.56456.214261-1.084679.646338-1.4375 1.25a.98517637.98517637 0 0 0 -.03125.03125c-.330766.617755-.420698 1.311044-.3125 1.90625s.381598 1.077511.6875 1.5c.611804.844978 1.377957 1.488565 1.75 1.96875a.98517637.98517637 0 0 0 .15625.15625c.688388.566872 1.066195 1.100774 1.1875 1.5625.103976.395765-.05258.88378-.375 1.5-3.09399 1.068791-6.291185 2.038706-9.40625 3.25a.98517637.98517637 0 0 0 -.15625.0625c-2.313923 1.389983-1.377359 4.985707 1.15625 5.40625l-.03125.0625 8.53125 2.8125c.258648.978914.623977 1.92846.8125 2.5625.118516.398592.141856.66206.09375.84375-.04811.18169-.135468.355349-.5625.625a.98517637.98517637 0 0 0 -.28125.28125c-.787851 1.115642-2.648406 2.163547-3.1875 4.34375a.98517637.98517637 0 0 0 0 .125c-.135083 1.200027.522939 2.280089 1.40625 2.8125.82188.495384 1.848536.581422 2.8125.21875v.03125l.21875-.0625 5.15625-1.03125c.40786.208607.508195.371338.53125.71875.02787.419983-.177774 1.174675-.375 2a.98517637.98517637 0 0 0 0 .09375c-.07864.586875-.429903 1.503046-.53125 2.53125-.05067.514102-.02676 1.09169.1875 1.65625.214261.56456.646338 1.084679 1.25 1.4375a.98517637.98517637 0 0 0 .03125.03125c.615771.329366 1.312565.417093 1.90625.3125s1.077372-.385571 1.5-.6875c.845257-.603858 1.485301-1.348797 1.96875-1.71875a.98517637.98517637 0 0 0 .15625-.15625c.56738-.700352 1.093014-1.077931 1.5625-1.1875.405158-.09456.92697.09596 1.5625.4375 1.058595 3.061662 2.016113 6.228153 3.21875 9.3125a.98517637.98517637 0 0 0 .0625.15625c1.390247 2.313201 4.982859 1.375453 5.40625-1.15625l.0625.03125 2.8125-8.375c1.011378-.264732 1.993495-.690479 2.65625-.90625.420056-.136756.718645-.138391.90625-.09375.187605.04464.347075.119838.625.5625a.98517637.98517637 0 0 0 .28125.28125c.521452.354609 1.082222 1.004709 1.78125 1.65625s1.645484 1.323144 2.875 1.375a.98517637.98517637 0 0 0 .0625 0c1.168148-.05094 2.098059-.815663 2.5-1.71875.370924-.833399.389283-1.781517.0625-2.65625l-.0625-.21875-.9375-4.6875c.237475-.415187.448778-.534838.8125-.5625.437543-.03328 1.143359.171843 1.96875.375a.98517637.98517637 0 0 0 .09375 0c.586541.0871 1.499216.39663 2.5.46875.500392.03606 1.050759.003 1.59375-.21875.542991-.221757 1.039426-.631776 1.375-1.21875a.98517637.98517637 0 0 0 .03125-.03125c.330927-.617762.420214-1.310825.3125-1.90625s-.381622-1.077132-.6875-1.5c-.611756-.845735-1.375473-1.488158-1.75-1.96875a.98517637.98517637 0 0 0 -.09375-.09375c-.538897-.534061-.982461-1.033211-1.125-1.34375s-.203569-.392659.21875-.9375a.98517637.98517637 0 0 0 .21875-.59375c-.000157-.212989-.003-.212792.03125-.25.0342-.03721.17594-.10744.40625-.1875.433254-.150608 1.177155-.260668 1.9375-.625v.03125c.0414-.0154.08343-.04727.125-.0625 2.224565-.815257 4.675794-1.383524 7-2.46875a.98517637.98517637 0 0 0 .15625-.09375c2.126654-1.503288 1.092374-4.86465-1.34375-5.28125l.03125-.0625-8.25-2.75c-.241786-1.085524-.673744-2.038077-.90625-2.75-.142867-.437453-.17028-.766835-.125-.96875s.115994-.370997.5625-.65625a.98517637.98517637 0 0 0 .28125-.28125c.349174-.517212.986767-1.085113 1.625-1.78125s1.295964-1.627731 1.34375-2.84375a.98517637.98517637 0 0 0 0-.0625c-.05089-1.168133-.815576-2.09769-1.71875-2.5-.83348-.371265-1.781122-.390417-2.65625-.0625-.07318.02742-.146824.02996-.21875.0625l-4.65625.9375c-.464312-.249702-.586492-.44842-.625-.8125-.04554-.430564.09235-1.175405.3125-2a.98517637.98517637 0 0 0 .03125-.09375c.08554-.586095.41513-1.521147.5-2.53125.04243-.505051.03117-1.042691-.1875-1.59375-.218669-.551059-.656823-1.064863-1.25-1.40625a.98517637.98517637 0 0 0 -.03125-.03125c-.617752-.330651-1.311201-.421044-1.90625-.3125s-1.077782.381581-1.5.6875c-.844436.611838-1.488861 1.379728-1.96875 1.75a.98517637.98517637 0 0 0 -.1875.1875c-.528959.697722-.973006.957625-1.4375 1.03125-.395591.0627-.954262-.125963-1.59375-.4375-1.090397-3.107694-1.996381-6.354181-3.3125-9.5a.98517637.98517637 0 0 0 -.125-.21875c-.647301-.867507-1.702513-1.274642-2.75-1.15625a.98517637.98517637 0 0 0 -.0625 0z" opacity=".05"/><path d="m47.8125 17a.99425786.99425786 0 0 0 -.0625.03125c-.000161.000028-.124842.03121-.125.03125-.000158.000039-.124845.0312-.125.03125s-.124848.03119-.125.03125c-.000152.000061-.124853.06243-.125.0625-.000147.000071-.124858.06242-.125.0625-.000142.000081-.124864.06241-.125.0625s-.09362.09365-.09375.09375c-.00013.000099-.124877.09364-.125.09375-.000123.000108-.09363.09363-.09375.09375-.000115.000116-.09364.09363-.09375.09375-.000107.000124-.0624.09362-.0625.09375-.000098.000131-.09366.124863-.09375.125-.000089.000137-.06242.124857-.0625.125-.000079.000143-.06243.0936-.0625.09375-.000069.000148-.06244.124848-.0625.125-.000048.000123-.01995.09272-.03125.125-.0027.0077.000009.03122 0 .03125l-3.09375 9.28125c-1.513316.357535-2.975899.88299-4.34375 1.53125l-4.34375-3.84375a.99425786.99425786 0 0 0 -.03125-.03125c-.00014-.000115-.124852-.0624-.125-.0625-.000148-.000104-.124844-.09366-.125-.09375-.000156-.000093-.124838-.06242-.125-.0625-.000162-.000081-.124832-.06243-.125-.0625-.000168-.000068-.156077-.06245-.15625-.0625-.000173-.000055-.156074-.03121-.15625-.03125-.000176-.000042-.124821-.03122-.125-.03125-.000179-.000029-.156069-.03123-.15625-.03125-.000181-.000015-.156069.000001-.15625 0s-.156069-.000012-.15625 0-.156071.03122-.15625.03125c-.000179.000026-.124823-.00004-.125 0s-.156077.06245-.15625.0625c-.000173.000053-.156081.03118-.15625.03125-.000169.000066-.124837.06242-.125.0625-.000163.000078-.124843.06241-.125.0625-.000157.000091-.12485.09365-.125.09375-.00015.000102-.124859.09364-.125.09375-.000141.000113-.124867.09363-.125.09375-.000133.000124-.09363.09362-.09375.09375-.000123.000133-.124888.124858-.125.125s-.0624.12485-.0625.125c-.000101.00015-.09366.124842-.09375.125s-.06242.124836-.0625.125c-.000077.000164-.06244.156081-.0625.15625-.000065.000169-.06245.156076-.0625.15625-.000052.000174-.03121.124823-.03125.125-.000038.000177-.03122.15607-.03125.15625-.000025.00018.000011.156069 0 .15625s-.000003.156069 0 .15625-.000016.12482 0 .125.03122.156071.03125.15625a.99425786.99425786 0 0 0 0 .03125l1.3125 6.40625c-.496422.50228-.957967 1.043015-1.40625 1.59375l-5.21875-1.0625a.99425786.99425786 0 0 0 -.03125 0c-.000179-.00003-.15607-.03123-.15625-.03125-.00018-.000016-.124819.000003-.125 0s-.156069-.000011-.15625 0-.15607-.000025-.15625 0-.156073.03121-.15625.03125c-.000177.000038-.124826.0312-.125.03125-.000174.000052-.156081.06244-.15625.0625-.000169.000065-.156086.06242-.15625.0625-.000164.000077-.124842.06241-.125.0625s-.12485.09365-.125.09375c-.00015.000101-.124858.06239-.125.0625-.000142.000112-.124867.124877-.125.125s-.09363.09362-.09375.09375c-.000124.000133-.09364.124859-.09375.125-.000113.000141-.09365.12485-.09375.125-.000102.00015-.09366.124843-.09375.125-.000091.000157-.06242.124837-.0625.125-.000078.000163-.06243.124831-.0625.125-.000066.000169-.0312.156077-.03125.15625-.000053.000173-.06246.156073-.0625.15625s.000026.124821 0 .125-.03124.156069-.03125.15625c-.000012.000181-.000001.156069 0 .15625s-.000015.156069 0 .15625.03122.156071.03125.15625c.000029.000179.03121.124824.03125.125.000042.000176.0312.156077.03125.15625.000055.000173.06243.156082.0625.15625.000068.000168.06242.124838.0625.125.000081.000162.06241.124844.0625.125.000093.000156.09365.124852.09375.125.000104.000148.06238.12486.0625.125a.99425786.99425786 0 0 0 .03125.03125l3.5625 4c-.316253.842588-.566627 1.725429-.78125 2.625l-9.40625 3.15625a.99425786.99425786 0 0 0 -.03125 0c-.000169.000064-.156086.06242-.15625.0625-.000164.000076-.124842.06241-.125.0625-.000158.000088-.124849.09365-.125.09375s-.124857.09364-.125.09375c-.000143.000111-.124866.09363-.125.09375-.000134.000122-.09363.09362-.09375.09375-.000124.000132-.09364.124859-.09375.125-.000114.000141-.09365.124851-.09375.125-.000103.000149-.09366.124844-.09375.125-.000092.000156-.06242.124837-.0625.125-.000079.000163-.06243.124832-.0625.125-.000067.000168-.06245.156077-.0625.15625-.000054.000173-.03121.156074-.03125.15625-.000041.000176-.03122.124821-.03125.125-.000027.000179.000014.15607 0 .15625s-.03125.156069-.03125.15625.03124.15607.03125.15625c.000014.00018-.000027.156071 0 .15625s.03121.124824.03125.125c.000041.000176.0312.156077.03125.15625.000054.000173.06243.156082.0625.15625.000067.000168.06242.124837.0625.125.000079.000163.06241.124844.0625.125.000092.000156.09365.124851.09375.125.000103.000149.09364.124859.09375.125.000114.000141.09363.124868.09375.125.000124.000132.09362.09363.09375.09375.000134.000122.124857.09364.125.09375.000143.000111.124849.09365.125.09375s.124842.09366.125.09375c.000158.000088.124836.06242.125.0625.000164.000076.156081.06244.15625.0625a.99425786.99425786 0 0 0 .03125 0l9.46875 3.125c.343344 1.441451.82301 2.833864 1.4375 4.15625l-3.875 4.40625a.99425786.99425786 0 0 0 -.03125.03125c-.000115.00014-.0624.124852-.0625.125-.000104.000148-.09366.124844-.09375.125-.000093.000156-.06242.124838-.0625.125-.000081.000162-.06243.124832-.0625.125-.000068.000168-.06245.156077-.0625.15625-.000055.000173-.03121.156074-.03125.15625-.000042.000176-.03122.124821-.03125.125-.000029.000179-.03123.156069-.03125.15625-.000015.000181.000001.156069 0 .15625s-.000012.156069 0 .15625.03122.156071.03125.15625c.000026.000179-.00004.124823 0 .125s.06245.156077.0625.15625c.000053.000173.03118.156081.03125.15625.000066.000169.06242.124837.0625.125.000078.000163.06241.124843.0625.125.000091.000157.09365.12485.09375.125.000102.00015.09364.124859.09375.125.000113.000141.09363.124867.09375.125.000124.000133.09362.09363.09375.09375.000133.000123.124858.124888.125.125s.12485.0624.125.0625c.00015.000101.124842.09366.125.09375s.124836.06242.125.0625c.000164.000077.156081.06243.15625.0625.000169.000065.156076.06245.15625.0625.000174.000052.124823.03121.125.03125.000177.000038.15607.03123.15625.03125.00018.000025.156069-.000011.15625 0s.156069.000003.15625 0 .12482.000016.125 0 .156071-.03122.15625-.03125a.99425786.99425786 0 0 0 .03125 0l6.4375-1.3125c.475417.464874.988016.895193 1.5 1.3125l-1.0625 5.21875a.99425786.99425786 0 0 0 0 .03125c-.00003.000179-.03123.15607-.03125.15625-.000016.00018.000003.124819 0 .125s-.000011.156069 0 .15625-.000025.15607 0 .15625.03121.156073.03125.15625c.000038.000177.0312.124826.03125.125.000052.000174.06244.156081.0625.15625.000065.000169.06242.156086.0625.15625.000077.000164.06241.124842.0625.125s.09365.12485.09375.125c.000101.00015.06239.124858.0625.125.000112.000142.124877.124867.125.125s.09362.09363.09375.09375c.000133.000124.124859.09364.125.09375.000141.000113.12485.09365.125.09375.00015.000102.124843.09366.125.09375.000157.000091.124837.06242.125.0625.000163.000078.124831.06243.125.0625.000169.000066.156077.0312.15625.03125.000173.000053.156073.06246.15625.0625s.124821-.000026.125 0 .156069.03124.15625.03125c.000181.000012.156069.000001.15625 0s.156069.000015.15625 0 .156071-.03122.15625-.03125c.000179-.000029.124824-.03121.125-.03125.000176-.000042.156077-.03119.15625-.03125.000173-.000055.156082-.06243.15625-.0625.000168-.000068.124838-.06242.125-.0625.000162-.000081.124844-.06241.125-.0625.000156-.000093.124852-.09365.125-.09375.000148-.000104.12486-.06239.125-.0625a.99425786.99425786 0 0 0 .03125-.03125l4-3.53125c.865471.330739 1.764676.621999 2.6875.84375l3.125 9.3125a.99425786.99425786 0 0 0 0 .03125c.000064.000169.06242.156086.0625.15625.000076.000164.06241.124842.0625.125.000088.000158.09365.124849.09375.125s.09364.124857.09375.125c.000111.000143.09363.124866.09375.125.000122.000134.09362.09363.09375.09375.000132.000124.124859.09364.125.09375.000141.000114.124851.09365.125.09375.000149.000103.124844.09366.125.09375.000156.000092.124837.06242.125.0625.000163.000079.124832.06243.125.0625.000168.000067.156077.06245.15625.0625.000173.000054.156074.03121.15625.03125.000176.000041.124821.03122.125.03125.000179.000027.15607-.000014.15625 0s.156069.03125.15625.03125.15607-.03124.15625-.03125c.00018-.000014.156071.000027.15625 0s.124824-.03121.125-.03125c.000176-.000041.156077-.0312.15625-.03125.000173-.000054.156082-.06243.15625-.0625.000168-.000067.124837-.06242.125-.0625.000163-.000079.124844-.06241.125-.0625.000156-.000092.124851-.09365.125-.09375.000149-.000103.124859-.09364.125-.09375.000141-.000114.124868-.09363.125-.09375.000132-.000124.09363-.09362.09375-.09375.000122-.000134.09364-.124857.09375-.125.000111-.000143.09365-.124849.09375-.125s.09366-.124842.09375-.125c.000088-.000158.06242-.124836.0625-.125.000076-.000164.06244-.156081.0625-.15625a.99425786.99425786 0 0 0 0-.03125l3.09375-9.3125c1.513166-.361438 2.980131-.88204 4.34375-1.53125l4.1875 3.71875a.99425786.99425786 0 0 0 .03125.03125c.00014.000115.124852.0624.125.0625.000148.000104.124844.09366.125.09375.000156.000093.124838.06242.125.0625.000162.000081.124832.06243.125.0625.000168.000068.156077.06244.15625.0625.000173.000055.156074.03121.15625.03125.000176.000042.124821.03122.125.03125.000179.000029.156069.03123.15625.03125.000181.000015.156069-.000001.15625 0s.156069.000012.15625 0 .156071-.03122.15625-.03125c.000179-.000026.124823.00004.125 0s.156077-.06245.15625-.0625c.000173-.000053.156081-.03118.15625-.03125.000169-.000066.124837-.06242.125-.0625.000163-.000078.124843-.06241.125-.0625.000157-.000091.12485-.09365.125-.09375.00015-.000102.124859-.09364.125-.09375.000141-.000113.124867-.09363.125-.09375.000133-.000124.09363-.09362.09375-.09375.000123-.000133.124888-.124858.125-.125s.0624-.12485.0625-.125c.000101-.00015.09366-.124842.09375-.125s.06242-.124836.0625-.125c.000077-.000164.06243-.156081.0625-.15625.000065-.000169.06245-.156076.0625-.15625.000052-.000174.03121-.124823.03125-.125.000038-.000177.03123-.15607.03125-.15625.000025-.00018-.000011-.156069 0-.15625s.000003-.156069 0-.15625.000016-.12482 0-.125-.03122-.156071-.03125-.15625a.99425786.99425786 0 0 0 0-.03125l-1.25-6.15625c.484782-.480674.960728-.968547 1.40625-1.5l5.03125 1a.99425786.99425786 0 0 0 .03125 0c.000179.00003.15607.03123.15625.03125.00018.000016.124819-.000003.125 0s.156069.000011.15625 0 .15607.000025.15625 0 .156073-.03121.15625-.03125c.000177-.000038.124826-.0312.125-.03125.000174-.000052.156081-.06244.15625-.0625.000169-.000065.156086-.06242.15625-.0625.000164-.000077.124842-.06241.125-.0625s.12485-.09365.125-.09375c.00015-.000101.124858-.06239.125-.0625.000142-.000112.124867-.124877.125-.125s.09363-.09362.09375-.09375c.000124-.000133.09364-.124859.09375-.125.000113-.000141.09365-.12485.09375-.125.000102-.00015.09366-.124843.09375-.125.000091-.000157.06242-.124837.0625-.125.000078-.000163.06243-.124831.0625-.125.000066-.000169.0312-.156077.03125-.15625.000053-.000173.06246-.156073.0625-.15625s-.000026-.124821 0-.125.03124-.156069.03125-.15625c.000012-.000181.000001-.156069 0-.15625s.000015-.156069 0-.15625-.03122-.156071-.03125-.15625c-.000029-.000179-.03121-.124824-.03125-.125-.000042-.000176-.03119-.156077-.03125-.15625-.000055-.000173-.06243-.156082-.0625-.15625-.000068-.000168-.06242-.124838-.0625-.125-.000081-.000162-.06241-.124844-.0625-.125-.000093-.000156-.09365-.124852-.09375-.125-.000104-.000148-.06239-.12486-.0625-.125a.99425786.99425786 0 0 0 -.03125-.03125l-3.4375-3.84375c.356323-.907933.671501-1.842352.90625-2.8125l9.25-3.09375a.99425786.99425786 0 0 0 .03125 0c.000169-.000064.156086-.06242.15625-.0625.000164-.000076.124842-.06241.125-.0625.000158-.000088.124849-.09365.125-.09375s.124857-.09364.125-.09375c.000143-.000111.124866-.09363.125-.09375.000134-.000122.09363-.09362.09375-.09375.000124-.000132.09364-.124859.09375-.125.000114-.000141.09365-.124851.09375-.125.000103-.000149.09366-.124844.09375-.125.000092-.000156.06242-.124837.0625-.125.000079-.000163.06243-.124832.0625-.125.000067-.000168.06245-.156077.0625-.15625.000054-.000173.03121-.156074.03125-.15625.000041-.000176.03122-.124821.03125-.125.000027-.000179-.000014-.15607 0-.15625s.03125-.156069.03125-.15625-.03124-.15607-.03125-.15625c-.000014-.00018.000027-.156071 0-.15625s-.03121-.124824-.03125-.125c-.000041-.000176-.0312-.156077-.03125-.15625-.000054-.000173-.06243-.156082-.0625-.15625-.000067-.000168-.06242-.124837-.0625-.125-.000079-.000163-.06241-.124844-.0625-.125-.000092-.000156-.09365-.124851-.09375-.125-.000103-.000149-.09364-.124859-.09375-.125-.000114-.000141-.09363-.124868-.09375-.125-.000124-.000132-.09362-.09363-.09375-.09375-.000134-.000122-.124857-.09364-.125-.09375-.000143-.000111-.124849-.09365-.125-.09375s-.124842-.09366-.125-.09375c-.000158-.000088-.124836-.06242-.125-.0625-.000164-.000076-.156081-.06244-.15625-.0625a.99425786.99425786 0 0 0 -.03125 0l-9.21875-3.0625c-.352572-1.559228-.864038-3.077111-1.53125-4.5l3.65625-4.15625a.99425786.99425786 0 0 0 .03125-.03125c.000115-.00014.0624-.124852.0625-.125.000104-.000148.09366-.124844.09375-.125.000093-.000156.06242-.124838.0625-.125.000081-.000162.06243-.124832.0625-.125.000068-.000168.06244-.156077.0625-.15625.000055-.000173.03121-.156074.03125-.15625.000042-.000176.03122-.124821.03125-.125.000029-.000179.03123-.156069.03125-.15625.000015-.000181-.000001-.156069 0-.15625s.000012-.156069 0-.15625-.03122-.156071-.03125-.15625c-.000026-.000179.00004-.124823 0-.125s-.06245-.156077-.0625-.15625c-.000053-.000173-.03118-.156081-.03125-.15625-.000066-.000169-.06242-.124837-.0625-.125-.000078-.000163-.06241-.124843-.0625-.125-.000091-.000157-.09365-.12485-.09375-.125-.000102-.00015-.09364-.124859-.09375-.125-.000113-.000141-.09363-.124867-.09375-.125-.000124-.000133-.09362-.09363-.09375-.09375-.000133-.000123-.124858-.124888-.125-.125s-.12485-.0624-.125-.0625c-.00015-.000101-.124842-.09366-.125-.09375s-.124836-.06242-.125-.0625c-.000164-.000077-.156081-.06244-.15625-.0625-.000169-.000065-.156076-.06245-.15625-.0625-.000174-.000052-.124823-.03121-.125-.03125-.000177-.000038-.15607-.03122-.15625-.03125-.00018-.000025-.156069.000011-.15625 0s-.156069-.000003-.15625 0-.12482-.000016-.125 0-.156071.03122-.15625.03125a.99425786.99425786 0 0 0 -.03125 0l-6.125 1.25c-.501309-.503-1.038917-.978988-1.59375-1.4375l1.03125-5.09375a.99425786.99425786 0 0 0 0-.03125c.00003-.000179.03123-.15607.03125-.15625.000016-.00018-.000003-.124819 0-.125s.000011-.156069 0-.15625.000025-.15607 0-.15625-.03121-.156073-.03125-.15625c-.000038-.000177-.0312-.124826-.03125-.125-.000052-.000174-.06244-.156081-.0625-.15625-.000065-.000169-.06242-.156086-.0625-.15625-.000077-.000164-.06241-.124842-.0625-.125s-.09365-.12485-.09375-.125c-.000101-.00015-.06239-.124858-.0625-.125-.000112-.000142-.124877-.124867-.125-.125s-.09362-.09363-.09375-.09375c-.000133-.000124-.124859-.09364-.125-.09375-.000141-.000113-.12485-.09365-.125-.09375-.00015-.000102-.124843-.09366-.125-.09375-.000157-.000091-.124837-.06242-.125-.0625-.000163-.000078-.124831-.06243-.125-.0625-.000169-.000066-.156077-.0312-.15625-.03125-.000173-.000053-.156073-.06246-.15625-.0625s-.124821.000026-.125 0-.156069-.03124-.15625-.03125c-.000181-.000012-.156069-.000001-.15625 0s-.156069-.000015-.15625 0-.156071.03122-.15625.03125c-.000179.000029-.124824.03121-.125.03125-.000176.000042-.156077.0312-.15625.03125-.000173.000055-.156082.06243-.15625.0625-.000168.000068-.124838.06242-.125.0625-.000162.000081-.124844.06241-.125.0625-.000156.000093-.124852.09365-.125.09375-.000148.000104-.12486.06238-.125.0625a.99425786.99425786 0 0 0 -.03125.03125l-3.90625 3.46875c-.879433-.34147-1.773426-.645046-2.71875-.875l-3.125-9.3125c-.000064-.0002-.06242-.156057-.0625-.15625-.000081-.000193-.0624-.156065-.0625-.15625-.000097-.000185-.09364-.156074-.09375-.15625-.000113-.000176-.09362-.124834-.09375-.125-.000128-.000166-.124858-.156096-.125-.15625s-.124845-.124859-.125-.125-.124833-.09362-.125-.09375c-.000167-.000127-.156073-.09364-.15625-.09375-.000177-.000111-.124814-.09365-.125-.09375-.000186-.000096-.156056-.06242-.15625-.0625-.000194-.000079-.1873-.06244-.1875-.0625-.0002-.000062-.156045-.06246-.15625-.0625-.000205-.000044-.187292-.03122-.1875-.03125-.000208-.000026-.156041.000007-.15625 0s-.187291-.000011-.1875 0-.156043-.000029-.15625 0z" opacity=".1"/><path d="m47.9375 18a1.0013279 1.0013279 0 0 0 -.78125.6875l-3.25 9.75c-1.896776.38678-3.705813 1.047217-5.375 1.90625l-4.75-4.21875a1.0013279 1.0013279 0 0 0 -1.625.9375l1.40625 6.875c-.766341.737079-1.474142 1.525165-2.125 2.375l-5.75-1.15625a1.0013279 1.0013279 0 0 0 -.9375 1.625l3.9375 4.40625c-.471061 1.169775-.869367 2.395116-1.125 3.65625l-9.875 3.3125a1.0013279 1.0013279 0 0 0 0 1.875l9.90625 3.28125c.37873 1.82184.990588 3.563694 1.8125 5.1875l-4.25 4.8125a1.0013279 1.0013279 0 0 0 .9375 1.625l6.90625-1.40625c.711864.735339 1.474564 1.409705 2.28125 2.03125l-1.15625 5.75a1.0013279 1.0013279 0 0 0 1.625.9375l4.40625-3.875c1.185104.490104 2.429208.888746 3.71875 1.15625l3.28125 9.78125a1.0013279 1.0013279 0 0 0 1.875 0l3.25-9.75c1.885532-.388256 3.686404-1.053769 5.34375-1.90625l4.625 4.09375a1.0013279 1.0013279 0 0 0 1.625-.9375l-1.34375-6.65625c.743178-.706537 1.455578-1.467919 2.09375-2.28125l5.59375 1.125a1.0013279 1.0013279 0 0 0 .9375-1.625l-3.78125-4.25c.521929-1.23323.939005-2.503207 1.21875-3.84375l9.71875-3.25a1.0013279 1.0013279 0 0 0 0-1.875l-9.65625-3.21875c-.383233-1.944815-1.024504-3.815278-1.90625-5.53125l4.03125-4.5625a1.0013279 1.0013279 0 0 0 -.9375-1.625l-6.625 1.34375c-.741647-.773492-1.526734-1.506126-2.375-2.15625l1.15625-5.625a1.0013279 1.0013279 0 0 0 -1.625-.9375l-4.3125 3.8125c-1.192035-.498282-2.446475-.913505-3.75-1.1875l-3.28125-9.78125a1.0013279 1.0013279 0 0 0 -1.09375-.6875z" opacity=".15"/><path d="m48.09375 19-3.4375 10.28125c-2.261605.39053-4.379065 1.167885-6.3125 2.25l-5.21875-4.65625 1.5 7.375c-1.041422.951686-1.991051 2.005131-2.8125 3.15625l-6.3125-1.28125 4.28125 4.8125c-.651337 1.475718-1.127097 3.050341-1.40625 4.6875l-10.375 3.46875 10.4375 3.46875c.393945 2.182911 1.115465 4.250097 2.15625 6.125l-4.6875 5.28125 7.40625-1.5c.920164 1.009012 1.954775 1.915137 3.0625 2.71875l-1.28125 6.3125 4.8125-4.25c1.500421.674892 3.080449 1.180455 4.75 1.46875l3.4375 10.28125 3.4375-10.28125c2.245683-.389944 4.359245-1.177661 6.28125-2.25l5.09375 4.53125-1.4375-7.15625c1.021483-.922238 1.967675-1.949104 2.78125-3.0625l6.15625 1.25-4.15625-4.65625c.707945-1.530565 1.228431-3.164748 1.53125-4.875l10.21875-3.40625-10.1875-3.40625c-.384863-2.299109-1.15181-4.475342-2.25-6.4375l4.46875-5.0625-7.09375 1.4375c-.956418-1.061489-2.025546-2.006871-3.1875-2.84375l1.28125-6.1875-4.71875 4.1875c-1.505942-.68118-3.104218-1.208797-4.78125-1.5z" opacity=".3"/><g transform="matrix(.93557115 .54015226 -.54015226 .93557115 29.081901 -22.78917)"><path d="m51.845965 33.095665a3.9188523 1.1035849 0 1 1 -7.837705 0 3.9188523 1.1035849 0 1 1 7.837705 0z" opacity=".3"/><path d="m45 33 3-9 3 9s-3.134319 1.701498-6 0z" fill="url(#m)"/><g fill="#fefefe"><path d="m48 24-2.317197 9.362511c.500378.176421 1.154131.367058 2.008621.401553z" opacity=".15"/><path d="m48 24-1.75 9.53125c.296466.08579.586934.153005.875.1875z" opacity=".3"/></g></g><g transform="matrix(-.54015226 .93557115 .93557115 .54015226 28.974339 -22.760348)"><path d="m51.845965 33.095665a3.9188523 1.1035849 0 1 1 -7.837705 0 3.9188523 1.1035849 0 1 1 7.837705 0z" opacity=".3"/><path d="m45 33 3-9 3 9s-3.134319 1.701498-6 0z" fill="url(#m)"/><g fill="#fefefe"><path d="m48 24-2.317197 9.362511c.500378.176421 1.154131.367058 2.008621.401553z" opacity=".15"/><path d="m48 24-1.75 9.53125c.296466.08579.586934.153005.875.1875z" opacity=".3"/></g></g><g transform="matrix(.93557115 .54015226 -.54015226 .93557115 29.081901 -22.78917)"><path d="m51.845965 33.095665a3.9188523 1.1035849 0 1 1 -7.837705 0 3.9188523 1.1035849 0 1 1 7.837705 0z" opacity=".3" transform="matrix(1 0 0 -1 0 96)"/><path d="m45 63 3 9 3-9s-3.134319-1.701498-6 0z" fill="url(#n)"/><path d="m48 72-2.317197-9.362511c.500378-.176421 1.154131-.367058 2.008621-.401553z" fill="#fefefe" opacity=".15"/><path d="m48 72-1.75-9.53125c.296466-.08579.586934-.153005.875-.1875z" fill="#fefefe" opacity=".3"/><path d="m45 63 3 9 3-9s-3.134319-1.701498-6 0z" opacity=".3"/></g><g transform="matrix(.93557115 .54015226 -.54015226 .93557115 29.081901 -22.78917)"><path d="m51.845965 33.095665a3.9188523 1.1035849 0 1 1 -7.837705 0 3.9188523 1.1035849 0 1 1 7.837705 0z" opacity=".3" transform="matrix(0 1 -1 0 95.927112 .072888)"/><path d="m62.927112 45.072888 9 3-9 3s-1.701498-3.134319 0-6z" fill="url(#o)"/><path d="m71.927112 48.072888-9.362511-2.317197c-.176421.500378-.367058 1.154131-.401553 2.008621z" fill="#fefefe" opacity=".15"/><path d="m71.927112 48.072888-9.53125-1.75c-.08579.296466-.153005.586934-.1875.875z" fill="#fefefe" opacity=".3"/><path d="m62.927112 45.072888 9 3-9 3s-1.701498-3.134319 0-6z" opacity=".5"/></g><path d="m48 40a8 8 0 1 1 -16 0 8 8 0 1 1 16 0z" fill="url(#p)" transform="matrix(2.5 0 0 2.5 -51.90889 -52)"/><g transform="matrix(1.25 0 0 1.25 -11.90889 -12)"><path d="m51.845965 33.095665a3.9188523 1.1035849 0 1 1 -7.837705 0 3.9188523 1.1035849 0 1 1 7.837705 0z" opacity=".3"/><path d="m45 33 3-9 3 9s-3.134319 1.701498-6 0z" fill="url(#m)"/><g fill="#fefefe"><path d="m48 24-2.317197 9.362511c.500378.176421 1.154131.367058 2.008621.401553z" opacity=".15"/><path d="m48 24-1.75 9.53125c.296466.08579.586934.153005.875.1875z" opacity=".3"/></g></g><g transform="matrix(0 1.25 1.25 0 -11.999999 -11.908891)"><path d="m51.845965 33.095665a3.9188523 1.1035849 0 1 1 -7.837705 0 3.9188523 1.1035849 0 1 1 7.837705 0z" opacity=".3"/><path d="m45 33 3-9 3 9s-3.134319 1.701498-6 0z" fill="url(#m)"/><g fill="#fefefe"><path d="m48 24-2.317197 9.362511c.500378.176421 1.154131.367058 2.008621.401553z" opacity=".15"/><path d="m48 24-1.75 9.53125c.296466.08579.586934.153005.875.1875z" opacity=".3"/></g></g><g transform="matrix(1.25 0 0 1.25 -11.90889 -12)"><path d="m51.845965 33.095665a3.9188523 1.1035849 0 1 1 -7.837705 0 3.9188523 1.1035849 0 1 1 7.837705 0z" opacity=".3" transform="matrix(1 0 0 -1 0 96)"/><path d="m45 63 3 9 3-9s-3.134319-1.701498-6 0z" fill="url(#n)"/><path d="m48 72-2.317197-9.362511c.500378-.176421 1.154131-.367058 2.008621-.401553z" fill="#fefefe" opacity=".15"/><path d="m48 72-1.75-9.53125c.296466-.08579.586934-.153005.875-.1875z" fill="#fefefe" opacity=".3"/><path d="m45 63 3 9 3-9s-3.134319-1.701498-6 0z" opacity=".3"/></g><g transform="matrix(1.25 0 0 1.25 -11.90889 -12)"><path d="m51.845965 33.095665a3.9188523 1.1035849 0 1 1 -7.837705 0 3.9188523 1.1035849 0 1 1 7.837705 0z" opacity=".3" transform="matrix(0 1 -1 0 95.927112 .072888)"/><path d="m62.927112 45.072888 9 3-9 3s-1.701498-3.134319 0-6z" fill="url(#o)"/><path d="m71.927112 48.072888-9.362511-2.317197c-.176421.500378-.367058 1.154131-.401553 2.008621z" fill="#fefefe" opacity=".15"/><path d="m71.927112 48.072888-9.53125-1.75c-.08579.296466-.153005.586934-.1875.875z" fill="#fefefe" opacity=".3"/><path d="m62.927112 45.072888 9 3-9 3s-1.701498-3.134319 0-6z" opacity=".5"/></g><g transform="matrix(1.0755238 -.62095395 .62095395 1.0755238 -33.418394 29.88305)"><path d="m51.845965 33.095665a3.9188523 1.1035849 0 1 1 -7.837705 0 3.9188523 1.1035849 0 1 1 7.837705 0z" opacity=".3"/><path d="m45 33 3-9 3 9s-3.134319 1.701498-6 0z" fill="url(#m)"/><g fill="#fefefe"><path d="m48 24-2.317197 9.362511c.500378.176421 1.154131.367058 2.008621.401553z" opacity=".15"/><path d="m48 24-1.75 9.53125c.296466.08579.586934.153005.875.1875z" opacity=".3"/></g></g><g transform="matrix(.62095395 1.0755238 1.0755238 -.62095395 -29.701527 26.256703)"><path d="m51.845965 33.095665a3.9188523 1.1035849 0 1 1 -7.837705 0 3.9188523 1.1035849 0 1 1 7.837705 0z" opacity=".3"/><path d="m45 33 3-9 3 9s-3.134319 1.701498-6 0z" fill="url(#m)"/><g fill="#fefefe"><path d="m48 24-2.317197 9.362511c.500378.176421 1.154131.367058 2.008621.401553z" opacity=".15"/><path d="m48 24-1.75 9.53125c.296466.08579.586934.153005.875.1875z" opacity=".3"/></g></g><g transform="matrix(1.0755238 -.62095395 .62095395 1.0755238 -33.418394 22.38305)"><path d="m51.845965 33.095665a3.9188523 1.1035849 0 1 1 -7.837705 0 3.9188523 1.1035849 0 1 1 7.837705 0z" opacity=".3" transform="matrix(1 0 0 -1 0 96)"/><path d="m45 63 3 9 3-9s-3.134319-1.701498-6 0z" fill="url(#n)"/><path d="m48 72-2.317197-9.362511c.500378-.176421 1.154131-.367058 2.008621-.401553z" fill="#fefefe" opacity=".15"/><path d="m48 72-1.75-9.53125c.296466-.08579.586934-.153005.875-.1875z" fill="#fefefe" opacity=".3"/><path d="m45 63 3 9 3-9s-3.134319-1.701498-6 0z" opacity=".5"/></g><g transform="matrix(1.0755238 -.62095395 .62095395 1.0755238 -37.168394 26.13305)"><path d="m51.845965 33.095665a3.9188523 1.1035849 0 1 1 -7.837705 0 3.9188523 1.1035849 0 1 1 7.837705 0z" opacity=".3" transform="matrix(0 1 -1 0 95.927112 .072888)"/><path d="m62.927112 45.072888 9 3-9 3s-1.701498-3.134319 0-6z" fill="url(#o)"/><path d="m71.927112 48.072888-9.362511-2.317197c-.176421.500378-.367058 1.154131-.401553 2.008621z" fill="#fefefe" opacity=".15"/><path d="m71.927112 48.072888-9.53125-1.75c-.08579.296466-.153005.586934-.1875.875z" fill="#fefefe" opacity=".3"/><path d="m62.927112 45.072888 9 3-9 3s-1.701498-3.134319 0-6z" opacity=".3"/></g><path d="m51 48a3 3 0 1 1 -6 0 3 3 0 1 1 6 0z" opacity=".5" transform="matrix(1.49775 0 0 1.49775 -23.80089 -23.892)"/><path d="m51 48a3 3 0 1 1 -6 0 3 3 0 1 1 6 0z" fill="url(#q)" transform="matrix(1.25 0 0 1.25 -11.90889 -12)"/><g transform="matrix(1.25 0 0 1.25 -11.90889 -12)"><path d="m42.553331 47.952843a3.366159 3.6519649 0 1 1 -6.732318 0 3.366159 3.6519649 0 1 1 6.732318 0z" opacity=".5"/><path d="m34.936309 48.072887s2.252933-3.072887 4.063691-3.072887c4 0 4 6 0 6-1.621594-.04504-4.063691-2.927113-4.063691-2.927113z" fill="url(#r)"/><g fill="#fefefe"><path d="m40.34375 45.28125-5.34375 2.71875 6.96875-.1875c-.0586-1.046583-.589337-2.058294-1.625-2.53125z" opacity=".15"/><path d="m40.875 45.625-5.8125 2.4375 6.6875-1.25c-.181985-.458789-.474048-.873374-.875-1.1875z" opacity=".3"/></g></g><g transform="matrix(0 1.25 1.25 0 -11.849943 -12.058947)"><path d="m42.553331 47.952843a3.366159 3.6519649 0 1 1 -6.732318 0 3.366159 3.6519649 0 1 1 6.732318 0z" opacity=".5"/><path d="m34.936309 48.072887s2.252933-3.072887 4.063691-3.072887c4 0 4 6 0 6-1.621594-.04504-4.063691-2.927113-4.063691-2.927113z" fill="url(#r)"/><g fill="#fefefe"><path d="m40.34375 45.28125-5.34375 2.71875 6.96875-.1875c-.0586-1.046583-.589337-2.058294-1.625-2.53125z" opacity=".15"/><path d="m40.875 45.625-5.8125 2.4375 6.6875-1.25c-.181985-.458789-.474048-.873374-.875-1.1875z" opacity=".3"/></g></g><path d="m42.553331 47.952843a3.366159 3.6519649 0 1 1 -6.732318 0 3.366159 3.6519649 0 1 1 6.732318 0z" opacity=".5" transform="matrix(-1.25 0 0 1.25 108.09111 -12)"/><path d="m64.420724 48.091109s-2.816167-3.841109-5.079614-3.841109c-5 0-5 7.5 0 7.5 2.026993-.0563 5.079614-3.658891 5.079614-3.658891z" fill="url(#u)"/><path d="m57.661422 44.601562 6.679688 3.398438-8.710938-.234375c.07325-1.308229.736672-2.572868 2.03125-3.164063z" fill="#fefefe" opacity=".15"/><path d="m56.99736 45.03125 7.265625 3.046875-8.359375-1.5625c.227481-.573486.59256-1.091718 1.09375-1.484375z" fill="#fefefe" opacity=".3"/><path d="m64.420724 48.091109s-2.816167-3.841109-5.079614-3.841109c-5 0-5 7.5 0 7.5 2.026993-.0563 5.079614-3.658891 5.079614-3.658891z" opacity=".4"/><path d="m42.553331 47.952843a3.366159 3.6519649 0 1 1 -6.732318 0 3.366159 3.6519649 0 1 1 6.732318 0z" opacity=".5" transform="matrix(0 -1.25 1.25 0 -11.849943 107.94105)"/><path d="m48.241165 64.270668s-3.841109-2.816167-3.841109-5.079614c0-5 7.5-5 7.5 0-.0563 2.026992-3.658891 5.079614-3.658891 5.079614z" fill="url(#t)"/><path d="m44.751619 57.511366 3.398437 6.679688-.234375-8.710938c-1.308229.07325-2.572867.736672-3.164062 2.03125z" fill="#fefefe" opacity=".15"/><path d="m45.181306 56.847304 3.046875 7.265625-1.5625-8.359375c-.573486.227481-1.091717.59256-1.484375 1.09375z" fill="#fefefe" opacity=".3"/><path d="m48.241165 64.270668s-3.841109-2.816167-3.841109-5.079614c0-5 7.5-5 7.5 0-.0563 2.026992-3.658891 5.079614-3.658891 5.079614z" opacity=".2"/><path d="m46.294235 44.71875c-.610606.335402-1.10183.839832-1.445313 1.445312l3.203125 1.757813z" fill="#fefefe" opacity=".3"/><path d="m47.15361 44.40625c-1.258827.332816-2.244348 1.297021-2.617188 2.539062l3.671875.9375z" fill="#fefefe" opacity=".15"/><path d="m51 48a3 3 0 1 1 -6 0 3 3 0 1 1 6 0z" fill="url(#s)" opacity=".5" transform="matrix(.88388348 .88388348 -.88388348 .88388348 48.09111 -36.852814)"/></svg>