<svg height="96" width="96" xmlns="http://www.w3.org/2000/svg" xmlns:xlink="http://www.w3.org/1999/xlink"><linearGradient id="a" gradientTransform="matrix(1.0059 0 0 .99417 100 0)" gradientUnits="userSpaceOnUse" x1="45.448" x2="45.448" y1="92.54" y2="7.0165"><stop offset="0"/><stop offset="1" stop-opacity=".58824"/></linearGradient><radialGradient id="b" cx="56.066" cy="-15.871" gradientTransform="matrix(-.0022617 -1.2346 1.3856 0 70.085 140.27)" gradientUnits="userSpaceOnUse" r="35.938"><stop offset="0" stop-color="#42a2ec"/><stop offset="1" stop-color="#125ab5"/></radialGradient><radialGradient id="c" cx="47.098" cy="80.843" gradientTransform="matrix(1.3113 -.00000005 .00000005 1.1374 -14.662 -10.848)" gradientUnits="userSpaceOnUse" r="38.957"><stop offset="0" stop-color="#2fc044"/><stop offset="1" stop-color="#246d2f"/></radialGradient><linearGradient id="d"><stop offset="0"/><stop offset="1" stop-opacity="0"/></linearGradient><radialGradient id="e" cx="48" cy="90.172" gradientTransform="matrix(1.1573 0 0 .99591 -7.551 .19713)" gradientUnits="userSpaceOnUse" r="42" stop-color="#fff" xlink:href="#d"/><linearGradient id="f" gradientUnits="userSpaceOnUse" x1="43.0366626" x2="43.0366626" y1="11.9704" y2="84.332073"><stop offset="0" stop-color="#919191"/><stop offset="1" stop-color="#fdfdfd"/></linearGradient><linearGradient id="g" gradientUnits="userSpaceOnUse" x1="36.357" x2="36.357" xlink:href="#d" y1="6" y2="63.893"/><linearGradient id="h" gradientUnits="userSpaceOnUse" x1="48" x2="48" xlink:href="#l" y1="90" y2="5.9877"><stop offset="0" stop-color="#b4b4b4"/><stop offset="1" stop-color="#e6e6e6"/></linearGradient><linearGradient id="i" gradientTransform="translate(0 1)" gradientUnits="userSpaceOnUse" x1="32.251" x2="32.251" xlink:href="#a" y1="90" y2="6"/><linearGradient id="j" gradientTransform="matrix(1.0238 0 0 1.0119 -1.1429 .929)" gradientUnits="userSpaceOnUse" x1="32.251" x2="32.251" xlink:href="#a" y1="90" y2="5.9996"/><linearGradient id="k" gradientTransform="matrix(1.0238 0 0 -1.0119 -1.1429 98.071)" gradientUnits="userSpaceOnUse" x1="32.251" x2="32.251" xlink:href="#a" y1="6.1317" y2="90.239"/><linearGradient id="l"><stop offset="0" stop-color="#00d391" stop-opacity=".598425"/><stop offset=".5" stop-color="#00d391" stop-opacity=".212598"/><stop offset="1" stop-color="#00d391" stop-opacity="0"/></linearGradient><radialGradient id="m" cx="48.5" cy="63.5" gradientUnits="userSpaceOnUse" r="3.5" xlink:href="#l"/><radialGradient id="n" cx="48.5" cy="71.5" gradientUnits="userSpaceOnUse" r="3.5" xlink:href="#l"/><linearGradient id="o" gradientUnits="userSpaceOnUse" x1="23.403735" x2="23.403735" y1="-8.267452" y2="71.732548"><stop offset="0" stop-color="#fefefe"/><stop offset="1" stop-color="#fefefe" stop-opacity="0"/></linearGradient><radialGradient id="p" cx="48.5" cy="46.5" gradientTransform="matrix(1.5066302 -.00000004 .00000003 1.3144413 -25.300555 -13.330873)" gradientUnits="userSpaceOnUse" r="30.5"><stop offset="0" stop-color="#85cdff" stop-opacity=".6"/><stop offset=".5" stop-color="#85cdff" stop-opacity=".322"/><stop offset="1" stop-color="#85cdff" stop-opacity="0"/></radialGradient><linearGradient id="q" gradientUnits="userSpaceOnUse" spreadMethod="repeat" x1="80.951331" x2="12.827375" y1="53.745594" y2="53.745594"><stop offset="0" stop-color="#fff"/><stop offset=".80000001" stop-color="#fff" stop-opacity=".615686"/><stop offset="1" stop-color="#fff" stop-opacity="0"/></linearGradient><linearGradient id="r" gradientUnits="userSpaceOnUse" spreadMethod="repeat" x1="80.951331" x2="12.827375" y1="53.745594" y2="53.745594"><stop offset="0" stop-color="#fff"/><stop offset=".80000001" stop-color="#fff" stop-opacity=".615686"/><stop offset="1" stop-color="#fff8ff" stop-opacity="0"/></linearGradient><g fill="url(#k)"><path d="m12 95.031c-5.5111 0-10.031-4.52-10.031-10.031v-71c0-5.5111 4.5202-10.031 10.031-10.031h72c5.5111 0 10.031 4.5202 10.031 10.031v71c0 5.5111-4.5202 10.031-10.031 10.031z" opacity=".08"/><path d="m12 94.031c-4.9716 0-9.0312-4.0596-9.0312-9.0312v-71c0-4.9718 4.0596-9.0314 9.0312-9.0314h72c4.9716 0 9.0312 4.0596 9.0312 9.0312v71c0 4.9716-4.0596 9.0312-9.0312 9.0312h-72z" opacity=".1"/><path d="m12 93c-4.4091 0-8-3.591-8-8v-71c0-4.4091 3.5909-8 8-8h72c4.4091 0 8 3.5909 8 8v71c0 4.4091-3.5909 8-8 8z" opacity=".2"/></g><rect fill="url(#j)" height="85" opacity=".3" rx="7" width="86" x="5" y="7"/><rect fill="url(#i)" height="84" opacity=".45" rx="6" width="84" x="6" y="7"/><rect fill="url(#c)" height="78.516" rx="5.8528" ry="6.1733" width="77.915" x="8.1409" y="8.2544"/><path d="m83.937 83.875v-71.869h-71.94v71.869z" fill="url(#b)"/><path d="m16.330018 7.7001851v15.6196599h-8.706737v1.04131h8.706737v7.289175h-8.706737v1.04131h8.706737v7.289174h-8.706737v1.041311h8.706737v7.289174h-8.706737v1.04131h8.706737v7.289175h-8.706737v1.04131h8.706737v7.289176h-8.706737v1.041309h8.706737v7.289176h-8.706737v1.04131h8.706737v12.495728h.967415v-12.495728h6.771907v12.495728h.967416v-12.495728h6.771906v12.495728h.967415v-12.495728h6.771906v12.495728h.967417v-12.495728h6.771906v12.495728h.967415v-12.495728h6.771906v12.495728h.967416v-12.495728h6.771907v12.495728h.967415v-12.495728h6.771905v12.495728h.96742v-12.495728h6.7719v12.495728h.96742v-12.495728h7.73932v-1.04131h-7.73932v-7.289176h7.73932v-1.041309h-7.73932v-7.289176h7.73932v-1.04131h-7.73932v-7.289175h7.73932v-1.04131h-7.73932v-7.289174h7.73932v-1.041311h-7.73932v-7.289174h7.73932v-1.04131h-7.73932v-7.289175h7.73932v-1.04131h-7.73932v-15.6196599h-.96742v15.6196599h-6.7719v-15.6196599h-.96742v15.6196599h-6.771905v-15.6196599h-.967415v15.6196599h-6.771907v-15.6196599h-.967416v15.6196599h-6.771906v-15.6196599h-.967415v15.6196599h-6.771906v-15.6196599h-.967417v15.6196599h-6.771906v-15.6196599h-.967415v15.6196599h-6.771906v-15.6196599h-.967416v15.6196599h-6.771907v-15.6196599zm.967415 16.6609699h6.771907v7.289175h-6.771907zm7.739323 0h6.771906v7.289175h-6.771906zm7.739321 0h6.771906v7.289175h-6.771906zm7.739323 0h6.771906v7.289175h-6.771906zm7.739321 0h6.771906v7.289175h-6.771906zm7.739322 0h6.771907v7.289175h-6.771907zm7.739322 0h6.771905v7.289175h-6.771905zm7.739325 0h6.7719v7.289175h-6.7719zm-54.175257 8.330485h6.771907v7.289174h-6.771907zm7.739323 0h6.771906v7.289174h-6.771906zm7.739321 0h6.771906v7.289174h-6.771906zm7.739323 0h6.771906v7.289174h-6.771906zm7.739321 0h6.771906v7.289174h-6.771906zm7.739322 0h6.771907v7.289174h-6.771907zm7.739322 0h6.771905v7.289174h-6.771905zm7.739325 0h6.7719v7.289174h-6.7719zm-54.175257 8.330485h6.771907v7.289174h-6.771907zm7.739323 0h6.771906v7.289174h-6.771906zm7.739321 0h6.771906v7.289174h-6.771906zm7.739323 0h6.771906v7.289174h-6.771906zm7.739321 0h6.771906v7.289174h-6.771906zm7.739322 0h6.771907v7.289174h-6.771907zm7.739322 0h6.771905v7.289174h-6.771905zm7.739325 0h6.7719v7.289174h-6.7719zm-54.175257 8.330484h6.771907v7.289175h-6.771907zm7.739323 0h6.771906v7.289175h-6.771906zm7.739321 0h6.771906v7.289175h-6.771906zm7.739323 0h6.771906v7.289175h-6.771906zm7.739321 0h6.771906v7.289175h-6.771906zm7.739322 0h6.771907v7.289175h-6.771907zm7.739322 0h6.771905v7.289175h-6.771905zm7.739325 0h6.7719v7.289175h-6.7719zm-54.175257 8.330485h6.771907v7.289176h-6.771907zm7.739323 0h6.771906v7.289176h-6.771906zm7.739321 0h6.771906v7.289176h-6.771906zm7.739323 0h6.771906v7.289176h-6.771906zm7.739321 0h6.771906v7.289176h-6.771906zm7.739322 0h6.771907v7.289176h-6.771907zm7.739322 0h6.771905v7.289176h-6.771905zm7.739325 0h6.7719v7.289176h-6.7719zm-54.175257 8.330485h6.771907v7.289176h-6.771907zm7.739323 0h6.771906v7.289176h-6.771906zm7.739321 0h6.771906v7.289176h-6.771906zm7.739323 0h6.771906v7.289176h-6.771906zm7.739321 0h6.771906v7.289176h-6.771906zm7.739322 0h6.771907v7.289176h-6.771907zm7.739322 0h6.771905v7.289176h-6.771905zm7.739325 0h6.7719v7.289176h-6.7719z" fill="url(#p)" opacity=".3"/><path d="m19 13c-3.2894 0-6 2.7106-6 6v58c0 3.2894 2.7106 6 6 6h58c3.2894 0 6-2.7106 6-6v-58c0-3.2894-2.7106-6-6-6zm0 4h58c1.1426 0 2 .85741 2 2v58c0 1.1426-.85741 2-2 2h-58c-1.1426 0-2-.85741-2-2v-58c0-1.1426.85741-2 2-2z" opacity=".08"/><path d="m17 14c-1.662 0-3 1.338-3 3v62c0 1.662 1.338 3 3 3h62c1.662 0 3-1.338 3-3v-62c0-1.662-1.338-3-3-3zm0 1.9375h62c.61816 0 1.0625.44434 1.0625 1.0625v62c0 .61816-.44434 1.0625-1.0625 1.0625h-62c-.61816 0-1.0625-.44434-1.0625-1.0625v-62c0-.61816.44434-1.0625 1.0625-1.0625z" opacity=".1"/><path d="m17 14c-1.662 0-3 1.338-3 3v62c0 1.662 1.338 3 3 3h62c1.662 0 3-1.338 3-3v-62c0-1.662-1.338-3-3-3zm0 .96875h62c1.1401 0 2.0312.89117 2.0312 2.0312v62c0 1.1401-.89117 2.0312-2.0312 2.0312h-62c-1.1401 0-2.0312-.89117-2.0312-2.0312v-62c0-1.1401.89117-2.0312 2.0312-2.0312z" opacity=".25"/><path d="m12 6c-3.324 0-6 2.676-6 6v72c0 3.324 2.676 6 6 6h72c3.324 0 6-2.676 6-6v-72c0-3.324-2.676-6-6-6zm5 8h62c1.6838 0 3 1.3162 3 3v62c.000001 1.6838-1.3162 3-3 3h-62c-1.6838.000001-3-1.3162-3-3v-62c0-1.6838 1.3162-3 3-3z" fill="url(#h)"/><path d="m12 6c-3.324 0-6 2.676-6 6v72c0 .33472.04135.6507.09375.96875.0487.2956.09704.59692.1875.875.00988.03038.020892.0636.03125.09375.098865.28777.23488.54745.375.8125.14459.27351.31562.53562.5.78125.18438.24564.37378.47347.59375.6875.43995.42806.94291.81453 1.5 1.0938.27854.13961.57347.24695.875.34375-.2562-.10022-.48671-.23627-.71875-.375-.00741-.0044-.023866.0045-.03125 0-.0319-.019-.0622-.042-.0937-.062-.1204-.077-.231-.164-.3437-.25-.1062-.081-.2133-.161-.3126-.25-.1778-.162-.3473-.346-.4999-.531-.1075-.131-.2183-.266-.3124-.407-.0251-.038-.0385-.086-.0626-.125-.0647-.103-.1302-.204-.1874-.312-.1011-.195-.2057-.416-.2813-.625-.008-.022-.0236-.041-.0313-.063-.0318-.092-.0358-.187-.0624-.281-.0304-.107-.0704-.203-.0938-.313-.0729-.341-.125-.698-.125-1.062v-72c0-2.782 2.2182-5 5-5h72c2.7818 0 5 2.2182 5 5v72c0 .3643-.05212.72099-.125 1.0625-.04415.20689-.08838.39766-.15625.59375-.0077.02195-.0233.04069-.03125.0625-.06274.17374-.13838.36745-.21875.53125-.04158.0828-.07904.16995-.125.25-.0546.09721-.12677.18835-.1875.28125-.09411.14096-.20492.276-.3125.40625-.14317.17445-.30314.347-.46875.5-.01117.0102-.01998.02115-.03125.03125-.13839.12556-.28509.23444-.4375.34375-.10257.07315-.20432.15336-.3125.21875-.0074.0045-.02384-.0044-.03125 0-.23204.13873-.46255.27478-.71875.375.30153-.0968.59646-.20414.875-.34375.55709-.27922 1.0601-.66569 1.5-1.0938.21997-.21403.40937-.44186.59375-.6875s.35541-.50774.5-.78125c.14012-.26505.27614-.52473.375-.8125.01041-.03078.02133-.06274.03125-.09375.09046-.27808.1388-.5794.1875-.875.053-.318.094-.634.094-.969v-72c0-3.324-2.676-6-6-6h-72z" fill="url(#g)" opacity=".7"/><rect height="70" rx="4" style="stroke-linejoin:round;stroke-opacity:.7;stroke-linecap:square;stroke-width:2;fill:none;stroke:url(#f)" width="70" x="13" y="13"/><path d="m12 90c-3.324 0-6-2.676-6-6v-72c0-.33472.04135-.6507.09375-.96875.0487-.2956.09704-.59692.1875-.875.0099-.03.0209-.063.0313-.094.0989-.2873.2349-.547.375-.812.1446-.2735.3156-.5356.5-.7812.1844-.2457.3738-.4735.5937-.6876.44-.428.943-.8145 1.5-1.0937.2786-.1396.5735-.2469.8748-.3437-.256.1002-.4865.2362-.7185.375-.00741.0044-.023866-.0045-.03125 0-.031933.0193-.062293.04251-.09375.0625-.1204.0767-.23102.16351-.34375.25-.10617.0808-.21328.16111-.3125.25-.1779.1614-.3474.3453-.5.5312-.1075.1303-.2183.2653-.3124.4063-.0251.0383-.0385.0858-.0626.125-.0647.103-.1302.2045-.1874.3124-.1011.1948-.2057.4158-.2813.625-.008.0219-.0236.0406-.0313.0626-.0318.0919-.0358.1868-.0624.2812-.0304.1066-.0704.203-.0938.3125-.0729.3415-.125.6985-.125 1.0625v72c0 2.7818 2.2182 5 5 5h72c2.7818 0 5-2.2182 5-5v-72c0-.364-.052-.721-.125-1.0625-.044-.2069-.088-.3977-.156-.5937-.008-.022-.024-.0407-.031-.0626-.063-.1737-.139-.3674-.219-.5312-.042-.0828-.079-.17-.125-.25-.055-.0972-.127-.1884-.188-.2812-.094-.141-.205-.276-.312-.4063-.143-.1745-.303-.347-.469-.5-.011-.0102-.02-.0211-.031-.0313-.139-.1255-.285-.2344-.438-.3437-.102-.0731-.204-.1534-.312-.2187-.0074-.0045-.02384.0044-.03125 0-.23204-.13873-.46255-.27478-.71875-.375.30153.0968.59646.20414.875.34375.55709.27922 1.0601.66569 1.5 1.0938.21997.21403.40937.44186.59375.6875s.35541.50774.5.78125c.14012.26505.27614.52473.375.8125.01041.03078.02133.06274.03125.09375.09046.27808.1388.5794.1875.875.053.318.094.634.094.969v72c0 3.324-2.676 6-6 6h-72z" fill="url(#e)" opacity=".4"/><g enable-background="new" transform="translate(36.438146 16.951222)"><g fill="#fffffd" transform="matrix(1.0511003 0 0 1.0511003 -42.792166 -17.68328)"><path d="m41.606208 18.505581c.266313 0 .39947-.09111.399472-.273323-.000002-.05607-.01227-.103372-.03679-.141918-.02278-.0403-.05431-.07446-.09461-.102496-.0403-.02978-.08673-.05519-.139289-.07621-.05081-.02102-.105125-.04205-.162943-.06307-.06658-.02278-.129653-.04818-.189223-.07622-.05957-.02979-.111257-.06395-.155059-.102497-.0438-.0403-.07884-.0876-.105124-.141917-.02453-.05431-.03679-.120016-.03679-.197108 0-.159437.05431-.283834.162942-.373191.108628-.08935.25843-.134032.449406-.134033.11038.000001.210248.01227.299604.03679.09111.02278.157685.04818.199736.07622l-.08147.20762c-.03679-.02277-.09198-.04468-.165571-.0657-.07184-.02277-.155935-.03416-.252298-.03417-.04906.000002-.09461.0053-.136661.01577-.04205.01051-.07884.02628-.110381.04731-.03154.02103-.05694.04818-.07621.08147-.01752.03154-.02628.06921-.02628.113009 0 .04906.0096.09023.02891.123521.01927.03329.04643.06308.08147.08936.03504.02453.07534.04731.120893.06833.04731.02103.09899.04205.155058.06308.07884.03154.150677.06307.215504.09461.06658.03154.12352.06921.170827.113009.04906.0438.08673.09636.113009.157686.02628.05957.03942.132282.03942.218133-.000001.159439-.0587.282083-.176083.367935-.115637.08585-.279456.128777-.491455.128777-.07184 0-.138414-.0053-.199736-.01577-.05957-.0088-.113009-.01927-.160315-.03154-.04731-.01402-.08848-.02803-.123521-.04205-.03329-.01577-.05957-.02891-.07884-.03942l.07621-.210249c.0403.02278.10162.04818.183967.07622.08235.02803.183091.04205.302233.04205"/><path d="m43.012901 18.68692v-.730613c-.120894-.187471-.234778-.372314-.341654-.55453-.106876-.182214-.20762-.360925-.302232-.536134h.299604c.06658.143672.141041.289969.223389.438894.08235.147175.167322.289093.254926.425753.08585-.13666.16995-.278578.252298-.425753.08235-.148925.157685-.295222.226017-.438894h.283836c-.09461.175209-.195357.35392-.302232.536134-.106878.180464-.219886.363555-.339026.549274v.735869z"/><path d="m44.573092 18.505581c.266314 0 .399471-.09111.399472-.273323-.000001-.05607-.01227-.103372-.03679-.141918-.02278-.0403-.05431-.07446-.09461-.102496-.0403-.02978-.08673-.05519-.13929-.07621-.05081-.02102-.105125-.04205-.162942-.06307-.06658-.02278-.129654-.04818-.189224-.07622-.05957-.02979-.111257-.06395-.155058-.102497-.0438-.0403-.07884-.0876-.105124-.141917-.02453-.05431-.03679-.120016-.03679-.197108 0-.159437.05431-.283834.162943-.373191.108628-.08935.258429-.134032.449406-.134033.110379.000001.210247.01227.299604.03679.09111.02278.157685.04818.199736.07622l-.08147.20762c-.03679-.02277-.09198-.04468-.16557-.0657-.07184-.02277-.155935-.03416-.252298-.03417-.04906.000002-.09461.0053-.136662.01577-.04205.01051-.07884.02628-.11038.04731s-.05694.04818-.07621.08147c-.01752.03154-.02628.06921-.02628.113009-.000001.04906.0096.09023.02891.123521.01927.03329.04643.06308.08147.08936.03504.02453.07534.04731.120893.06833.04731.02103.09899.04205.155058.06308.07884.03154.150677.06307.215505.09461.06658.03154.12352.06921.170827.113009.04906.0438.08673.09636.113008.157686.02628.05957.03942.132282.03942.218133-.000002.159439-.0587.282083-.176083.367935-.115638.08585-.279456.128777-.491456.128777-.07184 0-.138414-.0053-.199736-.01577-.05957-.0088-.113009-.01927-.160314-.03154-.04731-.01402-.08848-.02803-.123521-.04205-.03329-.01577-.05957-.02891-.07884-.03942l.07621-.210249c.0403.02278.10162.04818.183968.07622.08235.02803.183091.04205.302232.04205"/><path d="m46.762961 16.865643v.220761h-.572927v1.600516h-.254927v-1.600516h-.572926v-.220761z"/><path d="m47.02959 18.68692v-1.821277h1.111689v.218133h-.856763v.54139h.762151v.212876h-.762151v.630745h.922465v.218133z"/><path d="m49.345772 18.434622c-.01752-.04205-.04117-.09549-.07096-.160314-.02803-.06483-.0587-.134909-.09198-.210249-.03329-.07534-.06921-.152429-.107753-.231273-.03679-.08059-.07184-.155933-.105124-.226017-.03329-.07183-.06483-.135784-.09461-.191852-.02803-.05607-.05081-.09899-.06833-.128777-.01927.206746-.03504.43101-.04731.672795-.01226.240034-.02278.482696-.03154.727985h-.24967c.007-.157686.01489-.316248.02365-.475687.0088-.16119.0184-.318876.02891-.473059.01226-.155933.02453-.307487.03679-.454662.01402-.147172.02891-.286462.04468-.417869h.223389c.04731.07709.09811.168201.15243.273323.05431.105126.108627.215506.162942.331141.05431.113886.106876.228647.157687.344282.05081.113886.09724.218134.139289.312745.04205-.09461.08848-.198859.13929-.312745.05081-.115635.103371-.230396.157686-.344282.05431-.115635.108627-.226015.162943-.331141.05431-.105122.105122-.19623.15243-.273323h.223389c.05957.586945.104246 1.194037.134033 1.821277h-.24967c-.0088-.245289-.01928-.487951-.03154-.727985-.01227-.241785-.02803-.466049-.04731-.672795-.01752.02979-.04118.07271-.07096.128777-.02803.05607-.0587.120018-.09198.191852-.03329.07008-.06921.145423-.107752.226017-.0368.07884-.07184.155935-.105124.231273-.03329.07534-.06483.145423-.09461.210249-.02803.06483-.05081.118265-.06833.160314h-.204992"/><path d="m52.240794 18.434622c-.01752-.04205-.04118-.09549-.07096-.160314-.02803-.06483-.0587-.134909-.09198-.210249-.03329-.07534-.06921-.152429-.107753-.231273-.03679-.08059-.07184-.155933-.105124-.226017-.03329-.07183-.06483-.135784-.09461-.191852-.02803-.05607-.05081-.09899-.06833-.128777-.01927.206746-.03504.43101-.04731.672795-.01226.240034-.02278.482696-.03154.727985h-.24967c.007-.157686.01489-.316248.02365-.475687.0088-.16119.0184-.318876.02891-.473059.01226-.155933.02453-.307487.03679-.454662.01402-.147172.02891-.286462.04468-.417869h.223389c.04731.07709.09811.168201.15243.273323.05431.105126.108627.215506.162942.331141.05431.113886.106876.228647.157687.344282.05081.113886.09724.218134.139289.312745.04205-.09461.08848-.198859.13929-.312745.05081-.115635.103371-.230396.157686-.344282.05431-.115635.108627-.226015.162943-.331141.05431-.105122.105122-.19623.15243-.273323h.223389c.05957.586945.104246 1.194037.134033 1.821277h-.24967c-.0088-.245289-.01928-.487951-.03154-.727985-.01227-.241785-.02804-.466049-.04731-.672795-.01752.02979-.04118.07271-.07096.128777-.02804.05607-.0587.120018-.09198.191852-.03329.07008-.06921.145423-.107752.226017-.03679.07884-.07184.155935-.105124.231273-.03329.07534-.06483.145423-.09461.210249-.02803.06483-.05081.118265-.06833.160314h-.204992"/><path d="m53.639192 17.774968c0-.155933.02278-.293471.06833-.412613.04731-.119139.11038-.218131.189223-.296976.0806-.08059.173455-.14104.27858-.181339.106875-.0403.219883-.06044.339025-.06045.117388.000001.227768.02015.331141.06045.105123.0403.197107.100746.275951.181339.07884.07885.14104.177837.186596.296976.0473.119142.07096.25668.07096.412613-.000002.155935-.02366.293472-.07096.412612-.04556.119141-.107754.219009-.186596.299604-.07884.07884-.170828.138414-.275951.178711-.103373.0403-.213753.06045-.331141.06045-.119142 0-.23215-.02015-.339025-.06045-.105125-.0403-.197985-.09987-.27858-.178711-.07884-.08059-.141917-.180463-.189223-.299604-.04555-.11914-.06833-.256677-.06833-.412612m.268067 0c-.000001.110381.01402.211125.04205.302232.02803.08936.06745.165571.118264.228645.05256.06307.115636.112133.189224.147174.07534.03329.159437.04993.252298.04993.09286 0 .176082-.01665.24967-.04993.07359-.03504.135784-.0841.186595-.147174.05256-.06307.09286-.139289.120893-.228645.02803-.09111.04205-.191851.04205-.302232-.000002-.11038-.01402-.210248-.04205-.299604-.02803-.09111-.06833-.168198-.120893-.231274-.05081-.06307-.113009-.111254-.186595-.144545-.07359-.03504-.156811-.05256-.24967-.05256-.09286.000001-.17696.01752-.252298.05256-.07359.03329-.136662.08147-.189224.144545-.05081.06308-.09023.140167-.118264.231274-.02803.08936-.04205.189224-.04205.299604"/><path d="m57.00407 18.68692c-.03855-.06483-.08322-.137537-.134033-.218133-.04906-.08059-.102498-.163818-.160315-.24967-.05782-.0876-.118265-.176082-.181339-.265438-.06132-.08936-.122646-.175206-.183967-.257554-.06132-.0841-.120894-.162942-.178711-.23653-.05782-.07359-.111257-.138412-.160315-.19448v1.421805h-.24967v-1.821277h.202364c.08235.08761.16995.190102.262811.307489.09461.115638.18747.235654.278579.36005.09286.122646.179586.243539.260182.362679.08235.119141.151553.225141.207621.318v-1.348218h.24967v1.821277z"/><path d="m57.670336 16.865643h.254926v1.821277h-.254926z"/><path d="m59.595505 16.865643v.220761h-.572927v1.600516h-.254926v-1.600516h-.572927v-.220761z"/><path d="m59.716685 17.774968c0-.155933.02278-.293471.06833-.412613.04731-.119139.11038-.218131.189223-.296976.0806-.08059.173455-.14104.278579-.181339.106876-.0403.219884-.06044.339026-.06045.117387.000001.227768.02015.331141.06045.105123.0403.197106.100746.275951.181339.07884.07885.14104.177837.186596.296976.0473.119142.07096.25668.07096.412613-.000001.155935-.02365.293472-.07096.412612-.04556.119141-.107754.219009-.186596.299604-.07885.07884-.170828.138414-.275951.178711-.103373.0403-.213754.06045-.331141.06045-.119142 0-.23215-.02015-.339026-.06045-.105124-.0403-.197984-.09987-.278579-.178711-.07884-.08059-.141918-.180463-.189223-.299604-.04555-.11914-.06833-.256677-.06833-.412612m.268067 0c-.000001.110381.01402.211125.04205.302232.02803.08936.06745.165571.118265.228645.05256.06307.115636.112133.189224.147174.07534.03329.159437.04993.252298.04993.09286 0 .176082-.01665.24967-.04993.07359-.03504.135784-.0841.186595-.147174.05256-.06307.09286-.139289.120893-.228645.02803-.09111.04205-.191851.04205-.302232-.000002-.11038-.01402-.210248-.04205-.299604-.02804-.09111-.06833-.168198-.120893-.231274-.05081-.06307-.11301-.111254-.186595-.144545-.07359-.03504-.156812-.05256-.24967-.05256-.09286.000001-.17696.01752-.252298.05256-.07359.03329-.136663.08147-.189224.144545-.05081.06308-.09023.140167-.118265.231274-.02803.08936-.04205.189224-.04205.299604"/><path d="m62.724142 17.92477c.02803.03504.06307.08147.105124.139289.0438.05607.08848.119142.134033.189224.04555.06833.09023.140166.134033.215504.04555.07534.0841.14805.115637.218133h-.278579c-.03504-.06658-.07359-.134033-.115637-.202364-.0403-.06833-.08147-.133157-.123521-.19448-.04205-.06307-.0841-.121768-.126149-.176083-.0403-.05431-.07709-.101619-.11038-.141917-.02278.0018-.04643.0026-.07096.0026-.02278 0-.04643 0-.07096 0h-.228645v.712216h-.254926v-1.794996c.07183-.01752.151554-.02891.239157-.03416.08936-.007.170827-.01051.244414-.01051.255801.000001.450281.04818.58344.144545.134908.09637.202362.240035.202364.43101-.000002.120894-.03242.224266-.09724.310116-.06308.08585-.156812.149803-.281207.191852m-.38633-.854114c-.108629.000002-.191852.0026-.24967.0079v.685935h.181339c.0876.000001.166446-.0044.23653-.01314.07008-.0088.128776-.0254.176083-.04993.04906-.02453.08673-.05869.113008-.102496.02628-.04555.03942-.105123.03942-.178712-.000001-.06833-.01314-.125271-.03942-.170826-.02628-.04555-.0622-.08147-.107752-.107753-.0438-.02628-.09636-.04468-.157686-.05519-.05957-.01051-.123522-.01577-.191852-.01577"/></g><path d="m48 60v3h-3v1h3v3h1v-3h3v-1h-3v-3z" fill="url(#m)" opacity=".3"/><path d="m48 68v3h-3v1h3v3h1v-3h3v-1h-3v-3z" fill="url(#n)" opacity=".2"/><path d="m6.4037353-8.2674521 23.9999997 80.0000001h17.65625c.220137-.625762.34375-1.297112.34375-2v-72.0000001c0-3.324-2.676-6-6-6z" fill="url(#o)" opacity=".15"/></g><path d="m44.54508 30.589344c-.59058.000046-.94106.247357-1.21875.53125-.20786.212507-.35432.454916-.4375.625-.18042.368912-.29458.762037-.40625 1.21875-.22503.920361-.4204 2.112886-.59375 3.53125-.34732 2.841847-.61628 6.556791-.84375 10.28125-.33654 5.510204-.45804 8.882967-.53125 11.03125-.75016-.268515-1.53242-.464445-2.09375-.5625-.77484-.135353-1.24742-.257475-1.71875-.71875-.46691-.456953-1.04109-1.418311-1.40625-3.40625a.9328894.9328894 0 0 0 -1-.78125l-1.03125.09375a.9328894.9328894 0 0 0 -.84375.9375v.03125c.00001.02294-.00098.158 0 .0625-.001.1216.005 1.289489-.21875 2.53125-.11385.632387-.30998 1.262262-.46875 1.5625-.0562.106222-.0695.0913-.0937.125h-18.687549v2.875h18.906249c1.19413 0 1.97292-.895897 2.375-1.65625.10721-.202739.13289-.44161.21875-.65625.0722.08139.11001.205408.1875.28125 1.04427 1.021992 2.29551 1.364515 3.25 1.53125.93419.163189 1.6301.284372 1.84375.40625.28725.163861.46572.261454.625 1.375.001.02813-.004.03464 0 .0625a.9328894.9328894 0 0 0 .96875.8125l1-.03125a.9328894.9328894 0 0 0 .90625-.9375s-.00002-.06191 0-.0625c-.002.05334-.001-.502135.0312-1.3125.0323-.810365.0948-1.936642.15625-3.3125.12295-2.751716.30677-6.418188.53125-10.09375.12562-2.056757.28745-3.735049.4375-5.625.17305 2.750546.36122 5.48551.5 8.65625.19576 4.472504.36593 8.940227.53125 12.3125.0832 1.69688.19258 3.15456.28125 4.15625.0437.49316.093.85798.15625 1.21875.0306.17463.0636.35713.125.53125-.0197-.05585.0413.18785.21875.4375.22234.31261.61816.63226 1.21875.625.5774-.0067 1.04104-.39872 1.1875-.5625.17389-.19444.30266-.41399.375-.5625.16989-.34879.29321-.72409.40625-1.125.21861-.77528.44446-1.77278.625-2.78125.35337-1.973819.59375-3.90625.59375-3.90625a.9328894.9328894 0 0 0 0-.09375v-.03125c.20451.02487.48242.103847.78125.1875.60774.170172 1.40872.462697 2.3125.625.88629.159162 1.96951.217612 2.96875-.34375 2.00947-1.128894 2.5813-3.350976 3.1875-4.90625.30562-.784096.63162-1.48398.90625-1.84375.31-.406103.31422-.414652.6875-.4375.37372-.02287.38997-.03505.75.46875.35647.498814.7746 1.418008 1.1875 2.375.40856.946918.81467 2.035689 1.59375 2.96875.79202.948548 2.03651 1.682158 3.53125 1.5625.97491-.07805 1.81321-.414454 2.40625-.9375.57805-.50983.85178-1.096943 1.03125-1.46875.19258-.398966.32142-.633947.3125-.625.0333-.03336-.0297-.03543.40625-.0625.0622.07113.33641.493882.78125.96875.9281.990748 2.62498 1.926008 5.4375 1.8125h.0312 2.03125v-2.875h-2.09375-.0312a.9328894.9328894 0 0 0 -.0312 0c-1.12916.0494-1.83286-.08167-2.28125-.25-.44839-.168334-.6729-.342542-.9375-.625-.25445-.271633-.51722-.653373-.9375-1.0625-.47364-.461069-1.23923-.900689-2.15625-.84375-.91189.05662-1.69701.383028-2.25.9375-.51489.516265-.72962 1.073818-.875 1.375-.15157.314001-.29302.521444-.375.59375-.12158.107231-.13635.145881-.65625.1875-.56557.04528-.71941-.0455-1.125-.53125-.38528-.461427-.81506-1.314362-1.21875-2.25-.39934-.925554-.77787-1.951967-1.4375-2.875-.69031-.965965-1.84684-1.806552-3.28125-1.71875-1.23663.0757-2.21901.775337-2.84375 1.59375-.61389.804198-.93031 1.679802-1.25 2.5-.65008 1.66786-1.33591 3.130783-1.9375 3.46875-.0995.05589-.46259.133371-1.03125.03125-.58311-.104716-1.32631-.356361-2.0625-.5625-.71028-.198885-1.57596-.485582-2.5625-.21875-.55983.151423-1.0455.517797-1.375 1.03125-.0177.02751-.0146.06563-.0312.09375-.11928-2.754965-.23701-5.50364-.375-8.65625-.19631-4.485168-.42239-9.002043-.71875-12.40625-.14818-1.702134-.3319-3.117364-.53125-4.1875-.0989-.530773-.18476-.996614-.34375-1.40625-.0704-.181399-.19938-.434814-.375-.65625-.18774-.236721-.5967-.656304-1.28125-.65625z" fill="url(#r)" opacity=".2"/><path d="m44.54508 31.526844c-.23222.000018-.44889.133856-.5625.25-.1136.116144-.18246.236902-.25.375-.13508.276196-.23998.606854-.34375 1.03125-.20753.848791-.3912 2.035878-.5625 3.4375-.3426 2.803244-.61677 6.502318-.84375 10.21875-.38626 6.324383-.53625 10.911641-.59375 12.65625-.21128-.25237-.39311-.537398-.65625-.6875-.79542-.453743-1.65715-.514475-2.46875-.65625s-1.55831-.322406-2.21875-.96875c-.66043-.646344-1.27055-1.806441-1.65625-3.90625l-1.03125.09375s.00003.09065 0 .09375c-.0009.08957-.009 1.348913-.25 2.6875-.12466.692447-.31928 1.38381-.5625 1.84375s-.43151.625-.6875.625h-18.906249v1h18.906249c.74821 0 1.23478-.536513 1.5625-1.15625.32773-.619737.553-1.377878.6875-2.125.0255-.141778.0102-.141153.0312-.28125.33755.770649.70752 1.373339 1.15625 1.8125.8584.840081 1.87034 1.127587 2.75 1.28125s1.64071.205914 2.15625.5c.50516.288166.91176.790214 1.09375 2.0625.004.02614-.004.03569 0 .0625l1-.03125s-.00002-.09316 0-.09375c.003-.09262.26886-7.383827.71875-14.75.22637-3.706446.4747-7.42356.8125-10.1875.1689-1.38197.34177-2.506264.53125-3.28125.0389-.159303.11748-.218517.15625-.34375.0486.185851.077.305054.125.5625.17666.948355.35447 2.359555.5 4.03125.29107 3.34339.49159 7.805236.6875 12.28125s.36637 8.949226.53125 12.3125c.0824 1.68164.19339 3.10117.28125 4.09375.0439.49629.0742.86669.125 1.15625.0254.14478.0525.25818.0937.375.0206.0584.0354.13671.0937.21875.0583.082.21396.22183.46875.21875.25682-.003.39902-.13708.5-.25.10099-.11292.15545-.21378.21875-.34375.12661-.25994.2379-.59336.34375-.96875.2117-.75078.45176-1.71984.625-2.6875.34647-1.935316.5625-3.84375.5625-3.84375v-.03125-.03125c.0164-.359621.0832-.573719.15625-.6875.073-.113781.14821-.151516.28125-.1875.26608-.07197.85575-.0016 1.53125.1875.67551.189147 1.43506.484262 2.21875.625.7837.140738 1.62171.155633 2.34375-.25 1.59165-.894167 2.15181-2.822587 2.78125-4.4375.31472-.807457.64332-1.554307 1.03125-2.0625s.75749-.774702 1.375-.8125c.66237-.04054 1.10961.241267 1.5625.875s.86626 1.569422 1.28125 2.53125.82309 1.97673 1.46875 2.75 1.57787 1.312582 2.75 1.21875c.81905-.06557 1.42895-.321654 1.84375-.6875s.63367-.817025.8125-1.1875.30451-.678982.5-.875c.1955-.196018.45343-.309813 1-.34375.33938-.02107.46319.03164.6875.25.22431.218361.46216.623899.84375 1.03125.75932.810576 2.10802 1.605364 4.71875 1.5.0133-.000536.0179.000584.0312 0h2.0625v-1h-2.09375-.0312c-2.42693.106185-3.30771-.515193-3.9375-1.1875-.31489-.336154-.56636-.700385-.90625-1.03125s-.82126-.600763-1.4375-.5625c-.73273.0455-1.29362.292654-1.65625.65625s-.51583.769346-.6875 1.125-.3521.66187-.59375.875-.56182.384911-1.21875.4375c-.83891.06716-1.39336-.260743-1.90625-.875s-.93335-1.517564-1.34375-2.46875-.78509-1.937012-1.34375-2.71875c-.55865-.781738-1.4141-1.377056-2.46875-1.3125-.9318.05704-1.65382.560557-2.15625 1.21875s-.80293 1.454935-1.125 2.28125c-.64414 1.65263-1.24383 3.319579-2.34375 3.9375-.40816.229301-.98218.246051-1.65625.125s-1.44057-.362103-2.15625-.5625-1.39812-.398447-2.0625-.21875c-.33219.08985-.64062.308464-.84375.625-.19813.308745-.31928.700406-.34375 1.15625-.00062.0115.00053.01965 0 .03125-.004.03027-.22454 1.89353-.5625 3.78125-.1377.76919-.31184 1.46259-.46875 2.09375-.0798-.9548-.14169-2.20938-.21875-3.78125-.16435-3.352461-.33513-7.831814-.53125-12.3125s-.42496-8.969041-.71875-12.34375c-.14689-1.687354-.31164-3.113875-.5-4.125-.0942-.505563-.18964-.902185-.3125-1.21875-.0614-.158283-.11335-.273353-.21875-.40625s-.29399-.312521-.5625-.3125z" fill="url(#q)"/></svg>