<svg height="96" width="96" xmlns="http://www.w3.org/2000/svg" xmlns:xlink="http://www.w3.org/1999/xlink"><linearGradient id="a"><stop offset="0" stop-color="#fefefe"/><stop offset="1" stop-color="#c8c8c8"/></linearGradient><linearGradient id="b"><stop offset="0" stop-color="#fefefe"/><stop offset=".57634538" stop-color="#f5f5f5"/><stop offset="1" stop-color="#c8c8c8"/></linearGradient><linearGradient id="c"><stop offset="0" stop-color="#fefefe"/><stop offset="1" stop-color="#fefefe" stop-opacity="0"/></linearGradient><linearGradient id="d" gradientUnits="userSpaceOnUse" x1="48" x2="48" y1="90" y2="5.987717"><stop offset="0" stop-color="#6c7b89"/><stop offset="1" stop-color="#afb8c1"/></linearGradient><linearGradient id="e" gradientUnits="userSpaceOnUse" x1="36.357143" x2="36.357143" xlink:href="#c" y1="6" y2="63.893143"/><radialGradient id="f" cx="48" cy="90.171875" gradientTransform="matrix(1.1573129 0 0 .99590774 -7.551021 .197132)" gradientUnits="userSpaceOnUse" r="42" xlink:href="#c"/><linearGradient id="g" gradientTransform="matrix(1.0058652 0 0 .994169 100 0)" gradientUnits="userSpaceOnUse" x1="45.447727" x2="45.447727" y1="92.539597" y2="7.01654"><stop offset="0"/><stop offset="1" stop-opacity=".588235"/></linearGradient><linearGradient id="h" gradientTransform="matrix(1.0238095 0 0 -1.0119048 -1.142857 98.071429)" gradientUnits="userSpaceOnUse" x1="32.251034" x2="32.251034" xlink:href="#g" y1="6.131708" y2="90.238609"/><linearGradient id="i" gradientTransform="matrix(1.0238095 0 0 1.0119048 -1.142857 -98.071429)" gradientUnits="userSpaceOnUse" x1="32.251034" x2="32.251034" xlink:href="#g" y1="6.131708" y2="90.238609"/><linearGradient id="j" gradientTransform="translate(0 -97)" gradientUnits="userSpaceOnUse" x1="32.251034" x2="32.251034" xlink:href="#g" y1="6.131708" y2="90.238609"/><radialGradient id="k" cx="25.181768" cy="25.483049" gradientUnits="userSpaceOnUse" r="6.593251" xlink:href="#b"/><linearGradient id="l" gradientUnits="userSpaceOnUse" x1="50.07032" x2="50.087269" xlink:href="#a" y1="23.667904" y2="27.379768"/><radialGradient id="m" cx="69.355932" cy="25.482749" gradientUnits="userSpaceOnUse" r="6.593251" xlink:href="#b"/><radialGradient id="n" cx="69.971126" cy="68.748751" gradientUnits="userSpaceOnUse" r="6.593251" xlink:href="#b"/><linearGradient id="o" gradientUnits="userSpaceOnUse" x1="50.685514" x2="50.702463" xlink:href="#a" y1="66.933906" y2="70.64577"/><radialGradient id="p" cx="25.796962" cy="68.749051" gradientUnits="userSpaceOnUse" r="6.593251" xlink:href="#b"/><linearGradient id="q" gradientTransform="matrix(0 1 -1 0 50.892764 .346406)" gradientUnits="userSpaceOnUse" x1="50.07032" x2="50.087269" xlink:href="#a" y1="23.667904" y2="27.379768"/><linearGradient id="r" gradientTransform="matrix(0 1 -1 0 94.789386 .490662)" gradientUnits="userSpaceOnUse" x1="50.07032" x2="50.087269" xlink:href="#a" y1="23.667904" y2="27.379768"/><radialGradient id="s" cx="7.503623" cy="12.333249" gradientUnits="userSpaceOnUse" r="6.593251" xlink:href="#b"/><radialGradient id="t" cx="51.677787" cy="12.332949" gradientUnits="userSpaceOnUse" r="6.593251" xlink:href="#b"/><linearGradient id="u" gradientTransform="matrix(0 1 -1 0 77.111242 -12.659138)" gradientUnits="userSpaceOnUse" x1="50.07032" x2="50.087269" xlink:href="#a" y1="23.667904" y2="27.379768"/><linearGradient id="v" gradientTransform="matrix(0 1 -1 0 33.214619 -12.803395)" gradientUnits="userSpaceOnUse" x1="50.07032" x2="50.087269" xlink:href="#a" y1="23.667904" y2="27.379768"/><radialGradient id="w" cx="52.292981" cy="55.598951" gradientUnits="userSpaceOnUse" r="6.593251" xlink:href="#b"/><linearGradient id="x" gradientUnits="userSpaceOnUse" x1="33.007369" x2="33.024318" xlink:href="#a" y1="53.784106" y2="57.49597"/><radialGradient id="y" cx="8.118817" cy="55.599251" gradientUnits="userSpaceOnUse" r="6.593251" xlink:href="#b"/><linearGradient id="z" gradientUnits="userSpaceOnUse" x1="32.392175" x2="32.409124" xlink:href="#a" y1="10.518104" y2="14.229968"/><linearGradient id="A" gradientTransform="matrix(.3886687 .3886687 -.70710678 .70710678 -2.278649 -34.137372)" gradientUnits="userSpaceOnUse" x1="50.07032" x2="50.087269" xlink:href="#a" y1="23.667904" y2="27.379768"/><linearGradient id="B" gradientTransform="matrix(-.3886687 .3886687 .70710677 .70710677 60.361736 -33.617391)" gradientUnits="userSpaceOnUse" x1="50.07032" x2="50.087269" xlink:href="#a" y1="23.667904" y2="27.379768"/><linearGradient id="C" gradientTransform="matrix(-.3886687 -.3886687 .70710677 -.70710677 61.624545 100.57677)" gradientUnits="userSpaceOnUse" x1="50.07032" x2="50.087269" xlink:href="#a" y1="23.667904" y2="27.379768"/><linearGradient id="D" gradientTransform="matrix(.3886687 -.3886687 -.70710675 -.70710675 -2.204366 100.94819)" gradientUnits="userSpaceOnUse" x1="50.07032" x2="50.087269" xlink:href="#a" y1="23.667904" y2="27.379768"/><g><g fill="url(#h)"><path d="m12 95.03125c-5.5110903 0-10.03125-4.52016-10.03125-10.03125v-71c0-5.5110902 4.5201598-10.03125 10.03125-10.03125h72c5.51109 0 10.03125 4.5201597 10.03125 10.03125v71c0 5.51109-4.52016 10.03125-10.03125 10.03125z" opacity=".08"/><path d="m12 94.03125c-4.971633 0-9.03125-4.059617-9.03125-9.03125v-71c0-4.9716329 4.0596171-9.03125 9.03125-9.03125h72c4.971633 0 9.03125 4.059617 9.03125 9.03125v71c0 4.971633-4.059617 9.03125-9.03125 9.03125z" opacity=".1"/><path d="m12 93c-4.4091333 0-8-3.590867-8-8v-71c0-4.4091333 3.5908667-8 8-8h72c4.409133 0 8 3.5908667 8 8v71c0 4.409133-3.590867 8-8 8z" opacity=".2"/></g><rect fill="url(#i)" height="85" opacity=".3" rx="7" transform="scale(1 -1)" width="86" x="5" y="-92"/><rect fill="url(#j)" height="84" opacity=".45" rx="6" transform="scale(1 -1)" width="84" x="6" y="-91"/></g><g><path d="m12 6c-3.324 0-6 2.676-6 6v72c0 3.324 2.676 6 6 6h72c3.324 0 6-2.676 6-6v-72c0-3.324-2.676-6-6-6z" fill="url(#d)"/><path d="m12 6c-3.324 0-6 2.676-6 6v2 68 2c0 .334721.04135.6507.09375.96875.0487.295596.09704.596915.1875.875.00988.03038.020892.0636.03125.09375.098865.287771.2348802.547452.375.8125.1445918.273507.3156161.535615.5.78125s.3737765.473472.59375.6875c.439947.428056.94291.814526 1.5 1.09375.278545.139612.5734731.246947.875.34375-.2562018-.100222-.4867109-.236272-.71875-.375-.00741-.0044-.023866.0045-.03125 0-.031933-.0193-.062293-.04251-.09375-.0625-.120395-.0767-.2310226-.163513-.34375-.25-.1061728-.0808-.2132809-.161112-.3125-.25-.1779299-.161433-.3474596-.345388-.5-.53125-.1075789-.130255-.2183939-.265285-.3125-.40625-.025089-.03838-.038446-.08587-.0625-.125-.064763-.103032-.1302275-.204517-.1875-.3125-.1010083-.194706-.2056748-.415701-.28125-.625-.00796-.02181-.023589-.04055-.03125-.0625-.0318251-.09195-.0358045-.186831-.0625-.28125-.0303323-.106618-.0703894-.203031-.09375-.3125-.0728786-.341512-.125-.698205-.125-1.0625v-2-68-2c0-2.781848 2.2181517-5 5-5h2 68 2c2.781848 0 5 2.218152 5 5v2 68 2c0 .364295-.05212.720988-.125 1.0625-.04415.206893-.08838.397658-.15625.59375-.0077.02195-.0233.04069-.03125.0625-.06274.173739-.138383.367449-.21875.53125-.04158.0828-.07904.169954-.125.25-.0546.09721-.126774.18835-.1875.28125-.09411.140965-.204921.275995-.3125.40625-.143174.17445-.303141.346998-.46875.5-.01117.0102-.01998.02115-.03125.03125-.138386.125556-.285091.234436-.4375.34375-.102571.07315-.204318.153364-.3125.21875-.0074.0045-.02384-.0044-.03125 0-.232039.138728-.462548.274778-.71875.375.301527-.0968.596455-.204138.875-.34375.55709-.279224 1.060053-.665694 1.5-1.09375.219973-.214028.409366-.441865.59375-.6875s.355408-.507743.5-.78125c.14012-.265048.276135-.524729.375-.8125.01041-.03078.02133-.06274.03125-.09375.09046-.278085.1388-.579404.1875-.875.0524-.31805.09375-.634029.09375-.96875v-2-68-2c0-3.324-2.676-6-6-6z" fill="url(#e)" opacity=".5"/><path d="m12 90c-3.324 0-6-2.676-6-6v-2-68-2c0-.334721.04135-.6507.09375-.96875.0487-.295596.09704-.596915.1875-.875.0099-.03038.02089-.0636.03125-.09375.09886-.287771.23488-.547452.375-.8125.144592-.273507.315616-.535615.5-.78125s.373776-.473472.59375-.6875c.439947-.428056.94291-.814526 1.5-1.09375.278545-.139612.573473-.246947.875-.34375-.256202.100222-.486711.236272-.71875.375-.0074.0044-.02387-.0045-.03125 0-.03193.0193-.06229.04251-.09375.0625-.120395.0767-.231023.163513-.34375.25-.106173.0808-.213281.161112-.3125.25-.17793.161433-.34746.345388-.5.53125-.107579.130255-.218394.265285-.3125.40625-.02509.03838-.03845.08587-.0625.125-.06476.103032-.130228.204517-.1875.3125-.101008.194706-.205675.415701-.28125.625-.008.02181-.02359.04055-.03125.0625-.03182.09195-.0358.186831-.0625.28125-.03033.106618-.07039.203031-.09375.3125-.072879.341512-.125.698205-.125 1.0625v2 68 2c0 2.781848 2.218152 5 5 5h2 68 2c2.781848 0 5-2.218152 5-5v-2-68-2c0-.364295-.05212-.720988-.125-1.0625-.04415-.206893-.08838-.397658-.15625-.59375-.0077-.02195-.0233-.04069-.03125-.0625-.06274-.173739-.138383-.367449-.21875-.53125-.04158-.0828-.07904-.169954-.125-.25-.0546-.09721-.126774-.18835-.1875-.28125-.09411-.140965-.204921-.275995-.3125-.40625-.143174-.17445-.303141-.346998-.46875-.5-.01117-.0102-.01998-.02115-.03125-.03125-.138386-.125556-.285091-.234436-.4375-.34375-.102571-.07315-.204318-.153364-.3125-.21875-.0074-.0045-.02384.0044-.03125 0-.232039-.138728-.462548-.274778-.71875-.375.301527.0968.596455.204138.875.34375.55709.279224 1.060053.665694 1.5 1.09375.219973.214028.409366.441865.59375.6875s.355408.507743.5.78125c.14012.265048.276135.524729.375.8125.01041.03078.02133.06274.03125.09375.09046.278085.1388.579404.1875.875.0524.31805.09375.634029.09375.96875v2 68 2c0 3.324-2.676 6-6 6z" fill="url(#f)" opacity=".5"/><path d="m-32.815485 14.242684a6.5932508 6.5932508 0 0 0 -6.591796 6.591797 6.5932508 6.5932508 0 0 0 4.74414 6.324219h-.06055v30.857422a6.5932508 6.5932508 0 0 0 -4.068359 6.085937 6.5932508 6.5932508 0 0 0 6.591797 6.591797 6.5932508 6.5932508 0 0 0 6.279297-4.589843v.134765h31.6660192a6.5932508 6.5932508 0 0 0 6.2285098 4.455078 6.5932508 6.5932508 0 0 0 6.59376-6.591797 6.5932508 6.5932508 0 0 0 -5.35547-6.474609v-30.324219h-.60157a6.5932508 6.5932508 0 0 0 5.3418-6.46875 6.5932508 6.5932508 0 0 0 -6.59375-6.591797 6.5932508 6.5932508 0 0 0 -6.3105498 4.689453h-31.5566372a6.5932508 6.5932508 0 0 0 -6.306641-4.689453zm6.279297 8.595703v.134766h31.6660212a6.5932508 6.5932508 0 0 0 .96679 1.824219l-4.68945 4.689453a3.1912851 3.1912851 0 0 0 -1.09570003-.199219 3.1912851 3.1912851 0 0 0 -3.05468997 2.271485h-15.2734392a3.1912851 3.1912851 0 0 0 -3.052735-2.271485 3.1912851 3.1912851 0 0 0 -1.294922.279297l-5.009765-5.007812a6.5932508 6.5932508 0 0 1 0-.002 6.5932508 6.5932508 0 0 0 .83789-1.71875zm-2.169921 3.152344 4.882812 4.882813a3.1912851 3.1912851 0 0 0 -.4375 1.605469 3.1912851 3.1912851 0 0 0 2.292969 3.060546h-.02539v14.9375a3.1912851 3.1912851 0 0 0 -1.96875 2.94336 3.1912851 3.1912851 0 0 0 .183594 1.054687l-4.408203 4.40625a6.5932508 6.5932508 0 0 0 -2.498047-1.189453v-30.533203h-.279297a6.5932508 6.5932508 0 0 0 2.257813-1.167969zm36.1992222.175782a6.5932508 6.5932508 0 0 0 2.5956998 1.136718h-.9160198v30.837891a6.5932508 6.5932508 0 0 0 -1.34961.839844l-4.28711-4.28711a3.1912851 3.1912851 0 0 0 .26563-1.273437 3.1912851 3.1912851 0 0 0 -2.5918-3.132813v-14.677734h-.29297003a3.1912851 3.1912851 0 0 0 2.58594003-3.130859 3.1912851 3.1912851 0 0 0 -.54492-1.777344zm-25.5234412 7.283203v.06445h15.3281212a3.1912851 3.1912851 0 0 0 2.39453997 2.095703h-.43946v14.925784a3.1912851 3.1912851 0 0 0 -1.69725997 1.964844h-15.2734412a3.1912851 3.1912851 0 0 0 -2.320313-2.181641v-14.779297h-.130859a3.1912851 3.1912851 0 0 0 2.138672-2.089843zm.296875 20.941406v.06445h15.3281262a3.1912851 3.1912851 0 0 0 3.01561997 2.15625 3.1912851 3.1912851 0 0 0 1.62891003-.449219l4.26367 4.263672a6.5932508 6.5932508 0 0 0 -.83984 1.771485h-31.5566422a6.5932508 6.5932508 0 0 0 -.935547-1.90625l4.24414-4.244141a3.1912851 3.1912851 0 0 0 1.8125.564453 3.1912851 3.1912851 0 0 0 3.039063-2.220703z" style="opacity:.898;fill:#030000;fill-opacity:.27451;stroke:#000;stroke-width:4;stroke-opacity:.162455" transform="translate(57.982873 4.64681)"/><path d="m-32.815485 14.242684a6.5932508 6.5932508 0 0 0 -6.591796 6.591797 6.5932508 6.5932508 0 0 0 4.74414 6.324219h-.06055v30.857422a6.5932508 6.5932508 0 0 0 -4.068359 6.085937 6.5932508 6.5932508 0 0 0 6.591797 6.591797 6.5932508 6.5932508 0 0 0 6.279297-4.589843v.134765h31.6660192a6.5932508 6.5932508 0 0 0 6.2285098 4.455078 6.5932508 6.5932508 0 0 0 6.59376-6.591797 6.5932508 6.5932508 0 0 0 -5.35547-6.474609v-30.324219h-.60157a6.5932508 6.5932508 0 0 0 5.3418-6.46875 6.5932508 6.5932508 0 0 0 -6.59375-6.591797 6.5932508 6.5932508 0 0 0 -6.3105498 4.689453h-31.5566372a6.5932508 6.5932508 0 0 0 -6.306641-4.689453zm6.279297 8.595703v.134766h31.6660212a6.5932508 6.5932508 0 0 0 .96679 1.824219l-4.68945 4.689453a3.1912851 3.1912851 0 0 0 -1.09570003-.199219 3.1912851 3.1912851 0 0 0 -3.05468997 2.271485h-15.2734392a3.1912851 3.1912851 0 0 0 -3.052735-2.271485 3.1912851 3.1912851 0 0 0 -1.294922.279297l-5.009765-5.007812a6.5932508 6.5932508 0 0 1 0-.002 6.5932508 6.5932508 0 0 0 .83789-1.71875zm-2.169921 3.152344 4.882812 4.882813a3.1912851 3.1912851 0 0 0 -.4375 1.605469 3.1912851 3.1912851 0 0 0 2.292969 3.060546h-.02539v14.9375a3.1912851 3.1912851 0 0 0 -1.96875 2.94336 3.1912851 3.1912851 0 0 0 .183594 1.054687l-4.408203 4.40625a6.5932508 6.5932508 0 0 0 -2.498047-1.189453v-30.533203h-.279297a6.5932508 6.5932508 0 0 0 2.257812-1.167969zm36.1992222.175782a6.5932508 6.5932508 0 0 0 2.5956998 1.136718h-.9160198v30.837891a6.5932508 6.5932508 0 0 0 -1.34961.839844l-4.28711-4.28711a3.1912851 3.1912851 0 0 0 .26563-1.273437 3.1912851 3.1912851 0 0 0 -2.5918-3.132813v-14.677734h-.29297003a3.1912851 3.1912851 0 0 0 2.58594003-3.130859 3.1912851 3.1912851 0 0 0 -.54492-1.777344zm-25.5234412 7.283203v.06445h15.3281212a3.1912851 3.1912851 0 0 0 2.39453997 2.095703h-.43946v14.925784a3.1912851 3.1912851 0 0 0 -1.69725997 1.964844h-15.2734412a3.1912851 3.1912851 0 0 0 -2.320313-2.181641v-14.779297h-.130859a3.1912851 3.1912851 0 0 0 2.138672-2.089843zm.296875 20.941406v.06445h15.3281262a3.1912851 3.1912851 0 0 0 3.01561997 2.15625 3.1912851 3.1912851 0 0 0 1.62891003-.449219l4.26367 4.263672a6.5932508 6.5932508 0 0 0 -.83984 1.771485h-31.5566422a6.5932508 6.5932508 0 0 0 -.935547-1.90625l4.24414-4.244141a3.1912851 3.1912851 0 0 0 1.8125.564453 3.1912851 3.1912851 0 0 0 3.039063-2.220703z" style="opacity:.898;fill:#030000;fill-opacity:.27451;stroke:#000;stroke-width:2;stroke-opacity:.162455" transform="translate(57.982873 4.64681)"/><circle cx="25.181768" cy="25.483049" fill="url(#k)" opacity=".898" r="6.593251"/><path d="m31.460151 23.579888h32v4.040439h-32z" fill="url(#l)" opacity=".898"/><circle cx="69.355934" cy="25.48275" fill="url(#m)" opacity=".898" r="6.593251"/><circle cx="25.796963" cy="68.749054" fill="url(#p)" opacity=".898" r="6.593251"/><path d="m32.075345 66.84589h32v4.040439h-32z" fill="url(#o)" opacity=".898"/><circle cx="69.97113" cy="68.748749" fill="url(#n)" opacity=".898" r="6.593251"/><path d="m27.312876 31.006872v32.799685h-4.040439v-32.799685z" fill="url(#q)" opacity=".898"/><path d="m71.209497 31.151128v32.799685h-4.040439v-32.799685z" fill="url(#r)" opacity=".898"/><g transform="matrix(.48402302 0 0 .48402302 33.295409 31.157498)"><circle cx="7.503624" cy="12.333249" fill="url(#s)" opacity=".898" r="6.593251"/><path d="m13.782006 10.430088h32v4.040439h-32z" fill="url(#z)" opacity=".898"/><circle cx="51.677792" cy="12.33295" fill="url(#t)" opacity=".898" r="6.593251"/><circle cx="8.118817" cy="55.599255" fill="url(#y)" opacity=".898" r="6.593251"/><path d="m14.3972 53.69609h32v4.040439h-32z" fill="url(#x)" opacity=".898"/><circle cx="52.292988" cy="55.598949" fill="url(#w)" opacity=".898" r="6.593251"/><path d="m9.634731 18.656758v31.999999h-4.040439v-31.999999z" fill="url(#v)" opacity=".898"/><path d="m53.531352 18.801014v31.999999h-4.040439v-31.999999z" fill="url(#u)" opacity=".898"/><path d="m-6.7245691-5.2362974 12.4373976 12.437398-2.857022 2.8570224-12.4373974-12.4373984z" fill="url(#A)" opacity=".898"/><path d="m64.807656-4.7163178-12.437398 12.437398 2.857022 2.8570218 12.437398-12.4373978z" fill="url(#B)" opacity=".898"/><path d="m66.070465 71.6757-12.437398-12.437398 2.857022-2.857022 12.437398 12.437398z" fill="url(#C)" opacity=".898"/><path d="m-6.6502877 72.047113 12.437398-12.437398-2.857021-2.857022-12.437397 12.437398z" fill="url(#D)" opacity=".898"/></g></g></svg>