<svg height="96" width="96" xmlns="http://www.w3.org/2000/svg" xmlns:xlink="http://www.w3.org/1999/xlink"><linearGradient id="a"><stop offset="0" stop-color="#fefefe"/><stop offset="1" stop-color="#fefefe" stop-opacity="0"/></linearGradient><linearGradient id="b" gradientUnits="userSpaceOnUse" x1="36.357143" x2="36.357143" xlink:href="#a" y1="6" y2="63.893143"/><filter id="c" color-interpolation-filters="sRGB" height="1.384" width="1.384" x="-.192" y="-.192"><feGaussianBlur stdDeviation="5.28"/></filter><linearGradient id="d" gradientUnits="userSpaceOnUse" x1="48" x2="48" xlink:href="#a" y1="20.220806" y2="138.66119"/><radialGradient id="e" cx="48" cy="90.171875" gradientTransform="matrix(1.1573129 0 0 .99590774 -7.551021 .197132)" gradientUnits="userSpaceOnUse" r="42" xlink:href="#a"/><clipPath id="f"><rect height="84" rx="6" width="84" x="6" y="6"/></clipPath><linearGradient id="g" gradientUnits="userSpaceOnUse" x1="48" x2="48" y1="90" y2="5.987717"><stop offset="0" stop-color="#48914f"/><stop offset="1" stop-color="#78cc80"/></linearGradient><linearGradient id="h" gradientTransform="matrix(1.0058652 0 0 .994169 100 0)" gradientUnits="userSpaceOnUse" x1="45.447727" x2="45.447727" y1="92.539597" y2="7.01654"><stop offset="0"/><stop offset="1" stop-opacity=".588235"/></linearGradient><linearGradient id="i" gradientTransform="matrix(1.0238095 0 0 1.0119048 -1.142857 -98.071429)" gradientUnits="userSpaceOnUse" x1="32.251034" x2="32.251034" xlink:href="#h" y1="6.131708" y2="90.238609"/><linearGradient id="j" gradientTransform="translate(0 -97)" gradientUnits="userSpaceOnUse" x1="32.251034" x2="32.251034" xlink:href="#h" y1="6.131708" y2="90.238609"/><path d="m12-95.03125c-5.5110903 0-10.03125 4.52016-10.03125 10.03125v71c0 5.5110902 4.5201598 10.03125 10.03125 10.03125h72c5.51109 0 10.03125-4.5201597 10.03125-10.03125v-71c0-5.51109-4.52016-10.03125-10.03125-10.03125z" fill="url(#i)" opacity=".08" transform="scale(1 -1)"/><path d="m12-94.03125c-4.971633 0-9.03125 4.059617-9.03125 9.03125v71c0 4.9716329 4.0596171 9.03125 9.03125 9.03125h72c4.971633 0 9.03125-4.059617 9.03125-9.03125v-71c0-4.971633-4.059617-9.03125-9.03125-9.03125z" fill="url(#i)" opacity=".1" transform="scale(1 -1)"/><path d="m12-93c-4.4091333 0-8 3.590867-8 8v71c0 4.4091333 3.5908667 8 8 8h72c4.409133 0 8-3.5908667 8-8v-71c0-4.409133-3.590867-8-8-8z" fill="url(#i)" opacity=".2" transform="scale(1 -1)"/><rect fill="url(#i)" height="85" opacity=".3" rx="7" transform="scale(1 -1)" width="86" x="5" y="-92"/><rect fill="url(#j)" height="84" opacity=".45" rx="6" transform="scale(1 -1)" width="84" x="6" y="-91"/><rect fill="url(#g)" height="84" rx="6" width="84" x="6" y="6"/><path d="m12 6c-3.324 0-6 2.676-6 6v2 68 2c0 .334721.04135.6507.09375.96875.0487.295596.09704.596915.1875.875.00988.03038.020892.0636.03125.09375.098865.287771.2348802.547452.375.8125.1445918.273507.3156161.535615.5.78125s.3737765.473472.59375.6875c.439947.428056.94291.814526 1.5 1.09375.278545.139612.5734731.246947.875.34375-.2562018-.100222-.4867109-.236272-.71875-.375-.00741-.0044-.023866.0045-.03125 0-.031933-.0193-.062293-.04251-.09375-.0625-.120395-.0767-.2310226-.163513-.34375-.25-.1061728-.0808-.2132809-.161112-.3125-.25-.1779299-.161433-.3474596-.345388-.5-.53125-.1075789-.130255-.2183939-.265285-.3125-.40625-.025089-.03838-.038446-.08587-.0625-.125-.064763-.103032-.1302275-.204517-.1875-.3125-.1010083-.194706-.2056748-.415701-.28125-.625-.00796-.02181-.023589-.04055-.03125-.0625-.0318251-.09195-.0358045-.186831-.0625-.28125-.0303323-.106618-.0703894-.203031-.09375-.3125-.0728786-.341512-.125-.698205-.125-1.0625v-2-68-2c0-2.781848 2.2181517-5 5-5h2 68 2c2.781848 0 5 2.218152 5 5v2 68 2c0 .364295-.05212.720988-.125 1.0625-.04415.206893-.08838.397658-.15625.59375-.0077.02195-.0233.04069-.03125.0625-.06274.173739-.138383.367449-.21875.53125-.04158.0828-.07904.169954-.125.25-.0546.09721-.126774.18835-.1875.28125-.09411.140965-.204921.275995-.3125.40625-.143174.17445-.303141.346998-.46875.5-.01117.0102-.01998.02115-.03125.03125-.138386.125556-.285091.234436-.4375.34375-.102571.07315-.204318.153364-.3125.21875-.0074.0045-.02384-.0044-.03125 0-.232039.138728-.462548.274778-.71875.375.301527-.0968.596455-.204138.875-.34375.55709-.279224 1.060053-.665694 1.5-1.09375.219973-.214028.409366-.441865.59375-.6875s.355408-.507743.5-.78125c.14012-.265048.276135-.524729.375-.8125.01041-.03078.02133-.06274.03125-.09375.09046-.278085.1388-.579404.1875-.875.0524-.31805.09375-.634029.09375-.96875v-2-68-2c0-3.324-2.676-6-6-6z" fill="url(#b)" opacity=".35"/><path d="m12 90c-3.324 0-6-2.676-6-6v-2-68-2c0-.334721.04135-.6507.09375-.96875.0487-.295596.09704-.596915.1875-.875.00988-.03038.020892-.0636.03125-.09375.098865-.287771.2348802-.547452.375-.8125.1445918-.273507.3156161-.535615.5-.78125s.3737765-.473472.59375-.6875c.439947-.428056.94291-.814526 1.5-1.09375.278545-.139612.5734731-.246947.875-.34375-.2562018.100222-.4867109.236272-.71875.375-.00741.0044-.023866-.0045-.03125 0-.031933.0193-.062293.04251-.09375.0625-.120395.0767-.2310226.163513-.34375.25-.1061728.0808-.2132809.161112-.3125.25-.1779299.161433-.3474596.345388-.5.53125-.1075789.130255-.2183939.265285-.3125.40625-.025089.03838-.038446.08587-.0625.125-.064763.103032-.1302275.204517-.1875.3125-.1010083.194706-.2056748.415701-.28125.625-.00796.02181-.023589.04055-.03125.0625-.0318251.09195-.0358045.186831-.0625.28125-.0303323.106618-.0703894.203031-.09375.3125-.0728786.341512-.125.698205-.125 1.0625v2 68 2c0 2.781848 2.2181517 5 5 5h2 68 2c2.781848 0 5-2.218152 5-5v-2-68-2c0-.364295-.05212-.720988-.125-1.0625-.04415-.206893-.08838-.397658-.15625-.59375-.0077-.02195-.0233-.04069-.03125-.0625-.06274-.173739-.138383-.367449-.21875-.53125-.04158-.0828-.07904-.169954-.125-.25-.0546-.09721-.126774-.18835-.1875-.28125-.09411-.140965-.204921-.275995-.3125-.40625-.143174-.17445-.303141-.346998-.46875-.5-.01117-.0102-.01998-.02115-.03125-.03125-.138386-.125556-.285091-.234436-.4375-.34375-.102571-.07315-.204318-.153364-.3125-.21875-.0074-.0045-.02384.0044-.03125 0-.232039-.138728-.462548-.274778-.71875-.375.301527.0968.596455.204138.875.34375.55709.279224 1.060053.665694 1.5 1.09375.219973.214028.409366.441865.59375.6875s.355408.507743.5.78125c.14012.265048.276135.524729.375.8125.01041.03078.02133.06274.03125.09375.09046.278085.1388.579404.1875.875.0524.31805.09375.634029.09375.96875v2 68 2c0 3.324-2.676 6-6 6z" fill="url(#e)" opacity=".2"/><rect height="66" rx="12" style="opacity:.1;stroke:#fefefe;stroke-width:.5;stroke-linecap:round;clip-path:url(#f);fill:url(#d);filter:url(#c)" width="66" x="15" y="15"/><a><path d="m17 12.0625c-2.709011 0-4.9375 2.228489-4.9375 4.9375v14c0 2.709011 2.228489 4.9375 4.9375 4.9375h14c2.709011 0 4.9375-2.228489 4.9375-4.9375v-14c0-2.709011-2.228489-4.9375-4.9375-4.9375z" fill="#376e3c" opacity=".1"/><path d="m17 13c-2.19953 0-4 1.80047-4 4v14c0 2.19953 1.80047 4 4 4h14c2.19953 0 4-1.80047 4-4v-14c0-2.19953-1.80047-4-4-4z" fill="#376e3c" opacity=".2"/><rect fill="#fefefe" height="20" opacity=".8" rx="3" width="20" x="14" y="14"/></a><a transform="translate(24)"><path d="m17 12.0625c-2.709011 0-4.9375 2.228489-4.9375 4.9375v14c0 2.709011 2.228489 4.9375 4.9375 4.9375h14c2.709011 0 4.9375-2.228489 4.9375-4.9375v-14c0-2.709011-2.228489-4.9375-4.9375-4.9375z" fill="#376e3c" opacity=".1"/><path d="m17 13c-2.19953 0-4 1.80047-4 4v14c0 2.19953 1.80047 4 4 4h14c2.19953 0 4-1.80047 4-4v-14c0-2.19953-1.80047-4-4-4z" fill="#376e3c" opacity=".2"/><rect fill="#fefefe" height="20" opacity=".8" rx="3" width="20" x="14" y="14"/></a><a transform="translate(48)"><path d="m17 12.0625c-2.709011 0-4.9375 2.228489-4.9375 4.9375v14c0 2.709011 2.228489 4.9375 4.9375 4.9375h14c2.709011 0 4.9375-2.228489 4.9375-4.9375v-14c0-2.709011-2.228489-4.9375-4.9375-4.9375z" fill="#376e3c" opacity=".1"/><path d="m17 13c-2.19953 0-4 1.80047-4 4v14c0 2.19953 1.80047 4 4 4h14c2.19953 0 4-1.80047 4-4v-14c0-2.19953-1.80047-4-4-4z" fill="#376e3c" opacity=".2"/><rect fill="#fefefe" height="20" rx="3" width="20" x="14" y="14"/></a><a transform="translate(0 24)"><path d="m17 12.0625c-2.709011 0-4.9375 2.228489-4.9375 4.9375v14c0 2.709011 2.228489 4.9375 4.9375 4.9375h14c2.709011 0 4.9375-2.228489 4.9375-4.9375v-14c0-2.709011-2.228489-4.9375-4.9375-4.9375z" fill="#376e3c" opacity=".1"/><path d="m17 13c-2.19953 0-4 1.80047-4 4v14c0 2.19953 1.80047 4 4 4h14c2.19953 0 4-1.80047 4-4v-14c0-2.19953-1.80047-4-4-4z" fill="#376e3c" opacity=".2"/><rect fill="#fefefe" height="20" opacity=".8" rx="3" width="20" x="14" y="14"/></a><a transform="translate(24 24)"><path d="m17 12.0625c-2.709011 0-4.9375 2.228489-4.9375 4.9375v14c0 2.709011 2.228489 4.9375 4.9375 4.9375h14c2.709011 0 4.9375-2.228489 4.9375-4.9375v-14c0-2.709011-2.228489-4.9375-4.9375-4.9375z" fill="#376e3c" opacity=".1"/><path d="m17 13c-2.19953 0-4 1.80047-4 4v14c0 2.19953 1.80047 4 4 4h14c2.19953 0 4-1.80047 4-4v-14c0-2.19953-1.80047-4-4-4z" fill="#376e3c" opacity=".2"/><rect fill="#fefefe" height="20" rx="3" width="20" x="14" y="14"/></a><a transform="translate(48 24)"><path d="m17 12.0625c-2.709011 0-4.9375 2.228489-4.9375 4.9375v14c0 2.709011 2.228489 4.9375 4.9375 4.9375h14c2.709011 0 4.9375-2.228489 4.9375-4.9375v-14c0-2.709011-2.228489-4.9375-4.9375-4.9375z" fill="#376e3c" opacity=".1"/><path d="m17 13c-2.19953 0-4 1.80047-4 4v14c0 2.19953 1.80047 4 4 4h14c2.19953 0 4-1.80047 4-4v-14c0-2.19953-1.80047-4-4-4z" fill="#376e3c" opacity=".2"/><rect fill="#fefefe" height="20" rx="3" width="20" x="14" y="14"/></a><a transform="translate(0 48)"><path d="m17 12.0625c-2.709011 0-4.9375 2.228489-4.9375 4.9375v14c0 2.709011 2.228489 4.9375 4.9375 4.9375h14c2.709011 0 4.9375-2.228489 4.9375-4.9375v-14c0-2.709011-2.228489-4.9375-4.9375-4.9375z" fill="#376e3c" opacity=".1"/><path d="m17 13c-2.19953 0-4 1.80047-4 4v14c0 2.19953 1.80047 4 4 4h14c2.19953 0 4-1.80047 4-4v-14c0-2.19953-1.80047-4-4-4z" fill="#376e3c" opacity=".2"/><rect fill="#fefefe" height="20" rx="3" width="20" x="14" y="14"/></a><a transform="translate(24 48)"><path d="m17 12.0625c-2.709011 0-4.9375 2.228489-4.9375 4.9375v14c0 2.709011 2.228489 4.9375 4.9375 4.9375h14c2.709011 0 4.9375-2.228489 4.9375-4.9375v-14c0-2.709011-2.228489-4.9375-4.9375-4.9375z" fill="#376e3c" opacity=".1"/><path d="m17 13c-2.19953 0-4 1.80047-4 4v14c0 2.19953 1.80047 4 4 4h14c2.19953 0 4-1.80047 4-4v-14c0-2.19953-1.80047-4-4-4z" fill="#376e3c" opacity=".2"/><rect fill="#fefefe" height="20" opacity=".8" rx="3" width="20" x="14" y="14"/></a><a transform="translate(48 48)"><path d="m17 12.0625c-2.709011 0-4.9375 2.228489-4.9375 4.9375v14c0 2.709011 2.228489 4.9375 4.9375 4.9375h14c2.709011 0 4.9375-2.228489 4.9375-4.9375v-14c0-2.709011-2.228489-4.9375-4.9375-4.9375z" fill="#376e3c" opacity=".1"/><path d="m17 13c-2.19953 0-4 1.80047-4 4v14c0 2.19953 1.80047 4 4 4h14c2.19953 0 4-1.80047 4-4v-14c0-2.19953-1.80047-4-4-4z" fill="#376e3c" opacity=".2"/><rect fill="#fefefe" height="20" opacity=".8" rx="3" width="20" x="14" y="14"/></a><g fill="#215c26"><path d="m27.98291 25.761719c-.000008.552086-.08855 1.062502-.265625 1.53125-.171883.463543-.429695.867189-.773437 1.210937-.343757.338542-.77084.604167-1.28125.796875-.505214.1875-1.091151.28125-1.757813.28125-.614587 0-1.151045-.07292-1.609375-.21875-.458335-.151041-.846356-.35677-1.164062-.617187-.312502-.265624-.559897-.57552-.742188-.929688-.177084-.354164-.29948-.734372-.367187-1.140625l2.195312-.179687c.04166.171878.09896.338544.171875.5.07812.16146.184893.304689.320313.429687.135413.125002.30208.226565.5.304688.197912.07292.437496.109376.71875.109375.54687.000001.981765-.174478 1.304687-.523438.328119-.348956.492181-.851559.492188-1.507812-.000007-.291663-.04167-.554684-.125-.789063-.07813-.23437-.192715-.434891-.34375-.601562-.145839-.166662-.328131-.294266-.546875-.382813-.213547-.08854-.458338-.132807-.734375-.132812-.364588.000005-.664067.07032-.898438.210937-.234378.135422-.432295.302089-.59375.5h-2.140625l.382813-6.195312h6.617187v1.632812h-4.625l-.179687 2.78125c.218746-.192701.494788-.356764.828125-.492187.333329-.140618.721349-.21093 1.164062-.210938.541661.000008 1.026036.08855 1.453125.265625.427077.17709.789055.424486 1.085938.742188.296867.317714.523429.700526.679687 1.148437.156242.442713.234367.9349.234375 1.476563"/><path d="m51.976562 26.441406c-.000008.500003-.08334.950523-.25 1.351563-.161466.395834-.406257.734376-.734375 1.015625-.328132.28125-.736985.497396-1.226562.648437-.484381.145833-1.049484.21875-1.695313.21875-.718753 0-1.325523-.09115-1.820312-.273437-.489585-.182292-.893231-.421875-1.210938-.71875-.312501-.302082-.54948-.643228-.710937-1.023438-.156251-.380206-.257813-.765622-.304688-1.15625l2.234375-.195312c.03125.234378.08854.450523.171875.648437.08854.192711.205727.359377.351563.5.14583.140627.322913.250002.53125.328125.213538.07292.463538.109377.75.109375.526037.000002.93489-.130206 1.226562-.390625.291661-.260414.437494-.658851.4375-1.195312-.000006-.328122-.07032-.591142-.210937-.789063-.135422-.197912-.309901-.348954-.523438-.453125-.208338-.10937-.4349-.182287-.679687-.21875-.244796-.03645-.476567-.05468-.695313-.05469h-.765625v-1.773438h.71875c.218746.000007.4401-.02083.664063-.0625.229162-.04166.434891-.117181.617187-.226562.182287-.109368.330724-.26041.445313-.453125.114578-.197909.171869-.447909.171875-.75-.000006-.453117-.12761-.807283-.382813-1.0625-.250005-.260408-.617192-.390616-1.101562-.390625-.453129.000009-.820316.125009-1.101563.375-.276044.250009-.434898.604175-.476562 1.0625l-2.195313-.15625c.0625-.515617.203125-.963533.421875-1.34375.223958-.380199.502603-.695303.835938-.945313.33854-.249989.72656-.434885 1.164062-.554687.437497-.124989.901038-.187489 1.390625-.1875.645829.000011 1.200516.07814 1.664063.234375.463535.156261.843743.367198 1.140625.632812.296868.265635.515617.575531.65625.929688.140617.354175.210929.731779.210937 1.132812-.000008.322925-.04688.625008-.140625.90625-.09376.276049-.236986.526049-.429687.75-.187507.218757-.429695.408861-.726563.570313-.296881.156256-.648443.273443-1.054687.351562v.03125c.453119.05209.846348.156256 1.179687.3125.333327.151047.606764.341151.820313.570313.213534.229171.372388.489587.476562.78125.104159.286462.156242.591149.15625.914062"/><path d="m27.867187 49.90625c-.000008.552086-.07813 1.059898-.234375 1.523437-.156257.458335-.390632.854168-.703125 1.1875-.307298.328126-.692715.585938-1.15625.773438-.463547.182292-1.000005.273437-1.609375.273437-1.296878 0-2.294273-.453124-2.992187-1.359375-.692709-.911456-1.039063-2.260413-1.039063-4.046875 0-1.963534.351562-3.440095 1.054688-4.429687.708331-.994781 1.718747-1.492176 3.03125-1.492188.437495.000012.835932.04689 1.195312.140625.359369.08855.679681.234386.960938.4375.281243.203136.520826.466156.71875.789063.197909.317718.356763.705738.476562 1.164062l-2.070312.289063c-.104173-.385408-.273443-.661449-.507813-.828125-.23438-.171866-.507817-.257803-.820312-.257813-.588546.00001-1.052087.29428-1.390625.882813-.333336.58855-.500003 1.481778-.5 2.679687.234372-.390618.559893-.690097.976562-.898437.416663-.208326.888017-.312493 1.414063-.3125.484369.000007.921869.08074 1.3125.242187.395826.156257.731764.385424 1.007812.6875.281243.296881.497388.661464.648438 1.09375.151033.432297.226554.919275.226562 1.460938m-2.203125.0625c-.000006-.296871-.03386-.562496-.101562-.796875-.06771-.239579-.171881-.442704-.3125-.609375-.135422-.166662-.304693-.294266-.507813-.382813-.203129-.09374-.437504-.140619-.703125-.140625-.192712.000006-.38542.03126-.578125.09375-.192712.06251-.364586.164068-.515625.304688-.151044.135422-.27344.309901-.367187.523437-.09375.213546-.140628.471359-.140625.773438-.000003.312503.03906.60417.117187.875.07812.270836.187497.507815.328125.710937.14583.197919.320309.354169.523438.46875.203121.109377.432287.164065.6875.164063.494787.000002.880203-.174477 1.15625-.523438.276036-.354164.414056-.841142.414062-1.460937"/><path d="m51.875 71.828125c-.000008 1.953129-.356779 3.414065-1.070313 4.382812-.713548.968751-1.726568 1.453125-3.039062 1.453125-.473962 0-.901045-.04948-1.28125-.148437-.375003-.098958-.703127-.252604-.984375-.460938-.281252-.208332-.520835-.476561-.71875-.804687-.192709-.328123-.346355-.718748-.460938-1.171875l2.0625-.289063c.104164.390628.273435.67969.507813.867188.23958.187502.539059.281252.898437.28125.296871.000002.562496-.07031.796875-.210938.23437-.140623.434891-.354164.601563-.640625.166661-.286455.294265-.648434.382812-1.085937.09374-.442704.143224-.963537.148438-1.5625-.104173.20313-.242193.382817-.414063.539062-.17188.156255-.367192.286463-.585937.390625-.213547.104171-.442713.1849-.6875.242188-.244796.05209-.492191.07813-.742188.07813-.479169.000004-.914065-.08333-1.304687-.25-.390627-.171871-.72396-.416662-1-.734375-.276043-.317703-.489584-.700515-.640625-1.148438-.145834-.453118-.218751-.963534-.21875-1.53125-.000001-.583325.08594-1.104158.257812-1.5625.177083-.458323.429687-.84374.757813-1.15625.328123-.317697.729164-.55728 1.203125-.71875.479163-.166655 1.02083-.249988 1.625-.25.635412.000012 1.195307.109387 1.679687.328125.489577.213553.898431.546886 1.226563 1 .328117.447927.575513 1.018238.742187 1.710938.171867.687507.257805 1.505215.257813 2.453125m-2.320313-1.539063c-.000005-.312492-.03646-.604158-.109375-.875-.06771-.276033-.17188-.513012-.3125-.710937-.14063-.203116-.312505-.36197-.515625-.476563-.203129-.114573-.437504-.171865-.703125-.171875-.244795.00001-.463545.04689-.65625.140625-.192711.08855-.356774.21876-.492187.390625-.13542.171884-.239586.380217-.3125.625-.06771.2448-.101565.520842-.101563.828125-.000002.286466.03385.554695.101563.804688.0677.244798.166664.45834.296875.640625.130205.177089.294267.317714.492187.421875.197913.09896.424476.148443.679688.148437.20312.000006.401037-.03645.59375-.109375.197912-.07291.372391-.182285.523437-.328125.156245-.145827.281245-.328118.375-.546875.09374-.223951.14062-.484368.140625-.78125"/><path d="m75.753906 68.238281c-.494799.781259-.963549 1.53907-1.40625 2.273438-.437506.734381-.820318 1.473964-1.148437 2.21875-.328131.739587-.588547 1.502607-.78125 2.289062-.187505.781252-.281255 1.609376-.28125 2.484375h-2.289063c-.000002-.869791.10156-1.695311.304688-2.476562.20833-.786455.48958-1.55208.84375-2.296875.354163-.744786.765621-1.479161 1.234375-2.203125.468745-.729159.963536-1.471346 1.484375-2.226563h-5.46875v-1.804687h7.507812z"/></g></svg>