<svg height="96" width="96" xmlns="http://www.w3.org/2000/svg" xmlns:xlink="http://www.w3.org/1999/xlink"><linearGradient id="a"><stop offset="0" stop-color="#ed1414"/><stop offset="1" stop-color="#ef2929" stop-opacity="0"/></linearGradient><linearGradient id="b"><stop offset="0" stop-color="#fefefe"/><stop offset="1" stop-color="#fefefe" stop-opacity="0"/></linearGradient><linearGradient id="c" gradientUnits="userSpaceOnUse" x1="36.357143" x2="36.357143" xlink:href="#b" y1="6" y2="63.893143"/><filter id="d" color-interpolation-filters="sRGB" height="1.384" width="1.384" x="-.192" y="-.192"><feGaussianBlur stdDeviation="5.28"/></filter><linearGradient id="e" gradientUnits="userSpaceOnUse" x1="48" x2="48" xlink:href="#b" y1="20.220806" y2="138.66119"/><radialGradient id="f" cx="48" cy="90.171875" gradientTransform="matrix(1.1573129 0 0 .99590774 -7.551021 .197132)" gradientUnits="userSpaceOnUse" r="42" xlink:href="#b"/><clipPath id="g"><rect height="84" rx="6" width="84" x="6" y="6"/></clipPath><linearGradient id="h" gradientUnits="userSpaceOnUse" x1="48" x2="48" xlink:href="#b" y1="6" y2="109.10714"/><linearGradient id="i" gradientUnits="userSpaceOnUse" x1="48" x2="48" y1="90" y2="5.987717"><stop offset="0" stop-color="#61537d"/><stop offset="1" stop-color="#a192bb"/></linearGradient><linearGradient id="j" gradientUnits="userSpaceOnUse" x1="48" x2="48" y1="90" y2="5.987717"><stop offset="0" stop-color="#f3840c"/><stop offset="1" stop-color="#f2b80c"/></linearGradient><linearGradient id="k" gradientTransform="matrix(1.0058652 0 0 .994169 100 0)" gradientUnits="userSpaceOnUse" x1="45.447727" x2="45.447727" y1="92.539597" y2="7.01654"><stop offset="0"/><stop offset="1" stop-opacity=".588235"/></linearGradient><linearGradient id="l" gradientTransform="matrix(1.0238095 0 0 1.0119048 -1.142857 -98.071429)" gradientUnits="userSpaceOnUse" x1="32.251034" x2="32.251034" xlink:href="#k" y1="6.131708" y2="90.238609"/><linearGradient id="m" gradientTransform="translate(0 -97)" gradientUnits="userSpaceOnUse" x1="32.251034" x2="32.251034" xlink:href="#k" y1="6.131708" y2="90.238609"/><linearGradient id="n"><stop offset="0" stop-color="#a40000"/><stop offset="1" stop-color="#a40000" stop-opacity="0"/></linearGradient><linearGradient id="o"><stop offset="0" stop-color="#c00"/><stop offset="1" stop-color="#c00" stop-opacity="0"/></linearGradient><linearGradient id="p"><stop offset="0" stop-color="#efaa29"/><stop offset="1" stop-color="#ef2929" stop-opacity="0"/></linearGradient><linearGradient id="q" gradientTransform="matrix(1.1631864 0 0 1.1454684 20.13805 20.455065)" gradientUnits="userSpaceOnUse" x1="5.693425" x2="40.503429" y1="5.458282" y2="40.08054"><stop offset="0" stop-color="#eeeeec"/><stop offset="1" stop-color="#eeeeec" stop-opacity="0"/></linearGradient><radialGradient id="r" cx="13.1991" cy="12.463959" gradientTransform="matrix(-.00000006 1.7740337 -1.7378686 -.034892 57.151788 11.751384)" gradientUnits="userSpaceOnUse" r="21.009373"><stop offset="0" stop-color="#ddd"/><stop offset=".34864542" stop-color="#9a9a9a"/><stop offset=".67432272" stop-color="#696969"/><stop offset="1" stop-color="#333"/></radialGradient><radialGradient id="s" cx="18.685009" cy="25.667767" gradientTransform="matrix(.78971572 0 0 .77768656 44.930523 28.061177)" gradientUnits="userSpaceOnUse" r="5.050003" xlink:href="#p"/><radialGradient id="t" cx="18.685009" cy="25.667767" gradientTransform="matrix(1.3161924 0 0 1.2961438 35.093304 14.753547)" gradientUnits="userSpaceOnUse" r="5.050003" xlink:href="#o"/><radialGradient id="u" cx="18.685009" cy="25.667767" gradientTransform="matrix(1.8426718 0 0 1.8146037 25.256045 1.369486)" gradientUnits="userSpaceOnUse" r="5.050003" xlink:href="#n"/><radialGradient id="v" cx="18.685009" cy="25.667767" gradientTransform="matrix(1.3161924 0 0 1.2961438 11.829541 14.753536)" gradientUnits="userSpaceOnUse" r="5.050003" xlink:href="#o"/><radialGradient id="w" cx="18.685009" cy="25.667767" gradientTransform="matrix(1.8426718 0 0 1.8146037 1.992282 1.369475)" gradientUnits="userSpaceOnUse" r="5.050003" xlink:href="#n"/><radialGradient id="x" cx="18.685009" cy="25.667767" gradientTransform="matrix(.78971572 0 0 .77768656 33.298659 28.061177)" gradientUnits="userSpaceOnUse" r="5.050003" xlink:href="#p"/><radialGradient id="y" cx="18.685009" cy="25.667767" gradientTransform="matrix(1.3161924 0 0 1.2961438 23.46144 14.753547)" gradientUnits="userSpaceOnUse" r="5.050003" xlink:href="#o"/><radialGradient id="z" cx="18.685009" cy="25.667767" gradientTransform="matrix(1.8426718 0 0 1.8146037 13.624181 1.369486)" gradientUnits="userSpaceOnUse" r="5.050003" xlink:href="#n"/><radialGradient id="A" cx="18.685009" cy="25.667767" gradientTransform="matrix(.78971572 0 0 .77768656 21.66676 28.061166)" gradientUnits="userSpaceOnUse" r="5.050003" xlink:href="#p"/><radialGradient id="B" cx="18.685009" cy="25.667767" gradientTransform="matrix(2.4905718 0 0 2.4526348 -10.113752 -14.931015)" gradientUnits="userSpaceOnUse" r="5.050003" xlink:href="#a"/><radialGradient id="C" cx="18.685009" cy="25.667767" gradientTransform="matrix(2.4905718 0 0 2.4526348 1.886248 -14.931015)" gradientUnits="userSpaceOnUse" r="5.050003" xlink:href="#a"/><radialGradient id="D" cx="18.685009" cy="25.667767" gradientTransform="matrix(2.4905718 0 0 2.4526348 13.886248 -14.931015)" gradientUnits="userSpaceOnUse" r="5.050003" xlink:href="#a"/><g><g fill="url(#l)"><path d="m12-95.03125c-5.5110903 0-10.03125 4.52016-10.03125 10.03125v71c0 5.5110902 4.5201598 10.03125 10.03125 10.03125h72c5.51109 0 10.03125-4.5201597 10.03125-10.03125v-71c0-5.51109-4.52016-10.03125-10.03125-10.03125z" opacity=".08" transform="scale(1 -1)"/><path d="m12-94.03125c-4.971633 0-9.03125 4.059617-9.03125 9.03125v71c0 4.9716329 4.0596171 9.03125 9.03125 9.03125h72c4.971633 0 9.03125-4.059617 9.03125-9.03125v-71c0-4.971633-4.059617-9.03125-9.03125-9.03125z" opacity=".1" transform="scale(1 -1)"/><path d="m12-93c-4.4091333 0-8 3.590867-8 8v71c0 4.4091333 3.5908667 8 8 8h72c4.409133 0 8-3.5908667 8-8v-71c0-4.409133-3.590867-8-8-8z" opacity=".2" transform="scale(1 -1)"/><rect height="85" opacity=".3" rx="7" transform="scale(1 -1)" width="86" x="5" y="-92"/></g><rect fill="url(#m)" height="84" opacity=".45" rx="6" transform="scale(1 -1)" width="84" x="6" y="-91"/></g><rect fill="url(#j)" height="84" rx="6" width="84" x="6" y="6"/><rect fill="url(#i)" height="84" rx="6" width="84" x="6" y="6"/><path d="m12 6c-3.324 0-6 2.676-6 6v2 68 2c0 .334721.04135.6507.09375.96875.0487.295596.09704.596915.1875.875.00988.03038.020892.0636.03125.09375.098865.287771.2348802.547452.375.8125.1445918.273507.3156161.535615.5.78125s.3737765.473472.59375.6875c.439947.428056.94291.814526 1.5 1.09375.278545.139612.5734731.246947.875.34375-.2562018-.100222-.4867109-.236272-.71875-.375-.00741-.0044-.023866.0045-.03125 0-.031933-.0193-.062293-.04251-.09375-.0625-.120395-.0767-.2310226-.163513-.34375-.25-.1061728-.0808-.2132809-.161112-.3125-.25-.1779299-.161433-.3474596-.345388-.5-.53125-.1075789-.130255-.2183939-.265285-.3125-.40625-.025089-.03838-.038446-.08587-.0625-.125-.064763-.103032-.1302275-.204517-.1875-.3125-.1010083-.194706-.2056748-.415701-.28125-.625-.00796-.02181-.023589-.04055-.03125-.0625-.0318251-.09195-.0358045-.186831-.0625-.28125-.0303323-.106618-.0703894-.203031-.09375-.3125-.0728786-.341512-.125-.698205-.125-1.0625v-2-68-2c0-2.781848 2.2181517-5 5-5h2 68 2c2.781848 0 5 2.218152 5 5v2 68 2c0 .364295-.05212.720988-.125 1.0625-.04415.206893-.08838.397658-.15625.59375-.0077.02195-.0233.04069-.03125.0625-.06274.173739-.138383.367449-.21875.53125-.04158.0828-.07904.169954-.125.25-.0546.09721-.126774.18835-.1875.28125-.09411.140965-.204921.275995-.3125.40625-.143174.17445-.303141.346998-.46875.5-.01117.0102-.01998.02115-.03125.03125-.138386.125556-.285091.234436-.4375.34375-.102571.07315-.204318.153364-.3125.21875-.0074.0045-.02384-.0044-.03125 0-.232039.138728-.462548.274778-.71875.375.301527-.0968.596455-.204138.875-.34375.55709-.279224 1.060053-.665694 1.5-1.09375.219973-.214028.409366-.441865.59375-.6875s.355408-.507743.5-.78125c.14012-.265048.276135-.524729.375-.8125.01041-.03078.02133-.06274.03125-.09375.09046-.278085.1388-.579404.1875-.875.0524-.31805.09375-.634029.09375-.96875v-2-68-2c0-3.324-2.676-6-6-6z" fill="url(#c)" opacity=".5"/><path d="m12 90c-3.324 0-6-2.676-6-6v-2-68-2c0-.334721.04135-.6507.09375-.96875.0487-.295596.09704-.596915.1875-.875.00988-.03038.020892-.0636.03125-.09375.098865-.287771.2348802-.547452.375-.8125.1445918-.273507.3156161-.535615.5-.78125s.3737765-.473472.59375-.6875c.439947-.428056.94291-.814526 1.5-1.09375.278545-.139612.5734731-.246947.875-.34375-.2562018.100222-.4867109.236272-.71875.375-.00741.0044-.023866-.0045-.03125 0-.031933.0193-.062293.04251-.09375.0625-.120395.0767-.2310226.163513-.34375.25-.1061728.0808-.2132809.161112-.3125.25-.1779299.161433-.3474596.345388-.5.53125-.1075789.130255-.2183939.265285-.3125.40625-.025089.03838-.038446.08587-.0625.125-.064763.103032-.1302275.204517-.1875.3125-.1010083.194706-.2056748.415701-.28125.625-.00796.02181-.023589.04055-.03125.0625-.0318251.09195-.0358045.186831-.0625.28125-.0303323.106618-.0703894.203031-.09375.3125-.0728786.341512-.125.698205-.125 1.0625v2 68 2c0 2.781848 2.2181517 5 5 5h2 68 2c2.781848 0 5-2.218152 5-5v-2-68-2c0-.364295-.05212-.720988-.125-1.0625-.04415-.206893-.08838-.397658-.15625-.59375-.0077-.02195-.0233-.04069-.03125-.0625-.06274-.173739-.138383-.367449-.21875-.53125-.04158-.0828-.07904-.169954-.125-.25-.0546-.09721-.126774-.18835-.1875-.28125-.09411-.140965-.204921-.275995-.3125-.40625-.143174-.17445-.303141-.346998-.46875-.5-.01117-.0102-.01998-.02115-.03125-.03125-.138386-.125556-.285091-.234436-.4375-.34375-.102571-.07315-.204318-.153364-.3125-.21875-.0074-.0045-.02384.0044-.03125 0-.232039-.138728-.462548-.274778-.71875-.375.301527.0968.596455.204138.875.34375.55709.279224 1.060053.665694 1.5 1.09375.219973.214028.409366.441865.59375.6875s.355408.507743.5.78125c.14012.265048.276135.524729.375.8125.01041.03078.02133.06274.03125.09375.09046.278085.1388.579404.1875.875.0524.31805.09375.634029.09375.96875v2 68 2c0 3.324-2.676 6-6 6z" fill="url(#f)" opacity=".2"/><path d="m20.875 6 25.78125 40.65625-40.65625-26.15625v18.5l40.21875 9-40.21875 8.75v18.375l40.65625-25.78125-26.15625 40.65625h18.5l9-40.21875 8.75 40.21875h18.375l-25.78125-40.65625 40.65625 26.15625v-18.5l-40.21875-9 40.21875-8.75v-18.375l-40.65625 25.78125 26.15625-40.65625h-18.5l-9 40.21875-8.75-40.21875z" fill="url(#h)" opacity=".2"/><rect height="66" rx="12" style="opacity:.1;stroke:#fefefe;stroke-width:.5;stroke-linecap:round;clip-path:url(#g);fill:url(#e);filter:url(#d)" width="66" x="15" y="15"/><path d="m48.03125 22c-11.38455-.15994-22.321667 7.432981-25.9375 18.28125a.96090418.96090418 0 0 0 -.03125.0625c-.421965 1.64778-1.378805 3.668921-1.03125 5.90625a.96090418.96090418 0 0 0 .03125.125c.30752.964919 1.09476 1.613211 1.875 1.875.747954.250956 1.489796.250723 2.15625.1875.02877-.0027.06533.003.09375 0 .355362.001.530563-.02711.71875-.03125-.09831.545813-.04053.878797 0 1.15625-.56626.0066-1.344255-.07036-2.1875.03125-.903466.108862-1.984911.591595-2.5 1.6875a.96090418.96090418 0 0 0 -.03125.09375c-.714281 2.023447.363257 3.861459.5625 5.09375a.96090418.96090418 0 0 0 0 .09375c3.178176 11.160813 14.091036 19.331101 25.65625 19.4375.01039.000096.02086-.000083.03125 0 11.371735.40467 22.405275-7.006486 26.25-17.75a.96090418.96090418 0 0 0 0-.03125c.545261-1.824193 1.552458-3.960558 1.34375-6.3125a.96090418.96090418 0 0 0 -.03125-.15625c-.258878-.955772-1.017459-1.631527-1.78125-1.9375-.679856-.272349-1.369843-.245187-2.03125-.1875v-.0625c-.476919-.05649-.718039.0072-.96875.03125.02535-.242511.0482-.493684.03125-.6875-.01657-.189444-.01681-.321125-.03125-.46875.55623.0029 1.239318.05872 2.03125-.03125.913743-.103804 2.039076-.579342 2.5625-1.6875a.96090418.96090418 0 0 0 .03125-.09375c.713104-2.024317-.366238-3.862375-.5625-5.09375a.96090418.96090418 0 0 0 0-.09375c-3.128979-11.069859-13.849844-19.220713-25.3125-19.4375-.345461-.01159-.656091 0-.9375 0z" opacity=".05"/><path d="m48.03125 22.96875c-10.945304-.153769-21.543558 7.203982-25.016634 17.623951-.454292 1.774018-1.333491 3.649507-1.045866 5.501049.420954 1.320847 1.926517 1.50074 3.121332 1.375.917097.01167 2.178165-.320625 1.753668 1.032643-.180925.741561.527434 2.372407-.737602 2.029857-1.382675.05525-3.285031-.391299-4.012398 1.15625-.529805 1.500856.363945 3.134426.604587 4.622765 3.055229 10.729061 13.60005 18.625753 24.72689 18.714199 10.941138.403095 21.667289-6.755501 25.364792-17.087625.570685-1.90925 1.451439-3.920156 1.272481-5.936839-.354281-1.307998-1.815586-1.624408-3.005061-1.46875-.79315-.093955-2.210229.436021-1.776189-.885123.219719-.702767-.538707-2.383679.590082-2.177377 1.396888-.066268 3.326525.409674 4.066168-1.15625.528933-1.501504-.362719-3.136277-.600212-4.626337-3.005184-10.631891-13.381346-18.493856-24.397565-18.7022-.302711-.010153-.605592-.015213-.908473-.015213z" opacity=".1"/><path d="m48.03125 24.03125c-12.469205 0-22.926089 8.904966-25 20.65625l-.09375.59375a.97505824.97505824 0 0 0 .96875 1.125h.59375 3.40625v5.1875h-3.375-.59375a.97505824.97505824 0 0 0 -.96875 1.125l.09375.59375c2.091704 11.726795 12.511695 20.65625 24.96875 20.65625 12.458083 0 22.847638-8.929344 24.9375-20.65625l.09375-.59375a.97505824.97505824 0 0 0 -.96875-1.125h-.59375-3.28125v-5.1875h3.28125.59375a.97505824.97505824 0 0 0 .96875-1.125l-.09375-.59375c-2.074316-11.745428-12.469029-20.65625-24.9375-20.65625z" opacity=".15"/><path d="m48.03125 25c-12.0057 0-22.040102 8.561422-24.03125 19.84375l-.09375.59375h.59375 4.375v7.125h-4.34375-.59375l.09375.59375c2.008513 11.260401 12.008175 19.84375 24 19.84375 11.992994 0 21.961711-8.581592 23.96875-19.84375l.09375-.59375h-.59375-4.25v-7.125h4.25.59375l-.09375-.59375c-1.992105-11.279925-11.963949-19.84375-23.96875-19.84375z" opacity=".3"/><path d="m28.877459 41.593904h38.382538v13.490936h-38.382538c0-4.496978 0-8.993957 0-13.490936z" fill="#2e3436" stroke="#2e3436"/><path d="m57.360018 47.946311c0 5.061002-4.166212 9.163754-9.305498 9.163754-5.139285 0-9.305498-4.102752-9.305498-9.163754s4.166213-9.163754 9.305498-9.163754c5.139286 0 9.305498 4.102752 9.305498 9.163754z" fill="url(#z)" opacity=".75"/><path d="m54.701282 48.022664c0 3.614997-2.975862 6.54553-6.646775 6.54553s-6.646776-2.930533-6.646776-6.54553 2.975863-6.54553 6.646776-6.54553 6.646775 2.930533 6.646775 6.54553z" fill="url(#y)" opacity=".75"/><path d="m45.72812 47.9463c0 5.061002-4.166213 9.163754-9.305499 9.163754-5.139285 0-9.305498-4.102752-9.305498-9.163754 0-5.061003 4.166213-9.163754 9.305498-9.163754 5.139286 0 9.305499 4.102751 9.305499 9.163754z" fill="url(#w)"/><path d="m43.069383 48.022653c0 3.614997-2.975862 6.54553-6.646775 6.54553s-6.646776-2.930533-6.646776-6.54553 2.975863-6.54553 6.646776-6.54553 6.646775 2.930533 6.646775 6.54553z" fill="url(#v)"/><path d="m68.991882 47.946311c0 5.061002-4.166212 9.163754-9.305498 9.163754-5.139285 0-9.305498-4.102752-9.305498-9.163754s4.166213-9.163754 9.305498-9.163754c5.139286 0 9.305498 4.102752 9.305498 9.163754z" fill="url(#u)" opacity=".5"/><path d="m66.333146 48.022664c0 3.614997-2.975862 6.54553-6.646775 6.54553s-6.646776-2.930533-6.646776-6.54553 2.975863-6.54553 6.646776-6.54553 6.646775 2.930533 6.646775 6.54553z" fill="url(#t)" opacity=".5"/><path d="m48.018174 24.5c-11.767915 0-21.569357 8.394695-23.518174 19.437167h47c-1.949935-11.041144-11.714867-19.437167-23.481826-19.437167zm-23.481825 27.562834c1.965992 11.022014 11.728663 19.437166 23.481825 19.437166 11.754405 0 21.517276-8.413431 23.481826-19.437167h-46.963651z" fill="url(#r)" fill-rule="evenodd" stroke="#2e3436"/><path d="m48.018174 25.645468c-10.731248 0-19.715526 7.387868-22.064191 17.253618h44.128383c-2.348665-9.86575-11.332943-17.253618-22.064192-17.253618zm-22.064192 27.455447c2.348666 9.865748 11.332944 17.217821 22.064192 17.217821 10.731249 0 19.715528-7.352072 22.064192-17.217821z" fill="none" stroke="url(#q)"/><path d="m49 48.022642c0 6.840497-5.631091 12.385815-12.577396 12.385815-6.946302 0-12.577393-5.545318-12.577393-12.385815s5.631091-12.385812 12.577393-12.385812c6.946305 0 12.577396 5.545315 12.577396 12.385812z" fill="url(#B)" opacity=".3"/><path d="m61 48.022642c0 6.840497-5.631091 12.385815-12.577396 12.385815-6.946302 0-12.577393-5.545318-12.577393-12.385815s5.631091-12.385812 12.577393-12.385812c6.946305 0 12.577396 5.545315 12.577396 12.385812z" fill="url(#C)" opacity=".3"/><path d="m73 48.022642c0 6.840497-5.631091 12.385815-12.577396 12.385815-6.946302 0-12.577393-5.545318-12.577393-12.385815s5.631091-12.385812 12.577393-12.385812c6.946305 0 12.577396 5.545315 12.577396 12.385812z" fill="url(#D)" opacity=".3"/><path d="m52.042571 48.022654c0 2.168999-1.785518 3.92732-3.988067 3.92732-2.202548 0-3.988066-1.758321-3.988066-3.92732s1.785518-3.927319 3.988066-3.927319c2.202549 0 3.988067 1.75832 3.988067 3.927319z" fill="url(#x)" opacity=".75"/><path d="m40.410672 48.022643c0 2.168999-1.785518 3.92732-3.988067 3.92732-2.202548 0-3.988066-1.758321-3.988066-3.92732s1.785518-3.927319 3.988066-3.927319c2.202549 0 3.988067 1.75832 3.988067 3.927319z" fill="url(#A)"/><path d="m63.674435 48.022654c0 2.168999-1.785518 3.92732-3.988067 3.92732-2.202548 0-3.988066-1.758321-3.988066-3.92732s1.785518-3.927319 3.988066-3.927319c2.202549 0 3.988067 1.75832 3.988067 3.927319z" fill="url(#s)" opacity=".5"/></svg>