<svg height="96" width="96" xmlns="http://www.w3.org/2000/svg" xmlns:xlink="http://www.w3.org/1999/xlink"><linearGradient id="a"><stop offset="0" stop-color="#fefefe"/><stop offset="1" stop-color="#fefefe" stop-opacity="0"/></linearGradient><linearGradient id="b" gradientUnits="userSpaceOnUse" x1="36.357143" x2="36.357143" xlink:href="#a" y1="6" y2="63.893143"/><filter id="c" color-interpolation-filters="sRGB" height="1.384" width="1.384" x="-.192" y="-.192"><feGaussianBlur stdDeviation="5.28"/></filter><linearGradient id="d" gradientUnits="userSpaceOnUse" x1="48" x2="48" xlink:href="#a" y1="20.220806" y2="138.66119"/><radialGradient id="e" cx="48" cy="90.171875" gradientTransform="matrix(1.1573129 0 0 .99590774 -7.551021 .197132)" gradientUnits="userSpaceOnUse" r="42" xlink:href="#a"/><clipPath id="f"><rect height="84" rx="6" width="84" x="6" y="6"/></clipPath><linearGradient id="g" gradientUnits="userSpaceOnUse" x1="48" x2="48" xlink:href="#j" y1="90" y2="5.987717"/><filter id="h" color-interpolation-filters="sRGB"><feGaussianBlur stdDeviation="1.5967586"/></filter><linearGradient id="i" gradientUnits="userSpaceOnUse" x1="44.71655541159" x2="81.44756374724" y1="34.09801156694" y2="82.46128514166"><stop offset="0" stop-color="#e7ba26" stop-opacity="0"/><stop offset=".4841198" stop-color="#e9ab2c" stop-opacity=".831373"/><stop offset=".69662797" stop-color="#eaa82e"/><stop offset=".842659" stop-color="#ebba3f"/><stop offset="1" stop-color="#f3e38c"/></linearGradient><linearGradient id="j" gradientTransform="matrix(1.0172414 0 0 1.0172414 -1.103448 -1.103448)" gradientUnits="userSpaceOnUse" x1="58.650177" x2="58.650177" y1="122" y2="5.425234"><stop offset="0" stop-color="#e4b31e"/><stop offset="1" stop-color="#ffef64"/></linearGradient><linearGradient id="k" gradientTransform="translate(0 110)" gradientUnits="userSpaceOnUse" x1="48" x2="48" xlink:href="#j" y1="90" y2="5.987717"/><clipPath id="l"><path d="m62 6c-3.324 0-6 2.676-6 6v.53125c0-3.61055 2.9207-6.53125 6.53125-6.53125zm71.46875 0c3.61055 0 6.53125 2.9207 6.53125 6.53125v-.53125c0-3.324-2.676-6-6-6zm6.53125 6.53125c0 36.73465-3.54263 60.10471-7.84375 69.9375-10.81631 5.03085-35.676738 7.53125-69.625 7.53125h71.46875c3.324 0 6-2.676 6-6zm-77.46875 77.46875c-3.61055-.0055-6.53125-2.9207-6.53125-6.53125v.53125c0 3.324 2.676 6 6 6z"/></clipPath><linearGradient gradientTransform="translate(50)" gradientUnits="userSpaceOnUse" x1="48" x2="48" xlink:href="#j" y1="90" y2="5.987717"/><filter id="m" color-interpolation-filters="sRGB"><feGaussianBlur stdDeviation="1.2600071"/></filter><linearGradient id="n" gradientUnits="userSpaceOnUse" x1="82.08036" x2="59.611588" xlink:href="#a" y1="82.290176" y2="59.821404"/><linearGradient id="o" gradientTransform="matrix(1.0058652 0 0 .994169 100 0)" gradientUnits="userSpaceOnUse" x1="45.447727" x2="45.447727" y1="92.539597" y2="7.01654"><stop offset="0"/><stop offset="1" stop-opacity=".588235"/></linearGradient><linearGradient id="p" gradientTransform="matrix(1.0238095 0 0 1.0119048 -1.142857 -98.071429)" gradientUnits="userSpaceOnUse" x1="32.251034" x2="32.251034" xlink:href="#o" y1="6.131708" y2="90.238609"/><linearGradient id="q" gradientTransform="translate(0 -97)" gradientUnits="userSpaceOnUse" x1="32.251034" x2="32.251034" xlink:href="#o" y1="6.131708" y2="90.238609"/><g><g fill="url(#p)"><path d="m12-95.03125c-5.5110903 0-10.03125 4.52016-10.03125 10.03125v71c0 5.5110902 4.5201598 10.03125 10.03125 10.03125h72c5.51109 0 10.03125-4.5201597 10.03125-10.03125v-71c0-5.51109-4.52016-10.03125-10.03125-10.03125z" opacity=".08" transform="scale(1 -1)"/><path d="m12-94.03125c-4.971633 0-9.03125 4.059617-9.03125 9.03125v71c0 4.9716329 4.0596171 9.03125 9.03125 9.03125h72c4.971633 0 9.03125-4.059617 9.03125-9.03125v-71c0-4.971633-4.059617-9.03125-9.03125-9.03125z" opacity=".1" transform="scale(1 -1)"/><path d="m12-93c-4.4091333 0-8 3.590867-8 8v71c0 4.4091333 3.5908667 8 8 8h72c4.409133 0 8-3.5908667 8-8v-71c0-4.409133-3.590867-8-8-8z" opacity=".2" transform="scale(1 -1)"/><rect height="85" opacity=".3" rx="7" transform="scale(1 -1)" width="86" x="5" y="-92"/></g><rect fill="url(#q)" height="84" opacity=".45" rx="6" transform="scale(1 -1)" width="84" x="6" y="-91"/></g><path d="m189.96875 19.28125c-.40529 32.853499-3.78151 53.972258-7.8125 63.1875-10.14029 4.716417-32.62864 7.205224-63.375 7.5 31.14298-.03671 56.97907-.434437 66.78125-4.3125 3.02403-9.875444 4.25911-33.292211 4.40625-66.375z" opacity=".2"/><rect fill="url(#g)" height="84" rx="6" width="84" x="6" y="6"/><path d="m12 90c-3.324 0-6-2.676-6-6v-2-68-2c0-.334721.04135-.6507.09375-.96875.0487-.295596.09704-.596915.1875-.875.00988-.03038.020892-.0636.03125-.09375.098865-.287771.2348802-.547452.375-.8125.1445918-.273507.3156161-.535615.5-.78125s.3737765-.473472.59375-.6875c.439947-.428056.94291-.814526 1.5-1.09375.278545-.139612.5734731-.246947.875-.34375-.2562018.100222-.4867109.236272-.71875.375-.00741.0044-.023866-.0045-.03125 0-.031933.0193-.062293.04251-.09375.0625-.120395.0767-.2310226.163513-.34375.25-.1061728.0808-.2132809.161112-.3125.25-.1779299.161433-.3474596.345388-.5.53125-.1075789.130255-.2183939.265285-.3125.40625-.025089.03838-.038446.08587-.0625.125-.064763.103032-.1302275.204517-.1875.3125-.1010083.194706-.2056748.415701-.28125.625-.00796.02181-.023589.04055-.03125.0625-.0318251.09195-.0358045.186831-.0625.28125-.0303323.106618-.0703894.203031-.09375.3125-.0728786.341512-.125.698205-.125 1.0625v2 68 2c0 2.781848 2.2181517 5 5 5h2 68 2c2.781848 0 5-2.218152 5-5v-2-68-2c0-.364295-.05212-.720988-.125-1.0625-.04415-.206893-.08838-.397658-.15625-.59375-.0077-.02195-.0233-.04069-.03125-.0625-.06274-.173739-.138383-.367449-.21875-.53125-.04158-.0828-.07904-.169954-.125-.25-.0546-.09721-.126774-.18835-.1875-.28125-.09411-.140965-.204921-.275995-.3125-.40625-.143174-.17445-.303141-.346998-.46875-.5-.01117-.0102-.01998-.02115-.03125-.03125-.138386-.125556-.285091-.234436-.4375-.34375-.102571-.07315-.204318-.153364-.3125-.21875-.0074-.0045-.02384.0044-.03125 0-.232039-.138728-.462548-.274778-.71875-.375.301527.0968.596455.204138.875.34375.55709.279224 1.060053.665694 1.5 1.09375.219973.214028.409366.441865.59375.6875s.355408.507743.5.78125c.14012.265048.276135.524729.375.8125.01041.03078.02133.06274.03125.09375.09046.278085.1388.579404.1875.875.0524.31805.09375.634029.09375.96875v2 68 2c0 3.324-2.676 6-6 6z" fill="url(#e)" opacity=".2"/><path clip-path="url(#l)" d="m62.51724 6c-3.61055 0-6.51724 2.90669-6.51724 6.517241v70.965519c0 3.610548 2.90669 6.511737 6.51724 6.51724 33.948262 0 61.15737.163148 73.40225-3.796268 3.22969-10.011359 4.08051-36.951844 4.08051-73.686491 0-3.610551-2.90669-6.517241-6.51724-6.517241z" fill="#a14b09" filter="url(#m)" opacity=".5" transform="translate(-50)"/><path d="m12 6c-3.324 0-6 2.676-6 6v6h84v-6c0-3.324-2.676-6-6-6z" fill="#fefefe" opacity=".35"/><path d="m12.51724 6c-3.61055 0-6.51724 2.90669-6.51724 6.517241v70.965519c0 3.610548 2.90669 6.511737 6.51724 6.51724 33.948262 0 58.835937-2.515423 69.652252-7.546268 4.301113-9.832788 7.830508-33.201844 7.830508-69.936491 0-3.610551-2.906692-6.517241-6.51724-6.517241z" fill="url(#i)"/><path d="m-18.64602-8.4760596c-.54916 48.6146006-9.3668 76.3093396-15.21875 89.6874996-15.194361 7.06714-45.904521 14.34375-93.59375 14.34375 47.689229 0 87.243039 1.06703 102.43739-6.00011 5.85011-13.37396 6.07391-49.221747 6.37511-98.0311396z" fill="#a14b09" filter="url(#h)" opacity=".6"/><path d="m12.519008 46.914781c.0293-.439798.11361-.762318.25288-.967565.13927-.205235.43246-.45812.87961-.758657.44712-.300525.93457-.42147 1.46234-.362836.527753.05865.601053.355512.2199.890598-.38117.535097-.56442 1.062858-.54976 1.583286.0147.520435.2932.894266.835623 1.121493.542415.227234 1.132488.186919 1.770203-.120944.637706-.307859 1.381702-.765985 2.231996-1.374381.85027-.608387 1.707886-1.378039 2.572837-2.308958.864931-.930905 1.601598-1.858153 2.210003-2.781745.608378-.923574 1.095824-1.784851 1.462341-2.583834.366485-.798961.593716-1.586938.681692-2.363934.08794-.776967-.157612-1.509969-.736668-2.199008-.579087-.689006-.879617-1.268076-.901593-1.737215-.02201-.469104.245542-.923566.802638-1.363386.996868.000019 1.689554.29322 2.078062.879603.388475.586421.740315 1.187482 1.055524 1.803187.315173.615738.586384 1.242455.813634 1.880152.227211.637727.465437 1.216798.714677 1.737215.249201.520446.432451 1.055538.549752 1.605278.11726.549762.304176 1.136164.560748 1.759205.256529.623062.476429 1.279099.659702 1.968112.183228.689031.480094.722015.890598.09896.410458-.623044 1.059165-1.407356 1.946122-2.352938.886907-.945563 1.65656-1.744535 2.308958-2.396919.652345-.652359 1.381682-1.301066 2.188013-1.946122.806273-.645028 1.627236-1.224099 2.462889-1.737217.835591-.513086 1.766503-.974876 2.79274-1.385374 1.026169-.410464 1.942421-.608374 2.74876-.593733.806266.01468 1.561258.142954 2.264978.384827.703643.241908 1.282713.520449 1.737217.835623.45442.315208.820921.707364 1.099504 1.176469.278498.469137.432429 1.290099.461791 2.462889-.219943.498454-.487488.725685-.802637.681693-.315233-.04396-.494819-.388479-.538757-1.033534-.04402-.645029-.282247-1.176455-.714678-1.594281-.432511-.417795-.864983-.721992-1.297415-.912588-.43251-.190565-1.000587-.344495-1.704231-.461792-.703719-.117264-1.396406-.06228-2.078063.164925-.681727.227247-1.418393.586419-2.210003 1.077515-.791675.491126-1.715257 1.095853-2.77075 1.814181-1.055553.718356-2.078091 1.579633-3.067615 2.583834-.989581 1.004224-1.803213 1.938802-2.440899 2.803736-.637737.86495-1.202149 1.696907-1.693237 2.495874-.491134.798978-.850305 1.64926-1.077513 2.550849-.227254.901595-.513124 1.762873-.857614 2.583834-.344532.820963-.780668 1.451345-1.308409 1.891147-.791662-.117282-1.205809-.355507-1.24244-.714678-.03667-.359171.06962-.765987.318856-1.220449.249201-.454461.461772-1.029867.637713-1.726221.175899-.696349.27852-1.418357.307859-2.166023.0293-.747658-.08065-1.513645-.32985-2.297963-.24924-.784305-.487467-1.444007-.714678-1.979108-.227249-.535082-.476469-.978548-.747663-1.330399-.271229-.351831-.560765-.340836-.868608.03298-.307878.373842-.751344.934588-1.3304 1.682242-.579087.74767-1.297429 1.542977-2.155028 2.385923-.857626.842959-1.979118 1.795861-3.364479 2.85871-1.385388 1.062857-2.638819 1.773869-3.760308 2.133039-1.121498.359171-2.034085.432472-2.737765.2199-.70368-.212566-1.1838-.568072-1.44035-1.066515-.25655-.49844-.43614-1.268092-.53875-2.308958m26.08023 2.001096c.234559.351843.524095.535094.868609.549752.344507.01466.670694-.08063.978558-.285871.307857-.205238.670693-.399484 1.088509-.582736.417806-.183248.824622-.410479 1.22045-.681693.395814-.271208.593725-.612053.593731-1.022538-.000006-.410478-.153936-.729333-.461791-.95657-.307867-.227225-.436142-.51676-.384826-.868607.0513-.351836.212564-.593726.483782-.725673.271203-.131934.722-.205234 1.352389-.219901.659694.131948 1.062845.461798 1.209454.989554.146592.527767.135597 1.018879-.03298 1.473335-.168599.454466.0403.864947.626718 1.231445.586392.366504 1.110488.487449 1.572291.362836.461779-.124607.721995.01833.780647.428807-.07331.439803-.194257.703684-.362836.791642-.168602.08796-.509448.168593-1.022539.241891-.513111.0733-1.128833-.08429-1.847166-.472787-.718351-.388489-1.231452-.465454-1.539306-.230896-.307868.234564-.769659.538759-1.385375.912589-.615728.373832-1.220454.670698-1.814181.890598-.593736.219901-1.271763.329852-2.034083.329852-.703684-.234561-1.202125-.597397-1.495325-1.08851-.293202-.49111-.439802-1.029866-.439802-1.61627.0733-.410479.377496-.861275.912588-1.35239.535091-.491107 1.048192-.901589 1.539306-1.231445.491109-.329846.98955-.571736 1.495326-.725673.505767-.153924.864937-.131934 1.077513.06597.212566.197916.351836.439806.417812.725673.06596.285876.03664.516771-.08796.692687-.124615.175925-.307866.293205-.549752.351842-.241895.05864-.575411.135609-1.000548.230895-.425145.09529-.883272.329855-1.37438.703683-.491114.373834-.619389.73667-.384827 1.088508m9.455735-.32985c.146601-.395819.348176-.81363.604728-1.253435.256549-.439797.846616-1.077509 1.770201-1.913137.92358-.835617 1.605271-1.583279 2.045077-2.242988-.674366.08797-1.125162.135613-1.352389.142935-.227235.0073-.36284-.128268-.406817-.406816-.04398-.278533.02199-.483774.19791-.615723.175918-.131931.520429-.230887 1.033534-.296866.513097-.06596 1.048189-.150256 1.605277-.252886.982216-.923572 1.784853-1.663904 2.407913-2.220998.623043-.557069 1.290075-1.158131 2.001097-1.803186.711002-.645028 1.385364-1.183784 2.023088-1.616271.637699-.432456 1.191115-.656022 1.660251-.670697.278526.366516.01831.905273-.780648 1.61627-.798985.711026-1.433032 1.301093-1.902142 1.770202-.469133.469133-.919928.91993-1.35239 1.35239-.432481.432482-.927257.949248-1.484331 1.550301.718334-.08795 1.792182-.212562 3.221547-.373832 1.429342-.161251 2.891681-.311516 4.387022-.450796 1.495307-.139261 3.001627-.260206 4.518962-.362837 1.517293-.10261 3.005286-.16858 4.463986-.197911 1.458647-.02931 2.975961-.02564 4.55194.011 1.57593.03666 2.85868.102632 3.848269.197911.989517.0953 1.777493.399497 2.36393.912589-.601097.190589-1.150852.252895-1.649255.186915-.498474-.06596-1.033569-.117271-1.605272-.153931-.571776-.03664-1.257132-.04397-2.056077-.02199-.798998.022-1.76656.05132-2.902686.08796-1.13618.03666-2.349299.06232-3.639359.07696-1.290107.01467-2.598515.07698-3.925229.186916-1.326753.10996-2.587516.22724-3.782293.351842-1.194809.124618-2.437248.238233-3.727318.340845-1.290097.102629-2.206349.172264-2.748761.208906-.542431.03666-.989562.07698-1.341395.120946-.351849.04399-.641385.120954-.868607.230895-.227239.109959-.469129.274884-.725673.494777-.256557.219908-.575414.524105-.956568.912588-.381168.388498-.831964.89427-1.352391 1.517316-.520436.623057-.982226 1.158148-1.385374 1.605276-.403155.447135-.692691.864945-.868609 1.253435-.175923.388492-.197913.733003-.06597 1.033533.131937.300532.381158.483782.747662.549752.366498.06597 1.07018-.08063 2.111048-.439801 1.040857-.35917 1.781189-.678026 2.220998-.956569.439794-.278538.773309-.454459 1.000548-.527762.227222-.0733.403143-.02565.527762.142935.124602.168593-.05499.458128-.538757.868609-.48379.410483-.91626.725673-1.297415.945573-.381167.219902-.817304.425142-1.308409.615723-.491117.19058-1.044534.329851-1.660251.417811-.395826.05864-.769657.08796-1.121494.08796-.219904-.000001-.432475-.0073-.637713-.02199-.557084-.05864-.993219-.186917-1.308409-.384827-.315192-.197911-.524098-.458127-.626718-.780648-.117281-.2932-.17592-.557081-.17592-.791642 0-.01466.0073-.03665.02199-.06597 0-.249219.0733-.57174.219901-.967563m9.785584-1.099505c.894261-.293197 1.491657-.571737 1.792192-.835622.300527-.263877.428802-.505767.384826-.725673-.04399-.219896-.293205-.212566-.747663.02199-.454465.234567-.76599.472792-.934578.714679-.168593.241895-.333518.51677-.494777.824627m-1.935127 1.451345c0-.762319.09529-1.348721.285871-1.759206.19058-.410477.502106-.835618.934578-1.275424.43247-.439797.864942-.820958 1.297415-1.143485.432469-.322514.875935-.542415 1.3304-.659702l.505772-.02199c.454456.01467.850277.139277 1.187464.373831.337176.234567.480111.648713.428807 1.242439-.05132.593738-.344517 1.106839-.879604 1.539306-.535096.432476-1.139823.744001-1.814182.934578-.674364.190584-1.0372.36284-1.088508.516767-.05131.153933.05864.322524.329851.505772.271208.183253.8796.300533 1.825177.351842.945568.05131 1.718885.000002 2.319953-.153931.601055-.153929 1.088501-.318854 1.462341-.494777.373822-.175918.667023-.293198.879602-.351841.212562-.05864.384818.05131.516767.329852-.38117.542423-.798981.941909-1.253434 1.198459-.454469.256552-1.022546.487447-1.704231.692687-.681698.205241-1.513656.329852-2.495875.373831h-.593731c-1.070187-.10262-1.792194-.245555-2.166024-.428806-.373831-.18325-.663368-.399485-.868607-.648707-.205241-.24922-.351842-.623051-.439802-1.121495m9.972503.197912c.153929.425143.4398.604728.857613.538756.417809-.06597.79897-.208904 1.143485-.428806.351836-.227229.707343-.560745 1.066518-1.000549.359167-.447128.516762-.751324.472787-.912588-.864947.630385-1.54664 1.048196-2.045077 1.253435-.491115.205243-.989556.388493-1.495326.549752m-2.210003-.989554c.01466-.469118.06231-.828289.142935-1.077514.08063-.249217.216237-.417807.406817-.505772.190581-.08796.432471-.117276.725672-.08796.293201.02933.513101.524101.659703 1.484331.61572-.117277 1.147147-.289532 1.59428-.516767.44713-.227227.87227-.443463 1.275425-.648707.403147-.212567.875934-.436132 1.41836-.670697.542417-.234556 1.048188-.491107 1.517316-.769653.469114-.285866.820955-.564406 1.055524-.835624.234553-.278533.410473-.557075.527762-.835623.117272-.285863.315182-.461783.593732-.527761.329841.0073.571732.07697.725672.208905.153921.124619.249211.421484.285871.890598-.01467.205248-.06598.406824-.15393.604728-.08797.197916-.282216.436142-.582737.714677-.29321.271216-.608401.494782-.945574.670698-.329859.168595-.700025.3775-1.110498.626717-.403159.249225-.809975.582741-1.22045 1.000549-.403157.417814-.696358.82463-.879603 1.220449-.175926.388493-.359176.743999-.549752 1.066519-.190585.315192-.480121.575407-.868608.780648-.388495.19791-.989557.322521-1.803187.373831-.542423-.01466-.967564-.08429-1.275425-.208905-.307861-.124611-.630382-.494777-.967563-1.1105-.337181-.61572-.527761-1.231442-.571742-1.847166" fill="#22225e" opacity=".9"/><rect fill="url(#k)" height="84" rx="6" width="84" x="6" y="116"/><path d="m87.5625 7.4375c.895036 1.1156297 1.4375 2.5457263 1.4375 4.09375 0 36.734647-3.542637 60.104712-7.84375 69.9375-10.816315 5.030845-35.676738 7.53125-69.625 7.53125-1.5480233-.002359-2.9781205-.542849-4.09375-1.4375 1.1925118 1.48546 3.031223 2.434356 5.09375 2.4375 33.948262 0 58.808685-2.500405 69.625-7.53125 4.301113-9.832788 7.84375-33.202853 7.84375-69.9375 0-2.062527-.951078-3.9012381-2.4375-5.09375z" fill="url(#n)" opacity=".3"/><path d="m89.96875 19.28125c-.40529 32.853499-3.78151 53.972258-7.8125 63.1875-10.14029 4.716417-32.62864 7.205224-63.375 7.5 30.86516-.09992 54.68077-1.006315 64.8125-5.71875 4.0323-9.218239 6.12845-31.900739 6.375-64.96875z" fill="#520" opacity=".2"/><path d="m12 6c-3.324 0-6 2.676-6 6v2 68 2c0 .334721.04135.6507.09375.96875.0487.295596.09704.596915.1875.875.00988.03038.020892.0636.03125.09375.098865.287771.2348802.547452.375.8125.1445918.273507.3156161.535615.5.78125s.3737765.473472.59375.6875c.439947.428056.94291.814526 1.5 1.09375.278545.139612.5734731.246947.875.34375-.2562018-.100222-.4867109-.236272-.71875-.375-.00741-.0044-.023866.0045-.03125 0-.031933-.0193-.062293-.04251-.09375-.0625-.120395-.0767-.2310226-.163513-.34375-.25-.1061728-.0808-.2132809-.161112-.3125-.25-.1779299-.161433-.3474596-.345388-.5-.53125-.1075789-.130255-.2183939-.265285-.3125-.40625-.025089-.03838-.038446-.08587-.0625-.125-.064763-.103032-.1302275-.204517-.1875-.3125-.1010083-.194706-.2056748-.415701-.28125-.625-.00796-.02181-.023589-.04055-.03125-.0625-.0318251-.09195-.0358045-.186831-.0625-.28125-.0303323-.106618-.0703894-.203031-.09375-.3125-.0728786-.341512-.125-.698205-.125-1.0625v-2-68-2c0-2.781848 2.2181517-5 5-5h2 68 2c2.781848 0 5 2.218152 5 5v2 68 2c0 .364295-.05212.720988-.125 1.0625-.04415.206893-.08838.397658-.15625.59375-.0077.02195-.0233.04069-.03125.0625-.06274.173739-.138383.367449-.21875.53125-.04158.0828-.07904.169954-.125.25-.0546.09721-.126774.18835-.1875.28125-.09411.140965-.204921.275995-.3125.40625-.143174.17445-.303141.346998-.46875.5-.01117.0102-.01998.02115-.03125.03125-.138386.125556-.285091.234436-.4375.34375-.102571.07315-.204318.153364-.3125.21875-.0074.0045-.02384-.0044-.03125 0-.232039.138728-.462548.274778-.71875.375.301527-.0968.596455-.204138.875-.34375.55709-.279224 1.060053-.665694 1.5-1.09375.219973-.214028.409366-.441865.59375-.6875s.355408-.507743.5-.78125c.14012-.265048.276135-.524729.375-.8125.01041-.03078.02133-.06274.03125-.09375.09046-.278085.1388-.579404.1875-.875.0524-.31805.09375-.634029.09375-.96875v-2-68-2c0-3.324-2.676-6-6-6z" fill="url(#b)" opacity=".6"/><rect height="66" rx="12" style="opacity:.1;stroke:#fefefe;stroke-width:.5;stroke-linecap:round;clip-path:url(#f);fill:url(#d);filter:url(#c)" width="66" x="15" y="15"/></svg>