<svg height="96" width="96" xmlns="http://www.w3.org/2000/svg" xmlns:xlink="http://www.w3.org/1999/xlink"><linearGradient id="a"><stop offset="0"/><stop offset="1" stop-opacity=".588235"/></linearGradient><linearGradient id="b" gradientTransform="scale(1.0058652 .994169)" gradientUnits="userSpaceOnUse" x1="45.447727" x2="45.447727" xlink:href="#a" y1="92.539597" y2="7.01654"/><linearGradient id="c"><stop offset="0" stop-color="#fefefe"/><stop offset="1" stop-color="#fefefe" stop-opacity="0"/></linearGradient><linearGradient id="d" gradientUnits="userSpaceOnUse" x1="36.357143" x2="36.357143" xlink:href="#c" y1="6" y2="63.893143"/><filter id="e" color-interpolation-filters="sRGB" height="1.384" width="1.384" x="-.192" y="-.192"><feGaussianBlur stdDeviation="5.28"/></filter><linearGradient id="f" gradientUnits="userSpaceOnUse" x1="48" x2="48" xlink:href="#c" y1="20.220806" y2="138.66119"/><radialGradient id="g" cx="48" cy="90.171875" gradientTransform="matrix(1.1573129 0 0 .99590774 -7.551021 .197132)" gradientUnits="userSpaceOnUse" r="42" xlink:href="#c"/><clipPath id="h"><rect height="84" rx="6" width="84" x="6" y="6"/></clipPath><linearGradient id="i" gradientUnits="userSpaceOnUse" x1="48" x2="48" y1="90" y2="5.987717"><stop offset="0" stop-color="#b9b9b9"/><stop offset="1" stop-color="#dedede"/></linearGradient><linearGradient id="j" gradientTransform="matrix(.84615385 0 0 .84375067 17.384616 7.499945)" gradientUnits="userSpaceOnUse" x1="36.181816" x2="36.181816" xlink:href="#b" y1="19.555605" y2="76.44445"/><linearGradient id="k" gradientUnits="userSpaceOnUse" x1="22" x2="22" y1="21" y2="75.083267"><stop offset="0" stop-color="#ebebeb"/><stop offset="1" stop-color="#c8c8c8"/></linearGradient><linearGradient id="l" gradientUnits="userSpaceOnUse" x1="21" x2="21" xlink:href="#c" y1="21" y2="71"/><linearGradient id="m" gradientUnits="userSpaceOnUse" x1="22" x2="22" y1="76" y2="-.236474"><stop offset="0" stop-color="#5d5d5d"/><stop offset="1" stop-color="#909090"/></linearGradient><linearGradient id="n" gradientUnits="userSpaceOnUse" x1="22" x2="22" y1="76" y2="23.961554"><stop offset="0"/><stop offset="1" stop-opacity="0"/></linearGradient><linearGradient id="o" gradientUnits="userSpaceOnUse" x1="23" x2="23" y1="42" y2="52"><stop offset="0" stop-color="#1a1a1a"/><stop offset="1" stop-color="#3a3a3a"/></linearGradient><linearGradient id="p" gradientTransform="matrix(1.0058652 0 0 .994169 100 0)" gradientUnits="userSpaceOnUse" x1="45.447727" x2="45.447727" xlink:href="#a" y1="92.539597" y2="7.01654"/><linearGradient id="q" gradientTransform="matrix(1.0238095 0 0 1.0119048 -1.142857 -98.071429)" gradientUnits="userSpaceOnUse" x1="32.251034" x2="32.251034" xlink:href="#p" y1="6.131708" y2="90.238609"/><linearGradient id="r" gradientTransform="translate(0 -97)" gradientUnits="userSpaceOnUse" x1="32.251034" x2="32.251034" xlink:href="#p" y1="6.131708" y2="90.238609"/><g><g fill="url(#q)"><path d="m12-95.03125c-5.5110903 0-10.03125 4.52016-10.03125 10.03125v71c0 5.5110902 4.5201598 10.03125 10.03125 10.03125h72c5.51109 0 10.03125-4.5201597 10.03125-10.03125v-71c0-5.51109-4.52016-10.03125-10.03125-10.03125z" opacity=".08" transform="scale(1 -1)"/><path d="m12-94.03125c-4.971633 0-9.03125 4.059617-9.03125 9.03125v71c0 4.9716329 4.0596171 9.03125 9.03125 9.03125h72c4.971633 0 9.03125-4.059617 9.03125-9.03125v-71c0-4.971633-4.059617-9.03125-9.03125-9.03125z" opacity=".1" transform="scale(1 -1)"/><path d="m12-93c-4.4091333 0-8 3.590867-8 8v71c0 4.4091333 3.5908667 8 8 8h72c4.409133 0 8-3.5908667 8-8v-71c0-4.409133-3.590867-8-8-8z" opacity=".2" transform="scale(1 -1)"/><rect height="85" opacity=".3" rx="7" transform="scale(1 -1)" width="86" x="5" y="-92"/></g><rect fill="url(#r)" height="84" opacity=".45" rx="6" transform="scale(1 -1)" width="84" x="6" y="-91"/></g><g><rect fill="url(#i)" height="84" rx="6" width="84" x="6" y="6"/><path d="m12 6c-3.324 0-6 2.676-6 6v2 68 2c0 .334721.04135.6507.09375.96875.0487.295596.09704.596915.1875.875.00988.03038.020892.0636.03125.09375.098865.287771.2348802.547452.375.8125.1445918.273507.3156161.535615.5.78125s.3737765.473472.59375.6875c.439947.428056.94291.814526 1.5 1.09375.278545.139612.5734731.246947.875.34375-.2562018-.100222-.4867109-.236272-.71875-.375-.00741-.0044-.023866.0045-.03125 0-.031933-.0193-.062293-.04251-.09375-.0625-.120395-.0767-.2310226-.163513-.34375-.25-.1061728-.0808-.2132809-.161112-.3125-.25-.1779299-.161433-.3474596-.345388-.5-.53125-.1075789-.130255-.2183939-.265285-.3125-.40625-.025089-.03838-.038446-.08587-.0625-.125-.064763-.103032-.1302275-.204517-.1875-.3125-.1010083-.194706-.2056748-.415701-.28125-.625-.00796-.02181-.023589-.04055-.03125-.0625-.0318251-.09195-.0358045-.186831-.0625-.28125-.0303323-.106618-.0703894-.203031-.09375-.3125-.0728786-.341512-.125-.698205-.125-1.0625v-2-68-2c0-2.781848 2.2181517-5 5-5h2 68 2c2.781848 0 5 2.218152 5 5v2 68 2c0 .364295-.05212.720988-.125 1.0625-.04415.206893-.08838.397658-.15625.59375-.0077.02195-.0233.04069-.03125.0625-.06274.173739-.138383.367449-.21875.53125-.04158.0828-.07904.169954-.125.25-.0546.09721-.126774.18835-.1875.28125-.09411.140965-.204921.275995-.3125.40625-.143174.17445-.303141.346998-.46875.5-.01117.0102-.01998.02115-.03125.03125-.138386.125556-.285091.234436-.4375.34375-.102571.07315-.204318.153364-.3125.21875-.0074.0045-.02384-.0044-.03125 0-.232039.138728-.462548.274778-.71875.375.301527-.0968.596455-.204138.875-.34375.55709-.279224 1.060053-.665694 1.5-1.09375.219973-.214028.409366-.441865.59375-.6875s.355408-.507743.5-.78125c.14012-.265048.276135-.524729.375-.8125.01041-.03078.02133-.06274.03125-.09375.09046-.278085.1388-.579404.1875-.875.0524-.31805.09375-.634029.09375-.96875v-2-68-2c0-3.324-2.676-6-6-6z" fill="url(#d)" opacity=".5"/><path d="m12 90c-3.324 0-6-2.676-6-6v-2-68-2c0-.334721.04135-.6507.09375-.96875.0487-.295596.09704-.596915.1875-.875.00988-.03038.020892-.0636.03125-.09375.098865-.287771.2348802-.547452.375-.8125.1445918-.273507.3156161-.535615.5-.78125s.3737765-.473472.59375-.6875c.439947-.428056.94291-.814526 1.5-1.09375.278545-.139612.5734731-.246947.875-.34375-.2562018.100222-.4867109.236272-.71875.375-.00741.0044-.023866-.0045-.03125 0-.031933.0193-.062293.04251-.09375.0625-.120395.0767-.2310226.163513-.34375.25-.1061728.0808-.2132809.161112-.3125.25-.1779299.161433-.3474596.345388-.5.53125-.1075789.130255-.2183939.265285-.3125.40625-.025089.03838-.038446.08587-.0625.125-.064763.103032-.1302275.204517-.1875.3125-.1010083.194706-.2056748.415701-.28125.625-.00796.02181-.023589.04055-.03125.0625-.0318251.09195-.0358045.186831-.0625.28125-.0303323.106618-.0703894.203031-.09375.3125-.0728786.341512-.125.698205-.125 1.0625v2 68 2c0 2.781848 2.2181517 5 5 5h2 68 2c2.781848 0 5-2.218152 5-5v-2-68-2c0-.364295-.05212-.720988-.125-1.0625-.04415-.206893-.08838-.397658-.15625-.59375-.0077-.02195-.0233-.04069-.03125-.0625-.06274-.173739-.138383-.367449-.21875-.53125-.04158-.0828-.07904-.169954-.125-.25-.0546-.09721-.126774-.18835-.1875-.28125-.09411-.140965-.204921-.275995-.3125-.40625-.143174-.17445-.303141-.346998-.46875-.5-.01117-.0102-.01998-.02115-.03125-.03125-.138386-.125556-.285091-.234436-.4375-.34375-.102571-.07315-.204318-.153364-.3125-.21875-.0074-.0045-.02384.0044-.03125 0-.232039-.138728-.462548-.274778-.71875-.375.301527.0968.596455.204138.875.34375.55709.279224 1.060053.665694 1.5 1.09375.219973.214028.409366.441865.59375.6875s.355408.507743.5.78125c.14012.265048.276135.524729.375.8125.01041.03078.02133.06274.03125.09375.09046.278085.1388.579404.1875.875.0524.31805.09375.634029.09375.96875v2 68 2c0 3.324-2.676 6-6 6z" fill="url(#g)" opacity=".25"/></g><rect height="66" rx="12" style="opacity:.1;stroke:#fefefe;stroke-width:.5;stroke-linecap:round;clip-path:url(#h);fill:url(#f);filter:url(#e)" width="66" x="15" y="15"/><g><path d="m19 15c-2.753005 0-5 2.246995-5 5v56c0 2.753005 2.246995 5 5 5h8c2.753005 0 5-2.246995 5-5v-56c0-2.753005-2.246995-5-5-5z" fill="url(#n)" opacity=".05"/><path d="m19 15.96875c-2.220837 0-4.03125 1.810413-4.03125 4.03125v56c0 2.220837 1.810413 4.03125 4.03125 4.03125h8c2.220837 0 4.03125-1.810413 4.03125-4.03125v-56c0-2.220837-1.810413-4.03125-4.03125-4.03125z" fill="url(#n)" opacity=".1"/><path d="m55.217121 74.505079c-2.595785-.863811-4.105229-1.721237-6.65418-3.77985-6.841603-5.525474-10.40276-13.67192-8.464313-19.362816.800836-2.351085 1.71362-3.840869 3.365099-5.492266 2.867544-2.867405 7.339099-4.982425 12.927969-6.11484 8.678179-1.758374 15.512314.434339 16.046733 5.148548.388004 3.422671-2.245464 6.538106-9.837516 11.637933-5.389348 3.620193-7.488624 5.549191-7.488624 6.881175 0 1.914628 2.329474 3.834363 4.652791 3.834363 1.465987 0 2.218989-.789711 2.867305-3.007067.85835-2.935711 2.612595-3.971097 6.79353-4.009659 2.9287-.02703 3.838261.649624 3.972708 2.955362.07873 1.350369-.08691 2.031614-.886795 3.647117-1.311177 2.648148-4.384564 5.688691-7.087366 7.011658-1.844321.902752-2.413676 1.023599-5.272545 1.119022-2.493839.08323-3.588774-.02072-4.934796-.46868zm-16.794296-32.278711c-2.211738-1.93081-3.163309-5.785565-1.770149-7.170756 2.123507-2.111339 4.817401-.55607 5.673621 3.275563.902389 4.038247-1.263664 6.199702-3.903472 3.895193zm7.455724-5.380595c-1.584939-1.660575-2.11287-2.97505-2.127806-5.297963-.01266-1.96963-.01507-2.512737 1.021808-3.543676 2.057636-2.045857 4.642279-.524829 5.43883 3.759446.391729 2.106923-.0504 4.015652-1.213429 5.238553-1.073633 1.128898-1.933839 1.085781-3.119403-.15636zm21.29963.006c-1.024011-.535039-2.143283-2.221317-2.408951-3.629345-.515261-2.730853 1.451946-7.680397 3.81913-9.609017 3.863978-3.14811 9.565985-3.525976 11.020022-.730285 1.182981 2.274535-.376254 6.324806-3.838387 9.97059-3.204936 3.374943-6.684876 4.994251-8.591814 3.997997zm-11.561799-2.183029c-1.224607-.587607-2.108371-2.910867-2.116007-5.562629-.01117-3.872381 1.532886-5.937821 4.440806-5.940421 1.773944-.0015 2.806038 1.19127 3.107686 3.591748.368571 2.933078-1.484455 7.295995-3.377443 7.952117-1.142826.396106-1.144544.396077-2.055042-.04083z" fill="url(#j)" opacity=".8"/><path d="m75.78125 21c-2.253438-.05401-5.014012.854188-7.1875 2.625-2.262925 1.843677-4.162386 6.431059-3.875 9.21875.155447-2.786731 1.86304-6.579542 3.875-8.21875 3.863978-3.14811 9.545963-3.545691 11-.75.191276.367768.323559.7986.375 1.25.07425-.853853-.04806-1.621387-.375-2.25-.636141-1.223115-2.059826-1.832989-3.8125-1.875zm-17.84375 2.15625c-2.90792.0026-4.44867 2.065119-4.4375 5.9375.000567.196942.02124.401008.03125.59375.102246-3.593894 1.608377-5.528748 4.40625-5.53125 1.773944-.0015 2.823352 1.193272 3.125 3.59375.01148.09138-.0072.187253 0 .28125.02779-.44467.05075-.877388 0-1.28125-.301648-2.400478-1.351056-3.59525-3.125-3.59375zm-11.15625 3.9375c-.675291-.0328-1.356989.26692-2 .90625-.985034.979392-1.039859 1.572325-1.03125 3.3125.04259-1.032012.253591-1.539296 1.03125-2.3125 2.057636-2.045857 4.640949-.534275 5.4375 3.75.06461.347508.074.696714.09375 1.03125.04937-.637296.03615-1.332586-.09375-2.03125-.547629-2.945439-1.95186-4.584086-3.4375-4.65625zm-8.03125 7c-.701511-.01391-1.430154.308957-2.09375.96875-.522435.519447-.704827 1.392677-.625 2.375.07839-.559952.2889-1.040823.625-1.375 2.123507-2.111339 4.80003-.550383 5.65625 3.28125.09731.435477.1583.830171.1875 1.21875.05362-.652895-.000378-1.381367-.1875-2.21875-.588651-2.634248-2.019175-4.219389-3.5625-4.25zm23.75 5.0625c-1.869419-.03196-3.924205.154156-6.09375.59375-5.58887 1.132415-10.069956 3.257595-12.9375 6.125-1.651479 1.651397-2.574164 3.148915-3.375 5.5-.403843 1.185603-.553487 2.459644-.5 3.8125.04281-.989737.197118-1.923298.5-2.8125.800836-2.351085 1.723521-3.848603 3.375-5.5 2.867544-2.867405 7.34863-4.992585 12.9375-6.125 8.678179-1.758374 15.496831.442041 16.03125 5.15625.02207-.332603.03813-.663637 0-1-.400814-3.535657-4.329242-5.654135-9.9375-5.75zm6.9375 21.09375c-4.180935.03856-5.95415 1.064289-6.8125 4-.648316 2.217356-1.409013 3-2.875 3-2.073114 0-4.138971-1.529251-4.5625-3.21875-.03909.138599-.0625.279421-.0625.40625 0 1.914628 2.301683 3.8125 4.625 3.8125 1.465987 0 2.226684-.782644 2.875-3 .85835-2.935711 2.631565-3.961438 6.8125-4 2.885393-.02663 3.813439.619374 3.96875 2.84375.01696-.279005.01968-.568658 0-.90625-.134447-2.305738-1.04005-2.96453-3.96875-2.9375z" opacity=".5"/><path d="m79.96875 25.125c-.194398 2.235676-1.682196 5.080551-4.1875 7.71875-3.204936 3.374943-6.686812 4.996254-8.59375 4-1.024011-.535039-2.140582-2.216972-2.40625-3.625-.02269-.120277-.04926-.246563-.0625-.375-.02745.492015-.01482.965203.0625 1.375.265668 1.408028 1.382239 3.089961 2.40625 3.625 1.906938.996254 5.388814-.625057 8.59375-4 2.902343-3.056299 4.454208-6.378378 4.1875-8.71875zm-18.90625 2.90625c-.174066 2.784777-1.773912 6.121721-3.40625 6.6875-1.142826.396106-1.120752.374407-2.03125-.0625-1.133658-.543966-1.968942-2.566286-2.09375-4.96875-.004.141357-.03167.259703-.03125.40625.0076 2.651762.900393 4.974893 2.125 5.5625.910498.436907.888424.458606 2.03125.0625 1.834014-.635681 3.63128-4.764314 3.40625-7.6875zm-17.3125 3.53125c-.0065.295119-.0025.606074 0 1 .01494 2.322913.540061 3.620675 2.125 5.28125 1.185564 1.242141 2.051367 1.285148 3.125.15625.971204-1.0212 1.412487-2.525008 1.3125-4.21875-.099505 1.284563-.535136 2.401368-1.3125 3.21875-1.073633 1.128898-1.939436 1.085891-3.125-.15625-1.584939-1.660575-2.110064-2.958337-2.125-5.28125zm-7.71875 5.9375c-.216435 1.759034.747447 4.270643 2.40625 5.71875 2.355136 2.055995 4.304073.558529 4.0625-2.65625-.204979 2.495665-1.970091 3.482889-4.0625 1.65625-1.365469-1.192031-2.256618-3.09394-2.40625-4.71875zm36.40625 8.6875c-.347927 2.95896-3.200705 5.881401-9.84375 10.34375-5.389348 3.620193-7.46875 5.574266-7.46875 6.90625 0 .206191.01138.389845.0625.59375.37148-1.316998 2.530066-3.224515 7.40625-6.5 7.379058-4.956752 10.054609-8.032104 9.84375-11.34375zm-32.84375 9c-.231187 5.34458 3.196147 11.869131 8.96875 16.53125 2.548951 2.058613 4.060465 2.917439 6.65625 3.78125 1.346022.44796 2.443661.55198 4.9375.46875 2.858869-.09542 3.436929-.222248 5.28125-1.125 2.702802-1.322967 5.751323-4.351852 7.0625-7 .799885-1.615503.98498-2.305881.90625-3.65625-.06309.795571-.328876 1.490146-.90625 2.65625-1.311177 2.648148-4.359698 5.677033-7.0625 7-1.844321.902752-2.422381 1.029577-5.28125 1.125-2.493839.08323-3.591478-.02079-4.9375-.46875-2.595785-.863811-4.107299-1.722637-6.65625-3.78125-5.416269-4.374334-8.7655-10.390399-8.96875-15.53125z" fill="#fefefe" opacity=".5"/><path d="m19 17h8c1.662 0 3 1.338 3 3v56c0 1.662-1.338 3-3 3h-8c-1.662 0-3-1.338-3-3v-56c0-1.662 1.338-3 3-3z" fill="url(#m)"/><path d="m19 17.96875c-1.136452 0-2.03125.894798-2.03125 2.03125v56c0 1.136452.894798 2.03125 2.03125 2.03125h8c1.136452 0 2.03125-.894798 2.03125-2.03125v-56c0-1.136452-.894798-2.03125-2.03125-2.03125z" fill="url(#k)"/><path d="m19 17.96875c-1.136452 0-2.03125.894798-2.03125 2.03125v56c0 1.136452.894798 2.03125 2.03125 2.03125h8c1.136452 0 2.03125-.894798 2.03125-2.03125v-56c0-1.136452-.894798-2.03125-2.03125-2.03125zm0 1.0625h8c.575727 0 .96875.393023.96875.96875v56c0 .575727-.393023.96875-.96875.96875h-8c-.575727 0-.96875-.393023-.96875-.96875v-56c0-.575727.393023-.96875.96875-.96875z" fill="url(#l)" opacity=".8"/><path d="m19 47 7 5v-10z" fill="url(#o)" opacity=".8"/><path d="m26 42-7 5 .6875.5 6.3125-4.5z" opacity=".5"/><path d="m19.6875 47.5-.6875.5 7 5v-1z" fill="#fefefe" opacity=".5"/></g></svg>