<svg height="96" width="96" xmlns="http://www.w3.org/2000/svg" xmlns:xlink="http://www.w3.org/1999/xlink"><linearGradient id="a"><stop offset="0" stop-color="#fefefe"/><stop offset="1" stop-color="#fefefe" stop-opacity="0"/></linearGradient><linearGradient id="b" gradientUnits="userSpaceOnUse" x1="36.357143" x2="36.357143" xlink:href="#a" y1="6" y2="63.893143"/><filter id="c" color-interpolation-filters="sRGB" height="1.384" width="1.384" x="-.192" y="-.192"><feGaussianBlur stdDeviation="5.28"/></filter><linearGradient id="d" gradientUnits="userSpaceOnUse" x1="48" x2="48" xlink:href="#a" y1="20.220806" y2="138.66119"/><radialGradient id="e" cx="48" cy="90.171875" gradientTransform="matrix(1.1573129 0 0 .99590774 -7.551021 .197132)" gradientUnits="userSpaceOnUse" r="42" xlink:href="#a"/><clipPath id="f"><rect height="84" rx="6" width="84" x="6" y="6"/></clipPath><linearGradient id="g" gradientUnits="userSpaceOnUse" x1="48" x2="48" y1="90" y2="5.987717"><stop offset="0" stop-color="#22193e"/><stop offset="1" stop-color="#9586af"/></linearGradient><linearGradient id="h" gradientTransform="matrix(1.0058652 0 0 .994169 100 0)" gradientUnits="userSpaceOnUse" x1="45.447727" x2="45.447727" y1="92.539597" y2="7.01654"><stop offset="0"/><stop offset="1" stop-opacity=".588235"/></linearGradient><linearGradient id="i" gradientTransform="matrix(1.0238095 0 0 1.0119048 -1.142857 -98.071429)" gradientUnits="userSpaceOnUse" x1="32.251034" x2="32.251034" xlink:href="#h" y1="6.131708" y2="90.238609"/><linearGradient id="j" gradientTransform="translate(0 -97)" gradientUnits="userSpaceOnUse" x1="32.251034" x2="32.251034" xlink:href="#h" y1="6.131708" y2="90.238609"/><radialGradient id="k" cx="46.972088" cy="-33.92337" gradientTransform="matrix(.59847574 0 0 .56885524 11.060869 58.573934)" gradientUnits="userSpaceOnUse" r="60.306107"><stop offset="0" stop-color="#fefefe"/><stop offset=".5" stop-color="#f6f6f6"/><stop offset="1" stop-color="#8aa6c6"/></radialGradient><radialGradient id="l" cx="46.972088" cy="-33.92337" gradientTransform="matrix(1.16425 0 0 1.10663 -7.71521 3.61728)" gradientUnits="userSpaceOnUse" r="60.306107"><stop offset="0" stop-color="#95d2f8"/><stop offset=".41" stop-color="#357bb5"/><stop offset="1" stop-color="#13324e"/></radialGradient><radialGradient id="m" cx="65.260735" cy="-19.960367" gradientTransform="matrix(1.13731 0 0 1.10821 -5.9284 3.62966)" gradientUnits="userSpaceOnUse" r="60.306107"><stop offset="0" stop-opacity="0"/><stop offset=".91000003" stop-opacity="0"/><stop offset="1"/></radialGradient><radialGradient id="n" cx="22.109167" cy="19.780535" gradientTransform="matrix(1.5734438 0 0 1.4686163 8.676452 12.714697)" gradientUnits="userSpaceOnUse" r="19.18985"><stop offset="0" stop-color="#e3ebf3"/><stop offset="1" stop-color="#cedceb" stop-opacity=".131783"/></radialGradient><linearGradient id="o" gradientUnits="userSpaceOnUse" x1="66.658142" x2="66.658142" xlink:href="#a" y1="-77.510933" y2="51.679737"/><radialGradient id="p" cx="64.144684" cy="-16.952808" gradientUnits="userSpaceOnUse" r="60.306107" xlink:href="#a"/><path d="m12-95.03125c-5.5110903 0-10.03125 4.52016-10.03125 10.03125v71c0 5.5110902 4.5201598 10.03125 10.03125 10.03125h72c5.51109 0 10.03125-4.5201597 10.03125-10.03125v-71c0-5.51109-4.52016-10.03125-10.03125-10.03125z" fill="url(#i)" opacity=".08" transform="scale(1 -1)"/><path d="m12-94.03125c-4.971633 0-9.03125 4.059617-9.03125 9.03125v71c0 4.9716329 4.0596171 9.03125 9.03125 9.03125h72c4.971633 0 9.03125-4.059617 9.03125-9.03125v-71c0-4.971633-4.059617-9.03125-9.03125-9.03125z" fill="url(#i)" opacity=".1" transform="scale(1 -1)"/><path d="m12-93c-4.4091333 0-8 3.590867-8 8v71c0 4.4091333 3.5908667 8 8 8h72c4.409133 0 8-3.5908667 8-8v-71c0-4.409133-3.590867-8-8-8z" fill="url(#i)" opacity=".2" transform="scale(1 -1)"/><rect fill="url(#i)" height="85" opacity=".3" rx="7" transform="scale(1 -1)" width="86" x="5" y="-92"/><rect fill="url(#j)" height="84" opacity=".45" rx="6" transform="scale(1 -1)" width="84" x="6" y="-91"/><g><rect fill="url(#g)" height="84" rx="6" width="84" x="6" y="6"/><path d="m12 6c-3.324 0-6 2.676-6 6v2 68 2c0 .334721.04135.6507.09375.96875.0487.295596.09704.596915.1875.875.00988.03038.020892.0636.03125.09375.098865.287771.2348802.547452.375.8125.1445918.273507.3156161.535615.5.78125s.3737765.473472.59375.6875c.439947.428056.94291.814526 1.5 1.09375.278545.139612.5734731.246947.875.34375-.2562018-.100222-.4867109-.236272-.71875-.375-.00741-.0044-.023866.0045-.03125 0-.031933-.0193-.062293-.04251-.09375-.0625-.120395-.0767-.2310226-.163513-.34375-.25-.1061728-.0808-.2132809-.161112-.3125-.25-.1779299-.161433-.3474596-.345388-.5-.53125-.1075789-.130255-.2183939-.265285-.3125-.40625-.025089-.03838-.038446-.08587-.0625-.125-.064763-.103032-.1302275-.204517-.1875-.3125-.1010083-.194706-.2056748-.415701-.28125-.625-.00796-.02181-.023589-.04055-.03125-.0625-.0318251-.09195-.0358045-.186831-.0625-.28125-.0303323-.106618-.0703894-.203031-.09375-.3125-.0728786-.341512-.125-.698205-.125-1.0625v-2-68-2c0-2.781848 2.2181517-5 5-5h2 68 2c2.781848 0 5 2.218152 5 5v2 68 2c0 .364295-.05212.720988-.125 1.0625-.04415.206893-.08838.397658-.15625.59375-.0077.02195-.0233.04069-.03125.0625-.06274.173739-.138383.367449-.21875.53125-.04158.0828-.07904.169954-.125.25-.0546.09721-.126774.18835-.1875.28125-.09411.140965-.204921.275995-.3125.40625-.143174.17445-.303141.346998-.46875.5-.01117.0102-.01998.02115-.03125.03125-.138386.125556-.285091.234436-.4375.34375-.102571.07315-.204318.153364-.3125.21875-.0074.0045-.02384-.0044-.03125 0-.232039.138728-.462548.274778-.71875.375.301527-.0968.596455-.204138.875-.34375.55709-.279224 1.060053-.665694 1.5-1.09375.219973-.214028.409366-.441865.59375-.6875s.355408-.507743.5-.78125c.14012-.265048.276135-.524729.375-.8125.01041-.03078.02133-.06274.03125-.09375.09046-.278085.1388-.579404.1875-.875.0524-.31805.09375-.634029.09375-.96875v-2-68-2c0-3.324-2.676-6-6-6z" fill="url(#b)" opacity=".4"/><path d="m12 90c-3.324 0-6-2.676-6-6v-2-68-2c0-.334721.04135-.6507.09375-.96875.0487-.295596.09704-.596915.1875-.875.00988-.03038.020892-.0636.03125-.09375.098865-.287771.2348802-.547452.375-.8125.1445918-.273507.3156161-.535615.5-.78125s.3737765-.473472.59375-.6875c.439947-.428056.94291-.814526 1.5-1.09375.278545-.139612.5734731-.246947.875-.34375-.2562018.100222-.4867109.236272-.71875.375-.00741.0044-.023866-.0045-.03125 0-.031933.0193-.062293.04251-.09375.0625-.120395.0767-.2310226.163513-.34375.25-.1061728.0808-.2132809.161112-.3125.25-.1779299.161433-.3474596.345388-.5.53125-.1075789.130255-.2183939.265285-.3125.40625-.025089.03838-.038446.08587-.0625.125-.064763.103032-.1302275.204517-.1875.3125-.1010083.194706-.2056748.415701-.28125.625-.00796.02181-.023589.04055-.03125.0625-.0318251.09195-.0358045.186831-.0625.28125-.0303323.106618-.0703894.203031-.09375.3125-.0728786.341512-.125.698205-.125 1.0625v2 68 2c0 2.781848 2.2181517 5 5 5h2 68 2c2.781848 0 5-2.218152 5-5v-2-68-2c0-.364295-.05212-.720988-.125-1.0625-.04415-.206893-.08838-.397658-.15625-.59375-.0077-.02195-.0233-.04069-.03125-.0625-.06274-.173739-.138383-.367449-.21875-.53125-.04158-.0828-.07904-.169954-.125-.25-.0546-.09721-.126774-.18835-.1875-.28125-.09411-.140965-.204921-.275995-.3125-.40625-.143174-.17445-.303141-.346998-.46875-.5-.01117-.0102-.01998-.02115-.03125-.03125-.138386-.125556-.285091-.234436-.4375-.34375-.102571-.07315-.204318-.153364-.3125-.21875-.0074-.0045-.02384.0044-.03125 0-.232039-.138728-.462548-.274778-.71875-.375.301527.0968.596455.204138.875.34375.55709.279224 1.060053.665694 1.5 1.09375.219973.214028.409366.441865.59375.6875s.355408.507743.5.78125c.14012.265048.276135.524729.375.8125.01041.03078.02133.06274.03125.09375.09046.278085.1388.579404.1875.875.0524.31805.09375.634029.09375.96875v2 68 2c0 3.324-2.676 6-6 6z" fill="url(#e)" opacity=".2"/><path d="m124.45079-16.952808a60.306107 60.306107 0 1 1 -120.6122127 0 60.306107 60.306107 0 1 1 120.6122127 0z" fill="url(#p)" fill-rule="evenodd" opacity=".2" transform="matrix(.55997054 0 0 .15984552 12.080867 78.349491)"/></g><rect height="66" rx="12" style="opacity:.1;stroke:#fefefe;stroke-width:.5;stroke-linecap:round;clip-path:url(#f);fill:url(#d);filter:url(#c)" width="66" x="15" y="15"/><g fill-rule="evenodd"><path d="m64.15625-83.125c-36.479821 0-66.1875 29.707679-66.1875 66.1875 0 36.479954 29.711128 66.15625 66.1875 66.15625 36.4765 0 66.15625-29.679746 66.15625-66.15625 0-36.476372-29.6763-66.1875-66.15625-66.1875z" opacity=".05" transform="matrix(.51404413 0 0 .51404413 15.026802 57.714492)"/><path d="m64.15625-81.125c-35.395504 0-64.1875 28.791996-64.1875 64.1875 0 35.39555 28.794338 64.15625 64.1875 64.15625 35.393207 0 64.15625-28.763043 64.15625-64.15625 0-35.393162-28.7607-64.1875-64.15625-64.1875z" opacity=".1" transform="matrix(.51404413 0 0 .51404413 15.026802 57.714492)"/><path d="m64.15625-79.125c-34.313085 0-62.1875 27.874415-62.1875 62.1875s27.875581 62.15625 62.1875 62.15625 62.15625-27.844331 62.15625-62.15625-27.843165-62.1875-62.15625-62.1875z" opacity=".15" transform="matrix(.51404413 0 0 .51404413 15.026802 57.714492)"/><path d="m124.45079-16.952808a60.306107 60.306107 0 1 1 -120.6122127 0 60.306107 60.306107 0 1 1 120.6122127 0z" opacity=".3" transform="matrix(.51404413 0 0 .51404413 15.026802 57.714492)"/><path d="m124.45079-16.952808a60.306107 60.306107 0 1 1 -120.6122127 0 60.306107 60.306107 0 1 1 120.6122127 0z" fill="url(#l)" transform="matrix(.51404413 0 0 .51404413 15.026802 56.714492)"/><path d="m124.45079-16.952808a60.306107 60.306107 0 1 1 -120.6122127 0 60.306107 60.306107 0 1 1 120.6122127 0z" fill="url(#m)" transform="matrix(.51404413 0 0 .51404413 15.026802 56.714492)"/></g><path d="m47.975144 18.301922-3.429992.397679-4.225352 1.168187-.79536.770504 2.634632 1.814416v1.04391l-1.043911 1.04391 1.367025 2.709195.919636-.497099 1.14333-1.839271c1.766975-.547337 3.366073-1.160405 5.045567-1.938691l1.367026-3.504555zm-8.028169.422535c-.755569.213653-1.506625.451057-2.236951.720794l-.02485.02485c-.01449.0053-.03524-.0054-.04971 0-1.008155.375362-1.978814.815819-2.932892 1.29246l1.491301.273405.571665-.521955 1.14333-.24855c.783575-.381812 1.579528-.650222 2.410937-.919636l-.372825-.621374zm-6.835128 2.957745-.223695.521956.09942 1.29246-.89478.770505-.571665 1.44159h1.143331l.571665-1.292461c.493273-.349494.964044-.707498 1.466446-1.04391l1.14333.397681c.762177.518804 1.523856 1.022993 2.286661 1.54101l1.168186-1.04391-1.267606-.4971-.571666-1.168185-2.18724-.273405-.09942-.646231-1.04391.24855-.44739.919636-.571665-1.168186zm29.304058 1.043911-2.187241.521955-1.367026.89478v.770505l-2.162386 1.44159.447391 2.062966 1.267605-.89478.79536.89478.919636.521955.571665-1.541011-.34797-.919634.34797-.646231 1.242751-1.168185h.571665l-.571665 1.29246v1.168186c.525531-.143298 1.077772-.181552 1.615576-.24855l-1.491302 1.019055-.124274.671086-1.714996 1.416734-1.714997-.39768v-1.019054l-.79536.4971.347971.919634h-1.267605l-.671086 1.168186-.869925.969345-1.541011.323116.919635.919634.223696.89478h-1.143331l-1.491301.795361v2.311516h.695941l.621375.720795 1.44159-.720795.571666-1.416736 1.019055-.64623.223696-.521955 1.714994-.39768.919637 1.04391 1.019054.521955-.571664 1.168185.919635-.248549.472246-1.168187-1.143331-1.317314h.44739l1.14333.919635.223696 1.29246 1.04391 1.168186.223696-1.690141.571664-.24855c.565496.588168 1.015019 1.276742 1.4913 1.938691l1.714997.124275 1.019055.646229-.44739.646231-1.043911.919635h-1.466445l-1.963546-.64623-1.019056.124274-.74565.845071-2.112676-2.137531-1.491301-.397679-2.162385.273405-1.963546.521954c-1.091026 1.239235-2.148788 2.466106-3.181441 3.753107l-1.267606 2.9826.571666.64623-1.019057 1.565866 1.143332 2.709195c.972545 1.102243 1.936905 2.202687 2.908035 3.305716l1.416736-1.217895.646231.720795 1.54101-.9942.521955.59652h1.541011l.869926.9942-.54681 1.789561 1.09362 1.24275-.04971 2.13753.79536 1.541013-.571665 1.317311c-.05696.954379-.09942 1.878945-.09942 2.833471.46873 1.293155.924418 2.599788 1.367027 3.902235l.323114 2.062968v1.043911h.820216l1.24275-.770502h1.491302l2.23695-2.53521-.29826-.845078 1.491301-1.292458-1.09362-1.242751 1.317314-1.093617 1.267606-.770503.571665-.646237-.34797-1.441585c0-1.209908 0-2.418762 0-3.628833l1.04391-2.212096 1.242751-1.416735 1.367026-3.380281v-.89478c-.678187.08559-1.324975.150735-1.988401.19884l-.0497.0497-.0497-.0497c-.401579.02729-.804972.0497-1.217895.0497-.728348-1.533398-1.284633-3.068562-1.839272-4.67274l-.969345-1.093621-.497101-1.88898.323116-.372826 1.317315 1.4913 1.541011 3.305717.919636 1.019055-.44739 1.168185.869925.994201c.03272-.0022.06674.0024.09942 0l1.367027-1.367027 1.88898-1.29246 1.043908-1.168185v-1.317315c-.228943-.432567-.465438-.85988-.695948-1.292454l-.919634 1.04391-.695941-.770505-1.019056-.79536v-1.665286l1.193041 1.34217 1.317316-.173984c.599166.544972 1.189464 1.044803 1.714999 1.665285l.845058-.944487c-1.209226-7.407913-5.127067-13.905296-10.687658-18.467269l-.223695.34797-1.143331 1.292461-1.466445-1.541011h1.466445l.621376-.69594c-.0513-.03945-.09757-.08514-.14913-.124276l-2.510356-.472244zm-31.267604.09942c-.40441.276116-.778183.575013-1.168186.869926l-.173985.44739s-.313455.05249-.54681.09942c-6.471056 5.20338-10.761375 13.02809-11.25932 21.847549.310704.533514.695941 1.143331.695941 1.143331l2.410935 1.416735 2.386081.671085 1.043911 1.292461 1.590721 1.168184.919636-.149129.69594.323115v.19884l-.919636 2.460645-.69594 1.04391.223695.521956-.571665 1.93869 2.062965 3.777958 2.062966 1.81442.919636 1.292458-.124276 2.734051.695941 1.541013-.695941 2.982598s-.01638.02201.02485.198841c.961363.681629 1.967615 1.321418 3.007456 1.88898.01628.0089.03341.01597.0497.02488.04472.021.10693.05541.149131.07455.36863.16733.639098.266022.69594.223693.226575-.172461.422534-.323114.422534-.323114l-.223694-.646229.919635-.919637.34797-.894777 1.466446-.521954 1.143331-2.858333-.323116-.770502.79536-1.168185 1.714996-.397682.919635-2.087821-.223695-2.584916 1.367026-1.938695.223695-1.938689c-1.877743-.932931-3.753482-1.897797-5.617226-2.858319l-.894781-1.814416-1.714996-.39768-.919635-2.460645-2.286661.24855-1.93869-1.416736-2.062967 1.814416v.273405c-.623082-.180184-1.383894-.205039-1.938691-.54681l-.472244-1.29246v-1.416735l-1.367027.124274c.114546-.90834.232638-1.801012.347971-2.709195h-.820216l-.79536 1.019055-.79536.39768-1.143331-.64623-.124275-1.44159.24855-1.541011 1.714996-1.29246h1.367025l.223696-.79536 1.714995.39768 1.267606 1.565865.223695-2.609775 2.162386-1.814416.820215-1.93869 1.590721-.646231.919636-1.29246 2.062965-.39768 1.019056-1.565865c-1.029503-.000002-2.052517 0-3.082021 0l1.938691-.89478h1.367025l1.93869-.64623.248551-.795361-.69594-.64623-.795361-.24855.223696-.770505-.571666-1.168186-1.367025.497101.223694-1.019056-1.59072-.919635-1.267605 2.212096.124275.770505-1.267606.521955-.79536 1.69014-.347971-1.565865-2.162386-.89478-.34797-1.168186 2.858327-1.690141 1.24275-1.168184.124275-1.416736-.69594-.39768-.124275-.02485zm19.908864 1.59072-.89478.497101-.472246-.124275-.09942.795361.795361.4971 1.367025-.89478zm-15.086992.248551-.919635.64623 1.14333.770506h.919635v-.89478zm18.069592 2.982601v.770505l.472246.521955v1.168186l-.248549 1.565865 1.267605-.273405.919635-.89478-.79536-.770506c-.268903-.717435-.583077-1.399707-.919636-2.08782zm-.447389 1.565866-.820216.24855.248551 1.416735 1.019054-.497101zm-15.782932 2.33637.323115 1.814415.695941-1.04391z" fill="url(#n)" opacity=".6"/><path d="m47.90625 17.75-3.4375.375a.56474891.56474891 0 0 0 -.09375.03125l-3.53125 1a.56474891.56474891 0 0 0 -.0625-.09375l-.375-.625a.56474891.56474891 0 0 0 -.625-.25c-.768057.217184-1.504649.443464-2.25.71875a.56474891.56474891 0 0 0 -.03125.03125.56474891.56474891 0 0 0 -.03125 0c-.02275.007-.0032-.01047-.03125 0a.56474891.56474891 0 0 0 -.03125.03125c-1.014697.379471-2.010491.80252-2.96875 1.28125a.56474891.56474891 0 0 0 .03125 1.03125l-.46875.09375a.56474891.56474891 0 0 0 -.3125.21875l-.0625-.15625a.56474891.56474891 0 0 0 -1 0l-.25.53125a.56474891.56474891 0 0 0 -.0625.3125l.0625.5625a.56474891.56474891 0 0 0 -.125-.09375l-.6875-.40625a.56474891.56474891 0 0 0 -.15625-.0625l-.125-.03125a.56474891.56474891 0 0 0 -.4375.09375c-.42307.288856-.832042.613828-1.21875.90625a.56474891.56474891 0 0 0 -.1875.25l-.0625.15625c-.104785.01693-.139906.0091-.25.03125a.56474891.56474891 0 0 0 -.21875.125c-6.591616 5.300322-10.961596 13.267434-11.46875 22.25a.56474891.56474891 0 0 0 .0625.3125c.319277.548235.71875 1.15625.71875 1.15625a.56474891.56474891 0 0 0 .1875.1875l2.40625 1.4375a.56474891.56474891 0 0 0 .125.03125l2.25.625.90625 1.15625a.56474891.56474891 0 0 0 .09375.125l1.59375 1.15625a.56474891.56474891 0 0 0 .4375.09375l.78125-.125.09375.0625-.75 2.03125-.0625.125-.625.90625a.56474891.56474891 0 0 0 -.0625.53125l.15625.375-.5 1.71875a.56474891.56474891 0 0 0 .03125.4375l2.0625 3.78125a.56474891.56474891 0 0 0 .125.15625l2.0625 1.8125.71875 1-.125 2.5625a.56474891.56474891 0 0 0 .0625.28125l.625 1.3125-.6875 2.8125s.0015.08972 0 .125-.0029.0583 0 .09375c.0058.07091.0061.142162.03125.25a.56474891.56474891 0 0 0 .25.34375c.978871.694043 1.971663 1.32791 3.03125 1.90625.06193.03386.09195.04735.0625.03125a.56474891.56474891 0 0 0 .03125 0c.108376.05089.206506.07112.1875.0625.181979.08261.322458.160975.46875.21875.07315.02889.156385.07327.25.09375.09361.02048.243572.08923.53125-.125.235566-.179304.4375-.34375.4375-.34375a.56474891.56474891 0 0 0 .1875-.65625l-.09375-.28125.65625-.65625a.56474891.56474891 0 0 0 .125-.21875l.25-.65625 1.21875-.40625a.56474891.56474891 0 0 0 .34375-.3125l1.15625-2.875a.56474891.56474891 0 0 0 -.03125-.46875l-.1875-.4375.46875-.71875 1.53125-.34375a.56474891.56474891 0 0 0 .40625-.34375l.90625-2.09375a.56474891.56474891 0 0 0 .03125-.28125l-.1875-2.375 1.25-1.78125a.56474891.56474891 0 0 0 .09375-.25l.21875-1.9375a.56474891.56474891 0 0 0 -.3125-.5625c-1.817306-.902904-3.656283-1.846597-5.46875-2.78125l-.8125-1.65625a.56474891.56474891 0 0 0 -.375-.3125l-1.4375-.3125-.78125-2.15625a.56474891.56474891 0 0 0 -.59375-.375l-2.03125.21875-1.78125-1.28125a.56474891.56474891 0 0 0 -.71875.03125l-2.0625 1.8125c-.426234-.08609-.866207-.16121-1.125-.28125l-.34375-.96875v-1.3125a.56474891.56474891 0 0 0 -.625-.5625l-.65625.0625c.08538-.676551.163895-1.353219.25-2.03125a.56474891.56474891 0 0 0 -.5625-.625h-.8125a.56474891.56474891 0 0 0 -.4375.21875l-.71875.9375-.40625.1875-.65625-.34375-.09375-1v-.0625l.21875-1.28125 1.375-1.03125h1.1875a.56474891.56474891 0 0 0 .53125-.40625l.0625-.25 1.0625.25 1.09375 1.375a.56474891.56474891 0 0 0 1-.28125l.21875-2.375 2-1.6875a.56474891.56474891 0 0 0 .15625-.21875l.71875-1.71875 1.375-.5625a.56474891.56474891 0 0 0 .25-.21875l.75-1.0625 1.84375-.375a.56474891.56474891 0 0 0 .375-.25l1.03125-1.5625a.56474891.56474891 0 0 0 -.03125-.65625.56474891.56474891 0 0 0 0-.03125l.875-.28125.28125 1.5625a.56474891.56474891 0 0 0 1.03125.21875l.71875-1.0625a.56474891.56474891 0 0 0 -.125-.78125l-.625-.46875a.56474891.56474891 0 0 0 .09375-.1875l.25-.8125a.56474891.56474891 0 0 0 -.15625-.5625l-.6875-.625a.56474891.56474891 0 0 0 -.21875-.125l-.25-.09375.0625-.21875a.56474891.56474891 0 0 0 -.03125-.4375l-.59375-1.15625a.56474891.56474891 0 0 0 -.6875-.28125l-.375.125a.56474891.56474891 0 0 0 -.0625-.40625.56474891.56474891 0 0 0 .28125.0625h.9375a.56474891.56474891 0 0 0 .5625-.5625v-.40625c.04301.02909.08198.06454.125.09375a.56474891.56474891 0 0 0 .6875-.03125l1.1875-1.03125a.56474891.56474891 0 0 0 -.15625-.96875l-1.09375-.4375-.46875-.96875a.56474891.56474891 0 0 0 -.4375-.3125l-1.75-.1875-.03125-.25a.56474891.56474891 0 0 0 -.03125-.0625l.375.0625a.56474891.56474891 0 0 0 .46875-.15625l.4375-.40625 1.03125-.21875a.56474891.56474891 0 0 0 .125-.0625c.265427-.129335.569813-.205927.84375-.3125a.56474891.56474891 0 0 0 .21875.65625l2.375 1.625v.53125l-.875.875a.56474891.56474891 0 0 0 -.09375.65625l1.34375 2.71875a.56474891.56474891 0 0 0 .78125.25l.9375-.5a.56474891.56474891 0 0 0 .1875-.21875l1.03125-1.6875c1.699039-.535677 3.308419-1.120075 4.9375-1.875a.56474891.56474891 0 0 0 .28125-.28125l1.375-3.5a.56474891.56474891 0 0 0 -.34375-.75l-3-1.15625a.56474891.56474891 0 0 0 -.25-.03125zm.0625.5625 3 1.15625-1.375 3.5c-1.679494.778286-3.295525 1.390163-5.0625 1.9375l-1.125 1.84375-.9375.5-1.34375-2.71875 1.03125-1.03125v-1.0625l-2.625-1.8125.78125-.75 4.21875-1.1875zm-8.03125.40625.375.625c-.831409.269414-1.622675.524438-2.40625.90625l-1.15625.25-.5625.53125-1.5-.28125c.954078-.476641 1.929345-.905888 2.9375-1.28125.01447-.0054.04801.0053.0625 0l.03125-.03125c.730326-.269737 1.463181-.505097 2.21875-.71875zm-6.8125 2.96875.5625 1.15625.4375-.90625 1.0625-.25.09375.65625 2.1875.25.5625 1.1875 1.28125.5-1.1875 1.03125c-.762805-.518017-1.519073-1.012446-2.28125-1.53125l-1.15625-.40625c-.502402.336412-.944227.681756-1.4375 1.03125l-.59375 1.3125h-1.125l.5625-1.4375.90625-.78125-.125-1.28125zm29.15625.46875-2.1875.53125a.56474891.56474891 0 0 0 -.1875.09375l-1.34375.90625a.56474891.56474891 0 0 0 -.25.46875v.4375l-1.9375 1.28125a.56474891.56474891 0 0 0 -.25.59375l.46875 2.0625a.56474891.56474891 0 0 0 .5625.4375.56474891.56474891 0 0 0 .03125.28125l.0625.15625h-.4375a.56474891.56474891 0 0 0 -.4375.21875l-.25-.21875c-.260431-.679332-.556069-1.347929-.875-2a.56474891.56474891 0 0 0 -.5-.3125h-.71875a.56474891.56474891 0 0 0 -.5625.5625v.75a.56474891.56474891 0 0 0 .03125.25.56474891.56474891 0 0 0 -.0625.03125l-.8125.25a.56474891.56474891 0 0 0 -.40625.625l.25 1.40625a.56474891.56474891 0 0 0 .8125.40625l.46875-.25-.0625.46875a.56474891.56474891 0 0 0 .03125.25l-.125.03125a.56474891.56474891 0 0 0 -.28125.96875l.8125.84375h-.40625a.56474891.56474891 0 0 0 -.28125.0625l-1.5.8125a.56474891.56474891 0 0 0 -.28125.5v2.3125a.56474891.56474891 0 0 0 .5625.5625h.40625l.4375.5c-1.056702 1.201265-2.084836 2.398836-3.09375 3.65625a.56474891.56474891 0 0 0 -.09375.125l-1.25 2.96875a.56474891.56474891 0 0 0 .09375.59375l.28125.34375-.78125 1.1875a.56474891.56474891 0 0 0 -.0625.53125l1.15625 2.71875a.56474891.56474891 0 0 0 .09375.15625c.970719 1.100174 1.933563 2.207703 2.90625 3.3125a.56474891.56474891 0 0 0 .8125.0625l1-.875.28125.3125a.56474891.56474891 0 0 0 .71875.09375l1.125-.75.21875.25a.56474891.56474891 0 0 0 .40625.1875h1.25l.53125.59375-.4375 1.46875a.56474891.56474891 0 0 0 .09375.53125l.96875 1.09375-.0625 1.875a.56474891.56474891 0 0 0 .0625.28125l.65625 1.3125-.46875 1.09375a.56474891.56474891 0 0 0 -.03125.1875c-.05736.961104-.09375 1.874714-.09375 2.84375a.56474891.56474891 0 0 0 .03125.1875c.45657 1.259606.9122 2.54509 1.34375 3.8125.01055.03098.02073.06278.03125.09375l.28125 1.875v.09375.96875a.56474891.56474891 0 0 0 .5625.5625h.8125a.56474891.56474891 0 0 0 .3125-.09375l1.09375-.6875h1.34375a.56474891.56474891 0 0 0 .4375-.1875l2.21875-2.53125a.56474891.56474891 0 0 0 .09375-.5625l-.15625-.46875 1.21875-1.03125a.56474891.56474891 0 0 0 .0625-.8125l-.71875-.8125.8125-.6875.0625-.03125 1.1875-.75a.56474891.56474891 0 0 0 .0937-.09375l.59375-.65625a.56474891.56474891 0 0 0 .125-.53125l-.34375-1.28125v-.03125-3.46875l.9375-1.96875 1.25-1.40625a.56474891.56474891 0 0 0 .0937-.15625l1.34375-3.375a.56474891.56474891 0 0 0 .03135-.21875v-.90625a.56474891.56474891 0 0 0 -.625-.5625c-.13145.01659-.24775.01511-.375.03125l.21875-.21875 1.8125-1.21875a.56474891.56474891 0 0 0 .125-.09375l1.03125-1.1875a.56474891.56474891 0 0 0 .125-.375v-1.3125a.56474891.56474891 0 0 0 -.0312-.21875.56474891.56474891 0 0 0 .78125-.0625l.84375-.9375a.56474891.56474891 0 0 0 .1562-.46875c-1.23201-7.547479-5.2429-14.166221-10.90625-18.8125a.56474891.56474891 0 0 0 -.53125-.09375.56474891.56474891 0 0 0 -.21875-.5c-.03172-.02439-.08296-.06937-.15625-.125a.56474891.56474891 0 0 0 -.25-.125l-2.40625-.4375-.09375-.03125-1.40625-.5a.56474891.56474891 0 0 0 -.3125-.03125zm.125.5625 1.5.53125 2.5.46875c.05153.03914.10495.08555.15625.125l-.625.6875h-1.46875l1.46875 1.5625 1.15625-1.3125.21875-.34375c5.56059 4.561973 9.47827 11.060837 10.6875 18.46875l-.84375.9375c-.52553-.620482-1.11958-1.111278-1.71875-1.65625l-1.3125.1875-1.1875-1.34375v1.65625l1 .78125.71875.78125.90625-1.03125c.23051.432574.45855.848683.6875 1.28125v1.3125l-1.03125 1.1875-1.90625 1.28125-1.34375 1.375c.66343-.0481 1.29056-.13316 1.96875-.21875v.90625l-1.34375 3.375-1.25 1.40625-1.0625 2.21875v3.625l.375 1.4375-.59375.65625-1.25.78125-1.3125 1.09375 1.09375 1.25-1.5 1.28125.28125.84375-2.21875 2.53125h-1.5l-1.25.78125h-.8125v-1.0625l-.3125-2.0625c-.44261-1.302447-.90627-2.613095-1.375-3.90625 0-.954526.03679-1.858121.09375-2.8125l.5625-1.3125-.78125-1.5625.0625-2.125-1.09375-1.25.53125-1.78125-.875-1h-1.53125l-.53125-.59375-1.53125 1-.65625-.71875-1.40625 1.21875c-.97113-1.103029-1.933705-2.210257-2.90625-3.3125l-1.15625-2.71875 1.03125-1.5625-.5625-.65625 1.25-2.96875c1.032653-1.287001 2.096474-2.510765 3.1875-3.75l1.96875-.53125 2.15625-.28125 1.5.40625 2.09375 2.15625.75-.875 1.03125-.09375 1.96875.625h1.46875l1.03125-.90625.4375-.65625-1-.65625-1.71875-.125c-.47628-.661949-.9345-1.349332-1.5-1.9375l-.5625.25-.21875 1.6875-1.0625-1.15625-.21875-1.28125-1.15625-.9375h-.4375l1.15625 1.3125-.46875 1.1875-.9375.25.5625-1.1875-1-.5-.9375-1.0625-1.6875.40625-.25.53125-1 .625-.59375 1.4375-1.4375.71875-.625-.71875h-.6875v-2.3125l1.5-.8125h1.15625l-.25-.875-.90625-.9375 1.53125-.3125.875-.96875.6875-1.1875h1.25l-.34375-.90625.78125-.5v1.03125l1.71875.375 1.71875-1.40625.125-.65625 1.5-1.03125c-.53781.067-1.09947.106702-1.625.25v-1.15625l.5625-1.3125h-.5625l-1.25 1.1875-.34375.625.34375.9375-.5625 1.53125-.90625-.53125-.8125-.875-1.25.875-.46875-2.0625 2.1875-1.4375v-.75l1.34375-.90625zm9.5625 26.9375c-.0327.0024-.061-.0022-.0937 0l.0312.03125zm-.0937 0-.875-1 .4375-1.1875-.90625-1-1.5625-3.3125-1.3125-1.5-.3125.375.5 1.90625.96875 1.09375c.55464 1.604178 1.1154 3.122852 1.84375 4.65625.41292 0 .81717-.004 1.21875-.03125zm-40.7188-26.84375.125.03125.6875.40625-.125 1.40625-1.25 1.1875-2.84375 1.6875.34375 1.15625 2.15625.90625.34375 1.5625.8125-1.6875 1.25-.53125-.125-.78125 1.28125-2.1875 1.59375.90625-.21875 1.03125 1.34375-.5.59375 1.15625-.25.78125.8125.25.6875.625-.25.8125-1.9375.65625h-1.375l-1.9375.875h3.09375l-1.03125 1.5625-2.0625.40625-.90625 1.28125-1.59375.65625-.8125 1.9375-2.15625 1.8125-.25 2.625-1.25-1.5625-1.71875-.40625-.21875.78125h-1.375l-1.71875 1.3125-.25 1.53125.125 1.4375 1.15625.65625.78125-.40625.8125-1.03125h.8125c-.115333.908183-.229204 1.81041-.34375 2.71875l1.375-.125v1.40625l.46875 1.3125c.554797.341771 1.314418.351066 1.9375.53125v-.25l2.0625-1.8125 1.9375 1.40625 2.28125-.25.90625 2.46875 1.71875.375.90625 1.8125c1.863744.960522 3.747257 1.942069 5.625 2.875l-.21875 1.9375-1.375 1.9375.21875 2.59375-.90625 2.09375-1.71875.375-.8125 1.1875.34375.75-1.15625 2.875-1.46875.5-.34375.90625-.9375.9375.25.625s-.210925.171289-.4375.34375c-.05684.04233-.31887-.08267-.6875-.25-.0422-.01914-.11153-.0415-.15625-.0625-.01629-.0089-.04622-.02235-.0625-.03125-1.039841-.567562-2.038637-1.193371-3-1.875-.04123-.176831-.03125-.21875-.03125-.21875l.71875-2.96875-.71875-1.53125.125-2.75-.90625-1.28125-2.0625-1.8125-2.0625-3.78125.5625-1.9375-.21875-.53125.6875-1.03125.9375-2.46875v-.1875l-.6875-.34375-.9375.15625-1.59375-1.15625-1.03125-1.3125-2.40625-.65625-2.40625-1.4375s-.376796-.591486-.6875-1.125c.497945-8.819459 4.778944-16.64037 11.25-21.84375.233355-.04693.5625-.09375.5625-.09375l.15625-.46875c.390003-.294913.78309-.598884 1.1875-.875zm19.78125 1.03125a.56474891.56474891 0 0 0 -.15625.0625l-.71875.40625-.21875-.0625a.56474891.56474891 0 0 0 -.71875.46875l-.09375.8125a.56474891.56474891 0 0 0 .25.53125l.78125.5a.56474891.56474891 0 0 0 .625 0l1.375-.90625a.56474891.56474891 0 0 0 .125-.84375l-.6875-.78125a.56474891.56474891 0 0 0 -.5625-.1875zm-16.15625.15625.75.25-.8125.59375a.56474891.56474891 0 0 0 .03125.9375l.46875.34375-1.125-.65625a.56474891.56474891 0 0 0 -.78125.21875l-.15625.25.53125-1.15625c.37632-.270399.736321-.532024 1.09375-.78125zm16.28125.40625.6875.78125-1.375.90625-.78125-.5.09375-.8125.46875.125zm-15.09375.25 1.15625.53125v.90625h-.9375l-1.125-.78125zm29.78125.4375h.1875a.56474891.56474891 0 0 0 .125 0l-.15625.15625zm-34.625 1a.56474891.56474891 0 0 0 .40625.1875h1.125a.56474891.56474891 0 0 0 .375-.125l-1 1.71875a.56474891.56474891 0 0 0 -.0625.375l.0625.34375-.84375.34375a.56474891.56474891 0 0 0 -.28125.28125l-.09375.21875a.56474891.56474891 0 0 0 -.34375-.375l-1.9375-.8125-.125-.4375 2.46875-1.46875a.56474891.56474891 0 0 0 .09375-.09375zm30.09375 1.5h.375a.56474891.56474891 0 0 0 -.09375.21875l-.09375.46875-.625.5zm-7.1875.0625h.71875c.336559.688113.637347 1.376315.90625 2.09375l.78125.75-.90625.90625-1.28125.28125.25-1.59375v-1.15625l-.46875-.53125zm5.03125 1.3125.40625.25-.40625-.09375zm-5.46875.25.4375 1.15625-1 .5-.25-1.40625zm-15.78125 2.34375 1.03125.75-.71875 1.0625zm20.5 3.46875.6875.78125a.56474891.56474891 0 0 0 .1875.125l.5.25-.3125.6875a.56474891.56474891 0 0 0 .65625.78125l.9375-.25a.56474891.56474891 0 0 0 .375-.3125l.09375-.25a.56474891.56474891 0 0 0 .09375.125l1.0625 1.15625a.56474891.56474891 0 0 0 .96875-.3125l.15625-1.15625c.37503.452244.72354.922971 1.09375 1.4375a.56474891.56474891 0 0 0 .4375.21875l1.5625.125.40625.25-.03125.0625-.03125.03125-.84375.75h-1.1875-.0625l-1.8125-.59375a.56474891.56474891 0 0 0 -.21875-.03125l-1.03125.09375a.56474891.56474891 0 0 0 -.375.1875l-.34375.40625-1.65625-1.71875a.56474891.56474891 0 0 0 -.25-.125l-1.5-.40625a.56474891.56474891 0 0 0 -.21875-.03125l-2.15625.28125.53125-1.28125.84375-.53125a.56474891.56474891 0 0 0 .1875-.21875l.125-.28125zm16.875 7.78125a.56474891.56474891 0 0 0 -.0625.03125l-.5.5625-.28125-.3125a.56474891.56474891 0 0 0 -.0625-.0625l-.125-.09375a.56474891.56474891 0 0 0 .0625 0zm-6.96875.34375.3125.375.3125.65625-.5-.5625zm1.90625 3.6875.65625.75-.15625.46875c-.16873-.402639-.34437-.810552-.5-1.21875z" opacity=".1"/><path d="m124.45079-16.952808a60.306107 60.306107 0 1 1 -120.6122127 0 60.306107 60.306107 0 1 1 120.6122127 0z" fill="url(#o)" fill-rule="evenodd" opacity=".6" transform="matrix(.36243664 0 0 .24819601 24.751617 37.114822)"/><path d="m48.000009 18.291661c-3.70431 0-7.239716.697083-10.510939 1.9375 9.004767.157983 14.086624 1.09315 18.696877 3.616668.384188.210292.766836.429177 1.146354.661978 1.138558.698406 2.270931 1.504055 3.439064 2.421876 5.034844 3.955966 5.475488 8.7701 9.752084 12.448439 2.603618 2.239399 2.25122 2.05052 3.455209 2.050521 1.317701 0 1.988499-1.191047 2.308854-2.486459-3.834241-11.971893-15.04813-20.650524-28.287503-20.650523zm-11.915628 5.457292c-.629604 0-1.257039.06786-1.872917.193751-.205291.04196-.410222.09084-.613541.145312-5.692934 1.525125-10.564321 7.805451-12.157814 10.688543-.101363.183394-.216244.398951-.322917.597396-.846145 1.796635-1.527469 3.679692-2.002083 5.651042.455825-.583199.899431-1.130592 1.340104-1.646875 3.084713-3.613977 5.907656-5.570312 9.96198-5.570313 7.234203 0 8.153291 3.223007 21.409378 11.867188 6.524116 4.25432 16.424282 10.121133 24.590107 10.995315.334976-1.098337.600326-2.226345.807292-3.37448-3.055107-.22056-5.807256-1.385146-8.783334-3.358334-.425155-.281884-.855936-.573245-1.291667-.88802-3.485832-2.518209-7.359877-6.078548-12.400001-10.494794-3.837594-3.362569-13.489487-14.80573-18.664587-14.805731zm-10.365626 33.922401c-2.293752 0-4.005349 1.162623-4.197917 3.778125 3.21559 6.312954 8.61611 11.321703 15.209378 14.030731-.0874-.122277-.170362-.251098-.258334-.3875-.615805-.95481-1.210938-2.246189-1.210938-3.729688 0-1.725891 1.116129-2.40573 2.373437-2.40573 1.674486 0 7.201716 2.631771 16.452607 2.631771 4.627133 0 10.399892-.677795 14.628127-2.308854 1.669981-1.625994 3.139407-3.446451 4.391667-5.425-2.702601 1.095642-7.700246 2.680207-14.208335 2.680208-12.572687 0-24.038442-5.366479-27.351045-7.088022-.878685-.456648-3.130969-1.776041-5.828647-1.776041z" fill="url(#k)" fill-rule="evenodd"/><path d="m48.000294 18.283912c-3.70431 0-7.249976.700995-10.521199 1.941412 1.005489.01764 1.968336.05579 2.880804.09394 2.436698-.654043 4.997066-1.033332 7.640395-1.033332 13.055217-.000001 24.136831 8.451635 28.119159 20.165632.05544-.165449.114119-.329367.156566-.501009-3.834241-11.971893-15.036352-20.666644-28.275725-20.666643zm-11.930289 5.479792c-.629604 0-1.231594.06198-1.847472.187879-.205292.04196-.422943.07078-.626262.125252-5.692934 1.525125-10.555987 7.825987-12.149481 10.709078-.101362.183395-.237771.396504-.344444.594949-.846145 1.796635-1.498111 3.665007-1.972725 5.636357.125688-.16081.251732-.282919.375757-.438383.0028-.0095-.0028-.02185 0-.03131.430123-1.435379.966516-2.825991 1.596968-4.164642.106673-.198445.243082-.411554.344444-.594949 1.593494-2.883091 6.456547-9.183953 12.149481-10.709078.203319-.05447.42097-.08329.626262-.125252.615878-.125894 1.217868-.187879 1.847472-.187879 5.1751.000001 14.856324 11.417211 18.693918 14.779781 5.040124 4.416245 8.914153 8.00299 12.399985 10.5212.435731.314775.858683.594882 1.283837.876766 2.913698 1.93183 5.600925 3.064564 8.579788 3.319188.06776-.319762.129624-.647542.187879-.970706-3.055107-.22056-5.791589-1.377313-8.767667-3.350501-.425154-.281884-.848106-.561991-1.283837-.876766-3.485832-2.51821-7.359861-6.104955-12.399985-10.5212-3.837594-3.362573-13.518818-14.779783-18.693918-14.779784zm-10.364634 33.912082c-2.293752 0-4.003387 1.173382-4.195955 3.788884.04272.08386.08177.167104.125253.250505.438304-2.095047 2.006325-3.03737 4.070702-3.03737 2.697678 0 4.976863 1.328198 5.855549 1.784846 3.312602 1.721543 14.763645 7.076759 27.336331 7.076759 5.874511-.000001 10.503241-1.291314 13.339379-2.348482.307664-.433947.591452-.895672.876766-1.346463-2.7026 1.095642-7.708055 2.692925-14.216145 2.692926-12.572686 0-24.023729-5.355216-27.336331-7.076759-.878686-.456648-3.157871-1.784846-5.855549-1.784846zm9.581807 14.310084c-.01337.123142-.03131.239813-.03131.375757 0 1.047082.297916 1.981997.688888 2.786865.260645.116039.518277.235746.782827.344444-.0874-.122276-.162532-.270668-.250504-.40707-.529356-.820769-1.055992-1.873573-1.189898-3.099996z" fill="#fefefe" fill-rule="evenodd" opacity=".6"/><path d="m40.359899 20.319264c-.978042.26252-1.943868.552802-2.880804.908079 9.004767.157984 14.083664 1.108802 18.693917 3.632319.384188.210293.779067.424774 1.158585.657575 1.138558.698406 2.276307 1.493287 3.44444 2.411109 5.034844 3.955966 5.461777 8.784272 9.738372 12.462611 2.603619 2.239399 2.271765 2.03535 3.475754 2.035351 1.317701 0 1.965501-1.178322 2.285856-2.473734-.05334-.166526-.100391-.335773-.156566-.50101-.362985 1.083228-.986185 1.972725-2.12929 1.972725-1.203989-.000001-.872135.204048-3.475754-2.035351-4.276595-3.678339-4.703528-8.506645-9.738372-12.462611-1.168133-.917822-2.305882-1.712703-3.44444-2.411109-.379518-.232801-.774397-.447282-1.158585-.657575-4.095464-2.241737-8.553861-3.234869-15.813113-3.538379zm-9.957564 13.495943c-4.054324.000001-6.872851 1.959754-9.957564 5.573731-.314034.367915-.619019.757373-.939393 1.158585-.0028.0094.0028.02184 0 .03131-.143838.48183-.257103.947565-.375757 1.440402.455826-.583199.874477-1.111998 1.31515-1.628281 3.084713-3.613977 5.90324-5.57373 9.957564-5.573731 7.234203 0 8.162069 3.223482 21.418157 11.867663 6.524116 4.25432 16.414954 10.116715 24.580779 10.990897.334976-1.098337.607175-2.23368.814141-3.381815-.06404-.0046-.124104-.02586-.187879-.03131-.172967.816287-.385571 1.621919-.626262 2.411109-8.165825-.874182-18.056663-6.736577-24.580779-10.990897-13.256088-8.644181-14.183954-11.867663-21.418157-11.867663zm42.711061 31.031277c-.263105.106664-.570883.230427-.876766.344444-1.042692 1.470675-2.217573 2.846487-3.507067 4.102016-4.228235 1.631058-10.027395 2.285856-14.654528 2.285856-9.250891 0-14.764889-2.6303-16.439375-2.6303-1.257308 0-2.379795.685217-2.379795 2.411108 0 .185438.01384.384484.03131.563636.178616-1.395897 1.20657-1.972725 2.348482-1.972725 1.674486 0 7.188484 2.6303 16.439375 2.6303 4.627133 0 10.426293-.654798 14.654528-2.285856 1.669981-1.625995 3.131573-3.46993 4.383833-5.448479z" fill-rule="evenodd" opacity=".3"/><path d="m124.45079-16.952808a60.306107 60.306107 0 1 1 -120.6122127 0 60.306107 60.306107 0 1 1 120.6122127 0z" fill="url(#l)" fill-rule="evenodd" transform="matrix(.51404413 0 0 .51404413 -64.973198 56.714492)"/></svg>