<svg height="96" width="96" xmlns="http://www.w3.org/2000/svg" xmlns:xlink="http://www.w3.org/1999/xlink"><linearGradient id="a"><stop offset="0" stop-color="#fefefe"/><stop offset="1" stop-color="#fefefe" stop-opacity="0"/></linearGradient><linearGradient id="b" gradientUnits="userSpaceOnUse" x1="36.357143" x2="36.357143" xlink:href="#a" y1="6" y2="63.893143"/><filter id="c" color-interpolation-filters="sRGB" height="1.384" width="1.384" x="-.192" y="-.192"><feGaussianBlur stdDeviation="5.28"/></filter><radialGradient id="d" cx="48" cy="90.171875" gradientTransform="matrix(1.1573129 0 0 .99590774 -7.551021 .197132)" gradientUnits="userSpaceOnUse" r="42"><stop offset="0" stop-color="#8e2710"/><stop offset="1" stop-color="#dd7b32"/></radialGradient><clipPath id="e"><rect height="84" rx="6" width="84" x="6" y="6"/></clipPath><linearGradient id="f" gradientUnits="userSpaceOnUse" x1="48" x2="48" y1="90" y2="5.987717"><stop offset="0" stop-color="#fe5925"/><stop offset="1" stop-color="#ff8b21"/></linearGradient><linearGradient id="g" gradientTransform="matrix(1.0058652 0 0 .994169 100 0)" gradientUnits="userSpaceOnUse" x1="45.447727" x2="45.447727" y1="92.539597" y2="7.01654"><stop offset="0"/><stop offset="1" stop-opacity=".588235"/></linearGradient><linearGradient id="h" gradientTransform="matrix(1.0238095 0 0 1.0119048 -1.142857 -98.071429)" gradientUnits="userSpaceOnUse" x1="32.251034" x2="32.251034" xlink:href="#g" y1="6.131708" y2="90.238609"/><linearGradient id="i" gradientTransform="translate(0 -97)" gradientUnits="userSpaceOnUse" x1="32.251034" x2="32.251034" xlink:href="#g" y1="6.131708" y2="90.238609"/><linearGradient id="j" gradientUnits="userSpaceOnUse" x1="48" x2="48" xlink:href="#a" y1="20.220806" y2="138.66119"/><g><g fill="url(#h)"><path d="m12-95.03125c-5.5110903 0-10.03125 4.52016-10.03125 10.03125v71c0 5.5110902 4.5201598 10.03125 10.03125 10.03125h72c5.51109 0 10.03125-4.5201597 10.03125-10.03125v-71c0-5.51109-4.52016-10.03125-10.03125-10.03125z" opacity=".08" transform="scale(1 -1)"/><path d="m12-94.03125c-4.971633 0-9.03125 4.059617-9.03125 9.03125v71c0 4.9716329 4.0596171 9.03125 9.03125 9.03125h72c4.971633 0 9.03125-4.059617 9.03125-9.03125v-71c0-4.971633-4.059617-9.03125-9.03125-9.03125z" opacity=".1" transform="scale(1 -1)"/><path d="m12-93c-4.4091333 0-8 3.590867-8 8v71c0 4.4091333 3.5908667 8 8 8h72c4.409133 0 8-3.5908667 8-8v-71c0-4.409133-3.590867-8-8-8z" opacity=".2" transform="scale(1 -1)"/><rect height="85" opacity=".3" rx="7" transform="scale(1 -1)" width="86" x="5" y="-92"/></g><rect fill="url(#i)" height="84" opacity=".45" rx="6" transform="scale(1 -1)" width="84" x="6" y="-91"/></g><rect fill="url(#f)" height="84" rx="6" width="84" x="6" y="6"/><path d="m12 90c-3.324 0-6-2.676-6-6v-2-68-2c0-.334721.04135-.6507.09375-.96875.0487-.295596.09704-.596915.1875-.875.00988-.03038.020892-.0636.03125-.09375.098865-.287771.2348802-.547452.375-.8125.1445918-.273507.3156161-.535615.5-.78125s.3737765-.473472.59375-.6875c.439947-.428056.94291-.814526 1.5-1.09375.278545-.139612.5734731-.246947.875-.34375-.2562018.100222-.4867109.236272-.71875.375-.00741.0044-.023866-.0045-.03125 0-.031933.0193-.062293.04251-.09375.0625-.120395.0767-.2310226.163513-.34375.25-.1061728.0808-.2132809.161112-.3125.25-.1779299.161433-.3474596.345388-.5.53125-.1075789.130255-.2183939.265285-.3125.40625-.025089.03838-.038446.08587-.0625.125-.064763.103032-.1302275.204517-.1875.3125-.1010083.194706-.2056748.415701-.28125.625-.00796.02181-.023589.04055-.03125.0625-.0318251.09195-.0358045.186831-.0625.28125-.0303323.106618-.0703894.203031-.09375.3125-.0728786.341512-.125.698205-.125 1.0625v2 68 2c0 2.781848 2.2181517 5 5 5h2 68 2c2.781848 0 5-2.218152 5-5v-2-68-2c0-.364295-.05212-.720988-.125-1.0625-.04415-.206893-.08838-.397658-.15625-.59375-.0077-.02195-.0233-.04069-.03125-.0625-.06274-.173739-.138383-.367449-.21875-.53125-.04158-.0828-.07904-.169954-.125-.25-.0546-.09721-.126774-.18835-.1875-.28125-.09411-.140965-.204921-.275995-.3125-.40625-.143174-.17445-.303141-.346998-.46875-.5-.01117-.0102-.01998-.02115-.03125-.03125-.138386-.125556-.285091-.234436-.4375-.34375-.102571-.07315-.204318-.153364-.3125-.21875-.0074-.0045-.02384.0044-.03125 0-.232039-.138728-.462548-.274778-.71875-.375.301527.0968.596455.204138.875.34375.55709.279224 1.060053.665694 1.5 1.09375.219973.214028.409366.441865.59375.6875s.355408.507743.5.78125c.14012.265048.276135.524729.375.8125.01041.03078.02133.06274.03125.09375.09046.278085.1388.579404.1875.875.0524.31805.09375.634029.09375.96875v2 68 2c0 3.324-2.676 6-6 6z" fill="url(#d)" opacity=".2"/><path d="m12 6c-3.324 0-6 2.676-6 6v2 68 2c0 .334721.04135.6507.09375.96875.0487.295596.09704.596915.1875.875.00988.03038.020892.0636.03125.09375.098865.287771.2348802.547452.375.8125.1445918.273507.3156161.535615.5.78125s.3737765.473472.59375.6875c.439947.428056.94291.814526 1.5 1.09375.278545.139612.5734731.246947.875.34375-.2562018-.100222-.4867109-.236272-.71875-.375-.00741-.0044-.023866.0045-.03125 0-.031933-.0193-.062293-.04251-.09375-.0625-.120395-.0767-.2310226-.163513-.34375-.25-.1061728-.0808-.2132809-.161112-.3125-.25-.1779299-.161433-.3474596-.345388-.5-.53125-.1075789-.130255-.2183939-.265285-.3125-.40625-.025089-.03838-.038446-.08587-.0625-.125-.064763-.103032-.1302275-.204517-.1875-.3125-.1010083-.194706-.2056748-.415701-.28125-.625-.00796-.02181-.023589-.04055-.03125-.0625-.0318251-.09195-.0358045-.186831-.0625-.28125-.0303323-.106618-.0703894-.203031-.09375-.3125-.0728786-.341512-.125-.698205-.125-1.0625v-2-68-2c0-2.781848 2.2181517-5 5-5h2 68 2c2.781848 0 5 2.218152 5 5v2 68 2c0 .364295-.05212.720988-.125 1.0625-.04415.206893-.08838.397658-.15625.59375-.0077.02195-.0233.04069-.03125.0625-.06274.173739-.138383.367449-.21875.53125-.04158.0828-.07904.169954-.125.25-.0546.09721-.126774.18835-.1875.28125-.09411.140965-.204921.275995-.3125.40625-.143174.17445-.303141.346998-.46875.5-.01117.0102-.01998.02115-.03125.03125-.138386.125556-.285091.234436-.4375.34375-.102571.07315-.204318.153364-.3125.21875-.0074.0045-.02384-.0044-.03125 0-.232039.138728-.462548.274778-.71875.375.301527-.0968.596455-.204138.875-.34375.55709-.279224 1.060053-.665694 1.5-1.09375.219973-.214028.409366-.441865.59375-.6875s.355408-.507743.5-.78125c.14012-.265048.276135-.524729.375-.8125.01041-.03078.02133-.06274.03125-.09375.09046-.278085.1388-.579404.1875-.875.0524-.31805.09375-.634029.09375-.96875v-2-68-2c0-3.324-2.676-6-6-6z" fill="url(#b)" opacity=".35"/><rect height="66" rx="12" style="stroke:#fefefe;stroke-width:.5;stroke-linecap:round;clip-path:url(#e);fill:url(#j);filter:url(#c);opacity:.121536" width="66" x="15" y="15"/><path d="m31.404529 77.495624c0-.27778-.15508-.96021-.34463-1.51649-.27226-.79904-.53219-1.1155-1.23785-1.50704-.9055-.50242-2.30833-2.27863-2.78819-3.53029-.13985-.36478-.43723-1.06121-.66085-1.54763-.22363-.48642-.40659-1.09439-.40659-1.35105 0-.25667-.19103-.64464-.42452-.86217-.3619-.33716-.44688-.81906-.57612-3.26728l-.15161-2.8718-1.02096-1.36357c-1.39612-1.86465-2.61232-3.61781-2.61232-3.76566 0-.0674-.24472-.48266-.54381-.92282-.2991-.44016-.54381-.97334-.54381-1.18484 0-.21151-.0966-.38456-.21461-.38456-.30066 0-.87302-1.44828-.87302-2.20904 0-.65072.75838-2.26535 1.51668-3.22907.52836-.6715.58931-1.76036.22527-4.0242-.30539-1.89907-.53577-2.29248-1.65296-2.82262-.50183-.23813-.74156-.50183-.74156-.81568 0-.492.36113-1.76531.67928-2.39505.10495-.20774.19134-.5014.19197-.65257.00066-.15118.43343-1.16974.96176-2.26348 1.04978-2.17324 2.62455-4.58647 3.68802-5.65168.37313-.37374.92313-1.02986 1.22222-1.45805.2991-.42819 1.02955-1.15021 1.62323-1.60449.59368-.45427 1.32783-1.07312 1.63144-1.3752.69849-.69499 2.09741-1.73831 2.94474-2.19619.35894-.19396 1.0931-.61392 1.63147-.93322 2.44525-1.45027 5.84398-2.64847 9.62208-3.3922 2.03274-.40015 2.87751-.44682 6.52574-.36049 2.30489.0545 4.72909.19669 5.3871.31589s1.73785.31651 2.39964.43847 1.54277.3673 1.95772.54521c.41496.1779 1.19495.4925 1.73332.69909 1.35436.51972 2.35972.99665 3.31293 1.57163.44627.26918.91351.48943 1.03833.48943.19174 0 3.36974 2.05935 3.69715 2.39576.0598.0615.64713.55089 1.30514 1.08762.65802.53673 1.37183 1.19235 1.58626 1.45693s.78584.90084 1.2698 1.41391c1.13285 1.20098 2.16827 2.68803 1.9934 2.8629-.075.075-.0234.13643.11462.13643.72893 0 3.81322 6.50899 3.96835 8.37469.0676.8135-.0136.93733-.99062 1.5099-1.07719.63127-1.05514.57487-1.43167 3.66181-.22678 1.85914-.21695 2.17353.0781 2.50154.59903.66581 1.89517 3.12214 1.89517 3.59155 0 .49538-1.8308 4.37523-2.35873 4.99864-.17893.21129-.62686.86188-.9954 1.44575-.36854.58388-1.10755 1.68352-1.64224 2.44366l-.97216 1.38206-.11546 2.78181c-.0821 1.97786-.19906 2.83334-.40472 2.96014-.1591.0981-.5656.95082-.90335 1.89497s-.80989 2.10818-1.04919 2.58673c-.55401 1.10791-2.07639 2.84332-2.81006 3.20328-.39735.19495-.67395.61443-.93294 1.41487-.20248.62577-.33124 1.17467-.28614 1.21977s-.0672.20583-.24953.35716c-.5961.49471-.95649-.0638-.73548-1.13972.38552-1.87693.46893-4.18749.48872-13.53881.0147-6.97057-.0603-10.1621-.27622-11.74632-.16305-1.19638-.32896-2.41996-.36867-2.71906-.0397-.29909-.13713-.76405-.21648-1.03324-.11342-.38482-.0575-.48871.26178-.4861.22332.002.51066.0753.63854.16315.36811.25302.96388 1.94711.96388 2.74079 0 .85542.55546 1.44322 1.36382 1.44322.31253 0 .62674.0947.69826.2104.25711.41601 1.53226-.0472 2.2933-.83308.42143-.43518 1.41588-1.38191 2.20991-2.10386l1.44369-1.31264.30526-2.71156c.3387-3.00856.23057-3.84001-.63287-4.86615-.29438-.34986-.68546-1.01153-.86906-1.47038-.1836-.45886-.41637-.83429-.51727-.83429s-.50252-.46496-.89249-1.03324c-.60077-.87546-4.72085-5.12404-5.64942-5.8256-.79704-.6022-3.93459-2.71223-4.033-2.71223-.0617 0-.37204-.17523-.68961-.3894-1.13034-.76229-4.27531-1.80717-7.42941-2.46833-.91966-.19277-2.82062-.29099-5.43811-.28097-4.54085.0174-7.2245.44481-10.15155 1.61686-.8952.35846-1.71713.65174-1.8265.65174-.30864 0-3.16919 1.86971-5.09762 3.3319-2.91565 2.21073-7.36314 7.35878-8.72972 10.10482-.44768.89959-.54434 1.34476-.4487 2.06648.067.50594.22925 1.80086.36045 2.87761l.23854 1.95772 2.17972 2.12086c2.07641 2.02035 2.22434 2.12087 3.12115 2.12087.51779 0 1.28604-.14399 1.70724-.31998.72385-.30244.77409-.3913.91687-1.62157.0831-.71588.2888-1.41591.45714-1.55562s.30608-.4378.30608-.66243c0-.29581.15743-.40842.571-.40842.52864 0 .56035.0525.42743.70696-.59176 2.91391-.66416 4.54645-.66805 15.06356-.004 10.59492.0828 12.47756.67355 14.62852.11855.43162.0543.48943-.54351.48943-.56426 0-.67795-.0847-.67795-.50506z" fill="#fffffe" stroke-width=".217524"/><g fill="#343843" stroke-width=".215527"><path d="m36.484557 80.382487c-.984953-.649314-1.681787-3.050307-2.068863-7.128404-.339952-3.581613-.48084-14.223194-.232558-17.56547.584332-7.866035.79589-8.864738 2.155547-10.175687.683662-.659169 1.258357-.785475 3.005208-.660492 1.968121.140823 2.865925.601371 3.384766 1.736316.398529.871758.415931 1.554597.415931 16.320023v15.410194l-.487372.783729c-.268054.431046-.656004.844794-.862108.91944-.206106.07461-.617206.278208-.913556.452376-.830585.488142-3.605022.430083-4.396995-.09203z"/><path d="m60.997747 80.115431c.984953-.649314 1.681787-3.050307 2.068863-7.128404.339952-3.581613.48084-14.223194.232558-17.56547-.584332-7.866036-.79589-8.864739-2.155547-10.175688-.683662-.659169-1.258357-.785475-3.005208-.660492-1.968121.140823-2.865925.601371-3.384766 1.736316-.398529.871758-.415931 1.554597-.415931 16.320024v15.410194l.487372.783729c.268054.431046.656004.844794.862108.91944.206106.07461.617206.278208.913556.452376.830585.488142 3.605022.430083 4.396995-.09203z"/></g></svg>