<svg height="96" width="96" xmlns="http://www.w3.org/2000/svg" xmlns:xlink="http://www.w3.org/1999/xlink"><radialGradient id="a" cx="48" cy="90.171875" gradientTransform="matrix(1.1573129 0 0 .99590774 -7.551021 .19713)" gradientUnits="userSpaceOnUse" r="42" xlink:href="#b"/><linearGradient id="b"><stop offset="0" stop-color="#fefefe"/><stop offset="1" stop-color="#fefefe" stop-opacity="0"/></linearGradient><linearGradient id="c" gradientUnits="userSpaceOnUse" x1="36.357143" x2="36.357143" xlink:href="#b" y1="6" y2="63.893143"/><linearGradient id="d" gradientTransform="matrix(1.0058652 0 0 .994169 100 0)" gradientUnits="userSpaceOnUse" x1="45.447727" x2="45.447727" y1="92.539597" y2="7.01654"><stop offset="0"/><stop offset="1" stop-opacity=".588235"/></linearGradient><linearGradient id="e" gradientTransform="matrix(1.0238095 0 0 1.0119048 -1.142857 -98.071429)" gradientUnits="userSpaceOnUse" x1="32.251034" x2="32.251034" xlink:href="#d" y1="6.131708" y2="90.238609"/><linearGradient id="f" gradientTransform="translate(0 -97)" gradientUnits="userSpaceOnUse" x1="32.251034" x2="32.251034" xlink:href="#d" y1="6.131708" y2="90.238609"/><linearGradient id="g" gradientUnits="userSpaceOnUse" x1="48" x2="48" y1="90" y2="5.987717"><stop offset="0" stop-color="#3781c6"/><stop offset="1" stop-color="#88b2db"/></linearGradient><linearGradient id="h" gradientUnits="userSpaceOnUse" x1="49.181087" x2="50.239437" y1="28.281691" y2="68.32193"><stop offset="0" stop-color="#162850"/><stop offset="1" stop-color="#163750" stop-opacity="0"/></linearGradient><linearGradient id="i"><stop offset="0"/><stop offset="1" stop-opacity="0"/></linearGradient><clipPath id="j"><path d="m118 56c-9.94112 0-18 8.05887-18 18 0 9.94112 8.05888 18 18 18 9.73052 0 17.63723-7.725264 17.96875-17.375v-1.25c-.33152-9.649745-8.23823-17.375-17.96875-17.375zm-6 10.75c5.9493.05747 10.83155 4.941297 11.03125 10.875l3.75.03125-6 8.71875-6.15625-8.8125 3.96875.03125c-.25101-4.905678-4.48929-9.950635-11.71875-9.625 1.52232-.80073 3.27178-1.236656 5.125-1.21875z"/></clipPath><linearGradient gradientTransform="matrix(.30997964 0 0 .31034484 98.14012 54.137931)" gradientUnits="userSpaceOnUse" x1="69" x2="69" y1="122" y2="5.978181"><stop offset="0" stop-color="#1e71ac"/><stop offset="1" stop-color="#81c1e9"/></linearGradient><linearGradient id="k" gradientTransform="matrix(-.30059886 0 0 -.30318299 -5.285507 65.194794)" gradientUnits="userSpaceOnUse" x1="84.35965" x2="84.35965" y1="79.416924" y2="5.183721"><stop offset="0" stop-color="#fefefe"/><stop offset=".43290177" stop-color="#fefefe" stop-opacity=".498039"/><stop offset="1" stop-color="#fefefe" stop-opacity="0"/></linearGradient><linearGradient id="l" gradientTransform="matrix(-.70710678 -.70710678 .70710678 -.70710678 -.204704 181.33044)" gradientUnits="userSpaceOnUse" x1="120.64606" x2="118.33302" xlink:href="#i" y1="87.489296" y2="67.706047"/><linearGradient id="m" gradientUnits="userSpaceOnUse" x1="120.64606" x2="118.33302" xlink:href="#i" y1="87.489296" y2="67.706047"/><g><g fill="url(#e)"><path d="m12-95.03125c-5.5110903 0-10.03125 4.52016-10.03125 10.03125v71c0 5.5110902 4.5201598 10.03125 10.03125 10.03125h72c5.51109 0 10.03125-4.5201597 10.03125-10.03125v-71c0-5.51109-4.52016-10.03125-10.03125-10.03125z" opacity=".08" transform="scale(1 -1)"/><path d="m12-94.03125c-4.971633 0-9.03125 4.059617-9.03125 9.03125v71c0 4.9716329 4.0596171 9.03125 9.03125 9.03125h72c4.971633 0 9.03125-4.059617 9.03125-9.03125v-71c0-4.971633-4.059617-9.03125-9.03125-9.03125z" opacity=".1" transform="scale(1 -1)"/><path d="m12-93c-4.4091333 0-8 3.590867-8 8v71c0 4.4091333 3.5908667 8 8 8h72c4.409133 0 8-3.5908667 8-8v-71c0-4.409133-3.590867-8-8-8z" opacity=".2" transform="scale(1 -1)"/><rect height="85" opacity=".3" rx="7" transform="scale(1 -1)" width="86" x="5" y="-92"/></g><rect fill="url(#f)" height="84" opacity=".45" rx="6" transform="scale(1 -1)" width="84" x="6" y="-91"/></g><rect fill="url(#g)" height="84" rx="6" width="84" x="6" y="6"/><path d="m12 6.0000002c-3.324 0-6 2.676-6 5.9999998v2 68 2c0 .334721.04135.6507.09375.96875.0487.295596.09704.596915.1875.875.00988.03038.020892.0636.03125.09375.098865.287771.2348802.547452.375.8125.1445918.273507.3156161.535615.5.78125s.3737765.473472.59375.6875c.439947.428056.94291.814526 1.5 1.09375.278545.139612.5734731.246947.875.34375-.2562018-.100222-.4867109-.236272-.71875-.375-.00741-.0044-.023866.0045-.03125 0-.031933-.0193-.062293-.04251-.09375-.0625-.120395-.0767-.2310226-.163513-.34375-.25-.1061728-.0808-.2132809-.161112-.3125-.25-.1779299-.161433-.3474596-.345388-.5-.53125-.1075789-.130255-.2183939-.265285-.3125-.40625-.025089-.03838-.038446-.08587-.0625-.125-.064763-.103032-.1302275-.204517-.1875-.3125-.1010083-.194706-.2056748-.415701-.28125-.625-.00796-.02181-.023589-.04055-.03125-.0625-.031825-.09195-.035805-.186831-.0625-.28125-.030332-.106618-.070389-.203031-.09375-.3125-.072879-.341512-.125-.698205-.125-1.0625v-2-68-2c0-2.781848 2.2181517-4.9999998 5-4.9999998h2 68 2c2.781848 0 5 2.2181518 5 4.9999998v2 68 2c0 .364295-.05212.720988-.125 1.0625-.04415.206893-.08838.397658-.15625.59375-.0077.02195-.0233.04069-.03125.0625-.06274.173739-.138383.367449-.21875.53125-.04158.0828-.07904.169954-.125.25-.0546.09721-.126774.18835-.1875.28125-.09411.140965-.204921.275995-.3125.40625-.143174.17445-.303141.346998-.46875.5-.01117.0102-.01998.02115-.03125.03125-.138386.125556-.285091.234436-.4375.34375-.102571.07315-.204318.153364-.3125.21875-.0074.0045-.02384-.0044-.03125 0-.232039.138728-.462548.274778-.71875.375.301527-.0968.596455-.204138.875-.34375.55709-.279224 1.060053-.665694 1.5-1.09375.219973-.214028.409366-.441865.59375-.6875s.355408-.507743.5-.78125c.14012-.265048.276135-.524729.375-.8125.01041-.03078.02133-.06274.03125-.09375.09046-.278085.1388-.579404.1875-.875.0524-.31805.09375-.634029.09375-.96875v-2-68-2c0-3.3239998-2.676-5.9999998-6-5.9999998z" fill="url(#c)" opacity=".35"/><path d="m12 90c-3.324 0-6-2.676-6-6v-2-68-2c0-.33472.04135-.6507.09375-.96875.0487-.2956.09704-.59691.1875-.875.00988-.0304.020892-.0636.03125-.0937.098865-.28777.2348802-.54745.375-.8125.1445918-.27351.3156161-.53562.5-.78125s.3737765-.47347.59375-.6875c.439947-.42806.94291-.81453 1.5-1.09375.278545-.13961.5734731-.24695.875-.34375-.2562018.10022-.4867109.23627-.71875.375-.00741.004-.023866-.004-.03125 0-.031933.0193-.062293.0425-.09375.0625-.120395.0767-.2310226.16351-.34375.25-.1061728.0808-.2132809.16111-.3125.25-.1779299.16143-.3474596.34539-.5.53125-.1075789.13026-.2183939.26529-.3125.40625-.025089.0384-.038446.0859-.0625.125-.064763.10303-.1302275.20452-.1875.3125-.1010083.19471-.2056748.4157-.28125.625-.00796.0218-.023589.0405-.03125.0625-.031825.0919-.035805.18683-.0625.28125-.030332.10662-.070389.20303-.09375.3125-.072879.34146-.125.69816-.125 1.06245v2 68 2c0 2.78185 2.2181517 5 5 5h2 68 2c2.781848 0 5-2.21815 5-5v-2-68-2c0-.36429-.05212-.72099-.125-1.0625-.04415-.20689-.08838-.39766-.15625-.59375-.0077-.022-.0233-.0407-.03125-.0625-.06274-.17374-.138383-.36745-.21875-.53125-.04158-.0828-.07904-.16995-.125-.25-.0546-.0972-.126774-.18835-.1875-.28125-.09411-.14096-.204921-.27599-.3125-.40625-.143174-.17445-.303141-.347-.46875-.5-.01117-.0102-.01998-.0212-.03125-.0312-.138386-.12556-.285091-.23444-.4375-.34375-.102571-.0731-.204318-.15336-.3125-.21875-.0074-.004-.02384.004-.03125 0-.232039-.13873-.462548-.27478-.71875-.375.301527.0968.596455.20414.875.34375.55709.27922 1.060053.66569 1.5 1.09375.219973.21403.409366.44187.59375.6875s.355408.50774.5.78125c.14012.26505.276135.52473.375.8125.01041.0308.02133.0627.03125.0937.09046.27809.1388.5794.1875.875.0524.31805.09375.63403.09375.96875v2 68 2c0 3.324-2.676 6-6 6z" fill="url(#a)" opacity=".25"/><path d="m29.699219 27c-3.333972 0-5.955786 1.259461-7.863281 3.777344-1.89091 2.501532-2.835938 5.999875-2.835938 10.496094 0 4.36542.911767 7.815376 2.736328 10.349609 1.841149 2.534232 4.429701 3.800781 7.763672 3.800781 3.483254 0 6.111918-1.349144 7.886719-4.046875h.224609l-.224609 3.361328v.539063c0 4.152872-1.94973 6.228515-5.847657 6.228515-3.864752 0-7.48051-.703285-10.847656-2.109375v5.984375c2.869538 1.079093 6.336595 1.619141 10.400391 1.619141 4.611165 0 8.078222-1.02267 10.400391-3.066406 2.338755-2.027386 3.507812-5.010849 3.507812-8.951172v-27.466797h-6.419922l-.621094 3.505859h-.199218c-1.957257-2.681381-4.643641-4.021484-8.060547-4.021484zm36.791015 0c-3.48659 0-6.11803 1.356231-7.894531 4.070312h-.347656l-1.072266-3.554687h-6.175781v39.484375h7.595703v-11.109375c0-.359698-.132793-1.683672-.398437-3.972656h.398437c1.859515 2.338033 4.424559 3.505859 7.695313 3.505859 2.174967 0 4.067261-.563264 5.677734-1.691406s2.847591-2.771503 3.710938-4.929688c.879948-2.158186 1.320312-4.700323 1.320312-7.626953 0-4.447169-.929548-7.922296-2.789062-10.423828-1.859515-2.501533-4.433348-3.751953-7.720704-3.751953zm-2.439453 5.984375c1.793104 0 3.103453.678116 3.933594 2.035156.846743 1.340692 1.269531 3.360863 1.269531 6.058594 0 5.526262-1.699939 8.289063-5.103515 8.289063-1.925926-.000001-3.337824-.638772-4.234375-1.914063-.87995-1.275291-1.320313-3.383193-1.320313-6.326172v-.810547c.03321-2.615982.482357-4.487092 1.345703-5.615234.863346-1.144492 2.233258-1.716797 4.109375-1.716797zm-31.96289.09766c2.040191 0 3.515453.64586 4.427734 1.9375.928867 1.275292 1.392578 3.376104 1.392578 6.302735v.908203c0 2.583282-.439253 4.454392-1.318359 5.615234-.879107 1.144492-2.338714 1.716797-4.378906 1.716797-1.874322 0-3.258604-.678116-4.154297-2.035156-.879108-1.357041-1.31836-3.40947-1.31836-6.15625 0-5.526262 1.783421-8.289063 5.34961-8.289063z" opacity=".3"/><path d="m29.699219 28c-3.333972 0-5.955786 1.259461-7.863281 3.777344-1.89091 2.501532-2.835938 5.999875-2.835938 10.496094 0 4.36542.911767 7.815376 2.736328 10.349609 1.841149 2.534232 4.429701 3.800781 7.763672 3.800781 3.483254 0 6.111918-1.349144 7.886719-4.046875h.224609l-.224609 3.361328v.539063c0 4.152872-1.94973 6.228515-5.847657 6.228515-3.864752 0-7.48051-.703285-10.847656-2.109375v5.984375c2.869538 1.079093 6.336595 1.619141 10.400391 1.619141 4.611165 0 8.078222-1.02267 10.400391-3.066406 2.338755-2.027386 3.507812-5.010849 3.507812-8.951172v-27.466797h-6.419922l-.621094 3.505859h-.199218c-1.957257-2.681381-4.643641-4.021484-8.060547-4.021484zm36.791015 0c-3.48659 0-6.11803 1.356231-7.894531 4.070312h-.347656l-1.072266-3.554687h-6.175781v39.484375h7.595703v-11.109375c0-.359698-.132793-1.683672-.398437-3.972656h.398437c1.859515 2.338033 4.424559 3.505859 7.695313 3.505859 2.174967 0 4.067261-.563264 5.677734-1.691406s2.847591-2.771503 3.710938-4.929688c.879948-2.158186 1.320312-4.700323 1.320312-7.626953 0-4.447169-.929548-7.922296-2.789062-10.423828-1.859515-2.501533-4.433348-3.751953-7.720704-3.751953zm-2.439453 5.984375c1.793104 0 3.103453.678116 3.933594 2.035156.846743 1.340692 1.269531 3.360863 1.269531 6.058594 0 5.526262-1.699939 8.289063-5.103515 8.289063-1.925926-.000001-3.337824-.638772-4.234375-1.914063-.87995-1.275291-1.320313-3.383193-1.320313-6.326172v-.810547c.033206-2.615982.482357-4.487092 1.345703-5.615234.863346-1.144492 2.233258-1.716797 4.109375-1.716797zm-31.96289.097656c2.040191 0 3.515453.64586 4.427734 1.9375.928867 1.275292 1.392578 3.376104 1.392578 6.302735v.908203c0 2.583282-.439253 4.454392-1.318359 5.615234-.879107 1.144492-2.338714 1.716797-4.378906 1.716797-1.874322 0-3.258604-.678116-4.154297-2.035156-.879108-1.357041-1.31836-3.40947-1.31836-6.15625 0-5.526262 1.783421-8.289063 5.34961-8.289063z" fill="#beffaa"/><path d="m29.699219 28c-3.333972 0-5.955786 1.259461-7.863281 3.777344-1.89091 2.501532-2.835938 5.999875-2.835938 10.496094 0 4.36542.911767 7.815376 2.736328 10.349609 1.841149 2.534232 4.429701 3.800781 7.763672 3.800781 3.483254 0 6.111918-1.349144 7.886719-4.046875h.224609l-.224609 3.361328v.539063c0 4.152872-1.94973 6.228515-5.847657 6.228515-3.864752 0-7.48051-.703285-10.847656-2.109375v5.984375c2.869538 1.079093 6.336595 1.619141 10.400391 1.619141 4.611165 0 8.078222-1.02267 10.400391-3.066406 2.338754-2.027386 3.507812-5.010849 3.507812-8.951172v-27.466797h-6.419922l-.621094 3.505859h-.199218c-1.957257-2.681381-4.643641-4.021484-8.060547-4.021484zm36.791015 0c-3.48659 0-6.11803 1.356232-7.894531 4.070312h-.347656l-1.072266-3.554687h-6.175781v39.484375h7.595703v-11.109375c0-.359698-.132793-1.683672-.398437-3.972656h.398437c1.859515 2.338033 4.424559 3.505859 7.695313 3.505859 2.174967 0 4.067261-.563264 5.677734-1.691406s2.84759-2.771503 3.710938-4.929688c.879947-2.158186 1.320312-4.700323 1.320312-7.626953 0-4.447169-.929548-7.922296-2.789062-10.423828-1.859516-2.501533-4.433348-3.751953-7.720704-3.751953zm-36.791015 1c3.155441 0 5.458053 1.153742 7.251953 3.611328a1.0001 1.0001 0 0 0 .808594.410156h.199218a1.0001 1.0001 0 0 0 .984375-.826172l.47461-2.679687h4.582031v26.466797c0 3.742529-1.065626 6.377943-3.162109 8.195312a1.0001 1.0001 0 0 0 -.00586.00586c-2.075759 1.826866-5.276923 2.816406-9.740234 2.816406-3.692173 0-6.787621-.502689-9.400391-1.388672v-3.875c3.105226 1.110156 6.369671 1.769531 9.847656 1.769531 2.126464 0 3.912843-.592507 5.115235-1.873047 1.202392-1.280537 1.732422-3.122536 1.732422-5.355468v-.50586l.222656-3.328125a1.0001 1.0001 0 0 0 -.998047-1.066406h-.224609a1.0001 1.0001 0 0 0 -.835938.451172c-1.609759 2.446864-3.825742 3.595703-7.050781 3.595703-3.078535 0-5.279304-1.086281-6.951172-3.384766-1.665416-2.313188-2.548828-5.539446-2.548828-9.765624 0-4.356098.915695-7.620961 2.632812-9.892579 1.738088-2.294264 3.984279-3.380859 7.066407-3.380859zm36.791015 0c3.033775 0 5.226841 1.072648 6.917969 3.347656 1.690169 2.273719 2.591797 5.520303 2.591797 9.828125 0 2.826318-.42576 5.238025-1.246094 7.25a1.0001 1.0001 0 0 0 -.001953.00586c-.80601 2.014855-1.923614 3.478035-3.357422 4.482421-1.437096 1.006693-3.101199 1.509766-5.103515 1.509766-3.03272 0-5.230484-1.01454-6.91211-3.128906a1.0001 1.0001 0 0 0 -.783203-.376953h-.398437a1.0001 1.0001 0 0 0 -.994141 1.115234c.264953 2.28303.392578 3.743843.392578 3.857422v10.109375h-5.595703v-37.484375h4.433594l.857422 2.84375a1.0001 1.0001 0 0 0 .957031.710937h.347656a1.0001 1.0001 0 0 0 .835938-.453124c1.612285-2.463198 3.831327-3.617188 7.058593-3.617188zm-2.439453 3.984375c-2.078394 0-3.832998.692239-4.90625 2.113281 0 0-.001953.001953-.001953.001953-1.083035 1.418852-1.512335 3.484013-1.546875 6.205079a1.0001 1.0001 0 0 0 0 .011718v.810547c0 3.042734.414134 5.323642 1.498047 6.894531a1.0001 1.0001 0 0 0 .003906.00586c1.090277 1.550855 2.905696 2.339842 5.052735 2.339844 1.972366 0 3.673192-.913828 4.679687-2.548829 1.006496-1.635 1.423828-3.874566 1.423828-6.740234 0-2.798533-.416081-4.987433-1.421875-6.583984-.997828-1.626173-2.738621-2.509766-4.78125-2.509766zm-31.96289.097656c-2.041335 0-3.795221.89261-4.851563 2.529297-1.056341 1.636688-1.498047 3.889062-1.498047 6.759766 0 2.85339.431897 5.083599 1.478516 6.699218a1.0001 1.0001 0 0 0 .005859.007813c1.072262 1.624554 2.872764 2.484375 4.988282 2.484375 2.227201 0 4.065137-.666583 5.171874-2.107422a1.0001 1.0001 0 0 0 .003907-.005859c1.094545-1.445326 1.521484-3.52211 1.521484-6.21875v-.908203c0-3.028057-.440292-5.313276-1.580078-6.882813-1.115136-1.575199-2.991189-2.357422-5.240234-2.357422zm31.96289.902344c1.793104 0 3.103453.678116 3.933594 2.035156.846743 1.340692 1.269531 3.360863 1.269531 6.058594 0 5.526262-1.699939 8.289063-5.103515 8.289063-1.925926-.000001-3.337824-.638772-4.234375-1.914063-.87995-1.275291-1.320313-3.383193-1.320313-6.326172v-.810547c.033206-2.615982.482357-4.487092 1.345703-5.615234.863346-1.144492 2.233258-1.716797 4.109375-1.716797zm-31.96289.097656c2.040191 0 3.515453.64586 4.427734 1.9375.928867 1.275292 1.392578 3.376104 1.392578 6.302735v.908203c0 2.583282-.439253 4.454392-1.318359 5.615234-.879107 1.144492-2.338714 1.716797-4.378906 1.716797-1.874322 0-3.258604-.678116-4.154297-2.035156-.879108-1.357041-1.31836-3.40947-1.31836-6.15625 0-5.526262 1.783421-8.289063 5.34961-8.289063z" fill="url(#h)" opacity=".25"/><g transform="translate(47.475941 -19.870614)"><path d="m-32.112897 54.846715c1.397879 1.425159 3.057357 2.429607 4.839262 2.983106a.87790088.87790088 0 0 0 .861786-1.480504c-4.683213-4.279507-4.376408-9.666818-1.922447-13.059379l2.010835 2.055029a.87790088.87790088 0 0 0 1.480505-.464038l1.878253-10.584505a.87790088.87790088 0 0 0 -1.016466-1.016466l-10.407728 1.922446a.87790088.87790088 0 0 0 -.464039 1.480505l2.099223 2.143418c-3.798314 4.692747-3.655596 11.64016.640816 16.020388z" fill="url(#l)" opacity=".15"/><path clip-path="url(#j)" d="m126.77481 78.668776-5.99211 8.721478-6.16173-8.838877 3.96478.0383c-.25101-4.905678-4.4683-9.938783-11.69776-9.613148 1.52232-.80073 3.26698-1.251477 5.1202-1.233571 5.9493.05747 10.83282 4.956046 11.03252 10.889749l3.7341.03607z" fill="url(#m)" opacity=".3" transform="matrix(-.70710678 -.70710678 .70710678 -.70710678 -.204704 181.33044)"/><path d="m-34.927914 36.766995 10.404078-1.929954-1.893029 10.607031-2.77644-2.830606c-3.291347 3.64633-3.868216 10.187347 1.474043 15.069088-1.642644-.510241-3.195031-1.425176-4.492794-2.748262-4.166153-4.247427-4.155507-11.164414-.100955-15.501385l-2.614902-2.665912z" fill="url(#k)"/></g><g transform="matrix(-1 0 0 -1 47.048518 113.26674)"><path d="m-32.112897 54.846715c1.397879 1.425159 3.057357 2.429607 4.839262 2.983106a.87790088.87790088 0 0 0 .861786-1.480504c-4.683213-4.279507-4.376408-9.666818-1.922447-13.059379l2.010835 2.055029a.87790088.87790088 0 0 0 1.480505-.464038l1.878253-10.584505a.87790088.87790088 0 0 0 -1.016466-1.016466l-10.407728 1.922446a.87790088.87790088 0 0 0 -.464039 1.480505l2.099223 2.143418c-3.798314 4.692747-3.655596 11.64016.640816 16.020388z" fill="url(#l)" opacity=".15"/><path clip-path="url(#j)" d="m126.77481 78.668776-5.99211 8.721478-6.16173-8.838877 3.96478.0383c-.25101-4.905678-4.4683-9.938783-11.69776-9.613148 1.52232-.80073 3.26698-1.251477 5.1202-1.233571 5.9493.05747 10.83282 4.956046 11.03252 10.889749l3.7341.03607z" fill="url(#m)" opacity=".3" transform="matrix(-.70710678 -.70710678 .70710678 -.70710678 -.204704 181.33044)"/><path d="m-34.927914 36.766995 10.404078-1.929954-1.893029 10.607031-2.77644-2.830606c-3.291347 3.64633-3.868216 10.187347 1.474043 15.069088-1.642644-.510241-3.195031-1.425176-4.492794-2.748262-4.166153-4.247427-4.155507-11.164414-.100955-15.501385l-2.614902-2.665912z" fill="url(#k)"/></g></svg>