<svg height="96" width="96" xmlns="http://www.w3.org/2000/svg" xmlns:xlink="http://www.w3.org/1999/xlink"><linearGradient id="a"><stop offset="0" stop-color="#c4c0eb"/><stop offset="1" stop-color="#10317c"/></linearGradient><linearGradient id="b"><stop offset="0" stop-color="#fefefe"/><stop offset="1" stop-color="#fefefe" stop-opacity="0"/></linearGradient><filter id="c" color-interpolation-filters="sRGB" height="1.384" width="1.384" x="-.192" y="-.192"><feGaussianBlur stdDeviation="5.28"/></filter><clipPath id="d"><rect height="84" rx="6" width="84" x="6" y="6"/></clipPath><linearGradient id="e" gradientTransform="matrix(1.0058652 0 0 .994169 100 0)" gradientUnits="userSpaceOnUse" x1="45.447727" x2="45.447727" y1="92.539597" y2="7.01654"><stop offset="0"/><stop offset="1" stop-opacity=".588235"/></linearGradient><linearGradient id="f" gradientTransform="matrix(1.0238095 0 0 -1.0119048 -1.142857 98.071429)" gradientUnits="userSpaceOnUse" x1="32.251034" x2="32.251034" xlink:href="#e" y1="6.131708" y2="90.238609"/><linearGradient id="g" gradientTransform="matrix(1 0 0 -1 0 97)" gradientUnits="userSpaceOnUse" x1="32.251034" x2="32.251034" xlink:href="#e" y1="6.131708" y2="90.238609"/><linearGradient id="h" gradientTransform="matrix(1.0172414 0 0 1.0172414 -1.103448 -1.103448)" gradientUnits="userSpaceOnUse" x1="58.650177" x2="58.650177" y1="122" y2="5.425234"><stop offset="0"/><stop offset="1" stop-color="#515151"/></linearGradient><linearGradient id="i" gradientTransform="translate(-110)" gradientUnits="userSpaceOnUse" x1="48" x2="48" xlink:href="#h" y1="90" y2="5.987717"/><linearGradient id="j" gradientUnits="userSpaceOnUse" x1="48" x2="48" xlink:href="#h" y1="90" y2="5.987717"/><radialGradient id="k" cx="48" cy="90.171875" gradientTransform="matrix(1.1573129 0 0 .99590774 -7.551021 .197132)" gradientUnits="userSpaceOnUse" r="42" xlink:href="#b"/><linearGradient id="l" gradientUnits="userSpaceOnUse" x1="36.357143" x2="36.357143" xlink:href="#b" y1="6" y2="63.893143"/><linearGradient id="m" gradientUnits="userSpaceOnUse" x1="48.495441" x2="48.495441" y1="90.434654" y2="52.387913"><stop offset="0" stop-color="#090c46"/><stop offset="1" stop-color="#191f60" stop-opacity="0"/></linearGradient><radialGradient id="n" cx="48" cy="48" gradientTransform="matrix(1.1428571 0 0 -.85714286 -6.857143 38.142857)" gradientUnits="userSpaceOnUse" r="28" xlink:href="#a"/><radialGradient id="o" cx="48" cy="48" gradientTransform="matrix(1.1428571 0 0 .85714286 -6.857143 57.857143)" gradientUnits="userSpaceOnUse" r="28" xlink:href="#a"/><radialGradient id="p" cx="48" cy="48" gradientTransform="matrix(1.1428571 0 0 .85714286 -6.857143 3.857143)" gradientUnits="userSpaceOnUse" r="28" xlink:href="#a"/><radialGradient id="q" cx="48" cy="48" gradientTransform="matrix(1.1428571 0 0 -.85714286 -6.857143 38.14286)" gradientUnits="userSpaceOnUse" r="28" xlink:href="#a"/><linearGradient id="r" gradientUnits="userSpaceOnUse" x1="48" x2="48" xlink:href="#b" y1="20.220806" y2="138.66119"/><radialGradient id="s" cx="40.453083" cy="49.668861" gradientTransform="matrix(1.983145 .12496523 -.08888774 1.4106105 -33.652911 -25.826419)" gradientUnits="userSpaceOnUse" r="20.164091"><stop offset="0" stop-color="#f6dd81"/><stop offset="1" stop-color="#f8c400"/></radialGradient><g><g fill="url(#f)"><path d="m12 4c-5.5087222 0-10 4.4912778-10 10v71c0 5.508722 4.4912778 10 10 10h72c5.508722 0 10-4.491278 10-10v-71c0-5.5087222-4.491278-10-10-10z" opacity=".08"/><path d="m12 5.03125c-4.946415 0-8.96875 4.022335-8.96875 8.96875v71c0 4.946415 4.022335 8.96875 8.96875 8.96875h72c4.946415 0 8.96875-4.022335 8.96875-8.96875v-71c0-4.946415-4.022335-8.96875-8.96875-8.96875zm-.03125 7.9375h2.0625v.0625h-2.0625zm70 0h2.0625v.0625h-2.0625zm-70 8h2.0625v.0625h-2.0625zm70 0h2.0625v.0625h-2.0625zm-70 8h2.0625v.0625h-2.0625zm70 0h2.0625v.0625h-2.0625zm-70 8h2.0625v.0625h-2.0625zm70 0h2.0625v.0625h-2.0625zm-70 8h2.0625v.0625h-2.0625zm70 0h2.0625v.0625h-2.0625zm-70 8h2.0625v.0625h-2.0625zm70 0h2.0625v.0625h-2.0625zm-70 8h2.0625v.0625h-2.0625zm70 0h2.0625v.0625h-2.0625zm-70 8h2.0625v.0625h-2.0625zm70 0h2.0625v.0625h-2.0625zm-70 8h2.0625v.0625h-2.0625zm70 0h2.0625v.0625h-2.0625zm-70 8h2.0625v.0625h-2.0625zm70 0h2.0625v.0625h-2.0625z" opacity=".1"/><path d="m12 6c-4.4201936 0-8 3.5798064-8 8v71c0 4.420194 3.5798064 8 8 8h72c4.420194 0 8-3.579806 8-8v-71c0-4.4201936-3.579806-8-8-8zm-1 6h4v2h-4zm70 0h4v2h-4zm-70 8h4v2h-4zm70 0h4v2h-4zm-70 8h4v2h-4zm70 0h4v2h-4zm-70 8h4v2h-4zm70 0h4v2h-4zm-70 8h4v2h-4zm70 0h4v2h-4zm-70 8h4v2h-4zm70 0h4v2h-4zm-70 8h4v2h-4zm70 0h4v2h-4zm-70 8h4v2h-4zm70 0h4v2h-4zm-70 8h4v2h-4zm70 0h4v2h-4zm-70 8h4v2h-4zm70 0h4v2h-4z" opacity=".2"/><path d="m12 7c-3.878 0-7 3.122-7 7v71c0 3.878 3.122 7 7 7h72c3.878 0 7-3.122 7-7v-71c0-3.878-3.122-7-7-7zm-2 4h6v4h-6zm70 0h6v4h-6zm-70 8h6v4h-6zm70 0h6v4h-6zm-70 8h6v4h-6zm70 0h6v4h-6zm-70 8h6v4h-6zm70 0h6v4h-6zm-70 8h6v4h-6zm70 0h6v4h-6zm-70 8h6v4h-6zm70 0h6v4h-6zm-70 8h6v4h-6zm70 0h6v4h-6zm-70 8h6v4h-6zm70 0h6v4h-6zm-70 8h6v4h-6zm70 0h6v4h-6zm-70 8h6v4h-6zm70 0h6v4h-6z" opacity=".3"/></g><path d="m12 7c-3.324 0-6 2.676-6 6v72c0 3.324 2.676 6 6 6h72c3.324 0 6-2.676 6-6v-72c0-3.324-2.676-6-6-6zm-2 4h6v4h-6zm70 0h6v4h-6zm-70 8h6v4h-6zm70 0h6v4h-6zm-70 8h6v4h-6zm70 0h6v4h-6zm-70 8h6v4h-6zm70 0h6v4h-6zm-70 8h6v4h-6zm70 0h6v4h-6zm-70 8h6v4h-6zm70 0h6v4h-6zm-70 8h6v4h-6zm70 0h6v4h-6zm-70 8h6v4h-6zm70 0h6v4h-6zm-70 8h6v4h-6zm70 0h6v4h-6zm-70 8h6v4h-6zm70 0h6v4h-6z" fill="url(#g)" opacity=".45"/></g><g><path d="m12 6c-3.324 0-6 2.676-6 6v72c0 3.324 2.676 6 6 6h72c3.324 0 6-2.676 6-6v-72c0-3.324-2.676-6-6-6zm-2 4h6v4h-6zm70 0h6v4h-6zm-70 8h6v4h-6zm70 0h6v4h-6zm-70 8h6v4h-6zm70 0h6v4h-6zm-70 8h6v4h-6zm70 0h6v4h-6zm-70 8h6v4h-6zm70 0h6v4h-6zm-70 8h6v4h-6zm70 0h6v4h-6zm-70 8h6v4h-6zm70 0h6v4h-6zm-70 8h6v4h-6zm70 0h6v4h-6zm-70 8h6v4h-6zm70 0h6v4h-6zm-70 8h6v4h-6zm70 0h6v4h-6z" fill="url(#j)"/><rect fill="url(#i)" height="84" rx="6" width="84" x="-104" y="6"/><path d="m-100 10v4h6v-4zm70 0v4h6v-4zm-70 8v4h6v-4zm70 0v4h6v-4zm-70 8v4h6v-4zm70 0v4h6v-4zm-70 8v4h6v-4zm70 0v4h6v-4zm-70 8v4h6v-4zm70 0v4h6v-4zm-70 8v4h6v-4zm70 0v4h6v-4zm-70 8v4h6v-4zm70 0v4h6v-4zm-70 8v4h6v-4zm70 0v4h6v-4zm-70 8v4h6v-4zm70 0v4h6v-4zm-70 8v4h6v-4zm70 0v4h6v-4z" fill="#f00" opacity=".588745"/></g><rect fill="url(#p)" height="48" rx="2" ry="2.1" width="56" x="20" y="24"/><path d="m22 78c-1.108 0-2 .93035-2 2.09375v9.90625h56v-9.90625c0-1.1634-.892-2.09375-2-2.09375z" fill="url(#o)"/><path d="m22 18c-1.108 0-2-.93035-2-2.09375v-9.90625h56v9.90625c0 1.1634-.892 2.09375-2 2.09375z" fill="url(#n)"/><path d="m20 48v21.90625c0 1.1634.892 2.09375 2 2.09375h52c1.108 0 2-.93035 2-2.09375v-21.90625zm2 30c-1.108 0-2 .93035-2 2.09375v9.90625h56v-9.90625c0-1.1634-.892-2.09375-2-2.09375z" fill="url(#m)" opacity=".6"/><path d="m22 18c-1.108 0-2-.93035-2-2.09375v-9.90625h56v9.90625c0 1.1634-.892 2.09375-2 2.09375z" fill="url(#q)"/><g transform="translate(80)"><path d="m22 24c-1.108 0-2 .93035-2 2.09375v43.8125c0 1.1634.892 2.09375 2 2.09375h52c1.108 0 2-.93035 2-2.09375v-43.8125c0-1.1634-.892-2.09375-2-2.09375zm.03125 2.03125h51.9375c-.0018.0093 0 .0198 0 .0625v43.8125c0 .0427-.0018.05324 0 .0625h-51.9375c.0018-.0093 0-.0198 0-.0625v-43.8125c0-.0427.0018-.05324 0-.0625z" opacity=".1"/><path d="m22 24c-1.108 0-2 .93035-2 2.09375v43.8125c0 1.1634.892 2.09375 2 2.09375h52c1.108 0 2-.93035 2-2.09375v-43.8125c0-1.1634-.892-2.09375-2-2.09375zm0 .90625h52c.60063 0 1.09375.487391 1.09375 1.1875v43.8125c0 .700109-.49312 1.1875-1.09375 1.1875h-52c-.60063 0-1.09375-.487391-1.09375-1.1875v-43.8125c0-.700109.49312-1.1875 1.09375-1.1875z" opacity=".2"/><path d="m20 6v9.90625c0 1.1634.892 2.09375 2 2.09375h52c1.108 0 2-.93035 2-2.09375v-9.90625h-2.03125v9.90625c0 .0427-.0018.05324 0 .0625h-51.9375c.0018-.0093 0-.0198 0-.0625v-9.90625z" opacity=".1"/><path d="m20 6v9.90625c0 1.1634.892 2.09375 2 2.09375h52c1.108 0 2-.93035 2-2.09375v-9.90625h-.90625v9.90625c0 .700109-.49312 1.1875-1.09375 1.1875h-52c-.60063 0-1.09375-.487391-1.09375-1.1875v-9.90625z" opacity=".2"/><path d="m20 90v-9.90625c0-1.1634.892-2.09375 2-2.09375h52c1.108 0 2 .93035 2 2.09375v9.90625h-2.03125v-9.90625c0-.0427-.0018-.05324 0-.0625h-51.9375c.0018.0093 0 .0198 0 .0625v9.90625z" opacity=".1"/><path d="m20 90v-9.90625c0-1.1634.892-2.09375 2-2.09375h52c1.108 0 2 .93035 2 2.09375v9.90625h-.90625v-9.90625c0-.700109-.49312-1.1875-1.09375-1.1875h-52c-.60063 0-1.09375.487391-1.09375 1.1875v9.90625z" opacity=".2"/></g><rect height="66" rx="12" style="opacity:.1;stroke:#fefefe;stroke-width:.5;stroke-linecap:round;clip-path:url(#d);fill:url(#r);filter:url(#c)" transform="translate(0 97.5)" width="66" x="15" y="15"/><path d="m12 6c-3.324 0-6 2.676-6 6v2 68 2c0 .334721.04135.6507.09375.96875.0487.295596.09704.596915.1875.875.00988.03038.020892.0636.03125.09375.098865.287771.2348802.547452.375.8125.1445918.273507.3156161.535615.5.78125s.3737765.473472.59375.6875c.439947.428056.94291.814526 1.5 1.09375.278545.139612.5734731.246947.875.34375-.2562018-.100222-.4867109-.236272-.71875-.375-.00741-.0044-.023866.0045-.03125 0-.031933-.0193-.062293-.04251-.09375-.0625-.120395-.0767-.2310226-.163513-.34375-.25-.1061728-.0808-.2132809-.161112-.3125-.25-.1779299-.161433-.3474596-.345388-.5-.53125-.1075789-.130255-.2183939-.265285-.3125-.40625-.025089-.03838-.038446-.08587-.0625-.125-.064763-.103032-.1302275-.204517-.1875-.3125-.1010083-.194706-.2056748-.415701-.28125-.625-.00796-.02181-.023589-.04055-.03125-.0625-.0318251-.09195-.0358045-.186831-.0625-.28125-.0303323-.106618-.0703894-.203031-.09375-.3125-.0728786-.341512-.125-.698205-.125-1.0625v-2-68-2c0-2.781848 2.2181517-5 5-5h2 68 2c2.781848 0 5 2.218152 5 5v2 68 2c0 .364295-.05212.720988-.125 1.0625-.04415.206893-.08838.397658-.15625.59375-.0077.02195-.0233.04069-.03125.0625-.06274.173739-.138383.367449-.21875.53125-.04158.0828-.07904.169954-.125.25-.0546.09721-.126774.18835-.1875.28125-.09411.140965-.204921.275995-.3125.40625-.143174.17445-.303141.346998-.46875.5-.01117.0102-.01998.02115-.03125.03125-.138386.125556-.285091.234436-.4375.34375-.102571.07315-.204318.153364-.3125.21875-.0074.0045-.02384-.0044-.03125 0-.232039.138728-.462548.274778-.71875.375.301527-.0968.596455-.204138.875-.34375.55709-.279224 1.060053-.665694 1.5-1.09375.219973-.214028.409366-.441865.59375-.6875s.355408-.507743.5-.78125c.14012-.265048.276135-.524729.375-.8125.01041-.03078.02133-.06274.03125-.09375.09046-.278085.1388-.579404.1875-.875.0524-.31805.09375-.634029.09375-.96875v-2-68-2c0-3.324-2.676-6-6-6z" fill="url(#l)" opacity=".25"/><path d="m12 90c-3.324 0-6-2.676-6-6v-2-68-2c0-.334721.04135-.6507.09375-.96875.0487-.295596.09704-.596915.1875-.875.00988-.03038.020892-.0636.03125-.09375.098865-.287771.2348802-.547452.375-.8125.1445918-.273507.3156161-.535615.5-.78125s.3737765-.473472.59375-.6875c.439947-.428056.94291-.814526 1.5-1.09375.278545-.139612.5734731-.246947.875-.34375-.2562018.100222-.4867109.236272-.71875.375-.00741.0044-.023866-.0045-.03125 0-.031933.0193-.062293.04251-.09375.0625-.120395.0767-.2310226.163513-.34375.25-.1061728.0808-.2132809.161112-.3125.25-.1779299.161433-.3474596.345388-.5.53125-.1075789.130255-.2183939.265285-.3125.40625-.025089.03838-.038446.08587-.0625.125-.064763.103032-.1302275.204517-.1875.3125-.1010083.194706-.2056748.415701-.28125.625-.00796.02181-.023589.04055-.03125.0625-.0318251.09195-.0358045.186831-.0625.28125-.0303323.106618-.0703894.203031-.09375.3125-.0728786.341512-.125.698205-.125 1.0625v2 68 2c0 2.781848 2.2181517 5 5 5h2 68 2c2.781848 0 5-2.218152 5-5v-2-68-2c0-.364295-.05212-.720988-.125-1.0625-.04415-.206893-.08838-.397658-.15625-.59375-.0077-.02195-.0233-.04069-.03125-.0625-.06274-.173739-.138383-.367449-.21875-.53125-.04158-.0828-.07904-.169954-.125-.25-.0546-.09721-.126774-.18835-.1875-.28125-.09411-.140965-.204921-.275995-.3125-.40625-.143174-.17445-.303141-.346998-.46875-.5-.01117-.0102-.01998-.02115-.03125-.03125-.138386-.125556-.285091-.234436-.4375-.34375-.102571-.07315-.204318-.153364-.3125-.21875-.0074-.0045-.02384.0044-.03125 0-.232039-.138728-.462548-.274778-.71875-.375.301527.0968.596455.204138.875.34375.55709.279224 1.060053.665694 1.5 1.09375.219973.214028.409366.441865.59375.6875s.355408.507743.5.78125c.14012.265048.276135.524729.375.8125.01041.03078.02133.06274.03125.09375.09046.278085.1388.579404.1875.875.0524.31805.09375.634029.09375.96875v2 68 2c0 3.324-2.676 6-6 6z" fill="url(#k)" opacity=".15"/><g stroke="#000" transform="translate(0 2)"><path d="m52.272937 27.830918c-2.327284-.195674-4.72182-.05553-7.170619.400886-5.868786 1.094001-10.302098 3.717482-13.052462 7.881326l-.0019.02929c-2.739438 4.148144-3.46692 9.353388-2.327269 15.467278 1.136709 6.098139 3.707586 10.70534 7.758393 13.603406 4.063248 2.876542 9.137897 3.74484 15.005803 2.651047 2.681209-.499788 5.16948-1.348008 7.420653-2.502278 2.246833-1.170572 4.232466-2.641203 5.953503-4.417824l.346187-.360449-.087626-.475997-2.92644-15.621903-.177095-.922708-.922707.177095-12.912359 2.391463-.951996.175249.177095.922708.774098 4.047825.17525.951996.922706-.177095 7.110677-1.316215 1.540815 8.212805c-.807588.635318-1.68905 1.192606-2.750387 1.649783-1.233761.51492-2.686264.939307-4.372086 1.253546-4.277234.797293-7.525027.219333-9.981347-1.658127-2.442428-1.880841-4.16285-5.139442-5.051016-9.904235-.888705-4.767616-.451904-8.411444 1.136953-11.043354.0046-.0076-.0028-.02166.0019-.02929 1.616967-2.624755 4.439142-4.360724 8.705254-5.155974 2.150464-.400821 4.245047-.390636 6.322857-.01324 2.079105.37771 4.126564 1.113373 6.149614 2.269415l1.78796 1.024213-.372404-2.022991-.963872-5.235973-.115068-.507133-.48683-.207105c-2.105082-.836718-4.324177-1.345005-6.666215-1.537444z" opacity=".2" stroke-width="6"/><path d="m52.272937 27.830918c-2.327284-.195674-4.72182-.05553-7.170619.400886-5.868786 1.094001-10.302098 3.717482-13.052462 7.881326l-.0019.02929c-2.739438 4.148144-3.46692 9.353388-2.327269 15.467278 1.136709 6.098139 3.707586 10.70534 7.758393 13.603406 4.063248 2.876542 9.137897 3.74484 15.005803 2.651047 2.681209-.499788 5.16948-1.348008 7.420653-2.502278 2.246833-1.170572 4.232466-2.641203 5.953503-4.417824l.346187-.360449-.087626-.475997-2.92644-15.621903-.177095-.922708-.922707.177095-12.912359 2.391463-.951996.175249.177095.922708.774098 4.047825.17525.951996.922706-.177095 7.110677-1.316215 1.540815 8.212805c-.807588.635318-1.68905 1.192606-2.750387 1.649783-1.233761.51492-2.686264.939307-4.372086 1.253546-4.277234.797293-7.525027.219333-9.981347-1.658127-2.442428-1.880841-4.16285-5.139442-5.051016-9.904235-.888705-4.767616-.451904-8.411444 1.136953-11.043354.0046-.0076-.0028-.02166.0019-.02929 1.616967-2.624755 4.439142-4.360724 8.705254-5.155974 2.150464-.400821 4.245047-.390636 6.322857-.01324 2.079105.37771 4.126564 1.113373 6.149614 2.269415l1.78796 1.024213-.372404-2.022991-.963872-5.235973-.115068-.507133-.48683-.207105c-2.105082-.836718-4.324177-1.345005-6.666215-1.537444z" opacity=".2" stroke-width="4"/><path d="m52.272937 27.830918c-2.327284-.195674-4.72182-.05553-7.170619.400886-5.868786 1.094001-10.302098 3.717482-13.052462 7.881326l-.0019.02929c-2.739438 4.148144-3.46692 9.353388-2.327269 15.467278 1.136709 6.098139 3.707586 10.70534 7.758393 13.603406 4.063248 2.876542 9.137897 3.74484 15.005803 2.651047 2.681209-.499788 5.16948-1.348008 7.420653-2.502278 2.246833-1.170572 4.232466-2.641203 5.953503-4.417824l.346187-.360449-.087626-.475997-2.92644-15.621903-.177095-.922708-.922707.177095-12.912359 2.391463-.951996.175249.177095.922708.774098 4.047825.17525.951996.922706-.177095 7.110677-1.316215 1.540815 8.212805c-.807588.635318-1.68905 1.192606-2.750387 1.649783-1.233761.51492-2.686264.939307-4.372086 1.253546-4.277234.797293-7.525027.219333-9.981347-1.658127-2.442428-1.880841-4.16285-5.139442-5.051016-9.904235-.888705-4.767616-.451904-8.411444 1.136953-11.043354.0046-.0076-.0028-.02166.0019-.02929 1.616967-2.624755 4.439142-4.360724 8.705254-5.155974 2.150464-.400821 4.245047-.390636 6.322857-.01324 2.079105.37771 4.126564 1.113373 6.149614 2.269415l1.78796 1.024213-.372404-2.022991-.963872-5.235973-.115068-.507133-.48683-.207105c-2.105082-.836718-4.324177-1.345005-6.666215-1.537444z" opacity=".2" stroke-width="2"/></g><path d="m52.272937 27.830918c-2.327284-.195674-4.72182-.05553-7.170619.400886-5.868786 1.094001-10.302098 3.717482-13.052462 7.881326l-.0019.02929c-2.739438 4.148144-3.46692 9.353388-2.327269 15.467278 1.136709 6.098139 3.707586 10.70534 7.758393 13.603406 4.063248 2.876542 9.137897 3.74484 15.005803 2.651047 2.681209-.499788 5.16948-1.348008 7.420653-2.502278 2.246833-1.170572 4.232466-2.641203 5.953503-4.417824l.346187-.360449-.087626-.475997-2.92644-15.621903-.177095-.922708-.922707.177095-12.912359 2.391463-.951996.175249.177095.922708.774098 4.047825.17525.951996.922706-.177095 7.110677-1.316215 1.540815 8.212805c-.807588.635318-1.68905 1.192606-2.750387 1.649783-1.233761.51492-2.686264.939307-4.372086 1.253546-4.277234.797293-7.525027.219333-9.981347-1.658127-2.442428-1.880841-4.16285-5.139442-5.051016-9.904235-.888705-4.767616-.451904-8.411444 1.136953-11.043354.0046-.0076-.0028-.02166.0019-.02929 1.616967-2.624755 4.439142-4.360724 8.705254-5.155974 2.150464-.400821 4.245047-.390636 6.322857-.01324 2.079105.37771 4.126564 1.113373 6.149614 2.269415l1.78796 1.024213-.372404-2.022991-.963872-5.235973-.115068-.507133-.48683-.207105c-2.105082-.836718-4.324177-1.345005-6.666215-1.537444z" fill="url(#s)"/></svg>