<svg height="96" width="96" xmlns="http://www.w3.org/2000/svg" xmlns:xlink="http://www.w3.org/1999/xlink"><linearGradient id="a"><stop offset="0" stop-color="#fefefe"/><stop offset="1" stop-color="#fefefe" stop-opacity="0"/></linearGradient><linearGradient id="b" gradientUnits="userSpaceOnUse" x1="48" x2="48" y1="90" y2="5.987717"><stop offset="0" stop-color="#e6e6e6"/><stop offset="1" stop-color="#f5f5f5"/></linearGradient><linearGradient id="c" gradientUnits="userSpaceOnUse" x1="36.357143" x2="36.357143" xlink:href="#a" y1="6" y2="63.893143"/><linearGradient id="d" gradientUnits="userSpaceOnUse" x1="56.633896" x2="56.633896" y1="89.164001" y2="6.398416"><stop offset="0" stop-color="#c30000"/><stop offset="1" stop-color="#f12300"/></linearGradient><linearGradient id="e" gradientTransform="matrix(1.0058652 0 0 .994169 100 0)" gradientUnits="userSpaceOnUse" x1="45.447727" x2="45.447727" y1="92.539597" y2="7.01654"><stop offset="0"/><stop offset="1" stop-opacity=".588235"/></linearGradient><linearGradient id="f" gradientTransform="matrix(1.0238095 0 0 1.0119048 -1.142857 -98.071429)" gradientUnits="userSpaceOnUse" x1="32.251034" x2="32.251034" xlink:href="#e" y1="6.131708" y2="90.238609"/><linearGradient id="g" gradientTransform="translate(0 -97)" gradientUnits="userSpaceOnUse" x1="32.251034" x2="32.251034" xlink:href="#e" y1="6.131708" y2="90.238609"/><radialGradient id="h" cx="48" cy="90.171875" gradientTransform="matrix(1.1573129 0 0 .99590774 -7.551021 .197132)" gradientUnits="userSpaceOnUse" r="42" xlink:href="#a"/><clipPath id="i"><rect height="84" rx="6" width="84" x="6" y="6"/></clipPath><filter id="j" color-interpolation-filters="sRGB" height="1.384" width="1.384" x="-.192" y="-.192"><feGaussianBlur stdDeviation="5.28"/></filter><linearGradient id="k" gradientUnits="userSpaceOnUse" x1="48" x2="48" xlink:href="#a" y1="20.220806" y2="138.66119"/><linearGradient id="l" gradientUnits="userSpaceOnUse" x1="42.81356" x2="42.81356" y1="72.694618" y2="74.593513"><stop offset="0" stop-opacity="0"/><stop offset="1" stop-color="#00daff" stop-opacity=".840467"/></linearGradient><g><g fill="url(#f)"><path d="m12-95.03125c-5.5110903 0-10.03125 4.52016-10.03125 10.03125v71c0 5.5110902 4.5201598 10.03125 10.03125 10.03125h72c5.51109 0 10.03125-4.5201597 10.03125-10.03125v-71c0-5.51109-4.52016-10.03125-10.03125-10.03125z" opacity=".08" transform="scale(1 -1)"/><path d="m12-94.03125c-4.971633 0-9.03125 4.059617-9.03125 9.03125v71c0 4.9716329 4.0596171 9.03125 9.03125 9.03125h72c4.971633 0 9.03125-4.059617 9.03125-9.03125v-71c0-4.971633-4.059617-9.03125-9.03125-9.03125z" opacity=".1" transform="scale(1 -1)"/><path d="m12-93c-4.4091333 0-8 3.590867-8 8v71c0 4.4091333 3.5908667 8 8 8h72c4.409133 0 8-3.5908667 8-8v-71c0-4.409133-3.590867-8-8-8z" opacity=".2" transform="scale(1 -1)"/><rect height="85" opacity=".3" rx="7" transform="scale(1 -1)" width="86" x="5" y="-92"/></g><rect fill="url(#g)" height="84" opacity=".45" rx="6" transform="scale(1 -1)" width="84" x="6" y="-91"/></g><rect fill="url(#b)" height="84" rx="6" width="84" x="6" y="6"/><rect height="66" rx="12" style="opacity:.5;stroke:#fefefe;stroke-width:.5;stroke-linecap:round;clip-path:url(#i);fill:url(#k);filter:url(#j)" transform="translate(-80)" width="66" x="15" y="15"/><g fill-rule="evenodd"><path d="m90 28.6875c-23.516715 30.330116-59.750721 34.471306-84 30.09375v4.90625c22.767532 4.109913 50.946157 3.417984 71.3125-5.09375-4.387217 6.352052-6.223842 13.463734-6.65625 19.9375-.278127 4.163964.003 8.088332.46875 11.46875h4.03125c-.478649-3.261833-.772231-7.111813-.5-11.1875.630505-9.439547 4.067072-19.828268 15.34375-26.96875z" opacity=".1"/><path d="m58.762131 6.0005672c-3.948144 8.6918958-6.939911 17.6332118-8.924932 26.6435648-1.030338.819932-2.077285 1.586019-3.14998 2.362484-12.238252 8.858554-26.918727 14.646694-40.687219 14.306147v6.562455c12.183497 1.150198 20.288573 3.212063 25.806074 10.549922 5.457039 7.257449 8.512463 14.433774 8.512463 23.57486h4.199972c0-9.113789-3.95447-19.939986-9.299958-26.068593-5.282661-6.056575-11.954365-8.861708-20.949859-10.943669 12.029553-1.61056 23.97363-6.959214 34.256015-14.306147-2.965427 17.220461-2.482067 34.707976 1.181239 51.318409h29.006054c-14.493651-13.141151-20.763411-36.697159-20.737364-58.930857 8.172812-7.608091 14.524074-16.331024 17.849883-25.0685758h-4.46247c-2.765184 6.4004158-7.399954 12.9683648-13.256159 19.0311178.356571-6.698752 1.425235-13.11086 2.887481-19.0311178z" fill="url(#d)"/><path d="m58.75 6c-3.948144 8.691896-6.921229 17.645897-8.90625 26.65625-1.030338.819932-2.083555 1.567285-3.15625 2.34375-12.238252 8.858554-26.919008 14.653047-40.6875 14.3125v1c13.768492.340547 28.449248-5.453946 40.6875-14.3125 1.072695-.776465 2.125912-1.523818 3.15625-2.34375 1.985021-9.010353 4.958106-17.964354 8.90625-26.65625h2c.078988-.3329443.168512-.6700752.25-1zm12.625 0c-2.750591 6.366638-7.375043 12.901458-13.1875 18.9375-.02373.36488-.07423.727119-.09375 1.09375 5.856205-6.062753 10.516066-12.630834 13.28125-19.03125h4.03125c.13692-.3362341.278228-.6636598.40625-1zm-13.34375 29.25c.535584 20.715555 6.558943 42.08726 19.625 54.75h1.0625c-13.587798-12.319829-19.967068-33.793933-20.6875-54.75zm-9.5 4.4375c-.06075.04341-.126632.08173-.1875.125-1.048187 6.416674-1.61151 12.856525-1.71875 19.28125.156241-6.472447.794215-12.948577 1.90625-19.40625zm-31.78125 13.9375c-.822927.14489-1.644513.264648-2.46875.375 8.995494 2.081961 15.654839 4.880925 20.9375 10.9375 5.151143 5.90579 9.007425 16.168236 9.28125 25.0625h.03125c0-9.113789-3.967012-19.933893-9.3125-26.0625-4.780689-5.481063-10.720054-8.283337-18.46875-10.3125z" fill="#500" opacity=".6"/><path d="m60.75 7c-1.338401 5.641496-2.31955 11.705807-2.65625 18.03125.03091-.032.06291-.06173.09375-.09375.409835-6.301881 1.430284-12.341265 2.8125-17.9375zm14.65625 0c-3.420027 8.398562-9.579289 16.747272-17.4375 24.0625-.000389.331772-.0024.667678 0 1 8.172812-7.608091 14.517941-16.324948 17.84375-25.0625zm-26.875 31.6875c-10.282385 7.346933-22.220447 12.70194-34.25 14.3125.854775.197833 1.655137.411938 2.46875.625 11.11655-1.957259 22.058519-7.034282 31.59375-13.8125.0615-.376516.122704-.748727.1875-1.125zm-42.53125 17.1875v1c12.183497 1.150198 20.294999 3.224641 25.8125 10.5625 5.254879 6.988591 8.252476 13.898377 8.46875 22.5625h.03125c0-9.141086-3.042961-16.305051-8.5-23.5625-5.517501-7.337859-13.629003-9.412302-25.8125-10.5625zm40.625 8.6875c.143504 8.596273 1.109334 17.124462 2.875 25.4375h.21875c-1.831653-8.305217-2.885675-16.836759-3.09375-25.4375z" fill="#fefefe" opacity=".8"/></g><path d="m12 6c-3.324 0-6 2.676-6 6v2 68 2c0 .334721.04135.6507.09375.96875.0487.295596.09704.596915.1875.875.00988.03038.020892.0636.03125.09375.098865.287771.2348802.547452.375.8125.1445918.273507.3156161.535615.5.78125s.3737765.473472.59375.6875c.439947.428056.94291.814526 1.5 1.09375.278545.139612.5734731.246947.875.34375-.2562018-.100222-.4867109-.236272-.71875-.375-.00741-.0044-.023866.0045-.03125 0-.031933-.0193-.062293-.04251-.09375-.0625-.120395-.0767-.2310226-.163513-.34375-.25-.1061728-.0808-.2132809-.161112-.3125-.25-.1779299-.161433-.3474596-.345388-.5-.53125-.1075789-.130255-.2183939-.265285-.3125-.40625-.025089-.03838-.038446-.08587-.0625-.125-.064763-.103032-.1302275-.204517-.1875-.3125-.1010083-.194706-.2056748-.415701-.28125-.625-.00796-.02181-.023589-.04055-.03125-.0625-.0318251-.09195-.0358045-.186831-.0625-.28125-.0303323-.106618-.0703894-.203031-.09375-.3125-.0728786-.341512-.125-.698205-.125-1.0625v-2-68-2c0-2.781848 2.2181517-5 5-5h2 68 2c2.781848 0 5 2.218152 5 5v2 68 2c0 .364295-.05212.720988-.125 1.0625-.04415.206893-.08838.397658-.15625.59375-.0077.02195-.0233.04069-.03125.0625-.06274.173739-.138383.367449-.21875.53125-.04158.0828-.07904.169954-.125.25-.0546.09721-.126774.18835-.1875.28125-.09411.140965-.204921.275995-.3125.40625-.143174.17445-.303141.346998-.46875.5-.01117.0102-.01998.02115-.03125.03125-.138386.125556-.285091.234436-.4375.34375-.102571.07315-.204318.153364-.3125.21875-.0074.0045-.02384-.0044-.03125 0-.232039.138728-.462548.274778-.71875.375.301527-.0968.596455-.204138.875-.34375.55709-.279224 1.060053-.665694 1.5-1.09375.219973-.214028.409366-.441865.59375-.6875s.355408-.507743.5-.78125c.14012-.265048.276135-.524729.375-.8125.01041-.03078.02133-.06274.03125-.09375.09046-.278085.1388-.579404.1875-.875.0524-.31805.09375-.634029.09375-.96875v-2-68-2c0-3.324-2.676-6-6-6z" fill="url(#c)" opacity=".5"/><path d="m12 90c-3.324 0-6-2.676-6-6v-2-68-2c0-.334721.04135-.6507.09375-.96875.0487-.295596.09704-.596915.1875-.875.00988-.03038.020892-.0636.03125-.09375.098865-.287771.2348802-.547452.375-.8125.1445918-.273507.3156161-.535615.5-.78125s.3737765-.473472.59375-.6875c.439947-.428056.94291-.814526 1.5-1.09375.278545-.139612.5734731-.246947.875-.34375-.2562018.100222-.4867109.236272-.71875.375-.00741.0044-.023866-.0045-.03125 0-.031933.0193-.062293.04251-.09375.0625-.120395.0767-.2310226.163513-.34375.25-.1061728.0808-.2132809.161112-.3125.25-.1779299.161433-.3474596.345388-.5.53125-.1075789.130255-.2183939.265285-.3125.40625-.025089.03838-.038446.08587-.0625.125-.064763.103032-.1302275.204517-.1875.3125-.1010083.194706-.2056748.415701-.28125.625-.00796.02181-.023589.04055-.03125.0625-.0318251.09195-.0358045.186831-.0625.28125-.0303323.106618-.0703894.203031-.09375.3125-.0728786.341512-.125.698205-.125 1.0625v2 68 2c0 2.781848 2.2181517 5 5 5h2 68 2c2.781848 0 5-2.218152 5-5v-2-68-2c0-.364295-.05212-.720988-.125-1.0625-.04415-.206893-.08838-.397658-.15625-.59375-.0077-.02195-.0233-.04069-.03125-.0625-.06274-.173739-.138383-.367449-.21875-.53125-.04158-.0828-.07904-.169954-.125-.25-.0546-.09721-.126774-.18835-.1875-.28125-.09411-.140965-.204921-.275995-.3125-.40625-.143174-.17445-.303141-.346998-.46875-.5-.01117-.0102-.01998-.02115-.03125-.03125-.138386-.125556-.285091-.234436-.4375-.34375-.102571-.07315-.204318-.153364-.3125-.21875-.0074-.0045-.02384.0044-.03125 0-.232039-.138728-.462548-.274778-.71875-.375.301527.0968.596455.204138.875.34375.55709.279224 1.060053.665694 1.5 1.09375.219973.214028.409366.441865.59375.6875s.355408.507743.5.78125c.14012.265048.276135.524729.375.8125.01041.03078.02133.06274.03125.09375.09046.278085.1388.579404.1875.875.0524.31805.09375.634029.09375.96875v2 68 2c0 3.324-2.676 6-6 6z" fill="url(#h)" opacity=".3"/><path d="m-39.050848 7.4237284h72c3.324 0 6 2.6759996 6 5.9999996v34h-84v-34c0-3.324 2.676-5.9999996 6-5.9999996z" fill="#54676a" transform="translate(51.050848 -1.423728)"/><path d="m86.745762 72.644068v2h-83.9999995v-2z" fill="#0ff" transform="translate(3.254238 -28.644068)"/><path d="m86.745762 72.644068v2h-83.9999995v-2z" fill="url(#l)" opacity=".997" transform="matrix(1 0 0 -14.220339 3.254238 1107.464)"/></svg>