<svg height="96" width="96" xmlns="http://www.w3.org/2000/svg" xmlns:xlink="http://www.w3.org/1999/xlink"><linearGradient id="a"><stop offset="0" stop-color="#fefefe"/><stop offset="1" stop-color="#fefefe" stop-opacity="0"/></linearGradient><linearGradient id="b" gradientUnits="userSpaceOnUse" x1="36.357143" x2="36.357143" xlink:href="#a" y1="6" y2="63.893143"/><linearGradient id="c" gradientUnits="userSpaceOnUse" x1="48" x2="48" y1="90" y2="5.987717"><stop offset="0" stop-color="#b4b4b4"/><stop offset="1" stop-color="#e6e6e6"/></linearGradient><radialGradient id="d" cx="47.098362" cy="78.286942" gradientTransform="matrix(1.3830053 -.00000001 0 1.3123934 -18.038924 -24.218731)" gradientUnits="userSpaceOnUse" r="38.957481"><stop offset="0" stop-color="#509363"/><stop offset="1" stop-color="#162817"/></radialGradient><linearGradient id="e" gradientUnits="userSpaceOnUse" x1="43.03676446513" x2="43.03676446513" y1="11.9705884" y2="84.33264926334"><stop offset="0" stop-color="#919191"/><stop offset="1" stop-color="#fdfdfd"/></linearGradient><radialGradient id="f" cx="48" cy="90.171875" gradientTransform="matrix(1.1573129 0 0 .99590774 -7.551021 .197132)" gradientUnits="userSpaceOnUse" r="42" xlink:href="#a"/><clipPath id="g"><rect height="84" rx="6" width="84" x="6" y="6"/></clipPath><filter id="h" color-interpolation-filters="sRGB" height="1.384" width="1.384" x="-.192" y="-.192"><feGaussianBlur stdDeviation="5.28"/></filter><linearGradient id="i" gradientUnits="userSpaceOnUse" x1="48" x2="48" xlink:href="#a" y1="20.220806" y2="138.66119"/><linearGradient id="j" gradientTransform="matrix(1.0058652 0 0 .994169 100 0)" gradientUnits="userSpaceOnUse" x1="45.447727" x2="45.447727" y1="92.539597" y2="7.01654"><stop offset="0"/><stop offset="1" stop-opacity=".588235"/></linearGradient><linearGradient id="k" gradientTransform="matrix(1.0238095 0 0 1.0119048 -1.142857 -98.071429)" gradientUnits="userSpaceOnUse" x1="32.251034" x2="32.251034" xlink:href="#j" y1="6.131708" y2="90.238609"/><linearGradient id="l" gradientTransform="translate(0 -97)" gradientUnits="userSpaceOnUse" x1="32.251034" x2="32.251034" xlink:href="#j" y1="6.131708" y2="90.238609"/><radialGradient id="m" cx="15.987216" cy="1.535031" gradientTransform="matrix(0 2.3781771 1.8586888 0 33.409687 -10.895546)" gradientUnits="userSpaceOnUse" r="17.171415" xlink:href="#a"/><linearGradient id="n" gradientTransform="matrix(2.5383404 0 0 2.599583 -541.52632 -1088.9373)" gradientUnits="userSpaceOnUse" x1="240.23456" x2="231.7753" y1="425.79779" y2="438.08429"><stop offset="0" stop-color="#fefefe" stop-opacity=".755396"/><stop offset="1" stop-color="#fefefe" stop-opacity="0"/></linearGradient><linearGradient id="o" gradientTransform="matrix(2.6134036 0 0 1.8943737 -5.262582 5.678489)" gradientUnits="userSpaceOnUse" x1="11.492236" x2="17.199417" y1="1.653758" y2="26.729263"><stop offset="0" stop-color="#fefefe"/><stop offset="1" stop-color="#fcfcff" stop-opacity="0"/></linearGradient><clipPath id="p"><path d="m37.84375 11c-3.242433 0-5.84375 2.767499-5.84375 6.1875v45.625c0 3.420001 2.601317 6.1875 5.84375 6.1875h47.3125c3.24243 0 5.84375-2.767499 5.84375-6.1875v-45.625c0-3.420001-2.60132-6.1875-5.84375-6.1875zm12.59375 13.3125h19.09375v14.09375h8.15625l-17.53125 20.28125-17.84375-20.28125h8.125z"/></clipPath><g><g fill="url(#k)"><path d="m12-95.03125c-5.5110903 0-10.03125 4.52016-10.03125 10.03125v71c0 5.5110902 4.5201598 10.03125 10.03125 10.03125h72c5.51109 0 10.03125-4.5201597 10.03125-10.03125v-71c0-5.51109-4.52016-10.03125-10.03125-10.03125z" opacity=".08" transform="scale(1 -1)"/><path d="m12-94.03125c-4.971633 0-9.03125 4.059617-9.03125 9.03125v71c0 4.9716329 4.0596171 9.03125 9.03125 9.03125h72c4.971633 0 9.03125-4.059617 9.03125-9.03125v-71c0-4.971633-4.059617-9.03125-9.03125-9.03125z" opacity=".1" transform="scale(1 -1)"/><path d="m12-93c-4.4091333 0-8 3.590867-8 8v71c0 4.4091333 3.5908667 8 8 8h72c4.409133 0 8-3.5908667 8-8v-71c0-4.409133-3.590867-8-8-8z" opacity=".2" transform="scale(1 -1)"/><rect height="85" opacity=".3" rx="7" transform="scale(1 -1)" width="86" x="5" y="-92"/></g><rect fill="url(#l)" height="84" opacity=".45" rx="6" transform="scale(1 -1)" width="84" x="6" y="-91"/></g><rect fill="url(#d)" height="78.516495" rx="5.852768" ry="6.173287" width="77.914963" x="8.140881" y="8.254433"/><path d="m13.145607 10.607082c-1.106267 0-3.327307.402007-3.327307 2.169025l.249591 40.918273c37.361042-2.03677 29.861931-17.454499 75.750409-25.177718l-.132658-15.179438c-.165319-2.378617-1.140177-2.604419-3.404039-2.590427l-69.135916-.139514z" fill="url(#o)" fill-rule="evenodd" opacity=".3"/><path d="m24 54v4.002171l8.011647 3.093117-8.011647 3.03247v3.872242l11.946726-4.916475.053274-3.842105z" fill="#fefefe"/><path d="m36 68v4h12v-4z" fill="#fefefe"/><path d="m19 13c-3.289406 0-6 2.710594-6 6v58c0 3.289406 2.710594 6 6 6h58c3.289406 0 6-2.710594 6-6v-58c0-3.289406-2.710594-6-6-6zm0 4h58c1.142594 0 2 .857406 2 2v58c0 1.142594-.857406 2-2 2h-58c-1.142594 0-2-.857406-2-2v-58c0-1.142594.857406-2 2-2z" opacity=".15"/><g clip-path="url(#p)" fill="#fd5" fill-rule="evenodd" transform="translate(-2)"><path d="m50.0625 22.125a1.3983608 1.3983608 0 0 0 -.03125.03125c-1.054274.126973-1.917362.815244-2.34375 1.59375-.388738.709764-.451621 1.489362-.375 2.25h-.0625v10.21875c-1.792654-.0074-3.604683-.06137-5.5.0625a1.3983608 1.3983608 0 0 0 -.21875.03125c-2.455761.546639-3.118455 3.730923-1.34375 5.375l-.0625.03125c5.931047 6.73125 11.829076 13.492032 17.78125 20.21875a1.3983608 1.3983608 0 0 0 .09375.0625c1.480842 1.410044 3.729893.905048 4.78125-.65625l.03125.03125c5.787347-6.710339 11.646407-13.382497 17.40625-20.125a1.3983608 1.3983608 0 0 0 .0625-.0625c1.566108-2.123435-.278192-5.097545-2.8125-4.90625v-.0625h-4.75c-.0046-3.739944.03483-7.512036-.03125-11.28125a1.3983608 1.3983608 0 0 0 -.03125-.21875c-.167604-.964706-.801883-1.737419-1.53125-2.15625-.662503-.380435-1.408245-.450506-2.15625-.375v-.0625h-18.78125a1.3983608 1.3983608 0 0 0 -.125 0z" opacity=".05"/><path d="m50.1875 23.53125c-1.183065.142484-1.695104 1.399995-1.53125 2.464337v11.629413c-2.26814.04271-4.557246-.08489-6.8125.0625-1.375147.3061-1.75829 2.237099-.668993 3.100644 5.934087 6.7347 11.846163 13.490047 17.793993 20.211856.834797.794886 2.242953.456078 2.784432-.516041 5.792782-6.716641 11.651505-13.407398 17.403068-20.140209.860386-1.166569-.278806-2.918751-1.686029-2.71875-2.052574 0-4.105147 0-6.157721 0-.02147-4.216957.04253-8.447783-.03125-12.65625-.184636-1.062741-1.323099-1.600059-2.324448-1.4375-6.256434 0-12.512868 0-18.769302 0z" opacity=".08"/><path d="m50.4375 24.46875a.82887694.82887694 0 0 0 -.84375.84375v13.25h-7.28125a.82887694.82887694 0 0 0 -.625 1.40625l17.84375 20.28125a.82887694.82887694 0 0 0 1.25-.03125l17.53125-20.28125a.82887694.82887694 0 0 0 -.625-1.375h-7.3125v-13.25a.82887694.82887694 0 0 0 -.84375-.84375z" opacity=".15"/><path d="m69.531836 25.308077-19.09441-.0051v14.097051l-8.134468.01821 17.844862 20.278828 17.549222-20.283896-8.162008-.0051-.0025-14.099496z" opacity=".3"/></g><path d="m17 14c-1.662 0-3 1.338-3 3v62c0 1.662 1.338 3 3 3h62c1.662 0 3-1.338 3-3v-62c0-1.662-1.338-3-3-3zm0 1.9375h62c.618163 0 1.0625.444337 1.0625 1.0625v62c0 .618163-.444337 1.0625-1.0625 1.0625h-62c-.618163 0-1.0625-.444337-1.0625-1.0625v-62c0-.618163.444337-1.0625 1.0625-1.0625z" opacity=".3"/><path d="m17 14c-1.662 0-3 1.338-3 3v62c0 1.662 1.338 3 3 3h62c1.662 0 3-1.338 3-3v-62c0-1.662-1.338-3-3-3zm0 .96875h62c1.140081 0 2.03125.891169 2.03125 2.03125v62c0 1.140081-.891169 2.03125-2.03125 2.03125h-62c-1.140081 0-2.03125-.891169-2.03125-2.03125v-62c0-1.140081.891169-2.03125 2.03125-2.03125z" opacity=".6"/><path d="m67.531836 24.308077-19.09441-.0051v14.097051l-8.134468.01821 17.844862 20.278828 17.549222-20.283896-8.162008-.0051-.0025-14.099496z" fill="url(#n)" fill-rule="evenodd" stroke="#fea" stroke-miterlimit="10" stroke-width=".605916"/><path d="m48.453734 24.29115v14.115466h-8.137294l7.856698 8.908356c5.618905-11.334808 16.857741-2.861348 17.958166-23.023822z" fill="url(#m)" fill-rule="evenodd" opacity=".508021"/><g><path d="m12 6c-3.324 0-6 2.676-6 6v72c0 3.324 2.676 6 6 6h72c3.324 0 6-2.676 6-6v-72c0-3.324-2.676-6-6-6zm5 7h62c2.216001 0 4 1.784 4 4v62c.000001 2.216001-1.784 4-4 4h-62c-2.215999.000001-4-1.784-4-4v-62c0-2.215999 1.784-4 4-4z" fill="url(#c)"/><path d="m12 6c-3.324 0-6 2.676-6 6v2 68 2c0 .334721.04135.6507.09375.96875.0487.295596.09704.596915.1875.875.00988.03038.020892.0636.03125.09375.098865.287771.2348802.547452.375.8125.1445918.273507.3156161.535615.5.78125s.3737765.473472.59375.6875c.439947.428056.94291.814526 1.5 1.09375.278545.139612.5734731.246947.875.34375-.2562018-.100222-.4867109-.236272-.71875-.375-.00741-.0044-.023866.0045-.03125 0-.031933-.0193-.062293-.04251-.09375-.0625-.120395-.0767-.2310226-.163513-.34375-.25-.1061728-.0808-.2132809-.161112-.3125-.25-.1779299-.161433-.3474596-.345388-.5-.53125-.1075789-.130255-.2183939-.265285-.3125-.40625-.025089-.03838-.038446-.08587-.0625-.125-.064763-.103032-.1302275-.204517-.1875-.3125-.1010083-.194706-.2056748-.415701-.28125-.625-.00796-.02181-.023589-.04055-.03125-.0625-.0318251-.09195-.0358045-.186831-.0625-.28125-.0303323-.106618-.0703894-.203031-.09375-.3125-.0728786-.341512-.125-.698205-.125-1.0625v-2-68-2c0-2.781848 2.2181517-5 5-5h2 68 2c2.781848 0 5 2.218152 5 5v2 68 2c0 .364295-.05212.720988-.125 1.0625-.04415.206893-.08838.397658-.15625.59375-.0077.02195-.0233.04069-.03125.0625-.06274.173739-.138383.367449-.21875.53125-.04158.0828-.07904.169954-.125.25-.0546.09721-.126774.18835-.1875.28125-.09411.140965-.204921.275995-.3125.40625-.143174.17445-.303141.346998-.46875.5-.01117.0102-.01998.02115-.03125.03125-.138386.125556-.285091.234436-.4375.34375-.102571.07315-.204318.153364-.3125.21875-.0074.0045-.02384-.0044-.03125 0-.232039.138728-.462548.274778-.71875.375.301527-.0968.596455-.204138.875-.34375.55709-.279224 1.060053-.665694 1.5-1.09375.219973-.214028.409366-.441865.59375-.6875s.355408-.507743.5-.78125c.14012-.265048.276135-.524729.375-.8125.01041-.03078.02133-.06274.03125-.09375.09046-.278085.1388-.579404.1875-.875.0524-.31805.09375-.634029.09375-.96875v-2-68-2c0-3.324-2.676-6-6-6z" fill="url(#b)" opacity=".5"/><path d="m17 12c-2.752703 0-5 2.247297-5 5v62c0 2.752703 2.247298 5 5 5h62c2.752703 0 5.000001-2.247297 5-5v-62c0-2.752703-2.247297-5-5-5zm0 2h62c1.679298 0 3 1.320703 3 3v62c.000001 1.679297-1.320703 3-3 3h-62c-1.679296 0-3-1.320703-3-3v-62c0-1.679297 1.320703-3 3-3z" fill="url(#e)"/><path d="m12 90c-3.324 0-6-2.676-6-6v-2-68-2c0-.334721.04135-.6507.09375-.96875.0487-.295596.09704-.596915.1875-.875.00988-.03038.020892-.0636.03125-.09375.098865-.287771.2348802-.547452.375-.8125.1445918-.273507.3156161-.535615.5-.78125s.3737765-.473472.59375-.6875c.439947-.428056.94291-.814526 1.5-1.09375.278545-.139612.5734731-.246947.875-.34375-.2562018.100222-.4867109.236272-.71875.375-.00741.0044-.023866-.0045-.03125 0-.031933.0193-.062293.04251-.09375.0625-.120395.0767-.2310226.163513-.34375.25-.1061728.0808-.2132809.161112-.3125.25-.1779299.161433-.3474596.345388-.5.53125-.1075789.130255-.2183939.265285-.3125.40625-.025089.03838-.038446.08587-.0625.125-.064763.103032-.1302275.204517-.1875.3125-.1010083.194706-.2056748.415701-.28125.625-.00796.02181-.023589.04055-.03125.0625-.0318251.09195-.0358045.186831-.0625.28125-.0303323.106618-.0703894.203031-.09375.3125-.0728786.341512-.125.698205-.125 1.0625v2 68 2c0 2.781848 2.2181517 5 5 5h2 68 2c2.781848 0 5-2.218152 5-5v-2-68-2c0-.364295-.05212-.720988-.125-1.0625-.04415-.206893-.08838-.397658-.15625-.59375-.0077-.02195-.0233-.04069-.03125-.0625-.06274-.173739-.138383-.367449-.21875-.53125-.04158-.0828-.07904-.169954-.125-.25-.0546-.09721-.126774-.18835-.1875-.28125-.09411-.140965-.204921-.275995-.3125-.40625-.143174-.17445-.303141-.346998-.46875-.5-.01117-.0102-.01998-.02115-.03125-.03125-.138386-.125556-.285091-.234436-.4375-.34375-.102571-.07315-.204318-.153364-.3125-.21875-.0074-.0045-.02384.0044-.03125 0-.232039-.138728-.462548-.274778-.71875-.375.301527.0968.596455.204138.875.34375.55709.279224 1.060053.665694 1.5 1.09375.219973.214028.409366.441865.59375.6875s.355408.507743.5.78125c.14012.265048.276135.524729.375.8125.01041.03078.02133.06274.03125.09375.09046.278085.1388.579404.1875.875.0524.31805.09375.634029.09375.96875v2 68 2c0 3.324-2.676 6-6 6z" fill="url(#f)" opacity=".4"/><rect height="66" rx="12" style="opacity:.1;stroke:#fefefe;stroke-width:.5;stroke-linecap:round;clip-path:url(#g);fill:url(#i);filter:url(#h)" width="66" x="15" y="15"/></g></svg>