<svg height="96" width="96" xmlns="http://www.w3.org/2000/svg" xmlns:xlink="http://www.w3.org/1999/xlink"><linearGradient id="a"><stop offset="0" stop-color="#fefefe"/><stop offset="1" stop-color="#fefefe" stop-opacity="0"/></linearGradient><linearGradient id="b" gradientUnits="userSpaceOnUse" x1="36.357143" x2="36.357143" xlink:href="#a" y1="6" y2="63.893143"/><filter id="c" color-interpolation-filters="sRGB" height="1.384" width="1.384" x="-.192" y="-.192"><feGaussianBlur stdDeviation="5.28"/></filter><linearGradient id="d" gradientUnits="userSpaceOnUse" x1="48" x2="48" xlink:href="#a" y1="20.220806" y2="138.66119"/><radialGradient id="e" cx="48" cy="90.171875" gradientTransform="matrix(1.1573129 0 0 .99590774 -7.551021 .197132)" gradientUnits="userSpaceOnUse" r="42" xlink:href="#a"/><clipPath id="f"><rect height="84" rx="6" width="84" x="6" y="6"/></clipPath><linearGradient id="g" gradientUnits="userSpaceOnUse" x1="48" x2="48" y1="90" y2="5.987717"><stop offset="0" stop-color="#0075ab"/><stop offset="1" stop-color="#08b1ff"/></linearGradient><linearGradient id="h" gradientTransform="matrix(1.0058652 0 0 .994169 100 0)" gradientUnits="userSpaceOnUse" x1="45.447727" x2="45.447727" y1="92.539597" y2="7.01654"><stop offset="0"/><stop offset="1" stop-opacity=".588235"/></linearGradient><linearGradient id="i" gradientTransform="matrix(1.0238095 0 0 1.0119048 -1.142857 -98.071429)" gradientUnits="userSpaceOnUse" x1="32.251034" x2="32.251034" xlink:href="#h" y1="6.131708" y2="90.238609"/><linearGradient id="j" gradientTransform="translate(0 -97)" gradientUnits="userSpaceOnUse" x1="32.251034" x2="32.251034" xlink:href="#h" y1="6.131708" y2="90.238609"/><radialGradient id="k" cx="64" cy="28.078852" gradientTransform="matrix(1.1046386 .00000004 -.00000008 2.1925943 -6.696869 -37.565534)" gradientUnits="userSpaceOnUse" r="14.484375"><stop offset="0" stop-color="#595553"/><stop offset="1" stop-color="#2f2a27"/></radialGradient><radialGradient id="l" cx="44" cy="44" gradientUnits="userSpaceOnUse" r="2"><stop offset="0" stop-color="#fefefe"/><stop offset=".78125" stop-color="#fefefe"/><stop offset="1" stop-color="#fefefe" stop-opacity="0"/></radialGradient><linearGradient id="m" gradientUnits="userSpaceOnUse" x1="55" x2="55" y1="79" y2="31"><stop offset="0" stop-color="#b9da5b"/><stop offset="1" stop-color="#a3ce27"/></linearGradient><g fill="url(#i)"><path d="m12-95.03125c-5.5110903 0-10.03125 4.52016-10.03125 10.03125v71c0 5.5110902 4.5201598 10.03125 10.03125 10.03125h72c5.51109 0 10.03125-4.5201597 10.03125-10.03125v-71c0-5.51109-4.52016-10.03125-10.03125-10.03125z" opacity=".08" transform="scale(1 -1)"/><path d="m12-94.03125c-4.971633 0-9.03125 4.059617-9.03125 9.03125v71c0 4.9716329 4.0596171 9.03125 9.03125 9.03125h72c4.971633 0 9.03125-4.059617 9.03125-9.03125v-71c0-4.971633-4.059617-9.03125-9.03125-9.03125z" opacity=".1" transform="scale(1 -1)"/><path d="m12-93c-4.4091333 0-8 3.590867-8 8v71c0 4.4091333 3.5908667 8 8 8h72c4.409133 0 8-3.5908667 8-8v-71c0-4.409133-3.590867-8-8-8z" opacity=".2" transform="scale(1 -1)"/><rect height="85" opacity=".3" rx="7" transform="scale(1 -1)" width="86" x="5" y="-92"/></g><rect fill="url(#j)" height="84" opacity=".45" rx="6" transform="scale(1 -1)" width="84" x="6" y="-91"/><rect fill="url(#g)" height="84" rx="6" width="84" x="6" y="6"/><path d="m12 6c-3.324 0-6 2.676-6 6v2 68 2c0 .334721.04135.6507.09375.96875.0487.295596.09704.596915.1875.875.00988.03038.020892.0636.03125.09375.098865.287771.2348802.547452.375.8125.1445918.273507.3156161.535615.5.78125s.3737765.473472.59375.6875c.439947.428056.94291.814526 1.5 1.09375.278545.139612.5734731.246947.875.34375-.2562018-.100222-.4867109-.236272-.71875-.375-.00741-.0044-.023866.0045-.03125 0-.031933-.0193-.062293-.04251-.09375-.0625-.120395-.0767-.2310226-.163513-.34375-.25-.1061728-.0808-.2132809-.161112-.3125-.25-.1779299-.161433-.3474596-.345388-.5-.53125-.1075789-.130255-.2183939-.265285-.3125-.40625-.025089-.03838-.038446-.08587-.0625-.125-.064763-.103032-.1302275-.204517-.1875-.3125-.1010083-.194706-.2056748-.415701-.28125-.625-.00796-.02181-.023589-.04055-.03125-.0625-.0318251-.09195-.0358045-.186831-.0625-.28125-.0303323-.106618-.0703894-.203031-.09375-.3125-.0728786-.341512-.125-.698205-.125-1.0625v-2-68-2c0-2.781848 2.2181517-5 5-5h2 68 2c2.781848 0 5 2.218152 5 5v2 68 2c0 .364295-.05212.720988-.125 1.0625-.04415.206893-.08838.397658-.15625.59375-.0077.02195-.0233.04069-.03125.0625-.06274.173739-.138383.367449-.21875.53125-.04158.0828-.07904.169954-.125.25-.0546.09721-.126774.18835-.1875.28125-.09411.140965-.204921.275995-.3125.40625-.143174.17445-.303141.346998-.46875.5-.01117.0102-.01998.02115-.03125.03125-.138386.125556-.285091.234436-.4375.34375-.102571.07315-.204318.153364-.3125.21875-.0074.0045-.02384-.0044-.03125 0-.232039.138728-.462548.274778-.71875.375.301527-.0968.596455-.204138.875-.34375.55709-.279224 1.060053-.665694 1.5-1.09375.219973-.214028.409366-.441865.59375-.6875s.355408-.507743.5-.78125c.14012-.265048.276135-.524729.375-.8125.01041-.03078.02133-.06274.03125-.09375.09046-.278085.1388-.579404.1875-.875.0524-.31805.09375-.634029.09375-.96875v-2-68-2c0-3.324-2.676-6-6-6z" fill="url(#b)" opacity=".5"/><path d="m12 90c-3.324 0-6-2.676-6-6v-2-68-2c0-.334721.04135-.6507.09375-.96875.0487-.295596.09704-.596915.1875-.875.00988-.03038.020892-.0636.03125-.09375.098865-.287771.2348802-.547452.375-.8125.1445918-.273507.3156161-.535615.5-.78125s.3737765-.473472.59375-.6875c.439947-.428056.94291-.814526 1.5-1.09375.278545-.139612.5734731-.246947.875-.34375-.2562018.100222-.4867109.236272-.71875.375-.00741.0044-.023866-.0045-.03125 0-.031933.0193-.062293.04251-.09375.0625-.120395.0767-.2310226.163513-.34375.25-.1061728.0808-.2132809.161112-.3125.25-.1779299.161433-.3474596.345388-.5.53125-.1075789.130255-.2183939.265285-.3125.40625-.025089.03838-.038446.08587-.0625.125-.064763.103032-.1302275.204517-.1875.3125-.1010083.194706-.2056748.415701-.28125.625-.00796.02181-.023589.04055-.03125.0625-.0318251.09195-.0358045.186831-.0625.28125-.0303323.106618-.0703894.203031-.09375.3125-.0728786.341512-.125.698205-.125 1.0625v2 68 2c0 2.781848 2.2181517 5 5 5h2 68 2c2.781848 0 5-2.218152 5-5v-2-68-2c0-.364295-.05212-.720988-.125-1.0625-.04415-.206893-.08838-.397658-.15625-.59375-.0077-.02195-.0233-.04069-.03125-.0625-.06274-.173739-.138383-.367449-.21875-.53125-.04158-.0828-.07904-.169954-.125-.25-.0546-.09721-.126774-.18835-.1875-.28125-.09411-.140965-.204921-.275995-.3125-.40625-.143174-.17445-.303141-.346998-.46875-.5-.01117-.0102-.01998-.02115-.03125-.03125-.138386-.125556-.285091-.234436-.4375-.34375-.102571-.07315-.204318-.153364-.3125-.21875-.0074-.0045-.02384.0044-.03125 0-.232039-.138728-.462548-.274778-.71875-.375.301527.0968.596455.204138.875.34375.55709.279224 1.060053.665694 1.5 1.09375.219973.214028.409366.441865.59375.6875s.355408.507743.5.78125c.14012.265048.276135.524729.375.8125.01041.03078.02133.06274.03125.09375.09046.278085.1388.579404.1875.875.0524.31805.09375.634029.09375.96875v2 68 2c0 3.324-2.676 6-6 6z" fill="url(#e)" opacity=".2"/><rect height="66" rx="12" style="opacity:.1;stroke:#fefefe;stroke-width:.5;stroke-linecap:round;clip-path:url(#f);fill:url(#d);filter:url(#c)" width="66" x="15" y="15"/><path d="m45.6875 10.09375c-1.946606.210341-2.920869 2.237605-2.59375 4.0625-.06329 3.435237.126084 7.05259-.09375 10.375-9.474909 1.376108-17.486201 9.297773-19.34375 18.5625-.952364 4.044864-.700578 9.322079 1.028415 13.5308 3.277329 8.745519 12.060823 15.066251 21.409085 15.31295.07008 4.557204-.135373 9.151955.09375 13.6875 1.627452-.291812-.441876-.17144.25.6875.812366 1.75896 3.100354 1.856047 4.737995 1.265294 11.277405-1.99797 20.16897-12.855131 19.699505-24.327794.036994-11.87482.082656-23.785219-.024139-35.670038-.538587-9.800264-9.72635-18.039131-19.533182-17.486212-1.876724 0-3.753465 0-5.630179 0zm.5 75.53125c-1.145283-2.139005-2.568729-4.816595-3.820912-7.162583-14.122196-26.487473-28.244392-52.974945-42.366588-79.462417 15.395833 28.875 30.791667 57.75 46.1875 86.625z" opacity=".08"/><path d="m45.78125 12a.98812041.98812041 0 0 0 -.15625.03125c-.000121.000022-.156132.03122-.15625.03125-.000118.000033-.156135.06246-.15625.0625-.000115.000043-.187389.06245-.1875.0625-.000111.000053-.156144.09369-.15625.09375-.000106.000063-.1249.09368-.125.09375-.0001.000072-.156157.09367-.15625.09375s-.124914.124912-.125.125-.09367.124905-.09375.125c-.000077.000095-.124931.156148-.125.15625s-.09369.156142-.09375.15625-.06245.156138-.0625.15625-.06246.156134-.0625.15625-.06247.156131-.0625.15625c-.000029.000119-.03123.187379-.03125.1875-.000019.000121.000008.156127 0 .15625-.000007.000103-.03046.116428-.03125.15625-.000152.0077 0 .03123 0 .03125v1.125 3.84375 7.25c-.147239.02007-.301275.05176-.375.0625-.04952.0073-.09653.02857-.125.03125-.04889.0046-.06882-.01562-.21875.03125-.01227.0038-.02952.01736-.0625.03125-.01374.0058-.01836-.0055-.03125 0-.02701.0071-.06537.02225-.09375.03125-.01774.0056-.03745-.0093-.0625 0-.173816.02462-.354314.03824-.625.09375-.267634.05454-.62386.102278-.96875.1875-.669774.166284-1.288414.368443-1.9375.59375.207001-.07185-.06551-.0035-.25.0625-.0051.0018.0049.02946 0 .03125-.06667.02411-.113854.0133-.15625.03125-.02277.0096-.03854.01988-.0625.03125-.01198.0057-.01916.0073-.0625.03125-.01084.006-.06238.03117-.0625.03125-.421299.159932-.846885.320309-1.25.5-.41998.187411-.72487.39287-.9375.5-.209833.105745-.561648.229123-.9375.4375-.01035.0057-.02083-.0059-.03125 0-.401192.228304-.719369.476663-.90625.59375-.302681.189599-.618473.413475-.96875.65625-.02419.01059-.06975.01975-.09375.03125-.02625.01847-.03597.04356-.0625.0625a.98812041.98812041 0 0 0 -.09375.0625c-.06911.04094-.139903.0671-.21875.125-.432509.318091-.834121.646461-1.25 1-.01068.0091-.11238.06377-.21875.15625-.447675.389485-.807502.806743-1.15625 1.15625-.40453.405435-.840334.800898-1.25 1.28125-.175526.205642-.345438.417238-.4375.53125-.254687.315576-.383593.584446-.4375.65625-.293672.391324-.636921.818483-.9375 1.28125-.384052.591285-.710341 1.172697-1.03125 1.78125-.129526.245988-.195862.452638-.25.5625-.205364.416273-.423571.858339-.625 1.34375.0037-.0089-.05339.05281-.15625.3125-.467966 1.18033-.854187 2.410494-1.125 3.6875-.0085.03985.0062.02851 0 .0625.00074.0063-.02767.04713-.03125.0625-.0038.02644-.007.127954 0 .09375-.0068.03184-.02357.05501-.03125.09375-.007.03505.0064.05954 0 .09375-.06396.339561-.11497.635505-.15625.90625-.0074.04879-.104965.367527-.15625.8125-.01345.116753-.02162.248777-.03125.34375-.0027.02723.0021.04 0 .0625-.0023.02532-.02962.04193-.03125.0625-.0031.03885-.01217-.04765 0 .1875.000761.0147-.000026.06227 0 .0625-.018.266893-.05126.527673-.0625.75-.019359.382896-.03125.810025-.03125 1.21875 0 12.692585 10.326183 23.0625 23 23.0625.0454 0 .08016.000436.125 0-.000036.000105-.06247.156143-.0625.15625-.000028.000107-.03123.124891-.03125.125-.000019.000109.000011.15614 0 .15625s-.03125.156139-.03125.15625a.98812041.98812041 0 0 0 0 .03125v13.21875.03125c.0003.02996-.000002.09369 0 .09375.000003.000075.03124.09368.03125.09375.000007.000075-.000011.124926 0 .125s.03124.09368.03125.09375c.000015.000073-.000019.09368 0 .09375.000019.000072.03123.124929.03125.125.000023.000071.03122.09368.03125.09375.000026.00007.06247.09368.0625.09375.00003.000069.03122.09368.03125.09375.000034.000067.06246.09368.0625.09375.000037.000065.06246.09369.0625.09375.000041.000063.06246.09369.0625.09375.000044.000061.06245.09369.0625.09375.000047.000058.06245.06244.0625.0625.00005.000055.06245.0937.0625.09375.000053.000053.09369.06245.09375.0625.000056.00005.06244.06245.0625.0625.000059.000047.09369.06246.09375.0625.000061.000043.09369.06246.09375.0625.000063.00004.09369.06246.09375.0625.000065.000037.09368.03122.09375.03125.000067.000033.09368.06247.09375.0625.000069.000029.09368.03122.09375.03125.00007.000026.09368.03123.09375.03125.000072.000022.124927.03123.125.03125.000073.000018.09368.03124.09375.03125.000074.000014.09368-.00001.09375 0 .000074.00001.124925.03124.125.03125.000075.000006.09367-.000002.09375 0 .000075.000002.09367.000002.09375 0 .000075-.000002.124925.000006.125 0s.09368-.03124.09375-.03125c11.676269-1.358855 20.75-11.300718 20.75-23.34375 0-.146933-.02115-.158607-.03125-.21875.000006-.000088 0-.124912 0-.125-.000239.000848-.000282-.03471 0-.03125a.98812041.98812041 0 0 0 .03125-.15625v-15.03125-19.03125c0-9.925698-8.089482-18.03125-18-18.03125h-5.96875c-.000026-.000001-.01927.000001-.03125 0-.02395-.000001-.0266 0-.0625 0-.000053-.000002-.0266 0-.0625 0-.05385-.000001-.09367-.000004-.09375 0z" opacity=".1" transform="translate(0 -1)"/><path d="m45.90625 13a.99219516.99219516 0 0 0 -.90625 1v1.15625 3.84375 8.15625c-.257941.01928-.515337.02886-.78125.0625-.176291.02221-.332227.04716-.4375.0625-.23128.03402-.266937.053-.125.03125-.218686.03324-.300729.06574-.28125.0625-.226078.03783-.484885.06423-.78125.125-.289096.05891-.610003.114298-.90625.1875-.636608.15805-1.248439.345012-1.875.5625-.03344.01161-.121611.02773-.21875.0625-.11658.04172-.162265.06471-.15625.0625-.461987.169524-.92489.361861-1.375.5625-.349952.156162-.637273.33323-.90625.46875-.278583.140391-.596337.263123-.90625.4375-.347926.195649-.624878.40579-.875.5625-.349794.219111-.708801.443967-1.09375.71875.02471-.01761-.09022.01598-.28125.15625-.410335.301783-.81759.627723-1.21875.96875-.0429.03643-.100268.08041-.1875.15625-.40013.34812-.763921.731885-1.125 1.09375-.406779.407689-.812971.810848-1.1875 1.25-.155704.182419-.302678.371734-.40625.5-.194887.241479-.313948.46043-.4375.625-.295624.393925-.60047.796087-.875 1.21875-.364071.560522-.689357 1.129666-1 1.71875-.09835.186774-.169806.368514-.25.53125-.203674.412847-.406506.830022-.59375 1.28125-.04865.117262-.11629.211615-.15625.3125-.447157 1.127845-.802977 2.307481-1.0625 3.53125-.01471.06937-.02329.148492-.03125.1875.04096-.200436.02223-.176045-.03125.09375-.06832.342774-.108485.655469-.15625.96875-.03102.203352-.118172.450864-.15625.78125-.01086.09427-.02055.206927-.03125.3125-.0211.212454-.01684.232293 0 .0625-.03657.371868-.04582.70138-.0625 1.03125-.018674.369349-.03125.768911-.03125 1.15625 0 12.158209 9.863726 22.0625 22 22.0625.51585 0 1.007484-.03231 1.46875-.0625-.01615.0011.128294.02328.40625 0 .393912-.03268.739748-.108567 1.09375-.15625.19275-.02619.323724-.05464.375-.0625.12054-.01829.225975-.04201.34375-.0625-.614379.413149-1.244512.808378-1.96875 1.03125a.99219516.99219516 0 0 0 -.71875.9375v13.25a.99219516.99219516 0 0 0 1.125 1c11.184854-1.301665 19.875-10.82767 19.875-22.375 0-.138614-.02358-.187076-.03125-.28125a.99219516.99219516 0 0 0 0-.125.99219516.99219516 0 0 0 .03125-.125v-15.03125-19.03125c0-9.390774-7.626375-17.03125-17-17.03125h-6a.99219516.99219516 0 0 0 -.09375 0z" opacity=".15" transform="translate(0 -1)"/><path d="m46 13.000006v1.158765 3.852109 9.050892c-.562075.02611-1.106567.05573-1.65625.125272-.134634.01696-.272425.04314-.40625.06264-.04283.0063-.08225.02477-.125.03132-.09534.01449-.186338.04686-.28125.06264-.25099.042-.502108.07444-.75.125272-.281225.05731-.566747.11946-.84375.187907-.614167.152479-1.220998.327087-1.8125.532406-.06249.02169-.125283.04037-.1875.06264-.05281.0189-.103634.04333-.15625.06264-.442291.162297-.884712.341716-1.3125.532405-.298975.133414-.583609.291638-.875.438451-.285195.143723-.566174.28227-.84375.438452-.289202.162627-.563238.356655-.84375.532405-.358897.224813-.718566.44349-1.0625.688996-.08043.05734-.170417.09815-.25.156589-.399397.293739-.779046.587559-1.15625.908221-.06267.05322-.12546.102652-.1875.15659-.374907.326175-.742854.681834-1.09375 1.033493-.388548.389417-.767766.802529-1.125 1.221401-.124755.14616-.254213.288865-.375.438451-.15477.191771-.28941.397787-.4375.595041-.285736.380749-.552568.758577-.8125 1.158765-.345977.532664-.67105 1.095312-.96875 1.659852-.0873.165795-.167023.332705-.25.501088-.200302.406011-.388088.801095-.5625 1.2214-.04305.103762-.08357.208584-.125.31318-.429143 1.08241-.784826 2.220338-1.03125 3.38234-.01095.05163-.02068.104823-.03125.15659-.0067.03279-.02474.06111-.03125.09395-.062.31105-.108096.623704-.15625.939539-.03876.254087-.09538.494629-.125.751631-.011.09551-.02153.185962-.03125.281862-.0021.02114.0021.04147 0 .06264-.03278.333296-.04542.664496-.0625 1.002175-.018148.358938-.03125.73261-.03125 1.09611 0 11.623204 9.40202 21.045672 21 21.045672.47061 0 .943203-.03233 1.40625-.06264.125395-.0083.250216.01045.375 0 .360313-.02989.707543-.07746 1.0625-.125272.117004-.0159.227366-.04481.34375-.06264.347857-.05278.689225-.118251 1.03125-.187907.319839-.06559.654388-.107925.96875-.187908.0224-.0057.04013-.02557.0625-.03132.156665-.0404.313522-.08137.46875-.125272.282959-.07988.565838-.15911.84375-.250544.08481-.02791.165669-.065.25-.09395-1.068022 1.786374-2.786543 3.134703-4.8125 3.758156v13.247499c10.693021-1.244427 19-10.340048 19-21.39017 0-.17013-.02733-.331905-.03125-.501087h.03125v-15.032623-19.041322c0-8.855769-7.163444-16.034792-16-16.034792z" opacity=".3"/><path d="m46 12.000006v1.158765 3.852109 9.050892c-.562075.02611-1.106567.05573-1.65625.125272-.134634.01696-.272425.04314-.40625.06264-.04283.0063-.08225.02477-.125.03132-.09534.01449-.186338.04686-.28125.06264-.25099.042-.502108.07444-.75.125272-.281225.05731-.566747.11946-.84375.187907-.614167.152479-1.220998.327087-1.8125.532406-.06249.02169-.125283.04037-.1875.06264-.05281.0189-.103634.04333-.15625.06264-.442291.162297-.884712.341716-1.3125.532405-.298975.133414-.583609.291638-.875.438451-.285195.143723-.566174.28227-.84375.438452-.289202.162627-.563238.356655-.84375.532405-.358897.224813-.718566.44349-1.0625.688996-.08043.05734-.170417.09815-.25.156589-.399397.293739-.779046.587559-1.15625.908221-.06267.05322-.12546.102652-.1875.15659-.374907.326175-.742854.681834-1.09375 1.033493-.388548.389417-.767766.802529-1.125 1.221401-.124755.14616-.254213.288865-.375.438451-.15477.191771-.28941.397787-.4375.595041-.285736.380749-.552568.758577-.8125 1.158765-.345977.532664-.67105 1.095312-.96875 1.659852-.0873.165795-.167023.332705-.25.501088-.200302.406011-.388088.801095-.5625 1.2214-.04305.103762-.08357.208584-.125.31318-.429143 1.08241-.784826 2.220338-1.03125 3.38234-.01095.05163-.02068.104823-.03125.15659-.0067.03279-.02474.06111-.03125.09395-.062.31105-.108096.623704-.15625.939539-.03876.254087-.09538.494629-.125.751631-.011.09551-.02153.185962-.03125.281862-.0021.02114.0021.04147 0 .06264-.03278.333296-.04542.664496-.0625 1.002175-.018148.358938-.03125.73261-.03125 1.09611 0 11.623204 9.40202 21.045672 21 21.045672.47061 0 .943203-.03233 1.40625-.06264.125395-.0083.250216.01045.375 0 .360313-.02989.707543-.07746 1.0625-.125272.117004-.0159.227366-.04481.34375-.06264.347857-.05278.689225-.118251 1.03125-.187907.319839-.06559.654388-.107925.96875-.187908.0224-.0057.04013-.02557.0625-.03132.156665-.0404.313522-.08137.46875-.125272.282959-.07988.565838-.15911.84375-.250544.08481-.02791.165669-.065.25-.09395-1.068022 1.786374-2.786543 3.134703-4.8125 3.758156v13.247499c10.693021-1.244427 19-10.340048 19-21.39017 0-.17013-.02733-.331905-.03125-.501087h.03125v-15.032623-19.041322c0-8.855769-7.163444-16.034792-16-16.034792z" fill="#fefefe"/><path d="m46.875 28c-10.435171.068061-18.875 8.548803-18.875 19 0 10.49341 8.50659 19 19 19 3.65969 0 7.06896-1.05094 9.96875-2.84375-.24093 3.903513-2.61182 7.214217-5.96875 8.8125v9.46875c8.4427-1.995153 14.74138-9.441377 14.96875-18.4375h.0312v-.5-15.5l.00005-19z" fill="url(#m)"/><g transform="translate(-21 -1)"><path d="m69 15v.3125 13.6875 9.0625c-.326309-.032133-.665244-.0625-1-.0625-5.522848 0-10 4.477152-10 10s4.477152 10 10 10 10-4.477152 10-10v-19h8.96875c-.517431-7.815279-7.02248-14-14.96875-14z" fill="url(#k)"/><path d="m46 44a2 2 0 1 1 -4 0 2 2 0 1 1 4 0z" fill="url(#l)" transform="matrix(1.25 0 0 1.25 9.5 -10.5)"/><path d="m64.625714 41.5c1.597146.06742 2.875 1.386269 2.875 3 0 1.656854-1.343146 3-3 3-1.613731 0-2.932582-1.277854-3-2.875-.0016.04196 0 .08265 0 .125 0 1.794925 1.455075 3.25 3.25 3.25s3.25-1.455075 3.25-3.25-1.455075-3.25-3.25-3.25c-.04235 0-.08304-.0016-.125 0z" fill="#fefefe" opacity=".1"/></g></svg>