<svg height="96" width="96" xmlns="http://www.w3.org/2000/svg" xmlns:xlink="http://www.w3.org/1999/xlink"><linearGradient id="a"><stop offset="0" stop-color="#fefefe"/><stop offset="1" stop-color="#fefefe" stop-opacity="0"/></linearGradient><linearGradient id="b" gradientUnits="userSpaceOnUse" x1="36.357143" x2="36.357143" xlink:href="#a" y1="6" y2="63.893143"/><filter id="c" color-interpolation-filters="sRGB" height="1.384" width="1.384" x="-.192" y="-.192"><feGaussianBlur stdDeviation="5.28"/></filter><linearGradient id="d" gradientUnits="userSpaceOnUse" x1="48" x2="48" xlink:href="#a" y1="20.220806" y2="138.66119"/><radialGradient id="e" cx="48" cy="90.171875" gradientTransform="matrix(1.1573129 0 0 .99590774 -7.551021 .197132)" gradientUnits="userSpaceOnUse" r="42" xlink:href="#a"/><clipPath id="f"><rect height="84" rx="6" width="84" x="6" y="6"/></clipPath><linearGradient id="g" gradientUnits="userSpaceOnUse" x1="48" x2="48" y1="90" y2="5.987717"><stop offset="0" stop-color="#282828"/><stop offset="1" stop-color="#5a5a5a"/></linearGradient><linearGradient id="h"><stop offset="0" stop-color="#eeeeec"/><stop offset="1" stop-color="#eeeeec" stop-opacity="0"/></linearGradient><radialGradient id="i" cx="53.419292" cy="66.597893" gradientTransform="matrix(1.0164118 0 0 1.2415079 -19.337623 -31.113008)" gradientUnits="userSpaceOnUse" r="47.724609" xlink:href="#h"/><radialGradient id="j" cx="53.419292" cy="66.597893" gradientTransform="matrix(1.0220726 0 0 1.2415079 -19.896446 -47.863009)" gradientUnits="userSpaceOnUse" r="47.724609" xlink:href="#h"/><radialGradient id="k" cx="53.419292" cy="66.597893" gradientTransform="matrix(1.4750367 0 0 .847859 -55.736923 -9.894244)" gradientUnits="userSpaceOnUse" r="47.724609" xlink:href="#h"/><radialGradient id="l" cx="53.419292" cy="66.597893" gradientTransform="matrix(1.4750367 0 0 .847859 -77.736923 -9.894244)" gradientUnits="userSpaceOnUse" r="47.724609" xlink:href="#h"/><radialGradient id="m" cx="53.419292" cy="66.597893" gradientTransform="matrix(1.0199392 0 0 .85846172 -19.873341 -11.926904)" gradientUnits="userSpaceOnUse" r="47.724609" xlink:href="#h"/><radialGradient id="n" cx="53.419292" cy="66.597893" gradientTransform="matrix(1.0199392 0 0 .85846172 -19.685841 -9.268213)" gradientUnits="userSpaceOnUse" r="47.724609" xlink:href="#h"/><linearGradient id="o" gradientUnits="userSpaceOnUse"><stop offset="0"/><stop offset=".2" stop-opacity=".354839"/><stop offset=".55254942" stop-opacity="0"/><stop offset="1" stop-opacity="0"/></linearGradient><linearGradient id="p" gradientTransform="matrix(.72413795 0 0 .75 1.655173 4.5)" gradientUnits="userSpaceOnUse" x1="43.476658" x2="43.476658" xlink:href="#o" y1="26" y2="34.001266"/><linearGradient id="q" gradientTransform="matrix(1 0 0 1.25 0 -4.598212)" gradientUnits="userSpaceOnUse" x1="48" x2="48" xlink:href="#o" y1="16" y2="11.924657"/><linearGradient id="r" gradientUnits="userSpaceOnUse" x1="50.464287" x2="50.464287" y1="15.357143" y2="19.651315"><stop offset="0" stop-color="#fefefe"/><stop offset=".30000001" stop-color="#fefefe" stop-opacity=".498039"/><stop offset="1" stop-color="#fefefe" stop-opacity="0"/></linearGradient><linearGradient id="s" gradientTransform="matrix(1 0 0 1.25 0 4.401788)" gradientUnits="userSpaceOnUse" x1="48" x2="48" xlink:href="#o" y1="16" y2="11.924657"/><linearGradient id="t" gradientTransform="matrix(.81330712 0 0 .81132563 3.993543 2.028185)" gradientUnits="userSpaceOnUse" x1="11" x2="16" y1="10.441942" y2="24"><stop offset="0" stop-color="#5d5d5d"/><stop offset="1" stop-color="#171717"/></linearGradient><linearGradient id="u" gradientTransform="matrix(.81330712 0 0 .81132563 3.993543 2.028185)" gradientUnits="userSpaceOnUse" x1="13.125" x2="19.25" y1="9.941942" y2="24.5"><stop offset="0" stop-color="#919191"/><stop offset="1" stop-color="#232323"/></linearGradient><radialGradient id="v" cx="11.3125" cy="14.9375" gradientUnits="userSpaceOnUse" r="1.4375"><stop offset="0" stop-color="#dfdfdf"/><stop offset="1" stop-color="#434343"/></radialGradient><linearGradient id="w" gradientTransform="matrix(1.0058652 0 0 .994169 100 0)" gradientUnits="userSpaceOnUse" x1="45.447727" x2="45.447727" y1="92.539597" y2="7.01654"><stop offset="0"/><stop offset="1" stop-opacity=".588235"/></linearGradient><linearGradient id="x" gradientTransform="matrix(1.0238095 0 0 1.0119048 -1.142857 -98.071429)" gradientUnits="userSpaceOnUse" x1="32.251034" x2="32.251034" xlink:href="#w" y1="6.131708" y2="90.238609"/><linearGradient id="y" gradientTransform="translate(0 -97)" gradientUnits="userSpaceOnUse" x1="32.251034" x2="32.251034" xlink:href="#w" y1="6.131708" y2="90.238609"/><linearGradient id="z" gradientTransform="matrix(1.294304 -.21779196 .21779196 1.294304 -34.157089 -10.884221)" gradientUnits="userSpaceOnUse" x1="66" x2="66" y1="84" y2="55"><stop offset="0" stop-color="#d88215"/><stop offset="1" stop-color="#efc259"/></linearGradient><filter id="A" color-interpolation-filters="sRGB" height="1.333333" width="1.857143" x="-.428571" y="-.166667"><feGaussianBlur stdDeviation=".55242721"/></filter><filter id="B" color-interpolation-filters="sRGB" height="1.353367" width="1.366887" x="-.183443" y="-.176683"><feGaussianBlur stdDeviation=".65925"/></filter><linearGradient id="C"><stop offset="0"/><stop offset=".69999999" stop-opacity=".498039"/><stop offset="1" stop-opacity="0"/></linearGradient><filter id="D" color-interpolation-filters="sRGB" height="1.227422" width="1.863226" x="-.431613" y="-.113711"><feGaussianBlur stdDeviation=".73914765"/></filter><filter id="E" color-interpolation-filters="sRGB" height="1.2988" width="2.219592" x="-.609796" y="-.1494"><feGaussianBlur stdDeviation=".77812506"/></filter><linearGradient id="F"><stop offset="0" stop-color="#fefefe"/><stop offset=".69999999" stop-color="#fefefe" stop-opacity=".498039"/><stop offset="1" stop-color="#fefefe" stop-opacity="0"/></linearGradient><filter id="G" color-interpolation-filters="sRGB" height="1.271477" width="3.069921" x="-1.034961" y="-.135738"><feGaussianBlur stdDeviation=".9498173"/></filter><filter id="H" color-interpolation-filters="sRGB" height="1.27541" width="2.866667" x="-.933333" y="-.137705"><feGaussianBlur stdDeviation=".92807767"/></filter><linearGradient id="I" gradientUnits="userSpaceOnUse" x1="136.41356" x2="149.52968" y1="115.49392" y2="115.49392"><stop offset="0" stop-color="#e6605b"/><stop offset="1" stop-color="#f08682"/></linearGradient><linearGradient id="J" gradientTransform="matrix(1.0893815 0 0 1 -13.275943 0)" gradientUnits="userSpaceOnUse" x1="137.40625" x2="148.53125" xlink:href="#C" y1="116.46875" y2="116.46875"/><linearGradient id="K" gradientUnits="userSpaceOnUse" x1="112.26657" x2="126.26657" y1="60" y2="60"><stop offset="0"/><stop offset=".25" stop-color="#282828"/><stop offset=".30000001" stop-color="#3c3c3c"/><stop offset=".69999999" stop-color="#646464"/><stop offset=".75" stop-color="#787878"/><stop offset="1" stop-color="#a0a0a0"/></linearGradient><linearGradient id="L" gradientUnits="userSpaceOnUse" x1="119.26657" x2="119.26657" y1=".000002" y2="120.01752"><stop offset="0"/><stop offset=".06588447"/><stop offset=".07" stop-color="#ad5f1b"/><stop offset=".1913653" stop-color="#ad601a"/><stop offset=".20983393"/><stop offset="1"/></linearGradient><linearGradient id="M" gradientUnits="userSpaceOnUse" x1="117.51659" x2="121.07909" y1="4.921872" y2="4.921872"><stop offset="0"/><stop offset=".5" stop-color="#7d7d7d"/><stop offset="1"/></linearGradient><linearGradient id="N" gradientUnits="userSpaceOnUse" x1="113.25461" x2="125.2617" y1="17.043356" y2="17.043356"><stop offset="0" stop-color="#da8539"/><stop offset="1" stop-color="#fadfc7"/></linearGradient><linearGradient id="O" gradientTransform="matrix(1 0 0 1.2653524 -23.73343 -54.364173)" gradientUnits="userSpaceOnUse" x1="146.10596" x2="146.07562" xlink:href="#a" y1="118.94019" y2="66"/><linearGradient id="P" gradientTransform="matrix(1 0 0 1.2653524 -29.85843 -54.364173)" gradientUnits="userSpaceOnUse" x1="146.10596" x2="146.07562" xlink:href="#a" y1="118.94019" y2="66"/><linearGradient id="Q" gradientUnits="userSpaceOnUse" x1="136" x2="150" y1="106" y2="106"><stop offset="0" stop-color="#404040"/><stop offset=".2" stop-color="#808080"/><stop offset=".69999999" stop-color="#efefef"/><stop offset="1" stop-color="#dcdcdc"/></linearGradient><linearGradient id="R" gradientUnits="userSpaceOnUse" x1="136" x2="150" y1="106" y2="106"><stop offset="0" stop-color="#444542"/><stop offset="1" stop-color="#71746e"/></linearGradient><linearGradient id="S" gradientUnits="userSpaceOnUse" spreadMethod="reflect" x1="143.000002" x2="149.000002" xlink:href="#C" y1="100.500001" y2="100.500001"/><linearGradient id="T" gradientUnits="userSpaceOnUse" spreadMethod="reflect" x1="143.000002" x2="149.000002" xlink:href="#F" y1="101.500001" y2="101.500001"/><linearGradient id="U" gradientUnits="userSpaceOnUse" spreadMethod="reflect" x1="143.000002" x2="149.000002" xlink:href="#C" y1="102.500001" y2="102.500001"/><linearGradient id="V" gradientUnits="userSpaceOnUse" spreadMethod="reflect" x1="143.000002" x2="149.000002" xlink:href="#F" y1="103.500001" y2="103.500001"/><linearGradient id="W" gradientUnits="userSpaceOnUse" spreadMethod="reflect" x1="143.000002" x2="149.000002" xlink:href="#C" y1="108.500001" y2="108.500001"/><linearGradient id="X" gradientUnits="userSpaceOnUse" spreadMethod="reflect" x1="143.000002" x2="149.000002" xlink:href="#F" y1="109.500001" y2="109.500001"/><linearGradient id="Y" gradientUnits="userSpaceOnUse" spreadMethod="reflect" x1="143.000002" x2="149.000002" xlink:href="#C" y1="110.500001" y2="110.500001"/><linearGradient id="Z" gradientUnits="userSpaceOnUse" spreadMethod="reflect" x1="143.000002" x2="149.000002" xlink:href="#F" y1="111.500001" y2="111.500001"/><linearGradient id="aa" gradientUnits="userSpaceOnUse" spreadMethod="repeat" x1="137" x2="139.03125" y1="106" y2="106"><stop offset="0" stop-color="#3d3d3d"/><stop offset="1" stop-color="#fefefe"/></linearGradient><g><g fill="url(#x)"><path d="m12-95.03125c-5.5110903 0-10.03125 4.52016-10.03125 10.03125v71c0 5.5110902 4.5201598 10.03125 10.03125 10.03125h72c5.51109 0 10.03125-4.5201597 10.03125-10.03125v-71c0-5.51109-4.52016-10.03125-10.03125-10.03125z" opacity=".08" transform="scale(1 -1)"/><path d="m12-94.03125c-4.971633 0-9.03125 4.059617-9.03125 9.03125v71c0 4.9716329 4.0596171 9.03125 9.03125 9.03125h72c4.971633 0 9.03125-4.059617 9.03125-9.03125v-71c0-4.971633-4.059617-9.03125-9.03125-9.03125z" opacity=".1" transform="scale(1 -1)"/><path d="m12-93c-4.4091333 0-8 3.590867-8 8v71c0 4.4091333 3.5908667 8 8 8h72c4.409133 0 8-3.5908667 8-8v-71c0-4.409133-3.590867-8-8-8z" opacity=".2" transform="scale(1 -1)"/><rect height="85" opacity=".3" rx="7" transform="scale(1 -1)" width="86" x="5" y="-92"/></g><rect fill="url(#y)" height="84" opacity=".45" rx="6" transform="scale(1 -1)" width="84" x="6" y="-91"/></g><rect fill="url(#g)" height="84" rx="6" width="84" x="6" y="6"/><path d="m36.5625 32.0625c-.319303.000003-.56595.04413-.75.125-.182658.07948-.31423.171675-.40625.3125-.09063.139436-.15625.311193-.15625.46875 0 .239827.102775.407731.28125.5625.177079.154772.459488.28158.875.375.253766.05577.43028.12476.5.1875.06972.06275.09375.13927.09375.21875-.000002.08366-.01985.15461-.09375.21875-.07251.06275-.177251.09375-.3125.09375-.181264.000001-.3399-.0634-.4375-.1875-.05996-.07669-.10548-.197344-.125-.34375l-.875.0625c.02649.309543.111716.580466.3125.78125.200783.200784.572269.28125 1.09375.28125.296991 0 .554791-.03995.75-.125.195204-.08645.32874-.209074.4375-.375.108757-.165925.187497-.334648.1875-.53125-.000003-.167318-.04274-.333498-.125-.46875-.08087-.135248-.226384-.25312-.40625-.34375-.178477-.09202-.460885-.16076-.875-.25-.167321-.03485-.26788-.08456-.3125-.125-.04601-.03903-.09375-.0762-.09375-.125 0-.06693.03798-.14148.09375-.1875.05577-.0474.139846-.0625.25-.0625.133854 0 .2372.03101.3125.09375.07669.06275.13254.174464.15625.3125l.875-.0625c-.03904-.317905-.137392-.542487-.34375-.6875-.204969-.146398-.514444-.218747-.90625-.21875zm14.96875 0c-.497778.000003-.877385.127386-1.15625.40625-.278867.278869-.4375.686937-.4375 1.1875 0 .358345.07792.63657.21875.875.140827.238431.336618.421098.5625.53125.227275.110148.497954.15625.84375.15625.340215 0 .616471-.06062.84375-.1875.228667-.128278.411335-.302579.53125-.53125.121301-.230064.187496-.516655.1875-.875-.000004-.493591-.130175-.882958-.40625-1.15625-.27608-.27468-.677177-.406247-1.1875-.40625zm3.375 0c-.319304.000003-.597199.04413-.78125.125-.182658.07948-.31422.171675-.40625.3125-.09063.139436-.125.311193-.125.46875 0 .239827.07153.407731.25.5625.17708.154772.490738.28158.90625.375.253767.05577.39903.12476.46875.1875.06972.06275.124998.13927.125.21875-.000002.08366-.0511.15461-.125.21875-.07251.06275-.177252.09375-.3125.09375-.181265.000001-.30865-.0634-.40625-.1875-.05996-.07669-.10548-.197344-.125-.34375l-.90625.0625c.02649.309543.142966.580466.34375.78125.200783.200784.572269.28125 1.09375.28125.296991 0 .523541-.03995.71875-.125.195204-.08645.359989-.209074.46875-.375.108756-.165925.156247-.334648.15625-.53125-.000003-.167318-.04274-.333498-.125-.46875-.08087-.135248-.195134-.25312-.375-.34375-.178477-.09202-.492135-.16076-.90625-.25-.167321-.03485-.26788-.08456-.3125-.125-.04602-.03903-.0625-.0762-.0625-.125 0-.06693.03798-.14148.09375-.1875.05577-.0474.139847-.0625.25-.0625.133855 0 .2372.03101.3125.09375.07669.06275.10129.174464.125.3125l.90625-.0625c-.03905-.317905-.168642-.542487-.375-.6875-.204969-.146398-.483195-.218747-.875-.21875zm-39.90625.0625v3.0625h.9375v-1.25h1.1875v-.625h-1.1875v-.53125h1.40625v-.65625zm3.3125 0-1.15625 3.0625h.96875l.125-.53125h1.09375l.15625.53125h.96875l-1.125-3.0625zm2.46875 0v3.0625h2.59375v-.71875h-1.65625v-.59375h1.5v-.625h-1.5v-.5h1.59375v-.625zm3.09375 0v3.0625h.90625v-1.6875l1.15625 1.6875h.875v-3.0625h-.875v1.6875l-1.15625-1.6875zm3.5 0v.625h1.53125l-1.6875 1.78125v.65625h2.90625v-.65625h-1.78125l1.71875-1.8125v-.59375zm4.03125 0-1.15625 3.0625h.96875l.125-.53125h1.09375l.15625.53125h.96875l-1.125-3.0625zm6.78125 0v.75h.96875v2.3125h.9375v-2.3125h.96875v-.75zm3.3125 0v1.8125c0 .150589.03519.336044.09375.53125.03625.121307.0899.229415.1875.34375.099.114335.225231.18726.34375.25.118517.06135.261813.10409.4375.125.177079.02091.350804.03125.5.03125.257949 0 .472195-.02543.65625-.09375.132459-.0488.255084-.130087.375-.25.121304-.121306.19422-.277152.25-.4375.05716-.161742.09375-.318736.09375-.5v-1.8125h-.9375v1.84375c-.000002.170109-.06283.31283-.15625.40625-.09203.09203-.211865.125-.375.125-.164533 0-.28158-.03158-.375-.125-.09203-.09481-.156251-.23893-.15625-.40625v-1.84375zm3.59375 0v3.0625h1.40625c.168713 0 .354742-.03798.5625-.09375.15198-.04044.273786-.128693.40625-.25.132459-.1227.2386-.25763.3125-.4375.07529-.181262.124997-.45358.125-.78125 0-.209148-.01231-.406908-.0625-.59375-.0502-.186838-.138456-.35917-.25-.5-.111549-.140825-.266-.2372-.4375-.3125-.170111-.075291-.37878-.093747-.65625-.09375zm3.34375 0v3.0625h.9375v-3.0625zm3.09375.65625c.199387.000003.353018.05365.46875.1875.117126.132464.187498.336376.1875.625-.000002.343007-.07596.58629-.1875.71875-.111549.132463-.26518.21875-.46875.21875-.197997 0-.353022-.0835-.46875-.21875-.114333-.135249-.156251-.346707-.15625-.65625-.000001-.312328.04052-.552247.15625-.6875.115728-.135245.277725-.187497.46875-.1875zm-5.5.03125h.25c.245401.000003.394028.03634.5.15625.105963.119915.187498.362622.1875.6875 0 .245404-.04634.421099-.09375.53125-.04741.108759-.10384.17413-.1875.21875-.08366.04323-.239507.0625-.4375.0625h-.21875zm-27.21875.09375.34375 1.09375h-.6875zm13.09375 0 .34375 1.09375h-.6875zm-8.875 4.96875c-.364643.000002-.649275.05669-.84375.21875-.194472.162065-.3125.417587-.3125.71875 0 .240394.07964.420698.21875.5625.140453.141807.353732.24767.65625.3125l.3125.0625c.183669.04051.31423.07369.375.125.06213.05132.09375.12421.09375.21875-.000002.105341-.06576.19328-.15625.25-.09049.05671-.204836.09375-.375.09375-.167465 0-.350282-.04243-.53125-.09375-.179621-.05267-.369375-.116109-.5625-.21875v.65625c.193125.07158.400625.11979.59375.15625.193123.03647.370724.0625.5625.0625.406505 0 .70907-.08794.90625-.25.19852-.163412.312497-.41642.3125-.75-.000003-.253896-.07695-.424746-.21875-.5625-.141807-.137752-.382472-.24497-.71875-.3125l-.34375-.0625c-.158012-.03241-.25173-.08043-.3125-.125-.05942-.04592-.09375-.10647-.09375-.1875 0-.10804.03586-.19869.125-.25.08913-.05131.219877-.0625.40625-.0625.140453 0 .310736-.0065.46875.03125.158008.03782.302633.11322.46875.1875v-.65625c-.187725-.04997-.355685-.06943-.53125-.09375-.17557-.02566-.333888-.03125-.5-.03125zm2.78125 0c-.364642.000003-.649275.05669-.84375.21875-.194472.162065-.281251.417587-.28125.71875-.000001.240395.07965.420697.21875.5625.140453.141806.353733.24767.65625.3125l.3125.0625c.18367.04051.28298.07368.34375.125.06212.05132.09375.12421.09375.21875-.000001.105342-.03451.19329-.125.25s-.204836.09375-.375.09375c-.167467 0-.350282-.04243-.53125-.09375-.17962-.05267-.369374-.11611-.5625-.21875v.65625c.193126.07158.369375.11979.5625.15625.193123.03647.401974.0625.59375.0625.406505 0 .709071-.08794.90625-.25.19852-.163412.281248-.416421.28125-.75-.000002-.253897-.0457-.424746-.1875-.5625-.141807-.137752-.382472-.24497-.71875-.3125l-.34375-.0625c-.158011-.03241-.25173-.08043-.3125-.125-.05942-.04592-.09375-.10647-.09375-.1875-.000002-.10804.03586-.19869.125-.25.08913-.05131.219876-.0625.40625-.0625.140453 0 .310737-.0066.46875.03125.158009.03782.302634.11322.46875.1875v-.65625c-.187725-.049969-.355685-.06943-.53125-.09375-.175569-.02566-.365137-.031247-.53125-.03125zm6.28125 0c-.349448.05242-.618889.196585-.84375.40625-.299816.279562-.4375.668714-.4375 1.15625 0 .482137.143086.873992.4375 1.15625.294413.280908.683755.40625 1.1875.40625.222834 0 .446916-.01524.65625-.0625.209328-.04727.399272-.12421.59375-.21875v-1.46875h-1.21875v.53125h.46875v.59375c-.05537.0216-.11727.02045-.1875.03125-.06888.0095-.13772.03125-.21875.03125-.298467.000001-.525439-.07578-.6875-.25-.162064-.174215-.250001-.429925-.25-.75-.000001-.322772.08254-.577132.25-.75.168814-.174216.408129-.249998.71875-.25.167463 0 .333884.01524.5.0625.167462.04727.362433.12286.53125.21875v-.625c-.163415-.07428-.346232-.14969-.53125-.1875-.183674-.03781-.392523-.03125-.59375-.03125-.130326.000001-.258517-.01747-.375 0zm-17.09375.03125v3.03125h.75v-2.21875l.6875 1.65625h.5l.6875-1.65625v2.21875h.75v-3.03125h-1l-.6875 1.625-.6875-1.625zm4.125 0v3.03125h2.15625v-.59375h-1.375v-.6875h1.25v-.59375h-1.25v-.5625h1.34375v-.59375zm15.25 0v3.03125h2.15625v-.59375h-1.375v-.6875h1.25v-.59375h-1.25v-.5625h1.3125v-.59375zm-5.84375.03125-1.125 3.03125h.78125l.1875-.5625h1.21875l.1875.5625h.78125l-1.125-3.03125zm.46875.6875.40625 1.21875h-.84375z" fill="url(#n)" opacity=".8"/><path d="m40 39h41v1h-41z" fill="url(#i)" opacity=".8"/><path d="m15 69h66v1h-66z" fill="url(#j)" opacity=".8"/><path d="m59 70v14h-1v-14z" fill="url(#k)" opacity=".8"/><path d="m41.78125 62.875c-.364641.000003-.649276.05669-.84375.21875-.194473.162065-.28125.417586-.28125.71875 0 .240395.07964.420696.21875.5625.140454.141805.353733.24767.65625.3125l.3125.0625c.183669.04051.28298.07368.34375.125.06212.05132.09375.12421.09375.21875-.000002.105341-.03452.19328-.125.25-.09049.05671-.204835.09375-.375.09375-.167466 0-.350281-.04243-.53125-.09375-.17962-.05267-.369376-.11611-.5625-.21875v.65625c.193124.07157.369376.11979.5625.15625.193125.03647.401974.0625.59375.0625.406504 0 .709071-.08794.90625-.25.19852-.163413.281247-.41642.28125-.75-.000003-.253896-.0457-.424745-.1875-.5625-.141808-.137751-.382473-.24497-.71875-.3125l-.34375-.0625c-.158013-.03241-.25173-.08043-.3125-.125-.05942-.045917-.09375-.10647-.09375-.1875 0-.10804.03586-.19868.125-.25.08913-.05131.219875-.0625.40625-.0625.140451 0 .310736-.0066.46875.03125.158008.03782.302634.11322.46875.1875v-.65625c-.187725-.049968-.355683-.06943-.53125-.09375-.175569-.02566-.365137-.031247-.53125-.03125zm3.0625 0c-.338559.05293-.622941.194558-.84375.40625-.294414.28091-.4375.672764-.4375 1.15625 0 .482137.143086.873991.4375 1.15625.294412.280908.683754.40625 1.1875.40625.168813 0 .344688-.02468.5-.0625.155308-.03781.294342-.08197.4375-.15625v-.625c-.144508.09859-.265799.17283-.40625.21875-.140457.04592-.313442.0625-.46875.0625-.278209.000001-.49689-.102981-.65625-.28125-.159363-.178269-.218751-.406778-.21875-.71875-.000001-.313321.05939-.57173.21875-.75.15936-.178264.378041-.249998.65625-.25.155308 0 .328293.01659.46875.0625.140451.04592.261742.12016.40625.21875v-.625c-.143158-.07428-.282192-.14969-.4375-.1875-.155312-.0378-.331187-.03125-.5-.03125-.125937.000001-.230897-.01764-.34375 0zm-18.875.03125v.59375h1v2.4375h.78125v-2.4375h1v-.59375zm3.1875 0v3.03125h2.15625v-.59375h-1.375v-.6875h1.25v-.59375h-1.25v-.5625h1.3125v-.59375zm17.625 0v3.03125h2.15625v-.59375h-1.375v-.6875h1.25v-.59375h-1.25v-.5625h1.3125v-.59375zm2.84375 0v3.03125h.71875v-2.0625l1.125 2.0625h.84375v-3.03125h-.71875v2.09375l-1.09375-2.09375zm3.46875 0v3.03125h2.15625v-.59375h-1.375v-.6875h1.25v-.59375h-1.25v-.5625h1.3125v-.59375zm11.65625 0v.59375h1v2.4375h.78125v-2.4375h1v-.59375zm6.09375 0v3.03125h.78125v-1.1875l1.1875 1.1875h.96875l-1.59375-1.59375 1.4375-1.4375h-.90625l-1.09375 1.125v-1.125zm3.1875 0v3.03125h2.15625v-.59375h-1.375v-.6875h1.25v-.59375h-1.25v-.5625h1.34375v-.59375zm-54.03125.03125v3.03125h.8125c.453773 0 .80436-.06017 1.03125-.125.226885-.06618.431684-.15584.59375-.3125.141802-.136402.24362-.290479.3125-.46875.06887-.179617.09375-.39676.09375-.625-.000002-.225535-.02487-.415479-.09375-.59375-.06888-.178266-.170698-.332345-.3125-.46875-.160716-.156657-.368214-.27892-.59375-.34375-.224187-.06617-.572075-.09375-1.03125-.09375zm4.1875 0-1.09375 3.03125h.78125l.1875-.5625h1.21875l.1875.5625h.78125l-1.125-3.03125zm44.1875 0-1.125 3.03125h.78125l.21875-.5625h1.21875l.1875.5625h.78125l-1.125-3.03125zm-47.59375.59375h.28125c.320071.000002.551284.06209.71875.21875.167457.156663.249997.387686.25.6875-.000003.301167-.08119.52949-.25.6875-.167467.158017-.400029.25-.71875.25h-.28125zm3.875.09375.4375 1.21875h-.84375zm44.1875 0 .40625 1.21875h-.8125z" fill="url(#m)" opacity=".8"/><path d="m37 70v14h-1v-14z" fill="url(#l)" opacity=".8"/><path d="m12 90c-3.324 0-6-2.676-6-6v-2-68-2c0-.334721.04135-.6507.09375-.96875.0487-.295596.09704-.596915.1875-.875.00988-.03038.020892-.0636.03125-.09375.098865-.287771.2348802-.547452.375-.8125.1445918-.273507.3156161-.535615.5-.78125s.3737765-.473472.59375-.6875c.439947-.428056.94291-.814526 1.5-1.09375.278545-.139612.5734731-.246947.875-.34375-.2562018.100222-.4867109.236272-.71875.375-.00741.0044-.023866-.0045-.03125 0-.031933.0193-.062293.04251-.09375.0625-.120395.0767-.2310226.163513-.34375.25-.1061728.0808-.2132809.161112-.3125.25-.1779299.161433-.3474596.345388-.5.53125-.1075789.130255-.2183939.265285-.3125.40625-.025089.03838-.038446.08587-.0625.125-.064763.103032-.1302275.204517-.1875.3125-.1010083.194706-.2056748.415701-.28125.625-.00796.02181-.023589.04055-.03125.0625-.0318251.09195-.0358045.186831-.0625.28125-.0303323.106618-.0703894.203031-.09375.3125-.0728786.341512-.125.698205-.125 1.0625v2 68 2c0 2.781848 2.2181517 5 5 5h2 68 2c2.781848 0 5-2.218152 5-5v-2-68-2c0-.364295-.05212-.720988-.125-1.0625-.04415-.206893-.08838-.397658-.15625-.59375-.0077-.02195-.0233-.04069-.03125-.0625-.06274-.173739-.138383-.367449-.21875-.53125-.04158-.0828-.07904-.169954-.125-.25-.0546-.09721-.126774-.18835-.1875-.28125-.09411-.140965-.204921-.275995-.3125-.40625-.143174-.17445-.303141-.346998-.46875-.5-.01117-.0102-.01998-.02115-.03125-.03125-.138386-.125556-.285091-.234436-.4375-.34375-.102571-.07315-.204318-.153364-.3125-.21875-.0074-.0045-.02384.0044-.03125 0-.232039-.138728-.462548-.274778-.71875-.375.301527.0968.596455.204138.875.34375.55709.279224 1.060053.665694 1.5 1.09375.219973.214028.409366.441865.59375.6875s.355408.507743.5.78125c.14012.265048.276135.524729.375.8125.01041.03078.02133.06274.03125.09375.09046.278085.1388.579404.1875.875.0524.31805.09375.634029.09375.96875v2 68 2c0 3.324-2.676 6-6 6z" fill="url(#e)" opacity=".2"/><rect height="66" rx="12" style="opacity:.1;stroke:#fefefe;stroke-width:.5;stroke-linecap:round;clip-path:url(#f);fill:url(#d);filter:url(#c)" width="66" x="15" y="15"/><path d="m12 6c-3.324 0-6 2.676-6 6v12h84v-12c0-3.324-2.676-6-6-6z"/><g fill-rule="evenodd"><path d="m6 24h84v6h-84z" fill="url(#p)" opacity=".8"/><path d="m6 15h84v5h-84z" fill="url(#r)" opacity=".3"/><g fill="#f0f0f0" transform="translate(1)"><path d="m28.333333 6-5.333333 9 5.333333 9h10.666667l-5.333333-9 5.333333-9z"/><path d="m50.333333 6-5.333333 9 5.333333 9h10.666667l-5.333333-9 5.333333-9z"/><path d="m72.333333 6-5.333333 9 5.333333 9h10.666667l-5.333333-9 5.333333-9z"/></g><path d="m6 10h84v5h-84z" fill="url(#q)" opacity=".7"/><path d="m6 19h84v5h-84z" fill="url(#s)" opacity=".7"/><path d="m12.005391 10.5c1.109513 0 1.770155.983693 6.03003 4.302704 4.304387 3.353689 5.477493 3.726472 5.477493 5.074645 0 1.348423-1.088205 1.622651-2.439921 1.622651h-8.133072c-1.351716 0-2.439921-1.085554-2.439921-2.433977v-6.490605c0-1.348423.467611-2.075418 1.505391-2.075418z" fill="url(#t)" stroke="url(#u)" stroke-linejoin="round"/><path d="m12.75 14.9375a1.4375 1.4375 0 1 1 -2.875 0 1.4375 1.4375 0 1 1 2.875 0z" fill="url(#v)" transform="matrix(.81330712 0 0 .81132563 3.58689 1.074678)"/><path d="m12.75 14.9375a1.4375 1.4375 0 1 1 -2.875 0 1.4375 1.4375 0 1 1 2.875 0z" fill="url(#v)" transform="matrix(.81330712 0 0 .81132563 3.58689 7.09897)"/><path d="m12.75 14.9375a1.4375 1.4375 0 1 1 -2.875 0 1.4375 1.4375 0 1 1 2.875 0z" fill="url(#v)" transform="matrix(.81330712 0 0 .81132563 11.618297 7.09897)"/></g><path d="m12 6c-3.324 0-6 2.676-6 6v2 68 2c0 .334721.04135.6507.09375.96875.0487.295596.09704.596915.1875.875.00988.03038.020892.0636.03125.09375.098865.287771.2348802.547452.375.8125.1445918.273507.3156161.535615.5.78125s.3737765.473472.59375.6875c.439947.428056.94291.814526 1.5 1.09375.278545.139612.5734731.246947.875.34375-.2562018-.100222-.4867109-.236272-.71875-.375-.00741-.0044-.023866.0045-.03125 0-.031933-.0193-.062293-.04251-.09375-.0625-.120395-.0767-.2310226-.163513-.34375-.25-.1061728-.0808-.2132809-.161112-.3125-.25-.1779299-.161433-.3474596-.345388-.5-.53125-.1075789-.130255-.2183939-.265285-.3125-.40625-.025089-.03838-.038446-.08587-.0625-.125-.064763-.103032-.1302275-.204517-.1875-.3125-.1010083-.194706-.2056748-.415701-.28125-.625-.00796-.02181-.023589-.04055-.03125-.0625-.0318251-.09195-.0358045-.186831-.0625-.28125-.0303323-.106618-.0703894-.203031-.09375-.3125-.0728786-.341512-.125-.698205-.125-1.0625v-2-68-2c0-2.781848 2.2181517-5 5-5h2 68 2c2.781848 0 5 2.218152 5 5v2 68 2c0 .364295-.05212.720988-.125 1.0625-.04415.206893-.08838.397658-.15625.59375-.0077.02195-.0233.04069-.03125.0625-.06274.173739-.138383.367449-.21875.53125-.04158.0828-.07904.169954-.125.25-.0546.09721-.126774.18835-.1875.28125-.09411.140965-.204921.275995-.3125.40625-.143174.17445-.303141.346998-.46875.5-.01117.0102-.01998.02115-.03125.03125-.138386.125556-.285091.234436-.4375.34375-.102571.07315-.204318.153364-.3125.21875-.0074.0045-.02384-.0044-.03125 0-.232039.138728-.462548.274778-.71875.375.301527-.0968.596455-.204138.875-.34375.55709-.279224 1.060053-.665694 1.5-1.09375.219973-.214028.409366-.441865.59375-.6875s.355408-.507743.5-.78125c.14012-.265048.276135-.524729.375-.8125.01041-.03078.02133-.06274.03125-.09375.09046-.278085.1388-.579404.1875-.875.0524-.31805.09375-.634029.09375-.96875v-2-68-2c0-3.324-2.676-6-6-6z" fill="url(#b)" opacity=".3"/><path d="m83.731158 24.291449c1.70837-.170318 2.16912 1.718954 2.22575 3.057736 2.96888 17.769609 6.02243 35.538725 8.93853 53.308641-.12849 1.826807-2.27191 1.825891-3.63678 2.037975-27.06357 4.53284-54.123427 9.14961-81.189318 13.63001-1.8819724-.0915-2.3056576-2.79293-.6756694-3.62959 24.4961124-22.683205 48.9564664-45.41939 73.4749174-68.069491.24059-.219714.56018-.262178.86257-.335281zm-8.10228 26.049354c-9.146894 8.479107-18.293792 16.958214-27.440689 25.437321 10.282526-1.730236 20.565054-3.460472 30.847579-5.190708-1.13563-6.748871-2.27126-13.497742-3.40689-20.246613z" opacity=".08"/><path d="m83.830278 25.25714a.90595161.90595161 0 0 1 .95161.758862l9.14727 54.36077a.90595161.90595161 0 0 1 -.74331 1.044066l-82.835457 13.938683a.90595161.90595161 0 0 1 -.7679014-1.55032l73.6881984-68.299452a.90595161.90595161 0 0 1 .55959-.252609zm-7.56729 23.202359-31.031729 28.766866 34.884579-5.870012z" opacity=".12"/><path d="m83.877648 26.168159-73.688195 68.299452 82.835455-13.938683zm-6.99421 20.475714 4.28097 25.441164-38.788675 6.526953z" opacity=".3"/><path d="m83.711708 25.182023-73.688192 68.299458 82.835462-13.938689zm-6.99421 20.475714 4.28097 25.441163-38.788672 6.526953z" fill="url(#z)"/><path d="m76.544788 44.67274.16594.986137-33.140164 30.737806-1.510021.254091zm16.15881 33.882138.16594.986137-82.83546 13.938686 1.344084-1.24023z" fill="#a0672c"/><path d="m83.722268 25.180246.16594.986136-72.344109 67.059229-1.510021.25409zm-2.7283 45.933277.16593.986136-38.767482 6.523388 1.344085-1.240227z" fill="#ffe680" opacity=".5"/><path d="m40.920499 26.045404c-.417673-.01944-.935948.02277-1.46875.21875l-3.21875 1.1875c-1.909412.702332-2.849573 2.833823-2.15625 4.71875h-.03125l.3125.90625c-.0091.04733-.000098.09444 0 .09375.000201-.0014-.00006.220181 0 .21875.00006-.0014.000082.18893 0 .1875-.000082-.0014.000223.188915 0 .1875-.000223-.0014.06286.188886.0625.1875-.000362-.0014.063.188843.0625.1875l.1875.5a1.0151518 1.0151518 0 0 0 .03125.125c-.000381-.000748.06292.09447.0625.09375-.000163-.000279.02003.01332.03125.03125.01795.02869.03154.06293.03125.0625-.000253-.000554.01296.05716.03125.09375.01291.02583.03146.06288.03125.0625h.03125l3.625 9.84375 14.0625 38.21875a1.0151518 1.0151518 0 0 0 0 .03125c-.000356-.000869.06291.125844.0625.125-.000412-.000844.06297.125815.0625.125-.000466-.000815.06302.09453.0625.09375-.000363-.000548.0092.06264.03125.09375.0094.01333.03142.03147.03125.03125l8.09375 11.468754a1.0151518 1.0151518 0 0 0 .03125 0c-.000694-.00094.09452.125876.09375.124996-.000767-.00088.125836.12581.125.125-.000836-.00082.09465.0945.09375.0937-.000899-.00075.157206.12567.15625.125s.126007.0631.125.0625c-.001-.00059.126052.0943.125.0937-.0011-.00051.157339.0629.15625.0625-.0011-.00042.15737.0316.15625.0312-.0011-.00033.157393.0627.15625.0625-.0011-.00024.157408.0314.15625.0312-.0012-.00015.157416.00005.15625 0-.0012-.00005.157417-.00004.15625 0-.0012.00004.15741-.00014.15625 0-.0012.00013.157395-.0315.15625-.0312-.0011.00023.157373-.0316.15625-.0312-.0011.00032.157343-.0629.15625-.0625-.0011.00041.157307-.063.15625-.0625-.0011.0005.157263-.0631.15625-.0625-.001.00058.125963-.0944.125-.0937-.000963.00066.125906-.0945.125-.0937-.000906.00073.125844-.12581.125-.125s.125776-.0946.125-.0937c-.000776.00087.09445-.12593.09375-.125-.000703.00093.09438-.125986.09375-.124996-.000626.00098.06304-.15728.0625-.15625-.000544.001.06296-.12608.0625-.125-.000459.001.06287-.15736.0625-.15625-.000371.001.06278-.15739.0625-.15625-.00028.001.03144-.1574.03125-.15625-.000188.001.000094-.15742 0-.15625-.000094.001.03125-.15742.03125-.15625 0 .001-.03135-.18867-.03125-.1875l-1.25-14.031254a1.0151518 1.0151518 0 0 0 0-.03125c.000107.000955-.000171-.125945 0-.125s-.03148-.125932-.03125-.125c.000233.000932-.03154-.125914-.03125-.125.000236.000732-.0511-.06195-.0625-.09375v-.03125l-14.03125-38.1875-3.75-10.09375a1.0151518 1.0151518 0 0 0 0-.03125c.000503.0013-.06312-.157491-.0625-.15625.000625.0012-.09449-.188676-.09375-.1875.000741.0012-.125851-.157349-.125-.15625.000851.0011-.125953-.126012-.125-.125.000953.001-.126045-.157166-.125-.15625.0004.00035-.03531-.0097-.0625-.03125l-.59375-1.6875a1.0151518 1.0151518 0 0 0 -.03125 0c-.524378-1.425611-1.828853-2.308872-3.25-2.375z" opacity=".08" stroke="#000" stroke-linejoin="round" stroke-width=".75"/><path d="m40.857999 27.045404c-.320997-.01494-.677093.01449-1.0625.15625l-3.21875 1.1875c-1.378838.507173-2.06631 2.067799-1.5625 3.4375l.4375 1.21875a.97171158.97171158 0 0 0 -.03125.75l.1875.5a.97171158.97171158 0 0 0 .125.1875.97171158.97171158 0 0 0 .03125.0625.97171158.97171158 0 0 0 .03125.0625l3.6875 10 14.0625 38.21875a.97171158.97171158 0 0 0 .125.21875l8.125 11.500004a.97171158.97171158 0 0 0 1.75-.65625l-1.25-14.031254a.97171158.97171158 0 0 0 -.0625-.25l-14.03125-38.21875-3.75-10.09375a.97171158.97171158 0 0 0 -.5-.53125l-.71875-2c-.376873-1.024593-1.349129-1.671015-2.375-1.71875z" opacity=".12" stroke="#000" stroke-linejoin="round" stroke-width=".75"/><path d="m40.826182 28.00606c.660424.03073 1.265838.426325 1.509142 1.087788l.958134 2.656726.261544-.09627 3.72717 10.07173 14.051309 38.226668 1.239345 14.016706-8.126661-11.481509-14.05131-38.226666-3.72717-10.071731.215653-.05958-.09627-.261544-.261544.09627-.192547-.523086.261544-.09627-.669314-1.872096c-.324404-.881952.114273-1.86379.996222-2.188194l3.225705-1.187372c.220488-.0811.458909-.101807.679051-.09156z" opacity=".3" stroke="#000" stroke-linejoin="round" stroke-width=".75"/><g transform="matrix(.53065619 -.19518968 -.19518968 -.53065619 -13.078553 121.1099)"><rect fill="url(#I)" height="16" rx="3" stroke="#df453f" stroke-linejoin="round" stroke-width="1.326457" width="12.116117" x="136.91356" y="107.49392"/><path d="m141.24458 118.1889a1.5467962 3.9774759 0 1 1 -3.09359 0 1.5467962 3.9774759 0 1 1 3.09359 0z" fill="#701300" filter="url(#A)" opacity=".3" transform="matrix(1.8857143 0 0 1 -123.51329 -1.944544)"/><path d="m146.31251 113.125c-.85193 9.50672-3.9375 8.3125-6.5 8.9375 4.07634.0625 8.625-.0625 8.625-.0625-2.4375-.5625-1.8125-2.375-2.125-8.875z" fill="#fefefe" fill-rule="evenodd" filter="url(#B)" opacity=".8"/><path d="m136.41188 115.96875h12.119369v1h-12.119369z" fill="url(#J)" opacity=".2"/><g transform="translate(23.73343)"><path d="m112.76657 24.500002 6.5-23.9999996 6.5 23.9999996v71.999997h-13z" fill="url(#K)" stroke="url(#L)" stroke-linejoin="round" stroke-width="1.326457"/><path d="m117.69336 8.0716529 3.14265.022097-1.58237-5.7913293" fill="url(#M)" fill-rule="evenodd"/><path d="m117.73213 8.0901517-3.76756 13.9098483s-.46779 1.653465-.698 2.60832c-.19122.64228 1.95886 1.611283 3.0182-1.60832 1.21534 4.513809 5.57589 3.437953 5.98831.01105.3425 1.701476 1.75396 2.949961 2.98863 1.521937-.23478-.908743-.43641-1.521937-.43641-1.521937l-4.02168-14.9208973h-3.07149z" fill="url(#N)" fill-rule="evenodd"/><path d="m122.37252 96.304856v-67.217294" fill="none" opacity=".3" stroke="url(#O)" stroke-width="1.76861"/><path d="m116.24752 96.304856v-67.217294" fill="none" opacity=".4" stroke="url(#P)" stroke-width="1.76861"/><path d="m118.7044 5.9798798-4.77297 17.8986412 1.98873-.839689z" fill="#ac4311" fill-rule="evenodd" filter="url(#D)" opacity=".4"/><path d="m113.07908 24.624995s1.48667 1.76491 3.25-1.53125c2 5.25 5.16858 2.087146 5.93749-.03125 1.375 3.4375 3.12501 1.4375 3.12501 1.4375" fill="none" opacity=".15" stroke="#4d2600" stroke-width="1.76861"/><path d="m144.06251 8.9374939-.375 12.5000011 3.0625-.3125z" fill="#fefefe" fill-rule="evenodd" filter="url(#E)" opacity=".8" transform="matrix(1.122449 0 0 1.345 -41.70282 -4.770935)"/></g><path d="m136.5 96.5h13v19h-13z" fill="url(#Q)" stroke="url(#R)" stroke-linejoin="round" stroke-width="1.326457"/><path d="m137 100h12v1h-12z" fill="url(#S)" opacity=".4"/><path d="m137 101h12v1h-12z" fill="url(#T)" opacity=".6"/><path d="m137 102h12v1h-12z" fill="url(#U)" opacity=".4"/><path d="m137 103h12v1h-12z" fill="url(#V)" opacity=".6"/><path d="m137 108h12v1h-12z" fill="url(#W)" opacity=".4"/><path d="m137 109h12v1h-12z" fill="url(#X)" opacity=".6"/><path d="m137 110h12v1h-12z" fill="url(#Y)" opacity=".4"/><path d="m137 111h12v1h-12z" fill="url(#Z)" opacity=".6"/><path d="m137 104h12v4h-12z" fill="url(#aa)" opacity=".3"/><path d="m140.00001 106.07969a1.10128 8.3968973 0 1 1 -2.20256 0 1.10128 8.3968973 0 1 1 2.20256 0z" filter="url(#G)" opacity=".6" transform="matrix(1.2553848 0 0 1 -35.75387 0)"/><path d="m147.34339 106.03549a1.193245 8.0875489 0 1 1 -2.38649 0 1.193245 8.0875489 0 1 1 2.38649 0z" fill="#fefefe" filter="url(#H)" opacity=".8"/></g></svg>