<svg height="96" width="96" xmlns="http://www.w3.org/2000/svg" xmlns:xlink="http://www.w3.org/1999/xlink"><linearGradient id="a"><stop offset="0" stop-color="#fefefe"/><stop offset="1" stop-color="#fefefe" stop-opacity="0"/></linearGradient><linearGradient id="b" gradientTransform="matrix(1.0058652 0 0 .994169 100 0)" gradientUnits="userSpaceOnUse" x1="45.447727" x2="45.447727" y1="92.539597" y2="7.01654"><stop offset="0"/><stop offset="1" stop-opacity=".588235"/></linearGradient><radialGradient id="c" cx="24.826694" cy="40.786476" gradientTransform="matrix(.3063932 .22090721 -.38988852 .44341394 44.608202 45.005646)" gradientUnits="userSpaceOnUse" r="21.96875"><stop offset="0" stop-color="#f8bcf0"/><stop offset="1" stop-color="#d22ebc"/></radialGradient><radialGradient id="d" cx="22.776897" cy="41.864872" gradientTransform="matrix(.35712698 .31944874 -.49735665 .52132548 35.489562 45.370608)" gradientUnits="userSpaceOnUse" r="21.96875"><stop offset="0" stop-color="#f8bcf0"/><stop offset="1" stop-color="#c72bb2"/></radialGradient><linearGradient id="e" gradientUnits="userSpaceOnUse" x1="23.229842" x2="23.064818" y1="44.71907" y2="37.284717"><stop offset="0" stop-color="#626262"/><stop offset="1" stop-color="#fefefe"/></linearGradient><radialGradient id="f" cx="26.98056" cy="32.8923" gradientTransform="matrix(.07342129 .52526417 -.70830317 .10297201 73.675037 21.330173)" gradientUnits="userSpaceOnUse" r="21.96875"><stop offset="0" stop-color="#f8bcf0"/><stop offset="1" stop-color="#d53ec1"/></radialGradient><linearGradient id="g" gradientTransform="matrix(1 0 0 .53794216 0 41.117314)" gradientUnits="userSpaceOnUse" x1="40.572731" x2="40.653225" y1="77.304153" y2="51.54998"><stop offset="0" stop-color="#cab45f"/><stop offset="1" stop-color="#e6dbb3"/></linearGradient><radialGradient id="h" cx="48" cy="90.171875" gradientTransform="matrix(1.1535182 0 0 1.0030988 -7.383302 -.069338)" gradientUnits="userSpaceOnUse" r="42" xlink:href="#a"/><linearGradient id="i" gradientTransform="matrix(1.0006547 0 0 1.0072206 -.097398 -.435919)" gradientUnits="userSpaceOnUse" x1="36.357143" x2="36.357143" xlink:href="#a" y1="6" y2="63.893143"/><linearGradient id="j" gradientTransform="matrix(.99957151 0 0 1.0106258 -161.35758 19.894656)" gradientUnits="userSpaceOnUse" x1="200.82698" x2="200.80408" xlink:href="#b" y1="69.379395" y2="-12.996846"/><linearGradient id="k" gradientTransform="matrix(1.0199914 0 0 1.0224498 -165.69268 19.867033)" gradientUnits="userSpaceOnUse" x1="200.82698" x2="200.80408" xlink:href="#b" y1="69.379395" y2="-12.996846"/><linearGradient id="l" gradientTransform="matrix(1.0398208 0 0 1.0338687 -169.80793 19.867886)" gradientUnits="userSpaceOnUse" x1="200.82698" x2="200.80408" xlink:href="#b" y1="69.379395" y2="-12.996846"/><linearGradient id="m" gradientTransform="matrix(1.0593692 0 0 1.0429507 -173.91348 20.030331)" gradientUnits="userSpaceOnUse" x1="200.82698" x2="200.80408" xlink:href="#b" y1="69.379395" y2="-12.996846"/><linearGradient id="n" gradientTransform="matrix(1.0788343 0 0 1.0431445 -177.91277 20.929202)" gradientUnits="userSpaceOnUse" x1="200.82698" x2="200.80408" xlink:href="#b" y1="69.379395" y2="-12.996846"/><radialGradient id="o" cx="32.368572" cy="45.968353" gradientTransform="matrix(.3390543 -.08269054 .1017854 .41348788 -.809595 50.003049)" gradientUnits="userSpaceOnUse" r="21.96875"><stop offset="0" stop-color="#f5a1ea"/><stop offset="1" stop-color="#d437bf"/></radialGradient><radialGradient id="p" cx="21.465347" cy="68.990097" gradientTransform="matrix(1 0 0 .92805758 0 4.963315)" gradientUnits="userSpaceOnUse" r="11.009901"><stop offset="0"/><stop offset="1" stop-opacity="0"/></radialGradient><radialGradient id="q" cx="26.772278" cy="37.306931" gradientTransform="matrix(1 0 0 1.1615386 0 -6.026508)" gradientUnits="userSpaceOnUse" r="10.297029"><stop offset="0" stop-color="#f5b1ec"/><stop offset="1" stop-color="#f5b1ec" stop-opacity="0"/></radialGradient><radialGradient id="r" cx="26.772278" cy="37.306931" gradientTransform="matrix(1 0 0 1.1615386 0 -6.026508)" gradientUnits="userSpaceOnUse" r="10.297029"><stop offset="0" stop-color="#d538c1"/><stop offset="1" stop-color="#d538c1" stop-opacity="0"/></radialGradient><linearGradient id="s" gradientUnits="userSpaceOnUse" x1="35.526558" x2="41.694202" y1="60.632118" y2="71.404388"><stop offset="0" stop-color="#de62ce"/><stop offset="1" stop-color="#951f85"/></linearGradient><linearGradient id="t" gradientUnits="userSpaceOnUse" x1="13.661008" x2="16.52496" y1="14.232578" y2="9.267327"><stop offset="0" stop-color="#ad249a"/><stop offset="1" stop-color="#e273d3"/></linearGradient><linearGradient id="u" gradientUnits="userSpaceOnUse" x1="7.514366" x2="10.646555" y1="14.759853" y2="12.039604"><stop offset="0" stop-color="#9e218d"/><stop offset="1" stop-color="#cb2ab5"/></linearGradient><linearGradient id="v" gradientUnits="userSpaceOnUse" x1="39.298534" x2="3.054308" y1="46.943085" y2="48.282417"><stop offset="0" stop-color="#fefefe"/><stop offset="1" stop-color="#d1d1d1"/></linearGradient><linearGradient id="w" gradientUnits="userSpaceOnUse" x1="13.909604" x2="61.371082" y1="50.351406" y2="46.024628"><stop offset="0" stop-color="#d3d3d3"/><stop offset="1" stop-color="#fefefe"/></linearGradient><linearGradient id="x" gradientUnits="userSpaceOnUse" x1="64.056015" x2="65.100998" y1="77.702751" y2="19.677986"><stop offset="0" stop-color="#3d95f0"/><stop offset="1" stop-color="#a3cdf8"/></linearGradient><linearGradient id="y" gradientTransform="matrix(.72822021 0 0 .76340527 15.157539 -.839443)" gradientUnits="userSpaceOnUse" x1="49.976875" x2="49.983749" xlink:href="#a" y1="11.411653" y2="10.755789"/><linearGradient id="z" gradientTransform="matrix(.50807037 0 0 .54507683 35.869806 -.264435)" gradientUnits="userSpaceOnUse" x1="50.107143" x2="50.152069" xlink:href="#a" y1="14.6411" y2="12.907034"/><path d="m9.2956408 6.1987222c-3.583627 0-6.4392989 2.8316152-6.4392989 6.3240628v75.627969c0 3.492441 2.8556719 6.324062 6.4392989 6.324062 26.1129652-.606188 55.7365992-.08229 77.6423422 0 3.583607 0 6.473007-2.831621 6.473007-6.324062v-43.909861c-.566537.257569-1.18088.423779-1.854238.423779-2.359704 0-4.281634-1.786618-4.281634-3.976988 0-1.296562.682946-2.438367 1.719395-3.16203-1.049795-.958812-1.719395-2.295606-1.719395-3.781399 0-2.920494 2.515365-5.28092 5.630175-5.28092.171835 0 .337763.01848.505697.0326v-15.973149c0-3.4924475-2.8894-6.3240628-6.473007-6.3240628h-20.228145c.02159.1466529.0675.3042669.0675.4563755 0 1.8253081-1.625212 3.2924254-3.607341 3.2924254-1.982151 0-3.573644-1.4671173-3.573644-3.2924254 0-.1517669.01217-.310038.03365-.4563755h-1.550822c.297407.6437325.471989 1.3400935.471989 2.0862891 0 2.9204927-2.515364 5.3135177-5.630164 5.3135177-3.114788 0-5.630174-2.393025-5.630174-5.3135177 0-.7461956.174594-1.4425566.472001-2.0862891h-38.4671772z" fill="url(#n)" opacity=".08"/><path d="m9.9171772 5.3025869c-3.5189681 0-6.3231158 2.831089-6.3231158 6.3228891v75.613915c0 3.49179 2.8041477 6.322885 6.3231158 6.322885 25.6418168-.606075 54.7309578-.08227 76.2414628 0 3.518947 0 6.356215-2.831095 6.356215-6.322885v-43.901702c-.556315.25752-1.159574.423699-1.820783.423699-2.317127 0-4.204381-1.786286-4.204381-3.976248 0-1.296321.670624-2.437913 1.688372-3.161443-1.030854-.958634-1.688372-2.295179-1.688372-3.780696 0-2.919951 2.469981-5.279939 5.528591-5.279939.168735 0 .331669.01848.496573.0326v-15.970178c0-3.4918001-2.837268-6.3228891-6.356215-6.3228891h-19.863174c.0212.1466255.06627.3042103.06627.4562907 0 1.8249689-1.595888 3.2918139-3.542255 3.2918139-1.946387 0-3.509166-1.466845-3.509166-3.2918139 0-.1517388.01195-.3099805.03304-.4562907h-1.522841c.292041.6436127.463474 1.3398444.463474 2.0859014 0 2.9199497-2.469981 5.3125307-5.528581 5.3125307-3.058589 0-5.52859-2.392581-5.52859-5.3125307 0-.746057.171443-1.4422887.463484-2.0859014h-37.7731239z" fill="url(#m)" opacity=".1"/><path d="m10.63052 5.2683898c-3.4540302 0-6.2064343 2.8064362-6.2064343 6.2678302v74.955493c0 3.461393 2.7524041 6.26783 6.2064343 6.26783 25.168661-.6008 53.721012-.0815 74.834594 0 3.45402 0 6.238923-2.806437 6.238923-6.26783v-43.519418c-.546041.255277-1.138158.42001-1.787188.42001-2.274352 0-4.126787-1.770732-4.126787-3.941625 0-1.285032.658252-2.416685 1.657222-3.133916-1.011841-.950285-1.657222-2.275192-1.657222-3.747774 0-2.894523 2.424415-5.23396 5.426561-5.23396.165635 0 .325577.01833.487414.03231v-15.831117c0-3.461394-2.784903-6.2678303-6.238923-6.2678303h-19.496634c.02073.1453492.06489.3015619.06489.4523186 0 1.8090771-1.566425 3.2631481-3.47689 3.2631481-1.910463 0-3.4444-1.454071-3.4444-3.2631481 0-.150418.01187-.3072829.0325-.4523186h-1.494738c.286647.6380086.454924 1.3281781.454924 2.0677389 0 2.8945234-2.424405 5.2662684-5.426572 5.2662684-3.002157 0-5.426571-2.371745-5.426571-5.2662684 0-.7395608.168286-1.4297303.454924-2.0677389h-37.076094z" fill="url(#l)" opacity=".2"/><path d="m11.304808 5.4287856c-3.3881582 0-6.0880715 2.7754397-6.0880715 6.1986024v74.12762c0 3.423154 2.6999133 6.198593 6.0880715 6.198593 24.6887-.594154 52.696563-.0806 73.407501 0 3.388148 0 6.119948-2.775439 6.119948-6.198593v-43.038753c-.535636.252456-1.116456.41537-1.753105.41537-2.230991 0-4.048099-1.751175-4.048099-3.89809 0-1.27084.645704-2.389993 1.625629-3.099302-.992552-.93979-1.625629-2.250062-1.625629-3.706381 0-2.862554 2.378178-5.176152 5.323077-5.176152.162484 0 .319365.01811.478127.03195v-15.656264c0-3.4231626-2.7318-6.1986023-6.119948-6.1986023h-19.124839c.02041.1437433.06373.2982302.06373.4473225 0 1.7890958-1.536553 3.2271069-3.41059 3.2271069-1.874027 0-3.378714-1.4380111-3.378714-3.2271069 0-.1487572.01161-.3038891.03182-.4473225h-1.466237c.281185.6309612.44624 1.3135083.44624 2.0449002 0 2.8625531-2.378167 5.2081031-5.323077 5.2081031-2.944909 0-5.323086-2.34555-5.323086-5.2081031 0-.7313919.165075-1.413939.44625-2.0449002h-36.369058z" fill="url(#k)" opacity=".3"/><path d="m12.096467 5.6233786c-3.3203337 0-5.9661991 2.7433425-5.9661991 6.1269184v73.270377c0 3.383575 2.6458654 6.126918 5.9661991 6.126918 24.194435-.5873 51.641568-.07968 71.937892 0 3.320323 0 5.997425-2.743343 5.997425-6.126918v-42.541035c-.524911.249538-1.094105.410567-1.718017.410567-2.186328 0-3.967047-1.730923-3.967047-3.853011 0-1.256142.632767-2.362354 1.593072-3.06346-.972652-.928921-1.593072-2.224042-1.593072-3.663519 0-2.829449 2.330573-5.116293 5.216512-5.116293.159232 0 .312962.01791.468552.03158v-15.475208c0-3.3835759-2.677102-6.1269184-5.997425-6.1269184h-18.741971c.02001.1420807.06243.2947816.06243.4421486 0 1.7684064-1.505797 3.1897883-3.342305 3.1897883-1.836518 0-3.311079-1.4213819-3.311079-3.1897883 0-.1470359.01131-.3003736.03112-.4421486h-1.436891c.275562.6236642.437326 1.2983178.437326 2.0212513 0 2.8294501-2.330563 5.1478761-5.216522 5.1478761-2.885939 0-5.216512-2.318426-5.216512-5.1478761 0-.7229335.161763-1.3975871.437306-2.0212513h-35.640942z" fill="url(#j)" opacity=".45"/><path d="m12 5.59375c-3.3217435 0-5.96875 2.7144988-5.96875 6.0625v72.5c0 3.348001 2.6470065 6.0625 5.96875 6.0625h28.65625c-.466194-.93515-.75-1.977848-.75-3.09375 0-3.849589 3.150411-6.96875 7-6.96875.918565 0 1.790814.208514 2.59375.53125.345855-2.270503 2.239243-4 4.53125-4 2.537229 0 4.59375 2.12528 4.59375 4.75s-2.056521 4.75-4.59375 4.75c-.07432 0-.145297-.02764-.21875-.03125.0436.315193.0625.641535.0625.96875 0 1.115902-.283806 2.1586-.75 3.09375h30.84375c3.321743 0 6-2.714499 6-6.0625v-42.09375c-.52514.246914-1.094581.40625-1.71875.40625-2.187267 0-3.96875-1.712724-3.96875-3.8125 0-1.242935.633045-2.337516 1.59375-3.03125-.97308-.919155-1.59375-2.200659-1.59375-3.625 0-2.799701 2.331558-5.0625 5.21875-5.0625.159293 0 .313086.01772.46875.03125v-15.3125c0-3.3480012-2.678257-6.0625-6-6.0625h-18.75c.02003.1405871.0625.2916822.0625.4375 0 1.7498135-1.506446 3.15625-3.34375 3.15625s-3.3125-1.4064365-3.3125-3.15625c0-.1454901.01131-.2972157.03125-.4375h-1.4375c.275667.6171068.4375 1.2846675.4375 2 0 2.799701-2.331558 5.09375-5.21875 5.09375s-5.21875-2.294049-5.21875-5.09375c0-.7153325.161833-1.3828932.4375-2z" fill="url(#x)"/><path d="m22.15625 71.976795c-1.336327 0-2.553895.273707-4.90625 1.136091-6.272947 2.299691-11.1875 1.537067-11.1875 1.537067s-.1942998 11.246342 0 13.013586c.2624719 2.3873 5.129831 2.64929 5.129831 2.64929s62.023218.169361 72.466787.07373c3.664817-.03356 6.232544-1.286491 6.301582-2.604935.09108-1.739489.08293-14.567103.08293-14.567103s-.197158.09827-8.262376 1.823042c-8.065218 1.724768-11.19535-.0045-18.8125.187121-7.617154.191639-13.453656-2.486039-27.343754-2.486039-8.681311 0-11.241539-.76185-13.46875-.76185zm44.21875 6.348751c3.149664 0 5.71875 1.106833 5.71875 2.472671 0 .06745-.01896.134408-.03125.200488.261961-.0202.537215-.0401.8125-.0401 2.537229 0 4.59375.900972 4.59375 2.004868 0 1.103898-2.056521 2.00487-4.59375 2.00487-2.410577 0-4.371139-.817135-4.5625-1.84448-.607371.09518-1.2555.147024-1.9375.147024-3.149664 0-5.6875-1.106834-5.6875-2.472672s2.537836-2.472672 5.6875-2.472672z" opacity=".2"/><path d="m22.15625 70.867884c-1.336327 0-2.553895.290168-4.90625 1.204415-6.272947 2.437993-11.1875 1.629505-11.1875 1.629505s-.1942998 11.92269 0 13.796215c.2624719 2.53087 5.129831 2.808616 5.129831 2.808616s62.023218.179546 72.466787.07816c3.664817-.03558 6.232544-1.36386 6.301582-2.761594.09108-1.844101.08293-15.443159.08293-15.443159s-.197158.104184-8.262376 1.932678c-8.065218 1.828495-11.19535-.0048-18.8125.198375-7.617154.203168-13.453656-2.635544-27.343754-2.635544-8.681311 0-11.241539-.807667-13.46875-.807667zm44.21875 6.730561c3.149664 0 5.71875 1.173397 5.71875 2.621376 0 .07151-.01896.142491-.03125.212545.261961-.02141.537215-.04251.8125-.04251 2.537229 0 4.59375.955156 4.59375 2.12544 0 1.170285-2.056521 2.125441-4.59375 2.125441-2.410577 0-4.371139-.866277-4.5625-1.955405-.607371.100906-1.2555.155865-1.9375.155865-3.149664 0-5.6875-1.173398-5.6875-2.621376 0-1.447979 2.537836-2.621377 5.6875-2.621377z" opacity=".307018"/><path d="m22.15625 69.600557c-1.336327 0-2.553895.30898-4.90625 1.2825-6.272947 2.596052-11.1875 1.735148-11.1875 1.735148s-.1942998 12.695659 0 14.690648c.2624719 2.69495 5.129831 2.990703 5.129831 2.990703s62.023218.191186 72.466787.08323c3.664817-.03789 6.232544-1.452282 6.301582-2.940633.09108-1.963658.08293-16.444366.08293-16.444366s-.197158.110938-8.262376 2.057977-11.19535-.0051-18.8125.211236c-7.617154.216337-13.453656-2.806413-27.343754-2.806413-8.681311 0-11.241539-.86003-13.46875-.86003zm44.21875 7.166915c3.149664 0 5.71875 1.249471 5.71875 2.791325 0 .07614-.01896.151729-.03125.226324.261961-.0228.537215-.04526.8125-.04526 2.537229 0 4.59375 1.01708 4.59375 2.263236s-2.056521 2.263236-4.59375 2.263236c-2.410577 0-4.371139-.922439-4.5625-2.082177-.607371.107448-1.2555.16597-1.9375.16597-3.149664 0-5.6875-1.249471-5.6875-2.791324 0-1.541854 2.537836-2.791325 5.6875-2.791326z" opacity=".447368"/><path d="m18.567347 19.372418-11.7267504-9.4249147-.222366 9.8632827 6.5510884.657553z" fill="url(#u)"/><path d="m22.15625 67.224319c-1.336327 0-2.553895.344253-4.90625 1.428909-6.272947 2.892413-11.1875 1.933229-11.1875 1.933229s-.1942998 14.144976 0 16.367709c.2624719 3.002602 5.129831 3.332117 5.129831 3.332117s62.023218.213012 72.466787.09273c3.664817-.04221 6.232544-1.618073 6.301582-3.276332.09108-2.187826.08293-18.321628.08293-18.321628s-.197158.123602-8.262376 2.292912-11.19535-.0057-18.8125.23535c-7.617154.241037-13.453656-3.126786-27.343754-3.126786-8.681311 0-11.241539-.95821-13.46875-.95821zm44.21875 7.985079c3.149664 0 5.71875 1.392109 5.71875 3.109978 0 .08483-.01896.169051-.03125.252161.261961-.0254.537215-.05043.8125-.05043 2.537229 0 4.59375 1.133188 4.59375 2.521603 0 1.388416-2.056521 2.521604-4.59375 2.521604-2.410577 0-4.371139-1.027743-4.5625-2.319875-.607371.119714-1.2555.184917-1.9375.184917-3.149664 0-5.6875-1.392109-5.6875-3.109978s2.537836-3.109978 5.6875-3.109979z" fill="url(#g)"/><path d="m32.475248 68.990097a11.009901 10.217822 0 1 1 -22.019802 0 11.009901 10.217822 0 1 1 22.019802 0z" fill="url(#p)" opacity=".758772" transform="matrix(2.1259327 0 -.29195624 1.2635659 3.473457 -9.153734)"/><path d="m50.049189 38.406171c-.628863-.146627-1.26284-.250839-1.889536-.319631l-6.327852 20.293808c.581738.212971 1.190364.39849 1.819226.545118 6.975076 1.626334 14.062816-1.648942 15.829469-7.314701 1.766652-5.665761-2.45623-11.57826-9.431307-13.204594z" fill="url(#f)"/><rect fill="url(#e)" height="23.445545" rx="5.995927" ry="6.043324" transform="matrix(.93650803 -.35064614 .35064614 .93650803 0 0)" width="46.574257" x="10.890341" y="36.596649"/><path d="m27.455653 17.620214-15.993264-11.0164618-.761584 11.5288558 9.392869.768591z" fill="url(#t)"/><path d="m32.475248 68.990097a11.009901 10.217822 0 1 1 -22.019802 0 11.009901 10.217822 0 1 1 22.019802 0z" fill="url(#p)" opacity=".833333" transform="matrix(1.0538063 -.40651497 .66680656 1.7285586 -25.455049 -69.26012)"/><path d="m39.13318 64.37284c-.516112-.307074-1.053905-.584943-1.599242-.834743l-13.920935 12.735203c.446434.340278.928454.669172 1.444565.976245 5.724497 3.405928 13.517119 3.284561 17.403659-.270938 3.886539-3.555498 2.39645-9.199839-3.328047-12.605767z" fill="url(#c)"/><path d="m27.783059 69.100833c-.583708-.384258-1.191936-.731971-1.808699-1.044558l-15.74417 15.936242c.504904.425809 1.050055.837371 1.633762 1.221627 6.474237 4.262022 15.287468 4.110147 19.683031-.339037 4.395564-4.449187 2.710315-11.512254-3.763924-15.774274z" fill="url(#d)"/><path d="m11.275043 13.976591c-1.9168195 0-3.5305489.25044-5.3722457.495894l.056008 69.097752c1.8416968.245454 3.3994178.27186 5.3162377.27186 21.260553 0 38.498366-15.641581 38.498366-34.932753s-17.237813-34.932753-38.498366-34.932753z" fill="url(#s)"/><path d="m37.069306 37.306931a10.297029 11.960396 0 1 1 -20.594057 0 10.297029 11.960396 0 1 1 20.594057 0z" fill="url(#r)" opacity=".644737" transform="matrix(1.4538461 0 0 .99999997 -16.98218 32.316832)"/><path d="m37.069306 37.306931a10.297029 11.960396 0 1 1 -20.594057 0 10.297029 11.960396 0 1 1 20.594057 0z" fill="url(#r)" opacity=".644737" transform="matrix(1.1538461 0 0 1.013245 -12.514852 21.842502)"/><path d="m37.069306 37.306931a10.297029 11.960396 0 1 1 -20.594057 0 10.297029 11.960396 0 1 1 20.594057 0z" fill="url(#q)" opacity=".452381" transform="matrix(1.0153846 0 0 .99337749 -2.946535 -5.535112)"/><path d="m37.069306 37.306931a10.297029 11.960396 0 1 1 -20.594057 0 10.297029 11.960396 0 1 1 20.594057 0z" fill="url(#q)" opacity=".811404" transform="translate(2.217821 7.762376)"/><path d="m37.069306 37.306931a10.297029 11.960396 0 1 1 -20.594057 0 10.297029 11.960396 0 1 1 20.594057 0z" fill="url(#q)" opacity=".644737" transform="matrix(1.6461538 0 0 1.1456953 -16.665349 13.099207)"/><path d="m37.069306 37.306931a10.297029 11.960396 0 1 1 -20.594057 0 10.297029 11.960396 0 1 1 20.594057 0z" fill="url(#r)" opacity=".644737" transform="matrix(1.1538461 0 0 1.013245 -17.742576 16.456364)"/><path d="m32.475248 68.990097a11.009901 10.217822 0 1 1 -22.019802 0 11.009901 10.217822 0 1 1 22.019802 0z" fill="url(#p)" opacity=".833333" transform="matrix(.90647482 0 0 1.3100775 -5.358786 -20.758614)"/><path d="m37.069306 37.306931a10.297029 11.960396 0 1 1 -20.594057 0 10.297029 11.960396 0 1 1 20.594057 0z" fill="url(#r)" opacity=".644737" transform="matrix(1.1538461 0 0 1.013245 -13.782179 .773196)"/><path d="m8.0600249 58.855346c-.6445758.0386-1.2819701.119321-1.9022946.231917l-.2842046 21.255578c.618304.03842 1.2545612.04286 1.8991363.0043 7.149357-.428207 13.010309-5.58696 13.089656-11.521233.07935-5.934274-5.652935-10.398725-12.8022931-9.970562z" fill="url(#o)"/><path d="m37.069306 37.306931a10.297029 11.960396 0 1 1 -20.594057 0 10.297029 11.960396 0 1 1 20.594057 0z" fill="url(#q)" opacity=".951754" transform="matrix(1.0923077 0 0 1.1854305 -1.045545 -7.076258)"/><path d="m37.069306 37.306931a10.297029 11.960396 0 1 1 -20.594057 0 10.297029 11.960396 0 1 1 20.594057 0z" fill="url(#q)" opacity=".811404" transform="translate(1.267326 -1.90099)"/><path d="m37.069306 37.306931a10.297029 11.960396 0 1 1 -20.594057 0 10.297029 11.960396 0 1 1 20.594057 0z" fill="url(#q)" opacity=".811404" transform="matrix(1.3153846 0 0 1.1523179 -14.067328 -7.187463)"/><path d="m72.138893 48.728863a36.517513 34.725243 0 1 1 -73.03502642 0 36.517513 34.725243 0 1 1 73.03502642 0z" fill="url(#w)" transform="matrix(.23539175 0 0 .29290316 22.67309 25.046602)"/><path d="m72.138893 48.728863a36.517513 34.725243 0 1 1 -73.03502642 0 36.517513 34.725243 0 1 1 73.03502642 0z" fill="url(#v)" transform="matrix(.25223778 0 0 .35483865 10.083529 23.820827)"/><path d="m37.069306 37.306931a10.297029 11.960396 0 1 1 -20.594057 0 10.297029 11.960396 0 1 1 20.594057 0z" fill="url(#r)" opacity=".644737" transform="matrix(.59230755 0 0 1.3509933 27.944556 -.817257)"/><path d="m72.138893 48.728863a36.517513 34.725243 0 1 1 -73.03502642 0 36.517513 34.725243 0 1 1 73.03502642 0z" transform="matrix(.09624864 0 0 .12419348 30.062715 32.315489)"/><path d="m23.708208 58.416247s8.044676 5.416759 15.945391-8.902616" fill="none" opacity=".723684" stroke="#3d042b" stroke-linecap="round" stroke-width="3.810221"/><path d="m72.138893 48.728863a36.517513 34.725243 0 1 1 -73.03502642 0 36.517513 34.725243 0 1 1 73.03502642 0z" transform="matrix(.11284323 0 0 .14193541 17.715324 35.181107)"/><path d="m23.555591 57.394246s8.03704 4.839926 16.030128-8.102898" fill="none" stroke="#a0096f" stroke-linecap="round" stroke-width="3.621247"/><path d="m11.90625 5.59375c-3.326175-.00184-6 2.7144992-6 6.0625v2 68.5 2c0 .337137.041315.679653.09375 1 .048732.29773.09698.594906.1875.875.00988.03059.020885.06339.03125.09375.09893.289848.2347884.545538.375.8125.1446865.275482.3154954.533841.5.78125.1845045.247409.3736326.471927.59375.6875.4402351.431147.9425453.843759 1.5 1.125.2787274.14062.5732753.246248.875.34375-.2563699-.100946-.486559-.235271-.71875-.375-.00742-.0045-.023861.0045-.03125 0-.031954-.01944-.062271-.04237-.09375-.0625-.1204736-.077249-.2309487-.162888-.34375-.25-.1062422-.081383-.2132159-.16047-.3125-.25-.1780463-.162599-.3473598-.375297-.5-.5625-.1076493-.131195-.2183323-.264268-.3125-.40625-.0251054-.038659-.03843-.085591-.0625-.125-.0648054-.103776-.13019-.203737-.1875-.3125-.1010745-.196111-.2056253-.414189-.28125-.625-.0079606-.02197-.0235838-.0404-.03125-.0625-.0318455-.09261-.0357864-.186149-.0625-.28125-.0303524-.107387-.0703738-.202241-.09375-.3125-.072927-.343978-.125-.695575-.125-1.0625v-2.03125-68.46875-2.03125c0-2.8019346 2.21633-5.03125 5-5.03125h2 33.34375c-.0046-.091743-.03125-.188348-.03125-.28125 0-.6140638.232764-1.1806918.419864-1.730198zm45.334777.019802c.187661.5502433.41151 1.095366.41151 1.710396 0 .092902-.01675.2291114-.02135.320854l.743813-.019802h.71875c-.274897-.4561979-.46875-.969538-.46875-1.53125 0-.1738467.03359-.3338383.0625-.5zm7.989171-.019802c.02891.1661617.0625.3360543.0625.509901 0 .561712-.172504 1.0552501-.447401 1.511448l17.123453.0099h2c2.783669 0 5 2.2293154 5 5.03125v2.03125 12.1875c.02088-.000272.04156 0 .0625 0 .32492 0 .630463.03116.9375.09375v-13.3125-2c0-3.3480009-2.673823-6.0625-6-6.0625zm24.738552 36.46875c-.315407.14559-.645486.250633-1 .3125v40.78125 2.03125c0 .366925-.05208.718522-.125 1.0625-.04418.208386-.08834.396242-.15625.59375-.0077.02211-.0233.04053-.03125.0625-.06277.174994-.13833.366267-.21875.53125-.04161.0834-.07901.169376-.125.25-.05463.09791-.126735.187679-.1875.28125-.09418.141982-.204851.275055-.3125.40625-.143267.175709-.303033.377143-.46875.53125-.01118.01027-.01998.02107-.03125.03125-.138476.126463-.284991.233646-.4375.34375-.102639.07368-.204247.152891-.3125.21875-.0074.0046-.02383-.0045-.03125 0-.23219.139729-.462382.274054-.71875.375.301725-.0975.596273-.20313.875-.34375.557455-.281241 1.059764-.693853 1.5-1.125.220117-.215573.409245-.440091.59375-.6875.184504-.247409.355315-.505768.5-.78125.140212-.266962.276071-.522652.375-.8125.01041-.031.02132-.06252.03125-.09375.09052-.280094.138768-.57727.1875-.875.05243-.320347.09375-.662863.09375-1v-2z" fill="url(#i)" opacity=".3"/><path d="m72.712873 27.881187a4.5148516 10.930693 0 1 1 -9.029704 0 4.5148516 10.930693 0 1 1 9.029704 0z" fill="#b9b9b9" opacity=".714286" transform="matrix(.65152709 -.20144147 .3716728 .93655697 12.689612 13.84341)"/><path d="m12.103611 90.381959c-3.3130997 0-5.9803253-2.695323-5.9803253-6.043323v-2.014442-68.490999-2.014442c0-.337137.041214-.655398.093443-.975745.04854-.29773.096721-.601225.1868849-.8813171.00984-.030599.020824-.06406.031148-.094427.0985402-.2898489.2341094-.5514048.3737697-.8183667.1441178-.2754818.3145813-.5394825.4983607-.7868911.1837792-.2474085.3725508-.4768907.591803-.6924641.4385046-.4311468.9398182-.8204074 1.4950816-1.1016475.2776317-.1406201.5715928-.2487301.8721314-.3462321-.255362.1009457-.4851153.237978-.7163937.3777077-.00739.00443-.023787-.00453-.031148 0-.031829.019439-.062088.042817-.093443.062951-.1199993.0772541-.2302642.164694-.3426222.2518055-.1058244.0813834-.2125813.1622753-.3114751.2518051-.1773465.1625987-.3463204.3478819-.4983604.5350859-.1072263.1311956-.2176781.2672005-.3114755.4091834-.0250067.0386573-.0383196.0864897-.062295.1259026-.0645507.1037759-.1298005.2059937-.1868852.3147564-.1006771.1961119-.2050003.4187026-.2803278.6295129-.00793.021967-.023511.040842-.031148.062951-.03172.092614-.035686.18818-.062295.2832807-.030233.1073879-.070159.2044971-.093443.3147565-.072639.3439779-.1245896.7032459-.1245896 1.0701719v2.014441 68.491 2.01444c0 2.801935 2.2108786 5.036103 4.9836045 5.036103h1.993443 67.777032 1.993443c2.772726 0 4.983606-2.234168 4.983606-5.036103v-2.01444-68.491-2.014441c0-.366926-.05196-.726194-.124591-1.0701717-.04401-.2083869-.08809-.4005294-.155737-.5980372-.0077-.022109-.02322-.040984-.03115-.062951-.06254-.1749938-.137931-.3701025-.218036-.5350862-.041445-.083398-.078778-.1711811-.124589-.2518051-.05442-.097912-.126359-.18971-.186886-.2832808-.093798-.1419829-.204246-.2779878-.311471-.4091834-.142704-.1757096-.302147-.3495035-.467213-.5036103-.011133-.0102736-.019915-.0213027-.031148-.0314756-.137932-.1264626-.284156-.2361288-.436066-.3462321-.102234-.0736782-.203647-.1544713-.311474-.2203295-.0074-.00453-.02375.00443-.03114 0-.231283-.1397297-.461038-.276762-.716399-.3777077.300539.097499.594499.205612.87213.3462321.555264.2812401 1.056577.6705007 1.495082 1.1016475.219252.2155734.408025.4450556.591802.6924641.18378.2474086.354244.5114093.498362.7868911.13966.2669619.275229.5285178.373771.8183667.01037.031002.02125.063193.03114.094427.09016.2800921.138345.5835871.186886.8813171.05222.320347.09345.638607.09345.975745v2.014442 68.490999 2.014442c0 3.348-2.667226 6.043323-5.980327 6.043323h-71.763916z" fill="url(#h)" opacity=".385714"/><g fill="none"><path d="m47.489109 6.5818235c-.457042.6626627-.729365 1.4000608-.729365 2.2109432 0 2.5547483 2.585883 4.6349893 5.771506 4.6349893s5.771506-2.080241 5.771506-4.6349893c0-.8108824-.272323-1.5482805-.729365-2.2109432z" opacity=".3" stroke="url(#y)" stroke-width="2.23405"/><path d="m57.964676 6.2652211c-.01589.1192532-.03114.2248412-.03114.3475661 0 1.8241092 1.794374 3.301878 4.016944 3.301878 2.222571 0 4.016944-1.4777688 4.016944-3.301878 0-.1227249-.01525-.2283129-.03114-.3475661h-7.971612z" opacity=".3" stroke="url(#z)" stroke-width="1.576793"/><path d="m89.029703 26.455445s-3.615145.274149-4.871287 3.603961c-.947073 2.510527.316832 4.910891 1.386139 5.90099" opacity=".3" stroke="#fefefe"/><path d="m84.951337 36.060304s-1.705833 1.522631-.905592 3.709617c1.099119 3.003787 3.467011 3.14897 4.931787 3.106619" opacity=".12381" stroke="#fefefe" stroke-width=".746445"/></g><path d="m72.712873 27.881187a4.5148516 10.930693 0 1 1 -9.029704 0 4.5148516 10.930693 0 1 1 9.029704 0z" transform="matrix(.51778224 -.17815557 .29537617 .82829442 24.96769 14.719391)"/></svg>