<svg height="96" width="96" xmlns="http://www.w3.org/2000/svg" xmlns:xlink="http://www.w3.org/1999/xlink"><linearGradient id="a"><stop offset="0" stop-color="#fefefe"/><stop offset="1" stop-color="#fefefe" stop-opacity="0"/></linearGradient><linearGradient id="b" gradientUnits="userSpaceOnUse" x1="36.357143" x2="36.357143" xlink:href="#a" y1="6" y2="63.893143"/><radialGradient id="c" cx="48" cy="90.171875" gradientTransform="matrix(1.1573129 0 0 .99590774 -7.551021 .197132)" gradientUnits="userSpaceOnUse" r="42" xlink:href="#a"/><linearGradient id="d" gradientTransform="scale(1.0058652 .994169)" gradientUnits="userSpaceOnUse" x1="48" x2="48" y1="90" y2="5.987717"><stop offset="0" stop-color="#141414"/><stop offset="1" stop-color="#3c3c3c" stop-opacity=".968627"/></linearGradient><linearGradient id="e" gradientTransform="matrix(1.0058652 0 0 .994169 100 0)" gradientUnits="userSpaceOnUse" x1="45.447727" x2="45.447727" y1="92.539597" y2="7.01654"><stop offset="0"/><stop offset="1" stop-opacity=".588235"/></linearGradient><linearGradient id="f" gradientTransform="matrix(1.0238095 0 0 1.0119048 -1.142857 -98.071429)" gradientUnits="userSpaceOnUse" x1="32.251034" x2="32.251034" xlink:href="#e" y1="6.131708" y2="90.238609"/><linearGradient id="g" gradientTransform="translate(0 -97)" gradientUnits="userSpaceOnUse" x1="32.251034" x2="32.251034" xlink:href="#e" y1="6.131708" y2="90.238609"/><g><g fill="url(#f)"><path d="m12-95.03125c-5.5110903 0-10.03125 4.52016-10.03125 10.03125v71c0 5.5110902 4.5201598 10.03125 10.03125 10.03125h72c5.51109 0 10.03125-4.5201597 10.03125-10.03125v-71c0-5.51109-4.52016-10.03125-10.03125-10.03125z" opacity=".08" transform="scale(1 -1)"/><path d="m12-94.03125c-4.971633 0-9.03125 4.059617-9.03125 9.03125v71c0 4.9716329 4.0596171 9.03125 9.03125 9.03125h72c4.971633 0 9.03125-4.059617 9.03125-9.03125v-71c0-4.971633-4.059617-9.03125-9.03125-9.03125z" opacity=".1" transform="scale(1 -1)"/><path d="m12-93c-4.4091333 0-8 3.590867-8 8v71c0 4.4091333 3.5908667 8 8 8h72c4.409133 0 8-3.5908667 8-8v-71c0-4.409133-3.590867-8-8-8z" opacity=".2" transform="scale(1 -1)"/><rect height="85" opacity=".3" rx="7" transform="scale(1 -1)" width="86" x="5" y="-92"/></g><rect fill="url(#g)" height="84" opacity=".45" rx="6" transform="scale(1 -1)" width="84" x="6" y="-91"/></g><rect fill="url(#d)" height="84" rx="6" width="84" x="6" y="6"/><path d="m12 6c-3.324 0-6 2.676-6 6v2 68 2c0 .334721.04135.6507.09375.96875.0487.295596.09704.596915.1875.875.00988.03038.020892.0636.03125.09375.098865.287771.2348802.547452.375.8125.1445918.273507.3156161.535615.5.78125s.3737765.473472.59375.6875c.439947.428056.94291.814526 1.5 1.09375.278545.139612.5734731.246947.875.34375-.2562018-.100222-.4867109-.236272-.71875-.375-.00741-.0044-.023866.0045-.03125 0-.031933-.0193-.062293-.04251-.09375-.0625-.120395-.0767-.2310226-.163513-.34375-.25-.1061728-.0808-.2132809-.161112-.3125-.25-.1779299-.161433-.3474596-.345388-.5-.53125-.1075789-.130255-.2183939-.265285-.3125-.40625-.025089-.03838-.038446-.08587-.0625-.125-.064763-.103032-.1302275-.204517-.1875-.3125-.1010083-.194706-.2056748-.415701-.28125-.625-.00796-.02181-.023589-.04055-.03125-.0625-.0318251-.09195-.0358045-.186831-.0625-.28125-.0303323-.106618-.0703894-.203031-.09375-.3125-.0728786-.341512-.125-.698205-.125-1.0625v-2-68-2c0-2.781848 2.2181517-5 5-5h2 68 2c2.781848 0 5 2.218152 5 5v2 68 2c0 .364295-.05212.720988-.125 1.0625-.04415.206893-.08838.397658-.15625.59375-.0077.02195-.0233.04069-.03125.0625-.06274.173739-.138383.367449-.21875.53125-.04158.0828-.07904.169954-.125.25-.0546.09721-.126774.18835-.1875.28125-.09411.140965-.204921.275995-.3125.40625-.143174.17445-.303141.346998-.46875.5-.01117.0102-.01998.02115-.03125.03125-.138386.125556-.285091.234436-.4375.34375-.102571.07315-.204318.153364-.3125.21875-.0074.0045-.02384-.0044-.03125 0-.232039.138728-.462548.274778-.71875.375.301527-.0968.596455-.204138.875-.34375.55709-.279224 1.060053-.665694 1.5-1.09375.219973-.214028.409366-.441865.59375-.6875s.355408-.507743.5-.78125c.14012-.265048.276135-.524729.375-.8125.01041-.03078.02133-.06274.03125-.09375.09046-.278085.1388-.579404.1875-.875.0524-.31805.09375-.634029.09375-.96875v-2-68-2c0-3.324-2.676-6-6-6z" fill="url(#b)" opacity=".2"/><path d="m12 90c-3.324 0-6-2.676-6-6v-2-68-2c0-.334721.04135-.6507.09375-.96875.0487-.295596.09704-.596915.1875-.875.00988-.03038.020892-.0636.03125-.09375.098865-.287771.2348802-.547452.375-.8125.1445918-.273507.3156161-.535615.5-.78125s.3737765-.473472.59375-.6875c.439947-.428056.94291-.814526 1.5-1.09375.278545-.139612.5734731-.246947.875-.34375-.2562018.100222-.4867109.236272-.71875.375-.00741.0044-.023866-.0045-.03125 0-.031933.0193-.062293.04251-.09375.0625-.120395.0767-.2310226.163513-.34375.25-.1061728.0808-.2132809.161112-.3125.25-.1779299.161433-.3474596.345388-.5.53125-.1075789.130255-.2183939.265285-.3125.40625-.025089.03838-.038446.08587-.0625.125-.064763.103032-.1302275.204517-.1875.3125-.1010083.194706-.2056748.415701-.28125.625-.00796.02181-.023589.04055-.03125.0625-.0318251.09195-.0358045.186831-.0625.28125-.0303323.106618-.0703894.203031-.09375.3125-.0728786.341512-.125.698205-.125 1.0625v2 68 2c0 2.781848 2.2181517 5 5 5h2 68 2c2.781848 0 5-2.218152 5-5v-2-68-2c0-.364295-.05212-.720988-.125-1.0625-.04415-.206893-.08838-.397658-.15625-.59375-.0077-.02195-.0233-.04069-.03125-.0625-.06274-.173739-.138383-.367449-.21875-.53125-.04158-.0828-.07904-.169954-.125-.25-.0546-.09721-.126774-.18835-.1875-.28125-.09411-.140965-.204921-.275995-.3125-.40625-.143174-.17445-.303141-.346998-.46875-.5-.01117-.0102-.01998-.02115-.03125-.03125-.138386-.125556-.285091-.234436-.4375-.34375-.102571-.07315-.204318-.153364-.3125-.21875-.0074-.0045-.02384.0044-.03125 0-.232039-.138728-.462548-.274778-.71875-.375.301527.0968.596455.204138.875.34375.55709.279224 1.060053.665694 1.5 1.09375.219973.214028.409366.441865.59375.6875s.355408.507743.5.78125c.14012.265048.276135.524729.375.8125.01041.03078.02133.06274.03125.09375.09046.278085.1388.579404.1875.875.0524.31805.09375.634029.09375.96875v2 68 2c0 3.324-2.676 6-6 6z" fill="url(#c)" opacity=".2"/><g transform="matrix(-.72722719 0 0 .72722719 131.027422 16.154097)"><path d="m98.441012 19.663224c-18.225397 0-33.000001 12.088312-33.000001 27 0 9.498438 5.99976 17.843462 15.062501 22.65625-.344625 2.508754-1.914014 8.649817-9.343751 10.75 9.622916 1.045823 16.013602-3.646306 19.406251-7.1875 2.523507.505501 5.161067.78125 7.875.78125 18.225398 0 32.999998-12.088312 32.999998-27s-14.7746-27-32.999998-27z" fill="#cfd9e6"/><path d="m65.441011 47.069474c-.0053.200069 0 .392631 0 .59375 0 9.441618 5.934255 17.73658 14.906251 22.5625.06714-.329302.120551-.646372.15625-.90625-8.933716-4.744269-14.894684-12.91964-15.062501-22.25zm65.999999.09375c-.33036 14.677737-14.9816 26.5-32.999998 26.5-2.713933 0-5.351493-.275749-7.875-.78125-3.113855 3.250193-8.747725 7.449531-17.093751 7.3125-.700608.332399-1.466906.635974-2.3125.875 9.622916 1.045823 16.013602-3.646306 19.406251-7.1875 2.523507.505501 5.161067.78125 7.875.78125 18.225398 0 32.999998-12.088312 32.999998-27 0-.169364.004-.331378 0-.5z" fill="#fefefe" opacity=".2"/><path d="m98.441012 19.663224c-18.225397 0-33.000001 12.088312-33.000001 27 0 9.498438 5.99976 17.843462 15.062501 22.65625-.344625 2.508754-1.914014 8.649817-9.343751 10.75 9.622916 1.045823 16.013602-3.646306 19.406251-7.1875 2.523507.505501 5.161067.78125 7.875.78125 18.225398 0 32.999998-12.088312 32.999998-27s-14.7746-27-32.999998-27zm0 2.9375c16.920318 0 30.062498 11.100368 30.062498 24.0625s-13.14218 24.0625-30.062498 24.0625c-2.514011 0-4.943414-.281692-7.28125-.75a2.9517629 2.9517629 0 0 0 -2.71875.875c-1.62088 1.691849-4.004104 3.567605-7.125 4.875 1.341535-2.353896 1.934715-4.614792 2.125-6a2.9517629 2.9517629 0 0 0 -1.5625-3c-8.291129-4.403022-13.500001-11.80694-13.500001-20.0625 0-12.962132 13.142179-24.0625 30.062501-24.0625z" opacity=".05"/><path d="m98.441012 19.663224c-18.225397 0-33.000001 12.088312-33.000001 27 0 9.498438 5.99976 17.843462 15.062501 22.65625-.344625 2.508754-1.914014 8.649817-9.343751 10.75 9.622916 1.045823 16.013602-3.646306 19.406251-7.1875 2.523507.505501 5.161067.78125 7.875.78125 18.225398 0 32.999998-12.088312 32.999998-27s-14.7746-27-32.999998-27zm0 1.875c17.393218 0 31.124998 11.456439 31.124998 25.125s-13.73178 25.125-31.124998 25.125c-2.586453 0-5.094885-.268215-7.5-.75a1.8821808 1.8821808 0 0 0 -1.71875.53125c-2.229762 2.327391-5.862118 5.104965-10.90625 6.21875.603013-.636706 1.319873-1.240512 1.75-1.90625 1.573141-2.434865 2.115946-4.881651 2.3125-6.3125a1.8821808 1.8821808 0 0 0 -1-1.90625c-8.570726-4.551502-14.062501-12.294079-14.062501-21 0-13.668561 13.73178-25.125 31.125001-25.125z" opacity=".08"/><path d="m98.441012 19.663224c-18.225397 0-33.000001 12.088312-33.000001 27 0 9.498438 5.99976 17.843462 15.062501 22.65625-.344625 2.508754-1.914014 8.649817-9.343751 10.75 9.622916 1.045823 16.013602-3.646306 19.406251-7.1875 2.523507.505501 5.161067.78125 7.875.78125 18.225398 0 32.999998-12.088312 32.999998-27s-14.7746-27-32.999998-27zm0 1.0625c17.757198 0 31.937498 11.725217 31.937498 25.9375s-14.1803 25.9375-31.937498 25.9375c-2.642211 0-5.199353-.257842-7.65625-.75a1.0589482 1.0589482 0 0 0 -.96875.3125c-2.643757 2.759512-7.248859 6.049087-13.78125 6.71875 1.442602-1.037266 2.550304-2.240676 3.34375-3.46875 1.481728-2.293379 2.001549-4.583837 2.1875-5.9375a1.0589482 1.0589482 0 0 0 -.5625-1.09375c-8.785924-4.665784-14.500001-12.666196-14.500001-21.71875 0-14.212283 14.180301-25.9375 31.937501-25.9375z" opacity=".15"/></g><path d="m38.498256 20.230604c-15.1869 0-27.498316 10.072976-27.498316 22.498621 0 7.91488 4.999494 14.86864 12.551315 18.879051-.28717 2.090501-1.594914 7.207739-7.785982 8.957785 8.018605.871465 13.343851-3.038403 16.170885-5.989217 2.102794.421225 4.300625.651002 6.562098.651002 15.1869 0 27.498314-10.072976 27.498314-22.498621s-12.311414-22.498621-27.498314-22.498621z" fill="#1586ff"/><path d="m10.99994 43.067746c-.0044.166714 0 .327172 0 .494761 0 7.867533 4.94491 14.779578 12.421115 18.800931.05595-.274401.100453-.53861.1302-.755162-7.444307-3.953315-12.411476-10.765706-12.551315-18.54053zm54.99663.07812c-.27528 12.230698-12.483904 22.08198-27.498314 22.08198-2.261473 0-4.459304-.229777-6.562098-.651002-2.59472 2.708329-7.289324 6.207562-14.24392 6.093377-.583804.276982-1.222346.529946-1.926965.729122 8.018605.871466 13.343851-3.038402 16.170885-5.989216 2.102794.421225 4.300625.651001 6.562098.651001 15.1869 0 27.498314-10.072976 27.498314-22.498621 0-.141128.0032-.276131 0-.416641z" fill="#fefefe" opacity=".2"/><path d="m38.498256 20.230604c-15.1869 0-27.498316 10.072976-27.498316 22.498621 0 7.91488 4.999494 14.86864 12.551315 18.879051-.28717 2.090501-1.594914 7.207739-7.785982 8.957785 8.018605.871465 13.343851-3.038403 16.170885-5.989217 2.102794.421225 4.300625.651002 6.562098.651002 15.1869 0 27.498314-10.072976 27.498314-22.498621s-12.311414-22.498621-27.498314-22.498621zm0 2.447767c14.099404 0 25.050548 9.24974 25.050548 20.050854 0 10.801115-10.951144 20.050854-25.050548 20.050854-2.094881 0-4.11926-.234728-6.067337-.624961a2.4596517 2.4596517 0 0 0 -2.265486.729122c-1.35065 1.409788-3.336549 2.972822-5.937136 4.062251 1.117877-1.96146 1.612164-3.845425 1.770725-4.999694a2.4596517 2.4596517 0 0 0 -1.302004-2.499847c-6.90885-3.66896-11.249311-9.838513-11.249311-16.717725 0-10.801114 10.951145-20.050854 25.050549-20.050854z" opacity=".05"/><path d="m38.498256 20.230604c-15.1869 0-27.498316 10.072976-27.498316 22.498621 0 7.91488 4.999494 14.86864 12.551315 18.879051-.28717 2.090501-1.594914 7.207739-7.785982 8.957785 8.018605.871465 13.343851-3.038403 16.170885-5.989217 2.102794.421225 4.300625.651002 6.562098.651002 15.1869 0 27.498314-10.072976 27.498314-22.498621s-12.311414-22.498621-27.498314-22.498621zm0 1.562404c14.493462 0 25.93591 9.546448 25.93591 20.936217 0 11.38977-11.442448 20.936217-25.93591 20.936217-2.155246 0-4.245478-.223499-6.249617-.624962a1.5683879 1.5683879 0 0 0 -1.432204.442681c-1.858021 1.939374-4.884799 4.253877-9.087985 5.181974.50248-.530555 1.099827-1.033696 1.458244-1.588444 1.310871-2.02893 1.76318-4.067793 1.926965-5.260094a1.5683879 1.5683879 0 0 0 -.833282-1.588444c-7.141834-3.792686-11.718032-10.244438-11.718032-17.498928 0-11.389769 11.442448-20.936217 25.935911-20.936217z" opacity=".08"/><path d="m38.498256 20.230604c-15.1869 0-27.498316 10.072976-27.498316 22.498621 0 7.91488 4.999494 14.86864 12.551315 18.879051-.28717 2.090501-1.594914 7.207739-7.785982 8.957785 8.018605.871465 13.343851-3.038403 16.170885-5.989217 2.102794.421225 4.300625.651002 6.562098.651002 15.1869 0 27.498314-10.072976 27.498314-22.498621s-12.311414-22.498621-27.498314-22.498621zm0 .885363c14.796759 0 26.612952 9.770415 26.612952 21.613258s-11.816193 21.613259-26.612952 21.613259c-2.201708 0-4.332529-.214855-6.379818-.624962a.88240275.88240275 0 0 0 -.807242.260401c-2.202996 2.299452-6.040345 5.040597-11.483671 5.598615 1.202095-.864335 2.125123-1.867116 2.786288-2.890448 1.234697-1.911032 1.667855-3.81963 1.822805-4.947613a.88240275.88240275 0 0 0 -.468722-.911403c-7.321154-3.887915-12.082593-10.554516-12.082593-18.097849 0-11.842843 11.816193-21.613258 26.612953-21.613258z" opacity=".15"/></svg>