<svg height="96" width="96" xmlns="http://www.w3.org/2000/svg" xmlns:xlink="http://www.w3.org/1999/xlink"><linearGradient id="a" gradientUnits="userSpaceOnUse" x1="48" x2="48" y1="90" y2="5.9877"><stop offset="0" stop-color="#e6e6e6"/><stop offset="1" stop-color="#f5f5f5"/></linearGradient><linearGradient id="b" gradientTransform="matrix(1.0059 0 0 .99417 100 0)" gradientUnits="userSpaceOnUse" x1="45.448" x2="45.448" y1="92.54" y2="7.0165"><stop offset="0"/><stop offset="1" stop-opacity=".58824"/></linearGradient><linearGradient id="c" gradientTransform="matrix(1.0238 0 0 1.0119 -1.1429 -98.071)" gradientUnits="userSpaceOnUse" x1="32.251" x2="32.251" xlink:href="#b" y1="6.1317" y2="90.239"/><linearGradient id="d" gradientTransform="translate(0 -97)" gradientUnits="userSpaceOnUse" x1="32.251" x2="32.251" xlink:href="#b" y1="6.1317" y2="90.239"/><linearGradient id="e"><stop offset="0" stop-color="#fff"/><stop offset="1" stop-color="#fff" stop-opacity="0"/></linearGradient><radialGradient id="f" cx="48" cy="90.172" gradientTransform="matrix(1.1573 0 0 .99591 -7.551 .19713)" gradientUnits="userSpaceOnUse" r="42" xlink:href="#e"/><linearGradient id="g" gradientUnits="userSpaceOnUse" x1="36.357" x2="36.357" xlink:href="#e" y1="6" y2="63.893"/><linearGradient id="h" gradientUnits="userSpaceOnUse" x1="48" x2="48" xlink:href="#e" y1="56"/><radialGradient id="i" cx="47.977" cy="64.058" gradientUnits="userSpaceOnUse" r="24.023"><stop offset="0" stop-color="#5fbcd3"/><stop offset="1" stop-color="#5fbcd3" stop-opacity="0"/></radialGradient><radialGradient id="j" cx="60.563" cy="49.721" gradientUnits="userSpaceOnUse" r="19.437"><stop offset="0" stop-color="#80e5ff"/><stop offset=".5" stop-color="#80e5ff" stop-opacity=".4031"/><stop offset="1" stop-color="#80e5ff" stop-opacity="0"/></radialGradient><radialGradient id="k" cx="58.5" cy="37.5" gradientUnits="userSpaceOnUse" r="2.5" xlink:href="#e"/><radialGradient id="l" cx="56" cy="24" gradientUnits="userSpaceOnUse" r="16"><stop offset="0" stop-color="#00ce99"/><stop offset="1" stop-color="#00805f" stop-opacity="0"/></radialGradient><linearGradient id="m" gradientUnits="userSpaceOnUse" spreadMethod="reflect" x1="48" x2="48" y1="48" y2="72"><stop offset="0" stop-color="#5184cf"/><stop offset="1" stop-color="#123a76"/></linearGradient><clipPath id="n"><rect height="56" rx="3" width="72" x="12" y="20"/></clipPath><clipPath id="o"><rect height="56" rx="3" width="72" x="12" y="20"/></clipPath><linearGradient id="p"><stop offset="0"/><stop offset="1" stop-opacity="0"/></linearGradient><linearGradient id="q" gradientUnits="userSpaceOnUse" x1="44" x2="44" xlink:href="#p" y1="80" y2="-40.067"/><linearGradient id="r" gradientUnits="userSpaceOnUse" x1="48" x2="55.078" y1="56" y2="56"><stop offset="0"/><stop offset=".3" stop-color="#a5a5a5"/><stop offset=".6" stop-color="#4c4c4c"/><stop offset="1"/></linearGradient><linearGradient id="s" gradientUnits="userSpaceOnUse" x1="48" x2="56.154" xlink:href="#t" y1="56" y2="56"/><linearGradient id="t"><stop offset="0" stop-color="#a5a5a5"/><stop offset=".3" stop-color="#fff"/><stop offset=".6" stop-color="#a5a5a5"/><stop offset="1" stop-color="#636363"/></linearGradient><linearGradient id="u" gradientTransform="matrix(1 0 0 -1 0 112)" gradientUnits="userSpaceOnUse" x1="48" x2="55.869" xlink:href="#t" y1="56" y2="56"/><linearGradient id="v" gradientUnits="userSpaceOnUse" x1="48" x2="48" xlink:href="#p" y1="96" y2="31.678"/><radialGradient id="w" cx="32" cy="32" gradientUnits="userSpaceOnUse" r="8"><stop offset="0" stop-color="#ffb800"/><stop offset="1" stop-color="#ffb800" stop-opacity="0"/></radialGradient><radialGradient id="x" cx="29.095" cy="31.602" gradientUnits="userSpaceOnUse" r="7.2449"><stop offset="0" stop-color="#ffe375"/><stop offset="1" stop-color="#ffa600"/></radialGradient><radialGradient id="y" cx="39.049" cy="28.098" gradientTransform="matrix(.025219 1.5993 -.98834 .015584 65.834 -34.797)" gradientUnits="userSpaceOnUse" r="36.428"><stop offset="0" stop-color="#fff9b9"/><stop offset="1" stop-color="#fff79e" stop-opacity="0"/></radialGradient><linearGradient id="z" gradientTransform="matrix(.96593 .25882 -.25882 .96593 30.005 -25.916)" gradientUnits="userSpaceOnUse" x1="79.815" x2="39.328" xlink:href="#p" y1="106.04" y2="35.918"/><filter id="A" color-interpolation-filters="sRGB"><feGaussianBlur stdDeviation=".53347418"/></filter><g fill="url(#c)"><path d="m12-95.031c-5.5111 0-10.031 4.5202-10.031 10.031v71c0 5.5111 4.5202 10.031 10.031 10.031h72c5.5111 0 10.031-4.5202 10.031-10.031v-71c0-5.5111-4.5202-10.031-10.031-10.031z" opacity=".08" transform="scale(1 -1)"/><path d="m12-94.031c-4.9716 0-9.0312 4.0596-9.0312 9.0312v71c0 4.9716 4.0596 9.0312 9.0312 9.0312h72c4.9716 0 9.0312-4.0596 9.0312-9.0312v-71c0-4.9716-4.0596-9.0312-9.0312-9.0312z" opacity=".1" transform="scale(1 -1)"/><path d="m12-93c-4.4091 0-8 3.5909-8 8v71c0 4.4091 3.5909 8 8 8h72c4.4091 0 8-3.5909 8-8v-71c0-4.4091-3.5909-8-8-8z" opacity=".2" transform="scale(1 -1)"/><rect height="85" opacity=".3" rx="7" transform="scale(1 -1)" width="86" x="5" y="-92"/></g><rect fill="url(#d)" height="84" opacity=".45" rx="6" transform="scale(1 -1)" width="84" x="6" y="-91"/><rect fill="url(#a)" height="84" rx="6" width="84" x="6" y="6"/><path d="m12 6c-3.324 0-6 2.676-6 6v2 68 2c0 .33472.04135.6507.09375.96875.0487.2956.09704.59692.1875.875.0099.03038.02089.0636.03125.09375.09886.28777.23488.54745.375.8125.14459.27351.31562.53562.5.78125.18438.24564.37378.47347.59375.6875.43995.42806.94291.81453 1.5 1.0938.27854.13961.57347.24695.875.34375-.2562-.10022-.48671-.23627-.71875-.375-.0074-.0044-.02387.0045-.03125 0-.03193-.0193-.06229-.04251-.09375-.0625-.1204-.0767-.23102-.16351-.34375-.25-.10617-.0808-.21328-.16111-.3125-.25-.1778-.162-.3473-.346-.4999-.531-.1075-.131-.2183-.266-.3124-.407-.0251-.038-.0385-.086-.0626-.125-.0647-.103-.1302-.204-.1874-.312-.1011-.195-.2057-.416-.2813-.625-.008-.022-.0236-.041-.0313-.063-.0318-.092-.0358-.187-.0624-.281-.0304-.107-.0704-.203-.0938-.313-.0729-.341-.125-.698-.125-1.062v-2-68-2c0-2.782 2.2182-5 5-5h2 68 2c2.7818 0 5 2.2182 5 5v2 68 2c0 .3643-.05212.72099-.125 1.0625-.04415.20689-.08838.39766-.15625.59375-.0077.02195-.0233.04069-.03125.0625-.06274.17374-.13838.36745-.21875.53125-.04158.0828-.07904.16995-.125.25-.0546.09721-.12677.18835-.1875.28125-.09411.14096-.20492.276-.3125.40625-.14317.17445-.30314.347-.46875.5-.01117.0102-.01998.02115-.03125.03125-.13839.12556-.28509.23444-.4375.34375-.10257.07315-.20432.15336-.3125.21875-.0074.0045-.02384-.0044-.03125 0-.23204.13873-.46255.27478-.71875.375.30153-.0968.59646-.20414.875-.34375.55709-.27922 1.0601-.66569 1.5-1.0938.21997-.21403.40937-.44186.59375-.6875s.35541-.50774.5-.78125c.14012-.26505.27614-.52473.375-.8125.01041-.03078.02133-.06274.03125-.09375.09046-.27808.1388-.5794.1875-.875.053-.318.094-.634.094-.969v-2-68-2c0-3.324-2.676-6-6-6h-72z" fill="url(#g)" opacity=".5"/><path d="m12 90c-3.324 0-6-2.676-6-6v-2-68-2c0-.33472.04135-.6507.09375-.96875.0487-.2956.09704-.59692.1875-.875.0099-.03.0209-.063.0313-.094.0989-.2873.2349-.547.375-.812.1446-.2735.3156-.5356.5-.7812.1844-.2457.3738-.4735.5937-.6876.44-.428.943-.8145 1.5-1.0937.2786-.1396.5735-.2469.8748-.3437-.256.1002-.4865.2362-.7185.375-.00741.0044-.023866-.0045-.03125 0-.031933.0193-.062293.04251-.09375.0625-.1204.0767-.23102.16351-.34375.25-.10617.0808-.21328.16111-.3125.25-.1779.1614-.3474.3453-.5.5312-.1075.1303-.2183.2653-.3124.4063-.0251.0383-.0385.0858-.0626.125-.0647.103-.1302.2045-.1874.3124-.1011.1948-.2057.4158-.2813.625-.008.0219-.0236.0406-.0313.0626-.0318.0919-.0358.1868-.0624.2812-.0304.1066-.0704.203-.0938.3125-.0729.3415-.125.6985-.125 1.0625v2 68 2c0 2.7818 2.2182 5 5 5h2 68 2c2.7818 0 5-2.2182 5-5v-2-68-2c0-.364-.052-.721-.125-1.0625-.044-.2069-.088-.3977-.156-.5937-.008-.022-.024-.0407-.031-.0626-.063-.1737-.139-.3674-.219-.5312-.042-.0828-.079-.17-.125-.25-.055-.0972-.127-.1884-.188-.2812-.094-.141-.205-.276-.312-.4063-.143-.1745-.303-.347-.469-.5-.011-.0102-.02-.0211-.031-.0313-.139-.1255-.285-.2344-.438-.3437-.102-.0731-.204-.1534-.312-.2187-.0074-.0045-.02384.0044-.03125 0-.23204-.13873-.46255-.27478-.71875-.375.30153.0968.59646.20414.875.34375.55709.27922 1.0601.66569 1.5 1.0938.21997.21403.40937.44186.59375.6875s.35541.50774.5.78125c.14012.26505.27614.52473.375.8125.01041.03078.02133.06274.03125.09375.09046.27808.1388.5794.1875.875.053.318.094.634.094.969v2 68 2c0 3.324-2.676 6-6 6h-72z" fill="url(#f)" opacity=".4"/><rect fill="#f0f" height="84" rx="6" width="84" x="-94" y="6"/><path d="m112 8h16v16h-16z" fill="#fff" stroke="#000" stroke-dashoffset="8.6" stroke-linecap="round" stroke-width=".5"/><text font-family="Liberation Sans" font-size="4" x="131.39261" y="11.969256"><tspan x="131.39261" y="11.969256">Width: 2px</tspan><tspan x="131.39261" y="16.969257">Blur: 12</tspan><tspan x="131.39261" y="21.969257">Opacity: 60</tspan></text><path clip-path="url(#o)" d="m-88 20h72v56h-72z" fill="#f00" opacity=".65164"/><g clip-path="url(#n)"><path d="m12 20h72v56h-72z" fill="url(#m)"/><path d="m72 24a16 16 0 1 1 -32 0 16 16 0 1 1 32 0z" fill="url(#l)" opacity=".5" transform="matrix(2.75 0 0 2.75 -126 -40)"/><path d="m80 49.721a19.437 19.437 0 1 1 -38.874 0 19.437 19.437 0 1 1 38.874 0z" fill="url(#j)" opacity=".69672" transform="matrix(.92606 0 0 .92606 20.478 -.044489)"/><path d="m72 64.058a24.023 24.023 0 1 1 -48.045 0 24.023 24.023 0 1 1 48.045 0z" fill="url(#i)" transform="translate(-24 -16.058)"/><path d="m80 49.721a19.437 19.437 0 1 1 -38.874 0 19.437 19.437 0 1 1 38.874 0z" fill="url(#j)" opacity=".43443" transform="translate(-12.563 -5.1578)"/><g fill="#fff"><path d="m61 37.5a2.5 2.5 0 1 1 -5 0 2.5 2.5 0 1 1 5 0z" opacity=".4"/><path d="m61 37.5a2.5 2.5 0 1 1 -5 0 2.5 2.5 0 1 1 5 0z" opacity=".5041" transform="translate(-33.5 10)"/><path d="m61 37.5a2.5 2.5 0 1 1 -5 0 2.5 2.5 0 1 1 5 0z" opacity=".3" transform="translate(4 13.5)"/><path d="m61 37.5a2.5 2.5 0 1 1 -5 0 2.5 2.5 0 1 1 5 0z" opacity=".5041" transform="translate(17 8.5)"/><path d="m61 37.5a2.5 2.5 0 1 1 -5 0 2.5 2.5 0 1 1 5 0z" opacity=".5041" transform="translate(-17 7.5)"/><path d="m61 37.5a2.5 2.5 0 1 1 -5 0 2.5 2.5 0 1 1 5 0z" opacity=".5041" transform="translate(-42 3.5)"/><path d="m61 37.5a2.5 2.5 0 1 1 -5 0 2.5 2.5 0 1 1 5 0z" opacity=".3" transform="translate(-42 3.5)"/><path d="m61 37.5a2.5 2.5 0 1 1 -5 0 2.5 2.5 0 1 1 5 0z" opacity=".5041" transform="matrix(.4 0 0 .4 -6.4 35)"/><path d="m61 37.5a2.5 2.5 0 1 1 -5 0 2.5 2.5 0 1 1 5 0z" opacity=".5041" transform="matrix(.4 0 0 .4 7.6 38)"/><path d="m61 37.5a2.5 2.5 0 1 1 -5 0 2.5 2.5 0 1 1 5 0z" opacity=".5041" transform="matrix(.4 0 0 .4 9.6 34)"/><path d="m61 37.5a2.5 2.5 0 1 1 -5 0 2.5 2.5 0 1 1 5 0z" opacity=".3" transform="matrix(.4 0 0 .4 16.6 36)"/><path d="m61 37.5a2.5 2.5 0 1 1 -5 0 2.5 2.5 0 1 1 5 0z" opacity=".5041" transform="matrix(.4 0 0 .4 28.6 28)"/><path d="m61 37.5a2.5 2.5 0 1 1 -5 0 2.5 2.5 0 1 1 5 0z" opacity=".5041" transform="matrix(.4 0 0 .4 45.6 33)"/><path d="m61 37.5a2.5 2.5 0 1 1 -5 0 2.5 2.5 0 1 1 5 0z" opacity=".5041" transform="matrix(.4 0 0 .4 47.6 29)"/><path d="m61 37.5a2.5 2.5 0 1 1 -5 0 2.5 2.5 0 1 1 5 0z" opacity=".5041" transform="matrix(.4 0 0 .4 55.6 23)"/><path d="m61 37.5a2.5 2.5 0 1 1 -5 0 2.5 2.5 0 1 1 5 0z" opacity=".5041" transform="matrix(.4 0 0 .4 38.6 30)"/><path d="m61 37.5a2.5 2.5 0 1 1 -5 0 2.5 2.5 0 1 1 5 0z" opacity=".5041" transform="matrix(.4 0 0 .4 38.6 30)"/><path d="m61 37.5a2.5 2.5 0 1 1 -5 0 2.5 2.5 0 1 1 5 0z" opacity=".5041" transform="matrix(.6 0 0 .6 -1.1 21)"/><path d="m61 37.5a2.5 2.5 0 1 1 -5 0 2.5 2.5 0 1 1 5 0z" opacity=".5041" transform="matrix(.6 0 0 .6 -6.6 18.5)"/><path d="m61 37.5a2.5 2.5 0 1 1 -5 0 2.5 2.5 0 1 1 5 0z" opacity=".5041" transform="matrix(.6 0 0 .6 15.9 31)"/><path d="m61 37.5a2.5 2.5 0 1 1 -5 0 2.5 2.5 0 1 1 5 0z" opacity=".5041" transform="matrix(.6 0 0 .6 19.4 26.5)"/><path d="m61 37.5a2.5 2.5 0 1 1 -5 0 2.5 2.5 0 1 1 5 0z" opacity=".5041" transform="matrix(.6 0 0 .6 19.4 26.5)"/><path d="m61 37.5a2.5 2.5 0 1 1 -5 0 2.5 2.5 0 1 1 5 0z" opacity=".5041" transform="matrix(.6 0 0 .6 37.9 29)"/></g><path d="m61 37.5a2.5 2.5 0 1 1 -5 0 2.5 2.5 0 1 1 5 0z" fill="url(#k)" opacity=".3" transform="matrix(1.6 0 0 1.6 -43.6 -16)"/><path d="m61 37.5a2.5 2.5 0 1 1 -5 0 2.5 2.5 0 1 1 5 0z" fill="url(#k)" opacity=".3" transform="matrix(1.6 0 0 1.6 -23.6 -10)"/><path d="m61 37.5a2.5 2.5 0 1 1 -5 0 2.5 2.5 0 1 1 5 0z" fill="url(#k)" opacity=".3" transform="matrix(1.6 0 0 1.6 -72.6 -15)"/><path d="m61 37.5a2.5 2.5 0 1 1 -5 0 2.5 2.5 0 1 1 5 0z" fill="url(#k)" opacity=".3" transform="matrix(1.6 0 0 1.6 -59.6 -9)"/><path d="m61 37.5a2.5 2.5 0 1 1 -5 0 2.5 2.5 0 1 1 5 0z" fill="url(#k)" opacity=".3" transform="translate(-27 2.5)"/><path d="m61 37.5a2.5 2.5 0 1 1 -5 0 2.5 2.5 0 1 1 5 0z" fill="url(#k)" opacity=".3" transform="translate(9 4.5)"/><path d="m61 37.5a2.5 2.5 0 1 1 -5 0 2.5 2.5 0 1 1 5 0z" fill="url(#k)" opacity=".3" transform="translate(21 6.5)"/><path d="m61 37.5a2.5 2.5 0 1 1 -5 0 2.5 2.5 0 1 1 5 0z" fill="url(#k)" opacity=".3" transform="translate(-35 12.5)"/><path d="m61 37.5a2.5 2.5 0 1 1 -5 0 2.5 2.5 0 1 1 5 0z" fill="#fff" opacity=".5041" transform="matrix(.4 0 0 .4 39.6 24)"/></g><path d="m12 6c-3.324 0-6 2.676-6 6v53.375c15.66-11.05 42.933-18.375 74-18.375 3.3824 0 6.717.1124 10 .28125v-35.281c0-3.324-2.676-6-6-6h-72z" fill="url(#h)" opacity=".3"/><path d="m15 20c-1.662 0-3 1.338-3 3v50c0 1.662 1.338 3 3 3h66c1.662 0 3-1.338 3-3v-50c0-1.662-1.338-3-3-3zm0 .96875h66c1.1465 0 2.0312.88473 2.0312 2.0312v50c0 1.1465-.88473 2.0312-2.0312 2.0312h-66c-1.1465 0-2.0312-.88473-2.0312-2.0312v-50c0-1.1465.88473-2.0312 2.0312-2.0312z" fill="url(#q)" opacity=".3"/><rect fill="#f00" height="56" opacity=".6" rx="3" width="72" x="-88" y="20"/><path d="m12 73v1c0 1.662 1.338 3 3 3h66c1.662 0 3-1.338 3-3v-1c0 1.662-1.338 3-3 3h-66c-1.662 0-3-1.338-3-3z" fill="#fff" opacity=".7"/><path d="m61.896 17.343c-.13523-.04214-.28289-.05044-.41667-.01459l-5.7872 1.5552c-.53512.14339-.80493.9157-.58985 1.7184l3.2386 12.062 6.7336 25.098 4.3788 16.379 5.5853 20.811c.21508.80269.82422 1.3488 1.3593 1.2054l5.7872-1.5552c.53512-.14339.80493-.9157.58985-1.7184l-5.585-20.81-4.379-16.379-6.733-25.098-3.239-12.062c-.161-.602-.537-1.064-.942-1.191z" fill="url(#z)" filter="url(#A)" opacity=".1" transform="matrix(.82861 -.55983 .55983 .82861 -40.811 58.691)"/><path d="m61.896 17.343c-.13523-.04214-.28289-.05044-.41667-.01459l-5.7872 1.5552c-.53512.14339-.80493.9157-.58985 1.7184l3.2386 12.062 6.7336 25.098 4.3788 16.379 5.5853 20.811c.21508.80269.82422 1.3488 1.3593 1.2054l5.7872-1.5552c.53512-.14339.80493-.9157.58985-1.7184l-5.585-20.81-4.379-16.379-6.733-25.098-3.239-12.062c-.161-.602-.537-1.064-.942-1.191z" fill="url(#z)" filter="url(#A)" opacity=".3" transform="matrix(.93864 -.34491 .34491 .93864 -28.481 31.914)"/><path d="m61.896 17.343c-.13523-.04214-.28289-.05044-.41667-.01459l-5.7872 1.5552c-.53512.14339-.80493.9157-.58985 1.7184l3.2386 12.062 6.7336 25.098 4.3788 16.379 5.5853 20.811c.21508.80269.82422 1.3488 1.3593 1.2054l5.7872-1.5552c.53512-.14339.80493-.9157.58985-1.7184l-5.585-20.81-4.379-16.379-6.733-25.098-3.239-12.062c-.161-.602-.537-1.064-.942-1.191z" fill="url(#z)" filter="url(#A)" opacity=".12"/><path d="m73.344 6c-7.3603 25.499-22.654 54.408-36 50.031-14.048-4.606-5.119-23.279-.656-27.875-5.255 4.927-18.401 25.282-1.626 34.188 12.933 6.865 39.734-8.785 54.938-29.969v-20.375c0-3.324-2.676-6-6-6z" fill="url(#y)" opacity=".4"/><g enable-background="new" fill="#fc0" transform="matrix(1.1299 0 0 1.1299 7.4475 29.55)"><path d="m40 32a8 8 0 1 1 -16 0 8 8 0 1 1 16 0z" fill="url(#w)" transform="translate(-1 -1)"/><g transform="matrix(.86603 .5 -.5 .86603 21.657 -10.862)"><path d="m23.906 22.634 2.3835 8.2161-6.187 5.9312 8.187-2.4671 5.9915 6.2706-2.5274-8.2706 6.331-5.9079-8.331 2.4438z" fill="#fc0" opacity=".1"/><path d="m33.778 39.713-5.2168-6.034-7.577 2.606 6.0744-5.1503-2.6463-7.6434 5.1635 6.0648 7.6303-2.6368-6.0258 5.3543 2.5977 7.4395z" fill="#fc0" opacity=".2"/><path d="m33.278 38.847-4.5293-5.952-6.8985 2.8899 5.952-4.5293-2.8899-6.8985 4.5293 5.952 6.8985-2.8899-5.952 4.5293z" fill="url(#x)"/></g></g><g enable-background="new" fill="#fc0" transform="matrix(.74836 0 0 .74836 49.786 23.154)"><path d="m40 32a8 8 0 1 1 -16 0 8 8 0 1 1 16 0z" fill="url(#w)" transform="translate(-1 -1)"/><g transform="matrix(.86603 .5 -.5 .86603 21.657 -10.862)"><path d="m23.906 22.634 2.3835 8.2161-6.187 5.9312 8.187-2.4671 5.9915 6.2706-2.5274-8.2706 6.331-5.9079-8.331 2.4438z" fill="#fc0" opacity=".1"/><path d="m33.778 39.713-5.2168-6.034-7.577 2.606 6.0744-5.1503-2.6463-7.6434 5.1635 6.0648 7.6303-2.6368-6.0258 5.3543 2.5977 7.4395z" fill="#fc0" opacity=".2"/><path d="m33.278 38.847-4.5293-5.952-6.8985 2.8899 5.952-4.5293-2.8899-6.8985 4.5293 5.952 6.8985-2.8899-5.952 4.5293z" fill="url(#x)"/></g></g><g enable-background="new" fill="#fc0" transform="matrix(1.8398 0 0 1.8398 -31.185 -10.84)"><path d="m40 32a8 8 0 1 1 -16 0 8 8 0 1 1 16 0z" fill="url(#w)" transform="translate(-1 -1)"/><g transform="matrix(.86603 .5 -.5 .86603 21.657 -10.862)"><path d="m23.906 22.634 2.3835 8.2161-6.187 5.9312 8.187-2.4671 5.9915 6.2706-2.5274-8.2706 6.331-5.9079-8.331 2.4438z" fill="#fc0" opacity=".1"/><path d="m33.778 39.713-5.2168-6.034-7.577 2.606 6.0744-5.1503-2.6463-7.6434 5.1635 6.0648 7.6303-2.6368-6.0258 5.3543 2.5977 7.4395z" fill="#fc0" opacity=".2"/><path d="m33.278 38.847-4.5293-5.952-6.8985 2.8899 5.952-4.5293-2.8899-6.8985 4.5293 5.952 6.8985-2.8899-5.952 4.5293z" fill="url(#x)"/></g></g><g enable-background="new" fill="#fc0" transform="matrix(.87788 0 0 .87788 3.9327 -6.3402)"><path d="m40 32a8 8 0 1 1 -16 0 8 8 0 1 1 16 0z" fill="url(#w)" transform="translate(-1 -1)"/><g transform="matrix(.86603 .5 -.5 .86603 21.657 -10.862)"><path d="m23.906 22.634 2.3835 8.2161-6.187 5.9312 8.187-2.4671 5.9915 6.2706-2.5274-8.2706 6.331-5.9079-8.331 2.4438z" fill="#fc0" opacity=".1"/><path d="m33.778 39.713-5.2168-6.034-7.577 2.606 6.0744-5.1503-2.6463-7.6434 5.1635 6.0648 7.6303-2.6368-6.0258 5.3543 2.5977 7.4395z" fill="#fc0" opacity=".2"/><path d="m33.278 38.847-4.5293-5.952-6.8985 2.8899 5.952-4.5293-2.8899-6.8985 4.5293 5.952 6.8985-2.8899-5.952 4.5293z" fill="url(#x)"/></g></g><g enable-background="new" transform="matrix(.86603 -.5 .5 .86603 -14.0329 37.268)"><rect fill="url(#r)" height="80" rx="1" ry="1.5" width="8" x="48" y="16"/><path d="m49 16c-.554 0-1 .669-1 1.5v12.5h8v-12.5c0-.831-.446-1.5-1-1.5z" fill="url(#s)"/><path d="m49 96c-.554 0-1-.669-1-1.5v-12.5h8v12.5c0 .831-.446 1.5-1 1.5z" fill="url(#u)"/><rect fill="url(#v)" height="80" opacity=".3" rx="1" ry="1.5" width="8" x="48" y="16"/><path d="m49 16c-.554 0-1 .669-1 1.5v77c0 .831.446 1.5 1 1.5h6c.554 0 1-.669 1-1.5v-77c0-.831-.446-1.5-1-1.5zm.125 1h5.75c.049.074.125.264.125.5v77c0 .23568-.07571.42606-.125.5h-5.75c-.049-.074-.125-.264-.125-.5v-77c0-.23568.07571-.42606.125-.5z" opacity=".2"/></g></svg>