<svg height="96" width="96" xmlns="http://www.w3.org/2000/svg" xmlns:xlink="http://www.w3.org/1999/xlink"><linearGradient id="a"><stop offset="0" stop-color="#fefefe"/><stop offset="1" stop-color="#fefefe" stop-opacity="0"/></linearGradient><linearGradient id="b" gradientUnits="userSpaceOnUse" x1="36.357143" x2="36.357143" xlink:href="#a" y1="6" y2="63.893143"/><filter id="c" color-interpolation-filters="sRGB" height="1.384" width="1.384" x="-.192" y="-.192"><feGaussianBlur stdDeviation="5.28"/></filter><linearGradient id="d" gradientUnits="userSpaceOnUse" x1="48" x2="48" xlink:href="#a" y1="20.220806" y2="138.66119"/><radialGradient id="e" cx="48" cy="90.171875" gradientTransform="matrix(1.1573129 0 0 .99590774 -7.551021 .197132)" gradientUnits="userSpaceOnUse" r="42" xlink:href="#a"/><clipPath id="f"><rect height="84" rx="6" width="84" x="6" y="6"/></clipPath><linearGradient id="g" gradientUnits="userSpaceOnUse" x1="48" x2="48" y1="90" y2="5.987717"><stop offset="0" stop-color="#bc0000"/><stop offset="1" stop-color="#ff3834"/></linearGradient><linearGradient id="h" gradientTransform="matrix(1.0058652 0 0 .994169 100 0)" gradientUnits="userSpaceOnUse" x1="45.447727" x2="45.447727" y1="92.539597" y2="7.01654"><stop offset="0"/><stop offset="1" stop-opacity=".588235"/></linearGradient><linearGradient id="i" gradientTransform="matrix(1.0238095 0 0 1.0119048 -1.142857 -98.071429)" gradientUnits="userSpaceOnUse" x1="32.251034" x2="32.251034" xlink:href="#h" y1="6.131708" y2="90.238609"/><linearGradient id="j" gradientTransform="translate(0 -97)" gradientUnits="userSpaceOnUse" x1="32.251034" x2="32.251034" xlink:href="#h" y1="6.131708" y2="90.238609"/><path d="m12-95.03125c-5.5110903 0-10.03125 4.52016-10.03125 10.03125v71c0 5.5110902 4.5201598 10.03125 10.03125 10.03125h72c5.51109 0 10.03125-4.5201597 10.03125-10.03125v-71c0-5.51109-4.52016-10.03125-10.03125-10.03125z" fill="url(#i)" opacity=".08" transform="scale(1 -1)"/><path d="m12-94.03125c-4.971633 0-9.03125 4.059617-9.03125 9.03125v71c0 4.9716329 4.0596171 9.03125 9.03125 9.03125h72c4.971633 0 9.03125-4.059617 9.03125-9.03125v-71c0-4.971633-4.059617-9.03125-9.03125-9.03125z" fill="url(#i)" opacity=".1" transform="scale(1 -1)"/><path d="m12-93c-4.4091333 0-8 3.590867-8 8v71c0 4.4091333 3.5908667 8 8 8h72c4.409133 0 8-3.5908667 8-8v-71c0-4.409133-3.590867-8-8-8z" fill="url(#i)" opacity=".2" transform="scale(1 -1)"/><rect fill="url(#i)" height="85" opacity=".3" rx="7" transform="scale(1 -1)" width="86" x="5" y="-92"/><rect fill="url(#j)" height="84" opacity=".45" rx="6" transform="scale(1 -1)" width="84" x="6" y="-91"/><rect fill="url(#g)" height="84" rx="6" width="84" x="6" y="6"/><path d="m12 6c-3.324 0-6 2.676-6 6v2 68 2c0 .334721.04135.6507.09375.96875.0487.295596.09704.596915.1875.875.00988.03038.020892.0636.03125.09375.098865.287771.2348802.547452.375.8125.1445918.273507.3156161.535615.5.78125s.3737765.473472.59375.6875c.439947.428056.94291.814526 1.5 1.09375.278545.139612.5734731.246947.875.34375-.2562018-.100222-.4867109-.236272-.71875-.375-.00741-.0044-.023866.0045-.03125 0-.031933-.0193-.062293-.04251-.09375-.0625-.120395-.0767-.2310226-.163513-.34375-.25-.1061728-.0808-.2132809-.161112-.3125-.25-.1779299-.161433-.3474596-.345388-.5-.53125-.1075789-.130255-.2183939-.265285-.3125-.40625-.025089-.03838-.038446-.08587-.0625-.125-.064763-.103032-.1302275-.204517-.1875-.3125-.1010083-.194706-.2056748-.415701-.28125-.625-.00796-.02181-.023589-.04055-.03125-.0625-.0318251-.09195-.0358045-.186831-.0625-.28125-.0303323-.106618-.0703894-.203031-.09375-.3125-.0728786-.341512-.125-.698205-.125-1.0625v-2-68-2c0-2.781848 2.2181517-5 5-5h2 68 2c2.781848 0 5 2.218152 5 5v2 68 2c0 .364295-.05212.720988-.125 1.0625-.04415.206893-.08838.397658-.15625.59375-.0077.02195-.0233.04069-.03125.0625-.06274.173739-.138383.367449-.21875.53125-.04158.0828-.07904.169954-.125.25-.0546.09721-.126774.18835-.1875.28125-.09411.140965-.204921.275995-.3125.40625-.143174.17445-.303141.346998-.46875.5-.01117.0102-.01998.02115-.03125.03125-.138386.125556-.285091.234436-.4375.34375-.102571.07315-.204318.153364-.3125.21875-.0074.0045-.02384-.0044-.03125 0-.232039.138728-.462548.274778-.71875.375.301527-.0968.596455-.204138.875-.34375.55709-.279224 1.060053-.665694 1.5-1.09375.219973-.214028.409366-.441865.59375-.6875s.355408-.507743.5-.78125c.14012-.265048.276135-.524729.375-.8125.01041-.03078.02133-.06274.03125-.09375.09046-.278085.1388-.579404.1875-.875.0524-.31805.09375-.634029.09375-.96875v-2-68-2c0-3.324-2.676-6-6-6z" fill="url(#b)" opacity=".4"/><path d="m12 90c-3.324 0-6-2.676-6-6v-2-68-2c0-.334721.04135-.6507.09375-.96875.0487-.295596.09704-.596915.1875-.875.00988-.03038.020892-.0636.03125-.09375.098865-.287771.2348802-.547452.375-.8125.1445918-.273507.3156161-.535615.5-.78125s.3737765-.473472.59375-.6875c.439947-.428056.94291-.814526 1.5-1.09375.278545-.139612.5734731-.246947.875-.34375-.2562018.100222-.4867109.236272-.71875.375-.00741.0044-.023866-.0045-.03125 0-.031933.0193-.062293.04251-.09375.0625-.120395.0767-.2310226.163513-.34375.25-.1061728.0808-.2132809.161112-.3125.25-.1779299.161433-.3474596.345388-.5.53125-.1075789.130255-.2183939.265285-.3125.40625-.025089.03838-.038446.08587-.0625.125-.064763.103032-.1302275.204517-.1875.3125-.1010083.194706-.2056748.415701-.28125.625-.00796.02181-.023589.04055-.03125.0625-.0318251.09195-.0358045.186831-.0625.28125-.0303323.106618-.0703894.203031-.09375.3125-.0728786.341512-.125.698205-.125 1.0625v2 68 2c0 2.781848 2.2181517 5 5 5h2 68 2c2.781848 0 5-2.218152 5-5v-2-68-2c0-.364295-.05212-.720988-.125-1.0625-.04415-.206893-.08838-.397658-.15625-.59375-.0077-.02195-.0233-.04069-.03125-.0625-.06274-.173739-.138383-.367449-.21875-.53125-.04158-.0828-.07904-.169954-.125-.25-.0546-.09721-.126774-.18835-.1875-.28125-.09411-.140965-.204921-.275995-.3125-.40625-.143174-.17445-.303141-.346998-.46875-.5-.01117-.0102-.01998-.02115-.03125-.03125-.138386-.125556-.285091-.234436-.4375-.34375-.102571-.07315-.204318-.153364-.3125-.21875-.0074-.0045-.02384.0044-.03125 0-.232039-.138728-.462548-.274778-.71875-.375.301527.0968.596455.204138.875.34375.55709.279224 1.060053.665694 1.5 1.09375.219973.214028.409366.441865.59375.6875s.355408.507743.5.78125c.14012.265048.276135.524729.375.8125.01041.03078.02133.06274.03125.09375.09046.278085.1388.579404.1875.875.0524.31805.09375.634029.09375.96875v2 68 2c0 3.324-2.676 6-6 6z" fill="url(#e)" opacity=".2"/><rect height="66" rx="12" style="opacity:.1;stroke:#fefefe;stroke-width:.5;stroke-linecap:round;clip-path:url(#f);fill:url(#d);filter:url(#c)" width="66" x="15" y="15"/><g stroke-width=".096388"><path d="m25.44844 48.638499c0-.93324-.17237-1.95203-.71455-2.73461-1.08705-1.56861-3.42059-2.06761-5.04492-1.07905-.82103.50001-1.27762 1.37294-1.53507 2.26915-.51107 1.7796-.27672 3.81049.0807 5.59771.11423.57159.2322 1.14402.39255 1.70509.0579.20242.0848.49652.21637.6649.22977.29437.79073.37963 1.13468.32172 1.03203-.17346.77652-1.87272.74139-2.59524-.0823-1.69247-.58103-3.3352-.0979-5.01861.2046-.71234.59982-1.51338 1.31926-1.82279.64942-.27962 1.3047.0625 1.56186.6968.41639 1.02711.31236 2.21287.57352 3.28152.0888.36327.18635.72306.35019 1.06171.0474.0978.11288.30134.25043.28901.33437-.0305.80977-.58848 1.06046-.79545.80976-.66918 1.64176-1.38577 2.57412-1.88101.43867-.23297 1.16051-.61019 1.60852-.21394.1142.10108.20618.22172.28795.3496.52661.82494.004 1.4676-.33863 2.252-.44323 1.01525-.89742 2.02038-1.5396 2.92767-.55209.78018-1.30663 1.46413-1.7477 2.31639-.28396.5488-.44457 1.1502-.32712 1.76948.0952.50082.48345.80323.99424.68581.38235-.088.64138-.41557.85937-.71798.38853-.53941.74943-1.0992 1.13555-1.64081.74701-1.04744 1.62837-2.02683 2.25662-3.15283.75721-1.35743 1.12243-2.89337 1.12156-4.43952-.00048-1.26355-.45874-3.19467-1.93054-3.45954-.27697-.0496-.59366-.0225-.86876.0255-.34185.0595-.68506.17078-.99743.32199-.83684.40483-1.56051 1.00936-2.1823 1.6968-.38796.42843-.73547.96735-1.19588 1.31906" fill="#ffb400"/><path d="m24.06529 17.382349c-1.16052.15255-2.3403.13673-3.50659.31689-2.23464.34506-4.37465 1.03915-6.46741 1.87647-.76204.30478-1.51386.64446-2.25229 1.00186-.2748.13301-.69394.23942-.91489.45283-.115.11123-.1032.37187-.11717.52058-.0389.41853-.0912.83656-.13166 1.25478-.1563 1.61391-.26649 3.2767-.0354 4.88964.0748.52119.23677 1.46654.87734 1.56649.98509.15417 1.7504-1.05794 2.23378-1.72736 1.12909-1.5632 2.41374-3.01876 4.26554-3.71766 2.17971-.82286 4.67615-1.0167 6.98174-1.17487 6.4704-.44345 13.54149.73835 18.30785 5.50412.67784.67776 1.31945 1.39704 1.8651 2.1877 2.13412 3.09009 3.26263 6.6038 3.80615 10.2942.25553 1.73275.4301 3.48614.0348 5.21157-.6859 2.99361-2.4843 5.59926-4.55075 7.81752-1.41439 1.5183-3.00604 2.89067-4.66256 4.13811-.9248.69626-1.96197 1.28688-2.83148 2.04805-1.00147.87668-1.83454 1.97373-2.46761 3.14348-1.70376 3.14966-2.16064 6.93952-1.65952 10.455161.1027.72066.19548 1.44475.35877 2.15552.0488.2126.0574.57803.19494.75175.25741.32495.95992.50376 1.35328.5228.41024.0198.6832-.29544.78376-.66328.17213-.6303.0692-1.32841-.0305-1.96245-.20432-1.29863-.39148-2.60652-.33356-3.92471.10673-2.434081 1.04784-4.702181 2.735-6.466351 1.7158-1.79416 4.03325-2.82869 5.98316-4.33166 3.92982-3.02898 7.45038-7.11562 8.80231-11.97905.48319-1.73912.64325-3.58205.42259-5.37245-.27887-2.26462-1.10711-4.52665-1.88737-6.65932-2.37789-6.49942-6.45797-12.68172-12.93618-15.65527-2.57065-1.18027-5.25987-1.71753-8.04354-2.1052-1.30606-.1818-2.61114-.29332-3.92491-.35097-.73061-.0319-1.52484-.11287-2.25257-.0172" fill="#fefefe"/><path d="m13.93013 59.461869c-1.26268.18069-1.62972 1.1928-1.39646 2.3346.2987 1.46114 1.44793 2.57567 2.58666 3.45338 2.91755 2.24881 6.68592 3.46435 10.35973 3.30348 1.43366-.0627 2.99563-.29973 4.31132-.90805.70546-.32601 1.4434-1.50057.48265-2.00322-.13166-.0689-.30378-.11154-.45047-.13566-.41961-.0687-.88941.10992-1.28707.22413-.70117.20135-1.40176.40751-2.12361.52332-2.15658.3464-4.48858-.14638-6.27406-1.42412-1.44418-1.03328-2.61162-2.39619-3.71372-3.77357-.67461-.84244-1.28437-1.76776-2.49682-1.59425" fill="#fefefe"/><path d="m12.28913 66.603219c-.32122.0423-.68964.0303-.96474.23218-.57381.42119.0582 1.26836.3601 1.65228.87544 1.11231 2.02819 2.035701 3.17848 2.849601 3.20691 2.26839 6.83956 3.57704 10.74625 3.8448 1.1232.077 2.26732-.003 3.3782-.18793.40619-.0678.91165-.0984 1.28705-.27373 1.06229-.4968.75505-2.50348-.19305-2.94966-.414-.19464-1.07819.0624-1.51233.12279-1.02671.14317-2.05633.15764-3.08893.13243-2.70627-.0662-5.58922-.89974-7.94724-2.215071-.92694-.51744-1.77826-1.14692-2.57413-1.84746-.48398-.42602-.98113-1.12311-1.60881-1.33834-.29226-.10028-.75778-.0622-1.06181-.0222" fill="#fefefe"/><path d="m12.93262 72.61974c-.45741.0512-.80223.28981-1.10306.62922-.20728.23378-.40408.44506-.52314.73996-.65639 1.62365 1.09342 3.1563 2.30193 3.92307 1.34489.8531 2.81432 1.48553 4.31132 2.01826 3.37635 1.20166 7.33645 1.97084 10.84264.89653 1.04224-.31904 2.07243-.90243 2.83013-1.69093.42684-.44424.71992-1.11694-.063-1.40138-.46388-.16836-1.02721.26033-1.44794.42977-.99318.40054-2.02279.70456-3.08893.83352-1.40418.17024-2.66849-.13887-4.02178-.47749-1.15597-.289-2.32496-.57803-3.44257-.99462-.95348-.35549-1.90057-.77776-2.73491-1.36813-.24936-.1764-.54806-.33351-.75237-.56327-.66793-.75149-1.16986-1.63088-1.88602-2.34559-.30943-.30886-.74914-.68205-1.22268-.62923" fill="#fefefe"/></g></svg>