<svg height="96" width="96" xmlns="http://www.w3.org/2000/svg" xmlns:xlink="http://www.w3.org/1999/xlink"><linearGradient id="a"><stop offset="0" stop-color="#fefefe"/><stop offset="1" stop-color="#fefefe" stop-opacity="0"/></linearGradient><linearGradient id="b" gradientUnits="userSpaceOnUse" x1="36.357143" x2="36.357143" xlink:href="#a" y1="6" y2="63.893143"/><linearGradient id="c" gradientUnits="userSpaceOnUse" x1="48" x2="48" y1="90" y2="5.987717"><stop offset="0" stop-color="#b2eb9a"/><stop offset="1" stop-color="#ceeeab"/></linearGradient><linearGradient id="d"><stop offset="0"/><stop offset="1" stop-opacity="0"/></linearGradient><linearGradient id="e" gradientTransform="matrix(1.0058652 0 0 .994169 100 0)" gradientUnits="userSpaceOnUse" x1="45.447727" x2="45.447727" y1="92.539597" y2="7.01654"><stop offset="0"/><stop offset="1" stop-opacity=".588235"/></linearGradient><linearGradient id="f" gradientTransform="matrix(1.0238095 0 0 1.0119048 -1.142857 -98.071429)" gradientUnits="userSpaceOnUse" x1="32.251034" x2="32.251034" xlink:href="#e" y1="6.131708" y2="90.238609"/><linearGradient id="g" gradientTransform="translate(0 -97)" gradientUnits="userSpaceOnUse" x1="32.251034" x2="32.251034" xlink:href="#e" y1="6.131708" y2="90.238609"/><linearGradient id="h" gradientUnits="userSpaceOnUse" x1="6" x2="90" y1="48.171875" y2="48.171875"><stop offset="0" stop-color="#06b5ff"/><stop offset="1" stop-color="#0ff" stop-opacity="0"/></linearGradient><clipPath id="i"><path d="m9 12.25s7.5 13 11.75 27.75 6.25 25.5 6.25 25.5-5.5 12.75-8.25 24.75-5.75 23-5.75 23 5.75 16 9.25 30 3.75 24.25 3.75 24.25-4 10.25-7.5 24.25-5 30.75-5 30.75 9.25-2 28.5 1.25 32.25 6 32.25 6 12.75-2.75 24-6.25 16.25-6.5 16.25-6.5 5.5.5 22.5 6.25 29.25 8.5 29.25 8.5 13-2.75 26-5.75 26.5-8 26.5-8-.75-5 4.25-24.5 8.75-28 8.75-28-.5-4.5-3.75-19.75-10-29.75-10-29.75 1.75-10.5 6.75-23.75 10.25-26.75 10.25-26.75-4.75-15.25-7.5-29.75-8.25-25.75-8.25-25.75-24.25 9-31.75 10.5-21 5.25-21 5.25-9.75-4.25-22-8.5-29.75-5.5-29.75-5.5-3.25 3.5-22 8-27.5 5.75-27.5 5.75-18.5-9-31.5-11.5-24-2-24.75-1.75z"/></clipPath><clipPath id="j"><path d="m9 12.25s7.5 13 11.75 27.75 6.25 25.5 6.25 25.5-5.5 12.75-8.25 24.75-5.75 23-5.75 23 5.75 16 9.25 30 3.75 24.25 3.75 24.25-4 10.25-7.5 24.25-5 30.75-5 30.75 9.25-2 28.5 1.25 32.25 6 32.25 6 12.75-2.75 24-6.25 16.25-6.5 16.25-6.5 5.5.5 22.5 6.25 29.25 8.5 29.25 8.5 13-2.75 26-5.75 26.5-8 26.5-8-.75-5 4.25-24.5 8.75-28 8.75-28-.5-4.5-3.75-19.75-10-29.75-10-29.75 1.75-10.5 6.75-23.75 10.25-26.75 10.25-26.75-4.75-15.25-7.5-29.75-8.25-25.75-8.25-25.75-24.25 9-31.75 10.5-21 5.25-21 5.25-9.75-4.25-22-8.5-29.75-5.5-29.75-5.5-3.25 3.5-22 8-27.5 5.75-27.5 5.75-18.5-9-31.5-11.5-24-2-24.75-1.75z"/></clipPath><clipPath id="k"><path d="m9 12.25s7.5 13 11.75 27.75 6.25 25.5 6.25 25.5-5.5 12.75-8.25 24.75-5.75 23-5.75 23 5.75 16 9.25 30 3.75 24.25 3.75 24.25-4 10.25-7.5 24.25-5 30.75-5 30.75 9.25-2 28.5 1.25 32.25 6 32.25 6 12.75-2.75 24-6.25 16.25-6.5 16.25-6.5 5.5.5 22.5 6.25 29.25 8.5 29.25 8.5 13-2.75 26-5.75 26.5-8 26.5-8-.75-5 4.25-24.5 8.75-28 8.75-28-.5-4.5-3.75-19.75-10-29.75-10-29.75 1.75-10.5 6.75-23.75 10.25-26.75 10.25-26.75-4.75-15.25-7.5-29.75-8.25-25.75-8.25-25.75-24.25 9-31.75 10.5-21 5.25-21 5.25-9.75-4.25-22-8.5-29.75-5.5-29.75-5.5-3.25 3.5-22 8-27.5 5.75-27.5 5.75-18.5-9-31.5-11.5-24-2-24.75-1.75z"/></clipPath><linearGradient id="l" gradientUnits="userSpaceOnUse" x1="61.294735" x2="117.36092" xlink:href="#d" y1="121.32806" y2="18.868103"/><filter id="m" color-interpolation-filters="sRGB"><feGaussianBlur stdDeviation=".9178212"/></filter><linearGradient id="n" gradientUnits="userSpaceOnUse" x1="61.294735" x2="104.6299" xlink:href="#d" y1="121.32806" y2="41.346642"/><filter id="o" color-interpolation-filters="sRGB"><feGaussianBlur stdDeviation=".89116869"/></filter><linearGradient id="p" gradientTransform="matrix(-.6279542 -.3625495 .3625495 -.6279542 -133.99115 168.46471)" gradientUnits="userSpaceOnUse" x1="136" x2="150" y1="60" y2="60"><stop offset="0" stop-color="#7e162e"/><stop offset=".25" stop-color="#b31f42"/><stop offset=".30000001" stop-color="#d83b59"/><stop offset=".69999999" stop-color="#cb2947"/><stop offset=".75" stop-color="#db6472"/><stop offset="1" stop-color="#f2c6cb"/></linearGradient><linearGradient id="q" gradientTransform="matrix(-.6279542 -.3625495 .3625495 -.6279542 -133.99115 168.46471)" gradientUnits="userSpaceOnUse" x1="143" x2="143" y1=".000002" y2="120.01752"><stop offset="0"/><stop offset=".06588447"/><stop offset=".07" stop-color="#ad5f1b"/><stop offset=".1913653" stop-color="#ad601a"/><stop offset=".20983393" stop-color="#661226"/><stop offset="1" stop-color="#661226"/></linearGradient><linearGradient id="r" gradientTransform="matrix(-.6279542 -.3625495 .3625495 -.6279542 -133.99115 168.46471)" gradientUnits="userSpaceOnUse" x1="141.25002" x2="144.81252" y1="4.921872" y2="4.921872"><stop offset="0"/><stop offset=".5" stop-color="#7d7d7d"/><stop offset="1"/></linearGradient><linearGradient id="s" gradientTransform="matrix(-.6279542 -.3625495 .3625495 -.6279542 -133.99115 168.46471)" gradientUnits="userSpaceOnUse" x1="136.98804" x2="148.99513" y1="17.043356" y2="17.043356"><stop offset="0" stop-color="#da8539"/><stop offset="1" stop-color="#fadfc7"/></linearGradient><filter id="t" color-interpolation-filters="sRGB" height="1.227422" width="1.863226" x="-.431613" y="-.113711"><feGaussianBlur stdDeviation=".73914765"/></filter><filter id="u" color-interpolation-filters="sRGB" height="1.2988" width="2.219592" x="-.609796" y="-.1494"><feGaussianBlur stdDeviation=".77812506"/></filter><linearGradient id="v" gradientTransform="matrix(-.6279542 -.3625495 .3625495 -.6279542 -133.99115 168.46471)" gradientUnits="userSpaceOnUse" x1="136" x2="150" y1="60" y2="60"><stop offset="0"/><stop offset=".25" stop-color="#464646"/><stop offset=".30000001" stop-color="#505050"/><stop offset=".69999999" stop-color="#464646"/><stop offset=".75" stop-color="#8a8a8a"/><stop offset="1" stop-color="#6f6f6f"/></linearGradient><linearGradient id="w" gradientUnits="userSpaceOnUse" x1="-189.965806" x2="-192.584615" xlink:href="#d" y1="48.400055" y2="52.935962"/><linearGradient id="x" gradientUnits="userSpaceOnUse" x1="-190.416669" x2="-181.364465" xlink:href="#a" y1="50.773675" y2="55.999966"/><linearGradient id="y" gradientTransform="matrix(-.6279542 -.3625495 .45875288 -.79458335 -153.70086 202.60292)" gradientUnits="userSpaceOnUse" spreadMethod="reflect" x1="146.07562" x2="146.07562" xlink:href="#a" y1="110.16774" y2="66"/><linearGradient id="z" gradientTransform="matrix(-.6279542 -.3625495 .45875288 -.79458335 -149.85464 204.82354)" gradientUnits="userSpaceOnUse" spreadMethod="reflect" x1="146.07562" x2="146.07562" xlink:href="#a" y1="103.12167" y2="66"/><linearGradient id="A" gradientUnits="userSpaceOnUse" x1="-179.320779" x2="-180.724771" xlink:href="#d" y1="39.131209" y2="41.562999"/><linearGradient id="B" gradientUnits="userSpaceOnUse" x1="-183.913965" x2="-177.364625" xlink:href="#a" y1="38.973518" y2="42.754779"/><g><g fill="url(#f)"><path d="m12-95.03125c-5.5110903 0-10.03125 4.52016-10.03125 10.03125v71c0 5.5110902 4.5201598 10.03125 10.03125 10.03125h72c5.51109 0 10.03125-4.5201597 10.03125-10.03125v-71c0-5.51109-4.52016-10.03125-10.03125-10.03125z" opacity=".08" transform="scale(1 -1)"/><path d="m12-94.03125c-4.971633 0-9.03125 4.059617-9.03125 9.03125v71c0 4.9716329 4.0596171 9.03125 9.03125 9.03125h72c4.971633 0 9.03125-4.059617 9.03125-9.03125v-71c0-4.971633-4.059617-9.03125-9.03125-9.03125z" opacity=".1" transform="scale(1 -1)"/><path d="m12-93c-4.4091333 0-8 3.590867-8 8v71c0 4.4091333 3.5908667 8 8 8h72c4.409133 0 8-3.5908667 8-8v-71c0-4.409133-3.590867-8-8-8z" opacity=".2" transform="scale(1 -1)"/><rect height="85" opacity=".3" rx="7" transform="scale(1 -1)" width="86" x="5" y="-92"/></g><rect fill="url(#g)" height="84" opacity=".45" rx="6" transform="scale(1 -1)" width="84" x="6" y="-91"/></g><rect fill="url(#c)" height="84" rx="6" width="84" x="6" y="6"/><path d="m12 6c-3.324 0-6 2.676-6 6v2 68 2c0 .334721.04135.6507.09375.96875.0487.295596.09704.596915.1875.875.00988.03038.020892.0636.03125.09375.098865.287771.2348802.547452.375.8125.1445918.273507.3156161.535615.5.78125s.3737765.473472.59375.6875c.439947.428056.94291.814526 1.5 1.09375.278545.139612.5734731.246947.875.34375-.2562018-.100222-.4867109-.236272-.71875-.375-.00741-.0044-.023866.0045-.03125 0-.031933-.0193-.062293-.04251-.09375-.0625-.120395-.0767-.2310226-.163513-.34375-.25-.1061728-.0808-.2132809-.161112-.3125-.25-.1779299-.161433-.3474596-.345388-.5-.53125-.1075789-.130255-.2183939-.265285-.3125-.40625-.025089-.03838-.038446-.08587-.0625-.125-.064763-.103032-.1302275-.204517-.1875-.3125-.1010083-.194706-.2056748-.415701-.28125-.625-.00796-.02181-.023589-.04055-.03125-.0625-.0318251-.09195-.0358045-.186831-.0625-.28125-.0303323-.106618-.0703894-.203031-.09375-.3125-.0728786-.341512-.125-.698205-.125-1.0625v-2-68-2c0-2.781848 2.2181517-5 5-5h2 68 2c2.781848 0 5 2.218152 5 5v2 68 2c0 .364295-.05212.720988-.125 1.0625-.04415.206893-.08838.397658-.15625.59375-.0077.02195-.0233.04069-.03125.0625-.06274.173739-.138383.367449-.21875.53125-.04158.0828-.07904.169954-.125.25-.0546.09721-.126774.18835-.1875.28125-.09411.140965-.204921.275995-.3125.40625-.143174.17445-.303141.346998-.46875.5-.01117.0102-.01998.02115-.03125.03125-.138386.125556-.285091.234436-.4375.34375-.102571.07315-.204318.153364-.3125.21875-.0074.0045-.02384-.0044-.03125 0-.232039.138728-.462548.274778-.71875.375.301527-.0968.596455-.204138.875-.34375.55709-.279224 1.060053-.665694 1.5-1.09375.219973-.214028.409366-.441865.59375-.6875s.355408-.507743.5-.78125c.14012-.265048.276135-.524729.375-.8125.01041-.03078.02133-.06274.03125-.09375.09046-.278085.1388-.579404.1875-.875.0524-.31805.09375-.634029.09375-.96875v-2-68-2c0-3.324-2.676-6-6-6z" fill="url(#b)" opacity=".35"/><path d="m12 90c-3.324 0-6-2.676-6-6v-2-68-2c0-.334721.04135-.6507.09375-.96875.0487-.295596.09704-.596915.1875-.875.00988-.03038.020892-.0636.03125-.09375.098865-.287771.2348802-.547452.375-.8125.1445918-.273507.3156161-.535615.5-.78125s.3737765-.473472.59375-.6875c.439947-.428056.94291-.814526 1.5-1.09375.278545-.139612.5734731-.246947.875-.34375-.2562018.100222-.4867109.236272-.71875.375-.00741.0044-.023866-.0045-.03125 0-.031933.0193-.062293.04251-.09375.0625-.120395.0767-.2310226.163513-.34375.25-.1061728.0808-.2132809.161112-.3125.25-.1779299.161433-.3474596.345388-.5.53125-.1075789.130255-.2183939.265285-.3125.40625-.025089.03838-.038446.08587-.0625.125-.064763.103032-.1302275.204517-.1875.3125-.1010083.194706-.2056748.415701-.28125.625-.00796.02181-.023589.04055-.03125.0625-.0318251.09195-.0358045.186831-.0625.28125-.0303323.106618-.0703894.203031-.09375.3125-.0728786.341512-.125.698205-.125 1.0625v2 68 2c0 2.781848 2.2181517 5 5 5h2 68 2c2.781848 0 5-2.218152 5-5v-2-68-2c0-.364295-.05212-.720988-.125-1.0625-.04415-.206893-.08838-.397658-.15625-.59375-.0077-.02195-.0233-.04069-.03125-.0625-.06274-.173739-.138383-.367449-.21875-.53125-.04158-.0828-.07904-.169954-.125-.25-.0546-.09721-.126774-.18835-.1875-.28125-.09411-.140965-.204921-.275995-.3125-.40625-.143174-.17445-.303141-.346998-.46875-.5-.01117-.0102-.01998-.02115-.03125-.03125-.138386-.125556-.285091-.234436-.4375-.34375-.102571-.07315-.204318-.153364-.3125-.21875-.0074-.0045-.02384.0044-.03125 0-.232039-.138728-.462548-.274778-.71875-.375.301527.0968.596455.204138.875.34375.55709.279224 1.060053.665694 1.5 1.09375.219973.214028.409366.441865.59375.6875s.355408.507743.5.78125c.14012.265048.276135.524729.375.8125.01041.03078.02133.06274.03125.09375.09046.278085.1388.579404.1875.875.0524.31805.09375.634029.09375.96875v2 68 2c0 3.324-2.676 6-6 6z" fill="url(#h)" opacity=".213"/><g transform="matrix(.3793594 0 0 .36233297 1.957705 7.79331)"><g clip-path="url(#i)" transform="matrix(.98671725 0 0 1 3.068316 -10)"><path d="m110.75 5.5-4.25 7c-.75 9-2.25 13.75-8.5 16.5s-12.25 3.5-11 7.5 13 9.25 14.25 13 8.25 1.75 11 7 2 15.25-3.75 17.25-17.5.5-20.25 9.5-4.75 10.5-9 12.75-7.25 10.5-3.5 16.5 12.25-1.25 15-6.5 7.25-8.75 7.25-8.75h23.75l59-1.75 3.25-3.75s3.25 4 2.75 8.75-3.75 14.75.25 17.25 19.5-2 24-7-4.75-28.25-10.5-29.5-18.5-1.75-17-7 11.75 4.5 17.25 3.25 16.75-21 12-25.25-24.25-5.25-25.75-8 21-8 22.25-11-2.5-7.25-6.25-8.5-14 16.25-21 15.75-20 5.75-17.25 11.5-6 11-14.5 6.5-24.75-13-21.75-24 21.5-18.75 21.5-18.75zm-13.562 107.22c-1.595.15-4.469 4.69-4.938 7.03-.5 2.5-3.25 6.75-3.5 12.25s4.75 6.75 8.75 6.5 2.75-6.75 2-15c-.25 0-.5-10.25-2-10.75-.094-.03-.206-.04-.312-.03zm92.722 51.66c-6.34.29-6.63 7.46-7.41 8.87-1.25 2.25 2.25 13.75 2 18s-4.75 5.25-9.5 9.75.5 16 11.25 31l44.75 1.25-.46386-36.96467s4.21386-2.28533-21.28614-22.28533c-9.56-7.5-15.54-9.8-19.34-9.62zm-149.97 16.53c-4.03-.11-8.282 5.71-9.688 7.59-1.5 2-6.25 5-17 9.5l-14.5 34.25 53 4.25s1.75-11-4.25-15.75-17.25-5.75-18.25-13.25 9.25-10 13.75-14.25 2-11.25-2.25-12.25c-.266-.06-.544-.09-.812-.09z" fill="#81cc8b"/></g><path d="m158.53 75.344c-4.76-.015-9.03.968-11.53 3.156-8 7-35 .75-48.5 7s-13.25 38-14.75 44.5-17.5 20.75-20 23.5-13.25 7.25-19.5 8.5-12.75 7.25-15.5 11c-2.021 2.76-7.406 6.45-10.125 8.22-.046.18-.079.35-.125.53-.134.53-.247 1.08-.375 1.63 4.98-1.61 11.18-8.18 16.625-13.63 6.25-6.25 20-7.75 27.75-11.5s14.25-19.75 26.5-23.75 21.25 11.75 24.25 18.5 1.75 12.75 3.75 17 11 11.75 11.5 13.5-5 6.5-6.25 8.5-10.5 7-11.75 8.75c-.97 1.35-1.92 6.77-2.31 9.22.41-.17.75-.31 1.12-.47.49-2.53 1.52-7.08 2.94-8.5 2-2 11.25-4.5 12.5-8.5s7-6.5 7-6.5 2.75 4 16 14c8.83 6.67 12.76 15.53 14.41 20.72.67.17 1.53.41 2.03.53-1.22-4.32-4.84-16.24-8.94-20.75-5-5.5-18.5-10.75-22.75-22s-24.5-34.25-17.5-40.25 16.5-4 28.5 7.5 46.25 5.75 57.75 3.75c9.95-1.73 20.83 14.88 23.91 26.03.59-2.09 1.12-4 1.65-5.75-1.74-1.92-3.69-4.62-5.31-8.28-3.75-8.5-12-13.25-12-13.25s8.75-5 14.75-7.75c1.62-.74 3.01-1.68 4.19-2.66-.16-.77-.26-1.25-.44-2.09-.03-.15-.06-.29-.09-.44-4.77 5.56-19.24 9.62-21.66 10.94-2.75 1.5-18.25 3-35.75 4.5s-26.75-7.5-34.25-14.75-13-36-3-38 20 13.75 30 17 21.5-15.75 19.75-27c-1.2-7.734-14-12.625-24.47-12.656zm-53.34 13.281c1.27.001 5.86 1.594 6.56 2.375 2.25 2.5 2 7.25 0 8s-12.75 8-10.5 14.25 1.75 18-3.5 18-8 0-10-2.5-2-12 0-19.75 3.5-15 8-18.25c3.094-2.234 6.63-2.128 9.44-2.125zm13.59 73.095c.2.01 1.91 3.51 4.72 7.03 3 3.75 3.25 8.25 3.25 8.25s-4.25-4.75-6-8-2-7.25-2-7.25c0-.03.02-.03.03-.03z" fill="#3ac3ff"/><g fill="none"><path d="m122.75 62.25c6.25.5 12.25-2.25 10.75-6.5s-12.5-7.25-13.25-3 2 10.5 2.5 9.5z" opacity=".38696" stroke="#6d7f42" stroke-linecap="round" stroke-linejoin="round"/><path d="m108.75 46.75c-8.5-5.5-8.5-7.25-7-8s10.25 5 12.75 8-2.25 2-5.75 0z" opacity=".38696" stroke="#6d7f42" stroke-linecap="round" stroke-linejoin="round"/><g clip-path="url(#j)" stroke="#6d7f42" transform="translate(0 -10)"><path d="m15.75 151.25c33-2.5 38.25-3.5 36.25-10.25s-8.75-23.5-23-22.5-22.75-6.75-22.75-6.75" opacity=".38696" stroke-linecap="round" stroke-linejoin="round"/><path d="m17.5 177.25c18.25-10 28.75-8.5 35-11.5s13.25-5.75 15.75-9.5 5.75-11.5 5.75-18-3.5-36 3.25-43.5 17.25-26 26-23.25 12.25 9.75 22 9.5 21.75-4 24.25-12.25-15.75-16-16-23 5.5-14.25 20.25-17 23.5-11.5 23.5-11.5" opacity=".38696"/><g stroke-linecap="round" stroke-linejoin="round"><path d="m14.5 161c15.25-1.5 22.25 3.5 31.5 1.75s13.25-3 17.75-5.75 6-3.75 6.25-6.5 1-12.5-3-22-12.5-31.5-8.25-38.75 5.25-21.5 15.75-24.5 21-6.25 27.75-1.25 12.75 14.25 20 14.5 11.75-1.5 14.5-4.5 4.5-10.25 1.75-13.75-15.5-5.5-17.25-9.5-10.75-17-.25-26.75 36.25-8.25 36.25-8.25" opacity=".38696"/><path d="m21.25 159c13.75 1 21.5 4.25 33.5-.5s13.5-5.25 13.75-8.75-.25-15.75-3-20-13-13.75-15.75-24.25.25-41 8.5-48.25 32-7.25 37.5-10.5 5.25-16.75 13-24.5 27-12.25 27-12.25" opacity=".38696"/><path d="m190 18.5c11.75 5 39 9.75 47.25 40.25" opacity=".38696"/><path d="m9.75 214c19-12.5 36-1.25 49-4s38.25-37.25 46-37 5.5-11.75 8.5-13.25 5.5 6 11.75 8 24.5-2.75 23.5-5.75-7-7.75-5.5-8.5 8.5 5 12.75 3.5 43.75-1 48.5-13.5 21.5-13.5 21.5-13.5" opacity=".38696"/><path d="m77.5 233.5c13.5-11.5 23.25-25 28.5-27s12.75-3.75 15.75-8 2.5-10.75 5.25-12 3.75 5.75 8.75 6 36.75-5 42.75-11.75 32.25-12.5 32.5-14.5-1-4.75.25-5.5 24.75-6 24.75-6" opacity=".38696"/><path d="m168.75 236c9-13.75 20.5-41 29.5-42s10.25-2.5 12.5-4.25 17 2.25 17 2.25" opacity=".38696"/></g></g><g clip-path="url(#k)" stroke="#ff5787" stroke-linecap="round" stroke-width="2" transform="translate(0 -10)"><path d="m36.304392 11.579989-5.283159 35.547343 36.228767 7.372668 7.75 36.25-21 22.25 9 10.5-12 11.5.5 4.5 20.25 24.5 14-6.75 20.5 18.5-10.5 28.25 10.25 8.5-2.75 13" stroke-width="1.99866"/><path d="m105.75 212.25 12.5-27.75 11-7 27.5 15.75 20.5-3.75-.25-15.75-10.25-6 12.75-26.25 5.75-3.75 46.7921 4.59468"/></g></g></g><g transform="matrix(1 0 0 .91377447 252.46766 -32.262907)"><path d="m118.375 11.03125c-.52336-.06895-1.05794-.0102-1.5625.125-1.00643.269671-1.88554.918974-2.4375 1.875l-2.0625 3.5625a1.0491519 1.0491519 0 0 0 -.84375.53125l-9.5 16.46875-36 62.34375a1.0491519 1.0491519 0 0 0 -.09375.25l-6.375 24.03125a1.0491519 1.0491519 0 0 0 1.75 1.03125l17.625-17.53125a1.0491519 1.0491519 0 0 0 .15625-.21875l36-62.34375 9.5-16.46875a1.0491519 1.0491519 0 0 0 .0625-.90625l2.09375-3.625c1.11127-1.924777.4576-4.419069-1.46875-5.53125l-5.3125-3.0625c-.47927-.276705-1.00789-.462302-1.53125-.53125z" fill="url(#l)" filter="url(#m)" opacity=".3" transform="matrix(.7141758 .1253856 -.1253856 .7141758 -251.62511 21.702182)"/><path d="m118.375 11.03125c-.52336-.06895-1.05794-.0102-1.5625.125-1.00643.269671-1.88554.918974-2.4375 1.875l-2.0625 3.5625a1.0491519 1.0491519 0 0 0 -.84375.53125l-9.5 16.46875-36 62.34375a1.0491519 1.0491519 0 0 0 -.09375.25l-6.375 24.03125a1.0491519 1.0491519 0 0 0 1.75 1.03125l17.625-17.53125a1.0491519 1.0491519 0 0 0 .15625-.21875l36-62.34375 9.5-16.46875a1.0491519 1.0491519 0 0 0 .0625-.90625l2.09375-3.625c1.11127-1.924777.4576-4.419069-1.46875-5.53125l-5.3125-3.0625c-.47927-.276705-1.00789-.462302-1.53125-.53125z" fill="url(#n)" filter="url(#o)" opacity=".5" transform="matrix(.6274055 .3634982 -.3634982 .6274055 -217.40901 18.011128)"/><path d="m-182.31495 37.799603c-.92804.06487-1.81037.567784-2.3125 1.437501-9.76181 17.046143-24.51576 42.588195-34.37336 59.631585l-4.59375 17.437501 12.78125-12.71875c9.89584-17.009384 24.49583-42.649017 34.34211-59.631586.80341-1.391546.32904-3.16534-1.0625-3.96875l-3.15625-1.812501c-.52183-.301278-1.06818-.413924-1.625-.375z" fill="url(#p)" stroke="url(#q)" stroke-linejoin="round"/><g fill-rule="evenodd"><path d="m-219.87432 112.12187-1.96543-1.15324-1.10599 4.21038" fill="url(#r)"/><path d="m-219.89196 112.0962 7.40886-7.36882s.89321-.86871 1.38396-1.38485c.35293-.33399-.64591-1.72199-2.47839-.0843.8733-3.275083-2.25497-4.18041-3.75638-2.178.4018-1.192617-.0319-2.488332-1.32494-2.039228-.18204.655769-.27773 1.113928-.27773 1.113928l-2.88414 10.8277 1.92876 1.11356z" fill="url(#s)"/><path d="m118.7044 5.9798798-4.77297 17.8986412 1.98873-.839689z" fill="#ac4311" filter="url(#t)" opacity=".4" transform="matrix(-.6279542 -.3625495 .3625495 -.6279542 -148.89466 159.86017)"/></g><path d="m-210.97536 103.40004s-.29369-1.64728-2.59601-.21674c.64748-4.021854-2.48893-3.184493-3.7398-2.13301.38283-2.657094-1.4412-2.03565-1.4412-2.03565" fill="none" opacity=".15" stroke="#4d2600"/><path d="m144.06251 8.9374939-.375 12.5000011 3.0625-.3125z" fill="#fefefe" fill-rule="evenodd" filter="url(#u)" opacity=".8" transform="matrix(-.70484656 -.40694332 .48762908 -.8445984 -124.4369 177.97544)"/><path d="m-182.31331 37.806189c-.92804.06487-1.81037.567784-2.3125 1.4375-1.60111 2.79588-5.26407 9.406141-7.09015 12.584148 2.9115 1.67896 5.11407 2.981821 7.96514 4.623798 1.82421-3.166587 5.67017-9.710429 7.28126-12.489196.80341-1.391546.32905-3.16534-1.0625-3.96875l-3.15625-1.8125c-.52183-.301279-1.06817-.413925-1.625-.375z" fill="url(#v)" stroke="url(#w)" stroke-linejoin="round"/><path d="m-182.60418 53.521332c-2.85107-1.641977-4.35292-2.562624-7.26441-4.241584-.44993.779859-.88182 1.500899-1.3125 2.25 2.9263 1.6878 4.41642 2.614258 7.29566 4.272834z" fill="url(#x)"/><path d="m-181.32524 38.808295-33.86807 58.420121" fill="none" opacity=".3" stroke="url(#y)"/><path d="m-177.60566 41.155557-33.74143 58.293475" fill="none" opacity=".3" stroke="url(#z)"/><path d="m-182.31331 37.806189c-.92804.06487-1.81037.567784-2.3125 1.4375-1.60111 2.79588.0551.160954-1.771 3.338961 2.9115 1.67896 5.11407 2.981821 7.96514 4.623798 1.82421-3.166587.35102-.465242 1.96211-3.244009.80341-1.391546.32905-3.16534-1.0625-3.96875l-3.15625-1.8125c-.52183-.301279-1.06817-.413925-1.625-.375z" fill="url(#A)" opacity=".5"/><path d="m-183.5936 39.018428 6.28741 3.682626" fill="#fefefe" opacity=".4" stroke="url(#B)"/></g></svg>