<svg height="96" width="96" xmlns="http://www.w3.org/2000/svg" xmlns:xlink="http://www.w3.org/1999/xlink"><linearGradient id="a"><stop offset="0"/><stop offset="1" stop-opacity="0"/></linearGradient><linearGradient id="b"><stop offset="0" stop-color="#c8c4b7"/><stop offset="1" stop-color="#e3e2db"/></linearGradient><linearGradient id="c"><stop offset="0" stop-color="#fefefe"/><stop offset="1" stop-color="#fefefe" stop-opacity="0"/></linearGradient><linearGradient id="d" gradientUnits="userSpaceOnUse" x1="-73.642857" x2="-73.642857" xlink:href="#c" y1="6" y2="63.893143"/><radialGradient id="e" cx="48" cy="90.171875" gradientTransform="matrix(1.1573129 0 0 .99590774 -117.55102 .197132)" gradientUnits="userSpaceOnUse" r="42" xlink:href="#c"/><linearGradient id="f" gradientUnits="userSpaceOnUse" x1="-62" x2="-62" xlink:href="#b" y1="90" y2="5.987717"/><radialGradient id="g" cx="-62" cy="98" gradientUnits="userSpaceOnUse" r="42" xlink:href="#c"/><linearGradient id="h" gradientUnits="userSpaceOnUse" x1="48" x2="48" y1="14" y2="42"><stop offset="0" stop-color="#949494"/><stop offset=".19546634" stop-color="#aeaeae"/><stop offset=".66360098" stop-color="#828282"/><stop offset="1" stop-color="#4d4d4d"/></linearGradient><linearGradient id="i" gradientUnits="userSpaceOnUse" spreadMethod="reflect" x1="41.84375" x2="48" y1="28" y2="28"><stop offset="0"/><stop offset=".5" stop-opacity=".162791"/><stop offset="1" stop-opacity="0"/></linearGradient><radialGradient id="j" cx="48" cy="19.5" gradientTransform="matrix(1 0 0 .1 0 36.55)" gradientUnits="userSpaceOnUse" r="5" xlink:href="#c"/><radialGradient id="k" cx="48" cy="19.5" gradientTransform="matrix(1 0 0 .1 0 33.55)" gradientUnits="userSpaceOnUse" r="5" xlink:href="#c"/><radialGradient id="l" cx="48" cy="19.5" gradientTransform="matrix(1 0 0 .1 0 30.55)" gradientUnits="userSpaceOnUse" r="5" xlink:href="#c"/><radialGradient id="m" cx="48" cy="19.5" gradientTransform="matrix(1 0 0 .1 0 27.55)" gradientUnits="userSpaceOnUse" r="5" xlink:href="#c"/><radialGradient id="n" cx="48" cy="19.5" gradientTransform="matrix(1 0 0 .1 0 24.55)" gradientUnits="userSpaceOnUse" r="5" xlink:href="#c"/><radialGradient id="o" cx="48" cy="19.5" gradientTransform="matrix(1 0 0 .1 0 21.55)" gradientUnits="userSpaceOnUse" r="5" xlink:href="#c"/><radialGradient id="p" cx="48" cy="19.5" gradientTransform="matrix(1 0 0 .1 0 18.55)" gradientUnits="userSpaceOnUse" r="5" xlink:href="#c"/><radialGradient id="q" cx="48" cy="19.5" gradientTransform="matrix(1 0 0 .1 0 15.55)" gradientUnits="userSpaceOnUse" r="5" xlink:href="#c"/><radialGradient id="r" cx="48" cy="37.5" gradientTransform="matrix(1 0 0 .1 0 33.75)" gradientUnits="userSpaceOnUse" r="5" xlink:href="#a"/><radialGradient id="s" cx="48" cy="37.5" gradientTransform="matrix(1 0 0 .1 0 30.75)" gradientUnits="userSpaceOnUse" r="5" xlink:href="#a"/><radialGradient id="t" cx="48" cy="37.5" gradientTransform="matrix(1 0 0 .1 0 27.75)" gradientUnits="userSpaceOnUse" r="5" xlink:href="#a"/><radialGradient id="u" cx="48" cy="37.5" gradientTransform="matrix(1 0 0 .1 0 24.75)" gradientUnits="userSpaceOnUse" r="5" xlink:href="#a"/><radialGradient id="v" cx="48" cy="37.5" gradientTransform="matrix(1 0 0 .1 0 21.75)" gradientUnits="userSpaceOnUse" r="5" xlink:href="#a"/><radialGradient id="w" cx="48" cy="37.5" gradientTransform="matrix(1 0 0 .1 0 18.75)" gradientUnits="userSpaceOnUse" r="5" xlink:href="#a"/><radialGradient id="x" cx="48" cy="37.5" gradientTransform="matrix(1 0 0 .1 0 15.75)" gradientUnits="userSpaceOnUse" r="5" xlink:href="#a"/><radialGradient id="y" cx="48" cy="37.5" gradientTransform="matrix(1 0 0 .1 0 12.75)" gradientUnits="userSpaceOnUse" r="5" xlink:href="#a"/><linearGradient id="z" gradientUnits="userSpaceOnUse" x1="48" x2="48" y1="8" y2="48"><stop offset="0" stop-color="#a49e89"/><stop offset="1" stop-color="#fefefe"/></linearGradient><filter id="A" color-interpolation-filters="sRGB" height="2.36356" width="1.092132" x="-.046066" y="-.68178"><feGaussianBlur stdDeviation="1.4203751"/></filter><linearGradient id="B"><stop offset="0" stop-color="#333"/><stop offset="1" stop-color="#595959"/></linearGradient><linearGradient id="C" gradientUnits="userSpaceOnUse" x1="16" x2="16" xlink:href="#B" y1="88" y2="8"/><linearGradient id="D" gradientUnits="userSpaceOnUse" x1="-162" x2="-162" xlink:href="#b" y1="90" y2="5.987717"/><linearGradient id="E" gradientUnits="userSpaceOnUse" x1="40" x2="40" xlink:href="#c" y1="8" y2="64"/><radialGradient id="F" cx="7.218325" cy="76.395973" gradientTransform="matrix(.94117647 -.00000015 .00000044 2.823529 1.206249 -127.70625)" gradientUnits="userSpaceOnUse" r="17" xlink:href="#a"/><radialGradient id="G" cx="93.666664" cy="64.190475" gradientTransform="matrix(-1.4117647 0 .00000002 4.7058821 132.23529 -214.07282)" gradientUnits="userSpaceOnUse" r="17" xlink:href="#a"/><radialGradient id="H" cx="7.218325" cy="76.395973" gradientTransform="matrix(-.94117647 -.00000015 -.00000044 2.823529 94.793751 -127.70625)" gradientUnits="userSpaceOnUse" r="17" xlink:href="#a"/><radialGradient id="I" cx="93.666664" cy="64.190475" gradientTransform="matrix(1.4117647 0 -.00000002 4.7058821 -36.235292 -214.07282)" gradientUnits="userSpaceOnUse" r="17" xlink:href="#a"/><linearGradient id="J" gradientTransform="matrix(1.0058652 0 0 .994169 100 0)" gradientUnits="userSpaceOnUse" x1="45.447727" x2="45.447727" y1="92.539597" y2="7.01654"><stop offset="0"/><stop offset="1" stop-opacity=".588235"/></linearGradient><linearGradient id="K" gradientTransform="matrix(1.0238095 0 0 1.0119048 -1.142857 -98.071429)" gradientUnits="userSpaceOnUse" x1="32.251034" x2="32.251034" xlink:href="#J" y1="6.131708" y2="90.238609"/><linearGradient id="L" gradientTransform="matrix(1.0238095 0 0 1.0119048 98.857143 -98.071429)" gradientUnits="userSpaceOnUse" x1="32.251034" x2="32.251034" xlink:href="#J" y1="6.131708" y2="90.238609"/><linearGradient id="M" gradientTransform="translate(100 -97)" gradientUnits="userSpaceOnUse" x1="32.251034" x2="32.251034" xlink:href="#J" y1="6.131708" y2="90.238609"/><linearGradient id="N" gradientTransform="translate(0 1)" gradientUnits="userSpaceOnUse" x1="48" x2="48" xlink:href="#J" y1="90" y2="5.987717"/><linearGradient id="O" gradientTransform="matrix(-1 0 0 1 96 0)" gradientUnits="userSpaceOnUse" x1="16" x2="16" xlink:href="#B" y1="88" y2="8"/><linearGradient id="P" gradientUnits="userSpaceOnUse" x1="48" x2="48" xlink:href="#b" y1="90" y2="5.987717"/><g><g fill="url(#N)"><path d="m12 4.03125c-5.4806525 0-9.96875 4.4880975-9.96875 9.96875v10 1 8c0 7.919746 1.3538702 13.299357 2.59375 18.875 1.2403085 5.577571 2.40625 11.444844 2.40625 21.125v7 5c0 5.480652 4.488098 9.96875 9.96875 9.96875h13 42 7c5.480652 0 9.96875-4.488098 9.96875-9.96875v-11-1c0-9.680156 1.165942-15.547429 2.40625-21.125 1.23988-5.575643 2.59375-10.955254 2.59375-18.875v-9-10c0-5.4806526-4.488098-9.96875-9.96875-9.96875h-12-47-1z" opacity=".08"/><path d="m12 5.0625c-4.9227203 0-8.9375 4.0147797-8.9375 8.9375v10 1 8c0 7.804137 1.3188434 13.063623 2.5625 18.65625 1.2437893 5.593224 2.4375 11.579956 2.4375 21.34375v7 5c0 4.92272 4.01478 8.9375 8.9375 8.9375h13 42 7c4.92272 0 8.9375-4.01478 8.9375-8.9375v-11-1c0-9.763794 1.193711-15.750526 2.4375-21.34375 1.243657-5.592627 2.5625-10.852113 2.5625-18.65625v-9-10c0-4.9227203-4.01478-8.9375-8.9375-8.9375h-12-47-1z" opacity=".1"/><path d="m12 6c-4.4183171 0-8 3.5816829-8 8v10 1 8c0 7.700347 1.284457 12.862019 2.53125 18.46875s2.46875 11.690195 2.46875 21.53125v7 5c0 4.418317 3.581683 8 8 8h13 42 7c4.418317 0 8-3.581683 8-8v-11-1c0-9.841055 1.221957-15.924519 2.46875-21.53125s2.53125-10.768403 2.53125-18.46875v-9-10c0-4.4183171-3.581683-8-8-8h-12-47-1z" opacity=".2"/><path d="m12 7c-3.878 0-7 3.122-7 7v10 1 8c0 15.179622 5 20.148843 5 40v7 5c0 3.878 3.122 7 7 7h13 42 7c3.878 0 7-3.122 7-7v-11-1c0-19.851157 5-24.820378 5-40v-9-10c0-3.878-3.122-7-7-7h-12-47-1z" opacity=".3"/></g><path d="m12-95.03125c-5.5110903 0-10.03125 4.52016-10.03125 10.03125v71c0 5.5110902 4.5201598 10.03125 10.03125 10.03125h72c5.51109 0 10.03125-4.5201597 10.03125-10.03125v-71c0-5.51109-4.52016-10.03125-10.03125-10.03125z" fill="url(#K)" opacity=".08" transform="matrix(1 0 0 -1 100 0)"/><path d="m12-94.03125c-4.971633 0-9.03125 4.059617-9.03125 9.03125v71c0 4.9716329 4.0596171 9.03125 9.03125 9.03125h72c4.971633 0 9.03125-4.059617 9.03125-9.03125v-71c0-4.971633-4.059617-9.03125-9.03125-9.03125z" fill="url(#K)" opacity=".1" transform="matrix(1 0 0 -1 100 0)"/><path d="m12-93c-4.4091333 0-8 3.590867-8 8v71c0 4.4091333 3.5908667 8 8 8h72c4.409133 0 8-3.5908667 8-8v-71c0-4.409133-3.590867-8-8-8z" fill="url(#K)" opacity=".2" transform="matrix(1 0 0 -1 100 0)"/><rect fill="url(#L)" height="85" opacity=".3" rx="7" transform="scale(1 -1)" width="86" x="105" y="-92"/><rect fill="url(#M)" height="84" opacity=".45" rx="6" transform="scale(1 -1)" width="84" x="106" y="-91"/><path d="m12 7c-3.324 0-6 2.676-6 6v4 16c0 15.179622 5 20.148843 5 40v12c0 3.313708 2.68629 6 6 6h9 44 4 5c3.31371 0 6-2.686292 6-6v-12c0-19.851157 5-24.820378 5-40v-16-4c0-3.11625-2.34211-5.662583-5.375-5.96875-.20219-.0204111-.41725-.03125-.625-.03125z" fill="url(#N)" opacity=".45"/></g><g><path d="m21 6c-2.761424 0-5 2.2385763-5 5v7 14c0 14.107143 10 24 10 44v14h44v-14c0-20 10-29.892857 10-44v-14-7c0-2.7614237-2.238576-5-5-5h-1-5-40-7zm63 0c.20775 0 .42281.010839.625.03125.478847.048339.937091.1590508 1.375.3125v-.34375z" fill="url(#P)"/><path d="m45.60625 6v46.9375.03125c.000079.01112 0 .03722 0 .03125 0 1.136812.956938 2.09375 2.09375 2.09375s2.09375-.956938 2.09375-2.09375c0 .006-.000079-.02013 0-.03125s.000863-.0041 0-.03125v-46.9375z" fill="#fefefe" opacity=".6"/><rect fill="url(#f)" height="84" rx="6" width="84" x="-104" y="6"/><rect fill="#fefefe" filter="url(#A)" height="5" opacity=".2" rx="8" ry="2.5" transform="matrix(1 0 0 2.2519731 0 -7.837352)" width="74" x="11" y="11"/><path d="m-98 6c-3.324 0-6 2.676-6 6v2 68 2c0 .334721.0413.6507.0937.96875.0487.295596.097.596915.1875.875.01.03038.0209.0636.0312.09375.0989.287771.23488.547452.375.8125.14459.273507.31562.535615.5.78125s.37378.473472.59375.6875c.43995.428056.94291.814526 1.5 1.09375.27854.139612.57347.246947.875.34375-.2562-.100222-.48671-.236272-.71875-.375-.007-.0044-.0239.0045-.0312 0-.0319-.0193-.0623-.04251-.0937-.0625-.1204-.0767-.23102-.163513-.34375-.25-.10617-.0808-.21328-.161112-.3125-.25-.17793-.161433-.34746-.345388-.5-.53125-.10758-.130255-.21839-.265285-.3125-.40625-.0251-.03838-.0384-.08587-.0625-.125-.0648-.103032-.13023-.204517-.1875-.3125-.10101-.194706-.20568-.415701-.28125-.625-.008-.02181-.0236-.04055-.0312-.0625-.0318-.09195-.0358-.186831-.0625-.28125-.0303-.106618-.0704-.203031-.0937-.3125-.07298-.341512-.1251-.698205-.1251-1.0625v-2-68-2c0-2.781848 2.21815-5 5-5h2 68 2c2.781848 0 5 2.218152 5 5v2 68 2c0 .364295-.05212.720988-.125 1.0625-.04415.206893-.08838.397658-.15625.59375-.0077.02195-.0233.04069-.03125.0625-.06274.173739-.138383.367449-.21875.53125-.04158.0828-.07904.169954-.125.25-.0546.09721-.126774.18835-.1875.28125-.09411.140965-.204921.275995-.3125.40625-.143174.17445-.303141.346998-.46875.5-.01117.0102-.01998.02115-.03125.03125-.138386.125556-.285091.234436-.4375.34375-.102571.07315-.204318.153364-.3125.21875-.0074.0045-.02384-.0044-.03125 0-.232039.138728-.462548.274778-.71875.375.301527-.0968.596455-.204138.875-.34375.55709-.279224 1.060053-.665694 1.5-1.09375.219973-.214028.409366-.441865.59375-.6875s.355408-.507743.5-.78125c.14012-.265048.276135-.524729.375-.8125.01041-.03078.02133-.06274.03125-.09375.09046-.278085.1388-.579404.1875-.875.0524-.31805.09375-.634029.09375-.96875v-2-68-2c0-3.324-2.676-6-6-6z" fill="url(#d)" opacity=".5"/><path d="m-110 16v76h11v-2h6c-3.313708 0-6-2.686292-6-6v-12c0-19.851157-5-24.820378-5-40v-16zm90 0v16c0 15.179622-5 20.148843-5 40v12c0 3.313708-2.686292 6-6 6h6v2h11v-76z" fill="#f00" opacity=".504098"/><path d="m-98 90c-3.324 0-6-2.676-6-6v-2-68-2c0-.334721.0413-.6507.0937-.96875.0487-.295596.097-.596915.1875-.875.01-.03038.0209-.0636.0312-.09375.0989-.287771.23488-.547452.375-.8125.14459-.273507.31562-.535615.5-.78125s.37378-.473472.59375-.6875c.43995-.428056.94291-.814526 1.5-1.09375.27854-.139612.57347-.246947.875-.34375-.2562.100222-.48671.236272-.71875.375-.007.0044-.0239-.0045-.0312 0-.0319.0193-.0623.04251-.0937.0625-.1204.0767-.23102.163513-.34375.25-.10617.0808-.21328.161112-.3125.25-.17793.161433-.34746.345388-.5.53125-.10758.130255-.21839.265285-.3125.40625-.0251.03838-.0384.08587-.0625.125-.0648.103032-.13023.204517-.1875.3125-.10101.194706-.20568.415701-.28125.625-.008.02181-.0236.04055-.0312.0625-.0318.09195-.0358.186831-.0625.28125-.0303.106618-.0704.203031-.0937.3125-.07298.341512-.1251.698205-.1251 1.0625v2 68 2c0 2.781848 2.21815 5 5 5h2 68 2c2.781848 0 5-2.218152 5-5v-2-68-2c0-.364295-.05212-.720988-.125-1.0625-.04415-.206893-.08838-.397658-.15625-.59375-.0077-.02195-.0233-.04069-.03125-.0625-.06274-.173739-.138383-.367449-.21875-.53125-.04158-.0828-.07904-.169954-.125-.25-.0546-.09721-.126774-.18835-.1875-.28125-.09411-.140965-.204921-.275995-.3125-.40625-.143174-.17445-.303141-.346998-.46875-.5-.01117-.0102-.01998-.02115-.03125-.03125-.138386-.125556-.285091-.234436-.4375-.34375-.102571-.07315-.204318-.153364-.3125-.21875-.0074-.0045-.02384.0044-.03125 0-.232039-.138728-.462548-.274778-.71875-.375.301527.0968.596455.204138.875.34375.55709.279224 1.060053.665694 1.5 1.09375.219973.214028.409366.441865.59375.6875s.355408.507743.5.78125c.14012.265048.276135.524729.375.8125.01041.03078.02133.06274.03125.09375.09046.278085.1388.579404.1875.875.0524.31805.09375.634029.09375.96875v2 68 2c0 3.324-2.676 6-6 6z" fill="url(#e)" opacity=".2"/><path d="m-98 16c-3.324 0-6 2.676-6 6v4 16c0 15.179622 5 20.148843 5 40v12c0 3.313708 2.686292 6 6 6h62c3.313708 0 6-2.686292 6-6v-12c0-19.851157 5-24.820378 5-40v-16-4c0-3.324-2.676-6-6-6zm0 2.03125h72c2.240595 0 3.96875 1.728155 3.96875 3.96875v4 16c0 7.368173-1.18107 12.16243-2.4375 17.8125s-2.5625 12.092441-2.5625 22.1875v12c0 2.222758-1.745992 3.96875-3.96875 3.96875h-62c-2.222758 0-3.96875-1.745992-3.96875-3.96875v-12c0-10.095059-1.30607-16.53743-2.5625-22.1875s-2.4375-10.444327-2.4375-17.8125v-16-4c0-2.240595 1.72815-3.96875 3.96875-3.96875z" fill="url(#g)" opacity=".2"/><path d="m48 9.96875c-5.529858 0-10.03125 4.501392-10.03125 10.03125v16c0 5.529858 4.501392 10.03125 10.03125 10.03125s10.03125-4.501392 10.03125-10.03125v-16c0-5.529858-4.501392-10.03125-10.03125-10.03125z" fill="url(#z)" opacity=".9"/><path d="m46.7 6v46.96875c-.000342.01075 0 .02042 0 .03125 0 .552285.447715 1 1 1s1-.447715 1-1c0-.01083.000342-.0205 0-.03125v-46.96875z" opacity=".9"/><rect height="32" opacity=".9" rx="8" width="16" x="40" y="12"/><path d="m48 13.84375c-3.439318 0-6.15625 2.716932-6.15625 6.15625v16c0 3.439318 2.716932 6.15625 6.15625 6.15625s6.15625-2.716932 6.15625-6.15625v-16c0-3.439318-2.716932-6.15625-6.15625-6.15625z" fill="url(#h)" opacity=".99"/><path d="m48 13.84375c-3.439318 0-6.15625 2.716932-6.15625 6.15625v16c0 3.439318 2.716932 6.15625 6.15625 6.15625s6.15625-2.716932 6.15625-6.15625v-16c0-3.439318-2.716932-6.15625-6.15625-6.15625z" fill="url(#i)" opacity=".5"/><path d="m43 38h10v1h-10z" fill="url(#j)" opacity=".4"/><path d="m43 35h10v1h-10z" fill="url(#k)" opacity=".4"/><path d="m43 32h10v1h-10z" fill="url(#l)" opacity=".4"/><path d="m43 29h10v1h-10z" fill="url(#m)" opacity=".4"/><path d="m43 26h10v1h-10z" fill="url(#n)" opacity=".4"/><path d="m43 23h10v1h-10z" fill="url(#o)" opacity=".4"/><path d="m43 20h10v1h-10z" fill="url(#p)" opacity=".4"/><path d="m43 17h10v1h-10z" fill="url(#q)" opacity=".4"/><path d="m43 37h10v1h-10z" fill="url(#r)" opacity=".6"/><path d="m43 34h10v1h-10z" fill="url(#s)" opacity=".6"/><path d="m43 31h10v1h-10z" fill="url(#t)" opacity=".6"/><path d="m43 28h10v1h-10z" fill="url(#u)" opacity=".4"/><path d="m43 25h10v1h-10z" fill="url(#v)" opacity=".6"/><path d="m43 22h10v1h-10z" fill="url(#w)" opacity=".6"/><path d="m43 19h10v1h-10z" fill="url(#x)" opacity=".6"/><path d="m43 16h10v1h-10z" fill="url(#y)" opacity=".6"/><path d="m12 6c-3.324 0-6 2.676-6 6v4 16c0 15.179622 5 20.148843 5 40v12c0 3.313708 2.68629 6 6 6h9v-14c0-20-10-29.892857-10-44v-21c0-2.7614237 2.238576-5 5-5h-5z" fill="url(#C)"/><path d="m75 6c2.761424 0 5 2.2385763 5 5v21c0 14.107143-10 24-10 44v14h9c3.31371 0 6-2.686292 6-6v-12c0-19.851157 5-24.820378 5-40v-16-4c0-3.11625-2.34211-5.662583-5.375-5.96875-.20219-.0204111-.41725-.03125-.625-.03125z" fill="url(#O)"/><path d="m21 6c-2.761424 0-5 2.2385763-5 5v21c0 14.107143 10 24 10 44v14h1v-14c0-20-10-29.892857-10-44v-21c0-2.7614237 2.238576-5 5-5z" fill="#fefefe" opacity=".6"/><path d="m75 6c2.761424 0 5 2.2385763 5 5v21c0 14.107143-10 24-10 44v14h-1v-14c0-20 10-29.892857 10-44v-21c0-2.7614237-2.238576-5-5-5z" fill="#fefefe" opacity=".6"/><path d="m50.96875 57.4375c-1.342937-.09017-1.757038 1.50341-1.53125 2.5625.330073.715084 1.176062.536417 1.5625 0 .787257-.598257 1.405431-2.394289-.03125-2.5625zm4.03125 1.5625c-1.050666.06588-2.112803 1.05125-1.9375 2.125 1.120516 1.125017 4.106234-.243572 2.9375-1.84375-.294679-.212412-.649778-.303211-1-.28125zm-7 1c-3.313708 0-6 2.686292-6 6s2.686292 6 6 6 6-2.686292 6-6c0-.165789-.01806-.33761-.03125-.5-.25605 2.52128-2.379915 4.5-4.96875 4.5-2.761424 0-5-2.238576-5-5 0-2.588835 1.97872-4.7127 4.5-4.96875-.16239-.01319-.334211-.03125-.5-.03125zm1 2c-1.656854 0-3 1.343146-3 3s1.343146 3 3 3 3-1.343146 3-3-1.343146-3-3-3zm7.46875 1.21875c-1.132644-.014131-2.579557.822571-1.09375 2.03125.502079.374339 1.212584.160309 1.625-.25 1.03937-1.254621.349695-1.770259-.53125-1.78125z" opacity=".2"/><g opacity=".2"><path d="m41.494093 74.928424v.764782h1.264697v.399931h-1.264697v.906863h-.517455v-2.471508h1.822496v.399932z"/><path d="m44.723366 77-.21926-.631471h-.941945l-.219261.631471h-.517455l.9016-2.471508h.610422l.898093 2.471508zm-.578848-1.731283c-.01403-.04093-.02807-.08186-.0421-.122786-.01287-.0421-.02456-.0801-.03508-.114016-.0094-.03508-.01754-.06373-.02456-.08595-.0058-.02222-.0094-.0345-.01053-.03684-.0012.0035-.0047.01637-.01052.03859-.0058.02222-.01403.05029-.02456.0842-.0094.03391-.02105.07192-.03508.114016-.01287.04093-.02631.08186-.04034.122786l-.243818.710405h.710405l-.243818-.710405"/><path d="m45.572344 77v-2.471508h1.943528v.399932h-1.426072v.620947h1.319073v.399931h-1.319073v.650766h1.49799v.399932z"/><path d="m49.476941 77-1.077009-1.903184c.0058.05145.01111.102909.01579.15436.0047.04444.0082.09238.01053.143835.0035.05146.0053.100569.0053.147343v1.457646h-.459571v-2.471508h.591128l1.092795 1.918971c-.0058-.04911-.01111-.100567-.01579-.15436-.0047-.04561-.0088-.09706-.01228-.154359-.0023-.0573-.0035-.115184-.0035-.173655v-1.436597h.45957v2.471508h-.606913"/><path d="m52.418543 77h-1.983872v-.366604l1.336614-1.69971h-1.203303v-.405194h1.778643v.359588l-1.336613 1.706726h1.408531z"/><path d="m54.511168 77-.219261-.631471h-.941944l-.219261.631471h-.517455l.9016-2.471508h.610422l.898092 2.471508zm-.578848-1.731283c-.01403-.04093-.02807-.08186-.0421-.122786-.01286-.0421-.02456-.0801-.03508-.114016-.0094-.03508-.01754-.06373-.02456-.08595-.0058-.02222-.0094-.0345-.01052-.03684-.0012.0035-.0047.01637-.01052.03859-.0058.02222-.01403.05029-.02456.0842-.0094.03391-.02105.07192-.03508.114016-.01287.04093-.02631.08186-.04034.122786l-.243818.710405h.710405l-.243818-.710405"/></g><path d="m-198 6c-3.324 0-6 2.676-6 6v4 16c0 15.179622 5 20.148843 5 40v12c0 3.313708 2.68629 6 6 6h62c3.31371 0 6-2.686292 6-6v-12c0-19.851157 5-24.820378 5-40v-16-4c0-3.324-2.676-6-6-6z" fill="url(#D)"/><g fill="url(#E)"><path d="m22 6c-1.797649 0-3.402172.7867022-4.5 2.03125h61c-1.097828-1.2445478-2.702351-2.03125-4.5-2.03125zm-.625 83.96875c.202192.020411.41725.03125.625.03125h52c.20775 0 .422808-.01084.625-.03125z" opacity=".5"/><path d="m12 6c-3.324 0-6 2.676-6 6v4 16c0 15.179622 5 20.148843 5 40v12c0 3.313708 2.68629 6 6 6h9v-.03125h-9c-2.762872 0-4.96875-2.205878-4.96875-4.96875v-12c0-10.011152-1.278003-16.332997-2.53125-21.96875-1.2532468-5.635753-2.46875-10.553347-2.46875-18.03125v-16-4c0-2.776973 2.1917766-4.96875 4.96875-4.96875h5c.911811-1.2192347 2.360404-2.03125 4-2.03125h-5zm63 0c1.639595 0 3.088189.8120153 4 2.03125h5c2.776973 0 4.96875 2.191777 4.96875 4.96875v4 16c0 7.477903-1.215503 12.395497-2.46875 18.03125s-2.53125 11.957598-2.53125 21.96875v12c0 2.762872-2.205878 4.96875-4.96875 4.96875h-9v.03125h9c.62132 0 1.217617-.105942 1.78125-.28125 2.442412-.759669 4.21875-3.026362 4.21875-5.71875v-12c0-19.851157 5-24.820378 5-40v-16-4c0-.216142-.0093-.414898-.03125-.625-.0171-.169404-.03171-.335136-.0625-.5-.0059-.03115-.02486-.06278-.03125-.09375-.0331-.16257-.07912-.311327-.125-.46875-.0091-.0317-.0216-.06227-.03125-.09375-.04467-.144215-.07001-.2982299-.125-.4375-.01707-.043586-.04445-.081926-.0625-.125-.052327-.1241277-.09599-.2553471-.15625-.375-.027137-.054103-.065043-.10311-.09375-.15625-.059545-.1098846-.121427-.2069298-.1875-.3125-.03567-.057416-.08747-.1001654-.125-.15625-.02084-.030896-.0411-.06327-.0625-.09375-.090326-.129581-.181207-.2532475-.28125-.375-.061042-.0740259-.123027-.1477845-.1875-.21875-.172286-.1901005-.367204-.3647482-.5625-.53125-.022361-.0189966-.039857-.0438285-.0625-.0625-.148052-.122083-.309199-.2361367-.46875-.34375-.051547-.0347674-.103571-.0605613-.15625-.09375-.109072-.0686405-.198776-.1571148-.3125-.21875-.040467-.0219288-.083972-.0414813-.125-.0625-.132392-.0677182-.268287-.1295731-.40625-.1875-.02993-.0126172-.063572-.0191058-.09375-.03125-.148846-.0596039-.314165-.108498-.46875-.15625-.0221-.00684-.04029-.024654-.0625-.03125-.167276-.04958-.326814-.089913-.5-.125-.01005-.00205-.02119.002-.03125 0-.183756-.036229-.372945-.0746146-.5625-.09375-.202192-.0204111-.41725-.03125-.625-.03125z" opacity=".25"/></g></g><g><path d="m56 6v84h23c3.313708 0 6-2.686292 6-6v-12c0-19.851157 5-24.820378 5-40v-16-4c0-3.324-2.676-6-6-6z" fill="url(#I)" opacity=".5"/><path d="m90 32c0 15.179622-5 20.148843-5 40v12c0 3.313708-2.686292 6-6 6h-23v-58z" fill="url(#H)" opacity=".9"/><path d="m40 6v84h-23c-3.313708 0-6-2.686292-6-6v-12c0-19.851157-5-24.820378-5-40v-16-4c0-3.324 2.676-6 6-6z" fill="url(#G)" opacity=".5"/><path d="m6 32c0 15.179622 5 20.148843 5 40v12c0 3.313708 2.686292 6 6 6h23v-58z" fill="url(#F)" opacity=".9"/></g></svg>