<svg height="96" width="96" xmlns="http://www.w3.org/2000/svg" xmlns:xlink="http://www.w3.org/1999/xlink"><linearGradient id="a"><stop offset="0" stop-color="#fefefe"/><stop offset="1" stop-color="#fefefe" stop-opacity="0"/></linearGradient><linearGradient id="b" gradientTransform="matrix(1 0 0 1.0051693 .224034 -1.599013)" gradientUnits="userSpaceOnUse" x1="53.368664" x2="53.669064" y1="86.8134" y2="45.625286"><stop offset="0" stop-color="#8b8b8b"/><stop offset="1" stop-color="#cfcfcf"/></linearGradient><linearGradient id="c" gradientUnits="userSpaceOnUse" x1="49.449135" x2="49.482201" xlink:href="#a" y1="66.221779" y2="75.568314"/><linearGradient id="d" gradientTransform="matrix(-.65011603 0 0 .66294361 82.418616 20.79031)" gradientUnits="userSpaceOnUse" x1="60.705441" x2="95.446144" xlink:href="#a" y1="53.097519" y2="71.020226"/><linearGradient id="e" gradientTransform="matrix(.65011603 0 0 .66294361 19.74081 24.822919)" gradientUnits="userSpaceOnUse" x1="60.705441" x2="95.446144" xlink:href="#a" y1="53.097519" y2="71.020226"/><linearGradient id="f" gradientTransform="matrix(-1 0 0 1 96.334546 0)" gradientUnits="userSpaceOnUse" x1="60.705441" x2="95.446144" xlink:href="#a" y1="53.097519" y2="71.020226"/><linearGradient id="g" gradientUnits="userSpaceOnUse" x1="60.929475" x2="95.670178" xlink:href="#a" y1="51.97735" y2="69.900057"/><linearGradient id="h" gradientTransform="matrix(1 0 0 1.0303823 .224034 -1.850355)" gradientUnits="userSpaceOnUse" x1="33.860767" x2="60.730816" y1="49.614384" y2="49.768131"><stop offset="0" stop-color="#212121"/><stop offset=".20603763" stop-color="#e9e9e9"/><stop offset=".33881262" stop-color="#e4e4e4"/><stop offset=".44108751" stop-color="#b4b4b4"/><stop offset="1" stop-color="#2e2e2e"/></linearGradient><linearGradient id="i" gradientTransform="matrix(1 0 0 1.0303823 2.91244 -1.402287)" gradientUnits="userSpaceOnUse" x1="64.427597" x2="81.240097" y1="58.549042" y2="58.549042"><stop offset="0" stop-color="#353535"/><stop offset=".35066888" stop-color="#e9e9e9"/><stop offset=".48344389" stop-color="#e4e4e4"/><stop offset=".58571869" stop-color="#b4b4b4"/><stop offset="1" stop-color="#393939"/></linearGradient><linearGradient id="j" gradientTransform="matrix(1 0 0 1.0303823 -1.792271 -1.850355)" gradientUnits="userSpaceOnUse" x1="14.251238" x2="31.063738" y1="58.513458" y2="58.513458"><stop offset="0" stop-color="#323232"/><stop offset=".35390219" stop-color="#e9e9e9"/><stop offset=".4866772" stop-color="#e4e4e4"/><stop offset=".58895195" stop-color="#b4b4b4"/><stop offset="1" stop-color="#2c2c2c"/></linearGradient><radialGradient id="k" cx="45.153168" cy="48.347942" gradientTransform="matrix(1.2847665 -.03793186 .04926549 1.660608 -16.332153 -26.112204)" gradientUnits="userSpaceOnUse" r="10.081522"><stop offset="0" stop-color="#fefefe"/><stop offset="1" stop-color="#0026d2"/></radialGradient><linearGradient id="l" gradientUnits="userSpaceOnUse" x1="44.416354" x2="45.984591" xlink:href="#a" y1="51.351651" y2="91.453706"/><linearGradient id="m" gradientTransform="matrix(1.3535534 0 0 1 -15.340322 -1.753833)" gradientUnits="userSpaceOnUse" x1="41.558273" x2="42.230373" xlink:href="#a" y1="58.474339" y2="91.63134"/><linearGradient id="n" gradientTransform="matrix(1 0 0 .78415301 -25.091789 18.906393)" gradientUnits="userSpaceOnUse" x1="45.142815" x2="46.711052" xlink:href="#a" y1="52.313404" y2="92.415459"/><linearGradient id="o" gradientTransform="matrix(1 0 0 .78095372 -26.211958 18.973319)" gradientUnits="userSpaceOnUse" x1="41.558273" x2="42.230373" xlink:href="#a" y1="58.474339" y2="91.63134"/><linearGradient id="p" gradientTransform="matrix(1 0 0 .79234973 29.7965 19.050533)" gradientUnits="userSpaceOnUse" x1="45.142815" x2="46.711052" xlink:href="#a" y1="52.313404" y2="92.415459"/><linearGradient id="q" gradientTransform="matrix(1 0 0 .78095372 28.452297 20.093488)" gradientUnits="userSpaceOnUse" x1="41.558273" x2="42.230373" xlink:href="#a" y1="58.474339" y2="91.63134"/><g transform="matrix(.95849744 0 0 1.0081853 1.57681 -.772966)"><path d="m48.237373 91.51273s-48.14767482-9.071223-48.03059737-18.730054c.09857464-8.132604 37.36387937-39.489436 46.74425437-39.402821 9.932739.214173 49.201409 32.915243 49.239096 38.524771-.119064 12.982323-47.952753 19.608104-47.952753 19.608104z" opacity=".1"/><path d="m48.157454 90.159234s-47.27355779-8.646168-47.15860586-17.852411c.09678546-7.751529 36.68554186-37.63906 45.89561686-37.556503 9.752412.204137 48.308163 31.372917 48.345166 36.719598-.116903 12.374003-47.082177 18.689316-47.082177 18.689316z" opacity=".2"/><path d="m48.076894 89.283441s-45.604789-8.285879-45.4938949-17.108495c.0933689-7.428523 35.3905329-36.070636 44.2754899-35.991518 9.408149.19563 46.602871 30.065602 46.638568 35.189485-.112776 11.858378-45.420163 17.910528-45.420163 17.910528z" opacity=".3"/><path d="m48.075606 88.646503s-44.015485-7.987711-43.9084555-16.492844c.090115-7.161206 34.1571905-34.772629 42.7325115-34.696358 9.08028.18859 44.978784 28.983687 45.013237 33.923187-.108846 11.431653-43.837293 17.266015-43.837293 17.266015z" opacity=".252381"/><path d="m48.390891 87.691095s-42.1083194-7.590154-42.0059269-15.671977c.0862131-6.804783 32.6771789-33.041952 40.8809359-32.969478 8.686837.179205 43.029877 27.541134 43.062836 32.234789-.104128 10.862686-41.937845 16.406666-41.937845 16.406666z" fill="url(#b)" stroke="url(#c)" stroke-width="1.8"/><g fill="none" stroke-linecap="round"><path d="m51.249948 49.678796-24.760158 19.159312" stroke="url(#d)" stroke-width="2.363395"/><path d="m50.909478 53.711405 24.760158 19.159312" stroke="url(#e)" stroke-width="2.363395"/><path d="m48.391307 43.576084-38.085751 28.900364" stroke="url(#f)" stroke-width="3.6"/><path d="m48.167274 42.455915 38.085751 28.900364" stroke="url(#g)" stroke-width="3.6"/></g><g transform="matrix(1.2998692 0 0 1.2203483 41.486413 -24.693943)"><path d="m4.7710461 26.203475c-7.166137 0-12.942934 6.816327-12.942934 15.284306l-1.0359001 55.373414 27.652993.62665-.731224-56.000064c-.110561-8.467216-5.7768-15.284306-12.9429349-15.284306z" opacity=".1"/><path d="m4.7710451 27.099611c-6.545931 0-11.822765 6.645248-11.822765 14.900694l-.9749648 54.591405 26.0220077-.12533-1.401512-54.466075c-.212353-8.252557-5.276837-14.900694-11.8227659-14.900694z" opacity=".2"/><path d="m4.7710451 27.995746c-5.987745 0-10.814613 6.484861-10.814613 14.541058l-1.6452531 53.333452 25.285345.12533-2.010865-53.458782c-.302809-8.050176-4.82687-14.541058-10.8146139-14.541058z" opacity=".3"/><path d="m4.7150371 28.667847c-5.33652902 0-9.638436 6.356552-9.638436 14.253349l-2.1327355 52.339623 24.2126314.12533-2.315542-52.590283c-.347338-7.888714-4.78939-14.128019-10.1259179-14.128019z" opacity=".4"/></g><path d="m75.802298 25.6633c-7.166137 0-12.942934 6.561792-12.942934 14.71356v54.029561h25.885869v-54.029561c0-8.151768-5.7768-14.71356-12.942935-14.71356z" opacity=".1"/><path d="m75.802297 26.525973c-6.545931 0-11.822765 6.397101-11.822765 14.344272v52.673504h23.645531v-52.673504c0-7.947171-5.276837-14.344272-11.822766-14.344272z" opacity=".2"/><path d="m75.802297 27.388644c-5.987745 0-10.814613 6.242704-10.814613 13.998066v51.402201h21.629227v-51.402201c0-7.755362-4.82687-13.998066-10.814614-13.998066z" opacity=".3"/><path d="m47.599034 8.4212683c-5.64722 0-11.177322 6.6611457-11.613243 15.1041207l-3.168316 61.364398c-.11359 2.200022-.473505 4.452825-.550755 6.34071l31.250309.07921c.0016-1.8874-.38834-4.854328-.502772-7.053583l-3.168317-60.889151c-.439314-8.442799-6.599686-14.9457047-12.246906-14.9457047z" fill="url(#h)"/><rect fill="#0026d2" height="36.411476" opacity=".119048" rx="12.022118" ry="12.861614" width="24.044233" x="35.843082" y="41.753357"/><path d="m75.746289 28.035648c-5.336529 0-9.638436 6.119185-9.638436 13.7211v50.385159h19.276872v-50.385159c0-7.601915-4.301908-13.7211-9.638436-13.7211z" opacity=".4"/><path d="m75.746289 26.581263c-4.654302 0-8.40625 6.17478-8.40625 13.845761v50.842923h16.8125v-50.842923c0-7.670981-3.751948-13.845761-8.40625-13.845761z" fill="url(#i)"/><g transform="matrix(1 0 0 .97199352 16.425552 -.445774)"><path d="m4.7710461 26.203475c-7.166137 0-12.942934 6.816327-12.942934 15.284306v56.125394h25.8858689v-56.125394c0-8.467979-5.7768-15.284306-12.9429349-15.284306z" opacity=".1"/><path d="m4.7710451 27.099611c-6.545931 0-11.822765 6.645248-11.822765 14.900694v54.716735h23.6455309v-54.716735c0-8.255446-5.276837-14.900694-11.8227659-14.900694z" opacity=".2"/><path d="m4.7710451 27.995746c-5.987745 0-10.814613 6.484861-10.814613 14.541058v53.396117h21.6292269v-53.396117c0-8.056197-4.82687-14.541058-10.8146139-14.541058z" opacity=".3"/><path d="m4.7150371 28.667847c-5.33652902 0-9.638436 6.356552-9.638436 14.253349v52.339623h19.2768719v-52.339623c0-7.896797-4.301908-14.253349-9.6384359-14.253349z" opacity=".4"/></g><path d="m20.865218 26.096531c-4.654302 0-8.40625 6.210081-8.40625 13.94236v50.746325h16.8125v-50.746325c0-7.732279-3.751948-13.94236-8.40625-13.94236z" fill="url(#j)"/><rect fill="#1a1a1a" height="31.879396" rx="10.200335" ry="11.26075" width="20.400669" x="37.427238" y="43.642071"/><rect fill="#0026d2" height="32.926327" opacity=".32381" rx="11.309246" ry="11.630556" width="22.61849" x="36.476746" y="43.65435"/><rect fill="#0026d2" height="30.233257" opacity=".566667" rx="10.992414" ry="10.679284" width="21.984827" x="36.635162" y="44.921677"/><rect fill="url(#k)" height="27.698605" rx="10.200335" ry="9.783968" width="20.400669" x="37.427238" y="46.03059"/><rect fill="url(#l)" height="81.996384" opacity=".642857" rx="4.685357" ry="1.102875" width="3.136473" x="44.192318" y="8.785222"/><rect fill="url(#m)" height="78.63588" opacity=".642857" rx="3.623932" ry="1.637246" width="2.425934" x="40.607777" y="11.129618"/><rect fill="url(#n)" height="64.297707" opacity=".819048" rx="4.685357" ry=".864823" width="3.136473" x="19.826992" y="26.549513"/><rect fill="url(#o)" height="61.410984" opacity=".604762" rx="2.677347" ry="1.278613" width="1.792271" x="15.122281" y="29.034698"/><rect fill="url(#p)" height="64.96981" opacity=".819048" rx="4.685357" ry=".873863" width="3.136473" x="74.715279" y="26.773546"/><rect fill="url(#q)" height="61.410984" opacity=".604762" rx="2.677347" ry="1.278613" width="1.792271" x="69.786537" y="30.154867"/></g></svg>