<svg height="96" width="96" xmlns="http://www.w3.org/2000/svg" xmlns:xlink="http://www.w3.org/1999/xlink"><linearGradient id="a" gradientUnits="userSpaceOnUse" x1="36.357143" x2="36.357143" y1="6" y2="63.893143"><stop offset="0" stop-color="#fefefe"/><stop offset="1" stop-color="#fefefe" stop-opacity="0"/></linearGradient><linearGradient id="b" gradientUnits="userSpaceOnUse" x1="48" x2="48" y1="90" y2="5.987717"><stop offset="0" stop-color="#083e76"/><stop offset="1" stop-color="#0074de"/></linearGradient><linearGradient id="c" gradientTransform="matrix(1.0058652 0 0 .994169 100 0)" gradientUnits="userSpaceOnUse" x1="45.447727" x2="45.447727" y1="92.539597" y2="7.01654"><stop offset="0"/><stop offset="1" stop-opacity=".588235"/></linearGradient><linearGradient id="d" gradientTransform="matrix(1.0238095 0 0 1.0119048 -1.142857 -98.071429)" gradientUnits="userSpaceOnUse" x1="32.251034" x2="32.251034" xlink:href="#c" y1="6.131708" y2="90.238609"/><linearGradient id="e" gradientTransform="translate(0 -97)" gradientUnits="userSpaceOnUse" x1="32.251034" x2="32.251034" xlink:href="#c" y1="6.131708" y2="90.238609"/><linearGradient id="f" gradientUnits="userSpaceOnUse" x1="6" x2="90" y1="48.171875" y2="48.171875"><stop offset="0" stop-color="#06b5ff"/><stop offset="1" stop-color="#0ff" stop-opacity="0"/></linearGradient><linearGradient id="g"><stop offset="0" stop-color="#fff"/><stop offset=".1685" stop-color="#d4ffff"/><stop offset=".7921" stop-color="#51a8ff"/></linearGradient><radialGradient id="h" cx="71.754898" cy="-65.268997" gradientTransform="matrix(1.0203 0 0 .9713 -32.3161 104.4569)" gradientUnits="userSpaceOnUse" r="81.755997" xlink:href="#g"/><linearGradient id="i"><stop offset="0" stop-color="#fff"/><stop offset=".3034" stop-color="#ccf0ff"/><stop offset="1" stop-color="#1d6ce9"/></linearGradient><radialGradient id="j" cx="103.0068" cy="-11.7397" gradientTransform="matrix(1.0203 0 0 .9713 -32.3161 104.4569)" gradientUnits="userSpaceOnUse" r="57.695099" xlink:href="#i"/><radialGradient id="k" cx="66.016602" cy="39.6133" gradientUnits="userSpaceOnUse" r="47.685398"><stop offset=".2978" stop-color="#68c0ff"/><stop offset=".4282" stop-color="#65bcfe"/><stop offset=".5458" stop-color="#5db1fa"/><stop offset=".6585" stop-color="#509ff3"/><stop offset=".7681" stop-color="#3d85ea"/><stop offset=".8756" stop-color="#2464de"/><stop offset=".98" stop-color="#063ccf"/><stop offset="1" stop-color="#03c"/></radialGradient><radialGradient id="l" cx="105.8242" cy="-54.6064" gradientTransform="matrix(1.0203 0 0 .9713 -32.3161 104.4569)" gradientUnits="userSpaceOnUse" r="73.332603"><stop offset="0" stop-color="#fff"/><stop offset=".3034" stop-color="#ccf0ff"/><stop offset="1" stop-color="#1db0ff"/></radialGradient><radialGradient id="m" cx="101.376" cy="-73.411102" gradientTransform="matrix(1.0203 0 0 .9713 -32.3161 104.4569)" gradientUnits="userSpaceOnUse" r="121.76" xlink:href="#i"/><radialGradient id="n" cx="101.374" cy="-73.410599" gradientTransform="matrix(1.0203 0 0 .9713 -32.3161 104.4569)" gradientUnits="userSpaceOnUse" r="121.7756" xlink:href="#i"/><radialGradient id="o" cx="71.118202" cy="33.152302" gradientUnits="userSpaceOnUse" r="120.4767" xlink:href="#i"/><radialGradient id="p" cx="101.374" cy="-73.412598" gradientTransform="matrix(1.0203 0 0 .9713 -32.3161 104.4569)" gradientUnits="userSpaceOnUse" r="121.7766" xlink:href="#i"/><radialGradient id="q" cx="101.375" cy="-73.413597" gradientTransform="matrix(1.0203 0 0 .9713 -32.3161 104.4569)" gradientUnits="userSpaceOnUse" r="121.7797" xlink:href="#i"/><radialGradient id="r" cx="101.3594" cy="-73.420898" gradientTransform="matrix(1.0203 0 0 .9713 -32.3161 104.4569)" gradientUnits="userSpaceOnUse" r="121.8263" xlink:href="#i"/><radialGradient id="s" cx="103.7432" cy="-67.258301" gradientTransform="matrix(1.0203 0 0 .9713 -32.3161 104.4569)" gradientUnits="userSpaceOnUse" r="35.692101" xlink:href="#g"/><radialGradient id="t" cx="103.6875" cy="-67.266602" gradientTransform="matrix(1.0203 0 0 .9713 -32.3161 104.4569)" gradientUnits="userSpaceOnUse" r="35.698399" xlink:href="#g"/><radialGradient id="u" cx="67.879898" cy="36.629902" gradientUnits="userSpaceOnUse" r="43.821899" xlink:href="#g"/><radialGradient id="v" cx="103.6865" cy="-67.257301" gradientTransform="matrix(1.0203 0 0 .9713 -32.3161 104.4569)" gradientUnits="userSpaceOnUse" r="35.724602"><stop offset="0" stop-color="#fff"/><stop offset=".7022" stop-color="#d4ffff"/><stop offset=".7446" stop-color="#cefcff"/><stop offset=".8012" stop-color="#bdf3ff"/><stop offset=".8659" stop-color="#a1e5ff"/><stop offset=".9361" stop-color="#7bd2ff"/><stop offset="1" stop-color="#51bdff"/></radialGradient><radialGradient id="w" cx="98.201202" cy="-69.829102" gradientTransform="matrix(1.0203 0 0 .9713 -32.3161 104.4569)" gradientUnits="userSpaceOnUse" r="43.930199" xlink:href="#g"/><radialGradient id="x" cx="103.6855" cy="-67.253403" gradientTransform="matrix(1.0203 0 0 .9713 -32.3161 104.4569)" gradientUnits="userSpaceOnUse" r="35.734699" xlink:href="#g"/><linearGradient id="y"><stop offset="0" stop-color="#fff"/><stop offset="1" stop-color="#8c8ca4"/></linearGradient><linearGradient id="z" gradientUnits="userSpaceOnUse" x1="128.4834" x2="121.406" xlink:href="#y" y1="114.6621" y2="121.7395"/><linearGradient id="A"><stop offset="0" stop-color="#fff"/><stop offset="1" stop-color="#545477"/></linearGradient><linearGradient id="B" gradientUnits="userSpaceOnUse" x1="104.7617" x2="138.25661" xlink:href="#A" y1="98.666" y2="124.5975"/><linearGradient id="C" gradientUnits="userSpaceOnUse" x1="23.630899" x2="16.554501" xlink:href="#y" y1="9.8096" y2="16.8859"/><linearGradient id="D" gradientUnits="userSpaceOnUse" x1="-.0938" x2="33.404099" xlink:href="#A" y1="-6.1885" y2="19.7453"/><linearGradient id="E" gradientUnits="userSpaceOnUse" x1="-28.083" x2="122.4775" xlink:href="#y" y1="1.5566" y2="179.00301"/><linearGradient id="F" gradientUnits="userSpaceOnUse" x1="40.394501" x2="89.714401" xlink:href="#A" y1="96.763702" y2="134.94679"/><linearGradient id="G"><stop offset="0" stop-color="#fff"/><stop offset=".178" stop-color="#fbfbfc"/><stop offset=".367" stop-color="#eeeef2"/><stop offset=".5612" stop-color="#d9d9e1"/><stop offset=".7589" stop-color="#bbbbc9"/><stop offset=".9575" stop-color="#9595ab"/><stop offset="1" stop-color="#8c8ca4"/></linearGradient><linearGradient id="H" gradientUnits="userSpaceOnUse" x1="16.2939" x2="151.1777" xlink:href="#G" y1="53.110401" y2="213.9856"/><linearGradient id="I" gradientUnits="userSpaceOnUse" x1="-32.7295" x2="117.8273" xlink:href="#y" y1="5.502" y2="182.94389"/><linearGradient id="J" gradientUnits="userSpaceOnUse" x1="-17.4727" x2="33.188202" xlink:href="#A" y1="36.036098" y2="75.2575"/><linearGradient id="K" gradientUnits="userSpaceOnUse" x1="11.6523" x2="146.5186" xlink:href="#G" y1="57.0117" y2="217.8661"/><linearGradient id="L" gradientUnits="userSpaceOnUse" x1="-45.7183" x2="104.8478" xlink:href="#y" y1="16.5156" y2="193.9686"/><linearGradient id="M" gradientUnits="userSpaceOnUse" x1="4.2324" x2="46.405998" xlink:href="#A" y1="86.015602" y2="118.6661"/><linearGradient id="N" gradientUnits="userSpaceOnUse" x1="-.7148" x2="134.1636" xlink:href="#G" y1="67.377899" y2="228.2469"/><linearGradient id="O" gradientUnits="userSpaceOnUse" x1="4.0088" x2="154.5634" xlink:href="#y" y1="-25.6621" y2="151.7773"/><linearGradient id="P" gradientUnits="userSpaceOnUse" x1="89.798798" x2="132.9068" xlink:href="#A" y1="83.609398" y2="116.9833"/><linearGradient id="Q" gradientUnits="userSpaceOnUse" x1="48.421902" x2="183.29131" xlink:href="#G" y1="26.188499" y2="187.04671"/><linearGradient id="R" gradientUnits="userSpaceOnUse" x1="-2.0176" x2="148.53819" xlink:href="#y" y1="-20.553699" y2="156.8871"/><linearGradient id="S" gradientUnits="userSpaceOnUse" x1="2.0205" x2="45.126999" xlink:href="#A" y1="-.6567" y2="32.716"/><linearGradient id="T" gradientUnits="userSpaceOnUse" x1="42.288101" x2="177.1685" xlink:href="#G" y1="31.3262" y2="192.1976"/><linearGradient id="U" gradientUnits="userSpaceOnUse" x1="-9.1904" x2="141.2382" xlink:href="#y" y1="-14.3975" y2="162.8934"/><linearGradient id="V" gradientUnits="userSpaceOnUse" x1="35.362301" x2="170.0874" xlink:href="#G" y1="37.130901" y2="197.817"/><linearGradient id="W" gradientUnits="userSpaceOnUse" x1="-39.401402" x2="120.3301" xlink:href="#A" y1="-8.939" y2="114.7241"/><linearGradient id="X" gradientUnits="userSpaceOnUse" x1="-25.284201" x2="115.9417" xlink:href="#A" y1="-.6992" y2="108.6369"/><g><g fill="url(#d)"><path d="m12-95.03125c-5.5110903 0-10.03125 4.52016-10.03125 10.03125v71c0 5.5110902 4.5201598 10.03125 10.03125 10.03125h72c5.51109 0 10.03125-4.5201597 10.03125-10.03125v-71c0-5.51109-4.52016-10.03125-10.03125-10.03125z" opacity=".08" transform="scale(1 -1)"/><path d="m12-94.03125c-4.971633 0-9.03125 4.059617-9.03125 9.03125v71c0 4.9716329 4.0596171 9.03125 9.03125 9.03125h72c4.971633 0 9.03125-4.059617 9.03125-9.03125v-71c0-4.971633-4.059617-9.03125-9.03125-9.03125z" opacity=".1" transform="scale(1 -1)"/><path d="m12-93c-4.4091333 0-8 3.590867-8 8v71c0 4.4091333 3.5908667 8 8 8h72c4.409133 0 8-3.5908667 8-8v-71c0-4.409133-3.590867-8-8-8z" opacity=".2" transform="scale(1 -1)"/><rect height="85" opacity=".3" rx="7" transform="scale(1 -1)" width="86" x="5" y="-92"/></g><rect fill="url(#e)" height="84" opacity=".45" rx="6" transform="scale(1 -1)" width="84" x="6" y="-91"/></g><rect fill="url(#b)" height="84" rx="6" width="84" x="6" y="6"/><path d="m12 6c-3.324 0-6 2.676-6 6v2 68 2c0 .334721.04135.6507.09375.96875.0487.295596.09704.596915.1875.875.00988.03038.020892.0636.03125.09375.098865.287771.2348802.547452.375.8125.1445918.273507.3156161.535615.5.78125s.3737765.473472.59375.6875c.439947.428056.94291.814526 1.5 1.09375.278545.139612.5734731.246947.875.34375-.2562018-.100222-.4867109-.236272-.71875-.375-.00741-.0044-.023866.0045-.03125 0-.031933-.0193-.062293-.04251-.09375-.0625-.120395-.0767-.2310226-.163513-.34375-.25-.1061728-.0808-.2132809-.161112-.3125-.25-.1779299-.161433-.3474596-.345388-.5-.53125-.1075789-.130255-.2183939-.265285-.3125-.40625-.025089-.03838-.038446-.08587-.0625-.125-.064763-.103032-.1302275-.204517-.1875-.3125-.1010083-.194706-.2056748-.415701-.28125-.625-.00796-.02181-.023589-.04055-.03125-.0625-.0318251-.09195-.0358045-.186831-.0625-.28125-.0303323-.106618-.0703894-.203031-.09375-.3125-.0728786-.341512-.125-.698205-.125-1.0625v-2-68-2c0-2.781848 2.2181517-5 5-5h2 68 2c2.781848 0 5 2.218152 5 5v2 68 2c0 .364295-.05212.720988-.125 1.0625-.04415.206893-.08838.397658-.15625.59375-.0077.02195-.0233.04069-.03125.0625-.06274.173739-.138383.367449-.21875.53125-.04158.0828-.07904.169954-.125.25-.0546.09721-.126774.18835-.1875.28125-.09411.140965-.204921.275995-.3125.40625-.143174.17445-.303141.346998-.46875.5-.01117.0102-.01998.02115-.03125.03125-.138386.125556-.285091.234436-.4375.34375-.102571.07315-.204318.153364-.3125.21875-.0074.0045-.02384-.0044-.03125 0-.232039.138728-.462548.274778-.71875.375.301527-.0968.596455-.204138.875-.34375.55709-.279224 1.060053-.665694 1.5-1.09375.219973-.214028.409366-.441865.59375-.6875s.355408-.507743.5-.78125c.14012-.265048.276135-.524729.375-.8125.01041-.03078.02133-.06274.03125-.09375.09046-.278085.1388-.579404.1875-.875.0524-.31805.09375-.634029.09375-.96875v-2-68-2c0-3.324-2.676-6-6-6z" fill="url(#a)" opacity=".35"/><path d="m12 90c-3.324 0-6-2.676-6-6v-2-68-2c0-.334721.04135-.6507.09375-.96875.0487-.295596.09704-.596915.1875-.875.00988-.03038.020892-.0636.03125-.09375.098865-.287771.2348802-.547452.375-.8125.1445918-.273507.3156161-.535615.5-.78125s.3737765-.473472.59375-.6875c.439947-.428056.94291-.814526 1.5-1.09375.278545-.139612.5734731-.246947.875-.34375-.2562018.100222-.4867109.236272-.71875.375-.00741.0044-.023866-.0045-.03125 0-.031933.0193-.062293.04251-.09375.0625-.120395.0767-.2310226.163513-.34375.25-.1061728.0808-.2132809.161112-.3125.25-.1779299.161433-.3474596.345388-.5.53125-.1075789.130255-.2183939.265285-.3125.40625-.025089.03838-.038446.08587-.0625.125-.064763.103032-.1302275.204517-.1875.3125-.1010083.194706-.2056748.415701-.28125.625-.00796.02181-.023589.04055-.03125.0625-.0318251.09195-.0358045.186831-.0625.28125-.0303323.106618-.0703894.203031-.09375.3125-.0728786.341512-.125.698205-.125 1.0625v2 68 2c0 2.781848 2.2181517 5 5 5h2 68 2c2.781848 0 5-2.218152 5-5v-2-68-2c0-.364295-.05212-.720988-.125-1.0625-.04415-.206893-.08838-.397658-.15625-.59375-.0077-.02195-.0233-.04069-.03125-.0625-.06274-.173739-.138383-.367449-.21875-.53125-.04158-.0828-.07904-.169954-.125-.25-.0546-.09721-.126774-.18835-.1875-.28125-.09411-.140965-.204921-.275995-.3125-.40625-.143174-.17445-.303141-.346998-.46875-.5-.01117-.0102-.01998-.02115-.03125-.03125-.138386-.125556-.285091-.234436-.4375-.34375-.102571-.07315-.204318-.153364-.3125-.21875-.0074-.0045-.02384.0044-.03125 0-.232039-.138728-.462548-.274778-.71875-.375.301527.0968.596455.204138.875.34375.55709.279224 1.060053.665694 1.5 1.09375.219973.214028.409366.441865.59375.6875s.355408.507743.5.78125c.14012.265048.276135.524729.375.8125.01041.03078.02133.06274.03125.09375.09046.278085.1388.579404.1875.875.0524.31805.09375.634029.09375.96875v2 68 2c0 3.324-2.676 6-6 6z" fill="url(#f)" opacity=".213"/><g stroke="none" stroke-width="0" transform="matrix(.5 0 0 .5 12.81356 12.711864)"><path d="m144 144h-144v-144h144z" fill="none"/><g><path d="m142.206 125.076-6.779-6.777 1.724-1.723c.438-.439.521-1.121.198-1.648l-12.145-20.006c1.35-2.393 2.521-4.91 3.488-7.537.065-.176.054-.373-.031-.539-.087-.168-.237-.291-.42-.342l-6.338-1.744c-.034-.01-.067-.006-.102-.01 1.771-4.832 2.739-10.049 2.739-15.49 0-24.561-19.973-44.716-44.599-44.716-5.521 0-10.817 1.036-15.716 2.909.021-.091.029-.185.008-.281l-1.416-6.458c-.041-.189-.162-.353-.331-.446-.171-.092-.372-.108-.554-.043-2.619.947-5.128 2.094-7.514 3.416-.033-.025-.061-.057-.096-.078l-19.826-13.003c-.533-.349-1.237-.276-1.688.174l-2.474 2.473-6.988-6.989c-.126-.126-.297-.197-.476-.197-.178 0-.35.071-.475.197l-5.028 5.028c-.263.263-.263.688 0 .951l6.989 6.988-1.936 1.936c-.438.438-.52 1.117-.199 1.647l12.349 20.337c.001.001.002.002.002.002-2.059 3.534-3.705 7.314-4.895 11.268l-22.74 4.729c-.623.13-1.07.68-1.07 1.316v14.689c0 .619.424 1.158 1.025 1.305l22.088 5.4c1.132 4.598 2.874 8.959 5.137 12.99l-12.787 19.5c-.348.533-.275 1.238.174 1.689l10.388 10.385c.438.439 1.118.52 1.647.199l19.934-12.1c3.765 2.193 7.826 3.93 12.11 5.133l4.628 22.252c.129.625.68 1.072 1.316 1.072h14.688c.619 0 1.157-.426 1.304-1.025l5.398-22.08c4.54-1.199 8.873-3 12.893-5.328l19.267 12.633c.532.35 1.236.277 1.688-.174l2.684-2.684 6.778 6.777c.265.264.688.264.951 0l5.028-5.027c.262-.262.262-.688 0-.951zm-106.743-58.871c.013-.162.025-.325.038-.487-.013.162-.026.324-.038.487zm-.109 2.787c.004-.534.017-1.068.041-1.6-.022.531-.039 1.064-.041 1.6z" opacity=".2"/><path clip-rule="evenodd" d="m74.877 109.07c24.625 0 44.598-20.152 44.598-44.876 0-24.562-19.973-44.716-44.598-44.716-24.453 0-44.597 20.154-44.597 44.716 0 24.724 20.144 44.876 44.597 44.876z" fill="url(#h)" fill-rule="evenodd"/><path clip-rule="evenodd" d="m74.877 106.873c23.416 0 42.411-19.162 42.411-42.672 0-23.36-18.995-42.527-42.411-42.527-23.251 0-42.41 19.167-42.41 42.527 0 23.51 19.159 42.672 42.41 42.672z" fill="url(#j)" fill-rule="evenodd"/><path d="m52.627 64.953c-.389-.37-.131-1.984-.131-1.984s-5.815-3.096-12.148-4.956c-.783-.231-.388-1.859.386-2.479l-.259-1.738c-.127-.865 1.295-5.08 2.716-5.451 1.421-.372-.13 2.479-.13 2.479l-1.422.868s1.682 1.982 2.069 1.982c.386 0 1.034-.994 1.034-.994l-1.809-1.234 1.678-.748.105-.652.284-.092 2.78-4.266c1.923-.799 4.285-1.785 4.586-1.932.518-.245 4.136-2.353 4.783-2.848.646-.497 2.068-.373 2.583-.373.519 0 1.293-.247 1.423-1.613.13-1.361.646-1.611 1.035-1.238.387.371-.389.99.516 1.238.906.25 1.679.871 2.326.25.474-.455-.158-.973-.584-1.363h7.176l.775-2.234-1.679-.246-6.206-.619v-.744l-.494.084c.672-3.74 4.662-3.123 1.659-5.289-.185-.131-2.812 4.195-3.479 4.111-1.212-.16-2.779-.174-3.114.226-.438.526.993-1.813 2.228-2.522-1.969.587-8.189 2.742-14.764 9.837-6.286 6.781-8.791 15.917-8.791 16.237 0 .619 1.295.868 1.424 1.613.129.74-2.455 3.221-2.455 4.459 0 .572-.609 8.211 1.549 14.504 2.523 7.346 7.906 13.479 8.532 13.883l1.292-.619s-2.972-5.332-3.101-5.828c-.13-.496 3.36-7.684 5.04-7.436s1.292.744 2.326.123c1.033-.617 1.68-5.704 2.842-6.195 1.166-.497 2.458-1.115 2.33-2.356-.131-1.241-4.525-3.47-4.912-3.843zm9.305-34.582c-.191 0-.402.078-.617.203.506-.151.745-.203.617-.203zm12.539 2.478.125-1.859-1.936.125.259 1.734zm6.202-4.337-3.489-1.242.647 1.986zm-13.054 4.585c.389 0 8.144-5.205 7.366-5.329-.773-.123-.904 0-2.972-.249s-4.268 2.977-4.783 3.471c-.516.498-.344 2.107.389 2.107zm21.076 46.216s-.877.236.123.596c1.001.359 5.004-5.852 5.004-5.852l-3.378 2.148-1.749 3.107zm24.143-18.996-.653-1.281c-.773-4.419-2.547-10.077-6.351-15.923-5.723-8.785-21.645-13.855-21.645-13.855l-.875 1.072-.501-.832-1.25-.48v1.076l1.126.956-.75.358-2.88.237-6.504 3.585.624 2.868-.752.24-.373.594 2.127 3.226.123 1.076-1.749.358v2.149l-1 .238.126 1.672-8.51 5.977.25 3.342c.626.838 5.507 5.856 5.507 5.856s5.627.234 6.88-.479c1.251-.718.374.713.75 1.073s.501 2.866.875 3.108c.374.239 0 1.669.5 2.149.501.477.501 6.213.501 6.213s3.004 5.137 3.004 6.451-.127 1.195 2.252 1.074c2.377-.119 2.875-1.074 3.376-1.432.503-.359.503-1.195 1.004-1.912.5-.717 1.373-3.465 2.499-4.42 1.128-.957 4.128-1.676 4.379-3.346.25-1.674 1.376-2.99 1.376-2.99l5.41-5.793-.154.779-.127 2.983 1.627-.595-.123-3.227-.586-.629.083-.088s-.374-.716-.874-.716c-.499 0-3.503.716-4.004.597-.5-.119-2.628-5.854-3.004-6.092-.374-.238-2.75-4.182-2.75-4.182s5.503 6.691 6.38 9.317c.508 1.53 2.416.106 3.972-1.489l.407 1.014 1.001-.24-.124-1.195h1.126v1.793l-.376.955-.129 1.55 1.003.96.501-.836 1.625-1.555 1.878-.956.5.956.252 1.315-.503 1.432-1.001.837-.501 2.152v1.072l-1.126-.717-.123-2.267-1.626.119-.75 2.028 1.124 1.674 2.628.357 2.127-2.031.249-3.939.946-1.264c.617 1.603 1.057 3.283 1.057 4.848 0 1.715.773-1.189.117-6.42l.382-.511zm-31.526-12.184-6.754-.24 2.876-2.389h1.502l2.376 1.67zm8.258-.836v1.074h-2.878l.252.717-1.756.241-.12.595-1.253-.237-2.252-.479.376-.594.374-.721 1.25-1.313.501.954 1.878-.118 1.002-1.076 3.874.715zm.249-1.555-1.502.238-.247-1.074 1.871-.238.254-1.075 1.377 1.435-1.753.715zm13.385 24.731 1.004-1.316-1.004-.356-.75.956-.874 1.313.75.358.874-.954zm-6.128 12.422-.877.719.125 1.793h1.128v-1.555l.999-1.313v-2.748l-.625-.125zm10.51-8.122-.254-1.91h-1.622l-.127 1.43-1.504-.236-.372-1.555-.75-.475-.877 1.074-.874-.238-.252.834 1.002.24v7.766l3.542.863c-.083.145-.145.264-.166.328-.25.838 1.001 1.197 1.876.838.324-.133 1.354-1.184 2-2.746.902-2.17 1.69-5.037 1.849-6.051l.405-.879-2.503.955z" fill="#0000cf" opacity=".1"/><path d="m60.789 26.361c-.211 0-.439.086-.674.221.552-.163.812-.221.674-.221zm13.654 2.676.139-2.007-2.109.134.281 1.873zm-23.79 34.68c-.423-.4-.14-2.145-.14-2.145s-6.336-3.344-13.234-5.354c-.851-.25-.42-2.008.42-2.676l-.279-1.879c-.141-.936 1.408-5.486 2.957-5.887 1.549-.404-.142 2.676-.142 2.676l-1.549.938s1.831 2.142 2.254 2.142 1.126-1.073 1.126-1.073l-1.972-1.335 1.831-.806.115-.707.307-.096 3.029-4.609c2.093-.861 4.668-1.929 4.995-2.086.562-.266 4.505-2.54 5.208-3.076.705-.537 2.251-.402 2.813-.402.566 0 1.41-.269 1.551-1.743.142-1.472.705-1.741 1.127-1.339.421.402-.424 1.071.563 1.339.986.271 1.828.938 2.533.271.516-.492-.174-1.05-.638-1.473h7.815l.848-2.414-1.83-.267-6.76-.668v-.804l-.539.091c.732-4.039 5.08-3.373 1.809-5.712-.2-.144-3.062 4.531-3.791 4.441-1.318-.176-3.025-.189-3.389.242-.479.568 1.08-1.959 2.424-2.725-2.145.635-8.917 2.963-16.078 10.625-6.846 7.325-9.573 17.193-9.573 17.539 0 .668 1.407.937 1.549 1.742.141.799-2.674 3.479-2.674 4.816 0 .619-.664 8.87 1.688 15.668 2.747 7.934 8.609 14.559 9.293 14.994l1.405-.668s-3.237-5.758-3.377-6.295c-.141-.535 3.66-8.301 5.49-8.031 1.828.264 1.406.803 2.534.133 1.126-.668 1.829-6.16 3.095-6.692 1.268-.538 2.676-1.208 2.537-2.546-.143-1.342-4.928-3.748-5.351-4.15zm30.546-39.363-3.8-1.342.705 2.145zm-14.217 4.953c.423 0 8.87-5.622 8.022-5.758-.843-.133-.983 0-3.237-.268-2.252-.27-4.646 3.213-5.209 3.749-.561.537-.371 2.276.424 2.276zm38.757 40.369 1.093-1.42-1.093-.385-.817 1.033-.951 1.416.814.39zm4.77 4.65-.275-2.066h-1.768l-.136 1.545-1.639-.254-.406-1.681-.816-.514-.954 1.161-.952-.258-.275.9 1.091.262v8.387l3.856.932c-.089.156-.156.285-.178.355-.275.904 1.089 1.295 2.04.904.354-.145 1.479-1.281 2.183-2.963.979-2.346 1.839-5.443 2.011-6.539l.441-.947-2.725 1.033-1.498-.258zm5.722-15.617-.71-1.385c-.846-4.771-2.774-10.884-6.917-17.197-6.233-9.491-23.574-14.967-23.574-14.967l-.954 1.158-.546-.899-1.361-.521v1.162l1.227 1.035-.817.387-3.134.256-7.087 3.872.681 3.097-.817.261-.408.644 2.318 3.481.134 1.165-1.907.385v2.322l-1.088.258.137 1.807-9.268 6.455.272 3.61c.682.903 5.997 6.325 5.997 6.325s6.13.254 7.491-.518c1.363-.773.41.771.819 1.161.408.39.544 3.095.952 3.356.409.257 0 1.805.546 2.322.544.514.544 6.713.544 6.713s3.271 5.546 3.271 6.966-.137 1.291 2.454 1.164c2.588-.131 3.133-1.164 3.675-1.547.548-.391.548-1.293 1.092-2.068.547-.775 1.496-3.742 2.726-4.773 1.227-1.035 4.496-1.809 4.769-3.613.271-1.808 1.498-3.229 1.498-3.229l5.892-6.26-.166.842-.139 3.223 1.771-.642-.134-3.486-.638-.677.091-.098s-.407-.771-.951-.771c-.547 0-3.817.771-4.36.645-.546-.13-2.863-6.324-3.272-6.58-.408-.26-2.996-4.518-2.996-4.518s5.994 7.228 6.947 10.063c.553 1.652 2.633.114 4.326-1.61l.445 1.096 1.091-.26-.139-1.289h1.227v1.936l-.407 1.032-.141 1.675 1.09 1.035.549-.901 1.767-1.679 2.044-1.034.547 1.034.272 1.421-.546 1.546-1.092.903-.545 2.324v1.158l-1.225-.774-.137-2.45-1.769.131-.817 2.19 1.225 1.81 2.859.386 2.317-2.195.273-4.255 1.028-1.367c.673 1.732 1.15 3.549 1.15 5.238 0 1.852.845-1.283.128-6.935l.418-.552zm-34.335-13.161-7.355-.261 3.131-2.58h1.637l2.588 1.805v1.036zm8.992-.905v1.162h-3.133l.273.775-1.907.261-.137.644-1.363-.258-2.452-.518.409-.645.41-.777 1.359-1.418.546 1.033 2.044-.129 1.091-1.163 4.221.774-1.361.258zm.273-1.678-1.635.258-.273-1.162 2.043-.256.274-1.162 1.5 1.551zm7.903 40.131-.956.777.137 1.934h1.228v-1.674l1.09-1.422v-2.967l-.683-.133-.815 3.484zm-9.128-3.867s-.953.254.135.643c1.091.389 5.452-6.32 5.452-6.32l-3.681 2.32zm-7.416 24.73-.813-.779-1.637-.262-.271.783-2.179-.26-.137-1.039h-1.634l-1.771 1.039h-3.132l-.271-.781-5.039-.521-.816.779-2.042-.516-.272-1.822-.953-.133-1.089 1.955-3.677-.133c.656.314 6.149 3.604 14.568 4.295 11.166.904 16.479-1.822 16.479-1.822l-.409-.391-4.903-.393z" fill="url(#k)"/><path d="m39.319 49.174c-.005-.193-.021-.385-.021-.58 0-.611.042-1.218.102-1.818-1.091 1.5-1.945 4.281-1.838 4.99l.279 1.895c-.843.674-1.271 2.448-.42 2.699 1.457.428 2.883.916 4.234 1.42-1.281-2.412-2.078-4.999-2.293-7.696-.309-.343-.535-.608-.535-.608l.491-.301z" fill="none"/><path d="m39.363 50.083c-.023-.302-.033-.604-.044-.909"/><path d="m71.908 23.148c-.26-.031-.523-.008-.785.053.277-.018.557-.033.833-.047-.017-.002-.029-.004-.048-.006z"/><g clip-rule="evenodd" fill-rule="evenodd"><path d="m39.319 49.174 1.058-.646s1.689-3.104.143-2.697c-.383.1-.763.454-1.119.945-.06.601-.102 1.207-.102 1.818 0 .195.016.387.021.58z" fill="url(#l)"/><path d="m77.813 42.736-3.133 2.601 7.357.263v-1.045l-2.59-1.818h-1.635z" fill="url(#m)"/><path d="m91.436 41.826-2.04.258.271 1.171 1.635-.26 1.907-.778-1.5-1.562z" fill="url(#n)"/><path d="m77.813 65.637c-.41-.264-.546-2.994-.954-3.387-.407-.391.544-1.951-.817-1.169-1.363.778-7.492.522-7.492.522s-5.315-5.467-5.997-6.377l-.272-3.642 9.267-6.507-.136-1.823 1.088-.26v-2.34l1.906-.39-.134-1.174-2.317-3.512.409-.648.816-.262-.681-3.122 7.085-3.903 3.135-.26.817-.391-1.229-1.043v-1.17l1.367.521.544.908.954-1.167s10.813 3.445 18.432 9.606c-5.498-6.098-14.478-10.395-24.881-11.352l2.618.932-3.097.81-.598-1.833c-1.097-.076-2.207-.117-3.331-.117-.793 0-1.577.025-2.36.064 2.206.263 2.354.131 3.191.265.848.137-7.6 5.804-8.024 5.804-.796 0-.983-1.752-.422-2.293.496-.479 2.426-3.273 4.422-3.729-14.56.978-26.661 8.561-30.523 18.563 1.041-1.562 2.229-3.12 3.578-4.576 7.163-7.728 13.937-10.073 16.078-10.714.234-.133.465-.221.674-.221.139 0-.121.058-.674.221-1.342.773-2.902 3.322-2.423 2.748.362-.434 2.071-.42 3.39-.244.729.092 3.59-4.621 3.789-4.477 3.27 2.357-1.074 1.686-1.807 5.76l.537-.094v.811l6.762.674 1.828.27-.845 2.434h-7.816c.463.427 1.153.988.638 1.484-.704.674-1.548 0-2.532-.271-.987-.27-.142-.945-.562-1.35-.423-.406-.987-.135-1.128 1.35-.143 1.488-.985 1.757-1.549 1.757-.565 0-2.111-.137-2.816.405-.703.539-4.645 2.834-5.207 3.102-.327.16-2.901 1.236-4.996 2.103l-3.029 4.648-.307.098-.115.712-1.83.813 1.971 1.348s-.703 1.079-1.125 1.079c-.275 0-1.143-.909-1.719-1.549.215 2.697 1.012 5.284 2.293 7.696 5.051 1.88 8.998 3.979 8.998 3.979s-.282 1.757.141 2.161c.422.405 5.209 2.831 5.35 4.186.086.819-.404 1.386-1.081 1.83 5.54 2.687 12.164 4.259 19.253 4.259 1.554 0 3.079-.084 4.581-.227-.021-1.686-.114-5.585-.54-5.99-.544-.521-.135-2.08-.544-2.34zm-3.088-38.707-.139 2.021h-1.691l-.279-1.888 2.109-.134z" fill="url(#o)"/><path d="m87.08 44.818-2.044.129-.546-1.041-1.361 1.431-.41.784-.411.648 2.455.522 1.364.259.132-.648 1.91-.262-.271-.783h3.133v-1.17l1.361-.264-4.223-.777z" fill="url(#p)"/><path d="m106.289 58.479-1.088.262-.445-1.104c-1.692 1.738-3.771 3.287-4.324 1.623-.955-2.861-6.947-10.148-6.947-10.148s2.586 4.294 2.996 4.553c.407.26 2.725 6.506 3.269 6.635.547.131 3.817-.647 4.363-.647.545 0 .952.778.952.778l-.091.098.178.191c.837-1.133 1.556-2.316 2.155-3.543h-1.149l.132 1.303z" fill="url(#q)"/><path d="m99.616 66.268c1.702-1.301 3.22-2.73 4.519-4.267l.145-.728-4.663 4.994z" fill="url(#r)"/><path d="m66.701 26.93c-.562.541-.374 2.293.422 2.293.425 0 8.872-5.667 8.024-5.804-.837-.134-.985-.002-3.191-.265-.276.014-.556.029-.833.047-1.996.455-3.926 3.25-4.422 3.729z" fill="url(#s)"/><path d="m74.586 28.951.139-2.021-2.109.134.279 1.888h1.691z" fill="url(#t)"/><path d="m103.604 34.65c-7.619-6.161-18.432-9.606-18.432-9.606l-.954 1.167-.544-.908-1.367-.521v1.17l1.229 1.043-.817.391-3.135.26-7.085 3.903.681 3.122-.816.262-.409.648 2.317 3.512.134 1.174-1.906.39v2.34l-1.088.26.136 1.823-9.267 6.507.272 3.642c.682.91 5.997 6.377 5.997 6.377s6.129.256 7.492-.522c1.361-.782.41.778.817 1.169.408.393.544 3.123.954 3.387.409.26 0 1.818.544 2.34.426.405.519 4.305.54 5.99 8.107-.777 15.341-3.584 20.719-7.699l4.663-4.994-.145.728c.355-.42.696-.848 1.017-1.282l-.178-.191.091-.098s-.407-.778-.952-.778c-.546 0-3.816.778-4.363.647-.544-.129-2.861-6.375-3.269-6.635-.41-.259-2.996-4.553-2.996-4.553s5.992 7.287 6.947 10.148c.553 1.664 2.632.115 4.324-1.623l.445 1.104 1.088-.262-.132-1.303h1.149c1.31-2.684 2.03-5.572 2.03-8.582 0-5.135-2.113-9.925-5.732-13.943zm-21.566 10.95-7.357-.263 3.133-2.601h1.635l2.59 1.818v1.046zm8.992-.912v1.17h-3.133l.271.783-1.91.262-.132.648-1.364-.259-2.455-.522.411-.648.41-.784 1.361-1.431.546 1.041 2.044-.129 1.089-1.172 4.223.777zm.272-1.693-1.635.26-.271-1.171 2.04-.258.273-1.171 1.5 1.562z" fill="url(#u)"/><path d="m56.145 68.104c-.141-1.354-4.928-3.78-5.35-4.186-.423-.404-.141-2.161-.141-2.161s-3.947-2.099-8.998-3.979c2.65 4.991 7.383 9.234 13.407 12.155.677-.444 1.167-1.011 1.081-1.83z" fill="url(#v)"/><path d="m40.52 45.83c1.547-.407-.143 2.697-.143 2.697l-1.058.646c.011.305.021.607.044.909.576.64 1.443 1.549 1.719 1.549.422 0 1.125-1.079 1.125-1.079l-1.971-1.348 1.83-.813.115-.712.307-.098 3.029-4.648c2.095-.866 4.669-1.942 4.996-2.103.563-.268 4.504-2.563 5.207-3.102.705-.542 2.251-.405 2.816-.405.563 0 1.406-.269 1.549-1.757.141-1.484.705-1.756 1.128-1.35.42.404-.426 1.08.562 1.35.984.271 1.828.945 2.532.271.516-.496-.175-1.058-.638-1.484h7.817l.845-2.434-1.828-.27-6.762-.674v-.811l-.537.094c.732-4.074 5.076-3.402 1.807-5.76-.199-.145-3.061 4.568-3.789 4.477-1.318-.176-3.027-.189-3.39.244-.479.574 1.081-1.975 2.423-2.748-2.142.641-8.915 2.986-16.078 10.714-1.35 1.456-2.537 3.015-3.578 4.576-.623 1.614-1.03 3.289-1.199 5.011.356-.491.736-.846 1.119-.945z" fill="url(#w)"/><path d="m81.342 24.23-2.618-.932c-.356-.033-.713-.066-1.076-.092l.598 1.833 3.097-.81z" fill="url(#x)"/></g><path d="m60.93 26.254c-.209 0-.439.088-.674.221.553-.163.813-.221.674-.221z"/><path d="m136.665 120.486-5.028 5.027-14.006-14.004 5.028-5.031z" fill="url(#z)"/><path d="m122.659 105.809c-.181 0-.351.07-.476.195l-5.028 5.031c-.263.26-.263.686 0 .949l14.005 14.004c.266.264.688.264.952 0l5.028-5.027c.261-.262.261-.688 0-.951l-14.007-14.006c-.127-.125-.297-.195-.475-.195zm0 1.623c.854.855 12.199 12.199 13.055 13.055-.699.697-3.378 3.379-4.077 4.078-.856-.857-12.199-12.201-13.057-13.055.699-.699 3.38-3.381 4.079-4.078z" fill="url(#B)"/><path d="m31.813 15.633-5.028 5.028-14.008-14.005 5.027-5.028 14.008 14.005z" fill="url(#C)"/><path d="m17.805.955c-.178 0-.349.071-.475.197l-5.027 5.028c-.263.263-.263.688 0 .951l14.006 14.005c.263.262.688.262.95 0l5.028-5.027c.264-.263.264-.688 0-.951l-14.006-14.006c-.127-.126-.297-.197-.477-.197zm0 1.623c.856.856 12.201 12.2 13.057 13.055-.698.699-3.38 3.381-4.077 4.078-.856-.855-12.2-12.199-13.056-13.055.697-.698 3.379-3.38 4.076-4.078z" fill="url(#D)"/><path d="m81.149 136.525h-14.688l-4.827-23.215 25.166.102-5.65 23.113z" fill="url(#E)"/><path d="m60.593 112.459c-.257.314-.357.729-.274 1.127l4.826 23.211c.129.625.68 1.072 1.316 1.072h14.688c.62 0 1.158-.424 1.305-1.023l5.651-23.111c.097-.4.006-.824-.247-1.148-.254-.324-.642-.516-1.055-.518l-25.165-.102c-.404-.002-.789.18-1.046.492zm2.694 2.203c2.686.01 19.048.076 21.801.088-.665 2.719-4.571 18.697-4.993 20.432-1.672 0-10.812 0-12.54 0-.375-1.805-3.712-17.848-4.268-20.52z" fill="url(#F)"/><path d="m78.541 135.184-9.769.006-2.929-23.168 16.466.336-3.769 22.826z" fill="url(#H)"/><path d="m2.146 70.043v-14.689l23.213-4.826-.103 25.164-23.11-5.648z" fill="url(#I)"/><path d="m25.086 49.211-23.214 4.826c-.624.131-1.071.68-1.071 1.316v14.689c0 .619.424 1.158 1.025 1.305l23.111 5.65c.4.098.821.008 1.146-.246.324-.256.516-.643.517-1.055l.104-25.165c.001-.405-.181-.79-.493-1.046-.314-.258-.729-.357-1.125-.275zm-1.077 2.97c-.011 2.686-.078 19.047-.089 21.802-2.719-.666-18.697-4.572-20.43-4.995 0-1.673 0-10.812 0-12.54 1.805-.375 17.848-3.711 20.519-4.267z" fill="url(#J)"/><path d="m3.488 67.435-.008-9.77 23.167-2.929-.337 16.467z" fill="url(#K)"/><path d="m27.775 120.363-10.387-10.385 13.002-19.83 17.723 17.867z" fill="url(#L)"/><path d="m30.256 88.811c-.403.041-.768.262-.989.6l-13.002 19.83c-.349.531-.276 1.236.174 1.688l10.388 10.385c.438.439 1.118.521 1.647.199l20.337-12.346c.352-.215.586-.578.637-.986.05-.408-.09-.818-.381-1.111l-17.721-17.867c-.286-.289-.687-.434-1.09-.393zm.349 3.464c1.891 1.904 13.412 13.521 15.352 15.477-2.393 1.451-16.453 9.988-17.977 10.914-1.183-1.182-7.645-7.646-8.867-8.867 1.012-1.541 9.996-15.244 11.492-17.523z" fill="url(#M)"/><path d="m26.881 117.57-6.914-6.902 14.311-18.453 11.407 11.881z" fill="url(#N)"/><path d="m131.135 110.557-10.388 10.389-19.828-13.002 17.867-17.721z" fill="url(#O)"/><path d="m117.84 89.266-17.867 17.724c-.287.285-.432.684-.39 1.088.04.404.259.768.6.988l19.828 13.002c.532.35 1.237.277 1.688-.174l10.385-10.385c.438-.439.521-1.121.198-1.648l-12.347-20.338c-.213-.352-.575-.588-.985-.637-.409-.049-.817.09-1.11.379zm.683 3.111c1.452 2.393 9.989 16.453 10.913 17.977-1.182 1.184-7.645 7.645-8.865 8.867-1.542-1.012-15.245-9.994-17.527-11.49 1.908-1.893 13.521-13.414 15.479-15.354z" fill="url(#P)"/><path d="m128.34 111.451-6.9 6.914-18.453-14.309 11.882-11.408 13.472 18.803z" fill="url(#Q)"/><path d="m18.307 17.005 10.386-10.386 19.828 13.001-17.867 17.722z" fill="url(#R)"/><path d="m27.742 5.668-10.387 10.387c-.438.438-.52 1.117-.198 1.648l12.347 20.336c.215.352.578.588.986.637.409.05.818-.09 1.11-.379l17.866-17.723c.289-.285.432-.686.391-1.089-.04-.403-.26-.767-.6-.989l-19.827-13.002c-.532-.349-1.237-.276-1.688.174zm1.127 2.674c1.543 1.011 15.245 9.996 17.527 11.492-1.907 1.892-13.523 13.412-15.479 15.352-1.453-2.391-9.989-16.452-10.915-17.977 1.183-1.182 7.646-7.645 8.866-8.867z" fill="url(#S)"/><path d="m21.1 16.11 6.902-6.914 18.452 14.311-11.88 11.407z" fill="url(#T)"/><path d="m74.615 109.285c-24.857 0-45.008-20.15-45.008-45.008 0-19.181 12.004-35.549 28.904-42.027l-1.415-6.459c-19.842 7.172-34.026 26.17-34.026 48.486 0 28.469 23.077 51.543 51.545 51.543 22.207 0 41.132-14.043 48.382-33.732l-6.34-1.746c-6.47 16.922-22.847 28.943-42.042 28.943z" fill="url(#U)"/><path d="m74.53 113.131c-26.937 0-48.771-21.836-48.771-48.771 0-20.781 13.004-38.515 31.313-45.539-.187-.854-.363-1.662-.462-2.107-19.684 7.456-32.868 26.458-32.868 47.563 0 28.051 22.82 50.871 50.873 50.871 20.982 0 39.952-13.082 47.47-32.615-.426-.117-1.225-.338-2.07-.57-7.063 18.232-24.76 31.168-45.484 31.168z" fill="none"/><path d="m74.615 109.955c-25.188 0-45.68-20.49-45.68-45.678 0-18.592 11.556-35.556 28.801-42.427-.102-.468-.393-1.796-.664-3.03-18.31 7.024-31.313 24.758-31.313 45.539 0 26.936 21.835 48.771 48.771 48.771 20.725 0 38.422-12.936 45.484-31.168-1.196-.328-2.491-.686-2.97-.818-6.869 17.252-23.83 28.811-42.43 28.811z" fill="url(#V)"/><path d="m123.595 81.781c-.087-.17-.237-.291-.419-.344l-6.339-1.742c-.313-.088-.627.066-.77.348l4.24 1.168c-.093.252-.195.5-.293.752.846.232 1.645.453 2.07.57-7.518 19.533-26.487 32.615-47.47 32.615-28.053 0-50.873-22.82-50.873-50.871 0-21.105 13.184-40.107 32.868-47.564.099.445.275 1.254.462 2.107.293-.113.585-.23.882-.338l.944 4.307c.214-.154.329-.416.27-.684l-1.415-6.457c-.042-.189-.163-.353-.331-.446-.171-.093-.372-.108-.555-.043-20.616 7.451-34.468 27.191-34.468 49.118 0 28.793 23.424 52.217 52.217 52.217 21.79 0 41.485-13.736 49.012-34.176.064-.176.053-.371-.032-.537z" fill="url(#W)"/><path d="m57.072 18.82c.271 1.234.563 2.563.664 3.03-17.245 6.871-28.801 23.835-28.801 42.427 0 25.188 20.492 45.678 45.68 45.678 18.6 0 35.561-11.559 42.43-28.811.479.133 1.773.49 2.97.818.098-.252.2-.5.293-.752l-4.24-1.168c-.012.02-.028.035-.038.059-6.521 17.053-23.163 28.51-41.414 28.51-24.447 0-44.335-19.887-44.335-44.334 0-18.234 11.442-34.871 28.473-41.4.055-.021.099-.055.146-.088l-.944-4.307c-.297.107-.589.225-.882.338z" fill="url(#X)"/></g></g></svg>