<svg height="96" width="96" xmlns="http://www.w3.org/2000/svg" xmlns:xlink="http://www.w3.org/1999/xlink"><linearGradient id="a" gradientTransform="scale(1.0058652 .994169)" gradientUnits="userSpaceOnUse" x1="45.447727" x2="45.447727" y1="92.539597" y2="7.01654"><stop offset="0"/><stop offset="1" stop-opacity=".588235"/></linearGradient><linearGradient id="b"><stop offset="0" stop-color="#fefefe"/><stop offset="1" stop-color="#fefefe" stop-opacity="0"/></linearGradient><linearGradient id="c" gradientUnits="userSpaceOnUse" x1="48" x2="48" xlink:href="#b" y1="20.220806" y2="138.66119"/><clipPath id="d"><rect height="84" rx="6" width="84" x="6" y="6"/></clipPath><linearGradient id="e" gradientUnits="userSpaceOnUse" x1="-62" x2="-62" y1="90" y2="5.987717"><stop offset="0" stop-color="#2276c5"/><stop offset="1" stop-color="#68baf4"/></linearGradient><linearGradient id="f" gradientUnits="userSpaceOnUse" x1="-73.642857" x2="-73.642857" xlink:href="#b" y1="6" y2="63.893143"/><radialGradient id="g" cx="48" cy="90.171875" gradientTransform="matrix(1.1573129 0 0 .99590774 -117.55102 .197132)" gradientUnits="userSpaceOnUse" r="42" xlink:href="#b"/><linearGradient id="h" gradientUnits="userSpaceOnUse" x1="48" x2="48" y1="90" y2="5.987717"><stop offset="0" stop-color="#892a77"/><stop offset="1" stop-color="#c16bae"/></linearGradient><linearGradient id="i" gradientUnits="userSpaceOnUse" x1="44" x2="44" xlink:href="#b" y1="6" y2="64.215118"/><radialGradient id="j" cx="48" cy="72" gradientTransform="matrix(1.1428571 0 0 .95238095 -6.857143 3.428571)" gradientUnits="userSpaceOnUse" r="42" xlink:href="#b"/><linearGradient id="k" gradientTransform="translate(0 1)" gradientUnits="userSpaceOnUse" x1="48" x2="48" xlink:href="#a" y1="90" y2="5.987717"/><linearGradient id="l" gradientTransform="translate(-1 1)" gradientUnits="userSpaceOnUse" x1="48" x2="48" xlink:href="#a" y1="90.868095" y2="5.987717"/><linearGradient id="m" gradientUnits="userSpaceOnUse" x1="42.08422034274" x2="42.08422034274" xlink:href="#b" y1="-11.33939151025" y2="41.79867839193"/><filter id="n" color-interpolation-filters="sRGB" height="1.388211" width="1.388211" x="-.194106" y="-.194106"><feGaussianBlur stdDeviation="5.3379019"/></filter><g fill="url(#l)"><path d="m12 4.03125c-6.0701637-.1617408-10.6911509 5.6895113-9.96875 11.5.0000716.04167-.0000701.08333 0 .125.030431 18.086218-.077787 36.153437.03125 54.25a.93232674.93232674 0 0 0 0 .0625c.4297709 5.831518 6.2168912 9.674679 11.71875 9 .0418-.0051.08323.0056.125 0h5.3125c-.679778 4.428501-1.596836 8.895227-2.0625 13.40625a.93232674.93232674 0 0 0 .03125.28125c.279995 1.294203 1.371731 2.108795 2.46875 2.25 1.023884.131791 2.065552-.225148 2.84375-1v.03125l22.84375-14.96875c13.185056-.02898 26.362788.07707 39.5625-.03125a.93232674.93232674 0 0 0 .0625 0c5.831518-.429771 9.674679-6.216892 9-11.71875-.0051-.0418.0056-.08323 0-.125-.03043-18.00176.07779-35.987855-.03125-54a.93232674.93232674 0 0 0 0-.0625c-.429771-5.8315178-6.216892-9.6746792-11.71875-9h-.125-70.0625z" opacity=".08"/><path d="m12 4.96875c-5.501783-.1656394-9.7593033 5.261556-9.03125 10.551463.031153 18.132768-.06237 36.268711.046873 54.39949.3891125 5.279828 5.7301904 8.791471 10.757959 8.111547h6.538918c-.693629 4.811167-1.723208 9.637038-2.21875 14.4375.399566 1.846889 2.79006 1.976363 3.910163.694482 7.696612-5.043994 15.393225-10.087988 23.089837-15.131982 13.274928-.03092 26.553011.06205 39.825953-.04687 5.279828-.389113 8.791471-5.730191 8.111547-10.757959-.031152-18.048315.062369-36.099801-.046873-54.146124-.389113-5.2798278-5.730191-8.7914714-10.757959-8.111547-23.408806 0-46.817612 0-70.226418 0z" opacity=".1"/><path d="m12 6c-4.4078522 0-8 3.5921478-8 8v55c0 4.407852 3.5921478 8 8 8h9.5l-2.40625 14.90625a.98733463.98733463 0 0 0 1.5.96875l24.21875-15.875h39.1875c4.407852 0 8-3.592148 8-8v-55c0-4.4078522-3.592148-8-8-8z" opacity=".15"/><path d="m12 7c-3.878 0-7 3.122-7 7v55c0 3.878 3.122 7 7 7h10.65625l-2.59375 16.0625 24.5-16.0625h39.4375c3.878 0 7-3.122 7-7v-55c0-3.878-3.122-7-7-7z" opacity=".3"/></g><path d="m12 7c-3.324 0-6 2.676-6 6v56c0 3.324 2.676 6 6 6h12l-3 16 23-16h40c3.324 0 6-2.676 6-6v-56c0-3.324-2.676-6-6-6z" fill="url(#k)" opacity=".45"/><path d="m12 6c-3.324 0-6 2.676-6 6v56c0 3.324 2.676 6 6 6h12l-3 16 23-16h40c3.324 0 6-2.676 6-6v-56c0-3.324-2.676-6-6-6z" fill="url(#h)"/><rect fill="url(#e)" height="84" rx="6" width="84" x="-104" y="6"/><path d="m-98 6c-3.324 0-6 2.676-6 6v2 68 2c0 .334721.0413.6507.0937.96875.0487.295596.097.596915.1875.875.01.03038.0209.0636.0312.09375.0989.287771.23488.547452.375.8125.14459.273507.31562.535615.5.78125s.37378.473472.59375.6875c.43995.428056.94291.814526 1.5 1.09375.27854.139612.57347.246947.875.34375-.2562-.100222-.48671-.236272-.71875-.375-.007-.0044-.0239.0045-.0312 0-.0319-.0193-.0623-.04251-.0937-.0625-.1204-.0767-.23102-.163513-.34375-.25-.10617-.0808-.21328-.161112-.3125-.25-.17793-.161433-.34746-.345388-.5-.53125-.10758-.130255-.21839-.265285-.3125-.40625-.0251-.03838-.0384-.08587-.0625-.125-.0648-.103032-.13023-.204517-.1875-.3125-.10101-.194706-.20568-.415701-.28125-.625-.008-.02181-.0236-.04055-.0312-.0625-.0318-.09195-.0358-.186831-.0625-.28125-.0303-.106618-.0704-.203031-.0937-.3125-.07298-.341512-.1251-.698205-.1251-1.0625v-2-68-2c0-2.781848 2.21815-5 5-5h2 68 2c2.781848 0 5 2.218152 5 5v2 68 2c0 .364295-.05212.720988-.125 1.0625-.04415.206893-.08838.397658-.15625.59375-.0077.02195-.0233.04069-.03125.0625-.06274.173739-.138383.367449-.21875.53125-.04158.0828-.07904.169954-.125.25-.0546.09721-.126774.18835-.1875.28125-.09411.140965-.204921.275995-.3125.40625-.143174.17445-.303141.346998-.46875.5-.01117.0102-.01998.02115-.03125.03125-.138386.125556-.285091.234436-.4375.34375-.102571.07315-.204318.153364-.3125.21875-.0074.0045-.02384-.0044-.03125 0-.232039.138728-.462548.274778-.71875.375.301527-.0968.596455-.204138.875-.34375.55709-.279224 1.060053-.665694 1.5-1.09375.219973-.214028.409366-.441865.59375-.6875s.355408-.507743.5-.78125c.14012-.265048.276135-.524729.375-.8125.01041-.03078.02133-.06274.03125-.09375.09046-.278085.1388-.579404.1875-.875.0524-.31805.09375-.634029.09375-.96875v-2-68-2c0-3.324-2.676-6-6-6z" fill="url(#f)" opacity=".5"/><path d="m-98 90c-3.324 0-6-2.676-6-6v-2-68-2c0-.334721.0413-.6507.0937-.96875.0487-.295596.097-.596915.1875-.875.01-.03038.0209-.0636.0312-.09375.0989-.287771.23488-.547452.375-.8125.14459-.273507.31562-.535615.5-.78125s.37378-.473472.59375-.6875c.43995-.428056.94291-.814526 1.5-1.09375.27854-.139612.57347-.246947.875-.34375-.2562.100222-.48671.236272-.71875.375-.007.0044-.0239-.0045-.0312 0-.0319.0193-.0623.04251-.0937.0625-.1204.0767-.23102.163513-.34375.25-.10617.0808-.21328.161112-.3125.25-.17793.161433-.34746.345388-.5.53125-.10758.130255-.21839.265285-.3125.40625-.0251.03838-.0384.08587-.0625.125-.0648.103032-.13023.204517-.1875.3125-.10101.194706-.20568.415701-.28125.625-.008.02181-.0236.04055-.0312.0625-.0318.09195-.0358.186831-.0625.28125-.0303.106618-.0704.203031-.0937.3125-.07298.341512-.1251.698205-.1251 1.0625v2 68 2c0 2.781848 2.21815 5 5 5h2 68 2c2.781848 0 5-2.218152 5-5v-2-68-2c0-.364295-.05212-.720988-.125-1.0625-.04415-.206893-.08838-.397658-.15625-.59375-.0077-.02195-.0233-.04069-.03125-.0625-.06274-.173739-.138383-.367449-.21875-.53125-.04158-.0828-.07904-.169954-.125-.25-.0546-.09721-.126774-.18835-.1875-.28125-.09411-.140965-.204921-.275995-.3125-.40625-.143174-.17445-.303141-.346998-.46875-.5-.01117-.0102-.01998-.02115-.03125-.03125-.138386-.125556-.285091-.234436-.4375-.34375-.102571-.07315-.204318-.153364-.3125-.21875-.0074-.0045-.02384.0044-.03125 0-.232039-.138728-.462548-.274778-.71875-.375.301527.0968.596455.204138.875.34375.55709.279224 1.060053.665694 1.5 1.09375.219973.214028.409366.441865.59375.6875s.355408.507743.5.78125c.14012.265048.276135.524729.375.8125.01041.03078.02133.06274.03125.09375.09046.278085.1388.579404.1875.875.0524.31805.09375.634029.09375.96875v2 68 2c0 3.324-2.676 6-6 6z" fill="url(#g)" opacity=".2"/><path d="m12 6c-3.324 0-6 2.676-6 6v56c0 2.9085 2.0422266 5.317352 4.78125 5.875-2.2021357-.53769-3.8125-2.49722-3.8125-4.875v-56c0-2.797389 2.2338615-5.03125 5.03125-5.03125h72c2.797388 0 5.03125 2.233861 5.03125 5.03125v56c0 2.37778-1.610365 4.33731-3.8125 4.875 2.739023-.557648 4.78125-2.9665 4.78125-5.875v-56c0-3.324-2.676-6-6-6zm12 68.03125-3 15.96875 22.96875-15.96875a.98129583.98129583 0 0 0 -.53125.15625l-21.03125 14.625 2.5625-13.625a.98129583.98129583 0 0 0 -.96875-1.15625z" fill="url(#i)" opacity=".4"/><path d="m12 6c-3.324 0-6 2.676-6 6v56c0 3.324 2.676 6 6 6h12l-3 16 23-16h40c3.324 0 6-2.676 6-6v-56c0-3.324-2.676-6-6-6zm0 2h72c2.251468 0 4 1.7485321 4 4v56c0 2.251468-1.748532 4-4 4h-40a1.9985725 1.9985725 0 0 0 -1.15625.375l-18.96875 13.1875 2.09375-11.1875a1.9985725 1.9985725 0 0 0 -1.96875-2.375h-12c-2.2514679 0-4-1.748532-4-4v-56c0-2.2514679 1.7485321-4 4-4z" fill="url(#j)" opacity=".2"/><path d="m13.186676 9.9869047c-1.817118 0-3.186676 1.3633183-3.186676 3.2085013v37.672603c5.426839-12.490685 16.108091-22.317633 35.83917-16.042503 19.84106 6.297385 32.498465-2.948167 40.160835-7.159108v-14.470992c0-1.845183-1.36956-3.2085013-3.18668-3.2085013z" fill="url(#m)"/><rect height="66" rx="12" style="opacity:.1;stroke:#fefefe;stroke-width:.579734;stroke-linecap:round;clip-path:url(#d);fill:url(#c);filter:url(#n)" transform="matrix(1 0 0 .74384496 0 3.842326)" width="66" x="15" y="15"/><path d="m61.8125 14c-.817687.0102-1.581251.121246-2.125.0625a.98580508.98580508 0 0 0 -.09375-.03125h-4.15625c-2.511966-.002204-3.669136 3.184391-2.0625 4.96875l-.03125.03125c4.605395 6.473651 7.05889 14.402279 6.78125 22.34375a.98580508.98580508 0 0 0 0 .0625c.172181 7.785657-2.482518 15.495222-7 21.84375-.0052.0073.0052.02399 0 .03125-.0031.0044-.02811-.0044-.03125 0-1.430335 2.002666.352944 4.836752 2.75 4.59375v.0625c2.37496-.06106 4.875949.104383 7.40625-.125a.98580508.98580508 0 0 0 .25-.03125c1.06796-.398997 1.718845-1.266973 2.1875-2.03125s.823385-1.476801 1.1875-1.9375a.98580508.98580508 0 0 0 .0625-.09375c5.992884-9.61677 7.254005-21.51041 5.1875-32.40625-1.226925-5.942499-3.850093-11.600247-7.46875-16.4375a.98580508.98580508 0 0 0 -.21875-.21875c-.859781-.595204-1.807332-.6977-2.625-.6875zm-35.90625 10.03125c-1.071627.0098-1.954722.660754-2.40625 1.4375-.423862.729154-.517089 1.594973-.40625 2.40625h-.0625c.05766 2.50788-.09755 5.124197.125 7.78125a.98580508.98580508 0 0 0 .03125.15625c.301718 1.103812 1.236401 1.774903 2.09375 2 .84595.222105 1.669744.16198 2.3125.125v.03125c2.26685-.05662 4.632117.09813 7.0625-.125a.98580508.98580508 0 0 0 .15625-.03125c1.103812-.301718 1.774903-1.236401 2-2.09375.222105-.84595.16198-1.669744.125-2.3125h.03125c-.05662-2.26685.09813-4.632117-.125-7.0625a.98580508.98580508 0 0 0 -.03125-.15625c-.301718-1.103812-1.236401-1.774903-2.09375-2-.834551-.219112-1.642251-.161703-2.28125-.125v-.03125zm14 11c-1.071627.0098-1.954722.660754-2.40625 1.4375-.423862.729154-.517089 1.594973-.40625 2.40625h-.0625c.08414 1.838626-.19422 3.922942.1875 6.0625a.98580508.98580508 0 0 0 .0625.1875c.511865 1.189517 1.7004 1.71219 2.65625 1.8125s1.842332-.03625 2.40625 0a.98580508.98580508 0 0 0 .0625.03125c3.961412-.04066 7.975805.08396 12-.0625a.98580508.98580508 0 0 0 .09375-.03125c1.068822-.151367 1.85715-.943998 2.1875-1.75.317453-.774535.333187-1.560588.25-2.28125h.03125c-.08221-1.740053.195174-3.72785-.1875-5.78125a.98580508.98580508 0 0 0 -.0625-.1875c-.511865-1.189517-1.7004-1.71219-2.65625-1.8125s-1.842332.03625-2.40625 0a.98580508.98580508 0 0 0 -.0625-.03125zm-13.875 9c-1.071627.0098-1.954722.660754-2.40625 1.4375-.423862.729154-.517089 1.594973-.40625 2.40625h-.0625c.05646 2.477049-.09589 5.061514.125 7.6875a.98580508.98580508 0 0 0 .03125.15625c.257899.974646 1.014672 1.624319 1.78125 1.90625.237353.08729.450417.02115.6875.0625-.594038 1.344771-1.462636 2.63982-2.40625 3.96875a.98580508.98580508 0 0 0 -.09375.1875c-.915037 2.129281 1.003159 4.3998 3.21875 4.09375v.03125c1.642087-.08415 3.496922.204976 5.46875-.1875a.98580508.98580508 0 0 0 .28125-.09375c1.822975-1.00779 2.437595-2.991569 3.09375-4.21875a.98580508.98580508 0 0 0 .03125-.09375c2.024515-4.774902 1.563736-9.872838 1.5625-14.5625a.98580508.98580508 0 0 0 -.03125-.0625c-.057062-1.087138-.762305-1.939298-1.5625-2.34375-.749761-.378961-1.568082-.410514-2.34375-.3125v-.0625z" fill="#5e1a50" opacity=".05"/><path d="m55.4375 15.03125c-1.70959-.0015-2.501287 2.296983-1.290354 3.445557 4.729182 6.647654 7.262137 14.768566 6.97661 22.935646.177784 8.039026-2.572477 15.949722-7.217506 22.462547-.987151 1.340183.284382 3.336775 1.907888 3.09375 2.442733-.0628 4.922711.125579 7.342112-.09375 1.529738-.571521 1.98717-2.463345 2.931631-3.658332 5.832625-9.359603 7.085677-20.98272 5.057465-31.676654-1.19585-5.79199-3.73579-11.315184-7.270346-16.040014-1.239267-.857912-2.864022-.315465-4.282827-.46875-1.384891 0-2.769782 0-4.154673 0zm-29.53125 10c-1.435794.01312-2.097904 1.570025-1.875 2.817415.05906 2.568977-.120351 5.15769.09375 7.713835.415583 1.520378 2.169123 1.478774 3.430886 1.40625 2.333301-.05828 4.686121.119286 7.006614-.09375 1.520378-.415583 1.478774-2.169123 1.40625-3.430886-.05828-2.333301.119286-4.686121-.09375-7.006614-.415583-1.520378-2.169123-1.478774-3.430886-1.40625-2.179288 0-4.358576 0-6.537864 0zm14 11c-1.435794.01312-2.097904 1.570025-1.875 2.817415.0898 1.962288-.188595 3.968464.15625 5.901335.725862 1.68682 2.775436 1.126066 4.217051 1.21875 3.988486-.04094 7.990563.08235 11.970449-.0625 1.437181-.203534 1.750904-1.832768 1.59375-3.037803-.08826-1.868125.186424-3.779686-.15625-5.618447-.725862-1.68682-2.775436-1.126066-4.217051-1.21875-3.896399 0-7.792799 0-11.689199 0zm-13.875 9c-1.435794.01312-2.097904 1.570025-1.875 2.817415.05785 2.537827-.118651 5.095049.09375 7.620085.344934 1.303565 1.823411 1.532913 2.96875 1.40625-.543595 2.024218-1.856783 3.6897-3.03125 5.34375-.614285 1.429435.745683 3.007355 2.236832 2.75 1.780037-.09122 3.614298.190604 5.356918-.15625 1.381124-.763523 1.986807-2.473377 2.701358-3.809773 1.901791-4.485452 1.456144-9.441 1.454892-14.190227-.07657-1.458795-1.689037-1.98229-2.927609-1.78125-2.326214 0-4.652427 0-6.978641 0z" fill="#5e1a50" opacity=".1"/><path d="m55.34375 16.03125a.98129583.98129583 0 0 0 -.625 1.53125c1.318089 1.911264 2.441453 3.774319 3.375 5.625.931287 1.846272 1.694337 3.733871 2.28125 5.625a.98129583.98129583 0 0 0 0 .03125c.604803 1.896179 1.067057 3.810611 1.34375 5.8125.277172 1.989195.406243 4.115856.40625 6.34375-.000007 2.24494-.128836 4.367789-.40625 6.375-.276571 1.984763-.738519 3.883759-1.34375 5.78125a.98129583.98129583 0 0 0 0 .03125c-.586504 1.889836-1.350437 3.764775-2.28125 5.59375-.934452 1.852501-2.056535 3.727983-3.375 5.65625a.98129583.98129583 0 0 0 .8125 1.53125h7.0625a.98129583.98129583 0 0 0 .8125-.40625c1.31433-1.894704 2.446-3.801319 3.40625-5.6875.959392-1.884546 1.756352-3.824597 2.375-5.8125.0029-.0092-.0028-.02208 0-.03125.631991-1.986768 1.114621-4.074524 1.40625-6.21875.309535-2.166855.437485-4.426127.4375-6.84375-.000015-2.423077-.130341-4.715556-.4375-6.84375-.0014-.0103.0014-.02095 0-.03125-.292102-2.133597-.776986-4.195028-1.40625-6.15625-.0029-.0092.0029-.02204 0-.03125-.619053-1.98902-1.415127-3.912874-2.375-5.78125-.960248-1.886152-2.091923-3.792774-3.40625-5.6875a.98129583.98129583 0 0 0 -.8125-.40625h-7.0625a.98129583.98129583 0 0 0 -.1875 0zm-29.53125 10a.98129583.98129583 0 0 0 -.78125.96875v8a.98129583.98129583 0 0 0 .96875.96875h8a.98129583.98129583 0 0 0 .96875-.96875v-8a.98129583.98129583 0 0 0 -.96875-.96875h-8a.98129583.98129583 0 0 0 -.1875 0zm14 11a.98129583.98129583 0 0 0 -.78125.96875v6a.98129583.98129583 0 0 0 .96875.96875h14a.98129583.98129583 0 0 0 .96875-.96875v-6a.98129583.98129583 0 0 0 -.96875-.96875h-14a.98129583.98129583 0 0 0 -.1875 0zm-13.875 9a.98129583.98129583 0 0 0 -.78125.96875v7.90625a.98129583.98129583 0 0 0 .96875.96875h2.40625c-.03863.170484-.02553.289326-.09375.5625-.164541.65879-.43833 1.33793-.75 2.03125-.315658.702141-.644766 1.394829-1.0625 2.03125a.98129583.98129583 0 0 0 -.03125 0c-.410053.650723-.849716 1.271899-1.34375 1.875a.98129583.98129583 0 0 0 .75 1.59375h5.03125a.98129583.98129583 0 0 0 .78125-.375c.47532-.649895.948498-1.341082 1.34375-2.09375.39691-.755885.727819-1.607698 1-2.5.27378-.878554.460754-1.80261.59375-2.8125.0014-.01075-.0014-.02049 0-.03125.152087-1.03292.218738-2.182585.21875-3.40625v-5.75a.98129583.98129583 0 0 0 -.96875-.96875h-7.875a.98129583.98129583 0 0 0 -.1875 0z" fill="#5e1a50" opacity=".15"/><path d="m55.53125 17c1.341014 1.944507 2.482024 3.855847 3.4375 5.75.95547 1.894214 1.740289 3.836802 2.34375 5.78125.620215 1.944497 1.090027 3.938208 1.375 6 .284957 2.045067.406243 4.205799.40625 6.46875-.000007 2.279738-.121291 4.438195-.40625 6.5-.284973 2.045055-.754785 4.024281-1.375 5.96875-.603461 1.944474-1.38828 3.872575-2.34375 5.75-.955476 1.89418-2.096486 3.820004-3.4375 5.78125h7.0625c1.290721-1.86067 2.40503-3.718609 3.34375-5.5625.938701-1.843902 1.70903-3.743029 2.3125-5.6875.620206-1.944472 1.09002-3.967159 1.375-6.0625.301712-2.112092.437485-4.338435.4375-6.71875-.000015-2.39705-.135786-4.640157-.4375-6.71875-.28498-2.095317-.754794-4.103517-1.375-6.03125-.60347-1.944446-1.373799-3.829086-2.3125-5.65625-.93872-1.843865-2.053029-3.701805-3.34375-5.5625zm-29.53125 10v8h8v-8zm14 11v6h14v-6zm-13.875 9v7.90625h3.53125c-.000009.713489-.09861 1.049922-.28125 1.78125-.182657.731322-.452493 1.45617-.78125 2.1875-.328778.731324-.699635 1.460593-1.15625 2.15625-.438362.695648-.92609 1.344437-1.4375 1.96875h5.03125c.45661-.624313.884691-1.273102 1.25-1.96875.365285-.695657.681778-1.474156.9375-2.3125.255694-.820518.434641-1.706455.5625-2.6875.146099-.981049.218738-2.086157.21875-3.28125v-5.75z" fill="#5e1a50" opacity=".3"/><path d="m55.53125 16c1.341014 1.944507 2.482024 3.855847 3.4375 5.75.95547 1.894214 1.740289 3.836802 2.34375 5.78125.620215 1.944497 1.090027 3.938208 1.375 6 .284957 2.045067.406243 4.205799.40625 6.46875-.000007 2.279738-.121291 4.438195-.40625 6.5-.284973 2.045055-.754785 4.024281-1.375 5.96875-.603461 1.944474-1.38828 3.872575-2.34375 5.75-.955476 1.89418-2.096486 3.820004-3.4375 5.78125h7.0625c1.290721-1.86067 2.40503-3.718609 3.34375-5.5625.938701-1.843902 1.70903-3.743029 2.3125-5.6875.620206-1.944472 1.09002-3.967159 1.375-6.0625.301712-2.112092.437485-4.338435.4375-6.71875-.000015-2.39705-.135786-4.640157-.4375-6.71875-.28498-2.095317-.754794-4.103517-1.375-6.03125-.60347-1.944446-1.373799-3.829086-2.3125-5.65625-.93872-1.843865-2.053029-3.701805-3.34375-5.5625zm-29.53125 10v8h8v-8zm14 11v6h14v-6zm-13.875 9v7.90625h3.53125c-.000009.713489-.09861 1.049922-.28125 1.78125-.182657.731322-.452493 1.45617-.78125 2.1875-.328778.731324-.699635 1.460593-1.15625 2.15625-.438362.695648-.92609 1.344437-1.4375 1.96875h5.03125c.45661-.624313.884691-1.273102 1.25-1.96875.365285-.695657.681778-1.474156.9375-2.3125.255694-.820518.434641-1.706455.5625-2.6875.146099-.981049.218738-2.086157.21875-3.28125v-5.75z" fill="#fefefe"/></svg>