<svg height="96" width="96" xmlns="http://www.w3.org/2000/svg" xmlns:xlink="http://www.w3.org/1999/xlink"><linearGradient id="a"><stop offset="0" stop-color="#fefefe"/><stop offset="1" stop-color="#fefefe" stop-opacity="0"/></linearGradient><linearGradient id="b" gradientUnits="userSpaceOnUse" x1="36.357143" x2="36.357143" xlink:href="#a" y1="6" y2="63.893143"/><filter id="c" color-interpolation-filters="sRGB" height="1.384" width="1.384" x="-.192" y="-.192"><feGaussianBlur stdDeviation="5.28"/></filter><linearGradient id="d" gradientUnits="userSpaceOnUse" x1="48" x2="48" xlink:href="#a" y1="20.220806" y2="138.66119"/><radialGradient id="e" cx="48" cy="90.171875" gradientTransform="matrix(1.1573129 0 0 .99590774 -7.551021 .197132)" gradientUnits="userSpaceOnUse" r="42" xlink:href="#a"/><clipPath id="f"><rect height="84" rx="6" width="84" x="6" y="6"/></clipPath><linearGradient id="g" gradientUnits="userSpaceOnUse" x1="48" x2="48" y1="90" y2="5.987717"><stop offset="0" stop-color="#ca0019"/><stop offset="1" stop-color="#e68995"/></linearGradient><linearGradient id="h" gradientTransform="matrix(1.0058652 0 0 .994169 100 0)" gradientUnits="userSpaceOnUse" x1="45.447727" x2="45.447727" y1="92.539597" y2="7.01654"><stop offset="0"/><stop offset="1" stop-opacity=".588235"/></linearGradient><linearGradient id="i" gradientTransform="matrix(1.0238095 0 0 1.0119048 -1.142857 -98.071429)" gradientUnits="userSpaceOnUse" x1="32.251034" x2="32.251034" xlink:href="#h" y1="6.131708" y2="90.238609"/><linearGradient id="j" gradientTransform="translate(0 -97)" gradientUnits="userSpaceOnUse" x1="32.251034" x2="32.251034" xlink:href="#h" y1="6.131708" y2="90.238609"/><linearGradient id="k" gradientUnits="userSpaceOnUse" x1="96" x2="16" xlink:href="#a" y1="16" y2="64"/><g fill="url(#i)"><path d="m12-95.03125c-5.5110903 0-10.03125 4.52016-10.03125 10.03125v71c0 5.5110902 4.5201598 10.03125 10.03125 10.03125h72c5.51109 0 10.03125-4.5201597 10.03125-10.03125v-71c0-5.51109-4.52016-10.03125-10.03125-10.03125z" opacity=".08" transform="scale(1 -1)"/><path d="m12-94.03125c-4.971633 0-9.03125 4.059617-9.03125 9.03125v71c0 4.9716329 4.0596171 9.03125 9.03125 9.03125h72c4.971633 0 9.03125-4.059617 9.03125-9.03125v-71c0-4.971633-4.059617-9.03125-9.03125-9.03125z" opacity=".1" transform="scale(1 -1)"/><path d="m12-93c-4.4091333 0-8 3.590867-8 8v71c0 4.4091333 3.5908667 8 8 8h72c4.409133 0 8-3.5908667 8-8v-71c0-4.409133-3.590867-8-8-8z" opacity=".2" transform="scale(1 -1)"/><rect height="85" opacity=".3" rx="7" transform="scale(1 -1)" width="86" x="5" y="-92"/></g><rect fill="url(#j)" height="84" opacity=".45" rx="6" transform="scale(1 -1)" width="84" x="6" y="-91"/><rect fill="url(#g)" height="84" rx="6" width="84" x="6" y="6"/><path d="m36.8125 27.03125c-8.976772-.424559-17.789886 5.423076-20.59375 14.03125-.003.0092.003.02202 0 .03125-3.264936 8.919988.418745 19.635061 8.53125 24.59375.0072.0044.024-.0044.03125 0 7.065688 4.69786 16.93145 4.307389 23.59375-.96875h.03125v.03125c.958508-.748914 2.255722-1.722065 3.1875-2.96875.39199-.524468.621478-1.178022.78125-1.84375.506591.932952.899839 1.906224 1.46875 2.8125a.89546682.89546682 0 0 0 0 .03125c2.57709 3.872423 7.154654 5.920877 11.6875 5.8125.04162-.000995.08339.0014.125 0 5.122387.444305 10.43095-1.898391 13.25-6.3125 2.878427-4.646198 3.011273-11.380879-.90625-15.59375a.89546682.89546682 0 0 0 -.03125 0c-3.897971-3.966374-9.422891-4.354533-13.46875-6.65625-.298069-.386792-.375629-.672018-.3125-.9375.06944-.29203.307117-.624418.6875-.875s.870572-.392142 1.3125-.375c.441928.01714.801873.16139 1.125.53125l.03125-.03125c1.09518 1.426769 2.699804 2.016739 4.21875 1.90625 1.492719-.108582 2.895178-.804384 4.03125-1.71875l.03125.03125c.04085-.02405.0541-.06892.09375-.09375.92979-.582126 1.546528-1.354793 1.75-2.21875.21215-.900804-.0054-1.800964-.375-2.59375-.722279-1.549183-2.070602-2.828527-3.3125-3.625-.02948-.02429-.06407-.03855-.09375-.0625-5.928939-4.784407-15.916686-2.867091-19.15625 4.21875-.01997.02652-.01208.06677-.03125.09375-.01557.03489-.04725.05862-.0625.09375-.520933.782122-.709382 1.708695-.8125 2.65625-3.456332-5.892499-9.890229-9.843883-16.8125-10zm-1.03125 11.0625c.893568-.02171 1.764685.07799 2.625.28125a.89546682.89546682 0 0 0 .0625 0c3.250531.590334 5.665258 3.330385 6.875 6.4375a.89546682.89546682 0 0 0 .03125.0625c.929942 2.035464 1.801305 4.13435 2.6875 6.21875-.466133-.09183-.936262-.121277-1.375 0-.89311.246875-1.641853.927624-2.03125 1.84375l-.03125-.03125c-1.518288 2.143531-3.752361 3.98724-6.21875 4.71875-2.733863.104794-5.38026.471948-7.3125-.96875a.89546682.89546682 0 0 0 -.03125-.03125c-2.765301-1.79163-5.114776-4.851197-4.75-8.09375a.89546682.89546682 0 0 0 0-.21875c-.334128-2.595012.437345-5.144636 2.34375-6.90625a.89546682.89546682 0 0 0 .09375-.09375c1.662921-2.071005 4.350545-3.153623 7.03125-3.21875zm23.6875 11.59375c3.299357 1.977658 7.041944 2.820555 10.125 4.46875.54363.565796.558512 1.250963.15625 2.03125-.415758.806466-1.300193 1.460594-2.0625 1.53125a.89546682.89546682 0 0 0 -.1875.0625c-2.483991.820677-5.018094-.47019-5.78125-2.96875a.89546682.89546682 0 0 0 -.03125-.125c-.777013-1.632172-1.498216-3.320687-2.21875-5z" fill="#a10619" opacity=".05"/><path d="m36.78125 27.9375c-8.567053-.405181-17.04624 5.244854-19.704916 13.450655-3.128827 8.5058.443577 18.820985 8.188169 23.540397 6.732064 4.490334 16.231366 4.142501 22.575748-.89631 1.950778-1.524207 5.020044-3.695082 3.440999-6.532242-.767072-1.652011-1.365295-3.434255-2.34375-4.96875-1.073559-1.224847-3.11613-.579558-3.586149.897685-1.627332 2.297479-4.016303 4.313217-6.763998 5.104246-2.706923.09323-5.706052.573221-8.035615-1.163725-2.960479-1.918085-5.531062-5.215531-5.113801-8.924627-.366389-2.845567.497855-5.716647 2.634249-7.690782 2.474928-3.08228 6.81296-4.146154 10.559475-3.260976 3.647018.662341 6.253501 3.676459 7.545314 6.994366 2.724439 5.963272 4.934716 12.218424 8.432376 17.790205 2.407193 3.617129 6.730514 5.545642 11.016151 5.405745 4.833592.462017 9.880318-1.728651 12.52075-5.863077 2.67696-4.321002 2.776565-10.658912-.802502-14.50781-3.657744-3.721931-9.181427-4.046173-13.5-6.59375-2.167639-2.503059 2.190035-5.176187 4.148555-2.934411 1.832496 2.461131 5.132481 1.687902 7.176277-.01409 3.3749-1.987455.301588-5.643501-1.944406-7.048392-5.483039-4.51801-15.084895-2.662761-17.980973 4.011324-1.156251 1.535278-.853092 5.773407-.874735 5.975973-2.560262-7.373151-9.790912-12.595825-17.587218-12.771654zm20.53125 19.03125c3.554781 3.479104 8.674725 4.163285 12.889242 6.469268 1.829337 1.747297-.109454 4.975298-2.413544 5.188858-2.934996.969683-5.9989-.62016-6.901653-3.575759-1.266313-2.659983-2.397832-5.381964-3.574045-8.082367z" fill="#a10619" opacity=".15"/><path d="m36.75 29.0625c-7.071134-.235133-14.21976 3.492977-17.65625 10.40625-4.791502 9.639176-.793583 21.13414 8.9375 25.6875 1.527665.714823 3.639914 1.40691 5.03125 1.59375 4.445162.596964 8.665528-.202029 12.3125-2.40625 1.201645-.726273 2.424683-1.673655 3.375-2.53125.475158-.428797.905383-.837771 1.21875-1.21875s.625-.60172.625-1.34375c0-.391309-.06149-.423492-.125-.625s-.146954-.446411-.25-.71875c-.206092-.544677-.501524-1.216477-.8125-1.90625l-1.125-2.4375a.93161099.93161099 0 0 0 -1.65625-.09375l-.5.875-.03125.03125c-.918794 1.439801-3.572667 3.724919-5.28125 4.53125-1.642772.775279-2.055153.84375-4.90625.84375-2.967061 0-3.23453-.03422-5.0625-.9375-2.388536-1.180281-4.624492-3.470565-5.71875-5.8125-.761959-1.630763-.8125-2.039985-.8125-5.09375 0-3.202122.0199-3.364917.9375-5.1875 1.027978-2.041821 3.439056-4.459555 5.34375-5.4375 1.98673-1.02006 5.31136-1.511058 7.46875-1.0625 4.603513.957157 7.153093 3.204463 9.34375 8.28125 5.458901 12.650842 7.143784 16.174713 9 18.21875 2.606294 2.870024 5.101341 3.836683 9.65625 3.84375 3.144433.0049 4.099238-.15406 6.0625-1.0625 4.464071-2.065616 6.863576-5.794063 6.8125-10.65625-.02921-2.780045-.690748-5.010408-2.40625-6.75s-4.347599-2.966662-8.25-4.25c-2.762858-.908588-4.372691-1.621513-5.15625-2.25s-.90625-1.077528-.90625-2.28125c0-1.135847.343848-1.938925.9375-2.5s1.485561-.90625 2.71875-.90625c1.485303 0 2.022856.227728 3.3125 1.4375.388661.364584.766884.644859 1.21875.8125s.967882.177606 1.40625.0625c.741089-.194593 1.516175-.620676 2.21875-1.0625.351288-.220912.672662-.423528.9375-.65625.132419-.116361.259364-.25531.375-.40625s.28125-.320527.28125-.75c0-.420422-.142053-.64027-.28125-.875s-.302329-.455999-.5-.6875c-.395342-.463001-.907617-.983299-1.46875-1.46875-1.122266-.970902-2.359744-1.869696-3.46875-2.25-4.19424-1.438301-8.915782-.534724-11.75 2.40625-1.887074 1.958156-2.753398 4.125729-2.75 6.96875.003 2.654095.738852 4.859408 2.53125 6.625s4.520947 3.108156 8.5 4.5c2.550294.892076 4.016716 1.564954 4.71875 2.1875s.84375 1.154917.84375 2.4375c0 1.394981-.5602 2.530102-1.5625 3.375s-2.466945 1.375-4.25 1.375c-2.295163 0-3.163213-.316465-4.375-1.46875-.560787-.533252-.979337-1.027252-1.78125-2.625s-1.960599-4.233265-3.90625-8.75c-1.86434-4.327967-3.065765-6.98831-4.15625-8.90625s-2.091785-3.095707-3.375-4.28125c-3.382834-3.125344-7.600113-4.702639-11.84375-4.84375z" fill="#a10619" opacity=".3"/><path d="m12 6c-3.324 0-6 2.676-6 6v2 68 2c0 .334721.04135.6507.09375.96875.0487.295596.09704.596915.1875.875.00988.03038.020892.0636.03125.09375.098865.287771.2348802.547452.375.8125.1445918.273507.3156161.535615.5.78125s.3737765.473472.59375.6875c.439947.428056.94291.814526 1.5 1.09375.278545.139612.5734731.246947.875.34375-.2562018-.100222-.4867109-.236272-.71875-.375-.00741-.0044-.023866.0045-.03125 0-.031933-.0193-.062293-.04251-.09375-.0625-.120395-.0767-.2310226-.163513-.34375-.25-.1061728-.0808-.2132809-.161112-.3125-.25-.1779299-.161433-.3474596-.345388-.5-.53125-.1075789-.130255-.2183939-.265285-.3125-.40625-.025089-.03838-.038446-.08587-.0625-.125-.064763-.103032-.1302275-.204517-.1875-.3125-.1010083-.194706-.2056748-.415701-.28125-.625-.00796-.02181-.023589-.04055-.03125-.0625-.0318251-.09195-.0358045-.186831-.0625-.28125-.0303323-.106618-.0703894-.203031-.09375-.3125-.0728786-.341512-.125-.698205-.125-1.0625v-2-68-2c0-2.781848 2.2181517-5 5-5h2 68 2c2.781848 0 5 2.218152 5 5v2 68 2c0 .364295-.05212.720988-.125 1.0625-.04415.206893-.08838.397658-.15625.59375-.0077.02195-.0233.04069-.03125.0625-.06274.173739-.138383.367449-.21875.53125-.04158.0828-.07904.169954-.125.25-.0546.09721-.126774.18835-.1875.28125-.09411.140965-.204921.275995-.3125.40625-.143174.17445-.303141.346998-.46875.5-.01117.0102-.01998.02115-.03125.03125-.138386.125556-.285091.234436-.4375.34375-.102571.07315-.204318.153364-.3125.21875-.0074.0045-.02384-.0044-.03125 0-.232039.138728-.462548.274778-.71875.375.301527-.0968.596455-.204138.875-.34375.55709-.279224 1.060053-.665694 1.5-1.09375.219973-.214028.409366-.441865.59375-.6875s.355408-.507743.5-.78125c.14012-.265048.276135-.524729.375-.8125.01041-.03078.02133-.06274.03125-.09375.09046-.278085.1388-.579404.1875-.875.0524-.31805.09375-.634029.09375-.96875v-2-68-2c0-3.324-2.676-6-6-6z" fill="url(#b)" opacity=".4"/><path d="m12 90c-3.324 0-6-2.676-6-6v-2-68-2c0-.334721.04135-.6507.09375-.96875.0487-.295596.09704-.596915.1875-.875.00988-.03038.020892-.0636.03125-.09375.098865-.287771.2348802-.547452.375-.8125.1445918-.273507.3156161-.535615.5-.78125s.3737765-.473472.59375-.6875c.439947-.428056.94291-.814526 1.5-1.09375.278545-.139612.5734731-.246947.875-.34375-.2562018.100222-.4867109.236272-.71875.375-.00741.0044-.023866-.0045-.03125 0-.031933.0193-.062293.04251-.09375.0625-.120395.0767-.2310226.163513-.34375.25-.1061728.0808-.2132809.161112-.3125.25-.1779299.161433-.3474596.345388-.5.53125-.1075789.130255-.2183939.265285-.3125.40625-.025089.03838-.038446.08587-.0625.125-.064763.103032-.1302275.204517-.1875.3125-.1010083.194706-.2056748.415701-.28125.625-.00796.02181-.023589.04055-.03125.0625-.0318251.09195-.0358045.186831-.0625.28125-.0303323.106618-.0703894.203031-.09375.3125-.0728786.341512-.125.698205-.125 1.0625v2 68 2c0 2.781848 2.2181517 5 5 5h2 68 2c2.781848 0 5-2.218152 5-5v-2-68-2c0-.364295-.05212-.720988-.125-1.0625-.04415-.206893-.08838-.397658-.15625-.59375-.0077-.02195-.0233-.04069-.03125-.0625-.06274-.173739-.138383-.367449-.21875-.53125-.04158-.0828-.07904-.169954-.125-.25-.0546-.09721-.126774-.18835-.1875-.28125-.09411-.140965-.204921-.275995-.3125-.40625-.143174-.17445-.303141-.346998-.46875-.5-.01117-.0102-.01998-.02115-.03125-.03125-.138386-.125556-.285091-.234436-.4375-.34375-.102571-.07315-.204318-.153364-.3125-.21875-.0074-.0045-.02384.0044-.03125 0-.232039-.138728-.462548-.274778-.71875-.375.301527.0968.596455.204138.875.34375.55709.279224 1.060053.665694 1.5 1.09375.219973.214028.409366.441865.59375.6875s.355408.507743.5.78125c.14012.265048.276135.524729.375.8125.01041.03078.02133.06274.03125.09375.09046.278085.1388.579404.1875.875.0524.31805.09375.634029.09375.96875v2 68 2c0 3.324-2.676 6-6 6z" fill="url(#e)" opacity=".2"/><path d="m33.199078 65.81818c-1.195347-.160521-3.33733-.836513-4.759964-1.50219-9.276954-4.340864-13.073262-15.254263-8.503913-24.446529 5.226591-10.514464 19.471813-13.1952 28.042241-5.277126 2.475233 2.28683 3.585498 4.244505 7.307553 12.885058 3.893454 9.038467 4.617262 10.475545 5.881772 11.677967 1.347819 1.281637 2.597632 1.708138 5.005529 1.708138 3.939878 0 6.750965-2.366099 6.750965-5.682302 0-2.794522-1.014916-3.699674-6.170324-5.503001-7.85028-2.745972-10.393772-5.251025-10.399433-10.24226-.0032-2.677638.698486-4.475369 2.459505-6.302722 2.534905-2.630387 6.910079-3.520524 10.780422-2.193295 1.639616.562263 5.092779 3.547639 5.092779 4.402879 0 .41395-1.997381 1.682805-3.108108 1.974456-.58211.152849-1.08785-.04043-1.762949-.673707-1.372231-1.287244-2.30089-1.68447-3.938022-1.68447-2.831285 0-4.589338 1.664163-4.589338 4.344245 0 2.673002 1.12349 3.58107 6.69921 5.414691 7.69725 2.531306 9.956512 4.813301 10.012194 10.112948.048 4.569343-2.056741 7.865901-6.265536 9.813396-1.915583.886378-2.558988.998852-5.685904.99398-4.447064-.0069-6.44953-.801721-8.945856-3.550649-1.676756-1.846419-3.383401-5.313518-8.838855-17.956371-2.261567-5.241118-5.171245-7.800894-10.011073-8.807185-2.442675-.507874-5.859311-.04068-8.094207 1.106797-2.155482 1.106709-4.595714 3.606403-5.740651 5.880534-.93719 1.861499-1.032731 2.379563-1.032731 5.599824 0 3.077074.121171 3.807866.911924 5.500255 1.19821 2.564413 3.553785 4.95125 6.154888 6.23657 1.874323.926184 2.461235 1.03796 5.450126 1.03796 2.880289 0 3.626539-.130689 5.326155-.932795 1.958472-.924261 4.591666-3.212527 5.664299-4.922316l.556541-.887136 1.102006 2.444356c.606102 1.344392 1.102005 2.629384 1.102005 2.855535 0 .667824-2.483654 2.897589-4.759962 4.273387-3.460931 2.091779-7.432364 2.8733-11.693288 2.301078z" fill="#fefefe"/><path d="m12 6c-3.324 0-6 2.676-6 6v46.875c17.608562-11.522031 44.228739-18.875 74-18.875 3.37799 0 6.712029.09685 10 .28125v-28.28125c0-3.324-2.676-6-6-6z" fill="url(#k)" opacity=".4"/><rect height="66" rx="12" style="opacity:.1;stroke:#fefefe;stroke-width:.5;stroke-linecap:round;clip-path:url(#f);fill:url(#d);filter:url(#c)" width="66" x="15" y="15"/></svg>