<svg height="96" width="96" xmlns="http://www.w3.org/2000/svg" xmlns:xlink="http://www.w3.org/1999/xlink"><linearGradient id="a"><stop offset="0" stop-color="#fefefe"/><stop offset="1" stop-color="#fefefe" stop-opacity="0"/></linearGradient><linearGradient id="b" gradientTransform="matrix(1.0058652 0 0 .994169 100 0)" gradientUnits="userSpaceOnUse" x1="45.447727" x2="45.447727" y1="92.539597" y2="7.01654"><stop offset="0"/><stop offset="1" stop-opacity=".588235"/></linearGradient><linearGradient id="c" gradientUnits="userSpaceOnUse" x1="148" x2="148" y1="90" y2="5.987717"><stop offset="0" stop-color="#2276c5"/><stop offset="1" stop-color="#68baf4"/></linearGradient><radialGradient id="d" cx="48" cy="90.171875" gradientTransform="matrix(1.1573129 0 0 .99590774 -7.551021 .197132)" gradientUnits="userSpaceOnUse" r="42" xlink:href="#a"/><linearGradient id="e" gradientUnits="userSpaceOnUse" x1="36.357143" x2="36.357143" xlink:href="#a" y1="6" y2="63.893143"/><linearGradient id="f" gradientUnits="userSpaceOnUse" x1="32" x2="32" xlink:href="#a" y1="6" y2="64"/><linearGradient id="g" gradientUnits="userSpaceOnUse" x1="48" x2="48" y1="80" y2="16"><stop offset="0" stop-color="#dfdfdf"/><stop offset="1" stop-color="#fefefe"/></linearGradient><radialGradient id="h" cx="47.999981" cy="47.999424" gradientTransform="matrix(1.3452582 -.00000004 .00000003 1.1448837 -16.572388 -6.954329)" gradientUnits="userSpaceOnUse" r="34.937546"><stop offset="0"/><stop offset="1" stop-opacity="0"/></radialGradient><linearGradient id="i" gradientUnits="userSpaceOnUse" x1="49" x2="49" xlink:href="#b" y1="91" y2="7"/><linearGradient id="j" gradientUnits="userSpaceOnUse" x1="38" x2="38" xlink:href="#b" y1="94" y2="5"/><linearGradient id="k" gradientUnits="userSpaceOnUse" x1="45" x2="45" xlink:href="#b" y1="95" y2="4"/><linearGradient id="l" gradientUnits="userSpaceOnUse" x1="50" x2="50" xlink:href="#b" y1="92" y2="7"/><linearGradient id="m" gradientUnits="userSpaceOnUse" x1="47" x2="47" xlink:href="#b" y1="93" y2="6"/><linearGradient id="n" gradientUnits="userSpaceOnUse" x1="32" x2="32" y1="88" y2="8"><stop offset="0" stop-color="#b3b3b3"/><stop offset="1" stop-color="#e6e6e6"/></linearGradient><linearGradient id="o"><stop offset="0" stop-opacity="0"/><stop offset=".49305555"/><stop offset="1" stop-opacity="0"/></linearGradient><linearGradient id="p" gradientTransform="matrix(.0458673 0 0 1 -271.91178 3045.2778)" gradientUnits="userSpaceOnUse" x1="-17" x2="144" xlink:href="#o" y1="-1194.6378" y2="-1194.6378"/><linearGradient id="q" gradientTransform="matrix(.07453431 0 0 1 -655.73308 2938.2756)" gradientUnits="userSpaceOnUse" x1="-17" x2="144" xlink:href="#o" y1="-1194.6378" y2="-1194.6378"/><linearGradient id="r"><stop offset="0" stop-color="#666"/><stop offset="1" stop-color="#808080"/></linearGradient><linearGradient id="s"><stop offset="0" stop-color="#e9b913" stop-opacity="0"/><stop offset=".49305555" stop-color="#fc5c00"/><stop offset="1" stop-color="#e9b913" stop-opacity="0"/></linearGradient><linearGradient id="t"><stop offset="0"/><stop offset=".45461464" stop-opacity=".360784"/><stop offset="1" stop-opacity="0"/></linearGradient><linearGradient id="u" gradientUnits="userSpaceOnUse" x1="39" x2="39" y1="6" y2="90"><stop offset="0" stop-color="#666"/><stop offset="1" stop-color="#333"/></linearGradient><linearGradient id="v" gradientTransform="matrix(.21153848 0 0 .57433434 34.320669 746.67429)" gradientUnits="userSpaceOnUse" x1="-17" x2="144" xlink:href="#s" y1="-1194.6378" y2="-1194.6378"/><linearGradient id="w" gradientTransform="matrix(3.5629072 0 0 3.691221 -13193.227 -2517.9543)" gradientUnits="userSpaceOnUse" x1="3714.3459" x2="3716.3184" xlink:href="#r" y1="694.7356" y2="693.65112"/><linearGradient id="x" gradientTransform="matrix(.29977577 0 0 .31019354 -1070.162 533.80922)" gradientUnits="userSpaceOnUse" x1="3682" x2="3682" y1="-1515.0027" y2="-1494.8434"><stop offset="0" stop-color="#fefefe"/><stop offset="1" stop-color="#f2f2f2"/></linearGradient><linearGradient id="y" gradientTransform="matrix(.56251617 0 0 .56969757 -2015.8204 675.33326)" gradientUnits="userSpaceOnUse" x1="3658.22" x2="3658.22" y1="-1076.6246" y2="-1117.8441"><stop offset="0" stop-color="#fff6dd"/><stop offset="1" stop-color="#fef8f4"/></linearGradient><linearGradient id="z" gradientTransform="matrix(.31229049 0 0 .33247908 -1116.8437 568.82709)" gradientUnits="userSpaceOnUse" x1="3793.25" x2="3793.25" y1="-1603.6466" y2="-1561.3872"><stop offset="0" stop-color="#ccc"/><stop offset="1" stop-color="#b3b3b3"/></linearGradient><linearGradient id="A" gradientTransform="matrix(.51247495 0 0 .15627232 -375.30371 305.13979)" gradientUnits="userSpaceOnUse" x1="815.12506" x2="815.12506" y1="-1491.6379" y2="-1543.6378"><stop offset="0" stop-color="#727272"/><stop offset="1" stop-color="#b3b3b3"/></linearGradient><linearGradient id="B" gradientUnits="userSpaceOnUse" x1="3669.4517" x2="3669.4517" y1="-1068.8184" y2="-1073.573"><stop offset="0"/><stop offset="1" stop-color="#4d4d4d"/></linearGradient><linearGradient id="C" gradientTransform="matrix(.14814057 0 0 .94770695 40.641692 1065.1696)" gradientUnits="userSpaceOnUse" x1="-17" x2="144" xlink:href="#o" y1="-1194.6378" y2="-1194.6378"/><linearGradient id="D" gradientTransform="matrix(.22428004 0 0 .99682809 -62.090751 1152.8043)" gradientUnits="userSpaceOnUse" x1="-17" x2="144" xlink:href="#o" y1="-1194.6378" y2="-1194.6378"/><linearGradient id="E" gradientTransform="matrix(.14814057 0 0 .89058472 40.641692 1033.9859)" gradientUnits="userSpaceOnUse" x1="-17" x2="144" xlink:href="#o" y1="-1194.6378" y2="-1194.6378"/><linearGradient id="F" gradientTransform="matrix(.73994153 0 0 1.8392093 -360.4881 2946.1281)" gradientUnits="userSpaceOnUse" x1="529.25" x2="535" y1="-1568.6378" y2="-1574.6378"><stop offset="0" stop-color="#fc5c00"/><stop offset="1" stop-color="#ccc" stop-opacity="0"/></linearGradient><linearGradient id="G" gradientUnits="userSpaceOnUse" x1="56.432682" x2="56.432682" xlink:href="#r" y1="47.864666" y2="53.382614"/><linearGradient id="H" gradientTransform="matrix(.03853336 0 0 .99757422 64.633892 1161.7274)" gradientUnits="userSpaceOnUse" x1="-17" x2="144" xlink:href="#o" y1="-1194.6378" y2="-1194.6378"/><linearGradient id="I" gradientTransform="matrix(.04028432 0 0 .98789767 64.380975 1113.1813)" gradientUnits="userSpaceOnUse" x1="-17" x2="144" xlink:href="#o" y1="-1194.6378" y2="-1194.6378"/><linearGradient id="J" gradientTransform="matrix(.1079434 0 0 .05787124 -47.38225 138.02462)" gradientUnits="userSpaceOnUse" x1="152" x2="113.88176" xlink:href="#t" y1="-1192.6378" y2="-1230.7561"/><linearGradient id="K" gradientTransform="matrix(.10751494 0 0 .0582314 48.540145 138.48369)" gradientUnits="userSpaceOnUse" x1="152" x2="113.88176" xlink:href="#t" y1="-1192.6378" y2="-1230.7561"/><linearGradient id="L" gradientTransform="matrix(.13562347 0 0 .42084429 41.399961 471.44968)" gradientUnits="userSpaceOnUse" x1="-17" x2="144" xlink:href="#s" y1="-1194.6378" y2="-1194.6378"/><g><path d="m55.1875 4.03125c-1.586892.01273-3.134804.183481-4.5.0625a.86417393.86417393 0 0 0 -.0625 0h-38.9375c-3.4158415.013813-6.214489 2.0686081-7.90625 4.75-1.1702855 1.854869-1.9220747 4.098647-1.65625 6.4375h-.03125c.020721 23.544327-.041587 47.076235.03125 70.625a.86417393.86417393 0 0 0 0 .0625c.1299115 1.45786.6427828 2.791243 1.34375 3.96875.0000685.000154-.021457-.07213-.03125-.125.029603.08798.0497.149646.0625.1875.00647.01101.022369.01648.03125.03125.00759.01244.023609.01885.03125.03125a.86417393.86417393 0 0 0 .0625.09375c.01166.01455.021588.02031.03125.03125.0058.0066-.00442.02694 0 .03125.00352.0055.027722-.0055.03125 0a.86417393.86417393 0 0 0 .03125.03125c.011239.009.021767.02426.03125.03125 1.9389671 2.960312 5.3597779 4.946004 9.03125 4.625.03167-.0028.06205.0031.09375 0 24.003862-.02052 48.023104.04148 72.03125-.03125a.86417393.86417393 0 0 0 .0625 0c5.232692-.424353 9.363638-5.348882 8.9375-10.625-.0026-.03164.0029-.06208 0-.09375v-43.8125a.86417393.86417393 0 0 0 -.0625-.25c-.719482-2.375756-2.289701-4.166643-3.96875-5.75-.0898-.08468-.159649-.16622-.25-.25 2.217943-.09 4.345545-1.878609 4.25-4.3125-.00096-.02446.03266-.03792.03125-.0625-.07568-5.673939.162469-11.414428-.125-17.15625a.86417393.86417393 0 0 0 -.03125-.0625c-.679074-5.3493381-6.008019-9.0551398-11.28125-8.375v-.03125h-14.875a.86417393.86417393 0 0 0 -.03125 0c-2.43157.09487-3.933975 2.3671886-3.875 4.5625-1.182961-1.1519916-2.340863-2.3245745-3.53125-3.46875a.86417393.86417393 0 0 0 -.15625-.125c-1.552382-.8907066-3.231429-1.043933-4.8125-1.03125zm-51.75 85.34375c-.011805.08495-.021775.15025-.03125.21875-.00282-.01512.0000031-.06256 0-.0625-.0000092.000178.00988-.07797.03125-.15625z" fill="url(#k)" opacity=".08"/><path d="m11.6875 4.96875c-5.2554262.0212519-9.3843932 5.163803-8.71875 10.297893.0207228 23.546358-.0415773 47.094147.03125 70.639607.4299704 4.825107 5.0025873 8.594459 9.794564 8.125 24.03705-.02076 48.075533.04156 72.111686-.03125 4.755149-.385626 8.563194-4.946912 8.125-9.759986 0-14.632088 0-29.264176 0-43.896264-1.303245-4.303363-5.828831-6.639817-8.590969-10.024693-8.302036-8.151321-16.487881-16.431046-24.873486-24.4911184-2.705711-1.5524499-5.956171-.5955422-8.931258-.8591886-12.982679 0-25.965358 0-38.948037 0zm55.90625 0c-2.759174.107652-4.215938 3.9181439-2.21875 5.8125 7.428816 7.284428 14.759202 14.709293 22.25 21.90625 2.146989 1.600781 5.560459-.220208 5.40625-2.90625-.0787-5.72616.160862-11.477784-.125-17.1875-.617749-4.866259-5.593014-8.3130421-10.426221-7.625-4.962093 0-9.924186 0-14.886279 0zm-62.96875 4.25c-.664712.7015826-.2455996-.1311819 0 0zm-.375 80.34375c.89304.481702.1043481.183981 0 0z" fill="url(#j)" opacity=".1"/><path d="m11.71875 6.03125c-4.6749288.016024-8.335913 4.649594-7.6875 9.205357.020755 23.525099-.041623 47.051796.03125 70.575893.078659 2.310955 1.9991295 4.959021 3.5 5.8125 3.325107 2.20027 7.499502 1.059932 11.244643 1.34375 22.001587-.02075 44.00477.04153 66.005357-.03125 4.47154-.328201 7.729294-4.802826 7.15625-9.174107 0-14.431548 0-28.863095 0-43.294643-1.433307-3.954961-5.659416-6.191568-8.277839-9.399069-8.251175-8.114984-16.412923-16.329029-24.730859-24.3711885-2.483609-1.2572923-5.416278-.4289814-8.111839-.6672425-13.043154 0-26.086309 0-39.129463 0zm55.96875 0c-2.205191.1075388-2.966283 3.2728052-1.116957 4.441476 7.239865 7.096549 14.373212 14.326121 21.679457 21.339774 1.836491 1.323197 4.248482-.713747 3.71875-2.773214-.09408-5.54138.194785-11.109384-.15625-16.633036-.734258-4.2396168-5.146244-6.9445556-9.296429-6.375-4.942857 0-9.885714 0-14.828571 0z" fill="url(#m)" opacity=".2"/><path d="m11.75 7c-4.166976.0345334-7.3503459 4.168998-6.75 8.209199.0208047 23.502958-.0417012 47.007726.03125 70.509551.3052061 3.977627 4.3015194 6.815319 8.169789 6.28125 23.839012-.020761 47.67983.041565 71.517711-.03125 3.994836-.299314 6.810237-4.315761 6.28125-8.177949 0-14.409435.000001-28.818867 0-43.228301-1.613047-3.595214-5.487793-5.779049-7.996012-8.804747-8.204439-8.081322-16.343506-16.235423-24.599756-24.2602515-2.300271-.9853918-4.95833-.2881995-7.418979-.4975015-13.078418 0-26.156835 0-39.235253 0zm56.03125 0c-1.584.1218738-1.65926 2.3105912-.359006 2.9475286 7.164444 7.0242754 14.225294 14.1753034 21.454221 21.1206914 1.3987.747222 2.54336-.938528 2.123535-2.22308-.094791-5.413718.196057-10.85784-.15625-16.25139-.632604-3.7950602-4.62029-6.1149779-8.294789-5.59375-4.922571 0-9.845141 0-14.767711 0z" fill="url(#l)" opacity=".3"/><path d="m12 7c-3.324 0-6 2.676-6 6v11 50 11c0 3.324 2.676 6 6 6h7 65c3.324 0 6-2.676 6-6v-.71875-10.28125-33.5625c.0048-.09367.0048-.187581 0-.28125-.06619-.633386-.358634-1.240774-.8125-1.6875-9.535501-9.568715-21.104142-21.104142-30.65625-30.65625-.454532-.4602109-1.074627-.7533469-1.71875-.8125h-44.09375zm55.3125 0a1.4099078 1.4099078 0 0 0 -.84375 2.40625l21.125 21.125a1.4099078 1.4099078 0 0 0 2.40625-.90625 1.4099078 1.4099078 0 0 0 0-.09375v-12.53125-3.71875-.28125c0-3.324-2.676-6-6-6z" fill="url(#i)" opacity=".45"/></g><g><path d="m12 6c-3.324 0-6 2.676-6 6v11 50 11c0 3.324 2.676 6 6 6h7 65c3.324 0 6-2.676 6-6v-.71875-10.28125-33.5625c.0048-.09367.0048-.187581 0-.28125-.06619-.633386-.358634-1.240774-.8125-1.6875-9.535501-9.568715-21.104142-21.104142-30.65625-30.65625-.454532-.4602109-1.074627-.7533469-1.71875-.8125h-44.09375zm55.3125 0a1.4099078 1.4099078 0 0 0 -.84375 2.40625l21.125 21.125a1.4099078 1.4099078 0 0 0 2.40625-.90625 1.4099078 1.4099078 0 0 0 0-.09375v-12.53125-3.71875-.28125c0-3.324-2.676-6-6-6z" fill="url(#u)"/><path d="m10.15625 6.34375c-.301527.096803-.596455.204138-.875.34375-.55709.279224-1.060053.665694-1.5 1.09375-.219974.214028-.409366.441865-.59375.6875s-.355408.507743-.5.78125c-.113805.2152707-.221817.4301347-.3125.65625-.02097.052285-.04393.102205-.0625.15625-.01036.03015-.02135.06337-.03125.09375-.006.01873.0058.04369 0 .0625-.02154.07131-.04532.145178-.0625.21875-.04593.196664-.09198.393321-.125.59375-.0524.31805-.09375.634029-.09375.96875v2 9 50 9 2c0 3.324 2.676 6 6 6h7 65c3.324 0 6-2.676 6-6v-.71875-1.28125-9-35.5625a2.772031 2.772031 0 0 0 0-.28125 2.772031 2.772031 0 0 0 -.8125-1.6875l-.1875-.1875v45.71875 2c0 2.781848-2.218152 5-5 5h-2-68-2c-2.781848 0-5-2.218152-5-5v-2-68-2c0-.364295.05212-.720988.125-1.0625.02336-.109469.06342-.205882.09375-.3125.0267-.094419.03068-.1893.0625-.28125.0077-.02195.02325-.04069.03125-.0625.07558-.209299.180242-.430294.28125-.625.05727-.107983.12274-.209468.1875-.3125.02405-.03913.03741-.08662.0625-.125.09411-.140965.204921-.275995.3125-.40625.15254-.185862.32207-.369817.5-.53125.09922-.088888.206327-.1692.3125-.25.112727-.086487.223355-.1733.34375-.25.03146-.01999.06182-.0432.09375-.0625.0074-.0045.02385.0044.03125 0 .232039-.138728.462548-.274778.71875-.375z" fill="url(#d)" opacity=".15"/><rect fill="url(#c)" height="84" rx="6" width="84" x="106" y="6"/><path d="m114 6 26 26v4l-30-30z" fill="#f0f"/><path d="m67.3125 6a1.4099078 1.4099078 0 0 0 -1.125 2h15.8125 2c2.781848 0 5 2.218152 5 5v2 14.875a1.4099078 1.4099078 0 0 0 1-1.125 1.4099078 1.4099078 0 0 0 0-.125 1.4099078 1.4099078 0 0 0 0-.09375v-12.53125-2-1.71875-.28125c0-3.324-2.676-6-6-6z" fill="url(#e)" opacity=".2"/><path d="m12 6c-3.324 0-6 2.676-6 6v11 50 11c0 2.9085 2.042227 5.31735 4.78125 5.875-2.205116-.53621-3.8125-2.49084-3.8125-4.875v-11-50-11c0-2.80489 2.22636-5.03125 5.03125-5.03125h.71875 44 .09375c.01105.0018.01709.02303.0625.03125.107322.01943.05104.0025.15625.03125.105213.02873.05395-.0066.15625.03125.1023.03782.05765.01589.15625.0625s.03085.0074.125.0625c.09415.05505.03602.03068.125.09375s.04187.02315.125.09375.04836.0474.125.125c9.568715 9.535501 21.104142 21.104142 30.65625 30.65625.07653.07532.05524.04337.125.125s.03127.03767.09375.125.0078.03262.0625.125c.05473.09238.04717.02825.09375.125s.02441.05585.0625.15625c.03809.100399.0019.0217.03125.125.02931.103304.01094.05081.03125.15625.0164.08517.02694.08025.03125.125.0011.02106-.000344.02472 0 .03125.000689.01307 0 .02033 0 .0625 0 .06326.0032-.000676 0 .0625-.000673.02083-.000673.04167 0 .0625v33.5625 10.28125.71875c0 2.38416-1.607383 4.33879-3.8125 4.875 2.739023-.55765 4.78125-2.9665 4.78125-5.875v-.71875-10.28125-33.5625c.0048-.09367.0048-.187581 0-.28125-.06619-.633386-.358634-1.240774-.8125-1.6875-9.535501-9.568715-21.104142-21.104142-30.65625-30.65625-.454532-.4602109-1.074627-.7533469-1.71875-.8125h-44.09375z" fill="url(#f)" opacity=".2"/></g><g><path d="m14 12.03125c-1.155927 0-1.96875.812823-1.96875 1.96875v9 33 17 8.28125.71875c0 1.077732.717552 1.836973 1.75 1.9375.07491.0073.140555.03125.21875.03125h5 58 5c.07224 0 .1493-.0086.21875-.03125 1.032448-.100527 1.75-.859768 1.75-1.9375v-.71875-8.28125-17-16.0625c-9.316072-9.28832-18.604243-18.604243-27.90625-27.90625h-41.34375z" fill="url(#n)"/><path d="m17.90625 17.0625c-.459951.04302-.84925.475575-.84375.9375v9 42 9c-.0037.491884.445616.941233.9375.9375h5 55c.491884.0037.941233-.445616.9375-.9375v-9-27.40625c-.0027-.244241-.10626-.48584-.28125-.65625l-23.59375-23.59375c-.17041-.17499-.412009-.278532-.65625-.28125h-36.40625c-.03122-.0016-.06253-.0016-.09375 0z" fill="url(#h)" opacity=".6"/><path d="m18 18v9 42 9h5 55v-9-27.40625l-23.59375-23.59375z" fill="url(#g)"/><path d="m18 18v9 42 9h5 55v-9-27.40625l-23.59375-23.59375zm1 1h35.03125l22.96875 22.96875v27.03125 8h-54-4v-8-42z" fill="#fefefe" opacity=".7"/><path d="m14 12.03125c-1.155927 0-1.96875.812823-1.96875 1.96875v9 33 17 8.28125.71875c0 1.077732.717552 1.836973 1.75 1.9375.07491.0073.140555.03125.21875.03125h5 58 5c.07224 0 .1493-.0086.21875-.03125 1.032448-.100527 1.75-.859768 1.75-1.9375v-.71875-8.28125-17-16.0625c-9.316072-9.28832-18.604243-18.604243-27.90625-27.90625h-41.34375zm0 .96875h.71875 40.9375c9.113593 9.114133 18.214692 18.240801 27.34375 27.34375v15.65625 17 8.28125.71875c0 .648416-.267049.909555-.875.96875a.96731774.96731774 0 0 0 -.125.03125h-5-58-5c.119302 0 .09888-.0094-.125-.03125-.607951-.059195-.875-.320334-.875-.96875v-.71875-8.28125-17-33-9c0-.702508.297492-1 1-1z" opacity=".1"/><path d="m14 12.03125c-1.155927 0-1.96875.812823-1.96875 1.96875v1c0-1.155927.812823-1.96875 1.96875-1.96875h.71875 41.34375c9.302007 9.302007 18.590178 18.61793 27.90625 27.90625v-1c-9.316072-9.28832-18.604243-18.604243-27.90625-27.90625h-41.34375z" opacity=".2"/><path d="m14 12.03125c-1.155927 0-1.96875.812823-1.96875 1.96875v9 33 17 8.28125.71875c0 1.077732.717552 1.836973 1.75 1.9375.07491.0073.140555.03125.21875.03125h5 58 5c.07224 0 .1493-.0086.21875-.03125 1.032448-.100527 1.75-.859768 1.75-1.9375v-.71875-8.28125-17-16.0625c-9.316072-9.28832-18.604243-18.604243-27.90625-27.90625h-41.34375z" fill="url(#n)"/><path d="m17.90625 17.0625c-.459951.04302-.84925.475575-.84375.9375v9 42 9c-.0037.491884.445616.941233.9375.9375h5 55c.491884.0037.941233-.445616.9375-.9375v-9-27.40625c-.0027-.244241-.10626-.48584-.28125-.65625l-23.59375-23.59375c-.17041-.17499-.412009-.278532-.65625-.28125h-36.40625c-.03122-.0016-.06253-.0016-.09375 0z" fill="url(#h)" opacity=".6"/><path d="m18 18v9 42 9h5 55v-9-27.40625l-23.59375-23.59375z" fill="url(#g)"/><path d="m18 18v9 42 9h5 55v-9-27.40625l-23.59375-23.59375zm1 1h35.03125l22.96875 22.96875v27.03125 8h-54-4v-8-42z" fill="#fefefe" opacity=".7"/><path d="m14 12.03125c-1.155927 0-1.96875.812823-1.96875 1.96875v9 33 17 8.28125.71875c0 1.077732.717552 1.836973 1.75 1.9375.07491.0073.140555.03125.21875.03125h5 58 5c.07224 0 .1493-.0086.21875-.03125 1.032448-.100527 1.75-.859768 1.75-1.9375v-.71875-8.28125-17-16.0625c-9.316072-9.28832-18.604243-18.604243-27.90625-27.90625h-41.34375zm0 .96875h.71875 40.9375c9.113593 9.114133 18.214692 18.240801 27.34375 27.34375v15.65625 17 8.28125.71875c0 .648416-.267049.909555-.875.96875a.96731774.96731774 0 0 0 -.125.03125h-5-58-5c.119302 0 .09888-.0094-.125-.03125-.607951-.059195-.875-.320334-.875-.96875v-.71875-8.28125-17-33-9c0-.702508.297492-1 1-1z" opacity=".1"/><path d="m14 12.03125c-1.155927 0-1.96875.812823-1.96875 1.96875v1c0-1.155927.812823-1.96875 1.96875-1.96875h.71875 41.34375c9.302007 9.302007 18.590178 18.61793 27.90625 27.90625v-1c-9.316072-9.28832-18.604243-18.604243-27.90625-27.90625h-41.34375z" opacity=".2"/><path d="m14 12.03125c-1.155927 0-1.96875.812823-1.96875 1.96875v9 33 17 8.28125.71875c0 1.077732.717552 1.836973 1.75 1.9375.07491.0073.140555.03125.21875.03125h5 58 5c.07224 0 .1493-.0086.21875-.03125 1.032448-.100527 1.75-.859768 1.75-1.9375v-.71875-8.28125-17-16.0625c-9.316072-9.28832-18.604243-18.604243-27.90625-27.90625h-41.34375z" fill="url(#n)"/><path d="m17.90625 17.0625c-.459951.04302-.84925.475575-.84375.9375v9 42 9c-.0037.491884.445616.941233.9375.9375h5 55c.491884.0037.941233-.445616.9375-.9375v-9-27.40625c-.0027-.244241-.10626-.48584-.28125-.65625l-23.59375-23.59375c-.17041-.17499-.412009-.278532-.65625-.28125h-36.40625c-.03122-.0016-.06253-.0016-.09375 0z" fill="url(#h)" opacity=".6"/><path d="m18 18v9 42 9h5 55v-9-27.40625l-23.59375-23.59375z" fill="url(#g)"/><path d="m18 18v9 42 9h5 55v-9-27.40625l-23.59375-23.59375zm1 1h35.03125l22.96875 22.96875v27.03125 8h-54-4v-8-42z" fill="#fefefe" opacity=".7"/><path d="m14 12.03125c-1.155927 0-1.96875.812823-1.96875 1.96875v9 33 17 8.28125.71875c0 1.077732.717552 1.836973 1.75 1.9375.07491.0073.140555.03125.21875.03125h5 58 5c.07224 0 .1493-.0086.21875-.03125 1.032448-.100527 1.75-.859768 1.75-1.9375v-.71875-8.28125-17-16.0625c-9.316072-9.28832-18.604243-18.604243-27.90625-27.90625h-41.34375zm0 .96875h.71875 40.9375c9.113593 9.114133 18.214692 18.240801 27.34375 27.34375v15.65625 17 8.28125.71875c0 .648416-.267049.909555-.875.96875a.96731774.96731774 0 0 0 -.125.03125h-5-58-5c.119302 0 .09888-.0094-.125-.03125-.607951-.059195-.875-.320334-.875-.96875v-.71875-8.28125-17-33-9c0-.702508.297492-1 1-1z" opacity=".1"/><path d="m14 12.03125c-1.155927 0-1.96875.812823-1.96875 1.96875v1c0-1.155927.812823-1.96875 1.96875-1.96875h.71875 41.34375c9.302007 9.302007 18.590178 18.61793 27.90625 27.90625v-1c-9.316072-9.28832-18.604243-18.604243-27.90625-27.90625h-41.34375z" opacity=".2"/></g><g><path d="m-657 1743.6378h12v1.000016h-12z" fill="url(#q)" opacity=".5"/><path d="m-272.69141 1850.64h7.38462v1.000016h-7.38462z" fill="url(#p)" opacity=".5" transform="rotate(90)"/><path d="m28.013208 63.911739h39.97311v9.132342h-39.97311z" opacity=".15"/><path d="m28.013208 63.286648h39.97311v8.751247h-39.97311z" fill="url(#A)"/><path d="m28.013208 35.983532h39.97311v27.928196h-39.97311z" fill="url(#z)"/><rect fill="url(#y)" height="23.927334" rx=".29509" ry=".306761" width="36.001038" x="30.050375" y="38.047123"/><rect id="M" fill="url(#F)" height="22.070522" opacity=".25" rx=".591953" ry=".580803" width="8.879298" x="30.940975" y="39.002598"/><path d="m30.013775 63.977425h35.972977v6.20387h-35.972977z" fill="url(#x)"/><g fill="#fefefe" transform="matrix(.530096 0 0 .50688905 -1896.8845 608.8097)"><path d="m3655.2528-1071.3549v.7704c-.2254-.1313-.4523-.2297-.6805-.2953-.2283-.066-.4608-.099-.6977-.099-.3566 0-.6234.059-.8003.1755-.1741.1141-.2611.2896-.2611.5264 0 .214.066.3738.1969.4794.1312.1056.4579.2083.9801.3082l.3167.06c.3909.074.6862.2225.886.4451.2025.2225.3038.5122.3038.8688 0 .4737-.1683.8446-.505 1.1128-.3367.2654-.8046.398-1.4038.398-.2369 0-.4851-.026-.7447-.077-.2597-.049-.5407-.1227-.8432-.2225v-.8132c.2939.1512.575.2653.8432.3424.2682.074.5221.1112.7618.1112.3481 0 .6177-.07.8089-.2097.1912-.1426.2868-.341.2868-.5949 0-.3652-.3496-.6177-1.0486-.7576l-.034-.01-.2953-.06c-.4537-.089-.7846-.2369-.9929-.4451-.2083-.2112-.3125-.4979-.3125-.8603 0-.4594.1555-.8132.4665-1.0614.3111-.2511.7547-.3767 1.3311-.3767.2568 0 .5036.024.7404.073.2369.046.4694.1155.6977.2097"/><path d="m3657.8135-1069.1036c0 .6106.096 1.0714.2867 1.3824.1941.311.4808.4665.8603.4665s.6663-.1555.8603-.4665c.1969-.3139.2953-.7747.2953-1.3824 0-.6078-.098-1.0672-.2953-1.3782-.194-.3139-.4808-.4708-.8603-.4708s-.6662.1555-.8603.4665c-.1911.311-.2867.7718-.2867 1.3825m2.3026 1.7804c-.1284.2368-.3024.4195-.5222.5478-.2168.1256-.4693.1884-.7575.1884-.5735 0-1.0272-.2212-1.361-.6634-.331-.4451-.4965-1.0572-.4965-1.8361 0-.7932.1655-1.4138.4965-1.8618s.7846-.672 1.361-.672c.2853 0 .5364.063.7533.1884.2197.1226.3951.3024.5264.5392v-.612h.7918v6.6168h-.7918z"/><path d="m3666.5463-1070.4394c-.1683-.1313-.3395-.2268-.5136-.2868-.174-.06-.3652-.09-.5735-.09-.4908 0-.866.154-1.1256.4622-.2597.3082-.3895.7533-.3895 1.3353v2.384h-.7918v-4.7936h.7918v.9373c.1312-.3395.3324-.5992.6035-.7789.2739-.1826.5977-.2739.9715-.2739.194 0 .3752.024.5436.073.1683.049.3295.1241.4836.2269v.8046"/><path d="m3669.8788-1072.7579v1.3611h1.789v.612h-1.789v2.6022c0 .3538.067.6006.2011.7405.1341.1398.3681.2097.7019.2097h.886v.6291h-.963c-.5906 0-1.0072-.1184-1.2498-.3552-.2425-.2368-.3638-.6449-.3638-1.2241v-2.6022h-1.2797v-.612h1.2797v-1.3611z"/><path d="m3677.1676-1066.1651v.6163h-.2739c-.7105 0-1.187-.1055-1.4295-.3167-.2397-.2111-.3596-.632-.3595-1.2626v-1.0229c-.0001-.4308-.077-.729-.2312-.8945-.1512-.1655-.4265-.2482-.826-.2482h-.2654v-.6121h.2654c.4023 0 .6791-.081.8303-.2439.1512-.1627.2268-.458.2269-.886v-1.0272c-.0001-.6305.1198-1.05.3595-1.2583.2425-.2111.719-.3167 1.4295-.3167h.2739v.612h-.2996c-.3995.0001-.6606.063-.7832.1884-.1199.1227-.1798.3866-.1798.7918v1.0614c0 .448-.066.7732-.1969.9758-.1284.2026-.3495.3396-.6634.4109.3167.077.5393.2168.6677.4194s.1926.5265.1926.9716v1.0614c0 .408.06.6734.1798.7961.1226.1227.3837.184.7832.184z"/><path d="m3682.5192-1071.5218-1.7163 2.294 1.8832 2.4995h-.9116l-1.4039-1.9217-1.3995 1.9217h-.9116l1.8831-2.4995-1.7162-2.294h.8731l1.2711 1.7334 1.2626-1.7334z"/><path d="m3683.8592-1066.1651h.291c.4024 0 .6649-.063.7876-.1883.1227-.1255.184-.3895.184-.7918v-1.0614c0-.4451.064-.769.1926-.9716.1284-.2026.351-.3424.6677-.4194-.3139-.071-.5365-.2083-.6677-.4109-.1284-.2026-.1926-.5278-.1926-.9758v-1.0614c0-.4024-.061-.6663-.184-.7918-.1227-.1256-.3852-.1883-.7876-.1884h-.291v-.612h.2654c.7104 0 1.1855.1056 1.4252.3167.2397.2083.3595.6278.3595 1.2583v1.0272c0 .428.076.7233.2269.886.154.1626.4322.2439.8345.2439h.274v.6121h-.274c-.4023 0-.6805.083-.8345.2482-.1513.1655-.2269.4637-.2269.8945v1.0229c0 .6306-.1198 1.0515-.3595 1.2626-.2397.2112-.7148.3167-1.4252.3167h-.2654z"/></g><g opacity=".15" transform="matrix(.530096 0 0 .50688905 -1896.8845 609.57005)"><path d="m3655.2528-1071.3549v.7704c-.2254-.1313-.4523-.2297-.6805-.2953-.2283-.066-.4608-.099-.6977-.099-.3566 0-.6234.059-.8003.1755-.1741.1141-.2611.2896-.2611.5264 0 .214.066.3738.1969.4794.1312.1056.4579.2083.9801.3082l.3167.06c.3909.074.6862.2225.886.4451.2025.2225.3038.5122.3038.8688 0 .4737-.1683.8446-.505 1.1128-.3367.2654-.8046.398-1.4038.398-.2369 0-.4851-.026-.7447-.077-.2597-.049-.5407-.1227-.8432-.2225v-.8132c.2939.1512.575.2653.8432.3424.2682.074.5221.1112.7618.1112.3481 0 .6177-.07.8089-.2097.1912-.1426.2868-.341.2868-.5949 0-.3652-.3496-.6177-1.0486-.7576l-.034-.01-.2953-.06c-.4537-.089-.7846-.2369-.9929-.4451-.2083-.2112-.3125-.4979-.3125-.8603 0-.4594.1555-.8132.4665-1.0614.3111-.2511.7547-.3767 1.3311-.3767.2568 0 .5036.024.7404.073.2369.046.4694.1155.6977.2097"/><path d="m3657.8135-1069.1036c0 .6106.096 1.0714.2867 1.3824.1941.311.4808.4665.8603.4665s.6663-.1555.8603-.4665c.1969-.3139.2953-.7747.2953-1.3824 0-.6078-.098-1.0672-.2953-1.3782-.194-.3139-.4808-.4708-.8603-.4708s-.6662.1555-.8603.4665c-.1911.311-.2867.7718-.2867 1.3825m2.3026 1.7804c-.1284.2368-.3024.4195-.5222.5478-.2168.1256-.4693.1884-.7575.1884-.5735 0-1.0272-.2212-1.361-.6634-.331-.4451-.4965-1.0572-.4965-1.8361 0-.7932.1655-1.4138.4965-1.8618s.7846-.672 1.361-.672c.2853 0 .5364.063.7533.1884.2197.1226.3951.3024.5264.5392v-.612h.7918v6.6168h-.7918z"/><path d="m3666.5463-1070.4394c-.1683-.1313-.3395-.2268-.5136-.2868-.174-.06-.3652-.09-.5735-.09-.4908 0-.866.154-1.1256.4622-.2597.3082-.3895.7533-.3895 1.3353v2.384h-.7918v-4.7936h.7918v.9373c.1312-.3395.3324-.5992.6035-.7789.2739-.1826.5977-.2739.9715-.2739.194 0 .3752.024.5436.073.1683.049.3295.1241.4836.2269v.8046"/><path d="m3669.8788-1072.7579v1.3611h1.789v.612h-1.789v2.6022c0 .3538.067.6006.2011.7405.1341.1398.3681.2097.7019.2097h.886v.6291h-.963c-.5906 0-1.0072-.1184-1.2498-.3552-.2425-.2368-.3638-.6449-.3638-1.2241v-2.6022h-1.2797v-.612h1.2797v-1.3611z"/><path d="m3677.1676-1066.1651v.6163h-.2739c-.7105 0-1.187-.1055-1.4295-.3167-.2397-.2111-.3596-.632-.3595-1.2626v-1.0229c-.0001-.4308-.077-.729-.2312-.8945-.1512-.1655-.4265-.2482-.826-.2482h-.2654v-.6121h.2654c.4023 0 .6791-.081.8303-.2439.1512-.1627.2268-.458.2269-.886v-1.0272c-.0001-.6305.1198-1.05.3595-1.2583.2425-.2111.719-.3167 1.4295-.3167h.2739v.612h-.2996c-.3995.0001-.6606.063-.7832.1884-.1199.1227-.1798.3866-.1798.7918v1.0614c0 .448-.066.7732-.1969.9758-.1284.2026-.3495.3396-.6634.4109.3167.077.5393.2168.6677.4194s.1926.5265.1926.9716v1.0614c0 .408.06.6734.1798.7961.1226.1227.3837.184.7832.184z"/><path d="m3682.5192-1071.5218-1.7163 2.294 1.8832 2.4995h-.9116l-1.4039-1.9217-1.3995 1.9217h-.9116l1.8831-2.4995-1.7162-2.294h.8731l1.2711 1.7334 1.2626-1.7334z"/><path d="m3683.8592-1066.1651h.291c.4024 0 .6649-.063.7876-.1883.1227-.1255.184-.3895.184-.7918v-1.0614c0-.4451.064-.769.1926-.9716.1284-.2026.351-.3424.6677-.4194-.3139-.071-.5365-.2083-.6677-.4109-.1284-.2026-.1926-.5278-.1926-.9758v-1.0614c0-.4024-.061-.6663-.184-.7918-.1227-.1256-.3852-.1883-.7876-.1884h-.291v-.612h.2654c.7104 0 1.1855.1056 1.4252.3167.2397.2083.3595.6278.3595 1.2583v1.0272c0 .428.076.7233.2269.886.154.1626.4322.2439.8345.2439h.274v.6121h-.274c-.4023 0-.6805.083-.8345.2482-.1513.1655-.2269.4637-.2269.8945v1.0229c0 .6306-.1198 1.0515-.3595 1.2626-.2397.2112-.7148.3167-1.4252.3167h-.2654z"/></g><g fill="url(#B)" opacity=".9" transform="matrix(.530096 0 0 .50688905 -1896.8845 609.06315)"><path d="m3655.2528-1071.3549v.7704c-.2254-.1313-.4523-.2297-.6805-.2953-.2283-.066-.4608-.099-.6977-.099-.3566 0-.6234.059-.8003.1755-.1741.1141-.2611.2896-.2611.5264 0 .214.066.3738.1969.4794.1312.1056.4579.2083.9801.3082l.3167.06c.3909.074.6862.2225.886.4451.2025.2225.3038.5122.3038.8688 0 .4737-.1683.8446-.505 1.1128-.3367.2654-.8046.398-1.4038.398-.2369 0-.4851-.026-.7447-.077-.2597-.049-.5407-.1227-.8432-.2225v-.8132c.2939.1512.575.2653.8432.3424.2682.074.5221.1112.7618.1112.3481 0 .6177-.07.8089-.2097.1912-.1426.2868-.341.2868-.5949 0-.3652-.3496-.6177-1.0486-.7576l-.034-.01-.2953-.06c-.4537-.089-.7846-.2369-.9929-.4451-.2083-.2112-.3125-.4979-.3125-.8603 0-.4594.1555-.8132.4665-1.0614.3111-.2511.7547-.3767 1.3311-.3767.2568 0 .5036.024.7404.073.2369.046.4694.1155.6977.2097"/><path d="m3657.8135-1069.1036c0 .6106.096 1.0714.2867 1.3824.1941.311.4808.4665.8603.4665s.6663-.1555.8603-.4665c.1969-.3139.2953-.7747.2953-1.3824 0-.6078-.098-1.0672-.2953-1.3782-.194-.3139-.4808-.4708-.8603-.4708s-.6662.1555-.8603.4665c-.1911.311-.2867.7718-.2867 1.3825m2.3026 1.7804c-.1284.2368-.3024.4195-.5222.5478-.2168.1256-.4693.1884-.7575.1884-.5735 0-1.0272-.2212-1.361-.6634-.331-.4451-.4965-1.0572-.4965-1.8361 0-.7932.1655-1.4138.4965-1.8618s.7846-.672 1.361-.672c.2853 0 .5364.063.7533.1884.2197.1226.3951.3024.5264.5392v-.612h.7918v6.6168h-.7918z"/><path d="m3666.5463-1070.4394c-.1683-.1313-.3395-.2268-.5136-.2868-.174-.06-.3652-.09-.5735-.09-.4908 0-.866.154-1.1256.4622-.2597.3082-.3895.7533-.3895 1.3353v2.384h-.7918v-4.7936h.7918v.9373c.1312-.3395.3324-.5992.6035-.7789.2739-.1826.5977-.2739.9715-.2739.194 0 .3752.024.5436.073.1683.049.3295.1241.4836.2269v.8046"/><path d="m3669.8788-1072.7579v1.3611h1.789v.612h-1.789v2.6022c0 .3538.067.6006.2011.7405.1341.1398.3681.2097.7019.2097h.886v.6291h-.963c-.5906 0-1.0072-.1184-1.2498-.3552-.2425-.2368-.3638-.6449-.3638-1.2241v-2.6022h-1.2797v-.612h1.2797v-1.3611z"/><path d="m3677.1676-1066.1651v.6163h-.2739c-.7105 0-1.187-.1055-1.4295-.3167-.2397-.2111-.3596-.632-.3595-1.2626v-1.0229c-.0001-.4308-.077-.729-.2312-.8945-.1512-.1655-.4265-.2482-.826-.2482h-.2654v-.6121h.2654c.4023 0 .6791-.081.8303-.2439.1512-.1627.2268-.458.2269-.886v-1.0272c-.0001-.6305.1198-1.05.3595-1.2583.2425-.2111.719-.3167 1.4295-.3167h.2739v.612h-.2996c-.3995.0001-.6606.063-.7832.1884-.1199.1227-.1798.3866-.1798.7918v1.0614c0 .448-.066.7732-.1969.9758-.1284.2026-.3495.3396-.6634.4109.3167.077.5393.2168.6677.4194s.1926.5265.1926.9716v1.0614c0 .408.06.6734.1798.7961.1226.1227.3837.184.7832.184z"/><path d="m3682.5192-1071.5218-1.7163 2.294 1.8832 2.4995h-.9116l-1.4039-1.9217-1.3995 1.9217h-.9116l1.8831-2.4995-1.7162-2.294h.8731l1.2711 1.7334 1.2626-1.7334z"/><path d="m3683.8592-1066.1651h.291c.4024 0 .6649-.063.7876-.1883.1227-.1255.184-.3895.184-.7918v-1.0614c0-.4451.064-.769.1926-.9716.1284-.2026.351-.3424.6677-.4194-.3139-.071-.5365-.2083-.6677-.4109-.1284-.2026-.1926-.5278-.1926-.9758v-1.0614c0-.4024-.061-.6663-.184-.7918-.1227-.1256-.3852-.1883-.7876-.1884h-.291v-.612h.2654c.7104 0 1.1855.1056 1.4252.3167.2397.2083.3595.6278.3595 1.2583v1.0272c0 .428.076.7233.2269.886.154.1626.4322.2439.8345.2439h.274v.6121h-.274c-.4023 0-.6805.083-.8345.2482-.1513.1655-.2269.4637-.2269.8945v1.0229c0 .6306-.1198 1.0515-.3595 1.2626-.2397.2112-.7148.3167-1.4252.3167h-.2654z"/></g><use height="1085" transform="matrix(-1 0 0 1 95.885558 0)" width="5033" xlink:href="#M"/><path d="m63.23964 38.814345v22.393253m-30.485594-22.393253v22.393253m13.722863-22.393253v22.393253m-15.499995-1.760577h34.039798m-34.039798-12.813382h34.039798m-34.039798-5.982774h34.039798" style="opacity:.25;fill:none;stroke:#f87019;stroke-width:.5;stroke-linecap:square;stroke-dasharray:.5 .5"/><path d="m63.23964 38.814345v22.393253m-30.485594-22.393253v22.393253m13.722863-22.393253v22.393253m-15.499995-1.760577h34.039798m-34.039798-12.813382h34.039798m-34.039798-5.982774h34.039798" style="opacity:.7;fill:none;stroke:#f87019;stroke-width:.5;stroke-linecap:square;stroke-dasharray:.5 1.5"/><use id="N" height="1085" transform="matrix(1 0 0 1.1244111 -.000001 .297046)" width="5033" xlink:href="#Q"/><path d="m30.724751 60.552834h34.057678v.574344h-34.057678z" fill="url(#v)" opacity=".35"/><path id="O" d="m39.093132-31.30776h21.835394v.420851h-21.835394z" fill="url(#L)" opacity=".35" transform="rotate(90)"/><use height="1085" transform="matrix(.90232201 0 0 1.0099025 36.748897 -.441175)" width="5033" xlink:href="#O"/><path id="P" d="m38.123859-29.942263h23.850647v.890599h-23.850647z" fill="url(#E)" opacity=".25" transform="rotate(90)"/><path d="m38.123859-66.999123h23.850647v.947722h-23.850647z" fill="url(#C)" opacity=".25" transform="rotate(90)"/><use id="Q" height="1085" transform="matrix(0 .97573914 -1.5139677 0 123.62096 33.713431)" width="5033" xlink:href="#P"/><use height="1085" opacity=".5" transform="matrix(.94418648 0 0 .902254 2.679498 .447203)" width="5033" xlink:href="#N"/><path d="m56.064816 64.259445h8.816241v4.774984h-8.816241z" fill="url(#K)" opacity=".15"/><path d="m-39.827595 64.259445h8.851375v4.745451h-8.851375z" fill="url(#J)" opacity=".15" transform="scale(-1 1)"/><path d="m-65.902672-38.046494h36.109108v.996844h-36.109108z" fill="url(#D)" opacity=".125" transform="scale(-1)"/><path d="m63.977451-30.013775h6.20387v.99759h-6.20387z" fill="url(#H)" opacity=".2" transform="rotate(90)"/><path d="m63.694706-66.999924h6.485774v.987914h-6.485774z" fill="url(#I)" opacity=".2" transform="rotate(90)"/><path d="m45.619523 39.887734 18.380477.112266v4h-2v-2h-14l-7.621607 17.945944-1.810842.054056-4.837832-9.945944-1.729719-.054056v-2h4l3.32493 7.093863 6.293173-15.206129" fill="url(#w)" opacity=".8"/><path d="m50 46 4.3125 6.9375-4.3125 7.0625h3.3125l2.6875-4.34375 2.6875 4.34375h3.3125l-4.3125-7.0625 4.3125-6.9375-3.5.03125-2.5 4.09375-2.5-4.09375z" fill="url(#G)" opacity=".8"/><path d="m45.625 39.875-6.3125 15.21875-3.3125-7.09375h-4v.53125h4l3.3125 7.09375 6.3125-15.21875 18.375.125v-.53125zm4.375 6.125.34375.53125 3.15625.03125 2.5 4.09375 2.5-4.09375 3.15625-.03125.34375-.53125-3.5.03125-2.5 4.09375-2.5-4.09375zm4.15625 7.21875-4.15625 6.78125h.3125l4-6.53125zm3.6875 0-.15625.25 4 6.53125h.3125z" opacity=".3"/></g></svg>