<svg height="96" width="96" xmlns="http://www.w3.org/2000/svg" xmlns:xlink="http://www.w3.org/1999/xlink"><linearGradient id="a"><stop offset="0" stop-color="#fefefe"/><stop offset="1" stop-color="#fefefe" stop-opacity="0"/></linearGradient><linearGradient id="b" gradientTransform="matrix(1.0058652 0 0 .994169 100 0)" gradientUnits="userSpaceOnUse" x1="45.447727" x2="45.447727" y1="92.539597" y2="7.01654"><stop offset="0"/><stop offset="1" stop-opacity=".588235"/></linearGradient><linearGradient id="c" gradientTransform="matrix(1.0238095 0 0 1.0119048 -1.142857 -98.071429)" gradientUnits="userSpaceOnUse" x1="32.251034" x2="32.251034" xlink:href="#b" y1="6.131708" y2="90.238609"/><linearGradient id="d" gradientTransform="translate(0 -97)" gradientUnits="userSpaceOnUse" x1="32.251034" x2="32.251034" xlink:href="#b" y1="6.131708" y2="90.238609"/><linearGradient id="e" gradientTransform="matrix(1.125 0 0 1 .375 -4.000001)" gradientUnits="userSpaceOnUse" x1="5" x2="21" y1="28" y2="28"><stop offset="0" stop-color="#171717"/><stop offset="1" stop-color="#4d4d4d" stop-opacity="0"/></linearGradient><linearGradient id="f" gradientTransform="matrix(1.125 0 0 1 .375 -10)" gradientUnits="userSpaceOnUse" x1="5" x2="21" y1="27" y2="27"><stop offset="0" stop-color="#919191"/><stop offset="1" stop-color="#919191" stop-opacity="0"/></linearGradient><linearGradient id="g" gradientUnits="userSpaceOnUse" x1="36.357143" x2="36.357143" xlink:href="#a" y1="6" y2="63.893143"/><linearGradient id="h" gradientUnits="userSpaceOnUse" x1="6" x2="12.227473" y1="48.678571" y2="48.678571"><stop offset="0" stop-color="#383838"/><stop offset="1" stop-color="#494949" stop-opacity="0"/></linearGradient><radialGradient id="i" cx="48" cy="90.171875" gradientTransform="matrix(1.1573129 0 0 .99590774 -7.551021 .197132)" gradientUnits="userSpaceOnUse" r="42" xlink:href="#a"/><linearGradient id="j" gradientUnits="userSpaceOnUse" x1="47.7241392" x2="47.7241392" y1="90.448278" y2="4.98750562388"><stop offset="0" stop-color="#f57900"/><stop offset="1" stop-color="#c05f00"/></linearGradient><linearGradient id="k" gradientUnits="userSpaceOnUse" x1="42.841427" x2="63.553715" y1="61.603489" y2="56.404747"><stop offset="0" stop-color="#f0f0f0"/><stop offset="1" stop-color="#8c8c8c"/></linearGradient><radialGradient id="l" cx="56.8125" cy="48" gradientTransform="matrix(.87877744 0 .00000002 3.21301 7.074456 -106.22448)" gradientUnits="userSpaceOnUse" r="11.437873"><stop offset="0" stop-color="#505050"/><stop offset="1"/></radialGradient><g><g fill="url(#c)"><path d="m12-95.03125c-5.5110903 0-10.03125 4.52016-10.03125 10.03125v71c0 5.5110902 4.5201598 10.03125 10.03125 10.03125h72c5.51109 0 10.03125-4.5201597 10.03125-10.03125v-71c0-5.51109-4.52016-10.03125-10.03125-10.03125z" opacity=".08" transform="scale(1 -1)"/><path d="m12-94.03125c-4.971633 0-9.03125 4.059617-9.03125 9.03125v71c0 4.9716329 4.0596171 9.03125 9.03125 9.03125h72c4.971633 0 9.03125-4.059617 9.03125-9.03125v-71c0-4.971633-4.059617-9.03125-9.03125-9.03125z" opacity=".1" transform="scale(1 -1)"/><path d="m12-93c-4.4091333 0-8 3.590867-8 8v71c0 4.4091333 3.5908667 8 8 8h72c4.409133 0 8-3.5908667 8-8v-71c0-4.409133-3.590867-8-8-8z" opacity=".2" transform="scale(1 -1)"/><rect height="85" opacity=".3" rx="7" transform="scale(1 -1)" width="86" x="5" y="-92"/></g><rect fill="url(#d)" height="84" opacity=".45" rx="6" transform="scale(1 -1)" width="84" x="6" y="-91"/></g><rect fill="url(#j)" height="84" rx="6" width="84" x="6" y="6"/><path d="m12 6c-3.324 0-6 2.676-6 6v72c0 3.324 2.676 6 6 6h12v-84z" fill="#555753"/><path d="m12 6c-3.324 0-6 2.676-6 6v72c0 3.324 2.676 6 6 6h9.125v-84z" fill="url(#h)"/><g transform="translate(0 2)"><path d="m6 20h18v2h-18z" fill="url(#e)"/><path d="m6 16h18v2h-18z" fill="url(#f)"/></g><path d="m31.68508 32.825603v30.348794l16.403173 16.361986h17.823494l16.403173-16.361986v-30.348794l-16.403173-16.361986h-17.823494z" fill="#555753" opacity=".876011"/><path d="m56.855182 31.423976c5.005485-.09993 9.614195 3.499401 10.055833 8.448797.274587 3.077374-1.560753 7.217502-5.301504 8.358665l3.888407 16.346616-18.072336-.11723 4.848954-16.373712c-3.555192-1.096001-5.477921-5.38257-5.182776-8.390952.521182-5.312232 5.083196-8.178785 9.763422-8.272184z" stroke="#ce5c00" stroke-width="8"/><g transform="translate(0 20)"><path d="m6 20h18v2h-18z" fill="url(#e)"/><path d="m6 16h18v2h-18z" fill="url(#f)"/></g><g transform="translate(0 56)"><path d="m6 20h18v2h-18z" fill="url(#e)"/><path d="m6 16h18v2h-18z" fill="url(#f)"/></g><g transform="translate(0 38)"><path d="m6 20h18v2h-18z" fill="url(#e)"/><path d="m6 16h18v2h-18z" fill="url(#f)"/></g><path d="m24 6h1v84h-1z" fill="#fefefe" opacity=".1"/><path d="m23 6h1v84h-1z" opacity=".1"/><path d="m56.855182 31.423976c5.005485-.09993 9.614195 3.499401 10.055833 8.448797.274587 3.077374-1.560753 7.217502-5.301504 8.358665l3.888407 16.346616-18.072336-.11723 4.848954-16.373712c-3.555192-1.096001-5.477921-5.38257-5.182776-8.390952.521182-5.312232 5.083196-8.178785 9.763422-8.272184z" fill="url(#l)" stroke="url(#k)" stroke-width="3"/><path d="m24.625 8v80h47.28125 5.53125 7.46875c2.268073 0 4.09375-1.825677 4.09375-4.09375v-6.5-6.5-45.8125-13c0-2.268073-1.825677-4.09375-4.09375-4.09375h-6.875zm2.59375 3.25h34.15625 13.78125 11.0625v11.0625 16.71875 17.9375 16.71875 11.0625h-11.0625-13.78125-34.15625z" fill="#555753" opacity=".45"/><path d="m12 90c-3.324 0-6-2.676-6-6v-2-68-2c0-.334721.04135-.6507.09375-.96875.0487-.295596.09704-.596915.1875-.875.00988-.03038.020892-.0636.03125-.09375.098865-.287771.2348802-.547452.375-.8125.1445918-.273507.3156161-.535615.5-.78125s.3737765-.473472.59375-.6875c.439947-.428056.94291-.814526 1.5-1.09375.278545-.139612.5734731-.246947.875-.34375-.2562018.100222-.4867109.236272-.71875.375-.00741.0044-.023866-.0045-.03125 0-.031933.0193-.062293.04251-.09375.0625-.120395.0767-.2310226.163513-.34375.25-.1061728.0808-.2132809.161112-.3125.25-.1779299.161433-.3474596.345388-.5.53125-.1075789.130255-.2183939.265285-.3125.40625-.025089.03838-.038446.08587-.0625.125-.064763.103032-.1302275.204517-.1875.3125-.1010083.194706-.2056748.415701-.28125.625-.00796.02181-.023589.04055-.03125.0625-.0318251.09195-.0358045.186831-.0625.28125-.0303323.106618-.0703894.203031-.09375.3125-.0728786.341512-.125.698205-.125 1.0625v2 68 2c0 2.781848 2.2181517 5 5 5h2 68 2c2.781848 0 5-2.218152 5-5v-2-68-2c0-.364295-.05212-.720988-.125-1.0625-.04415-.206893-.08838-.397658-.15625-.59375-.0077-.02195-.0233-.04069-.03125-.0625-.06274-.173739-.138383-.367449-.21875-.53125-.04158-.0828-.07904-.169954-.125-.25-.0546-.09721-.126774-.18835-.1875-.28125-.09411-.140965-.204921-.275995-.3125-.40625-.143174-.17445-.303141-.346998-.46875-.5-.01117-.0102-.01998-.02115-.03125-.03125-.138386-.125556-.285091-.234436-.4375-.34375-.102571-.07315-.204318-.153364-.3125-.21875-.0074-.0045-.02384.0044-.03125 0-.232039-.138728-.462548-.274778-.71875-.375.301527.0968.596455.204138.875.34375.55709.279224 1.060053.665694 1.5 1.09375.219973.214028.409366.441865.59375.6875s.355408.507743.5.78125c.14012.265048.276135.524729.375.8125.01041.03078.02133.06274.03125.09375.09046.278085.1388.579404.1875.875.0524.31805.09375.634029.09375.96875v2 68 2c0 3.324-2.676 6-6 6z" fill="url(#i)" opacity=".2"/><path d="m12 6c-3.324 0-6 2.676-6 6v2 68 2c0 .334721.04135.6507.09375.96875.0487.295596.09704.596915.1875.875.00988.03038.020892.0636.03125.09375.098865.287771.2348802.547452.375.8125.1445918.273507.3156161.535615.5.78125s.3737765.473472.59375.6875c.439947.428056.94291.814526 1.5 1.09375.278545.139612.5734731.246947.875.34375-.2562018-.100222-.4867109-.236272-.71875-.375-.00741-.0044-.023866.0045-.03125 0-.031933-.0193-.062293-.04251-.09375-.0625-.120395-.0767-.2310226-.163513-.34375-.25-.1061728-.0808-.2132809-.161112-.3125-.25-.1779299-.161433-.3474596-.345388-.5-.53125-.1075789-.130255-.2183939-.265285-.3125-.40625-.025089-.03838-.038446-.08587-.0625-.125-.064763-.103032-.1302275-.204517-.1875-.3125-.1010083-.194706-.2056748-.415701-.28125-.625-.00796-.02181-.023589-.04055-.03125-.0625-.0318251-.09195-.0358045-.186831-.0625-.28125-.0303323-.106618-.0703894-.203031-.09375-.3125-.0728786-.341512-.125-.698205-.125-1.0625v-2-68-2c0-2.781848 2.2181517-5 5-5h2 68 2c2.781848 0 5 2.218152 5 5v2 68 2c0 .364295-.05212.720988-.125 1.0625-.04415.206893-.08838.397658-.15625.59375-.0077.02195-.0233.04069-.03125.0625-.06274.173739-.138383.367449-.21875.53125-.04158.0828-.07904.169954-.125.25-.0546.09721-.126774.18835-.1875.28125-.09411.140965-.204921.275995-.3125.40625-.143174.17445-.303141.346998-.46875.5-.01117.0102-.01998.02115-.03125.03125-.138386.125556-.285091.234436-.4375.34375-.102571.07315-.204318.153364-.3125.21875-.0074.0045-.02384-.0044-.03125 0-.232039.138728-.462548.274778-.71875.375.301527-.0968.596455-.204138.875-.34375.55709-.279224 1.060053-.665694 1.5-1.09375.219973-.214028.409366-.441865.59375-.6875s.355408-.507743.5-.78125c.14012-.265048.276135-.524729.375-.8125.01041-.03078.02133-.06274.03125-.09375.09046-.278085.1388-.579404.1875-.875.0524-.31805.09375-.634029.09375-.96875v-2-68-2c0-3.324-2.676-6-6-6z" fill="url(#g)" opacity=".4"/><path d="m28 10v.498361 5.201639.498361h.49948 4.557752v4.142623h-1.498439v-2.118033-.498361h-.49948-2.559833-.49948v.498361 2.616393.498361h.49948 2.060354v53.32459h-2.060354-.49948v.498361 2.647541.49836h.49948 2.559833.49948v-.49836-2.149181h1.498439v4.142623h-4.557752-.49948v.498361 5.201639.498361h.49948 5.057232.499479v-.498361-4.703278h4.245578v1.650819h-2.154006-.49948v.498361 2.554098.498361h.49948 2.653486.499479v-.498361-2.055737h35.398544v2.055737.498361h.499479 2.684704.499479v-.498361-2.554098-.498361h-.499479-2.185224v-1.650819h4.245578v4.703278.498361h.499479 5.057232.49948v-.498361-5.201639-.498361h-.49948-4.557752v-4.142623h1.529657v2.149181.49836h.499479 2.528616.49948v-.49836-2.647541-.498361h-.49948-2.029136v-53.32459h2.029136.49948v-.498361-2.616393-.498361h-.49948-2.528616-.499479v.498361 2.118033h-1.529657v-4.142623h4.557752.49948v-.498361-5.201639-.498361h-.49948-5.057232-.499479v.498361 4.703278h-4.245578v-1.650819h2.185224.499479v-.467213-2.585246-.498361h-.499479-2.684704-.499479v.498361 2.086885h-35.398544v-2.086885-.498361h-.499479-2.653486-.49948v.498361 2.585246.467213h.49948 2.154006v1.650819h-4.245578v-4.703278-.498361h-.499479-5.057232zm.998959.996721h4.058273v4.204918h-4.058273zm7.648283 0h1.654527v1.588525h-1.654527zm39.050989 0h1.685744v1.588525h-1.685744zm5.244537 0h4.058273v4.204918h-4.058273zm-41.64204 2.554099h35.398544v1.650819h-2.091572-.499479v.498361 2.585246.467213h.499479 2.591051.49948v-.467213-2.086885h4.245578v4.142623h-2.154007-.499479v.49836 2.585246.467213h.499479 2.653486.49948v-.467213-2.086885h1.529657v53.32459h-1.529657v-2.055738-.49836h-.49948-2.653486-.499479v.49836 2.554099.49836h.499479 2.154007v4.142623h-4.245578v-2.055737-.498361h-.49948-2.591051-.499479v.498361 2.554098.498361h.499479 2.091572v1.650819h-35.398544v-1.650819h2.122789.49948v-.498361-2.554098-.498361h-.49948-2.622268-.49948v.498361 2.055737h-4.245578v-4.142623h2.185224.49948v-.49836-2.554099-.49836h-.49948-2.684703-.49948v.49836 2.055738h-1.498439v-53.32459h1.498439v2.086885.467213h.49948 2.684703.49948v-.467213-2.585246-.49836h-.49948-2.185224v-4.142623h4.245578v2.086885.467213h.49948 2.622268.49948v-.467213-2.585246-.498361h-.49948-2.122789zm0 2.647541h1.623309v1.588524h-1.623309zm33.806452 0h1.592092v1.588524h-1.592092zm-44.108221 2.491803h1.560875v1.65082h-1.560875zm54.472425 0h1.529657v1.65082h-1.529657zm-49.415193 2.647541h1.685744v1.588525h-1.685744zm44.233091 0h1.654527v1.588525h-1.654527zm-44.233091 51.767213h1.685744v1.557377h-1.685744zm44.233091 0h1.654527v1.557377h-1.654527zm-49.290323 2.554098h1.560875v1.65082h-1.560875zm54.472425 0h1.529657v1.65082h-1.529657zm-44.170656 2.585246h1.623309v1.557377h-1.623309zm33.806452 0h1.592092v1.557377h-1.592092zm-44.108221 2.554099h4.058273v4.204918h-4.058273zm51.943809 0h4.058273v4.204918h-4.058273zm-44.295526 2.647541h1.654527v1.557377h-1.654527zm39.050989 0h1.685744v1.557377h-1.685744z" fill="#fcaf3e" fill-rule="evenodd" opacity=".8"/><path d="m48.09375 16.46875-2 2h17.8125l16.40625 16.34375v30.375l2-2v-30.375l-16.40625-16.34375z" fill="#eeeeec" opacity=".115903"/><path d="m33.6875 30.8125-2 2v30.375l16.40625 16.34375h17.8125l2-2h-17.8125l-16.40625-16.34375z" fill="#2e3436" opacity=".115903"/></svg>