<svg height="96" width="96" xmlns="http://www.w3.org/2000/svg" xmlns:xlink="http://www.w3.org/1999/xlink"><linearGradient id="a"><stop offset="0" stop-color="#fefefe"/><stop offset="1" stop-color="#fefefe" stop-opacity="0"/></linearGradient><linearGradient id="b" gradientUnits="userSpaceOnUse" x1="36.357143" x2="36.357143" xlink:href="#a" y1="6" y2="63.893143"/><filter id="c" color-interpolation-filters="sRGB" height="1.384" width="1.384" x="-.192" y="-.192"><feGaussianBlur stdDeviation="5.28"/></filter><linearGradient id="d" gradientUnits="userSpaceOnUse" x1="48" x2="48" xlink:href="#a" y1="20.220806" y2="138.66119"/><radialGradient id="e" cx="48" cy="90.171875" gradientTransform="matrix(1.1573129 0 0 .99590774 -7.551021 .197132)" gradientUnits="userSpaceOnUse" r="42" xlink:href="#a"/><clipPath id="f"><rect height="84" rx="6" width="84" x="6" y="6"/></clipPath><linearGradient id="g" gradientUnits="userSpaceOnUse" x1="48" x2="48" y1="90" y2="5.987717"><stop offset="0" stop-color="#5b9825"/><stop offset="1" stop-color="#a3d623"/></linearGradient><linearGradient id="h" gradientTransform="matrix(1.0058652 0 0 .994169 100 0)" gradientUnits="userSpaceOnUse" x1="45.447727" x2="45.447727" y1="92.539597" y2="7.01654"><stop offset="0"/><stop offset="1" stop-opacity=".588235"/></linearGradient><linearGradient id="i" gradientTransform="matrix(1.0238095 0 0 1.0119048 -1.142857 -98.071429)" gradientUnits="userSpaceOnUse" x1="32.251034" x2="32.251034" xlink:href="#h" y1="6.131708" y2="90.238609"/><linearGradient id="j" gradientTransform="translate(0 -97)" gradientUnits="userSpaceOnUse" x1="32.251034" x2="32.251034" xlink:href="#h" y1="6.131708" y2="90.238609"/><linearGradient id="k" gradientTransform="matrix(.98648066 -.0987376 .06286999 .58459002 174.95564 42.322223)" gradientUnits="userSpaceOnUse" x1="-19.039936" x2="15.223759" y1="52.71389" y2="111.3392"><stop offset="0" stop-color="#fff"/><stop offset="1" stop-color="#fff" stop-opacity="0"/></linearGradient><path d="m12-95.03125c-5.5110903 0-10.03125 4.52016-10.03125 10.03125v71c0 5.5110902 4.5201598 10.03125 10.03125 10.03125h72c5.51109 0 10.03125-4.5201597 10.03125-10.03125v-71c0-5.51109-4.52016-10.03125-10.03125-10.03125z" fill="url(#i)" opacity=".08" transform="scale(1 -1)"/><path d="m12-94.03125c-4.971633 0-9.03125 4.059617-9.03125 9.03125v71c0 4.9716329 4.0596171 9.03125 9.03125 9.03125h72c4.971633 0 9.03125-4.059617 9.03125-9.03125v-71c0-4.971633-4.059617-9.03125-9.03125-9.03125z" fill="url(#i)" opacity=".1" transform="scale(1 -1)"/><path d="m12-93c-4.4091333 0-8 3.590867-8 8v71c0 4.4091333 3.5908667 8 8 8h72c4.409133 0 8-3.5908667 8-8v-71c0-4.409133-3.590867-8-8-8z" fill="url(#i)" opacity=".2" transform="scale(1 -1)"/><rect fill="url(#i)" height="85" opacity=".3" rx="7" transform="scale(1 -1)" width="86" x="5" y="-92"/><rect fill="url(#j)" height="84" opacity=".45" rx="6" transform="scale(1 -1)" width="84" x="6" y="-91"/><rect fill="url(#g)" height="84" rx="6" width="84" x="6" y="6"/><path d="m12 6c-3.324 0-6 2.676-6 6v2 68 2c0 .334721.04135.6507.09375.96875.0487.295596.09704.596915.1875.875.00988.03038.020892.0636.03125.09375.098865.287771.2348802.547452.375.8125.1445918.273507.3156161.535615.5.78125s.3737765.473472.59375.6875c.439947.428056.94291.814526 1.5 1.09375.278545.139612.5734731.246947.875.34375-.2562018-.100222-.4867109-.236272-.71875-.375-.00741-.0044-.023866.0045-.03125 0-.031933-.0193-.062293-.04251-.09375-.0625-.120395-.0767-.2310226-.163513-.34375-.25-.1061728-.0808-.2132809-.161112-.3125-.25-.1779299-.161433-.3474596-.345388-.5-.53125-.1075789-.130255-.2183939-.265285-.3125-.40625-.025089-.03838-.038446-.08587-.0625-.125-.064763-.103032-.1302275-.204517-.1875-.3125-.1010083-.194706-.2056748-.415701-.28125-.625-.00796-.02181-.023589-.04055-.03125-.0625-.0318251-.09195-.0358045-.186831-.0625-.28125-.0303323-.106618-.0703894-.203031-.09375-.3125-.0728786-.341512-.125-.698205-.125-1.0625v-2-68-2c0-2.781848 2.2181517-5 5-5h2 68 2c2.781848 0 5 2.218152 5 5v2 68 2c0 .364295-.05212.720988-.125 1.0625-.04415.206893-.08838.397658-.15625.59375-.0077.02195-.0233.04069-.03125.0625-.06274.173739-.138383.367449-.21875.53125-.04158.0828-.07904.169954-.125.25-.0546.09721-.126774.18835-.1875.28125-.09411.140965-.204921.275995-.3125.40625-.143174.17445-.303141.346998-.46875.5-.01117.0102-.01998.02115-.03125.03125-.138386.125556-.285091.234436-.4375.34375-.102571.07315-.204318.153364-.3125.21875-.0074.0045-.02384-.0044-.03125 0-.232039.138728-.462548.274778-.71875.375.301527-.0968.596455-.204138.875-.34375.55709-.279224 1.060053-.665694 1.5-1.09375.219973-.214028.409366-.441865.59375-.6875s.355408-.507743.5-.78125c.14012-.265048.276135-.524729.375-.8125.01041-.03078.02133-.06274.03125-.09375.09046-.278085.1388-.579404.1875-.875.0524-.31805.09375-.634029.09375-.96875v-2-68-2c0-3.324-2.676-6-6-6z" fill="url(#b)" opacity=".4"/><path d="m12 90c-3.324 0-6-2.676-6-6v-2-68-2c0-.334721.04135-.6507.09375-.96875.0487-.295596.09704-.596915.1875-.875.00988-.03038.020892-.0636.03125-.09375.098865-.287771.2348802-.547452.375-.8125.1445918-.273507.3156161-.535615.5-.78125s.3737765-.473472.59375-.6875c.439947-.428056.94291-.814526 1.5-1.09375.278545-.139612.5734731-.246947.875-.34375-.2562018.100222-.4867109.236272-.71875.375-.00741.0044-.023866-.0045-.03125 0-.031933.0193-.062293.04251-.09375.0625-.120395.0767-.2310226.163513-.34375.25-.1061728.0808-.2132809.161112-.3125.25-.1779299.161433-.3474596.345388-.5.53125-.1075789.130255-.2183939.265285-.3125.40625-.025089.03838-.038446.08587-.0625.125-.064763.103032-.1302275.204517-.1875.3125-.1010083.194706-.2056748.415701-.28125.625-.00796.02181-.023589.04055-.03125.0625-.0318251.09195-.0358045.186831-.0625.28125-.0303323.106618-.0703894.203031-.09375.3125-.0728786.341512-.125.698205-.125 1.0625v2 68 2c0 2.781848 2.2181517 5 5 5h2 68 2c2.781848 0 5-2.218152 5-5v-2-68-2c0-.364295-.05212-.720988-.125-1.0625-.04415-.206893-.08838-.397658-.15625-.59375-.0077-.02195-.0233-.04069-.03125-.0625-.06274-.173739-.138383-.367449-.21875-.53125-.04158-.0828-.07904-.169954-.125-.25-.0546-.09721-.126774-.18835-.1875-.28125-.09411-.140965-.204921-.275995-.3125-.40625-.143174-.17445-.303141-.346998-.46875-.5-.01117-.0102-.01998-.02115-.03125-.03125-.138386-.125556-.285091-.234436-.4375-.34375-.102571-.07315-.204318-.153364-.3125-.21875-.0074-.0045-.02384.0044-.03125 0-.232039-.138728-.462548-.274778-.71875-.375.301527.0968.596455.204138.875.34375.55709.279224 1.060053.665694 1.5 1.09375.219973.214028.409366.441865.59375.6875s.355408.507743.5.78125c.14012.265048.276135.524729.375.8125.01041.03078.02133.06274.03125.09375.09046.278085.1388.579404.1875.875.0524.31805.09375.634029.09375.96875v2 68 2c0 3.324-2.676 6-6 6z" fill="url(#e)" opacity=".2"/><g stroke-width="2.19518"><path d="m46.822108 20.202479c-14.551751.297374-28.600039 7.265143-36.404727 19.51218l25.446009 12.133477a13.171043 13.171043 0 0 1 11.871944-7.507322 13.171043 13.171043 0 0 1 11.876233 7.507322l25.441721-12.133477c-3.964289-6.220717-8.915746-10.702823-15.782099-14.294355-7.080922-3.703767-14.826736-5.37359-22.449081-5.217825z" opacity=".2"/><path d="m46.822108 18.007134c-14.551751.297374-28.600039 7.265143-36.404727 19.51218l25.446009 12.133478a13.171043 13.171043 0 0 1 11.871944-7.507323 13.171043 13.171043 0 0 1 11.876233 7.507323l25.441721-12.133478c-3.964289-6.220717-8.915746-10.702823-15.782099-14.294355-7.080922-3.703767-14.826736-5.37359-22.449081-5.217825z" fill="#ffd95f"/><path d="m63.34514 26.456329-.976686 3.098387-7.305291 23.138925c-1.179539-1.798892-2.978385-3.102211-5.055215-3.662661-4.684204-1.255129-9.498984 1.524684-10.754113 6.208889-1.255127 4.684203 1.524688 9.498983 6.20889 10.75411 3.786391 1.011826 7.784878-.608197 9.799167-3.97022.03604-.05938.06727-.121018.101852-.181321.152302-.269276.290274-.546412.413328-.830249.03462-.07982.07169-.157482.103859-.238498.13149-.322575.243649-.65269.335912-.988594.01449-.06271.02847-.125583.04167-.188587l8.163567-26.988107c.71392 1.250513 1.336453 4.157588 1.913113 5.840148.687956 2.007311 1.068278 4.794451.782959 6.666062-.285325 1.871612-1.128465 3.518668-3.188903 4.960225-.549892.321053-.869289.926006-.831233 1.561627.03804.635624.426192 1.19385 1.010462 1.44701.584272.253164 1.263714.15768 1.753483-.249229 2.753169-1.926206 4.18013-4.552935 4.583802-7.200853.784963-5.957635-2.466855-10.97818-5.321102-15.779588-.526767-1.139514-1.185943-2.264891-1.779497-3.397476z" opacity=".1"/><path d="m63.34514 24.261891-.976686 3.098387-7.305291 23.138925c-1.179539-1.798892-2.978385-3.102212-5.055215-3.662661-4.684204-1.255129-9.498984 1.524684-10.754113 6.208889-1.255127 4.684203 1.524688 9.498981 6.20889 10.75411 3.786391 1.011826 7.784878-.608197 9.799167-3.97022.03604-.05938.06727-.121018.101852-.181322.152302-.269275.290274-.546411.413328-.830248.03462-.07982.07169-.157483.103859-.238498.13149-.322576.243649-.652691.335912-.988594.01449-.06272.02847-.125583.04167-.188588l8.163567-26.988107c.71392 1.250514 1.336453 4.157589 1.913113 5.840149.687956 2.007312 1.068278 4.794449.782959 6.666061-.285325 1.871612-1.128465 3.518669-3.188903 4.960225-.549892.321054-.869289.926007-.831233 1.561628.03804.635624.426192 1.193849 1.010462 1.44701.584272.253162 1.263714.15768 1.753483-.249229 2.753169-1.926206 4.18013-4.552936 4.583802-7.200853.784963-5.957636-2.466855-10.97818-5.321102-15.779589-.526767-1.139513-1.185943-2.264891-1.779497-3.397475z" fill="#417830"/><path d="m46.822108 18.007134c-14.551751.297374-28.600039 7.265143-36.404727 19.51218l1.136174.540219c7.98296-11.211106 21.390433-17.573617 35.268553-17.857225 7.622345-.155769 15.368159 1.514057 22.449081 5.217825 6.235467 3.26154 10.882605 7.273882 14.654499 12.6394l1.1276-.540219c-3.964289-6.220717-8.915746-10.702823-15.782099-14.294355-7.080922-3.703767-14.826736-5.37359-22.449081-5.217825z" fill="#fff" opacity=".2"/></g><path d="m24.59933 80.090451-2.446004-.4197c-.02887 0-.05773 0-.08658 0-.721542-.10493-1.51523-.11659-2.381067-.035-.33191.26815-.95243.37307-1.861561.31478-.01443 0-.06494-.006-.151522-.0175-.490647 0-.836983-.12824-1.039011-.38473-.115448-.15156-.129879-.3206-.04329-.50714.317474-.47799.476211-1.02011.476214-1.62635.101012-1.36403.15152-3.42757.151523-6.190623l.04329-1.433984c-.01443-.03496-.02165-.06994-.02165-.104924l-.129876-1.136724c.01443-.198181.07937-.373057.194815-.524631.317472-.361399.764823-.495471 1.342056-.402216.404055.0583.699884.215694.887488.472166.216456.209864.245317.559615.08658 1.049259-.05773.174885-.0938.303131-.10823.38473l-.129876 1.713788c-.000005.06996-.01443.134079-.0433.192363l-.151523 4.057136-.02165 2.23841c.01443.0583.02164.11659.02165.17488.187595.0466.663808.0758 1.42864.0874.158732.00001.303039.006.432922.0175.476206.0116 1.464709.13407 2.96551.36724l1.255471.1399c.230881.0583.375188.15739.432922.29729.05771.07.07936.17488.06494.31478-.01444.0583.05771.11076.21646.15739.346326.15156.360757.34392.04329.57709-.303057.22151-.598885.30312-.887489.24483-.245332 0-.425716-.006-.541151-.0175m6.422454 0c-.692677-.12824-.937999-.64704-.735967-1.55639.01443-.0583.03608-.14574.06494-.26232-.000002-.24483.108228-.78111.324691-1.60886.08658-.30312.137089-.5596.151523-.76946.01443-.44301.281395-.7403.800904-.89186.519501-.15156.959637-.07 1.32041.24482.08658.0699.151517.15156.194814.24483.173163.27981.144302.67619-.08658 1.18915-.144312.3381-.223681.58876-.238106.75197-.08659.18654-.151528.6179-.194815 1.29409-.02887.37307-.10102.64704-.21646.82191-.0433.23317-.30305.40805-.779259.52464-.245326.0583-.447355.0641-.606089.0175m.93078-5.50861c-.505079-.035-.815339-.26231-.93078-.68201-.11545-.4197.0072-.75196.367983-.9968.274179-.19818.714315-.23316 1.320409-.10492.447346.0933.714314.25066.800904.47216.346331.38473.238101.75198-.324691 1.10173-.274188.16322-.555587.25648-.844196.2798-.0433.0699-.173173.0466-.389629-.07m11.796088 5.42117c-.331914-.32643-.519513-.86855-.562797-1.62635-.02887-.44302-.06494-.75196-.10823-.92684.05771-.51297-.07216-.81026-.38963-.89187-.317482-.07-.613311.11076-.887488.54212-.202036.18653-.476219.6004-.822551 1.24162-.158743.32644-.324695.58292-.497859.76945-.08659.54795-.490648.83358-1.212179.8569-.375202.0233-.7504-.0408-1.125595-.19237-.288617-.26814-.36077-.74614-.216461-1.43398.129874-.62956.165951-1.06091.10823-1.29408l.151523-2.04606c.02886-.12824.05772-.25065.08658-.36724.187597-.34975.533933-.57709 1.039011-.68201.548363-.0933.901915.0292 1.060657.36723.02886.0816.0505.16905.06494.26231l.194814.80444c.08658.15156.259748.0641.519506-.26232.634945-.51296 1.291542-.7403 1.969792-.68201.36076.0233.671019.15739.93078.40221.490635.38473.865833 1.06675 1.125595 2.04605l.129877.54212c-.0433.17488.02885.60041.21646 1.27659.173159.66453.09379 1.08424-.238106 1.25912-.115455.0583-.266978.0991-.454568.12241l-.735966.10492c-.144315-.0116-.259761-.0758-.346337-.19236m8.658762 3.3926c-1.111168-.11658-2.08524-.53628-2.922218-1.25911-.418493-.32644-.606091-.72282-.562798-1.18916.04329-.4197.303043-.68201.779258-.78694.649379-.11658 1.103946.15156 1.363701.80443.02886.0699.05772.15156.08658.24483.634947.53629 1.414204.78694 2.337775.75197.678236.0116 1.16888-.19237 1.471932-.61207.259745-.34975.252529-.71699-.02165-1.10172-.46179-1.04926-.77205-1.70213-.930781-1.95862-.02887-.0583-.06495-.11658-.10823-.17487-.158744-.035-.591665-.0233-1.298764.035-.692678.0466-1.168891-.0874-1.42864-.40222-.418494-.36141-.678246-.95016-.779258-1.76624-.173172-.90936.08658-1.73128.779258-2.46577.404056-.43135.8947-.73447 1.471932-.909353 1.096728-.15155 1.861555.00001 2.294483.454683.101007.0933.173161.20403.216461.33226.216452.25649.245314.66454.08658 1.22414-.129884.478-.144315.82192-.0433 1.03176.07215.12826.09379.41971.06494.87439-.01444.37307.09379.6587.324691.8569l.519506 1.31156c.08657.16322.194805.31479.32469.45468.678234.76946.836971 1.71379.476213 2.833-.331915.45468-1.067881.84523-2.207898 1.17167-.0433.0116-.09381.0233-.151522.035-.851418.24483-1.565737.31478-2.14296.20985m.800904-7.81696c.08658-.31478-.03608-.52463-.367983-.62956-.259758-.0816-.425711-.0408-.497859.12241-.05773.11659-.02887.26815.08658.45468-.230897.22152-.223681.39056.02165.50714.245317.10493.454562.0816.627736-.07.115439-.0933.158731-.2215.129876-.38472m10.438817 4.52929c-.865847-.0933-1.630673-.64705-2.294483-1.66132-.721537-1.43398-.757614-2.70475-.10823-3.81231.02886-.035.05772-.0758.08658-.12241.144305-.48965.699887-.84523 1.666747-1.06675.952422-.25648 1.94814-.0874 2.987156.50715.115439.07.230885.14573.346337.22733.158731.15157.389622.52463.692675 1.11921.230883.478.519497.80444.865839.97931.505065.80443.570008 1.52725.194815 2.16847-.07216.12824-.165959.24482-.281399.34974-.447359.68786-1.233831 1.10756-2.359418 1.25912-.303051.035-.606096.0466-.909135.035l-.887488.0175m1.039011-1.57388c.562791-.0466.923558-.31478 1.082303-.80444.115439-.40804.04328-.77528-.216461-1.10172-.216467-.0933-.512296-.38472-.887488-.87438-.360773-.45467-.685464-.67618-.974072-.66453-.202035.00001-.425711.0933-.671029.2798-.33191 1.03761-.216464 2.01691.346337 2.93792.187594.25649.627731.33227 1.32041.22735m9.366656 1.34654c-.735973-.29146-.909135-.91518-.51951-1.87118l.497863-3.3926c.01442-.10491.02165-.21567.02165-.33226.144301-.62955.180382-1.0201.108231-1.17167-.101023-.23316-.353555-.28563-.757615-.15739-.505076.15157-.99572.0991-1.47193-.15739-.461787-.244818-.606094-.565425-.43292-.961817.216458-.396378.764824-.676183 1.645098-.839406.692673-.139893 1.089518-.22733 1.19053-.262318.230891-.6412.39684-1.031758.497863-1.17167.245319-.349742.59165-.530446 1.039015-.542119.533927.000015.9452.297301 1.233825.89187.01442.03499.07936.169057.194815.402216.129868.104939.483419.157399 1.060652.157389.476204.00001.808112.06413.995719.192367.418477.12825.685449.396393.800905.804428.115434.45469-.05054.751977-.497857.891869-.08659.03498-.187607.0583-.303048.06995-.173173.0583-.634961.07579-1.385351.05246-.707106-.02331-1.125599.104934-1.255467.384731-.01442.0466-.02889.0991-.04331.15739l-.324689 2.16847-.346337 2.46575c-.04331.10493-.08659.47217-.129873 1.10173-.04331.60623-.281405.96181-.714326 1.06674-.05773.0116-.122665.0233-.19481.035-.404065.0933-.663822.12242-.779257.0874-.04331-.0233-.08659-.0466-.129879-.07" fill="#304321" stroke="#836d55" stroke-width=".544041"/><path d="m196.9868 87.626853c-5.67208 1.766418-8.7391 5.797169-9.69214 10.669426 5.1667 21.342591 11.20069-8.533887 25.95563-4.639821.28673-1.492453-6.96636-8.675761-16.26349-6.029605z" fill="url(#k)" transform="matrix(.60632359697 0 0 .60632359697 -74.23559503814 -6.13009727256)"/><rect height="66" rx="12" style="opacity:.1;stroke:#fefefe;stroke-width:.5;stroke-linecap:round;clip-path:url(#f);fill:url(#d);filter:url(#c)" transform="translate(-.359546 -.071909)" width="66" x="15" y="15"/></svg>