<svg height="96" width="96" xmlns="http://www.w3.org/2000/svg" xmlns:xlink="http://www.w3.org/1999/xlink"><linearGradient id="a"><stop offset="0" stop-color="#fefefe"/><stop offset="1" stop-color="#fefefe" stop-opacity="0"/></linearGradient><linearGradient id="b" gradientUnits="userSpaceOnUse" x1="36.357143" x2="36.357143" xlink:href="#a" y1="6" y2="63.893143"/><filter id="c" color-interpolation-filters="sRGB" height="1.384" width="1.384" x="-.192" y="-.192"><feGaussianBlur stdDeviation="5.28"/></filter><linearGradient id="d" gradientUnits="userSpaceOnUse" x1="48" x2="48" xlink:href="#a" y1="20.220806" y2="138.66119"/><radialGradient id="e" cx="48" cy="90.171875" gradientTransform="matrix(1.1573129 0 0 .99590774 -7.551021 .197132)" gradientUnits="userSpaceOnUse" r="42" xlink:href="#a"/><clipPath id="f"><rect height="84" rx="6" width="84" x="6" y="6"/></clipPath><linearGradient id="g" gradientUnits="userSpaceOnUse" x1="48" x2="48" y1="90" y2="5.987717"><stop offset="0" stop-color="#00613e"/><stop offset="1" stop-color="#009558"/></linearGradient><linearGradient id="h" gradientTransform="matrix(1.0058652 0 0 .994169 100 0)" gradientUnits="userSpaceOnUse" x1="45.447727" x2="45.447727" y1="92.539597" y2="7.01654"><stop offset="0"/><stop offset="1" stop-opacity=".588235"/></linearGradient><linearGradient id="i" gradientTransform="matrix(1.0238095 0 0 1.0119048 -1.142857 -98.071429)" gradientUnits="userSpaceOnUse" x1="32.251034" x2="32.251034" xlink:href="#h" y1="6.131708" y2="90.238609"/><linearGradient id="j" gradientTransform="translate(0 -97)" gradientUnits="userSpaceOnUse" x1="32.251034" x2="32.251034" xlink:href="#h" y1="6.131708" y2="90.238609"/><path d="m12-95.03125c-5.5110903 0-10.03125 4.52016-10.03125 10.03125v71c0 5.5110902 4.5201598 10.03125 10.03125 10.03125h72c5.51109 0 10.03125-4.5201597 10.03125-10.03125v-71c0-5.51109-4.52016-10.03125-10.03125-10.03125z" fill="url(#i)" opacity=".08" transform="scale(1 -1)"/><path d="m12-94.03125c-4.971633 0-9.03125 4.059617-9.03125 9.03125v71c0 4.9716329 4.0596171 9.03125 9.03125 9.03125h72c4.971633 0 9.03125-4.059617 9.03125-9.03125v-71c0-4.971633-4.059617-9.03125-9.03125-9.03125z" fill="url(#i)" opacity=".1" transform="scale(1 -1)"/><path d="m12-93c-4.4091333 0-8 3.590867-8 8v71c0 4.4091333 3.5908667 8 8 8h72c4.409133 0 8-3.5908667 8-8v-71c0-4.409133-3.590867-8-8-8z" fill="url(#i)" opacity=".2" transform="scale(1 -1)"/><rect fill="url(#i)" height="85" opacity=".3" rx="7" transform="scale(1 -1)" width="86" x="5" y="-92"/><rect fill="url(#j)" height="84" opacity=".45" rx="6" transform="scale(1 -1)" width="84" x="6" y="-91"/><rect fill="url(#g)" height="84" rx="6" width="84" x="6" y="6"/><path d="m12 6c-3.324 0-6 2.676-6 6v2 68 2c0 .334721.04135.6507.09375.96875.0487.295596.09704.596915.1875.875.00988.03038.020892.0636.03125.09375.098865.287771.2348802.547452.375.8125.1445918.273507.3156161.535615.5.78125s.3737765.473472.59375.6875c.439947.428056.94291.814526 1.5 1.09375.278545.139612.5734731.246947.875.34375-.2562018-.100222-.4867109-.236272-.71875-.375-.00741-.0044-.023866.0045-.03125 0-.031933-.0193-.062293-.04251-.09375-.0625-.120395-.0767-.2310226-.163513-.34375-.25-.1061728-.0808-.2132809-.161112-.3125-.25-.1779299-.161433-.3474596-.345388-.5-.53125-.1075789-.130255-.2183939-.265285-.3125-.40625-.025089-.03838-.038446-.08587-.0625-.125-.064763-.103032-.1302275-.204517-.1875-.3125-.1010083-.194706-.2056748-.415701-.28125-.625-.00796-.02181-.023589-.04055-.03125-.0625-.0318251-.09195-.0358045-.186831-.0625-.28125-.0303323-.106618-.0703894-.203031-.09375-.3125-.0728786-.341512-.125-.698205-.125-1.0625v-2-68-2c0-2.781848 2.2181517-5 5-5h2 68 2c2.781848 0 5 2.218152 5 5v2 68 2c0 .364295-.05212.720988-.125 1.0625-.04415.206893-.08838.397658-.15625.59375-.0077.02195-.0233.04069-.03125.0625-.06274.173739-.138383.367449-.21875.53125-.04158.0828-.07904.169954-.125.25-.0546.09721-.126774.18835-.1875.28125-.09411.140965-.204921.275995-.3125.40625-.143174.17445-.303141.346998-.46875.5-.01117.0102-.01998.02115-.03125.03125-.138386.125556-.285091.234436-.4375.34375-.102571.07315-.204318.153364-.3125.21875-.0074.0045-.02384-.0044-.03125 0-.232039.138728-.462548.274778-.71875.375.301527-.0968.596455-.204138.875-.34375.55709-.279224 1.060053-.665694 1.5-1.09375.219973-.214028.409366-.441865.59375-.6875s.355408-.507743.5-.78125c.14012-.265048.276135-.524729.375-.8125.01041-.03078.02133-.06274.03125-.09375.09046-.278085.1388-.579404.1875-.875.0524-.31805.09375-.634029.09375-.96875v-2-68-2c0-3.324-2.676-6-6-6z" fill="url(#b)" opacity=".4"/><g fill="#404544" fill-opacity=".62963" transform="matrix(1.0137876 0 0 1.0137876 15.092887 -51.083037)"><g stroke-width=".073634"><path d="m14.541183 115.92542 9.700296 5.72075-9.700178 5.52033z"/><path d="m24.241479 121.64617-9.700296-5.72075 9.700161-5.52033z"/><path d="m14.541048 104.68434 9.700296 5.72075-9.700161 5.52033z"/><path d="m14.541183 115.92542-9.700315-5.72076 9.70018-5.52032z"/><path d="m4.840739 98.963568 9.700309 5.720772-9.70018 5.52032z"/><path d="m14.541048 104.68434-9.700309-5.720772 9.700173-5.52032z"/><path d="m4.84061 87.722494 9.700302 5.720754-9.700173 5.52032z"/><path d="m14.540912 93.443248-9.700302-5.720754 9.700173-5.520332z"/><path d="m14.540783 82.202162 9.700303 5.720754-9.700174 5.520332z"/><path d="m24.241086 87.922916-9.700303-5.720754 9.700166-5.520327z"/><path d="m24.240949 76.681835 9.700309 5.720755-9.700172 5.520326z"/><path d="m33.941258 82.40259-9.700309-5.720755 9.70018-5.520332z"/><path d="m4.840868 110.20466 9.700315 5.72076-9.700178 5.52033z"/><path d="m14.541301 127.1665-9.700296-5.72075 9.700178-5.52033z"/><path d="m53.341074 115.92542-9.700302 5.72075 9.700172 5.52033z"/><path d="m43.640772 121.64617 9.700302-5.72075-9.700173-5.52033z"/><path d="m53.341203 104.68434-9.700302 5.72075 9.700173 5.52033z"/><path d="m53.341074 115.92542 9.700309-5.72076-9.70018-5.52032z"/><path d="m63.041518 98.963568-9.700315 5.720772 9.70018 5.52032z"/><path d="m53.341203 104.68434 9.700315-5.720772-9.700179-5.52032z"/><path d="m63.041641 87.722494-9.700302 5.720754 9.700179 5.52032z"/><path d="m53.341339 93.443248 9.700302-5.720754-9.700167-5.520332z"/><path d="m53.341474 82.202162-9.700302 5.720754 9.700167 5.520332z"/><path d="m43.641172 87.922916 9.700302-5.720754-9.700172-5.520327z"/><path d="m43.641302 76.681835-9.700309 5.720755 9.700179 5.520326z"/><path d="m33.940993 82.40259 9.700309-5.720755-9.700173-5.520332z"/></g><path d="m63.041383 110.20466-9.700309 5.72076 9.700172 5.52033z"/><path d="m53.340944 127.1665 9.700302-5.72075-9.700172-5.52033z" stroke-width=".073634"/></g><path d="m12 90c-3.324 0-6-2.676-6-6v-2-68-2c0-.334721.04135-.6507.09375-.96875.0487-.295596.09704-.596915.1875-.875.00988-.03038.020892-.0636.03125-.09375.098865-.287771.2348802-.547452.375-.8125.1445918-.273507.3156161-.535615.5-.78125s.3737765-.473472.59375-.6875c.439947-.428056.94291-.814526 1.5-1.09375.278545-.139612.5734731-.246947.875-.34375-.2562018.100222-.4867109.236272-.71875.375-.00741.0044-.023866-.0045-.03125 0-.031933.0193-.062293.04251-.09375.0625-.120395.0767-.2310226.163513-.34375.25-.1061728.0808-.2132809.161112-.3125.25-.1779299.161433-.3474596.345388-.5.53125-.1075789.130255-.2183939.265285-.3125.40625-.025089.03838-.038446.08587-.0625.125-.064763.103032-.1302275.204517-.1875.3125-.1010083.194706-.2056748.415701-.28125.625-.00796.02181-.023589.04055-.03125.0625-.0318251.09195-.0358045.186831-.0625.28125-.0303323.106618-.0703894.203031-.09375.3125-.0728786.341512-.125.698205-.125 1.0625v2 68 2c0 2.781848 2.2181517 5 5 5h2 68 2c2.781848 0 5-2.218152 5-5v-2-68-2c0-.364295-.05212-.720988-.125-1.0625-.04415-.206893-.08838-.397658-.15625-.59375-.0077-.02195-.0233-.04069-.03125-.0625-.06274-.173739-.138383-.367449-.21875-.53125-.04158-.0828-.07904-.169954-.125-.25-.0546-.09721-.126774-.18835-.1875-.28125-.09411-.140965-.204921-.275995-.3125-.40625-.143174-.17445-.303141-.346998-.46875-.5-.01117-.0102-.01998-.02115-.03125-.03125-.138386-.125556-.285091-.234436-.4375-.34375-.102571-.07315-.204318-.153364-.3125-.21875-.0074-.0045-.02384.0044-.03125 0-.232039-.138728-.462548-.274778-.71875-.375.301527.0968.596455.204138.875.34375.55709.279224 1.060053.665694 1.5 1.09375.219973.214028.409366.441865.59375.6875s.355408.507743.5.78125c.14012.265048.276135.524729.375.8125.01041.03078.02133.06274.03125.09375.09046.278085.1388.579404.1875.875.0524.31805.09375.634029.09375.96875v2 68 2c0 3.324-2.676 6-6 6z" fill="url(#e)" opacity=".2"/><path d="m15.232312 18.877496c-.322375 0-.527587.19113-.65625.34375-.128665.15262-.239252.310929-.3125.5-.146499.378142-.244263.851505-.34375 1.46875-.198974 1.234489-.329591 2.961401-.4375 5.03125-.215816 4.139699-.304143 9.655989-.375 15.15625-.07086 5.500261-.11798 10.982301-.3125 15.09375-.09727 2.055725-.231626 3.795046-.40625 4.96875-.0701.471163-.140019.757963-.21875 1.03125-.03807-.09335-.0569-.128214-.09375-.25-.182835-.604219-.348965-1.513131-.46875-2.625-.239569-2.223738-.336858-5.220182-.4375-8.21875-.100639-2.998568-.221888-6.011166-.40625-8.28125-.09218-1.135042-.179822-2.08192-.34375-2.78125-.08195-.349665-.176714-.630883-.3125-.875-.06789-.122059-.1515301-.236175-.2812501-.34375-.129721-.107575-.330479-.21875-.5625-.21875-.281341 0-.509419.155402-.625.28125-.115586.125848-.191362.235407-.25.375-.117278.279185-.175898.635424-.25 1.0625-.148202.854151-.26314 2.023694-.34375 3.4375-.161217 2.827611-.221802 6.59566-.3125 10.34375-.0907 3.74809-.211113 7.492188-.46875 10.28125-.128818 1.394533-.295477 2.539053-.5 3.312503-.06477.24492-.152133.37455-.21875.53125-.03083-.0895-.06079-.17991-.09375-.28125v1.65625c.02088.001.04118 0 .0625 0 .239832 0 .441239-.104.59375-.21875.152514-.11476.285409-.23005.375-.375.179184-.28992.291596-.66016.40625-1.09375.229309-.86718.400267-2.05078.53125-3.468753.261967-2.835938.37796-6.59184.46875-10.34375s.153006-7.483861.3125-10.28125c.07974-1.398694.176041-2.557276.3125-3.34375.01449-.08344.01593-.112749.03125-.1875.139145.613069.224058 1.504735.3125 2.59375.181101 2.229916.305514 5.248568.4062501 8.25.100733 3.001432.192273 6.004988.4375 8.28125.122614 1.138131.285674 2.072969.5 2.78125.10716.35414.231292.657989.40625.90625s.479499.5.90625.5c.333902 0 .567227-.190934.6875-.34375.120274-.152816.182304-.312172.25-.5.135391-.375655.220811-.852477.3125-1.46875.183379-1.232546.339599-2.961975.4375-5.03125.195803-4.138551.241649-9.656511.3125-15.15625.07085-5.499739.160716-10.983449.375-15.09375.107149-2.055151.248636-3.765739.4375-4.9375.05848-.36281.09125-.563961.15625-.8125.0571.210379.134825.363134.1875.65625.190587 1.060504.319907 2.601664.4375 4.46875.235186 3.734171.373047 8.719467.46875 13.71875.0957 4.999283.187911 10.018572.375 13.78125.09354 1.881339.180414 3.440812.34375 4.5625.08167.560844.193166.999519.3125 1.34375.05967.172115.141174.324103.25.46875.108818.144647.28767.34375.625.34375.356027 0 .672221-.177551.84375-.375s.276233-.424859.375-.6875c.197535-.525282.355942-1.218709.46875-2.03125.225616-1.625082.290626-3.749664.40625-5.875.115623-2.125336.230146-4.24867.4375-5.8125.103684-.781915.260061-1.437679.40625-1.84375.04871.157745.110924.266847.15625.5.153326.788665.255437 1.968123.34375 3.375.176627 2.813755.262961 6.577721.34375 10.34375.0808 3.766029.135619 7.519655.375 10.343753.119689 1.41204.313624 2.58582.53125 3.4375.108807.42584.197543.7788.375 1.0625.08873.14185.212621.26299.375.375.16238.112.416376.20953.65625.1875.298961-.0275.492295-.19233.625-.34375.132706-.15143.2316-.3087.3125-.5.1618-.38262.263764-.88803.375-1.5.222471-1.22396.408306-2.91237.53125-4.9375.24589-4.050272.304137-9.397324.375-14.750003.07086-5.352679.147664-10.713642.3125-14.71875.08242-2.002554.19068-3.661617.34375-4.8125.01448-.108867.01594-.150542.03125-.25.0192.125121.07582.172332.09375.3125.156671 1.225702.262511 3.004051.34375 5.15625.16248 4.304399.189012 10.077192.25 15.84375.06098 5.766558.162993 11.542223.40625 15.875003.121628 2.16639.274377 3.96325.5 5.25.112813.64337.239504 1.17014.40625 1.5625.08336.19618.16619.34496.3125.5.146313.15503.404035.32616.71875.3125.262386-.0114.505613-.11705.65625-.25.150636-.13296.254154-.30071.34375-.46875.179192-.33609.290953-.76345.40625-1.28125.230596-1.0356.413677-2.4553.53125-4.15625.235148-3.40191.266494-7.88178.3125-12.375003.04601-4.493223.0867-8.994874.25-12.34375.08165-1.674438.212236-3.054492.375-4 .06386-.370975.08562-.601714.15625-.8125.03539.07282.08999.08959.125.1875.172928.483381.32445 1.239164.4375 2.15625.226099 1.834172.346806 4.32127.4375 6.8125.0907 2.49123.150926 4.999528.34375 6.90625.09641.953361.226008 1.73622.40625 2.34375.09012.303765.158205.558234.3125.78125.154296.223016.450377.477348.84375.5.283274.01631.522668-.118958.65625-.25s.210883-.284756.28125-.4375c.140737-.305488.218883-.677867.3125-1.15625.187233-.956765.355662-2.275862.46875-3.875.226175-3.198275.326859-7.460515.4375-11.71875.110639-4.258235.23336-8.505193.4375-11.6875.102072-1.591154.246675-2.943318.40625-3.84375.01279-.07221.01795-.08954.03125-.15625.0247.123701.03938.16905.0625.3125.161915 1.004153.30825 2.482434.40625 4.25.195999 3.535131.278976 8.260202.375 13 .09602 4.739798.210484 9.50743.4375 13.09375.113506 1.79316.211563 3.29138.40625 4.375.09735.54181.233142.970304.375 1.3125.07093.171098.128237.32777.25.46875s.360279.291033.65625.3125c.387274.02809.717488-.181351.90625-.40625s.334759-.502651.4375-.8125c.205482-.619699.307066-1.417671.40625-2.40625.198369-1.977158.252525-4.593643.3125-7.21875.05996-2.625107.106287-5.258625.3125-7.21875.103107-.980063.261399-1.811832.4375-2.34375.08805-.265959.178768-.439779.25-.53125.01781-.02287.02278-.02076.03125-.03125.0078.0052.01684-.0094.03125 0 .03601.02358.112208.09155.1875.21875.150569.254406.303578.70243.40625 1.28125.205343 1.15764.259577 2.771359.3125 4.40625.05292 1.634891.118929 3.283611.3125 4.5625.09677.639444.18321 1.183973.40625 1.625.11152.220513.264509.429744.46875.59375.20424.164006.509611.28125.8125.28125.227455 0 .418867-.07971.5625-.1875.143631-.107793.263653-.243945.34375-.375.160192-.26211.247687-.558263.34375-.9375.192126-.758475.33713-1.801073.4375-3.03125.20074-2.460353.269697-5.719062.34375-8.96875.07406-3.249688.132925-6.492953.34375-8.90625.10541-1.206648.26014-2.213563.4375-2.875.03592-.133977.0871-.177889.125-.28125.07115.238346.122634.455936.1875.84375.177561 1.061581.302832 2.632502.40625 4.5.206834 3.734996.325159 8.71875.40625 13.71875.08109 5 .135253 10.016246.34375 13.78125.104246 1.882502.249179 3.436583.4375 4.562503.09416.56296.203801 1.0251.34375 1.375.06997.17494.124165.32392.25.46875.125836.14482.377106.3125.6875.3125.362466 0 .599696-.21133.71875-.375s.179118-.35284.25-.5625c.141764-.41932.273286-.95275.375-1.65625.203427-1.40701.348282-3.41143.46875-5.781253.240937-4.739646.310301-11.030336.40625-17.3125.09595-6.282164.192929-12.533735.375-17.1875.09104-2.326883.221587-4.25318.375-5.5625.0298.153303.06984.262887.09375.46875.173807 1.497026.325852 3.641692.4375 6.1875.223299 5.091616.352304 11.834977.46875 18.5625.116445 6.727523.227823 13.415614.4375 18.4375.104835 2.510943.238457 4.621693.40625 6.093753.0839.73603.167524 1.29378.28125 1.71875.05687.21248.12199.39857.21875.5625.04838.082.106572.16332.21875.25.112179.0867.31726.17524.53125.15625.292678-.026.452907-.1803.5625-.3125.109593-.13221.218688-.28256.28125-.4375.125124-.30989.194208-.70297.28125-1.1875.174082-.96908.327893-2.30742.4375-3.90625.219219-3.197678.314236-7.427986.4375-11.656253.123261-4.228267.251553-8.458556.46875-11.625.108607-1.583222.243462-2.876068.40625-3.78125.04213-.23425.111294-.357883.15625-.53125.135918.480543.225148 1.165441.3125 2.03125.18563 1.839868.286836 4.331402.375 6.84375.08817 2.512348.203163 5.048501.4375 6.96875.117173.960124.250917 1.763246.46875 2.375.108912.305877.251021.559292.4375.78125.186478.221958.492961.4375.875.4375.442046 0 .760219-.267285.9375-.53125.177279-.263965.268657-.58754.375-.96875.212684-.76242.358504-1.799785.46875-3.03125.220488-2.462929.307959-5.718126.375-8.96875.06704-3.250624.124186-6.49148.3125-8.90625.09415-1.207385.209636-2.211655.375-2.875.04079-.163658.05062-.22634.09375-.34375.06364.181764.128391.336559.1875.625.176681.862144.340419 2.15009.4375 3.6875.194165 3.074821.22125 7.187254.28125 11.3125s.164222 8.261246.375 11.375c.105387 1.556877.232959 2.868266.4375 3.8125.102273.472113.212368.846973.375 1.156253.08132.15464.167065.27964.3125.40625s.366132.25.625.25c.275635 0 .510625-.11372.65625-.25.145625-.13629.261605-.30066.34375-.46875.164293-.33619.269508-.75574.375-1.281253.210984-1.051027.360923-2.506261.46875-4.25.215654-3.487477.290941-8.124567.34375-12.75.0528-4.625433.09546-9.235576.28125-12.6875.09289-1.725962.23054-3.180765.40625-4.15625.05921-.328627.122078-.508675.1875-.71875.04568.126626.08186.201731.125.375.179067.719171.331943 1.7925.4375 3.09375.211115 2.602499.300945 6.09404.375 9.59375.07405 3.49971.112015 7.010007.3125 9.65625.100251 1.323121.246934 2.439812.4375 3.25.09529.405094.187819.72524.34375 1 .07797.13738.170829.260499.3125.375.14167.114501.354448.21875.59375.21875.35137 0 .66288-.177824.84375-.375.180869-.197176.301863-.423527.40625-.6875.208774-.527946.351973-1.217686.46875-2.03125.233551-1.627128.359481-3.749049.46875-5.875.109275-2.125951.178066-4.248138.375-5.8125.09847-.782181.232747-1.437388.375-1.84375.01561-.0446.0153-.05539.03125-.09375.04082.09732.115777.140732.15625.28125.158915.551719.268925 1.387227.375 2.40625.212154 2.038045.328281 4.8125.4375 7.5625.109218 2.75.220259 5.475546.4375 7.5625.10863 1.043477.218622 1.942344.40625 2.59375.09382.325703.187562.579603.34375.8125s.453941.5.875.5c.244129 0 .48782-.103558.625-.21875.137181-.115192.205914-.238781.28125-.375.150671-.272438.279497-.595942.375-1 .191008-.808116.326659-1.927277.4375-3.25.221685-2.645446.304055-6.155961.40625-9.65625.102201-3.500289.201848-6.987937.40625-9.59375.102201-1.302907.24486-2.368668.40625-3.09375.01281-.05756.01794-.07204.03125-.125.03862.167759.05883.253107.09375.46875.158482.978717.29175 2.42936.375 4.15625.166516 3.453779.221242 8.061404.28125 12.6875.06 4.626096.136095 9.261473.375 12.750003.119452 1.74426.274699 3.19747.5 4.25.112642.52626.232738.94393.40625 1.28125.08676.16865.193037.33402.34375.46875.15072.13472.384803.25.65625.25v-1.34375c-.08768-.21544-.198683-.45802-.28125-.84375-.207825-.97091-.350647-2.40052-.46875-4.125-.23619-3.448976-.315015-8.063599-.375-12.687503-.06-4.623904-.113295-9.266279-.28125-12.75-.08397-1.74186-.20583-3.174029-.375-4.21875-.08458-.52236-.18041-.951767-.3125-1.28125-.066-.164742-.126445-.297611-.25-.4375-.123563-.139889-.356122-.3125-.65625-.3125-.249842 0-.461669.101727-.59375.21875-.132082.117023-.241639.270773-.3125.40625-.141719.270954-.222779.596916-.3125 1-.179438.806168-.302543 1.896657-.40625 3.21875-.207413 2.644187-.304073 6.156539-.40625 9.65625-.102178 3.499711-.187991 6.989196-.40625 9.59375-.109123 1.302277-.26658 2.370616-.4375 3.09375-.04793.202778-.106375.298467-.15625.4375-.02696-.07321-.03652-.09727-.0625-.1875-.158898-.551719-.300175-1.387227-.40625-2.40625-.212106-2.038046-.32828-4.78125-.4375-7.53125-.109217-2.75-.220257-5.506795-.4375-7.59375-.108629-1.043477-.187371-1.942344-.375-2.59375-.09382-.325703-.218811-.579603-.375-.8125-.156188-.232897-.45394-.5-.875-.5-.360964 0-.618902.207894-.78125.40625-.162349.198356-.283401.425837-.375.6875-.183197.523325-.335334 1.188431-.4375 2-.204333 1.623138-.26583 3.750951-.375 5.875s-.244779 4.252128-.46875 5.8125c-.11199.780186-.247383 1.442009-.40625 1.84375-.03442.08704-.09151.09474-.125.15625-.0648-.150625-.09209-.320945-.15625-.59375-.169602-.721062-.307616-1.791871-.40625-3.09375-.197267-2.603757-.238434-6.09346-.3125-9.59375-.07406-3.50029-.160235-7.008749-.375-9.65625-.107373-1.32375-.266552-2.437921-.46875-3.25-.101098-.406039-.210159-.724123-.375-1-.08242-.137939-.166339-.262527-.3125-.375-.14616-.112473-.389764-.21875-.625-.21875-.285982 0-.489876.142725-.625.28125-.135122.138525-.238561.302147-.3125.46875-.147879.333206-.249368.726024-.34375 1.25-.188764 1.047952-.312452 2.507212-.40625 4.25-.187596 3.485576-.22845 8.125433-.28125 12.75s-.130404 9.237477-.34375 12.6875c-.106668 1.725011-.273549 3.152589-.46875 4.125-.07254.361354-.140184.598327-.21875.812503-.06644-.18067-.125369-.338185-.1875-.625003-.186392-.860454-.302214-2.150627-.40625-3.6875-.208068-3.073746-.315006-7.187746-.375-11.3125-.05999-4.124754-.08469-8.262321-.28125-11.375-.09828-1.55634-.244345-2.838707-.4375-3.78125-.09659-.471272-.189679-.848349-.34375-1.15625-.07703-.15395-.172063-.309353-.3125-.4375-.140436-.128147-.392746-.25-.65625-.25-.227453 0-.418904.07939-.5625.1875-.143597.108112-.232859.243792-.3125.375-.159281.262416-.280453.558235-.375.9375-.189092.75853-.310321 1.801135-.40625 3.03125-.191859 2.46023-.245485 5.719374-.3125 8.96875-.067 3.249376-.159063 6.494179-.375 8.90625-.107973 1.206035-.253539 2.215545-.4375 2.875-.07587.271965-.178131.430235-.25.5625-.05677-.09188-.06168-.165951-.125-.34375-.174857-.491064-.355399-1.258674-.46875-2.1875-.2267-1.857653-.318168-4.396276-.40625-6.90625-.08808-2.509974-.183972-5.012859-.375-6.90625-.09551-.946695-.192842-1.721172-.375-2.3125-.09107-.295664-.208197-.563444-.375-.78125-.166802-.217806-.514483-.439179-.90625-.40625-.292988.02463-.452478.180328-.5625.3125-.110028.132172-.187368.282726-.25.4375-.125261.309548-.225434.703375-.3125 1.1875-.17413.96825-.29662 2.307995-.40625 3.90625-.21926 3.196511-.314237 7.427981-.4375 11.65625s-.251592 8.426112-.46875 11.593753c-.105058 1.53238-.281866 2.78484-.4375 3.6875-.03079-.20969-.03385-.31113-.0625-.5625-.162948-1.42949-.301812-3.52991-.40625-6.031253-.208874-5.002693-.321051-11.709701-.4375-18.4375s-.244582-13.482284-.46875-18.59375c-.112086-2.555733-.258889-4.680355-.4375-6.21875-.08931-.769197-.162887-1.384697-.28125-1.84375-.05919-.229526-.131561-.424059-.21875-.59375-.0872-.169691-.214712-.373173-.59375-.46875-.185656-.04681-.390549-.01666-.53125.0625-.1407.07916-.225564.169602-.28125.25-.111379.160795-.161889.304864-.21875.5-.113729.390272-.201802.946938-.28125 1.625-.158897 1.356124-.283568 3.288016-.375 5.625-.182861 4.673968-.27907 10.937891-.375 17.21875-.09594 6.280859-.166611 12.567118-.40625 17.28125-.119821 2.357066-.273135 4.334523-.46875 5.687503-.06126.42376-.15092.64512-.21875.9375-.0416-.17948-.08684-.27183-.125-.5-.17756-1.06158-.302834-2.632505-.40625-4.500003-.206835-3.734996-.293907-8.71875-.375-13.71875-.08109-5-.166505-10.016246-.375-13.78125-.104247-1.882502-.24918-3.436581-.4375-4.5625-.09416-.562959-.17255-1.025104-.3125-1.375-.06997-.174948-.124165-.323925-.25-.46875-.125834-.144825-.377106-.3125-.6875-.3125-.447862 0-.737031.299521-.90625.5625-.169221.262979-.304297.557281-.40625.9375-.203905.760438-.361224 1.800398-.46875 3.03125-.215055 2.461703-.269683 5.718438-.34375 8.96875-.07406 3.250312-.14674 6.491603-.34375 8.90625-.0985 1.207323-.206957 2.2116-.375 2.875-.07252.28627-.150663.461432-.21875.59375-.03275-.04264-.08775-.05134-.125-.125-.141086-.278979-.253961-.781743-.34375-1.375-.17958-1.186513-.259494-2.83132-.3125-4.46875-.053-1.63743-.08845-3.268131-.3125-4.53125-.112026-.631559-.275503-1.161632-.53125-1.59375-.127873-.216059-.302363-.412653-.53125-.5625-.228888-.149847-.510693-.238807-.8125-.21875-.387514.02575-.692019.265034-.875.5-.18298.234966-.330071.488009-.4375.8125-.214859.648982-.331175 1.520591-.4375 2.53125-.212654 2.021318-.283757 4.655424-.34375 7.28125-.05999 2.625826-.120179 5.239385-.3125 7.15625-.09616.958433-.210655 1.754364-.375 2.25-.02669.0805-.0661.09281-.09375.15625-.08185-.236819-.17363-.512428-.25-.9375-.182859-1.017779-.324995-2.50393-.4375-4.28125-.225013-3.554639-.310243-8.292328-.40625-13.03125-.09601-4.738922-.208691-9.46798-.40625-13.03125-.09878-1.781635-.203219-3.278423-.375-4.34375-.08589-.532664-.185575-.949266-.3125-1.28125-.06345-.165992-.133456-.328021-.25-.46875-.116539-.140729-.341036-.3125-.65625-.3125-.297127 0-.538058.148268-.65625.28125-.118191.132982-.186574.283981-.25.4375-.126851.307038-.19571.704822-.28125 1.1875-.171082.965355-.303214 2.300039-.40625 3.90625-.206072 3.212422-.326875 7.461202-.4375 11.71875-.110628 4.257548-.213687 8.522613-.4375 11.6875-.111909 1.582444-.232993 2.895904-.40625 3.78125-.04724.241419-.106085.360443-.15625.53125-.0095-.02884-.02208-.03155-.03125-.0625-.149187-.502858-.281218-1.260157-.375-2.1875-.187563-1.854686-.252971-4.350191-.34375-6.84375-.09078-2.493559-.203681-4.978187-.4375-6.875-.116915-.948407-.252603-1.739561-.46875-2.34375-.108077-.302094-.252258-.561495-.4375-.78125s-.49544-.4375-.875-.4375c-.285808 0-.525365.144105-.65625.28125-.130888.137145-.211246.275187-.28125.4375-.140009.324627-.224979.741585-.3125 1.25-.17504 1.016829-.292562 2.434303-.375 4.125-.164877 3.381395-.204018 7.852756-.25 12.34375-.04599 4.490994-.08026 8.983813-.3125 12.343753-.116128 1.67996-.319623 3.08083-.53125 4.03125-.08391.37686-.16022.63128-.25.84375-.101485-.28039-.220048-.66024-.3125-1.1875-.21366-1.21851-.348029-3.00603-.46875-5.15625-.241442-4.300446-.345284-10.047931-.40625-15.812503-.06096-5.764572-.08663-11.547054-.25-15.875-.08169-2.163973-.180279-3.939856-.34375-5.21875-.08173-.639447-.221205-1.148881-.34375-1.53125-.06126-.191184-.10583-.375025-.21875-.53125-.112918-.156225-.359319-.364447-.71875-.34375-.34564.0199-.551784.224676-.65625.375-.104471.150324-.159314.316133-.21875.5-.118873.367734-.201151.835253-.28125 1.4375-.1602 1.204493-.260834 2.891579-.34375 4.90625-.165833 4.029341-.241665 9.368208-.3125 14.71875-.07084 5.350542-.131138 10.701858-.375 14.718753-.121932 2.00844-.321138 3.68779-.53125 4.84375-.09497.52253-.177193.91286-.28125 1.1875-.06296-.14925-.125785-.25848-.1875-.5-.193283-.75642-.35099-1.92321-.46875-3.3125-.235525-2.778598-.29426-6.517535-.375-10.281253s-.164945-7.557821-.34375-10.40625c-.0894-1.424214-.20702-2.604705-.375-3.46875-.08399-.432022-.178302-.777397-.3125-1.0625-.0671-.142552-.153365-.281888-.28125-.40625-.127886-.124362-.359791-.25-.625-.25-.359815 0-.647592.208466-.8125.40625-.164909.197784-.280745.425692-.375.6875-.188506.523617-.267355 1.188165-.375 2-.215289 1.62367-.384412 3.750336-.5 5.875-.115587 2.124664-.189332 4.250082-.40625 5.8125-.101014.727639-.235323 1.311786-.375 1.71875-.05655-.232676-.136303-.429668-.1875-.78125-.1552-1.065812-.250835-2.631339-.34375-4.5-.185831-3.737322-.27927-8.718033-.375-13.71875s-.231571-10.015421-.46875-13.78125c-.11859-1.882914-.266214-3.435504-.46875-4.5625-.101261-.563498-.196041-1.024079-.34375-1.375-.07386-.175461-.15077-.324786-.28125-.46875s-.38253-.3125-.6875-.3125z" fill="#24ffbf" fill-opacity=".255144"/><path d="m15.232312 16.971246c-1.109835 0-1.788169.66877-2.09375 1.03125-.206668.245146-.45155.583531-.625 1.03125-.222754.574971-.359674 1.167015-.46875 1.84375-.223024 1.3837-.359771 3.159626-.46875 5.25-.169613 3.253444-.21627 7.594317-.28125 11.8125-.09279-.101244-.133889-.216211-.25-.3125-.344004-.285276-.966876-.65625-1.7812501-.65625-.915867 0-1.619263.491693-2 .90625-.196504.213949-.449925.489462-.625.90625-.256.609417-.281117 1.139027-.34375 1.5-.03528.203337-.06002.460489-.09375.6875v30.812503c.02083-.00013.04333.0005.0625 0 .02396-.00066.06404.002.09375 0 .01485-.001.01657-.0247.0625-.0312.01148-.002.06241.00002.0625 0 0 0 .000308-.0297 0-.0312.01578-.002.01565-.0294.03125-.0312.0014.006 0 .0625 0 .0625l.0625-.0312h.03125s-.02867-.0549-.03125-.0625c.583242-.0879 1.145532-.24905 1.4375-.46875.222603-.1675.538251-.46251.8125-.90625.361634-.5851.535394-1.16796.65625-1.625.275972-1.04365.457499-2.30626.5937501-3.781253.004-.0439-.004-.11203 0-.15625.46248.53397 1.160412 1.062503 2.1875 1.062503 1.064318 0 1.795978-.596293 2.1875-1.093753.354381-.45027.487822-.91075.53125-1.03125.20244-.56168.306416-1.14149.40625-1.8125.08221-.55256.122192-1.45902.1875-2.15625.104937.3027.242496.65773.5 1 .313558.41682.981567 1.09375 2.15625 1.09375.811461 0 1.487403-.37803 2-.84375.05701 2.46969.08211 5.050623.25 7.031253.127133 1.49987.341973 2.76467.59375 3.75.101109.39571.239771.97788.625 1.59375.26297.4204.6016.69612.90625.90625.390681.26947 1.059124.63742 1.875.5625.970587-.0893 1.58289-.63104 1.90625-1 .198542-.22654.352886-.52151.5-.8125.03502.23999.05513.62352.09375.84375.118886.678.221052 1.34363.5 2 .147038.34604.368723.72472.6875 1.0625.401928.42587 1.174571.95021 2.1875.90625.664114-.0289 1.322221-.286 1.8125-.71875.398141-.35143.639239-.73365.78125-1 .343108-.64353.446001-1.25805.5625-1.78125.261056-1.1724.471434-2.66793.59375-4.4375.172603-2.49706.180009-5.759893.21875-8.906253.435391.41271.978774.79754 1.78125.84375.89487.0515 1.638566-.36538 2.0625-.78125.380114-.37288.578342-.76592.6875-1 .06717.68648.115351 1.51824.21875 2.09375.116546.64864.259155 1.2444.46875 1.75.03778.0911.203928.52234.5625.9375.432688.50098 1.111672.940093 1.9375 1.000003 1.11393.0808 1.996912-.494343 2.5-1.093753.355097-.42307.639673-.91628.8125-1.4375.299019-.90179.399182-1.80764.5-2.8125.105267-1.0492.110748-2.41909.15625-3.65625.08964.0923.111736.19532.21875.28125.536895.43114 1.22806.71875 2 .71875.677865 0 1.245786-.23098 1.6875-.5625.2213-.16608.374752-.36728.53125-.5625.04881 2.2347.05498 4.76498.15625 6.59375.106853 1.92959.293276 3.545303.5 4.781253.102318.61173.20768 1.17541.4375 1.75.03239.081.17968.55942.5625 1 .426156.49044 1.172622 1 2.125 1 1.09554 0 1.85939-.61925 2.25-1.15625.325616-.44765.466612-.90256.53125-1.09375.04525.568.07152 1.40578.125 1.875.08876.77866.190001 1.39423.34375 1.96875.08155.30468.210943.67866.4375 1.0625.126177.21386.325971.50192.6875.78125.414116.32006 1.103729.62817 1.84375.5625.977066-.0868 1.563198-.62385 1.875-1 .16279-.19638.385955-.53152.5625-.96875.241414-.59788.294866-1.11641.375-1.5625.19011-1.0583.386389-2.4365.5-4.09375.141866-2.06936.20389-4.815013.28125-7.406253.46203.50232 1.180589 1.03125 2.1875 1.03125 1.058952 0 1.796243-.56791 2.28125-1.15625.01315.21652.01715.54165.03125.75.107907 1.59412.256982 2.97189.5 4.093753.112525.51945.229141 1.08172.53125 1.65625.174464.33177.411555.64287.75.9375.380654.33139 1.045633.71875 1.875.71875.786532 0 1.461496-.3358 1.9375-.78125.33381-.31239.582974-.65822.75-1 .291529-.59656.418278-1.18723.53125-1.750003.240293-1.19704.420345-2.7065.53125-4.5.03584-.57963.03393-1.46038.0625-2.09375.129517.16024.221489.31943.40625.46875.397056.32091.999251.65625 1.78125.65625.943986 0 1.724454-.46113 2.21875-1 .106251-.11583.134377-.22472.21875-.34375.01994.22282.0091.53731.03125.75.110579 1.0622.243816 2.01683.5 2.90625.109759.38103.238346.86039.5625 1.34375.41889.62464 1.261821 1.34375 2.46875 1.34375.700616 0 1.373345-.29251 1.84375-.6875.169851-.14262.172436-.23681.28125-.375.03069.61412.02387 1.46711.0625 2.031253.122595 1.79016.302995 3.28767.5625 4.5.124705.58262.262676 1.16712.5625 1.75.103764.20172.307012.66651.75 1.0625.48544.4339 1.167993.71875 1.9375.71875v-38.500203c-.07661-.444355-.159928-.885228-.34375-1.34375-.07566-.188847-.219465-.611616-.5625-1-.367899-.416409-1.085392-.96875-2.09375-.96875-.726365 0-1.393246.288357-1.84375.6875-.319284.282881-.571998.597184-.75.9375-.300117.573799-.38176 1.109184-.46875 1.5-.214163.962181-.361682 2.103813-.46875 3.46875-.01578.201181-.01673.509332-.03125.71875-.425611-.616793-1.251007-1.3125-2.4375-1.3125-.995881 0-1.678035.51515-2.09375.96875-.05945-1.848604-.09616-3.863757-.21875-5.375-.113007-1.393211-.29004-2.593741-.53125-3.5625-.12348-.495932-.29132-.993854-.59375-1.5-.111995-.187438-.349115-.573716-.78125-.90625-.425054-.327087-1.069831-.625-1.78125-.625-.960937 0-1.631299.497018-2 .875-.302343.309958-.529356.643662-.6875 1-.256774.578572-.336649 1.158864-.4375 1.71875-.103564.574952-.145801 1.439091-.21875 2.15625-.109649-.219141-.324711-.609195-.71875-.96875-.457119-.417118-1.147309-.78125-1.9375-.78125-.675063 0-1.274425.227979-1.71875.5625-.462469.348186-.703938.778878-.78125.90625-.26742.440575-.46087.935719-.59375 1.46875-.2379.95432-.369369 2.069371-.46875 3.34375-.02204.282669-.01265.701329-.03125 1-.03019-.0433-.02957-.082-.0625-.125-.513879-.671011-1.437505-1.250809-2.5625-1.15625-.990474.08326-1.574838.639408-1.875 1-.02977.03576-.03542.05809-.0625.09375-.07853-3.484694-.127354-7.328436-.25-10.125-.113176-2.580602-.249327-4.722998-.4375-6.34375-.09059-.780204-.178056-1.451135-.34375-2.09375-.08949-.34703-.217673-.662554-.375-.96875-.271052-.527466-.751197-1.201135-1.8125-1.46875-.596296-.150345-1.348627-.08131-1.9375.25-.453643.255227-.700265.591471-.875.84375-.250512.361658-.406511.710411-.5 1.03125-.169822.582759-.290559 1.216823-.375 1.9375-.169988 1.450788-.282603 3.419591-.375 5.78125-.01837.469676-.01455 1.219509-.03125 1.71875-.08424-.200349-.122825-.36602-.375-.65625-.426193-.490514-1.17267-1-2.125-1-1.321432 0-2.132454.897556-2.5 1.46875-.276048.428994-.508792.918828-.65625 1.46875-.249509.930513-.41756 2.042333-.53125 3.34375-.184818 2.115588-.222727 4.791991-.28125 7.4375-.07553-.0601-.103457-.132479-.1875-.1875-.558954-.365932-1.248024-.581224-2-.53125-.952258.06328-1.598454.584829-2.03125 1.0625-.08141-3.514056-.161424-7.118866-.3125-9.84375-.09934-1.791771-.208652-3.337061-.40625-4.5625-.101696-.630686-.253096-1.173923-.4375-1.65625-.07306-.191126-.199237-.599087-.53125-1-.394151-.475964-1.134634-1-2.125-1-.894022 0-1.644138.431626-2.09375.9375-.360463.405572-.507132.834735-.5625.96875-.251688.609201-.297106 1.154218-.375 1.59375-.190764 1.076415-.362773 2.441702-.46875 4.09375-.133061 2.07426-.200253 4.851809-.28125 7.46875-.456685-.507909-1.190617-1.0625-2.21875-1.0625-.885524 0-1.603931.427243-2.03125.875-.197483.206924-.310538.43646-.4375.65625-.01707-.611487-.0098-1.495156-.03125-2.0625-.08229-2.179938-.164308-4.00241-.34375-5.40625-.09993-.781818-.290296-1.415686-.4375-1.875-.02171-.06776-.150504-.578972-.5-1.0625-.406815-.562839-1.2317-1.189036-2.34375-1.125-1.085087.06247-1.753815.729591-2.09375 1.21875-.254233.365818-.414162.703207-.5.96875-.184916.572038-.259122 1.14495-.34375 1.78125-.17718 1.332161-.291394 3.062314-.375 5.09375-.06204 1.507508-.08388 3.675646-.125 5.46875-.130108-.236053-.245223-.502241-.5-.75-.435121-.423131-1.13546-.78125-1.9375-.78125-.790748 0-1.364676.343493-1.8125.71875-.01093-.473036-.02188-.854409-.03125-1.34375-.09592-5.010428-.227761-10.048673-.46875-13.875-.121181-1.92405-.306544-3.499635-.53125-4.75-.09914-.551712-.165499-1.166291-.4375-1.8125-.130995-.311191-.315612-.658639-.625-1-.404157-.445925-1.157855-.9375-2.09375-.9375z" fill="#24ffbf" fill-opacity=".255144" opacity=".1"/><path d="m15.232312 18.096246c-.628901 0-1.06507.405636-1.25.625-.15786.187251-.321945.420474-.4375.71875-.183272.47306-.303974.990452-.40625 1.625-.20857 1.294022-.329065 3.045054-.4375 5.125-.217108 4.164483-.304122 9.685617-.375 15.1875-.05751 4.463595-.132972 8.517526-.25 12.21875-.03037-.8091-.09723-1.42257-.125-2.25-.100755-3.002035-.219628-6.014584-.40625-8.3125-.09257-1.139888-.189591-2.115279-.375-2.90625-.09118-.389042-.190736-.731228-.375-1.0625-.09961-.179089-.257679-.387462-.46875-.5625-.230262-.190952-.5827481-.40625-1.0625001-.40625-.566917 0-.943255.265309-1.1875.53125-.153044.166631-.311334.367792-.40625.59375-.172772.411289-.207789.82662-.28125 1.25-.157041.905092-.293388 2.099884-.375 3.53125-.162817 2.855678-.221904 6.59988-.3125 10.34375-.0906 3.74398-.214925 7.5022-.46875 10.25-.0098.106509-.02096.178713-.03125.28125v5.781253c.02843 0 .06445 0 .0625 0 .464006 0 .827731-.19834 1.0625-.375.178943-.13465.389265-.31345.5625-.59375.258173-.41771.381213-.86328.5-1.3125.24954-.94369.429468-2.1536.5625-3.593753.257817-2.79102.379083-6.42033.46875-10.0625.07209 1.75984.09785 3.6502.25 5.0625.125613 1.16597.293717 2.12128.5312501 2.90625.119629.39535.284149.77437.53125 1.125.276861.39286.799515.84375 1.53125.84375.629536 0 1.084913-.36708 1.3125-.65625.202167-.25687.272256-.52038.34375-.71875.171091-.4747.281562-.96573.375-1.59375.189484-1.27358.338722-3.03719.4375-5.125.197071-4.16535.24168-9.690133.3125-15.1875.04511-3.501896.162445-6.462154.25-9.59375.08856 2.552361.196832 4.8164.25 7.59375.09569 4.998883.18684 10.02828.375 13.8125.09367 1.8839.171295 3.47194.34375 4.65625.08786.60337.237844 1.07311.375 1.46875.08498.24513.189867.48296.34375.6875.148709.19768.607518.65625 1.25.65625.613859 0 1.107476-.27635 1.4375-.65625.262398-.30205.389587-.61264.5-.90625.228604-.6079.413108-1.36779.53125-2.21875.199542-1.43727.255561-3.24516.34375-5.03125.06145 1.90227.143198 3.59107.1875 5.65625.08072 3.7625.131576 7.50321.375 10.375003.122589 1.44626.329921 2.6523.5625 3.5625.108398.42424.19957.85091.46875 1.28125.155568.2487.367972.43802.59375.59375.300309.20714.659149.3894 1.15625.34375.550063-.0506.961334-.4026 1.15625-.625.182268-.20797.32768-.4278.4375-.6875.211693-.50061.293537-1.06739.40625-1.6875.231324-1.27265.438272-2.95371.5625-5 .173137-2.851883.193178-6.687513.25-10.343753.06484 4.66811.144204 9.41452.34375 12.968753.12232 2.17871.294699 3.99468.53125 5.34375.117435.66973.228332 1.25782.4375 1.75.100477.23646.252717.48984.46875.71875.262794.27845.699122.58912 1.3125.5625.449189-.0195.816645-.16533 1.125-.4375.261107-.23047.425788-.4897.53125-.6875.244615-.4588.35002-.96678.46875-1.5.24435-1.09737.443155-2.52341.5625-4.25.238051-3.4439.266511-7.945953.3125-12.437503.03224-3.14806.116838-5.87858.1875-8.625.0094.240564.02246.414923.03125.65625.09047 2.48479.145702 4.97912.34375 6.9375.09913.98029.234419 1.81549.4375 2.5.08682.29266.186903.63778.4375 1 .261446.3779.733811.80323 1.4375.84375.553936.03187.944962-.20017 1.21875-.46875.243251-.23862.390809-.51832.46875-.6875.195302-.42393.249079-.82873.34375-1.3125.196199-1.00259.385207-2.3455.5-3.96875.228453-3.23048.326891-7.492985.4375-11.75.01453-.559264.04739-.974885.0625-1.53125.02565 1.218181.06858 2.164015.09375 3.40625.09606 4.741747.208785 9.51184.4375 13.125.113564 1.79408.228827 3.27604.4375 4.4375.106963.59531.243736 1.10797.40625 1.5.06338.1529.146138.39127.375.65625.271302.31412.66146.55559 1.1875.59375.696431.05053 1.239844-.30307 1.5625-.6875.264304-.3149.465507-.67574.59375-1.0625.244045-.736.337203-1.59408.4375-2.59375.203754-2.03083.25255-4.626.3125-7.25.05242-2.29518.137841-4.439701.28125-6.25.04073.702121.100088 1.261673.125 2.03125.05305 1.63888.108074 3.30564.3125 4.65625.09725.64259.197359 1.24532.5 1.84375.151269.29911.34836.59651.65625.84375.357813.28733.80949.46875 1.3125.46875.408615 0 .769832-.14755 1.03125-.34375.228495-.17148.396015-.37247.53125-.59375.230214-.37668.337511-.76151.4375-1.15625.210857-.83243.366345-1.90113.46875-3.15625.204083-2.501324.269716-5.751155.34375-9 .0167-.732651.04538-1.278544.0625-2 .09925 2.907859.228154 5.694871.28125 8.96875.08104 4.99719.13356 10.01693.34375 13.8125.105137 1.8986.271955 3.479663.46875 4.656253.09893.59146.199477 1.09241.375 1.53125.06487.1622.148758.42712.375.6875.266691.30692.691558.59375 1.28125.59375.663901 0 1.123218-.38432 1.34375-.6875.213279-.29321.306876-.57975.375-.78125.159065-.47049.298933-1.03899.40625-1.78125.210893-1.45864.347807-3.495843.46875-5.875003.24232-4.76686.310335-11.06379.40625-17.34375.01486-.972665.04728-1.691005.0625-2.65625.03585 1.826875.0928 3.264741.125 5.125.116439 6.72718.227103 13.42962.4375 18.46875.105225 2.520283.234257 4.647343.40625 6.156253.08547.74984.179511 1.31555.3125 1.8125.06586.24607.162572.52724.3125.78125.07264.12312.211009.3179.40625.46875.271897.21014.593639.35411 1.0625.3125.537185-.0477.936329-.40384 1.09375-.59375.132572-.15993.291711-.37258.40625-.65625.173267-.42911.225737-.86076.3125-1.34375.181996-1.01313.357777-2.34998.46875-3.96875.221365-3.228993.314337-7.462693.4375-11.687503.06179-2.11975.175241-3.83008.25-5.8125.08271 2.06242.145967 4.16054.34375 5.78125.11947.97894.275115 1.81193.53125 2.53125.135016.37919.31384.73528.5625 1.03125.296623.35306.795022.71875 1.46875.71875.754653 0 1.312114-.45565 1.59375-.875.27206-.40509.362031-.80494.46875-1.1875.236954-.84942.387788-1.93406.5-3.1875.224275-2.50523.307892-5.746144.375-9 .0047-.229145.02657-.396307.03125-.625.0228 1.446544.0719 2.591205.09375 4.09375.06008 4.13077.16226 8.29477.375 11.4375.106253 1.56968.24688 2.88202.46875 3.90625.108671.501663.221832.964863.4375 1.375003.105714.20103.277762.43153.5.625.250283.21789.619698.4375 1.125.4375.48894 0 .895125-.19514 1.1875-.46875.222797-.2085.378994-.43989.5-.6875.218697-.44752.3281-.92377.4375-1.468753.224216-1.11695.39108-2.58234.5-4.34375.217581-3.51865.290912-8.18457.34375-12.8125.02882-2.524632.108685-4.582791.15625-6.90625.02269.874873.07489 1.546044.09375 2.4375.07394 3.49435.108669 6.9971.3125 9.6875.102073 1.34717.262127 2.49654.46875 3.375.100058.42536.187684.80237.40625 1.1875.11026.19427.2758.41255.5.59375.257935.20847.629216.40625 1.09375.40625.613017 0 1.082542-.2721 1.40625-.625.264255-.28809.438503-.62394.5625-.9375.249119-.62998.410563-1.3467.53125-2.1875.241453-1.68218.359271-3.83871.46875-5.96875.0066-.127891.02492-.216105.03125-.34375.04817 1.004623.114863 1.80167.15625 2.84375.109239 2.75052.215877 5.49596.4375 7.625.109463 1.05148.219666 1.96247.4375 2.71875.10218.35472.216044.70103.4375 1.03125.257362.38377.782224.84375 1.53125.84375.463446 0 .816741-.14741 1.125-.40625.24869-.20882.392877-.45656.46875-.59375.185895-.33613.327401-.72168.4375-1.1875.20897-.88411.356552-2.03609.46875-3.375.20044-2.39193.286368-5.51672.375-8.625.01768 1.21943.04635 2.16116.0625 3.40625.06002 4.62788.133663 9.28845.375 12.812503.120575 1.76066.29063 3.21965.53125 4.34375.118677.55446.242711 1.02931.46875 1.46875.110277.21438.249245.4946.5.71875.284291.25411.696485.4375 1.1875.4375v-7.718753c-.207346-3.350378-.286858-7.677044-.34375-12.0625-.05999-4.623128-.112079-9.27231-.28125-12.78125-.08472-1.757483-.228597-3.215392-.40625-4.3125-.08864-.5474-.173267-1.012251-.34375-1.4375-.07326-.182852-.173226-.427802-.375-.65625-.233643-.264514-.652526-.59375-1.25-.59375-.460351 0-.820592.164234-1.09375.40625-.225122.199455-.388672.412155-.5.625-.203818.389683-.283021.80552-.375 1.21875-.195318.877514-.332651 1.975851-.4375 3.3125-.210131 2.678837-.304098 6.188657-.40625 9.6875-.0548 1.87695-.150741 3.39687-.21875 5.125-.03425-.7634-.09394-1.34295-.125-2.125-.109229-2.750291-.215793-5.52641-.4375-7.65625-.107876-1.036246-.182075-1.940463-.40625-2.71875-.114858-.398738-.27394-.740765-.46875-1.03125-.257359-.383756-.78222-.84375-1.53125-.84375-.658732 0-1.125869.383112-1.375.6875-.226742.27703-.384313.607027-.5.9375-.206661.590353-.392476 1.302117-.5 2.15625-.212415 1.687339-.266426 3.825056-.375 5.9375-.022.428136-.06903.733108-.09375 1.15625-.08183-2.108599-.167365-4.196594-.21875-6.625-.0741-3.502053-.157122-7.001628-.375-9.6875-.109531-1.35036-.280676-2.49414-.5-3.375-.109749-.440783-.246533-.846848-.46875-1.21875-.09584-.160408-.248176-.399968-.5-.59375-.289097-.222466-.624934-.375-1.09375-.375-.544006 0-.966009.304184-1.1875.53125-.210125.215417-.362395.447855-.46875.6875-.186185.419518-.275411.884619-.375 1.4375-.200553 1.113398-.342984 2.587626-.4375 4.34375-.189256 3.516423-.228465 8.158038-.28125 12.78125-.03474 3.04298-.131215 5.61698-.21875 8.3125-.07254-2.11837-.185133-4.00127-.21875-6.3125-.05993-4.120309-.08222-8.285759-.28125-11.4375-.09964-1.577833-.263259-2.872259-.46875-3.875-.09993-.487573-.194731-.921043-.40625-1.34375-.09779-.195446-.226389-.435099-.46875-.65625-.301258-.274896-.684913-.46875-1.1875-.46875-.40791 0-.768787.146148-1.03125.34375-.269303.202754-.41004.445541-.5.59375-.202897.334273-.359479.717923-.46875 1.15625-.210618.84488-.340274 1.909508-.4375 3.15625-.195116 2.50199-.24553 5.752785-.3125 9-.04995 2.422625-.16351 4.56867-.28125 6.625-.07039-1.25547-.170899-2.35519-.21875-3.71875-.08814-2.511631-.179722-5.001985-.375-6.9375-.09655-.957021-.190887-1.76963-.40625-2.46875-.107359-.348546-.25319-.708973-.5-1.03125-.328865-.429424-.874747-.779184-1.59375-.71875-.541437.04552-.939551.408507-1.09375.59375-.180969.21739-.294693.457797-.375.65625-.157128.388297-.251311.829746-.34375 1.34375-.184974 1.028549-.327196 2.360668-.4375 3.96875-.221411 3.227874-.314338 7.4627-.4375 11.6875-.07645-3.254275-.188507-6.166055-.25-9.71875-.116464-6.728661-.243839-13.496581-.46875-18.625-.11256-2.56655-.25507-4.709959-.4375-6.28125-.08947-.770589-.171692-1.391399-.3125-1.9375-.0709-.274939-.163677-.521174-.28125-.75-.11248-.218886-.501658-.7257-1.09375-.875-.393362-.09918-.745981-.07066-1.09375.125-.244559.137593-.420579.340216-.53125.5-.172354.248823-.281062.503616-.34375.71875-.139058.477191-.231052 1.054869-.3125 1.75-.163347 1.394107-.283144 3.339681-.375 5.6875-.183504 4.690396-.279069 10.969097-.375 17.25-.06329 4.143217-.184524 7.68919-.28125 11.375-.04956-2.13636-.119598-3.92765-.15625-6.1875-.0811-5.00042-.165049-10.021201-.375-13.8125-.105138-1.898597-.271956-3.479665-.46875-4.65625-.09432-.563921-.153439-1.055445-.34375-1.53125-.06487-.162203-.14877-.42713-.375-.6875-.266704-.306955-.691567-.59375-1.28125-.59375-.793628 0-1.320729.56177-1.5625.9375-.210073.326465-.379595.707218-.5 1.15625-.22387.834897-.390063 1.897795-.5 3.15625-.219225 2.509436-.269754 5.752801-.34375 9-.04668 2.048759-.142243 3.768615-.21875 5.59375-.04279-1.342025-.08206-2.689577-.28125-3.8125-.121653-.685833-.301447-1.328315-.625-1.875-.180348-.304723-.412164-.591326-.75-.8125-.355261-.23258-.827434-.375986-1.3125-.34375-.677839.04504-1.155078.449842-1.4375.8125-.22503.288963-.426497.62045-.5625 1.03125-.253727.766382-.361122 1.664453-.46875 2.6875-.218107 2.07315-.283708 4.71577-.34375 7.34375-.0045.19591-.0267.33585-.03125.53125-.11039-2.92581-.213153-5.857463-.28125-9.21875-.09605-4.740761-.207494-9.446386-.40625-13.03125-.09912-1.787832-.19291-3.308237-.375-4.4375-.09079-.563026-.21916-1.029886-.375-1.4375-.07128-.18648-.169252-.439055-.375-.6875-.230867-.278788-.653049-.59375-1.25-.59375-.555118 0-.974307.252308-1.25.5625-.213167.239843-.304985.486784-.375.65625-.179292.43397-.227256.862745-.3125 1.34375-.180542 1.018735-.333509 2.347659-.4375 3.96875-.207629 3.236695-.326842 7.49119-.4375 11.75-.05873 2.260354-.145289 4.094637-.21875 6.1875-.08642-2.233908-.190931-4.472014-.40625-6.21875-.119422-.968743-.277451-1.790564-.53125-2.5-.134335-.37549-.311235-.733171-.5625-1.03125-.297511-.352941-.792593-.71875-1.46875-.71875-.546486 0-.94889.248483-1.21875.53125-.20088.210483-.34535.442588-.4375.65625-.190456.441595-.254019.916244-.34375 1.4375-.185636 1.078385-.323093 2.513303-.40625 4.21875-.166206 3.408649-.204026 7.88477-.25 12.375-.04179 4.0808-.103656 7.95655-.28125 11.156253-.0076-.12954-.02382-.18012-.03125-.3125-.239972-4.274253-.345325-10.020543-.40625-15.781253-.06093-5.76139-.08576-11.555345-.25-15.90625-.08197-2.171497-.173803-3.951694-.34375-5.28125-.08923-.698126-.243551-1.277347-.375-1.6875-.05053-.157704-.118378-.438198-.34375-.75-.235035-.325177-.697235-.695278-1.375-.65625-.632763.03643-1.061044.446847-1.25.71875-.184398.265332-.28334.500619-.34375.6875-.145831.451127-.230166.974697-.3125 1.59375-.167081 1.256233-.260505 2.946093-.34375 4.96875-.166591 4.047758-.241658 9.39896-.3125 14.75-.06995 5.28314-.140819 10.50243-.375 14.46875-.123666-2.4095-.219417-4.96141-.28125-7.84375-.08075-3.76411-.163201-7.56129-.34375-10.4375-.09039-1.439919-.22596-2.635134-.40625-3.5625-.08997-.462774-.197649-.873219-.375-1.25-.09325-.198101-.227019-.420317-.4375-.625-.276666-.269042-.646116-.46875-1.15625-.46875-.659355 0-1.128805.354744-1.40625.6875-.238171.285651-.385738.62012-.5.9375-.235995.655528-.330617 1.350164-.4375 2.15625-.157381 1.186935-.239076 2.747805-.34375 4.25-.09978-3.09132-.213053-6.187564-.28125-9.75-.09581-5.004834-.230024-10.053356-.46875-13.84375-.119447-1.896518-.287136-3.440532-.5-4.625-.103149-.574007-.17918-1.097279-.375-1.5625-.08751-.207879-.229656-.458177-.4375-.6875-.261959-.289031-.659314-.5625-1.25-.5625z" fill="#24ffbf" fill-opacity=".255144" opacity=".25"/><rect height="66" rx="12" style="opacity:.1;stroke:#fefefe;stroke-width:.5;stroke-linecap:round;clip-path:url(#f);fill:url(#d);filter:url(#c)" width="66" x="15" y="15"/><g stroke-width=".074649"><path d="m28.280233 64.37689 9.834041 5.799631-9.833919 5.596445z" fill="#ccebd2"/><path d="m38.114274 70.176521-9.834041-5.799631 9.833904-5.596439z" fill="#ccebd2"/><path d="m28.280097 52.980819 9.83404 5.799632-9.833904 5.596439z" fill="#ccebd2"/><path d="m28.280233 64.37689-9.834063-5.799629 9.833927-5.596442z" fill="#ccebd2"/><path d="m18.446041 47.181177 9.834056 5.799642-9.833927 5.596442z" fill="#ccebd2"/><path d="m28.280097 52.980819-9.834056-5.799642 9.833919-5.596433z" fill="#ccebd2"/><path d="m18.445912 35.785113 9.834048 5.799631-9.833919 5.596433z" fill="#ccebd2"/><path d="m28.27996 41.584744-9.834048-5.799631 9.833917-5.596445z" fill="#ccebd2"/><path d="m28.279829 30.188668 9.83405 5.79963-9.833919 5.596446z" fill="#ccebd2"/><path d="m38.113879 35.988298-9.83405-5.79963 9.833908-5.59644z" fill="#ccebd2"/><path d="m38.113737 24.592228 9.834054 5.799633-9.833912 5.596437z" fill="#ccebd2"/><path d="m47.947791 30.391861-9.834054-5.799633 9.833925-5.596444z" fill="#ccebd2"/><path d="m18.44617 58.577261 9.834063 5.799629-9.833918 5.596445z" fill="#9eaea2"/><path d="m28.280355 75.772966-9.83404-5.799631 9.833918-5.596445z" fill="#9eaea2"/><path d="m67.615089 64.376891-9.834047 5.799631 9.833916 5.596443z" fill="#9eaea2"/><path d="m57.781042 70.176522 9.834047-5.799631-9.833918-5.59644z" fill="#9eaea2"/><path d="m67.61522 52.980819-9.834049 5.799632 9.833918 5.59644z" fill="#9eaea2"/><path d="m67.615089 64.376891 9.834055-5.79963-9.833924-5.596442z" fill="#9eaea2"/><path d="m77.44928 47.181177-9.83406 5.799642 9.833924 5.596442z" fill="#9eaea2"/><path d="m67.61522 52.980819 9.83406-5.799642-9.833924-5.596433z" fill="#9eaea2"/><path d="m77.449403 35.785113-9.834047 5.799631 9.833924 5.596433z" fill="#9eaea2"/><path d="m67.615356 41.584744 9.834047-5.799631-9.833912-5.596445z" fill="#9eaea2"/><path d="m67.615491 30.188668-9.834044 5.79963 9.833909 5.596446z" fill="#9eaea2"/><path d="m57.781447 35.988298 9.834044-5.79963-9.833911-5.59644z" fill="#9eaea2"/><path d="m57.78158 24.592228-9.834056 5.799633 9.833923 5.596437z" fill="#9eaea2"/><path d="m47.947524 30.391861 9.834056-5.799633-9.833918-5.596444z" fill="#9eaea2"/></g><path d="m77.449144 58.577261-9.834055 5.79963 9.833914 5.596443z" fill="#ccebd2"/><path d="m67.614958 75.772965 9.834045-5.799631-9.833914-5.596443z" fill="#ccebd2" stroke-width=".074649"/></svg>