<svg height="96" width="96" xmlns="http://www.w3.org/2000/svg" xmlns:xlink="http://www.w3.org/1999/xlink"><linearGradient id="a"><stop offset="0" stop-color="#fefefe"/><stop offset="1" stop-color="#fefefe" stop-opacity="0"/></linearGradient><filter id="b" color-interpolation-filters="sRGB" height="1.384" width="1.384" x="-.192" y="-.192"><feGaussianBlur stdDeviation="5.28"/></filter><linearGradient id="c" gradientUnits="userSpaceOnUse" x1="48" x2="48" xlink:href="#a" y1="20.220806" y2="138.66119"/><clipPath id="d"><rect height="84" rx="6" width="84" x="6" y="6"/></clipPath><linearGradient id="e" gradientTransform="scale(1.0058652 .994169)" gradientUnits="userSpaceOnUse" x1="45.447727" x2="45.447727" y1="92.539597" y2="7.01654"><stop offset="0"/><stop offset="1" stop-opacity=".588235"/></linearGradient><linearGradient id="f" gradientUnits="userSpaceOnUse" x1="48" x2="48" y1="90" y2="5.987717"><stop offset="0" stop-color="#dcdcdc"/><stop offset="1" stop-color="#f5f5f5"/></linearGradient><linearGradient id="g" gradientUnits="userSpaceOnUse" x1="31.714285" x2="31.714285" xlink:href="#a" y1="6" y2="74.09301"/><radialGradient id="h" cx="47.967342" cy="89.688721" gradientTransform="matrix(1.3341109 0 0 .95758929 -16.026413 2.111258)" gradientUnits="userSpaceOnUse" r="42" xlink:href="#a"/><linearGradient id="i" gradientTransform="matrix(1.0238095 0 0 1.0119048 -1.142857 -.083333)" gradientUnits="userSpaceOnUse" x1="40.716122" x2="40.716122" xlink:href="#e" y1="91.15094" y2="7.291349"/><linearGradient id="j" gradientUnits="userSpaceOnUse" x1="40.716122" x2="40.716122" xlink:href="#e" y1="91.15094" y2="7.291349"/><linearGradient id="k" gradientUnits="userSpaceOnUse" x1="47.726624" x2="47.726624" y1="78.923363" y2="16.640985"><stop offset="0" stop-color="#4d81cf"/><stop offset="1" stop-color="#9cb8e4"/></linearGradient><linearGradient id="l" gradientTransform="matrix(-.96032399 .27888679 .27888679 .96032399 111.43916 15.295347)" gradientUnits="userSpaceOnUse" x1="39.819206" x2="44.586384" xlink:href="#a" y1="13.055696" y2="29.471077"/><linearGradient id="m" gradientUnits="userSpaceOnUse" x1="25.83757" x2="25.97998" xlink:href="#a" y1="56.202038" y2="77.75106"/><linearGradient id="n" gradientUnits="userSpaceOnUse" x1="90.244123" x2="90.244123" xlink:href="#a" y1="45.178782" y2="64.319197"/><linearGradient id="o" gradientTransform="matrix(-1 0 0 1 80.94186 38.325122)" gradientUnits="userSpaceOnUse" x1="76.75824" x2="76.75824" xlink:href="#a" y1="27.409969" y2="56.865051"/><linearGradient id="p" gradientTransform="matrix(-1 0 0 1 85.59375 12.000001)" gradientUnits="userSpaceOnUse" x1="75.917961" x2="75.917961" xlink:href="#a" y1="63.13913" y2="76.550301"/><clipPath id="q"><path d="m16.00013 26.000145h63.999855v63.999855h-63.999855z"/></clipPath><linearGradient id="r" gradientUnits="userSpaceOnUse" x1="48" x2="48" xlink:href="#a" y1="80" y2="16"/><radialGradient id="s" cx="143" cy="-26" gradientTransform="matrix(1.0349557 -.01760103 .01790809 1.0530117 -4.533055 3.895252)" gradientUnits="userSpaceOnUse" r="4"><stop offset="0" stop-color="#f7d997"/><stop offset=".37649068" stop-color="#ffce5a"/><stop offset=".72869164" stop-color="#bc8711"/><stop offset="1" stop-color="#6e3600"/></radialGradient><linearGradient id="t" gradientUnits="userSpaceOnUse" x1="120" x2="162.54593" y1="-4" y2="-3.696996"><stop offset="0" stop-color="#f0bc47"/><stop offset=".55790973" stop-color="#ffce5a"/><stop offset=".72869164" stop-color="#bc8711"/><stop offset="1" stop-color="#6e3600"/></linearGradient><radialGradient id="u" cx="150.94638" cy="-7.829292" gradientTransform="matrix(1 0 0 4.489796 0 27.322633)" gradientUnits="userSpaceOnUse" r="2.474531" xlink:href="#v"/><linearGradient id="v"><stop offset="0" stop-color="#ffecad"/><stop offset="1" stop-color="#ffecad" stop-opacity="0"/></linearGradient><linearGradient id="w" gradientUnits="userSpaceOnUse" x1="148.41229" x2="167.394" y1="-23.073612" y2="10.86281"><stop offset="0" stop-color="#f0bd48"/><stop offset="1" stop-color="#f0bd48" stop-opacity="0"/></linearGradient><linearGradient id="x" gradientUnits="userSpaceOnUse" x1="145.95732" x2="145.95732" y1="-23.998249" y2="-19.957472"><stop offset="0" stop-color="#6a3200"/><stop offset="1" stop-color="#6a3200" stop-opacity="0"/></linearGradient><linearGradient id="y" gradientUnits="userSpaceOnUse" x1="126.94941" x2="145.84375" y1="-6.361109" y2="-6.361109"><stop offset="0" stop-color="#a97400"/><stop offset="1" stop-color="#a97400" stop-opacity="0"/></linearGradient><linearGradient id="z" gradientUnits="userSpaceOnUse" spreadMethod="reflect" x1="125.129196" x2="162.940516" y1="3.944824" y2="3.729928"><stop offset="0" stop-color="#a06a00"/><stop offset=".14430347" stop-color="#cb971f"/><stop offset=".15944791" stop-color="#733d00"/><stop offset=".4682675" stop-color="#9a6000"/><stop offset=".47961238" stop-color="#d7a32b"/><stop offset=".47962314" stop-color="#d8a42c"/><stop offset=".83766484" stop-color="#5a2900"/><stop offset=".84914237" stop-color="#0f0000"/><stop offset="1" stop-color="#0d0000"/></linearGradient><radialGradient id="A" cx="144.07829" cy="-21.110958" gradientTransform="matrix(1 0 0 .26315788 0 -15.555443)" gradientUnits="userSpaceOnUse" r="4.79756" xlink:href="#v"/><linearGradient id="B" gradientUnits="userSpaceOnUse" spreadMethod="pad" x1="130.286706" x2="157.353196" y1="4.222352" y2="3.792559"><stop offset="0" stop-color="#eecb7b" stop-opacity="0"/><stop offset=".22882126" stop-color="#eec243" stop-opacity=".511811"/><stop offset=".45764253" stop-color="#efd17e"/><stop offset=".47079113" stop-color="#ffffc4"/><stop offset="1" stop-color="#ffffd4" stop-opacity="0"/></linearGradient><linearGradient id="C" gradientUnits="userSpaceOnUse" spreadMethod="reflect" x1="144.02779" x2="165.13052" xlink:href="#D" y1="-6.161311" y2="-6.161311"/><linearGradient id="D"><stop offset="0" stop-color="#371100"/><stop offset="1" stop-color="#371100" stop-opacity=".370079"/></linearGradient><linearGradient id="E" gradientUnits="userSpaceOnUse" x1="139.69525" x2="116.76143" y1="-23.480375" y2="30.353294"><stop offset="0" stop-color="#7c4400"/><stop offset="1" stop-color="#7c4400" stop-opacity="0"/></linearGradient><linearGradient id="F" gradientUnits="userSpaceOnUse" spreadMethod="reflect" x1="135.63652" x2="132.8745" xlink:href="#D" y1="-23.023407" y2="-2.043771"/><linearGradient id="G" gradientUnits="userSpaceOnUse" x1="120" x2="168" y1="16" y2="16"><stop offset="0" stop-color="#421900"/><stop offset="1" stop-color="#c4901a"/></linearGradient><linearGradient id="H" gradientUnits="userSpaceOnUse" x1="79.824974" x2="167.875" y1="11.390625" y2="11.390625"><stop offset="0" stop-color="#fea"/><stop offset="1" stop-color="#fea" stop-opacity="0"/></linearGradient><linearGradient id="I" gradientTransform="matrix(.82745619 0 0 .88889862 24.846309 -4.444581)" gradientUnits="userSpaceOnUse" x1="120" x2="168" xlink:href="#D" y1="16" y2="16"/><linearGradient id="J" gradientUnits="userSpaceOnUse" x1="152.18506" x2="152.18506" y1="23.547825" y2="7.14857"><stop offset="0" stop-color="#ffce5a"/><stop offset="1" stop-color="#a8730d"/></linearGradient><radialGradient id="K" cx="152.78711" cy="37.210262" gradientTransform="matrix(.73130073 -.09627757 .04350873 .33048162 39.434813 25.482751)" gradientUnits="userSpaceOnUse" r="24" xlink:href="#a"/><clipPath id="L"><path d="m168 16a24 8 0 1 1 -48 0 24 8 0 1 1 48 0z"/></clipPath><radialGradient id="M" cx="143.99702" cy="-26.691803" gradientTransform="matrix(4.5930162 0 0 .95478622 -509.77182 37.584975)" gradientUnits="userSpaceOnUse" r="4"><stop offset="0" stop-color="#2b0f00" stop-opacity="0"/><stop offset=".38756061" stop-color="#2b0f00" stop-opacity=".228346"/><stop offset="1" stop-color="#2b0f00"/></radialGradient><linearGradient id="N" gradientTransform="matrix(-1 0 0 1 113.90625 7)" gradientUnits="userSpaceOnUse" x1="35.83757" x2="35.83757" xlink:href="#a" y1="59.202038" y2="87.445847"/><linearGradient id="O" gradientUnits="userSpaceOnUse" x1="100.244123" x2="100.244123" xlink:href="#a" y1="67.178781" y2="86.319196"/><g><path d="m43.09375 3.96875c-1.141012.0143455-2.18286.1986497-2.78125.09375a1.0281567 1.0281567 0 0 0 -.34375-.03125c-.556903.0805586-1.63547-.0679264-2.78125-.03125-.57289.018338-1.187117.076135-1.78125.375s-1.150664.8705016-1.4375 1.59375a1.0281567 1.0281567 0 0 0 -.0625.4375c.05783.7808722-.428666 1.5621849-1.0625 1.9375-.625762.370535-1.209639.4267338-1.875-.21875-.161613-.1717503-.316745-.8371696-.5625-1.71875-.122878-.4407902-.28374-.9461211-.65625-1.40625s-.993423-.8316779-1.6875-.9375a1.0281567 1.0281567 0 0 0 -.125 0c-2.671251-.0758136-5.348108-.0095778-7.96875-.03125a1.0281567 1.0281567 0 0 0 -.1875.03125c-.833144.1496718-1.492036.6734346-1.84375 1.25s-.482136 1.1394653-.59375 1.625-.223385.8712855-.34375 1.09375-.170767.2942628-.46875.375a1.0281567 1.0281567 0 0 0 -.125.0625c-.470378.1983018-.749966.1820484-.96875.125s-.406161-.1812528-.625-.4375c-.437677-.5124944-.825323-1.5274947-1.03125-2.40625a1.0281567 1.0281567 0 0 0 -.1875-.375c-.549471-.6975339-1.333224-1.1235895-2.09375-1.25s-1.499863-.0234772-2.1875.1875c-1.3752733.4219543-2.5797889 1.2525488-3.40625 1.8125a1.0281567 1.0281567 0 0 0 -.125.09375c-.8745253.7994316-1.9388083 1.8655245-2.6875 3.15625-.7486917 1.290725-1.2126772 2.884188-.625 4.46875a1.0281567 1.0281567 0 0 0 .0625.15625c.3771886.673751 1.0134927 1.091051 1.5625 1.3125s1.0352959.299955 1.4375.40625.6919109.240589.8125.34375.1877431.155108.21875.59375a1.0281567 1.0281567 0 0 0 .03125.15625c.1995515.894642.017971 1.062067-.5 1.40625-.5179714.344183-1.4680916.591055-2.34375.8125a1.0281567 1.0281567 0 0 0 -.34375.15625c-1.2182608.852373-1.460717 2.264372-1.4375 3.375s.1984961 2.129459.09375 2.71875a1.0281567 1.0281567 0 0 0 -.03125.3125c.0723765.565621-.0889327 1.688542-.03125 2.84375.028841.577604.1113701 1.192873.4375 1.78125s.9420253 1.095032 1.6875 1.34375a1.0281567 1.0281567 0 0 0 .46875.0625c1.0626292-.151497 1.6996403.543187 1.90625 1.40625.1033049.431532.0419587.854356-.125 1.15625s-.435263.561037-1.0625.6875v.03125c-1.0546439-.02393-2.0395875.41056-2.625 1.15625-.6195746.789206-.8422657 1.825366-.625 2.875h-.03125c.1528444 2.10571-.3650771 4.61548.25 7.15625a1.0281567 1.0281567 0 0 0 .09375.21875c.3741954.707847 1.0209555 1.15147 1.59375 1.375s1.1091923.307694 1.53125.40625c.4220577.09856.6861728.209539.8125.3125s.2144139.191587.25.65625a1.0281567 1.0281567 0 0 0 .03125.125c.2030651.896445.017796 1.062622-.5 1.40625-.5177962.343628-1.4661484.591779-2.34375.8125a1.0281567 1.0281567 0 0 0 -.34375.15625c-1.2182608.852373-1.460717 2.264372-1.4375 3.375s.1984961 2.129459.09375 2.71875a1.0281567 1.0281567 0 0 0 -.03125.3125c.0723765.565621-.0889327 1.688542-.03125 2.84375.028841.577604.1113701 1.192873.4375 1.78125s.9420253 1.095032 1.6875 1.34375a1.0281567 1.0281567 0 0 0 .46875.0625c1.0626288-.151496 1.6996402.543186 1.90625 1.40625.1033049.431532.0419587.854356-.125 1.15625s-.435263.561037-1.0625.6875v.03125c-1.0546439-.02393-2.0395875.410559-2.625 1.15625-.6195746.789206-.8422657 1.825366-.625 2.875h-.03125c.1528444 2.10571-.3650771 4.61548.25 7.15625a1.0281567 1.0281567 0 0 0 .09375.21875c.3741954.707847 1.0209555 1.15147 1.59375 1.375s1.1091924.307694 1.53125.40625c.4220576.09856.6861727.209539.8125.3125s.2144138.191587.25.65625a1.0281567 1.0281567 0 0 0 .03125.125c.1079854.467806.04831.707729-.03125.875s-.2118036.321931-.5.5c-.5763927.356138-1.630865.628244-2.59375 1.0625a1.0281567 1.0281567 0 0 0 -.28125.1875c-.6292459.613303-.9497881 1.426131-1 2.1875-.050212.761369.1355877 1.468234.40625 2.125.5413246 1.313532 1.4312439 2.451173 2.03125 3.21875a1.0281567 1.0281567 0 0 0 .09375.125c.8845134.82949 2.1002839 1.800171 3.5 2.4375s3.120582.951834 4.65625.09375a1.0281567 1.0281567 0 0 0 .1875-.125c1.039584-.930618 1.083562-2.202458 1.28125-2.90625.09884-.351896.213734-.552184.3125-.65625.09877-.104066.222333-.18502.65625-.21875a1.0281567 1.0281567 0 0 0 .125-.03125c.873509-.204383 1.053521-.01428 1.40625.5.352729.514276.619295 1.440637.84375 2.3125a1.0281567 1.0281567 0 0 0 .15625.34375c.852373 1.218261 2.264372 1.460717 3.375 1.4375 1.110628-.02322 2.129459-.198496 2.71875-.09375a1.0281567 1.0281567 0 0 0 .34375.03125c.558817-.08213 1.661688.06587 2.8125.03125.575406-.01731 1.184259-.07664 1.78125-.375.596991-.298356 1.148397-.868111 1.4375-1.59375a1.0281567 1.0281567 0 0 0 .0625-.46875c-.07824-.877365.485092-1.633681 1.1875-1.96875.676357-.322642 1.289449-.313873 1.875.46875.141771.470961.252796 1.228686.59375 2.03125.186389.438737.465887.880292.90625 1.25s1.060196.615664 1.71875.625a1.0281567 1.0281567 0 0 0 .0625 0c2.533291-.141759 5.355045.29659 8.21875-.21875a1.0281567 1.0281567 0 0 0 .21875-.0625c.693375-.311193 1.168425-.894337 1.40625-1.4375s.320651-1.052226.40625-1.46875c.0856-.416524.184775-.746082.28125-.90625.09647-.160168.128196-.202921.4375-.28125a1.0281567 1.0281567 0 0 0 .15625-.0625c.833963-.355345 1.206736-.174321 1.65625.28125s.797029 1.32753.84375 2.09375a1.0281567 1.0281567 0 0 0 .125.4375c.366282.659938.93549 1.129583 1.53125 1.375s1.19159.310391 1.75.3125c1.11682.0042 2.177784-.186475 2.75-.09375a1.0281567 1.0281567 0 0 0 .3125 0c.578715-.09628 1.648904.09405 2.78125.09375.566173-.00015 1.177687-.06885 1.78125-.3125.603563-.243653 1.188585-.710071 1.5625-1.375a1.0281567 1.0281567 0 0 0 .125-.4375c.04672-.76622.394236-1.638179.84375-2.09375s.822287-.636595 1.65625-.28125a1.0281567 1.0281567 0 0 0 .15625.0625c.266536.06883.3119.107055.4375.34375s.220533.686299.34375 1.1875.272615 1.080824.65625 1.65625 1.111611 1.06768 1.96875 1.15625a1.0281567 1.0281567 0 0 0 .125 0c2.616836-.05044 5.467209.274271 8.3125-.125a1.0281567 1.0281567 0 0 0 .21875-.0625c.729908-.274141 1.23774-.85419 1.5-1.40625s.345305-1.06878.4375-1.5c.0922-.43122.179265-.767217.28125-.9375s.15586-.236196.46875-.3125a1.0281567 1.0281567 0 0 0 .15625-.0625c.510206-.218756.75453-.180087.9375-.125.18297.05509.375042.18252.59375.46875.437416.572461.837118 1.649083 1.34375 2.625a1.0281567 1.0281567 0 0 0 .1875.25c.585259.586223 1.343492.896447 2.0625.9375.719008.04105 1.391441-.147273 2-.40625 1.217117-.517953 2.231602-1.346524 2.9375-1.90625a1.0281567 1.0281567 0 0 0 .125-.125c.704789-.777484 1.660877-1.834275 2.3125-3.09375s1.02658-2.880412.21875-4.34375a1.0281567 1.0281567 0 0 0 -.09375-.125c-.863837-1.148592-2.14139-1.232458-2.875-1.4375-.366805-.102521-.610275-.213591-.71875-.3125s-.186817-.171803-.21875-.59375a1.0281567 1.0281567 0 0 0 -.03125-.15625c-.199551-.894643-.01797-1.062067.5-1.40625.517971-.344183 1.468091-.591055 2.34375-.8125a1.0281567 1.0281567 0 0 0 .34375-.15625c1.218261-.852373 1.460717-2.264372 1.4375-3.375-.02322-1.110628-.198496-2.129459-.09375-2.71875a1.0281567 1.0281567 0 0 0 .03125-.3125c-.072376-.565621.088933-1.688542.03125-2.84375-.028841-.577604-.11137-1.192873-.4375-1.78125s-.942025-1.095032-1.6875-1.34375a1.0281567 1.0281567 0 0 0 -.46875-.0625c-1.062629.151496-1.69964-.543187-1.90625-1.40625-.103305-.431531-.04196-.854356.125-1.15625.166959-.301894.435263-.561037 1.0625-.6875v-.03125c1.054644.02393 2.039588-.41056 2.625-1.15625.619575-.789206.842266-1.825366.625-2.875h.03125c-.152845-2.10571.365077-4.61548-.25-7.15625a1.0281567 1.0281567 0 0 0 -.09375-.21875c-.374196-.707846-1.020956-1.15147-1.59375-1.375s-1.109192-.307694-1.53125-.40625c-.422058-.09856-.686173-.209539-.8125-.3125s-.214414-.191587-.25-.65625a1.0281567 1.0281567 0 0 0 -.03125-.125c-.203064-.896442-.0178-1.062621.5-1.40625.517797-.343629 1.466149-.591779 2.34375-.8125a1.0281567 1.0281567 0 0 0 .34375-.15625c1.218261-.852373 1.460717-2.264372 1.4375-3.375-.02322-1.110628-.198496-2.129459-.09375-2.71875a1.0281567 1.0281567 0 0 0 .03125-.3125c-.072376-.565621.088933-1.688542.03125-2.84375-.028841-.577604-.11137-1.192873-.4375-1.78125s-.942025-1.095032-1.6875-1.34375a1.0281567 1.0281567 0 0 0 -.46875-.0625c-1.062629.151495-1.69964-.543187-1.90625-1.40625-.103305-.431531-.04196-.854356.125-1.15625.166959-.301894.435263-.561037 1.0625-.6875v-.03125c1.054644.02393 2.039588-.41056 2.625-1.15625.619575-.789206.842266-1.825366.625-2.875h.03125c-.152845-2.10571.365077-4.61548-.25-7.15625a1.0281567 1.0281567 0 0 0 -.09375-.21875c-.374196-.707846-1.020956-1.15147-1.59375-1.375s-1.109192-.307694-1.53125-.40625c-.422058-.09856-.686173-.209539-.8125-.3125s-.214414-.191587-.25-.65625a1.0281567 1.0281567 0 0 0 -.03125-.125c-.107986-.467806-.04831-.707729.03125-.875s.211804-.321931.5-.5c.576393-.356138 1.630864-.628243 2.59375-1.0625a1.0281567 1.0281567 0 0 0 .28125-.1875c.602852-.565592.92704-1.316291 1-2.03125s-.085-1.380818-.3125-2c-.455009-1.2383641-1.238869-2.3257859-1.75-3.0625a1.0281567 1.0281567 0 0 0 -.09375-.125c-.744466-.7611335-1.772858-1.7582989-3-2.46875s-2.810595-1.1607238-4.3125-.4375a1.0281567 1.0281567 0 0 0 -.125.09375c-1.185386.7998404-1.366162 2.0785181-1.59375 2.8125-.113794.366991-.209277.6053475-.3125.71875s-.203502.1878311-.59375.21875a1.0281567 1.0281567 0 0 0 -.125.03125c-.821581.1851352-1.075199-.020962-1.4375-.5-.362301-.4790385-.628149-1.3324377-.75-2.125a1.0281567 1.0281567 0 0 0 -.15625-.375c-.404973-.6477481-1.013826-1.1180739-1.625-1.34375s-1.212028-.2571756-1.78125-.25c-1.138445.0143512-2.184803.1983092-2.78125.09375a1.0281567 1.0281567 0 0 0 -.34375-.03125c-.556903.0805586-1.63547-.0679264-2.78125-.03125-.57289.018338-1.187117.076135-1.78125.375s-1.150664.8705016-1.4375 1.59375a1.0281567 1.0281567 0 0 0 -.0625.46875c.07824.8773654-.485092 1.6336809-1.1875 1.96875-.676357.3226418-1.289449.3138729-1.875-.46875-.141771-.4709608-.252796-1.2286857-.59375-2.03125-.186389-.4387373-.465887-.8802916-.90625-1.25s-1.060196-.6156634-1.71875-.625a1.0281567 1.0281567 0 0 0 -.0625 0c-2.533292.1417585-5.355045-.2965905-8.21875.21875a1.0281567 1.0281567 0 0 0 -.25.0625c-.690514.3144904-1.136031.8961383-1.375 1.4375s-.317675 1.0535876-.40625 1.46875c-.08857.4151624-.182442.7143306-.28125.875-.09881.1606694-.154089.2338268-.46875.3125a1.0281567 1.0281567 0 0 0 -.15625.0625c-.875515.3755364-1.187932.192803-1.625-.28125s-.778316-1.4067904-.875-2.21875a1.0281567 1.0281567 0 0 0 -.15625-.40625c-.406421-.650064-1.011706-1.118773-1.625-1.34375s-1.210789-.2571722-1.78125-.25z" fill="url(#i)" opacity=".08"/><path d="m20.15625 6a1.0086732 1.0086732 0 0 0 -.8125 1c0 1.9650322-1.592327 3.5625-3.59375 3.5625-1.983857 0-3.566575-1.559709-3.59375-3.5a1.0086732 1.0086732 0 0 0 -1.125-1c-3.4231252.4096085-6.1820304 2.9511878-6.875 6.28125a1.0086732 1.0086732 0 0 0 .96875 1.21875c1.9396044.0644 3.46875 1.638259 3.46875 3.5625 0 1.965034-1.5923231 3.5625-3.59375 3.5625a1.0086732 1.0086732 0 0 0 -1 1v7.0625a1.0086732 1.0086732 0 0 0 1 1c2.0014269 0 3.59375 1.597466 3.59375 3.5625s-1.5923231 3.5625-3.59375 3.5625a1.0086732 1.0086732 0 0 0 -1 1v7.0625a1.0086732 1.0086732 0 0 0 1 1c2.0014267 0 3.59375 1.597467 3.59375 3.5625 0 1.965034-1.5923231 3.5625-3.59375 3.5625a1.0086732 1.0086732 0 0 0 -1 1v7.0625a1.0086732 1.0086732 0 0 0 1 1c2.0014267 0 3.59375 1.597467 3.59375 3.5625 0 1.965035-1.5923228 3.5625-3.59375 3.5625a1.0086732 1.0086732 0 0 0 -1 1v7.0625a1.0086732 1.0086732 0 0 0 1 1c2.0014248-.000003 3.59375 1.597467 3.59375 3.5625 0 1.924238-1.5291419 3.498089-3.46875 3.5625a1.0086732 1.0086732 0 0 0 -.96875 1.21875c.6929696 3.330063 3.451875 5.871641 6.875 6.28125a1.0086732 1.0086732 0 0 0 1.125-1c.02717-1.94029 1.609894-3.5 3.59375-3.5 2.001423 0 3.59375 1.597468 3.59375 3.5625a1.0086732 1.0086732 0 0 0 1 1h7.1875a1.0086732 1.0086732 0 0 0 1-1c0-1.965032 1.592327-3.5625 3.59375-3.5625 2.001435 0 3.625 1.605825 3.625 3.5625a1.0086732 1.0086732 0 0 0 1 1h7.15625a1.0086732 1.0086732 0 0 0 1-1c0-1.965032 1.592327-3.5625 3.59375-3.5625 2.001435 0 3.625 1.605825 3.625 3.5625a1.0086732 1.0086732 0 0 0 1 1h7.15625a1.0086732 1.0086732 0 0 0 1-1c0-1.956675 1.623565-3.5625 3.625-3.5625 2.001423 0 3.59375 1.597468 3.59375 3.5625a1.0086732 1.0086732 0 0 0 1 1h7.15625a1.0086732 1.0086732 0 0 0 1-1c-.000008-1.956668 1.623577-3.5625 3.625-3.5625 1.930812 0 3.456945 1.501521 3.5625 3.375a1.0086732 1.0086732 0 0 0 1.25.90625c2.888364-.781055 5.136029-3.112045 5.75-6.0625a1.0086732 1.0086732 0 0 0 -.96875-1.21875c-1.939609-.06441-3.46875-1.638259-3.46875-3.5625 0-1.965037 1.592326-3.5625 3.59375-3.5625a1.0086732 1.0086732 0 0 0 1-1v-7.0625a1.0086732 1.0086732 0 0 0 -1-1c-2.001423.000001-3.59375-1.597467-3.59375-3.5625 0-1.965032 1.592327-3.5625 3.59375-3.5625a1.0086732 1.0086732 0 0 0 1-1v-7.0625a1.0086732 1.0086732 0 0 0 -1-1c-2.001423.000001-3.59375-1.597468-3.59375-3.5625s1.592327-3.5625 3.59375-3.5625a1.0086732 1.0086732 0 0 0 1-1v-7.0625a1.0086732 1.0086732 0 0 0 -1-1c-2.001423.000001-3.59375-1.597468-3.59375-3.5625 0-1.965033 1.592327-3.5625 3.59375-3.5625a1.0086732 1.0086732 0 0 0 1-1v-7.0625a1.0086732 1.0086732 0 0 0 -1-1c-2.001423.000001-3.59375-1.597468-3.59375-3.5625 0-1.924241 1.529141-3.498089 3.46875-3.5625a1.0086732 1.0086732 0 0 0 .96875-1.21875c-.613971-2.9504552-2.861636-5.2814447-5.75-6.0625a1.0086732 1.0086732 0 0 0 -1.25.90625c-.105571 1.8734915-1.631688 3.375-3.5625 3.375-2.001435 0-3.625-1.6058245-3.625-3.5625a1.0086732 1.0086732 0 0 0 -1-1h-7.15625a1.0086732 1.0086732 0 0 0 -1 1c0 1.9650322-1.592327 3.5625-3.59375 3.5625-2.001435 0-3.625-1.6058245-3.625-3.5625a1.0086732 1.0086732 0 0 0 -1-1h-7.15625a1.0086732 1.0086732 0 0 0 -1 1c0 1.9566755-1.623565 3.5625-3.625 3.5625-2.001423 0-3.59375-1.5974678-3.59375-3.5625a1.0086732 1.0086732 0 0 0 -1-1h-7.15625a1.0086732 1.0086732 0 0 0 -1 1c.000008 1.956668-1.623577 3.5625-3.625 3.5625s-3.59375-1.5974678-3.59375-3.5625a1.0086732 1.0086732 0 0 0 -1-1h-7.1875a1.0086732 1.0086732 0 0 0 -.1875 0z" fill="url(#i)" opacity=".2"/><path d="m12 7c-3.1576964 0-5.7192022 2.4087223-5.96875 5.5 2.4694037.017094 4.46875 2.026594 4.46875 4.5 0 2.484001-2.016 4.5-4.5 4.5v7c2.484 0 4.5 2.016 4.5 4.5 0 2.484001-2.016 4.5-4.5 4.5v7c2.484 0 4.5 2.016 4.5 4.5 0 2.484001-2.016 4.5-4.5 4.5v7c2.484 0 4.5 2.016 4.5 4.5 0 2.484001-2.016 4.5-4.5 4.5v7c2.484-.000004 4.5 2.016 4.5 4.5 0 2.473403-1.9993463 4.482906-4.46875 4.5.2495478 3.091278 2.8110536 5.5 5.96875 5.5 0-2.484 2.016-4.5 4.5-4.5 2.484001 0 4.5 2.016 4.5 4.5h7c0-2.484 2.016-4.5 4.5-4.5 2.484001 0 4.5 2.016 4.5 4.5h7c0-2.484 2.016-4.5 4.5-4.5 2.484001 0 4.5 2.016 4.5 4.5h7c0-2.484 2.016-4.5 4.5-4.5 2.484001 0 4.5 2.016 4.5 4.5h7c-.000004-2.484 2.016-4.5 4.5-4.5 2.452216 0 4.449324 1.966103 4.5 4.40625 2.688537-.445117 4.746004-2.646977 4.96875-5.40625-2.469404-.0171-4.46875-2.026594-4.46875-4.5 0-2.484004 2.016-4.5 4.5-4.5v-7c-2.484.000001-4.5-2.016-4.5-4.5s2.016-4.5 4.5-4.5v-7c-2.484.000001-4.5-2.016-4.5-4.5s2.016-4.5 4.5-4.5v-7c-2.484.000001-4.5-2.016-4.5-4.5s2.016-4.5 4.5-4.5v-7c-2.484.000001-4.5-2.016-4.5-4.5 0-2.473406 1.999346-4.482906 4.46875-4.5-.222746-2.7592732-2.280213-4.961133-4.96875-5.40625-.05068 2.4401476-2.047781 4.40625-4.5 4.40625-2.484004 0-4.5-2.0159999-4.5-4.5h-7c.000001 2.4840004-2.016 4.5-4.5 4.5s-4.5-2.0159999-4.5-4.5h-7c.000001 2.4840004-2.016 4.5-4.5 4.5s-4.5-2.0159999-4.5-4.5h-7c.000001 2.4840004-2.016 4.5-4.5 4.5s-4.5-2.0159999-4.5-4.5h-7c.000001 2.4840004-2.016 4.5-4.5 4.5s-4.5-2.0159999-4.5-4.5z" fill="url(#j)" opacity=".45"/><g fill="url(#i)"><path d="m20.34375 7c0 2.5135714-2.05061 4.5625-4.59375 4.5625-2.52145 0-4.55896-2.0159905-4.59375-4.5-2.996139.3585157-5.394264 2.5891385-6 5.5 2.47044.08203 4.4375 2.100949 4.4375 4.5625 0 2.513572-2.050607 4.5625-4.59375 4.5625v7.0625c2.543143 0 4.59375 2.048928 4.59375 4.5625s-2.050607 4.5625-4.59375 4.5625v7.0625c2.543143 0 4.59375 2.048929 4.59375 4.5625 0 2.513572-2.050607 4.5625-4.59375 4.5625v7.0625c2.543143 0 4.59375 2.048929 4.59375 4.5625 0 2.513573-2.050607 4.5625-4.59375 4.5625v7.0625c2.543143-.000004 4.59375 2.048929 4.59375 4.5625 0 2.461548-1.96706 4.480461-4.4375 4.5625.605736 2.910862 3.003861 5.141484 6 5.5.03479-2.484009 2.0723-4.5 4.59375-4.5 2.54314 0 4.59375 2.048929 4.59375 4.5625h7.1875c0-2.513571 2.05061-4.5625 4.59375-4.5625 2.54315 0 4.625 2.048929 4.625 4.5625h7.15625c0-2.513571 2.05061-4.5625 4.59375-4.5625 2.54315 0 4.625 2.048929 4.625 4.5625h7.15625c0-2.513571 2.08185-4.5625 4.625-4.5625 2.54314 0 4.59375 2.048929 4.59375 4.5625h7.15625c-.00001-2.513571 2.08186-4.5625 4.625-4.5625 2.45596 0 4.4276 1.918171 4.5625 4.3125 2.52264-.682158 4.46306-2.732219 5-5.3125-2.47044-.08204-4.4375-2.100949-4.4375-4.5625 0-2.513575 2.05061-4.5625 4.59375-4.5625v-7.0625c-2.54314.000001-4.59375-2.048928-4.59375-4.5625 0-2.513571 2.05061-4.5625 4.59375-4.5625v-7.0625c-2.54314.000001-4.59375-2.048929-4.59375-4.5625s2.05061-4.5625 4.59375-4.5625v-7.0625c-2.54314.000001-4.59375-2.048929-4.59375-4.5625 0-2.513572 2.05061-4.5625 4.59375-4.5625v-7.0625c-2.54314.000001-4.59375-2.048929-4.59375-4.5625 0-2.461551 1.96706-4.480461 4.4375-4.5625-.53694-2.5802811-2.47736-4.6303417-5-5.3125-.13492 2.3943302-2.10654 4.3125-4.5625 4.3125-2.54315 0-4.625-2.0489286-4.625-4.5625h-7.15625c0 2.5135714-2.05061 4.5625-4.59375 4.5625-2.54315 0-4.625-2.0489286-4.625-4.5625h-7.15625c0 2.5135714-2.08185 4.5625-4.625 4.5625-2.54314 0-4.59375-2.0489286-4.59375-4.5625h-7.15625c.00001 2.5135714-2.08186 4.5625-4.625 4.5625s-4.59375-2.0489286-4.59375-4.5625z" opacity=".3"/><path d="m19.96875 5.0625c-2.330301.4186317-.950962 3.7558066-3.170572 4.3571996-2.520962 1.0627854-3.569154-1.5089107-4.016928-3.4196996-1.606753-2.0397174-4.715591-.1186909-6.3250667.9717752-1.6613339 1.5186787-3.9137203 4.1149238-3.0186833 6.5282248.9629828 1.720122 3.9861383.531711 4.1680278 3.104824.5461165 2.448385-1.8750756 2.988813-3.6055278 3.426426-1.7286298 1.20946-.6257423 3.694278-.9375 5.448197.2132272 1.666364-.7688839 4.399024 1.375 5.114303 3.2092002-.457528 4.5988109 4.586798 1.1075236 5.290707-1.6977216-.250075-2.9026717 1.413619-2.4825236 3.001729.1671286 2.302501-.32294 4.719943.21875 6.957564.9665086 1.828296 4.1170733.443917 4.3224197 3.125209.555306 2.451437-1.86917 3.001056-3.6036697 3.437291-1.7286298 1.20946-.6257423 3.694278-.9375 5.448197.2132272 1.666364-.7688839 4.399024 1.375 5.114303 3.2091998-.457528 4.5988113 4.586799 1.1075238 5.290707-1.6977217-.250075-2.9026719 1.413619-2.4825238 3.001729.1671286 2.302501-.32294 4.719943.21875 6.957564.9665088 1.828296 4.1170724.443917 4.3224195 3.125209.5870661 2.543242-2.0477463 2.849547-3.6974195 3.593541-1.8374172 1.790864.3533881 4.639552 1.5458945 6.165104 1.6687135 1.564907 4.5830745 3.673544 6.9228555 2.366146 1.330571-1.191105.352699-3.84968 2.833692-4.042535 2.41031-.563963 3.030256 1.831448 3.478808 3.573785 1.20946 1.72863 3.694278.625742 5.448197.9375 1.68507-.247643 4.380784.795171 5.208053-1.28125-.239447-2.685137 3.289932-4.615455 5.013433-2.117964.437479 1.22199.475583 3.373362 2.299067 3.399214 2.683689-.150175 5.46253.286003 8.09375-.1875 1.79819-.807044.555747-3.626222 2.701822-4.1697 2.328414-.992119 3.80159 1.269431 3.923178 3.26345 1.043785 1.880609 3.577273.816348 5.28915 1.09375 1.734053-.288484 4.300398.803154 5.3671-1.09375.121588-1.994019 1.594764-4.255569 3.923178-3.26345 2.16926.560156.855076 4.076998 3.264322 4.32595 2.706983-.05218 5.515658.249931 8.1875-.125 1.916491-.719801.637248-3.66501 2.823044-4.198058 2.667281-1.143621 3.288381 1.73641 4.176956 3.448058 1.677995 1.68076 4.249866-.341504 5.660505-1.460037 1.387028-1.530094 3.564531-4.096236 2.370745-6.258713-1.089023-1.448009-3.856277-.449706-4.043028-2.917323-.546116-2.448386 1.875075-2.988814 3.605528-3.426427 1.72863-1.20946.625742-3.694278.9375-5.448197-.213227-1.666364.768884-4.399024-1.375-5.114303-3.209199.457525-4.59881-4.586796-1.107522-5.290707 1.697721.250074 2.90267-1.41362 2.482522-3.001729-.167129-2.302501.32294-4.719943-.21875-6.957564-.966509-1.828295-4.117072-.443918-4.322419-3.12521-.555305-2.451433 1.86917-3.001055 3.603669-3.43729 1.72863-1.20946.625742-3.694278.9375-5.448197-.213227-1.666364.768884-4.399024-1.375-5.114303-3.209199.457525-4.59881-4.586797-1.107522-5.290707 1.697721.250074 2.90267-1.41362 2.482522-3.001729-.167129-2.302501.32294-4.719943-.21875-6.957564-.966509-1.828295-4.117072-.443918-4.322419-3.12521-.587068-2.543243 2.047746-2.849545 3.697419-3.59354 1.737831-1.630423-.158963-4.2635047-1.193111-5.7540643-1.452454-1.4849732-3.892871-3.7555878-6.119389-2.6834357-1.501261 1.0129772-.60947 3.7622126-2.97612 3.9497195-2.306354.5197145-3.156789-1.7030559-3.43013-3.4809695-1.158349-1.8527621-3.7343-.7198417-5.510697-1.03125-1.67606.2424496-4.356707-.786599-5.176803 1.28125.239447 2.6851372-3.289932 4.615455-5.013433 2.117964-.437479-1.2219899-.475583-3.3733618-2.299067-3.399214-2.683689.1501745-5.46253-.2860035-8.09375.1875-1.794229.8171709-.569955 3.6269237-2.729288 4.166811-2.400317 1.029573-3.69224-1.3518578-3.926962-3.323061-1.158349-1.8527621-3.7343-.7198417-5.510697-1.03125-1.67606.2424496-4.356707-.786599-5.176803 1.28125.179641 2.4256801-2.737503 4.471267-4.703415 2.5150323-.995678-1.0581303-.412905-3.4730734-2.327835-3.7650323-2.634651-.074775-5.294204-.00939-7.9375-.03125z" opacity=".1"/></g></g><path d="m12 6c-3.1576964 0-5.7192022 2.4087223-5.96875 5.5 2.4694037.017094 4.46875 2.026594 4.46875 4.5 0 2.484001-2.016 4.5-4.5 4.5v7c2.484 0 4.5 2.016 4.5 4.5 0 2.484001-2.016 4.5-4.5 4.5v7c2.484 0 4.5 2.016 4.5 4.5 0 2.484001-2.016 4.5-4.5 4.5v7c2.484 0 4.5 2.016 4.5 4.5 0 2.484001-2.016 4.5-4.5 4.5v7c2.484-.000004 4.5 2.016 4.5 4.5 0 2.473403-1.9993463 4.482906-4.46875 4.5.2495478 3.091278 2.8110536 5.5 5.96875 5.5 0-2.484 2.016-4.5 4.5-4.5 2.484001 0 4.5 2.016 4.5 4.5h7c0-2.484 2.016-4.5 4.5-4.5 2.484001 0 4.5 2.016 4.5 4.5h7c0-2.484 2.016-4.5 4.5-4.5 2.484001 0 4.5 2.016 4.5 4.5h7c0-2.484 2.016-4.5 4.5-4.5 2.484001 0 4.5 2.016 4.5 4.5h7c-.000004-2.484 2.016-4.5 4.5-4.5 2.452216 0 4.449324 1.966103 4.5 4.40625 2.688537-.445117 4.746004-2.646977 4.96875-5.40625-2.469404-.017097-4.46875-2.026594-4.46875-4.5 0-2.484004 2.016-4.5 4.5-4.5v-7c-2.484.000001-4.5-2.016-4.5-4.5s2.016-4.5 4.5-4.5v-7c-2.484.000001-4.5-2.016-4.5-4.5s2.016-4.5 4.5-4.5v-7c-2.484.000001-4.5-2.016-4.5-4.5s2.016-4.5 4.5-4.5v-7c-2.484.000001-4.5-2.016-4.5-4.5 0-2.473406 1.999346-4.482906 4.46875-4.5-.222746-2.7592732-2.280213-4.961133-4.96875-5.40625-.050679 2.4401476-2.047781 4.40625-4.5 4.40625-2.484004 0-4.5-2.0159999-4.5-4.5h-7c.000001 2.4840004-2.016 4.5-4.5 4.5s-4.5-2.0159999-4.5-4.5h-7c.000001 2.4840004-2.016 4.5-4.5 4.5s-4.5-2.0159999-4.5-4.5h-7c.000001 2.4840004-2.016 4.5-4.5 4.5s-4.5-2.0159999-4.5-4.5h-7c.000001 2.4840004-2.016 4.5-4.5 4.5s-4.5-2.0159999-4.5-4.5z" fill="url(#f)"/><path d="m12 6c-3.1576964 0-5.7192022 2.4087223-5.96875 5.5.3875592.0027.7665092.06132 1.125.15625.5060887-1.9479437 2.0912519-3.3647543 4.125-3.65625.513582 2.458142 2.613584 4.375 5.21875 4.375 2.650061 0 4.786743-1.978914 5.25-4.5h5.5c.463258 2.521086 2.599939 4.5 5.25 4.5s4.786743-1.978914 5.25-4.5h5.5c.463258 2.521086 2.599939 4.5 5.25 4.5s4.786743-1.978914 5.25-4.5h5.5c.463258 2.521086 2.599939 4.5 5.25 4.5s4.786743-1.978914 5.25-4.5h5.5c.463258 2.521085 2.599936 4.5 5.25 4.5 2.533754 0 4.599245-1.797591 5.1875-4.15625 1.565145.5523941 2.734682 1.812675 3.15625 3.4375.358491-.09493.737441-.153567 1.125-.15625-.222746-2.7592732-2.280213-4.961133-4.96875-5.40625-.050679 2.4401476-2.047781 4.40625-4.5 4.40625-2.484004 0-4.5-2.0159999-4.5-4.5h-7c.000001 2.4840004-2.016 4.5-4.5 4.5s-4.5-2.0159999-4.5-4.5h-7c.000001 2.4840004-2.016 4.5-4.5 4.5s-4.5-2.0159999-4.5-4.5h-7c.000001 2.4840004-2.016 4.5-4.5 4.5s-4.5-2.0159999-4.5-4.5h-7c.000001 2.4840004-2.016 4.5-4.5 4.5s-4.5-2.0159999-4.5-4.5zm-3.96875 6c1.4652302.742423 2.46875 2.246206 2.46875 4 0 2.484001-2.016 4.5-4.5 4.5v7c.3210719 0 .6354089.02973.9375.09375v-5.40625c2.5210853-.463258 4.5-2.599938 4.5-5.25 0-2.251307-1.432067-4.133632-3.40625-4.9375zm79.9375 0c-1.974183.803868-3.40625 2.686193-3.40625 4.9375 0 2.650061 1.978914 4.786743 4.5 5.25v5.40625c.302091-.06402.616428-.09375.9375-.09375v-7c-2.484.000001-4.5-2.016-4.5-4.5 0-1.753794 1.00352-3.257577 2.46875-4zm-79.78125 16.09375c1.3691917.771924 2.3125 2.223437 2.3125 3.90625 0 2.484001-2.016 4.5-4.5 4.5v7c.3210719 0 .6354089.02973.9375.09375v-5.40625c2.5210853-.463258 4.5-2.599938 4.5-5.25 0-2.189151-1.359088-4.009194-3.25-4.84375zm79.625 0c-1.890912.834556-3.25 2.654599-3.25 4.84375 0 2.650061 1.978914 4.786743 4.5 5.25v5.40625c.302091-.06402.616428-.09375.9375-.09375v-7c-2.484.000001-4.5-2.016-4.5-4.5 0-1.682813.943308-3.134326 2.3125-3.90625zm-79.625 16c1.3691917.771924 2.3125 2.223437 2.3125 3.90625 0 2.484001-2.016 4.5-4.5 4.5v7c.3210719 0 .6354089.02973.9375.09375v-5.40625c2.5210853-.463258 4.5-2.599938 4.5-5.25 0-2.189151-1.359088-4.009194-3.25-4.84375zm79.625 0c-1.890912.834556-3.25 2.654599-3.25 4.84375 0 2.650061 1.978914 4.786743 4.5 5.25v5.40625c.302091-.06402.616428-.09375.9375-.09375v-7c-2.484.000001-4.5-2.016-4.5-4.5 0-1.682813.943308-3.134326 2.3125-3.90625zm-79.625 16c1.3691917.771924 2.3125 2.223437 2.3125 3.90625 0 2.484001-2.016 4.5-4.5 4.5v7c.3210719-.000001.6354089.02973.9375.09375v-5.40625c2.5210853-.463258 4.5-2.599938 4.5-5.25 0-2.189151-1.359088-4.009194-3.25-4.84375zm79.625 0c-1.890912.834556-3.25 2.654599-3.25 4.84375 0 2.650061 1.978914 4.786743 4.5 5.25v5.40625c.302091-.06402.616428-.09375.9375-.09375v-7c-2.484.000001-4.5-2.016-4.5-4.5 0-1.682813.943308-3.134326 2.3125-3.90625zm-79.625 16c1.3691917.771924 2.3125 2.223437 2.3125 3.90625 0 2.473403-1.9993463 4.482906-4.46875 4.5.2495478 3.091278 2.8110536 5.5 5.96875 5.5 0-2.162928 1.527437-3.974973 3.5625-4.40625-2.154233.400506-3.831866 2.130376-4.28125 4.28125-2.0541834-.294425-3.6354873-1.740587-4.125-3.71875 2.4131399-.548077 4.28125-2.64583 4.28125-5.21875 0-2.189151-1.359087-4.009195-3.25-4.84375zm79.625 0c-1.890912.834555-3.25 2.654597-3.25 4.84375 0 2.572922 1.868111 4.670672 4.28125 5.21875-.408658 1.653304-1.572152 2.940917-3.15625 3.5-.514722-2.063828-2.149193-3.686183-4.25-4.0625 2.010646.421213 3.518381 2.188088 3.5625 4.3125 2.688537-.445117 4.746004-2.646977 4.96875-5.40625-2.469404-.017097-4.46875-2.026594-4.46875-4.5 0-1.682816.943308-3.134327 2.3125-3.90625zm-70.34375 9.5c2.020164.442538 3.53125 2.253894 3.53125 4.40625h.75c-.405351-2.205949-2.090608-3.993005-4.28125-4.40625zm14.0625 0c-2.190642.413245-3.875899 2.200301-4.28125 4.40625h.75c0-2.152356 1.511086-3.963712 3.53125-4.40625zm1.9375 0c2.020164.442538 3.53125 2.253894 3.53125 4.40625h.75c-.405351-2.205949-2.090608-3.993005-4.28125-4.40625zm14.0625 0c-2.190642.413245-3.875899 2.200301-4.28125 4.40625h.75c0-2.152356 1.511086-3.963712 3.53125-4.40625zm1.9375 0c2.020164.442538 3.53125 2.253894 3.53125 4.40625h.75c-.405351-2.205949-2.090608-3.993005-4.28125-4.40625zm14.0625 0c-2.190642.413245-3.875899 2.200301-4.28125 4.40625h.75c0-2.152356 1.511086-3.963712 3.53125-4.40625zm1.9375 0c2.020164.442538 3.53125 2.253894 3.53125 4.40625h.75c-.405351-2.205949-2.090608-3.993005-4.28125-4.40625zm14.0625 0c-2.190642.413244-3.875901 2.200299-4.28125 4.40625h.75c-.000003-2.152356 1.511085-3.963712 3.53125-4.40625z" fill="url(#g)" opacity=".8"/><path d="m6.53125 9.5625c-.2660426.601761-.4444143 1.248931-.5 1.9375 2.126085.01472 3.8905568 1.506965 4.34375 3.5.07377-.323096.125-.654652.125-1 0-2.30245-1.7373139-4.1720004-3.96875-4.4375zm82.9375 0c-2.231436.2654996-3.96875 2.13505-3.96875 4.4375 0 .345348.05123.676904.125 1 .453193-1.993035 2.217665-3.485283 4.34375-3.5-.05569-.689818-.23378-1.336098-.5-1.9375zm-83.46875 15.9375v2c2.138652 0 3.9181313 1.499149 4.375 3.5.07377-.323096.125-.654652.125-1 0-2.484-2.016-4.5-4.5-4.5zm84 0c-2.484 0-4.5 2.016-4.5 4.5 0 .345348.05123.676904.125 1 .456869-2.000851 2.236348-3.5 4.375-3.5zm-84 16v2c2.138652 0 3.9181313 1.499149 4.375 3.5.07377-.323096.125-.654652.125-1 0-2.484-2.016-4.5-4.5-4.5zm84 0c-2.484 0-4.5 2.016-4.5 4.5 0 .345348.05123.676904.125 1 .456869-2.000851 2.236348-3.5 4.375-3.5zm-84 16v2c2.138652 0 3.9181313 1.499149 4.375 3.5.07377-.323096.125-.654652.125-1 0-2.484-2.016-4.5-4.5-4.5zm84 0c-2.484 0-4.5 2.016-4.5 4.5 0 .345348.05123.676904.125 1 .456869-2.000851 2.236348-3.5 4.375-3.5zm-84 16v2c2.138652-.000003 3.9181313 1.499148 4.375 3.5.07318-.321834.125-.656125.125-1 0-2.484-2.016-4.500004-4.5-4.5zm84 0c-2.484 0-4.5 2.015996-4.5 4.5 0 .343875.05182.678166.125 1 .456869-2.000853 2.236348-3.5 4.375-3.5zm-73.5 10c-2.484 0-4.5 2.016-4.5 4.5-2.4543325 0-4.5404155-1.462701-5.46875-3.5625-.1656833.019713-.3293206.061319-.5.0625.2495478 3.091278 2.8110536 5.5 5.96875 5.5 0-2.484 2.016-4.5 4.5-4.5 2.484001 0 4.5 2.016 4.5 4.5h7c0-2.484 2.016-4.5 4.5-4.5 2.484001 0 4.5 2.016 4.5 4.5h7c0-2.484 2.016-4.5 4.5-4.5 2.484001 0 4.5 2.016 4.5 4.5h7c0-2.484 2.016-4.5 4.5-4.5 2.484001 0 4.5 2.016 4.5 4.5h7c-.000004-2.484 2.016-4.5 4.5-4.5 2.452216 0 4.449324 1.966103 4.5 4.40625 2.688537-.445117 4.746004-2.646977 4.96875-5.40625-.170679-.0012-.334317-.04279-.5-.0625-.798659 1.804206-2.452347 3.134912-4.46875 3.46875-.050676-2.440147-2.047784-4.40625-4.5-4.40625-2.484 0-4.500004 2.016-4.5 4.5h-7c0-2.484-2.015999-4.5-4.5-4.5-2.484 0-4.5 2.016-4.5 4.5h-7c0-2.484-2.015999-4.5-4.5-4.5-2.484 0-4.5 2.016-4.5 4.5h-7c0-2.484-2.015999-4.5-4.5-4.5-2.484 0-4.5 2.016-4.5 4.5h-7c0-2.484-2.015999-4.5-4.5-4.5z" fill="url(#h)" opacity=".3"/><g><path d="m15.00013 15h66v66h-66z" fill="url(#r)" opacity=".3"/><path d="m16.00013 16.000145h63.999855v63.999855h-63.999855z" fill="url(#k)"/><g clip-path="url(#q)" opacity=".8" transform="translate(0 -10)"><path d="m63.175794 37.576905c1.369476-.397707 2.807779.367992 3.205487 1.737469.262772.904832.01648 1.836087-.581625 2.479326.586553.478664 1.089738 1.056139 1.505518 1.710498.675277-.471862 1.39641-.882052 2.192631-1.189959-.06956-.139988-.145615-.277311-.190748-.432721-.408457-1.406491.403578-2.883197 1.810068-3.291654 1.030523-.299273 2.089976.06539 2.74654.829435.716458-1.339395 1.929589-2.411629 3.485864-2.899711-.365462-1.258437.359975-2.577663 1.618413-2.943125 1.184938-.344117 2.406347.292537 2.852109 1.417058.324269-.235887.702109-.431687 1.109389-.549965 1.887657-.548192 3.866495.539963 4.414688 2.42762.01796.06184.0078.126802.02228.188776.561904-.244831 1.133537-.459353 1.735737-.634238 1.602475-.465372 3.198285-.632208 4.779415-.574459.79208-1.35483 2.08729-2.428468 3.71337-2.900697 3.36817-.978147 6.88309.954696 7.86124 4.322868.14672.505224.22646 1.01969.24699 1.522786 2.14913-.330399 4.24991.963796 4.87265 3.108152.12227.421021.17183.835673.16855 1.252696.2622.121854.51679.249167.76579.395888.63234-.964536 1.59387-1.731977 2.81117-2.085493 2.62791-.76317 5.33539.66766 6.06631 3.184536s-.78897 5.175372-3.41689 5.938542c-.39479.114651-.79196.161401-1.18396.181128.12908 3.889379-2.36252 7.519728-6.27254 8.655233-1.22894.356896-2.47953.422032-3.66904.251997-1.92 2.790095-4.74823 4.958448-8.25444 5.976689-4.73744 1.37579-9.602786.33061-13.287237-2.389162-.585007.617655-1.333104 1.103049-2.209076 1.35744-2.331035.676952-4.754739-.41753-5.805842-2.511733-.02951.0088-.06039.01754-.09003.02614-3.469958 1.007707-7.019558.122007-9.602656-2.027384-.854661 1.601925-2.336349 2.85875-4.217701 3.405112-3.396856.986478-6.953971-.707802-8.344283-3.857177-.398342.22718-.808409.430016-1.268154.56353-3.146095.913654-6.444159-.899938-7.357814-4.046033-.913654-3.146096.899938-6.44416 4.046034-7.357814.328869-.09551.658222-.151626.986469-.188857.336169-.608133.871585-1.066644 1.552717-1.26445.704334-.204545 1.442393-.08217 2.065929.278645-.128873-3.224369 1.928678-6.254798 5.167095-7.195264.70473-.20466 1.409116-.264071 2.106545-.253808-.06387-1.172217.667285-2.276416 1.843037-2.617865z" fill="url(#l)"/><path d="m20.5 50.3125c-.950448 0-1.828481.305591-2.53125.8125-.580044-.08942-1.176174-.15625-1.78125-.15625-2.643739 0-5.050411.91554-7 2.40625-.225196-.03559-.451673-.0625-.6875-.0625-2.312525 0-4.1875 1.771853-4.1875 3.96875 0 .823837.267268 1.583883.71875 2.21875-.267997.977691-.40625 1.999741-.40625 3.0625 0 1.073475.133008 2.107256.40625 3.09375-.619923-.27902-1.307329-.4375-2.03125-.4375-2.736488 0-4.9375 2.201013-4.9375 4.9375 0 2.736488 2.201012 4.96875 4.9375 4.96875.36612 0 .719001-.04965 1.0625-.125-.000643.04129 0 .08355 0 .125 0 4.316713 3.495787 7.8125 7.8125 7.8125 2.785961 0 5.209665-1.46207 6.59375-3.65625 2.041092 1.84097 4.753634 2.96875 7.71875 2.96875 4.014997 0 7.532983-2.07204 9.59375-5.1875 1.294164.971148 2.882433 1.5625 4.625 1.5625 2.724975 0 5.119177-1.435314 6.5-3.5625.693167.556164 1.542148.90625 2.5.90625 1.309291 0 2.478909-.629504 3.21875-1.59375.322673.203233.71549.34375 1.125.34375 1.156262 0 2.09375-.937488 2.09375-2.09375s-.937488-2.09375-2.09375-2.09375c-.180666 0-.364014.01947-.53125.0625-.507331-1.456041-1.819792-2.526386-3.40625-2.6875-.08623-1.348065-1.192663-2.40625-2.5625-2.40625-.381196 0-.736814.07047-1.0625.21875-1.418341-1.583489-3.488111-2.59375-5.78125-2.59375-1.024452 0-1.979942.201263-2.875.5625-.224258-2.373424-2.22414-4.25-4.65625-4.25-.280177 0-.545883.04651-.8125.09375.03207-.217664.0625-.429674.0625-.65625 0-2.505235-2.057265-4.53125-4.5625-4.53125-.939463 0-1.807279.260895-2.53125.75-.124657-.147579-.243234-.296374-.375-.4375.01212-.123274.03125-.248717.03125-.375 0-2.196897-1.874975-3.96875-4.1875-3.96875z" fill="url(#m)"/><path d="m94.09 34.889421c-1.79508 0-3.28711 1.334802-3.53125 3.0625-.99024.397809-1.89622.908493-2.71875 1.5625-.48316-.508483-1.14945-.84375-1.90625-.84375-1.4646 0-2.65625 1.191651-2.65625 2.65625 0 .01073-.00013.02055 0 .03125-1.03573.06809-2.02712.266793-2.96875.59375-.550274-.637053-1.373388-1.03125-2.281252-1.03125-1.636798 0-2.967312 1.308529-3 2.9375-.04347-.0022-.08097-.03125-.125-.03125-1.203669 0-2.223302.869855-2.46875 2-2.45358.166046-4.562623 1.519821-5.78125 3.5-.4926-.208352-1.025254-.3125-1.59375-.3125-2.273983 0-4.125 1.851017-4.125 4.125s1.851017 4.09375 4.125 4.09375c.534254 0 1.0316-.09607 1.5-.28125 1.286055 2.183281 3.657764 3.625 6.375 3.625.877767 0 1.718823-.156911 2.5-.4375 2.085815 2.410336 5.156042 3.9375 8.593752 3.9375 3.57421 0 6.75837-1.640646 8.84375-4.21875 1.21505 1.383268 2.98292 2.28125 4.96875 2.28125 1.54469 0 2.96664-.551752 4.09375-1.4375 1.05752.549176 2.2573.875 3.53125.875 1.54894 0 2.98131-.460945 4.1875-1.25.49805.257126 1.05711.40625 1.65625.40625 1.74332 0 3.21295-1.235953 3.5625-2.875.23611 1.540136 1.55007 2.71875 3.15625 2.71875 1.77293 0 3.21875-1.414564 3.21875-3.1875 0-1.615065-1.19735-2.962289-2.75-3.1875.0458-.258658.0937-.540686.0937-.8125 0-2.505235-2.02602-4.53125-4.53125-4.53125-.84008 0-1.63779.258215-2.3125.65625-.22398-.319863-.44981-.655928-.71875-.9375.10594-.250475.15625-.523434.15625-.8125 0-1.156262-.93749-2.09375-2.09375-2.09375-.0932 0-.1913.01945-.28125.03125-.0172-1.796731-1.48046-3.25-3.28125-3.25-.47744 0-.93457.09784-1.34375.28125-1.42514-2.522984-3.82747-4.414808-6.6875-5.1875-.40134-1.525904-1.75435-2.65625-3.40625-2.65625z" fill="url(#n)"/><path d="m10.66061 61.762622c3.026368.307343 5.375 2.892545 5.375 5.999999 0 .502248-.07128.971235-.1875 1.4375 1.355555-.829233 2.950813-1.3125 4.65625-1.3125.697126 0 1.380076.09893 2.03125.25.475056-1.362518 1.756773-2.34375 3.28125-2.34375 1.927104 0 3.46875 1.572896 3.46875 3.5 0 .923053-.352247 1.75095-.9375 2.375.196494-.02238.391268 0 .59375 0 2.890656 0 5.25 2.328094 5.25 5.21875s-2.359344 5.249999-5.25 5.249999c-.403981 0-.778551-.0696-1.15625-.15625-1.011736 1.42701-2.435578 2.51934-4.09375 3.15625.0042.11543.03125.22731.03125.34375 0 5.24172-4.258277 9.46875-9.5 9.46875-1.530417 0-2.969848-.3566-4.25-1-2.624598 1.78345-5.806379 2.84375-9.21875 2.84375-6.838671 0-12.693371-4.20513-15.156251-10.15625-4.78516-.5966-8.5-4.64697-8.5-9.593749 0-5.357349 4.33015-9.71875 9.6875-9.71875 1.15953 0 2.28176.220606 3.3125.59375.85422-.731187 1.78936-1.393203 2.78125-1.9375-.0827-.233328-.15625-.488331-.15625-.75 0-1.233347 1.01665-2.21875 2.25-2.21875.94828 0 1.76987.572443 2.09375 1.40625 1.05684-.242785 2.15727-.406213 3.281251-.4375.31043-1.285581 1.462817-2.21875 2.84375-2.21875 1.174447 0 2.188572.690101 2.65625 1.6875 1.078785-1.054211 2.554466-1.6875 4.1875-1.6875.207164 0 .423242-.02049.625 0z" fill="url(#o)" opacity=".8"/><path d="m7.65625 74.65625c3.500466 0 6.464046 2.18625 7.625 5.28125 2.922683.05208 5.28125 2.43988 5.28125 5.375 0 2.96774-2.40726 5.375-5.375 5.375-1.175339 0-2.240467-.3911-3.125-1.03125-1.273613.82112-2.778216 1.3125-4.40625 1.3125-.412169 0-.822986-.0348-1.21875-.0937-.460796.55836-1.157023.9375-1.9375.9375-1.110012 0-2.04265-.72039-2.375-1.71875-.573002.1721-1.183445.28125-1.8125.28125-3.468787 0-6.28125-2.81246-6.28125-6.28125 0-2.90511 1.97757-5.344769 4.65625-6.0625-.02473-.153233-.0625-.308535-.0625-.46875 0-1.618767 1.318733-2.90625 2.9375-2.90625.866194 0 1.650919.371372 2.1875.96875 1.15693-.628482 2.497055-.96875 3.90625-.96875z" fill="url(#p)" opacity=".8"/><path d="m83.40625 60.3125c.95045 0 1.82848.305591 2.53125.8125.58004-.08942 1.17617-.15625 1.78125-.15625 2.64374 0 5.05041.91554 7 2.40625.2252-.03559.45167-.0625.6875-.0625 2.31252 0 4.1875 1.771853 4.1875 3.96875 0 .823837-.26727 1.583883-.71875 2.21875.268.977691.40625 1.999741.40625 3.0625 0 1.073475-.13301 2.107256-.40625 3.09375.61992-.27902 1.30733-.4375 2.03125-.4375 2.73649 0 4.9375 2.201013 4.9375 4.9375 0 2.73649-2.20101 4.96875-4.9375 4.96875-.36612 0-.719-.0496-1.0625-.125.00064.0413 0 .0836 0 .125 0 4.31671-3.49579 7.8125-7.8125 7.8125-2.78596 0-5.20966-1.46207-6.59375-3.65625-2.04109 1.84097-4.75363 2.96875-7.71875 2.96875-4.014997 0-7.532983-2.07204-9.59375-5.1875-1.294164.97115-2.882433 1.5625-4.625 1.5625-2.724975 0-5.119177-1.43531-6.5-3.5625-.693167.55616-1.542148.90625-2.5.90625-1.309291 0-2.478909-.6295-3.21875-1.59375-.322673.20323-.71549.34375-1.125.34375-1.156262 0-2.09375-.93749-2.09375-2.09375s.937488-2.09375 2.09375-2.09375c.180666 0 .364014.0195.53125.0625.507331-1.456041 1.819792-2.526386 3.40625-2.6875.08623-1.348065 1.192663-2.40625 2.5625-2.40625.381196 0 .736814.07047 1.0625.21875 1.418341-1.583489 3.488111-2.59375 5.78125-2.59375 1.024452 0 1.979942.201263 2.875.5625.224258-2.373424 2.22414-4.25 4.65625-4.25.280177 0 .545883.04651.8125.09375-.03207-.217664-.0625-.429674-.0625-.65625 0-2.505235 2.057265-4.53125 4.5625-4.53125.939463 0 1.807279.260895 2.53125.75.124657-.147579.243234-.296374.375-.4375-.01212-.123274-.03125-.248717-.03125-.375 0-2.196897 1.87498-3.96875 4.1875-3.96875z" fill="url(#N)" opacity=".5"/><path d="m104.09 56.889421c-1.79508 0-3.28711 1.3348-3.53125 3.0625-.99024.39781-1.89622.90849-2.71875 1.562499-.48316-.508483-1.14945-.843749-1.90625-.843749-1.4646 0-2.65625 1.19165-2.65625 2.656249 0 .01073-.00013.02055 0 .03125-1.03573.06809-2.02712.266793-2.96875.59375-.550274-.637053-1.373388-1.03125-2.281252-1.03125-1.636798 0-2.967312 1.308529-3 2.9375-.04347-.0022-.08097-.03125-.125-.03125-1.203669 0-2.223302.869855-2.46875 2-2.45358.166046-4.562623 1.519821-5.78125 3.5-.4926-.208352-1.025254-.3125-1.59375-.3125-2.273983 0-4.125 1.851017-4.125 4.125s1.851017 4.09375 4.125 4.09375c.534254 0 1.0316-.09607 1.5-.28125 1.286055 2.183281 3.657764 3.625 6.375 3.625.877767 0 1.718823-.156911 2.5-.4375 2.085815 2.410336 5.156042 3.9375 8.593752 3.9375 3.57421 0 6.75837-1.640646 8.84375-4.21875 1.21505 1.383268 2.98292 2.28125 4.96875 2.28125 1.54469 0 2.96664-.551752 4.09375-1.4375 1.05752.549176 2.2573.875 3.53125.875 1.54894 0 2.98131-.460945 4.1875-1.25.49805.257126 1.05711.40625 1.65625.40625 1.74332 0 3.21295-1.235953 3.5625-2.875.23611 1.540136 1.55007 2.71875 3.15625 2.71875 1.77293 0 3.21875-1.414564 3.21875-3.1875 0-1.615065-1.19735-2.962289-2.75-3.1875.0458-.258658.0937-.540686.0937-.8125 0-2.505235-2.02602-4.53125-4.53125-4.53125-.84008 0-1.63779.258215-2.3125.65625-.22398-.319863-.44981-.655928-.71875-.9375.10594-.250475.15625-.523434.15625-.8125 0-1.156262-.93749-2.09375-2.09375-2.09375-.0932 0-.1913.01945-.28125.03125-.0172-1.796731-1.48046-3.25-3.28125-3.25-.47744 0-.93457.09784-1.34375.28125-1.42514-2.522984-3.82747-4.414809-6.6875-5.187499-.40134-1.5259-1.75435-2.65625-3.40625-2.65625z" fill="url(#O)" opacity=".8"/></g><g fill="#3365a8"><path d="m16 16v64h64v-64zm2 2h60v60h-60z" opacity=".15"/><path d="m16.4375 16c-.03654.0073-.06024.01707-.09375.03125-.07367.02998-.134622.06872-.1875.125-.09518.101305-.159464.22767-.15625.375v62.90625.03125c.0019.05425.01433.10669.03125.15625.01558.04455.03654.08657.0625.125.01089.01749.01848.04637.03125.0625.0088.01017.02176.02176.03125.03125.05288.05628.113827.09502.1875.125.02947.01199.06172.02443.09375.03125.03461.0069.05711-.000004.09375 0h16.0625 3.8125 1.65625 27.96875 13.4375c.07531-.000007.122246-.0036.1875-.03125.195763-.08281.343729-.274073.34375-.5.000591-.0104-.000001-.02071 0-.03125v-62.90625c-.000007-.07531-.0036-.122246-.03125-.1875-.08281-.195763-.274074-.343727-.5-.34375h-13.4375-27.96875-1.65625-3.8125-16.0625c-.03777-.004-.05597-.004-.09375 0zm.65625 1.09375h14.6875 4.15625 1.125 30.75 11.09375v61.8125h-11.09375-30.75-1.125-4.15625-14.6875z" opacity=".3"/></g></g><rect height="66" rx="12" style="opacity:.1;stroke:#fefefe;stroke-width:.5;stroke-linecap:round;clip-path:url(#d);fill:url(#c);filter:url(#b)" width="66" x="15" y="15"/><path d="m63.15625 23.75v.03125c-1.30816-.08402-2.359181.627402-3.03125 1.25-.702775.651044-1.215919 1.079439-1.25 1.09375-.01004-.0017-.0212.0017-.03125 0-2.224323-.378923-4.728616-.39714-6.78125 1.21875-.01177.0093-.01951.02188-.03125.03125-5.235778 3.731767-8.802936 9.003954-13.09375 13.1875-1.709274 1.354534-3.853658 2.193931-6.0625 3.15625-2.23325.972952-4.546199 2.078293-6.375 4.09375-.01039.01145-.02089.01974-.03125.03125-1.274675 1.283282-1.504603 3.008204-1.1875 4.5.319817 1.504566 1.121795 2.871002 1.90625 3.9375a1.0151516 1.0151516 0 0 0 0 .03125c4.729997 6.249211 11.445231 10.534867 18.25 13.90625a1.0151516 1.0151516 0 0 0 .03125.03125c4.693742 2.123169 9.875543 4.261984 15.40625 3.9375.01018-.000383.02107.000438.03125 0 2.344494-.100707 4.701169-1.657074 5.0625-4.15625h.03125c.0044-.03075-.0038-.06271 0-.09375.0056-.0219.02579-.04061.03125-.0625.716901-2.872959.318548-5.684938.03125-8.34375-.292612-2.708-.45822-5.236177.5-7.59375a1.0151516 1.0151516 0 0 0 .03125-.09375c1.658448-5.471038 4.083319-11.038659 4.21875-17.15625a1.0151516 1.0151516 0 0 0 0-.09375c-.139971-2.146768-1.355922-3.792158-2.5625-5.15625 1.553663-3.012323-.210262-7.035357-3.6875-7.5625v-.03125c-.02829-.0059-.06505.0056-.09375 0-.33675-.066022-.706311-.100843-1.09375-.09375-.02201.000403-.04034-.000758-.0625 0-.0554.0019-.09995-.0042-.15625 0z" opacity=".05"/><path d="m63.21875 24.75c-1.979706-.280979-2.987252 2.224189-4.254728 2.389008-2.184107-.410712-4.48919-.427927-6.312217 1.027288-5.058143 3.592825-8.6033 8.818951-13.005021 13.110632-3.768562 3.0503-9.090502 3.54594-12.428034 7.254322-2.075514 2.047878-.672248 5.190246.777789 7.161631 4.586289 6.059346 11.157529 10.282047 17.891311 13.61826 4.679627 2.116784 9.716099 4.197761 14.95286 3.881581 1.974861-.07431 3.981933-1.432406 4.190045-3.421478 1.412623-5.34852-1.533284-10.951239.601221-16.202902 1.681414-5.5468 4.056941-11.055335 4.18661-16.91264-.128837-1.975999-1.414681-3.605897-2.693586-4.999452 1.91338-2.400582.257122-6.417095-2.78125-6.8125-.368894-.07672-.747914-.122211-1.125-.09375z" opacity=".1"/><path d="m63.28125 25.65625c-1.120763.07921-2.177189.703735-2.78125 1.75-.184589.319717-.2997.657677-.375 1-.09428-.03487-.185797-.09355-.28125-.125-.504109-.166089-1.046585-.265087-1.65625-.34375-.07397-.0096-.142222-.02286-.21875-.03125-.08143-.009-.165417-.02356-.25-.03125-.14844-.01319-.340704-.02192-.5-.03125-.354165-.01998-.737457-.02894-1.15625-.03125-.203077-.0011-.406122.0166-.625.0625-.04267.0086-.08178.02092-.125.03125-.0326.008-.06085.02229-.09375.03125-.226603.05995-.447175.115209-.6875.21875-.08035.03462-.168227.0858-.25.125-3.811485 1.827235-9.138925 8.572263-13.25 12.9375-1.341409 1.42434-3.185028 2.396109-5.125 3.28125-.163359.07288-.335473.145329-.5.21875-1.869362.834416-3.775785 1.60963-5.375 2.625-.04519.02873-.08031.06469-.125.09375-.759368.493954-1.43339 1.044232-2 1.6875-.201662.179121-.368242.365538-.5.59375-1.932997 3.348048 4.643355 10.76351 14.6875 16.5625s19.754503 7.785548 21.6875 4.4375c.120812-.209253.194429-.41661.25-.65625.859783-2.46291.446387-5.428347.125-8.40625-.0044-.0063.0045-.02493 0-.03125-.02563-.236983-.07033-.481971-.09375-.71875-.214424-2.175447-.295209-4.330689.28125-6.25 1.684801-5.609508 4.722671-13.340635 4.5625-17.625.01107.0096.0202.02161.03125.03125-.0071-.22604-.03588-.418197-.0625-.625-.0226-.192641-.05436-.356887-.09375-.53125-.03697-.156097-.07403-.328388-.125-.46875-.0081-.02244-.02279-.04048-.03125-.0625-.06049-.157616-.108373-.302178-.1875-.4375-.182819-.312653-.361612-.580193-.53125-.84375-.0304-.04683-.06361-.07955-.09375-.125-.141516-.216015-.269583-.406399-.40625-.59375-.055148-.074522-.101381-.148186-.15625-.21875-.114812-.150429-.229151-.271883-.34375-.40625-.0745-.08628-.143609-.169302-.21875-.25-.260898-.284083-.528297-.545787-.8125-.78125.259491-.23669.502521-.492107.6875-.8125.966498-1.674024.392774-3.814752-1.28125-4.78125-.258648-.14933-.537629-.235078-.8125-.3125-.08728-.03379-.179491-.04333-.28125-.0625-.30032-.05768-.606578-.114928-.90625-.09375z" opacity=".3"/><g><path d="m148-25a4 4 0 1 1 -8 0 4 4 0 1 1 8 0z" fill="url(#s)"/><path d="m141.2585-26.920679s-1.39878 2.860111 2.37554 3.043602c4.93045.239697 3.0685-3.903187 3.0685-3.903187 2.23533 2.387737.42979 5.229143.42979 5.229143l-5.87383.07163s-1.86243-1.289376 0-4.441188z" fill="#2a0a00" opacity=".611354"/><path d="m144-24c-3.4844 0-4.8297.04133-8.15625 1.9375-3.73933 2.131466-5.38073 14.0577581-7.21875 21.84375-1.36998 5.8033357-8.12358 10.559814-8.625 16.21875h24 24c-.50142-5.658936-7.25502-10.4154143-8.625-16.21875-1.83802-7.7859919-3.47942-19.712284-7.21875-21.84375-3.32655-1.896175-4.67185-1.9375-8.15625-1.9375z" fill="url(#t)"/><path d="m153.42091-7.8292923a2.4745307 11.110138 0 1 1 -4.94906 0 2.4745307 11.110138 0 1 1 4.94906 0z" fill="url(#u)" transform="matrix(1.4285714 0 0 .97636368 -66.256828 -2.004089)"/><path d="m145.28125-23.96875c2.00428.100506 3.38009.484119 5.875 1.90625 3.73933 2.131466 5.38073 14.0577581 7.21875 21.84375 1.36998 5.8033357 8.12358 10.559814 8.625 16.21875h1c-.50142-5.658936-7.25502-10.4154143-8.625-16.21875-1.83802-7.7859919-3.47942-19.712284-7.21875-21.84375-2.8594-1.629892-4.3265-1.865531-6.875-1.90625z" fill="url(#w)" opacity=".694323"/><path d="m144-24c-3.4844 0-4.8297.04133-8.15625 1.9375-.54033.307994-1.04036.82502-1.5 1.5 2.85281-.458741 5.81834-.6875 8.875-.6875 3.69792 0 7.26856.336738 10.65625 1-.51685-.833587-1.09618-1.457625-1.71875-1.8125-3.32655-1.896175-4.67185-1.9375-8.15625-1.9375z" fill="url(#x)" opacity=".5"/><path d="m142-23.96875c-1.35317.400378-3.97358 1.059373-4.79329 2-2.65394 3.045428-2.62665 12.3704395-3.80046 17.125-1.1738 4.75456052-2.78409 4.65137983-2 5.919.73962 1.195718 4.02125.2909018 4.03125 1.1875.0229 2.0929273-5.45304 1.0728791-5.65625 2.749375l2.84375.09375s-6.06026 3.1140873-5.65625 6.144125l18.875-3.21875c-2.72703-1.2120151-7.84471-.3769602-8.0625-2.03125-.25871-1.9651169 4.66986-.010978 5.25-1.90625.66373-2.1683572-2.72362-2.9541472-3.875-7.5s-.49377-14.385465 1.125-18.375c.35356-.871372 1.6921-1.700186 2.53125-2.1875-.26684.0037-.56816-.0094-.8125 0z" fill="url(#y)"/><path d="m143.71875 3c-7.27329 0-13.76179 1.0796197-18.15625 2.78125-.16384.2318021-.33271.4568305-.5.6875 4.39253-1.8195422 11.09756-2.96875 18.65625-2.96875 8.02926 0 15.11804 1.2940767 19.46875 3.3125-.16772-.2294599-.33474-.4570771-.5-.6875-4.38177-1.8977265-11.22272-3.125-18.96875-3.125z" fill="url(#z)" opacity=".8"/><path d="m153.42091-7.8292923a2.4745307 11.110138 0 1 1 -4.94906 0 2.4745307 11.110138 0 1 1 4.94906 0z" fill="url(#u)" transform="matrix(1.0512375 0 0 .69931821 -19.577053 -6.401751)"/><path d="m148.87585-21.110958a4.7975597 1.2625157 0 1 1 -9.59512 0 4.7975597 1.2625157 0 1 1 9.59512 0z" fill="url(#A)" transform="matrix(.99999868 .0016217 -.0016217 .99999868 .393189 27.10938)"/><path d="m143.71875 2.5c-7.02556 0-13.33265 1.0172608-17.71875 2.625-.1486.2181248-.28423.4393927-.4375.65625 4.39446-1.7016303 10.88296-2.78125 18.15625-2.78125 7.74603 0 14.58698 1.2272735 18.96875 3.125-.16672-.2324614-.33776-.4537284-.5-.6875-4.39999-1.7790366-11.01697-2.9375-18.46875-2.9375z" fill="url(#B)"/><path d="m144.02779-23.68649s5.22599.443321 8.22336 2.323029c2.94657 2.286131 5.38406 19.3798773 7.21336 23.8527724.42463 1.0382748 4.8603 6.5897365 5.57154 8.1646266 1.35434 2.402029-12.30138-2.0615695-12.30138-2.0615695 7.44857-.3443379 4.34835-4.2626148 4.34835-4.2626148 1.48609-.8699063-2.54841-1.551765-.75886-3.2709353.77485-.74438447-2.28936-18.2934054-4.72486-21.7317464-.85958-2.005698-7.57151-3.013562-7.57151-3.013562z" fill="url(#C)" opacity=".8"/><path d="m148.7704-21.110958a4.6921058 1.2625157 0 1 1 -9.38421 0 4.6921058 1.2625157 0 1 1 9.38421 0z" fill="url(#A)" transform="matrix(1.4452632 0 0 1 -64.57999 0)"/><path d="m141.71875-23.96875c-2.00428.100507-3.38009.484122-5.875 1.90625-3.73933 2.131466-5.38073 14.0577581-7.21875 21.84375-1.36998 5.8033357-8.12358 10.559814-8.625 16.21875h1c.50142-5.658936 7.25502-10.4154143 8.625-16.21875 1.83802-7.7859919 3.47942-19.712284 7.21875-21.84375 2.49491-1.422128 3.87072-1.805743 5.875-1.90625-.32486.0052-.70719-.01468-1 0z" fill="url(#E)" opacity=".6"/><path d="m141.96875-23.96875c-1.35341.405954-4.15235 1.270392-4.96526 2.203212-2.65394 3.045428-2.42343 12.1672275-3.59724 16.921788-1.1738 4.75456052-2.78409 4.65137983-2 5.919.73962 1.195718 4.02125.2909018 4.03125 1.1875.0229 2.0929273-5.45304 1.0728791-5.65625 2.749375l2.84375.09375s-6.06026 3.1140873-5.65625 6.144125l1-.15625c-.18015-2.9697629 5.65625-5.987875 5.65625-5.987875l-2.84375-.09375c.20321-1.6764959 5.67917-.6564477 5.65625-2.749375-.01-.8965982-3.29163.00822-4.03125-1.1875-.78409-1.26762017.8262-1.16443948 2-5.919 1.17381-4.7545605.7909-13.825557 3.44484-16.870985.72883-.836338 3.4137-1.714016 4.71141-2.129015.12922-.07821.13523-.05775.25-.125-.2771.0038-.59079-.01001-.84375 0z" fill="url(#F)" opacity=".8"/><path d="m168 16a24 8 0 1 1 -48 0 24 8 0 1 1 48 0z" fill="url(#G)"/><path d="m143.34375 7.59375c-9.69652 0-18.06659 1.8547941-22.09375 4.5625-.51874.994315-.92525 1.993037-1.125 3.03125 1.22904-4.034049 11.44859-7.1875 23.875-7.1875s22.64596 3.153451 23.875 7.1875c-.0399-.207431-.10122-.419726-.15625-.625-1.80839-3.937012-12.03422-6.96875-24.375-6.96875z" fill="url(#H)"/><path d="m144 8c-1.00965 0-1.99213.026485-2.96875.0625-.69921.028687-1.38324.076709-2.0625.125-5.86376.4168753-10.92394 1.5350855-14.34375 3.09375 1.92807 3.204171 9.84939 5.59375 19.375 5.59375s17.44693-2.389579 19.375-5.59375c-3.41981-1.5586645-8.47999-2.6768747-14.34375-3.09375-.68066-.043421-1.36164-.099154-2.0625-.125-.97662-.0360155-1.9591-.0625-2.96875-.0625z" fill="url(#I)" opacity=".5"/><path d="m144 8c-13.25483 0-24 3.581722-24 8s10.74517 8 24 8 24-3.581722 24-8-10.74517-8-24-8zm0 .21875c12.89008 0 23.34375 3.276193 23.34375 7.34375s-10.45367 7.375-23.34375 7.375-23.34375-3.307443-23.34375-7.375 10.45367-7.34375 23.34375-7.34375z" fill="url(#J)" opacity=".5"/><path d="m144 8c-13.25483 0-24 3.581722-24 8s10.74517 8 24 8 24-3.581722 24-8-10.74517-8-24-8zm0 .21875c12.89008 0 23.34375 3.276193 23.34375 7.34375s-10.45367 7.375-23.34375 7.375-23.34375-3.307443-23.34375-7.375 10.45367-7.34375 23.34375-7.34375z" fill="url(#K)" opacity=".5"/><path d="m153.42091-7.8292923a2.4745307 11.110138 0 1 1 -4.94906 0 2.4745307 11.110138 0 1 1 4.94906 0z" fill="url(#u)" transform="matrix(.39756929 .3438223 -.13362202 .15451007 81.281297 -77.626181)"/><path d="m144.73424-28.557195s1.50606.368146 1.76549 1.801521c.22886 1.264479-.90076 2.125796-.90076 2.125796 1.04488-2.774343-.86473-3.927317-.86473-3.927317z" fill="#ffe9a5" opacity=".611354"/><g clip-path="url(#L)"><g fill="#2b0d00"><path d="m144-30.5625c-3.05372 0-5.5625 2.508779-5.5625 5.5625s2.50878 5.5625 5.5625 5.5625 5.5625-2.508779 5.5625-5.5625-2.50878-5.5625-5.5625-5.5625z" opacity=".08" transform="matrix(1.4022182 0 0 1.4022182 -50.024021 49.094121)"/><path d="m144-29.9375c-2.71916 0-4.9375 2.218343-4.9375 4.9375s2.21834 4.9375 4.9375 4.9375 4.9375-2.218343 4.9375-4.9375-2.21834-4.9375-4.9375-4.9375z" opacity=".12" transform="matrix(1.4022182 0 0 1.4022182 -50.024021 49.094121)"/><path d="m144-29.40625c-2.43173 0-4.40625 1.974526-4.40625 4.40625s1.97452 4.40625 4.40625 4.40625 4.40625-1.974526 4.40625-4.40625-1.97452-4.40625-4.40625-4.40625z" opacity=".2" transform="matrix(1.4022182 0 0 1.4022182 -50.024021 49.094121)"/><path d="m148-25a4 4 0 1 1 -8 0 4 4 0 1 1 8 0z" opacity=".3" transform="matrix(1.4022182 0 0 1.4022182 -50.024021 49.094121)"/></g><path d="m148-25a4 4 0 1 1 -8 0 4 4 0 1 1 8 0z" fill="url(#s)" transform="matrix(1.4022182 0 0 1.4022182 -50.310549 48.664328)"/><path d="m155.65039 15.785103s-1.06532 2.668553-3.87282 2.815599c-2.47667.129722-3.85625-2.1314-3.85625-2.1314 5.06398 2.542805 7.72907-.684199 7.72907-.684199z" fill="#441b00" opacity=".5"/><path d="m151.59375 8c-2.66092 0-4.83374 1.8582158-5.40625 4.34375 2.57976-2.167151 8.16494-2.3484489 10.875.03125-.56259-2.5037544-2.79493-4.375-5.46875-4.375z" fill="url(#M)"/><path d="m153.42091-7.8292923a2.4745307 11.110138 0 1 1 -4.94906 0 2.4745307 11.110138 0 1 1 4.94906 0z" fill="url(#u)" transform="matrix(1.0546259 .04643886 -.02401757 .30799178 -9.989707 8.286665)"/></g></g><g transform="matrix(.75777223 .4375 -.4375 .75777223 -56.528547 -15.902923)"><path d="m148-25a4 4 0 1 1 -8 0 4 4 0 1 1 8 0z" fill="url(#s)"/><path d="m141.2585-26.920679s-1.39878 2.860111 2.37554 3.043602c4.93045.239697 3.0685-3.903187 3.0685-3.903187 2.23533 2.387737.42979 5.229143.42979 5.229143l-5.87383.07163s-1.86243-1.289376 0-4.441188z" fill="#2a0a00" opacity=".611354"/><path d="m144-24c-3.4844 0-4.8297.04133-8.15625 1.9375-3.73933 2.131466-5.38073 14.0577581-7.21875 21.84375-1.36998 5.8033357-8.12358 10.559814-8.625 16.21875h24 24c-.50142-5.658936-7.25502-10.4154143-8.625-16.21875-1.83802-7.7859919-3.47942-19.712284-7.21875-21.84375-3.32655-1.896175-4.67185-1.9375-8.15625-1.9375z" fill="url(#t)"/><path d="m153.42091-7.8292923a2.4745307 11.110138 0 1 1 -4.94906 0 2.4745307 11.110138 0 1 1 4.94906 0z" fill="url(#u)" transform="matrix(1.4285714 0 0 .97636368 -66.256828 -2.004089)"/><path d="m145.28125-23.96875c2.00428.100506 3.38009.484119 5.875 1.90625 3.73933 2.131466 5.38073 14.0577581 7.21875 21.84375 1.36998 5.8033357 8.12358 10.559814 8.625 16.21875h1c-.50142-5.658936-7.25502-10.4154143-8.625-16.21875-1.83802-7.7859919-3.47942-19.712284-7.21875-21.84375-2.8594-1.629892-4.3265-1.865531-6.875-1.90625z" fill="url(#w)" opacity=".694323"/><path d="m144-24c-3.4844 0-4.8297.04133-8.15625 1.9375-.54033.307994-1.04036.82502-1.5 1.5 2.85281-.458741 5.81834-.6875 8.875-.6875 3.69792 0 7.26856.336738 10.65625 1-.51685-.833587-1.09618-1.457625-1.71875-1.8125-3.32655-1.896175-4.67185-1.9375-8.15625-1.9375z" fill="url(#x)" opacity=".5"/><path d="m142-23.96875c-1.35317.400378-3.97358 1.059373-4.79329 2-2.65394 3.045428-2.62665 12.3704395-3.80046 17.125-1.1738 4.75456052-2.78409 4.65137983-2 5.919.73962 1.195718 4.02125.2909018 4.03125 1.1875.0229 2.0929273-5.45304 1.0728791-5.65625 2.749375l2.84375.09375s-6.06026 3.1140873-5.65625 6.144125l18.875-3.21875c-2.72703-1.2120151-7.84471-.3769602-8.0625-2.03125-.25871-1.9651169 4.66986-.010978 5.25-1.90625.66373-2.1683572-2.72362-2.9541472-3.875-7.5s-.49377-14.385465 1.125-18.375c.35356-.871372 1.6921-1.700186 2.53125-2.1875-.26684.0037-.56816-.0094-.8125 0z" fill="url(#y)"/><path d="m143.71875 3c-7.27329 0-13.76179 1.0796197-18.15625 2.78125-.16384.2318021-.33271.4568305-.5.6875 4.39253-1.8195422 11.09756-2.96875 18.65625-2.96875 8.02926 0 15.11804 1.2940767 19.46875 3.3125-.16772-.2294599-.33474-.4570771-.5-.6875-4.38177-1.8977265-11.22272-3.125-18.96875-3.125z" fill="url(#z)" opacity=".8"/><path d="m153.42091-7.8292923a2.4745307 11.110138 0 1 1 -4.94906 0 2.4745307 11.110138 0 1 1 4.94906 0z" fill="url(#u)" transform="matrix(1.0512375 0 0 .69931821 -19.577053 -6.401751)"/><path d="m148.87585-21.110958a4.7975597 1.2625157 0 1 1 -9.59512 0 4.7975597 1.2625157 0 1 1 9.59512 0z" fill="url(#A)" transform="matrix(.99999868 .0016217 -.0016217 .99999868 .393189 27.10938)"/><path d="m143.71875 2.5c-7.02556 0-13.33265 1.0172608-17.71875 2.625-.1486.2181248-.28423.4393927-.4375.65625 4.39446-1.7016303 10.88296-2.78125 18.15625-2.78125 7.74603 0 14.58698 1.2272735 18.96875 3.125-.16672-.2324614-.33776-.4537284-.5-.6875-4.39999-1.7790366-11.01697-2.9375-18.46875-2.9375z" fill="url(#B)"/><path d="m144.02779-23.68649s5.22599.443321 8.22336 2.323029c2.94657 2.286131 5.38406 19.3798773 7.21336 23.8527724.42463 1.0382748 4.8603 6.5897365 5.57154 8.1646266 1.35434 2.402029-12.30138-2.0615695-12.30138-2.0615695 7.44857-.3443379 4.34835-4.2626148 4.34835-4.2626148 1.48609-.8699063-2.54841-1.551765-.75886-3.2709353.77485-.74438447-2.28936-18.2934054-4.72486-21.7317464-.85958-2.005698-7.57151-3.013562-7.57151-3.013562z" fill="url(#C)" opacity=".8"/><path d="m148.7704-21.110958a4.6921058 1.2625157 0 1 1 -9.38421 0 4.6921058 1.2625157 0 1 1 9.38421 0z" fill="url(#A)" transform="matrix(1.4452632 0 0 1 -64.57999 0)"/><path d="m141.71875-23.96875c-2.00428.100507-3.38009.484122-5.875 1.90625-3.73933 2.131466-5.38073 14.0577581-7.21875 21.84375-1.36998 5.8033357-8.12358 10.559814-8.625 16.21875h1c.50142-5.658936 7.25502-10.4154143 8.625-16.21875 1.83802-7.7859919 3.47942-19.712284 7.21875-21.84375 2.49491-1.422128 3.87072-1.805743 5.875-1.90625-.32486.0052-.70719-.01468-1 0z" fill="url(#E)" opacity=".6"/><path d="m141.96875-23.96875c-1.35341.405954-4.15235 1.270392-4.96526 2.203212-2.65394 3.045428-2.42343 12.1672275-3.59724 16.921788-1.1738 4.75456052-2.78409 4.65137983-2 5.919.73962 1.195718 4.02125.2909018 4.03125 1.1875.0229 2.0929273-5.45304 1.0728791-5.65625 2.749375l2.84375.09375s-6.06026 3.1140873-5.65625 6.144125l1-.15625c-.18015-2.9697629 5.65625-5.987875 5.65625-5.987875l-2.84375-.09375c.20321-1.6764959 5.67917-.6564477 5.65625-2.749375-.01-.8965982-3.29163.00822-4.03125-1.1875-.78409-1.26762017.8262-1.16443948 2-5.919 1.17381-4.7545605.7909-13.825557 3.44484-16.870985.72883-.836338 3.4137-1.714016 4.71141-2.129015.12922-.07821.13523-.05775.25-.125-.2771.0038-.59079-.01001-.84375 0z" fill="url(#F)" opacity=".8"/><path d="m168 16a24 8 0 1 1 -48 0 24 8 0 1 1 48 0z" fill="url(#G)"/><path d="m143.34375 7.59375c-9.69652 0-18.06659 1.8547941-22.09375 4.5625-.51874.994315-.92525 1.993037-1.125 3.03125 1.22904-4.034049 11.44859-7.1875 23.875-7.1875s22.64596 3.153451 23.875 7.1875c-.0399-.207431-.10122-.419726-.15625-.625-1.80839-3.937012-12.03422-6.96875-24.375-6.96875z" fill="url(#H)"/><path d="m144 8c-1.00965 0-1.99213.026485-2.96875.0625-.69921.028687-1.38324.076709-2.0625.125-5.86376.4168753-10.92394 1.5350855-14.34375 3.09375 1.92807 3.204171 9.84939 5.59375 19.375 5.59375s17.44693-2.389579 19.375-5.59375c-3.41981-1.5586645-8.47999-2.6768747-14.34375-3.09375-.68066-.043421-1.36164-.099154-2.0625-.125-.97662-.0360155-1.9591-.0625-2.96875-.0625z" fill="url(#I)" opacity=".5"/><path d="m144 8c-13.25483 0-24 3.581722-24 8s10.74517 8 24 8 24-3.581722 24-8-10.74517-8-24-8zm0 .21875c12.89008 0 23.34375 3.276193 23.34375 7.34375s-10.45367 7.375-23.34375 7.375-23.34375-3.307443-23.34375-7.375 10.45367-7.34375 23.34375-7.34375z" fill="url(#J)" opacity=".5"/><path d="m144 8c-13.25483 0-24 3.581722-24 8s10.74517 8 24 8 24-3.581722 24-8-10.74517-8-24-8zm0 .21875c12.89008 0 23.34375 3.276193 23.34375 7.34375s-10.45367 7.375-23.34375 7.375-23.34375-3.307443-23.34375-7.375 10.45367-7.34375 23.34375-7.34375z" fill="url(#K)" opacity=".5"/><path d="m153.42091-7.8292923a2.4745307 11.110138 0 1 1 -4.94906 0 2.4745307 11.110138 0 1 1 4.94906 0z" fill="url(#u)" transform="matrix(.39756929 .3438223 -.13362202 .15451007 81.281297 -77.626181)"/><path d="m144.73424-28.557195s1.50606.368146 1.76549 1.801521c.22886 1.264479-.90076 2.125796-.90076 2.125796 1.04488-2.774343-.86473-3.927317-.86473-3.927317z" fill="#ffe9a5" opacity=".611354"/><g clip-path="url(#L)"><g fill="#2b0d00"><path d="m144-30.5625c-3.05372 0-5.5625 2.508779-5.5625 5.5625s2.50878 5.5625 5.5625 5.5625 5.5625-2.508779 5.5625-5.5625-2.50878-5.5625-5.5625-5.5625z" opacity=".08" transform="matrix(1.4022182 0 0 1.4022182 -50.024021 49.094121)"/><path d="m144-29.9375c-2.71916 0-4.9375 2.218343-4.9375 4.9375s2.21834 4.9375 4.9375 4.9375 4.9375-2.218343 4.9375-4.9375-2.21834-4.9375-4.9375-4.9375z" opacity=".12" transform="matrix(1.4022182 0 0 1.4022182 -50.024021 49.094121)"/><path d="m144-29.40625c-2.43173 0-4.40625 1.974526-4.40625 4.40625s1.97452 4.40625 4.40625 4.40625 4.40625-1.974526 4.40625-4.40625-1.97452-4.40625-4.40625-4.40625z" opacity=".2" transform="matrix(1.4022182 0 0 1.4022182 -50.024021 49.094121)"/><path d="m148-25a4 4 0 1 1 -8 0 4 4 0 1 1 8 0z" opacity=".3" transform="matrix(1.4022182 0 0 1.4022182 -50.024021 49.094121)"/></g><path d="m148-25a4 4 0 1 1 -8 0 4 4 0 1 1 8 0z" fill="url(#s)" transform="matrix(1.4022182 0 0 1.4022182 -50.310549 48.664328)"/><path d="m155.65039 15.785103s-1.06532 2.668553-3.87282 2.815599c-2.47667.129722-3.85625-2.1314-3.85625-2.1314 5.06398 2.542805 7.72907-.684199 7.72907-.684199z" fill="#441b00" opacity=".5"/><path d="m151.59375 8c-2.66092 0-4.83374 1.8582158-5.40625 4.34375 2.57976-2.167151 8.16494-2.3484489 10.875.03125-.56259-2.5037544-2.79493-4.375-5.46875-4.375z" fill="url(#M)"/><path d="m153.42091-7.8292923a2.4745307 11.110138 0 1 1 -4.94906 0 2.4745307 11.110138 0 1 1 4.94906 0z" fill="url(#u)" transform="matrix(1.0546259 .04643886 -.02401757 .30799178 -9.989707 8.286665)"/></g></g></svg>