<svg height="96" width="96" xmlns="http://www.w3.org/2000/svg" xmlns:xlink="http://www.w3.org/1999/xlink"><linearGradient id="a"><stop offset="0" stop-color="#fffac8"/><stop offset="1" stop-color="#feff67" stop-opacity="0"/></linearGradient><linearGradient id="b" gradientUnits="userSpaceOnUse" x1="36.357143" x2="36.357143" xlink:href="#a" y1="6" y2="63.893143"/><filter id="c" color-interpolation-filters="sRGB" height="1.384" width="1.384" x="-.192" y="-.192"><feGaussianBlur stdDeviation="5.28"/></filter><linearGradient id="d" gradientUnits="userSpaceOnUse" x1="48" x2="48" xlink:href="#a" y1="20.220806" y2="138.66119"/><radialGradient id="e" cx="48" cy="90.171875" gradientTransform="matrix(1.1573129 0 0 .99590774 -7.551021 .197132)" gradientUnits="userSpaceOnUse" r="42" xlink:href="#a"/><clipPath id="f"><rect height="84" rx="6" width="84" x="6" y="6"/></clipPath><linearGradient id="g" gradientUnits="userSpaceOnUse" x1="48" x2="48" y1="90" y2="5.987717"><stop offset="0" stop-color="#003baa"/><stop offset="1" stop-color="#0077e7"/></linearGradient><linearGradient id="h" gradientTransform="matrix(1.0058652 0 0 .994169 100 0)" gradientUnits="userSpaceOnUse" x1="45.447727" x2="45.447727" y1="92.539597" y2="7.01654"><stop offset="0"/><stop offset="1" stop-opacity=".588235"/></linearGradient><linearGradient id="i" gradientTransform="matrix(1.0238095 0 0 1.0119048 -1.142857 -98.071429)" gradientUnits="userSpaceOnUse" x1="32.251034" x2="32.251034" xlink:href="#h" y1="6.131708" y2="90.238609"/><linearGradient id="j" gradientTransform="translate(0 -97)" gradientUnits="userSpaceOnUse" x1="32.251034" x2="32.251034" xlink:href="#h" y1="6.131708" y2="90.238609"/><linearGradient id="k"><stop offset="0" stop-color="#fefefe"/><stop offset="1" stop-color="#fefefe" stop-opacity="0"/></linearGradient><linearGradient id="l" gradientTransform="matrix(0 -1 1 0 -.156248 95.999998)" gradientUnits="userSpaceOnUse" x1="65" x2="65" xlink:href="#k" y1="6" y2="86"/><radialGradient id="m" cx="32" cy="14.5" gradientTransform="matrix(1 0 0 .05769231 0 13.663462)" gradientUnits="userSpaceOnUse" r="26" xlink:href="#k"/><g fill="url(#i)"><path d="m12-95.03125c-5.5110903 0-10.03125 4.52016-10.03125 10.03125v71c0 5.5110902 4.5201598 10.03125 10.03125 10.03125h72c5.51109 0 10.03125-4.5201597 10.03125-10.03125v-71c0-5.51109-4.52016-10.03125-10.03125-10.03125z" opacity=".08" transform="scale(1 -1)"/><path d="m12-94.03125c-4.971633 0-9.03125 4.059617-9.03125 9.03125v71c0 4.9716329 4.0596171 9.03125 9.03125 9.03125h72c4.971633 0 9.03125-4.059617 9.03125-9.03125v-71c0-4.971633-4.059617-9.03125-9.03125-9.03125z" opacity=".1" transform="scale(1 -1)"/><path d="m12-93c-4.4091333 0-8 3.590867-8 8v71c0 4.4091333 3.5908667 8 8 8h72c4.409133 0 8-3.5908667 8-8v-71c0-4.409133-3.590867-8-8-8z" opacity=".2" transform="scale(1 -1)"/><rect height="85" opacity=".3" rx="7" transform="scale(1 -1)" width="86" x="5" y="-92"/></g><rect fill="url(#j)" height="84" opacity=".45" rx="6" transform="scale(1 -1)" width="84" x="6" y="-91"/><rect fill="url(#g)" height="84" rx="6" width="84" x="6" y="6"/><path d="m12 6c-3.324 0-6 2.676-6 6v2 68 2c0 .334721.04135.6507.09375.96875.0487.295596.09704.596915.1875.875.00988.03038.020892.0636.03125.09375.098865.287771.2348802.547452.375.8125.1445918.273507.3156161.535615.5.78125s.3737765.473472.59375.6875c.439947.428056.94291.814526 1.5 1.09375.278545.139612.5734731.246947.875.34375-.2562018-.100222-.4867109-.236272-.71875-.375-.00741-.0044-.023866.0045-.03125 0-.031933-.0193-.062293-.04251-.09375-.0625-.120395-.0767-.2310226-.163513-.34375-.25-.1061728-.0808-.2132809-.161112-.3125-.25-.1779299-.161433-.3474596-.345388-.5-.53125-.1075789-.130255-.2183939-.265285-.3125-.40625-.025089-.03838-.038446-.08587-.0625-.125-.064763-.103032-.1302275-.204517-.1875-.3125-.1010083-.194706-.2056748-.415701-.28125-.625-.00796-.02181-.023589-.04055-.03125-.0625-.0318251-.09195-.0358045-.186831-.0625-.28125-.0303323-.106618-.0703894-.203031-.09375-.3125-.0728786-.341512-.125-.698205-.125-1.0625v-2-68-2c0-2.781848 2.2181517-5 5-5h2 68 2c2.781848 0 5 2.218152 5 5v2 68 2c0 .364295-.05212.720988-.125 1.0625-.04415.206893-.08838.397658-.15625.59375-.0077.02195-.0233.04069-.03125.0625-.06274.173739-.138383.367449-.21875.53125-.04158.0828-.07904.169954-.125.25-.0546.09721-.126774.18835-.1875.28125-.09411.140965-.204921.275995-.3125.40625-.143174.17445-.303141.346998-.46875.5-.01117.0102-.01998.02115-.03125.03125-.138386.125556-.285091.234436-.4375.34375-.102571.07315-.204318.153364-.3125.21875-.0074.0045-.02384-.0044-.03125 0-.232039.138728-.462548.274778-.71875.375.301527-.0968.596455-.204138.875-.34375.55709-.279224 1.060053-.665694 1.5-1.09375.219973-.214028.409366-.441865.59375-.6875s.355408-.507743.5-.78125c.14012-.265048.276135-.524729.375-.8125.01041-.03078.02133-.06274.03125-.09375.09046-.278085.1388-.579404.1875-.875.0524-.31805.09375-.634029.09375-.96875v-2-68-2c0-3.324-2.676-6-6-6z" fill="url(#b)" opacity=".35"/><path d="m12 90c-3.324 0-6-2.676-6-6v-2-68-2c0-.334721.04135-.6507.09375-.96875.0487-.295596.09704-.596915.1875-.875.00988-.03038.020892-.0636.03125-.09375.098865-.287771.2348802-.547452.375-.8125.1445918-.273507.3156161-.535615.5-.78125s.3737765-.473472.59375-.6875c.439947-.428056.94291-.814526 1.5-1.09375.278545-.139612.5734731-.246947.875-.34375-.2562018.100222-.4867109.236272-.71875.375-.00741.0044-.023866-.0045-.03125 0-.031933.0193-.062293.04251-.09375.0625-.120395.0767-.2310226.163513-.34375.25-.1061728.0808-.2132809.161112-.3125.25-.1779299.161433-.3474596.345388-.5.53125-.1075789.130255-.2183939.265285-.3125.40625-.025089.03838-.038446.08587-.0625.125-.064763.103032-.1302275.204517-.1875.3125-.1010083.194706-.2056748.415701-.28125.625-.00796.02181-.023589.04055-.03125.0625-.0318251.09195-.0358045.186831-.0625.28125-.0303323.106618-.0703894.203031-.09375.3125-.0728786.341512-.125.698205-.125 1.0625v2 68 2c0 2.781848 2.2181517 5 5 5h2 68 2c2.781848 0 5-2.218152 5-5v-2-68-2c0-.364295-.05212-.720988-.125-1.0625-.04415-.206893-.08838-.397658-.15625-.59375-.0077-.02195-.0233-.04069-.03125-.0625-.06274-.173739-.138383-.367449-.21875-.53125-.04158-.0828-.07904-.169954-.125-.25-.0546-.09721-.126774-.18835-.1875-.28125-.09411-.140965-.204921-.275995-.3125-.40625-.143174-.17445-.303141-.346998-.46875-.5-.01117-.0102-.01998-.02115-.03125-.03125-.138386-.125556-.285091-.234436-.4375-.34375-.102571-.07315-.204318-.153364-.3125-.21875-.0074-.0045-.02384.0044-.03125 0-.232039-.138728-.462548-.274778-.71875-.375.301527.0968.596455.204138.875.34375.55709.279224 1.060053.665694 1.5 1.09375.219973.214028.409366.441865.59375.6875s.355408.507743.5.78125c.14012.265048.276135.524729.375.8125.01041.03078.02133.06274.03125.09375.09046.278085.1388.579404.1875.875.0524.31805.09375.634029.09375.96875v2 68 2c0 3.324-2.676 6-6 6z" fill="url(#e)" opacity=".2"/><g enable-background="new" fill="url(#m)" opacity=".808" transform="translate(-.813557 2.864407)"><path d="m58 14.5a26 1.5 0 1 1 -52 0 26 1.5 0 1 1 52 0z" opacity=".02" transform="matrix(1.576923 0 0 1 -2.461538 -7)"/><path d="m58 14.5a26 1.5 0 1 1 -52 0 26 1.5 0 1 1 52 0z" opacity=".04" transform="matrix(1.576923 0 0 1 -2.461538 -2)"/><path d="m58 14.5a26 1.5 0 1 1 -52 0 26 1.5 0 1 1 52 0z" opacity=".06" transform="matrix(1.576923 0 0 1 -2.461538 3)"/><path d="m58 14.5a26 1.5 0 1 1 -52 0 26 1.5 0 1 1 52 0z" opacity=".08" transform="matrix(1.576923 0 0 1 -2.461538 8)"/><path d="m58 14.5a26 1.5 0 1 1 -52 0 26 1.5 0 1 1 52 0z" opacity=".1" transform="matrix(1.576923 0 0 1 -2.461538 13)"/><path d="m58 14.5a26 1.5 0 1 1 -52 0 26 1.5 0 1 1 52 0z" opacity=".1" transform="matrix(1.576923 0 0 1 -2.461538 18)"/><path d="m58 14.5a26 1.5 0 1 1 -52 0 26 1.5 0 1 1 52 0z" opacity=".1" transform="matrix(1.576923 0 0 1 -2.461538 23)"/><path d="m58 14.5a26 1.5 0 1 1 -52 0 26 1.5 0 1 1 52 0z" opacity=".1" transform="matrix(1.576923 0 0 1 -2.461538 28)"/><path d="m58 14.5a26 1.5 0 1 1 -52 0 26 1.5 0 1 1 52 0z" opacity=".1" transform="matrix(1.576923 0 0 1 -2.461538 33)"/><path d="m58 14.5a26 1.5 0 1 1 -52 0 26 1.5 0 1 1 52 0z" opacity=".1" transform="matrix(1.576923 0 0 1 -2.461538 38)"/><path d="m58 14.5a26 1.5 0 1 1 -52 0 26 1.5 0 1 1 52 0z" opacity=".1" transform="matrix(1.576923 0 0 1 -2.461538 43)"/><path d="m58 14.5a26 1.5 0 1 1 -52 0 26 1.5 0 1 1 52 0z" opacity=".1" transform="matrix(1.576923 0 0 1 -2.461538 48)"/><path d="m58 14.5a26 1.5 0 1 1 -52 0 26 1.5 0 1 1 52 0z" opacity=".08" transform="matrix(1.576923 0 0 1 -2.461538 53)"/><path d="m58 14.5a26 1.5 0 1 1 -52 0 26 1.5 0 1 1 52 0z" opacity=".06" transform="matrix(1.576923 0 0 1 -2.461538 58)"/><path d="m58 14.5a26 1.5 0 1 1 -52 0 26 1.5 0 1 1 52 0z" opacity=".04" transform="matrix(1.576923 0 0 1 -2.461538 63)"/><path d="m58 14.5a26 1.5 0 1 1 -52 0 26 1.5 0 1 1 52 0z" opacity=".02" transform="matrix(1.576923 0 0 1 -2.461538 68)"/></g><rect height="66" rx="12" style="opacity:.1;stroke:#fefefe;stroke-width:.5;stroke-linecap:round;clip-path:url(#f);fill:url(#d);filter:url(#c)" transform="translate(-2)" width="66" x="15" y="15"/><path d="m5.843751 47.999997 79.999999-24v-17.656247c-.62576-.22014-1.29711-.34375-2-.34375h-71.999998c-3.324 0-6.000001 2.676-6.000001 6z" fill="url(#l)" opacity=".15"/><path d="m27.744442 73.044645c-2.24037-.6167-3.78557-1.77152-4.62167-3.45404-.64691-1.3018-.69561-2.75393-.79703-23.76577l-.10801-22.379262 10.0388.129354c10.01399.129035 10.04405.13181 12.16516 1.123332 1.16951.546687 3.07291 1.883283 4.22978 2.970213 3.65313 3.432267 2.66851 3.203239 13.77115 3.203239h9.84894l-.009 17.562764c-.005 10.63373-.15768 18.21577-.38587 19.2179-.51965 2.28216-1.84902 4.16708-3.52623 4.99986-1.32674.65876-2.54599.70577-20.17024.77768-14.11689.0576-19.17323-.0377-20.43578-.38527zm38.5543-20.9321.096-15.35593-6.90041.002c-7.75795.003-7.38033-.10669-10.60457 3.0725-.99712.98318-2.88878 2.30728-4.20369 2.94245-2.38738 1.15324-2.40067 1.15503-9.47102 1.28066l-7.08028.12579v11.49076c0 6.31992.11184 11.60259.24852 11.73927.13667.13668 8.70197.20565 19.03399.15326l18.78548-.0953zm-23.5254-14.40691c.54627-.28722 1.72843-1.27758 2.62704-2.2008l1.63382-1.678586-1.44992-1.485584c-2.85315-2.923319-2.91392-2.940181-10.59655-2.940181h-6.85297v4.41368 4.413681h6.82269c5.18176 0 7.06157-.1256 7.81589-.52221z" fill="#fefefe" stroke-width=".367807"/></svg>