<svg height="96" width="96" xmlns="http://www.w3.org/2000/svg" xmlns:xlink="http://www.w3.org/1999/xlink"><linearGradient id="a" gradientTransform="matrix(1.0059 0 0 .99417 100 0)" gradientUnits="userSpaceOnUse" x1="45.448" x2="45.448" y1="92.54" y2="7.0165"><stop offset="0"/><stop offset="1" stop-opacity=".58824"/></linearGradient><radialGradient id="b" cx="56.066" cy="-15.871" gradientTransform="matrix(-.0022617 -1.2346 1.3856 0 70.085 140.27)" gradientUnits="userSpaceOnUse" r="35.938"><stop offset="0" stop-color="#80a2c8"/><stop offset="1" stop-color="#2e4c6d"/></radialGradient><radialGradient id="c" cx="47.098" cy="80.843" gradientTransform="matrix(1.3113 -.00000005 .00000005 1.1374 -14.662 -10.848)" gradientUnits="userSpaceOnUse" r="38.957"><stop offset="0" stop-color="#2fc044"/><stop offset="1" stop-color="#246d2f"/></radialGradient><linearGradient id="d"><stop offset="0"/><stop offset="1" stop-opacity="0"/></linearGradient><linearGradient id="e" gradientUnits="userSpaceOnUse" x1="65.156" x2="65.156" xlink:href="#d" y1="16.125" y2="69.688"/><linearGradient id="f" gradientUnits="userSpaceOnUse" x1="65.156" x2="65.156" y1="16.125" y2="69.688"><stop offset="0" stop-color="#9cb7d2"/><stop offset="1" stop-color="#e7edf3" stop-opacity="0"/></linearGradient><linearGradient id="g" gradientUnits="userSpaceOnUse" stop-color="#fff" x1="76.451" x2="76.451" xlink:href="#d" y1="8.0625" y2="72.766"/><radialGradient id="h" cx="48" cy="90.172" gradientTransform="matrix(1.1573 0 0 .99591 -7.551 .19713)" gradientUnits="userSpaceOnUse" r="42" stop-color="#fff" xlink:href="#d"/><linearGradient id="i" gradientUnits="userSpaceOnUse" x1="43.0366626" x2="43.0366626" y1="11.9704" y2="84.332073"><stop offset="0" stop-color="#919191"/><stop offset="1" stop-color="#fdfdfd"/></linearGradient><linearGradient id="j" gradientUnits="userSpaceOnUse" x1="36.357" x2="36.357" y1="6" y2="63.893"><stop offset="0" stop-color="#fefefe"/><stop offset="1" stop-opacity="0"/></linearGradient><linearGradient id="k" gradientUnits="userSpaceOnUse" x1="48" x2="48" y1="90" y2="5.9877"><stop offset="0" stop-color="#b4b4b4"/><stop offset="1" stop-color="#e6e6e6"/></linearGradient><linearGradient id="l" gradientTransform="translate(0 1)" gradientUnits="userSpaceOnUse" x1="32.251" x2="32.251" xlink:href="#a" y1="90" y2="6"/><linearGradient id="m" gradientTransform="matrix(1.0238 0 0 1.0119 -1.1429 .929)" gradientUnits="userSpaceOnUse" x1="32.251" x2="32.251" xlink:href="#a" y1="90" y2="5.9996"/><linearGradient id="n" gradientTransform="matrix(1.0238 0 0 -1.0119 -1.1429 98.071)" gradientUnits="userSpaceOnUse" x1="32.251" x2="32.251" xlink:href="#a" y1="6.1317" y2="90.239"/><clipPath id="o"><path d="m-84 12c-2.216 0-4 1.784-4 4v52c0 2.216 1.784 4 4 4h64c2.216 0 4-1.784 4-4v-52c0-2.216-1.784-4-4-4zm24.96875 14c2.831631-.01228 5.68269.922807 7.84375 2.84375 4.303233 3.825096 4.303233 10.049903 0 13.875-4.303233 3.825096-11.290517 3.825096-15.59375 0-2.881422-2.561257-3.821083-6.203354-2.84375-9.46875l6.75 6 7.78125-6.9375-6.75-5.96875c.918393-.217185 1.868623-.339656 2.8125-.34375zm12.875 14.25 10.53125 9.375c2.158299 1.918488 2.158299 5.019013 0 6.9375-2.158298 1.918488-5.622951 1.918488-7.78125 0l-10.5625-9.375c1.712088-.597172 3.335151-1.520133 4.71875-2.75 1.3836-1.229865 2.421931-2.665644 3.09375-4.1875zm6.65625 10.40625c-.70501 0-1.430846.240613-1.96875.71875-1.075807.956274-1.075807 2.512475 0 3.46875 1.075809.956274 2.830442.956274 3.90625 0 1.075809-.956275 1.075809-2.512476 0-3.46875-.537904-.478137-1.23249-.71875-1.9375-.71875z"/></clipPath><filter id="p" color-interpolation-filters="sRGB" height="1.51" width="1.453333" x="-.226667" y="-.255"><feGaussianBlur stdDeviation="3.4"/></filter><linearGradient id="q" gradientUnits="userSpaceOnUse" x1="43.150309" x2="43.150309" y1="51.892914" y2="19.268431"><stop offset="0" stop-color="#414141"/><stop offset="1" stop-color="#4d4d4d" stop-opacity=".788235"/></linearGradient><g fill="url(#n)"><path d="m12 95.031c-5.5111 0-10.031-4.52-10.031-10.031v-71c0-5.5111 4.5202-10.031 10.031-10.031h72c5.5111 0 10.031 4.5202 10.031 10.031v71c0 5.5111-4.5202 10.031-10.031 10.031z" opacity=".08"/><path d="m12 94.031c-4.9716 0-9.0312-4.0596-9.0312-9.0312v-71c0-4.9718 4.0596-9.0314 9.0312-9.0314h72c4.9716 0 9.0312 4.0596 9.0312 9.0312v71c0 4.9716-4.0596 9.0312-9.0312 9.0312h-72z" opacity=".1"/><path d="m12 93c-4.4091 0-8-3.591-8-8v-71c0-4.4091 3.5909-8 8-8h72c4.4091 0 8 3.5909 8 8v71c0 4.4091-3.5909 8-8 8z" opacity=".2"/></g><rect fill="url(#m)" height="85" opacity=".3" rx="7" width="86" x="5" y="7"/><rect fill="url(#l)" height="84" opacity=".45" rx="6" width="84" x="6" y="7"/><rect fill="url(#c)" height="78.516" rx="5.8528" ry="6.1733" width="77.915" x="8.1409" y="8.2544"/><path d="m83.937 83.875v-71.869h-71.94v71.869z" fill="url(#b)"/><g fill="#fff"><path d="m12 72h72v10h-72z" opacity=".2"/><rect height="32" opacity=".3" rx="3.5198" ry="4.0227" width="44" x="26" y="30"/><rect height="12" rx="2" width="34" x="31" y="43"/></g><path d="m32.59322 42.031c-1.6208 0-2.9688 1.348-2.9688 2.9688v8c0 1.6208 1.348 2.9688 2.9688 2.9688h30c1.6208 0 2.9688-1.348 2.9688-2.9688v-8c0-1.621-1.348-2.969-2.969-2.969h-30zm0 2.0312h30c.50058 0 .9375.43692.9375.9375v8c0 .50058-.43692.9375-.9375.9375h-30c-.50058 0-.9375-.43692-.9375-.9375v-8c0-.50058.43692-.9375.9375-.9375z" fill="#2e4c6d"/><path d="m33 44.062c-.50058 0-.9375.43692-.9375.9375v8c0 .30992.19112.57746.4375.75v-7.75c0-.50058.42139-.9375.90625-.9375h29.188c.485 0 .906.437.906.938v7.75c.24638-.17254.4375-.44008.4375-.75v-8c0-.50058-.43692-.9375-.9375-.9375h-30z" opacity=".3"/><path d="m40 49a2.5 2.5 0 1 1 -5 0 2.5 2.5 0 1 1 5 0z"/><path d="m47 49a2.5 2.5 0 1 1 -5 0 2.5 2.5 0 1 1 5 0z"/><path d="m54 49a2.5 2.5 0 1 1 -5 0 2.5 2.5 0 1 1 5 0z"/><path d="m61 49a2.5 2.5 0 1 1 -5 0 2.5 2.5 0 1 1 5 0z"/><g fill="#fff"><path d="m32.549 35.65c-.000003.14341-.02416.27747-.07249.40218-.04677.12315-.11769.23071-.21278.32268-.09353.09041-.21122.16212-.35307.21512-.14186.053-.30709.0795-.4957.0795h-.96803v1.2837h-.4466v-3.2946h1.3866c.19485.000003.36476.02416.50973.07248.14497.04677.26578.1138.36242.20109.09664.08574.16913.19018.21746.31332.04832.12159.07248.25643.07249.40451m-.44894.0047c-.000002-.20888-.06391-.3671-.19173-.47466-.12782-.10912-.31956-.16367-.5752-.16368h-.88619v1.3001h.9049c.2572.000002.44582-.05689.56585-.17069.12158-.11379.18238-.27747.18238-.49103"/><path d="m33.774 38c-.25409 0-.44504-.06703-.57287-.20109-.12782-.13406-.19174-.318-.19174-.55182 0-.16679.03118-.30319.09353-.40919.06391-.10756.14653-.19173.24785-.25253.10288-.06079.21979-.10288.35074-.12626.13094-.02338.26422-.03663.39984-.03975l.56819-.0094v-.138c-.000002-.10444-.01091-.19329-.03274-.26656-.02183-.07326-.05534-.1325-.10054-.1777-.04521-.0452-.1021-.07794-.17069-.09821-.06703-.02182-.14653-.03273-.2385-.03274-.08106.000002-.15432.0062-.21979.01871-.06547.01091-.12237.03196-.17069.06313-.04832.02962-.0873.07093-.11691.12393-.02962.05144-.0491.11691-.05846.19641l-.43959-.03975c.01559-.09976.04521-.19095.08885-.27357.04365-.08417.10522-.15666.18472-.21746.08106-.06079.1816-.10756.30163-.14029.12159-.03429.26812-.05144.43959-.05144.318.000002.55728.07327.71784.21979.16056.14497.24084.35541.24084.63132v1.0896c-.000002.12471.01637.21901.0491.28292.03273.06235.09509.09353.18706.09353.02338 0 .04676-.0016.07015-.0047.02338-.0031.04598-.007.06781-.01169v.26188c-.053.01247-.106.02182-.159.02806-.05144.0062-.10678.0094-.16601.0094-.0795 0-.14809-.01013-.20576-.0304-.05612-.02182-.1021-.05378-.13796-.09587-.03585-.04365-.06313-.09665-.08184-.159-.01871-.06391-.0304-.13796-.03507-.22213h-.01403c-.04521.08106-.09509.15432-.14965.21979-.053.06547-.11535.12159-.18706.16835-.07171.04521-.15354.08028-.24551.10522-.09041.02494-.19485.03741-.31332.03741m.09587-.31566c.13406 0 .25097-.02416.35073-.07249.10132-.04988.18472-.11301.25019-.1894.06703-.07638.11691-.15978.14965-.25019.03273-.09041.0491-.17692.0491-.25954v-.2081l-.46063.0094c-.10288.0016-.20109.0094-.29462.02338-.09197.01247-.17303.03819-.24318.07716s-.12626.09353-.16835.16368c-.04053.07015-.06079.16212-.06079.27591 0 .13718.03663.24318.1099.318.07482.07482.18082.11224.318.11224"/><path d="m37.693 37.254c-.000003.11847-.02338.22447-.07015.318-.04521.09197-.11146.16991-.19875.23382-.0873.06235-.19485.11068-.32268.14497-.12627.03274-.27124.0491-.43491.0491-.14653 0-.27903-.01169-.3975-.03507-.117-.022-.22-.058-.309-.108-.088-.05-.163-.115-.224-.196-.059-.083-.103-.183-.131-.302l.37178-.07249c.03585.13562.1099.23538.22213.29929.11223.06235.26812.09353.46765.09353.09041 0 .17303-.0062.24785-.01871.07638-.01247.14185-.03351.19641-.06313.05456-.03118.09664-.07171.12626-.12159.03117-.05144.04676-.11457.04677-.1894-.000002-.07638-.01793-.13873-.05378-.18706-.03585-.04988-.08574-.09119-.14965-.12393s-.14185-.06079-.23382-.08418c-.09041-.02494-.19018-.05222-.29929-.08184-.10132-.0265-.20187-.05612-.30163-.08885-.09977-.03273-.19018-.0756-.27124-.1286-.0795-.05456-.14419-.12159-.19407-.20109s-.07482-.17926-.07482-.29929c0-.2307.08184-.40607.24551-.5261.16523-.12158.40529-.18238.72017-.18238.27903.000003.50038.04911.66406.14731.16523.09821.26967.25565.31332.47232l-.37879.04676c-.01403-.06547-.03975-.12003-.07716-.16368-.03741-.0452-.08262-.08106-.13562-.10756-.053-.02806-.11302-.04754-.18004-.05846-.06547-.01247-.13406-.0187-.20576-.01871-.19018.000003-.33047.02884-.42088.08651-.09041.05768-.13562.14497-.13562.26188-.000001.06859.01637.12549.0491.17069.03429.04365.08106.08106.14029.11224.06079.02962.13328.05612.21746.0795.08418.02182.17692.04521.27825.07015.06703.01715.13562.03585.20576.05612.07014.01871.13795.04209.20342.07015.06703.0265.12938.05846.18706.09587.05923.03585.11067.0795.15432.13094.04364.05144.07794.11146.10288.18004.0265.06859.03975.14809.03975.2385"/><path d="m40.087 37.254c-.000002.11847-.02338.22447-.07015.318-.04521.09197-.11146.16991-.19875.23382-.0873.06235-.19485.11068-.32268.14497-.12627.03274-.27124.0491-.43491.0491-.14653 0-.27903-.01169-.3975-.03507-.117-.022-.22-.058-.309-.108-.088-.05-.163-.115-.224-.196-.059-.083-.103-.183-.131-.302l.37178-.07249c.03585.13562.1099.23538.22213.29929.11223.06235.26812.09353.46764.09353.09041 0 .17303-.0062.24785-.01871.07638-.01247.14185-.03351.19641-.06313.05456-.03118.09664-.07171.12626-.12159.03117-.05144.04676-.11457.04676-.1894-.000001-.07638-.01793-.13873-.05378-.18706-.03585-.04988-.08574-.09119-.14965-.12393s-.14185-.06079-.23382-.08418c-.09041-.02494-.19018-.05222-.29929-.08184-.10132-.0265-.20187-.05612-.30163-.08885-.09977-.03273-.19018-.0756-.27123-.1286-.0795-.05456-.14419-.12159-.19407-.20109s-.07482-.17926-.07482-.29929c-.000001-.2307.08184-.40607.24551-.5261.16523-.12158.40529-.18238.72017-.18238.27903.000003.50038.04911.66406.14731.16523.09821.26967.25565.31332.47232l-.37879.04676c-.01403-.06547-.03975-.12003-.07716-.16368-.03741-.0452-.08262-.08106-.13562-.10756-.053-.02806-.11302-.04754-.18004-.05846-.06547-.01247-.13406-.0187-.20576-.01871-.19018.000003-.33047.02884-.42088.08651-.09041.05768-.13562.14497-.13562.26188-.000001.06859.01637.12549.0491.17069.03429.04365.08106.08106.14029.11224.06079.02962.13328.05612.21746.0795.08418.02182.17692.04521.27825.07015.06703.01715.13562.03585.20576.05612.07015.01871.13795.04209.20343.07015.06703.0265.12938.05846.18706.09587.05923.03585.11067.0795.15432.13094.04364.05144.07794.11146.10288.18004.0265.06859.03975.14809.03975.2385"/><path d="m43.005 37.953h-.489l-.404-1.632c-.01247-.04209-.02572-.09431-.03975-.15666-.01247-.06235-.02494-.12314-.03741-.18238-.01559-.06859-.0304-.13951-.04443-.21278-.01403.07015-.02884.13952-.04443.2081-.01247.05924-.0265.12081-.04209.18472-.01403.06391-.02728.12003-.03975.16835l-.4162 1.6227h-.48635l-.70848-2.53h.4162l.4279 1.7186c.01091.03585.02182.08028.03274.13328.01091.05144.02182.1021.03273.15198.01091.05768.0226.11691.03507.1777.01247-.05924.02572-.11691.03975-.17303.01247-.04832.02494-.09743.03741-.14731s.02338-.09119.03274-.12393l.45829-1.7373h.45128l.44192 1.7373c.01091.04053.0226.08651.03507.13796.01247.05144.02416.09977.03507.14497.01247.053.02494.10678.03741.16134.01247-.05924.02494-.11691.03741-.17303.01091-.04832.02182-.09821.03274-.14965.01247-.053.02416-.09976.03507-.14029l.4466-1.7186h.41153l-.72485 2.53"/><path d="m46.183 36.686c-.000002.44271-.09743.7724-.29228.98907-.19486.21668-.47778.32501-.84878.32501-.17615 0-.33359-.0265-.47232-.0795-.13874-.053-.25643-.13406-.35307-.24318-.09509-.10912-.16835-.24551-.21979-.40919-.04988-.16523-.07482-.35931-.07482-.58222 0-.87294.37801-1.3094 1.134-1.3094.19641.000002.36554.02728.5074.08184.14341.05456.26032.1364.35073.24551.09197.10912.15978.24552.20343.40919.04364.16368.06547.35463.06547.57286m-.44192 0c-.000002-.19641-.01559-.35853-.04677-.48635-.02962-.12782-.07404-.22992-.13328-.30631-.05768-.07638-.1286-.12938-.21278-.159-.08418-.03117-.17927-.04676-.28526-.04677-.10756.000002-.20499.01637-.29228.0491-.08574.03118-.159.08574-.21979.16368-.0608.07638-.10756.17849-.14029.30631-.03118.12782-.04677.2876-.04676.47934-.000001.19641.01715.35931.05144.48869.03429.12782.08106.22993.14029.30631.06079.07638.13172.13016.21278.16134.08262.03118.17225.04676.2689.04676.10756 0 .20498-.01481.29228-.04443.08729-.03118.16134-.08495.22213-.16134.06079-.07638.10756-.17926.14029-.30865.03273-.12938.0491-.29228.0491-.48869"/><path d="m46.718 37.953v-1.9407c0-.053-.000779-.10678-.0023-.16134 0-.05611-.00078-.10989-.0023-.16134-.0016-.05144-.0031-.09976-.0047-.14497-.0016-.0452-.0031-.08573-.0047-.12159h.3975c.0016.03586.0031.07716.0047.12393.0031.04521.0055.09197.007.14029.0031.04833.0047.09509.0047.14029.0016.04365.0023.08106.0023.11224h.0094c.02962-.09665.06079-.18004.09353-.25019.03429-.0717.07404-.13016.11925-.17537.0452-.04676.09898-.08106.16134-.10288.06235-.02338.13795-.03507.22681-.03507.03429.000002.06703.0031.09821.0094.03117.0047.05534.0094.07249.01403v.38581c-.02806-.0078-.0608-.01325-.09821-.01637-.03741-.0047-.0795-.007-.12626-.007-.09665.000003-.17927.02183-.24785.06547-.06703.04365-.12237.10444-.16602.18238-.04209.07638-.07326.16836-.09353.27591-.02027.106-.0304.22213-.0304.3484v1.3188h-.42088"/><path d="m49.905 37.546c-.07794.16212-.1816.27825-.31098.3484-.12782.07015-.28682.10522-.477.10522-.31956 0-.55494-.10756-.70614-.32268-.14965-.21512-.22447-.54091-.22447-.97738-.000001-.88229.3102-1.3234.93061-1.3234.19173.000002.35151.03508.47934.10522.12782.07015.2307.1816.30865.33437h.0047c-.000002-.01559-.000782-.03975-.0023-.07249-.000002-.03429-.000781-.06937-.0023-.10522-.000002-.03741-.000002-.07248 0-.10522-.000002-.03273-.000002-.05611 0-.07015v-.97972h.42088v2.9485c-.000002.06079-.000002.11925 0 .17537.0016.05612.0031.10756.0047.15432.0016.04677.0031.08729.0047.12159.0016.03273.0031.05612.0047.07015h-.40218c-.0031-.01559-.0062-.03741-.0094-.06547-.0016-.02962-.0039-.06313-.007-.10054-.0016-.03741-.0031-.07638-.0047-.11691-.0016-.04209-.0023-.0834-.0023-.12393h-.0094m-1.277-.86c-.000001.17459.01091.32424.03274.44894.02182.12471.0569.22759.10522.30865.04832.0795.1099.13796.18472.17537s.16601.05612.27357.05612c.11068 0 .2081-.01793.29228-.05378.08573-.03585.15666-.09353.21278-.17303.05767-.08106.10132-.18628.13094-.31566.02961-.12938.04442-.2876.04443-.47466-.000002-.17926-.01481-.33047-.04443-.45362-.02962-.1247-.07327-.22525-.13094-.30163-.05768-.07638-.1286-.13094-.21278-.16368-.08262-.03429-.17849-.05144-.2876-.05144-.10288.000002-.19174.01793-.26656.05378-.07482.03586-.13718.09353-.18706.17303s-.0873.18316-.11224.31098c-.02338.12627-.03507.27981-.03507.46063"/><path d="m52.417 35.907v-.48401h.45595v.484h-.456m0 2.046v-.48401h.45595v.484h-.456"/></g><path d="m19 13c-3.2894 0-6 2.7106-6 6v58c0 3.2894 2.7106 6 6 6h58c3.2894 0 6-2.7106 6-6v-58c0-3.2894-2.7106-6-6-6zm0 4h58c1.1426 0 2 .85741 2 2v58c0 1.1426-.85741 2-2 2h-58c-1.1426 0-2-.85741-2-2v-58c0-1.1426.85741-2 2-2z" opacity=".08"/><path d="m29.531 30c-1.95 0-3.531 1.803-3.531 4.031v23.938c0 2.228 1.581 4.031 3.531 4.031h36.938c1.95 0 3.531-1.803 3.531-4.031v-23.938c0-2.228-1.581-4.031-3.531-4.031zm0 1h36.938c1.327 0 2.531 1.281 2.531 3.031v23.938c0 1.75-1.204 3.031-2.531 3.031h-36.938c-1.327 0-2.531-1.281-2.531-3.031v-23.938c0-1.75 1.204-3.031 2.531-3.031z" fill="#fff" opacity=".3"/><path d="m17 14c-1.662 0-3 1.338-3 3v62c0 1.662 1.338 3 3 3h62c1.662 0 3-1.338 3-3v-62c0-1.662-1.338-3-3-3zm0 1.9375h62c.61816 0 1.0625.44434 1.0625 1.0625v62c0 .61816-.44434 1.0625-1.0625 1.0625h-62c-.61816 0-1.0625-.44434-1.0625-1.0625v-62c0-.61816.44434-1.0625 1.0625-1.0625z" opacity=".1"/><path d="m17 14c-1.662 0-3 1.338-3 3v62c0 1.662 1.338 3 3 3h62c1.662 0 3-1.338 3-3v-62c0-1.662-1.338-3-3-3zm0 .96875h62c1.1401 0 2.0312.89117 2.0312 2.0312v62c0 1.1401-.89117 2.0312-2.0312 2.0312h-62c-1.1401 0-2.0312-.89117-2.0312-2.0312v-62c0-1.1401.89117-2.0312 2.0312-2.0312z" opacity=".25"/><path d="m12 6c-3.324 0-6 2.676-6 6v72c0 3.324 2.676 6 6 6h72c3.324 0 6-2.676 6-6v-72c0-3.324-2.676-6-6-6zm5 8h62c1.6838 0 3 1.3162 3 3v62c.000001 1.6838-1.3162 3-3 3h-62c-1.6838.000001-3-1.3162-3-3v-62c0-1.6838 1.3162-3 3-3z" fill="url(#k)"/><path d="m12 6c-3.324 0-6 2.676-6 6v72c0 .33472.04135.6507.09375.96875.0487.2956.09704.59692.1875.875.00988.03038.020892.0636.03125.09375.098865.28777.23488.54745.375.8125.14459.27351.31562.53562.5.78125.18438.24564.37378.47347.59375.6875.43995.42806.94291.81453 1.5 1.0938.27854.13961.57347.24695.875.34375-.2562-.10022-.48671-.23627-.71875-.375-.00741-.0044-.023866.0045-.03125 0-.0319-.019-.0622-.042-.0937-.062-.1204-.077-.231-.164-.3437-.25-.1062-.081-.2133-.161-.3126-.25-.1778-.162-.3473-.346-.4999-.531-.1075-.131-.2183-.266-.3124-.407-.0251-.038-.0385-.086-.0626-.125-.0647-.103-.1302-.204-.1874-.312-.1011-.195-.2057-.416-.2813-.625-.008-.022-.0236-.041-.0313-.063-.0318-.092-.0358-.187-.0624-.281-.0304-.107-.0704-.203-.0938-.313-.0729-.341-.125-.698-.125-1.062v-72c0-2.782 2.2182-5 5-5h72c2.7818 0 5 2.2182 5 5v72c0 .3643-.05212.72099-.125 1.0625-.04415.20689-.08838.39766-.15625.59375-.0077.02195-.0233.04069-.03125.0625-.06274.17374-.13838.36745-.21875.53125-.04158.0828-.07904.16995-.125.25-.0546.09721-.12677.18835-.1875.28125-.09411.14096-.20492.276-.3125.40625-.14317.17445-.30314.347-.46875.5-.01117.0102-.01998.02115-.03125.03125-.13839.12556-.28509.23444-.4375.34375-.10257.07315-.20432.15336-.3125.21875-.0074.0045-.02384-.0044-.03125 0-.23204.13873-.46255.27478-.71875.375.30153-.0968.59646-.20414.875-.34375.55709-.27922 1.0601-.66569 1.5-1.0938.21997-.21403.40937-.44186.59375-.6875s.35541-.50774.5-.78125c.14012-.26505.27614-.52473.375-.8125.01041-.03078.02133-.06274.03125-.09375.09046-.27808.1388-.5794.1875-.875.053-.318.094-.634.094-.969v-72c0-3.324-2.676-6-6-6h-72z" fill="url(#j)" opacity=".7"/><rect height="70" rx="4" style="stroke-linejoin:round;stroke-opacity:.7;stroke-linecap:square;stroke-width:2;fill:none;stroke:url(#i)" width="70" x="13" y="13"/><path d="m12 90c-3.324 0-6-2.676-6-6v-72c0-.33472.04135-.6507.09375-.96875.0487-.2956.09704-.59692.1875-.875.0099-.03.0209-.063.0313-.094.0989-.2873.2349-.547.375-.812.1446-.2735.3156-.5356.5-.7812.1844-.2457.3738-.4735.5937-.6876.44-.428.943-.8145 1.5-1.0937.2786-.1396.5735-.2469.8748-.3437-.256.1002-.4865.2362-.7185.375-.00741.0044-.023866-.0045-.03125 0-.031933.0193-.062293.04251-.09375.0625-.1204.0767-.23102.16351-.34375.25-.10617.0808-.21328.16111-.3125.25-.1779.1614-.3474.3453-.5.5312-.1075.1303-.2183.2653-.3124.4063-.0251.0383-.0385.0858-.0626.125-.0647.103-.1302.2045-.1874.3124-.1011.1948-.2057.4158-.2813.625-.008.0219-.0236.0406-.0313.0626-.0318.0919-.0358.1868-.0624.2812-.0304.1066-.0704.203-.0938.3125-.0729.3415-.125.6985-.125 1.0625v72c0 2.7818 2.2182 5 5 5h72c2.7818 0 5-2.2182 5-5v-72c0-.364-.052-.721-.125-1.0625-.044-.2069-.088-.3977-.156-.5937-.008-.022-.024-.0407-.031-.0626-.063-.1737-.139-.3674-.219-.5312-.042-.0828-.079-.17-.125-.25-.055-.0972-.127-.1884-.188-.2812-.094-.141-.205-.276-.312-.4063-.143-.1745-.303-.347-.469-.5-.011-.0102-.02-.0211-.031-.0313-.139-.1255-.285-.2344-.438-.3437-.102-.0731-.204-.1534-.312-.2187-.0074-.0045-.02384.0044-.03125 0-.23204-.13873-.46255-.27478-.71875-.375.30153.0968.59646.20414.875.34375.55709.27922 1.0601.66569 1.5 1.0938.21997.21403.40937.44186.59375.6875s.35541.50774.5.78125c.14012.26505.27614.52473.375.8125.01041.03078.02133.06274.03125.09375.09046.27808.1388.5794.1875.875.053.318.094.634.094.969v72c0 3.324-2.676 6-6 6h-72z" fill="url(#h)" opacity=".4"/><g fill-rule="evenodd"><path d="m44.844 8.0625 1.3438 3.875h32.812c2.754 0 5.0625 2.3085 5.0625 5.0625v62c.000002 2.754-2.3085 5.0625-5.0625 5.0625h-7.875l1.3438 3.875h11.531c2.2218 0 3.9375-1.7157 3.9375-3.9375v-72c0-2.2218-1.716-3.9375-3.938-3.9375h-39.156z" fill="url(#g)" opacity=".33"/><path d="m47.656 16.125 22.031 63.75h9.3125c.5388 0 .875-.3362.875-.875v-62c0-.5388-.33619-.875-.875-.875h-31.344z" fill="url(#f)" opacity=".57"/><path d="m47.656 16.125 22.031 63.75h1l-22.031-63.75z" fill="url(#e)" opacity=".41"/></g><g transform="matrix(1.3685907 -.30189089 .30189089 1.3685907 -5.908018 39.713309)"><path clip-path="url(#o)" d="m-69.626218 33.2582c-.977333 3.265396-.0407 6.889778 2.840722 9.451035 4.303233 3.825096 11.280153 3.825096 15.583386 0 4.303233-3.825097 4.303233-10.026804 0-13.8519-2.881414-2.561257-6.958844-3.393825-10.632415-2.525085l6.736568 5.988061-7.791692 6.925949zm15.66455 13.924044 10.551251 9.37889c2.158299 1.918488 5.633395 1.918488 7.791693 0 2.158299-1.918487 2.158299-5.007461 0-6.925949l-10.551251-9.37889c-.671819 1.521856-1.700612 2.954562-3.084212 4.184427-1.383599 1.229867-2.995393 2.14435-4.707481 2.741522zm12.499174 4.184428c1.075809-.956274 2.820039-.956274 3.895847 0 1.075809.956274 1.075809 2.5067 0 3.462975-1.075808.956274-2.820038.956274-3.895847 0-1.075807-.956275-1.075807-2.506701 0-3.462975z" fill="#fefefe" filter="url(#p)" opacity=".8" transform="translate(95.6554 -6.803787)"/><path d="m26.02917 26.454412c-.977333 3.265396-.0407 6.889778 2.840722 9.451035 4.303233 3.825096 11.280153 3.825096 15.583386 0 4.303233-3.825097 4.303233-10.026804 0-13.8519-2.881414-2.561257-6.958844-3.393825-10.632415-2.525085l6.736568 5.988061-7.791692 6.925949zm15.66455 13.924044 10.551251 9.37889c2.158299 1.918488 5.633395 1.918488 7.791693 0 2.158299-1.918487 2.158299-5.007461 0-6.925949l-10.551251-9.37889c-.671819 1.521856-1.700612 2.954562-3.084212 4.184427-1.383599 1.229867-2.995393 2.14435-4.707481 2.741522zm12.499174 4.184428c1.075809-.956274 2.820039-.956274 3.895847 0 1.075809.956274 1.075809 2.5067 0 3.462975-1.075808.956274-2.820038.956274-3.895847 0-1.075807-.956275-1.075807-2.506701 0-3.462975z" fill="url(#q)"/><path d="m36.624138 19.196212c-.943877.0041-1.894107.126565-2.8125.34375l.9375.84375c3.419472-.53684 7.076994.308022 9.71875 2.65625 2.008215 1.78508 3.053656 4.10033 3.1875 6.4375.152959-2.670953-.892482-5.397484-3.1875-7.4375-2.16106-1.920943-5.012119-2.856031-7.84375-2.84375zm3.375 6.8125-7.21875 6.4375-6.75-6c-.293154.979467-.395834 1.994315-.34375 3 .04208-.670579.148238-1.346769.34375-2l6.75 6 7.78125-6.9375zm9.5 7.4375c-.671819 1.521856-1.71015 2.957635-3.09375 4.1875-1.383599 1.229867-3.006662 2.152828-4.71875 2.75l.78125.6875c1.421716-.588017 2.765512-1.395732 3.9375-2.4375 1.3836-1.229865 2.421931-2.665644 3.09375-4.1875l10.53125 9.375c.926584.82363 1.462754 1.86764 1.59375 2.9375.151755-1.403205-.379707-2.858351-1.59375-3.9375zm3.9375 13.375c-.168095.771739.07762 1.621078.75 2.21875 1.075809.956274 2.830442.956274 3.90625 0 .672381-.597672.918095-1.447011.75-2.21875-.108442.442821-.362709.874491-.75 1.21875-1.075808.956274-2.830441.956274-3.90625 0-.387291-.344259-.641559-.775929-.75-1.21875z" opacity=".4"/></g></svg>