<svg height="96" width="96" xmlns="http://www.w3.org/2000/svg" xmlns:xlink="http://www.w3.org/1999/xlink"><linearGradient id="a" gradientUnits="userSpaceOnUse" x1="36.357143" x2="36.357143" y1="6" y2="63.893143"><stop offset="0" stop-color="#fefefe"/><stop offset="1" stop-color="#fefefe" stop-opacity="0"/></linearGradient><linearGradient id="b" gradientUnits="userSpaceOnUse" x1="48" x2="48" y1="90" y2="5.987717"><stop offset="0" stop-color="#282828"/><stop offset="1" stop-color="#5a5a5a"/></linearGradient><linearGradient id="c" gradientUnits="userSpaceOnUse"><stop offset="0"/><stop offset=".2" stop-opacity=".354839"/><stop offset=".55254942" stop-opacity="0"/><stop offset="1" stop-opacity="0"/></linearGradient><linearGradient id="d" gradientTransform="matrix(.72413795 0 0 .75 1.655173 4.5)" gradientUnits="userSpaceOnUse" x1="43.476658" x2="43.476658" xlink:href="#c" y1="26" y2="34.001266"/><linearGradient id="e" gradientTransform="matrix(1 0 0 1.25 0 -4.598212)" gradientUnits="userSpaceOnUse" x1="48" x2="48" xlink:href="#c" y1="16" y2="11.924657"/><linearGradient id="f" gradientUnits="userSpaceOnUse" x1="50.464287" x2="50.464287" y1="15.357143" y2="19.651315"><stop offset="0" stop-color="#fefefe"/><stop offset=".30000001" stop-color="#fefefe" stop-opacity=".498039"/><stop offset="1" stop-color="#fefefe" stop-opacity="0"/></linearGradient><linearGradient id="g" gradientTransform="matrix(1 0 0 1.25 0 4.401788)" gradientUnits="userSpaceOnUse" x1="48" x2="48" xlink:href="#c" y1="16" y2="11.924657"/><linearGradient id="h" gradientTransform="matrix(.81330712 0 0 .81132563 3.993543 2.028185)" gradientUnits="userSpaceOnUse" x1="11" x2="16" y1="10.441942" y2="24"><stop offset="0" stop-color="#5d5d5d"/><stop offset="1" stop-color="#171717"/></linearGradient><linearGradient id="i" gradientTransform="matrix(.81330712 0 0 .81132563 3.993543 2.028185)" gradientUnits="userSpaceOnUse" x1="13.125" x2="19.25" y1="9.941942" y2="24.5"><stop offset="0" stop-color="#919191"/><stop offset="1" stop-color="#232323"/></linearGradient><radialGradient id="j" cx="11.3125" cy="14.9375" gradientUnits="userSpaceOnUse" r="1.4375"><stop offset="0" stop-color="#dfdfdf"/><stop offset="1" stop-color="#434343"/></radialGradient><radialGradient id="k" cx="48" cy="85.131531" gradientTransform="matrix(1.4018647 .00000001 -.00000001 1.2212402 -19.289505 -25.867403)" gradientUnits="userSpaceOnUse" r="36"><stop offset="0" stop-color="#44b0ff"/><stop offset="1" stop-color="#0a3859"/></radialGradient><linearGradient id="l" gradientUnits="userSpaceOnUse" x1="31.642857" x2="31.642857" y1="25.779018" y2="69.410355"><stop offset="0" stop-color="#a9d5f6"/><stop offset="1" stop-color="#a9d5f6" stop-opacity="0"/></linearGradient><linearGradient id="m" gradientTransform="matrix(1.0058652 0 0 .994169 100 0)" gradientUnits="userSpaceOnUse" x1="45.447727" x2="45.447727" y1="92.539597" y2="7.01654"><stop offset="0"/><stop offset="1" stop-opacity=".588235"/></linearGradient><linearGradient id="n" gradientTransform="matrix(1.0238095 0 0 1.0119048 -1.142857 -98.071429)" gradientUnits="userSpaceOnUse" x1="32.251034" x2="32.251034" xlink:href="#m" y1="6.131708" y2="90.238609"/><linearGradient id="o" gradientTransform="translate(0 -97)" gradientUnits="userSpaceOnUse" x1="32.251034" x2="32.251034" xlink:href="#m" y1="6.131708" y2="90.238609"/><g><g fill="url(#n)"><path d="m12-95.03125c-5.5110903 0-10.03125 4.52016-10.03125 10.03125v71c0 5.5110902 4.5201598 10.03125 10.03125 10.03125h72c5.51109 0 10.03125-4.5201597 10.03125-10.03125v-71c0-5.51109-4.52016-10.03125-10.03125-10.03125z" opacity=".08" transform="scale(1 -1)"/><path d="m12-94.03125c-4.971633 0-9.03125 4.059617-9.03125 9.03125v71c0 4.9716329 4.0596171 9.03125 9.03125 9.03125h72c4.971633 0 9.03125-4.059617 9.03125-9.03125v-71c0-4.971633-4.059617-9.03125-9.03125-9.03125z" opacity=".1" transform="scale(1 -1)"/><path d="m12-93c-4.4091333 0-8 3.590867-8 8v71c0 4.4091333 3.5908667 8 8 8h72c4.409133 0 8-3.5908667 8-8v-71c0-4.409133-3.590867-8-8-8z" opacity=".2" transform="scale(1 -1)"/><rect height="85" opacity=".3" rx="7" transform="scale(1 -1)" width="86" x="5" y="-92"/></g><rect fill="url(#o)" height="84" opacity=".45" rx="6" transform="scale(1 -1)" width="84" x="6" y="-91"/></g><rect fill="url(#b)" height="84" rx="6" width="84" x="6" y="6"/><path d="m12 30v4 36 10c0 2.216 1.784 4 4 4h64c2.216 0 4-1.784 4-4v-10-36-4h-4-64z" fill="url(#k)"/><path d="m12 30v4 31.84375c15.836766-9.953189 42.040184-16.658922 72-17.28125v-14.5625-4h-4-64z" fill="url(#l)" opacity=".7"/><path d="m12 30v4 36 10c0 2.216 1.784 4 4 4h64c2.216 0 4-1.784 4-4v-10-36-4h-4-64zm3.09375 3.09375h.90625 64 .90625v.90625 36 10c0 .550784-.355466.90625-.90625.90625h-64c-.550784 0-.90625-.355466-.90625-.90625v-10-36z" opacity=".08"/><path d="m12 80v1c0 2.216 1.784 4 4 4h64c2.216 0 4-1.784 4-4v-1c0 2.216-1.784 4-4 4h-64c-2.216 0-4-1.784-4-4z" fill="#fefefe" opacity=".3"/><path d="m12 30v4 36 10c0 2.216 1.784 4 4 4h64c2.216 0 4-1.784 4-4v-10-36-4h-4-64zm2.03125 2.03125h1.96875 64 1.96875v1.96875 36 10c0 1.118634-.850116 1.96875-1.96875 1.96875h-64c-1.118634 0-1.96875-.850116-1.96875-1.96875v-10-36z" opacity=".2"/><path d="m12 30v4 36 10c0 2.216 1.784 4 4 4h64c2.216 0 4-1.784 4-4v-10-36-4h-4-64zm1.0625 1.0625h2.9375 64 2.9375v2.9375 36 10c0 1.640961-1.296539 2.9375-2.9375 2.9375h-64c-1.640961 0-2.9375-1.296539-2.9375-2.9375v-10-36z" fill="#0e3857"/><g fill="#fefefe"><path d="m42.785543 70.112701v-16.679687q0-.566406 0-1.132813.01953-.566406.195313-4.863281-1.386719 5.253906-2.050781 7.324219l-4.960938 15.351562h-4.101562l-4.960938-15.351562-2.089844-7.324219q.234375 4.53125.234375 5.996094v16.679687h-5.117187v-27.519531h7.714844l4.921875 15.390625.429687 1.484375.9375 3.691406 1.230469-4.414062 5.058594-16.152344h7.675781v27.519531z"/><path d="m66.906637 70.112701h-5.839844l-10.175781-27.519531h6.015625l5.664063 17.675781q.527343 1.71875 1.445312 5.195313l.410156-1.679688.996094-3.515625 5.644531-17.675781h5.957032z"/></g><path d="m12 6c-3.324 0-6 2.676-6 6v12h84v-12c0-3.324-2.676-6-6-6z"/><g fill-rule="evenodd"><path d="m6 24h84v6h-84z" fill="url(#d)" opacity=".8"/><path d="m6 15h84v5h-84z" fill="url(#f)" opacity=".3"/><g fill="#f0f0f0" transform="translate(1)"><path d="m28.333333 6-5.333333 9 5.333333 9h10.666667l-5.333333-9 5.333333-9z"/><path d="m50.333333 6-5.333333 9 5.333333 9h10.666667l-5.333333-9 5.333333-9z"/><path d="m72.333333 6-5.333333 9 5.333333 9h10.666667l-5.333333-9 5.333333-9z"/></g><path d="m6 10h84v5h-84z" fill="url(#e)" opacity=".7"/><path d="m6 19h84v5h-84z" fill="url(#g)" opacity=".7"/><path d="m12.005391 10.5c1.109513 0 1.770155.983693 6.03003 4.302704 4.304387 3.353689 5.477493 3.726472 5.477493 5.074645 0 1.348423-1.088205 1.622651-2.439921 1.622651h-8.133072c-1.351716 0-2.439921-1.085554-2.439921-2.433977v-6.490605c0-1.348423.467611-2.075418 1.505391-2.075418z" fill="url(#h)" stroke="url(#i)" stroke-linejoin="round"/><path d="m12.75 14.9375a1.4375 1.4375 0 1 1 -2.875 0 1.4375 1.4375 0 1 1 2.875 0z" fill="url(#j)" transform="matrix(.81330712 0 0 .81132563 3.58689 1.074678)"/><path d="m12.75 14.9375a1.4375 1.4375 0 1 1 -2.875 0 1.4375 1.4375 0 1 1 2.875 0z" fill="url(#j)" transform="matrix(.81330712 0 0 .81132563 3.58689 7.09897)"/><path d="m12.75 14.9375a1.4375 1.4375 0 1 1 -2.875 0 1.4375 1.4375 0 1 1 2.875 0z" fill="url(#j)" transform="matrix(.81330712 0 0 .81132563 11.618297 7.09897)"/></g><path d="m12 6c-3.324 0-6 2.676-6 6v2 68 2c0 .334721.04135.6507.09375.96875.0487.295596.09704.596915.1875.875.00988.03038.020892.0636.03125.09375.098865.287771.2348802.547452.375.8125.1445918.273507.3156161.535615.5.78125s.3737765.473472.59375.6875c.439947.428056.94291.814526 1.5 1.09375.278545.139612.5734731.246947.875.34375-.2562018-.100222-.4867109-.236272-.71875-.375-.00741-.0044-.023866.0045-.03125 0-.031933-.0193-.062293-.04251-.09375-.0625-.120395-.0767-.2310226-.163513-.34375-.25-.1061728-.0808-.2132809-.161112-.3125-.25-.1779299-.161433-.3474596-.345388-.5-.53125-.1075789-.130255-.2183939-.265285-.3125-.40625-.025089-.03838-.038446-.08587-.0625-.125-.064763-.103032-.1302275-.204517-.1875-.3125-.1010083-.194706-.2056748-.415701-.28125-.625-.00796-.02181-.023589-.04055-.03125-.0625-.0318251-.09195-.0358045-.186831-.0625-.28125-.0303323-.106618-.0703894-.203031-.09375-.3125-.0728786-.341512-.125-.698205-.125-1.0625v-2-68-2c0-2.781848 2.2181517-5 5-5h2 68 2c2.781848 0 5 2.218152 5 5v2 68 2c0 .364295-.05212.720988-.125 1.0625-.04415.206893-.08838.397658-.15625.59375-.0077.02195-.0233.04069-.03125.0625-.06274.173739-.138383.367449-.21875.53125-.04158.0828-.07904.169954-.125.25-.0546.09721-.126774.18835-.1875.28125-.09411.140965-.204921.275995-.3125.40625-.143174.17445-.303141.346998-.46875.5-.01117.0102-.01998.02115-.03125.03125-.138386.125556-.285091.234436-.4375.34375-.102571.07315-.204318.153364-.3125.21875-.0074.0045-.02384-.0044-.03125 0-.232039.138728-.462548.274778-.71875.375.301527-.0968.596455-.204138.875-.34375.55709-.279224 1.060053-.665694 1.5-1.09375.219973-.214028.409366-.441865.59375-.6875s.355408-.507743.5-.78125c.14012-.265048.276135-.524729.375-.8125.01041-.03078.02133-.06274.03125-.09375.09046-.278085.1388-.579404.1875-.875.0524-.31805.09375-.634029.09375-.96875v-2-68-2c0-3.324-2.676-6-6-6z" fill="url(#a)" opacity=".3"/></svg>