<svg height="96" width="96" xmlns="http://www.w3.org/2000/svg" xmlns:xlink="http://www.w3.org/1999/xlink"><linearGradient id="a"><stop offset="0"/><stop offset="1" stop-opacity="0"/></linearGradient><linearGradient id="b"><stop offset="0" stop-color="#fefefe"/><stop offset="1" stop-color="#fefefe" stop-opacity="0"/></linearGradient><linearGradient id="c" gradientUnits="userSpaceOnUse" x1="48" x2="48" y1="90" y2="5.987717"><stop offset="0" stop-color="#e0880b"/><stop offset="1" stop-color="#f7ce50"/></linearGradient><linearGradient id="d" gradientUnits="userSpaceOnUse" x1="36.357143" x2="36.357143" xlink:href="#b" y1="6" y2="63.893143"/><radialGradient id="e" cx="48" cy="90.171875" gradientTransform="matrix(1.1573129 0 0 .99590774 -7.551021 .197132)" gradientUnits="userSpaceOnUse" r="42" xlink:href="#b"/><filter id="f" color-interpolation-filters="sRGB"><feGaussianBlur stdDeviation="1.83514"/></filter><clipPath id="g"><rect height="111.20501" rx="7.945736" ry="7.943215" width="111.24031" x="11.498101" y="11.194011"/></clipPath><filter id="h" color-interpolation-filters="sRGB" height="1.288648" width="1.075745" x="-.037872" y="-.144324"><feGaussianBlur stdDeviation=".37938072"/></filter><filter id="i" color-interpolation-filters="sRGB"><feGaussianBlur stdDeviation=".78995058"/></filter><filter id="j" color-interpolation-filters="sRGB"><feGaussianBlur stdDeviation=".22026213"/></filter><radialGradient id="k" cx="63.75" cy="57.679382" gradientTransform="matrix(-1.5581724 .00000014 -.00000012 -1.3643811 163.0835 137.55769)" gradientUnits="userSpaceOnUse" r="34"><stop offset="0" stop-color="#fefefe"/><stop offset=".1" stop-color="#fefefe"/><stop offset=".30000001" stop-color="#e6e6e6"/><stop offset=".80000001" stop-color="#bebebe"/><stop offset="1" stop-color="#e6e6e6"/></radialGradient><radialGradient id="l" cx="48.17165" cy="77.798073" gradientTransform="matrix(1.6338787 .00000017 -.0000003 2.8381058 -30.534959 -134.76277)" gradientUnits="userSpaceOnUse" r="15.495689" xlink:href="#b"/><radialGradient id="m" cx="76.367531" cy="78" gradientUnits="userSpaceOnUse" r="2.767844" xlink:href="#b"/><linearGradient id="n" gradientUnits="userSpaceOnUse" x1="37.53820296947" x2="52.04126317335" y1="14.32537778479" y2="68.81681270897"><stop offset="0" stop-color="#2f70b4"/><stop offset="1" stop-color="#4588ce"/></linearGradient><clipPath id="o"><rect height="84" rx="6" width="84" x="6" y="6"/></clipPath><filter id="p" color-interpolation-filters="sRGB" height="1.384" width="1.384" x="-.192" y="-.192"><feGaussianBlur stdDeviation="5.28"/></filter><linearGradient id="q" gradientUnits="userSpaceOnUse" x1="48" x2="48" xlink:href="#b" y1="20.220806" y2="138.66119"/><linearGradient id="r" gradientTransform="matrix(1.0058652 0 0 .994169 100 0)" gradientUnits="userSpaceOnUse" x1="45.447727" x2="45.447727" y1="92.539597" y2="7.01654"><stop offset="0"/><stop offset="1" stop-opacity=".588235"/></linearGradient><linearGradient id="s" gradientTransform="matrix(1.0238095 0 0 1.0119048 -1.142857 -98.071429)" gradientUnits="userSpaceOnUse" x1="32.251034" x2="32.251034" xlink:href="#r" y1="6.131708" y2="90.238609"/><linearGradient id="t" gradientTransform="translate(0 -97)" gradientUnits="userSpaceOnUse" x1="32.251034" x2="32.251034" xlink:href="#r" y1="6.131708" y2="90.238609"/><linearGradient id="u" gradientUnits="userSpaceOnUse" x1="48" x2="48" xlink:href="#a" y1="88" y2="-16"/><linearGradient id="v" gradientUnits="userSpaceOnUse" x1="48" x2="48" xlink:href="#a" y1="87" y2="-17"/><g><g fill="url(#s)"><path d="m12-95.03125c-5.5110903 0-10.03125 4.52016-10.03125 10.03125v71c0 5.5110902 4.5201598 10.03125 10.03125 10.03125h72c5.51109 0 10.03125-4.5201597 10.03125-10.03125v-71c0-5.51109-4.52016-10.03125-10.03125-10.03125z" opacity=".08" transform="scale(1 -1)"/><path d="m12-94.03125c-4.971633 0-9.03125 4.059617-9.03125 9.03125v71c0 4.9716329 4.0596171 9.03125 9.03125 9.03125h72c4.971633 0 9.03125-4.059617 9.03125-9.03125v-71c0-4.971633-4.059617-9.03125-9.03125-9.03125z" opacity=".1" transform="scale(1 -1)"/><path d="m12-93c-4.4091333 0-8 3.590867-8 8v71c0 4.4091333 3.5908667 8 8 8h72c4.409133 0 8-3.5908667 8-8v-71c0-4.409133-3.590867-8-8-8z" opacity=".2" transform="scale(1 -1)"/><rect height="85" opacity=".3" rx="7" transform="scale(1 -1)" width="86" x="5" y="-92"/></g><rect fill="url(#t)" height="84" opacity=".45" rx="6" transform="scale(1 -1)" width="84" x="6" y="-91"/></g><rect fill="url(#c)" height="84" rx="6" width="84" x="6" y="6"/><path d="m3.27163 125.00129c36.59871-2.97448 74.20742.75124 109.80799-10.08018 17.05325-3.93639 33.98478-17.92111 41.79161-38.31122m-153.85393 41.78515c36.04196-4.24752 73.2745-2.08361 108.25601-13.79625 16.87197-4.54806 33.51852-18.496451 41.52972-38.583512m-152.04005 45.773512c35.4852-5.52056 72.34158-4.91847 106.70401-17.51233 16.6907-5.159717 33.05228-19.071783 41.26784-38.855794m-150.22618 49.761884c34.92845-6.79361 71.40866-7.75333 105.15203-21.228409 16.50942-5.771387 32.58602-19.647125 41.00595-39.128087m-148.4123 53.750246c34.37169-8.066649 70.47573-10.588183 103.60004-24.944482 16.32813-6.383052 32.11977-20.222463 40.74405-39.400376m-146.59842 57.738608c33.81494-9.339689 69.54282-13.423036 102.04805-28.660555 16.14686-6.994718 31.65352-20.797802 40.48217-39.672665m-144.78454 61.726972c33.25818-10.612731 68.60989-16.257891 100.49606-32.37663 15.96558-7.606383 31.18726-21.37314 40.22028-39.944954m-142.97066 65.715335c32.70142-11.885772 67.67696-19.092745 98.94407-36.092704 15.7843-8.218049 30.72101-21.948478 39.95839-40.2172436m-141.15679 69.7036996c32.14467-13.158814 66.74405-21.9276 97.39209-39.808779 15.60302-8.829715 30.25475-22.5238171 39.6965-40.4895327m-139.34291 73.6920637c31.58791-14.431856 65.81112-24.762455 95.84009-43.524854 15.42175-9.44138 29.78851-23.099155 39.43462-40.761822m-137.52904 77.680428c31.03116-15.704898 64.8782-27.59731 94.28811-47.240929 15.24046-10.0530459 29.32225-23.674493 39.17272-41.034111m-135.71515 81.668792c30.4744-16.977939 63.94528-30.432166 92.73612-50.9570037 15.05918-10.6647118 28.85599-24.2498323 38.91083-41.3064003m-133.90128 85.657156c29.91765-18.250981 63.01236-33.267021 91.18413-54.6730787 14.87791-11.2763773 28.38975-24.8251703 38.64895-41.5786893m-132.0874 89.64552c29.36089-19.524023 62.07943-36.1018761 89.63214-58.389154 14.69663-11.888043 27.92349-25.400508 38.38706-41.850978" style="opacity:.2;fill:none;stroke:#fefefe;stroke-width:5.388459;clip-path:url(#g);filter:url(#f)" transform="matrix(.75512196 0 0 .75536166 -2.682469 -2.455526)"/><path d="m12 6c-3.324 0-6 2.676-6 6v2 68 2c0 .334721.04135.6507.09375.96875.0487.295596.09704.596915.1875.875.00988.03038.020892.0636.03125.09375.098865.287771.2348802.547452.375.8125.1445918.273507.3156161.535615.5.78125s.3737765.473472.59375.6875c.439947.428056.94291.814526 1.5 1.09375.278545.139612.5734731.246947.875.34375-.2562018-.100222-.4867109-.236272-.71875-.375-.00741-.0044-.023866.0045-.03125 0-.031933-.0193-.062293-.04251-.09375-.0625-.120395-.0767-.2310226-.163513-.34375-.25-.1061728-.0808-.2132809-.161112-.3125-.25-.1779299-.161433-.3474596-.345388-.5-.53125-.1075789-.130255-.2183939-.265285-.3125-.40625-.025089-.03838-.038446-.08587-.0625-.125-.064763-.103032-.1302275-.204517-.1875-.3125-.1010083-.194706-.2056748-.415701-.28125-.625-.00796-.02181-.023589-.04055-.03125-.0625-.0318251-.09195-.0358045-.186831-.0625-.28125-.0303323-.106618-.0703894-.203031-.09375-.3125-.0728786-.341512-.125-.698205-.125-1.0625v-2-68-2c0-2.781848 2.2181517-5 5-5h2 68 2c2.781848 0 5 2.218152 5 5v2 68 2c0 .364295-.05212.720988-.125 1.0625-.04415.206893-.08838.397658-.15625.59375-.0077.02195-.0233.04069-.03125.0625-.06274.173739-.138383.367449-.21875.53125-.04158.0828-.07904.169954-.125.25-.0546.09721-.126774.18835-.1875.28125-.09411.140965-.204921.275995-.3125.40625-.143174.17445-.303141.346998-.46875.5-.01117.0102-.01998.02115-.03125.03125-.138386.125556-.285091.234436-.4375.34375-.102571.07315-.204318.153364-.3125.21875-.0074.0045-.02384-.0044-.03125 0-.232039.138728-.462548.274778-.71875.375.301527-.0968.596455-.204138.875-.34375.55709-.279224 1.060053-.665694 1.5-1.09375.219973-.214028.409366-.441865.59375-.6875s.355408-.507743.5-.78125c.14012-.265048.276135-.524729.375-.8125.01041-.03078.02133-.06274.03125-.09375.09046-.278085.1388-.579404.1875-.875.0524-.31805.09375-.634029.09375-.96875v-2-68-2c0-3.324-2.676-6-6-6z" fill="url(#d)" opacity=".5"/><path d="m12 90c-3.324 0-6-2.676-6-6v-2-68-2c0-.334721.04135-.6507.09375-.96875.0487-.295596.09704-.596915.1875-.875.00988-.03038.020892-.0636.03125-.09375.098865-.287771.2348802-.547452.375-.8125.1445918-.273507.3156161-.535615.5-.78125s.3737765-.473472.59375-.6875c.439947-.428056.94291-.814526 1.5-1.09375.278545-.139612.5734731-.246947.875-.34375-.2562018.100222-.4867109.236272-.71875.375-.00741.0044-.023866-.0045-.03125 0-.031933.0193-.062293.04251-.09375.0625-.120395.0767-.2310226.163513-.34375.25-.1061728.0808-.2132809.161112-.3125.25-.1779299.161433-.3474596.345388-.5.53125-.1075789.130255-.2183939.265285-.3125.40625-.025089.03838-.038446.08587-.0625.125-.064763.103032-.1302275.204517-.1875.3125-.1010083.194706-.2056748.415701-.28125.625-.00796.02181-.023589.04055-.03125.0625-.0318251.09195-.0358045.186831-.0625.28125-.0303323.106618-.0703894.203031-.09375.3125-.0728786.341512-.125.698205-.125 1.0625v2 68 2c0 2.781848 2.2181517 5 5 5h2 68 2c2.781848 0 5-2.218152 5-5v-2-68-2c0-.364295-.05212-.720988-.125-1.0625-.04415-.206893-.08838-.397658-.15625-.59375-.0077-.02195-.0233-.04069-.03125-.0625-.06274-.173739-.138383-.367449-.21875-.53125-.04158-.0828-.07904-.169954-.125-.25-.0546-.09721-.126774-.18835-.1875-.28125-.09411-.140965-.204921-.275995-.3125-.40625-.143174-.17445-.303141-.346998-.46875-.5-.01117-.0102-.01998-.02115-.03125-.03125-.138386-.125556-.285091-.234436-.4375-.34375-.102571-.07315-.204318-.153364-.3125-.21875-.0074-.0045-.02384.0044-.03125 0-.232039-.138728-.462548-.274778-.71875-.375.301527.0968.596455.204138.875.34375.55709.279224 1.060053.665694 1.5 1.09375.219973.214028.409366.441865.59375.6875s.355408.507743.5.78125c.14012.265048.276135.524729.375.8125.01041.03078.02133.06274.03125.09375.09046.278085.1388.579404.1875.875.0524.31805.09375.634029.09375.96875v2 68 2c0 3.324-2.676 6-6 6z" fill="url(#e)" opacity=".2"/><rect height="66" rx="12" style="opacity:.15;stroke:#fefefe;stroke-width:.5;stroke-linecap:round;clip-path:url(#o);fill:url(#q);filter:url(#p)" width="66" x="15" y="15"/><g fill-rule="evenodd"><path d="m45.40625 11.28125c-7.398742.09251-15.773823 1.471074-21.0625 7.625a1.0093352 1.0093352 0 0 0 -.03125 0c-2.768546 3.343594-6.041246 6.221155-9.78125 8.375l.03125.03125c-1.208773.511269-1.889659 1.703304-1.875 2.84375.01545 1.201889.80962 2.529539 2.21875 2.84375a1.0093352 1.0093352 0 0 0 .125 0c5.498289.595233 11.471465.0988 16.34375-3.21875a1.0093352 1.0093352 0 0 0 .03125-.03125c.756738-.541487 1.425692-.766582 1.6875-.84375.0066.144191.04089.251143-.0625.6875a1.0093352 1.0093352 0 0 0 -.03125.21875v9.125c-8.247672 6.443414-12.2992 17.890052-9.03125 28 .0028.0094-.0028.02188 0 .03125 3.77351 12.714125 17.254329 20.806792 30.1875 19.65625.01032-.000545.02093.000557.03125 0 12.608269-.679817 24.525489-10.224007 26.5-23 .0016-.01014-.0016-.02111 0-.03125 2.023344-11.213748-4.376058-22.726462-14.34375-27.8125-5.411519-2.856613-11.741825-4.126263-17.875-3.1875-.02345-6.236337.07724-12.513404-.0625-18.78125a1.0093352 1.0093352 0 0 0 0-.15625c-.271754-1.421995-1.55769-2.387421-2.96875-2.375-.01038.000091-.02085-.000198-.03125 0z" fill="url(#v)" opacity=".05" transform="translate(0 1)"/><path d="m45.4375 13.28125c-7.287928.08767-15.33925 1.480854-20.337039 7.296302-2.837656 3.427059-6.203675 6.352886-10.057953 8.572541-1.773742.601013-1.793039 3.431697.082492 3.849907 5.357957.580041 11.095819.06399 15.6875-3.0625 1.87729-1.343304 3.881308-2.053963 3.1875.87416v9.59459c-8.192411 6.123172-12.2471 17.40292-9.053916 27.236607 3.610727 12.218464 16.669542 20.09214 29.139214 18.96844 12.151564-.641128 23.709694-9.899245 25.589237-22.163706 1.951651-10.733625-4.228231-21.881821-13.809407-26.770638-5.576826-2.943875-12.170394-4.221707-18.396378-2.958203-.04285-6.623305.08499-13.259743-.0625-19.875-.173448-.907593-1.049104-1.580039-1.96875-1.5625z" fill="url(#u)" opacity=".1"/><path d="m45.46875 13.28125-1.03125.03125c-9.194554.338062-13.765334 2.455842-16.96875 5.34375-3.181562 2.868206-4.870923 5.8915-9.5625 8.84375l-2.78125 1.78125a.98422826.98422826 0 0 0 .5 1.8125l3.28125.09375c5.436981.155978 8.854901-1.555124 11.375-3.09375 1.805247-1.10218 3.152624-1.859572 4.71875-2.21875v13.9375c-6.144545 4.618246-10.125 11.669713-10.125 19.625 0 13.977509 12.151905 25.25 27.0625 25.25s27.0625-11.272491 27.0625-25.25-12.153328-25.21875-27.0625-25.21875c-1.879332 0-3.684467.256409-5.46875.59375v-19.53125-1.03125a.98422826.98422826 0 0 0 -1-.96875z" fill="url(#v)" opacity=".15" transform="translate(0 1)"/><path d="m45.5 15.25-1.03125.03125c-9.060092.333118-13.299797 2.3496-16.34375 5.09375s-4.828585 5.9112-9.6875 8.96875l-2.78125 1.78125 3.28125.09375c5.223472.149853 8.375345-1.461685 10.84375-2.96875 2.179396-1.330613 3.8059-2.451874 6.1875-2.625v15.625c-6.168543 4.439736-10.125 11.372288-10.125 19.1875 0 13.405984 11.678112 24.28125 26.09375 24.28125s26.09375-10.875266 26.09375-24.28125-11.678112-24.25-26.09375-24.25c-2.217873 0-4.38146.234598-6.4375.71875v-20.625z" fill="url(#u)" opacity=".3"/></g><path d="m97.75 73.75a34 31.5 0 1 1 -68 0 34 31.5 0 1 1 68 0z" fill="url(#k)" transform="matrix(.76770063 0 0 .77059305 2.989842 1.618785)"/><path d="m44.501337 14.276296c-17.858239.656604-15.4768 7.600079-25.533915 13.92868 10.033404.287843 11.424275-5.903756 17.989803-5.641115v46.080716c9.935015.928579 34.301976 1.230935 31.545992-14.834044-2.111415-12.307701-24.001882-3.551813-24.00188-3.551813zm10.143928 38.118155c2.741551.01475 5.077896.606677 5.501398 3.342883 1.286413 8.31138-15.784601 8.357208-15.784602 8.357208v-9.657218s5.713952-2.067459 10.283204-2.042873z" fill="url(#n)" fill-rule="evenodd" stroke="#28609b" stroke-width="2"/><path d="m55.154329 65.597826c22.185475-7.778175 26.162951-2.597826 26.162951-2.597826s-9.693358-2.617086-26.074563 5.0727l-.08839-2.474874z" fill="#fefefe" fill-rule="evenodd" filter="url(#h)" opacity=".4" transform="matrix(.76488859 0 0 .76488859 1.734946 1.561431)"/><path d="m48.70198 39.788428v45.696776s13.788582 1.767768 28.991378-3.18198" fill="none" filter="url(#i)" opacity=".5" stroke="url(#l)" stroke-width="2.61476" transform="matrix(.76488859 0 0 .76488859 1.734946 1.561431)"/><path d="m77.263755 78.958454c-5.588635 4.29895-11.178321 3.145988-11.178321 3.145988s6.487758-.586458 10.310934-5.465569c0 0 3.165485.551814.867387 2.319581z" fill="#fefefe" fill-rule="evenodd" filter="url(#j)" opacity=".4" transform="matrix(.76488859 0 0 .76488859 1.734946 1.561431)"/><path d="m79.135375 78a2.767844 2.767844 0 1 1 -5.535688 0 2.767844 2.767844 0 1 1 5.535688 0z" fill="url(#m)" transform="matrix(1.1259937 -.74675346 .54425166 .82065096 -67.832995 54.307293)"/><path d="m27.904329 29.972826c17.868144-8.338338 16.992605-2.374879 29.918961-.807605-8.138016.63063-15.373574-7.038358-29.830573 3.282479l-.08839-2.474874z" fill="#fefefe" fill-rule="evenodd" filter="url(#h)" opacity=".4" transform="matrix(-.65020701 .40284663 .40284663 .65020701 48.406966 -15.249414)"/><path d="m79.135375 78a2.767844 2.767844 0 1 1 -5.535688 0 2.767844 2.767844 0 1 1 5.535688 0z" fill="url(#m)" opacity=".8" transform="matrix(.81502459 -.5405203 .39394401 .59400927 -63.243429 14.645007)"/></svg>