<svg height="96" width="96" xmlns="http://www.w3.org/2000/svg" xmlns:xlink="http://www.w3.org/1999/xlink"><linearGradient id="a" gradientTransform="matrix(1.0058652 0 0 .994169 100 0)" gradientUnits="userSpaceOnUse" x1="45.447727" x2="45.447727" y1="92.539597" y2="7.01654"><stop offset="0"/><stop offset="1" stop-opacity=".588235"/></linearGradient><linearGradient id="b"><stop offset="0" stop-color="#fefefe"/><stop offset="1" stop-color="#fefefe" stop-opacity="0"/></linearGradient><linearGradient id="c" gradientTransform="translate(0 -97)" gradientUnits="userSpaceOnUse" x1="32.251034" x2="32.251034" xlink:href="#a" y1="6.131708" y2="90.238609"/><linearGradient id="d" gradientTransform="matrix(1.0238095 0 0 1.0119048 -1.142857 -98.071429)" gradientUnits="userSpaceOnUse" x1="32.251034" x2="32.251034" xlink:href="#a" y1="6.131708" y2="90.238609"/><clipPath id="e"><rect height="249.26759" rx="17.804829" transform="scale(1 -1)" width="249.26759" x="74.599915" y="-330.03705"/></clipPath><radialGradient id="f" cx="48" cy="90.171875" gradientTransform="matrix(1.1573129 0 0 .99590774 -7.551021 .197132)" gradientUnits="userSpaceOnUse" r="42" xlink:href="#b"/><linearGradient id="g" gradientUnits="userSpaceOnUse" x1="36.357143" x2="36.357143" xlink:href="#b" y1="6" y2="63.893143"/><g transform="scale(1 -1)"><path d="m12-95.03125c-5.5110903 0-10.03125 4.52016-10.03125 10.03125v71c0 5.5110902 4.5201598 10.03125 10.03125 10.03125h72c5.51109 0 10.03125-4.5201597 10.03125-10.03125v-71c0-5.51109-4.52016-10.03125-10.03125-10.03125z" fill="url(#d)" opacity=".08"/><path d="m12-94.03125c-4.971633 0-9.03125 4.059617-9.03125 9.03125v71c0 4.9716329 4.0596171 9.03125 9.03125 9.03125h72c4.971633 0 9.03125-4.059617 9.03125-9.03125v-71c0-4.971633-4.059617-9.03125-9.03125-9.03125z" fill="url(#d)" opacity=".1"/><path d="m12-93c-4.4091333 0-8 3.590867-8 8v71c0 4.4091333 3.5908667 8 8 8h72c4.409133 0 8-3.5908667 8-8v-71c0-4.409133-3.590867-8-8-8z" fill="url(#d)" opacity=".2"/><rect fill="url(#d)" height="85" opacity=".3" rx="7" width="86" x="5" y="-92"/><rect fill="url(#c)" height="84" opacity=".45" rx="6" width="84" x="6" y="-91"/><rect fill="#e9b96e" height="84" rx="6" width="84" x="6" y="-90"/><rect fill="#dba44d" height="76.544724" rx="5.46748" width="40.947037" x="45.325333" y="-86.272362"/></g><g clip-path="url(#e)" transform="matrix(.33698725 0 0 .33698725 -19.139221 -21.218279)"><g stroke-linecap="round" stroke-linejoin="round" transform="translate(0 23.739771)"><path d="m200.78125 1.28125c-20.96272 0-41.05758 2.3294613-59.4375 7.875-18.38046 5.545707-35.05923 14.328865-49.09375 27.15625-14.034305 12.82719-25.383739 29.68202-33.15625 51.15625-7.772228 21.47346-12.000002 47.55725-12 79a3.8521248 3.8521248 0 0 0 6.53125 2.78125l39.03125-37.71875 30.1875 37.34375a3.8521248 3.8521248 0 0 0 6 0l31.625-39.4375 37.5 39.6875a3.8521248 3.8521248 0 0 0 5.90625-.34375l32.25-42.875 36.625 43.0625a3.8521248 3.8521248 0 0 0 6.25-.5625l26.40625-45.3125 42.34375 45.96875a3.8521248 3.8521248 0 0 0 6.6875-2.59375c0-31.44276-4.22779-57.52656-12-79-7.77251-21.474227-19.12192-38.329058-33.15625-51.15625-14.03452-12.827385-30.71329-21.610543-49.09375-27.15625-18.37872-5.5451814-38.44353-7.8749999-59.40625-7.875z" fill="#242424" stroke="#242424" stroke-width="5" transform="matrix(.9575417 0 0 .9575417 6.992267 -16.057462)"/><path d="m251.15625 30.03125a4.5981608 4.5981608 0 0 0 -4.1875 2.75l-53.375 121.96875a4.5981608 4.5981608 0 0 0 8 4.46875l25.5-36.625c1.17029-1.55341 2.9538-2.50468 4.90625-2.5625 1.94416-.0576 3.83287.76772 5.09375 2.25l28 32.9375a4.5981608 4.5981608 0 0 0 7.46875-.65625l19.9375-34.28125c1.01846-1.75277 2.83803-2.93492 4.875-3.15625 2.02931-.2205 4.01767.5504 5.40625 2.0625l23.03125 24.96875a4.5981608 4.5981608 0 0 0 7.9375-3.65625c-1.77037-15.61861-4.75875-29.52306-9.09375-41.5-6.94551-19.189359-16.84395-33.860958-29.03125-45-12.18674-11.138524-26.7303-18.834683-43.125-23.78125a4.5981608 4.5981608 0 0 0 -1.34375-.1875z" opacity=".5" stroke="#000" stroke-width="4.787708" transform="translate(.79945 -27.126729)"/></g></g><path d="m12 6c-3.324 0-6 2.676-6 6v2 68 2c0 .334721.04135.6507.09375.96875.0487.295596.09704.596915.1875.875.00988.03038.020892.0636.03125.09375.098865.287771.2348802.547452.375.8125.1445918.273507.3156161.535615.5.78125s.3737765.473472.59375.6875c.439947.428056.94291.814526 1.5 1.09375.278545.139612.5734731.246947.875.34375-.2562018-.100222-.4867109-.236272-.71875-.375-.00741-.0044-.023866.0045-.03125 0-.031933-.0193-.062293-.04251-.09375-.0625-.120395-.0767-.2310226-.163513-.34375-.25-.1061728-.0808-.2132809-.161112-.3125-.25-.1779299-.161433-.3474596-.345388-.5-.53125-.1075789-.130255-.2183939-.265285-.3125-.40625-.025089-.03838-.038446-.08587-.0625-.125-.064763-.103032-.1302275-.204517-.1875-.3125-.1010083-.194706-.2056748-.415701-.28125-.625-.00796-.02181-.023589-.04055-.03125-.0625-.0318251-.09195-.0358045-.186831-.0625-.28125-.0303323-.106618-.0703894-.203031-.09375-.3125-.0728786-.341512-.125-.698205-.125-1.0625v-2-68-2c0-2.781848 2.2181517-5 5-5h2 68 2c2.781848 0 5 2.218152 5 5v2 68 2c0 .364295-.05212.720988-.125 1.0625-.04415.206893-.08838.397658-.15625.59375-.0077.02195-.0233.04069-.03125.0625-.06274.173739-.138383.367449-.21875.53125-.04158.0828-.07904.169954-.125.25-.0546.09721-.126774.18835-.1875.28125-.09411.140965-.204921.275995-.3125.40625-.143174.17445-.303141.346998-.46875.5-.01117.0102-.01998.02115-.03125.03125-.138386.125556-.285091.234436-.4375.34375-.102571.07315-.204318.153364-.3125.21875-.0074.0045-.02384-.0044-.03125 0-.232039.138728-.462548.274778-.71875.375.301527-.0968.596455-.204138.875-.34375.55709-.279224 1.060053-.665694 1.5-1.09375.219973-.214028.409366-.441865.59375-.6875s.355408-.507743.5-.78125c.14012-.265048.276135-.524729.375-.8125.01041-.03078.02133-.06274.03125-.09375.09046-.278085.1388-.579404.1875-.875.0524-.31805.09375-.634029.09375-.96875v-2-68-2c0-3.324-2.676-6-6-6z" fill="url(#g)" opacity=".4"/><path d="m12 90c-3.324 0-6-2.676-6-6v-2-68-2c0-.334721.04135-.6507.09375-.96875.0487-.295596.09704-.596915.1875-.875.00988-.03038.020892-.0636.03125-.09375.098865-.287771.2348802-.547452.375-.8125.1445918-.273507.3156161-.535615.5-.78125s.3737765-.473472.59375-.6875c.439947-.428056.94291-.814526 1.5-1.09375.278545-.139612.5734731-.246947.875-.34375-.2562018.100222-.4867109.236272-.71875.375-.00741.0044-.023866-.0045-.03125 0-.031933.0193-.062293.04251-.09375.0625-.120395.0767-.2310226.163513-.34375.25-.1061728.0808-.2132809.161112-.3125.25-.1779299.161433-.3474596.345388-.5.53125-.1075789.130255-.2183939.265285-.3125.40625-.025089.03838-.038446.08587-.0625.125-.064763.103032-.1302275.204517-.1875.3125-.1010083.194706-.2056748.415701-.28125.625-.00796.02181-.023589.04055-.03125.0625-.0318251.09195-.0358045.186831-.0625.28125-.0303323.106618-.0703894.203031-.09375.3125-.0728786.341512-.125.698205-.125 1.0625v2 68 2c0 2.781848 2.2181517 5 5 5h2 68 2c2.781848 0 5-2.218152 5-5v-2-68-2c0-.364295-.05212-.720988-.125-1.0625-.04415-.206893-.08838-.397658-.15625-.59375-.0077-.02195-.0233-.04069-.03125-.0625-.06274-.173739-.138383-.367449-.21875-.53125-.04158-.0828-.07904-.169954-.125-.25-.0546-.09721-.126774-.18835-.1875-.28125-.09411-.140965-.204921-.275995-.3125-.40625-.143174-.17445-.303141-.346998-.46875-.5-.01117-.0102-.01998-.02115-.03125-.03125-.138386-.125556-.285091-.234436-.4375-.34375-.102571-.07315-.204318-.153364-.3125-.21875-.0074-.0045-.02384.0044-.03125 0-.232039-.138728-.462548-.274778-.71875-.375.301527.0968.596455.204138.875.34375.55709.279224 1.060053.665694 1.5 1.09375.219973.214028.409366.441865.59375.6875s.355408.507743.5.78125c.14012.265048.276135.524729.375.8125.01041.03078.02133.06274.03125.09375.09046.278085.1388.579404.1875.875.0524.31805.09375.634029.09375.96875v2 68 2c0 3.324-2.676 6-6 6z" fill="url(#f)" opacity=".2"/><g fill="#fefefe" stroke="#c17d11" stroke-linecap="square" stroke-linejoin="round" stroke-width="1.349043" transform="matrix(1.2699692 0 0 .97350422 -12.958517 3.856853)"><rect height="26.382704" rx="10.287469" width="58.675934" x="18.662033" y="59.889656"/><path d="m18.662033 53.889656s19.4392 6 29.337967 6 29.337967-6 29.337967-6v17.992139h-58.675934z"/></g><g stroke="#c17d11" stroke-linecap="round" stroke-linejoin="round" transform="matrix(.31050956 0 0 .31050956 -14.202986 -43.835451)"><path d="m221.68128 294.23542c5.42283 4.21237 8.76141 10.00848 8.72749 16.38759-.0678 12.75824-13.60021 23.04108-30.20617 22.95277-16.60596-.0883-30.0282-10.51451-29.96035-23.27275.0339-6.37913 3.43398-12.13939 8.90131-16.29384" fill="#e9b96e" stroke-width="4.787708"/><path d="m182.84375 259.75c-1.83956 1.9282-2.6877 3.93454-2.78125 5.96875-.12856 2.79567 1.12054 5.71034 4.53125 8.59375s8.87175 5.20669 15.25 5.5c6.38259.29352 12.05008-1.53702 15.71875-4.09375s5.18435-5.30702 5.3125-8.09375c.0932-2.02716-.59804-4.12222-2.25-6.21875z" fill="#c17d11" opacity=".358079" stroke-width="5" transform="matrix(.7434868 -.3575088 .3575088 .7434868 -38.509698 186.83608)"/></g><path d="m-36.781609 204.98085c0 9.94536-8.062305 18.00766-18.007663 18.00766s-18.007664-8.0623-18.007664-18.00766 8.062306-18.00766 18.007664-18.00766 18.007663 8.0623 18.007663 18.00766z" fill="#eeeeec" transform="matrix(.36292891455 0 0 .36292891455 59.47249081982 -31.466799215)"/><path d="m-36.781609 204.98085c0 9.94536-8.062305 18.00766-18.007663 18.00766s-18.007664-8.0623-18.007664-18.00766 8.062306-18.00766 18.007664-18.00766 18.007663 8.0623 18.007663 18.00766z" fill="#3465a4" transform="matrix(.21100518878 0 0 .21100518878 53.19183419236 -.32534703527)"/><path d="m-36.781609 204.98085c0 9.94536-8.062305 18.00766-18.007663 18.00766s-18.007664-8.0623-18.007664-18.00766 8.062306-18.00766 18.007664-18.00766 18.007663 8.0623 18.007663 18.00766z" fill="#2e3436" transform="matrix(.10106040817 0 0 .10106040817 47.16804055964 22.21123258331)"/><path d="m-36.781609 204.98085c0 9.94536-8.062305 18.00766-18.007663 18.00766s-18.007664-8.0623-18.007664-18.00766 8.062306-18.00766 18.007664-18.00766 18.007663 8.0623 18.007663 18.00766z" fill="#eeeeec" transform="matrix(.07151964993 0 0 .07151964993 46.53745081352 27.12660573302)"/><path d="m-36.781609 204.98085c0 9.94536-8.062305 18.00766-18.007663 18.00766s-18.007664-8.0623-18.007664-18.00766 8.062306-18.00766 18.007664-18.00766 18.007663 8.0623 18.007663 18.00766z" fill="#eeeeec" transform="matrix(.36292891455 0 0 .36292891455 76.29673124897 -31.466799215)"/><path d="m-36.781609 204.98085c0 9.94536-8.062305 18.00766-18.007663 18.00766s-18.007664-8.0623-18.007664-18.00766 8.062306-18.00766 18.007664-18.00766 18.007663 8.0623 18.007663 18.00766z" fill="#3465a4" transform="matrix(.21100518878 0 0 .21100518878 65.92980588006 -.32534703527)"/><path d="m-36.781609 204.98085c0 9.94536-8.062305 18.00766-18.007663 18.00766s-18.007664-8.0623-18.007664-18.00766 8.062306-18.00766 18.007664-18.00766 18.007663 8.0623 18.007663 18.00766z" fill="#2e3436" transform="matrix(.10106040817 0 0 .10106040817 59.90601224734 22.21123258331)"/><path d="m-36.781609 204.98085c0 9.94536-8.062305 18.00766-18.007663 18.00766s-18.007664-8.0623-18.007664-18.00766 8.062306-18.00766 18.007664-18.00766 18.007663 8.0623 18.007663 18.00766z" fill="#eeeeec" transform="matrix(.07151964993 0 0 .07151964993 59.27542250122 27.12660573302)"/></svg>