<svg height="96" width="96" xmlns="http://www.w3.org/2000/svg" xmlns:xlink="http://www.w3.org/1999/xlink"><linearGradient id="a" gradientUnits="userSpaceOnUse" x1="36.357143" x2="36.357143" y1="6" y2="63.893143"><stop offset="0" stop-color="#fefefe"/><stop offset="1" stop-color="#fefefe" stop-opacity="0"/></linearGradient><linearGradient id="b" gradientUnits="userSpaceOnUse" x1="48" x2="48" y1="90" y2="5.987717"><stop offset="0" stop-color="#083e76"/><stop offset="1" stop-color="#0074de"/></linearGradient><linearGradient id="c" gradientTransform="matrix(1.0058652 0 0 .994169 100 0)" gradientUnits="userSpaceOnUse" x1="45.447727" x2="45.447727" y1="92.539597" y2="7.01654"><stop offset="0"/><stop offset="1" stop-opacity=".588235"/></linearGradient><linearGradient id="d" gradientTransform="matrix(1.0238095 0 0 1.0119048 -1.142857 -98.071429)" gradientUnits="userSpaceOnUse" x1="32.251034" x2="32.251034" xlink:href="#c" y1="6.131708" y2="90.238609"/><linearGradient id="e" gradientTransform="translate(0 -97)" gradientUnits="userSpaceOnUse" x1="32.251034" x2="32.251034" xlink:href="#c" y1="6.131708" y2="90.238609"/><linearGradient id="f" gradientUnits="userSpaceOnUse" x1="6" x2="90" y1="48.171875" y2="48.171875"><stop offset="0" stop-color="#06b5ff"/><stop offset="1" stop-color="#0ff" stop-opacity="0"/></linearGradient><g><g fill="url(#d)"><path d="m12-95.03125c-5.5110903 0-10.03125 4.52016-10.03125 10.03125v71c0 5.5110902 4.5201598 10.03125 10.03125 10.03125h72c5.51109 0 10.03125-4.5201597 10.03125-10.03125v-71c0-5.51109-4.52016-10.03125-10.03125-10.03125z" opacity=".08" transform="scale(1 -1)"/><path d="m12-94.03125c-4.971633 0-9.03125 4.059617-9.03125 9.03125v71c0 4.9716329 4.0596171 9.03125 9.03125 9.03125h72c4.971633 0 9.03125-4.059617 9.03125-9.03125v-71c0-4.971633-4.059617-9.03125-9.03125-9.03125z" opacity=".1" transform="scale(1 -1)"/><path d="m12-93c-4.4091333 0-8 3.590867-8 8v71c0 4.4091333 3.5908667 8 8 8h72c4.409133 0 8-3.5908667 8-8v-71c0-4.409133-3.590867-8-8-8z" opacity=".2" transform="scale(1 -1)"/><rect height="85" opacity=".3" rx="7" transform="scale(1 -1)" width="86" x="5" y="-92"/></g><rect fill="url(#e)" height="84" opacity=".45" rx="6" transform="scale(1 -1)" width="84" x="6" y="-91"/></g><rect fill="url(#b)" height="84" rx="6" width="84" x="6" y="6"/><path d="m12 6c-3.324 0-6 2.676-6 6v2 68 2c0 .334721.04135.6507.09375.96875.0487.295596.09704.596915.1875.875.00988.03038.020892.0636.03125.09375.098865.287771.2348802.547452.375.8125.1445918.273507.3156161.535615.5.78125s.3737765.473472.59375.6875c.439947.428056.94291.814526 1.5 1.09375.278545.139612.5734731.246947.875.34375-.2562018-.100222-.4867109-.236272-.71875-.375-.00741-.0044-.023866.0045-.03125 0-.031933-.0193-.062293-.04251-.09375-.0625-.120395-.0767-.2310226-.163513-.34375-.25-.1061728-.0808-.2132809-.161112-.3125-.25-.1779299-.161433-.3474596-.345388-.5-.53125-.1075789-.130255-.2183939-.265285-.3125-.40625-.025089-.03838-.038446-.08587-.0625-.125-.064763-.103032-.1302275-.204517-.1875-.3125-.1010083-.194706-.2056748-.415701-.28125-.625-.00796-.02181-.023589-.04055-.03125-.0625-.0318251-.09195-.0358045-.186831-.0625-.28125-.0303323-.106618-.0703894-.203031-.09375-.3125-.0728786-.341512-.125-.698205-.125-1.0625v-2-68-2c0-2.781848 2.2181517-5 5-5h2 68 2c2.781848 0 5 2.218152 5 5v2 68 2c0 .364295-.05212.720988-.125 1.0625-.04415.206893-.08838.397658-.15625.59375-.0077.02195-.0233.04069-.03125.0625-.06274.173739-.138383.367449-.21875.53125-.04158.0828-.07904.169954-.125.25-.0546.09721-.126774.18835-.1875.28125-.09411.140965-.204921.275995-.3125.40625-.143174.17445-.303141.346998-.46875.5-.01117.0102-.01998.02115-.03125.03125-.138386.125556-.285091.234436-.4375.34375-.102571.07315-.204318.153364-.3125.21875-.0074.0045-.02384-.0044-.03125 0-.232039.138728-.462548.274778-.71875.375.301527-.0968.596455-.204138.875-.34375.55709-.279224 1.060053-.665694 1.5-1.09375.219973-.214028.409366-.441865.59375-.6875s.355408-.507743.5-.78125c.14012-.265048.276135-.524729.375-.8125.01041-.03078.02133-.06274.03125-.09375.09046-.278085.1388-.579404.1875-.875.0524-.31805.09375-.634029.09375-.96875v-2-68-2c0-3.324-2.676-6-6-6z" fill="url(#a)" opacity=".35"/><path d="m12 90c-3.324 0-6-2.676-6-6v-2-68-2c0-.334721.04135-.6507.09375-.96875.0487-.295596.09704-.596915.1875-.875.00988-.03038.020892-.0636.03125-.09375.098865-.287771.2348802-.547452.375-.8125.1445918-.273507.3156161-.535615.5-.78125s.3737765-.473472.59375-.6875c.439947-.428056.94291-.814526 1.5-1.09375.278545-.139612.5734731-.246947.875-.34375-.2562018.100222-.4867109.236272-.71875.375-.00741.0044-.023866-.0045-.03125 0-.031933.0193-.062293.04251-.09375.0625-.120395.0767-.2310226.163513-.34375.25-.1061728.0808-.2132809.161112-.3125.25-.1779299.161433-.3474596.345388-.5.53125-.1075789.130255-.2183939.265285-.3125.40625-.025089.03838-.038446.08587-.0625.125-.064763.103032-.1302275.204517-.1875.3125-.1010083.194706-.2056748.415701-.28125.625-.00796.02181-.023589.04055-.03125.0625-.0318251.09195-.0358045.186831-.0625.28125-.0303323.106618-.0703894.203031-.09375.3125-.0728786.341512-.125.698205-.125 1.0625v2 68 2c0 2.781848 2.2181517 5 5 5h2 68 2c2.781848 0 5-2.218152 5-5v-2-68-2c0-.364295-.05212-.720988-.125-1.0625-.04415-.206893-.08838-.397658-.15625-.59375-.0077-.02195-.0233-.04069-.03125-.0625-.06274-.173739-.138383-.367449-.21875-.53125-.04158-.0828-.07904-.169954-.125-.25-.0546-.09721-.126774-.18835-.1875-.28125-.09411-.140965-.204921-.275995-.3125-.40625-.143174-.17445-.303141-.346998-.46875-.5-.01117-.0102-.01998-.02115-.03125-.03125-.138386-.125556-.285091-.234436-.4375-.34375-.102571-.07315-.204318-.153364-.3125-.21875-.0074-.0045-.02384.0044-.03125 0-.232039-.138728-.462548-.274778-.71875-.375.301527.0968.596455.204138.875.34375.55709.279224 1.060053.665694 1.5 1.09375.219973.214028.409366.441865.59375.6875s.355408.507743.5.78125c.14012.265048.276135.524729.375.8125.01041.03078.02133.06274.03125.09375.09046.278085.1388.579404.1875.875.0524.31805.09375.634029.09375.96875v2 68 2c0 3.324-2.676 6-6 6z" fill="url(#f)" opacity=".213"/><g fill="#fefefe" stroke-width=".300173" transform="translate(-92.619003 -7.478553)"><path d="m164.30082 53.092474c-1.06978-.708967-2.34599-1.45579-3.20841-2.183582-.40934-.381575-.30843-1.017408 1.48242-2.774803l1.87608-1.84104v-7.072472-7.072472l-5.85337.0067-5.85336.0067c-5.85973 6.213568-12.88947 13.534661-17.86027 18.29711-.32378.372404-.89612.571024-1.35663-.05876-.27708-.378932-.29095-.742134-.0542-1.421138 4.0253-8.655691 11.94144-17.033238 18.18426-25.01033.26896-.480996 1.13276-.532621 10.24133-.612073l9.94761-.08677.72469.687116.7247.687116.005 10.14298c.006 11.792535.28183 11.128078-3.82611 14.986581-1.54257 1.448907-2.85082 2.787459-3.1547 3.01162-.44412.327607-1.10316.654175-2.01918.307503z"/><path d="m143.23237 80.364642c.70897-1.06978 1.45579-2.34599 2.18358-3.20841.38158-.40934 1.01741-.30843 2.77481 1.48242l1.84104 1.87608h7.07247 7.07247l-.007-5.85337-.007-5.85336c-6.21357-5.85973-13.53466-12.88947-18.29711-17.86027-.3724-.32378-.57102-.89612.0588-1.35663.37893-.27708.74213-.29095 1.42114-.0542 8.65569 4.0253 17.03324 11.94144 25.01033 18.18426.48099.26896.53262 1.13276.61207 10.24133l.0868 9.94761-.68712.72469-.68711.7247-10.14298.005c-11.79254.006-11.12808.28183-14.98658-3.82611-1.44891-1.54257-2.78746-2.85082-3.01162-3.1547-.32761-.44412-.65418-1.10316-.30751-2.01918z"/><path d="m116.8052 59.537845c1.06978.708967 2.34599 1.45579 3.20841 2.183582.40934.381575.30843 1.017408-1.48242 2.774803l-1.87608 1.84104v7.072472 7.072472l5.85337-.0067 5.85336-.0067c5.85973-6.213568 12.88947-13.534661 17.86027-18.29711.32378-.372404.89612-.571024 1.35663.05876.27708.378932.29095.742134.0542 1.421138-4.0253 8.655691-11.94144 17.033238-18.18426 25.01033-.26896.480996-1.13276.532621-10.24133.612073l-9.94761.08677-.72469-.687116-.7247-.687116-.005-10.14298c-.006-11.792535-.28183-11.128078 3.82611-14.986581 1.54257-1.448907 2.85082-2.787459 3.1547-3.01162.44412-.327607 1.10316-.654175 2.01918-.307503z"/><path d="m137.65813 31.505327c-.70897 1.069781-1.45579 2.345991-2.18359 3.208411-.38157.40934-1.0174.30843-2.7748-1.48242l-1.84104-1.876081h-7.07247-7.07247l.007 5.853371.007 5.85336c6.21357 5.85973 13.53466 12.88947 18.29711 17.86027.3724.32378.57102.89612-.0588 1.35663-.37893.27708-.74214.29095-1.42114.0542-8.65569-4.0253-17.03324-11.94144-25.01033-18.18426-.481-.26896-.53262-1.13276-.61207-10.24133l-.0868-9.947611.68711-.724692.68712-.7247 10.14298-.005c11.79253-.006 11.12808-.28183 14.98658 3.826112 1.44891 1.54257 2.78746 2.85082 3.01162 3.1547.32761.44412.65417 1.10316.3075 2.01918z"/></g></svg>