<svg height="96" width="96" xmlns="http://www.w3.org/2000/svg" xmlns:xlink="http://www.w3.org/1999/xlink"><linearGradient id="a"><stop offset="0" stop-color="#fefefe"/><stop offset="1" stop-color="#fefefe" stop-opacity="0"/></linearGradient><radialGradient id="b" cx="47.705711" cy="11.684797" gradientTransform="matrix(1.5318607 .01179551 -.01375286 1.7860579 -25.007689 -10.949037)" gradientUnits="userSpaceOnUse" r="43.796337"><stop offset="0" stop-color="#fefefe"/><stop offset="1" stop-color="#3e9f30"/></radialGradient><linearGradient id="c" gradientTransform="matrix(1.0427699 0 0 1.054221 -2.142849 -4.369209)" gradientUnits="userSpaceOnUse" x1="47.590405" x2="47.686291" xlink:href="#a" y1="9.014712" y2="18.494488"/><linearGradient id="d" gradientTransform="translate(0 -97)" gradientUnits="userSpaceOnUse" x1="32.251034" x2="32.251034" xlink:href="#g" y1="6.131708" y2="90.238609"/><linearGradient id="e" gradientTransform="matrix(1.0238095 0 0 1.0119048 -1.142857 -98.071429)" gradientUnits="userSpaceOnUse" x1="32.251034" x2="32.251034" xlink:href="#g" y1="6.131708" y2="90.238609"/><linearGradient id="f" gradientTransform="matrix(1.0238095 0 0 -1.0014732 -1.142857 98.040088)" gradientUnits="userSpaceOnUse" x1="32.251034" x2="32.251034" xlink:href="#g" y1="6.131708" y2="90.238609"/><linearGradient id="g" gradientTransform="matrix(1.0058652 0 0 .994169 100 0)" gradientUnits="userSpaceOnUse" x1="45.447727" x2="45.447727" y1="92.539597" y2="7.01654"><stop offset="0"/><stop offset="1" stop-opacity=".588235"/></linearGradient><g transform="matrix(.95833329 0 0 .95779044 2.076183 3.174127)"><g transform="matrix(1.0427699 0 0 1.054221 -2.142849 -4.180647)"><path d="m12 95.03125c-5.5110903 0-10.03125-4.473562-10.03125-9.927839v-70.268067c0-5.4542771 4.5201598-9.9278389 10.03125-9.9278389h72c5.51109 0 10.03125 4.4735617 10.03125 9.9278389v70.268067c0 5.454277-4.52016 9.927839-10.03125 9.927839z" fill="url(#f)" opacity=".08"/><g fill="url(#e)"><path d="m12-94.03125c-4.971633 0-9.03125 4.059617-9.03125 9.03125v71c0 4.9716329 4.0596171 9.03125 9.03125 9.03125h72c4.971633 0 9.03125-4.059617 9.03125-9.03125v-71c0-4.971633-4.059617-9.03125-9.03125-9.03125z" opacity=".1" transform="scale(1 -1)"/><path d="m12-93c-4.4091333 0-8 3.590867-8 8v71c0 4.4091333 3.5908667 8 8 8h72c4.409133 0 8-3.5908667 8-8v-71c0-4.409133-3.590867-8-8-8z" opacity=".2" transform="scale(1 -1)"/><rect height="85" opacity=".3" rx="7" transform="scale(1 -1)" width="86" x="5" y="-92"/></g><rect fill="url(#d)" height="84" opacity=".45" rx="6" transform="scale(1 -1)" width="84" x="6" y="-91"/></g><rect fill="url(#b)" height="88.554565" rx="6.25662" ry="6.325326" width="87.592674" x="4.113771" y="1.956117"/><g fill-opacity=".566845" opacity=".557143" transform="matrix(1.1275168 0 0 1.645832 -126.48322 -60.124922)"><g transform="matrix(.343204926 0 0 .41504865753 130.1480744 26.90845908528)"><path d="m-34.268661 31.908115h19.26866v19.091883h-19.26866z" fill="#b6e7af"/><path d="m-34.268661 51h19.26866v19.091883h-19.26866z" fill="#fefefe"/></g><g transform="matrix(.389233104 0 0 .44521545983 130.8384974 41.79401353762)"><path d="m-34.268661 31.908115h19.26866v19.091883h-19.26866z" fill="#b6e7af"/><path d="m-34.268661 51h19.26866v19.091883h-19.26866z" fill="#fefefe"/></g><g transform="matrix(-.389233104 0 0 -.44521545983 119.1615026 70.20598930238)"><path d="m-34.268661 31.908115h19.26866v19.091883h-19.26866z" fill="#b6e7af"/><path d="m-34.268661 51h19.26866v19.091883h-19.26866z" fill="#fefefe"/></g><g transform="matrix(.343204926 0 0 .41339112335 130.1480744 59.80947299215)"><path d="m-34.268661 31.908115h19.26866v19.091883h-19.26866z" fill="#b6e7af"/><path d="m-34.268661 51h19.26866v19.091883h-19.26866z" fill="#fefefe"/></g><g transform="matrix(-.389233104 0 0 -.44521545983 119.1615026 87.20599173238)"><path d="m-34.268661 31.908115h19.26866v19.091883h-19.26866z" fill="#b6e7af"/><path d="m-34.268661 51h19.26866v19.091883h-19.26866z" fill="#fefefe"/></g><g transform="matrix(-.389233104 0 0 -.44521545983 119.1615026 104.20600028238)"><path d="m-34.268661 31.908115h19.26866v19.091883h-19.26866z" fill="#b6e7af"/><path d="m-34.268661 51h19.26866v19.091883h-19.26866z" fill="#fefefe"/></g><g transform="matrix(.389233104 0 0 .44521545983 145.8384974 24.79400978762)"><path d="m-34.268661 31.908115h19.26866v19.091883h-19.26866z" fill="#b6e7af"/><path d="m-34.268661 51h19.26866v19.091883h-19.26866z" fill="#fefefe"/></g><g transform="matrix(.389233104 0 0 .44521545983 145.8384974 41.79401153762)"><path d="m-34.268661 31.908115h19.26866v19.091883h-19.26866z" fill="#b6e7af"/><path d="m-34.268661 51h19.26866v19.091883h-19.26866z" fill="#fefefe"/></g><g transform="matrix(-.389233104 0 0 -.44521545983 134.1615026 70.20598730238)"><path d="m-34.268661 31.908115h19.26866v19.091883h-19.26866z" fill="#b6e7af"/><path d="m-34.268661 51h19.26866v19.091883h-19.26866z" fill="#fefefe"/></g><g transform="matrix(.389233104 0 0 .44521545983 145.8384974 58.79401668762)"><path d="m-34.268661 31.908115h19.26866v19.091883h-19.26866z" fill="#b6e7af"/><path d="m-34.268661 51h19.26866v19.091883h-19.26866z" fill="#fefefe"/></g><g transform="matrix(-.389233104 0 0 -.44521545983 134.1615026 87.20598973238)"><path d="m-34.268661 31.908115h19.26866v19.091883h-19.26866z" fill="#b6e7af"/><path d="m-34.268661 51h19.26866v19.091883h-19.26866z" fill="#fefefe"/></g><g transform="matrix(-.389233104 0 0 -.44521545983 134.1615026 104.20599828238)"><path d="m-34.268661 31.908115h19.26866v19.091883h-19.26866z" fill="#b6e7af"/><path d="m-34.268661 51h19.26866v19.091883h-19.26866z" fill="#fefefe"/></g><g transform="matrix(.389233104 0 0 .44521545983 160.8384974 24.79400378762)"><path d="m-34.268661 31.908115h19.26866v19.091883h-19.26866z" fill="#b6e7af"/><path d="m-34.268661 51h19.26866v19.091883h-19.26866z" fill="#fefefe"/></g><g transform="matrix(.389233104 0 0 .44521545983 160.8384974 41.79400553762)"><path d="m-34.268661 31.908115h19.26866v19.091883h-19.26866z" fill="#b6e7af"/><path d="m-34.268661 51h19.26866v19.091883h-19.26866z" fill="#fefefe"/></g><g transform="matrix(-.389233104 0 0 -.44521545983 149.1615026 70.20598130238)"><path d="m-34.268661 31.908115h19.26866v19.091883h-19.26866z" fill="#b6e7af"/><path d="m-34.268661 51h19.26866v19.091883h-19.26866z" fill="#fefefe"/></g><g transform="matrix(.389233104 0 0 .44521545983 160.8384974 58.79401068762)"><path d="m-34.268661 31.908115h19.26866v19.091883h-19.26866z" fill="#b6e7af"/><path d="m-34.268661 51h19.26866v19.091883h-19.26866z" fill="#fefefe"/></g><g transform="matrix(-.389233104 0 0 -.44521545983 149.1615026 87.20598373238)"><path d="m-34.268661 31.908115h19.26866v19.091883h-19.26866z" fill="#b6e7af"/><path d="m-34.268661 51h19.26866v19.091883h-19.26866z" fill="#fefefe"/></g><g transform="matrix(-.389233104 0 0 -.44521545983 149.1615026 104.20599228238)"><path d="m-34.268661 31.908115h19.26866v19.091883h-19.26866z" fill="#b6e7af"/><path d="m-34.268661 51h19.26866v19.091883h-19.26866z" fill="#fefefe"/></g><g transform="matrix(.389233104 0 0 .44521545983 175.8384974 24.79399978762)"><path d="m-34.268661 31.908115h19.26866v19.091883h-19.26866z" fill="#b6e7af"/><path d="m-34.268661 51h19.26866v19.091883h-19.26866z" fill="#fefefe"/></g><g transform="matrix(.389233104 0 0 .44521545983 175.8384974 41.79400153762)"><path d="m-34.268661 31.908115h19.26866v19.091883h-19.26866z" fill="#b6e7af"/><path d="m-34.268661 51h19.26866v19.091883h-19.26866z" fill="#fefefe"/></g><g transform="matrix(-.389233104 0 0 -.44521545983 164.1615026 70.20597730238)"><path d="m-34.268661 31.908115h19.26866v19.091883h-19.26866z" fill="#b6e7af"/><path d="m-34.268661 51h19.26866v19.091883h-19.26866z" fill="#fefefe"/></g><g transform="matrix(.389233104 0 0 .44521545983 175.8384974 58.79400668762)"><path d="m-34.268661 31.908115h19.26866v19.091883h-19.26866z" fill="#b6e7af"/><path d="m-34.268661 51h19.26866v19.091883h-19.26866z" fill="#fefefe"/></g><g transform="matrix(-.389233104 0 0 -.44521545983 164.1615026 87.20597973238)"><path d="m-34.268661 31.908115h19.26866v19.091883h-19.26866z" fill="#b6e7af"/><path d="m-34.268661 51h19.26866v19.091883h-19.26866z" fill="#fefefe"/></g><g transform="matrix(-.389233104 0 0 -.44521545983 164.1615026 104.20598828238)"><path d="m-34.268661 31.908115h19.26866v19.091883h-19.26866z" fill="#b6e7af"/><path d="m-34.268661 51h19.26866v19.091883h-19.26866z" fill="#fefefe"/></g><g transform="matrix(.389233104 0 0 .44521545983 190.3384974 24.79402578762)"><path d="m-34.268661 31.908115h19.26866v19.091883h-19.26866z" fill="#b6e7af"/><path d="m-34.268661 51h19.26866v19.091883h-19.26866z" fill="#fefefe"/></g><g transform="matrix(.389233104 0 0 .44521545983 190.3384974 41.79402753762)"><path d="m-34.268661 31.908115h19.26866v19.091883h-19.26866z" fill="#b6e7af"/><path d="m-34.268661 51h19.26866v19.091883h-19.26866z" fill="#fefefe"/></g><g transform="matrix(-.389233104 0 0 -.44521545983 178.6615026 70.20600330238)"><path d="m-34.268661 31.908115h19.26866v19.091883h-19.26866z" fill="#b6e7af"/><rect fill="#fefefe" height="16.447802" rx="0" ry="1.237" width="16.990051" x="-31.990053" y="51"/></g><g transform="matrix(.389233104 0 0 .44521545983 190.3384974 58.79403268762)"><path d="m-34.268661 31.908115h19.26866v19.091883h-19.26866z" fill="#b6e7af"/><path d="m-34.268661 51h19.26866v19.091883h-19.26866z" fill="#fefefe"/></g><g transform="matrix(-.389233104 0 0 -.44521545983 178.6615026 87.20600573238)"><path d="m-34.268661 31.908115h19.26866v19.091883h-19.26866z" fill="#b6e7af"/><path d="m-34.268661 51h19.26866v19.091883h-19.26866z" fill="#fefefe"/></g><g transform="matrix(-.389233104 0 0 -.44521545983 178.6615026 104.20601428238)"><path d="m-29.711458 34.637566h14.711456v16.362432h-14.711456z" fill="#b6e7af"/><path d="m-34.268661 51h19.26866v19.091883h-19.26866z" fill="#fefefe"/></g></g><g transform="matrix(1 0 0 .992868 43.377679 .07337)"><rect fill-opacity=".513369" height="24.786427" rx=".213914" ry="0" transform="scale(-1 1)" width="3.105076" x="-39.594303" y="10.110416"/><rect fill-opacity=".26738" height="24.786427" rx=".14535" ry="0" width="2.109836" x="39.594303" y="10.110416"/><rect fill-opacity=".117647" height="24.786427" rx=".153022" ry="0" transform="scale(-1 1)" width="2.221193" x="-43.925331" y="10.110416"/><rect fill-opacity=".032086" height="24.786427" rx=".163618" ry="0" width="2.375001" x="43.925331" y="10.110416"/></g><g transform="matrix(-1 0 0 .992868 52.274579 .250147)"><rect fill-opacity=".513369" height="24.786427" rx=".213914" ry="0" transform="scale(-1 1)" width="3.105076" x="-39.594303" y="10.110416"/><rect fill-opacity=".26738" height="24.786427" rx=".14535" ry="0" width="2.109836" x="39.594303" y="10.110416"/><rect fill-opacity=".117647" height="24.786427" rx=".153022" ry="0" transform="scale(-1 1)" width="2.221193" x="-43.925331" y="10.110416"/><rect fill-opacity=".032086" height="24.786427" rx=".163618" ry="0" width="2.375001" x="43.925331" y="10.110416"/></g><g transform="matrix(1 0 0 .87875607 1.835155 52.378055)"><rect fill-opacity=".513369" height="24.786427" rx=".213914" ry="0" transform="scale(-1 1)" width="3.105076" x="-39.594303" y="10.110416"/><rect fill-opacity=".26738" height="24.786427" rx=".14535" ry="0" width="2.109836" x="39.594303" y="10.110416"/><rect fill-opacity=".117647" height="24.786427" rx=".153022" ry="0" transform="scale(-1 1)" width="2.221193" x="-43.925331" y="10.110416"/><rect fill-opacity=".032086" height="24.786427" rx=".163618" ry="0" width="2.375001" x="43.925331" y="10.110416"/></g><g transform="matrix(-1 0 0 .85871174 92.870719 53.13868)"><rect fill-opacity=".513369" height="24.786427" rx=".213914" ry="0" transform="scale(-1 1)" width="3.105076" x="-39.594303" y="10.110416"/><rect fill-opacity=".26738" height="24.786427" rx=".14535" ry="0" width="2.109836" x="39.594303" y="10.110416"/><rect fill-opacity=".117647" height="24.786427" rx=".153022" ry="0" transform="scale(-1 1)" width="2.221193" x="-43.925331" y="10.110416"/><rect fill-opacity=".032086" height="24.786427" rx=".163618" ry="0" width="2.375001" x="43.925331" y="10.110416"/></g><g transform="matrix(1 0 0 1.4563989 34.909533 32.280223)"><rect fill-opacity=".513369" height="24.786427" rx=".213914" ry="0" transform="scale(-1 1)" width="3.105076" x="-39.594303" y="10.110416"/><rect fill-opacity=".26738" height="24.786427" rx=".14535" ry="0" width="2.109836" x="39.594303" y="10.110416"/><rect fill-opacity=".117647" height="24.786427" rx=".153022" ry="0" transform="scale(-1 1)" width="2.221193" x="-43.925331" y="10.110416"/><rect fill-opacity=".032086" height="24.786427" rx=".163618" ry="0" width="2.375001" x="43.925331" y="10.110416"/></g><g transform="translate(21.75 25.25)"><rect fill-opacity=".513369" height="24.786427" rx=".213914" ry="0" transform="scale(-1 1)" width="3.105076" x="-39.594303" y="10.110416"/><rect fill-opacity=".26738" height="24.786427" rx=".14535" ry="0" width="2.109836" x="39.594303" y="10.110416"/><rect fill-opacity=".117647" height="24.786427" rx=".153022" ry="0" transform="scale(-1 1)" width="2.221193" x="-43.925331" y="10.110416"/><rect fill-opacity=".032086" height="24.786427" rx=".163618" ry="0" width="2.375001" x="43.925331" y="10.110416"/></g><g transform="matrix(-1 0 0 1 73.664559 24.75)"><rect fill-opacity=".513369" height="24.786427" rx=".213914" ry="0" transform="scale(-1 1)" width="3.105076" x="-39.594303" y="10.110416"/><rect fill-opacity=".26738" height="24.786427" rx=".14535" ry="0" width="2.109836" x="39.594303" y="10.110416"/><rect fill-opacity=".117647" height="24.786427" rx=".153022" ry="0" transform="scale(-1 1)" width="2.221193" x="-43.925331" y="10.110416"/><rect fill-opacity=".032086" height="24.786427" rx=".163618" ry="0" width="2.375001" x="43.925331" y="10.110416"/></g><g transform="matrix(-1 0 0 1 95.414559 .125)"><rect fill-opacity=".513369" height="24.786427" rx=".213914" ry="0" transform="scale(-1 1)" width="3.105076" x="-39.594303" y="10.110416"/><rect fill-opacity=".26738" height="24.786427" rx=".14535" ry="0" width="2.109836" x="39.594303" y="10.110416"/><rect fill-opacity=".117647" height="24.786427" rx=".153022" ry="0" transform="scale(-1 1)" width="2.221193" x="-43.925331" y="10.110416"/><rect fill-opacity=".032086" height="24.786427" rx=".163618" ry="0" width="2.375001" x="43.925331" y="10.110416"/></g><rect fill-opacity=".513369" height="24.786427" rx=".213914" ry="0" transform="scale(-1 1)" width="3.105076" x="-39.594303" y="10.110416"/><g fill="#fefefe"><rect fill-opacity=".839572" height="32.130466" rx="1.054459" ry="0" width="15.306034" x="56.401024" y="50.995167"/><rect fill-opacity=".839572" height="32.880466" rx="1.058764" ry="0" width="15.368534" x="23.026024" y="50.120167"/><rect fill-opacity=".786096" height="31.643028" rx="1.463503" ry="0" width="21.243534" x="37.019554" y="35.711788"/></g><path d="m10.37039 1.9561168c-3.466167 0-6.2566193 2.8210954-6.2566193 6.325326v2.1084422 71.687028 2.108442c0 .35287.043119.685981.09776 1.021276.050783.311624.1011904.629281.1955193.922444.010303.03203.021786.06705.032587.09883.1030934.303374.244926.577135.3910387.856555.150776.288336.329115.564656.521385.82361.1922699.258953.3897628.499144.6191446.724777.4587635.451265.9832382.85869 1.5641548 1.153054.2904584.147182.5980005.260337.9124237.362388-.2671595-.105656-.5075275-.249083-.7494909-.395333-.00773-.0046-.024887.0047-.032586 0-.033299-.02035-.064957-.04481-.09776-.06589-.1255452-.080854-.2409043-.172374-.3584531-.263551-.1107138-.085181-.2224029-.169847-.3258656-.263555-.1855399-.170186-.3623204-.364115-.5213849-.560055-.11218-.137317-.2277346-.279669-.3258656-.428277-.0261621-.040461-.0400903-.090526-.0651731-.131778-.0675329-.108618-.1357973-.215606-.1955194-.329444-.1053284-.205263-.2144715-.43824-.293279-.658888-.0083-.02299-.024598-.04275-.032587-.06589-.033186-.09694-.037336-.196961-.065173-.296499-.03163-.112399-.0734-.21404-.09776-.329444-.075996-.36003-.1303462-.736063-.1303462-1.12011v-2.108442-71.687028-2.1084422c0-2.9326826 2.3130218-5.271105 5.213849-5.271105h2.08554 70.908353 2.08554c2.900827 0 5.213849 2.3384224 5.213849 5.271105v2.1084422 71.687028 2.108442c0 .384047-.05435.76008-.130346 1.12011-.04604.218111-.09216.419219-.162933.625943-.008.02314-.0243.0429-.03259.06589-.06542.183159-.144302.387373-.228106.560055-.04336.08729-.08242.179169-.130346.263555-.05694.102481-.132196.198563-.19552.2965-.09813.148608-.213685.29096-.325865.428277-.149298.183909-.316107.365813-.488799.527111-.01165.01075-.02083.0223-.03259.03294-.144305.132364-.297285.247147-.456212.362389-.106958.07712-.213057.161679-.325866.23061-.0077.0047-.02486-.0046-.03259 0-.241964.14625-.482331.289677-.749491.395333.314423-.102048.621965-.215206.912424-.362388.580916-.294364 1.105391-.701789 1.564154-1.153054.229382-.225633.426875-.465824.619145-.724777.19227-.258954.370609-.535274.521385-.82361.146113-.27942.287945-.553181.391039-.856555.01085-.03245.02224-.06614.03259-.09883.09433-.293163.144737-.61082.19552-.922444.05464-.335295.09776-.668406.09776-1.021276v-2.108442-71.687028-2.1084422c0-3.5042306-2.790452-6.325326-6.256619-6.325326h-75.079433z" fill="url(#c)" opacity=".52381"/><path d="m10.37039 90.510681c-3.466167 0-6.2566193-2.821096-6.2566193-6.325326v-2.108442-71.687028-2.1084422c0-.3528699.043119-.6859816.09776-1.0212766.050783-.3116235.1011904-.6292803.1955193-.9224434.010303-.032027.021786-.067048.032587-.098833.1030927-.3033744.2449253-.5771356.391038-.8565548.150776-.2883368.329115-.5646565.521385-.8236101.1922699-.2589536.3897628-.4991441.6191446-.7247769.4587635-.4512657.9832382-.8586905 1.5641548-1.1530543.2904584-.1471819.5980005-.2603367.9124237-.3623884-.2671595.1056561-.5075275.2490829-.7494909.3953328-.00773.00464-.024887-.00474-.032586 0-.033299.020347-.064957.044815-.09776.065889-.1255445.0808586-.2409036.1723787-.3584524.2635551-.1107138.0851811-.2224029.1698477-.3258656.2635553-.1855399.170186-.3623204.3641152-.5213849.5600549-.11218.1373175-.2277346.279669-.3258656.4282772-.026162.040461-.04009.090526-.065173.1317777-.067533.1086185-.1357973.2156061-.1955194.329444-.1053284.2052632-.2144715.4382408-.293279.6588882-.0083.022993-.024598.042749-.032587.065889-.033186.096936-.037336.1969611-.065173.2964996-.03163.112399-.0734.2140396-.09776.3294441-.075996.3600291-.1303462.7360624-.1303462 1.1201098v2.108442 71.687028 2.108442c0 2.932682 2.3130218 5.271105 5.2138499 5.271105h2.08554 70.908353 2.085539c2.900828 0 5.213849-2.338423 5.213849-5.271105v-2.108442-71.687028-2.108442c0-.3840474-.05435-.7600807-.130346-1.1201098-.04604-.218111-.09216-.4192194-.162933-.6259437-.008-.02314-.0243-.042896-.03259-.065889-.065419-.1831593-.144297-.3873725-.228101-.5600549-.043358-.0872895-.082421-.1791691-.130346-.2635553-.056936-.1024808-.132196-.1985625-.19552-.2964997-.098135-.1486082-.213685-.2909597-.325865-.4282772-.149298-.1839089-.316107-.3658126-.488799-.5271105-.011647-.0107531-.020834-.0222968-.032586-.0329444-.144305-.1323638-.297285-.2471474-.456212-.3623885-.106958-.0771163-.213057-.1616796-.325866-.2306109-.0077-.00474-.02486.00464-.03259 0-.24196-.1462499-.482327-.2896767-.749487-.3953328.314423.1020486.621965.2152065.912424.3623884.580916.2943638 1.105391.7017886 1.564154 1.1530543.229382.2256328.426875.4658233.619145.7247769s.370609.5352733.521385.8236101c.146113.2794192.287945.5531804.391039.8565546.01085.032449.02224.066142.03259.098833.09433.2931631.144737.6108199.19552.9224434.05464.335295.09776.6684067.09776 1.0212766v2.1084424 71.687028 2.108442c0 3.50423-2.790452 6.325326-6.256619 6.325326h-75.079433z" fill="#fefefe" opacity=".165899"/><rect fill="#fefefe" fill-opacity=".823529" height="20.911427" rx="1.522306" ry="0" width="22.097088" x="15.629574" y="13.954165"/><rect fill="#fefefe" fill-opacity=".930481" height="9.762825" rx=".261045" ry="0" width="3.789214" x="14.668788" y="25.13402"/><rect height="21.036427" rx="1.522306" ry="0" width="22.097088" x="15.629574" y="10.079165"/><rect fill="#fefefe" fill-opacity=".946524" height="9.794344" rx=".247516" ry="0" width="3.592831" x="77.501419" y="25.111652"/><rect fill="#fefefe" fill-opacity=".834225" height="20.557873" rx="1.522306" ry="0" width="22.097088" x="58.254574" y="14.329165"/><rect height="31.643028" rx="1.497949" ry="0" width="21.743534" x="36.842777" y="30.585262"/><rect height="21.301592" rx="1.522306" ry="0" width="22.097088" x="58.232758" y="10.167554"/><rect height="32.526913" rx="1.06307" ry="0" width="15.431034" x="56.327431" y="46.973721"/><rect height="32.880466" rx="1.058764" ry="0" width="15.368534" x="23.026024" y="46.370167"/><rect fill-opacity=".26738" height="24.786427" rx=".14535" ry="0" width="2.109836" x="39.594303" y="10.110416"/><rect fill-opacity=".117647" height="24.786427" rx=".153022" ry="0" transform="scale(-1 1)" width="2.221193" x="-43.925331" y="10.110416"/><rect fill-opacity=".032086" height="24.786427" rx=".163618" ry="0" width="2.375001" x="43.925331" y="10.110416"/><g transform="matrix(-1 0 0 1.4841359 59.539559 31.292684)"><rect fill-opacity=".513369" height="24.786427" rx=".213914" ry="0" transform="scale(-1 1)" width="3.105076" x="-39.594303" y="10.110416"/><rect fill-opacity=".26738" height="24.786427" rx=".14535" ry="0" width="2.109836" x="39.594303" y="10.110416"/><rect fill-opacity=".117647" height="24.786427" rx=".153022" ry="0" transform="scale(-1 1)" width="2.221193" x="-43.925331" y="10.110416"/><rect fill-opacity=".032086" height="24.786427" rx=".163618" ry="0" width="2.375001" x="43.925331" y="10.110416"/></g></g></svg>