<svg height="96" width="96" xmlns="http://www.w3.org/2000/svg" xmlns:xlink="http://www.w3.org/1999/xlink"><linearGradient id="a"><stop offset="0" stop-color="#fefefe"/><stop offset="1" stop-color="#fefefe" stop-opacity="0"/></linearGradient><linearGradient id="b"><stop offset="0" stop-color="#5a5a5a"/><stop offset="1" stop-color="#737373"/></linearGradient><linearGradient id="c"><stop offset="0" stop-color="#e0d8b8"/><stop offset="1" stop-color="#b6a357"/></linearGradient><linearGradient id="d" gradientUnits="userSpaceOnUse" x1="36.357143" x2="36.357143" xlink:href="#a" y1="6" y2="63.893143"/><radialGradient id="e" cx="47.098362" cy="78.286942" gradientTransform="matrix(2.206273 0 -.00000002 1.3123934 -56.813483 -119.24409)" gradientUnits="userSpaceOnUse" r="38.957481" xlink:href="#b"/><radialGradient id="f" cx="48" cy="90.171875" gradientTransform="matrix(1.1573129 0 0 .99590774 -7.551021 .197132)" gradientUnits="userSpaceOnUse" r="42" xlink:href="#a"/><linearGradient id="g" gradientUnits="userSpaceOnUse" x1="48" x2="48" y1="90" y2="5.987717"><stop offset="0" stop-color="#b4b4b4"/><stop offset="1" stop-color="#e6e6e6"/></linearGradient><radialGradient id="h" cx="47.098362" cy="78.286942" gradientTransform="matrix(2.206273 0 -.00000002 1.3123934 -146.81348 75.781269)" gradientUnits="userSpaceOnUse" r="38.957481" xlink:href="#c"/><clipPath id="i"><path d="m14 108.25c-3.242433 0-5.84375 2.7675-5.84375 6.1875v66.15625c0 3.42 2.601317 6.1875 5.84375 6.1875h66.1875c3.242433 0 5.875-2.7675 5.875-6.1875v-66.15625c0-3.42-2.632567-6.1875-5.875-6.1875zm34 9.75c.604567 0 1.192865.015 1.78125.0312.01409.00015.04842-.00015.0625 0 8.345348.0889 12.216194.77855 16.875 2.03125 11.30171 2.57144 11.28125 7.59938 11.28125 23.93755 0 16.15961.02953 20.46537-11.28125 23.9375-4.658806 1.2527-8.529652 1.94235-16.875 2.03125-.01408.00015-.0484-.00015-.0625 0-.588385.0162-1.176682.03125-1.78125.03125s-1.192865-.015-1.78125-.0312c-.0141-.00015-.04842.00015-.0625 0-8.345348-.089-12.216194-.77855-16.875-2.03125-11.31078-3.47213-11.28125-7.77794-11.28125-23.93755 0-16.33817-.02046-21.36606 11.28125-23.9375 4.658806-1.2527 8.529652-1.94235 16.875-2.03125.01408-.00015.04841.00015.0625 0 .588385-.0162 1.176683-.03125 1.78125-.03125z"/></clipPath><radialGradient cx="47.098362" cy="78.286942" gradientTransform="matrix(2.206273 0 -.00000002 1.3123934 -56.813483 75.781269)" gradientUnits="userSpaceOnUse" r="38.957481" xlink:href="#c"/><filter id="j" color-interpolation-filters="sRGB" height="1.387692" width="1.336" x="-.168" y="-.193846"><feGaussianBlur stdDeviation="4.2000001"/></filter><linearGradient id="k" gradientUnits="userSpaceOnUse" x1="50.629463" x2="50.629463" xlink:href="#a" y1="81.089287" y2="74.654137"/><linearGradient id="l" gradientUnits="userSpaceOnUse" x1="48.17857" x2="48.17857" xlink:href="#b" y1="102.25" y2="109.839813"/><linearGradient id="m" gradientUnits="userSpaceOnUse" x1="49.384521" x2="49.384521" xlink:href="#a" y1="81.177032" y2="73.447845"/><linearGradient id="n" gradientUnits="userSpaceOnUse" x1="48.17857" x2="48.17857" xlink:href="#b" y1="72.25" y2="79.839813"/><linearGradient id="o" gradientUnits="userSpaceOnUse" x1="49.17857" x2="49.17857" xlink:href="#b" y1="72.25" y2="79.839813"/><linearGradient id="p" gradientUnits="userSpaceOnUse" x1="50.17857" x2="50.17857" xlink:href="#b" y1="72.25" y2="79.839813"/><linearGradient id="q" gradientUnits="userSpaceOnUse" x1="47.17857" x2="47.17857" xlink:href="#b" y1="72.25" y2="79.839813"/><linearGradient id="r" gradientUnits="userSpaceOnUse" x1="51.17857" x2="51.17857" xlink:href="#b" y1="72.25" y2="79.839813"/><linearGradient id="s" gradientUnits="userSpaceOnUse" x1="46.17857" x2="46.17857" xlink:href="#b" y1="72.25" y2="79.839813"/><linearGradient id="t" gradientUnits="userSpaceOnUse" x1="52.17857" x2="52.17857" xlink:href="#b" y1="72.25" y2="79.839813"/><linearGradient id="u"><stop offset="0" stop-color="#737373"/><stop offset="1" stop-color="#fefefe"/></linearGradient><linearGradient id="v" gradientUnits="userSpaceOnUse" x1="26.360342" x2="26.360342" xlink:href="#u" y1="103.13425" y2="108.67809"/><linearGradient id="w" gradientUnits="userSpaceOnUse" x1="26.360342" x2="26.360342" xlink:href="#u" y1="112.60857" y2="99.665756"/><linearGradient id="x" gradientUnits="userSpaceOnUse" x1="21.026215" x2="35.10936" y1="106.13716" y2="106.13716"><stop offset="0" stop-color="#3e3e3e"/><stop offset="1" stop-color="#bbb" stop-opacity="0"/></linearGradient><clipPath id="y"><path d="m138 78c-.60457 0-1.19286.01496-1.78125.03125-.0141.000146-.0484-.00015-.0625 0-8.34535.08895-12.21619.778548-16.875 2.03125-11.30171 2.571394-11.28125 7.599327-11.28125 23.9375 0 16.15961-.0295 20.46542 11.28125 23.9375 4.65881 1.2527 8.52965 1.9423 16.875 2.03125.0141.00015.0484-.00015.0625 0 .58839.0163 1.17668.0312 1.78125.0312s1.19286-.015 1.78125-.0312c.0141-.00015.0484.00015.0625 0 8.34535-.0889 12.21619-.77855 16.875-2.03125 11.31078-3.47208 11.28125-7.77789 11.28125-23.9375 0-16.338173.0205-21.366106-11.28125-23.9375-4.65881-1.252702-8.52965-1.9423-16.875-2.03125-.0141-.00015-.0484.000146-.0625 0-.58839-.01629-1.17668-.03125-1.78125-.03125z"/></clipPath><linearGradient id="z" gradientUnits="userSpaceOnUse" x1="43.9678" x2="43.9678" y1="17.683645" y2="69.870628"><stop offset="0" stop-color="#272727"/><stop offset="1" stop-color="#737373"/></linearGradient><filter id="A" color-interpolation-filters="sRGB" height="1.310154" width="1.2688" x="-.1344" y="-.155077"><feGaussianBlur stdDeviation="3.3599985"/></filter><linearGradient id="B" gradientTransform="matrix(.87558837 0 0 .51055244 5.971759 11.285693)" gradientUnits="userSpaceOnUse" x1="48.714283" x2="48.714283" xlink:href="#a" y1="16.321428" y2="77.289909"/><mask id="C"><path d="m537.271 48.946777-.0195-.23291v-.234375c0-22.16748-18.27539-40.2036132-40.74023-40.2036132h-.12695l-.12696-.00586c-35.87504-1.497558-73.8809-2.2202142-112.9805-2.1489252-39.07422-.0712891-77.08008.6513672-112.95606 2.1489258l-.12744.00586h-.12793c-6.18018 0-12.03906 1.371582-17.29248 3.8125006l281.46484 173.0625c1.9375-4.67774 3.01367-9.79102 3.01367-15.15039v-.23438l.0195-.23242c1.48632-19.39844 2.20898-39.67871 2.14843-60.3125.0605-20.596678-.66211-40.876952-2.14843-60.274413zm-41.01368 161.262693.12696-.004h.12695c6.51367 0 12.66992-1.52539 18.13672-4.21875l-87.15625 6.10742c23.56641-.33008 46.57422-.95703 68.76562-1.88477z" fill="url(#I)"/></mask><linearGradient id="D" gradientTransform="matrix(.08770011 0 0 .09059657 23.549657 33.644983)" gradientUnits="userSpaceOnUse" x1="175.30762" x2="175.30762" y1="73.254395" y2="180.6748"><stop offset="0" stop-color="#fefefe"/><stop offset=".99438202" stop-color="#dfdfdf"/></linearGradient><linearGradient id="E" gradientUnits="userSpaceOnUse" x1="58.53456055149" x2="58.53456055149" y1="32.786405" y2="53.61167500618"><stop offset=".005618" stop-color="#ed2828"/><stop offset=".5" stop-color="#ef3b39"/><stop offset=".99438202" stop-color="#c02126"/></linearGradient><linearGradient id="F" gradientTransform="matrix(1.0058652 0 0 .994169 100 0)" gradientUnits="userSpaceOnUse" x1="45.447727" x2="45.447727" y1="92.539597" y2="7.01654"><stop offset="0"/><stop offset="1" stop-opacity=".588235"/></linearGradient><linearGradient id="G" gradientTransform="matrix(1.0238095 0 0 1.0119048 -1.142857 -98.071429)" gradientUnits="userSpaceOnUse" x1="32.251034" x2="32.251034" xlink:href="#F" y1="6.131708" y2="90.238609"/><linearGradient id="H" gradientTransform="translate(0 -97)" gradientUnits="userSpaceOnUse" x1="32.251034" x2="32.251034" xlink:href="#F" y1="6.131708" y2="90.238609"/><linearGradient id="I" gradientUnits="userSpaceOnUse" x1="461.1333" x2="352.86621" y1="-18.515625" y2="169.00847"><stop offset=".005618" stop-color="#fefefe"/><stop offset=".0129151" stop-color="#f6f6f6"/><stop offset=".0527588" stop-color="#c8c8c8"/><stop offset=".097662" stop-color="#9d9d9d"/><stop offset=".1459223" stop-color="#777"/><stop offset=".1984525" stop-color="#575757"/><stop offset=".25650609" stop-color="#3b3b3b"/><stop offset=".32202971" stop-color="#252525"/><stop offset=".39857501" stop-color="#141414"/><stop offset=".49318269" stop-color="#090909"/><stop offset=".62592632" stop-color="#020202"/><stop offset=".99438202"/></linearGradient><g><g fill="url(#G)"><path d="m12-95.03125c-5.5110903 0-10.03125 4.52016-10.03125 10.03125v71c0 5.5110902 4.5201598 10.03125 10.03125 10.03125h72c5.51109 0 10.03125-4.5201597 10.03125-10.03125v-71c0-5.51109-4.52016-10.03125-10.03125-10.03125z" opacity=".08" transform="scale(1 -1)"/><path d="m12-94.03125c-4.971633 0-9.03125 4.059617-9.03125 9.03125v71c0 4.9716329 4.0596171 9.03125 9.03125 9.03125h72c4.971633 0 9.03125-4.059617 9.03125-9.03125v-71c0-4.971633-4.059617-9.03125-9.03125-9.03125z" opacity=".1" transform="scale(1 -1)"/><path d="m12-93c-4.4091333 0-8 3.590867-8 8v71c0 4.4091333 3.5908667 8 8 8h72c4.409133 0 8-3.5908667 8-8v-71c0-4.409133-3.590867-8-8-8z" opacity=".2" transform="scale(1 -1)"/><rect height="85" opacity=".3" rx="7" transform="scale(1 -1)" width="86" x="5" y="-92"/></g><rect fill="url(#H)" height="84" opacity=".45" rx="6" transform="scale(1 -1)" width="84" x="6" y="-91"/></g><rect fill="url(#e)" height="78.516495" rx="5.852768" ry="6.173287" transform="scale(1 -1)" width="77.914963" x="8.140881" y="-86.770927"/><path d="m48 18c-.60457 0-1.19286.01496-1.78125.03125-.0141.000146-.0484-.00015-.0625 0-8.34535.08895-12.21619.778548-16.875 2.03125-11.30171 2.571394-11.28125 7.599327-11.28125 23.9375 0 16.15961-.0295 20.46542 11.28125 23.9375 4.65881 1.2527 8.52965 1.9423 16.875 2.03125.0141.00015.0484-.00015.0625 0 .58839.0163 1.17668.0312 1.78125.0312s1.19286-.015 1.78125-.0312c.0141-.00015.0484.00015.0625 0 8.34535-.0889 12.21619-.77855 16.875-2.03125 11.31078-3.47208 11.28125-7.77789 11.28125-23.9375 0-16.338173.0205-21.366106-11.28125-23.9375-4.65881-1.252702-8.52965-1.9423-16.875-2.03125-.0141-.00015-.0484.000146-.0625 0-.58839-.01629-1.17668-.03125-1.78125-.03125z" fill="url(#z)"/><path clip-path="url(#i)" d="m48 118c-.604567 0-1.192865.015-1.78125.0312-.01409.00015-.04842-.00015-.0625 0-8.345348.0889-12.216194.77855-16.875 2.03125-11.301712 2.57144-11.28125 7.59938-11.28125 23.93755 0 16.15961-.02953 20.46542 11.28125 23.9375 4.658806 1.2527 8.529652 1.9423 16.875 2.03125.01408.00015.0484-.00015.0625 0 .588385.01628 1.176682.03125 1.78125.03125s1.192865-.015 1.78125-.0312c.0141-.00015.04842.00015.0625 0 8.345348-.0889 12.216194-.77855 16.875-2.03125 11.31078-3.47213 11.28125-7.77794 11.28125-23.93755 0-16.33817.02046-21.36611-11.28125-23.9375-4.658806-1.2527-8.529652-1.9423-16.875-2.03125-.01408-.00015-.04841.00015-.0625 0-.588385-.01629-1.176683-.03125-1.78125-.03125z" fill="#fefefe" filter="url(#j)" opacity=".5" transform="translate(0 -100)"/><path d="m138 78c-.60457 0-1.19286.01496-1.78125.03125-.0141.000146-.0484-.00015-.0625 0-8.34535.08895-12.21619.778548-16.875 2.03125-11.30171 2.571394-11.28125 7.599327-11.28125 23.9375 0 16.15961-.0295 20.46542 11.28125 23.9375 4.65881 1.2527 8.52965 1.9423 16.875 2.03125.0141.00015.0484-.00015.0625 0 .58839.0163 1.17668.0312 1.78125.0312s1.19286-.015 1.78125-.0312c.0141-.00015.0484.00015.0625 0 8.34535-.0889 12.21619-.77855 16.875-2.03125 11.31078-3.47208 11.28125-7.77789 11.28125-23.9375 0-16.338173.0205-21.366106-11.28125-23.9375-4.65881-1.252702-8.52965-1.9423-16.875-2.03125-.0141-.00015-.0484.000146-.0625 0-.58839-.01629-1.17668-.03125-1.78125-.03125z" style="opacity:.7;fill:none;stroke:#000;stroke-width:5;clip-path:url(#y);filter:url(#A)" transform="translate(-90 -60)"/><rect fill="#0fc" height="52" opacity=".701613" rx="30" ry="8.428572" width="60" x="-62" y="18"/><rect fill="url(#h)" height="78.516495" rx="5.852768" ry="6.173287" width="77.914963" x="-81.859116" y="108.25443"/><path d="m45 70.96875c-1.100371 0-2.03125.930879-2.03125 2.03125v.875c-.07803-1.033188-.918293-1.90625-1.96875-1.90625-1.100371 0-2.03125.930879-2.03125 2.03125v.875c-.07803-1.033188-.918293-1.90625-1.96875-1.90625-1.100371 0-2.03125.930879-2.03125 2.03125v2c0 1.100371.930879 2.03125 2.03125 2.03125 1.050457 0 1.89072-.873062 1.96875-1.90625v.875c0 1.100371.930879 2.03125 2.03125 2.03125 1.050457 0 1.89072-.873062 1.96875-1.90625v.875c0 1.100371.930879 2.03125 2.03125 2.03125 1.075414 0 1.959688-.901806 2-1.96875.04031 1.066944.924586 1.96875 2 1.96875s1.959688-.901806 2-1.96875c.04031 1.066944.924586 1.96875 2 1.96875 1.100371 0 2.03125-.930879 2.03125-2.03125v-.875c.07803 1.033188.918293 1.90625 1.96875 1.90625 1.100371 0 2.03125-.930879 2.03125-2.03125v-.875c.07803 1.033188.918293 1.90625 1.96875 1.90625 1.100371 0 2.03125-.930879 2.03125-2.03125v-2c0-1.100371-.930879-2.03125-2.03125-2.03125-1.050457 0-1.89072.873062-1.96875 1.90625v-.875c0-1.100371-.930879-2.03125-2.03125-2.03125-1.050457 0-1.89072.873062-1.96875 1.90625v-.875c0-1.100371-.930879-2.03125-2.03125-2.03125-1.075414 0-1.959688.901806-2 1.96875-.04031-1.066944-.924586-1.96875-2-1.96875s-1.959688.901806-2 1.96875c-.04031-1.066944-.924586-1.96875-2-1.96875z" fill="url(#m)" opacity=".6"/><path d="m45 72c-.554 0-1 .446-1 1v6c0 .554.446 1 1 1s1-.446 1-1v-6c0-.554-.446-1-1-1z" fill="url(#n)"/><path d="m49 72c-.554 0-1 .446-1 1v6c0 .554.446 1 1 1s1-.446 1-1v-6c0-.554-.446-1-1-1z" fill="url(#o)"/><path d="m53 72c-.554 0-1 .446-1 1v6c0 .554.446 1 1 1s1-.446 1-1v-6c0-.554-.446-1-1-1z" fill="url(#p)"/><path d="m41 73c-.554 0-1 .446-1 1v4c0 .554.446 1 1 1s1-.446 1-1v-4c0-.554-.446-1-1-1z" fill="url(#q)"/><path d="m57 73c-.554 0-1 .446-1 1v4c0 .554.446 1 1 1s1-.446 1-1v-4c0-.554-.446-1-1-1z" fill="url(#r)"/><path d="m37 74c-.554 0-1 .446-1 1v2c0 .554.446 1 1 1s1-.446 1-1v-2c0-.554-.446-1-1-1z" fill="url(#s)"/><path d="m61 74c-.554 0-1 .446-1 1v2c0 .554.446 1 1 1s1-.446 1-1v-2c0-.554-.446-1-1-1z" fill="url(#t)"/><path d="m45 70.96875c-.905253 0-1.563783.698318-1.8125 1.53125-.344316-.272392-.722395-.53125-1.1875-.53125-.905253 0-1.563783.698318-1.8125 1.53125-.344316-.272392-.722395-.53125-1.1875-.53125-1.100371 0-2.03125.930879-2.03125 2.03125v2c0 1.100371.930879 2.03125 2.03125 2.03125.465105 0 .843184-.258858 1.1875-.53125.248717.832932.907247 1.53125 1.8125 1.53125.465105 0 .843184-.258858 1.1875-.53125.248717.832932.907247 1.53125 1.8125 1.53125.635266 0 1.127952-.373465 1.5-.84375.372048.470285.864734.84375 1.5.84375s1.127952-.373465 1.5-.84375c.372048.470285.864734.84375 1.5.84375.905253 0 1.563783-.698318 1.8125-1.53125.344316.272392.722395.53125 1.1875.53125.905253 0 1.563783-.698318 1.8125-1.53125.344316.272392.722395.53125 1.1875.53125 1.100371 0 2.03125-.930879 2.03125-2.03125v-2c0-1.100371-.930879-2.03125-2.03125-2.03125-.465105 0-.843184.258858-1.1875.53125-.248717-.832932-.907247-1.53125-1.8125-1.53125-.465105 0-.843184.258858-1.1875.53125-.248717-.832932-.907247-1.53125-1.8125-1.53125-.635266 0-1.127952.373465-1.5.84375-.372048-.470285-.864734-.84375-1.5-.84375s-1.127952.373465-1.5.84375c-.372048-.470285-.864734-.84375-1.5-.84375z" fill="url(#k)" opacity=".8" transform="translate(0 30)"/><path d="m45 102c-.554 0-1 .446-1 1v6c0 .554.446 1 1 1s1-.446 1-1v-6c0-.554-.446-1-1-1zm3 0c-.554 0-1 .446-1 1v6c0 .554.446 1 1 1s1-.446 1-1v-6c0-.554-.446-1-1-1zm3 0c-.554 0-1 .446-1 1v6c0 .554.446 1 1 1s1-.446 1-1v-6c0-.554-.446-1-1-1zm-9 1c-.554 0-1 .446-1 1v4c0 .554.446 1 1 1s1-.446 1-1v-4c0-.554-.446-1-1-1zm12 0c-.554 0-1 .446-1 1v4c0 .554.446 1 1 1s1-.446 1-1v-4c0-.554-.446-1-1-1zm-15 1c-.554 0-1 .446-1 1v2c0 .554.446 1 1 1s1-.446 1-1v-2c0-.554-.446-1-1-1zm18 0c-.554 0-1 .446-1 1v2c0 .554.446 1 1 1s1-.446 1-1v-2c0-.554-.446-1-1-1z" fill="url(#l)"/><path d="m23.864853 79.206215a5.0507627 5.0507627 0 1 1 -10.101525 0 5.0507627 5.0507627 0 1 1 10.101525 0z" opacity=".2" transform="matrix(1.1879394 0 0 1.1879394 .65 -19.092184)"/><path d="m23.864853 79.206215a5.0507627 5.0507627 0 1 1 -10.101525 0 5.0507627 5.0507627 0 1 1 10.101525 0z" opacity=".6" transform="matrix(.98994951 0 0 .98994951 4.375 -3.410154)"/><path d="m30.982771 106.13716a4.6224294 4.6224294 0 1 1 -9.244858 0 4.6224294 4.6224294 0 1 1 9.244858 0z" fill="url(#v)" stroke="url(#w)" stroke-linecap="square" stroke-width="3.962082" transform="matrix(.75717761 0 0 .75717761 3.040539 -6.364682)"/><path d="m30.982771 106.13716a4.6224294 4.6224294 0 1 1 -9.244858 0 4.6224294 4.6224294 0 1 1 9.244858 0z" fill="none" stroke="url(#x)" stroke-linecap="square" stroke-width="1.317351" transform="matrix(0 -.75909924 .75909924 0 -57.568638 94.010115)"/><path d="m23.864853 79.206215a5.0507627 5.0507627 0 1 1 -10.101525 0 5.0507627 5.0507627 0 1 1 10.101525 0z" opacity=".2" transform="matrix(1.1879394 0 0 1.1879394 50.65 -19.092184)"/><path d="m23.864853 79.206215a5.0507627 5.0507627 0 1 1 -10.101525 0 5.0507627 5.0507627 0 1 1 10.101525 0z" opacity=".6" transform="matrix(.98994951 0 0 .98994951 54.375 -3.410154)"/><path d="m30.982771 106.13716a4.6224294 4.6224294 0 1 1 -9.244858 0 4.6224294 4.6224294 0 1 1 9.244858 0z" fill="url(#v)" stroke="url(#w)" stroke-linecap="square" stroke-width="3.962082" transform="matrix(.75717761 0 0 .75717761 53.040539 -6.364682)"/><path d="m30.982771 106.13716a4.6224294 4.6224294 0 1 1 -9.244858 0 4.6224294 4.6224294 0 1 1 9.244858 0z" fill="none" stroke="url(#x)" stroke-linecap="square" stroke-width="1.317351" transform="matrix(0 -.75909924 .75909924 0 -7.568638 94.010115)"/><path d="m21.0625 47.46875c.05668 5.974195.287603 9.944582 1.15625 12.125 1.023926 2.570189 2.628544 3.793653 7.84375 5.40625.01012.0027.02114-.0027.03125 0 .03047.0094.03178.02182.0625.03125 4.473531 1.198633 7.901734 1.819602 16.03125 1.90625-.08089-.000862-.04497-.0011.0625 0a3.0324182 3.0324182 0 0 1 .0625 0c.583898.01616 1.132985.03125 1.6875.03125s1.103602-.01509 1.6875-.03125a3.0324182 3.0324182 0 0 1 .0625 0c.107467-.0011.143391-.000862.0625 0 8.129517-.08665 11.557719-.707617 16.03125-1.90625.03237-.0087.06127-.02252.09375-.03125 5.215206-1.612597 6.819824-2.836061 7.84375-5.40625.868647-2.180418 1.09957-6.150805 1.15625-12.125-.09203 4.91488-.381987 8.181497-1.15625 10.125-1.023926 2.570189-2.628544 3.793653-7.84375 5.40625-.03248.0087-.06138.02258-.09375.03125-4.473531 1.198633-7.901733 1.8196-16.03125 1.90625.08089-.000862.04497-.0011-.0625 0a3.0324182 3.0324182 0 0 0 -.0625 0c-.583898.01616-1.132985.03125-1.6875.03125s-1.103602-.01509-1.6875-.03125a3.0324182 3.0324182 0 0 0 -.0625 0c-.107467-.0011-.143391-.000862-.0625 0-8.129516-.08665-11.557719-.707617-16.03125-1.90625-.03072-.0094-.03203-.02185-.0625-.03125-.01011-.0027-.02113.0027-.03125 0-5.215206-1.612597-6.819824-2.836061-7.84375-5.40625-.774263-1.943503-1.064223-5.21012-1.15625-10.125z" fill="#fefefe" opacity=".3"/><path d="m48 18c-.60457 0-1.19286.01496-1.78125.03125-.0141.000146-.0484-.00015-.0625 0-8.34535.08895-12.21619.778548-16.875 2.03125-11.30171 2.571394-11.28125 7.599327-11.28125 23.9375 0 16.159612-.0295 20.465419 11.28125 23.9375 4.65881 1.252703 8.52965 1.942302 16.875 2.03125.0141.00015.0484-.000146.0625 0 .58839.01628 1.17668.03125 1.78125.03125s1.19286-.01497 1.78125-.03125c.0141-.000146.0484.00015.0625 0 8.34535-.08895 12.21619-.778547 16.875-2.03125 11.31078-3.472081 11.28125-7.777888 11.28125-23.9375 0-16.338173.0205-21.366106-11.28125-23.9375-4.65881-1.252702-8.52965-1.9423-16.875-2.03125-.0141-.00015-.0484.000146-.0625 0-.58839-.01629-1.17668-.03125-1.78125-.03125z" opacity=".6"/><g><path d="m41.388321 40.28158v9.593327h-1.726553v-1.059024c-.318254.390167-.649314.687613-.993477.891632-.344163.203666-.678391.305941-1.002128.305941-.399148 0-.700102-.14262-.902566-.428388-.202465-.285591-.303567-.713978-.303567-1.285162v-8.018326h1.726595v7.353893c0 .227553.03614.391935.108427.49368.07228.101745.18936.152706.351485.152706.127311 0 .287595-.06724.481409-.201897.193813-.134832.371655-.306825.533822-.516506v-7.281876zm-11.405982 2.193206c0-.742954.232313-1.334441.697234-1.774905.464922-.440508 1.089572-.660763 1.87429-.660763.714533 0 1.299915.23242 1.756187.696727.456272.464308.684385 1.061989.684385 1.793087v4.954897c0 .821032-.22396 1.465118-.671282 1.932432-.447365.467315-1.063406.701062-1.847869.701062-.755386 0-1.359865-.241355-1.813011-.723534-.45336-.482178-.679934-1.130864-.679934-1.945879zm1.77687 5.152724c0 .26418.06128.467847.184393.611881.122815.143858.2983.215521.526714.215521.234153 0 .419873-.07325.557633-.220122.137503-.147042.206403-.349293.206403-.60728v-5.224697c0-.209681-.07049-.379063-.210856-.507836-.140373-.128817-.324765-.193447-.55318-.193447-.2106 0-.381889.06463-.51361.193447-.131765.128773-.197497.298155-.197497.507836zm-8.209552-10.757281h1.958393l1.261631 5.198156h.122086l1.202965-5.198156h1.975694l-2.262989 7.608432v5.396246h-1.944519v-5.153299z" fill="url(#D)"/><g transform="matrix(.96507726 0 0 .96507726 1.876009 1.934252)"><path d="m73.793181 37.407546c0-2.437515-2.00076-4.415285-4.466387-4.415285-3.518972-.146887-7.119672-.212092-10.792234-.205391-3.672561-.0067-7.273076.0585-10.79228.205391-2.465394 0-4.466341 1.97777-4.466341 4.415285-.148005 1.930482-.212234 3.861011-.206462 5.79154-.0057 1.930482.05846 3.860965.206508 5.791541 0 2.437514 2.000901 4.415376 4.466388 4.415376 3.519111.146889 7.119626.212048 10.792187.20516 3.672562.0069 7.273262-.05828 10.792234-.20516 2.465627 0 4.466387-1.977862 4.466387-4.415376.148006-1.930576.212233-3.861059.206463-5.791541.0057-1.930529-.05845-3.861058-.206463-5.79154z" fill="url(#E)"/><g transform="matrix(.09531868 0 0 .09531868 22 32.786405)"><path d="m496.25732 8.2700195.12696.00586h.12695c22.46484 0 40.74023 18.0361335 40.74023 40.2036135v.234375l.0195.23291c1.48632 19.397461 2.20898 39.677735 2.14843 60.274412.0605 20.63379-.66211 40.91406-2.14843 60.3125l-.0195.23242v.23438c0 22.16992-18.27539 40.20508-40.74023 40.20508h-.12695l-.12696.004c-35.88086 1.49805-73.88671 2.22071-112.95703 2.14844-39.09375.0723-77.09765-.65039-112.979-2.14844l-.12744-.004h-.12744c-22.46485 0-40.74073-18.03516-40.74073-40.20508v-.23438l-.0181-.23242c-1.48682-19.38867-2.20996-39.66797-2.14893-60.27734-.0615-20.634767.66113-40.91504 2.14844-60.309572l.0181-.23291v-.234375c0-22.16748 18.27587-40.2036135 40.74023-40.2036135h.12793l.12744-.00586c35.87598-1.4975586 73.88184-2.2202148 112.95606-2.1489258 39.0996-.071289 77.10546.6513672 112.98046 2.1489258z" fill="#fefefe" mask="url(#C)"/><g><path d="m314.23193 33.879394h-68.04541v20.834473h22.93653v122.710453h22.17138v-122.710453h22.9375zm36.23828 118.031246c-1.84765 2.31446-3.87695 4.21485-6.08593 5.70118-2.21094 1.48828-4.03907 2.22851-5.49024 2.22851-1.84765 0-3.18359-.5625-4.00781-1.68554-.82422-1.1211-1.23633-2.9375-1.23633-5.44922v-81.171879h-19.6875v88.505859c0 6.30469 1.1543 11.0332 3.46289 14.1875 2.3086 3.15234 5.74024 4.72656 10.29102 4.72656 3.6914 0 7.50195-1.1289 11.42578-3.37695 3.92578-2.25195 7.69922-5.53516 11.32812-9.8418v11.68946h19.6875v-105.890629h-19.6875zm76.27735-81.714839c-3.05274 0-6.06836.842285-9.05274 2.523926-2.98242 1.684082-5.79882 4.13916-8.45117 7.370605v-46.210938h-19.8789v143.544926h19.8789v-8.14063c2.58594 3.22461 5.38867 5.61133 8.4043 7.1582 3.01562 1.54688 6.44726 2.32032 10.29492 2.32032 5.83203 0 10.29102-1.99414 13.37305-5.99024 3.08203-3.99609 4.62695-9.75781 4.62695-17.28711v-58.744626c0-8.648925-1.64258-15.237304-4.92578-19.758789-3.28125-4.521484-8.03906-6.785644-14.26953-6.785644zm-1.06641 82.410159c0 3.375-.57031 5.81054-1.70508 7.29687-1.13476 1.48828-2.90625 2.23047-5.31054 2.23047-1.67188 0-3.25782-.37891-4.76172-1.14062-1.50586-.75782-3.0586-2-4.66016-3.72071v-65.988279c1.33594-1.454101 2.6875-2.529297 4.0586-3.225097 1.36914-.692871 2.75781-1.042481 4.16015-1.042481 2.66992 0 4.71094.928711 6.11328 2.780274 1.4043 1.85205 2.10547 4.563476 2.10547 8.135742zm93.02735-25.64258v-26.95899c0-10.049312-2.41993-17.751949-7.25196-23.109371-4.83593-5.35791-11.75586-8.037109-20.76172-8.037109-8.81054 0-15.99609 2.894043-21.55664 8.678711-5.56445 5.788086-8.3457 13.275391-8.3457 22.467769v47.52735c0 10.19336 2.5332 18.20117 7.59766 24.02539 5.0664 5.82226 12.0039 8.73437 20.81445 8.73437 9.80078 0 17.16992-2.74804 22.10352-8.24023 4.93359-5.49219 7.40039-13.66602 7.40039-24.51953v-7.95313h-20.26172v7.35938c0 6.23047-.65039 10.25976-1.94922 12.08008-1.29883 1.82226-3.58203 2.73437-6.8457 2.73437-3.13672 0-5.35157-1.07617-6.6504-3.23242-1.29882-2.15234-1.94726-6.01563-1.94726-11.58203v-19.97461h37.6543zm-37.6543-27.155763c0-4.432129.67969-7.609863 2.04883-9.530273 1.36523-1.917481 3.61328-2.878906 6.74609-2.878906 2.99805 0 5.18164.961425 6.54883 2.878906 1.36523 1.92041 2.04883 5.098144 2.04883 9.530273v10.718263h-17.39258z"/><path d="m314.23193 35.408691h-68.04541v20.833985h22.93653v122.710934h22.17138v-122.710934h22.9375zm36.23828 118.031249c-1.84765 2.31445-3.87695 4.21485-6.08593 5.70117-2.21094 1.48828-4.03907 2.22852-5.49024 2.22852-1.84765 0-3.18359-.5625-4.00781-1.68555-.82422-1.12304-1.23633-2.9375-1.23633-5.44922v-81.171872h-19.6875v88.505862c0 6.30469 1.1543 11.0332 3.46289 14.1875 2.3086 3.15234 5.74024 4.72656 10.29102 4.72656 3.6914 0 7.50195-1.12891 11.42578-3.37695 3.92578-2.25196 7.69922-5.53516 11.32812-9.8418v11.68945h19.6875v-105.890622h-19.6875zm76.27735-81.714842c-3.05274 0-6.06836.842285-9.05274 2.523437-2.98242 1.684571-5.79882 4.139649-8.45117 7.371094v-46.210938h-19.8789v143.544919h19.8789v-8.14062c2.58594 3.22461 5.38867 5.61133 8.4043 7.1582 3.01562 1.54688 6.44726 2.32031 10.29492 2.32031 5.83203 0 10.29102-1.99414 13.37305-5.99023s4.62695-9.75781 4.62695-17.28711v-58.744629c0-8.648926-1.64258-15.237304-4.92578-19.759277-3.28125-4.521484-8.03906-6.785156-14.26953-6.785156zm-1.06641 82.410152c0 3.375-.57031 5.8086-1.70508 7.29688-1.13476 1.48633-2.90625 2.23047-5.31054 2.23047-1.67188 0-3.25782-.37891-4.76172-1.14063-1.50586-.75781-3.0586-2-4.66016-3.7207v-65.988282c1.33594-1.454589 2.6875-2.529785 4.0586-3.225586 1.36914-.692871 2.75781-1.041992 4.16015-1.041992 2.66992 0 4.71094.928711 6.11328 2.780274 1.4043 1.851562 2.10547 4.563476 2.10547 8.135253zm93.02735-25.64257v-26.95899c0-10.049803-2.41993-17.751952-7.25196-23.109862-4.83593-5.35791-11.75586-8.036621-20.76172-8.036621-8.81054 0-15.99609 2.894043-21.55664 8.678711-5.56445 5.788086-8.3457 13.27539-8.3457 22.467772v47.52735c0 10.19335 2.5332 18.20117 7.59766 24.02539 5.0664 5.82226 12.0039 8.73437 20.81445 8.73437 9.80078 0 17.16992-2.74805 22.10352-8.24023 4.93359-5.49219 7.40039-13.66602 7.40039-24.51953v-7.95313h-20.26172v7.35938c0 6.23046-.65039 10.25976-1.94922 12.08007-1.29883 1.82227-3.58203 2.73243-6.8457 2.73243-3.13672 0-5.35157-1.07422-6.6504-3.23047-1.29882-2.1543-1.94726-6.01563-1.94726-11.58203v-19.97461zm-37.6543-27.15625c0-4.431645.67969-7.609379 2.04883-9.529789 1.36523-1.917481 3.61328-2.878907 6.74609-2.878907 2.99805 0 5.18164.961426 6.54883 2.878907 1.36523 1.92041 2.04883 5.098144 2.04883 9.529789v10.71875h-17.39258z" fill="#fefefe"/></g></g></g></g><g><g fill="none"><rect height="73" opacity=".05" rx="3.946" ry="3.945946" stroke="#000" stroke-width="9" width="73" x="11.5" y="11.5"/><rect height="73" opacity=".1" rx="3.946" ry="3.945946" stroke="#000" stroke-width="7" width="73" x="11.5" y="11.5"/><rect height="73" opacity=".2" rx="3.946" ry="3.945946" stroke="#000" stroke-width="5" width="73" x="11.5" y="11.5"/><rect height="73" rx="3.946" ry="3.945946" stroke="#333" stroke-width="3" width="73" x="11.5" y="11.5"/></g><path d="m12 6c-3.324 0-6 2.676-6 6v72c0 3.324 2.676 6 6 6h72c3.324 0 6-2.676 6-6v-72c0-3.324-2.676-6-6-6zm4 6h64c2.216 0 4 1.784 4 4v64c0 2.216-1.784 4-4 4h-64c-2.216 0-4-1.784-4-4v-64c0-2.216 1.784-4 4-4z" fill="url(#g)"/><path d="m12 6c-3.324 0-6 2.676-6 6v2 68 2c0 .334721.04135.6507.09375.96875.0487.295596.09704.596915.1875.875.0099.03038.02089.0636.03125.09375.09886.287771.23488.547452.375.8125.144592.273507.315616.535615.5.78125s.373776.473472.59375.6875c.439947.428056.94291.814526 1.5 1.09375.278545.139612.573473.246947.875.34375-.256202-.100222-.486711-.236272-.71875-.375-.0074-.0044-.02387.0045-.03125 0-.03193-.0193-.06229-.04251-.09375-.0625-.120395-.0767-.231023-.163513-.34375-.25-.106173-.0808-.213281-.161112-.3125-.25-.17793-.161433-.34746-.345388-.5-.53125-.107579-.130255-.218394-.265285-.3125-.40625-.02509-.03838-.03845-.08587-.0625-.125-.06476-.103032-.130228-.204517-.1875-.3125-.101008-.194706-.205675-.415701-.28125-.625-.008-.02181-.02359-.04055-.03125-.0625-.03183-.09195-.0358-.186831-.0625-.28125-.030332-.106618-.070389-.203031-.09375-.3125-.072879-.341512-.125-.698205-.125-1.0625v-2-68-2c0-2.781848 2.218152-5 5-5h2 68 2c2.781848 0 5 2.218152 5 5v2 68 2c0 .364295-.05212.720988-.125 1.0625-.04415.206893-.08838.397658-.15625.59375-.0077.02195-.0233.04069-.03125.0625-.06274.173739-.138383.367449-.21875.53125-.04158.0828-.07904.169954-.125.25-.0546.09721-.126774.18835-.1875.28125-.09411.140965-.204921.275995-.3125.40625-.143174.17445-.303141.346998-.46875.5-.01117.0102-.01998.02115-.03125.03125-.138386.125556-.285091.234436-.4375.34375-.102571.07315-.204318.153364-.3125.21875-.0074.0045-.02384-.0044-.03125 0-.232039.138728-.462548.274778-.71875.375.301527-.0968.596455-.204138.875-.34375.55709-.279224 1.060053-.665694 1.5-1.09375.219973-.214028.409366-.441865.59375-.6875s.355408-.507743.5-.78125c.14012-.265048.276135-.524729.375-.8125.01041-.03078.02133-.06274.03125-.09375.09046-.278085.1388-.579404.1875-.875.0524-.31805.09375-.634029.09375-.96875v-2-68-2c0-3.324-2.676-6-6-6z" fill="url(#d)" opacity=".4"/><path d="m12 90c-3.324 0-6-2.676-6-6v-2-68-2c0-.334721.04135-.6507.09375-.96875.0487-.295596.09704-.596915.1875-.875.00988-.03038.020892-.0636.03125-.09375.098865-.287771.2348802-.547452.375-.8125.1445918-.273507.3156161-.535615.5-.78125s.3737765-.473472.59375-.6875c.439947-.428056.94291-.814526 1.5-1.09375.278545-.139612.5734731-.246947.875-.34375-.2562018.100222-.4867109.236272-.71875.375-.00741.0044-.023866-.0045-.03125 0-.031933.0193-.062293.04251-.09375.0625-.120395.0767-.2310226.163513-.34375.25-.1061728.0808-.2132809.161112-.3125.25-.1779299.161433-.3474596.345388-.5.53125-.1075789.130255-.2183939.265285-.3125.40625-.025089.03838-.038446.08587-.0625.125-.064763.103032-.1302275.204517-.1875.3125-.1010083.194706-.2056748.415701-.28125.625-.00796.02181-.023589.04055-.03125.0625-.0318251.09195-.0358045.186831-.0625.28125-.0303323.106618-.0703894.203031-.09375.3125-.0728786.341512-.125.698205-.125 1.0625v2 68 2c0 2.781848 2.2181517 5 5 5h2 68 2c2.781848 0 5-2.218152 5-5v-2-68-2c0-.364295-.05212-.720988-.125-1.0625-.04415-.206893-.08838-.397658-.15625-.59375-.0077-.02195-.0233-.04069-.03125-.0625-.06274-.173739-.138383-.367449-.21875-.53125-.04158-.0828-.07904-.169954-.125-.25-.0546-.09721-.126774-.18835-.1875-.28125-.09411-.140965-.204921-.275995-.3125-.40625-.143174-.17445-.303141-.346998-.46875-.5-.01117-.0102-.01998-.02115-.03125-.03125-.138386-.125556-.285091-.234436-.4375-.34375-.102571-.07315-.204318-.153364-.3125-.21875-.0074-.0045-.02384.0044-.03125 0-.232039-.138728-.462548-.274778-.71875-.375.301527.0968.596455.204138.875.34375.55709.279224 1.060053.665694 1.5 1.09375.219973.214028.409366.441865.59375.6875s.355408.507743.5.78125c.14012.265048.276135.524729.375.8125.01041.03078.02133.06274.03125.09375.09046.278085.1388.579404.1875.875.0524.31805.09375.634029.09375.96875v2 68 2c0 3.324-2.676 6-6 6z" fill="url(#f)" opacity=".2"/><path d="m12 80v1c0 2.216 1.784 4 4 4h64c2.216 0 4-1.784 4-4v-1c0 2.216-1.784 4-4 4h-64c-2.216 0-4-1.784-4-4z" fill="#d59266" opacity=".2"/><path d="m48 20.475637c-.529351 0-1.044459.0077-1.559642.01595-.01233.000074-.04239-.000077-.05472 0-7.30709.04542-10.696357.39749-14.775554 1.037059-9.895648 1.312832-9.877732 3.879856-9.877732 12.22135 0 8.250329-.02586 10.44867 9.877731 12.221349 4.079197.639571 7.468464.991648 14.775554 1.03706.01233.000077.04238-.000074.05472 0 .515183.0083 1.03029.01595 1.559642.01595s1.044459-.0077 1.559642-.01595c.01235-.000074.04239.000077.05472 0 7.30709-.04542 10.696357-.397489 14.775554-1.037059 9.903589-1.77268 9.877733-3.971021 9.877733-12.22135 0-8.341494.01791-10.908518-9.877731-12.221349-4.079197-.63957-7.468464-.991647-14.775554-1.03706-.01233-.000077-.04239.000074-.05472 0-.515184-.008313-1.030292-.01595-1.559643-.01595z" fill="url(#B)" opacity=".7"/></g></svg>