<svg height="96" width="96" xmlns="http://www.w3.org/2000/svg" xmlns:xlink="http://www.w3.org/1999/xlink"><linearGradient id="a"><stop offset="0" stop-color="#003d9e"/><stop offset="1" stop-color="#003d9e" stop-opacity="0"/></linearGradient><linearGradient id="b"><stop offset="0" stop-color="#93ddf7"/><stop offset="1" stop-color="#93ddf7" stop-opacity="0"/></linearGradient><linearGradient id="c"><stop offset="0" stop-color="#002767"/><stop offset=".5" stop-color="#003180" stop-opacity=".364341"/><stop offset="1" stop-color="#002767" stop-opacity="0"/></linearGradient><linearGradient id="d"><stop offset="0" stop-color="#51acff"/><stop offset=".5" stop-color="#6abaee" stop-opacity=".67451"/><stop offset="1" stop-color="#318fe4" stop-opacity="0"/></linearGradient><linearGradient id="e"><stop offset="0" stop-color="#fefefe" stop-opacity="0"/><stop offset=".25" stop-color="#fefefe" stop-opacity="0"/><stop offset=".5" stop-color="#fefefe" stop-opacity=".701613"/><stop offset=".75" stop-color="#fefefe" stop-opacity="0"/><stop offset="1" stop-color="#fefefe" stop-opacity="0"/></linearGradient><linearGradient id="f"><stop offset="0" stop-color="#fefefe"/><stop offset="1" stop-color="#fefefe" stop-opacity="0"/></linearGradient><linearGradient id="g" gradientUnits="userSpaceOnUse" x1="36.357143" x2="36.357143" xlink:href="#f" y1="6" y2="63.893143"/><radialGradient id="h" cx="48" cy="90.171875" gradientTransform="matrix(1.1573129 0 0 .99590774 -7.551021 .197132)" gradientUnits="userSpaceOnUse" r="42" xlink:href="#f"/><linearGradient id="i" gradientUnits="userSpaceOnUse" x1="48" x2="48.252537" y1="7.408988" y2="63.184418"><stop offset="0" stop-color="#fefefe" stop-opacity="0"/><stop offset="1" stop-color="#fefefe" stop-opacity=".233871"/></linearGradient><linearGradient id="j" gradientUnits="userSpaceOnUse" x1="25.220379" x2="94.567612" y1="61.92226" y2="61.92226"><stop offset="0" stop-color="#4d4d4d"/><stop offset="1" stop-color="#fefefe"/></linearGradient><radialGradient id="k" cx="59.893993" cy="61.92226" gradientTransform="matrix(1 0 0 .8375435 0 10.059672)" gradientUnits="userSpaceOnUse" r="33.71384"><stop offset="0" stop-opacity="0"/><stop offset=".85000002" stop-opacity="0"/><stop offset="1"/></radialGradient><linearGradient id="l" gradientUnits="userSpaceOnUse" x1="26.180153" x2="93.607834" y1="61.92226" y2="61.92226"><stop offset="0" stop-color="#fefefe" stop-opacity=".203125"/><stop offset="1" stop-color="#fefefe" stop-opacity=".679688"/></linearGradient><clipPath id="m"><path d="m48 32c-19.882251 0-36 16.117749-36 36s16.117749 36 36 36 36-16.117749 36-36-16.117749-36-36-36zm0 24c6.627417 0 12 5.372583 12 12s-5.372583 12-12 12-12-5.372583-12-12 5.372583-12 12-12z"/></clipPath><filter id="n" color-interpolation-filters="sRGB" height="1.341402" width="1.380742" x="-.190371" y="-.170701"><feGaussianBlur stdDeviation="4.9476562"/></filter><clipPath id="o"><path d="m48 102c-19.88225 0-36 16.11775-36 36s16.11775 36 36 36 36-16.11775 36-36-16.11775-36-36-36zm0 24c6.62742 0 12 5.37258 12 12s-5.37258 12-12 12-12-5.37258-12-12 5.37258-12 12-12z"/></clipPath><filter id="p" color-interpolation-filters="sRGB" height="1.36" width="1.36" x="-.18" y="-.18"><feGaussianBlur stdDeviation="5.2159999"/></filter><linearGradient id="q" gradientUnits="userSpaceOnUse" x1="47.921329" x2="47.921329" y1="89.668793" y2="4.78804"><stop offset="0" stop-color="#a0a0a0" stop-opacity=".541177"/><stop offset="1" stop-color="#a0a0a0" stop-opacity=".345098"/></linearGradient><clipPath id="r"><path d="m12 6c-3.324 0-6 2.676-6 6v72c0 3.324 2.676 6 6 6h72c3.324 0 6-2.676 6-6v-72c0-3.324-2.676-6-6-6zm36 4c20.98682 0 38 17.01318 38 38s-17.01318 38-38 38-38-17.01318-38-38 17.01318-38 38-38z"/></clipPath><linearGradient id="s" gradientUnits="userSpaceOnUse" x1="6.812054" x2="88.142281" xlink:href="#e" y1="49.027908" y2="49.027908"/><radialGradient id="t" cx="46.467018" cy="47.765217" gradientUnits="userSpaceOnUse" r="35.860416"><stop offset="0" stop-opacity="0"/><stop offset=".93000001" stop-opacity="0"/><stop offset="1"/></radialGradient><filter id="u" color-interpolation-filters="sRGB" height="1.24" width="1.24" x="-.12" y="-.12"><feGaussianBlur stdDeviation="4.2"/></filter><filter id="v" color-interpolation-filters="sRGB"><feGaussianBlur stdDeviation="1.44"/></filter><clipPath id="w"><path d="m76.013977 47.51268a28.284271 28.284271 0 1 1 -56.568542 0 28.284271 28.284271 0 1 1 56.568542 0z" transform="matrix(1.3435029 0 0 1.3435029 -16.124998 74.166578)"/></clipPath><linearGradient id="x" gradientTransform="matrix(1.0058652 0 0 .994169 100 0)" gradientUnits="userSpaceOnUse" x1="45.447727" x2="45.447727" y1="92.539597" y2="7.01654"><stop offset="0"/><stop offset="1" stop-opacity=".588235"/></linearGradient><linearGradient id="y" gradientTransform="matrix(1.0238095 0 0 -1.0119048 -1.142857 98.071429)" gradientUnits="userSpaceOnUse" x1="32.251034" x2="32.251034" xlink:href="#x" y1="6.131708" y2="90.238609"/><linearGradient id="z" gradientTransform="matrix(1 0 0 -1 0 97)" gradientUnits="userSpaceOnUse" x1="32.251034" x2="32.251034" xlink:href="#x" y1="6.131708" y2="90.238609"/><filter id="A" color-interpolation-filters="sRGB"><feGaussianBlur stdDeviation=".42"/></filter><linearGradient id="B" gradientUnits="userSpaceOnUse" x1="52" x2="51.631207" y1="13" y2="11.084063"><stop offset="0" stop-color="#a2d7fb"/><stop offset="1" stop-color="#a2d7fb" stop-opacity="0"/></linearGradient><radialGradient id="C" cx="41.752941" cy="36.95731" gradientTransform="matrix(3.3630994 -.59089075 .30096298 1.7129535 -109.78914 2.680567)" gradientUnits="userSpaceOnUse" r="19" xlink:href="#d"/><radialGradient id="D" cx="40.284538" cy="39.106094" gradientTransform="matrix(3.3729562 -.5317483 .18746453 1.1891145 -71.604806 16.442362)" gradientUnits="userSpaceOnUse" r="19" xlink:href="#d"/><linearGradient id="E" gradientUnits="userSpaceOnUse" x1="80" x2="77" xlink:href="#c" y1="40" y2="40"/><radialGradient id="F" cx="46" cy="50.608784" gradientTransform="matrix(2.6666667 -.00000007 .0000008 30.666677 -76.666707 -1477.0032)" gradientUnits="userSpaceOnUse" r="1.5" xlink:href="#c"/><radialGradient id="G" cx="61" cy="24.63372" gradientTransform="matrix(1.2626263 -.2104377 .09520749 .57124497 -18.365519 22.764811)" gradientUnits="userSpaceOnUse" r="19.007999"><stop offset="0" stop-color="#0a85ff"/><stop offset="1" stop-color="#006ad3" stop-opacity="0"/></radialGradient><linearGradient id="H" gradientUnits="userSpaceOnUse" x1="31" x2="36" xlink:href="#b" y1="64" y2="73"/><linearGradient id="I" gradientUnits="userSpaceOnUse" x1="40" x2="42" xlink:href="#a" y1="69" y2="64"/><linearGradient id="J" gradientUnits="userSpaceOnUse" x1="40" x2="41.884232" xlink:href="#a" y1="70" y2="62.967953"/><radialGradient id="K" cx="39.768967" cy="69.843796" gradientTransform="matrix(1.1597853 -.1400901 .07244171 .58349276 -11.414104 33.34065)" gradientUnits="userSpaceOnUse" r="11"><stop offset="0" stop-color="#01a3f1"/><stop offset="1" stop-color="#01a3f1" stop-opacity="0"/></radialGradient><linearGradient id="L" gradientUnits="userSpaceOnUse" x1="74" x2="75.884232" xlink:href="#a" y1="65" y2="57.967953"/><linearGradient id="M" gradientUnits="userSpaceOnUse" x1="74" x2="76" xlink:href="#a" y1="64" y2="59"/><linearGradient id="N" gradientUnits="userSpaceOnUse" x1="65" x2="70" xlink:href="#b" y1="59" y2="68"/><g><g fill="url(#y)"><path d="m12 3.96875c-5.5110902 0-10.03125 4.5201598-10.03125 10.03125v71c0 5.51109 4.5201597 10.03125 10.03125 10.03125h72c5.51109 0 10.03125-4.52016 10.03125-10.03125v-71c0-5.5110903-4.52016-10.03125-10.03125-10.03125zm0 2.03125h72c3.324 0 6 2.676 6 6v72c0 3.324-2.676 6-6 6h-72c-3.324 0-6-2.676-6-6v-72c0-3.324 2.676-6 6-6z" opacity=".08"/><path d="m12 4.96875c-4.9716329 0-9.03125 4.0596171-9.03125 9.03125v71c0 4.971633 4.059617 9.03125 9.03125 9.03125h72c4.971633 0 9.03125-4.059617 9.03125-9.03125v-71c0-4.971633-4.059617-9.03125-9.03125-9.03125zm0 1.03125h72c3.324 0 6 2.676 6 6v72c0 3.324-2.676 6-6 6h-72c-3.324 0-6-2.676-6-6v-72c0-3.324 2.676-6 6-6z" opacity=".1"/><path d="m11.1875 6.03125c-4.0275183.4106511-7.1875 3.8351875-7.1875 7.96875v71c0 4.409133 3.5908667 8 8 8h72c4.409133 0 8-3.590867 8-8v-71c0-4.1970618-3.258972-7.6460416-7.375-7.96875 3.032886.306167 5.375 2.8525 5.375 5.96875v72c0 3.324-2.676 6-6 6h-72c-3.324 0-6-2.676-6-6v-72c0-3.11625 2.3421143-5.662583 5.375-5.96875-.06227.00488-.12563-.00631-.1875 0z" opacity=".2"/><path d="m6.4375 9.75c-.8994891 1.177446-1.4375 2.647277-1.4375 4.25v71c0 3.878 3.122 7 7 7h72c3.878 0 7-3.122 7-7v-71c0-1.602723-.538011-3.072554-1.4375-4.25.279316.694095.4375 1.453625.4375 2.25v72c0 3.324-2.676 6-6 6h-72c-3.324 0-6-2.676-6-6v-72c0-.796375.1581836-1.555905.4375-2.25z" opacity=".3"/></g><path d="m6 84v1c0 3.324 2.676 6 6 6h72c3.324 0 6-2.676 6-6v-1c0 3.324-2.676 6-6 6h-72c-3.324 0-6-2.676-6-6z" fill="url(#z)" opacity=".45"/></g><rect fill="url(#q)" height="84" rx="6" width="84" x="6" y="6"/><path d="m82.327435 47.765217a35.860416 35.860416 0 1 1 -71.720833 0 35.860416 35.860416 0 1 1 71.720833 0z" fill="url(#t)" opacity=".4" transform="matrix(1.0596642 0 0 1.0596642 -1.239436 -2.615091)"/><path clip-path="url(#w)" d="m48 102c-19.882251 0-36 16.11775-36 36s16.117749 36 36 36 36-16.11775 36-36-16.117749-36-36-36zm0 24c6.627417 0 12 5.37258 12 12s-5.372583 12-12 12-12-5.37258-12-12 5.372583-12 12-12z" filter="url(#v)" opacity=".8" transform="translate(0 -90)"/><g><path d="m48 12c-19.882251 0-36 16.117749-36 36s16.117749 36 36 36 36-16.117749 36-36-16.117749-36-36-36zm0 24c6.627417 0 12 5.372583 12 12s-5.372583 12-12 12-12-5.372583-12-12 5.372583-12 12-12z" fill="#bbb1bf"/><path d="m48 36c-6.627417 0-12 5.372583-12 12s5.372583 12 12 12 12-5.372583 12-12-5.372583-12-12-12zm0 7c2.761424 0 5 2.238576 5 5s-2.238576 5-5 5-5-2.238576-5-5 2.238576-5 5-5z" fill="#fefefe" opacity=".3"/><path d="m92.579506 61.92226a32.685513 27.208481 0 1 1 -65.371025 0 32.685513 27.208481 0 1 1 65.371025 0z" fill="none" opacity=".6" stroke="url(#j)" stroke-linecap="round" stroke-width="5.422095" transform="matrix(0 .16827027 -.20214285 0 60.517143 37.921621)"/><path d="m92.579506 61.92226a32.685513 27.208481 0 1 1 -65.371025 0 32.685513 27.208481 0 1 1 65.371025 0z" style="opacity:.5;fill-rule:evenodd;stroke-width:3.139125;stroke-linecap:round;fill:url(#k);stroke:url(#l)" transform="matrix(0 .2906454 -.34915584 0 69.620519 30.592193)"/><g fill="#fefefe"><path clip-path="url(#m)" d="m57.3125 33.21875-9.3125 34.78125 31.1875-18c-4.773897-8.268632-12.65254-14.310099-21.875-16.78125zm-9.3125 34.78125-31.1875 18c4.773897 8.268632 12.65254 14.3101 21.875 16.78125z" filter="url(#n)" opacity=".8" transform="translate(0 -20)"/><path d="m64.397226 47.38641a20.708128 18.814091 0 0 1 -6.06527 13.303571l-14.642858-13.303571z" opacity=".3" transform="matrix(.4499434 -1.6792116 1.8482599 .49523976 -59.240026 7.89561)"/><path d="m64.397226 47.38641a20.708128 18.814091 0 0 1 -6.06527 13.303571l-14.642858-13.303571z" opacity=".3" transform="matrix(-.4499434 1.6792116 -1.8482599 -.49523976 155.24002 -91.895606)"/></g><g clip-path="url(#o)" filter="url(#p)" opacity=".6" transform="translate(0 -90)"><path d="m60.947452 57.784124a20.708128 18.814091 0 0 1 -2.615496 2.905857l-14.642858-13.303571z" fill="#7137c8" transform="matrix(1.5055399 .86922388 -.95672979 1.6571045 27.560302 21.500167)"/><path d="m60.779363 58.010828a20.708128 18.814091 0 0 1 -3.384016 3.478847l-13.706249-14.103265z" fill="#0cf" transform="matrix(1.6792116 .4499434 -.49523981 1.8482599 -1.895609 30.759984)"/><path d="m62.72377 54.795738a20.708128 18.814091 0 0 1 -2.259683 3.622054l-16.774989-11.031382z" fill="#fc0" transform="matrix(1.7384478 0 -.00000006 1.9134595 -27.951218 47.328031)"/><path d="m61.622863 56.793455a20.708128 18.814091 0 0 1 -1.699251 2.272761l-16.234514-11.679806z" fill="#f00" transform="matrix(1.6792116 -.4499434 .4952397 1.84826 -48.830877 70.075223)"/><path d="m63.123303 53.883448a20.708128 18.814091 0 0 1 -2.370014 4.161918l-17.064191-10.658956z" fill="#0f0" transform="matrix(1.6792116 .4499434 -.49523981 1.8482599 -1.895609 30.759984)"/><path d="m60.947452 57.784124a20.708128 18.814091 0 0 1 -2.615496 2.905857l-14.642858-13.303571z" fill="#7137c8" transform="matrix(-1.5055399 -.86922388 .95672979 -1.6571045 68.439684 254.49984)"/><path d="m60.779363 58.010828a20.708128 18.814091 0 0 1 -3.384016 3.478847l-13.706249-14.103265z" fill="#0cf" transform="matrix(-1.6792116 -.4499434 .49523981 -1.8482599 97.895595 245.24003)"/><path d="m62.72377 54.795738a20.708128 18.814091 0 0 1 -2.259683 3.622054l-16.774989-11.031382z" fill="#fc0" transform="matrix(-1.7384478 0 .00000006 -1.9134595 123.9512 228.67198)"/><path d="m61.622863 56.793455a20.708128 18.814091 0 0 1 -1.699251 2.272761l-16.234514-11.679806z" fill="#f00" transform="matrix(-1.6792116 .4499434 -.4952397 -1.84826 144.83086 205.92479)"/><path d="m63.123303 53.883448a20.708128 18.814091 0 0 1 -2.370014 4.161918l-17.064191-10.658956z" fill="#0f0" transform="matrix(-1.6792116 -.4499434 .49523981 -1.8482599 97.895595 245.24003)"/></g><path d="m48 33.5c-8.008129 0-14.5 6.491871-14.5 14.5s6.491871 14.5 14.5 14.5 14.5-6.491871 14.5-14.5-6.491871-14.5-14.5-14.5zm0 2.5c6.627417 0 12 5.372583 12 12s-5.372583 12-12 12-12-5.372583-12-12 5.372583-12 12-12z" opacity=".2"/><path d="m48 12c-19.88225 0-36 16.117749-36 36 0 .337069.022.665155.0312 1 .53379-19.416215 16.42362-35 35.9688-35 19.545182 0 35.435008 15.583785 35.96875 35 .009205-.334845.03125-.662931.03125-1 0-19.882251-16.117749-36-36-36z" fill="#fefefe" opacity=".4"/></g><g><path d="m12 6c-3.324 0-6 2.676-6 6v2 68 2c0 .334721.04135.6507.09375.96875.0487.295596.09704.596915.1875.875.00988.03038.020892.0636.03125.09375.098865.287771.2348802.547452.375.8125.1445918.273507.3156161.535615.5.78125s.3737765.473472.59375.6875c.439947.428056.94291.814526 1.5 1.09375.278545.139612.5734731.246947.875.34375-.2562018-.100222-.4867109-.236272-.71875-.375-.00741-.0044-.023866.0045-.03125 0-.031933-.0193-.062293-.04251-.09375-.0625-.120395-.0767-.2310226-.163513-.34375-.25-.1061728-.0808-.2132809-.161112-.3125-.25-.1779299-.161433-.3474596-.345388-.5-.53125-.1075789-.130255-.2183939-.265285-.3125-.40625-.025089-.03838-.038446-.08587-.0625-.125-.064763-.103032-.1302275-.204517-.1875-.3125-.1010083-.194706-.2056748-.415701-.28125-.625-.00796-.02181-.023589-.04055-.03125-.0625-.0318251-.09195-.0358045-.186831-.0625-.28125-.0303323-.106618-.0703894-.203031-.09375-.3125-.0728786-.341512-.125-.698205-.125-1.0625v-2-68-2c0-2.781848 2.2181517-5 5-5h2 68 2c2.781848 0 5 2.218152 5 5v2 68 2c0 .364295-.05212.720988-.125 1.0625-.04415.206893-.08838.397658-.15625.59375-.0077.02195-.0233.04069-.03125.0625-.06274.173739-.138383.367449-.21875.53125-.04158.0828-.07904.169954-.125.25-.0546.09721-.126774.18835-.1875.28125-.09411.140965-.204921.275995-.3125.40625-.143174.17445-.303141.346998-.46875.5-.01117.0102-.01998.02115-.03125.03125-.138386.125556-.285091.234436-.4375.34375-.102571.07315-.204318.153364-.3125.21875-.0074.0045-.02384-.0044-.03125 0-.232039.138728-.462548.274778-.71875.375.301527-.0968.596455-.204138.875-.34375.55709-.279224 1.060053-.665694 1.5-1.09375.219973-.214028.409366-.441865.59375-.6875s.355408-.507743.5-.78125c.14012-.265048.276135-.524729.375-.8125.01041-.03078.02133-.06274.03125-.09375.09046-.278085.1388-.579404.1875-.875.0524-.31805.09375-.634029.09375-.96875v-2-68-2c0-3.324-2.676-6-6-6z" fill="url(#g)" opacity=".6"/><path d="m12 90c-3.324 0-6-2.676-6-6v-2-68-2c0-.334721.04135-.6507.09375-.96875.0487-.295596.09704-.596915.1875-.875.00988-.03038.020892-.0636.03125-.09375.098865-.287771.2348802-.547452.375-.8125.1445918-.273507.3156161-.535615.5-.78125s.3737765-.473472.59375-.6875c.439947-.428056.94291-.814526 1.5-1.09375.278545-.139612.5734731-.246947.875-.34375-.2562018.100222-.4867109.236272-.71875.375-.00741.0044-.023866-.0045-.03125 0-.031933.0193-.062293.04251-.09375.0625-.120395.0767-.2310226.163513-.34375.25-.1061728.0808-.2132809.161112-.3125.25-.1779299.161433-.3474596.345388-.5.53125-.1075789.130255-.2183939.265285-.3125.40625-.025089.03838-.038446.08587-.0625.125-.064763.103032-.1302275.204517-.1875.3125-.1010083.194706-.2056748.415701-.28125.625-.00796.02181-.023589.04055-.03125.0625-.0318251.09195-.0358045.186831-.0625.28125-.0303323.106618-.0703894.203031-.09375.3125-.0728786.341512-.125.698205-.125 1.0625v2 68 2c0 2.781848 2.2181517 5 5 5h2 68 2c2.781848 0 5-2.218152 5-5v-2-68-2c0-.364295-.05212-.720988-.125-1.0625-.04415-.206893-.08838-.397658-.15625-.59375-.0077-.02195-.0233-.04069-.03125-.0625-.06274-.173739-.138383-.367449-.21875-.53125-.04158-.0828-.07904-.169954-.125-.25-.0546-.09721-.126774-.18835-.1875-.28125-.09411-.140965-.204921-.275995-.3125-.40625-.143174-.17445-.303141-.346998-.46875-.5-.01117-.0102-.01998-.02115-.03125-.03125-.138386-.125556-.285091-.234436-.4375-.34375-.102571-.07315-.204318-.153364-.3125-.21875-.0074-.0045-.02384.0044-.03125 0-.232039-.138728-.462548-.274778-.71875-.375.301527.0968.596455.204138.875.34375.55709.279224 1.060053.665694 1.5 1.09375.219973.214028.409366.441865.59375.6875s.355408.507743.5.78125c.14012.265048.276135.524729.375.8125.01041.03078.02133.06274.03125.09375.09046.278085.1388.579404.1875.875.0524.31805.09375.634029.09375.96875v2 68 2c0 3.324-2.676 6-6 6z" fill="url(#h)" opacity=".3"/><path d="m12 6c-3.324 0-6 2.676-6 6v43.65625c18.407332-8.873819 43.000654-14.3125 70.0625-14.3125 4.728571 0 9.37768.179348 13.9375.5v-29.84375c0-3.324-2.676-6-6-6z" fill="url(#i)" opacity=".8"/><g fill="none"><path clip-path="url(#r)" d="m12 6c-3.324 0-6 2.676-6 6v72c0 3.324 2.676 6 6 6h72c3.324 0 6-2.676 6-6v-72c0-3.324-2.676-6-6-6zm36 4c20.98682 0 38 17.01318 38 38s-17.01318 38-38 38-38-17.01318-38-38 17.01318-38 38-38z" filter="url(#u)" opacity=".8" stroke="#fefefe" stroke-width="2"/><path d="m87.125656 49.027908a39.648487 39.648487 0 1 1 -79.2969741 0 39.648487 39.648487 0 1 1 79.2969741 0z" stroke="url(#s)" stroke-linecap="round" stroke-width="2.033256" transform="matrix(.69554141 -.6955414 .6955414 .69554141 -19.123277 46.921397)"/><path d="m87.125656 49.027908a39.648487 39.648487 0 1 1 -79.2969741 0 39.648487 39.648487 0 1 1 79.2969741 0z" opacity=".4" stroke="url(#s)" stroke-linecap="round" stroke-width="2.033256" transform="matrix(-.69554141 -.6955414 -.6955414 .69554141 115.12327 46.921397)"/></g></g><g><path d="m79.78125 3.875a1.0880024 1.0880024 0 0 0 -.125.03125c-13.475825 2.439323-27.010406 4.6869802-40.5 7.15625a1.0880024 1.0880024 0 0 0 -.1875.03125c-.708682.253119-1.263533.751646-1.59375 1.3125s-.454585 1.136917-.5 1.6875c-.09083 1.101166.05411 2.163409 0 2.75a1.0880024 1.0880024 0 0 0 0 .09375v43.1875c-3.316202-.166352-6.718919.695994-9.5625 2.46875-3.198918 1.994281-5.694862 5.125541-6.3125 9.0625-.45534 2.9984.703995 5.754549 2.625 7.75 1.90502 1.978846 4.557516 3.259742 7.28125 3.53125.02285.0023.03963.02912.0625.03125v-.03125c3.671482.517455 7.65558-.23243 10.96875-2.09375 3.331567-1.871655 6.001103-4.898453 6.8125-8.875.714339-3.310606.240536-6.550019.375-9.53125a1.0880024 1.0880024 0 0 0 0-.0625v-29.78125l21.75-3.9375v26.46875c-3.316202-.166352-6.718919.695994-9.5625 2.46875-3.198918 1.994281-5.694862 5.125541-6.3125 9.0625-.45534 2.9984.703995 5.754549 2.625 7.75 1.90502 1.978846 4.557516 3.259742 7.28125 3.53125.02286.0023.03963.02912.0625.03125v-.03125c3.671482.517455 7.65558-.23243 10.96875-2.09375 3.331567-1.871655 6.001103-4.898453 6.8125-8.875.714339-3.310606.240536-6.550019.375-9.53125a1.0880024 1.0880024 0 0 0 0-.0625c-.020895-16.892688.041779-33.793852-.03125-50.6875a1.0880024 1.0880024 0 0 0 0-.125c-.205017-1.6520087-1.698694-2.8002969-3.3125-2.6875z" opacity=".05"/><path d="m79.84375 4.96875c.0026-.0002272-.127633.03162-.125.03125a1.081044 1.081044 0 0 0 -.28125.0625l-39.78125 6.96875c.0042-.000697-.160409.03231-.15625.03125.0042-.0011-.160301.06392-.15625.0625.0041-.0014-.191412.06427-.1875.0625.0039-.0018-.159994.0646-.15625.0625.0037-.0021-.128547.09617-.125.09375.0035-.0024-.159574.127717-.15625.125.0033-.0027-.128075.09675-.125.09375.0031-.003-.127803.128252-.125.125.0028-.0033-.09626.159733-.09375.15625.0025-.0035-.127198.128688-.125.125.0022-.0037-.06437.160115-.0625.15625.0019-.0039-.06403.191513-.0625.1875.0015-.004-.06367.16038-.0625.15625.0012-.0041-.03206.160466-.03125.15625.000808-.0042-.03169.19177-.03125.1875.000439-.0043-.03132.160542-.03125.15625a1.081044 1.081044 0 0 0 0 .03125v47.25c-2.03109-.205896-4.184512-.138435-6.375.5625-3.31813 1.061769-6.010154 2.99864-7.71875 5.4375-1.713374 2.44568-2.420363 5.501987-1.40625 8.34375 1.012871 2.838285 3.458859 4.808698 6.34375 5.75 2.880914.940005 6.280292.904024 9.59375-.15625 5.294838-1.694297 9.012603-5.73071 9.40625-10.28125-.0014.0029.06374-.127998.0625-.125-.0012.003.03229-.128073.03125-.125-.001.0031.03209-.128134.03125-.125-.000836.0031.03188-.128183.03125-.125-.000628.0032.03167-.159467.03125-.15625-.000418.0032.000205-.128238 0-.125-.000205.0032.03124-.128244.03125-.125v-38.3125l23.9375-4.3125v28.875c-2.03109-.205896-4.184512-.138435-6.375.5625-3.31813 1.061769-6.010154 2.99864-7.71875 5.4375-1.713374 2.44568-2.420363 5.501987-1.40625 8.34375 1.012871 2.838285 3.458859 4.808698 6.34375 5.75 2.880914.940005 6.280292.904024 9.59375-.15625 5.294838-1.694297 9.012603-5.73071 9.40625-10.28125-.0014.0029.06374-.127998.0625-.125-.0012.003.03229-.128073.03125-.125-.001.0031.03209-.128134.03125-.125-.000836.0031.03188-.128183.03125-.125-.000628.0032.03167-.159467.03125-.15625-.000418.0032.000205-.128238 0-.125-.000205.0032.03124-.128244.03125-.125v-57.96875-.03125c-.000407-.030773-.000078-.095743 0-.09375.000104.00266-.0315-.096398-.03125-.09375.000247.00265-.00039-.1276304 0-.125.00039.00263-.03178-.096356-.03125-.09375.000531.00261-.000671-.1275732 0-.125.000671.00257-.03206-.096283-.03125-.09375.000808.00253-.06344-.096236-.0625-.09375.000943.00249-.03233-.1274317-.03125-.125.0011.00243-.03246-.09612-.03125-.09375.0012.00237-.06383-.096052-.0625-.09375.0013.0023-.06395-.095977-.0625-.09375.0015.00223-.06407-.095895-.0625-.09375.0016.00215-.06418-.064557-.0625-.0625.0017.00206-.06429-.095714-.0625-.09375.0018.00196-.09565-.064364-.09375-.0625.0019.00186-.06449-.095509-.0625-.09375.002.00176-.09584-.064149-.09375-.0625.0021.00165-.09592-.064035-.09375-.0625.0022.00153-.096-.063915-.09375-.0625.0023.00142-.09607-.063792-.09375-.0625.0023.00129-.09614-.032415-.09375-.03125.0024.00117-.0962-.063535-.09375-.0625.0024.00103-.09625-.032151-.09375-.03125s-.0963-.032015-.09375-.03125c.0025.0007649-.127584-.031877-.125-.03125.0026.0006266-.09636-.031736-.09375-.03125.0026.0004864-.09639-.0003449-.09375 0 .0026.0003449-.127651-.031452-.125-.03125.0027.0002023-.09641-.0000592-.09375 0 .0027.0000592-.127658.0000841-.125 0 .0027-.0000841-.0964.0002272-.09375 0z" opacity=".1"/><path d="m79.875 6.0625a.93293399.93293399 0 0 0 -.03125.03125l-40 7a.93293399.93293399 0 0 0 -.78125.90625v48.40625c-2.23251-.392605-4.664497-.349837-7.125.4375-3.115973.997081-5.634735 2.814824-7.1875 5.03125s-2.131269 4.874243-1.25 7.34375c.88146 2.470043 3.021842 4.234177 5.65625 5.09375s5.790858.840645 8.90625-.15625c5.115838-1.637019 8.581953-5.539869 8.75-9.6875a.93293399.93293399 0 0 0 .125-.46875v-39.21875l26.125-4.6875v31.3125c-2.23251-.392605-4.664497-.349837-7.125.4375-3.115973.997081-5.634735 2.814824-7.1875 5.03125s-2.131269 4.874243-1.25 7.34375c.88146 2.470043 3.021842 4.234177 5.65625 5.09375s5.790858.840645 8.90625-.15625c5.115838-1.637019 8.581953-5.539869 8.75-9.6875a.93293399.93293399 0 0 0 .125-.46875v-58a.93293399.93293399 0 0 0 -1.0625-.9375z" opacity=".15"/><path d="m80 7-40 7v49.4375c-2.319276-.626158-5.061972-.588893-7.78125.28125-5.876606 1.880457-9.378262 6.887462-7.84375 11.1875s7.529644 6.255457 13.40625 4.375c5.019769-1.606278 8.288237-5.500996 8.1875-9.28125h.03125v-40l28-5v33.4375c-2.319276-.626158-5.061972-.588893-7.78125.28125-5.876606 1.880457-9.378262 6.887462-7.84375 11.1875s7.529644 6.255457 13.40625 4.375c5.019769-1.606278 8.288237-5.500996 8.1875-9.28125h.03125z" opacity=".3"/><path d="m80 6-40 7v49.4375c-2.319276-.626158-5.061972-.588893-7.78125.28125-5.876606 1.880457-9.378262 6.887462-7.84375 11.1875s7.529644 6.255457 13.40625 4.375c5.019769-1.606278 8.288237-5.500996 8.1875-9.28125h.03125v-40l28-5v33.4375c-2.319276-.626158-5.061972-.588893-7.78125.28125-5.876606 1.880457-9.378262 6.887462-7.84375 11.1875s7.529644 6.255457 13.40625 4.375c5.019769-1.606278 8.288237-5.500996 8.1875-9.28125h.03125z" fill="#0046b5"/><g fill="#00f"><path d="m-55 64v-56l41-7v56h-6v-38l-29 5v40z"/><path d="m51 65a11 8 0 1 1 -22 0 11 8 0 1 1 22 0z" opacity=".735931" transform="matrix(.9673215 -.30953355 .34730992 .97323843 -121.26801 14.620844)"/><path d="m51 65a11 8 0 1 1 -22 0 11 8 0 1 1 22 0z" opacity=".735931" transform="matrix(.9673215 -.30953355 .34730992 .97323843 -86.268005 9.620844)"/></g><path d="m42 16v13l36-7v-13z" fill="url(#G)" filter="url(#A)"/><path d="m79 8-38 7v47.75c.722607.272294 1.402627.590247 2 1v-33.75c0-4 .417188-5.500626 4-7 10.867162-4.547809 27-2 32-15z" fill="url(#C)"/><path d="m80 6-3 .53125v63.71875c1.916539-1.806998 3.027571-4.042676 2.96875-6.25h.03125z" fill="url(#E)"/><path d="m40 13 1 2 38-7 1-2z" fill="url(#B)"/><path d="m77.0625 23.4375-2.0625.34375v33.96875c.722607.272294 1.402627.590247 2 1v-33.75c0-.579491.03663-1.080328.0625-1.5625z" fill="url(#D)"/><path d="m46 29-3 .53125v45.71875c1.916539-1.806998 3.027571-4.042676 2.96875-6.25h.03125z" fill="url(#F)"/><path d="m51 65a11 8 0 1 1 -22 0 11 8 0 1 1 22 0z" fill="url(#K)" transform="matrix(.9673215 -.30953355 .34730992 .97323843 -26.26801 19.620844)"/><path d="m36.59375 62c-1.413615.01337-2.905848.248636-4.375.71875-5.876606 1.880457-9.378262 6.887462-7.84375 11.1875s7.529644 6.255457 13.40625 4.375 9.378262-6.887462 7.84375-11.1875c-1.150884-3.225028-4.790405-5.133844-9.03125-5.09375zm.09375 1.84375c1.225586-.01097 2.347709.174813 3.34375.5 1.992081.650375 3.312347 1.823394 3.84375 3.3125s.260889 3.182456-.90625 4.84375-3.221645 3.202202-5.8125 4.03125-5.195419.775375-7.1875.125-3.312347-1.823394-3.84375-3.3125-.260889-3.182456.90625-4.84375 3.221645-3.202202 5.8125-4.03125c1.295427-.414524 2.618164-.614034 3.84375-.625z" fill="url(#J)" opacity=".2"/><path d="m36.59375 62c-1.413615.01337-2.905848.248636-4.375.71875-5.876606 1.880457-9.378262 6.887462-7.84375 11.1875s7.529644 6.255457 13.40625 4.375 9.378262-6.887462 7.84375-11.1875c-1.150884-3.225028-4.790405-5.133844-9.03125-5.09375zm.03125 1.03125c1.308148-.01099 2.561427.173812 3.65625.53125 2.189647.714875 3.768044 2.055356 4.40625 3.84375s.220391 3.767696-1.0625 5.59375-3.439308 3.433105-6.1875 4.3125-5.529103.839875-7.71875.125-3.768044-2.055356-4.40625-3.84375-.220391-3.767696 1.0625-5.59375 3.439308-3.433105 6.1875-4.3125c1.374096-.439698 2.754352-.645258 4.0625-.65625z" fill="url(#I)" opacity=".5"/><path d="m40 65c1.220869 2.476881-1.444191 5.171368-5.407201 7.124758s-7.723258 2.425975-8.944127-.05091c-1.220869-2.476881 1.002075-6.068326 4.965085-8.021716s8.165374-1.529017 9.386243.947864z" fill="url(#H)"/><path d="m51 65a11 8 0 1 1 -22 0 11 8 0 1 1 22 0z" fill="url(#K)" transform="matrix(.9673215 -.30953355 .34730992 .97323843 7.73199 14.620844)"/><path d="m70.59375 57c-1.413615.01337-2.905848.248636-4.375.71875-5.876606 1.880457-9.378262 6.887462-7.84375 11.1875s7.529644 6.255457 13.40625 4.375 9.378262-6.887462 7.84375-11.1875c-1.150884-3.225028-4.790405-5.133844-9.03125-5.09375zm.09375 1.84375c1.225586-.01097 2.347709.174813 3.34375.5 1.992081.650375 3.312347 1.823394 3.84375 3.3125s.260889 3.182456-.90625 4.84375-3.221645 3.202202-5.8125 4.03125-5.195419.775375-7.1875.125-3.312347-1.823394-3.84375-3.3125-.260889-3.182456.90625-4.84375 3.221645-3.202202 5.8125-4.03125c1.295427-.414524 2.618164-.614034 3.84375-.625z" fill="url(#L)" opacity=".2"/><path d="m70.59375 57c-1.413615.01337-2.905848.248636-4.375.71875-5.876606 1.880457-9.378262 6.887462-7.84375 11.1875s7.529644 6.255457 13.40625 4.375 9.378262-6.887462 7.84375-11.1875c-1.150884-3.225028-4.790405-5.133844-9.03125-5.09375zm.03125 1.03125c1.308148-.01099 2.561427.173812 3.65625.53125 2.189647.714875 3.768044 2.055356 4.40625 3.84375s.220391 3.767696-1.0625 5.59375-3.439308 3.433105-6.1875 4.3125-5.529103.839875-7.71875.125-3.768044-2.055356-4.40625-3.84375-.220391-3.767696 1.0625-5.59375 3.439308-3.433105 6.1875-4.3125c1.374096-.439698 2.754352-.645258 4.0625-.65625z" fill="url(#M)" opacity=".5"/><path d="m74 60c1.220869 2.476881-1.444191 5.171368-5.407201 7.124758s-7.723258 2.425975-8.944127-.05091c-1.220869-2.476881 1.002075-6.068326 4.965085-8.021716s8.165374-1.529017 9.386243.947864z" fill="url(#N)"/></g></svg>