<svg height="96" width="96" xmlns="http://www.w3.org/2000/svg" xmlns:xlink="http://www.w3.org/1999/xlink"><linearGradient id="a"><stop offset="0" stop-color="#f2ffff"/><stop offset="1" stop-color="#fefefe" stop-opacity="0"/></linearGradient><linearGradient id="b"><stop offset="0" stop-color="#fefefe"/><stop offset="1" stop-color="#fefefe" stop-opacity="0"/></linearGradient><linearGradient id="c" gradientUnits="userSpaceOnUse" x1="36.357143" x2="36.357143" xlink:href="#b" y1="6" y2="63.893143"/><filter id="d" color-interpolation-filters="sRGB" height="1.384" width="1.384" x="-.192" y="-.192"><feGaussianBlur stdDeviation="5.28"/></filter><linearGradient id="e" gradientUnits="userSpaceOnUse" x1="48" x2="48" xlink:href="#b" y1="20.220806" y2="138.66119"/><radialGradient id="f" cx="48" cy="90.171875" gradientTransform="matrix(1.1573129 0 0 .99590774 -7.551021 .197132)" gradientUnits="userSpaceOnUse" r="42" xlink:href="#b"/><clipPath id="g"><rect height="84" rx="6" width="84" x="6" y="6"/></clipPath><linearGradient id="h" gradientUnits="userSpaceOnUse" x1="48" x2="48" y1="90" y2="5.987717"><stop offset="0" stop-color="#055aff"/><stop offset="1" stop-color="#00a8ff"/></linearGradient><linearGradient id="i" gradientTransform="matrix(1.0058652 0 0 .994169 100 0)" gradientUnits="userSpaceOnUse" x1="45.447727" x2="45.447727" y1="92.539597" y2="7.01654"><stop offset="0"/><stop offset="1" stop-opacity=".588235"/></linearGradient><linearGradient id="j" gradientTransform="matrix(1.0238095 0 0 1.0119048 -1.142857 -98.071429)" gradientUnits="userSpaceOnUse" x1="32.251034" x2="32.251034" xlink:href="#i" y1="6.131708" y2="90.238609"/><linearGradient id="k" gradientTransform="translate(0 -97)" gradientUnits="userSpaceOnUse" x1="32.251034" x2="32.251034" xlink:href="#i" y1="6.131708" y2="90.238609"/><clipPath id="l"><path d="m-100 0h96v96h-96z"/></clipPath><linearGradient id="m" gradientUnits="userSpaceOnUse" x1="-45.81429299389" x2="-40.95475134546" y1="118.69353469641" y2="54.57607405843"><stop offset="0" stop-color="#cee6ed"/><stop offset="1" stop-color="#d3ffff"/></linearGradient><radialGradient id="n" cx="40.846539" cy="75.263962" gradientTransform="matrix(.9847961 .02597927 -.01823822 .6913564 1.993706 24.820256)" gradientUnits="userSpaceOnUse" r="14.672466" xlink:href="#a"/><radialGradient id="o" cx="54.75" cy="25.072803" gradientTransform="matrix(1.543369 .28142051 -.32722971 1.7945958 -138.17549 -6.046051)" gradientUnits="userSpaceOnUse" r="13"><stop offset="0" stop-color="#fbffff"/><stop offset="1" stop-color="#fefefe" stop-opacity="0"/></radialGradient><radialGradient id="p" cx="56.496048" cy="31.701607" gradientTransform="matrix(.88267832 0 -.00000002 1.115007 -69.080446 51.097006)" gradientUnits="userSpaceOnUse" r="13"><stop offset="0" stop-color="#f1ffff"/><stop offset="1" stop-color="#f7ffff" stop-opacity="0"/></radialGradient><radialGradient id="q" cx="40.846539" cy="75.263962" gradientTransform="matrix(1.0140086 -.2108067 .14799263 .71186442 -88.813534 78.878179)" gradientUnits="userSpaceOnUse" r="14.672466" xlink:href="#a"/><g fill="url(#j)"><path d="m12-95.03125c-5.5110903 0-10.03125 4.52016-10.03125 10.03125v71c0 5.5110902 4.5201598 10.03125 10.03125 10.03125h72c5.51109 0 10.03125-4.5201597 10.03125-10.03125v-71c0-5.51109-4.52016-10.03125-10.03125-10.03125z" opacity=".08" transform="scale(1 -1)"/><path d="m12-94.03125c-4.971633 0-9.03125 4.059617-9.03125 9.03125v71c0 4.9716329 4.0596171 9.03125 9.03125 9.03125h72c4.971633 0 9.03125-4.059617 9.03125-9.03125v-71c0-4.971633-4.059617-9.03125-9.03125-9.03125z" opacity=".1" transform="scale(1 -1)"/><path d="m12-93c-4.4091333 0-8 3.590867-8 8v71c0 4.4091333 3.5908667 8 8 8h72c4.409133 0 8-3.5908667 8-8v-71c0-4.409133-3.590867-8-8-8z" opacity=".2" transform="scale(1 -1)"/><rect height="85" opacity=".3" rx="7" transform="scale(1 -1)" width="86" x="5" y="-92"/></g><rect fill="url(#k)" height="84" opacity=".45" rx="6" transform="scale(1 -1)" width="84" x="6" y="-91"/><rect fill="url(#h)" height="84" rx="6" width="84" x="6" y="6"/><path d="m12 6c-3.324 0-6 2.676-6 6v2 68 2c0 .334721.04135.6507.09375.96875.0487.295596.09704.596915.1875.875.00988.03038.020892.0636.03125.09375.098865.287771.2348802.547452.375.8125.1445918.273507.3156161.535615.5.78125s.3737765.473472.59375.6875c.439947.428056.94291.814526 1.5 1.09375.278545.139612.5734731.246947.875.34375-.2562018-.100222-.4867109-.236272-.71875-.375-.00741-.0044-.023866.0045-.03125 0-.031933-.0193-.062293-.04251-.09375-.0625-.120395-.0767-.2310226-.163513-.34375-.25-.1061728-.0808-.2132809-.161112-.3125-.25-.1779299-.161433-.3474596-.345388-.5-.53125-.1075789-.130255-.2183939-.265285-.3125-.40625-.025089-.03838-.038446-.08587-.0625-.125-.064763-.103032-.1302275-.204517-.1875-.3125-.1010083-.194706-.2056748-.415701-.28125-.625-.00796-.02181-.023589-.04055-.03125-.0625-.0318251-.09195-.0358045-.186831-.0625-.28125-.0303323-.106618-.0703894-.203031-.09375-.3125-.0728786-.341512-.125-.698205-.125-1.0625v-2-68-2c0-2.781848 2.2181517-5 5-5h2 68 2c2.781848 0 5 2.218152 5 5v2 68 2c0 .364295-.05212.720988-.125 1.0625-.04415.206893-.08838.397658-.15625.59375-.0077.02195-.0233.04069-.03125.0625-.06274.173739-.138383.367449-.21875.53125-.04158.0828-.07904.169954-.125.25-.0546.09721-.126774.18835-.1875.28125-.09411.140965-.204921.275995-.3125.40625-.143174.17445-.303141.346998-.46875.5-.01117.0102-.01998.02115-.03125.03125-.138386.125556-.285091.234436-.4375.34375-.102571.07315-.204318.153364-.3125.21875-.0074.0045-.02384-.0044-.03125 0-.232039.138728-.462548.274778-.71875.375.301527-.0968.596455-.204138.875-.34375.55709-.279224 1.060053-.665694 1.5-1.09375.219973-.214028.409366-.441865.59375-.6875s.355408-.507743.5-.78125c.14012-.265048.276135-.524729.375-.8125.01041-.03078.02133-.06274.03125-.09375.09046-.278085.1388-.579404.1875-.875.0524-.31805.09375-.634029.09375-.96875v-2-68-2c0-3.324-2.676-6-6-6z" fill="url(#c)" opacity=".4"/><path d="m12 90c-3.324 0-6-2.676-6-6v-2-68-2c0-.334721.04135-.6507.09375-.96875.0487-.295596.09704-.596915.1875-.875.00988-.03038.020892-.0636.03125-.09375.098865-.287771.2348802-.547452.375-.8125.1445918-.273507.3156161-.535615.5-.78125s.3737765-.473472.59375-.6875c.439947-.428056.94291-.814526 1.5-1.09375.278545-.139612.5734731-.246947.875-.34375-.2562018.100222-.4867109.236272-.71875.375-.00741.0044-.023866-.0045-.03125 0-.031933.0193-.062293.04251-.09375.0625-.120395.0767-.2310226.163513-.34375.25-.1061728.0808-.2132809.161112-.3125.25-.1779299.161433-.3474596.345388-.5.53125-.1075789.130255-.2183939.265285-.3125.40625-.025089.03838-.038446.08587-.0625.125-.064763.103032-.1302275.204517-.1875.3125-.1010083.194706-.2056748.415701-.28125.625-.00796.02181-.023589.04055-.03125.0625-.0318251.09195-.0358045.186831-.0625.28125-.0303323.106618-.0703894.203031-.09375.3125-.0728786.341512-.125.698205-.125 1.0625v2 68 2c0 2.781848 2.2181517 5 5 5h2 68 2c2.781848 0 5-2.218152 5-5v-2-68-2c0-.364295-.05212-.720988-.125-1.0625-.04415-.206893-.08838-.397658-.15625-.59375-.0077-.02195-.0233-.04069-.03125-.0625-.06274-.173739-.138383-.367449-.21875-.53125-.04158-.0828-.07904-.169954-.125-.25-.0546-.09721-.126774-.18835-.1875-.28125-.09411-.140965-.204921-.275995-.3125-.40625-.143174-.17445-.303141-.346998-.46875-.5-.01117-.0102-.01998-.02115-.03125-.03125-.138386-.125556-.285091-.234436-.4375-.34375-.102571-.07315-.204318-.153364-.3125-.21875-.0074-.0045-.02384.0044-.03125 0-.232039-.138728-.462548-.274778-.71875-.375.301527.0968.596455.204138.875.34375.55709.279224 1.060053.665694 1.5 1.09375.219973.214028.409366.441865.59375.6875s.355408.507743.5.78125c.14012.265048.276135.524729.375.8125.01041.03078.02133.06274.03125.09375.09046.278085.1388.579404.1875.875.0524.31805.09375.634029.09375.96875v2 68 2c0 3.324-2.676 6-6 6z" fill="url(#f)" opacity=".2"/><rect height="66" rx="12" style="opacity:.1;stroke:#fefefe;stroke-width:.5;stroke-linecap:round;clip-path:url(#g);fill:url(#e);filter:url(#d)" width="66" x="15" y="15"/><g transform="translate(-2.371521 -12.924679)"><path d="m38.90625 28.90625c-1.233162.08965-2.128617.995255-2.5 1.90625-.349578.857507-.338301 1.743827-.25 2.53125h-.0625v30.375c-6.903989-.613719-14.349628 2.614273-17.5 9.03125-.004.0081.0039.02317 0 .03125-2.374385 4.734334.0051 10.649224 4.75 12.75.01365.006.01756.02527.03125.03125v-.03125c6.934948 3.188484 15.663066 1.316683 20.96875-4.03125.01027-.01035.02101-.02087.03125-.03125.0121-.01076.01927-.02045.03125-.03125 1.82719-1.647533 2.312519-3.825908 3.3125-5.09375a1.0816859 1.0816859 0 0 0 .1875-.375c.573246-2.100056.170271-4.125316.28125-5.75a1.0816859 1.0816859 0 0 0 0-.0625v-17.625l14.8125 1.84375v17.40625c-6.925948-.672557-14.365195 2.625025-17.53125 9.03125-.004.0081.004.02319 0 .03125-2.391709 4.748599.03896 10.676515 4.78125 12.78125.01365.0061.01757.02526.03125.03125v-.03125c6.664168 3.082534 14.897138 1.366406 20.25-3.40625.01724-.01537.04532-.01582.0625-.03125l-.03125-.03125c2.047798-1.620134 2.829642-3.911238 3.875-5.4375a1.0816859 1.0816859 0 0 0 .03125-.0625c.58677-.958525.644213-1.993514.625-2.875-.01921-.881486-.128694-1.657367-.0625-2.25a1.0816859 1.0816859 0 0 0 .03125-.125c-.020842-14.467458.041722-28.933043-.03125-43.40625a1.0816859 1.0816859 0 0 0 -.03125-.1875c-.122919-.687972-.44933-1.282268-.90625-1.6875s-1.004409-.619041-1.5-.75c-.991182-.261919-1.961776-.268404-2.53125-.375a1.0816859 1.0816859 0 0 0 -.0625 0c-10.279641-1.333518-20.571199-2.801006-30.875-4.0625a1.0816859 1.0816859 0 0 0 -.21875-.03125z" opacity=".05"/><path d="m39 30c-1.679787.122119-1.992615 1.999325-1.8125 3.351325v31.429925c-6.786915-1.105158-14.531074 2.135608-17.618677 8.453808-2.102946 4.155868.05148 9.491309 4.254712 11.327563 6.495586 3.001168 14.830233 1.203009 19.803628-3.860271 1.558389-1.366866 2.026111-3.465865 3.247837-5.01485.481365-1.763456.09386-3.688078.21875-5.516406 0-6.286198 0-12.572396 0-18.858594 5.666667.708333 11.333333 1.416667 17 2.125v19.4375c-6.804567-1.17607-14.542242 2.130465-17.647154 8.441694-2.116527 4.164714.07649 9.496688 4.277777 11.336657 6.231706 2.896891 14.118676 1.257688 19.157429-3.269063 1.761149-1.365076 2.467707-3.565152 3.649448-5.290538.843538-1.377972.265329-3.13438.4375-4.675815-.020848-14.471612.041688-28.951481-.03125-43.417935-.345164-1.93187-2.609828-1.676562-4.071999-1.950255-10.288685-1.334691-20.575915-2.789991-30.865501-4.049745z" opacity=".1"/><path d="m-60.96875 32.1875a.81343732.81343732 0 0 0 -.65625.8125v.84375 33.25c-2.388698-.536097-5.029263-.636373-7.84375.125-3.374991.912998-6.234478 2.634696-8.15625 4.8125-1.925419 2.181938-2.930215 4.944319-2.21875 7.625.709547 2.67346 2.93918 4.547726 5.6875 5.46875 2.741661.918793 6.089315.9767 9.46875.0625 5.135724-1.389304 8.953239-4.70348 10.0625-8.625a.81343732.81343732 0 0 0 .53125-.75v-.75-24.0625l19.375 2.40625v21.78125c-2.391944-.542642-5.053265-.669584-7.875.09375-3.379698.914272-6.237209 2.669042-8.15625 4.84375-1.922689 2.178842-2.929758 4.914788-2.21875 7.59375.710813 2.678226 2.966683 4.57772 5.71875 5.5 2.745408.920049 6.064047.943832 9.4375.03125 5.138238-1.389984 8.984874-4.69693 10.09375-8.625a.81343732.81343732 0 0 0 .5-.75v-.75-45.125-.65625a.81343732.81343732 0 0 0 -.6875-.8125l-.65625-.09375a.81343732.81343732 0 0 0 -.03125 0l-31.28125-4.15625-.84375-.09375a.81343732.81343732 0 0 0 -.25 0zm6.875 11.90625 2.8125.40625-2.8125-.34375z" opacity=".15" transform="translate(100 -1)"/><path clip-path="url(#l)" d="m-60.8125 33v.84375 34.1875c-2.478913-.731856-5.37609-.85942-8.4375-.03125-3.237022.875675-5.952991 2.52608-7.75 4.5625s-2.688605 4.515942-2.0625 6.875c.625809 2.357948 2.593729 4.047491 5.15625 4.90625s5.762981.938174 9 .0625c5.178992-1.401009 8.948765-4.81552 9.71875-8.59375h.28125v-.75-25l21 2.625v23.4375c-2.47975-.733086-5.405582-.891146-8.46875-.0625-3.237021.875675-5.95299 2.557331-7.75 4.59375s-2.688605 4.484689-2.0625 6.84375c.62581 2.357948 2.624979 4.078741 5.1875 4.9375s5.731731.906924 8.96875.03125c5.183055-1.402108 8.984336-4.811961 9.75-8.59375h.25v-.75-45.125-.65625l-.65625-.09375-31.28125-4.15625zm5.90625 10.15625 21 2.96875v1.34375l-21-2.59375z" opacity=".31" transform="translate(100 -1)"/><g transform="matrix(.6394564 0 0 .6394564 81.520854 -.302784)"><path d="m-65.015175 50.278074v54.903746c-3.855793-1.50998-8.894464-1.76801-14.09417-.36139-9.717741 2.62883-16.233352 10.00877-14.521267 16.45962 1.712085 6.45086 10.979991 9.56093 20.697733 6.9321 8.256133-2.23343 14.170779-7.8963 14.718388-13.50281h.06571v-40.377001l35.186145 4.369521v39.09572c-3.855791-1.50998-8.894464-1.76801-14.09417-.36139-9.717739 2.62883-16.233352 10.00876-14.521267 16.45962 1.712087 6.45086 10.979991 9.56093 20.697733 6.9321 8.256135-2.23343 14.170779-7.8963 14.718388-13.50281h.06571v-70.542025l-48.918927-6.505001zm6.866391 13.212595 35.186145 4.960885v4.435229l-35.186145-4.369522z" fill="url(#m)" stroke="#9ed1ff" stroke-width="2.345742"/><path d="m56.391766 82.480003a14.672466 9.2807785 0 1 1 -29.344933 0 14.672467 9.2807773 0 1 1 29.344933 0z" fill="url(#n)" transform="matrix(1.0233043 -.24105639 .24105639 1.0233043 -138.19892 40.809487)"/><path d="m-61.35495 88.196416v-33.510614l24.18021 3.942425" fill="none" stroke="url(#o)" stroke-width="3.127656"/><path d="m-19.212614 107.89627v-42.617148" fill="none" stroke="url(#p)" stroke-width="4.93222"/><path d="m-19.248514 124.76865a9.7570074 15.425361 76.744684 1 1 -30.028795 7.07378 9.7570055 15.425361 76.744684 1 1 30.028795-7.07378z" fill="url(#q)"/></g></g></svg>