<svg height="96" width="96" xmlns="http://www.w3.org/2000/svg" xmlns:xlink="http://www.w3.org/1999/xlink"><linearGradient id="a"><stop offset="0" stop-color="#fefefe"/><stop offset="1" stop-color="#fefefe" stop-opacity="0"/></linearGradient><linearGradient id="b" gradientUnits="userSpaceOnUse" x1="36.357143" x2="36.357143" xlink:href="#a" y1="6" y2="63.893143"/><filter id="c" color-interpolation-filters="sRGB" height="1.384" width="1.384" x="-.192" y="-.192"><feGaussianBlur stdDeviation="5.28"/></filter><linearGradient id="d" gradientUnits="userSpaceOnUse" x1="48" x2="48" xlink:href="#a" y1="20.220806" y2="138.66119"/><radialGradient id="e" cx="48" cy="90.171875" gradientTransform="matrix(1.1573129 0 0 .99590774 -7.551021 .197132)" gradientUnits="userSpaceOnUse" r="42" xlink:href="#a"/><clipPath id="f"><rect height="84" rx="6" width="84" x="6" y="6"/></clipPath><linearGradient id="g" gradientUnits="userSpaceOnUse" x1="48" x2="48" y1="90" y2="5.987717"><stop offset="0" stop-color="#282828"/><stop offset="1" stop-color="#5a5a5a"/></linearGradient><linearGradient id="h"><stop offset="0" stop-color="#eeeeec"/><stop offset="1" stop-color="#eeeeec" stop-opacity="0"/></linearGradient><radialGradient id="i" cx="53.419292" cy="66.597893" gradientTransform="matrix(1.0164118 0 0 1.2415079 -19.337623 -31.113008)" gradientUnits="userSpaceOnUse" r="47.724609" xlink:href="#h"/><radialGradient id="j" cx="53.419292" cy="66.597893" gradientTransform="matrix(1.0220726 0 0 1.2415079 -19.896446 -47.863009)" gradientUnits="userSpaceOnUse" r="47.724609" xlink:href="#h"/><radialGradient id="k" cx="53.419292" cy="66.597893" gradientTransform="matrix(1.4750367 0 0 .847859 -55.736923 -9.894244)" gradientUnits="userSpaceOnUse" r="47.724609" xlink:href="#h"/><radialGradient id="l" cx="53.419292" cy="66.597893" gradientTransform="matrix(1.4750367 0 0 .847859 -77.736923 -9.894244)" gradientUnits="userSpaceOnUse" r="47.724609" xlink:href="#h"/><radialGradient id="m" cx="53.419292" cy="66.597893" gradientTransform="matrix(1.0199392 0 0 .85846172 -19.873341 -11.926904)" gradientUnits="userSpaceOnUse" r="47.724609" xlink:href="#h"/><radialGradient id="n" cx="53.419292" cy="66.597893" gradientTransform="matrix(1.0199392 0 0 .85846172 -19.685841 -9.268213)" gradientUnits="userSpaceOnUse" r="47.724609" xlink:href="#h"/><linearGradient id="o" gradientUnits="userSpaceOnUse"><stop offset="0"/><stop offset=".2" stop-opacity=".354839"/><stop offset=".55254942" stop-opacity="0"/><stop offset="1" stop-opacity="0"/></linearGradient><linearGradient id="p" gradientTransform="matrix(.72413795 0 0 .75 1.655173 4.5)" gradientUnits="userSpaceOnUse" x1="43.476658" x2="43.476658" xlink:href="#o" y1="26" y2="34.001266"/><linearGradient id="q" gradientTransform="matrix(1 0 0 1.25 0 -4.598212)" gradientUnits="userSpaceOnUse" x1="48" x2="48" xlink:href="#o" y1="16" y2="11.924657"/><linearGradient id="r" gradientUnits="userSpaceOnUse" x1="50.464287" x2="50.464287" y1="15.357143" y2="19.651315"><stop offset="0" stop-color="#fefefe"/><stop offset=".30000001" stop-color="#fefefe" stop-opacity=".498039"/><stop offset="1" stop-color="#fefefe" stop-opacity="0"/></linearGradient><linearGradient id="s" gradientTransform="matrix(1 0 0 1.25 0 4.401788)" gradientUnits="userSpaceOnUse" x1="48" x2="48" xlink:href="#o" y1="16" y2="11.924657"/><linearGradient id="t" gradientTransform="matrix(.81330712 0 0 .81132563 3.993543 2.028185)" gradientUnits="userSpaceOnUse" x1="11" x2="16" y1="10.441942" y2="24"><stop offset="0" stop-color="#5d5d5d"/><stop offset="1" stop-color="#171717"/></linearGradient><linearGradient id="u" gradientTransform="matrix(.81330712 0 0 .81132563 3.993543 2.028185)" gradientUnits="userSpaceOnUse" x1="13.125" x2="19.25" y1="9.941942" y2="24.5"><stop offset="0" stop-color="#919191"/><stop offset="1" stop-color="#232323"/></linearGradient><radialGradient id="v" cx="11.3125" cy="14.9375" gradientUnits="userSpaceOnUse" r="1.4375"><stop offset="0" stop-color="#dfdfdf"/><stop offset="1" stop-color="#434343"/></radialGradient><linearGradient id="w" gradientTransform="matrix(1.0058652 0 0 .994169 100 0)" gradientUnits="userSpaceOnUse" x1="45.447727" x2="45.447727" y1="92.539597" y2="7.01654"><stop offset="0"/><stop offset="1" stop-opacity=".588235"/></linearGradient><linearGradient id="x" gradientTransform="matrix(1.0238095 0 0 1.0119048 -1.142857 -98.071429)" gradientUnits="userSpaceOnUse" x1="32.251034" x2="32.251034" xlink:href="#w" y1="6.131708" y2="90.238609"/><linearGradient id="y" gradientTransform="translate(0 -97)" gradientUnits="userSpaceOnUse" x1="32.251034" x2="32.251034" xlink:href="#w" y1="6.131708" y2="90.238609"/><radialGradient id="z" cx="47.988014" cy="55.9258" gradientUnits="userSpaceOnUse" r="30.644978" xlink:href="#a"/><linearGradient id="A" gradientUnits="userSpaceOnUse" x1="42.628178" x2="46.097668" y1="52.770008" y2="75.759666"><stop offset="0" stop-color="#fefefe"/><stop offset="1" stop-color="#545454"/></linearGradient><linearGradient id="B" gradientUnits="userSpaceOnUse" x1="8.971826" x2="8.971826" y1="15.022491" y2="4.950248"><stop offset="0" stop-color="#a3a3a3"/><stop offset=".32695314" stop-color="#c7c7c7"/><stop offset=".67500001" stop-color="#dedede"/><stop offset="1" stop-color="#f5f5f5"/></linearGradient><linearGradient id="C" gradientUnits="userSpaceOnUse" x1="42.985443" x2="42.985443" y1="52.656303" y2="62.337585"><stop offset="0"/><stop offset="1" stop-opacity="0"/></linearGradient><g><g fill="url(#x)"><path d="m12-95.03125c-5.5110903 0-10.03125 4.52016-10.03125 10.03125v71c0 5.5110902 4.5201598 10.03125 10.03125 10.03125h72c5.51109 0 10.03125-4.5201597 10.03125-10.03125v-71c0-5.51109-4.52016-10.03125-10.03125-10.03125z" opacity=".08" transform="scale(1 -1)"/><path d="m12-94.03125c-4.971633 0-9.03125 4.059617-9.03125 9.03125v71c0 4.9716329 4.0596171 9.03125 9.03125 9.03125h72c4.971633 0 9.03125-4.059617 9.03125-9.03125v-71c0-4.971633-4.059617-9.03125-9.03125-9.03125z" opacity=".1" transform="scale(1 -1)"/><path d="m12-93c-4.4091333 0-8 3.590867-8 8v71c0 4.4091333 3.5908667 8 8 8h72c4.409133 0 8-3.5908667 8-8v-71c0-4.409133-3.590867-8-8-8z" opacity=".2" transform="scale(1 -1)"/><rect height="85" opacity=".3" rx="7" transform="scale(1 -1)" width="86" x="5" y="-92"/></g><rect fill="url(#y)" height="84" opacity=".45" rx="6" transform="scale(1 -1)" width="84" x="6" y="-91"/></g><rect fill="url(#g)" height="84" rx="6" width="84" x="6" y="6"/><path d="m36.5625 32.0625c-.319303.000003-.56595.04413-.75.125-.182658.07948-.31423.171675-.40625.3125-.09063.139436-.15625.311193-.15625.46875 0 .239827.102775.407731.28125.5625.177079.154772.459488.28158.875.375.253766.05577.43028.12476.5.1875.06972.06275.09375.13927.09375.21875-.000002.08366-.01985.15461-.09375.21875-.07251.06275-.177251.09375-.3125.09375-.181264.000001-.3399-.0634-.4375-.1875-.05996-.07669-.10548-.197344-.125-.34375l-.875.0625c.02649.309543.111716.580466.3125.78125.200783.200784.572269.28125 1.09375.28125.296991 0 .554791-.03995.75-.125.195204-.08645.32874-.209074.4375-.375.108757-.165925.187497-.334648.1875-.53125-.000003-.167318-.04274-.333498-.125-.46875-.08087-.135248-.226384-.25312-.40625-.34375-.178477-.09202-.460885-.16076-.875-.25-.167321-.03485-.26788-.08456-.3125-.125-.04601-.03903-.09375-.0762-.09375-.125 0-.06693.03798-.14148.09375-.1875.05577-.0474.139846-.0625.25-.0625.133854 0 .2372.03101.3125.09375.07669.06275.13254.174464.15625.3125l.875-.0625c-.03904-.317905-.137392-.542487-.34375-.6875-.204969-.146398-.514444-.218747-.90625-.21875zm14.96875 0c-.497778.000003-.877385.127386-1.15625.40625-.278867.278869-.4375.686937-.4375 1.1875 0 .358345.07792.63657.21875.875.140827.238431.336618.421098.5625.53125.227275.110148.497954.15625.84375.15625.340215 0 .616471-.06062.84375-.1875.228667-.128278.411335-.302579.53125-.53125.121301-.230064.187496-.516655.1875-.875-.000004-.493591-.130175-.882958-.40625-1.15625-.27608-.27468-.677177-.406247-1.1875-.40625zm3.375 0c-.319304.000003-.597199.04413-.78125.125-.182658.07948-.31422.171675-.40625.3125-.09063.139436-.125.311193-.125.46875 0 .239827.07153.407731.25.5625.17708.154772.490738.28158.90625.375.253767.05577.39903.12476.46875.1875.06972.06275.124998.13927.125.21875-.000002.08366-.0511.15461-.125.21875-.07251.06275-.177252.09375-.3125.09375-.181265.000001-.30865-.0634-.40625-.1875-.05996-.07669-.10548-.197344-.125-.34375l-.90625.0625c.02649.309543.142966.580466.34375.78125.200783.200784.572269.28125 1.09375.28125.296991 0 .523541-.03995.71875-.125.195204-.08645.359989-.209074.46875-.375.108756-.165925.156247-.334648.15625-.53125-.000003-.167318-.04274-.333498-.125-.46875-.08087-.135248-.195134-.25312-.375-.34375-.178477-.09202-.492135-.16076-.90625-.25-.167321-.03485-.26788-.08456-.3125-.125-.04602-.03903-.0625-.0762-.0625-.125 0-.06693.03798-.14148.09375-.1875.05577-.0474.139847-.0625.25-.0625.133855 0 .2372.03101.3125.09375.07669.06275.10129.174464.125.3125l.90625-.0625c-.03905-.317905-.168642-.542487-.375-.6875-.204969-.146398-.483195-.218747-.875-.21875zm-39.90625.0625v3.0625h.9375v-1.25h1.1875v-.625h-1.1875v-.53125h1.40625v-.65625zm3.3125 0-1.15625 3.0625h.96875l.125-.53125h1.09375l.15625.53125h.96875l-1.125-3.0625zm2.46875 0v3.0625h2.59375v-.71875h-1.65625v-.59375h1.5v-.625h-1.5v-.5h1.59375v-.625zm3.09375 0v3.0625h.90625v-1.6875l1.15625 1.6875h.875v-3.0625h-.875v1.6875l-1.15625-1.6875zm3.5 0v.625h1.53125l-1.6875 1.78125v.65625h2.90625v-.65625h-1.78125l1.71875-1.8125v-.59375zm4.03125 0-1.15625 3.0625h.96875l.125-.53125h1.09375l.15625.53125h.96875l-1.125-3.0625zm6.78125 0v.75h.96875v2.3125h.9375v-2.3125h.96875v-.75zm3.3125 0v1.8125c0 .150589.03519.336044.09375.53125.03625.121307.0899.229415.1875.34375.099.114335.225231.18726.34375.25.118517.06135.261813.10409.4375.125.177079.02091.350804.03125.5.03125.257949 0 .472195-.02543.65625-.09375.132459-.0488.255084-.130087.375-.25.121304-.121306.19422-.277152.25-.4375.05716-.161742.09375-.318736.09375-.5v-1.8125h-.9375v1.84375c-.000002.170109-.06283.31283-.15625.40625-.09203.09203-.211865.125-.375.125-.164533 0-.28158-.03158-.375-.125-.09203-.09481-.156251-.23893-.15625-.40625v-1.84375zm3.59375 0v3.0625h1.40625c.168713 0 .354742-.03798.5625-.09375.15198-.04044.273786-.128693.40625-.25.132459-.1227.2386-.25763.3125-.4375.07529-.181262.124997-.45358.125-.78125 0-.209148-.01231-.406908-.0625-.59375-.0502-.186838-.138456-.35917-.25-.5-.111549-.140825-.266-.2372-.4375-.3125-.170111-.075291-.37878-.093747-.65625-.09375zm3.34375 0v3.0625h.9375v-3.0625zm3.09375.65625c.199387.000003.353018.05365.46875.1875.117126.132464.187498.336376.1875.625-.000002.343007-.07596.58629-.1875.71875-.111549.132463-.26518.21875-.46875.21875-.197997 0-.353022-.0835-.46875-.21875-.114333-.135249-.156251-.346707-.15625-.65625-.000001-.312328.04052-.552247.15625-.6875.115728-.135245.277725-.187497.46875-.1875zm-5.5.03125h.25c.245401.000003.394028.03634.5.15625.105963.119915.187498.362622.1875.6875 0 .245404-.04634.421099-.09375.53125-.04741.108759-.10384.17413-.1875.21875-.08366.04323-.239507.0625-.4375.0625h-.21875zm-27.21875.09375.34375 1.09375h-.6875zm13.09375 0 .34375 1.09375h-.6875zm-8.875 4.96875c-.364643.000002-.649275.05669-.84375.21875-.194472.162065-.3125.417587-.3125.71875 0 .240394.07964.420698.21875.5625.140453.141807.353732.24767.65625.3125l.3125.0625c.183669.04051.31423.07369.375.125.06213.05132.09375.12421.09375.21875-.000002.105341-.06576.19328-.15625.25-.09049.05671-.204836.09375-.375.09375-.167465 0-.350282-.04243-.53125-.09375-.179621-.05267-.369375-.116109-.5625-.21875v.65625c.193125.07158.400625.11979.59375.15625.193123.03647.370724.0625.5625.0625.406505 0 .70907-.08794.90625-.25.19852-.163412.312497-.41642.3125-.75-.000003-.253896-.07695-.424746-.21875-.5625-.141807-.137752-.382472-.24497-.71875-.3125l-.34375-.0625c-.158012-.03241-.25173-.08043-.3125-.125-.05942-.04592-.09375-.10647-.09375-.1875 0-.10804.03586-.19869.125-.25.08913-.05131.219877-.0625.40625-.0625.140453 0 .310736-.0065.46875.03125.158008.03782.302633.11322.46875.1875v-.65625c-.187725-.04997-.355685-.06943-.53125-.09375-.17557-.02566-.333888-.03125-.5-.03125zm2.78125 0c-.364642.000003-.649275.05669-.84375.21875-.194472.162065-.281251.417587-.28125.71875-.000001.240395.07965.420697.21875.5625.140453.141806.353733.24767.65625.3125l.3125.0625c.18367.04051.28298.07368.34375.125.06212.05132.09375.12421.09375.21875-.000001.105342-.03451.19329-.125.25s-.204836.09375-.375.09375c-.167467 0-.350282-.04243-.53125-.09375-.17962-.05267-.369374-.11611-.5625-.21875v.65625c.193126.07158.369375.11979.5625.15625.193123.03647.401974.0625.59375.0625.406505 0 .709071-.08794.90625-.25.19852-.163412.281248-.416421.28125-.75-.000002-.253897-.0457-.424746-.1875-.5625-.141807-.137752-.382472-.24497-.71875-.3125l-.34375-.0625c-.158011-.03241-.25173-.08043-.3125-.125-.05942-.04592-.09375-.10647-.09375-.1875-.000002-.10804.03586-.19869.125-.25.08913-.05131.219876-.0625.40625-.0625.140453 0 .310737-.0066.46875.03125.158009.03782.302634.11322.46875.1875v-.65625c-.187725-.049969-.355685-.06943-.53125-.09375-.175569-.02566-.365137-.031247-.53125-.03125zm6.28125 0c-.349448.05242-.618889.196585-.84375.40625-.299816.279562-.4375.668714-.4375 1.15625 0 .482137.143086.873992.4375 1.15625.294413.280908.683755.40625 1.1875.40625.222834 0 .446916-.01524.65625-.0625.209328-.04727.399272-.12421.59375-.21875v-1.46875h-1.21875v.53125h.46875v.59375c-.05537.0216-.11727.02045-.1875.03125-.06888.0095-.13772.03125-.21875.03125-.298467.000001-.525439-.07578-.6875-.25-.162064-.174215-.250001-.429925-.25-.75-.000001-.322772.08254-.577132.25-.75.168814-.174216.408129-.249998.71875-.25.167463 0 .333884.01524.5.0625.167462.04727.362433.12286.53125.21875v-.625c-.163415-.07428-.346232-.14969-.53125-.1875-.183674-.03781-.392523-.03125-.59375-.03125-.130326.000001-.258517-.01747-.375 0zm-17.09375.03125v3.03125h.75v-2.21875l.6875 1.65625h.5l.6875-1.65625v2.21875h.75v-3.03125h-1l-.6875 1.625-.6875-1.625zm4.125 0v3.03125h2.15625v-.59375h-1.375v-.6875h1.25v-.59375h-1.25v-.5625h1.34375v-.59375zm15.25 0v3.03125h2.15625v-.59375h-1.375v-.6875h1.25v-.59375h-1.25v-.5625h1.3125v-.59375zm-5.84375.03125-1.125 3.03125h.78125l.1875-.5625h1.21875l.1875.5625h.78125l-1.125-3.03125zm.46875.6875.40625 1.21875h-.84375z" fill="url(#n)" opacity=".8"/><path d="m40 39h41v1h-41z" fill="url(#i)" opacity=".8"/><path d="m15 69h66v1h-66z" fill="url(#j)" opacity=".8"/><path d="m59 70v14h-1v-14z" fill="url(#k)" opacity=".8"/><path d="m41.78125 62.875c-.364641.000003-.649276.05669-.84375.21875-.194473.162065-.28125.417586-.28125.71875 0 .240395.07964.420696.21875.5625.140454.141805.353733.24767.65625.3125l.3125.0625c.183669.04051.28298.07368.34375.125.06212.05132.09375.12421.09375.21875-.000002.105341-.03452.19328-.125.25-.09049.05671-.204835.09375-.375.09375-.167466 0-.350281-.04243-.53125-.09375-.17962-.05267-.369376-.11611-.5625-.21875v.65625c.193124.07157.369376.11979.5625.15625.193125.03647.401974.0625.59375.0625.406504 0 .709071-.08794.90625-.25.19852-.163413.281247-.41642.28125-.75-.000003-.253896-.0457-.424745-.1875-.5625-.141808-.137751-.382473-.24497-.71875-.3125l-.34375-.0625c-.158013-.03241-.25173-.08043-.3125-.125-.05942-.045917-.09375-.10647-.09375-.1875 0-.10804.03586-.19868.125-.25.08913-.05131.219875-.0625.40625-.0625.140451 0 .310736-.0066.46875.03125.158008.03782.302634.11322.46875.1875v-.65625c-.187725-.049968-.355683-.06943-.53125-.09375-.175569-.02566-.365137-.031247-.53125-.03125zm3.0625 0c-.338559.05293-.622941.194558-.84375.40625-.294414.28091-.4375.672764-.4375 1.15625 0 .482137.143086.873991.4375 1.15625.294412.280908.683754.40625 1.1875.40625.168813 0 .344688-.02468.5-.0625.155308-.03781.294342-.08197.4375-.15625v-.625c-.144508.09859-.265799.17283-.40625.21875-.140457.04592-.313442.0625-.46875.0625-.278209.000001-.49689-.102981-.65625-.28125-.159363-.178269-.218751-.406778-.21875-.71875-.000001-.313321.05939-.57173.21875-.75.15936-.178264.378041-.249998.65625-.25.155308 0 .328293.01659.46875.0625.140451.04592.261742.12016.40625.21875v-.625c-.143158-.07428-.282192-.14969-.4375-.1875-.155312-.0378-.331187-.03125-.5-.03125-.125937.000001-.230897-.01764-.34375 0zm-18.875.03125v.59375h1v2.4375h.78125v-2.4375h1v-.59375zm3.1875 0v3.03125h2.15625v-.59375h-1.375v-.6875h1.25v-.59375h-1.25v-.5625h1.3125v-.59375zm17.625 0v3.03125h2.15625v-.59375h-1.375v-.6875h1.25v-.59375h-1.25v-.5625h1.3125v-.59375zm2.84375 0v3.03125h.71875v-2.0625l1.125 2.0625h.84375v-3.03125h-.71875v2.09375l-1.09375-2.09375zm3.46875 0v3.03125h2.15625v-.59375h-1.375v-.6875h1.25v-.59375h-1.25v-.5625h1.3125v-.59375zm11.65625 0v.59375h1v2.4375h.78125v-2.4375h1v-.59375zm6.09375 0v3.03125h.78125v-1.1875l1.1875 1.1875h.96875l-1.59375-1.59375 1.4375-1.4375h-.90625l-1.09375 1.125v-1.125zm3.1875 0v3.03125h2.15625v-.59375h-1.375v-.6875h1.25v-.59375h-1.25v-.5625h1.34375v-.59375zm-54.03125.03125v3.03125h.8125c.453773 0 .80436-.06017 1.03125-.125.226885-.06618.431684-.15584.59375-.3125.141802-.136402.24362-.290479.3125-.46875.06887-.179617.09375-.39676.09375-.625-.000002-.225535-.02487-.415479-.09375-.59375-.06888-.178266-.170698-.332345-.3125-.46875-.160716-.156657-.368214-.27892-.59375-.34375-.224187-.06617-.572075-.09375-1.03125-.09375zm4.1875 0-1.09375 3.03125h.78125l.1875-.5625h1.21875l.1875.5625h.78125l-1.125-3.03125zm44.1875 0-1.125 3.03125h.78125l.21875-.5625h1.21875l.1875.5625h.78125l-1.125-3.03125zm-47.59375.59375h.28125c.320071.000002.551284.06209.71875.21875.167457.156663.249997.387686.25.6875-.000003.301167-.08119.52949-.25.6875-.167467.158017-.400029.25-.71875.25h-.28125zm3.875.09375.4375 1.21875h-.84375zm44.1875 0 .40625 1.21875h-.8125z" fill="url(#m)" opacity=".8"/><path d="m37 70v14h-1v-14z" fill="url(#l)" opacity=".8"/><path d="m12 90c-3.324 0-6-2.676-6-6v-2-68-2c0-.334721.04135-.6507.09375-.96875.0487-.295596.09704-.596915.1875-.875.00988-.03038.020892-.0636.03125-.09375.098865-.287771.2348802-.547452.375-.8125.1445918-.273507.3156161-.535615.5-.78125s.3737765-.473472.59375-.6875c.439947-.428056.94291-.814526 1.5-1.09375.278545-.139612.5734731-.246947.875-.34375-.2562018.100222-.4867109.236272-.71875.375-.00741.0044-.023866-.0045-.03125 0-.031933.0193-.062293.04251-.09375.0625-.120395.0767-.2310226.163513-.34375.25-.1061728.0808-.2132809.161112-.3125.25-.1779299.161433-.3474596.345388-.5.53125-.1075789.130255-.2183939.265285-.3125.40625-.025089.03838-.038446.08587-.0625.125-.064763.103032-.1302275.204517-.1875.3125-.1010083.194706-.2056748.415701-.28125.625-.00796.02181-.023589.04055-.03125.0625-.0318251.09195-.0358045.186831-.0625.28125-.0303323.106618-.0703894.203031-.09375.3125-.0728786.341512-.125.698205-.125 1.0625v2 68 2c0 2.781848 2.2181517 5 5 5h2 68 2c2.781848 0 5-2.218152 5-5v-2-68-2c0-.364295-.05212-.720988-.125-1.0625-.04415-.206893-.08838-.397658-.15625-.59375-.0077-.02195-.0233-.04069-.03125-.0625-.06274-.173739-.138383-.367449-.21875-.53125-.04158-.0828-.07904-.169954-.125-.25-.0546-.09721-.126774-.18835-.1875-.28125-.09411-.140965-.204921-.275995-.3125-.40625-.143174-.17445-.303141-.346998-.46875-.5-.01117-.0102-.01998-.02115-.03125-.03125-.138386-.125556-.285091-.234436-.4375-.34375-.102571-.07315-.204318-.153364-.3125-.21875-.0074-.0045-.02384.0044-.03125 0-.232039-.138728-.462548-.274778-.71875-.375.301527.0968.596455.204138.875.34375.55709.279224 1.060053.665694 1.5 1.09375.219973.214028.409366.441865.59375.6875s.355408.507743.5.78125c.14012.265048.276135.524729.375.8125.01041.03078.02133.06274.03125.09375.09046.278085.1388.579404.1875.875.0524.31805.09375.634029.09375.96875v2 68 2c0 3.324-2.676 6-6 6z" fill="url(#e)" opacity=".2"/><rect height="66" rx="12" style="opacity:.1;stroke:#fefefe;stroke-width:.5;stroke-linecap:round;clip-path:url(#f);fill:url(#d);filter:url(#c)" width="66" x="15" y="15"/><path d="m12 6c-3.324 0-6 2.676-6 6v12h84v-12c0-3.324-2.676-6-6-6z"/><g fill-rule="evenodd"><path d="m6 24h84v6h-84z" fill="url(#p)" opacity=".8"/><path d="m6 15h84v5h-84z" fill="url(#r)" opacity=".3"/><g fill="#f0f0f0" transform="translate(1)"><path d="m28.333333 6-5.333333 9 5.333333 9h10.666667l-5.333333-9 5.333333-9z"/><path d="m50.333333 6-5.333333 9 5.333333 9h10.666667l-5.333333-9 5.333333-9z"/><path d="m72.333333 6-5.333333 9 5.333333 9h10.666667l-5.333333-9 5.333333-9z"/></g><path d="m6 10h84v5h-84z" fill="url(#q)" opacity=".7"/><path d="m6 19h84v5h-84z" fill="url(#s)" opacity=".7"/><path d="m12.005391 10.5c1.109513 0 1.770155.983693 6.03003 4.302704 4.304387 3.353689 5.477493 3.726472 5.477493 5.074645 0 1.348423-1.088205 1.622651-2.439921 1.622651h-8.133072c-1.351716 0-2.439921-1.085554-2.439921-2.433977v-6.490605c0-1.348423.467611-2.075418 1.505391-2.075418z" fill="url(#t)" stroke="url(#u)" stroke-linejoin="round"/><path d="m12.75 14.9375a1.4375 1.4375 0 1 1 -2.875 0 1.4375 1.4375 0 1 1 2.875 0z" fill="url(#v)" transform="matrix(.81330712 0 0 .81132563 3.58689 1.074678)"/><path d="m12.75 14.9375a1.4375 1.4375 0 1 1 -2.875 0 1.4375 1.4375 0 1 1 2.875 0z" fill="url(#v)" transform="matrix(.81330712 0 0 .81132563 3.58689 7.09897)"/><path d="m12.75 14.9375a1.4375 1.4375 0 1 1 -2.875 0 1.4375 1.4375 0 1 1 2.875 0z" fill="url(#v)" transform="matrix(.81330712 0 0 .81132563 11.618297 7.09897)"/></g><path d="m12 6c-3.324 0-6 2.676-6 6v2 68 2c0 .334721.04135.6507.09375.96875.0487.295596.09704.596915.1875.875.00988.03038.020892.0636.03125.09375.098865.287771.2348802.547452.375.8125.1445918.273507.3156161.535615.5.78125s.3737765.473472.59375.6875c.439947.428056.94291.814526 1.5 1.09375.278545.139612.5734731.246947.875.34375-.2562018-.100222-.4867109-.236272-.71875-.375-.00741-.0044-.023866.0045-.03125 0-.031933-.0193-.062293-.04251-.09375-.0625-.120395-.0767-.2310226-.163513-.34375-.25-.1061728-.0808-.2132809-.161112-.3125-.25-.1779299-.161433-.3474596-.345388-.5-.53125-.1075789-.130255-.2183939-.265285-.3125-.40625-.025089-.03838-.038446-.08587-.0625-.125-.064763-.103032-.1302275-.204517-.1875-.3125-.1010083-.194706-.2056748-.415701-.28125-.625-.00796-.02181-.023589-.04055-.03125-.0625-.0318251-.09195-.0358045-.186831-.0625-.28125-.0303323-.106618-.0703894-.203031-.09375-.3125-.0728786-.341512-.125-.698205-.125-1.0625v-2-68-2c0-2.781848 2.2181517-5 5-5h2 68 2c2.781848 0 5 2.218152 5 5v2 68 2c0 .364295-.05212.720988-.125 1.0625-.04415.206893-.08838.397658-.15625.59375-.0077.02195-.0233.04069-.03125.0625-.06274.173739-.138383.367449-.21875.53125-.04158.0828-.07904.169954-.125.25-.0546.09721-.126774.18835-.1875.28125-.09411.140965-.204921.275995-.3125.40625-.143174.17445-.303141.346998-.46875.5-.01117.0102-.01998.02115-.03125.03125-.138386.125556-.285091.234436-.4375.34375-.102571.07315-.204318.153364-.3125.21875-.0074.0045-.02384-.0044-.03125 0-.232039.138728-.462548.274778-.71875.375.301527-.0968.596455-.204138.875-.34375.55709-.279224 1.060053-.665694 1.5-1.09375.219973-.214028.409366-.441865.59375-.6875s.355408-.507743.5-.78125c.14012-.265048.276135-.524729.375-.8125.01041-.03078.02133-.06274.03125-.09375.09046-.278085.1388-.579404.1875-.875.0524-.31805.09375-.634029.09375-.96875v-2-68-2c0-3.324-2.676-6-6-6z" fill="url(#b)" opacity=".3"/><g><path d="m32.09375 32.03125c-.152104-.011-.341451-.0247-.59375.03125-.126149.02797-.270301.05727-.4375.1875-.05993.04668-.07301.151007-.125.21875-.345234.140185-.73198.229986-.9375.46875-.323374.375682-.522208.760084-.6875 1.09375a.85683777.85683777 0 0 0 -.0625.375v44.5.03125c-.04588 1.311193.679557 2.350606 1.6875 2.78125v.03125c.0075.0031.02375-.0031.03125 0 .479339.21182.97609.286892 1.46875.21875.413914-.05725.80566-.296869 1.15625-.59375l.03125.03125.21875-.15625 35.5625-21.6875a.85683777.85683777 0 0 0 .0625-.03125c.667943-.467853 1.283543-1.249379 1.34375-2.34375.000605-.011-.000488-.02019 0-.03125.08764-1.17157-.498972-2.066612-1.15625-2.53125a.85683777.85683777 0 0 0 -.0625-.03125c-11.570355-7.156509-23.194749-14.222963-34.78125-21.34375a.85683777.85683777 0 0 0 0-.03125c-.635763-.378729-1.090825-.670727-1.65625-1.03125a.85683777.85683777 0 0 0 -.6875-.09375c.13809-.03908.05405-.02513-.03125-.03125-.0853-.0061-.191646-.02025-.34375-.03125z" opacity=".05"/><path d="m32.681093 32.902284c.556845.355053 1.040953.663626 1.695478 1.053532 11.588866 7.122241 23.213361 14.193357 34.779965 21.347546.481487.340369.903045.931586.8255 1.832783-.039.882984-.417882 1.286349-1.005698 1.698078-11.926916 7.285019-23.853832 14.570039-35.780749 21.855058-.393795.4575-1.311713.554714-1.929359.27229-.618617-.251714-1.200524-1.0757-1.157615-2.034755 0-14.842294 0-29.684712 0-44.526934.336957-.680197.608455-1.303387 1.414863-1.361453.06635-.307603.862715-.05269 1.157615-.136145z" opacity=".08"/><path d="m10.84375 4.71875a.22121677.22121677 0 0 0 -.0625.03125l-8.75 5.0625a.22121677.22121677 0 0 0 -.03125.03125.22121677.22121677 0 0 0 -.03125.03125.22121677.22121677 0 0 0 -.03125.0625.22121677.22121677 0 0 0 0 .0625.22121677.22121677 0 0 0 0 .0625.22121677.22121677 0 0 0 .03125.0625.22121677.22121677 0 0 0 .03125.03125.22121677.22121677 0 0 0 .03125.03125l8.75 5.0625a.22121677.22121677 0 0 0 .0625.03125.22121677.22121677 0 0 0 .09375 0 .22121677.22121677 0 0 0 .09375-.03125.22121677.22121677 0 0 0 .03125-.03125.22121677.22121677 0 0 0 .0625-.125.22121677.22121677 0 0 0 0-.03125v-10.125a.22121677.22121677 0 0 0 0-.03125.22121677.22121677 0 0 0 -.0625-.125.22121677.22121677 0 0 0 -.03125-.03125.22121677.22121677 0 0 0 -.125-.03125.22121677.22121677 0 0 0 -.0625 0z" opacity=".12" transform="matrix(-4.1159661 0 0 4.3566493 76.927729 13.433507)"/><path d="m10.915476 15.049752-8.7464277-5.0497523 8.7464277-5.0497519z" opacity=".3" transform="matrix(-4.1159661 0 0 4.3566493 76.927729 13.433507)"/><path d="m78.632992 55.9258a30.644978 30.644978 0 1 1 -61.289955 0 30.644978 30.644978 0 1 1 61.289955 0z" fill="url(#z)" opacity=".2"/><path d="m10.915476 15.049752-8.7464277-5.0497523 8.7464277-5.0497519z" fill="url(#B)" transform="matrix(-4.1159661 0 0 4.3566493 76.927729 12.433507)"/><path d="m32 34v44l36-22zm.9375 1.59375 33.3125 20.40625-33.3125 20.40625z" fill="url(#A)" opacity=".6"/><g fill="url(#B)"><path d="m10.915476 15.049752-8.7464277-5.0497523 8.7464277-5.0497519z" opacity=".3" transform="matrix(-2.2866478 0 0 2.4203606 46.959849 31.796394)"/><path d="m10.915476 15.049752-8.7464277-5.0497523 8.7464277-5.0497519z" opacity=".15" transform="matrix(-1.6006535 0 0 1.6942524 31.471894 39.057476)"/><path d="m10.915476 15.049752-8.7464277-5.0497523 8.7464277-5.0497519z" opacity=".07" transform="matrix(-.91465913 0 0 .96814421 17.983939 46.318558)"/><path d="m10.915476 15.049752-8.7464277-5.0497523 8.7464277-5.0497519z" opacity=".2" transform="matrix(-2.2866478 0 0 2.4203606 82.959849 31.796394)"/><path d="m10.915476 15.049752-8.7464277-5.0497523 8.7464277-5.0497519z" opacity=".1" transform="matrix(-1.6006535 0 0 1.6942524 89.471895 39.057476)"/><path d="m10.915476 15.049752-8.7464277-5.0497523 8.7464277-5.0497519z" opacity=".05" transform="matrix(-.91465913 0 0 .96814421 93.98394 46.318558)"/></g><path d="m41.0625 54c-.160002.00001-.336966.01602-.53125.03125-.190477.01144-.37506.02441-.53125.0625v3.90625h.5625v-1.46875h.4375c.278093 0 .529046-.01678.75-.0625.22095-.04571.410117-.1197.5625-.21875.156188-.102855.26375-.246248.34375-.40625.0838-.163808.124997-.365176.125-.59375-.000003-.419044-.136551-.727973-.4375-.9375-.297146-.21333-.725062-.312496-1.28125-.3125zm2.4375.03125v3.96875h2.375v-.46875h-1.8125v-3.5zm4.28125 0c-.137144.285718-.249287.58167-.375.875-.125716.289527-.276728.586253-.40625.90625-.125716.320002-.241667.673156-.375 1.03125-.133334.354287-.28512.737203-.4375 1.15625h.59375l.34375-1h1.8125c.06095.17143.0991.332381.15625.5.05714.16381.12273.328572.1875.5h.625c-.152385-.419047-.30417-.801963-.4375-1.15625-.133336-.358094-.276729-.711248-.40625-1.03125-.125717-.319997-.249289-.616723-.375-.90625-.125717-.29333-.23786-.589282-.375-.875zm1.78125 0c.205714.380956.423868.791313.65625 1.1875.23238.396193.487142.779882.75 1.1875v1.59375h.53125v-1.59375c.259045-.403808.517616-.795116.75-1.1875.232378-.396187.450533-.806544.65625-1.1875h-.625c-.148574.312385-.320955.644943-.5.96875-.17905.320002-.344586.609109-.53125.90625-.190478-.297141-.383454-.586248-.5625-.90625-.179049-.323807-.323989-.656365-.46875-.96875zm-9 .46875c.125713-.01144.295058.000004.53125 0 .14857.00001.304165.0084.4375.03125.133331.02286.24471.06406.34375.125.102855.05715.16161.11971.21875.21875.06095.09905.09375.222622.09375.375 0 .160002-.0054.303395-.0625.40625-.05715.102859-.143335.18905-.25.25-.102859.05714-.222621.09833-.375.125-.152383.02286-.340776.03125-.53125.03125h-.40625zm7.46875.1875c.129522.285717.256903.562621.375.875.121902.308573.253093.637323.375.96875h-1.5c.118094-.331427.256904-.660177.375-.96875.121903-.312379.241665-.589283.375-.875z" fill="url(#C)" opacity=".6"/><path d="m40.5625 54.5v.46875c.125713-.01144.295058.000004.53125 0 .14857.00001.304165.0084.4375.03125.133331.02286.24471.06406.34375.125.102855.05715.16161.11971.21875.21875.03048.04953.04668.125178.0625.1875.01916-.08551.03125-.173249.03125-.28125-.000003-.152378-.0328-.275949-.09375-.375-.05714-.09904-.115895-.161604-.21875-.21875-.09904-.06094-.210419-.102139-.34375-.125-.133335-.02285-.28893-.03124-.4375-.03125-.236192.000004-.405537-.01144-.53125 0zm9 0c.205714.380956.423868.791313.65625 1.1875.23238.396193.487142.779882.75 1.1875v-.46875c-.262858-.407618-.51762-.791307-.75-1.1875-.141402-.241075-.274982-.476998-.40625-.71875zm3.09375 0c-.131269.241752-.264851.477675-.40625.71875-.232384.392384-.490955.783692-.75 1.1875v.46875c.259045-.403808.517616-.795116.75-1.1875.232378-.396187.450533-.806544.65625-1.1875zm-4.625.1875c-.133335.285717-.253097.562621-.375.875-.118096.308573-.256906.637323-.375.96875h.1875c.06602-.166901.126795-.341385.1875-.5.121903-.312379.241665-.589283.375-.875.129522.285717.256903.562621.375.875.06266.158615.122453.333099.1875.5h.1875c-.121907-.331427-.253098-.660177-.375-.96875-.118097-.312379-.245478-.589283-.375-.875zm-5.28125.875c-.02077.09939-.05185.199346-.09375.28125-.08.160002-.187562.303395-.34375.40625-.152383.09905-.34155.173037-.5625.21875-.06476.0134-.148905.02252-.21875.03125-.01107.0022-.01982-.002-.03125 0-.160192.01845-.314924.03125-.5.03125-.01114.000059-.02008 0-.03125 0h-.40625v.46875h.4375c.278093 0 .529046-.01678.75-.0625.22095-.04571.410117-.1197.5625-.21875.156188-.102855.26375-.246248.34375-.40625.0838-.163808.124997-.365176.125-.59375 0-.05877-.0258-.101784-.03125-.15625zm4.375 1.4375-.34375 1h-.40625c-.0608.159563-.125282.29765-.1875.46875h.59375l.34375-1h1.8125c.06095.17143.0991.332381.15625.5.05714.16381.12273.328572.1875.5h.625c-.06222-.1711-.126696-.309187-.1875-.46875h-.4375c-.06477-.171428-.13036-.33619-.1875-.5-.05715-.167619-.0953-.32857-.15625-.5h-.15625-1.5zm-7.125 1v.46875h.5625v-.46875zm3.5 0v.46875h2.375v-.46875h-1.8125zm7.46875 0v.46875h.53125v-.46875z" fill="#fefefe" opacity=".8"/></g></svg>