<svg height="96" width="96" xmlns="http://www.w3.org/2000/svg" xmlns:xlink="http://www.w3.org/1999/xlink"><linearGradient id="a" gradientTransform="matrix(-1.0177913 0 0 1.0177913 133.74861 4.496557)" gradientUnits="userSpaceOnUse" x1="56.015255" x2="37.193569" xlink:href="#n" y1="68.026726" y2="97.901985"/><linearGradient id="b" gradientUnits="userSpaceOnUse" x1="46.74114229723" x2="49.889771285" xlink:href="#d" y1="20.29860909888" y2="24.34684753206"/><linearGradient id="c" gradientUnits="userSpaceOnUse" x1="36.30567798498" x2="42.33305638382" xlink:href="#d" y1="26.86575304057" y2="31.45375571609"/><linearGradient id="d"><stop offset="0" stop-color="#fefefe"/><stop offset="1" stop-color="#fefefe" stop-opacity="0"/></linearGradient><linearGradient id="e" gradientUnits="userSpaceOnUse" x1="28.02927666716" x2="31.89759504328" xlink:href="#d" y1="39.8211482" y2="41.25949493633"/><filter id="f" color-interpolation-filters="sRGB" height="1.448066" width="1.516835" x="-.258418" y="-.224033"><feGaussianBlur stdDeviation=".66787627"/></filter><linearGradient id="g" gradientUnits="userSpaceOnUse" x1="79.1373115875" x2="88.52366284871" xlink:href="#p" y1="44.85069418624" y2="41.43217951503"/><linearGradient id="h" gradientTransform="matrix(1.0359658 -.2095277 .2102969 1.0321767 -11.315463 15.897641)" gradientUnits="userSpaceOnUse" x1="74.875" x2="84.097275" xlink:href="#p" y1="38.941628" y2="35.58287"/><linearGradient id="i" gradientTransform="matrix(.870556 -.5993824 .5986024 .8667691 -18.098778 48.048534)" gradientUnits="userSpaceOnUse" x1="74.875" x2="83.12838" xlink:href="#p" y1="38.941628" y2="35.639385"/><linearGradient id="j" gradientTransform="matrix(.6020138 -.8687384 .8666683 .5987482 -14.87273 77.784666)" gradientUnits="userSpaceOnUse" x1="74.875" x2="83.12838" xlink:href="#p" y1="38.941628" y2="35.639385"/><linearGradient id="k" gradientTransform="matrix(.1328041 -1.0485657 1.0452216 .1308634 6.660968 111.57944)" gradientUnits="userSpaceOnUse" x1="74.875" x2="83.12838" xlink:href="#p" y1="38.941628" y2="35.639385"/><linearGradient id="l" gradientTransform="matrix(.06293301 -1.0550671 1.0516015 .06121857 6.5516 120.21699)" gradientUnits="userSpaceOnUse" x1="74.875" x2="83.12838" xlink:href="#p" y1="38.941628" y2="35.639385"/><linearGradient id="m" gradientTransform="matrix(-.04092508 -1.2858808 1.2925499 -.04226923 3.39529 148.83218)" gradientUnits="userSpaceOnUse" x1="74.875" x2="80.838478" xlink:href="#p" y1="38.941628" y2="30.054878"/><linearGradient id="n"><stop offset="0" stop-color="#fbf0e6"/><stop offset="1" stop-color="#fefefe" stop-opacity="0"/></linearGradient><radialGradient id="o" cx="78.875" cy="92.75" gradientTransform="matrix(1 0 0 .4255319 0 53.281915)" gradientUnits="userSpaceOnUse" r="17.625" xlink:href="#n"/><linearGradient id="p"><stop offset="0" stop-color="#7c420f"/><stop offset="1" stop-color="#7d430f" stop-opacity="0"/></linearGradient><linearGradient id="q" gradientUnits="userSpaceOnUse" x1="77.77765233216" x2="92.71115752313" xlink:href="#p" y1="69.88034098858" y2="78.69650927887"/><linearGradient id="r" gradientTransform="matrix(.2675639 -1.0297307 .9819921 .2805713 1.622514 108.72502)" gradientUnits="userSpaceOnUse" x1="32.374496" x2="42.445816" xlink:href="#t" y1="39.800117" y2="70.567589"/><linearGradient id="s" gradientTransform="matrix(.8042512 -.623762 .623762 .8042512 -12.924723 55.730476)" gradientUnits="userSpaceOnUse" x1="32.374496" x2="42.445816" xlink:href="#t" y1="39.800117" y2="70.567589"/><linearGradient id="t"><stop offset="0" stop-color="#9b6638"/><stop offset="1" stop-color="#9b6638" stop-opacity="0"/></linearGradient><linearGradient id="u" gradientTransform="matrix(1.0086059 -.1364298 .1364298 1.0086059 -2.629451 15.439495)" gradientUnits="userSpaceOnUse" x1="32.374496" x2="46.016384" xlink:href="#t" y1="39.800117" y2="60.048954"/><radialGradient id="v" cx="64.531677" cy="47.318687" gradientTransform="matrix(-1.0177913 0 0 1.120023 133.74861 -1.478947)" gradientUnits="userSpaceOnUse" r="41.920063"><stop offset="0" stop-color="#782c1b"/><stop offset=".45161289" stop-color="#bb7d64"/><stop offset=".62851197" stop-color="#d2b097"/><stop offset="1" stop-color="#fef5e3"/></radialGradient><linearGradient id="w" gradientUnits="userSpaceOnUse" x1="48" x2="48" y1="90" y2="5.987717"><stop offset="0" stop-color="#a77549"/><stop offset="1" stop-color="#d2b397"/></linearGradient><linearGradient id="x" gradientUnits="userSpaceOnUse" x1="36.357143" x2="36.357143" xlink:href="#d" y1="6" y2="63.893143"/><radialGradient id="y" cx="48" cy="90.171875" gradientTransform="matrix(1.1573129 0 0 .99590774 -7.551021 .197132)" gradientUnits="userSpaceOnUse" r="42" xlink:href="#d"/><clipPath id="z"><rect height="84" rx="6" width="84" x="6" y="6"/></clipPath><filter id="A" color-interpolation-filters="sRGB" height="1.384" width="1.384" x="-.192" y="-.192"><feGaussianBlur stdDeviation="5.28"/></filter><linearGradient id="B" gradientUnits="userSpaceOnUse" x1="48" x2="48" xlink:href="#d" y1="20.220806" y2="138.66119"/><linearGradient id="C" gradientTransform="matrix(1.0058652 0 0 .994169 100 0)" gradientUnits="userSpaceOnUse" x1="45.447727" x2="45.447727" y1="92.539597" y2="7.01654"><stop offset="0"/><stop offset="1" stop-opacity=".588235"/></linearGradient><linearGradient id="D" gradientTransform="matrix(1.0238095 0 0 1.0119048 -1.142857 -98.071429)" gradientUnits="userSpaceOnUse" x1="32.251034" x2="32.251034" xlink:href="#C" y1="6.131708" y2="90.238609"/><linearGradient id="E" gradientTransform="translate(0 -97)" gradientUnits="userSpaceOnUse" x1="32.251034" x2="32.251034" xlink:href="#C" y1="6.131708" y2="90.238609"/><g><g fill="url(#D)"><path d="m12-95.03125c-5.5110903 0-10.03125 4.52016-10.03125 10.03125v71c0 5.5110902 4.5201598 10.03125 10.03125 10.03125h72c5.51109 0 10.03125-4.5201597 10.03125-10.03125v-71c0-5.51109-4.52016-10.03125-10.03125-10.03125z" opacity=".08" transform="scale(1 -1)"/><path d="m12-94.03125c-4.971633 0-9.03125 4.059617-9.03125 9.03125v71c0 4.9716329 4.0596171 9.03125 9.03125 9.03125h72c4.971633 0 9.03125-4.059617 9.03125-9.03125v-71c0-4.971633-4.059617-9.03125-9.03125-9.03125z" opacity=".1" transform="scale(1 -1)"/><path d="m12-93c-4.4091333 0-8 3.590867-8 8v71c0 4.4091333 3.5908667 8 8 8h72c4.409133 0 8-3.5908667 8-8v-71c0-4.409133-3.590867-8-8-8z" opacity=".2" transform="scale(1 -1)"/><rect height="85" opacity=".3" rx="7" transform="scale(1 -1)" width="86" x="5" y="-92"/></g><rect fill="url(#E)" height="84" opacity=".45" rx="6" transform="scale(1 -1)" width="84" x="6" y="-91"/></g><g><rect fill="url(#w)" height="84" rx="6" width="84" x="6" y="6"/><path d="m12 6c-3.324 0-6 2.676-6 6v2 68 2c0 .334721.04135.6507.09375.96875.0487.295596.09704.596915.1875.875.00988.03038.020892.0636.03125.09375.098865.287771.2348802.547452.375.8125.1445918.273507.3156161.535615.5.78125s.3737765.473472.59375.6875c.439947.428056.94291.814526 1.5 1.09375.278545.139612.5734731.246947.875.34375-.2562018-.100222-.4867109-.236272-.71875-.375-.00741-.0044-.023866.0045-.03125 0-.031933-.0193-.062293-.04251-.09375-.0625-.120395-.0767-.2310226-.163513-.34375-.25-.1061728-.0808-.2132809-.161112-.3125-.25-.1779299-.161433-.3474596-.345388-.5-.53125-.1075789-.130255-.2183939-.265285-.3125-.40625-.025089-.03838-.038446-.08587-.0625-.125-.064763-.103032-.1302275-.204517-.1875-.3125-.1010083-.194706-.2056748-.415701-.28125-.625-.00796-.02181-.023589-.04055-.03125-.0625-.0318251-.09195-.0358045-.186831-.0625-.28125-.0303323-.106618-.0703894-.203031-.09375-.3125-.0728786-.341512-.125-.698205-.125-1.0625v-2-68-2c0-2.781848 2.2181517-5 5-5h2 68 2c2.781848 0 5 2.218152 5 5v2 68 2c0 .364295-.05212.720988-.125 1.0625-.04415.206893-.08838.397658-.15625.59375-.0077.02195-.0233.04069-.03125.0625-.06274.173739-.138383.367449-.21875.53125-.04158.0828-.07904.169954-.125.25-.0546.09721-.126774.18835-.1875.28125-.09411.140965-.204921.275995-.3125.40625-.143174.17445-.303141.346998-.46875.5-.01117.0102-.01998.02115-.03125.03125-.138386.125556-.285091.234436-.4375.34375-.102571.07315-.204318.153364-.3125.21875-.0074.0045-.02384-.0044-.03125 0-.232039.138728-.462548.274778-.71875.375.301527-.0968.596455-.204138.875-.34375.55709-.279224 1.060053-.665694 1.5-1.09375.219973-.214028.409366-.441865.59375-.6875s.355408-.507743.5-.78125c.14012-.265048.276135-.524729.375-.8125.01041-.03078.02133-.06274.03125-.09375.09046-.278085.1388-.579404.1875-.875.0524-.31805.09375-.634029.09375-.96875v-2-68-2c0-3.324-2.676-6-6-6z" fill="url(#x)" opacity=".4"/><path d="m12 90c-3.324 0-6-2.676-6-6v-2-68-2c0-.334721.04135-.6507.09375-.96875.0487-.295596.09704-.596915.1875-.875.00988-.03038.020892-.0636.03125-.09375.098865-.287771.2348802-.547452.375-.8125.1445918-.273507.3156161-.535615.5-.78125s.3737765-.473472.59375-.6875c.439947-.428056.94291-.814526 1.5-1.09375.278545-.139612.5734731-.246947.875-.34375-.2562018.100222-.4867109.236272-.71875.375-.00741.0044-.023866-.0045-.03125 0-.031933.0193-.062293.04251-.09375.0625-.120395.0767-.2310226.163513-.34375.25-.1061728.0808-.2132809.161112-.3125.25-.1779299.161433-.3474596.345388-.5.53125-.1075789.130255-.2183939.265285-.3125.40625-.025089.03838-.038446.08587-.0625.125-.064763.103032-.1302275.204517-.1875.3125-.1010083.194706-.2056748.415701-.28125.625-.00796.02181-.023589.04055-.03125.0625-.0318251.09195-.0358045.186831-.0625.28125-.0303323.106618-.0703894.203031-.09375.3125-.0728786.341512-.125.698205-.125 1.0625v2 68 2c0 2.781848 2.2181517 5 5 5h2 68 2c2.781848 0 5-2.218152 5-5v-2-68-2c0-.364295-.05212-.720988-.125-1.0625-.04415-.206893-.08838-.397658-.15625-.59375-.0077-.02195-.0233-.04069-.03125-.0625-.06274-.173739-.138383-.367449-.21875-.53125-.04158-.0828-.07904-.169954-.125-.25-.0546-.09721-.126774-.18835-.1875-.28125-.09411-.140965-.204921-.275995-.3125-.40625-.143174-.17445-.303141-.346998-.46875-.5-.01117-.0102-.01998-.02115-.03125-.03125-.138386-.125556-.285091-.234436-.4375-.34375-.102571-.07315-.204318-.153364-.3125-.21875-.0074-.0045-.02384.0044-.03125 0-.232039-.138728-.462548-.274778-.71875-.375.301527.0968.596455.204138.875.34375.55709.279224 1.060053.665694 1.5 1.09375.219973.214028.409366.441865.59375.6875s.355408.507743.5.78125c.14012.265048.276135.524729.375.8125.01041.03078.02133.06274.03125.09375.09046.278085.1388.579404.1875.875.0524.31805.09375.634029.09375.96875v2 68 2c0 3.324-2.676 6-6 6z" fill="url(#y)" opacity=".25"/></g><rect height="66" rx="12" style="opacity:.15;stroke:#fefefe;stroke-width:.5;stroke-linecap:round;clip-path:url(#z);fill:url(#B);filter:url(#A)" width="66" x="15" y="15"/><g><g fill="#280b0b"><path d="m45.6875 10c-12.900235-.2550045-25.064826 8.383553-29.936626 20.180392-5.314424 11.406803-4.597471 25.268127 1.687965 36.13735 5.29697 9.656689 14.694548 16.80284 25.322664 19.591421 12.89527 3.777877 27.219661 2.976648 39.457247-2.596663 3.043648-2.363793 1.009801-6.16082.354182-9.153578-2.307976-8.67979-7.265317-16.960398-14.617169-22.139541-.956263-1.78699 3.622402-4.478993 3.897167-7.214628 6.112108-14.228062-4.585916-32.393876-19.851034-34.359479-2.097534-.23507-4.197551-.4922403-6.314396-.445274z" opacity=".05"/><path d="m45.6875 11.03125c-11.675016-.160471-22.633478 6.942013-27.875 17.21875-.0041.008.0041.02325 0 .03125-5.878608 10.817506-6.260269 24.406145-.5625 35.40625.0039.008-.0039.02321 0 .03125 4.420866 9.139646 12.313927 16.49158 21.9375 19.90625 13.499659 5.113819 29.018697 4.730298 42.25-1.03125a1.0917761 1.0917761 0 0 0 .25-.15625c.585513-.481245.958357-1.144154 1.09375-1.78125s.079882-1.235508-.03125-1.78125c-.222264-1.091484-.619146-2.051073-.6875-2.625a1.0917761 1.0917761 0 0 0 -.03125-.125c-2.082149-8.682021-6.492775-17.161209-13.90625-22.625-.04325-.04353-.08028-.05157-.125-.09375-.901529-.850422-2.080808-1.461434-2.53125-1.875.01563.01266-.02397.01234.46875-.21875a1.0917761 1.0917761 0 0 0 .25-.1875c6.470216-5.831186 7.973092-15.501975 4.8125-23.34375-.0031-.0087.0031-.02253 0-.03125-3.052761-8.536936-10.752782-15.557533-20.0625-16.375-.02057-.0028-.04193.0028-.0625 0-1.71491-.234381-3.442668-.359535-5.1875-.34375z" opacity=".1"/><path d="m45.673392 12.117328c-11.228116-.154328-21.851134 6.756392-26.899554 16.676136-5.721357 10.508882-6.105503 23.747447-.569264 34.414129 4.296155 8.897225 12.016365 16.063585 21.359642 19.378799 13.223094 5.009053 28.465628 4.665668 41.425263-.977583 1.646384-1.353195.178211-3.579916-.020434-5.247807-2.049553-8.546104-6.399624-16.822554-13.618131-22.084623-1.341477-1.350429-5.037112-2.480753-1.882618-3.960233 6.090316-5.488807 7.548463-14.730939 4.536264-22.173791-2.916377-8.198869-10.374696-14.932294-19.230044-15.683178-1.689398-.233484-3.395546-.357279-5.101124-.341849z" opacity=".2"/><path d="m61.78125 15.8125c-21.928715.198264-37.078311 16.85477-40.28125 38.34375-3.126799 20.978163 9.530136 40.125495 22.09375 48.125 17.33432 11.03711 42.573079 13.35472 64.4375 4.34375a1.2167828 1.2167828 0 0 0 .71875-1.375c-5.42153-25.3762-15.494397-30.66524-24.9375-37.8125 4.397758-2.869726 8.064279-7.223975 10.03125-13.15625 2.366328-7.136711.985527-15.622561-3.03125-22.78125s-10.724881-13.028869-19.25-14.71875c-3.378938-.667507-6.644542-.99711-9.78125-.96875z" opacity=".4" transform="matrix(.7449669 0 0 .7449669 -.351594 1.431709)"/></g><g transform="matrix(.7449669 0 0 .7449669 -.351594 .308865)"><path d="m68.627834 51.588238c-.351035-3.350795 1.634311-3.141899.677904-3.929722-1.927455-1.587707-5.49783.0014-6.416327 1.922361-1.642975 3.436088.868733 7.234227 4.288135 8.14146 3.263073.865756 7.76403-1.42849 9.205997-6.16232 1.921915-6.30945-1.084173-11.092999-7.226856-12.75666-7.729939-2.093548-14.945885 2.504988-16.822686 10.057833-2.273059 9.147507 4.440347 18.680906 13.404169 20.76597 5.281777 1.228588 10.961146.493827 15.850171-2.14672 4.889025-2.640548 8.987843-7.186835 11.108109-13.581438 4.459154-13.448557-5.149634-32.721994-21.380701-35.939376-26.445611-5.224313-45.025962 12.350922-48.608872 36.389177-3.039349 20.391447 9.415987 39.169533 21.543238 46.891197 16.945823 10.78975 41.82555 13.10951 63.315025 4.25307-8.19923-38.377593-26.271357-28.906297-38.937306-53.904832z" fill="url(#v)"/><path d="m27.201156 63.23419c.729961 11.788644 6.343335 28.491546 17.86159 28.177906 9.209944-.250785 17.573565-16.477396 11.845852-20.779747-7.017001-5.270795-6.453505-11.355628-8.965269-15.552484-5.039377-8.420198-21.49891-4.066712-20.742173 8.154325z" fill="url(#u)" fill-rule="evenodd" opacity=".35"/><path d="m36.08629 85.051916c6.54247 9.83367 19.774167 23.760674 29.582639 17.713984 7.842809-4.834908 7.706335-28.284119.593423-29.134653-8.714004-1.041988-11.277433-6.589199-15.554972-8.960955-8.582069-4.75848-21.403532 10.18727-14.62109 20.381624z" fill="url(#s)" fill-rule="evenodd" opacity=".25"/><path d="m58.414543 102.39051c10.929955 4.6448 30.087193 7.44058 34.288699-3.810221 3.359502-8.996089-10.849241-28.557611-17.04411-24.785441-7.589313 4.621274-12.973042 1.589676-17.817044 2.299498-9.718572 1.424119-17.846763 18.468717.572455 26.296164z" fill="url(#r)" fill-rule="evenodd" opacity=".15"/><path d="m82.365656 68.022861c7.834938 5.3854 13.314213 10.705346 13.314213 10.705346-18.531944-10.705346-25.908738-2.492344-36.074318-10.768746 0 0 6.657106 5.191171 22.760105.0634z" fill="url(#q)" fill-rule="evenodd" opacity=".5"/><path d="m96.5 92.75a17.625 7.5 0 1 1 -35.25 0 17.625 7.5 0 1 1 35.25 0z" fill="url(#o)" transform="matrix(1.0755383 0 0 1.17046 -2.133504 -8.816554)"/><g fill-rule="evenodd"><path d="m51.386737 50.882229c-9.717584-8.378173-21.21377 1.538021-21.21377 1.538021l11.193652-10.755873s9.627732 3.563412 10.020118 9.217852z" fill="url(#m)" opacity=".8"/><path d="m52.801962 43.636979c-5.087457-8.531155-16.521048-3.389467-16.521048-3.389467l10.377837-5.406088s6.247641 4.140333 6.143211 8.795555z" fill="url(#l)" opacity=".8"/><path d="m57.890919 38.237194c-4.510154-8.849935-16.259726-4.478263-16.259726-4.478263l10.713689-4.705544s5.959137 4.545775 5.546037 9.183807z" fill="url(#k)" opacity=".8"/><path d="m64.436448 36.388431c.086364-9.932541-12.354173-11.480762-12.354173-11.480762l11.6759.773719s3.18649 6.783926.678273 10.707043z" fill="url(#j)" opacity=".8"/><path d="m70.728892 37.407158c3.596768-9.258839-6.657883-15.276528-6.657883-15.276528l9.813688 5.022663s.578739 7.472646-3.155805 10.253865z" fill="url(#i)" opacity=".8"/><path d="m74.559199 40.980229c6.942655-7.103687 2.933786-16.042323 2.933786-16.042323l4.324863 7.991637s-2.7321 6.958735-7.258649 8.050686z" fill="url(#h)" opacity=".8"/><path d="m79.137313 45.418999c7.916559-5.397654 5.8523-14.63075 5.8523-14.63075l2.544478 8.396778s-3.915721 6.066876-8.396778 6.233972z" fill="url(#g)" opacity=".8"/><path d="m69.21875 18.0625-1.53125.03125c9.66639 9.823664 5.556177 16.981171 2.1875 19.9375l1.28125.9375c3.339533-3.259084 2.749041-6.480159 3.96875-6.78125 1.158019-.285865 2.104538 1.590128 2.78125.84375.676709-.74638-1.161856-1.525818-2.53125-3.84375-1.369394-2.317933-.618692-4.660884-6.15625-11.125zm-13.9375.0625-1.96875.65625c13.135091 6.134364 12.886814 14.278157 10.625 18.4375l1.65625.40625c2.111774-4.440984.219109-7.331986 1.34375-8.09375 1.067764-.723238 2.512495.358071 2.90625-.625.393758-.983072-1.415835-1.673209-4.09375-2.9375-2.644204-1.248378-2.25095-3.726539-10.46875-7.84375zm22.96875 2.9375c6.742867 12.277107.700612 18.128451-3.625 19.71875l.9375 1.28125c4.134778-2.162806 4.3702-4.718101 5.625-4.65625 1.191335.05872 1.168705 2.739364 2.03125 2.21875.862543-.520614-.322666-1.886451-.96875-4.5-.646081-2.613548 1.79436-4.845437-2.53125-13.6875zm-38.40625 3.875-1.84375 1.34375c16.789227.715059 20.230342 9.044324 19.625 13.75l1.8125-.9375c-.128957-6.383988-4.061004-7.963438-3.1875-9.09375.829328-1.073149 3.039357-.159777 3.03125-1.21875-.0081-1.058973-2.25862-1.029082-5.6875-1.1875-3.38572-.156426-4.383081-1.860314-13.75-2.65625zm9.09375 6.5625c-.800063-.07402-2.314103.712995-3.65625 1.4375-1.720277.928624-5.446036-1.107252-14.53125 2.46875l-1.34375 1.8125c16.412301-6.14655 21.924504.45507 23.65625 7.375l1.4375-1.46875c-2.485292-7.671463-7.057276-7.628671-6.5625-8.96875.469756-1.272306 1.856224-1.242089 1.53125-2.25-.081243-.251978-.264562-.381575-.53125-.40625zm39.75.5625c-.717936 7.214396-3.566305 10.41482-6.21875 11.90625s-5.125 1.25-5.125 1.25l-.09375 1s2.761145.270446 5.6875-1.375c.502834-.282736 1.000627-.655131 1.5-1.0625.349098 2.324895.367669 4.373829.125 6.1875-.587827.183939-1.173105.33465-1.71875.40625-2.910109.381865-5.0625-.625-5.0625-.625l-.40625.875s2.408458 1.105475 5.59375.6875c.465526-.06109.943619-.177126 1.4375-.3125-.429403 2.209763-1.233175 4.031371-2.21875 5.5625-.575395-.05743-1.129686-.145467-1.625-.28125-2.66541-.730681-4.15625-2.34375-4.15625-2.34375l-.65625.59375s1.650253 1.795402 4.5625 2.59375c.409084.112144.853936.185056 1.3125.25-1.021273 1.392898-2.176757 2.519752-3.28125 3.4375-.182107.151317-.370984.298603-.5625.4375-.511165-.288775-.977585-.610013-1.375-.9375-1.942554-1.600747-2.5625-3.4375-2.5625-3.4375l-.875.28125s.743924 2.087653 2.875 3.84375c.333894.275143.718804.530347 1.125.78125-1.429824.855666-3.065128 1.409342-4.75 1.65625-.245163-.345551-.471828-.690115-.65625-1.03125-1.086621-2.009978-1.15625-3.78125-1.15625-3.78125l-.875.03125s.101789 1.974539 1.28125 4.15625c.130032.240527.278621.474479.4375.71875-1.439109.111903-2.908631.036078-4.3125-.28125-.595547-2.661037.0625-4.75.0625-4.75l-.78125-.21875s-.616975 2.075652-.125 4.75c-.956592-.280301-1.862919-.670952-2.71875-1.15625-.411793-.233506-.79324-.485512-1.15625-.75.726818-2.430237 2.1875-4.0625 2.1875-4.0625l-1.09375-.6875s-1.075499 1.893201-1.65625 4.3125c-1.217677-1.008847-2.101702-2.18799-2.71875-3.46875 1.609099-1.639755 3.625-2.0625 3.625-2.0625l-.5625-1.03125c0 .000001-1.880448.695941-3.40625 2.34375-.44173-1.147579-.665727-2.351862-.6875-3.5625 2.088179-.736318 4-.0625 4-.0625l-.03125-1.15625c-.000001 0-1.943422-.361651-3.96875.375.05239-.900465.232777-1.788915.5-2.65625 2.143661.118103 3.625 1.375 3.625 1.375l.40625-1.09375c0 .000001-1.636105-1.019057-3.75-1.09375.187904-.478285.404135-.954651.65625-1.40625.24746-.443262.517466-.848155.8125-1.21875 1.823145.785565 2.75 2.3125 2.75 2.3125l.6875-.875c-.000001.000001-1.095344-1.323727-2.875-2.0625.610488-.622408 1.298493-1.107615 2.03125-1.46875 1.360857 1.324377 1.625 3.03125 1.625 3.03125l.875-.5c.000001 0-.494442-1.574606-1.8125-2.84375.813283-.299356 1.681195-.433005 2.5625-.4375.67488 1.649896.25 3.21875.25 3.21875l.96875-.09375c.000001.000001.153456-1.511739-.5-3.09375.696717.05999 1.42724.198725 2.125.4375-.07251 1.914713-1.28125 3.21875-1.28125 3.21875l.90625.375c.000002 0 .986378-1.461615 1.03125-3.34375.302471.12942.608992.274201.90625.4375.330503.181562.653184.410071.9375.6875-.696805 1.621633-2.125 2.4375-2.125 2.4375l.71875.59375c.000001 0 1.234945-.911711 1.90625-2.4375.386417.506834.679264 1.083257.90625 1.71875-1.179436 1.029881-2.5625 1.1875-2.5625 1.1875l.375.78125c.000001 0 1.285711-.331228 2.40625-1.3125.145419.581269.226228 1.188985.21875 1.78125-1.313618.2802-2.40625-.1875-2.40625-.1875l-.03125.78125c-.000001 0 1.11001.286951 2.375 0-.06644.636274-.209438 1.240324-.46875 1.78125-1.422988-.155311-2.3125-1.15625-2.3125-1.15625l-.3125.625c.000001 0 .99358.853957 2.375 1-.290423.454277-.664554.842841-1.09375 1.15625-.937602-.665904-1.21875-1.6875-1.21875-1.6875l-.46875.34375c-.000001.000001.421646.923085 1.3125 1.5625-.42039.248689-.872579.43772-1.34375.53125-.40747-1.089393-.0625-2.09375-.0625-2.09375h-.5625c.000001-.000001-.220379 1.076768.21875 2.15625-.535067.04977-1.080356-.02792-1.59375-.21875.11297-1.139958.84375-1.90625.84375-1.90625l-.375-.1875c.09761.03415.203285.0625.3125.0625.521413 0 .937503-.416085.9375-.9375 0-.222213-.09018-.432373-.21875-.59375.03113-.0718.07712-.146992.09375-.21875.102372-.441835.05327-.89159-.21875-1.28125-.467998-.670379-1.252365-.876375-1.9375-.78125-.41677.05786-.811588.239653-1.15625.46875-.73647-.191575-1.656739-.156743-2.78125.40625 1.002499-.315777 1.804646-.315836 2.4375-.15625-.09091.0823-.171518.157313-.25.25-.250056.295315-.408539.63136-.53125.96875-.829385.239192-1.687549.84515-2.3125 2.21875.698399-1.052153 1.459333-1.559151 2.15625-1.78125-.102444.498909-.08218 1.014438.03125 1.5.03166.135515.07928.275482.125.40625-.394569.669446-.581429 1.606937-.3125 2.875-.05386-1.077067.171394-1.861322.5-2.4375.196797.401313.462729.775132.78125 1.09375-.08165.763968.100095 1.682867.84375 2.71875-.485749-.971579-.60391-1.775161-.53125-2.4375.08315.06743.161361.126398.25.1875.327497.225757.679849.404406 1.03125.53125.206302.716101.707764 1.473356 1.71875 2.15625-.755454-.708159-1.16837-1.408952-1.34375-2.03125.673897.175247 1.358347.159378 2.03125.03125.493927.565677 1.279925 1.036095 2.5 1.21875-1.017727-.323343-1.668513-.808778-2.09375-1.3125.651017-.180502 1.266723-.491928 1.8125-.90625.734699.198258 1.682921.146504 2.8125-.40625-1.020827.311385-1.832883.298002-2.46875.125.377872-.338919.730522-.718944 1-1.15625.101441-.164617.1977-.326815.28125-.5.852994-.182311 1.7809-.710793 2.65625-1.84375-.885339.831338-1.728645 1.220236-2.46875 1.375.256852-.675771.412704-1.39052.4375-2.125 1.015353-.530955 1.957201-1.558956 2.375-3.53125-.638055 1.656002-1.516317 2.513301-2.40625 2.96875-.02223-.542097-.08616-1.095007-.21875-1.625-.05364-.214424-.117179-.415328-.1875-.625-.0032-.0097.0033-.02161 0-.03125.752763-1.071572 1.200699-2.619358.5625-4.84375.236854 1.957972-.184903 3.292159-.8125 4.21875-.327243-.755902-.76543-1.455398-1.3125-2.03125.249303-1.353855-.04887-2.995826-1.65625-4.84375 1.086099 1.750476 1.311093 3.186828 1.125 4.34375-.23396-.189506-.486027-.354986-.75-.5-.486452-.267233-.993661-.476889-1.5-.65625-.251223-1.343011-1.086875-2.78855-3.09375-4.03125 1.548313 1.340145 2.221697 2.645119 2.4375 3.8125-.438396-.122971-.873549-.217425-1.3125-.28125-.418154-.0608-.834601-.08881-1.25-.09375-.81155-1.194922-2.229695-2.243934-4.78125-2.4375 2.148539.513815 3.35605 1.476861 4.0625 2.5-.993387.06769-1.967851.259446-2.875.65625-1.296937-.842831-3.150012-1.273324-5.75-.375 2.327705-.408317 3.941704.0099 5.0625.71875-.823268.452944-1.583563 1.032229-2.25 1.78125-1.694272-.372545-3.821248-.07751-6.15625 2 2.30642-1.47213 4.191797-1.666422 5.65625-1.34375-.239671.324382-.480913.661203-.6875 1.03125-.350023.626976-.640971 1.293908-.875 1.96875-1.757908.23483-3.713464 1.247838-5.28125 4 1.759741-2.190283 3.525128-3.032601 5.0625-3.21875-.27741 1.011672-.425776 2.046883-.4375 3.09375-1.52885.867221-2.952155 2.500845-3.40625 5.59375.810222-2.5754 2.097426-3.993317 3.40625-4.75.08176 1.358532.374889 2.731171.9375 4-1.009968 1.491491-1.59919 3.561691-.8125 6.3125-.301488-2.560603.288567-4.349961 1.1875-5.625.745866 1.404349 1.804708 2.682182 3.21875 3.75-.3404 2.209388-.154752 4.658559 1.65625 6.5-1.331364-2.185811-1.48523-4.319323-1.15625-6.125.287612.195503.592744.384727.90625.5625 1.084545.614989 2.252029 1.062641 3.46875 1.375.557611 1.91072 1.738982 4.004088 4.09375 5.84375l.5-.625c-2.034137-1.58917-3.117272-3.354816-3.6875-5 1.550306.297018 3.153898.345657 4.71875.15625 1.354155 1.636098 3.449075 3.167625 6.6875 3.875l.15625-.84375c-2.807818-.613317-4.640918-1.832229-5.875-3.1875 1.804102-.340129 3.549141-.981176 5.0625-2 2.142037 1.008803 5.093445 1.540068 9.09375.75l-.1875-.875c-3.597283.71047-6.196289.315503-8.125-.5.05844-.04673.129876-.07712.1875-.125 1.265292-1.05136 2.599878-2.394414 3.75-4.09375 2.644656.09672 5.958637-.749737 9.71875-3.625l-.53125-.71875c-3.391635 2.593498-6.274355 3.443029-8.625 3.46875.983978-1.659788 1.763629-3.62848 2.15625-5.96875 2.614351-1.007039 5.457504-3.212958 7.8125-7.6875l-.84375-.4375c-2.124199 4.036023-4.543451 6.068296-6.8125 7.0625.206731-1.874428.163204-3.970429-.21875-6.3125l-.40625.0625c2.198399-2.036718 4.149637-5.468596 4.71875-11.1875zm-46.34375 5.0625c-.882774.0164-1.795592 1.590559-3.03125 2.6875-1.461956 1.297835-5.724904.345068-13.75 5.90625l-.875 2.0625c14.568977-9.741077 23.261098-4.308348 26.53125 2.03125l1.0625-1.78125c-4.175751-6.898632-10.299808-6.238486-10.125-7.65625.165966-1.346063 1.917881-1.926437.78125-2.96875-.20379-.18688-.390033-.285035-.59375-.28125zm24.84375 12.34375c.416596-.05784.727178.02896.96875.375-.01019-.01459.06359.297912.03125.4375-.01617.06979-.01639.09506.03125.0625l-.03125.0625c-.07855.01577-.148545.0598-.21875.09375-.197601-.299724-.522208-.663289-.96875-1 .06307-.01626.125411-.02263.1875-.03125zm-.625.21875c.0063.0046.02503-.0046.03125 0 .406547.300486.66044.661059.84375.96875.04757.07985.08979.148732.125.21875-.07772.13721-.125.299904-.125.46875 0 .07091.01641.121039.03125.1875l-.15625-.40625.125-.46875c.000001 0-.666369-.320575-1.53125-.375.04951-.07407.09641-.148077.15625-.21875.125673-.148418.302243-.270897.5-.375zm-.875 1c.738839.04552 1.195345.311891 1.40625.4375-.234364.05133-.852797.181767-1.53125.71875-.05299-.396946-.02303-.789597.125-1.15625zm1.78125.90625c.06965.233553.230398.443061.4375.5625.000002 0-.635703.859799-.71875 2-.121469-.06379-.22738-.138532-.34375-.21875-.177717-.122507-.350473-.274671-.5-.4375.507662-.991039 1.4375-1.40625 1.4375-1.40625l-.4375-.40625c-.000002-.000001-.76313.533563-1.25 1.46875-.189337-.272374-.342732-.56666-.4375-.875.829965-.651344 1.760819-.685646 1.8125-.6875z" fill="#fcf0e4" opacity=".8"/></g><path d="m62.125 17.093748a4.5 1.46875 0 1 1 -9 0 4.5 1.46875 0 1 1 9 0z" fill="#fefefe" filter="url(#f)" opacity=".5" transform="matrix(.765372 .9098432 -.9139956 .7618949 33.385715 -39.836658)"/><path d="m62.125 17.093748a4.5 1.46875 0 1 1 -9 0 4.5 1.46875 0 1 1 9 0z" fill="#fefefe" filter="url(#f)" opacity=".5" transform="matrix(.3439392 1.1381191 -1.1405611 .339105 72.159022 -44.327168)"/><path d="m62.125 17.093748a4.5 1.46875 0 1 1 -9 0 4.5 1.46875 0 1 1 9 0z" fill="#fefefe" filter="url(#f)" opacity=".5" transform="matrix(.9825492 .669482 -.6744188 .9803218 6.969883 -25.345203)"/><path d="m28.838925 36.176705-4.498044 10.525424 4.318123-2.0691 8.006519-10.07562z" fill="url(#e)" fill-rule="evenodd"/><path d="m39.094466 25.381399-9.701704 10.525424 8.982017-1.799218 8.726207-7.016949z" fill="url(#c)" fill-rule="evenodd"/><path d="m54.117935 18.004605c-5.937419 1.259453-15.099358 7.286833-15.099358 7.286833l6.463113 1.529335 11.784877-6.567145z" fill="url(#b)" fill-rule="evenodd"/><path d="m68.627834 51.588238c2.769259.216504 1.634311-3.141899.677904-3.929722-1.927455-1.587707-5.49783.0014-6.416327 1.922361-1.642975 3.436088.868733 7.234227 4.288135 8.14146 3.263073.865756 7.76403-1.42849 9.205997-6.16232 1.921915-6.30945-1.084173-11.092999-7.226856-12.75666-7.729939-2.093548-14.945885 2.504988-16.822686 10.057833-2.273059 9.147507 4.440347 18.680906 13.404169 20.76597 10.563555 2.457176 22.71747-2.939044 26.95828-15.728158 4.45902-13.448602-5.14963-32.721994-21.380701-35.939376-26.445611-5.224313-45.025962 12.350922-48.608872 36.389177-3.039349 20.391447 9.415987 39.169533 21.543238 46.891197 16.945823 10.78975 42.833695 13.25422 63.315025 4.25307" fill="none" stroke="url(#a)" stroke-width="2.684683"/></g></g></svg>