<svg height="96" width="96" xmlns="http://www.w3.org/2000/svg" xmlns:xlink="http://www.w3.org/1999/xlink"><linearGradient id="a"><stop offset="0" stop-color="#fefefe"/><stop offset="1" stop-color="#fefefe" stop-opacity="0"/></linearGradient><linearGradient id="b" gradientUnits="userSpaceOnUse" x1="36.357143" x2="36.357143" xlink:href="#a" y1="6" y2="63.893143"/><radialGradient id="c" cx="48" cy="90.171875" gradientTransform="matrix(1.1573129 0 0 .99590774 -7.551021 .197132)" gradientUnits="userSpaceOnUse" r="42" xlink:href="#a"/><linearGradient id="d" gradientUnits="userSpaceOnUse" x1="48" x2="48" y1="-6" y2="-128"><stop offset="0" stop-color="#f0f0f0"/><stop offset="1" stop-color="#c6c6c6"/></linearGradient><linearGradient id="e" gradientTransform="matrix(1.0058652 0 0 .994169 100 0)" gradientUnits="userSpaceOnUse" x1="45.447727" x2="45.447727" y1="92.539597" y2="7.01654"><stop offset="0"/><stop offset="1" stop-opacity=".588235"/></linearGradient><linearGradient id="f" gradientTransform="matrix(1.0238095 0 0 -1.0119048 -1.142857 98.071429)" gradientUnits="userSpaceOnUse" x1="32.251034" x2="32.251034" xlink:href="#e" y1="6.131708" y2="90.238609"/><linearGradient id="g" gradientTransform="matrix(1.0238095 0 0 1.0119048 -1.142857 -98.071429)" gradientUnits="userSpaceOnUse" x1="32.251034" x2="32.251034" xlink:href="#e" y1="6.131708" y2="90.238609"/><linearGradient id="h" gradientTransform="translate(0 -97)" gradientUnits="userSpaceOnUse" x1="32.251034" x2="32.251034" xlink:href="#e" y1="6.131708" y2="90.238609"/><linearGradient id="i"><stop offset="0"/><stop offset="1" stop-opacity="0"/></linearGradient><linearGradient id="j" gradientUnits="userSpaceOnUse" x1="68.312531" x2="68.144524" y1="71.109474" y2="55.151936"><stop offset="0"/><stop offset="1" stop-color="#fefefe" stop-opacity="0"/></linearGradient><linearGradient id="k" gradientUnits="userSpaceOnUse" x1="67.155708" x2="67.960243" xlink:href="#l" y1="72.276993" y2="54.206367"/><linearGradient id="l"><stop offset="0"/><stop offset="1" stop-color="#fefefe"/></linearGradient><linearGradient id="m" gradientTransform="matrix(.22851635 0 0 .2274256 -36.397256 45.49658)" gradientUnits="userSpaceOnUse" x1="28.09384" x2="28.017101" xlink:href="#i" y1="88.895805" y2="89.95385"/><linearGradient id="n" gradientTransform="matrix(.07470422 0 0 .07470384 2.159243 67.143564)" gradientUnits="userSpaceOnUse" x1="59.665165" x2="59.665165" xlink:href="#i" y1="86.65889" y2="55.214497"/><linearGradient id="o" gradientTransform="matrix(.07470422 0 0 .07470384 2.159243 67.143564)" gradientUnits="userSpaceOnUse" x1="67.397423" x2="67.397423" xlink:href="#l" y1="54.793182" y2="67.05555"/><linearGradient id="p" gradientTransform="matrix(.08198941 0 0 .08198904 1.670034 66.699721)" gradientUnits="userSpaceOnUse" x1="67.155708" x2="67.960243" xlink:href="#l" y1="68.711845" y2="54.206367"/><linearGradient id="q" gradientTransform="matrix(.22851635 0 0 .2274256 -47.937189 38.109169)" gradientUnits="userSpaceOnUse" x1="28.09384" x2="28.017101" xlink:href="#i" y1="88.895805" y2="89.95385"/><linearGradient id="r" gradientTransform="matrix(.07470422 0 0 .07470384 -11.578666 66.489875)" gradientUnits="userSpaceOnUse" x1="59.665165" x2="59.665165" xlink:href="#i" y1="86.65889" y2="55.214497"/><linearGradient id="s" gradientTransform="matrix(.07470422 0 0 .07470384 -11.578666 66.489875)" gradientUnits="userSpaceOnUse" x1="67.397423" x2="67.397423" xlink:href="#l" y1="54.793182" y2="67.05555"/><linearGradient id="t" gradientTransform="matrix(.08198941 0 0 .08198904 -12.067874 66.046036)" gradientUnits="userSpaceOnUse" x1="67.155708" x2="67.960243" xlink:href="#l" y1="68.711845" y2="54.206367"/><linearGradient id="u" gradientTransform="matrix(.22851635 0 0 .2274256 -47.929422 52.56677)" gradientUnits="userSpaceOnUse" x1="28.09384" x2="28.017101" xlink:href="#i" y1="88.895805" y2="89.95385"/><linearGradient id="v" gradientTransform="matrix(.07470422 0 0 .07470384 -4.291167 78.976504)" gradientUnits="userSpaceOnUse" x1="59.665165" x2="59.665165" xlink:href="#i" y1="86.65889" y2="55.214497"/><linearGradient id="w" gradientTransform="matrix(.07470422 0 0 .07470384 -4.291167 78.976504)" gradientUnits="userSpaceOnUse" x1="67.397423" x2="67.397423" xlink:href="#l" y1="54.793182" y2="67.05555"/><linearGradient id="x" gradientTransform="matrix(.08198941 0 0 .08198904 -4.780368 78.532658)" gradientUnits="userSpaceOnUse" x1="67.155708" x2="67.960243" xlink:href="#l" y1="68.711845" y2="54.206367"/><linearGradient id="y" gradientUnits="userSpaceOnUse" x1="58.235342" x2="58.235342" xlink:href="#z" y1="-33.616325" y2="52.028625"/><linearGradient id="z"><stop offset="0" stop-color="#f9f9f9"/><stop offset="1" stop-color="#f9f9f9" stop-opacity="0"/></linearGradient><linearGradient id="A" gradientUnits="userSpaceOnUse" x1="68.467514" x2="67.725906" xlink:href="#l" y1="77.41217" y2="55.182297"/><linearGradient id="B" gradientUnits="userSpaceOnUse" x1="67.972374" x2="67.960243" xlink:href="#l" y1="68.628807" y2="54.206367"/><linearGradient id="C" gradientTransform="matrix(.21019169 0 0 .20918826 18.804236 58.425669)" gradientUnits="userSpaceOnUse" x1="28.09384" x2="28.017101" xlink:href="#i" y1="88.895805" y2="89.95385"/><linearGradient id="D" gradientTransform="matrix(.06871365 0 0 .06871332 55.720443 50.127306)" gradientUnits="userSpaceOnUse" x1="59.665165" x2="59.665165" xlink:href="#i" y1="86.65889" y2="55.214497"/><linearGradient id="E" gradientTransform="matrix(.06871365 0 0 .06871332 55.720443 50.127306)" gradientUnits="userSpaceOnUse" x1="67.397423" x2="67.397423" xlink:href="#l" y1="54.793182" y2="67.05555"/><linearGradient id="F" gradientTransform="matrix(.07541467 0 0 .07541429 55.27046 49.719032)" gradientUnits="userSpaceOnUse" x1="67.155708" x2="67.960243" xlink:href="#l" y1="68.711845" y2="54.206367"/><linearGradient id="G" gradientTransform="matrix(.21019169 0 0 .20918826 9.239347 60.191578)" gradientUnits="userSpaceOnUse" x1="28.09384" x2="28.017101" xlink:href="#i" y1="88.895805" y2="89.95385"/><linearGradient id="H" gradientTransform="matrix(.06871365 0 0 .06871332 48.306583 56.401093)" gradientUnits="userSpaceOnUse" x1="59.665165" x2="59.665165" xlink:href="#i" y1="86.65889" y2="55.214497"/><linearGradient id="I" gradientTransform="matrix(.06871365 0 0 .06871332 48.306583 56.401093)" gradientUnits="userSpaceOnUse" x1="67.397423" x2="67.397423" xlink:href="#l" y1="54.793182" y2="67.05555"/><linearGradient id="J" gradientTransform="matrix(.07541467 0 0 .07541429 47.856601 55.992821)" gradientUnits="userSpaceOnUse" x1="67.155708" x2="67.960243" xlink:href="#l" y1="68.711845" y2="54.206367"/><linearGradient id="K" gradientTransform="matrix(.56733277 0 0 .56732955 9.158178 12.204144)" gradientUnits="userSpaceOnUse" x1="109.875" x2="109.875" xlink:href="#i" y1="-20.489315" y2="47.912453"/><linearGradient id="L" gradientTransform="matrix(1.0192223 0 0 1.0192166 3.045241 -99.664745)" gradientUnits="userSpaceOnUse" x1="67.960243" x2="67.960243" xlink:href="#l" y1="72.919174" y2="54.206367"/><linearGradient id="M" gradientTransform="matrix(.31985553 0 0 .31832871 9.332293 19.838092)" gradientUnits="userSpaceOnUse" x1="28.09384" x2="28.017101" xlink:href="#i" y1="88.895805" y2="89.95385"/><linearGradient id="N" gradientTransform="matrix(.10456387 0 0 .10456341 33.269201 26.180206)" gradientUnits="userSpaceOnUse" x1="59.665165" x2="59.665165" xlink:href="#i" y1="86.65889" y2="55.214497"/><linearGradient id="O" gradientTransform="matrix(.10456387 0 0 .10456341 33.269201 26.180206)" gradientUnits="userSpaceOnUse" x1="67.397423" x2="67.397423" xlink:href="#l" y1="54.793182" y2="67.05555"/><linearGradient id="P" gradientTransform="matrix(.11476087 0 0 .11476035 32.584419 25.558959)" gradientUnits="userSpaceOnUse" x1="67.155708" x2="67.960243" xlink:href="#l" y1="68.711845" y2="54.206367"/><linearGradient id="Q" gradientTransform="matrix(.31985553 0 0 .31832871 -6.820178 9.497903)" gradientUnits="userSpaceOnUse" x1="28.09384" x2="28.017101" xlink:href="#i" y1="88.895805" y2="89.95385"/><linearGradient id="R" gradientTransform="matrix(.10456387 0 0 .10456341 14.040181 25.265235)" gradientUnits="userSpaceOnUse" x1="59.665165" x2="59.665165" xlink:href="#i" y1="86.65889" y2="55.214497"/><linearGradient id="S" gradientTransform="matrix(.10456387 0 0 .10456341 14.040181 25.265235)" gradientUnits="userSpaceOnUse" x1="67.397423" x2="67.397423" xlink:href="#l" y1="54.793182" y2="67.05555"/><linearGradient id="T" gradientTransform="matrix(.11476087 0 0 .11476035 13.355402 24.643986)" gradientUnits="userSpaceOnUse" x1="67.155708" x2="67.960243" xlink:href="#l" y1="68.711845" y2="54.206367"/><linearGradient id="U" gradientTransform="matrix(.31985553 0 0 .31832871 -6.809308 29.734274)" gradientUnits="userSpaceOnUse" x1="28.09384" x2="28.017101" xlink:href="#i" y1="88.895805" y2="89.95385"/><linearGradient id="V" gradientTransform="matrix(.10456387 0 0 .10456341 24.240541 42.742819)" gradientUnits="userSpaceOnUse" x1="59.665165" x2="59.665165" xlink:href="#i" y1="86.65889" y2="55.214497"/><linearGradient id="W" gradientTransform="matrix(.10456387 0 0 .10456341 24.240541 42.742819)" gradientUnits="userSpaceOnUse" x1="67.397423" x2="67.397423" xlink:href="#l" y1="54.793182" y2="67.05555"/><linearGradient id="X" gradientTransform="matrix(.11476087 0 0 .11476035 23.555759 42.121571)" gradientUnits="userSpaceOnUse" x1="67.155708" x2="67.960243" xlink:href="#l" y1="68.711845" y2="54.206367"/><linearGradient id="Y" gradientUnits="userSpaceOnUse" x1="58.235342" x2="58.235342" xlink:href="#z" y1="-11.674656" y2="52.028625"/><linearGradient id="Z" gradientUnits="userSpaceOnUse" x1="68.467514" x2="68.34137" xlink:href="#l" y1="77.41217" y2="56.478382"/><linearGradient id="aa" gradientUnits="userSpaceOnUse" x1="67.960243" x2="67.960243" xlink:href="#l" y1="72.919174" y2="54.206367"/><linearGradient id="ab" gradientTransform="matrix(.31985553 0 0 .31832871 -5.508598 58.787745)" gradientUnits="userSpaceOnUse" x1="28.09384" x2="28.017101" xlink:href="#i" y1="88.895805" y2="89.95385"/><linearGradient id="ac" gradientTransform="matrix(.10456387 0 0 .10456341 40.000822 67.197551)" gradientUnits="userSpaceOnUse" x1="59.665165" x2="59.665165" xlink:href="#i" y1="86.65889" y2="55.214497"/><linearGradient id="ad" gradientTransform="matrix(.10456387 0 0 .10456341 40.000822 67.197551)" gradientUnits="userSpaceOnUse" x1="67.397423" x2="67.397423" xlink:href="#l" y1="54.793182" y2="67.05555"/><linearGradient id="ae" gradientTransform="matrix(.11476087 0 0 .11476035 39.316032 66.576305)" gradientUnits="userSpaceOnUse" x1="67.155708" x2="67.960243" xlink:href="#l" y1="68.711845" y2="54.206367"/><linearGradient id="af" gradientTransform="matrix(.31985553 0 0 .31832871 -32.403938 46.660448)" gradientUnits="userSpaceOnUse" x1="28.09384" x2="28.017101" xlink:href="#i" y1="88.895805" y2="89.95385"/><linearGradient id="ag" gradientTransform="matrix(.10456387 0 0 .10456341 10.546101 70.071525)" gradientUnits="userSpaceOnUse" x1="59.665165" x2="59.665165" xlink:href="#i" y1="86.65889" y2="55.214497"/><linearGradient id="ah" gradientTransform="matrix(.10456387 0 0 .10456341 10.546101 70.071525)" gradientUnits="userSpaceOnUse" x1="67.397423" x2="67.397423" xlink:href="#l" y1="54.793182" y2="67.05555"/><linearGradient id="ai" gradientTransform="matrix(.11476087 0 0 .11476035 9.861314 69.450272)" gradientUnits="userSpaceOnUse" x1="67.155708" x2="67.960243" xlink:href="#l" y1="68.711845" y2="54.206367"/><linearGradient id="aj" gradientTransform="matrix(.31985553 0 0 .31832871 -26.197626 67.310379)" gradientUnits="userSpaceOnUse" x1="28.09384" x2="28.017101" xlink:href="#i" y1="88.895805" y2="89.95385"/><linearGradient id="ak" gradientTransform="matrix(.10456387 0 0 .10456341 26.332976 84.830865)" gradientUnits="userSpaceOnUse" x1="59.665165" x2="59.665165" xlink:href="#i" y1="86.65889" y2="55.214497"/><linearGradient id="al" gradientTransform="matrix(.10456387 0 0 .10456341 26.332976 84.830865)" gradientUnits="userSpaceOnUse" x1="67.397423" x2="67.397423" xlink:href="#l" y1="54.793182" y2="67.05555"/><linearGradient id="am" gradientTransform="matrix(.11476087 0 0 .11476035 25.648184 84.209619)" gradientUnits="userSpaceOnUse" x1="67.155708" x2="67.960243" xlink:href="#l" y1="68.711845" y2="54.206367"/><linearGradient id="an" gradientTransform="matrix(.31985553 0 0 .31832871 -11.912803 40.966885)" gradientUnits="userSpaceOnUse" x1="28.09384" x2="28.017101" xlink:href="#i" y1="88.895805" y2="89.95385"/><linearGradient id="ao" gradientTransform="matrix(.10456387 0 0 .10456341 25.466943 54.980545)" gradientUnits="userSpaceOnUse" x1="59.665165" x2="59.665165" xlink:href="#i" y1="86.65889" y2="55.214497"/><linearGradient id="ap" gradientTransform="matrix(.10456387 0 0 .10456341 25.466943 54.980545)" gradientUnits="userSpaceOnUse" x1="67.397423" x2="67.397423" xlink:href="#l" y1="54.793182" y2="67.05555"/><linearGradient id="aq" gradientTransform="matrix(.11476087 0 0 .11476035 24.78216 54.3593)" gradientUnits="userSpaceOnUse" x1="67.155708" x2="67.960243" xlink:href="#l" y1="68.711845" y2="54.206367"/><linearGradient id="ar" gradientTransform="matrix(2.3706952 0 0 2.3706819 -105.16297 -207.41073)" gradientUnits="userSpaceOnUse" x1="67.960243" x2="67.960243" xlink:href="#l" y1="72.919174" y2="54.206367"/><filter id="as"><feGaussianBlur stdDeviation=".15443688"/></filter><filter id="at"><feGaussianBlur stdDeviation=".11312236"/></filter><filter id="au"><feGaussianBlur stdDeviation=".11365569"/></filter><filter id="av"><feGaussianBlur stdDeviation=".075414907"/></filter><linearGradient id="aw" gradientTransform="matrix(2.7945245 0 0 2.7945087 -133.62554 -107.30445)" gradientUnits="userSpaceOnUse" x1="70.315865" x2="71.732201" xlink:href="#z" y1="46.025257" y2="66.255173"/><linearGradient id="ax" gradientTransform="matrix(2.7945245 0 0 2.7945087 -133.62554 -107.30445)" gradientUnits="userSpaceOnUse" x1="67.155708" x2="67.960243" xlink:href="#l" y1="68.711845" y2="54.206367"/><linearGradient id="ay" gradientTransform="matrix(.55188362 0 0 .55188051 10.158885 12.242522)" gradientUnits="userSpaceOnUse" x1="99.110985" x2="99.110985" xlink:href="#l" y1="453.53992" y2="-83.921616"/><radialGradient id="az" cx="31.50957117929" cy="102.25292717075" fx="31.02498399374" fy="117.27551386491" gradientUnits="userSpaceOnUse" r="24.33982466179"><stop offset="0" stop-color="#58e8ff"/><stop offset=".57963896" stop-color="#51d2f4"/><stop offset="1" stop-color="#2654c2"/></radialGradient><radialGradient id="aA" cx="549.10938" cy="-5.5" fy="15.369064" gradientTransform="matrix(1 0 0 .9995489 0 -.002481)" gradientUnits="userSpaceOnUse" r="34.640625"><stop offset="0" stop-color="#16367a" stop-opacity="0"/><stop offset=".79500002" stop-color="#16367a" stop-opacity="0"/><stop offset="1" stop-color="#16367a"/></radialGradient><clipPath id="aB"><path d="m549.13821-40.478552c-19.31962 0-35.0096 15.689963-35.0096 35.009573s15.68997 34.978781 35.0096 34.978782c19.31959 0 34.97878-15.659172 34.97878-34.978782s-15.6592-35.009573-34.97878-35.009573z"/></clipPath><filter id="aC"><feGaussianBlur stdDeviation=".66601563"/></filter><radialGradient id="aD" cx="455.50381" cy="-40.349792" fy="-32.883251" gradientTransform="matrix(1.4864865 -.00000084 .00000104 1.8378378 -221.5964 32.464567)" gradientUnits="userSpaceOnUse" r="14.103466"><stop offset="0" stop-color="#56e4fd" stop-opacity=".687273"/><stop offset="1" stop-color="#fefefe" stop-opacity=".709091"/></radialGradient><filter id="aE"><feGaussianBlur stdDeviation=".60528572"/></filter><radialGradient id="aF" cx="419.65625" cy="-36.61248" gradientTransform="matrix(.6524449 0 0 .5880586 -242.32679 106.03742)" gradientUnits="userSpaceOnUse" r="27.472944" xlink:href="#a"/><radialGradient id="aG" cx="31.50957117929" cy="102.25292717075" fx="31.02498399374" fy="117.27551386491" gradientUnits="userSpaceOnUse" r="24.33982466179"><stop offset="0" stop-color="#c6ff92"/><stop offset=".57963896" stop-color="#9ef451"/><stop offset="1" stop-color="#6fc226"/></radialGradient><radialGradient id="aH" cx="549.10938" cy="-5.5" fy="15.369064" gradientTransform="matrix(1 0 0 .9995489 0 -.002481)" gradientUnits="userSpaceOnUse" r="34.640625"><stop offset="0" stop-color="#3e6b13" stop-opacity="0"/><stop offset=".79500002" stop-color="#477a16" stop-opacity="0"/><stop offset="1" stop-color="#426111"/></radialGradient><radialGradient id="aI" cx="455.50381" cy="-40.349792" fy="-32.883251" gradientTransform="matrix(1.4864865 -.00000084 .00000104 1.8378378 -221.5964 32.464567)" gradientUnits="userSpaceOnUse" r="14.103466"><stop offset="0" stop-color="#acfd56" stop-opacity=".686275"/><stop offset="1" stop-color="#fefefe" stop-opacity=".709091"/></radialGradient><radialGradient id="aJ" cx="31.50957117929" cy="102.25292717075" fx="31.02498399374" fy="117.27551386491" gradientUnits="userSpaceOnUse" r="24.33982466179"><stop offset="0" stop-color="#fd0"/><stop offset=".4225" stop-color="#fedb00"/><stop offset=".5747" stop-color="#fad400"/><stop offset=".6831" stop-color="#f3c900"/><stop offset=".7702" stop-color="#e9b800"/><stop offset=".8107" stop-color="#e3ad00"/><stop offset="1" stop-color="#f7b100"/></radialGradient><radialGradient id="aK" cx="549.10938" cy="-5.5" fy="15.369064" gradientTransform="matrix(1 0 0 .9995489 0 -.002481)" gradientUnits="userSpaceOnUse" r="34.640625"><stop offset="0" stop-color="#16367a" stop-opacity="0"/><stop offset=".79500002" stop-color="#e3d42b" stop-opacity="0"/><stop offset="1" stop-color="#593110"/></radialGradient><radialGradient id="aL" cx="31.50957117929" cy="102.25292717075" fx="31.02498399374" fy="117.27551386491" gradientUnits="userSpaceOnUse" r="24.33982466179"><stop offset="0" stop-color="#fdc6ff"/><stop offset=".57963896" stop-color="#f16cf6"/><stop offset="1" stop-color="#bd26c2"/></radialGradient><radialGradient id="aM" cx="549.10938" cy="-5.5" fy="15.369064" gradientTransform="matrix(1 0 0 .9995489 0 -.002481)" gradientUnits="userSpaceOnUse" r="34.640625"><stop offset="0" stop-color="#16367a" stop-opacity="0"/><stop offset=".79500002" stop-color="#7a166f" stop-opacity="0"/><stop offset="1" stop-color="#59104d"/></radialGradient><radialGradient id="aN" cx="455.50381" cy="-40.349792" fy="-32.883251" gradientTransform="matrix(1.4864865 -.00000084 .00000104 1.8378378 -221.5964 32.464567)" gradientUnits="userSpaceOnUse" r="14.103466"><stop offset="0" stop-color="#fd56f7" stop-opacity=".686275"/><stop offset="1" stop-color="#fefefe" stop-opacity=".709091"/></radialGradient><path d="m12 95.03125c-5.5110903 0-10.03125-4.52016-10.03125-10.03125v-71c0-5.5110902 4.5201598-10.03125 10.03125-10.03125h72c5.51109 0 10.03125 4.5201597 10.03125 10.03125v71c0 5.51109-4.52016 10.03125-10.03125 10.03125z" fill="url(#f)" opacity=".08"/><path d="m12 94.03125c-4.971633 0-9.03125-4.059617-9.03125-9.03125v-71c0-4.9716329 4.0596171-9.03125 9.03125-9.03125h72c4.971633 0 9.03125 4.059617 9.03125 9.03125v71c0 4.971633-4.059617 9.03125-9.03125 9.03125z" fill="url(#f)" opacity=".1"/><path d="m12 93c-4.4091333 0-8-3.590867-8-8v-71c0-4.4091333 3.5908667-8 8-8h72c4.409133 0 8 3.5908667 8 8v71c0 4.409133-3.590867 8-8 8z" fill="url(#f)" opacity=".2"/><rect fill="url(#g)" height="85" opacity=".3" rx="7" transform="scale(1 -1)" width="86" x="5" y="-92"/><rect fill="url(#h)" height="84" opacity=".45" rx="6" transform="scale(1 -1)" width="84" x="6" y="-91"/><rect fill="url(#d)" height="84" rx="6" transform="scale(1 -1)" width="84" x="6" y="-90"/><path d="m12 6c-3.324 0-6 2.676-6 6v2 68 2c0 .334721.04135.6507.09375.96875.0487.295596.09704.596915.1875.875.00988.03038.020892.0636.03125.09375.098865.287771.2348802.547452.375.8125.1445918.273507.3156161.535615.5.78125s.3737765.473472.59375.6875c.439947.428056.94291.814526 1.5 1.09375.278545.139612.5734731.246947.875.34375-.2562018-.100222-.4867109-.236272-.71875-.375-.00741-.0044-.023866.0045-.03125 0-.031933-.0193-.062293-.04251-.09375-.0625-.120395-.0767-.2310226-.163513-.34375-.25-.1061728-.0808-.2132809-.161112-.3125-.25-.1779299-.161433-.3474596-.345388-.5-.53125-.1075789-.130255-.2183939-.265285-.3125-.40625-.025089-.03838-.038446-.08587-.0625-.125-.064763-.103032-.1302275-.204517-.1875-.3125-.1010083-.194706-.2056748-.415701-.28125-.625-.00796-.02181-.023589-.04055-.03125-.0625-.0318251-.09195-.0358045-.186831-.0625-.28125-.0303323-.106618-.0703894-.203031-.09375-.3125-.0728786-.341512-.125-.698205-.125-1.0625v-2-68-2c0-2.781848 2.2181517-5 5-5h2 68 2c2.781848 0 5 2.218152 5 5v2 68 2c0 .364295-.05212.720988-.125 1.0625-.04415.206893-.08838.397658-.15625.59375-.0077.02195-.0233.04069-.03125.0625-.06274.173739-.138383.367449-.21875.53125-.04158.0828-.07904.169954-.125.25-.0546.09721-.126774.18835-.1875.28125-.09411.140965-.204921.275995-.3125.40625-.143174.17445-.303141.346998-.46875.5-.01117.0102-.01998.02115-.03125.03125-.138386.125556-.285091.234436-.4375.34375-.102571.07315-.204318.153364-.3125.21875-.0074.0045-.02384-.0044-.03125 0-.232039.138728-.462548.274778-.71875.375.301527-.0968.596455-.204138.875-.34375.55709-.279224 1.060053-.665694 1.5-1.09375.219973-.214028.409366-.441865.59375-.6875s.355408-.507743.5-.78125c.14012-.265048.276135-.524729.375-.8125.01041-.03078.02133-.06274.03125-.09375.09046-.278085.1388-.579404.1875-.875.0524-.31805.09375-.634029.09375-.96875v-2-68-2c0-3.324-2.676-6-6-6z" fill="url(#b)" opacity=".5"/><path d="m12 90c-3.324 0-6-2.676-6-6v-2-68-2c0-.334721.04135-.6507.09375-.96875.0487-.295596.09704-.596915.1875-.875.00988-.03038.020892-.0636.03125-.09375.098865-.287771.2348802-.547452.375-.8125.1445918-.273507.3156161-.535615.5-.78125s.3737765-.473472.59375-.6875c.439947-.428056.94291-.814526 1.5-1.09375.278545-.139612.5734731-.246947.875-.34375-.2562018.100222-.4867109.236272-.71875.375-.00741.0044-.023866-.0045-.03125 0-.031933.0193-.062293.04251-.09375.0625-.120395.0767-.2310226.163513-.34375.25-.1061728.0808-.2132809.161112-.3125.25-.1779299.161433-.3474596.345388-.5.53125-.1075789.130255-.2183939.265285-.3125.40625-.025089.03838-.038446.08587-.0625.125-.064763.103032-.1302275.204517-.1875.3125-.1010083.194706-.2056748.415701-.28125.625-.00796.02181-.023589.04055-.03125.0625-.0318251.09195-.0358045.186831-.0625.28125-.0303323.106618-.0703894.203031-.09375.3125-.0728786.341512-.125.698205-.125 1.0625v2 68 2c0 2.781848 2.2181517 5 5 5h2 68 2c2.781848 0 5-2.218152 5-5v-2-68-2c0-.364295-.05212-.720988-.125-1.0625-.04415-.206893-.08838-.397658-.15625-.59375-.0077-.02195-.0233-.04069-.03125-.0625-.06274-.173739-.138383-.367449-.21875-.53125-.04158-.0828-.07904-.169954-.125-.25-.0546-.09721-.126774-.18835-.1875-.28125-.09411-.140965-.204921-.275995-.3125-.40625-.143174-.17445-.303141-.346998-.46875-.5-.01117-.0102-.01998-.02115-.03125-.03125-.138386-.125556-.285091-.234436-.4375-.34375-.102571-.07315-.204318-.153364-.3125-.21875-.0074-.0045-.02384.0044-.03125 0-.232039-.138728-.462548-.274778-.71875-.375.301527.0968.596455.204138.875.34375.55709.279224 1.060053.665694 1.5 1.09375.219973.214028.409366.441865.59375.6875s.355408.507743.5.78125c.14012.265048.276135.524729.375.8125.01041.03078.02133.06274.03125.09375.09046.278085.1388.579404.1875.875.0524.31805.09375.634029.09375.96875v2 68 2c0 3.324-2.676 6-6 6z" fill="url(#c)" opacity=".3"/><g transform="matrix(.37523286 0 0 .37523073 28.588009 -11.350897)"><path d="m31.520402 77.913025c-13.437551 0-24.3505456 10.91299-24.3505456 24.350615 0 13.43754 10.9129946 24.32911 24.3505456 24.32911 13.437515 0 24.329085-10.89157 24.329085-24.32911 0-13.437625-10.89159-24.350615-24.329085-24.350615z" fill="url(#aL)"/><path clip-path="url(#aB)" d="m549.125-40.125c-19.12444.000001-34.65625 15.531828-34.65625 34.65625-.00001 17.548086 13.10106 32.010578 30.03125 34.28125-14.58963-2.228339-25.78123-14.822437-25.78125-30.03125 0-16.782142 13.62412-30.406251 30.40625-30.40625 16.78212 0 30.40623 13.624108 30.40625 30.40625 0 15.733255-11.95878 28.66288-27.28125 30.21875 17.66635-1.573028 31.5-16.393027 31.5-34.46875 0-19.124422-15.5006-34.65625-34.625-34.65625zm3.125 69.125c-.51075.05186-1.04459.09875-1.5625.125.51874-.02306 1.04995-.07936 1.5625-.125zm-7.75-.1875c.51156.06861 1.01291.141469 1.53125.1875-.51085-.05186-1.02816-.110661-1.53125-.1875zm1.53125.1875c.51014.0453 1.01503.102054 1.53125.125-.51796-.02625-1.0204-.07314-1.53125-.125z" fill="url(#aM)" filter="url(#aC)" transform="matrix(.6981124 0 0 .6981124 -351.93144 106.27097)"/><ellipse cx="455.50381" cy="-34.831043" fill="url(#aN)" filter="url(#aE)" opacity=".40625" rx="14.103466" ry="17.534039" transform="matrix(.737306 0 0 .5780643 -304.37425 110.23952)"/><path d="m32.597222 80.680364.183451 3.832616c1.519687.02728 2.999978.170104 4.424406.394876-.295866-1.247008-.588309-2.493868-.897104-3.739702-1.18759-.269252-2.427765-.422693-3.710753-.48779zm-2.813649.02323c-1.231748.09362-2.430607.296968-3.568091.5807-.327934 1.321225-.645382 2.648434-.95827 3.971982 1.465729-.329619 2.997267-.536613 4.587515-.650383l.183452-3.902299c-.08371.0054-.161209-.0063-.244606 0zm8.767221 1.114943c.377558 1.189531.749864 2.38235 1.121368 3.577107 2.680371.657679 5.113024 1.642169 7.156501 2.903496-1.587809-2.851431-4.550434-5.168732-8.277869-6.480603zm-14.904336.278736c-3.9916 1.601097-7.01142 4.394494-8.21667 7.734915 1.866575-1.548938 4.236683-2.821117 6.932185-3.739706.425793-1.330904.85093-2.662179 1.284485-3.995209zm9.195462 3.693247.285403 5.59794c1.953983.05081 3.862421.226252 5.668077.55747-.409596-1.902467-.839882-3.809041-1.284465-5.714079-1.500889-.25246-3.060231-.409547-4.669015-.441331zm-3.058347.06968c-1.68917.123917-3.3063.399881-4.852558.766524-.442229 1.903857-.855422 3.806809-1.264124 5.714081 1.855382-.447101 3.80837-.741382 5.851621-.882663zm10.316738.929119c.603949 1.957901 1.2082 3.933016 1.794234 5.899905 2.189022.620918 4.19324 1.427165 5.973961 2.415715.148416-.669478.224277-1.343396.224277-2.04407 0-1.024313-.176852-1.997995-.489339-2.949951-2.094682-1.433494-4.640835-2.572853-7.503133-3.321599zm-18.207282.720068c-2.706222.979572-5.068405 2.328316-6.891408 3.948755-.09123.526341-.142746 1.058058-.142746 1.602727 0 .935855.143239 1.840404.407806 2.717667 1.424839-.902136 3.024657-1.694012 4.770964-2.346018.607128-1.971303 1.228058-3.949377 1.855384-5.923131z" fill="url(#aF)" opacity=".399457"/></g><g transform="matrix(.16186402 0 0 .1618631 66.429487 21.031376)"><path d="m31.520402 77.913025c-13.437551 0-24.3505456 10.91299-24.3505456 24.350615 0 13.43754 10.9129946 24.32911 24.3505456 24.32911 13.437515 0 24.329085-10.89157 24.329085-24.32911 0-13.437625-10.89159-24.350615-24.329085-24.350615z" fill="url(#aJ)"/><path clip-path="url(#aB)" d="m549.125-40.125c-19.12444.000001-34.65625 15.531828-34.65625 34.65625-.00001 17.548086 13.10106 32.010578 30.03125 34.28125-14.58963-2.228339-25.78123-14.822437-25.78125-30.03125 0-16.782142 13.62412-30.406251 30.40625-30.40625 16.78212 0 30.40623 13.624108 30.40625 30.40625 0 15.733255-11.95878 28.66288-27.28125 30.21875 17.66635-1.573028 31.5-16.393027 31.5-34.46875 0-19.124422-15.5006-34.65625-34.625-34.65625zm3.125 69.125c-.51075.05186-1.04459.09875-1.5625.125.51874-.02306 1.04995-.07936 1.5625-.125zm-7.75-.1875c.51156.06861 1.01291.141469 1.53125.1875-.51085-.05186-1.02816-.110661-1.53125-.1875zm1.53125.1875c.51014.0453 1.01503.102054 1.53125.125-.51796-.02625-1.0204-.07314-1.53125-.125z" fill="url(#aK)" filter="url(#aC)" transform="matrix(.6981124 0 0 .6981124 -351.93144 106.27097)"/><ellipse cx="455.50381" cy="-34.831043" fill="url(#aI)" filter="url(#aE)" opacity=".40625" rx="14.103466" ry="17.534039" transform="matrix(.737306 0 0 .6411355 -304.37425 113.54225)"/><path d="m32.597222 80.680364.183451 3.832616c1.519687.02728 2.999978.170104 4.424406.394876-.295866-1.247008-.588309-2.493868-.897104-3.739702-1.18759-.269252-2.427765-.422693-3.710753-.48779zm-2.813649.02323c-1.231748.09362-2.430607.296968-3.568091.5807-.327934 1.321225-.645382 2.648434-.95827 3.971982 1.465729-.329619 2.997267-.536613 4.587515-.650383l.183452-3.902299c-.08371.0054-.161209-.0063-.244606 0zm8.767221 1.114943c.377558 1.189531.749864 2.38235 1.121368 3.577107 2.680371.657679 5.113024 1.642169 7.156501 2.903496-1.587809-2.851431-4.550434-5.168732-8.277869-6.480603zm-14.904336.278736c-3.9916 1.601097-7.01142 4.394494-8.21667 7.734915 1.866575-1.548938 4.236683-2.821117 6.932185-3.739706.425793-1.330904.85093-2.662179 1.284485-3.995209zm9.195462 3.693247.285403 5.59794c1.953983.05081 3.862421.226252 5.668077.55747-.409596-1.902467-.839882-3.809041-1.284465-5.714079-1.500889-.25246-3.060231-.409547-4.669015-.441331zm-3.058347.06968c-1.68917.123917-3.3063.399881-4.852558.766524-.442229 1.903857-.855422 3.806809-1.264124 5.714081 1.855382-.447101 3.80837-.741382 5.851621-.882663zm10.316738.929119c.603949 1.957901 1.2082 3.933016 1.794234 5.899905 2.189022.620918 4.19324 1.427165 5.973961 2.415715.148416-.669478.224277-1.343396.224277-2.04407 0-1.024313-.176852-1.997995-.489339-2.949951-2.094682-1.433494-4.640835-2.572853-7.503133-3.321599zm-18.207282.720068c-2.706222.979572-5.068405 2.328316-6.891408 3.948755-.09123.526341-.142746 1.058058-.142746 1.602727 0 .935855.143239 1.840404.407806 2.717667 1.424839-.902136 3.024657-1.694012 4.770964-2.346018.607128-1.971303 1.228058-3.949377 1.855384-5.923131z" fill="url(#aF)" opacity=".589844"/></g><g transform="matrix(.24712538 0 0 .24712402 15.315049 46.618115)"><path d="m31.520402 77.913025c-13.437551 0-24.3505456 10.91299-24.3505456 24.350615 0 13.43754 10.9129946 24.32911 24.3505456 24.32911 13.437515 0 24.329085-10.89157 24.329085-24.32911 0-13.437625-10.89159-24.350615-24.329085-24.350615z" fill="url(#aG)"/><path clip-path="url(#aB)" d="m549.125-40.125c-19.12444.000001-34.65625 15.531828-34.65625 34.65625-.00001 17.548086 13.10106 32.010578 30.03125 34.28125-14.58963-2.228339-25.78123-14.822437-25.78125-30.03125 0-16.782142 13.62412-30.406251 30.40625-30.40625 16.78212 0 30.40623 13.624108 30.40625 30.40625 0 15.733255-11.95878 28.66288-27.28125 30.21875 17.66635-1.573028 31.5-16.393027 31.5-34.46875 0-19.124422-15.5006-34.65625-34.625-34.65625zm3.125 69.125c-.51075.05186-1.04459.09875-1.5625.125.51874-.02306 1.04995-.07936 1.5625-.125zm-7.75-.1875c.51156.06861 1.01291.141469 1.53125.1875-.51085-.05186-1.02816-.110661-1.53125-.1875zm1.53125.1875c.51014.0453 1.01503.102054 1.53125.125-.51796-.02625-1.0204-.07314-1.53125-.125z" fill="url(#aH)" filter="url(#aC)" transform="matrix(.6981124 0 0 .6981124 -351.93144 106.27097)"/><ellipse cx="455.50381" cy="-34.831043" fill="url(#aI)" filter="url(#aE)" opacity=".40625" rx="14.103466" ry="17.534039" transform="matrix(.737306 0 0 .6411355 -304.37425 113.54225)"/><path d="m32.597222 80.680364.183451 3.832616c1.519687.02728 2.999978.170104 4.424406.394876-.295866-1.247008-.588309-2.493868-.897104-3.739702-1.18759-.269252-2.427765-.422693-3.710753-.48779zm-2.813649.02323c-1.231748.09362-2.430607.296968-3.568091.5807-.327934 1.321225-.645382 2.648434-.95827 3.971982 1.465729-.329619 2.997267-.536613 4.587515-.650383l.183452-3.902299c-.08371.0054-.161209-.0063-.244606 0zm8.767221 1.114943c.377558 1.189531.749864 2.38235 1.121368 3.577107 2.680371.657679 5.113024 1.642169 7.156501 2.903496-1.587809-2.851431-4.550434-5.168732-8.277869-6.480603zm-14.904336.278736c-3.9916 1.601097-7.01142 4.394494-8.21667 7.734915 1.866575-1.548938 4.236683-2.821117 6.932185-3.739706.425793-1.330904.85093-2.662179 1.284485-3.995209zm9.195462 3.693247.285403 5.59794c1.953983.05081 3.862421.226252 5.668077.55747-.409596-1.902467-.839882-3.809041-1.284465-5.714079-1.500889-.25246-3.060231-.409547-4.669015-.441331zm-3.058347.06968c-1.68917.123917-3.3063.399881-4.852558.766524-.442229 1.903857-.855422 3.806809-1.264124 5.714081 1.855382-.447101 3.80837-.741382 5.851621-.882663zm10.316738.929119c.603949 1.957901 1.2082 3.933016 1.794234 5.899905 2.189022.620918 4.19324 1.427165 5.973961 2.415715.148416-.669478.224277-1.343396.224277-2.04407 0-1.024313-.176852-1.997995-.489339-2.949951-2.094682-1.433494-4.640835-2.572853-7.503133-3.321599zm-18.207282.720068c-2.706222.979572-5.068405 2.328316-6.891408 3.948755-.09123.526341-.142746 1.058058-.142746 1.602727 0 .935855.143239 1.840404.407806 2.717667 1.424839-.902136 3.024657-1.694012 4.770964-2.346018.607128-1.971303 1.228058-3.949377 1.855384-5.923131z" fill="url(#aF)" opacity=".396739"/></g><g transform="matrix(.51140323 0 0 .51140029 37.968902 10.558468)"><path d="m31.520402 77.913025c-13.437551 0-24.3505456 10.91299-24.3505456 24.350615 0 13.43754 10.9129946 24.32911 24.3505456 24.32911 13.437515 0 24.329085-10.89157 24.329085-24.32911 0-13.437625-10.89159-24.350615-24.329085-24.350615z" fill="url(#az)"/><path clip-path="url(#aB)" d="m549.125-40.125c-19.12444.000001-34.65625 15.531828-34.65625 34.65625-.00001 17.548086 13.10106 32.010578 30.03125 34.28125-14.58963-2.228339-25.78123-14.822437-25.78125-30.03125 0-16.782142 13.62412-30.406251 30.40625-30.40625 16.78212 0 30.40623 13.624108 30.40625 30.40625 0 15.733255-11.95878 28.66288-27.28125 30.21875 17.66635-1.573028 31.5-16.393027 31.5-34.46875 0-19.124422-15.5006-34.65625-34.625-34.65625zm3.125 69.125c-.51075.05186-1.04459.09875-1.5625.125.51874-.02306 1.04995-.07936 1.5625-.125zm-7.75-.1875c.51156.06861 1.01291.141469 1.53125.1875-.51085-.05186-1.02816-.110661-1.53125-.1875zm1.53125.1875c.51014.0453 1.01503.102054 1.53125.125-.51796-.02625-1.0204-.07314-1.53125-.125z" fill="url(#aA)" filter="url(#aC)" transform="matrix(.6981124 0 0 .6981124 -351.93144 106.27097)"/><ellipse cx="455.50381" cy="-34.831043" fill="url(#aD)" filter="url(#aE)" opacity=".40625" rx="14.103466" ry="17.534039" transform="matrix(.737306 0 0 .5780642 -304.37425 110.23952)"/><path d="m32.597222 80.680364.183451 3.832616c1.519687.02728 2.999978.170104 4.424406.394876-.295866-1.247008-.588309-2.493868-.897104-3.739702-1.18759-.269252-2.427765-.422693-3.710753-.48779zm-2.813649.02323c-1.231748.09362-2.430607.296968-3.568091.5807-.327934 1.321225-.645382 2.648434-.95827 3.971982 1.465729-.329619 2.997267-.536613 4.587515-.650383l.183452-3.902299c-.08371.0054-.161209-.0063-.244606 0zm8.767221 1.114943c.377558 1.189531.749864 2.38235 1.121368 3.577107 2.680371.657679 5.113024 1.642169 7.156501 2.903496-1.587809-2.851431-4.550434-5.168732-8.277869-6.480603zm-14.904336.278736c-3.9916 1.601097-7.01142 4.394494-8.21667 7.734915 1.866575-1.548938 4.236683-2.821117 6.932185-3.739706.425793-1.330904.85093-2.662179 1.284485-3.995209zm9.195462 3.693247.285403 5.59794c1.953983.05081 3.862421.226252 5.668077.55747-.409596-1.902467-.839882-3.809041-1.284465-5.714079-1.500889-.25246-3.060231-.409547-4.669015-.441331zm-3.058347.06968c-1.68917.123917-3.3063.399881-4.852558.766524-.442229 1.903857-.855422 3.806809-1.264124 5.714081 1.855382-.447101 3.80837-.741382 5.851621-.882663zm10.316738.929119c.603949 1.957901 1.2082 3.933016 1.794234 5.899905 2.189022.620918 4.19324 1.427165 5.973961 2.415715.148416-.669478.224277-1.343396.224277-2.04407 0-1.024313-.176852-1.997995-.489339-2.949951-2.094682-1.433494-4.640835-2.572853-7.503133-3.321599zm-18.207282.720068c-2.706222.979572-5.068405 2.328316-6.891408 3.948755-.09123.526341-.142746 1.058058-.142746 1.602727 0 .935855.143239 1.840404.407806 2.717667 1.424839-.902136 3.024657-1.694012 4.770964-2.346018.607128-1.971303 1.228058-3.949377 1.855384-5.923131z" fill="url(#aF)" opacity=".394022"/></g><path d="m40.115814 13.639469c-5.495327.149436-10.566266 3.680253-12.417382 9.19226-2.369426 7.05537 1.429803 14.70439 8.48521 17.073805.817027.274377 1.6424.472988 2.46623.586369.419088.03475.825293.118844 1.241737.258696 1.67146.561322 2.882227 1.888 3.380289 3.449251.51381 1.170174.611079 2.522642.172463 3.828675-.222553.662697-.554931 1.257576-.98304 1.759118-.03172.03715-.07084.0673-.103481.103476-.03933.03511-.08171.06802-.120724.103481-2.94087 2.673092-4.967525 6.329094-5.553325 10.451231-.0438.233581-.113081.475275-.18971.707097-.922444 2.790621-3.935451 4.302713-6.726082 3.380269-.48011-.158693-.911976-.384632-1.310726-.655356h-.01725c-.706857-.470702-1.483178-.858914-2.32826-1.138256-5.077906-1.67849-10.566414 1.079038-12.244913 6.156925-1.678506 5.077872 1.079038 10.566359 6.15695 12.244852 4.743554 1.567963 9.846492-.724217 11.865498-5.173884 1.038901-2.586394 3.939832-3.956613 6.622601-3.069837.966633.319523 1.768041.878811 2.380001 1.6039 3.205668 3.630864 7.889113 5.915473 13.107236 5.915473 9.649888 0 17.470565-7.837877 17.470565-17.48772 0-3.611864-1.106048-6.959948-2.98362-9.744135-.565834-.98759-.8246-2.14939-.655363-3.363022.113602-.81464.401148-1.565387.827828-2.207525l1.086519-1.465934c.780196-.943361 1.865773-1.60872 3.087101-1.845347l.01727-.01725c2.718746-.557941 4.92411-2.786848 5.329126-5.691268.514156-3.68709-2.055934-7.091451-5.743043-7.605603-3.68711-.514153-7.108736 2.055916-7.622893 5.743006-.105404.755879-.08549 1.514765.05174 2.224769.06113.46427.0678.928002 0 1.414193-.117388.841815-.429279 1.619504-.879565 2.276506l-1.052028 1.431441c-1.13963 1.362987-2.923676 2.12588-4.811737 1.8626-.09097-.01269-.186732-.03465-.275938-.05174-1.034106-.232747-2.09604-.373326-3.190578-.413913-.06882-.000482-.137913-.01409-.206958-.01725-.06915-.0017-.137611.000926-.206956 0-.414494-.0351-.829924-.120393-1.241739-.258691-1.666364-.559608-2.862182-1.859774-3.363041-3.414757-.519614-1.173583-.630199-2.534268-.18971-3.845916.193682-.576727.493296-1.11277.845076-1.56941 1.303254-1.377263 2.32337-3.052282 2.966373-4.966925 2.3694-7.055369-1.429824-14.704391-8.485231-17.073803-1.543372-.518309-3.117828-.731692-4.65652-.689851zm.500144 4.397798c.89082.01984 1.784381.167163 2.673187.465649 4.740291 1.59193 7.300483 6.728501 5.708547 11.468768-1.591935 4.740266-6.728538 7.300442-11.46883 5.708513-4.740292-1.591927-7.30049-6.7285-5.708548-11.468766 1.293451-3.851467 4.935426-6.260125 8.795644-6.174164zm30.664032 15.694103c.259682-.01651.508414-.0028.776088.03449 2.141416.29861 3.644401 2.273646 3.345791 4.415044-.298599 2.141399-2.273648 3.627139-4.415069 3.328531-2.141399-.298614-3.644401-2.273648-3.345796-4.415046.261288-1.873723 1.821222-3.247476 3.638986-3.363021zm-17.280851 16.849599c6.822472.000005 12.348395 5.525892 12.348395 12.348325-.000005 6.82243-5.525923 12.365582-12.348395 12.365582-6.822471 0-12.365642-5.543152-12.365642-12.365582 0-6.822433 5.543171-12.348325 12.365642-12.348325zm-31.16418 15.400916c.201364-.0088.398076.0054.603626.01725 3.288777.189131 5.811439 3.006128 5.622313 6.294895-.189132 3.288761-3.006143 5.794157-6.294926 5.605036-3.288782-.189137-5.811439-3.006124-5.622313-6.294885.177308-3.083222 2.670821-5.489872 5.6913-5.622292z" fill="url(#ay)" fill-rule="evenodd"/><g stroke-linecap="round" stroke-linejoin="round"><path d="m54.048384 46.81125c-8.908049 0-16.151255 7.22543-16.151255 16.133434 0 8.908002 7.243206 16.151165 16.151255 16.151165 8.90805 0 16.133522-7.243163 16.133522-16.151165 0-8.908004-7.225472-16.133434-16.133522-16.133434zm0 2.482067c7.557021 0 13.6869 6.129848 13.6869 13.686825 0 7.55698-6.129885 13.686827-13.6869 13.686827-7.55702 0-13.704632-6.129847-13.704632-13.686827 0-7.556977 6.147612-13.686831 13.704632-13.686825z" fill="url(#aw)" stroke="url(#ax)" stroke-width=".163425"/><circle cx="25.06201" cy="104.6658" fill="none" filter="url(#av)" r="7.45162" stroke="#08004b" stroke-width=".172588" transform="matrix(1.6274007 0 0 1.6273915 13.174423 -107.5683)"/><circle cx="25.06201" cy="104.6658" fill="none" filter="url(#au)" r="7.45162" stroke="#1a4100" stroke-width=".309103" transform="matrix(.79834968 0 0 .79834521 3.084887 -11.547644)"/><circle cx="25.06201" cy="104.6658" fill="none" filter="url(#at)" r="7.45162" stroke="#45004b" stroke-width=".217891" transform="matrix(1.2000509 0 0 1.2000441 10.407127 -98.51537)"/><circle cx="25.06201" cy="104.6658" fill="none" filter="url(#as)" r="7.45162" stroke="#7d3a00" stroke-width=".422939" transform="matrix(.51520476 0 0 .51520187 58.657605 -16.217166)"/><ellipse cx="54.04274" cy="-62.975811" fill="none" rx="13.69025" ry="13.690174" stroke="url(#ar)" stroke-width=".163425" transform="scale(1 -1)"/><ellipse cx="32.48901" cy="61.351135" fill="none" rx=".662719" ry=".662716" stroke="url(#aq)" stroke-width=".163425" transform="matrix(.95293032 -.30318938 .30319244 .95292935 0 0)"/><ellipse cx="32.489006" cy="61.351131" fill="url(#ao)" rx=".603834" ry=".603831" stroke="url(#ap)" stroke-width=".172141" transform="matrix(.95293034 -.30318931 .30319238 .95292937 0 0)"/></g><path d="m-3.382253 69.264999h1.109151v.247114h-1.109151z" fill="url(#an)" opacity=".380435" transform="matrix(.6767178 -.7362425 .74182999 .670588 0 0)"/><ellipse cx="33.355038" cy="91.201462" fill="none" rx=".662719" ry=".662716" stroke="url(#am)" stroke-linecap="round" stroke-linejoin="round" stroke-width=".163425" transform="matrix(.95293032 -.30318938 .30319244 .95292935 0 0)"/><ellipse cx="33.355042" cy="91.201454" fill="url(#ak)" rx=".603834" ry=".603831" stroke="url(#al)" stroke-linecap="round" stroke-linejoin="round" stroke-width=".172141" transform="matrix(.95293034 -.30318931 .30319238 .95292937 0 0)"/><path d="m-17.667212 95.608559h1.109151v.247114h-1.109151z" fill="url(#aj)" opacity=".380435" transform="matrix(.6767178 -.7362425 .74182999 .670588 0 0)"/><ellipse cx="17.568159" cy="76.442116" fill="none" rx=".662719" ry=".662716" stroke="url(#ai)" stroke-linecap="round" stroke-linejoin="round" stroke-width=".163425" transform="matrix(.95293032 -.30318938 .30319244 .95292935 0 0)"/><ellipse cx="17.568159" cy="76.442131" fill="url(#ag)" rx=".603834" ry=".603831" stroke="url(#ah)" stroke-linecap="round" stroke-linejoin="round" stroke-width=".172141" transform="matrix(.95293034 -.30318931 .30319238 .95292937 0 0)"/><path d="m-23.873388 74.958633h1.109151v.247114h-1.109151z" fill="url(#af)" opacity=".380435" transform="matrix(.6767178 -.7362425 .74182999 .670588 0 0)"/><ellipse cx="47.022884" cy="73.568153" fill="none" rx=".662719" ry=".662716" stroke="url(#ae)" stroke-linecap="round" stroke-linejoin="round" stroke-width=".163425" transform="matrix(.95293032 -.30318938 .30319244 .95292935 0 0)"/><ellipse cx="54.042736" cy="62.95232" fill="none" rx="16.137774" ry="16.137682"/><ellipse cx="47.022884" cy="73.568153" fill="url(#ac)" rx=".603834" ry=".603831" stroke="url(#ad)" stroke-linecap="round" stroke-linejoin="round" stroke-width=".172141" transform="matrix(.95293034 -.30318931 .30319238 .95292937 0 0)"/><path d="m3.021795 87.08577h1.109151v.247114h-1.109151z" fill="url(#ab)" opacity=".380435" transform="matrix(.6767178 -.7362425 .74182999 .670588 0 0)"/><g transform="matrix(.56733276 0 0 .56732955 9.158178 12.204144)"><path d="m54.10111 4.28125c-11.50738.5839359-20.656249 10.129577-20.65625 21.78125 0 12.027534 9.753717 21.78125 21.78125 21.78125s21.78125-9.753716 21.78125-21.78125-9.753716-21.7812502-21.78125-21.78125c-.37586 0-.753794-.018837-1.125 0zm1.125 4.28125c9.660532 0 17.5 7.839468 17.5 17.5s-7.839469 17.5-17.5 17.5c-9.660532 0-17.499999-7.839468-17.5-17.5 0-9.660532 7.839468-17.4999999 17.5-17.5z" fill="url(#Y)"/><g fill="none" stroke-linecap="round" stroke-linejoin="round"><circle cx="67.155708" cy="60.925476" r="5.774783" stroke="url(#Z)" stroke-width=".076345" transform="matrix(3.7731305 0 0 3.7731305 -198.15581 -203.82327)"/><circle cx="67.155708" cy="60.925476" r="5.774783" stroke="url(#aa)" stroke-width=".095051" transform="matrix(3.0305836 0 0 -3.0305836 -148.28955 210.69625)"/></g></g><ellipse cx="31.262609" cy="49.113407" fill="none" rx=".662719" ry=".662716" stroke="url(#X)" stroke-linecap="round" stroke-linejoin="round" stroke-width=".163425" transform="matrix(.95293032 -.30318938 .30319244 .95292935 0 0)"/><ellipse cx="31.262606" cy="49.113403" fill="url(#V)" rx=".603834" ry=".603831" stroke="url(#W)" stroke-linecap="round" stroke-linejoin="round" stroke-width=".172141" transform="matrix(.95293034 -.30318931 .30319238 .95292937 0 0)"/><path d="m1.721239 58.032398h1.109151v.247114h-1.109151z" fill="url(#U)" opacity=".380435" transform="matrix(.6767178 -.7362425 .74182999 .670588 0 0)"/><ellipse cx="21.062252" cy="31.635809" fill="none" rx=".662719" ry=".662716" stroke="url(#T)" stroke-linecap="round" stroke-linejoin="round" stroke-width=".163425" transform="matrix(.95293032 -.30318938 .30319244 .95292935 0 0)"/><ellipse cx="21.062243" cy="31.635809" fill="url(#R)" rx=".603834" ry=".603831" stroke="url(#S)" stroke-linecap="round" stroke-linejoin="round" stroke-width=".172141" transform="matrix(.95293034 -.30318931 .30319238 .95292937 0 0)"/><path d="m1.710369 37.796017h1.109151v.247114h-1.109151z" fill="url(#Q)" opacity=".380435" transform="matrix(.6767178 -.7362425 .74182999 .670588 0 0)"/><ellipse cx="40.291267" cy="32.550781" fill="none" rx=".662719" ry=".662716" stroke="url(#P)" stroke-linecap="round" stroke-linejoin="round" stroke-width=".163425" transform="matrix(.95293032 -.30318938 .30319244 .95292935 0 0)"/><ellipse cx="40.29126" cy="32.550777" fill="url(#N)" rx=".603834" ry=".603831" stroke="url(#O)" stroke-linecap="round" stroke-linejoin="round" stroke-width=".172141" transform="matrix(.95293034 -.30318931 .30319238 .95292937 0 0)"/><path d="m17.862837 48.136208h1.109151v.247114h-1.109151z" fill="url(#M)" opacity=".380435" transform="matrix(.6767178 -.7362425 .74182999 .670588 0 0)"/><ellipse cx="71.491837" cy="-37.568489" fill="none" rx="5.885788" ry="5.885755" stroke="url(#L)" stroke-linecap="round" stroke-linejoin="round" stroke-width=".163425" transform="scale(1 -1)"/><path d="m71.493864 31.68837c-3.248957.000001-5.886075 2.637108-5.886075 5.886045 0 3.248933 2.637118 5.886046 5.886075 5.886046 3.248962 0 5.886083-2.637113 5.886083-5.886046 0-3.248938-2.637121-5.886045-5.886083-5.886045zm0 2.045933c2.18109 0 3.953601 1.99935 3.953601 3.840112 0 2.181079-1.772506 4.010312-3.953601 4.010312-2.181084 0-3.896865-1.829233-3.896865-4.010312 0-2.080986 1.715781-3.840114 3.896865-3.840112z" fill="url(#K)"/><ellipse cx="52.921131" cy="60.587467" fill="none" rx=".435503" ry=".435501" stroke="url(#J)" stroke-linecap="round" stroke-linejoin="round" stroke-width=".163425" transform="matrix(.95293041 -.30318911 .30319229 .9529294 0 0)"/><ellipse cx="52.921101" cy="60.587486" fill="url(#H)" rx=".396806" ry=".396805" stroke="url(#I)" stroke-linecap="round" stroke-linejoin="round" stroke-width=".172141" transform="matrix(.95293029 -.30318948 .30319267 .95292928 0 0)"/><path d="m14.845165 78.78756h.728874v.16239h-.728874z" fill="url(#G)" opacity=".380435" transform="matrix(.6767178 -.7362425 .74182999 .670588 0 0)"/><ellipse cx="60.334991" cy="54.313679" fill="none" rx=".435503" ry=".435501" stroke="url(#F)" stroke-linecap="round" stroke-linejoin="round" stroke-width=".163425" transform="matrix(.95293041 -.30318911 .30319229 .9529294 0 0)"/><ellipse cx="60.334961" cy="54.313702" fill="url(#D)" rx=".396806" ry=".396805" stroke="url(#E)" stroke-linecap="round" stroke-linejoin="round" stroke-width=".172141" transform="matrix(.95293029 -.30318948 .30319267 .95292928 0 0)"/><path d="m24.410076 77.021561h.728874v.16239h-.728874z" fill="url(#C)" opacity=".380435" transform="matrix(.6767178 -.7362425 .74182999 .670588 0 0)"/><g transform="matrix(.40532324 0 0 .40532095 .63709 61.430239)"><path d="m54.10111 4.28125c-11.50738.5839359-20.656249 10.129577-20.65625 21.78125 0 12.027534 9.753717 21.78125 21.78125 21.78125s21.78125-9.753716 21.78125-21.78125-9.753716-21.7812502-21.78125-21.78125c-.37586 0-.753794-.018837-1.125 0zm1.125 4.28125c9.660532 0 17.5 7.839468 17.5 17.5s-7.839469 17.5-17.5 17.5c-9.660532 0-17.499999-7.839468-17.5-17.5 0-9.660532 7.839468-17.4999999 17.5-17.5z" fill="url(#y)"/><g fill="none" stroke-linecap="round" stroke-linejoin="round"><circle cx="67.155708" cy="60.925476" r="5.774783" stroke="url(#A)" stroke-width=".10686" transform="matrix(3.7731305 0 0 3.7731305 -198.15581 -203.82327)"/><circle cx="67.155708" cy="60.925476" r="5.774783" stroke="url(#B)" stroke-width=".133043" transform="matrix(3.0305836 0 0 -3.0305836 -148.28955 210.69625)"/></g></g><ellipse cx=".725686" cy="83.527878" fill="none" rx=".473471" ry=".473469" stroke="url(#x)" stroke-linecap="round" stroke-linejoin="round" stroke-width=".163425" transform="matrix(.95293041 -.30318911 .30319222 .95292942 0 0)"/><ellipse cx=".725632" cy="83.527878" fill="url(#v)" rx=".431401" ry=".431398" stroke="url(#w)" stroke-linecap="round" stroke-linejoin="round" stroke-width=".172141" transform="matrix(.95293031 -.30318941 .30319262 .95292929 0 0)"/><path d="m-41.834824 72.783936h.792418v.176547h-.792418z" fill="url(#u)" opacity=".380435" transform="matrix(.6767178 -.7362425 .74182999 .670588 0 0)"/><ellipse cx="-6.561822" cy="71.041252" fill="none" rx=".473471" ry=".473469" stroke="url(#t)" stroke-linecap="round" stroke-linejoin="round" stroke-width=".163425" transform="matrix(.95293041 -.30318911 .30319222 .95292942 0 0)"/><ellipse cx="-6.561864" cy="71.041252" fill="url(#r)" rx=".431401" ry=".431398" stroke="url(#s)" stroke-linecap="round" stroke-linejoin="round" stroke-width=".172141" transform="matrix(.95293031 -.30318941 .30319262 .95292929 0 0)"/><path d="m-41.842583 58.326378h.792418v.176547h-.792418z" fill="url(#q)" opacity=".380435" transform="matrix(.6767178 -.7362425 .74182999 .670588 0 0)"/><ellipse cx="7.176093" cy="71.694939" fill="none" rx=".473471" ry=".473469" stroke="url(#p)" stroke-linecap="round" stroke-linejoin="round" stroke-width=".163425" transform="matrix(.95293041 -.30318911 .30319222 .95292942 0 0)"/><ellipse cx="7.176053" cy="71.694946" fill="url(#n)" rx=".431401" ry=".431398" stroke="url(#o)" stroke-linecap="round" stroke-linejoin="round" stroke-width=".172141" transform="matrix(.95293031 -.30318941 .30319262 .95292929 0 0)"/><path d="m-30.302711 65.71376h.792418v.176547h-.792418z" fill="url(#m)" opacity=".380435" transform="matrix(.6767178 -.7362425 .74182999 .670588 0 0)"/><circle cx="67.155708" cy="60.925476" fill="none" r="5.774783" stroke="url(#j)" stroke-linecap="round" stroke-linejoin="round" stroke-width=".051037" transform="matrix(3.00998410536 0 0 -3.00996746586 -148.23640803897 246.41881362223)"/><circle cx="67.155708" cy="60.925476" fill="none" r="5.774783" stroke="url(#k)" stroke-linecap="round" stroke-linejoin="round" stroke-width=".051463" transform="matrix(2.9851015 0 0 2.98508499804 -146.56541807287 -118.83261246622)"/></svg>