<svg height="96" width="96" xmlns="http://www.w3.org/2000/svg" xmlns:xlink="http://www.w3.org/1999/xlink"><linearGradient id="a"><stop offset="0" stop-color="#b4b4b4"/><stop offset="1" stop-color="#fefefe" stop-opacity="0"/></linearGradient><linearGradient id="b" gradientUnits="userSpaceOnUse" x1="61.294735" x2="117.36092" xlink:href="#d" y1="121.32806" y2="18.868103"/><filter id="c" color-interpolation-filters="sRGB"><feGaussianBlur stdDeviation=".91605611"/></filter><linearGradient id="d"><stop offset="0"/><stop offset="1" stop-opacity="0"/></linearGradient><linearGradient id="e" gradientUnits="userSpaceOnUse" x1="61.294735" x2="104.6299" xlink:href="#d" y1="121.32806" y2="41.346642"/><filter id="f" color-interpolation-filters="sRGB" height="1.27541" width="2.866667" x="-.933333" y="-.137705"><feGaussianBlur stdDeviation=".92807767"/></filter><filter id="g" color-interpolation-filters="sRGB" height="1.271477" width="3.069921" x="-1.034961" y="-.135738"><feGaussianBlur stdDeviation=".9498173"/></filter><linearGradient id="h" gradientUnits="userSpaceOnUse" spreadMethod="repeat" x1="137" x2="139.03125" y1="106" y2="106"><stop offset="0" stop-color="#3d3d3d"/><stop offset="1" stop-color="#fefefe"/></linearGradient><linearGradient id="i" gradientUnits="userSpaceOnUse" spreadMethod="reflect" x1="143.000002" x2="149.000002" xlink:href="#o" y1="111.500001" y2="111.500001"/><linearGradient id="j" gradientUnits="userSpaceOnUse" spreadMethod="reflect" x1="143.000002" x2="149.000002" xlink:href="#B" y1="110.500001" y2="110.500001"/><linearGradient id="k" gradientUnits="userSpaceOnUse" spreadMethod="reflect" x1="143.000002" x2="149.000002" xlink:href="#o" y1="109.500001" y2="109.500001"/><linearGradient id="l" gradientUnits="userSpaceOnUse" spreadMethod="reflect" x1="143.000002" x2="149.000002" xlink:href="#B" y1="108.500001" y2="108.500001"/><linearGradient id="m" gradientUnits="userSpaceOnUse" spreadMethod="reflect" x1="143.000002" x2="149.000002" xlink:href="#o" y1="103.500001" y2="103.500001"/><linearGradient id="n" gradientUnits="userSpaceOnUse" spreadMethod="reflect" x1="143.000002" x2="149.000002" xlink:href="#B" y1="102.500001" y2="102.500001"/><linearGradient id="o"><stop offset="0" stop-color="#fefefe"/><stop offset=".69999999" stop-color="#fefefe" stop-opacity=".498039"/><stop offset="1" stop-color="#fefefe" stop-opacity="0"/></linearGradient><linearGradient id="p" gradientUnits="userSpaceOnUse" spreadMethod="reflect" x1="143.000002" x2="149.000002" xlink:href="#o" y1="101.500001" y2="101.500001"/><linearGradient id="q" gradientUnits="userSpaceOnUse" spreadMethod="reflect" x1="143.000002" x2="149.000002" xlink:href="#B" y1="100.500001" y2="100.500001"/><linearGradient id="r" gradientUnits="userSpaceOnUse" x1="136" x2="150" y1="106" y2="106"><stop offset="0" stop-color="#444542"/><stop offset="1" stop-color="#71746e"/></linearGradient><linearGradient id="s" gradientUnits="userSpaceOnUse" x1="136" x2="150" y1="106" y2="106"><stop offset="0" stop-color="#404040"/><stop offset=".2" stop-color="#808080"/><stop offset=".69999999" stop-color="#efefef"/><stop offset="1" stop-color="#dcdcdc"/></linearGradient><filter id="t" color-interpolation-filters="sRGB" height="1.2988" width="2.219592" x="-.609796" y="-.1494"><feGaussianBlur stdDeviation=".77812506"/></filter><filter id="u" color-interpolation-filters="sRGB" height="1.227422" width="1.863226" x="-.431613" y="-.113711"><feGaussianBlur stdDeviation=".73914765"/></filter><linearGradient id="v" gradientTransform="matrix(1 0 0 1.2653524 -29.85843 -54.364173)" gradientUnits="userSpaceOnUse" x1="146.10596" x2="146.07562" xlink:href="#a" y1="118.94019" y2="66"/><linearGradient id="w" gradientTransform="matrix(1 0 0 1.2653524 -23.73343 -54.364173)" gradientUnits="userSpaceOnUse" x1="146.10596" x2="146.07562" xlink:href="#a" y1="118.94019" y2="66"/><linearGradient id="x" gradientUnits="userSpaceOnUse" x1="113.25461" x2="125.2617" y1="17.043356" y2="17.043356"><stop offset="0" stop-color="#da8539"/><stop offset="1" stop-color="#fadfc7"/></linearGradient><linearGradient id="y" gradientUnits="userSpaceOnUse" x1="117.51659" x2="121.07909" y1="4.921872" y2="4.921872"><stop offset="0"/><stop offset=".5" stop-color="#7d7d7d"/><stop offset="1"/></linearGradient><linearGradient id="z" gradientUnits="userSpaceOnUse" x1="119.26657" x2="119.26657" y1=".000002" y2="120.01752"><stop offset="0"/><stop offset=".06588447"/><stop offset=".07" stop-color="#ad5f1b"/><stop offset=".1913653" stop-color="#ad601a"/><stop offset=".20983393" stop-color="#646464"/><stop offset="1" stop-color="#575757"/></linearGradient><linearGradient id="A" gradientUnits="userSpaceOnUse" x1="112.26657" x2="126.26657" y1="60" y2="60"><stop offset="0" stop-color="#232323"/><stop offset=".25" stop-color="#282828"/><stop offset=".30000001" stop-color="#2d2d2d"/><stop offset=".69999999" stop-color="#3c3c3c"/><stop offset=".75" stop-color="#464646"/><stop offset="1" stop-color="#3c3c3c"/></linearGradient><linearGradient id="B"><stop offset="0"/><stop offset=".69999999" stop-opacity=".498039"/><stop offset="1" stop-opacity="0"/></linearGradient><linearGradient id="C" gradientTransform="matrix(1.0893815 0 0 1 -13.275943 0)" gradientUnits="userSpaceOnUse" x1="137.40625" x2="148.53125" xlink:href="#B" y1="116.46875" y2="116.46875"/><filter id="D" color-interpolation-filters="sRGB" height="1.353367" width="1.366887" x="-.183443" y="-.176683"><feGaussianBlur stdDeviation=".65925"/></filter><filter id="E" color-interpolation-filters="sRGB" height="1.333333" width="1.857143" x="-.428571" y="-.166667"><feGaussianBlur stdDeviation=".55242721"/></filter><linearGradient id="F" gradientUnits="userSpaceOnUse" x1="136.41356" x2="149.52968" y1="115.49392" y2="115.49392"><stop offset="0" stop-color="#e6605b"/><stop offset="1" stop-color="#f08682"/></linearGradient><linearGradient id="G"><stop offset="0"/><stop offset="1" stop-opacity=".588235"/></linearGradient><linearGradient id="H" gradientTransform="scale(1.0058652 .994169)" gradientUnits="userSpaceOnUse" x1="45.447727" x2="45.447727" xlink:href="#G" y1="92.539597" y2="7.01654"/><linearGradient id="I"><stop offset="0" stop-color="#fefefe"/><stop offset="1" stop-color="#fefefe" stop-opacity="0"/></linearGradient><linearGradient id="J" gradientUnits="userSpaceOnUse" x1="36.357143" x2="36.357143" xlink:href="#I" y1="6" y2="63.893143"/><linearGradient id="K" gradientUnits="userSpaceOnUse" x1="48" x2="48" y1="90" y2="5.987717"><stop offset="0" stop-color="#78dca4"/><stop offset="1" stop-color="#f5f5f5"/></linearGradient><radialGradient id="L" cx="48" cy="90.171875" gradientTransform="matrix(1.1573129 0 0 .99590774 -7.551021 .197132)" gradientUnits="userSpaceOnUse" r="42" xlink:href="#I"/><linearGradient id="M" gradientTransform="matrix(1.0238095 0 0 1.0119048 -1.142857 .928571)" gradientUnits="userSpaceOnUse" x1="48" x2="48" xlink:href="#H" y1="90" y2="5.987717"/><linearGradient id="N" gradientUnits="userSpaceOnUse" x1="48" x2="48" xlink:href="#G" y1="91" y2="6.987717"/><g><path d="m20.90625 4.03125c-1.119919-.039226-2.394393.038225-3.5.8125a.90582636.90582636 0 0 0 -.1875.21875c-.124567-.1239065-.170691-.3445452-.3125-.4375-.564947-.3703198-1.191585-.4853741-1.78125-.53125-1.179329-.091752-2.375524.078075-3.03125 0a.90582636.90582636 0 0 0 -.0625 0c-6.0495585-.1795842-10.6570233 5.6506622-9.9375 11.4375.0000552.04167-.0000543.08333 0 .125.030515 23.419957-.077539 46.822793.03125 70.25a.90582636.90582636 0 0 0 0 .0625c.4299168 5.796659 6.1856257 9.608197 11.65625 8.9375.04188-.0051.08315.0057.125 0 23.668957-.03053 47.323899.07754 71-.03125a.90582636.90582636 0 0 0 .0625 0c5.796659-.429919 9.608197-6.185626 8.9375-11.65625-.0051-.04188.0057-.08315 0-.125-.03051-23.335574.07754-46.657154-.03125-70a.90582636.90582636 0 0 0 0-.0625c-.424923-5.7293294-6.056034-9.4665061-11.46875-8.90625-.100978-.0205853-.209405-.0169484-.3125-.03125-.884307-.1226741-1.849013-.0272948-2.6875.40625-.269401.1392956-.463483.3965714-.6875.625-.372691-.4240388-.836199-.8095295-1.46875-.96875a.90582636.90582636 0 0 0 -.21875-.03125c-3.033095.0345539-6.229358-.2377707-9.40625.125a.90582636.90582636 0 0 0 -.3125.09375c-.414294.2141609-.60892.6109323-.875.9375-.185439-.2140684-.27292-.5465295-.5-.6875-.586128-.3638661-1.232708-.4885828-1.84375-.53125-1.222084-.0853343-2.451686.1125297-3.15625.03125a.90582636.90582636 0 0 0 -.21875 0c-.812752.1113555-1.850439-.02345-2.96875-.0625s-2.392948.037212-3.5.8125a.90582636.90582636 0 0 0 -.1875.21875c-.01486.019982-.01689.042383-.03125.0625-.150476-.1513851-.201302-.4234187-.375-.53125-.586128-.3638661-1.232708-.4885828-1.84375-.53125-1.222084-.0853343-2.451686.1125297-3.15625.03125a.90582636.90582636 0 0 0 -.21875 0c-.812752.1113555-1.850439-.02345-2.96875-.0625s-2.392948.037212-3.5.8125a.90582636.90582636 0 0 0 -.1875.21875c-.014863.0199821-.016885.0423835-.03125.0625-.150476-.1513851-.201302-.4234187-.375-.53125-.586128-.3638661-1.232708-.4885828-1.84375-.53125-1.222084-.0853343-2.451686.1125297-3.15625.03125a.90582636.90582636 0 0 0 -.21875 0c-.812752.1113555-1.850439-.02345-2.96875-.0625s-2.392948.037212-3.5.8125a.90582636.90582636 0 0 0 -.1875.21875c-.01486.019982-.01688.042383-.03125.0625-.150476-.1513851-.201302-.4234187-.375-.53125-.586128-.3638661-1.232708-.4885828-1.84375-.53125-1.222084-.0853343-2.451686.1125297-3.15625.03125a.90582636.90582636 0 0 0 -.21875 0c-.808121.1107211-1.849089-.0232834-2.96875-.0625zm57.84375 8.3125c.201026.225089.344561.493603.625.65625v.03125c.04503.02958.0521.03375.09375.0625.98578.680457 1.084241 1.153991 1 1.53125-.0878.3932-.571145.932733-1.21875 1.21875s-1.366204.296382-1.71875.09375c-.336521-.193422-.587454-.625484-.4375-1.8125.131473-.348897.622364-.737477 1.28125-1.3125.136052-.118736.238546-.325605.375-.46875zm-61.46875.09375c.408191.450973.863545.813739 1.1875 1.09375.28627.247438.456812.458741.53125.625.07444.166259.09357.303898-.03125.6875a.90582636.90582636 0 0 0 0 .03125c-.325433 1.095545-.743516 1.310614-1.15625 1.375-.412734.06439-.993831-.126184-1.46875-.5625s-.770592-1.059696-.75-1.5c.02059-.440304.200828-.854569 1.21875-1.28125a.90582636.90582636 0 0 0 .28125-.1875c.09005-.08243.109697-.192714.1875-.28125zm12.28125 0c.408191.450973.863545.813739 1.1875 1.09375.28627.247438.456812.458741.53125.625.07444.166259.09357.303898-.03125.6875a.90582636.90582636 0 0 0 0 .03125c-.325434 1.095545-.743517 1.310614-1.15625 1.375-.412733.06439-.993831-.126184-1.46875-.5625s-.770592-1.059696-.75-1.5c.02059-.440304.200828-.854569 1.21875-1.28125a.90582636.90582636 0 0 0 .28125-.1875c.09005-.08243.109697-.192714.1875-.28125zm12.28125 0c.408191.450973.863545.813739 1.1875 1.09375.28627.247438.456812.458741.53125.625.07444.166259.09357.303898-.03125.6875a.90582636.90582636 0 0 0 0 .03125c-.325433 1.095545-.743516 1.310614-1.15625 1.375-.412734.06439-.993831-.126184-1.46875-.5625s-.770592-1.059696-.75-1.5c.02059-.440304.200828-.854569 1.21875-1.28125a.90582636.90582636 0 0 0 .28125-.1875c.09005-.08243.109697-.192714.1875-.28125zm12.28125 0c.408343.450688.86385.814129 1.1875 1.09375.286.247093.456928.458802.53125.625.07432.166198.09375.302764-.03125.6875a.90582636.90582636 0 0 0 0 .03125c-.31729 1.091755-.713819 1.31137-1.125 1.375s-1.021672-.156233-1.5-.59375-.769167-1.031139-.75-1.46875c.01917-.437611.198808-.856404 1.21875-1.28125a.90582636.90582636 0 0 0 .28125-.1875c.09005-.08243.109697-.192714.1875-.28125zm12.25 0c.39574.436423.835222.790037 1.15625 1.0625.301951.256272.513511.453631.59375.625.08024.171369.09739.323744-.03125.71875a.90582636.90582636 0 0 0 0 .03125c-.31729 1.091755-.713819 1.31137-1.125 1.375s-1.021672-.156233-1.5-.59375-.769167-1.031139-.75-1.46875c.01917-.437611.198808-.856404 1.21875-1.28125a.90582636.90582636 0 0 0 .28125-.1875c.08798-.08054.08078-.1955.15625-.28125z" fill="url(#M)" opacity=".08"/><path d="m12 7c-3.878 0-7 3.122-7 7v71c0 3.878 3.122 7 7 7h72c3.878 0 7-3.122 7-7v-71c0-3.878-3.122-7-7-7h-3.25v3.53125c1.505298.749421 2.5625 2.283953 2.5625 4.0625 0 2.513571-2.050607 4.5625-4.59375 4.5625s-4.625-2.048929-4.625-4.5625c0-1.778547 1.057202-3.313079 2.5625-4.0625v-3.53125h-8.1875v3.53125c1.505298.749421 2.5625 2.283953 2.5625 4.0625 0 2.513571-2.050607 4.5625-4.59375 4.5625-2.543142 0-4.625-2.048929-4.625-4.5625 0-1.778547 1.057202-3.313079 2.5625-4.0625v-3.53125h-8.1875v3.53125c1.505298.749421 2.5625 2.283953 2.5625 4.0625 0 2.513571-2.050607 4.5625-4.59375 4.5625s-4.625-2.048929-4.625-4.5625c0-1.778547 1.057202-3.313079 2.5625-4.0625v-3.53125h-8.1875v3.53125c1.505298.749421 2.5625 2.283953 2.5625 4.0625 0 2.513571-2.081857 4.5625-4.625 4.5625s-4.59375-2.048929-4.59375-4.5625c0-1.778547 1.057202-3.313079 2.5625-4.0625v-3.53125h-8.1875v3.53125c1.505298.749421 2.5625 2.283953 2.5625 4.0625 0 2.513571-2.081858 4.5625-4.625 4.5625-2.543143 0-4.59375-2.048929-4.59375-4.5625 0-1.778547 1.057202-3.313079 2.5625-4.0625v-3.53125h-8.1875v3.53125c1.505298.749421 2.5625 2.283953 2.5625 4.0625 0 2.513571-2.081857 4.5625-4.625 4.5625s-4.59375-2.048929-4.59375-4.5625c0-1.778547 1.057202-3.313079 2.5625-4.0625v-3.53125z" fill="url(#M)" opacity=".3"/><path d="m12 7c-3.324 0-6 2.676-6 6v72c0 3.324 2.676 6 6 6h72c3.324 0 6-2.676 6-6v-72c0-3.324-2.676-6-6-6h-4v3.5c1.470291.740605 2.5 2.242377 2.5 4 0 2.484-2.016 4.5-4.5 4.5s-4.5-2.016-4.5-4.5c0-1.757623 1.029709-3.259395 2.5-4v-3.5h-8v3.5c1.470291.740605 2.5 2.242377 2.5 4 0 2.484-2.016 4.5-4.5 4.5s-4.5-2.016-4.5-4.5c0-1.757623 1.029709-3.259395 2.5-4v-3.5h-8v3.5c1.470291.740605 2.5 2.242377 2.5 4 0 2.484-2.016 4.5-4.5 4.5s-4.5-2.016-4.5-4.5c0-1.757623 1.029709-3.259395 2.5-4v-3.5h-8v3.5c1.470291.740605 2.5 2.242377 2.5 4 0 2.484-2.016 4.5-4.5 4.5s-4.5-2.016-4.5-4.5c0-1.757623 1.029709-3.259395 2.5-4v-3.5h-8v3.5c1.470291.740605 2.5 2.242377 2.5 4 0 2.484-2.016 4.5-4.5 4.5s-4.5-2.016-4.5-4.5c0-1.757623 1.029709-3.259395 2.5-4v-3.5h-8v3.5c1.470291.740605 2.5 2.242377 2.5 4 0 2.484-2.016 4.5-4.5 4.5s-4.5-2.016-4.5-4.5c0-1.757623 1.029709-3.259395 2.5-4v-3.5z" fill="url(#N)" opacity=".45"/><g fill="url(#M)"><path d="m12 6.03125c-4.3908374 0-7.96875 3.5779126-7.96875 7.96875v71c0 4.390837 3.5779126 7.96875 7.96875 7.96875h72c4.390837 0 7.96875-3.577913 7.96875-7.96875v-71c0-4.3908374-3.577913-7.96875-7.96875-7.96875h-3.25a.955629.955629 0 0 0 -.96875.96875v3.53125a.955629.955629 0 0 0 .53125.84375c1.199222.597039 2.03125 1.818861 2.03125 3.21875 0 1.993879-1.595085 3.59375-3.625 3.59375s-3.65625-1.607791-3.65625-3.59375c0-1.399889.832028-2.621711 2.03125-3.21875a.955629.955629 0 0 0 .53125-.84375v-3.53125a.955629.955629 0 0 0 -.96875-.96875h-8.1875a.955629.955629 0 0 0 -.96875.96875v3.53125a.955629.955629 0 0 0 .53125.84375c1.199222.597039 2.03125 1.818861 2.03125 3.21875 0 1.993879-1.595085 3.59375-3.625 3.59375-2.029913 0-3.65625-1.607791-3.65625-3.59375 0-1.399889.832028-2.621711 2.03125-3.21875a.955629.955629 0 0 0 .53125-.84375v-3.53125a.955629.955629 0 0 0 -.96875-.96875h-8.1875a.955629.955629 0 0 0 -.96875.96875v3.53125a.955629.955629 0 0 0 .53125.84375c1.199222.597039 2.03125 1.818861 2.03125 3.21875 0 1.993879-1.595085 3.59375-3.625 3.59375s-3.65625-1.607791-3.65625-3.59375c0-1.399889.832028-2.621711 2.03125-3.21875a.955629.955629 0 0 0 .53125-.84375v-3.53125a.955629.955629 0 0 0 -.96875-.96875h-8.1875a.955629.955629 0 0 0 -.96875.96875v3.53125a.955629.955629 0 0 0 .53125.84375c1.199222.597039 2.03125 1.818861 2.03125 3.21875 0 1.985959-1.626335 3.59375-3.65625 3.59375s-3.625-1.599871-3.625-3.59375c0-1.399889.832028-2.621711 2.03125-3.21875a.955629.955629 0 0 0 .53125-.84375v-3.53125a.955629.955629 0 0 0 -.96875-.96875h-8.1875a.955629.955629 0 0 0 -.96875.96875v3.53125a.955629.955629 0 0 0 .53125.84375c1.199222.597039 2.03125 1.818861 2.03125 3.21875 0 1.985959-1.626337 3.59375-3.65625 3.59375-2.029915 0-3.625-1.599871-3.625-3.59375 0-1.399889.832028-2.621711 2.03125-3.21875a.955629.955629 0 0 0 .53125-.84375v-3.53125a.955629.955629 0 0 0 -.96875-.96875h-8.1875a.955629.955629 0 0 0 -.96875.96875v3.53125a.955629.955629 0 0 0 .53125.84375c1.199222.597039 2.03125 1.818861 2.03125 3.21875 0 1.985959-1.626335 3.59375-3.65625 3.59375s-3.625-1.599871-3.625-3.59375c0-1.399889.832028-2.621711 2.03125-3.21875a.955629.955629 0 0 0 .53125-.84375v-3.53125a.955629.955629 0 0 0 -.96875-.96875z" opacity=".15"/><path d="m12 5c-5.482887-.1627623-9.7256585 5.246897-9 10.518889.0310699 23.465278-.062205 46.933727.046752 70.397018.390261 5.261971 5.7137757 8.762119 10.725285 8.084093 23.714228-.03108 47.431629.06221 71.14387-.04675 5.261971-.390263 8.762119-5.713778 8.084093-10.725287-.031069-23.380895.062204-46.764962-.046752-70.14387-.390261-5.2619714-5.713776-8.7621193-10.725285-8.084093-1.534139-.3127471-3.675515.3363878-3.477963 2.2531482.224121 1.6435449-.700479 4.0831528 1.125 5.0281018 5.178641 3.401619-4.621409 7.77131-3.677467 1.595936.488417-1.496372 2.882779-1.913998 2.458717-3.852232-.121979-1.7118672.649566-4.4211695-1.625-4.993704-3.090776.035211-6.255859-.2240392-9.3125.125-2.070773 1.0704447-1.005692 3.804248-1.21875 5.65625.307784 1.807323 3.218034 2.044863 2.481093 4.30775-1.524417 5.24533-8.338137-.995549-3.387343-3.05775 1.466276-1.342226.531716-3.6816652.75-5.4375-.684181-2.4454604-3.663285-1.411634-5.512825-1.625-1.983632.2717785-4.322549-.6157856-6.049675.59375-1.115931 1.5002401-.440668 3.6014275-.53125 5.34375.414508 1.696213 3.166521 1.976837 2.449843 4.18275-1.524418 5.24533-8.338137-.995549-3.387343-3.05775 1.466276-1.342226.531716-3.6816652.75-5.4375-.684181-2.4454604-3.663285-1.411634-5.512825-1.625-1.983632.2717785-4.322549-.6157856-6.049675.59375-1.115931 1.5002401-.440668 3.6014275-.53125 5.34375.412301 1.6952 3.165202 1.973895 2.448391 4.176784-1.560691 5.253942-8.327596-.980378-3.385891-3.051784 1.466276-1.342226.531716-3.6816652.75-5.4375-.684181-2.4454604-3.663285-1.411634-5.512825-1.625-1.983632.2717785-4.322549-.6157856-6.049675.59375-1.115931 1.5002401-.440668 3.6014275-.53125 5.34375.412301 1.6952 3.165202 1.973895 2.448391 4.176784-1.560692 5.253942-8.327595-.980378-3.385891-3.051784 1.466276-1.342226.531716-3.6816652.75-5.4375-.684181-2.4454604-3.663285-1.411634-5.512825-1.625-1.983632.2717785-4.322549-.6157856-6.049675.59375-1.115931 1.5002401-.440668 3.6014275-.53125 5.34375.412301 1.6952 3.165202 1.973895 2.448391 4.176784-1.560691 5.253942-8.327596-.980378-3.385891-3.051784 1.466276-1.342226.531716-3.6816652.75-5.4375-.601502-2.4121121-3.458332-1.4153923-5.21875-1.625z" opacity=".1"/></g></g><path d="m12 6c-3.324 0-6 2.676-6 6v72c0 3.324 2.676 6 6 6h72c3.324 0 6-2.676 6-6v-72c0-3.324-2.676-6-6-6h-4v3.5c1.470291.740605 2.5 2.242377 2.5 4 0 2.484-2.016 4.5-4.5 4.5s-4.5-2.016-4.5-4.5c0-1.757623 1.029709-3.259395 2.5-4v-3.5h-8v3.5c1.470291.740605 2.5 2.242377 2.5 4 0 2.484-2.016 4.5-4.5 4.5s-4.5-2.016-4.5-4.5c0-1.757623 1.029709-3.259395 2.5-4v-3.5h-8v3.5c1.470291.740605 2.5 2.242377 2.5 4 0 2.484-2.016 4.5-4.5 4.5s-4.5-2.016-4.5-4.5c0-1.757623 1.029709-3.259395 2.5-4v-3.5h-8v3.5c1.470291.740605 2.5 2.242377 2.5 4 0 2.484-2.016 4.5-4.5 4.5s-4.5-2.016-4.5-4.5c0-1.757623 1.029709-3.259395 2.5-4v-3.5h-8v3.5c1.470291.740605 2.5 2.242377 2.5 4 0 2.484-2.016 4.5-4.5 4.5s-4.5-2.016-4.5-4.5c0-1.757623 1.029709-3.259395 2.5-4v-3.5h-8v3.5c1.470291.740605 2.5 2.242377 2.5 4 0 2.484-2.016 4.5-4.5 4.5s-4.5-2.016-4.5-4.5c0-1.757623 1.029709-3.259395 2.5-4v-3.5z" fill="url(#K)"/><path d="m12 6c-3.324 0-6 2.676-6 6v2 68 2c0 .334721.04135.6507.09375.96875.0487.295596.09704.596915.1875.875.00988.03038.020892.0636.03125.09375.098865.287771.2348802.547452.375.8125.1445918.273507.3156161.535615.5.78125s.3737765.473472.59375.6875c.439947.428056.94291.814526 1.5 1.09375.278545.139612.5734731.246947.875.34375-.2562018-.100222-.4867109-.236272-.71875-.375-.00741-.0044-.023866.0045-.03125 0-.031933-.0193-.062293-.04251-.09375-.0625-.120395-.0767-.2310226-.163513-.34375-.25-.1061728-.0808-.2132809-.161112-.3125-.25-.1779299-.161433-.3474596-.345388-.5-.53125-.1075789-.130255-.2183939-.265285-.3125-.40625-.025089-.03838-.038446-.08587-.0625-.125-.064763-.103032-.1302275-.204517-.1875-.3125-.1010083-.194706-.2056748-.415701-.28125-.625-.00796-.02181-.023589-.04055-.03125-.0625-.0318251-.09195-.0358045-.186831-.0625-.28125-.0303323-.106618-.0703894-.203031-.09375-.3125-.0728786-.341512-.125-.698205-.125-1.0625v-2-68-2c0-2.781848 2.2181517-5 5-5h2 2v-2zm8 0v2h8v-2zm12 0v2h8v-2zm12 0v2h8v-2zm12 0v2h8v-2zm12 0v2h8v-2zm12 0v2h2 2c2.781848 0 5 2.218152 5 5v2 68 2c0 .364295-.05212.720988-.125 1.0625-.04415.206893-.08838.397658-.15625.59375-.0077.02195-.0233.04069-.03125.0625-.06274.173739-.138383.367449-.21875.53125-.04158.0828-.07904.169954-.125.25-.0546.09721-.126774.18835-.1875.28125-.09411.140965-.204921.275995-.3125.40625-.143174.17445-.303141.346998-.46875.5-.01117.0102-.01998.02115-.03125.03125-.138386.125556-.285091.234436-.4375.34375-.102571.07315-.204318.153364-.3125.21875-.0074.0045-.02384-.0044-.03125 0-.232039.138728-.462548.274778-.71875.375.301527-.0968.596455-.204138.875-.34375.55709-.279224 1.060053-.665694 1.5-1.09375.219973-.214028.409366-.441865.59375-.6875s.355408-.507743.5-.78125c.14012-.265048.276135-.524729.375-.8125.01041-.03078.02133-.06274.03125-.09375.09046-.278085.1388-.579404.1875-.875.0524-.31805.09375-.634029.09375-.96875v-2-68-2c0-3.324-2.676-6-6-6z" fill="url(#J)" opacity=".5"/><path d="m12 90c-3.324 0-6-2.676-6-6v-2-68-2c0-.334721.04135-.6507.09375-.96875.0487-.295596.09704-.596915.1875-.875.00988-.03038.020892-.0636.03125-.09375.098865-.287771.2348802-.547452.375-.8125.1445918-.273507.3156161-.535615.5-.78125s.3737765-.473472.59375-.6875c.439947-.428056.94291-.814526 1.5-1.09375.278545-.139612.5734731-.246947.875-.34375-.2562018.100222-.4867109.236272-.71875.375-.00741.0044-.023866-.0045-.03125 0-.031933.0193-.062293.04251-.09375.0625-.120395.0767-.2310226.163513-.34375.25-.1061728.0808-.2132809.161112-.3125.25-.1779299.161433-.3474596.345388-.5.53125-.1075789.130255-.2183939.265285-.3125.40625-.025089.03838-.038446.08587-.0625.125-.064763.103032-.1302275.204517-.1875.3125-.1010083.194706-.2056748.415701-.28125.625-.00796.02181-.023589.04055-.03125.0625-.0318251.09195-.0358045.186831-.0625.28125-.0303323.106618-.0703894.203031-.09375.3125-.0728786.341512-.125.698205-.125 1.0625v2 68 2c0 2.781848 2.2181517 5 5 5h2 68 2c2.781848 0 5-2.218152 5-5v-2-68-2c0-.364295-.05212-.720988-.125-1.0625-.04415-.206893-.08838-.397658-.15625-.59375-.0077-.02195-.0233-.04069-.03125-.0625-.06274-.173739-.138383-.367449-.21875-.53125-.04158-.0828-.07904-.169954-.125-.25-.0546-.09721-.126774-.18835-.1875-.28125-.09411-.140965-.204921-.275995-.3125-.40625-.143174-.17445-.303141-.346998-.46875-.5-.01117-.0102-.01998-.02115-.03125-.03125-.138386-.125556-.285091-.234436-.4375-.34375-.102571-.07315-.204318-.153364-.3125-.21875-.0074-.0045-.02384.0044-.03125 0-.232039-.138728-.462548-.274778-.71875-.375.301527.0968.596455.204138.875.34375.55709.279224 1.060053.665694 1.5 1.09375.219973.214028.409366.441865.59375.6875s.355408.507743.5.78125c.14012.265048.276135.524729.375.8125.01041.03078.02133.06274.03125.09375.09046.278085.1388.579404.1875.875.0524.31805.09375.634029.09375.96875v2 68 2c0 3.324-2.676 6-6 6z" fill="url(#L)" opacity=".6"/><g fill="none" opacity=".2" stroke="#000013" stroke-width="2"><path d="m32.574169 34.573344v12.744905h-3.469027v-12.631784q0-2.997692-1.168911-4.487112-1.168912-1.489419-3.506734-1.489419-2.809158 0-4.430552 1.791074-1.621393 1.791074-1.621393 4.883033v11.934208h-3.48788v-21.115819h3.48788v3.280494q1.244325-1.904195 2.922279-2.846865 1.696807-.942671 3.902655-.942671 3.638708 0 5.505196 2.262409 1.866487 2.243556 1.866487 6.617547z"/><path d="m41.604952 36.779193q0 3.827242 1.564833 6.014238 1.583687 2.168142 4.336284 2.168142 2.752598 0 4.336284-2.168142 1.583687-2.186996 1.583687-6.014238 0-3.827242-1.583687-5.995384-1.583686-2.186996-4.336284-2.186996-2.752597 0-4.336284 2.186996-1.564833 2.168142-1.564833 5.995384zm11.821088 7.371683q-1.093498 1.885341-2.771451 2.809158-1.6591.904964-3.996923.904964-3.827242 0-6.240479-3.054253-2.394382-3.054252-2.394382-8.031552 0-4.9773 2.394382-8.031552 2.413237-3.054253 6.240479-3.054253 2.337823 0 3.996923.923817 1.677953.904964 2.771451 2.790305v-3.20508h3.469027v29.147371h-3.469027z"/><path d="m66.114384 36.779193q0 3.827242 1.564833 6.014238 1.583686 2.168142 4.336284 2.168142 2.752598 0 4.336284-2.168142 1.583687-2.186996 1.583687-6.014238 0-3.827242-1.583687-5.995384-1.583686-2.186996-4.336284-2.186996-2.752598 0-4.336284 2.186996-1.564833 2.168142-1.564833 5.995384zm11.821088 7.371683q-1.093498 1.885341-2.771451 2.809158-1.6591.904964-3.996923.904964-3.827242 0-6.240479-3.054253-2.394383-3.054252-2.394383-8.031552 0-4.9773 2.394383-8.031552 2.413237-3.054253 6.240479-3.054253 2.337823 0 3.996923.923817 1.677953.904964 2.771451 2.790305v-3.20508h3.469027v29.147371h-3.469027z"/></g><g fill="#009800" stroke-width="1.14938"><path d="m32.574169 34.573344v12.744905h-3.469027v-12.631784q0-2.997692-1.168911-4.487112-1.168912-1.489419-3.506734-1.489419-2.809158 0-4.430552 1.791074-1.621393 1.791074-1.621393 4.883033v11.934208h-3.48788v-21.115819h3.48788v3.280494q1.244325-1.904195 2.922279-2.846865 1.696807-.942671 3.902655-.942671 3.638708 0 5.505196 2.262409 1.866487 2.243556 1.866487 6.617547z"/><path d="m41.604952 36.779193q0 3.827242 1.564833 6.014238 1.583687 2.168142 4.336284 2.168142 2.752598 0 4.336284-2.168142 1.583687-2.186996 1.583687-6.014238 0-3.827242-1.583687-5.995384-1.583686-2.186996-4.336284-2.186996-2.752597 0-4.336284 2.186996-1.564833 2.168142-1.564833 5.995384zm11.821088 7.371683q-1.093498 1.885341-2.771451 2.809158-1.6591.904964-3.996923.904964-3.827242 0-6.240479-3.054253-2.394382-3.054252-2.394382-8.031552 0-4.9773 2.394382-8.031552 2.413237-3.054253 6.240479-3.054253 2.337823 0 3.996923.923817 1.677953.904964 2.771451 2.790305v-3.20508h3.469027v29.147371h-3.469027z"/><path d="m66.114384 36.779193q0 3.827242 1.564833 6.014238 1.583686 2.168142 4.336284 2.168142 2.752598 0 4.336284-2.168142 1.583687-2.186996 1.583687-6.014238 0-3.827242-1.583687-5.995384-1.583686-2.186996-4.336284-2.186996-2.752598 0-4.336284 2.186996-1.564833 2.168142-1.564833 5.995384zm11.821088 7.371683q-1.093498 1.885341-2.771451 2.809158-1.6591.904964-3.996923.904964-3.827242 0-6.240479-3.054253-2.394383-3.054252-2.394383-8.031552 0-4.9773 2.394383-8.031552 2.413237-3.054253 6.240479-3.054253 2.337823 0 3.996923.923817 1.677953.904964 2.771451 2.790305v-3.20508h3.469027v29.147371h-3.469027z"/></g><path d="m22.383834 59.376471c-.89921 2.113916-1.65249 3.719069-2.25984 4.81546.18142.765111.41805 1.147665.7099 1.147665h.48509l-.10648.473264h-.47327c-.33917 0-.6113-.418049-.81638-1.25415-.48115.836101-.8361 1.25415-1.06484 1.25415-.18142 0-.27213-.197193-.27213-.59158 0-.141978.0118-.27607.0355-.402275.0552-.252405.18537-.560027.39045-.922864.24452-.425935.45748-.638904.6389-.638906.16564.000002.29974.209028.40228.627075.54425-1.00174 1.2502-2.508295 2.11785-4.519671-.41805-.07098-.62707-.437762-.62707-1.100338 0-.291839.0434-.670449.13015-1.135834l.20113-.02366c-.0789.386506-.11832.690184-.11831.911032-.00001.560036.20507.855826.61524.88737.5127-1.22259.88737-1.833889 1.124-1.833897.1262.000008.1893.11438.18931.343115-.00001.370732-.12621.77695-.37861 1.218655-.27608.504822-.5837.753285-.92287.745391m1.08851-1.715583c0-.07887-.0237-.118308-.071-.118316-.14987.000008-.422.449608-.81638 1.348801.20508-.03943.40227-.197186.59158-.473264.19719-.28395.29579-.536357.29579-.757221m-3.62047 6.590199c-.0868-.347059-.18536-.520588-.29579-.52059-.11831.000002-.26818.149869-.4496.449601-.15775.252409-.2524.457489-.28395.615243-.0158.07099-.0237.145924-.0237.2248-.00001.21297.0552.319453.16564.319453.17353 0 .46932-.362835.88737-1.088507m3.17419 1.088507h.28396l-.0946.473264h-2.0232l.0947-.473264h.4496c.0237-.236631.12226-.579747.29579-1.029349.1893-.481149.33523-.796659.43777-.946528.22874-.354945.50087-.532419.81638-.532422h.0828c.26029.000003.39044.126207.39044.378612 0 .220859-.0907.57975-.27213 1.076675-.16564.441714-.31945.792718-.46143 1.053012m.52059-1.881224c0-.102538-.10254-.153808-.30762-.15381-.15776.000002-.28002.01972-.36678.05916-.20508.102544-.43777.481154-.69806 1.135834-.14987.378612-.22481.611299-.2248.698064-.00001.09465.0513.141979.15381.141979h.1893.20114c.22085 0 .41016-.17353.56792-.520591.32339-.717781.48509-1.171325.48509-1.360633m1.5614 1.798402c0 .05522.0315.08282.0947.08282h.4851l-.10649.473264h-.48509c-.13409 0-.20114-.106485-.20114-.319453 0-.489039.3234-1.289642.97019-2.401815-.3865.268185-.69807.441716-.93469.520591-.59159 1.467119-1.03724 2.200677-1.33698 2.200677h-.4141l.10648-.473264h.40228c.20508 0 .54425-.563972 1.01752-1.691919-.14199-.0079-.21298-.106482-.21297-.295789-.00001-.173528.0789-.414103.23663-.721727.15775-.315506.31156-.473261.46143-.473264.071.000003.10648.06311.10649.189305-.00001.157758-.0592.410166-.17748.757222.37072-.157751.82427-.465373 1.36064-.922864.0237-.02366.0434-.03549.0592-.0355.0315.000003.0473.03944.0473.118316-.00001.102543-.0986.299736-.29579.59158-.1972.28396-.42989.678347-.69807 1.18316-.3234.615244-.4851 1.021461-.48509 1.218653m-.0355-2.626613c-.1341.04733-.25636.21297-.36678.496926.0315.03155.071.04733.11831.04733.0237.000002.0473.000002.071 0 .0473-.126201.10649-.307619.17748-.544253m2.93682 3.182699h-1.36063c-.12621 0-.18536-.130147-.17748-.390443-.29184.260296-.50481.390443-.6389.390443h-.2603l.0947-.473264c.20508 0 .36284-.02761.47326-.08282.071-.03155.18931-.126202.35495-.283958l.0355-.02366c.0789-.362836.20903-.741446.39045-1.135834.22085-.489037.44565-.788771.6744-.899201.11831-.05521.27212-.08282.46143-.08282.29184.000003.43777.106488.43777.319454 0 .244522-.17353.540311-.52059.88737-.27607.244521-.5482.48904-.81638.733559-.10254.102541-.25635.248464-.46143.437769 0 .08676.0197.130147.0592.130147h1.3488l-.0947.473264m.20113-2.460972c-.0789-.03155-.19325-.04732-.34311-.04733-.14198.000002-.2603.02761-.35495.08282-.27607.157758-.52454.603413-.74539 1.336971.0868-.08676.22085-.212967.40227-.378611.24452-.20508.59158-.536364 1.04118-.993854m3.21912 2.460972h-.15381c-.0631.0079-.11043.01183-.14198.01183-.18142 0-.27213-.0986-.27212-.29579-.00001-.236632.11042-.615242.33128-1.135834.22874-.528476.34311-.840042.34312-.934696-.00001-.08676-.0592-.130145-.17748-.130147-.21297.000002-.45354.216915-.72172.650737-.15776.252409-.3589.650739-.60342 1.194992-.1893.433825-.29973.650738-.33128.650738-.0394 0-.0592-.03944-.0592-.118317 0-.07099.0158-.145923.0473-.2248l.54425-1.396129c.11832-.307619.17748-.512699.17748-.615242 0-.09465-.0434-.141977-.13015-.141979-.42594.000002-.83216.500873-1.21865 1.502612v-.02366c-.31551.670457-.6113 1.005685-.88737 1.005685h-.29579l.0947-.473264h.29579c.23663 0 .51664-.366779.84004-1.100339.18142-.489036.36283-.974132.54425-1.455286l.13015.189306-.0947.248463c.21297-.244516.44171-.366777.68623-.366779.16564.000002.24846.122263.24847.366779-.00001.126206-.0237.276073-.071.449601.33917-.544251.64284-.816378.91103-.81638.1893.000002.28395.114375.28396.343116-.00001.252409-.11438.642852-.34312 1.171329-.22086.528478-.33129.8361-.33128.922864.0315.03944.18141.05522.4496.04733l-.0947.473264m4.11647-4.010912c-.10254.000004-.15381-.09465-.15381-.283958 0-.228739.0789-.524529.23663-.88737.18141-.418044.35889-.627068.53242-.627074.10254.000006.15381.09466.15381.283958 0 .22875-.0789.528483-.23663.899201-.17353.410167-.35101.615247-.53242.615243m-.34312 4.010912h-.43777c-.28396 0-.42594-.193249-.42593-.579748-.00001-.126203.0158-.27607.0473-.449601-.35495.686233-.7099 1.029349-1.06485 1.029349h-.39044l.0947-.473264h.39044c.3865 0 .80455-.55214 1.25415-1.656424.20508-.520587.32734-.780882.36678-.780885.0315.000003.0473.03944.0473.118316 0 .08677-.0552.283961-.16564.59158-.24452.670459-.36678 1.13189-.36678 1.384297 0 .181418.0868.291847.26029.331285.0315.0079.19719.01183.49693.01183l-.10648.473264m.8992-5.265061c-.00001-.04732-.0118-.07098-.0355-.07099-.0868.000006-.18537.10649-.29579.319454-.11043.212974-.16565.370728-.16565.473264 0 .03944.0158.05916.0473.05916.0789.000005.17353-.10648.28396-.319452.11043-.212965.16564-.366776.16565-.461433m1.50741 5.265061h-.81637c-.0473 0-.071-.03944-.071-.118316-.00001-.236632.0592-.354948.17747-.354948.17353 0 .33128-.13409.47326-.402274.0394-.07099.1262-.280013.2603-.627075.18141-.473262.27212-.757221.27212-.851875 0-.102538-.0947-.153808-.28395-.15381-.43383.000002-.74145.260296-.92287.780884-.22874.709898-.57975 1.77474-1.05301 3.194533-.52059 1.51444-.90315 2.271662-1.14767 2.271666-.071-.000004-.10648-.06311-.10648-.189306 0-.449604.42594-1.652482 1.27781-3.608637-.0473.03944-.20902.05916-.48509.05916l.10648-.473264h.33129c.1262 0 .28001-.169585.46143-.508759.008-.02366.0789-.18536.21297-.485095.13409-.30762.34706-.776939.6389-1.407961.0631-.110424.10649-.165639.13015-.165641.0158.000002.0237.03155.0237.09465 0 .06311-.004.13015-.0118.201138.18142-.157753.39833-.23663.65074-.236633.26818.000003.40227.126207.40227.378612 0 .212971-.0947.571862-.28396 1.076675-.15775.449601-.30762.800605-.4496 1.053012h.30763l-.0947.473264m-1.47898-.61525c-.39438.899202-.72961 1.691917-1.00568 2.378152-.17353.44171-.27213.690173-.29579.745389-.10254.283956-.17353.540307-.21297.769054.21297-.102543.71778-1.400074 1.51444-3.892595m3.82365.615243h-1.01752c-.0473 0-.071-.04338-.071-.130147-.00001-.141979.0473-.252407.14198-.331285.008-.0079.071-.05127.1893-.130148.5127-.30762.76905-.646792.76906-1.017517-.00001-.102539-.0552-.331283-.16564-.686233-.21298.465379-.47328.914979-.78089 1.348802-.43383.631019-.79272.946528-1.07668.946528h-.36678l.0947-.473264h.37861c.23663 0 .55609-.295789.95837-.88737.30761-.441711.54819-.855816.72172-1.242317-.0237-.126201-.0355-.244517-.0355-.354948-.00001-.09465.0118-.189303.0355-.283959.0237-.126201.0789-.276067.16565-.4496.11042-.205078.20902-.307618.29579-.307622.0631.000004.0946.05916.0947.177474-.00001.236635-.0986.603415-.29579 1.100338.1262.418052.18929.725674.1893.922865-.00001.496929-.20115.938641-.60341 1.325139h.47326l-.0947.473264m.0947-3.490321c-.0947.118319-.14198.232691-.14198.343116v.09465c.0631-.149864.11043-.295786.14198-.437769m2.67708 3.490321h-.41411c-.16564 0-.24846-.12226-.24846-.36678 0-.173529.0434-.410162.13015-.709895-.43383.717784-.76906 1.076675-1.00569 1.076675-.15775 0-.23663-.0986-.23663-.29579 0-.236632.0986-.579747.29579-1.029349.15776-.331283.31551-.662568.47326-.993854-.24451.425939-.49298.851877-.74539 1.277813-.37861.654682-.65074.997798-.81638 1.029349-.0316.0079-.11831.01183-.26029.01183l.0947-.473264c.17353-.0079.2879-.02761.34311-.05916.0552-.03944.13804-.141978.24847-.307622.22086-.386498.44566-.77694.6744-1.171328.37072-.631015.61524-.946525.73356-.946527.0631.000002.0947.04339.0947.130147 0 .205084-.15381.591582-.46144 1.159497-.29972.567917-.4496.93864-.4496 1.112169 0 .05522.0355.08282.10649.08282.20508 0 .50087-.331284.88737-.993854.26818-.473262.48904-.914974.66257-1.325139.0473-.118313.0907-.177472.13014-.177474.0394.000002.0592.04339.0592.130148 0 .110431-.12226.453546-.36678 1.029349-.24451.567917-.36677.95836-.36677 1.171328 0 .118316.067.177474.20113.177474.0394 0 .0946-.0039.16564-.01183h.16565l-.0947.473264m3.35444 0h-.15381c-.0631.0079-.11043.01183-.14198.01183-.18142 0-.27213-.0986-.27213-.29579 0-.236632.11043-.615242.33129-1.135834.22874-.528476.34311-.840042.34311-.934696 0-.08676-.0592-.130145-.17747-.130147-.21297.000002-.45355.216915-.72173.650737-.15775.252409-.35889.650739-.60341 1.194992-.1893.433825-.29974.650738-.33128.650738-.0394 0-.0592-.03944-.0592-.118317 0-.07099.0158-.145923.0473-.2248l.54425-1.396129c.11832-.307619.17747-.512699.17747-.615242 0-.09465-.0434-.141977-.13014-.141979-.42594.000002-.83216.500873-1.21866 1.502612v-.02366c-.3155.670457-.61129 1.005685-.88737 1.005685h-.29579l.0947-.473264h.29579c.23663 0 .51665-.366779.84005-1.100339.18142-.489036.36283-.974132.54425-1.455286l.13015.189306-.0947.248463c.21296-.244516.44171-.366777.68623-.366779.16564.000002.24846.122263.24846.366779 0 .126206-.0237.276073-.071.449601.33917-.544251.64285-.816378.91103-.81638.18931.000002.28396.114375.28396.343116 0 .252409-.11437.642852-.34311 1.171329-.22086.528478-.33129.8361-.33129.922864.0316.03944.18142.05522.4496.04733l-.0947.473264m3.53673-.496927c.0158.01578.18536.02366.50876.02366l-.0947.473264h-.37861c-.16565 0-.24847-.106485-.24847-.319453 0-.07099.0434-.299733.13015-.686232-.071.110428-.25636.272127-.55609.485095-.26818.173531-.41805.34706-.4496.52059h-.97019l.10649-.473264h.39044c.0473-.331284.19325-.772996.43777-1.325139.26818-.631016.50876-.997795.72173-1.100338.11042-.05521.24846-.08282.4141-.08282.18931.000003.30368.0986.34312.29579.67834-2.374202 1.40007-4.243592 2.16518-5.608176.16564-.299726.29578-.449593.39044-.449601.0631.000008.0946.06311.0947.189305 0 .09466-.0158.220865-.0473.378611-.16565.75723-.48904 1.691925-.97019 2.804089-.41016.899206-.82427 1.806293-1.24231 2.721267-.41017.90709-.65864 1.624874-.74539 2.153351m2.79225-7.761528c-.26819.291855-.68229 1.15556-1.24232 2.59112-.41016 1.049073-.76511 2.09814-1.06484 3.147205 1.08061-2.20856 1.84967-4.121334 2.30716-5.738325m-2.62661 6.057778c0-.205079-.0828-.307619-.24847-.307621-.16564.000002-.2879.01972-.36678.05916-.17353.07888-.39044.457491-.65073 1.135834-.16565.41805-.24847.66257-.24847.733559 0 .07099.071.106484.21297.106484.32339 0 .68229-.335228 1.07668-1.005685.0394-.0631.0907-.149867.15381-.260295.0473-.165641.071-.319452.071-.461433m2.05962 1.727413h.28395l-.0947.473264h-2.0232l.0947-.473264h.4496c.0237-.236631.12227-.579747.29579-1.029349.18931-.481149.33523-.796659.43777-.946528.22875-.354945.50088-.532419.81638-.532422h.0828c.2603.000003.39044.126207.39044.378612 0 .220859-.0907.57975-.27212 1.076675-.16565.441714-.31946.792718-.46144 1.053012m.52059-1.881224c0-.102538-.10253-.153808-.30762-.15381-.15775.000002-.28001.01972-.36678.05916-.20508.102544-.43777.481154-.69806 1.135834-.14986.378612-.2248.611299-.2248.698064 0 .09465.0513.141979.15381.141979h.18931.20113c.22086 0 .41016-.17353.56792-.520591.3234-.717781.48509-1.171325.48509-1.360633m1.23013 1.467118c-.00001.220857.0631.351005.1893.390443.0316.01578.19325.02366.4851.02366l-.10649.473264h-.39044c-.2603 0-.39045-.212969-.39044-.638906-.00001-.126204.0118-.264238.0355-.414106-.42595.702008-.79666 1.053012-1.11217 1.053012h-.29579l.0947-.473264h.30762c.26818 0 .59157-.323396.97019-.97019.0394-.07099.0946-.17353.16564-.307622.0394-.126202.0907-.319452.15381-.579748.34706-1.262034.82032-2.638442 1.4198-4.129228.32339-.788767.60735-1.404009.85187-1.845729.15775-.291837.28-.437761.36678-.437769.071.000008.10648.07494.10648.2248 0 .465384-.28002 1.396135-.84004 2.792257-.39439 1.001747-.79666 1.928554-1.20682 2.780425-.15776.331288-.30763.627078-.4496.88737-.0631.11043-.14593.276072-.24847.496927-.071.18142-.10649.40622-.10648.674401m2.62661-7.382916c-.21297.228752-.59553 1.045131-1.14766 2.44914-.44172 1.151613-.81639 2.255894-1.124 3.312848.85976-1.687971 1.5381-3.30101 2.03503-4.839124.0631-.205073.14197-.512694.23663-.922864m-.24089 7.797022h.28396l-.0947.473264h-2.0232l.0947-.473264h.4496c.0237-.236631.12226-.579747.29579-1.029349.1893-.481149.33523-.796659.43777-.946528.22874-.354945.50087-.532419.81638-.532422h.0828c.26029.000003.39044.126207.39044.378612 0 .220859-.0907.57975-.27213 1.076675-.16564.441714-.31945.792718-.46143 1.053012m.52059-1.881224c0-.102538-.10254-.153808-.30762-.15381-.15775.000002-.28001.01972-.36678.05916-.20507.102544-.43777.481154-.69806 1.135834-.14987.378612-.2248.611299-.2248.698064 0 .09465.0513.141979.15381.141979h.1893.20114c.22086 0 .41017-.17353.56792-.520591.3234-.717781.48509-1.171325.48509-1.360633m1.56141 1.798402c-.00001.05522.0316.08282.0947.08282h.4851l-.10649.473264h-.48509c-.1341 0-.20114-.106485-.20114-.319453 0-.489039.32339-1.289642.97019-2.401815-.38651.268185-.69807.441716-.9347.520591-.59158 1.467119-1.03724 2.200677-1.33697 2.200677h-.4141l.10648-.473264h.40227c.20508 0 .54426-.563972 1.01752-1.691919-.14198-.0079-.21297-.106482-.21297-.295789 0-.173528.0789-.414103.23664-.721727.15774-.315506.31156-.473261.46143-.473264.071.000003.10647.06311.10648.189305-.00001.157758-.0592.410166-.17747.757222.37072-.157751.82426-.465373 1.36063-.922864.0236-.02366.0434-.03549.0592-.0355.0315.000003.0473.03944.0473.118316-.00001.102543-.0986.299736-.29579.59158-.1972.28396-.42988.678347-.69806 1.18316-.3234.615244-.48511 1.021461-.4851 1.218653m-.0355-2.626613c-.13409.04733-.25635.21297-.36678.496926.0315.03155.071.04733.11832.04733.0237.000002.0473.000002.071 0 .0473-.126201.10647-.307619.17747-.544253m4.39045 3.182699h-1.01752c-.0473 0-.071-.04338-.071-.130147 0-.141979.0473-.252407.14198-.331285.008-.0079.071-.05127.1893-.130148.5127-.30762.76906-.646792.76906-1.017517 0-.102539-.0552-.331283-.16565-.686233-.21296.465379-.47326.914979-.78088 1.348802-.43382.631019-.79272.946528-1.07668.946528h-.36678l.0947-.473264h.37862c.23663 0 .55608-.295789.95836-.88737.30762-.441711.54819-.855816.72172-1.242317-.0237-.126201-.0355-.244517-.0355-.354948 0-.09465.0118-.189303.0355-.283959.0237-.126201.0789-.276067.16564-.4496.11043-.205078.20903-.307618.29579-.307622.0631.000004.0947.05916.0947.177474 0 .236635-.0986.603415-.29579 1.100338.12621.418052.18931.725674.18931.922865 0 .496929-.20114.938641-.60341 1.325139h.47326l-.0947.473264m.0947-3.490321c-.0947.118319-.14198.232691-.14198.343116v.09465c.0631-.149864.11043-.295786.14198-.437769m2.47595-.520591c-.10255.000004-.15381-.09465-.15381-.283958 0-.228739.0789-.524529.23663-.88737.18141-.418044.35889-.627068.53242-.627074.10254.000006.15381.09466.15381.283958 0 .22875-.0789.528483-.23663.899201-.17353.410167-.35101.615247-.53242.615243m-.34312 4.010912h-.43777c-.28395 0-.42593-.193249-.42593-.579748 0-.126203.0158-.27607.0473-.449601-.35495.686233-.7099 1.029349-1.06485 1.029349h-.39044l.0947-.473264h.39044c.3865 0 .80455-.55214 1.25415-1.656424.20508-.520587.32734-.780882.36678-.780885.0315.000003.0473.03944.0473.118316 0 .08677-.0552.283961-.16564.59158-.24453.670459-.36678 1.13189-.36678 1.384297 0 .181418.0868.291847.26029.331285.0316.0079.1972.01183.49693.01183l-.10648.473264m.8992-5.265061c0-.04732-.0118-.07098-.0355-.07099-.0868.000006-.18537.10649-.29579.319454-.11043.212974-.16564.370728-.16564.473264 0 .03944.0158.05916.0473.05916.0789.000005.17352-.10648.28396-.319452.11042-.212965.16564-.366776.16564-.461433m3.71993-3.324678-2.20068 5.63184h.37861l-.10648.473264h-.46143l-.27213.686232c-.18142.465377-.27213.784831-.27213.958359 0 .205082.10254.327342.30762.36678h.55609l-.10649.473264h-.17747-.18931c-.41016 0-.61524-.197193-.61524-.59158 0-.0631.004-.130146.0118-.201137-.34706.528478-.6744.792717-.98202.792717h-.50876l.10648-.473264h.49693c.30762 0 .6113-.272126.91103-.816381.13409-.23663.30762-.63496.52059-1.19499h-.36677l.0947-.473264h.46143l2.27166-5.821146.14198.189306m1.98808 8.589739h-.27213c-.21297 0-.31945-.134092-.31945-.402275 0-.118315.0197-.260294.0592-.425937-.33129.512703-.62708.769054-.88737.769054-.2603 0-.37862-.201138-.35495-.603412-.14987.252408-.26818.414106-.35495.485096-.13408.118316-.31945.177474-.55609.177474l.10649-.473264h.20114c.17353 0 .37467-.216912.60341-.650738.33918-.623129.58369-1.029348.73356-1.218654.37072-.433823.79666-.650736 1.27781-.650738.10254.000002.15381.04339.15381.130147 0 .118319-.13015.47721-.39044 1.076676-.2524.591581-.37861.982023-.37861 1.171328 0 .08677.0631.134091.1893.141979h.29579l-.10648.473264m.0828-2.52013h-.0473c-.28396-.0079-.56397.102543-.84005.331285-.23663.197195-.42593.441714-.56791.733559l.0118.01183c-.1262.252407-.18931.457488-.18931.615242 0 .197194.0789.29579.23663.29579.40228 0 .86766-.662568 1.39613-1.987708m3.35556 2.52013h-.15381c-.0631.0079-.11043.01183-.14198.01183-.18142 0-.27213-.0986-.27212-.29579-.00001-.236632.11042-.615242.33128-1.135834.22874-.528476.34311-.840042.34312-.934696-.00001-.08676-.0592-.130145-.17748-.130147-.21297.000002-.45354.216915-.72172.650737-.15776.252409-.3589.650739-.60342 1.194992-.18931.433825-.29973.650738-.33128.650738-.0394 0-.0592-.03944-.0592-.118317-.00001-.07099.0158-.145923.0473-.2248l.54425-1.396129c.11831-.307619.17747-.512699.17748-.615242-.00001-.09465-.0434-.141977-.13015-.141979-.42595.000002-.83216.500873-1.21866 1.502612v-.02366c-.31551.670457-.6113 1.005685-.88737 1.005685h-.29579l.0947-.473264h.29579c.23664 0 .51665-.366779.84005-1.100339.18141-.489036.36283-.974132.54425-1.455286l.13015.189306-.0947.248463c.21296-.244516.44171-.366777.68623-.366779.16563.000002.24846.122263.24846.366779 0 .126206-.0237.276073-.071.449601.33917-.544251.64285-.816378.91104-.81638.18929.000002.28395.114375.28395.343116 0 .252409-.11437.642852-.34311 1.171329-.22086.528478-.33129.8361-.33129.922864.0315.03944.18142.05522.4496.04733l-.0946.473264m2.42622 0h-1.36064c-.1262 0-.18536-.130147-.17747-.390443-.29184.260296-.50481.390443-.63891.390443h-.26029l.0947-.473264c.20508 0 .36283-.02761.47326-.08282.071-.03155.18931-.126202.35495-.283958l.0355-.02366c.0789-.362836.20902-.741446.39044-1.135834.22086-.489037.44566-.788771.6744-.899201.11832-.05521.27213-.08282.46144-.08282.29184.000003.43776.106488.43777.319454-.00001.244522-.17354.540311-.52059.88737-.27608.244521-.54821.48904-.81638.733559-.10254.102541-.25635.248464-.46144.437769 0 .08676.0197.130147.0592.130147h1.3488l-.0947.473264m.20114-2.460972c-.0789-.03155-.19325-.04732-.34312-.04733-.14198.000002-.26029.02761-.35494.08282-.27608.157758-.52454.603413-.7454 1.336971.0868-.08676.22086-.212967.40228-.378611.24452-.20508.59158-.536364 1.04118-.993854m4.37861-6.128767-2.20067 5.63184h.37861l-.10649.473264h-.46143l-.27213.686232c-.18142.465377-.27212.784831-.27212.958359 0 .205082.10253.327342.30762.36678h.55608l-.10648.473264h-.17748-.1893c-.41016 0-.61524-.197193-.61524-.59158 0-.0631.004-.130146.0118-.201137-.34707.528478-.6744.792717-.98203.792717h-.50875l.10648-.473264h.49693c.30762 0 .61129-.272126.91103-.816381.13409-.23663.30762-.63496.52059-1.19499h-.36678l.0947-.473264h.46143l2.27167-5.821146.14198.189306m-2.033 9.26414-.13015-.189306c.0789-.197193.21297-.485095.40228-.863706.10254-.141979.20507-.283958.30762-.425938.1262-.189305.1893-.343115.1893-.461432 0-.03944-.0158-.05916-.0473-.05916-.12621.000001-.28396.244521-.47326.733559l-.13015-.189305c.2603-.678344.49693-1.017516.7099-1.017518.10254.000002.15381.09465.15381.283959 0 .362836-.11043.705952-.33129 1.029349-.30762.4496-.52453.836099-.65073 1.159496m-58.3784 8.696224-.21297.272126c-.008-.149864-.0315-.240573-.071-.272126-.0315-.03155-.13015-.04732-.29579-.04733-.34706.000004-.66257.339175-.94653 1.017518l.0118.01183c-.19719.425938-.29579.721728-.29579.88737 0 .07888.0434.122261.13015.130148-.10254-.0079-.0276-.01183.2248-.01183h1.02935l-.0947.473264h-1.124c-.29973 0-.42988-.161698-.39044-.485095-.20508.323397-.40228.485095-.59158.485095h-.24847l.0947-.473264h.2603c.1893 0 .41016-.25635.66257-.769053.16564-.362835.33128-.725669.49693-1.088508.2524-.425935.54819-.642846.88737-.650737h.11831c.22086.000002.33917.173533.35495.52059m1.2804 1.987708h.28396l-.0946.473264h-2.02321l.0947-.473264h.44961c.0237-.236631.12225-.579748.29579-1.029348.1893-.481151.33522-.796659.43776-.946528.22875-.354945.50087-.53242.81638-.532422h.0828c.2603.000002.39045.126207.39045.378611 0 .220858-.0907.57975-.27213 1.076675-.16564.441714-.31945.792718-.46143 1.053012m.52059-1.881224c0-.102538-.10254-.153807-.30762-.153811-.15776.000004-.28002.01972-.36678.05916-.20508.102542-.43777.481154-.69807 1.135833-.14986.378612-.2248.6113-.2248.698064 0 .09465.0513.141979.15381.141979h.18931.20114c.22085 0 .41016-.173529.56791-.52059.3234-.717782.4851-1.171327.4851-1.360634m2.4606 2.354488h-.46143c-.14198 0-.21297-.09465-.21297-.283958 0-.220856.0947-.552141.28396-.993854.1893-.449599.28396-.769053.28396-.958359 0-.16564-.067-.248462-.20114-.248464-.45749.000002-.87948.500872-1.26598 1.502613l-.0118-.02366c-.30762.670458-.60341 1.005686-.88737 1.005686h-.36678l.10648-.473264h.35495c.23663 0 .51665-.366778.84005-1.100338.18141-.489037.36677-.974132.55608-1.455287l.13015.189306-.11832.307622c.25241-.283956.50481-.425935.75722-.425938.21297.000003.31945.169589.31946.508759-.00001.260296-.0947.615244-.28396 1.064844-.18142.449601-.27213.729615-.27213.840043 0 .04733.0276.07099.0828.07099h.46144l-.0947.473264m2.32343 0h-1.01752c-.0473 0-.071-.04338-.071-.130147 0-.14198.0473-.252407.14198-.331285.008-.0079.071-.05127.1893-.130148.5127-.307621.76905-.646793.76906-1.017517-.00001-.102539-.0552-.331283-.16565-.686233-.21297.465378-.47326.914978-.78088 1.348803-.43383.631019-.79272.946527-1.07668.946527h-.36678l.0947-.473264h.37862c.23663 0 .55608-.295788.95836-.887369.30762-.441712.54819-.855817.72172-1.242318-.0237-.126202-.0355-.244517-.0355-.354948 0-.09465.0118-.189302.0355-.283958.0237-.1262.0789-.276068.16565-.449601.11042-.205077.20902-.307617.29579-.307621.0631.000004.0947.05916.0947.177474-.00001.236635-.0986.603415-.29579 1.100338.1262.418051.1893.725673.1893.922865 0 .496927-.20114.938641-.60341 1.325138h.47326l-.0947.473264m.0947-3.490321c-.0947.11832-.14198.232691-.14198.343117v.09465c.0631-.149864.11043-.295787.14198-.437769m2.33397 3.490321h-1.36063c-.12621 0-.18537-.130147-.17748-.390442-.29184.260295-.50481.390442-.6389.390442h-.2603l.0947-.473264c.20508 0 .36284-.02761.47327-.08282.071-.03155.1893-.126204.35494-.283958l.0355-.02366c.0789-.362834.20903-.741445.39045-1.135833.22085-.489037.44565-.78877.6744-.899201.11831-.05521.27212-.08282.46143-.08282.29184.000002.43777.106487.43777.319453 0 .244522-.17353.540312-.52059.887369-.27607.244521-.5482.489041-.81638.733559-.10254.102541-.25635.248465-.46143.437769-.00001.08677.0197.130148.0592.130148h1.3488l-.0947.473264m.20113-2.460972c-.0789-.03155-.19325-.04732-.34311-.04733-.14198.000004-.2603.02761-.35495.08282-.27607.157756-.52454.603413-.74539 1.336971.0868-.08676.22085-.212969.40227-.378612.24452-.20508.59158-.536363 1.04118-.993854m2.66304 0-.21297.272126c-.008-.149864-.0315-.240573-.071-.272126-.0316-.03155-.13015-.04732-.29579-.04733-.34706.000004-.66257.339175-.94653 1.017518l.0118.01183c-.19719.425938-.29579.721728-.29579.88737 0 .07888.0434.122261.13015.130148-.10254-.0079-.0276-.01183.2248-.01183h1.02935l-.0947.473264h-1.124c-.29974 0-.42989-.161698-.39045-.485095-.20508.323397-.40227.485095-.59158.485095h-.24846l.0947-.473264h.26029c.18931 0 .41016-.25635.66257-.769053.16564-.362835.33129-.725669.49693-1.088508.25241-.425935.5482-.642846.88737-.650737h.11832c.22085.000002.33917.173533.35494.52059m4.07266-6.128768-2.20068 5.631841h.37822l-.10649.473264h-.46143l-.27213.686233c-.18142.465377-.27213.78483-.27212.958359-.00001.205081.10253.327341.30762.366779h.55608l-.10648.473264h-.17748-.1893c-.41017 0-.61525-.197193-.61524-.59158-.00001-.0631.004-.130147.0118-.201136-.34707.528478-.67441.792716-.98203.792716h-.50876l.10649-.473264h.49693c.30762 0 .61129-.272126.91103-.81638.13409-.23663.30762-.63496.52059-1.194991h-.36678l.0947-.473264h.46143l2.27167-5.821146.14198.189305m.22683 8.58974h-1.36063c-.12621 0-.18537-.130147-.17748-.390442-.29184.260295-.50481.390442-.6389.390442h-.2603l.0946-.473264c.20508 0 .36284-.02761.47326-.08282.071-.03155.18931-.126204.35495-.283958l.0355-.02366c.0789-.362834.20903-.741445.39044-1.135833.22086-.489037.44566-.78877.67441-.899201.11831-.05521.27212-.08282.46143-.08282.29184.000002.43776.106487.43777.319453-.00001.244522-.17354.540312-.52059.887369-.27608.244521-.5482.489041-.81638.733559-.10255.102541-.25636.248465-.46144.437769 0 .08677.0197.130148.0592.130148h1.34881l-.0946.473264m.20113-2.460972c-.0789-.03155-.19325-.04732-.34311-.04733-.14198.000004-.2603.02761-.35495.08282-.27607.157756-.52454.603413-.74539 1.336971.0868-.08676.22085-.212969.40227-.378612.24452-.20508.59158-.536363 1.04118-.993854m4.37862-6.128768-2.20068 5.631841h.37861l-.10648.473264h-.46143l-.27213.686233c-.18142.465377-.27213.78483-.27213.958359 0 .205081.10254.327341.30763.366779h.55608l-.10645.473262h-.17747-.18931c-.41016 0-.61524-.197193-.61524-.59158 0-.0631.004-.130147.0118-.201136-.34706.528478-.6744.792716-.98202.792716h-.50876l.10648-.473264h.49693c.30762 0 .6113-.272126.91103-.81638.13409-.23663.30763-.63496.52059-1.194991h-.36678l.0947-.473264h.46144l2.27166-5.821146.14198.189305m.56996 8.58974h-.41411c-.16565 0-.24847-.12226-.24846-.366779-.00001-.17353.0434-.410162.13014-.709896-.43383.717784-.76906 1.076675-1.00568 1.076675-.15776 0-.23664-.0986-.23663-.29579-.00001-.236631.0986-.579747.29579-1.029349.15774-.331282.3155-.662567.47326-.993854-.24453.425939-.49299.851876-.74539 1.277812-.37861.654682-.65074.997799-.81638 1.029349-.0316.0079-.11832.01183-.2603.01183l.0947-.473264c.17353-.0079.2879-.02761.34312-.05916.0552-.03944.13803-.141978.24846-.307621.22086-.386498.44566-.77694.6744-1.171328.37072-.631017.61524-.946525.73356-.946528.0631.000003.0946.04339.0947.130148 0 .205084-.15382.591582-.46143 1.159496-.29973.567918-.44961.938641-.4496 1.11217-.00001.05521.0355.08282.10649.08282.20507 0 .50086-.331283.88737-.993854.26817-.473262.48903-.914975.66256-1.325139.0473-.118314.0907-.177471.13015-.177473.0394.000002.0592.04339.0592.130147-.00001.11043-.12226.453546-.36678 1.029349-.24452.567918-.36678.95836-.36678 1.171328 0 .118316.067.177474.20114.177474.0394 0 .0946-.0039.16564-.01183h.16564l-.0947.473264m2.36059 0h-1.36064c-.1262 0-.18536-.130147-.17747-.390442-.29185.260295-.50481.390442-.63891.390442h-.26029l.0947-.473264c.20508 0 .36284-.02761.47326-.08282.071-.03155.18931-.126204.35495-.283958l.0355-.02366c.0789-.362834.20903-.741445.39044-1.135833.22086-.489037.44566-.78877.6744-.899201.11832-.05521.27213-.08282.46144-.08282.29184.000002.43776.106487.43776.319453 0 .244522-.17352.540312-.52059.887369-.27606.244521-.54819.489041-.81638.733559-.10253.102541-.25635.248465-.46143.437769 0 .08677.0197.130148.0592.130148h1.3488l-.0947.473264m.20114-2.460972c-.0789-.03155-.19325-.04732-.34312-.04733-.14197.000004-.26029.02761-.35494.08282-.27607.157756-.52453.603413-.74539 1.336971.0868-.08676.22086-.212969.40227-.378612.24453-.20508.59158-.536363 1.04118-.993854m1.68102 1.904887c0 .05521.0316.08282.0947.08282h.48509l-.10648.473264h-.4851c-.13409 0-.20114-.106484-.20114-.319453 0-.489039.3234-1.289643.9702-2.401814-.38651.268185-.69807.441714-.9347.52059-.59158 1.467119-1.03724 2.200677-1.33697 2.200677h-.41411l.10649-.473264h.40227c.20508 0 .54425-.563971 1.01752-1.691918-.14198-.0079-.21297-.106482-.21297-.29579 0-.173527.0789-.414103.23663-.721728.15775-.315505.31156-.473259.46143-.473264.071.000005.10649.06311.10649.189306 0 .157757-.0592.410165-.17748.757223.37072-.157752.82427-.465373 1.36064-.922865.0237-.02366.0434-.03549.0592-.0355.0315.000004.0473.03944.0473.118316-.00001.102544-.0986.299737-.29579.59158-.1972.283961-.42988.678346-.69807 1.183159-.32339.615244-.48509 1.021462-.48509 1.218655m-.0355-2.626615c-.13409.04733-.25636.212972-.36678.496928.0315.03155.071.04733.11832.04733.0237.000003.0473.000003.071 0 .0473-.126201.10648-.307619.17747-.544254m4.69807 3.1827h-.27213c-.21297 0-.31945-.134091-.31945-.402274 0-.118316.0197-.260294.0592-.425937-.33129.512703-.62708.769054-.88737.769054-.2603 0-.37862-.201138-.35495-.603412-.14987.252407-.26818.414106-.35495.485095-.13409.118317-.31945.177474-.55608.177474l.10648-.473264h.20114c.17352 0 .37466-.216911.60341-.650737.33917-.623129.58369-1.029348.73356-1.218655.37072-.433822.79666-.650735 1.27781-.650738.10254.000003.15381.04339.15381.130148 0 .118318-.13015.477209-.39044 1.076676-.25241.591579-.37861.982023-.37861 1.171327 0 .08676.0631.134092.1893.141979h.29579l-.10648.473264m.0828-2.52013h-.0473c-.28396-.0079-.56397.102543-.84005.331284-.23663.197197-.42593.441716-.56791.73356l.0118.01183c-.1262.252409-.18931.45749-.18931.615244 0 .197193.0789.29579.23663.295789.40228.000001.86766-.662569 1.39613-1.987708m1.92393 2.023204c.0158.01577.18536.02366.50876.02366l-.0947.473264h-.37861c-.16564 0-.24847-.106484-.24847-.319453 0-.07099.0434-.299733.13015-.686233-.071.11043-.25635.272128-.55608.485096-.26818.17353-.41805.347061-.4496.52059h-.97044l.10648-.473264h.39044c.0473-.331283.19325-.772995.43777-1.325138.26819-.631017.50876-.997796.72173-1.100339.11043-.05521.24846-.08282.4141-.08282.18931.000002.30368.0986.34312.29579.67835-2.374202 1.40008-4.243592 2.16518-5.608178.16565-.299726.29579-.449592.39045-.4496.0631.000008.0947.06311.0947.189305 0 .09466-.0158.220865-.0473.378611-.16565.757231-.48905 1.691926-.9702 2.804089-.41015.899205-.82426 1.806294-1.24231 2.721267-.41016.907091-.65863 1.624875-.74539 2.153352m2.79225-7.761529c-.26819.291854-.68228 1.15556-1.24231 2.59112-.41016 1.049073-.76511 2.09814-1.06485 3.147205 1.08062-2.208561 1.84967-4.121333 2.30716-5.738325m-2.62661 6.057778c0-.205078-.0828-.307618-.24846-.307622-.16565.000004-.28791.01972-.36678.05916-.17353.07888-.39045.457491-.65074 1.135833-.16564.418051-.24847.66257-.24847.733559 0 .07099.071.106484.21297.106484.3234 0 .68229-.335228 1.07668-1.005686.0394-.0631.0907-.149865.15381-.260295.0473-.165641.071-.319451.071-.461432m2.84051-1.810234c-.10254.000004-.15382-.09465-.15381-.283958-.00001-.22874.0789-.52453.23663-.88737.18142-.418044.35889-.62707.53243-.627075.10253.000005.1538.09466.15381.283958-.00001.22875-.0789.528484-.23664.899202-.17353.410166-.351.615247-.53242.615243m-.34311 4.010911h-.43777c-.28396 0-.42594-.19325-.42594-.579748 0-.126204.0158-.27607.0473-.449601-.35495.686233-.7099 1.029349-1.06484 1.029349h-.39045l.0947-.473264h.39044c.3865 0 .80455-.552139 1.25415-1.656423.20508-.520588.32734-.780884.36678-.780886.0316.000002.0473.03944.0473.118316-.00001.08677-.0552.283962-.16564.59158-.24452.670458-.36678 1.13189-.36678 1.384297 0 .181418.0868.291847.2603.331285.0315.0079.19719.01183.49692.01183l-.10648.473264m.8992-5.265061c-.00001-.04732-.0118-.07098-.0355-.07099-.0868.000005-.18537.106489-.29579.319453-.11043.212974-.16565.370728-.16564.473263-.00001.03944.0158.05916.0473.05916.0789.000004.17353-.10648.28396-.319454.11042-.212963.16563-.366774.16564-.461432m1.50741 5.265061h-.81638c-.0473 0-.071-.03944-.071-.118316 0-.236631.0592-.354948.17748-.354948.17353 0 .33128-.134091.47326-.402274.0394-.07099.12621-.280013.26029-.627074.18142-.473263.27213-.75722.27213-.851876 0-.102538-.0947-.153807-.28396-.153811-.43382.000004-.74144.260298-.92286.780886-.22874.709896-.57975 1.77474-1.05301 3.194531-.52059 1.514442-.90314 2.271662-1.14767 2.271666-.071-.000004-.10648-.06311-.10648-.189304 0-.449604.42594-1.652483 1.27781-3.608637-.0473.03944-.20902.05916-.4851.05916l.10649-.473264h.33128c.12621 0 .28002-.169586.46143-.508758.008-.02366.0789-.185361.21297-.485096.1341-.307619.34707-.77694.63891-1.40796.0631-.110425.10648-.16564.13015-.165642.0158.000002.0237.03155.0237.09465 0 .06311-.004.130151-.0118.201138.18142-.157752.39833-.23663.65073-.236632.26819.000002.40228.126207.40228.378611 0 .212971-.0947.571863-.28396 1.076675-.15776.449602-.30762.800606-.4496 1.053012h.30762l-.0947.473264m-1.47895-.615243c-.39438.899201-.72961 1.691918-1.00568 2.378151-.17353.441711-.27213.690175-.29579.745391-.10254.283956-.17353.540307-.21297.769054.21297-.102543.71779-1.400075 1.51444-3.892596m4.06028-3.395663c-.10254.000004-.15381-.09465-.15381-.283958 0-.22874.0789-.52453.23663-.88737.18142-.418044.35889-.62707.53243-.627075.10253.000005.15381.09466.15381.283958 0 .22875-.0789.528484-.23664.899202-.17353.410166-.351.615247-.53242.615243m-.34311 4.010911h-.43777c-.28396 0-.42594-.19325-.42594-.579748 0-.126204.0158-.27607.0473-.449601-.35495.686233-.7099 1.029349-1.06484 1.029349h-.39045l.0947-.473264h.39045c.38649 0 .80455-.552139 1.25415-1.656423.20508-.520588.32733-.780884.36677-.780886.0316.000002.0473.03944.0473.118316 0 .08677-.0552.283962-.16564.59158-.24451.670458-.36678 1.13189-.36678 1.384297 0 .181418.0868.291847.2603.331285.0316.0079.19719.01183.49692.01183l-.10648.473264m.8992-5.265061c0-.04732-.0118-.07098-.0355-.07099-.0868.000005-.18537.106489-.29579.319453-.11043.212974-.16564.370728-.16564.473263 0 .03944.0158.05916.0473.05916.0789.000004.17353-.10648.28396-.319454.11042-.212963.16564-.366774.16564-.461432m1.47193 5.265061h-1.01752c-.0473 0-.071-.04338-.071-.130147 0-.14198.0473-.252407.14198-.331285.008-.0079.071-.05127.1893-.130148.5127-.307621.76906-.646793.76906-1.017517 0-.102539-.0552-.331283-.16564-.686233-.21297.465378-.47327.914978-.78089 1.348803-.43383.631019-.79272.946527-1.07668.946527h-.36678l.0947-.473264h.37862c.23663 0 .55608-.295788.95835-.887369.30763-.441712.5482-.855817.72173-1.242318-.0237-.126202-.0355-.244517-.0355-.354948 0-.09465.0118-.189302.0355-.283958.0237-.1262.0789-.276068.16564-.449601.11043-.205077.20903-.307617.29579-.307621.0631.000004.0947.05916.0947.177474 0 .236635-.0986.603415-.29579 1.100338.12621.418051.18931.725673.18931.922865 0 .496927-.20114.938641-.60341 1.325138h.47326l-.0947.473264m.0947-3.490321c-.0947.11832-.14198.232691-.14198.343117v.09465c.0631-.149864.11043-.295787.14198-.437769m2.77174 1.029349-.21297.272126c-.008-.149864-.0316-.240573-.071-.272126-.0316-.03155-.13015-.04732-.29579-.04733-.34706.000004-.66257.339175-.94653 1.017518l.0118.01183c-.19719.425938-.29579.721728-.29579.88737 0 .07888.0434.122261.13015.130148-.10254-.0079-.0276-.01183.2248-.01183h1.02935l-.0947.473264h-1.124c-.29974 0-.42988-.161698-.39044-.485095-.20509.323397-.40228.485095-.59158.485095h-.24848l.0947-.473264h.2603c.1893 0 .41016-.25635.66257-.769053.16564-.362835.33128-.725669.49692-1.088508.25241-.425935.5482-.642846.88737-.650737h.11832c.22085.000002.33917.173533.35495.52059m2.06128-1.549939c-.10254.000004-.15381-.09465-.15381-.283958 0-.22874.0789-.52453.23663-.88737.18142-.418044.35889-.62707.53242-.627075.10254.000005.15382.09466.15382.283958 0 .22875-.0789.528484-.23664.899202-.17353.410166-.35101.615247-.53242.615243m-.34311 4.010911h-.43777c-.28396 0-.42594-.19325-.42594-.579748 0-.126204.0158-.27607.0473-.449601-.35495.686233-.7099 1.029349-1.06484 1.029349h-.39045l.0947-.473264h.39045c.38649 0 .80455-.552139 1.25415-1.656423.20507-.520588.32733-.780884.36678-.780886.0315.000002.0473.03944.0473.118316 0 .08677-.0552.283962-.16565.59158-.24452.670458-.36678 1.13189-.36678 1.384297 0 .181418.0868.291847.2603.331285.0316.0079.19719.01183.49693.01183l-.10649.473264m.8992-5.265061c0-.04732-.0118-.07098-.0355-.07099-.0868.000005-.18536.106489-.29579.319453-.11043.212974-.16564.370728-.16564.473263 0 .03944.0158.05916.0473.05916.0789.000004.17353-.10648.28396-.319454.11042-.212963.16564-.366774.16564-.461432m1.92153 5.265061h-.46143c-.14199 0-.21298-.09465-.21297-.283958-.00001-.220856.0946-.552141.28396-.993854.18929-.449599.28395-.769053.28395-.958359 0-.16564-.067-.248462-.20113-.248464-.4575.000002-.87949.500872-1.26598 1.502613l-.0118-.02366c-.30763.670458-.60342 1.005686-.88737 1.005686h-.36678l.10648-.473264h.35495c.23663 0 .51664-.366778.84004-1.100338.18141-.489037.36678-.974132.55609-1.455287l.13014.189306-.11831.307622c.2524-.283956.50481-.425935.75722-.425938.21296.000003.31945.169589.31945.508759 0 .260296-.0947.615244-.28395 1.064844-.18143.449601-.27214.729615-.27213.840043-.00001.04733.0276.07099.0828.07099h.46143l-.0947.473264m2.67838 0c-.38651 0-.67441.05127-.86371.153811-1.12006 2.397867-1.80235 3.596801-2.04686 3.596805-.0947-.000004-.14198-.08282-.14198-.248463 0-.09466.0158-.216916.0473-.366779.11042-.489042.31156-1.013576.60341-1.573603.29184-.56003.61129-1.017519.95836-1.372465-.0473.01577-.0947.02366-.14198.02366-.18931 0-.28396-.126204-.28396-.378611 0-.0631.008-.130148.0237-.201137-.13409.173529-.27607.283958-.42594.331284-.0868.02366-.26819.03549-.54425.03549l.0947-.473264h.29579c.31551 0 .57186-.216911.76905-.650737.16565-.402273.32734-.804547.4851-1.206824.22085-.433822.52848-.650735.92286-.650737h.56792c.0158-.03155.0316-.04732.0473-.04733.0237.000003.0355.01578.0355.04733h.0592l-.10649.473263h-.0355c-.18142.473266-.48904 1.175274-.92286 2.106025.13409-.04733.36677-.07099.69806-.07099l-.0947.473264m.10649-2.508299h-.50876c-.14987.000004-.26819.02761-.35495.08282-.14987.09465-.35495.465378-.61524 1.11217-.18142.457489-.27213.745391-.27213.863706 0 .126205.0552.189306.16564.189306.41016 0 .93864-.749334 1.58544-2.248004m-1.30148 2.886911c-.35495.291844-.69018.70595-1.00568 1.242317-.30762.544251-.51271 1.05301-.61525 1.526277-.0158.03943-.0237.07887-.0237.118315l.0237.01183c.16565-.03944.70595-1.005689 1.62093-2.898741" fill="#333"/><g transform="translate(2 2)"><path d="m118.375 11.03125c-.52336-.06895-1.05794-.0102-1.5625.125-1.00643.269671-1.88554.918974-2.4375 1.875l-2.0625 3.5625a1.0491519 1.0491519 0 0 0 -.84375.53125l-9.5 16.46875-36 62.34375a1.0491519 1.0491519 0 0 0 -.09375.25l-6.375 24.03125a1.0491519 1.0491519 0 0 0 1.75 1.03125l17.625-17.53125a1.0491519 1.0491519 0 0 0 .15625-.21875l36-62.34375 9.5-16.46875a1.0491519 1.0491519 0 0 0 .0625-.90625l2.09375-3.625c1.11127-1.924777.4576-4.419069-1.46875-5.53125l-5.3125-3.0625c-.47927-.276705-1.00789-.462302-1.53125-.53125z" fill="url(#b)" filter="url(#c)" opacity=".3" transform="matrix(.7141758 .1253856 -.1253856 .7141758 2.656947 -15.447757)"/><path d="m118.375 11.03125c-.52336-.06895-1.05794-.0102-1.5625.125-1.00643.269671-1.88554.918974-2.4375 1.875l-2.0625 3.5625a1.0491519 1.0491519 0 0 0 -.84375.53125l-9.5 16.46875-36 62.34375a1.0491519 1.0491519 0 0 0 -.09375.25l-6.375 24.03125a1.0491519 1.0491519 0 0 0 1.75 1.03125l17.625-17.53125a1.0491519 1.0491519 0 0 0 .15625-.21875l36-62.34375 9.5-16.46875a1.0491519 1.0491519 0 0 0 .0625-.90625l2.09375-3.625c1.11127-1.924777.4576-4.419069-1.46875-5.53125l-5.3125-3.0625c-.47927-.276705-1.00789-.462302-1.53125-.53125z" fill="url(#e)" filter="url(#c)" opacity=".5" transform="matrix(.6274055 .3634982 -.3634982 .6274055 36.873047 -19.138811)"/><g transform="matrix(-.6279542 -.3625495 .3625495 -.6279542 120.29091 131.31477)"><rect fill="url(#F)" height="16" rx="3" stroke="#df453f" stroke-linejoin="round" stroke-width="1.379122" width="12.116117" x="136.91356" y="107.49392"/><path d="m141.24458 118.1889a1.5467962 3.9774759 0 1 1 -3.09359 0 1.5467962 3.9774759 0 1 1 3.09359 0z" fill="#701300" filter="url(#E)" opacity=".3" transform="matrix(1.8857143 0 0 1 -123.51329 -1.944544)"/><path d="m146.31251 113.125c-.85193 9.50672-3.9375 8.3125-6.5 8.9375 4.07634.0625 8.625-.0625 8.625-.0625-2.4375-.5625-1.8125-2.375-2.125-8.875z" fill="#fefefe" fill-rule="evenodd" filter="url(#D)" opacity=".8"/><path d="m136.41188 115.96875h12.119369v1h-12.119369z" fill="url(#C)" opacity=".2"/><g transform="translate(23.73343)"><path d="m112.76657 24.500002 6.5-23.99999956 6.5 23.99999956v65.398289 6.601708h-13z" fill="url(#A)" stroke="url(#z)" stroke-linejoin="round" stroke-width="1.379122"/><path d="m117.69336 8.0716529 3.14265.022097-1.58237-5.7913293" fill="url(#y)" fill-rule="evenodd"/><path d="m117.73213 8.0901517-3.76756 13.9098483s-.46779 1.653465-.698 2.60832c-.19122.64228 1.95886 1.611283 3.0182-1.60832 1.21534 4.513809 5.57589 3.437953 5.98831.01105.3425 1.701476 1.75396 2.949961 2.98863 1.521937-.23478-.908743-.43641-1.521937-.43641-1.521937l-4.02168-14.9208973h-3.07149z" fill="url(#x)" fill-rule="evenodd"/><path d="m122.37252 96.304856v-67.217294" fill="none" opacity=".5" stroke="url(#w)" stroke-width="1.379122"/><path d="m116.24752 96.304856v-67.217294" fill="none" opacity=".5" stroke="url(#v)" stroke-width="1.379122"/><path d="m118.7044 5.9798798-4.77297 17.8986412 1.98873-.839689z" fill="#ac4311" fill-rule="evenodd" filter="url(#u)" opacity=".4"/><path d="m113.07908 24.624995s1.48667 1.76491 3.25-1.53125c2 5.25 5.16858 2.087146 5.93749-.03125 1.375 3.4375 3.12501 1.4375 3.12501 1.4375" fill="none" opacity=".15" stroke="#4d2600" stroke-width="1.379122"/><path d="m144.06251 8.9374939-.375 12.5000011 3.0625-.3125z" fill="#fefefe" fill-rule="evenodd" filter="url(#t)" opacity=".8" transform="matrix(1.122449 0 0 1.345 -41.70282 -4.770935)"/></g><path d="m136.5 96.5h13v19h-13z" fill="url(#s)" stroke="url(#r)" stroke-linejoin="round" stroke-width="1.379122"/><path d="m137 100h12v1h-12z" fill="url(#q)" opacity=".4"/><path d="m137 101h12v1h-12z" fill="url(#p)" opacity=".6"/><path d="m137 102h12v1h-12z" fill="url(#n)" opacity=".4"/><path d="m137 103h12v1h-12z" fill="url(#m)" opacity=".6"/><path d="m137 108h12v1h-12z" fill="url(#l)" opacity=".4"/><path d="m137 109h12v1h-12z" fill="url(#k)" opacity=".6"/><path d="m137 110h12v1h-12z" fill="url(#j)" opacity=".4"/><path d="m137 111h12v1h-12z" fill="url(#i)" opacity=".6"/><path d="m137 104h12v4h-12z" fill="url(#h)" opacity=".3"/><path d="m140.00001 106.07969a1.10128 8.3968973 0 1 1 -2.20256 0 1.10128 8.3968973 0 1 1 2.20256 0z" filter="url(#g)" opacity=".6" transform="matrix(1.2553848 0 0 1 -35.75387 0)"/><path d="m147.34339 106.03549a1.193245 8.0875489 0 1 1 -2.38649 0 1.193245 8.0875489 0 1 1 2.38649 0z" fill="#fefefe" filter="url(#f)" opacity=".8"/></g></g></svg>