<svg height="96" width="96" xmlns="http://www.w3.org/2000/svg" xmlns:xlink="http://www.w3.org/1999/xlink"><linearGradient id="a"><stop offset="0" stop-color="#fefefe"/><stop offset="1" stop-color="#fefefe" stop-opacity="0"/></linearGradient><linearGradient id="b" gradientUnits="userSpaceOnUse" x1="36.357143" x2="36.357143" xlink:href="#a" y1="6" y2="63.893143"/><radialGradient id="c" cx="48" cy="90.171875" gradientTransform="matrix(1.157313 0 0 .99590779 -7.551021 .197132)" gradientUnits="userSpaceOnUse" r="42" xlink:href="#a"/><linearGradient id="d" gradientUnits="userSpaceOnUse" x1="48" x2="48" y1="90" y2="5.987717"><stop offset="0" stop-color="#3661ff"/><stop offset="1" stop-color="#8ab6ff"/></linearGradient><linearGradient id="e" gradientTransform="matrix(1.0058652 0 0 .994169 100 0)" gradientUnits="userSpaceOnUse" x1="45.447727" x2="45.447727" y1="92.539597" y2="7.01654"><stop offset="0"/><stop offset="1" stop-opacity=".588235"/></linearGradient><linearGradient id="f" gradientTransform="matrix(1.0238096 0 0 -1.0119049 -1.142857 98.071433)" gradientUnits="userSpaceOnUse" x1="32.251034" x2="32.251034" xlink:href="#e" y1="6.131708" y2="90.238609"/><linearGradient id="g" gradientTransform="matrix(1.0238096 0 0 1.0119049 -1.142857 -98.071433)" gradientUnits="userSpaceOnUse" x1="32.251034" x2="32.251034" xlink:href="#e" y1="6.131708" y2="90.238609"/><linearGradient id="h" gradientTransform="translate(0 -97.000005)" gradientUnits="userSpaceOnUse" x1="32.251034" x2="32.251034" xlink:href="#e" y1="6.131708" y2="90.238609"/><linearGradient id="i" gradientUnits="userSpaceOnUse" x1="22.846741" x2="23.437525" y1="14.373889" y2="34.962708"><stop offset="0" stop-color="#3b89ff"/><stop offset="1" stop-color="#fefefe" stop-opacity="0"/></linearGradient><g fill="url(#f)"><path d="m12.000001 95.031255c-5.5110909 0-10.0312509-4.52016-10.0312509-10.031251v-71.000003c0-5.5110908 4.52016-10.0312508 10.0312509-10.0312508h72.000003c5.51109 0 10.031251 4.52016 10.031251 10.0312508v71.000003c0 5.511091-4.520161 10.031251-10.031251 10.031251z" opacity=".08"/><path d="m12.000001 94.031255c-4.9716336 0-9.0312509-4.059619-9.0312509-9.031251v-71.000003c0-4.9716335 4.0596173-9.0312508 9.0312509-9.0312508h72.000003c4.971632 0 9.031251 4.0596173 9.031251 9.0312508v71.000003c0 4.971632-4.059619 9.031251-9.031251 9.031251z" opacity=".1"/><path d="m12.000001 93.000005c-4.4091338 0-8.0000008-3.590869-8.0000008-8.000001v-71.000003c0-4.4091339 3.590867-8.0000007 8.0000008-8.0000007h72.000003c4.409132 0 8.000001 3.5908668 8.000001 8.0000007v71.000003c0 4.409132-3.590869 8.000001-8.000001 8.000001z" opacity=".2"/></g><rect fill="url(#g)" height="85.000008" opacity=".3" rx="7.000001" transform="scale(1 -1)" width="86.000008" x="5.000001" y="-92.000008"/><rect fill="url(#h)" height="84.000008" opacity=".45" rx="6.000001" transform="scale(1 -1)" width="84.000008" x="6.000001" y="-91.000008"/><rect fill="url(#d)" height="84.000008" rx="6.000001" width="84.000008" x="6.000001" y="6.000001"/><path d="m12.000001 6.0000003c-3.3240006 0-6.0000007 2.6760001-6.0000007 6.0000007v2 68.000003 2c0 .33472.04135.6507.09375.96875.0487.295596.09704.596914.1875.875.00988.03038.020892.0636.03125.09374.098864.287772.2348802.547452.375.8125.144592.273506.3156163.535616.5000001.78125.184384.245634.3737766.473472.59375.6875.439947.428056.94291.814526 1.5000001 1.09375.278545.13962.573473.246948.8750005.34375-.2562023-.10022-.4867115-.236272-.7187505-.375-.00742-.0044-.023866.0044-.03125 0-.031934-.0194-.062294-.0425-.09375-.0625-.120396-.0767-.2310226-.16352-.3437501-.25-.106172-.0808-.213281-.16112-.3125-.25-.17793-.16144-.3474596-.345388-.5-.53125-.107578-.13026-.2183938-.265286-.3125-.40625-.02509-.03838-.038446-.08586-.0625-.125-.064764-.10304-.130228-.204516-.1875-.3125-.1010082-.194696-.2056748-.415692-.28125-.62499-.00796-.02181-.023589-.04055-.03125-.0625-.031825-.09195-.035804-.186832-.0625-.28125-.030332-.106618-.070389-.20303-.09375-.3125-.072879-.341512-.1250001-.698206-.1250001-1.0625v-2-68.000003-2c0-2.781848 2.2181518-5.0000006 5.0000007-5.0000006h2 68.000003 2c2.781848 0 5 2.2181526 5 5.0000006v2 68.000003 2c0 .364294-.05212.720988-.125 1.0625-.04416.206892-.08838.397658-.15626.59375-.0076.02196-.0233.04068-.03126.0625-.06274.17374-.13838.367448-.21875.53125-.04158.0828-.07904.16996-.125.25-.0546.09722-.12678.18834-.1875.28125-.09412.14096-.204922.275994-.3125.40625-.14318.17444-.30314.346998-.46875.5-.0112.0102-.02.02116-.03126.03126-.13838.12556-.28509.234436-.4375.34375-.10258.07314-.204318.15336-.3125.21875-.0074.0044-.02384-.0044-.03126 0-.23204.13872-.462548.274778-.71875.375.301526-.0968.596456-.204138.875-.34375.55709-.279224 1.060052-.665694 1.5-1.09375.219972-.214028.409366-.441866.59375-.6875.18438-.245634.355408-.507744.5-.78125.14012-.265048.276134-.524728.375-.8125.0104-.03078.02134-.06274.03126-.09374.09046-.278086.1388-.579404.1875-.875.05243-.31807.09378-.63405.09378-.96877v-2-68.000003-2c0-3.3240006-2.676-6.0000007-6-6.0000007h-72.000003z" fill="url(#b)" opacity=".4"/><path d="m12.000001 90.000004c-3.3240006 0-6.0000007-2.676-6.0000007-6v-2-68.000003-2c0-.334721.04135-.6507.09375-.96875.0487-.295596.09704-.596915.1875-.875.00988-.03038.020892-.0636.03125-.09375.098865-.2877715.2348802-.5474525.375-.8125005.1445918-.2735071.3156163-.5356151.5000001-.7812501.184384-.245635.3737766-.473472.59375-.6875.439947-.428056.94291-.8145261 1.5000001-1.0937501.278545-.139612.573473-.246947.8750005-.34375-.2562023.100222-.4867115.236272-.7187505.375-.00742.0044-.023866-.0045-.03125 0-.031934.0193-.062294.04251-.09375.0625-.120396.0767-.2310226.163514-.3437501.2500001-.106172.0808-.213281.161112-.3125.25-.17793.161432-.3474596.345388-.5.53125-.107578.130256-.2183938.265285-.3125.40625-.02509.03838-.038446.08587-.0625.125-.064764.103032-.130228.204517-.1875.3125-.1010082.194706-.2056748.4157011-.28125.6250001-.00796.02181-.023589.04055-.03125.0625-.031825.09195-.035804.186831-.0625.28125-.030332.106618-.070389.203031-.09375.3125-.072879.3415125-.1250001.6982055-.1250001 1.0625005v2 68.000003 2c0 2.781848 2.2181518 5 5.0000007 5h2 68.000003 2c2.781848 0 5-2.218152 5-5v-2-68.000003-2c0-.364295-.05212-.720988-.125-1.0625005-.04415-.206893-.08838-.397658-.15625-.59375-.0077-.02195-.0233-.04069-.03125-.0625-.06274-.173739-.138384-.3674491-.21875-.5312501-.04158-.0828-.07904-.169954-.125-.25-.0546-.09721-.126774-.18835-.1875-.28125-.09411-.140965-.204922-.275995-.3125-.40625-.14318-.17445-.30314-.346998-.46875-.5-.0112-.0102-.02-.02115-.03126-.03125-.13838-.125556-.28509-.234436-.4375-.3437501-.10258-.07315-.204318-.153364-.3125-.21875-.0074-.0045-.02384.0044-.03126 0-.23204-.138728-.462548-.274778-.71875-.375.301526.0968.596456.204138.875.34375.55709.279224 1.060052.6656941 1.5 1.0937501.219972.214028.409366.441865.59375.6875.18438.245635.355408.507743.5.7812501.14012.265048.276134.524729.375.8125005.0104.03078.02134.06274.03126.09375.09046.278085.1388.579404.1875.875.05241.31805.09376.634029.09376.96875v2 68.000003 2c0 3.324-2.676 6-6 6z" fill="url(#c)" opacity=".2"/><g fill-rule="evenodd" opacity=".2" transform="scale(2.0000001)"><path d="m11 27 12 4v3l-12-4z"/><path d="m11 21 12 4v3l-12-4z"/><path d="m11 15 12 4v3l-12-4z"/><path d="m25 25.5 12 4v3l-12-4z"/><path d="m25 19.5 12 4v3l-12-4z"/><path d="m25 13.5 12 4v3l-12-4z"/></g><g fill="#fefefe" fill-rule="evenodd" transform="matrix(2.0000001 0 0 2.0000001 0 2)"><path d="m11 27 12 4v3l-12-4z"/><path d="m11 21 12 4v3l-12-4z"/><path d="m11 15 12 4v3l-12-4z"/><path d="m25 25.5 12 4v3l-12-4z"/><path d="m25 19.5 12 4v3l-12-4z"/><path d="m25 13.5 12 4v3l-12-4z"/></g><path d="m25 14.5v3l12 4v-3zm1 1.388672 10 3.332031v.890625l-10-3.332031zm-15 .111328v3l12 4v-3zm1 1.388672 10 3.332031v.890625l-10-3.332031zm13 3.111328v3l12 4v-3zm1 1.388672 10 3.332031v.890625l-10-3.332031zm-15 .111328v3l12 4v-3zm1 1.388672 10 3.332031v.890625l-10-3.332031zm13 3.111328v3l12 4v-3zm1 1.388672 10 3.332031v.890625l-10-3.332031zm-15 .111328v3l12 4v-3zm1 1.388672 10 3.332031v.890625l-10-3.332031z" fill="url(#i)" opacity=".2" transform="matrix(2.0000001 0 0 2.0000001 0 -.0000001)"/></svg>