<svg height="96" width="96" xmlns="http://www.w3.org/2000/svg" xmlns:xlink="http://www.w3.org/1999/xlink"><linearGradient id="a"><stop offset="0" stop-color="#fefefe"/><stop offset="1" stop-color="#fefefe" stop-opacity="0"/></linearGradient><linearGradient id="b" gradientUnits="userSpaceOnUse" spreadMethod="pad" x1="60" x2="60" y1="90" y2="5.987717"><stop offset="0" stop-color="#6c8f11"/><stop offset="1" stop-color="#c9ed64"/></linearGradient><linearGradient id="c" gradientUnits="userSpaceOnUse" x1="36.357143" x2="36.357143" xlink:href="#a" y1="6" y2="63.893143"/><linearGradient id="d" gradientUnits="userSpaceOnUse" x1="18.637215" x2="18.637215" y1="89.20327" y2="6"><stop offset="0" stop-color="#102340"/><stop offset="1" stop-color="#27599c"/></linearGradient><radialGradient id="e" cx="48" cy="90.171875" gradientTransform="matrix(1.1573129 0 0 .99590774 -7.551021 .197132)" gradientUnits="userSpaceOnUse" r="42" xlink:href="#a"/><filter id="f" color-interpolation-filters="sRGB" height="1.56" width="1.42" x="-.21" y="-.28"><feGaussianBlur stdDeviation="2.8"/></filter><radialGradient id="g" cx="48.241459" cy="38.667461" gradientTransform="matrix(.8476225 -.3415184 .2499426 .620338 -2.313735 16.411146)" gradientUnits="userSpaceOnUse" r="25.550245" xlink:href="#h"/><linearGradient id="h"><stop offset="0" stop-color="#b8d9f4"/><stop offset="1" stop-color="#ebf4fc"/></linearGradient><radialGradient id="i" cx="48.193913" cy="58.66795" gradientTransform="matrix(.9473764 -.3327843 .2051643 .5840656 -9.500437 28.453781)" gradientUnits="userSpaceOnUse" r="33.906048" xlink:href="#h"/><linearGradient id="j" gradientTransform="matrix(1.0058652 0 0 .994169 100 0)" gradientUnits="userSpaceOnUse" x1="45.447727" x2="45.447727" y1="92.539597" y2="7.01654"><stop offset="0"/><stop offset="1" stop-opacity=".588235"/></linearGradient><linearGradient id="k" gradientTransform="matrix(1.0238095 0 0 1.0119048 -1.142857 -98.071429)" gradientUnits="userSpaceOnUse" x1="32.251034" x2="32.251034" xlink:href="#j" y1="6.131708" y2="90.238609"/><linearGradient id="l" gradientTransform="translate(0 -97)" gradientUnits="userSpaceOnUse" x1="32.251034" x2="32.251034" xlink:href="#j" y1="6.131708" y2="90.238609"/><g><g fill="url(#k)"><path d="m12-95.03125c-5.5110903 0-10.03125 4.52016-10.03125 10.03125v71c0 5.5110902 4.5201598 10.03125 10.03125 10.03125h72c5.51109 0 10.03125-4.5201597 10.03125-10.03125v-71c0-5.51109-4.52016-10.03125-10.03125-10.03125z" opacity=".08" transform="scale(1 -1)"/><path d="m12-94.03125c-4.971633 0-9.03125 4.059617-9.03125 9.03125v71c0 4.9716329 4.0596171 9.03125 9.03125 9.03125h72c4.971633 0 9.03125-4.059617 9.03125-9.03125v-71c0-4.971633-4.059617-9.03125-9.03125-9.03125z" opacity=".1" transform="scale(1 -1)"/><path d="m12-93c-4.4091333 0-8 3.590867-8 8v71c0 4.4091333 3.5908667 8 8 8h72c4.409133 0 8-3.5908667 8-8v-71c0-4.409133-3.590867-8-8-8z" opacity=".2" transform="scale(1 -1)"/><rect height="85" opacity=".3" rx="7" transform="scale(1 -1)" width="86" x="5" y="-92"/></g><rect fill="url(#l)" height="84" opacity=".45" rx="6" transform="scale(1 -1)" width="84" x="6" y="-91"/></g><rect fill="url(#b)" height="84" rx="6" width="72" x="18" y="6"/><path d="m12 6c-3.324 0-6 2.676-6 6v.53125 70.9375.53125c0 3.324 2.676 6 6 6h.53125 1.75 13.4375c7.39089-14.512671 8.1682-26.256563 4-41.8125-4.56637-17.041912-5.33814-27.037539 2.84375-42.15625l.5-.03125h-19.53125-3z" fill="url(#d)"/><path d="m32.53125 8c.328208-.6516671.668243-1.2979768 1.03125-1.96875l.5-.03125zm-.65625 1.34375c-7.430268 14.387763-6.587556 24.305905-2.15625 40.84375 3.907688 14.583691 3.472539 25.819738-2.6875 39.125 7.069338-14.199366 7.789946-25.81446 3.6875-41.125-4.224193-15.764891-5.198018-25.504988 1.15625-38.84375z" opacity=".3"/><path d="m34.0625 6-.5.03125c-8.18189 15.118711-7.41012 25.114338-2.84375 42.15625 4.1682 15.555937 3.39089 27.299829-4 41.8125h1c7.39089-14.512671 8.1682-26.256563 4-41.8125-4.56637-17.041912-5.33814-27.037539 2.84375-42.15625l.5-.03125z" fill="#0c1b2f"/><path d="m12 6c-3.324 0-6 2.676-6 6v2 68 2c0 .334721.04135.6507.09375.96875.0487.295596.09704.596915.1875.875.00988.03038.020892.0636.03125.09375.098865.287771.2348802.547452.375.8125.1445918.273507.3156161.535615.5.78125s.3737765.473472.59375.6875c.439947.428056.94291.814526 1.5 1.09375.278545.139612.5734731.246947.875.34375-.2562018-.100222-.4867109-.236272-.71875-.375-.00741-.0044-.023866.0045-.03125 0-.031933-.0193-.062293-.04251-.09375-.0625-.120395-.0767-.2310226-.163513-.34375-.25-.1061728-.0808-.2132809-.161112-.3125-.25-.1779299-.161433-.3474596-.345388-.5-.53125-.1075789-.130255-.2183939-.265285-.3125-.40625-.025089-.03838-.038446-.08587-.0625-.125-.064763-.103032-.1302275-.204517-.1875-.3125-.1010083-.194706-.2056748-.415701-.28125-.625-.00796-.02181-.023589-.04055-.03125-.0625-.0318251-.09195-.0358045-.186831-.0625-.28125-.0303323-.106618-.0703894-.203031-.09375-.3125-.0728786-.341512-.125-.698205-.125-1.0625v-2-68-2c0-2.781848 2.2181517-5 5-5h2 68 2c2.781848 0 5 2.218152 5 5v2 68 2c0 .364295-.05212.720988-.125 1.0625-.04415.206893-.08838.397658-.15625.59375-.0077.02195-.0233.04069-.03125.0625-.06274.173739-.138383.367449-.21875.53125-.04158.0828-.07904.169954-.125.25-.0546.09721-.126774.18835-.1875.28125-.09411.140965-.204921.275995-.3125.40625-.143174.17445-.303141.346998-.46875.5-.01117.0102-.01998.02115-.03125.03125-.138386.125556-.285091.234436-.4375.34375-.102571.07315-.204318.153364-.3125.21875-.0074.0045-.02384-.0044-.03125 0-.232039.138728-.462548.274778-.71875.375.301527-.0968.596455-.204138.875-.34375.55709-.279224 1.060053-.665694 1.5-1.09375.219973-.214028.409366-.441865.59375-.6875s.355408-.507743.5-.78125c.14012-.265048.276135-.524729.375-.8125.01041-.03078.02133-.06274.03125-.09375.09046-.278085.1388-.579404.1875-.875.0524-.31805.09375-.634029.09375-.96875v-2-68-2c0-3.324-2.676-6-6-6z" fill="url(#c)" opacity=".35"/><path d="m48 58v4 6 4 10h4 28v-4-16-4h-4-10-4-10zm4 4h10v6h-10zm14 0h10v6h-10zm-14 10h10v6h-10zm14 0h10v6h-10z" fill="#5e7c10" filter="url(#f)"/><path d="m48 58v4 6 4 10h4 28v-4-16-4h-4-10-4-10zm4 4h10v6h-10zm14 0h10v6h-10zm-14 10h10v6h-10zm14 0h10v6h-10z" fill="#a3c843"/><g transform="translate(-60)"><path d="m28.375 27.25c-.113811 6.253422 1.161703 12.793994 3.34375 20.9375 1.563075 5.833476 2.415814 11.141626 2.5 16.25.139961-5.73155-.731088-11.648329-2.5-18.25-1.951347-7.282522-3.180862-13.278797-3.34375-18.9375z" opacity=".2"/><g fill="#fefefe"><path d="m27.375 29.25c-.113811 6.253422 1.161703 12.793994 3.34375 20.9375 1.563075 5.833476 2.415814 11.141626 2.5 16.25.139961-5.73155-.731088-11.648329-2.5-18.25-1.951347-7.282522-3.180862-13.278797-3.34375-18.9375z" opacity=".3"/><path d="m35.630711 6-1.068211.03125c-4.685522 8.658031-6.405787 15.635459-6.1875 23.21875.124362-6.833112 1.91534-13.32454 6.1875-21.21875zm-1.411961 60.96875c-.2691 7.582505-2.342624 14.867873-6.5 23.03125h.96875c3.833849-8.068726 5.575385-15.347879 5.53125-23.03125z" opacity=".2"/></g></g><path d="m36.625 6-2.0625.03125c-8.18189 15.118711-7.41012 25.114338-2.84375 42.15625 4.1682 15.555937 3.39089 27.299829-4 41.8125h1.96875c6.46538-13.607047 7.00589-24.978955 3.03125-39.8125-4.56637-17.041912-5.33814-27.037539 2.84375-42.15625z" fill="#fefefe" opacity=".2"/><path d="m12 90c-3.324 0-6-2.676-6-6v-2-68-2c0-.334721.04135-.6507.09375-.96875.0487-.295596.09704-.596915.1875-.875.00988-.03038.020892-.0636.03125-.09375.098865-.287771.2348802-.547452.375-.8125.1445918-.273507.3156161-.535615.5-.78125s.3737765-.473472.59375-.6875c.439947-.428056.94291-.814526 1.5-1.09375.278545-.139612.5734731-.246947.875-.34375-.2562018.100222-.4867109.236272-.71875.375-.00741.0044-.023866-.0045-.03125 0-.031933.0193-.062293.04251-.09375.0625-.120395.0767-.2310226.163513-.34375.25-.1061728.0808-.2132809.161112-.3125.25-.1779299.161433-.3474596.345388-.5.53125-.1075789.130255-.2183939.265285-.3125.40625-.025089.03838-.038446.08587-.0625.125-.064763.103032-.1302275.204517-.1875.3125-.1010083.194706-.2056748.415701-.28125.625-.00796.02181-.023589.04055-.03125.0625-.0318251.09195-.0358045.186831-.0625.28125-.0303323.106618-.0703894.203031-.09375.3125-.0728786.341512-.125.698205-.125 1.0625v2 68 2c0 2.781848 2.2181517 5 5 5h2 68 2c2.781848 0 5-2.218152 5-5v-2-68-2c0-.364295-.05212-.720988-.125-1.0625-.04415-.206893-.08838-.397658-.15625-.59375-.0077-.02195-.0233-.04069-.03125-.0625-.06274-.173739-.138383-.367449-.21875-.53125-.04158-.0828-.07904-.169954-.125-.25-.0546-.09721-.126774-.18835-.1875-.28125-.09411-.140965-.204921-.275995-.3125-.40625-.143174-.17445-.303141-.346998-.46875-.5-.01117-.0102-.01998-.02115-.03125-.03125-.138386-.125556-.285091-.234436-.4375-.34375-.102571-.07315-.204318-.153364-.3125-.21875-.0074-.0045-.02384.0044-.03125 0-.232039-.138728-.462548-.274778-.71875-.375.301527.0968.596455.204138.875.34375.55709.279224 1.060053.665694 1.5 1.09375.219973.214028.409366.441865.59375.6875s.355408.507743.5.78125c.14012.265048.276135.524729.375.8125.01041.03078.02133.06274.03125.09375.09046.278085.1388.579404.1875.875.0524.31805.09375.634029.09375.96875v2 68 2c0 3.324-2.676 6-6 6z" fill="url(#e)" opacity=".2"/><g fill-rule="evenodd"><path d="m60.96875 10.125c-5.791519.039713-11.491053 2.351746-15.6875 6.375-8.31052-2.741203-18.294194-2.47749-25.34375 3.5a1.0216974 1.0216974 0 0 0 -.0625.03125c-.889734.85338-2.237955 1.970869-3.21875 3.34375s-1.582315 3.254174-.625 5.0625a1.0216974 1.0216974 0 0 0 .25.3125c.76419.628575 1.667333.897124 2.5.875.832667-.02212 1.58723-.27533 2.28125-.59375 1.388039-.63684 2.665043-1.475736 3.5625-1.6875a1.0216974 1.0216974 0 0 0 .15625-.0625c6.715258-2.875597 14.778581-3.084771 21.09375.65625l.03125-.03125c.94975.68611 2.140473.735537 3.03125.3125.86623-.411379 1.506656-1.155655 1.90625-2l.03125.03125c3.770546-5.233473 10.393693-7.611864 16.8125-7.78125 1.956527.370232 3.722452-.716627 4.40625-2.21875.360326-.791542.436353-1.7569.0625-2.625-.362604-.841979-1.150125-1.510886-2.21875-1.875-.03064-.01385-.06305-.01761-.09375-.03125-2.841739-1.261939-5.926815-1.598731-8.875-1.59375zm9.25 14.78125c-9.573688-.040279-19.298208 4.039067-25.28125 11.75-10.56913-2.650005-22.408182-.530178-30.8125 6.65625a1.0216974 1.0216974 0 0 0 -.03125 0c-2.710812 2.389267-5.5818756 5.18231-6.96875 8.875a1.0216974 1.0216974 0 0 0 -.0625.28125c-.075487 1.164515.2522028 2.172728.9375 2.8125s1.5716377.793199 2.40625.75c1.604753-.08306 3.168497-.832081 4.28125-1.75.04471-.03688.113137-.05637.15625-.09375 8.299187-4.653996 18.224685-7.640614 27.4375-4.9375a1.0216974 1.0216974 0 0 0 .15625.03125c.792566.0904 1.700362.546673 2.71875 1.03125s2.222925 1.007666 3.625.8125a1.0216974 1.0216974 0 0 0 .3125-.09375c1.202178-.6001 1.80778-1.671872 2.28125-2.59375s.857619-1.744306 1.375-2.25a1.0216974 1.0216974 0 0 0 .125-.125c5.16595-7.276132 13.867553-11.213913 22.59375-12.875v-.0625c1.841408.147664 3.579592-.696039 4.5625-2.0625.523622-.727952.858351-1.669154.625-2.625s-.996607-1.761536-2.125-2.28125a1.0216974 1.0216974 0 0 0 -.09375-.03125c-2.689408-1.010632-5.521791-1.19708-8.21875-1.21875z" opacity=".05"/><path d="m60.96875 11.15625c-5.721092.03923-11.410438 2.353956-15.4375 6.4375-8.158387-2.855226-18.078363-2.608454-24.928206 3.199695-1.863973 1.787812-5.173892 4.326102-3.665544 7.175305 2.370051 1.949455 5.033352-1.044583 7.447069-1.614123 6.970329-2.984823 15.353704-3.23235 22.008973.710142 1.345342 1.104322 3.075852-.03529 3.644107-1.417814 4.014085-5.571503 10.965803-8.033894 17.618601-8.209455 3.192891.862781 5.510476-3.59722 1.875-4.75-2.66913-1.206816-5.660951-1.536152-8.5625-1.53125zm9.25 14.78125c-9.49497-.03995-19.191068 4.059779-24.90625 11.8125-10.418081-2.819636-22.239116-.725861-30.523838 6.358302-2.682742 2.364526-5.4274204 5.004929-6.7082098 8.415157-.2520905 3.888924 4.2666508 2.460679 6.1006568.87069 8.469558-4.782514 18.717145-7.949246 28.373312-5.116049 2.119087.241693 3.932002 2.144586 6.070579 1.8469 1.780098-.888584 2.001594-3.272496 3.419121-4.658003 5.378051-7.574872 14.34364-11.586565 23.237129-13.279497 2.975243.47385 6.585371-3.372532 2.815327-5.108933-2.504864-.941284-5.224974-1.119751-7.877827-1.141067z" opacity=".1"/><path d="m60.96875 12.09375c-4.708676.05114-10.512391 1.586787-15.1875 6.5-9.493493-3.323402-16.729783-1.836649-21.4375.78125-2.408176 1.339154-4.17055 2.950194-5.3125 4.28125-.570975.665528-.974482 1.245933-1.25 1.75-.137759.252033-.240642.469046-.3125.71875-.03593.124852-.0608.253007-.0625.4375s-.0053.483918.25.78125c.250452.291688.605945.391524.8125.40625.206555.01473.340807-.03326.46875-.0625.255886-.05849.461752-.141712.71875-.25.513996-.216576 1.17435-.538528 1.96875-.90625 1.5888-.735443 3.745646-1.667731 6.34375-2.375 5.196209-1.414537 12.025191-1.884198 19.21875 2.28125a1.0135596 1.0135596 0 0 0 1.34375-.3125c3.951629-5.832466 9.250593-8.016286 13.59375-8.9375 2.171578-.460607 4.094371-.586569 5.46875-.6875.68719-.05046 1.219508-.09295 1.6875-.1875.233996-.04728.46066-.07127.78125-.3125.160295-.120616.358705-.320314.4375-.625.07879-.304686-.0017-.62077-.09375-.8125-.183138-.381665-.389393-.513741-.59375-.65625s-.425731-.252525-.6875-.375c-.523537-.244949-1.196458-.501949-2-.71875-1.607084-.433603-3.728082-.745121-6.15625-.71875zm9.25 14.78125c-7.13177.011663-17.624827 2.333819-24.5625 11.90625-12.053204-3.214734-21.40725-.095288-27.5625 4.03125-3.137118 2.103153-5.457193 4.446853-6.96875 6.34375-.755779.948448-1.2991666 1.769516-1.65625 2.4375-.1785417.333992-.3191002.614097-.40625.90625-.043575.146076-.089068.297247-.09375.5-.00468.202753.017575.548827.34375.875.3003644.300364.6603593.349555.875.34375.214641-.0058.355503-.04846.5-.09375.288993-.09059.578822-.242865.90625-.40625.654856-.32677 1.487402-.780319 2.53125-1.34375 2.087696-1.126862 4.958709-2.596758 8.375-3.8125 6.832581-2.431483 15.779431-3.841822 25.0625.625a1.0135596 1.0135596 0 0 0 1.34375-.4375c4.722596-8.878477 12.114573-13.080944 18.3125-15.3125 3.098963-1.115778 5.887014-1.725982 7.875-2.15625.993993-.215134 1.772309-.399168 2.375-.59375.301345-.09729.569228-.163755.875-.40625.152886-.121248.34084-.304622.4375-.625s.0071-.708653-.125-.9375c-.382189-.66197-.748885-.693869-1.21875-.875s-1.048307-.356287-1.75-.5c-1.403387-.287425-3.284268-.472323-5.46875-.46875z" opacity=".15"/><path d="m60.96875 13.09375c-4.652392.05053-10.376947 1.537521-14.90625 6.59375-19.154119-7.088229-28.215328 6.312485-27.625 7 .672915.783707 14.321535-9.769365 29.25-1.125 8.248379-12.174318 22.442721-9.249118 21.8125-10.5625-.283697-.591234-3.878858-1.956777-8.53125-1.90625zm9.25 14.78125c-7.061296.01155-17.464108 2.297228-24.15625 12.03125-24.217568-6.897809-36.822744 12.45851-36.03125 13.25.902225.902225 18.793832-14.101576 37.96875-4.875 9.734026-18.299961 30.681956-17.502439 29.78125-19.0625-.304098-.526712-3.325722-1.350679-7.5625-1.34375z" opacity=".3"/><path d="m10.037308 52.159801c-.791494-.79149 11.798321-20.136077 36.015889-13.238268 10.707427-15.574435 30.921982-12.111991 31.732911-10.707427.900706 1.560061-20.052082.778719-29.786108 19.07868-19.174918-9.226576-37.060467 5.76924-37.962692 4.867015z" fill="url(#i)"/><path d="m18.432554 25.696015c-.590328-.687515 8.476426-14.106336 27.630545-7.018107 9.058606-10.1124576 22.855173-5.84957 23.422567-4.667101.630221 1.313382-13.543112-1.615804-21.791491 10.558514-14.928465-8.644365-28.588706 1.910401-29.261621 1.126694z" fill="url(#g)"/><path d="m60.96875 12.09375c-4.652392.05053-10.376947 1.537521-14.90625 6.59375-19.154119-7.088229-28.215328 6.312486-27.625 7 .04696.0547.174251.04538.34375 0 1.873215-3.130367 10.87228-12.072351 27.28125-6 7.836774-8.748481 19.20455-6.748387 22.5-5.28125.665885-.073375 1.046213-.179692.9375-.40625-.283697-.591235-3.878858-1.956777-8.53125-1.90625z" fill="#fefefe"/><path d="m70.21875 26.875c-7.061296.01155-17.464107 2.297229-24.15625 12.03125-24.217568-6.897809-36.8227437 12.45851-36.03125 13.25.189082.189082 1.276032-.411865 2.8125-1.25 4.257341-5.426257 15.906619-15.215783 34.21875-10 8.229009-11.969463 22.038769-12.693014 28.375-11.75 1.616413-.354649 2.5453-.588406 2.34375-.9375-.304098-.526712-3.325722-1.350679-7.5625-1.34375z" fill="#fefefe"/><path d="m77 27.78125c-3.821437 1.140091-20.586914 2.683405-29 18.5-18.123985-8.720888-35.088431 4.19453-37.65625 4.875-.284707.548175-.4070987.905402-.3125 1 .902225.902225 18.793832-14.101576 37.96875-4.875 9.734026-18.299961 30.681954-17.502439 29.78125-19.0625-.0769-.133191-.380039-.285286-.78125-.4375z" fill="#fefefe" opacity=".5"/><path d="m68.5625 13.40625c-3.194317.351988-14.049466.082-20.875 10.15625-13.886583-8.04106-26.647102.520169-28.90625 1.125-.313381.523697-.428355.901466-.34375 1 .672915.783707 14.321534-9.769365 29.25-1.125 8.248379-12.174318 22.442723-9.249118 21.8125-10.5625-.07653-.159492-.423706-.365009-.9375-.59375z" fill="#fefefe" opacity=".3"/></g></svg>