<svg height="96" width="96" xmlns="http://www.w3.org/2000/svg" xmlns:xlink="http://www.w3.org/1999/xlink"><linearGradient id="a"><stop offset="0" stop-color="#34870c"/><stop offset="1" stop-color="#a0ce72"/></linearGradient><linearGradient id="b"><stop offset="0" stop-color="#fefefe"/><stop offset="1" stop-color="#fefefe" stop-opacity="0"/></linearGradient><linearGradient id="c" gradientUnits="userSpaceOnUse" x1="36.357143" x2="36.357143" xlink:href="#b" y1="6" y2="63.893143"/><radialGradient id="d" cx="48" cy="90.171875" gradientTransform="matrix(1.1573129 0 0 .99590774 -7.551021 .197132)" gradientUnits="userSpaceOnUse" r="42" xlink:href="#b"/><linearGradient id="e" gradientUnits="userSpaceOnUse" x1="48" x2="48" y1="90" y2="5.987717"><stop offset="0" stop-color="#c8c8c8"/><stop offset="1" stop-color="#f0f0f0"/></linearGradient><linearGradient id="f" gradientTransform="matrix(1.0058652 0 0 .994169 100 0)" gradientUnits="userSpaceOnUse" x1="45.447727" x2="45.447727" y1="92.539597" y2="7.01654"><stop offset="0"/><stop offset="1" stop-opacity=".588235"/></linearGradient><linearGradient id="g" gradientTransform="matrix(1.0238095 0 0 1.0119048 -1.142857 -98.071429)" gradientUnits="userSpaceOnUse" x1="32.251034" x2="32.251034" xlink:href="#f" y1="6.131708" y2="90.238609"/><linearGradient id="h" gradientTransform="translate(0 -97)" gradientUnits="userSpaceOnUse" x1="32.251034" x2="32.251034" xlink:href="#f" y1="6.131708" y2="90.238609"/><linearGradient id="i" gradientUnits="userSpaceOnUse" x1="40" x2="88" xlink:href="#a" y1="64" y2="40"/><linearGradient id="j" gradientTransform="matrix(0 -1 1 0 -8 104)" gradientUnits="userSpaceOnUse" x1="40" x2="88" xlink:href="#a" y1="64" y2="40"/><radialGradient id="k" cx="48" cy="48" gradientUnits="userSpaceOnUse" r="32"><stop offset="0" stop-color="#fefefe"/><stop offset=".69999999" stop-color="#fefefe" stop-opacity=".498039"/><stop offset="1" stop-color="#fefefe" stop-opacity="0"/></radialGradient><g fill="url(#g)"><path d="m12-95.03125c-5.5110903 0-10.03125 4.52016-10.03125 10.03125v71c0 5.5110902 4.5201598 10.03125 10.03125 10.03125h72c5.51109 0 10.03125-4.5201597 10.03125-10.03125v-71c0-5.51109-4.52016-10.03125-10.03125-10.03125z" opacity=".08" transform="scale(1 -1)"/><path d="m12-94.03125c-4.971633 0-9.03125 4.059617-9.03125 9.03125v71c0 4.9716329 4.0596171 9.03125 9.03125 9.03125h72c4.971633 0 9.03125-4.059617 9.03125-9.03125v-71c0-4.971633-4.059617-9.03125-9.03125-9.03125z" opacity=".1" transform="scale(1 -1)"/><path d="m12-93c-4.4091333 0-8 3.590867-8 8v71c0 4.4091333 3.5908667 8 8 8h72c4.409133 0 8-3.5908667 8-8v-71c0-4.409133-3.590867-8-8-8z" opacity=".2" transform="scale(1 -1)"/><rect height="85" opacity=".3" rx="7" transform="scale(1 -1)" width="86" x="5" y="-92"/></g><rect fill="url(#h)" height="84" opacity=".45" rx="6" transform="scale(1 -1)" width="84" x="6" y="-91"/><rect fill="url(#e)" height="84" rx="6" width="84" x="6" y="6"/><path d="m12 6c-3.324 0-6 2.676-6 6v2 68 2c0 .334721.04135.6507.09375.96875.0487.295596.09704.596915.1875.875.00988.03038.020892.0636.03125.09375.098865.287771.2348802.547452.375.8125.1445918.273507.3156161.535615.5.78125s.3737765.473472.59375.6875c.439947.428056.94291.814526 1.5 1.09375.278545.139612.5734731.246947.875.34375-.2562018-.100222-.4867109-.236272-.71875-.375-.00741-.0044-.023866.0045-.03125 0-.031933-.0193-.062293-.04251-.09375-.0625-.120395-.0767-.2310226-.163513-.34375-.25-.1061728-.0808-.2132809-.161112-.3125-.25-.1779299-.161433-.3474596-.345388-.5-.53125-.1075789-.130255-.2183939-.265285-.3125-.40625-.025089-.03838-.038446-.08587-.0625-.125-.064763-.103032-.1302275-.204517-.1875-.3125-.1010083-.194706-.2056748-.415701-.28125-.625-.00796-.02181-.023589-.04055-.03125-.0625-.0318251-.09195-.0358045-.186831-.0625-.28125-.0303323-.106618-.0703894-.203031-.09375-.3125-.0728786-.341512-.125-.698205-.125-1.0625v-2-68-2c0-2.781848 2.2181517-5 5-5h2 68 2c2.781848 0 5 2.218152 5 5v2 68 2c0 .364295-.05212.720988-.125 1.0625-.04415.206893-.08838.397658-.15625.59375-.0077.02195-.0233.04069-.03125.0625-.06274.173739-.138383.367449-.21875.53125-.04158.0828-.07904.169954-.125.25-.0546.09721-.126774.18835-.1875.28125-.09411.140965-.204921.275995-.3125.40625-.143174.17445-.303141.346998-.46875.5-.01117.0102-.01998.02115-.03125.03125-.138386.125556-.285091.234436-.4375.34375-.102571.07315-.204318.153364-.3125.21875-.0074.0045-.02384-.0044-.03125 0-.232039.138728-.462548.274778-.71875.375.301527-.0968.596455-.204138.875-.34375.55709-.279224 1.060053-.665694 1.5-1.09375.219973-.214028.409366-.441865.59375-.6875s.355408-.507743.5-.78125c.14012-.265048.276135-.524729.375-.8125.01041-.03078.02133-.06274.03125-.09375.09046-.278085.1388-.579404.1875-.875.0524-.31805.09375-.634029.09375-.96875v-2-68-2c0-3.324-2.676-6-6-6z" fill="url(#c)" opacity=".5"/><path d="m12 90c-3.324 0-6-2.676-6-6v-2-68-2c0-.334721.04135-.6507.09375-.96875.0487-.295596.09704-.596915.1875-.875.00988-.03038.020892-.0636.03125-.09375.098865-.287771.2348802-.547452.375-.8125.1445918-.273507.3156161-.535615.5-.78125s.3737765-.473472.59375-.6875c.439947-.428056.94291-.814526 1.5-1.09375.278545-.139612.5734731-.246947.875-.34375-.2562018.100222-.4867109.236272-.71875.375-.00741.0044-.023866-.0045-.03125 0-.031933.0193-.062293.04251-.09375.0625-.120395.0767-.2310226.163513-.34375.25-.1061728.0808-.2132809.161112-.3125.25-.1779299.161433-.3474596.345388-.5.53125-.1075789.130255-.2183939.265285-.3125.40625-.025089.03838-.038446.08587-.0625.125-.064763.103032-.1302275.204517-.1875.3125-.1010083.194706-.2056748.415701-.28125.625-.00796.02181-.023589.04055-.03125.0625-.0318251.09195-.0358045.186831-.0625.28125-.0303323.106618-.0703894.203031-.09375.3125-.0728786.341512-.125.698205-.125 1.0625v2 68 2c0 2.781848 2.2181517 5 5 5h2 68 2c2.781848 0 5-2.218152 5-5v-2-68-2c0-.364295-.05212-.720988-.125-1.0625-.04415-.206893-.08838-.397658-.15625-.59375-.0077-.02195-.0233-.04069-.03125-.0625-.06274-.173739-.138383-.367449-.21875-.53125-.04158-.0828-.07904-.169954-.125-.25-.0546-.09721-.126774-.18835-.1875-.28125-.09411-.140965-.204921-.275995-.3125-.40625-.143174-.17445-.303141-.346998-.46875-.5-.01117-.0102-.01998-.02115-.03125-.03125-.138386-.125556-.285091-.234436-.4375-.34375-.102571-.07315-.204318-.153364-.3125-.21875-.0074-.0045-.02384.0044-.03125 0-.232039-.138728-.462548-.274778-.71875-.375.301527.0968.596455.204138.875.34375.55709.279224 1.060053.665694 1.5 1.09375.219973.214028.409366.441865.59375.6875s.355408.507743.5.78125c.14012.265048.276135.524729.375.8125.01041.03078.02133.06274.03125.09375.09046.278085.1388.579404.1875.875.0524.31805.09375.634029.09375.96875v2 68 2c0 3.324-2.676 6-6 6z" fill="url(#d)" opacity=".2"/><path d="m80 48a32 32 0 1 1 -64 0 32 32 0 1 1 64 0z" fill="url(#k)"/><path d="m48 16c-3.489588 0-6.855862.561149-10 1.59375v30.40625c0 5.522847 4.477153 10 10 10s10-4.477153 10-10-4.477153-10-10-10v-10c11.045695 0 20 8.954305 20 20s-8.954305 20-20 20-20-8.954305-20-20v-24.96875c-7.310282 5.864668-12 14.867565-12 24.96875 0 17.673112 14.326888 32 32 32s32-14.326888 32-32-14.326888-32-32-32z" fill="url(#j)"/><path d="m88 56a32 32 0 1 1 -64 0 32 32 0 1 1 64 0z" fill="url(#i)" transform="matrix(0 -1 1 0 -108 104)"/><path d="m-72 8v40c0 11.045695 8.954305 20 20 20s20-8.954305 20-20-8.954305-20-20-20v10c5.522847 0 10 4.477153 10 10s-4.477153 10-10 10-10-4.477153-10-10v-40z" fill="#fefefe"/><path d="m48 28v1c10.87849 0 19.734559 8.685418 20 19.5.0041-.166223 0-.332795 0-.5 0-11.045695-8.954305-20-20-20zm-10 20v1c0 5.522847 4.477153 10 10 10s10-4.477153 10-10c0-.167378-.02312-.334638-.03125-.5-.260093 5.290951-4.613281 9.5-9.96875 9.5-5.522847 0-10-4.477153-10-10zm42 .5c-.266707 17.442958-14.493556 31.5-32 31.5-17.464777 0-31.667712-13.989693-32-31.375-.0015.125778 0 .248875 0 .375 0 17.673112 14.326888 32 32 32s32-14.326888 32-32c0-.166668.0025-.333936 0-.5z" fill="#fefefe" opacity=".7"/><path d="m48 15c-3.489588 0-6.855862.561149-10 1.59375v1c3.144138-1.032601 6.510412-1.59375 10-1.59375 17.506444 0 31.733293 14.057042 32 31.5.002539-.166064 0-.333332 0-.5 0-17.673112-14.326888-32-32-32zm-20 7.03125c-7.310282 5.864668-12 14.867565-12 24.96875 0 .208335-.004.417613 0 .625.115332-9.947662 4.780995-18.802309 12-24.59375zm20 14.96875v1c5.355469 0 9.708657 4.209049 9.96875 9.5.008129-.165362.03125-.332622.03125-.5 0-5.522847-4.477153-10-10-10zm-20 10v1c0 11.045695 8.954305 20 20 20s20-8.954305 20-20c0-.167205.0041-.333777 0-.5-.265441 10.814582-9.12151 19.5-20 19.5-11.045695 0-20-8.954305-20-20z" opacity=".3"/><path d="m48 16c-3.489588 0-6.855862.561149-10 1.59375v1c3.144138-1.032601 6.510412-1.59375 10-1.59375 17.506444 0 31.733293 14.057042 32 31.5.002539-.166064 0-.333332 0-.5 0-17.673112-14.326888-32-32-32zm-20 7.03125c-7.310282 5.864668-12 14.867565-12 24.96875 0 .208335-.004.417613 0 .625.115332-9.947662 4.780995-18.802309 12-24.59375zm20 14.96875v1c5.355469 0 9.708657 4.209049 9.96875 9.5.008129-.165362.03125-.332622.03125-.5 0-5.522847-4.477153-10-10-10zm-20 10v1c0 11.045695 8.954305 20 20 20s20-8.954305 20-20c0-.167205.0041-.333777 0-.5-.265441 10.814582-9.12151 19.5-20 19.5-11.045695 0-20-8.954305-20-20z" opacity=".3"/><path d="m48 16c-3.489588 0-6.855862.561149-10 1.59375v30.40625c0 5.522847 4.477153 10 10 10s10-4.477153 10-10-4.477153-10-10-10v-10c11.045695 0 20 8.954305 20 20s-8.954305 20-20 20-20-8.954305-20-20v-24.96875c-7.310282 5.864668-12 14.867565-12 24.96875 0 17.673112 14.326888 32 32 32s32-14.326888 32-32-14.326888-32-32-32zm0 1.0625c17.101166 0 30.9375 13.836334 30.9375 30.9375s-13.836334 30.9375-30.9375 30.9375-30.9375-13.836334-30.9375-30.9375c0-8.898147 3.866381-16.794259 9.875-22.4375v22.4375c0 11.617641 9.444859 21.0625 21.0625 21.0625s21.0625-9.444859 21.0625-21.0625-9.444859-21.0625-21.0625-21.0625a1.0584033 1.0584033 0 0 0 -1.0625 1.0625v10a1.0584033 1.0584033 0 0 0 1.0625 1.0625c4.9509 0 8.9375 3.9866 8.9375 8.9375s-3.9866 8.9375-8.9375 8.9375-8.9375-3.9866-8.9375-8.9375v-29.59375c2.8353-.856061 5.821429-1.34375 8.9375-1.34375z" opacity=".12"/></svg>