<svg height="96" width="96" xmlns="http://www.w3.org/2000/svg" xmlns:xlink="http://www.w3.org/1999/xlink"><linearGradient id="a"><stop offset="0" stop-color="#fefefe"/><stop offset="1" stop-color="#fefefe" stop-opacity="0"/></linearGradient><linearGradient id="b" gradientUnits="userSpaceOnUse" x1="48" x2="48" y1="90" y2="5.987717"><stop offset="0" stop-color="#780000"/><stop offset="1" stop-color="#e62929"/></linearGradient><linearGradient id="c" gradientUnits="userSpaceOnUse" x1="36.357143" x2="36.357143" xlink:href="#a" y1="6" y2="63.893143"/><radialGradient id="d" cx="48" cy="90.171875" gradientTransform="matrix(1.1573129 0 0 .99590774 -7.551021 .197132)" gradientUnits="userSpaceOnUse" r="42" xlink:href="#a"/><clipPath id="e"><rect height="84" rx="6" width="84" x="6" y="6"/></clipPath><filter id="f" color-interpolation-filters="sRGB" height="1.384" width="1.384" x="-.192" y="-.192"><feGaussianBlur stdDeviation="5.28"/></filter><linearGradient id="g" gradientUnits="userSpaceOnUse" x1="48" x2="48" xlink:href="#a" y1="20.220806" y2="138.66119"/><radialGradient id="h" cx="48" cy="46.582424" gradientTransform="matrix(1.7146179 .00000007 -.00000004 1.1091053 -34.301659 -5.082394)" gradientUnits="userSpaceOnUse" r="42"><stop offset="0" stop-color="#ff8080"/><stop offset="1" stop-color="#ff8080" stop-opacity="0"/></radialGradient><linearGradient id="i" gradientUnits="userSpaceOnUse" x1="41.63467385406" x2="41.63467385406" y1="18.71207496563" y2="77.29397941479"><stop offset="0" stop-color="#fafafa"/><stop offset=".5" stop-color="#dcdcdc"/><stop offset=".5" stop-color="#c8c8c8"/><stop offset="1" stop-color="#ebebeb"/></linearGradient><linearGradient id="j" gradientUnits="userSpaceOnUse" x1="190.03965241" x2="215.47811201" y1="-25.36212865" y2="119.00112958"><stop offset="0" stop-color="#fefefe"/><stop offset=".40000001" stop-color="#ddd"/><stop offset=".4461" stop-color="#d5d5d5"/><stop offset=".76069999" stop-color="#b4b4b4"/></linearGradient><linearGradient id="k"><stop offset="0" stop-color="#fefefe" stop-opacity="0"/><stop offset="1" stop-color="#fefefe"/></linearGradient><linearGradient id="l" gradientUnits="userSpaceOnUse" x1="201.98040175009" x2="201.98040175009" xlink:href="#k" y1="102.91766985751" y2="117.28079651302"/><linearGradient id="m" gradientUnits="userSpaceOnUse" x1="201.48104478814" x2="202.9856088408" y1="103.44678981719" y2="-19.60813924097"><stop offset="0" stop-color="#fefefe"/><stop offset=".98110002" stop-color="#aeaeae"/><stop offset="1" stop-color="#bf2926"/></linearGradient><linearGradient id="n" gradientUnits="userSpaceOnUse" x1="202.31204930751" x2="202.31199207098" y1="102.56610398623" y2="-18.5867227638"><stop offset="0" stop-color="#e7e7e7"/><stop offset="1" stop-color="#a0a0a0"/></linearGradient><linearGradient id="o" gradientUnits="userSpaceOnUse" x1="202.21577109754" x2="202.21577109754" y1="41.6172082845" y2="-14.27382145514"><stop offset="0" stop-opacity="0"/><stop offset="1"/></linearGradient><linearGradient id="p" gradientUnits="userSpaceOnUse" x1="202.15554554444" x2="202.15554554444" y1="102.04009387823" y2="46.16178909204"><stop offset="0"/><stop offset="1" stop-opacity="0"/></linearGradient><linearGradient id="q" gradientUnits="userSpaceOnUse" x1="202.28903386119" x2="202.28903386119" xlink:href="#k" y1="31.65487154365" y2="-33.85704784882"/><linearGradient id="r" gradientTransform="matrix(1.0058652 0 0 .994169 100 0)" gradientUnits="userSpaceOnUse" x1="45.447727" x2="45.447727" y1="92.539597" y2="7.01654"><stop offset="0"/><stop offset="1" stop-opacity=".588235"/></linearGradient><linearGradient id="s" gradientTransform="matrix(1.0238095 0 0 1.0119048 -1.142857 -98.071429)" gradientUnits="userSpaceOnUse" x1="32.251034" x2="32.251034" xlink:href="#r" y1="6.131708" y2="90.238609"/><linearGradient id="t" gradientTransform="translate(0 -97)" gradientUnits="userSpaceOnUse" x1="32.251034" x2="32.251034" xlink:href="#r" y1="6.131708" y2="90.238609"/><g><g fill="url(#s)"><path d="m12-95.03125c-5.5110903 0-10.03125 4.52016-10.03125 10.03125v71c0 5.5110902 4.5201598 10.03125 10.03125 10.03125h72c5.51109 0 10.03125-4.5201597 10.03125-10.03125v-71c0-5.51109-4.52016-10.03125-10.03125-10.03125z" opacity=".08" transform="scale(1 -1)"/><path d="m12-94.03125c-4.971633 0-9.03125 4.059617-9.03125 9.03125v71c0 4.9716329 4.0596171 9.03125 9.03125 9.03125h72c4.971633 0 9.03125-4.059617 9.03125-9.03125v-71c0-4.971633-4.059617-9.03125-9.03125-9.03125z" opacity=".1" transform="scale(1 -1)"/><path d="m12-93c-4.4091333 0-8 3.590867-8 8v71c0 4.4091333 3.5908667 8 8 8h72c4.409133 0 8-3.5908667 8-8v-71c0-4.409133-3.590867-8-8-8z" opacity=".2" transform="scale(1 -1)"/><rect height="85" opacity=".3" rx="7" transform="scale(1 -1)" width="86" x="5" y="-92"/></g><rect fill="url(#t)" height="84" opacity=".45" rx="6" transform="scale(1 -1)" width="84" x="6" y="-91"/></g><rect fill="url(#b)" height="84" rx="6" width="84" x="6" y="6"/><path d="m36.273888 6.0817019c1.650116 2.216692.112581 5.9183371 2.601472 5.8815911 1.2119 1.714016-2.415455.511296.203594 1.832342 1.506105 1.186578-1.593388 1.86454.27179 2.929374-2.149689 1.109666.348443 5.803987 1.945119 6.978848 2.627954 2.213161 1.162204-4.685722 4.094495-5.044597 1.593359-1.819699 4.391847-2.987811 6.379273-4.818381-1.942301-.15774-3.076464-1.367135-1.237028-2.116304 3.385456 3.470394.848905-1.643528-1.025128-2.4532401 1.813361-.577046 3.576977-.154481 3.325361-1.65137 1.916325-1.402516-1.842255-1.855344-3.183935-1.538263-4.458342 0-8.916678 0-13.375013 0zm-27.801852 1.447777c-2.449761.698195-2.620644 6.5548781-.158351 3.3027391.604343-1.3353661 3.397078-2.9446721.158351-3.3027391zm11.446491.203593c-1.412257 2.2153416.204915 3.9914991 1.379912 1.289427.831709-1.128343-.617926-1.248085-1.379912-1.289427zm3.528956.497674c-2.72875 1.265212-.672602 4.2155641-.605059 4.8717381 2.87456.994829 4.473227-.650437 5.560693 2.161488 2.73516 1.576935-.05382 4.317061-1.080544 5.030674 1.849342-1.611189 5.404158 4.380481 4.472249 1.214924-1.11178-.812076 2.985161 1.304563.859619-1.334669-1.956059-3.152657.155272-1.411414.979953-.675608 2.804888-2.516097-3.173595-2.820214-1.681217-5.409578-1.307758-1.059583-3.02289-4.2694931-5.33868-3.642063-1.550241 2.005564-.214153-4.3699601-2.488605-1.1795631-.117891 1.7834151-.04285 4.0464551-.705711.9568241-.444071-.5408721.764001-1.7982981.0273-1.9941671zm-5.564894.022621c-1.8316.610853-1.733228 3.0865051.518957 3.3519111.771435-.879633.306491-3.1853381-.518957-3.3519111zm-7.148401.791753c-2.379079.563878-1.407992 2.4828651-.679573 3.0233211-2.944918.737923 4.495691.943126.792681 1.410494-3.080791 1.230835 2.966663 2.680942 3.958766 1.221561 3.804391.930735.136908-3.046545-.19704-5.2025321-1.612752-1.731481-.06366 3.9915331-1.521869.184408-.508786 1.1305431-2.126527.166598-2.352965-.637252zm75.601127.248837c-3.192449 1.2498621 1.98418 5.9664341.697641 1.6754941-.128164-.518125.288199-1.8871051-.697641-1.6754941zm-66.665626 1.9002051c-2.29408 2.156707 2.915989 3.940201-.658895 5.546906-.536018-2.002938-1.458273 1.002105-3.503464-.615417-3.515899 1.464466-5.313868-.762828-8.257536-2.28957-1.768029-.220164-1.10378 1.680533-1.220883 3.460193v14.75492c1.733489 1.82448.676329.804976 0 .301752.951467 3.241642-.419572 7.980231 3.330851 9.86583.637564 1.183033 3.312883 6.223076 3.436221 4.715046-1.341215-1.405066-2.717353-5.617387-.447896-1.863024 2.032755 3.568795 4.774749 5.883507 8.780477 6.73276 2.190057.745225 3.991169 3.306965 5.917116 2.743325 1.089051 2.871967-3.227416 5.629887.144912 8.308597 1.760515 2.7118 4.716185 4.4904 3.11596 8.29758-1.119073 3.71826-.639926 7.76974-1.607786 11.23409-.300394 2.10873 2.938037 7.46101 2.65747 3.17511.945569-2.9784.92064-6.25562 3.147579-8.36483 3.047115.02413.582377-3.27775 3.60701-2.84642 1.845644-2.42007 2.380233-5.30712 5.49491-6.26809.372042-2.9376 5.178821-7.43659.213139-8.580318-1.349609-.665451-4.824504-.904732-4.55895-1.233078.538034-2.914877-4.493466-3.744701-6.634228-4.937269-2.810759-1.995848-7.034237 3.315594-8.024515-1.261025-.590876-1.439948-2.751326-1.463301-1.758429-3.68521-1.789388 1.780326-5.289343 1.23924-4.373033-2.198916 1.39157-2.895595 6.735639-3.032599 7.64626.450282-1.264352-3.841203 2.443938-6.83143 4.502527-9.564217.419165-1.3062 2.909742-2.428425 2.052679-.692421 1.460154-.05269 3.673291-2.688637 1.079407-1.472012-.03668-2.403896-2.272976-1.720272-2.997994-1.378934 1.34377-2.133574 8.24499-.967127 5.355098-4.454587-2.239305-.907679-2.053024-6.204449-4.317999-3.253597.190595-1.818146-4.610012-5.377145-4.505255-2.328319.585986 2.728128.107133 5.870869-1.139926 7.659113-.260245-3.99762-7.075678-3.114085-6.199423-7.373995 1.26944-2.030291 2.752851-4.83791 2.894179-4.585337 2.275048-.868941 4.104591-3.396512 1.46783-5.058122-.140917 1.448202-1.98303 4.436139-1.72366.822325-1.705794 2.02318-1.316199-3.219407-2.913753-3.763121zm54.450004 1.402533c-3.995941.977838-5.580067 4.795836-7.556815 7.958163-2.913853 1.314237-2.802938 6.958318.452411 5.155674.87128 1.522277-.609505 3.921673 1.928313 1.931216 2.046994-2.709901.357939-7.092756 3.841419-8.801515.253727 1.32865-3.213334 6.289871.836994 5.474405 3.66156.138209-2.661851.364969-.881001 2.704729-1.850264-1.098211-.888827 2.999333-3.303976 2.045788-2.092333 1.138533-3.464338-.528629-2.985033-2.35496-1.645958.960573.517696 3.67045-2.339585 3.83331-.640044 2.273659-5.903378 1.930962-2.910208 4.246159 1.328901 3.445358-4.95153.215986-3.16853 4.35053 1.525447 4.088438 4.722394-1.354722 6.019433-2.406348 2.502474-1.941872 6.210661 3.311089 3.958763 3.506335 2.525083-.338912 2.006191-2.74125-.01696-3.671301-1.092676-2.834933 3.459035 1.390324 3.206601 2.811683 1.605944 3.008346.944615-3.080088 2.578854-.384565-.190808 2.843378 6.574181.668556 3.344389 4.292415-2.776877.559513-5.510134-.716143-7.900831.100926-2.22511-.01969-2.113469-2.397964-2.923585-2.993542-2.830365.23004-6.327933.204027-8.222767 2.491404-2.049016 2.812343-5.00383 6.743795-2.770526 10.334807 2.234877 5.321462 7.777183.276028 10.962975 3.418767.946936 1.310381-.820594 2.868035 1.296711 4.287425.796704 3.02353-.904488 5.89433 1.052264 8.78464 1.011837 2.7182 1.639779 6.78664 5.40576 4.30281 3.985771-2.39945 2.924161-6.8227 6.212939-9.27265-2.60227-5.038063 3.183628-7.247103 4.627218-11.337101-3.153943.461909-5.963772-2.68376-6.725787-5.84994-1.324936-1.537885-.983676-3.805502.496326-.916468 2.034259 1.971905 2.078217 7.823061 5.841274 4.813019 1.720349-.719835 6.418607-3.465723 2.675109-4.71532-2.413043 1.748397-5.075252-5.224262-1.531819-1.179972 2.576041 1.093303 4.379977 1.744706 4.379977-1.880149 0-9.766125 0-19.664578 0-29.496868-.802399.82028-2.863802 2.335242-3.904284 1.328569-1.790368.249406-4.153886 3.734285-3.59125.365539-1.556235-.103093-.278581 3.020534-2.416637 3.107891-.215289 1.605887-2.159868.297377-1.429431 1.822369-1.500645-1.064875-2.770669-4.427041.186146-2.316729 4.391021-1.317844-2.895608-4.290405-3.458045-5.008905.945455-.226615-1.028609-1.212248-1.266806-.88224zm-36.239676.88224c-1.461507 1.2182 2.778528 1.447612 0 0zm-19.522376.656023c-1.634652 1.710504 2.603281 1.572448 0 0zm9.478418 1.696613c-1.237867 2.028578 1.829027.748943 0 0zm27.100586 2.39788c-1.449235 1.669078-3.362051-.439263-3.39323.995347.262642.433474 1.314671 3.527292 3.619439 1.244183 1.236985-.52171.749963-1.836879-.226209-2.23953zm-30.855759.995347c-2.748806 2.401478 4.668304 2.622741.582324.275426zm36.262298 6.650724c-1.979083 1.291041.949434 4.032808-.04308 5.320723-1.240104 2.161465 4.608325-.152255 1.484614-1.87676-.222564-1.481616-1.830018-3.289356-1.441539-3.443963zm-1.334668 2.601473c-2.757392.779858-.625964 4.806237.350657 1.013998.05497-.219858.12936-1.021351-.350657-1.013998zm-22.078603 2.918175c-2.565224 1.749832-.39843 3.496444 1.481561 2.709121-.385959-1.055763-1.46417-1.720956-1.481561-2.709121zm48.455298 2.940797c1.279946.646198-2.345536 1.750082-.04983 2.887358 1.335978 1.571671.832312 4.945457-1.339202 2.557643.403442-2.665992-2.943559-4.656978 1.389033-5.445001zm-6.582867.02262c-.173666 1.712793 3.69395 4.375139-.475048 3.506334-2.204744.258725-5.506966-.06739-2.729423-2.815681.87765-.527085 3.182055 1.818498 1.982912-.373952.42514-.02713.821079-.187672 1.221559-.316701zm-12.735913 3.709927c-1.608116 1.036413 1.111982 1.831121 0 0zm-40.379417 9.659386c-.271103.904805 5.085991 1.821755 1.389301.372149l-.551068-.194046zm4.16236 1.289426c-1.624915 1.650213 3.347807.493017 0 0zm54.336901 15.133794c-3.530727.09113-3.061331 9.20159-.600138 3.81083.233406-1.16979 1.168903-2.71377.600138-3.81083z" fill="url(#h)" opacity=".7"/><path d="m12 6c-3.324 0-6 2.676-6 6v2 68 2c0 .334721.04135.6507.09375.96875.0487.295596.09704.596915.1875.875.00988.03038.020892.0636.03125.09375.098865.287771.2348802.547452.375.8125.1445918.273507.3156161.535615.5.78125s.3737765.473472.59375.6875c.439947.428056.94291.814526 1.5 1.09375.278545.139612.5734731.246947.875.34375-.2562018-.100222-.4867109-.236272-.71875-.375-.00741-.0044-.023866.0045-.03125 0-.031933-.0193-.062293-.04251-.09375-.0625-.120395-.0767-.2310226-.163513-.34375-.25-.1061728-.0808-.2132809-.161112-.3125-.25-.1779299-.161433-.3474596-.345388-.5-.53125-.1075789-.130255-.2183939-.265285-.3125-.40625-.025089-.03838-.038446-.08587-.0625-.125-.064763-.103032-.1302275-.204517-.1875-.3125-.1010083-.194706-.2056748-.415701-.28125-.625-.00796-.02181-.023589-.04055-.03125-.0625-.0318251-.09195-.0358045-.186831-.0625-.28125-.0303323-.106618-.0703894-.203031-.09375-.3125-.0728786-.341512-.125-.698205-.125-1.0625v-2-68-2c0-2.781848 2.2181517-5 5-5h2 68 2c2.781848 0 5 2.218152 5 5v2 68 2c0 .364295-.05212.720988-.125 1.0625-.04415.206893-.08838.397658-.15625.59375-.0077.02195-.0233.04069-.03125.0625-.06274.173739-.138383.367449-.21875.53125-.04158.0828-.07904.169954-.125.25-.0546.09721-.126774.18835-.1875.28125-.09411.140965-.204921.275995-.3125.40625-.143174.17445-.303141.346998-.46875.5-.01117.0102-.01998.02115-.03125.03125-.138386.125556-.285091.234436-.4375.34375-.102571.07315-.204318.153364-.3125.21875-.0074.0045-.02384-.0044-.03125 0-.232039.138728-.462548.274778-.71875.375.301527-.0968.596455-.204138.875-.34375.55709-.279224 1.060053-.665694 1.5-1.09375.219973-.214028.409366-.441865.59375-.6875s.355408-.507743.5-.78125c.14012-.265048.276135-.524729.375-.8125.01041-.03078.02133-.06274.03125-.09375.09046-.278085.1388-.579404.1875-.875.0524-.31805.09375-.634029.09375-.96875v-2-68-2c0-3.324-2.676-6-6-6z" fill="url(#c)" opacity=".4"/><path d="m12 90c-3.324 0-6-2.676-6-6v-2-68-2c0-.334721.04135-.6507.09375-.96875.0487-.295596.09704-.596915.1875-.875.00988-.03038.020892-.0636.03125-.09375.098865-.287771.2348802-.547452.375-.8125.1445918-.273507.3156161-.535615.5-.78125s.3737765-.473472.59375-.6875c.439947-.428056.94291-.814526 1.5-1.09375.278545-.139612.5734731-.246947.875-.34375-.2562018.100222-.4867109.236272-.71875.375-.00741.0044-.023866-.0045-.03125 0-.031933.0193-.062293.04251-.09375.0625-.120395.0767-.2310226.163513-.34375.25-.1061728.0808-.2132809.161112-.3125.25-.1779299.161433-.3474596.345388-.5.53125-.1075789.130255-.2183939.265285-.3125.40625-.025089.03838-.038446.08587-.0625.125-.064763.103032-.1302275.204517-.1875.3125-.1010083.194706-.2056748.415701-.28125.625-.00796.02181-.023589.04055-.03125.0625-.0318251.09195-.0358045.186831-.0625.28125-.0303323.106618-.0703894.203031-.09375.3125-.0728786.341512-.125.698205-.125 1.0625v2 68 2c0 2.781848 2.2181517 5 5 5h2 68 2c2.781848 0 5-2.218152 5-5v-2-68-2c0-.364295-.05212-.720988-.125-1.0625-.04415-.206893-.08838-.397658-.15625-.59375-.0077-.02195-.0233-.04069-.03125-.0625-.06274-.173739-.138383-.367449-.21875-.53125-.04158-.0828-.07904-.169954-.125-.25-.0546-.09721-.126774-.18835-.1875-.28125-.09411-.140965-.204921-.275995-.3125-.40625-.143174-.17445-.303141-.346998-.46875-.5-.01117-.0102-.01998-.02115-.03125-.03125-.138386-.125556-.285091-.234436-.4375-.34375-.102571-.07315-.204318-.153364-.3125-.21875-.0074-.0045-.02384.0044-.03125 0-.232039-.138728-.462548-.274778-.71875-.375.301527.0968.596455.204138.875.34375.55709.279224 1.060053.665694 1.5 1.09375.219973.214028.409366.441865.59375.6875s.355408.507743.5.78125c.14012.265048.276135.524729.375.8125.01041.03078.02133.06274.03125.09375.09046.278085.1388.579404.1875.875.0524.31805.09375.634029.09375.96875v2 68 2c0 3.324-2.676 6-6 6z" fill="url(#d)" opacity=".2"/><rect height="66" rx="12" style="opacity:.15;stroke:#fefefe;stroke-width:.5;stroke-linecap:round;clip-path:url(#e);fill:url(#g);filter:url(#f)" width="66" x="15" y="15"/><g fill-rule="evenodd"><path d="m47.875 12.53125c-19.665156 0-34.34375 14.999404-34.34375 36.15625 0 19.118918 14.02979 36.78125 34.34375 36.78125 20.474386 0 34.59375-17.649129 34.59375-36.78125 0-21.347534-15.095814-36.15625-34.59375-36.15625zm0 12.3125c1.756401 0 2.599661.393867 3.65625 1.40625 1.000288.958438 1.979767 2.620707 2.71875 4.8125 1.480957 4.392456 2 10.867268 2 17.09375 0 5.461989-.249389 12.186429-1.65625 17.03125-.702526 2.419296-1.719151 4.340565-2.78125 5.46875-1.11749 1.187022-2.020724 1.65625-3.9375 1.65625-1.878029 0-2.681599-.428906-3.78125-1.625-1.044239-1.135822-2.06817-3.081629-2.75-5.5-1.37227-4.86728-1.594241-11.611618-1.59375-17.03125 0-5.799388.434058-12.281913 1.875-16.8125.715858-2.25079 1.716559-4.011946 2.71875-5.03125 1.063096-1.081249 1.830311-1.46875 3.53125-1.46875z" opacity=".05" transform="translate(90)"/><path d="m47.875 13.8125c-19.024622 0-33.0625 14.299571-33.0625 34.875 0 18.497484 13.488784 35.5 33.0625 35.5 19.740828 0 33.3125-16.992804 33.3125-35.5 0-20.754093-14.45262-34.875-33.3125-34.875zm0 9.75c1.998956 0 3.298634.568955 4.53125 1.75 1.219624 1.168597 2.277804 3.016375 3.0625 5.34375 1.570993 4.659499 2.0625 11.206959 2.0625 17.5 0 5.498805-.23756 12.274212-1.71875 17.375-.740277 2.549299-1.788431 4.646655-3.0625 6-1.286425 1.366469-2.687118 2.0625-4.875 2.0625-2.140416 0-3.457175-.659031-4.71875-2.03125-1.247806-1.357243-2.310404-3.474493-3.03125-6.03125-1.443583-5.12022-1.656744-11.921959-1.65625-17.375 0-5.859736.414963-12.400364 1.9375-17.1875.759321-2.387446 1.819571-4.330131 3.03125-5.5625 1.224983-1.2459 2.476725-1.84375 4.4375-1.84375z" opacity=".1" transform="translate(90)"/><path d="m47.875 14.90625c-18.48982 0-31.96875 13.690402-31.96875 33.78125 0 17.974223 13.021436 34.40625 31.96875 34.40625 19.120352 0 32.21875-16.425208 32.21875-34.40625 0-20.258809-13.891806-33.78125-32.21875-33.78125zm0 7.5625c2.232421 0 3.881784.721585 5.28125 2.0625s2.521079 3.341242 3.34375 5.78125c1.645343 4.880016 2.125 11.49613 2.125 17.84375 0 5.530007-.238889 12.376056-1.78125 17.6875-.771181 2.655722-1.864546 4.899451-3.3125 6.4375s-3.211829 2.40625-5.65625 2.40625c-2.399985 0-4.111961-.862485-5.53125-2.40625s-2.499014-3.805089-3.25-6.46875c-1.501973-5.327321-1.719247-12.174499-1.71875-17.65625 0-5.909847.410011-12.532033 2-17.53125.794994-2.499608 1.900089-4.564005 3.28125-5.96875s3.002833-2.1875 5.21875-2.1875z" opacity=".15" transform="translate(90)"/><path d="m137.87709 75.794776c10.8737 0 11.85337-16.53037 11.85337-27.653367 0-12.80236-1.90853-26.76842-11.85337-26.76842-9.94311 0-11.60844 14.848716-11.60844 26.76842-.001 11.02101.88976 27.654227 11.60844 27.654227zm-.00269-59.794776c17.80302 0 31.1256 12.921252 31.1256 32.693462 0 17.458861-12.62123 33.306537-31.12274 33.306537-18.32226 0-30.87726-15.851688-30.87726-33.306537 0-19.615504 12.9101-32.693462 30.8744-32.693462z" opacity=".3"/></g><path d="m48 16.84375c-15.111249.000001-26.843749 14.692852-26.84375 32.125 0 17.431825 11.72431 32.1875 26.84375 32.1875 15.119441 0 26.84375-14.755675 26.84375-32.1875 0-17.432146-11.732499-32.125-26.84375-32.125zm0 9.4375c2.266329 0 3.625733.521716 4.75 1.40625 1.109208.872687 1.990317 2.21902 2.6875 4.1875 1.386117 3.913671 1.75 10.122212 1.75 17.09375.000002 6.948642-.439727 13.156579-1.875 17.09375-.716859 1.966449-1.639087 3.332466-2.75 4.21875-1.123778.896548-2.415918 1.40625-4.5625 1.40625-2.201744 0-3.535757-.517109-4.65625-1.40625-1.105021-.876863-2.00979-2.246734-2.71875-4.21875-1.412857-3.929946-1.8125-10.133678-1.8125-17.09375.000001-6.960117.404093-13.172797 1.8125-17.09375.70502-1.962748 1.603814-3.305629 2.71875-4.1875 1.127595-.891884 2.444529-1.40625 4.65625-1.40625z" opacity=".08"/><path d="m48 17.75c-14.51363.000001-25.937499 14.196631-25.9375 31.21875 0 17.022001 11.418076 31.28125 25.9375 31.28125 14.519425 0 25.9375-14.259249 25.9375-31.28125 0-17.022117-11.423868-31.21875-25.9375-31.21875zm0 7.625c2.414211 0 4.02953.584354 5.3125 1.59375 1.279275 1.00649 2.263575 2.51447 3 4.59375 1.469331 4.148623 1.78125 10.407483 1.78125 17.40625.000002 6.982509-.387046 13.238845-1.90625 17.40625-.758909 2.0818-1.789828 3.609665-3.0625 4.625-1.274909 1.01712-2.825229 1.59375-5.125 1.59375-2.352478 0-3.941718-.580391-5.21875-1.59375-1.273406-1.010481-2.28203-2.540997-3.03125-4.625-1.496444-4.16245-1.84375-10.415823-1.84375-17.40625.000001-6.99086.351774-13.252644 1.84375-17.40625.746058-2.076997 1.752783-3.582532 3.03125-4.59375 1.280843-1.013097 2.85683-1.59375 5.21875-1.59375z" opacity=".1"/><path d="m48 18.65625c-13.917613.000001-25.031249 13.695469-25.03125 30.3125 0 16.61703 11.110425 30.375 25.03125 30.375 13.920826 0 25.03125-13.75797 25.03125-30.375 0-16.617029-11.113635-30.3125-25.03125-30.3125zm0 5.8125c2.565453 0 4.425208.640604 5.875 1.78125s2.506659 2.812958 3.28125 5c1.549183 4.374083 1.84375 10.694583 1.84375 17.71875.000002 7.014361-.368875 13.330053-1.96875 17.71875-.799938 2.194349-1.908329 3.886074-3.34375 5.03125s-3.230902 1.78125-5.6875 1.78125c-2.506397 0-4.339189-.636936-5.78125-1.78125s-2.524136-2.838366-3.3125-5.03125c-1.576729-4.385768-1.90625-10.699887-1.90625-17.71875.000001-7.019681.334023-13.34173 1.90625-17.71875.786114-2.18851 1.869362-3.858534 3.3125-5s3.265309-1.78125 5.78125-1.78125z" opacity=".15"/><path d="m48 19.70313c-13.243274 0-23.999999 13.10947-24 29.27343 0 16.16396 10.756728 29.32032 24 29.32032 13.243274 0 24-13.15636 24-29.32032s-10.756724-29.27343-24-29.27343zm0 3.75c10.971205 0 12.023437 11.42391 12.023437 25.52343.000005 14.09952-1.458367 25.54688-12.023437 25.54688-10.75146 0-12.023438-11.44736-12.023438-25.54688.000002-14.09952 1.238056-25.52343 12.023438-25.52343z" opacity=".3"/><path d="m48 18.70313c-13.243274 0-23.999999 13.10947-24 29.27343 0 16.16396 10.756728 29.32032 24 29.32032 13.243274 0 24-13.15636 24-29.32032s-10.756724-29.27343-24-29.27343zm0 3.75c10.971205 0 12.023437 11.42391 12.023437 25.52343.000005 14.09952-1.458367 25.54688-12.023437 25.54688-10.75146 0-12.023438-11.44736-12.023438-25.54688.000002-14.09952 1.238056-25.52343 12.023438-25.52343z" fill="url(#i)"/><path d="m48 21.4375c-10.785382 0-12.031248 11.43173-12.03125 25.53125 0 .17085-.000388.32995 0 .5.03104-13.86191 1.377353-25.03125 12.03125-25.03125 9.599804 0 11.617349 8.77406 11.96875 20.40625-.271161-12.11704-2.101395-21.40625-11.96875-21.40625zm-24 26.03125c-.0023.16763 0 .3317 0 .5 0 16.16396 10.756728 29.34375 24 29.34375 13.243274 0 24-13.17979 24-29.34375 0-.1683.0023-.33237 0-.5-.220782 15.93259-10.894617 28.84375-24 28.84375-13.105381 0-23.779218-12.91116-24-28.84375z" opacity=".15"/><path d="m48 18.6875c-13.243274 0-23.999999 13.11729-24 29.28125 0 .1683-.0023.33236 0 .5.220783-15.93164 10.894617-28.78125 24-28.78125 13.105385 0 23.779218 12.84961 24 28.78125.0023-.16764 0-.3317 0-.5 0-16.16396-10.756724-29.28125-24-29.28125zm-12.03125 29.78125c-.000383.17108 0 .32811 0 .5 0 14.09952 1.27979 25.5625 12.03125 25.5625 10.156267 0 11.880503-10.59351 12-23.9375-.198908 12.87529-2.095247 22.9375-12 22.9375-10.621182 0-11.999607-11.1986-12.03125-25.0625z" fill="#fefefe" opacity=".75"/><g fill-rule="evenodd" transform="matrix(.4488498 0 0 .45047258 47.27416 27.510714)"><path d="m201.8558 104.96546c24.22569 0 26.4083-36.695618 26.4083-61.387458 0-28.419843-4.25203-59.422973-26.4083-59.422973-22.15244 0-25.86264 32.96253-25.86264 59.422973-.003 24.46544 1.98229 61.389368 25.86264 61.389368zm-.006-132.737881c39.66364 0 69.34524 28.68377002 69.34524 72.575921 0 38.756766-28.11904 73.93688-69.33888 73.93688-40.82046 0-68.79196-35.189019-68.79196-73.93688 0-43.544281 28.76263-72.575921 68.7856-72.575921z" fill="url(#j)"/><path d="m242.81808 102.86678c-10.3172 9.10634-23.93504 14.27925-40.96291 14.27925-16.87651 0-30.42567-5.17291-40.71489-14.27925l34.9111-.084c1.78896.49415 3.71974.75362 5.80379.75362 2.11393 0 4.07015-.17235 5.8801-.66649h35.07963z" fill="url(#l)" opacity=".5"/><path d="m201.84308 103.17205c-24.69565 0-25.724-35.079005-25.724-59.671 0-28.847211 2.79314-56.552871 25.724-56.552871 22.93341 0 26.4223 28.05417 26.4223 56.524255-.006 24.637146-1.38004 59.697706-26.4242 59.697706zm.006-119.872381c-26.97558 0-29.67269 36.02213-29.67269 60.184847 0 27.355884 5.38023 62.883874 29.67269 62.883874 25.87473 0 30.40659-35.578232 30.40659-62.883874 0-23.777967-2.87455-60.186127-30.40532-60.186127z" fill="url(#m)" opacity=".8"/><path d="m201.8558 102.29442c-23.86509 0-24.81585-34.514902-24.81585-58.70497 0-28.382961 2.65641-55.594481 24.81585-55.594481 22.16135 0 25.50651 27.55621 25.50651 55.565862-.006 24.230133-1.30372 58.731049-25.50841 58.731049zm.006-118.009011c-26.55966 0-28.44719 35.71369-28.44719 59.28687 0 26.912618 4.48225 61.866331 28.44719 61.866331 25.00219 0 29.34517-35.003316 29.34517-61.866331 0-23.19479-2.74099-59.28751-29.34326-59.28751z" fill="url(#n)"/><path d="m175.91112 42.946492c0-25.402843 3.40176-54.946433 25.94087-54.946433 22.54102 0 26.66841 30.85367 26.66841 54.546413 0-21.401373-2.90126-55.490183-26.63471-55.490183-23.68193-.003-25.97012 34.11616-25.97012 55.89084z" fill="url(#o)" opacity=".5"/><path d="m227.56773 47.487258c0 25.402844-3.73501 54.933712-25.53895 54.933712-21.80648 0-25.29027-29.231329-25.29027-54.533055 0 23.0129 2.29772 55.477465 25.25657 55.477465 22.92005.006 25.57201-34.106618 25.57201-55.875579z" fill="url(#p)" opacity=".15"/><path d="m134.93294 44.351967c0 37.489295 25.54848 73.180093 67.07486 73.180093 41.82782 0 67.78713-36.7077 67.78713-73.180093 0 36.142965-26.56411 72.595003-67.78713 72.595003-40.91395-.006-67.07486-35.454853-67.07486-72.595003z" fill="#fefefe" opacity=".8"/><path d="m135.17969 42.64759c0-30.861941 21.17244-68.887351 66.67421-68.887351 37.90012 0 67.54546 29.39669 67.54546 68.887351 0-39.882411-27.08687-70.318261-67.54546-70.318261-40.77467-.004-66.67421 29.60401-66.67421 70.318261z" fill="url(#q)" opacity=".65"/></g></svg>