<svg height="96" width="96" xmlns="http://www.w3.org/2000/svg" xmlns:xlink="http://www.w3.org/1999/xlink"><linearGradient id="a" gradientUnits="userSpaceOnUse" x1="36.357143" x2="36.357143" y1="6" y2="63.893143"><stop offset="0" stop-color="#fefefe"/><stop offset="1" stop-color="#fefefe" stop-opacity="0"/></linearGradient><linearGradient id="b" gradientUnits="userSpaceOnUse" x1="48" x2="48" y1="90" y2="5.987717"><stop offset="0" stop-color="#083e76"/><stop offset="1" stop-color="#0074de"/></linearGradient><linearGradient id="c" gradientTransform="matrix(1.0058652 0 0 .994169 100 0)" gradientUnits="userSpaceOnUse" x1="45.447727" x2="45.447727" y1="92.539597" y2="7.01654"><stop offset="0"/><stop offset="1" stop-opacity=".588235"/></linearGradient><linearGradient id="d" gradientTransform="matrix(1.0238095 0 0 1.0119048 -1.142857 -98.071429)" gradientUnits="userSpaceOnUse" x1="32.251034" x2="32.251034" xlink:href="#c" y1="6.131708" y2="90.238609"/><linearGradient id="e" gradientTransform="translate(0 -97)" gradientUnits="userSpaceOnUse" x1="32.251034" x2="32.251034" xlink:href="#c" y1="6.131708" y2="90.238609"/><linearGradient id="f" gradientUnits="userSpaceOnUse" x1="6" x2="90" y1="48.171875" y2="48.171875"><stop offset="0" stop-color="#06b5ff"/><stop offset="1" stop-color="#0ff" stop-opacity="0"/></linearGradient><g><g fill="url(#d)"><path d="m12-95.03125c-5.5110903 0-10.03125 4.52016-10.03125 10.03125v71c0 5.5110902 4.5201598 10.03125 10.03125 10.03125h72c5.51109 0 10.03125-4.5201597 10.03125-10.03125v-71c0-5.51109-4.52016-10.03125-10.03125-10.03125z" opacity=".08" transform="scale(1 -1)"/><path d="m12-94.03125c-4.971633 0-9.03125 4.059617-9.03125 9.03125v71c0 4.9716329 4.0596171 9.03125 9.03125 9.03125h72c4.971633 0 9.03125-4.059617 9.03125-9.03125v-71c0-4.971633-4.059617-9.03125-9.03125-9.03125z" opacity=".1" transform="scale(1 -1)"/><path d="m12-93c-4.4091333 0-8 3.590867-8 8v71c0 4.4091333 3.5908667 8 8 8h72c4.409133 0 8-3.5908667 8-8v-71c0-4.409133-3.590867-8-8-8z" opacity=".2" transform="scale(1 -1)"/><rect height="85" opacity=".3" rx="7" transform="scale(1 -1)" width="86" x="5" y="-92"/></g><rect fill="url(#e)" height="84" opacity=".45" rx="6" transform="scale(1 -1)" width="84" x="6" y="-91"/></g><rect fill="url(#b)" height="84" rx="6" width="84" x="6" y="6"/><path d="m12 6c-3.324 0-6 2.676-6 6v2 68 2c0 .334721.04135.6507.09375.96875.0487.295596.09704.596915.1875.875.00988.03038.020892.0636.03125.09375.098865.287771.2348802.547452.375.8125.1445918.273507.3156161.535615.5.78125s.3737765.473472.59375.6875c.439947.428056.94291.814526 1.5 1.09375.278545.139612.5734731.246947.875.34375-.2562018-.100222-.4867109-.236272-.71875-.375-.00741-.0044-.023866.0045-.03125 0-.031933-.0193-.062293-.04251-.09375-.0625-.120395-.0767-.2310226-.163513-.34375-.25-.1061728-.0808-.2132809-.161112-.3125-.25-.1779299-.161433-.3474596-.345388-.5-.53125-.1075789-.130255-.2183939-.265285-.3125-.40625-.025089-.03838-.038446-.08587-.0625-.125-.064763-.103032-.1302275-.204517-.1875-.3125-.1010083-.194706-.2056748-.415701-.28125-.625-.00796-.02181-.023589-.04055-.03125-.0625-.0318251-.09195-.0358045-.186831-.0625-.28125-.0303323-.106618-.0703894-.203031-.09375-.3125-.0728786-.341512-.125-.698205-.125-1.0625v-2-68-2c0-2.781848 2.2181517-5 5-5h2 68 2c2.781848 0 5 2.218152 5 5v2 68 2c0 .364295-.05212.720988-.125 1.0625-.04415.206893-.08838.397658-.15625.59375-.0077.02195-.0233.04069-.03125.0625-.06274.173739-.138383.367449-.21875.53125-.04158.0828-.07904.169954-.125.25-.0546.09721-.126774.18835-.1875.28125-.09411.140965-.204921.275995-.3125.40625-.143174.17445-.303141.346998-.46875.5-.01117.0102-.01998.02115-.03125.03125-.138386.125556-.285091.234436-.4375.34375-.102571.07315-.204318.153364-.3125.21875-.0074.0045-.02384-.0044-.03125 0-.232039.138728-.462548.274778-.71875.375.301527-.0968.596455-.204138.875-.34375.55709-.279224 1.060053-.665694 1.5-1.09375.219973-.214028.409366-.441865.59375-.6875s.355408-.507743.5-.78125c.14012-.265048.276135-.524729.375-.8125.01041-.03078.02133-.06274.03125-.09375.09046-.278085.1388-.579404.1875-.875.0524-.31805.09375-.634029.09375-.96875v-2-68-2c0-3.324-2.676-6-6-6z" fill="url(#a)" opacity=".35"/><path d="m12 90c-3.324 0-6-2.676-6-6v-2-68-2c0-.334721.04135-.6507.09375-.96875.0487-.295596.09704-.596915.1875-.875.00988-.03038.020892-.0636.03125-.09375.098865-.287771.2348802-.547452.375-.8125.1445918-.273507.3156161-.535615.5-.78125s.3737765-.473472.59375-.6875c.439947-.428056.94291-.814526 1.5-1.09375.278545-.139612.5734731-.246947.875-.34375-.2562018.100222-.4867109.236272-.71875.375-.00741.0044-.023866-.0045-.03125 0-.031933.0193-.062293.04251-.09375.0625-.120395.0767-.2310226.163513-.34375.25-.1061728.0808-.2132809.161112-.3125.25-.1779299.161433-.3474596.345388-.5.53125-.1075789.130255-.2183939.265285-.3125.40625-.025089.03838-.038446.08587-.0625.125-.064763.103032-.1302275.204517-.1875.3125-.1010083.194706-.2056748.415701-.28125.625-.00796.02181-.023589.04055-.03125.0625-.0318251.09195-.0358045.186831-.0625.28125-.0303323.106618-.0703894.203031-.09375.3125-.0728786.341512-.125.698205-.125 1.0625v2 68 2c0 2.781848 2.2181517 5 5 5h2 68 2c2.781848 0 5-2.218152 5-5v-2-68-2c0-.364295-.05212-.720988-.125-1.0625-.04415-.206893-.08838-.397658-.15625-.59375-.0077-.02195-.0233-.04069-.03125-.0625-.06274-.173739-.138383-.367449-.21875-.53125-.04158-.0828-.07904-.169954-.125-.25-.0546-.09721-.126774-.18835-.1875-.28125-.09411-.140965-.204921-.275995-.3125-.40625-.143174-.17445-.303141-.346998-.46875-.5-.01117-.0102-.01998-.02115-.03125-.03125-.138386-.125556-.285091-.234436-.4375-.34375-.102571-.07315-.204318-.153364-.3125-.21875-.0074-.0045-.02384.0044-.03125 0-.232039-.138728-.462548-.274778-.71875-.375.301527.0968.596455.204138.875.34375.55709.279224 1.060053.665694 1.5 1.09375.219973.214028.409366.441865.59375.6875s.355408.507743.5.78125c.14012.265048.276135.524729.375.8125.01041.03078.02133.06274.03125.09375.09046.278085.1388.579404.1875.875.0524.31805.09375.634029.09375.96875v2 68 2c0 3.324-2.676 6-6 6z" fill="url(#f)" opacity=".213"/><g fill="#fefefe"><path d="m42.330915 80.509885c-4.37337-.789978-8.76218-2.487956-12.09367-4.678887-9.59979-6.313247-14.90208-15.951188-14.90208-27.087412 0-9.941878 4.38017-18.927544 12.34076-25.316337 5.67032-4.550737 11.85695-6.628986 19.7882-6.647377 7.392404-.01714 12.474718 1.632695 18.770121 6.09322 1.587672 1.124923 3.284558 2.045315 3.770858 2.045315 2.196611 0 5.553728-1.655658 7.691216-3.793145 2.213588-2.213591 2.23611-2.223105 2.303358-.973003.210937 3.921348-.747672 7.458997-2.972542 10.969868l-1.414982 2.232857 1.248313 2.781614c2.53201 5.642059 3.249545 12.939831 1.905576 19.380814-.375289 1.798567-1.663699 5.258147-2.863138 7.687954-5.051367 10.233005-15.485233 17.010114-26.99264 17.53254-2.33701.106097-5.29772.0033-6.57935-.228021zm12.039481-8.715349c7.898298-2.315985 14.517097-9.359842 16.43316-17.488503 2.217843-9.408935-1.382683-19.238164-9.138544-24.947703-11.236815-8.272072-26.906917-5.326443-34.603327 6.50465-4.96056 7.625494-4.96056 18.135719 0 25.761213 3.61327 5.554397 9.90975 9.855622 15.96441 10.905546 3.13841.544219 8.071273.224531 11.344301-.735203z" stroke-width=".46716"/><g transform="matrix(.29676204 0 0 .29676204 58.321586 48.127344)"><path d="m-95.130168 15.124068c6.84 0 11.56-5.2000002 11.56-13.6800002 0-8.44-4.72-13.4399998-11.56-13.4399998-6.800002 0-11.520002 4.9999998-11.520002 13.4399998 0 8.48 4.72 13.6800002 11.520002 13.6800002zm0-4.04c-4.12 0-6.760002-3.7600002-6.760002-9.6400002 0-5.84 2.640002-9.4 6.760002-9.4s6.76 3.56 6.76 9.4c0 5.88-2.64 9.6400002-6.76 9.6400002z"/><path d="m-81.996418 14.644068h4.92l3.12-6.1600002c.64-1.36 1.24-2.68 1.92-4.28h.16c.8 1.6 1.44 2.92 2.12 4.28l3.2 6.1600002h5.16l-7.44-13.2800002 6.96-12.8799998h-4.92l-2.76 5.7999998c-.6 1.2-1.12 2.44-1.76 4h-.16c-.8-1.56-1.36-2.8-2-4l-2.88-5.7999998h-5.16l6.96 12.6799998z"/><path d="m-53.195793 14.644068h4.64v-9.7200002l7.88-16.4399998h-4.84l-2.84 6.6799998c-.76 1.96-1.56 3.76-2.4 5.75999996h-.16c-.84-1.99999996-1.56-3.79999996-2.32-5.75999996l-2.84-6.6799998h-4.96l7.84 16.4399998z"/><path d="m-27.142668 15.124068c3.56 0 6.6-1.36 8.36-3.12v-11.52000024h-9.12v3.80000004h4.96v5.64c-.84.7600002-2.28 1.1600002-3.76 1.1600002-5.24 0-8-3.6000002-8-9.5600002 0-5.88 3.12-9.48 7.76-9.48 2.44 0 3.96 1 5.28 2.28l2.48-3c-1.64-1.6799998-4.2-3.3199998-7.92-3.3199998-6.96 0-12.36 5.0799998-12.36 13.6399998 0 8.6800002 5.24 13.4800002 12.32 13.4800002z"/><path d="m-12.946418 14.644068h16.1599995v-3.92h-11.52v-7.7200002h9.4v-3.92000004h-9.4v-6.67999996h11.12v-3.9199998h-15.7599995z"/><path d="m8.5379565 14.644068h4.4400005v-11.4400002c0-2.92000004-.4-6.08-.6-8.84h.16l2.68 5.55999996 8.16 14.72000024h4.76v-26.16h-4.44v11.35999976c0 2.92000004.4 6.24000004.6 8.92000004h-.16l-2.68-5.56-8.16-14.7199998h-4.7600005z"/></g></g></svg>