<svg height="96" width="96" xmlns="http://www.w3.org/2000/svg" xmlns:xlink="http://www.w3.org/1999/xlink"><linearGradient id="a"><stop offset="0" stop-color="#fefefe"/><stop offset="1" stop-color="#fefefe" stop-opacity="0"/></linearGradient><linearGradient id="b" gradientUnits="userSpaceOnUse" x1="48" x2="48" y1="90" y2="5.987717"><stop offset="0" stop-color="#e6e6e6"/><stop offset="1" stop-color="#f5f5f5"/></linearGradient><linearGradient id="c" gradientUnits="userSpaceOnUse" x1="36.357143" x2="36.357143" xlink:href="#a" y1="6" y2="63.893143"/><linearGradient id="d" gradientUnits="userSpaceOnUse" x1="56.633896" x2="56.633896" y1="89.164001" y2="6.398416"><stop offset="0" stop-color="#c30000"/><stop offset="1" stop-color="#f12300"/></linearGradient><linearGradient id="e" gradientTransform="matrix(1.0058652 0 0 .994169 100 0)" gradientUnits="userSpaceOnUse" x1="45.447727" x2="45.447727" y1="92.539597" y2="7.01654"><stop offset="0"/><stop offset="1" stop-opacity=".588235"/></linearGradient><linearGradient id="f" gradientTransform="matrix(1.0238095 0 0 1.0119048 -1.142857 -98.071429)" gradientUnits="userSpaceOnUse" x1="32.251034" x2="32.251034" xlink:href="#e" y1="6.131708" y2="90.238609"/><linearGradient id="g" gradientTransform="translate(0 -97)" gradientUnits="userSpaceOnUse" x1="32.251034" x2="32.251034" xlink:href="#e" y1="6.131708" y2="90.238609"/><radialGradient id="h" cx="48" cy="90.171875" gradientTransform="matrix(1.1573129 0 0 .99590774 -7.551021 .197132)" gradientUnits="userSpaceOnUse" r="42" xlink:href="#a"/><clipPath id="i"><rect height="84" rx="6" width="84" x="6" y="6"/></clipPath><filter id="j" color-interpolation-filters="sRGB" height="1.384" width="1.384" x="-.192" y="-.192"><feGaussianBlur stdDeviation="5.28"/></filter><linearGradient id="k" gradientUnits="userSpaceOnUse" x1="48" x2="48" xlink:href="#a" y1="20.220806" y2="138.66119"/><linearGradient id="l" gradientUnits="userSpaceOnUse" x1="62.313553" x2="62.313553" y1="80" y2="41.9375"><stop offset="0" stop-color="#d88215"/><stop offset="1" stop-color="#efc259"/></linearGradient><linearGradient id="m" gradientUnits="userSpaceOnUse" x1="136.41356" x2="149.52968" y1="115.49392" y2="115.49392"><stop offset="0" stop-color="#e6605b"/><stop offset="1" stop-color="#f08682"/></linearGradient><filter id="n" color-interpolation-filters="sRGB" height="1.333333" width="1.857143" x="-.428571" y="-.166667"><feGaussianBlur stdDeviation=".55242721"/></filter><filter id="o" color-interpolation-filters="sRGB" height="1.353367" width="1.366887" x="-.183443" y="-.176683"><feGaussianBlur stdDeviation=".65925"/></filter><linearGradient id="p" gradientTransform="matrix(1.0893815 0 0 1 -13.275943 0)" gradientUnits="userSpaceOnUse" x1="137.40625" x2="148.53125" xlink:href="#q" y1="116.46875" y2="116.46875"/><linearGradient id="q"><stop offset="0"/><stop offset=".69999999" stop-opacity=".498039"/><stop offset="1" stop-opacity="0"/></linearGradient><linearGradient id="r" gradientUnits="userSpaceOnUse" x1="112.26657" x2="126.26657" y1="60" y2="60"><stop offset="0"/><stop offset=".25" stop-color="#282828"/><stop offset=".30000001" stop-color="#3c3c3c"/><stop offset=".69999999" stop-color="#646464"/><stop offset=".75" stop-color="#787878"/><stop offset="1" stop-color="#a0a0a0"/></linearGradient><linearGradient id="s" gradientUnits="userSpaceOnUse" x1="119.26657" x2="119.26657" y1=".000002" y2="120.01752"><stop offset="0"/><stop offset=".06588447"/><stop offset=".07" stop-color="#ad5f1b"/><stop offset=".1913653" stop-color="#ad601a"/><stop offset=".20983393"/><stop offset="1"/></linearGradient><linearGradient id="t" gradientUnits="userSpaceOnUse" x1="117.51659" x2="121.07909" y1="4.921872" y2="4.921872"><stop offset="0"/><stop offset=".5" stop-color="#7d7d7d"/><stop offset="1"/></linearGradient><linearGradient id="u" gradientUnits="userSpaceOnUse" x1="113.25461" x2="125.2617" y1="17.043356" y2="17.043356"><stop offset="0" stop-color="#da8539"/><stop offset="1" stop-color="#fadfc7"/></linearGradient><linearGradient id="v" gradientTransform="matrix(1 0 0 1.2653524 -23.73343 -54.364173)" gradientUnits="userSpaceOnUse" x1="146.10596" x2="146.07562" xlink:href="#a" y1="118.94019" y2="66"/><linearGradient id="w" gradientTransform="matrix(1 0 0 1.2653524 -29.85843 -54.364173)" gradientUnits="userSpaceOnUse" x1="146.10596" x2="146.07562" xlink:href="#a" y1="118.94019" y2="66"/><filter id="x" color-interpolation-filters="sRGB" height="1.227422" width="1.863226" x="-.431613" y="-.113711"><feGaussianBlur stdDeviation=".73914765"/></filter><filter id="y" color-interpolation-filters="sRGB" height="1.2988" width="2.219592" x="-.609796" y="-.1494"><feGaussianBlur stdDeviation=".77812506"/></filter><linearGradient id="z" gradientUnits="userSpaceOnUse" x1="136" x2="150" y1="106" y2="106"><stop offset="0" stop-color="#404040"/><stop offset=".2" stop-color="#808080"/><stop offset=".69999999" stop-color="#efefef"/><stop offset="1" stop-color="#dcdcdc"/></linearGradient><linearGradient id="A" gradientUnits="userSpaceOnUse" x1="136" x2="150" y1="106" y2="106"><stop offset="0" stop-color="#444542"/><stop offset="1" stop-color="#71746e"/></linearGradient><linearGradient id="B" gradientUnits="userSpaceOnUse" spreadMethod="reflect" x1="143.000002" x2="149.000002" xlink:href="#q" y1="100.500001" y2="100.500001"/><linearGradient id="C" gradientUnits="userSpaceOnUse" spreadMethod="reflect" x1="143.000002" x2="149.000002" xlink:href="#D" y1="101.500001" y2="101.500001"/><linearGradient id="D"><stop offset="0" stop-color="#fefefe"/><stop offset=".69999999" stop-color="#fefefe" stop-opacity=".498039"/><stop offset="1" stop-color="#fefefe" stop-opacity="0"/></linearGradient><linearGradient id="E" gradientUnits="userSpaceOnUse" spreadMethod="reflect" x1="143.000002" x2="149.000002" xlink:href="#q" y1="102.500001" y2="102.500001"/><linearGradient id="F" gradientUnits="userSpaceOnUse" spreadMethod="reflect" x1="143.000002" x2="149.000002" xlink:href="#D" y1="103.500001" y2="103.500001"/><linearGradient id="G" gradientUnits="userSpaceOnUse" spreadMethod="reflect" x1="143.000002" x2="149.000002" xlink:href="#q" y1="108.500001" y2="108.500001"/><linearGradient id="H" gradientUnits="userSpaceOnUse" spreadMethod="reflect" x1="143.000002" x2="149.000002" xlink:href="#D" y1="109.500001" y2="109.500001"/><linearGradient id="I" gradientUnits="userSpaceOnUse" spreadMethod="reflect" x1="143.000002" x2="149.000002" xlink:href="#q" y1="110.500001" y2="110.500001"/><linearGradient id="J" gradientUnits="userSpaceOnUse" spreadMethod="reflect" x1="143.000002" x2="149.000002" xlink:href="#D" y1="111.500001" y2="111.500001"/><linearGradient id="K" gradientUnits="userSpaceOnUse" spreadMethod="repeat" x1="137" x2="139.03125" y1="106" y2="106"><stop offset="0" stop-color="#3d3d3d"/><stop offset="1" stop-color="#fefefe"/></linearGradient><filter id="L" color-interpolation-filters="sRGB" height="1.271477" width="3.069921" x="-1.034961" y="-.135738"><feGaussianBlur stdDeviation=".9498173"/></filter><filter id="M" color-interpolation-filters="sRGB" height="1.27541" width="2.866667" x="-.933333" y="-.137705"><feGaussianBlur stdDeviation=".92807767"/></filter><g><g fill="url(#f)"><path d="m12-95.03125c-5.5110903 0-10.03125 4.52016-10.03125 10.03125v71c0 5.5110902 4.5201598 10.03125 10.03125 10.03125h72c5.51109 0 10.03125-4.5201597 10.03125-10.03125v-71c0-5.51109-4.52016-10.03125-10.03125-10.03125z" opacity=".08" transform="scale(1 -1)"/><path d="m12-94.03125c-4.971633 0-9.03125 4.059617-9.03125 9.03125v71c0 4.9716329 4.0596171 9.03125 9.03125 9.03125h72c4.971633 0 9.03125-4.059617 9.03125-9.03125v-71c0-4.971633-4.059617-9.03125-9.03125-9.03125z" opacity=".1" transform="scale(1 -1)"/><path d="m12-93c-4.4091333 0-8 3.590867-8 8v71c0 4.4091333 3.5908667 8 8 8h72c4.409133 0 8-3.5908667 8-8v-71c0-4.409133-3.590867-8-8-8z" opacity=".2" transform="scale(1 -1)"/><rect height="85" opacity=".3" rx="7" transform="scale(1 -1)" width="86" x="5" y="-92"/></g><rect fill="url(#g)" height="84" opacity=".45" rx="6" transform="scale(1 -1)" width="84" x="6" y="-91"/></g><rect fill="url(#b)" height="84" rx="6" width="84" x="6" y="6"/><rect height="66" rx="12" style="opacity:.5;stroke:#fefefe;stroke-width:.5;stroke-linecap:round;clip-path:url(#i);fill:url(#k);filter:url(#j)" width="66" x="15" y="15"/><g fill-rule="evenodd"><path d="m90 28.6875c-23.516715 30.330116-59.750721 34.471306-84 30.09375v4.90625c22.767532 4.109913 50.946157 3.417984 71.3125-5.09375-4.387217 6.352052-6.223842 13.463734-6.65625 19.9375-.278127 4.163964.003 8.088332.46875 11.46875h4.03125c-.478649-3.261833-.772231-7.111813-.5-11.1875.630505-9.439547 4.067072-19.828268 15.34375-26.96875z" opacity=".1"/><path d="m58.762131 6.0005672c-3.948144 8.6918958-6.939911 17.6332118-8.924932 26.6435648-1.030338.819932-2.077285 1.586019-3.14998 2.362484-12.238252 8.858554-26.918727 14.646694-40.687219 14.306147v6.562455c12.183497 1.150198 20.288573 3.212063 25.806074 10.549922 5.457039 7.257449 8.512463 14.433774 8.512463 23.57486h4.199972c0-9.113789-3.95447-19.939986-9.299958-26.068593-5.282661-6.056575-11.954365-8.861708-20.949859-10.943669 12.029553-1.61056 23.97363-6.959214 34.256015-14.306147-2.965427 17.220461-2.482067 34.707976 1.181239 51.318409h29.006054c-14.493651-13.141151-20.763411-36.697159-20.737364-58.930857 8.172812-7.608091 14.524074-16.331024 17.849883-25.0685758h-4.46247c-2.765184 6.4004158-7.399954 12.9683648-13.256159 19.0311178.356571-6.698752 1.425235-13.11086 2.887481-19.0311178z" fill="url(#d)"/><path d="m58.75 6c-3.948144 8.691896-6.921229 17.645897-8.90625 26.65625-1.030338.819932-2.083555 1.567285-3.15625 2.34375-12.238252 8.858554-26.919008 14.653047-40.6875 14.3125v1c13.768492.340547 28.449248-5.453946 40.6875-14.3125 1.072695-.776465 2.125912-1.523818 3.15625-2.34375 1.985021-9.010353 4.958106-17.964354 8.90625-26.65625h2c.078988-.3329443.168512-.6700752.25-1zm12.625 0c-2.750591 6.366638-7.375043 12.901458-13.1875 18.9375-.02373.36488-.07423.727119-.09375 1.09375 5.856205-6.062753 10.516066-12.630834 13.28125-19.03125h4.03125c.13692-.3362341.278228-.6636598.40625-1zm-13.34375 29.25c.535584 20.715555 6.558943 42.08726 19.625 54.75h1.0625c-13.587798-12.319829-19.967068-33.793933-20.6875-54.75zm-9.5 4.4375c-.06075.04341-.126632.08173-.1875.125-1.048187 6.416674-1.61151 12.856525-1.71875 19.28125.156241-6.472447.794215-12.948577 1.90625-19.40625zm-31.78125 13.9375c-.822927.14489-1.644513.264648-2.46875.375 8.995494 2.081961 15.654839 4.880925 20.9375 10.9375 5.151143 5.90579 9.007425 16.168236 9.28125 25.0625h.03125c0-9.113789-3.967012-19.933893-9.3125-26.0625-4.780689-5.481063-10.720054-8.283337-18.46875-10.3125z" fill="#500" opacity=".6"/><path d="m60.75 7c-1.338401 5.641496-2.31955 11.705807-2.65625 18.03125.03091-.032.06291-.06173.09375-.09375.409835-6.301881 1.430284-12.341265 2.8125-17.9375zm14.65625 0c-3.420027 8.398562-9.579289 16.747272-17.4375 24.0625-.000389.331772-.0024.667678 0 1 8.172812-7.608091 14.517941-16.324948 17.84375-25.0625zm-26.875 31.6875c-10.282385 7.346933-22.220447 12.70194-34.25 14.3125.854775.197833 1.655137.411938 2.46875.625 11.11655-1.957259 22.058519-7.034282 31.59375-13.8125.0615-.376516.122704-.748727.1875-1.125zm-42.53125 17.1875v1c12.183497 1.150198 20.294999 3.224641 25.8125 10.5625 5.254879 6.988591 8.252476 13.898377 8.46875 22.5625h.03125c0-9.141086-3.042961-16.305051-8.5-23.5625-5.517501-7.337859-13.629003-9.412302-25.8125-10.5625zm40.625 8.6875c.143504 8.596273 1.109334 17.124462 2.875 25.4375h.21875c-1.831653-8.305217-2.885675-16.836759-3.09375-25.4375z" fill="#fefefe" opacity=".8"/></g><path d="m12 6c-3.324 0-6 2.676-6 6v2 68 2c0 .334721.04135.6507.09375.96875.0487.295596.09704.596915.1875.875.00988.03038.020892.0636.03125.09375.098865.287771.2348802.547452.375.8125.1445918.273507.3156161.535615.5.78125s.3737765.473472.59375.6875c.439947.428056.94291.814526 1.5 1.09375.278545.139612.5734731.246947.875.34375-.2562018-.100222-.4867109-.236272-.71875-.375-.00741-.0044-.023866.0045-.03125 0-.031933-.0193-.062293-.04251-.09375-.0625-.120395-.0767-.2310226-.163513-.34375-.25-.1061728-.0808-.2132809-.161112-.3125-.25-.1779299-.161433-.3474596-.345388-.5-.53125-.1075789-.130255-.2183939-.265285-.3125-.40625-.025089-.03838-.038446-.08587-.0625-.125-.064763-.103032-.1302275-.204517-.1875-.3125-.1010083-.194706-.2056748-.415701-.28125-.625-.00796-.02181-.023589-.04055-.03125-.0625-.0318251-.09195-.0358045-.186831-.0625-.28125-.0303323-.106618-.0703894-.203031-.09375-.3125-.0728786-.341512-.125-.698205-.125-1.0625v-2-68-2c0-2.781848 2.2181517-5 5-5h2 68 2c2.781848 0 5 2.218152 5 5v2 68 2c0 .364295-.05212.720988-.125 1.0625-.04415.206893-.08838.397658-.15625.59375-.0077.02195-.0233.04069-.03125.0625-.06274.173739-.138383.367449-.21875.53125-.04158.0828-.07904.169954-.125.25-.0546.09721-.126774.18835-.1875.28125-.09411.140965-.204921.275995-.3125.40625-.143174.17445-.303141.346998-.46875.5-.01117.0102-.01998.02115-.03125.03125-.138386.125556-.285091.234436-.4375.34375-.102571.07315-.204318.153364-.3125.21875-.0074.0045-.02384-.0044-.03125 0-.232039.138728-.462548.274778-.71875.375.301527-.0968.596455-.204138.875-.34375.55709-.279224 1.060053-.665694 1.5-1.09375.219973-.214028.409366-.441865.59375-.6875s.355408-.507743.5-.78125c.14012-.265048.276135-.524729.375-.8125.01041-.03078.02133-.06274.03125-.09375.09046-.278085.1388-.579404.1875-.875.0524-.31805.09375-.634029.09375-.96875v-2-68-2c0-3.324-2.676-6-6-6z" fill="url(#c)" opacity=".5"/><path d="m12 90c-3.324 0-6-2.676-6-6v-2-68-2c0-.334721.04135-.6507.09375-.96875.0487-.295596.09704-.596915.1875-.875.00988-.03038.020892-.0636.03125-.09375.098865-.287771.2348802-.547452.375-.8125.1445918-.273507.3156161-.535615.5-.78125s.3737765-.473472.59375-.6875c.439947-.428056.94291-.814526 1.5-1.09375.278545-.139612.5734731-.246947.875-.34375-.2562018.100222-.4867109.236272-.71875.375-.00741.0044-.023866-.0045-.03125 0-.031933.0193-.062293.04251-.09375.0625-.120395.0767-.2310226.163513-.34375.25-.1061728.0808-.2132809.161112-.3125.25-.1779299.161433-.3474596.345388-.5.53125-.1075789.130255-.2183939.265285-.3125.40625-.025089.03838-.038446.08587-.0625.125-.064763.103032-.1302275.204517-.1875.3125-.1010083.194706-.2056748.415701-.28125.625-.00796.02181-.023589.04055-.03125.0625-.0318251.09195-.0358045.186831-.0625.28125-.0303323.106618-.0703894.203031-.09375.3125-.0728786.341512-.125.698205-.125 1.0625v2 68 2c0 2.781848 2.2181517 5 5 5h2 68 2c2.781848 0 5-2.218152 5-5v-2-68-2c0-.364295-.05212-.720988-.125-1.0625-.04415-.206893-.08838-.397658-.15625-.59375-.0077-.02195-.0233-.04069-.03125-.0625-.06274-.173739-.138383-.367449-.21875-.53125-.04158-.0828-.07904-.169954-.125-.25-.0546-.09721-.126774-.18835-.1875-.28125-.09411-.140965-.204921-.275995-.3125-.40625-.143174-.17445-.303141-.346998-.46875-.5-.01117-.0102-.01998-.02115-.03125-.03125-.138386-.125556-.285091-.234436-.4375-.34375-.102571-.07315-.204318-.153364-.3125-.21875-.0074-.0045-.02384.0044-.03125 0-.232039-.138728-.462548-.274778-.71875-.375.301527.0968.596455.204138.875.34375.55709.279224 1.060053.665694 1.5 1.09375.219973.214028.409366.441865.59375.6875s.355408.507743.5.78125c.14012.265048.276135.524729.375.8125.01041.03078.02133.06274.03125.09375.09046.278085.1388.579404.1875.875.0524.31805.09375.634029.09375.96875v2 68 2c0 3.324-2.676 6-6 6z" fill="url(#h)" opacity=".3"/><g transform="translate(4.941437 -5.895686)"><path d="m86.105513 24c1.712947.115525 1.853804 2.055059 1.6875 3.384678-.02091 18.015905.04176 36.045373-.03125 54.052822-.429848 1.780159-2.543396 1.423585-3.924539 1.40625-27.440536-.02085-54.891338.04169-82.3254606-.03125-1.8407-.40251-1.810244-3.136799-.06402-3.691385 27.9204836-18.303929 55.8144976-36.666037 83.7515196-54.933615.273709-.176745.595923-.165588.90625-.1875zm-12.3125 24.34375c-10.427083 6.84375-20.854167 13.6875-31.28125 20.53125h31.28125c0-6.84375 0-13.6875 0-20.53125z" opacity=".08"/><path d="m9.9375 24.96875a.90595161.90595161 0 0 0 -.8125.90625v55.125a.90595161.90595161 0 0 0 .90625.90625h84a.90595161.90595161 0 0 0 .5-1.65625l-84-55.125a.90595161.90595161 0 0 0 -.59375-.15625zm11.3125 21.625 35.375 23.21875h-35.375z" opacity=".12" transform="matrix(-1 0 0 1 95.98051 0)"/><path d="m85.938553 25.875-83.9999996 55.125h83.9999996zm-10.294922 19.03125v25.798828h-39.333985z" opacity=".3"/><path d="m85.938553 24.875-83.9999996 55.125h83.9999996zm-10.294922 19.03125v25.798828h-39.333985z" fill="url(#l)"/><path d="m75.636763 42.90625v1l-37.78125 24.8125h-1.53125zm10.3125 36.09375v1h-83.9999996l1.5312496-1z" fill="#a0672c"/><path d="m85.949263 24.875v1l-82.46875 54.125h-1.5312496zm-10.3125 44.84375v1h-39.3125l1.53125-1z" fill="#ffe680" opacity=".5"/><g stroke="#000" stroke-linejoin="round" stroke-width=".75"><path d="m14.78125 27.125c-.417673-.01944-.935948.02277-1.46875.21875l-3.21875 1.1875c-1.9094122.702332-2.8495731 2.833823-2.15625 4.71875h-.03125l.3125.90625c-.00912.04733-.0000978.09444 0 .09375.000201-.0014-.0000596.220181 0 .21875.0000596-.0014.0000823.18893 0 .1875-.0000823-.0014.0002234.188915 0 .1875-.0002234-.0014.062862.188886.0625.1875-.0003624-.0014.062998.188843.0625.1875l.1875.5a1.0151518 1.0151518 0 0 0 .03125.125c-.0003815-.000748.062924.09447.0625.09375-.0001632-.000279.020032.01332.03125.03125.017949.02869.031536.06293.03125.0625-.0002526-.000554.012959.05716.03125.09375.012912.02583.031456.06288.03125.0625h.03125l3.625 9.84375 14.0625 38.21875a1.0151518 1.0151518 0 0 0 0 .03125c-.000356-.000869.06291.125844.0625.125-.000412-.000844.06297.125815.0625.125-.000466-.000815.06302.09453.0625.09375-.000363-.000548.0092.06264.03125.09375.0094.01333.03142.03147.03125.03125l8.09375 11.46875a1.0151518 1.0151518 0 0 0 .03125 0c-.000694-.000939.09452.12588.09375.125-.000767-.00088.125836.125815.125.125s.09465.09449.09375.09375c-.000899-.000745.157206.12567.15625.125s.126007.06309.125.0625c-.001-.000591.126052.09426.125.09375-.0011-.000507.157339.06292.15625.0625-.0011-.000421.15737.03158.15625.03125-.0011-.000331.157393.06274.15625.0625-.0011-.00024.157408.0314.15625.03125-.0012-.000147.157416.000053.15625 0-.0012-.000053.157417-.000041.15625 0-.0012.000041.15741-.000135.15625 0-.0012.000135.157395-.03148.15625-.03125-.0011.000229.157373-.03157.15625-.03125-.0011.00032.157343-.06291.15625-.0625-.0011.00041.157307-.063.15625-.0625-.0011.000497.157263-.06308.15625-.0625-.001.000581.125963-.09441.125-.09375s.125906-.09449.125-.09375c-.000906.000736.125844-.125807.125-.125s.125776-.09462.125-.09375c-.000776.000872.09445-.125932.09375-.125-.000703.000932.09438-.125986.09375-.125-.000626.000986.06304-.157283.0625-.15625-.000544.001.06296-.126074.0625-.125-.000459.0011.06287-.157357.0625-.15625-.000371.0011.06278-.157384.0625-.15625-.00028.0011.03144-.157402.03125-.15625-.000188.0012.000094-.157414 0-.15625-.000094.0012.03125-.157418.03125-.15625 0 .0012-.03135-.188664-.03125-.1875l-1.25-14.03125a1.0151518 1.0151518 0 0 0 0-.03125c.000107.000955-.000171-.125945 0-.125s-.03148-.125932-.03125-.125c.000233.000932-.03154-.125914-.03125-.125.000236.000732-.0511-.06195-.0625-.09375v-.03125l-14.03125-38.1875-3.75-10.09375a1.0151518 1.0151518 0 0 0 0-.03125c.000503.0013-.06312-.157491-.0625-.15625.000625.0012-.09449-.188676-.09375-.1875.000741.0012-.125851-.157349-.125-.15625.000851.0011-.125953-.126012-.125-.125.000953.001-.126045-.157166-.125-.15625.0004.00035-.03531-.0097-.0625-.03125l-.59375-1.6875a1.0151518 1.0151518 0 0 0 -.03125 0c-.524378-1.425611-1.828853-2.308872-3.25-2.375z" opacity=".08" transform="translate(23 -1)"/><path d="m14.71875 28.125c-.320997-.01494-.677093.01449-1.0625.15625l-3.21875 1.1875c-1.3788384.507173-2.0663102 2.067799-1.5625 3.4375l.4375 1.21875a.97171158.97171158 0 0 0 -.03125.75l.1875.5a.97171158.97171158 0 0 0 .125.1875.97171158.97171158 0 0 0 .03125.0625.97171158.97171158 0 0 0 .03125.0625l3.6875 10 14.0625 38.21875a.97171158.97171158 0 0 0 .125.21875l8.125 11.5a.97171158.97171158 0 0 0 1.75-.65625l-1.25-14.03125a.97171158.97171158 0 0 0 -.0625-.25l-14.03125-38.21875-3.75-10.09375a.97171158.97171158 0 0 0 -.5-.53125l-.71875-2c-.376873-1.024593-1.349129-1.671015-2.375-1.71875z" opacity=".12" transform="translate(23 -1)"/><path d="m37.686933 28.085656c.660424.03073 1.265838.426325 1.509142 1.087788l.958134 2.656726.261544-.09627 3.72717 10.07173 14.051309 38.226668 1.239345 14.016702-8.126661-11.481505-14.05131-38.226666-3.72717-10.071731.215653-.05958-.09627-.261544-.261544.09627-.192547-.523086.261544-.09627-.669314-1.872096c-.324404-.881952.114273-1.86379.996222-2.188194l3.225705-1.187372c.220488-.0811.458909-.101807.679051-.09156z" opacity=".3"/></g><g transform="matrix(.53065619 -.19518968 -.19518968 -.53065619 -16.217803 121.1895)"><rect fill="url(#m)" height="16" rx="3" stroke="#df453f" stroke-linejoin="round" stroke-width="1.326457" width="12.116117" x="136.91356" y="107.49392"/><path d="m141.24458 118.1889a1.5467962 3.9774759 0 1 1 -3.09359 0 1.5467962 3.9774759 0 1 1 3.09359 0z" fill="#701300" filter="url(#n)" opacity=".3" transform="matrix(1.8857143 0 0 1 -123.51329 -1.944544)"/><path d="m146.31251 113.125c-.85193 9.50672-3.9375 8.3125-6.5 8.9375 4.07634.0625 8.625-.0625 8.625-.0625-2.4375-.5625-1.8125-2.375-2.125-8.875z" fill="#fefefe" fill-rule="evenodd" filter="url(#o)" opacity=".8"/><path d="m136.41188 115.96875h12.119369v1h-12.119369z" fill="url(#p)" opacity=".2"/><g transform="translate(23.73343)"><path d="m112.76657 24.500002 6.5-23.9999996 6.5 23.9999996v71.999997h-13z" fill="url(#r)" stroke="url(#s)" stroke-linejoin="round" stroke-width="1.326457"/><path d="m117.69336 8.0716529 3.14265.022097-1.58237-5.7913293" fill="url(#t)" fill-rule="evenodd"/><path d="m117.73213 8.0901517-3.76756 13.9098483s-.46779 1.653465-.698 2.60832c-.19122.64228 1.95886 1.611283 3.0182-1.60832 1.21534 4.513809 5.57589 3.437953 5.98831.01105.3425 1.701476 1.75396 2.949961 2.98863 1.521937-.23478-.908743-.43641-1.521937-.43641-1.521937l-4.02168-14.9208973h-3.07149z" fill="url(#u)" fill-rule="evenodd"/><path d="m122.37252 96.304856v-67.217294" fill="none" opacity=".3" stroke="url(#v)" stroke-width="1.76861"/><path d="m116.24752 96.304856v-67.217294" fill="none" opacity=".4" stroke="url(#w)" stroke-width="1.76861"/><path d="m118.7044 5.9798798-4.77297 17.8986412 1.98873-.839689z" fill="#ac4311" fill-rule="evenodd" filter="url(#x)" opacity=".4"/><path d="m113.07908 24.624995s1.48667 1.76491 3.25-1.53125c2 5.25 5.16858 2.087146 5.93749-.03125 1.375 3.4375 3.12501 1.4375 3.12501 1.4375" fill="none" opacity=".15" stroke="#4d2600" stroke-width="1.76861"/><path d="m144.06251 8.9374939-.375 12.5000011 3.0625-.3125z" fill="#fefefe" fill-rule="evenodd" filter="url(#y)" opacity=".8" transform="matrix(1.122449 0 0 1.345 -41.70282 -4.770935)"/></g><path d="m136.5 96.5h13v19h-13z" fill="url(#z)" stroke="url(#A)" stroke-linejoin="round" stroke-width="1.326457"/><path d="m137 100h12v1h-12z" fill="url(#B)" opacity=".4"/><path d="m137 101h12v1h-12z" fill="url(#C)" opacity=".6"/><path d="m137 102h12v1h-12z" fill="url(#E)" opacity=".4"/><path d="m137 103h12v1h-12z" fill="url(#F)" opacity=".6"/><path d="m137 108h12v1h-12z" fill="url(#G)" opacity=".4"/><path d="m137 109h12v1h-12z" fill="url(#H)" opacity=".6"/><path d="m137 110h12v1h-12z" fill="url(#I)" opacity=".4"/><path d="m137 111h12v1h-12z" fill="url(#J)" opacity=".6"/><path d="m137 104h12v4h-12z" fill="url(#K)" opacity=".3"/><path d="m140.00001 106.07969a1.10128 8.3968973 0 1 1 -2.20256 0 1.10128 8.3968973 0 1 1 2.20256 0z" filter="url(#L)" opacity=".6" transform="matrix(1.2553848 0 0 1 -35.75387 0)"/><path d="m147.34339 106.03549a1.193245 8.0875489 0 1 1 -2.38649 0 1.193245 8.0875489 0 1 1 2.38649 0z" fill="#fefefe" filter="url(#M)" opacity=".8"/></g></g></svg>