<svg height="96" width="96" xmlns="http://www.w3.org/2000/svg" xmlns:xlink="http://www.w3.org/1999/xlink"><linearGradient id="a"><stop offset="0" stop-color="#fefefe"/><stop offset="1" stop-color="#fefefe" stop-opacity="0"/></linearGradient><linearGradient id="b" gradientUnits="userSpaceOnUse" x1="36.357143" x2="36.357143" xlink:href="#a" y1="6" y2="63.893143"/><linearGradient id="c" gradientTransform="matrix(1.0058652 0 0 .994169 100 0)" gradientUnits="userSpaceOnUse" x1="45.447727" x2="45.447727" y1="92.539597" y2="7.01654"><stop offset="0"/><stop offset="1" stop-opacity=".588235"/></linearGradient><linearGradient id="d" gradientTransform="matrix(1.0238095 0 0 -1.0119048 -1.142857 98.071429)" gradientUnits="userSpaceOnUse" x1="32.251034" x2="32.251034" xlink:href="#c" y1="6.131708" y2="90.238609"/><linearGradient id="e" gradientTransform="matrix(1 0 0 -1 0 97)" gradientUnits="userSpaceOnUse" x1="32.251034" x2="32.251034" xlink:href="#c" y1="6.131708" y2="90.238609"/><linearGradient id="f" gradientUnits="userSpaceOnUse" x1="47.7241392" x2="47.7241392" y1="90.448278" y2="4.98750562388"><stop offset="0"/><stop offset="1" stop-color="#515151"/></linearGradient><radialGradient id="g" cx="48" cy="90.171875" gradientTransform="matrix(1.1573129 0 0 .99590774 -7.551021 .197132)" gradientUnits="userSpaceOnUse" r="42" xlink:href="#a"/><g transform="translate(.097557 -.569807)"><g fill="url(#d)"><path d="m12 4c-5.5087222 0-10 4.4912778-10 10v71c0 5.508722 4.4912778 10 10 10h72c5.508722 0 10-4.491278 10-10v-71c0-5.5087222-4.491278-10-10-10z" opacity=".08"/><path d="m12 5.03125c-4.946415 0-8.96875 4.022335-8.96875 8.96875v71c0 4.946415 4.022335 8.96875 8.96875 8.96875h72c4.946415 0 8.96875-4.022335 8.96875-8.96875v-71c0-4.946415-4.022335-8.96875-8.96875-8.96875zm-.03125 7.9375h2.0625v.0625h-2.0625zm70 0h2.0625v.0625h-2.0625zm-70 8h2.0625v.0625h-2.0625zm70 0h2.0625v.0625h-2.0625zm-70 8h2.0625v.0625h-2.0625zm70 0h2.0625v.0625h-2.0625zm-70 8h2.0625v.0625h-2.0625zm70 0h2.0625v.0625h-2.0625zm-70 8h2.0625v.0625h-2.0625zm70 0h2.0625v.0625h-2.0625zm-70 8h2.0625v.0625h-2.0625zm70 0h2.0625v.0625h-2.0625zm-70 8h2.0625v.0625h-2.0625zm70 0h2.0625v.0625h-2.0625zm-70 8h2.0625v.0625h-2.0625zm70 0h2.0625v.0625h-2.0625zm-70 8h2.0625v.0625h-2.0625zm70 0h2.0625v.0625h-2.0625zm-70 8h2.0625v.0625h-2.0625zm70 0h2.0625v.0625h-2.0625z" opacity=".1"/><path d="m12 6c-4.4201936 0-8 3.5798064-8 8v71c0 4.420194 3.5798064 8 8 8h72c4.420194 0 8-3.579806 8-8v-71c0-4.4201936-3.579806-8-8-8zm-1 6h4v2h-4zm70 0h4v2h-4zm-70 8h4v2h-4zm70 0h4v2h-4zm-70 8h4v2h-4zm70 0h4v2h-4zm-70 8h4v2h-4zm70 0h4v2h-4zm-70 8h4v2h-4zm70 0h4v2h-4zm-70 8h4v2h-4zm70 0h4v2h-4zm-70 8h4v2h-4zm70 0h4v2h-4zm-70 8h4v2h-4zm70 0h4v2h-4zm-70 8h4v2h-4zm70 0h4v2h-4zm-70 8h4v2h-4zm70 0h4v2h-4z" opacity=".2"/><path d="m12 7c-3.878 0-7 3.122-7 7v71c0 3.878 3.122 7 7 7h72c3.878 0 7-3.122 7-7v-71c0-3.878-3.122-7-7-7zm-2 4h6v4h-6zm70 0h6v4h-6zm-70 8h6v4h-6zm70 0h6v4h-6zm-70 8h6v4h-6zm70 0h6v4h-6zm-70 8h6v4h-6zm70 0h6v4h-6zm-70 8h6v4h-6zm70 0h6v4h-6zm-70 8h6v4h-6zm70 0h6v4h-6zm-70 8h6v4h-6zm70 0h6v4h-6zm-70 8h6v4h-6zm70 0h6v4h-6zm-70 8h6v4h-6zm70 0h6v4h-6zm-70 8h6v4h-6zm70 0h6v4h-6z" opacity=".3"/></g><path d="m12 7c-3.324 0-6 2.676-6 6v72c0 3.324 2.676 6 6 6h72c3.324 0 6-2.676 6-6v-72c0-3.324-2.676-6-6-6zm-2 4h6v4h-6zm70 0h6v4h-6zm-70 8h6v4h-6zm70 0h6v4h-6zm-70 8h6v4h-6zm70 0h6v4h-6zm-70 8h6v4h-6zm70 0h6v4h-6zm-70 8h6v4h-6zm70 0h6v4h-6zm-70 8h6v4h-6zm70 0h6v4h-6zm-70 8h6v4h-6zm70 0h6v4h-6zm-70 8h6v4h-6zm70 0h6v4h-6zm-70 8h6v4h-6zm70 0h6v4h-6zm-70 8h6v4h-6zm70 0h6v4h-6z" fill="url(#e)" opacity=".45"/></g><path d="m12 6c-3.324 0-6 2.676-6 6v72c0 3.324 2.676 6 6 6h72c3.324 0 6-2.676 6-6v-72c0-3.324-2.676-6-6-6zm-2 4h6v4h-6zm70 0h6v4h-6zm-70 8h6v4h-6zm70 0h6v4h-6zm-70 8h6v4h-6zm70 0h6v4h-6zm-70 8h6v4h-6zm70 0h6v4h-6zm-70 8h6v4h-6zm70 0h6v4h-6zm-70 8h6v4h-6zm70 0h6v4h-6zm-70 8h6v4h-6zm70 0h6v4h-6zm-70 8h6v4h-6zm70 0h6v4h-6zm-70 8h6v4h-6zm70 0h6v4h-6zm-70 8h6v4h-6zm70 0h6v4h-6z" fill="url(#f)" transform="translate(.097557 -.569807)"/><rect fill="#0094e0" height="48" rx="2" ry="2.1" width="56" x="20.097557" y="23.430191"/><path d="m22.097557 77.43019c-1.108 0-2 .93035-2 2.09375v9.90625h56.000003v-9.90625c0-1.1634-.892-2.09375-2-2.09375z" fill="#e55b3c"/><path d="m22.097557 17.430193c-1.108 0-2-.93035-2-2.09375v-9.90625h56.000003v9.90625c0 1.1634-.892 2.09375-2 2.09375z" fill="#ff9510"/><g transform="translate(.097557 -.569807)"><path d="m12 6c-3.324 0-6 2.676-6 6v2 68 2c0 .334721.04135.6507.09375.96875.0487.295596.09704.596915.1875.875.0099.03038.02089.0636.03125.09375.09886.287771.23488.547452.375.8125.144592.273507.315616.535615.5.78125s.373776.473472.59375.6875c.439947.428056.94291.814526 1.5 1.09375.278545.139612.573473.246947.875.34375-.256202-.100222-.486711-.236272-.71875-.375-.0074-.0044-.02387.0045-.03125 0-.03193-.0193-.06229-.04251-.09375-.0625-.120395-.0767-.231023-.163513-.34375-.25-.106173-.0808-.213281-.161112-.3125-.25-.17793-.161433-.34746-.345388-.5-.53125-.107579-.130255-.218394-.265285-.3125-.40625-.02509-.03838-.03845-.08587-.0625-.125-.06476-.103032-.130228-.204517-.1875-.3125-.101008-.194706-.205675-.415701-.28125-.625-.008-.02181-.02359-.04055-.03125-.0625-.03182-.09195-.0358-.186831-.0625-.28125-.03033-.106618-.07039-.203031-.09375-.3125-.072879-.341512-.125-.698205-.125-1.0625v-2-68-2c0-2.781848 2.218152-5 5-5h2 68 2c2.781848 0 5 2.218152 5 5v2 68 2c0 .364295-.05212.720988-.125 1.0625-.04415.206893-.08838.397658-.15625.59375-.0077.02195-.0233.04069-.03125.0625-.06274.173739-.138383.367449-.21875.53125-.04158.0828-.07904.169954-.125.25-.0546.09721-.126774.18835-.1875.28125-.09411.140965-.204921.275995-.3125.40625-.143174.17445-.303141.346998-.46875.5-.01117.0102-.01998.02115-.03125.03125-.138386.125556-.285091.234436-.4375.34375-.102571.07315-.204318.153364-.3125.21875-.0074.0045-.02384-.0044-.03125 0-.232039.138728-.462548.274778-.71875.375.301527-.0968.596455-.204138.875-.34375.55709-.279224 1.060053-.665694 1.5-1.09375.219973-.214028.409366-.441865.59375-.6875s.355408-.507743.5-.78125c.14012-.265048.276135-.524729.375-.8125.01041-.03078.02133-.06274.03125-.09375.09046-.278085.1388-.579404.1875-.875.0524-.31805.09375-.634029.09375-.96875v-2-68-2c0-3.324-2.676-6-6-6z" fill="url(#b)" opacity=".25"/><path d="m12 90c-3.324 0-6-2.676-6-6v-2-68-2c0-.334721.04135-.6507.09375-.96875.0487-.295596.09704-.596915.1875-.875.00988-.03038.020892-.0636.03125-.09375.098865-.287771.2348802-.547452.375-.8125.1445918-.273507.3156161-.535615.5-.78125s.3737765-.473472.59375-.6875c.439947-.428056.94291-.814526 1.5-1.09375.278545-.139612.5734731-.246947.875-.34375-.2562018.100222-.4867109.236272-.71875.375-.00741.0044-.023866-.0045-.03125 0-.031933.0193-.062293.04251-.09375.0625-.120395.0767-.2310226.163513-.34375.25-.1061728.0808-.2132809.161112-.3125.25-.1779299.161433-.3474596.345388-.5.53125-.1075789.130255-.2183939.265285-.3125.40625-.025089.03838-.038446.08587-.0625.125-.064763.103032-.1302275.204517-.1875.3125-.1010083.194706-.2056748.415701-.28125.625-.00796.02181-.023589.04055-.03125.0625-.0318251.09195-.0358045.186831-.0625.28125-.0303323.106618-.0703894.203031-.09375.3125-.0728786.341512-.125.698205-.125 1.0625v2 68 2c0 2.781848 2.2181517 5 5 5h2 68 2c2.781848 0 5-2.218152 5-5v-2-68-2c0-.364295-.05212-.720988-.125-1.0625-.04415-.206893-.08838-.397658-.15625-.59375-.0077-.02195-.0233-.04069-.03125-.0625-.06274-.173739-.138383-.367449-.21875-.53125-.04158-.0828-.07904-.169954-.125-.25-.0546-.09721-.126774-.18835-.1875-.28125-.09411-.140965-.204921-.275995-.3125-.40625-.143174-.17445-.303141-.346998-.46875-.5-.01117-.0102-.01998-.02115-.03125-.03125-.138386-.125556-.285091-.234436-.4375-.34375-.102571-.07315-.204318-.153364-.3125-.21875-.0074-.0045-.02384.0044-.03125 0-.232039-.138728-.462548-.274778-.71875-.375.301527.0968.596455.204138.875.34375.55709.279224 1.060053.665694 1.5 1.09375.219973.214028.409366.441865.59375.6875s.355408.507743.5.78125c.14012.265048.276135.524729.375.8125.01041.03078.02133.06274.03125.09375.09046.278085.1388.579404.1875.875.0524.31805.09375.634029.09375.96875v2 68 2c0 3.324-2.676 6-6 6z" fill="url(#g)" opacity=".15"/></g><g fill="#fefefe"><path d="m40 36v24l20.02142-12z"/><path d="m39.84375 35.0625a.9515508.9515508 0 0 0 -.78125.9375v24a.9515508.9515508 0 0 0 1.4375.8125l20.03125-12a.9515508.9515508 0 0 0 0-1.625l-20.03125-12a.9515508.9515508 0 0 0 -.65625-.125z" opacity=".2"/><path d="m40.03125 33.9375c-1.26191-.03384-2.24124 1.213369-2.0625 2.432808v23.910942c.1693 1.395591 1.90124 2.244443 3.09375 1.46875 6.72046-4.017724 13.42727-8.060311 20.15625-12.0625.94496-.670809 1.19083-2.134557.375-3-.735-.717572-1.73926-1.119103-2.59661-1.693501-6.03027-3.612619-12.06072-7.224951-18.09089-10.837749-.27422-.135899-.57865-.163786-.875-.21875z" opacity=".05"/></g></svg>