<svg height="96" width="96" xmlns="http://www.w3.org/2000/svg" xmlns:xlink="http://www.w3.org/1999/xlink"><linearGradient id="a"><stop offset="0" stop-color="#fefefe"/><stop offset="1" stop-color="#fefefe" stop-opacity="0"/></linearGradient><linearGradient id="b" gradientUnits="userSpaceOnUse" x1="36.357143" x2="36.357143" xlink:href="#a" y1="6" y2="63.893143"/><filter id="c" color-interpolation-filters="sRGB" height="1.384" width="1.384" x="-.192" y="-.192"><feGaussianBlur stdDeviation="5.28"/></filter><linearGradient id="d" gradientUnits="userSpaceOnUse" x1="48" x2="48" xlink:href="#a" y1="20.220806" y2="138.66119"/><radialGradient id="e" cx="48" cy="90.171875" gradientTransform="matrix(1.1573129 0 0 .99590774 -7.551021 .197132)" gradientUnits="userSpaceOnUse" r="42" xlink:href="#a"/><clipPath id="f"><rect height="84" rx="6" width="84" x="6" y="6"/></clipPath><linearGradient id="g" gradientUnits="userSpaceOnUse" x1="48" x2="48" y1="90" y2="5.987717"><stop offset="0" stop-color="#e1e1e1"/><stop offset="1" stop-color="#f5f5f5"/></linearGradient><linearGradient id="h" gradientTransform="matrix(1.0058652 0 0 .994169 100 0)" gradientUnits="userSpaceOnUse" x1="45.447727" x2="45.447727" y1="92.539597" y2="7.01654"><stop offset="0"/><stop offset="1" stop-opacity=".588235"/></linearGradient><linearGradient id="i" gradientTransform="matrix(1.0238095 0 0 1.0119048 -1.142857 -98.071429)" gradientUnits="userSpaceOnUse" x1="32.251034" x2="32.251034" xlink:href="#h" y1="6.131708" y2="90.238609"/><linearGradient id="j" gradientTransform="translate(0 -97)" gradientUnits="userSpaceOnUse" x1="32.251034" x2="32.251034" xlink:href="#h" y1="6.131708" y2="90.238609"/><radialGradient id="k" cx="47.727509" cy="47.717522" gradientUnits="userSpaceOnUse" r="30.800892" xlink:href="#a"/><radialGradient id="l" cx="47.727509" cy="47.717522" gradientUnits="userSpaceOnUse" r="30.800892"><stop offset="0" stop-color="#ffd80e"/><stop offset="1" stop-color="#ffee0e" stop-opacity="0"/></radialGradient><radialGradient id="m" cx="47.727509" cy="47.717522" gradientUnits="userSpaceOnUse" r="30.800892"><stop offset="0" stop-color="#7aff06"/><stop offset="1" stop-color="#6eff06" stop-opacity="0"/></radialGradient><radialGradient id="n" cx="47.727509" cy="47.717522" gradientUnits="userSpaceOnUse" r="30.800892"><stop offset="0" stop-color="#12d8ff"/><stop offset="1" stop-color="#12d8ff" stop-opacity="0"/></radialGradient><path d="m12-95.03125c-5.5110903 0-10.03125 4.52016-10.03125 10.03125v71c0 5.5110902 4.5201598 10.03125 10.03125 10.03125h72c5.51109 0 10.03125-4.5201597 10.03125-10.03125v-71c0-5.51109-4.52016-10.03125-10.03125-10.03125z" fill="url(#i)" opacity=".08" transform="scale(1 -1)"/><path d="m12-94.03125c-4.971633 0-9.03125 4.059617-9.03125 9.03125v71c0 4.9716329 4.0596171 9.03125 9.03125 9.03125h72c4.971633 0 9.03125-4.059617 9.03125-9.03125v-71c0-4.971633-4.059617-9.03125-9.03125-9.03125z" fill="url(#i)" opacity=".1" transform="scale(1 -1)"/><path d="m12-93c-4.4091333 0-8 3.590867-8 8v71c0 4.4091333 3.5908667 8 8 8h72c4.409133 0 8-3.5908667 8-8v-71c0-4.409133-3.590867-8-8-8z" fill="url(#i)" opacity=".2" transform="scale(1 -1)"/><rect fill="url(#i)" height="85" opacity=".3" rx="7" transform="scale(1 -1)" width="86" x="5" y="-92"/><rect fill="url(#j)" height="84" opacity=".45" rx="6" transform="scale(1 -1)" width="84" x="6" y="-91"/><rect fill="url(#g)" height="84" rx="6" width="84" x="6" y="6"/><path d="m12 6c-3.324 0-6 2.676-6 6v2 68 2c0 .334721.04135.6507.09375.96875.0487.295596.09704.596915.1875.875.00988.03038.020892.0636.03125.09375.098865.287771.2348802.547452.375.8125.1445918.273507.3156161.535615.5.78125s.3737765.473472.59375.6875c.439947.428056.94291.814526 1.5 1.09375.278545.139612.5734731.246947.875.34375-.2562018-.100222-.4867109-.236272-.71875-.375-.00741-.0044-.023866.0045-.03125 0-.031933-.0193-.062293-.04251-.09375-.0625-.120395-.0767-.2310226-.163513-.34375-.25-.1061728-.0808-.2132809-.161112-.3125-.25-.1779299-.161433-.3474596-.345388-.5-.53125-.1075789-.130255-.2183939-.265285-.3125-.40625-.025089-.03838-.038446-.08587-.0625-.125-.064763-.103032-.1302275-.204517-.1875-.3125-.1010083-.194706-.2056748-.415701-.28125-.625-.00796-.02181-.023589-.04055-.03125-.0625-.0318251-.09195-.0358045-.186831-.0625-.28125-.0303323-.106618-.0703894-.203031-.09375-.3125-.0728786-.341512-.125-.698205-.125-1.0625v-2-68-2c0-2.781848 2.2181517-5 5-5h2 68 2c2.781848 0 5 2.218152 5 5v2 68 2c0 .364295-.05212.720988-.125 1.0625-.04415.206893-.08838.397658-.15625.59375-.0077.02195-.0233.04069-.03125.0625-.06274.173739-.138383.367449-.21875.53125-.04158.0828-.07904.169954-.125.25-.0546.09721-.126774.18835-.1875.28125-.09411.140965-.204921.275995-.3125.40625-.143174.17445-.303141.346998-.46875.5-.01117.0102-.01998.02115-.03125.03125-.138386.125556-.285091.234436-.4375.34375-.102571.07315-.204318.153364-.3125.21875-.0074.0045-.02384-.0044-.03125 0-.232039.138728-.462548.274778-.71875.375.301527-.0968.596455-.204138.875-.34375.55709-.279224 1.060053-.665694 1.5-1.09375.219973-.214028.409366-.441865.59375-.6875s.355408-.507743.5-.78125c.14012-.265048.276135-.524729.375-.8125.01041-.03078.02133-.06274.03125-.09375.09046-.278085.1388-.579404.1875-.875.0524-.31805.09375-.634029.09375-.96875v-2-68-2c0-3.324-2.676-6-6-6z" fill="url(#b)" opacity=".6"/><path d="m12 90c-3.324 0-6-2.676-6-6v-2-68-2c0-.334721.04135-.6507.09375-.96875.0487-.295596.09704-.596915.1875-.875.00988-.03038.020892-.0636.03125-.09375.098865-.287771.2348802-.547452.375-.8125.1445918-.273507.3156161-.535615.5-.78125s.3737765-.473472.59375-.6875c.439947-.428056.94291-.814526 1.5-1.09375.278545-.139612.5734731-.246947.875-.34375-.2562018.100222-.4867109.236272-.71875.375-.00741.0044-.023866-.0045-.03125 0-.031933.0193-.062293.04251-.09375.0625-.120395.0767-.2310226.163513-.34375.25-.1061728.0808-.2132809.161112-.3125.25-.1779299.161433-.3474596.345388-.5.53125-.1075789.130255-.2183939.265285-.3125.40625-.025089.03838-.038446.08587-.0625.125-.064763.103032-.1302275.204517-.1875.3125-.1010083.194706-.2056748.415701-.28125.625-.00796.02181-.023589.04055-.03125.0625-.0318251.09195-.0358045.186831-.0625.28125-.0303323.106618-.0703894.203031-.09375.3125-.0728786.341512-.125.698205-.125 1.0625v2 68 2c0 2.781848 2.2181517 5 5 5h2 68 2c2.781848 0 5-2.218152 5-5v-2-68-2c0-.364295-.05212-.720988-.125-1.0625-.04415-.206893-.08838-.397658-.15625-.59375-.0077-.02195-.0233-.04069-.03125-.0625-.06274-.173739-.138383-.367449-.21875-.53125-.04158-.0828-.07904-.169954-.125-.25-.0546-.09721-.126774-.18835-.1875-.28125-.09411-.140965-.204921-.275995-.3125-.40625-.143174-.17445-.303141-.346998-.46875-.5-.01117-.0102-.01998-.02115-.03125-.03125-.138386-.125556-.285091-.234436-.4375-.34375-.102571-.07315-.204318-.153364-.3125-.21875-.0074-.0045-.02384.0044-.03125 0-.232039-.138728-.462548-.274778-.71875-.375.301527.0968.596455.204138.875.34375.55709.279224 1.060053.665694 1.5 1.09375.219973.214028.409366.441865.59375.6875s.355408.507743.5.78125c.14012.265048.276135.524729.375.8125.01041.03078.02133.06274.03125.09375.09046.278085.1388.579404.1875.875.0524.31805.09375.634029.09375.96875v2 68 2c0 3.324-2.676 6-6 6z" fill="url(#e)" opacity=".4"/><rect height="66" rx="12" style="opacity:.1;stroke:#fefefe;stroke-width:.5;stroke-linecap:round;clip-path:url(#f);fill:url(#d);filter:url(#c)" width="66" x="15" y="15"/><path d="m48 12c-5.0055 0-9.76257 1.028978-14.09375 2.875l27.09375 24.40625v-24.84375c-4.035212-1.564661-8.412107-2.4375-13-2.4375z" fill="#f93538"/><path d="m65 16.25v41.75h17.59375c.914773-3.172694 1.40625-6.532839 1.40625-10 0-13.733665-7.690698-25.680091-19-31.75z" fill="#fe7d08"/><path d="m30.03125 16.8125c-10.771589 6.221683-18.03125 17.854062-18.03125 31.1875 0 3.773534.579525 7.42588 1.65625 10.84375l31.71875-28.21875z" fill="#9864ae"/><path d="m31 48.78125-15.78125 14.03125c3.270802 7.223202 8.82694 13.204995 15.78125 16.9375z" fill="#1d58a6"/><path d="m35 62v19.5625c4.035212 1.564661 8.412107 2.4375 13 2.4375 14.911688 0 27.691153-9.079058 33.15625-22z" fill="#35a328"/><g fill="#f00"><path d="m-97 58h71v3.999999h-71z" opacity=".727273"/><path d="m-60.5-69h71v3.999999h-71z" opacity=".727273" transform="rotate(-90)"/><path d="m19.744413-79.394966h71v3.999999h-71z" opacity=".727273" transform="matrix(-.74291251 -.66938853 .66938853 -.74291251 0 0)"/><path d="m82.488365 29.380718h71v3.999999h-71z" opacity=".727273" transform="matrix(-.74700056 .66482341 -.66482341 -.74700056 0 0)"/><path d="m-114.5-99h71v3.999999h-71z" opacity=".727273" transform="rotate(-90)"/><path d="m48-78c-5.0055 0-9.76257 1.028978-14.09375 2.875l27.09375 24.40625v-24.84375c-4.035212-1.564661-8.412107-2.4375-13-2.4375z" opacity=".87013"/><path d="m65-73.75v41.75h17.59375c.914773-3.172694 1.40625-6.532839 1.40625-10 0-13.733665-7.690698-25.680091-19-31.75z" opacity=".87013"/><path d="m30.03125-73.1875c-10.771589 6.221683-18.03125 17.854062-18.03125 31.1875 0 3.773534.579525 7.42588 1.65625 10.84375l31.71875-28.21875z" opacity=".87013"/><path d="m48.375-56.65625-13.375 11.875v12.78125h26v-13.28125z" opacity=".87013"/><path d="m31-41.21875-15.78125 14.03125c3.270802 7.223202 8.82694 13.204995 15.78125 16.9375z" opacity=".87013"/><path d="m35-28v19.5625c4.035212 1.564661 8.412107 2.4375 13 2.4375 14.911688 0 27.691153-9.079058 33.15625-22z" opacity=".87013"/></g><path d="m47.71875 16.90625c-3.418886 0-6.708375.565488-9.78125 1.59375l23.0625 20.78125v-19.34375c-4.017438-1.920121-8.531535-3.03125-13.28125-3.03125z" fill="url(#k)" opacity=".8"/><path d="m33.84375 20.21875c-10.038792 5.075845-16.90625 15.482132-16.90625 27.5 0 2.556421.319238 5.031184.90625 7.40625l27.53125-24.5z" fill="url(#k)" opacity=".8"/><path d="m65 22.21875v35.78125h11.75c1.139442-3.216821 1.78125-6.673972 1.78125-10.28125 0-10.606982-5.370357-19.959915-13.53125-25.5z" fill="url(#l)" opacity=".8"/><path d="m31 48.78125-11.8125 10.5c2.389518 5.894981 6.539254 10.862936 11.8125 14.28125z" fill="url(#n)" opacity=".8"/><path d="m35 62v13.75c3.882294 1.765849 8.175663 2.78125 12.71875 2.78125 11.85743 0 22.164544-6.71027 27.3125-16.53125z" fill="url(#m)" opacity=".7"/><path d="m48 12c-5.0055 0-9.76257 1.028978-14.09375 2.875l27.09375 24.40625v-24.84375c-4.035212-1.564661-8.412107-2.4375-13-2.4375zm0 2.03125c3.852139 0 7.51806.722427 10.96875 1.90625v18.8125l-21.09375-19c3.216965-1.014651 6.566962-1.71875 10.125-1.71875zm17 2.21875v41.75h17.59375c.914773-3.172694 1.40625-6.532839 1.40625-10 0-13.733665-7.690698-25.680091-19-31.75zm-34.96875.5625c-10.771589 6.221683-18.03125 17.854062-18.03125 31.1875 0 3.773534.579525 7.42588 1.65625 10.84375l31.71875-28.21875zm-.1875 2.53125 12.5 11.28125-27.46875 24.4375c-.483504-2.286638-.84375-4.631606-.84375-7.0625 0-12.085884 6.324048-22.631276 15.8125-28.65625zm37.1875.5625c8.997084 6.10992 14.9375 16.381708 14.9375 28.09375 0 2.755284-.382223 5.405667-1 7.96875h-13.9375zm-36.03125 28.875-15.78125 14.03125c3.270802 7.223202 8.82694 13.204995 15.78125 16.9375zm-2.03125 4.5v22.75c-4.729242-3.232157-8.581335-7.627763-11.1875-12.78125zm6.03125 8.71875v19.5625c4.035212 1.564661 8.412107 2.4375 13 2.4375 14.911688 0 27.691153-9.079058 33.15625-22zm2.03125 2.03125h40.8125c-5.730826 10.649224-16.884878 17.9375-29.84375 17.9375-3.852139 0-7.51806-.722427-10.96875-1.90625z" opacity=".05"/><path d="m148 12c-5.0055 0-9.76257 1.028978-14.09375 2.875l27.09375 24.40625v-24.84375c-4.03521-1.564661-8.41211-2.4375-13-2.4375zm17 4.25v41.75h17.59375c.91477-3.172694 1.40625-6.532839 1.40625-10 0-13.733665-7.6907-25.680091-19-31.75zm-34.96875.5625c-10.77159 6.221683-18.03125 17.854062-18.03125 31.1875 0 3.773534.57953 7.42588 1.65625 10.84375l31.71875-28.21875zm.96875 31.96875-15.78125 14.03125c3.2708 7.223202 8.82694 13.204995 15.78125 16.9375zm4 13.21875v19.5625c4.03521 1.564661 8.41211 2.4375 13 2.4375 14.91169 0 27.69115-9.079058 33.15625-22z" fill="#f93538"/><path d="m34.6875 15.5625c-.258639.103247-.525544.203514-.78125.3125l27.09375 24.40625v-1zm10.125 15.5625-31.15625 27.71875c-1.016936-3.228082-1.595704-6.667795-1.65625-10.21875-.0013.126092 0 .248599 0 .375 0 3.773534.579525 7.42588 1.65625 10.84375l31.71875-28.21875zm39.15625 17.375c-.04498 3.289905-.504354 6.480352-1.375 9.5h-17.59375v1h17.59375c.914773-3.172694 1.40625-6.532839 1.40625-10 0-.167642-.028966-.332898-.03125-.5zm-3.28125 14.5c-5.693289 12.37882-18.169451 21-32.6875 21-4.587893 0-8.964788-.872839-13-2.4375v1c4.035212 1.564661 8.412107 2.4375 13 2.4375 14.911688 0 27.691153-9.079058 33.15625-22zm-65.125.53125-.34375.28125c3.270802 7.223202 8.82694 13.204995 15.78125 16.9375v-1c-6.720657-3.607099-12.129152-9.31995-15.4375-16.21875z" fill="#fefefe"/><path d="m48 12c-5.0055 0-9.76257 1.028978-14.09375 2.875l.78125.6875c4.122211-1.645562 8.602517-2.5625 13.3125-2.5625 4.587893 0 8.964788.872839 13 2.4375v-1c-4.035212-1.564661-8.412107-2.4375-13-2.4375zm17 4.25v1c11.171253 5.995816 18.783886 17.727679 18.96875 31.25.00228-.166744.03125-.332749.03125-.5 0-13.733665-7.690698-25.680091-19-31.75zm-34.96875.5625c-10.771589 6.221683-18.03125 17.854062-18.03125 31.1875 0 .209537-.0036.416229 0 .625.136005-13.17476 7.361776-24.649799 18.03125-30.8125l14.78125 13.3125.5625-.5zm.96875 31.96875-15.78125 14.03125c.109893.242687.228731.478904.34375.71875l15.4375-13.75zm4 13.21875v1h45.6875c.154366-.335636.324482-.658913.46875-1z" opacity=".3"/><path d="m48 12c-5.0055 0-9.76257 1.028978-14.09375 2.875l27.09375 24.40625v-24.84375c-4.035212-1.564661-8.412107-2.4375-13-2.4375zm0 1.09375c4.188547 0 8.185224.771259 11.90625 2.125v21.625l-23.875-21.5c3.750981-1.379922 7.73582-2.25 11.96875-2.25zm17 3.15625v41.75h17.59375c.914773-3.172694 1.40625-6.532839 1.40625-10 0-13.733665-7.690698-25.680091-19-31.75zm-34.96875.5625c-10.771589 6.221683-18.03125 17.854062-18.03125 31.1875 0 3.773534.579525 7.42588 1.65625 10.84375l31.71875-28.21875zm-.09375 1.375 13.8125 12.4375-29.46875 26.1875c-.732271-2.818851-1.1875-5.764337-1.1875-8.8125 0-12.667863 6.758542-23.689417 16.84375-29.8125zm36.15625 0c10.067289 6.126841 16.8125 17.156423 16.8125 29.8125 0 3.087255-.436243 6.056501-1.1875 8.90625h-15.625zm-35.09375 30.59375-15.78125 14.03125c3.270802 7.223202 8.82694 13.204995 15.78125 16.9375zm-1.09375 2.4375v26.5625c-5.748537-3.50908-10.409236-8.605056-13.34375-14.71875zm5.09375 10.78125v19.5625c4.035212 1.564661 8.412107 2.4375 13 2.4375 14.911688 0 27.691153-9.079058 33.15625-22zm1.09375 1.09375h43.28125c-5.638269 11.70172-17.506221 19.8125-31.375 19.8125-4.188547 0-8.185224-.771259-11.90625-2.125z" opacity=".1"/></svg>