<svg height="96" width="96" xmlns="http://www.w3.org/2000/svg" xmlns:xlink="http://www.w3.org/1999/xlink"><linearGradient id="a"><stop offset="0" stop-color="#fefefe"/><stop offset="1" stop-color="#fefefe" stop-opacity="0"/></linearGradient><linearGradient id="b" gradientUnits="userSpaceOnUse" x1="36.357143" x2="36.357143" xlink:href="#a" y1="6" y2="63.893143"/><linearGradient id="c" gradientUnits="userSpaceOnUse" x1="48" x2="48" y1="90" y2="5.987717"><stop offset="0" stop-color="#491e46"/><stop offset="1" stop-color="#8c467e"/></linearGradient><linearGradient id="d" gradientTransform="matrix(1.0058652 0 0 .994169 100 0)" gradientUnits="userSpaceOnUse" x1="45.447727" x2="45.447727" y1="92.539597" y2="7.01654"><stop offset="0"/><stop offset="1" stop-opacity=".588235"/></linearGradient><linearGradient id="e" gradientTransform="matrix(1.0238095 0 0 1.0119048 -1.142857 -98.071429)" gradientUnits="userSpaceOnUse" x1="32.251034" x2="32.251034" xlink:href="#d" y1="6.131708" y2="90.238609"/><linearGradient id="f" gradientTransform="translate(0 -97)" gradientUnits="userSpaceOnUse" x1="32.251034" x2="32.251034" xlink:href="#d" y1="6.131708" y2="90.238609"/><linearGradient id="g" gradientUnits="userSpaceOnUse" x1="6" x2="90" y1="48.171875" y2="48.171875"><stop offset="0" stop-color="#fcb5ff"/><stop offset="1" stop-color="#fc7cff" stop-opacity="0"/></linearGradient><clipPath id="h"><rect height="40.969051" rx="3" width="40.969051" x="-51.815632" y="12.591745"/></clipPath><radialGradient id="i" cx="15.004828" cy="39.80859" gradientTransform="matrix(1 0 0 .732283 0 10.65742)" gradientUnits="userSpaceOnUse" r="9.722516"><stop offset="0" stop-color="#82508e"/><stop offset="1" stop-color="#82508e" stop-opacity="0"/></radialGradient><linearGradient id="j" gradientTransform="matrix(1 0 0 .988192 -50.49413 9.639436)" gradientUnits="userSpaceOnUse" x1="12.606371" x2="12.606371" y1="15.069461" y2="23.043955"><stop offset="0" stop-color="#2e3436"/><stop offset="1" stop-color="#2e3436" stop-opacity="0"/></linearGradient><linearGradient id="k" gradientTransform="matrix(1 0 0 .988192 -50.49413 9.639436)" gradientUnits="userSpaceOnUse" x1="15.645709" x2="15.645709" y1="39.743458" y2="53.502155"><stop offset="0" stop-color="#eeeeec"/><stop offset="1" stop-color="#eeeeec" stop-opacity="0"/></linearGradient><linearGradient id="l" gradientTransform="matrix(1.180326 0 0 .867993 -37.72088 4.317054)" gradientUnits="userSpaceOnUse" x1="-1.684165" x2="5.536619" xlink:href="#a" y1="39.902092" y2="44.272076"/><radialGradient id="m" cx="29.303301" cy="20.259962" gradientTransform="matrix(.97559796 0 0 .9762164 50.835408 4.844814)" gradientUnits="userSpaceOnUse" r="24.34375" xlink:href="#a"/><g><g fill="url(#e)"><path d="m12-95.03125c-5.5110903 0-10.03125 4.52016-10.03125 10.03125v71c0 5.5110902 4.5201598 10.03125 10.03125 10.03125h72c5.51109 0 10.03125-4.5201597 10.03125-10.03125v-71c0-5.51109-4.52016-10.03125-10.03125-10.03125z" opacity=".08" transform="scale(1 -1)"/><path d="m12-94.03125c-4.971633 0-9.03125 4.059617-9.03125 9.03125v71c0 4.9716329 4.0596171 9.03125 9.03125 9.03125h72c4.971633 0 9.03125-4.059617 9.03125-9.03125v-71c0-4.971633-4.059617-9.03125-9.03125-9.03125z" opacity=".1" transform="scale(1 -1)"/><path d="m12-93c-4.4091333 0-8 3.590867-8 8v71c0 4.4091333 3.5908667 8 8 8h72c4.409133 0 8-3.5908667 8-8v-71c0-4.409133-3.590867-8-8-8z" opacity=".2" transform="scale(1 -1)"/><rect height="85" opacity=".3" rx="7" transform="scale(1 -1)" width="86" x="5" y="-92"/></g><rect fill="url(#f)" height="84" opacity=".45" rx="6" transform="scale(1 -1)" width="84" x="6" y="-91"/></g><rect fill="url(#c)" height="84" rx="6" width="84" x="6" y="6"/><path d="m12 6c-3.324 0-6 2.676-6 6v2 68 2c0 .334721.04135.6507.09375.96875.0487.295596.09704.596915.1875.875.00988.03038.020892.0636.03125.09375.098865.287771.2348802.547452.375.8125.1445918.273507.3156161.535615.5.78125s.3737765.473472.59375.6875c.439947.428056.94291.814526 1.5 1.09375.278545.139612.5734731.246947.875.34375-.2562018-.100222-.4867109-.236272-.71875-.375-.00741-.0044-.023866.0045-.03125 0-.031933-.0193-.062293-.04251-.09375-.0625-.120395-.0767-.2310226-.163513-.34375-.25-.1061728-.0808-.2132809-.161112-.3125-.25-.1779299-.161433-.3474596-.345388-.5-.53125-.1075789-.130255-.2183939-.265285-.3125-.40625-.025089-.03838-.038446-.08587-.0625-.125-.064763-.103032-.1302275-.204517-.1875-.3125-.1010083-.194706-.2056748-.415701-.28125-.625-.00796-.02181-.023589-.04055-.03125-.0625-.0318251-.09195-.0358045-.186831-.0625-.28125-.0303323-.106618-.0703894-.203031-.09375-.3125-.0728786-.341512-.125-.698205-.125-1.0625v-2-68-2c0-2.781848 2.2181517-5 5-5h2 68 2c2.781848 0 5 2.218152 5 5v2 68 2c0 .364295-.05212.720988-.125 1.0625-.04415.206893-.08838.397658-.15625.59375-.0077.02195-.0233.04069-.03125.0625-.06274.173739-.138383.367449-.21875.53125-.04158.0828-.07904.169954-.125.25-.0546.09721-.126774.18835-.1875.28125-.09411.140965-.204921.275995-.3125.40625-.143174.17445-.303141.346998-.46875.5-.01117.0102-.01998.02115-.03125.03125-.138386.125556-.285091.234436-.4375.34375-.102571.07315-.204318.153364-.3125.21875-.0074.0045-.02384-.0044-.03125 0-.232039.138728-.462548.274778-.71875.375.301527-.0968.596455-.204138.875-.34375.55709-.279224 1.060053-.665694 1.5-1.09375.219973-.214028.409366-.441865.59375-.6875s.355408-.507743.5-.78125c.14012-.265048.276135-.524729.375-.8125.01041-.03078.02133-.06274.03125-.09375.09046-.278085.1388-.579404.1875-.875.0524-.31805.09375-.634029.09375-.96875v-2-68-2c0-3.324-2.676-6-6-6z" fill="url(#b)" opacity=".35"/><path d="m12 90c-3.324 0-6-2.676-6-6v-2-68-2c0-.334721.04135-.6507.09375-.96875.0487-.295596.09704-.596915.1875-.875.00988-.03038.020892-.0636.03125-.09375.098865-.287771.2348802-.547452.375-.8125.1445918-.273507.3156161-.535615.5-.78125s.3737765-.473472.59375-.6875c.439947-.428056.94291-.814526 1.5-1.09375.278545-.139612.5734731-.246947.875-.34375-.2562018.100222-.4867109.236272-.71875.375-.00741.0044-.023866-.0045-.03125 0-.031933.0193-.062293.04251-.09375.0625-.120395.0767-.2310226.163513-.34375.25-.1061728.0808-.2132809.161112-.3125.25-.1779299.161433-.3474596.345388-.5.53125-.1075789.130255-.2183939.265285-.3125.40625-.025089.03838-.038446.08587-.0625.125-.064763.103032-.1302275.204517-.1875.3125-.1010083.194706-.2056748.415701-.28125.625-.00796.02181-.023589.04055-.03125.0625-.0318251.09195-.0358045.186831-.0625.28125-.0303323.106618-.0703894.203031-.09375.3125-.0728786.341512-.125.698205-.125 1.0625v2 68 2c0 2.781848 2.2181517 5 5 5h2 68 2c2.781848 0 5-2.218152 5-5v-2-68-2c0-.364295-.05212-.720988-.125-1.0625-.04415-.206893-.08838-.397658-.15625-.59375-.0077-.02195-.0233-.04069-.03125-.0625-.06274-.173739-.138383-.367449-.21875-.53125-.04158-.0828-.07904-.169954-.125-.25-.0546-.09721-.126774-.18835-.1875-.28125-.09411-.140965-.204921-.275995-.3125-.40625-.143174-.17445-.303141-.346998-.46875-.5-.01117-.0102-.01998-.02115-.03125-.03125-.138386-.125556-.285091-.234436-.4375-.34375-.102571-.07315-.204318-.153364-.3125-.21875-.0074-.0045-.02384.0044-.03125 0-.232039-.138728-.462548-.274778-.71875-.375.301527.0968.596455.204138.875.34375.55709.279224 1.060053.665694 1.5 1.09375.219973.214028.409366.441865.59375.6875s.355408.507743.5.78125c.14012.265048.276135.524729.375.8125.01041.03078.02133.06274.03125.09375.09046.278085.1388.579404.1875.875.0524.31805.09375.634029.09375.96875v2 68 2c0 3.324-2.676 6-6 6z" fill="url(#g)" opacity=".213"/><g transform="translate(-.813559 -1.220339)"><path d="m74.249759 15.034073c6.780283 0 12.255949 5.479138 12.255949 12.263718s-5.475666 12.233212-12.255949 12.233212c-6.780282 0-12.225462-5.448632-12.225462-12.233212s5.44518-12.263718 12.225462-12.263718zm0-3.874359c-8.889291 0-16.127854 7.243151-16.127854 16.138077 0 8.894927 7.238563 16.138077 16.127854 16.138077s16.127854-7.24315 16.127854-16.138077c0-8.894926-7.238563-16.138077-16.127854-16.138077zm0-2.226994c10.13874 0 18.353437 8.219903 18.353437 18.365071 0 10.145167-8.214697 18.334564-18.353437 18.334564-10.138741 0-18.322949-8.189397-18.322949-18.334564 0-10.145168 8.184208-18.365071 18.322949-18.365071zm0-1.9524328c-11.193244 0-20.274145 9.1171628-20.274145 20.3175038 0 11.20034 9.080901 20.286997 20.274145 20.286997s20.304632-9.086657 20.304632-20.286997c0-11.200341-9.111388-20.3175038-20.304632-20.3175038zm0-2.4710481c12.587084 0 22.774115 10.1934889 22.774115 22.7885519s-10.187031 22.788552-22.774115 22.788552-22.774115-10.193489-22.774115-22.788552 10.187031-22.7885519 22.774115-22.7885519zm0-.976216c-13.114335 0-23.749713 10.6421189-23.749713 23.7647679 0 13.122648 10.635378 23.764768 23.749713 23.764768s23.749713-10.64212 23.749713-23.764768c0-13.122649-10.635378-23.7647679-23.749713-23.7647679z" fill="url(#m)" transform="matrix(1.5420602 0 0 1.5421426 -72.109243 11.057467)"/><g clip-path="url(#h)" transform="matrix(1.9400093 0 0 1.9401321 107.42808 -12.778131)"><path d="m-35.453026 22.485932c-6.624002 0-12 5.533876-12 12.3524 1.846002 14.806144-2.507003 12.83069-2.947354 19.603703 0 2.059513.98542 3.039196 3.092051 3.039196 1.187488 0 26.215338.144413 28.906337.144413 2.114127 0 1.823965-1.84778 1.823965-1.84778 0-2.633938-6.277097-5.031566-8.061546-6.964989-1.828418-1.977393.186547-9.033583.186547-9.033583.641306-1.511736 1-3.186836 1-4.94096 0-6.818524-5.375998-12.3524-12-12.3524z" fill="#82508e" stroke="#3b1941" stroke-width=".773519"/><ellipse cx="15.004828" cy="39.80859" fill="url(#i)" rx="9.722516" ry="7.119638" transform="matrix(.977113 0 0 1.123653 -51.114446 4.254912)"/><path d="m-46.028791 45.360928s.65402 2.39685 1.123799 3.662886c-.614419-.08965-2.048948.0075-2.048948.0075.392903.842149 2.787613 3.808917 5.192865 6.090246-1.953934-.789489-4.132061-.121257-4.132061-.121257.543367.991848 2.365124.932473 2.725695 1.386617 0 0-5.343933 1.253408-5.622599-1.167411-.483755-3.607173 2.411112-6.155849 2.761249-9.858581z" fill="#5c3466" opacity=".515284"/><path d="m-17.983284 56.475739c-2.15236-5.212281-9.427317-3.579359-9.137363-11.17729 0 0-.759598 3.284214-.8137 4.735158.558395-.09227.971133-.07243.971133-.07243-.357077.866835-1.428145 3.155625-3.614079 5.503827 1.775768-.812632 3.028391-.503596 3.028391-.503596-.08369.999808-1.08812.525536-1.359113 1.468603 5.157112-.187687 7.637275.280521 10.924731.04573z" fill="#5c3466" opacity=".515284"/><path d="m-35.49413 23.535886c-6.012296 0-10.921004 5.015648-10.9375 11.271565-.000028.01055 0 .02033 0 .03088.911919 7.431705.243766 11.828628-1.46875 14.915523-2.791537 5.584876-1.032729 6.8151 1.309614 6.8151 1.936581 0 20.054757-.02944 25.88073-.02944 1.167207 0 3.153406.498121 3.153406-.949148 0-.219125-.199751-.631136-.75-1.142597-.550249-.511462-1.37324-1.060667-2.28125-1.605812s-1.87804-1.096614-2.75-1.636693c-.87196-.54008-1.644596-1.044229-2.1875-1.760217-.610005-.804481-.889944-1.750168-.944408-2.77929-.05446-1.029122.08338-2.133219.200219-3.180743.23368-2.095049.744189-3.921887.744189-3.921887.01499-.06354.03591-.125567.0625-.185286.587481-1.38486.90625-2.927476.90625-4.539511 0-6.270667-4.915064-11.302446-10.9375-11.302444z" fill="url(#j)" opacity=".310044" stroke="url(#k)" stroke-width=".773519"/><path d="m-43.727194 31.208252c1.754684-1.841823 4.609275-1.351132 5.729662-.175107 1.535344 1.611589 1.35733 4.414359-.397353 6.256181-1.524848 1.600573-4.032945 2.440044-5.568289.828454s-1.150281-5.454424.23598-6.909528z" fill="#a46bb0"/><path d="m-36.953024 34.27604c0 2.208002-2.090162 3.709914-3.5 3.709914-1.931999 0-3.499999-1.792002-3.499999-4.000005 0-1.918789 1.074847-4.000003 3.006846-4.000003 1.932001 0 3.993153 2.545694 3.993153 4.290094z" fill="#fefefe"/><ellipse cx="10.169642" cy="24.3125" fill="#5c3566" rx="1.241072" ry="1.294643" transform="matrix(1.208632 0 0 1.158617 -52.744387 6.317079)"/><ellipse cx="10.169642" cy="24.3125" rx="1.241072" ry="1.294643" transform="matrix(.402878 0 0 .386209 -44.550152 25.096244)"/><path d="m-22.872409 31.072435c-1.316012-1.637175-3.456956-1.201005-4.297247-.15565-1.151508 1.432524-1.017997 3.923874.298015 5.561049 1.143635 1.42273 3.024708 2.168927 4.176217.736403 1.151508-1.432525.862711-4.848376-.176985-6.141802z" fill="#975fa3"/><path d="m-23.719179 31.800838c-1.096678-1.227877-2.880799-.90075-3.581042-.116736-.959591 1.07439-.848333 2.942896.248345 4.170773.95303 1.067044 2.520592 1.626689 3.480184.552299.959591-1.07439.718927-3.63627-.147487-4.606336z" fill="#fefefe"/><ellipse cx="10.169642" cy="24.3125" fill="#5c3566" rx="1.241072" ry="1.294643" transform="matrix(1.208632 0 0 1.158617 -37.74439 6.317072)"/><ellipse cx="10.169642" cy="24.3125" rx="1.241072" ry="1.294643" transform="matrix(.402878 0 0 .386209 -29.55015 25.096244)"/><rect fill="#eeeeec" height="1.99999" rx="1.165618" ry=".999995" width="6.000002" x="-34.95303" y="38.985947"/><path d="m-38.900375 40.776438c5.332865 2.902451 6.051742-2.650812 7.060907-2.650812.99528 0 1.404108 5.577054 5.939088 2.653901-.952696 1.690222-3.880929 4.346095-5.115407 4.346095-1.248376 0-6.336455-1.852468-7.884588-4.349184z" fill="#f9751a"/><path d="m-42.979407 22.052825c1.622489-1.857182 6.612628-.417414 6.612628.933116l-4.033194.518379z" fill="#3b1941"/><path d="m-40.932291 19.807811c2.857786-1.805674 8.309136 1.413572 8.827515 3.069797h-4.539114z" fill="#3b1941"/><path d="m-38.900375 40.776438c5.332865 2.902451 6.051742-2.650812 7.060907-2.650812.99528 0 1.404108 5.577054 5.939088 2.653901-.952696 1.690222-3.880929 4.346095-5.115407 4.346095-1.248376 0-6.336455-1.852468-7.884588-4.349184z" fill="url(#l)"/></g></g></svg>