<svg height="96" width="96" xmlns="http://www.w3.org/2000/svg" xmlns:xlink="http://www.w3.org/1999/xlink"><linearGradient id="a"><stop offset="0" stop-color="#fefefe"/><stop offset="1" stop-color="#fefefe" stop-opacity="0"/></linearGradient><filter id="b" color-interpolation-filters="sRGB" height="1.384" width="1.384" x="-.192" y="-.192"><feGaussianBlur stdDeviation="5.28"/></filter><linearGradient id="c" gradientUnits="userSpaceOnUse" x1="48" x2="48" xlink:href="#a" y1="20.220806" y2="138.66119"/><clipPath id="d"><rect height="84" rx="6" width="84" x="6" y="6"/></clipPath><linearGradient id="e" gradientTransform="matrix(1.0058652 0 0 .994169 100 0)" gradientUnits="userSpaceOnUse" x1="45.447727" x2="45.447727" y1="92.539597" y2="7.01654"><stop offset="0"/><stop offset="1" stop-opacity=".588235"/></linearGradient><clipPath id="f"><rect height="84" rx="6" width="84" x="6" y="6"/></clipPath><linearGradient id="g" gradientTransform="matrix(1.0238095 0 0 1.0119048 -1.142857 -98.071429)" gradientUnits="userSpaceOnUse" x1="32.251034" x2="32.251034" xlink:href="#e" y1="6.131708" y2="90.238609"/><linearGradient id="h" gradientTransform="translate(0 -97)" gradientUnits="userSpaceOnUse" x1="32.251034" x2="32.251034" xlink:href="#e" y1="6.131708" y2="90.238609"/><linearGradient id="i" gradientUnits="userSpaceOnUse" x1="48" x2="48" y1="90" y2="5.987717"><stop offset="0" stop-color="#df880b"/><stop offset="1" stop-color="#f7c15a"/></linearGradient><linearGradient id="j" gradientUnits="userSpaceOnUse" x1="36.357143" x2="36.357143" xlink:href="#a" y1="6" y2="63.893143"/><radialGradient id="k" cx="48" cy="90.171875" gradientTransform="matrix(1.1573129 0 0 .99590774 -7.551021 .197132)" gradientUnits="userSpaceOnUse" r="42" xlink:href="#a"/><radialGradient id="l" cx="23" cy="12.811336" fx="22.305519" fy="9.10744" gradientTransform="matrix(1.0184108 -3.1841855 2.3318057 .80481645 -17.968307 116.99617)" gradientUnits="userSpaceOnUse" r="4"><stop offset="0" stop-color="#6b6b6b"/><stop offset="1"/></radialGradient><linearGradient id="m" gradientTransform="matrix(.56636537 0 0 .56555249 -49.793038 -110.26342)" gradientUnits="userSpaceOnUse" x1="-10.467957" x2="35.450733" y1="69.255055" y2="69.255055"><stop offset="0" stop-color="#fecd74"/><stop offset="1" stop-color="#c2862f" stop-opacity="0"/></linearGradient><linearGradient id="n" gradientTransform="matrix(1.1049647 0 0 1.1244174 -13.647751 38.897738)" gradientUnits="userSpaceOnUse" x1="26.812107" x2="61.392155" y1="26.720739" y2="26.720739"><stop offset="0" stop-color="#3792c8"/><stop offset="1" stop-color="#3769c8"/></linearGradient><linearGradient id="o" gradientTransform="matrix(.75691163 0 0 .77023688 -14.889883 40.875127)" gradientUnits="userSpaceOnUse" x1="52.564499" x2="57.335056" y1="24" y2="34.788864"><stop offset="0" stop-color="#a5eaf6"/><stop offset="1" stop-color="#35d3ed" stop-opacity="0"/></linearGradient><linearGradient id="p" gradientUnits="userSpaceOnUse" x1="46.47039" x2="53.546238" y1="41.643164" y2="48.718863"><stop offset="0" stop-color="#e1e0e0"/><stop offset=".5" stop-color="#3d3d3d"/><stop offset="1" stop-color="#828282"/></linearGradient><filter id="q"><feGaussianBlur stdDeviation=".24162039"/></filter><radialGradient id="r" cx="-6.119522" cy="50.772907" gradientTransform="matrix(1 0 0 1.0227272 0 -1.153927)" gradientUnits="userSpaceOnUse" r="4.207171" xlink:href="#a"/><g transform="translate(-.57371 .221115)"><g fill="url(#g)"><path d="m12-95.03125c-5.5110903 0-10.03125 4.52016-10.03125 10.03125v71c0 5.5110902 4.5201598 10.03125 10.03125 10.03125h72c5.51109 0 10.03125-4.5201597 10.03125-10.03125v-71c0-5.51109-4.52016-10.03125-10.03125-10.03125z" opacity=".08" transform="scale(1 -1)"/><path d="m12-94.03125c-4.971633 0-9.03125 4.059617-9.03125 9.03125v71c0 4.9716329 4.0596171 9.03125 9.03125 9.03125h72c4.971633 0 9.03125-4.059617 9.03125-9.03125v-71c0-4.971633-4.059617-9.03125-9.03125-9.03125z" opacity=".1" transform="scale(1 -1)"/><path d="m12-93c-4.4091333 0-8 3.590867-8 8v71c0 4.4091333 3.5908667 8 8 8h72c4.409133 0 8-3.5908667 8-8v-71c0-4.409133-3.590867-8-8-8z" opacity=".2" transform="scale(1 -1)"/><rect height="85" opacity=".3" rx="7" transform="scale(1 -1)" width="86" x="5" y="-92"/></g><rect fill="url(#h)" height="84" opacity=".45" rx="6" transform="scale(1 -1)" width="84" x="6" y="-91"/></g><g transform="translate(-.57371 .221115)"><rect fill="url(#i)" height="84" rx="6" width="84" x="6" y="6"/><path d="m12 6c-3.324 0-6 2.676-6 6v2 68 2c0 .334721.04135.6507.09375.96875.0487.295596.09704.596915.1875.875.00988.03038.020892.0636.03125.09375.098865.287771.2348802.547452.375.8125.1445918.273507.3156161.535615.5.78125s.3737765.473472.59375.6875c.439947.428056.94291.814526 1.5 1.09375.278545.139612.5734731.246947.875.34375-.2562018-.100222-.4867109-.236272-.71875-.375-.00741-.0044-.023866.0045-.03125 0-.031933-.0193-.062293-.04251-.09375-.0625-.120395-.0767-.2310226-.163513-.34375-.25-.1061728-.0808-.2132809-.161112-.3125-.25-.1779299-.161433-.3474596-.345388-.5-.53125-.1075789-.130255-.2183939-.265285-.3125-.40625-.025089-.03838-.038446-.08587-.0625-.125-.064763-.103032-.1302275-.204517-.1875-.3125-.1010083-.194706-.2056748-.415701-.28125-.625-.00796-.02181-.023589-.04055-.03125-.0625-.0318251-.09195-.0358045-.186831-.0625-.28125-.0303323-.106618-.0703894-.203031-.09375-.3125-.0728786-.341512-.125-.698205-.125-1.0625v-2-68-2c0-2.781848 2.2181517-5 5-5h2 68 2c2.781848 0 5 2.218152 5 5v2 68 2c0 .364295-.05212.720988-.125 1.0625-.04415.206893-.08838.397658-.15625.59375-.0077.02195-.0233.04069-.03125.0625-.06274.173739-.138383.367449-.21875.53125-.04158.0828-.07904.169954-.125.25-.0546.09721-.126774.18835-.1875.28125-.09411.140965-.204921.275995-.3125.40625-.143174.17445-.303141.346998-.46875.5-.01117.0102-.01998.02115-.03125.03125-.138386.125556-.285091.234436-.4375.34375-.102571.07315-.204318.153364-.3125.21875-.0074.0045-.02384-.0044-.03125 0-.232039.138728-.462548.274778-.71875.375.301527-.0968.596455-.204138.875-.34375.55709-.279224 1.060053-.665694 1.5-1.09375.219973-.214028.409366-.441865.59375-.6875s.355408-.507743.5-.78125c.14012-.265048.276135-.524729.375-.8125.01041-.03078.02133-.06274.03125-.09375.09046-.278085.1388-.579404.1875-.875.0524-.31805.09375-.634029.09375-.96875v-2-68-2c0-3.324-2.676-6-6-6z" fill="url(#j)" opacity=".5"/><path d="m12 90c-3.324 0-6-2.676-6-6v-2-68-2c0-.334721.04135-.6507.09375-.96875.0487-.295596.09704-.596915.1875-.875.00988-.03038.020892-.0636.03125-.09375.098865-.287771.2348802-.547452.375-.8125.1445918-.273507.3156161-.535615.5-.78125s.3737765-.473472.59375-.6875c.439947-.428056.94291-.814526 1.5-1.09375.278545-.139612.5734731-.246947.875-.34375-.2562018.100222-.4867109.236272-.71875.375-.00741.0044-.023866-.0045-.03125 0-.031933.0193-.062293.04251-.09375.0625-.120395.0767-.2310226.163513-.34375.25-.1061728.0808-.2132809.161112-.3125.25-.1779299.161433-.3474596.345388-.5.53125-.1075789.130255-.2183939.265285-.3125.40625-.025089.03838-.038446.08587-.0625.125-.064763.103032-.1302275.204517-.1875.3125-.1010083.194706-.2056748.415701-.28125.625-.00796.02181-.023589.04055-.03125.0625-.0318251.09195-.0358045.186831-.0625.28125-.0303323.106618-.0703894.203031-.09375.3125-.0728786.341512-.125.698205-.125 1.0625v2 68 2c0 2.781848 2.2181517 5 5 5h2 68 2c2.781848 0 5-2.218152 5-5v-2-68-2c0-.364295-.05212-.720988-.125-1.0625-.04415-.206893-.08838-.397658-.15625-.59375-.0077-.02195-.0233-.04069-.03125-.0625-.06274-.173739-.138383-.367449-.21875-.53125-.04158-.0828-.07904-.169954-.125-.25-.0546-.09721-.126774-.18835-.1875-.28125-.09411-.140965-.204921-.275995-.3125-.40625-.143174-.17445-.303141-.346998-.46875-.5-.01117-.0102-.01998-.02115-.03125-.03125-.138386-.125556-.285091-.234436-.4375-.34375-.102571-.07315-.204318-.153364-.3125-.21875-.0074-.0045-.02384.0044-.03125 0-.232039-.138728-.462548-.274778-.71875-.375.301527.0968.596455.204138.875.34375.55709.279224 1.060053.665694 1.5 1.09375.219973.214028.409366.441865.59375.6875s.355408.507743.5.78125c.14012.265048.276135.524729.375.8125.01041.03078.02133.06274.03125.09375.09046.278085.1388.579404.1875.875.0524.31805.09375.634029.09375.96875v2 68 2c0 3.324-2.676 6-6 6z" fill="url(#k)" opacity=".2"/></g><rect height="66" rx="12" style="opacity:.1;stroke:#fefefe;stroke-width:.5;stroke-linecap:round;clip-path:url(#d);fill:url(#c);filter:url(#b)" transform="translate(-.57371 .221115)" width="66" x="15" y="15"/><rect height="66" rx="12" style="opacity:.1;stroke:#fefefe;stroke-width:.5;stroke-linecap:round;clip-path:url(#f);fill:url(#c);filter:url(#b)" transform="translate(.12419 .599089)" width="66" x="15" y="15"/><path d="m16.16786 49.307297c-.350359-.000232-.751832.124653-1.180467.329394-1.511789 1.134842-3.492569-1.017083-4.9916871.329393-.04467.0712-.06478.129902-.101183.197636-.06381.118698-.128817.220889-.168638.329394-.01665.0454-.02105.08808-.03373.131757-.03016.103161-.05822.202422-.06746.296454-.011532.117359-.018011.225242 0 .329394.01851.10705.05505.202169.101183.296454.02979.06089.06113.141655.101183.197636.01748.02437.04816.04241.06745.06588.04749.05735.07743.112363.1349111.164697.0281.02643.07078.04064.101183.06588.172166.139336.379477.254692.607097.362332.204336.09663.411483.185915.640824.263515.109324.0373.22529.06486.337277.09882.158991.04791.312952.121807.472186.164697.545834.147958 1.083075.257201 1.484015.395272 1.935995.438457 2.640391 2.060718 3.473945 3.359815.207597.04736.401215.06766.573369.06588.07032-.000474.137682-.02502.202366-.03294.02288-.0028.04527.0037.06746 0 .163347-.02536.276298-.09561.404731-.164697.107465-.0578.218627-.113922.303549-.197636.103568-.102086.196923-.228794.269821-.362333.0047-.0086-.0046-.02416 0-.03294.05979-.118824.129486-.258888.168638-.395272.01014-.03419.02483-.06371.03373-.09882.04253-.167859.05083-.34355.06745-.52703.01197-.148085.03621-.308428.03373-.461151-.000552-.04413.0016-.08748 0-.131758-.0063-.152406-.01563-.310009-.03373-.461151-.0056-.04654-.02713-.08562-.03373-.131757-.06504-.455322-.166787-.906322-.303548-1.251695-.401766-1.476506-1.213713-3.194117-2.731937-3.195118zm14.536602.49409c-.379375.30612-.57212.663046-.674552 1.05406-.05186.197942-.096.41336-.101183.625847-.0069.23417.03931.479302.06745.724666.05683.454363.13138.921912.202366 1.383453-.0026.01043.0027.0226 0 .03294.181316 1.200858.182186 2.352776-1.247922 3.096299-2.282552 1.645956-5.636765.229469-7.487531 2.733967-1.100361 1.495446-2.400101.967573-3.642582.461151-.104583-.04263-.199293-.0904-.303549-.131758-.211169-.08329-.434297-.169619-.640824-.230575-.316358-.09338-.611871-.152301-.910646-.131758-.246912.01697-.478427.08941-.70828.230576.09831.119361.188161.220414.303549.329393.107313.10276.217519.201041.337276.296454.207121.164191.441756.311433.674552.461151.03473.02237.06606.04371.101183.06588.0347.02187.06614.04418.101183.06588.517448.321003 1.069148.620461 1.585198.955241.06748.04392.136337.08665.202365.131758.06017.04097.109906.08965.168639.131757.202562.145566.394542.330542.573369.49409.01756.0162.05019.01653.06746.03294.121325.114154.231709.203707.337276.329393.0255.03041.043.06766.06746.09882.07583.09669.137471.191902.202365.296455.02054.03254.04806.06546.06746.09882.06304.110202.11911.242518.168638.362333.03987.09536.07075.194431.101182.296454.0197.06636.05202.128268.06746.197636.0024.01074-.0023.02212 0 .03294.03486.164412.05831.344551.06745.52703.0097.193715-.01126.37671-.03373.592908.398115 2.646417-1.715211 4.75053-2.192295 7.14784-.0021.0107.0021.02223 0 .03294-.09118.473504-.103158.944574-.03373 1.449331.07794.285735.170693.564818.303548.856424.05476.12109.108108.240652.168638.362333.233109.467928.507201.948052.742008 1.416392.03303.06597.06962.13181.101183.197636.0154.03212.01874.06674.03373.09882.12795.273971.254325.55395.337276.823484.0915.299637.13375.599138.134911.889363.000172.04279.0023.08921 0 .131757-.01382.27706-.06987.558293-.202366.823484-.04161.08328-.113057.148749-.168638.230575-.03577.0524-.05934.112932-.101183.164697-.06793.08496-.150785.147474-.236093.230576-.04679.04566-.08266.08667-.13491.131757-.143769.125423-.282784.241907-.472187.362333-1.151955 1.027265-.885668 1.979144-.168638 1.581089.119505-.06634.23104-.149307.371004-.296454.139963-.147147.287024-.353184.438459-.592909.737269-2.284652 4.477171-3.801528 5.126597-1.054059.0433.183164.05313.403884.06745.625848.236087.832317-.08073 2.063458-.236093 3.162178-.155369 1.09873-.136621 2.067938.70828 2.371634.241435-2.777341.354595-6.268112 3.035485-7.872506.178727-.106956.371197-.207049.57337-.296455 2.527916-1.319587 4.085197 2.094743 6.441974 1.811665.157119-.01887.307378-.07756.472187-.131757 3.029581-1.272693 4.036063 1.969141 6.070971 3.228056 1.728479.06736 2.39417-1.021952 2.698209-2.503391.04343-.211634.07028-.434462.101183-.658787.247187-1.794641.140327-3.92596.775735-5.171479 2.127819-2.017301 2.415902-4.754282 3.001758-7.477233 1.96569-3.091599 5.93451-.308292 8.296993-1.54815-.03868-.350664-.142296-.646644-.303548-.856423-.0095-.01227-.02385-.0211-.03373-.03294-.07746-.09439-.170565-.161292-.269821-.230575-.01256-.0089-.02084-.02447-.03373-.03294-.03006-.01951-.06942-.0154-.101182-.03294-.0896-.05031-.167421-.09603-.269821-.131757-.610741-.213099-1.424377-.20161-2.293478-.131758-.573012.04605-1.156533.108389-1.720109.131758-.0347.0014-.06671-.0011-.101182 0-.332206.01095-.644598-.0011-.944374-.03294-.03344-.0035-.06826.0041-.101182 0-.151912-.0195-.299767-.02949-.438459-.06588-.159572-.04186-.334036-.0958-.472187-.164697-2.331572-.177535-5.078394-2.234047-4.350862-4.644449.0028-.0091-.0029-.02383 0-.03294.07347-.232641.195437-.454088.337276-.691726.09503-.160955.232246-.380726.404731-.592908.06583-.08047.162985-.177609.236093-.263515.08346-.09834.145873-.192313.236094-.296455.390888-.450262.807855-.928436 1.180466-1.416392.18485-.242075.336458-.462163.472187-.691726.133686-.226107.246011-.458727.303548-.658787.0113-.03847.02582-.06159.03373-.09882.01362-.06156.03001-.106861.03373-.164697.0026-.04507.0039-.08919 0-.131758-.0037-.04352-.02276-.09107-.03373-.131757-.02174-.08067-.04832-.162336-.101183-.230576-.03299-.04173-.0891-.09524-.13491-.131757-.02837-.02086-.06809-.04696-.101183-.06588-.173756-.0993-.42398-.158804-.742008-.197636-1.991317 1.534521-3.005909 4.352538-5.969788 4.512692-2.645956 1.179397-5.833136.89283-7.656168-1.581089-2.498836-1.639242-1.083085-4.695266-2.293478-6.818447-.09475-.291806-.331449-.236425-.539642-.263515zm6.880434 1.943422c-.424864.0032-.843153.222997-1.28165.658787-.221702.22033-.365346.472472-.472186.724666-.06526.154051-.108804.305077-.134911.461151-.0564.315501-.01836.644853.06745.922302.03103.09245.05594.180097.101183.263515.03759.0717.08738.13414.134911.197636.01876.02453.04728.04273.06746.06588.08903.10432.187211.191712.303548.263515.0343.02128.06471.04781.101183.06588.0712.03451.156909.04481.236094.06588.09123.02486.168992.06083.26982.06588.05734.0028.108404.0041.168639 0 .102974-.0057.192281-.0052.303548-.03294.341426-.08517.977947.02734 1.41656.263514.763708.411273 1.220356.524427 1.484015.329394.08789-.06501.151807-.165519.202366-.296454.03664-.0949.05665-.191523.06746-.296454.0139-.109517.01212-.209189 0-.329394-.01104-.09247-.04125-.198026-.06746-.296454-.0058-.02247-.02713-.04312-.03373-.06588-.03673-.126698-.0744-.260648-.13491-.395272-.211207-.469816-.558567-1.012445-1.045556-1.54815-.664005-.730442-1.207582-1.091109-1.753836-1.086999zm-24.857253 10.869988c-.530425-.02045-1.04417.02806-1.180467.230575-.08467.125844-.139726.218633-.202365.329394-.0085.01495-.02561.01825-.03373.03294-.05617.101864-.09645.206174-.13491.296454-.03357.07997-.0468.158584-.06746.230576-.03091.105174-.06188.206121-.06746.296454-.0071.115757.0045.232515.03373.329394.02967.09851.07382.178093.13491.263514.04814.06731.104443.134857.168638.197637.05747.05717.100493.141728.168638.197636.03254.02613.06665.03962.101183.06588.222153.172582.503703.346111.775735.559969.348199.273729.724831.338838 1.113012.296455.38818-.04238.759215-.210011 1.113011-.395273.707593-.370523 1.292703-.854979 1.41656-.757605-.182299-.302926-.343591-.555774-.505914-.757605-.472206-.623107-.876395-.89146-1.551471-1.218756-.199776-.09687-.751222-.177177-1.281649-.197636zm1.686381 6.192599c-.126517.02048-.22524.06644-.303549.131757-.007.0063.0067.02628 0 .03294-.05522.05521-.10292.123009-.13491.197636-.0406.09185-.05911.181878-.06745.296455-.005.06747-.0045.124969 0 .197636.0063.146725.02793.304043.06745.461151.169204.672637.316642.823705.505914.790544.09463-.01658.187067-.08508.303549-.164696.116481-.07961.255185-.163538.404731-.230576.838813-.376025.488747-.451422 0-1.614028-.321115-.100874-.584554-.129755-.775735-.09882zm34.132347 3.853904c-.284976.05471.172426.58455 1.349104 1.581089.989198.837788 2.057751 1.852583 2.360933 2.206937.774826.905595 1.646743.692001 1.753836-.395272.02179-.221216.03016-.386766 0-.52703-.01653-.07693-.05673-.133128-.101183-.197636-.03482-.05051-.07822-.11718-.13491-.164697-.0098-.0082-.02323-.02476-.03373-.03294-.215119-.16749-.564973-.306415-1.180466-.559969-.322646-.132907-.683559-.317409-1.045556-.494091-.01405-.0069-.01969-.02606-.03373-.03294-.103287-.0505-.202679-.08151-.303548-.131757-.177186-.09041-.2782-.175364-.438459-.263515-.295615-.154736-.55104-.266487-.742008-.395272-.556645-.375425-1.210712-.638897-1.450287-.592909z" fill="#b7510e"/><g transform="translate(.38247 -2.480426)"><path d="m16.828917 51.032732c-.324622-.00022-.690913.09457-1.08806.288839-1.400734 1.076645-3.24709-.964508-4.636083.312907-1.4583854 2.380046 1.934219 2.682281 3.406102 3.201298 1.793777.415969 2.468206 1.944754 3.240527 3.177227 2.312152.540081 2.16665-2.504033 1.608436-3.947464-.372252-1.400777-1.124226-3.031859-2.530922-3.032807zm13.482486.457328c-2.045128 1.689742 1.240046 5.042108-1.632089 6.571083-2.114877 1.56154-5.239316.199428-6.954125 2.575479-1.76678 2.458603-4.044049-.879262-5.747797.19256 1.457416 1.811865 5.134792 2.230245 4.801657 5.512007.443312 3.017383-2.473413 5.266537-2.081506 8.183767.577666 2.168626 3.25644 4.566522.473069 6.378522-1.423111 1.299446-.507491 2.469336.614991.649887.728651-2.311982 4.589396-3.778396 4.801657-.409188.437488 1.579248-1.139906 4.670986.425763 5.247239.238612-2.810565.361664-6.39343 3.358795-7.750508 2.498365-1.33537 3.966857 2.43546 6.410096 1.612682 2.807029-1.207423 3.720452 1.862536 5.605876 3.056879 3.660584.146063 2.157678-5.55572 3.335141-7.918998 1.97151-1.913843 2.224639-4.493248 2.767458-7.07655 1.821292-2.933041 5.498447-.316069 7.687383-1.492335-.287827-2.671561-4.637952-.514952-6.552016-1.492334-2.37867-.185461-5.239875-2.524967-3.737251-5.102819.7257-1.258446 4.485745-4.463085 1.679398-4.813979-1.845036 1.455814-2.812417 4.132502-5.55857 4.284442-2.451586 1.118908-5.406932.854705-7.096045-1.492334-2.315272-1.555167-.983682-4.436437-2.10516-6.450733-.08779-.276835-.303826-.23907-.496725-.264769zm6.362789 1.853382c-.393653.0031-.776389.212378-1.182674.625818-1.216587 1.238003-.466589 3.279403 1.064406 2.888388.316345-.08079.89455.04068 1.300943.264768.943475.520237 1.373751.520974 1.56113.02407.257739-.683476-.14575-1.680014-1.111714-2.768037-.615227-.692974-1.125964-1.038905-1.632091-1.035007zm-23.038497 10.301918c-.49146-.01941-.961776.02446-1.08806.216629-1.06151 1.615347-.187082 1.849736.804219 2.647688 1.29048 1.038775 3.152933-.979056 3.382449-.794306-.669339-1.138848-1.081952-1.463427-1.915932-1.877451-.185101-.09189-.691214-.173145-1.182676-.19256zm1.584785 5.873056c-.531412.08812-.569474.666669-.425764 1.251634.313551 1.276284.581129.639517 1.135369.385118.777194-.356736.452844-.437499 0-1.540472-.297526-.09572-.532468-.125654-.709605-.09628zm31.601058 3.658624c-.264041.05188.187049.57097 1.277289 1.516404.916532.794817 1.895209 1.733829 2.17612 2.070012.717907.859144 1.532865.670459 1.632091-.361049.07205-.749079-.0067-.85425-1.348249-1.420124-.791983-.334036-1.873239-.895477-2.389002-1.251635-.515754-.356167-1.126273-.597231-1.348249-.553608z" fill="url(#n)"/><path d="m11.010159 51.827038c-1.1609403 2.203428 2.069721 2.50414 3.500717 3.008738 1.793777.415969 2.468206 1.944754 3.240527 3.177227 1.784176.416755 2.0953-1.298735 1.892279-2.768039-.182868.873947-.736202 1.497605-1.892279 1.227565-.772321-1.232473-1.44675-2.761256-3.240527-3.177226-.991726-.349703-2.836403-.613513-3.500717-1.468265zm18.6626.673958c-.199644.791678.03261 1.718898.165576 2.623619.204537-.802598-.0303-1.729819-.165576-2.623619zm5.392996 2.142221c-.503104 1.182143.210845 2.541171 1.490169 2.214431.316345-.08079.89455.04068 1.300943.264768.943475.520237 1.373751.520974 1.56113.02407.135806-.360135.07499-.798217-.141921-1.299773-.236279.237577-.664429.15142-1.419209-.26477-.406393-.224085-.984598-.345562-1.300943-.26477-.697855.178235-1.229131-.147868-1.490169-.673956zm11.188099.986865c-.631059 1.076602-1.962724 2.358682-2.365349 3.056878-.458521.786624-.523943 1.550697-.307495 2.238502.06812-.228908.170932-.463746.307495-.698029.646014-1.120262 3.68289-3.778609 2.365349-4.597351zm-29.614165 4.98247c-.228774.0161-.449329.08265-.662297.21663 1.366329 1.698624 4.69046 2.177641 4.825311 4.934329.02267-.311753.02455-.634726-.02366-.962796.200948-1.979571-1.062572-2.900683-2.412656-3.730835-.592535-.247263-1.183054-.495609-1.726704-.457328zm-4.281281 3.562345c-.734423 1.323221.07369 1.594417.993446 2.33478 1.29048 1.038775 3.152933-.979056 3.382449-.794306-.303699-.516729-.566538-.841339-.827872-1.107215-.716371.459897-1.73099 1.023998-2.554577.361048-.384745-.309702-.750265-.540703-.993446-.794307zm38.744411 1.299776c-1.048545.08621-2.1596.230179-3.003992.02407-.614189.191236-1.165609.562566-1.608438 1.275704-.542819 2.583304-.795948 5.16271-2.767458 7.076552-1.177463 2.363279.325443 8.06506-3.335141 7.918997-1.885424-1.194343-2.798847-4.2643-5.605876-3.056877-2.443239.822778-3.911731-2.948052-6.410096-1.612683-2.997131 1.357078-3.120183 4.939942-3.358795 7.750507-.343449-.126407-.543237-.372046-.638643-.698026-.143956 1.042372-.144192 1.950374.638643 2.2385.238612-2.810565.361664-6.39343 3.358795-7.750507 2.498365-1.335371 3.966857 2.43546 6.410096 1.612682 2.807029-1.207423 3.720452 1.862535 5.605876 3.056879 3.660584.146062 2.157678-5.55572 3.335141-7.918998 1.97151-1.913843 2.224639-4.493249 2.767458-7.076551 1.821292-2.93304 5.498447-.316069 7.687383-1.492335-.07539-.69981-.430059-1.071299-.946139-1.251634-.658687.08546-1.387994-.0019-2.128814-.09628zm-35.172734 4.140023c-.471104.216237-.732291.689053-.993447.04814-.241755.22346-.251776.660054-.141922 1.107215.313551 1.276284.581129.639516 1.135369.385118.777194-.356736.452844-.437499 0-1.540473zm2.814765 3.514204c-.08491.450122-.111776.916171-.0473 1.396056.312271 1.172308 1.239286 2.40888 1.584782 3.586415.585704-1.543906-1.030962-3.324108-1.537475-4.982471zm28.076688.04814c-.264041.05188.187049.57097 1.277289 1.516404.916532.794818 1.895209 1.73383 2.17612 2.070013.717907.859144 1.532865.670459 1.632091-.36105.04228-.439534.02601-.647216-.260189-.866516-.318203.360713-.867124.291177-1.371902-.312909-.117046-.140075-.405249-.426743-.709604-.722097-.548635-.274662-1.076983-.550247-1.395556-.770236-.515754-.356167-1.126273-.597232-1.348249-.553609zm-24.031943 4.452932c-.824321.03844-1.762006.554271-2.389002 1.299775.0033.700986-.305816 1.372091-1.229981 1.973732-1.423111 1.299445-.507491 2.469336.614991.649887.728651-2.311982 4.589396-3.778396 4.801657-.409188.07562-.573335.119191-1.110215 0-1.540474-.09286-1.474028-.875922-2.016712-1.797665-1.973732z" fill="#241c1c" opacity=".3"/><path d="m29.932204 59.360811c-2.383462.470507-4.487792 1.772168-6.619172 2.885472-.983.722618-.997843 2.082408-.936029 3.19473-.104621 1.108615-.485347 2.229151-.122701 3.333945.281621.828396-.145624 1.5274-.572215 2.112246-.02592.948881 1.287022 1.357276 1.54189.331808.867482-1.370492 1.302081-2.982893 2.271462-4.293291.643903-1.082888 1.43165-2.368683 2.769542-2.569129 1.411375-.132077 2.767304.433719 4.048486.952762 1.048462.399621 1.673231-.515501 2.198635-1.196255.973117-.494071 1.946825.838829 2.886242.184487.747581-.47691 1.804513-.909346 2.078457-1.795192-.270951-1.060993-1.565477-.222156-2.302591-.361222-1.229193.0018-2.459884-.05035-3.687213-.08385-1.044326-.139129-1.460728-1.202374-1.959796-1.988996-.348242-.505837-.965093-.960092-1.594997-.707521z" fill="url(#o)" fill-rule="evenodd" opacity=".6"/></g><path d="m-9.1792829 40.924301a1.2430279 1.5298805 0 1 1 -2.4860561 0 1.2430279 1.5298805 0 1 1 2.4860561 0z" fill="#fefefe" transform="translate(34.996016 19.894076)"/><path d="m-9.1792829 40.924301a1.2430279 1.5298805 0 1 1 -2.4860561 0 1.2430279 1.5298805 0 1 1 2.4860561 0z" fill="#fefefe" transform="matrix(.62222227 0 0 .31111108 22.366003 37.1881)"/><path d="m-9.1792829 40.924301a1.2430279 1.5298805 0 1 1 -2.4860561 0 1.2430279 1.5298805 0 1 1 2.4860561 0z" fill="#fefefe" transform="matrix(.50256414 0 0 .20416665 22.398039 41.014394)"/><path d="m42.876333 61.6482c-5.571393 3.837953-14.92864 3.219582-14.92864 3.219582 5.384166-4.199176 3.287445-9.373198 6.137389-13.79229 1.441714 5.868136 4.181327 8.514548 8.791251 10.572708z" fill="#3465a4" fill-rule="evenodd" stroke="#729fcf"/><path d="m48.363936 47.423139c3.114686 4.646055 1.303267 9.76376-4.340268 13.651331-5.571318 3.837978-14.928565 3.219607-14.928565 3.219607 5.384166-4.199176 3.936389-10.984062 6.786339-15.403151 3.756357-5.824541 10.251057-4.796336 12.482494-1.467787z" fill="url(#l)" fill-rule="evenodd" stroke="#2e3436" stroke-width="1.6"/><rect fill="#c17d11" height="7.691964" ry="3.845982" stroke="#8f5902" stroke-dashoffset="1.96" stroke-linecap="round" stroke-width="1.40076" transform="matrix(.69084069 -.72300701 .75439359 .65642236 0 0)" width="45.91869" x="-6.145136" y="63.478382"/><rect fill="url(#m)" filter="url(#q)" height="4.350209" ry="2.175105" transform="matrix(-.69573391 .7182996 -.5377264 -.8431194 0 -3.245367)" width="26.006758" x="-55.721729" y="-73.271156"/><path d="m52.688246 36.727492-8.5 8.90625c-1.47196 1.540492-1.35737 3.913878.25 5.3125s4.09054 1.259242 5.5625-.28125l9.15625-9.5625c-1.59626 1.001366-3.77234.888932-5.25-.375-1.22383-1.046818-1.63053-2.59663-1.21875-4z" fill="url(#p)" stroke="#48453f" stroke-dashoffset="1.96" stroke-linecap="round" stroke-width="1.4"/><path d="m-1.9123507 50.772907a4.2071714 4.3027887 0 1 1 -8.4143433 0 4.2071714 4.3027887 0 1 1 8.4143433 0z" fill="url(#r)" opacity=".608911" transform="matrix(.64734342 .27808415 -.37715786 .87797401 62.218404 7.902986)"/><g fill="#fefefe"><path d="m-9.1792829 40.924301a1.2430279 1.5298805 0 1 1 -2.4860561 0 1.2430279 1.5298805 0 1 1 2.4860561 0z" transform="matrix(.80769231 0 0 .65625001 35.047503 32.19288)"/><path d="m-9.1792829 40.924301a1.2430279 1.5298805 0 1 1 -2.4860561 0 1.2430279 1.5298805 0 1 1 2.4860561 0z" opacity=".782178" transform="matrix(.24474823 .18647484 -.60604321 .79543173 65.790984 18.448432)"/><path d="m-9.1792829 40.924301a1.2430279 1.5298805 0 1 1 -2.4860561 0 1.2430279 1.5298805 0 1 1 2.4860561 0z" opacity=".851485" transform="matrix(.30468786 .27281849 -.75446515 1.1637413 72.441949 5.614165)"/><path d="m-9.1792829 40.924301a1.2430279 1.5298805 0 1 1 -2.4860561 0 1.2430279 1.5298805 0 1 1 2.4860561 0z" opacity=".782178" transform="matrix(.24474823 .18647484 -.60604321 .79543173 66.651542 19.978312)"/><path d="m-9.1792829 40.924301a1.2430279 1.5298805 0 1 1 -2.4860561 0 1.2430279 1.5298805 0 1 1 2.4860561 0z" transform="matrix(1.0449718 -.58247669 -1.9996078 2.1633585 141.72756 -51.045271)"/><path d="m-9.1792829 40.924301a1.2430279 1.5298805 0 1 1 -2.4860561 0 1.2430279 1.5298805 0 1 1 2.4860561 0z" transform="matrix(.65384616 0 0 .53125001 59.356423 18.280528)"/></g></svg>