<svg height="96" width="96" xmlns="http://www.w3.org/2000/svg" xmlns:xlink="http://www.w3.org/1999/xlink"><linearGradient id="a"><stop offset="0" stop-color="#f4a615"/><stop offset="1" stop-color="#f47d15"/></linearGradient><linearGradient id="b"><stop offset="0" stop-color="#fefefe"/><stop offset="1" stop-color="#fefefe" stop-opacity="0"/></linearGradient><linearGradient id="c" gradientUnits="userSpaceOnUse" x1="36.357143" x2="36.357143" xlink:href="#b" y1="6" y2="63.893143"/><filter id="d" color-interpolation-filters="sRGB" height="1.384" width="1.384" x="-.192" y="-.192"><feGaussianBlur stdDeviation="5.28"/></filter><radialGradient id="e" cx="48" cy="90.171875" gradientTransform="matrix(1.1573129 0 0 .99590774 -7.551021 .197132)" gradientUnits="userSpaceOnUse" r="42" xlink:href="#b"/><clipPath id="f"><rect height="84" rx="6" width="84" x="6" y="6"/></clipPath><linearGradient id="g" gradientUnits="userSpaceOnUse" x1="48" x2="48" y1="90" y2="5.987717"><stop offset="0" stop-color="#502d16"/><stop offset="1" stop-color="#8a512c"/></linearGradient><linearGradient id="h" gradientTransform="matrix(1.0058652 0 0 .994169 100 0)" gradientUnits="userSpaceOnUse" x1="45.447727" x2="45.447727" y1="92.539597" y2="7.01654"><stop offset="0"/><stop offset="1" stop-opacity=".588235"/></linearGradient><linearGradient id="i" gradientTransform="matrix(1.0238095 0 0 1.0119048 -1.142857 -98.071429)" gradientUnits="userSpaceOnUse" x1="32.251034" x2="32.251034" xlink:href="#h" y1="6.131708" y2="90.238609"/><linearGradient id="j" gradientTransform="translate(0 -97)" gradientUnits="userSpaceOnUse" x1="32.251034" x2="32.251034" xlink:href="#h" y1="6.131708" y2="90.238609"/><linearGradient id="k" gradientUnits="userSpaceOnUse" x1="16" x2="80" y1="48" y2="48"><stop offset="0" stop-color="#190e07"/><stop offset="1" stop-color="#311e12"/></linearGradient><linearGradient id="l" gradientTransform="matrix(1 0 0 .71875 0 13.5)" gradientUnits="userSpaceOnUse" x1="32" x2="32" y1="80" y2="15.501938"><stop offset="0"/><stop offset="1" stop-color="#311e12"/></linearGradient><linearGradient id="m" gradientUnits="userSpaceOnUse" x1="48" x2="48" y1="-10" y2="-94.012283"><stop offset="0" stop-color="#502d16"/><stop offset="1" stop-color="#9b5b31"/></linearGradient><linearGradient id="n" gradientUnits="userSpaceOnUse" spreadMethod="reflect" x1="47.997025" x2="90" xlink:href="#a" y1="15.5" y2="15.5"/><linearGradient id="o" gradientUnits="userSpaceOnUse" spreadMethod="reflect" x1="47.973225" x2="90" xlink:href="#a" y1="70.5" y2="70.5"/><linearGradient id="p" gradientUnits="userSpaceOnUse" spreadMethod="reflect" x1="47.973225" x2="90" xlink:href="#a" y1="25.5" y2="25.5"/><linearGradient id="q" gradientTransform="matrix(1 0 0 -1 0 96)" gradientUnits="userSpaceOnUse" spreadMethod="reflect" x1="47.997025" x2="90" xlink:href="#a" y1="15.5" y2="15.5"/><linearGradient id="r" gradientUnits="userSpaceOnUse" x1="48" x2="48" y1="41" y2="64.021729"><stop offset="0" stop-color="#f4a615"/><stop offset="1" stop-color="#f4a615" stop-opacity="0"/></linearGradient><linearGradient id="s" gradientUnits="userSpaceOnUse" spreadMethod="reflect" x1="48" x2="58" xlink:href="#a" y1="43" y2="43"/><linearGradient id="t" gradientUnits="userSpaceOnUse" x1="48" x2="48" xlink:href="#a" y1="31.772171" y2="67"/><g fill="url(#i)"><path d="m12-95.03125c-5.5110903 0-10.03125 4.52016-10.03125 10.03125v71c0 5.5110902 4.5201598 10.03125 10.03125 10.03125h72c5.51109 0 10.03125-4.5201597 10.03125-10.03125v-71c0-5.51109-4.52016-10.03125-10.03125-10.03125z" opacity=".08" transform="scale(1 -1)"/><path d="m12-94.03125c-4.971633 0-9.03125 4.059617-9.03125 9.03125v71c0 4.9716329 4.0596171 9.03125 9.03125 9.03125h72c4.971633 0 9.03125-4.059617 9.03125-9.03125v-71c0-4.971633-4.059617-9.03125-9.03125-9.03125z" opacity=".1" transform="scale(1 -1)"/><path d="m12-93c-4.4091333 0-8 3.590867-8 8v71c0 4.4091333 3.5908667 8 8 8h72c4.409133 0 8-3.5908667 8-8v-71c0-4.409133-3.590867-8-8-8z" opacity=".2" transform="scale(1 -1)"/><rect height="85" opacity=".3" rx="7" transform="scale(1 -1)" width="86" x="5" y="-92"/></g><rect fill="url(#j)" height="84" opacity=".45" rx="6" transform="scale(1 -1)" width="84" x="6" y="-91"/><g><rect fill="url(#g)" height="84" rx="6" width="84" x="6" y="6"/><path d="m6 25h84v46h-84z" fill="url(#l)"/><path d="m12 90c-3.324 0-6-2.676-6-6v-2-68-2c0-.334721.04135-.6507.09375-.96875.0487-.295596.09704-.596915.1875-.875.00988-.03038.020892-.0636.03125-.09375.098865-.287771.2348802-.547452.375-.8125.1445918-.273507.3156161-.535615.5-.78125s.3737765-.473472.59375-.6875c.439947-.428056.94291-.814526 1.5-1.09375.278545-.139612.5734731-.246947.875-.34375-.2562018.100222-.4867109.236272-.71875.375-.00741.0044-.023866-.0045-.03125 0-.031933.0193-.062293.04251-.09375.0625-.120395.0767-.2310226.163513-.34375.25-.1061728.0808-.2132809.161112-.3125.25-.1779299.161433-.3474596.345388-.5.53125-.1075789.130255-.2183939.265285-.3125.40625-.025089.03838-.038446.08587-.0625.125-.064763.103032-.1302275.204517-.1875.3125-.1010083.194706-.2056748.415701-.28125.625-.00796.02181-.023589.04055-.03125.0625-.0318251.09195-.0358045.186831-.0625.28125-.0303323.106618-.0703894.203031-.09375.3125-.0728786.341512-.125.698205-.125 1.0625v2 68 2c0 2.781848 2.2181517 5 5 5h2 68 2c2.781848 0 5-2.218152 5-5v-2-68-2c0-.364295-.05212-.720988-.125-1.0625-.04415-.206893-.08838-.397658-.15625-.59375-.0077-.02195-.0233-.04069-.03125-.0625-.06274-.173739-.138383-.367449-.21875-.53125-.04158-.0828-.07904-.169954-.125-.25-.0546-.09721-.126774-.18835-.1875-.28125-.09411-.140965-.204921-.275995-.3125-.40625-.143174-.17445-.303141-.346998-.46875-.5-.01117-.0102-.01998-.02115-.03125-.03125-.138386-.125556-.285091-.234436-.4375-.34375-.102571-.07315-.204318-.153364-.3125-.21875-.0074-.0045-.02384.0044-.03125 0-.232039-.138728-.462548-.274778-.71875-.375.301527.0968.596455.204138.875.34375.55709.279224 1.060053.665694 1.5 1.09375.219973.214028.409366.441865.59375.6875s.355408.507743.5.78125c.14012.265048.276135.524729.375.8125.01041.03078.02133.06274.03125.09375.09046.278085.1388.579404.1875.875.0524.31805.09375.634029.09375.96875v2 68 2c0 3.324-2.676 6-6 6z" fill="url(#e)" opacity=".15"/><path d="m6.96875 9v8 1h7v-1h-6v-7h12v.03125h1v11.96875h.03125.96875.03125 1 12 1v-8-1h-7v1h6v7h-12v-.03125h-1v-11.96875h-.03125-.96875-.03125-1-12zm18 0v8 1h7v-1h-6v-7h12v.03125h1v11.96875h.03125.96875.03125 1 12 1v-8-1h-7v1h6v7h-12v-.03125h-1v-11.96875h-.03125-.96875-.03125-1-12zm18 0v8 1h7v-1h-6v-7h12v.03125h1v11.96875h.03125.96875.03125 1 12 1v-8-1h-7v1h6v7h-12v-.03125h-1v-11.96875h-.03125-.96875-.03125-1-12zm18 0v8 1h7v-1h-6v-7h12v.03125h1v11.96875h.03125.96875.03125 1 12 1v-8-1h-7v1h6v7h-12v-.03125h-1v-11.96875h-.03125-.96875-.03125-1-12zm18 0v8 1h7v-1h-6v-7h9.6875c-.123207-.3502276-.285955-.6832998-.46875-1h-9.21875zm-67.96875 4v1h6v7h-11v1h11 1v-8-1z" fill="url(#n)"/><path d="m6 26v-1h84v1z" fill="url(#p)"/><path d="m6.96875 87v-8-1h7v1h-6v7h12v-.03125h1v-11.96875h.03125.96875.03125 1 12 1v8 1h-7v-1h6v-7h-12v.03125h-1v11.96875h-.03125-.96875-.03125-1-12zm18 0v-8-1h7v1h-6v7h12v-.03125h1v-11.96875h.03125.96875.03125 1 12 1v8 1h-7v-1h6v-7h-12v.03125h-1v11.96875h-.03125-.96875-.03125-1-12zm18 0v-8-1h7v1h-6v7h12v-.03125h1v-11.96875h.03125.96875.03125 1 12 1v8 1h-7v-1h6v-7h-12v.03125h-1v11.96875h-.03125-.96875-.03125-1-12zm18 0v-8-1h7v1h-6v7h12v-.03125h1v-11.96875h.03125.96875.03125 1 12 1v8 1h-7v-1h6v-7h-12v.03125h-1v11.96875h-.03125-.96875-.03125-1-12zm18 0v-8-1h7v1h-6v7h9.6875c-.123207.350228-.285955.6833-.46875 1h-9.21875zm-67.96875-4v-1h6v-7h-11v-1h11 1v8 1z" fill="url(#q)"/><path d="m6 70v1h84v-1z" fill="url(#o)"/><path d="m12 6c-3.324 0-6 2.676-6 6v2 68 2c0 .334721.04135.6507.09375.96875.0487.295596.09704.596915.1875.875.00988.03038.020892.0636.03125.09375.098865.287771.2348802.547452.375.8125.1445918.273507.3156161.535615.5.78125s.3737765.473472.59375.6875c.439947.428056.94291.814526 1.5 1.09375.278545.139612.5734731.246947.875.34375-.2562018-.100222-.4867109-.236272-.71875-.375-.00741-.0044-.023866.0045-.03125 0-.031933-.0193-.062293-.04251-.09375-.0625-.120395-.0767-.2310226-.163513-.34375-.25-.1061728-.0808-.2132809-.161112-.3125-.25-.1779299-.161433-.3474596-.345388-.5-.53125-.1075789-.130255-.2183939-.265285-.3125-.40625-.025089-.03838-.038446-.08587-.0625-.125-.064763-.103032-.1302275-.204517-.1875-.3125-.1010083-.194706-.2056748-.415701-.28125-.625-.00796-.02181-.023589-.04055-.03125-.0625-.0318251-.09195-.0358045-.186831-.0625-.28125-.0303323-.106618-.0703894-.203031-.09375-.3125-.0728786-.341512-.125-.698205-.125-1.0625v-2-68-2c0-2.781848 2.2181517-5 5-5h2 68 2c2.781848 0 5 2.218152 5 5v2 68 2c0 .364295-.05212.720988-.125 1.0625-.04415.206893-.08838.397658-.15625.59375-.0077.02195-.0233.04069-.03125.0625-.06274.173739-.138383.367449-.21875.53125-.04158.0828-.07904.169954-.125.25-.0546.09721-.126774.18835-.1875.28125-.09411.140965-.204921.275995-.3125.40625-.143174.17445-.303141.346998-.46875.5-.01117.0102-.01998.02115-.03125.03125-.138386.125556-.285091.234436-.4375.34375-.102571.07315-.204318.153364-.3125.21875-.0074.0045-.02384-.0044-.03125 0-.232039.138728-.462548.274778-.71875.375.301527-.0968.596455-.204138.875-.34375.55709-.279224 1.060053-.665694 1.5-1.09375.219973-.214028.409366-.441865.59375-.6875s.355408-.507743.5-.78125c.14012-.265048.276135-.524729.375-.8125.01041-.03078.02133-.06274.03125-.09375.09046-.278085.1388-.579404.1875-.875.0524-.31805.09375-.634029.09375-.96875v-2-68-2c0-3.324-2.676-6-6-6z" fill="url(#c)" opacity=".3"/></g><rect height="66" rx="12" style="opacity:.15;fill:#c87137;stroke:#fefefe;stroke-width:.5;stroke-linecap:round;clip-path:url(#f);filter:url(#d)" width="66" x="15" y="15"/><g><path d="m31.6875 30.8125c-1.341838.149004-2.068776 1.559615-1.875 2.805608.01949 2.272486-.03984 4.550573.03125 6.819392.245198 1.328555 1.644174 1.934829 2.877376 1.75.9809-.06804 1.871046-.105364.726395.965668-2.036645 2.978405-3.104141 6.6678-2.471282 10.264761.628677 5.267819 4.301702 9.908093 9.148362 11.98611 5.634108 2.699482 12.556215 2.246908 17.836433-1.067835 4.624895-2.707901 7.439021-8.007026 7.320216-13.336204.026568-3.227643-1.459348-6.232316-3.28125-8.8125 1.337952-.08341 3.054204.38597 3.90625-.96875.664699-1.103862.265807-2.463605.375-3.691183-.05071-1.725593.108533-3.475992-.09375-5.183817-.344522-1.215957-1.660856-1.685594-2.814876-1.53125-4.238065.02065-8.482007-.04142-12.716374.03125-1.328555.245198-1.934829 1.644174-1.75 2.877376.102649 1.409789-.41966 3.173567.946859 4.136199 4.173983 3.802766 6.4821 9.640182 5.995174 15.269871-.263544 3.275644-2.196931 6.793419-5.659522 7.458883-3.079039.69193-6.807651-.07258-8.492084-2.989598-2.422301-4.12718-1.686327-9.327486.126039-13.539457 1.099617-2.602601 2.861441-4.87397 4.958534-6.744524.707701-1.176061.295776-2.613169.40625-3.919201.246963-1.473066-1.130045-2.833167-2.599572-2.580799-4.300143 0-8.600285 0-12.900428 0z" opacity=".11"/><path d="m42 41v21h1v-21zm4 0v21h1v-21zm4 0v21h1v-21zm4 0v21h1v-21z" fill="url(#r)"/><path d="m38 42h20v2h-20z" fill="url(#s)"/><path d="m31.8125 32a1.0110418 1.0110418 0 0 0 -.8125 1v7a1.0110418 1.0110418 0 0 0 1 1h3a1.0110418 1.0110418 0 0 0 1-1c0-1.293505.151082-2.117454.34375-2.53125s.322402-.510447.75-.625c.464024-.124311 2.065149.02804 3.1875.09375-.900822.77508-1.932149 1.665989-3.03125 2.875-2.582055 2.840261-5.25 6.766275-5.25 11.1875 0 5.604033 2.625782 9.424561 5.84375 11.71875 3.196467 2.27886 6.901633 3.142827 9.46875 3.25.01727.000721.04534-.000651.0625 0 .220429.01744.436585.02702.6875.03125a1.0110418 1.0110418 0 0 0 .0625 0c.212096-.0053.406755-.01628.59375-.03125.01716-.000651.04523.000721.0625 0 2.567117-.107173 6.272283-.97114 9.46875-3.25 3.217968-2.294189 5.84375-6.114717 5.84375-11.71875 0-4.421225-2.667945-8.347239-5.25-11.1875-1.099101-1.209011-2.130428-2.09992-3.03125-2.875 1.122351-.06571 2.723476-.218061 3.1875-.09375.427598.114553.557332.211204.75.625s.34375 1.237745.34375 2.53125a1.0110418 1.0110418 0 0 0 1 1h3a1.0110418 1.0110418 0 0 0 1-1v-7a1.0110418 1.0110418 0 0 0 -1-1h-13a1.0110418 1.0110418 0 0 0 -1 1v3a1.0110418 1.0110418 0 0 0 .34375.78125c4.572924 3.872987 6.977003 10.348082 6.65625 15.71875-.160376 2.685334-.972925 5.06917-2.4375 6.75-1.447369 1.661084-3.521148 2.706703-6.46875 2.75-.03504.000515-.05846-.000231-.09375 0-.027281.000989-.120852-.000207-.09375 0-3.004097-.019651-5.097925-1.06917-6.5625-2.75s-2.277124-4.064666-2.4375-6.75c-.320753-5.370668 2.083326-11.845763 6.65625-15.71875a1.0110418 1.0110418 0 0 0 .34375-.78125v-3a1.0110418 1.0110418 0 0 0 -1-1h-13a1.0110418 1.0110418 0 0 0 -.1875 0z" opacity=".15"/><path d="m32 33v7h3c0-5.452199 2.250408-4.198262 8-4 0 0-10 7-10 15 0 10.59279 9.670425 13.789042 14.40625 13.96875.205365.01793.427245.02686.6875.03125.218151-.0055.416332-.01575.59375-.03125 4.735825-.179708 14.40625-3.37596 14.40625-13.96875 0-8-10-15-10-15 5.749592-.198262 8-1.452199 8 4h3v-7h-13v3c9.714827 8.227864 9.986247 26.91505-3 27-.02654-.0023-.06956.000185-.09375 0-12.986247-.08495-12.714827-18.772136-3-27v-3z" opacity=".3"/><path d="m80 48a32 32 0 1 1 -64 0 32 32 0 1 1 64 0z" fill="url(#k)" transform="matrix(0 -1.125 1.125 0 84 102)"/><g fill="#f49215"><path d="m138 14c-18.77768 0-34 15.222319-34 34s15.22232 34 34 34 34-15.222319 34-34-15.22232-34-34-34zm0 1c18.2254 0 33 14.774603 33 33s-14.7746 33-33 33-33-14.774603-33-33 14.7746-33 33-33z"/><path d="m134 16v1 6h1v-6h5v3h-2v1h3v-1-4h-1-5zm2 2v1 3 1h7v-1h-6v-3h2v-1z"/><path d="m144.24251 16.360925-.31377.9495-1.88259 5.697002.9495.313766 1.88259-5.697002 4.7475 1.56883-.94129 2.848501-1.899-.627532-.31377.9495 2.8485.941298.31377-.9495 1.25506-3.798002-.9495-.313766-4.7475-1.568829zm1.27147 2.526532-.31377.949501-.9413 2.848501-.31376.9495 6.6465 2.196362.31377-.949501-5.69701-1.882595.9413-2.848501 1.899.627532.31377-.949501z"/><path d="m153.69007 19.825156-.59114.806571-3.54682 4.839431.80657.591136 3.54682-4.839431 4.03286 2.95568-1.77341 2.419716-1.61314-1.182272-.59114.806572 2.41972 1.773408.59113-.806572 2.36455-3.226288-.80657-.591136-4.03286-2.95568-.80658-.591135zm.43087 2.795415-.59114.806572-1.77341 2.419716-.59113.806571 5.646 4.137953.59113-.806573-4.83943-3.546815 1.77341-2.419716 1.61315 1.182272.59113-.806572z"/><path d="m161.56158 25.98065-.80966.586896-4.85797 3.521382.5869.809662 4.85797-3.521382 2.93448 4.048308-2.42898 1.760691-1.17379-1.619323-.80967.586897 1.76069 2.428985.80967-.586897 3.23864-2.347589-.58689-.809661-2.93449-4.048308zm-.44552 2.793117-.80967.586897-2.42898 1.760691-.80966.586896 4.10827 5.667632.80967-.586898-3.52139-4.857969 2.42899-1.760691 1.17379 1.619323.80967-.586897z"/><path d="m167.20884 34.330916-.95131.308245-5.70784 1.849473.30824.951308 5.70785-1.849474 1.54122 4.756534-2.85392.924737-.61649-1.902614-.9513.308246.92473 2.85392.95131-.308245 3.80523-1.232983-.30825-.951306-1.54123-4.756535zm-1.28612 2.519105-.95131.308245-2.85392.924737-.95131.308244 2.15772 6.659149.95131-.308247-1.84948-5.70784 2.85392-.924737.61649 1.902614.95131-.308246z"/><path d="m170.01013 44.081884-1-.0026-5.99998-.01535-.003.999998 5.99998.01535-.0128 4.999983-2.99999-.0077.005-1.999994-.99999-.0026-.008 2.999989.99999.0026 3.99999.01023.003-.999996.0128-4.999984.003-.999996zm-2.00511 1.994877-1-.0026-2.99999-.0077-.99999-.0026-.0179 6.999978.99999.0026.0153-5.999979 2.99999.0077-.005 1.999995 1 .0026.008-2.999989z"/><path d="m169.6243 54.316912-.94874-.316037-5.69256-1.895991-.31604.948748 5.69256 1.89599-1.57999 4.743799-2.84627-.948019.63198-1.897525-.94875-.316038-.94802 2.84627.94875.316038 3.79504 1.263991.31604-.948746 1.57999-4.7438.31604-.948746zm-2.52951 1.265524-.94875-.316039-2.84627-.948019-.94875-.316037-2.21199 6.641319.94875.316038 1.89599-5.692558 2.84627.948019-.63198 1.897526.94875.316038.94802-2.84627z"/><path d="m166.11693 63.79361-.80436-.594131-4.82636-3.564597-.59413.804369 4.82635 3.564595-2.97049 4.02196-2.41316-1.782318 1.18818-1.608794-.80437-.594133-1.78231 2.41316.80436.594133 3.21757 2.376395.59414-.804367 2.97049-4.021961.59413-.804366zm-2.79698.420587-.80437-.594134-2.41316-1.782318-.80436-.594132-4.1587 5.630743.80437.594133 3.56459-4.826351 2.41316 1.782319-1.18818 1.608794.80436.594133 1.78232-2.413159z"/><path d="m159.80373 71.761255-.57946-.814999-3.47697-4.889858-.815.579463 3.47697 4.889855-4.07488 2.897476-1.73846-2.444943 1.62994-1.159003-.57946-.815001-2.44494 1.738464.57946.815 2.31798 3.259903.815-.579461 4.07488-2.897475.815-.579461zm-2.78894-.470961-.57946-.815001-1.73846-2.444943-.57946-.814999-5.70484 4.056463.57946.815 4.88986-3.476969 1.73846 2.444944-1.62994 1.159003.57946.815 2.44494-1.738462z"/><path d="m151.25843 77.397518-.29484-.955544-1.76931-5.7332-.95555.294847 1.76931 5.733196-4.77766 1.474425-.88463-2.866606 1.91106-.589785-.29485-.955546-2.8666.88463.29484.955545 1.17954 3.822132.95555-.294845 4.77766-1.474424.95555-.294845zm-2.50083-1.321296-.29485-.955546-.88463-2.866606-.29484-.955544-6.68873 2.06419.29484.955545 5.7332-1.769307.88463 2.866607-1.91107.589785.29485.955545 2.8666-.884628z"/><path d="m141.48882 80.05976.016-.999871.0958-5.999238-.99987-.016-.0958 5.999234-4.99937-.07979.0479-2.999618 1.99975.0319.016-.999872-2.99962-.0479-.016.999872-.0638 3.999492.99987.016 4.99937.07979.99987.016zm-1.96783-2.031661.016-.999873.0479-2.999617.016-.999871-6.99911-.11171-.016.999872 5.99924.09575-.0479 2.999619-1.99975-.0319-.016.999871 2.99962.0479z"/><path d="m131.4539 79.577661.32291-.946428 1.93723-5.67866-.94643-.322911-1.93723 5.678656-4.73221-1.614352.96863-2.839322 1.89289.645726.32291-.946429-2.83932-.968637-.32291.94643-1.29148 3.785774.94643.322911 4.73222 1.614353.94643.322909zm-1.24714-2.538626.32291-.946431.96863-2.83932.32291-.946429-6.6251-2.260098-.32291.94643 5.67866 1.937224-.96864 2.839323-1.89289-.645727-.32291.946429 2.83932.968636z"/><path d="m117.99622 75.997842.60014-.799892 3.60065-4.799517-.7999-.600142-3.60064 4.799512-3.9996-3.000537 1.80035-2.399743 1.59984 1.200203.60014-.799894-2.39974-1.800344-.60014.799894-2.40043 3.199679.7999.600142 3.99959 3.000539.7999.600139zm-.39962-2.800052.60014-.799896 1.80034-2.399741.60014-.799894-5.59943-4.200757-.60014.799895 4.79951 3.600645-1.80034 2.399745-1.59985-1.200204-.60014.799893 2.39974 1.800343z"/><path d="m110.10889 83.661371.81845-.574579 4.91054-3.447691-.57458-.818449-4.91054 3.447687-2.87308-4.092118 2.45529-1.723824 1.14924 1.636838.81845-.57458-1.72382-2.455287-.81845.574581-3.2737 2.298462.57459.818449 2.87307 4.09212.57458.818446zm.48762-2.786076.81845-.574582 2.45528-1.723824.81845-.57458-4.0223-5.72897-.81845.574582 3.44769 4.910541-2.45529 1.723827-1.14924-1.63684-.81845.57458 1.72382 2.455284z"/><path d="m108.58089 61.210448.95602-.293284 5.73608-1.759951-.29328-.956026-5.73608 1.759948-1.46663-4.780063 2.86805-.879951.58667 1.912021.95602-.293285-.87995-2.868046-.95602.293285-3.82406 1.173302.29329.956027 1.46663 4.780065.29328.956023zm1.32537-2.498674.95603-.293287 2.86804-.879951.95603-.293284-2.05328-6.692092-.95602.293286 1.75995 5.736075-2.86805.879953-.58666-1.912023-.95603.293285.87995 2.868043z"/><path d="m105.93974 51.484206.99987.01614 5.99922.09661.0161-.999871-5.99922-.09661.0805-4.999352 2.99961.04833-.0322 1.999741.99987.01614.0483-2.999611-.99987-.01614-3.99948-.06441-.0161.999872-.0805 4.999353-.0161.999867zm2.03194-1.967535.99987.01614 2.99961.04833.99987.01614.11272-6.999093-.99987-.01614-.0966 5.999221-2.99962-.04833.0322-1.999743-.99986-.01614-.0483 2.999608z"/><path d="m106.42903 41.421705.9461.323872 5.67668 1.943012.32388-.946103-5.67668-1.94301 1.61917-4.730567 2.83834.971529-.64766 1.892232.9461.323871.97153-2.838333-.9461-.323871-3.78446-1.295345-.32387.946104-1.61918 4.730568-.32387.946098zm2.5399-1.244554.9461.323872 2.83833.971529.9461.323871 2.26685-6.622792-.9461-.323873-1.94301 5.67668-2.83833-.97153.64765-1.892233-.9461-.323871-.97153 2.838329z"/><path d="m109.89513 32.184935.80391.594744 4.82364 3.568276.59474-.803918-4.82363-3.568273 2.97356-4.019691 2.41181 1.784157-1.18942 1.607886.80392.594743 1.78416-2.411802-.80392-.594742-3.21575-2.378854-.59475.803918-2.97356 4.019693-.59474.803913zm2.7973-.418449.80392.594744 2.4118 1.784157.80391.594742 4.16299-5.627564-.80391-.594746-3.56828 4.82363-2.4118-1.784159 1.18941-1.607887-.80391-.594742-1.78416 2.411797z"/><path d="m116.25743 24.182768.57736.816485 3.46439 4.898778.81649-.577368-3.46439-4.898775 4.08232-2.886989 1.73217 2.449403-1.63292 1.154808.57737.816485 2.4494-1.732175-.57736-.816484-2.30959-3.265855-.81649.577369-4.08232 2.886989-.81648.577365zm2.78772.47813.57737.816487 1.73217 2.449402.57736.816483 5.71525-4.041779-.57737-.816488-4.89877 3.464389-1.73218-2.449405 1.63292-1.154809-.57737-.816484-2.4494 1.732171z"/><path d="m124.44042 18.740169.30464.952466 1.82809 5.714729.95246-.304645-1.82808-5.714726 4.76227-1.523402.91402 2.857372-1.9049.609375.30464.952467 2.85737-.91402-.30464-.952465-1.21872-3.809821-.95247.304645-4.76227 1.523403-.95247.304642zm2.51427 1.295548.30464.952468.91402 2.85737.30464.952464 6.66719-2.132756-.30465-.95247-5.71472 1.828086-.91402-2.857375 1.9049-.609375-.30464-.952465-2.85737.914016z"/><path d="m138 24c-13.25483 0-24 10.745166-24 24s10.74517 24 24 24 24-10.745166 24-24-10.74517-24-24-24zm0 1c12.70255 0 23 10.297451 23 23s-10.29745 23-23 23-23-10.297451-23-23 10.29745-23 23-23z"/><path d="m92.96875-9v-11.96875h-1v-.03125h-12v7h6v1h-7v-1-8h1 12 1 .03125.96875.03125v11.96875h1v.03125h12v-7h-6v-1h7v1 8h-1-12-1-.03125-.96875z"/></g><rect fill="url(#m)" height="84" rx="6" width="84" x="6" y="-94"/><path d="m32 32v7h3c0-5.452199 2.250408-4.198262 8-4 0 0-10 7-10 15 0 10.59279 9.670425 13.789042 14.40625 13.96875.205365.01794.427245.02686.6875.03125.218151-.0055.416332-.01575.59375-.03125 4.735825-.179708 14.40625-3.37596 14.40625-13.96875 0-8-10-15-10-15 5.749592-.198262 8-1.452199 8 4h3v-7h-13v3c9.714827 8.227864 9.986247 26.91505-3 27-.02654-.0023-.06956.000185-.09375 0-12.986247-.08495-12.714827-18.772136-3-27v-3z" fill="url(#t)"/><path d="m32 32v1h13v-1zm19.09375 0v1h13v-1zm-9.3125 3.9375c-2.630331 2.123564-8.78125 7.75506-8.78125 14.0625 0 .192352.02496.374999.03125.5625.351831-7.816187 9.96875-14.5625 9.96875-14.5625-.438047-.0151-.820773-.03857-1.21875-.0625zm12.53125 0c-.397977.02393-.780703.0474-1.21875.0625 0 0 9.616919 6.746313 9.96875 14.5625.0063-.187501.03125-.370148.03125-.5625 0-6.30744-6.150919-11.938936-8.78125-14.0625zm-16.34375 15.03125c-.18733 6.400234 2.94694 11.984908 10.03125 12.03125.02419.000185.06721-.0023.09375 0 7.08431-.046342 10.21858-5.631016 10.03125-12.03125-.153993 5.971928-3.317673 10.987333-10.03125 11.03125-.026541-.002345-.069564.000185-.09375 0-6.713577-.043917-9.877257-5.059322-10.03125-11.03125z" fill="#fefefe" opacity=".3"/><path d="m42 41h1v1h-1z" fill="#ffda45"/><path d="m46 41h1v1h-1z" fill="#ffda45"/><path d="m50 41h1v1h-1z" fill="#ffda45"/><path d="m54 41h1v1h-1z" fill="#ffda45"/></g></svg>