<svg height="96" width="96" xmlns="http://www.w3.org/2000/svg" xmlns:xlink="http://www.w3.org/1999/xlink"><linearGradient id="a"><stop offset="0" stop-color="#fefefe"/><stop offset="1" stop-color="#fefefe" stop-opacity="0"/></linearGradient><linearGradient id="b" gradientTransform="matrix(1.0058652 0 0 .994169 100 0)" gradientUnits="userSpaceOnUse" x1="45.447727" x2="45.447727" y1="92.539597" y2="7.01654"><stop offset="0"/><stop offset="1" stop-opacity=".588235"/></linearGradient><linearGradient id="c" gradientTransform="matrix(1.0238095 0 0 1.0119048 -1.142857 -98.071429)" gradientUnits="userSpaceOnUse" x1="32.251034" x2="32.251034" xlink:href="#b" y1="6.131708" y2="90.238609"/><linearGradient id="d" gradientTransform="translate(0 -97)" gradientUnits="userSpaceOnUse" x1="32.251034" x2="32.251034" xlink:href="#b" y1="6.131708" y2="90.238609"/><radialGradient id="e" cx="48" cy="90.171875" gradientTransform="matrix(1.1573129 0 0 .99590774 -7.551021 .197132)" gradientUnits="userSpaceOnUse" r="42" xlink:href="#a"/><linearGradient id="f" gradientUnits="userSpaceOnUse" x1="36.357143" x2="36.357143" xlink:href="#a" y1="6" y2="63.893143"/><linearGradient id="g" gradientUnits="userSpaceOnUse" x1="48" x2="48" y1="90" y2="5.987717"><stop offset="0" stop-color="#242424"/><stop offset="1" stop-color="#606060"/></linearGradient><radialGradient id="h" cx="-35.837696" cy=".2093" gradientTransform="matrix(1.6189702 0 0 .97247343 22.182465 .005761)" gradientUnits="userSpaceOnUse" r="25.694275"><stop offset="0" stop-color="#b40d0d"/><stop offset="1" stop-color="#b40d0d" stop-opacity="0"/></radialGradient><linearGradient id="i" gradientUnits="userSpaceOnUse" x1="27.70524" x2="67.577194" y1="74.866241" y2="19.004808"><stop offset="0" stop-color="#be0000"/><stop offset="1" stop-color="#ffa1a1"/></linearGradient><g fill="url(#c)"><path d="m12-95.03125c-5.5110903 0-10.03125 4.52016-10.03125 10.03125v71c0 5.5110902 4.5201598 10.03125 10.03125 10.03125h72c5.51109 0 10.03125-4.5201597 10.03125-10.03125v-71c0-5.51109-4.52016-10.03125-10.03125-10.03125z" opacity=".08" transform="scale(1 -1)"/><path d="m12-94.03125c-4.971633 0-9.03125 4.059617-9.03125 9.03125v71c0 4.9716329 4.0596171 9.03125 9.03125 9.03125h72c4.971633 0 9.03125-4.059617 9.03125-9.03125v-71c0-4.971633-4.059617-9.03125-9.03125-9.03125z" opacity=".1" transform="scale(1 -1)"/><path d="m12-93c-4.4091333 0-8 3.590867-8 8v71c0 4.4091333 3.5908667 8 8 8h72c4.409133 0 8-3.5908667 8-8v-71c0-4.409133-3.590867-8-8-8z" opacity=".2" transform="scale(1 -1)"/><rect height="85" opacity=".3" rx="7" transform="scale(1 -1)" width="86" x="5" y="-92"/></g><rect fill="url(#d)" height="84" opacity=".45" rx="6" transform="scale(1 -1)" width="84" x="6" y="-91"/><rect fill="url(#g)" height="84" rx="6" width="84" x="6" y="6"/><path d="m12 6c-3.324 0-6 2.676-6 6v2 68 2c0 .334721.04135.6507.09375.96875.0487.295596.09704.596915.1875.875.00988.03038.020892.0636.03125.09375.098865.287771.2348802.547452.375.8125.1445918.273507.3156161.535615.5.78125s.3737765.473472.59375.6875c.439947.428056.94291.814526 1.5 1.09375.278545.139612.5734731.246947.875.34375-.2562018-.100222-.4867109-.236272-.71875-.375-.00741-.0044-.023866.0045-.03125 0-.031933-.0193-.062293-.04251-.09375-.0625-.120395-.0767-.2310226-.163513-.34375-.25-.1061728-.0808-.2132809-.161112-.3125-.25-.1779299-.161433-.3474596-.345388-.5-.53125-.1075789-.130255-.2183939-.265285-.3125-.40625-.025089-.03838-.038446-.08587-.0625-.125-.064763-.103032-.1302275-.204517-.1875-.3125-.1010083-.194706-.2056748-.415701-.28125-.625-.00796-.02181-.023589-.04055-.03125-.0625-.0318251-.09195-.0358045-.186831-.0625-.28125-.0303323-.106618-.0703894-.203031-.09375-.3125-.0728786-.341512-.125-.698205-.125-1.0625v-2-68-2c0-2.781848 2.2181517-5 5-5h2 68 2c2.781848 0 5 2.218152 5 5v2 68 2c0 .364295-.05212.720988-.125 1.0625-.04415.206893-.08838.397658-.15625.59375-.0077.02195-.0233.04069-.03125.0625-.06274.173739-.138383.367449-.21875.53125-.04158.0828-.07904.169954-.125.25-.0546.09721-.126774.18835-.1875.28125-.09411.140965-.204921.275995-.3125.40625-.143174.17445-.303141.346998-.46875.5-.01117.0102-.01998.02115-.03125.03125-.138386.125556-.285091.234436-.4375.34375-.102571.07315-.204318.153364-.3125.21875-.0074.0045-.02384-.0044-.03125 0-.232039.138728-.462548.274778-.71875.375.301527-.0968.596455-.204138.875-.34375.55709-.279224 1.060053-.665694 1.5-1.09375.219973-.214028.409366-.441865.59375-.6875s.355408-.507743.5-.78125c.14012-.265048.276135-.524729.375-.8125.01041-.03078.02133-.06274.03125-.09375.09046-.278085.1388-.579404.1875-.875.0524-.31805.09375-.634029.09375-.96875v-2-68-2c0-3.324-2.676-6-6-6z" fill="url(#f)" opacity=".35"/><path d="m12 90c-3.324 0-6-2.676-6-6v-2-68-2c0-.334721.04135-.6507.09375-.96875.0487-.295596.09704-.596915.1875-.875.00988-.03038.020892-.0636.03125-.09375.098865-.287771.2348802-.547452.375-.8125.1445918-.273507.3156161-.535615.5-.78125s.3737765-.473472.59375-.6875c.439947-.428056.94291-.814526 1.5-1.09375.278545-.139612.5734731-.246947.875-.34375-.2562018.100222-.4867109.236272-.71875.375-.00741.0044-.023866-.0045-.03125 0-.031933.0193-.062293.04251-.09375.0625-.120395.0767-.2310226.163513-.34375.25-.1061728.0808-.2132809.161112-.3125.25-.1779299.161433-.3474596.345388-.5.53125-.1075789.130255-.2183939.265285-.3125.40625-.025089.03838-.038446.08587-.0625.125-.064763.103032-.1302275.204517-.1875.3125-.1010083.194706-.2056748.415701-.28125.625-.00796.02181-.023589.04055-.03125.0625-.0318251.09195-.0358045.186831-.0625.28125-.0303323.106618-.0703894.203031-.09375.3125-.0728786.341512-.125.698205-.125 1.0625v2 68 2c0 2.781848 2.2181517 5 5 5h2 68 2c2.781848 0 5-2.218152 5-5v-2-68-2c0-.364295-.05212-.720988-.125-1.0625-.04415-.206893-.08838-.397658-.15625-.59375-.0077-.02195-.0233-.04069-.03125-.0625-.06274-.173739-.138383-.367449-.21875-.53125-.04158-.0828-.07904-.169954-.125-.25-.0546-.09721-.126774-.18835-.1875-.28125-.09411-.140965-.204921-.275995-.3125-.40625-.143174-.17445-.303141-.346998-.46875-.5-.01117-.0102-.01998-.02115-.03125-.03125-.138386-.125556-.285091-.234436-.4375-.34375-.102571-.07315-.204318-.153364-.3125-.21875-.0074-.0045-.02384.0044-.03125 0-.232039-.138728-.462548-.274778-.71875-.375.301527.0968.596455.204138.875.34375.55709.279224 1.060053.665694 1.5 1.09375.219973.214028.409366.441865.59375.6875s.355408.507743.5.78125c.14012.265048.276135.524729.375.8125.01041.03078.02133.06274.03125.09375.09046.278085.1388.579404.1875.875.0524.31805.09375.634029.09375.96875v2 68 2c0 3.324-2.676 6-6 6z" fill="url(#e)" opacity=".2"/><g fill="url(#h)" transform="matrix(1.5600114 0 0 1.5600114 103.90722 47.67349)"><path d="m42.5 23.9375c-6.428063.154466-12.646264 2.65394-16.96875 6.375 0 0-16.0676973 14.731576-2.0625 34.28125 0 0 4.730739 7.618698 16.53125 7.21875 0 0 15.89242.878506 19.59375-14.1875 0 0 2.733223-21.230702-17.09375-24.4375 0 0-13.442283-1.44329-15.09375 13.78125 0 0-2.132712 13.788643 12.5 14.75 0 0 10.627763-.092471 10.15625-10.1875 0 0 .340742-10.330146-8.15625-10.25 0 0-6.78125-.953291-6.78125 6.65625 0 0-.470292 6.421556 4.5625 6.34375 0 0 2.671414.235708 2.75-2.96875 0 0-.24619-3.634552-3-2.03125-.872276-2.896005 1.99474-2.755754 3.46875-1.90625.548282.219318 3.32938 3.217726.3125 7.375 0 0-4.25106 4.013047-8.34375-1.03125 0 0-4.546645-5.457557.25-12.03125 11.613489-10.359645 26.769265 9.501778 12.28125 20.03125-20.358476 11.034858-29.298217-17.810081-15.84375-27.3125 0 0 9.291132-7.378641 19.28125-.96875 0 0 7.164397 3.273822 10.3125 14.65625 0 0 3.455004-10.509368 3.53125-10.75-5.33491-9.946787-13.922847-13.60485-22.1875-13.40625zm30.9375 15.53125c-.151848.016704-.29417.087458-.4375.21875 0 0-.531562.560251.375 1.84375 0 0 3.329726 5.133737 3.84375 6.9375.510514 1.799083 1.149609 6.185146-2.15625 8.75 0 0-4.975694 3.843957-8.59375-3.25-1.397856-5.62664-.565341-6.636909-1.21875-12.0625-4.360179 17.593494-1.306552 20.867099-13.0625 29.40625 8.593792-.77641 17.85169-1.301307 24.4375-7.5 3.035818-3.644941 4.170267-8.130399 5.78125-12.40625.991317-2.631141 1.803847-5.088213 4.34375-7.15625l1.21875-1.0625s.621582-1.103392-1.03125-.78125c0 0-1.056999.170565-2.40625 2.0625-.329843.462508-1.867817 2.894825-2.59375 3.625 0 0-1.496586 1.250525-2.9375.15625-2.446611-2.650478-2.561981-7.190746-5.0625-8.6875-.183819-.092492-.348152-.110454-.5-.09375zm-54.9375 21.1875c-.627803 2.063135-1.282778 3.122848-2.1875 4.6875-1.563648 2.700848-8.40625 4.25-8.40625 4.25s2.318775.829088 5.375 1.46875c3.056225.639586 16.8125 1 16.8125 1-6.836313-2.17686-7.528728-5.716498-11.59375-11.40625z" fill="none" opacity=".03" stroke="#fefefe" stroke-width="4" transform="matrix(.64102096 0 0 .64102096 -66.606706 -30.559706)"/><path d="m42.5 23.9375c-6.428063.154466-12.646264 2.65394-16.96875 6.375 0 0-16.0676973 14.731576-2.0625 34.28125 0 0 4.730739 7.618698 16.53125 7.21875 0 0 15.89242.878506 19.59375-14.1875 0 0 2.733223-21.230702-17.09375-24.4375 0 0-13.442283-1.44329-15.09375 13.78125 0 0-2.132712 13.788643 12.5 14.75 0 0 10.627763-.092471 10.15625-10.1875 0 0 .340742-10.330146-8.15625-10.25 0 0-6.78125-.953291-6.78125 6.65625 0 0-.470292 6.421556 4.5625 6.34375 0 0 2.671414.235708 2.75-2.96875 0 0-.24619-3.634552-3-2.03125-.872276-2.896005 1.99474-2.755754 3.46875-1.90625.548282.219318 3.32938 3.217726.3125 7.375 0 0-4.25106 4.013047-8.34375-1.03125 0 0-4.546645-5.457557.25-12.03125 11.613489-10.359645 26.769265 9.501778 12.28125 20.03125-20.358476 11.034858-29.298217-17.810081-15.84375-27.3125 0 0 9.291132-7.378641 19.28125-.96875 0 0 7.164397 3.273822 10.3125 14.65625 0 0 3.455004-10.509368 3.53125-10.75-5.33491-9.946787-13.922847-13.60485-22.1875-13.40625zm30.9375 15.53125c-.151848.016704-.29417.087458-.4375.21875 0 0-.531562.560251.375 1.84375 0 0 3.329726 5.133737 3.84375 6.9375.510514 1.799083 1.149609 6.185146-2.15625 8.75 0 0-4.975694 3.843957-8.59375-3.25-1.397856-5.62664-.565341-6.636909-1.21875-12.0625-4.360179 17.593494-1.306552 20.867099-13.0625 29.40625 8.593792-.77641 17.85169-1.301307 24.4375-7.5 3.035818-3.644941 4.170267-8.130399 5.78125-12.40625.991317-2.631141 1.803847-5.088213 4.34375-7.15625l1.21875-1.0625s.621582-1.103392-1.03125-.78125c0 0-1.056999.170565-2.40625 2.0625-.329843.462508-1.867817 2.894825-2.59375 3.625 0 0-1.496586 1.250525-2.9375.15625-2.446611-2.650478-2.561981-7.190746-5.0625-8.6875-.183819-.092492-.348152-.110454-.5-.09375zm-54.9375 21.1875c-.627803 2.063135-1.282778 3.122848-2.1875 4.6875-1.563648 2.700848-8.40625 4.25-8.40625 4.25s2.318775.829088 5.375 1.46875c3.056225.639586 16.8125 1 16.8125 1-6.836313-2.17686-7.528728-5.716498-11.59375-11.40625z" fill="none" opacity=".05" stroke="#fefefe" stroke-width="2" transform="matrix(.64102096 0 0 .64102096 -66.606706 -30.559706)"/><path d="m42.5 23.9375c-6.428063.154466-12.646264 2.65394-16.96875 6.375 0 0-16.0676973 14.731576-2.0625 34.28125 0 0 4.730739 7.618698 16.53125 7.21875 0 0 15.89242.878506 19.59375-14.1875 0 0 2.733223-21.230702-17.09375-24.4375 0 0-13.442283-1.44329-15.09375 13.78125 0 0-2.132712 13.788643 12.5 14.75 0 0 10.627763-.092471 10.15625-10.1875 0 0 .340742-10.330146-8.15625-10.25 0 0-6.78125-.953291-6.78125 6.65625 0 0-.470292 6.421556 4.5625 6.34375 0 0 2.671414.235708 2.75-2.96875 0 0-.24619-3.634552-3-2.03125-.872276-2.896005 1.99474-2.755754 3.46875-1.90625.548282.219318 3.32938 3.217726.3125 7.375 0 0-4.25106 4.013047-8.34375-1.03125 0 0-4.546645-5.457557.25-12.03125 11.613489-10.359645 26.769265 9.501778 12.28125 20.03125-20.358476 11.034858-29.298217-17.810081-15.84375-27.3125 0 0 9.291132-7.378641 19.28125-.96875 0 0 7.164397 3.273822 10.3125 14.65625 0 0 3.455004-10.509368 3.53125-10.75-5.33491-9.946787-13.922847-13.60485-22.1875-13.40625zm30.9375 15.53125c-.151848.016704-.29417.087458-.4375.21875 0 0-.531562.560251.375 1.84375 0 0 3.329726 5.133737 3.84375 6.9375.510514 1.799083 1.149609 6.185146-2.15625 8.75 0 0-4.975694 3.843957-8.59375-3.25-1.397856-5.62664-.565341-6.636909-1.21875-12.0625-4.360179 17.593494-1.306552 20.867099-13.0625 29.40625 8.593792-.77641 17.85169-1.301307 24.4375-7.5 3.035818-3.644941 4.170267-8.130399 5.78125-12.40625.991317-2.631141 1.803847-5.088213 4.34375-7.15625l1.21875-1.0625s.621582-1.103392-1.03125-.78125c0 0-1.056999.170565-2.40625 2.0625-.329843.462508-1.867817 2.894825-2.59375 3.625 0 0-1.496586 1.250525-2.9375.15625-2.446611-2.650478-2.561981-7.190746-5.0625-8.6875-.183819-.092492-.348152-.110454-.5-.09375zm-54.9375 21.1875c-.627803 2.063135-1.282778 3.122848-2.1875 4.6875-1.563648 2.700848-8.40625 4.25-8.40625 4.25s2.318775.829088 5.375 1.46875c3.056225.639586 16.8125 1 16.8125 1-6.836313-2.17686-7.528728-5.716498-11.59375-11.40625z" fill="url(#i)" transform="matrix(.64102096 0 0 .64102096 -66.606706 -30.559706)"/></g></svg>