<svg height="96" width="96" xmlns="http://www.w3.org/2000/svg" xmlns:xlink="http://www.w3.org/1999/xlink"><linearGradient id="a"><stop offset="0" stop-color="#fefefe"/><stop offset="1" stop-color="#fefefe" stop-opacity="0"/></linearGradient><linearGradient id="b"><stop offset="0" stop-color="#fefefe"/><stop offset="1" stop-color="#b9b9b9"/></linearGradient><linearGradient id="c"><stop offset="0" stop-color="#fefefe"/><stop offset=".60000002" stop-color="#fefefe" stop-opacity=".470588"/><stop offset="1" stop-color="#fefefe" stop-opacity="0"/></linearGradient><linearGradient id="d"><stop offset="0" stop-color="#5c88bc"/><stop offset=".7881012" stop-color="#5c88bc"/><stop offset="1" stop-color="#416da4"/></linearGradient><linearGradient id="e" gradientUnits="userSpaceOnUse" x1="36.357143" x2="36.357143" xlink:href="#a" y1="6" y2="63.893143"/><filter id="f" color-interpolation-filters="sRGB" height="1.384" width="1.384" x="-.192" y="-.192"><feGaussianBlur stdDeviation="5.28"/></filter><linearGradient id="g" gradientUnits="userSpaceOnUse" x1="48" x2="48" xlink:href="#a" y1="20.220806" y2="138.66119"/><radialGradient id="h" cx="48" cy="90.171875" gradientTransform="matrix(1.1573129 0 0 .99590774 -7.551021 .197132)" gradientUnits="userSpaceOnUse" r="42" xlink:href="#a"/><clipPath id="i"><rect height="84" rx="6" width="84" x="6" y="6"/></clipPath><radialGradient id="j" cx="48" cy="48" gradientTransform="matrix(.00000007 -1.9166668 2 .00000008 -48.000004 140.00001)" gradientUnits="userSpaceOnUse" r="21"><stop offset="0" stop-color="#ef2929"/><stop offset=".80064064" stop-color="#ef2929"/><stop offset="1" stop-color="#df1616"/></radialGradient><radialGradient id="k" cx="48" cy="67.25" gradientTransform="matrix(1 0 0 1.0434782 0 -22.173913)" gradientUnits="userSpaceOnUse" r="40.25"><stop offset="0" stop-color="#75c624"/><stop offset=".78260219" stop-color="#75c624"/><stop offset="1" stop-color="#60a914"/></radialGradient><radialGradient id="l" cx="48" cy="48" gradientTransform="matrix(2 0 0 1.9166667 -48 -44)" gradientUnits="userSpaceOnUse" r="21"><stop offset="0" stop-color="#f8e076"/><stop offset=".79928142" stop-color="#f8e076"/><stop offset="1" stop-color="#f3db44"/></radialGradient><radialGradient id="m" cx="37.645935" cy="48" gradientTransform="matrix(0 1 -1 0 96 10)" gradientUnits="userSpaceOnUse" r="42" xlink:href="#d"/><radialGradient id="n" cx="48" cy="48" gradientTransform="matrix(0 1 -1 0 96 110)" gradientUnits="userSpaceOnUse" r="42" xlink:href="#d"/><radialGradient id="o" cx="48.000004" cy="48.000004" gradientTransform="matrix(.70857089 .70857087 -.69993618 .6999362 47.585537 -19.60834)" gradientUnits="userSpaceOnUse" r="52.679459" xlink:href="#c"/><radialGradient id="p" cx="48.000004" cy="48.000004" gradientTransform="matrix(-.70857087 .70857089 -.6999362 -.69993618 115.60834 47.585537)" gradientUnits="userSpaceOnUse" r="52.679459" xlink:href="#c"/><filter id="q" color-interpolation-filters="sRGB"><feGaussianBlur stdDeviation="1.4950258"/></filter><radialGradient id="r" cx="46.467018" cy="48.017754" gradientUnits="userSpaceOnUse" r="37.375645" xlink:href="#b"/><linearGradient id="s" gradientTransform="matrix(0 1 -1 0 186 0)" gradientUnits="userSpaceOnUse" x1="15" x2="81" y1="48" y2="48"><stop offset="0" stop-color="#fefefe"/><stop offset="1" stop-color="#bebebe"/></linearGradient><linearGradient id="t" gradientTransform="matrix(0 -1 -1 0 96 96)" gradientUnits="userSpaceOnUse" x1="23.25" x2="72.75" y1="77.171875" y2="77.171875"><stop offset="0" stop-color="#ff8080"/><stop offset="1" stop-color="#a00"/></linearGradient><linearGradient id="u" gradientTransform="matrix(0 -1 1 0 0 96)" gradientUnits="userSpaceOnUse" x1="23.25" x2="72.75" y1="77.171875" y2="77.171875"><stop offset="0" stop-color="#fff6d5"/><stop offset="1" stop-color="#f1b31e"/></linearGradient><linearGradient id="v" gradientUnits="userSpaceOnUse" x1="9.091373" x2="83.842667" xlink:href="#a" y1="48.017754" y2="48.017754"/><radialGradient id="w" cx="25.872829" cy="48.017754" gradientTransform="matrix(1 0 0 1.1951431 0 -9.370334)" gradientUnits="userSpaceOnUse" r="37.375645" xlink:href="#b"/><linearGradient id="x" gradientTransform="matrix(1.0058652 0 0 .994169 100 0)" gradientUnits="userSpaceOnUse" x1="45.447727" x2="45.447727" y1="92.539597" y2="7.01654"><stop offset="0"/><stop offset="1" stop-opacity=".588235"/></linearGradient><linearGradient id="y" gradientTransform="matrix(1.0238095 0 0 1.0119048 -1.142857 -98.071429)" gradientUnits="userSpaceOnUse" x1="32.251034" x2="32.251034" xlink:href="#x" y1="6.131708" y2="90.238609"/><linearGradient id="z" gradientTransform="translate(0 -97)" gradientUnits="userSpaceOnUse" x1="32.251034" x2="32.251034" xlink:href="#x" y1="6.131708" y2="90.238609"/><g><g fill="url(#y)"><path d="m12-95.03125c-5.5110903 0-10.03125 4.52016-10.03125 10.03125v71c0 5.5110902 4.5201598 10.03125 10.03125 10.03125h72c5.51109 0 10.03125-4.5201597 10.03125-10.03125v-71c0-5.51109-4.52016-10.03125-10.03125-10.03125z" opacity=".08" transform="scale(1 -1)"/><path d="m12-94.03125c-4.971633 0-9.03125 4.059617-9.03125 9.03125v71c0 4.9716329 4.0596171 9.03125 9.03125 9.03125h72c4.971633 0 9.03125-4.059617 9.03125-9.03125v-71c0-4.971633-4.059617-9.03125-9.03125-9.03125z" opacity=".1" transform="scale(1 -1)"/><path d="m12-93c-4.4091333 0-8 3.590867-8 8v71c0 4.4091333 3.5908667 8 8 8h72c4.409133 0 8-3.5908667 8-8v-71c0-4.409133-3.590867-8-8-8z" opacity=".2" transform="scale(1 -1)"/><rect height="85" opacity=".3" rx="7" transform="scale(1 -1)" width="86" x="5" y="-92"/></g><rect fill="url(#z)" height="84" opacity=".45" rx="6" transform="scale(1 -1)" width="84" x="6" y="-91"/></g><rect fill="url(#m)" height="74" rx="6" width="84" x="6" y="16"/><path d="m48 83c8.957281 0 17.915825-3.415825 24.75-10.25l-1.40625-1.40625c-12.887301 12.887301-33.800198 12.887301-46.6875 0l-1.40625 1.40625c6.834175 6.834175 15.792719 10.25 24.75 10.25z" fill="#85a3c9"/><path d="m12 6c-1.662 0-3.1655.6655-4.25 1.75l40.25 40.25 40.25-40.25c-1.0845-1.0845-2.588-1.75-4.25-1.75z" fill="url(#k)"/><path d="m7.75 7.75c-1.0845 1.0845-1.75 2.588-1.75 4.25v72c0 1.662.6655 3.1655 1.75 4.25l40.25-40.25z" fill="url(#j)"/><path d="m88.25 7.75-40.25 40.25 40.25 40.25c1.0845-1.0845 1.75-2.588 1.75-4.25v-72c0-1.662-.6655-3.1655-1.75-4.25z" fill="url(#l)"/><path d="m12 6c-3.324 0-6 2.676-6 6v2 68 2c0 .334721.04135.6507.09375.96875.0487.295596.09704.596915.1875.875.00988.03038.020892.0636.03125.09375.098865.287771.2348802.547452.375.8125.1445918.273507.3156161.535615.5.78125s.3737765.473472.59375.6875c.439947.428056.94291.814526 1.5 1.09375.278545.139612.5734731.246947.875.34375-.2562018-.100222-.4867109-.236272-.71875-.375-.00741-.0044-.023866.0045-.03125 0-.031933-.0193-.062293-.04251-.09375-.0625-.120395-.0767-.2310226-.163513-.34375-.25-.1061728-.0808-.2132809-.161112-.3125-.25-.1779299-.161433-.3474596-.345388-.5-.53125-.1075789-.130255-.2183939-.265285-.3125-.40625-.025089-.03838-.038446-.08587-.0625-.125-.064763-.103032-.1302275-.204517-.1875-.3125-.1010083-.194706-.2056748-.415701-.28125-.625-.00796-.02181-.023589-.04055-.03125-.0625-.0318251-.09195-.0358045-.186831-.0625-.28125-.0303323-.106618-.0703894-.203031-.09375-.3125-.0728786-.341512-.125-.698205-.125-1.0625v-2-68-2c0-2.781848 2.2181517-5 5-5h2 68 2c2.781848 0 5 2.218152 5 5v2 68 2c0 .364295-.05212.720988-.125 1.0625-.04415.206893-.08838.397658-.15625.59375-.0077.02195-.0233.04069-.03125.0625-.06274.173739-.138383.367449-.21875.53125-.04158.0828-.07904.169954-.125.25-.0546.09721-.126774.18835-.1875.28125-.09411.140965-.204921.275995-.3125.40625-.143174.17445-.303141.346998-.46875.5-.01117.0102-.01998.02115-.03125.03125-.138386.125556-.285091.234436-.4375.34375-.102571.07315-.204318.153364-.3125.21875-.0074.0045-.02384-.0044-.03125 0-.232039.138728-.462548.274778-.71875.375.301527-.0968.596455-.204138.875-.34375.55709-.279224 1.060053-.665694 1.5-1.09375.219973-.214028.409366-.441865.59375-.6875s.355408-.507743.5-.78125c.14012-.265048.276135-.524729.375-.8125.01041-.03078.02133-.06274.03125-.09375.09046-.278085.1388-.579404.1875-.875.0524-.31805.09375-.634029.09375-.96875v-2-68-2c0-3.324-2.676-6-6-6z" fill="url(#e)" opacity=".5"/><path d="m12 90c-3.324 0-6-2.676-6-6v-2-68-2c0-.334721.04135-.6507.09375-.96875.0487-.295596.09704-.596915.1875-.875.00988-.03038.020892-.0636.03125-.09375.098865-.287771.2348802-.547452.375-.8125.1445918-.273507.3156161-.535615.5-.78125s.3737765-.473472.59375-.6875c.439947-.428056.94291-.814526 1.5-1.09375.278545-.139612.5734731-.246947.875-.34375-.2562018.100222-.4867109.236272-.71875.375-.00741.0044-.023866-.0045-.03125 0-.031933.0193-.062293.04251-.09375.0625-.120395.0767-.2310226.163513-.34375.25-.1061728.0808-.2132809.161112-.3125.25-.1779299.161433-.3474596.345388-.5.53125-.1075789.130255-.2183939.265285-.3125.40625-.025089.03838-.038446.08587-.0625.125-.064763.103032-.1302275.204517-.1875.3125-.1010083.194706-.2056748.415701-.28125.625-.00796.02181-.023589.04055-.03125.0625-.0318251.09195-.0358045.186831-.0625.28125-.0303323.106618-.0703894.203031-.09375.3125-.0728786.341512-.125.698205-.125 1.0625v2 68 2c0 2.781848 2.2181517 5 5 5h2 68 2c2.781848 0 5-2.218152 5-5v-2-68-2c0-.364295-.05212-.720988-.125-1.0625-.04415-.206893-.08838-.397658-.15625-.59375-.0077-.02195-.0233-.04069-.03125-.0625-.06274-.173739-.138383-.367449-.21875-.53125-.04158-.0828-.07904-.169954-.125-.25-.0546-.09721-.126774-.18835-.1875-.28125-.09411-.140965-.204921-.275995-.3125-.40625-.143174-.17445-.303141-.346998-.46875-.5-.01117-.0102-.01998-.02115-.03125-.03125-.138386-.125556-.285091-.234436-.4375-.34375-.102571-.07315-.204318-.153364-.3125-.21875-.0074-.0045-.02384.0044-.03125 0-.232039-.138728-.462548-.274778-.71875-.375.301527.0968.596455.204138.875.34375.55709.279224 1.060053.665694 1.5 1.09375.219973.214028.409366.441865.59375.6875s.355408.507743.5.78125c.14012.265048.276135.524729.375.8125.01041.03078.02133.06274.03125.09375.09046.278085.1388.579404.1875.875.0524.31805.09375.634029.09375.96875v2 68 2c0 3.324-2.676 6-6 6z" fill="url(#h)" opacity=".2"/><rect fill="url(#n)" height="84" rx="6" width="84" x="6" y="116"/><path d="m48 13c-8.957281 0-17.915825 3.415825-24.75 10.25l1.40625 1.40625c12.887301-12.887301 33.800198-12.887301 46.6875 0l1.40625-1.40625c-6.834175-6.834175-15.792719-10.25-24.75-10.25z" opacity=".3"/><path d="m13 48c0-8.957281 3.415825-17.915825 10.25-24.75l1.40625 1.40625c-12.887301 12.887301-12.887301 33.800198 0 46.6875l-1.40625 1.40625c-6.834175-6.834175-10.25-15.792719-10.25-24.75z" fill="url(#t)"/><path d="m83 48c0-8.957281-3.415825-17.915825-10.25-24.75l-1.40625 1.40625c12.887301 12.887301 12.887301 33.800198 0 46.6875l1.40625 1.40625c6.834175-6.834175 10.25-15.792719 10.25-24.75z" fill="url(#u)"/><path d="m8.96875 6.84375c-.2935922.1723886-.5851171.3442822-.84375.5625l80.46875 80.46875c.218218-.258633.390111-.550158.5625-.84375zm-1.5625 1.28125c-.2182178.2586329-.3901114.5501578-.5625.84375l80.1875 80.1875c.293592-.172389.585117-.344282.84375-.5625z" fill="url(#o)"/><path d="m8.125 7.40625c-.2587656.2183298-.5004202.4599844-.71875.71875l80.46875 80.46875c.258766-.21833.50042-.459984.71875-.71875z" opacity=".2"/><path d="m89.15625 8.96875c-.172389-.2935922-.344282-.5851171-.5625-.84375l-80.46875 80.46875c.258633.218218.550158.390111.84375.5625zm-1.28125-1.5625c-.258633-.2182178-.550158-.3901114-.84375-.5625l-80.1875 80.1875c.172389.293592.344282.585117.5625.84375z" fill="url(#p)"/><path d="m88.59375 8.125c-.21833-.2587656-.459984-.5004202-.71875-.71875l-80.46875 80.46875c.21833.258766.459984.50042.71875.71875z" opacity=".2"/><path d="m83.842663 48.017754a37.375645 37.375645 0 1 1 -74.7512896 0 37.375645 37.375645 0 1 1 74.7512896 0z" fill="url(#w)" transform="matrix(0 -.88292791 .88292791 0 5.603785 89.027027)"/><path d="m55.651947 69.791753c-.501244-.15425-.945358-.46148-1.390909-.9622-.627835-.70558-.70678-.74263-1.934568-.9079-1.540185-.20732-6.137787-.21788-7.69123-.0177-.614189.0792-1.245896.26084-1.403794.40374-.157897.14289-.386353.25981-.507682.25981-.121326 0-.614958.27161-1.096962.60358-1.33254.91775-2.261137.93384-4.386155.076-.901216-.36382-2.263489-.80669-3.027273-.98416-2.925676-.6798-5.727498-1.45736-5.966674-1.65586-.347878-.28871-.313838-.69175.178895-2.11816.397556-1.15088.418589-1.3508.293953-2.79412-.206561-2.39206-.16431-2.79735.336535-3.22816.350561-.30154.627054-.37184 1.462389-.37184 1.501101 0 1.963207-.21437 2.562848-1.18891.481138-.78195.500205-.87137.309201-1.45012-.291092-.88201-.08933-1.98551.560549-3.06587.940611-1.56366 1.39267-2.56933 2.089406-4.648187.856976-2.556962.825391-2.499507 2.590329-4.711943 1.778547-2.229496 2.534043-3.345614 2.684029-3.965197.06091-.251625.03121-1.724353-.066-3.272727-.285985-4.555082-.250082-6.733861.130561-7.923006.819136-2.559006 2.306539-3.863691 4.876671-4.277597 2.125627-.342323 4.946367.58391 6.495279 2.132823.880439.880437 1.664329 2.392617 1.908951 3.682502.08832.465693.243988 2.15901.345938 3.762926.159971 2.516719.246826 3.075395.634021 4.078192.726812 1.882379 2.520298 4.796069 4.024099 6.537541 1.212498 1.404131 1.465857 1.810895 2.02595 3.252652 1.117976 2.877831 1.350289 3.805771 1.44536 5.773281.05468 1.13162.0137 2.2155-.106966 2.8288-.189549.96347-.182644 1.00968.222912 1.49166.313912.37306.418522.68234.418522 1.23737 0 .40699.121171.99534.26927 1.30743.344374.72572 1.519678 1.90221 2.437791 2.44026.850267.49829 1.022737.90452.640597 1.50886-.419696.66373-.819743.94866-2.611295 1.85989-1.771141.90085-2.377212 1.326-4.009091 2.81234-1.780057 1.6213-3.041396 2.0184-4.745454 1.49398z" fill="#777" opacity=".568548"/><path d="m83.842663 48.017754a37.375645 37.375645 0 1 1 -74.7512896 0 37.375645 37.375645 0 1 1 74.7512896 0z" fill="url(#v)" transform="matrix(0 .35469557 .59778785 0 19.295571 14.517079)"/><path d="m83.842663 48.017754a37.375645 37.375645 0 1 1 -74.7512896 0 37.375645 37.375645 0 1 1 74.7512896 0z" filter="url(#q)" opacity=".6" transform="matrix(0 -.9020389 .9020389 0 94.686118 89.915058)"/><path d="m83.842663 48.017754a37.375645 37.375645 0 1 1 -74.7512896 0 37.375645 37.375645 0 1 1 74.7512896 0z" fill="url(#r)" transform="matrix(0 -.88292791 .88292791 0 95.603785 89.027027)"/><path d="m171 48c0-18.225397-14.7746-33-33-33s-33 14.774603-33 33 14.7746 33 33 33 33-14.774603 33-33zm-2 0c0 17.120827-13.87917 31-31 31s-31-13.879173-31-31 13.87917-31 31-31 31 13.879173 31 31z" fill="url(#s)"/><path d="m48 15c-18.225397 0-33 14.774603-33 33s14.774603 33 33 33 33-14.774603 33-33-14.774603-33-33-33zm0 4.125c15.998753 0 28.90625 12.876247 28.90625 28.875s-12.907497 28.875-28.90625 28.875-28.875-12.876247-28.875-28.875 12.876247-28.875 28.875-28.875z" opacity=".05"/><path d="m48 15c-18.225397 0-33 14.774603-33 33s14.774603 33 33 33 33-14.774603 33-33-14.774603-33-33-33zm0 2.96875c16.615377 0 30.03125 13.415873 30.03125 30.03125s-13.415873 30.03125-30.03125 30.03125-30-13.415873-30-30.03125 13.384623-30.03125 30-30.03125z" opacity=".08"/><path d="m48 15c-18.225397 0-33 14.774603-33 33s14.774603 33 33 33 33-14.774603 33-33-14.774603-33-33-33zm0 1.9375c17.182707 0 31.09375 13.879793 31.09375 31.0625s-13.911043 31.0625-31.09375 31.0625-31.0625-13.879793-31.0625-31.0625 13.879793-31.0625 31.0625-31.0625z" opacity=".15"/><path d="m48 15c-18.225397 0-33 14.774603-33 33s14.774603 33 33 33 33-14.774603 33-33-14.774603-33-33-33zm0 .96875c17.69724 0 32.03125 14.33401 32.03125 32.03125s-14.33401 32.03125-32.03125 32.03125-32.03125-14.33401-32.03125-32.03125 14.33401-32.03125 32.03125-32.03125z" opacity=".3"/><path d="m18.03125 47c-.011106.335506-.03125.661792-.03125 1 0 16.568542 13.431458 30 30 30s30-13.431458 30-30c0-.338208-.020144-.664494-.03125-1-.532949 16.100674-13.738416 29-29.96875 29s-29.435801-12.899326-29.96875-29z" fill="#fefefe" opacity=".6"/><rect height="66" rx="12" style="opacity:.1;stroke:#fefefe;stroke-width:.5;stroke-linecap:round;clip-path:url(#i);fill:url(#g);filter:url(#f)" width="66" x="15" y="15"/></svg>