<svg height="96" width="96" xmlns="http://www.w3.org/2000/svg" xmlns:xlink="http://www.w3.org/1999/xlink"><linearGradient id="a"><stop offset="0" stop-color="#fefefe"/><stop offset="1" stop-color="#fefefe" stop-opacity="0"/></linearGradient><linearGradient id="b" gradientUnits="userSpaceOnUse" x1="36.357143" x2="36.357143" xlink:href="#a" y1="6" y2="63.893143"/><filter id="c" color-interpolation-filters="sRGB" height="1.384" width="1.384" x="-.192" y="-.192"><feGaussianBlur stdDeviation="5.28"/></filter><radialGradient id="d" cx="48" cy="90.171875" gradientTransform="matrix(1.1573129 0 0 .99590774 -7.551021 .197132)" gradientUnits="userSpaceOnUse" r="42"><stop offset="0" stop-color="#245d31"/><stop offset="1" stop-color="#63a06c"/></radialGradient><clipPath id="e"><rect height="84" rx="6" width="84" x="6" y="6"/></clipPath><linearGradient id="f" gradientUnits="userSpaceOnUse" x1="48" x2="48" y1="90" y2="5.987717"><stop offset="0" stop-color="#409138"/><stop offset="1" stop-color="#66a530"/></linearGradient><linearGradient id="g" gradientTransform="matrix(1.0058652 0 0 .994169 100 0)" gradientUnits="userSpaceOnUse" x1="45.447727" x2="45.447727" y1="92.539597" y2="7.01654"><stop offset="0"/><stop offset="1" stop-opacity=".588235"/></linearGradient><linearGradient id="h" gradientTransform="matrix(1.0238095 0 0 1.0119048 -1.142857 -98.071429)" gradientUnits="userSpaceOnUse" x1="32.251034" x2="32.251034" xlink:href="#g" y1="6.131708" y2="90.238609"/><linearGradient id="i" gradientTransform="translate(0 -97)" gradientUnits="userSpaceOnUse" x1="32.251034" x2="32.251034" xlink:href="#g" y1="6.131708" y2="90.238609"/><linearGradient id="j" gradientUnits="userSpaceOnUse" x1="48" x2="48" xlink:href="#a" y1="20.220806" y2="138.66119"/><g><g fill="url(#h)"><path d="m12-95.03125c-5.5110903 0-10.03125 4.52016-10.03125 10.03125v71c0 5.5110902 4.5201598 10.03125 10.03125 10.03125h72c5.51109 0 10.03125-4.5201597 10.03125-10.03125v-71c0-5.51109-4.52016-10.03125-10.03125-10.03125z" opacity=".08" transform="scale(1 -1)"/><path d="m12-94.03125c-4.971633 0-9.03125 4.059617-9.03125 9.03125v71c0 4.9716329 4.0596171 9.03125 9.03125 9.03125h72c4.971633 0 9.03125-4.059617 9.03125-9.03125v-71c0-4.971633-4.059617-9.03125-9.03125-9.03125z" opacity=".1" transform="scale(1 -1)"/><path d="m12-93c-4.4091333 0-8 3.590867-8 8v71c0 4.4091333 3.5908667 8 8 8h72c4.409133 0 8-3.5908667 8-8v-71c0-4.409133-3.590867-8-8-8z" opacity=".2" transform="scale(1 -1)"/><rect height="85" opacity=".3" rx="7" transform="scale(1 -1)" width="86" x="5" y="-92"/></g><rect fill="url(#i)" height="84" opacity=".45" rx="6" transform="scale(1 -1)" width="84" x="6" y="-91"/></g><rect fill="url(#f)" height="84" rx="6" width="84" x="6" y="6"/><path d="m12 90c-3.324 0-6-2.676-6-6v-2-68-2c0-.334721.04135-.6507.09375-.96875.0487-.295596.09704-.596915.1875-.875.00988-.03038.020892-.0636.03125-.09375.098865-.287771.2348802-.547452.375-.8125.1445918-.273507.3156161-.535615.5-.78125s.3737765-.473472.59375-.6875c.439947-.428056.94291-.814526 1.5-1.09375.278545-.139612.5734731-.246947.875-.34375-.2562018.100222-.4867109.236272-.71875.375-.00741.0044-.023866-.0045-.03125 0-.031933.0193-.062293.04251-.09375.0625-.120395.0767-.2310226.163513-.34375.25-.1061728.0808-.2132809.161112-.3125.25-.1779299.161433-.3474596.345388-.5.53125-.1075789.130255-.2183939.265285-.3125.40625-.025089.03838-.038446.08587-.0625.125-.064763.103032-.1302275.204517-.1875.3125-.1010083.194706-.2056748.415701-.28125.625-.00796.02181-.023589.04055-.03125.0625-.0318251.09195-.0358045.186831-.0625.28125-.0303323.106618-.0703894.203031-.09375.3125-.0728786.341512-.125.698205-.125 1.0625v2 68 2c0 2.781848 2.2181517 5 5 5h2 68 2c2.781848 0 5-2.218152 5-5v-2-68-2c0-.364295-.05212-.720988-.125-1.0625-.04415-.206893-.08838-.397658-.15625-.59375-.0077-.02195-.0233-.04069-.03125-.0625-.06274-.173739-.138383-.367449-.21875-.53125-.04158-.0828-.07904-.169954-.125-.25-.0546-.09721-.126774-.18835-.1875-.28125-.09411-.140965-.204921-.275995-.3125-.40625-.143174-.17445-.303141-.346998-.46875-.5-.01117-.0102-.01998-.02115-.03125-.03125-.138386-.125556-.285091-.234436-.4375-.34375-.102571-.07315-.204318-.153364-.3125-.21875-.0074-.0045-.02384.0044-.03125 0-.232039-.138728-.462548-.274778-.71875-.375.301527.0968.596455.204138.875.34375.55709.279224 1.060053.665694 1.5 1.09375.219973.214028.409366.441865.59375.6875s.355408.507743.5.78125c.14012.265048.276135.524729.375.8125.01041.03078.02133.06274.03125.09375.09046.278085.1388.579404.1875.875.0524.31805.09375.634029.09375.96875v2 68 2c0 3.324-2.676 6-6 6z" fill="url(#d)" opacity=".2"/><path d="m12 6c-3.324 0-6 2.676-6 6v2 68 2c0 .334721.04135.6507.09375.96875.0487.295596.09704.596915.1875.875.00988.03038.020892.0636.03125.09375.098865.287771.2348802.547452.375.8125.1445918.273507.3156161.535615.5.78125s.3737765.473472.59375.6875c.439947.428056.94291.814526 1.5 1.09375.278545.139612.5734731.246947.875.34375-.2562018-.100222-.4867109-.236272-.71875-.375-.00741-.0044-.023866.0045-.03125 0-.031933-.0193-.062293-.04251-.09375-.0625-.120395-.0767-.2310226-.163513-.34375-.25-.1061728-.0808-.2132809-.161112-.3125-.25-.1779299-.161433-.3474596-.345388-.5-.53125-.1075789-.130255-.2183939-.265285-.3125-.40625-.025089-.03838-.038446-.08587-.0625-.125-.064763-.103032-.1302275-.204517-.1875-.3125-.1010083-.194706-.2056748-.415701-.28125-.625-.00796-.02181-.023589-.04055-.03125-.0625-.0318251-.09195-.0358045-.186831-.0625-.28125-.0303323-.106618-.0703894-.203031-.09375-.3125-.0728786-.341512-.125-.698205-.125-1.0625v-2-68-2c0-2.781848 2.2181517-5 5-5h2 68 2c2.781848 0 5 2.218152 5 5v2 68 2c0 .364295-.05212.720988-.125 1.0625-.04415.206893-.08838.397658-.15625.59375-.0077.02195-.0233.04069-.03125.0625-.06274.173739-.138383.367449-.21875.53125-.04158.0828-.07904.169954-.125.25-.0546.09721-.126774.18835-.1875.28125-.09411.140965-.204921.275995-.3125.40625-.143174.17445-.303141.346998-.46875.5-.01117.0102-.01998.02115-.03125.03125-.138386.125556-.285091.234436-.4375.34375-.102571.07315-.204318.153364-.3125.21875-.0074.0045-.02384-.0044-.03125 0-.232039.138728-.462548.274778-.71875.375.301527-.0968.596455-.204138.875-.34375.55709-.279224 1.060053-.665694 1.5-1.09375.219973-.214028.409366-.441865.59375-.6875s.355408-.507743.5-.78125c.14012-.265048.276135-.524729.375-.8125.01041-.03078.02133-.06274.03125-.09375.09046-.278085.1388-.579404.1875-.875.0524-.31805.09375-.634029.09375-.96875v-2-68-2c0-3.324-2.676-6-6-6z" fill="url(#b)" opacity=".35"/><rect height="66" rx="12" style="opacity:.1;stroke:#fefefe;stroke-width:.5;stroke-linecap:round;clip-path:url(#e);fill:url(#j);filter:url(#c)" width="66" x="15" y="15"/><path d="m47.469496 76.220706c-3.34689-.3597-5.41285-.9445-8.72269-2.46867-2.934623-1.35143-6.827233-4.62074-7.688553-5.48871-.8116-1.34493-2.69425-3.30388-2.03728-4.62933.2014-.326.6791-.2629 1.78224.2351 1.31921.5956 2.60718.6715 10.333943.6089 4.85479-.039 13.04177-.2571 18.19329-.4839 5.15151-.2268 9.45078-.3281 9.55392-.2249-.811 4.85616-5.49743 9.15257-9.62039 11.12271-3.07226 1.40288-6.99438 1.84477-11.79448 1.32883z" fill="#be6700" stroke-width=".383778"/><path d="m54.810532 77.550889c-2.42719-4.15287-5.28749-7.29657-7.7655-8.53491-2.07526-1.03707-2.52439-1.10767-8.61798-1.35468-6.96754-.28243-8.41909-.63417-10.10054-2.44754-2.26039-2.43773-2.10784-6.67058.43158-11.97559 3.21316-6.71247 10.59083-12.17853 17.74866-13.14985 3.52661-.47856 7.52863 2.56353 11.82704 8.99019 1.03687 1.55025 2.2461 3.78317 2.68718 4.96205 1.73824 4.64587 1.6684 11.00014-.18146 16.51077-.83567 2.48943-4.11095 9.48816-4.44028 9.48816-.0738 0-.78872-1.11987-1.5887-2.4886z" fill="#ffd100" stroke-width=".374695"/><path d="m58.689782 75.671053c-.0103-.11995.44725-1.525371 1.01675-2.781371 2.91834-6.43627 2.907158-13.78672.894918-19.16492-1.64754-4.40344-6.86377-10.9062-10.06753-12.55058l-1.86978-.95969 2.13908.20366c2.52494.2404 6.76305 1.62295 9.00796 2.93855 2.80682 1.64491 6.24918 5.38026 7.68693 8.34119 2.25784 4.64986 2.95463 8.98321 1.86413 11.59314-.33501.80178-1.11233 1.59716-2.22821 2.27998-3.20962 1.96399-4.103125 3.817842-7.871195 9.309032-.33286.48508-.562773.910949-.573053.791009z" fill="#ff9100" stroke-width=".356514"/><g transform="translate(1.72582 6.876367)"><path d="m65.716342 34.069624c-6.490177-2.313684-7.963069-11.383958-2.611589-16.08261 1.363437-1.197117 3.746789-2.181558 5.28161-2.181558 1.55006 0 3.924803.990258 5.326891 2.22129 1.991745 1.74875 3.12573 4.366596 3.12573 7.215796 0 4.163773-2.66265 8.004001-6.238067 8.996903-2.04187.567027-2.901451.537141-4.884575-.169821z" fill="#fefefe" stroke-width=".419634"/><path d="m65.716342 32.06962c-3.817751-1.360991-4.684158-6.696446-1.536228-9.460359.802021-.704187 2.203993-1.28327 3.106829-1.28327.9118 0 2.308708.582505 3.133465 1.306642 1.171615 1.028676 1.838665 2.568585 1.838665 4.244585 0 2.449279-1.566265 4.708236-3.669451 5.292296-1.2011.333546-1.706736.315966-2.87328-.09989z" stroke-width=".246844"/></g><g transform="matrix(-1 0 0 1 95.800607 6.58873)"><path d="m65.716342 34.069624c-6.490177-2.313684-7.963069-11.383958-2.611589-16.08261 1.363437-1.197117 3.746789-2.181558 5.28161-2.181558 1.55006 0 3.924803.990258 5.326891 2.22129 1.991745 1.74875 3.12573 4.366596 3.12573 7.215796 0 4.163773-2.66265 8.004001-6.238067 8.996903-2.04187.567027-2.901451.537141-4.884575-.169821z" fill="#fefefe" stroke-width=".419634"/><path d="m65.716342 32.06962c-3.817751-1.360991-4.684158-6.696446-1.536228-9.460359.802021-.704187 2.203993-1.28327 3.106829-1.28327.9118 0 2.308708.582505 3.133465 1.306642 1.171615 1.028676 1.838665 2.568585 1.838665 4.244585 0 2.449279-1.566265 4.708236-3.669451 5.292296-1.2011.333546-1.706736.315966-2.87328-.09989z" stroke-width=".246844"/></g></svg>