<svg enable-background="new" height="96" width="96" xmlns="http://www.w3.org/2000/svg" xmlns:xlink="http://www.w3.org/1999/xlink"><linearGradient id="a"><stop offset="0" stop-color="#f6f0ea"/><stop offset="1" stop-color="#f3eee3" stop-opacity="0"/></linearGradient><linearGradient id="b"><stop offset="0" stop-color="#f3eee3"/><stop offset="1" stop-color="#f3eee3" stop-opacity="0"/></linearGradient><linearGradient id="c"><stop offset="0" stop-color="#f9f9f9"/><stop offset="1" stop-opacity="0"/></linearGradient><linearGradient id="d"><stop offset="0" stop-color="#d80c0d"/><stop offset="1" stop-color="#9c090a"/></linearGradient><linearGradient id="e"><stop offset="0" stop-color="#fefefe"/><stop offset="1" stop-color="#fefefe" stop-opacity="0"/></linearGradient><linearGradient id="f" gradientUnits="userSpaceOnUse" x1="36.357143" x2="36.357143" xlink:href="#e" y1="6" y2="63.893143"/><filter id="g" color-interpolation-filters="sRGB" height="1.384" width="1.384" x="-.192" y="-.192"><feGaussianBlur stdDeviation="5.28"/></filter><linearGradient id="h" gradientUnits="userSpaceOnUse" x1="48" x2="48" xlink:href="#e" y1="20.220806" y2="138.66119"/><radialGradient id="i" cx="48" cy="90.171875" gradientTransform="matrix(1.1573129 0 0 .99590774 -7.652712 .197132)" gradientUnits="userSpaceOnUse" r="42" xlink:href="#e"/><clipPath id="j"><rect height="84" rx="6" width="84" x="6" y="6"/></clipPath><linearGradient id="k" gradientTransform="matrix(1.0058652 0 0 .994169 100 0)" gradientUnits="userSpaceOnUse" x1="45.447727" x2="45.447727" y1="92.539597" y2="7.01654"><stop offset="0"/><stop offset="1" stop-opacity=".588235"/></linearGradient><linearGradient id="l" gradientTransform="matrix(1.0238095 0 0 1.0119048 -1.142857 -98.071429)" gradientUnits="userSpaceOnUse" x1="32.251034" x2="32.251034" xlink:href="#k" y1="6.131708" y2="90.238609"/><linearGradient id="m" gradientTransform="translate(0 -97)" gradientUnits="userSpaceOnUse" x1="32.251034" x2="32.251034" xlink:href="#k" y1="6.131708" y2="90.238609"/><linearGradient id="n" gradientTransform="matrix(1 0 0 1.0358114 0 -3.222243)" gradientUnits="userSpaceOnUse" x1="19.322035" x2="19.932203" xlink:href="#d" y1="44.338982" y2="88.067795"/><linearGradient id="o" gradientTransform="matrix(1 0 0 1.0358114 26 -3.222243)" gradientUnits="userSpaceOnUse" x1="19.322035" x2="19.932203" xlink:href="#d" y1="44.338982" y2="88.067795"/><linearGradient id="p" gradientTransform="matrix(1 0 0 1.0358114 52 -3.222243)" gradientUnits="userSpaceOnUse" x1="19.322035" x2="19.932203" xlink:href="#d" y1="44.338982" y2="88.067795"/><linearGradient id="q" gradientTransform="matrix(1 0 0 1.0358114 13.016949 -3.222243)" gradientUnits="userSpaceOnUse" x1="18.602943" x2="19.465855" xlink:href="#c" y1="65.031624" y2="135.54039"/><linearGradient id="r" gradientTransform="matrix(1 0 0 1.0358114 39.016949 -3.222243)" gradientUnits="userSpaceOnUse" x1="18.602943" x2="19.465855" xlink:href="#c" y1="65.031624" y2="135.54039"/><linearGradient id="s" gradientTransform="matrix(1 0 0 1.0358114 -12.983051 -3.222243)" gradientUnits="userSpaceOnUse" x1="18.602943" x2="19.465855" xlink:href="#c" y1="65.031624" y2="135.54039"/><linearGradient id="t" gradientTransform="matrix(1 0 0 1.0358114 65.016949 -3.222243)" gradientUnits="userSpaceOnUse" x1="18.602943" x2="19.465855" xlink:href="#c" y1="65.031624" y2="135.54039"/><linearGradient id="u" gradientUnits="userSpaceOnUse" x1="43.1455" x2="44.008408" y1="11.434823" y2="50.26577"><stop offset="0" stop-color="#f1e0d1"/><stop offset="1" stop-color="#c29157"/></linearGradient><radialGradient id="v" cx="65.406616" cy="-1.087182" gradientTransform="matrix(.94490593 0 0 .4082029 5.100392 15.174052)" gradientUnits="userSpaceOnUse" r="38.762668" xlink:href="#b"/><radialGradient id="w" cx="5.718366" cy="21.262739" gradientTransform="matrix(-1.9659927 1.0372999 -.87371285 -1.6559465 68.228412 36.267912)" gradientUnits="userSpaceOnUse" r="4.761505" xlink:href="#a"/><radialGradient id="x" cx="65.406616" cy="-1.087182" gradientTransform="matrix(.40122047 -.50941741 .29595004 .23309218 -9.64331 47.082121)" gradientUnits="userSpaceOnUse" r="38.762668" xlink:href="#b"/><radialGradient id="y" cx="5.718366" cy="21.262739" gradientTransform="matrix(-2.5708959 .19033844 .00397862 -2.4443036 100.64452 60.593643)" gradientUnits="userSpaceOnUse" r="4.761505" xlink:href="#a"/><radialGradient id="z" cx="65.406616" cy="-1.087182" gradientTransform="matrix(.33752078 .45406382 -.19490279 .06207278 62.944121 4.686129)" gradientUnits="userSpaceOnUse" r="38.762668" xlink:href="#b"/><linearGradient id="A" gradientUnits="userSpaceOnUse" x1="23.442387" x2="21.716566" y1="24.522289" y2="30.275024"><stop offset="0"/><stop offset="1" stop-color="#570000"/></linearGradient><radialGradient id="B" cx="5.718366" cy="21.262739" gradientTransform="matrix(1.3549353 3.3266516 -3.0103034 1.1449849 63.972123 -20.009288)" gradientUnits="userSpaceOnUse" r="4.761505" xlink:href="#a"/><g transform="translate(-.610169)"><g fill="url(#l)"><path d="m12-95.03125c-5.5110903 0-10.03125 4.52016-10.03125 10.03125v71c0 5.5110902 4.5201598 10.03125 10.03125 10.03125h72c5.51109 0 10.03125-4.5201597 10.03125-10.03125v-71c0-5.51109-4.52016-10.03125-10.03125-10.03125z" opacity=".08" transform="scale(1 -1)"/><path d="m12-94.03125c-4.971633 0-9.03125 4.059617-9.03125 9.03125v71c0 4.9716329 4.0596171 9.03125 9.03125 9.03125h72c4.971633 0 9.03125-4.059617 9.03125-9.03125v-71c0-4.971633-4.059617-9.03125-9.03125-9.03125z" opacity=".1" transform="scale(1 -1)"/><path d="m12-93c-4.4091333 0-8 3.590867-8 8v71c0 4.4091333 3.5908667 8 8 8h72c4.409133 0 8-3.5908667 8-8v-71c0-4.409133-3.590867-8-8-8z" opacity=".2" transform="scale(1 -1)"/><rect height="85" opacity=".3" rx="7" transform="scale(1 -1)" width="86" x="5" y="-92"/></g><rect fill="url(#m)" height="84" opacity=".45" rx="6" transform="scale(1 -1)" width="84" x="6" y="-91"/></g><rect fill="#adb4c2" fill-rule="evenodd" height="84" rx="6" width="84" x="5.932203" y="5.898305"/><path d="m12 6c-3.324 0-6 2.676-6 6v2 68 2c0 .334721.04135.6507.09375.96875.0487.295596.09704.596915.1875.875.00988.03038.020892.0636.03125.09375.098865.287771.2348802.547452.375.8125.1445918.273507.3156161.535615.5.78125s.3737765.473472.59375.6875c.439947.428056.94291.814526 1.5 1.09375.278545.139612.5734731.246947.875.34375-.2562018-.100222-.4867109-.236272-.71875-.375-.00741-.0044-.023866.0045-.03125 0-.031933-.0193-.062293-.04251-.09375-.0625-.120395-.0767-.2310226-.163513-.34375-.25-.1061728-.0808-.2132809-.161112-.3125-.25-.1779299-.161433-.3474596-.345388-.5-.53125-.1075789-.130255-.2183939-.265285-.3125-.40625-.025089-.03838-.038446-.08587-.0625-.125-.064763-.103032-.1302275-.204517-.1875-.3125-.1010083-.194706-.2056748-.415701-.28125-.625-.00796-.02181-.023589-.04055-.03125-.0625-.0318251-.09195-.0358045-.186831-.0625-.28125-.0303323-.106618-.0703894-.203031-.09375-.3125-.0728786-.341512-.125-.698205-.125-1.0625v-2-68-2c0-2.781848 2.2181517-5 5-5h2 68 2c2.781848 0 5 2.218152 5 5v2 68 2c0 .364295-.05212.720988-.125 1.0625-.04415.206893-.08838.397658-.15625.59375-.0077.02195-.0233.04069-.03125.0625-.06274.173739-.138383.367449-.21875.53125-.04158.0828-.07904.169954-.125.25-.0546.09721-.126774.18835-.1875.28125-.09411.140965-.204921.275995-.3125.40625-.143174.17445-.303141.346998-.46875.5-.01117.0102-.01998.02115-.03125.03125-.138386.125556-.285091.234436-.4375.34375-.102571.07315-.204318.153364-.3125.21875-.0074.0045-.02384-.0044-.03125 0-.232039.138728-.462548.274778-.71875.375.301527-.0968.596455-.204138.875-.34375.55709-.279224 1.060053-.665694 1.5-1.09375.219973-.214028.409366-.441865.59375-.6875s.355408-.507743.5-.78125c.14012-.265048.276135-.524729.375-.8125.01041-.03078.02133-.06274.03125-.09375.09046-.278085.1388-.579404.1875-.875.0524-.31805.09375-.634029.09375-.96875v-2-68-2c0-3.324-2.676-6-6-6z" fill="url(#f)" opacity=".5"/><rect height="66" rx="12" style="opacity:.1;stroke:#fefefe;stroke-width:.5;stroke-linecap:round;clip-path:url(#j);fill:url(#h);filter:url(#g)" transform="translate(-.301237 -.461692)" width="66" x="15" y="15"/><rect fill="url(#u)" height="44.593777" rx="6" ry="3.18527" width="84" x="6" y="6"/><g fill-rule="evenodd"><path d="m18.544903 42.915259h1.554263c3.175164 0 5.731343 4.285286 5.731343 9.608263v37.454642h-13.016949v-37.454642c0-5.322977 2.556179-9.608263 5.731343-9.608263z" fill="url(#n)"/><path d="m44.544903 42.915259h1.554263c3.175164 0 5.731343 4.285286 5.731343 9.608263v37.454642h-13.016949v-37.454642c0-5.322977 2.556179-9.608263 5.731343-9.608263z" fill="url(#o)"/><path d="m70.544903 42.915259h1.554263c3.175164 0 5.731343 4.285286 5.731343 9.608263v37.454642h-13.016949v-37.454642c0-5.322977 2.556179-9.608263 5.731343-9.608263z" fill="url(#p)"/><path d="m31.561852 42.915259h1.554263c3.175164 0 5.731343 4.285286 5.731343 9.608263v37.454642h-13.016949v-37.454642c0-5.322977 2.556179-9.608263 5.731343-9.608263z" fill="url(#q)"/><path d="m57.561852 42.915259h1.554263c3.175164 0 5.731343 4.285286 5.731343 9.608263v37.454642h-13.016949v-37.454642c0-5.322977 2.556179-9.608263 5.731343-9.608263z" fill="url(#r)"/><path d="m77.830078 89.94922h6.06836c.831 0 1.621531-.16417 2.339843-.46094.718313-.29676 1.364-.72639 1.90625-1.25781s.980391-1.16322 1.283203-1.86719c.302813-.70397.470704-1.47856.470704-2.29297v-36.53906c-1.010548-2.715349-2.725609-4.615234-4.783204-4.615234h-1.552734c-3.175164 0-5.732422 4.284444-5.732422 9.607422z" fill="url(#t)"/><path d="m6 42.916016v40.943359c0 .829496.1678906 1.618925.4707031 2.335937.3028125.717013.7409532 1.361075 1.2832031 1.902344.54225.541269 1.1879376.978986 1.90625 1.28125.7183128.302265 1.5088438.46875 2.3398438.46875h.847656v-37.324218c0-5.322977-2.557258-9.607422-5.7324216-9.607422z" fill="url(#s)"/><path d="m19.322027 26.336097s-.07594-5.114215 3.651502-7.150901c4.679162-2.556705 8.14557.894424 13.260713-.733425 3.493604-1.111807 6.106807-3.997553 9.224844-5.867406 4.59096-2.7531506 10.368528-4.4115417 15.759109-3.8504854 6.49354.675853 9.971596 1.5338414 14.029451 6.4174754 1.351316 1.626312 3.538622 6.527671 4.996791 8.067683 2.322501 2.452856 6.087094-.172856 8.840475 1.833564 1.609917 1.173166 3.263995 4.493734 3.459317 6.417476.21574 2.124842-.684535 5.141845-2.114028 6.784187-1.237299 1.421533-4.420237 2.016921-4.420237 2.016921" fill="url(#v)"/><path d="m46.080921 18.581423c-4.87867-21.1642388-24.435374-8.334487-20.562738-4.086899" fill="url(#w)"/><path d="m4.4879621 45.788712s-3.74008589-2.879384-3.63397463-6.051908c.1332078-3.982558 4.10718693-3.880703 5.09894693-7.567911.677366-2.518335-.305217-5.574985-.336911-8.323705-.04667-4.047182 1.2042253-8.108957 3.8999123-10.694753 3.2472473-3.114867 5.3461263-4.5000277 10.6098203-3.8990427 1.752875.200137 6.235158 1.8196917 7.970835 1.9129437 2.764507.148524 2.459346-3.3803777 5.08314-3.7190737 1.534147-.198032 4.643927.80633 6.12159 1.799525 1.632132 1.0970177 3.437211 3.3051447 4.02094 5.0136227.505245 1.478777-.414614 3.53474-.414614 3.53474" fill="url(#x)" opacity=".92"/><path d="m87.590282 27.650082c6.476765-27.88548377-20.457268-22.9921938-18.800182-15.852045" fill="url(#y)"/><path d="m62.694606 13.217516s2.414736-.814175 4.718626.667298c2.892136 1.859736 4.986446 2.469013 7.590819 4.6795 1.778765 1.509746-.217835 5.708025 1.788718 6.922026 2.954427 1.787478 7.613983 2.511551 9.271617 5.18725 1.996796 3.223168 2.829501 5.024976 1.947202 7.717558-.29382.89666-1.85274 2.693066-2.067185 3.62795-.341568 1.48904 2.256846 2.8988 2.282404 4.526987.01491.952022-.979704 2.251808-1.828455 2.638201-.937479.42678-2.699571.45294-3.994349.01575-1.120695-.378411-2.54192-1.817394-2.54192-1.817394" fill="url(#z)" opacity=".416"/><path d="m29.11393 12.840273c-37.1460577 4.51634-19.38257 38.003714-11.316449 32.441665" fill="url(#B)"/><g transform="translate(2 -2)"><circle cx="23.389832" cy="26.034897" fill="url(#A)" opacity=".92" r="5.898305"/><circle cx="25.677967" cy="23.542374" fill="#f2f2f2" r="1.576271" stroke="#f2f2f2" stroke-linecap="round" stroke-opacity=".220779" stroke-width=".25"/></g><g transform="translate(46 -2)"><circle cx="23.389832" cy="26.034897" fill="url(#A)" opacity=".92" r="5.898305"/><circle cx="25.677967" cy="23.542374" fill="#f2f2f2" r="1.576271" stroke="#f2f2f2" stroke-linecap="round" stroke-opacity=".220779" stroke-width=".25"/></g><path d="m41.889237 29.445688h9.577472c2.652959 0 4.785568.587235 4.788736 2.915367.0032 2.328132-1.146815 8.734599-10.082602 8.440129-8.935786-.29447-8.930174-6.064596-9.072342-8.440129-.142169-2.375534 2.135776-2.915367 4.788736-2.915367z" fill="#a60002" stroke="#f2f2f2" stroke-linecap="round" stroke-opacity=".220779" stroke-width=".213672"/></g><path d="m11.898304 90c-3.3239996 0-5.9999996-2.676-5.9999996-6v-2-68-2c0-.334721.04135-.6507.09375-.96875.0487-.295596.09704-.596915.1875-.875.0099-.03038.02089-.0636.03125-.09375.09887-.287771.234881-.547452.375-.8125.144592-.273507.315616-.535615.5-.78125s.373777-.473472.59375-.6875c.439947-.428056.94291-.814526 1.5-1.09375.278545-.139612.573473-.246947.8749996-.34375-.2562006.100222-.4867106.236272-.7187496.375-.0074.0044-.02387-.0045-.03125 0-.03193.0193-.06229.04251-.09375.0625-.120395.0767-.231022.163513-.34375.25-.106172.0808-.213281.161112-.3125.25-.17793.161433-.347459.345388-.5.53125-.107579.130255-.218394.265285-.3125.40625-.02509.03838-.03845.08587-.0625.125-.06476.103032-.130227.204517-.1875.3125-.101008.194706-.205674.415701-.28125.625-.008.02181-.02359.04055-.03125.0625-.03183.09195-.0358.186831-.0625.28125-.03033.106618-.07039.203031-.09375.3125001-.07288.3415119-.125.6982049-.125 1.0624999v2 68 2c0 2.781848 2.218152 5 4.9999996 5h2 68.000001 2c2.781848 0 5-2.218152 5-5v-2-68-2c0-.364295-.05212-.720988-.125-1.0624999-.04415-.2068931-.08838-.3976581-.15625-.5937501-.0077-.02195-.0233-.04069-.03125-.0625-.06274-.173739-.138383-.367449-.21875-.53125-.04158-.0828-.07904-.169954-.125-.25-.0546-.09721-.126774-.18835-.1875-.28125-.09411-.140965-.204921-.275995-.3125-.40625-.143174-.17445-.303141-.346998-.46875-.5-.01117-.0102-.01998-.02115-.03125-.03125-.138386-.125556-.285091-.234436-.4375-.34375-.102571-.07315-.204318-.153364-.3125-.21875-.0074-.0045-.02384.0044-.03125 0-.232039-.138728-.462548-.274778-.71875-.375.301527.0968.596455.204138.875.34375.55709.279224 1.060053.665694 1.5 1.09375.219973.214028.409366.441865.59375.6875s.355408.507743.5.78125c.14012.265048.276135.524729.375.8125.01041.03078.02133.06274.03125.09375.09046.278085.1388.579404.1875.875.0524.31805.09375.634029.09375.96875v2 68 2c0 3.324-2.676 6-6 6z" fill="url(#i)" opacity=".2"/></svg>