<svg height="96" width="96" xmlns="http://www.w3.org/2000/svg" xmlns:xlink="http://www.w3.org/1999/xlink"><linearGradient id="a"><stop offset="0" stop-color="#fefefe"/><stop offset="1" stop-color="#fefefe" stop-opacity="0"/></linearGradient><linearGradient id="b" gradientUnits="userSpaceOnUse" x1="36.357143" x2="36.357143" xlink:href="#a" y1="6" y2="63.893143"/><filter id="c" color-interpolation-filters="sRGB" height="1.384" width="1.384" x="-.192" y="-.192"><feGaussianBlur stdDeviation="5.28"/></filter><linearGradient id="d" gradientUnits="userSpaceOnUse" x1="48" x2="48" xlink:href="#a" y1="20.220806" y2="138.66119"/><radialGradient id="e" cx="48" cy="90.171875" gradientTransform="matrix(1.1573129 0 0 .99590774 -7.551021 .197132)" gradientUnits="userSpaceOnUse" r="42" xlink:href="#a"/><clipPath id="f"><rect height="84" rx="6" width="84" x="6" y="6"/></clipPath><linearGradient id="g" gradientUnits="userSpaceOnUse" x1="48" x2="48" y1="90" y2="5.987717"><stop offset="0" stop-color="#70777f"/><stop offset="1" stop-color="#9aa3a8"/></linearGradient><linearGradient id="h" gradientTransform="matrix(1.0058652 0 0 .994169 100 0)" gradientUnits="userSpaceOnUse" x1="45.447727" x2="45.447727" y1="92.539597" y2="7.01654"><stop offset="0"/><stop offset="1" stop-opacity=".588235"/></linearGradient><linearGradient id="i" gradientTransform="matrix(1.0238095 0 0 1.0119048 -1.142857 -98.071429)" gradientUnits="userSpaceOnUse" x1="32.251034" x2="32.251034" xlink:href="#h" y1="6.131708" y2="90.238609"/><linearGradient id="j" gradientTransform="translate(0 -97)" gradientUnits="userSpaceOnUse" x1="32.251034" x2="32.251034" xlink:href="#h" y1="6.131708" y2="90.238609"/><linearGradient id="k" gradientTransform="matrix(1.0571 0 0 1 10.787767 10.136919)" gradientUnits="userSpaceOnUse" x1="35.103001" x2="35.103001" xlink:href="#a" y1="6.854" y2="34.886002"/><linearGradient id="l" gradientUnits="userSpaceOnUse" x1="62.000768" x2="62.000768" xlink:href="#a" y1="48.627119" y2="-5.921081"/><linearGradient id="m" gradientTransform="matrix(-.67083 0 0 -.70833 90.597767 93.960119)" gradientUnits="userSpaceOnUse" x1="48.799999" x2="59.751999" y1="16" y2="56.875"><stop offset="0"/><stop offset="1" stop-opacity="0"/></linearGradient><g fill="url(#i)"><path d="m12-95.03125c-5.5110903 0-10.03125 4.52016-10.03125 10.03125v71c0 5.5110902 4.5201598 10.03125 10.03125 10.03125h72c5.51109 0 10.03125-4.5201597 10.03125-10.03125v-71c0-5.51109-4.52016-10.03125-10.03125-10.03125z" opacity=".08" transform="scale(1 -1)"/><path d="m12-94.03125c-4.971633 0-9.03125 4.059617-9.03125 9.03125v71c0 4.9716329 4.0596171 9.03125 9.03125 9.03125h72c4.971633 0 9.03125-4.059617 9.03125-9.03125v-71c0-4.971633-4.059617-9.03125-9.03125-9.03125z" opacity=".1" transform="scale(1 -1)"/><path d="m12-93c-4.4091333 0-8 3.590867-8 8v71c0 4.4091333 3.5908667 8 8 8h72c4.409133 0 8-3.5908667 8-8v-71c0-4.409133-3.590867-8-8-8z" opacity=".2" transform="scale(1 -1)"/><rect height="85" opacity=".3" rx="7" transform="scale(1 -1)" width="86" x="5" y="-92"/></g><rect fill="url(#j)" height="84" opacity=".45" rx="6" transform="scale(1 -1)" width="84" x="6" y="-91"/><rect fill="url(#g)" height="84" rx="6" width="84" x="6" y="6"/><path d="m12 6c-3.324 0-6 2.676-6 6v2 68 2c0 .334721.04135.6507.09375.96875.0487.295596.09704.596915.1875.875.00988.03038.020892.0636.03125.09375.098865.287771.2348802.547452.375.8125.1445918.273507.3156161.535615.5.78125s.3737765.473472.59375.6875c.439947.428056.94291.814526 1.5 1.09375.278545.139612.5734731.246947.875.34375-.2562018-.100222-.4867109-.236272-.71875-.375-.00741-.0044-.023866.0045-.03125 0-.031933-.0193-.062293-.04251-.09375-.0625-.120395-.0767-.2310226-.163513-.34375-.25-.1061728-.0808-.2132809-.161112-.3125-.25-.1779299-.161433-.3474596-.345388-.5-.53125-.1075789-.130255-.2183939-.265285-.3125-.40625-.025089-.03838-.038446-.08587-.0625-.125-.064763-.103032-.1302275-.204517-.1875-.3125-.1010083-.194706-.2056748-.415701-.28125-.625-.00796-.02181-.023589-.04055-.03125-.0625-.0318251-.09195-.0358045-.186831-.0625-.28125-.0303323-.106618-.0703894-.203031-.09375-.3125-.0728786-.341512-.125-.698205-.125-1.0625v-2-68-2c0-2.781848 2.2181517-5 5-5h2 68 2c2.781848 0 5 2.218152 5 5v2 68 2c0 .364295-.05212.720988-.125 1.0625-.04415.206893-.08838.397658-.15625.59375-.0077.02195-.0233.04069-.03125.0625-.06274.173739-.138383.367449-.21875.53125-.04158.0828-.07904.169954-.125.25-.0546.09721-.126774.18835-.1875.28125-.09411.140965-.204921.275995-.3125.40625-.143174.17445-.303141.346998-.46875.5-.01117.0102-.01998.02115-.03125.03125-.138386.125556-.285091.234436-.4375.34375-.102571.07315-.204318.153364-.3125.21875-.0074.0045-.02384-.0044-.03125 0-.232039.138728-.462548.274778-.71875.375.301527-.0968.596455-.204138.875-.34375.55709-.279224 1.060053-.665694 1.5-1.09375.219973-.214028.409366-.441865.59375-.6875s.355408-.507743.5-.78125c.14012-.265048.276135-.524729.375-.8125.01041-.03078.02133-.06274.03125-.09375.09046-.278085.1388-.579404.1875-.875.0524-.31805.09375-.634029.09375-.96875v-2-68-2c0-3.324-2.676-6-6-6z" fill="url(#b)" opacity=".5"/><path d="m12 90c-3.324 0-6-2.676-6-6v-2-68-2c0-.334721.04135-.6507.09375-.96875.0487-.295596.09704-.596915.1875-.875.00988-.03038.020892-.0636.03125-.09375.098865-.287771.2348802-.547452.375-.8125.1445918-.273507.3156161-.535615.5-.78125s.3737765-.473472.59375-.6875c.439947-.428056.94291-.814526 1.5-1.09375.278545-.139612.5734731-.246947.875-.34375-.2562018.100222-.4867109.236272-.71875.375-.00741.0044-.023866-.0045-.03125 0-.031933.0193-.062293.04251-.09375.0625-.120395.0767-.2310226.163513-.34375.25-.1061728.0808-.2132809.161112-.3125.25-.1779299.161433-.3474596.345388-.5.53125-.1075789.130255-.2183939.265285-.3125.40625-.025089.03838-.038446.08587-.0625.125-.064763.103032-.1302275.204517-.1875.3125-.1010083.194706-.2056748.415701-.28125.625-.00796.02181-.023589.04055-.03125.0625-.0318251.09195-.0358045.186831-.0625.28125-.0303323.106618-.0703894.203031-.09375.3125-.0728786.341512-.125.698205-.125 1.0625v2 68 2c0 2.781848 2.2181517 5 5 5h2 68 2c2.781848 0 5-2.218152 5-5v-2-68-2c0-.364295-.05212-.720988-.125-1.0625-.04415-.206893-.08838-.397658-.15625-.59375-.0077-.02195-.0233-.04069-.03125-.0625-.06274-.173739-.138383-.367449-.21875-.53125-.04158-.0828-.07904-.169954-.125-.25-.0546-.09721-.126774-.18835-.1875-.28125-.09411-.140965-.204921-.275995-.3125-.40625-.143174-.17445-.303141-.346998-.46875-.5-.01117-.0102-.01998-.02115-.03125-.03125-.138386-.125556-.285091-.234436-.4375-.34375-.102571-.07315-.204318-.153364-.3125-.21875-.0074-.0045-.02384.0044-.03125 0-.232039-.138728-.462548-.274778-.71875-.375.301527.0968.596455.204138.875.34375.55709.279224 1.060053.665694 1.5 1.09375.219973.214028.409366.441865.59375.6875s.355408.507743.5.78125c.14012.265048.276135.524729.375.8125.01041.03078.02133.06274.03125.09375.09046.278085.1388.579404.1875.875.0524.31805.09375.634029.09375.96875v2 68 2c0 3.324-2.676 6-6 6z" fill="url(#e)" opacity=".2"/><rect height="66" rx="12" style="opacity:.1;stroke:#fefefe;stroke-width:.5;stroke-linecap:round;clip-path:url(#f);fill:url(#d);filter:url(#c)" width="66" x="15" y="15"/><path d="m47.661767 13.565119c-6.6157 0-13.2 1.2955-17.875 6.75-4.669 5.4475-7.1875 14.498-7.1875 29.312 0 14.815 2.5185 23.865 7.1875 29.312 4.675 5.4545 11.259 6.75 17.875 6.75 6.6157 0 13.2-1.2955 17.875-6.75 4.668-5.447 7.186-14.497 7.186-29.312s-2.518-23.865-7.187-29.312c-4.675-5.455-11.259-6.75-17.875-6.75z" opacity=".1"/><path d="m47.661767 14.689119c-6.4695 0-12.606 1.2482-17 6.375-4.3941 5.1268-6.9375 13.879-6.9375 28.562 0 14.684 2.5434 23.436 6.9375 28.562 4.3941 5.1268 10.53 6.375 17 6.375 6.4695 0 12.606-1.2482 17-6.375 4.394-5.125 6.938-13.877 6.938-28.561s-2.544-23.436-6.938-28.562c-4.394-5.127-10.53-6.376-17-6.376z" opacity=".2"/><path d="m70.661767 49.627119c0 29.143-10.304 34-23 34s-23-4.857-23-34 10.304-34 23-34 23 4.8571 23 34z" opacity=".4"/><path d="m70.66177 48.627119c0 29.143-10.304 34-23 34s-23.000003-4.857-23.000003-34 10.304003-34 23.000003-34 23 4.8571 23 34z" fill="#686f7a"/><path d="m47.661767 14.627119c-12.696 0-23 4.857-23 34s10.304 34 23 34 23-4.857 23-34-10.304-34-23-34zm0 1.4688c6.159 0 11.321 1.1246 15.125 5.5625 3.8037 4.4379 6.4062 12.572 6.4062 26.969s-2.6026 22.531-6.4062 26.969c-3.8037 4.4379-8.966 5.5625-15.125 5.5625s-11.321-1.1246-15.125-5.5625c-3.804-4.44-6.406-12.574-6.406-26.971s2.6026-22.531 6.4062-26.969c3.8037-4.4379 8.966-5.5625 15.125-5.5625z" fill="#505564" opacity=".87"/><path d="m47.664767 82.627119c12.696 0 22.997-4.857 22.997-34 0-11.839-1.7-19.666-4.57-24.792 2.0473 5.0512 3.2284 12.111 3.2284 21.958 0 29.143-10.301 34-22.997 34-7.5383 0-14.232-1.7169-18.427-9.2083 4.012 9.898 11.363 12.042 19.769 12.042z" fill="url(#m)" opacity=".2"/><path d="m45.800767 21.627119v21.6l-9.121-9.121-3.2672 3.3126 11.163 11.163-11.254 11.254 3.3126 3.2672 9.1664-9.1664v21.691l16.2-16.201-10.981-10.982 10.936-10.89zm4.2202 10.346 5.5815 5.6723-5.5815 5.5815zm0 21.555 5.5815 5.7176-5.5815 5.5815z" fill="url(#l)" fill-rule="evenodd"/><path d="m66.581767 34.669119a18.687 17.678 0 1 1 -37.374 0 18.687 17.678 0 1 1 37.374 0z" fill="url(#k)" opacity=".5"/><path d="m27.161767 47.627119c-.003.33658 0 .65605 0 1 0 14.276 2.6008 22.164 6.1562 26.312 3.556 4.149 8.315 5.188 14.344 5.188 6.028 0 10.788-1.039 14.344-5.188 3.555-4.148 6.156-12.036 6.156-26.312 0-.34395.003-.66342 0-1-.121 13.633-2.686 21.264-6.156 25.312-3.556 4.149-8.316 5.188-14.344 5.188-6.029 0-10.788-1.039-14.344-5.188-3.47-4.048-6.035-11.679-6.156-25.312z" fill="#fefefe" opacity=".25"/><path d="m47.661767 14.627119c-12.696 0-22.997 4.8571-22.997 34 0 11.839 1.7 19.666 4.5701 24.792-2.0473-5.0512-3.2284-12.111-3.2284-21.958 0-29.143 10.301-34 22.997-34 7.5382 0 14.232 1.7169 18.427 9.2083-4.012-9.898-11.363-12.042-19.769-12.042z" opacity="0"/></svg>