<svg height="96" width="96" xmlns="http://www.w3.org/2000/svg" xmlns:xlink="http://www.w3.org/1999/xlink"><linearGradient id="a"><stop offset="0" stop-color="#fefefe"/><stop offset="1" stop-color="#fefefe" stop-opacity="0"/></linearGradient><linearGradient id="b" gradientUnits="userSpaceOnUse" x1="48" x2="48" y1="90" y2="5.987717"><stop offset="0" stop-color="#1d5282"/><stop offset="1" stop-color="#568ec2"/></linearGradient><linearGradient id="c" gradientUnits="userSpaceOnUse" x1="24.39286" x2="24.39286" xlink:href="#a" y1="6" y2="63.606895"/><radialGradient id="d" cx="48" cy="90.171875" gradientTransform="matrix(1.1573129 0 0 .99590774 -7.551021 .197132)" gradientUnits="userSpaceOnUse" r="42" xlink:href="#a"/><clipPath id="e"><rect height="84" rx="6" width="84" x="6" y="6"/></clipPath><filter id="f" color-interpolation-filters="sRGB" height="1.384" width="1.384" x="-.192" y="-.192"><feGaussianBlur stdDeviation="5.28"/></filter><linearGradient id="g" gradientUnits="userSpaceOnUse" x1="48" x2="48" xlink:href="#a" y1="20.220806" y2="138.66119"/><linearGradient id="h" gradientTransform="matrix(1.0058652 0 0 .994169 100 0)" gradientUnits="userSpaceOnUse" x1="45.447727" x2="45.447727" y1="92.539597" y2="7.01654"><stop offset="0"/><stop offset="1" stop-opacity=".588235"/></linearGradient><linearGradient id="i" gradientTransform="matrix(1.0238095 0 0 1.0119048 -1.142857 -98.071429)" gradientUnits="userSpaceOnUse" x1="32.251034" x2="32.251034" xlink:href="#h" y1="6.131708" y2="90.238609"/><linearGradient id="j" gradientTransform="translate(0 -97)" gradientUnits="userSpaceOnUse" x1="32.251034" x2="32.251034" xlink:href="#h" y1="6.131708" y2="90.238609"/><g><g fill="url(#i)"><path d="m12-95.03125c-5.5110903 0-10.03125 4.52016-10.03125 10.03125v71c0 5.5110902 4.5201598 10.03125 10.03125 10.03125h72c5.51109 0 10.03125-4.5201597 10.03125-10.03125v-71c0-5.51109-4.52016-10.03125-10.03125-10.03125z" opacity=".08" transform="scale(1 -1)"/><path d="m12-94.03125c-4.971633 0-9.03125 4.059617-9.03125 9.03125v71c0 4.9716329 4.0596171 9.03125 9.03125 9.03125h72c4.971633 0 9.03125-4.059617 9.03125-9.03125v-71c0-4.971633-4.059617-9.03125-9.03125-9.03125z" opacity=".1" transform="scale(1 -1)"/><path d="m12-93c-4.4091333 0-8 3.590867-8 8v71c0 4.4091333 3.5908667 8 8 8h72c4.409133 0 8-3.5908667 8-8v-71c0-4.409133-3.590867-8-8-8z" opacity=".2" transform="scale(1 -1)"/><rect height="85" opacity=".3" rx="7" transform="scale(1 -1)" width="86" x="5" y="-92"/></g><rect fill="url(#j)" height="84" opacity=".45" rx="6" transform="scale(1 -1)" width="84" x="6" y="-91"/></g><rect fill="url(#b)" height="84" rx="6" width="84" x="6" y="6"/><path d="m12 6c-3.324 0-6 2.676-6 6v2 68 2c0 3.324 2.676 6 6 6h2 68 2c3.324 0 6-2.676 6-6v-2-68-2c0-3.324-2.676-6-6-6h-2-68zm4 6h64c2.216 0 4 1.784 4 4v64c0 2.216-1.784 4-4 4h-64c-2.216 0-4-1.784-4-4v-64c0-2.216 1.784-4 4-4z" fill="#fefefe" opacity=".7"/><path d="m12 6c-3.324 0-6 2.676-6 6v72c0 2.677766 1.7440348 4.881826 4.15625 5.65625-1.8605592-.727822-3.15625-2.526398-3.15625-4.65625v-72c0-2.781848 2.2181517-5 5-5h72c2.781848 0 5 2.218152 5 5v72c0 2.129852-1.295691 3.928428-3.15625 4.65625 2.412215-.774424 4.15625-2.978484 4.15625-5.65625v-72c0-3.324-2.676-6-6-6z" fill="url(#c)" opacity=".5"/><path d="m12 90c-3.324 0-6-2.676-6-6v-2-68-2c0-.334721.04135-.6507.09375-.96875.0487-.295596.09704-.596915.1875-.875.00988-.03038.020892-.0636.03125-.09375.098865-.287771.2348802-.547452.375-.8125.1445918-.273507.3156161-.535615.5-.78125s.3737765-.473472.59375-.6875c.439947-.428056.94291-.814526 1.5-1.09375.278545-.139612.5734731-.246947.875-.34375-.2562018.100222-.4867109.236272-.71875.375-.00741.0044-.023866-.0045-.03125 0-.031933.0193-.062293.04251-.09375.0625-.120395.0767-.2310226.163513-.34375.25-.1061728.0808-.2132809.161112-.3125.25-.1779299.161433-.3474596.345388-.5.53125-.1075789.130255-.2183939.265285-.3125.40625-.025089.03838-.038446.08587-.0625.125-.064763.103032-.1302275.204517-.1875.3125-.1010083.194706-.2056748.415701-.28125.625-.00796.02181-.023589.04055-.03125.0625-.0318251.09195-.0358045.186831-.0625.28125-.0303323.106618-.0703894.203031-.09375.3125-.0728786.341512-.125.698205-.125 1.0625v2 68 2c0 2.781848 2.2181517 5 5 5h2 68 2c2.781848 0 5-2.218152 5-5v-2-68-2c0-.364295-.05212-.720988-.125-1.0625-.04415-.206893-.08838-.397658-.15625-.59375-.0077-.02195-.0233-.04069-.03125-.0625-.06274-.173739-.138383-.367449-.21875-.53125-.04158-.0828-.07904-.169954-.125-.25-.0546-.09721-.126774-.18835-.1875-.28125-.09411-.140965-.204921-.275995-.3125-.40625-.143174-.17445-.303141-.346998-.46875-.5-.01117-.0102-.01998-.02115-.03125-.03125-.138386-.125556-.285091-.234436-.4375-.34375-.102571-.07315-.204318-.153364-.3125-.21875-.0074-.0045-.02384.0044-.03125 0-.232039-.138728-.462548-.274778-.71875-.375.301527.0968.596455.204138.875.34375.55709.279224 1.060053.665694 1.5 1.09375.219973.214028.409366.441865.59375.6875s.355408.507743.5.78125c.14012.265048.276135.524729.375.8125.01041.03078.02133.06274.03125.09375.09046.278085.1388.579404.1875.875.0524.31805.09375.634029.09375.96875v2 68 2c0 3.324-2.676 6-6 6z" fill="url(#d)" opacity=".4"/><g fill="#1a3854" transform="translate(100)"><path d="m-84 12c-2.216 0-4 1.784-4 4v64c0 2.216 1.784 4 4 4h64c2.216 0 4-1.784 4-4v-64c0-2.216-1.784-4-4-4zm0 3.03125h64c.587885 0 .96875.380865.96875.96875v64c0 .587885-.380865.96875-.96875.96875h-64c-.587885 0-.96875-.380865-.96875-.96875v-64c0-.587885.380865-.96875.96875-.96875z" opacity=".05"/><path d="m-84 12c-2.216 0-4 1.784-4 4v64c0 2.216 1.784 4 4 4h64c2.216 0 4-1.784 4-4v-64c0-2.216-1.784-4-4-4zm0 1.9375h64c1.172336 0 2.0625.890164 2.0625 2.0625v64c0 1.172336-.890164 2.0625-2.0625 2.0625h-64c-1.172336 0-2.0625-.890164-2.0625-2.0625v-64c0-1.172336.890164-2.0625 2.0625-2.0625z" opacity=".1"/><path d="m-84 12c-2.216 0-4 1.784-4 4v64c0 2.216 1.784 4 4 4h64c2.216 0 4-1.784 4-4v-64c0-2.216-1.784-4-4-4zm0 1.03125h64c1.664921 0 2.96875 1.303829 2.96875 2.96875v64c0 1.664921-1.303829 2.96875-2.96875 2.96875h-64c-1.664921 0-2.96875-1.303829-2.96875-2.96875v-64c0-1.664921 1.303829-2.96875 2.96875-2.96875z" opacity=".22"/></g><rect height="66" rx="12" style="opacity:.1;stroke:#fefefe;stroke-width:.5;stroke-linecap:round;clip-path:url(#e);fill:url(#g);filter:url(#f)" width="66" x="15" y="15"/><path d="m48.28125 19.125c-4.496504 0-8.125 3.753611-8.125 8.28125 0 4.527636 3.628495 8.28125 8.125 8.28125 4.495645 0 8.15625-3.743925 8.15625-8.28125 0-4.537329-3.660607-8.28125-8.15625-8.28125zm-22.59375 13.09375c-.558833-.009-1.173585.106713-1.78125.40625-1.314056.647726-2.045548 2.008844-2.0625 3.375-.01672 1.466353.888741 2.651455 2.03125 3.25a.89294642.89294642 0 0 0 0 .03125c.0023.0011.153877.06155.15625.0625.0019.000767.08679.01789.125.03125.0091.0032.03078-.000143.03125 0l15.375 4.96875-.09375 10.78125-5.8125 18.34375a.89294642.89294642 0 0 0 -.03125.375.89294642.89294642 0 0 0 0 .0625c-.53427 1.507816-.180462 3.26837 1.25 4.21875 1.66009 1.103073 4.043066.788712 5.21875-.96875a.89294642.89294642 0 0 0 .03125-.03125c.0011-.0018.06155-.123103.0625-.125.000725-.0015.01608-.06044.03125-.09375.0047-.01025-.000191-.03079 0-.03125l7.78125-16.4375 7.625 16.40625a.89294642.89294642 0 0 0 .03125.0625c.000865.0015.06155.09233.0625.09375.01921.0335.0424.0611.0625.09375 1.047473 1.701447 3.294928 2.270101 5.03125 1.28125 1.511791-.861021 2.017422-2.644384 1.5625-4.21875a.89294642.89294642 0 0 0 0-.0625c-.003-.0097.0031-.02155 0-.03125a.89294642.89294642 0 0 0 -.03125-.34375l-5.6875-18.34375v-.0625l-.03125-10.65625 15.4375-5.34375c.002-.000671.123035-.03044.125-.03125.002-.000813.123098-.06155.125-.0625.0019-.000951.12317-.06142.125-.0625.0018-.0011.092-.09254.09375-.09375 1.37568-.961485 1.985553-2.739622 1.375-4.34375-.596738-1.567937-2.187576-2.452265-3.8125-2.3125v-.0625c-.000948-.000015-.0303-.000015-.03125 0a.89294642.89294642 0 0 0 -.0625.03125.89294642.89294642 0 0 0 -.09375 0c-.461258.07644-.797914.179826-.84375.1875l-21.0625 3.53125-21-3.6875c-.29525-.05178-.763484-.178706-1.3125-.1875z" opacity=".08"/><path d="m48.28125 20.03125c-4.002914 0-7.21875 3.31934-7.21875 7.375 0 4.055656 3.215835 7.375 7.21875 7.375 4.002914 0 7.25-3.313563 7.25-7.375 0-4.061441-3.247087-7.375-7.25-7.375zm-22.59375 13.09375c-.432702-.0069-.897939.07734-1.375.3125-.998762.492311-1.549276 1.496797-1.5625 2.5625-.01258 1.103432.650015 2.007083 1.53125 2.46875a.98224108.98224108 0 0 0 .15625.0625l16.03125 5.1875-.09375 11.5-5.875 18.53125.0625.03125c-.656726 1.229339-.388791 2.795628.8125 3.59375 1.276268.848037 3.074239.618402 3.96875-.71875a.98224108.98224108 0 0 0 .0625-.125l8.59375-18.21875 8.4375 18.15625a.98224108.98224108 0 0 0 .0625.09375c.773622 1.349329 2.524019 1.800646 3.875 1.03125 1.263236-.71946 1.651733-2.291206 1.0625-3.59375l.0625-.03125-5.75-18.59375-.03125-11.34375 16.0625-5.5625a.98224108.98224108 0 0 0 .25-.125c1.047927-.732413 1.495401-2.09302 1.03125-3.3125-.461338-1.212172-1.702008-1.925209-2.96875-1.78125a.98224108.98224108 0 0 0 -.03125 0c-.392258.065-.655571.155994-.84375.1875l-21.21875 3.5625-21.15625-3.71875c-.333513-.058486-.723548-.149319-1.15625-.15625z" opacity=".15"/><path d="m54.565697 27.412443c0 3.539665-2.80855 6.412438-6.269082 6.412438-3.460533 0-6.269083-2.872773-6.269083-6.412438 0-3.539669 2.80855-6.412443 6.269083-6.412443 3.460532 0 6.269082 2.872774 6.269082 6.412443zm15.646767 6.818502c-.289955.04805-.536703.127774-.826261.176253l-21.386862 3.580705-21.299023-3.73504c-.675248-.118414-1.324667-.258556-1.939877.0447-.61521.30325-1.018522 1.02201-1.027009 1.70596-.0078.684041.419446 1.273956 1.027009 1.59225l16.689862 5.415567-.114153 12.43232-5.889179 18.619608c-.567199.847853-.39432 1.936741.45645 2.501981.850808.565333 2.057328.393095 2.624589-.45487l9.503949-20.098026 9.324548 20.063294c.504204.879418 1.628143 1.184904 2.510461.682416.882318-.502513 1.188855-1.622675.684668-2.502099l-5.77986-18.699713-.0082-12.25415 16.704066-5.772943c.683798-.477917.980866-1.382687.684688-2.160846-.296191-.778246-1.110151-1.231666-1.939921-1.137367z" opacity=".4"/><path d="m54.565697 26.412443c0 3.539665-2.80855 6.412438-6.269082 6.412438-3.460533 0-6.269083-2.872773-6.269083-6.412438 0-3.539669 2.80855-6.412443 6.269083-6.412443 3.460532 0 6.269082 2.872774 6.269082 6.412443zm15.646767 6.818502c-.289955.04805-.536703.127774-.826261.176253l-21.386862 3.580705-21.299023-3.73504c-.675248-.118414-1.324667-.258556-1.939877.0447-.61521.30325-1.018522 1.02201-1.027009 1.70596-.0078.684041.419446 1.273956 1.027009 1.59225l16.689862 5.415567-.114153 12.43232-5.889179 18.619608c-.567199.847853-.39432 1.936741.45645 2.501981.850808.565333 2.057328.393095 2.624589-.45487l9.503949-20.098026 9.324548 20.063294c.504204.879418 1.628143 1.184904 2.510461.682416.882318-.502513 1.188855-1.622675.684668-2.502099l-5.77986-18.699713-.0082-12.25415 16.704066-5.772943c.683798-.477917.980866-1.382687.684688-2.160846-.296191-.778246-1.110151-1.231666-1.939921-1.137367z" fill="#fefefe"/></svg>