<svg height="96" width="96" xmlns="http://www.w3.org/2000/svg" xmlns:xlink="http://www.w3.org/1999/xlink"><linearGradient id="a" gradientUnits="userSpaceOnUse" x1="48" x2="48" y1="90" y2="5.987717"><stop offset="0" stop-color="#ebebeb"/><stop offset="1" stop-color="#fafafa"/></linearGradient><linearGradient id="b" gradientTransform="matrix(1.0058652 0 0 .994169 100 0)" gradientUnits="userSpaceOnUse" x1="45.447727" x2="45.447727" y1="92.539597" y2="7.01654"><stop offset="0"/><stop offset="1" stop-opacity=".588235"/></linearGradient><linearGradient id="c" gradientTransform="matrix(1.0238095 0 0 1.0119048 -1.142857 -98.071429)" gradientUnits="userSpaceOnUse" x1="32.251034" x2="32.251034" xlink:href="#b" y1="6.131708" y2="90.238609"/><linearGradient id="d" gradientTransform="translate(0 -97)" gradientUnits="userSpaceOnUse" x1="32.251034" x2="32.251034" xlink:href="#b" y1="6.131708" y2="90.238609"/><linearGradient id="e"><stop offset="0" stop-color="#fefefe"/><stop offset="1" stop-color="#fefefe" stop-opacity="0"/></linearGradient><radialGradient id="f" cx="48" cy="90.171875" gradientTransform="matrix(1.1573129 0 0 .99590774 -7.551021 .197132)" gradientUnits="userSpaceOnUse" r="42" xlink:href="#e"/><linearGradient id="g" gradientUnits="userSpaceOnUse" x1="36.357143" x2="36.357143" xlink:href="#e" y1="6" y2="63.893143"/><linearGradient id="h" gradientUnits="userSpaceOnUse" x1="45.16064727761" x2="45.16064727761" y1="71.57022359916" y2="24.08834745288"><stop offset="0" stop-color="#327fff"/><stop offset="1" stop-color="#00acff"/></linearGradient><clipPath id="i"><path d="m-88 6c-3.324 0-6 2.676-6 6v72c0 3.324 2.676 6 6 6h72c3.324 0 6-2.676 6-6v-72c0-3.324-2.676-6-6-6zm38.65625 18c1.645696.000047 3.029386.559154 4.1875 1.65625 1.178391 1.097186 1.74998 2.424666 1.75 3.96875-.00002 1.544168-.571609 2.871646-1.75 3.96875-1.158114 1.076862-2.541804 1.625035-4.1875 1.625-1.645727.000035-3.071601-.548138-4.25-1.625-1.178423-1.097104-1.750011-2.424582-1.75-3.96875-.000011-1.544084.571577-2.871564 1.75-3.96875 1.178399-1.097096 2.604273-1.656203 4.25-1.65625zm-5.59375 16.25c2.417762.000031 4.293416.602866 5.59375 1.78125 1.320617 1.158121 1.93748 2.693322 1.9375 4.5625-.000026.386058-.02343 1.056035-.125 2.03125-.08128.975259-.256208 1.843571-.5 2.65625l-2.5 8.875c-.203189.711117-.368725 1.523222-.53125 2.4375-.16256.914292-.250015 1.595204-.25 2.0625-.000015 1.178425.252982 2.01084.78125 2.4375.528239.426674 1.449666.625 2.75.625.609506 0 1.321667-.109304 2.09375-.3125.772042-.223499 1.31083-.399946 1.65625-.5625l-.65625 2.75c-2.011448.792375-3.645038 1.374901-4.84375 1.78125-1.198745.426673-2.571501.625-4.15625.625-2.438104 0-4.357487-.571587-5.71875-1.75-1.340957-1.198724-2.000004-2.702678-2-4.53125-.000005-.711104.0859-1.456059.1875-2.1875.101587-.751727.214004-1.596634.4375-2.53125l2.5-8.875c.223484-.853313.420271-1.654483.5625-2.40625.16253-.772041.249993-1.463886.25-2.09375-.000008-1.137753-.251457-1.927989-.71875-2.375-.467307-.446959-1.335622-.718724-2.65625-.71875-.650163.000026-1.30921.140615-2 .34375-.670477.203201-1.262383.41092-1.75.59375l.65625-2.75c1.645711-.670448 3.246504-1.251419 4.75-1.71875 1.503484-.487589 2.909037-.749969 4.25-.75z"/></clipPath><filter id="j" color-interpolation-filters="sRGB" height="1.207625" width="1.46991" x="-.234955" y="-.103813"><feGaussianBlur stdDeviation="2.07625"/></filter><g><g fill="url(#c)"><path d="m12-95.03125c-5.5110903 0-10.03125 4.52016-10.03125 10.03125v71c0 5.5110902 4.5201598 10.03125 10.03125 10.03125h72c5.51109 0 10.03125-4.5201597 10.03125-10.03125v-71c0-5.51109-4.52016-10.03125-10.03125-10.03125z" opacity=".08" transform="scale(1 -1)"/><path d="m12-94.03125c-4.971633 0-9.03125 4.059617-9.03125 9.03125v71c0 4.9716329 4.0596171 9.03125 9.03125 9.03125h72c4.971633 0 9.03125-4.059617 9.03125-9.03125v-71c0-4.971633-4.059617-9.03125-9.03125-9.03125z" opacity=".1" transform="scale(1 -1)"/><path d="m12-93c-4.4091333 0-8 3.590867-8 8v71c0 4.4091333 3.5908667 8 8 8h72c4.409133 0 8-3.5908667 8-8v-71c0-4.409133-3.590867-8-8-8z" opacity=".2" transform="scale(1 -1)"/><rect height="85" opacity=".3" rx="7" transform="scale(1 -1)" width="86" x="5" y="-92"/></g><rect fill="url(#d)" height="84" opacity=".45" rx="6" transform="scale(1 -1)" width="84" x="6" y="-91"/></g><g><rect fill="url(#a)" height="84" rx="6" width="84" x="6" y="6"/><path d="m12 6c-3.324 0-6 2.676-6 6v2 68 2c0 .334721.04135.6507.09375.96875.0487.295596.09704.596915.1875.875.0099.03038.02089.0636.03125.09375.09886.287771.23488.547452.375.8125.144592.273507.315616.535615.5.78125s.373776.473472.59375.6875c.439947.428056.94291.814526 1.5 1.09375.278545.139612.573473.246947.875.34375-.256202-.100222-.486711-.236272-.71875-.375-.0074-.0044-.02387.0045-.03125 0-.03193-.0193-.06229-.04251-.09375-.0625-.120395-.0767-.231023-.163513-.34375-.25-.106173-.0808-.213281-.161112-.3125-.25-.17793-.161433-.34746-.345388-.5-.53125-.107579-.130255-.218394-.265285-.3125-.40625-.02509-.03838-.03845-.08587-.0625-.125-.06476-.103032-.130228-.204517-.1875-.3125-.101008-.194706-.205675-.415701-.28125-.625-.008-.02181-.02359-.04055-.03125-.0625-.03183-.09195-.0358-.186831-.0625-.28125-.030332-.106618-.070389-.203031-.09375-.3125-.072879-.341512-.125-.698205-.125-1.0625v-2-68-2c0-2.781848 2.218152-5 5-5h2 68 2c2.781848 0 5 2.218152 5 5v2 68 2c0 .364295-.05212.720988-.125 1.0625-.04415.206893-.08838.397658-.15625.59375-.0077.02195-.0233.04069-.03125.0625-.06274.173739-.138383.367449-.21875.53125-.04158.0828-.07904.169954-.125.25-.0546.09721-.126774.18835-.1875.28125-.09411.140965-.204921.275995-.3125.40625-.143174.17445-.303141.346998-.46875.5-.01117.0102-.01998.02115-.03125.03125-.138386.125556-.285091.234436-.4375.34375-.102571.07315-.204318.153364-.3125.21875-.0074.0045-.02384-.0044-.03125 0-.232039.138728-.462548.274778-.71875.375.301527-.0968.596455-.204138.875-.34375.55709-.279224 1.060053-.665694 1.5-1.09375.219973-.214028.409366-.441865.59375-.6875s.355408-.507743.5-.78125c.14012-.265048.276135-.524729.375-.8125.01041-.03078.02133-.06274.03125-.09375.09046-.278085.1388-.579404.1875-.875.0524-.31805.09375-.634029.09375-.96875v-2-68-2c0-3.324-2.676-6-6-6z" fill="url(#g)" opacity=".5"/><path d="m12 90c-3.324 0-6-2.676-6-6v-2-68-2c0-.334721.04135-.6507.09375-.96875.0487-.295596.09704-.596915.1875-.875.00988-.03038.020892-.0636.03125-.09375.098865-.287771.2348802-.547452.375-.8125.1445918-.273507.3156161-.535615.5-.78125s.3737765-.473472.59375-.6875c.439947-.428056.94291-.814526 1.5-1.09375.278545-.139612.5734731-.246947.875-.34375-.2562018.100222-.4867109.236272-.71875.375-.00741.0044-.023866-.0045-.03125 0-.031933.0193-.062293.04251-.09375.0625-.120395.0767-.2310226.163513-.34375.25-.1061728.0808-.2132809.161112-.3125.25-.1779299.161433-.3474596.345388-.5.53125-.1075789.130255-.2183939.265285-.3125.40625-.025089.03838-.038446.08587-.0625.125-.064763.103032-.1302275.204517-.1875.3125-.1010083.194706-.2056748.415701-.28125.625-.00796.02181-.023589.04055-.03125.0625-.0318251.09195-.0358045.186831-.0625.28125-.0303323.106618-.0703894.203031-.09375.3125-.0728786.341512-.125.698205-.125 1.0625v2 68 2c0 2.781848 2.2181517 5 5 5h2 68 2c2.781848 0 5-2.218152 5-5v-2-68-2c0-.364295-.05212-.720988-.125-1.0625-.04415-.206893-.08838-.397658-.15625-.59375-.0077-.02195-.0233-.04069-.03125-.0625-.06274-.173739-.138383-.367449-.21875-.53125-.04158-.0828-.07904-.169954-.125-.25-.0546-.09721-.126774-.18835-.1875-.28125-.09411-.140965-.204921-.275995-.3125-.40625-.143174-.17445-.303141-.346998-.46875-.5-.01117-.0102-.01998-.02115-.03125-.03125-.138386-.125556-.285091-.234436-.4375-.34375-.102571-.07315-.204318-.153364-.3125-.21875-.0074-.0045-.02384.0044-.03125 0-.232039-.138728-.462548-.274778-.71875-.375.301527.0968.596455.204138.875.34375.55709.279224 1.060053.665694 1.5 1.09375.219973.214028.409366.441865.59375.6875s.355408.507743.5.78125c.14012.265048.276135.524729.375.8125.01041.03078.02133.06274.03125.09375.09046.278085.1388.579404.1875.875.0524.31805.09375.634029.09375.96875v2 68 2c0 3.324-2.676 6-6 6z" fill="url(#f)" opacity=".4"/><path d="m50.645833 24c-1.645727.000047-3.071601.569571-4.25 1.666667-1.178423 1.097186-1.750011 2.414249-1.75 3.958333-.000011 1.544168.571577 2.861229 1.75 3.958333 1.178399 1.076862 2.604273 1.625035 4.25 1.625 1.645696.000035 3.050219-.548138 4.208333-1.625 1.178391-1.097104 1.74998-2.414165 1.75-3.958333-.00002-1.544084-.571609-2.861147-1.75-3.958333-1.158114-1.097096-2.562637-1.66662-4.208333-1.666667zm-5.583333 16.25c-1.340963.000031-2.746516.262411-4.25.75-1.503496.467331-3.104289 1.037885-4.75 1.708333l-.666666 2.75c.487617-.18283 1.079523-.380132 1.75-.583333.69079-.203135 1.349837-.333307 2-.333333 1.320628.000026 2.199359.261374 2.666666.708333.467293.447011.708326 1.237247.708334 2.375-.000007.629864-.08747 1.311292-.25 2.083333-.142229.751767-.318183 1.563354-.541667 2.416667l-2.5 8.875c-.223496.934616-.356746 1.78994-.458333 2.541667-.1016.731441-.166672 1.455562-.166667 2.166666-.000004 1.828572.659043 3.342943 2 4.541667 1.361263 1.178413 3.27023 1.75 5.708334 1.75 1.584749 0 2.967921-.198327 4.166666-.625 1.198712-.406349 2.821886-.999292 4.833334-1.791667l.666666-2.75c-.34542.162554-.894624.359835-1.666666.583334-.772083.203196-1.473828.291666-2.083334.291666-1.300334 0-2.221761-.198326-2.75-.625-.528268-.42666-.791681-1.238241-.791666-2.416666-.000015-.467296.08744-1.169042.25-2.083334.162525-.914278.338477-1.705549.541666-2.416666l2.5-8.875c.243792-.812679.41872-1.691408.5-2.666667.101574-.975215.124974-1.655609.125-2.041667-.00002-1.869178-.637716-3.383545-1.958333-4.541666-1.300334-1.178384-3.165572-1.791636-5.583334-1.791667z" fill="url(#h)"/><path d="m50.65625 24c-1.645727.000047-3.071601.559154-4.25 1.65625-1.178423 1.097186-1.750011 2.424666-1.75 3.96875-.000001.150259.02039.291535.03125.4375.125509-1.30151.68763-2.446212 1.71875-3.40625 1.178399-1.097096 2.604273-1.656203 4.25-1.65625 1.645696.000047 3.029386.559154 4.1875 1.65625 1.031092.960038 1.59322 2.10474 1.71875 3.40625.01086-.145965.03125-.287241.03125-.4375-.00002-1.544084-.571609-2.871564-1.75-3.96875-1.158114-1.097096-2.541804-1.656203-4.1875-1.65625zm-5.59375 16.25c-1.340963.000031-2.746516.262411-4.25.75-1.503496.467331-3.104289 1.048302-4.75 1.71875l-.65625 2.75c.07042-.0264.175311-.06677.25-.09375l.40625-1.65625c1.645711-.670448 3.246504-1.251419 4.75-1.71875 1.503484-.487589 2.909037-.749969 4.25-.75 2.417762.000031 4.293416.602866 5.59375 1.78125 1.268201 1.112154 1.888802 2.575811 1.9375 4.34375.01855-.340258-.000013-.588221 0-.78125-.00002-1.869178-.616883-3.404379-1.9375-4.5625-1.300334-1.178384-3.175988-1.781219-5.59375-1.78125zm-2.5625 7.9375c-.03465.475852-.101912.976252-.21875 1.53125-.142229.751767-.339016 1.552937-.5625 2.40625l-2.5 8.875c-.223496.934616-.335913 1.779523-.4375 2.53125-.1016.731441-.187505 1.476396-.1875 2.1875 0 .185133.01772.35256.03125.53125.02089-.562821.07643-1.144131.15625-1.71875.101587-.751727.214004-1.596634.4375-2.53125l2.5-8.875c.223484-.853313.420271-1.654483.5625-2.40625.16253-.772041.249993-1.463886.25-2.09375-.000001-.159177-.02185-.291915-.03125-.4375zm6.21875 16.9375c-.01574.184254-.03126.389519-.03125.53125-.000015 1.178425.252982 2.01084.78125 2.4375.528239.426674 1.449666.625 2.75.625.609506 0 1.321667-.109304 2.09375-.3125.625278-.181012 1.063187-.326653 1.40625-.46875l.25-1.09375c-.34542.162554-.884208.339001-1.65625.5625-.772083.203196-1.484244.3125-2.09375.3125-1.300334 0-2.221761-.198326-2.75-.625-.452135-.365171-.685001-1.050977-.75-1.96875z" opacity=".2"/><path d="m44.6875 30.1875c-.01086.145959-.03125.287249-.03125.4375-.000011 1.544168.571577 2.871646 1.75 3.96875 1.178399 1.076862 2.604273 1.625035 4.25 1.625 1.645696.000035 3.029386-.548138 4.1875-1.625 1.178391-1.097104 1.74998-2.424582 1.75-3.96875-.000002-.150251-.02039-.291541-.03125-.4375-.12553 1.301565-.687658 2.446284-1.71875 3.40625-1.158114 1.076862-2.541804 1.625035-4.1875 1.625-1.645727.000035-3.071601-.548138-4.25-1.625-1.03112-.959966-1.593241-2.104685-1.71875-3.40625zm-5.53125 14.34375c-.650163.000026-1.30921.140615-2 .34375-.573654.173857-1.057487.340149-1.5.5l-.25 1.09375c.487617-.18283 1.079523-.390549 1.75-.59375.69079-.203135 1.349837-.343724 2-.34375 1.320628.000026 2.188943.271791 2.65625.71875.401917.384472.629736 1.042486.6875 1.9375.01355-.186091.03125-.385427.03125-.5625-.000008-1.137753-.251457-1.927989-.71875-2.375-.467307-.446959-1.335622-.718724-2.65625-.71875zm13.4375 2.90625c-.01884.330344-.07673.724031-.125 1.1875-.08128.975259-.256208 1.843571-.5 2.65625l-2.5 8.875c-.203189.711117-.368725 1.523222-.53125 2.4375-.16256.914292-.250015 1.595204-.25 2.0625-.000002.169832.02031.314211.03125.46875.03616-.423244.105494-.894262.21875-1.53125.162525-.914278.328061-1.726383.53125-2.4375l2.5-8.875c.243792-.812679.41872-1.680991.5-2.65625.101574-.975215.124974-1.645192.125-2.03125-.000001-.05299.001-.103828 0-.15625zm-13.96875 18.9375c-.0031.112583-.03125.23179-.03125.34375-.000004 1.828572.659043 3.332526 2 4.53125 1.361263 1.178413 3.280646 1.75 5.71875 1.75 1.584749 0 2.957505-.198327 4.15625-.625 1.198712-.406349 2.832302-.988875 4.84375-1.78125l.65625-2.75c-.06566.0309-.169477.0604-.25.09375l-.40625 1.65625c-2.011448.792375-3.645038 1.374901-4.84375 1.78125-1.198745.426673-2.571501.625-4.15625.625-2.438104 0-4.357487-.571587-5.71875-1.75-1.173337-1.048884-1.824274-2.343751-1.96875-3.875z" fill="#fefefe"/><path d="m-49.354167 24c-1.645727.000047-3.071601.569571-4.25 1.666667-1.178423 1.097186-1.750011 2.414249-1.75 3.958333-.000011 1.544168.571577 2.861229 1.75 3.958333 1.178399 1.076862 2.604273 1.625035 4.25 1.625 1.645696.000035 3.050219-.548138 4.208333-1.625 1.178391-1.097104 1.74998-2.414165 1.75-3.958333-.00002-1.544084-.571609-2.861147-1.75-3.958333-1.158114-1.097096-2.562637-1.66662-4.208333-1.666667zm-5.583333 16.25c-1.340963.000031-2.746516.262411-4.25.75-1.503496.467331-3.104289 1.037885-4.75 1.708333l-.666666 2.75c.487617-.18283 1.079523-.380132 1.75-.583333.69079-.203135 1.349837-.333307 2-.333333 1.320628.000026 2.199359.261374 2.666666.708333.467293.447011.708326 1.237247.708334 2.375-.000007.629864-.08747 1.311292-.25 2.083333-.142229.751767-.318183 1.563354-.541667 2.416667l-2.5 8.875c-.223496.934616-.356746 1.78994-.458333 2.541667-.1016.731441-.166672 1.455562-.166667 2.166666-.000004 1.828572.659043 3.342943 2 4.541667 1.361263 1.178413 3.27023 1.75 5.708334 1.75 1.584749 0 2.967921-.198327 4.166666-.625 1.198712-.406349 2.821886-.999292 4.833334-1.791667l.666666-2.75c-.34542.162554-.894624.359835-1.666666.583334-.772083.203196-1.473828.291666-2.083334.291666-1.300334 0-2.221761-.198326-2.75-.625-.528268-.42666-.791681-1.238241-.791666-2.416666-.000015-.467296.08744-1.169042.25-2.083334.162525-.914278.338477-1.705549.541666-2.416666l2.5-8.875c.243792-.812679.41872-1.691408.5-2.666667.101574-.975215.124974-1.655609.125-2.041667-.00002-1.869178-.637716-3.383545-1.958333-4.541666-1.300334-1.178384-3.165572-1.791636-5.583334-1.791667z" style="opacity:.6;fill:none;stroke:#fefefe;stroke-width:2;clip-path:url(#i);filter:url(#j)" transform="translate(100)"/></g></svg>