<svg height="96" width="96" xmlns="http://www.w3.org/2000/svg" xmlns:xlink="http://www.w3.org/1999/xlink"><linearGradient id="a"><stop offset="0" stop-color="#fefefe"/><stop offset="1" stop-color="#fefefe" stop-opacity="0"/></linearGradient><linearGradient id="b" gradientUnits="userSpaceOnUse" x1="36.357143" x2="36.357143" xlink:href="#a" y1="6" y2="63.893143"/><filter id="c" color-interpolation-filters="sRGB" height="1.384" width="1.384" x="-.192" y="-.192"><feGaussianBlur stdDeviation="5.28"/></filter><linearGradient id="d" gradientUnits="userSpaceOnUse" x1="48" x2="48" xlink:href="#a" y1="20.220806" y2="138.66119"/><radialGradient id="e" cx="48" cy="90.171875" gradientTransform="matrix(1.1573129 0 0 .99590774 -7.551021 .197132)" gradientUnits="userSpaceOnUse" r="42" xlink:href="#a"/><clipPath id="f"><rect height="84" rx="6" width="84" x="6" y="6"/></clipPath><linearGradient id="g" gradientTransform="matrix(.79888068 0 0 .79888068 -2.821591 1.206716)" gradientUnits="userSpaceOnUse" x1="58.650177" x2="58.650177" xlink:href="#h" y1="122" y2="5.425234"/><linearGradient id="h" gradientTransform="matrix(1.0172414 0 0 1.0172414 -1.103448 -1.103448)" gradientUnits="userSpaceOnUse" spreadMethod="pad" x1="58.650177" x2="58.650177" xlink:href="#i" y1="122" y2="5.425234"><stop offset="0" stop-color="#dcdcdc"/><stop offset=".89612097" stop-color="#f5f5f5"/><stop offset="1" stop-color="#8d8d8d"/></linearGradient><linearGradient id="i" gradientTransform="matrix(1.0172414 0 0 1.0172414 -1.103448 -1.103448)" gradientUnits="userSpaceOnUse" spreadMethod="pad" x1="58.650177" x2="58.650177" y1="122" y2="5.425234"><stop offset="0" stop-color="#dcdcdc"/><stop offset=".40241864" stop-color="#e4e4e4"/><stop offset="1" stop-color="#f0f0f0"/></linearGradient><linearGradient id="j"><stop offset="0" stop-color="#514e4d"/><stop offset="1" stop-color="#767372"/></linearGradient><linearGradient id="k"><stop offset="0"/><stop offset="1" stop-opacity="0"/></linearGradient><linearGradient id="l" gradientUnits="userSpaceOnUse" x1="52.1957018861" x2="50.47897608172" xlink:href="#a" y1="42.58048750362" y2="69.55614440531"/><linearGradient id="m" gradientUnits="userSpaceOnUse" x1="90.35158514345" x2="64.85428482472" xlink:href="#j" y1="27.28054092593" y2="15.96610179"/><linearGradient id="n" gradientUnits="userSpaceOnUse" x1="36.27272379373" x2="38.89311163609" xlink:href="#k" y1="24.95902722051" y2="24.07323867413"/><linearGradient id="o" gradientTransform="matrix(-.71186441 0 0 .71186441 93.55932 2.440678)" gradientUnits="userSpaceOnUse" x1="79.513893" x2="95.671806" xlink:href="#j" y1="16" y2="23.497499"/><linearGradient id="p" gradientUnits="userSpaceOnUse" x1="73.10446516713" x2="73.10446516713" xlink:href="#j" y1="90.00000043" y2="5.92443493101"/><linearGradient id="q" gradientTransform="matrix(-.71186441 0 0 .71186441 93.55932 2.440678)" gradientUnits="userSpaceOnUse" x1="99.265793" x2="99.265793" xlink:href="#j" y1="123" y2="4.893849"/><linearGradient id="r" gradientUnits="userSpaceOnUse" x1="65.92762" x2="74.494286" y1="99.265976" y2="99.265976"><stop offset="0" stop-color="#202020"/><stop offset="1" stop-color="#727272"/></linearGradient><clipPath id="s"><path d="m-28 6c-3.324 0-6 2.676-6 6v.53125 70.9375.53125c0 3.324 2.676 6 6 6h.53125 7.46875 30.96875s.24654-18.83702 0-21.78125c-.48626-5.80699-14.2998-38.82533-21.46875-62.21875h-9.5-7.46875z"/></clipPath><linearGradient gradientTransform="matrix(-.71186441 0 0 .71186441 53.55932 2.440678)" gradientUnits="userSpaceOnUse" x1="99.265793" x2="99.265793" xlink:href="#j" y1="123" y2="4.893849"/><linearGradient id="t" gradientTransform="matrix(-.71186441 0 0 .71186441 36.599994 2.440678)" gradientUnits="userSpaceOnUse" x1="-32.47403" x2="-28.793009" xlink:href="#k" y1="31.632919" y2="30.388597"/><linearGradient id="u" gradientTransform="matrix(1.0172414 0 0 1.0172414 -1.103448 -1.103448)" gradientUnits="userSpaceOnUse" spreadMethod="pad" x1="58.650177" x2="58.650177" xlink:href="#i" y1="122" y2="5.425234"><stop offset="0" stop-color="#dcdcdc"/><stop offset="1" stop-color="#f0f0f0"/></linearGradient><linearGradient id="v"><stop offset="0" stop-color="#de1212"/><stop offset=".5" stop-color="#f36565"/><stop offset="1" stop-color="#a20c0c"/></linearGradient><linearGradient id="w" gradientUnits="userSpaceOnUse" x1="47.86721584395" x2="52.28460953656" xlink:href="#k" y1="21.49589257212" y2="37.98183777152"/><linearGradient id="x" gradientUnits="userSpaceOnUse" x1="41.80101311874" x2="48.65093929184" xlink:href="#v" y1="39.67940887205" y2="40.28016215"/><linearGradient id="y" gradientUnits="userSpaceOnUse" x1="44.26129839302" x2="48.58148027242" xlink:href="#v" y1="17.83789601961" y2="17.22823039229"/><linearGradient id="z" gradientTransform="matrix(-.64339645 0 0 .65538394 89.209375 2.723081)" gradientUnits="userSpaceOnUse" x1="43.475822" x2="57.253754" xlink:href="#u" y1="10.529735" y2="12.778483"/><linearGradient id="A" gradientTransform="matrix(.64339645 0 0 .65538394 6.802521 2.723081)" gradientUnits="userSpaceOnUse" x1="52.470821" x2="47.759033" xlink:href="#u" y1="5.282652" y2="12.028901"/><linearGradient id="B" gradientTransform="matrix(1.0058652 0 0 .994169 100 0)" gradientUnits="userSpaceOnUse" x1="45.447727" x2="45.447727" y1="92.539597" y2="7.01654"><stop offset="0"/><stop offset="1" stop-opacity=".588235"/></linearGradient><linearGradient id="C" gradientTransform="matrix(1.0238095 0 0 1.0119048 -1.142857 -98.071429)" gradientUnits="userSpaceOnUse" x1="32.251034" x2="32.251034" xlink:href="#B" y1="6.131708" y2="90.238609"/><linearGradient id="D" gradientTransform="translate(0 -97)" gradientUnits="userSpaceOnUse" x1="32.251034" x2="32.251034" xlink:href="#B" y1="6.131708" y2="90.238609"/><g><g fill="url(#C)"><path d="m12-95.03125c-5.5110903 0-10.03125 4.52016-10.03125 10.03125v71c0 5.5110902 4.5201598 10.03125 10.03125 10.03125h72c5.51109 0 10.03125-4.5201597 10.03125-10.03125v-71c0-5.51109-4.52016-10.03125-10.03125-10.03125z" opacity=".08" transform="scale(1 -1)"/><path d="m12-94.03125c-4.971633 0-9.03125 4.059617-9.03125 9.03125v71c0 4.9716329 4.0596171 9.03125 9.03125 9.03125h72c4.971633 0 9.03125-4.059617 9.03125-9.03125v-71c0-4.971633-4.059617-9.03125-9.03125-9.03125z" opacity=".1" transform="scale(1 -1)"/><path d="m12-93c-4.4091333 0-8 3.590867-8 8v71c0 4.4091333 3.5908667 8 8 8h72c4.409133 0 8-3.5908667 8-8v-71c0-4.409133-3.590867-8-8-8z" opacity=".2" transform="scale(1 -1)"/><rect height="85" opacity=".3" rx="7" transform="scale(1 -1)" width="86" x="5" y="-92"/></g><rect fill="url(#D)" height="84" opacity=".45" rx="6" transform="scale(1 -1)" width="84" x="6" y="-91"/></g><rect fill="#514e4d" height="84" rx="6" width="84" x="6" y="6"/><path d="m18.954679 6 29.720224 75 28.370418-75z" fill="url(#g)"/><g fill-rule="evenodd" transform="translate(50)"><path d="m-10.03125 7.46875a1.0213265 1.0213265 0 0 0 -.0625.03125c-1.113083.1754186-1.847691.9379209-2.3125 1.625s-.78406 1.341954-1.09375 1.71875a1.0213265 1.0213265 0 0 0 -.09375.15625c-.261407.448812-.744348.988297-1.125 1.71875s-.626811 1.804063-.15625 2.8125a1.0213265 1.0213265 0 0 0 .125.1875c1.784568 2.304155 3.798013 4.387614 5.625 6.53125.047906.0885.074401.08157.125.15625.3137473.46308.6898469.744558.84375.90625.029787.0313.017171.01239.03125.03125-3.647699 11.553135-7.342767 23.09209-10.96875 34.65625a1.0213265 1.0213265 0 0 0 -.03125.15625c-.304642 2.039354 1.569687 3.588862 3.46875 3.375v.03125c9.4284543.111716 18.8505702.236397 28.28125.34375a1.0213265 1.0213265 0 0 0 .09375 0c2.04955-.187015 3.199308-2.432385 2.375-4.25h.03125l-.0625-.15625-10.6875-34.34375c1.8707788-2.253234 3.8409157-4.491918 5.6875-6.8125a1.0213265 1.0213265 0 0 0 .09375-.15625c.535166-1.019824.330643-2.082053.03125-2.875-.2993933-.792947-.6839661-1.472339-.8125-1.9375a1.0213265 1.0213265 0 0 0 -.03125-.15625c-.2185542-.47823-.4244788-1.2517355-.84375-2.03125s-1.2751578-1.6324901-2.46875-1.71875a1.0213265 1.0213265 0 0 0 -.1875.03125c-1.9610004.2169387-3.6427507.9803344-5.21875 1.375-1.02034696.2518624-1.8705074.6314335-2.59375.75-2.4094189-.6832433-4.8278686-1.4876889-7.3125-2.125a1.0213265 1.0213265 0 0 0 -.25-.03125h-.40625a1.0213265 1.0213265 0 0 0 -.09375 0z" opacity=".08"/><path d="m-9.9375 8.5c.00165-.0001974-.095391.03154-.09375.03125.0016-.0002897-.126622.031631-.125.03125.0016-.0003811-.09535.0004713-.09375 0s-.126569.03181-.125.03125c.0016-.00056-.09529.063147-.09375.0625.0015-.0006469-.09525.031982-.09375.03125.0015-.0007319-.0952.063315-.09375.0625.0015-.0008145-.09516.063395-.09375.0625.0014-.0008946-.0951.063472-.09375.0625.0014-.0009719-.09505.063546-.09375.0625.0013-.00105-.09499.063617-.09375.0625.0012-.00112-.06367.094935-.0625.09375.0012-.00118-.09485.063748-.09375.0625.0011-.00125-.06353.095058-.0625.09375.001-.00131-.06346.095114-.0625.09375.000736-.00105-.04582.037304-.0625.0625-.005.00756-.000203.031577 0 .03125l-2.4375 3.71875h.03125c.0013-.002-.09491.127089-.09375.125.0012-.0021-.06349.158425-.0625.15625.000987-.0022-.06331.127247-.0625.125.00081-.0022-.06313.158555-.0625.15625.000627-.0023-.03169.158598-.03125.15625.00044-.0023-.0315.158625-.03125.15625.00025-.0024-.000059.158638 0 .15625.000059-.0024.000132.158635 0 .15625-.000132-.0024.03157.158616.03125.15625-.000323-.0024.000512.158583 0 .15625-.000512-.0023.0632.158534.0625.15625-.000697-.0023.03213.158471.03125.15625-.000878-.0022.06355.127144.0625.125-.0011-.0021.09497.158302.09375.15625-.0012-.0021.09513.126948.09375.125-.0014-.0019.09528.12683.09375.125a1.0300162 1.0300162 0 0 0 0 .03125l6.65625 7.59375-11.03125 34.84375c.000517-.0017-.03167.126697-.03125.125.000418-.0017-.03157.09547-.03125.09375.000318-.0017-.03147.126734-.03125.125.000216-.0017-.000114.126744 0 .125.000114-.0017-.000011.0955 0 .09375.000011-.0017.000091.126745 0 .125-.000091-.0017.000193.126737 0 .125-.000193-.0017.03155.126722.03125.125-.000295-.0017.000396.09545 0 .09375s.03175.126676.03125.125c-.000495-.0017.03184.09539.03125.09375-.000592-.0016.06319.126606.0625.125-.000688-.0016.03203.09531.03125.09375-.000781-.0016.06337.09526.0625.09375-.000871-.0015.06346.09521.0625.09375-.000959-.0015.06354.126402.0625.125-.001-.0014.06362.06384.0625.0625-.0011-.0013.09495.09502.09375.09375-.0012-.0013.09502.09495.09375.09375-.0013-.0012.06384.06362.0625.0625-.0013-.0011.09515.09479.09375.09375-.0014-.001.09521.06346.09375.0625-.0015-.000956.09527.06337.09375.0625-.0015-.000869.126564.03203.125.03125-.0016-.000778.09536.06318.09375.0625-.0016-.000685.09539.03184.09375.03125-.0016-.00059.126677.03174.125.03125-.0017-.000492.126703.03164.125.03125-.0017-.000393.09547.03154.09375.03125-.0017-.000292.126737.03144.125.03125-.0017-.000191.126745.000088.125 0-.0017-.000088.0955-.000014.09375 0l28.5625.34375c-.0017-.000014.09549-.000088.09375 0-.0017.000088.126737-.000191.125 0-.0017.000191.126723-.03154.125-.03125-.0017.000292.09545-.03164.09375-.03125-.0017.000393.126677-.03174.125-.03125-.0017.000492.126645-.03184.125-.03125-.0016.00059.09536-.03193.09375-.03125-.0016.000685.09531-.06328.09375-.0625-.0016.000778.126516-.03212.125-.03125-.0015.000869.09521-.06346.09375-.0625-.0015.000956.09515-.06354.09375-.0625-.0014.001.09509-.09487.09375-.09375-.0013.0011.06377-.0637.0625-.0625-.0013.0012.09495-.09502.09375-.09375-.0012.0013.09487-.09509.09375-.09375-.0011.0013.06354-.0639.0625-.0625-.001.0014.06346-.126461.0625-.125-.000959.0015.06337-.09526.0625-.09375-.000871.0015.06328-.09531.0625-.09375-.000781.0016.03194-.09536.03125-.09375-.000688.0016.06309-.126644.0625-.125-.000592.0016.03175-.09543.03125-.09375-.000495.0017.03165-.126702.03125-.125-.000396.0017.000295-.09547 0-.09375-.000295.0017.03144-.126737.03125-.125-.000193.0017.000091-.126745 0-.125-.000091.0017-.000011-.126747 0-.125.000011.0017-.000114-.09549 0-.09375.000114.0017-.000216-.126734 0-.125.000216.0017-.03157-.126718-.03125-.125.000318.0017-.03167-.09545-.03125-.09375.000418.0017-.03177-.126669-.03125-.125l-11.03125-35.375 5.78125-6.90625c-.00126.0015.094908-.09534.09375-.09375-.00116.0016.06355-.126667.0625-.125-.00105.0017.063438-.09548.0625-.09375-.0009378.0017.063321-.126791.0625-.125-.0008211.0018.063201-.126841.0625-.125-.0007009.0018.031828-.126883.03125-.125-.0005775.0019.031702-.126917.03125-.125-.0004517.0019.031574-.126943.03125-.125-.0003238.0019.031445-.12696.03125-.125-.0001946.002.0000645-.126969 0-.125-.0000645.002-.0000659-.126969 0-.125.0000659.002-.000196-.15821 0-.15625.000196.002-.031575-.126943-.03125-.125.0003252.0019-.031703-.126917-.03125-.125.000453.0019-.031829-.126883-.03125-.125.0005789.0019-.031952-.12684-.03125-.125l-1.71875-4.3125c.0010004.002614-.0949915-.1587585-.09375-.15625s-.0639716-.1586308-.0625-.15625-.1266887-.1584821-.125-.15625-.1268909-.1583136-.125-.15625-.1270764-.1268769-.125-.125-.1272435-.1266735-.125-.125-.1586408-.0952054-.15625-.09375-.1900169-.0949744-.1875-.09375-.1588708-.0634826-.15625-.0625-.1902015-.0632321-.1875-.0625-.1590083-.0317251-.15625-.03125-.1902907-.031464-.1875-.03125c.00279.000214-.1902985.0000491-.1875 0 .0028-.0000491-.1902815.0003117-.1875 0 .00278-.0003117-.1902399.031822-.1875.03125.002192-.0004573-.110393.019474-.15625.03125l-7.125 2.125-7.3125-2.125c.00264.0007459-.1901994-.031749-.1875-.03125.0027.0004994-.158984-.031498-.15625-.03125.00273.0002485-.1902452.0000044-.1875 0 .00275-.0000044-.1902332.0002573-.1875 0a1.0300162 1.0300162 0 0 0 -.03125 0z" opacity=".1"/><path d="m-9.8125 9.53125a.94064623.94064623 0 0 0 -.6875.4375l-2.4375 3.75a.94064623.94064623 0 0 0 .0625 1.125l7.03125 8-11.21875 35.4375a.94064623.94064623 0 0 0 .90625 1.21875l28.5625.34375a.94064623.94064623 0 0 0 .90625-1.21875l-11.1875-35.90625 6.125-7.34375a.94064623.94064623 0 0 0 .15625-.9375l-1.71875-4.3125a.94064623.94064623 0 0 0 -1.15625-.5625l-7.40625 2.21875-7.59375-2.21875a.94064623.94064623 0 0 0 -.34375-.03125z" opacity=".15"/><path d="m-9.71875 10.46875-2.4375 3.75 7.375 8.40625-11.375 35.9375 28.5625.34375-11.34375-36.375 6.46875-7.75-1.71875-4.3125-7.65625 2.3125z" opacity=".3"/></g><path d="m40.295065 9.4767617 7.863362 2.3162603 7.639576-2.3162603 1.741903 4.3076793-9.381479 11.195258-10.302027-11.774323z" fill="url(#y)" fill-rule="evenodd"/><path d="m45.259489 21.495894-11.411016 36.057395 28.570312.348381-11.39102-36.444523z" fill="url(#x)" fill-rule="evenodd"/><path d="m45.085299 21.495894c2.961235 1.219332 5.92247.08709 5.92247.08709s5.622615 17.778671 10.396484 33.618732c-3.08049-3.570898-9.760082-31.17764-11.093245-31.528443-1.405175-.369752.824232 15.284335-.234937 16.199699-2.003189-17.767412-3.945631-18.551269-5.164963-16.809366 0 0 .01587-.14282.03803-.342245.05125-.461298.136163-1.225467.136163-1.225467z" fill="url(#w)" fill-rule="evenodd" opacity=".4"/><path d="m68.551239 45.314487a.88339221 11.660777 0 1 1 -1.766785 0 .88339221 11.660777 0 1 1 1.766785 0z" fill="#fefefe" opacity=".2" transform="matrix(.69527793 -.05103913 .05103913 .69527793 1.847376 4.490097)"/><path d="m30.25 8-1.28125 2.34375 6.9375 15.71875s3.381475-7.051058 12.0625-13.4375c-4.594726-.729467-8.650211-2.7881036-11.53125-4.625zm29.34375 0c-2.881039 1.8368964-6.967773 3.895533-11.5625 4.625 8.681025 6.386442 12.062499 13.4375 12.0625 13.4375l6.9375-15.71875-1.28125-2.34375z" fill-rule="evenodd" opacity=".15"/><path d="m32.417742 6.0000006c.61867 2.9530231 7.233597 5.2840334 15.300772 5.2840334 8.067176 0 14.663748-2.3310103 15.280666-5.2840334h-4.926004c-2.256715 1.4767327-5.977602 2.4576898-10.193813 2.4576898-4.21621 0-7.937098-.9809571-10.193812-2.4576898z" opacity=".4"/><path d="m30.25 7-1.28125 2.34375 6.9375 15.71875s3.381475-7.051058 12.0625-13.4375c-4.594726-.729467-8.650211-2.7881036-11.53125-4.625zm29.34375 0c-2.881039 1.8368964-6.967773 3.895533-11.5625 4.625 8.681025 6.386442 12.062499 13.4375 12.0625 13.4375l6.9375-15.71875-1.28125-2.34375z" fill-rule="evenodd" opacity=".3"/><path d="m30.246279 6.0000006-1.266687 2.3348053 6.936618 15.7292141s3.382659-7.048928 12.063684-13.43537c-4.594726-.7294675-8.659885-2.791753-11.540924-4.6286494z" fill="url(#A)" fill-rule="evenodd"/><path d="m59.581136 6.0000006c-2.881039 1.8368964-6.946197 3.8991819-11.540924 4.6286494 8.681025 6.386442 12.063683 13.43537 12.063684 13.43537l6.916512-15.7292141-1.266687-2.3348053z" fill="url(#z)" fill-rule="evenodd"/><path d="m35.152177 6.0000006c2.861963 1.8328854 6.909796 3.8934027 11.540924 4.6286494-6.442798 4.739827-9.950654 9.829984-11.339862 12.145083l.562971 1.290287s3.382659-7.048928 12.063684-13.43537c-4.594726-.7294675-8.658328-2.7920847-11.540924-4.6286494z" fill-rule="evenodd" opacity=".1"/><path d="m48.040212 10.62865c8.681025 6.386442 12.063683 13.43537 12.063684 13.43537l.562972-1.290287c-1.38921-2.315099-4.897064-7.405256-11.339863-12.145083" fill="#fefefe" fill-rule="evenodd" opacity=".8"/><path d="m59.581136 6.0000006c-2.877437 1.8365647-6.946197 3.8991819-11.540924 4.6286494.470953.346469.907039.695422 1.347112 1.044518 5.158272-1.126614 9.528554-3.8072447 12.103895-5.6731674zm5.448764 0 1.668809 3.0516315.321699-.7168262-1.266687-2.3348053z" fill-rule="evenodd" opacity=".1"/><path d="m12 6c-3.324 0-6 2.676-6 6v.53125 70.9375.53125c0 3.324 2.676 6 6 6h.53125 7.46875 30.96875s.24654-18.83702 0-21.78125c-.48626-5.80699-14.2998-38.82533-21.46875-62.21875h-9.5-7.46875z" fill="url(#q)"/><path d="m8 7v81.46875c.306714.274579.640983.51153 1 .71875v-82.1875zm4-1v84h.53125.46875v-84zm4 0v4.25c.344161-.5814256.68333-1.11573 1-1.5625v-2.6875zm0 7.5v10.3125c.332742-.339034.666363-.694301 1-1.0625v-8.125zm4 4.5625v1.375c.217609-.219477.439065-.425554.65625-.625zm-4 9.96875v61.96875h1v-60.8125c-.360368-.399711-.676075-.789177-1-1.15625zm4 4.375v57.59375h1v-56.5c-.356695-.381854-.658934-.726633-1-1.09375zm4 4.3125v53.28125h1v-52.21875c-.333434-.354168-.67332-.715345-1-1.0625zm4 4.25v49.03125h1v-47.96875c-.330497-.352868-.672111-.713188-1-1.0625zm4 4.3125v44.71875h1v-43.65625c-.33155-.359335-.66783-.704165-1-1.0625zm4 4.34375v40.375h1v-39.28125c-.326497-.363246-.669518-.728905-1-1.09375zm4 4.4375v35.9375h1v-34.75c-.338019-.393066-.652472-.788894-1-1.1875zm4 4.78125v31.15625h1v-29.9375c-.315552-.398492-.666553-.80856-1-1.21875z" fill="#fefefe" opacity=".1"/><path d="m43.43965 68.221399c-.24655 2.944235 0 21.600728 0 21.600728h39.68654c1.21378-27.934454-35.72947-48.688104-39.68654-21.600728z" opacity=".15"/><path d="m42.43965 68.221399c-.24655 2.944235 0 21.600728 0 21.600728h39.68654c1.21378-27.934454-35.72947-48.688104-39.68654-21.600728z" opacity=".1"/><g clip-path="url(#s)" fill-rule="evenodd" transform="translate(40)"><path d="m19.40625 4.03125c-.000465.0000493-.124539.031173-.125.03125-.000461.0000768-.124544.031146-.125.03125s-.0933-.0001308-.09375 0c-.000449.0001308-.12456.062343-.125.0625-.00044.0001572-.09332.031067-.09375.03125-.00043.0001831-.09333.062292-.09375.0625-.000419.0002082-.124595.031017-.125.03125-.000312.000179-.03557.045957-.0625.0625-.0081.00496-.03116-.0000591-.03125 0v.03125c-1.517161.9648624-3.326838 2.9036664-5.375 7h.03125c-.000267.000517-.06227.124465-.0625.125-.000228.000535-.06231.124449-.0625.125-.000188.000551-.0311.155687-.03125.15625-.000147.000563-.03115.124428-.03125.125-.000105.000572-.03119.155671-.03125.15625-.000063.000579.00002.124418 0 .125s-.000023.155668 0 .15625-.000066.155672 0 .15625.03114.124428.03125.125c.000109.000572.0311.155688.03125.15625s.03106.12445.03125.125c.000192.00055.06227.124466.0625.125.000232.000534.06223.155735.0625.15625s.06219.124506.0625.125c.000308.000494.09341.09328.09375.09375.000343.00047.06212.124557.0625.125a.96457691.96457691 0 0 0 .03125 0l4.5625 5.25c-1.965786 2.044848-3.838196 4.314279-5.125 5.15625-.0046.003-.02669-.003-.03125 0-.02565.01662-.06226.03108-.0625.03125-.000347.000238-.09342.06224-.09375.0625-.000334.000256-.06218.09348-.0625.09375-.000319.000274-.09345.06221-.09375.0625-.000304.00029-.06221.06219-.0625.0625-.000288.000306-.06223.09343-.0625.09375-.000272.000321-.06225.06217-.0625.0625-.000254.000335-.06226.0934-.0625.09375-.000236.000348-.06228.09339-.0625.09375-.000217.00036-.0623.09338-.0625.09375-.000198.000371-.03107.09337-.03125.09375-.000177.000381-.03109.09336-.03125.09375-.000157.00039-.06236.09335-.0625.09375-.000136.000398-.03114.09334-.03125.09375-.000114.000405.000093.09334 0 .09375s-.03118.124585-.03125.125c-.000071.000415-.0312.09333-.03125.09375-.000048.000418.000026.09333 0 .09375s.000004.09333 0 .09375c-.000004.000421-.000019.12458 0 .125s-.000041.09333 0 .09375c.000041.000419.03119.09333.03125.09375.000064.000416-.000086.124588 0 .125s.03114.09334.03125.09375c.000107.000407.03112.09335.03125.09375.000129.0004.0311.09336.03125.09375.00015.000393.03108.09337.03125.09375.000171.000384.06231.09338.0625.09375.000191.000375.03104.09339.03125.09375.000211.000364.06227.0934.0625.09375.00023.000352.06225.09341.0625.09375.000191.000261.04509.04002.0625.0625.0062.0077.02505.02348.03125.03125 3.54882 4.446996 12.245307 13.255318 20.375 22.125 4.072106 4.442762 8.000445 8.877113 10.96875 12.65625 1.479336 1.883436 2.694855 3.628685 3.59375 5.09375s1.469886 2.711475 1.59375 3.28125c.000162.000659.06228.186857.0625.1875.000218.000643.03098.155628.03125.15625.000273.000622.09343.124404.09375.125.000325.000596.09338.155684.09375.15625.000375.000566.09333.124469.09375.125.000422.000531.09328.124507.09375.125.000467.000493.124493.124549.125.125s.124456.124594.125.125.155673.09339.15625.09375c.000577.000358.124394.06219.125.0625.000606.000307.15562.06225.15625.0625.00063.000253.155601.0623.15625.0625.000649.000198.186836.06236.1875.0625.000664.000142.155576-.000084.15625 0s.155572.03122.15625.03125c.000678.000026.186822.000033.1875 0s.155577-.03116.15625-.03125c.000673-.000091.155588-.0311.15625-.03125.000662-.000149.186853-.03105.1875-.03125.000647-.000205.155623-.06224.15625-.0625s.155648-.06219.15625-.0625c.000602-.000313.124427-.09339.125-.09375.000573-.000364.15571-.09334.15625-.09375.00054-.000412.124498-.09329.125-.09375.000502-.000457.124539-.124502.125-.125s.09333-.124464.09375-.125c.000417-.000536.09338-.15568.09375-.15625.000369-.00057.09343-.124401.09375-.125.000319-.000599.06223-.155625.0625-.15625.000266-.000625.06229-.155605.0625-.15625.000211-.000645.06235-.155589.0625-.15625.000155-.000661.03115-.186828.03125-.1875l.09375-.75c.000133-.000495.01951-.07074.03125-.125.0056-.02605-.00004-.06226 0-.0625.000125-.000749.0312-.186743.03125-.1875.000009-.000191-.000058-.0563 0-.0625-.00012-.01557.000155-.01782 0-.03125-.00031-.02686-.000502-.09156 0-.125-.000043.0028.02186-.176677 0-.4375-.150158-1.793186-.985462-4.517088-2.1875-8.40625-1.204419-3.896868-2.818109-8.774935-4.6875-14.125-3.717534-10.639322-8.354761-23.079994-12.28125-33.15625a.96457691.96457691 0 0 0 -.0625-.1875.96457691.96457691 0 0 0 0-.03125c-.856233-2.1793659-1.65062-4.3975445-2.34375-6.65625-.00003-.0001047.0024-.023923 0-.03125-.01149-.035169-.06232-.1245105-.0625-.125-.00022-.0005915-.06223-.155678-.0625-.15625-.000267-.000572-.06219-.1244512-.0625-.125-.000312-.0005488-.0934-.1244778-.09375-.125-.000354-.0005222-.09335-.1245079-.09375-.125-.000395-.0004921-.09332-.1245411-.09375-.125-.000433-.0004589-.124531-.1245772-.125-.125s-.09325-.093366-.09375-.09375c-.000501-.000384-.12447-.093407-.125-.09375-.00053-.0003427-.155694-.062201-.15625-.0625-.000556-.0002992-.124422-.093496-.125-.09375-.000578-.0002538-.155654-.031043-.15625-.03125-.000596-.0002067-.155639-.062342-.15625-.0625-.000611-.0001584-.155628-.031141-.15625-.03125s-.155622-.031191-.15625-.03125c-.000628-.0000589-.155619.0000084-.15625 0h-9.875c-.000149-.0000071-.01939.0000043-.03125 0-.04745-.000017-.124402-.0000284-.125 0a.96457691.96457691 0 0 0 -.0625 0zm31.59375 64.625s.258594-.000932.375 0l-.375.03125c.000788.01171 0-.03125 0-.03125z" opacity=".1" transform="translate(-40 1)"/><path d="m19.59375 5a.98812041.98812041 0 0 0 -.53125.15625c-1.305817.821253-3.015913 2.6255675-5.03125 6.65625a.98812041.98812041 0 0 0 .125 1.09375l5.15625 5.90625c-2.137868 2.136516-4.216186 4.82112-5.9375 5.9375a.98812041.98812041 0 0 0 -.25 1.46875c3.440081 4.317974 12.21408 13.189999 20.375 22.09375 4.08046 4.451876 8.004237 8.904654 11 12.71875s5.022274 7.127458 5.375 8.75a.98812041.98812041 0 0 0 1.9375-.09375l.125-.875a.98812041.98812041 0 0 0 .03125-.1875c.0014.02759-.0014-.06123 0-.15625s.01664-.145132 0-.34375c-.131002-1.564426-.925762-4.338646-2.125-8.21875s-2.820959-8.75184-4.6875-14.09375c-3.733083-10.683821-8.407727-23.217817-12.34375-33.3125a.98812041.98812041 0 0 0 0-.03125c-.86705-2.206899-1.671132-4.4531632-2.375-6.75a.98812041.98812041 0 0 0 -.9375-.71875z" opacity=".15" transform="translate(-40 1)"/><path d="m19.59375 6c-1.08197.6804712-2.72135 2.3176926-4.6875 6.25l5.75 6.5625c-2.24578 2.062348-4.52743 5.339774-6.75 6.78125 6.68113 8.386124 35.15883 35.78686 36.9375 43.96875l.125-.875c-.0054-.106325.006-.39715 0-.46875-.43788-5.229144-11.20001-35.210143-19.0625-55.375-.87469-2.226346-1.69354-4.5180619-2.40625-6.84375z" opacity=".3" transform="translate(-40 1)"/></g><path d="m29.51377 5.9999999c.71271 2.3256881 1.52785 4.6031031 2.40254 6.8294491 7.86249 20.164857 18.6045 50.162806 19.04238 55.39195.006.0716.0168.360836.0222.467161l-.13344.867584c-1.77867-8.18189-30.24684-35.571503-36.92797-43.957627 2.22257-1.441476 4.49469-4.72261 6.74047-6.784958l-5.76165-6.5625c1.96615-3.9323074 3.61188-5.5705879 4.69385-6.2510591h9.92161z" fill="url(#o)" fill-rule="evenodd"/><path d="m29.51377 5.9999999c.71271 2.3256881 1.52785 4.6031031 2.40254 6.8294491 7.86249 20.164857 18.6045 50.162806 19.04238 55.39195.006.0716.0168.360836.0222.467161l-.13344.867584c-.26462-1.217274-.99695-2.602922-2.06886-4.115466-2.61705-6.915916-11.51164-35.237045-18.28602-52.611229-.87469-2.226346-1.68983-4.503761-2.40254-6.8294491h1.42373z" fill="#525252" fill-rule="evenodd" opacity=".2"/><path d="m44.43965 68.221399c-.24655 2.944235 0 21.600728 0 21.600728h39.68654c1.21378-27.934454-35.72947-48.688104-39.68654-21.600728z" opacity=".3"/><path d="m29.091952 6 9.1875 20.59375c1.67124 4.482447 3.32776 8.990915 4.90625 13.40625l-15.15625-34zm-4.34375 0 27.09375 60.90625c.0039.01892.02743.04381.03125.0625.10465.51188.19138.923179.21875 1.25.006.0716-.0054.362425 0 .46875l-.125.875c-.20083-.923819-.75094-2.110187-1.5625-3.46875l-26.75-60.09375zm-4.3125.1875 22.03125 49.46875c-.72989-.853131-1.47623-1.71534-2.25-2.59375l-20.5625-46.1875c.28844-.2789458.53784-.5127677.78125-.6875zm-2.875 3.34375 4.03125 9.0625-2.25-2.5625-2.4375-5.4375c.22084-.386107.4459-.7329379.65625-1.0625zm4.15625 9.34375 12.0625 27.09375c-.69906-.756353-1.39513-1.500591-2.09375-2.25l-10.75-24.09375c.26017-.268035.52165-.50903.78125-.75zm-2.96875 3.1875 6.65625 14.9375c-.66718-.708852-1.39683-1.480187-2.03125-2.15625-.0111-.01187-.0201-.01939-.0312-.03125l-5.3125-11.9375c.241-.264501.47747-.540635.71875-.8125zm-3.03125 3.03125 1.25 2.75c-.74078-.842928-1.42834-1.610899-1.9375-2.25.22491-.145871.46165-.31962.6875-.5z" fill="#fefefe" opacity=".1"/><path d="m19.59216 5.9999999c-1.08197.6804712-2.7277 2.3187517-4.69385 6.2510591l5.76165 6.5625c-2.24578 2.062348-4.5179 5.343482-6.74047 6.784958 6.68113 8.386124 35.1493 35.775737 36.92797 43.957627l.13347-.867584c-.006-.106325-.0162-.395562-.0222-.467161-.0469-.56011-.24451-1.450085-.51165-2.536017-.004-.0057.004-.01655 0-.02225-6.73194-10.838425-29.25786-32.726761-35.10385-40.064619 2.22257-1.441476 4.49469-4.72261 6.74047-6.784958l-5.76166-6.5625c1.96616-3.9323074 3.61189-5.5705879 4.69386-6.2510591-.52552 0-1.06383 0-1.42373 0z" fill="#fefefe" fill-rule="evenodd" opacity=".15"/><path d="m66.5 6c-7.16895 23.39342-20.98249 56.41176-21.46875 62.21875-.24654 2.94423 0 21.78125 0 21.78125h30.96875 7.46875.53125c3.324 0 6-2.676 6-6v-.53125-70.9375-.53125c0-3.324-2.676-6-6-6h-.53125-7.46875z" fill="url(#p)"/><path d="m70.11002 13.294724c-11.72069 23.393424-24.20413 49.119688-24.99914 54.926675-.40307 2.944235 0 21.778601 0 21.778601h2.32769s-.40307-18.834366 0-21.778601c.79501-5.806987 13.27845-31.533251 24.99914-54.926675-.35731 0-2.32769 0-2.32769 0z" fill="#fefefe" opacity=".15"/><path d="m29.51377 5.9999999c.71271 2.3256881 1.52785 4.6031031 2.40254 6.8294491 6.6678 17.100836 15.38376 41.224968 18.15255 51.365466-3.89029-20.08145-9.47474-38.724862-16.06886-58.1949151 0 0-4.10706 0-4.48623 0z" fill="url(#n)" fill-rule="evenodd" opacity=".4"/><path d="m88.07832 7v81.46875c-.30671.274579-.64098.51153-1 .71875v-82.1875zm-4-1v84h-.53125-.46875v-84zm-4 0v4.25c-.34416-.5814256-.68333-1.11573-1-1.5625v-2.6875zm0 7.5v10.3125c-.33274-.339034-.66636-.694301-1-1.0625v-8.125zm-4 4.5625v1.375c-.21761-.219477-.43906-.425554-.65625-.625zm4 9.96875v61.96875h-1v-60.8125c.36037-.399711.67608-.789177 1-1.15625zm-4 4.375v57.59375h-1v-56.5c.3567-.381854.65894-.726633 1-1.09375zm-4 4.3125v53.28125h-1v-52.21875c.33344-.354168.67332-.715345 1-1.0625zm-4 4.25v49.03125h-1v-47.96875c.3305-.352868.67211-.713188 1-1.0625zm-4 4.3125v44.71875h-1v-43.65625c.33155-.359335.66783-.704165 1-1.0625zm-4 4.34375v40.375h-1v-39.28125c.3265-.363246.66952-.728905 1-1.09375zm-4 4.4375v35.9375h-1v-34.75c.33802-.393066.65248-.788894 1-1.1875zm-4 4.78125v31.15625h-1v-29.9375c.31556-.398492.66656-.80856 1-1.21875z" fill="#fefefe" opacity=".1"/><g clip-path="url(#s)" fill-rule="evenodd" transform="matrix(-1 0 0 1 56.07832 0)"><path d="m19.40625 4.03125c-.000465.0000493-.124539.031173-.125.03125-.000461.0000768-.124544.031146-.125.03125s-.0933-.0001308-.09375 0c-.000449.0001308-.12456.062343-.125.0625-.00044.0001572-.09332.031067-.09375.03125-.00043.0001831-.09333.062292-.09375.0625-.000419.0002082-.124595.031017-.125.03125-.000312.000179-.03557.045957-.0625.0625-.0081.00496-.03116-.0000591-.03125 0v.03125c-1.517161.9648624-3.326838 2.9036664-5.375 7h.03125c-.000267.000517-.06227.124465-.0625.125-.000228.000535-.06231.124449-.0625.125-.000188.000551-.0311.155687-.03125.15625-.000147.000563-.03115.124428-.03125.125-.000105.000572-.03119.155671-.03125.15625-.000063.000579.00002.124418 0 .125s-.000023.155668 0 .15625-.000066.155672 0 .15625.03114.124428.03125.125c.000109.000572.0311.155688.03125.15625s.03106.12445.03125.125c.000192.00055.06227.124466.0625.125.000232.000534.06223.155735.0625.15625s.06219.124506.0625.125c.000308.000494.09341.09328.09375.09375.000343.00047.06212.124557.0625.125a.96457691.96457691 0 0 0 .03125 0l4.5625 5.25c-1.965786 2.044848-3.838196 4.314279-5.125 5.15625-.0046.003-.02669-.003-.03125 0-.02565.01662-.06226.03108-.0625.03125-.000347.000238-.09342.06224-.09375.0625-.000334.000256-.06218.09348-.0625.09375-.000319.000274-.09345.06221-.09375.0625-.000304.00029-.06221.06219-.0625.0625-.000288.000306-.06223.09343-.0625.09375-.000272.000321-.06225.06217-.0625.0625-.000254.000335-.06226.0934-.0625.09375-.000236.000348-.06228.09339-.0625.09375-.000217.00036-.0623.09338-.0625.09375-.000198.000371-.03107.09337-.03125.09375-.000177.000381-.03109.09336-.03125.09375-.000157.00039-.06236.09335-.0625.09375-.000136.000398-.03114.09334-.03125.09375-.000114.000405.000093.09334 0 .09375s-.03118.124585-.03125.125c-.000071.000415-.0312.09333-.03125.09375-.000048.000418.000026.09333 0 .09375s.000004.09333 0 .09375c-.000004.000421-.000019.12458 0 .125s-.000041.09333 0 .09375c.000041.000419.03119.09333.03125.09375.000064.000416-.000086.124588 0 .125s.03114.09334.03125.09375c.000107.000407.03112.09335.03125.09375.000129.0004.0311.09336.03125.09375.00015.000393.03108.09337.03125.09375.000171.000384.06231.09338.0625.09375.000191.000375.03104.09339.03125.09375.000211.000364.06227.0934.0625.09375.00023.000352.06225.09341.0625.09375.000191.000261.04509.04002.0625.0625.0062.0077.02505.02348.03125.03125 3.54882 4.446996 12.245307 13.255318 20.375 22.125 4.072106 4.442762 8.000445 8.877113 10.96875 12.65625 1.479336 1.883436 2.694855 3.628685 3.59375 5.09375s1.469886 2.711475 1.59375 3.28125c.000162.000659.06228.186857.0625.1875.000218.000643.03098.155628.03125.15625.000273.000622.09343.124404.09375.125.000325.000596.09338.155684.09375.15625.000375.000566.09333.124469.09375.125.000422.000531.09328.124507.09375.125.000467.000493.124493.124549.125.125s.124456.124594.125.125.155673.09339.15625.09375c.000577.000358.124394.06219.125.0625.000606.000307.15562.06225.15625.0625.00063.000253.155601.0623.15625.0625.000649.000198.186836.06236.1875.0625.000664.000142.155576-.000084.15625 0s.155572.03122.15625.03125c.000678.000026.186822.000033.1875 0s.155577-.03116.15625-.03125c.000673-.000091.155588-.0311.15625-.03125.000662-.000149.186853-.03105.1875-.03125.000647-.000205.155623-.06224.15625-.0625s.155648-.06219.15625-.0625c.000602-.000313.124427-.09339.125-.09375.000573-.000364.15571-.09334.15625-.09375.00054-.000412.124498-.09329.125-.09375.000502-.000457.124539-.124502.125-.125s.09333-.124464.09375-.125c.000417-.000536.09338-.15568.09375-.15625.000369-.00057.09343-.124401.09375-.125.000319-.000599.06223-.155625.0625-.15625.000266-.000625.06229-.155605.0625-.15625.000211-.000645.06235-.155589.0625-.15625.000155-.000661.03115-.186828.03125-.1875l.09375-.75c.000133-.000495.01951-.07074.03125-.125.0056-.02605-.00004-.06226 0-.0625.000125-.000749.0312-.186743.03125-.1875.000009-.000191-.000058-.0563 0-.0625-.00012-.01557.000155-.01782 0-.03125-.00031-.02686-.000502-.09156 0-.125-.000043.0028.02186-.176677 0-.4375-.150158-1.793186-.985462-4.517088-2.1875-8.40625-1.204419-3.896868-2.818109-8.774935-4.6875-14.125-3.717534-10.639322-8.354761-23.079994-12.28125-33.15625a.96457691.96457691 0 0 0 -.0625-.1875.96457691.96457691 0 0 0 0-.03125c-.856233-2.1793659-1.65062-4.3975445-2.34375-6.65625-.00003-.0001047.0024-.023923 0-.03125-.01149-.035169-.06232-.1245105-.0625-.125-.00022-.0005915-.06223-.155678-.0625-.15625-.000267-.000572-.06219-.1244512-.0625-.125-.000312-.0005488-.0934-.1244778-.09375-.125-.000354-.0005222-.09335-.1245079-.09375-.125-.000395-.0004921-.09332-.1245411-.09375-.125-.000433-.0004589-.124531-.1245772-.125-.125s-.09325-.093366-.09375-.09375c-.000501-.000384-.12447-.093407-.125-.09375-.00053-.0003427-.155694-.062201-.15625-.0625-.000556-.0002992-.124422-.093496-.125-.09375-.000578-.0002538-.155654-.031043-.15625-.03125-.000596-.0002067-.155639-.062342-.15625-.0625-.000611-.0001584-.155628-.031141-.15625-.03125s-.155622-.031191-.15625-.03125c-.000628-.0000589-.155619.0000084-.15625 0h-9.875c-.000149-.0000071-.01939.0000043-.03125 0-.04745-.000017-.124402-.0000284-.125 0a.96457691.96457691 0 0 0 -.0625 0zm31.59375 64.625s.258594-.000932.375 0l-.375.03125c.000788.01171 0-.03125 0-.03125z" opacity=".1" transform="translate(-40 1)"/><path d="m19.59375 5a.98812041.98812041 0 0 0 -.53125.15625c-1.305817.821253-3.015913 2.6255675-5.03125 6.65625a.98812041.98812041 0 0 0 .125 1.09375l5.15625 5.90625c-2.137868 2.136516-4.216186 4.82112-5.9375 5.9375a.98812041.98812041 0 0 0 -.25 1.46875c3.440081 4.317974 12.21408 13.189999 20.375 22.09375 4.08046 4.451876 8.004237 8.904654 11 12.71875s5.022274 7.127458 5.375 8.75a.98812041.98812041 0 0 0 1.9375-.09375l.125-.875a.98812041.98812041 0 0 0 .03125-.1875c.0014.02759-.0014-.06123 0-.15625s.01664-.145132 0-.34375c-.131002-1.564426-.925762-4.338646-2.125-8.21875s-2.820959-8.75184-4.6875-14.09375c-3.733083-10.683821-8.407727-23.217817-12.34375-33.3125a.98812041.98812041 0 0 0 0-.03125c-.86705-2.206899-1.671132-4.4531632-2.375-6.75a.98812041.98812041 0 0 0 -.9375-.71875z" opacity=".15" transform="translate(-40 1)"/><path d="m19.59375 6c-1.08197.6804712-2.72135 2.3176926-4.6875 6.25l5.75 6.5625c-2.24578 2.062348-4.52743 5.339774-6.75 6.78125 6.68113 8.386124 35.15883 35.78686 36.9375 43.96875l.125-.875c-.0054-.106325.006-.39715 0-.46875-.43788-5.229144-11.20001-35.210143-19.0625-55.375-.87469-2.226346-1.69354-4.5180619-2.40625-6.84375z" opacity=".3" transform="translate(-40 1)"/></g><path d="m66.48623 5.9999999c-.71271 2.3256881-1.52785 4.6031031-2.40254 6.8294491-7.86249 20.164857-18.6045 50.162806-19.04238 55.39195-.006.0716-.0168.360836-.0222.467161l.13344.867584c1.77867-8.18189 30.24684-35.571503 36.92797-43.957627-2.22257-1.441476-4.49469-4.72261-6.74047-6.784958l5.76166-6.5625c-1.96616-3.9323074-3.61189-5.5705879-4.69386-6.2510591-2.50801 0-9.92161 0-9.92161 0z" fill="url(#m)" fill-rule="evenodd"/><path d="m66.48623 5.9999999c-.71271 2.3256881-1.52785 4.6031031-2.40254 6.8294491-7.86249 20.164857-18.6045 50.162806-19.04238 55.39195-.006.0716-.0168.360836-.0222.467161l.13344.867584c.26463-1.217274.99696-2.602922 2.06886-4.115466 2.61705-6.915916 11.51164-35.237045 18.28602-52.611229.87469-2.226346 1.68983-4.503761 2.40254-6.8294491-.3386 0-1.42373 0-1.42373 0z" fill="url(#l)" fill-rule="evenodd" opacity=".2"/><g id="E" transform="matrix(.71186441 0 0 .71186441 2.44068 5.288136)"><path d="m73.958869 99.265976a3.7479157 3.7479157 0 1 1 -7.495832 0 3.7479157 3.7479157 0 1 1 7.495832 0z" fill="#3d3d3d" stroke="url(#r)" stroke-linecap="square" stroke-linejoin="round" stroke-width="1.504266" transform="matrix(-.6603334 -.6603334 .6603334 -.6603334 48.813469 203.91181)"/><path d="m73.958869 99.265976a3.7479157 3.7479157 0 1 1 -7.495832 0 3.7479157 3.7479157 0 1 1 7.495832 0z" fill="none" stroke="url(#r)" stroke-linecap="square" stroke-linejoin="round" stroke-width="1.435672" transform="matrix(.518912 .518912 -.518912 .518912 83.076999 4.056391)"/></g><use height="128" transform="translate(0 11.389831)" width="128" xlink:href="#E"/><g fill-rule="evenodd"><path d="m30.2787 9.3009408c-1.3615 1.3383092-7.35429 6.5356992-13.07281 12.9633062 8.2312-7.598029 12.51799-10.106649 13.97034-10.833687-.35434-.908574-.56642-1.204323-.89753-2.1296192z" opacity=".3"/><path d="m65.26759 9.0493986c1.3615 1.3383094 7.35428 6.5356994 13.0728 12.9633054-8.2312-7.598028-12.51798-10.106648-13.97033-10.833686.35433-.908574.56642-1.2043231.89753-2.1296194z" opacity=".3"/><path d="m65.40566 69.547253c.17787-1.067206 0-8.35976 0-8.35976l24.54567-3.201609-22.90688 4.802414z" fill="#464342"/><path d="m65.59432 69.421481c.17787-1.067206 1.00617-6.724734 1.00617-6.724734l19.76637-3.684229-18.63067 4.78195z" fill="#fefefe" opacity=".15"/><path d="m66.476054 5.9999999c-.71271 2.3256881-1.52785 4.6031031-2.40254 6.8294491-6.6678 17.100836-15.38376 41.224968-18.15255 51.365466 3.89029-20.08145 9.47474-38.724862 16.06886-58.1949151h4.48623z" fill="url(#t)" opacity=".4"/></g><path d="m68.03125 6-9.1875 20.59375c-1.67124 4.482447-3.32776 8.990915-4.90625 13.40625l15.15625-34zm4.34375 0-27.09375 60.90625c-.0039.01892-.02743.04381-.03125.0625-.10465.51188-.19138.923179-.21875 1.25-.006.0716.0054.362425 0 .46875l.125.875c.20083-.923819.75094-2.110187 1.5625-3.46875l26.75-60.09375zm4.3125.1875-22.03125 49.46875c.72989-.853131 1.47623-1.71534 2.25-2.59375l20.5625-46.1875c-.28844-.2789458-.53784-.5127677-.78125-.6875zm2.875 3.34375-4.03125 9.0625 2.25-2.5625 2.4375-5.4375c-.22084-.386107-.4459-.7329379-.65625-1.0625zm-4.15625 9.34375-12.0625 27.09375c.69906-.756353 1.39513-1.500591 2.09375-2.25l10.75-24.09375c-.26017-.268035-.52165-.50903-.78125-.75zm2.96875 3.1875-6.65625 14.9375c.66718-.708852 1.39683-1.480187 2.03125-2.15625.0111-.01187.0201-.01939.0312-.03125l5.3125-11.9375c-.241-.264501-.47747-.540635-.71875-.8125zm3.03125 3.03125-1.25 2.75c.74078-.842928 1.42834-1.610899 1.9375-2.25-.22491-.145871-.46165-.31962-.6875-.5z" fill="#fefefe" opacity=".1"/><rect height="66" rx="12" style="opacity:.1;stroke:#fefefe;stroke-width:.5;stroke-linecap:round;clip-path:url(#f);fill:url(#d);filter:url(#c)" width="66" x="15" y="15"/><path d="m12 6c-3.324 0-6 2.676-6 6v2 68 2c0 .334721.04135.6507.09375.96875.0487.295596.09704.596915.1875.875.00988.03038.020892.0636.03125.09375.098865.287771.2348802.547452.375.8125.1445918.273507.3156161.535615.5.78125s.3737765.473472.59375.6875c.439947.428056.94291.814526 1.5 1.09375.278545.139612.5734731.246947.875.34375-.2562018-.100222-.4867109-.236272-.71875-.375-.00741-.0044-.023866.0045-.03125 0-.031933-.0193-.062293-.04251-.09375-.0625-.120395-.0767-.2310226-.163513-.34375-.25-.1061728-.0808-.2132809-.161112-.3125-.25-.1779299-.161433-.3474596-.345388-.5-.53125-.1075789-.130255-.2183939-.265285-.3125-.40625-.025089-.03838-.038446-.08587-.0625-.125-.064763-.103032-.1302275-.204517-.1875-.3125-.1010083-.194706-.2056748-.415701-.28125-.625-.00796-.02181-.023589-.04055-.03125-.0625-.0318251-.09195-.0358045-.186831-.0625-.28125-.0303323-.106618-.0703894-.203031-.09375-.3125-.0728786-.341512-.125-.698205-.125-1.0625v-2-68-2c0-2.781848 2.2181517-5 5-5h2 68 2c2.781848 0 5 2.218152 5 5v2 68 2c0 .364295-.05212.720988-.125 1.0625-.04415.206893-.08838.397658-.15625.59375-.0077.02195-.0233.04069-.03125.0625-.06274.173739-.138383.367449-.21875.53125-.04158.0828-.07904.169954-.125.25-.0546.09721-.126774.18835-.1875.28125-.09411.140965-.204921.275995-.3125.40625-.143174.17445-.303141.346998-.46875.5-.01117.0102-.01998.02115-.03125.03125-.138386.125556-.285091.234436-.4375.34375-.102571.07315-.204318.153364-.3125.21875-.0074.0045-.02384-.0044-.03125 0-.232039.138728-.462548.274778-.71875.375.301527-.0968.596455-.204138.875-.34375.55709-.279224 1.060053-.665694 1.5-1.09375.219973-.214028.409366-.441865.59375-.6875s.355408-.507743.5-.78125c.14012-.265048.276135-.524729.375-.8125.01041-.03078.02133-.06274.03125-.09375.09046-.278085.1388-.579404.1875-.875.0524-.31805.09375-.634029.09375-.96875v-2-68-2c0-3.324-2.676-6-6-6z" fill="url(#b)" opacity=".3"/><path d="m12 90c-3.324 0-6-2.676-6-6v-2-68-2c0-.334721.04135-.6507.09375-.96875.0487-.295596.09704-.596915.1875-.875.00988-.03038.020892-.0636.03125-.09375.098865-.287771.2348802-.547452.375-.8125.1445918-.273507.3156161-.535615.5-.78125s.3737765-.473472.59375-.6875c.439947-.428056.94291-.814526 1.5-1.09375.278545-.139612.5734731-.246947.875-.34375-.2562018.100222-.4867109.236272-.71875.375-.00741.0044-.023866-.0045-.03125 0-.031933.0193-.062293.04251-.09375.0625-.120395.0767-.2310226.163513-.34375.25-.1061728.0808-.2132809.161112-.3125.25-.1779299.161433-.3474596.345388-.5.53125-.1075789.130255-.2183939.265285-.3125.40625-.025089.03838-.038446.08587-.0625.125-.064763.103032-.1302275.204517-.1875.3125-.1010083.194706-.2056748.415701-.28125.625-.00796.02181-.023589.04055-.03125.0625-.0318251.09195-.0358045.186831-.0625.28125-.0303323.106618-.0703894.203031-.09375.3125-.0728786.341512-.125.698205-.125 1.0625v2 68 2c0 2.781848 2.2181517 5 5 5h2 68 2c2.781848 0 5-2.218152 5-5v-2-68-2c0-.364295-.05212-.720988-.125-1.0625-.04415-.206893-.08838-.397658-.15625-.59375-.0077-.02195-.0233-.04069-.03125-.0625-.06274-.173739-.138383-.367449-.21875-.53125-.04158-.0828-.07904-.169954-.125-.25-.0546-.09721-.126774-.18835-.1875-.28125-.09411-.140965-.204921-.275995-.3125-.40625-.143174-.17445-.303141-.346998-.46875-.5-.01117-.0102-.01998-.02115-.03125-.03125-.138386-.125556-.285091-.234436-.4375-.34375-.102571-.07315-.204318-.153364-.3125-.21875-.0074-.0045-.02384.0044-.03125 0-.232039-.138728-.462548-.274778-.71875-.375.301527.0968.596455.204138.875.34375.55709.279224 1.060053.665694 1.5 1.09375.219973.214028.409366.441865.59375.6875s.355408.507743.5.78125c.14012.265048.276135.524729.375.8125.01041.03078.02133.06274.03125.09375.09046.278085.1388.579404.1875.875.0524.31805.09375.634029.09375.96875v2 68 2c0 3.324-2.676 6-6 6z" fill="url(#e)" opacity=".2"/></svg>