<svg height="96" width="96" xmlns="http://www.w3.org/2000/svg" xmlns:xlink="http://www.w3.org/1999/xlink"><linearGradient id="a"><stop offset="0" stop-color="#fefefe"/><stop offset="1" stop-color="#fefefe" stop-opacity="0"/></linearGradient><linearGradient id="b" gradientUnits="userSpaceOnUse" x1="36.357143" x2="36.357143" xlink:href="#a" y1="6" y2="63.893143"/><radialGradient id="c" cx="48" cy="90.171875" gradientTransform="matrix(1.1573129 0 0 .99590774 -7.551021 .197132)" gradientUnits="userSpaceOnUse" r="42" xlink:href="#a"/><linearGradient id="d" gradientTransform="scale(1.0058652 .994169)" gradientUnits="userSpaceOnUse" x1="48" x2="48" y1="90" y2="5.987717"><stop offset="0" stop-color="#323232"/><stop offset="1" stop-color="#505050" stop-opacity=".968627"/></linearGradient><linearGradient id="e" gradientTransform="matrix(1.0058652 0 0 .994169 100 0)" gradientUnits="userSpaceOnUse" x1="45.447727" x2="45.447727" y1="92.539597" y2="7.01654"><stop offset="0"/><stop offset="1" stop-opacity=".588235"/></linearGradient><linearGradient id="f" gradientTransform="matrix(1.0238095 0 0 1.0119048 -1.142857 -98.071429)" gradientUnits="userSpaceOnUse" x1="32.251034" x2="32.251034" xlink:href="#e" y1="6.131708" y2="90.238609"/><linearGradient id="g" gradientTransform="translate(0 -97)" gradientUnits="userSpaceOnUse" x1="32.251034" x2="32.251034" xlink:href="#e" y1="6.131708" y2="90.238609"/><linearGradient id="h" gradientUnits="userSpaceOnUse" x1="78" x2="78" y1="48" y2="60"><stop offset="0" stop-color="#f00"/><stop offset="1" stop-color="#ff006b"/></linearGradient><linearGradient id="i" gradientUnits="userSpaceOnUse" x1="71" x2="77" y1="34" y2="45"><stop offset="0" stop-color="#ff8200"/><stop offset="1" stop-color="#ff4700"/></linearGradient><linearGradient id="j" gradientUnits="userSpaceOnUse" x1="58" x2="68" y1="25" y2="31"><stop offset="0" stop-color="#ffd500"/><stop offset="1" stop-color="#ff9a00"/></linearGradient><linearGradient id="k" gradientUnits="userSpaceOnUse" x1="42" x2="54" y1="32" y2="32"><stop offset="0" stop-color="#46cc00"/><stop offset="1" stop-color="#85cc00"/></linearGradient><linearGradient id="l" gradientUnits="userSpaceOnUse" x1="28" x2="38.099506" y1="31" y2="25.169048"><stop offset="0" stop-color="#00b4b4"/><stop offset="1" stop-color="#00b464"/></linearGradient><linearGradient id="m" gradientUnits="userSpaceOnUse" x1="19" x2="25" y1="44" y2="34"><stop offset="0" stop-color="#004bcc"/><stop offset="1" stop-color="#0e67ff"/></linearGradient><linearGradient id="n" gradientUnits="userSpaceOnUse" x1="18" x2="18" y1="60" y2="47.958405"><stop offset="0" stop-color="#661c99"/><stop offset="1" stop-color="#5e12ac"/></linearGradient><filter id="o" color-interpolation-filters="sRGB" height="1.407143" width="1.2375" x="-.11875" y="-.203571"><feGaussianBlur stdDeviation="4.0132677"/></filter><g><g fill="url(#f)"><path d="m12-95.03125c-5.5110903 0-10.03125 4.52016-10.03125 10.03125v71c0 5.5110902 4.5201598 10.03125 10.03125 10.03125h72c5.51109 0 10.03125-4.5201597 10.03125-10.03125v-71c0-5.51109-4.52016-10.03125-10.03125-10.03125z" opacity=".08" transform="scale(1 -1)"/><path d="m12-94.03125c-4.971633 0-9.03125 4.059617-9.03125 9.03125v71c0 4.9716329 4.0596171 9.03125 9.03125 9.03125h72c4.971633 0 9.03125-4.059617 9.03125-9.03125v-71c0-4.971633-4.059617-9.03125-9.03125-9.03125z" opacity=".1" transform="scale(1 -1)"/><path d="m12-93c-4.4091333 0-8 3.590867-8 8v71c0 4.4091333 3.5908667 8 8 8h72c4.409133 0 8-3.5908667 8-8v-71c0-4.409133-3.590867-8-8-8z" opacity=".2" transform="scale(1 -1)"/><rect height="85" opacity=".3" rx="7" transform="scale(1 -1)" width="86" x="5" y="-92"/></g><rect fill="url(#g)" height="84" opacity=".45" rx="6" transform="scale(1 -1)" width="84" x="6" y="-91"/></g><rect fill="url(#d)" height="84" rx="6" width="84" x="6" y="6"/><path d="m12 6c-3.324 0-6 2.676-6 6v2 68 2c0 .334721.04135.6507.09375.96875.0487.295596.09704.596915.1875.875.00988.03038.020892.0636.03125.09375.098865.287771.2348802.547452.375.8125.1445918.273507.3156161.535615.5.78125s.3737765.473472.59375.6875c.439947.428056.94291.814526 1.5 1.09375.278545.139612.5734731.246947.875.34375-.2562018-.100222-.4867109-.236272-.71875-.375-.00741-.0044-.023866.0045-.03125 0-.031933-.0193-.062293-.04251-.09375-.0625-.120395-.0767-.2310226-.163513-.34375-.25-.1061728-.0808-.2132809-.161112-.3125-.25-.1779299-.161433-.3474596-.345388-.5-.53125-.1075789-.130255-.2183939-.265285-.3125-.40625-.025089-.03838-.038446-.08587-.0625-.125-.064763-.103032-.1302275-.204517-.1875-.3125-.1010083-.194706-.2056748-.415701-.28125-.625-.00796-.02181-.023589-.04055-.03125-.0625-.0318251-.09195-.0358045-.186831-.0625-.28125-.0303323-.106618-.0703894-.203031-.09375-.3125-.0728786-.341512-.125-.698205-.125-1.0625v-2-68-2c0-2.781848 2.2181517-5 5-5h2 68 2c2.781848 0 5 2.218152 5 5v2 68 2c0 .364295-.05212.720988-.125 1.0625-.04415.206893-.08838.397658-.15625.59375-.0077.02195-.0233.04069-.03125.0625-.06274.173739-.138383.367449-.21875.53125-.04158.0828-.07904.169954-.125.25-.0546.09721-.126774.18835-.1875.28125-.09411.140965-.204921.275995-.3125.40625-.143174.17445-.303141.346998-.46875.5-.01117.0102-.01998.02115-.03125.03125-.138386.125556-.285091.234436-.4375.34375-.102571.07315-.204318.153364-.3125.21875-.0074.0045-.02384-.0044-.03125 0-.232039.138728-.462548.274778-.71875.375.301527-.0968.596455-.204138.875-.34375.55709-.279224 1.060053-.665694 1.5-1.09375.219973-.214028.409366-.441865.59375-.6875s.355408-.507743.5-.78125c.14012-.265048.276135-.524729.375-.8125.01041-.03078.02133-.06274.03125-.09375.09046-.278085.1388-.579404.1875-.875.0524-.31805.09375-.634029.09375-.96875v-2-68-2c0-3.324-2.676-6-6-6z" fill="url(#b)" opacity=".2"/><path d="m12 90c-3.324 0-6-2.676-6-6v-2-68-2c0-.334721.04135-.6507.09375-.96875.0487-.295596.09704-.596915.1875-.875.00988-.03038.020892-.0636.03125-.09375.098865-.287771.2348802-.547452.375-.8125.1445918-.273507.3156161-.535615.5-.78125s.3737765-.473472.59375-.6875c.439947-.428056.94291-.814526 1.5-1.09375.278545-.139612.5734731-.246947.875-.34375-.2562018.100222-.4867109.236272-.71875.375-.00741.0044-.023866-.0045-.03125 0-.031933.0193-.062293.04251-.09375.0625-.120395.0767-.2310226.163513-.34375.25-.1061728.0808-.2132809.161112-.3125.25-.1779299.161433-.3474596.345388-.5.53125-.1075789.130255-.2183939.265285-.3125.40625-.025089.03838-.038446.08587-.0625.125-.064763.103032-.1302275.204517-.1875.3125-.1010083.194706-.2056748.415701-.28125.625-.00796.02181-.023589.04055-.03125.0625-.0318251.09195-.0358045.186831-.0625.28125-.0303323.106618-.0703894.203031-.09375.3125-.0728786.341512-.125.698205-.125 1.0625v2 68 2c0 2.781848 2.2181517 5 5 5h2 68 2c2.781848 0 5-2.218152 5-5v-2-68-2c0-.364295-.05212-.720988-.125-1.0625-.04415-.206893-.08838-.397658-.15625-.59375-.0077-.02195-.0233-.04069-.03125-.0625-.06274-.173739-.138383-.367449-.21875-.53125-.04158-.0828-.07904-.169954-.125-.25-.0546-.09721-.126774-.18835-.1875-.28125-.09411-.140965-.204921-.275995-.3125-.40625-.143174-.17445-.303141-.346998-.46875-.5-.01117-.0102-.01998-.02115-.03125-.03125-.138386-.125556-.285091-.234436-.4375-.34375-.102571-.07315-.204318-.153364-.3125-.21875-.0074-.0045-.02384.0044-.03125 0-.232039-.138728-.462548-.274778-.71875-.375.301527.0968.596455.204138.875.34375.55709.279224 1.060053.665694 1.5 1.09375.219973.214028.409366.441865.59375.6875s.355408.507743.5.78125c.14012.265048.276135.524729.375.8125.01041.03078.02133.06274.03125.09375.09046.278085.1388.579404.1875.875.0524.31805.09375.634029.09375.96875v2 68 2c0 3.324-2.676 6-6 6z" fill="url(#c)" opacity=".2"/><g filter="url(#o)" transform="matrix(.78904945 0 0 .78904945 7.462317 -5.861865)"><g transform="matrix(1.1265313 0 0 1.1265313 -3.848904 13.914333)"><path d="m78 48c-3.313709 0-6 2.68629-6 6s2.686291 6 6 6 6-2.68629 6-6-2.686291-6-6-6zm-12 2c-2.209139 0-4 1.79086-4 4s1.790861 4 4 4 4-1.79086 4-4-1.790861-4-4-4zm-8 2c-1.104569 0-2 .89543-2 2s.895431 2 2 2 2-.89543 2-2-.895431-2-2-2z"/><path d="m70.980762 33.80385c-2.869756 1.65685-3.853007 5.32639-2.196152 8.19615 1.656854 2.86976 5.326396 3.85301 8.196152 2.19615 2.869756-1.65685 3.853007-5.32639 2.196153-8.19615-1.656855-2.86976-5.326397-3.85301-8.196153-2.19615zm-9.392305 7.73205c-1.91317 1.10457-2.568671 3.55093-1.464101 5.4641 1.104569 1.91317 3.550931 2.56867 5.464101 1.4641 1.913171-1.10457 2.568671-3.55093 1.464102-5.4641-1.10457-1.91317-3.550931-2.56867-5.464102-1.4641zm-5.928203 5.73205c-.956585.55228-1.284335 1.77546-.732051 2.73205.552285.95659 1.775466 1.28434 2.732051.73205.956585-.55228 1.284335-1.77546.732051-2.73205-.552285-.95659-1.775466-1.28433-2.732051-.73205z"/><path d="m57.803848 25.01924c-1.656855 2.86975-.673604 6.5393 2.196152 8.19615s6.539298.6736 8.196152-2.19615c1.656855-2.86976.673604-6.5393-2.196152-8.19615-2.869756-1.65686-6.539298-.67361-8.196152 2.19615zm-4.26795 11.3923c-1.104569 1.91317-.449068 4.35953 1.464102 5.4641s4.359532.44907 5.464102-1.4641c1.104569-1.91317.449068-4.35953-1.464102-5.4641s-4.359532-.44907-5.464102 1.4641zm-2.267949 7.92821c-.552284.95658-.224534 2.17976.732051 2.73205.956585.55228 2.179766.22453 2.732051-.73205.552284-.95659.224534-2.17977-.732051-2.73205-.956585-.55229-2.179766-.22454-2.732051.73205z"/><path d="m42.000001 24c-.000001 3.31371 2.68629 6 5.999999 6s6-2.68629 6-6-2.686291-6-6-6-6 2.68629-5.999999 6zm1.999999 12c0 2.20914 1.790862 4 4 4 2.209139 0 4-1.79086 4.000001-4-.000001-2.20914-1.790863-4-4.000001-4s-4 1.79086-4 4zm2 8c.000001 1.10457.895431 2 2 2s2-.89543 2-2-.895431-2-2-2-2 .89543-2 2z"/><path d="m27.803849 31.01924c1.656853 2.86975 5.326395 3.85301 8.196151 2.19615 2.869756-1.65685 3.853007-5.3264 2.196152-8.19615-1.656854-2.86976-5.326396-3.85301-8.196152-2.19615-2.869756 1.65685-3.853007 5.32639-2.196151 8.19615zm7.732049 9.3923c1.10457 1.91317 3.550932 2.56867 5.464102 1.4641 1.913171-1.10457 2.568671-3.55093 1.464103-5.4641-1.104571-1.91317-3.550933-2.56867-5.464103-1.4641s-2.568671 3.55093-1.464102 5.4641zm5.732051 5.92821c.552286.95658 1.775466 1.28433 2.732051.73205.956585-.55229 1.284335-1.77547.732051-2.73205-.552285-.95659-1.775466-1.28434-2.732051-.73205-.956585.55228-1.284335 1.77546-.732051 2.73205z"/><path d="m19.019239 44.19615c2.869755 1.65686 6.539297.67361 8.196152-2.19615 1.656854-2.86976.673603-6.5393-2.196153-8.19615-2.869756-1.65686-6.539298-.67361-8.196152 2.19615-1.656855 2.86976-.673604 6.5393 2.196153 8.19615zm11.392303 4.26795c1.913171 1.10457 4.359533.44907 5.464103-1.4641 1.104569-1.91317.449068-4.35953-1.464101-5.4641-1.913172-1.10457-4.359534-.44907-5.464103 1.4641s-.449069 4.35953 1.464101 5.4641zm7.928204 2.26795c.956586.55229 2.179766.22454 2.732051-.73205.552285-.95658.224534-2.17977-.732051-2.73205s-2.179766-.22454-2.732051.73205c-.552284.95659-.224534 2.17977.732051 2.73205z"/><path d="m18.000001 60c3.313708 0 5.999999-2.68629 6-6-.000001-3.31371-2.686292-6-6.000001-6s-6 2.68629-5.999999 6c-.000001 3.31371 2.68629 6 6 6zm11.999999-2c2.209139 0 4-1.79086 4.000001-4-.000001-2.20914-1.790862-4-4.000001-4s-4 1.79086-4 4 1.790861 4 4 4zm8-2c1.10457 0 2-.89543 2-2 .000001-1.10457-.895431-2-2-2s-2 .89543-2 2 .895431 2 2 2z"/></g><text x="23.45426" y="105.87355"><tspan x="23.45426" y="105.87355"/></text></g><g transform="matrix(.78904945 0 0 .78904945 7.462317 -5.861865)"><g transform="matrix(1.1265313 0 0 1.1265313 -3.848904 13.914333)"><path d="m78 48c-3.313709 0-6 2.68629-6 6s2.686291 6 6 6 6-2.68629 6-6-2.686291-6-6-6zm-12 2c-2.209139 0-4 1.79086-4 4s1.790861 4 4 4 4-1.79086 4-4-1.790861-4-4-4zm-8 2c-1.104569 0-2 .89543-2 2s.895431 2 2 2 2-.89543 2-2-.895431-2-2-2z" fill="url(#h)"/><path d="m70.980762 33.80385c-2.869756 1.65685-3.853007 5.32639-2.196152 8.19615 1.656854 2.86976 5.326396 3.85301 8.196152 2.19615 2.869756-1.65685 3.853007-5.32639 2.196153-8.19615-1.656855-2.86976-5.326397-3.85301-8.196153-2.19615zm-9.392305 7.73205c-1.91317 1.10457-2.568671 3.55093-1.464101 5.4641 1.104569 1.91317 3.550931 2.56867 5.464101 1.4641 1.913171-1.10457 2.568671-3.55093 1.464102-5.4641-1.10457-1.91317-3.550931-2.56867-5.464102-1.4641zm-5.928203 5.73205c-.956585.55228-1.284335 1.77546-.732051 2.73205.552285.95659 1.775466 1.28434 2.732051.73205.956585-.55228 1.284335-1.77546.732051-2.73205-.552285-.95659-1.775466-1.28433-2.732051-.73205z" fill="url(#i)"/><path d="m57.803848 25.01924c-1.656855 2.86975-.673604 6.5393 2.196152 8.19615s6.539298.6736 8.196152-2.19615c1.656855-2.86976.673604-6.5393-2.196152-8.19615-2.869756-1.65686-6.539298-.67361-8.196152 2.19615zm-4.26795 11.3923c-1.104569 1.91317-.449068 4.35953 1.464102 5.4641s4.359532.44907 5.464102-1.4641c1.104569-1.91317.449068-4.35953-1.464102-5.4641s-4.359532-.44907-5.464102 1.4641zm-2.267949 7.92821c-.552284.95658-.224534 2.17976.732051 2.73205.956585.55228 2.179766.22453 2.732051-.73205.552284-.95659.224534-2.17977-.732051-2.73205-.956585-.55229-2.179766-.22454-2.732051.73205z" fill="url(#j)"/><path d="m42.000001 24c-.000001 3.31371 2.68629 6 5.999999 6s6-2.68629 6-6-2.686291-6-6-6-6 2.68629-5.999999 6zm1.999999 12c0 2.20914 1.790862 4 4 4 2.209139 0 4-1.79086 4.000001-4-.000001-2.20914-1.790863-4-4.000001-4s-4 1.79086-4 4zm2 8c.000001 1.10457.895431 2 2 2s2-.89543 2-2-.895431-2-2-2-2 .89543-2 2z" fill="url(#k)"/><path d="m27.803849 31.01924c1.656853 2.86975 5.326395 3.85301 8.196151 2.19615 2.869756-1.65685 3.853007-5.3264 2.196152-8.19615-1.656854-2.86976-5.326396-3.85301-8.196152-2.19615-2.869756 1.65685-3.853007 5.32639-2.196151 8.19615zm7.732049 9.3923c1.10457 1.91317 3.550932 2.56867 5.464102 1.4641 1.913171-1.10457 2.568671-3.55093 1.464103-5.4641-1.104571-1.91317-3.550933-2.56867-5.464103-1.4641s-2.568671 3.55093-1.464102 5.4641zm5.732051 5.92821c.552286.95658 1.775466 1.28433 2.732051.73205.956585-.55229 1.284335-1.77547.732051-2.73205-.552285-.95659-1.775466-1.28434-2.732051-.73205-.956585.55228-1.284335 1.77546-.732051 2.73205z" fill="url(#l)"/><path d="m19.019239 44.19615c2.869755 1.65686 6.539297.67361 8.196152-2.19615 1.656854-2.86976.673603-6.5393-2.196153-8.19615-2.869756-1.65686-6.539298-.67361-8.196152 2.19615-1.656855 2.86976-.673604 6.5393 2.196153 8.19615zm11.392303 4.26795c1.913171 1.10457 4.359533.44907 5.464103-1.4641 1.104569-1.91317.449068-4.35953-1.464101-5.4641-1.913172-1.10457-4.359534-.44907-5.464103 1.4641s-.449069 4.35953 1.464101 5.4641zm7.928204 2.26795c.956586.55229 2.179766.22454 2.732051-.73205.552285-.95658.224534-2.17977-.732051-2.73205s-2.179766-.22454-2.732051.73205c-.552284.95659-.224534 2.17977.732051 2.73205z" fill="url(#m)"/><path d="m18.000001 60c3.313708 0 5.999999-2.68629 6-6-.000001-3.31371-2.686292-6-6.000001-6s-6 2.68629-5.999999 6c-.000001 3.31371 2.68629 6 6 6zm11.999999-2c2.209139 0 4-1.79086 4.000001-4-.000001-2.20914-1.790862-4-4.000001-4s-4 1.79086-4 4 1.790861 4 4 4zm8-2c1.10457 0 2-.89543 2-2 .000001-1.10457-.895431-2-2-2s-2 .89543-2 2 .895431 2 2 2z" fill="url(#n)"/></g><text x="23.45426" y="105.87355"><tspan x="23.45426" y="105.87355"/></text></g><g fill="#fefefe" transform="matrix(1.3156669 0 0 1.3156669 -15.122409 -40.001715)"><path d="m42.014929 89.297722q-.776367.402832-1.618653.60791-.842285.205078-1.757812.205078-2.731934 0-4.328613-1.523437-1.59668-1.530762-1.59668-4.145508 0-2.62207 1.59668-4.145508 1.596679-1.530762 4.328613-1.530762.915527 0 1.757812.205078.842286.205079 1.618653.607911v2.263183q-.783692-.534668-1.54541-.783691-.761719-.249024-1.604004-.249024-1.508789 0-2.373047.966797-.864258.966797-.864258 2.666016 0 1.691894.864258 2.658691.864258.966797 2.373047.966797.842285 0 1.604004-.249023.761718-.249024 1.54541-.783692z"/><path d="m52.261511 79.307487v2.314454q-.900879-.402832-1.757813-.607911-.856933-.205078-1.618652-.205078-1.010742 0-1.494141.278321-.483398.27832-.483398.864257 0 .439454.322266.688477.329589.241699 1.186523.41748l1.201172.2417q1.82373.366211 2.592773 1.113281.769043.74707.769043 2.124023 0 1.809082-1.07666 2.695313-1.069336.878906-3.273926.878906-1.040039 0-2.087402-.197754-1.047363-.197754-2.094727-.585937v-2.380371q1.047364.55664 2.021485.842285.981445.27832 1.889648.27832.922852 0 1.413574-.307617.490723-.307617.490723-.878906 0-.512696-.336914-.791016-.32959-.27832-1.325684-.498047l-1.091308-.241699q-1.640625-.351563-2.402344-1.120606-.754394-.769042-.754394-2.072753 0-1.633301 1.054687-2.512207 1.054688-.878907 3.032227-.878907.900879 0 1.853027.13916.952148.131836 1.970215.402832z"/><path d="m62.39823 79.307487v2.314454q-.900879-.402832-1.757813-.607911-.856933-.205078-1.618652-.205078-1.010742 0-1.494141.278321-.483398.27832-.483398.864257 0 .439454.322265.688477.32959.241699 1.186524.41748l1.201172.2417q1.82373.366211 2.592773 1.113281.769043.74707.769043 2.124023 0 1.809082-1.07666 2.695313-1.069336.878906-3.273926.878906-1.040039 0-2.087402-.197754-1.047364-.197754-2.094727-.585937v-2.380371q1.047363.55664 2.021485.842285.981445.27832 1.889648.27832.922852 0 1.413574-.307617.490723-.307617.490723-.878906 0-.512696-.336914-.791016-.32959-.27832-1.325684-.498047l-1.091308-.241699q-1.640625-.351563-2.402344-1.120606-.754395-.769042-.754395-2.072753 0-1.633301 1.054688-2.512207 1.054687-.878907 3.032226-.878907.900879 0 1.853028.13916.952148.131836 1.970215.402832z"/></g></svg>