<svg enable-background="new" height="96" width="96" xmlns="http://www.w3.org/2000/svg" xmlns:xlink="http://www.w3.org/1999/xlink"><linearGradient id="a"><stop offset="0" stop-color="#fefefe"/><stop offset="1" stop-color="#fefefe" stop-opacity="0"/></linearGradient><linearGradient id="b"><stop offset="0" stop-color="#949494" stop-opacity=".598425"/><stop offset=".5" stop-color="#949494" stop-opacity=".212598"/><stop offset="1" stop-color="#949494" stop-opacity="0"/></linearGradient><linearGradient id="c"><stop offset="0" stop-color="#c9c9c9"/><stop offset="1" stop-color="#c9c9c9" stop-opacity="0"/></linearGradient><linearGradient id="d" gradientTransform="matrix(1.0058652 0 0 .994169 100 0)" gradientUnits="userSpaceOnUse" x1="45.447727" x2="45.447727" y1="92.539597" y2="7.01654"><stop offset="0"/><stop offset="1" stop-opacity=".588235"/></linearGradient><linearGradient id="e" gradientTransform="matrix(1.0238095 0 0 1.0119048 -1.142857 -98.071429)" gradientUnits="userSpaceOnUse" x1="32.251034" x2="32.251034" xlink:href="#d" y1="6.131708" y2="90.238609"/><linearGradient id="f" gradientTransform="translate(0 -97)" gradientUnits="userSpaceOnUse" x1="32.251034" x2="32.251034" xlink:href="#d" y1="6.131708" y2="90.238609"/><radialGradient id="g" cx="48" cy="87.792389" gradientTransform="matrix(1 -.00000007 .00000008 1.2557894 109.99999 -24.505592)" gradientUnits="userSpaceOnUse" r="42"><stop offset="0" stop-color="#fefefe" stop-opacity=".717557"/><stop offset="1" stop-color="#fefefe"/></radialGradient><linearGradient id="h" gradientTransform="matrix(1 0 0 -1 0 92)" gradientUnits="userSpaceOnUse" x1="48" x2="48" xlink:href="#c" y1="88" y2="-40"/><linearGradient id="i" gradientUnits="userSpaceOnUse" spreadMethod="reflect" x1="48" x2="112.12357" xlink:href="#c" y1="82" y2="82.454597"/><linearGradient id="j" gradientUnits="userSpaceOnUse" spreadMethod="reflect" x1="90" x2="48" y1="88" y2="88"><stop offset="0" stop-opacity=".588235"/><stop offset=".11780351" stop-opacity=".470588"/><stop offset=".23809524" stop-opacity=".392157"/><stop offset="1" stop-opacity=".313726"/></linearGradient><radialGradient id="k" cx="48" cy="3.000006" gradientTransform="matrix(-1.0277778 0 0 -.22222219 97.333337 6.666668)" gradientUnits="userSpaceOnUse" r="36" xlink:href="#b"/><radialGradient id="l" cx="47.099998" cy="-18.000002" gradientTransform="matrix(.02777778 .94444447 -.16659462 .00489984 85.692963 1.604863)" gradientUnits="userSpaceOnUse" r="36" xlink:href="#b"/><radialGradient id="m" cx="14.700001" cy="-12.000003" gradientTransform="matrix(0 .86111111 .16666666 0 9 12.341666)" gradientUnits="userSpaceOnUse" r="36" xlink:href="#b"/><radialGradient id="n" cx="-26.75" cy="48" gradientTransform="matrix(1.7142857 -.00000001 .00000002 2.0952381 21.857142 -52.571429)" gradientUnits="userSpaceOnUse" r="42"><stop offset="0" stop-color="#4b4b4b"/><stop offset="1" stop-color="#141414"/></radialGradient><radialGradient id="o" cx="32" cy="14.5" gradientTransform="matrix(1 0 0 .05769231 0 13.663462)" gradientUnits="userSpaceOnUse" r="26" xlink:href="#a"/><filter id="p" color-interpolation-filters="sRGB" height="1.284987" width="1.20728" x="-.10364" y="-.142493"><feGaussianBlur stdDeviation=".95086131"/></filter><linearGradient id="q" gradientUnits="userSpaceOnUse" x1="65" x2="65" xlink:href="#a" y1="6" y2="86"/><radialGradient id="r" cx="15.987216" cy="1.535031" gradientTransform="matrix(0 2.3781771 1.8586888 0 31.764506 -42.511751)" gradientUnits="userSpaceOnUse" r="17.171415"><stop offset="0" stop-color="#ffff6a"/><stop offset="1" stop-color="#fefefe" stop-opacity="0"/></radialGradient><linearGradient id="s" gradientTransform="matrix(2.5383404 0 0 2.599583 -543.1715 -1120.5535)" gradientUnits="userSpaceOnUse" x1="240.23456" x2="231.7753" y1="425.79779" y2="438.08429"><stop offset="0" stop-color="#ffd073"/><stop offset="1" stop-color="#fefefe" stop-opacity="0"/></linearGradient><clipPath id="t"><path d="m37.84375 11c-3.242433 0-5.84375 2.767499-5.84375 6.1875v45.625c0 3.420001 2.601317 6.1875 5.84375 6.1875h47.3125c3.24243 0 5.84375-2.767499 5.84375-6.1875v-45.625c0-3.420001-2.60132-6.1875-5.84375-6.1875zm12.59375 13.3125h19.09375v14.09375h8.15625l-17.53125 20.28125-17.84375-20.28125h8.125z"/></clipPath><clipPath id="u"><path d="m37.84375 11c-3.242433 0-5.84375 2.767499-5.84375 6.1875v45.625c0 3.420001 2.601317 6.1875 5.84375 6.1875h47.3125c3.24243 0 5.84375-2.767499 5.84375-6.1875v-45.625c0-3.420001-2.60132-6.1875-5.84375-6.1875zm12.59375 13.3125h19.09375v14.09375h8.15625l-17.53125 20.28125-17.84375-20.28125h8.125z"/></clipPath><g><g fill="url(#e)"><path d="m12-95.03125c-5.5110903 0-10.03125 4.52016-10.03125 10.03125v71c0 5.5110902 4.5201598 10.03125 10.03125 10.03125h72c5.51109 0 10.03125-4.5201597 10.03125-10.03125v-71c0-5.51109-4.52016-10.03125-10.03125-10.03125z" opacity=".08" transform="scale(1 -1)"/><path d="m12-94.03125c-4.971633 0-9.03125 4.059617-9.03125 9.03125v71c0 4.9716329 4.0596171 9.03125 9.03125 9.03125h72c4.971633 0 9.03125-4.059617 9.03125-9.03125v-71c0-4.971633-4.059617-9.03125-9.03125-9.03125z" opacity=".1" transform="scale(1 -1)"/><path d="m12-93c-4.4091333 0-8 3.590867-8 8v71c0 4.4091333 3.5908667 8 8 8h72c4.409133 0 8-3.5908667 8-8v-71c0-4.409133-3.590867-8-8-8z" opacity=".2" transform="scale(1 -1)"/><rect height="85" opacity=".3" rx="7" transform="scale(1 -1)" width="86" x="5" y="-92"/></g><rect fill="url(#f)" height="84" opacity=".45" rx="6" transform="scale(1 -1)" width="84" x="6" y="-91"/></g><g><rect fill="url(#n)" height="84" rx="6" transform="rotate(-90)" width="84" x="-90" y="6"/><path d="m120.78125 6.125c-2.73902.5576484-4.78125 2.9665-4.78125 5.875v68c0 3.324 2.676 6 6 6h72c3.324 0 6-2.676 6-6v-68c0-2.9085-2.04223-5.3173516-4.78125-5.875 2.20512.5362071 3.8125 2.4908437 3.8125 4.875v68c0 2.80489-2.22636 5.03125-5.03125 5.03125h-72c-2.80489 0-5.03125-2.22636-5.03125-5.03125v-68c0-2.3841563 1.60738-4.3387929 3.8125-4.875z" fill="url(#g)" opacity=".2"/><path d="m12 86c-3.324 0-6-2.676-6-6v-68c0-3.324 2.676-6 6-6h72c3.324 0 6 2.676 6 6v68c0 3.324-2.676 6-6 6zm0-.96875h72c2.80489 0 5.03125-2.22636 5.03125-5.03125v-68c0-2.80489-2.22636-5.03125-5.03125-5.03125h-72c-2.80489 0-5.03125 2.22636-5.03125 5.03125v68c0 2.80489 2.22636 5.03125 5.03125 5.03125z" fill="url(#h)" opacity=".25"/><path d="m6 78v2c0 3.324 2.676 6 6 6h72c3.324 0 6-2.676 6-6v-2c0 3.324-2.676 6-6 6h-72c-3.324 0-6-2.676-6-6z" fill="url(#i)" opacity=".1"/><path d="m6 82v1c0 3.324 2.676 6 6 6h72c3.324 0 6-2.676 6-6v-1c0 3.324-2.676 6-6 6h-72c-3.324 0-6-2.676-6-6z" opacity=".15"/><path d="m48 6 24 80h17.65625c.220137-.625762.34375-1.297112.34375-2v-72c0-3.324-2.676-6-6-6z" fill="url(#q)" opacity=".15"/></g><g><path d="m6 80v4c0 3.324 2.676 6 6 6h72c3.324 0 6-2.676 6-6v-4c0 3.324-2.676 6-6 6h-72c-3.324 0-6-2.676-6-6z" fill="url(#j)"/><path d="m6 82v2c0 3.324 2.676 6 6 6h72c3.324 0 6-2.676 6-6v-2c0 3.324-2.676 6-6 6h-72c-3.324 0-6-2.676-6-6z" opacity=".1"/><path d="m6 83v1c0 3.324 2.676 6 6 6h72c3.324 0 6-2.676 6-6v-1c0 3.324-2.676 6-6 6h-72c-3.324 0-6-2.676-6-6z" opacity=".15"/></g><g fill="url(#o)" opacity=".5"><path d="m58 14.5a26 1.5 0 1 1 -52 0 26 1.5 0 1 1 52 0z" opacity=".02" transform="matrix(1.576923 0 0 1 -2.461538 -7)"/><path d="m58 14.5a26 1.5 0 1 1 -52 0 26 1.5 0 1 1 52 0z" opacity=".04" transform="matrix(1.576923 0 0 1 -2.461538 -2)"/><path d="m58 14.5a26 1.5 0 1 1 -52 0 26 1.5 0 1 1 52 0z" opacity=".06" transform="matrix(1.576923 0 0 1 -2.461538 3)"/><path d="m58 14.5a26 1.5 0 1 1 -52 0 26 1.5 0 1 1 52 0z" opacity=".08" transform="matrix(1.576923 0 0 1 -2.461538 8)"/><path d="m58 14.5a26 1.5 0 1 1 -52 0 26 1.5 0 1 1 52 0z" opacity=".1" transform="matrix(1.576923 0 0 1 -2.461538 13)"/><path d="m58 14.5a26 1.5 0 1 1 -52 0 26 1.5 0 1 1 52 0z" opacity=".1" transform="matrix(1.576923 0 0 1 -2.461538 18)"/><path d="m58 14.5a26 1.5 0 1 1 -52 0 26 1.5 0 1 1 52 0z" opacity=".1" transform="matrix(1.576923 0 0 1 -2.461538 23)"/><path d="m58 14.5a26 1.5 0 1 1 -52 0 26 1.5 0 1 1 52 0z" opacity=".1" transform="matrix(1.576923 0 0 1 -2.461538 28)"/><path d="m58 14.5a26 1.5 0 1 1 -52 0 26 1.5 0 1 1 52 0z" opacity=".1" transform="matrix(1.576923 0 0 1 -2.461538 33)"/><path d="m58 14.5a26 1.5 0 1 1 -52 0 26 1.5 0 1 1 52 0z" opacity=".1" transform="matrix(1.576923 0 0 1 -2.461538 38)"/><path d="m58 14.5a26 1.5 0 1 1 -52 0 26 1.5 0 1 1 52 0z" opacity=".1" transform="matrix(1.576923 0 0 1 -2.461538 43)"/><path d="m58 14.5a26 1.5 0 1 1 -52 0 26 1.5 0 1 1 52 0z" opacity=".1" transform="matrix(1.576923 0 0 1 -2.461538 48)"/><path d="m58 14.5a26 1.5 0 1 1 -52 0 26 1.5 0 1 1 52 0z" opacity=".08" transform="matrix(1.576923 0 0 1 -2.461538 53)"/><path d="m58 14.5a26 1.5 0 1 1 -52 0 26 1.5 0 1 1 52 0z" opacity=".06" transform="matrix(1.576923 0 0 1 -2.461538 58)"/><path d="m58 14.5a26 1.5 0 1 1 -52 0 26 1.5 0 1 1 52 0z" opacity=".04" transform="matrix(1.576923 0 0 1 -2.461538 63)"/><path d="m58 14.5a26 1.5 0 1 1 -52 0 26 1.5 0 1 1 52 0z" opacity=".02" transform="matrix(1.576923 0 0 1 -2.461538 68)"/></g><g><path d="m90 15c0-1.662-1.338-3-3-3h-9v68h9c1.662 0 3-1.338 3-3z" fill="url(#l)" opacity=".3"/><path d="m6 12c0-1.662 1.338-3 3-3h9v68h-9c-1.662 0-3-1.338-3-3z" fill="url(#m)" opacity=".45"/><path d="m9 6c-1.662 0-3.1835372 1.348165-3 3v9h84v-9c0-1.662-1.338-3-3-3z" fill="url(#k)" opacity=".8"/><g fill="#fefefe"><path d="m15.84375 15c-.365413.07716-.727304.339214-.78125.71875-.136955.509451-.02728 1.121057-.0625 1.67265-.000931.477268-.06462 1.069231.375 1.3586.749494.553439 1.603952 1.024272 2.394075 1.54583.899892.568057 1.799783 1.136113 2.699675 1.70417-1.68864 1.060478-3.368174 2.137108-5.0625 3.1875-.411423.310905-.433505.862468-.40625 1.35656.05636.697554-.15815 1.459054.21875 2.08094.358877.41134 1.008249.484197 1.450909.132245 2.642448-1.646314 5.276234-3.308075 7.924091-4.944745.411423-.310905.433505-.862468.40625-1.35656-.05574-.684824.14735-1.430753-.1875-2.04969-.571548-.511612-1.333204-.871392-1.988289-1.316899-2.139898-1.327062-4.27512-2.692729-6.417961-3.995601-.185042-.059596-.355698-.121696-.5625-.09375zm10 12c-.432867.08183-.804495.431828-.8125.875-.07412.660432-.0095 1.378315-.03125 2.06046-.01859.401581.222707.736545.5625.97079.681304.183335 1.491308.05596 2.232898.09375h8.267102c.341865-.02589.634447-.264829.84375-.5625.183335-.681304.05596-1.491308.09375-2.232898.0393-.440137-.14455-.833793-.53125-1.079602-.548833-.232233-1.256056-.08208-1.883306-.125-2.913898 0-5.827796 0-8.741694 0z" filter="url(#p)" opacity=".1"/><path d="m15.84375 15c-.365413.07716-.727304.339214-.78125.71875-.136955.509451-.02728 1.121057-.0625 1.67265-.000931.477268-.06462 1.069231.375 1.3586.749494.553439 1.603952 1.024272 2.394075 1.54583.899892.568057 1.799783 1.136113 2.699675 1.70417-1.68864 1.060478-3.368174 2.137108-5.0625 3.1875-.411423.310905-.433505.862468-.40625 1.35656.05636.697554-.15815 1.459054.21875 2.08094.358877.41134 1.008249.484197 1.450909.132245 2.642448-1.646314 5.276234-3.308075 7.924091-4.944745.411423-.310905.433505-.862468.40625-1.35656-.05574-.684824.14735-1.430753-.1875-2.04969-.571548-.511612-1.333204-.871392-1.988289-1.316899-2.139898-1.327062-4.27512-2.692729-6.417961-3.995601-.185042-.059596-.355698-.121696-.5625-.09375zm10 12c-.432867.08183-.804495.431828-.8125.875-.07412.660432-.0095 1.378315-.03125 2.06046-.01859.401581.222707.736545.5625.97079.681304.183335 1.491308.05596 2.232898.09375h8.267102c.341865-.02589.634447-.264829.84375-.5625.183335-.681304.05596-1.491308.09375-2.232898.0393-.440137-.14455-.833793-.53125-1.079602-.548833-.232233-1.256056-.08208-1.883306-.125-2.913898 0-5.827796 0-8.741694 0z" opacity=".05"/><path d="m23.90625 23.59375a.40757592.40757592 0 0 0 -.3125.40625v2a.40757592.40757592 0 0 0 .1875.34375l5.78125 3.65625-5.78125 3.65625a.40757592.40757592 0 0 0 -.1875.34375v2a.40757592.40757592 0 0 0 .625.34375l8-5a.40757592.40757592 0 0 0 .1875-.34375v-2a.40757592.40757592 0 0 0 -.1875-.34375l-8-5a.40757592.40757592 0 0 0 -.3125-.0625zm10 12a.40757592.40757592 0 0 0 -.3125.40625v2a.40757592.40757592 0 0 0 .40625.40625h10a.40757592.40757592 0 0 0 .40625-.40625v-2a.40757592.40757592 0 0 0 -.40625-.40625h-10a.40757592.40757592 0 0 0 -.09375 0z" opacity=".2" transform="translate(-8 -8)"/><path d="m16 16v2l6.3125 4-6.3125 4v2l8-5v-2zm10 12v2h10v-2z"/></g></g><g fill-rule="evenodd"><g opacity=".469" transform="matrix(0 .63419378 -1.042399 0 42.672379 22.134336)"><g clip-path="url(#t)" fill="#fd5" transform="translate(-3.645181 -31.616205)"><path d="m50.0625 22.125a1.3983608 1.3983608 0 0 0 -.03125.03125c-1.054274.126973-1.917362.815244-2.34375 1.59375-.388738.709764-.451621 1.489362-.375 2.25h-.0625v10.21875c-1.792654-.0074-3.604683-.06137-5.5.0625a1.3983608 1.3983608 0 0 0 -.21875.03125c-2.455761.546639-3.118455 3.730923-1.34375 5.375l-.0625.03125c5.931047 6.73125 11.829076 13.492032 17.78125 20.21875a1.3983608 1.3983608 0 0 0 .09375.0625c1.480842 1.410044 3.729893.905048 4.78125-.65625l.03125.03125c5.787347-6.710339 11.646407-13.382497 17.40625-20.125a1.3983608 1.3983608 0 0 0 .0625-.0625c1.566108-2.123435-.278192-5.097545-2.8125-4.90625v-.0625h-4.75c-.0046-3.739944.03483-7.512036-.03125-11.28125a1.3983608 1.3983608 0 0 0 -.03125-.21875c-.167604-.964706-.801883-1.737419-1.53125-2.15625-.662503-.380435-1.408245-.450506-2.15625-.375v-.0625h-18.78125a1.3983608 1.3983608 0 0 0 -.125 0z" opacity=".05"/><path d="m50.1875 23.53125c-1.183065.142484-1.695104 1.399995-1.53125 2.464337v11.629413c-2.26814.04271-4.557246-.08489-6.8125.0625-1.375147.3061-1.75829 2.237099-.668993 3.100644 5.934087 6.7347 11.846163 13.490047 17.793993 20.211856.834797.794886 2.242953.456078 2.784432-.516041 5.792782-6.716641 11.651505-13.407398 17.403068-20.140209.860386-1.166569-.278806-2.918751-1.686029-2.71875-2.052574 0-4.105147 0-6.157721 0-.02147-4.216957.04253-8.447783-.03125-12.65625-.184636-1.062741-1.323099-1.600059-2.324448-1.4375-6.256434 0-12.512868 0-18.769302 0z" opacity=".08"/><path d="m50.4375 24.46875a.82887694.82887694 0 0 0 -.84375.84375v13.25h-7.28125a.82887694.82887694 0 0 0 -.625 1.40625l17.84375 20.28125a.82887694.82887694 0 0 0 1.25-.03125l17.53125-20.28125a.82887694.82887694 0 0 0 -.625-1.375h-7.3125v-13.25a.82887694.82887694 0 0 0 -.84375-.84375z" opacity=".15"/><path d="m69.531836 25.308077-19.09441-.0051v14.097051l-8.134468.01821 17.844862 20.278828 17.549222-20.283896-8.162008-.0051-.0025-14.099496z" opacity=".3"/></g><path d="m65.886656-7.3081274-19.09441-.0051v14.0970506l-8.134469.01821 17.844863 20.2788278 17.549222-20.2838958-8.162008-.0051-.0025-14.0994956z" fill="url(#s)" stroke="#fea" stroke-miterlimit="10" stroke-width=".605916"/><path d="m46.808554-7.3250544v14.1154656h-8.137295l7.856699 8.9083558c5.618905-11.3348078 16.857741-2.861348 17.958166-23.0238214z" fill="url(#r)" opacity=".508021"/></g><g enable-background="new" opacity=".469" transform="matrix(0 -.63419378 1.042399 0 52.679173 69.624291)"><g clip-path="url(#u)" fill="#fd5" transform="translate(-3.645181 -31.616205)"><path d="m50.0625 22.125a1.3983608 1.3983608 0 0 0 -.03125.03125c-1.054274.126973-1.917362.815244-2.34375 1.59375-.388738.709764-.451621 1.489362-.375 2.25h-.0625v10.21875c-1.792654-.0074-3.604683-.06137-5.5.0625a1.3983608 1.3983608 0 0 0 -.21875.03125c-2.455761.546639-3.118455 3.730923-1.34375 5.375l-.0625.03125c5.931047 6.73125 11.829076 13.492032 17.78125 20.21875a1.3983608 1.3983608 0 0 0 .09375.0625c1.480842 1.410044 3.729893.905048 4.78125-.65625l.03125.03125c5.787347-6.710339 11.646407-13.382497 17.40625-20.125a1.3983608 1.3983608 0 0 0 .0625-.0625c1.566108-2.123435-.278192-5.097545-2.8125-4.90625v-.0625h-4.75c-.0046-3.739944.03483-7.512036-.03125-11.28125a1.3983608 1.3983608 0 0 0 -.03125-.21875c-.167604-.964706-.801883-1.737419-1.53125-2.15625-.662503-.380435-1.408245-.450506-2.15625-.375v-.0625h-18.78125a1.3983608 1.3983608 0 0 0 -.125 0z" opacity=".05"/><path d="m50.1875 23.53125c-1.183065.142484-1.695104 1.399995-1.53125 2.464337v11.629413c-2.26814.04271-4.557246-.08489-6.8125.0625-1.375147.3061-1.75829 2.237099-.668993 3.100644 5.934087 6.7347 11.846163 13.490047 17.793993 20.211856.834797.794886 2.242953.456078 2.784432-.516041 5.792782-6.716641 11.651505-13.407398 17.403068-20.140209.860386-1.166569-.278806-2.918751-1.686029-2.71875-2.052574 0-4.105147 0-6.157721 0-.02147-4.216957.04253-8.447783-.03125-12.65625-.184636-1.062741-1.323099-1.600059-2.324448-1.4375-6.256434 0-12.512868 0-18.769302 0z" opacity=".08"/><path d="m50.4375 24.46875a.82887694.82887694 0 0 0 -.84375.84375v13.25h-7.28125a.82887694.82887694 0 0 0 -.625 1.40625l17.84375 20.28125a.82887694.82887694 0 0 0 1.25-.03125l17.53125-20.28125a.82887694.82887694 0 0 0 -.625-1.375h-7.3125v-13.25a.82887694.82887694 0 0 0 -.84375-.84375z" opacity=".15"/><path d="m69.531836 25.308077-19.09441-.0051v14.097051l-8.134468.01821 17.844862 20.278828 17.549222-20.283896-8.162008-.0051-.0025-14.099496z" opacity=".3"/></g><path d="m65.886656-7.3081274-19.09441-.0051v14.0970506l-8.134469.01821 17.844863 20.2788278 17.549222-20.2838958-8.162008-.0051-.0025-14.0994956z" fill="url(#s)" stroke="#fea" stroke-miterlimit="10" stroke-width=".605916"/><path d="m46.808554-7.3250544v14.1154656h-8.137295l7.856699 8.9083558c5.618905-11.3348078 16.857741-2.861348 17.958166-23.0238214z" fill="url(#r)" opacity=".508021"/></g></g></svg>