<svg height="96" width="96" xmlns="http://www.w3.org/2000/svg" xmlns:xlink="http://www.w3.org/1999/xlink"><linearGradient id="a"><stop offset="0" stop-color="#fefefe"/><stop offset="1" stop-color="#fefefe" stop-opacity="0"/></linearGradient><linearGradient id="b" gradientUnits="userSpaceOnUse" x1="36.357143" x2="36.357143" xlink:href="#a" y1="6" y2="63.893143"/><linearGradient id="c" gradientUnits="userSpaceOnUse" x1="48" x2="48" y1="90" y2="5.987717"><stop offset="0" stop-color="#c25d15"/><stop offset="1" stop-color="#eb8f23"/></linearGradient><linearGradient id="d"><stop offset="0"/><stop offset="1" stop-opacity="0"/></linearGradient><linearGradient id="e" gradientTransform="matrix(1.0058652 0 0 .994169 100 0)" gradientUnits="userSpaceOnUse" x1="45.447727" x2="45.447727" y1="92.539597" y2="7.01654"><stop offset="0"/><stop offset="1" stop-opacity=".588235"/></linearGradient><linearGradient id="f" gradientTransform="matrix(1.0238095 0 0 1.0119048 -1.142857 -98.071429)" gradientUnits="userSpaceOnUse" x1="32.251034" x2="32.251034" xlink:href="#e" y1="6.131708" y2="90.238609"/><linearGradient id="g" gradientTransform="translate(0 -97)" gradientUnits="userSpaceOnUse" x1="32.251034" x2="32.251034" xlink:href="#e" y1="6.131708" y2="90.238609"/><linearGradient id="h" gradientUnits="userSpaceOnUse" x1="6" x2="90" y1="48.171875" y2="48.171875"><stop offset="0" stop-color="#6f3500"/><stop offset="1" stop-color="#4b1200" stop-opacity="0"/></linearGradient><radialGradient id="i" cx="22.738329" cy="41.194096" gradientTransform="matrix(1 0 0 .2458842 0 31.065119)" gradientUnits="userSpaceOnUse" r="14.73833" xlink:href="#d"/><linearGradient id="j" gradientUnits="userSpaceOnUse" x1="-24.733047" x2="-22.700119" y1="32.443649" y2="24.135145"><stop offset="0" stop-color="#f57900"/><stop offset="1" stop-color="#f57900" stop-opacity="0"/></linearGradient><linearGradient id="k" gradientUnits="userSpaceOnUse" x1="-25.174992" x2="-24.467884" y1="29.261671" y2="24.223534"><stop offset="0" stop-color="#ce5c00"/><stop offset="1" stop-color="#f57900" stop-opacity="0"/></linearGradient><linearGradient id="l" gradientUnits="userSpaceOnUse" x1="17.604195" x2="15.336679" y1="45.975159" y2="35.729183"><stop offset="0" stop-color="#fcaf3e"/><stop offset="1" stop-color="#fcaf3e" stop-opacity="0"/></linearGradient><linearGradient id="m" gradientUnits="userSpaceOnUse" x1="36.0625" x2="36.5" xlink:href="#a" y1="28.4375" y2="25.0625"/><linearGradient id="n" gradientUnits="userSpaceOnUse" x1="-23.9375" x2="-23.5" xlink:href="#a" y1="28.4375" y2="25.0625"/><linearGradient id="o" gradientUnits="userSpaceOnUse" x1="-26.753757" x2="-24.75" xlink:href="#a" y1="11.566258" y2="9.687501"/><linearGradient id="p" gradientTransform="matrix(1.0083147 0 0 1.0042364 100.61518 26.856908)" gradientUnits="userSpaceOnUse" x1="-18.588562" x2="-28.789402" xlink:href="#d" y1="11.052948" y2="14.069944"/><radialGradient id="q" cx="-26.305403" cy="10.108011" gradientTransform="matrix(.44532188 -.30592272 .8210657 1.1951996 75.757342 16.182844)" gradientUnits="userSpaceOnUse" r="7.042104" xlink:href="#r"/><linearGradient id="r"><stop offset="0" stop-color="#fefefe"/><stop offset=".47533694" stop-color="#fefefe"/><stop offset="1" stop-color="#fefefe" stop-opacity="0"/></linearGradient><radialGradient id="s" cx="4" cy="5.3" gradientTransform="matrix(1.8860258 0 0 1.1764706 -3.544103 -4.235294)" gradientUnits="userSpaceOnUse" r="17" xlink:href="#a"/><radialGradient id="t" cx="-30.249996" cy="35.357208" gradientTransform="matrix(4.3683691 0 0 2.1154865 202.36296 -8.666331)" gradientUnits="userSpaceOnUse" r="18.000002" xlink:href="#u"/><linearGradient id="u"><stop offset="0" stop-color="#f6f6f5"/><stop offset="1" stop-color="#d3d7cf"/></linearGradient><radialGradient id="v" cx="4.992979" cy="43.5" gradientTransform="matrix(2.003784 0 0 1.4 27.98813 -17.4)" gradientUnits="userSpaceOnUse" r="2.5" xlink:href="#d"/><radialGradient id="w" cx="4.992979" cy="43.5" gradientTransform="matrix(2.003784 0 0 1.4 -20.01187 -104.4)" gradientUnits="userSpaceOnUse" r="2.5" xlink:href="#d"/><linearGradient id="x" gradientUnits="userSpaceOnUse" x1="25.058096" x2="25.058096" y1="47.027729" y2="39.999443"><stop offset="0" stop-opacity="0"/><stop offset=".5"/><stop offset="1" stop-opacity="0"/></linearGradient><linearGradient id="y" gradientTransform="matrix(1.0083147 0 0 1.0042364 68.520362 18.18896)" gradientUnits="userSpaceOnUse" x1="-18.588562" x2="-28.789402" xlink:href="#d" y1="11.052948" y2="14.069944"/><radialGradient id="z" cx="-26.305403" cy="10.108011" gradientTransform="matrix(.44532188 -.30592272 .8210657 1.1951996 43.662531 7.5149)" gradientUnits="userSpaceOnUse" r="7.042104" xlink:href="#r"/><radialGradient id="A" cx="-30.249996" cy="35.357208" gradientTransform="matrix(4.3683691 0 0 2.1154865 170.26818 -17.33428)" gradientUnits="userSpaceOnUse" r="18.000002" xlink:href="#u"/><g><g fill="url(#f)"><path d="m12-95.03125c-5.5110903 0-10.03125 4.52016-10.03125 10.03125v71c0 5.5110902 4.5201598 10.03125 10.03125 10.03125h72c5.51109 0 10.03125-4.5201597 10.03125-10.03125v-71c0-5.51109-4.52016-10.03125-10.03125-10.03125z" opacity=".08" transform="scale(1 -1)"/><path d="m12-94.03125c-4.971633 0-9.03125 4.059617-9.03125 9.03125v71c0 4.9716329 4.0596171 9.03125 9.03125 9.03125h72c4.971633 0 9.03125-4.059617 9.03125-9.03125v-71c0-4.971633-4.059617-9.03125-9.03125-9.03125z" opacity=".1" transform="scale(1 -1)"/><path d="m12-93c-4.4091333 0-8 3.590867-8 8v71c0 4.4091333 3.5908667 8 8 8h72c4.409133 0 8-3.5908667 8-8v-71c0-4.409133-3.590867-8-8-8z" opacity=".2" transform="scale(1 -1)"/><rect height="85" opacity=".3" rx="7" transform="scale(1 -1)" width="86" x="5" y="-92"/></g><rect fill="url(#g)" height="84" opacity=".45" rx="6" transform="scale(1 -1)" width="84" x="6" y="-91"/></g><rect fill="url(#c)" height="84" rx="6" width="84" x="6" y="6"/><path d="m12 6c-3.324 0-6 2.676-6 6v2 68 2c0 .334721.04135.6507.09375.96875.0487.295596.09704.596915.1875.875.00988.03038.020892.0636.03125.09375.098865.287771.2348802.547452.375.8125.1445918.273507.3156161.535615.5.78125s.3737765.473472.59375.6875c.439947.428056.94291.814526 1.5 1.09375.278545.139612.5734731.246947.875.34375-.2562018-.100222-.4867109-.236272-.71875-.375-.00741-.0044-.023866.0045-.03125 0-.031933-.0193-.062293-.04251-.09375-.0625-.120395-.0767-.2310226-.163513-.34375-.25-.1061728-.0808-.2132809-.161112-.3125-.25-.1779299-.161433-.3474596-.345388-.5-.53125-.1075789-.130255-.2183939-.265285-.3125-.40625-.025089-.03838-.038446-.08587-.0625-.125-.064763-.103032-.1302275-.204517-.1875-.3125-.1010083-.194706-.2056748-.415701-.28125-.625-.00796-.02181-.023589-.04055-.03125-.0625-.0318251-.09195-.0358045-.186831-.0625-.28125-.0303323-.106618-.0703894-.203031-.09375-.3125-.0728786-.341512-.125-.698205-.125-1.0625v-2-68-2c0-2.781848 2.2181517-5 5-5h2 68 2c2.781848 0 5 2.218152 5 5v2 68 2c0 .364295-.05212.720988-.125 1.0625-.04415.206893-.08838.397658-.15625.59375-.0077.02195-.0233.04069-.03125.0625-.06274.173739-.138383.367449-.21875.53125-.04158.0828-.07904.169954-.125.25-.0546.09721-.126774.18835-.1875.28125-.09411.140965-.204921.275995-.3125.40625-.143174.17445-.303141.346998-.46875.5-.01117.0102-.01998.02115-.03125.03125-.138386.125556-.285091.234436-.4375.34375-.102571.07315-.204318.153364-.3125.21875-.0074.0045-.02384-.0044-.03125 0-.232039.138728-.462548.274778-.71875.375.301527-.0968.596455-.204138.875-.34375.55709-.279224 1.060053-.665694 1.5-1.09375.219973-.214028.409366-.441865.59375-.6875s.355408-.507743.5-.78125c.14012-.265048.276135-.524729.375-.8125.01041-.03078.02133-.06274.03125-.09375.09046-.278085.1388-.579404.1875-.875.0524-.31805.09375-.634029.09375-.96875v-2-68-2c0-3.324-2.676-6-6-6z" fill="url(#b)" opacity=".35"/><path d="m12 90c-3.324 0-6-2.676-6-6v-2-68-2c0-.334721.04135-.6507.09375-.96875.0487-.295596.09704-.596915.1875-.875.00988-.03038.020892-.0636.03125-.09375.098865-.287771.2348802-.547452.375-.8125.1445918-.273507.3156161-.535615.5-.78125s.3737765-.473472.59375-.6875c.439947-.428056.94291-.814526 1.5-1.09375.278545-.139612.5734731-.246947.875-.34375-.2562018.100222-.4867109.236272-.71875.375-.00741.0044-.023866-.0045-.03125 0-.031933.0193-.062293.04251-.09375.0625-.120395.0767-.2310226.163513-.34375.25-.1061728.0808-.2132809.161112-.3125.25-.1779299.161433-.3474596.345388-.5.53125-.1075789.130255-.2183939.265285-.3125.40625-.025089.03838-.038446.08587-.0625.125-.064763.103032-.1302275.204517-.1875.3125-.1010083.194706-.2056748.415701-.28125.625-.00796.02181-.023589.04055-.03125.0625-.0318251.09195-.0358045.186831-.0625.28125-.0303323.106618-.0703894.203031-.09375.3125-.0728786.341512-.125.698205-.125 1.0625v2 68 2c0 2.781848 2.2181517 5 5 5h2 68 2c2.781848 0 5-2.218152 5-5v-2-68-2c0-.364295-.05212-.720988-.125-1.0625-.04415-.206893-.08838-.397658-.15625-.59375-.0077-.02195-.0233-.04069-.03125-.0625-.06274-.173739-.138383-.367449-.21875-.53125-.04158-.0828-.07904-.169954-.125-.25-.0546-.09721-.126774-.18835-.1875-.28125-.09411-.140965-.204921-.275995-.3125-.40625-.143174-.17445-.303141-.346998-.46875-.5-.01117-.0102-.01998-.02115-.03125-.03125-.138386-.125556-.285091-.234436-.4375-.34375-.102571-.07315-.204318-.153364-.3125-.21875-.0074-.0045-.02384.0044-.03125 0-.232039-.138728-.462548-.274778-.71875-.375.301527.0968.596455.204138.875.34375.55709.279224 1.060053.665694 1.5 1.09375.219973.214028.409366.441865.59375.6875s.355408.507743.5.78125c.14012.265048.276135.524729.375.8125.01041.03078.02133.06274.03125.09375.09046.278085.1388.579404.1875.875.0524.31805.09375.634029.09375.96875v2 68 2c0 3.324-2.676 6-6 6z" fill="url(#h)" opacity=".213"/><path d="m5.60072 16.739634h52.476196v52.476196h-52.476196z" opacity="0"/><g opacity=".262348" transform="matrix(1.20422311327 0 0 1.24943151628 2.85935772168 9.94590143312)"><path d="m38 40h5v7h-5z" fill="url(#v)" opacity="1"/><path d="m-10-47h5v7h-5z" fill="url(#w)" opacity="1" transform="scale(-1)"/><path d="m10 40h28v7.000001h-28z" fill="url(#x)" opacity="1"/></g><g opacity=".4" transform="matrix(1.09883201848 0 0 .78089588053 5.38874999538 30.32721229144)"><path d="m38 40h5v7h-5z" fill="url(#v)" opacity="1"/><path d="m-10-47h5v7h-5z" fill="url(#w)" opacity="1" transform="scale(-1)"/><path d="m10 40h28v7.000001h-28z" fill="url(#x)" opacity="1"/></g><path d="m14.919458 20.566025h20.745746c4.238596.07978 7.106144 2.733137 9.839286 5.466267 2.73313 2.733141 5.037362 5.742457 5.46627 9.839287v27.305268c0 1.22578-.986814 2.212595-2.212582 2.212595h-33.83872c-1.225778 0-2.212595-.986815-2.212595-2.212595v-40.398233c0-1.22577.986817-2.212589 2.212595-2.212589z" fill="url(#A)" stroke="#555753" stroke-width="1.093254"/><path d="m8.53125 3.9863281c-.8581697 0-1.5449219.6867521-1.5449219 1.5449219v36.9375c0 .85817.6867521 1.544922 1.5449219 1.544922h30.9375c.858169 0 1.544922-.686754 1.544922-1.544922v-24.96875c0-1.39197-.500651-4.299479-2.357422-6.15625l-5-5c-1.856771-1.8567708-4.76428-2.3574219-6.15625-2.3574219z" fill="url(#s)" opacity=".680162" transform="matrix(1.093254 0 0 1.093254 5.600713 16.739633)"/><path d="m35.665204 21.112651c-1.518409 0-.04603.543445 1.469065 1.229913 1.515043.686463 5.436613 3.514871 4.543828 7.516122 4.726483-.470744 7.30199 3.413551 7.652784 4.680491.35079 1.266942 1.09325 2.850814 1.09325 1.332402.03094-4.160472-3.110776-7.031479-5.295447-9.463482-2.184673-2.43199-5.468962-4.774223-9.46348-5.295446z" fill="url(#z)"/><path d="m36.868742 22.221598c1.008309 0 3.288991 6.773438 2.28068 11.292491 4.695486-.467646 9.678998.09642 10.181459 1.025088-.350794-1.26694-2.926301-5.151235-7.652784-4.680491.945299-4.236627-3.483731-7.234386-4.809355-7.637088z" fill="url(#y)" opacity=".878542"/><path d="m-51.46875 4.4941406c-.583166 0-1.037109.4539436-1.037109 1.0371094v36.9375c0 .583165.453945 1.037109 1.037109 1.037109h30.9375c.583165 0 1.037109-.453945 1.037109-1.037109v-24.96875c0-1.279029-.501953-4.089844-2.208984-5.796875l-5-5c-1.707031-1.7070313-4.517846-2.2089844-5.796875-2.2089844z" fill="none" stroke="url(#o)" transform="matrix(1.093254 0 0 1.093254 71.195955 16.739633)"/><path d="m36.086754 51.172252h-8.997991l-1.419949 4.065537h-5.784423l8.265596-22.315616h6.860595l8.265597 22.315616h-5.784423zm-7.563096-4.140272h6.113253l-3.049153-8.878417z"/><path d="m37.695522 25.407576h52.476196v52.476196h-52.476196z" opacity="0"/><g opacity=".262348" transform="matrix(1.20422311327 0 0 1.24943151628 34.95416672168 18.61384443312)"><path d="m38 40h5v7h-5z" fill="url(#v)" opacity="1"/><path d="m-10-47h5v7h-5z" fill="url(#w)" opacity="1" transform="scale(-1)"/><path d="m10 40h28v7.000001h-28z" fill="url(#x)" opacity="1"/></g><g opacity=".4" transform="matrix(1.09883201848 0 0 .78089588053 37.48356599538 38.99515629144)"><path d="m38 40h5v7h-5z" fill="url(#v)" opacity="1"/><path d="m-10-47h5v7h-5z" fill="url(#w)" opacity="1" transform="scale(-1)"/><path d="m10 40h28v7.000001h-28z" fill="url(#x)" opacity="1"/></g><path d="m47.014262 29.233973h20.745744c4.238604.07977 7.106151 2.733133 9.839294 5.466274 2.73313 2.73313 5.037375 5.742444 5.466266 9.839277v27.305267c0 1.225783-.986803 2.212595-2.21256 2.212595h-33.838744c-1.225775 0-2.212589-.986812-2.212589-2.212595v-40.398234c0-1.225768.986814-2.212584 2.212589-2.212584z" fill="url(#t)" stroke="#555753" stroke-width="1.093254"/><path d="m8.53125 3.9863281c-.8581697 0-1.5449219.6867521-1.5449219 1.5449219v36.9375c0 .85817.6867521 1.544922 1.5449219 1.544922h30.9375c.858169 0 1.544922-.686754 1.544922-1.544922v-24.96875c0-1.39197-.500651-4.299479-2.357422-6.15625l-5-5c-1.856771-1.8567708-4.76428-2.3574219-6.15625-2.3574219z" fill="url(#s)" opacity=".680162" transform="matrix(1.093254 0 0 1.093254 37.695523 25.407581)"/><path d="m67.760006 29.7806c-1.518408 0-.046.543439 1.469062 1.229907 1.515061.686471 5.436626 3.51487 4.543837 7.516122 4.726479-.470736 7.30199 3.413553 7.652775 4.680491.35081 1.266946 1.093281 2.850811 1.093281 1.332404.03104-4.160459-3.110787-7.031481-5.295477-9.463479-2.184663-2.431999-5.468955-4.774226-9.463478-5.295445z" fill="url(#q)"/><path d="m68.963551 30.88954c1.008307 0 3.288989 6.773431 2.280684 11.292495 4.695478-.467646 9.679.09642 10.181445 1.025085-.350785-1.266938-2.926296-5.151227-7.652775-4.680491.945293-4.236613-3.483735-7.234389-4.809354-7.637089z" fill="url(#p)" opacity=".878542"/><path d="m-51.46875 4.4941406c-.583166 0-1.037109.4539436-1.037109 1.0371094v36.9375c0 .583165.453945 1.037109 1.037109 1.037109h30.9375c.583165 0 1.037109-.453945 1.037109-1.037109v-24.96875c0-1.279029-.501953-4.089844-2.208984-5.796875l-5-5c-1.707031-1.7070313-4.517846-2.2089844-5.796875-2.2089844z" fill="none" stroke="url(#o)" transform="matrix(1.093254 0 0 1.093254 103.29078 25.407581)"/><path d="m63.57792 49.995122q1.360161 0 2.062662-.597874.702501-.597873.702501-1.763725 0-1.150906-.702501-1.748779-.702501-.612821-2.062662-.612821h-3.183675v4.723199zm.194309 9.760279q1.733832 0 2.600748-.732394.881863-.732395.881863-2.212131 0-1.449843-.866916-2.16729-.866916-.732395-2.615695-.732395h-3.377984v5.84421zm5.350965-8.026447q1.853407.538086 2.869791 1.987928 1.016384 1.449843 1.016384 3.557346 0 3.228515-2.182237 4.812879-2.182237 1.584364-6.636392 1.584364h-9.551024v-22.315617h8.639267q4.648464 0 6.726074 1.405002 2.092556 1.405002 2.092556 4.498996 0 1.629204-.762289 2.78011-.762288 1.135959-2.21213 1.688992z"/><g transform="matrix(-1.6398808 0 0 1.6398808 191.72718 -189.35824)"><ellipse cx="22.738329" cy="41.194096" fill="url(#i)" fill-rule="evenodd" opacity=".3" rx="14.73833" ry="3.623922" transform="matrix(1.2552303 0 0 1.7936366 62.95816 84.612762)"/><g opacity=".9" transform="translate(128 120)"><path d="m-42.5 47.000002-10-9.500001 10-9.5v5.500001l12.5-.000001c3 0 5.5-1.5 5.5-9.999999l3-.000002c0 17.500001-6.499721 17.999999-13.5 17.999999l-7.5.000001z" fill="url(#j)" fill-rule="evenodd" opacity="1" stroke="url(#k)" stroke-linejoin="round"/><path d="m35.988281 24.007812c-.05098 3.971809-.644346 6.455179-1.697265 7.96875-1.100846 1.582466-2.706488 2.031251-4.291016 2.03125h-12.5a.50721555.50721555 0 0 1 -.507812-.507812v-4.318359l-8.7558599 8.318359 8.7558599 8.318359v-4.318359a.50721555.50721555 0 0 1 .507812-.507812h7.5c3.488065 0 6.69163-.138556 9.03125-2.302735 2.287825-2.116267 3.865732-6.373981 3.935547-14.681641z" fill="url(#l)" fill-rule="evenodd" opacity="1" transform="translate(-60)"/><g fill="none"><path d="m36.412109 24.496094c-.101884 3.66952-.631917 6.197443-1.71875 7.759765-1.198088 1.722252-3.027324 2.240235-4.693359 2.240235h-12.5a.99630841.99630841 0 0 1 -.996094-.996094v-3.179688l-7.5585935 7.179688 7.5585935 7.179688v-3.179688a.99630841.99630841 0 0 1 .996094-.996094h7.5c3.476421 0 6.514214-.150718 8.699219-2.171875 2.08907-1.932416 3.619829-5.95687 3.753906-13.835937z" opacity=".35" stroke="url(#m)" transform="translate(-60)"/><path d="m-43.5 30.3125-7.5625 7.1875m28.5-13h-1.03125c-.102096 3.668029-.632175 6.188048-1.71875 7.75-1.198088 1.722252-3.021465 2.250001-4.6875 2.25h-12.5" opacity=".3" stroke="url(#n)" stroke-linecap="round"/></g></g></g></svg>