<svg height="96" width="96" xmlns="http://www.w3.org/2000/svg" xmlns:xlink="http://www.w3.org/1999/xlink"><linearGradient id="a" gradientTransform="matrix(1.0058652 0 0 .994169 100 0)" gradientUnits="userSpaceOnUse" x1="45.447727" x2="45.447727" y1="92.539597" y2="7.01654"><stop offset="0"/><stop offset="1" stop-opacity=".588235"/></linearGradient><linearGradient id="b"><stop offset="0" stop-color="#fefefe"/><stop offset="1" stop-color="#fefefe" stop-opacity="0"/></linearGradient><linearGradient id="c" gradientUnits="userSpaceOnUse" x1="36.357143" x2="36.357143" xlink:href="#b" y1="6" y2="63.893143"/><radialGradient id="d" cx="48" cy="90.171875" gradientTransform="matrix(1.1573129 0 0 .99590774 -7.551021 .197132)" gradientUnits="userSpaceOnUse" r="42" xlink:href="#b"/><linearGradient id="e" gradientUnits="userSpaceOnUse" x1="48" x2="48" y1="-6" y2="-90.012283"><stop offset="0" stop-color="#80c341"/><stop offset=".59247202" stop-color="#409433"/><stop offset="1" stop-color="#006525"/></linearGradient><linearGradient id="f" gradientTransform="translate(0 -97)" gradientUnits="userSpaceOnUse" x1="32.251034" x2="32.251034" xlink:href="#a" y1="6.131708" y2="90.238609"/><linearGradient id="g" gradientTransform="matrix(1.0238095 0 0 1.0119048 -1.142857 -98.071429)" gradientUnits="userSpaceOnUse" x1="32.251034" x2="32.251034" xlink:href="#a" y1="6.131708" y2="90.238609"/><g fill="url(#g)"><path d="m12-95.03125c-5.5110903 0-10.03125 4.52016-10.03125 10.03125v71c0 5.5110902 4.5201598 10.03125 10.03125 10.03125h72c5.51109 0 10.03125-4.5201597 10.03125-10.03125v-71c0-5.51109-4.52016-10.03125-10.03125-10.03125z" opacity=".08" transform="scale(1 -1)"/><path d="m12-94.03125c-4.971633 0-9.03125 4.059617-9.03125 9.03125v71c0 4.9716329 4.0596171 9.03125 9.03125 9.03125h72c4.971633 0 9.03125-4.059617 9.03125-9.03125v-71c0-4.971633-4.059617-9.03125-9.03125-9.03125z" opacity=".1" transform="scale(1 -1)"/><path d="m12-93c-4.4091333 0-8 3.590867-8 8v71c0 4.4091333 3.5908667 8 8 8h72c4.409133 0 8-3.5908667 8-8v-71c0-4.409133-3.590867-8-8-8z" opacity=".2" transform="scale(1 -1)"/><rect height="85" opacity=".3" rx="7" transform="scale(1 -1)" width="86" x="5" y="-92"/></g><rect fill="url(#f)" height="84" opacity=".45" rx="6" transform="scale(1 -1)" width="84" x="6" y="-91"/><rect fill="url(#e)" height="84" rx="6" transform="scale(1 -1)" width="84" x="6" y="-90"/><path d="m12 6c-3.324 0-6 2.676-6 6v2 68 2c0 .334721.04135.6507.09375.96875.0487.295596.09704.596915.1875.875.00988.03038.020892.0636.03125.09375.098865.287771.2348802.547452.375.8125.1445918.273507.3156161.535615.5.78125s.3737765.473472.59375.6875c.439947.428056.94291.814526 1.5 1.09375.278545.139612.5734731.246947.875.34375-.2562018-.100222-.4867109-.236272-.71875-.375-.00741-.0044-.023866.0045-.03125 0-.031933-.0193-.062293-.04251-.09375-.0625-.120395-.0767-.2310226-.163513-.34375-.25-.1061728-.0808-.2132809-.161112-.3125-.25-.1779299-.161433-.3474596-.345388-.5-.53125-.1075789-.130255-.2183939-.265285-.3125-.40625-.025089-.03838-.038446-.08587-.0625-.125-.064763-.103032-.1302275-.204517-.1875-.3125-.1010083-.194706-.2056748-.415701-.28125-.625-.00796-.02181-.023589-.04055-.03125-.0625-.0318251-.09195-.0358045-.186831-.0625-.28125-.0303323-.106618-.0703894-.203031-.09375-.3125-.0728786-.341512-.125-.698205-.125-1.0625v-2-68-2c0-2.781848 2.2181517-5 5-5h2 68 2c2.781848 0 5 2.218152 5 5v2 68 2c0 .364295-.05212.720988-.125 1.0625-.04415.206893-.08838.397658-.15625.59375-.0077.02195-.0233.04069-.03125.0625-.06274.173739-.138383.367449-.21875.53125-.04158.0828-.07904.169954-.125.25-.0546.09721-.126774.18835-.1875.28125-.09411.140965-.204921.275995-.3125.40625-.143174.17445-.303141.346998-.46875.5-.01117.0102-.01998.02115-.03125.03125-.138386.125556-.285091.234436-.4375.34375-.102571.07315-.204318.153364-.3125.21875-.0074.0045-.02384-.0044-.03125 0-.232039.138728-.462548.274778-.71875.375.301527-.0968.596455-.204138.875-.34375.55709-.279224 1.060053-.665694 1.5-1.09375.219973-.214028.409366-.441865.59375-.6875s.355408-.507743.5-.78125c.14012-.265048.276135-.524729.375-.8125.01041-.03078.02133-.06274.03125-.09375.09046-.278085.1388-.579404.1875-.875.0524-.31805.09375-.634029.09375-.96875v-2-68-2c0-3.324-2.676-6-6-6z" fill="url(#c)" opacity=".4"/><path d="m12 90c-3.324 0-6-2.676-6-6v-2-68-2c0-.334721.04135-.6507.09375-.96875.0487-.295596.09704-.596915.1875-.875.00988-.03038.020892-.0636.03125-.09375.098865-.287771.2348802-.547452.375-.8125.1445918-.273507.3156161-.535615.5-.78125s.3737765-.473472.59375-.6875c.439947-.428056.94291-.814526 1.5-1.09375.278545-.139612.5734731-.246947.875-.34375-.2562018.100222-.4867109.236272-.71875.375-.00741.0044-.023866-.0045-.03125 0-.031933.0193-.062293.04251-.09375.0625-.120395.0767-.2310226.163513-.34375.25-.1061728.0808-.2132809.161112-.3125.25-.1779299.161433-.3474596.345388-.5.53125-.1075789.130255-.2183939.265285-.3125.40625-.025089.03838-.038446.08587-.0625.125-.064763.103032-.1302275.204517-.1875.3125-.1010083.194706-.2056748.415701-.28125.625-.00796.02181-.023589.04055-.03125.0625-.0318251.09195-.0358045.186831-.0625.28125-.0303323.106618-.0703894.203031-.09375.3125-.0728786.341512-.125.698205-.125 1.0625v2 68 2c0 2.781848 2.2181517 5 5 5h2 68 2c2.781848 0 5-2.218152 5-5v-2-68-2c0-.364295-.05212-.720988-.125-1.0625-.04415-.206893-.08838-.397658-.15625-.59375-.0077-.02195-.0233-.04069-.03125-.0625-.06274-.173739-.138383-.367449-.21875-.53125-.04158-.0828-.07904-.169954-.125-.25-.0546-.09721-.126774-.18835-.1875-.28125-.09411-.140965-.204921-.275995-.3125-.40625-.143174-.17445-.303141-.346998-.46875-.5-.01117-.0102-.01998-.02115-.03125-.03125-.138386-.125556-.285091-.234436-.4375-.34375-.102571-.07315-.204318-.153364-.3125-.21875-.0074-.0045-.02384.0044-.03125 0-.232039-.138728-.462548-.274778-.71875-.375.301527.0968.596455.204138.875.34375.55709.279224 1.060053.665694 1.5 1.09375.219973.214028.409366.441865.59375.6875s.355408.507743.5.78125c.14012.265048.276135.524729.375.8125.01041.03078.02133.06274.03125.09375.09046.278085.1388.579404.1875.875.0524.31805.09375.634029.09375.96875v2 68 2c0 3.324-2.676 6-6 6z" fill="url(#d)" opacity=".2"/><path d="m46.46875 12.84375c-.56942.03891-.98403.19838-1.15625.5-.03421.05999-.04612.118559-.0625.1875l-.03125-.03125c-10.444134 19.098634-13.800376 37.470441-8.15625 43.46875l-10.40625 18.25-10.78125-2.0625-1 1.75 21.21875 12.09375 1-1.75-7.28125-8.21875 10.4375-18.25c8.025796 1.847834 22.127903-10.399674 33.28125-29.125l-.0625-.03125c.05211-.04972.121491-.06416.15625-.125.918508-1.608641-4.684533-6.568743-12.5-11.03125-6.350067-3.625786-12.188761-5.79361-14.65625-5.625zm19.40625 18.71875c.547495-.01116 1.090079-.01131 1.65625.03125.456771.0343.886016.1046 1.3125.15625-9.735823 16.110707-22.100248 26.181073-28.21875 22.6875-4.272605-2.43959-4.370297-10.864523-1.03125-21.375 1.347893.829828 2.749966 1.53489 4.21875 2.03125 4.013517 1.3563 7.712013.256437 11.5-1.03125 3.314489-1.126726 6.730037-2.421848 10.5625-2.5z" fill="#fefefe" transform="matrix(.9999999956 0 0 .9999999956 .00000071026 .00000034405)"/><path d="m63.491901 51.255151c-2.371278 0-4.249468.907833-5.600418 2.790362-1.600339 2.23152-2.417001 5.765497-2.417001 10.532698 0 4.422179.580873 7.788706 1.748896 10.100412 1.15073 2.274752 2.81987 3.632994 4.951943 4.087312.463916 2.249612 1.1803 3.770565 2.161549 4.55895.741553.597365 1.729265.903925 2.947596.903925.368193 0 .768815-.02461 1.179039-.07878l1.395197-.19662v-3.045844c-.214774.02461-.420932.01846-.609182.01846-.650904 0-1.138544-.129538-1.454152-.412654-.406837-.368653-.721552-1.064267-.923556-2.102595 2.004993-.686228 3.480899-2.175735 4.44101-4.44104.943558-2.23389 1.414859-5.251426 1.414859-9.098239 0-4.199712-.633459-7.398052-1.925761-9.628773-1.315964-2.281029-3.341543-3.608624-6.130982-3.930107-.404407-.048-.799522-.05907-1.179037-.05907zm12.792527 1.650647-1.120085 4.735785-1.768558-.117852v3.163753l1.454153.07878v11.986849c0 1.568892.306774 2.707068.943218 3.419175.546226.614688 1.351657.923586 2.39737.923586.15631 0 .323945-.0061.491271-.01846 1.154822-.09908 2.318753-.417393 3.517453-.943249v-2.731408c-.705307.321453-1.350056.51561-1.945392.550226-.03877.0029-.08031 0-.117852 0-.388684 0-.676997-.124309-.864632-.373392-.208005-.272004-.314407-.866971-.314407-1.80785v-10.827443l3.026183.137542v-2.947596l-3.026183-.216004v-4.716124l-2.672482-.294774zm-11.868941 1.945392c.08 0 .171697.01227.25539.01846 1.093683.096 1.911053.853617 2.456325 2.259799.545026 1.399135.805677 3.936414.805677 7.644087 0 4.131343-.276313 6.901274-.825339 8.312162-.552657 1.425074-1.355258 2.171797-2.436663 2.240199-.04892.0029-.109234.01846-.157234.01846-1.079836 0-1.887329-.781307-2.436662-2.338414-.582442-1.634925-.884295-4.407225-.884295-8.331856 0-4.060571.296314-6.742469.884295-8.03708.54281-1.187654 1.324918-1.788189 2.338414-1.788189z" fill="#fefefe"/></svg>