<svg height="96" width="96" xmlns="http://www.w3.org/2000/svg" xmlns:xlink="http://www.w3.org/1999/xlink"><linearGradient id="a"><stop offset="0" stop-color="#fefefe"/><stop offset="1" stop-color="#fefefe" stop-opacity="0"/></linearGradient><linearGradient id="b" gradientUnits="userSpaceOnUse" x1="36.357143" x2="36.357143" xlink:href="#a" y1="6" y2="63.893143"/><radialGradient id="c" cx="48" cy="90.171875" gradientTransform="matrix(1.1573129 0 0 .99590774 -7.551021 .197132)" gradientUnits="userSpaceOnUse" r="42" xlink:href="#a"/><linearGradient id="d" gradientUnits="userSpaceOnUse" x1="48" x2="48" y1="90" y2="5.987717"><stop offset="0" stop-color="#2557a3"/><stop offset="1" stop-color="#5287d7"/></linearGradient><linearGradient id="e" gradientTransform="matrix(1.0058652 0 0 .994169 100 0)" gradientUnits="userSpaceOnUse" x1="45.447727" x2="45.447727" y1="92.539597" y2="7.01654"><stop offset="0"/><stop offset="1" stop-opacity=".588235"/></linearGradient><linearGradient id="f" gradientTransform="matrix(1.0238095 0 0 -1.0119048 -1.142857 98.071429)" gradientUnits="userSpaceOnUse" x1="32.251034" x2="32.251034" xlink:href="#e" y1="6.131708" y2="90.238609"/><linearGradient id="g" gradientTransform="matrix(1.0238095 0 0 1.0119048 -1.142857 -98.071429)" gradientUnits="userSpaceOnUse" x1="32.251034" x2="32.251034" xlink:href="#e" y1="6.131708" y2="90.238609"/><linearGradient id="h" gradientTransform="translate(0 -97)" gradientUnits="userSpaceOnUse" x1="32.251034" x2="32.251034" xlink:href="#e" y1="6.131708" y2="90.238609"/><filter id="i" color-interpolation-filters="sRGB" height="1.36" width="1.36" x="-.18" y="-.18"><feGaussianBlur stdDeviation="4.5"/></filter><clipPath id="j"><path d="m12 6c-3.324 0-6 2.676-6 6v72c0 3.324 2.676 6 6 6h72c3.324 0 6-2.676 6-6v-72c0-3.324-2.676-6-6-6zm36 12a30 30 0 0 1 30 30 30 30 0 0 1 -30 30 30 30 0 0 1 -30-30 30 30 0 0 1 30-30z"/></clipPath><linearGradient id="k" gradientUnits="userSpaceOnUse" x1="48.115208" x2="47.976807" y1="65.702766" y2="28.375576"><stop offset="0" stop-color="#dcdcdc"/><stop offset="1" stop-color="#f0f0f0"/></linearGradient><filter id="l" color-interpolation-filters="sRGB" height="1.256037" width="1.225854" x="-.112927" y="-.128018"><feGaussianBlur stdDeviation="2.4003418"/></filter><g fill="url(#f)"><path d="m12 95.03125c-5.5110903 0-10.03125-4.52016-10.03125-10.03125v-71c0-5.5110902 4.5201598-10.03125 10.03125-10.03125h72c5.51109 0 10.03125 4.5201597 10.03125 10.03125v71c0 5.51109-4.52016 10.03125-10.03125 10.03125z" opacity=".08"/><path d="m12 94.03125c-4.971633 0-9.03125-4.059617-9.03125-9.03125v-71c0-4.9716329 4.0596171-9.03125 9.03125-9.03125h72c4.971633 0 9.03125 4.059617 9.03125 9.03125v71c0 4.971633-4.059617 9.03125-9.03125 9.03125z" opacity=".1"/><path d="m12 93c-4.4091333 0-8-3.590867-8-8v-71c0-4.4091333 3.5908667-8 8-8h72c4.409133 0 8 3.5908667 8 8v71c0 4.409133-3.590867 8-8 8z" opacity=".2"/></g><rect fill="url(#g)" height="85" opacity=".3" rx="7" transform="scale(1 -1)" width="86" x="5" y="-92"/><rect fill="url(#h)" height="84" opacity=".45" rx="6" transform="scale(1 -1)" width="84" x="6" y="-91"/><rect fill="url(#d)" height="84" rx="6" width="84" x="6" y="6"/><path d="m12 6c-3.324 0-6 2.676-6 6v2 68 2c0 .334721.04135.6507.09375.96875.0487.295596.09704.596915.1875.875.00988.03038.020892.0636.03125.09375.098865.287771.2348802.547452.375.8125.1445918.273507.3156161.535615.5.78125s.3737765.473472.59375.6875c.439947.428056.94291.814526 1.5 1.09375.278545.139612.5734731.246947.875.34375-.2562018-.100222-.4867109-.236272-.71875-.375-.00741-.0044-.023866.0045-.03125 0-.031933-.0193-.062293-.04251-.09375-.0625-.120395-.0767-.2310226-.163513-.34375-.25-.1061728-.0808-.2132809-.161112-.3125-.25-.1779299-.161433-.3474596-.345388-.5-.53125-.1075789-.130255-.2183939-.265285-.3125-.40625-.025089-.03838-.038446-.08587-.0625-.125-.064763-.103032-.1302275-.204517-.1875-.3125-.1010083-.194706-.2056748-.415701-.28125-.625-.00796-.02181-.023589-.04055-.03125-.0625-.0318251-.09195-.0358045-.186831-.0625-.28125-.0303323-.106618-.0703894-.203031-.09375-.3125-.0728786-.341512-.125-.698205-.125-1.0625v-2-68-2c0-2.781848 2.2181517-5 5-5h2 68 2c2.781848 0 5 2.218152 5 5v2 68 2c0 .364295-.05212.720988-.125 1.0625-.04415.206893-.08838.397658-.15625.59375-.0077.02195-.0233.04069-.03125.0625-.06274.173739-.138383.367449-.21875.53125-.04158.0828-.07904.169954-.125.25-.0546.09721-.126774.18835-.1875.28125-.09411.140965-.204921.275995-.3125.40625-.143174.17445-.303141.346998-.46875.5-.01117.0102-.01998.02115-.03125.03125-.138386.125556-.285091.234436-.4375.34375-.102571.07315-.204318.153364-.3125.21875-.0074.0045-.02384-.0044-.03125 0-.232039.138728-.462548.274778-.71875.375.301527-.0968.596455-.204138.875-.34375.55709-.279224 1.060053-.665694 1.5-1.09375.219973-.214028.409366-.441865.59375-.6875s.355408-.507743.5-.78125c.14012-.265048.276135-.524729.375-.8125.01041-.03078.02133-.06274.03125-.09375.09046-.278085.1388-.579404.1875-.875.0524-.31805.09375-.634029.09375-.96875v-2-68-2c0-3.324-2.676-6-6-6z" fill="url(#b)" opacity=".4"/><path d="m12 90c-3.324 0-6-2.676-6-6v-2-68-2c0-.334721.04135-.6507.09375-.96875.0487-.295596.09704-.596915.1875-.875.00988-.03038.020892-.0636.03125-.09375.098865-.287771.2348802-.547452.375-.8125.1445918-.273507.3156161-.535615.5-.78125s.3737765-.473472.59375-.6875c.439947-.428056.94291-.814526 1.5-1.09375.278545-.139612.5734731-.246947.875-.34375-.2562018.100222-.4867109.236272-.71875.375-.00741.0044-.023866-.0045-.03125 0-.031933.0193-.062293.04251-.09375.0625-.120395.0767-.2310226.163513-.34375.25-.1061728.0808-.2132809.161112-.3125.25-.1779299.161433-.3474596.345388-.5.53125-.1075789.130255-.2183939.265285-.3125.40625-.025089.03838-.038446.08587-.0625.125-.064763.103032-.1302275.204517-.1875.3125-.1010083.194706-.2056748.415701-.28125.625-.00796.02181-.023589.04055-.03125.0625-.0318251.09195-.0358045.186831-.0625.28125-.0303323.106618-.0703894.203031-.09375.3125-.0728786.341512-.125.698205-.125 1.0625v2 68 2c0 2.781848 2.2181517 5 5 5h2 68 2c2.781848 0 5-2.218152 5-5v-2-68-2c0-.364295-.05212-.720988-.125-1.0625-.04415-.206893-.08838-.397658-.15625-.59375-.0077-.02195-.0233-.04069-.03125-.0625-.06274-.173739-.138383-.367449-.21875-.53125-.04158-.0828-.07904-.169954-.125-.25-.0546-.09721-.126774-.18835-.1875-.28125-.09411-.140965-.204921-.275995-.3125-.40625-.143174-.17445-.303141-.346998-.46875-.5-.01117-.0102-.01998-.02115-.03125-.03125-.138386-.125556-.285091-.234436-.4375-.34375-.102571-.07315-.204318-.153364-.3125-.21875-.0074-.0045-.02384.0044-.03125 0-.232039-.138728-.462548-.274778-.71875-.375.301527.0968.596455.204138.875.34375.55709.279224 1.060053.665694 1.5 1.09375.219973.214028.409366.441865.59375.6875s.355408.507743.5.78125c.14012.265048.276135.524729.375.8125.01041.03078.02133.06274.03125.09375.09046.278085.1388.579404.1875.875.0524.31805.09375.634029.09375.96875v2 68 2c0 3.324-2.676 6-6 6z" fill="url(#c)" opacity=".2"/><circle clip-path="url(#j)" cx="48" cy="48" fill="#fefefe" filter="url(#i)" opacity=".2" r="30"/><circle cx="48" cy="48" opacity=".15" r="30"/><circle cx="48" cy="48" fill="none" r="30"/><path d="m48 18a30 30 0 0 0 -30 30 30 30 0 0 0 30 30 30 30 0 0 0 30-30 30 30 0 0 0 -30-30zm0 1c16.028102 0 29 12.971898 29 29s-12.971898 29-29 29-29-12.971898-29-29 12.971898-29 29-29z" opacity=".15"/><path d="m48 18a30 30 0 0 0 -30 30 30 30 0 0 0 30 30 30 30 0 0 0 30-30 30 30 0 0 0 -30-30zm0 2c15.487662 0 28 12.512338 28 28s-12.512338 28-28 28-28-12.512338-28-28 12.512338-28 28-28z" opacity=".05"/><path d="m77.978516 47.410156a30 30 0 0 1 -29.978516 29.589844 30 30 0 0 1 -29.978516-29.410156 30 30 0 0 0 -.021484.410156 30 30 0 0 0 30 30 30 30 0 0 0 30-30 30 30 0 0 0 -.021484-.589844z" fill="#fefefe" opacity=".4"/><path d="m52.5 25-6.5 8h4.013672v21c-.04709.289485.038451.809627.050781 1 .519688 6.21457 5.712959 10.995301 11.949219 11 6.627417 0 12-5.372583 12-12s-5.372583-12-12-12c-2.513003.0036-4.961457.796087-7 2.265625v-11.265625h3.986328zm-17.5 4c-6.627417 0-12 5.372583-12 12s5.372583 12 12 12c2.513003-.0036 4.961457-.796087 7-2.265625v11.265625h-4l6.5 8 6.5-8h-4v-21c.04709-.289485-.038451-.809627-.050781-1-.519688-6.21457-5.712959-10.995301-11.949219-11zm0 5c3.865993 0 7 3.134007 7 7s-3.134007 7-7 7-7-3.134007-7-7 3.134007-7 7-7zm27.013672 13c3.865993 0 7 3.134007 7 7s-3.134007 7-7 7-7-3.134007-7-7 3.134007-7 7-7z" filter="url(#l)" opacity=".7"/><path d="m52.5 25-6.5 8h4.013672v21c-.04709.289485.038451.809627.050781 1 .519688 6.21457 5.712959 10.995301 11.949219 11 6.627417 0 12-5.372583 12-12s-5.372583-12-12-12c-2.513003.0036-4.961457.796087-7 2.265625v-11.265625h3.986328zm-17.5 4c-6.627417 0-12 5.372583-12 12s5.372583 12 12 12c2.513003-.0036 4.961457-.796087 7-2.265625v11.265625h-4l6.5 8 6.5-8h-4v-21c.04709-.289485-.038451-.809627-.050781-1-.519688-6.21457-5.712959-10.995301-11.949219-11zm0 5c3.865993 0 7 3.134007 7 7s-3.134007 7-7 7-7-3.134007-7-7 3.134007-7 7-7zm27.013672 13c3.865993 0 7 3.134007 7 7s-3.134007 7-7 7-7-3.134007-7-7 3.134007-7 7-7z" fill="url(#k)"/><path d="m52.5 25-6.5 8h1.625l4.875-6 4.875 6h1.625zm-17.5 4c-6.627417 0-12 5.372583-12 12 0 .3377.023427.669361.050781 1 .509474-6.158207 5.659502-11 11.949219-11 6.23626.004699 11.42953 4.78543 11.949219 11 .01233.190373.097871.710515.050781 1v-2c.04709-.289485-.038451-.809627-.050781-1-.519688-6.21457-5.712959-10.995301-11.949219-11zm-6.919922 13c-.047037.327689-.080078.659297-.080078 1 0 3.865993 3.134007 7 7 7s7-3.134007 7-7c0-.340703-.033041-.672311-.080078-1-.486697 3.390631-3.394632 6-6.919922 6s-6.433225-2.609369-6.919922-6zm33.933594 0c-2.513003.0036-4.961457.796087-7 2.265625v2c2.038543-1.469538 4.486997-2.262025 7-2.265625 6.289717 0 11.439745 4.841793 11.949219 11 .027354-.330639.050781-.6623.050781-1 0-6.627417-5.372583-12-12-12zm-6.919922 13c-.047037.327689-.080078.659297-.080078 1 0 3.865993 3.134007 7 7 7s7-3.134007 7-7c0-.340703-.033041-.672311-.080078-1-.486697 3.390631-3.394632 6-6.919922 6s-6.433226-2.609369-6.919922-6zm-17.09375 7 1.625 2h2.375v-2zm9 0v2h2.375l1.625-2z" fill="#fefefe"/></svg>