<svg height="96" width="96" xmlns="http://www.w3.org/2000/svg" xmlns:xlink="http://www.w3.org/1999/xlink"><linearGradient gradientUnits="userSpaceOnUse" x1="42.67251796524" x2="42.67251796524" y1=".90795079375" y2="90.7251436"><stop offset="0" stop-color="#d90000"/><stop offset="1" stop-color="#a60000"/></linearGradient><linearGradient id="a"><stop offset="0" stop-color="#eff4f6"/><stop offset=".43062645" stop-color="#3e403e"/><stop offset=".64817768" stop-color="#e4e1e6"/><stop offset=".80357146" stop-color="#bebdbd"/><stop offset="1" stop-color="#f4f3f3"/></linearGradient><clipPath id="b"><rect height="87.696556" rx="6" transform="matrix(.99691858 .07844326 -.07844326 .99691858 0 0)" width="87.696556" x="9.865205" y="1.984583"/></clipPath><linearGradient id="c"><stop offset="0" stop-color="#505854"/><stop offset=".57208651" stop-color="#888"/><stop offset="1" stop-color="#505854"/></linearGradient><linearGradient id="d" gradientTransform="matrix(1.0058652 0 0 .994169 100 0)" gradientUnits="userSpaceOnUse" x1="45.447727" x2="45.447727" y1="92.539597" y2="7.01654"><stop offset="0"/><stop offset="1" stop-opacity=".588235"/></linearGradient><linearGradient id="e" gradientTransform="matrix(1.0238095 0 0 1.0119048 -1.142857 -98.071429)" gradientUnits="userSpaceOnUse" x1="32.251034" x2="32.251034" xlink:href="#d" y1="6.131708" y2="90.238609"/><linearGradient id="f" gradientTransform="translate(0 -97)" gradientUnits="userSpaceOnUse" x1="32.251034" x2="32.251034" xlink:href="#d" y1="6.131708" y2="90.238609"/><linearGradient id="g" gradientUnits="userSpaceOnUse" x1="-78.907754" x2="-78.907754" xlink:href="#v" y1="189.177443" y2="105.177439"/><linearGradient id="h" gradientTransform="matrix(.22381228 -.27787399 .44127916 .32776434 -344.88455 47.784876)" gradientUnits="userSpaceOnUse" x1="309.72757" x2="307.40265" y1="519.21393" y2="573.92938"><stop offset="0" stop-color="#2d2d2d"/><stop offset=".34523809" stop-color="#b9b9b9"/><stop offset="1" stop-color="#3e3e3e"/></linearGradient><linearGradient id="i" gradientTransform="matrix(.22381228 -.27787399 .44127916 .32776434 -344.88455 47.784876)" gradientUnits="userSpaceOnUse" x1="309.72757" x2="307.40265" y1="519.21393" y2="573.92938"><stop offset="0"/><stop offset=".34523809" stop-color="#484848"/><stop offset="1"/></linearGradient><linearGradient id="j" gradientTransform="matrix(.28671025 -.3706799 .56542172 .43733752 -415.87607 1.130986)" gradientUnits="userSpaceOnUse" x1="309.72757" x2="307.40265" y1="519.21393" y2="573.92938"><stop offset="0" stop-color="#161616"/><stop offset=".34523809" stop-color="#f8f8f8"/><stop offset="1" stop-color="#040404"/></linearGradient><linearGradient id="k" gradientUnits="userSpaceOnUse" x1="313.2811" x2="323.49045" y1="448.29324" y2="462.03387"><stop offset="0" stop-color="#c4c3c4"/><stop offset="1" stop-color="#e6e6e4"/></linearGradient><linearGradient id="l" gradientUnits="userSpaceOnUse" x1="313.72406" x2="327.61188" xlink:href="#c" y1="448.88943" y2="460.20541"/><linearGradient id="m" gradientTransform="matrix(.34449264 .25533587 -.21885843 .3875208 20.636943 -190.22608)" gradientUnits="userSpaceOnUse" x1="305.40778" x2="343.72498" xlink:href="#a" y1="450.60114" y2="459.08524"/><linearGradient id="n" gradientTransform="matrix(.34449264 .25533587 -.21885843 .3875208 20.636943 -190.22608)" gradientUnits="userSpaceOnUse" x1="305.40778" x2="343.72498" xlink:href="#c" y1="450.60114" y2="459.08524"/><linearGradient id="o" gradientUnits="userSpaceOnUse" x1="313.2811" x2="323.49045" y1="448.29324" y2="462.03387"><stop offset="0" stop-color="#acacac"/><stop offset="1" stop-color="#989898"/></linearGradient><linearGradient id="p" gradientUnits="userSpaceOnUse" x1="-99.300607" x2="-99.300607" xlink:href="#v" y1="105.177435" y2="163.070578"/><radialGradient id="q" cx="48" cy="90.171875" gradientTransform="matrix(1.1573129 0 0 .99590774 -143.20878 99.374567)" gradientUnits="userSpaceOnUse" r="42"><stop offset="0" stop-color="#fefefe"/><stop offset="1" stop-color="#fefefe" stop-opacity="0"/></radialGradient><linearGradient id="r" gradientTransform="matrix(.11989028 -.14558588 .14346059 .12166643 51.575471 56.28039)" gradientUnits="userSpaceOnUse" x1="438.25284" x2="438.09097" xlink:href="#a" y1="433.27954" y2="442.1882"/><linearGradient id="s" gradientTransform="matrix(.18692855 .00355865 -.00343421 .18577691 101.60398 -32.037325)" gradientUnits="userSpaceOnUse" x1="374.00919" x2="381.92175" xlink:href="#a" y1="381.68661" y2="384.91849"/><linearGradient id="t" gradientTransform="matrix(.18692855 .00355865 -.00350671 .18969779 101.65314 -33.569172)" gradientUnits="userSpaceOnUse" x1="385.98703" x2="393.07956" y1="370.00723" y2="377.39682"><stop offset="0" stop-color="#eff4f6"/><stop offset=".45290339" stop-color="#3e403e"/><stop offset=".64817768" stop-color="#e4e1e6"/><stop offset=".80357146" stop-color="#bebdbd"/><stop offset="1" stop-color="#f4f3f3"/></linearGradient><radialGradient id="u" cx="172.05902" cy="39.058861" gradientTransform="matrix(2.3720389 .10963272 -.10282872 2.224826 -232.074 -66.771999)" gradientUnits="userSpaceOnUse" r="1.033789"><stop offset="0" stop-color="#fefefe"/><stop offset="1" stop-color="#757575"/></radialGradient><linearGradient id="v"><stop offset="0" stop-color="#509528"/><stop offset="1" stop-color="#78cd46"/></linearGradient><g transform="translate(135.65775 -99.177435)"><g fill="url(#e)"><path d="m12-95.03125c-5.5110903 0-10.03125 4.52016-10.03125 10.03125v71c0 5.5110902 4.5201598 10.03125 10.03125 10.03125h72c5.51109 0 10.03125-4.5201597 10.03125-10.03125v-71c0-5.51109-4.52016-10.03125-10.03125-10.03125z" opacity=".08" transform="matrix(1 0 0 -1 -135.65775 99.177435)"/><path d="m12-94.03125c-4.971633 0-9.03125 4.059617-9.03125 9.03125v71c0 4.9716329 4.0596171 9.03125 9.03125 9.03125h72c4.971633 0 9.03125-4.059617 9.03125-9.03125v-71c0-4.971633-4.059617-9.03125-9.03125-9.03125z" opacity=".1" transform="matrix(1 0 0 -1 -135.65775 99.177435)"/><path d="m12-93c-4.4091333 0-8 3.590867-8 8v71c0 4.4091333 3.5908667 8 8 8h72c4.409133 0 8-3.5908667 8-8v-71c0-4.409133-3.590867-8-8-8z" opacity=".2" transform="matrix(1 0 0 -1 -135.65775 99.177435)"/><rect height="85" opacity=".3" rx="7" transform="matrix(1 0 0 -1 -135.65775 99.177435)" width="86" x="5" y="-92"/></g><rect fill="url(#f)" height="84" opacity=".45" rx="6" transform="matrix(1 0 0 -1 -135.65775 99.177435)" width="84" x="6" y="-91"/><rect fill="url(#g)" height="84" rx="6" width="84" x="-129.65776" y="105.17744"/><g clip-path="url(#b)" transform="matrix(.9548968 -.07513675 .07513675 .9548968 -139.10712 103.27651)"><path d="m-46.257036 143.12573 25.432099-28.15537c3.114987-3.44854 4.440389-7.94002 5.830165-11.64038-2.584324 8.53058 15.6328842 12.54359 15.50410313 15.44673-4.50750423 1.90523-8.51799473 3.44603-11.12792313 6.1037l-26.897456 27.38943c-3.692475 2.9712-11.768323-6.09612-8.740988-9.14411z" fill="url(#h)"/><path d="m-21.037911 115.31758 3.592454-12.59332c-2.584323 8.53059 19.9049352 13.30649 19.7761541 16.20963l-12.6782511 5.75529c-4.024497 3.43033-12.486675-6.56633-10.690357-9.3716z" fill="url(#i)"/><path d="m-17.445457 102.72426 35.796084-42.817636c-3.309794 11.380312 22.255793 15.338049 22.091234 19.211132l-38.1111639 39.816134c-12.7389711 6.39065-23.6543511-12.14374-19.7761541-16.20963z" fill="url(#j)"/><g stroke-linecap="round" stroke-linejoin="round"><path d="m342.27105 456.27069c0 7.88836-10.32551 14.28313-23.06268 14.28313-12.73716 0-23.06267-6.39477-23.06267-14.28313s10.32551-14.28313 23.06267-14.28313c12.73717 0 23.06268 6.39477 23.06268 14.28313z" fill="url(#k)" stroke="url(#l)" stroke-width="2.327058" transform="matrix(.48633011 .36046494 -.30896873 .54707413 15.29187 -295.39295)"/><path d="m28.190835 56.571134-3.58442 3.905037-.299192.150646c-.643658.362013-1.117217.985949-1.493438 1.652066-1.726409 3.056904.437916 8.119554 4.825718 11.371808 3.01665 2.235924 6.225392 2.951354 8.54524 2.223143 1.054481-.330999 2.001736-.999336 2.541239-1.954619.112577-.198924.217999-.384837.297932-.600064l4.631801-4.357396z" fill="url(#m)" stroke="url(#n)" stroke-width=".287629"/><path d="m342.27105 456.27069c0 7.88836-10.32551 14.28313-23.06268 14.28313-12.73716 0-23.06267-6.39477-23.06267-14.28313s10.32551-14.28313 23.06267-14.28313c12.73717 0 23.06268 6.39477 23.06268 14.28313z" fill="url(#o)" stroke="url(#l)" stroke-width=".660944" transform="matrix(.34449263 .25533586 -.21885843 .38752078 26.030943 -195.81476)"/></g></g><path d="m-123.65775 105.17744c-3.324 0-6 2.676-6 6v2 68 2c0 .33472.0413.6507.0937.96875.0487.29559.097.59691.1875.875.01.0304.0209.0636.0312.0937.0989.28777.23488.54745.375.8125.14459.2735.31561.53561.5.78125.18438.24563.37377.47347.59375.6875.43994.42805.94291.81452 1.5 1.09375.27854.13961.57347.24694.875.34375-.25621-.10023-.48672-.23628-.71875-.375-.007-.004-.0239.005-.0312 0-.0319-.0193-.0623-.0425-.0937-.0625-.1204-.0767-.23103-.16352-.34375-.25-.10618-.0808-.21329-.16112-.3125-.25-.17793-.16144-.34746-.34539-.5-.53125-.10758-.13026-.2184-.26529-.3125-.40625-.0251-.0384-.0385-.0859-.0625-.125-.0648-.10304-.13023-.20452-.1875-.3125-.10101-.19471-.20568-.41571-.28125-.625-.008-.0218-.0236-.0405-.0312-.0625-.0318-.0919-.0358-.18684-.0625-.28125-.0303-.10662-.0704-.20304-.0937-.3125-.0729-.34152-.125-.69821-.125-1.0625v-2-68-2c0-2.78185 2.21815-5 5-5h2 67.999995 2c2.781848 0 5 2.21815 5 5v2 68 2c0 .36429-.05212.72098-.125 1.0625-.04415.20689-.08838.39765-.15625.59375-.0077.022-.0233.0407-.03125.0625-.06274.17373-.138383.36744-.21875.53125-.04158.0828-.07904.16995-.125.25-.0546.0972-.126774.18835-.1875.28125-.09411.14096-.204921.27599-.3125.40625-.143174.17445-.303141.34699-.46875.5-.01117.0102-.01998.0212-.03125.0312-.138386.12555-.285091.23443-.4375.34375-.102571.0731-.204318.15336-.3125.21875-.0074.005-.02384-.004-.03125 0-.232039.13872-.462548.27477-.71875.375.301527-.0968.596455-.20414.875-.34375.55709-.27923 1.060053-.6657 1.5-1.09375.219973-.21403.409366-.44187.59375-.6875.184384-.24564.355408-.50775.5-.78125.14012-.26505.276135-.52473.375-.8125.01041-.0308.02133-.0627.03125-.0937.09046-.27809.1388-.57941.1875-.875.0524-.31805.09375-.63403.09375-.96875v-2-68-2c0-3.324-2.676-6-6-6h-71.999995z" fill="url(#p)" opacity=".35"/><path d="m-123.65775 189.17744c-3.324 0-6-2.676-6-6v-2-68-2c0-.33473.0413-.6507.0937-.96875.0487-.2956.097-.59692.1875-.875.01-.0304.0209-.0636.0312-.0937.0989-.28778.23488-.54746.375-.8125.14459-.27351.31561-.53562.5-.78125.18438-.24564.37377-.47348.59375-.6875.43994-.42806.94291-.81453 1.5-1.09375.27854-.13962.57347-.24695.875-.34375-.25621.10022-.48672.23627-.71875.375-.007.004-.0239-.005-.0312 0-.0319.0193-.0623.0425-.0937.0625-.1204.0767-.23103.16351-.34375.25-.10618.0808-.21329.16111-.3125.25-.17793.16143-.34746.34538-.5.53125-.10758.13025-.2184.26528-.3125.40625-.0251.0384-.0385.0859-.0625.125-.0648.10303-.13023.20451-.1875.3125-.10101.1947-.20568.4157-.28125.625-.008.0218-.0236.0405-.0312.0625-.0318.0919-.0358.18683-.0625.28125-.0303.10661-.0704.20303-.0937.3125-.0729.34151-.125.6982-.125 1.0625v2 68 2c0 2.78184 2.21815 5 5 5h2 67.999995 2c2.781848 0 5-2.21816 5-5v-2-68-2c0-.3643-.05212-.72099-.125-1.0625-.04415-.2069-.08838-.39766-.15625-.59375-.0077-.022-.0233-.0407-.03125-.0625-.06274-.17374-.138383-.36745-.21875-.53125-.04158-.0828-.07904-.16996-.125-.25-.0546-.0972-.126774-.18835-.1875-.28125-.09411-.14097-.204921-.276-.3125-.40625-.143174-.17445-.303141-.347-.46875-.5-.01117-.0102-.01998-.0212-.03125-.0312-.138386-.12556-.285091-.23444-.4375-.34375-.102571-.0731-.204318-.15337-.3125-.21875-.0074-.005-.02384.004-.03125 0-.232039-.13873-.462548-.27478-.71875-.375.301527.0968.596455.20413.875.34375.55709.27922 1.060053.66569 1.5 1.09375.219973.21402.409366.44186.59375.6875.184384.24563.355408.50774.5.78125.14012.26504.276135.52472.375.8125.01041.0308.02133.0627.03125.0937.09046.27808.1388.5794.1875.875.0524.31805.09375.63402.09375.96875v2 68 2c0 3.324-2.676 6-6 6h-71.999995z" fill="url(#q)" opacity=".2"/><g transform="matrix(6.4553883 -.2983601 .2983601 6.4553883 -1180.0076 -96.222471)"><path d="m164.36438 46.522023 5.33413-6.378667.76895-.301012.3088-1.008447c.11332-.13761.62867-.223149.96626-.239318.67985.203152.71884.217524.91448.893962.0321.315556.0422.785036-.0711.922646l-.88826.424454-.13817.885982-5.47877 6.13279c-.53997.680583-2.06363-.176037-1.71635-1.33239z" fill="url(#r)" stroke="#c1bec1" stroke-linecap="round" stroke-linejoin="round" stroke-width=".044166"/><path d="m169.72859 40.223806.75675-.353146c.0997.618659.38953 1.038404 1.16611 1.063274l-.14068.846483c-1.47821-.146092-1.55244-.845836-1.78218-1.556611z" fill="url(#s)"/><path d="m170.47459 39.86242.32701-1.035652c.31297.847336.84773 1.441841 1.79299 1.568395l-.9505.512361c-.90608.05063-1.09139-.455811-1.1695-1.045104z" fill="url(#t)"/><path d="m170.80198 38.806107c.29032 1.014139.96037 1.480458 1.85695 1.577169.42984-1.735786-.84727-2.139372-1.85695-1.577169z" fill="url(#u)" stroke="#d3d2d4" stroke-width=".044166"/><path d="m168.42611 41.679647.55092-.673533c.36417.751921.99897 1.293424 1.84439 1.533407l-.62535.70553c-.75893-.281837-1.44508-.72455-1.76996-1.565404z"/><path d="m167.01308 43.320048.31589-.343144c.34022.758826.92657 1.308421 1.71842 1.549596l-.36666.396059c-.71075-.283559-1.36437-.753824-1.66765-1.602511z"/></g></g><path d="m-123.74022-224.79711c-4.69615.00004-8.49077 1.70852-11.375 5.125-3.291 3.89327-4.9375 9.16965-4.9375 15.84375 0 4.96589.95217 9.28263 2.875 12.9375 2.92121 5.4426 7.41016 8.15625 13.4375 8.15625 1.30231 5.81601 4.89454 8.87526 13.34375 7.59375v-4.21875c-3.93328.36252-4.78719-1.79929-5.09375-5.625v-.25c1.18325-.75481 2.25731-1.69166 3.21875-2.84375 3.14305-3.77405 4.71872-9.03613 4.71875-15.75-.00003-5.00557-1.00325-9.31384-3-12.96875-2.95823-5.32337-7.34508-7.99996-13.1875-8zm31.65625 1.6875-5.9375.15625-1.96875 9.3125h-4.21875v6.96875h3.875v13.34375c0 3.65489.521303 6.21761 1.53125 7.6875 1.271776 1.94662 3.972996 2.90625 8.125 2.90625 1.383983 0 3.098938-.188 5.15625-.625v-6.625c-1.421426.0795-2.476816.12501-3.1875.125-1.159579.00001-1.982496-.19647-2.46875-.59375-.5985-.47672-.906263-1.70962-.90625-3.65625v-12.5625h6.125v-6.96875h-6.125zm-31.65625 6.125c4.58519.00003 6.87498 4.39939 6.875 13.21875-.00002 8.8194-2.28981 13.25001-6.875 13.25-4.65917.00001-7.00001-4.45338-7-13.3125-.00001-.35752-.00001-.70494 0-1.0625.22185-8.06454 2.56269-12.09372 7-12.09375z" fill="#fefefe" transform="matrix(.6484996 0 0 .6484996 141.85371 200.83537)"/></svg>