<svg height="96" width="96" xmlns="http://www.w3.org/2000/svg" xmlns:xlink="http://www.w3.org/1999/xlink"><linearGradient id="a"><stop offset="0" stop-color="#fefefe"/><stop offset="1" stop-color="#fefefe" stop-opacity="0"/></linearGradient><linearGradient id="b" gradientUnits="userSpaceOnUse" x1="36.357143" x2="36.357143" xlink:href="#a" y1="6" y2="63.893143"/><filter id="c" color-interpolation-filters="sRGB" height="1.384" width="1.384" x="-.192" y="-.192"><feGaussianBlur stdDeviation="5.28"/></filter><radialGradient id="d" cx="48" cy="90.171875" gradientTransform="matrix(1.1573129 0 0 .99590774 -7.551021 .197132)" gradientUnits="userSpaceOnUse" r="42"><stop offset="0" stop-color="#8e2710"/><stop offset="1" stop-color="#dd7b32"/></radialGradient><clipPath id="e"><rect height="84" rx="6" width="84" x="6" y="6"/></clipPath><linearGradient id="f" gradientUnits="userSpaceOnUse" x1="48" x2="48" y1="90" y2="5.987717"><stop offset="0" stop-color="#c5723c"/><stop offset="1" stop-color="#ffb871"/></linearGradient><linearGradient id="g"><stop offset="0"/><stop offset="1" stop-opacity="0"/></linearGradient><linearGradient id="h" gradientTransform="matrix(1.0058652 0 0 .994169 100 0)" gradientUnits="userSpaceOnUse" x1="45.447727" x2="45.447727" y1="92.539597" y2="7.01654"><stop offset="0"/><stop offset="1" stop-opacity=".588235"/></linearGradient><linearGradient id="i" gradientTransform="matrix(1.0238095 0 0 1.0119048 -1.142857 -98.071429)" gradientUnits="userSpaceOnUse" x1="32.251034" x2="32.251034" xlink:href="#h" y1="6.131708" y2="90.238609"/><linearGradient id="j" gradientTransform="translate(0 -97)" gradientUnits="userSpaceOnUse" x1="32.251034" x2="32.251034" xlink:href="#h" y1="6.131708" y2="90.238609"/><linearGradient id="k" gradientUnits="userSpaceOnUse" x1="48" x2="48" xlink:href="#a" y1="20.220806" y2="138.66119"/><radialGradient id="l" cx="48" cy="58.666668" gradientTransform="matrix(1 0 0 1.5 0 -22.262204)" gradientUnits="userSpaceOnUse" r="16"><stop offset="0" stop-color="#ffffab"/><stop offset="1" stop-color="#ffd08f"/></radialGradient><linearGradient id="m" gradientUnits="userSpaceOnUse" x1="48.353297" x2="48.353297" y1="26.08003" y2="48.008617"><stop offset="0" stop-color="#dcba84"/><stop offset="1" stop-color="#d3ea84" stop-opacity="0"/></linearGradient><linearGradient id="n" gradientUnits="userSpaceOnUse" x1="41.646389" x2="41.864433" xlink:href="#a" y1="72.826274" y2="24.420524"/><radialGradient id="o" cx="55.598351" cy="46.454388" gradientTransform="matrix(.94969259 -.31318364 1.2096513 3.6681255 -53.396602 -102.13685)" gradientUnits="userSpaceOnUse" r="2.613676" xlink:href="#a"/><radialGradient id="p" cx="55.598351" cy="46.454388" gradientTransform="matrix(.39510098 -.13029391 .5032517 1.5260517 6.382442 -24.264606)" gradientUnits="userSpaceOnUse" r="2.613676" xlink:href="#a"/><linearGradient id="q" gradientUnits="userSpaceOnUse" x1="49" x2="49" xlink:href="#g" y1="75" y2="22.990385"/><linearGradient id="r" gradientUnits="userSpaceOnUse" x1="47" x2="47" xlink:href="#g" y1="74" y2="24"/><linearGradient id="s" gradientUnits="userSpaceOnUse" x1="51" x2="52" xlink:href="#g" y1="73" y2="26"/><g><g fill="url(#i)"><path d="m12-95.03125c-5.5110903 0-10.03125 4.52016-10.03125 10.03125v71c0 5.5110902 4.5201598 10.03125 10.03125 10.03125h72c5.51109 0 10.03125-4.5201597 10.03125-10.03125v-71c0-5.51109-4.52016-10.03125-10.03125-10.03125z" opacity=".08" transform="scale(1 -1)"/><path d="m12-94.03125c-4.971633 0-9.03125 4.059617-9.03125 9.03125v71c0 4.9716329 4.0596171 9.03125 9.03125 9.03125h72c4.971633 0 9.03125-4.059617 9.03125-9.03125v-71c0-4.971633-4.059617-9.03125-9.03125-9.03125z" opacity=".1" transform="scale(1 -1)"/><path d="m12-93c-4.4091333 0-8 3.590867-8 8v71c0 4.4091333 3.5908667 8 8 8h72c4.409133 0 8-3.5908667 8-8v-71c0-4.409133-3.590867-8-8-8z" opacity=".2" transform="scale(1 -1)"/><rect height="85" opacity=".3" rx="7" transform="scale(1 -1)" width="86" x="5" y="-92"/></g><rect fill="url(#j)" height="84" opacity=".45" rx="6" transform="scale(1 -1)" width="84" x="6" y="-91"/></g><rect fill="url(#f)" height="84" rx="6" width="84" x="6" y="6"/><path d="m12 6c-3.324 0-6 2.676-6 6v2 68 2c0 .334721.04135.6507.09375.96875.0487.295596.09704.596915.1875.875.00988.03038.020892.0636.03125.09375.098865.287771.2348802.547452.375.8125.1445918.273507.3156161.535615.5.78125s.3737765.473472.59375.6875c.439947.428056.94291.814526 1.5 1.09375.278545.139612.5734731.246947.875.34375-.2562018-.100222-.4867109-.236272-.71875-.375-.00741-.0044-.023866.0045-.03125 0-.031933-.0193-.062293-.04251-.09375-.0625-.120395-.0767-.2310226-.163513-.34375-.25-.1061728-.0808-.2132809-.161112-.3125-.25-.1779299-.161433-.3474596-.345388-.5-.53125-.1075789-.130255-.2183939-.265285-.3125-.40625-.025089-.03838-.038446-.08587-.0625-.125-.064763-.103032-.1302275-.204517-.1875-.3125-.1010083-.194706-.2056748-.415701-.28125-.625-.00796-.02181-.023589-.04055-.03125-.0625-.0318251-.09195-.0358045-.186831-.0625-.28125-.0303323-.106618-.0703894-.203031-.09375-.3125-.0728786-.341512-.125-.698205-.125-1.0625v-2-68-2c0-2.781848 2.2181517-5 5-5h2 68 2c2.781848 0 5 2.218152 5 5v2 68 2c0 .364295-.05212.720988-.125 1.0625-.04415.206893-.08838.397658-.15625.59375-.0077.02195-.0233.04069-.03125.0625-.06274.173739-.138383.367449-.21875.53125-.04158.0828-.07904.169954-.125.25-.0546.09721-.126774.18835-.1875.28125-.09411.140965-.204921.275995-.3125.40625-.143174.17445-.303141.346998-.46875.5-.01117.0102-.01998.02115-.03125.03125-.138386.125556-.285091.234436-.4375.34375-.102571.07315-.204318.153364-.3125.21875-.0074.0045-.02384-.0044-.03125 0-.232039.138728-.462548.274778-.71875.375.301527-.0968.596455-.204138.875-.34375.55709-.279224 1.060053-.665694 1.5-1.09375.219973-.214028.409366-.441865.59375-.6875s.355408-.507743.5-.78125c.14012-.265048.276135-.524729.375-.8125.01041-.03078.02133-.06274.03125-.09375.09046-.278085.1388-.579404.1875-.875.0524-.31805.09375-.634029.09375-.96875v-2-68-2c0-3.324-2.676-6-6-6z" fill="url(#b)" opacity=".35"/><path d="m12 90c-3.324 0-6-2.676-6-6v-2-68-2c0-.334721.04135-.6507.09375-.96875.0487-.295596.09704-.596915.1875-.875.00988-.03038.020892-.0636.03125-.09375.098865-.287771.2348802-.547452.375-.8125.1445918-.273507.3156161-.535615.5-.78125s.3737765-.473472.59375-.6875c.439947-.428056.94291-.814526 1.5-1.09375.278545-.139612.5734731-.246947.875-.34375-.2562018.100222-.4867109.236272-.71875.375-.00741.0044-.023866-.0045-.03125 0-.031933.0193-.062293.04251-.09375.0625-.120395.0767-.2310226.163513-.34375.25-.1061728.0808-.2132809.161112-.3125.25-.1779299.161433-.3474596.345388-.5.53125-.1075789.130255-.2183939.265285-.3125.40625-.025089.03838-.038446.08587-.0625.125-.064763.103032-.1302275.204517-.1875.3125-.1010083.194706-.2056748.415701-.28125.625-.00796.02181-.023589.04055-.03125.0625-.0318251.09195-.0358045.186831-.0625.28125-.0303323.106618-.0703894.203031-.09375.3125-.0728786.341512-.125.698205-.125 1.0625v2 68 2c0 2.781848 2.2181517 5 5 5h2 68 2c2.781848 0 5-2.218152 5-5v-2-68-2c0-.364295-.05212-.720988-.125-1.0625-.04415-.206893-.08838-.397658-.15625-.59375-.0077-.02195-.0233-.04069-.03125-.0625-.06274-.173739-.138383-.367449-.21875-.53125-.04158-.0828-.07904-.169954-.125-.25-.0546-.09721-.126774-.18835-.1875-.28125-.09411-.140965-.204921-.275995-.3125-.40625-.143174-.17445-.303141-.346998-.46875-.5-.01117-.0102-.01998-.02115-.03125-.03125-.138386-.125556-.285091-.234436-.4375-.34375-.102571-.07315-.204318-.153364-.3125-.21875-.0074-.0045-.02384.0044-.03125 0-.232039-.138728-.462548-.274778-.71875-.375.301527.0968.596455.204138.875.34375.55709.279224 1.060053.665694 1.5 1.09375.219973.214028.409366.441865.59375.6875s.355408.507743.5.78125c.14012.265048.276135.524729.375.8125.01041.03078.02133.06274.03125.09375.09046.278085.1388.579404.1875.875.0524.31805.09375.634029.09375.96875v2 68 2c0 3.324-2.676 6-6 6z" fill="url(#d)" opacity=".2"/><g transform="matrix(1.1508829 0 0 1.1508829 -7.703286 -7.426785)"><path d="m47.65625 22.9375c-1.851395.370176-1.892434 2.672743-2.856299 3.950163-4.579781 8.111198-11.090894 15.237037-13.944919 24.245488-2.120619 6.39783-.494436 13.905411 4.381016 18.630801 5.515261 5.715567 14.925514 6.977169 21.745013 2.900749 7.015463-3.906561 11.077075-13.114864 8.070629-20.766823-2.675394-6.656185-7.730753-11.937043-11.348543-18.056933-1.762227-2.89652-3.46276-6.003905-3.734397-9.434695-.259236-.995404-1.303674-1.610521-2.3125-1.46875z" fill="url(#q)" opacity=".1"/><path d="m47.84375 24.0625a.93793621.93793621 0 0 0 -.71875.59375c-1.533644 3.987473-5.504783 9.243362-9.125 14.84375s-6.9375 11.603489-6.9375 17.5c0 9.343402 7.594096 16.9375 16.9375 16.9375s16.9375-7.594098 16.9375-16.9375c0-5.182182-4.054324-10.724001-8-16.3125s-7.803663-11.203-8-15.71875a.93793621.93793621 0 0 0 -1.09375-.90625z" fill="url(#r)" opacity=".15"/><path d="m48 25c-3.251199 8.453116-16 20.926817-16 32 0 8.836554 7.163444 16 16 16s16-7.163446 16-16c0-9.320102-15.566507-22.029658-16-32z" fill="url(#s)" opacity=".3"/></g><g transform="matrix(1.1508829 0 0 1.1508829 -7.703286 -9.426785)"><path d="m48 25.737796c-3.251199 8.453116-16 20.926817-16 32 0 8.836554 7.163444 16 16 16s16-7.163446 16-16c0-9.320102-15.566507-22.029658-16-32z" fill="url(#l)"/><path d="m48.000004 25.737796c-2.883607 7.497377-13.226577 18.146866-15.53125 28.1875h30.8125c-3.073228-8.783909-14.904201-19.51538-15.28125-28.1875z" fill="url(#m)" opacity=".8"/><path d="m47.474705 30.522483c-6.305498 9.531287-16.642978 22.631504-13.220003 30.129311 4.114109 2.410881-3.261938-5.926435 13.220003-30.129311z" fill="#e6bb1b" opacity=".4"/><path d="m47.315533 29.16298c-8.830779 14.936009-13.627745 18.642756-14.390899 28.018645.205612 15.156188 14.390899 15.699163 14.390899 15.699163l-1.417286-8.830779s-3.456313.807425-5.996208-8.28567c-1.380475-4.942248 7.413494-26.601359 7.413494-26.601359z" fill="url(#n)" opacity=".6"/><path d="m59.807442 57.492246c0 7.875442-6.015279 12.986846-13.640978 12.986846-1.871169 0-3.659178-.393314-5.28125-1.0625 2.163405 1.416699 4.737481 2.25 7.53125 2.25 7.625699 0 13.75-6.124302 13.75-13.75 0-3.412684-1.497712-6.15404-7.40625-14.46875 2.338445 5.548231 5.047228 6.183513 5.047228 14.044404z" fill="#ffffdb" opacity=".3"/><path d="m41.973457 70.373283-1.308264-6.868384c-7.086428-3.488703-3.597725-13.736768-3.597725-13.736768s-7.740559 13.30068 4.905989 20.605152z" fill="#fefefe"/><path d="m52.330543 39.411044c.929847 4.894168 4.881699 8.623058 5.114161 11.497411.755502 5.127224-2.498965 2.874353-3.022004.466111 0 0-1.511002-5.437964-2.092157-11.963522z" fill="url(#o)"/><path d="m60.15625 53.300296c.230563 1.193889.40625 2.472396.40625 4.1875 0 6.910999-4.519713 11.836947-10.65625 13.28125 6.490123-.744782 11.5-6.141205 11.5-12.84375 0-1.475328-.355885-2.793428-1.25-4.625z" fill="#ffb" opacity=".6"/><path d="m48 25.737796c-.175985.457561-.396888.925988-.625 1.40625 2.416544 9.548561 15.625 21.006185 15.625 29.59375 0 8.836554-7.163444 16-16 16-4.161935 0-7.93525-1.61422-10.78125-4.21875 2.925368 3.196584 7.106629 5.21875 11.78125 5.21875 8.836556 0 16-7.163446 16-16 0-9.320102-15.566507-22.029658-16-32z" fill="#eec8a2" opacity=".5"/><path d="m50.368148 34.623621c.386844 2.036123 2.030935 3.587454 2.127646 4.783272.314312 2.133081-1.039645 1.195819-1.257246.193917 0 0-.628622-2.262358-.8704-4.977189z" fill="url(#p)" opacity=".5"/></g><rect height="66" rx="12" style="opacity:.1;stroke:#fefefe;stroke-width:.5;stroke-linecap:round;clip-path:url(#e);fill:url(#k);filter:url(#c)" width="66" x="15" y="15"/></svg>