<svg height="96" width="96" xmlns="http://www.w3.org/2000/svg" xmlns:xlink="http://www.w3.org/1999/xlink"><linearGradient id="a"><stop offset="0" stop-color="#fefefe"/><stop offset="1" stop-color="#fefefe" stop-opacity="0"/></linearGradient><linearGradient id="b" gradientUnits="userSpaceOnUse" x1="36.357143" x2="36.357143" xlink:href="#a" y1="6" y2="63.893143"/><filter id="c" color-interpolation-filters="sRGB" height="1.384" width="1.384" x="-.192" y="-.192"><feGaussianBlur stdDeviation="5.28"/></filter><linearGradient id="d" gradientUnits="userSpaceOnUse" x1="48" x2="48" xlink:href="#a" y1="20.220806" y2="138.66119"/><radialGradient id="e" cx="48" cy="90.171875" gradientTransform="matrix(1.1573129 0 0 .99590774 -7.551021 .197132)" gradientUnits="userSpaceOnUse" r="42" xlink:href="#a"/><clipPath id="f"><rect height="84" rx="6" width="84" x="6" y="6"/></clipPath><linearGradient id="g" gradientUnits="userSpaceOnUse" x1="48" x2="48" y1="90" y2="5.987717"><stop offset="0" stop-color="#509528"/><stop offset="1" stop-color="#78cd46"/></linearGradient><linearGradient id="h" gradientTransform="matrix(1.0058652 0 0 .994169 100 0)" gradientUnits="userSpaceOnUse" x1="45.447727" x2="45.447727" y1="92.539597" y2="7.01654"><stop offset="0"/><stop offset="1" stop-opacity=".588235"/></linearGradient><linearGradient id="i" gradientTransform="matrix(1.0238095 0 0 1.0119048 -1.142857 -98.071429)" gradientUnits="userSpaceOnUse" x1="32.251034" x2="32.251034" xlink:href="#h" y1="6.131708" y2="90.238609"/><linearGradient id="j" gradientTransform="translate(0 -97)" gradientUnits="userSpaceOnUse" x1="32.251034" x2="32.251034" xlink:href="#h" y1="6.131708" y2="90.238609"/><linearGradient id="k" gradientTransform="matrix(.72917116 0 0 .73000392 42.529498 39.974636)" gradientUnits="userSpaceOnUse" x1="45.384357" x2="45.384357" y1="63.297825" y2="25.169353"><stop offset="0" stop-color="#00a8e1"/><stop offset="1" stop-color="#5dceff"/></linearGradient><g fill="url(#i)"><path d="m12-95.03125c-5.5110903 0-10.03125 4.52016-10.03125 10.03125v71c0 5.5110902 4.5201598 10.03125 10.03125 10.03125h72c5.51109 0 10.03125-4.5201597 10.03125-10.03125v-71c0-5.51109-4.52016-10.03125-10.03125-10.03125z" opacity=".08" transform="scale(1 -1)"/><path d="m12-94.03125c-4.971633 0-9.03125 4.059617-9.03125 9.03125v71c0 4.9716329 4.0596171 9.03125 9.03125 9.03125h72c4.971633 0 9.03125-4.059617 9.03125-9.03125v-71c0-4.971633-4.059617-9.03125-9.03125-9.03125z" opacity=".1" transform="scale(1 -1)"/><path d="m12-93c-4.4091333 0-8 3.590867-8 8v71c0 4.4091333 3.5908667 8 8 8h72c4.409133 0 8-3.5908667 8-8v-71c0-4.409133-3.590867-8-8-8z" opacity=".2" transform="scale(1 -1)"/><rect height="85" opacity=".3" rx="7" transform="scale(1 -1)" width="86" x="5" y="-92"/></g><rect fill="url(#j)" height="84" opacity=".45" rx="6" transform="scale(1 -1)" width="84" x="6" y="-91"/><rect fill="url(#g)" height="84" rx="6" width="84" x="6" y="6"/><path d="m12 6c-3.324 0-6 2.676-6 6v2 68 2c0 .334721.04135.6507.09375.96875.0487.295596.09704.596915.1875.875.00988.03038.020892.0636.03125.09375.098865.287771.2348802.547452.375.8125.1445918.273507.3156161.535615.5.78125s.3737765.473472.59375.6875c.439947.428056.94291.814526 1.5 1.09375.278545.139612.5734731.246947.875.34375-.2562018-.100222-.4867109-.236272-.71875-.375-.00741-.0044-.023866.0045-.03125 0-.031933-.0193-.062293-.04251-.09375-.0625-.120395-.0767-.2310226-.163513-.34375-.25-.1061728-.0808-.2132809-.161112-.3125-.25-.1779299-.161433-.3474596-.345388-.5-.53125-.1075789-.130255-.2183939-.265285-.3125-.40625-.025089-.03838-.038446-.08587-.0625-.125-.064763-.103032-.1302275-.204517-.1875-.3125-.1010083-.194706-.2056748-.415701-.28125-.625-.00796-.02181-.023589-.04055-.03125-.0625-.0318251-.09195-.0358045-.186831-.0625-.28125-.0303323-.106618-.0703894-.203031-.09375-.3125-.0728786-.341512-.125-.698205-.125-1.0625v-2-68-2c0-2.781848 2.2181517-5 5-5h2 68 2c2.781848 0 5 2.218152 5 5v2 68 2c0 .364295-.05212.720988-.125 1.0625-.04415.206893-.08838.397658-.15625.59375-.0077.02195-.0233.04069-.03125.0625-.06274.173739-.138383.367449-.21875.53125-.04158.0828-.07904.169954-.125.25-.0546.09721-.126774.18835-.1875.28125-.09411.140965-.204921.275995-.3125.40625-.143174.17445-.303141.346998-.46875.5-.01117.0102-.01998.02115-.03125.03125-.138386.125556-.285091.234436-.4375.34375-.102571.07315-.204318.153364-.3125.21875-.0074.0045-.02384-.0044-.03125 0-.232039.138728-.462548.274778-.71875.375.301527-.0968.596455-.204138.875-.34375.55709-.279224 1.060053-.665694 1.5-1.09375.219973-.214028.409366-.441865.59375-.6875s.355408-.507743.5-.78125c.14012-.265048.276135-.524729.375-.8125.01041-.03078.02133-.06274.03125-.09375.09046-.278085.1388-.579404.1875-.875.0524-.31805.09375-.634029.09375-.96875v-2-68-2c0-3.324-2.676-6-6-6z" fill="url(#b)" opacity=".4"/><path d="m12 90c-3.324 0-6-2.676-6-6v-2-68-2c0-.334721.04135-.6507.09375-.96875.0487-.295596.09704-.596915.1875-.875.00988-.03038.020892-.0636.03125-.09375.098865-.287771.2348802-.547452.375-.8125.1445918-.273507.3156161-.535615.5-.78125s.3737765-.473472.59375-.6875c.439947-.428056.94291-.814526 1.5-1.09375.278545-.139612.5734731-.246947.875-.34375-.2562018.100222-.4867109.236272-.71875.375-.00741.0044-.023866-.0045-.03125 0-.031933.0193-.062293.04251-.09375.0625-.120395.0767-.2310226.163513-.34375.25-.1061728.0808-.2132809.161112-.3125.25-.1779299.161433-.3474596.345388-.5.53125-.1075789.130255-.2183939.265285-.3125.40625-.025089.03838-.038446.08587-.0625.125-.064763.103032-.1302275.204517-.1875.3125-.1010083.194706-.2056748.415701-.28125.625-.00796.02181-.023589.04055-.03125.0625-.0318251.09195-.0358045.186831-.0625.28125-.0303323.106618-.0703894.203031-.09375.3125-.0728786.341512-.125.698205-.125 1.0625v2 68 2c0 2.781848 2.2181517 5 5 5h2 68 2c2.781848 0 5-2.218152 5-5v-2-68-2c0-.364295-.05212-.720988-.125-1.0625-.04415-.206893-.08838-.397658-.15625-.59375-.0077-.02195-.0233-.04069-.03125-.0625-.06274-.173739-.138383-.367449-.21875-.53125-.04158-.0828-.07904-.169954-.125-.25-.0546-.09721-.126774-.18835-.1875-.28125-.09411-.140965-.204921-.275995-.3125-.40625-.143174-.17445-.303141-.346998-.46875-.5-.01117-.0102-.01998-.02115-.03125-.03125-.138386-.125556-.285091-.234436-.4375-.34375-.102571-.07315-.204318-.153364-.3125-.21875-.0074-.0045-.02384.0044-.03125 0-.232039-.138728-.462548-.274778-.71875-.375.301527.0968.596455.204138.875.34375.55709.279224 1.060053.665694 1.5 1.09375.219973.214028.409366.441865.59375.6875s.355408.507743.5.78125c.14012.265048.276135.524729.375.8125.01041.03078.02133.06274.03125.09375.09046.278085.1388.579404.1875.875.0524.31805.09375.634029.09375.96875v2 68 2c0 3.324-2.676 6-6 6z" fill="url(#e)" opacity=".2"/><rect height="66" rx="12" style="opacity:.1;stroke:#fefefe;stroke-width:.5;stroke-linecap:round;clip-path:url(#f);fill:url(#d);filter:url(#c)" width="66" x="15" y="15"/><path d="m76.0625 57.03125c-2.747259.000031-5.235267.801867-7.1875 2.40625-2.149876 1.739582-3.3125 4.285358-3.3125 7.125v.5625c.000004-.000432.000039.18793 0 .1875s.03133.219174.03125.21875c-.000081-.000424.06262.187914.0625.1875-.000123-.000414.06266.1879.0625.1875-.000163-.0004.09395.187882.09375.1875-.000202-.000382.09399.18786.09375.1875-.000239-.00036.125274.156584.125.15625s.125305.156555.125.15625.156584.125274.15625.125.15661.125239.15625.125.187882.09395.1875.09375c-.000382-.000202.1879.09391.1875.09375-.0004-.000163.187914.06262.1875.0625-.000414-.000123.187924.06258.1875.0625-.000424-.000081.21918.03129.21875.03125-.00043-.000039.187932-.000004.1875 0h5.34375c-.0076.0069-.02373.0244-.03125.03125-.254102.231443-.453014.39762-.5625.5-.09799.09163-.146085.146259-.15625.15625-.0089.0087-.04754.04442-.09375.09375.07931-.08468.03016-.04085-.0625.0625.109823-.122497.06832-.05711-.03125.0625-.07425.08919-.066.0693-.09375.125-.01244.02497-.02512.04573-.03125.0625-.0038.005.0033.02686 0 .03125-.0017.0022-.02975-.002-.03125 0-.0044.01562-.03245.09698-.03125.09375-1.114696 1.371939-1.843757 2.980404-1.84375 4.71875v2c.000004-.000432.000039.18793 0 .1875s.03133.219174.03125.21875c-.000081-.000424.06262.187914.0625.1875-.000123-.000414.06266.1879.0625.1875-.000163-.0004.09395.187882.09375.1875-.000202-.000382.09399.18786.09375.1875-.000239-.00036.125274.156584.125.15625s.125305.156555.125.15625.156584.125274.15625.125.15661.125239.15625.125.187882.09395.1875.09375c-.000382-.000202.1879.09391.1875.09375-.0004-.000163.187914.06262.1875.0625-.000414-.000123.187924.06258.1875.0625a1.0348403 1.0348403 0 0 0 -.375.25c-1.049737 1.088466-1.531257 2.550955-1.53125 4.03125-.000007 1.497416.546655 2.92047 1.59375 3.96875 1.055291 1.056503 2.49113 1.656245 4.03125 1.65625 1.352125-.000004 2.615479-.523742 3.625-1.375a1.0348403 1.0348403 0 0 0 .15625-.09375c.0065-.0059.02479.0059.03125 0a1.0348403 1.0348403 0 0 0 .21875-.15625 1.0348403 1.0348403 0 0 0 .21875-.34375c.874894-1.017959 1.374986-2.308869 1.375-3.65625-.000016-1.502936-.542601-2.934124-1.59375-4-.0012-.0021-.03048.0014-.03125 0-.0013-.0023.000039-.03121 0-.03125-.110596-.112147-.255676-.179889-.375-.28125.05878-.01432.125269-.03133.125-.03125-.000414.000123.1879-.06266.1875-.0625-.0004.000163.187882-.09395.1875-.09375-.000382.000202.18786-.09399.1875-.09375-.00036.000239.156584-.125274.15625-.125s.156555-.125305.15625-.125.125274-.156584.125-.15625.125239-.15661.125-.15625.09395-.187882.09375-.1875c-.000202.000382.09391-.1879.09375-.1875-.000163.0004.06262-.187914.0625-.1875-.000123.000414.06258-.187924.0625-.1875-.000081.000424.03129-.21918.03125-.21875-.000039.00043-.000004-.187932 0-.1875v-1.21875c.000003.233351-.02056.111369.09375-.0625.114306-.173869.334222-.433508.71875-.75.0055-.0047-.0057-.02604 0-.03125.06874-.06247.184151-.152002.1875-.15625 1.435181-1.130356 2.415861-1.915205 3.03125-2.6875.0067-.0084.02462-.02283.03125-.03125 1.350772-1.604877 2.093727-3.602441 2.09375-5.78125-.000023-2.822622-1.235955-5.356533-3.46875-7.0625-2.010112-1.523637-4.503797-2.312469-7.21875-2.3125z" opacity=".08"/><path d="m76.0625 58.0625c-2.545304.000029-4.776271.745224-6.53125 2.1875-1.918455 1.552327-2.9375 3.746848-2.9375 6.3125v.5625a1.0216986 1.0216986 0 0 0 1.03125 1.03125h6.28125a1.0216986 1.0216986 0 0 0 1.03125-1.0625c-.0175-.543049.08436-.914999.3125-1.25.1816-.266645.278817-.312487.71875-.3125.307172.000011.493289.0821.71875.28125a1.0216986 1.0216986 0 0 0 .03125 0c.202244.16676.218744.216019.21875.46875-.000005.325141-.272314.969144-1.1875 1.78125-.933772.841359-1.647144 1.471007-2.125 1.90625-.238928.217622-.402864.379946-.53125.5-.06419.06003-.112921.113663-.15625.15625-.02166.02129-.03683.0351-.0625.0625-.0064.0069-.02325.02233-.03125.03125-.008.0089-.01976.01745-.03125.03125s-.01135.03505-.03125.0625-.09338.12427-.09375.125c-1.043966 1.246833-1.656256 2.683668-1.65625 4.1875v2a1.0216986 1.0216986 0 0 0 1.03125 1.03125h6.46875a1.0216986 1.0216986 0 0 0 1.03125-1.03125v-1.21875c-.000004-.267549.284767-.881991 1.1875-1.625.01749-.01376.01391-.01761.03125-.03125 1.601534-1.26043 2.545008-2.03055 3.0625-2.6875.0095-.01114.02184-.02007.03125-.03125 1.199824-1.425533 1.843729-3.173834 1.84375-5.125-.000021-2.531281-1.069101-4.726944-3.0625-6.25-1.819206-1.378933-4.074515-2.093721-6.59375-2.09375zm-.6875 20.71875c-1.279499.000006-2.45315.483418-3.3125 1.34375a1.0216986 1.0216986 0 0 0 -.03125 0c-.840969.871996-1.250006 2.05694-1.25 3.3125-.000006 1.255561.440193 2.407991 1.28125 3.25.859351.860338 2.033001 1.343746 3.3125 1.34375 1.264108-.000004 2.442758-.460853 3.28125-1.3125v-.03125h.03125c.848045-.837341 1.281237-2.00457 1.28125-3.25-.000013-1.251413-.456314-2.413068-1.3125-3.28125-.0063-.0064.0064-.02486 0-.03125-.839375-.859607-2.010991-1.343744-3.28125-1.34375z" opacity=".15"/><path d="m84.685081 66.396369c-.000019 1.752026-.536687 3.258753-1.610011 4.520185-.326684.420495-1.306688 1.273139-2.940017 2.557933-1.073352.864335-1.610021 1.670259-1.610011 2.417773v1.226407h-6.475039v-1.997291c-.000005-1.331516.513331-2.569601 1.540009-3.714259.02333-.04671.968333-.911032 2.835017-2.592975 1.026664-.911028 1.539999-1.751992 1.540011-2.522894-.000012-.513904-.198346-.934384-.595004-1.261447-.396679-.350381-.863349-.525582-1.40001-.525602-.700011.00002-1.225014.256983-1.575009.770885-.350008.513941-.513343 1.132983-.490003 1.857129h-6.265038v-.560642c0-2.312634.851669-4.15808 2.555015-5.53635 1.563339-1.284783 3.523348-1.927184 5.880036-1.927211 2.333337.000027 4.316681.619069 5.950037 1.85713 1.773328 1.354911 2.659998 3.165317 2.660017 5.431229m-5.740036 17.029532c-.000011 1.051206-.338346 1.903851-1.015006 2.557933-.653348.677442-1.505018 1.016163-2.555016 1.016166-1.050014-.000003-1.913351-.338724-2.590016-1.016166-.653342-.654082-.98001-1.506727-.980005-2.557933-.000005-1.051204.326663-1.915527.980005-2.592974.676665-.677438 1.540002-1.016161 2.590016-1.016166 1.049998.000005 1.901668.338728 2.555016 1.016166.67666.677447 1.014995 1.54177 1.015006 2.592974" opacity=".3"/><path d="m30.40625 12.96875c-6.225542-.184078-12.202264 3.463162-15.106704 8.935383-3.74158 6.827173-4.061038 15.151024-2.239831 22.602211 1.367167 5.331687 4.477085 10.547092 9.672082 12.893666 2.682235 1.712881 6.917248.380071 7.327547 4.368817 2.087009 4.440294 7.445683 5.785744 11.956217 5.282724 1.483508-.01423 3.691531-.248148 3.828189-2.145301-.104772-1.741814.222064-3.56228-.1875-5.25-.650655-2.348428-4.237024-.03651-4.436937-2.567612-1.065971-1.920698 1.220033-2.765712 2.280687-3.963638 4.151114-5.072723 5.517904-11.960553 5.0625-18.375.833505.820713 2.103473.446868 3.15625.53125.08133 5.056744-.196748 10.129176.216419 15.172513.217035 3.708163 2.646035 7.3021 6.398243 8.139918 3.709499.96131 7.745775.801343 11.385338-.312431 1.575585-1.023769.826369-3.101018 1-4.656919-.117824-1.586066.264176-3.263714-.25-4.780581-1.23551-1.916147-3.778503-.624889-5.604399-.965001-1.312766-.5349-.485831-2.78761-.708101-4.045862 0-2.850545 0-5.701091 0-8.551637 1.668342-.125494 3.433302.275749 5.03125-.25 1.688216-.965164.921965-3.135314 1.09375-4.719419-.124187-1.68917.273505-3.474153-.25-5.093081-.965164-1.688216-3.135314-.921965-4.719419-1.09375-1.42732.456342-1.194538-.747418-1.155581-1.757353-.094757-2.137322.195719-4.328261-.15625-6.430147-.7934-1.841353-2.994099-1.147586-4.555266-1.214006-1.503052.18271-3.161357-.252537-4.538484.464006-1.232413 1.084039-.983469 2.950476-1.475885 4.406813-.320538 1.510229-.641077 3.020458-.961615 4.530687-1.533814.107856-3.705076-.517478-4.46875 1.28125-.309643.984322-.09032 2.04432-.15625 3.0625-1.427317-6.65583-5.910526-13.174433-12.803131-14.906273-1.508726-.406407-3.072944-.594234-4.634369-.593727zm0 12c3.506876-.1042 4.163984 4.23457 4.546732 6.883235.36617 4.503946.567902 9.339339-1.401626 13.52166-1.362425 3.114171-6.27531 2.156072-6.871831-1.042094-1.527447-4.720899-1.498574-9.901146-.519698-14.734534.516907-2.067977 1.609101-4.920843 4.246423-4.628267z" opacity=".08"/><path d="m30.40625 14.03125c-4.947829.000044-9.092614 1.871011-12.15625 5.5-3.479247 4.115973-5.187502 9.655229-5.1875 16.5-.000002 5.098535.986132 9.578343 3 13.40625a1.0378154 1.0378154 0 0 0 0 .03125c2.940354 5.478259 7.646767 8.364259 13.625 8.59375.736844 2.713077 1.960975 5.025388 4.15625 6.40625 2.40421 1.512285 5.695297 1.943631 10.0625 1.28125a1.0378154 1.0378154 0 0 0 .875-1.03125v-4.21875a1.0378154 1.0378154 0 0 0 -1.125-1.03125c-1.772089.163327-2.489016-.174758-3-.84375-.477765-.625502-.74682-1.927921-.90625-3.59375 1.045951-.738764 2.036686-1.551762 2.90625-2.59375a1.0378154 1.0378154 0 0 0 .03125 0c3.337455-4.007483 4.937464-9.530024 4.9375-16.40625-.000036-5.144219-1.033866-9.641077-3.125-13.46875-3.098072-5.575027-7.934398-8.531206-14.09375-8.53125zm31.625 1.6875-5.9375.15625a1.0378154 1.0378154 0 0 0 -.96875.8125l-1.8125 8.5h-3.375a1.0378154 1.0378154 0 0 0 -1.03125 1.03125v6.96875a1.0378154 1.0378154 0 0 0 1.03125 1.03125h2.84375v12.3125c-.000005 3.732784.468271 6.453201 1.6875 8.25.0068.01.02442.02131.03125.03125 1.562546 2.352455 4.679301 3.343747 8.96875 3.34375 1.477956-.000003 3.262209-.207469 5.375-.65625a1.0378154 1.0378154 0 0 0 .8125-1v-6.625a1.0378154 1.0378154 0 0 0 -1.09375-1.03125c-1.41491.0791-2.458663.125007-3.125.125-1.042355.000006-1.640653-.234599-1.8125-.375-.02604-.02074-.191695-.232238-.3125-.71875s-.218756-1.206374-.21875-2.125v-11.53125h5.09375a1.0378154 1.0378154 0 0 0 1.03125-1.03125v-6.96875a1.0378154 1.0378154 0 0 0 -1.03125-1.03125h-5.09375v-8.4375a1.0378154 1.0378154 0 0 0 -1.0625-1.03125zm-31.625 8.1875c1.960709.000015 3.235224.799226 4.25 2.75s1.593738 5.117629 1.59375 9.4375c-.000012 4.319891-.578114 7.509397-1.59375 9.46875s-2.291651 2.750003-4.25 2.75c-1.998962.000003-3.30842-.812096-4.34375-2.78125s-1.625006-5.161836-1.625-9.5c-.000012-.346985-.000011-.684787 0-1.03125 0-.0105 0-.02073 0-.03125.111224-3.918381.759881-6.799547 1.78125-8.5625 1.024474-1.768312 2.282932-2.499985 4.1875-2.5z" opacity=".15"/><path d="m30.40625 15.0625c-4.696152.000042-8.490767 1.708521-11.375 5.125-3.290999 3.893275-4.937502 9.169648-4.9375 15.84375-.000002 4.965886.952168 9.282631 2.875 12.9375 2.921213 5.442598 7.41016 8.156247 13.4375 8.15625 1.302305 5.816011 4.894544 8.875255 13.34375 7.59375v-4.21875c-3.933283.362517-4.78719-1.799293-5.09375-5.625v-.25c1.183252-.754809 2.257307-1.691665 3.21875-2.84375 3.143052-3.774052 4.718715-9.03613 4.71875-15.75-.000035-5.005571-1.00325-9.31384-3-12.96875-2.958227-5.323374-7.345082-7.999958-13.1875-8zm31.65625 1.6875-5.9375.15625-1.96875 9.3125h-4.21875v6.96875h3.875v13.34375c-.000005 3.654886.521303 6.217605 1.53125 7.6875 1.271776 1.946621 3.972996 2.906247 8.125 2.90625 1.383983-.000003 3.098938-.188003 5.15625-.625v-6.625c-1.421426.07946-2.476816.125007-3.1875.125-1.159579.000007-1.982496-.196474-2.46875-.59375-.5985-.476716-.906263-1.70962-.90625-3.65625v-12.5625h6.125v-6.96875h-6.125zm-31.65625 6.125c4.585185.000034 6.874975 4.399393 6.875 13.21875-.000025 8.819396-2.289815 13.250008-6.875 13.25-4.659175.000008-7.000012-4.453376-7-13.3125-.000012-.357522-.000012-.704936 0-1.0625.221853-8.064543 2.56269-12.093716 7-12.09375z" opacity=".3"/><path d="m30.40625 14.0625c-4.696152.000042-8.490767 1.708521-11.375 5.125-3.290999 3.893275-4.937502 9.169648-4.9375 15.84375-.000002 4.965886.952168 9.282631 2.875 12.9375 2.921213 5.442598 7.41016 8.156247 13.4375 8.15625 1.302305 5.816011 4.894544 8.875255 13.34375 7.59375v-4.21875c-3.933283.362517-4.78719-1.799293-5.09375-5.625v-.25c1.183252-.754809 2.257307-1.691665 3.21875-2.84375 3.143052-3.774052 4.718715-9.03613 4.71875-15.75-.000035-5.005571-1.00325-9.31384-3-12.96875-2.958227-5.323374-7.345082-7.999958-13.1875-8zm31.65625 1.6875-5.9375.15625-1.96875 9.3125h-4.21875v6.96875h3.875v13.34375c-.000005 3.654886.521303 6.217605 1.53125 7.6875 1.271776 1.946621 3.972996 2.906247 8.125 2.90625 1.383983-.000003 3.098938-.188003 5.15625-.625v-6.625c-1.421426.07946-2.476816.125007-3.1875.125-1.159579.000007-1.982496-.196474-2.46875-.59375-.5985-.476716-.906263-1.70962-.90625-3.65625v-12.5625h6.125v-6.96875h-6.125zm-31.65625 6.125c4.585185.000034 6.874975 4.399393 6.875 13.21875-.000025 8.819396-2.289815 13.250008-6.875 13.25-4.659175.000008-7.000012-4.453376-7-13.3125-.000012-.357522-.000012-.704936 0-1.0625.221853-8.064543 2.56269-12.093716 7-12.09375z" fill="#fefefe"/><path d="m84.685081 65.396369c-.000019 1.752026-.536687 3.258753-1.610011 4.520185-.326684.420495-1.306688 1.273139-2.940017 2.557933-1.073352.864335-1.610021 1.670259-1.610011 2.417773v1.226407h-6.475039v-1.997291c-.000005-1.331516.513331-2.569601 1.540009-3.714259.02333-.04671.968333-.911032 2.835017-2.592975 1.026664-.911028 1.539999-1.751992 1.540011-2.522894-.000012-.513904-.198346-.934384-.595004-1.261447-.396679-.350381-.863349-.525582-1.40001-.525602-.700011.00002-1.225014.256983-1.575009.770885-.350008.513941-.513343 1.132983-.490003 1.857129h-6.265038v-.560642c0-2.312634.851669-4.15808 2.555015-5.53635 1.563339-1.284783 3.523348-1.927184 5.880036-1.927211 2.333337.000027 4.316681.619069 5.950037 1.85713 1.773328 1.354911 2.659998 3.165317 2.660017 5.431229m-5.740036 17.029532c-.000011 1.051206-.338346 1.903851-1.015006 2.557933-.653348.677442-1.505018 1.016163-2.555016 1.016166-1.050014-.000003-1.913351-.338724-2.590016-1.016166-.653342-.654082-.98001-1.506727-.980005-2.557933-.000005-1.051204.326663-1.915527.980005-2.592974.676665-.677438 1.540002-1.016161 2.590016-1.016166 1.049998.000005 1.901668.338728 2.555016 1.016166.67666.677447 1.014995 1.54177 1.015006 2.592974" fill="url(#k)"/><path d="m76.0625 58.09375c-2.356688.000027-4.311661.652717-5.875 1.9375-1.703346 1.37827-2.5625 3.218616-2.5625 5.53125v.5625h.03125c.103227-2.106144.938285-3.804795 2.53125-5.09375 1.563339-1.284783 3.518312-1.937473 5.875-1.9375 2.333337.000027 4.335394.636939 5.96875 1.875 1.625449 1.241924 2.489438 2.867678 2.625 4.875.0082-.149702.03125-.284034.03125-.4375-.000019-2.265912-.882922-4.082589-2.65625-5.4375-1.633356-1.238061-3.635413-1.874973-5.96875-1.875zm1.8125 7.71875c-.178649.622352-.641142 1.293338-1.4375 2-1.866684 1.681943-2.82042 2.54704-2.84375 2.59375-1.026678 1.144658-1.531255 2.387234-1.53125 3.71875v1c-.000005-1.331516.504572-2.574092 1.53125-3.71875.02333-.04671.977066-.911807 2.84375-2.59375 1.026664-.911028 1.531238-1.760348 1.53125-2.53125-.000004-.177241-.04657-.313735-.09375-.46875zm-2.5 13c-1.050014.000005-1.917085.353812-2.59375 1.03125-.653342.677447-.968755 1.542546-.96875 2.59375-.000001.174899.01317.336094.03125.5.09061-.824466.392861-1.529016.9375-2.09375.676665-.677438 1.543736-1.031245 2.59375-1.03125 1.049998.000005 1.909152.353812 2.5625 1.03125.564078.564734.874892 1.269284.96875 2.09375.01873-.163906.03125-.325101.03125-.5-.000011-1.051204-.32334-1.916303-1-2.59375-.653348-.677438-1.512502-1.031245-2.5625-1.03125z" fill="#fefefe" opacity=".3"/></svg>