<svg height="96" width="96" xmlns="http://www.w3.org/2000/svg" xmlns:xlink="http://www.w3.org/1999/xlink"><linearGradient id="a"><stop offset="0" stop-color="#fefefe"/><stop offset="1" stop-color="#fefefe" stop-opacity="0"/></linearGradient><linearGradient id="b" gradientTransform="matrix(1.4458204 0 0 1.5030002 -968.78803 -332.2902)" gradientUnits="userSpaceOnUse" x1="706.63983" x2="700.2254" xlink:href="#n" y1="239.55937" y2="233.08882"/><linearGradient id="c" gradientTransform="matrix(1.4458204 0 0 1.5030002 -968.78803 -333.56937)" gradientUnits="userSpaceOnUse" x1="706.63983" x2="700.2254" xlink:href="#n" y1="239.55937" y2="233.08882"/><linearGradient id="d" gradientTransform="matrix(1.4458204 0 0 1.5030002 -970.06542 -334.30033)" gradientUnits="userSpaceOnUse" x1="706.63983" x2="700.2254" xlink:href="#n" y1="239.55937" y2="233.08882"/><linearGradient id="e" gradientTransform="matrix(1.4458204 0 0 1.5030002 -971.48965 -334.94259)" gradientUnits="userSpaceOnUse" x1="706.63983" x2="700.2254" xlink:href="#n" y1="239.55937" y2="233.08882"/><linearGradient id="f" gradientTransform="matrix(1.4458204 0 0 1.5030002 -972.32902 -335.78745)" gradientUnits="userSpaceOnUse" x1="706.63983" x2="700.2254" xlink:href="#n" y1="239.55937" y2="233.08882"/><radialGradient id="g" cx="48" cy="90.171875" gradientTransform="matrix(1.1995719 0 0 1.0355946 -9.403621 -2.423071)" gradientUnits="userSpaceOnUse" r="42" xlink:href="#a"/><linearGradient id="h" gradientTransform="matrix(1.0365148 0 0 1.0398499 -1.576875 -2.628065)" gradientUnits="userSpaceOnUse" x1="36.357143" x2="37.054588" xlink:href="#a" y1="6" y2="23.421911"/><linearGradient id="i" gradientTransform="matrix(1.4458204 0 0 1.5030002 -973.15795 -336.58618)" gradientUnits="userSpaceOnUse" x1="706.63983" x2="700.2254" xlink:href="#n" y1="239.55937" y2="233.08882"/><radialGradient id="j" cx="26.358019" cy="50.082199" gradientTransform="matrix(1.4481287 .82894711 -.865734 1.6239436 27.424359 -53.685058)" gradientUnits="userSpaceOnUse" r="42"><stop offset="0" stop-color="#c5df43"/><stop offset="1"/></radialGradient><linearGradient id="k" gradientTransform="translate(0 -97)" gradientUnits="userSpaceOnUse" x1="32.251034" x2="32.251034" xlink:href="#o" y1="6.131708" y2="90.238609"/><linearGradient id="l" gradientTransform="matrix(1.0238095 0 0 1.0119048 -1.142857 -98.071429)" gradientUnits="userSpaceOnUse" x1="32.251034" x2="32.251034" xlink:href="#o" y1="6.131708" y2="90.238609"/><linearGradient id="m" gradientTransform="matrix(1.0238095 0 0 -1.0020463 -1.142857 98.041811)" gradientUnits="userSpaceOnUse" x1="32.251034" x2="32.251034" xlink:href="#o" y1="6.131708" y2="90.238609"/><linearGradient id="n"><stop offset="0" stop-color="#dce21f"/><stop offset="1" stop-color="#dce21f" stop-opacity="0"/></linearGradient><linearGradient id="o" gradientTransform="matrix(1.0058652 0 0 .994169 100 0)" gradientUnits="userSpaceOnUse" x1="45.447727" x2="45.447727" y1="92.539597" y2="7.01654"><stop offset="0"/><stop offset="1" stop-opacity=".588235"/></linearGradient><g transform="matrix(.96411658415 0 0 .97047200524 1.6992622922 1.9316461986)"><g transform="matrix(1.0365148 0 0 1.0398499 -1.576875 -2.628065)"><path d="m12 95.03125c-5.5110903 0-10.03125-4.476122-10.03125-9.933521v-70.308285c0-5.4573984 4.5201598-9.9335207 10.03125-9.9335207h72c5.51109 0 10.03125 4.4761222 10.03125 9.9335207v70.308285c0 5.457399-4.52016 9.933521-10.03125 9.933521z" fill="url(#m)" opacity=".08"/><g fill="url(#l)"><path d="m12-94.03125c-4.971633 0-9.03125 4.059617-9.03125 9.03125v71c0 4.9716329 4.0596171 9.03125 9.03125 9.03125h72c4.971633 0 9.03125-4.059617 9.03125-9.03125v-71c0-4.971633-4.059617-9.03125-9.03125-9.03125z" opacity=".1" transform="scale(1 -1)"/><path d="m12-93c-4.4091333 0-8 3.590867-8 8v71c0 4.4091333 3.5908667 8 8 8h72c4.409133 0 8-3.5908667 8-8v-71c0-4.409133-3.590867-8-8-8z" opacity=".2" transform="scale(1 -1)"/><rect height="85" opacity=".3" rx="7" transform="scale(1 -1)" width="86" x="5" y="-92"/></g><rect fill="url(#k)" height="84" opacity=".45" rx="6" transform="scale(1 -1)" width="84" x="6" y="-91"/></g><rect height="86.64296" rx="6.250981" ry="6.756152" width="83.346733" x="4.465202" y="4.09583"/><path d="m10.858351 3.6085294c-3.4453754 0-6.2351002 2.79038-6.2351002 6.2468442v46.1702894c7.1228492 4.141952 14.1419302 5.2605 14.1419302 5.2605l-.451819-10.333126 4.080264-9.44072 3.600657 9.205876-.201649 10.453487s6.43419 1.148442 16.331583-6.55508c12.190419-9.488275 14.414828-16.001015 11.928017-30.717567-2.30523-13.642072-16.03957-19.6799098-16.03957-19.6799098s5.264724.067484 14.684114 10.7558458c14.13246 16.036456 3.253095 35.743224 3.253095 35.743224l1.310275 2.771157-5.241099 7.374094-3.750096-.187875-3.479005 2.536313-.225909 2.912064-9.849652 4.039313-1.310274-1.503-7.635739 1.268156.271091 17.096627-.903638 3.945376h60.363c3.445375 0 6.189918-2.79038 6.189918-6.246844v-74.8682004c0-3.4564642-2.744543-6.2468442-6.189918-6.2468442zm-6.2351002 64.2532606v16.861784c0 3.456464 2.7897248 6.246844 6.2351002 6.246844h8.810467l-1.129547-4.555969s.68652-16.69707-.406636-16.486034c-1.458139-.03262-5.918827-1.268156-5.918827-1.268156l-2.3946406 1.690875z" fill="url(#j)"/><path d="m39.980875 4.7167666s15.512204 5.4770374 18.696264 20.3516004c3.882738 18.138492-2.168906 25.543152-2.168906 25.543152l1.245908 2.933697-5.6508 7.943988-3.45593-.547859-3.97323 3.231601.601375 2.188067-10.524112 4.258-1.692275-1.641787-6.910053 1.287921.446282 17.086317-.781669 3.016567" fill="none" stroke="url(#i)" stroke-linecap="round" stroke-width="1.17885"/><path d="m34.626195 30.531184a12.084015 11.619232 0 1 1 -24.16803 0 12.084015 11.619232 0 1 1 24.16803 0z" fill="none" opacity=".211982" stroke="#d2e66d" stroke-width="1.464934"/><path d="m24.504936 30.717189a1.587895 1.3897084 0 1 1 -3.17579 0 1.587895 1.3897084 0 1 1 3.17579 0z" fill="#f2fac9" opacity=".313364"/><path d="m31.747165 30.531191a9.2049803 9.1342896 0 1 1 -18.40996 0 9.2049803 9.1342896 0 1 1 18.40996 0z" fill="none" opacity=".101383" stroke="#d2e66d" stroke-width="3.021039"/><path d="m26.818187 30.717178a4.088576 3.6851939 0 1 1 -8.177152 0 4.088576 3.6851939 0 1 1 8.177152 0z" fill="none" opacity=".119816" stroke="#d2e66d" stroke-width="1.224123"/><path d="m10.8613 3.6110393c-3.4453749 0-6.2190801 2.7826396-6.2190801 6.2390889v2.0797018 70.709803 2.079687c0 .348064.042796.676635.09716 1.007355.050459.307379.1006291.62071.1943472.909872.01012.03157.021687.06613.032386.09755.1025086.299248.2434472.569277.3886944.844882.1498736.284413.3271313.556967.5182542.812387.191123.255419.387422.492338.6154279.714887.4560117.445114.9773457.846986 1.5547775 1.137336.2887157.145189.5944056.256802.9069486.357458-.2655545-.10416-.5044907-.245697-.7450029-.389955-.00723-.0045-.024724.0045-.032386 0-.033109-.02014-.064629-.04419-.09716-.06493-.1247738-.079815-.2394562-.170022-.3562929-.259961-.110027-.084019-.2210804-.167524-.3239217-.259959-.1844288-.167872-.3601393-.359159-.5182542-.55243-.1114728-.13542-.2263722-.275846-.3239072-.422433-.0260248-.039829-.0399046-.089278-.0647728-.13001-.067086-.107164-.1350396-.212674-.1943472-.324948-.1046773-.20247-.2131861-.432278-.2915207-.649913-.00867-.02269-.024435-.04208-.032387-.06493-.032965-.0956-.037158-.194278-.064773-.292454-.0313734-.110924-.0730135-.211129-.0971582-.324966-.075472-.355113-.1295455-.726024-.1295455-1.10484v-2.079687-70.709803-2.079702c0-2.8927037 2.2991435-5.199238 5.1825716-5.199238h2.073032 70.483005 2.073032c2.883428 0 5.182572 2.3065343 5.182572 5.199238v2.079702 70.709803 2.079687c0 .378816-.05407.749727-.129545 1.10484-.04583.21514-.09166.413506-.161962.617418-.0087.02284-.02414.04223-.03239.06493-.06506.180661-.143425.382093-.226734.552428-.04308.08612-.08198.176723-.129545.259959-.05653.101152-.131425.195856-.194347.292454-.09759.146542-.212406.286998-.323907.422433-.148399.181413-.314206.360826-.485868.519933-.01157.01053-.02068.02194-.03239.03247-.143425.130611-.295496.243772-.453481.357444-.106267.07605-.211769.159482-.323907.227464-.0072.0045-.02472-.0045-.03238 0-.240513.144288-.479449.285735-.745003.389953.312543-.100701.618232-.212269.906949-.357458.577432-.29035 1.098765-.692222 1.554778-1.137336.228005-.222549.424319-.459468.615427-.714887.191123-.25542.368381-.527974.518255-.812387.145247-.275605.286228-.545634.388694-.844882.01012-.03202.02212-.06523.03239-.09755.09383-.289162.143859-.602493.194347-.909872.05436-.33072.09716-.659291.09716-1.007355v-2.079687-70.709803-2.0797018c0-3.4564493-2.77372-6.2390889-6.219096-6.2390889h-74.629068z" fill="url(#h)" opacity=".387255"/><path d="m10.8613 90.958424c-3.4453749 0-6.2190801-2.782639-6.2190801-6.239104v-2.079687-70.709803-2.0797018c0-.3480493.042796-.6766203.09716-1.0073554.050459-.3073636.1006291-.620694.1943472-.9098563.01012-.031563.021687-.066132.032386-.097545.1025081-.299247.2434467-.569276.3886939-.8448812.1498736-.2844128.3271313-.5569669.5182542-.8123867.191123-.2554198.387422-.4923377.6154279-.714902.4560117-.4451136.9773457-.8469858 1.5547775-1.1373353.2887157-.1451899.5944056-.2567877.9069486-.3574435-.2655539.1041579-.5044901.2456804-.7450023.3899383-.00723.00451-.024724-.00451-.032386 0-.033109.020141-.064629.044189-.09716.06493-.1247738.0798088-.2394562.1700343-.3562929.2599738-.110027.084018-.2210804.1675245-.3239217.259959-.1844289.1678698-.3601394.3591566-.5182543.5524124-.1114728.1354203-.2263722.2758606-.3239072.4224483-.0260248.0399798-.0399046.0892782-.0647728.1300095-.067086.1071639-.1350396.2126595-.1943472.3249486-.1046773.2024692-.2131861.432263-.2915207.6499124-.00867.022695-.024434.042084-.032386.06493-.032965.09559-.037158.1942774-.064773.2924534-.0313744.1109214-.073014.2111264-.0971592.3249486-.0754719.3551289-.1295455.7260393-.1295455 1.1048405v2.0797014 70.709803 2.079702c0 2.892704 2.2991435 5.199239 5.1825716 5.199239h2.073032 70.483005 2.073032c2.883428 0 5.182572-2.306535 5.182572-5.199239v-2.079702-70.709803-2.0797014c0-.3788012-.05407-.7497116-.129545-1.1048405-.04583-.2151244-.09166-.4135054-.161962-.6174024-.0087-.022845-.02414-.042385-.03239-.06493-.065062-.1806606-.143426-.3820926-.226735-.5524277-.043081-.0861219-.081982-.1767227-.129545-.2599588-.056527-.1011517-.13142-.1958557-.194342-.2924536-.097593-.1465425-.212406-.2869979-.323907-.4224482-.148399-.1813971-.314206-.3608253-.485868-.5199179-.011567-.010521-.020675-.0219437-.032387-.0324648-.143425-.1306107-.295496-.2437866-.453481-.3574435-.106267-.0760518-.211769-.1594834-.323907-.2274791-.0072-.00451-.02472.00451-.03238 0-.240514-.1442881-.47945-.2857203-.745004-.3899383.312543.100701.618232.2122687.906949.3574435.577432.2903495 1.098765.6922217 1.554778 1.1373353.228005.2225643.424319.4594822.615427.714902.191123.2554198.368381.5279739.518255.8123867.145247.2756052.286228.5456342.388694.8448815.01012.032014.02212.06523.03239.097545.09383.2891623.143859.6024927.194347.9098563.05436.3307351.09716.6593061.09716 1.007355v2.0797019 70.709803 2.079687c0 3.456465-2.77372 6.239104-6.219096 6.239104h-74.629068z" fill="url(#g)" opacity=".2"/><g fill="none" stroke-linecap="round" stroke-width="1.17885"><path d="m40.809807 5.515491s15.275005 5.529944 18.696264 20.3516c4.186879 18.138493-1.743112 24.446727-1.743112 24.446727l.820114 4.030122-5.894117 8.370374-3.577581-.608775-3.304119 2.683396.844677 2.188068-12.227288 4.98894-1.692275-1.763607-5.754322.861536.446282 17.086317-1.02503 2.22471" opacity=".735426" stroke="url(#f)"/><path d="m43.048221 5.1420903s13.75932 6.7756807 17.297221 21.5698517c4.308535 18.016668-1.317316 23.776683-1.317316 23.776683l.820113 4.03013-6.684881 9.527713-3.699232-.79151-2.391706 1.952443 1.02717 2.431719-14.052131 5.658976-1.753101-1.824521-4.476939.435148.446281 17.086317-.781712 1.493757" opacity=".547085" stroke="url(#e)"/><path d="m43.620871 6.2107504s15.097622 6.2410006 18.148812 21.1434636c3.713748 18.138493-1.489363 23.389037-1.489363 23.389037l.820112 4.03013-7.459095 10.561435-3.828268-.834581-1.35942 1.134079 1.070182 2.647078-15.686584 6.391195-2.054183-1.996808-2.799476.305933.446281 16.311027-.652675 1.278397" opacity=".381166" stroke="url(#d)"/><path d="m44.350806 7.7335656s15.98305 5.3837324 18.696265 20.3516004c3.287952 18.138493-1.489363 22.901736-1.489363 22.901736l.759285 4.03013-8.189032 11.718774-3.828268-1.078231-.507828.281302 1.009354 3.073467-17.450596 6.939409-1.810872-2.179547-1.400431.123195.446281 15.823726-.774332 1.034747" opacity=".192825" stroke="url(#c)"/><path d="m45.324054 7.0635269s16.226362 7.5765861 18.939578 22.5444541c3.287951 18.138493-1.550193 21.683483-1.550193 21.683483l.94177 3.78648-9.527248 12.937026-3.037504-1.200056.222108.03765.766041 2.525253-19.275435 7.792186-1.810872-2.301372.241925.184108.567937 14.910036-.83516.912922" opacity=".06278" stroke="url(#b)"/></g></g></svg>