<svg height="96" width="96" xmlns="http://www.w3.org/2000/svg" xmlns:xlink="http://www.w3.org/1999/xlink"><linearGradient id="a"><stop offset="0" stop-color="#fefefe"/><stop offset="1" stop-color="#fefefe" stop-opacity="0"/></linearGradient><linearGradient id="b" gradientTransform="matrix(1.0058652 0 0 .994169 100 0)" gradientUnits="userSpaceOnUse" x1="45.447727" x2="45.447727" y1="92.539597" y2="7.01654"><stop offset="0"/><stop offset="1" stop-opacity=".588235"/></linearGradient><radialGradient id="c" cx="51.743286" cy="57.139999" gradientTransform="matrix(1.3750383 .45798517 -.31722405 .90804483 -7.452117 -18.581263)" gradientUnits="userSpaceOnUse" r="6.361386"><stop offset="0" stop-color="#d5edd2"/><stop offset="1" stop-color="#a6daa3" stop-opacity="0"/></radialGradient><radialGradient id="d" cx="88.277557" cy="55.206966" gradientTransform="matrix(1.0034033 .00774386 -.01071239 1.399342 .74528 -19.866989)" gradientUnits="userSpaceOnUse" r="41.970642"><stop offset="0" stop-color="#1a3617"/><stop offset="1" stop-color="#151515"/></radialGradient><radialGradient id="e" cx="101.52419" cy="60.4547" gradientTransform="matrix(.2736606 -.00468764 .00897807 .95701727 21.525431 -.57523)" gradientUnits="userSpaceOnUse" r="40.177982"><stop offset="0" stop-color="#abdda9"/><stop offset="1" stop-color="#74c16b"/></radialGradient><linearGradient id="f" gradientTransform="matrix(1.0261581 0 0 1.0244499 -104.11932 6.092991)" gradientUnits="userSpaceOnUse" x1="149.76193" x2="150.13481" xlink:href="#b" y1="82.777412" y2="-.115102"/><linearGradient id="g" gradientTransform="matrix(1.0469897 0 0 1.0311057 -107.19092 6.130852)" gradientUnits="userSpaceOnUse" x1="149.76193" x2="150.13481" xlink:href="#b" y1="82.777412" y2="-.115102"/><linearGradient id="h" gradientTransform="matrix(1.0643981 0 0 1.041755 -109.80615 5.950375)" gradientUnits="userSpaceOnUse" x1="149.76193" x2="150.13481" xlink:href="#b" y1="82.777412" y2="-.115102"/><linearGradient id="i" gradientTransform="matrix(1.0802835 0 0 1.0613408 -112.15615 5.225454)" gradientUnits="userSpaceOnUse" x1="149.76193" x2="150.13481" xlink:href="#b" y1="82.777412" y2="-.115102"/><linearGradient id="j" gradientTransform="matrix(1.096054 0 0 1.0643432 -114.38469 5.990927)" gradientUnits="userSpaceOnUse" x1="149.76193" x2="150.13481" xlink:href="#b" y1="82.777412" y2="-.115102"/><linearGradient id="k" gradientTransform="matrix(1.0023664 0 0 1.0154136 .380852 -.106933)" gradientUnits="userSpaceOnUse" x1="36.357143" x2="37.054588" xlink:href="#a" y1="6" y2="23.421911"/><radialGradient id="l" cx="48.374107" cy="90.093628" gradientTransform="matrix(1.164487 0 0 1.0129934 -7.129843 .014848)" gradientUnits="userSpaceOnUse" r="42" xlink:href="#a"/><radialGradient id="m" cx="51.841179" cy="56.453411" gradientTransform="matrix(1.4032439 .32616566 -.25448505 1.1037653 -6.438209 -20.576916)" gradientUnits="userSpaceOnUse" r="6.361386"><stop offset="0" stop-color="#c0e5bf"/><stop offset="1" stop-color="#a7dba4" stop-opacity="0"/></radialGradient><path d="m9.192613 5.3401727c-3.6408067 0-6.5763263 2.8823458-6.5763263 6.4525793v47.695877c7.4041163 5.47053 8.1861593 5.554539 8.1861593 5.554539s.07395-7.595952.03425-10.743212c-.039814-3.147259-4.9665071-4.423676-4.9665071-4.423676l.06849-.631953 17.0573321.03326-.03424.731733s-4.244693.885869-4.281458 4.224114c-.03677 3.338246.102627 10.976038.102627 10.976038s2.104987.01828 5.274759-.03326c2.499423-.04062 5.16778.506347 8.357415-.365867 3.376136-.923207 7.740861-3.73071 10.686529-5.95367 12.215092-9.218178 14.723465-17.529906 11.748332-32.562245-2.776953-14.031488-16.954489-20.3223041-16.954489-20.3223041s5.562316.068908 15.516006 11.1090821c14.934119 16.564297 4.658235 35.489191 4.658235 35.489191-3.830234 6.483938-7.285109 10.251735-13.015651 14.335369-3.380745 2.270233-7.732181 5.939863-12.638859 6.918234-2.759864.550307-5.306703.09724-8.425927.299347-1.60038.103734-3.694042.07599-5.171992.133036l-.03424 11.474958-2.43188 9.645599 33.258393.09974 3.767681-6.685397 1.78109 6.685397h.513778l2.91139-5.188664 1.370069 5.188664 28.120627.09974c3.640808.01071 6.542082-2.882357 6.542082-6.452578v-33.3605l-4.281467-3.093247 4.281467-.46565v-.831518l-4.281467-3.09325 4.281467-.465649v-36.021363c0-3.5702338-2.901264-6.4525787-6.542082-6.4525787h-7.980637l-1.575578 4.5234578-2.123602-4.5234578h-4.349972l-.787788 5.4547577-3.938935-5.4547577h-58.1251181zm-6.5763263 64.3262363v19.457517c0 3.570232 2.9013692 6.279088 6.5420702 6.253016l4.1444581-.03317-2.466124-9.712127v-11.441679c-.125183-.0852-.205511-.099756-.205511-.099756-2.4439482-1.25743-4.986839-2.124938-8.0148933-4.423695z" fill="url(#j)" opacity=".08"/><path d="m9.6430589 4.5765361c-3.5884205 0-6.4817024 2.874215-6.4817024 6.4343779v47.561333c7.2975825 5.455097 8.0683725 5.538869 8.0683725 5.538869s.07288-7.574524.03376-10.712905c-.03923-3.138382-4.8950461-4.411198-4.8950461-4.411198l.067505-.630171 16.8119021.03316-.03375.72967s-4.183617.883369-4.219853 4.212198c-.03624 3.328828.10115 10.945075.10115 10.945075s2.074699.01823 5.198863-.03316c2.46346-.04051 5.093424.504919 8.237165-.364835 3.327558-.920603 7.629481-3.720185 10.532765-5.936875 12.039335-9.192174 14.511616-17.480456 11.579292-32.470392-2.736998-13.991907-16.71054-20.2649764-16.71054-20.2649764s5.482283.068714 15.292753 11.0777454c14.71924 16.517571 4.59121 35.38908 4.59121 35.38908-3.775122 6.465647-7.180287 10.222815-12.828375 14.294931-3.332101 2.263828-7.620926 5.923108-12.457005 6.898718-2.720152.548754-5.230348.09696-8.30469.298502-1.577353.103442-3.640891.07577-5.097576.132662l-.03375 11.442588-2.396888 9.61839 32.779854.09946 3.713469-6.66654 1.755463 6.66654h.506385l2.8695-5.174028 1.350356 5.174028 27.716015.09946c3.58842.01068 6.44795-2.874226 6.44795-6.434376v-33.266394l-4.219863-3.084522 4.219863-.464336v-.829173l-4.219863-3.084523 4.219863-.464336v-35.919751c0-3.560163-2.85952-6.434377-6.44795-6.434377h-7.865809l-1.552909 4.5106976-2.093045-4.5106976h-4.287382l-.776453 5.439371-3.882261-5.439371h-57.2887855zm-6.4817024 64.1447799v19.402629c0 3.560162 2.8596229 6.261376 6.4479398 6.235378l4.0848257-.03308-2.430641-9.684729v-11.409403c-.123381-.084954-.202553-.099467-.202553-.099467-2.4087839-1.253883-4.9150863-2.118943-7.8995715-4.411215z" fill="url(#i)" opacity=".1"/><path d="m10.202028 5.3134315c-3.5356545 0-6.3863917 2.8211751-6.3863917 6.3156395v46.683648c7.1902727 5.354432 7.9497307 5.436658 7.9497307 5.436658s.07181-7.434747.03326-10.515213c-.03866-3.080466-4.8230625-4.329795-4.8230625-4.329795l.066512-.618542 16.5646885.03255-.03326.716204s-4.122099.867068-4.157802 4.134466c-.03572 3.267398.09967 10.7431.09967 10.7431s2.044192.01791 5.122416-.03255c2.427236-.03976 5.018525.4956 8.116036-.358104 3.278626-.903614 7.517292-3.651533 10.377883-5.827318 11.862303-9.022541 14.29823-17.157874 11.409023-31.871191-2.69675-13.733703-16.464819-19.8910108-16.464819-19.8910108s5.401672.067447 15.067883 10.8733188c14.502797 16.212761 4.523697 34.736019 4.523697 34.736019-3.719611 6.346332-7.074704 10.034167-12.639737 14.031138-3.283105 2.222052-7.508867 5.813805-12.273834 6.771411-2.680149.538628-5.153433.09518-8.182568.292994-1.554158.10154-3.587354.07438-5.022617.130213l-.03326 11.231433-2.361643 9.440894 32.297837.09762 3.658863-6.543518 1.729649 6.543518h.498939l2.827305-5.078549 1.330498 5.078549 27.308458.09762c3.535654.01049 6.353135-2.821185 6.353135-6.315638v-32.652508l-4.157812-3.027601 4.157812-.455768v-.81387l-4.157812-3.027604 4.157812-.455767v-35.256897c0-3.4944647-2.817471-6.3156388-6.353135-6.3156388h-7.750143l-1.530075 4.4274583-2.062267-4.4274583h-4.224336l-.765035 5.3389938-3.825174-5.3389938h-56.446371zm-6.3863917 62.9610705v19.044581c0 3.494465 2.8175731 6.145831 6.3531247 6.120311l4.024759-.03247-2.394897-9.506011v-11.198858c-.121567-.08339-.199576-.09764-.199576-.09764-2.3733635-1.230735-4.8428115-2.079833-7.7834107-4.329805z" fill="url(#h)" opacity=".2"/><path d="m10.854506 5.5004199c-3.4778279 0-6.2819322 2.7923352-6.2819322 6.2510781v46.206425c7.0726672 5.299695 7.8197052 5.381082 7.8197052 5.381082s.07064-7.358746.03266-10.407722-4.7441801-4.285534-4.7441801-4.285534l.06542-.612218 16.2937741.03221-.03266.708885s-4.05468.858203-4.089796 4.092202c-.03511 3.233997.09807 10.633276.09807 10.633276s2.010759.01772 5.038636-.03222c2.38754-.03935 4.936442.490535 7.9833-.354442 3.225-.894377 7.394348-3.614206 10.208148-5.767747 11.668304-8.930302 14.064391-16.982472 11.222437-31.545381-2.652735-13.59331-16.195624-19.687676-16.195624-19.687676s5.313326.066756 14.821446 10.762167c14.265599 16.047025 4.449714 34.38093 4.449714 34.38093-3.658776 6.281457-6.958995 9.931593-12.433014 13.887704-3.229412 2.199339-7.386055 5.754375-12.073097 6.702192-2.636314.533117-5.069145.0942-8.04874.289998-1.528743.100499-3.528681.07362-4.940475.128886l-.03266 11.116615-2.323008 9.344392 31.769593.09664 3.599026-6.476632 1.701366 6.476632h.490771l2.781067-5.026639 1.308739 5.026639 26.861826.09664c3.477819.01034 6.249223-2.792346 6.249223-6.251077v-32.318726l-4.089806-2.996651 4.089806-.451109v-.80555l-4.089806-2.996653 4.089806-.451109v-34.896484c0-3.4587417-2.771394-6.2510766-6.249223-6.2510766h-7.62339l-1.505051 4.3821992-2.028544-4.3821992h-4.155238l-.752526 5.2844166-3.762619-5.2844166h-55.523175zm-6.2819322 62.3174521v18.849903c0 3.458741 2.771486 6.083008 6.2492122 6.057747l3.958933-.03214-2.355729-9.408837v-11.084386c-.119581-.082549-.196304-.096644-.196304-.096644-2.3345475-1.218154-4.7636128-2.058572-7.6561122-4.285542z" fill="url(#g)" opacity=".3"/><path d="m11.577392 5.4666279c-3.4086304 0-6.1569487 2.7743107-6.1569487 6.2107271v45.908161c6.9319437 5.265487 7.6641187 5.346348 7.6641187 5.346348s.06926-7.311245.03201-10.340541c-.03725-3.029295-4.6497792-4.25787-4.6497792-4.25787l.064136-.608267 15.9695842.03202-.03201.704309s-3.974013.852664-4.008431 4.065787c-.03438 3.213121.09614 10.564639.09614 10.564639s1.970758.0176 4.938386-.03202c2.340041-.0391 4.838224.487365 7.824456-.352153 3.160838-.888604 7.247226-3.590877 10.005047-5.730518 11.43614-8.872667 13.784554-16.87286 10.999138-31.341764-2.599955-13.505566-15.873382-19.560591-15.873382-19.560591s5.207608.066324 14.526552 10.692697c13.981752 15.94344 4.361171 34.159 4.361171 34.159-3.585972 6.24091-6.820525 9.867485-12.185628 13.79806-3.165165 2.185135-7.239104 5.717229-11.832887 6.658924-2.583855.529673-4.968288.09357-7.888591.288127-1.498333.09982-3.45847.07318-4.842182.128056l-.03201 11.04485-2.276789 9.284074 31.137486.09599 3.527418-6.434822 1.667508 6.434822h.481012l2.725732-4.994189 1.282698 4.994189 26.327369.09599c3.40862.01024 6.12488-2.774312 6.12488-6.210723v-32.110102l-4.00843-2.977307 4.00843-.448197v-.800351l-4.00843-2.977309 4.00843-.448197v-34.671225c0-3.4364168-2.716249-6.2107275-6.12488-6.2107275h-7.471715l-1.475102 4.3539121-1.988181-4.3539121h-4.072563l-.737551 5.2503055-3.687756-5.2503055h-54.41845zm-6.1569487 61.9151911v18.728225c0 3.43641 2.7163431 6.043738 6.1248807 6.018639l3.88016-.03196-2.308854-9.3481v-11.012837c-.117209-.08196-.192404-.09604-.192404-.09604-2.288098-1.210294-4.668826-2.045281-7.5037827-4.257876z" fill="url(#f)" opacity=".45"/><rect fill="url(#e)" height="77.373955" rx="4.104088" ry="6.033383" width="54.721386" x="6.383504" y="6.766538"/><rect fill="#74c16b" height="7.58124" rx="0" ry="6.513311" width="10.173417" x="13.075425" y="83.730484"/><path d="m20.366413 86.000622-2.006785-2.69425 3.697451.870922z" fill="#151515"/><path d="m52.010498 43.270668 3.44391 2.632148-3.7828-.338951z" fill="#181818"/><path d="m43.8833 68.062404-.07697-4.345026 2.079424 3.190878z" fill="#151515"/><path d="m12.397673 6.1343766c-3.3331449 0-6.0205954 2.7284275-6.0205954 6.1080104v45.148905c6.7784284 5.178403 7.4943884 5.257927 7.4943884 5.257927s.06778-7.190328.03136-10.169524c-.03642-2.979194-4.5468047-4.18745-4.5468047-4.18745l.062715-.598207 15.6159217.03148-.03136.69266s-3.88601.838562-3.919658 3.998544c-.03364 3.159982.09407 10.389915.09407 10.389915s1.927114.0173 4.82902-.03148c2.288216-.03845 4.731074.479305 7.651175-.34633 3.090831-.873907 7.534792-2.635353 10.231536-4.739607 11.18287-8.725925 13.031202-17.489939 10.307477-31.719551-2.54238-13.282201-15.52185-19.2370851-15.52185-19.2370851s5.09228.065229 14.204844 10.5158541c13.672111 15.679761 4.824675 33.594059 4.824675 33.594059-3.506557 6.137695-5.437288 9.816306-11.579714 14.129944-3.095069 2.148996-7.974918 5.06259-12.466968 5.98871-2.526632.520913-4.85826.09202-7.71389.283362-1.465147.09817-3.381879.07198-4.734948.125938l-.03136 10.862185-2.226366 9.130531 30.447911.09445 3.4493-6.328403 1.630578 6.328403h.470359l2.665368-4.911597 1.254292 4.911597 25.74432.09445c3.333132.0098 5.989239-2.728428 5.989239-6.10801v-31.579046l-3.919659-2.928067 3.919659-.440784v-.787115l-3.919659-2.928067 3.919659-.440785v-34.097813c0-3.3795829-2.656094-6.1080104-5.989239-6.1080104h-7.306245l-1.442434 4.2819044-1.944151-4.2819044h-3.982374l-.721217 5.1634734-3.606086-5.1634734zm-6.0205954 60.8912004v18.418487c0 3.379582 2.6561835 5.943787 5.9892384 5.919103l3.794231-.03148-2.257724-9.193501v-10.830699c-.114615-.080602-.188143-.094455-.188143-.094455-2.23743-1.190272-4.5654322-2.011449-7.3376024-4.187455z" fill="url(#d)"/><path d="m20.122238 53.935791a1.2716772.95763037 0 1 0 .02064-.171885" fill="#181818"/><path d="m21.594679 47.73097 15.876704-.112858-.000003.931078s-3.93405.790004-3.821649 3.160019c.112402 2.370014-.105583 30.291468-.105583 30.291468l-2.243204 9.387736-2.720915.01369-2.573593-9.334143.168602-30.415183s-.304427-1.900796-2.388531-2.708587c-1.066765-.413474-1.673054-.302558-2.040962-.552772-.426599-.29013-.150866-.66045-.150866-.66045z" fill="#74c16b"/><path d="m33.401104 84.883387-2.006785-2.694251 3.697451.870922z" fill="#151515"/><path d="m34.997234 52.945792a1.1127175.79802531 0 1 1 -.01807-.143237" fill="#181818"/><path d="m44.867353 65.187023s7.312143-4.309337 11.763015-13.406825" fill="none" stroke="url(#m)" stroke-linecap="round" stroke-width="1.005468"/><path d="m35.503039 57.904205a1.2716772.95763037 0 1 1 -.020645-.171885" fill="#181818"/><path d="m37.837139 61.957243s7.928309-3.130835 13.703406-11.319348" fill="none" stroke="url(#c)" stroke-linecap="round" stroke-width="1.000127"/><path d="m20.281198 60.160388a1.2716772.95763037 0 1 0 .02064-.171884" fill="#181818"/><path d="m12.396283 5.9901152c-3.3318658 0-5.9882957 2.704319-5.9882957 6.0795418v2.036802 69.035216 2.0368c0 .33988.039558.66459.092123.98754.048801.30015.093619.61259.1842552.89495.00981.0308.020358.0619.030711.0926.099131.29222.2280481.56411.3685103.83324.1449361.27773.3065206.5221.4913474.77152.1848258.24941.3936904.49247.6141845.70979.4409883.43466.9463429.82746 1.5047513 1.11098.2792036.14178.557611.24118.859858.33947-.256806-.10171-.473723-.22946-.7063119-.37033-.00703-.004-.023301.004-.030711 0-.032019-.0197-.060669-.0415-.092123-.0617-.1206646-.0779-.2555236-.15906-.3685103-.24688-.1064028-.082-.2076392-.15662-.3070923-.24689-.1783527-.16392-.3384422-.36676-.4913474-.55549-.1078006-.13224-.2127708-.25804-.3070923-.40119-.025163-.0389-.037368-.0837-.061422-.12344-.064879-.10464-.1269008-.22983-.1842551-.33946-.1012285-.19772-.2313381-.4047-.3070923-.61722-.00842-.0222-.023013-.0394-.030711-.0617-.03188-.0934-.034713-.21273-.061422-.3086-.030344-.10832-.068773-.19745-.092123-.30861-.072983-.34677-.1228361-.71021-.1228361-1.08012v-2.0368-69.035215-2.036801c0-2.824725 2.2171693-5.0611418 5.0056007-5.0611418h2.026809 52.789138l-1.504753-2.036801h-53.311194zm57.027009 0-.337801 2.036801h5.896169l-1.136241-2.036801zm7.247375 0-.614183 2.036801h6.510352 2.026808c2.788434 0 5.005602 2.2364168 5.005602 5.0611418v2.036801 69.035216 2.0368c0 .36991-.04985.73335-.122837 1.08012-.04432.21008-.08557.41809-.153546.61721-.0084.0223-.02273.0396-.0307.0617-.06293.17642-.16511.3583-.245674.52463-.04166.0841-.07685.16561-.122837.24689-.05467.0988-.123406.21428-.184256.3086-.09437.1431-.199265.26894-.307092.40119-.14351.17715-.294631.36926-.460638.52463-.01118.0103-.01938.0206-.03071.0309-.1387.12754-.307857.22847-.460639.33947-.102767.0743-.198647.14964-.307092.21602-.0068.004-.02329-.004-.03071 0-.23259.1409-.449508.26856-.706311.37033.302245-.0983.580651-.19769.859857-.33947.558408-.28352 1.063761-.67632 1.504751-1.11098.220494-.21732.429373-.46038.614185-.70979.184826-.24942.346411-.49379.491347-.77152.140463-.26913.269421-.54102.368511-.83323.0098-.0313.02077-.061.03071-.0926.09074-.28237.135429-.59481.184255-.89496.05258-.32295.09212-.64766.09212-.98754v-2.0368-69.035215-2.036802c0-3.3752228-2.65643-6.0795418-5.988297-6.0795418h-7.922977z" fill="url(#k)" opacity=".3"/><path d="m10.67976 6.2618947c-.303402.098463-.582874.1973529-.8631453.3393739-.5605423.2840131-1.0678297.7061304-1.5105048 1.14153-.2213365.2177077-.4309989.4289027-.6165321.6787482-.185533.2498455-.347736.5239503-.4932256.802156-.1409998.2695901-.2704104.5402919-.3699202.8330092-.01039.03072-.021.06168-.030831.09255-.090975.282851-.1359765.594056-.1849597.894712-.052771.323516-.092483.646816-.092483.987268v2.036243 69.139693 2.036242c0 3.381033 2.6665872 6.108735 6.0111907 6.108735l15.989652.15852-.493226-2.036251-13.461868-.15852h-2.034558c-2.7990927-.000049-5.0247384-2.26103-5.0247384-5.090604v-2.036241-69.139693-2.036243c0-.370534.050044-.732447.1233063-1.0798258.023438-.1113375.062022-.2308727.092483-.3393739.026805-.096034.029652-.1841645.061652-.2776688.00769-.022344.022409-.039509.030831-.061704.0760385-.2128957.2066492-.4498417.3082649-.6478925.0575758-.1098378.1198366-.2036961.1849596-.3085213.0241378-.0398391.0363857-.0842969.0616518-.1234082.0946815-.1433886.2000535-.2686138.308266-.4010783.1534901-.1890383.3141915-.3911329.4932257-.5553398.099837-.0904154.2014572-.1646328.308266-.2468173.1134195-.0879757.248796-.1687498.3699202-.2468173.031578-.020284.060339-.041999.09248-.061704.00744-.0044.023804.0044.030833 0 .2334769-.1411084.4512259-.299192.7090099-.4010771zm76.172596 0c.257787.101944.475533.2599387.709012.401078.0074.0044.02391-.0044.03083 0 .108859.066512.205108.1415732.308266.2159658.153366.1111755.32317.2116129.4624.3393729.01137.010287.0196.020564.03083.030851.166642.1556213.318342.3470487.462399.5244872.108239.1324946.213528.2577346.308268.4010783.06108.094494.130085.178725.184959.2776698.04618.081417.08149.1625745.123307.2468174.08087.1666173.18346.3786211.246612.5553387.0079.022053.02233.039359.03083.061704.06824.1994472.109644.4066135.154133.6170427.07326.3473785.123307.7092915.123307 1.0798255v2.036243 69.139693 2.036241c0 2.829574-2.225646 5.090605-5.02474 5.090605h-2.034558-24.877087l.554879 2.036251h26.356766c3.344606 0 6.011192-2.727702 6.011192-6.108735v-2.036242-69.139693-2.036243c0-.340452-.0397-.663752-.09248-.987268-.04902-.300655-.09388-.611861-.184959-.894712-.01-.03161-.02096-.06124-.03083-.09255-.099479-.2927213-.228929-.5634231-.369927-.8330132-.145491-.2782057-.307693-.5523105-.493227-.802156-.185517-.2498455-.395196-.4610405-.616531-.6787482-.442676-.4353996-.949961-.8575169-1.510505-1.14153-.280273-.142006-.559744-.2408719-.863146-.3393739zm-55.096552 83.2125353-.493225 2.036251 18.108456-.06365 1.149363-2.051892-18.764594.07926zm22.072246-.15852.63691 2.159894.515063-.06763 1.168589-2.092259z" fill="url(#l)" opacity=".2"/></svg>