<svg height="96" width="96" xmlns="http://www.w3.org/2000/svg" xmlns:xlink="http://www.w3.org/1999/xlink"><linearGradient id="a"><stop offset="0" stop-color="#fefefe"/><stop offset="1" stop-color="#fefefe" stop-opacity="0"/></linearGradient><linearGradient id="b" gradientTransform="matrix(1.0058652 0 0 .994169 100 0)" gradientUnits="userSpaceOnUse" x1="45.447727" x2="45.447727" y1="92.539597" y2="7.01654"><stop offset="0"/><stop offset="1" stop-opacity=".588235"/></linearGradient><linearGradient id="c" gradientTransform="matrix(1.1100666 0 0 1.0797734 -115.78852 3.466439)" gradientUnits="userSpaceOnUse" x1="149.76193" x2="150.13481" xlink:href="#b" y1="82.777412" y2="-.115102"/><linearGradient id="d" gradientTransform="matrix(1.0980559 0 0 1.0733503 -114.19836 2.858893)" gradientUnits="userSpaceOnUse" x1="149.76193" x2="150.13481" xlink:href="#b" y1="82.777412" y2="-.115102"/><linearGradient id="e" gradientTransform="matrix(1.0827262 0 0 1.0535429 -111.96601 3.592016)" gradientUnits="userSpaceOnUse" x1="149.76193" x2="150.13481" xlink:href="#b" y1="82.777412" y2="-.115102"/><linearGradient id="f" gradientTransform="matrix(1.065018 0 0 1.0427731 -109.30574 3.774536)" gradientUnits="userSpaceOnUse" x1="149.76193" x2="150.13481" xlink:href="#b" y1="82.777412" y2="-.115102"/><linearGradient id="g" gradientTransform="matrix(1.0438277 0 0 1.036042 -106.18125 3.736246)" gradientUnits="userSpaceOnUse" x1="149.76193" x2="150.13481" xlink:href="#b" y1="82.777412" y2="-.115102"/><radialGradient id="h" cx="64.537231" cy="62.533291" gradientTransform="matrix(.60532244 -.01467886 .01476141 .97373366 6.553082 -2.450015)" gradientUnits="userSpaceOnUse" r="40.177982"><stop offset="0" stop-color="#d3aa98"/><stop offset=".5" stop-color="#c78d73"/><stop offset="1" stop-color="#bc704f"/></radialGradient><radialGradient id="i" cx="92.926346" cy="56.521748" gradientTransform="matrix(1.0254 .00784774 -.01094722 1.4181114 .08294 -22.571487)" gradientUnits="userSpaceOnUse" r="41.970642"><stop offset="0" stop-color="#434343"/><stop offset="1" stop-color="#151515"/></radialGradient><linearGradient id="j" gradientTransform="matrix(1.0247341 0 0 1.0282254 -.30767 -2.392726)" gradientUnits="userSpaceOnUse" x1="36.357143" x2="37.054588" xlink:href="#a" y1="6" y2="23.421911"/><radialGradient id="k" cx="48" cy="90.171875" gradientTransform="matrix(1.18048 0 0 1.0260559 -7.585451 -2.202602)" gradientUnits="userSpaceOnUse" r="42" xlink:href="#a"/><radialGradient id="l" cx="51.009903" cy="56.554455" gradientTransform="matrix(1.3984434 .3237354 -.25361446 1.0955412 -6.534169 -22.037525)" gradientUnits="userSpaceOnUse" r="6.361386"><stop offset="0" stop-color="#ddbdaf"/><stop offset="1" stop-color="#fefefe" stop-opacity="0"/></radialGradient><radialGradient id="m" cx="51.743286" cy="57.139999" gradientTransform="matrix(1.3703343 .45457272 -.31613884 .90127899 -7.934743 -20.226436)" gradientUnits="userSpaceOnUse" r="6.361386"><stop offset="0" stop-color="#e7d1c7"/><stop offset="1" stop-color="#d3aa97" stop-opacity="0"/></radialGradient><g transform="matrix(.98737679 0 0 .98753992 .034187 1.399652)"><path d="m9.3686617 2.8062507c-3.6873525 0-6.6604015 2.9241323-6.6604015 6.5461256v48.3873417c7.4987758 5.549839 8.2908168 5.635066 8.2908168 5.635066s.07489-7.706074.03469-10.89896c-.04032-3.192887-5.0300028-4.487808-5.0300028-4.487808l.069366-.641115 17.2754028.03374-.03468.742341s-4.298959.898712-4.336194 4.285353c-.03724 3.386641.103939 11.135161.103939 11.135161s2.131898.01855 5.342194-.03374c2.531377-.04122 5.233849.513688 8.464262-.371171 3.419298-.936591 7.839824-3.784795 10.823151-6.039982 12.371258-9.351818 14.9117-17.784044 11.898532-33.034313-2.812456-14.2349087-17.171246-20.6169244-17.171246-20.6169244s5.633428.069908 15.714372 11.2701354c15.125046 16.804436 4.717788 36.003691 4.717788 36.003691-3.879202 6.577938-7.378247 10.400358-13.182051 14.543195-3.423966 2.303144-7.831033 6.025976-12.800442 7.01853-2.795147.558284-5.374547.09865-8.533649.303686-1.62084.105239-3.741269.07709-5.238114.134965l-.03468 11.641315-2.46297 9.785435 33.683588.101189 3.815849-6.782318 1.80386 6.782318h.520347l2.948611-5.263887 1.387584 5.263887 28.48014.101188c3.687353.01087 6.625719-2.924144 6.625719-6.546124v-33.84414l-4.336205-3.138091 4.336205-.472401v-.843572l-4.336205-3.138093 4.336205-.4724v-36.5435793c0-3.6219932-2.938356-6.5461245-6.625719-6.5461245h-8.082667l-1.595722 4.589036-2.150751-4.589036h-4.405584l-.797859 5.533838-3.989294-5.533838h-58.8682258zm-6.6604015 65.2587983v19.7396c0 3.621992 2.938462 6.370119 6.6257085 6.343669l4.1974433-.03365-2.497653-9.852926v-11.607553c-.126783-.086434-.208138-.101199-.208138-.101199-2.4751934-1.275659-5.050594-2.155744-8.1173608-4.487826z" fill="url(#c)" opacity=".08"/><path d="m9.6046437 2.2026314c-3.6474559 0-6.588337 2.906738-6.588337 6.5071853v48.0995093c7.4176393 5.516824 8.2011113 5.601544 8.2011113 5.601544s.07409-7.660233.03431-10.834126c-.03988-3.173894-4.9755781-4.461113-4.9755781-4.461113l.068615-.637301 17.0884851.03354-.0343.737926s-4.252445.893365-4.289278 4.259861c-.03684 3.366495.102815 11.068923.102815 11.068923s2.108831.01844 5.284392-.03354c2.503988-.04097 5.17722.510632 8.37268-.368963 3.382302-.93102 7.754999-3.762281 10.706047-6.004053 12.237403-9.296188 14.750357-17.678255 11.769791-32.837808-2.782025-14.1502314-16.985456-20.4942834-16.985456-20.4942834s5.572476.069492 15.544345 11.2030944c14.961395 16.704474 4.666743 35.789522 4.666743 35.789522-3.83723 6.538809-7.298416 10.338491-13.039424 14.456685-3.386919 2.289444-7.746302 5.99013-12.661943 6.976779-2.764903.554964-5.316395.09806-8.441316.30188-1.603302.104613-3.700789.07663-5.181438.134163l-.0343 11.572066-2.436321 9.727226 33.319136.100587 3.774563-6.741974 1.784342 6.741974h.514717l2.916707-5.232574 1.372571 5.232574 28.171989.100586c3.647456.0108 6.55403-2.906749 6.55403-6.507184v-33.642817l-4.289288-3.119425 4.289288-.46959v-.838555l-4.289288-3.119426 4.289288-.46959v-36.3261978c0-3.6004478-2.906564-6.5071848-6.55403-6.5071848h-7.995214l-1.578456 4.561738-2.12748-4.561738h-4.357916l-.789227 5.5009194-3.94613-5.5009194h-58.2312804zm-6.588337 64.8706046v19.622178c0 3.600447 2.9066684 6.332226 6.554019 6.305934l4.1520273-.03345-2.470628-9.794316v-11.538505c-.125412-.08592-.205886-.100597-.205886-.100597-2.4484122-1.268071-4.9959474-2.14292-8.0295323-4.46113z" fill="url(#d)" opacity=".1"/><path d="m10.108614 2.9478651c-3.5965352 0-6.4963597 2.8530979-6.4963597 6.3871032v47.2118937c7.3140837 5.415019 8.0866187 5.498176 8.0866187 5.498176s.07305-7.518875.03383-10.634197c-.03933-3.115323-4.9061112-4.378789-4.9061112-4.378789l.067657-.625541 16.8499192.03292-.03383.724309s-4.193078.876879-4.229396 4.181249c-.03633 3.30437.101387 10.864662.101387 10.864662s2.079391.01811 5.210619-.03292c2.469031-.04021 5.10494.501208 8.255788-.362156 3.335081-.913839 7.646734-3.692852 10.556582-5.893256 12.066561-9.124635 14.544432-17.352023 11.605476-32.231827-2.743186-13.8891062-16.74833-20.1160861-16.74833-20.1160861s5.494684.06821 15.327339 10.9963551c14.752524 16.396215 4.601592 35.129071 4.601592 35.129071-3.78366 6.418144-7.196525 10.147708-12.857383 14.189906-3.339637 2.247196-7.638164 5.879591-12.485179 6.848033-2.726299.544723-5.242171.09626-8.323466.296309-1.580919.102689-3.649125.07522-5.109102.131687l-.03383 11.358521-2.402308 9.547722 32.853979.09872 3.721866-6.617561 1.759432 6.617561h.50753l2.875989-5.136015 1.353408 5.136015 27.778688.09872c3.596535.01061 6.46253-2.853108 6.46253-6.387102v-33.021985l-4.229406-3.06186 4.229406-.460925v-.823079l-4.229406-3.061863 4.229406-.460924v-35.6558435c0-3.534006-2.865985-6.3871028-6.46253-6.3871028h-7.883595l-1.556421 4.4775568-2.097778-4.4775568h-4.297075l-.778209 5.3994069-3.89104-5.3994069h-57.418331zm-6.4963597 63.6735009v19.260079c0 3.534006 2.8660894 6.215373 6.4625207 6.189565l4.094062-.03284-2.436136-9.613575v-11.325578c-.12366-.08433-.203012-.09874-.203012-.09874-2.4142309-1.244664-4.9262008-2.10337-7.9174347-4.378801z" fill="url(#e)" opacity=".2"/><path d="m10.772328 3.1369694c-3.5377137 0-6.3901024 2.8239316-6.3901024 6.3218114v46.7292702c7.1944524 5.359663 7.9543544 5.441971 7.9543544 5.441971s.07186-7.442013.03322-10.52549c-.03863-3.083476-4.8258709-4.334026-4.8258709-4.334026l.066547-.619146 16.5743399.03258-.03322.716906s-4.124498.867914-4.160219 4.138507c-.03572 3.270591.09976 10.753596.09976 10.753596s2.045382.01792 5.125397-.03258c2.428651-.0398 5.021442.496085 8.120765-.358453 3.280531-.904497 7.521673-3.655102 10.383924-5.833012 11.869221-9.031361 14.306567-17.174644 11.415677-31.902339-2.698413-13.747124-16.4745-19.91045-16.4745-19.91045s5.404817.067511 15.076659 10.883945c14.511241 16.228604 4.526335 34.769965 4.526335 34.769965-3.721777 6.352534-7.078823 10.043973-12.6471 14.044849-3.28502 2.224225-7.513237 5.819488-12.280986 6.77803-2.681709.53915-5.156432.09527-8.187333.29328-1.555067.101636-3.589442.07445-5.025546.130344l-.03322 11.242404-2.363009 9.450128 32.31664.09773 3.660998-6.549918 1.730662 6.549918h.499222l2.828955-5.083517 1.331274 5.083517 27.324365.09773c3.537704.01046 6.356829-2.823943 6.356829-6.321811v-32.684426l-4.160229-3.030559 4.160229-.456213v-.814666l-4.160229-3.030561 4.160229-.456213v-35.2913522c0-3.4978793-2.819115-6.3218106-6.356829-6.3218106h-7.754659l-1.530967 4.4317856-2.063473-4.4317856h-4.226788l-.765484 5.3442118-3.827408-5.3442118h-56.479239zm-6.3901024 63.0225996v19.063198c0 3.497878 2.8192087 6.15184 6.3568184 6.126293l4.027103-.0325-2.396293-9.515302v-11.20981c-.12164-.083487-.199684-.097742-.199684-.097742-2.3747467-1.231938-4.8456385-2.081865-7.7879444-4.334035z" fill="url(#f)" opacity=".3"/><path d="m11.507661 3.102795c-3.4673242 0-6.2629663 2.8057032-6.2629663 6.2810044v46.4276306c7.0513063 5.325068 7.7960883 5.406844 7.7960883 5.406844s.07045-7.393975.03256-10.457548-4.7298441-4.30605-4.7298441-4.30605l.06524-.61515 16.2445681.03238-.03256.712278s-4.042442.862312-4.077452 4.111793c-.03497 3.249479.0978 10.684182.0978 10.684182s2.004693.0178 5.023421-.03238c2.380335-.03954 4.921534.49288 7.959187-.356138 3.215265-.898659 7.372017-3.631509 10.177325-5.795361 11.633055-8.973064 14.021907-17.063782 11.188529-31.696408-2.644725-13.6583866-16.146709-19.7819271-16.146709-19.7819271s5.297279.067074 14.776687 10.8136891c14.222507 16.123847 4.436267 34.545523 4.436267 34.545523-3.647719 6.311529-6.937969 9.97914-12.395455 13.954191-3.219666 2.209861-7.363755 5.781922-12.036639 6.734273-2.628347.535666-5.053838.09463-8.024426.291387-1.524133.100953-3.518022.07401-4.925561.129505l-.03256 11.169827-2.315993 9.389127 31.673648.09708 3.588157-6.507634 1.696221 6.507634h.489295l2.772667-5.0507 1.304785 5.0507 26.780704.09708c3.467314.01036 6.230346-2.805705 6.230346-6.281v-32.473441l-4.077452-3.010997 4.077452-.453268v-.809408l-4.077452-3.010998 4.077452-.453269v-35.0635443c0-3.475301-2.763021-6.2810042-6.230346-6.2810042h-7.600371l-1.500502 4.4031784-2.022416-4.4031784h-4.14269l-.750251 5.3097152-3.751256-5.3097152h-55.355491zm-6.2629663 62.615787v18.940143c0 3.475294 2.7631163 6.112125 6.2303463 6.086742l3.946973-.03232-2.348611-9.453878v-11.137452c-.119227-.08289-.195717-.09713-.195717-.09713-2.327497-1.223987-4.7492189-2.068422-7.6329913-4.306053z" fill="url(#g)" opacity=".45"/><rect fill="url(#h)" height="78.259689" rx="4.43497" ry="6.10245" width="59.133152" x="5.844223" y="4.77455"/><rect fill="#bc704f" height="10.930693" rx="0" ry="6.10245" width="16.871286" x="15.445544" y="79.287125"/><path d="m12 3.78125c-3.4062129 0-6.15625 2.7625782-6.15625 6.1875v45.75c6.927026 5.247863 13.75 5.09375 13.75 5.09375s.06847-7.262102.03125-10.28125c-.03722-3.019158-4.65625-4.25-4.65625-4.25l.0625-.625 15.96875.03125-.03125.71875s-3.965607.860131-4 4.0625c-.03436 3.20237.0625 10.5.0625 10.5s8.464597.519108 16.6875-5.84375c11.428021-8.842969 13.783438-16.829523 11-31.25-2.598111-13.46035-15.875-19.5-15.875-19.5s5.21892.065458 14.53125 10.65625c13.971834 15.890073 4.34375 34.0625 4.34375 34.0625-3.583426 6.220016-6.794942 9.832589-12.15625 13.75-6.288286 4.329791-11.267503 5.382959-18.53125 6.8125v11l-2.28125 9.59375 24.21875.03125 3.71875-6.59375 1.84375 6.59375h.34375l2.8125-5.0625 1.375 5.0625 26.71875.0625c3.406211.0041 6.125-2.762588 6.125-6.1875v-32.46875l-4-3.03125 4-.84375v-.53125l-3.96875-2.90625 3.96875-.8125v-33.59375c0-3.4249116-2.718789-6.1875-6.125-6.1875h-8.0625l-1.03125 3.15625-1.65625-3.15625h-4.6875l-.65625 4.09375-3.0625-4.09375zm-6.15625 61.71875v18.65625c0 3.424912 2.7500371 6.1875 6.15625 6.1875h10l-2.375-9.78125v-10.96875c-1.44156-.03237-6.28125-1.375-6.28125-1.375-2.72305-.811977-4.4233918-1.241425-7.5-2.71875z" fill="url(#i)"/><path d="m11.975885 3.78125c-3.406216 0-6.1219246 2.7384404-6.1219246 6.15625v2.0625 69.90625 2.0625c0 .344173.040437.672976.094183 1 .049886.303943.095713.620321.1883669.90625.010006.03122.020817.06268.031395.09375.1013432.295903.2331375.571226.3767338.84375.1481702.281234.3133611.528685.5023118.78125.1889508.252564.4024752.498689.6278898.71875.4508288.440139.9674609.837896 1.5383298 1.125.2854343.143565.5700546.244219.8790455.34375-.2625361-.102996-.4842944-.232354-.722073-.375-.00714-.0045-.02382.0045-.031395 0-.032733-.01992-.062022-.042-.094183-.0625-.1233566-.07893-.2612251-.161067-.3767338-.25-.1087766-.08308-.2122724-.158599-.3139449-.25-.1823327-.165996-.3459939-.371389-.5023118-.5625-.1102058-.133907-.2175184-.261301-.3139449-.40625-.0257289-.039384-.0382035-.084722-.0627889-.125-.0663236-.105965-.1297334-.232731-.188367-.34375-.1034875-.200206-.2365005-.409798-.3139448-.625-.0085695-.02244-.0235323-.03991-.0313945-.0625-.03259-.09453-.0354884-.215421-.062789-.3125-.0310167-.109684-.0703126-.199935-.0941835-.3125-.0746144-.351143-.1255779-.71917-.1255779-1.09375v-2.0625-69.90625-2.0625c0-2.860366 2.2666456-5.125 5.117301-5.125h2.072037 53.967123l-1.53833-2.0625zm58.299563 0-.345339 2.0625h6.027741l-1.161596-2.0625zm7.409099 0-.627889 2.0625h6.655631 2.072036c2.850657 0 5.117301 2.264634 5.117301 5.125v2.0625 69.90625 2.0625c0 .37458-.05096.742607-.125578 1.09375-.04531.212736-.08747.423368-.156972.625-.0086.02259-.02323.04006-.03139.0625-.06433.178641-.168794.36282-.251156.53125-.04259.08516-.07856.167695-.125578.25-.05589.100026-.12616.216983-.188367.3125-.09648.144904-.203712.272328-.313945.40625-.146713.179384-.301206.373921-.470917.53125-.01143.01041-.01981.02083-.0314.03125-.141795.129151-.314727.231349-.470917.34375-.10506.0752-.203081.151529-.313945.21875-.007.0045-.02381-.0045-.0314 0-.23778.142676-.459538.271947-.722073.375.308991-.09958.593609-.200184.879046-.34375.570868-.287104 1.087499-.684861 1.53833-1.125.225413-.220061.438954-.466186.627889-.71875.188951-.252565.354142-.500016.502312-.78125.143597-.272524.275433-.547847.376734-.84375.01005-.03167.02124-.06179.0314-.09375.09276-.285929.138452-.602306.188367-.90625.05375-.327022.09418-.655827.09418-1v-2.0625-69.90625-2.0625c0-3.4178095-2.715708-6.15625-6.121925-6.15625h-8.099778z" fill="url(#j)" opacity=".3"/><path d="m10.46875 4.125c-.307569.0997286-.5908794.1998974-.875.34375-.5682417.287675-1.082496.7152364-1.53125 1.15625-.224377.2205144-.4369189.4344328-.625.6875s-.3525117.5307069-.5.8125c-.1429355.2730666-.2741243.5472589-.375.84375-.010529.031123-.02129.062478-.03125.09375-.0922271.2864988-.137844.601717-.1875.90625-.053499.3276888-.09375.6551569-.09375 1v2.0625 70.03125 2.0625c0 3.424629 2.7032101 6.1875 6.09375 6.1875h9.625l-.5-2.0625h-7.0625-2.0625c-2.8375362-.000053-5.09375-2.290191-5.09375-5.15625v-2.0625-70.03125-2.0625c0-.3753114.050729-.7418921.125-1.09375.023761-.1127737.062875-.2338503.09375-.34375.027175-.0972717.03006-.18654.0625-.28125.007826-.022636.02272-.040014.03125-.0625.0770879-.2156447.2094887-.4556457.3125-.65625.0583637-.1112549.1214817-.2063232.1875-.3125.0244723-.0403561.0368895-.0853886.0625-.125.0959827-.1452376.2028014-.2720771.3125-.40625.1555985-.1914758.3185064-.3961765.5-.5625.1012046-.0915832.2042241-.166756.3125-.25.1149771-.0891112.2522129-.1709265.375-.25.032014-.02055.061168-.042545.09375-.0625.00754-.00447.02414.00447.03125 0 .2366843-.1429293.457423-.3030515.71875-.40625zm77.21875 0c.261328.103258.482064.2632909.71875.40625.0075.00447.02425-.00447.03125 0 .110353.067369.207925.1433987.3125.21875.155471.1126099.327608.2143422.46875.34375.01152.010424.01987.020826.03125.03125.16893.1576273.322713.3515238.46875.53125.109725.1342027.21646.2610574.3125.40625.06192.095708.131872.1810299.1875.28125.04681.082469.08261.1646715.125.25.08198.1687662.18598.3835034.25.5625.0081.022338.02265.039866.03125.0625.06918.2020188.11115.4118572.15625.625.07427.3518579.125.7184386.125 1.09375v2.0625 70.03125 2.0625c0 2.866059-2.256213 5.15625-5.09375 5.15625h-2.0625-25.21875l.5625 2.0625h26.71875c3.390541 0 6.09375-2.762872 6.09375-6.1875v-2.0625-70.03125-2.0625c0-.3448431-.04025-.6723113-.09375-1-.049684-.304532-.09517-.6197512-.1875-.90625-.01011-.032017-.02125-.06203-.03125-.09375-.100836-.2964909-.232065-.5706834-.375-.84375-.147489-.2817932-.311919-.5594328-.5-.8125-.188066-.2530672-.400624-.4669856-.625-.6875-.448755-.4410136-.963008-.868575-1.53125-1.15625-.284121-.1438376-.567431-.243978-.875-.34375zm-62.4375 84.125-.5 2.0625 24.21875-.03125 1.125-2.03125zm28.71875 0 .59375 2.0625h.28125l1.15625-2.0625z" fill="url(#k)" opacity=".2"/><path d="m26.725839 85.92835-1.99992-2.674177 3.6848.864434z" fill="#151515"/><g fill="#181818"><path d="m17.790794 56.617185a1.2673267.95049506 0 1 0 .0206-.170604"/><path d="m28.24624 52.330064a1.1089109.79207922 0 1 1 -.018-.14217"/><path d="m28.02221 59.211828a1.2673267.95049506 0 1 1 -.0206-.170604"/><path d="m50.986481 43.231105 3.43213 2.612535-3.76986-.336424z"/></g><path d="m42.887081 65.85302-.0767-4.312652 2.07231 3.167103z" fill="#151515"/><path d="m44.595881 63.087387s7.28713-4.277228 11.72277-13.306931" fill="none" stroke="url(#l)" stroke-linecap="round"/><path d="m37.199576 59.711975s7.90118-3.107506 13.65653-11.235007" fill="none" stroke="url(#m)" stroke-linecap="round" stroke-width=".994688"/></g></svg>