<svg height="96" width="96" xmlns="http://www.w3.org/2000/svg" xmlns:xlink="http://www.w3.org/1999/xlink"><linearGradient id="a"><stop offset="0" stop-color="#fefefe"/><stop offset="1" stop-color="#fefefe" stop-opacity="0"/></linearGradient><linearGradient id="b" gradientUnits="userSpaceOnUse" x1="36.357143" x2="36.357143" xlink:href="#a" y1="6" y2="63.893143"/><radialGradient id="c" cx="48" cy="90.171875" gradientTransform="matrix(1.1573129 0 0 .99590774 -7.551021 .197132)" gradientUnits="userSpaceOnUse" r="42" xlink:href="#a"/><linearGradient id="d" gradientUnits="userSpaceOnUse" x1="48" x2="48" y1="-6" y2="-128"><stop offset="0" stop-color="#f0f0f0"/><stop offset="1" stop-color="#c6c6c6"/></linearGradient><linearGradient id="e" gradientTransform="matrix(1.0058652 0 0 .994169 100 0)" gradientUnits="userSpaceOnUse" x1="45.447727" x2="45.447727" y1="92.539597" y2="7.01654"><stop offset="0"/><stop offset="1" stop-opacity=".588235"/></linearGradient><linearGradient id="f" gradientTransform="matrix(1.0238095 0 0 -1.0119048 -1.142857 98.071429)" gradientUnits="userSpaceOnUse" x1="32.251034" x2="32.251034" xlink:href="#e" y1="6.131708" y2="90.238609"/><linearGradient id="g" gradientTransform="matrix(1.0238095 0 0 1.0119048 -1.142857 -98.071429)" gradientUnits="userSpaceOnUse" x1="32.251034" x2="32.251034" xlink:href="#e" y1="6.131708" y2="90.238609"/><linearGradient id="h" gradientTransform="translate(0 -97)" gradientUnits="userSpaceOnUse" x1="32.251034" x2="32.251034" xlink:href="#e" y1="6.131708" y2="90.238609"/><linearGradient id="i" gradientTransform="matrix(.76097591 -.00080957 -.00080957 .99289372 -19.035847 -36.112031)" gradientUnits="userSpaceOnUse" x1="141.25002" x2="144.81252" y1="4.921872" y2="4.921872"><stop offset="0"/><stop offset=".5" stop-color="#7d7d7d"/><stop offset="1"/></linearGradient><linearGradient id="j" gradientTransform="matrix(.76097591 -.00080957 -.00102439 1.2563605 -18.991835 -90.08987)" gradientUnits="userSpaceOnUse" x1="146.10596" x2="146.07562" xlink:href="#a" y1="118.94019" y2="66"/><filter id="k" color-interpolation-filters="sRGB" height="1.227422" width="1.863226" x="-.431613" y="-.113711"><feGaussianBlur stdDeviation=".73914765"/></filter><filter id="l" color-interpolation-filters="sRGB" height="1.2988" width="2.219592" x="-.609796" y="-.1494"><feGaussianBlur stdDeviation=".77812506"/></filter><linearGradient id="m" gradientTransform="matrix(.76097591 -.00080957 -.00080957 .99289372 -19.035847 -36.112031)" gradientUnits="userSpaceOnUse" x1="136.98804" x2="148.99513" y1="17.043356" y2="17.043356"><stop offset="0" stop-color="#da8539"/><stop offset="1" stop-color="#fadfc7"/></linearGradient><linearGradient id="n" gradientTransform="matrix(.76097591 -.00080957 -.00080957 .99289372 -19.035847 -36.112031)" gradientUnits="userSpaceOnUse" x1="136" x2="150" y1="60" y2="60"><stop offset="0" stop-color="#bc3732"/><stop offset=".25" stop-color="#e2494a"/><stop offset=".30000001" stop-color="#ff6264"/><stop offset=".69999999" stop-color="#f35455"/><stop offset=".75" stop-color="#ff5d5b"/><stop offset="1" stop-color="#ff363c"/></linearGradient><linearGradient id="o" gradientTransform="matrix(.76097591 -.00080957 -.00080957 .99289372 -19.035847 -36.112031)" gradientUnits="userSpaceOnUse" x1="143" x2="143" y1=".000002" y2="120.01752"><stop offset="0"/><stop offset=".06588447"/><stop offset=".07" stop-color="#ad5f1b"/><stop offset=".1913653" stop-color="#ad601a"/><stop offset=".20983393" stop-color="#d13636"/><stop offset="1" stop-color="#d13637"/></linearGradient><linearGradient id="p" gradientTransform="matrix(.76097591 -.00080957 -.00102439 1.2563605 -23.652812 -90.084916)" gradientUnits="userSpaceOnUse" x1="146.10596" x2="146.07562" xlink:href="#a" y1="118.94019" y2="66"/><g fill="url(#f)"><path d="m12 95.03125c-5.5110903 0-10.03125-4.52016-10.03125-10.03125v-71c0-5.5110902 4.5201598-10.03125 10.03125-10.03125h72c5.51109 0 10.03125 4.5201597 10.03125 10.03125v71c0 5.51109-4.52016 10.03125-10.03125 10.03125z" opacity=".08"/><path d="m12 94.03125c-4.971633 0-9.03125-4.059617-9.03125-9.03125v-71c0-4.9716329 4.0596171-9.03125 9.03125-9.03125h72c4.971633 0 9.03125 4.059617 9.03125 9.03125v71c0 4.971633-4.059617 9.03125-9.03125 9.03125z" opacity=".1"/><path d="m12 93c-4.4091333 0-8-3.590867-8-8v-71c0-4.4091333 3.5908667-8 8-8h72c4.409133 0 8 3.5908667 8 8v71c0 4.409133-3.590867 8-8 8z" opacity=".2"/></g><rect fill="url(#g)" height="85" opacity=".3" rx="7" transform="scale(1 -1)" width="86" x="5" y="-92"/><rect fill="url(#h)" height="84" opacity=".45" rx="6" transform="scale(1 -1)" width="84" x="6" y="-91"/><rect fill="url(#d)" height="84" rx="6" transform="scale(1 -1)" width="84" x="6" y="-90"/><path d="m12 6c-3.324 0-6 2.676-6 6v2 68 2c0 .334721.04135.6507.09375.96875.0487.295596.09704.596915.1875.875.00988.03038.020892.0636.03125.09375.098865.287771.2348802.547452.375.8125.1445918.273507.3156161.535615.5.78125s.3737765.473472.59375.6875c.439947.428056.94291.814526 1.5 1.09375.278545.139612.5734731.246947.875.34375-.2562018-.100222-.4867109-.236272-.71875-.375-.00741-.0044-.023866.0045-.03125 0-.031933-.0193-.062293-.04251-.09375-.0625-.120395-.0767-.2310226-.163513-.34375-.25-.1061728-.0808-.2132809-.161112-.3125-.25-.1779299-.161433-.3474596-.345388-.5-.53125-.1075789-.130255-.2183939-.265285-.3125-.40625-.025089-.03838-.038446-.08587-.0625-.125-.064763-.103032-.1302275-.204517-.1875-.3125-.1010083-.194706-.2056748-.415701-.28125-.625-.00796-.02181-.023589-.04055-.03125-.0625-.0318251-.09195-.0358045-.186831-.0625-.28125-.0303323-.106618-.0703894-.203031-.09375-.3125-.0728786-.341512-.125-.698205-.125-1.0625v-2-68-2c0-2.781848 2.2181517-5 5-5h2 68 2c2.781848 0 5 2.218152 5 5v2 68 2c0 .364295-.05212.720988-.125 1.0625-.04415.206893-.08838.397658-.15625.59375-.0077.02195-.0233.04069-.03125.0625-.06274.173739-.138383.367449-.21875.53125-.04158.0828-.07904.169954-.125.25-.0546.09721-.126774.18835-.1875.28125-.09411.140965-.204921.275995-.3125.40625-.143174.17445-.303141.346998-.46875.5-.01117.0102-.01998.02115-.03125.03125-.138386.125556-.285091.234436-.4375.34375-.102571.07315-.204318.153364-.3125.21875-.0074.0045-.02384-.0044-.03125 0-.232039.138728-.462548.274778-.71875.375.301527-.0968.596455-.204138.875-.34375.55709-.279224 1.060053-.665694 1.5-1.09375.219973-.214028.409366-.441865.59375-.6875s.355408-.507743.5-.78125c.14012-.265048.276135-.524729.375-.8125.01041-.03078.02133-.06274.03125-.09375.09046-.278085.1388-.579404.1875-.875.0524-.31805.09375-.634029.09375-.96875v-2-68-2c0-3.324-2.676-6-6-6z" fill="url(#b)" opacity=".5"/><path d="m12 90c-3.324 0-6-2.676-6-6v-2-68-2c0-.334721.04135-.6507.09375-.96875.0487-.295596.09704-.596915.1875-.875.00988-.03038.020892-.0636.03125-.09375.098865-.287771.2348802-.547452.375-.8125.1445918-.273507.3156161-.535615.5-.78125s.3737765-.473472.59375-.6875c.439947-.428056.94291-.814526 1.5-1.09375.278545-.139612.5734731-.246947.875-.34375-.2562018.100222-.4867109.236272-.71875.375-.00741.0044-.023866-.0045-.03125 0-.031933.0193-.062293.04251-.09375.0625-.120395.0767-.2310226.163513-.34375.25-.1061728.0808-.2132809.161112-.3125.25-.1779299.161433-.3474596.345388-.5.53125-.1075789.130255-.2183939.265285-.3125.40625-.025089.03838-.038446.08587-.0625.125-.064763.103032-.1302275.204517-.1875.3125-.1010083.194706-.2056748.415701-.28125.625-.00796.02181-.023589.04055-.03125.0625-.0318251.09195-.0358045.186831-.0625.28125-.0303323.106618-.0703894.203031-.09375.3125-.0728786.341512-.125.698205-.125 1.0625v2 68 2c0 2.781848 2.2181517 5 5 5h2 68 2c2.781848 0 5-2.218152 5-5v-2-68-2c0-.364295-.05212-.720988-.125-1.0625-.04415-.206893-.08838-.397658-.15625-.59375-.0077-.02195-.0233-.04069-.03125-.0625-.06274-.173739-.138383-.367449-.21875-.53125-.04158-.0828-.07904-.169954-.125-.25-.0546-.09721-.126774-.18835-.1875-.28125-.09411-.140965-.204921-.275995-.3125-.40625-.143174-.17445-.303141-.346998-.46875-.5-.01117-.0102-.01998-.02115-.03125-.03125-.138386-.125556-.285091-.234436-.4375-.34375-.102571-.07315-.204318-.153364-.3125-.21875-.0074-.0045-.02384.0044-.03125 0-.232039-.138728-.462548-.274778-.71875-.375.301527.0968.596455.204138.875.34375.55709.279224 1.060053.665694 1.5 1.09375.219973.214028.409366.441865.59375.6875s.355408.507743.5.78125c.14012.265048.276135.524729.375.8125.01041.03078.02133.06274.03125.09375.09046.278085.1388.579404.1875.875.0524.31805.09375.634029.09375.96875v2 68 2c0 3.324-2.676 6-6 6z" fill="url(#c)" opacity=".3"/><g transform="matrix(-.72509462 .00253109 -.00253109 -.72509462 48.14591 69.033325)"><path d="m-23.761206-18.738137c6.31549 4.683275 9.68333 9.4325786 18.1163554 25.5475556 5.5424972 10.5913494 9.6181533 15.1795384 16.3040686 18.3543824 2.384655 1.132366 4.432963 2.141643 4.551795 2.242835.118833.101192.02902 1.268012-.199584 2.592934l-.415643 2.408947-5.1463401-.288131c-14.4568245-.809402-28.3179889 4.027541-33.6821559 11.753607-8.350034 12.026637 4.382304 24.023558 27.2905267 25.714224l5.7524972.424543-.333815 2.549006c-.183598 1.401949-.365292 2.576204-.403769 2.609449-.03846.03324-2.7213751-.18734-5.9620022-.490201-15.6931667-1.466625-27.2533147-7.121444-31.9178307-15.613077-1.57115-2.860242-1.826343-3.984147-1.812384-7.982051.01395-4.000617.276588-5.119314 1.87294-7.97809 4.684886-8.38977 15.770339-14.29131 29.6696156-15.795151l3.5423001-.383261-3.5656211-3.53851c-4.5886562-4.553766-6.2590462-7.079949-12.3542366-18.6836934-6.378775-12.143616-10.039938-16.7974686-16.740226-21.2791726l-1.459945-.976534 1.173869-1.971449c.645628-1.084303 1.362145-1.970798 1.592262-1.969995.230118.00081 2.087412 1.239126 4.127323 2.751833z" stroke-width=".620414"/><g transform="matrix(.9961947 .08715574 -.08715574 .9961947 -71.123963 8.040732)"><path d="m84.817522-11.896638 4.965774-23.834711 4.926914 23.824187-.05829 71.488347-9.89268.0105z" fill="url(#n)" stroke="url(#o)" stroke-linejoin="round" stroke-width="1.198779"/><path d="m88.579992-28.212231 2.391465.0194-1.199461-5.748894" fill="url(#i)" fill-rule="evenodd"/><path d="m88.60948-28.193895-2.87828 13.814051s-.357315 1.642094-.533275 2.59035c-.146031.63787 1.489337 1.598247 2.298076-1.599334.921189 4.4807484 4.24034 3.4090076 4.556951.0061.259256 1.689108 1.332335 2.927578 2.273042 1.508703-.177923-.902096-.330863-1.510769-.330863-1.510769l-3.048322-14.81161-2.337329.0025z" fill="url(#m)" fill-rule="evenodd"/><path d="m92.06929 59.390173.05441-66.7396275" fill="none" opacity=".5" stroke="url(#j)" stroke-width="1.198779"/><path d="m87.408314 59.395134.05441-66.73963" fill="none" opacity=".5" stroke="url(#p)" stroke-width="1.198779"/><path d="m142.43783 5.9798798-4.77297 17.8986412 1.98873-.839689z" fill="#ac4311" fill-rule="evenodd" filter="url(#k)" opacity=".4" transform="matrix(.76097591 -.00080957 -.00080957 .99289372 -19.035847 -36.112031)"/><path d="m85.055235-11.772786s1.129893 1.751165 2.474409-1.523c1.5177 5.2110732 3.931476 2.06813 4.518316-.03583 1.043561 3.4119591 2.376892 1.424755 2.376892 1.424755" fill="none" opacity=".15" stroke="#4d2600" stroke-width="1.198779"/><path d="m144.06251 8.9374939-.375 12.5000011 3.0625-.3125z" fill="#fefefe" fill-rule="evenodd" filter="url(#l)" opacity=".8" transform="matrix(.85415668 -.00090869 -.00108887 1.335442 -32.706256 -40.834515)"/></g></g></svg>