<svg height="96" width="96" xmlns="http://www.w3.org/2000/svg" xmlns:xlink="http://www.w3.org/1999/xlink"><linearGradient id="a"><stop offset="0" stop-color="#fefefe"/><stop offset="1" stop-color="#fefefe" stop-opacity="0"/></linearGradient><linearGradient id="b" gradientUnits="userSpaceOnUse" x1="36.357143" x2="36.357143" xlink:href="#a" y1="6" y2="63.893143"/><filter id="c" color-interpolation-filters="sRGB" height="1.384" width="1.384" x="-.192" y="-.192"><feGaussianBlur stdDeviation="5.28"/></filter><linearGradient id="d" gradientUnits="userSpaceOnUse" x1="48" x2="48" xlink:href="#a" y1="20.220806" y2="138.66119"/><radialGradient id="e" cx="48" cy="90.171875" gradientTransform="matrix(1.1573129 0 0 .99590774 -7.551021 .197132)" gradientUnits="userSpaceOnUse" r="42" xlink:href="#a"/><clipPath id="f"><rect height="84" rx="6" width="84" x="6" y="6"/></clipPath><linearGradient id="g" gradientTransform="matrix(1.0058652 0 0 .994169 100 0)" gradientUnits="userSpaceOnUse" x1="45.447727" x2="45.447727" y1="92.539597" y2="7.01654"><stop offset="0"/><stop offset="1" stop-opacity=".588235"/></linearGradient><linearGradient id="h" gradientTransform="matrix(1.0238095 0 0 1.0119048 -1.142857 -98.071429)" gradientUnits="userSpaceOnUse" x1="32.251034" x2="32.251034" xlink:href="#g" y1="6.131708" y2="90.238609"/><linearGradient id="i" gradientTransform="translate(0 -97)" gradientUnits="userSpaceOnUse" x1="32.251034" x2="32.251034" xlink:href="#g" y1="6.131708" y2="90.238609"/><linearGradient id="j" gradientUnits="userSpaceOnUse" x1="-90" x2="-6" y1="48" y2="48"><stop offset="0" stop-color="#d7c000"/><stop offset="1" stop-color="#ebd93c"/></linearGradient><linearGradient id="k" gradientUnits="userSpaceOnUse" x1="16" x2="16" y1="24" y2="-16"><stop offset="0" stop-color="#665400"/><stop offset="1" stop-color="#665400" stop-opacity="0"/></linearGradient><linearGradient id="l" gradientUnits="userSpaceOnUse" x1="96" x2="16" xlink:href="#a" y1="16" y2="64"/><g fill="url(#h)"><path d="m12-95.03125c-5.5110903 0-10.03125 4.52016-10.03125 10.03125v71c0 5.5110902 4.5201598 10.03125 10.03125 10.03125h72c5.51109 0 10.03125-4.5201597 10.03125-10.03125v-71c0-5.51109-4.52016-10.03125-10.03125-10.03125z" opacity=".08" transform="scale(1 -1)"/><path d="m12-94.03125c-4.971633 0-9.03125 4.059617-9.03125 9.03125v71c0 4.9716329 4.0596171 9.03125 9.03125 9.03125h72c4.971633 0 9.03125-4.059617 9.03125-9.03125v-71c0-4.971633-4.059617-9.03125-9.03125-9.03125z" opacity=".1" transform="scale(1 -1)"/><path d="m12-93c-4.4091333 0-8 3.590867-8 8v71c0 4.4091333 3.5908667 8 8 8h72c4.409133 0 8-3.5908667 8-8v-71c0-4.409133-3.590867-8-8-8z" opacity=".2" transform="scale(1 -1)"/><rect height="85" opacity=".3" rx="7" transform="scale(1 -1)" width="86" x="5" y="-92"/></g><rect fill="url(#i)" height="84" opacity=".45" rx="6" transform="scale(1 -1)" width="84" x="6" y="-91"/><rect fill="url(#j)" height="84" rx="6" transform="rotate(-90)" width="84" x="-90" y="6"/><path d="m12 6c-3.324 0-6 2.676-6 6v2 68 2c0 .334721.04135.6507.09375.96875.0487.295596.09704.596915.1875.875.00988.03038.020892.0636.03125.09375.098865.287771.2348802.547452.375.8125.1445918.273507.3156161.535615.5.78125s.3737765.473472.59375.6875c.439947.428056.94291.814526 1.5 1.09375.278545.139612.5734731.246947.875.34375-.2562018-.100222-.4867109-.236272-.71875-.375-.00741-.0044-.023866.0045-.03125 0-.031933-.0193-.062293-.04251-.09375-.0625-.120395-.0767-.2310226-.163513-.34375-.25-.1061728-.0808-.2132809-.161112-.3125-.25-.1779299-.161433-.3474596-.345388-.5-.53125-.1075789-.130255-.2183939-.265285-.3125-.40625-.025089-.03838-.038446-.08587-.0625-.125-.064763-.103032-.1302275-.204517-.1875-.3125-.1010083-.194706-.2056748-.415701-.28125-.625-.00796-.02181-.023589-.04055-.03125-.0625-.0318251-.09195-.0358045-.186831-.0625-.28125-.0303323-.106618-.0703894-.203031-.09375-.3125-.0728786-.341512-.125-.698205-.125-1.0625v-2-68-2c0-2.781848 2.2181517-5 5-5h2 68 2c2.781848 0 5 2.218152 5 5v2 68 2c0 .364295-.05212.720988-.125 1.0625-.04415.206893-.08838.397658-.15625.59375-.0077.02195-.0233.04069-.03125.0625-.06274.173739-.138383.367449-.21875.53125-.04158.0828-.07904.169954-.125.25-.0546.09721-.126774.18835-.1875.28125-.09411.140965-.204921.275995-.3125.40625-.143174.17445-.303141.346998-.46875.5-.01117.0102-.01998.02115-.03125.03125-.138386.125556-.285091.234436-.4375.34375-.102571.07315-.204318.153364-.3125.21875-.0074.0045-.02384-.0044-.03125 0-.232039.138728-.462548.274778-.71875.375.301527-.0968.596455-.204138.875-.34375.55709-.279224 1.060053-.665694 1.5-1.09375.219973-.214028.409366-.441865.59375-.6875s.355408-.507743.5-.78125c.14012-.265048.276135-.524729.375-.8125.01041-.03078.02133-.06274.03125-.09375.09046-.278085.1388-.579404.1875-.875.0524-.31805.09375-.634029.09375-.96875v-2-68-2c0-3.324-2.676-6-6-6z" fill="url(#b)" opacity=".45"/><path d="m12 90c-3.324 0-6-2.676-6-6v-2-68-2c0-.334721.04135-.6507.09375-.96875.0487-.295596.09704-.596915.1875-.875.00988-.03038.020892-.0636.03125-.09375.098865-.287771.2348802-.547452.375-.8125.1445918-.273507.3156161-.535615.5-.78125s.3737765-.473472.59375-.6875c.439947-.428056.94291-.814526 1.5-1.09375.278545-.139612.5734731-.246947.875-.34375-.2562018.100222-.4867109.236272-.71875.375-.00741.0044-.023866-.0045-.03125 0-.031933.0193-.062293.04251-.09375.0625-.120395.0767-.2310226.163513-.34375.25-.1061728.0808-.2132809.161112-.3125.25-.1779299.161433-.3474596.345388-.5.53125-.1075789.130255-.2183939.265285-.3125.40625-.025089.03838-.038446.08587-.0625.125-.064763.103032-.1302275.204517-.1875.3125-.1010083.194706-.2056748.415701-.28125.625-.00796.02181-.023589.04055-.03125.0625-.0318251.09195-.0358045.186831-.0625.28125-.0303323.106618-.0703894.203031-.09375.3125-.0728786.341512-.125.698205-.125 1.0625v2 68 2c0 2.781848 2.2181517 5 5 5h2 68 2c2.781848 0 5-2.218152 5-5v-2-68-2c0-.364295-.05212-.720988-.125-1.0625-.04415-.206893-.08838-.397658-.15625-.59375-.0077-.02195-.0233-.04069-.03125-.0625-.06274-.173739-.138383-.367449-.21875-.53125-.04158-.0828-.07904-.169954-.125-.25-.0546-.09721-.126774-.18835-.1875-.28125-.09411-.140965-.204921-.275995-.3125-.40625-.143174-.17445-.303141-.346998-.46875-.5-.01117-.0102-.01998-.02115-.03125-.03125-.138386-.125556-.285091-.234436-.4375-.34375-.102571-.07315-.204318-.153364-.3125-.21875-.0074-.0045-.02384.0044-.03125 0-.232039-.138728-.462548-.274778-.71875-.375.301527.0968.596455.204138.875.34375.55709.279224 1.060053.665694 1.5 1.09375.219973.214028.409366.441865.59375.6875s.355408.507743.5.78125c.14012.265048.276135.524729.375.8125.01041.03078.02133.06274.03125.09375.09046.278085.1388.579404.1875.875.0524.31805.09375.634029.09375.96875v2 68 2c0 3.324-2.676 6-6 6z" fill="url(#e)" opacity=".25"/><path d="m12 6c-3.324 0-6 2.676-6 6v46.875c17.60856-11.522031 44.22874-18.875 74-18.875 3.37799 0 6.71203.09685 10 .28125v-28.28125c0-3.324-2.676-6-6-6z" fill="url(#l)" opacity=".4"/><rect height="66" rx="12" style="opacity:.1;stroke:#fefefe;stroke-width:.5;stroke-linecap:round;clip-path:url(#f);fill:url(#d);filter:url(#c)" width="66" x="15" y="15"/><path d="m15.78125 9.90625c-.0011.0000542-.09269.031142-.09375.03125a1.0151723 1.0151723 0 0 0 -.125 0c-.0017.0003878-.185797.061965-.1875.0625-.0017.000534-.154599.06182-.15625.0625-.0017.000677-.154662.06169-.15625.0625-.0016.000815-.154737.0928-.15625.09375-.0015.000947-.154823.09268-.15625.09375-.0014.0011-.123669.12381-.125.125-.0013.0012-.123775.123702-.125.125-.0012.0013-.12389.123602-.125.125-.0011.0014-.09276.154763-.09375.15625-.000987.0015-.09289.154684-.09375.15625-.000857.0016-.09303.154617-.09375.15625-.000721.0016-.06192.154562-.0625.15625-.00058.0017-.03082.154519-.03125.15625-.000434.0017-.06221.185738-.0625.1875-.000286.0018.000135.18572 0 .1875-.000135.0018-.000017.154465 0 .15625v24c.000029.002-.000223.21674 0 .21875.000223.002.03083.185521.03125.1875.000416.002.0619.21682.0625.21875.000604.0019.06171.185637.0625.1875.000787.0019.09279.154472.09375.15625.000963.0018.09262.185823.09375.1875.0011.0017.123714.154689.125.15625.0013.0016.12357.15482.125.15625.0014.0014.154689.123714.15625.125.0016.0013.154573.123871.15625.125.0017.0011.185722.09279.1875.09375.0018.000963.154387.09296.15625.09375.0019.000787.18557.0619.1875.0625.0019.000604.216771.06208.21875.0625.002.000416.18549.03103.1875.03125.002.000223.216728-.000029.21875 0h.1875c-2.095797.159865-4.016308 1.091377-5.1875 2.84375-1.2525139 1.878782-1.656251 4.268107-1.65625 7.09375-.000001 2.818869.4010822 5.232747 1.65625 7.125 1.28329 1.91047 3.418366 2.9375 5.71875 2.9375 2.298699 0 4.439027-1.017935 5.71875-2.9375 1.257377-1.881357 1.687486-4.292902 1.6875-7.125-.000014-2.838851-.432865-5.225909-1.6875-7.09375-1.167938-1.760716-3.09203-2.684678-5.1875-2.84375h.75c.002-.000029.21674.000223.21875 0 .002-.000223.185521-.03083.1875-.03125.002-.000416.21682-.0619.21875-.0625.0019-.000604.185637-.06171.1875-.0625.0019-.000787.154472-.09279.15625-.09375.0018-.000963.185823-.09262.1875-.09375.0017-.0011.154689-.123714.15625-.125.0016-.0013.15482-.12357.15625-.125.0014-.0014.123714-.154689.125-.15625.0013-.0016.123871-.154573.125-.15625.0011-.0017.09279-.185722.09375-.1875.000963-.0018.09296-.154387.09375-.15625.000787-.0019.0619-.18557.0625-.1875.000604-.0019.06208-.216771.0625-.21875.000416-.002.03103-.18549.03125-.1875.000223-.002-.000029-.216728 0-.21875v-11.28125c.01719.04686.03086.09282.03125.09375.000787.0019.09279.154472.09375.15625.000963.0018.09262.185823.09375.1875.0011.0017.123714.154689.125.15625.0013.0016.12357.15482.125.15625.0014.0014.154689.123714.15625.125.0016.0013.154573.123871.15625.125.0017.0011.185722.09279.1875.09375.0018.000963.154387.09296.15625.09375.0019.000787.18557.0619.1875.0625.0019.000604.216771.06208.21875.0625.002.000416.18549.03103.1875.03125.002.000223.216728-.000029.21875 0h2c.002-.000029.21674.000223.21875 0 .002-.000223.185521-.03083.1875-.03125.002-.000416.21682-.0619.21875-.0625.0019-.000604.185637-.06171.1875-.0625.0019-.000787.154472-.09279.15625-.09375.0018-.000963.185823-.09262.1875-.09375.0017-.0011.154689-.123714.15625-.125.0016-.0013.15482-.12357.15625-.125.0014-.0014.123714-.154689.125-.15625.0013-.0016.123871-.154573.125-.15625.0011-.0017.09279-.185722.09375-.1875.000963-.0018.09296-.154387.09375-.15625.000787-.0019.0619-.18557.0625-.1875.000342-.0011.01723-.07126.03125-.125.01402.05374.03091.123908.03125.125.000604.0019.06171.185637.0625.1875.000787.0019.09279.154472.09375.15625.000963.0018.09262.185823.09375.1875.0011.0017.123714.154689.125.15625.0013.0016.12357.15482.125.15625.0014.0014.154689.123714.15625.125.0016.0013.154573.123871.15625.125.0017.0011.185722.09279.1875.09375.0018.000963.154387.09296.15625.09375.0019.000787.18557.0619.1875.0625.0019.000604.216771.06208.21875.0625.002.000416.18549.03103.1875.03125.002.000223.216728-.000029.21875 0h2c.002-.000029.21674.000223.21875 0 .002-.000223.185521-.03083.1875-.03125.002-.000416.21682-.0619.21875-.0625.0019-.000604.185637-.06171.1875-.0625.0019-.000787.154472-.09279.15625-.09375.0018-.000963.185823-.09262.1875-.09375.0017-.0011.154689-.123714.15625-.125.0016-.0013.15482-.12357.15625-.125.0014-.0014.123714-.154689.125-.15625.0013-.0016.123871-.154573.125-.15625.0011-.0017.09279-.185722.09375-.1875.000963-.0018.09296-.154387.09375-.15625.000787-.0019.0619-.18557.0625-.1875.000342-.0011.01723-.07126.03125-.125.01402.05374.03091.123908.03125.125.000604.0019.06171.185637.0625.1875.000787.0019.09279.154472.09375.15625.000963.0018.09262.185823.09375.1875.0011.0017.123714.154689.125.15625.0013.0016.12357.15482.125.15625.0014.0014.154689.123714.15625.125.0016.0013.154573.123871.15625.125.0017.0011.185722.09279.1875.09375.0018.000963.154387.09296.15625.09375.0019.000787.18557.0619.1875.0625.0019.000604.216771.06208.21875.0625.002.000416.18549.03103.1875.03125.002.000223.216728-.000029.21875 0h2c.002-.000029.21674.000223.21875 0 .002-.000223.185521-.03083.1875-.03125.002-.000416.21682-.0619.21875-.0625.0019-.000604.185637-.06171.1875-.0625.0019-.000787.154472-.09279.15625-.09375.0018-.000963.185823-.09262.1875-.09375.0017-.0011.154689-.123714.15625-.125.0016-.0013.15482-.12357.15625-.125.0014-.0014.123714-.154689.125-.15625.0013-.0016.123871-.154573.125-.15625.0011-.0017.09279-.185722.09375-.1875.000963-.0018.09296-.154387.09375-.15625.000787-.0019.0619-.18557.0625-.1875.000342-.0011.01723-.07126.03125-.125.01402.05374.03091.123908.03125.125.000604.0019.06171.185637.0625.1875.000787.0019.09279.154472.09375.15625.000963.0018.09262.185823.09375.1875.0011.0017.123714.154689.125.15625.0013.0016.12357.15482.125.15625.0014.0014.154689.123714.15625.125.0016.0013.154573.123871.15625.125.0017.0011.185722.09279.1875.09375.0018.000963.154387.09296.15625.09375.0019.000787.18557.0619.1875.0625.0019.000604.216771.06208.21875.0625.002.000416.18549.03103.1875.03125.002.000223.216728-.000029.21875 0h2c.002-.000029.21674.000223.21875 0 .002-.000223.185521-.03083.1875-.03125.002-.000416.21682-.0619.21875-.0625.0019-.000604.185637-.06171.1875-.0625.0019-.000787.154472-.09279.15625-.09375.0018-.000963.185823-.09262.1875-.09375.0017-.0011.154689-.123714.15625-.125.0016-.0013.15482-.12357.15625-.125.0014-.0014.123714-.154689.125-.15625.0013-.0016.123871-.154573.125-.15625.0011-.0017.09279-.185722.09375-.1875.000963-.0018.09296-.154387.09375-.15625.000394-.000931.01406-.04689.03125-.09375v5.28125c.000029.002-.000223.21674 0 .21875.000223.002.03083.185521.03125.1875.000416.002.0619.21682.0625.21875.000604.0019.06171.185637.0625.1875.000787.0019.09279.154472.09375.15625.000963.0018.09262.185823.09375.1875.0011.0017.123714.154689.125.15625.0013.0016.12357.15482.125.15625.0014.0014.154689.123714.15625.125.0016.0013.154573.123871.15625.125.0017.0011.185722.09279.1875.09375.0018.000963.154387.09296.15625.09375.0019.000787.18557.0619.1875.0625.0019.000604.216771.06208.21875.0625.002.000416.18549.03103.1875.03125.002.000223.216728-.000029.21875 0h2c.002-.000029.21674.000223.21875 0 .002-.000223.185521-.03083.1875-.03125.002-.000416.21682-.0619.21875-.0625.0019-.000604.185637-.06171.1875-.0625.0019-.000787.154472-.09279.15625-.09375.0018-.000963.185823-.09262.1875-.09375.0017-.0011.154689-.123714.15625-.125.0016-.0013.15482-.12357.15625-.125.0014-.0014.123714-.154689.125-.15625.0013-.0016.123871-.154573.125-.15625.0011-.0017.09279-.185722.09375-.1875.000963-.0018.09296-.154387.09375-.15625.000787-.0019.0619-.18557.0625-.1875.000604-.0019.06208-.216771.0625-.21875.000416-.002.03103-.18549.03125-.1875.000223-.002-.000029-.216728 0-.21875v-5.28125c.01719.04686.03086.09282.03125.09375.000787.0019.09279.154472.09375.15625.000963.0018.09262.185823.09375.1875.0011.0017.123714.154689.125.15625.0013.0016.12357.15482.125.15625.0014.0014.154689.123714.15625.125.0016.0013.154573.123871.15625.125.0017.0011.185722.09279.1875.09375.0018.000963.154387.09296.15625.09375.0019.000787.18557.0619.1875.0625.0019.000604.216771.06208.21875.0625.002.000416.18549.03103.1875.03125.002.000223.216728-.000029.21875 0h2c.002-.000029.21674.000223.21875 0 .002-.000223.185521-.03083.1875-.03125.002-.000416.21682-.0619.21875-.0625.0019-.000604.185637-.06171.1875-.0625.0019-.000787.154472-.09279.15625-.09375.0018-.000963.185823-.09262.1875-.09375.0017-.0011.154689-.123714.15625-.125.0016-.0013.15482-.12357.15625-.125.0014-.0014.123714-.154689.125-.15625.0013-.0016.123871-.154573.125-.15625.0011-.0017.09279-.185722.09375-.1875.000963-.0018.09296-.154387.09375-.15625.000787-.0019.0619-.18557.0625-.1875.000342-.0011.01723-.07126.03125-.125.01402.05374.03091.123908.03125.125.000604.0019.06171.185637.0625.1875.000787.0019.09279.154472.09375.15625.000963.0018.09262.185823.09375.1875.0011.0017.123714.154689.125.15625.0013.0016.12357.15482.125.15625.0014.0014.154689.123714.15625.125.0016.0013.154573.123871.15625.125.0017.0011.185722.09279.1875.09375.0018.000963.154387.09296.15625.09375.0019.000787.18557.0619.1875.0625.0019.000604.216771.06208.21875.0625.002.000416.18549.03103.1875.03125.002.000223.216728-.000029.21875 0h2c.002-.000029.21674.000223.21875 0 .002-.000223.185521-.03083.1875-.03125.002-.000416.21682-.0619.21875-.0625.0019-.000604.185637-.06171.1875-.0625.0019-.000787.154472-.09279.15625-.09375.0018-.000963.185823-.09262.1875-.09375.0017-.0011.154689-.123714.15625-.125.0016-.0013.15482-.12357.15625-.125.0014-.0014.123714-.154689.125-.15625.0013-.0016.123871-.154573.125-.15625.0011-.0017.09279-.185722.09375-.1875.000963-.0018.09296-.154387.09375-.15625.000787-.0019.0619-.18557.0625-.1875.000342-.0011.01723-.07126.03125-.125.01402.05374.03091.123908.03125.125.000604.0019.06171.185637.0625.1875.000787.0019.09279.154472.09375.15625.000963.0018.09262.185823.09375.1875.0011.0017.123714.154689.125.15625.0013.0016.12357.15482.125.15625.0014.0014.154689.123714.15625.125.0016.0013.154573.123871.15625.125.0017.0011.185722.09279.1875.09375.0018.000963.154387.09296.15625.09375.0019.000787.18557.0619.1875.0625.0019.000604.216771.06208.21875.0625.002.000416.18549.03103.1875.03125.002.000223.216728-.000029.21875 0h2c.002-.000029.21674.000223.21875 0 .002-.000223.185521-.03083.1875-.03125.002-.000416.21682-.0619.21875-.0625.0019-.000604.185637-.06171.1875-.0625.0019-.000787.154472-.09279.15625-.09375.0018-.000963.185823-.09262.1875-.09375.0017-.0011.154689-.123714.15625-.125.0016-.0013.15482-.12357.15625-.125.0014-.0014.123714-.154689.125-.15625.0013-.0016.123871-.154573.125-.15625.0011-.0017.09279-.185722.09375-.1875.000963-.0018.09296-.154387.09375-.15625.000787-.0019.0619-.18557.0625-.1875.000342-.0011.01723-.07126.03125-.125.01402.05374.03091.123908.03125.125.000604.0019.06171.185637.0625.1875.000787.0019.09279.154472.09375.15625.000963.0018.09262.185823.09375.1875.0011.0017.123714.154689.125.15625.0013.0016.12357.15482.125.15625.0014.0014.154689.123714.15625.125.0016.0013.154573.123871.15625.125.0017.0011.185722.09279.1875.09375.0018.000963.154387.09296.15625.09375.0019.000787.18557.0619.1875.0625.0019.000604.216771.06208.21875.0625.002.000416.18549.03103.1875.03125.002.000223.216728-.000029.21875 0h2c.002-.000029.21674.000223.21875 0 .002-.000223.185521-.03083.1875-.03125.002-.000416.21682-.0619.21875-.0625.0019-.000604.185637-.06171.1875-.0625.0019-.000787.154472-.09279.15625-.09375.0018-.000963.185823-.09262.1875-.09375.0017-.0011.154689-.123714.15625-.125.0016-.0013.15482-.12357.15625-.125.0014-.0014.123714-.154689.125-.15625.0013-.0016.123871-.154573.125-.15625.0011-.0017.09279-.185722.09375-.1875.000963-.0018.09296-.154387.09375-.15625.000394-.000931.01406-.04689.03125-.09375v11.28125c.000029.002-.000223.21674 0 .21875.000223.002.03083.185521.03125.1875.000416.002.0619.21682.0625.21875.000604.0019.06171.185637.0625.1875.000787.0019.09279.154472.09375.15625.000963.0018.09262.185823.09375.1875.0011.0017.123714.154689.125.15625.0013.0016.12357.15482.125.15625.0014.0014.154689.123714.15625.125.0016.0013.154573.123871.15625.125.0017.0011.185722.09279.1875.09375.0018.000963.154387.09296.15625.09375.0019.000787.18557.0619.1875.0625.0019.000604.216771.06208.21875.0625.002.000416.18549.03103.1875.03125.002.000223.216728-.000029.21875 0h2c.002-.000029.21674.000223.21875 0 .002-.000223.185521-.03083.1875-.03125.002-.000416.21682-.0619.21875-.0625.0019-.000604.185637-.06171.1875-.0625.0019-.000787.154472-.09279.15625-.09375.0018-.000963.185823-.09262.1875-.09375.0017-.0011.154689-.123714.15625-.125.0016-.0013.15482-.12357.15625-.125.0014-.0014.123714-.154689.125-.15625.0013-.0016.123871-.154573.125-.15625.0011-.0017.09279-.185722.09375-.1875.000963-.0018.09296-.154387.09375-.15625.000787-.0019.0619-.18557.0625-.1875.000604-.0019.06208-.216771.0625-.21875.000416-.002.03103-.18549.03125-.1875.000223-.002-.000029-.216728 0-.21875v-11.28125c.01719.04686.03086.09282.03125.09375.000787.0019.09279.154472.09375.15625.000963.0018.09262.185823.09375.1875.0011.0017.123714.154689.125.15625.0013.0016.12357.15482.125.15625.0014.0014.154689.123714.15625.125.0016.0013.154573.123871.15625.125.0017.0011.185722.09279.1875.09375.0018.000963.154387.09296.15625.09375.0019.000787.18557.0619.1875.0625.0019.000604.216771.06208.21875.0625.002.000416.18549.03103.1875.03125.002.000223.216728-.000029.21875 0h2c.002-.000029.21674.000223.21875 0 .002-.000223.185521-.03083.1875-.03125.002-.000416.21682-.0619.21875-.0625.0019-.000604.185637-.06171.1875-.0625.0019-.000787.154472-.09279.15625-.09375.0018-.000963.185823-.09262.1875-.09375.0017-.0011.154689-.123714.15625-.125.0016-.0013.15482-.12357.15625-.125.0014-.0014.123714-.154689.125-.15625.0013-.0016.123871-.154573.125-.15625.0011-.0017.09279-.185722.09375-.1875.000963-.0018.09296-.154387.09375-.15625.000787-.0019.0619-.18557.0625-.1875.000604-.0019.06208-.216771.0625-.21875.000416-.002.03103-.18549.03125-.1875.000223-.002-.000029-.216728 0-.21875v-12c-.000029-.002.000223-.21674 0-.21875-.000223-.002-.03083-.185521-.03125-.1875-.000416-.002-.0619-.21682-.0625-.21875-.000604-.0019-.06171-.185637-.0625-.1875-.000787-.0019-.09279-.154472-.09375-.15625-.000963-.0018-.09262-.185823-.09375-.1875-.0011-.0017-.123714-.154689-.125-.15625-.0013-.0016-.12357-.15482-.125-.15625-.0014-.0014-.154689-.123714-.15625-.125-.0016-.0013-.154573-.123871-.15625-.125-.0017-.0011-.185722-.09279-.1875-.09375-.0018-.000963-.154387-.09296-.15625-.09375-.0019-.000787-.18557-.0619-.1875-.0625-.0019-.000604-.216771-.062084-.21875-.0625-.002-.0004157-.18549-.031027-.1875-.03125-.002-.0002233-.216728.0000289-.21875 0h-1.90625c-.001061-.0001082-.092685-.0311958-.09375-.03125-.0011-.0000542-.123934 0-.125 0-.0011 0-.09269-.0000542-.09375 0-.0011.0000542-.09269.031142-.09375.03125a1.0151723 1.0151723 0 0 0 -.125 0c-.0017.0003878-.185797.061965-.1875.0625-.0017.000534-.154599.06182-.15625.0625-.0017.000677-.154662.06169-.15625.0625-.0016.000815-.154737.0928-.15625.09375-.0015.000947-.154823.09268-.15625.09375-.0014.0011-.123669.12381-.125.125-.0013.0012-.123775.123702-.125.125-.0012.0013-.12389.123602-.125.125-.0011.0014-.09276.154763-.09375.15625-.000987.0015-.09289.154684-.09375.15625-.000857.0016-.09303.154617-.09375.15625-.000721.0016-.06192.154562-.0625.15625-.00058.0017-.03082.154519-.03125.15625-.01076-.0412-.03099-.09291-.03125-.09375-.000604-.0019-.06171-.185637-.0625-.1875-.000787-.0019-.09279-.154472-.09375-.15625-.000963-.0018-.09262-.185823-.09375-.1875-.0011-.0017-.123714-.154689-.125-.15625-.0013-.0016-.12357-.15482-.125-.15625-.0014-.0014-.154689-.123714-.15625-.125-.0016-.0013-.154573-.123871-.15625-.125-.0017-.0011-.185722-.09279-.1875-.09375-.0018-.000963-.154387-.09296-.15625-.09375-.0019-.000787-.18557-.0619-.1875-.0625-.0019-.000604-.216771-.062084-.21875-.0625-.002-.0004157-.18549-.031027-.1875-.03125-.002-.0002233-.216728.0000289-.21875 0h-1.90625c-.001061-.0001082-.092685-.0311958-.09375-.03125-.0011-.0000542-.123934 0-.125 0-.0011 0-.09269-.0000542-.09375 0-.0011.0000542-.09269.031142-.09375.03125a1.0151723 1.0151723 0 0 0 -.125 0c-.0017.0003878-.185797.061965-.1875.0625-.0017.000534-.154599.06182-.15625.0625-.0017.000677-.154662.06169-.15625.0625-.0016.000815-.154737.0928-.15625.09375-.0015.000947-.154823.09268-.15625.09375-.0014.0011-.123669.12381-.125.125-.0013.0012-.123775.123702-.125.125-.0012.0013-.12389.123602-.125.125-.0011.0014-.09276.154763-.09375.15625-.000987.0015-.09289.154684-.09375.15625-.000857.0016-.09303.154617-.09375.15625-.000721.0016-.06192.154562-.0625.15625-.00058.0017-.03082.154519-.03125.15625-.01076-.0412-.03099-.09291-.03125-.09375-.000604-.0019-.06171-.185637-.0625-.1875-.000787-.0019-.09279-.154472-.09375-.15625-.000963-.0018-.09262-.185823-.09375-.1875-.0011-.0017-.123714-.154689-.125-.15625-.0013-.0016-.12357-.15482-.125-.15625-.0014-.0014-.154689-.123714-.15625-.125-.0016-.0013-.154573-.123871-.15625-.125-.0017-.0011-.185722-.09279-.1875-.09375-.0018-.000963-.154387-.09296-.15625-.09375-.0019-.000787-.18557-.0619-.1875-.0625-.0019-.000604-.216771-.062084-.21875-.0625-.002-.0004157-.18549-.031027-.1875-.03125-.002-.0002233-.216728.0000289-.21875 0h-1.90625c-.001061-.0001082-.092685-.0311958-.09375-.03125-.0011-.0000542-.123934 0-.125 0-.0011 0-.09269-.0000542-.09375 0-.0011.0000542-.09269.031142-.09375.03125a1.0151723 1.0151723 0 0 0 -.125 0c-.0017.0003878-.185797.061965-.1875.0625-.0017.000534-.154599.06182-.15625.0625-.0017.000677-.154662.06169-.15625.0625-.0016.000815-.154737.0928-.15625.09375-.0015.000947-.154823.09268-.15625.09375-.0014.0011-.123669.12381-.125.125-.0013.0012-.123775.123702-.125.125-.0012.0013-.12389.123602-.125.125-.0011.0014-.09276.154763-.09375.15625-.000987.0015-.09289.154684-.09375.15625-.000857.0016-.09303.154617-.09375.15625-.000721.0016-.06192.154562-.0625.15625-.00058.0017-.03082.154519-.03125.15625-.01076-.0412-.03099-.09291-.03125-.09375-.000604-.0019-.06171-.185637-.0625-.1875-.000787-.0019-.09279-.154472-.09375-.15625-.000963-.0018-.09262-.185823-.09375-.1875-.0011-.0017-.123714-.154689-.125-.15625-.0013-.0016-.12357-.15482-.125-.15625-.0014-.0014-.154689-.123714-.15625-.125-.0016-.0013-.154573-.123871-.15625-.125-.0017-.0011-.185722-.09279-.1875-.09375-.0018-.000963-.154387-.09296-.15625-.09375-.0019-.000787-.18557-.0619-.1875-.0625-.0019-.000604-.216771-.062084-.21875-.0625-.002-.0004157-.18549-.031027-.1875-.03125-.002-.0002233-.216728.0000289-.21875 0h-1.90625c-.001061-.0001082-.092685-.0311958-.09375-.03125-.0011-.0000542-.123934 0-.125 0-.0011 0-.09269-.0000542-.09375 0-.0011.0000542-.09269.031142-.09375.03125a1.0151723 1.0151723 0 0 0 -.125 0c-.0017.0003878-.185797.061965-.1875.0625-.0017.000534-.154599.06182-.15625.0625-.0017.000677-.154662.06169-.15625.0625-.0016.000815-.154737.0928-.15625.09375-.0015.000947-.154823.09268-.15625.09375-.0014.0011-.123669.12381-.125.125-.0013.0012-.123775.123702-.125.125-.0012.0013-.12389.123602-.125.125-.0011.0014-.09276.154763-.09375.15625-.000987.0015-.09289.154684-.09375.15625-.000857.0016-.09303.154617-.09375.15625-.000721.0016-.06192.154562-.0625.15625-.00058.0017-.03082.154519-.03125.15625-.01076-.0412-.03099-.09291-.03125-.09375-.000604-.0019-.06171-.185637-.0625-.1875-.000787-.0019-.09279-.154472-.09375-.15625-.000963-.0018-.09262-.185823-.09375-.1875-.0011-.0017-.123714-.154689-.125-.15625-.0013-.0016-.12357-.15482-.125-.15625-.0014-.0014-.154689-.123714-.15625-.125-.0016-.0013-.154573-.123871-.15625-.125-.0017-.0011-.185722-.09279-.1875-.09375-.0018-.000963-.154387-.09296-.15625-.09375-.0019-.000787-.18557-.0619-.1875-.0625-.0019-.000604-.216771-.062084-.21875-.0625-.002-.0004157-.18549-.031027-.1875-.03125-.002-.0002233-.216728.0000289-.21875 0h-1.90625c-.001061-.0001082-.092685-.0311958-.09375-.03125-.0011-.0000542-.123934 0-.125 0-.0011 0-.09269-.0000542-.09375 0-.0011.0000542-.09269.031142-.09375.03125a1.0151723 1.0151723 0 0 0 -.125 0c-.0017.0003878-.185797.061965-.1875.0625-.0017.000534-.154599.06182-.15625.0625-.0017.000677-.154662.06169-.15625.0625-.0016.000815-.154737.0928-.15625.09375-.0015.000947-.154823.09268-.15625.09375-.0014.0011-.123669.12381-.125.125-.0013.0012-.123775.123702-.125.125-.0012.0013-.12389.123602-.125.125-.0011.0014-.09276.154763-.09375.15625-.000987.0015-.09289.154684-.09375.15625-.000857.0016-.09303.154617-.09375.15625-.000721.0016-.06192.154562-.0625.15625-.00058.0017-.03082.154519-.03125.15625-.01076-.0412-.03099-.09291-.03125-.09375-.000604-.0019-.06171-.185637-.0625-.1875-.000787-.0019-.09279-.154472-.09375-.15625-.000963-.0018-.09262-.185823-.09375-.1875-.0011-.0017-.123714-.154689-.125-.15625-.0013-.0016-.12357-.15482-.125-.15625-.0014-.0014-.154689-.123714-.15625-.125-.0016-.0013-.154573-.123871-.15625-.125-.0017-.0011-.185722-.09279-.1875-.09375-.0018-.000963-.154387-.09296-.15625-.09375-.0019-.000787-.18557-.0619-.1875-.0625-.0019-.000604-.216771-.062084-.21875-.0625-.002-.0004157-.18549-.031027-.1875-.03125-.002-.0002233-.216728.0000289-.21875 0h-1.90625c-.001061-.0001082-.092685-.0311958-.09375-.03125-.0011-.0000542-.123934 0-.125 0-.0011 0-.09269-.0000542-.09375 0-.0011.0000542-.09269.031142-.09375.03125a1.0151723 1.0151723 0 0 0 -.125 0c-.0017.0003878-.185797.061965-.1875.0625-.0017.000534-.154599.06182-.15625.0625-.0017.000677-.154662.06169-.15625.0625-.0016.000815-.154737.0928-.15625.09375-.0015.000947-.154823.09268-.15625.09375-.0014.0011-.123669.12381-.125.125-.0013.0012-.123775.123702-.125.125-.0012.0013-.12389.123602-.125.125-.0011.0014-.09276.154763-.09375.15625-.000987.0015-.09289.154684-.09375.15625-.000857.0016-.09303.154617-.09375.15625-.000721.0016-.06192.154562-.0625.15625-.00058.0017-.03082.154519-.03125.15625-.01076-.0412-.03099-.09291-.03125-.09375-.000604-.0019-.06171-.185637-.0625-.1875-.000787-.0019-.09279-.154472-.09375-.15625-.000963-.0018-.09262-.185823-.09375-.1875-.0011-.0017-.123714-.154689-.125-.15625-.0013-.0016-.12357-.15482-.125-.15625-.0014-.0014-.154689-.123714-.15625-.125-.0016-.0013-.154573-.123871-.15625-.125-.0017-.0011-.185722-.09279-.1875-.09375-.0018-.000963-.154387-.09296-.15625-.09375-.0019-.000787-.18557-.0619-.1875-.0625-.0019-.000604-.216771-.062084-.21875-.0625-.002-.0004157-.18549-.031027-.1875-.03125-.002-.0002233-.216728.0000289-.21875 0h-1.90625c-.001061-.0001082-.092685-.0311958-.09375-.03125-.0011-.0000542-.123934 0-.125 0-.0011 0-.09269-.0000542-.09375 0-.0011.0000542-.09269.031142-.09375.03125a1.0151723 1.0151723 0 0 0 -.125 0c-.0017.0003878-.185797.061965-.1875.0625-.0017.000534-.154599.06182-.15625.0625-.0017.000677-.154662.06169-.15625.0625-.0016.000815-.154737.0928-.15625.09375-.0015.000947-.154823.09268-.15625.09375-.0014.0011-.123669.12381-.125.125-.0013.0012-.123775.123702-.125.125-.0012.0013-.12389.123602-.125.125-.0011.0014-.09276.154763-.09375.15625-.000987.0015-.09289.154684-.09375.15625-.000857.0016-.09303.154617-.09375.15625-.000721.0016-.06192.154562-.0625.15625-.00058.0017-.03082.154519-.03125.15625-.01076-.0412-.03099-.09291-.03125-.09375-.000604-.0019-.06171-.185637-.0625-.1875-.000787-.0019-.09279-.154472-.09375-.15625-.000963-.0018-.09262-.185823-.09375-.1875-.0011-.0017-.123714-.154689-.125-.15625-.0013-.0016-.12357-.15482-.125-.15625-.0014-.0014-.154689-.123714-.15625-.125-.0016-.0013-.154573-.123871-.15625-.125-.0017-.0011-.185722-.09279-.1875-.09375-.0018-.000963-.154387-.09296-.15625-.09375-.0019-.000787-.18557-.0619-.1875-.0625-.0019-.000604-.216771-.062084-.21875-.0625-.002-.0004157-.18549-.031027-.1875-.03125-.002-.0002233-.216728.0000289-.21875 0h-1.90625c-.001061-.0001082-.092685-.0311958-.09375-.03125-.0011-.0000542-.123934 0-.125 0-.0011 0-.09269-.0000542-.09375 0-.0011.0000542-.09269.031142-.09375.03125a1.0151723 1.0151723 0 0 0 -.125 0c-.0017.0003878-.185797.061965-.1875.0625-.0017.000534-.154599.06182-.15625.0625-.0017.000677-.154662.06169-.15625.0625-.0016.000815-.154737.0928-.15625.09375-.0015.000947-.154823.09268-.15625.09375-.0014.0011-.123669.12381-.125.125-.0013.0012-.123775.123702-.125.125-.0012.0013-.12389.123602-.125.125-.0011.0014-.09276.154763-.09375.15625-.000987.0015-.09289.154684-.09375.15625-.000857.0016-.09303.154617-.09375.15625-.000721.0016-.06192.154562-.0625.15625-.00058.0017-.03082.154519-.03125.15625-.01076-.0412-.03099-.09291-.03125-.09375-.000604-.0019-.06171-.185637-.0625-.1875-.000787-.0019-.09279-.154472-.09375-.15625-.000963-.0018-.09262-.185823-.09375-.1875-.0011-.0017-.123714-.154689-.125-.15625-.0013-.0016-.12357-.15482-.125-.15625-.0014-.0014-.154689-.123714-.15625-.125-.0016-.0013-.154573-.123871-.15625-.125-.0017-.0011-.185722-.09279-.1875-.09375-.0018-.000963-.154387-.09296-.15625-.09375-.0019-.000787-.18557-.0619-.1875-.0625-.0019-.000604-.216771-.062084-.21875-.0625-.002-.0004157-.18549-.031027-.1875-.03125-.002-.0002233-.216728.0000289-.21875 0h-1.90625c-.001061-.0001082-.092685-.0311958-.09375-.03125-.0011-.0000542-.123934 0-.125 0-.0011 0-.09269-.0000542-.09375 0-.0011.0000542-.09269.031142-.09375.03125a1.0151723 1.0151723 0 0 0 -.125 0c-.0017.0003878-.185797.061965-.1875.0625-.0017.000534-.154599.06182-.15625.0625-.0017.000677-.154662.06169-.15625.0625-.0016.000815-.154737.0928-.15625.09375-.0015.000947-.154823.09268-.15625.09375-.0014.0011-.123669.12381-.125.125-.0013.0012-.123775.123702-.125.125-.0012.0013-.12389.123602-.125.125-.0011.0014-.09276.154763-.09375.15625-.000987.0015-.09289.154684-.09375.15625-.000857.0016-.09303.154617-.09375.15625-.000721.0016-.06192.154562-.0625.15625-.00058.0017-.03082.154519-.03125.15625-.01076-.0412-.03099-.09291-.03125-.09375-.000604-.0019-.06171-.185637-.0625-.1875-.000787-.0019-.09279-.154472-.09375-.15625-.000963-.0018-.09262-.185823-.09375-.1875-.0011-.0017-.123714-.154689-.125-.15625-.0013-.0016-.12357-.15482-.125-.15625-.0014-.0014-.154689-.123714-.15625-.125-.0016-.0013-.154573-.123871-.15625-.125-.0017-.0011-.185722-.09279-.1875-.09375-.0018-.000963-.154387-.09296-.15625-.09375-.0019-.000787-.18557-.0619-.1875-.0625-.0019-.000604-.216771-.062084-.21875-.0625-.002-.0004157-.18549-.031027-.1875-.03125-.002-.0002233-.216728.0000289-.21875 0h-1.90625c-.001061-.0001082-.092685-.0311958-.09375-.03125-.0011-.0000542-.123934 0-.125 0-.0011 0-.09268-.0000542-.09375 0-.0011.0000542-.09269.031142-.09375.03125a1.0151723 1.0151723 0 0 0 -.125 0c-.0017.0003878-.185797.061965-.1875.0625-.0017.000534-.154599.06182-.15625.0625-.0017.000677-.154662.06169-.15625.0625-.0016.000815-.154737.0928-.15625.09375-.0015.000947-.154823.09268-.15625.09375-.0014.0011-.123669.12381-.125.125-.0013.0012-.123775.123702-.125.125-.0012.0013-.12389.123602-.125.125-.0011.0014-.09276.154763-.09375.15625-.000987.0015-.09289.154684-.09375.15625-.000857.0016-.09303.154617-.09375.15625-.000721.0016-.06192.154562-.0625.15625-.00058.0017-.03082.154519-.03125.15625-.01076-.0412-.03099-.09291-.03125-.09375-.000604-.0019-.06171-.185637-.0625-.1875-.000787-.0019-.09279-.154472-.09375-.15625-.000963-.0018-.09262-.185823-.09375-.1875-.0011-.0017-.123714-.154689-.125-.15625-.0013-.0016-.12357-.15482-.125-.15625-.0014-.0014-.154689-.123714-.15625-.125-.0016-.0013-.154573-.123871-.15625-.125-.0017-.0011-.185722-.09279-.1875-.09375-.0018-.000963-.154387-.09296-.15625-.09375-.0019-.000787-.18557-.0619-.1875-.0625-.0019-.000604-.216771-.062084-.21875-.0625-.002-.0004157-.18549-.031027-.1875-.03125-.002-.0002233-.216728.0000289-.21875 0h-1.90625c-.001061-.0001082-.092685-.0311958-.09375-.03125-.0011-.0000542-.123934 0-.125 0-.0011 0-.09268-.0000542-.09375 0-.0011.0000542-.09269.031142-.09375.03125a1.0151723 1.0151723 0 0 0 -.125 0c-.0017.0003878-.185797.061965-.1875.0625-.0017.000534-.154599.06182-.15625.0625-.0017.000677-.154662.06169-.15625.0625-.0016.000815-.154737.0928-.15625.09375-.0015.000947-.154823.09268-.15625.09375-.0014.0011-.123669.12381-.125.125-.0013.0012-.123775.123702-.125.125-.0012.0013-.12389.123602-.125.125-.0011.0014-.09276.154763-.09375.15625-.000987.0015-.09289.154684-.09375.15625-.000857.0016-.09303.154617-.09375.15625-.000721.0016-.06192.154562-.0625.15625-.00058.0017-.03082.154519-.03125.15625-.01076-.0412-.03099-.09291-.03125-.09375-.000604-.0019-.06171-.185637-.0625-.1875-.000787-.0019-.09279-.154472-.09375-.15625-.000963-.0018-.09262-.185823-.09375-.1875-.0011-.0017-.123714-.154689-.125-.15625-.0013-.0016-.12357-.15482-.125-.15625-.0014-.0014-.154689-.123714-.15625-.125-.0016-.0013-.154573-.123871-.15625-.125-.0017-.0011-.185722-.09279-.1875-.09375-.0018-.000963-.154387-.09296-.15625-.09375-.0019-.000787-.18557-.0619-.1875-.0625-.0019-.000604-.216771-.062084-.21875-.0625-.002-.0004157-.18549-.031027-.1875-.03125-.002-.0002233-.216728.0000289-.21875 0h-1.90625c-.001061-.0001082-.092685-.0311958-.09375-.03125-.0011-.0000542-.123934 0-.125 0-.0011 0-.09268-.0000542-.09375 0zm59.875 28.59375c-.0011.000054-.09269.03114-.09375.03125a1.0151723 1.0151723 0 0 0 -.09375 0l-3.6875.71875a1.0151723 1.0151723 0 0 0 -.03125 0c-.0017.000388-.185797.06197-.1875.0625-.0017.000534-.154599.06182-.15625.0625-.0017.000677-.154662.06168-.15625.0625-.0016.000815-.154737.0928-.15625.09375-.0015.000947-.154823.09268-.15625.09375-.0014.0011-.123669.12381-.125.125-.0013.0012-.123775.123702-.125.125-.0012.0013-.12389.123602-.125.125-.0011.0014-.09276.154763-.09375.15625-.000987.0015-.09289.154684-.09375.15625-.000857.0016-.09303.154617-.09375.15625-.000721.0016-.06192.154562-.0625.15625-.00058.0017-.03082.154519-.03125.15625-.000434.0017-.06221.185738-.0625.1875-.000286.0018.000135.18572 0 .1875-.000135.0018-.000017.154465 0 .15625v1.90625c-.000004.0012-.00006.123845 0 .125.00006.0012-.000123.0926 0 .09375.000123.0012-.000186.123859 0 .125.000186.0011.031.123871.03125.125.000249.0011.03094.09264.03125.09375.000311.0011.03088.123905.03125.125.000372.0011.03082.09268.03125.09375.000431.0011.06201.0927.0625.09375.00049.001.0307.123981.03125.125.000547.001.0619.09276.0625.09375.000602.000987.06184.0928.0625.09375.000656.000953.06179.09284.0625.09375.000707.000915.09299.09287.09375.09375.000757.000875.0617.09292.0625.09375.000804.000832.0929.06171.09375.0625.000848.000786.09286.09301.09375.09375.00089.000738.09282.06181.09375.0625.00093.000688.09278.06186.09375.0625.000966.000636.09275.06192.09375.0625.001.000582.09272.06197.09375.0625.001.000526.09269.03078.09375.03125.0011.000468.123918.06209.125.0625.0011.000409.09265.0309.09375.03125.0011.000349.12388.03096.125.03125.0011.000288.09262.03102.09375.03125.0011.000225.123855-.000163.125 0 .0011.000163.123848.03115.125.03125.0012.000099.09259-.000036.09375 0 .0012.000036.123844.000028.125 0 .0012-.000028.123847.000092.125 0 .0012-.000092.0926-.0311.09375-.03125.0011-.000155.123864.000218.125 0a1.0151723 1.0151723 0 0 0 .03125 0l1.21875-.25v7.15625h-1.34375c-.002.000029-.21674-.000223-.21875 0-.002.000223-.185521.03083-.1875.03125-.002.000416-.21682.0619-.21875.0625-.0019.000604-.185637.06171-.1875.0625-.0019.000787-.154472.09279-.15625.09375-.0018.000963-.185823.09262-.1875.09375-.0017.0011-.154689.123714-.15625.125-.0016.0013-.15482.12357-.15625.125-.0014.0014-.123714.154689-.125.15625-.0013.0016-.123871.154573-.125.15625-.0011.0017-.09279.185722-.09375.1875-.000963.0018-.09296.154387-.09375.15625-.000787.0019-.0619.18557-.0625.1875-.000604.0019-.06208.216771-.0625.21875-.000416.002-.03103.18549-.03125.1875-.000223.002.000029.216728 0 .21875v1.75c.000029.002-.000223.21674 0 .21875.000223.002.03083.185521.03125.1875.000416.002.0619.21682.0625.21875.000604.0019.06171.185637.0625.1875.000787.0019.09279.154472.09375.15625.000963.0018.09262.185823.09375.1875.0011.0017.123714.154689.125.15625.0013.0016.12357.15482.125.15625.0014.0014.154689.123714.15625.125.0016.0013.154573.123871.15625.125.0017.0011.185722.09279.1875.09375.0018.000963.154387.09296.15625.09375.0019.000787.18557.0619.1875.0625.0019.000604.216771.06208.21875.0625.002.000416.18549.03103.1875.03125.002.000223.216728-.000029.21875 0h8.875c.002-.000029.21674.000223.21875 0 .002-.000223.185521-.03083.1875-.03125.002-.000416.21682-.0619.21875-.0625.0019-.000604.185637-.06171.1875-.0625.0019-.000787.154472-.09279.15625-.09375.0018-.000963.185823-.09262.1875-.09375.0017-.0011.154689-.123714.15625-.125.0016-.0013.15482-.12357.15625-.125.0014-.0014.123714-.154689.125-.15625.0013-.0016.123871-.154573.125-.15625.0011-.0017.09279-.185722.09375-.1875.000963-.0018.09296-.154387.09375-.15625.000787-.0019.0619-.18557.0625-.1875.000604-.0019.06208-.216771.0625-.21875.000416-.002.03103-.18549.03125-.1875.000223-.002-.000029-.216728 0-.21875v-1.75c-.000029-.002.000223-.21674 0-.21875-.000223-.002-.03083-.185521-.03125-.1875-.000416-.002-.0619-.21682-.0625-.21875-.000604-.0019-.06171-.185637-.0625-.1875-.000787-.0019-.09279-.154472-.09375-.15625-.000963-.0018-.09262-.185823-.09375-.1875-.0011-.0017-.123714-.154689-.125-.15625-.0013-.0016-.12357-.15482-.125-.15625-.0014-.0014-.154689-.123714-.15625-.125-.0016-.0013-.154573-.123871-.15625-.125-.0017-.0011-.185722-.09279-.1875-.09375-.0018-.000963-.154387-.09296-.15625-.09375-.0019-.000787-.18557-.0619-.1875-.0625-.0019-.000604-.216771-.06208-.21875-.0625-.002-.000416-.18549-.03103-.1875-.03125-.002-.000223-.216728.000029-.21875 0h-1.34375v-11.59375c-.000029-.002.000223-.21674 0-.21875-.000223-.002-.03083-.185521-.03125-.1875-.000416-.002-.0619-.21682-.0625-.21875-.000604-.0019-.06171-.185637-.0625-.1875-.000787-.0019-.09279-.154472-.09375-.15625-.000963-.0018-.09262-.185823-.09375-.1875-.0011-.0017-.123714-.154689-.125-.15625-.0013-.0016-.12357-.15482-.125-.15625-.0014-.0014-.154689-.123714-.15625-.125-.0016-.0013-.154573-.123871-.15625-.125-.0017-.0011-.185722-.09279-.1875-.09375-.0018-.000963-.154387-.09296-.15625-.09375-.0019-.000787-.18557-.0619-.1875-.0625-.0019-.000604-.216771-.06208-.21875-.0625-.002-.000416-.18549-.03103-.1875-.03125-.002-.000223-.216728.000029-.21875 0h-2c-.0011-.000108-.09269-.0312-.09375-.03125-.0011-.000054-.123934 0-.125 0-.0011 0-.09269-.000054-.09375 0zm-58.9375 5.21875c.253925.000003.265688.0516.28125.0625.01556.0109.11317.10566.28125.4375.27719.536851.624991 1.85442.625 3.78125-.000009 1.918817-.352314 3.280927-.625 3.8125-.166107.325821-.274206.432727-.28125.4375-.007.0048-.0084.03125-.28125.03125-.275738 0-.256746-.03593-.25-.03125.0067.0047-.10275-.09179-.28125-.4375-.276474-.545853-.625003-1.896825-.625-3.8125-.000003-1.923696.344112-3.230275.625-3.78125.180368-.351603.278769-.46697.28125-.46875.0025-.0018-.0067-.03125.25-.03125z" fill="#fefefe" opacity=".05"/><path d="m15.78125 10.9375a1.0780094 1.0780094 0 0 0 -.84375 1.0625v24a1.0780094 1.0780094 0 0 0 1.0625 1.0625h2a1.0780094 1.0780094 0 0 0 1.0625-1.0625v-24a1.0780094 1.0780094 0 0 0 -1.0625-1.0625h-2a1.0780094 1.0780094 0 0 0 -.21875 0zm6 0a1.0780094 1.0780094 0 0 0 -.84375 1.0625v12a1.0780094 1.0780094 0 0 0 1.0625 1.0625h2a1.0780094 1.0780094 0 0 0 1.0625-1.0625v-12a1.0780094 1.0780094 0 0 0 -1.0625-1.0625h-2a1.0780094 1.0780094 0 0 0 -.21875 0zm6 0a1.0780094 1.0780094 0 0 0 -.84375 1.0625v12a1.0780094 1.0780094 0 0 0 1.0625 1.0625h2a1.0780094 1.0780094 0 0 0 1.0625-1.0625v-12a1.0780094 1.0780094 0 0 0 -1.0625-1.0625h-2a1.0780094 1.0780094 0 0 0 -.21875 0zm6 0a1.0780094 1.0780094 0 0 0 -.84375 1.0625v12a1.0780094 1.0780094 0 0 0 1.0625 1.0625h2a1.0780094 1.0780094 0 0 0 1.0625-1.0625v-12a1.0780094 1.0780094 0 0 0 -1.0625-1.0625h-2a1.0780094 1.0780094 0 0 0 -.21875 0zm6 0a1.0780094 1.0780094 0 0 0 -.84375 1.0625v12a1.0780094 1.0780094 0 0 0 1.0625 1.0625h2a1.0780094 1.0780094 0 0 0 1.0625-1.0625v-12a1.0780094 1.0780094 0 0 0 -1.0625-1.0625h-2a1.0780094 1.0780094 0 0 0 -.21875 0zm6 0a1.0780094 1.0780094 0 0 0 -.84375 1.0625v18a1.0780094 1.0780094 0 0 0 1.0625 1.0625h2a1.0780094 1.0780094 0 0 0 1.0625-1.0625v-18a1.0780094 1.0780094 0 0 0 -1.0625-1.0625h-2a1.0780094 1.0780094 0 0 0 -.21875 0zm6 0a1.0780094 1.0780094 0 0 0 -.84375 1.0625v12a1.0780094 1.0780094 0 0 0 1.0625 1.0625h2a1.0780094 1.0780094 0 0 0 1.0625-1.0625v-12a1.0780094 1.0780094 0 0 0 -1.0625-1.0625h-2a1.0780094 1.0780094 0 0 0 -.21875 0zm6 0a1.0780094 1.0780094 0 0 0 -.84375 1.0625v12a1.0780094 1.0780094 0 0 0 1.0625 1.0625h2a1.0780094 1.0780094 0 0 0 1.0625-1.0625v-12a1.0780094 1.0780094 0 0 0 -1.0625-1.0625h-2a1.0780094 1.0780094 0 0 0 -.21875 0zm6 0a1.0780094 1.0780094 0 0 0 -.84375 1.0625v12a1.0780094 1.0780094 0 0 0 1.0625 1.0625h2a1.0780094 1.0780094 0 0 0 1.0625-1.0625v-12a1.0780094 1.0780094 0 0 0 -1.0625-1.0625h-2a1.0780094 1.0780094 0 0 0 -.21875 0zm6 0a1.0780094 1.0780094 0 0 0 -.84375 1.0625v12a1.0780094 1.0780094 0 0 0 1.0625 1.0625h2a1.0780094 1.0780094 0 0 0 1.0625-1.0625v-12a1.0780094 1.0780094 0 0 0 -1.0625-1.0625h-2a1.0780094 1.0780094 0 0 0 -.21875 0zm6 0a1.0780094 1.0780094 0 0 0 -.84375 1.0625v24a1.0780094 1.0780094 0 0 0 1.0625 1.0625h2a1.0780094 1.0780094 0 0 0 1.0625-1.0625v-24a1.0780094 1.0780094 0 0 0 -1.0625-1.0625h-2a1.0780094 1.0780094 0 0 0 -.21875 0zm6 0a1.0780094 1.0780094 0 0 0 -.84375 1.0625v12a1.0780094 1.0780094 0 0 0 1.0625 1.0625h2a1.0780094 1.0780094 0 0 0 1.0625-1.0625v-12a1.0780094 1.0780094 0 0 0 -1.0625-1.0625h-2a1.0780094 1.0780094 0 0 0 -.21875 0zm-65.0625 28c-2.016192.000019-3.785548.901179-4.875 2.53125-1.086934 1.630411-1.500001 3.808262-1.5 6.53125-.000001 2.716435.411184 4.921034 1.5 6.5625 1.093231 1.627523 2.868932 2.5 4.875 2.5 2.006056 0 3.786663-.867512 4.875-2.5 1.092911-1.635274 1.531237-3.839324 1.53125-6.5625-.000013-2.729711-.440268-4.907048-1.53125-6.53125-1.084562-1.635024-2.85882-2.531231-4.875-2.53125zm58.9375.59375-3.6875.71875a1.0780094 1.0780094 0 0 0 -.84375 1.0625v1.90625a1.0780094 1.0780094 0 0 0 1.28125 1.0625l2.4375-.5v9.40625h-2.34375a1.0780094 1.0780094 0 0 0 -1.0625 1.0625v1.75a1.0780094 1.0780094 0 0 0 1.0625 1.0625h8.875a1.0780094 1.0780094 0 0 0 1.0625-1.0625v-1.75a1.0780094 1.0780094 0 0 0 -1.0625-1.0625h-2.34375v-12.59375a1.0780094 1.0780094 0 0 0 -1.0625-1.0625h-2.09375a1.0780094 1.0780094 0 0 0 -.21875 0zm-58.9375 3.1875c.726665.000009 1.065433.23498 1.46875 1.03125.409364.792841.71874 2.220038.71875 4.25-.00001 2.022796-.310826 3.486044-.71875 4.28125-.399487.783598-.725898 1.000001-1.46875 1-.733815.000001-1.023258-.197724-1.4375-1-.405925-.801433-.718753-2.260798-.71875-4.28125-.000003-2.027626.311399-3.450962.71875-4.25.418038-.814906.719976-1.031241 1.4375-1.03125z" fill="#fefefe" opacity=".2"/><path d="m16 12v24h2v-24zm6 0v12h2v-12zm6 0v12h2v-12zm6 0v12h2v-12zm6 0v12h2v-12zm6 0v18h2v-18zm6 0v12h2v-12zm6 0v12h2v-12zm6 0v12h2v-12zm6 0v12h2v-12zm6 0v24h2v-24zm6 0v12h2v-12z" fill="url(#k)"/><path d="m16.729891 41.652679c-1.074247.000014-1.883371.530249-2.427373 1.590704-.537124 1.053594-.805684 2.640853-.805681 4.761782-.000003 2.114058.268557 3.701317.805681 4.761782.544002 1.053585 1.353126 1.580375 2.427373 1.580374 1.08112.000001 1.890243-.526789 2.427372-1.580374.543997-1.060465.816001-2.647724.816011-4.761782-.00001-2.120929-.272014-3.708188-.816011-4.761782-.537129-1.060455-1.346252-1.59069-2.427372-1.590704m0-1.652679c1.728418.000016 3.047117.685189 3.9561 2.05552.915849 1.363473 1.373778 3.346686 1.37379 5.949645-.000012 2.596088-.457941 4.579301-1.37379 5.949645-.908983 1.36346-2.227682 2.04519-3.9561 2.04519-1.728432 0-3.050574-.68173-3.96643-2.04519-.908976-1.370344-1.363462-3.353557-1.363461-5.949645-.000001-2.602959.454485-4.586172 1.363461-5.949645.915856-1.370331 2.237998-2.055504 3.96643-2.05552" fill="#665400"/><path d="m72.499548 54.244029h3.40865v-11.76501l-3.708198.743706v-1.900581l3.68754-.743706h2.086507v13.665591h3.408651v1.755971h-8.88315z" fill="#665400"/></svg>