<svg enable-background="new" height="96" width="96" xmlns="http://www.w3.org/2000/svg" xmlns:xlink="http://www.w3.org/1999/xlink"><linearGradient id="a"><stop offset="0" stop-color="#fefefe"/><stop offset="1" stop-color="#fefefe" stop-opacity="0"/></linearGradient><linearGradient id="b" gradientUnits="userSpaceOnUse" x1="36.357143" x2="36.357143" xlink:href="#a" y1="6" y2="63.893143"/><linearGradient id="c" gradientUnits="userSpaceOnUse" x1="43.03676446513" x2="43.03676446513" y1="11.9705884" y2="84.33264926334"><stop offset="0" stop-color="#919191"/><stop offset="1" stop-color="#fdfdfd"/></linearGradient><linearGradient id="d" gradientUnits="userSpaceOnUse" x1="48" x2="48" y1="90" y2="5.987717"><stop offset="0" stop-color="#b4b4b4"/><stop offset="1" stop-color="#e6e6e6"/></linearGradient><radialGradient id="e" cx="48" cy="90.171875" gradientTransform="matrix(1.1573129 0 0 .99590774 -7.551021 .197132)" gradientUnits="userSpaceOnUse" r="42" xlink:href="#a"/><clipPath id="f"><rect height="84" rx="6" width="84" x="6" y="6"/></clipPath><filter id="g" color-interpolation-filters="sRGB" height="1.384" width="1.384" x="-.192" y="-.192"><feGaussianBlur stdDeviation="5.28"/></filter><linearGradient id="h" gradientUnits="userSpaceOnUse" x1="48" x2="48" xlink:href="#a" y1="20.220806" y2="138.66119"/><linearGradient id="i" gradientTransform="matrix(1.0058652 0 0 .994169 100 0)" gradientUnits="userSpaceOnUse" x1="45.447727" x2="45.447727" y1="92.539597" y2="7.01654"><stop offset="0"/><stop offset="1" stop-opacity=".588235"/></linearGradient><linearGradient id="j" gradientTransform="matrix(1.0238095 0 0 1.0119048 -1.142857 -98.071429)" gradientUnits="userSpaceOnUse" x1="32.251034" x2="32.251034" xlink:href="#i" y1="6.131708" y2="90.238609"/><linearGradient id="k" gradientTransform="translate(0 -97)" gradientUnits="userSpaceOnUse" x1="32.251034" x2="32.251034" xlink:href="#i" y1="6.131708" y2="90.238609"/><linearGradient id="l"><stop offset="0" stop-color="#edd400"/><stop offset="1" stop-color="#edd400"/></linearGradient><radialGradient id="m" cx="56.065952" cy="-15.871236" gradientTransform="matrix(-.00226162 -1.2345585 1.3856367 0 70.085959 140.26707)" gradientUnits="userSpaceOnUse" r="35.9375"><stop offset="0" stop-color="#1863c6"/><stop offset="1" stop-color="#799ee1"/></radialGradient><linearGradient id="n" gradientUnits="userSpaceOnUse" x1="58.21467408464" x2="64.3380768" xlink:href="#a" y1="45.02118030902" y2="63.43347138974"/><linearGradient id="o" gradientTransform="matrix(2.5869186 0 0 2.6993933 2.766102 7.994588)" gradientUnits="userSpaceOnUse" x1="15.75" x2="15.75" xlink:href="#l" y1="11.070312" y2="14.625"/><linearGradient id="p" gradientTransform="matrix(2.5869187 0 0 2.6993933 -9.043739 2.089665)" gradientUnits="userSpaceOnUse" x1="15.75" x2="15.75" xlink:href="#l" y1="11.070312" y2="14.625"/><g><g fill="url(#j)"><path d="m12-95.03125c-5.5110903 0-10.03125 4.52016-10.03125 10.03125v71c0 5.5110902 4.5201598 10.03125 10.03125 10.03125h72c5.51109 0 10.03125-4.5201597 10.03125-10.03125v-71c0-5.51109-4.52016-10.03125-10.03125-10.03125z" opacity=".08" transform="scale(1 -1)"/><path d="m12-94.03125c-4.971633 0-9.03125 4.059617-9.03125 9.03125v71c0 4.9716329 4.0596171 9.03125 9.03125 9.03125h72c4.971633 0 9.03125-4.059617 9.03125-9.03125v-71c0-4.971633-4.059617-9.03125-9.03125-9.03125z" opacity=".1" transform="scale(1 -1)"/><path d="m12-93c-4.4091333 0-8 3.590867-8 8v71c0 4.4091333 3.5908667 8 8 8h72c4.409133 0 8-3.5908667 8-8v-71c0-4.409133-3.590867-8-8-8z" opacity=".2" transform="scale(1 -1)"/><rect height="85" opacity=".3" rx="7" transform="scale(1 -1)" width="86" x="5" y="-92"/></g><rect fill="url(#k)" height="84" opacity=".45" rx="6" transform="scale(1 -1)" width="84" x="6" y="-91"/></g><path d="m83.937467 83.874916v-71.867628h-71.937445v71.867628z" fill="url(#m)"/><rect fill="#fefefe" height="10" opacity=".238683" rx="3.029083" ry="2.382979" width="72.535713" x="11.785715" y="74"/><path d="m19 13c-3.289406 0-6 2.710594-6 6v58c0 3.289406 2.710594 6 6 6h58c3.289406 0 6-2.710594 6-6v-58c0-3.289406-2.710594-6-6-6zm0 4h58c1.142594 0 2 .857406 2 2v58c0 1.142594-.857406 2-2 2h-58c-1.142594 0-2-.857406-2-2v-58c0-1.142594.857406-2 2-2z" opacity=".08"/><path d="m17 14c-1.662 0-3 1.338-3 3v62c0 1.662 1.338 3 3 3h62c1.662 0 3-1.338 3-3v-62c0-1.662-1.338-3-3-3zm0 1.9375h62c.618163 0 1.0625.444337 1.0625 1.0625v62c0 .618163-.444337 1.0625-1.0625 1.0625h-62c-.618163 0-1.0625-.444337-1.0625-1.0625v-62c0-.618163.444337-1.0625 1.0625-1.0625z" opacity=".1"/><path d="m17 14c-1.662 0-3 1.338-3 3v62c0 1.662 1.338 3 3 3h62c1.662 0 3-1.338 3-3v-62c0-1.662-1.338-3-3-3zm0 .96875h62c1.140081 0 2.03125.891169 2.03125 2.03125v62c0 1.140081-.891169 2.03125-2.03125 2.03125h-62c-1.140081 0-2.03125-.891169-2.03125-2.03125v-62c0-1.140081.891169-2.03125 2.03125-2.03125z" opacity=".25"/><g fill-rule="evenodd"><path d="m26.385799 28.872709 13.25796 1.687119.323362 14.50924-13.257957.337425z" fill-opacity=".262799"/><path d="m24.909568 27.396478 13.25796 1.687119.323363 14.509241-13.257958.337425z" fill="url(#p)" stroke="#c4a000" stroke-width="1.180985"/><path d="m20.240931 11.67068a.4861359.53033006 0 1 1 -.972272 0 .4861359.53033006 0 1 1 .972272 0z" fill="#c00" transform="matrix(5.2651872 0 0 5.2651872 -72.271532 -31.27655)"/><path d="m20.240931 11.67068a.4861359.53033006 0 1 1 -.972272 0 .4861359.53033006 0 1 1 .972272 0z" fill="#ef2929" transform="matrix(3.9878575 0 0 3.5088587 -46.882908 -11.322343)"/><path d="m38.19564 34.777631 13.257961 1.68712.323363 14.509239-13.257958.337426z" fill-opacity=".262799"/><path d="m36.719409 33.301401 13.257961 1.687119.323362 14.509241-13.257957.337424z" fill="url(#o)" stroke="#c4a000" stroke-width="1.180985"/><path d="m20.240931 11.67068a.4861359.53033006 0 1 1 -.972272 0 .4861359.53033006 0 1 1 .972272 0z" fill="#c00" transform="matrix(4.9498156 0 0 4.9498156 -54.231581 -21.691026)"/><path d="m20.240931 11.67068a.4861359.53033006 0 1 1 -.972272 0 .4861359.53033006 0 1 1 .972272 0z" fill="#ef2929" transform="matrix(3.7489948 0 0 3.2986867 -30.50963 -3.102289)"/><path d="m28.697789 19.144962a2.4766586 2.5552826 0 1 1 -4.953317 0 2.4766586 2.5552826 0 1 1 4.953317 0z" fill-opacity=".242321" transform="matrix(3.9428052 0 0 4.123834 -36.382654 -18.917996)"/><path d="m28.697789 19.144962a2.4766586 2.5552826 0 1 1 -4.953317 0 2.4766586 2.5552826 0 1 1 4.953317 0z" fill="#d3d7cf" stroke="#888a85" stroke-width=".401248" transform="matrix(3.9428052 0 0 4.123834 -37.899478 -20.434826)"/></g><path d="m65.14705 52.87386v6.96112l6.572931-.8938" fill="none" stroke="#555753" stroke-linecap="round" stroke-width="1.617952"/><path d="m65.14705 49.005942c-4.92825 0-8.898741 3.934521-8.898735 8.83027 0 1.398784.343167 2.759352.924542 3.936384 3.411709-4.894835 8.927891-8.25317 15.254978-9.043046-1.619992-2.248756-4.286878-3.723608-7.280785-3.723608z" fill="url(#n)" fill-rule="evenodd" opacity=".528428"/><g><path d="m12 6c-3.324 0-6 2.676-6 6v72c0 3.324 2.676 6 6 6h72c3.324 0 6-2.676 6-6v-72c0-3.324-2.676-6-6-6zm5 8h1 60 1c1.683774 0 3 1.316227 3 3v1 60 1c.000001 1.683774-1.316227 3-3 3h-1-60-1c-1.683771.000001-3-1.316227-3-3v-1-60-1c0-1.683772 1.316227-3 3-3z" fill="url(#d)"/><path d="m12 6c-3.324 0-6 2.676-6 6v2 68 2c0 .334721.04135.6507.09375.96875.0487.295596.09704.596915.1875.875.00988.03038.020892.0636.03125.09375.098865.287771.2348802.547452.375.8125.1445918.273507.3156161.535615.5.78125s.3737765.473472.59375.6875c.439947.428056.94291.814526 1.5 1.09375.278545.139612.5734731.246947.875.34375-.2562018-.100222-.4867109-.236272-.71875-.375-.00741-.0044-.023866.0045-.03125 0-.031933-.0193-.062293-.04251-.09375-.0625-.120395-.0767-.2310226-.163513-.34375-.25-.1061728-.0808-.2132809-.161112-.3125-.25-.1779299-.161433-.3474596-.345388-.5-.53125-.1075789-.130255-.2183939-.265285-.3125-.40625-.025089-.03838-.038446-.08587-.0625-.125-.064763-.103032-.1302275-.204517-.1875-.3125-.1010083-.194706-.2056748-.415701-.28125-.625-.00796-.02181-.023589-.04055-.03125-.0625-.0318251-.09195-.0358045-.186831-.0625-.28125-.0303323-.106618-.0703894-.203031-.09375-.3125-.0728786-.341512-.125-.698205-.125-1.0625v-2-68-2c0-2.781848 2.2181517-5 5-5h2 68 2c2.781848 0 5 2.218152 5 5v2 68 2c0 .364295-.05212.720988-.125 1.0625-.04415.206893-.08838.397658-.15625.59375-.0077.02195-.0233.04069-.03125.0625-.06274.173739-.138383.367449-.21875.53125-.04158.0828-.07904.169954-.125.25-.0546.09721-.126774.18835-.1875.28125-.09411.140965-.204921.275995-.3125.40625-.143174.17445-.303141.346998-.46875.5-.01117.0102-.01998.02115-.03125.03125-.138386.125556-.285091.234436-.4375.34375-.102571.07315-.204318.153364-.3125.21875-.0074.0045-.02384-.0044-.03125 0-.232039.138728-.462548.274778-.71875.375.301527-.0968.596455-.204138.875-.34375.55709-.279224 1.060053-.665694 1.5-1.09375.219973-.214028.409366-.441865.59375-.6875s.355408-.507743.5-.78125c.14012-.265048.276135-.524729.375-.8125.01041-.03078.02133-.06274.03125-.09375.09046-.278085.1388-.579404.1875-.875.0524-.31805.09375-.634029.09375-.96875v-2-68-2c0-3.324-2.676-6-6-6z" fill="url(#b)" opacity=".7"/><rect height="70" rx="4" style="fill:none;stroke-width:2;stroke-linecap:square;stroke-linejoin:round;stroke-opacity:.696581;stroke:url(#c)" width="70" x="13.000001" y="13.000001"/><path d="m12 90c-3.324 0-6-2.676-6-6v-2-68-2c0-.334721.04135-.6507.09375-.96875.0487-.295596.09704-.596915.1875-.875.00988-.03038.020892-.0636.03125-.09375.098865-.287771.2348802-.547452.375-.8125.1445918-.273507.3156161-.535615.5-.78125s.3737765-.473472.59375-.6875c.439947-.428056.94291-.814526 1.5-1.09375.278545-.139612.5734731-.246947.875-.34375-.2562018.100222-.4867109.236272-.71875.375-.00741.0044-.023866-.0045-.03125 0-.031933.0193-.062293.04251-.09375.0625-.120395.0767-.2310226.163513-.34375.25-.1061728.0808-.2132809.161112-.3125.25-.1779299.161433-.3474596.345388-.5.53125-.1075789.130255-.2183939.265285-.3125.40625-.025089.03838-.038446.08587-.0625.125-.064763.103032-.1302275.204517-.1875.3125-.1010083.194706-.2056748.415701-.28125.625-.00796.02181-.023589.04055-.03125.0625-.0318251.09195-.0358045.186831-.0625.28125-.0303323.106618-.0703894.203031-.09375.3125-.0728786.341512-.125.698205-.125 1.0625v2 68 2c0 2.781848 2.2181517 5 5 5h2 68 2c2.781848 0 5-2.218152 5-5v-2-68-2c0-.364295-.05212-.720988-.125-1.0625-.04415-.206893-.08838-.397658-.15625-.59375-.0077-.02195-.0233-.04069-.03125-.0625-.06274-.173739-.138383-.367449-.21875-.53125-.04158-.0828-.07904-.169954-.125-.25-.0546-.09721-.126774-.18835-.1875-.28125-.09411-.140965-.204921-.275995-.3125-.40625-.143174-.17445-.303141-.346998-.46875-.5-.01117-.0102-.01998-.02115-.03125-.03125-.138386-.125556-.285091-.234436-.4375-.34375-.102571-.07315-.204318-.153364-.3125-.21875-.0074-.0045-.02384.0044-.03125 0-.232039-.138728-.462548-.274778-.71875-.375.301527.0968.596455.204138.875.34375.55709.279224 1.060053.665694 1.5 1.09375.219973.214028.409366.441865.59375.6875s.355408.507743.5.78125c.14012.265048.276135.524729.375.8125.01041.03078.02133.06274.03125.09375.09046.278085.1388.579404.1875.875.0524.31805.09375.634029.09375.96875v2 68 2c0 3.324-2.676 6-6 6z" fill="url(#e)" opacity=".4"/><rect height="66" rx="12" style="opacity:.1;stroke:#fefefe;stroke-width:.5;stroke-linecap:round;clip-path:url(#f);fill:url(#h);filter:url(#g)" width="66" x="15" y="15"/></g><path d="m14.890625 8.7395363c-3.24243 0-5.84375 2.7674997-5.84375 6.1874997v49.0625c18.82405-13.858898 45.81166-23.793657 77.90625-21.78125v-27.28125c0-3.420001-2.63257-6.1874997-5.875-6.1874997z" fill="#d9c6ed" opacity=".238683"/><path d="m46.375 54.71875a.71875.71875 0 1 1 -1.4375 0 .71875.71875 0 1 1 1.4375 0z" fill-opacity=".255973" fill-rule="evenodd" transform="matrix(2.6817103 0 0 2.7681985 -90.159891 -84.664973)"/><path d="m46.375 54.71875a.71875.71875 0 1 1 -1.4375 0 .71875.71875 0 1 1 1.4375 0z" fill="#888a85" fill-rule="evenodd" stroke="#555753" stroke-width=".353567" transform="matrix(2.6817103 0 0 2.7681985 -90.639471 -85.663244)"/><path d="m46.375 54.71875a.71875.71875 0 1 1 -1.4375 0 .71875.71875 0 1 1 1.4375 0z" fill-opacity=".255973" fill-rule="evenodd" transform="matrix(2.6817103 0 0 2.7681985 -84.318851 -84.664973)"/><path d="m46.375 54.71875a.71875.71875 0 1 1 -1.4375 0 .71875.71875 0 1 1 1.4375 0z" fill="#888a85" fill-rule="evenodd" stroke="#555753" stroke-width=".353567" transform="matrix(2.6817103 0 0 2.7681985 -84.770491 -85.663244)"/><path d="m46.375 54.71875a.71875.71875 0 1 1 -1.4375 0 .71875.71875 0 1 1 1.4375 0z" fill-opacity=".255973" fill-rule="evenodd" transform="matrix(2.6817103 0 0 2.7681985 -78.467361 -84.664973)"/><path d="m46.375 54.71875a.71875.71875 0 1 1 -1.4375 0 .71875.71875 0 1 1 1.4375 0z" fill="#888a85" fill-rule="evenodd" stroke="#555753" stroke-width=".353567" transform="matrix(2.6817103 0 0 2.7681985 -78.918991 -85.663244)"/><path d="m46.375 54.71875a.71875.71875 0 1 1 -1.4375 0 .71875.71875 0 1 1 1.4375 0z" fill-opacity=".255973" fill-rule="evenodd" transform="matrix(2.6817103 0 0 2.7681985 -72.381071 -84.664973)"/><path d="m46.375 54.71875a.71875.71875 0 1 1 -1.4375 0 .71875.71875 0 1 1 1.4375 0z" fill="#888a85" fill-rule="evenodd" stroke="#555753" stroke-width=".353567" transform="matrix(2.6817103 0 0 2.7681985 -72.832711 -85.663244)"/><path d="m21.01731 64.743771 7.24586-.148169-.139605 5.346259-7.266503.07217z" fill-opacity=".249147" fill-rule="evenodd"/><path d="m20.447678 63.125553 6.430174-.03185-.139332 5.346259-6.451101.07243z" fill="#73d216" fill-rule="evenodd" stroke="#4e9a06" stroke-linecap="round" stroke-width="1.290936"/></svg>