<svg height="96" width="96" xmlns="http://www.w3.org/2000/svg" xmlns:xlink="http://www.w3.org/1999/xlink"><linearGradient id="a"><stop offset="0" stop-color="#fefefe"/><stop offset="1" stop-color="#fefefe" stop-opacity="0"/></linearGradient><linearGradient id="b"><stop offset="0" stop-color="#3767a3"/><stop offset="1" stop-color="#6593c6"/></linearGradient><linearGradient id="c" gradientUnits="userSpaceOnUse" x1="36.357143" x2="36.357143" xlink:href="#a" y1="6" y2="63.893143"/><filter id="d" color-interpolation-filters="sRGB" height="1.384" width="1.384" x="-.192" y="-.192"><feGaussianBlur stdDeviation="5.28"/></filter><linearGradient id="e" gradientUnits="userSpaceOnUse" x1="48" x2="48" xlink:href="#a" y1="20.220806" y2="138.66119"/><radialGradient id="f" cx="48" cy="90.171875" gradientTransform="matrix(1.1573129 0 0 .99590774 -7.551021 .197132)" gradientUnits="userSpaceOnUse" r="42" xlink:href="#a"/><clipPath id="g"><rect height="84" rx="6" width="84" x="6" y="6"/></clipPath><linearGradient id="h" gradientUnits="userSpaceOnUse" x1="48" x2="48" xlink:href="#b" y1="90" y2="5.987717"/><linearGradient id="i"><stop offset="0"/><stop offset="1" stop-opacity="0"/></linearGradient><linearGradient id="j" gradientTransform="matrix(.72549189 -.19431313 .19481343 .72674756 26.254071 18.267752)" gradientUnits="userSpaceOnUse" x1="24.248737" x2="13.405647" y1="77.502068" y2="67.6745"><stop offset="0" stop-color="#c38125"/><stop offset=".62962961" stop-color="#c68d31"/><stop offset="1" stop-color="#fffce6"/></linearGradient><linearGradient id="k" gradientUnits="userSpaceOnUse" x1="40.237553" x2="40.237553" y1="83.267767" y2="8.047759"><stop offset="0" stop-color="#fefefe"/><stop offset="1" stop-color="#50caff" stop-opacity="0"/></linearGradient><linearGradient id="l" gradientUnits="userSpaceOnUse" x1="48" x2="48" xlink:href="#b" y1="190" y2="105.987717"/><linearGradient id="m" gradientUnits="userSpaceOnUse" x1="58.651787" x2="47.450871" xlink:href="#a" y1="68.171875" y2="57.993305"/><linearGradient id="n" gradientUnits="userSpaceOnUse" x1="60.899021" x2="68.2229" y1="35.60585" y2="39.53442"><stop offset="0" stop-color="#1a1a1a"/><stop offset=".35185185" stop-color="#636363"/><stop offset=".5" stop-color="#c7c7c7"/><stop offset=".64999998" stop-color="#636363"/><stop offset="1"/></linearGradient><radialGradient id="o" cx="59.85154" cy="41.7043" gradientTransform="matrix(1 0 0 .125 0 36.491262)" gradientUnits="userSpaceOnUse" r="18.182745" xlink:href="#a"/><linearGradient id="p" gradientTransform="matrix(1.037083 .14898509 -.15896024 .97200342 11.601829 -3.999177)" gradientUnits="userSpaceOnUse" x1="43.700191" x2="87.732079" xlink:href="#i" y1="82.473648" y2="6.208179"/><linearGradient id="q" gradientTransform="matrix(1.0642506 .22253363 -.33932139 .69795647 25.389673 15.671146)" gradientUnits="userSpaceOnUse" x1="43.700191" x2="77.923637" xlink:href="#i" y1="82.473648" y2="16.211916"/><linearGradient id="r" gradientTransform="matrix(1.0058652 0 0 .994169 100 0)" gradientUnits="userSpaceOnUse" x1="45.447727" x2="45.447727" y1="92.539597" y2="7.01654"><stop offset="0"/><stop offset="1" stop-opacity=".588235"/></linearGradient><linearGradient id="s" gradientTransform="matrix(1.0238095 0 0 1.0119048 -1.142857 -98.071429)" gradientUnits="userSpaceOnUse" x1="32.251034" x2="32.251034" xlink:href="#r" y1="6.131708" y2="90.238609"/><linearGradient id="t" gradientTransform="translate(0 -97)" gradientUnits="userSpaceOnUse" x1="32.251034" x2="32.251034" xlink:href="#r" y1="6.131708" y2="90.238609"/><g><g fill="url(#s)"><path d="m12-95.03125c-5.5110903 0-10.03125 4.52016-10.03125 10.03125v71c0 5.5110902 4.5201598 10.03125 10.03125 10.03125h72c5.51109 0 10.03125-4.5201597 10.03125-10.03125v-71c0-5.51109-4.52016-10.03125-10.03125-10.03125z" opacity=".08" transform="scale(1 -1)"/><path d="m12-94.03125c-4.971633 0-9.03125 4.059617-9.03125 9.03125v71c0 4.9716329 4.0596171 9.03125 9.03125 9.03125h72c4.971633 0 9.03125-4.059617 9.03125-9.03125v-71c0-4.971633-4.059617-9.03125-9.03125-9.03125z" opacity=".1" transform="scale(1 -1)"/><path d="m12-93c-4.4091333 0-8 3.590867-8 8v71c0 4.4091333 3.5908667 8 8 8h72c4.409133 0 8-3.5908667 8-8v-71c0-4.409133-3.590867-8-8-8z" opacity=".2" transform="scale(1 -1)"/><rect height="85" opacity=".3" rx="7" transform="scale(1 -1)" width="86" x="5" y="-92"/></g><rect fill="url(#t)" height="84" opacity=".45" rx="6" transform="scale(1 -1)" width="84" x="6" y="-91"/></g><rect fill="url(#h)" height="84" rx="6" width="84" x="6" y="6"/><path d="m12 6c-3.324 0-6 2.676-6 6v2 68 2c0 .334721.04135.6507.09375.96875.0487.295596.09704.596915.1875.875.00988.03038.020892.0636.03125.09375.098865.287771.2348802.547452.375.8125.1445918.273507.3156161.535615.5.78125s.3737765.473472.59375.6875c.439947.428056.94291.814526 1.5 1.09375.278545.139612.5734731.246947.875.34375-.2562018-.100222-.4867109-.236272-.71875-.375-.00741-.0044-.023866.0045-.03125 0-.031933-.0193-.062293-.04251-.09375-.0625-.120395-.0767-.2310226-.163513-.34375-.25-.1061728-.0808-.2132809-.161112-.3125-.25-.1779299-.161433-.3474596-.345388-.5-.53125-.1075789-.130255-.2183939-.265285-.3125-.40625-.025089-.03838-.038446-.08587-.0625-.125-.064763-.103032-.1302275-.204517-.1875-.3125-.1010083-.194706-.2056748-.415701-.28125-.625-.00796-.02181-.023589-.04055-.03125-.0625-.0318251-.09195-.0358045-.186831-.0625-.28125-.0303323-.106618-.0703894-.203031-.09375-.3125-.0728786-.341512-.125-.698205-.125-1.0625v-2-68-2c0-2.781848 2.2181517-5 5-5h2 68 2c2.781848 0 5 2.218152 5 5v2 68 2c0 .364295-.05212.720988-.125 1.0625-.04415.206893-.08838.397658-.15625.59375-.0077.02195-.0233.04069-.03125.0625-.06274.173739-.138383.367449-.21875.53125-.04158.0828-.07904.169954-.125.25-.0546.09721-.126774.18835-.1875.28125-.09411.140965-.204921.275995-.3125.40625-.143174.17445-.303141.346998-.46875.5-.01117.0102-.01998.02115-.03125.03125-.138386.125556-.285091.234436-.4375.34375-.102571.07315-.204318.153364-.3125.21875-.0074.0045-.02384-.0044-.03125 0-.232039.138728-.462548.274778-.71875.375.301527-.0968.596455-.204138.875-.34375.55709-.279224 1.060053-.665694 1.5-1.09375.219973-.214028.409366-.441865.59375-.6875s.355408-.507743.5-.78125c.14012-.265048.276135-.524729.375-.8125.01041-.03078.02133-.06274.03125-.09375.09046-.278085.1388-.579404.1875-.875.0524-.31805.09375-.634029.09375-.96875v-2-68-2c0-3.324-2.676-6-6-6z" fill="url(#c)" opacity=".35"/><path d="m12 90c-3.324 0-6-2.676-6-6v-2-68-2c0-.334721.04135-.6507.09375-.96875.0487-.295596.09704-.596915.1875-.875.00988-.03038.020892-.0636.03125-.09375.098865-.287771.2348802-.547452.375-.8125.1445918-.273507.3156161-.535615.5-.78125s.3737765-.473472.59375-.6875c.439947-.428056.94291-.814526 1.5-1.09375.278545-.139612.5734731-.246947.875-.34375-.2562018.100222-.4867109.236272-.71875.375-.00741.0044-.023866-.0045-.03125 0-.031933.0193-.062293.04251-.09375.0625-.120395.0767-.2310226.163513-.34375.25-.1061728.0808-.2132809.161112-.3125.25-.1779299.161433-.3474596.345388-.5.53125-.1075789.130255-.2183939.265285-.3125.40625-.025089.03838-.038446.08587-.0625.125-.064763.103032-.1302275.204517-.1875.3125-.1010083.194706-.2056748.415701-.28125.625-.00796.02181-.023589.04055-.03125.0625-.0318251.09195-.0358045.186831-.0625.28125-.0303323.106618-.0703894.203031-.09375.3125-.0728786.341512-.125.698205-.125 1.0625v2 68 2c0 2.781848 2.2181517 5 5 5h2 68 2c2.781848 0 5-2.218152 5-5v-2-68-2c0-.364295-.05212-.720988-.125-1.0625-.04415-.206893-.08838-.397658-.15625-.59375-.0077-.02195-.0233-.04069-.03125-.0625-.06274-.173739-.138383-.367449-.21875-.53125-.04158-.0828-.07904-.169954-.125-.25-.0546-.09721-.126774-.18835-.1875-.28125-.09411-.140965-.204921-.275995-.3125-.40625-.143174-.17445-.303141-.346998-.46875-.5-.01117-.0102-.01998-.02115-.03125-.03125-.138386-.125556-.285091-.234436-.4375-.34375-.102571-.07315-.204318-.153364-.3125-.21875-.0074-.0045-.02384.0044-.03125 0-.232039-.138728-.462548-.274778-.71875-.375.301527.0968.596455.204138.875.34375.55709.279224 1.060053.665694 1.5 1.09375.219973.214028.409366.441865.59375.6875s.355408.507743.5.78125c.14012.265048.276135.524729.375.8125.01041.03078.02133.06274.03125.09375.09046.278085.1388.579404.1875.875.0524.31805.09375.634029.09375.96875v2 68 2c0 3.324-2.676 6-6 6z" fill="url(#f)" opacity=".2"/><rect fill="url(#l)" height="84" rx="6" width="84" x="6" y="106"/><rect height="66" rx="12" style="opacity:.1;stroke:#fefefe;stroke-width:.5;stroke-linecap:round;clip-path:url(#g);fill:url(#e);filter:url(#d)" width="66" x="15" y="15"/><path d="m90 46.84375c-4.526662 2.457077-8.946706 4.898258-12.9375 7.625-5.360923 3.662891-9.118267 7.330519-10.84375 10.125-.0078.01278-.02345.01851-.03125.03125-1.050372.629696-8.581418 5.17354-12.40625 7.8125-4.175684 2.88103-11.21875 10.25-11.21875 10.25l.8125.5c6.921394-3.227159 20.84375-6.4375 20.84375-6.4375l.46875-.125-.125-.3125s-.06096-.130401 0-.53125c.06098-.400847.267268-1.031355.78125-1.875 1.116828-1.833167 3.938519-3.767858 5.84375-4.9375 4.394188-1.084722 10.610709-3.97765 16.40625-7.9375.823172-.562439 1.612854-1.13655 2.40625-1.71875z" fill="url(#q)" opacity=".3"/><path d="m90 15.625c-7.159846 8.93153-15.447803 16.153769-21.8125 24.71875-4.155827 5.592495-6.804396 10.995428-7.78125 14.9375-.0044.01801-.02686.04455-.03125.0625-.833902.97909-6.790683 7.975987-9.75 12-3.230781 4.393139-8.125 15.125-8.125 15.125l.875.5625c5.700905-5.22894 17.875-11.375 17.875-11.375l.40625-.21875-.15625-.40625s-.09207-.178891-.125-.71875c-.03294-.539858-.0072-1.404602.28125-2.59375.62682-2.58391 2.837298-5.531402 4.34375-7.34375 3.83462-2.041377 8.944757-6.70411 13.4375-12.75 3.861807-5.196834 7.081801-10.841083 10.5625-16.65625z" fill="url(#p)" opacity=".2"/><path d="m24.15625 6c16.028871 21.143001-17.5827484 35.380202-13.0625 52.25 4.400555 16.423093 24.273251 15.595561 31.4375 24.53125-4.945125-9.603352-11.708407-9.117987-14.375-18.125-6.780458-22.902515 63.703352-34.343809 40.8125-58.65625z" fill="url(#k)"/><path d="m71.440927 41.872208c-4.973511 10.133394-11.991749 17.339878-14.546844 15.967164-2.725395-1.46425-1.407813-10.803266 3.695386-21.200889 5.101999-10.395185 13.051945-19.404873 18.276979-31.0112788.995766-2.2119026 2.9241-5.47971615 5.661833-4.0917255 2.83771 1.4386772 2.067811 4.1308529.568563 7.1888151-5.789789 11.8092212-8.682398 23.0145152-13.655917 33.1479142z" fill="url(#n)" stroke="#000"/><path d="m60.457628 78.05204a5.4800777 7.7781744 0 1 1 -10.960155 0 5.4800777 7.7781744 0 1 1 10.960155 0z" fill="none" stroke="#2e3436" stroke-linecap="round" stroke-width="3.537709" transform="matrix(.63302987 -.16954844 .23046163 .42762767 6.312336 29.06751)"/><g stroke="#c17d11"><path d="m42.944049 82.580725s2.9568-11.53222 5.258149-16.279482c2.301347-4.747261 7.742418-14.190941 7.742418-14.190941s1.569862-2.348209 4.104002-1.099201c2.53414 1.249007 1.802655 3.648061 1.802655 3.648061s-3.821624 5.755643-4.139564 10.196655c-.183273 2.559974.416839 3.606144.416839 3.606144s-10.524782 7.913669-15.184499 14.118764z" fill="url(#j)" fill-rule="evenodd"/><path d="m-27.930719 71.864853a1.2374369 3.0052037 0 1 1 -2.474874 0 1.2374369 3.0052037 0 1 1 2.474874 0z" fill-opacity=".6" stroke-linecap="round" stroke-width=".638747" transform="matrix(.49816294 .21338024 -.22864746 .45310119 80.994343 39.610695)"/><path d="m43.003422 82.289431c2.086404-5.378172 3.575502-9.907884 6.18441-14.875218" fill="#c17d11" fill-rule="evenodd" stroke-width=".342977"/></g><rect fill="url(#l)" height="84" rx="6" width="84" x="6" y="106"/><path d="m145.64832 103.64865c0 22.54371-4.0671 41.59629-7.83928 41.34375-4.02362-.26937-7.83929-18.21221-7.83929-41.34375 0-23.126104 3.57086-46.222524 3.57086-71.642453 0-11.38174-.60662-12.414771 4.26843-12.272718s4.80612 1.126135 4.7863 12.438446c-.046 26.265851 3.05298 48.933017 3.05298 71.476725z"/><path d="m59.6875 52.65625c-.218866.177715-.364551.362516-.375.375-.000061.000107-.03118-.000123-.03125 0-.07544.130951-5.410002 9.430862-7.625 14-.754704 1.556817-1.65246 4.069602-2.46875 6.65625 3.376613-3.039337 6.273524-5.217456 7.0625-5.8125-.150656-.740855-.255031-1.776466-.15625-3.15625.188582-2.634122 1.305989-5.290338 2.34375-7.375.939337-1.886948 1.678929-2.997095 1.84375-3.25.011-.04406.05429-.211139 0-.53125-.05032-.296727-.105839-.58654-.59375-.90625z" fill="url(#m)" fill-rule="evenodd"/><path d="m78.034285 41.7043a18.182745 2.2728431 0 1 1 -36.36549 0 18.182745 2.2728431 0 1 1 36.36549 0z" fill="url(#o)" transform="matrix(.46309937 -.88630637 .88630637 .46309937 .97992 69.376951)"/><path d="m66.65625 29.34375c-.77115 0-1.522939.133966-2.25.34375-.34567.578188-.664891 1.168334-1 1.75.410501-.06213.827002-.09375 1.25-.09375 3.561545 0 6.757094 2.358001 8.84375 6.03125.439471-1.027772.86359-2.078075 1.28125-3.125-2.065732-3.019569-4.942489-4.90625-8.125-4.90625z" fill="#fefefe" opacity=".6"/><path d="m182.85007 34.127215c-.4215-.09045-.87404-.08218-1.29127.01834-.41724.10052-.78965.280361-1.20404.517148-.82877.473572-1.81398 1.206124-3.32238 2.236755-9.7898 6.688948-20.95639 11.406559-29.9748 17.568457-5.36092 3.662891-9.10058 7.340445-10.82607 10.134926-.008.01278-.0467.02393-.0545.03667-1.05037.629696-8.5716 5.149222-12.39643 7.788182-4.17565 2.88103-11.21018 10.246823-11.21018 10.246823l.81602.507025c6.9214-3.227159 20.82464-6.434335 20.82464-6.434335l.46127-.119804-.10556-.310413s-.0499-.149487.0111-.550336c.061-.400847.2437-1.016306.75769-1.859951 1.11682-1.833167 3.94618-3.78213 5.85141-4.951772 4.39419-1.084722 10.61688-3.949725 16.41243-7.909575 8.78601-6.003112 15.62991-13.201799 25.78429-20.102644 2.19559-1.492097 3.46177-2.260632 3.82367-3.117103.18098-.428227.0608-.869316-.30126-1.264411-.36205-.395095-.9376-.780208-1.6923-1.266936-.94662-.610505-1.60709-1.004684-2.36372-1.167046z" opacity=".3"/></svg>