<svg height="96" width="96" xmlns="http://www.w3.org/2000/svg" xmlns:xlink="http://www.w3.org/1999/xlink"><linearGradient id="a"><stop offset="0" stop-color="#fefefe"/><stop offset="1" stop-color="#fefefe" stop-opacity="0"/></linearGradient><linearGradient id="b" gradientUnits="userSpaceOnUse" x1="36.357143" x2="36.357143" xlink:href="#a" y1="6" y2="63.893143"/><radialGradient id="c" cx="48" cy="90.171875" gradientTransform="matrix(1.1573129 0 0 .99590774 -7.551021 .197132)" gradientUnits="userSpaceOnUse" r="42" xlink:href="#a"/><linearGradient id="d" gradientUnits="userSpaceOnUse" x1="48" x2="48" y1="90" y2="5.987717"><stop offset="0" stop-color="#f57900"/><stop offset="1" stop-color="#f89d44"/></linearGradient><linearGradient id="e" gradientTransform="matrix(1.0058652 0 0 .994169 100 0)" gradientUnits="userSpaceOnUse" x1="45.447727" x2="45.447727" y1="92.539597" y2="7.01654"><stop offset="0"/><stop offset="1" stop-opacity=".588235"/></linearGradient><linearGradient id="f" gradientTransform="matrix(1.0238095 0 0 1.0119048 -1.142857 -98.071429)" gradientUnits="userSpaceOnUse" x1="32.251034" x2="32.251034" xlink:href="#e" y1="6.131708" y2="90.238609"/><linearGradient id="g" gradientTransform="translate(0 -97)" gradientUnits="userSpaceOnUse" x1="32.251034" x2="32.251034" xlink:href="#e" y1="6.131708" y2="90.238609"/><linearGradient id="h" gradientUnits="userSpaceOnUse" x1="49.983868" x2="49.983868" xlink:href="#a" y1="63.414215" y2="-2.315862"/><linearGradient id="i"><stop offset="0"/><stop offset="1" stop-opacity="0"/></linearGradient><linearGradient id="j"><stop offset="0" stop-color="#2b2b2b"/><stop offset=".5" stop-color="#828383"/><stop offset="1" stop-color="#dadbdb"/></linearGradient><linearGradient id="k" gradientTransform="matrix(.84815852 .52974252 -.52974252 .84815852 -2.15843 -41.320509)" gradientUnits="userSpaceOnUse" x1="103.94804" x2="134.48746" xlink:href="#i" y1="79.295097" y2="41.356407"/><linearGradient id="l" gradientTransform="matrix(.98565429 .16877686 -.16877686 .98565429 -45.008735 -15.895389)" gradientUnits="userSpaceOnUse" x1="102.76233" x2="142.16823" xlink:href="#i" y1="78.680206" y2="30.335871"/><radialGradient id="m" cx="418.45551" cy="181.18982" gradientTransform="matrix(-.01234502 -.01124481 .3176589 -.34873903 38.557637 90.465077)" gradientUnits="userSpaceOnUse" r="63.068935"><stop offset="0" stop-color="#282828"/><stop offset=".39253417" stop-color="#969696"/><stop offset="1" stop-color="#e3e3e3"/></radialGradient><radialGradient id="n" cx="283.50717" cy="382.14804" gradientTransform="matrix(.07808342 .06214543 -.09525431 .11968356 90.619342 -23.620235)" gradientUnits="userSpaceOnUse" r="17.67668" xlink:href="#j"/><radialGradient id="o" cx="289.44067" cy="390.45248" gradientTransform="matrix(.07808342 .06214543 -.09525431 .11968356 71.51635 -1.990303)" gradientUnits="userSpaceOnUse" r="17.67668" xlink:href="#j"/><radialGradient id="p" cx="425.51019" cy="356.62274" gradientTransform="matrix(-.01898241 -.01522718 .20231986 -.25221475 8.796203 136.45939)" gradientUnits="userSpaceOnUse" r="143.34167"><stop offset="0" stop-color="#a1bfe1"/><stop offset=".50094414" stop-color="#407dc1"/><stop offset="1" stop-color="#224367"/></radialGradient><g fill="url(#f)"><path d="m12-95.03125c-5.5110903 0-10.03125 4.52016-10.03125 10.03125v71c0 5.5110902 4.5201598 10.03125 10.03125 10.03125h72c5.51109 0 10.03125-4.5201597 10.03125-10.03125v-71c0-5.51109-4.52016-10.03125-10.03125-10.03125z" opacity=".08" transform="scale(1 -1)"/><path d="m12-94.03125c-4.971633 0-9.03125 4.059617-9.03125 9.03125v71c0 4.9716329 4.0596171 9.03125 9.03125 9.03125h72c4.971633 0 9.03125-4.059617 9.03125-9.03125v-71c0-4.971633-4.059617-9.03125-9.03125-9.03125z" opacity=".1" transform="scale(1 -1)"/><path d="m12-93c-4.4091333 0-8 3.590867-8 8v71c0 4.4091333 3.5908667 8 8 8h72c4.409133 0 8-3.5908667 8-8v-71c0-4.409133-3.590867-8-8-8z" opacity=".2" transform="scale(1 -1)"/><rect height="85" opacity=".3" rx="7" transform="scale(1 -1)" width="86" x="5" y="-92"/></g><rect fill="url(#g)" height="84" opacity=".45" rx="6" transform="scale(1 -1)" width="84" x="6" y="-91"/><rect fill="url(#d)" height="84" rx="6" width="84" x="6" y="6"/><path d="m12 6c-3.324 0-6 2.676-6 6v2 68 2c0 .334721.04135.6507.09375.96875.0487.295596.09704.596915.1875.875.00988.03038.020892.0636.03125.09375.098865.287771.2348802.547452.375.8125.1445918.273507.3156161.535615.5.78125s.3737765.473472.59375.6875c.439947.428056.94291.814526 1.5 1.09375.278545.139612.5734731.246947.875.34375-.2562018-.100222-.4867109-.236272-.71875-.375-.00741-.0044-.023866.0045-.03125 0-.031933-.0193-.062293-.04251-.09375-.0625-.120395-.0767-.2310226-.163513-.34375-.25-.1061728-.0808-.2132809-.161112-.3125-.25-.1779299-.161433-.3474596-.345388-.5-.53125-.1075789-.130255-.2183939-.265285-.3125-.40625-.025089-.03838-.038446-.08587-.0625-.125-.064763-.103032-.1302275-.204517-.1875-.3125-.1010083-.194706-.2056748-.415701-.28125-.625-.00796-.02181-.023589-.04055-.03125-.0625-.0318251-.09195-.0358045-.186831-.0625-.28125-.0303323-.106618-.0703894-.203031-.09375-.3125-.0728786-.341512-.125-.698205-.125-1.0625v-2-68-2c0-2.781848 2.2181517-5 5-5h2 68 2c2.781848 0 5 2.218152 5 5v2 68 2c0 .364295-.05212.720988-.125 1.0625-.04415.206893-.08838.397658-.15625.59375-.0077.02195-.0233.04069-.03125.0625-.06274.173739-.138383.367449-.21875.53125-.04158.0828-.07904.169954-.125.25-.0546.09721-.126774.18835-.1875.28125-.09411.140965-.204921.275995-.3125.40625-.143174.17445-.303141.346998-.46875.5-.01117.0102-.01998.02115-.03125.03125-.138386.125556-.285091.234436-.4375.34375-.102571.07315-.204318.153364-.3125.21875-.0074.0045-.02384-.0044-.03125 0-.232039.138728-.462548.274778-.71875.375.301527-.0968.596455-.204138.875-.34375.55709-.279224 1.060053-.665694 1.5-1.09375.219973-.214028.409366-.441865.59375-.6875s.355408-.507743.5-.78125c.14012-.265048.276135-.524729.375-.8125.01041-.03078.02133-.06274.03125-.09375.09046-.278085.1388-.579404.1875-.875.0524-.31805.09375-.634029.09375-.96875v-2-68-2c0-3.324-2.676-6-6-6z" fill="url(#b)" opacity=".35"/><path d="m12 90c-3.324 0-6-2.676-6-6v-2-68-2c0-.334721.04135-.6507.09375-.96875.0487-.295596.09704-.596915.1875-.875.00988-.03038.020892-.0636.03125-.09375.098865-.287771.2348802-.547452.375-.8125.1445918-.273507.3156161-.535615.5-.78125s.3737765-.473472.59375-.6875c.439947-.428056.94291-.814526 1.5-1.09375.278545-.139612.5734731-.246947.875-.34375-.2562018.100222-.4867109.236272-.71875.375-.00741.0044-.023866-.0045-.03125 0-.031933.0193-.062293.04251-.09375.0625-.120395.0767-.2310226.163513-.34375.25-.1061728.0808-.2132809.161112-.3125.25-.1779299.161433-.3474596.345388-.5.53125-.1075789.130255-.2183939.265285-.3125.40625-.025089.03838-.038446.08587-.0625.125-.064763.103032-.1302275.204517-.1875.3125-.1010083.194706-.2056748.415701-.28125.625-.00796.02181-.023589.04055-.03125.0625-.0318251.09195-.0358045.186831-.0625.28125-.0303323.106618-.0703894.203031-.09375.3125-.0728786.341512-.125.698205-.125 1.0625v2 68 2c0 2.781848 2.2181517 5 5 5h2 68 2c2.781848 0 5-2.218152 5-5v-2-68-2c0-.364295-.05212-.720988-.125-1.0625-.04415-.206893-.08838-.397658-.15625-.59375-.0077-.02195-.0233-.04069-.03125-.0625-.06274-.173739-.138383-.367449-.21875-.53125-.04158-.0828-.07904-.169954-.125-.25-.0546-.09721-.126774-.18835-.1875-.28125-.09411-.140965-.204921-.275995-.3125-.40625-.143174-.17445-.303141-.346998-.46875-.5-.01117-.0102-.01998-.02115-.03125-.03125-.138386-.125556-.285091-.234436-.4375-.34375-.102571-.07315-.204318-.153364-.3125-.21875-.0074-.0045-.02384.0044-.03125 0-.232039-.138728-.462548-.274778-.71875-.375.301527.0968.596455.204138.875.34375.55709.279224 1.060053.665694 1.5 1.09375.219973.214028.409366.441865.59375.6875s.355408.507743.5.78125c.14012.265048.276135.524729.375.8125.01041.03078.02133.06274.03125.09375.09046.278085.1388.579404.1875.875.0524.31805.09375.634029.09375.96875v2 68 2c0 3.324-2.676 6-6 6z" fill="url(#c)" opacity=".2"/><path d="m47.9375 20.9375c-11.495625-.0624-22.308884 7.982906-25.59375 19-.0028.0093.0028.0219 0 .03125-1.105404 3.144799-1.104761 6.351885-1.375 9.34375-.187896 1.067439-.776742 1.616187-1.71875 2.09375s-2.183675.757704-3.34375 1.03125a.97291882.97291882 0 0 0 -.3125.125c-1.103523.732375-1.435454 1.976796-1.46875 2.96875-.0333.991954.09911 1.879599.03125 2.46875a.97291882.97291882 0 0 0 0 .125c.04166 4.571092-.08484 9.187993.0625 13.8125a.97291882.97291882 0 0 0 0 .125c.101838.666935.436034 1.257982.875 1.65625s.961464.601161 1.46875.71875c.980377.227252 1.93894.125563 2.6875.03125.02611-.0033.06822.0033.09375 0 .0018-.000091-.0018-.03116 0-.03125 7.617994-.385714 14.890917-4.32746 19.34375-10.5625-.01645 2.883579-.101409 5.788945.0625 8.71875a.97291882.97291882 0 0 0 .03125.21875c.201863.647907.6101 1.195511 1.09375 1.53125s1.028891.49018 1.53125.5625c1.004718.14464 1.967428.007 2.59375.03125 4.619863.07778 9.488833.06634 14.03125-1.875.0088-.0034.02244.0034.03125 0 10.474298-3.993882 17.629124-14.921278 17.0625-26.125-.000245-.01047.000258-.02078 0-.03125-.285854-11.593494-8.782234-22.2393-20.03125-25.0625-.0099-.0028-.02132.0028-.03125 0-2.356734-.671352-4.792507-.841179-7.09375-.90625a.97291882.97291882 0 0 0 -.03125 0zm.4375 22.46875c2.415134.155207 4.562554 2.525544 4.21875 4.96875a.97291882.97291882 0 0 0 0 .0625c-.161934 2.523663-2.786322 4.311914-5.25 4a.97291882.97291882 0 0 0 -.125 0h-3.78125c.161485-1.273048.171232-2.536145.1875-3.65625.02159-1.48665.189422-2.693634 1.0625-3.71875a.97291882.97291882 0 0 0 0-.03125c.837401-1.06192 2.207965-1.52407 3.6875-1.625z" fill="#ff780b" opacity=".1"/><path d="m47.9375 21.90625c-11.047473-.05997-21.539645 7.742548-24.679669 18.338023-1.049596 2.966267-1.044752 6.128744-1.32771 9.211601-.490631 2.787278-3.520549 3.380423-5.805121 3.919126-1.587123 1.053326-.817455 3.15714-1 4.74187.04187 4.594719-.08362 9.203289.0625 13.78938.29088 1.90497 2.606342 1.77378 4.046683 1.588715 8.338221-.38991 16.467229-5.086886 20.390817-12.557465.06002 3.862321-.121644 7.74368.09375 11.59375.584378 1.875645 2.796102 1.379251 4.299503 1.4375 4.612976.07766 9.353074.04439 13.671345-1.809182 10.081102-3.830712 17.038398-14.428538 16.479609-25.203365-.260566-11.149448-8.546581-21.471751-19.367256-24.173358-2.235511-.641018-4.582697-.812075-6.864451-.876595zm.4375 20.53125c3.019959.147433 5.624464 2.981471 5.191391 6.059056-.201499 3.140266-3.35443 5.289574-6.354942 4.909694-1.622566 0-3.245133 0-4.867699 0 .841127-2.947262-.585997-6.411826 1.579591-8.954528 1.079434-1.368846 2.782696-1.912295 4.451659-2.014222z" fill="#ff780b" opacity=".15"/><path d="m47.9375 23.03125c-13.6475.114948-24.71875 11.231714-24.71875 24.90625 0 .07206-.000843.154626 0 .25.000105.01192-.000174.01922 0 .03125-.126881 2.927839-1.58247 4.288037-3.09375 5.09375-1.517243.808892-3.03125.90625-3.03125.90625a.9018185.9018185 0 0 0 -.84375.90625v16.40625a.9018185.9018185 0 0 0 .90625.90625c8.761837 0 14.923763-3.5763 18.8125-8.125s5.5625-10.010524 5.5625-14.03125v-2.34375-.125-.03125c.09208-3.506159 2.925238-6.310212 6.4375-6.40625a.9018185.9018185 0 0 0 .46875-.15625.9018185.9018185 0 0 0 .5.21875c3.279468.387746 5.78125 3.108839 5.78125 6.5 0 3.614428-2.874743 6.524906-6.46875 6.59375-.03125.000578-.03384 0-.09375 0h-6.5a.9018185.9018185 0 0 0 -.90625.90625v16.5a.9018185.9018185 0 0 0 .90625.90625h6.1875c.111859.0013.222485 0 .3125 0 13.745173 0 24.90625-11.161075 24.90625-24.90625 0-13.43796-10.67754-24.392014-24-24.875a.9018185.9018185 0 0 0 -.5625.15625.9018185.9018185 0 0 0 -.5625-.1875z" fill="#ff780b" opacity=".3"/><path d="m46 104.09375c-12.325029 1.01033-22 11.32066-22 23.90625 0 5.52285-4.477153 10-10 10v14c13.254834 0 24-10.74517 24-24 0-4.83249 3.443169-8.84879 8-9.78125zm4 0v14.125c4.556831.93246 8 4.94876 8 9.78125 0 5.52285-4.477153 10-10 10h-8v14h8c13.254834 0 24-10.74517 24-24 0-12.58559-9.674971-22.89592-22-23.90625z" fill="#d40000" opacity=".5"/><path d="m47.938834 23.95191c-13.16298.110867-23.804602 10.801116-23.804602 23.990254 0 .08977-.0013.17847 0 .268163-.257892 6.519448-6.972232 6.910348-6.972232 6.910348v16.399184c17.039567 0 23.474555-13.718692 23.474555-21.246742v-2.330953-.165023c.08612-3.99671 3.310426-7.193126 7.302279-7.302278zm1.093279.02063v16.54358c3.720329.439871 6.600929 3.585154 6.600929 7.426045 0 4.094313-3.268173 7.430494-7.343534 7.508558-.04864.000899-.09555 0-.144395 0h-6.477162v16.502324h6.188371c.09657.0011.191948 0 .288791 0 13.258112 0 24.010881-10.752768 24.010881-24.010882 0-12.961287-10.276308-23.503855-23.123881-23.969625z" fill="#fefefe"/><path d="m12 6c-3.324 0-6 2.676-6 6v52.40625c24.080271 5.930229 37.525956-24.920357 61.032046-21.77438 9.256156 6.581564 16.216019 9.883194 22.967954 9.24313v-39.875c0-3.324-2.676-6-6-6z" fill="url(#h)" opacity=".2"/><path d="m103.09531 26.997728s-.25105.203894-.25781.209493c-2.21993-.04859-8.0462 2.105291-23.24284 15.201474-.0172-.01668-.138185-.118777-.138185-.118777l-.598313.531646c.08481.07708.161928.154794.24557.232278-10.18625 8.360273-21.07466 18.13062-21.944108 18.91139-.000799-.0012-.02549-.03603-.02548-.03607l-.0202-.06687-.0413.05634c-.000764-.0014-.02548-.03607-.02548-.03607l-.789241.720886c.0081.01173.01734.02434.02548.03607l-.03602.02554.02548.03607c.000042.000058.04775.06716.05106.07216-9.318121 9.495534-15.121583 16.651535-14.883979 17.488818.319625 1.126286 18.76411-11.736831 19.526172-12.382064.03176.02607.194412.160022.194515.160127l.03076.0053.866667-.802742-.02548-.03607c-.000153-.00011-.07489-.07217-.08181-.07742 1.842824-1.41214 11.90943-9.17401 22.459932-18.220671.170833.225729.331856.468987.331856.468987l.598313-.531645c-.02268-.03404-.05293-.07361-.07653-.10822.790201-.61736 17.455531-13.665016 19.329541-19.010336.21345-.157476.30053-.23332.51035-.388186 0 0-.0316-1.827825-2.00865-2.341353z" fill="url(#l)" opacity=".25"/><path d="m58.811305 64.806923c-.0013-.000753-1.401983-.774234-3.163969-2.146656-1.521733-1.183382-2.549026-2.299734-2.550155-2.300863l-.02297-.02504.686493-.879111.02956-.0386.03182.03709c.0032.0019 1.016749 1.185264 2.584235 2.406304 1.489913 1.159281 3.124429 1.993202 3.127818 1.994897l.04312.02203-.736389.946329-.02956-.01638zm-3.114638-2.20992c1.608909 1.253236 2.912606 2.004123 3.123487 2.122932l.634903-.816035c-.267932-.139897-1.742217-.926182-3.097881-1.980964-1.412903-1.100535-2.379378-2.17151-2.563335-2.380885l-.614567.787792c.159855.170399 1.131603 1.189972 2.517393 2.26716z" fill="#4d4d4d"/><path d="m58.800638 64.465415s10.021885-10.75183 19.831506-22.591302l.428489.132305s20.344107-22.295585 15.367847-24.100695c0 0-2.48812-4.927466-22.002856 18.782933l-.03753.355809c-9.003845 10.383741-19.00812 23.04433-19.00812 23.04433-7.727439 11.108186-12.315607 19.318593-11.936134 20.112039.515815 1.078519 17.38674-15.627369 17.356797-15.735419z" fill="url(#p)" fill-rule="evenodd" stroke="#13345c" stroke-width=".5"/><path d="m53.052249 60.295772c2.190592 2.242344 5.761083 4.519174 5.761083 4.519174l.707197-.896934c-2.422888-1.266248-5.795579-4.484669-5.795579-4.484669z" fill="url(#o)" fill-rule="evenodd"/><path d="m72.000002 36.975464c3.86372 2.466573 6.8995 5.450604 6.8995 5.450604l.517461-.603703c-2.060664-2.180435-6.907512-5.479189-6.907512-5.479189z" fill="url(#n)" fill-rule="evenodd"/><path d="m93.224586 17.277397c2.035353.17248 2.380329 1.966357 2.380329 1.966357-9.279829 9.659296-22.871843 23.699783-22.871843 23.699783l-.68995-.586461c11.970633-14.35096 21.181464-25.079679 21.181464-25.079679" fill="url(#m)" fill-rule="evenodd"/><path d="m118.64074 54.503216s-.30959.09354-.31797.09616c-2.03591-.886301-8.24383-1.101224-27.270166 5.258549-.0096-.02195-.08286-.162287-.08286-.162287l-.75517.265228c.04927.10347.09119.204615.139219.308019-12.594839 3.876069-26.373863 8.790906-27.474357 9.183915-.000272-.0014-.0099-.043-.0099-.04304l.0067-.06954-.05957.03648c-.000162-.0016-.0099-.04303-.0099-.04303l-1.003574.367989c.0031.01393.0069.02909.0099.04304l-.04302.01002.0099.04303c.000016.00007.01874.08025.01991.08613-12.221729 5.255654-20.304327 9.678339-20.401772 10.54321-.131075 1.163401 21.812476-3.749781 22.762227-4.058061.0195.03615.119262.221763.119317.221901l.02646.01655 1.106248-.414396-.0099-.04304c-.000099-.000161-.04196-.09517-.04636-.102645 2.24054-.608375 14.497869-3.976027 27.689922-8.34923.07254.273634.129356.559772.129356.559772l.755169-.265228c-.0081-.04009-.02109-.08818-.0298-.129151.965228-.271823 21.332281-6.030065 25.092341-10.266381.25721-.06483.36653-.102019.6194-.16581 0 0 .66347-1.703448-.97145-2.92795z" fill="url(#k)" opacity=".4"/></svg>