<svg height="96" width="96" xmlns="http://www.w3.org/2000/svg" xmlns:xlink="http://www.w3.org/1999/xlink"><linearGradient id="a"><stop offset="0"/><stop offset="1" stop-opacity="0"/></linearGradient><linearGradient id="b"><stop offset="0" stop-color="#959595"/><stop offset="1" stop-color="#5d5d5d"/></linearGradient><linearGradient id="c"><stop offset="0" stop-color="#fefefe"/><stop offset="1" stop-color="#fefefe" stop-opacity="0"/></linearGradient><linearGradient id="d" gradientUnits="userSpaceOnUse" x1="36.357143" x2="36.357143" xlink:href="#c" y1="6" y2="63.893143"/><linearGradient id="e" gradientTransform="matrix(.7620812 -.7620812 .7620812 .7620812 -27.993121 47.228467)" gradientUnits="userSpaceOnUse" x1="56.270466" x2="53.392128" xlink:href="#a" y1="22.625397" y2="23.509279"/><linearGradient id="f" gradientTransform="matrix(.7620812 -.7620812 .7620812 .7620812 -27.993121 47.228467)" gradientUnits="userSpaceOnUse" x1="48.916553" x2="97.732262" xlink:href="#b" y1="24.14736" y2="24.14736"/><linearGradient id="g" gradientTransform="matrix(0 -1.0777456 1.0777456 0 -6.768893 100.51326)" gradientUnits="userSpaceOnUse" x1="56.270466" x2="53.392128" xlink:href="#a" y1="22.625397" y2="23.509279"/><linearGradient id="h" gradientTransform="matrix(0 -1.0777456 1.0777456 0 -6.768893 100.51326)" gradientUnits="userSpaceOnUse" x1="48.916553" x2="97.732262" xlink:href="#b" y1="24.14736" y2="24.14736"/><linearGradient id="i" gradientTransform="matrix(-.7620812 -.7620812 .7620812 -.7620812 48.297395 122.98892)" gradientUnits="userSpaceOnUse" x1="56.270466" x2="53.392128" xlink:href="#a" y1="22.625397" y2="23.509279"/><linearGradient id="j" gradientTransform="matrix(-.7620812 -.7620812 .7620812 -.7620812 48.297395 122.98892)" gradientUnits="userSpaceOnUse" x1="48.916553" x2="97.732262" xlink:href="#b" y1="24.14736" y2="24.14736"/><linearGradient id="k" gradientTransform="matrix(-1.0777456 0 0 -1.0777456 102.59234 101.76469)" gradientUnits="userSpaceOnUse" x1="56.270466" x2="53.392128" xlink:href="#a" y1="22.625397" y2="23.509279"/><linearGradient id="l" gradientTransform="matrix(-1.0777456 0 0 -1.0777456 102.59234 101.76469)" gradientUnits="userSpaceOnUse" x1="48.916553" x2="97.732262" xlink:href="#b" y1="24.14736" y2="24.14736"/><linearGradient id="m" gradientTransform="matrix(-.7620812 .7620812 -.7620812 -.7620812 123.30024 45.94078)" gradientUnits="userSpaceOnUse" x1="56.270466" x2="53.392128" xlink:href="#a" y1="22.625397" y2="23.509279"/><linearGradient id="n" gradientTransform="matrix(-.7620812 .7620812 -.7620812 -.7620812 123.30024 45.94078)" gradientUnits="userSpaceOnUse" x1="48.916553" x2="97.732262" xlink:href="#b" y1="24.14736" y2="24.14736"/><linearGradient id="o" gradientTransform="matrix(0 1.0777456 -1.0777456 0 101.3184 -7.344013)" gradientUnits="userSpaceOnUse" x1="56.270466" x2="53.392128" xlink:href="#a" y1="22.625397" y2="23.509279"/><linearGradient id="p" gradientTransform="matrix(0 1.0777456 -1.0777456 0 101.3184 -7.344013)" gradientUnits="userSpaceOnUse" x1="48.916553" x2="97.732262" xlink:href="#b" y1="24.14736" y2="24.14736"/><linearGradient id="q" gradientTransform="matrix(.7620812 .7620812 -.7620812 .7620812 48.272417 -29.567134)" gradientUnits="userSpaceOnUse" x1="56.270466" x2="53.392128" xlink:href="#a" y1="22.625397" y2="23.509279"/><linearGradient id="r" gradientTransform="matrix(.7620812 .7620812 -.7620812 .7620812 48.272417 -29.567134)" gradientUnits="userSpaceOnUse" x1="48.916553" x2="97.732262" xlink:href="#b" y1="24.14736" y2="24.14736"/><linearGradient id="s" gradientUnits="userSpaceOnUse" x1="55.2599475144" x2="52.15783168742" xlink:href="#a" y1="20.67665780246" y2="21.62925765049"/><linearGradient id="t" gradientUnits="userSpaceOnUse" x1="47.33430087126" x2="99.94521157532" xlink:href="#b" y1="22.31694657688" y2="22.31694657688"/><linearGradient id="u" gradientUnits="userSpaceOnUse" x1="48" x2="48" y1="90" y2="5.987717"><stop offset="0" stop-color="#aaa"/><stop offset="1" stop-color="#d2d2d2"/></linearGradient><radialGradient id="v" cx="48" cy="48" gradientTransform="matrix(.8105965 0 0 .80759 9.091369 9.235681)" gradientUnits="userSpaceOnUse" r="42"><stop offset="0" stop-opacity="0"/><stop offset=".53445506" stop-opacity="0"/><stop offset=".88368797" stop-opacity=".504065"/><stop offset="1" stop-opacity=".861789"/></radialGradient><linearGradient id="w" gradientUnits="userSpaceOnUse" x1="47.855976" x2="47.855976" y1="21.75379" y2="52.816315"><stop offset="0" stop-color="#71c837"/><stop offset="1" stop-color="#71c837" stop-opacity="0"/></linearGradient><linearGradient id="x" gradientUnits="userSpaceOnUse" x1="51.98505" x2="51.98505" y1="47.405834" y2="7.792498"><stop offset="0" stop-color="#d42aff"/><stop offset="1" stop-color="#d42aff" stop-opacity="0"/></linearGradient><radialGradient id="y" cx="48.453125" cy="55.808502" gradientTransform="matrix(.3961226 -1.5008363 1.5791805 .4168003 -60.154838 95.678538)" gradientUnits="userSpaceOnUse" r="18.109375"><stop offset="0" stop-color="#fefefe" stop-opacity="0"/><stop offset=".6557377" stop-color="#fefefe" stop-opacity="0"/><stop offset="1" stop-color="#fefefe"/></radialGradient><linearGradient id="z" gradientUnits="userSpaceOnUse" x1="14.647209" x2="84.0952" xlink:href="#a" y1="47.260139" y2="47.260139"/><clipPath id="A"><rect height="131.18726" rx="9.370519" width="131.18726" x="-17.694021" y="-17.09572"/></clipPath><radialGradient id="B" cx="62.716835" cy="76.334625" gradientTransform="matrix(1.1492741 -.6635339 .7166993 1.2413593 -64.070967 19.19584)" gradientUnits="userSpaceOnUse" r="27.757055"><stop offset="0" stop-color="#f1b9ff"/><stop offset="1" stop-color="#fefefe" stop-opacity="0"/></radialGradient><linearGradient id="C" gradientUnits="userSpaceOnUse" x1="10.480331" x2="81.064743" y1="46.186852" y2="46.186852"><stop offset="0" stop-color="#e4e4e4"/><stop offset="1" stop-color="#7a7a7a"/></linearGradient><clipPath id="D"><rect height="73.388969" rx="6" width="74.696693" x="10.399113" y="11.328045"/></clipPath><radialGradient id="E" cx="48" cy="90.171875" gradientTransform="matrix(1.1573129 0 0 .99590774 -7.551021 .197132)" gradientUnits="userSpaceOnUse" r="42" xlink:href="#c"/><linearGradient id="F" gradientTransform="translate(0 -97)" gradientUnits="userSpaceOnUse" x1="32.251034" x2="32.251034" xlink:href="#G" y1="6.131708" y2="90.238609"/><linearGradient id="G" gradientTransform="matrix(1.0058652 0 0 .994169 100 0)" gradientUnits="userSpaceOnUse" x1="45.447727" x2="45.447727" y1="92.539597" y2="7.01654"><stop offset="0"/><stop offset="1" stop-opacity=".588235"/></linearGradient><linearGradient id="H" gradientTransform="matrix(1.0238095 0 0 1.0119048 -1.142857 -98.071429)" gradientUnits="userSpaceOnUse" x1="32.251034" x2="32.251034" xlink:href="#G" y1="6.131708" y2="90.238609"/><g><g fill="url(#H)"><path d="m12-95.03125c-5.5110903 0-10.03125 4.52016-10.03125 10.03125v71c0 5.5110902 4.5201598 10.03125 10.03125 10.03125h72c5.51109 0 10.03125-4.5201597 10.03125-10.03125v-71c0-5.51109-4.52016-10.03125-10.03125-10.03125z" opacity=".08" transform="scale(1 -1)"/><path d="m12-94.03125c-4.971633 0-9.03125 4.059617-9.03125 9.03125v71c0 4.9716329 4.0596171 9.03125 9.03125 9.03125h72c4.971633 0 9.03125-4.059617 9.03125-9.03125v-71c0-4.971633-4.059617-9.03125-9.03125-9.03125z" opacity=".1" transform="scale(1 -1)"/><path d="m12-93c-4.4091333 0-8 3.590867-8 8v71c0 4.4091333 3.5908667 8 8 8h72c4.409133 0 8-3.5908667 8-8v-71c0-4.409133-3.590867-8-8-8z" opacity=".2" transform="scale(1 -1)"/><rect height="85" opacity=".3" rx="7" transform="scale(1 -1)" width="86" x="5" y="-92"/></g><rect fill="url(#F)" height="84" opacity=".45" rx="6" transform="scale(1 -1)" width="84" x="6" y="-91"/></g><g><path d="m64 48a16 16 0 1 1 -32 0 16 16 0 1 1 32 0z" fill="#333"/><g clip-path="url(#A)" fill-rule="evenodd" transform="matrix(.5888293 0 0 .5888293 19.082378 20.054087)"><path d="m63.746354 52.94225-18.231643-65.799586 54.430498 4.5489774v60.1619206z" fill="url(#t)"/><path d="m45.879436-13.704817 17.87938 66.646052 1.532644-.640209-17.87938-66.612374z" fill="#fefefe" opacity=".4"/><path d="m57.098267 59.373936 31.705649-54.9157968 37.201534 37.2015308-42.540907 42.540905z" fill="url(#r)"/><path d="m88.805611 4.4407396-31.697815 54.9412914 1.695692.538445 31.674-54.917476z" fill="#fefefe" opacity=".4"/><path d="m85.302388 1.0891496-31.242917 55.2445564 3.11977 2.92925 31.62637-54.8222164z" fill="url(#q)" opacity=".6"/><path d="m44.668383 61.787642 61.250617-16.412054v52.610912h-60.161929z" fill="url(#p)"/><path d="m105.9325 45.364483-61.263103 16.435621.03368 1.835908 61.229423-16.43562z" fill="#fefefe" opacity=".4"/><path d="m105.9325 41.053501-61.263103 16.43562.134718 4.277303 61.128385-16.401941z" fill="url(#o)" opacity=".6"/><path d="m34.35917 54.76663 54.915797 31.705649-37.201531 37.201531-42.5409048-42.540904z" fill="url(#n)"/><path d="m89.292366 86.473974-54.941291-31.697815-1.097629 1.392426 54.917476 31.674z" fill="#fefefe" opacity=".4"/><path d="m92.340691 83.425649-54.941291-31.697815-2.92925 3.11977 54.822216 31.62637z" fill="url(#m)" opacity=".6"/><path d="m33.460686 45.114673 16.412053 61.250617h-52.6109111v-60.161929z" fill="url(#l)"/><path d="m49.883844 106.37879-16.43562-61.263103-1.684276.488577 16.435621 61.229426z" fill="#fefefe" opacity=".4"/><path d="m54.194827 106.37879-16.435621-61.263103-4.277303.134718 16.401941 61.128385z" fill="url(#k)" opacity=".6"/><path d="m39.471545 34.04785-31.7056492 54.915797-37.2015308-37.201531 42.540904-42.5409048z" fill="url(#j)"/><path d="m7.7642012 88.981046 31.6978148-54.941291-1.392426-1.193164-31.6740004 54.917476z" fill="#fefefe" opacity=".4"/><path d="m10.812526 92.029371 31.697815-54.941291-3.11977-2.92925-31.6263698 54.822216z" fill="url(#i)" opacity=".6"/><path d="m-11.375-4.8125v52.59375l61.25-16.40625-1.03125-34.09375-.5625-2.09375z" fill="url(#h)"/><path d="m-11.382991 47.804764 61.263102-16.43562-.488578-1.684276-61.229422 16.435621z" fill="#fefefe" opacity=".4"/><path d="m-11.382991 52.115747 61.263102-16.435621-.134719-4.277303-61.128383 16.401941z" fill="url(#g)" opacity=".6"/><path d="m43.21875-30.5-37.1875 37.1875 53.625 30.96875-13.277484-49.292584h18.09375z" fill="url(#f)"/><path d="m6.6532389 5.179337-.6532389 1.508163 53.65625 30.96875-.503011-2.226913z" fill="#fefefe" opacity=".4"/><path d="m6 6.6875-3.03125 3.0625 54.9375 31.6875 2.15625-2.28125-.40625-1.53125z" fill="url(#e)" opacity=".6"/><path d="m41.635307-13.543825 17.802193 66.481325 1.40625-.03125 1.96875-3.4375-16.864693-63.012575z" fill="url(#s)" opacity=".6"/></g></g><rect clip-path="url(#D)" fill="url(#v)" height="84" rx="6" width="84" x="6" y="6"/><g><path d="m84.0952 47.260139a34.723995 34.345188 0 1 1 -69.447991 0 34.723995 34.345188 0 1 1 69.447991 0z" fill="url(#z)" opacity=".935849" transform="matrix(0 -1.0367471 1.0481818 0 -1.537217 99.185452)"/><path d="m21.924065 61.647657c.189649.36216.376024.713791.582312 1.071093 8.123787 14.070811 26.141563 18.898659 40.212373 10.774873 14.070811-8.123787 18.898658-26.141561 10.774873-40.212373-.206289-.357302-.417623-.694523-.636438-1.039843 7.089319 13.856701 2.117664 31.000727-11.513435 38.870646-13.631096 7.869919-30.96409 3.603485-39.419685-9.464396z" fill="url(#B)" opacity=".6"/><path d="m75.003826 31.0977a27.14785 16.162441 0 1 1 -54.2957 0 27.14785 16.162441 0 1 1 54.2957 0z" fill="url(#w)" opacity=".2" transform="matrix(1.3162791 0 0 1.3162791 -15.135843 -9.835552)"/><path d="m75.003826 31.0977a27.14785 16.162441 0 1 1 -54.2957 0 27.14785 16.162441 0 1 1 54.2957 0z" fill="url(#w)" opacity=".4" transform="matrix(.7488372 0 0 .7488372 12.01964 5.537742)"/><path d="m75.003826 31.0977a27.14785 16.162441 0 1 1 -54.2957 0 27.14785 16.162441 0 1 1 54.2957 0z" fill="url(#x)" opacity=".2" transform="matrix(.5613372 0 0 .5613372 20.992635 51.269586)"/><g stroke-linecap="square"><path d="m40.357144 62.875a4.0178571 4.0178571 0 1 1 -8.035714 0 4.0178571 4.0178571 0 1 1 8.035714 0z" fill="#e064ff" fill-opacity=".376068" opacity=".4" stroke="#e67cff" stroke-width="1.125" transform="matrix(.8888888 0 0 .8888888 29.591271 5.96826)"/><path d="m40.357144 62.875a4.0178571 4.0178571 0 1 1 -8.035714 0 4.0178571 4.0178571 0 1 1 8.035714 0z" fill="#e064ff" fill-opacity=".376068" opacity=".3" stroke="#e67cff" stroke-width="2.045455" transform="matrix(.4888888 0 0 .4888888 37.698415 25.261117)"/><path d="m40.357144 62.875a4.0178571 4.0178571 0 1 1 -8.035714 0 4.0178571 4.0178571 0 1 1 8.035714 0z" fill="#b1e88b" fill-opacity=".5" opacity=".4" stroke="#8de951" stroke-width="1.323529" transform="matrix(.7555555 0 0 .7555555 32.115081 -19.041264)"/></g><path d="m18.399161 39.385174c-.599211 2.363826-.924741 4.835488-.915178 7.386005l11.453827-.04735c-.0045-1.548221.147996-3.132287.561708-4.699767.25368-.961147.561423-1.875033.953169-2.754198l-10.360825-4.70611c-.693913 1.544008-1.269325 3.151242-1.692701 4.82142zm3.998922-9.02843 9.491218 6.286517c.954365-1.441466 2.101632-2.729526 3.400261-3.821293.649316-.545884 1.326125-1.047597 2.043397-1.496846.717271-.44925 1.47838-.836873 2.251535-1.18335l-.02224-.03819c.984814-.438199 2.005482-.777429 3.053083-1.036434l-.008.03022c.354928-.0892.703877-.167651 1.064272-.236225 1.081183-.20572 2.194732-.317187 3.316599-.320479l-.047328-11.453831c-1.679419.0063-3.327485.165122-4.932722.443372l-.02224-.03819c-.23335.04091-.452153.09616-.684054.142655-.609162.122144-1.196479.271371-1.794492.431336-1.678482.448984-3.319694 1.018911-4.889132 1.747682-.917642.426825-1.808113.911926-2.671627 1.427994-.113445.0678-.231257.130885-.343712.200164-.19431.118882-.389297.240508-.580827.363822-.105458.06839-.208969.138445-.313496.208139-.407693.269834-.7996.558707-1.193554.848505-.054.03972-.107004.07908-.160735.119177-.190805.143358-.37937.284391-.566562.432227-.345159.270873-.693612.541594-1.026528.827948-.102801.08889-.19767.186267-.29923.276545-1.929636 1.715264-3.634849 3.679553-5.063886 5.838535z" fill="url(#y)"/></g><g><path d="m12 6c-3.324 0-6 2.676-6 6v72c0 3.324 2.676 6 6 6h72c3.324 0 6-2.676 6-6v-72c0-3.324-2.676-6-6-6zm36 7c19.32 0 35 15.68 35 35s-15.68 35-35 35c-19.319999.000001-35-15.68-35-35s15.68-35 35-35z" fill="url(#u)"/><path d="m126.57527 16.691482 1.20826-.727571-.50222-.834022-.66294.399198-.33803-.561361.66294-.399198-.84669-1.406075.55067-.331593 2.02497 3.36282-1.75893 1.059163zm-1.43496-1.135762.95366-.628359.36397.552392-.95366.628358zm-1.09325 3.014643.94049-.701439c.23679-.176607.25942-.393308.0679-.650107-.20481-.267656-.40018-.334748-.58609-.201276l-.32017.238789c-.54028.402949-1.02434.317609-1.45217-.256022l-.0821-.110058c-.4328-.580305-.33403-1.105513.29629-1.575625l.97552-.727556.39176.525275-1.06556.794715c-.23012.171628-.25315.38084-.0691.627638l.0112.01501c.20148.270139.4006.331833.59737.185081l.34518-.257444c.51609-.379721.99551-.272758 1.43826.320888l.0858.11506c.41539.556956.30959 1.069247-.31741 1.536877l-.86545.645472-.39176-.525275m-.87697.706845-.77538-.897085-.55714.481556c-.17627.152355-.17734.329258-.003.530712l.26934.311619c.16324.188856.333.207108.50927.05476l.55713-.481557m-1.20389-1.392842-.93455-1.081223.4816-.416262 2.56694 2.969824-1.04817.905979c-.49648.418123-.96373.3738-1.40176-.132971l-.26526-.306897c-.46796-.541401-.45641-1.024312.0346-1.448731l.56658-.489719m-1.70713 3.877071c.0823.08246.17202.07521.26921-.02176l.54341-.542162c.0913-.0911.0958-.177879.0135-.260345l-1.56478-1.568366c-.0558-.05596-.11023-.08397-.16318-.08403-.0529-.000061-.0956.01607-.12803.0484l-.592.590648c-.0324.03232-.0413.0735-.0266.123531.0117.05297.0396.101539.0837.14572l1.56478 1.568367m-2.10797-1.211545c-.35262-.35932-.35958-.707946-.0209-1.045877l.70245-.700844c.34165-.340873.68438-.339009 1.02819.0056l1.75432 1.758337c.33793.338705.34785.66674.0298.984106l-.74222.740515c-.33871.337927-.67703.33754-1.01496-.0012l-1.73668-1.740665m.31096 3.492257.52599-.601201-2.47525-2.1656.41915-.479082 2.47525 2.165601.48079-.549535.49317.431476-1.42592 1.629817z" fill="#666"/><path d="m160.74218 86.858936-1.1775.353544c-.56185.168697-.9349-.05378-1.11915-.667436l-.51686-1.721418c-.18105-.588545.0438-.975344.6746-1.1604l1.08187-.324829.11665.388515-1.20141.360722c-.30284.09093-.4076.291802-.31428.60261l.53839 1.793145c.0969.322766.28085.44347.55181.362112l.87267-.262017-.35534-1.183475-.76508.229714-.11844-.394491 1.14163-.342777zm2.33655-.854742-.35704.132072-.62789-1.697412c-.10825-.292655-.3009-.387741-.57795-.285263l-.40972.151558c-.31217.115475-.40547.342952-.27989.682433l.6019 1.627174-.36289.134237-.931-2.516852.36289-.134237.11259.304363c.0132-.240006.14546-.404249.39664-.492728l.46825-.173209c.44874-.165988.76693.0047.95458.51192zm2.06792-1.827374c.22499.514653.11141.872817-.34075 1.074496l-.59845.266931c-.45215.201679-.79263.04604-1.02143-.466914l-.41438-.929017c-.22371-.501554-.10949-.853172.34267-1.054855l.59845-.26693c.45216-.201676.792-.05259 1.01951.447272zm-.3915.07212-.33557-.752335c-.14067-.315369-.3459-.41289-.61567-.292562l-.44456.19829c-.26598.118638-.33053.336489-.19366.653554l.33557.752334c.14025.324668.34717.425987.62075.303962l.44456-.198291c.26977-.120329.33263-.34198.18858-.664952m4.46353-1.301596-.33861.187233-.83953-1.518279c-.17516-.316759-.39199-.40367-.65049-.260733l-.31677.175154c-.29856.165091-.35379.404816-.1657.719177l.83651 1.512818-.33861.187233-.85765-1.551048c-.16307-.294915-.37568-.369895-.63783-.224943l-.27854.154013c-.29855.16509-.35704.416124-.17546.753103l.82443 1.490972-.33861.187234-1.29856-2.348418.33861-.187232.17818.322223c-.046-.255078.0585-.453083.31335-.594013l.38776-.214413c.29492-.163071.524-.139984.68725.06926-.0504-.271655.061-.482981.33404-.633979l.42599-.235551c.40779-.225482.75463-.07972 1.04051.437295zm1.4835-2.385064-1.40036.937144.1753.273169c.15387.222435.3328.265391.5368.128868l1.01655-.680297.22908.34231-1.01136.676825c-.42415.278843-.78143.197546-1.07185-.243893l-.60218-.888607c-.30081-.449495-.23281-.822907.204-1.120238l.46507-.303724c.40109-.268412.74857-.18306 1.04244.256061zm-1.62597.60002 1.09435-.732361-.18567-.266227c-.14695-.227059-.31724-.2758-.51087-.146223l-.48234.322795c-.22129.148094-.25155.331042-.0908.548848l.1753.273168m2.73193-1.788767.88842 1.119432-.30308.240533-2.28507-2.879237.98745-.783673c.4458-.348485.85233-.291347 1.21959.171412l.25218.317742c.39313.495355.36808.918905-.0751 1.27065l-.68437.543141m-1.14448-1.442063.8923 1.12432.6746-.53538c.24767-.196563.26288-.431719.0456-.705468l-.25606-.322632c-.2069-.260708-.4342-.292782-.68188-.09622l-.67459.53538m5.12058-.06906-.28336.25422-1.20858-1.347133c-.20838-.232261-.4225-.249761-.64238-.0525l-.32517.291728c-.24775.22227-.25077.468118-.009.737542l1.15857 1.291389-.28801.258387-2.46301-2.745364.28801-.258386.88768.989446c-.076-.228034-.0135-.42941.18743-.604131l.37158-.333395c.35614-.319508.7148-.277967 1.07599.124621l1.25026 1.393585m1.18094-2.392904c.3982.396142.42401.770997.0774 1.124566l-.4587.467961c-.34657.353572-.72041.333772-1.12152-.0594l-.72645-.712069c-.3922-.384432-.41501-.753433-.0684-1.107005l.4587-.467961c.34657-.353567.71741-.339622 1.11252.04184l.72645.712072m-.3377.210792-.58829-.576649c-.24661-.241723-.4733-.257109-.68008-.04616l-.34075.347629c-.20386.207985-.18395.434324.0597.67902l.5883.576648c.24963.250523.4793.268821.68899.0549l.34074-.347629c.20678-.210952.18389-.440204-.0687-.687757m1.90278-.71023-.0457.05125c-.40418.45345-.83299.478086-1.28644.07391l-2.06382-1.839561.25746-.288841.74074.660249.39448-.442579.30282.269914-.39449.442579 1.02958.917703c.24536.218699.49953.180523.76253-.114531l.30281.269913m.8518-2.364683c.43386.356726.49499.727464.1834 1.11221l-.41241.509228c-.31159.384749-.68563.400378-1.12211.04689l-.79052-.640211c-.42677-.345634-.48437-.710826-.17277-1.095577l.4124-.509227c.3116-.384745.68209-.405919 1.11149-.06352l.79052.64021m-.31626.241772-.64018-.518453c-.26835-.217329-.49548-.211216-.68139.01834l-.30636.378284c-.18329.226324-.14207.449768.12366.670331l.64018.518453c.2722.225802.50256.222307.69109-.01048l.30636-.378283c.18591-.229555.14146-.455617-.13336-.678187m3.20775-2.92774-.21522.321549-2.55165-1.70785.6237.627718 1.54612 1.650623-.24299.36304-2.08771-.796561-.83712-.342514 2.54647 1.704378-.21869.326737-3.05472-2.04456.3263-.48751 2.79333 1.111139.37876.163394-.28336-.272265-2.10423-2.174367.32629-.487512zm1.23955-2.146916-.67404 1.174584c-.24435.425809-.59721.50154-1.05857.227192-.42942-.246422-.51781-.589755-.26517-1.030001l.46282-.80651-.21421-.115728c-.27733-.168735-.49261-.119589-.64585.147441l-.54047.941833-.35183-.201901.54278-.933313c.30434-.496912.71038-.59009 1.21812-.279537zm-.54442.133693-.63871-.366527-.49699.866052c-.10407.189717-.0496.345663.16325.467837.2093.120106.36882.08453.47857-.106721zm1.73743-2.512641-.16821.341508-1.62356-.799675c-.27992-.137873-.48515-.07431-.61567.190681l-.19302.391895c-.14707.298589-.0582.527849.26646.687782l1.55639.766585-.17097.347108-2.40735-1.185726.17096-.347107.29112.14339c-.15553-.183273-.1726-.393426-.0512-.63046l.2206-.447879c.21142-.429215.55972-.524334 1.04492-.285353l1.67955.827251m.96638-2.287481-.52024 1.250333c-.18859.453271-.52905.572976-1.02138.359117-.45711-.190192-.58817-.519606-.39319-.988241l.35722-.858524-.22712-.08774c-.29642-.132345-.50376-.05639-.62204.227861l-.41714 1.002571-.37453-.155831.42051-.994412c.23913-.531381.63014-.675115 1.17305-.431202l1.62486.676064m-.52317.201408-.6799-.282892-.38358.921905c-.0793.201344-.006.349166.22105.443462.22279.0927.37654.03726.46125-.166332zm1.79984-.826651-.40115-.138435.2789-.808213c.0624-.180913.015-.298514-.14233-.352803l-.28907-.09975-.35219 1.020591c-.13287.37227-.40123.49312-.8051.362552l-1.33916-.462124c-.39722-.137076-.52994-.402939-.39816-.797589l.4723-1.368653 2.8199.973108c.4352.154584.58833.418688.4594.792313l-.30334.879006m-2.71282-2.144305-.32979.955699c-.0611.176983.0106.30076.21515.371333l1.09729.378657c.24777.0855.40572.01678.47386-.206182l.30741-.890804zm1.87641-2.391021-.44892 1.624102.31113.09248c.26176.06804.42535-.01624.49074-.252838l.32589-1.178977.397.109736-.32422 1.172962c-.13924.488128-.46295.6598-.97113.515016l-1.03627-.279964c-.52132-.144097-.71359-.471343-.57683-.981739l.15399-.53369c.12858-.465171.44751-.627372.9568-.486602l.72182.199519m-.83991 1.516029.35083-1.269206-.31446-.08044c-.25954-.07606-.42036-.0018-.48243.222762l-.15463.559413c-.0709.256649.0256.414982.28957.475l.31112.09247m.1259-3.563903-.1143.524392c-.0735.337401.0771.544826.45199.622277l1.66464.36284-.0824.37805-2.62196-.571506.0824-.378049.33537.0731c-.21205-.101602-.27821-.335318-.19846-.701175l.0864-.396343.39634.08639" fill="#666"/><path d="m81.064743 46.186852a35.292206 32.766823 0 1 1 -70.584412 0 35.292206 32.766823 0 1 1 70.584412 0z" fill="none" stroke="url(#C)" stroke-linecap="square" stroke-width="1.943205" transform="matrix(0 -.9917204 1.0681536 0 -1.334651 93.393559)"/><path d="m81.064743 46.186852a35.292206 32.766823 0 1 1 -70.584412 0 35.292206 32.766823 0 1 1 70.584412 0z" fill="#f00" transform="matrix(0 -1.076725 1.1597096 0 -93.563336 97.284435)"/><g opacity=".4" transform="matrix(.52651755 -.85016426 .85016426 .52651755 27.395239 -10.940939)"><path d="m-38.055074 9.2451932c-.0035.1275581-.0287.2421511-.07574.3437795-.0457.1003628-.111843.1858438-.198419.2564432-.08524.069333-.189567.1218679-.312973.1576041-.122108.03577-.261908.05152-.419402.04726-.137971-.0037-.270998-.02166-.399081-.053788-.126783-.032089-.244066-.078248-.35185-.1384785l.01522-.562294c.06167.031629.124001.062624.187005.092985.06304.029061.126798.055535.19128.079424.06578.023925.131038.043276.195767.058053.06603.014814.131583.023101.196664.024862.06638.0018.123195-.00383.170442-.016878.04858-.014315.08754-.034101.116883-.059359.03068-.026523.05301-.057831.06702-.093924.01534-.037358.02361-.078165.02481-.1224204.0014-.053365-.009-.10054-.03134-.1415249-.021-.04225-.05185-.08151-.09255-.117782-.03936-.037536-.08787-.074019-.145529-.109447-.05636-.035391-.119816-.072929-.190381-.1126151-.05903-.032858-.12504-.072419-.198033-.1186838-.07299-.046262-.141801-.1028318-.206421-.1697106-.06328-.068142-.115801-.14902-.157554-.2426338-.04172-.094912-.06082-.2074489-.05729-.3376115.0035-.1275552.02736-.2408819.07173-.3399804.0457-.1003599.108533-.1839766.188498-.2508502.08-.06817.175809-.118981.287433-.1524337.112924-.033412.238371-.048252.376343-.044519.06898.00187.135893.00824.200728.019111.06613.010911.130862.025689.194184.044334.06462.018686.129137.041273.193549.067762.06441.026495.130667.056945.198773.09135l-.207979.4652454c-.05783-.028917-.111849-.054477-.162047-.076679-.0502-.022198-.09919-.041108-.146956-.056732-.04777-.015619-.095-.027318-.14168-.035097-.04535-.00904-.09145-.014196-.138304-.015467-.101526-.00275-.180362.022474-.236509.075659-.05481.051923-.08343.1227894-.08586.2125981-.0013.048161.0053.091326.01994.1294932.01593.036905.04103.072102.07529.1055919.03556.033529.08087.06797.135926.1033256.05635.035394.124299.075659.203837.1207947.09621.054709.184575.1105056.265098.1673914.08056.055587.149221.1173638.205998.18533.05811.066702.102309.1421447.132596.2263273.03028.084185.04391.1822455.04088.2941828"/><path d="m-35.376652 10.262772-.600958-.05551.113349-1.2271985-.966589-.089278-.113349 1.2271985-.602902-.05569.262625-2.8433657.602903.055687-.102931 1.1143972.966589.089278.10293-1.1143972.600958.055507-.262625 2.8433657"/><path d="m-32.023905 9.3524579c-.03689.2169388-.09618.4102564-.177863.5799532-.08041.1699159-.1834.3095739-.308983.4189759-.125588.109402-.273861.185228-.44482.227479-.169678.04247-.362344.04537-.577996.0087-.215656-.03667-.397177-.103198-.544562-.199581-.146104-.09617-.260339-.21663-.342705-.361392-.08108-.1445442-.132128-.3103959-.153133-.4975559-.0195-.1882239-.0107-.391447.0264-.6096699.03711-.2182201.09575-.4116468.175938-.5802805.08169-.1696952.185213-.3086028.310581-.4167231.125366-.1081155.272779-.1827674.442239-.2239558.170959-.042248.364908-.04493.581848-.00804.215652.036673.39653.1030909.542636.1992539.146318.094884.26002.2145971.341106.3591391.08258.1434808.133736.3086906.153461.49563.02122.1858772.01317.3885676-.02415.6080718m-1.910082-.3247954c-.0251.1476217-.03486.2826629-.02927.4051239.0058.1211791.02804.2273199.06671.3184227.04016.090039.09697.1637553.170417.2211507.07345.057397.166011.095588.27769.1145795.114244.01943.215513.01419.303806-.0157.08957-.02967.16691-.080581.23201-.1527213.0666-.073204.122024-.1661394.166279-.2788055.04575-.1137301.08118-.2444058.106284-.3920273.0251-.1476194.03475-.2820188.02894-.4031984-.0043-.1222422-.0258-.2289157-.06445-.3200208-.03738-.090883-.09279-.1650236-.166238-.2224213-.07345-.057394-.166656-.095696-.279616-.1149062-.11168-.018988-.212307-.013646-.301881.016027-.08958.029677-.168306.081007-.236188.1539917-.0666.073207-.122778.1666744-.168531.2804035-.04554.1124489-.08086.2424827-.105957.3901019"/><path d="m-30.79207 11.121985-.5868-.141053.549606-2.2864343-.696945-.1675294.117773-.48995 1.978791.4756556-.117773.4899501-.695046-.1670729z"/><path d="m-27.138001 12.212823-.653841-.21248.100873-1.447915c.0011-.02018.0033-.0482.0068-.08405.0047-.03545.0095-.07563.01453-.120552.005-.04492.01063-.0917.01685-.140333.0062-.04864.01266-.09583.01931-.141588.0067-.04575.01272-.087595.0182-.1255202.0071-.038758.01306-.069686.01783-.092782-.0097.021487-.02371.049798-.04198.084935-.01663.034303-.0357.071918-.05721.1128432-.02112.03969-.04345.08104-.06701.124036-.02232.0434-.04466.08475-.06701.124035-.02111.03969-.04102.07566-.05972.107922-.0187.03226-.03374.05749-.04514.07569l-.764651 1.228097-.655699-.213084.228678-2.9281503.566538.1841095-.173357 1.5824908c-.0027.02102-.0072.05173-.01351.09213-.0046.03957-.01028.08428-.0169.134158-.0066.04987-.01405.102224-.02229.157051-.007.05523-.01421.10902-.02164.16137-.0074.05235-.01447.101404-.02113.14716-.0063.04452-.01195.081-.01709.109453.01257-.02604.02879-.0591.04866-.09919.02111-.03969.04303-.08185.06575-.126497.02312-.04588.04727-.0928.07244-.140753.02641-.04755.05036-.09179.07188-.132719.02192-.04217.0414-.07896.05846-.110383.0187-.03226.03232-.05521.04086-.06887l.871453-1.3987567.505241.1641895-.117306 1.6438332c-.0011.01607-.0042.04244-.0093.07913-.0034.03585-.0087.07727-.01574.124267-.0054.04616-.01204.09603-.01987.149621-.0078.05359-.01588.105738-.02414.156448-.0066.04987-.01368.09687-.02117.140983-.0063.04452-.01195.081-.01709.109453.01257-.02604.02879-.0591.04866-.09919.02151-.04093.04465-.08475.06942-.131465.02476-.04672.04993-.09467.0755-.143865.0268-.04879.05219-.0953.07615-.139545.02396-.04424.04507-.08393.06334-.119067.0199-.03597.03493-.06326.04509-.08187l.790049-1.3820832.566538.1841096-1.53636 2.5031886"/><path d="m-24.637924 13.221912-1.519087-.629965 1.093833-2.6376558 1.519088.6299648-.190037.458252-.959803-.39803-.240165.57913.893051.370347-.190037.458252-.893051-.370347-.282062.680161.959804.39803z"/><path d="m-24.094466 13.471478 1.244844-2.569838.544904.263955-1.026868 2.119852.935125.45298-.217975.449985z"/><path d="m-22.176835 14.422999 1.387988-2.495434.529127.294307-1.144947 2.058477.908051.505068-.24304.436957z"/></g><g opacity=".4" transform="matrix(-.37871508 .92551331 -.92551331 -.37871508 76.821009 102.93302)"><path d="m-38.938867 8.4309909.124633.00404c.178434.00578.313748-.025292.405942-.093213.09355-.067873.14291-.1814939.148071-.3408624.0048-.1484676-.03251-.2594402-.111939-.332918-.07807-.073429-.203602-.1129453-.376588-.1185484l-.16141-.00523-.02871.8867323m1.320927-.4317436c-.0042.1307642-.02804.2554386-.07142.3740235-.04339.1185881-.112183.2220345-.206397.3103397-.09286.088352-.2144.1573657-.364632.207042-.148873.049723-.332277.071055-.550213.063998l-.145065-.0047-.0344 1.062444-.63338-.020506.09671-2.9871029.829524.026857c.192055.00622.356846.033373.494371.081456.138928.046771.252042.1117917.339341.1950639.0887.08196.152972.1815332.192813.2987211.03988.1158305.05746.2466173.05275.3923607"/><path d="m-35.198904 10.287271-.620425-.06176.132217-1.3283195c.01633-.1640892.0028-.2893827-.04065-.3758808-.04194-.087716-.115804-.1368393-.22158-.1473697-.08001-.00796-.14876.00163-.206243.028775-.05749.027149-.105674.070972-.144563.1314683-.03889.060499-.06978.1368597-.09265.2290808-.02288.092224-.04032.1986821-.05233.3193757l-.106502 1.0699792-.620425-.06175.315052-3.1651852.620426.061755-.06419.6448353c-.0057.056959-.01303.1171717-.02209.1806371-.0089.062114-.01805.1194113-.02738.1718929-.01163.061844-.02246.1223966-.03246.1816589l.03255.00324c.07819-.1113663.171387-.1876872.279582-.2289631.108328-.042628.227587-.057463.357776-.044507.112556.011206.212645.037603.300268.079192.08911.040372.162837.097699.221184.1719824.05834.074287.09988.1660731.124612.2753583.02486.1079324.03001.2351282.01543.3815878l-.147605 1.4829176"/><path d="m-33.859964 9.3299148c-.03778.2244349-.0347.3990842.0092.5239483.04416.1235212.13747.1972709.279926.2212489.14111.02375.252862-.01617.335255-.1197741.08239-.1036006.142362-.2669461.179914-.4900369.03778-.224433.03436-.3970664-.01026-.5179007-.04439-.1221754-.138484-.195366-.282282-.2195719-.141112-.02375-.252638.01483-.334576.1157419-.08037.099797-.139443.2619116-.177219.4863445m1.431271.2409128c-.03167.1881489-.08391.3507227-.156721.4877214-.07147.137226-.160595.247986-.267374.33228-.10544.08452-.227078.142128-.364915.172825-.136269.02958-.284366.03091-.444291.004-.149176-.02511-.281957-.07372-.398345-.145823-.116162-.07345-.211567-.167592-.286213-.282424-.0733-.114605-.123274-.2487777-.149912-.4025171-.02664-.1537382-.02412-.3246817.0075-.512831.03144-.1868031.0829-.348818.154366-.4860452.07281-.1369977.161822-.2470854.267035-.3302634.106781-.084292.228306-.1412282.364575-.1708092.136267-.029577.285036-.030794.446307-.00365.149173.025111.281954.073719.398345.1458233.116386.072108.211231.1654641.284537.2800682.07487.1134897.125626.2471031.152267.4008407.02663.1537401.02423.3240116-.0072.5108151"/><path d="m-31.08605 10.580602c.05981.01355.117803.01971.173981.01847.0575-.000942.116428-.0051.176771-.01234l-.102564.452564c-.06378.01629-.14031.0241-.229589.02343-.08825.00096-.182222-.0099-.281905-.03245-.09703-.02199-.184846-.05377-.263459-.09534-.07861-.04157-.142165-.0972-.190653-.166876-.04819-.07101-.07953-.157762-.09403-.260262-.01287-.103528-.003-.227064.02949-.370609l.243533-1.0745913-.291077-.065966.05828-.2571841.381024-.1274485.282074-.430747.388766.088106-.107534.4744948.54228.122896-.103468.4565517-.542279-.1228961-.243533 1.0745915c-.01958.08639-.01277.15501.02042.205851.03319.05084.08435.08409.153462.09976"/><path d="m-29.587539 10.25118c-.0627.218785-.07922.392678-.04956.521681.03003.127694.114486.21144.253356.251238.137557.03942.25308.01228.346569-.08143.09349-.09371.171393-.249301.233722-.466775.0627-.218783.07866-.390711.04787-.5157857-.03041-.1263821-.115708-.2096607-.255884-.2498362-.137561-.039422-.252708-.013588-.345444.0775-.09105.090157-.167929.2446259-.230629.4634089m1.395237.399864c-.05257.183412-.122706.339104-.210416.467076-.0864.128347-.187385.228416-.302942.300207-.114252.07217-.241582.115772-.381991.130822-.138726.01411-.286038-.0012-.441937-.04585-.14542-.04168-.271914-.104864-.379484-.189565-.107195-.08601-.191443-.190255-.252744-.312732-.05999-.122102-.0946-.26103-.103838-.416787-.0092-.155756.01243-.325339.065-.508752.05219-.1821001.121483-.3373245.207886-.4656736.08771-.1279706.188505-.2273845.30238-.2982419.115558-.071788.242701-.1147407.381427-.1288571.138724-.014113.286691.00136.443902.046411.145417.041678.271912.1048661.379484.1895651.107568.084702.191349.1881036.251343.3102038.06167.1211685.09713.25963.106365.4153857.0092.155757-.01225.324686-.06443.506786"/><path d="m-25.803672 12.738928.289224-2.417587-.017-.007c-.04034.118997-.08037.233693-.120103.344088-.01674.04764-.03464.09628-.05368.145923-.01778.05016-.03594.09943-.05446.147812-.01726.0489-.03501.09539-.05323.139475-.01696.0446-.03273.08454-.04731.119801l-.530993 1.284664-.523312-.216301 1.141636-2.7620292.797248.3295283-.276025 2.3588959.01133.0047 1.507792-1.849767.797247.329529-1.141636 2.762029-.545982-.225673.540364-1.307335c.01353-.03275.02889-.0699.04607-.111463.01844-.04104.03792-.0846.05844-.130684.02052-.04608.0413-.09279.06234-.140129.0223-.04682.04345-.09264.06345-.137459.04876-.103713.09872-.212095.149877-.325146l-.01511-.0062-1.547767 1.892967-.538426-.222549"/><path d="m-22.265104 14.380678.03463-.331506-.01637-.0084c-.06802.03401-.132305.06075-.192853.08022-.05993.01825-.120068.02797-.180421.02915-.06035.0012-.123347-.0074-.188976-.02579-.06442-.01776-.135423-.04655-.213013-.08639-.08244-.04233-.152283-.09427-.209527-.155837-.05662-.06278-.09762-.133612-.122981-.21251-.02353-.07949-.0293-.166709-.01731-.261664.01261-.09617.04724-.199412.103882-.309737.1108-.215799.261449-.339136.451946-.370012.191118-.03209.427081.01706.707889.147454l.329302.155291.07843-.152757c.04295-.08365.05045-.157931.0225-.222839-.02795-.06491-.08558-.119768-.172863-.164588-.08729-.04482-.179298-.07597-.276021-.09346-.09551-.01687-.195989-.02556-.301427-.02608l.0086-.459781c.131092-.0047.266873.0083.407342.0391.140465.03076.27859.081.414376.150715.25338.130099.416855.289101.490427.477005.07478.188529.04992.404029-.07457.646499l-.695618 1.354807-.387347-.198881m.319996-1.026034-.187407-.08703c-.0752-.03555-.142616-.0579-.202248-.06708-.05964-.0092-.112682-.0073-.159141.0056-.04463.01232-.08449.03475-.119574.06729-.03326.03195-.06233.07217-.08723.120664-.04358.08487-.05409.156065-.03154.213599.02317.05632.06809.101602.134772.135838.05092.02614.102557.04193.154917.04737.05298.0042.103947-.0025.152899-.02031.05078-.01835.09803-.04771.141739-.08808.04433-.04158.0833-.09511.116914-.160573l.0859-.167305"/><path d="m-19.614578 15.90957-.534571-.320897.687035-1.144507c.08487-.141384.126731-.260106.125585-.356166.000719-.09653-.04566-.172846-.139133-.22896-.07011-.04208-.13695-.06313-.20052-.06315-.06357-.000013-.125865.01902-.186873.0571-.05984.03879-.119804.09498-.179885.168593-.06008.07361-.121338.162411-.183762.266404l-.553416.921915-.534571-.320897 1.176272-1.959509.408377.245145-.07859.293771.0298.01789c.0582-.03341.11804-.0563.179513-.06868.06264-.01167.124925-.01481.186863-.0094.06193.0054.122931.01896.182995.04071.06076.02058.119186.04771.175275.08137.09581.05752.174444.123794.2359.198831.06215.07387.103736.156851.124754.248941.02101.09209.01936.192825-.005.302201-.02363.108209-.07332.22541-.149073.351603l-.766996 1.277712"/><path d="m-17.987307 17.018158.07809-.324034-.01511-.01049c-.07192.02474-.139167.04276-.201755.05406-.06181.01018-.12271.01188-.182691.0051-.05998-.0068-.121289-.02363-.183918-.05051-.06151-.0261-.128093-.06402-.199745-.113752-.07613-.05284-.138507-.113551-.187124-.182131-.04784-.0697-.07912-.145328-.09385-.226884-.01283-.0819-.007-.169118.01738-.26166.02519-.09366.07315-.191432.143858-.293314.138316-.199285.303926-.301658.496832-.307119.193681-.0066.421092.07329.682232.239605l.305921.197398.09791-.141067c.05362-.07725.07085-.14989.05172-.21792-.01914-.06803-.06902-.130016-.149625-.185965-.08061-.05595-.167702-.09897-.261269-.129081-.09245-.02933-.190901-.05121-.295347-.06564l.06919-.454626c.130565.01265.263437.0435.398617.09253.135175.04903.265461.117063.390856.204093.23399.162406.375047.341595.423172.537566.04924.196751-.0038.407083-.159256.630999l-.868363 1.251132-.357707-.24827m.452632-.974818-.174279-.111006c-.06985-.04516-.133725-.07622-.191625-.09319-.0579-.01696-.110733-.02211-.15849-.01544-.04586.0063-.08833.0233-.127409.05092-.03718.02728-.07131.06331-.102396.108093-.05439.07837-.07421.14756-.05946.207568.01553.05889.05408.1097.115662.152439.04702.03264.09612.0551.147309.0674.05196.01118.103374.0112.154242.000054.05276-.01149.10347-.03436.152124-.0686.04943-.03537.09512-.08328.137088-.143736l.107234-.154503"/><path d="m-14.216583 17.032251-.210352.26628-.326095-.124741c-.0073.05326-.02236.103047-.04505.149373-.02186.04526-.05053.09034-.08601.135257-.07181.0909-.152139.162908-.240991.216026-.08801.05205-.181474.08242-.28039.09112-.09892.0087-.202981-.0058-.312185-.04341-.108363-.03871-.219222-.102838-.332577-.192385-.0246-.01943-.05049-.04162-.07767-.06657-.02634-.02602-.04519-.04612-.05656-.06031-.03575.0013-.06807.007-.09695.0172-.02697.01-.05144.02884-.0734.05664-.01774.02246-.02515.04613-.02223.07101.0038.02381.0135.04887.0292.07517.01654.02523.03852.05127.06593.07813.02825.02579.05842.05136.0905.0767l.279113.220489c.08662.06843.156126.139834.208519.214219.05323.07332.08733.148877.102281.226685.01602.07865.01194.159663-.01223.243034-.02333.0823-.06921.166759-.137639.253382-.08026.101592-.172804.176975-.277644.226149-.105687.05024-.221554.0716-.347601.06408-.125824-.0056-.260449-.04076-.403876-.105427-.144272-.0636-.295009-.157498-.45221-.28168-.121912-.09631-.219025-.192127-.291339-.287459-.07316-.09427-.122897-.187397-.149217-.279394-.02716-.09093-.03218-.179121-.01504-.264575.01821-.08461.05773-.165414.118551-.24241.05153-.06523.107535-.113042.168007-.143425.06047-.03038.12294-.0479.187403-.05255.06446-.0047.128667.000911.192617.01669.06502.01663.127305.03891.18686.06685-.01486-.02737-.02675-.05847-.03569-.09332-.0079-.03401-.01203-.06942-.01247-.106238.00063-.03597.0056-.07197.01498-.108002.01127-.03625.02873-.06935.05239-.09929.02703-.03422.05634-.06143.08793-.08163.03266-.01936.0679-.03319.105739-.04152.03868-.0094.0809-.01337.126673-.01195.04577.0014.0957.0053.149805.01153-.06201-.114978-.08533-.239346-.06998-.373106.01642-.132913.07278-.260325.169092-.382238.07603-.09625.159006-.170505.248931-.222779.08992-.05227.184454-.0818.283598-.08858.09999-.0079.203737.0081.311255.04789.107514.03978.216881.103597.328101.191454.02139.0169.04418.03751.06838.06183.02504.02326.04871.04716.071.07172.0242.02433.04584.0475.06492.06952s.03376.0397.04406.05305l.609559.481529m-2.897669 1.029882c-.02112.02673-.03605.05662-.04478.08967-.0085.03496-.0075.0722.0029.111724.01046.03952.03232.0811.06558.124747.03241.04471.0791.09114.140055.139294.166826.131786.311066.207521.43272.227207.121652.01968.213736-.01004.276251-.08918.05322-.06737.0625-.132985.02784-.196836-.03466-.06385-.107065-.139285-.217213-.226297l-.226178-.178673c-.02887-.02281-.06242-.0441-.100641-.06387-.03907-.0187-.07926-.03048-.120579-.03533-.04132-.0049-.08259-.000982-.123802.01162-.04099.01451-.07838.04316-.112171.08593m1.329585-1.320343c-.07688.09732-.118255.18707-.124133.269262-.0059.08219.02807.152435.101864.210725.077.06083.153723.07802.230185.05158.07646-.02644.153126-.08831.230004-.185628.07603-.09625.11932-.186225.129875-.269937.01162-.08287-.0216-.155133-.09967-.216804-.14651-.115734-.302553-.0688-.468129.140801"/><path d="m-13.363946 18.312545c-.0822-.07368-.176629-.106153-.283276-.09743-.105636.0096-.217998.07272-.337088.189255l.592158.530756c.04537-.05267.08153-.106276.108466-.160829.02693-.05455.04232-.108475.04617-.161766.0047-.0543-.003-.106964-.02312-.157978-.02016-.05101-.0546-.09835-.10331-.142011m-1.225909 1.487177c-.121781-.109153-.218003-.227425-.288664-.354814-.07066-.12739-.111199-.259805-.121609-.397245-.0095-.138455.01361-.280623.06933-.426504.05764-.145987.152412-.292556.284306-.439708.133712-.14918.269371-.262759.406978-.340736.137604-.07798.273098-.123988.40648-.138038.135303-.01415.266973.0023.395011.04933.129048.04795.251418.12378.367112.227475.112645.100967.198665.20918.258061.324639.06132.115355.09387.234212.09767.356572.0048.12327-.01925.248118-.07217.374544-.051.126322-.131987.251387-.242956.375198l-.201933.225294-1.038179-.93053c-.05619.06677-.09879.134726-.127827.20387-.02711.06904-.04029.136834-.03955.203386.0027.06645.01921.130685.04962.192719.03143.06294.0781.122157.140002.177644.05175.04639.102742.08751.152959.123372.05214.03575.10503.0676.158676.09556.05364.02795.109052.05291.166231.07487.05808.02095.11946.04027.184126.05797l-.322002.359253c-.0597-.01507-.11717-.03365-.172421-.05572-.05333-.02218-.107376-.04866-.162138-.07944-.05476-.03078-.110352-.0678-.166761-.111037-.05732-.04223-.11744-.09154-.180359-.147932"/><path d="m-11.023598 19.944338c.01155.01158.02358.0246.0361.03906.01444.01447.02695.02894.03754.0434.01251.01447.0231.02797.03176.0405.01059.01254.0178.02266.02165.03038l-.413816.413005c-.0058-.0096-.01444-.02218-.02598-.03761-.01155-.01543-.02454-.03134-.03898-.04774-.01251-.01639-.02599-.03183-.04043-.0463-.01348-.01543-.02503-.02797-.03465-.03762-.0568-.05691-.116505-.102263-.179108-.136052-.06164-.03282-.126192-.05023-.193644-.05223-.06553-.002-.134446.01384-.206752.0475-.07038.03366-.143674.08852-.219876.16457l-.823292.821676-.440441-.441307 1.617645-1.614471.33358.334236-.178098.307715.02166.0217c.06458-.01825.127231-.03071.187951-.0374.06072-.0067.119015-.0052.1749.0045.05781.0097.113681.02902.16762.05798.05586.02896.110749.07046.164664.124474"/></g></g><path d="m12 6c-3.324 0-6 2.676-6 6v2 68 2c0 .334721.04135.6507.09375.96875.0487.295596.09704.596915.1875.875.00988.03038.020892.0636.03125.09375.098865.287771.2348802.547452.375.8125.1445918.273507.3156161.535615.5.78125s.3737765.473472.59375.6875c.439947.428056.94291.814526 1.5 1.09375.278545.139612.5734731.246947.875.34375-.2562018-.100222-.4867109-.236272-.71875-.375-.00741-.0044-.023866.0045-.03125 0-.031933-.0193-.062293-.04251-.09375-.0625-.120395-.0767-.2310226-.163513-.34375-.25-.1061728-.0808-.2132809-.161112-.3125-.25-.1779299-.161433-.3474596-.345388-.5-.53125-.1075789-.130255-.2183939-.265285-.3125-.40625-.025089-.03838-.038446-.08587-.0625-.125-.064763-.103032-.1302275-.204517-.1875-.3125-.1010083-.194706-.2056748-.415701-.28125-.625-.00796-.02181-.023589-.04055-.03125-.0625-.0318251-.09195-.0358045-.186831-.0625-.28125-.0303323-.106618-.0703894-.203031-.09375-.3125-.0728786-.341512-.125-.698205-.125-1.0625v-2-68-2c0-2.781848 2.2181517-5 5-5h2 68 2c2.781848 0 5 2.218152 5 5v2 68 2c0 .364295-.05212.720988-.125 1.0625-.04415.206893-.08838.397658-.15625.59375-.0077.02195-.0233.04069-.03125.0625-.06274.173739-.138383.367449-.21875.53125-.04158.0828-.07904.169954-.125.25-.0546.09721-.126774.18835-.1875.28125-.09411.140965-.204921.275995-.3125.40625-.143174.17445-.303141.346998-.46875.5-.01117.0102-.01998.02115-.03125.03125-.138386.125556-.285091.234436-.4375.34375-.102571.07315-.204318.153364-.3125.21875-.0074.0045-.02384-.0044-.03125 0-.232039.138728-.462548.274778-.71875.375.301527-.0968.596455-.204138.875-.34375.55709-.279224 1.060053-.665694 1.5-1.09375.219973-.214028.409366-.441865.59375-.6875s.355408-.507743.5-.78125c.14012-.265048.276135-.524729.375-.8125.01041-.03078.02133-.06274.03125-.09375.09046-.278085.1388-.579404.1875-.875.0524-.31805.09375-.634029.09375-.96875v-2-68-2c0-3.324-2.676-6-6-6z" fill="url(#d)" opacity=".5"/><path d="m12 90c-3.324 0-6-2.676-6-6v-2-68-2c0-.334721.04135-.6507.09375-.96875.0487-.295596.09704-.596915.1875-.875.00988-.03038.020892-.0636.03125-.09375.098865-.287771.2348802-.547452.375-.8125.1445918-.273507.3156161-.535615.5-.78125s.3737765-.473472.59375-.6875c.439947-.428056.94291-.814526 1.5-1.09375.278545-.139612.5734731-.246947.875-.34375-.2562018.100222-.4867109.236272-.71875.375-.00741.0044-.023866-.0045-.03125 0-.031933.0193-.062293.04251-.09375.0625-.120395.0767-.2310226.163513-.34375.25-.1061728.0808-.2132809.161112-.3125.25-.1779299.161433-.3474596.345388-.5.53125-.1075789.130255-.2183939.265285-.3125.40625-.025089.03838-.038446.08587-.0625.125-.064763.103032-.1302275.204517-.1875.3125-.1010083.194706-.2056748.415701-.28125.625-.00796.02181-.023589.04055-.03125.0625-.0318251.09195-.0358045.186831-.0625.28125-.0303323.106618-.0703894.203031-.09375.3125-.0728786.341512-.125.698205-.125 1.0625v2 68 2c0 2.781848 2.2181517 5 5 5h2 68 2c2.781848 0 5-2.218152 5-5v-2-68-2c0-.364295-.05212-.720988-.125-1.0625-.04415-.206893-.08838-.397658-.15625-.59375-.0077-.02195-.0233-.04069-.03125-.0625-.06274-.173739-.138383-.367449-.21875-.53125-.04158-.0828-.07904-.169954-.125-.25-.0546-.09721-.126774-.18835-.1875-.28125-.09411-.140965-.204921-.275995-.3125-.40625-.143174-.17445-.303141-.346998-.46875-.5-.01117-.0102-.01998-.02115-.03125-.03125-.138386-.125556-.285091-.234436-.4375-.34375-.102571-.07315-.204318-.153364-.3125-.21875-.0074-.0045-.02384.0044-.03125 0-.232039-.138728-.462548-.274778-.71875-.375.301527.0968.596455.204138.875.34375.55709.279224 1.060053.665694 1.5 1.09375.219973.214028.409366.441865.59375.6875s.355408.507743.5.78125c.14012.265048.276135.524729.375.8125.01041.03078.02133.06274.03125.09375.09046.278085.1388.579404.1875.875.0524.31805.09375.634029.09375.96875v2 68 2c0 3.324-2.676 6-6 6z" fill="url(#E)" opacity=".45"/></svg>