<svg height="96" width="96" xmlns="http://www.w3.org/2000/svg" xmlns:xlink="http://www.w3.org/1999/xlink"><linearGradient id="a"><stop offset="0" stop-color="#fefefe"/><stop offset="1" stop-color="#fefefe" stop-opacity="0"/></linearGradient><linearGradient id="b" gradientUnits="userSpaceOnUse" x1="36.357143" x2="36.357143" xlink:href="#a" y1="6" y2="63.893143"/><filter id="c" color-interpolation-filters="sRGB" height="1.384" width="1.384" x="-.192" y="-.192"><feGaussianBlur stdDeviation="5.28"/></filter><linearGradient id="d" gradientUnits="userSpaceOnUse" x1="48" x2="48" xlink:href="#a" y1="20.220806" y2="138.66119"/><radialGradient id="e" cx="48" cy="90.171875" gradientTransform="matrix(1.1573129 0 0 .99590774 -7.551021 .197132)" gradientUnits="userSpaceOnUse" r="42" xlink:href="#a"/><clipPath id="f"><rect height="84" rx="6" width="84" x="6" y="6"/></clipPath><linearGradient id="g" gradientUnits="userSpaceOnUse" x1="48" x2="48" y1="90" y2="5.987717"><stop offset="0" stop-color="#45a4d4"/><stop offset="1" stop-color="#94c8e0"/></linearGradient><linearGradient id="h" gradientTransform="matrix(1.0058652 0 0 .994169 100 0)" gradientUnits="userSpaceOnUse" x1="45.447727" x2="45.447727" y1="92.539597" y2="7.01654"><stop offset="0"/><stop offset="1" stop-opacity=".588235"/></linearGradient><linearGradient id="i" gradientTransform="matrix(1.0238095 0 0 1.0119048 -1.142857 -98.071429)" gradientUnits="userSpaceOnUse" x1="32.251034" x2="32.251034" xlink:href="#h" y1="6.131708" y2="90.238609"/><linearGradient id="j" gradientTransform="translate(0 -97)" gradientUnits="userSpaceOnUse" x1="32.251034" x2="32.251034" xlink:href="#h" y1="6.131708" y2="90.238609"/><radialGradient id="k" cx="353.6283" cy="241.04938" gradientTransform="matrix(-1 0 0 .9878188 582.03434 46.933265)" gradientUnits="userSpaceOnUse" r="220.11942" xlink:href="#n"/><radialGradient id="l" cx="353.6283" cy="241.04938" gradientTransform="matrix(-.999176 -.04058612 -.04009174 .9870049 587.79647 48.361326)" gradientUnits="userSpaceOnUse" r="220.11942" xlink:href="#n"/><filter id="m" color-interpolation-filters="sRGB"><feBlend in2="BackgroundImage" mode="multiply"/></filter><linearGradient id="n"><stop offset="0" stop-color="#44b5e8"/><stop offset="1" stop-color="#116b98"/></linearGradient><radialGradient id="o" cx="353.6283" cy="241.04938" gradientTransform="matrix(-.14010564 0 0 .13702439 96.633969 20.542549)" gradientUnits="userSpaceOnUse" r="220.11942" xlink:href="#n"/><radialGradient id="p" cx="353.6283" cy="241.04938" gradientTransform="matrix(-.13999019 -.00562986 -.00561708 .1369115 97.441273 20.740641)" gradientUnits="userSpaceOnUse" r="220.11942" xlink:href="#n"/><radialGradient id="q" cx="353.6283" cy="241.04938" gradientTransform="matrix(-.14010564 0 0 .13702439 186.63397 20.542549)" gradientUnits="userSpaceOnUse" r="220.11942" xlink:href="#n"/><radialGradient id="r" cx="353.6283" cy="241.04938" gradientTransform="matrix(-.13999019 -.00562986 -.00561708 .1369115 187.44127 20.740641)" gradientUnits="userSpaceOnUse" r="220.11942" xlink:href="#n"/><radialGradient id="s" cx="353.6283" cy="241.04938" gradientTransform="matrix(-.14010564 0 0 .13702439 96.633969 110.54255)" gradientUnits="userSpaceOnUse" r="220.11942" xlink:href="#n"/><clipPath id="t"><path d="m69.59375-44c-9.3899.107682-23.87987 2.6857-28.40625 8.03125-3.614707 5.19851-4.058095 25.56562-3.125 24.3125 7.690474-10.32808 26.131922-23.08265 37.125-28.21875 5.944988-2.777574 1.709505-4.208752-5.59375-4.125zm-9.0625 16.84375c-6.358079.45418-17.54026 11.14799-15.96875 11.09375 12.998614-.44859 21.139031.31977 31.28125 3.4375 1.501742.46164-1.635623-13.48623-15.3125-14.53125zm-6.84375 11.15625c-.335662.0171-.487336.12156-.375.28125 7.433416 10.56703 11.204684 17.71725 14.0625 27.84375.423153 1.49941 10.565461-8.65224 4.03125-20.59375-3.355724-4.41116-15.369113-7.65095-17.71875-7.53125zm3.84375 8.46875c-.07395-.0188-.13144.0309-.15625.125-3.283392 12.46026-6.331882 19.9571-12.25 28.6875-.876283 1.2927 13.514543 2.30156 18.4375-10.375 1.292639-5.77676-4.922018-18.15493-6.03125-18.4375zm-3.625 7.96875c-.03023-.007-.04942.0103-.09375.0312-11.733345 5.55657-19.475906 8.09299-30.03125 9.25-1.562909.17132 6.916816 11.70602 19.875 7.25 5.467993-2.84143 11.187041-16.30416 10.25-16.53125z"/></clipPath><filter id="u" color-interpolation-filters="sRGB"><feGaussianBlur stdDeviation="1.2041748"/></filter><g fill="url(#i)"><path d="m12-95.03125c-5.5110903 0-10.03125 4.52016-10.03125 10.03125v71c0 5.5110902 4.5201598 10.03125 10.03125 10.03125h72c5.51109 0 10.03125-4.5201597 10.03125-10.03125v-71c0-5.51109-4.52016-10.03125-10.03125-10.03125z" opacity=".08" transform="scale(1 -1)"/><path d="m12-94.03125c-4.971633 0-9.03125 4.059617-9.03125 9.03125v71c0 4.9716329 4.0596171 9.03125 9.03125 9.03125h72c4.971633 0 9.03125-4.059617 9.03125-9.03125v-71c0-4.971633-4.059617-9.03125-9.03125-9.03125z" opacity=".1" transform="scale(1 -1)"/><path d="m12-93c-4.4091333 0-8 3.590867-8 8v71c0 4.4091333 3.5908667 8 8 8h72c4.409133 0 8-3.5908667 8-8v-71c0-4.409133-3.590867-8-8-8z" opacity=".2" transform="scale(1 -1)"/><rect height="85" opacity=".3" rx="7" transform="scale(1 -1)" width="86" x="5" y="-92"/></g><rect fill="url(#j)" height="84" opacity=".45" rx="6" transform="scale(1 -1)" width="84" x="6" y="-91"/><rect fill="url(#g)" height="84" rx="6" width="84" x="6" y="6"/><path d="m12 6c-3.324 0-6 2.676-6 6v2 68 2c0 .334721.04135.6507.09375.96875.0487.295596.09704.596915.1875.875.00988.03038.020892.0636.03125.09375.098865.287771.2348802.547452.375.8125.1445918.273507.3156161.535615.5.78125s.3737765.473472.59375.6875c.439947.428056.94291.814526 1.5 1.09375.278545.139612.5734731.246947.875.34375-.2562018-.100222-.4867109-.236272-.71875-.375-.00741-.0044-.023866.0045-.03125 0-.031933-.0193-.062293-.04251-.09375-.0625-.120395-.0767-.2310226-.163513-.34375-.25-.1061728-.0808-.2132809-.161112-.3125-.25-.1779299-.161433-.3474596-.345388-.5-.53125-.1075789-.130255-.2183939-.265285-.3125-.40625-.025089-.03838-.038446-.08587-.0625-.125-.064763-.103032-.1302275-.204517-.1875-.3125-.1010083-.194706-.2056748-.415701-.28125-.625-.00796-.02181-.023589-.04055-.03125-.0625-.0318251-.09195-.0358045-.186831-.0625-.28125-.0303323-.106618-.0703894-.203031-.09375-.3125-.0728786-.341512-.125-.698205-.125-1.0625v-2-68-2c0-2.781848 2.2181517-5 5-5h2 68 2c2.781848 0 5 2.218152 5 5v2 68 2c0 .364295-.05212.720988-.125 1.0625-.04415.206893-.08838.397658-.15625.59375-.0077.02195-.0233.04069-.03125.0625-.06274.173739-.138383.367449-.21875.53125-.04158.0828-.07904.169954-.125.25-.0546.09721-.126774.18835-.1875.28125-.09411.140965-.204921.275995-.3125.40625-.143174.17445-.303141.346998-.46875.5-.01117.0102-.01998.02115-.03125.03125-.138386.125556-.285091.234436-.4375.34375-.102571.07315-.204318.153364-.3125.21875-.0074.0045-.02384-.0044-.03125 0-.232039.138728-.462548.274778-.71875.375.301527-.0968.596455-.204138.875-.34375.55709-.279224 1.060053-.665694 1.5-1.09375.219973-.214028.409366-.441865.59375-.6875s.355408-.507743.5-.78125c.14012-.265048.276135-.524729.375-.8125.01041-.03078.02133-.06274.03125-.09375.09046-.278085.1388-.579404.1875-.875.0524-.31805.09375-.634029.09375-.96875v-2-68-2c0-3.324-2.676-6-6-6z" fill="url(#b)" opacity=".4"/><path d="m12 90c-3.324 0-6-2.676-6-6v-2-68-2c0-.334721.04135-.6507.09375-.96875.0487-.295596.09704-.596915.1875-.875.00988-.03038.020892-.0636.03125-.09375.098865-.287771.2348802-.547452.375-.8125.1445918-.273507.3156161-.535615.5-.78125s.3737765-.473472.59375-.6875c.439947-.428056.94291-.814526 1.5-1.09375.278545-.139612.5734731-.246947.875-.34375-.2562018.100222-.4867109.236272-.71875.375-.00741.0044-.023866-.0045-.03125 0-.031933.0193-.062293.04251-.09375.0625-.120395.0767-.2310226.163513-.34375.25-.1061728.0808-.2132809.161112-.3125.25-.1779299.161433-.3474596.345388-.5.53125-.1075789.130255-.2183939.265285-.3125.40625-.025089.03838-.038446.08587-.0625.125-.064763.103032-.1302275.204517-.1875.3125-.1010083.194706-.2056748.415701-.28125.625-.00796.02181-.023589.04055-.03125.0625-.0318251.09195-.0358045.186831-.0625.28125-.0303323.106618-.0703894.203031-.09375.3125-.0728786.341512-.125.698205-.125 1.0625v2 68 2c0 2.781848 2.2181517 5 5 5h2 68 2c2.781848 0 5-2.218152 5-5v-2-68-2c0-.364295-.05212-.720988-.125-1.0625-.04415-.206893-.08838-.397658-.15625-.59375-.0077-.02195-.0233-.04069-.03125-.0625-.06274-.173739-.138383-.367449-.21875-.53125-.04158-.0828-.07904-.169954-.125-.25-.0546-.09721-.126774-.18835-.1875-.28125-.09411-.140965-.204921-.275995-.3125-.40625-.143174-.17445-.303141-.346998-.46875-.5-.01117-.0102-.01998-.02115-.03125-.03125-.138386-.125556-.285091-.234436-.4375-.34375-.102571-.07315-.204318-.153364-.3125-.21875-.0074-.0045-.02384.0044-.03125 0-.232039-.138728-.462548-.274778-.71875-.375.301527.0968.596455.204138.875.34375.55709.279224 1.060053.665694 1.5 1.09375.219973.214028.409366.441865.59375.6875s.355408.507743.5.78125c.14012.265048.276135.524729.375.8125.01041.03078.02133.06274.03125.09375.09046.278085.1388.579404.1875.875.0524.31805.09375.634029.09375.96875v2 68 2c0 3.324-2.676 6-6 6z" fill="url(#e)" opacity=".2"/><rect height="66" rx="12" style="opacity:.1;stroke:#fefefe;stroke-width:.5;stroke-linecap:round;clip-path:url(#f);fill:url(#d);filter:url(#c)" width="66" x="15" y="15"/><g enable-background="new" transform="matrix(.17756176 0 0 .17756176 -109.62299185391 7.66869342599)"><path d="m324.38759 135.62452c-45.38059 3.2742-125.14974 80.45343-113.93317 80.06244 92.77726-3.23392 150.72813 2.10512 223.11793 24.5811 10.71863 3.32799-11.56647-97.10992-109.18476-104.64354z" fill="url(#k)"/><path d="m186.37822 72.150309c-25.79989 37.476441-29.03917 184.142301-22.37924 175.108491 54.89053-74.45587 186.45309-166.406757 264.91582-203.433288 96.98784-45.768523-185.10212-40.1844581-242.53658 28.324797z" fill="url(#l)" stroke="#000" stroke-dashoffset="1" stroke-linejoin="round" stroke-width="0"/><path d="m69.5521 231.67976c14.86713 43.00099 110.00804 100.16707 106.73752 89.43076-27.05188-88.80469-36.83901-146.17209-33.79279-221.90962.45106-11.214327-90.84184 36.21994-72.94473 132.47886z" fill="#cde1e9"/><path d="m81.97729 372.8505c42.13653 17.1648 147.83895-16.69886 137.60948-21.31646-84.61255-38.1942-134.204-68.649-189.1504-120.86343-8.1358-7.73129-32.64264 92.18775 51.54092 142.17989z" fill="#cde1e9"/><g fill="url(#k)"><path d="m203.88504 453.62703c40.28664-21.14484 82.54559-123.77977 72.42084-118.93689-83.74641 40.05772-138.99861 58.33341-214.33707 66.67436-11.15521 1.23503 49.42757 84.38627 141.91623 52.26253z"/><path d="m345.96158 410.03296c9.84126-44.42146-41.30053-142.93171-44.13379-132.07183-23.43513 89.82691-45.12493 143.83025-87.36533 206.76832-6.25446 9.31914 96.3617 16.68976 131.49912-74.69649z"/><path d="m401.89383 270.24178c-27.37303-36.34326-135.48513-61.47345-129.0708-52.26364 53.05584 76.17847 80.01415 127.7542 100.41172 200.75689 3.02024 10.80938 75.29683-62.40604 28.65908-148.49325z"/></g><g filter="url(#m)"><path d="m394.59375 14.1875c-66.71996-.219747-175.01445 18.361837-208.21875 57.96875-25.79989 37.47644-29.03493 184.12756-22.375 175.09375 54.89053-74.45587 186.44352-166.410969 264.90625-203.4375 40.91675-19.308596 14.37504-29.464644-34.3125-29.625zm-27.4375 16.375c38.64562.127282 59.69631 8.205098 27.21875 23.53125-62.27961 29.38972-166.68077 102.36958-210.25 161.46875-5.2863 7.17056-2.72861-109.22192 17.75-138.96875 26.35583-31.437892 112.32244-46.205673 165.28125-46.03125z" fill="url(#l)" stroke="#000" stroke-dashoffset="1" stroke-linejoin="round" stroke-width="0"/><g fill="url(#k)"><path d="m324.375 135.625c-45.3806 3.27419-125.12282 80.45349-113.90625 80.0625 92.77726-3.23393 150.70395 2.11777 223.09375 24.59375 10.71862 3.32798-11.56921-97.12263-109.1875-104.65625zm.875 8.96875c73.71715 5.68907 90.56299 81.54441 82.46875 79.03125-54.66567-16.9729-98.43857-21.00462-168.5-18.5625-8.47027.29526 51.76178-57.99621 86.03125-60.46875z"/><path d="m275.40625 216.09375c-2.39578.12327-3.39554.72377-2.59375 1.875 53.05584 76.17848 80.03993 127.77856 100.4375 200.78125 3.02025 10.80939 75.294-62.41279 28.65625-148.5-23.9514-31.80036-109.72953-55.01915-126.5-54.15625zm17.40625 16.65625c13.81553-.71086 84.45631 18.42784 104.1875 44.625 38.42021 70.91871-21.10569 131.21728-23.59375 122.3125-16.80353-60.13967-39.0113-102.61914-82.71875-165.375-.66052-.94838.15135-1.46095 2.125-1.5625z"/><path d="m302.53125 277.125c-.33385.0453-.58594.33469-.71875.84375-23.43513 89.82692-45.10335 143.81193-87.34375 206.75-6.25446 9.31913 96.36258 16.69875 131.5-74.6875 9.37995-42.3392-36.6493-133.82658-43.4375-132.90625zm-3.75 42.3125c4.82565-.65425 37.54308 64.37032 30.875 94.46875-24.97877 64.96538-97.91497 59.74987-93.46875 53.125 30.02819-44.74191 45.43399-83.14313 62.09375-147 .0944-.36188.26267-.56157.5-.59375z"/><path d="m276.75 334.53125c-.13283.0239-.2793.0806-.4375.15625-83.74641 40.0577-139.00529 58.34655-214.34375 66.6875-11.155211 1.23503 49.41759 84.37374 141.90625 52.25 39.65716-20.81447 81.2432-120.60017 72.875-119.09375zm-24.125 16.1875c6.49102-1.16849-25.73884 76.22971-56.5 92.375-71.74139 24.91767-118.7466-39.57327-110.09375-40.53125 58.43835-6.46989 101.28978-20.64686 166.25-51.71875.12271-.0587.24072-.10645.34375-.125z"/></g></g></g><path d="m60.536206 32.845276c-6.358079.454178-17.534186 11.160026-15.962676 11.10579 12.998614-.448591 21.117859.29201 31.260078 3.409745 1.501742.461639-1.620525-13.470515-15.297402-14.515535z" fill="url(#o)"/><path d="m41.200312 24.040509c-3.614707 5.19851-4.068547 25.543133-3.135452 24.290016 7.690474-10.328079 26.123123-23.082963 37.116201-28.219065 13.588543-6.34874-25.933852-5.574151-33.980749 3.929049z" fill="url(#p)" stroke="#000" stroke-dashoffset="1" stroke-linejoin="round" stroke-width="0"/><path d="m24.832315 46.169493c2.082966 5.964843 15.412746 13.894584 14.954527 12.405307-3.790121-12.318463-5.161354-20.27613-4.734555-30.781993.063203-1.555585-12.727456 5.024216-10.219972 18.376686z" fill="#fefefe" opacity=".8"/><path d="m26.573155 65.751865c5.903569 2.380999 20.713068-2.316368 19.279863-2.956894-11.854693-5.298074-18.802738-9.522584-26.501039-16.765462-1.139866-1.072439-4.573415 12.787741 7.221176 19.722356z" fill="#fefefe" opacity=".8"/><path d="m43.653123 76.956708c5.64438-2.933087 11.565102-17.169999 10.146567-16.498223-11.733345 5.55657-19.474491 8.091666-30.029835 9.248674-1.562909.171315 6.925084 11.705564 19.883268 7.249549z" fill="url(#o)"/><path d="m63.558847 70.909596c1.378815-6.161883-5.786441-19.826643-6.183398-18.320225-3.283392 12.460259-6.322256 19.951284-12.240374 28.681681-.876283 1.292696 13.500815 2.315105 18.423772-10.361456z" fill="url(#o)"/><path d="m71.395264 51.518589c-3.835113-5.041323-18.982225-8.527235-18.083541-7.249704 7.433416 10.567027 11.210432 17.721309 14.068248 27.847811.423153 1.499413 10.549504-8.656598 4.015293-20.598107z" fill="url(#o)"/><path d="m150.53621 32.845276c-6.35808.454178-17.53419 11.160026-15.96268 11.10579 12.99861-.448591 21.11786.29201 31.26008 3.409745 1.50174.461639-1.62053-13.470515-15.2974-14.515535z" fill="url(#q)"/><path d="m131.20031 24.040509c-3.6147 5.19851-4.06854 25.543133-3.13545 24.290016 7.69047-10.328079 26.12312-23.082963 37.1162-28.219065 13.58854-6.34874-25.93385-5.574151-33.98075 3.929049z" fill="url(#r)" stroke="#000" stroke-dashoffset="1" stroke-linejoin="round" stroke-width="0"/><path d="m114.83231 46.169493c2.08297 5.964843 15.41275 13.894584 14.95453 12.405307-3.79012-12.318463-5.16135-20.27613-4.73455-30.781993.0632-1.555585-12.72746 5.024216-10.21998 18.376686z" fill="#cde1e9"/><path d="m116.57316 65.751865c5.90356 2.380999 20.71306-2.316368 19.27986-2.956894-11.8547-5.298074-18.80274-9.522584-26.50104-16.765462-1.13987-1.072439-4.57342 12.787741 7.22118 19.722356z" fill="#cde1e9"/><path d="m133.65312 76.956708c5.64438-2.933087 11.5651-17.169999 10.14657-16.498223-11.73335 5.55657-19.47449 8.091666-30.02983 9.248674-1.56291.171315 6.92508 11.705564 19.88326 7.249549z" fill="url(#q)"/><path d="m153.55885 70.909596c1.37881-6.161883-5.78644-19.826643-6.1834-18.320225-3.28339 12.460259-6.32226 19.951284-12.24037 28.681681-.87629 1.292696 13.50081 2.315105 18.42377-10.361456z" fill="url(#q)"/><path d="m161.39526 51.518589c-3.83511-5.041323-18.98222-8.527235-18.08354-7.249704 7.43342 10.567027 11.21043 17.721309 14.06825 27.847811.42315 1.499413 10.5495-8.656598 4.01529-20.598107z" fill="url(#q)"/><path d="m69.59375 106c-9.3899.10768-23.87987 2.6857-28.40625 8.03125-3.614707 5.19851-4.058095 25.56562-3.125 24.3125 7.690474-10.32808 26.131922-23.08265 37.125-28.21875 5.944988-2.77757 1.709505-4.20875-5.59375-4.125zm-9.0625 16.84375c-6.358079.45418-17.54026 11.14799-15.96875 11.09375 12.998614-.44859 21.139031.31977 31.28125 3.4375 1.501742.46164-1.635623-13.48623-15.3125-14.53125zm-6.84375 11.15625c-.335662.0171-.487336.12156-.375.28125 7.433416 10.56703 11.204684 17.71725 14.0625 27.84375.423153 1.49941 10.565461-8.65224 4.03125-20.59375-3.355724-4.41116-15.369113-7.65095-17.71875-7.53125zm3.84375 8.46875c-.07395-.0188-.13144.0309-.15625.125-3.283392 12.46026-6.331882 19.9571-12.25 28.6875-.876283 1.2927 13.514543 2.30156 18.4375-10.375 1.292639-5.77676-4.922018-18.15493-6.03125-18.4375zm-3.625 7.96875c-.03023-.007-.04942.0103-.09375.0312-11.733345 5.55657-19.475906 8.09299-30.03125 9.25-1.562909.17132 6.916816 11.70602 19.875 7.25 5.467993-2.84143 11.187041-16.30416 10.25-16.53125z" fill="url(#s)"/><path clip-path="url(#t)" d="m69.59375-44c-9.3899.107682-23.87987 2.6857-28.40625 8.03125-3.614707 5.19851-4.058095 25.56562-3.125 24.3125 7.690474-10.32808 26.131922-23.08265 37.125-28.21875 5.944988-2.777574 1.709505-4.208752-5.59375-4.125zm-9.0625 16.84375c-6.358079.45418-17.54026 11.14799-15.96875 11.09375 12.998614-.44859 21.139031.31977 31.28125 3.4375 1.501742.46164-1.635623-13.48623-15.3125-14.53125zm-6.84375 11.15625c-.335662.0171-.487336.12156-.375.28125 7.433416 10.56703 11.204684 17.71725 14.0625 27.84375.423153 1.49941 10.565461-8.65224 4.03125-20.59375-3.355724-4.41116-15.369113-7.65095-17.71875-7.53125zm3.84375 8.46875c-.07395-.0188-.13144.0309-.15625.125-3.283392 12.46026-6.331882 19.9571-12.25 28.6875-.876283 1.2927 13.514543 2.30156 18.4375-10.375 1.292639-5.77676-4.922018-18.15493-6.03125-18.4375zm-3.625 7.96875c-.03023-.007-.04942.0103-.09375.0312-11.733345 5.55657-19.475906 8.09299-30.03125 9.25-1.562909.17132 6.916816 11.70602 19.875 7.25 5.467993-2.84143 11.187041-16.30416 10.25-16.53125z" fill="none" filter="url(#u)" stroke="#012d5b" transform="translate(0 -30)"/><path d="m77.8125 18.34375c-.339431.516146-1.169503 1.101223-2.625 1.78125-10.993078 5.1361-29.434526 17.89067-37.125 28.21875-.219471.294743-.362435-.631275-.40625-2.25.0084 2.197914.147184 3.597918.40625 3.25 7.690474-10.32808 26.131922-23.08265 37.125-28.21875 2.509471-1.172457 3.208502-2.101275 2.625-2.78125zm-28.59375 25.5c-1.366744.01456-2.798387.04502-4.28125.09375-.504979.624863-.674424 1.010334-.375 1 3.338376-.115209 6.342553-.158262 9.15625-.09375-.136697-.195595-.267001-.364549-.40625-.5625-.112336-.15969.03934-.26415.375-.28125.881114-.04489 3.117124.37167 5.75 1.15625 5.640484.470235 10.716861 1.469825 16.40625 3.21875.299004.09192.396632-.415029.28125-1.25-.05438.187509-.140462.293279-.28125.25-8.874442-2.728014-16.220154-3.642076-26.625-3.53125zm4.46875 1.15625c-.335662.0171-.487336.12156-.375.28125 7.433416 10.56703 11.204684 17.71725 14.0625 27.84375.323983 1.148009 6.315645-4.539115 6.1875-12.625-.346996 7.551582-5.876967 12.72535-6.1875 11.625-2.790246-9.887069-6.472421-16.962082-13.5625-27.125-.03619.000375-.09247-.0017-.125 0zm.1875 16.4375c-.811352 3.174371-5.598175 13.130179-10.21875 15.53125-10.700763 3.679745-18.321874-3.524597-19.78125-6.25-.03159.0035-.0621-.0035-.09375 0-1.562909.17132 6.916816 11.70602 19.875 7.25 5.467993-2.84143 11.187041-16.30416 10.25-16.53125-.0091-.0021-.02319-.0017-.03125 0zm9.84375 8.3125c-.02522.408056-.07546.795203-.15625 1.15625-4.293108 11.054706-15.772983 11.68517-18.0625 10.8125-.0032.0048-.02804-.0048-.03125 0-.124342.186206-.216797.37522-.34375.5625-.876283 1.2927 13.514543 2.30156 18.4375-10.375.143845-.642841.180955-1.375679.15625-2.15625z" fill="#fefefe" opacity=".3"/><path d="m69.59375 16c-9.3899.107682-23.87987 2.6857-28.40625 8.03125-2.398206 3.448993-3.369513 13.472293-3.5 19.53125.219791-6.11789 1.240808-15.282181 3.5-18.53125 4.52638-5.34555 19.01635-7.923568 28.40625-8.03125 4.220439-.0484 7.419924.41285 8.21875 1.34375 1.046976-1.592056-2.703533-2.406997-8.21875-2.34375zm-9.0625 16.84375c-6.358079.45418-17.54026 11.14799-15.96875 11.09375.130806-.0045.245171.0043.375 0 2.145377-2.654696 10.447092-9.726106 15.59375-10.09375 10.953745.836952 15.129629 9.922593 15.59375 13.28125.525671-1.812584-3.19908-13.334201-15.59375-14.28125zm-6.8125 12c.03584.05128.05809.10513.09375.15625 2.577546-.02671 14.28449 3.181168 17.59375 7.53125 1.531356 2.798609 2.117025 5.493689 2.15625 7.96875.125844-2.738706-.417204-5.79058-2.15625-8.96875-2.097327-2.756975-7.580624-5.067367-11.96875-6.375-1.832164-.152744-3.722477-.26673-5.71875-.3125zm3.8125 7.625c-.07395-.0188-.13144.0309-.15625.125-3.283392 12.46026-6.331882 19.9571-12.25 28.6875-.109535.161587.0245.310957.34375.4375.0032-.0048.02804.0048.03125 0 5.665833-8.488115 8.663863-15.938943 11.875-28.125.02481-.0941.0823-.1438.15625-.125.970578.247249 5.848778 9.7569 6.1875 16 .204624-6.16573-5.162813-16.738967-6.1875-17zm-3.625 7.96875c-.03023-.007-.04942.01035-.09375.03125-11.733345 5.55657-19.475906 8.09299-30.03125 9.25-.272271.02984-.214118.425052.09375 1 10.506944-1.161802 18.239332-3.710089 29.9375-9.25.03103-.01463.0437-.02725.0625-.03125.148803-.582183.176471-.964806.03125-1z" opacity=".4"/><path d="m69.59375 16c-9.3899.10768-23.87987 2.6857-28.40625 8.03125-3.614707 5.19851-4.058095 25.56562-3.125 24.3125 7.690474-10.32808 26.131922-23.08265 37.125-28.21875 5.944988-2.77757 1.709505-4.20875-5.59375-4.125zm0 3c.474183-.005.77609.0526 1.21875.0625-9.477794 4.94007-21.571679 13.42713-29.96875 22.0625.01765-.73281-.0076-1.40401.0625-2.28125.215323-2.69604.562334-5.58242 1.0625-8.03125.476011-2.33056 1.324746-4.40941 1.6875-4.96875 1.43489-1.55344 5.70311-3.6577 10.625-4.875 5.08767-1.2583 10.880199-1.91792 15.3125-1.96875zm-9.0625 13.84375c-6.358079.45418-17.54026 11.14799-15.96875 11.09375 12.998614-.44859 21.139031.31977 31.28125 3.4375 1.501742.46164-1.635623-13.48623-15.3125-14.53125zm.0625 3.0625c5.646605.53644 8.849452 3.47257 10.75 6.40625.244606.37757.317096.69648.46875 1.03125-6.482519-1.58482-12.935495-2.28925-20.4375-2.34375.02562-.0209.03606-.0413.0625-.0625 1.575119-1.26398 3.417298-2.54954 5.125-3.5 1.643943-.91497 3.248224-1.44297 4.03125-1.53125zm-6.90625 8.09375c-.335662.0171-.487336.12156-.375.28125 7.433416 10.56703 11.204684 17.71725 14.0625 27.84375.423153 1.49941 10.565461-8.65224 4.03125-20.59375-3.355724-4.41116-15.369113-7.65095-17.71875-7.53125zm5.75 4.375c.569188.1742 1.086234.28218 1.6875.5 1.700446.61602 3.444691 1.42328 4.875 2.25s2.590505 1.73152 2.96875 2.21875c2.524096 4.91688 1.757387 9.11574.3125 12.25-.212603.46118-.485607.71787-.71875 1.0625-2.174621-6.25643-5.099689-12.01449-9.125-18.28125zm-1.90625 4.09375c-.07395-.0188-.13144.0309-.15625.125-3.283392 12.46026-6.331882 19.9571-12.25 28.6875-.876283 1.2927 13.514543 2.30156 18.4375-10.375 1.292639-5.77676-4.922018-18.15493-6.03125-18.4375zm.71875 7.4375c.123729.28034.249519.49674.375.8125.692546 1.74273 1.287856 3.70996 1.65625 5.4375.359702 1.68678.484816 3.14801.375 3.84375-2.118471 5.26351-5.876244 7.46603-9.28125 8.4375-.489905.13977-.870114.10801-1.28125.15625 3.389542-5.69008 5.951958-11.59056 8.15625-18.6875zm-4.34375.53125c-.03023-.007-.04942.0103-.09375.0312-11.733345 5.55657-19.475906 8.09299-30.03125 9.25-1.562909.17132 6.916816 11.70602 19.875 7.25 5.467993-2.84143 11.187041-16.30416 10.25-16.53125zm-5.15625 5.40625c-.07503.15241-.131285.27322-.21875.4375-.92502 1.73743-2.094803 3.58002-3.25 5.0625-1.115208 1.43116-2.313224 2.52627-2.9375 2.875-5.379217 1.73017-9.527277.27174-12.4375-1.65625-.369771-.24497-.549562-.50541-.8125-.75 6.563285-1.11447 12.777022-3.05521 19.65625-5.96875z" fill="#012d5b" opacity=".1"/><path d="m69.59375 16c-9.3899.10768-23.87987 2.6857-28.40625 8.03125-3.614707 5.19851-4.058095 25.56562-3.125 24.3125 7.690474-10.32808 26.131922-23.08265 37.125-28.21875 5.944988-2.77757 1.709505-4.20875-5.59375-4.125zm0 2.03125c1.753472-.0201 3.326335.0687 4.53125.21875.0814.0101.07682.0194.15625.0312-10.12369 4.73454-25.459396 15.25154-34.5 25.1875.02407-1.47395.0098-2.85328.15625-4.6875.217767-2.72665.582071-5.65105 1.09375-8.15625.496367-2.43022 1.270569-4.52233 1.8125-5.34375.0028-.004-.0028-.027 0-.0312 1.707548-1.92557 6.12936-3.96002 11.21875-5.21875 5.176009-1.28015 11.01323-1.94819 15.53125-2zm-9.0625 14.8125c-6.358079.45418-17.54026 11.14799-15.96875 11.09375 12.998614-.44859 21.139031.31977 31.28125 3.4375 1.501742.46164-1.635623-13.48623-15.3125-14.53125zm.03125 2.0625c6.041187.52713 9.564037 3.74194 11.59375 6.875.698728 1.07855.957574 1.95325 1.28125 2.84375-7.79107-2.10427-15.094792-2.84306-24.4375-2.75.627476-.57443 1.061966-1.06015 1.84375-1.6875 1.609842-1.29184 3.475459-2.60609 5.25-3.59375 1.749085-.97349 3.425881-1.58682 4.46875-1.6875zm-6.875 9.09375c-.335662.0171-.487336.12156-.375.28125 7.433416 10.56703 11.204684 17.71725 14.0625 27.84375.423153 1.49941 10.565461-8.65224 4.03125-20.59375-3.355724-4.41116-15.369113-7.65095-17.71875-7.53125zm3.65625 2.71875c1.264321.32804 2.644853.71379 4.125 1.25 3.518078 1.27449 7.145306 3.35827 8.25 4.78125.0034.004.02789-.004.03125 0 2.771503 5.26364 1.954331 9.89189.40625 13.25-.552163 1.19776-1.184283 1.92533-1.78125 2.6875-2.460082-7.67682-5.824038-14.1858-11.03125-21.96875zm.1875 5.75c-.07395-.0188-.13144.0309-.15625.125-3.283392 12.46026-6.331882 19.9571-12.25 28.6875-.876283 1.2927 13.514543 2.30156 18.4375-10.375 1.292639-5.77676-4.922018-18.15493-6.03125-18.4375zm.59375 4.84375c.474301.9699.930257 1.86471 1.40625 3.0625 1.428498 3.59468 2.415545 7.9889 2.0625 9.90625-2.228166 5.60438-6.345888 8.06012-9.96875 9.09375-1.285246.36669-2.24572.35822-3.21875.40625 4.280299-6.81407 7.12868-13.53183 9.71875-22.46875zm-4.21875 3.125c-.03023-.007-.04942.0103-.09375.0312-11.733345 5.55657-19.475906 8.09299-30.03125 9.25-1.562909.17132 6.916816 11.70602 19.875 7.25 5.467993-2.84143 11.187041-16.30416 10.25-16.53125zm-3.3125 3.65625c-.400478.88841-.679705 1.64378-1.21875 2.65625-.9518 1.78773-2.147262 3.65203-3.34375 5.1875-1.173594 1.50609-2.371177 2.6791-3.25 3.15625-5.738317 1.89485-10.29594.3418-13.40625-1.71875-1.080496-.71582-1.632988-1.42729-2.28125-2.125 7.987762-1.16093 14.975612-3.36564 23.5-7.15625z" fill="#012d5b" opacity=".15"/><path d="m69.59375 16c-9.3899.10768-23.87987 2.6857-28.40625 8.03125-3.614707 5.19851-4.058095 25.56562-3.125 24.3125 7.690474-10.32808 26.131922-23.08265 37.125-28.21875 5.944988-2.77757 1.709505-4.20875-5.59375-4.125zm0 1c1.791912-.0206 3.388812.0609 4.65625.21875s2.243198.44043 2.625.65625c-.158961.19598-.792707.72129-2.125 1.34375-10.598335 4.95167-27.57053 16.59188-36.0625 26.84375-.0037-.1202-.0289-.15261-.03125-.28125-.0323-1.76712.02937-4.3312.25-7.09375.220634-2.76255.601783-5.71956 1.125-8.28125.513225-2.51276 1.218073-4.64186 1.9375-5.71875 1.973165-2.33026 6.57367-4.35283 11.84375-5.65625s11.172256-1.9784 15.78125-2.03125zm-9.0625 15.84375c-6.358079.45418-17.54026 11.14799-15.96875 11.09375 12.998614-.44859 21.139031.31977 31.28125 3.4375 1.501742.46164-1.635623-13.48623-15.3125-14.53125zm0 1c6.465695.51602 10.329102 4.02401 12.5 7.375 1.08919 1.68127 1.734602 3.34235 2 4.46875.05026.21332.03884.26717.0625.4375-9.262185-2.73284-17.244415-3.51686-28.78125-3.21875.879933-.94447 2.239848-2.2191 3.875-3.53125 3.30391-2.65126 7.676492-5.31072 10.34375-5.53125zm-6.84375 10.15625c-.335662.0171-.487336.12156-.375.28125 7.433416 10.56703 11.204684 17.71725 14.0625 27.84375.423153 1.49941 10.565461-8.65224 4.03125-20.59375-3.355724-4.41116-15.369113-7.65095-17.71875-7.53125zm1.4375 1.21875c.546183.0773.830206.0626 1.625.25 1.46785.34609 3.243224.87218 5.0625 1.53125 3.62853 1.3145 7.341023 3.28905 8.75 5.125.0039.005.02739-.005.03125 0 3.019071 5.62105 2.159767 10.71212.5 14.3125-.836405 1.81434-1.905163 3.26297-2.71875 4.09375-.168803.17237-.233758.19477-.375.3125-2.705279-9.17802-6.375058-16.21037-12.875-25.625zm2.40625 7.25c-.07395-.0188-.13144.0309-.15625.125-3.283392 12.46026-6.331882 19.9571-12.25 28.6875-.876283 1.2927 13.514543 2.30156 18.4375-10.375 1.292639-5.77676-4.922018-18.15493-6.03125-18.4375zm.34375 2.0625c.131427.21582.228849.36248.375.625.692175 1.24332 1.500515 2.95774 2.25 4.84375 1.482708 3.73109 2.590811 8.17033 2.09375 10.59375-2.346438 5.97277-6.822406 8.67851-10.6875 9.78125-1.940118.55353-3.736932.69527-4.90625.625-.237492-.0143-.28837-.065-.46875-.0937 5.285344-8.00027 8.336624-15.34908 11.34375-26.375zm-3.96875 5.90625c-.03023-.007-.04942.0103-.09375.0312-11.733345 5.55657-19.475906 8.09299-30.03125 9.25-1.562909.17132 6.916816 11.70602 19.875 7.25 5.467993-2.84143 11.187041-16.30416 10.25-16.53125zm-1.28125 1.65625c-.03922.11448-.04847.15753-.09375.28125-.468337 1.27974-1.272419 3.03885-2.25 4.875-1.955163 3.6723-4.808427 7.62494-7.09375 8.8125-6.088209 2.03429-11.055201.38683-14.375-1.8125-1.67473-1.10949-2.897581-2.3852-3.59375-3.3125-.132976-.17712-.159423-.22731-.25-.375 9.590663-1.16311 17.20573-3.62746 27.65625-8.46875z" fill="#012d5b" opacity=".3"/></svg>