<svg height="96" width="96" xmlns="http://www.w3.org/2000/svg" xmlns:xlink="http://www.w3.org/1999/xlink"><linearGradient id="a" gradientUnits="userSpaceOnUse" x1="36.357143" x2="36.357143" y1="6" y2="63.893143"><stop offset="0" stop-color="#fefefe"/><stop offset="1" stop-color="#fefefe" stop-opacity="0"/></linearGradient><filter id="b" color-interpolation-filters="sRGB" height="1.384" width="1.384" x="-.192" y="-.192"><feGaussianBlur stdDeviation="5.28"/></filter><linearGradient id="c" gradientUnits="userSpaceOnUse" x1="48" x2="48" y1="20.220806" y2="138.66119"><stop offset="0" stop-color="#0848be"/><stop offset="1" stop-color="#0033b8"/></linearGradient><clipPath id="d"><rect height="84" rx="6" width="84" x="6" y="6"/></clipPath><linearGradient id="e" gradientUnits="userSpaceOnUse" x1="48" x2="48" y1="90" y2="5.987717"><stop offset="0" stop-color="#08488b"/><stop offset="1" stop-color="#008ff9"/></linearGradient><linearGradient id="f" gradientTransform="matrix(1.0058652 0 0 .994169 100 0)" gradientUnits="userSpaceOnUse" x1="45.447727" x2="45.447727" y1="92.539597" y2="7.01654"><stop offset="0"/><stop offset="1" stop-opacity=".588235"/></linearGradient><linearGradient id="g" gradientTransform="matrix(1.0238095 0 0 1.0119048 -1.142857 -98.071429)" gradientUnits="userSpaceOnUse" x1="32.251034" x2="32.251034" xlink:href="#f" y1="6.131708" y2="90.238609"/><linearGradient id="h" gradientTransform="translate(0 -97)" gradientUnits="userSpaceOnUse" x1="32.251034" x2="32.251034" xlink:href="#f" y1="6.131708" y2="90.238609"/><linearGradient id="i" gradientUnits="userSpaceOnUse" x1="6" x2="90" y1="48.171875" y2="48.171875"><stop offset="0" stop-color="#06b5ff"/><stop offset="1" stop-color="#0ff" stop-opacity="0"/></linearGradient><g><g fill="url(#g)"><path d="m12-95.03125c-5.5110903 0-10.03125 4.52016-10.03125 10.03125v71c0 5.5110902 4.5201598 10.03125 10.03125 10.03125h72c5.51109 0 10.03125-4.5201597 10.03125-10.03125v-71c0-5.51109-4.52016-10.03125-10.03125-10.03125z" opacity=".08" transform="scale(1 -1)"/><path d="m12-94.03125c-4.971633 0-9.03125 4.059617-9.03125 9.03125v71c0 4.9716329 4.0596171 9.03125 9.03125 9.03125h72c4.971633 0 9.03125-4.059617 9.03125-9.03125v-71c0-4.971633-4.059617-9.03125-9.03125-9.03125z" opacity=".1" transform="scale(1 -1)"/><path d="m12-93c-4.4091333 0-8 3.590867-8 8v71c0 4.4091333 3.5908667 8 8 8h72c4.409133 0 8-3.5908667 8-8v-71c0-4.409133-3.590867-8-8-8z" opacity=".2" transform="scale(1 -1)"/><rect height="85" opacity=".3" rx="7" transform="scale(1 -1)" width="86" x="5" y="-92"/></g><rect fill="url(#h)" height="84" opacity=".45" rx="6" transform="scale(1 -1)" width="84" x="6" y="-91"/></g><rect fill="url(#e)" height="84" rx="6" width="84" x="6" y="6"/><path d="m12 6c-3.324 0-6 2.676-6 6v2 68 2c0 .334721.04135.6507.09375.96875.0487.295596.09704.596915.1875.875.00988.03038.020892.0636.03125.09375.098865.287771.2348802.547452.375.8125.1445918.273507.3156161.535615.5.78125s.3737765.473472.59375.6875c.439947.428056.94291.814526 1.5 1.09375.278545.139612.5734731.246947.875.34375-.2562018-.100222-.4867109-.236272-.71875-.375-.00741-.0044-.023866.0045-.03125 0-.031933-.0193-.062293-.04251-.09375-.0625-.120395-.0767-.2310226-.163513-.34375-.25-.1061728-.0808-.2132809-.161112-.3125-.25-.1779299-.161433-.3474596-.345388-.5-.53125-.1075789-.130255-.2183939-.265285-.3125-.40625-.025089-.03838-.038446-.08587-.0625-.125-.064763-.103032-.1302275-.204517-.1875-.3125-.1010083-.194706-.2056748-.415701-.28125-.625-.00796-.02181-.023589-.04055-.03125-.0625-.0318251-.09195-.0358045-.186831-.0625-.28125-.0303323-.106618-.0703894-.203031-.09375-.3125-.0728786-.341512-.125-.698205-.125-1.0625v-2-68-2c0-2.781848 2.2181517-5 5-5h2 68 2c2.781848 0 5 2.218152 5 5v2 68 2c0 .364295-.05212.720988-.125 1.0625-.04415.206893-.08838.397658-.15625.59375-.0077.02195-.0233.04069-.03125.0625-.06274.173739-.138383.367449-.21875.53125-.04158.0828-.07904.169954-.125.25-.0546.09721-.126774.18835-.1875.28125-.09411.140965-.204921.275995-.3125.40625-.143174.17445-.303141.346998-.46875.5-.01117.0102-.01998.02115-.03125.03125-.138386.125556-.285091.234436-.4375.34375-.102571.07315-.204318.153364-.3125.21875-.0074.0045-.02384-.0044-.03125 0-.232039.138728-.462548.274778-.71875.375.301527-.0968.596455-.204138.875-.34375.55709-.279224 1.060053-.665694 1.5-1.09375.219973-.214028.409366-.441865.59375-.6875s.355408-.507743.5-.78125c.14012-.265048.276135-.524729.375-.8125.01041-.03078.02133-.06274.03125-.09375.09046-.278085.1388-.579404.1875-.875.0524-.31805.09375-.634029.09375-.96875v-2-68-2c0-3.324-2.676-6-6-6z" fill="url(#a)" opacity=".35"/><path d="m12 90c-3.324 0-6-2.676-6-6v-2-68-2c0-.334721.04135-.6507.09375-.96875.0487-.295596.09704-.596915.1875-.875.00988-.03038.020892-.0636.03125-.09375.098865-.287771.2348802-.547452.375-.8125.1445918-.273507.3156161-.535615.5-.78125s.3737765-.473472.59375-.6875c.439947-.428056.94291-.814526 1.5-1.09375.278545-.139612.5734731-.246947.875-.34375-.2562018.100222-.4867109.236272-.71875.375-.00741.0044-.023866-.0045-.03125 0-.031933.0193-.062293.04251-.09375.0625-.120395.0767-.2310226.163513-.34375.25-.1061728.0808-.2132809.161112-.3125.25-.1779299.161433-.3474596.345388-.5.53125-.1075789.130255-.2183939.265285-.3125.40625-.025089.03838-.038446.08587-.0625.125-.064763.103032-.1302275.204517-.1875.3125-.1010083.194706-.2056748.415701-.28125.625-.00796.02181-.023589.04055-.03125.0625-.0318251.09195-.0358045.186831-.0625.28125-.0303323.106618-.0703894.203031-.09375.3125-.0728786.341512-.125.698205-.125 1.0625v2 68 2c0 2.781848 2.2181517 5 5 5h2 68 2c2.781848 0 5-2.218152 5-5v-2-68-2c0-.364295-.05212-.720988-.125-1.0625-.04415-.206893-.08838-.397658-.15625-.59375-.0077-.02195-.0233-.04069-.03125-.0625-.06274-.173739-.138383-.367449-.21875-.53125-.04158-.0828-.07904-.169954-.125-.25-.0546-.09721-.126774-.18835-.1875-.28125-.09411-.140965-.204921-.275995-.3125-.40625-.143174-.17445-.303141-.346998-.46875-.5-.01117-.0102-.01998-.02115-.03125-.03125-.138386-.125556-.285091-.234436-.4375-.34375-.102571-.07315-.204318-.153364-.3125-.21875-.0074-.0045-.02384.0044-.03125 0-.232039-.138728-.462548-.274778-.71875-.375.301527.0968.596455.204138.875.34375.55709.279224 1.060053.665694 1.5 1.09375.219973.214028.409366.441865.59375.6875s.355408.507743.5.78125c.14012.265048.276135.524729.375.8125.01041.03078.02133.06274.03125.09375.09046.278085.1388.579404.1875.875.0524.31805.09375.634029.09375.96875v2 68 2c0 3.324-2.676 6-6 6z" fill="url(#i)" opacity=".213"/><rect height="66" rx="12" style="opacity:.1;stroke:#fefefe;stroke-width:.5;stroke-linecap:round;clip-path:url(#d);fill:url(#c);filter:url(#b)" transform="translate(25.671572 17.402018)" width="66" x="15" y="15"/><path d="m27.528035 84.340804c-.417332-.07989-.608501-.458853-1.243643-2.467154-.341205-1.078928-.620387-2.002316-.620387-2.051971 0-.08946 1.327997-.561878 1.579735-.561878.09332 0 .262943.41626.586086 1.437993.250113.791087.494595 1.438206.543286 1.438206.04868 0 .707366-.269046 1.463734-.597594l1.375194-.597582.363481.830012c.199922.456458.353702.839576.341734.851447-.05417.0537-3.875934 1.678525-4.03083 1.713902-.09586.02193-.257138.02423-.35839.0078zm7.085329-3.873443c-.182907-.437421-.300549-.824965-.261448-.861344.03919-.036 1.404338-.642961 3.033863-1.34814l2.962791-1.281845.98912.248542c.544004.136653 1.025116.270711 1.069114.297894.06673.04095-.230031 1.612833-.326478 1.729046-.01614.01992-.37563-.05118-.798919-.157128l-.769602-.192346-2.722862 1.181114c-1.497568.649611-2.749894 1.18083-2.782933 1.180261-.033-.000552-.209741-.358741-.392646-.796054zm10.921776-1.195406c0-.280977.02414-.686929.05367-.902054l.05362-.391256 2.408475-.0533c1.324664-.02941 2.977157-.118138 3.672211-.197338.695051-.07949 1.418852-.149366 1.608438-.155869l.344718-.01191.123175.813331c.06949.458538.09015.844713.04747.885379-.226888.216235-4.065376.520581-6.590459.522444l-1.721294.002zm11.512112-1.542505c-.110459-.458223-.182113-.851901-.15924-.874727.02294-.02294.559465-.197896 1.192388-.388934 2.072138-.625209 4.213914-1.467318 5.798781-2.279677l.433876-.222487.415877.775334c.228735.426515.415907.797416.415907.824116 0 .130984-2.868757 1.393527-4.662778 2.052122-.759424.278796-2.970552.947316-3.133118.947316-.05544 0-.19122-.374886-.301693-.833063zm-26.502618-1.055014c-.261817-.103034-.521337-.412065-.566841-.67504-.02558-.148158-.201613-2.26957-.391072-4.714235-.338625-4.369282-.347993-4.447823-.55091-4.619183-1.920281-1.621557-2.669178-2.366694-3.77232-3.753564-2.652364-3.334446-4.366724-7.43956-5.038473-12.06489-.557349-3.837562-.315325-7.712854.691834-11.077746 1.053347-3.519212 3.124859-7.121734 5.63723-9.803551 1.671587-1.784327 2.981439-2.892974 5.036407-4.262797 3.844389-2.562619 7.955257-4.053436 12.898807-4.677767 1.218481-.153895 5.76126-.154546 6.885167-.0017 6.984196.954163 12.668691 3.671734 17.173964 8.210304 3.899194 3.927992 6.262152 8.61686 7.114418 14.117312.21171 1.36619.212108 5.098569.000589 6.475995-.840682 5.478235-3.225012 10.185357-7.163061 14.141338-3.87019 3.88777-8.954438 6.599492-14.511421 7.739842-2.246237.46094-3.058292.531775-6.100797.532091-3.086544.000346-3.678101-.05405-6.249865-.574975l-1.325683-.268536-4.557222 2.643054c-4.338867 2.516358-4.850495 2.774906-5.210856 2.633355zm-6.782058-2.703818c-.439667-1.375166-.834663-2.522358-.877776-2.549256-.04316-.02701-.474943-.37696-.959651-.777725l-.881272-.728799.615532-.682792.615519-.682831.806129.670756c.443361.368941.952856.78836 1.132206.93216.314832.252475.356236.355791 1.200583 2.995312.480983 1.503671.841892 2.763645.802009 2.799922-.08265.07473-1.418945.523506-1.560724.523506-.05128 0-.452895-1.12511-.892555-2.500253zm43.866218-.851196c-.263692-.408773-.479434-.760245-.479434-.781019 0-.02065.424455-.331406.94323-.690073 1.334743-.922867 2.756688-2.102914 4.040034-3.352676 1.262919-1.229962 1.12648-1.204253 1.945482-.366898l.522923.534625-1.04579 1.018715c-1.537445 1.497589-3.254017 2.902955-4.902364 4.013545l-.544597.366941zm-49.699574-6.649524c-.93029-1.233862-1.571619-2.262965-2.248128-3.607315-.54139-1.075825-1.28696-2.778778-1.238-2.827713.01342-.01357.400448-.160637.85987-.326977l.835318-.302373.241406.623431c.695779 1.796837 1.677826 3.548853 2.923625 5.215775l.761585 1.019113-.682739.571382c-.375531.314417-.697121.571578-.714671.571578-.01752 0-.349753-.421639-.738266-.936901zm58.175173-1.163671c-.371446-.287389-.675438-.561465-.675438-.609111 0-.04785.158552-.301191.352321-.563383 1.081089-1.463541 2.37902-3.681652 3.107705-5.310848.214458-.479765.418467-.902238.45328-.938793.03501-.03656.423016.08081.862667.26144.693136.284385.792674.351144.74891.502272-.127374.439112-1.464598 3.075618-2.07783 4.096209-.557998.92893-2.025291 3.106873-2.081269 3.089374-.0086-.004-.318826-.239823-.690346-.52716zm-62.936225-9.817748c-.129766-.659098-.311138-1.78597-.403107-2.504159-.170059-1.328321-.406268-4.463455-.340842-4.52392.01981-.01825.428129-.04749.907469-.06496l.871548-.03185.01946.522927c.08356 2.24032.579599 6.065492.94512 7.287895.03392.113474-.10315.177709-.697711.326814-1.134922.284651-1.030589.365801-1.302-1.012784zm67.960678-.518192-.706124-.21922.250111-.971284c.458821-1.781882.760601-3.799772.906246-6.059365l.05834-.904686.525561.05494c.289095.03016.676629.05483.861304.05483h.335807l-.002.762602c-.003 1.593744-.337474 4.037754-.849431 6.187933-.364251 1.529648-.255528 1.443558-1.380886 1.094161zm-67.959678-9.939975-.772615-.02922.05841-.759061c.144395-1.876245.414434-3.568184.844486-5.29107.386498-1.548401.603618-2.222427.715877-2.222427.133909 0 1.47896.442696 1.555462.511954.03309.0301-.05172.430342-.188435.889656-.544244 1.827575-.997822 4.304227-1.104037 6.028271-.04858.787712-.07987.934056-.19713.918986-.07663-.0094-.487102-.03109-.912031-.04708zm68.19251-2.257459c-.224917-1.844673-.830398-4.398209-1.44623-6.099472l-.289177-.798668.820143-.313879c.451023-.172647.837815-.3139.859538-.3139.06608 0 .893459 2.595566 1.125994 3.529749.280309 1.126198.547955 2.508659.666552 3.442589.05176.407446.1105.845486.130632.973421.04047.258869.0086.269317-1.186322.383642l-.576411.05514zm-65.366408-8.927205c-.404495-.190066-.750026-.360168-.767867-.377995-.05366-.05366 1.061823-2.228334 1.640425-3.198018.830702-1.392202 2.623451-3.91241 2.783072-3.91241.03756 0 .365707.241459.729311.536576l.661099.536574-.3043.400338c-1.39416 1.834094-2.555335 3.666517-3.402289 5.369052-.273968.550725-.521951.999105-.551071.996405-.02914-.0034-.383888-.160456-.78838-.350522zm62.194658-1.147962c-.06588-.10786-.326731-.568689-.580491-1.024067-.807977-1.449965-2.008622-3.168314-3.268982-4.678245l-.550243-.659185.666872-.601106.666873-.601117.392197.45053c.704386.809214 1.821548 2.278412 2.476243 3.256612.627829.938056 1.881475 3.062837 1.881475 3.18887 0 .05746-1.421152.863807-1.52235.863807-.02331 0-.09611-.08824-.161594-.196099zm-55.617708-8.342811-.603217-.607868.213357-.230636c.390999-.422629 2.312654-2.080682 3.198197-2.759467.918306-.703894 3.051804-2.156402 3.167416-2.156402.114305 0 .988336 1.512693.892485 1.544636-.202774.06754-2.269207 1.516185-3.227837 2.26276-.565378.44031-1.458075 1.195283-1.983756 1.677712-.525683.482423-.977766.877143-1.004618.877143-.02683 0-.320255-.273547-.652027-.607878zm48.237617-.925715c-1.432865-1.246587-4.280764-3.257192-5.46358-3.857181l-.365056-.185188.395457-.719958c.217487-.395997.42655-.752992.464556-.793332.07893-.08374 1.906243.99366 3.138368 1.85034 1.590657 1.105928 3.660511 2.800166 3.660511 2.996267 0 .08039-1.015254 1.208544-1.132998 1.259069-.02411.01056-.337778-.237231-.697258-.550017zm-38.778847-5.603601c-.194341-.386549-.35335-.75705-.35335-.823338 0-.209579 2.396919-1.231164 4.492065-1.914576 1.568239-.51155 3.279108-.953986 3.357502-.868293.03373.0369.139785.430188.235659.874053l.174362.807032-.229644.05141c-1.740615.389551-4.207602 1.20705-5.93825 1.967816-.647124.284463-1.223469.537795-1.280773.56296-.06345.02784-.242404-.229126-.457571-.657058zm29.191893-.238172c-1.691457-.697827-3.954202-1.388059-5.839323-1.781232-.503319-.10498-.92638-.200442-.940144-.212166-.01375-.01169.0423-.412055.124757-.889616l.1498-.8683.79034.161881c2.051842.420247 4.199316 1.05834 6.169214 1.833051l1.1083.43588-.1293.309487c-.324826.777397-.590421 1.326462-.639372 1.321774-.02942-.0034-.38682-.142668-.794272-.310759zm-18.075963-2.396602c-.05101-.160732-.219089-1.594412-.190305-1.623208.0661-.06611 1.582694-.204946 3.172512-.290476 1.665828-.08963 5.000039-.006 5.134868.128937.02352.02361.0153.42735-.0183.89735l-.06111.854531-.798382-.05726c-1.822605-.130523-4.758062-.06298-6.70156.154249-.384788.04309-.508376.02813-.537723-.06429z" fill="#fbffff" stroke-width=".087154"/></svg>