<svg height="96" width="96" xmlns="http://www.w3.org/2000/svg" xmlns:xlink="http://www.w3.org/1999/xlink"><linearGradient id="a"><stop offset="0" stop-color="#fefefe"/><stop offset="1" stop-color="#fefefe" stop-opacity="0"/></linearGradient><linearGradient id="b" gradientUnits="userSpaceOnUse" x1="36.357143" x2="36.357143" xlink:href="#a" y1="6" y2="63.893143"/><filter id="c" color-interpolation-filters="sRGB" height="1.384" width="1.384" x="-.192" y="-.192"><feGaussianBlur stdDeviation="5.28"/></filter><linearGradient id="d" gradientUnits="userSpaceOnUse" x1="48" x2="48" xlink:href="#a" y1="20.220806" y2="138.66119"/><radialGradient id="e" cx="48" cy="90.171875" gradientTransform="matrix(1.1573129 0 0 .99590774 -7.551021 .197132)" gradientUnits="userSpaceOnUse" r="42" xlink:href="#a"/><clipPath id="f"><rect height="84" rx="6" width="84" x="6" y="6"/></clipPath><linearGradient id="g" gradientUnits="userSpaceOnUse" x1="48" x2="48" y1="90" y2="5.987717"><stop offset="0" stop-color="#6bd0f5"/><stop offset="1" stop-color="#c6eefd"/></linearGradient><linearGradient id="h" gradientTransform="matrix(1.0058652 0 0 .994169 100 0)" gradientUnits="userSpaceOnUse" x1="45.447727" x2="45.447727" y1="92.539597" y2="7.01654"><stop offset="0"/><stop offset="1" stop-opacity=".588235"/></linearGradient><linearGradient id="i" gradientTransform="matrix(1.0238095 0 0 1.0119048 -1.142857 -98.071429)" gradientUnits="userSpaceOnUse" x1="32.251034" x2="32.251034" xlink:href="#h" y1="6.131708" y2="90.238609"/><linearGradient id="j" gradientTransform="translate(0 -97)" gradientUnits="userSpaceOnUse" x1="32.251034" x2="32.251034" xlink:href="#h" y1="6.131708" y2="90.238609"/><linearGradient id="k" gradientUnits="userSpaceOnUse" x1="56" x2="51.524998" y1="80" y2="53.767857"><stop offset="0" stop-color="#9ee1f9"/><stop offset="1" stop-color="#00aff0"/></linearGradient><linearGradient id="l" gradientUnits="userSpaceOnUse" x1="32" x2="64" xlink:href="#a" y1="24" y2="64"/><linearGradient id="m" gradientUnits="userSpaceOnUse" x1="80" x2="48" xlink:href="#a" y1="80" y2="48"/><linearGradient id="n" gradientUnits="userSpaceOnUse" x1="16" x2="48" xlink:href="#a" y1="16" y2="48"/><g fill="url(#i)"><path d="m12-95.03125c-5.5110903 0-10.03125 4.52016-10.03125 10.03125v71c0 5.5110902 4.5201598 10.03125 10.03125 10.03125h72c5.51109 0 10.03125-4.5201597 10.03125-10.03125v-71c0-5.51109-4.52016-10.03125-10.03125-10.03125z" opacity=".08" transform="scale(1 -1)"/><path d="m12-94.03125c-4.971633 0-9.03125 4.059617-9.03125 9.03125v71c0 4.9716329 4.0596171 9.03125 9.03125 9.03125h72c4.971633 0 9.03125-4.059617 9.03125-9.03125v-71c0-4.971633-4.059617-9.03125-9.03125-9.03125z" opacity=".1" transform="scale(1 -1)"/><path d="m12-93c-4.4091333 0-8 3.590867-8 8v71c0 4.4091333 3.5908667 8 8 8h72c4.409133 0 8-3.5908667 8-8v-71c0-4.409133-3.590867-8-8-8z" opacity=".2" transform="scale(1 -1)"/><rect height="85" opacity=".3" rx="7" transform="scale(1 -1)" width="86" x="5" y="-92"/></g><rect fill="url(#j)" height="84" opacity=".45" rx="6" transform="scale(1 -1)" width="84" x="6" y="-91"/><g><rect fill="url(#g)" height="84" rx="6" width="84" x="6" y="6"/><path d="m12 6c-3.324 0-6 2.676-6 6v2 68 2c0 .334721.04135.6507.09375.96875.0487.295596.09704.596915.1875.875.00988.03038.020892.0636.03125.09375.098865.287771.2348802.547452.375.8125.1445918.273507.3156161.535615.5.78125s.3737765.473472.59375.6875c.439947.428056.94291.814526 1.5 1.09375.278545.139612.5734731.246947.875.34375-.2562018-.100222-.4867109-.236272-.71875-.375-.00741-.0044-.023866.0045-.03125 0-.031933-.0193-.062293-.04251-.09375-.0625-.120395-.0767-.2310226-.163513-.34375-.25-.1061728-.0808-.2132809-.161112-.3125-.25-.1779299-.161433-.3474596-.345388-.5-.53125-.1075789-.130255-.2183939-.265285-.3125-.40625-.025089-.03838-.038446-.08587-.0625-.125-.064763-.103032-.1302275-.204517-.1875-.3125-.1010083-.194706-.2056748-.415701-.28125-.625-.00796-.02181-.023589-.04055-.03125-.0625-.0318251-.09195-.0358045-.186831-.0625-.28125-.0303323-.106618-.0703894-.203031-.09375-.3125-.0728786-.341512-.125-.698205-.125-1.0625v-2-68-2c0-2.781848 2.2181517-5 5-5h2 68 2c2.781848 0 5 2.218152 5 5v2 68 2c0 .364295-.05212.720988-.125 1.0625-.04415.206893-.08838.397658-.15625.59375-.0077.02195-.0233.04069-.03125.0625-.06274.173739-.138383.367449-.21875.53125-.04158.0828-.07904.169954-.125.25-.0546.09721-.126774.18835-.1875.28125-.09411.140965-.204921.275995-.3125.40625-.143174.17445-.303141.346998-.46875.5-.01117.0102-.01998.02115-.03125.03125-.138386.125556-.285091.234436-.4375.34375-.102571.07315-.204318.153364-.3125.21875-.0074.0045-.02384-.0044-.03125 0-.232039.138728-.462548.274778-.71875.375.301527-.0968.596455-.204138.875-.34375.55709-.279224 1.060053-.665694 1.5-1.09375.219973-.214028.409366-.441865.59375-.6875s.355408-.507743.5-.78125c.14012-.265048.276135-.524729.375-.8125.01041-.03078.02133-.06274.03125-.09375.09046-.278085.1388-.579404.1875-.875.0524-.31805.09375-.634029.09375-.96875v-2-68-2c0-3.324-2.676-6-6-6z" fill="url(#b)" opacity=".5"/><path d="m12 90c-3.324 0-6-2.676-6-6v-2-68-2c0-.334721.04135-.6507.09375-.96875.0487-.295596.09704-.596915.1875-.875.00988-.03038.020892-.0636.03125-.09375.098865-.287771.2348802-.547452.375-.8125.1445918-.273507.3156161-.535615.5-.78125s.3737765-.473472.59375-.6875c.439947-.428056.94291-.814526 1.5-1.09375.278545-.139612.5734731-.246947.875-.34375-.2562018.100222-.4867109.236272-.71875.375-.00741.0044-.023866-.0045-.03125 0-.031933.0193-.062293.04251-.09375.0625-.120395.0767-.2310226.163513-.34375.25-.1061728.0808-.2132809.161112-.3125.25-.1779299.161433-.3474596.345388-.5.53125-.1075789.130255-.2183939.265285-.3125.40625-.025089.03838-.038446.08587-.0625.125-.064763.103032-.1302275.204517-.1875.3125-.1010083.194706-.2056748.415701-.28125.625-.00796.02181-.023589.04055-.03125.0625-.0318251.09195-.0358045.186831-.0625.28125-.0303323.106618-.0703894.203031-.09375.3125-.0728786.341512-.125.698205-.125 1.0625v2 68 2c0 2.781848 2.2181517 5 5 5h2 68 2c2.781848 0 5-2.218152 5-5v-2-68-2c0-.364295-.05212-.720988-.125-1.0625-.04415-.206893-.08838-.397658-.15625-.59375-.0077-.02195-.0233-.04069-.03125-.0625-.06274-.173739-.138383-.367449-.21875-.53125-.04158-.0828-.07904-.169954-.125-.25-.0546-.09721-.126774-.18835-.1875-.28125-.09411-.140965-.204921-.275995-.3125-.40625-.143174-.17445-.303141-.346998-.46875-.5-.01117-.0102-.01998-.02115-.03125-.03125-.138386-.125556-.285091-.234436-.4375-.34375-.102571-.07315-.204318-.153364-.3125-.21875-.0074-.0045-.02384.0044-.03125 0-.232039-.138728-.462548-.274778-.71875-.375.301527.0968.596455.204138.875.34375.55709.279224 1.060053.665694 1.5 1.09375.219973.214028.409366.441865.59375.6875s.355408.507743.5.78125c.14012.265048.276135.524729.375.8125.01041.03078.02133.06274.03125.09375.09046.278085.1388.579404.1875.875.0524.31805.09375.634029.09375.96875v2 68 2c0 3.324-2.676 6-6 6z" fill="url(#e)" opacity=".2"/><path d="m-66.608696 15.999999c-9.6 0-17.391304 7.791305-17.391304 17.391304 0 2.965159.733162 5.773623 2.043478 8.217391-.437454 2.059271-.652174 4.202269-.652174 6.391304 0 16.896003 13.712696 30.608699 30.608696 30.608699 2.189037 0 4.332035-.21472 6.391304-.652174 2.45213 1.322059 5.238 2.043478 8.217392 2.043478 9.6 0 17.391303-7.791304 17.391304-17.391304 0-2.979395-.721412-5.765259-2.043478-8.217392.437454-2.059269.652174-4.202269.652174-6.391307 0-16.896-13.712696-30.608694-30.608696-30.608694-2.189557 0-4.331581.257995-6.391304.695652-2.443984-1.31061-5.251871-2.086957-8.217392-2.086957z" fill="#f00"/><path d="m-52.565217 28.673913c-9.565218 0-15.217392 4.304347-15.217392 11.695652 0 8.040362 10.480484 10.116904 16.956522 10.999994 6.061675 1.624223 6.260871 2.569545 6.26087 5.217392 0 3.30009-4.167356 4.565217-7 4.565217-8.552487 0-7.921008-6.217391-12.478261-6.217391-2.347826 0-3.478261.782608-3.478261 3.73913s6.086956 8.652174 15.652174 8.652174c9.565217 0 15.652174-3.695652 15.652174-11.086957 0-7.609186-6.295794-9.859515-14.608696-12.08695-5.529432-1.34242-8.608697-2.308672-8.608696-4.956522 0-3.300086 3.515182-4.565218 6.347826-4.565218 8.552487 0 6.660138 5.478261 11.217392 5.478261 2.347826 0 3.782608-.478261 3.782608-3.434782 0-2.956522-4.913043-8-14.47826-8z" fill="#fefefe" fill-rule="evenodd"/></g><rect height="66" rx="12" style="opacity:.1;stroke:#fefefe;stroke-width:.5;stroke-linecap:round;clip-path:url(#f);fill:url(#d);filter:url(#c)" width="66" x="15" y="15"/><path d="m33.40625 13.03125c-11.200953 0-20.375 9.174048-20.375 20.375 0 3.078135.813591 5.943007 2.03125 8.53125-.362158 1.969945-.625 3.984267-.625 6.0625 0 18.49092 15.071583 33.5625 33.5625 33.5625 2.078235 0 4.092557-.262842 6.0625-.625 2.593167 1.225196 5.44867 2.03125 8.53125 2.03125 11.200953 0 20.375-9.174047 20.375-20.375 0-3.082576-.806044-5.938076-2.03125-8.53125.362155-1.969938.625-3.984261.625-6.0625 0-18.490917-15.071583-33.5625-33.5625-33.5625-2.118491 0-4.135566.320689-6.0625.6875-2.562228-1.218532-5.417866-2.09375-8.53125-2.09375z" fill="#028dc0" opacity=".1"/><path d="m33.40625 14.03125c-10.662764 0-19.375 8.712237-19.375 19.375 0 3.038917.778653 5.880584 2.03125 8.4375-.382959 2.0108-.625 4.057488-.625 6.15625 0 17.955045 14.607458 32.5625 32.5625 32.5625 2.098764 0 4.145452-.242041 6.15625-.625 2.562141 1.261021 5.39175 2.03125 8.4375 2.03125 10.662764 0 19.375-8.712236 19.375-19.375 0-3.045748-.770219-5.875353-2.03125-8.4375.382955-2.010794.625-4.057483.625-6.15625 0-17.955042-14.607458-32.5625-32.5625-32.5625-2.122884 0-4.181384.302511-6.15625.6875-2.538282-1.252748-5.373315-2.09375-8.4375-2.09375z" fill="#0088ba" opacity=".15"/><path d="m33.40625 16c-9.6 0-17.40625 7.806251-17.40625 17.40625 0 2.965159.720934 5.743732 2.03125 8.1875-.437454 2.059271-.625 4.217215-.625 6.40625 0 16.896003 13.69775 30.59375 30.59375 30.59375 2.189037 0 4.346981-.187546 6.40625-.625 2.45213 1.322059 5.208108 2.03125 8.1875 2.03125 9.6 0 17.40625-7.80625 17.40625-17.40625 0-2.979395-.70918-5.735367-2.03125-8.1875.43745-2.059269.625-4.217212.625-6.40625 0-16.896-13.69775-30.59375-30.59375-30.59375-2.189557 0-4.346527.249843-6.40625.6875-2.443984-1.31061-5.221979-2.09375-8.1875-2.09375z" fill="url(#k)"/><path d="m-66.608696 15.999999c-9.6 0-17.391304 7.791305-17.391304 17.391304 0 2.965159.733162 5.773623 2.043478 8.217391-.437454 2.059271-.652174 4.202269-.652174 6.391304 0 16.896003 13.712696 30.608699 30.608696 30.608699 2.189037 0 4.332035-.21472 6.391304-.652174 2.45213 1.322059 5.238 2.043478 8.217392 2.043478 9.6 0 17.391303-7.791304 17.391304-17.391304 0-2.979395-.721412-5.765259-2.043478-8.217392.437454-2.059269.652174-4.202269.652174-6.391307 0-16.896-13.712696-30.608694-30.608696-30.608694-2.189557 0-4.331581.257995-6.391304.695652-2.443984-1.31061-5.251871-2.086957-8.217392-2.086957z" fill="#f00"/><path d="m-52.565217 28.673913c-9.565218 0-15.217392 4.304347-15.217392 11.695652 0 8.040362 10.480484 10.116904 16.956522 10.999994 6.061675 1.624223 6.260871 2.569545 6.26087 5.217392 0 3.30009-4.167356 4.565217-7 4.565217-8.552487 0-7.921008-6.217391-12.478261-6.217391-2.347826 0-3.478261.782608-3.478261 3.73913s6.086956 8.652174 15.652174 8.652174c9.565217 0 15.652174-3.695652 15.652174-11.086957 0-7.609186-6.295794-9.859515-14.608696-12.08695-5.529432-1.34242-8.608697-2.308672-8.608696-4.956522 0-3.300086 3.515182-4.565218 6.347826-4.565218 8.552487 0 6.660138 5.478261 11.217392 5.478261 2.347826 0 3.782608-.478261 3.782608-3.434782 0-2.956522-4.913043-8-14.47826-8z" fill="#fefefe" fill-rule="evenodd"/><path d="m33.40625 16c-9.6 0-17.40625 7.806251-17.40625 17.40625 0 2.965159.720934 5.743732 2.03125 8.1875-.437454 2.059271-.625 4.217215-.625 6.40625 0 4.381688.93294 8.542633 2.59375 12.3125 16.555467-13.71169 43.222085-18.149115 57.75-19.59375-3.268513-13.386516-15.361401-23.3125-29.75-23.3125-2.189557 0-4.346527.249843-6.40625.6875-2.443984-1.31061-5.221979-2.09375-8.1875-2.09375z" fill="url(#l)" opacity=".6"/><path d="m33.40625 15.0625c-10.10362 0-18.34375 8.24013-18.34375 18.34375 0 2.997182.747733 5.807557 2.03125 8.3125-.408641 2.041944-.625 4.145418-.625 6.28125 0 17.398112 14.13314 31.53125 31.53125 31.53125 2.13583 0 4.23931-.216359 6.28125-.625 2.51099 1.293054 5.30546 2.03125 8.3125 2.03125 10.10362 0 18.34375-8.240129 18.34375-18.34375 0-3.007041-.73818-5.801509-2.03125-8.3125.40864-2.04194.625-4.145414.625-6.28125 0-17.398109-14.13314-31.53125-31.53125-31.53125-2.15321 0-4.25406.27619-6.28125.6875-2.49503-1.283033-5.30298-2.09375-8.3125-2.09375zm0 .9375c-.6 0-1.19673.03423-1.78125.09375-.49975.05089-.98231.126348-1.46875.21875.48778-.0922.96772-.168039 1.46875-.21875.5849-.0592 1.18107-.09375 1.78125-.09375zm3.40625.34375c.64612.131388 1.28592.297862 1.90625.5-.61832-.203276-1.25989-.366551-1.90625-.5zm-7.15625.0625c-.47838.105653-.94344.230785-1.40625.375.45955-.142013.93146-.27078 1.40625-.375zm-1.625.4375c-.47068.153408-.95405.339706-1.40625.53125.46235-.195463.92461-.375509 1.40625-.53125zm18.34375.59375c-.54231.03026-1.0898.09767-1.625.15625.54057-.0614 1.08014-.124998 1.625-.15625zm-12.96875.5c2.62285 0 5.09404.702088 7.28125 1.875a1.9466111 1.9466111 0 0 0 1.3125.1875c1.9368-.411538 3.95851-.65625 6-.65625 15.84401 0 28.65625 12.812236 28.65625 28.65625 0 2.077863-.19023 4.100475-.59375 6a1.9466111 1.9466111 0 0 0 .1875 1.34375c1.17095 2.171831 1.8125 4.579473 1.8125 7.25 0 8.544846-6.9239 15.46875-15.46875 15.46875-2.67052 0-5.07817-.641563-7.25-1.8125a1.9466111 1.9466111 0 0 0 -1.34375-.1875c-1.89952.403518-3.92214.59375-6 .59375-15.84401 0-28.65625-12.812233-28.65625-28.65625 0-2.077862.190232-4.100478.59375-6a1.9466111 1.9466111 0 0 0 -.1875-1.3125c-1.160468-2.164298-1.8125-4.631586-1.8125-7.28125 0-8.544845 6.9239-15.46875 15.46875-15.46875zm-8.28125.15625c-.49323.268234-.97443.561926-1.4375.875-.40779.275697-.80524.566672-1.1875.875.38072-.305624.78143-.601722 1.1875-.875.46302-.311604.94431-.608132 1.4375-.875zm34.78125 1.71875c.91539.387391 1.82011.809864 2.6875 1.28125-.86698-.470984-1.77246-.894209-2.6875-1.28125zm-37.5625.15625c-.42998.354977-.85605.731055-1.25 1.125-.29002.290018-.57464.596494-.84375.90625.27183-.313223.55037-.613325.84375-.90625.39793-.397305.8151-.767605 1.25-1.125zm43.96875 3.5c.78574.587738 1.52512 1.216121 2.25 1.875-.72441-.658414-1.46471-1.287713-2.25-1.875zm4.34375 3.96875c.65888.724879 1.28726 1.464262 1.875 2.25-.58729-.785287-1.21659-1.525586-1.875-2.25zm-53.875.8125c-.166754.53514-.322492 1.069228-.4375 1.625.113853-.555916.271929-1.089743.4375-1.625zm58.125 5.15625c.47139.867386.89386 1.772109 1.28125 2.6875-.38704-.915041-.81027-1.820516-1.28125-2.6875zm-55.09375 26.5c.38704.915041.81027 1.820515 1.28125 2.6875-.47139-.867386-.89386-1.772109-1.28125-2.6875zm60.09375 4.46875c-.0595.584518-.1339 1.152649-.25 1.71875.1161-.566101.19048-1.134232.25-1.71875zm-.25 1.75c-.11501.555772-.27075 1.08986-.4375 1.625.16675-.53514.32249-1.069228.4375-1.625zm-56.1875.1875c.58729.785287 1.21659 1.525586 1.875 2.25-.65888-.724879-1.28726-1.464262-1.875-2.25zm3.96875 4.34375c.72441.658414 1.46471 1.287713 2.25 1.875-.78574-.587738-1.52512-1.216121-2.25-1.875zm5.96875 4.25c.86698.470984 1.77246.894209 2.6875 1.28125-.91539-.387391-1.82011-.809864-2.6875-1.28125z" fill="#00aff0"/><path d="m47.4375 26.9375c-5.042154 0-9.227654 1.091781-12.25 3.40625-3.033115 2.322716-4.71875 5.874894-4.71875 10.03125 0 4.799292 3.260389 7.954399 7.03125 9.75 3.727753 1.775074 8.084507 2.549529 11.375 3 .0181.0025.04446-.0025.0625 0 2.774047.759661 4.157818 1.512098 4.40625 1.75.215671.206529.18926.174535.25.4375.0508.219931.09375.655742.09375 1.28125 0 .475961-.113976.769085-.34375 1.0625s-.60698.5885-1.15625.875c-1.04064.5428-2.6187.875-3.75.875-3.874935 0-5.102929-1.126268-6.46875-2.5625-.664108-.698345-1.305848-1.536252-2.21875-2.28125-.934942-.762985-2.205394-1.375-3.78125-1.375-1.375711 0-2.81215.211983-3.875 1.25-1.064667 1.039792-1.375 2.550758-1.375 4.25 0 1.29925.572946 2.51968 1.4375 3.65625.86256 1.133948 2.054824 2.259075 3.5625 3.25 3.01272 1.980121 7.27743 3.46875 12.40625 3.46875 5.007381 0 9.267372-.935923 12.40625-3.0625 3.156046-2.138209 5-5.559518 5-9.75 0-4.306685-1.930659-7.45434-4.90625-9.5-2.845671-1.956343-6.55929-3.043686-10.5625-4.125-.02301-.0062-.03947-.02504-.0625-.03125-.02303-.0062-.03945-.02504-.0625-.03125a.63708602.63708602 0 0 0 -.03125 0 .63708602.63708602 0 0 0 -.03125-.03125c-.000129-.000062-.0179.0061-.03125 0s.000131-.03119 0-.03125c-.000263-.000113-.06223.0001-.0625 0-.000267-.0001-.06223-.03116-.0625-.03125-.000272-.000088-.06222.000076-.0625 0-.000165-.000045-.01485-.02715-.03125-.03125-.01109-.0027-.02018.0027-.03125 0-2.727848-.662928-4.887892-1.263589-6.03125-1.84375-.558738-.283513-.848612-.577265-1.03125-.8125-.203286-.261828-.21875-.231399-.21875-.59375 0-1.076504.35101-1.468634 1.25-2 .832918-.492313 2.194017-.8125 3.34375-.8125 1.961551 0 3.16156.281412 3.96875.65625.807085.374789 1.259232.856645 1.78125 1.46875.485326.569082 1.008553 1.345504 1.84375 2.0625.878011.75375 2.106493 1.28125 3.625 1.28125 1.265963 0 2.638474-.06937 3.8125-.9375 1.224135-.905183 1.71875-2.438869 1.71875-4.21875 0-2.380354-1.672445-4.721812-4.40625-6.5625-2.747279-1.84976-6.719837-3.1875-11.8125-3.1875z" fill="#00aff0" fill-rule="evenodd" opacity=".1" transform="matrix(1.0261018 0 0 1.0261018 -1.252884 -1.252884)"/><path d="m47.4375 27.5625c-4.949368 0-9.002272 1.081356-11.875 3.28125-2.876283 2.202617-4.46875 5.54453-4.46875 9.53125 0 4.512785 3.0445 7.452784 6.6875 9.1875 3.635953 1.731361 7.97452 2.490847 11.25 2.9375 2.862279.777298 4.272106 1.448611 4.75 1.90625.258359.247408.359761.413442.4375.75.07593.328745.09375.800121.09375 1.4375 0 1.187159-.657585 1.881294-1.84375 2.5-1.171275.610939-2.788367.9375-4.03125.9375-4.010426 0-5.539084-1.279493-6.9375-2.75-.694143-.729928-1.31255-1.530226-2.15625-2.21875-.852844-.695986-1.966144-1.25-3.375-1.25-1.302334 0-2.547987.22502-3.4375 1.09375-.889886.869095-1.1875 2.159965-1.1875 3.78125 0 1.107556.499932 2.213022 1.3125 3.28125.812814 1.068551 1.953267 2.138772 3.40625 3.09375 2.904887 1.909247 7.058065 3.375 12.0625 3.375 4.925985 0 9.074111-.944128 12.0625-2.96875 2.993932-2.028377 4.71875-5.21104 4.71875-9.21875 0-4.119177-1.81872-7.018004-4.65625-8.96875-2.762608-1.899239-6.442043-3.000494-10.5-4.09375a.65580733.65580733 0 0 0 -.03125-.03125c-.01009-.0027-.02116.0027-.03125 0a.65580733.65580733 0 0 0 -.21875-.09375c-2.753354-.668452-4.919607-1.262898-6.1875-1.90625-.628026-.318671-1.006592-.655245-1.25-.96875-.244215-.314544-.34375-.544789-.34375-1 0-1.265235.562278-1.971299 1.5625-2.5625.983726-.581451 2.406746-.875 3.65625-.875 2.023113 0 3.333755.29327 4.25.71875s1.462595.994852 2 1.625c.526048.616831.996667 1.353282 1.75 2 .767182.658606 1.844357 1.125 3.21875 1.125 1.239242 0 2.444153-.07797 3.4375-.8125 1.012905-.74899 1.46875-2.055243 1.46875-3.71875 0-2.073011-1.500243-4.263985-4.125-6.03125-2.629733-1.770616-6.488924-3.09375-11.46875-3.09375z" fill="#00aff0" fill-rule="evenodd" opacity=".3" transform="matrix(1.0261018 0 0 1.0261018 -1.252884 -1.252884)"/><path d="m47.4375 28.21875c-4.852608 0-8.749731 1.074064-11.46875 3.15625s-4.21875 5.185141-4.21875 9c0 4.223564 2.794267 6.918445 6.3125 8.59375s7.809365 2.431394 11.0625 2.875c2.953378.79605 4.451201 1.44851 5.125 2.09375.340122.325705.497339.645104.59375 1.0625.09641.417396.125.937331.125 1.59375 0 1.45324-.884525 2.414116-2.1875 3.09375s-2.996884 1-4.34375 1c-4.162922 0-5.964012-1.452162-7.40625-2.96875-.721119-.758294-1.323354-1.527548-2.09375-2.15625s-1.723103-1.09375-2.96875-1.09375c-1.226584 0-2.258443.212539-2.96875.90625s-1 1.773504-1 3.3125c0 .89967.427825 1.876307 1.1875 2.875s1.852139 2.018751 3.25 2.9375c2.795722 1.837498 6.812533 3.28125 11.6875 3.28125 4.842424 0 8.856273-.925605 11.6875-2.84375s4.4375-4.863416 4.4375-8.6875c0-3.933235-1.672957-6.579898-4.375-8.4375s-6.396348-2.977433-10.5625-4.09375a.46759098.46759098 0 0 0 0-.03125c-2.758846-.669785-4.924964-1.233439-6.3125-1.9375-.693768-.35203-1.182272-.747023-1.5-1.15625s-.46875-.835388-.46875-1.40625c0-1.484229.743518-2.456215 1.875-3.125s2.653134-.96875 4-.96875c4.176589 0 5.626802 1.245466 6.75 2.5625.561599.658517 1.0241 1.367988 1.6875 1.9375s1.548427.96875 2.78125.96875c1.203766 0 2.26486-.09769 3.0625-.6875.79764-.589813 1.1875-1.633679 1.1875-3.1875 0-1.736742-1.335921-3.811463-3.84375-5.5s-6.228967-2.96875-11.09375-2.96875z" fill="#00aff0" fill-rule="evenodd" opacity=".6" transform="matrix(1.0261018 0 0 1.0261018 -1.252884 -1.252884)"/><path d="m47.42003 28.169468c-9.814887 0-15.614592 4.416698-15.614592 12.000929 0 8.25023 10.754042 10.380973 17.399117 11.287113 6.219894 1.666619 6.42429 2.636615 6.424289 5.353575 0 3.386229-4.276132 4.684378-7.182712 4.684378-8.775722 0-8.127761-6.379676-12.803966-6.379676-2.409108 0-3.569049.803036-3.569049 3.836728s6.245835 8.878011 16.060723 8.878011c9.814886 0 16.060722-3.792115 16.060722-11.376346 0-7.807799-6.460125-10.116866-14.990007-12.402441-5.673761-1.37746-8.8334-2.368932-8.833399-5.085896 0-3.386224 3.606935-4.684378 6.513515-4.684378 8.775722 0 6.833979 5.621253 11.510186 5.621253 2.409109 0 3.881341-.490744 3.881341-3.524435 0-3.033693-5.041282-8.208815-14.856168-8.208815z" fill="#fefefe" fill-rule="evenodd"/><path d="m33.40625 16c-9.601735 0-17.40625 7.804515-17.40625 17.40625 0 2.843656.684161 5.521192 1.90625 7.90625.09573.180245.129285.392779.09375.59375-.397007 1.983812-.59375 4.020256-.59375 6.09375 0 8.425348 3.428761 16.030071 8.9375 21.5625-4.937816-5.43288-7.9375-12.641464-7.9375-20.5625 0-.165813-.0025-.334669 0-.5-.0027-.166028 0-.333318 0-.5 0-1.924137.191267-3.796874.53125-5.59375.000176-.01042.000176-.02083 0-.03125-.0096-.02122-.02005-.04207-.03125-.0625-1.222089-2.385058-1.90625-5.062594-1.90625-7.90625 0-.126542.02855-.249096.03125-.375-.008045-.210217-.03125-.412669-.03125-.625 0-9.043493 7.362752-16.40625 16.40625-16.40625.211306 0 .415641.02261.625.03125.125904-.002697.248458-.03125.375-.03125 2.843745 0 5.489817.742204 7.875 1.96875.02043.0112.04128.02163.0625.03125.01042.000176.02083.000176.03125 0 1.643065-.321279 3.336931-.524983 5.0625-.5625.18618-.004.37574-.03125.5625-.03125.166682 0 .333972-.0027.5 0 .165369-.0032.334124 0 .5 0 7.921035 0 15.12962 2.999684 20.5625 7.9375-5.53243-5.508739-13.137153-8.9375-21.5625-8.9375-2.074275 0-4.10944.25364-6.09375.65625-.210705.04282-.43613.009-.625-.09375-2.385183-1.226546-5.031255-1.96875-7.875-1.96875z" fill="url(#n)"/><path d="m62.59375 80c9.601735 0 17.40625-7.804515 17.40625-17.40625 0-2.843656-.684161-5.521192-1.90625-7.90625-.09573-.180245-.129285-.392779-.09375-.59375.397007-1.983812.59375-4.020256.59375-6.09375 0-8.425348-3.428761-16.030071-8.9375-21.5625 4.937816 5.43288 7.9375 12.641464 7.9375 20.5625 0 .165813.0025.334669 0 .5.0027.166028 0 .333318 0 .5 0 1.924137-.191267 3.796874-.53125 5.59375-.000176.01042-.000176.02083 0 .03125.0096.02122.02005.04207.03125.0625 1.222089 2.385058 1.90625 5.062594 1.90625 7.90625 0 .126542-.02855.249096-.03125.375.008045.210217.03125.412669.03125.625 0 9.043493-7.362752 16.40625-16.40625 16.40625-.211306 0-.415641-.02261-.625-.03125-.125904.002697-.248458.03125-.375.03125-2.843745 0-5.489817-.742204-7.875-1.96875-.02043-.0112-.04128-.02163-.0625-.03125-.01042-.000176-.02083-.000176-.03125 0-1.643065.321279-3.336931.524983-5.0625.5625-.18618.004-.37574.03125-.5625.03125-.166682 0-.333972.0027-.5 0-.165369.0032-.334124 0-.5 0-7.921035 0-15.12962-2.999684-20.5625-7.9375 5.53243 5.508739 13.137153 8.9375 21.5625 8.9375 2.074275 0 4.10944-.25364 6.09375-.65625.210705-.04282.43613-.009.625.09375 2.385183 1.226546 5.031255 1.96875 7.875 1.96875z" fill="url(#m)"/><path d="m33.40625 16.9375c-8.54485 0-15.46875 6.923905-15.46875 15.46875 0 .217466.02255.441307.03125.65625.183545-8.385294 7.008055-15.125 15.4375-15.125 2.62285 0 5.09404.702088 7.28125 1.875a1.9466111 1.9466111 0 0 0 1.3125.1875c1.9368-.411538 3.95851-.65625 6-.65625 15.675533 0 28.387764 12.545598 28.65625 28.15625.0024-.165421 0-.333837 0-.5 0-15.844014-12.81224-28.65625-28.65625-28.65625-2.04149 0-4.0632.244712-6 .65625a1.9466111 1.9466111 0 0 1 -1.3125-.1875c-2.18721-1.172912-4.6584-1.875-7.28125-1.875zm-18.3125 16.125c-.0022.115506-.03125.227743-.03125.34375 0 2.890095.705772 5.594907 1.90625 8.03125.04255-.240842.07713-.47955.125-.71875-1.189876-2.32219-1.899901-4.903587-2-7.65625zm4.8125 8.03125c-.389746 1.871752-.5625 3.863178-.5625 5.90625 0 .168477-.0029.33222 0 .5.02813-1.903171.222501-3.752379.59375-5.5a1.9466111 1.9466111 0 0 0 -.03125-.90625zm-3.4375 6.40625c-.0026.16704 0 .332548 0 .5 0 17.398112 14.13314 31.53125 31.53125 31.53125 2.13583 0 4.23931-.216359 6.28125-.625 2.51099 1.293054 5.30546 2.03125 8.3125 2.03125 10.10362 0 18.34375-8.240129 18.34375-18.34375 0-.219384-.02346-.439156-.03125-.65625-.186218 9.944482-8.324887 18-18.3125 18-3.00704 0-5.80151-.738196-8.3125-2.03125-2.04194.408641-4.14542.625-6.28125.625-17.230882 0-31.263165-13.863522-31.53125-31.03125zm63.0625 0c-.03113 1.963542-.248398 3.899401-.625 5.78125.0462.08972.08022.190813.125.28125.320707-1.815115.5-3.676863.5-5.5625 0-.167228.0026-.333385 0-.5zm-3.4375 6.40625c-.0066.03187-.02449.06195-.03125.09375a1.9466111 1.9466111 0 0 0 .1875 1.34375c1.074846 1.993582 1.685278 4.181844 1.78125 6.59375.0025-.1148.03125-.228345.03125-.34375 0-2.670527-.64155-5.078169-1.8125-7.25a1.9466111 1.9466111 0 0 1 -.15625-.4375z" fill="#0088ba"/></svg>