<svg height="96" width="96" xmlns="http://www.w3.org/2000/svg" xmlns:xlink="http://www.w3.org/1999/xlink"><linearGradient id="a"><stop offset="0" stop-color="#fefefe"/><stop offset="1" stop-color="#fefefe" stop-opacity="0"/></linearGradient><radialGradient id="b" cx="59.625" cy="61.5" gradientTransform="matrix(1 0 0 .48058446 0 31.944056)" gradientUnits="userSpaceOnUse" r="22.625"><stop offset="0" stop-color="#9d664e"/><stop offset="1" stop-color="#9d664e" stop-opacity="0"/></radialGradient><radialGradient id="c" cx="189.28365" cy="74.875183" gradientTransform="matrix(1 0 0 1.1147541 0 -8.592237)" gradientUnits="userSpaceOnUse" r="2.695845"><stop offset="0" stop-color="#e3efe8"/><stop offset="1" stop-color="#e3efe8" stop-opacity="0"/></radialGradient><radialGradient id="d" cx="189.28365" cy="74.875183" gradientTransform="matrix(1 0 0 1.1147541 0 -8.592237)" gradientUnits="userSpaceOnUse" r="2.695845"><stop offset="0" stop-color="#92c2a7"/><stop offset="1" stop-color="#92c2a7" stop-opacity="0"/></radialGradient><radialGradient id="e" cx="178.8125" cy="82.5625" gradientTransform="matrix(1 0 0 .91428571 0 7.076786)" gradientUnits="userSpaceOnUse" r="4.375"><stop offset="0" stop-color="#ff5f5f"/><stop offset="1" stop-color="#ff5f5f" stop-opacity="0"/></radialGradient><radialGradient id="f" cx="59.625" cy="61.5" gradientTransform="matrix(1 0 0 .48058446 0 31.944056)" gradientUnits="userSpaceOnUse" r="22.625"><stop offset="0" stop-color="#221010"/><stop offset="1" stop-color="#221010" stop-opacity="0"/></radialGradient><linearGradient id="g" gradientTransform="matrix(.70150678 0 0 .72194797 140.76339 53.713515)" gradientUnits="userSpaceOnUse" x1="36.357143" x2="35.865013" xlink:href="#a" y1="6" y2="51.210083"/><linearGradient id="h" gradientTransform="matrix(.45614002 .63053153 -.60701713 .45781808 178.17388 30.321462)" gradientUnits="userSpaceOnUse" x1="13.531349" x2="13.679387" y1="52.650936" y2="59.767765"><stop offset="0" stop-color="#815b24"/><stop offset=".44986913" stop-color="#ad864d"/><stop offset="1" stop-color="#533b17"/></linearGradient><linearGradient id="i" gradientTransform="matrix(.03734861 .61954483 -.59869717 .03609183 713.06821 56.101249)" gradientUnits="userSpaceOnUse" x1="306.38556" x2="298.26562" y1="85.197639" y2="90.193359"><stop offset="0" stop-color="#e1e1e1"/><stop offset="1" stop-color="#e1e1e1" stop-opacity="0"/></linearGradient><radialGradient id="j" cx="48" cy="90.171875" gradientTransform="matrix(.81416941 0 0 .712924 135.58283 53.967103)" gradientUnits="userSpaceOnUse" r="42" xlink:href="#a"/><radialGradient id="k" cx="183.14066" cy="79.427185" gradientTransform="matrix(1 0 0 .89285718 0 8.510053)" gradientUnits="userSpaceOnUse" r="6.187184"><stop offset="0" stop-color="#e69363"/><stop offset="1" stop-color="#e69363" stop-opacity="0"/></radialGradient><linearGradient id="l" gradientTransform="matrix(.9813023 0 0 1.0967017 -507.34812 -210.62712)" gradientUnits="userSpaceOnUse" x1="706.9328" x2="703.88617" y1="276.8287" y2="295.13016"><stop offset="0" stop-color="#935f44"/><stop offset="1" stop-color="#2f1f1f"/></linearGradient><linearGradient id="m" gradientUnits="userSpaceOnUse" x1="72.254433" x2="44.027512" y1="48.968136" y2="64.82782"><stop offset="0" stop-color="#88c8aa"/><stop offset="1" stop-color="#081904"/></linearGradient><linearGradient id="n" gradientTransform="matrix(.70595598 0 0 .71340804 140.36661 -122.26495)" gradientUnits="userSpaceOnUse" x1="66.686264" x2="26.338921" y1="31.972616" y2="71.923271"><stop offset="0" stop-color="#4a85af"/><stop offset="1"/></linearGradient><radialGradient id="o" cx="48" cy="90.171875" gradientTransform="matrix(1.1573129 0 0 .99590774 -7.114207 1.179433)" gradientUnits="userSpaceOnUse" r="42" xlink:href="#a"/><linearGradient id="p" gradientTransform="matrix(1.0021045 0 0 .9913627 -.194598 1.784911)" gradientUnits="userSpaceOnUse" x1="36.357143" x2="36.357143" xlink:href="#a" y1="6" y2="63.893143"/><linearGradient id="q" gradientUnits="userSpaceOnUse" x1="32.251034" x2="32.251034" y1="-90.868292" y2="-6.761391"><stop offset="0"/><stop offset="1"/></linearGradient><linearGradient id="r" gradientTransform="matrix(1.0238095 0 0 1.0119048 -1.142857 -98.071429)" gradientUnits="userSpaceOnUse" x1="32.251034" x2="32.251034" xlink:href="#y" y1="6.131708" y2="90.238609"/><linearGradient id="s" gradientTransform="matrix(1.0238095 0 0 -1.0031647 -1.142857 98.04517)" gradientUnits="userSpaceOnUse" x1="32.251034" x2="32.251034" xlink:href="#y" y1="6.131708" y2="90.238609"/><linearGradient id="t" gradientTransform="matrix(1.0238095 0 0 -.98937599 -1.142857 98.003743)" gradientUnits="userSpaceOnUse" x1="32.251034" x2="32.251034" xlink:href="#y" y1="6.131708" y2="90.238609"/><filter id="u" color-interpolation-filters="sRGB"><feGaussianBlur stdDeviation=".16591837"/></filter><filter id="v" color-interpolation-filters="sRGB" height="1.97892" width="2.208366" x="-.604183" y="-.48946"><feGaussianBlur stdDeviation="2.8756414"/></filter><filter id="w" color-interpolation-filters="sRGB" height="1.260634" width="1.260634" x="-.130317" y="-.130317"><feGaussianBlur stdDeviation=".66195248"/></filter><filter id="x" color-interpolation-filters="sRGB" height="2.105943" width="1.700762" x="-.350381" y="-.552972"><feGaussianBlur stdDeviation="2.399757"/></filter><linearGradient id="y" gradientTransform="matrix(1.0058652 0 0 .994169 100 0)" gradientUnits="userSpaceOnUse" x1="45.447727" x2="45.447727" y1="92.539597" y2="7.01654"><stop offset="0"/><stop offset="1" stop-opacity=".588235"/></linearGradient><g transform="matrix(.99932110898 0 0 1.02271500451 .02262020448 -2.14073549232)"><g><path d="m12 95.03125c-5.5110903 0-10.03125-4.419524-10.03125-9.807916v-69.419271c0-5.388393 4.5201598-9.8079168 10.03125-9.8079168h72c5.51109 0 10.03125 4.4195238 10.03125 9.8079168v69.419271c0 5.388392-4.52016 9.807916-10.03125 9.807916z" fill="url(#t)" opacity=".08"/><path d="m12 94.039887c-4.971633 0-9.03125-4.024553-9.03125-8.953244v-70.386752c0-4.9286914 4.0596171-8.9532444 9.03125-8.9532444h72c4.971633 0 9.03125 4.0245529 9.03125 8.9532444v70.386752c0 4.928691-4.059617 8.953244-9.03125 8.953244z" fill="url(#s)" opacity=".1"/><path d="m12 93.017545c-4.4091333 0-8-3.559852-8-7.930902v-70.386752c0-4.37105 3.5908667-7.9309016 8-7.9309016h72c4.409133 0 8 3.5598516 8 7.9309016v70.386752c0 4.37105-3.590867 7.930902-8 7.930902z" fill="url(#s)" opacity=".2"/><rect fill="url(#r)" height="85" opacity=".3" rx="7" transform="scale(1 -1)" width="86" x="5" y="-92"/><rect fill="url(#q)" height="84" rx="6" transform="scale(1 -1)" width="84" x="6" y="-91"/></g><path d="m11.830656 7.733087c-3.3309964 0-6.0126274 2.652887-6.0126274 5.948176v1.982725 67.412664 1.982725c0 .33183.04139.64508.0939.960383.0488.293043.0972.591759.187894.867442.01002.03012.02094.06305.03127.09294.09911.285285.235375.542723.37579.805482.144894.271145.316284.530989.501052.774502s.374567.469382.594999.681562c.440876.424359.944895.807491 1.503157 1.084303.279126.138406.574677.244814.876842.340781-.25674-.09936-.487735-.234232-.720263-.371761-.007-.0044-.02395.0045-.03127 0-.03197-.01913-.06243-.04214-.0939-.06196-.120643-.07604-.231506-.162101-.344473-.247841-.106394-.0801-.213729-.159721-.313158-.247841-.178305-.160038-.348191-.342405-.501052-.526661-.107807-.12913-.21885-.262994-.313158-.402741-.02515-.03805-.03848-.08513-.06263-.123921-.06494-.102142-.130504-.20275-.187895-.309801-.101222-.193024-.206102-.41211-.281842-.619601-.008-.02162-.02365-.0402-.03127-.06196-.03187-.09116-.03587-.185218-.06263-.278821-.03036-.105697-.07055-.201277-.0939-.309801-.07305-.338562-.125263-.692174-.125263-1.053323v-1.982725-67.412664-1.982725c0-2.757821 2.222818-4.9568136 5.0105234-4.9568136h2.004209 68.143105 2.004209c2.787704 0 5.010522 2.1989926 5.010522 4.9568136v1.982725 67.412664 1.982725c0 .361149-.05221.714761-.125263 1.053323-.04429.205106-.08859.394223-.156578.588622-.008.02176-.02335.04034-.03127.06196-.06283.172238-.138671.364275-.21921.526661-.04169.08208-.07917.168486-.125264.247841-.05471.09637-.127036.186723-.187894.278821-.0943.139747-.205351.273611-.313158.402741-.143471.172943-.303778.344001-.469736.495681-.01122.01011-.02004.02097-.03127.03098-.138681.124472-.28569.232411-.438421.340781-.102785.07252-.20475.152039-.313157.216861-.007.0045-.02385-.0044-.03127 0-.232528.137529-.463523.272404-.720263.371761.302165-.09596.597706-.202375.876842-.340781.558262-.276812 1.062281-.659944 1.503157-1.084303.220433-.21218.410231-.438049.594999-.681562s.356158-.503357.501052-.774502c.140415-.262759.276711-.520197.37579-.805482.01042-.03051.02134-.0622.03126-.09294.09069-.275683.139092-.574399.187895-.867442.05251-.315303.0939-.628553.0939-.960383v-1.982725-67.412664-1.982725c0-3.295289-2.681632-5.948176-6.012627-5.948176h-72.151522z" fill="url(#p)" opacity=".357843"/><path d="m12.436815 90.982301c-3.324001 0-6.000001-2.676-6.000001-6v-2-68-2c0-.334721.04135-.6507.09375-.96875.0487-.295596.09704-.596915.1875-.875.0099-.03038.02089-.0636.03125-.09375.09887-.287771.23488-.547452.375-.8125.144592-.2735072.315616-.5356152.5-.7812504.184384-.245635.373777-.473472.59375-.6875.439947-.4280558.94291-.8145258 1.5-1.0937498.278545-.139612.573473-.246947.875-.34375-.256202.100222-.486711.236272-.71875.375-.0074.0044-.02387-.0045-.03125 0-.03193.0193-.06229.04251-.09375.0625-.120395.0767-.231022.163513-.34375.25-.106173.0808-.213281.161112-.3125.25-.17793.161433-.347459.3453878-.5.5312498-.107579.130255-.218394.265285-.3125.40625-.02509.03838-.03845.08587-.0625.125-.06476.103032-.130227.204517-.1875.3125-.101008.1947062-.205675.4157014-.28125.6250004-.008.02181-.02359.04055-.03125.0625-.03182.09195-.0358.186831-.0625.28125-.03033.106618-.07039.203031-.09375.3125-.07288.341512-.125.698205-.125 1.0625v2 68 2c0 2.781848 2.218152 5 5.000001 5h2 67.999999 2c2.781848 0 5-2.218152 5-5v-2-68-2c0-.364295-.05212-.720988-.125-1.0625-.04415-.206893-.08838-.397658-.15625-.59375-.0077-.02195-.0233-.04069-.03125-.0625-.06274-.173739-.138383-.3674492-.21875-.5312502-.04158-.0828-.07904-.1699542-.125-.2500002-.0546-.09721-.126774-.18835-.1875-.28125-.09411-.140965-.204921-.275995-.3125-.40625-.143174-.17445-.30314-.3469978-.46875-.4999998-.01117-.0102-.01998-.02115-.03125-.03125-.138385-.125556-.28509-.234436-.4375-.34375-.102571-.07315-.204318-.153364-.3125-.21875-.0074-.0045-.02384.0044-.03125 0-.232039-.138728-.462548-.274778-.71875-.375.301527.0968.596456.204138.875.34375.55709.279224 1.060053.665694 1.5 1.0937498.219973.214028.409367.441865.59375.6875.184384.2456352.355408.5077432.5.7812504.14012.265048.276135.524729.375.8125.01041.03078.02133.06274.03125.09375.09046.278085.138801.579404.1875.875.0524.31805.09375.634029.09375.96875v2 68 2c0 3.324-2.676 6-6 6z" fill="url(#o)" opacity=".2"/><g transform="matrix(1.4126265 0 0 1.3690152 -198.01833 -72.456498)"><rect fill="url(#n)" height="59.926277" rx="4.235736" ry="4.280448" transform="scale(1 -1)" width="59.300301" x="144.60234" y="-117.98451"/><path d="m144.24267 107.58961s8.03118-18.243324 29.08157-18.429382c22.41852-.198171 30.40005 19.409352 30.40005 19.409352l-.1895 5.72761s.25146 1.7881-1.1296 2.97812c-1.4348 1.23632-2.28731.90584-2.28731.90584l-51.43817.0265s-1.98364.12508-3.03786-1.18933c-1.09333-1.36314-1.36226-2.51178-1.36226-2.51178z" fill="#ffbca1" opacity=".245098"/><path d="m157.66458 74.038794s1.05371 3.377146 2.47195 5.013583c2.41438 2.785842 7.55682 11.097434 15.39653 11.300955 17.8481.463327 27.07166-5.952304 25.56389-18.919668-1.44518-12.428999-20.64691-10.697448-26.40067-5.106546-8.11985 7.890013 2.85318 11.449737 2.85318 11.449737" style="opacity:.215686;fill:none;stroke:#e3e3e3;stroke-width:.683876;stroke-opacity:.862944;stroke-dasharray:2.735504 .683876"/><path d="m144.61767 107.79679s8.03118-17.458527 29.08157-17.636581c22.41852-.189646 30.40005 18.574391 30.40005 18.574391l-.1895 5.48122s.25146 1.71118-1.1296 2.85001c-1.4348 1.18314-2.28731.86687-2.28731.86687l-51.43817.0254s-1.98364.1197-3.03786-1.13817c-1.09333-1.3045-1.36226-2.40372-1.36226-2.40372z" fill="#ffbca1" opacity=".465686"/><path d="m144.86767 107.72052s7.96367-16.516937 28.83711-16.685388c22.23007-.179418 30.14451 17.572618 30.14451 17.572618l-.18791 5.1856s.24935 1.6189-1.1201 2.6963c-1.42274 1.11933-2.26809.82012-2.26809.82012l-51.00578.024s-1.96696.11324-3.01232-1.07678c-1.08414-1.23415-1.35081-2.27408-1.35081-2.27408z" fill="#ffbca1" opacity=".617647"/><path d="m189.32784 79.427185a6.187185 5.5242726 0 1 1 -12.37437 0 6.187185 5.5242726 0 1 1 12.37437 0z" fill="url(#k)" opacity=".813725" transform="matrix(.75680575 0 0 .8315481 42.504422 13.791576)"/><path d="m82.25 61.5a22.625 22.25 0 1 1 -45.25 0 22.625 22.25 0 1 1 45.25 0z" fill="url(#m)" transform="matrix(.28570652649 0 0 .29457585717 170.63122044452 57.75513868307)"/><path d="m189.32784 79.427185a6.187185 5.5242726 0 1 1 -12.37437 0 6.187185 5.5242726 0 1 1 12.37437 0z" fill="url(#k)" opacity=".813725" transform="matrix(1.0571428 0 0 1.096 -11.260675 -9.039223)"/><path d="m63 80s2.5-5.75 5.25-5.5 5.75 3.75 7.5 4 6.75.25 1 4-12.25 2.25-12.75 1.25-1-3.75-1-3.75z" fill="#fefefe" filter="url(#x)" opacity=".124424" transform="matrix(.19733235 .63608266 -.61849494 .24495068 198.58165 41.48507)"/><path d="m19.25 53-4.109289-3.400173-4.390711 1.900173 3.400173-4.109289-1.900173-4.390711 4.109289 3.400173 4.390711-1.900173-3.400173 4.109289z" fill="#fefefe" filter="url(#w)" opacity=".778802" transform="matrix(.13906653 .07796072 -.08722028 .12430283 199.43493 67.205295)"/><path d="m63 80s2.5-5.75 5.25-5.5 5.75 3.75 7.5 4 10.534729 6.578261 3.616342 5.236896c-6.062314-1.175387-14.866342 1.013104-15.366342.013104s-1-3.75-1-3.75z" fill="#fefefe" filter="url(#v)" opacity=".24424" transform="matrix(.19733235 .63608266 -.61849494 .24495068 229.90402 38.520171)"/><path d="m144.49267 108.67483s8.06494-16.59544 29.2038-16.764692c22.51275-.18027 30.52782 17.656142 30.52782 17.656142l-.1903 5.21024s.25252 1.6266-1.13435 2.70912c-1.44083 1.12465-2.29692.82402-2.29692.82402l-51.65437.0241s-1.99196.11378-3.05062-1.0819c-1.09793-1.24001-1.36799-2.28489-1.36799-2.28489z" fill="url(#l)"/><path d="m189.32784 79.427185a6.187185 5.5242726 0 1 1 -12.37437 0 6.187185 5.5242726 0 1 1 12.37437 0z" fill="url(#k)" opacity=".813725" transform="matrix(.8569181 0 0 .86460459 21.603639 6.78328)"/><path d="m149.33697 118.2528c-2.33844 0-4.22101-1.91563-4.22101-4.29513v-1.4317-48.678034-1.431718c0-.239605.0292-.465796.066-.69348.0342-.211602.0682-.427305.1319-.626375.007-.02176.0147-.04552.022-.06707.0696-.205998.16523-.391893.26381-.581628.10172-.195801.22204-.383431.35175-.55927.12972-.175839.26295-.338935.41771-.492145.3095-.30643.66333-.583082 1.05524-.782964.19597-.09996.40343-.176781.61556-.246072-.18024.07169-.3424.169141-.50564.268441-.005.003-.0168-.003-.022 0-.0225.01384-.0439.03038-.066.04472-.0847.05494-.16252.117056-.24183.178978-.0746.05785-.15004.115331-.21984.178957-.12517.115561-.24445.247245-.35175.380292-.0756.09324-.15364.189906-.21986.29082-.0176.02747-.027.06146-.044.08943-.0457.07379-.0917.146402-.13191.223704-.0711.139384-.1447.297577-.19786.447398-.006.01564-.0166.02908-.022.04472-.0224.06587-.0253.133739-.044.201335-.0213.0764-.0496.14534-.066.223704-.0513.244478-.088.499815-.088.760596v1.431707 48.678034 1.4317c0 1.9914 1.56046 3.57927 3.5175 3.57927h1.407 47.83798 1.40701c1.95702 0 3.51749-1.58787 3.51749-3.57927v-1.4317-48.678034-1.431707c0-.260781-.0367-.516118-.088-.760596-.0311-.148107-.0622-.284663-.10993-.425039-.006-.01574-.0164-.02918-.022-.04472-.0441-.124365-.0973-.263027-.15388-.380283-.0293-.05925-.0555-.121667-.088-.178967-.0385-.06958-.0892-.134832-.13191-.201336-.0663-.100913-.14416-.197575-.21985-.290819-.10072-.124876-.21326-.248398-.32976-.357924-.008-.007-.014-.01514-.022-.02236-.0973-.08993-.20058-.167818-.30779-.246073-.0721-.05234-.14374-.109796-.21985-.156598-.005-.003-.0168.003-.022 0-.16323-.09926-.3254-.196704-.50563-.268441.21212.06938.41961.146131.61556.246072.39191.199882.74574.476534 1.05524.782964.15475.15321.288.316306.41772.492145.12971.175839.25002.363468.35175.55927.0985.189735.19425.37563.26381.581628.007.02206.015.04492.022.06707.0637.19907.0976.414773.13191.626375.0369.227684.066.453875.066.69348v1.431717 48.678036 1.4317c0 2.3795-1.88257 4.29513-4.221 4.29513h-50.65199z" fill="url(#j)" opacity=".124424"/><path d="m82.25 61.5a22.625 10.873223 0 1 1 -45.25 0 22.625 10.873223 0 1 1 45.25 0z" fill="url(#f)" opacity=".737328" transform="matrix(.30907952 .26466766 -.74073176 .19523879 186.37197 78.038598)"/><path d="m156.66346 72.876653s1.05371 3.377146 2.47195 5.013583c2.41438 2.785842 7.55682 11.097434 15.39653 11.300955 17.8481.463327 27.07166-5.952304 25.56389-18.919668-1.44518-12.428999-20.64691-10.697448-26.40067-5.106546-8.11985 7.890013 2.85318 11.449737 2.85318 11.449737" fill="none" stroke="#e3e3e3" stroke-dasharray="2.735504 .683876" stroke-opacity=".862944" stroke-width=".683876"/><path d="m183.1875 82.5625a4.375 4 0 1 1 -8.75 0 4.375 4 0 1 1 8.75 0z" fill="url(#e)" opacity=".779412" transform="matrix(1.0071429 0 0 1.046875 -.620982 -8.807617)"/><path d="m41.365747 52.866486a5.3033009 4.2426405 0 1 1 -10.606601 0 5.3033009 4.2426405 0 1 1 10.606601 0z" fill="#fe3636" opacity=".132353" transform="matrix(.55141438414 0 0 .69603539534 159.58125103989 40.83230642946)"/><path d="m41.365747 52.866486a5.3033009 4.2426405 0 1 1 -10.606601 0 5.3033009 4.2426405 0 1 1 10.606601 0z" fill="#fe3636" opacity=".333333" transform="matrix(.51035486507 0 0 .64922869988 161.04216054589 43.3068131575)"/><path d="m41.365747 52.866486a5.3033009 4.2426405 0 1 1 -10.606601 0 5.3033009 4.2426405 0 1 1 10.606601 0z" fill="#fe3636" opacity=".598039" transform="matrix(.4767607336 0 0 .60242200442 162.25364955752 45.76146129207)"/><path d="m41.365747 52.866486a5.3033009 4.2426405 0 1 1 -10.606601 0 5.3033009 4.2426405 0 1 1 10.606601 0z" fill="#feed36" opacity=".122549" transform="matrix(.44538902275 0 0 .55281462203 163.42849688696 48.33322286861)"/><path d="m41.365747 52.866486a5.3033009 4.2426405 0 1 1 -10.606601 0 5.3033009 4.2426405 0 1 1 10.606601 0z" fill="#feed36" opacity=".308824" transform="matrix(.40619586636 0 0 .50600792658 164.81220405974 50.80772959664)"/><path d="m41.365747 52.866486a5.3033009 4.2426405 0 1 1 -10.606601 0 5.3033009 4.2426405 0 1 1 10.606601 0z" fill="#feed36" opacity=".536129" transform="matrix(.37260173489 0 0 .45686086135 166.00389528863 53.39603222437)"/><path d="m41.365747 52.866486a5.3033009 4.2426405 0 1 1 -10.606601 0 5.3033009 4.2426405 0 1 1 10.606601 0z" fill="#fffce0" opacity=".318627" transform="matrix(.33487394814 0 0 .3987692122 167.4849227693 56.41128247987)"/><path d="m41.365747 52.866486a5.3033009 4.2426405 0 1 1 -10.606601 0 5.3033009 4.2426405 0 1 1 10.606601 0z" fill="#fffce0" opacity=".539216" transform="matrix(.29008177135 0 0 .34494148676 169.00125704749 59.2668940939)"/><path d="m41.365747 52.866486a5.3033009 4.2426405 0 1 1 -10.606601 0 5.3033009 4.2426405 0 1 1 10.606601 0z" fill="#fffce0" opacity=".759804" transform="matrix(.2434232499 0 0 .29813477263 170.67398478988 61.72154176187)"/><path d="m41.365747 52.866486a5.3033009 4.2426405 0 1 1 -10.606601 0 5.3033009 4.2426405 0 1 1 10.606601 0z" fill="#fffce0" opacity=".953917" transform="matrix(.1892993634 0 0 .232605371 172.65551735538 65.20571005454)"/><path d="m41.365747 52.866486a5.3033009 4.2426405 0 1 1 -10.606601 0 5.3033009 4.2426405 0 1 1 10.606601 0z" fill="#fefefe" opacity=".953917" transform="matrix(.15302914895 0 0 .17392503773 173.98488209489 68.28530056641)"/><path d="m672.52825 239.73116 2.0946 11.50343-9.44969-5.09993z" fill="none" filter="url(#u)" stroke="url(#i)" stroke-width=".610137" transform="matrix(.9813023 0 0 .98768798 -507.34812 -177.94018)"/><path d="m19.25 53-4.109289-3.400173-4.390711 1.900173 3.400173-4.109289-1.900173-4.390711 4.109289 3.400173 4.390711-1.900173-3.400173 4.109289z" fill="#fefefe" opacity=".259804" transform="matrix(.13906653 .07796072 -.08722028 .12430283 155.56991 78.037195)"/><path d="m19.25 53-4.109289-3.400173-4.390711 1.900173 3.400173-4.109289-1.900173-4.390711 4.109289 3.400173 4.390711-1.900173-3.400173 4.109289z" fill="#fefefe" opacity=".778802" transform="matrix(.13906653 .07796072 -.08722028 .12430283 171.28427 56.879907)"/><path d="m19.25 53-4.109289-3.400173-4.390711 1.900173 3.400173-4.109289-1.900173-4.390711 4.109289 3.400173 4.390711-1.900173-3.400173 4.109289z" fill="#fefefe" opacity=".392157" transform="matrix(.13906653 .07796072 -.08722028 .12430283 184.54964 58.112374)"/><path d="m19.25 53-4.109289-3.400173-4.390711 1.900173 3.400173-4.109289-1.900173-4.390711 4.109289 3.400173 4.390711-1.900173-3.400173 4.109289z" fill="#fefefe" opacity=".357843" transform="matrix(.13906653 .07796072 -.08722028 .12430283 163.73322 71.053234)"/><path d="m19.25 53-4.109289-3.400173-4.390711 1.900173 3.400173-4.109289-1.900173-4.390711 4.109289 3.400173 4.390711-1.900173-3.400173 4.109289z" fill="#fefefe" opacity=".367647" transform="matrix(.13906653 .07796072 -.08722028 .12430283 200.05646 84.217909)"/><path d="m153.19183 58.602528 3.14903 13.940578-11.49695-5.621549s-.51078-5.080772 1.19319-6.854323c1.704-1.773553 7.15473-1.464706 7.15473-1.464706z" fill="url(#h)"/><path d="m149.18146 58.045214c-2.3318 0-4.20903 1.93193-4.20903 4.331689v1.443896 49.092461 1.4439c0 .24165.029.46976.0658.69937.0341.21341.0681.43095.13153.63171.007.022.0146.0459.0219.0678.0695.20776.16478.39524.26308.58659.10142.19745.22139.38669.35075.56402.12934.17735.26221.34182.41652.49635.30863.30904.66146.58804 1.05225.78961.19539.10086.4023.1783.61382.24817-.17973-.0723-.34142-.17057-.50421-.27073-.005-.003-.0168.004-.0219 0-.0224-.0139-.0437-.0307-.0658-.0451-.0845-.0555-.16207-.11804-.24116-.18049-.0744-.0584-.14961-.11631-.21922-.18048-.12481-.11656-.24374-.24936-.35075-.38354-.0754-.094-.15321-.19152-.21921-.29329-.0175-.0277-.027-.0621-.0439-.0902-.0455-.0744-.0914-.14765-.13155-.22561-.0708-.14057-.14427-.30011-.1973-.45122-.006-.0157-.0165-.0293-.0219-.0451-.0224-.0664-.0251-.13488-.0439-.20305-.0213-.077-.0495-.14657-.0658-.2256-.0512-.24656-.0878-.50408-.0878-.76709v-1.44388-49.092465-1.443896c0-2.008352 1.55604-3.609736 3.50754-3.609736h1.40302 47.70246 1.403c1.95149 0 3.50754 1.601384 3.50754 3.609736v1.443896 49.092465 1.44388c0 .26301-.0365.52053-.0878.76709-.031.14936-.062.28708-.10961.42865-.006.0158-.0164.0294-.0219.0451-.044.12544-.097.26528-.15346.38353-.0293.0598-.0554.1227-.0878.18048-.0383.0702-.089.136-.13152.20306-.0661.10177-.14377.19926-.21922.29329-.10043.12594-.21265.25052-.32884.36098-.008.007-.0139.0153-.0219.0226-.097.0907-.19998.16926-.30691.24816-.0719.0528-.14333.11074-.21922.15793-.005.004-.0167-.003-.0219 0-.16277.10015-.32448.19839-.50421.27073.21153-.0699.41843-.14737.61382-.24816.3908-.20159.74363-.48059 1.05227-.78963.1543-.15452.28716-.319.4165-.49634.12936-.17734.24933-.36657.35076-.56402.0983-.19135.19371-.37884.26308-.58659.007-.0223.0149-.0453.0219-.0677.0635-.20076.0973-.4183.13154-.63171.0367-.22962.0658-.45773.0658-.69938v-1.44389-49.092478-1.443886c0-2.39976-1.87725-4.331689-4.20905-4.331689h-50.50849z" fill="url(#g)" opacity=".25"/><path d="m82.25 61.5a22.625 10.873223 0 1 1 -45.25 0 22.625 10.873223 0 1 1 45.25 0z" fill="url(#f)" opacity=".529412" transform="matrix(.21261807 .34694765 -.7648656 -.04221782 206.34601 90.211616)"/><g fill="url(#b)"><path d="m82.25 61.5a22.625 10.873223 0 1 1 -45.25 0 22.625 10.873223 0 1 1 45.25 0z" opacity=".529412" transform="matrix(.21261807 .34694765 -.7648656 -.04221782 223.13979 83.140549)"/><path d="m82.25 61.5a22.625 10.873223 0 1 1 -45.25 0 22.625 10.873223 0 1 1 45.25 0z" opacity=".343137" transform="matrix(.21261807 .34694765 -.7648656 -.04221782 215.89195 82.433442)"/><path d="m82.25 61.5a22.625 10.873223 0 1 1 -45.25 0 22.625 10.873223 0 1 1 45.25 0z" opacity=".343137" transform="matrix(.15590196 .25725026 -.56083684 -.03130312 212.47113 91.264648)"/><path d="m82.25 61.5a22.625 10.873223 0 1 1 -45.25 0 22.625 10.873223 0 1 1 45.25 0z" opacity=".465686" transform="matrix(.15590196 .25725026 -.56083684 -.03130312 205.57684 83.840027)"/><path d="m82.25 61.5a22.625 10.873223 0 1 1 -45.25 0 22.625 10.873223 0 1 1 45.25 0z" opacity=".465686" transform="matrix(.15590196 .25725026 -.56083684 -.03130312 221.13319 90.027211)"/><path d="m82.25 61.5a22.625 10.873223 0 1 1 -45.25 0 22.625 10.873223 0 1 1 45.25 0z" opacity=".661765" transform="matrix(.15590196 .25725026 -.56083684 -.03130312 204.86973 88.082667)"/><path d="m82.25 61.5a22.625 10.873223 0 1 1 -45.25 0 22.625 10.873223 0 1 1 45.25 0z" opacity=".661765" transform="matrix(.15590196 .25725026 -.56083684 -.03130312 209.46592 84.547133)"/></g><path d="m183.1875 82.5625a4.375 4 0 1 1 -8.75 0 4.375 4 0 1 1 8.75 0z" fill="url(#e)" opacity=".779412" transform="matrix(.55714289157 0 0 .53906249672 82.3133935672 34.64990255746)"/><path d="m41.365747 52.866486a5.3033009 4.2426405 0 1 1 -10.606601 0 5.3033009 4.2426405 0 1 1 10.606601 0z" fill="#fe3636" opacity=".132353" transform="matrix(.30503775029 0 0 .35840628348 170.93590716588 60.21075849614)"/><path d="m41.365747 52.866486a5.3033009 4.2426405 0 1 1 -10.606601 0 5.3033009 4.2426405 0 1 1 10.606601 0z" fill="#fe3636" opacity=".333333" transform="matrix(.28232397334 0 0 .3343043285 171.74406988687 61.48494478864)"/><path d="m41.365747 52.866486a5.3033009 4.2426405 0 1 1 -10.606601 0 5.3033009 4.2426405 0 1 1 10.606601 0z" fill="#fe3636" opacity=".598039" transform="matrix(.26373998536 0 0 .31020237352 172.41425531045 62.74890538756)"/><path d="m41.365747 52.866486a5.3033009 4.2426405 0 1 1 -10.606601 0 5.3033009 4.2426405 0 1 1 10.606601 0z" fill="#feed36" opacity=".122549" transform="matrix(.24638542158 0 0 .28465827379 173.06417086689 64.07317066891)"/><path d="m41.365747 52.866486a5.3033009 4.2426405 0 1 1 -10.606601 0 5.3033009 4.2426405 0 1 1 10.606601 0z" fill="#feed36" opacity=".308824" transform="matrix(.22470410061 0 0 .26055631881 173.82962591337 65.34735696141)"/><path d="m41.365747 52.866486a5.3033009 4.2426405 0 1 1 -10.606601 0 5.3033009 4.2426405 0 1 1 10.606601 0z" fill="#feed36" opacity=".536129" transform="matrix(.20612011263 0 0 .23524924807 174.48885937181 66.68013964966)"/><path d="m41.365747 52.866486a5.3033009 4.2426405 0 1 1 -10.606601 0 5.3033009 4.2426405 0 1 1 10.606601 0z" fill="#fffce0" opacity=".318627" transform="matrix(.18524942169 0 0 .20533638414 175.30815118538 68.23276850312)"/><path d="m41.365747 52.866486a5.3033009 4.2426405 0 1 1 -10.606601 0 5.3033009 4.2426405 0 1 1 10.606601 0z" fill="#fffce0" opacity=".539216" transform="matrix(.16047077021 0 0 .1776191227 176.14697441924 69.70319537005)"/><path d="m41.365747 52.866486a5.3033009 4.2426405 0 1 1 -10.606601 0 5.3033009 4.2426405 0 1 1 10.606601 0z" fill="#fffce0" opacity=".759804" transform="matrix(.13465967275 0 0 .15351715811 177.07231318814 70.9671557287)"/><path d="m41.365747 52.866486a5.3033009 4.2426405 0 1 1 -10.606601 0 5.3033009 4.2426405 0 1 1 10.606601 0z" fill="#fffce0" opacity=".953917" transform="matrix(.10471879879 0 0 .11977440672 178.16848016035 72.76124237595)"/><path d="m41.365747 52.866486a5.3033009 4.2426405 0 1 1 -10.606601 0 5.3033009 4.2426405 0 1 1 10.606601 0z" fill="#fefefe" opacity=".953917" transform="matrix(.08465442445 0 0 .08955841441 178.90387343464 74.34700165972)"/><g opacity=".686275" transform="matrix(.65248228 0 0 .65671642 63.753103 24.522388)"><path d="m183.1875 82.5625a4.375 4 0 1 1 -8.75 0 4.375 4 0 1 1 8.75 0z" fill="url(#e)" opacity=".779412" transform="matrix(1.0071429 0 0 1.046875 -.683482 -8.807617)"/><path d="m41.365747 52.866486a5.3033009 4.2426405 0 1 1 -10.606601 0 5.3033009 4.2426405 0 1 1 10.606601 0z" fill="#fe3636" opacity=".132353" transform="matrix(.55141438414 0 0 .69603539534 159.51875103989 40.83230642946)"/><path d="m41.365747 52.866486a5.3033009 4.2426405 0 1 1 -10.606601 0 5.3033009 4.2426405 0 1 1 10.606601 0z" fill="#fe3636" opacity=".333333" transform="matrix(.51035486507 0 0 .64922869988 160.97966054589 43.3068131575)"/><path d="m41.365747 52.866486a5.3033009 4.2426405 0 1 1 -10.606601 0 5.3033009 4.2426405 0 1 1 10.606601 0z" fill="#fe3636" opacity=".598039" transform="matrix(.4767607336 0 0 .60242200442 162.19114955752 45.76146129207)"/><path d="m41.365747 52.866486a5.3033009 4.2426405 0 1 1 -10.606601 0 5.3033009 4.2426405 0 1 1 10.606601 0z" fill="#feed36" opacity=".122549" transform="matrix(.44538902275 0 0 .55281462203 163.36599688696 48.33322286861)"/><path d="m41.365747 52.866486a5.3033009 4.2426405 0 1 1 -10.606601 0 5.3033009 4.2426405 0 1 1 10.606601 0z" fill="#feed36" opacity=".308824" transform="matrix(.40619586636 0 0 .50600792658 164.74970405974 50.80772959664)"/><path d="m41.365747 52.866486a5.3033009 4.2426405 0 1 1 -10.606601 0 5.3033009 4.2426405 0 1 1 10.606601 0z" fill="#feed36" opacity=".536129" transform="matrix(.37260173489 0 0 .45686086135 165.94139528863 53.39603222437)"/><g fill="#fffce0"><path d="m41.365747 52.866486a5.3033009 4.2426405 0 1 1 -10.606601 0 5.3033009 4.2426405 0 1 1 10.606601 0z" opacity=".318627" transform="matrix(.33487394814 0 0 .3987692122 167.4224227693 56.41128247987)"/><path d="m41.365747 52.866486a5.3033009 4.2426405 0 1 1 -10.606601 0 5.3033009 4.2426405 0 1 1 10.606601 0z" opacity=".539216" transform="matrix(.29008177135 0 0 .34494148676 168.93875704749 59.2668940939)"/><path d="m41.365747 52.866486a5.3033009 4.2426405 0 1 1 -10.606601 0 5.3033009 4.2426405 0 1 1 10.606601 0z" opacity=".759804" transform="matrix(.2434232499 0 0 .29813477263 170.61148478988 61.72154176187)"/><path d="m41.365747 52.866486a5.3033009 4.2426405 0 1 1 -10.606601 0 5.3033009 4.2426405 0 1 1 10.606601 0z" opacity=".953917" transform="matrix(.1892993634 0 0 .232605371 172.59301735538 65.20571005454)"/></g><path d="m41.365747 52.866486a5.3033009 4.2426405 0 1 1 -10.606601 0 5.3033009 4.2426405 0 1 1 10.606601 0z" fill="#fefefe" opacity=".953917" transform="matrix(.15302914895 0 0 .17392503773 173.92238209489 68.28530056641)"/></g><path d="m183.1875 82.5625a4.375 4 0 1 1 -8.75 0 4.375 4 0 1 1 8.75 0z" fill="url(#e)" opacity=".779412" transform="matrix(.27142860705 0 0 .28906249688 127.02767916097 49.29052807853)"/><path d="m41.365747 52.866486a5.3033009 4.2426405 0 1 1 -10.606601 0 5.3033009 4.2426405 0 1 1 10.606601 0z" fill="#fe3636" opacity=".132353" transform="matrix(.14860814508 0 0 .19218887574 170.20275288719 62.99707395192)"/><path d="m41.365747 52.866486a5.3033009 4.2426405 0 1 1 -10.606601 0 5.3033009 4.2426405 0 1 1 10.606601 0z" fill="#fe3636" opacity=".333333" transform="matrix(.1375424581 0 0 .17926463907 170.59647321451 63.68033326496)"/><path d="m41.365747 52.866486a5.3033009 4.2426405 0 1 1 -10.606601 0 5.3033009 4.2426405 0 1 1 10.606601 0z" fill="#fe3636" opacity=".598039" transform="matrix(.12848871974 0 0 .16634040241 170.92297382816 64.35810923509)"/><path d="m41.365747 52.866486a5.3033009 4.2426405 0 1 1 -10.606601 0 5.3033009 4.2426405 0 1 1 10.606601 0z" fill="#feed36" opacity=".122549" transform="matrix(.12003393167 0 0 .15264284175 171.23959937764 65.06822249855)"/><path d="m41.365747 52.866486a5.3033009 4.2426405 0 1 1 -10.606601 0 5.3033009 4.2426405 0 1 1 10.606601 0z" fill="#feed36" opacity=".308824" transform="matrix(.1094712361 0 0 .13971860508 171.61251340054 65.75148181159)"/><path d="m41.365747 52.866486a5.3033009 4.2426405 0 1 1 -10.606601 0 5.3033009 4.2426405 0 1 1 10.606601 0z" fill="#feed36" opacity=".536129" transform="matrix(.10041749774 0 0 .12614814692 171.93367844107 66.46616238017)"/><path d="m41.365747 52.866486a5.3033009 4.2426405 0 1 1 -10.606601 0 5.3033009 4.2426405 0 1 1 10.606601 0z" fill="#fffce0" opacity=".318627" transform="matrix(.09024972452 0 0 .11010791561 172.33282063438 67.29873147157)"/><path d="m41.365747 52.866486a5.3033009 4.2426405 0 1 1 -10.606601 0 5.3033009 4.2426405 0 1 1 10.606601 0z" fill="#fffce0" opacity=".539216" transform="matrix(.07817807297 0 0 .09524503636 172.74147813566 68.08722123707)"/><path d="m41.365747 52.866486a5.3033009 4.2426405 0 1 1 -10.606601 0 5.3033009 4.2426405 0 1 1 10.606601 0z" fill="#fffce0" opacity=".759804" transform="matrix(.06560343487 0 0 .08232079454 173.19228423387 68.76499707836)"/><path d="m41.365747 52.866486a5.3033009 4.2426405 0 1 1 -10.606601 0 5.3033009 4.2426405 0 1 1 10.606601 0z" fill="#fffce0" opacity=".953917" transform="matrix(.05101685424 0 0 .06422685548 173.72631433435 69.72704353683)"/><path d="m41.365747 52.866486a5.3033009 4.2426405 0 1 1 -10.606601 0 5.3033009 4.2426405 0 1 1 10.606601 0z" fill="#fefefe" opacity=".953917" transform="matrix(.04124190196 0 0 .04802407706 174.08458287748 70.57737822122)"/><path d="m183.1875 82.5625a4.375 4 0 1 1 -8.75 0 4.375 4 0 1 1 8.75 0z" fill="url(#e)" opacity=".779412" transform="matrix(.27142860705 0 0 .28906249688 129.27767916097 49.16552807853)"/><path d="m41.365747 52.866486a5.3033009 4.2426405 0 1 1 -10.606601 0 5.3033009 4.2426405 0 1 1 10.606601 0z" fill="#fe3636" opacity=".132353" transform="matrix(.14860814508 0 0 .19218887574 172.45275288719 62.87207395192)"/><path d="m41.365747 52.866486a5.3033009 4.2426405 0 1 1 -10.606601 0 5.3033009 4.2426405 0 1 1 10.606601 0z" fill="#fe3636" opacity=".333333" transform="matrix(.1375424581 0 0 .17926463907 172.84647321451 63.55533326496)"/><path d="m41.365747 52.866486a5.3033009 4.2426405 0 1 1 -10.606601 0 5.3033009 4.2426405 0 1 1 10.606601 0z" fill="#fe3636" opacity=".598039" transform="matrix(.12848871974 0 0 .16634040241 173.17297382816 64.23310923509)"/><path d="m41.365747 52.866486a5.3033009 4.2426405 0 1 1 -10.606601 0 5.3033009 4.2426405 0 1 1 10.606601 0z" fill="#feed36" opacity=".122549" transform="matrix(.12003393167 0 0 .15264284175 173.48959937764 64.94322249855)"/><path d="m41.365747 52.866486a5.3033009 4.2426405 0 1 1 -10.606601 0 5.3033009 4.2426405 0 1 1 10.606601 0z" fill="#feed36" opacity=".308824" transform="matrix(.1094712361 0 0 .13971860508 173.86251340054 65.62648181159)"/><path d="m41.365747 52.866486a5.3033009 4.2426405 0 1 1 -10.606601 0 5.3033009 4.2426405 0 1 1 10.606601 0z" fill="#feed36" opacity=".536129" transform="matrix(.10041749774 0 0 .12614814692 174.18367844107 66.34116238017)"/><path d="m41.365747 52.866486a5.3033009 4.2426405 0 1 1 -10.606601 0 5.3033009 4.2426405 0 1 1 10.606601 0z" fill="#fffce0" opacity=".318627" transform="matrix(.09024972452 0 0 .11010791561 174.58282063438 67.17373147157)"/><path d="m41.365747 52.866486a5.3033009 4.2426405 0 1 1 -10.606601 0 5.3033009 4.2426405 0 1 1 10.606601 0z" fill="#fffce0" opacity=".539216" transform="matrix(.07817807297 0 0 .09524503636 174.99147813566 67.96222123707)"/><path d="m41.365747 52.866486a5.3033009 4.2426405 0 1 1 -10.606601 0 5.3033009 4.2426405 0 1 1 10.606601 0z" fill="#fffce0" opacity=".759804" transform="matrix(.06560343487 0 0 .08232079454 175.44228423387 68.63999707836)"/><path d="m41.365747 52.866486a5.3033009 4.2426405 0 1 1 -10.606601 0 5.3033009 4.2426405 0 1 1 10.606601 0z" fill="#fffce0" opacity=".953917" transform="matrix(.05101685424 0 0 .06422685548 175.97631433435 69.60204353683)"/><path d="m41.365747 52.866486a5.3033009 4.2426405 0 1 1 -10.606601 0 5.3033009 4.2426405 0 1 1 10.606601 0z" fill="#fefefe" opacity=".953917" transform="matrix(.04124190196 0 0 .04802407706 176.33458287748 70.45237822122)"/><path d="m183.1875 82.5625a4.375 4 0 1 1 -8.75 0 4.375 4 0 1 1 8.75 0z" fill="url(#e)" opacity=".779412" transform="matrix(.27142860705 0 0 .28906249688 134.09017916097 58.10302807853)"/><path d="m41.365747 52.866486a5.3033009 4.2426405 0 1 1 -10.606601 0 5.3033009 4.2426405 0 1 1 10.606601 0z" fill="#fe3636" opacity=".132353" transform="matrix(.14860814508 0 0 .19218887574 177.26525288719 71.80957395192)"/><path d="m41.365747 52.866486a5.3033009 4.2426405 0 1 1 -10.606601 0 5.3033009 4.2426405 0 1 1 10.606601 0z" fill="#fe3636" opacity=".333333" transform="matrix(.1375424581 0 0 .17926463907 177.65897321451 72.49283326496)"/><path d="m41.365747 52.866486a5.3033009 4.2426405 0 1 1 -10.606601 0 5.3033009 4.2426405 0 1 1 10.606601 0z" fill="#fe3636" opacity=".598039" transform="matrix(.12848871974 0 0 .16634040241 177.98547382816 73.17060923509)"/><path d="m41.365747 52.866486a5.3033009 4.2426405 0 1 1 -10.606601 0 5.3033009 4.2426405 0 1 1 10.606601 0z" fill="#feed36" opacity=".122549" transform="matrix(.12003393167 0 0 .15264284175 178.30209937764 73.88072249855)"/><path d="m41.365747 52.866486a5.3033009 4.2426405 0 1 1 -10.606601 0 5.3033009 4.2426405 0 1 1 10.606601 0z" fill="#feed36" opacity=".308824" transform="matrix(.1094712361 0 0 .13971860508 178.67501340054 74.56398181159)"/><path d="m41.365747 52.866486a5.3033009 4.2426405 0 1 1 -10.606601 0 5.3033009 4.2426405 0 1 1 10.606601 0z" fill="#feed36" opacity=".536129" transform="matrix(.10041749774 0 0 .12614814692 178.99617844107 75.27866238017)"/><path d="m41.365747 52.866486a5.3033009 4.2426405 0 1 1 -10.606601 0 5.3033009 4.2426405 0 1 1 10.606601 0z" fill="#fffce0" opacity=".318627" transform="matrix(.09024972452 0 0 .11010791561 179.39532063438 76.11123147157)"/><path d="m41.365747 52.866486a5.3033009 4.2426405 0 1 1 -10.606601 0 5.3033009 4.2426405 0 1 1 10.606601 0z" fill="#fffce0" opacity=".539216" transform="matrix(.07817807297 0 0 .09524503636 179.80397813566 76.89972123707)"/><path d="m41.365747 52.866486a5.3033009 4.2426405 0 1 1 -10.606601 0 5.3033009 4.2426405 0 1 1 10.606601 0z" fill="#fffce0" opacity=".759804" transform="matrix(.06560343487 0 0 .08232079454 180.25478423387 77.57749707836)"/><path d="m41.365747 52.866486a5.3033009 4.2426405 0 1 1 -10.606601 0 5.3033009 4.2426405 0 1 1 10.606601 0z" fill="#fffce0" opacity=".953917" transform="matrix(.05101685424 0 0 .06422685548 180.78881433435 78.53954353683)"/><path d="m41.365747 52.866486a5.3033009 4.2426405 0 1 1 -10.606601 0 5.3033009 4.2426405 0 1 1 10.606601 0z" fill="#fefefe" opacity=".953917" transform="matrix(.04124190196 0 0 .04802407706 181.14708287748 79.38987822122)"/><path d="m183.1875 82.5625a4.375 4 0 1 1 -8.75 0 4.375 4 0 1 1 8.75 0z" fill="url(#e)" opacity=".779412" transform="matrix(.27142860705 0 0 .28906249688 132.96517916097 59.60302807853)"/><path d="m41.365747 52.866486a5.3033009 4.2426405 0 1 1 -10.606601 0 5.3033009 4.2426405 0 1 1 10.606601 0z" fill="#fe3636" opacity=".132353" transform="matrix(.14860814508 0 0 .19218887574 176.14025288719 73.30957395192)"/><path d="m41.365747 52.866486a5.3033009 4.2426405 0 1 1 -10.606601 0 5.3033009 4.2426405 0 1 1 10.606601 0z" fill="#fe3636" opacity=".333333" transform="matrix(.1375424581 0 0 .17926463907 176.53397321451 73.99283326496)"/><path d="m41.365747 52.866486a5.3033009 4.2426405 0 1 1 -10.606601 0 5.3033009 4.2426405 0 1 1 10.606601 0z" fill="#fe3636" opacity=".598039" transform="matrix(.12848871974 0 0 .16634040241 176.86047382816 74.67060923509)"/><path d="m41.365747 52.866486a5.3033009 4.2426405 0 1 1 -10.606601 0 5.3033009 4.2426405 0 1 1 10.606601 0z" fill="#feed36" opacity=".122549" transform="matrix(.12003393167 0 0 .15264284175 177.17709937764 75.38072249855)"/><path d="m41.365747 52.866486a5.3033009 4.2426405 0 1 1 -10.606601 0 5.3033009 4.2426405 0 1 1 10.606601 0z" fill="#feed36" opacity=".308824" transform="matrix(.1094712361 0 0 .13971860508 177.55001340054 76.06398181159)"/><path d="m41.365747 52.866486a5.3033009 4.2426405 0 1 1 -10.606601 0 5.3033009 4.2426405 0 1 1 10.606601 0z" fill="#feed36" opacity=".536129" transform="matrix(.10041749774 0 0 .12614814692 177.87117844107 76.77866238017)"/><path d="m41.365747 52.866486a5.3033009 4.2426405 0 1 1 -10.606601 0 5.3033009 4.2426405 0 1 1 10.606601 0z" fill="#fffce0" opacity=".318627" transform="matrix(.09024972452 0 0 .11010791561 178.27032063438 77.61123147157)"/><path d="m41.365747 52.866486a5.3033009 4.2426405 0 1 1 -10.606601 0 5.3033009 4.2426405 0 1 1 10.606601 0z" fill="#fffce0" opacity=".539216" transform="matrix(.07817807297 0 0 .09524503636 178.67897813566 78.39972123707)"/><path d="m41.365747 52.866486a5.3033009 4.2426405 0 1 1 -10.606601 0 5.3033009 4.2426405 0 1 1 10.606601 0z" fill="#fffce0" opacity=".759804" transform="matrix(.06560343487 0 0 .08232079454 179.12978423387 79.07749707836)"/><path d="m41.365747 52.866486a5.3033009 4.2426405 0 1 1 -10.606601 0 5.3033009 4.2426405 0 1 1 10.606601 0z" fill="#fffce0" opacity=".953917" transform="matrix(.05101685424 0 0 .06422685548 179.66381433435 80.03954353683)"/><path d="m41.365747 52.866486a5.3033009 4.2426405 0 1 1 -10.606601 0 5.3033009 4.2426405 0 1 1 10.606601 0z" fill="#fefefe" opacity=".953917" transform="matrix(.04124190196 0 0 .04802407706 180.02208287748 80.88987822122)"/><path d="m183.1875 82.5625a4.375 4 0 1 1 -8.75 0 4.375 4 0 1 1 8.75 0z" fill="url(#e)" opacity=".779412" transform="matrix(.16428574406 0 0 .16406249172 150.40491001291 67.86084088311)"/><path d="m41.365747 52.866486a5.3033009 4.2426405 0 1 1 -10.606601 0 5.3033009 4.2426405 0 1 1 10.606601 0z" fill="#fe3636" opacity=".132353" transform="matrix(.08994703968 0 0 .10908016839 176.53719278569 75.64023147565)"/><path d="m41.365747 52.866486a5.3033009 4.2426405 0 1 1 -10.606601 0 5.3033009 4.2426405 0 1 1 10.606601 0z" fill="#fe3636" opacity=".333333" transform="matrix(.0832493867 0 0 .10174479111 176.77549720625 76.02802728658)"/><path d="m41.365747 52.866486a5.3033009 4.2426405 0 1 1 -10.606601 0 5.3033009 4.2426405 0 1 1 10.606601 0z" fill="#fe3636" opacity=".598039" transform="matrix(.07776949215 0 0 .09440941384 176.9731160086 76.41271093005)"/><path d="m41.365747 52.866486a5.3033009 4.2426405 0 1 1 -10.606601 0 5.3033009 4.2426405 0 1 1 10.606601 0z" fill="#feed36" opacity=".122549" transform="matrix(.07265212017 0 0 .08663512296 177.16475779814 76.8157481717)"/><path d="m41.365747 52.866486a5.3033009 4.2426405 0 1 1 -10.606601 0 5.3033009 4.2426405 0 1 1 10.606601 0z" fill="#feed36" opacity=".308824" transform="matrix(.06625890938 0 0 .07929974568 177.39046892855 77.20354398264)"/><path d="m41.365747 52.866486a5.3033009 4.2426405 0 1 1 -10.606601 0 5.3033009 4.2426405 0 1 1 10.606601 0z" fill="#feed36" opacity=".536129" transform="matrix(.06077901483 0 0 .07159759406 177.5848583049 77.60917347845)"/><path d="m41.365747 52.866486a5.3033009 4.2426405 0 1 1 -10.606601 0 5.3033009 4.2426405 0 1 1 10.606601 0z" fill="#fffce0" opacity=".318627" transform="matrix(.054624836 0 0 .06249367935 177.82644438136 78.08171267374)"/><path d="m41.365747 52.866486a5.3033009 4.2426405 0 1 1 -10.606601 0 5.3033009 4.2426405 0 1 1 10.606601 0z" fill="#fffce0" opacity=".539216" transform="matrix(.04731830969 0 0 .05405799146 178.07378972345 78.52923387425)"/><path d="m41.365747 52.866486a5.3033009 4.2426405 0 1 1 -10.606601 0 5.3033009 4.2426405 0 1 1 10.606601 0z" fill="#fffce0" opacity=".759804" transform="matrix(.03970734414 0 0 .04672261126 178.3466460597 78.91391744458)"/><path d="m41.365747 52.866486a5.3033009 4.2426405 0 1 1 -10.606601 0 5.3033009 4.2426405 0 1 1 10.606601 0z" fill="#fffce0" opacity=".953917" transform="matrix(.03087862385 0 0 .03645307869 178.66987482089 79.45994379125)"/><path d="m41.365747 52.866486a5.3033009 4.2426405 0 1 1 -10.606601 0 5.3033009 4.2426405 0 1 1 10.606601 0z" fill="#fefefe" opacity=".953917" transform="matrix(.02496220506 0 0 .02725690752 178.88672158152 79.94256616054)"/><path d="m183.1875 82.5625a4.375 4 0 1 1 -8.75 0 4.375 4 0 1 1 8.75 0z" fill="url(#e)" opacity=".779412" transform="matrix(.16428574406 0 0 .16406249172 144.59241001291 57.92334088311)"/><path d="m41.365747 52.866486a5.3033009 4.2426405 0 1 1 -10.606601 0 5.3033009 4.2426405 0 1 1 10.606601 0z" fill="#fe3636" opacity=".132353" transform="matrix(.08994703968 0 0 .10908016839 170.72469278569 65.70273147565)"/><path d="m41.365747 52.866486a5.3033009 4.2426405 0 1 1 -10.606601 0 5.3033009 4.2426405 0 1 1 10.606601 0z" fill="#fe3636" opacity=".333333" transform="matrix(.0832493867 0 0 .10174479111 170.96299720625 66.09052728658)"/><path d="m41.365747 52.866486a5.3033009 4.2426405 0 1 1 -10.606601 0 5.3033009 4.2426405 0 1 1 10.606601 0z" fill="#fe3636" opacity=".598039" transform="matrix(.07776949215 0 0 .09440941384 171.1606160086 66.47521093005)"/><path d="m41.365747 52.866486a5.3033009 4.2426405 0 1 1 -10.606601 0 5.3033009 4.2426405 0 1 1 10.606601 0z" fill="#feed36" opacity=".122549" transform="matrix(.07265212017 0 0 .08663512296 171.35225779814 66.8782481717)"/><path d="m41.365747 52.866486a5.3033009 4.2426405 0 1 1 -10.606601 0 5.3033009 4.2426405 0 1 1 10.606601 0z" fill="#feed36" opacity=".308824" transform="matrix(.06625890938 0 0 .07929974568 171.57796892855 67.26604398264)"/><path d="m41.365747 52.866486a5.3033009 4.2426405 0 1 1 -10.606601 0 5.3033009 4.2426405 0 1 1 10.606601 0z" fill="#feed36" opacity=".536129" transform="matrix(.06077901483 0 0 .07159759406 171.7723583049 67.67167347845)"/><path d="m41.365747 52.866486a5.3033009 4.2426405 0 1 1 -10.606601 0 5.3033009 4.2426405 0 1 1 10.606601 0z" fill="#fffce0" opacity=".318627" transform="matrix(.054624836 0 0 .06249367935 172.01394438136 68.14421267374)"/><path d="m41.365747 52.866486a5.3033009 4.2426405 0 1 1 -10.606601 0 5.3033009 4.2426405 0 1 1 10.606601 0z" fill="#fffce0" opacity=".539216" transform="matrix(.04731830969 0 0 .05405799146 172.26128972345 68.59173387425)"/><path d="m41.365747 52.866486a5.3033009 4.2426405 0 1 1 -10.606601 0 5.3033009 4.2426405 0 1 1 10.606601 0z" fill="#fffce0" opacity=".759804" transform="matrix(.03970734414 0 0 .04672261126 172.5341460597 68.97641744458)"/><path d="m41.365747 52.866486a5.3033009 4.2426405 0 1 1 -10.606601 0 5.3033009 4.2426405 0 1 1 10.606601 0z" fill="#fffce0" opacity=".953917" transform="matrix(.03087862385 0 0 .03645307869 172.85737482089 69.52244379125)"/><path d="m41.365747 52.866486a5.3033009 4.2426405 0 1 1 -10.606601 0 5.3033009 4.2426405 0 1 1 10.606601 0z" fill="#fefefe" opacity=".953917" transform="matrix(.02496220506 0 0 .02725690752 173.07422158152 70.00506616054)"/><path d="m183.1875 82.5625a4.375 4 0 1 1 -8.75 0 4.375 4 0 1 1 8.75 0z" fill="url(#e)" opacity=".779412" transform="matrix(.16428574406 0 0 .16406249172 147.84241001291 67.17334088311)"/><path d="m41.365747 52.866486a5.3033009 4.2426405 0 1 1 -10.606601 0 5.3033009 4.2426405 0 1 1 10.606601 0z" fill="#fe3636" opacity=".132353" transform="matrix(.08994703968 0 0 .10908016839 173.97469278569 74.95273147565)"/><path d="m41.365747 52.866486a5.3033009 4.2426405 0 1 1 -10.606601 0 5.3033009 4.2426405 0 1 1 10.606601 0z" fill="#fe3636" opacity=".333333" transform="matrix(.0832493867 0 0 .10174479111 174.21299720625 75.34052728658)"/><path d="m41.365747 52.866486a5.3033009 4.2426405 0 1 1 -10.606601 0 5.3033009 4.2426405 0 1 1 10.606601 0z" fill="#fe3636" opacity=".598039" transform="matrix(.07776949215 0 0 .09440941384 174.4106160086 75.72521093005)"/><path d="m41.365747 52.866486a5.3033009 4.2426405 0 1 1 -10.606601 0 5.3033009 4.2426405 0 1 1 10.606601 0z" fill="#feed36" opacity=".122549" transform="matrix(.07265212017 0 0 .08663512296 174.60225779814 76.1282481717)"/><path d="m41.365747 52.866486a5.3033009 4.2426405 0 1 1 -10.606601 0 5.3033009 4.2426405 0 1 1 10.606601 0z" fill="#feed36" opacity=".308824" transform="matrix(.06625890938 0 0 .07929974568 174.82796892855 76.51604398264)"/><path d="m41.365747 52.866486a5.3033009 4.2426405 0 1 1 -10.606601 0 5.3033009 4.2426405 0 1 1 10.606601 0z" fill="#feed36" opacity=".536129" transform="matrix(.06077901483 0 0 .07159759406 175.0223583049 76.92167347845)"/><path d="m41.365747 52.866486a5.3033009 4.2426405 0 1 1 -10.606601 0 5.3033009 4.2426405 0 1 1 10.606601 0z" fill="#fffce0" opacity=".318627" transform="matrix(.054624836 0 0 .06249367935 175.26394438136 77.39421267374)"/><path d="m41.365747 52.866486a5.3033009 4.2426405 0 1 1 -10.606601 0 5.3033009 4.2426405 0 1 1 10.606601 0z" fill="#fffce0" opacity=".539216" transform="matrix(.04731830969 0 0 .05405799146 175.51128972345 77.84173387425)"/><path d="m41.365747 52.866486a5.3033009 4.2426405 0 1 1 -10.606601 0 5.3033009 4.2426405 0 1 1 10.606601 0z" fill="#fffce0" opacity=".759804" transform="matrix(.03970734414 0 0 .04672261126 175.7841460597 78.22641744458)"/><path d="m41.365747 52.866486a5.3033009 4.2426405 0 1 1 -10.606601 0 5.3033009 4.2426405 0 1 1 10.606601 0z" fill="#fffce0" opacity=".953917" transform="matrix(.03087862385 0 0 .03645307869 176.10737482089 78.77244379125)"/><path d="m41.365747 52.866486a5.3033009 4.2426405 0 1 1 -10.606601 0 5.3033009 4.2426405 0 1 1 10.606601 0z" fill="#fefefe" opacity=".953917" transform="matrix(.02496220506 0 0 .02725690752 176.32422158152 79.25506616054)"/><path d="m183.1875 82.5625a4.375 4 0 1 1 -8.75 0 4.375 4 0 1 1 8.75 0z" fill="url(#e)" opacity=".779412" transform="matrix(.11428574201 0 0 .1093749875 154.62678174335 69.46972731412)"/><path d="m41.365747 52.866486a5.3033009 4.2426405 0 1 1 -10.606601 0 5.3033009 4.2426405 0 1 1 10.606601 0z" fill="#fe3636" opacity=".132353" transform="matrix(.06257185752 0 0 .07272010762 172.805762178 74.65598737821)"/><path d="m41.365747 52.866486a5.3033009 4.2426405 0 1 1 -10.606601 0 5.3033009 4.2426405 0 1 1 10.606601 0z" fill="#fe3636" opacity=".333333" transform="matrix(.05791262038 0 0 .06782985641 172.97153917638 74.91451790234)"/><path d="m41.365747 52.866486a5.3033009 4.2426405 0 1 1 -10.606601 0 5.3033009 4.2426405 0 1 1 10.606601 0z" fill="#fe3636" opacity=".598039" transform="matrix(.0541005196 0 0 .06293960521 173.10901313427 75.17097364829)"/><path d="m41.365747 52.866486a5.3033009 4.2426405 0 1 1 -10.606601 0 5.3033009 4.2426405 0 1 1 10.606601 0z" fill="#feed36" opacity=".122549" transform="matrix(.05054060843 0 0 .05775674496 173.24232916995 75.43966512558)"/><path d="m41.365747 52.866486a5.3033009 4.2426405 0 1 1 -10.606601 0 5.3033009 4.2426405 0 1 1 10.606601 0z" fill="#feed36" opacity=".308824" transform="matrix(.04609315717 0 0 .05286649375 173.39934561812 75.69819564971)"/><path d="m41.365747 52.866486a5.3033009 4.2426405 0 1 1 -10.606601 0 5.3033009 4.2426405 0 1 1 10.606601 0z" fill="#feed36" opacity=".536129" transform="matrix(.04228105639 0 0 .04773172633 173.53457301866 75.96861529632)"/><path d="m41.365747 52.866486a5.3033009 4.2426405 0 1 1 -10.606601 0 5.3033009 4.2426405 0 1 1 10.606601 0z" fill="#fffce0" opacity=".318627" transform="matrix(.03799988824 0 0 .04166245024 173.70263290823 76.28364140642)"/><path d="m41.365747 52.866486a5.3033009 4.2426405 0 1 1 -10.606601 0 5.3033009 4.2426405 0 1 1 10.606601 0z" fill="#fffce0" opacity=".539216" transform="matrix(.03291708702 0 0 .03603865868 173.87469924372 76.58198885438)"/><path d="m41.365747 52.866486a5.3033009 4.2426405 0 1 1 -10.606601 0 5.3033009 4.2426405 0 1 1 10.606601 0z" fill="#fffce0" opacity=".759804" transform="matrix(.02762250197 0 0 .03114840552 174.06451235883 76.83844455158)"/><path d="m41.365747 52.866486a5.3033009 4.2426405 0 1 1 -10.606601 0 5.3033009 4.2426405 0 1 1 10.606601 0z" fill="#fffce0" opacity=".953917" transform="matrix(.02148078312 0 0 .02430205091 174.28936716301 77.20246209279)"/><path d="m41.365747 52.866486a5.3033009 4.2426405 0 1 1 -10.606601 0 5.3033009 4.2426405 0 1 1 10.606601 0z" fill="#fefefe" opacity=".953917" transform="matrix(.01736501328 0 0 .01817127052 174.44021709269 77.52421031846)"/><path d="m191.97949 74.875183a2.695845 3.0052043 0 1 1 -5.39169 0 2.695845 3.0052043 0 1 1 5.39169 0z" fill="url(#d)" transform="translate(0 -2.032932)"/><path d="m191.97949 74.875183a2.695845 3.0052043 0 1 1 -5.39169 0 2.695845 3.0052043 0 1 1 5.39169 0z" fill="url(#d)" transform="translate(1.856155)"/><path d="m191.97949 74.875183a2.695845 3.0052043 0 1 1 -5.39169 0 2.695845 3.0052043 0 1 1 5.39169 0z" fill="url(#d)" opacity=".813725" transform="matrix(.73770492 0 0 .6764706 49.55978 23.87077)"/><path d="m191.97949 74.875183a2.695845 3.0052043 0 1 1 -5.39169 0 2.695845 3.0052043 0 1 1 5.39169 0z" fill="url(#d)" opacity=".813725" transform="matrix(.73770492 0 0 .6764706 50.62044 25.638537)"/><path d="m191.97949 74.875183a2.695845 3.0052043 0 1 1 -5.39169 0 2.695845 3.0052043 0 1 1 5.39169 0z" fill="url(#d)" opacity=".813725" transform="matrix(.94519433 0 0 1.3090028 13.054496 -21.943939)"/><path d="m191.97949 74.875183a2.695845 3.0052043 0 1 1 -5.39169 0 2.695845 3.0052043 0 1 1 5.39169 0z" fill="url(#c)" opacity=".352941" transform="matrix(.59860195 0 0 .5308898 77.762858 33.663926)"/><path d="m191.97949 74.875183a2.695845 3.0052043 0 1 1 -5.39169 0 2.695845 3.0052043 0 1 1 5.39169 0z" fill="url(#c)" opacity=".352941" transform="matrix(.59860195 0 0 .5308898 78.512858 34.413926)"/><path d="m191.97949 74.875183a2.695845 3.0052043 0 1 1 -5.39169 0 2.695845 3.0052043 0 1 1 5.39169 0z" fill="url(#c)" opacity=".352941" transform="matrix(.37835558 0 0 .34371448 120.29564 48.616212)"/><path d="m191.97949 74.875183a2.695845 3.0052043 0 1 1 -5.39169 0 2.695845 3.0052043 0 1 1 5.39169 0z" fill="url(#c)" opacity=".352941" transform="matrix(.37835558 0 0 .34371448 119.35814 48.803712)"/><path d="m191.97949 74.875183a2.695845 3.0052043 0 1 1 -5.39169 0 2.695845 3.0052043 0 1 1 5.39169 0z" fill="url(#c)" opacity=".377451" transform="matrix(.34863795 -.37159387 .21099218 .55372454 109.99205 104.67518)"/><path d="m191.97949 74.875183a2.695845 3.0052043 0 1 1 -5.39169 0 2.695845 3.0052043 0 1 1 5.39169 0z" fill="url(#c)" opacity=".377451" transform="matrix(.34863795 -.37159387 .21099218 .55372454 110.72694 104.99186)"/><path d="m191.97949 74.875183a2.695845 3.0052043 0 1 1 -5.39169 0 2.695845 3.0052043 0 1 1 5.39169 0z" fill="url(#c)" opacity=".377451" transform="matrix(.22036198 -.23487163 .13660286 .35849838 140.70652 93.867536)"/><path d="m157.03888 73.264034s1.05371 3.377146 2.47195 5.013583c2.41438 2.785842 7.55682 11.097434 15.39653 11.300955 17.8481.463327 27.07166-5.952304 25.56389-18.919668-1.44518-12.428999-20.64691-10.697448-26.40067-5.106546-8.11985 7.890013 2.85318 11.449737 2.85318 11.449737" style="opacity:.696078;fill:none;stroke:#e3e3e3;stroke-width:.683876;stroke-opacity:.862944;stroke-dasharray:2.735504 .683876"/><path d="m157.28916 73.651414s1.05371 3.377146 2.47195 5.013583c2.41438 2.785842 7.55682 11.097434 15.39653 11.300955 17.8481.463327 27.07166-5.952304 25.56389-18.919668-1.44518-12.428999-20.64691-10.697448-26.40067-5.106546-8.11985 7.890013 2.85318 11.449737 2.85318 11.449737" style="opacity:.446078;fill:none;stroke:#e3e3e3;stroke-width:.683876;stroke-opacity:.862944;stroke-dasharray:2.735504 .683876"/><path d="m191.97949 74.875183a2.695845 3.0052043 0 1 1 -5.39169 0 2.695845 3.0052043 0 1 1 5.39169 0z" fill="url(#c)" opacity=".377451" transform="matrix(.22036198 -.23487163 .13660286 .35849838 140.23502 94.645078)"/><path d="m82.25 61.5a22.625 10.873223 0 1 1 -45.25 0 22.625 10.873223 0 1 1 45.25 0z" fill="url(#b)" opacity=".897059" transform="matrix(.15590196 .25725026 -.56083684 -.03130312 214.49473 86.832667)"/><g opacity=".857843" transform="translate(-.707901 -3.469647)"><g fill="#2396ff"><path d="m25.625 28.375a3.6875 4.125 0 1 1 -7.375 0 3.6875 4.125 0 1 1 7.375 0z" opacity=".392157" transform="matrix(1.0558527 0 0 .91859883 133.73881 49.641731)"/><path d="m25.625 28.375a3.6875 4.125 0 1 1 -7.375 0 3.6875 4.125 0 1 1 7.375 0z" opacity=".392157" transform="matrix(.80996916 0 0 .66807187 138.97287 56.635609)"/><path d="m25.625 28.375a3.6875 4.125 0 1 1 -7.375 0 3.6875 4.125 0 1 1 7.375 0z" opacity=".460784" transform="matrix(.54962193 0 0 .51497207 144.79091 61.037229)"/><path d="m25.625 28.375a3.6875 4.125 0 1 1 -7.375 0 3.6875 4.125 0 1 1 7.375 0z" opacity=".691176" transform="matrix(.40498457 0 0 .37579042 147.96389 64.986509)"/></g><path d="m25.625 28.375a3.6875 4.125 0 1 1 -7.375 0 3.6875 4.125 0 1 1 7.375 0z" fill="#8cc8ff" opacity=".691176" transform="matrix(.21695602 0 0 .22269061 152.03543 69.388128)"/></g></g></g></svg>