<svg height="96" width="96" xmlns="http://www.w3.org/2000/svg" xmlns:xlink="http://www.w3.org/1999/xlink"><linearGradient id="a"><stop offset="0" stop-color="#fefefe"/><stop offset="1" stop-color="#fefefe" stop-opacity="0"/></linearGradient><clipPath id="b"><rect height="84" rx="6" width="84" x="6" y="6"/></clipPath><linearGradient id="c" gradientTransform="matrix(1.0238095 0 0 1.0119048 -1.142857 -98.071429)" gradientUnits="userSpaceOnUse" x1="32.251034" x2="32.251034" y1="6.131708" y2="90.238609"><stop offset="0"/><stop offset="1" stop-opacity=".588235"/></linearGradient><linearGradient id="d" gradientUnits="userSpaceOnUse" x1="32.251034" x2="32.251034" y1="-90.868292" y2="-6.761391"><stop offset="0" stop-color="#787878"/><stop offset="1" stop-color="#b4b4b4"/></linearGradient><linearGradient id="e" gradientUnits="userSpaceOnUse" x1="36.357143" x2="36.357143" xlink:href="#a" y1="7.343749" y2="65.236892"/><radialGradient id="f" cx="48" cy="90.171875" gradientTransform="matrix(1.1573129 0 0 .99590774 -7.551021 2.197131)" gradientUnits="userSpaceOnUse" r="42" xlink:href="#a"/><filter id="g" color-interpolation-filters="sRGB" height="1.6024" width="1.6024" x="-.3012" y="-.3012"><feGaussianBlur stdDeviation="8.283"/></filter><linearGradient id="h" gradientUnits="userSpaceOnUse" x1="48" x2="48" xlink:href="#a" y1="20.220806" y2="138.66119"/><g fill="url(#c)"><path d="m12-95.03125c-5.5110903 0-10.03125 4.52016-10.03125 10.03125v71c0 5.5110902 4.5201598 10.03125 10.03125 10.03125h72c5.51109 0 10.03125-4.5201597 10.03125-10.03125v-71c0-5.51109-4.52016-10.03125-10.03125-10.03125z" opacity=".08" transform="scale(1 -1)"/><path d="m12-94.03125c-4.971633 0-9.03125 4.059617-9.03125 9.03125v71c0 4.9716329 4.0596171 9.03125 9.03125 9.03125h72c4.971633 0 9.03125-4.059617 9.03125-9.03125v-71c0-4.971633-4.059617-9.03125-9.03125-9.03125z" opacity=".1" transform="scale(1 -1)"/><path d="m12-93c-4.4091333 0-8 3.590867-8 8v71c0 4.4091333 3.5908667 8 8 8h72c4.409133 0 8-3.5908667 8-8v-71c0-4.409133-3.590867-8-8-8z" opacity=".2" transform="scale(1 -1)"/><rect height="85" opacity=".3" rx="7" transform="scale(1 -1)" width="86" x="5" y="-92"/></g><rect fill="url(#d)" height="84" rx="6" transform="scale(1 -1)" width="84" x="6" y="-91"/><path d="m37.293508 79.941464c-.08044-.130127.496485-3.091403 1.282025-6.580598 1.372281-6.095405 1.411207-6.353934.993281-6.597512-.638284-.283208-1.33026-.0899-1.977148.115767-.646889.205712-1.286019.447485-1.286019.447485l-7.714403-7.086018s.327908-.897239.57294-1.573856c.354546-.820453.09288-2.619746-.568649-2.619746-.177464 0-3.048762.615632-6.380647 1.368081-3.342899.754928-6.14584 1.280225-6.254004 1.172058-.309737-.309735.0078-1.001978 1.506108-3.283918 3.906591-5.949582 9.785373-11.177032 13.530652-14.13745 0 0 .864651-.284857 2.837591-.288199 1.144876-.0023 2.199268-.07948 2.343093-.172334 3.33812-6.600716 8.763492-11.04754 13.920702-14.229947 7.52634-4.748438 17.41946-8.023251 27.17935-7.998213-.55723 10.244557-4.10681 21.147568-9.18316 29.299312-5.21432 7.155056-8.03422 9.492658-12.95011 11.96691-.13594.21767-.26565 1.388055-.28826 2.600859-.0225 1.212801-.13745 2.205095-.25522 2.205095-3.43772 5.307601-8.6222 10.657119-15.755024 14.908903 0 0-1.082172.609165-1.553092.483485zm25.623222-40.676289c3.44179-2.50021 3.24746-7.402956.22676-9.06653-3.68924-1.566314-8.15644 1.237999-7.51427 5.216773.3198 3.526955 4.05996 5.502757 7.28751 3.849757zm-43.027502 36.125662c-.333827-.352837-.402129-.862897-.402129-3.002936 0-4.524308.865882-7.002472 2.896701-8.290376 1.175775-.745654 3.05589-1.269934 3.844416-1.072022.495762.124421.440977.222756-.877382 1.574952-1.547014 1.586709-2.010046 2.730552-2.309197 5.704486-.19713 1.959698.02624 2.176497 2.019419 1.960195 2.92844-.3178 4.059579-.785026 5.646654-2.332407 1.589855-1.550088 1.809415-1.514002 1.566607.257463-.190938 1.393104-1.132078 3.168651-2.080794 3.925656-1.551281 1.237799-2.698304 1.524981-6.455373 1.616278-3.11943.07581-3.484991.04339-3.848922-.341289z" opacity=".95"/><path d="m38.086857 81.350226c-.08148-.131822.502947-3.131649 1.298714-6.666264 1.390145-6.174753 1.42958-6.436649 1.006211-6.683401-.646592-.286894-1.347575-.0911-2.002886.117278-.655311.208391-1.302758.453307-1.302758.453307l-7.81483-7.178265s.332178-.908915.5804-1.594343c.35916-.831134.09408-2.65385-.576053-2.65385-.179775 0-3.088448.623647-6.463713 1.385891-3.386415.764756-6.225844 1.296894-6.335416 1.187316-.313767-.313768.0078-1.015023 1.525716-3.326669 3.957448-6.027031 9.912755-11.322534 13.706793-14.321489 0 0 .875905-.288567 2.874529-.29195 1.159781-.0023 2.227898-.08052 2.373597-.17458 3.381575-6.686643 8.877573-11.191356 14.101922-14.415191 7.62432-4.810252 17.646229-8.127697 27.533171-8.102332-.564483 10.377918-4.160269 21.422865-9.302702 29.68073-5.282202 7.248198-8.138811 9.616234-13.118702 12.122696-.137704.220501-.269106 1.406121-.292013 2.634716-.02287 1.228586-.139242 2.233802-.258543 2.233802-3.482471 5.37669-8.73444 10.795849-15.96012 15.102984 0 0-1.096258.617097-1.573311.489778zm25.956789-41.205813c3.486593-2.532759 3.289738-7.499328.229709-9.184558-3.737266-1.586704-8.262614 1.254114-7.612094 5.284684.323972 3.572869 4.112814 5.574394 7.382385 3.899874zm-43.587638 36.595948c-.33817-.357434-.40736-.874131-.40736-3.04203 0-4.583209.87715-7.093631 2.934405-8.398303 1.191086-.75536 3.095672-1.286463 3.894465-1.085976.502215.126044.446718.225658-.888801 1.595455-1.567156 1.607364-2.036217 2.766096-2.339263 5.778748-.199696 1.985207.02656 2.204829 2.045711 1.985712 2.966559-.321935 4.112426-.795246 5.720162-2.36277 1.610552-1.57027 1.832967-1.533713 1.587.260814-.193425 1.41124-1.146815 3.209904-2.107883 3.976761-1.571475 1.253912-2.733427 1.544836-6.539409 1.637317-3.160036.07677-3.530355.04395-3.899027-.345728z" fill="#f3f9f9" opacity=".519"/><path d="m37.825125 80.370757c-.08044-.130127.496485-3.091403 1.282025-6.580598 1.372281-6.095405 1.411207-6.353934.993281-6.597512-.638284-.283208-1.33026-.0899-1.977148.115767-.646889.205712-1.286019.447485-1.286019.447485l-7.714403-7.086018s.327908-.897239.57294-1.573856c.354546-.820453.09288-2.619746-.568649-2.619746-.177464 0-3.048762.615632-6.380647 1.368081-3.342899.754928-6.14584 1.280225-6.254004 1.172058-.309737-.309735.0078-1.001978 1.506108-3.283918 3.906591-5.949582 9.785373-11.177032 13.530652-14.13745 0 0 .864651-.284857 2.837591-.288199 1.144876-.0023 2.199268-.07948 2.343093-.172334 3.33812-6.600716 8.763492-11.04754 13.920705-14.229946 7.52634-4.748438 17.419461-8.023251 27.179349-7.998213-.55723 10.244556-4.106807 21.147567-9.183157 29.299311-5.214323 7.155056-8.03422 9.492658-12.950116 11.96691-.135936.21767-.265649 1.388055-.288262 2.600859-.02255 1.212801-.137451 2.205095-.255218 2.205095-3.437722 5.307601-8.622199 10.657119-15.755023 14.908903 0 0-1.082172.609165-1.553092.483485zm25.623226-40.676289c3.441787-2.50021 3.247461-7.402956.226757-9.06653-3.689239-1.566314-8.156436 1.237999-7.514273 5.216773.319807 3.526955 4.059959 5.502757 7.287516 3.849757zm-43.027506 36.125662c-.333827-.352837-.402129-.862897-.402129-3.002936 0-4.524308.865882-7.002472 2.896701-8.290376 1.175775-.745654 3.05589-1.269934 3.844416-1.072022.495762.124421.440977.222756-.877382 1.574952-1.547014 1.586709-2.010046 2.730552-2.309197 5.704486-.19713 1.959698.02624 2.176497 2.019419 1.960195 2.92844-.3178 4.059579-.785026 5.646654-2.332407 1.589855-1.550088 1.809415-1.514002 1.566607.257463-.190938 1.393104-1.132078 3.168651-2.080794 3.925656-1.551281 1.237799-2.698304 1.524981-6.455373 1.616278-3.11943.07581-3.484991.04339-3.848922-.341289z" opacity=".635"/><path d="m12 7.3437492c-3.324 0-6 2.6760008-6 6.0000008v2 68 2c0 .334721.04135.6507.09375.96875.0487.295596.09704.596915.1875.875.0099.03038.02089.0636.03125.09375.09886.287771.23488.547452.375.8125.144592.273507.315616.535615.5.78125s.373777.473472.59375.6875c.439947.428056.94291.814526 1.5 1.09375.2785449.139612.5734729.246947.875.34375-.2562025-.100222-.4867111-.236272-.7187501-.375-.0074-.0044-.02387.0045-.03125 0-.03193-.0193-.06229-.04251-.09375-.0625-.120395-.0767-.231023-.163513-.34375-.25-.106173-.0808-.213281-.161112-.3125-.25-.17793-.161433-.34746-.345388-.5-.53125-.107579-.130255-.218394-.265285-.3125-.40625-.02509-.03838-.03845-.08587-.0625-.125-.06476-.103032-.130227-.204517-.1875-.3125-.101008-.194706-.205675-.415701-.28125-.625-.008-.02181-.02359-.04055-.03125-.0625-.03182-.09195-.0358-.186831-.0625-.28125-.030332-.106618-.070389-.203031-.09375-.3125-.072879-.341512-.125-.698205-.125-1.0625v-2-68-2c0-2.781848 2.218152-5.0000003 5.0000001-5.0000003h2 68 2c2.78185 0 5 2.2181523 5 5.0000003v2 68 2c0 .364295-.0521.720988-.125 1.0625-.0442.206893-.0884.397658-.15625.59375-.008.02195-.0233.04069-.0312.0625-.0627.173739-.13838.367449-.21875.53125-.0416.0828-.079.169954-.125.25-.0546.09721-.12677.18835-.1875.28125-.0941.140965-.20492.275995-.3125.40625-.14317.17445-.30314.346998-.46875.5-.0112.0102-.02.02115-.0312.03125-.13839.125556-.28509.234436-.4375.34375-.10257.07315-.20432.153364-.3125.21875-.007.0045-.0238-.0044-.0312 0-.23204.138728-.46255.274778-.71875.375.30153-.0968.596459-.204138.875-.34375.55709-.279224 1.06005-.665694 1.5-1.09375.21997-.214028.40937-.441865.59375-.6875s.35541-.507743.5-.78125c.14012-.265048.276129-.524729.375-.8125.0104-.03078.0213-.06274.0312-.09375.0905-.278085.1388-.579404.1875-.875.0523-.31805.09365-.634029.09365-.96875v-2-68-2c0-3.324-2.676001-6.0000008-6-6.0000008z" fill="url(#e)" opacity=".3"/><path d="m12 92c-3.324 0-6-2.676-6-6v-2-68-2c0-.334721.04135-.6507.09375-.96875.0487-.295596.09704-.596915.1875-.875.0099-.03038.02089-.0636.03125-.09375.09886-.287771.23488-.547452.375-.8125.144592-.273507.315616-.535615.5-.78125s.373776-.473472.59375-.6875c.439947-.428056.94291-.8145265 1.5-1.0937505.278545-.139612.573473-.246947.875-.34375-.256202.100222-.486711.236272-.71875.375-.0074.0044-.02387-.0045-.03125 0-.03193.0193-.06229.04251-.09375.0625-.120395.0767-.231023.163513-.34375.2500005-.106173.0808-.213281.161112-.3125.25-.17793.161433-.34746.345388-.5.53125-.107579.130255-.218394.265285-.3125.40625-.02509.03838-.03845.08587-.0625.125-.06476.103032-.130228.204517-.1875.3125-.101009.194706-.205675.415701-.28125.625-.008.02181-.02359.04055-.03125.0625-.03183.09195-.03581.186831-.0625.28125-.03033.106618-.07039.203031-.09375.3125-.07288.341512-.125.698205-.125 1.0625v2 68 2c0 2.781848 2.218152 5 5 5h2 68 2c2.781848 0 5-2.218152 5-5v-2-68-2c0-.364295-.05212-.720988-.125-1.0625-.04415-.206893-.08838-.397658-.15625-.59375-.0077-.02195-.0233-.04069-.03125-.0625-.06274-.173739-.138383-.367449-.21875-.53125-.04158-.0828-.07904-.169954-.125-.25-.0546-.09721-.126774-.18835-.1875-.28125-.09411-.140965-.204921-.275995-.3125-.40625-.143174-.17445-.303141-.346998-.46875-.5-.01117-.0102-.01998-.02115-.03125-.03125-.138386-.125556-.285091-.234436-.4375-.3437505-.102571-.07315-.204318-.153364-.3125-.21875-.0074-.0045-.02384.0044-.03125 0-.232039-.138728-.462548-.274778-.71875-.375.301527.0968.596455.204138.875.34375.55709.279224 1.060053.6656945 1.5 1.0937505.219973.214028.409366.441865.59375.6875s.355408.507743.5.78125c.14012.265048.276135.524729.375.8125.01041.03078.02133.06274.03125.09375.09046.278085.1388.579404.1875.875.0524.31805.09375.634029.09375.96875v2 68 2c0 3.324-2.676 6-6 6z" fill="url(#f)" opacity=".15"/><rect height="66" rx="33" style="stroke:#fefefe;stroke-width:.5;stroke-linecap:round;clip-path:url(#b);fill:url(#h);filter:url(#g);opacity:.11742" transform="translate(0 2)" width="66" x="15" y="15"/></svg>