<svg height="96" width="96" xmlns="http://www.w3.org/2000/svg" xmlns:xlink="http://www.w3.org/1999/xlink"><linearGradient id="a"><stop offset="0" stop-color="#3a240f"/><stop offset="1" stop-color="#3a240f" stop-opacity="0"/></linearGradient><linearGradient id="b"><stop offset="0" stop-color="#dac3a2"/><stop offset="1" stop-color="#dac3a2" stop-opacity="0"/></linearGradient><linearGradient id="c"><stop offset="0" stop-color="#8a5b30"/><stop offset="1" stop-color="#8a5b30" stop-opacity="0"/></linearGradient><linearGradient id="d"><stop offset="0" stop-color="#b88f56"/><stop offset="1" stop-color="#d9bd98"/></linearGradient><linearGradient id="e"><stop offset="0" stop-color="#fefefe"/><stop offset="1" stop-color="#fefefe" stop-opacity="0"/></linearGradient><linearGradient id="f" gradientUnits="userSpaceOnUse" x1="54.187183" x2="54.187183" y1="90" y2="39.852562"><stop offset="0" stop-color="#996c3b"/><stop offset="1" stop-color="#c19e6d"/></linearGradient><filter id="g" color-interpolation-filters="sRGB" height="1.852563" width="1.623114" x="-.311557" y="-.426282"><feGaussianBlur stdDeviation="6.2124381"/></filter><linearGradient id="h" gradientUnits="userSpaceOnUse" x1="47.079498" x2="6.596256" y1="32.782871" y2="9.409862"><stop offset="0" stop-color="#be9f6a"/><stop offset="1" stop-color="#e5d2b2"/></linearGradient><linearGradient id="i" gradientUnits="userSpaceOnUse" x1="48" x2="6.781274" xlink:href="#d" y1="42" y2="18.202358"/><linearGradient id="j" gradientTransform="matrix(-1 0 0 1 96 0)" gradientUnits="userSpaceOnUse" x1="47.226776" x2="6.330441" xlink:href="#d" y1="29.039698" y2="18.081558"/><linearGradient id="k" gradientUnits="userSpaceOnUse" x1="50.499405" x2="50.499405" y1="19.881863" y2="47.295406"><stop offset="0" stop-color="#d8cab2"/><stop offset=".45710954" stop-color="#d2b98c"/><stop offset=".48590001" stop-color="#f9f7ef"/><stop offset=".49110001" stop-color="#fefefe"/><stop offset=".49180001" stop-color="#fbf9f4"/><stop offset=".4946" stop-color="#efe7d0"/><stop offset=".49770001" stop-color="#e4d6b0"/><stop offset=".5011" stop-color="#dac894"/><stop offset=".50489998" stop-color="#c7a572"/><stop offset="1" stop-color="#d7c198"/></linearGradient><linearGradient id="l" gradientUnits="userSpaceOnUse" x1="23.142857" x2="66.964287" xlink:href="#e" y1="42" y2="6"/><linearGradient id="m" gradientUnits="userSpaceOnUse" x1="8" x2="8" xlink:href="#c" y1="38.127232" y2="71.877235"/><linearGradient id="n" gradientUnits="userSpaceOnUse" x1="10" x2="10" xlink:href="#e" y1="40.263424" y2="89.666374"/><linearGradient id="o" gradientTransform="matrix(-1 0 0 1 96 0)" gradientUnits="userSpaceOnUse" x1="8" x2="8" xlink:href="#c" y1="38.127232" y2="87.029526"/><linearGradient id="p" gradientTransform="matrix(-1 0 0 1 96 0)" gradientUnits="userSpaceOnUse" x1="10" x2="10" xlink:href="#e" y1="40.263424" y2="89.666374"/><linearGradient id="q" gradientUnits="userSpaceOnUse" x1="8.965104" x2="8.965104" xlink:href="#b" y1="44.040279" y2="52.263294"/><linearGradient id="r" gradientTransform="matrix(-1 0 0 1 96.086934 0)" gradientUnits="userSpaceOnUse" x1="8.965104" x2="8.965104" xlink:href="#b" y1="44.040279" y2="52.263294"/><radialGradient id="s" cx="48" cy="73.14563" gradientTransform="matrix(.867765 0 0 .09523809 6.34728 36.190476)" gradientUnits="userSpaceOnUse" r="42"><stop offset="0" stop-color="#71461e"/><stop offset="1" stop-color="#71461e" stop-opacity="0"/></radialGradient><radialGradient id="t" cx="48" cy="90.171875" gradientTransform="matrix(1.1573129 0 0 .99590774 -7.551021 .197132)" gradientUnits="userSpaceOnUse" r="42" xlink:href="#e"/><linearGradient id="u" gradientUnits="userSpaceOnUse" x1="51.42857" x2="90.714287" y1="72.785713" y2="72.785713"><stop offset="0" stop-color="#d70751"/><stop offset="1" stop-color="#e7466b"/></linearGradient><clipPath id="v"><path d="m0 95.999997v60.000003h96.000001v-60.000003zm68 20.000003c9.941125 0 18 8.05888 18 18s-8.058875 18-18 18-18-8.05888-18-18 8.058875-18 18-18z"/></clipPath><linearGradient id="w" gradientUnits="userSpaceOnUse" x1="62.321426" x2="62.321426" xlink:href="#e" y1="55.310268" y2="84.889679"/><linearGradient id="x" gradientTransform="matrix(1.0058652 0 0 .994169 100 0)" gradientUnits="userSpaceOnUse" x1="45.447727" x2="45.447727" y1="92.539597" y2="7.01654"><stop offset="0"/><stop offset="1" stop-opacity=".588235"/></linearGradient><linearGradient id="y" gradientTransform="matrix(1.0238095 0 0 1.0119048 -1.142857 -98.071429)" gradientUnits="userSpaceOnUse" x1="32.251034" x2="32.251034" xlink:href="#x" y1="6.131708" y2="90.238609"/><linearGradient id="z" gradientTransform="translate(0 -97)" gradientUnits="userSpaceOnUse" x1="32.251034" x2="32.251034" xlink:href="#x" y1="6.131708" y2="90.238609"/><linearGradient id="A" gradientUnits="userSpaceOnUse" x1="48.40115" x2="48.40115" xlink:href="#a" y1="61.990967" y2="4.666615"/><linearGradient id="B" gradientUnits="userSpaceOnUse" x1="46.795631" x2="46.795631" xlink:href="#a" y1="60.307007" y2="6.017931"/><g><g fill="url(#y)"><path d="m12-95.03125c-5.5110903 0-10.03125 4.52016-10.03125 10.03125v71c0 5.5110902 4.5201598 10.03125 10.03125 10.03125h72c5.51109 0 10.03125-4.5201597 10.03125-10.03125v-71c0-5.51109-4.52016-10.03125-10.03125-10.03125z" opacity=".08" transform="scale(1 -1)"/><path d="m12-94.03125c-4.971633 0-9.03125 4.059617-9.03125 9.03125v71c0 4.9716329 4.0596171 9.03125 9.03125 9.03125h72c4.971633 0 9.03125-4.059617 9.03125-9.03125v-71c0-4.971633-4.059617-9.03125-9.03125-9.03125z" opacity=".1" transform="scale(1 -1)"/><path d="m12-93c-4.4091333 0-8 3.590867-8 8v71c0 4.4091333 3.5908667 8 8 8h72c4.409133 0 8-3.5908667 8-8v-71c0-4.409133-3.590867-8-8-8z" opacity=".2" transform="scale(1 -1)"/><rect height="85" opacity=".3" rx="7" transform="scale(1 -1)" width="86" x="5" y="-92"/></g><rect fill="url(#z)" height="84" opacity=".45" rx="6" transform="scale(1 -1)" width="84" x="6" y="-91"/></g><g><path d="m6 36v48c0 1.781762.7745675 3.371709 2 4.46875v-52.46875z" fill="url(#m)"/><rect fill="url(#f)" height="84" rx="6" width="84" x="6" y="6"/><path d="m6 36v2c0 3.324 2.676 6 6 6h72c3.324 0 6-2.676 6-6v-2c0 3.324-2.676 6-6 6h-72c-3.324 0-6-2.676-6-6z" fill="url(#s)"/><path d="m90 36v48c0 1.781762-.774567 3.371709-2 4.46875v-52.46875z" fill="url(#o)"/><rect fill="#3c2510" height="24" rx="6" width="84" x="6" y="18"/><path d="m88 36v52.46875c-.576856.516417-1.254924.923089-2 1.1875v-53.65625z" fill="url(#p)" opacity=".3"/><path d="m8 36v52.46875c.5768558.516417 1.254924.923089 2 1.1875v-53.65625z" fill="url(#n)" opacity=".3"/><path d="m12 6c-3.2265819 0-6 2.2592995-6 7v2 20.65625l42 .03442v-29.69067h-34z" fill="url(#h)"/><rect fill="#dac7a8" filter="url(#g)" height="34.976532" opacity=".3" rx="6" transform="matrix(1 0 0 .8555957 10 8.58413)" width="47.855976" x="12.753176" y="41.956837"/><path d="m12 6c-3.324 0-6 2.676-6 6v24c0 3.324 2.676 6 6 6l36-2v-36z" fill="url(#i)"/><path d="m54.120367 7.0000001h-12.120367l.060184 24.0622239.134648 28.937776 5.686841-.49473 6.043862-.525331.03264-5.551173.102007-22.366542.06018-24.0622239z" fill="#3a240f" opacity=".5"/><path d="m84 6c3.324 0 6 2.676 6 6v24c0 3.324-2.676 6-6 6l-36-2v-36z" fill="url(#j)"/><path d="m41.6875 5.125c.0042-.0007112-.191651.032337-.1875.03125.0042-.00109-.160287.063954-.15625.0625.004-.00145-.160141.064309-.15625.0625.0039-.00181-.128713.06465-.125.0625.0037-.00215-.159756.096223-.15625.09375.0035-.00247-.128271.1277772-.125.125.0033-.00278-.128009.096809-.125.09375.003-.00306-.127724.1283156-.125.125.0027-.00332-.09617.1597959-.09375.15625.0024-.00355-.09584.1287479-.09375.125.0021-.00375-.06424.1601697-.0625.15625.0017-.00392-.06389.1603101-.0625.15625.0014-.00406-.03227.160418-.03125.15625.001-.00417-.06314.1604925-.0625.15625.000642-.00424-.00026.1917829 0 .1875.000208-.00343.000769.08233 0 .125v.03125l.0625 24.03125.125 28.9375a1.0057838 1.0057838 0 0 0 0 .03125c-.000042-.0025.000168.0962 0 .09375-.000168-.0025.000294.09619 0 .09375-.000294-.0024.03167.09617.03125.09375-.000419-.0024.000542.09615 0 .09375s.03191.09611.03125.09375c-.000664-.0024.03204.09608.03125.09375-.000785-.0023.03215.06479.03125.0625-.000903-.0023.03227.09599.03125.09375-.001-.0022.06363.09593.0625.09375-.0011-.0022.03249.09587.03125.09375-.0012-.0021.06385.06455.0625.0625-.0014-.0021.0327.09573.03125.09375-.0015-.002.06405.0644.0625.0625-.0016-.0019.06415.09557.0625.09375-.0016-.0018.06424.06423.0625.0625-.0017-.0017.09558.06414.09375.0625-.0018-.0016.06441.06405.0625.0625-.0019-.0015.06448.06395.0625.0625-.002-.0014.09581.06384.09375.0625-.0021-.0013.06462.03249.0625.03125-.0021-.0012.09593.06363.09375.0625-.0022-.0011.09599.03226.09375.03125-.0022-.001.09604.03215.09375.03125-.0023-.000897.09608.03203.09375.03125-.0023-.000779.09612.03191.09375.03125-.0024-.000658.09615.03179.09375.03125-.0024-.000536.09617.000412.09375 0-.0024-.000412.09619.03154.09375.03125-.0024-.000288.0962.000162.09375 0-.0025-.000162.09621.000036.09375 0-.0025-.000036.0962-.00009.09375 0-.0025.00009.0962-.000216.09375 0l5.6875-.5 6.03125-.53125c-.000893.000051.02019.0012.03125 0 .04424-.0047.128538-.000537.125 0-.0044.000671.19184-.06358.1875-.0625-.0043.0011.160471-.03273.15625-.03125-.0042.0015.160314-.06437.15625-.0625-.0041.0019.160122-.09599.15625-.09375-.0039.0022.159897-.09634.15625-.09375-.0036.0026.128389-.09667.125-.09375-.0034.0029.128103-.128222.125-.125-.0031.0032.127789-.128497.125-.125-.0028.0035.0962-.159992.09375-.15625-.0025.0037.09584-.160204.09375-.15625-.0021.004.09546-.160382.09375-.15625-.0017.0041.06382-.160524.0625-.15625-.0013.0043.03217-.160628.03125-.15625-.000916.0044.03175-.191944.03125-.1875-.000504.0044.000087-.160722 0-.15625a1.0057838 1.0057838 0 0 0 0-.03125l.03125-5.53125.09375-22.375.0625-24.0625c-.000073.00479-.000406-.1610265 0-.15625.000406.00478-.03213-.1922121-.03125-.1875.000881.00471-.0326-.1921004-.03125-.1875.0013.0046-.0643-.1919427-.0625-.1875.0018.00444-.09599-.1604906-.09375-.15625.0022.00424-.0964-.160246-.09375-.15625.0026.004-.09678-.1599614-.09375-.15625.003.00371-.12839-.1596397-.125-.15625.0034.00339-.159961-.1280341-.15625-.125.0037.00303-.160246-.096398-.15625-.09375.004.00265-.160491-.095986-.15625-.09375.0042.00224-.160693-.095551-.15625-.09375.0044.0018-.1921-.063848-.1875-.0625.0046.00135-.192212-.032132-.1875-.03125.0047.0008815-.192277-.031656-.1875-.03125.0048.0004063-.161043.000073-.15625 0h-12.03125c.0026.0002364-.04386.00229-.09375 0-.03326-.00153-.06424 0-.0625 0 .0043 0-.19183.000394-.1875 0a1.0057838 1.0057838 0 0 0 -.0625 0z" fill="url(#A)" opacity=".1"/><path d="m42 6.125a.8619805.8619805 0 0 0 -.875.875l.0625 24.0625.125 28.9375a.8619805.8619805 0 0 0 .9375.84375l5.6875-.5 6.0625-.53125a.8619805.8619805 0 0 0 .8125-.84375l.03125-5.53125.09375-22.375.0625-24.0625a.8619805.8619805 0 0 0 -.875-.875z" fill="url(#B)" opacity=".2"/><path d="m58.191-1.3602622-5.941-.4332502-5.941.4332502.059 25.1882622.132 28.368667 5.575-.485 5.925-.515.032-5.442.1-21.926667.059-25.1882622z" fill="url(#k)" transform="matrix(1.0200612 0 0 1.0200612 -5.298198 5.756206)"/><path d="m12 6c-3.324 0-6 2.676-6 6v24c0 3.324 2.676 6 6 6l36-2 36 2c3.324 0 6-2.676 6-6v-24c0-3.324-2.676-6-6-6l-36-2zm0 2 36-2 36 2c2.245802 0 4 1.7541975 4 4v24c0 2.245802-1.754198 4-4 4l-36-2-36 2c-2.2458025 0-4-1.754198-4-4v-24c0-2.2458025 1.7541975-4 4-4z" fill="url(#l)" opacity=".3"/><path d="m47 4.125h1v35.714287h-1z" fill="#8d6137" opacity=".2"/><path d="m48 4.125h1v35.714287h-1z" fill="#fefefe" opacity=".2"/><path d="m6.1871843 37.284884c2.3991123 5.555839 1.894036 16.036171 1.894036 16.036171l1.8309014-.252538c-.2525381-8.207489.4419413-11.237947 4.9876283-11.364216-7.1689919-1.194832-8.7125657-4.419417-8.7125657-4.419417z" fill="url(#q)" fill-rule="evenodd"/><path d="m89.89975 37.284884c-2.399112 5.555839-1.894036 16.036171-1.894036 16.036171l-1.830901-.252538c.252538-8.207489-.441942-11.237947-4.987629-11.364216 7.168992-1.194832 8.712566-4.419417 8.712566-4.419417z" fill="url(#r)" fill-rule="evenodd"/><path d="m12 90c-3.324 0-6-2.676-6-6v-2-68-2c0-.334721.04135-.6507.09375-.96875.0487-.295596.09704-.596915.1875-.875.00988-.03038.020892-.0636.03125-.09375.098865-.287771.2348802-.547452.375-.8125.1445918-.273507.3156161-.535615.5-.78125s.3737765-.473472.59375-.6875c.439947-.428056.94291-.814526 1.5-1.09375.278545-.139612.5734731-.246947.875-.34375-.2562018.100222-.4867109.236272-.71875.375-.00741.0044-.023866-.0045-.03125 0-.031933.0193-.062293.04251-.09375.0625-.120395.0767-.2310226.163513-.34375.25-.1061728.0808-.2132809.161112-.3125.25-.1779299.161433-.3474596.345388-.5.53125-.1075789.130255-.2183939.265285-.3125.40625-.025089.03838-.038446.08587-.0625.125-.064763.103032-.1302275.204517-.1875.3125-.1010083.194706-.2056748.415701-.28125.625-.00796.02181-.023589.04055-.03125.0625-.0318251.09195-.0358045.186831-.0625.28125-.0303323.106618-.0703894.203031-.09375.3125-.0728786.341512-.125.698205-.125 1.0625v2 68 2c0 2.781848 2.2181517 5 5 5h2 68 2c2.781848 0 5-2.218152 5-5v-2-68-2c0-.364295-.05212-.720988-.125-1.0625-.04415-.206893-.08838-.397658-.15625-.59375-.0077-.02195-.0233-.04069-.03125-.0625-.06274-.173739-.138383-.367449-.21875-.53125-.04158-.0828-.07904-.169954-.125-.25-.0546-.09721-.126774-.18835-.1875-.28125-.09411-.140965-.204921-.275995-.3125-.40625-.143174-.17445-.303141-.346998-.46875-.5-.01117-.0102-.01998-.02115-.03125-.03125-.138386-.125556-.285091-.234436-.4375-.34375-.102571-.07315-.204318-.153364-.3125-.21875-.0074-.0045-.02384.0044-.03125 0-.232039-.138728-.462548-.274778-.71875-.375.301527.0968.596455.204138.875.34375.55709.279224 1.060053.665694 1.5 1.09375.219973.214028.409366.441865.59375.6875s.355408.507743.5.78125c.14012.265048.276135.524729.375.8125.01041.03078.02133.06274.03125.09375.09046.278085.1388.579404.1875.875.0524.31805.09375.634029.09375.96875v2 68 2c0 3.324-2.676 6-6 6z" fill="url(#t)" opacity=".2"/></g><g transform="translate(0 -2)"><rect fill="none" height="19" rx="1.866667" ry="2" stroke="#825023" width="14" x="15.5" y="49.5"/><g fill="#825023"><path d="m18.25 66v-9.25h-1.25l2.5-4.75 2.5 4.75h-1.25v9.25z"/><path d="m24.25 66v-9.25h-1.25l2.5-4.75 2.5 4.75h-1.25v9.25z"/></g></g><g fill="#553417"><g><path d="m15.148438 74.082314h1.093749v.307617h-.649414v.25h.554688v.289062h-.554688v.584961h-.444335z"/><path d="m17.175781 75.277626h-.503906l-.06934.236328h-.452148l.538086-1.43164h.482421l.538086 1.43164h-.46289l-.07031-.236328m-.09277-.30957-.158203-.514649-.157227.514649z"/><path d="m17.848633 74.082314h1.185547v.305664h-.742188v.227539h.688477v.291992h-.688477v.282226h.763672v.324219h-1.207031z"/><path d="m19.297852 74.082314h.413085l.539063.791992v-.791992h.416992v1.43164h-.416992l-.536133-.786133v.786133h-.416015z"/><path d="m20.926758 74.082314h1.251953v.286132l-.802734.837891h.832031v.307617h-1.358399v-.296875l.793946-.829101h-.716797z"/><path d="m23.289062 75.277626h-.503906l-.06934.236328h-.452148l.538086-1.43164h.482422l.538086 1.43164h-.462891l-.07031-.236328m-.09277-.30957-.158203-.514649-.157227.514649z"/></g><g><path d="m15.109863 81.513954v-1.07373h.14209v.53247l.533203-.53247h.192627l-.450439.435058.470215.638672h-.1875l-.382325-.543457-.175781.171387v.37207z"/><path d="m16.633301 81.263466.13623.01685c-.02149.07959-.06128.141357-.119385.185302-.05811.04395-.132324.06592-.222656.06592-.11377 0-.204102-.03491-.270996-.104736-.06641-.07031-.09961-.168701-.09961-.295166 0-.130859.03369-.232421.101074-.304688.06738-.07226.154785-.108397.262207-.108398.104003.000001.188964.0354.254883.106201.06592.0708.09888.170411.09888.298828-.000001.0078-.000245.01953-.000733.03516h-.580078c.0049.08545.02905.150879.07251.196289s.09766.06812.162598.06812c.04834 0 .0896-.0127.123779-.03809.03418-.02539.06128-.06592.0813-.121582m-.432862-.213135h.434327c-.0059-.06543-.02246-.114501-.0498-.147217-.04199-.05078-.09644-.07617-.16333-.07617-.06055.000001-.111573.02026-.153076.06079-.04102.04053-.06372.09473-.06812.162598"/><path d="m17.468262 81.263466.13623.01685c-.02149.07959-.06128.141357-.119385.185302-.05811.04395-.132324.06592-.222656.06592-.11377 0-.204102-.03491-.270996-.104736-.06641-.07031-.09961-.168701-.09961-.295166 0-.130859.03369-.232421.101074-.304688.06738-.07226.154785-.108397.262207-.108398.104003.000001.188964.0354.254883.106201.06592.0708.09888.170411.09888.298828-.000001.0078-.000245.01953-.000733.03516h-.580078c.0049.08545.02905.150879.07251.196289s.09766.06812.162598.06812c.04834 0 .0896-.0127.123779-.03809.03418-.02539.06128-.06592.0813-.121582m-.432862-.213135h.434327c-.0059-.06543-.02246-.114501-.0498-.147217-.04199-.05078-.09644-.07617-.16333-.07617-.06055.000001-.111573.02026-.153076.06079-.04102.04053-.06372.09473-.06812.162598"/><path d="m17.770752 81.81205v-1.075928h.120117v.101074c.02832-.03955.0603-.06909.09595-.08862.03564-.02002.07886-.03003.129639-.03003.06641.000001.125.01709.175781.05127.05078.03418.08911.08252.114991.145019.02588.06201.03882.130127.03882.204346-.000001.07959-.01441.151367-.04321.215332-.02832.06348-.06983.112305-.124512.146484-.0542.03369-.111328.05054-.171386.05054-.04395 0-.0835-.0093-.118653-.02783-.03467-.01855-.06323-.04199-.08569-.07031v.378662h-.131836m.119385-.682617c0 .100098.02026.174072.06079.221924.04053.04785.0896.07178.147217.07178.05859 0 .108642-.02466.150146-.07398.04199-.0498.06299-.126708.06299-.230713 0-.09912-.02051-.173339-.06152-.222656-.04053-.04932-.08911-.07397-.145752-.07398-.05615.000001-.105957.02637-.149414.0791-.04297.05225-.06445.128419-.06445.228516"/><path d="m19.022461 80.591835v-.151611h.131836v.151611zm0 .922119v-.777832h.131836v.777832z"/><path d="m19.355713 81.513954v-.777832h.118652v.110596c.05713-.08545.139648-.128173.247559-.128174.04687.000001.08984.0085.128906.02564.03955.0166.06909.03857.08862.06592.01953.02734.0332.05982.04102.09741.0049.02441.0073.06714.0073.128174v.478271h-.131836v-.473144c-.000001-.05371-.0051-.09375-.01538-.120118-.01025-.02685-.02857-.0481-.05493-.06372-.02588-.01611-.0564-.02417-.09155-.02417-.05615 0-.104737.01782-.145752.05347-.04053.03565-.06079.103272-.06079.20288v.424805h-.131836"/><path d="m21.114258 81.418007c-.04883.0415-.09595.0708-.141358.08789-.04492.01709-.09326.02563-.145019.02563-.08545 0-.151123-.02075-.197022-.06226-.0459-.04199-.06885-.09546-.06885-.1604 0-.03809.0085-.07275.02563-.104004.01758-.03174.04028-.05713.06812-.07617.02832-.01904.06006-.03345.09521-.04321.02588-.0068.06494-.01343.117187-.01977.106445-.0127.184814-.02783.235107-.04541.000488-.01807.000732-.02954.000733-.03442-.000001-.05371-.01245-.09155-.03735-.113525-.03369-.02979-.08374-.04468-.150146-.04468-.06201.000001-.107911.01099-.137695.03296-.0293.02148-.05103.05982-.06519.11499l-.128906-.01758c.01172-.05517.03101-.09961.05786-.133301.02686-.03418.06567-.0603.116455-.07837.05078-.01855.109619-.02783.176514-.02783.06641.000001.120361.0078.161865.02344.0415.01563.07202.0354.09155.05933.01953.02344.0332.05322.04102.08935.0044.02246.0066.06299.0066.121582v.175781c0 .122559.0027.200196.0081.232911.0059.03223.01709.06323.03369.09302h-.137695c-.01367-.02734-.02246-.05933-.02637-.09595m-.01099-.294434c-.04785.01953-.119629.03613-.215332.04981-.0542.0078-.09253.0166-.11499.02637-.02246.0098-.0398.02417-.052.04321-.01221.01855-.01831.03931-.01831.06226 0 .03516.01318.06445.03955.08789.02686.02344.06592.03516.117188.03516.05078 0 .09595-.01099.135498-.03296.03955-.02246.0686-.05298.08716-.09155.01416-.02978.02124-.07373.02124-.131836v-.04834"/><path d="m21.804932 81.281776.130371-.02051c.0073.05225.02759.09229.06079.120117.03369.02783.08057.04175.140625.04175.06055 0 .105468-.01221.134765-.03662.0293-.0249.04395-.05395.04395-.08716-.000001-.02979-.01294-.05322-.03882-.07031-.01807-.01172-.06299-.02661-.134765-.04468-.09668-.02441-.163819-.04541-.201416-.06299-.03711-.01807-.06543-.04272-.08496-.07398-.01904-.03174-.02857-.06665-.02857-.104736 0-.03467.0078-.06665.02344-.09595.01611-.02978.03784-.05444.06518-.07397.02051-.01514.04834-.02783.0835-.03809.03564-.01074.07373-.01611.114258-.01611.06104.000001.114502.0088.160401.02637.04639.01758.08057.04151.102539.07178.02197.02979.03711.06982.04541.120117l-.128906.01758c-.0059-.04004-.02295-.07129-.05127-.09375-.02783-.02246-.06738-.03369-.118652-.03369-.06055.000001-.10376.01001-.129639.03003-.02588.02002-.03882.04346-.03882.07031 0 .01709.0054.03247.01611.04614.01074.01416.02759.02588.05054.03516.01318.0049.052.01611.116455.03369.09326.0249.158203.04541.194824.06152.03711.01563.06616.03858.08716.06885s.03149.06787.03149.112793c-.000001.04395-.01294.08545-.03882.124511-.02539.03858-.06226.0686-.110595.09009-.04834.021-.103028.03149-.164063.03149-.101074 0-.178223-.021-.231445-.06299-.05274-.04199-.08643-.104248-.101074-.186768"/><path d="m23.115234 81.418007c-.04883.0415-.09595.0708-.141357.08789-.04492.01709-.09326.02563-.14502.02563-.08545 0-.151123-.02075-.197021-.06226-.0459-.04199-.06885-.09546-.06885-.1604 0-.03809.0085-.07275.02563-.104004.01758-.03174.04028-.05713.06812-.07617.02832-.01904.06006-.03345.09521-.04321.02588-.0068.06494-.01343.117188-.01977.106444-.0127.184814-.02783.235107-.04541.000488-.01807.000732-.02954.000732-.03442 0-.05371-.01245-.09155-.03735-.113525-.03369-.02979-.08374-.04468-.150147-.04468-.06201.000001-.10791.01099-.137695.03296-.0293.02148-.05102.05982-.06518.11499l-.128907-.01758c.01172-.05517.03101-.09961.05786-.133301.02686-.03418.06567-.0603.116455-.07837.05078-.01855.109619-.02783.176513-.02783.06641.000001.120361.0078.161866.02344.0415.01563.07202.0354.09155.05933.01953.02344.0332.05322.04102.08935.0044.02246.0066.06299.0066.121582v.175781c-.000001.122559.0027.200196.0081.232911.0059.03223.01709.06323.03369.09302h-.137695c-.01367-.02734-.02246-.05933-.02637-.09595m-.01099-.294434c-.04785.01953-.119629.03613-.215332.04981-.0542.0078-.09253.0166-.11499.02637-.02246.0098-.03979.02417-.052.04321-.01221.01855-.01831.03931-.01831.06226 0 .03516.01318.06445.03955.08789.02686.02344.06592.03516.117188.03516.05078 0 .09595-.01099.135498-.03296.03955-.02246.0686-.05298.08716-.09155.01416-.02978.02124-.07373.02124-.131836v-.04834"/><path d="m23.474121 81.513954v-.675293h-.116455v-.102539h.116455v-.08276c0-.05224.0046-.09106.01392-.116455.0127-.03418.03491-.06177.06665-.08276.03223-.02148.07715-.03223.134766-.03223.03711.000001.07813.0044.123047.01318l-.01977.11499c-.02735-.0049-.05322-.0073-.07764-.0073-.04004.000001-.06836.0085-.08496.02564-.0166.01709-.0249.04907-.0249.09595v.07178h.151611v.102539h-.151611v.675293h-.131104"/><path d="m24.391113 81.263466.136231.01685c-.02148.07959-.06128.141357-.119385.185302-.05811.04395-.132325.06592-.222656.06592-.11377 0-.204102-.03491-.270996-.104736-.06641-.07031-.09961-.168701-.09961-.295166 0-.130859.03369-.232421.101074-.304688.06738-.07226.154785-.108397.262208-.108398.104003.000001.188964.0354.254882.106201.06592.0708.09888.170411.09888.298828 0 .0078-.000245.01953-.000732.03516h-.580078c.0049.08545.02905.150879.07251.196289s.09766.06812.162598.06812c.04834 0 .0896-.0127.123779-.03809.03418-.02539.06128-.06592.0813-.121582m-.432861-.213135h.434326c-.0059-.06543-.02246-.114501-.0498-.147217-.04199-.05078-.09644-.07617-.16333-.07617-.06055.000001-.111572.02026-.153076.06079-.04102.04053-.06372.09473-.06811.162598"/><path d="m25.109619 81.81205v-1.075928h.120117v.101074c.02832-.03955.0603-.06909.09595-.08862.03564-.02002.07886-.03003.129638-.03003.06641.000001.125.01709.175782.05127.05078.03418.08911.08252.11499.145019.02588.06201.03882.130127.03882.204346-.000001.07959-.01441.151367-.04321.215332-.02832.06348-.06983.112305-.124512.146484-.0542.03369-.111328.05054-.171386.05054-.04395 0-.0835-.0093-.118653-.02783-.03467-.01855-.06323-.04199-.08569-.07031v.378662h-.131836m.119385-.682617c0 .100098.02026.174072.06079.221924.04053.04785.0896.07178.147217.07178.05859 0 .108642-.02466.150146-.07398.04199-.0498.06299-.126708.06299-.230713 0-.09912-.02051-.173339-.06152-.222656-.04053-.04932-.08911-.07397-.145752-.07398-.05615.000001-.105957.02637-.149414.0791-.04297.05225-.06445.128419-.06445.228516"/><path d="m25.94165 81.513954v-1.07373h.131836v1.07373z"/><path d="m26.786133 81.418007c-.04883.0415-.09595.0708-.141358.08789-.04492.01709-.09326.02563-.145019.02563-.08545 0-.151123-.02075-.197022-.06226-.0459-.04199-.06885-.09546-.06885-.1604 0-.03809.0085-.07275.02563-.104004.01758-.03174.04028-.05713.06812-.07617.02832-.01904.06006-.03345.09521-.04321.02588-.0068.06494-.01343.117187-.01977.106445-.0127.184814-.02783.235107-.04541.000488-.01807.000732-.02954.000733-.03442-.000001-.05371-.01245-.09155-.03735-.113525-.03369-.02979-.08374-.04468-.150146-.04468-.06201.000001-.107911.01099-.137695.03296-.0293.02148-.05103.05982-.06519.11499l-.128906-.01758c.01172-.05517.03101-.09961.05786-.133301.02686-.03418.06567-.0603.116455-.07837.05078-.01855.109619-.02783.176514-.02783.06641.000001.120361.0078.161865.02344.0415.01563.07202.0354.09155.05933.01953.02344.0332.05322.04102.08935.0044.02246.0066.06299.0066.121582v.175781c0 .122559.0027.200196.0081.232911.0059.03223.01709.06323.03369.09302h-.137695c-.01367-.02734-.02246-.05933-.02637-.09595m-.01099-.294434c-.04785.01953-.119629.03613-.215332.04981-.0542.0078-.09253.0166-.11499.02637-.02246.0098-.0398.02417-.052.04321-.01221.01855-.01831.03931-.01831.06226 0 .03516.01318.06445.03955.08789.02686.02344.06592.03516.117188.03516.05078 0 .09595-.01099.135498-.03296.03955-.02246.0686-.05298.08716-.09155.01416-.02978.02124-.07373.02124-.131836v-.04834"/><path d="m27.621094 81.229042.129638.01685c-.01416.08936-.05054.159424-.10913.210205-.05811.05029-.12964.07544-.2146.07544-.106446 0-.192139-.03467-.25708-.104004-.06445-.06982-.09668-.169677-.09668-.29956 0-.08398.01392-.15747.04175-.220459.02783-.06299.07007-.110107.126709-.141358.05713-.03174.11914-.04761.186035-.04761.08447.000001.153564.02149.207276.06445.05371.04248.08813.103028.103271.181641l-.128174.01978c-.01221-.05224-.03394-.09155-.06518-.11792-.03076-.02637-.06812-.03955-.112061-.03955-.06641.000001-.120361.02393-.161865.07178-.0415.04736-.06226.122559-.06226.225586 0 .104492.02002.18042.06006.227783.04004.04736.09229.07104.156738.07104.05176 0 .09497-.01587.129639-.04761.03467-.03174.05664-.08057.06592-.146484"/><path d="m28.395996 81.263466.136231.01685c-.02149.07959-.06128.141357-.119385.185302-.05811.04395-.132325.06592-.222656.06592-.11377 0-.204102-.03491-.270997-.104736-.06641-.07031-.09961-.168701-.09961-.295166 0-.130859.03369-.232421.101074-.304688.06738-.07226.154785-.108397.262207-.108398.104004.000001.188965.0354.254883.106201.06592.0708.09888.170411.09888.298828-.000001.0078-.000245.01953-.000732.03516h-.580078c.0049.08545.02905.150879.07251.196289s.09766.06812.162598.06812c.04834 0 .0896-.0127.123779-.03809.03418-.02539.06128-.06592.0813-.121582m-.432861-.213135h.434326c-.0059-.06543-.02246-.114501-.0498-.147217-.04199-.05078-.09644-.07617-.16333-.07617-.06055.000001-.111572.02026-.153076.06079-.04102.04053-.06372.09473-.06811.162598"/><g fill="#553417"><path d="m16.077393 83.388954h-.23584l-.09375-.243896h-.429199l-.08862.243896h-.22998l.418213-1.07373h.229248l.429932 1.07373m-.39917-.424805-.14795-.398437-.145019.398437z"/><path d="m16.905029 83.388954h-.191162v-.114258c-.03174.04443-.06934.07764-.112793.09961-.04297.02148-.08643.03223-.130371.03223-.08936 0-.166016-.03589-.22998-.107666-.06348-.07227-.09521-.172851-.09521-.301758 0-.131835.03101-.231933.09302-.300293.06201-.06885.140381-.10327.235108-.103271.08691.000001.162109.03613.225586.108398v-.386718h.20581v1.07373m-.549316-.405762c0 .08301.01147.143067.03442.180176.0332.05371.07959.08057.13916.08057.04736 0 .08765-.02002.120849-.06006.0332-.04053.0498-.10083.0498-.180908 0-.08935-.01611-.153564-.04834-.192627-.03223-.03955-.07349-.05933-.123779-.05933-.04883 0-.08984.01953-.123047.05859-.03271.03858-.04907.09644-.04907.173584"/><path d="m17.093262 82.611122h.189697v.106201c.06787-.08252.148681-.123778.242432-.123779.0498.000001.09302.01026.129638.03076.03662.02051.06665.05151.09009.09302.03418-.0415.07104-.07251.110596-.09302.03955-.02051.08179-.03076.126709-.03076.05713.000001.105468.01172.145019.03516.03955.02295.06909.05689.08862.101807.01416.0332.02124.08691.02124.161133v.497314h-.205811v-.44458c-.000001-.07715-.0071-.126952-.02124-.149414-.01904-.0293-.04834-.04395-.08789-.04395-.02881 0-.05591.0088-.0813.02637-.02539.01758-.0437.04346-.05493.07764-.01123.03369-.01685.08716-.01685.1604v.373535h-.20581v-.426269c-.000001-.07568-.0037-.124512-.01099-.146485-.0073-.02197-.0188-.03833-.03442-.04907-.01514-.01074-.03589-.01611-.06226-.01611-.03174 0-.0603.0085-.08569.02563-.02539.01709-.0437.04175-.05493.07397-.01074.03223-.01611.08569-.01611.1604v.37793h-.20581v-.777832"/><path d="m18.44165 82.505653v-.190429h.205811v.190429zm0 .883301v-.777832h.205811v.777832z"/><path d="m19.565186 83.388954h-.205811v-.396972c-.000001-.08398-.0044-.138184-.01318-.162598-.0088-.0249-.02319-.04419-.04321-.05786-.01953-.01367-.04321-.02051-.07105-.02051-.03564 0-.06763.0098-.09595.0293-.02832.01953-.04785.04541-.05859.07764-.01026.03223-.01538.0918-.01538.178711v.352295h-.205811v-.777832h.191162v.114258c.06787-.08789.15332-.131835.256348-.131836.04541.000001.08691.0083.124512.0249.0376.01611.06592.03687.08496.06226.01953.02539.03296.0542.04028.08643.0078.03223.01172.07837.01172.138428v.483398"/><path d="m19.774658 82.505653v-.190429h.205811v.190429zm0 .883301v-.777832h.205811v.777832z"/><path d="m20.118164 83.16703.206543-.03149c.0088.04004.02661.07056.05347.09155.02685.02051.06445.03076.112793.03076.05322 0 .09326-.0098.120117-.0293.01807-.01367.0271-.03198.0271-.05493-.000001-.01563-.0049-.02856-.01465-.03882-.01025-.0098-.0332-.0188-.06885-.0271-.166015-.03662-.27124-.07007-.315673-.100342-.06152-.04199-.09229-.100341-.09229-.175048-.000001-.06738.02661-.124023.07983-.169922.05322-.0459.135742-.06885.247559-.06885.106445.000001.185546.01734.237305.052.05176.03467.0874.08594.106933.153809l-.194091.03589c-.0083-.03027-.02417-.05347-.04761-.06958-.02295-.01611-.05591-.02417-.09888-.02417-.0542.000001-.09302.0076-.116455.0227-.01563.01074-.02344.02466-.02344.04175-.000001.01465.0068.0271.02051.03735.01855.01367.08252.03296.191895.05786.109863.0249.186523.05542.22998.09155.04297.03662.06445.08765.06445.153076-.000001.07129-.02979.132569-.08936.183838-.05957.05127-.147706.0769-.264404.0769-.105958 0-.189942-.02148-.251953-.06445-.06152-.04297-.101807-.101318-.12085-.175049"/><path d="m21.382324 82.611122v.164063h-.140625v.313476c0 .06348.0012.100586.0037.111328.0029.01025.009.0188.01831.02563.0098.0068.02148.01025.03516.01025.01904 0 .04663-.0066.08276-.01977l.01758.159668c-.04785.02051-.102051.03076-.162598.03076-.03711 0-.07056-.0061-.100342-.01831-.02979-.0127-.05176-.02881-.06592-.04834-.01367-.02002-.02319-.04687-.02856-.08057-.0044-.02393-.0066-.07227-.0066-.145019v-.339111h-.09448v-.164063h.09448v-.154541l.206543-.120117v.274658h.140625"/><path d="m21.723633 83.388954h-.205811v-.777832h.191162v.110596c.03271-.05225.06201-.08667.08789-.103272.02637-.0166.05615-.0249.08936-.0249.04687.000001.09204.01294.135499.03882l-.06372.179444c-.03467-.02246-.06689-.03369-.09668-.03369-.02881.000001-.05322.0081-.07324.02417-.02002.01563-.03589.04419-.04761.08569-.01123.0415-.01685.128418-.01685.260742v.240234"/><path d="m22.263428 82.848427-.186768-.03369c.021-.07519.05713-.130858.108399-.166992.05127-.03613.127441-.0542.228515-.0542.0918.000001.160156.01099.205078.03296.04492.02148.07642.04907.09448.08276.01855.0332.02783.09448.02783.183838l-.0022.240234c-.000001.06836.0032.118897.0095.151611.0068.03223.01929.0669.03735.104004h-.203614c-.0054-.01367-.01196-.03393-.01977-.06079-.0034-.01221-.0059-.02026-.0073-.02417-.03516.03418-.07276.05982-.112793.0769-.04004.01709-.08276.02563-.128174.02563-.08008 0-.143311-.02173-.189697-.06518-.0459-.04346-.06885-.09839-.06885-.164795 0-.04395.0105-.08301.03149-.117188.021-.03467.05029-.06103.08789-.0791.03809-.01855.09277-.03467.164062-.04834.09619-.01807.162841-.03491.199951-.05054v-.02051c0-.03955-.0098-.06763-.0293-.08423-.01953-.01709-.0564-.02563-.110595-.02563-.03662 0-.06519.0073-.08569.02197-.02051.01416-.03711.03931-.0498.07544m.27539.166992c-.02637.0088-.06811.01929-.125244.03149-.05713.01221-.09448.02417-.11206.03589-.02686.01904-.04028.04321-.04028.07251 0 .02881.01074.05371.03223.07471.02148.021.04883.03149.08203.03149.03711 0 .07251-.01221.106201-.03662.0249-.01855.04126-.04126.04907-.06812.0054-.01758.0081-.05102.0081-.100341v-.04102"/><path d="m23.30127 82.611122v.164063h-.140625v.313476c-.000001.06348.0012.100586.0037.111328.0029.01025.009.0188.01831.02563.0098.0068.02148.01025.03516.01025.01904 0 .04663-.0066.08276-.01977l.01758.159668c-.04785.02051-.102051.03076-.162597.03076-.03711 0-.07056-.0061-.100342-.01831-.02979-.0127-.05176-.02881-.06592-.04834-.01367-.02002-.02319-.04687-.02857-.08057-.0044-.02393-.0066-.07227-.0066-.145019v-.339111h-.09448v-.164063h.09448v-.154541l.206543-.120117v.274658h.140625"/><path d="m23.397949 82.989052c0-.06836.01685-.134521.05054-.198487.03369-.06396.0813-.112792.142823-.146484.06201-.03369.131103-.05054.207275-.05054.117675.000001.214111.03833.289307.11499.07519.07617.112792.172608.112793.289307-.000001.117676-.03809.215332-.114258.292969-.07568.07715-.171143.115722-.286377.115722-.07129 0-.139405-.01611-.204346-.04834-.06445-.03223-.113525-.07935-.147217-.141357-.03369-.0625-.05054-.138427-.05054-.227783m.210938.01099c-.000001.07715.01831.136231.05493.177246.03662.04102.08179.06152.135498.06152.05371 0 .09863-.02051.134766-.06152.03662-.04102.05493-.100585.05493-.178711-.000001-.07617-.01831-.134765-.05493-.175781-.03613-.04102-.08105-.06152-.134766-.06152-.05371 0-.09888.02051-.135498.06152-.03662.04102-.05493.100098-.05493.177246"/><path d="m24.55957 83.388954h-.20581v-.777832h.191162v.110596c.03271-.05225.06201-.08667.08789-.103272.02637-.0166.05615-.0249.08936-.0249.04687.000001.09204.01294.135498.03882l-.06372.179444c-.03467-.02246-.0669-.03369-.09668-.03369-.02881.000001-.05322.0081-.07324.02417-.02002.01563-.03589.04419-.04761.08569-.01123.0415-.01685.128418-.01685.260742v.240234"/><path d="m24.873047 83.16703.206543-.03149c.0088.04004.02661.07056.05347.09155.02685.02051.06445.03076.112793.03076.05322 0 .09326-.0098.120117-.0293.01807-.01367.0271-.03198.0271-.05493 0-.01563-.0049-.02856-.01465-.03882-.01025-.0098-.0332-.0188-.06885-.0271-.166016-.03662-.27124-.07007-.315674-.100342-.06152-.04199-.09229-.100341-.09229-.175048 0-.06738.02661-.124023.07983-.169922.05322-.0459.135742-.06885.247559-.06885.106445.000001.185546.01734.237305.052.05176.03467.0874.08594.106933.153809l-.194092.03589c-.0083-.03027-.02417-.05347-.04761-.06958-.02295-.01611-.05591-.02417-.09888-.02417-.0542.000001-.09302.0076-.116455.0227-.01563.01074-.02344.02466-.02344.04175 0 .01465.0068.0271.02051.03735.01855.01367.08252.03296.191895.05786.109862.0249.186523.05542.22998.09155.04297.03662.06445.08765.06445.153076 0 .07129-.02979.132569-.08936.183838-.05957.05127-.147706.0769-.264404.0769-.105958 0-.189942-.02148-.251954-.06445-.06152-.04297-.101806-.101318-.120849-.175049"/><path d="m26.148926 82.989052c0-.06836.01685-.134521.05054-.198487.03369-.06396.0813-.112792.142822-.146484.06201-.03369.131103-.05054.207276-.05054.117675.000001.21411.03833.289306.11499.0752.07617.112792.172608.112793.289307-.000001.117676-.03809.215332-.114258.292969-.07568.07715-.171143.115722-.286377.115722-.07129 0-.139404-.01611-.204345-.04834-.06445-.03223-.113526-.07935-.147217-.141357-.03369-.0625-.05054-.138427-.05054-.227783m.210937.01099c0 .07715.01831.136231.05493.177246.03662.04102.08179.06152.135498.06152.05371 0 .09863-.02051.134766-.06152.03662-.04102.05493-.100585.05493-.178711 0-.07617-.01831-.134765-.05493-.175781-.03613-.04102-.08106-.06152-.134766-.06152-.05371 0-.09888.02051-.135498.06152-.03662.04102-.05493.100098-.05493.177246"/><path d="m27.821045 83.388954h-.205811v-.396972c0-.08398-.0044-.138184-.01318-.162598-.0088-.0249-.02319-.04419-.04321-.05786-.01953-.01367-.04321-.02051-.07105-.02051-.03564 0-.06763.0098-.09595.0293-.02832.01953-.04785.04541-.05859.07764-.01025.03223-.01538.0918-.01538.178711v.352295h-.20581v-.777832h.191162v.114258c.06787-.08789.15332-.131835.256347-.131836.04541.000001.08691.0083.124512.0249.0376.01611.06592.03687.08496.06226.01953.02539.03296.0542.04028.08643.0078.03223.01172.07837.01172.138428v.483398"/><path d="m28.030518 83.388954v-1.07373h.20581v1.07373z"/><path d="m28.349121 82.611122h.218994l.186035.552246.181641-.552246h.213135l-.274658.748535-.04907.135498c-.01807.04541-.0354.08008-.052.104004-.01611.02393-.03491.04321-.0564.05786-.021.01514-.04712.02685-.07837.03516-.03076.0083-.06567.01245-.104737.01245-.03955 0-.07837-.0042-.116455-.01245l-.01831-.161133c.03223.0063.06128.0095.08716.0095.04785 0 .08325-.01416.106201-.04248.02295-.02783.04053-.06348.05273-.106934l-.295899-.780029"/></g></g><g><path d="m15.052002 78.15873.315674-.01978c.0068.05127.02075.09033.04175.117188.03418.04346.08301.06518.146484.06518.04736 0 .08374-.01099.109131-.03296.02588-.02246.03882-.04834.03882-.07764 0-.02783-.01221-.05273-.03662-.07471-.02441-.02197-.08106-.04272-.169922-.06226-.145508-.03271-.249267-.07617-.311279-.130371-.0625-.0542-.09375-.123291-.09375-.207276 0-.05517.01587-.107177.04761-.156006.03223-.04932.08032-.08789.144287-.115722.06445-.02832.152587-.04248.264404-.04248.137206.000001.241698.02564.313477.0769.07226.05078.115233.131837.128906.243165l-.312744.01831c-.0083-.04834-.02588-.0835-.05273-.105469-.02637-.02197-.06299-.03296-.109863-.03296-.03857.000001-.06763.0083-.08716.0249-.01953.01611-.0293.03589-.0293.05933 0 .01709.0081.03247.02417.04614.01562.01416.05273.02734.111328.03955.145019.03125.248778.06299.311279.09521.06299.03174.108642.07129.136963.118652.02881.04736.04321.100343.04321.158936-.000001.06885-.01904.132324-.05713.19043-.03809.0581-.09131.102295-.159668.132568-.06836.02978-.154541.04468-.258545.04468-.182617 0-.309082-.03516-.379394-.105469-.07031-.07031-.110108-.159668-.119385-.268066"/><path d="m16.137451 78.127235c0-.118651.04004-.216308.120117-.292968.08008-.07715.188232-.115722.324463-.115723.155761.000001.273437.04517.353028.135498.06396.07275.09595.162354.09595.268799-.000001.119629-.0398.217773-.119385.294433-.0791.07617-.188721.114258-.328857.114258-.125001 0-.226075-.03174-.303223-.09521-.09473-.07861-.14209-.18164-.14209-.309082m.298828-.000732c0 .06934.01392.120606.04175.153809.02832.0332.06372.0498.106202.0498.04297 0 .07812-.01636.105468-.04907.02783-.03271.04175-.0852.04175-.157471 0-.06738-.01392-.117431-.04175-.150146-.02783-.0332-.06226-.0498-.103271-.04981-.04346.000001-.07935.01685-.107666.05054-.02832.0332-.04248.08398-.04248.152344"/><path d="m17.507812 77.736122h.14209v.218262h-.14209v.55957h-.298828v-.55957h-.111328v-.218262h.111328v-.03516c0-.03174.0034-.06665.01025-.104736.0068-.03809.01953-.06909.03809-.09302.01904-.02441.04541-.04394.0791-.05859.03418-.01514.08398-.0227.149414-.02271.05224.000001.128173.0061.227783.01831l-.03296.180175c-.03564-.0059-.06445-.0088-.08643-.0088-.02686.000001-.04614.0046-.05786.01392-.01172.0088-.02002.02295-.0249.04248-.0024.01074-.0037.03345-.0037.06811"/><path d="m18.118652 77.440224v.295898h.164063v.217529h-.164063v.276123c0 .0332.0032.05518.0095.06592.0098.0166.02685.0249.05127.0249.02197 0 .05273-.0063.09229-.01904l.02197.20581c-.07373.01611-.142578.02417-.206543.02417-.07422 0-.128906-.0095-.164062-.02856-.03516-.01904-.06128-.04785-.07837-.08643-.0166-.03906-.0249-.102051-.0249-.188965v-.273926h-.109863v-.217529h.109863v-.142822l.298828-.153076"/><path d="m18.336182 77.736122h.288574l.125244.48999.158203-.48999h.268799l.164062.48999.125245-.48999h.286377l-.286377.777832h-.265137l-.157471-.468017-.152344.468017h-.266601z"/><path d="m20.093262 77.988075-.284912-.03003c.01074-.0498.02612-.08887.04614-.117188.02051-.02881.0498-.05371.08789-.07471.02734-.01514.06494-.02685.112793-.03516.04785-.0083.09961-.01245.155273-.01245.08936.000001.161132.0051.215332.01538.0542.0098.09936.03052.135498.06226.02539.02197.04541.05322.06006.09375.01465.04004.02197.07837.02197.11499v.343506c-.000001.03662.0022.06543.0066.08643.0049.02051.01514.04687.03076.0791h-.279785c-.01123-.02002-.01855-.03516-.02197-.04541-.0034-.01074-.0068-.02734-.01025-.0498-.03906.0376-.07788.06445-.116455.08057-.05273.02148-.114014.03223-.183838.03223-.09277 0-.16333-.02148-.21167-.06445-.04785-.04297-.07178-.09595-.07178-.158935 0-.05908.01733-.107666.052-.145752.03467-.03809.09863-.06641.191895-.08496.111816-.02246.184325-.03809.217529-.04687.0332-.0093.06836-.02124.105469-.03589-.000001-.03662-.0076-.06226-.02271-.0769-.01514-.01465-.04175-.02197-.07983-.02197-.04883.000001-.08545.0078-.109864.02344-.01904.01221-.03442.03516-.04614.06885m.258545.156739c-.04102.01465-.08374.02759-.128174.03882-.06055.01611-.09888.03198-.11499.04761-.0166.01611-.0249.03442-.0249.05493 0 .02344.0081.04273.02417.05786.0166.01465.04077.02197.07251.02197.0332 0 .06396-.0081.09228-.02417.02881-.01611.04907-.03564.06079-.05859.01221-.02344.01831-.05371.01831-.09082v-.04761"/><path d="m20.826416 77.736122h.279053v.127442c.02686-.05518.05444-.09302.08276-.113526.02881-.02099.06421-.03149.106202-.03149.04394.000001.09204.01367.144287.04102l-.09229.212402c-.03516-.01465-.06299-.02197-.0835-.02197-.03906.000001-.06934.01611-.09082.04834-.03076.04541-.04614.130372-.04614.254883v.260742h-.299561v-.777832"/><path d="m22.375488 78.199013h-.597656c.0054.04785.01831.0835.03882.106933.02881.03369.06641.05054.112793.05054.0293.000001.05713-.0073.0835-.02197.01611-.0093.03345-.02564.052-.04907l.293702.0271c-.04492.07813-.09912.134278-.162598.168457-.06348.03369-.154542.05054-.273193.05054-.103028 0-.184083-.0144-.243165-.04321-.05908-.0293-.108154-.07544-.147216-.138427-.03858-.06348-.05786-.137939-.05786-.223389 0-.121582.03882-.21997.116455-.295166.07813-.0752.185791-.112792.322998-.112793.111328.000001.199219.01685.263672.05054.06445.03369.113525.08252.147217.146484.03369.06397.05054.147218.05054.249756v.03369m-.303231-.142838c-.0059-.05762-.02148-.09888-.04687-.123779-.0249-.0249-.05786-.03735-.09888-.03735-.04736 0-.08521.0188-.113526.0564-.01807.02344-.02954.05835-.03442.104736h.293702"/><path d="m23.01709 77.736122h.27832v.113526c.04004-.04736.08032-.08105.12085-.101075.04101-.02002.09033-.03003.147949-.03003.06201.000001.111083.01099.147217.03296.03613.02197.06567.05469.08862.09815.04687-.05078.0896-.08521.128174-.103272.03857-.01855.08618-.02783.142822-.02783.08349.000001.14868.0249.195557.07471.04687.04932.07031.12671.07031.232178v.488525h-.298828v-.443115c-.000001-.03516-.0068-.06128-.02051-.07837-.02002-.02685-.04492-.04028-.07471-.04028-.03516 0-.06348.0127-.08496.03809-.02149.02539-.03223.06616-.03223.122314v.401367h-.298829v-.428467c0-.03418-.002-.05737-.0059-.06958-.0063-.01953-.01733-.03516-.03296-.04687-.01563-.01221-.03394-.01831-.05493-.01831-.03418 0-.06226.01294-.08423.03882s-.03296.06836-.03296.127442v.396972h-.298828v-.777832"/><path d="m24.786621 77.988075-.284912-.03003c.01074-.0498.02612-.08887.04614-.117188.02051-.02881.0498-.05371.08789-.07471.02734-.01514.06494-.02685.112793-.03516.04785-.0083.09961-.01245.155274-.01245.08935.000001.161132.0051.215332.01538.0542.0098.09936.03052.135498.06226.02539.02197.04541.05322.06006.09375.01465.04004.02197.07837.02197.11499v.343506c-.000001.03662.0022.06543.0066.08643.0049.02051.01514.04687.03076.0791h-.279785c-.01123-.02002-.01855-.03516-.02197-.04541-.0034-.01074-.0068-.02734-.01025-.0498-.03906.0376-.07788.06445-.116455.08057-.05274.02148-.114014.03223-.183838.03223-.09277 0-.163331-.02148-.21167-.06445-.04785-.04297-.07178-.09595-.07178-.158935 0-.05908.01733-.107666.052-.145752.03467-.03809.09863-.06641.191895-.08496.111816-.02246.184326-.03809.217529-.04687.0332-.0093.06836-.02124.105469-.03589-.000001-.03662-.0076-.06226-.0227-.0769-.01514-.01465-.04175-.02197-.07983-.02197-.04883.000001-.08545.0078-.109863.02344-.01904.01221-.03443.03516-.04614.06885m.258545.156739c-.04102.01465-.08374.02759-.128174.03882-.06055.01611-.09888.03198-.11499.04761-.0166.01611-.0249.03442-.0249.05493-.000001.02344.0081.04273.02417.05786.0166.01465.04077.02197.07251.02197.0332 0 .06396-.0081.09229-.02417.02881-.01611.04907-.03564.06079-.05859.01221-.02344.01831-.05371.01831-.09082v-.04761"/><path d="m25.516846 77.736122h.277588v.126709c.0415-.05176.0835-.08862.125976-.110596.04248-.02246.09424-.03369.155274-.03369.08252.000001.146971.02466.193359.07398.04687.04883.07031.124512.07031.22705v.494385h-.29956v-.427734c-.000001-.04883-.009-.08325-.0271-.103272-.01807-.02051-.04346-.03076-.07617-.03076-.03613 0-.06543.01367-.08789.04102-.02246.02734-.03369.07642-.03369.147217v.373535h-.298095v-.777832"/><path d="m26.790527 77.988075-.284912-.03003c.01074-.0498.02612-.08887.04614-.117188.02051-.02881.0498-.05371.08789-.07471.02734-.01514.06494-.02685.112793-.03516.04785-.0083.09961-.01245.155274-.01245.08936.000001.161132.0051.215332.01538.0542.0098.09936.03052.135498.06226.02539.02197.04541.05322.06006.09375.01465.04004.02197.07837.02197.11499v.343506c-.000001.03662.0022.06543.0066.08643.0049.02051.01514.04687.03076.0791h-.279785c-.01123-.02002-.01856-.03516-.02197-.04541-.0034-.01074-.0068-.02734-.01025-.0498-.03906.0376-.07788.06445-.116455.08057-.05274.02148-.114014.03223-.183838.03223-.09277 0-.16333-.02148-.21167-.06445-.04785-.04297-.07178-.09595-.07178-.158935 0-.05908.01733-.107666.052-.145752.03467-.03809.09863-.06641.191894-.08496.111816-.02246.184326-.03809.21753-.04687.0332-.0093.06836-.02124.105468-.03589 0-.03662-.0076-.06226-.0227-.0769-.01514-.01465-.04175-.02197-.07983-.02197-.04883.000001-.08545.0078-.109863.02344-.01904.01221-.03442.03516-.04614.06885m.258545.156739c-.04102.01465-.08374.02759-.128174.03882-.06055.01611-.09888.03198-.11499.04761-.0166.01611-.0249.03442-.0249.05493 0 .02344.0081.04273.02417.05786.0166.01465.04077.02197.07251.02197.0332 0 .06396-.0081.09229-.02417.02881-.01611.04907-.03564.06079-.05859.01221-.02344.01831-.05371.01831-.09082v-.04761"/><path d="m28.085449 77.736122h.279053v.734619l.000732.03442c-.000001.04883-.0105.09521-.03149.13916-.02051.04443-.0481.08032-.08276.107666-.03418.02734-.07788.04712-.131104.05933-.05273.01221-.113282.01831-.181641.01831-.15625 0-.263672-.02344-.322265-.07031-.05811-.04687-.08716-.109619-.08716-.188232 0-.0098.000488-.02295.0015-.03955l.289307.03296c.0073.02686.01855.04541.03369.05566.02197.01514.04956.02271.08276.02271.04297 0 .07495-.01147.09595-.03442.02148-.02295.03223-.06299.03223-.120118v-.11792c-.0293.03467-.05859.05982-.08789.07544-.0459.02441-.09546.03662-.148681.03662-.104004 0-.187989-.04541-.251953-.13623-.04541-.06445-.06812-.149658-.06812-.255616 0-.121093.0293-.213378.08789-.276855.05859-.06348.135254-.09521.22998-.09522.06055.000001.110352.01026.149415.03076.03955.02051.07642.05444.110595.101806v-.11499m-.280517.377197c-.000001.05615.01196.0979.03589.125245.02393.02685.05542.04028.09448.04028.03711 0 .06811-.01392.09302-.04175.02539-.02832.03809-.0708.03809-.127442 0-.05664-.01318-.09985-.03955-.129638-.02637-.03027-.05859-.04541-.09668-.04541-.03809.000001-.0686.01392-.09155.04175-.02246.02734-.03369.073-.03369.136962"/><path d="m29.409668 78.199013h-.597656c.0054.04785.01831.0835.03882.106933.02881.03369.06641.05054.112793.05054.0293.000001.05713-.0073.0835-.02197.01611-.0093.03345-.02564.052-.04907l.293701.0271c-.04492.07813-.09912.134278-.162597.168457-.06348.03369-.154542.05054-.273194.05054-.103027 0-.184082-.0144-.243164-.04321-.05908-.0293-.108154-.07544-.147217-.138427-.03857-.06348-.05786-.137939-.05786-.223389 0-.121582.03882-.21997.116455-.295166.07813-.0752.185791-.112792.322998-.112793.111328.000001.199218.01685.263672.05054.06445.03369.113525.08252.147217.146484.03369.06397.05054.147218.05054.249756v.03369m-.303231-.142838c-.0059-.05762-.02149-.09888-.04687-.123779-.0249-.0249-.05786-.03735-.09888-.03735-.04736 0-.0852.0188-.113525.0564-.01807.02344-.02954.05835-.03442.104736h.293701"/><path d="m29.551025 77.736122h.279053v.127442c.02686-.05518.05444-.09302.08276-.113526.02881-.02099.06421-.03149.106201-.03149.04395.000001.09204.01367.144287.04102l-.09228.212402c-.03516-.01465-.06299-.02197-.0835-.02197-.03906.000001-.06934.01611-.09082.04834-.03076.04541-.04614.130372-.04614.254883v.260742h-.299561v-.777832"/></g></g><path d="m68 116c-11.060103 0-20 8.93989-20 20s8.939897 20 20 20 20-8.93989 20-20-8.939897-20-20-20z" opacity=".05" transform="translate(0 -61)"/><path d="m68 117c-10.515528 0-19 8.48447-19 19s8.484472 19 19 19 19-8.48447 19-19-8.484472-19-19-19z" opacity=".15" transform="translate(0 -61)"/><rect clip-path="url(#v)" height="36" opacity=".31" rx="18" transform="translate(0 -61)" width="36" x="50" y="118"/><path d="m90.714283 72.785713a19.642857 19.642857 0 1 1 -39.285713 0 19.642857 19.642857 0 1 1 39.285713 0z" fill="url(#u)" transform="matrix(0 -.91636366 .91636366 0 1.301818 139.12727)"/><path d="m67.46875 60.375c-.680072.08338-1.779271.07031-2.875.6875l-.03125-.0625c-1.551435.471718-2.462829 1.415017-3.15625 1.5625a1.1295122 1.1295122 0 0 0 -.4375.21875c-.881255.691536-1.789661 1.534073-2.53125 2.53125v.03125c-.03037.02361-.034.03833-.0625.0625-.0541.07473-.135505.110652-.1875.1875l.03125.03125c-.403031.440967-.709759.93644-.84375 1.25-.167879.392864-.254199.502362-.25.5a1.1295122 1.1295122 0 0 0 -.40625.40625c-.795896 1.409353-1.314692 2.963795-1.65625 4.46875a1.1295122 1.1295122 0 0 0 0 .59375c.132135.431027-.02719 1.315655.0625 2.46875-.000205.041.00003.08391 0 .125-.0015 2.095729.248209 4.299439 1.09375 6.375h-.03125c.005.01295.02618.01831.03125.03125 1.700746 4.343544 5.325192 8.176351 9.9375 9.40625.0094.0025.02185-.0025.03125 0 1.211301.333886 2.551975.508145 3.875.3125a1.1295122 1.1295122 0 0 0 .21875-.0625c1.903002-.65834 1.758837-3.569894-.1875-4.0625-.712193-.180287-1.356003-.264072-1.8125-.40625s-.673529-.267963-.875-.59375a1.1295122 1.1295122 0 0 0 -.3125-.34375c-.391228-.272918-.728297-.379993-.90625-.46875s-.205636-.118818-.28125-.21875a1.1295122 1.1295122 0 0 0 -.53125-.375c-.02843-.03674-.01522-.02986-.0625-.09375-.151067-.204143-.519399-.487496-.96875-.71875-.292302-.617034-.640794-1.096428-1.03125-1.4375-.08271-.254273-.09955-.606699-.1875-.75-.182815-.297868-.255355-.403025-.25-.375h-.03125c.002-1.277675-.621213-2.427308-1.6875-3.09375-.0013-.0057.0013-.02526 0-.03125-.03851-.182897-.0499-.531246-.125-.9375a1.1295122 1.1295122 0 0 0 -.03125-.0625c-.209721-.845884-.38186-1.442967-.3125-1.96875.0024-.01447-.0023-.01686 0-.03125.210416-1.311665.110703-2.279702.4375-2.78125a1.1295122 1.1295122 0 0 0 .03125-.0625c.356804-.621838.525412-1.191283.6875-1.59375s.272544-.615382.5-.78125a1.1295122 1.1295122 0 0 0 .1875-.15625c.530359-.588127.903635-.750097 1.65625-1a1.1295122 1.1295122 0 0 0 .71875-.6875c.05686-.160813-.09139-.03753.21875-.125s1.013252-.140864 1.6875-.6875a1.1295122 1.1295122 0 0 0 .1875-.1875c.01745-.02332.08324-.07377.46875-.125.318233-.04229.812859-.09561 1.34375-.21875 1.317557-.05536 2.563524.419802 3.4375 1.25-2.164029-1.121888-4.982837-.933491-6.71875 1.03125a1.1295122 1.1295122 0 0 0 -.0625.0625c-.59451.785039-1.453622 1.64727-1.9375 2.96875-.0088.024-.02273.03819-.03125.0625h.03125c-.63513 1.537911-.366461 3.115374 0 4.375a1.1295122 1.1295122 0 0 0 .0625.125c.02215.05228.01872.406998.0625 1 .03943.533964.323487 1.32394.96875 1.875l-.03125.03125c.05987.06479.156704.09283.21875.15625 1.639507 1.675885 4.017552 2.869383 6.53125 2.59375.04207-.0046.08286.0054.125 0v-.03125c.889597-.08652 1.54136-.619506 1.84375-.90625.318456-.301979.266446-.313561.4375-.3125a1.1295122 1.1295122 0 0 0 .3125-.03125c.774147-.227086 1.332896-.647186 1.78125-.96875s.808115-.53774 1.09375-.625a1.1295122 1.1295122 0 0 0 .65625-.5625c.169272-.323435.826177-.754065 1.25-1.8125a1.1295122 1.1295122 0 0 0 .0625-.375c.01089-.0138.03447-.05047.125-.15625.214009-.250078.655094-.818687.6875-1.625h.03125c.000822-.02293-.000065-.03914 0-.0625.02387-.276024.136654-.555476.28125-.96875.139362-.398315.286493-.933087.34375-1.5625.18731-.273776.507283-.487863.5625-.78125.110435-.586774.02156-1.14261-.21875-1.65625a1.1295122 1.1295122 0 0 0 -.03125-.0625c-.08388-.161492-.09994-.392736-.09375-.9375.0056-.49494-.05714-1.261421-.5-1.96875h.03125c-.01588-.03523-.04622-.05879-.0625-.09375-.02822-.04146-.03122-.08411-.0625-.125h-.03125c-1.022259-2.102552-2.751938-3.720599-4.6875-4.8125-.05716-.03224-.09877-.09367-.15625-.125l-.03125.03125c-.706128-.455574-1.446005-.501654-1.875-.5-.468451.0018-.532321.0183-.625-.0625a1.1295122 1.1295122 0 0 0 -.5-.25c-.156738-.03641-.515628-.242273-1.03125-.4375-.446177-.168933-1.134199-.241554-1.8125-.03125v-.0625c.06589-.01178-.445175-.117053-1.125-.34375a1.1295122 1.1295122 0 0 0 -.34375-.0625h-.09375-.09375a1.1295122 1.1295122 0 0 0 -.125 0zm-9.03125 6.9375c.100767-.02337.272027-.214988.75.25.238986.232494.33098.715949.28125.9375s-.101115.258837-.09375.25l-.6875-.5625-.03125-.1875-.03125.125-.125-.09375.0625.25-.3125.78125c.03202.01202-.01973.007-.15625-.125-.136521-.132017-.338312-.555703-.25-.9375.08831-.381797.3035-.526988.40625-.59375.10275-.06676.137117-.08206.1875-.09375zm11.1875 5.21875c.551392-.110724 1.145753-.01154 1.5.375a1.1295122 1.1295122 0 0 0 .125.125c.82442.675485 1.986715.501768 2.65625-.03125.09557-.07608.1351-.216256.21875-.3125-.0011.0211.0013.04139 0 .0625-.07797.550666-.04202 1.056226-.0625 1.375-.02281.354932-.0786.381103-.03125.34375a1.1295122 1.1295122 0 0 0 -.34375.40625c-.195373.439719-.331638.78765-.4375.9375s-.06454.136771-.25.15625a1.1295122 1.1295122 0 0 0 -.71875.375c-.325367.368373-.913629.517955-1.6875.59375-1.471986-.132954-2.716109-1.958355-2.1875-3.34375a1.1295122 1.1295122 0 0 0 .03125-.09375c.145209-.517144.636108-.858026 1.1875-.96875z" opacity=".05"/><g><path d="m68 56c-9.941125 0-18 8.058875-18 18 0 3.6617 1.09067 7.063961 2.96875 9.90625-1.246625-2.364481-1.96875-5.047463-1.96875-7.90625 0-9.388841 7.611159-17 17-17s17 7.611159 17 17c0 2.858787-.722125 5.541769-1.96875 7.90625 1.87808-2.842289 2.96875-6.24455 2.96875-9.90625 0-9.941125-8.058875-18-18-18z" fill="url(#w)" opacity=".2"/><path d="m68 56c-9.94112 0-18 8.05887-18 18 0 .168593.02664.33252.03125.5.266962-9.70803 8.196223-17.5 17.96875-17.5 9.73052 0 17.63723 7.725255 17.96875 17.375v-1c-.33152-9.649745-8.23823-17.375-17.96875-17.375z" fill="#fefefe" opacity=".3"/></g><path d="m67.59375 61.5c-.933552.114453-1.85404-.0058-2.684344.590332-1.16716.354878-2.088386 1.326057-3.246855 1.572451-.92972.729567-1.853948 1.562878-2.523935 2.553115-.709338.53695-.681068 1.696811-1.4433 2.125615-.722807 1.279929-1.22308 2.715592-1.547375 4.144484.269743.879905-.0044 1.868938.09209 2.827541-.01028 2.057239.216927 4.154266 1.006531 6.078619 1.578584 4.061893 5.014535 7.652664 9.222192 8.764093 1.098926.305899 2.298774.435037 3.424433.268578.858661-.297052.80008-1.670663-.08068-1.893578-1.218087-.308351-2.634123-.314465-3.376097-1.514268-.5343-.372724-1.035122-.395228-1.442008-.932976-.51244.04806-.590344-.966347-1.431895-1.021506-.138999-.701847-.654307-1.165778-1.1875-1.625.09361-.640574-.49103-.986071-.601199-1.562635.09068-.879441-.445603-1.90136-1.202883-2.36847-.595026-.16695-.561875-1.137829-.664668-1.693895-.195495-.788505-.46111-1.584153-.333678-2.446771.178289-1.083827-.01307-2.288094.608914-3.242676.532435-.927929.597367-2.029813 1.519623-2.702352.680522-.754646 1.339127-1.060162 2.145867-1.328037.375601-1.062241 1.489566-.703342 2.245298-1.31604.570277-.762117 1.795825-.495993 2.670875-.782458 1.756495-.0738 3.595905.498882 4.728488 1.908113 1.269277 1.302992 1.881332 3.123173 1.767481 4.920565-.155968.834195.121617 1.98488-.547135 2.512386-.347916.783042-.59304 1.654125-1.586983 1.75852-.643714.728797-1.59378.930353-2.528305 1.007743-2.31375-.12311-4.095347-2.720181-3.262186-4.903755.543716-1.936383 3.3009-2.480989 4.629548-1.031214.76949.630478 1.975318-.327416 1.535243-1.219578-1.420769-2.418394-5.236602-2.928355-7.129902-.78548-.666629.880271-1.433936 1.632606-1.807617 2.698172-.494242 1.149675-.289429 2.541703.05191 3.714978.34794.821027-.174307 1.873598.83388 2.536007 1.457752 1.577334 3.666469 2.700213 5.851523 2.418422 1.130411-.04068 1.314294-1.264592 2.457895-1.257499 1.094156-.320957 1.802119-1.280864 2.841308-1.598331.334809-.639732.916107-.990525 1.183433-1.658132-.11642-.709335.849376-1.020162.851618-1.830501.05408-.975807.597209-1.664917.648803-2.739844.616606-.32883.7015-1.160092.41558-1.771233-.502151-.966792.124678-2.003489-.606254-2.959043-.906143-2.01058-2.600872-3.591295-4.506006-4.629843-.846823-.669572-1.903322.03739-2.729364-.68279-.783784-.182069-1.605842-.889352-2.417313-.489158-.523442.09354-1.117914-.231754-1.650427-.409328l-.100511-.006433zm-8.9375 6.5c.936802.351613-.764795.745485-.166753.02787zm-.28125.40625c.776288.07721-.152984.995762 0 0zm16.03125 8.0625c.07227.500802-.09616.183727 0 0z" opacity=".15"/><path d="m76.326075 74.056149c.02715.728558-.212601 1.082582-.429411 1.708611l-.389912.1939c-.318742.619394.0316.393227-.196622.885667-.498168.442381-1.509588 1.383836-1.83346 1.470081-.23671-.005.160142-.279241.211998-.386293-.666138.457157-.534648.68634-1.553613.964675l-.02955-.06664c-2.511952 1.182098-6.001544-1.16008-5.955709-4.355356-.02653.202643-.07623.151977-.131823.233404-.1296-1.643779.75932-3.294791 2.258647-3.969972 1.466465-.725543 3.185635-.428209 4.235347.551544-.576577-.755697-1.725204-1.55693-3.085513-1.482746-1.333181.02173-2.580708.868781-2.996858 1.788824-.682718.429715-.762321 1.657347-1.059654 1.882305-.400776 2.943176.752981 4.214231 2.704941 5.710246.306385.206867.08624.23853.127217.395941-.648335-.303364-1.241795-.761725-1.730319-1.322923.259342.379057.538871.747556.90045 1.037048-.611869-.206564-1.428778-1.481537-1.666695-1.533405 1.053922 1.88713 4.275435 3.309564 5.963237 2.603625-.781015.02894-1.772836.01604-2.649765-.308189-.369392-.189677-.869685-.582001-.780109-.655279 2.302672.859732 4.680736.650755 6.672797-.945979.507219-.395036 1.060878-1.0666 1.221004-1.075645-.240951.362468.0413.174299-.143894.494249.504201-.814501-.219843-.33171.521688-1.406455l.273812.376945c-.1026-.67669.839827-1.497522.743928-2.566835.216223-.326886.240952.352215.01114 1.104296.318139-.834407.08417-.968597.165574-1.657348.08783.231593.204453.477362.263853.721922-.207471-.806661.211997-1.357903.316329-1.826819-.103072-.04523-.31995.356437-.370012-.595875.008-.413732.115465-.216817.15676-.318742-.08085-.04674-.294015-.363977-.423377-.972213.09323-.143227.250895.37061.378747.391419-.08227-.483393-.22375-.852196-.229785-1.223409-.373919-.781028-.132302.104333-.435145-.33533-.398044-1.240598.329908-.287983.379365-.851288.602513.872999.945985 2.226982 1.1043 2.787572-.120547-.683624-.315137-1.346142-.553055-1.986945.183648.0775-.29522-1.406151.238522-.423684-.56951-2.094304-2.43583-4.051396-4.153189-4.96933.209583.192092.47466.433336.379969.471331-.854613-.508119-.70443-.548227-.826867-.762935-.695092-.283158-.741532.02322-1.201389.000619-1.311772-.695989-1.564476-.62211-2.771599-1.057555l.0548.256924c-.86878-.289491-1.012309.109181-1.951052.000618-.05702-.04433.300955-.161632.595875-.204151-.840146.11097-.800932-.165855-1.622971.03046.202341-.142035.417054-.236418.632959-.35704-.684831.04161-1.635628.398655-1.342217.07357-1.11726.498773-3.101793 1.198682-4.215432 2.242967l-.03495-.234008c-.510235.61246-2.225181 1.829233-2.361785 2.623226l-.136589.03167c-.265076.449605-.437257.958931-.647746 1.421216-.347093.591953-.509013.227974-.459571.320854-.683022 1.384741-1.022872 2.548139-1.315679 3.502862.208678.312109.0047 1.879293.08385 3.133458-.34255 6.195146 4.347828 12.209657 9.474859 13.598016.751474.26929 1.86875.259641 2.819245.286177-1.121183-.320854-1.265935-.169775-2.358768-.550639-.787956-.371516-.960453-.7952-1.518925-1.279799l.221035.390512c-1.094664-.387511-.6366-.479484-1.527395-.761438l.236123-.307886c-.354938-.02714-.939949-.597685-1.099773-.914617l-.388404.0154c-.466201-.574791-.714981-.990033-.696591-1.311792l-.12547.223754c-.141988-.243957-1.716151-2.158528-.899544-1.712831-.151677-.138113-.353415-.225263-.572051-.623012l.166161-.189676c-.392326-.505709-.723124-1.153753-.697791-1.369667.209584.282861.354923.335934.499071.384484-.992425-2.461895-1.048205-.135382-1.799376-2.50592l.158665-.0127c-.1215-.184147-.19602-.38287-.293712-.57858l.0694-.689053c-.714086-.825055-.199626-3.511608-.09625-4.984705.07084-.598887.596176-1.236674.995125-2.236934l-.243047-.04161c.465002-.810578 2.654292-3.256492 3.668713-3.131046.491241-.616981-.09767-.0024-.193891-.15741 1.079269-1.116659 1.418515-.788867 2.14677-.990004.784937-.465904-.673985.18214-.30186-.177615 1.357893-.346488.961962-.788265 2.732989-.964072.186965.106144-.433335.164046-.588935.301855 1.130825-.553654 3.579153-.427303 5.170152.306983 1.844625.86275 3.918416 3.411794 4.000432 5.810062l.09323.02503c-.04701.953515.145958 2.056301-.18908 3.068924l.226483-.479775" opacity=".3"/><path d="m76.326075 73.056149c.02715.728558-.212601 1.082582-.429411 1.708611l-.389912.1939c-.318742.619394.0316.393227-.196622.885667-.498168.442381-1.509588 1.383836-1.83346 1.470081-.23671-.005.160142-.279241.211998-.386293-.666138.457157-.534648.68634-1.553613.964675l-.02955-.06664c-2.511952 1.182098-6.001544-1.16008-5.955709-4.355356-.02653.202643-.07623.151977-.131823.233404-.1296-1.643779.75932-3.294791 2.258647-3.969972 1.466465-.725543 3.185635-.428209 4.235347.551544-.576577-.755697-1.725204-1.55693-3.085513-1.482746-1.333181.02173-2.580708.868781-2.996858 1.788824-.682718.429715-.762321 1.657347-1.059654 1.882305-.400776 2.943176.752981 4.214231 2.704941 5.710246.306385.206867.08624.23853.127217.395941-.648335-.303364-1.241795-.761725-1.730319-1.322923.259342.379057.538871.747556.90045 1.037048-.611869-.206564-1.428778-1.481537-1.666695-1.533405 1.053922 1.88713 4.275435 3.309564 5.963237 2.603625-.781015.02894-1.772836.01604-2.649765-.308189-.369392-.189677-.869685-.582001-.780109-.655279 2.302672.859732 4.680736.650755 6.672797-.945979.507219-.395036 1.060878-1.0666 1.221004-1.075645-.240951.362468.0413.174299-.143894.494249.504201-.814501-.219843-.33171.521688-1.406455l.273812.376945c-.1026-.67669.839827-1.497522.743928-2.566835.216223-.326886.240952.352215.01114 1.104296.318139-.834407.08417-.968597.165574-1.657348.08783.231593.204453.477362.263853.721922-.207471-.806661.211997-1.357903.316329-1.826819-.103072-.04523-.31995.356437-.370012-.595875.008-.413732.115465-.216817.15676-.318742-.08085-.04674-.294015-.363977-.423377-.972213.09323-.143227.250895.37061.378747.391419-.08227-.483393-.22375-.852196-.229785-1.223409-.373919-.781028-.132302.104333-.435145-.33533-.398044-1.240598.329908-.287983.379365-.851288.602513.872999.945985 2.226982 1.1043 2.787572-.120547-.683624-.315137-1.346142-.553055-1.986945.183648.0775-.29522-1.406151.238522-.423684-.56951-2.094304-2.43583-4.051396-4.153189-4.96933.209583.192092.47466.433336.379969.471331-.854613-.508119-.70443-.548227-.826867-.762935-.695092-.283158-.741532.02322-1.201389.000619-1.311772-.695989-1.564476-.62211-2.771599-1.057555l.0548.256924c-.86878-.289491-1.012309.109181-1.951052.000618-.05702-.04433.300955-.161632.595875-.204151-.840146.11097-.800932-.165855-1.622971.03046.202341-.142035.417054-.236418.632959-.35704-.684831.04161-1.635628.398655-1.342217.07357-1.11726.498773-3.101793 1.198682-4.215432 2.242967l-.03495-.234008c-.510235.61246-2.225181 1.829233-2.361785 2.623226l-.136589.03167c-.265076.449605-.437257.958931-.647746 1.421216-.347093.591953-.509013.227974-.459571.320854-.683022 1.384741-1.022872 2.548139-1.315679 3.502862.208678.312109.0047 1.879293.08385 3.133458-.34255 6.195146 4.347828 12.209657 9.474859 13.598016.751474.26929 1.86875.259641 2.819245.286177-1.121183-.320854-1.265935-.169775-2.358768-.550639-.787956-.371516-.960453-.7952-1.518925-1.279799l.221035.390512c-1.094664-.387511-.6366-.479484-1.527395-.761438l.236123-.307886c-.354938-.02714-.939949-.597685-1.099773-.914617l-.388404.0154c-.466201-.574791-.714981-.990033-.696591-1.311792l-.12547.223754c-.141988-.243957-1.716151-2.158528-.899544-1.712831-.151677-.138113-.353415-.225263-.572051-.623012l.166161-.189676c-.392326-.505709-.723124-1.153753-.697791-1.369667.209584.282861.354923.335934.499071.384484-.992425-2.461895-1.048205-.135382-1.799376-2.50592l.158665-.0127c-.1215-.184147-.19602-.38287-.293712-.57858l.0694-.689053c-.714086-.825055-.199626-3.511608-.09625-4.984705.07084-.598887.596176-1.236674.995125-2.236934l-.243047-.04161c.465002-.810578 2.654292-3.256492 3.668713-3.131046.491241-.616981-.09767-.0024-.193891-.15741 1.079269-1.116659 1.418515-.788867 2.14677-.990004.784937-.465904-.673985.18214-.30186-.177615 1.357893-.346488.961962-.788265 2.732989-.964072.186965.106144-.433335.164046-.588935.301855 1.130825-.553654 3.579153-.427303 5.170152.306983 1.844625.86275 3.918416 3.411794 4.000432 5.810062l.09323.02503c-.04701.953515.145958 2.056301-.18908 3.068924l.226483-.479775" fill="#fefefe"/></svg>