<svg height="96" width="96" xmlns="http://www.w3.org/2000/svg" xmlns:xlink="http://www.w3.org/1999/xlink"><linearGradient id="a"><stop offset="0" stop-color="#fefefe"/><stop offset="1" stop-color="#fefefe" stop-opacity="0"/></linearGradient><linearGradient id="b" gradientUnits="userSpaceOnUse" x1="36.357143" x2="36.357143" xlink:href="#a" y1="6" y2="63.893143"/><radialGradient id="c" cx="48" cy="90.171875" gradientTransform="matrix(1.1573129 0 0 .99590774 -7.551021 .197132)" gradientUnits="userSpaceOnUse" r="42"><stop offset="0" stop-color="#8e2710"/><stop offset="1" stop-color="#dd7b32"/></radialGradient><clipPath id="d"><rect height="84" rx="6" width="84" x="6" y="6"/></clipPath><linearGradient id="e" gradientUnits="userSpaceOnUse" x1="48" x2="48" y1="90" y2="5.987717"><stop offset="0" stop-color="#fe5f00"/><stop offset="1" stop-color="#ff8a00"/></linearGradient><linearGradient id="f" gradientTransform="matrix(1.0058652 0 0 .994169 100 0)" gradientUnits="userSpaceOnUse" x1="45.447727" x2="45.447727" y1="92.539597" y2="7.01654"><stop offset="0"/><stop offset="1" stop-opacity=".588235"/></linearGradient><linearGradient id="g" gradientTransform="matrix(1.0238095 0 0 1.0119048 -1.142857 -98.071429)" gradientUnits="userSpaceOnUse" x1="32.251034" x2="32.251034" xlink:href="#f" y1="6.131708" y2="90.238609"/><linearGradient id="h" gradientTransform="translate(0 -97)" gradientUnits="userSpaceOnUse" x1="32.251034" x2="32.251034" xlink:href="#f" y1="6.131708" y2="90.238609"/><linearGradient id="i" gradientUnits="userSpaceOnUse" x1="48" x2="48" xlink:href="#a" y1="20.220806" y2="138.66119"/><filter id="j" color-interpolation-filters="sRGB" height="1.8256" width="1.8256" x="-.4128" y="-.4128"><feGaussianBlur stdDeviation="11.352"/></filter><g><g fill="url(#g)"><path d="m12-95.03125c-5.5110903 0-10.03125 4.52016-10.03125 10.03125v71c0 5.5110902 4.5201598 10.03125 10.03125 10.03125h72c5.51109 0 10.03125-4.5201597 10.03125-10.03125v-71c0-5.51109-4.52016-10.03125-10.03125-10.03125z" opacity=".08" transform="scale(1 -1)"/><path d="m12-94.03125c-4.971633 0-9.03125 4.059617-9.03125 9.03125v71c0 4.9716329 4.0596171 9.03125 9.03125 9.03125h72c4.971633 0 9.03125-4.059617 9.03125-9.03125v-71c0-4.971633-4.059617-9.03125-9.03125-9.03125z" opacity=".1" transform="scale(1 -1)"/><path d="m12-93c-4.4091333 0-8 3.590867-8 8v71c0 4.4091333 3.5908667 8 8 8h72c4.409133 0 8-3.5908667 8-8v-71c0-4.409133-3.590867-8-8-8z" opacity=".2" transform="scale(1 -1)"/><rect height="85" opacity=".3" rx="7" transform="scale(1 -1)" width="86" x="5" y="-92"/></g><rect fill="url(#h)" height="84" opacity=".45" rx="6" transform="scale(1 -1)" width="84" x="6" y="-91"/></g><rect fill="url(#e)" height="84" rx="6" width="84" x="6" y="6"/><path d="m12 90c-3.324 0-6-2.676-6-6v-2-68-2c0-.334721.04135-.6507.09375-.96875.0487-.295596.09704-.596915.1875-.875.00988-.03038.020892-.0636.03125-.09375.098865-.287771.2348802-.547452.375-.8125.1445918-.273507.3156161-.535615.5-.78125s.3737765-.473472.59375-.6875c.439947-.428056.94291-.814526 1.5-1.09375.278545-.139612.5734731-.246947.875-.34375-.2562018.100222-.4867109.236272-.71875.375-.00741.0044-.023866-.0045-.03125 0-.031933.0193-.062293.04251-.09375.0625-.120395.0767-.2310226.163513-.34375.25-.1061728.0808-.2132809.161112-.3125.25-.1779299.161433-.3474596.345388-.5.53125-.1075789.130255-.2183939.265285-.3125.40625-.025089.03838-.038446.08587-.0625.125-.064763.103032-.1302275.204517-.1875.3125-.1010083.194706-.2056748.415701-.28125.625-.00796.02181-.023589.04055-.03125.0625-.0318251.09195-.0358045.186831-.0625.28125-.0303323.106618-.0703894.203031-.09375.3125-.0728786.341512-.125.698205-.125 1.0625v2 68 2c0 2.781848 2.2181517 5 5 5h2 68 2c2.781848 0 5-2.218152 5-5v-2-68-2c0-.364295-.05212-.720988-.125-1.0625-.04415-.206893-.08838-.397658-.15625-.59375-.0077-.02195-.0233-.04069-.03125-.0625-.06274-.173739-.138383-.367449-.21875-.53125-.04158-.0828-.07904-.169954-.125-.25-.0546-.09721-.126774-.18835-.1875-.28125-.09411-.140965-.204921-.275995-.3125-.40625-.143174-.17445-.303141-.346998-.46875-.5-.01117-.0102-.01998-.02115-.03125-.03125-.138386-.125556-.285091-.234436-.4375-.34375-.102571-.07315-.204318-.153364-.3125-.21875-.0074-.0045-.02384.0044-.03125 0-.232039-.138728-.462548-.274778-.71875-.375.301527.0968.596455.204138.875.34375.55709.279224 1.060053.665694 1.5 1.09375.219973.214028.409366.441865.59375.6875s.355408.507743.5.78125c.14012.265048.276135.524729.375.8125.01041.03078.02133.06274.03125.09375.09046.278085.1388.579404.1875.875.0524.31805.09375.634029.09375.96875v2 68 2c0 3.324-2.676 6-6 6z" fill="url(#c)" opacity=".2"/><path d="m12 6c-3.324 0-6 2.676-6 6v2 68 2c0 .334721.04135.6507.09375.96875.0487.295596.09704.596915.1875.875.00988.03038.020892.0636.03125.09375.098865.287771.2348802.547452.375.8125.1445918.273507.3156161.535615.5.78125s.3737765.473472.59375.6875c.439947.428056.94291.814526 1.5 1.09375.278545.139612.5734731.246947.875.34375-.2562018-.100222-.4867109-.236272-.71875-.375-.00741-.0044-.023866.0045-.03125 0-.031933-.0193-.062293-.04251-.09375-.0625-.120395-.0767-.2310226-.163513-.34375-.25-.1061728-.0808-.2132809-.161112-.3125-.25-.1779299-.161433-.3474596-.345388-.5-.53125-.1075789-.130255-.2183939-.265285-.3125-.40625-.025089-.03838-.038446-.08587-.0625-.125-.064763-.103032-.1302275-.204517-.1875-.3125-.1010083-.194706-.2056748-.415701-.28125-.625-.00796-.02181-.023589-.04055-.03125-.0625-.0318251-.09195-.0358045-.186831-.0625-.28125-.0303323-.106618-.0703894-.203031-.09375-.3125-.0728786-.341512-.125-.698205-.125-1.0625v-2-68-2c0-2.781848 2.2181517-5 5-5h2 68 2c2.781848 0 5 2.218152 5 5v2 68 2c0 .364295-.05212.720988-.125 1.0625-.04415.206893-.08838.397658-.15625.59375-.0077.02195-.0233.04069-.03125.0625-.06274.173739-.138383.367449-.21875.53125-.04158.0828-.07904.169954-.125.25-.0546.09721-.126774.18835-.1875.28125-.09411.140965-.204921.275995-.3125.40625-.143174.17445-.303141.346998-.46875.5-.01117.0102-.01998.02115-.03125.03125-.138386.125556-.285091.234436-.4375.34375-.102571.07315-.204318.153364-.3125.21875-.0074.0045-.02384-.0044-.03125 0-.232039.138728-.462548.274778-.71875.375.301527-.0968.596455-.204138.875-.34375.55709-.279224 1.060053-.665694 1.5-1.09375.219973-.214028.409366-.441865.59375-.6875s.355408-.507743.5-.78125c.14012-.265048.276135-.524729.375-.8125.01041-.03078.02133-.06274.03125-.09375.09046-.278085.1388-.579404.1875-.875.0524-.31805.09375-.634029.09375-.96875v-2-68-2c0-3.324-2.676-6-6-6z" fill="url(#b)" opacity=".35"/><g transform="translate(118)"><rect height="66" rx="12" style="opacity:.192;stroke:#fefefe;stroke-width:.5;stroke-linecap:round;clip-path:url(#d);fill:url(#i);filter:url(#j)" transform="translate(-118)" width="66" x="15" y="15"/><g stroke-width="1.637903"><path d="m-105.01455 52.653729c-.15036 0-.2696.121664-.28925.295282l-.52675 4.189756.52708 4.117689c.0196.173552.13856.294462.28925.294462.14577 0 .26436-.120058.28762-.292857l.62473-4.119327-.62473-4.190739c-.0229-.172766-.1425-.294495-.28762-.294495zm2.96376-2.289166c-.0262-.180104-.14807-.304192-.30007-.304192-.15265 0-.2791.128183-.30006.304192 0 .0021-.70839 6.774368-.70839 6.774368l.70839 6.624336c.0197.17768.14643.305764.30006.305764.15102 0 .27452-.124874.29908-.304126l.80605-6.625974zm11.163945-6.248601c-.290564 0-.53091.249027-.544865.565404l-.564225 12.463134.564225 8.054226c.0131.314772.254203.56298.544865.56298.289254 0 .528584-.248962.545651-.564553v.0052l.6378-8.055208-.6378-12.464444c-.01638-.317753-.256496-.566715-.545749-.566715zm-5.777868 4.333892c-.223082 0-.405348.186557-.423168.435617l-.63554 8.257981.63554 7.989364c.01638.247422.199824.434012.423168.434012.22079 0 .403023-.186557.422416-.434012l.722315-7.989364-.722315-8.259619c-.01933-.248962-.201463-.435682-.422252-.435682zm11.649751 17.313293c.360405 0 .653393-.304191.668101-.693554l.553382-7.918935-.552596-16.592943c-.0131-.389362-.307598-.693554-.6681-.693554-.363484 0-.657226.305011-.668855.694373 0 .001-.490617 16.591305-.490617 16.591305l.490617 7.921884c.0131.386217.305306.691195.668068.691195zm12.0209.03685c.496056 0 .90527-.427493.914573-.953129v.0052-.0052l.385988-7.691594-.385988-19.163468c-.0098-.52485-.418517-.953129-.914573-.953129-.496776 0-.906776.427493-.914539.953947l-.344877 19.156262c0 .01212.344877 7.70306.344877 7.70306.0066.520787.418517.94828.914539.94828zm-6.056311-.03014c.431719 0 .779708-.362631.791337-.825044v.0052l.469685-7.798713-.470472-16.712837c-.0131-.462381-.359618-.824161-.791303-.824161-.434798 0-.782787.36178-.79209.824161l-.417764 16.71382.418517 7.797075c.0098.457434.357325.820065.792123.820065zm-14.736544-.07295c.256496 0 .464248-.214893.483608-.497988l.680712-8.055208-.680385-7.665388c-.01966-.283095-.226358-.496448-.483607-.496448-.260427 0-.468146.214991-.484426.499691l-.599113 7.660146.599113 8.055209c.01638.283881.224065.498807.484426.498807zm-5.732004-.442234c.187703 0 .339471-.15488.36119-.369052l.764246-7.744007-.763591-8.035553c-.02293-.216204-.174273-.370167-.361976-.370167-.189997 0-.341798.155765-.361158.369904 0 .001-.67275 8.037192-.67275 8.037192l.672848 7.744007c.01966.214991.17067.37069.361158.37069zm23.485566-25.094971c-.468899 0-.844798.390181-.854101.889872l-.381304 16.102883.381304 7.748593c.0098.493238.384416.883354.854101.883354.468145 0 .841718-.389362.852561-.889021v.0072l.427821-7.748593-.427821-16.104521c-.0098-.498119-.384416-.8883-.852561-.8883zm-11.927867 25.618118c.323977 0 .591349-.276577.606876-.629479l.595214-8.00083-.595214-15.313741c-.01638-.353656-.28303-.629479-.606876-.629479-.326926 0-.593675.276609-.607629.629479 0 .001-.527045 15.313741-.527045 15.313741l.527831 8.004105c.0131.349627.279754.626204.606843.626204zm6.646939-.755139v-.0052l.511517-7.868487-.511517-17.151796c-.0131-.425855-.33328-.760085-.729325-.760085-.398371 0-.719237.333411-.730112.760085l-.454158 17.150813.454944 7.872746c.0098.421826.331741.755205.729326.755205.396831 0 .716156-.333379.729325-.757694v.0052zm38.687278-17.759458c-1.214473 0-2.373191.257151-3.428787.720317-.705314-8.361824-7.404633-14.920972-15.57679-14.920972-1.999617 0-3.948984.412097-5.670093 1.108894-.668887.270942-.847124.550008-.853348 1.091073v29.446225c.0066.567829.427853 1.040724.957191 1.096642.02293.0066 24.414588.01638 24.571827.01638 4.894055 0 8.864333-4.153723 8.864333-9.277084 0-5.124345-3.968313-9.27905-8.86335-9.27905zm-27.341194-12.026139c-.53245 0-.969573.4575-.977337 1.019661l-.39991 20.900301.400696 7.585458c.0066.554037.444101 1.01075.976551 1.01075.53091 0 .968034-.456746.975797-1.018874v.0092l.434798-7.586113-.434798-20.901939c-.0066-.560523-.444887-1.018022-.975797-1.018022z" opacity=".2"/><path d="m-105.01455 51.015826c-.15036 0-.2696.121663-.28925.295281l-.52675 4.189757.52708 4.117689c.0196.173552.13856.294462.28925.294462.14577 0 .26436-.120058.28762-.292857l.62473-4.119327-.62473-4.190739c-.0229-.172766-.1425-.294495-.28762-.294495zm2.96376-2.289166c-.0262-.180104-.14807-.304192-.30007-.304192-.15265 0-.2791.128182-.30006.304192 0 .0021-.70839 6.774368-.70839 6.774368l.70839 6.624336c.0197.17768.14643.305764.30006.305764.15102 0 .27452-.124874.29908-.304126l.80605-6.625974zm11.163945-6.248602c-.290564 0-.53091.249027-.544865.565405l-.564225 12.463134.564225 8.054225c.0131.314773.254203.56298.544865.56298.289254 0 .528584-.248961.545651-.564552v.0052l.6378-8.055208-.6378-12.464444c-.01638-.317754-.256496-.566715-.545749-.566715zm-5.777868 4.333893c-.223082 0-.405348.186557-.423168.435616l-.63554 8.257981.63554 7.989365c.01638.247422.199824.434012.423168.434012.22079 0 .403023-.186558.422416-.434012l.722315-7.989365-.722315-8.259619c-.01933-.248961-.201463-.435682-.422252-.435682zm11.649751 17.313293c.360405 0 .653393-.304192.668101-.693554l.553382-7.918935-.552596-16.592943c-.0131-.389363-.307598-.693554-.6681-.693554-.363484 0-.657226.30501-.668855.694373 0 .001-.490617 16.591305-.490617 16.591305l.490617 7.921883c.0131.386218.305306.691195.668068.691195zm12.0209.03685c.496056 0 .90527-.427493.914573-.953129v.0052-.0052l.385988-7.691594-.385988-19.163469c-.0098-.524849-.418517-.953128-.914573-.953128-.496776 0-.906776.427492-.914539.953947l-.344877 19.156262c0 .01212.344877 7.703059.344877 7.703059.0066.520788.418517.948281.914539.948281zm-6.056311-.03014c.431719 0 .779708-.362632.791337-.825044v.0052l.469685-7.798713-.470472-16.712838c-.0131-.46238-.359618-.82416-.791303-.82416-.434798 0-.782787.36178-.79209.82416l-.417764 16.713821.418517 7.797075c.0098.457433.357325.820065.792123.820065zm-14.736544-.07295c.256496 0 .464248-.214893.483608-.497988l.680712-8.055209-.680385-7.665387c-.01966-.283095-.226358-.496449-.483607-.496449-.260427 0-.468146.214992-.484426.499692l-.599113 7.660146.599113 8.055209c.01638.283881.224065.498807.484426.498807zm-5.732004-.442234c.187703 0 .339471-.15488.36119-.369052l.764246-7.744007-.763591-8.035554c-.02293-.216203-.174273-.370166-.361976-.370166-.189997 0-.341798.155765-.361158.369904 0 .001-.67275 8.037192-.67275 8.037192l.672848 7.744007c.01966.214991.17067.37069.361158.37069zm23.485566-25.094972c-.468899 0-.844798.390182-.854101.889873l-.381304 16.102883.381304 7.748593c.0098.493238.384416.883354.854101.883354.468145 0 .841718-.389363.852561-.889021v.0072l.427821-7.748593-.427821-16.10452c-.0098-.498119-.384416-.888301-.852561-.888301zm-11.927212 25.620084c.323977 0 .591349-.276577.606876-.629479l.595214-8.00083-.595214-15.313741c-.01638-.353656-.28303-.629479-.606876-.629479-.326925 0-.593674.276609-.607629.629479 0 .001-.527045 15.313741-.527045 15.313741l.527831 8.004106c.0131.349626.279754.626203.606843.626203zm6.646939-.755139v-.0052l.511517-7.868488-.511517-17.151796c-.0131-.425855-.33328-.760085-.729325-.760085-.398371 0-.719236.333411-.730112.760085l-.454158 17.150813.454944 7.872746c.0098.421826.331741.755205.729326.755205.396831 0 .716157-.333379.729325-.757694v.0052zm38.687278-17.759458c-1.214472 0-2.373191.257151-3.428787.720317-.705314-8.361824-7.404633-14.920972-15.576789-14.920972-1.999618 0-3.948985.412097-5.670094 1.108894-.668887.270942-.847124.550008-.853348 1.091073v29.446225c.0066.567829.427853 1.040724.957191 1.096642.02293.0052 24.413278.0154 24.571172.0154 4.895365 0 8.864333-4.15405 8.864333-9.278394 0-5.124345-3.968313-9.27905-8.86335-9.27905zm-27.341194-12.026138c-.53245 0-.969573.457499-.977337 1.01966l-.39991 20.900301.400696 7.585458c.0066.554037.444101 1.01075.976551 1.01075.53091 0 .968034-.456745.975797-1.018874v.0092l.434798-7.586113-.434798-20.901939c-.0066-.560523-.444887-1.018022-.975797-1.018022z" fill="#fff"/></g></g></svg>