<svg height="96" width="96" xmlns="http://www.w3.org/2000/svg" xmlns:xlink="http://www.w3.org/1999/xlink"><linearGradient id="a"><stop offset="0" stop-color="#ffad14" stop-opacity="0"/><stop offset=".42842335" stop-color="#ffc92c"/><stop offset="1" stop-color="#ff9c45"/></linearGradient><linearGradient id="b"><stop offset="0" stop-color="#fefefe"/><stop offset="1" stop-color="#fefefe" stop-opacity="0"/></linearGradient><linearGradient id="c" gradientUnits="userSpaceOnUse" x1="48" x2="48" y1="90" y2="5.987717"><stop offset="0" stop-color="#fefefe" stop-opacity=".156863"/><stop offset="1" stop-color="#d7d7d7" stop-opacity=".341085"/></linearGradient><radialGradient id="d" cx="48" cy="90.171875" gradientTransform="matrix(1.1573129 0 0 .99590774 -7.551021 .197132)" gradientUnits="userSpaceOnUse" r="42" xlink:href="#b"/><linearGradient id="e" gradientUnits="userSpaceOnUse" x1="36.357143" x2="36.357143" xlink:href="#b" y1="6" y2="63.893143"/><clipPath id="f"><path d="m48 102c-19.88225 0-36 16.11775-36 36s16.11775 36 36 36 36-16.11775 36-36-16.11775-36-36-36zm0 24c6.62742 0 12 5.37258 12 12s-5.37258 12-12 12-12-5.37258-12-12 5.37258-12 12-12z"/></clipPath><filter id="g" color-interpolation-filters="sRGB" height="1.36" width="1.36" x="-.18" y="-.18"><feGaussianBlur stdDeviation="5.2159999"/></filter><clipPath id="h"><path d="m48 32c-19.882251 0-36 16.117749-36 36s16.117749 36 36 36 36-16.117749 36-36-16.117749-36-36-36zm0 24c6.627417 0 12 5.372583 12 12s-5.372583 12-12 12-12-5.372583-12-12 5.372583-12 12-12z"/></clipPath><filter id="i" color-interpolation-filters="sRGB" height="1.341402" width="1.380742" x="-.190371" y="-.170701"><feGaussianBlur stdDeviation="4.9476562"/></filter><radialGradient id="j" cx="59.893993" cy="61.92226" gradientTransform="matrix(1 0 0 .8375435 0 10.059672)" gradientUnits="userSpaceOnUse" r="33.71384"><stop offset="0" stop-opacity="0"/><stop offset=".85000002" stop-opacity="0"/><stop offset="1"/></radialGradient><linearGradient id="k" gradientUnits="userSpaceOnUse" x1="26.180153" x2="93.607834" y1="61.92226" y2="61.92226"><stop offset="0" stop-color="#fefefe" stop-opacity=".203125"/><stop offset="1" stop-color="#fefefe" stop-opacity=".679688"/></linearGradient><linearGradient id="l" gradientUnits="userSpaceOnUse" x1="25.220379" x2="94.567612" y1="61.92226" y2="61.92226"><stop offset="0" stop-color="#4d4d4d"/><stop offset="1" stop-color="#fefefe"/></linearGradient><linearGradient id="m" gradientTransform="matrix(1 0 0 -1 0 97)" gradientUnits="userSpaceOnUse" x1="32.251034" x2="32.251034" xlink:href="#n" y1="6.131708" y2="90.238609"/><linearGradient id="n" gradientTransform="matrix(1.0058652 0 0 .994169 100 0)" gradientUnits="userSpaceOnUse" x1="45.447727" x2="45.447727" y1="92.539597" y2="7.01654"><stop offset="0"/><stop offset="1" stop-opacity=".588235"/></linearGradient><linearGradient id="o" gradientTransform="matrix(1.0238095 0 0 -1.0119048 -1.142857 98.071429)" gradientUnits="userSpaceOnUse" x1="32.251034" x2="32.251034" xlink:href="#n" y1="6.131708" y2="90.238609"/><linearGradient id="p" gradientUnits="userSpaceOnUse" x1="-52.078671" x2="-52.078671" y1="89.668793" y2="4.78804"><stop offset="0" stop-color="#a0a0a0" stop-opacity=".541177"/><stop offset="1" stop-color="#a0a0a0" stop-opacity=".345098"/></linearGradient><linearGradient id="q" gradientUnits="userSpaceOnUse" x1="22" x2="22" xlink:href="#b" y1="-88" y2="23.33845"/><linearGradient id="r" gradientTransform="matrix(.25 0 0 1 32 -96)" gradientUnits="userSpaceOnUse" x1="24" x2="24" xlink:href="#b" y1="8" y2="118.75008"/><linearGradient id="s" gradientUnits="userSpaceOnUse" x1="6" x2="90" y1="71" y2="71"><stop offset="0" stop-color="#ff7200"/><stop offset=".30000001" stop-color="#ffa600"/><stop offset="1" stop-color="#ff6000"/></linearGradient><linearGradient id="t" gradientUnits="userSpaceOnUse" x1="48" x2="64" y1="48" y2="64"><stop offset="0" stop-color="#d55500"/><stop offset="1" stop-color="#d55500" stop-opacity="0"/></linearGradient><linearGradient id="u" gradientUnits="userSpaceOnUse" x1="44" x2="49" y1="40" y2="49"><stop offset="0" stop-color="#ffefe4"/><stop offset="1" stop-color="#fefefe" stop-opacity="0"/></linearGradient><radialGradient id="v" cx="48.331955" cy="40.608688" gradientTransform="matrix(1.794227 .09103325 -.11579011 2.2821743 -33.536245 -52.484885)" gradientUnits="userSpaceOnUse" r="8" xlink:href="#a"/><radialGradient id="w" cx="47.715355" cy="40.8801" gradientTransform="matrix(1.3781279 .06527342 -.10811036 2.282551 -13.622944 -51.24151)" gradientUnits="userSpaceOnUse" r="8" xlink:href="#a"/><radialGradient id="x" cx="48.134884" cy="40.927727" gradientTransform="matrix(1.3912635 -.01001719 .01645251 2.2850506 -19.506789 -47.74697)" gradientUnits="userSpaceOnUse" r="8" xlink:href="#a"/><radialGradient id="y" cx="48.01487" cy="40.512867" gradientTransform="matrix(1.6196727 -.03313943 .04674486 2.2846316 -31.595934 -46.621937)" gradientUnits="userSpaceOnUse" r="8" xlink:href="#a"/><linearGradient id="z" gradientTransform="matrix(.49818628 0 0 1 64.058039 0)" gradientUnits="userSpaceOnUse" x1="24" x2="24" xlink:href="#b" y1="8" y2="119.33845"/><g><g fill="url(#o)"><path d="m12 3.96875c-5.5110902 0-10.03125 4.5201598-10.03125 10.03125v71c0 5.51109 4.5201597 10.03125 10.03125 10.03125h72c5.51109 0 10.03125-4.52016 10.03125-10.03125v-71c0-5.5110903-4.52016-10.03125-10.03125-10.03125zm0 2.03125h72c3.324 0 6 2.676 6 6v72c0 3.324-2.676 6-6 6h-72c-3.324 0-6-2.676-6-6v-72c0-3.324 2.676-6 6-6z" opacity=".08"/><path d="m12 4.96875c-4.9716329 0-9.03125 4.0596171-9.03125 9.03125v71c0 4.971633 4.059617 9.03125 9.03125 9.03125h72c4.971633 0 9.03125-4.059617 9.03125-9.03125v-71c0-4.971633-4.059617-9.03125-9.03125-9.03125zm0 1.03125h72c3.324 0 6 2.676 6 6v72c0 3.324-2.676 6-6 6h-72c-3.324 0-6-2.676-6-6v-72c0-3.324 2.676-6 6-6z" opacity=".1"/><path d="m11.1875 6.03125c-4.0275183.4106511-7.1875 3.8351875-7.1875 7.96875v71c0 4.409133 3.5908667 8 8 8h72c4.409133 0 8-3.590867 8-8v-71c0-4.1970618-3.258972-7.6460416-7.375-7.96875 3.032886.306167 5.375 2.8525 5.375 5.96875v72c0 3.324-2.676 6-6 6h-72c-3.324 0-6-2.676-6-6v-72c0-3.11625 2.3421143-5.662583 5.375-5.96875-.06227.00488-.12563-.00631-.1875 0z" opacity=".2"/><path d="m6.4375 9.75c-.8994891 1.177446-1.4375 2.647277-1.4375 4.25v71c0 3.878 3.122 7 7 7h72c3.878 0 7-3.122 7-7v-71c0-1.602723-.538011-3.072554-1.4375-4.25.279316.694095.4375 1.453625.4375 2.25v72c0 3.324-2.676 6-6 6h-72c-3.324 0-6-2.676-6-6v-72c0-.796375.1581836-1.555905.4375-2.25z" opacity=".3"/></g><path d="m6 84v1c0 3.324 2.676 6 6 6h72c3.324 0 6-2.676 6-6v-1c0 3.324-2.676 6-6 6h-72c-3.324 0-6-2.676-6-6z" fill="url(#m)" opacity=".45"/></g><path d="m6 52v32c0 3.324 2.676 6 6 6h72c3.324 0 6-2.676 6-6v-32z" fill="url(#s)" opacity=".8"/><path d="m6 52h84v1h-84z" fill="#f60" opacity=".8"/><g><path d="m48 17.09375c-17.61198 0-31.90625 14.29427-31.90625 31.90625s14.29427 31.90625 31.90625 31.90625 31.90625-14.29427 31.90625-31.90625-14.29427-31.90625-31.90625-31.90625zm0 26.8125c2.82501 0 5.09375 2.26874 5.09375 5.09375s-2.26874 5.09375-5.09375 5.09375-5.09375-2.26874-5.09375-5.09375 2.26874-5.09375 5.09375-5.09375z" opacity=".1"/><path d="m48 18.03125c-17.097597 0-30.96875 13.871153-30.96875 30.96875s13.871153 30.96875 30.96875 30.96875 30.96875-13.871153 30.96875-30.96875-13.871153-30.96875-30.96875-30.96875zm0 24.9375c3.336938 0 6.03125 2.694312 6.03125 6.03125s-2.694312 6.03125-6.03125 6.03125-6.03125-2.694312-6.03125-6.03125 2.694312-6.03125 6.03125-6.03125z" opacity=".15"/><path d="m48 19c-16.568542 0-30 13.431458-30 30s13.431458 30 30 30 30-13.431458 30-30-13.431458-30-30-30zm0 23c3.865993 0 7 3.134007 7 7s-3.134007 7-7 7-7-3.134007-7-7 3.134007-7 7-7z" opacity=".3"/><path d="m48 31c-9.926037 0-18 8.073963-18 18s8.073963 18 18 18 18-8.073963 18-18-8.073963-18-18-18zm0 10c4.436473 0 8 3.563527 8 8s-3.563527 8-8 8-8-3.563527-8-8 3.563527-8 8-8z" opacity=".05"/><path d="m48 33c-8.836556 0-16 7.163444-16 16s7.163444 16 16 16 16-7.163444 16-16-7.163444-16-16-16zm0 6c5.522847 0 10 4.477153 10 10s-4.477153 10-10 10-10-4.477153-10-10 4.477153-10 10-10z" opacity=".3"/><path d="m48 31.96875c-9.397533 0-17.03125 7.633717-17.03125 17.03125s7.633717 17.03125 17.03125 17.03125 17.03125-7.633717 17.03125-17.03125-7.633717-17.03125-17.03125-17.03125zm0 8.0625c4.96187 0 8.96875 4.00688 8.96875 8.96875s-4.00688 8.96875-8.96875 8.96875-8.96875-4.00688-8.96875-8.96875 4.00688-8.96875 8.96875-8.96875z" opacity=".1"/><path d="m48 18.084506c-16.521871 0-29.915493 13.393622-29.915493 29.915493s13.393622 29.915493 29.915493 29.915493 29.915493-13.393622 29.915493-29.915493-13.393622-29.915493-29.915493-29.915493zm0 19.943662c5.50729 0 9.971831 4.464541 9.971831 9.971831s-4.464541 9.971831-9.971831 9.971831-9.971831-4.464541-9.971831-9.971831 4.464541-9.971831 9.971831-9.971831z" fill="#bbb1bf"/><path d="m48 38.028168c-5.50729 0-9.971831 4.464541-9.971831 9.971831s4.464541 9.971831 9.971831 9.971831 9.971831-4.464541 9.971831-9.971831-4.464541-9.971831-9.971831-9.971831zm0 5.816901c2.294704 0 4.15493 1.860226 4.15493 4.15493s-1.860226 4.15493-4.15493 4.15493-4.15493-1.860226-4.15493-4.15493 1.860226-4.15493 4.15493-4.15493z" fill="#fefefe" opacity=".3"/><path d="m92.579506 61.92226a32.685513 27.208481 0 1 1 -65.371025 0 32.685513 27.208481 0 1 1 65.371025 0z" fill="none" opacity=".6" stroke="url(#l)" stroke-linecap="round" stroke-width="6.524894" transform="matrix(0 .13983022 -.16797786 0 58.40157 39.625008)"/><path d="m92.579506 61.92226a32.685513 27.208481 0 1 1 -65.371025 0 32.685513 27.208481 0 1 1 65.371025 0z" style="opacity:.5;fill-rule:evenodd;stroke-width:3.777591;stroke-linecap:round;fill:url(#j);stroke:url(#k)" transform="matrix(0 .24152223 -.29014359 0 65.966347 33.534357)"/><path clip-path="url(#h)" d="m57.3125 33.21875-9.3125 34.78125 31.1875-18c-4.773897-8.268632-12.65254-14.310099-21.875-16.78125zm-9.3125 34.78125-31.1875 18c4.773897 8.268632 12.65254 14.3101 21.875 16.78125z" fill="#fefefe" filter="url(#i)" opacity=".8" transform="matrix(.83098592 0 0 .83098592 8.112676 -8.507043)"/><g clip-path="url(#f)" filter="url(#g)" opacity=".6" transform="matrix(.83098592 0 0 .83098592 8.112676 -66.676057)"><path d="m60.947452 57.784124a20.708128 18.814091 0 0 1 -2.615496 2.905857l-14.642858-13.303571z" fill="#7137c8" transform="matrix(1.5055399 .86922388 -.95672979 1.6571045 27.560302 21.500167)"/><path d="m60.779363 58.010828a20.708128 18.814091 0 0 1 -3.384016 3.478847l-13.706249-14.103265z" fill="#0cf" transform="matrix(1.6792116 .4499434 -.49523981 1.8482599 -1.895609 30.759984)"/><path d="m62.72377 54.795738a20.708128 18.814091 0 0 1 -2.259683 3.622054l-16.774989-11.031382z" fill="#fc0" transform="matrix(1.7384478 0 -.00000006 1.9134595 -27.951218 47.328031)"/><path d="m61.622863 56.793455a20.708128 18.814091 0 0 1 -1.699251 2.272761l-16.234514-11.679806z" fill="#f00" transform="matrix(1.6792116 -.4499434 .4952397 1.84826 -48.830877 70.075223)"/><path d="m63.123303 53.883448a20.708128 18.814091 0 0 1 -2.370014 4.161918l-17.064191-10.658956z" fill="#0f0" transform="matrix(1.6792116 .4499434 -.49523981 1.8482599 -1.895609 30.759984)"/><path d="m60.947452 57.784124a20.708128 18.814091 0 0 1 -2.615496 2.905857l-14.642858-13.303571z" fill="#7137c8" transform="matrix(-1.5055399 -.86922388 .95672979 -1.6571045 68.439684 254.49984)"/><path d="m60.779363 58.010828a20.708128 18.814091 0 0 1 -3.384016 3.478847l-13.706249-14.103265z" fill="#0cf" transform="matrix(-1.6792116 -.4499434 .49523981 -1.8482599 97.895595 245.24003)"/><path d="m62.72377 54.795738a20.708128 18.814091 0 0 1 -2.259683 3.622054l-16.774989-11.031382z" fill="#fc0" transform="matrix(-1.7384478 0 .00000006 -1.9134595 123.9512 228.67198)"/><path d="m61.622863 56.793455a20.708128 18.814091 0 0 1 -1.699251 2.272761l-16.234514-11.679806z" fill="#f00" transform="matrix(-1.6792116 .4499434 -.4952397 -1.84826 144.83086 205.92479)"/><path d="m63.123303 53.883448a20.708128 18.814091 0 0 1 -2.370014 4.161918l-17.064191-10.658956z" fill="#0f0" transform="matrix(-1.6792116 -.4499434 .49523981 -1.8482599 97.895595 245.24003)"/></g><g fill="#fefefe"><path d="m48 35.950703c-6.654642 0-12.049296 5.394654-12.049296 12.049296s5.394654 12.049296 12.049296 12.049296 12.049296-5.394654 12.049296-12.049296-5.394654-12.049296-12.049296-12.049296zm0 2.077465c5.50729 0 9.971831 4.464541 9.971831 9.971831s-4.464541 9.971831-9.971831 9.971831-9.971831-4.464541-9.971831-9.971831 4.464541-9.971831 9.971831-9.971831z" opacity=".3"/><path d="m-52 18.084506c-16.52187 0-29.915493 13.393622-29.915493 29.915493 0 .2801.01828.552734.02593.830986.443569-16.134601 13.647794-29.084507 29.889563-29.084507 16.241771 0 29.445993 12.949906 29.889525 29.084507.0076-.278252.02597-.550886.02597-.830986-.000002-16.521871-13.393624-29.915493-29.915495-29.915493z" opacity=".4"/><path d="m48 18c-16.568542 0-30 13.431458-30 30 0 .168996-.0028.331667 0 .5.270142-16.335143 13.600454-29.5 30-29.5s29.729858 13.164857 30 29.5c.002784-.168333 0-.331004 0-.5 0-16.568542-13.431458-30-30-30z" opacity=".4"/></g></g><path d="m78 48a30 30 0 1 1 -60 0 30 30 0 1 1 60 0z" fill="url(#u)"/><path d="m48 18c-16.568542 0-30 13.431458-30 30s13.431458 30 30 30 30-13.431458 30-30-13.431458-30-30-30zm0 2c15.463973 0 28 12.536027 28 28s-12.536027 28-28 28-28-12.536027-28-28 12.536027-28 28-28z" fill="url(#t)"/><g transform="matrix(.98637875 -.16448998 .16448998 .98637875 -7.241699 8.549339)"><path d="m47.99122 45c-2.05497 0-8.836049-17.041082-7.903735-19.67277 1.608377-4.540039 14.05387-4.331347 15.80747 0 1.033419 2.552518-5.848764 19.67277-7.903735 19.67277z" fill="url(#y)"/><g fill="#ff821d"><path d="m45.73192 38.906706-4.391792-13.270849 2.004948-.954738z"/><path d="m47.927815 41.293549-1.527579-14.512008h2.004948z"/><path d="m49.741816 23.344487-.09547 11.552322 1.814001-11.74327-1.718528.190948z"/><path d="m53.465292 25.826804-3.437054 14.130113 4.964634-13.843692z"/></g></g><g transform="matrix(.73456817 .6785349 -.6785349 .73456817 45.310403 -19.828947)"><path d="m47.99122 45c-2.05497 0-8.836049-17.041082-7.903735-19.67277 1.608377-4.540039 14.05387-4.331347 15.80747 0 1.033419 2.552518-5.848764 19.67277-7.903735 19.67277z" fill="url(#v)"/><g fill="#ff821d"><path d="m45.73192 38.906706-4.391792-13.270849 2.004948-.954738z"/><path d="m47.927815 41.293549-1.527579-14.512008h2.004948z"/><path d="m49.741816 23.344487-.09547 11.552322 1.814001-11.74327-1.718528.190948z"/><path d="m53.465292 25.826804-3.437054 14.130113 4.964634-13.843692z"/></g></g><g transform="matrix(.47071821 -.88228361 .88228361 .47071821 -16.944087 67.75514)"><path d="m47.99122 45c-2.05497 0-8.836049-17.041082-7.903735-19.67277 1.608377-4.540039 14.05387-4.331347 15.80747 0 1.033419 2.552518-5.848764 19.67277-7.903735 19.67277z" fill="url(#w)"/><g fill="#ff821d"><path d="m45.73192 38.906706-4.391792-13.270849 2.004948-.954738z"/><path d="m47.927815 41.293549-1.527579-14.512008h2.004948z"/><path d="m49.741816 23.344487-.09547 11.552322 1.814001-11.74327-1.718528.190948z"/><path d="m53.465292 25.826804-3.437054 14.130113 4.964634-13.843692z"/></g></g><g transform="matrix(-.40668515 -.91356838 .91356838 -.40668515 23.669606 111.37217)"><path d="m47.99122 45c-2.05497 0-8.836049-17.041082-7.903735-19.67277 1.608377-4.540039 14.05387-4.331347 15.80747 0 1.033419 2.552518-5.848764 19.67277-7.903735 19.67277z" fill="url(#x)"/><g fill="#ff821d"><path d="m45.73192 38.906706-4.391792-13.270849 2.004948-.954738z"/><path d="m47.927815 41.293549-1.527579-14.512008h2.004948z"/><path d="m49.741816 23.344487-.09547 11.552322 1.814001-11.74327-1.718528.190948z"/><path d="m53.465292 25.826804-3.437054 14.130113 4.964634-13.843692z"/></g></g><g><rect fill="url(#c)" height="84" rx="6" width="84" x="6" y="6"/><path d="m12 6c-3.324 0-6 2.676-6 6v2 68 2c0 .334721.04135.6507.09375.96875.0487.295596.09704.596915.1875.875.0099.03038.02089.0636.03125.09375.09886.287771.23488.547452.375.8125.144592.273507.315616.535615.5.78125s.373776.473472.59375.6875c.439947.428056.94291.814526 1.5 1.09375.278545.139612.573473.246947.875.34375-.256202-.100222-.486711-.236272-.71875-.375-.0074-.0044-.02387.0045-.03125 0-.03193-.0193-.06229-.04251-.09375-.0625-.120395-.0767-.231023-.163513-.34375-.25-.106173-.0808-.213281-.161112-.3125-.25-.17793-.161433-.34746-.345388-.5-.53125-.107579-.130255-.218394-.265285-.3125-.40625-.02509-.03838-.03845-.08587-.0625-.125-.06476-.103032-.130228-.204517-.1875-.3125-.101008-.194706-.205675-.415701-.28125-.625-.008-.02181-.02359-.04055-.03125-.0625-.03183-.09195-.0358-.186831-.0625-.28125-.030332-.106618-.070389-.203031-.09375-.3125-.072879-.341512-.125-.698205-.125-1.0625v-2-68-2c0-2.781848 2.218152-5 5-5h2 68 2c2.781848 0 5 2.218152 5 5v2 68 2c0 .364295-.05212.720988-.125 1.0625-.04415.206893-.08838.397658-.15625.59375-.0077.02195-.0233.04069-.03125.0625-.06274.173739-.138383.367449-.21875.53125-.04158.0828-.07904.169954-.125.25-.0546.09721-.126774.18835-.1875.28125-.09411.140965-.204921.275995-.3125.40625-.143174.17445-.303141.346998-.46875.5-.01117.0102-.01998.02115-.03125.03125-.138386.125556-.285091.234436-.4375.34375-.102571.07315-.204318.153364-.3125.21875-.0074.0045-.02384-.0044-.03125 0-.232039.138728-.462548.274778-.71875.375.301527-.0968.596455-.204138.875-.34375.55709-.279224 1.060053-.665694 1.5-1.09375.219973-.214028.409366-.441865.59375-.6875s.355408-.507743.5-.78125c.14012-.265048.276135-.524729.375-.8125.01041-.03078.02133-.06274.03125-.09375.09046-.278085.1388-.579404.1875-.875.0524-.31805.09375-.634029.09375-.96875v-2-68-2c0-3.324-2.676-6-6-6z" fill="url(#e)" opacity=".5"/><path d="m6 52v32c0 3.324 2.676 6 6 6h72c3.324 0 6-2.676 6-6v-32z" fill="url(#s)" opacity=".3"/><path d="m12 90c-3.324 0-6-2.676-6-6v-2-68-2c0-.334721.04135-.6507.09375-.96875.0487-.295596.09704-.596915.1875-.875.00988-.03038.020892-.0636.03125-.09375.098865-.287771.2348802-.547452.375-.8125.1445918-.273507.3156161-.535615.5-.78125s.3737765-.473472.59375-.6875c.439947-.428056.94291-.814526 1.5-1.09375.278545-.139612.5734731-.246947.875-.34375-.2562018.100222-.4867109.236272-.71875.375-.00741.0044-.023866-.0045-.03125 0-.031933.0193-.062293.04251-.09375.0625-.120395.0767-.2310226.163513-.34375.25-.1061728.0808-.2132809.161112-.3125.25-.1779299.161433-.3474596.345388-.5.53125-.1075789.130255-.2183939.265285-.3125.40625-.025089.03838-.038446.08587-.0625.125-.064763.103032-.1302275.204517-.1875.3125-.1010083.194706-.2056748.415701-.28125.625-.00796.02181-.023589.04055-.03125.0625-.0318251.09195-.0358045.186831-.0625.28125-.0303323.106618-.0703894.203031-.09375.3125-.0728786.341512-.125.698205-.125 1.0625v2 68 2c0 2.781848 2.2181517 5 5 5h2 68 2c2.781848 0 5-2.218152 5-5v-2-68-2c0-.364295-.05212-.720988-.125-1.0625-.04415-.206893-.08838-.397658-.15625-.59375-.0077-.02195-.0233-.04069-.03125-.0625-.06274-.173739-.138383-.367449-.21875-.53125-.04158-.0828-.07904-.169954-.125-.25-.0546-.09721-.126774-.18835-.1875-.28125-.09411-.140965-.204921-.275995-.3125-.40625-.143174-.17445-.303141-.346998-.46875-.5-.01117-.0102-.01998-.02115-.03125-.03125-.138386-.125556-.285091-.234436-.4375-.34375-.102571-.07315-.204318-.153364-.3125-.21875-.0074-.0045-.02384.0044-.03125 0-.232039-.138728-.462548-.274778-.71875-.375.301527.0968.596455.204138.875.34375.55709.279224 1.060053.665694 1.5 1.09375.219973.214028.409366.441865.59375.6875s.355408.507743.5.78125c.14012.265048.276135.524729.375.8125.01041.03078.02133.06274.03125.09375.09046.278085.1388.579404.1875.875.0524.31805.09375.634029.09375.96875v2 68 2c0 3.324-2.676 6-6 6z" fill="url(#d)" opacity=".4"/><rect fill="#f0f" height="84" rx="6" width="84" x="-94" y="6"/><path d="m112 8h16v16h-16z" fill="#fefefe" stroke="#000" stroke-dashoffset="8.6" stroke-linecap="round" stroke-width=".5"/><text font-family="Liberation Sans" font-size="4" x="131.39261" y="11.969256"><tspan x="131.39261" y="11.969256">Width: 2px</tspan><tspan x="131.39261" y="16.969257">Blur: 12</tspan><tspan x="131.39261" y="21.969257">Opacity: 60</tspan></text><rect fill="url(#p)" height="84" rx="6" width="84" x="-94" y="6"/><path d="m14-90h16v84h-16z" fill="url(#q)" opacity=".4" transform="scale(1 -1)"/><path d="m36-90h4v84h-4z" fill="url(#r)" opacity=".4" transform="scale(1 -1)"/><path d="m6 52h84v1h-84z" fill="#ff7200" opacity=".1"/><path d="m72.029022 6h7.970981v84h-7.970981z" fill="url(#z)" opacity=".3"/></g></svg>