<svg height="96" width="96" xmlns="http://www.w3.org/2000/svg" xmlns:xlink="http://www.w3.org/1999/xlink"><linearGradient id="a"><stop offset="0" stop-color="#818181"/><stop offset=".2" stop-color="#f9f9f9"/><stop offset="1" stop-color="#dcdcdc" stop-opacity="0"/></linearGradient><linearGradient id="b"><stop offset="0" stop-color="#fefefe"/><stop offset="1" stop-color="#fefefe" stop-opacity="0"/></linearGradient><radialGradient id="c" cx="90" cy="90" gradientTransform="matrix(0 -1.085034 2 0 -90 187.65306)" gradientUnits="userSpaceOnUse" r="42"><stop offset="0" stop-color="#b4b4b4"/><stop offset="1" stop-color="#dcdcdc"/></radialGradient><linearGradient id="d" gradientUnits="userSpaceOnUse" x1="24" x2="88" xlink:href="#b" y1="34" y2="14"/><linearGradient id="e" gradientUnits="userSpaceOnUse" x1="6" x2="24" xlink:href="#a" y1="73" y2="73"/><linearGradient id="f" gradientTransform="matrix(-1 0 0 1 96 0)" gradientUnits="userSpaceOnUse" x1="6" x2="24" xlink:href="#a" y1="73" y2="73"/><linearGradient id="g" gradientTransform="matrix(1.0058652 0 0 .994169 100 0)" gradientUnits="userSpaceOnUse" x1="45.447727" x2="45.447727" y1="92.539597" y2="7.01654"><stop offset="0"/><stop offset="1" stop-opacity=".588235"/></linearGradient><linearGradient id="h" gradientTransform="matrix(1.0238095 0 0 1.0119048 -1.142857 -98.071429)" gradientUnits="userSpaceOnUse" x1="32.251034" x2="32.251034" xlink:href="#g" y1="6.131708" y2="90.238609"/><linearGradient id="i" gradientTransform="translate(0 -97)" gradientUnits="userSpaceOnUse" x1="32.251034" x2="32.251034" xlink:href="#g" y1="6.131708" y2="90.238609"/><linearGradient id="j" gradientUnits="userSpaceOnUse" x1="38.748035" x2="38.748035" y1="32.029934" y2="5.833157"><stop offset="0" stop-color="#dcdcdc"/><stop offset="1" stop-color="#fafafa"/></linearGradient><linearGradient id="k" gradientTransform="matrix(.98449154 .17543207 -.17543207 .98449154 3.99317 -1.212342)" gradientUnits="userSpaceOnUse" x1="22.221363" x2="83.446823" xlink:href="#l" y1="14.907595" y2="78.167587"/><linearGradient id="l"><stop offset="0"/><stop offset="1" stop-opacity="0"/></linearGradient><radialGradient id="m" cx="63.937504" cy="95.865532" gradientTransform="matrix(.1433207 -.1433132 .8374475 .8374024 38.231607 -15.647539)" gradientUnits="userSpaceOnUse" r="20.6875"><stop offset="0" stop-color="#d0d0d0"/><stop offset="1" stop-color="#a1a1a1"/></radialGradient><linearGradient id="n" gradientUnits="userSpaceOnUse" x1="40.113346" x2="40.113346" y1="2.60251" y2="75.039833"><stop offset="0" stop-color="#5496b4" stop-opacity=".198473"/><stop offset="1" stop-color="#dfecf2" stop-opacity="0"/></linearGradient><linearGradient id="o" gradientUnits="userSpaceOnUse" x1="12.75" x2="63.25" y1="11.75" y2="64"><stop offset="0" stop-color="#404040"/><stop offset=".5" stop-color="#b7b7b7"/><stop offset="1" stop-color="#404040"/></linearGradient><filter id="p" color-interpolation-filters="sRGB"><feGaussianBlur stdDeviation="1.9857422"/></filter><linearGradient id="q" gradientUnits="userSpaceOnUse" x1="31.916745432" x2="25.22145284713" xlink:href="#b" y1="-3.91234565397" y2="48.4982105845"/><linearGradient id="r" gradientUnits="userSpaceOnUse" x1="124.34372" x2="10.007462" xlink:href="#b" y1="42.893944" y2="21.098124"/><radialGradient id="s" cx="31.357048" cy="22.817865" gradientTransform="matrix(1.0000002 .00000005 -.00000003 .7208464 -.000007 6.369689)" gradientUnits="userSpaceOnUse" r="7.357049" xlink:href="#b"/><linearGradient id="t" gradientTransform="matrix(.6875241 -.6874876 .6875241 .6874876 23.861388 39.569248)" gradientUnits="userSpaceOnUse" x1="53.797203" x2="61.486988" xlink:href="#l" y1="73.685364" y2="81.817085"/><linearGradient id="u" gradientUnits="userSpaceOnUse" x1="58.89583936" x2="43.28201705933" y1="170.39819678625" y2="170.39819678625"><stop offset="0"/><stop offset=".2" stop-color="#646464"/><stop offset=".30000001" stop-color="#c8c8c8"/><stop offset=".40000001" stop-color="#646464"/><stop offset="1"/></linearGradient><linearGradient id="v" gradientTransform="matrix(.6875241 -.6874876 .6875241 .6874876 23.861388 39.569248)" gradientUnits="userSpaceOnUse" x1="64.414215" x2="64.414215" xlink:href="#b" y1="87.40625" y2="75.81768"/><filter id="w" color-interpolation-filters="sRGB" height="1.333462" width="1.187459" x="-.09373" y="-.166731"><feGaussianBlur stdDeviation=".31930287"/></filter><linearGradient id="x" gradientTransform="matrix(.9207401 .39017645 -.39017645 .9207401 11.483175 -7.7523)" gradientUnits="userSpaceOnUse" x1="22.221363" x2="83.446823" xlink:href="#l" y1="14.907595" y2="78.167587"/><g><g fill="url(#h)"><path d="m12-95.03125c-5.5110903 0-10.03125 4.52016-10.03125 10.03125v71c0 5.5110902 4.5201598 10.03125 10.03125 10.03125h72c5.51109 0 10.03125-4.5201597 10.03125-10.03125v-71c0-5.51109-4.52016-10.03125-10.03125-10.03125z" opacity=".08" transform="scale(1 -1)"/><path d="m12-94.03125c-4.971633 0-9.03125 4.059617-9.03125 9.03125v71c0 4.9716329 4.0596171 9.03125 9.03125 9.03125h72c4.971633 0 9.03125-4.059617 9.03125-9.03125v-71c0-4.971633-4.059617-9.03125-9.03125-9.03125z" opacity=".1" transform="scale(1 -1)"/><path d="m12-93c-4.4091333 0-8 3.590867-8 8v71c0 4.4091333 3.5908667 8 8 8h72c4.409133 0 8-3.5908667 8-8v-71c0-4.409133-3.590867-8-8-8z" opacity=".2" transform="scale(1 -1)"/><rect height="85" opacity=".3" rx="7" transform="scale(1 -1)" width="86" x="5" y="-92"/></g><rect fill="url(#i)" height="84" opacity=".45" rx="6" transform="scale(1 -1)" width="84" x="6" y="-91"/></g><g><rect fill="url(#c)" height="84" rx="6" width="84" x="6" y="6"/><path d="m6 26v58c0 3.324 2.676 6 6 6h12v-64z" fill="url(#e)"/><path d="m90 26v58c0 3.324-2.676 6-6 6h-12v-64z" fill="url(#f)"/><path d="m6 82v2c0 3.324 2.676 6 6 6h72c3.324 0 6-2.676 6-6v-2c0 3.324-2.676 6-6 6h-72c-3.324 0-6-2.676-6-6z" opacity=".15"/><g transform="translate(0 -2)"><path d="m6 58v2c0 3.324 2.676 6 6 6h72c3.324 0 6-2.676 6-6v-2c0 3.324-2.676 6-6 6h-72c-3.324 0-6-2.676-6-6z" fill="#fefefe" opacity=".8"/><path d="m6 56v2c0 3.324 2.676 6 6 6h72c3.324 0 6-2.676 6-6v-2c0 3.324-2.676 6-6 6h-72c-3.324 0-6-2.676-6-6z" opacity=".15"/></g><path d="m6 42v2c0 3.324 2.676 6 6 6h72c3.324 0 6-2.676 6-6v-2c0 3.324-2.676 6-6 6h-72c-3.324 0-6-2.676-6-6z" fill="#fefefe" opacity=".8"/><path d="m6 40v2c0 3.324 2.676 6 6 6h72c3.324 0 6-2.676 6-6v-2c0 3.324-2.676 6-6 6h-72c-3.324 0-6-2.676-6-6z" opacity=".15"/><path d="m12 6h72c3.324 0 6 2.676 6 6v16c0 3.324-2.676 6-6 6h-72c-3.324 0-6-2.676-6-6v-16c0-3.324 2.676-6 6-6z" fill="url(#j)"/><path d="m12 6c-3.324 0-6 2.676-6 6v16c0 3.324 2.676 6 6 6h72c3.324 0 6-2.676 6-6v-16c0-3.324-2.676-6-6-6zm0 2h72c2.245802 0 4 1.7541975 4 4v16c0 2.245802-1.754198 4-4 4h-72c-2.2458025 0-4-1.754198-4-4v-16c0-2.2458025 1.7541975-4 4-4z" fill="url(#d)"/><g transform="translate(0 12)"><path d="m6 58v2c0 3.324 2.676 6 6 6h72c3.324 0 6-2.676 6-6v-2c0 3.324-2.676 6-6 6h-72c-3.324 0-6-2.676-6-6z" fill="#fefefe" opacity=".8"/><path d="m6 56v2c0 3.324 2.676 6 6 6h72c3.324 0 6-2.676 6-6v-2c0 3.324-2.676 6-6 6h-72c-3.324 0-6-2.676-6-6z" opacity=".15"/></g></g><g transform="translate(11.947733 3.014569)"><path d="m50.011751 48.471391c-2.647565 3.098191-6.017057 5.239289-9.632165 6.391807 1.827922.34134 3.767887 1.156513 5.26239 2.920263-.526144.677453-.712911 1.591985-.200151 2.32366l19.45351 27.741595c.628956.897377 1.912984 1.116346 2.814295.490789l4.52169-3.137417c.901372-.625667 1.119864-1.916881.49079-2.814295l-19.409475-27.745363c-.530896-.757452-1.520795-.903486-2.357608-.596448-1.06163-1.892944-1.189473-3.838318-.943276-5.574591z" fill="url(#k)" opacity=".6"/><g transform="matrix(.52465708 0 0 .52465708 -13.243243 24.785858)"><path d="m101.03596 56.584567s14.86816-7.132238 24.66538 2.664461l5.84395-5.671773c-9.8966-9.896076-2.75054-24.750002-2.75054-24.75-2.1751 6.421196-2.96877 10.530978-10.05504 17.61687-7.12919 7.12881-17.70375 10.140442-17.70375 10.140442z" fill="url(#m)" fill-rule="evenodd" stroke="#404141" stroke-width="1.906007"/><path d="m74.25 37.75a36.25 36.25 0 1 1 -72.5 0 36.25 36.25 0 1 1 72.5 0z" fill="url(#n)" stroke="url(#o)" stroke-width="3.84621" transform="matrix(.9911353 0 0 .9910827 55.641208 -16.409904)"/><path d="m56.375449 13.756925c5.137338 5.453482 8.3125 12.861855 8.3125 21.03125-.000002 16.735097-13.280226 30.34375-29.625 30.34375-6.317804 0-12.159384-2.043738-16.96875-5.5 5.380898 5.665106 12.897015 9.1875 21.21875 9.1875 16.344774 0 29.625001-13.577403 29.625-30.3125 0-10.231102-4.973959-19.25883-12.5625-24.75z" fill="#b0cedd" filter="url(#p)" opacity=".4" transform="matrix(.9980182 0 0 .9979653 55.503044 -16.792511)"/><g opacity=".692623" transform="matrix(.96592583 -.25881905 .25881905 .96592583 -2.475027 25.129232)"><path d="m38.25 3.46875c-16.614748 0-30.388067 11.786531-33.6875 27.40625a.44506709.44506709 0 0 0 .21875.5c8.190652 4.350104 19.485294 7.15625 32.09375 7.15625 13.927809 0 26.283255-3.442975 34.5625-8.59375a.44506709.44506709 0 0 0 .1875-.5c-3.819215-14.900649-17.268662-25.96875-33.375-25.96875z" fill="url(#q)" stroke="url(#r)" stroke-width="1.909842" transform="matrix(.9980182 0 0 .9979653 54.750298 -17.441387)"/><path d="m38.714097 22.817865a7.3570485 5.3033009 0 1 1 -14.714097 0 7.3570485 5.3033009 0 1 1 14.714097 0z" fill="url(#s)" opacity=".6" transform="matrix(1.4329562 0 0 1.4328803 36.223175 -31.240403)"/></g><path d="m122.72062 43.549949c-9.33464 9.461891.48615 13.368497.48615 13.368497-4.25384-3.281359-15.31381-3.038294-15.31381-3.038294s3.64614-.972255 14.82766-10.330203z" fill="url(#t)" fill-rule="evenodd" opacity=".6"/><rect fill="url(#u)" height="69.031891" rx="1.94456" stroke="#000" stroke-width="1.906007" transform="matrix(.70712558 -.70708798 .70712558 .70708798 0 0)" width="14.584202" x="43.8255" y="130.89931"/><g fill-rule="evenodd"><path d="m127.24782 56.326758-5.38119-5.259368s-1.39963-3.833156 2.45921-7.631024c.3507 6.973953 5.09198 10.763478 5.09198 10.763478z" fill="url(#v)"/><path d="m62.35798 89.064933 8.175922.04419s-2.902651.516443-3.402951 4.551999c-.353553-4.065864-4.772971-4.596193-4.772971-4.596193z" fill="#fefefe" filter="url(#w)" opacity=".4" transform="matrix(.6875241 -.6874876 .6875241 .6874876 23.861388 39.569248)"/><path d="m62.35798 89.064933 8.175922.04419s-2.902651.516443-3.402951 4.551999c-.353553-4.065864-4.772971-4.596193-4.772971-4.596193z" fill="#fefefe" filter="url(#w)" opacity=".4" transform="matrix(.6875241 -.6874876 -.6875241 -.6874876 194.52843 210.22725)"/></g></g><path d="m45.287661 50.92853c-3.270789 2.431115-7.032346 3.76845-10.813301 4.087336 1.706079.739668 3.415915 1.966221 4.480314 4.018393-.663744.543337-1.049398 1.393349-.712372 2.220807l12.790202 31.37588c.413422 1.014867 1.616491 1.514164 2.634437 1.104933l5.106626-2.052182c1.018027-.409325 1.51846-1.619507 1.104932-2.634436l-12.746432-31.369752c-.34897-.856624-1.281526-1.219344-2.16569-1.106281-.613628-2.081769-.305227-4.006792.321284-5.644698z" fill="url(#x)" opacity=".2"/></g></svg>