<svg height="96" width="96" xmlns="http://www.w3.org/2000/svg" xmlns:xlink="http://www.w3.org/1999/xlink"><linearGradient id="a" gradientUnits="userSpaceOnUse" x1="36.357143" x2="36.357143" y1="6" y2="63.893143"><stop offset="0" stop-color="#fefefe"/><stop offset="1" stop-color="#fefefe" stop-opacity="0"/></linearGradient><radialGradient id="b" cx="48" cy="90.171875" gradientTransform="matrix(1.1573129 0 0 1.0037995 -7.551021 .148425)" gradientUnits="userSpaceOnUse" r="42"><stop offset="0" stop-color="#0a0a0a"/><stop offset="1" stop-color="#505050"/></radialGradient><linearGradient id="c" gradientUnits="userSpaceOnUse" x1="48" x2="48" y1="90" y2="5.987717"><stop offset="0" stop-color="#2c394c"/><stop offset="1" stop-color="#405566"/></linearGradient><linearGradient id="d" gradientTransform="matrix(1.0058652 0 0 .994169 100 0)" gradientUnits="userSpaceOnUse" x1="45.447727" x2="45.447727" y1="92.539597" y2="7.01654"><stop offset="0"/><stop offset="1" stop-opacity=".588235"/></linearGradient><linearGradient id="e" gradientTransform="matrix(1.0238095 0 0 1.0119048 -1.142857 -98.071429)" gradientUnits="userSpaceOnUse" x1="32.251034" x2="32.251034" xlink:href="#d" y1="6.131708" y2="90.238609"/><linearGradient id="f" gradientTransform="translate(0 -97)" gradientUnits="userSpaceOnUse" x1="32.251034" x2="32.251034" xlink:href="#d" y1="6.131708" y2="90.238609"/><linearGradient id="g" gradientUnits="userSpaceOnUse" x1="63.020077" x2="60.470547" y1="23.998117" y2="78.914917"><stop offset="0" stop-color="#297082"/><stop offset="1" stop-color="#fff"/></linearGradient><linearGradient id="h" gradientUnits="userSpaceOnUse" x1="8.825931" x2="86.825931" y1="46.319768" y2="46.319768"><stop offset="0" stop-color="#85ffcf"/><stop offset="1" stop-color="#fff" stop-opacity=".950192"/></linearGradient><g><g fill="url(#e)"><path d="m12-95.03125c-5.5110903 0-10.03125 4.52016-10.03125 10.03125v71c0 5.5110902 4.5201598 10.03125 10.03125 10.03125h72c5.51109 0 10.03125-4.5201597 10.03125-10.03125v-71c0-5.51109-4.52016-10.03125-10.03125-10.03125z" opacity=".08" transform="scale(1 -1)"/><path d="m12-94.03125c-4.971633 0-9.03125 4.059617-9.03125 9.03125v71c0 4.9716329 4.0596171 9.03125 9.03125 9.03125h72c4.971633 0 9.03125-4.059617 9.03125-9.03125v-71c0-4.971633-4.059617-9.03125-9.03125-9.03125z" opacity=".1" transform="scale(1 -1)"/><path d="m12-93c-4.4091333 0-8 3.590867-8 8v71c0 4.4091333 3.5908667 8 8 8h72c4.409133 0 8-3.5908667 8-8v-71c0-4.409133-3.590867-8-8-8z" opacity=".2" transform="scale(1 -1)"/><rect height="85" opacity=".3" rx="7" transform="scale(1 -1)" width="86" x="5" y="-92"/></g><rect fill="url(#f)" height="84" opacity=".45" rx="6" transform="scale(1 -1)" width="84" x="6" y="-91"/></g><rect fill="url(#c)" height="84" rx="6" width="84" x="6" y="6"/><path d="m12 6c-3.324 0-6 2.676-6 6v2 68 2c0 .334721.04135.6507.09375.96875.0487.295596.09704.596915.1875.875.00988.03038.020892.0636.03125.09375.098865.287771.2348802.547452.375.8125.1445918.273507.3156161.535615.5.78125s.3737765.473472.59375.6875c.439947.428056.94291.814526 1.5 1.09375.278545.139612.5734731.246947.875.34375-.2562018-.100222-.4867109-.236272-.71875-.375-.00741-.0044-.023866.0045-.03125 0-.031933-.0193-.062293-.04251-.09375-.0625-.120395-.0767-.2310226-.163513-.34375-.25-.1061728-.0808-.2132809-.161112-.3125-.25-.1779299-.161433-.3474596-.345388-.5-.53125-.1075789-.130255-.2183939-.265285-.3125-.40625-.025089-.03838-.038446-.08587-.0625-.125-.064763-.103032-.1302275-.204517-.1875-.3125-.1010083-.194706-.2056748-.415701-.28125-.625-.00796-.02181-.023589-.04055-.03125-.0625-.0318251-.09195-.0358045-.186831-.0625-.28125-.0303323-.106618-.0703894-.203031-.09375-.3125-.0728786-.341512-.125-.698205-.125-1.0625v-2-68-2c0-2.781848 2.2181517-5 5-5h2 68 2c2.781848 0 5 2.218152 5 5v2 68 2c0 .364295-.05212.720988-.125 1.0625-.04415.206893-.08838.397658-.15625.59375-.0077.02195-.0233.04069-.03125.0625-.06274.173739-.138383.367449-.21875.53125-.04158.0828-.07904.169954-.125.25-.0546.09721-.126774.18835-.1875.28125-.09411.140965-.204921.275995-.3125.40625-.143174.17445-.303141.346998-.46875.5-.01117.0102-.01998.02115-.03125.03125-.138386.125556-.285091.234436-.4375.34375-.102571.07315-.204318.153364-.3125.21875-.0074.0045-.02384-.0044-.03125 0-.232039.138728-.462548.274778-.71875.375.301527-.0968.596455-.204138.875-.34375.55709-.279224 1.060053-.665694 1.5-1.09375.219973-.214028.409366-.441865.59375-.6875s.355408-.507743.5-.78125c.14012-.265048.276135-.524729.375-.8125.01041-.03078.02133-.06274.03125-.09375.09046-.278085.1388-.579404.1875-.875.0524-.31805.09375-.634029.09375-.96875v-2-68-2c0-3.324-2.676-6-6-6z" fill="url(#a)" opacity=".35"/><path d="m12 90.662913c-3.324 0-6-2.697206-6-6.047546v-2.015848-68.538849-2.015848c0-.337374.04135-.655857.09375-.976427.0487-.297938.09704-.601645.1875-.881934.00988-.03062.020892-.0641.03125-.09449.098865-.2900541.2348802-.5517929.375-.8189412.1445918-.2756743.3156161-.5398593.5-.7874408s.3737765-.4772239.59375-.6929479c.439947-.431448.94291-.8209805 1.5-1.1024171.278545-.1407184.5734731-.2489039.875-.346474-.2562018.1010162-.4867109.2381443-.71875.3779716-.00741.00443-.023866-.00454-.03125 0-.031933.0194529-.062293.0428469-.09375.0629953-.120395.0773077-.2310226.1648087-.34375.251981-.1061728.0814403-.2132809.1623887-.3125.2519811-.1779299.1627122-.3474596.3481249-.5.5354597-.1075789.1312872-.2183939.2673872-.3125.4094693-.025089.0386841-.038446.0865504-.0625.1259905-.064763.1038484-.1302275.2061376-.1875.3149763-.1010083.1962489-.2056748.4189951-.28125.6299527-.00796.0219828-.023589.0408713-.03125.0629952-.0318251.0926787-.0358045.1883115-.0625.2834787-.0303323.1074629-.0703894.2046399-.09375.3149764-.0728786.3442182-.125.7037382-.125 1.0709192v2.015849 68.538848 2.015849c0 2.803892 2.2181517 5.039621 5 5.039621h2 68 2c2.781848 0 5-2.235729 5-5.039621v-2.015849-68.538848-2.015849c0-.367181-.05212-.726701-.125-1.0709192-.04415-.2085325-.08838-.4008092-.15625-.5984551-.0077-.0221239-.0233-.0410124-.03125-.0629952-.06274-.1751158-.138383-.3703608-.21875-.5354598-.04158-.0834561-.07904-.1713007-.125-.251981-.0546-.0979804-.126774-.1898426-.1875-.2834787-.09411-.1420821-.204921-.2781821-.3125-.4094693-.143174-.1758323-.303141-.3497477-.46875-.5039621-.01117-.0102808-.01998-.0213176-.03125-.0314976-.138386-.126551-.285091-.2362937-.4375-.346474-.102571-.07373-.204318-.1545793-.3125-.2204834-.0074-.00454-.02384.00443-.03125 0-.232039-.1398273-.462548-.2769554-.71875-.3779716.301527.097567.596455.2057556.875.346474.55709.2814366 1.060053.6709691 1.5 1.1024171.219973.215724.409366.4453664.59375.6929479s.355408.5117665.5.7874408c.14012.2671483.276135.5288871.375.8189382.01041.03102.02133.06324.03125.09449.09046.280289.1388.583996.1875.881934.0524.320573.09375.639056.09375.97643v2.015848 68.538849 2.015848c0 3.35034-2.676 6.047546-6 6.047546z" fill="url(#b)" opacity=".2"/><path d="m18.039188 77.548652c-3.787278-4.542061-6.567649-9.917278-8.084424-15.629379-1.4326761-6.981875-1.5826771-13.383091.0195951-19.453933 3.8957509-14.68581 15.3121459-25.408258 30.5367049-28.680526 21.131847-3.8559533 41.268628 8.426426 45.577202 29.92673 1.94801 10.089781-.02752 21.234254-5.15339 29.416579-1.731165 2.700969-4.570331 6.108364-5.089702 6.108364-1.217226-.682617-1.905435-1.536305-2.9139-2.569069 3.346656-4.188162 6.444233-9.042873 7.863746-13.1889 3.064986-9.135431 2.427016-18.327297-1.86234-26.832464-3.353937-6.650373-9.09072-12.389161-15.679247-15.684728-12.479886-4.912089-25.189683-4.481527-35.846435 3.083465-9.439367 7.060215-14.772117 19.70166-14.345841 29.9575.429446 7.828721 3.614309 15.634294 8.673993 21.258524l1.484764 1.650427c-.991881.956139-2.061187 1.918883-3.188346 2.646739-.174325 0-1.070896-.904197-1.99238-2.009329z" fill="url(#h)" stroke-width=".321493"/><g fill="#fff" transform="translate(6.332107 -1)"><path d="m30.072035 80.098511v1.234375q-.480469-.214844-.9375-.324219-.457031-.109375-.863281-.109375-.539063 0-.796875.148437-.257813.148438-.257813.460938 0 .234375.171875.367187.175781.128907.632813.222657l.640625.128906q.972656.195312 1.382812.59375.410156.398437.410156 1.132812 0 .964844-.574218 1.4375-.570313.46875-1.746094.46875-.554688 0-1.113281-.105468-.558594-.105469-1.117188-.3125v-1.269532q.558594.296875 1.078125.449219.523438.148438 1.007813.148438.492187 0 .753906-.164063.261719-.164062.261719-.46875 0-.273437-.179688-.421875-.175781-.148437-.707031-.265625l-.582031-.128906q-.875-.1875-1.28125-.597656-.402344-.410157-.402344-1.105469 0-.871094.5625-1.339844.5625-.46875 1.617187-.46875.480469 0 .988282.07422.507812.07031 1.050781.214843z"/><path d="m31.083754 79.914917h5.375v1.136719h-1.933594v4.695312h-1.503906v-4.695312h-1.9375z"/><path d="m40.146254 84.684448h-2.351563l-.371094 1.0625h-1.511718l2.160156-5.832031h1.792969l2.160156 5.832031h-1.511719zm-1.976563-1.082031h1.597656l-.796875-2.320313z"/><path d="m47.419691 85.426636q-.414062.214843-.863281.324218-.449219.109375-.9375.109375-1.457031 0-2.308594-.8125-.851562-.816406-.851562-2.210937 0-1.398438.851562-2.210938.851563-.816406 2.308594-.816406.488281 0 .9375.109375.449219.109375.863281.324219v1.207031q-.417969-.285156-.824219-.417969-.40625-.132812-.855468-.132812-.804688 0-1.265625.515625-.460938.515625-.460938 1.421875 0 .902344.460938 1.417969.460937.515625 1.265625.515625.449218 0 .855468-.132813.40625-.132812.824219-.417969z"/><path d="m48.669691 79.914917h4.058594v1.136719h-2.554688v1.085937h2.402344v1.136719h-2.402344v1.335937h2.640625v1.136719h-4.144531z"/><path d="m56.27516 82.500854q.472656 0 .675781-.175781.207031-.175781.207031-.578125 0-.398437-.207031-.570312-.203125-.171875-.675781-.171875h-.632813v1.496093zm-.632813 1.039063v2.207031h-1.503906v-5.832031h2.296875q1.152344 0 1.6875.386719.539063.386718.539063 1.222656 0 .578125-.28125.949219-.277344.371093-.839844.546875.308594.07031.550781.320312.246094.246094.496094.75l.816406 1.65625h-1.601562l-.710938-1.449219q-.214844-.4375-.4375-.597656-.21875-.160156-.585937-.160156z"/></g><path d="m54.503503 57.72217c3.231819-7.903954-.894926-13.483339-7.570102-13.673935l.0014-20.512588c3.273128.02644 6.640906.427273 9.137349 1.164487 13.369615 3.990964 20.460093 15.464425 19.80108 28.477128-.596141 6.264693-3.722842 13.121119-7.007062 17.884117z" fill="url(#g)" opacity=".8" stroke-width=".33842"/><path d="m58.829474 51.311183a10 10 0 0 1 -10 10 10 10 0 0 1 -10-10 10 10 0 0 1 10-10 10 10 0 0 1 10 10z" fill="#1a2a3a"/><path d="m56.728404 57.339131s12.193665 12.180512 13.796258 15.640008c-3.480844-1.185402-15.911073-13.525192-15.911073-13.525192z" fill="#37d7bb"/><g fill="#fffffe"><path d="m77 50h5v2h-5z"/><path d="m14 50h5v2h-5z"/><path d="m-23.091595 46.25515h5v2h-5z" transform="rotate(-90)"/><path d="m-41.648655-4.632276h5v2h-5z" transform="matrix(-.70710678 -.70710678 .70710678 -.70710678 0 0)"/><path d="m-31.217142-72.498093h5v2h-5z" transform="matrix(-.70710678 .70710678 -.70710678 -.70710678 0 0)"/></g><path d="m-105.78225-4.641853h5v2h-5z" fill="#34b4f5" transform="matrix(-.70710678 -.70710678 .70710678 -.70710678 0 0)"/><path d="m32.965504-72.803421h5v2h-5z" fill="#34b4f5" transform="matrix(-.70710678 .70710678 -.70710678 -.70710678 0 0)"/></svg>