<svg height="96" width="96" xmlns="http://www.w3.org/2000/svg" xmlns:xlink="http://www.w3.org/1999/xlink"><linearGradient id="a"><stop offset="0" stop-color="#fefefe"/><stop offset="1" stop-color="#fefefe" stop-opacity="0"/></linearGradient><linearGradient id="b" gradientUnits="userSpaceOnUse" x1="36.357143" x2="36.357143" xlink:href="#a" y1="6" y2="63.893143"/><linearGradient id="c" gradientUnits="userSpaceOnUse" x1="48" x2="48" y1="90" y2="5.987717"><stop offset="0" stop-color="#b4b4b4"/><stop offset="1" stop-color="#e6e6e6"/></linearGradient><linearGradient id="d" gradientUnits="userSpaceOnUse" x1="43.03676446513" x2="43.03676446513" y1="11.9705884" y2="84.33264926334"><stop offset="0" stop-color="#919191"/><stop offset="1" stop-color="#fdfdfd"/></linearGradient><radialGradient id="e" cx="48" cy="90.171875" gradientTransform="matrix(1.1573129 0 0 .99590774 -7.551021 .197132)" gradientUnits="userSpaceOnUse" r="42" xlink:href="#a"/><linearGradient id="f" gradientTransform="matrix(1.0058652 0 0 .994169 100 0)" gradientUnits="userSpaceOnUse" x1="45.447727" x2="45.447727" y1="92.539597" y2="7.01654"><stop offset="0"/><stop offset="1" stop-opacity=".588235"/></linearGradient><linearGradient id="g" gradientTransform="matrix(1.0238095 0 0 1.0119048 -1.142857 -98.071429)" gradientUnits="userSpaceOnUse" x1="32.251034" x2="32.251034" xlink:href="#f" y1="6.131708" y2="90.238609"/><linearGradient id="h" gradientTransform="translate(0 -97)" gradientUnits="userSpaceOnUse" x1="32.251034" x2="32.251034" xlink:href="#f" y1="6.131708" y2="90.238609"/><radialGradient id="i" cx="47.098362" cy="78.286942" gradientTransform="matrix(1.3830053 -.00000001 0 1.3123934 -18.038924 -24.218731)" gradientUnits="userSpaceOnUse" r="38.957481"><stop offset="0" stop-color="#5b5b97"/><stop offset="1" stop-color="#1b1b43"/></radialGradient><linearGradient id="j" gradientUnits="userSpaceOnUse" x1="61.294735" x2="117.36092" xlink:href="#k" y1="121.32806" y2="18.868103"/><linearGradient id="k"><stop offset="0"/><stop offset="1" stop-opacity="0"/></linearGradient><filter id="l" color-interpolation-filters="sRGB"><feGaussianBlur stdDeviation=".91605611"/></filter><linearGradient id="m" gradientUnits="userSpaceOnUse" x1="61.294735" x2="104.6299" xlink:href="#k" y1="121.32806" y2="41.346642"/><linearGradient id="n" gradientUnits="userSpaceOnUse" x1="136.41356" x2="149.52968" y1="115.49392" y2="115.49392"><stop offset="0" stop-color="#e6605b"/><stop offset="1" stop-color="#f08682"/></linearGradient><filter id="o" color-interpolation-filters="sRGB" height="1.333333" width="1.857143" x="-.428571" y="-.166667"><feGaussianBlur stdDeviation=".55242721"/></filter><filter id="p" color-interpolation-filters="sRGB" height="1.353367" width="1.366887" x="-.183443" y="-.176683"><feGaussianBlur stdDeviation=".65925"/></filter><linearGradient id="q" gradientTransform="matrix(1.0893815 0 0 1 -13.275943 0)" gradientUnits="userSpaceOnUse" x1="137.40625" x2="148.53125" xlink:href="#r" y1="116.46875" y2="116.46875"/><linearGradient id="r"><stop offset="0"/><stop offset=".69999999" stop-opacity=".498039"/><stop offset="1" stop-opacity="0"/></linearGradient><linearGradient id="s" gradientUnits="userSpaceOnUse" x1="112.26657" x2="126.26657" y1="60" y2="60"><stop offset="0" stop-color="#945a00"/><stop offset=".25" stop-color="#e28e0a"/><stop offset=".30000001" stop-color="#ffba14"/><stop offset=".69999999" stop-color="#f3ac00"/><stop offset=".75" stop-color="#ffd314"/><stop offset="1" stop-color="#ffed94"/></linearGradient><linearGradient id="t" gradientUnits="userSpaceOnUse" x1="119.26657" x2="119.26657" y1=".000002" y2="120.01752"><stop offset="0"/><stop offset=".06588447"/><stop offset=".07" stop-color="#ad5f1b"/><stop offset=".1913653" stop-color="#ad601a"/><stop offset=".20983393" stop-color="#785800"/><stop offset="1" stop-color="#785700"/></linearGradient><linearGradient id="u" gradientUnits="userSpaceOnUse" x1="117.51659" x2="121.07909" y1="4.921872" y2="4.921872"><stop offset="0"/><stop offset=".5" stop-color="#7d7d7d"/><stop offset="1"/></linearGradient><linearGradient id="v" gradientUnits="userSpaceOnUse" x1="113.25461" x2="125.2617" y1="17.043356" y2="17.043356"><stop offset="0" stop-color="#da8539"/><stop offset="1" stop-color="#fadfc7"/></linearGradient><linearGradient id="w" gradientTransform="matrix(1 0 0 1.2653524 -23.73343 -54.364173)" gradientUnits="userSpaceOnUse" x1="146.10596" x2="146.07562" xlink:href="#a" y1="118.94019" y2="66"/><linearGradient id="x" gradientTransform="matrix(1 0 0 1.2653524 -29.85843 -54.364173)" gradientUnits="userSpaceOnUse" x1="146.10596" x2="146.07562" xlink:href="#a" y1="118.94019" y2="66"/><filter id="y" color-interpolation-filters="sRGB" height="1.227422" width="1.863226" x="-.431613" y="-.113711"><feGaussianBlur stdDeviation=".73914765"/></filter><filter id="z" color-interpolation-filters="sRGB" height="1.2988" width="2.219592" x="-.609796" y="-.1494"><feGaussianBlur stdDeviation=".77812506"/></filter><linearGradient id="A" gradientUnits="userSpaceOnUse" x1="136" x2="150" y1="106" y2="106"><stop offset="0" stop-color="#404040"/><stop offset=".2" stop-color="#808080"/><stop offset=".69999999" stop-color="#efefef"/><stop offset="1" stop-color="#dcdcdc"/></linearGradient><linearGradient id="B" gradientUnits="userSpaceOnUse" x1="136" x2="150" y1="106" y2="106"><stop offset="0" stop-color="#444542"/><stop offset="1" stop-color="#71746e"/></linearGradient><linearGradient id="C" gradientUnits="userSpaceOnUse" spreadMethod="reflect" x1="143.000002" x2="149.000002" xlink:href="#r" y1="100.500001" y2="100.500001"/><linearGradient id="D" gradientUnits="userSpaceOnUse" spreadMethod="reflect" x1="143.000002" x2="149.000002" xlink:href="#E" y1="101.500001" y2="101.500001"/><linearGradient id="E"><stop offset="0" stop-color="#fefefe"/><stop offset=".69999999" stop-color="#fefefe" stop-opacity=".498039"/><stop offset="1" stop-color="#fefefe" stop-opacity="0"/></linearGradient><linearGradient id="F" gradientUnits="userSpaceOnUse" spreadMethod="reflect" x1="143.000002" x2="149.000002" xlink:href="#r" y1="102.500001" y2="102.500001"/><linearGradient id="G" gradientUnits="userSpaceOnUse" spreadMethod="reflect" x1="143.000002" x2="149.000002" xlink:href="#E" y1="103.500001" y2="103.500001"/><linearGradient id="H" gradientUnits="userSpaceOnUse" spreadMethod="reflect" x1="143.000002" x2="149.000002" xlink:href="#r" y1="108.500001" y2="108.500001"/><linearGradient id="I" gradientUnits="userSpaceOnUse" spreadMethod="reflect" x1="143.000002" x2="149.000002" xlink:href="#E" y1="109.500001" y2="109.500001"/><linearGradient id="J" gradientUnits="userSpaceOnUse" spreadMethod="reflect" x1="143.000002" x2="149.000002" xlink:href="#r" y1="110.500001" y2="110.500001"/><linearGradient id="K" gradientUnits="userSpaceOnUse" spreadMethod="reflect" x1="143.000002" x2="149.000002" xlink:href="#E" y1="111.500001" y2="111.500001"/><linearGradient id="L" gradientUnits="userSpaceOnUse" spreadMethod="repeat" x1="137" x2="139.03125" y1="106" y2="106"><stop offset="0" stop-color="#3d3d3d"/><stop offset="1" stop-color="#fefefe"/></linearGradient><filter id="M" color-interpolation-filters="sRGB" height="1.271477" width="3.069921" x="-1.034961" y="-.135738"><feGaussianBlur stdDeviation=".9498173"/></filter><filter id="N" color-interpolation-filters="sRGB" height="1.27541" width="2.866667" x="-.933333" y="-.137705"><feGaussianBlur stdDeviation=".92807767"/></filter><g><g fill="url(#g)"><path d="m12-95.03125c-5.5110903 0-10.03125 4.52016-10.03125 10.03125v71c0 5.5110902 4.5201598 10.03125 10.03125 10.03125h72c5.51109 0 10.03125-4.5201597 10.03125-10.03125v-71c0-5.51109-4.52016-10.03125-10.03125-10.03125z" opacity=".08" transform="scale(1 -1)"/><path d="m12-94.03125c-4.971633 0-9.03125 4.059617-9.03125 9.03125v71c0 4.9716329 4.0596171 9.03125 9.03125 9.03125h72c4.971633 0 9.03125-4.059617 9.03125-9.03125v-71c0-4.971633-4.059617-9.03125-9.03125-9.03125z" opacity=".1" transform="scale(1 -1)"/><path d="m12-93c-4.4091333 0-8 3.590867-8 8v71c0 4.4091333 3.5908667 8 8 8h72c4.409133 0 8-3.5908667 8-8v-71c0-4.409133-3.590867-8-8-8z" opacity=".2" transform="scale(1 -1)"/><rect height="85" opacity=".3" rx="7" transform="scale(1 -1)" width="86" x="5" y="-92"/></g><rect fill="url(#h)" height="84" opacity=".45" rx="6" transform="scale(1 -1)" width="84" x="6" y="-91"/></g><rect fill="url(#i)" height="78.516495" rx="5.852768" ry="6.173287" width="77.914963" x="8.140881" y="8.254433"/><path d="m20.530699 73.784698h11.793104v4.889823h-11.793104z" fill="#fefefe" opacity=".5"/><path d="m20.530699 63.784695h54.938602v4.889823h-54.938602z" fill="#fefefe" opacity=".5"/><path d="m14 8.25c-3.242433 0-5.84375 2.7675-5.84375 6.1875v49.0625c18.824054-13.858898 45.811664-23.793657 77.90625-21.78125v-27.28125c0-3.420001-2.63257-6.1875-5.875-6.1875z" fill="#d9c6ed" opacity=".12"/><path d="m19 13c-3.289406 0-6 2.710594-6 6v58c0 3.289406 2.710594 6 6 6h58c3.289406 0 6-2.710594 6-6v-58c0-3.289406-2.710594-6-6-6zm0 4h58c1.142594 0 2 .857406 2 2v58c0 1.142594-.857406 2-2 2h-58c-1.142594 0-2-.857406-2-2v-58c0-1.142594.857406-2 2-2z" opacity=".15"/><path d="m17 14c-1.662 0-3 1.338-3 3v62c0 1.662 1.338 3 3 3h62c1.662 0 3-1.338 3-3v-62c0-1.662-1.338-3-3-3zm0 1.9375h62c.618163 0 1.0625.444337 1.0625 1.0625v62c0 .618163-.444337 1.0625-1.0625 1.0625h-62c-.618163 0-1.0625-.444337-1.0625-1.0625v-62c0-.618163.444337-1.0625 1.0625-1.0625z" opacity=".3"/><path d="m17 14c-1.662 0-3 1.338-3 3v62c0 1.662 1.338 3 3 3h62c1.662 0 3-1.338 3-3v-62c0-1.662-1.338-3-3-3zm0 .96875h62c1.140081 0 2.03125.891169 2.03125 2.03125v62c0 1.140081-.891169 2.03125-2.03125 2.03125h-62c-1.140081 0-2.03125-.891169-2.03125-2.03125v-62c0-1.140081.891169-2.03125 2.03125-2.03125z" opacity=".6"/><g><path d="m12 6c-3.324 0-6 2.676-6 6v72c0 3.324 2.676 6 6 6h72c3.324 0 6-2.676 6-6v-72c0-3.324-2.676-6-6-6zm5 7h62c2.216001 0 4 1.784 4 4v62c.000001 2.216001-1.784 4-4 4h-62c-2.215999.000001-4-1.784-4-4v-62c0-2.215999 1.784-4 4-4z" fill="url(#c)"/><path d="m12 6c-3.324 0-6 2.676-6 6v2 68 2c0 .334721.04135.6507.09375.96875.0487.295596.09704.596915.1875.875.00988.03038.020892.0636.03125.09375.098865.287771.2348802.547452.375.8125.1445918.273507.3156161.535615.5.78125s.3737765.473472.59375.6875c.439947.428056.94291.814526 1.5 1.09375.278545.139612.5734731.246947.875.34375-.2562018-.100222-.4867109-.236272-.71875-.375-.00741-.0044-.023866.0045-.03125 0-.031933-.0193-.062293-.04251-.09375-.0625-.120395-.0767-.2310226-.163513-.34375-.25-.1061728-.0808-.2132809-.161112-.3125-.25-.1779299-.161433-.3474596-.345388-.5-.53125-.1075789-.130255-.2183939-.265285-.3125-.40625-.025089-.03838-.038446-.08587-.0625-.125-.064763-.103032-.1302275-.204517-.1875-.3125-.1010083-.194706-.2056748-.415701-.28125-.625-.00796-.02181-.023589-.04055-.03125-.0625-.0318251-.09195-.0358045-.186831-.0625-.28125-.0303323-.106618-.0703894-.203031-.09375-.3125-.0728786-.341512-.125-.698205-.125-1.0625v-2-68-2c0-2.781848 2.2181517-5 5-5h2 68 2c2.781848 0 5 2.218152 5 5v2 68 2c0 .364295-.05212.720988-.125 1.0625-.04415.206893-.08838.397658-.15625.59375-.0077.02195-.0233.04069-.03125.0625-.06274.173739-.138383.367449-.21875.53125-.04158.0828-.07904.169954-.125.25-.0546.09721-.126774.18835-.1875.28125-.09411.140965-.204921.275995-.3125.40625-.143174.17445-.303141.346998-.46875.5-.01117.0102-.01998.02115-.03125.03125-.138386.125556-.285091.234436-.4375.34375-.102571.07315-.204318.153364-.3125.21875-.0074.0045-.02384-.0044-.03125 0-.232039.138728-.462548.274778-.71875.375.301527-.0968.596455-.204138.875-.34375.55709-.279224 1.060053-.665694 1.5-1.09375.219973-.214028.409366-.441865.59375-.6875s.355408-.507743.5-.78125c.14012-.265048.276135-.524729.375-.8125.01041-.03078.02133-.06274.03125-.09375.09046-.278085.1388-.579404.1875-.875.0524-.31805.09375-.634029.09375-.96875v-2-68-2c0-3.324-2.676-6-6-6z" fill="url(#b)" opacity=".5"/><path d="m17 12c-2.752703 0-5 2.247297-5 5v62c0 2.752703 2.247298 5 5 5h62c2.752703 0 5.000001-2.247297 5-5v-62c0-2.752703-2.247297-5-5-5zm0 2h62c1.679298 0 3 1.320703 3 3v62c.000001 1.679297-1.320703 3-3 3h-62c-1.679296 0-3-1.320703-3-3v-62c0-1.679297 1.320703-3 3-3z" fill="url(#d)"/><path d="m12 90c-3.324 0-6-2.676-6-6v-2-68-2c0-.334721.04135-.6507.09375-.96875.0487-.295596.09704-.596915.1875-.875.00988-.03038.020892-.0636.03125-.09375.098865-.287771.2348802-.547452.375-.8125.1445918-.273507.3156161-.535615.5-.78125s.3737765-.473472.59375-.6875c.439947-.428056.94291-.814526 1.5-1.09375.278545-.139612.5734731-.246947.875-.34375-.2562018.100222-.4867109.236272-.71875.375-.00741.0044-.023866-.0045-.03125 0-.031933.0193-.062293.04251-.09375.0625-.120395.0767-.2310226.163513-.34375.25-.1061728.0808-.2132809.161112-.3125.25-.1779299.161433-.3474596.345388-.5.53125-.1075789.130255-.2183939.265285-.3125.40625-.025089.03838-.038446.08587-.0625.125-.064763.103032-.1302275.204517-.1875.3125-.1010083.194706-.2056748.415701-.28125.625-.00796.02181-.023589.04055-.03125.0625-.0318251.09195-.0358045.186831-.0625.28125-.0303323.106618-.0703894.203031-.09375.3125-.0728786.341512-.125.698205-.125 1.0625v2 68 2c0 2.781848 2.2181517 5 5 5h2 68 2c2.781848 0 5-2.218152 5-5v-2-68-2c0-.364295-.05212-.720988-.125-1.0625-.04415-.206893-.08838-.397658-.15625-.59375-.0077-.02195-.0233-.04069-.03125-.0625-.06274-.173739-.138383-.367449-.21875-.53125-.04158-.0828-.07904-.169954-.125-.25-.0546-.09721-.126774-.18835-.1875-.28125-.09411-.140965-.204921-.275995-.3125-.40625-.143174-.17445-.303141-.346998-.46875-.5-.01117-.0102-.01998-.02115-.03125-.03125-.138386-.125556-.285091-.234436-.4375-.34375-.102571-.07315-.204318-.153364-.3125-.21875-.0074-.0045-.02384.0044-.03125 0-.232039-.138728-.462548-.274778-.71875-.375.301527.0968.596455.204138.875.34375.55709.279224 1.060053.665694 1.5 1.09375.219973.214028.409366.441865.59375.6875s.355408.507743.5.78125c.14012.265048.276135.524729.375.8125.01041.03078.02133.06274.03125.09375.09046.278085.1388.579404.1875.875.0524.31805.09375.634029.09375.96875v2 68 2c0 3.324-2.676 6-6 6z" fill="url(#e)" opacity=".4"/></g><g transform="translate(.000116 -.000035)"><path d="m118.375 11.03125c-.52336-.06895-1.05794-.0102-1.5625.125-1.00643.269671-1.88554.918974-2.4375 1.875l-2.0625 3.5625a1.0491519 1.0491519 0 0 0 -.84375.53125l-9.5 16.46875-36 62.34375a1.0491519 1.0491519 0 0 0 -.09375.25l-6.375 24.03125a1.0491519 1.0491519 0 0 0 1.75 1.03125l17.625-17.53125a1.0491519 1.0491519 0 0 0 .15625-.21875l36-62.34375 9.5-16.46875a1.0491519 1.0491519 0 0 0 .0625-.90625l2.09375-3.625c1.11127-1.924777.4576-4.419069-1.46875-5.53125l-5.3125-3.0625c-.47927-.276705-1.00789-.462302-1.53125-.53125z" fill="url(#j)" filter="url(#l)" opacity=".3" transform="matrix(.7141758 .1253856 -.1253856 .7141758 2.656947 -15.447757)"/><path d="m118.375 11.03125c-.52336-.06895-1.05794-.0102-1.5625.125-1.00643.269671-1.88554.918974-2.4375 1.875l-2.0625 3.5625a1.0491519 1.0491519 0 0 0 -.84375.53125l-9.5 16.46875-36 62.34375a1.0491519 1.0491519 0 0 0 -.09375.25l-6.375 24.03125a1.0491519 1.0491519 0 0 0 1.75 1.03125l17.625-17.53125a1.0491519 1.0491519 0 0 0 .15625-.21875l36-62.34375 9.5-16.46875a1.0491519 1.0491519 0 0 0 .0625-.90625l2.09375-3.625c1.11127-1.924777.4576-4.419069-1.46875-5.53125l-5.3125-3.0625c-.47927-.276705-1.00789-.462302-1.53125-.53125z" fill="url(#m)" filter="url(#l)" opacity=".5" transform="matrix(.6274055 .3634982 -.3634982 .6274055 36.873047 -19.138811)"/><g transform="matrix(-.6279542 -.3625495 .3625495 -.6279542 120.29091 131.31477)"><rect fill="url(#n)" height="16" rx="3" stroke="#df453f" stroke-linejoin="round" stroke-width="1.379122" width="12.116117" x="136.91356" y="107.49392"/><path d="m141.24458 118.1889a1.5467962 3.9774759 0 1 1 -3.09359 0 1.5467962 3.9774759 0 1 1 3.09359 0z" fill="#701300" filter="url(#o)" opacity=".3" transform="matrix(1.8857143 0 0 1 -123.51329 -1.944544)"/><path d="m146.31251 113.125c-.85193 9.50672-3.9375 8.3125-6.5 8.9375 4.07634.0625 8.625-.0625 8.625-.0625-2.4375-.5625-1.8125-2.375-2.125-8.875z" fill="#fefefe" fill-rule="evenodd" filter="url(#p)" opacity=".8"/><path d="m136.41188 115.96875h12.119369v1h-12.119369z" fill="url(#q)" opacity=".2"/><g transform="translate(23.73343)"><path d="m112.76657 24.500002 6.5-23.9999996 6.5 23.9999996v71.999997h-13z" fill="url(#s)" stroke="url(#t)" stroke-linejoin="round" stroke-width="1.379122"/><path d="m117.69336 8.0716529 3.14265.022097-1.58237-5.7913293" fill="url(#u)" fill-rule="evenodd"/><path d="m117.73213 8.0901517-3.76756 13.9098483s-.46779 1.653465-.698 2.60832c-.19122.64228 1.95886 1.611283 3.0182-1.60832 1.21534 4.513809 5.57589 3.437953 5.98831.01105.3425 1.701476 1.75396 2.949961 2.98863 1.521937-.23478-.908743-.43641-1.521937-.43641-1.521937l-4.02168-14.9208973h-3.07149z" fill="url(#v)" fill-rule="evenodd"/><path d="m122.37252 96.304856v-67.217294" fill="none" opacity=".5" stroke="url(#w)" stroke-width="1.379122"/><path d="m116.24752 96.304856v-67.217294" fill="none" opacity=".5" stroke="url(#x)" stroke-width="1.379122"/><path d="m118.7044 5.9798798-4.77297 17.8986412 1.98873-.839689z" fill="#ac4311" fill-rule="evenodd" filter="url(#y)" opacity=".4"/><path d="m113.07908 24.624995s1.48667 1.76491 3.25-1.53125c2 5.25 5.16858 2.087146 5.93749-.03125 1.375 3.4375 3.12501 1.4375 3.12501 1.4375" fill="none" opacity=".15" stroke="#4d2600" stroke-width="1.379122"/><path d="m144.06251 8.9374939-.375 12.5000011 3.0625-.3125z" fill="#fefefe" fill-rule="evenodd" filter="url(#z)" opacity=".8" transform="matrix(1.122449 0 0 1.345 -41.70282 -4.770935)"/></g><path d="m136.5 96.5h13v19h-13z" fill="url(#A)" stroke="url(#B)" stroke-linejoin="round" stroke-width="1.379122"/><path d="m137 100h12v1h-12z" fill="url(#C)" opacity=".4"/><path d="m137 101h12v1h-12z" fill="url(#D)" opacity=".6"/><path d="m137 102h12v1h-12z" fill="url(#F)" opacity=".4"/><path d="m137 103h12v1h-12z" fill="url(#G)" opacity=".6"/><path d="m137 108h12v1h-12z" fill="url(#H)" opacity=".4"/><path d="m137 109h12v1h-12z" fill="url(#I)" opacity=".6"/><path d="m137 110h12v1h-12z" fill="url(#J)" opacity=".4"/><path d="m137 111h12v1h-12z" fill="url(#K)" opacity=".6"/><path d="m137 104h12v4h-12z" fill="url(#L)" opacity=".3"/><path d="m140.00001 106.07969a1.10128 8.3968973 0 1 1 -2.20256 0 1.10128 8.3968973 0 1 1 2.20256 0z" filter="url(#M)" opacity=".6" transform="matrix(1.2553848 0 0 1 -35.75387 0)"/><path d="m147.34339 106.03549a1.193245 8.0875489 0 1 1 -2.38649 0 1.193245 8.0875489 0 1 1 2.38649 0z" fill="#fefefe" filter="url(#N)" opacity=".8"/></g></g></svg>