<svg height="96" width="96" xmlns="http://www.w3.org/2000/svg" xmlns:xlink="http://www.w3.org/1999/xlink"><linearGradient id="a"><stop offset="0" stop-color="#fefefe"/><stop offset="1" stop-color="#fefefe" stop-opacity="0"/></linearGradient><linearGradient id="b" gradientUnits="userSpaceOnUse" x1="36.357143" x2="36.357143" xlink:href="#a" y1="6" y2="63.893143"/><filter id="c" color-interpolation-filters="sRGB" height="1.384" width="1.384" x="-.192" y="-.192"><feGaussianBlur stdDeviation="5.28"/></filter><radialGradient id="d" cx="48" cy="90.171875" gradientTransform="matrix(1.1573129 0 0 .99590774 -7.551021 .197132)" gradientUnits="userSpaceOnUse" r="42"><stop offset="0" stop-color="#8e2710"/><stop offset="1" stop-color="#dd7b32"/></radialGradient><clipPath id="e"><rect height="84" rx="6" width="84" x="6" y="6"/></clipPath><linearGradient id="f" gradientUnits="userSpaceOnUse" x1="48" x2="48" y1="90" y2="5.987717"><stop offset="0" stop-color="#fe7700"/><stop offset="1" stop-color="#ffa100"/></linearGradient><linearGradient id="g" gradientTransform="matrix(1.0058652 0 0 .994169 100 0)" gradientUnits="userSpaceOnUse" x1="45.447727" x2="45.447727" y1="92.539597" y2="7.01654"><stop offset="0"/><stop offset="1" stop-opacity=".588235"/></linearGradient><linearGradient id="h" gradientTransform="matrix(1.0238095 0 0 1.0119048 -1.142857 -98.071429)" gradientUnits="userSpaceOnUse" x1="32.251034" x2="32.251034" xlink:href="#g" y1="6.131708" y2="90.238609"/><linearGradient id="i" gradientTransform="translate(0 -97)" gradientUnits="userSpaceOnUse" x1="32.251034" x2="32.251034" xlink:href="#g" y1="6.131708" y2="90.238609"/><linearGradient id="j" gradientUnits="userSpaceOnUse" x1="48" x2="48" xlink:href="#a" y1="20.220806" y2="138.66119"/><g><g fill="url(#h)"><path d="m12-95.03125c-5.5110903 0-10.03125 4.52016-10.03125 10.03125v71c0 5.5110902 4.5201598 10.03125 10.03125 10.03125h72c5.51109 0 10.03125-4.5201597 10.03125-10.03125v-71c0-5.51109-4.52016-10.03125-10.03125-10.03125z" opacity=".08" transform="scale(1 -1)"/><path d="m12-94.03125c-4.971633 0-9.03125 4.059617-9.03125 9.03125v71c0 4.9716329 4.0596171 9.03125 9.03125 9.03125h72c4.971633 0 9.03125-4.059617 9.03125-9.03125v-71c0-4.971633-4.059617-9.03125-9.03125-9.03125z" opacity=".1" transform="scale(1 -1)"/><path d="m12-93c-4.4091333 0-8 3.590867-8 8v71c0 4.4091333 3.5908667 8 8 8h72c4.409133 0 8-3.5908667 8-8v-71c0-4.409133-3.590867-8-8-8z" opacity=".2" transform="scale(1 -1)"/><rect height="85" opacity=".3" rx="7" transform="scale(1 -1)" width="86" x="5" y="-92"/></g><rect fill="url(#i)" height="84" opacity=".45" rx="6" transform="scale(1 -1)" width="84" x="6" y="-91"/></g><rect fill="url(#f)" height="84" rx="6" width="84" x="6" y="6"/><path d="m12 90c-3.324 0-6-2.676-6-6v-2-68-2c0-.334721.04135-.6507.09375-.96875.0487-.295596.09704-.596915.1875-.875.00988-.03038.020892-.0636.03125-.09375.098865-.287771.2348802-.547452.375-.8125.1445918-.273507.3156161-.535615.5-.78125s.3737765-.473472.59375-.6875c.439947-.428056.94291-.814526 1.5-1.09375.278545-.139612.5734731-.246947.875-.34375-.2562018.100222-.4867109.236272-.71875.375-.00741.0044-.023866-.0045-.03125 0-.031933.0193-.062293.04251-.09375.0625-.120395.0767-.2310226.163513-.34375.25-.1061728.0808-.2132809.161112-.3125.25-.1779299.161433-.3474596.345388-.5.53125-.1075789.130255-.2183939.265285-.3125.40625-.025089.03838-.038446.08587-.0625.125-.064763.103032-.1302275.204517-.1875.3125-.1010083.194706-.2056748.415701-.28125.625-.00796.02181-.023589.04055-.03125.0625-.0318251.09195-.0358045.186831-.0625.28125-.0303323.106618-.0703894.203031-.09375.3125-.0728786.341512-.125.698205-.125 1.0625v2 68 2c0 2.781848 2.2181517 5 5 5h2 68 2c2.781848 0 5-2.218152 5-5v-2-68-2c0-.364295-.05212-.720988-.125-1.0625-.04415-.206893-.08838-.397658-.15625-.59375-.0077-.02195-.0233-.04069-.03125-.0625-.06274-.173739-.138383-.367449-.21875-.53125-.04158-.0828-.07904-.169954-.125-.25-.0546-.09721-.126774-.18835-.1875-.28125-.09411-.140965-.204921-.275995-.3125-.40625-.143174-.17445-.303141-.346998-.46875-.5-.01117-.0102-.01998-.02115-.03125-.03125-.138386-.125556-.285091-.234436-.4375-.34375-.102571-.07315-.204318-.153364-.3125-.21875-.0074-.0045-.02384.0044-.03125 0-.232039-.138728-.462548-.274778-.71875-.375.301527.0968.596455.204138.875.34375.55709.279224 1.060053.665694 1.5 1.09375.219973.214028.409366.441865.59375.6875s.355408.507743.5.78125c.14012.265048.276135.524729.375.8125.01041.03078.02133.06274.03125.09375.09046.278085.1388.579404.1875.875.0524.31805.09375.634029.09375.96875v2 68 2c0 3.324-2.676 6-6 6z" fill="url(#d)" opacity=".2"/><path d="m12 6c-3.324 0-6 2.676-6 6v2 68 2c0 .334721.04135.6507.09375.96875.0487.295596.09704.596915.1875.875.00988.03038.020892.0636.03125.09375.098865.287771.2348802.547452.375.8125.1445918.273507.3156161.535615.5.78125s.3737765.473472.59375.6875c.439947.428056.94291.814526 1.5 1.09375.278545.139612.5734731.246947.875.34375-.2562018-.100222-.4867109-.236272-.71875-.375-.00741-.0044-.023866.0045-.03125 0-.031933-.0193-.062293-.04251-.09375-.0625-.120395-.0767-.2310226-.163513-.34375-.25-.1061728-.0808-.2132809-.161112-.3125-.25-.1779299-.161433-.3474596-.345388-.5-.53125-.1075789-.130255-.2183939-.265285-.3125-.40625-.025089-.03838-.038446-.08587-.0625-.125-.064763-.103032-.1302275-.204517-.1875-.3125-.1010083-.194706-.2056748-.415701-.28125-.625-.00796-.02181-.023589-.04055-.03125-.0625-.0318251-.09195-.0358045-.186831-.0625-.28125-.0303323-.106618-.0703894-.203031-.09375-.3125-.0728786-.341512-.125-.698205-.125-1.0625v-2-68-2c0-2.781848 2.2181517-5 5-5h2 68 2c2.781848 0 5 2.218152 5 5v2 68 2c0 .364295-.05212.720988-.125 1.0625-.04415.206893-.08838.397658-.15625.59375-.0077.02195-.0233.04069-.03125.0625-.06274.173739-.138383.367449-.21875.53125-.04158.0828-.07904.169954-.125.25-.0546.09721-.126774.18835-.1875.28125-.09411.140965-.204921.275995-.3125.40625-.143174.17445-.303141.346998-.46875.5-.01117.0102-.01998.02115-.03125.03125-.138386.125556-.285091.234436-.4375.34375-.102571.07315-.204318.153364-.3125.21875-.0074.0045-.02384-.0044-.03125 0-.232039.138728-.462548.274778-.71875.375.301527-.0968.596455-.204138.875-.34375.55709-.279224 1.060053-.665694 1.5-1.09375.219973-.214028.409366-.441865.59375-.6875s.355408-.507743.5-.78125c.14012-.265048.276135-.524729.375-.8125.01041-.03078.02133-.06274.03125-.09375.09046-.278085.1388-.579404.1875-.875.0524-.31805.09375-.634029.09375-.96875v-2-68-2c0-3.324-2.676-6-6-6z" fill="url(#b)" opacity=".35"/><rect height="66" rx="12" style="opacity:.192;stroke:#fefefe;stroke-width:.5;stroke-linecap:round;clip-path:url(#e);fill:url(#j);filter:url(#c)" width="66" x="15" y="15"/><path d="m47.891886 80.732291c-.236311-.441547-1.682548-1.913588-3.213857-3.271199l-2.784207-2.468384-2.661076.600476c-1.463591.330259-3.385318.86064-4.2705 1.178618-.885183.317982-1.637422.534028-1.671644.480108-.321826-.507134-2.660912-8.306092-2.660912-8.87199 0-.549551-.240171-.696592-.924199-.565832-.508306.09717-2.375907-.297214-4.150223-.876409s-3.683232-1.053083-4.24204-1.053083c-.801856 0-.956581-.151159-.734052-.717135.155082-.394424.545117-2.100182.866751-3.790573.321629-1.69039.787472-3.574287 1.035199-4.186436.406759-1.005122.314765-1.243434-.94916-2.45875-.769769-.740163-1.892803-2.004413-2.495635-2.809444s-1.525691-1.693624-2.050794-1.974651c-.94264-.504486-.914253-.552371 2.24086-3.7804 1.757576-1.798193 3.745266-3.461059 4.417091-3.695258l1.221498-.425816-.848268-1.147343c-.597604-.808303-.965564-2.214781-1.245201-4.759645-.218313-1.986766-.568-3.93195-.777088-4.32263-.56614-1.057845-.538126-1.080583 1.566355-1.271318 1.07058-.09703 3.146904-.425078 4.614057-.728998 2.645947-.548106 2.673046-.567738 3.346719-2.424331.373546-1.029463 1.114453-3.070462 1.646457-4.535554l.967281-2.663807 1.1335.543274c.623425.298799 2.356778.882477 3.85189 1.297059l2.71839.753787 2.364519-2.056596c1.300486-1.131127 2.622011-2.444399 2.936718-2.918376.564292-.849867.594428-.839364 2.180272.759696.884441.891813 2.386467 2.28472 3.337835 3.095354l1.729764 1.473878 3.428952-.915651c1.885926-.503608 3.819776-1.124814 4.297446-1.380458.77331-.413861.89516-.3403 1.11166.671148.13374.624775.7837 2.555772 1.44435 4.291104.66065 1.735333 1.20248 3.302786 1.20407 3.483229.003.387168 5.20249 1.790232 7.63069 2.059281 1.68835.187072 1.69054.189576 1.13678 1.299603-.30515.611693-.74509 2.453778-.97765 4.093522-.23256 1.639745-.6327 3.373486-.88919 3.85276-.38784.72467-.33554.943397.31053 1.298931.42729.235138 2.21386 1.89934 3.97016 3.698226l3.19327 3.270703-.98829.71992c-.54356.395956-1.74728 1.703702-2.67492 2.906102-1.57079 2.036028-2.46963 2.733743-4.25718 3.304575-.65234.208318-.63076.351139.249 1.647539.66736.983407 1.09869 2.46684 1.40413 4.829014.24247 1.875265.56506 3.732281.71687 4.126705.22536.585539.0491.717135-.9607.717135-.68019 0-2.40567.366432-3.83441.814297-1.42874.447862-2.96652.821125-3.41729.829472-.81298.01504-1.85491 2.351253-3.19632 7.166752-.25114.901542-.49349 1.698865-.53857 1.771833-.0451.07296-.6216-.14639-1.28115-.487456-.65954-.341065-2.44076-.908061-3.958249-1.25999l-2.759074-.639873-2.329153 1.870174c-1.281038 1.028593-2.728135 2.429466-3.215783 3.113048-.840683 1.178475-.908889 1.20128-1.316279.440063zm3.719457-14.484861c9.166651-1.928025 15.436101-10.896247 13.876821-19.850291-1.28029-7.351937-6.37408-12.780923-13.477794-14.364692-14.157233-3.156347-25.913181 11.635299-19.562972 24.614657 2.236804 4.571859 6.44786 8.048695 11.274755 9.308935 3.204948.836775 4.983833.902477 7.88919.291391zm-7.048736-4.819892c-3.527274-1.159698-6.52517-3.708999-8.251893-7.017108-.802569-1.53758-.962404-2.457027-.961707-5.532187.00082-3.202463.14407-3.957938 1.088583-5.737084 1.303727-2.455794 3.563536-4.686586 6.076059-5.99804 1.537063-.802297 2.458061-.962541 5.532187-.962541 3.074122 0 3.995125.160244 5.532188.962541 2.512518 1.311454 4.772331 3.542246 6.07606 5.99804.94451 1.779146 1.08786 2.534621 1.08858 5.737084.00082 3.07516-.15914 3.994607-.96171 5.532187-2.360093 4.521539-6.212151 7.025034-11.12043 7.227291-1.690391.06966-3.534453-.02492-4.097917-.210183zm7.55237-5.954101c4.961086-2.907388 4.875718-10.333028-.152664-13.279857-3.300437-1.934184-7.866696-1.149228-10.062643 1.729804-2.481403 3.253289-2.227886 7.645183.604824 10.477893 2.623568 2.623566 6.269206 3.030279 9.610483 1.07216z" fill="#682a00" stroke-width=".409792"/></svg>