<svg height="96" width="96" xmlns="http://www.w3.org/2000/svg" xmlns:xlink="http://www.w3.org/1999/xlink"><linearGradient id="a"><stop offset="0" stop-color="#fefefe"/><stop offset="1" stop-color="#fefefe" stop-opacity="0"/></linearGradient><linearGradient id="b" gradientUnits="userSpaceOnUse" x1="36.357143" x2="36.357143" xlink:href="#a" y1="6" y2="63.893143"/><filter id="c" color-interpolation-filters="sRGB" height="1.384" width="1.384" x="-.192" y="-.192"><feGaussianBlur stdDeviation="5.28"/></filter><linearGradient id="d" gradientUnits="userSpaceOnUse" x1="48" x2="48" xlink:href="#a" y1="20.220806" y2="138.66119"/><radialGradient id="e" cx="48" cy="90.171875" gradientTransform="matrix(1.1573129 0 0 .99590774 -7.551021 .197132)" gradientUnits="userSpaceOnUse" r="42" xlink:href="#a"/><clipPath id="f"><rect height="84" rx="6" width="84" x="6" y="6"/></clipPath><linearGradient id="g" gradientUnits="userSpaceOnUse" x1="48" x2="48" y1="90" y2="5.987717"><stop offset="0" stop-color="#0a0a0a"/><stop offset="1" stop-color="#282828"/></linearGradient><linearGradient id="h" gradientTransform="matrix(1.0058652 0 0 .994169 100 0)" gradientUnits="userSpaceOnUse" x1="45.447727" x2="45.447727" y1="92.539597" y2="7.01654"><stop offset="0"/><stop offset="1" stop-opacity=".588235"/></linearGradient><linearGradient id="i" gradientTransform="matrix(1.0238095 0 0 1.0119048 -1.142857 -98.071429)" gradientUnits="userSpaceOnUse" x1="32.251034" x2="32.251034" xlink:href="#h" y1="6.131708" y2="90.238609"/><linearGradient id="j" gradientTransform="translate(0 -97)" gradientUnits="userSpaceOnUse" x1="32.251034" x2="32.251034" xlink:href="#h" y1="6.131708" y2="90.238609"/><g fill="url(#i)"><path d="m12-95.03125c-5.5110903 0-10.03125 4.52016-10.03125 10.03125v71c0 5.5110902 4.5201598 10.03125 10.03125 10.03125h72c5.51109 0 10.03125-4.5201597 10.03125-10.03125v-71c0-5.51109-4.52016-10.03125-10.03125-10.03125z" opacity=".08" transform="scale(1 -1)"/><path d="m12-94.03125c-4.971633 0-9.03125 4.059617-9.03125 9.03125v71c0 4.9716329 4.0596171 9.03125 9.03125 9.03125h72c4.971633 0 9.03125-4.059617 9.03125-9.03125v-71c0-4.971633-4.059617-9.03125-9.03125-9.03125z" opacity=".1" transform="scale(1 -1)"/><path d="m12-93c-4.4091333 0-8 3.590867-8 8v71c0 4.4091333 3.5908667 8 8 8h72c4.409133 0 8-3.5908667 8-8v-71c0-4.409133-3.590867-8-8-8z" opacity=".2" transform="scale(1 -1)"/><rect height="85" opacity=".3" rx="7" transform="scale(1 -1)" width="86" x="5" y="-92"/></g><rect fill="url(#j)" height="84" opacity=".45" rx="6" transform="scale(1 -1)" width="84" x="6" y="-91"/><rect fill="url(#g)" height="84" rx="6" width="84" x="6" y="6"/><path d="m12 6c-3.324 0-6 2.676-6 6v2 68 2c0 .334721.04135.6507.09375.96875.0487.295596.09704.596915.1875.875.00988.03038.020892.0636.03125.09375.098865.287771.2348802.547452.375.8125.1445918.273507.3156161.535615.5.78125s.3737765.473472.59375.6875c.439947.428056.94291.814526 1.5 1.09375.278545.139612.5734731.246947.875.34375-.2562018-.100222-.4867109-.236272-.71875-.375-.00741-.0044-.023866.0045-.03125 0-.031933-.0193-.062293-.04251-.09375-.0625-.120395-.0767-.2310226-.163513-.34375-.25-.1061728-.0808-.2132809-.161112-.3125-.25-.1779299-.161433-.3474596-.345388-.5-.53125-.1075789-.130255-.2183939-.265285-.3125-.40625-.025089-.03838-.038446-.08587-.0625-.125-.064763-.103032-.1302275-.204517-.1875-.3125-.1010083-.194706-.2056748-.415701-.28125-.625-.00796-.02181-.023589-.04055-.03125-.0625-.0318251-.09195-.0358045-.186831-.0625-.28125-.0303323-.106618-.0703894-.203031-.09375-.3125-.0728786-.341512-.125-.698205-.125-1.0625v-2-68-2c0-2.781848 2.2181517-5 5-5h2 68 2c2.781848 0 5 2.218152 5 5v2 68 2c0 .364295-.05212.720988-.125 1.0625-.04415.206893-.08838.397658-.15625.59375-.0077.02195-.0233.04069-.03125.0625-.06274.173739-.138383.367449-.21875.53125-.04158.0828-.07904.169954-.125.25-.0546.09721-.126774.18835-.1875.28125-.09411.140965-.204921.275995-.3125.40625-.143174.17445-.303141.346998-.46875.5-.01117.0102-.01998.02115-.03125.03125-.138386.125556-.285091.234436-.4375.34375-.102571.07315-.204318.153364-.3125.21875-.0074.0045-.02384-.0044-.03125 0-.232039.138728-.462548.274778-.71875.375.301527-.0968.596455-.204138.875-.34375.55709-.279224 1.060053-.665694 1.5-1.09375.219973-.214028.409366-.441865.59375-.6875s.355408-.507743.5-.78125c.14012-.265048.276135-.524729.375-.8125.01041-.03078.02133-.06274.03125-.09375.09046-.278085.1388-.579404.1875-.875.0524-.31805.09375-.634029.09375-.96875v-2-68-2c0-3.324-2.676-6-6-6z" fill="url(#b)" opacity=".2"/><path d="m12 90c-3.324 0-6-2.676-6-6v-2-68-2c0-.334721.04135-.6507.09375-.96875.0487-.295596.09704-.596915.1875-.875.00988-.03038.020892-.0636.03125-.09375.098865-.287771.2348802-.547452.375-.8125.1445918-.273507.3156161-.535615.5-.78125s.3737765-.473472.59375-.6875c.439947-.428056.94291-.814526 1.5-1.09375.278545-.139612.5734731-.246947.875-.34375-.2562018.100222-.4867109.236272-.71875.375-.00741.0044-.023866-.0045-.03125 0-.031933.0193-.062293.04251-.09375.0625-.120395.0767-.2310226.163513-.34375.25-.1061728.0808-.2132809.161112-.3125.25-.1779299.161433-.3474596.345388-.5.53125-.1075789.130255-.2183939.265285-.3125.40625-.025089.03838-.038446.08587-.0625.125-.064763.103032-.1302275.204517-.1875.3125-.1010083.194706-.2056748.415701-.28125.625-.00796.02181-.023589.04055-.03125.0625-.0318251.09195-.0358045.186831-.0625.28125-.0303323.106618-.0703894.203031-.09375.3125-.0728786.341512-.125.698205-.125 1.0625v2 68 2c0 2.781848 2.2181517 5 5 5h2 68 2c2.781848 0 5-2.218152 5-5v-2-68-2c0-.364295-.05212-.720988-.125-1.0625-.04415-.206893-.08838-.397658-.15625-.59375-.0077-.02195-.0233-.04069-.03125-.0625-.06274-.173739-.138383-.367449-.21875-.53125-.04158-.0828-.07904-.169954-.125-.25-.0546-.09721-.126774-.18835-.1875-.28125-.09411-.140965-.204921-.275995-.3125-.40625-.143174-.17445-.303141-.346998-.46875-.5-.01117-.0102-.01998-.02115-.03125-.03125-.138386-.125556-.285091-.234436-.4375-.34375-.102571-.07315-.204318-.153364-.3125-.21875-.0074-.0045-.02384.0044-.03125 0-.232039-.138728-.462548-.274778-.71875-.375.301527.0968.596455.204138.875.34375.55709.279224 1.060053.665694 1.5 1.09375.219973.214028.409366.441865.59375.6875s.355408.507743.5.78125c.14012.265048.276135.524729.375.8125.01041.03078.02133.06274.03125.09375.09046.278085.1388.579404.1875.875.0524.31805.09375.634029.09375.96875v2 68 2c0 3.324-2.676 6-6 6z" fill="url(#e)" opacity=".1"/><rect height="66" rx="12" style="opacity:.1;stroke:#fefefe;stroke-width:.5;stroke-linecap:round;clip-path:url(#f);fill:url(#d);filter:url(#c)" width="66" x="15" y="15"/><path d="m48 14.03125c-6.62099.0993-13.352103-.173716-20.0625.375a.99131328.99131328 0 0 0 -.125.03125c-5.74965 1.264663-9.363318 7.015131-8.4375 12.71875h-.03125c.09811 6.766854-.373691 13.673377.09375 20.5625a.99131328.99131328 0 0 0 .03125.15625c.789346 3.399101 3.198709 5.78729 6.0625 7.1875 2.835185 1.386223 6.127503 1.881433 9.125 1.59375.03024-.0029.06357.0031.09375 0 7.861889.05772 15.702993.01535 23.53125.15625.226222.513179.39265 1.060222.375 1.84375-.02059.913901-.133189 1.978-.03125 3.0625h-.03125c-.184729 2.348128.210088 4.449925-.28125 6.1875-3.32251.852201-7.496143.01157-11.5625.28125-1.833706-.357924-3.808733-.05539-5.5625.0625-1.712703.115128-2.980929-.04384-3.71875-.65625-.1296-.712259-.04724-1.712292 0-2.875.02618-.644545.01984-1.31097-.1875-2-.207344-.68903-.647864-1.386924-1.34375-1.875a.99131328.99131328 0 0 0 -.4375-.15625c-4.187131-.571676-8.395841-.23895-12.40625-.4375v.03125c-1.31792-.280819-2.5764.24374-3.28125 1.15625-.690484.893911-.908816 2.113946-.625 3.28125h-.03125c.185619 2.356572-.01399 5.125111.1875 7.84375.201488 2.718639.84792 5.473917 2.9375 7.65625a.99131328.99131328 0 0 0 .0625.0625c2.953964 2.56006 6.483241 3.349388 10 3.5625s7.084611-.106971 10.28125.09375a.99131328.99131328 0 0 0 .0625 0c8.677995-.009 17.502172.279323 26.25-.875a.99131328.99131328 0 0 0 .09375 0c3.061176-.721739 5.252054-2.796354 6.5-5.3125 1.233977-2.48798 1.588927-5.399791 1.21875-8.125h.03125c-.133407-6.586236.386251-13.308301-.1875-20.03125a.99131328.99131328 0 0 0 -.0625-.1875c-.985788-3.275437-3.462869-5.252222-6.28125-6.25-2.777829-.983422-5.916165-1.119194-8.625-.90625-.0419-.00088-.0831.000856-.125 0-7.471169-.152623-14.922602.06381-22.28125-.375-.83569-.208807-1.203731-.559851-1.5-1.15625-.306052-.616093-.471156-1.524158-.5625-2.59375-.180597-2.114694-.0461-4.830147-1.75-6.8125-.09444-.130508-.09361-.264203.09375-.59375.187362-.329547.584029-.65358.84375-.75a.99131328.99131328 0 0 0 .28125-.15625c.654481-.530621 1.522934-.649638 2.65625-.59375 1.077153.05312 2.320503.244206 3.59375.09375v.03125c5.28685.2429 10.537817-.1299 15.59375.375.103669.131985.190623.233873.21875.53125.03838.405749-.007.984968-.0625 1.625-.05553.640032-.126051 1.347825.0625 2.09375s.739151 1.516021 1.59375 1.9375a.99131328.99131328 0 0 0 .0625.03125c.752345.299405 1.523058.283105 2.15625.09375s1.154693-.5023 1.625-.78125c.940614-.5579 1.59338-.915668 2.28125-.75a.99131328.99131328 0 0 0 .34375 0c1.205408-.169494 2.457019.07303 3.8125.28125 1.355481.208224 2.846354.385941 4.4375-.15625a.99131328.99131328 0 0 0 .15625-.0625c.756817-.42249 1.291706-1.118187 1.53125-1.8125s.257419-1.371107.21875-2.03125c-.07734-1.320286-.356878-2.598633-.25-3.25a.99131328.99131328 0 0 0 .03125-.15625c.01988-2.351806-.367649-4.882896-1.40625-7.125s-2.776566-4.202282-5.375-5.125a.99131328.99131328 0 0 0 -.09375-.03125c-5.188641-1.378225-10.494349-.671246-15.4375-.96875a.99131328.99131328 0 0 0 -.0625 0c-2.111575-.025011-4.208208-.027454-6.3125-.03125z" opacity=".05"/><path d="m48 15.03125c-6.65743.09985-13.35409-.1698-19.984233.372353-5.276074 1.160498-8.623693 6.515642-7.678168 11.762524.09891 6.821687-.352866 13.679155.108463 20.478196 1.427692 6.147958 8.542392 8.590303 14.224038 8.014244 8.11288.0605 16.24002.000082 24.34412.158172 1.13685 1.653202.34135 3.998847.57953 5.958484-.18219 2.315786.42747 4.787996-.4375 6.974777-3.77136 1.211846-8.27496.159583-12.33308.428722-3.21336-.761004-8.17297 1.271544-10.29192-.991222-.63302-2.079106.91054-5.081656-1.15625-6.53125-4.040412-.551644-8.256089-.20117-12.355864-.404144-2.052676-.568367-3.443183 1.559562-2.86388 3.403841.38968 4.947284-.903975 10.947528 2.84588 14.863834 5.473471 4.743596 13.081134 3.002818 19.695864 3.418166 8.70186-.009 17.47568.289643 26.11436-.850277 5.51463-1.300194 7.70314-7.303852 6.97399-12.426094-.13471-6.650541.37579-13.35394-.18882-19.969807-1.77459-5.89635-8.7187-6.888347-13.99835-6.451667-7.51022-.157719-15.05105.07994-22.54173-.372494-4.57667-1.049963-1.61163-7.752252-4.4627-10.961358-.72773-1.005661.33789-2.478377 1.40625-2.875 1.87574-1.520756 4.67569-.354142 6.91052-.686824 5.35373.245973 10.77087-.183266 16.08362.403388 1.82079 1.436775-.7514 5.062293 1.72461 6.283436 2.14572.853915 3.66205-2.027324 5.91595-1.484489 2.82622-.397399 5.35643 1.05954 8.0528.140739 2.23481-1.247575.67799-4.416585 1.00147-6.388032.0378-4.472586-1.48278-9.635977-6.12564-11.284683-4.93843-1.311763-10.17735-.635662-15.24942-.940925-2.10454-.02493-4.20922-.03881-6.31391-.04261zm-15.15625 16.5625c-.2543.280688-1.317068.05527 0 0zm39.15625.125c.87251.08773-.16241.738993 0 0zm-3.4375.875c.72872 1.028634-.0321.418417 0 0z" opacity=".15"/><path d="m48 16.09375c-6.108579-.01101-12.217452.04982-18.25.15625-1.964247.03465-3.97218 1.003428-5.5625 2.40625s-2.78125 3.275144-2.78125 5.3125c0 6.649158-.09375 14.548634-.09375 21.84375 0 3.002397 1.705639 5.266862 3.875 6.6875s4.7986 2.09375 7.0625 2.09375c8.486711 0 18.417228.09375 26.34375.09375.645778 0 1.116891.237713 1.46875.625s.59375.962249.59375 1.71875v10.3125c0 .719175-.226055 1.506298-.65625 2.0625s-1.019487.9375-2 .9375c-7.082694 0-14.062344-.1875-20.875-.1875-.555247 0-1.551598-.793064-1.65625-1.875-.16366-1.691786-.125-2.892683-.125-4.875a.91534135.91534135 0 0 0 -.90625-.90625c-3.543604 0-7.519964-.1875-12.3125-.1875a.91534135.91534135 0 0 0 -.90625.90625c0 3.748834-.0319 8.198645.625 12.15625.351971 2.12052 1.915162 3.744233 3.96875 4.8125s4.651087 1.625 7.34375 1.625c11.345183 0 22.562835.427488 33.9375-.5 3.828322-.31216 7.625-3.561038 7.625-8.375 0-6.87772.0625-14.588573.0625-21.4375 0-2.106355-1.168717-3.960894-2.90625-5.21875s-4.054768-1.96875-6.53125-1.96875c-7.884667 0-16.617867-.148638-24.25-.1875-1.985539-.010111-4.148298-.363984-5.15625-1.5625-.329886-.392254-.395871-.844204-.40625-1.53125s.08064-1.521926-.03125-2.46875c-.283198-2.396521-1.449819-4.524421-1.9375-6.40625a.91534135.91534135 0 0 0 -.09375-.28125c-.362858-.577983-.822456-.703708-.96875-.8125s-.120045-.0059-.125-.28125c-.0037-.208077-.03045-.06936.0625-.125s.368573-.120914.6875-.1875a.91534135.91534135 0 0 0 .46875-.28125c.625785-.639843.749101-1.34345.9375-1.71875.0942-.18765.171452-.269948.1875-.28125.01605-.0113.0085-.02692.1875 0a.91534135.91534135 0 0 0 .96875-.53125.91534135.91534135 0 0 0 .28125-.09375c-.115122.06487.302236-.11482.625-.1875s.728148-.125078.6875-.125c6.569237-.01301 11.964222.187236 18.34375.15625.845921-.0041 1.775944-.01488 2.5625.09375.786556.108631 1.392886.337921 1.75.71875.499863.533057.576002.956254.59375 1.75.01775.793746-.101885 1.895976-.0625 3.3125a.91534135.91534135 0 0 0 1.46875.6875c2.323934-1.789217 4.76867-1.461574 7.5-1.53125.02358.02652.0044.07002.03125.09375.358913.317773.711077.31036.9375.3125.226423.0021.389948-.04268.53125-.0625s.257528-.02962.1875-.03125c.295192.0068.440673.000348.4375 0-.0032-.000348-.07481-.06826.03125.03125a.91534135.91534135 0 0 0 .53125.25c.205981.02011.568836-.04777.8125-.28125.03899-.03736.03285-.05568.0625-.09375.01842.0099.01101.02131.03125.03125.236685.116272.700109.181214 1.03125.03125a.91534135.91534135 0 0 0 .53125-.875c-.0661-2.482018-.10527-5.294506-.53125-8.21875-.622173-4.27107-3.830788-7.078628-7.96875-7.21875-6.039804-.204522-12.171226-.301485-18.28125-.3125z" opacity=".3"/><path d="m70.20937 31.514973c-2.860679.156472-5.821304-.435225-8.646452 1.739881-.07458-2.682348.531613-4.248868-.794966-5.66354-1.133104-1.20835-3.31264-1.101719-4.969133-1.093674-6.357801.03088-11.738304-.162408-18.32707-.149354-.34103.000656-1.44694.229479-1.744046.396889-.264462-.123333-.53701.1231-.702902.541974-1.430408-.215046-1.352967 1.526668-2.090107 2.280368-.610299.127418-1.497369.282762-1.479939 1.251861.01908 1.060426.931467 1.052851 1.24483 1.551995.528609 2.039759 1.630302 4.146205 1.884757 6.299491.19049 1.61195-.356042 3.269843.67284 4.493247 1.329536 1.5809 3.770924 1.854772 5.836544 1.865291 7.623792.03882 16.350314.198741 24.24647.198741 4.587163 0 8.545894 2.72916 8.545894 6.26036 0 6.843354-.0709 14.580832-.0709 21.464092 0 4.332801-3.421165 7.178468-6.785683 7.45281-11.3033.921669-22.517625.496854-33.885441.496854-5.127333 0-9.79978-2.173067-10.383966-5.692609-.638078-3.844199-.646196-8.244432-.646196-11.995393 4.768544 0 8.746378.198742 12.321978.198742 0 1.96863-.04131 3.198973.12785 4.947613.148009 1.530179 1.392537 2.703938 2.555165 2.703938 6.795821 0 13.769056.198742 20.867866.198742 2.47838 0 3.570373-2.099078 3.570373-3.903935 0-3.249139 0-6.784882 0-10.334562 0-1.901153-1.214794-3.250764-2.974147-3.250764-7.919299 0-17.825865-.08542-26.319311-.08542-4.154343 0-10.050404-2.531934-10.050404-7.864244 0-7.287266.09937-15.203826.09937-21.861576 0-3.306559 4.153746-6.741311 7.459789-6.799638 12.05568-.212692 24.404703-.266497 36.462108.141795 3.764096.127462 6.529293 2.545906 7.098318 6.452127.415218 2.850366.473019 5.638902.539278 8.126907-.346473.156907-.542964-.478599-1.108781-.497103-.512333.01715-.02105.758299-.347071.726473-.433016-.406266-.720509-.266048-1.060838-.273924-.340328-.0079-1.321902.335435-1.146075-.324456z" opacity=".69869"/><path d="m70.498126 30.899978c-2.860679.156472-5.821304-.435225-8.646452 1.739881-.07458-2.682348.531613-4.248868-.794966-5.66354-1.133104-1.20835-3.31264-1.101719-4.969133-1.093674-6.357801.03088-11.738304-.162408-18.32707-.149354-.34103.000656-1.44694.229479-1.744046.396889-.264462-.123333-.53701.1231-.702902.541974-1.430408-.215046-1.352967 1.526668-2.090107 2.280368-.610299.127418-1.497369.282762-1.479939 1.251861.01908 1.060426.931467 1.052851 1.24483 1.551995.528609 2.039759 1.630302 4.146205 1.884757 6.299491.19049 1.61195-.356042 3.269843.67284 4.493247 1.329536 1.5809 3.770924 1.854772 5.836544 1.865291 7.623792.03882 16.350314.198741 24.24647.198741 4.587163 0 8.545894 2.72916 8.545894 6.26036 0 6.843354-.0709 14.580832-.0709 21.464092 0 4.332801-3.421165 7.178468-6.785683 7.45281-11.3033.921669-22.517625.496854-33.885441.496854-5.127333 0-9.79978-2.173067-10.383966-5.692609-.638078-3.844199-.646196-8.244432-.646196-11.995393 4.768544 0 8.746378.198742 12.321978.198742 0 1.96863-.04131 3.198973.12785 4.947613.148009 1.530179 1.392537 2.703938 2.555165 2.703938 6.795821 0 13.769056.198742 20.867866.198742 2.47838 0 3.570373-2.099078 3.570373-3.903935 0-3.249139 0-6.784882 0-10.334562 0-1.901153-1.214794-3.250764-2.974147-3.250764-7.919299 0-17.825865-.08542-26.319311-.08542-4.154343 0-10.050404-2.531934-10.050404-7.864244 0-7.287266.09937-15.203826.09937-21.861576 0-3.306559 4.153746-6.741311 7.459789-6.799638 12.05568-.212692 24.404703-.266497 36.462108.141795 3.764096.127462 6.529293 2.545906 7.098318 6.452127.415218 2.850366.473019 5.638902.539278 8.126907-.346473.156907-.542964-.478599-1.108781-.497103-.512333.01715-.02105.758299-.347071.726473-.433016-.406266-.720509-.266048-1.060838-.273924-.340328-.0079-1.321902.335435-1.146075-.324456z" fill="#972b3c"/></svg>