<svg height="96" width="96" xmlns="http://www.w3.org/2000/svg" xmlns:xlink="http://www.w3.org/1999/xlink"><linearGradient id="a"><stop offset="0" stop-color="#fefefe"/><stop offset="1" stop-color="#fefefe" stop-opacity="0"/></linearGradient><linearGradient id="b" gradientUnits="userSpaceOnUse" x1="36.357143" x2="36.357143" xlink:href="#a" y1="6" y2="63.893143"/><radialGradient id="c" cx="48" cy="90.171875" gradientTransform="matrix(1.1573129 0 0 .99590774 -7.551021 .197132)" gradientUnits="userSpaceOnUse" r="42" xlink:href="#a"/><linearGradient id="d" gradientUnits="userSpaceOnUse" x1="48" x2="48" y1="90" y2="5.987717"><stop offset="0" stop-color="#a90c0c"/><stop offset="1" stop-color="#f05530"/></linearGradient><linearGradient id="e" gradientTransform="matrix(1.0058652 0 0 .994169 100 0)" gradientUnits="userSpaceOnUse" x1="45.447727" x2="45.447727" y1="92.539597" y2="7.01654"><stop offset="0"/><stop offset="1" stop-opacity=".588235"/></linearGradient><linearGradient id="f" gradientTransform="matrix(1.0238095 0 0 1.0119048 -1.142857 -98.071429)" gradientUnits="userSpaceOnUse" x1="32.251034" x2="32.251034" xlink:href="#e" y1="6.131708" y2="90.238609"/><linearGradient id="g" gradientTransform="translate(0 -97)" gradientUnits="userSpaceOnUse" x1="32.251034" x2="32.251034" xlink:href="#e" y1="6.131708" y2="90.238609"/><linearGradient id="h" gradientTransform="matrix(-4.5057883 0 0 3.8842887 81.128906 14.057144)" gradientUnits="userSpaceOnUse" x1="6.62013" x2="6.62013" y1="16.384687" y2="1.092312"><stop offset="0" stop-color="#dcdcdc"/><stop offset=".30654153" stop-color="#ebebeb"/><stop offset=".70706075" stop-color="#fefefe"/><stop offset=".84501493" stop-color="#fafafa"/><stop offset="1" stop-color="#f0f0f0"/></linearGradient><g><g fill="url(#f)"><path d="m12-95.03125c-5.5110903 0-10.03125 4.52016-10.03125 10.03125v71c0 5.5110902 4.5201598 10.03125 10.03125 10.03125h72c5.51109 0 10.03125-4.5201597 10.03125-10.03125v-71c0-5.51109-4.52016-10.03125-10.03125-10.03125z" opacity=".08" transform="scale(1 -1)"/><path d="m12-94.03125c-4.971633 0-9.03125 4.059617-9.03125 9.03125v71c0 4.9716329 4.0596171 9.03125 9.03125 9.03125h72c4.971633 0 9.03125-4.059617 9.03125-9.03125v-71c0-4.971633-4.059617-9.03125-9.03125-9.03125z" opacity=".1" transform="scale(1 -1)"/><path d="m12-93c-4.4091333 0-8 3.590867-8 8v71c0 4.4091333 3.5908667 8 8 8h72c4.409133 0 8-3.5908667 8-8v-71c0-4.409133-3.590867-8-8-8z" opacity=".2" transform="scale(1 -1)"/><rect height="85" opacity=".3" rx="7" transform="scale(1 -1)" width="86" x="5" y="-92"/></g><rect fill="url(#g)" height="84" opacity=".45" rx="6" transform="scale(1 -1)" width="84" x="6" y="-91"/></g><g><rect fill="url(#d)" height="84" rx="6" width="84" x="6" y="6"/><path d="m12 6c-3.324 0-6 2.676-6 6v2 68 2c0 .334721.04135.6507.09375.96875.0487.295596.09704.596915.1875.875.00988.03038.020892.0636.03125.09375.098865.287771.2348802.547452.375.8125.1445918.273507.3156161.535615.5.78125s.3737765.473472.59375.6875c.439947.428056.94291.814526 1.5 1.09375.278545.139612.5734731.246947.875.34375-.2562018-.100222-.4867109-.236272-.71875-.375-.00741-.0044-.023866.0045-.03125 0-.031933-.0193-.062293-.04251-.09375-.0625-.120395-.0767-.2310226-.163513-.34375-.25-.1061728-.0808-.2132809-.161112-.3125-.25-.1779299-.161433-.3474596-.345388-.5-.53125-.1075789-.130255-.2183939-.265285-.3125-.40625-.025089-.03838-.038446-.08587-.0625-.125-.064763-.103032-.1302275-.204517-.1875-.3125-.1010083-.194706-.2056748-.415701-.28125-.625-.00796-.02181-.023589-.04055-.03125-.0625-.0318251-.09195-.0358045-.186831-.0625-.28125-.0303323-.106618-.0703894-.203031-.09375-.3125-.0728786-.341512-.125-.698205-.125-1.0625v-2-68-2c0-2.781848 2.2181517-5 5-5h2 68 2c2.781848 0 5 2.218152 5 5v2 68 2c0 .364295-.05212.720988-.125 1.0625-.04415.206893-.08838.397658-.15625.59375-.0077.02195-.0233.04069-.03125.0625-.06274.173739-.138383.367449-.21875.53125-.04158.0828-.07904.169954-.125.25-.0546.09721-.126774.18835-.1875.28125-.09411.140965-.204921.275995-.3125.40625-.143174.17445-.303141.346998-.46875.5-.01117.0102-.01998.02115-.03125.03125-.138386.125556-.285091.234436-.4375.34375-.102571.07315-.204318.153364-.3125.21875-.0074.0045-.02384-.0044-.03125 0-.232039.138728-.462548.274778-.71875.375.301527-.0968.596455-.204138.875-.34375.55709-.279224 1.060053-.665694 1.5-1.09375.219973-.214028.409366-.441865.59375-.6875s.355408-.507743.5-.78125c.14012-.265048.276135-.524729.375-.8125.01041-.03078.02133-.06274.03125-.09375.09046-.278085.1388-.579404.1875-.875.0524-.31805.09375-.634029.09375-.96875v-2-68-2c0-3.324-2.676-6-6-6z" fill="url(#b)" opacity=".4"/><path d="m12 90c-3.324 0-6-2.676-6-6v-2-68-2c0-.334721.04135-.6507.09375-.96875.0487-.295596.09704-.596915.1875-.875.00988-.03038.020892-.0636.03125-.09375.098865-.287771.2348802-.547452.375-.8125.1445918-.273507.3156161-.535615.5-.78125s.3737765-.473472.59375-.6875c.439947-.428056.94291-.814526 1.5-1.09375.278545-.139612.5734731-.246947.875-.34375-.2562018.100222-.4867109.236272-.71875.375-.00741.0044-.023866-.0045-.03125 0-.031933.0193-.062293.04251-.09375.0625-.120395.0767-.2310226.163513-.34375.25-.1061728.0808-.2132809.161112-.3125.25-.1779299.161433-.3474596.345388-.5.53125-.1075789.130255-.2183939.265285-.3125.40625-.025089.03838-.038446.08587-.0625.125-.064763.103032-.1302275.204517-.1875.3125-.1010083.194706-.2056748.415701-.28125.625-.00796.02181-.023589.04055-.03125.0625-.0318251.09195-.0358045.186831-.0625.28125-.0303323.106618-.0703894.203031-.09375.3125-.0728786.341512-.125.698205-.125 1.0625v2 68 2c0 2.781848 2.2181517 5 5 5h2 68 2c2.781848 0 5-2.218152 5-5v-2-68-2c0-.364295-.05212-.720988-.125-1.0625-.04415-.206893-.08838-.397658-.15625-.59375-.0077-.02195-.0233-.04069-.03125-.0625-.06274-.173739-.138383-.367449-.21875-.53125-.04158-.0828-.07904-.169954-.125-.25-.0546-.09721-.126774-.18835-.1875-.28125-.09411-.140965-.204921-.275995-.3125-.40625-.143174-.17445-.303141-.346998-.46875-.5-.01117-.0102-.01998-.02115-.03125-.03125-.138386-.125556-.285091-.234436-.4375-.34375-.102571-.07315-.204318-.153364-.3125-.21875-.0074-.0045-.02384.0044-.03125 0-.232039-.138728-.462548-.274778-.71875-.375.301527.0968.596455.204138.875.34375.55709.279224 1.060053.665694 1.5 1.09375.219973.214028.409366.441865.59375.6875s.355408.507743.5.78125c.14012.265048.276135.524729.375.8125.01041.03078.02133.06274.03125.09375.09046.278085.1388.579404.1875.875.0524.31805.09375.634029.09375.96875v2 68 2c0 3.324-2.676 6-6 6z" fill="url(#c)" opacity=".2"/></g><g fill="#500"><path d="m42.46875 17.3125c-2.037202.378302-1.844432 2.881804-2.479218 4.408233-1.111094 3.926422-2.222188 7.852845-3.333282 11.779267-6.166725-.973921-12.332864-2.156029-18.5-3-1.879999.02298-2.49591 2.723301-.982474 3.704269 3.587908 3.577743 7.175816 7.155487 10.763724 10.733231-4.696986 1.937864-9.482698 3.710066-14.125 5.75-1.678031 1.042562-.633749 3.80989 1.278959 3.68684l13.564791 2.25066c-4.051147 4.920497-8.276174 9.727005-12.21875 14.71875-.762115 1.679258 1.238331 3.394235 2.832211 2.58439 5.753847-1.632296 11.507693-3.264593 17.261539-4.89689 1.077194 3.561537 1.967608 7.208951 3.15625 10.71875.8379 1.401997 2.899485 1.095038 3.690545-.190545 2.748985-2.748985 5.49797-5.49797 8.246955-8.246955 5.18974 3.074927 10.364496 6.295616 15.5625 9.28125 1.673737.633544 3.214654-1.35827 2.444782-2.898095-1.106594-5.211051-2.213188-10.422103-3.319782-15.633155 5.090864-.436268 10.204858-.715425 15.28125-1.25 1.82506-.515491 1.780081-3.190459.101434-3.860755-3.825478-2.733915-7.650956-5.46783-11.476434-8.201745 2.687405-1.68645 5.624979-3.249494 8.15625-5 1.318482-1.328195-.03015-3.631922-1.813041-3.408098-2.364403-.270217-4.728806-.540435-7.093209-.810652 3.360184-5.433 6.838143-10.819319 10.125-16.28125.662025-1.771925-1.5926-3.401543-3.093543-2.311543-7.625069 3.489264-15.250138 6.978529-22.875207 10.467793-3.179498-4.507123-6.259474-9.121111-9.5-13.5625-.415937-.448879-1.0656-.578903-1.65625-.53125zm3.53125 23.6875h4v10c-1.333333 0-2.666667 0-4 0 0-3.333333 0-6.666667 0-10zm0 16h4v4c-1.333333 0-2.666667 0-4 0 0-1.333333 0-2.666667 0-4z" opacity=".08"/><path d="m42.625 18.34375a.97455417.97455417 0 0 0 -.8125.71875l-4.40625 15.625-18.9375-3.15625a.97455417.97455417 0 0 0 -.84375 1.65625l12.125 12.125-15.125 6.09375a.97455417.97455417 0 0 0 .21875 1.875l15.75 2.59375-13.03125 15.59375a.97455417.97455417 0 0 0 1.03125 1.5625l18.65625-5.28125 3.21875 11.21875a.97455417.97455417 0 0 0 1.625.40625l9.375-9.34375 15.84375 9.5a.97455417.97455417 0 0 0 1.4375-1.0625l-3.6875-17.34375 16-1.25a.97455417.97455417 0 0 0 .5-1.75l-13.21875-9.4375 9.03125-5.4375a.97455417.97455417 0 0 0 -.375-1.8125l-9.28125-1.0625 10.78125-17.25a.97455417.97455417 0 0 0 -1.21875-1.40625l-24 11-9.71875-13.96875a.97455417.97455417 0 0 0 -.9375-.40625zm2.375 21.625h6c.03101 0 .03125.000244.03125.03125v12c0 .03101-.000244.03125-.03125.03125h-6c-.03101 0-.03125-.000244-.03125-.03125v-12c0-.03101.000244-.03125.03125-.03125zm0 16h6c.03101 0 .03125.000244.03125.03125v6c0 .03101-.000244.03125-.03125.03125h-6c-.03101 0-.03125-.000244-.03125-.03125v-6c0-.03101.000244-.03125.03125-.03125z" opacity=".15"/><path d="m42.75 19.3125-4.65625 16.5-19.78125-3.3125 13.1875 13.1875-16.5 6.625 17.4375 2.875-14.125 16.90625 19.59375-5.5625 3.5 12.15625 9.90625-9.875 16.5 9.875-3.9375-18.4375 17.125-1.34375-14.4375-10.3125 10.3125-6.1875-10.8125-1.25 11.625-18.5625-24.75 11.34375zm2.25 19.6875h6c.554 0 1 .446 1 1v12c0 .554-.446 1-1 1h-6c-.554 0-1-.446-1-1v-12c0-.554.446-1 1-1zm0 16h6c.554 0 1 .446 1 1v6c0 .554-.446 1-1 1h-6c-.554 0-1-.446-1-1v-6c0-.554.446-1 1-1z" opacity=".3"/></g><path d="m42.75 18.3125-4.65625 16.5-19.78125-3.3125 13.1875 13.1875-16.5 6.625 17.4375 2.875-14.125 16.90625 19.59375-5.5625 3.5 12.15625 9.90625-9.875 16.5 9.875-3.9375-18.4375 17.125-1.34375-14.4375-10.3125 10.3125-6.1875-10.8125-1.25 11.625-18.5625-24.75 11.34375zm2.25 19.6875h6c.554 0 1 .446 1 1v12c0 .554-.446 1-1 1h-6c-.554 0-1-.446-1-1v-12c0-.554.446-1 1-1zm0 16h6c.554 0 1 .446 1 1v6c0 .554-.446 1-1 1h-6c-.554 0-1-.446-1-1v-6c0-.554.446-1 1-1z" fill="url(#h)"/><path d="m42.75 18.3125-4.65625 16.5-19.78125-3.3125 2.40625 2.40625 17.375 2.90625 4.65625-16.5 10.1875 14.625 23-10.53125 1.75-2.8125-24.75 11.34375zm24.46875 21.96875-1.15625 1.875 8.03125.9375 2.78125-1.6875zm-37.15625 4.96875-15.0625 6.0625 3.53125.59375 12.96875-5.21875zm38.03125 3.4375-1.53125.90625 11.90625 8.5 2.53125-.1875zm-24.09375 2.3125v2c0 .554.446 1 1 1h6c.554 0 1-.446 1-1v-2c0 .554-.446 1-1 1h-6c-.554 0-1-.446-1-1zm-13.03125 4.9375-12.65625 15.15625 2.1875-.625 11.9375-14.28125zm13.03125 5.0625v2c0 .554.446 1 1 1h6c.554 0 1-.446 1-1v-2c0 .554-.446 1-1 1h-6c-.554 0-1-.446-1-1zm20.28125.21875-.40625.03125 3.4375 16.15625.5.28125z" fill="#fefefe" opacity=".4"/><path d="m42.75 18.3125-4.65625 16.5-19.78125-3.3125 1.1875 1.1875 18.59375 3.125 4.65625-16.5 10.1875 14.625 23.875-10.9375.875-1.40625-24.75 11.34375zm23.90625 21.90625-.59375.9375 9.40625 1.09375 1.40625-.84375zm-35.875 4.75-15.78125 6.34375 1.75.28125 14.75-5.90625zm36.53125 3.15625-.75.46875 13.1875 9.40625 1.25-.09375zm-23.3125 2.875v1c0 .554.446 1 1 1h6c.554 0 1-.446 1-1v-1c0 .554-.446 1-1 1h-6c-.554 0-1-.446-1-1zm-12.28125 4.0625-13.40625 16.03125 1.09375-.3125 13.03125-15.59375zm32.375 5.15625-.21875.03125 3.6875 17.28125.25.15625zm-20.09375.78125v1c0 .554.446 1 1 1h6c.554 0 1-.446 1-1v-1c0 .554-.446 1-1 1h-6c-.554 0-1-.446-1-1z" fill="#fefefe" opacity=".8"/></svg>