<svg height="96" width="96" xmlns="http://www.w3.org/2000/svg" xmlns:xlink="http://www.w3.org/1999/xlink"><linearGradient id="a"><stop offset="0" stop-color="#fefefe"/><stop offset="1" stop-color="#fefefe" stop-opacity="0"/></linearGradient><linearGradient id="b" gradientUnits="userSpaceOnUse" x1="36.357143" x2="36.357143" xlink:href="#a" y1="6" y2="63.893143"/><filter id="c" color-interpolation-filters="sRGB" height="1.384" width="1.384" x="-.192" y="-.192"><feGaussianBlur stdDeviation="5.28"/></filter><linearGradient id="d" gradientUnits="userSpaceOnUse" x1="48" x2="48" xlink:href="#a" y1="20.220806" y2="138.66119"/><radialGradient id="e" cx="48" cy="90.171875" gradientTransform="matrix(1.1573129 0 0 .99590774 -7.551021 .197132)" gradientUnits="userSpaceOnUse" r="42" xlink:href="#a"/><clipPath id="f"><rect height="84" rx="6" width="84" x="6" y="6"/></clipPath><linearGradient id="g" gradientUnits="userSpaceOnUse" x1="48" x2="48" y1="90" y2="5.987717"><stop offset="0" stop-color="#a5aaaf"/><stop offset="1" stop-color="#d4d7d9"/></linearGradient><linearGradient id="h" gradientTransform="matrix(1.0058652 0 0 .994169 100 0)" gradientUnits="userSpaceOnUse" x1="45.447727" x2="45.447727" y1="92.539597" y2="7.01654"><stop offset="0"/><stop offset="1" stop-opacity=".588235"/></linearGradient><linearGradient id="i" gradientTransform="matrix(1.0238095 0 0 1.0119048 -1.142857 -98.071429)" gradientUnits="userSpaceOnUse" x1="32.251034" x2="32.251034" xlink:href="#h" y1="6.131708" y2="90.238609"/><linearGradient id="j" gradientTransform="translate(0 -97)" gradientUnits="userSpaceOnUse" x1="32.251034" x2="32.251034" xlink:href="#h" y1="6.131708" y2="90.238609"/><g fill="url(#i)"><path d="m12-95.03125c-5.5110903 0-10.03125 4.52016-10.03125 10.03125v71c0 5.5110902 4.5201598 10.03125 10.03125 10.03125h72c5.51109 0 10.03125-4.5201597 10.03125-10.03125v-71c0-5.51109-4.52016-10.03125-10.03125-10.03125z" opacity=".08" transform="scale(1 -1)"/><path d="m12-94.03125c-4.971633 0-9.03125 4.059617-9.03125 9.03125v71c0 4.9716329 4.0596171 9.03125 9.03125 9.03125h72c4.971633 0 9.03125-4.059617 9.03125-9.03125v-71c0-4.971633-4.059617-9.03125-9.03125-9.03125z" opacity=".1" transform="scale(1 -1)"/><path d="m12-93c-4.4091333 0-8 3.590867-8 8v71c0 4.4091333 3.5908667 8 8 8h72c4.409133 0 8-3.5908667 8-8v-71c0-4.409133-3.590867-8-8-8z" opacity=".2" transform="scale(1 -1)"/><rect height="85" opacity=".3" rx="7" transform="scale(1 -1)" width="86" x="5" y="-92"/></g><rect fill="url(#j)" height="84" opacity=".45" rx="6" transform="scale(1 -1)" width="84" x="6" y="-91"/><g transform="translate(0 1)"><rect fill="url(#g)" height="84" rx="6" width="84" x="6" y="6"/><path d="m12 6c-3.324 0-6 2.676-6 6v2 68 2c0 .334721.04135.6507.09375.96875.0487.295596.09704.596915.1875.875.00988.03038.020892.0636.03125.09375.098865.287771.2348802.547452.375.8125.1445918.273507.3156161.535615.5.78125s.3737765.473472.59375.6875c.439947.428056.94291.814526 1.5 1.09375.278545.139612.5734731.246947.875.34375-.2562018-.100222-.4867109-.236272-.71875-.375-.00741-.0044-.023866.0045-.03125 0-.031933-.0193-.062293-.04251-.09375-.0625-.120395-.0767-.2310226-.163513-.34375-.25-.1061728-.0808-.2132809-.161112-.3125-.25-.1779299-.161433-.3474596-.345388-.5-.53125-.1075789-.130255-.2183939-.265285-.3125-.40625-.025089-.03838-.038446-.08587-.0625-.125-.064763-.103032-.1302275-.204517-.1875-.3125-.1010083-.194706-.2056748-.415701-.28125-.625-.00796-.02181-.023589-.04055-.03125-.0625-.0318251-.09195-.0358045-.186831-.0625-.28125-.0303323-.106618-.0703894-.203031-.09375-.3125-.0728786-.341512-.125-.698205-.125-1.0625v-2-68-2c0-2.781848 2.2181517-5 5-5h2 68 2c2.781848 0 5 2.218152 5 5v2 68 2c0 .364295-.05212.720988-.125 1.0625-.04415.206893-.08838.397658-.15625.59375-.0077.02195-.0233.04069-.03125.0625-.06274.173739-.138383.367449-.21875.53125-.04158.0828-.07904.169954-.125.25-.0546.09721-.126774.18835-.1875.28125-.09411.140965-.204921.275995-.3125.40625-.143174.17445-.303141.346998-.46875.5-.01117.0102-.01998.02115-.03125.03125-.138386.125556-.285091.234436-.4375.34375-.102571.07315-.204318.153364-.3125.21875-.0074.0045-.02384-.0044-.03125 0-.232039.138728-.462548.274778-.71875.375.301527-.0968.596455-.204138.875-.34375.55709-.279224 1.060053-.665694 1.5-1.09375.219973-.214028.409366-.441865.59375-.6875s.355408-.507743.5-.78125c.14012-.265048.276135-.524729.375-.8125.01041-.03078.02133-.06274.03125-.09375.09046-.278085.1388-.579404.1875-.875.0524-.31805.09375-.634029.09375-.96875v-2-68-2c0-3.324-2.676-6-6-6z" fill="url(#b)" opacity=".5"/><path d="m12 90c-3.324 0-6-2.676-6-6v-2-68-2c0-.334721.04135-.6507.09375-.96875.0487-.295596.09704-.596915.1875-.875.00988-.03038.020892-.0636.03125-.09375.098865-.287771.2348802-.547452.375-.8125.1445918-.273507.3156161-.535615.5-.78125s.3737765-.473472.59375-.6875c.439947-.428056.94291-.814526 1.5-1.09375.278545-.139612.5734731-.246947.875-.34375-.2562018.100222-.4867109.236272-.71875.375-.00741.0044-.023866-.0045-.03125 0-.031933.0193-.062293.04251-.09375.0625-.120395.0767-.2310226.163513-.34375.25-.1061728.0808-.2132809.161112-.3125.25-.1779299.161433-.3474596.345388-.5.53125-.1075789.130255-.2183939.265285-.3125.40625-.025089.03838-.038446.08587-.0625.125-.064763.103032-.1302275.204517-.1875.3125-.1010083.194706-.2056748.415701-.28125.625-.00796.02181-.023589.04055-.03125.0625-.0318251.09195-.0358045.186831-.0625.28125-.0303323.106618-.0703894.203031-.09375.3125-.0728786.341512-.125.698205-.125 1.0625v2 68 2c0 2.781848 2.2181517 5 5 5h2 68 2c2.781848 0 5-2.218152 5-5v-2-68-2c0-.364295-.05212-.720988-.125-1.0625-.04415-.206893-.08838-.397658-.15625-.59375-.0077-.02195-.0233-.04069-.03125-.0625-.06274-.173739-.138383-.367449-.21875-.53125-.04158-.0828-.07904-.169954-.125-.25-.0546-.09721-.126774-.18835-.1875-.28125-.09411-.140965-.204921-.275995-.3125-.40625-.143174-.17445-.303141-.346998-.46875-.5-.01117-.0102-.01998-.02115-.03125-.03125-.138386-.125556-.285091-.234436-.4375-.34375-.102571-.07315-.204318-.153364-.3125-.21875-.0074-.0045-.02384.0044-.03125 0-.232039-.138728-.462548-.274778-.71875-.375.301527.0968.596455.204138.875.34375.55709.279224 1.060053.665694 1.5 1.09375.219973.214028.409366.441865.59375.6875s.355408.507743.5.78125c.14012.265048.276135.524729.375.8125.01041.03078.02133.06274.03125.09375.09046.278085.1388.579404.1875.875.0524.31805.09375.634029.09375.96875v2 68 2c0 3.324-2.676 6-6 6z" fill="url(#e)" opacity=".2"/></g><rect height="66" rx="12" style="opacity:.1;stroke:#fefefe;stroke-width:.5;stroke-linecap:round;clip-path:url(#f);fill:url(#d);filter:url(#c)" width="66" x="15" y="15"/><g transform="matrix(1.0625 0 0 1.0625 -5.056184 -1.83282)"><path d="m40.930888 70.690142c-.380524-8.170114-1.039028-42.555539-9.851178-48.581956-.895863-.284336-.613821-.617075.688607-.812386 3.191595-.478609 10.371921.438137 14.743733 1.882399 9.171666 3.029942 16.389616 9.932859 18.646641 17.832801.850576 2.977141.843234 8.0522-.01558 10.799525-2.090342 6.686617-7.015008 12.276867-13.808775 15.675083-2.382129 1.191534-6.645425 2.733751-9.185829 3.322909-2.157307.500308-2.221933.494025-1.21758-.118375z" fill="#c4ccde" stroke-width=".261857"/><path d="m42.382606 61.409836c-.361632-.361629-.09805-.852462.457789-.852462 1.393856 0 4.617672-2.813073 6.045863-5.275562 2.654648-4.57714 1.735605-9.581757-2.497676-13.600959-1.053288-1.000027-2.270907-1.99541-2.705822-2.211963-.434919-.216554-.825183-.630961-.867257-.920904-.428487-2.952767-3.268034-8.854801-5.737901-11.926307-1.170148-1.455186-2.392471-2.177637-2.110983-2.242041.762672-.174497 6.631696.908563 9.037501 1.700283 7.426018 2.443812 13.198536 8.732835 13.990807 15.24267.432253 3.55164-.329947 7.448914-2.039699 10.429486-1.691307 2.94841-5.897161 6.628421-9.579226 8.381582-2.041346.971953-3.751198 1.518379-3.993396 1.276177z" fill="#8495ba" stroke-width=".263586"/><path d="m33.85483 71.34444c-.14624-.0496-.72563-.167297-1.28754-.261554l-1.02165-.171379 1.43451-1.512179c3.60608-3.801323 5.17509-7.458957 5.79626-13.512093.74814-7.290445-1.42796-13.377761-6.64087-18.576888l-1.59954-1.595311-.002-7.128022-.002-7.128022 1.66178.87262c4.01861 2.110214 7.94206 7.486378 10.04567 13.765237 1.00407 2.996952 1.00347 3.874877-.004 5.36118-.43605.643513-.795 1.384174-.79766 1.645914-.007.726859.9253 2.417073 3.15318 5.714156 2.81394 4.164415 3.02999 4.537241 2.87038 4.953203-.0774.201677-.91312.62373-1.85718.937889-2.15896.718456-2.69293 1.264792-2.47344 2.530688.0899.518351.23534 1.352664.32323 1.854025.12989.740887.0552.976889-.39883 1.260443-.64937.405541-.73338 1.340245-.163 1.813621.3467.287731.32911.421779-.14214 1.083592-.4876.684776-.52165 1.010672-.3649 3.49307.16081 2.546762.13278 2.788217-.40172 3.459857-.31603.397113-1.01784.845127-1.55958.995586-.8961.248876-5.93395.359601-6.56857.144367z" fill="#445275" stroke-width=".265885"/><path d="m138.72874 375.74782c-6.89667-.67914-17.82947-2.33123-24.2951-3.67132-15.434893-3.19907-43.887919-12.08645-43.887919-13.7085 0-2.58716 8.753571-3.35472 17.183316-1.50671 4.77356 1.04648 13.263933 2.90618 18.867473 4.13266 39.636 8.67536 86.15485 6.25265 123.39487-6.42641 30.18038-10.27549 71.3017-36.35194 90.6107-57.45937 17.26268-18.87054 29.0646-40.20149 35.49688-64.15762 5.14761-19.17151 4.84216-49.47857-.71021-70.46443-11.53392-43.59393-38.25205-77.792687-79.9136-102.288087-39.54661-23.25189-80.87108-33.52653-128.12555-31.85628-23.58868.83377-41.74747 3.18174-44.40653 5.74188-.71627.68962-1.22188 21.96913-1.12357 47.28781l.17875 46.033937 8.27233 8.62085c11.90793 12.4096 15.92085 22.26359 15.91039 39.06899-.01 16.13769-4.24172 26.82005-14.7735 37.29394-14.527853 14.44798-33.59931 19.10251-53.501417 13.05744-9.914237-3.01136-12.690881-4.74166-21.080459-13.13647-7.260496-7.26505-10.380025-11.8112-12.549833-18.28915-3.304928-9.86685-3.795101-25.9975-1.074504-35.35982 2.670742-9.19076 10.620549-20.42273 17.968201-25.38656 14.301392-9.66154 14.022868-9.07492 21.39164-45.054857 7.883276-38.49213 9.820694-44.65072 16.406178-52.15127 6.128821-6.98042 13.418601-10.19245 32.331514-14.24592 62.60992-13.41875 124.40192-4.23296 174.25421 25.90405 33.58077 20.30044 66.35169 54.029977 81.22148 83.597347 32.38274 64.3904 16.51083 138.0226-40.68847 188.75997-48.33468 42.87424-115.27479 62.76216-187.35727 55.6639z" fill="#354159" stroke-width="1.567426" transform="matrix(.17711208 0 0 .17711208 12.670866 13.150004)"/><circle cx="24.300848" cy="44.896801" fill="#49bd2e" r="6"/></g></svg>