<svg height="96" width="96" xmlns="http://www.w3.org/2000/svg" xmlns:xlink="http://www.w3.org/1999/xlink"><linearGradient id="a"><stop offset="0" stop-color="#ffedb8"/><stop offset="1" stop-color="#fefefe" stop-opacity="0"/></linearGradient><linearGradient id="b"><stop offset="0" stop-color="#fefefe"/><stop offset="1" stop-color="#fefefe" stop-opacity="0"/></linearGradient><linearGradient id="c" gradientUnits="userSpaceOnUse" x1="36.357143" x2="36.357143" xlink:href="#b" y1="6" y2="63.893143"/><linearGradient id="d" gradientUnits="userSpaceOnUse" x1="48" x2="48" y1="90" y2="5.987717"><stop offset="0" stop-color="#b4b4b4"/><stop offset="1" stop-color="#e6e6e6"/></linearGradient><radialGradient id="e" cx="47.098362" cy="78.286942" gradientTransform="matrix(1.3830053 -.00000001 0 1.3123934 -18.038924 -24.218731)" gradientUnits="userSpaceOnUse" r="38.957481"><stop offset="0" stop-color="#300b0b"/><stop offset="1" stop-color="#3f0000"/></radialGradient><linearGradient id="f" gradientUnits="userSpaceOnUse" x1="43.03676446513" x2="43.03676446513" y1="11.9705884" y2="84.33264926334"><stop offset="0" stop-color="#919191"/><stop offset="1" stop-color="#fdfdfd"/></linearGradient><radialGradient id="g" cx="48" cy="90.171875" gradientTransform="matrix(1.1573129 0 0 .99590774 -7.551021 .197132)" gradientUnits="userSpaceOnUse" r="42" xlink:href="#b"/><clipPath id="h"><rect height="84" rx="6" width="84" x="6" y="6"/></clipPath><filter id="i" color-interpolation-filters="sRGB" height="1.384" width="1.384" x="-.192" y="-.192"><feGaussianBlur stdDeviation="5.28"/></filter><linearGradient id="j" gradientUnits="userSpaceOnUse" x1="48" x2="48" xlink:href="#b" y1="20.220806" y2="138.66119"/><linearGradient id="k" gradientTransform="matrix(1.0058652 0 0 .994169 100 0)" gradientUnits="userSpaceOnUse" x1="45.447727" x2="45.447727" y1="92.539597" y2="7.01654"><stop offset="0"/><stop offset="1" stop-opacity=".588235"/></linearGradient><linearGradient id="l" gradientTransform="matrix(1.0238095 0 0 1.0119048 -1.142857 -98.071429)" gradientUnits="userSpaceOnUse" x1="32.251034" x2="32.251034" xlink:href="#k" y1="6.131708" y2="90.238609"/><linearGradient id="m" gradientTransform="translate(0 -97)" gradientUnits="userSpaceOnUse" x1="32.251034" x2="32.251034" xlink:href="#k" y1="6.131708" y2="90.238609"/><linearGradient id="n" gradientTransform="matrix(0 1 1 0 0 0)" gradientUnits="userSpaceOnUse" x1="18" x2="78" y1="47.5" y2="47.5"><stop offset="0" stop-color="#f00"/><stop offset="1" stop-color="#5a0000"/></linearGradient><linearGradient id="o" gradientUnits="userSpaceOnUse" spreadMethod="reflect" x1="48" x2="48" xlink:href="#a" y1="64" y2="80"/><linearGradient id="p" gradientUnits="userSpaceOnUse" spreadMethod="reflect" x1="48" x2="48" xlink:href="#a" y1="32" y2="48"/><g><g fill="url(#l)"><path d="m12-95.03125c-5.5110903 0-10.03125 4.52016-10.03125 10.03125v71c0 5.5110902 4.5201598 10.03125 10.03125 10.03125h72c5.51109 0 10.03125-4.5201597 10.03125-10.03125v-71c0-5.51109-4.52016-10.03125-10.03125-10.03125z" opacity=".08" transform="scale(1 -1)"/><path d="m12-94.03125c-4.971633 0-9.03125 4.059617-9.03125 9.03125v71c0 4.9716329 4.0596171 9.03125 9.03125 9.03125h72c4.971633 0 9.03125-4.059617 9.03125-9.03125v-71c0-4.971633-4.059617-9.03125-9.03125-9.03125z" opacity=".1" transform="scale(1 -1)"/><path d="m12-93c-4.4091333 0-8 3.590867-8 8v71c0 4.4091333 3.5908667 8 8 8h72c4.409133 0 8-3.5908667 8-8v-71c0-4.409133-3.590867-8-8-8z" opacity=".2" transform="scale(1 -1)"/><rect height="85" opacity=".3" rx="7" transform="scale(1 -1)" width="86" x="5" y="-92"/></g><rect fill="url(#m)" height="84" opacity=".45" rx="6" transform="scale(1 -1)" width="84" x="6" y="-91"/></g><rect fill="url(#e)" height="78.516495" rx="5.852768" ry="6.173287" width="77.914963" x="8.140881" y="8.254433"/><path d="m18 20c0-1.108.892-2 2-2h24c1.108 0 2 .892 2 2v24c0 1.108-.892 2-2 2h-24c-1.108 0-2-.892-2-2zm0 32c0-1.108.892-2 2-2h24c1.108 0 2 .892 2 2v24c0 1.108-.892 2-2 2h-24c-1.108 0-2-.892-2-2zm32-32c0-1.108.892-2 2-2h24c1.108 0 2 .892 2 2v24c0 1.108-.892 2-2 2h-24c-1.108 0-2-.892-2-2zm0 32c0-1.108.892-2 2-2h24c1.108 0 2 .892 2 2v24c0 1.108-.892 2-2 2h-24c-1.108 0-2-.892-2-2z" fill="url(#n)"/><path d="m24 23v2.001086l4.005823 1.546558-4.005823 1.516235v1.936121l5.973363-2.458237.026637-1.921053z" fill="#fefefe"/><path d="m30 30v2h6v-2z" fill="#fefefe"/><path d="m19 13c-3.289406 0-6 2.710594-6 6v58c0 3.289406 2.710594 6 6 6h58c3.289406 0 6-2.710594 6-6v-58c0-3.289406-2.710594-6-6-6zm0 4h58c1.142594 0 2 .857406 2 2v58c0 1.142594-.857406 2-2 2h-58c-1.142594 0-2-.857406-2-2v-58c0-1.142594.857406-2 2-2z" opacity=".15"/><path d="m17 14c-1.662 0-3 1.338-3 3v62c0 1.662 1.338 3 3 3h62c1.662 0 3-1.338 3-3v-62c0-1.662-1.338-3-3-3zm0 1.9375h62c.618163 0 1.0625.444337 1.0625 1.0625v62c0 .618163-.444337 1.0625-1.0625 1.0625h-62c-.618163 0-1.0625-.444337-1.0625-1.0625v-62c0-.618163.444337-1.0625 1.0625-1.0625z" opacity=".3"/><path d="m17 14c-1.662 0-3 1.338-3 3v62c0 1.662 1.338 3 3 3h62c1.662 0 3-1.338 3-3v-62c0-1.662-1.338-3-3-3zm0 .96875h62c1.140081 0 2.03125.891169 2.03125 2.03125v62c0 1.140081-.891169 2.03125-2.03125 2.03125h-62c-1.140081 0-2.03125-.891169-2.03125-2.03125v-62c0-1.140081.891169-2.03125 2.03125-2.03125z" opacity=".6"/><g fill="#fefefe"><path d="m56 23v2.001086l4.005823 1.546558-4.005823 1.516235v1.936121l5.973363-2.458237.026637-1.921053z"/><path d="m62 30v2h6v-2z"/><path d="m24 55v2.001086l4.005823 1.546558-4.005823 1.516235v1.936121l5.973363-2.458237.026637-1.921053z"/><path d="m30 62v2h6v-2z"/><path d="m56 55v2.001086l4.005823 1.546558-4.005823 1.516235v1.936121l5.973363-2.458237.026637-1.921053z"/><path d="m62 62v2h6v-2z"/></g><path d="m20 18c-1.108 0-2 .892-2 2v24c0 1.108.892 2 2 2h24c1.108 0 2-.892 2-2v-24c0-1.108-.892-2-2-2zm32 0c-1.108 0-2 .892-2 2v24c0 1.108.892 2 2 2h24c1.108 0 2-.892 2-2v-24c0-1.108-.892-2-2-2zm-32 1.28125h24c.41998 0 .71875.29877.71875.71875v24c0 .41998-.29877.71875-.71875.71875h-24c-.41998 0-.71875-.29877-.71875-.71875v-24c0-.41998.29877-.71875.71875-.71875zm32 0h24c.41998 0 .71875.29877.71875.71875v24c0 .41998-.29877.71875-.71875.71875h-24c-.41998 0-.71875-.29877-.71875-.71875v-24c0-.41998.29877-.71875.71875-.71875zm-32 30.71875c-1.108 0-2 .892-2 2v24c0 1.108.892 2 2 2h24c1.108 0 2-.892 2-2v-24c0-1.108-.892-2-2-2zm32 0c-1.108 0-2 .892-2 2v24c0 1.108.892 2 2 2h24c1.108 0 2-.892 2-2v-24c0-1.108-.892-2-2-2zm-32 1.28125h24c.41998 0 .71875.29877.71875.71875v24c0 .41998-.29877.71875-.71875.71875h-24c-.41998 0-.71875-.29877-.71875-.71875v-24c0-.41998.29877-.71875.71875-.71875zm32 0h24c.41998 0 .71875.29877.71875.71875v24c0 .41998-.29877.71875-.71875.71875h-24c-.41998 0-.71875-.29877-.71875-.71875v-24c0-.41998.29877-.71875.71875-.71875z" fill="#2b0000" opacity=".3"/><path d="m18.28125 51c-.17038.294551-.28125.633901-.28125 1h28c0-.366099-.11087-.705449-.28125-1zm32 0c-.17038.294551-.28125.633901-.28125 1h28c0-.366099-.11087-.705449-.28125-1zm-32.28125 4v1h28v-1zm32 0v1h28v-1zm-32 4v1h28v-1zm32 0v1h28v-1zm-32 4v1h28v-1zm32 0v1h28v-1zm-32 4v1h28v-1zm32 0v1h28v-1zm-32 4v1h28v-1zm32 0v1h28v-1zm-32 4v1h28v-1zm32 0v1h28v-1z" fill="url(#o)" opacity=".3"/><path d="m18.28125 19c-.17038.294551-.28125.633901-.28125 1h28c0-.366099-.11087-.705449-.28125-1zm32 0c-.17038.294551-.28125.633901-.28125 1h28c0-.366099-.11087-.705449-.28125-1zm-32.28125 4v1h28v-1zm32 0v1h28v-1zm-32 4v1h28v-1zm32 0v1h28v-1zm-32 4v1h28v-1zm32 0v1h28v-1zm-32 4v1h28v-1zm32 0v1h28v-1zm-32 4v1h28v-1zm32 0v1h28v-1zm-32 4v1h28v-1zm32 0v1h28v-1z" fill="url(#p)" opacity=".3"/><path d="m14 8.25c-3.242433 0-5.84375 2.7675-5.84375 6.1875v44.0625c18.824054-13.858898 45.811664-23.793657 77.90625-21.78125v-22.28125c0-3.420001-2.63257-6.1875-5.875-6.1875z" fill="#fca" opacity=".2"/><g><path d="m12 6c-3.324 0-6 2.676-6 6v72c0 3.324 2.676 6 6 6h72c3.324 0 6-2.676 6-6v-72c0-3.324-2.676-6-6-6zm5 7h62c2.216001 0 4 1.784 4 4v62c.000001 2.216001-1.784 4-4 4h-62c-2.215999.000001-4-1.784-4-4v-62c0-2.215999 1.784-4 4-4z" fill="url(#d)"/><path d="m12 6c-3.324 0-6 2.676-6 6v2 68 2c0 .334721.04135.6507.09375.96875.0487.295596.09704.596915.1875.875.00988.03038.020892.0636.03125.09375.098865.287771.2348802.547452.375.8125.1445918.273507.3156161.535615.5.78125s.3737765.473472.59375.6875c.439947.428056.94291.814526 1.5 1.09375.278545.139612.5734731.246947.875.34375-.2562018-.100222-.4867109-.236272-.71875-.375-.00741-.0044-.023866.0045-.03125 0-.031933-.0193-.062293-.04251-.09375-.0625-.120395-.0767-.2310226-.163513-.34375-.25-.1061728-.0808-.2132809-.161112-.3125-.25-.1779299-.161433-.3474596-.345388-.5-.53125-.1075789-.130255-.2183939-.265285-.3125-.40625-.025089-.03838-.038446-.08587-.0625-.125-.064763-.103032-.1302275-.204517-.1875-.3125-.1010083-.194706-.2056748-.415701-.28125-.625-.00796-.02181-.023589-.04055-.03125-.0625-.0318251-.09195-.0358045-.186831-.0625-.28125-.0303323-.106618-.0703894-.203031-.09375-.3125-.0728786-.341512-.125-.698205-.125-1.0625v-2-68-2c0-2.781848 2.2181517-5 5-5h2 68 2c2.781848 0 5 2.218152 5 5v2 68 2c0 .364295-.05212.720988-.125 1.0625-.04415.206893-.08838.397658-.15625.59375-.0077.02195-.0233.04069-.03125.0625-.06274.173739-.138383.367449-.21875.53125-.04158.0828-.07904.169954-.125.25-.0546.09721-.126774.18835-.1875.28125-.09411.140965-.204921.275995-.3125.40625-.143174.17445-.303141.346998-.46875.5-.01117.0102-.01998.02115-.03125.03125-.138386.125556-.285091.234436-.4375.34375-.102571.07315-.204318.153364-.3125.21875-.0074.0045-.02384-.0044-.03125 0-.232039.138728-.462548.274778-.71875.375.301527-.0968.596455-.204138.875-.34375.55709-.279224 1.060053-.665694 1.5-1.09375.219973-.214028.409366-.441865.59375-.6875s.355408-.507743.5-.78125c.14012-.265048.276135-.524729.375-.8125.01041-.03078.02133-.06274.03125-.09375.09046-.278085.1388-.579404.1875-.875.0524-.31805.09375-.634029.09375-.96875v-2-68-2c0-3.324-2.676-6-6-6z" fill="url(#c)" opacity=".5"/><path d="m17 12c-2.752703 0-5 2.247297-5 5v62c0 2.752703 2.247298 5 5 5h62c2.752703 0 5.000001-2.247297 5-5v-62c0-2.752703-2.247297-5-5-5zm0 2h62c1.679298 0 3 1.320703 3 3v62c.000001 1.679297-1.320703 3-3 3h-62c-1.679296 0-3-1.320703-3-3v-62c0-1.679297 1.320703-3 3-3z" fill="url(#f)"/><path d="m12 90c-3.324 0-6-2.676-6-6v-2-68-2c0-.334721.04135-.6507.09375-.96875.0487-.295596.09704-.596915.1875-.875.00988-.03038.020892-.0636.03125-.09375.098865-.287771.2348802-.547452.375-.8125.1445918-.273507.3156161-.535615.5-.78125s.3737765-.473472.59375-.6875c.439947-.428056.94291-.814526 1.5-1.09375.278545-.139612.5734731-.246947.875-.34375-.2562018.100222-.4867109.236272-.71875.375-.00741.0044-.023866-.0045-.03125 0-.031933.0193-.062293.04251-.09375.0625-.120395.0767-.2310226.163513-.34375.25-.1061728.0808-.2132809.161112-.3125.25-.1779299.161433-.3474596.345388-.5.53125-.1075789.130255-.2183939.265285-.3125.40625-.025089.03838-.038446.08587-.0625.125-.064763.103032-.1302275.204517-.1875.3125-.1010083.194706-.2056748.415701-.28125.625-.00796.02181-.023589.04055-.03125.0625-.0318251.09195-.0358045.186831-.0625.28125-.0303323.106618-.0703894.203031-.09375.3125-.0728786.341512-.125.698205-.125 1.0625v2 68 2c0 2.781848 2.2181517 5 5 5h2 68 2c2.781848 0 5-2.218152 5-5v-2-68-2c0-.364295-.05212-.720988-.125-1.0625-.04415-.206893-.08838-.397658-.15625-.59375-.0077-.02195-.0233-.04069-.03125-.0625-.06274-.173739-.138383-.367449-.21875-.53125-.04158-.0828-.07904-.169954-.125-.25-.0546-.09721-.126774-.18835-.1875-.28125-.09411-.140965-.204921-.275995-.3125-.40625-.143174-.17445-.303141-.346998-.46875-.5-.01117-.0102-.01998-.02115-.03125-.03125-.138386-.125556-.285091-.234436-.4375-.34375-.102571-.07315-.204318-.153364-.3125-.21875-.0074-.0045-.02384.0044-.03125 0-.232039-.138728-.462548-.274778-.71875-.375.301527.0968.596455.204138.875.34375.55709.279224 1.060053.665694 1.5 1.09375.219973.214028.409366.441865.59375.6875s.355408.507743.5.78125c.14012.265048.276135.524729.375.8125.01041.03078.02133.06274.03125.09375.09046.278085.1388.579404.1875.875.0524.31805.09375.634029.09375.96875v2 68 2c0 3.324-2.676 6-6 6z" fill="url(#g)" opacity=".4"/><rect height="66" rx="12" style="opacity:.1;stroke:#fefefe;stroke-width:.5;stroke-linecap:round;clip-path:url(#h);fill:url(#j);filter:url(#i)" width="66" x="15" y="15"/></g></svg>