<svg height="96" width="96" xmlns="http://www.w3.org/2000/svg" xmlns:xlink="http://www.w3.org/1999/xlink"><linearGradient id="a"><stop offset="0" stop-color="#fefefe"/><stop offset="1" stop-color="#fefefe" stop-opacity="0"/></linearGradient><linearGradient id="b" gradientUnits="userSpaceOnUse" x1="36.357143" x2="36.357143" xlink:href="#a" y1="6" y2="63.893143"/><filter id="c" color-interpolation-filters="sRGB" height="1.384" width="1.384" x="-.192" y="-.192"><feGaussianBlur stdDeviation="5.28"/></filter><linearGradient id="d" gradientUnits="userSpaceOnUse" x1="48" x2="48" xlink:href="#a" y1="20.220806" y2="138.66119"/><radialGradient id="e" cx="48" cy="90.171875" gradientTransform="matrix(1.1573129 0 0 .99590774 -7.551021 .197132)" gradientUnits="userSpaceOnUse" r="42" xlink:href="#a"/><clipPath id="f"><rect height="84" rx="6" width="84" x="6" y="6"/></clipPath><linearGradient id="g" gradientUnits="userSpaceOnUse" x1="48" x2="48" y1="90" y2="5.987717"><stop offset="0" stop-color="#c83737"/><stop offset="1" stop-color="#de8787"/></linearGradient><linearGradient id="h" gradientUnits="userSpaceOnUse" x1="48" x2="48" xlink:href="#a" y1="6" y2="109.10714"/><linearGradient id="i"><stop offset="0" stop-color="#ef2929"/><stop offset="1" stop-color="#c00"/></linearGradient><linearGradient id="j"><stop offset="0" stop-color="#a40000"/><stop offset="1" stop-color="#300000"/></linearGradient><linearGradient id="k"><stop offset="0" stop-color="#310000"/><stop offset="1" stop-color="#310000" stop-opacity="0"/></linearGradient><linearGradient id="l"><stop offset="0" stop-color="#eeeeec"/><stop offset="1" stop-color="#eeeeec" stop-opacity="0"/></linearGradient><linearGradient id="m"><stop offset="0" stop-color="#fcaf3e"/><stop offset="1" stop-color="#f57900" stop-opacity="0"/></linearGradient><linearGradient id="n"><stop offset="0" stop-color="#f5f5f4"/><stop offset="1" stop-color="#f5f5f4" stop-opacity="0"/></linearGradient><linearGradient id="o" gradientTransform="matrix(.901767 0 0 1 1.455816 0)" gradientUnits="userSpaceOnUse" x1="32.400002" x2="32.400002" y1="17.6" y2="42.369164"><stop offset="0" stop-color="#7f4e01"/><stop offset="1" stop-color="#402700"/></linearGradient><linearGradient id="p" gradientTransform="matrix(.901767 0 0 1 1.455816 0)" gradientUnits="userSpaceOnUse" x1="17.6" x2="32.400002" y1="48.400002" y2="48.400002"><stop offset="0" stop-color="#e9b96e"/><stop offset="1" stop-color="#774a01"/></linearGradient><linearGradient id="q" gradientUnits="userSpaceOnUse" x1="24" x2="24.922859" y1="40" y2="48.449749"><stop offset="0" stop-color="#5f3a00"/><stop offset="1" stop-color="#5f3a00" stop-opacity="0"/></linearGradient><linearGradient id="r" gradientUnits="userSpaceOnUse" x1="19.348167" x2="29.712492" y1="31.764088" y2="33"><stop offset="0" stop-color="#f1d09e"/><stop offset="1" stop-color="#8f5902"/></linearGradient><radialGradient cx="18.63378" cy="17.486208" fx="18.934305" fy="17.810213" gradientTransform="scale(1.036822 .964486)" gradientUnits="userSpaceOnUse" r="40.692665"><stop offset="0" stop-color="#fefefe"/><stop offset=".37931034" stop-color="#fefefe"/><stop offset="1" stop-color="#1d1d1d"/></radialGradient><linearGradient id="s" gradientUnits="userSpaceOnUse" x1="21.40311896558" x2="60.31638305559" xlink:href="#n" y1="14.29430705834" y2="14.29430705834"/><linearGradient id="t" gradientUnits="userSpaceOnUse" x1="28.7414339773" x2="25.71185414772" y1="47.24222201398" y2="38.01883659782"><stop offset="0" stop-color="#252829"/><stop offset="1" stop-color="#252829" stop-opacity="0"/></linearGradient><linearGradient id="u" gradientUnits="userSpaceOnUse" x1="18.71015928633" x2="23.42283834418" xlink:href="#n" y1="37.68221492412" y2="23.27487980225"/><linearGradient id="v" gradientUnits="userSpaceOnUse" x1="40.11918622286" x2="46.98623515683" xlink:href="#m" y1="58.6872995083" y2="58.55265053414"/><linearGradient id="w" gradientUnits="userSpaceOnUse" x1="41.335265" x2="54.855156" xlink:href="#m" y1="52.1869739997" y2="52.1869739997"/><linearGradient id="x" gradientUnits="userSpaceOnUse" x1="46.8991426849" x2="55.78600696966" xlink:href="#i" y1="59.77843925892" y2="59.64379485487"/><linearGradient id="y" gradientUnits="userSpaceOnUse" x1="39.89744934688" x2="56.99784012019" xlink:href="#j" y1="56.54688977653" y2="56.54688977653"/><linearGradient id="z" gradientUnits="userSpaceOnUse" x1="45.97014413073" x2="53.16235444094" xlink:href="#i" y1="60.05502347637" y2="58.84319032584"/><linearGradient id="A" gradientUnits="userSpaceOnUse" x1="38.56450234688" x2="50.60404221246" xlink:href="#j" y1="62.74798010889" y2="63.62319158572"/><linearGradient id="B" gradientUnits="userSpaceOnUse" x1="41.06172294845" x2="56.27694429839" y1="75.04702723664" y2="62.79406199089"><stop offset="0" stop-color="#ffd79a"/><stop offset="1" stop-color="#eeb660" stop-opacity="0"/></linearGradient><linearGradient id="C" gradientTransform="matrix(1.5044066 -.23960751 .23960751 1.5044066 -1.475922 17.554518)" gradientUnits="userSpaceOnUse" x1="9.375" x2="13.3125" xlink:href="#m" y1="39.6875" y2="35"/><linearGradient id="D" gradientTransform="matrix(1.5160299 -.0190116 .0890815 1.3278788 10.124487 11.276744)" gradientUnits="userSpaceOnUse" x1="12.900058" x2="18.573477" xlink:href="#l" y1="12.908146" y2="9.713074"/><linearGradient id="E" gradientTransform="matrix(-1.5160299 -.0190116 -.0890815 1.3278788 85.606228 11.221376)" gradientUnits="userSpaceOnUse" x1="12.254768" x2="20.264099" xlink:href="#l" y1="14.820889" y2="8.148527"/><linearGradient id="F" gradientTransform="matrix(1.5211591 -.07736135 -.08200762 -1.4349746 11.924619 38.648373)" gradientUnits="userSpaceOnUse" x1="23.906006" x2="24.746471" xlink:href="#l" y1="6.046648" y2="21.63644"/><linearGradient id="G" gradientUnits="userSpaceOnUse" x1="66.00580302074" x2="66.00580302074" xlink:href="#l" y1="38.367403" y2="28.27509"/><linearGradient id="H" gradientTransform="matrix(1.5044066 -.23960751 .23960751 1.5044066 -1.475922 17.554518)" gradientUnits="userSpaceOnUse" x1="32.877865" x2="39.863144" y1="31.905155" y2="36.030155"><stop offset="0" stop-color="#fcaf3e"/><stop offset="1" stop-color="#fcaf3e" stop-opacity="0"/></linearGradient><linearGradient id="I" gradientTransform="matrix(1.5044066 -.23960751 .23960751 1.5044066 -1.475922 17.554518)" gradientUnits="userSpaceOnUse" x1="36.125" x2="35.65625" xlink:href="#k" y1="37.699108" y2="41.324108"/><linearGradient id="J" gradientUnits="userSpaceOnUse" x1="38.85341670492" x2="40.39433999775" y1="21.9862125399" y2="47.26683050066"><stop offset="0" stop-color="#d3d7cf"/><stop offset="1" stop-color="#555856"/></linearGradient><radialGradient id="K" cx="25" cy="-14.44571" gradientTransform="matrix(-3.4086029 0 0 -1.5387479 133.21507 8.750604)" gradientUnits="userSpaceOnUse" r="20"><stop offset="0" stop-color="#30312f"/><stop offset="1" stop-color="#555753" stop-opacity="0"/></radialGradient><linearGradient id="L" gradientUnits="userSpaceOnUse" x1="57.3176849421" x2="50.35829401007" y1="47.26683050066" y2="8.24323038978"><stop offset="0" stop-color="#e1e2df"/><stop offset="1" stop-color="#888a85"/></linearGradient><linearGradient id="M" gradientUnits="userSpaceOnUse" x1="44.45816787663" x2="51.82850408371" y1="8.96098655013" y2="46.81325224876"><stop offset="0" stop-color="#60625e"/><stop offset="1" stop-color="#1d2122"/></linearGradient><linearGradient id="N" gradientTransform="matrix(1.5044066 -.23960751 .23960751 1.5044066 -1.475922 17.554518)" gradientUnits="userSpaceOnUse" x1="25.4125" x2="41.900002" xlink:href="#i" y1="35.893593" y2="35.893593"/><linearGradient id="O" gradientTransform="matrix(1.5044066 -.23960751 .23960751 1.5044066 -1.475922 17.554518)" gradientUnits="userSpaceOnUse" x1="30.0375" x2="41.212502" xlink:href="#j" y1="32.262184" y2="39.525002"/><linearGradient id="P" gradientTransform="matrix(1.5044066 -.23960751 .23960751 1.5044066 2.832813 16.881277)" gradientUnits="userSpaceOnUse" x1="20.375" x2="11.5625" xlink:href="#k" y1="38.40625" y2="37.71875"/><linearGradient id="Q" gradientTransform="matrix(1.5044066 -.23960751 .23960751 1.5044066 -1.475922 17.554518)" gradientUnits="userSpaceOnUse" x1="7.225" x2="42.108513" xlink:href="#i" y1="37.761219" y2="37.761219"/><linearGradient id="R" gradientTransform="matrix(1.5044066 -.23960751 .23960751 1.5044066 -1.475922 17.554518)" gradientUnits="userSpaceOnUse" x1="7.225" x2="42.108513" xlink:href="#j" y1="37.761219" y2="37.761219"/><linearGradient id="S" gradientTransform="matrix(1.0058652 0 0 .994169 100 0)" gradientUnits="userSpaceOnUse" x1="45.447727" x2="45.447727" y1="92.539597" y2="7.01654"><stop offset="0"/><stop offset="1" stop-opacity=".588235"/></linearGradient><linearGradient id="T" gradientTransform="matrix(1.0238095 0 0 1.0119048 -1.142857 -98.071429)" gradientUnits="userSpaceOnUse" x1="32.251034" x2="32.251034" xlink:href="#S" y1="6.131708" y2="90.238609"/><linearGradient id="U" gradientTransform="translate(0 -97)" gradientUnits="userSpaceOnUse" x1="32.251034" x2="32.251034" xlink:href="#S" y1="6.131708" y2="90.238609"/><g><g fill="url(#T)"><path d="m12-95.03125c-5.5110903 0-10.03125 4.52016-10.03125 10.03125v71c0 5.5110902 4.5201598 10.03125 10.03125 10.03125h72c5.51109 0 10.03125-4.5201597 10.03125-10.03125v-71c0-5.51109-4.52016-10.03125-10.03125-10.03125z" opacity=".08" transform="scale(1 -1)"/><path d="m12-94.03125c-4.971633 0-9.03125 4.059617-9.03125 9.03125v71c0 4.9716329 4.0596171 9.03125 9.03125 9.03125h72c4.971633 0 9.03125-4.059617 9.03125-9.03125v-71c0-4.971633-4.059617-9.03125-9.03125-9.03125z" opacity=".1" transform="scale(1 -1)"/><path d="m12-93c-4.4091333 0-8 3.590867-8 8v71c0 4.4091333 3.5908667 8 8 8h72c4.409133 0 8-3.5908667 8-8v-71c0-4.409133-3.590867-8-8-8z" opacity=".2" transform="scale(1 -1)"/><rect height="85" opacity=".3" rx="7" transform="scale(1 -1)" width="86" x="5" y="-92"/></g><rect fill="url(#U)" height="84" opacity=".45" rx="6" transform="scale(1 -1)" width="84" x="6" y="-91"/></g><rect fill="url(#g)" height="84" rx="6" width="84" x="6" y="6"/><path d="m12 6c-3.324 0-6 2.676-6 6v2 68 2c0 .334721.04135.6507.09375.96875.0487.295596.09704.596915.1875.875.00988.03038.020892.0636.03125.09375.098865.287771.2348802.547452.375.8125.1445918.273507.3156161.535615.5.78125s.3737765.473472.59375.6875c.439947.428056.94291.814526 1.5 1.09375.278545.139612.5734731.246947.875.34375-.2562018-.100222-.4867109-.236272-.71875-.375-.00741-.0044-.023866.0045-.03125 0-.031933-.0193-.062293-.04251-.09375-.0625-.120395-.0767-.2310226-.163513-.34375-.25-.1061728-.0808-.2132809-.161112-.3125-.25-.1779299-.161433-.3474596-.345388-.5-.53125-.1075789-.130255-.2183939-.265285-.3125-.40625-.025089-.03838-.038446-.08587-.0625-.125-.064763-.103032-.1302275-.204517-.1875-.3125-.1010083-.194706-.2056748-.415701-.28125-.625-.00796-.02181-.023589-.04055-.03125-.0625-.0318251-.09195-.0358045-.186831-.0625-.28125-.0303323-.106618-.0703894-.203031-.09375-.3125-.0728786-.341512-.125-.698205-.125-1.0625v-2-68-2c0-2.781848 2.2181517-5 5-5h2 68 2c2.781848 0 5 2.218152 5 5v2 68 2c0 .364295-.05212.720988-.125 1.0625-.04415.206893-.08838.397658-.15625.59375-.0077.02195-.0233.04069-.03125.0625-.06274.173739-.138383.367449-.21875.53125-.04158.0828-.07904.169954-.125.25-.0546.09721-.126774.18835-.1875.28125-.09411.140965-.204921.275995-.3125.40625-.143174.17445-.303141.346998-.46875.5-.01117.0102-.01998.02115-.03125.03125-.138386.125556-.285091.234436-.4375.34375-.102571.07315-.204318.153364-.3125.21875-.0074.0045-.02384-.0044-.03125 0-.232039.138728-.462548.274778-.71875.375.301527-.0968.596455-.204138.875-.34375.55709-.279224 1.060053-.665694 1.5-1.09375.219973-.214028.409366-.441865.59375-.6875s.355408-.507743.5-.78125c.14012-.265048.276135-.524729.375-.8125.01041-.03078.02133-.06274.03125-.09375.09046-.278085.1388-.579404.1875-.875.0524-.31805.09375-.634029.09375-.96875v-2-68-2c0-3.324-2.676-6-6-6z" fill="url(#b)" opacity=".5"/><path d="m12 90c-3.324 0-6-2.676-6-6v-2-68-2c0-.334721.04135-.6507.09375-.96875.0487-.295596.09704-.596915.1875-.875.00988-.03038.020892-.0636.03125-.09375.098865-.287771.2348802-.547452.375-.8125.1445918-.273507.3156161-.535615.5-.78125s.3737765-.473472.59375-.6875c.439947-.428056.94291-.814526 1.5-1.09375.278545-.139612.5734731-.246947.875-.34375-.2562018.100222-.4867109.236272-.71875.375-.00741.0044-.023866-.0045-.03125 0-.031933.0193-.062293.04251-.09375.0625-.120395.0767-.2310226.163513-.34375.25-.1061728.0808-.2132809.161112-.3125.25-.1779299.161433-.3474596.345388-.5.53125-.1075789.130255-.2183939.265285-.3125.40625-.025089.03838-.038446.08587-.0625.125-.064763.103032-.1302275.204517-.1875.3125-.1010083.194706-.2056748.415701-.28125.625-.00796.02181-.023589.04055-.03125.0625-.0318251.09195-.0358045.186831-.0625.28125-.0303323.106618-.0703894.203031-.09375.3125-.0728786.341512-.125.698205-.125 1.0625v2 68 2c0 2.781848 2.2181517 5 5 5h2 68 2c2.781848 0 5-2.218152 5-5v-2-68-2c0-.364295-.05212-.720988-.125-1.0625-.04415-.206893-.08838-.397658-.15625-.59375-.0077-.02195-.0233-.04069-.03125-.0625-.06274-.173739-.138383-.367449-.21875-.53125-.04158-.0828-.07904-.169954-.125-.25-.0546-.09721-.126774-.18835-.1875-.28125-.09411-.140965-.204921-.275995-.3125-.40625-.143174-.17445-.303141-.346998-.46875-.5-.01117-.0102-.01998-.02115-.03125-.03125-.138386-.125556-.285091-.234436-.4375-.34375-.102571-.07315-.204318-.153364-.3125-.21875-.0074-.0045-.02384.0044-.03125 0-.232039-.138728-.462548-.274778-.71875-.375.301527.0968.596455.204138.875.34375.55709.279224 1.060053.665694 1.5 1.09375.219973.214028.409366.441865.59375.6875s.355408.507743.5.78125c.14012.265048.276135.524729.375.8125.01041.03078.02133.06274.03125.09375.09046.278085.1388.579404.1875.875.0524.31805.09375.634029.09375.96875v2 68 2c0 3.324-2.676 6-6 6z" fill="url(#e)" opacity=".2"/><path d="m20.875 6 25.78125 40.65625-40.65625-26.15625v18.5l40.21875 9-40.21875 8.75v18.375l40.65625-25.78125-26.15625 40.65625h18.5l9-40.21875 8.75 40.21875h18.375l-25.78125-40.65625 40.65625 26.15625v-18.5l-40.21875-9 40.21875-8.75v-18.375l-40.65625 25.78125 26.15625-40.65625h-18.5l-9 40.21875-8.75-40.21875z" fill="url(#h)" opacity=".45"/><rect height="66" rx="12" style="opacity:.1;stroke:#fefefe;stroke-width:.5;stroke-linecap:round;clip-path:url(#f);fill:url(#d);filter:url(#c)" width="66" x="15" y="15"/><path d="m46.46875 10.28125c-8.560134.0675-17.174453.114363-25.75.65625a.93158643.93158643 0 0 0 -.1875.03125c-1.381563.368494-2.029073 1.593541-2.34375 2.625s-.48987 2.049688-.75 2.5625a.93158643.93158643 0 0 0 -.0625.15625c-1.844086 6.590432-3.33841 13.34153-4.03125 20.1875a.93158643.93158643 0 0 0 .0625.375c1.443614 4.485651 3.351101 8.918108 5.59375 13.0625a.93158643.93158643 0 0 0 .1875.25c.959842.897361 2.165975 1.00504 3.1875 1 1.021525-.005 1.948572-.08395 2.5625.0625a.93158643.93158643 0 0 0 .1875.03125c4.229386.166159 8.448049.311773 12.6875.40625-.290817 4.21665-.620559 8.42037-1 12.625-4.079128.767246-8.371052.412402-12.65625.125a.93158643.93158643 0 0 0 -.28125.03125c-1.172585.294132-1.860811 1.207505-2.3125 2s-.797946 1.550191-1.15625 1.96875a.93158643.93158643 0 0 0 -.09375.125c-1.366797 2.400449-3.112289 4.743662-4.375 7.40625a.93158643.93158643 0 0 0 -.0625.21875c-.22555 1.199434.354476 2.317771 1.1875 2.90625.782023.55245 1.76329.73538 2.71875.59375v.03125c5.412009-.03622 10.838752-.370263 16.21875-1.03125.312739 2.524788 1.611649 4.709572 3.46875 6.25 2.083974 1.728614 4.810303 2.697932 7.53125 2.71875.0018.000014-.0018.03124 0 .03125.0307.0029.06301-.0027.09375 0 2.725351.241613 5.606803-.372672 8-1.78125 2.35805-1.387891 4.219514-3.610116 4.78125-6.53125.0148-.07698.04954-.140798.0625-.21875h-.03125c.567382-1.549448.202018-3.225247.21875-4.21875.0088-.520049.110877-.6594.0625-.625-.04838.0344.234057-.110084 1.125.21875a.93158643.93158643 0 0 0 .34375.0625c3.595227-.139039 8.030731-.09131 11.25-2.875a.93158643.93158643 0 0 0 .0625-.0625c1.070281-1.100169 1.308403-2.561299 1.0625-3.8125-.241068-1.226598-.85669-2.307858-1.53125-3.1875-.01137-.01794-.01985-.04443-.03125-.0625-.999754-1.585143-2.121719-3.618855-3.625-5-1.225244-2.401003-3.697558-3.150478-5.875-3.4375-1.973097-.260086-3.668705-.315248-4.53125-.5625-.0921-1.318854-.335032-2.747959-.25-3.53125.05193-.47835.14965-.584906.28125-.65625.1316-.07134.608922-.151069 1.625.15625a.93158643.93158643 0 0 0 .3125.03125c4.955812-.244135 10.038203-.10076 15.09375-.59375a.93158643.93158643 0 0 0 .375-.125c1.136056-.655476 1.705143-1.737797 2.125-2.71875s.739011-1.932903 1.15625-2.5625a.93158643.93158643 0 0 0 .09375-.15625c1.142033-2.795372 2.694688-5.691611 3.375-8.875a.93158643.93158643 0 0 0 .03125-.3125c-.990827-8.078819-2.644968-16.187512-5.34375-23.90625a.93158643.93158643 0 0 0 -.15625-.28125c-.865204-1.081414-2.163697-1.275525-3.21875-1.28125-1.055053-.0057-2.025421.101958-2.625-.03125a.93158643.93158643 0 0 0 -.15625-.03125c-8.214475-.224773-16.459992-.413278-24.6875-.4375z" opacity=".05"/><path d="m46.46875 11.21875c-8.561483.06751-17.147621.116617-25.6875.65625-1.999706.533367-1.74535 3.186463-2.505281 4.684565-1.834733 6.557008-3.309204 13.260592-3.994719 20.034185 1.424938 4.427619 3.315495 8.811557 5.53125 12.90625 1.410599 1.318775 3.641528.4454 5.343864.851496 4.550823.178787 9.102602.338861 13.656136.429754-.326117 4.795291-.684559 9.588727-1.125 14.375-4.47203.994549-9.095238.520459-13.59375.21875-1.671736.41934-1.958961 2.47516-2.967216 3.652969-1.404878 2.467329-3.135924 4.79694-4.345284 7.347031-.31927 1.697822 1.512559 2.704597 3.001745 2.407123 5.691497-.03809 11.38471-.389699 17.029505-1.125873.03707 5.352479 5.22822 9.105676 10.273898 9.100556 5.104939.488994 11.048472-2.27215 11.958819-7.749349.994188-2.296283-1.443967-6.838568 2.582993-5.352274 3.619106-.139962 7.803585-.145806 10.687772-2.639755 1.698811-1.746252.66386-4.265436-.584426-5.872118-1.096305-1.72945-2.308033-3.926689-3.731556-5.11206-2.07265-4.061592-8.164842-2.576594-10.4306-3.647709.0084-2.74467-1.728403-7.109989 2.795975-5.741564 5.003658-.246492 10.062883-.09405 15.040875-.579477 1.74448-1.006522 1.927358-3.392507 2.973468-4.971047 1.167888-2.858657 2.696864-5.711553 3.339032-8.716453-.984905-8.03053-2.610898-16.081323-5.28125-23.71875-1.264433-1.580408-3.62652-.615086-5.328076-.993119-8.211713-.224697-16.425592-.420196-24.640674-.444381z" opacity=".1"/><path d="m46.46875 12.3125c-12.249228 0-24.4375.53125-24.4375.53125a.92940236.92940236 0 0 0 -.03125 0l-.84375.0625a.92940236.92940236 0 0 0 -.8125.65625l-.25.78125s-3.13698 9.283345-4.6875 21.6875a.92940236.92940236 0 0 0 0 .03125l-.03125.28125a.92940236.92940236 0 0 0 .0625.40625l.09375.21875s-.00006.03107 0 .03125c.0136.04119 1.558666 4.742332 4.65625 10.9375l.3125.625a.92940236.92940236 0 0 0 .8125.53125l.65625.03125h.03125c.0274.0015 8.534373.426841 18 .59375-.453442 6.881698-.903436 12.373122-1.28125 16.375-5.794496 1.554141-13.8125.40625-13.8125.40625a.92940236.92940236 0 0 0 -.0625-.03125l-.28125-.03125a.92940236.92940236 0 0 0 -.90625.46875l-.125.21875h.03125l-5.1875 8.5v.03125l-.375.5625a.92940236.92940236 0 0 0 .75 1.4375l.6875.03125s8.943675.158142 18.375-1.21875c-.0058.935192.01134 2.876107 1.1875 4.90625 1.367079 2.359682 4.332734 4.3125 9 4.3125 4.667264 0 7.63292-1.952819 9-4.3125 1.347047-2.325103 1.21875-4.799986 1.21875-5.4375 0-.639743-.06809-1.444852-.21875-2.84375-.02102-.195169-.06378-.556873-.09375-.875 1.989121.108768 3.875866.56802 6.71875.21875 2.696093-.331234 4.58699-.683163 5.9375-1.4375.67003-.374249 1.326474-.931069 1.53125-1.8125.164516-.70814-.06375-1.372905-.375-1.96875a.92940236.92940236 0 0 0 -.03125-.125c-.01144-.02044-.01952-.04228-.03125-.0625a.92940236.92940236 0 0 0 -.09375-.1875.92940236.92940236 0 0 0 -.0625-.09375v-.03125a.92940236.92940236 0 0 0 -.09375-.0625l-.21875-.3125c-.88197-1.572956-1.757198-2.858814-2.40625-3.75-.615339-.844897-.924121-1.215563-1.09375-1.40625-.02765-.0446-.03529-.02947-.0625-.0625-.02378-.03703-.0092-.03623-.03125-.0625h-.03125c-1.043038-1.576883-2.600808-2.543975-4.3125-2.9375-.890013-.204617-1.830332-.266423-2.75-.25-.934327.01669-1.864257.145544-2.8125.3125-.359427.06328-.707354.138465-1.0625.21875-.200572-2.572989-.417767-5.487762-.625-8.75 9.223995-.187498 17.96875-.53125 17.96875-.53125l.71875-.03125a.92940236.92940236 0 0 0 .8125-.53125l.3125-.625c3.097584-6.195168 4.642646-10.896312 4.65625-10.9375.00006-.000181 0-.03125 0-.03125l.09375-.21875a.92940236.92940236 0 0 0 .0625-.40625l-.03125-.28125a.92940236.92940236 0 0 0 0-.03125c-1.55052-12.404155-4.6875-21.6875-4.6875-21.6875l-.25-.8125a.92940236.92940236 0 0 0 -.84375-.65625l-.84375-.03125s-7.671943-.248371-16.5-.40625c-3.612624-.06459-7.438927-.125-11-.125z" opacity=".15"/><path d="m46.46875 13.25c-12.222299 0-24.40625.53125-24.40625.53125l-.84375.0625-.25.78125s-3.086366 9.222179-4.625 21.53125l-.03125.28125.09375.25s1.542487 4.678724 4.625 10.84375l.3125.625.6875.03125s8.822206.482327 18.96875.625c-.50073 7.776933-.995463 13.775454-1.40625 18.0625-.11256.03063-.301607.06422-.40625.09375-6.135149 1.731372-14.4375.4375-14.4375.4375l-.28125-.03125-.125.21875-5.1875 8.53125-.375.59375.6875.03125s9.554956.236089 19.28125-1.3125c-.0073.161897-.03125.371025-.03125.5 0 .722391-.09897 2.910028 1.09375 4.96875 1.192718 2.058722 3.770613 3.84375 8.1875 3.84375 4.416885 0 6.994781-1.785029 8.1875-3.84375s1.09375-4.246358 1.09375-4.96875c0-.564093-.06888-1.358393-.21875-2.75-.04859-.451151-.124691-1.338834-.1875-1.90625.35743-.0026.731519-.0175 1.0625 0 2.102705.111184 3.851635.5518 6.5625.21875 2.663703-.327255 4.485551-.693508 5.59375-1.3125.5541-.309496.973078-.699333 1.09375-1.21875s-.0528-1.071225-.40625-1.625v-.03125h-.03125l-.3125-.40625c-1.779504-3.206074-3.450021-5.129653-3.53125-5.21875-.01655-.02669-.04563-.03623-.0625-.0625-.90239-1.40564-2.265381-2.238061-3.8125-2.59375-.788017-.181168-1.628774-.234308-2.5-.21875-.871226.01556-1.774317.120467-2.6875.28125-.695875.122522-1.395116.287141-2.09375.46875-.250231-3.08328-.490634-6.685314-.75-10.8125 9.797531-.1777 18.9375-.5625 18.9375-.5625l.71875-.03125.3125-.625c3.082513-6.165026 4.625-10.84375 4.625-10.84375l.09375-.25-.03125-.28125c-1.538634-12.309071-4.625-21.53125-4.625-21.53125l-.25-.8125-.84375-.03125s-7.679748-.248511-16.5-.40625c-3.611314-.06457-7.418222-.125-10.96875-.125z" opacity=".31"/><path d="m24.685317 66.799259s8.326952 1.312767 14.600876-.457768c6.273924-1.770536 26.96916-5.488236 26.96916-5.488236l4.185245 5.696511c1.28469 2.012829-.694016 2.906442-5.989391 3.557017-5.295373.650576-6.817826-1.728543-15.637904 1.471737-11.607569 4.211695-29.323676 3.761104-29.323676 3.761104z" fill="url(#Q)" fill-rule="evenodd" stroke="url(#R)" stroke-miterlimit="10" stroke-width=".8"/><path d="m34.195647 67.721462-1.881743 4.720941 6.148015-.52475.403071-4.953526z" fill="url(#P)" fill-rule="evenodd"/><path d="m47.902964 61.848036c5.228842-2.278959 15.276301-6.385897 18.649442-.945683 0 0 1.89481 2.060272 3.779192 5.568363-8.186913-6.457117-16.099952 1.214499-23.615356 3.664818z" fill="url(#N)" fill-rule="evenodd" stroke="url(#O)" stroke-width=".8"/><path d="m22.102744 13.993515s12.186944-.538591 24.373888-.538591c3.540255 0 7.337619.04546 10.943958.109941 8.808089.157521 16.476666.428646 16.476666.428646s3.046736 9.140208 4.570104 21.327152c0 0-1.523368 4.570104-4.570104 10.663576 0 0-15.23368.67324-27.420624.67324s-24.373888-.67324-24.373888-.67324c-3.046736-6.093472-4.570104-10.663576-4.570104-10.663576 1.523368-12.186944 4.570104-21.327152 4.570104-21.327152z" fill="none" stroke="url(#M)" stroke-miterlimit="100" stroke-width="2.4"/><path d="m22.102744 13.993515s12.186944-.538591 24.373888-.538591 27.420624.538591 27.420624.538591 3.046736 9.140208 4.570104 21.327152c0 0-1.523368 4.570104-4.570104 10.663576 0 0-15.23368.673241-27.420624.673241s-24.373888-.673241-24.373888-.673241c-3.046736-6.093472-4.570104-10.663576-4.570104-10.663576 1.523368-12.186944 4.570104-21.327152 4.570104-21.327152z" fill="url(#L)" fill-rule="evenodd"/><path d="m39.669081 34.844615c-13.979974.110429-22.136441.476052-22.136441.476052l4.570104 10.663576s25.672804.942536 51.794512 0l4.570104-10.663576s-2.970518-.187726-10.996813-.333236l-5.760235 5.617419 3.279156-8.041543c-3.046736 1.618579-4.087044 2.376518-4.087044 2.376518-4.270224-.063707-7.121786-.09521-12.902424-.09521-2.975328 0-5.742034-.02044-8.330919 0z" fill="url(#K)" fill-rule="evenodd"/><path d="m22.102744 13.993515s12.186944-.538591 24.373888-.538591 27.420624.538591 27.420624.538591 3.046736 9.140208 4.570104 21.327152c0 0-1.523368 4.570104-4.570104 10.663576 0 0-15.23368.673241-27.420624.673241s-24.373888-.673241-24.373888-.673241c-3.046736-6.093472-4.570104-10.663576-4.570104-10.663576 1.523368-12.186944 4.570104-21.327152 4.570104-21.327152z" fill="none" stroke="url(#J)" stroke-miterlimit="100" stroke-width=".8"/><path d="m53.039246 68.067944s5.296832-.424502 9.484046.224863c2.99028.463741 7.442983-1.089035 7.442983-1.089035s-1.481465-2.790753-6.616644-2.802587c-4.508109-.01036-10.201385 3.74581-10.310385 3.666759z" fill="url(#I)" fill-rule="evenodd"/><path d="m53.524655 63.573264 1.058316 2.052898s7.963082-4.148574 12.807666-1.767191c-3.824296-4.96401-13.865982-.285707-13.865982-.285707z" fill="url(#H)" fill-rule="evenodd"/><g transform="matrix(1.523368 0 0 1.523368 11.439168 10.946779)"><path d="m20.392931 21s1.127208-2 3.607069-2 3.60707 2 3.60707 2c.789047 14.125 1.705302 20 1.705302 21s.09823 5-5.312372 5c-5.410605 0-5.312372-4-5.312372-5s.916256-7.25 1.705303-21z" fill="none" stroke="url(#o)" stroke-miterlimit="100" stroke-width="1.575457"/><path d="m20.392931 21s1.127208-2 3.607069-2 3.60707 2 3.60707 2c.789047 14.125 1.705302 20 1.705302 21s.09823 5-5.312372 5c-5.410605 0-5.312372-4-5.312372-5s.916256-7.25 1.705303-21z" fill="url(#p)" fill-rule="evenodd"/><path d="m19 43s.75-2 5-2 5 2 5 2 2 4-5 4-5-4-5-4z" fill="url(#q)" fill-rule="evenodd"/><path d="m20.392931 21s1.127208-2 3.607069-2 3.60707 2 3.60707 2c.789047 14.125 1.705302 20 1.705302 21s.09823 5-5.312372 5c-5.410605 0-5.312372-4-5.312372-5s.916256-7.25 1.705303-21z" fill="none" stroke="url(#r)" stroke-miterlimit="100" stroke-width=".525152"/></g><g fill-rule="evenodd"><path d="m61.805522 40.462034s1.428158-4.284472 3.332368-7.807261c0 0 2.475473.761684 2.189841 2.380263z" fill="url(#G)"/><path d="m48.475676 33.686348-.801583-.678807c-.707115-.598808-2.427508-1.644241-3.577527-3.37095-.725014-1.088577-.966794-2.573259-.861431-4.228654-1.946001-.550303-3.524739-1.367796-4.52966-2.513008-1.683078-1.918042-2.437444-4.164178-3.658129-5.615517l-1.022481-1.207252 1.62392.05233c2.763482.09058 5.748635.01356 8.525515.690751.721153.175852 1.384032.458651 2.047777.795323-.789845.506097-1.281559 1.022502-1.586886 1.429902-.0062.0084-.849417-.403714-1.316794-.517685-2.034797-.496185-3.005827-.02879-5.297021-.0904.926049 1.464255.771825 2.294646 1.871349 3.547668.834795.951336 2.846867 1.541435 4.651766 2.147012 1.804898.605575 4.488427.279003 4.826785.204258l-.05804 1.48707c-.447279.101259-.952868.18338-1.513471.21189-1.681807.08554-2.627493-.30673-2.737754-.355473-.06433 1.281405.234373 2.38526.805051 3.242109.713102 1.070695 2.383748 1.805626 2.587206 1.892221.803144-1.199752 1.53984-1.49655 2.083002-2.75936.329289-.765578.941418-1.914468.0688-4.635747-.543507-1.694927-1.243024-2.1063-1.957578-2.55387l1.324733-1.011812c.427171.286519.914165.692227 1.307699 1.192747.98778 1.256317.918944 2.38312.906655 2.51737 0 0 1.861892-1.418887 2.626401-2.42721.991474-1.30767 1.354332-2.15944 2.274553-3.578621-2.042016.125038-3.371636-.343499-5.559176.327696-.591561.181506-1.824335.926657-3.289466 2.192961-1.46513 1.266306-2.190886 2.046642-2.571055 2.872256l-1.884665-.44383c.02191-.05274 2.200007-3.853148 4.384417-4.845642 2.184414-.992491 9.258074-1.694703 11.539813-1.810745l1.853913-.09428-1.214284 1.276036c-1.269546 1.334105-2.244284 3.04441-3.763802 5.048531-.906075 1.195038-2.398499 2.134176-4.269667 2.870568 0 0 .197034 2.114662-.4528 3.755812-.696476 1.758942-2.384552 2.809337-2.96197 4.063314l-.424107.921035z" fill="url(#F)"/><path d="m51.989273 16.863364c1.943235 2.488775 6.786869 5.120972 9.188556 5.804989.04159.01188.102035-.0088.14213.0018.01021-.000498.03711.0012.04738.000594.605911-.03464 1.234225-.244999 1.989737-.681078 2.21303-1.277353 1.313632-.93724 3.728623-1.863673.0252-.0096.07137-.03152.09754-.04031 1.516062-.476296 4.549768.439867 5.080408.603614-.51411.06377-2.683681.415058-4.19403 1.733244-.0096.0084-.04032.03264-.05016.0409-.01005.0081-.03987.03287-.05016.0409-.441884.332215-1.120116.573375-1.89777.723763 1.171338.08604 2.392547.215255 3.670268.419805 2.385173.381843 3.86084 1.210735 4.539891 2.299611.67905 1.088876.455208 2.422132-.459584 3.316726-2.654794 2.596181-9.755126 1.264365-9.726083-1.326369.0015-.04409.0055-.121184.01112-.165985.0084-.05623.04608-.14961.0613-.206886.0166-.05749.03766-.148406.0613-.206887.01005-.02348.04176-.05877.05294-.0824 1.409215-2.976702 4.823698-1.182327 5.963797.157849-1.225508-.718425-2.932759-.856505-3.530923-.376527-.01127.0096-.03971.03076-.05017.0409-.01508.01557-.03996.06573-.05294.0824-.0038.0058-.04654.03498-.05016.0409-.0034.0061.000362.03533-.0027.0415-.0029.0062-.000133.03508-.0027.0415-.0072.01959-.04806.0617-.05294.0824-.0014.007-.0017.03435-.0027.0415-.000829.0073-.0023.03411-.0027.0415-.000284.0075-.0027.03385-.0027.0415-.002 2.140196 5.702543 2.167743 6.192326.285308.11899-.457345.110581-.85031.03057-1.162488-.0093-.03297-.02776-.09357-.03903-.125083-.01188-.03106-.02515-.09541-.03903-.125084-.0097-.01948-.03129-.0647-.04182-.08359-.481111-.818649-1.773823-1.094819-3.230204-1.327971-2.983777-.477673-6.172538-.01112-8.798002-.317983-3.972017-.464329-5.728083-1.012538-7.900899-3.795348l-.680481-3.995495z" fill="url(#E)"/><path d="m43.741431 16.918731c-1.943236 2.488775-6.78687 5.120972-9.188557 5.804989-.04159.01188-.102035-.0088-.14213.0018-.01021-.000499-.03711.0012-.04738.000594-.605907-.03464-1.234222-.244999-1.989733-.681078-2.213031-1.277355-1.313633-.93724-3.728623-1.863675-.0252-.0096-.07137-.03152-.09754-.04031-1.51606-.476295-4.549767.439866-5.080406.603613.514109.06377 2.683681.41506 4.194029 1.733245.0096.0084.04032.03265.05016.0409.01005.0081.03987.03287.05016.0409.441883.332215 1.120115.573375 1.897769.723763-1.171338.08604-2.392547.215255-3.670266.419805-2.385174.381843-3.860841 1.210735-4.539891 2.299611s-.455208 2.422134.459583 3.316727c2.654795 2.596182 9.755125 1.264365 9.726082-1.326369-.0015-.04409-.0055-.121184-.01112-.165985-.0084-.05623-.04608-.14961-.0613-.206885-.01661-.05749-.03766-.148407-.0613-.206887-.01005-.02347-.04176-.05877-.05294-.0824-1.409215-2.976704-4.823696-1.18233-5.963796.157848 1.225509-.718425 2.932758-.856504 3.530922-.376528.01127.0096.03971.03077.05016.0409.01508.01557.03996.06573.05294.0824.0038.0058.04654.03498.05016.0409.0034.0061-.000362.03533.0027.0415.0029.0062.000133.03508.0027.0415.0072.01959.04806.0617.05294.0824.0014.007.0017.03435.0027.0415.000828.0073.0023.03411.0027.0415.000283.0075.0027.03385.0027.0415.002 2.140196-5.702543 2.167743-6.192325.285308-.118991-.457345-.110582-.850312-.03057-1.162489.0093-.03297.02776-.09355.03903-.125084.01188-.03106.02515-.09541.03903-.125084.0096-.01948.03129-.0647.0418-.08359.480923-.818647 1.773635-1.094817 3.230016-1.327969 2.983775-.477673 6.172536-.01112 8.798-.317983 3.972017-.464329 5.728083-1.012539 7.900899-3.795348l.680276-3.995519z" fill="url(#D)"/><path d="m20.54304 74.689783 4.514192-7.371306s-1.112587 4.515678-.287222 7.276538l-4.22697.09477z" fill="url(#C)"/><path d="m40.119189 75.989564c5.23444-3.921623 13.464797-1.885072 13.464797-1.885072-6.80731-3.570153-5.924512-10.367893-5.924512-10.367893l-3.464212 6.528444-.709874-27.802825s-2.945423 26.677131-3.366199 33.527346z" fill="url(#B)"/><path d="m54.382304 55.787243.863661 5.587071c-10.098598-3.500848-16.072116 9.267607-16.072116 9.267607l.791553-9.422555c4.981975-9.694655 14.416902-5.432123 14.416902-5.432123z" fill="url(#z)" stroke="url(#A)" stroke-miterlimit="10" stroke-width=".8"/><path d="m40.894405 49.312929-.387609 5.872702c10.098599-3.500847 15.881695 9.362818 15.881695 9.362818l-.886763-9.422555c-4.981975-9.694655-14.607323-5.812965-14.607323-5.812965z" fill="url(#x)" stroke="url(#y)" stroke-miterlimit="10" stroke-width=".8"/><path d="m41.565123 49.697453-.229858 2.761104c9.94249-3.118844 13.519891 2.761105 13.519891 2.761105-4.189262-8.624719-13.290033-5.522209-13.290033-5.522209z" fill="url(#w)"/><path d="m40.523131 61.447583-.403943 4.174086s2.289015-6.597751 9.425358-8.61747l-2.423664-1.481128c-4.443382 1.750425-6.597751 5.924512-6.597751 5.924512z" fill="url(#v)"/><path d="m17.094384 35.325874s.03367-2.490988.942535-5.789863c1.447466 3.972115 13.111348 2.440495 37.028195 5.251272-17.958675.387114-37.97073.538591-37.97073.538591z" fill="url(#u)"/><path d="m28.00087 47.713488c-2.01972-4.443382-1.615776-9.156061-1.615776-9.156061s4.620272 6.40733 7.043935 9.234937l-5.428159-.07888z" fill="url(#t)"/><path d="m21.807063 13.243605-1.211832 3.770144c8.348174-2.289015 53.724543-3.500847 53.724543-3.500847s-34.335234-1.211832-52.512711-.269297z" fill="url(#s)"/></g></svg>