<svg height="96" width="96" xmlns="http://www.w3.org/2000/svg" xmlns:xlink="http://www.w3.org/1999/xlink"><linearGradient id="a"><stop offset="0" stop-color="#fefefe"/><stop offset=".30000001" stop-color="#fefefe"/><stop offset=".89999998" stop-color="#f0f0f0"/><stop offset="1" stop-color="#d2d2d2"/></linearGradient><linearGradient id="b"><stop offset="0" stop-color="#fefefe"/><stop offset="1" stop-color="#fefefe" stop-opacity="0"/></linearGradient><linearGradient id="c" gradientUnits="userSpaceOnUse" x1="36.357143" x2="36.357143" xlink:href="#b" y1="6" y2="63.893143"/><radialGradient id="d" cx="48" cy="90.171875" gradientTransform="matrix(1.1573129 0 0 .99590774 -7.551021 .197132)" gradientUnits="userSpaceOnUse" r="42" xlink:href="#b"/><linearGradient id="e" gradientTransform="matrix(1.0058652 0 0 .994169 100 0)" gradientUnits="userSpaceOnUse" x1="45.447727" x2="45.447727" y1="92.539597" y2="7.01654"><stop offset="0"/><stop offset="1" stop-opacity=".588235"/></linearGradient><linearGradient id="f" gradientTransform="matrix(1.0238095 0 0 1.0119048 -1.142857 -98.071429)" gradientUnits="userSpaceOnUse" x1="32.251034" x2="32.251034" xlink:href="#e" y1="6.131708" y2="90.238609"/><linearGradient id="g" gradientTransform="translate(0 -97)" gradientUnits="userSpaceOnUse" x1="32.251034" x2="32.251034" xlink:href="#e" y1="6.131708" y2="90.238609"/><radialGradient id="h" cx="48" cy="48" gradientUnits="userSpaceOnUse" r="32" xlink:href="#a"/><radialGradient id="i" cx="48.000896" cy="46.058418" gradientUnits="userSpaceOnUse" r="3"><stop offset="0" stop-color="#fefefe"/><stop offset="1" stop-color="#a2a2a2"/></radialGradient><linearGradient id="j" gradientUnits="userSpaceOnUse" x1="56" x2="56" xlink:href="#b" y1="48" y2="16"/><linearGradient id="k" gradientUnits="userSpaceOnUse" x1="48" x2="48" y1="90" y2="5.987717"><stop offset="0" stop-color="#1f1f1f"/><stop offset="1" stop-color="#2f2f2f"/></linearGradient><filter id="l" color-interpolation-filters="sRGB"><feGaussianBlur stdDeviation=".4359375"/></filter><linearGradient id="m" gradientUnits="userSpaceOnUse" x1="16" x2="80" y1="48" y2="48"><stop offset="0" stop-color="#f0f0f0"/><stop offset="1" stop-color="#b4b4b4"/></linearGradient><linearGradient id="n" gradientTransform="matrix(0 1 -1 0 96 0)" gradientUnits="userSpaceOnUse" x1="13" x2="83" y1="48" y2="48"><stop offset="0" stop-color="#fefefe"/><stop offset=".5" stop-color="#fefefe" stop-opacity=".412214"/><stop offset="1" stop-color="#868686"/></linearGradient><linearGradient id="o" gradientTransform="matrix(0 1 -1 0 96 0)" gradientUnits="userSpaceOnUse" x1="17" x2="120" y1="48" y2="48"><stop offset="0"/><stop offset="1" stop-opacity="0"/></linearGradient><linearGradient id="p" gradientUnits="userSpaceOnUse" x1="43" x2="53" y1="60" y2="60"><stop offset="0" stop-color="#fefefe"/><stop offset="1" stop-color="#868686"/></linearGradient><radialGradient id="q" cx="48" cy="60" gradientUnits="userSpaceOnUse" r="5" xlink:href="#a"/><g fill="url(#f)"><path d="m12-95.03125c-5.5110903 0-10.03125 4.52016-10.03125 10.03125v71c0 5.5110902 4.5201598 10.03125 10.03125 10.03125h72c5.51109 0 10.03125-4.5201597 10.03125-10.03125v-71c0-5.51109-4.52016-10.03125-10.03125-10.03125z" opacity=".08" transform="scale(1 -1)"/><path d="m12-94.03125c-4.971633 0-9.03125 4.059617-9.03125 9.03125v71c0 4.9716329 4.0596171 9.03125 9.03125 9.03125h72c4.971633 0 9.03125-4.059617 9.03125-9.03125v-71c0-4.971633-4.059617-9.03125-9.03125-9.03125z" opacity=".1" transform="scale(1 -1)"/><path d="m12-93c-4.4091333 0-8 3.590867-8 8v71c0 4.4091333 3.5908667 8 8 8h72c4.409133 0 8-3.5908667 8-8v-71c0-4.409133-3.590867-8-8-8z" opacity=".2" transform="scale(1 -1)"/><rect height="85" opacity=".3" rx="7" transform="scale(1 -1)" width="86" x="5" y="-92"/></g><rect fill="url(#g)" height="84" opacity=".45" rx="6" transform="scale(1 -1)" width="84" x="6" y="-91"/><rect fill="url(#k)" height="84" rx="6" width="84" x="6" y="6"/><path d="m12 6c-3.324 0-6 2.676-6 6v30.0625c12.212492 4.668486 26.585126 7.375 42 7.375s29.787508-2.706514 42-7.375v-30.0625c0-3.324-2.676-6-6-6z" fill="url(#j)" opacity=".1"/><path d="m12 90c-3.324 0-6-2.676-6-6v-2-68-2c0-.334721.04135-.6507.09375-.96875.0487-.295596.09704-.596915.1875-.875.00988-.03038.020892-.0636.03125-.09375.098865-.287771.2348802-.547452.375-.8125.1445918-.273507.3156161-.535615.5-.78125s.3737765-.473472.59375-.6875c.439947-.428056.94291-.814526 1.5-1.09375.278545-.139612.5734731-.246947.875-.34375-.2562018.100222-.4867109.236272-.71875.375-.00741.0044-.023866-.0045-.03125 0-.031933.0193-.062293.04251-.09375.0625-.120395.0767-.2310226.163513-.34375.25-.1061728.0808-.2132809.161112-.3125.25-.1779299.161433-.3474596.345388-.5.53125-.1075789.130255-.2183939.265285-.3125.40625-.025089.03838-.038446.08587-.0625.125-.064763.103032-.1302275.204517-.1875.3125-.1010083.194706-.2056748.415701-.28125.625-.00796.02181-.023589.04055-.03125.0625-.0318251.09195-.0358045.186831-.0625.28125-.0303323.106618-.0703894.203031-.09375.3125-.0728786.341512-.125.698205-.125 1.0625v2 68 2c0 2.781848 2.2181517 5 5 5h2 68 2c2.781848 0 5-2.218152 5-5v-2-68-2c0-.364295-.05212-.720988-.125-1.0625-.04415-.206893-.08838-.397658-.15625-.59375-.0077-.02195-.0233-.04069-.03125-.0625-.06274-.173739-.138383-.367449-.21875-.53125-.04158-.0828-.07904-.169954-.125-.25-.0546-.09721-.126774-.18835-.1875-.28125-.09411-.140965-.204921-.275995-.3125-.40625-.143174-.17445-.303141-.346998-.46875-.5-.01117-.0102-.01998-.02115-.03125-.03125-.138386-.125556-.285091-.234436-.4375-.34375-.102571-.07315-.204318-.153364-.3125-.21875-.0074-.0045-.02384.0044-.03125 0-.232039-.138728-.462548-.274778-.71875-.375.301527.0968.596455.204138.875.34375.55709.279224 1.060053.665694 1.5 1.09375.219973.214028.409366.441865.59375.6875s.355408.507743.5.78125c.14012.265048.276135.524729.375.8125.01041.03078.02133.06274.03125.09375.09046.278085.1388.579404.1875.875.0524.31805.09375.634029.09375.96875v2 68 2c0 3.324-2.676 6-6 6z" fill="url(#d)" opacity=".1"/><path d="m12 6c-3.324 0-6 2.676-6 6v2 68 2c0 .334721.04135.6507.09375.96875.0487.295596.09704.596915.1875.875.00988.03038.020892.0636.03125.09375.098865.287771.2348802.547452.375.8125.1445918.273507.3156161.535615.5.78125s.3737765.473472.59375.6875c.439947.428056.94291.814526 1.5 1.09375.278545.139612.5734731.246947.875.34375-.2562018-.100222-.4867109-.236272-.71875-.375-.00741-.0044-.023866.0045-.03125 0-.031933-.0193-.062293-.04251-.09375-.0625-.120395-.0767-.2310226-.163513-.34375-.25-.1061728-.0808-.2132809-.161112-.3125-.25-.1779299-.161433-.3474596-.345388-.5-.53125-.1075789-.130255-.2183939-.265285-.3125-.40625-.025089-.03838-.038446-.08587-.0625-.125-.064763-.103032-.1302275-.204517-.1875-.3125-.1010083-.194706-.2056748-.415701-.28125-.625-.00796-.02181-.023589-.04055-.03125-.0625-.0318251-.09195-.0358045-.186831-.0625-.28125-.0303323-.106618-.0703894-.203031-.09375-.3125-.0728786-.341512-.125-.698205-.125-1.0625v-2-68-2c0-2.781848 2.2181517-5 5-5h2 68 2c2.781848 0 5 2.218152 5 5v2 68 2c0 .364295-.05212.720988-.125 1.0625-.04415.206893-.08838.397658-.15625.59375-.0077.02195-.0233.04069-.03125.0625-.06274.173739-.138383.367449-.21875.53125-.04158.0828-.07904.169954-.125.25-.0546.09721-.126774.18835-.1875.28125-.09411.140965-.204921.275995-.3125.40625-.143174.17445-.303141.346998-.46875.5-.01117.0102-.01998.02115-.03125.03125-.138386.125556-.285091.234436-.4375.34375-.102571.07315-.204318.153364-.3125.21875-.0074.0045-.02384-.0044-.03125 0-.232039.138728-.462548.274778-.71875.375.301527-.0968.596455-.204138.875-.34375.55709-.279224 1.060053-.665694 1.5-1.09375.219973-.214028.409366-.441865.59375-.6875s.355408-.507743.5-.78125c.14012-.265048.276135-.524729.375-.8125.01041-.03078.02133-.06274.03125-.09375.09046-.278085.1388-.579404.1875-.875.0524-.31805.09375-.634029.09375-.96875v-2-68-2c0-3.324-2.676-6-6-6z" fill="url(#c)" opacity=".25"/><path d="m80 48a32 32 0 1 1 -64 0 32 32 0 1 1 64 0z" transform="matrix(0 1.09375 -1.09375 0 100.5 -3.5)"/><path d="m80 48a32 32 0 1 1 -64 0 32 32 0 1 1 64 0z" fill="url(#m)" transform="matrix(0 1.09375 -1.09375 0 100.5 -4.5)"/><path d="m80 48a32 32 0 1 1 -64 0 32 32 0 1 1 64 0z" fill="url(#h)" transform="matrix(0 .96875 -.96875 0 94.5 1.5)"/><path d="m36.9375 28.84375-.875.5 9.6875 16.78125-12.96875-6.78125-.75 1.3125 13.875 8.8125-2.40625 3.5.53125.53125 4.1875-2.84375 4.78125 1.65625.375-.625-3.21875-2.78125 15.34375-16.34375-1.0625-1.0625-16.6875 15.65625-.3125-.15625z" filter="url(#l)" opacity=".3"/><path d="m64.4375 30.5-15.59375 14.65625c-.273564-.082119-.543445-.15625-.84375-.15625-1.656854 0-3 1.343146-3 3 0 .473471.117156.914288.3125 1.3125l-1.8125 2.65625.53125.53125 2.65625-1.8125c.398212.195344.839029.3125 1.3125.3125 1.656854 0 3-1.343146 3-3 0-.300305-.07413-.570186-.15625-.84375l14.65625-15.59375z"/><g transform="translate(0 2)"><path d="m46.195551 24h-.71207v-3.693864c-.000003-.115977-.000003-.24005 0-.372218.0027-.132161.0054-.262976.0081-.392448.0054-.13216.0094-.257581.01214-.376264.0054-.121371.0094-.227912.01214-.319623-.04586.04856-.08631.09036-.121375.125422-.03507.03507-.07148.06878-.109238.101146-.03507.03237-.07283.06744-.113284.105192-.04046.03507-.08901.07688-.145651.125422l-.598786.489548-.388402-.49764 1.549562-1.20971h.606878v5.915037"/><path d="m51.960891 24h-3.689818v-.631153l1.416049-1.54147c.20229-.218474.383005-.418069.542144-.598786.159134-.180712.293996-.357381.404585-.530007.113281-.17262.199593-.345242.258935-.517869.05934-.175316.08901-.365471.08901-.570465-.000003-.159133-.02293-.299389-.06878-.420769-.04586-.121371-.111938-.223866-.198247-.307485-.08362-.08631-.183414-.15104-.299393-.194201-.115983-.04315-.24545-.06473-.388402-.06473-.256239.000006-.488201.0526-.695886.157789-.204991.1025-.400541.234664-.586649.396493l-.412677-.481456c.107889-.09709.22387-.187453.347943-.271072.124072-.08631.257585-.16048.40054-.222522.142952-.06203.293997-.110581.453135-.145651.159135-.03776.326364-.05664.501686-.05664.258932.000006.492243.03642.699933.109238.210381.07283.388398.178023.534052.315577.145647.134867.257583.300747.335806.49764.08091.194205.121372.41403.121376.659474-.000004.229269-.03642.447745-.109238.655428-.07013.20769-.168581.41268-.295348.614969-.124076.199599-.273772.400543-.449089.602833-.172626.202294-.360084.412679-.562374.631153l-1.136885 1.20971v.03237h2.787593v.671612"/></g><path d="m46.057992 75.471342c-.000001-.283207.01349-.565068.04046-.845583.02967-.280509.07957-.548884.149697-.805125.07282-.25893.171273-.498984.295347-.720162.124072-.221168.28186-.412672.473365-.574511.191502-.164526.420767-.292644.687795-.384356.267024-.0944.579903-.141599.938638-.141605.05124.000006.107886.0014.169926.004.06203.0027.124069.0081.186109.01618.06473.0054.125418.01349.182063.02428.05934.0081.111932.01889.157788.03237v.627108c-.09441-.03236-.200947-.05664-.319622-.07283-.118682-.01618-.236011-.02427-.351989-.02428-.242754.000005-.457184.02968-.643291.08901-.183414.05665-.342551.137564-.47741.242751-.134864.105197-.248148.230618-.339852.376264-.08901.145656-.161836.30749-.218476.485503-.05664.175324-.09845.362782-.125422.562373-.02697.199599-.04451.407286-.0526.623062h.04855c.05394-.0971.118677-.187455.194201-.271073.07822-.08631.168575-.159133.271072-.218476.102493-.06203.217125-.110583.343897-.14565.129465-.03506.273767-.05259.432906-.0526.256235.000003.488197.04046.695887.121375.207684.07822.384353.194204.530007.347944.145647.153745.257582.342551.335806.566419.08091.221176.121371.474716.121375.76062-.000004.307487-.04181.583953-.125421.8294-.08362.245449-.203645.454485-.360081.627107-.156443.169926-.34525.300742-.56642.392448-.221176.09171-.469321.137559-.744436.137559-.269726 0-.523266-.0526-.760621-.157788-.234661-.105192-.438302-.265678-.610924-.481457-.172624-.215778-.308834-.48685-.408631-.813216-.0998-.326364-.149697-.712068-.149696-1.157114m1.92178 1.99056c.161831 0 .308831-.02697.440998-.08092.134859-.05664.25084-.140256.347943-.250843.0971-.113283.171271-.254888.222522-.424815.05394-.172622.08091-.376263.08092-.610924-.000003-.188804-.02293-.357381-.06878-.505731-.04316-.151043-.109242-.279162-.198247-.384356-.08901-.10519-.200947-.186107-.335806-.242752-.132167-.05664-.287258-.08496-.465273-.08496-.180717.000003-.346597.03237-.49764.0971-.14835.06204-.27512.144305-.38031.246797-.105194.0998-.187459.214433-.246797.343898-.05664.129469-.08496.258936-.08496.388401-.000001.180717.02427.361432.07283.542145.05125.178019.12542.338504.222522.481456.0998.142955.223869.260284.372219.351989.148346.08901.320968.133514.517869.133514" transform="translate(0 -2)"/><path d="m76.488871 46.468645c-.000004.196902-.03102.376268-.09305.538098-.06204.161838-.149701.302094-.262981.420769-.11059.118682-.244103.217131-.400539.295347-.156443.07553-.330414.129471-.521915.161834v.02428c.477407.05934.840185.211736 1.088334.457182.248142.242753.372214.559678.372219.950775-.000005.258936-.04451.496293-.133514.71207-.08631.21578-.218479.401889-.396493.558328-.178021.15644-.40324.277815-.675658.364127-.272423.08631-.594742.129467-.966958.129467-.294001 0-.571816-.02293-.833446-.06878-.258936-.04585-.503035-.129468-.7323-.250843v-.687795c.234659.124073.488199.219825.760621.287255.275116.06743.538097.101147.788941.101147.248144 0 .462574-.02697.643291-.08092.180712-.05395.32906-.130816.445044-.230614.118675-.0998.204986-.222521.258934-.368173.05664-.145649.08496-.308832.08496-.489548-.000003-.18341-.03642-.33985-.109238-.469319-.07013-.132162-.171277-.240051-.303439-.323668-.132167-.08631-.294001-.149694-.485502-.190155-.188809-.04046-.403239-.06068-.643291-.06069h-.538098v-.610924h.538098c.218474.000004.412675-.02697.582603-.08092.169923-.05394.311528-.130812.424814-.230613.115979-.09979.203639-.218473.262981-.356036.05934-.137554.08901-.288599.08901-.453135-.000003-.140252-.02428-.265673-.07283-.376264-.04855-.110582-.117332-.203637-.206338-.279164-.08901-.07822-.195552-.137554-.319623-.178018-.124075-.04045-.261634-.06068-.412677-.06069-.288606.000006-.543494.04586-.764666.137559-.218477.08901-.427512.206344-.627107.35199l-.372218-.505732c.102494-.08361.215778-.161829.339851-.234659.126769-.07282.264328-.136205.412677-.190156.148347-.05664.306135-.10114.473365-.133513.169924-.03236.34929-.04854.538098-.04855.291299.000006.546188.03642.764667.109238.22117.07283.40593.175326.554281.307485.148345.129473.26028.284564.335806.465273.07552.178023.11328.373572.113284.586649" transform="translate(-2)"/><path d="m22.759947 47.609575c-.000004.283213-.01484.566422-.0445.849629-.02698.280515-.07688.54889-.149697.805125-.07013.256239-.167232.496293-.291301.720162-.124077.221174-.281865.412678-.473365.574511-.191507.161834-.420772.289953-.687795.384356-.267029.09171-.579908.137559-.938638.137559-.05125 0-.107891-.0013-.169926-.004-.06204-.0027-.124074-.0081-.186109-.01618-.06204-.0054-.122725-.01214-.182063-.02023-.05934-.0081-.111937-.01888-.157789-.03237v-.631153c.0944.03506.200943.06069.319623.07687.118677.01618.236006.02428.351989.02428.364125 0 .663518-.06338.898179-.190155.234657-.126769.420766-.298044.558328-.513823.137556-.218475.234656-.472015.291301-.760621.05934-.288602.09575-.593389.109238-.914363h-.0526c-.05395.0971-.118681.187461-.194201.271073-.07552.08362-.164534.156442-.267026.218476-.102498.06204-.218479.110589-.347943.14565-.12947.03507-.273772.0526-.432906.0526-.25624.000003-.488202-.03911-.695887-.117329-.207688-.080968-.384357-.198298-.530007-.352042-.145651-.15374-.258935-.341198-.339852-.562374-.07822-.223867-.11733-.478756-.117329-.764666-.000001-.307481.04181-.583947.125421-.8294.08631-.248141.206338-.457176.360081-.627107.156439-.172618.345245-.304782.566419-.396494.223869-.0917.473363-.137553.748483-.137559.272419.000006.525958.0526.760621.157788.234656.105198.438297.265684.610923.481457.17262.215784.30883.488204.408632.817262.09979.32637.149692.710725.149696 1.153068m-1.92178-1.986514c-.161836.000006-.310184.02698-.445044.08092-.132166.05395-.246798.137564-.343897.250842-.0971.113289-.172625.256243-.226568.428861-.05125.16993-.07687.372223-.07687.606878-.000001.18881.02158.358736.06473.509777.04585.148352.113283.275121.202293.38031.08901.105196.199594.186113.33176.242752.13486.05664.291299.08497.469319.08496.183409.000003.349289-.03101.49764-.09305.148345-.06473.275115-.146996.38031-.246797.105189-.102492.186106-.218473.242751-.347944.05934-.129463.08901-.25893.08901-.388401-.000004-.180711-.02563-.360077-.07687-.538099-.04855-.18071-.122728-.342544-.222522-.485502-.0971-.145646-.219828-.262975-.368173-.351989-.14835-.089-.320973-.133508-.517869-.133514" transform="translate(2)"/><path d="m47.25 49.299038-15.213457-9.649519.75-1.299038 15.963457 8.350481 4.633652 3.974278-.375.64952z"/><path d="m51 48a3 3 0 1 1 -6 0 3 3 0 1 1 6 0z" transform="matrix(.66666667 0 0 .66666667 16 16)"/><path d="m51 48a3 3 0 1 1 -6 0 3 3 0 1 1 6 0z" transform="translate(-80)"/><path d="m-34 46 1-16h2l1 16z"/><path d="m-30 46 22 1v2l-22 1z"/><path d="m51 48a3 3 0 1 1 -6 0 3 3 0 1 1 6 0z" fill="#f00" transform="matrix(.5 0 0 .5 24 24)"/><path d="m36.9375 27.84375-.875.5 10.53125 18.25c-.361929.361929-.59375.853965-.59375 1.40625 0 1.104569.895431 2 2 2s2-.895431 2-2-.895431-2-2-2c-.182944 0-.362898.01649-.53125.0625z" fill="#f00"/><path d="m51 48a3 3 0 1 1 -6 0 3 3 0 1 1 6 0z" fill="url(#i)" transform="matrix(.66666672 0 0 .66666672 15.999997 15.999997)"/><path d="m83 48c0-19.329966-15.670034-35-35-35s-35 15.670034-35 35 15.670034 35 35 35 35-15.670034 35-35zm-1 0c0 18.777681-15.222319 34-34 34s-34-15.222319-34-34 15.222319-34 34-34 34 15.222319 34 34z" fill="url(#n)"/><path d="m79 48c0-17.120827-13.879173-31-31-31s-31 13.879173-31 31 13.879173 31 31 31 31-13.879173 31-31zm-1 0c0 16.568542-13.431458 30-30 30s-30-13.431458-30-30 13.431458-30 30-30 30 13.431458 30 30z" fill="url(#o)" opacity=".3"/><path d="m49 24a1 1 0 1 1 -2 0 1 1 0 1 1 2 0z" opacity=".5" transform="matrix(.8660254 .5 -.5 .8660254 30.930781 -18.435245)"/><path d="m49 24a1 1 0 1 1 -2 0 1 1 0 1 1 2 0z" opacity=".5" transform="matrix(.5 .8660254 -.8660254 .5 66.435245 -18.06922)"/><path d="m49 24a1 1 0 1 1 -2 0 1 1 0 1 1 2 0z" opacity=".5" transform="matrix(-.5 .8660254 -.8660254 -.5 114.43524 30.93078)"/><path d="m49 24a1 1 0 1 1 -2 0 1 1 0 1 1 2 0z" opacity=".5" transform="matrix(-.8660254 .5 -.5 -.8660254 114.06922 66.435244)"/><path d="m49 24a1 1 0 1 1 -2 0 1 1 0 1 1 2 0z" opacity=".5" transform="matrix(-.8660254 -.5 .5 -.8660254 65.06922 114.43524)"/><path d="m49 24a1 1 0 1 1 -2 0 1 1 0 1 1 2 0z" opacity=".5" transform="matrix(-.5 -.8660254 .8660254 -.5 29.564756 114.06922)"/><path d="m49 24a1 1 0 1 1 -2 0 1 1 0 1 1 2 0z" opacity=".5" transform="matrix(.5 -.8660254 .8660254 .5 -18.43524 65.069219)"/><path d="m49 24a1 1 0 1 1 -2 0 1 1 0 1 1 2 0z" opacity=".5" transform="matrix(.8660254 -.5 .5 .8660254 -18.06922 29.564755)"/><path d="m53 60a5 5 0 1 1 -10 0 5 5 0 1 1 10 0z" fill="url(#p)" opacity=".6" transform="matrix(0 -1.2 1.2 0 -24 118.6)"/><path d="m53 60a5 5 0 1 1 -10 0 5 5 0 1 1 10 0z" fill="url(#q)" transform="matrix(0 -1 1 0 -12 109)"/><g opacity=".4" transform="matrix(.73723053 0 0 .73723053 -48.957118 43.731999)"><path d="m130.96089 26h-3.68982v-.631153l1.41605-1.54147c.20229-.218474.38301-.418069.54215-.598786.15913-.180712.29399-.357381.40458-.530007.11328-.17262.19959-.345242.25894-.517869.0593-.175316.089-.365471.089-.570465-.00001-.159133-.0229-.299389-.0688-.420769-.0459-.121371-.11194-.223866-.19825-.307485-.0836-.08631-.18342-.15104-.29939-.194201-.11599-.04315-.24545-.06473-.38841-.06473-.25624.000006-.4882.0526-.69588.157789-.20499.1025-.40054.234664-.58665.396493l-.41268-.481456c.10789-.09709.22387-.187453.34794-.271072.12408-.08631.25759-.16048.40054-.222522.14296-.06203.294-.110581.45314-.145651.15913-.03776.32636-.05664.50169-.05664.25893.000006.49224.03642.69993.109238.21038.07283.3884.178023.53405.315577.14565.134867.25758.300747.33581.49764.0809.194205.12137.41403.12137.659474 0 .229269-.0364.447745-.10924.655428-.0701.20769-.16858.41268-.29534.614969-.12408.199599-.27378.400543-.44909.602833-.17263.202294-.36009.412679-.56238.631153l-1.13688 1.20971v.03237h2.78759v.671612"/><path d="m135.60028 22.528668c-.00001.283213-.0148.566422-.0445.849629-.027.280515-.0769.54889-.1497.805125-.0701.256239-.16723.496293-.2913.720162-.12408.221174-.28187.412678-.47337.574511-.1915.161834-.42077.289953-.68779.384356-.26703.09171-.57991.137559-.93864.137559-.0512 0-.10789-.0013-.16993-.004-.062-.0027-.12407-.0081-.1861-.01618-.062-.0054-.12273-.01214-.18207-.02023-.0593-.0081-.11193-.01888-.15779-.03237v-.631153c.0944.03506.20095.06069.31963.07687.11867.01618.236.02428.35199.02428.36412 0 .66351-.06338.89817-.190155.23466-.126769.42077-.298044.55833-.513823.13756-.218475.23466-.472015.2913-.760621.0593-.288602.0958-.593389.10924-.914363h-.0526c-.054.0971-.11868.187461-.1942.271073-.0755.08362-.16453.156442-.26702.218476-.1025.06204-.21848.110589-.34795.14565-.12947.03507-.27377.0526-.4329.0526-.25624.000003-.48821-.03911-.69589-.117329-.20769-.08097-.38436-.198298-.53001-.352042-.14565-.15374-.25893-.341198-.33985-.562374-.0782-.223867-.11733-.478756-.11733-.764666 0-.307481.0418-.583947.12542-.8294.0863-.248141.20634-.457176.36008-.627107.15644-.172618.34525-.304782.56642-.396494.22387-.0917.47337-.137553.74848-.137559.27242.000006.52596.0526.76063.157788.23465.105198.43829.265684.61092.481457.17262.215784.30883.488204.40863.817262.0998.32637.14969.710725.1497 1.153068m-1.92178-1.986514c-.16184.000006-.31019.02698-.44505.08092-.13216.05395-.24679.137564-.34389.250842-.0971.113289-.17263.256243-.22657.428861-.0512.16993-.0769.372223-.0769.606878 0 .18881.0216.358736.0647.509777.0459.148352.11328.275121.20229.38031.089.105196.1996.186113.33176.242752.13486.05664.2913.08497.46932.08496.18341.000003.34929-.03101.49764-.09305.14834-.06473.27512-.146996.38031-.246797.10519-.102492.18611-.218473.24275-.347944.0593-.129463.089-.25893.089-.388401 0-.180711-.0256-.360077-.0769-.538099-.0486-.18071-.12273-.342544-.22252-.485502-.0971-.145646-.21983-.262975-.36817-.351989-.14835-.089-.32098-.133508-.51787-.133514"/></g></svg>