<svg height="96" width="96" xmlns="http://www.w3.org/2000/svg" xmlns:xlink="http://www.w3.org/1999/xlink"><filter id="a" color-interpolation-filters="sRGB" height="1.384" width="1.384" x="-.192" y="-.192"><feGaussianBlur stdDeviation="5.28"/></filter><clipPath id="b"><rect height="84" rx="6" width="84" x="6" y="6"/></clipPath><linearGradient id="c" gradientTransform="matrix(1.0238095 0 0 1.0119048 -1.142857 -98.071429)" gradientUnits="userSpaceOnUse" x1="32.251034" x2="32.251034" xlink:href="#d" y1="6.131708" y2="90.238609"/><linearGradient id="d" gradientTransform="matrix(1.0058652 0 0 .994169 100 0)" gradientUnits="userSpaceOnUse" x1="45.447727" x2="45.447727" y1="92.539597" y2="7.01654"><stop offset="0"/><stop offset="1" stop-opacity=".588235"/></linearGradient><linearGradient id="e" gradientTransform="matrix(1.0238095 0 0 1.0119048 -1.142857 -98.071429)" gradientUnits="userSpaceOnUse" x1="32.251034" x2="32.251034" xlink:href="#d" y1="6.131708" y2="90.238609"/><linearGradient id="f" gradientTransform="translate(0 -97)" gradientUnits="userSpaceOnUse" x1="32.251034" x2="32.251034" xlink:href="#d" y1="6.131708" y2="90.238609"/><linearGradient id="g" gradientUnits="userSpaceOnUse" x1="48" x2="48" y1="90" y2="5.987717"><stop offset="0" stop-color="#193591"/><stop offset="1" stop-color="#6876dd"/></linearGradient><linearGradient id="h" gradientUnits="userSpaceOnUse" x1="36.357143" x2="36.357143" xlink:href="#i" y1="6" y2="63.893143"/><linearGradient id="i"><stop offset="0" stop-color="#fefefe"/><stop offset="1" stop-color="#fefefe" stop-opacity="0"/></linearGradient><radialGradient id="j" cx="48" cy="90.171875" gradientTransform="matrix(1.1573129 0 0 .99590774 -7.551021 .197132)" gradientUnits="userSpaceOnUse" r="42" xlink:href="#i"/><linearGradient id="k" gradientUnits="userSpaceOnUse" x1="48" x2="48" xlink:href="#i" y1="20.220806" y2="138.66119"/><linearGradient id="l"><stop offset="0"/><stop offset="1" stop-opacity="0"/></linearGradient><filter id="m" color-interpolation-filters="sRGB"><feGaussianBlur stdDeviation=".53347418"/></filter><linearGradient id="n"><stop offset="0"/><stop offset=".30000001" stop-color="#a5a5a5"/><stop offset=".60000002" stop-color="#4c4c4c"/><stop offset="1"/></linearGradient><linearGradient id="o"><stop offset="0" stop-color="#a5a5a5"/><stop offset=".30000001" stop-color="#fefefe"/><stop offset=".60000002" stop-color="#a5a5a5"/><stop offset="1" stop-color="#636363"/></linearGradient><linearGradient id="p" gradientTransform="matrix(.96592583 .25881905 -.25881905 .96592583 30.00523 -25.91561)" gradientUnits="userSpaceOnUse" x1="79.814896" x2="39.328308" xlink:href="#l" y1="106.04263" y2="35.917809"/><radialGradient id="q" cx="39.04879" cy="28.09796" gradientTransform="matrix(.02521851 1.5993168 -.98834063 .01558446 65.834392 -34.7967)" gradientUnits="userSpaceOnUse" r="36.428211"><stop offset="0" stop-color="#fff9b9"/><stop offset="1" stop-color="#fff79e" stop-opacity="0"/></radialGradient><linearGradient id="r" gradientUnits="userSpaceOnUse" x1="48" x2="55.077717" xlink:href="#n" y1="56" y2="56"/><linearGradient id="s" gradientUnits="userSpaceOnUse" x1="48" x2="56.153542" xlink:href="#o" y1="56" y2="56"/><linearGradient id="t" gradientTransform="matrix(1 0 0 -1 0 112)" gradientUnits="userSpaceOnUse" x1="48" x2="55.868713" xlink:href="#o" y1="56" y2="56"/><linearGradient id="u" gradientUnits="userSpaceOnUse" x1="48" x2="48" xlink:href="#l" y1="96" y2="31.677887"/><radialGradient id="v" cx="32" cy="32" gradientUnits="userSpaceOnUse" r="8"><stop offset="0" stop-color="#ffb800"/><stop offset="1" stop-color="#ffb800" stop-opacity="0"/></radialGradient><radialGradient id="w" cx="29.094891" cy="31.601685" gradientUnits="userSpaceOnUse" r="7.244909"><stop offset="0" stop-color="#ffe375"/><stop offset="1" stop-color="#ffa600"/></radialGradient><linearGradient id="x" gradientUnits="userSpaceOnUse" x1="48" x2="54" xlink:href="#n" y1="56" y2="56"/><linearGradient id="y" gradientUnits="userSpaceOnUse" x1="48" x2="54" xlink:href="#o" y1="56" y2="56"/><linearGradient id="z" gradientTransform="matrix(1 0 0 -1 0 112)" gradientUnits="userSpaceOnUse" x1="48" x2="54" xlink:href="#o" y1="56" y2="56"/><linearGradient id="A" gradientUnits="userSpaceOnUse" x1="48" x2="48" xlink:href="#l" y1="96" y2="16"/><g><path d="m12-95.03125c-5.5110903 0-10.03125 4.52016-10.03125 10.03125v71c0 5.5110902 4.5201598 10.03125 10.03125 10.03125h72c5.51109 0 10.03125-4.5201597 10.03125-10.03125v-71c0-5.51109-4.52016-10.03125-10.03125-10.03125z" fill="url(#c)" opacity=".08" transform="scale(1 -1)"/><g fill="url(#e)"><path d="m12-94.03125c-4.971633 0-9.03125 4.059617-9.03125 9.03125v71c0 4.9716329 4.0596171 9.03125 9.03125 9.03125h72c4.971633 0 9.03125-4.059617 9.03125-9.03125v-71c0-4.971633-4.059617-9.03125-9.03125-9.03125z" opacity=".1" transform="scale(1 -1)"/><path d="m12-93c-4.4091333 0-8 3.590867-8 8v71c0 4.4091333 3.5908667 8 8 8h72c4.409133 0 8-3.5908667 8-8v-71c0-4.409133-3.590867-8-8-8z" opacity=".2" transform="scale(1 -1)"/><rect height="85" opacity=".3" rx="7" transform="scale(1 -1)" width="86" x="5" y="-92"/></g><rect fill="url(#f)" height="84" opacity=".45" rx="6" transform="scale(1 -1)" width="84" x="6" y="-91"/></g><rect fill="url(#g)" height="84" rx="6" width="84" x="6" y="6"/><path d="m12 6c-3.324 0-6 2.676-6 6v2 68 2c0 .334721.04135.6507.09375.96875.0487.295596.09704.596915.1875.875.00988.03038.020892.0636.03125.09375.098865.287771.2348802.547452.375.8125.1445918.273507.3156161.535615.5.78125s.3737765.473472.59375.6875c.439947.428056.94291.814526 1.5 1.09375.278545.139612.5734731.246947.875.34375-.2562018-.100222-.4867109-.236272-.71875-.375-.00741-.0044-.023866.0045-.03125 0-.031933-.0193-.062293-.04251-.09375-.0625-.120395-.0767-.2310226-.163513-.34375-.25-.1061728-.0808-.2132809-.161112-.3125-.25-.1779299-.161433-.3474596-.345388-.5-.53125-.1075789-.130255-.2183939-.265285-.3125-.40625-.025089-.03838-.038446-.08587-.0625-.125-.064763-.103032-.1302275-.204517-.1875-.3125-.1010083-.194706-.2056748-.415701-.28125-.625-.00796-.02181-.023589-.04055-.03125-.0625-.0318251-.09195-.0358045-.186831-.0625-.28125-.0303323-.106618-.0703894-.203031-.09375-.3125-.0728786-.341512-.125-.698205-.125-1.0625v-2-68-2c0-2.781848 2.2181517-5 5-5h2 68 2c2.781848 0 5 2.218152 5 5v2 68 2c0 .364295-.05212.720988-.125 1.0625-.04415.206893-.08838.397658-.15625.59375-.0077.02195-.0233.04069-.03125.0625-.06274.173739-.138383.367449-.21875.53125-.04158.0828-.07904.169954-.125.25-.0546.09721-.126774.18835-.1875.28125-.09411.140965-.204921.275995-.3125.40625-.143174.17445-.303141.346998-.46875.5-.01117.0102-.01998.02115-.03125.03125-.138386.125556-.285091.234436-.4375.34375-.102571.07315-.204318.153364-.3125.21875-.0074.0045-.02384-.0044-.03125 0-.232039.138728-.462548.274778-.71875.375.301527-.0968.596455-.204138.875-.34375.55709-.279224 1.060053-.665694 1.5-1.09375.219973-.214028.409366-.441865.59375-.6875s.355408-.507743.5-.78125c.14012-.265048.276135-.524729.375-.8125.01041-.03078.02133-.06274.03125-.09375.09046-.278085.1388-.579404.1875-.875.0524-.31805.09375-.634029.09375-.96875v-2-68-2c0-3.324-2.676-6-6-6z" fill="url(#h)" opacity=".5"/><path d="m12 90c-3.324 0-6-2.676-6-6v-2-68-2c0-.334721.04135-.6507.09375-.96875.0487-.295596.09704-.596915.1875-.875.00988-.03038.020892-.0636.03125-.09375.098865-.287771.2348802-.547452.375-.8125.1445918-.273507.3156161-.535615.5-.78125s.3737765-.473472.59375-.6875c.439947-.428056.94291-.814526 1.5-1.09375.278545-.139612.5734731-.246947.875-.34375-.2562018.100222-.4867109.236272-.71875.375-.00741.0044-.023866-.0045-.03125 0-.031933.0193-.062293.04251-.09375.0625-.120395.0767-.2310226.163513-.34375.25-.1061728.0808-.2132809.161112-.3125.25-.1779299.161433-.3474596.345388-.5.53125-.1075789.130255-.2183939.265285-.3125.40625-.025089.03838-.038446.08587-.0625.125-.064763.103032-.1302275.204517-.1875.3125-.1010083.194706-.2056748.415701-.28125.625-.00796.02181-.023589.04055-.03125.0625-.0318251.09195-.0358045.186831-.0625.28125-.0303323.106618-.0703894.203031-.09375.3125-.0728786.341512-.125.698205-.125 1.0625v2 68 2c0 2.781848 2.2181517 5 5 5h2 68 2c2.781848 0 5-2.218152 5-5v-2-68-2c0-.364295-.05212-.720988-.125-1.0625-.04415-.206893-.08838-.397658-.15625-.59375-.0077-.02195-.0233-.04069-.03125-.0625-.06274-.173739-.138383-.367449-.21875-.53125-.04158-.0828-.07904-.169954-.125-.25-.0546-.09721-.126774-.18835-.1875-.28125-.09411-.140965-.204921-.275995-.3125-.40625-.143174-.17445-.303141-.346998-.46875-.5-.01117-.0102-.01998-.02115-.03125-.03125-.138386-.125556-.285091-.234436-.4375-.34375-.102571-.07315-.204318-.153364-.3125-.21875-.0074-.0045-.02384.0044-.03125 0-.232039-.138728-.462548-.274778-.71875-.375.301527.0968.596455.204138.875.34375.55709.279224 1.060053.665694 1.5 1.09375.219973.214028.409366.441865.59375.6875s.355408.507743.5.78125c.14012.265048.276135.524729.375.8125.01041.03078.02133.06274.03125.09375.09046.278085.1388.579404.1875.875.0524.31805.09375.634029.09375.96875v2 68 2c0 3.324-2.676 6-6 6z" fill="url(#j)" opacity=".2"/><rect height="66" rx="12" style="opacity:.1;stroke:#fefefe;stroke-width:.5;stroke-linecap:round;clip-path:url(#b);fill:url(#k);filter:url(#a)" width="66" x="15" y="15"/><g transform="translate(-.128068 -.008414)"><path d="m61.895589 17.34349c-.135233-.04214-.28289-.05044-.416672-.01459l-5.787197 1.555153c-.535123.143386-.804929.915704-.58985 1.718389l3.238555 12.061692 6.733607 25.097978 4.37878 16.37891 5.585295 20.810946c.215078.802687.824216 1.348782 1.359339 1.205396l5.787197-1.555154c.535123-.143386.804929-.915701.589851-1.718388l-5.585295-20.810946-4.37878-16.378909-6.733607-25.097979-3.238556-12.061692c-.161309-.602013-.536968-1.064392-.942667-1.190806z" fill="url(#p)" filter="url(#m)" opacity=".1" transform="matrix(.8286091 -.55982761 .55982761 .8286091 -40.811413 58.691203)"/><path d="m61.895589 17.34349c-.135233-.04214-.28289-.05044-.416672-.01459l-5.787197 1.555153c-.535123.143386-.804929.915704-.58985 1.718389l3.238555 12.061692 6.733607 25.097978 4.37878 16.37891 5.585295 20.810946c.215078.802687.824216 1.348782 1.359339 1.205396l5.787197-1.555154c.535123-.143386.804929-.915701.589851-1.718388l-5.585295-20.810946-4.37878-16.378909-6.733607-25.097979-3.238556-12.061692c-.161309-.602013-.536968-1.064392-.942667-1.190806z" fill="url(#p)" filter="url(#m)" opacity=".3" transform="matrix(.93863507 -.34491188 .34491188 .93863507 -28.481108 31.913896)"/><path d="m61.895589 17.34349c-.135233-.04214-.28289-.05044-.416672-.01459l-5.787197 1.555153c-.535123.143386-.804929.915704-.58985 1.718389l3.238555 12.061692 6.733607 25.097978 4.37878 16.37891 5.585295 20.810946c.215078.802687.824216 1.348782 1.359339 1.205396l5.787197-1.555154c.535123-.143386.804929-.915701.589851-1.718388l-5.585295-20.810946-4.37878-16.378909-6.733607-25.097979-3.238556-12.061692c-.161309-.602013-.536968-1.064392-.942667-1.190806z" fill="url(#p)" filter="url(#m)" opacity=".12"/><path d="m73.34375 6c-7.360276 25.499114-22.654005 54.407743-36 50.03125-14.047277-4.606462-5.118552-23.279673-.65625-27.875-5.254229 4.926829-18.400032 25.281971-1.625 34.1875 12.932641 6.86568 39.733215-8.78461 54.9375-29.96875v-20.375c0-3.324-2.676-6-6-6z" fill="url(#q)" opacity=".4"/><g transform="translate(70)"><rect fill="url(#r)" height="80" rx="1" ry="1.5" width="8" x="48" y="16"/><path d="m49 16c-.554 0-1 .669-1 1.5v12.5h8v-12.5c0-.831-.446-1.5-1-1.5z" fill="url(#s)"/><path d="m49 96c-.554 0-1-.669-1-1.5v-12.5h8v12.5c0 .831-.446 1.5-1 1.5z" fill="url(#t)"/><rect fill="url(#u)" height="80" opacity=".3" rx="1" ry="1.5" width="8" x="48" y="16"/><path d="m49 16c-.554 0-1 .669-1 1.5v77c0 .831.446 1.5 1 1.5h6c.554 0 1-.669 1-1.5v-77c0-.831-.446-1.5-1-1.5zm.125 1h5.75c.04929.07394.125.264325.125.5v77c0 .235675-.07571.426061-.125.5h-5.75c-.049293-.073939-.125-.264325-.125-.5v-77c0-.235675.07571-.426061.125-.5z" opacity=".2"/></g><g fill="#fc0"><g enable-background="new" transform="matrix(1.1298846 0 0 1.1298846 7.44748 29.550012)"><path d="m40 32a8 8 0 1 1 -16 0 8 8 0 1 1 16 0z" fill="url(#v)" transform="translate(-1 -1)"/><g transform="matrix(.8660254 .5 -.5 .8660254 21.657457 -10.861778)"><path d="m23.90625 22.633975 2.383468 8.216066-6.186993 5.931209 8.186993-2.467107 5.991532 6.270632-2.52743-8.270632 6.330955-5.907893-8.330955 2.443791z" fill="#fc0" opacity=".1"/><path d="m33.777741 39.712619-5.216804-6.034048-7.576981 2.605964 6.074408-5.15034-2.646323-7.643445 5.163457 6.064847 7.630327-2.636762-6.025795 5.354295z" fill="#fc0" opacity=".2"/><path d="m33.277741 38.846594-4.529283-5.952006-6.898477 2.889947 5.952006-4.529283-2.889946-6.898477 4.529282 5.952006 6.898477-2.889946-5.952006 4.529282z" fill="url(#w)"/></g></g><g enable-background="new" transform="matrix(.74835613 0 0 .74835613 49.786131 23.15389)"><path d="m40 32a8 8 0 1 1 -16 0 8 8 0 1 1 16 0z" fill="url(#v)" transform="translate(-1 -1)"/><g transform="matrix(.8660254 .5 -.5 .8660254 21.657457 -10.861778)"><path d="m23.90625 22.633975 2.383468 8.216066-6.186993 5.931209 8.186993-2.467107 5.991532 6.270632-2.52743-8.270632 6.330955-5.907893-8.330955 2.443791z" fill="#fc0" opacity=".1"/><path d="m33.777741 39.712619-5.216804-6.034048-7.576981 2.605964 6.074408-5.15034-2.646323-7.643445 5.163457 6.064847 7.630327-2.636762-6.025795 5.354295z" fill="#fc0" opacity=".2"/><path d="m33.277741 38.846594-4.529283-5.952006-6.898477 2.889947 5.952006-4.529283-2.889946-6.898477 4.529282 5.952006 6.898477-2.889946-5.952006 4.529282z" fill="url(#w)"/></g></g><g enable-background="new" transform="matrix(1.8398335 0 0 1.8398335 -31.184817 -10.840219)"><path d="m40 32a8 8 0 1 1 -16 0 8 8 0 1 1 16 0z" fill="url(#v)" transform="translate(-1 -1)"/><g transform="matrix(.8660254 .5 -.5 .8660254 21.657457 -10.861778)"><path d="m23.90625 22.633975 2.383468 8.216066-6.186993 5.931209 8.186993-2.467107 5.991532 6.270632-2.52743-8.270632 6.330955-5.907893-8.330955 2.443791z" fill="#fc0" opacity=".1"/><path d="m33.777741 39.712619-5.216804-6.034048-7.576981 2.605964 6.074408-5.15034-2.646323-7.643445 5.163457 6.064847 7.630327-2.636762-6.025795 5.354295z" fill="#fc0" opacity=".2"/><path d="m33.277741 38.846594-4.529283-5.952006-6.898477 2.889947 5.952006-4.529283-2.889946-6.898477 4.529282 5.952006 6.898477-2.889946-5.952006 4.529282z" fill="url(#w)"/></g></g><g enable-background="new" transform="matrix(.87787637 0 0 .87787637 3.932715 -6.34023)"><path d="m40 32a8 8 0 1 1 -16 0 8 8 0 1 1 16 0z" fill="url(#v)" transform="translate(-1 -1)"/><g transform="matrix(.8660254 .5 -.5 .8660254 21.657457 -10.861778)"><path d="m23.90625 22.633975 2.383468 8.216066-6.186993 5.931209 8.186993-2.467107 5.991532 6.270632-2.52743-8.270632 6.330955-5.907893-8.330955 2.443791z" fill="#fc0" opacity=".1"/><path d="m33.777741 39.712619-5.216804-6.034048-7.576981 2.605964 6.074408-5.15034-2.646323-7.643445 5.163457 6.064847 7.630327-2.636762-6.025795 5.354295z" fill="#fc0" opacity=".2"/><path d="m33.277741 38.846594-4.529283-5.952006-6.898477 2.889947 5.952006-4.529283-2.889946-6.898477 4.529282 5.952006 6.898477-2.889946-5.952006 4.529282z" fill="url(#w)"/></g></g></g><path d="m76.6875-9.84375a1.4541256 1.4541256 0 0 0 -1.40625 1.21875c-2.27557 13.4258624-7.813985 30.838273-14.71875 44.09375-3.452382 6.627738-7.257201 12.211398-11.03125 15.71875s-7.295325 4.883383-10.65625 3.78125c-3.405055-1.116605-5.079-2.96766-5.9375-5.28125s-.790906-5.207445-.125-8.125 1.907685-5.838542 3.21875-8.15625 2.820599-4.084934 3.375-4.46875l-.8125-1.1875-.84375-1.1875c-1.396565 1.011306-3.259903 3.034721-5.25 5.78125s-4.040377 6.166856-5.375 9.875-1.976089 7.742496-1.03125 11.5625 3.554543 7.334435 8.28125 9.84375c4.965377 2.636019 11.452026 2.235318 18.34375-.09375s14.287059-6.6334 21.25-12.21875c13.925882-11.170699 26.1592-27.463354 28.3125-43.8125a1.4541256 1.4541256 0 0 0 -.65625-1.40625l-24.125-15.6875a1.4541256 1.4541256 0 0 0 -.8125-.25z" fill="url(#q)" opacity="0"/><g transform="translate(90)"><rect fill="url(#x)" height="80" rx="1" ry="1.5" width="6" x="48" y="16"/><path d="m49 16c-.554 0-1 .669-1 1.5v10.5h6v-10.5c0-.831-.446-1.5-1-1.5z" fill="url(#y)"/><path d="m49 96c-.554 0-1-.669-1-1.5v-10.5h6v10.5c0 .831-.446 1.5-1 1.5z" fill="url(#z)"/><rect fill="url(#A)" height="80" opacity=".3" rx="1" ry="1.5" width="6" x="48" y="16"/><path d="m49 16c-.554 0-1 .669-1 1.5v77c0 .831.446 1.5 1 1.5h4c.554 0 1-.669 1-1.5v-77c0-.831-.446-1.5-1-1.5zm.125 1h3.75c.04929.07394.125.264325.125.5v77c0 .235675-.07571.426061-.125.5h-3.75c-.049293-.073939-.125-.264325-.125-.5v-77c0-.235675.07571-.426061.125-.5z" opacity=".2"/></g><g transform="matrix(.8660254 -.5 .5 .8660254 -14.033321 37.267662)"><rect fill="url(#r)" height="80" rx="1" ry="1.5" width="8" x="48" y="16"/><path d="m49 16c-.554 0-1 .669-1 1.5v12.5h8v-12.5c0-.831-.446-1.5-1-1.5z" fill="url(#s)"/><path d="m49 96c-.554 0-1-.669-1-1.5v-12.5h8v12.5c0 .831-.446 1.5-1 1.5z" fill="url(#t)"/><rect fill="url(#u)" height="80" opacity=".3" rx="1" ry="1.5" width="8" x="48" y="16"/><path d="m49 16c-.554 0-1 .669-1 1.5v77c0 .831.446 1.5 1 1.5h6c.554 0 1-.669 1-1.5v-77c0-.831-.446-1.5-1-1.5zm.125 1h5.75c.04929.07394.125.264325.125.5v77c0 .235675-.07571.426061-.125.5h-5.75c-.049293-.073939-.125-.264325-.125-.5v-77c0-.235675.07571-.426061.125-.5z" opacity=".2"/></g></g></svg>