<svg height="96" width="96" xmlns="http://www.w3.org/2000/svg" xmlns:xlink="http://www.w3.org/1999/xlink"><linearGradient id="a"><stop offset="0" stop-color="#fefefe"/><stop offset="1" stop-color="#fefefe" stop-opacity="0"/></linearGradient><linearGradient id="b" gradientUnits="userSpaceOnUse" x1="36.357143" x2="36.357143" xlink:href="#a" y1="6" y2="63.893143"/><filter id="c" color-interpolation-filters="sRGB" height="1.384" width="1.384" x="-.192" y="-.192"><feGaussianBlur stdDeviation="5.28"/></filter><linearGradient id="d" gradientUnits="userSpaceOnUse" x1="48" x2="48" xlink:href="#a" y1="20.220806" y2="138.66119"/><radialGradient id="e" cx="48" cy="90.171875" gradientTransform="matrix(1.1573129 0 0 .99590774 -7.551021 .197132)" gradientUnits="userSpaceOnUse" r="42" xlink:href="#a"/><clipPath id="f"><rect height="84" rx="6" width="84" x="6" y="6"/></clipPath><linearGradient id="g" gradientUnits="userSpaceOnUse" x1="48" x2="48" y1="-6" y2="-90.012283"><stop offset="0" stop-color="#d9cce6"/><stop offset="1" stop-color="#a895b9"/></linearGradient><linearGradient id="h" gradientTransform="matrix(1.0058652 0 0 .994169 100 0)" gradientUnits="userSpaceOnUse" x1="45.447727" x2="45.447727" y1="92.539597" y2="7.01654"><stop offset="0"/><stop offset="1" stop-opacity=".588235"/></linearGradient><linearGradient id="i" gradientTransform="matrix(1.0238095 0 0 1.0119048 -1.142857 -98.071429)" gradientUnits="userSpaceOnUse" x1="32.251034" x2="32.251034" xlink:href="#h" y1="6.131708" y2="90.238609"/><linearGradient id="j" gradientTransform="translate(0 -97)" gradientUnits="userSpaceOnUse" x1="32.251034" x2="32.251034" xlink:href="#h" y1="6.131708" y2="90.238609"/><linearGradient id="k" gradientTransform="matrix(1 0 0 -1.0678739 -116.9274 158.80616)" gradientUnits="userSpaceOnUse" x1="390.4234" x2="390.4234" y1="-68.190804" y2="53.155701"><stop offset="0" stop-color="#482957"/><stop offset="1" stop-color="#c19ed3"/></linearGradient><g fill="url(#i)"><path d="m12-95.03125c-5.5110903 0-10.03125 4.52016-10.03125 10.03125v71c0 5.5110902 4.5201598 10.03125 10.03125 10.03125h72c5.51109 0 10.03125-4.5201597 10.03125-10.03125v-71c0-5.51109-4.52016-10.03125-10.03125-10.03125z" opacity=".08" transform="scale(1 -1)"/><path d="m12-94.03125c-4.971633 0-9.03125 4.059617-9.03125 9.03125v71c0 4.9716329 4.0596171 9.03125 9.03125 9.03125h72c4.971633 0 9.03125-4.059617 9.03125-9.03125v-71c0-4.971633-4.059617-9.03125-9.03125-9.03125z" opacity=".1" transform="scale(1 -1)"/><path d="m12-93c-4.4091333 0-8 3.590867-8 8v71c0 4.4091333 3.5908667 8 8 8h72c4.409133 0 8-3.5908667 8-8v-71c0-4.409133-3.590867-8-8-8z" opacity=".2" transform="scale(1 -1)"/><rect height="85" opacity=".3" rx="7" transform="scale(1 -1)" width="86" x="5" y="-92"/></g><rect fill="url(#j)" height="84" opacity=".45" rx="6" transform="scale(1 -1)" width="84" x="6" y="-91"/><rect fill="url(#g)" height="84" rx="6" transform="scale(1 -1)" width="84" x="6" y="-90"/><path d="m12 6c-3.324 0-6 2.676-6 6v2 68 2c0 .334721.04135.6507.09375.96875.0487.295596.09704.596915.1875.875.00988.03038.020892.0636.03125.09375.098865.287771.2348802.547452.375.8125.1445918.273507.3156161.535615.5.78125s.3737765.473472.59375.6875c.439947.428056.94291.814526 1.5 1.09375.278545.139612.5734731.246947.875.34375-.2562018-.100222-.4867109-.236272-.71875-.375-.00741-.0044-.023866.0045-.03125 0-.031933-.0193-.062293-.04251-.09375-.0625-.120395-.0767-.2310226-.163513-.34375-.25-.1061728-.0808-.2132809-.161112-.3125-.25-.1779299-.161433-.3474596-.345388-.5-.53125-.1075789-.130255-.2183939-.265285-.3125-.40625-.025089-.03838-.038446-.08587-.0625-.125-.064763-.103032-.1302275-.204517-.1875-.3125-.1010083-.194706-.2056748-.415701-.28125-.625-.00796-.02181-.023589-.04055-.03125-.0625-.0318251-.09195-.0358045-.186831-.0625-.28125-.0303323-.106618-.0703894-.203031-.09375-.3125-.0728786-.341512-.125-.698205-.125-1.0625v-2-68-2c0-2.781848 2.2181517-5 5-5h2 68 2c2.781848 0 5 2.218152 5 5v2 68 2c0 .364295-.05212.720988-.125 1.0625-.04415.206893-.08838.397658-.15625.59375-.0077.02195-.0233.04069-.03125.0625-.06274.173739-.138383.367449-.21875.53125-.04158.0828-.07904.169954-.125.25-.0546.09721-.126774.18835-.1875.28125-.09411.140965-.204921.275995-.3125.40625-.143174.17445-.303141.346998-.46875.5-.01117.0102-.01998.02115-.03125.03125-.138386.125556-.285091.234436-.4375.34375-.102571.07315-.204318.153364-.3125.21875-.0074.0045-.02384-.0044-.03125 0-.232039.138728-.462548.274778-.71875.375.301527-.0968.596455-.204138.875-.34375.55709-.279224 1.060053-.665694 1.5-1.09375.219973-.214028.409366-.441865.59375-.6875s.355408-.507743.5-.78125c.14012-.265048.276135-.524729.375-.8125.01041-.03078.02133-.06274.03125-.09375.09046-.278085.1388-.579404.1875-.875.0524-.31805.09375-.634029.09375-.96875v-2-68-2c0-3.324-2.676-6-6-6z" fill="url(#b)" opacity=".5"/><path d="m12 90c-3.324 0-6-2.676-6-6v-2-68-2c0-.334721.04135-.6507.09375-.96875.0487-.295596.09704-.596915.1875-.875.00988-.03038.020892-.0636.03125-.09375.098865-.287771.2348802-.547452.375-.8125.1445918-.273507.3156161-.535615.5-.78125s.3737765-.473472.59375-.6875c.439947-.428056.94291-.814526 1.5-1.09375.278545-.139612.5734731-.246947.875-.34375-.2562018.100222-.4867109.236272-.71875.375-.00741.0044-.023866-.0045-.03125 0-.031933.0193-.062293.04251-.09375.0625-.120395.0767-.2310226.163513-.34375.25-.1061728.0808-.2132809.161112-.3125.25-.1779299.161433-.3474596.345388-.5.53125-.1075789.130255-.2183939.265285-.3125.40625-.025089.03838-.038446.08587-.0625.125-.064763.103032-.1302275.204517-.1875.3125-.1010083.194706-.2056748.415701-.28125.625-.00796.02181-.023589.04055-.03125.0625-.0318251.09195-.0358045.186831-.0625.28125-.0303323.106618-.0703894.203031-.09375.3125-.0728786.341512-.125.698205-.125 1.0625v2 68 2c0 2.781848 2.2181517 5 5 5h2 68 2c2.781848 0 5-2.218152 5-5v-2-68-2c0-.364295-.05212-.720988-.125-1.0625-.04415-.206893-.08838-.397658-.15625-.59375-.0077-.02195-.0233-.04069-.03125-.0625-.06274-.173739-.138383-.367449-.21875-.53125-.04158-.0828-.07904-.169954-.125-.25-.0546-.09721-.126774-.18835-.1875-.28125-.09411-.140965-.204921-.275995-.3125-.40625-.143174-.17445-.303141-.346998-.46875-.5-.01117-.0102-.01998-.02115-.03125-.03125-.138386-.125556-.285091-.234436-.4375-.34375-.102571-.07315-.204318-.153364-.3125-.21875-.0074-.0045-.02384.0044-.03125 0-.232039-.138728-.462548-.274778-.71875-.375.301527.0968.596455.204138.875.34375.55709.279224 1.060053.665694 1.5 1.09375.219973.214028.409366.441865.59375.6875s.355408.507743.5.78125c.14012.265048.276135.524729.375.8125.01041.03078.02133.06274.03125.09375.09046.278085.1388.579404.1875.875.0524.31805.09375.634029.09375.96875v2 68 2c0 3.324-2.676 6-6 6z" fill="url(#e)" opacity=".2"/><rect height="66" rx="12" style="opacity:.1;stroke:#fefefe;stroke-width:.5;stroke-linecap:round;clip-path:url(#f);fill:url(#d);filter:url(#c)" width="66" x="15" y="15"/><g transform="matrix(.80577658 0 0 .68731974 -155.37803 -73.371903)"><path d="m243.455 135.54157 10.996 4.87164c0 2.98577-.227 12.0926 1.521 14.77937 18.287 25.15164 15.21 75.56703-3.705 76.86022-28.804 0-39.79-20.89508-39.79-40.1008 0-17.51419 19.661-29.15616 31.403-39.50492 2.982-2.78715 2.464-8.94451-.425-16.90551z" fill="#fffcdb" stroke-width="1.03338"/><path d="m254.454 140.23808 3.963 2.15924c-.372 2.78501.187 8.95626 2.795 10.54739 11.555 7.66199 22.457 16.02024 26.744 24.37956 15.282 29.4541-10.717 56.71905-33.174 54.13159 12.207-9.65251 15.749-29.45409 11.183-51.04757-1.864-8.45863-4.753-16.12063-9.879-24.77788-2.22-4.25014-1.445-9.52116-1.632-15.39233z" fill="url(#k)" stroke-width="1.03338"/><g transform="matrix(1.0997407 0 0 .93682298 41.297578 45.92145)"><path d="m197.761 74.04-3.019 11.991c4.277-8.469 11.069-14.842 18.868-20.461-5.702 6.625-10.901 13.25-14.088 19.875 5.367-7.548 12.578-11.74 20.712-14.508-10.817 9.644-19.404 19.992-25.946 30.391l-5.199-2.264c.923-8.302 4.059-16.805 8.672-25.024z" fill="#abcd03"/><path d="m213.625 65.563c-3.878 4.14-10.59 11.403-14.188 17.75-3.068 5.414-5.173 10.23-6.344 13.469-.749 2.072-3.782 2.051-2.906-1.375.009-.034.022-.059.031-.094 1.168-2.759 2.939-6.611 4.719-10l2.812-11.281c-1.386 4.762-3.372 9.099-4.593 14.031.001 0-2.147 4.934-2.719 6.187-.195.426-.357.836-.5 1.219-.01.025-.023.039-.031.063-.243.541-.407 1.133-.531 1.656-.02.085-.014.137-.031.219-.161.741-.251 1.312-.251 1.312.874.754 5.188 2.625 5.188 2.625 6.541-10.398 15.15-20.763 25.969-30.406-8.135 2.768-15.352 6.952-20.719 14.5 3.187-6.625 8.392-13.251 14.094-19.875z" fill="#437202"/><path d="m193.34 100.635.941.708c6.541-10.398 15.15-20.763 25.969-30.406-6.205 5.076-14.537 12.069-18.063 16.688-4.459 5.842-1.835.354-1.835.354s2.362-6.11 6.521-9.943c-2.417 1.154-6.604 6.364-7.342 7.401 0 0-3.145 6.105-4.898 11.626-.471 1.481-1.293 3.572-1.293 3.572z" fill="#153902"/></g><path d="m251.3 139.00789v93.03851c.327.005.641 0 .972 0 18.916-1.2932 22.003-51.71927 3.716-76.8709-1.748-2.68677-1.528-11.77225-1.528-14.75909z" fill="#f3ecaa" stroke-width="1.03338"/><g transform="matrix(.68230175 0 0 .72861221 78.404988 51.648129)"><path d="m255.226 120.587 12.018 1.639c-3.551 11.745 6.967 19.939 10.381 21.852 7.647 4.234 15.022 8.604 20.896 13.93 11.063 10.106 17.345 24.31 17.345 39.333 0 14.886-6.829 29.226-18.301 38.786-10.789 9.014-25.676 12.838-40.152 12.838-9.014 0-17.072-.409-25.812-3.277-19.939-6.693-34.826-23.764-36.055-44.25-1.093-15.979 2.458-28.135 14.887-40.836 6.418-6.692 19.393-14.34 28.271-20.486 4.371-3.005 9.014-11.473.136-27.451l1.776-1.366 13.156 8.812-11.107-4.578c.956 1.366 3.551 7.512 4.098 9.287 1.229 5.053.683 9.971-.41 12.155-5.599 10.107-15.159 12.838-22.124 18.574-12.292 10.106-25.676 18.164-24.174 45.889.683 13.656 11.336 30.318 27.314 38.104 9.014 4.371 19.394 6.146 29.91 6.691 9.423.41 27.451-5.189 37.284-13.384 10.516-8.739 16.389-21.987 16.389-35.508 0-13.658-5.463-26.632-15.706-35.783-5.873-5.326-15.569-11.745-21.577-15.16-6.01-3.414-13.521-12.974-11.063-22.124z"/><path d="m251.539 140.8c-1.229 6.283-2.595 17.618-8.058 21.852-2.322 1.638-4.644 3.278-7.102 4.916-9.833 6.693-19.667 12.974-24.173 29.09-.956 3.414-.136 7.102.684 10.516 2.458 9.833 9.423 20.486 14.886 26.77 0 .272 1.093.955 1.093 1.229 4.507 5.327 5.873 6.829 22.944 10.652l-.41 1.912c-10.243-2.73-18.71-5.188-24.037-11.336 0-.136-.956-1.093-.956-1.093-5.736-6.556-12.702-17.481-15.296-27.724-.956-4.098-1.775-7.238-.683-11.473 4.643-16.662 14.75-23.218 24.993-30.183 2.322-1.502 5.053-2.869 7.238-4.644 4.233-3.138 6.554-12.7 8.877-20.484z"/><path d="m255.906 166.748c.137 7.102-.557 10.665 1.219 15.719 1.092 3.004 4.782 7.102 5.875 11.063 1.502 5.326 3.139 11.199 3 14.75 0 4.098-.256 11.742-2.031 19.938-1.354 6.771-4.473 12.581-9.719 15.875-5.373-1.107-11.682-2.996-15.406-6.188-7.238-6.282-13.649-16.787-14.469-25.938-.682-7.512 6.272-18.589 15.969-24.188 8.194-4.78 10.099-10.228 11.875-18.969-2.457 7.648-4.766 14.059-12.687 18.156-11.472 6.008-17.359 16.096-16.812 25.657.819 12.291 5.741 20.619 15.438 27.312 4.097 2.867 11.751 5.898 16.531 6.719v-.625c3.625-.68 8.318-6.633 10.656-14.688 2.049-7.238 2.857-16.502 2.719-22.375-.137-3.414-1.643-10.809-4.375-17.5-1.502-3.688-3.809-7.374-5.312-9.969-1.639-2.596-1.651-8.194-2.471-14.749z"/><path d="m255.093 193.53c.137 4.779 2.057 10.904 2.875 17.188.684 4.644.387 9.308.25 13.406-.135 4.742-1.715 13.242-3.875 17.375-2.037-.935-2.832-2-4.156-3.719-1.638-2.322-2.75-4.645-3.843-7.375-.819-2.049-1.777-4.395-2.188-7.125-.546-4.098-.393-10.507 4.25-17.062 3.55-5.19 4.365-5.586 5.593-11.594-1.64 5.326-2.862 5.869-6.687 10.375-4.233 4.916-4.938 12.158-4.938 18.031 0 2.459.98 5.187 1.938 7.781 1.092 2.731 2.029 5.451 3.531 7.5 2.257 3.32 5.148 5.209 6.562 5.562.01.002.022-.003.031 0 .031.007.064.025.094.031v-.156c2.65-2.955 4.244-5.89 4.781-8.844.684-3.551.84-7.11 1.25-11.344.409-3.551.112-8.334-.844-13.25-1.364-6.145-3.668-12.411-4.624-16.78z"/><path d="m255.499 135.064c.137 7.101.682 20.35 2.594 25.539.547 1.775 5.6 9.56 9.149 18.983 2.459 6.556 3.005 12.564 3.415 14.34 1.639 7.785-.41 20.896-3.143 33.324-1.364 6.691-6.008 15.023-11.334 18.301l-1.092 1.912c3.004-.137 10.379-7.375 12.974-16.389 4.37-15.297 6.146-22.398 4.098-39.334-.272-1.64-.956-7.237-3.551-13.248-3.824-9.151-9.287-17.891-9.97-19.667-1.228-2.866-2.867-15.294-3.14-23.761z"/><path d="m258.062 125.352c-.406 7.298-.514 9.986.851 15.312 1.503 5.873 9.151 14.34 12.292 24.037 6.01 18.574 4.508 42.884.137 61.867-1.639 6.691-9.424 16.39-17.209 19.529l5.736 1.366c3.141-.138 11.198-7.647 14.34-16.252 5.053-13.521 6.01-29.636 3.961-46.571-.138-1.639-2.869-16.252-5.464-22.398-3.688-9.15-10.243-17.345-10.926-19.119-1.228-3.006-3.927-9.244-3.718-17.771z"/><path d="m253.719 120.215c.06-.006.119 3.265.168 9.562.048 6.297.086 15.614.106 27.251.021 11.637.026 25.584.018 40.798-.01 15.215-.033 31.684-.063 48.18h.094c0-15.527.005-31.045.016-45.526.01-14.481.024-27.917.044-39.414s.041-21.049.066-28.013.053-11.337.081-12.816c-.347.007-.531-.008-.53-.022-.001-.014.183-.028.571-.021.029 1.424.057 5.75.081 12.697.025 6.947.048 16.511.067 28.057.019 11.545.033 25.065.043 39.65.011 14.585.016 30.226.016 45.865-.335 0-.671 0-1.006 0-.03-16.556-.055-33.097-.063-48.376-.01-15.279-.005-29.284.017-40.963.021-11.679.059-21.022.107-27.332.049-6.311.108-9.583.167-9.577z"/></g></g></svg>