<svg height="96" width="96" xmlns="http://www.w3.org/2000/svg" xmlns:xlink="http://www.w3.org/1999/xlink"><linearGradient id="a"><stop offset="0" stop-color="#fefefe"/><stop offset="1" stop-color="#fefefe" stop-opacity="0"/></linearGradient><linearGradient id="b" gradientTransform="matrix(1.0238095 0 0 1.0119048 -1.142857 -98.071429)" gradientUnits="userSpaceOnUse" x1="32.251034" x2="32.251034" xlink:href="#c" y1="6.131708" y2="90.238609"/><linearGradient id="c" gradientTransform="matrix(1.0058652 0 0 .994169 100 0)" gradientUnits="userSpaceOnUse" x1="45.447727" x2="45.447727" y1="92.539597" y2="7.01654"><stop offset="0"/><stop offset="1" stop-opacity=".588235"/></linearGradient><linearGradient id="d" gradientTransform="translate(0 -97)" gradientUnits="userSpaceOnUse" x1="32.251034" x2="32.251034" xlink:href="#c" y1="6.131708" y2="90.238609"/><linearGradient id="e"><stop offset="0" stop-color="#4e4e4e"/><stop offset="1" stop-color="#b4b4b4"/></linearGradient><linearGradient id="f"><stop offset="0" stop-color="#d1d1d1"/><stop offset="1" stop-color="#ebebeb"/></linearGradient><linearGradient id="g"><stop offset="0" stop-color="#666"/><stop offset="1" stop-color="#666" stop-opacity="0"/></linearGradient><linearGradient id="h"><stop offset="0" stop-color="#a6a6a6"/><stop offset="1" stop-color="#a6a6a6" stop-opacity="0"/></linearGradient><radialGradient id="i" cx="78.473091" cy="53.737499" gradientTransform="matrix(.55288459 0 0 .546875 37.444785 23.106593)" gradientUnits="userSpaceOnUse" r="7.867482"><stop offset="0"/><stop offset="1" stop-opacity="0"/></radialGradient><radialGradient id="j" cx="47.176327" cy="60.865643" gradientTransform="matrix(.93677455 0 0 .88597785 35.365363 10.449286)" gradientUnits="userSpaceOnUse" r="6.540738" xlink:href="#h"/><linearGradient id="k" gradientTransform="matrix(.95833329 0 0 .94791667 2.051462 5.953759)" gradientUnits="userSpaceOnUse" x1="80.288666" x2="84.72673" y1="55.149612" y2="55.149612"><stop offset="0" stop-color="#8b8b8b"/><stop offset="1" stop-color="#202020"/></linearGradient><linearGradient id="l" gradientTransform="matrix(.90177245 0 0 .88692134 -107.78159 -55.166464)" gradientUnits="userSpaceOnUse" x1="74.347038" x2="75.463432" xlink:href="#g" y1="1.046193" y2="12.423947"/><linearGradient id="m" gradientTransform="matrix(.89163955 0 0 .89680461 -94.178671 72.794882)" gradientUnits="userSpaceOnUse" x1="74.347038" x2="75.463432" xlink:href="#g" y1="1.046193" y2="12.423947"/><radialGradient id="n" cx="48.260036" cy="63.649864" gradientTransform="matrix(1.019159 0 0 .99832482 -9.784471 -3.319457)" gradientUnits="userSpaceOnUse" r="6.540738" xlink:href="#h"/><linearGradient id="o" gradientTransform="matrix(.89191216 0 0 .89715214 4.683231 9.707593)" gradientUnits="userSpaceOnUse" x1="74.347038" x2="75.463432" xlink:href="#g" y1="1.046193" y2="12.423947"/><linearGradient id="p" gradientTransform="matrix(.84457109 0 0 .8732214 33.859822 -3.922972)" gradientUnits="userSpaceOnUse" x1="28.866877" x2="28.326187" xlink:href="#f" y1="40.394096" y2="20.10483"/><linearGradient id="q" gradientTransform="matrix(1.049299 0 0 1.095385 28.019121 -10.431456)" gradientUnits="userSpaceOnUse" x1="28.021021" x2="28.68815" xlink:href="#e" y1="41.563118" y2="18.52038"/><linearGradient id="r" gradientTransform="matrix(.9017791 0 0 .88692133 -3.270887 7.699341)" gradientUnits="userSpaceOnUse" x1="47.495132" x2="47.690239" y1="37.907127" y2="33.057198"><stop offset="0" stop-color="#2a2a2a"/><stop offset="1" stop-color="#3f3f3f"/></linearGradient><linearGradient id="s" gradientTransform="matrix(.84457109 0 0 .8732214 .568288 -3.922972)" gradientUnits="userSpaceOnUse" x1="28.866877" x2="28.326187" xlink:href="#f" y1="40.394096" y2="20.10483"/><linearGradient id="t" gradientTransform="matrix(1.049299 0 0 1.095385 -5.365689 -10.431456)" gradientUnits="userSpaceOnUse" x1="28.021021" x2="28.68815" xlink:href="#e" y1="41.563118" y2="18.52038"/><linearGradient id="u" gradientTransform="matrix(.95833329 0 0 .96302295 1.584735 -.623493)" gradientUnits="userSpaceOnUse" x1="80.382492" x2="81.381004" y1="47.168602" y2="73.843193"><stop offset="0" stop-color="#e3d4a0"/><stop offset="1" stop-color="#e3d4a0" stop-opacity="0"/></linearGradient><linearGradient id="v" gradientTransform="matrix(.99932111 0 0 .99931366 -.195426 -.291347)" gradientUnits="userSpaceOnUse" x1="47.590405" x2="47.686291" xlink:href="#a" y1="9.014712" y2="18.494488"/><radialGradient id="w" cx="39.569706" cy="59.550003" gradientTransform="matrix(1.2146387 -.01560155 .01952564 1.5201441 -9.762518 -29.662549)" gradientUnits="userSpaceOnUse" r="24.785732"><stop offset="0" stop-color="#8a8a8a"/><stop offset="1" stop-color="#8a8a8a" stop-opacity="0"/></radialGradient><radialGradient id="x" cx="43.494549" cy="9.453293" gradientTransform="matrix(1.0670381 .00193232 -.00244508 1.3501789 -3.305796 -3.321808)" gradientUnits="userSpaceOnUse" r="41.971489"><stop offset="0" stop-color="#eddda5"/><stop offset="1" stop-color="#b19638"/></radialGradient><linearGradient id="y" gradientUnits="userSpaceOnUse" x1="38.471962" x2="38.165184" xlink:href="#a" y1="46.694546" y2="58.889988"/><linearGradient id="z" gradientUnits="userSpaceOnUse" x1="37.504761" x2="37.981758" xlink:href="#a" y1="30.381496" y2="51.176284"/><g transform="matrix(.99932111 0 0 .99931366 -.195426 -.112606)"><g fill="url(#b)"><path d="m12-95.03125c-5.5110903 0-10.03125 4.52016-10.03125 10.03125v71c0 5.5110902 4.5201598 10.03125 10.03125 10.03125h72c5.51109 0 10.03125-4.5201597 10.03125-10.03125v-71c0-5.51109-4.52016-10.03125-10.03125-10.03125z" opacity=".08" transform="scale(1 -1)"/><path d="m12-94.03125c-4.971633 0-9.03125 4.059617-9.03125 9.03125v71c0 4.9716329 4.0596171 9.03125 9.03125 9.03125h72c4.971633 0 9.03125-4.059617 9.03125-9.03125v-71c0-4.971633-4.059617-9.03125-9.03125-9.03125z" opacity=".1" transform="scale(1 -1)"/><path d="m12-93c-4.4091333 0-8 3.590867-8 8v71c0 4.4091333 3.5908667 8 8 8h72c4.409133 0 8-3.5908667 8-8v-71c0-4.409133-3.590867-8-8-8z" opacity=".2" transform="scale(1 -1)"/><rect height="85" opacity=".3" rx="7" transform="scale(1 -1)" width="86" x="5" y="-92"/></g><rect fill="url(#d)" height="84" opacity=".45" rx="6" transform="scale(1 -1)" width="84" x="6" y="-91"/></g><rect fill="url(#x)" height="83.942352" rx="5.995927" ry="5.995882" width="83.942978" x="5.8005" y="5.704536"/><g opacity=".1" transform="matrix(.53239179494 0 0 .54566284678 -9.65990804518 -13.36287966656)"><path d="m62.689313 39.021131c-16.333581 0-29.59375 12.287337-29.59375 27.4375s13.260169 27.4375 29.59375 27.4375 29.5625-12.287337 29.5625-27.4375-13.228919-27.4375-29.5625-27.4375zm-.09375 5.3125c12.672416 0 22.9375 9.800216 22.9375 21.875s-10.265084 21.84375-22.9375 21.84375-22.9375-9.768966-22.9375-21.84375 10.265084-21.875 22.9375-21.875z"/><path d="m48.790369 55.783302a10.69499 11.402097 0 1 1 -21.38998 0 10.69499 11.402097 0 1 1 21.38998 0z" transform="matrix(.79338843 0 0 .75968992 32.000965 23.216397)"/><rect height="23.511301" ry=".588916" width="7.247845" x="59.043419" y="42.613438"/><rect height="23.511301" ry=".588916" transform="matrix(.55066532 .83472612 -.83472612 .55066532 0 0)" width="7.247845" x="85.381218" y="-15.196207"/><rect height="23.511301" ry=".588916" transform="matrix(-.55066532 .83472612 .83472612 .55066532 0 0)" width="7.247845" x="16.925377" y="94.029999"/></g><g opacity=".2" transform="matrix(.51574447717 0 0 .53555087984 -8.58373404153 -12.82957464086)"><path d="m62.689313 39.021131c-16.333581 0-29.59375 12.287337-29.59375 27.4375s13.260169 27.4375 29.59375 27.4375 29.5625-12.287337 29.5625-27.4375-13.228919-27.4375-29.5625-27.4375zm-.09375 5.3125c12.672416 0 22.9375 9.800216 22.9375 21.875s-10.265084 21.84375-22.9375 21.84375-22.9375-9.768966-22.9375-21.84375 10.265084-21.875 22.9375-21.875z"/><path d="m48.790369 55.783302a10.69499 11.402097 0 1 1 -21.38998 0 10.69499 11.402097 0 1 1 21.38998 0z" transform="matrix(.79338843 0 0 .75968992 32.000965 23.216397)"/><rect height="23.511301" ry=".588916" width="7.247845" x="59.043419" y="42.613438"/><rect height="23.511301" ry=".588916" transform="matrix(.55066532 .83472612 -.83472612 .55066532 0 0)" width="7.247845" x="85.381218" y="-15.196207"/><rect height="23.511301" ry=".588916" transform="matrix(-.55066532 .83472612 .83472612 .55066532 0 0)" width="7.247845" x="16.925377" y="94.029999"/></g><g opacity=".3" transform="matrix(.49798737131 0 0 .52291090051 -7.47082948006 -12.05890182653)"><path d="m62.689313 39.021131c-16.333581 0-29.59375 12.287337-29.59375 27.4375s13.260169 27.4375 29.59375 27.4375 29.5625-12.287337 29.5625-27.4375-13.228919-27.4375-29.5625-27.4375zm-.09375 5.3125c12.672416 0 22.9375 9.800216 22.9375 21.875s-10.265084 21.84375-22.9375 21.84375-22.9375-9.768966-22.9375-21.84375 10.265084-21.875 22.9375-21.875z"/><path d="m48.790369 55.783302a10.69499 11.402097 0 1 1 -21.38998 0 10.69499 11.402097 0 1 1 21.38998 0z" transform="matrix(.79338843 0 0 .75968992 32.000965 23.216397)"/><rect height="23.511301" ry=".588916" width="7.247845" x="59.043419" y="42.613438"/><rect height="23.511301" ry=".588916" transform="matrix(.55066532 .83472612 -.83472612 .55066532 0 0)" width="7.247845" x="85.381218" y="-15.196207"/><rect height="23.511301" ry=".588916" transform="matrix(-.55066532 .83472612 .83472612 .55066532 0 0)" width="7.247845" x="16.925377" y="94.029999"/></g><g opacity=".45" transform="matrix(.48134002251 0 0 .50647895423 -6.39465547641 -11.00153800647)"><path d="m62.689313 39.021131c-16.333581 0-29.59375 12.287337-29.59375 27.4375s13.260169 27.4375 29.59375 27.4375 29.5625-12.287337 29.5625-27.4375-13.228919-27.4375-29.5625-27.4375zm-.09375 5.3125c12.672416 0 22.9375 9.800216 22.9375 21.875s-10.265084 21.84375-22.9375 21.84375-22.9375-9.768966-22.9375-21.84375 10.265084-21.875 22.9375-21.875z"/><path d="m48.790369 55.783302a10.69499 11.402097 0 1 1 -21.38998 0 10.69499 11.402097 0 1 1 21.38998 0z" transform="matrix(.79338843 0 0 .75968992 32.000965 23.216397)"/><rect height="23.511301" ry=".588916" width="7.247845" x="59.043419" y="42.613438"/><rect height="23.511301" ry=".588916" transform="matrix(.55066532 .83472612 -.83472612 .55066532 0 0)" width="7.247845" x="85.381218" y="-15.196207"/><rect height="23.511301" ry=".588916" transform="matrix(-.55066532 .83472612 .83472612 .55066532 0 0)" width="7.247845" x="16.925377" y="94.029999"/></g><path d="m49.109809 54.043084a9.6185972 7.929806 0 1 1 -19.237193 0 9.6185972 7.929806 0 1 1 19.237193 0z" fill="url(#y)" opacity=".529412"/><path d="m47.943921 54.321372a8.4527066 7.3733287 0 1 1 -16.90541 0 8.4527066 7.3733287 0 1 1 16.90541 0z"/><rect fill="#292929" height="18.618132" rx="4.515499" ry="2.883344" width="12.223288" x="33.174488" y="47.389297"/><g opacity=".1" transform="matrix(.96931619 0 0 .95289399 -21.118721 -1.549573)"><path d="m62.689313 39.021131c-16.333581 0-29.59375 12.287337-29.59375 27.4375s13.260169 27.4375 29.59375 27.4375 29.5625-12.287337 29.5625-27.4375-13.228919-27.4375-29.5625-27.4375zm-.09375 5.3125c12.672416 0 22.9375 9.800216 22.9375 21.875s-10.265084 21.84375-22.9375 21.84375-22.9375-9.768966-22.9375-21.84375 10.265084-21.875 22.9375-21.875z"/><path d="m48.790369 55.783302a10.69499 11.402097 0 1 1 -21.38998 0 10.69499 11.402097 0 1 1 21.38998 0z" transform="matrix(.79338843 0 0 .75968992 32.000965 23.216397)"/><rect height="23.511301" ry=".588916" width="7.247845" x="59.043419" y="42.613438"/><rect height="23.511301" ry=".588916" transform="matrix(.55066532 .83472612 -.83472612 .55066532 0 0)" width="7.247845" x="85.381218" y="-15.196207"/><rect height="23.511301" ry=".588916" transform="matrix(-.55066532 .83472612 .83472612 .55066532 0 0)" width="7.247845" x="16.925377" y="94.029999"/></g><g opacity=".2" transform="matrix(.93900671 0 0 .93523539 -19.15935 -.61826)"><path d="m62.689313 39.021131c-16.333581 0-29.59375 12.287337-29.59375 27.4375s13.260169 27.4375 29.59375 27.4375 29.5625-12.287337 29.5625-27.4375-13.228919-27.4375-29.5625-27.4375zm-.09375 5.3125c12.672416 0 22.9375 9.800216 22.9375 21.875s-10.265084 21.84375-22.9375 21.84375-22.9375-9.768966-22.9375-21.84375 10.265084-21.875 22.9375-21.875z"/><path d="m48.790369 55.783302a10.69499 11.402097 0 1 1 -21.38998 0 10.69499 11.402097 0 1 1 21.38998 0z" transform="matrix(.79338843 0 0 .75968992 32.000965 23.216397)"/><rect height="23.511301" ry=".588916" width="7.247845" x="59.043419" y="42.613438"/><rect height="23.511301" ry=".588916" transform="matrix(.55066532 .83472612 -.83472612 .55066532 0 0)" width="7.247845" x="85.381218" y="-15.196207"/><rect height="23.511301" ry=".588916" transform="matrix(-.55066532 .83472612 .83472612 .55066532 0 0)" width="7.247845" x="16.925377" y="94.029999"/></g><g opacity=".3" transform="matrix(.90667667 0 0 .91316213 -17.133105 .72757)"><path d="m62.689313 39.021131c-16.333581 0-29.59375 12.287337-29.59375 27.4375s13.260169 27.4375 29.59375 27.4375 29.5625-12.287337 29.5625-27.4375-13.228919-27.4375-29.5625-27.4375zm-.09375 5.3125c12.672416 0 22.9375 9.800216 22.9375 21.875s-10.265084 21.84375-22.9375 21.84375-22.9375-9.768966-22.9375-21.84375 10.265084-21.875 22.9375-21.875z"/><path d="m48.790369 55.783302a10.69499 11.402097 0 1 1 -21.38998 0 10.69499 11.402097 0 1 1 21.38998 0z" transform="matrix(.79338843 0 0 .75968992 32.000965 23.216397)"/><rect height="23.511301" ry=".588916" width="7.247845" x="59.043419" y="42.613438"/><rect height="23.511301" ry=".588916" transform="matrix(.55066532 .83472612 -.83472612 .55066532 0 0)" width="7.247845" x="85.381218" y="-15.196207"/><rect height="23.511301" ry=".588916" transform="matrix(-.55066532 .83472612 .83472612 .55066532 0 0)" width="7.247845" x="16.925377" y="94.029999"/></g><path d="m11.796427 5.7045354c-3.3217429 0-5.9959262 2.6741634-5.9959262 5.9958816v1.998628 67.953329 1.998627c0 .334491.041322.650253.093687.968085.048667.295393.096974.596506.1873726.8744.00987.03036.020878.06356.031229.09368.098798.287574.2347208.547076.3747454.811943.1444937.273319.3154019.535247.4996606.780714.1842587.245466.3735227.473147.5933469.687028.4396484.427761.9422699.813966 1.4989816 1.092999.278356.139516.5730838.246778.874406.343514-.2560278-.100153-.4863805-.23611-.718262-.374743-.00741-.0044-.02385.0045-.031228 0-.031911-.01929-.06225-.04248-.093687-.06246-.1203142-.076639-.2308667-.163393-.3435176-.249821-.1061007-.080744-.2131361-.161001-.3122878-.249828-.1778091-.161322-.3472237-.345151-.4996605-.530885-.1075059-.130165-.2182457-.265103-.3122879-.405971-.025072-.038354-.0384199-.085811-.0624576-.124915-.064719-.102961-.130139-.204376-.1873727-.312285-.1009397-.194573-.2055352-.415415-.281059-.624571-.00795-.02179-.023573-.04052-.031229-.06246-.031803-.09189-.03578-.186703-.062458-.281057-.030312-.106543-.070341-.20289-.093686-.312283-.072829-.341279-.1249151-.697727-.1249151-1.061771v-1.998628-67.953328-1.998628c0-2.7799386 2.2166458-4.9965682 4.9966043-4.9965682h1.998643 67.953835 1.998642c2.77996 0 4.996606 2.2166296 4.996606 4.9965682v1.998628 67.953328 1.998628c0 .364044-.05209.720492-.124915 1.061771-.04412.206751-.08832.397384-.156145.593342-.0077.02193-.02329.04067-.03123.06246-.06269.173619-.138289.367197-.218601.530885-.04155.08274-.07899.169838-.124915.249828-.05457.09714-.126688.188222-.187373.281058-.09404.140868-.204782.275806-.312288.405971-.143077.17433-.302936.34676-.468432.499657-.01116.01019-.01996.02114-.03123.03122-.138292.12547-.284898.234275-.437203.343515-.102502.0731-.20418.153258-.312289.218599-.0074.0045-.02382-.0044-.03123 0-.231882.138633-.462233.27459-.718262.374743.301322-.09673.59605-.203998.874407-.343514.556711-.279033 1.059333-.665237 1.49898-1.092999.219825-.213881.409089-.441562.593348-.687028.184258-.245467.355167-.507395.49966-.780714.140025-.264867.275948-.524369.374746-.811943.0104-.03076.02131-.06269.03123-.09368.0904-.277894.138706-.579007.187373-.8744.05236-.317832.09369-.633594.09369-.968085v-1.998627-67.953329-1.998628c0-3.3217182-2.674183-5.9958815-5.995926-5.9958815h-71.95112z" fill="url(#v)" opacity=".52381"/><rect fill="url(#u)" height="34.479939" ry="1.753217" width="12.439821" x="74.653618" y="43.221199"/><path d="m11.796427 89.646883c-3.3217429 0-5.9959262-2.674164-5.9959262-5.995882v-1.998627-67.953329-1.998628c0-.334491.041322-.650253.093687-.968085.048667-.295393.096974-.596505.1873726-.8743992.00987-.030359.020878-.063556.031229-.093686.098797-.2875731.23472-.5470759.3747447-.811942.1444936-.2733193.3154018-.5352473.4996606-.7807138.1842586-.2454664.3735226-.473147.5933468-.6870281.4396484-.4277623.9422699-.813967 1.4989817-1.0929994.2783559-.1395161.5730838-.2467775.874406-.343514-.2560279.1001532-.4863805.2361099-.7182621.3747426-.00741.0044-.02385-.00449-.031228 0-.031911.019287-.06225.042481-.093687.062457-.1203134.0766475-.2308659.1634009-.3435168.2498285-.1061007.0807446-.2131361.1610015-.3122878.2498285-.1778091.1613221-.3472237.3451509-.4996605.5308854-.1075059.1301655-.2182457.2651029-.3122879.4059711-.025072.038354-.03842.085811-.062457.1249142-.064719.1029613-.130139.2043767-.1873727.3122855-.1009397.1945724-.2055352.4154158-.281059.6245711-.00795.021795-.023573.040522-.031229.062457-.031803.091887-.03578.1867027-.062457.2810569-.030312.1065449-.070342.2028917-.093687.3122856-.07283.3412775-.1249151.6977261-.1249151 1.0617711v1.998627 67.953329 1.998627c0 2.779939 2.2166458 4.996569 4.9966057 4.996569h1.998643 67.953835 1.998641c2.77996 0 4.996606-2.21663 4.996606-4.996569v-1.998627-67.953329-1.998627c0-.364045-.05209-.7204936-.124915-1.0617711-.04412-.2067511-.08832-.3973851-.156145-.5933425-.0077-.021935-.02329-.040662-.03123-.062457-.062696-.1736197-.138287-.3671968-.218599-.5308854-.041552-.0827431-.078987-.1698373-.124915-.2498284-.054564-.0971433-.126688-.1882207-.187374-.281057-.094046-.1408682-.204781-.2758056-.312287-.4059711-.143077-.1743303-.302936-.3467599-.468432-.4996569-.011162-.010193-.019966-.0211355-.031228-.0312285-.138293-.1254699-.284899-.2342751-.437204-.3435141-.102501-.0731-.204179-.1532588-.312288-.2185999-.0074-.00449-.02382.0044-.03123 0-.231878-.1386327-.46223-.2745894-.718258-.3747426.301322.096734.596049.2039979.874406.343514.556711.2790324 1.059333.6652371 1.498981 1.0929994.219824.2138811.409088.4415617.593347.6870281.184259.2454665.355167.5073945.499661.7807138.140025.2648661.275947.5243689.374745.8119424.0104.030759.02131.062697.03123.093685.0904.2778948.138707.5790068.187374.8743998.05236.317832.09369.633594.09369.968085v1.998628 67.953329 1.998627c0 3.321718-2.674183 5.995882-5.995926 5.995882h-71.95112z" fill="#fefefe" opacity=".165899"/><path d="m37.297382 22.498327a13.540889 12.973784 0 0 1 -27.081777 0 13.540889 12.973784 0 1 1 27.081777 0z" fill="url(#t)"/><path d="m35.355579 22.484513a11.503468 10.634295 0 0 1 -23.006934 0 11.503468 10.634295 0 1 1 23.006934 0z" fill="none" opacity=".456853" stroke="#000" stroke-width="1.041753"/><path d="m34.9074 22.328064a10.898937 10.342468 0 0 1 -21.797873 0 10.898937 10.342468 0 1 1 21.797873 0z" fill="url(#s)"/><path d="m23.663818 13.129137h.427635v2.55146h-.427635z"/><path d="m31.003577 26.915993s3.419104-4.170503 1.102647-7.73875" fill="none" stroke="#ff1d1d" stroke-width="1.084305"/><path d="m22.647299-33.405212h.411528v2.852917h-.411528z" transform="rotate(90)"/><path d="m22.466692-17.593647h.411528v2.785719h-.411528z" transform="rotate(90)"/><path d="m-3.308377-25.049696h.420283v1.676157h-.420283z" transform="matrix(-.74687003 .66497004 -.69305776 -.72088206 0 0)"/><path d="m.995725-41.535416h.418364v1.68382h-.418364z" transform="matrix(-.66223851 .7492931 -.77383958 -.63338164 0 0)"/><path d="m31.331665-9.343673h.41993v1.677573h-.41993z" transform="matrix(.73211224 .68118402 -.70876146 .70544822 0 0)"/><path d="m31.347956 3.1342h.417746v1.686276h-.417746z" transform="matrix(.63226289 .77475392 -.79778763 .60293856 0 0)"/><path d="m10.777183-23.578239h.414122v1.700516h-.414122z" transform="matrix(-.41108863 .91159538 -.92276306 -.38536779 0 0)"/><path d="m31.175724 18.163864h.415025v1.696991h-.415025z" transform="matrix(.47649325 .87917813 .8937409 -.44858356 0 0)"/><g opacity=".45" transform="matrix(.87636715 0 0 .88446693 -15.173734 2.57405)"><path d="m62.689313 39.021131c-16.333581 0-29.59375 12.287337-29.59375 27.4375s13.260169 27.4375 29.59375 27.4375 29.5625-12.287337 29.5625-27.4375-13.228919-27.4375-29.5625-27.4375zm-.09375 5.3125c12.672416 0 22.9375 9.800216 22.9375 21.875s-10.265084 21.84375-22.9375 21.84375-22.9375-9.768966-22.9375-21.84375 10.265084-21.875 22.9375-21.875z"/><path d="m48.790369 55.783302a10.69499 11.402097 0 1 1 -21.38998 0 10.69499 11.402097 0 1 1 21.38998 0z" transform="matrix(.79338843 0 0 .75968992 32.000965 23.216397)"/><rect height="23.511301" ry=".588916" width="7.247845" x="59.043419" y="42.613438"/><rect height="23.511301" ry=".588916" transform="matrix(.55066532 .83472612 -.83472612 .55066532 0 0)" width="7.247845" x="85.381218" y="-15.196207"/><rect height="23.511301" ry=".588916" transform="matrix(-.55066532 .83472612 .83472612 .55066532 0 0)" width="7.247845" x="16.925377" y="94.029999"/></g><path d="m39.788931 37.884252c-13.687136 0-24.798827 10.433789-24.798827 23.298547 0 12.864757 11.111691 23.298547 24.798827 23.298547 13.687134 0 24.772639-10.43379 24.772639-23.298547 0-12.864758-11.085505-23.298547-24.772639-23.298547zm-.07856 4.511108c10.619169 0 19.221054 8.321851 19.221054 18.575152 0 10.2533-8.601885 18.548614-19.221054 18.548614-10.619171 0-19.221056-8.295314-19.221056-18.548614 0-10.253301 8.601885-18.575152 19.221056-18.575152z" fill="url(#r)"/><path d="m25.024008 22.640417a1.2351185 1.2712738 0 1 1 -2.470236 0 1.2351185 1.2712738 0 1 1 2.470236 0z"/><rect fill="#ff1d1d" height="9.972562" rx="3.2423" ry=".369354" transform="matrix(.93556837 .3531456 -.34669516 .93797786 0 0)" width="1.099309" x="29.692051" y="3.255724"/><rect height="5.36087" ry=".547028" width="3.493443" x="22.052998" y="26.315445"/><path d="m32.310533 26.102728v.729488h-.681194v-.729488h-1.629276v-.536314l1.512354-2.315553h.798116v2.320637h.477853v.53123zm-.681194-1.702987c-.000002-.0288-.000002-.06608 0-.111838.0017-.04744.0034-.09574.0051-.144881.0034-.04914.0059-.09574.0076-.139797.0034-.04575.0068-.08133.01017-.106754-.0085.01864-.02203.04575-.04067.08134-.01864.03389-.03982.07117-.06354.111838-.02203.03898-.04575.07795-.07117.116922-.02372.03898-.04491.07287-.06354.101671l-.831159 1.26326h1.04721v-1.171757" fill="#ff1d1d" transform="matrix(.98751552 0 0 1.096421 -7.317799 1.341634)"/><g opacity=".1" transform="matrix(.53239179494 0 0 .54566284678 23.68348795482 -13.20966966656)"><path d="m62.689313 39.021131c-16.333581 0-29.59375 12.287337-29.59375 27.4375s13.260169 27.4375 29.59375 27.4375 29.5625-12.287337 29.5625-27.4375-13.228919-27.4375-29.5625-27.4375zm-.09375 5.3125c12.672416 0 22.9375 9.800216 22.9375 21.875s-10.265084 21.84375-22.9375 21.84375-22.9375-9.768966-22.9375-21.84375 10.265084-21.875 22.9375-21.875z"/><path d="m48.790369 55.783302a10.69499 11.402097 0 1 1 -21.38998 0 10.69499 11.402097 0 1 1 21.38998 0z" transform="matrix(.79338843 0 0 .75968992 32.000965 23.216397)"/><rect height="23.511301" ry=".588916" width="7.247845" x="59.043419" y="42.613438"/><rect height="23.511301" ry=".588916" transform="matrix(.55066532 .83472612 -.83472612 .55066532 0 0)" width="7.247845" x="85.381218" y="-15.196207"/><rect height="23.511301" ry=".588916" transform="matrix(-.55066532 .83472612 .83472612 .55066532 0 0)" width="7.247845" x="16.925377" y="94.029999"/></g><g opacity=".2" transform="matrix(.51574447717 0 0 .53555087984 24.75966195847 -12.67636464086)"><path d="m62.689313 39.021131c-16.333581 0-29.59375 12.287337-29.59375 27.4375s13.260169 27.4375 29.59375 27.4375 29.5625-12.287337 29.5625-27.4375-13.228919-27.4375-29.5625-27.4375zm-.09375 5.3125c12.672416 0 22.9375 9.800216 22.9375 21.875s-10.265084 21.84375-22.9375 21.84375-22.9375-9.768966-22.9375-21.84375 10.265084-21.875 22.9375-21.875z"/><path d="m48.790369 55.783302a10.69499 11.402097 0 1 1 -21.38998 0 10.69499 11.402097 0 1 1 21.38998 0z" transform="matrix(.79338843 0 0 .75968992 32.000965 23.216397)"/><rect height="23.511301" ry=".588916" width="7.247845" x="59.043419" y="42.613438"/><rect height="23.511301" ry=".588916" transform="matrix(.55066532 .83472612 -.83472612 .55066532 0 0)" width="7.247845" x="85.381218" y="-15.196207"/><rect height="23.511301" ry=".588916" transform="matrix(-.55066532 .83472612 .83472612 .55066532 0 0)" width="7.247845" x="16.925377" y="94.029999"/></g><g opacity=".3" transform="matrix(.49798737131 0 0 .52291090051 25.87256651994 -11.90569182653)"><path d="m62.689313 39.021131c-16.333581 0-29.59375 12.287337-29.59375 27.4375s13.260169 27.4375 29.59375 27.4375 29.5625-12.287337 29.5625-27.4375-13.228919-27.4375-29.5625-27.4375zm-.09375 5.3125c12.672416 0 22.9375 9.800216 22.9375 21.875s-10.265084 21.84375-22.9375 21.84375-22.9375-9.768966-22.9375-21.84375 10.265084-21.875 22.9375-21.875z"/><path d="m48.790369 55.783302a10.69499 11.402097 0 1 1 -21.38998 0 10.69499 11.402097 0 1 1 21.38998 0z" transform="matrix(.79338843 0 0 .75968992 32.000965 23.216397)"/><rect height="23.511301" ry=".588916" width="7.247845" x="59.043419" y="42.613438"/><rect height="23.511301" ry=".588916" transform="matrix(.55066532 .83472612 -.83472612 .55066532 0 0)" width="7.247845" x="85.381218" y="-15.196207"/><rect height="23.511301" ry=".588916" transform="matrix(-.55066532 .83472612 .83472612 .55066532 0 0)" width="7.247845" x="16.925377" y="94.029999"/></g><g opacity=".45" transform="matrix(.48134002251 0 0 .50647895423 26.94874052359 -10.84832800647)"><path d="m62.689313 39.021131c-16.333581 0-29.59375 12.287337-29.59375 27.4375s13.260169 27.4375 29.59375 27.4375 29.5625-12.287337 29.5625-27.4375-13.228919-27.4375-29.5625-27.4375zm-.09375 5.3125c12.672416 0 22.9375 9.800216 22.9375 21.875s-10.265084 21.84375-22.9375 21.84375-22.9375-9.768966-22.9375-21.84375 10.265084-21.875 22.9375-21.875z"/><path d="m48.790369 55.783302a10.69499 11.402097 0 1 1 -21.38998 0 10.69499 11.402097 0 1 1 21.38998 0z" transform="matrix(.79338843 0 0 .75968992 32.000965 23.216397)"/><rect height="23.511301" ry=".588916" width="7.247845" x="59.043419" y="42.613438"/><rect height="23.511301" ry=".588916" transform="matrix(.55066532 .83472612 -.83472612 .55066532 0 0)" width="7.247845" x="85.381218" y="-15.196207"/><rect height="23.511301" ry=".588916" transform="matrix(-.55066532 .83472612 .83472612 .55066532 0 0)" width="7.247845" x="16.925377" y="94.029999"/></g><path d="m70.682192 22.498327a13.540889 12.973783 0 0 1 -27.081777 0 13.540889 12.973783 0 1 1 27.081777 0z" fill="url(#q)"/><path d="m68.65125 22.48464a11.496207 10.939738 0 0 1 -22.992412 0 11.496207 10.939738 0 1 1 22.992412 0z" fill="none" opacity=".456853" stroke="#000" stroke-width="1.056274"/><path d="m68.198934 22.328064a10.898937 10.342468 0 0 1 -21.797872 0 10.898937 10.342468 0 1 1 21.797872 0z" fill="url(#p)"/><path d="m56.955349 13.129137h.427635v2.55146h-.427635z"/><path d="m22.647299-66.696747h.411528v2.852917h-.411528z" transform="rotate(90)"/><path d="m22.466692-50.885181h.411528v2.785719h-.411528z" transform="rotate(90)"/><path d="m-27.325226-47.203789h.420283v1.676157h-.420283z" transform="matrix(-.74687003 .66497004 -.69305776 -.72088206 0 0)"/><path d="m-20.105661-66.498444h.418364v1.68382h-.418364z" transform="matrix(-.66223851 .7492931 -.77383958 -.63338164 0 0)"/><path d="m54.834408-32.038033h.41993v1.677573h-.41993z" transform="matrix(.73211224 .68118402 -.70876146 .70544822 0 0)"/><path d="m51.434673-22.676493h.417746v1.686276h-.417746z" transform="matrix(.63226289 .77475392 -.79778763 .60293856 0 0)"/><path d="m-2.057348-53.938587h.414122v1.700516h-.414122z" transform="matrix(-.41108863 .91159538 -.92276306 -.38536779 0 0)"/><path d="m46.117165 47.447571h.415025v1.696991h-.415025z" transform="matrix(.47649325 .87917813 .8937409 -.44858356 0 0)"/><path d="m58.315543 22.640417a1.2351185 1.2712738 0 1 1 -2.470237 0 1.2351185 1.2712738 0 1 1 2.470237 0z"/><rect fill="#ff1d1d" height="9.933772" rx="3.254909" ry=".367918" transform="matrix(-.0070856 .9999749 -.99999504 -.00315093 0 0)" width="1.103584" x="21.838961" y="-66.557312"/><g fill="#2a2a2a"><path d="m46.510635 60.448945a7.1104547 7.3553849 0 0 1 -14.220909 0 7.1104547 7.3553849 0 1 1 14.220909 0z"/><rect height="19.964615" ry=".500077" width="6.073514" x="36.733757" y="40.934658"/><rect height="19.781923" ry=".495501" transform="matrix(.54558581 .83805497 -.83134886 .55575091 0 0)" width="6.130059" x="69.079666" y=".485918"/></g><rect fill="url(#o)" height="11.465814" opacity=".687783" ry=".287198" transform="matrix(.5843676 .81148907 -.83300897 .55325949 0 0)" width="3.480562" x="70.309532" y="10.695101"/><rect fill="#2a2a2a" height="19.781923" ry=".495501" transform="matrix(-.54558581 .83805497 .83134886 .55575091 0 0)" width="6.130059" x="25.346395" y="71.02607"/><path d="m39.945283 37.7279c-13.687136 0-24.798827 10.433789-24.798827 23.298547 0 12.864757 11.111691 23.298547 24.798827 23.298547 13.687134 0 24.772639-10.43379 24.772639-23.298547 0-12.864758-11.085505-23.298547-24.772639-23.298547zm-.07856 4.511108c10.619169 0 19.221054 8.321851 19.221054 18.575152 0 10.2533-8.601885 18.548614-19.221054 18.548614-10.619171 0-19.221056-8.295314-19.221056-18.548614 0-10.253301 8.601885-18.575152 19.221056-18.575152z" fill="url(#w)" opacity=".506787"/><path d="m46.066229 60.223779a6.6660513 6.5297805 0 1 1 -13.332102 0 6.6660513 6.5297805 0 1 1 13.332102 0z" fill="url(#n)" opacity=".60181"/><rect fill="url(#m)" height="11.461371" opacity=".656109" ry=".287087" transform="matrix(.56831482 -.8228112 .81897617 .57382753 0 0)" width="3.479499" x="-28.57243" y="73.782005"/><rect fill="url(#l)" height="11.335062" opacity=".719457" ry=".283923" transform="matrix(-.99978168 .02089464 .00106172 -.99999944 0 0)" width="3.519041" x="-41.429771" y="-54.190224"/><path d="m-33.598881-58.568844h.417852v1.685904h-.417852z" transform="matrix(-.84572583 .53361767 -.56551991 -.82473464 0 0)"/><path d="m60.39613 6.636897h.416897v1.68978h-.416897z" transform="matrix(.92693031 .37523354 -.41053603 .91184438 0 0)"/><path d="m56.757481 29.095255h.427635v2.55146h-.427635z"/><rect height="31.910845" ry="1.622585" width="9.569093" x="76.157326" y="44.708565"/><rect fill="url(#k)" height="10.899741" ry="1.753217" width="4.253147" x="78.994759" y="52.781124"/><path d="m87.286753 66.756303a6.4249625 6.422734 0 0 1 -12.849925 0 6.4249625 6.422734 0 1 1 12.849925 0z" fill="#353535"/><path d="m86.701333 66.841655a6.1271965 5.7949486 0 1 1 -12.254392 0 6.1271965 5.7949486 0 1 1 12.254392 0z" fill="url(#j)" opacity=".841629"/><path d="m85.181157 52.494289a4.3498097 4.3025295 0 1 1 -8.699619 0 4.3498097 4.3025295 0 1 1 8.699619 0z" fill="url(#i)"/><path d="m39.632579 37.7279c-13.687136 0-24.798827 10.433789-24.798827 23.298547 0 12.864757 11.111691 23.298547 24.798827 23.298547 13.687134 0 24.772635-10.43379 24.772635-23.298547 0-12.864758-11.085501-23.298547-24.772635-23.298547zm-.07856 4.511108c10.619169 0 19.221054 8.321851 19.221054 18.575152 0 10.2533-8.601885 18.548614-19.221054 18.548614-10.619171 0-19.221056-8.295314-19.221056-18.548614 0-10.253301 8.601885-18.575152 19.221056-18.575152z" fill="url(#z)" opacity=".506787"/></svg>