<svg height="96" width="96" xmlns="http://www.w3.org/2000/svg" xmlns:xlink="http://www.w3.org/1999/xlink"><linearGradient id="a"><stop offset="0"/><stop offset="1" stop-opacity="0"/></linearGradient><linearGradient id="b"><stop offset="0" stop-color="#fefefe"/><stop offset="1" stop-color="#fefefe" stop-opacity="0"/></linearGradient><linearGradient id="c"><stop offset="0" stop-color="#dcdcdc"/><stop offset="1" stop-color="#f0f0f0"/></linearGradient><radialGradient id="d" cx="48" cy="90.171875" gradientTransform="matrix(1.1573129 0 0 .99590774 -7.551021 .197132)" gradientUnits="userSpaceOnUse" r="42" xlink:href="#b"/><linearGradient id="e" gradientUnits="userSpaceOnUse" x1="48" x2="48" xlink:href="#c" y1="88" y2="32"/><linearGradient id="f" gradientUnits="userSpaceOnUse" x1="48" x2="48" y1="88" y2="36"><stop offset="0" stop-color="#d5d5d5"/><stop offset="1" stop-color="#f1f1f1"/></linearGradient><filter id="g" color-interpolation-filters="sRGB"><feGaussianBlur stdDeviation=".69"/></filter><linearGradient id="h" gradientUnits="userSpaceOnUse" x1="36.357143" x2="36.357143" xlink:href="#b" y1="6" y2="63.893143"/><linearGradient id="i" gradientUnits="userSpaceOnUse" x1="48" x2="48" xlink:href="#c" y1="90" y2="5.987717"/><clipPath id="j"><rect height="84" rx="6" width="84" x="106" y="6"/></clipPath><linearGradient id="k" gradientUnits="userSpaceOnUse" x1="148" x2="148" xlink:href="#a" y1="32" y2="80"/><clipPath id="l"><rect height="84" rx="6" width="84" x="106" y="6"/></clipPath><linearGradient id="m" gradientUnits="userSpaceOnUse" x1="151" x2="151" xlink:href="#a" y1="61" y2="20"/><linearGradient id="n" gradientTransform="matrix(1.0058652 0 0 .994169 100 0)" gradientUnits="userSpaceOnUse" x1="45.447727" x2="45.447727" y1="92.539597" y2="7.01654"><stop offset="0"/><stop offset="1" stop-opacity=".588235"/></linearGradient><linearGradient id="o" gradientTransform="matrix(1.0238095 0 0 1.0119048 -1.142857 -98.071429)" gradientUnits="userSpaceOnUse" x1="32.251034" x2="32.251034" xlink:href="#n" y1="6.131708" y2="90.238609"/><linearGradient id="p" gradientTransform="translate(0 -97)" gradientUnits="userSpaceOnUse" x1="32.251034" x2="32.251034" xlink:href="#n" y1="6.131708" y2="90.238609"/><radialGradient id="q" cx="200.39518" cy="18.839222" gradientTransform="matrix(.77877931 0 0 .60964706 -107.54466 45.136209)" gradientUnits="userSpaceOnUse" r="53.946409"><stop offset="0" stop-color="#00a0ff"/><stop offset="1" stop-color="#00b1ff"/></radialGradient><filter id="r" color-interpolation-filters="sRGB" height="1.180933" width="1.116314" x="-.058157" y="-.090467"><feGaussianBlur stdDeviation="2.0355"/></filter><g><g fill="url(#o)"><path d="m12-95.03125c-5.5110903 0-10.03125 4.52016-10.03125 10.03125v71c0 5.5110902 4.5201598 10.03125 10.03125 10.03125h72c5.51109 0 10.03125-4.5201597 10.03125-10.03125v-71c0-5.51109-4.52016-10.03125-10.03125-10.03125z" opacity=".08" transform="scale(1 -1)"/><path d="m12-94.03125c-4.971633 0-9.03125 4.059617-9.03125 9.03125v71c0 4.9716329 4.0596171 9.03125 9.03125 9.03125h72c4.971633 0 9.03125-4.059617 9.03125-9.03125v-71c0-4.971633-4.059617-9.03125-9.03125-9.03125z" opacity=".1" transform="scale(1 -1)"/><path d="m12-93c-4.4091333 0-8 3.590867-8 8v71c0 4.4091333 3.5908667 8 8 8h72c4.409133 0 8-3.5908667 8-8v-71c0-4.409133-3.590867-8-8-8z" opacity=".2" transform="scale(1 -1)"/><rect height="85" opacity=".3" rx="7" transform="scale(1 -1)" width="86" x="5" y="-92"/></g><rect fill="url(#p)" height="84" opacity=".45" rx="6" transform="scale(1 -1)" width="84" x="6" y="-91"/></g><rect fill="url(#i)" height="84" rx="6" width="84" x="6" y="6"/><path clip-path="url(#j)" d="m112 89c-3.324 0-6-2.676-6-6v-6l42-42 42 42v6c0 3.324-2.676 6-6 6z" fill="url(#k)" filter="url(#g)" opacity=".3" transform="translate(-100 -1)"/><path d="m12 90c-3.324 0-6-2.676-6-6v-6l42-42 42 42v6c0 3.324-2.676 6-6 6z" fill="url(#f)"/><path d="m48 36-42 42v1l42-42 42 42v-1z" fill="#fefefe" opacity=".4"/><path clip-path="url(#l)" d="m112 7c-3.324 0-6 2.676-6 6v6l42 42 42-42v-6c0-3.324-2.676-6-6-6z" fill="url(#m)" filter="url(#r)" transform="translate(-100 1)"/><path d="m12 6c-3.324 0-6 2.676-6 6v6l42 42 42-42v-6c0-3.324-2.676-6-6-6z" fill="url(#e)"/><path d="m6 17v1l42 42 42-42v-1l-42 42z" fill="#fefefe" opacity=".6"/><g><path d="m12 90c-3.324 0-6-2.676-6-6v-2-68-2c0-.334721.04135-.6507.09375-.96875.0487-.295596.09704-.596915.1875-.875.00988-.03038.020892-.0636.03125-.09375.098865-.287771.2348802-.547452.375-.8125.1445918-.273507.3156161-.535615.5-.78125s.3737765-.473472.59375-.6875c.439947-.428056.94291-.814526 1.5-1.09375.278545-.139612.5734731-.246947.875-.34375-.2562018.100222-.4867109.236272-.71875.375-.00741.0044-.023866-.0045-.03125 0-.031933.0193-.062293.04251-.09375.0625-.120395.0767-.2310226.163513-.34375.25-.1061728.0808-.2132809.161112-.3125.25-.1779299.161433-.3474596.345388-.5.53125-.1075789.130255-.2183939.265285-.3125.40625-.025089.03838-.038446.08587-.0625.125-.064763.103032-.1302275.204517-.1875.3125-.1010083.194706-.2056748.415701-.28125.625-.00796.02181-.023589.04055-.03125.0625-.0318251.09195-.0358045.186831-.0625.28125-.0303323.106618-.0703894.203031-.09375.3125-.0728786.341512-.125.698205-.125 1.0625v2 68 2c0 2.781848 2.2181517 5 5 5h2 68 2c2.781848 0 5-2.218152 5-5v-2-68-2c0-.364295-.05212-.720988-.125-1.0625-.04415-.206893-.08838-.397658-.15625-.59375-.0077-.02195-.0233-.04069-.03125-.0625-.06274-.173739-.138383-.367449-.21875-.53125-.04158-.0828-.07904-.169954-.125-.25-.0546-.09721-.126774-.18835-.1875-.28125-.09411-.140965-.204921-.275995-.3125-.40625-.143174-.17445-.303141-.346998-.46875-.5-.01117-.0102-.01998-.02115-.03125-.03125-.138386-.125556-.285091-.234436-.4375-.34375-.102571-.07315-.204318-.153364-.3125-.21875-.0074-.0045-.02384.0044-.03125 0-.232039-.138728-.462548-.274778-.71875-.375.301527.0968.596455.204138.875.34375.55709.279224 1.060053.665694 1.5 1.09375.219973.214028.409366.441865.59375.6875s.355408.507743.5.78125c.14012.265048.276135.524729.375.8125.01041.03078.02133.06274.03125.09375.09046.278085.1388.579404.1875.875.0524.31805.09375.634029.09375.96875v2 68 2c0 3.324-2.676 6-6 6z" fill="url(#d)" opacity="0"/><path d="m12 6c-3.324 0-6 2.676-6 6v2 68 2c0 .334721.04135.6507.09375.96875.0487.295596.09704.596915.1875.875.0099.03038.02089.0636.03125.09375.09886.287771.23488.547452.375.8125.144592.273507.315616.535615.5.78125s.373776.473472.59375.6875c.439947.428056.94291.814526 1.5 1.09375.278545.139612.573473.246947.875.34375-.256202-.100222-.486711-.236272-.71875-.375-.0074-.0044-.02387.0045-.03125 0-.03193-.0193-.06229-.04251-.09375-.0625-.120395-.0767-.231023-.163513-.34375-.25-.106173-.0808-.213281-.161112-.3125-.25-.17793-.161433-.34746-.345388-.5-.53125-.107579-.130255-.218394-.265285-.3125-.40625-.02509-.03838-.03845-.08587-.0625-.125-.06476-.103032-.130228-.204517-.1875-.3125-.101008-.194706-.205675-.415701-.28125-.625-.008-.02181-.02359-.04055-.03125-.0625-.03183-.09195-.0358-.186831-.0625-.28125-.030332-.106618-.070389-.203031-.09375-.3125-.072879-.341512-.125-.698205-.125-1.0625v-2-68-2c0-2.781848 2.218152-5 5-5h2 68 2c2.781848 0 5 2.218152 5 5v2 68 2c0 .364295-.05212.720988-.125 1.0625-.04415.206893-.08838.397658-.15625.59375-.0077.02195-.0233.04069-.03125.0625-.06274.173739-.138383.367449-.21875.53125-.04158.0828-.07904.169954-.125.25-.0546.09721-.126774.18835-.1875.28125-.09411.140965-.204921.275995-.3125.40625-.143174.17445-.303141.346998-.46875.5-.01117.0102-.01998.02115-.03125.03125-.138386.125556-.285091.234436-.4375.34375-.102571.07315-.204318.153364-.3125.21875-.0074.0045-.02384-.0044-.03125 0-.232039.138728-.462548.274778-.71875.375.301527-.0968.596455-.204138.875-.34375.55709-.279224 1.060053-.665694 1.5-1.09375.219973-.214028.409366-.441865.59375-.6875s.355408-.507743.5-.78125c.14012-.265048.276135-.524729.375-.8125.01041-.03078.02133-.06274.03125-.09375.09046-.278085.1388-.579404.1875-.875.0524-.31805.09375-.634029.09375-.96875v-2-68-2c0-3.324-2.676-6-6-6z" fill="url(#h)" opacity=".6"/><path d="m12 90c-3.324 0-6-2.676-6-6v-2-68-2c0-.334721.04135-.6507.09375-.96875.0487-.295596.09704-.596915.1875-.875.00988-.03038.020892-.0636.03125-.09375.098865-.287771.2348802-.547452.375-.8125.1445918-.273507.3156161-.535615.5-.78125s.3737765-.473472.59375-.6875c.439947-.428056.94291-.814526 1.5-1.09375.278545-.139612.5734731-.246947.875-.34375-.2562018.100222-.4867109.236272-.71875.375-.00741.0044-.023866-.0045-.03125 0-.031933.0193-.062293.04251-.09375.0625-.120395.0767-.2310226.163513-.34375.25-.1061728.0808-.2132809.161112-.3125.25-.1779299.161433-.3474596.345388-.5.53125-.1075789.130255-.2183939.265285-.3125.40625-.025089.03838-.038446.08587-.0625.125-.064763.103032-.1302275.204517-.1875.3125-.1010083.194706-.2056748.415701-.28125.625-.00796.02181-.023589.04055-.03125.0625-.0318251.09195-.0358045.186831-.0625.28125-.0303323.106618-.0703894.203031-.09375.3125-.0728786.341512-.125.698205-.125 1.0625v2 68 2c0 2.781848 2.2181517 5 5 5h2 68 2c2.781848 0 5-2.218152 5-5v-2-68-2c0-.364295-.05212-.720988-.125-1.0625-.04415-.206893-.08838-.397658-.15625-.59375-.0077-.02195-.0233-.04069-.03125-.0625-.06274-.173739-.138383-.367449-.21875-.53125-.04158-.0828-.07904-.169954-.125-.25-.0546-.09721-.126774-.18835-.1875-.28125-.09411-.140965-.204921-.275995-.3125-.40625-.143174-.17445-.303141-.346998-.46875-.5-.01117-.0102-.01998-.02115-.03125-.03125-.138386-.125556-.285091-.234436-.4375-.34375-.102571-.07315-.204318-.153364-.3125-.21875-.0074-.0045-.02384.0044-.03125 0-.232039-.138728-.462548-.274778-.71875-.375.301527.0968.596455.204138.875.34375.55709.279224 1.060053.665694 1.5 1.09375.219973.214028.409366.441865.59375.6875s.355408.507743.5.78125c.14012.265048.276135.524729.375.8125.01041.03078.02133.06274.03125.09375.09046.278085.1388.579404.1875.875.0524.31805.09375.634029.09375.96875v2 68 2c0 3.324-2.676 6-6 6z" fill="url(#d)" opacity=".3"/></g><path d="m20.914325 47.274474c6.25192-3.643527 9.123433-5.626902 15.443581-10.57221 2.036826-1.605584 6.327451-4.968601 12.592476-8.07332 4.526295-2.225425 7.636847-3.633955 14.097212-4.421101 3.833868-.150084 7.725461.748437 9.503749 3.65222 2.294704 3.922154 1.329418 6.809457.633589 8.26553l-9.345353 13.07109 16.156373-.192211c1.723452.226205 3.793999.304389 7.444599 3.652219 1.668793 1.624155 2.710899 3.438457 2.692728 5.57443.130617 5.670914-1.248092 6.670117-2.138334 7.881096-3.141221 2.998217-3.964264 4.043013-6.019056 5.574426-5.231052 4.525007-10.980126 7.989643-16.710747 10.764436-5.181834 2.317834-10.353764 3.699176-15.522785 4.805547l-12.513272 1.729998c-4.002664.219092-8.016135-.281446-12.038082-1.345551-3.962478-1.289099-5.865343-2.890629-8.236583-4.421113-7.3884279-5.826686-8.1771992-8.39043-10.1373273-11.533317l10.1373273 6.630973c4.477848 2.054173 8.092765 2.321632 12.354875 2.306654 4.229578-.157547 8.525236-.817495 13.463644-1.825411 6.29197-1.349409 12.273289-3.369013 17.660156-5.839253l10.001778-4.517219c5.547594-3.098109 6.577961-5.361491 7.026747-7.327942-.400272-1.999717-2.134227-3.190174-5.068674-3.652218-4.84438-.717732-8.704275-.479686-12.513262-.192224l-11.879684 1.729997-9.97893 2.114445c-2.419722.57249-6.969418.961105-6.969418.961105 7.144128-4.736432 14.435836-9.325284 21.225037-14.416642 2.317193-1.76625 4.012136-3.588638 6.019035-5.382205.760324-.909313 1.548828-1.559014 1.58396-3.267772.04958-1.055756.10167-2.112176-.950371-2.883338-2.121896-1.496641-3.812458-1.422226-5.942775-1.317036-3.163992.172454-4.552896.765866-7.045679 1.893707-10.157125 5.340269-8.996702 5.214542-12.671659 7.016096l-4.462267 2.243537c-4.701686 1.86419-7.892608 1.312577-7.892608 1.312577z" fill="url(#q)" stroke="#0091ff" stroke-width=".857914"/></svg>