<svg height="96" width="96" xmlns="http://www.w3.org/2000/svg" xmlns:xlink="http://www.w3.org/1999/xlink"><linearGradient id="a"><stop offset="0" stop-color="#fefefe"/><stop offset="1" stop-color="#fefefe" stop-opacity="0"/></linearGradient><linearGradient id="b"><stop offset="0" stop-color="#825f35"/><stop offset="1" stop-color="#825f35" stop-opacity="0"/></linearGradient><linearGradient id="c"><stop offset="0" stop-color="#152062"/><stop offset="1" stop-color="#504dee"/></linearGradient><linearGradient id="d" gradientUnits="userSpaceOnUse" x1="66.545319" x2="84.019165" xlink:href="#c" y1="57.262165" y2="34.942009"/><mask id="e"><path d="m100.76272 58.346565a30.935923 23.157747 0 1 1 -61.871845 0 30.935923 23.157747 0 1 1 61.871845 0z" fill="url(#d)" transform="matrix(1.3626352 -1.1358185 1.115185 1.5177777 -111.97915 39.671875)"/></mask><linearGradient id="f" gradientTransform="matrix(1.0058652 0 0 .994169 100 0)" gradientUnits="userSpaceOnUse" x1="45.447727" x2="45.447727" y1="92.539597" y2="7.01654"><stop offset="0"/><stop offset="1" stop-opacity=".588235"/></linearGradient><linearGradient id="g" gradientTransform="matrix(1.0238095 0 0 -1.0019993 -1.142857 98.041669)" gradientUnits="userSpaceOnUse" x1="32.251034" x2="32.251034" xlink:href="#f" y1="6.131708" y2="90.238609"/><linearGradient id="h" gradientTransform="matrix(1.0238095 0 0 1.0119048 -1.142857 -98.071429)" gradientUnits="userSpaceOnUse" x1="32.251034" x2="32.251034" xlink:href="#f" y1="6.131708" y2="90.238609"/><linearGradient id="i" gradientTransform="translate(0 -97)" gradientUnits="userSpaceOnUse" x1="32.251034" x2="32.251034" xlink:href="#f" y1="6.131708" y2="90.238609"/><radialGradient id="j" cx="48" cy="90.171875" gradientTransform="matrix(1.1573129 0 0 .99590774 -7.551021 .197132)" gradientUnits="userSpaceOnUse" r="42" xlink:href="#a"/><radialGradient id="k" cx="-84.026039" cy="29.222515" gradientTransform="matrix(1 0 0 .79545456 0 6.063228)" gradientUnits="userSpaceOnUse" r=".972272"><stop offset="0" stop-color="#f9f6f1"/><stop offset="1" stop-color="#d4b997" stop-opacity="0"/></radialGradient><radialGradient id="l" cx="-84.026039" cy="29.327497" gradientTransform="matrix(1 0 0 .79545456 0 6.063228)" gradientUnits="userSpaceOnUse" r=".972272"><stop offset="0" stop-color="#e4d4c0"/><stop offset="1" stop-color="#d4b997" stop-opacity="0"/></radialGradient><radialGradient id="m" cx="-83.823433" cy="29.222515" gradientTransform="matrix(1 0 0 .79545456 0 6.063228)" gradientUnits="userSpaceOnUse" r=".972272"><stop offset="0" stop-color="#eaddcd"/><stop offset="1" stop-color="#d4b997" stop-opacity="0"/></radialGradient><radialGradient id="n" cx="-84.026039" cy="29.117531" gradientTransform="matrix(1 0 0 .79545456 0 6.063228)" gradientUnits="userSpaceOnUse" r=".972272"><stop offset="0" stop-color="#f0e6db"/><stop offset="1" stop-color="#d4b997" stop-opacity="0"/></radialGradient><linearGradient id="o" gradientTransform="matrix(.68425485 -.12880346 .178804 .49291064 -13.156031 36.700932)" gradientUnits="userSpaceOnUse" x1="45.385162" x2="53.097221" xlink:href="#a" y1="66.301514" y2="64.551514"/><linearGradient id="p" gradientTransform="matrix(.79205105 .61045486 -.61045486 .79205105 30.395692 -30.056343)" gradientUnits="userSpaceOnUse" x1="45.385162" x2="53.097221" xlink:href="#a" y1="66.301514" y2="64.551514"/><linearGradient id="q" gradientTransform="matrix(.99755107 .61045486 -.7688392 .79205105 30.147934 -37.306343)" gradientUnits="userSpaceOnUse" x1="45.385162" x2="53.097221" xlink:href="#a" y1="66.301514" y2="64.551514"/><linearGradient id="r" gradientTransform="matrix(1 0 0 1.0163947 0 -1.032868)" gradientUnits="userSpaceOnUse" x1="14.854875" x2="20.25" xlink:href="#a" y1="49.875" y2="64.875"/><linearGradient id="s" gradientTransform="matrix(.6923077 0 0 1.0508475 21.45797 -10.948692)" gradientUnits="userSpaceOnUse" x1="60.45763" x2="60.634407" xlink:href="#b" y1="48.977402" y2="63.29631"/><linearGradient id="t" gradientTransform="matrix(.6923077 0 0 .88983055 -3.997874 -2.79434)" gradientUnits="userSpaceOnUse" x1="60.45763" x2="60.634407" xlink:href="#b" y1="48.977402" y2="63.29631"/><linearGradient id="u" gradientUnits="userSpaceOnUse" x1="31.5" x2="50.75" y1="66.375" y2="66.125"><stop offset="0" stop-color="#4c3b22"/><stop offset="1" stop-color="#4c3b22" stop-opacity="0"/></linearGradient><linearGradient id="v" gradientUnits="userSpaceOnUse" x1="45.743752" x2="43.877998" y1="56.769009" y2="36.769009"><stop offset="0" stop-color="#46361f"/><stop offset="1" stop-color="#46361f" stop-opacity="0"/></linearGradient><linearGradient id="w" gradientTransform="matrix(-.4581928 -1.1180637 .90511076 -.56599567 22.193859 159.98599)" gradientUnits="userSpaceOnUse" x1="45.385162" x2="53.097221" xlink:href="#a" y1="66.301514" y2="64.551514"/><linearGradient id="x" gradientUnits="userSpaceOnUse" x1="73.75" x2="74.457153" xlink:href="#a" y1="59.75" y2="44"/><linearGradient id="y" gradientUnits="userSpaceOnUse" x1="45.385162" x2="53.097221" xlink:href="#a" y1="66.301514" y2="64.551514"/><radialGradient id="z" cx="102.64141" cy="91.873146" gradientTransform="matrix(.13909549 .00581177 -.03493812 .937252 56.316971 -38.051845)" gradientUnits="userSpaceOnUse" r="34.139633"><stop offset="0" stop-color="#725a35"/><stop offset="1" stop-color="#b1894d" stop-opacity="0"/></radialGradient><linearGradient id="A" gradientTransform="matrix(.61538463 0 0 .48305088 25.143084 38.126146)" gradientUnits="userSpaceOnUse" x1="60.45763" x2="60.634407" xlink:href="#b" y1="48.977402" y2="63.29631"/><linearGradient id="B" gradientUnits="userSpaceOnUse" x1="44.988636" x2="53.870934" y1="26.654875" y2="59.535339"><stop offset="0" stop-color="#cfba99"/><stop offset="1" stop-color="#b8935c"/></linearGradient><linearGradient id="C" gradientUnits="userSpaceOnUse" x1="72.372124" x2="68.430595" y1="1.136617" y2="84.210579"><stop offset="0" stop-color="#8295a1"/><stop offset="1" stop-color="#665d4b"/></linearGradient><linearGradient id="D" gradientUnits="userSpaceOnUse" x1="36.357143" x2="36.357143" xlink:href="#a" y1="6" y2="53.892567"/><g transform="matrix(.99932112 0 0 1.0091926 .188858 -.77967)"><path d="m12 95.03125c-5.5110903 0-10.03125-4.475912-10.03125-9.933055v-70.304985c0-5.4571426 4.5201598-9.9330549 10.03125-9.9330549h72c5.51109 0 10.03125 4.4759122 10.03125 9.9330549v70.304985c0 5.457143-4.52016 9.933055-10.03125 9.933055z" fill="url(#g)" opacity=".08"/><g fill="url(#h)"><path d="m12-94.03125c-4.971633 0-9.03125 4.059617-9.03125 9.03125v71c0 4.9716329 4.0596171 9.03125 9.03125 9.03125h72c4.971633 0 9.03125-4.059617 9.03125-9.03125v-71c0-4.971633-4.059617-9.03125-9.03125-9.03125z" opacity=".1" transform="scale(1 -1)"/><path d="m12-93c-4.4091333 0-8 3.590867-8 8v71c0 4.4091333 3.5908667 8 8 8h72c4.409133 0 8-3.5908667 8-8v-71c0-4.409133-3.590867-8-8-8z" opacity=".2" transform="scale(1 -1)"/><rect height="85" opacity=".3" rx="7" transform="scale(1 -1)" width="86" x="5" y="-92"/></g><rect fill="url(#i)" height="84" opacity=".45" rx="6" transform="scale(1 -1)" width="84" x="6" y="-91"/></g><rect fill="url(#C)" height="84" rx="6" transform="matrix(.99932112 0 0 1.0091926 .188858 -.77967)" width="84" x="6" y="6"/><path d="m63.966041 18.146006s-15.359832-.901527-18.395009 1.803061c-3.035176 2.704587-4.96665 4.015902-4.96665 4.015902s-3.77098-5.327218-4.87468-5.491133c-1.103699-.163914-12.41663 6.884406-13.060455 8.933338-.643825 2.048931 18.303035 10.654439 18.303035 10.654439l6.254303-4.835477s-3.40308 7.949854-3.40308 11.719886-1.011723 14.834259 3.95493 14.752301c4.96665-.08195 7.725901-5.573091 6.622201-11.392054-1.1037-5.818962-5.426528-11.228141-5.426528-11.228141l6.070354 1.393273s10.301206-8.687467 11.496881-9.015296c1.195675-.327827 8.921578-1.966972 8.921578-1.966972s6.990104 16.063618 4.874678 23.931511c-2.115424 7.867893-4.322827 13.195112-4.322827 13.195112s1.747527-14.096643-1.195676-17.374931c-2.943199-3.27829-3.770976-4.753518-3.770976-4.753518l6.254303-4.507648-3.587027-7.622024s-6.254303 2.130886-6.714179 6.22875c-.459874 4.09786-.183948 29.832432-.183948 29.832432l4.690726 3.688075s-9.933304 11.965756-27.592513 10.408568c-17.659208-1.557187-31.915339-20.653224-31.455463-30.078302.459875-9.425083 2.299375-15.407959 2.299375-15.407959s1.471602 13.768812 4.506777 17.12906c3.035175 3.360247 4.598753 4.507646 4.598753 4.507646l-4.414803 5.491136s10.669103 15.080129 25.385111 15.571874c14.716005.491743 23.269686-7.048323 23.269686-7.048323l-13.52033-6.146791-.735801-2.458718-8.829604 7.294195-11.772807-4.097864-5.242575-.409784s4.138874-2.868504 4.046901-4.753521c-.09196-1.885015-1.1037-4.753518-6.070354-6.22875-4.966649-1.475227-4.046902-1.7211-4.046902-1.7211l9.657382-.90153-10.577129-5.655049s-1.287653 0 .643823-.409787c1.931476-.409785 9.565404-.737614 9.565404-.737614s1.931476-2.458718.275924-4.589606c-1.65555-2.130888-1.287648-4.753521-3.954926-5.737006-2.667274-.983487-9.565402-5.163307-9.565402-5.163307s6.140064-9.653269 15.267854-12.703369c8.829605-2.950461 10.577129-4.753521 23.085735-1.721102 8.042465 1.949704 7.63393 3.606117 7.63393 3.606117z" opacity=".641791"/><path d="m67.555622 15.220091s-17.826693-1.030555-21.349333 2.061111c-3.522639 3.091667-5.764317 4.590657-5.764317 4.590657s-4.376615-6.089647-5.657575-6.277019c-1.280961-.187374-14.4108 7.869697-15.158027 10.211871-.747225 2.342173 21.242586 12.179293 21.242586 12.179293l7.258774-5.527525s-3.949628 9.08763-3.949628 13.397226-1.174211 16.957326 4.590108 16.863641c5.76432-.09367 8.966718-6.370709 7.685759-13.022479-1.280961-6.651767-6.298055-12.835105-6.298055-12.835105l7.045281 1.592678s11.955627-9.930811 13.343334-10.305556c1.387707-.374749 10.354427-2.248485 10.354427-2.248485s8.112746 18.362631 5.657573 27.356572c-2.455174 8.993942-5.017094 15.083589-5.017094 15.083589s2.028187-16.114147-1.387706-19.861621c-3.415892-3.747475-4.376612-5.433839-4.376612-5.433839l7.258772-5.152779-4.163119-8.712883s-7.258774 2.435858-7.792507 7.120204c-.533734 4.684345-.213492 34.102029-.213492 34.102029l5.444079 4.215909s-11.528642 13.678288-32.024001 11.898236-37.0410919-23.609098-36.507357-34.383088c.533734-10.773994 2.668667-17.613136 2.668667-17.613136s1.707947 15.739397 5.230584 19.580561c3.522639 3.841162 5.337336 5.152778 5.337336 5.152778l-5.123842 6.277022s12.382613 17.238387 29.462079 17.80051c17.079466.562119 27.006908-8.057074 27.006908-8.057074l-15.691762-7.026516-.853972-2.810608-10.24768 8.338135-13.663575-4.684345-6.084556-.468435s4.803597-3.279041 4.696851-5.43384c-.106739-2.154799-1.280958-5.433839-7.045281-7.120204-5.764315-1.686364-4.696851-1.967423-4.696851-1.967423l11.208399-1.030558-12.275863-6.464394s-1.494457 0 .747224-.468436c2.24168-.468433 11.101654-.84318 11.101654-.84318s2.241678-2.810608.320237-5.246468c-1.921437-2.435859-1.494451-5.433841-4.590104-6.558081-3.095654-1.124244-11.101652-5.902276-11.101652-5.902276s7.126184-11.034839 17.719942-14.521466c10.247681-3.3727312 12.275867-5.4338403 26.793412-1.967426 9.334123 2.228746 8.859975 4.122223 8.859975 4.122223z" opacity=".130597"/><path d="m67.003153 16.24424s-17.179182-.998348-20.57387 1.996699c-3.394688 2.995046-5.554944 4.44719-5.554944 4.44719s-4.217644-5.899335-5.452075-6.080851c-1.234432-.181519-13.887363 7.623754-14.607447 9.892731-.720086 2.268975 20.470999 11.79867 20.470999 11.79867l6.995116-5.354781s-3.806167 8.803624-3.806167 12.978539c0 4.174913-1.131562 16.427378 4.423383 16.336623 5.554945-.09076 8.641023-6.171615 7.40659-12.615506-1.234431-6.443888-6.069291-12.433983-6.069291-12.433983l6.789378 1.542903s11.521369-9.620454 12.858668-9.98349c1.337303-.363035 9.978328-2.178215 9.978328-2.178215s7.81807 17.788765 5.452075 26.50163c-2.365994 8.712864-4.834859 14.612199-4.834859 14.612199s1.954517-15.610549-1.337301-19.240908c-3.291817-3.630362-4.217644-5.264024-4.217644-5.264024l6.995116-4.991745-4.011904-8.440589s-6.995116 2.359734-7.509462 6.897686c-.514349 4.53795-.205738 33.036278-.205738 33.036278l5.246336 4.084156s-11.109891 13.250816-30.860806 11.526393c-19.750913-1.724421-35.6956613-22.871269-35.1813143-33.308554.514348-10.437287 2.5717343-17.062694 2.5717343-17.062694s1.645909 15.247513 5.040596 18.968634c3.394688 3.721117 5.143469 4.991742 5.143469 4.991742l-4.937729 6.080856s11.932844 16.699657 28.391939 17.244212c16.459094.544551 26.025944-7.805276 26.025944-7.805276l-15.121794-6.806924-.822954-2.722772-9.875457 8.077553-13.167278-4.537952-5.86355-.453794s4.629118-3.176565 4.526251-5.264023c-.102855-2.087458-1.234432-5.264023-6.789379-6.897686-5.554942-1.633661-4.526251-1.905936-4.526251-1.905936l10.801284-.998351-11.829975-6.262371s-1.440174 0 .720084-.453795c2.160256-.453796 10.698413-.81683 10.698413-.81683s2.160255-2.722771.308605-5.082507c-1.851646-2.359734-1.440168-5.264022-4.42338-6.353129-2.983211-1.089111-10.69841-5.717819-10.69841-5.717819s6.867343-10.689981 17.076308-14.067646c9.875457-3.267326 11.829975-5.2640222 25.820205-1.905938 8.995082 2.159092 8.538158 3.993395 8.538158 3.993395z" opacity=".227612"/><g transform="matrix(1.00499616196 0 0 .99994232252 -.01430215935 -.66225351599)"><path d="m12 6c-3.324 0-6 2.676-6 6v2 68 2c0 .334721.04135.6507.09375.96875.0487.295596.09704.596915.1875.875.00988.03038.020892.0636.03125.09375.098865.287771.2348802.547452.375.8125.1445918.273507.3156161.535615.5.78125s.3737765.473472.59375.6875c.439947.428056.94291.814526 1.5 1.09375.278545.139612.5734731.246947.875.34375-.2562018-.100222-.4867109-.236272-.71875-.375-.00741-.0044-.023866.0045-.03125 0-.031933-.0193-.062293-.04251-.09375-.0625-.120395-.0767-.2310226-.163513-.34375-.25-.1061728-.0808-.2132809-.161112-.3125-.25-.1779299-.161433-.3474596-.345388-.5-.53125-.1075789-.130255-.2183939-.265285-.3125-.40625-.025089-.03838-.038446-.08587-.0625-.125-.064763-.103032-.1302275-.204517-.1875-.3125-.1010083-.194706-.2056748-.415701-.28125-.625-.00796-.02181-.023589-.04055-.03125-.0625-.0318251-.09195-.0358045-.186831-.0625-.28125-.0303323-.106618-.0703894-.203031-.09375-.3125-.0728786-.341512-.125-.698205-.125-1.0625v-2-68-2c0-2.781848 2.2181517-5 5-5h2 68 2c2.781848 0 5 2.218152 5 5v2 68 2c0 .364295-.05212.720988-.125 1.0625-.04415.206893-.08838.397658-.15625.59375-.0077.02195-.0233.04069-.03125.0625-.06274.173739-.138383.367449-.21875.53125-.04158.0828-.07904.169954-.125.25-.0546.09721-.126774.18835-.1875.28125-.09411.140965-.204921.275995-.3125.40625-.143174.17445-.303141.346998-.46875.5-.01117.0102-.01998.02115-.03125.03125-.138386.125556-.285091.234436-.4375.34375-.102571.07315-.204318.153364-.3125.21875-.0074.0045-.02384-.0044-.03125 0-.232039.138728-.462548.274778-.71875.375.301527-.0968.596455-.204138.875-.34375.55709-.279224 1.060053-.665694 1.5-1.09375.219973-.214028.409366-.441865.59375-.6875s.355408-.507743.5-.78125c.14012-.265048.276135-.524729.375-.8125.01041-.03078.02133-.06274.03125-.09375.09046-.278085.1388-.579404.1875-.875.0524-.31805.09375-.634029.09375-.96875v-2-68-2c0-3.324-2.676-6-6-6z" fill="url(#D)" opacity=".3"/><path d="m12 90c-3.324 0-6-2.676-6-6v-2-68-2c0-.334721.04135-.6507.09375-.96875.0487-.295596.09704-.596915.1875-.875.00988-.03038.020892-.0636.03125-.09375.098865-.287771.2348802-.547452.375-.8125.1445918-.273507.3156161-.535615.5-.78125s.3737765-.473472.59375-.6875c.439947-.428056.94291-.814526 1.5-1.09375.278545-.139612.5734731-.246947.875-.34375-.2562018.100222-.4867109.236272-.71875.375-.00741.0044-.023866-.0045-.03125 0-.031933.0193-.062293.04251-.09375.0625-.120395.0767-.2310226.163513-.34375.25-.1061728.0808-.2132809.161112-.3125.25-.1779299.161433-.3474596.345388-.5.53125-.1075789.130255-.2183939.265285-.3125.40625-.025089.03838-.038446.08587-.0625.125-.064763.103032-.1302275.204517-.1875.3125-.1010083.194706-.2056748.415701-.28125.625-.00796.02181-.023589.04055-.03125.0625-.0318251.09195-.0358045.186831-.0625.28125-.0303323.106618-.0703894.203031-.09375.3125-.0728786.341512-.125.698205-.125 1.0625v2 68 2c0 2.781848 2.2181517 5 5 5h2 68 2c2.781848 0 5-2.218152 5-5v-2-68-2c0-.364295-.05212-.720988-.125-1.0625-.04415-.206893-.08838-.397658-.15625-.59375-.0077-.02195-.0233-.04069-.03125-.0625-.06274-.173739-.138383-.367449-.21875-.53125-.04158-.0828-.07904-.169954-.125-.25-.0546-.09721-.126774-.18835-.1875-.28125-.09411-.140965-.204921-.275995-.3125-.40625-.143174-.17445-.303141-.346998-.46875-.5-.01117-.0102-.01998-.02115-.03125-.03125-.138386-.125556-.285091-.234436-.4375-.34375-.102571-.07315-.204318-.153364-.3125-.21875-.0074-.0045-.02384.0044-.03125 0-.232039-.138728-.462548-.274778-.71875-.375.301527.0968.596455.204138.875.34375.55709.279224 1.060053.665694 1.5 1.09375.219973.214028.409366.441865.59375.6875s.355408.507743.5.78125c.14012.265048.276135.524729.375.8125.01041.03078.02133.06274.03125.09375.09046.278085.1388.579404.1875.875.0524.31805.09375.634029.09375.96875v2 68 2c0 3.324-2.676 6-6 6z" fill="url(#j)" opacity=".2"/></g><path d="m66.406496 17.10888s-16.572138-.968441-19.846873 1.936887c-3.274733 2.905327-5.358653 4.313971-5.358653 4.313971s-4.068611-5.722615-5.259423-5.898696c-1.190811-.17608-13.396638 7.395381-14.091278 9.596389-.69464 2.201006 19.747639 11.445232 19.747639 11.445232l6.747936-5.194375s-3.671674 8.539907-3.671674 12.589758c0 4.049852-1.091576 15.935287 4.26708 15.847247 5.358653-.08803 8.335684-5.986737 7.144872-12.237596-1.190812-6.250857-5.854828-12.061516-5.854828-12.061516l6.549469 1.496685s11.11425-9.332268 12.404296-9.684429c1.290046-.352159 9.625732-2.112965 9.625732-2.112965s7.541812 17.255891 5.259422 25.707756c-2.282389 8.451863-4.664015 14.17448-4.664015 14.17448s1.885453-15.142925-1.290047-18.664533c-3.175498-3.521612-4.068609-5.106335-4.068609-5.106335l6.747937-4.842214-3.87014-8.187747s-6.747937 2.289046-7.244109 6.691061c-.496171 4.402012-.198467 32.046654-.198467 32.046654l5.060951 3.961813s-10.717311 12.853878-29.770308 11.181112c-19.052997-1.672765-34.434322-22.186147-33.938149-32.310774.496171-10.124631 2.480858-16.551569 2.480858-16.551569s1.58775 14.790763 4.862483 18.400414c3.274733 3.60965 4.961719 4.842213 4.961719 4.842213l-4.76325 5.898698s11.511184 16.199407 27.388683 16.72765c15.877495.52824 25.106293-7.571463 25.106293-7.571463l-14.587451-6.603018-.793875-2.641209-9.526498 7.835584-12.702-4.402015-5.656356-.4402s4.465543-3.08141 4.366311-5.106337c-.09922-2.024925-1.190811-5.106333-6.549469-6.691059-5.358652-1.584723-4.366311-1.848844-4.366311-1.848844l10.419609-.968443-11.41195-6.074779s-1.389283 0 .694639-.440201c2.083921-.4402 10.320372-.792362 10.320372-.792362s2.083922-2.641209.297702-4.930255c-1.786217-2.289048-1.389278-5.106337-4.267076-6.162819-2.877795-1.056483-10.320372-5.546537-10.320372-5.546537s6.624681-10.369754 16.472901-13.646239c9.5265-3.16945 11.411951-5.106336 24.907824-1.848846 8.677233 2.094416 8.236453 3.873771 8.236453 3.873771z" opacity=".354627"/><g fill="none" mask="url(#e)" transform="matrix(.93936292 0 0 .94224601 3.360144 2.103406)"><rect fill="none" height="84" rx="6" width="84" x="6" y="6"/></g><path d="m65.806663 17.494998s-15.803218-.945438-18.92601 1.890876c-3.122791 2.836313-5.11002 4.211496-5.11002 4.211496s-3.879833-5.58668-5.015393-5.758575c-1.135561-.171898-12.775058 7.219707-13.437465 9.36843-.662412 2.148723 18.831377 11.173358 18.831377 11.173358l6.434844-5.070985s-3.501314 8.337045-3.501314 12.290695-1.040928 15.556753 4.069093 15.470806c5.110022-.08594 7.948924-5.844528 6.813362-11.9469-1.13556-6.102373-5.583172-11.775002-5.583172-11.775002l6.245583 1.461132s10.598566-9.110585 11.828757-9.454381c1.23019-.343795 9.179113-2.062774 9.179113-2.062774s7.191885 16.845988 5.015394 25.097085c-2.176492 8.251094-4.447613 13.837775-4.447613 13.837775s1.797972-14.783214-1.23019-18.221171c-3.028161-3.437956-3.879833-4.985037-3.879833-4.985037l6.434843-4.72719-3.690571-7.99325s-6.434844 2.23467-6.907994 6.532118c-.473149 4.297445-.189259 31.285405-.189259 31.285405l4.826132 3.867701s-10.220046 12.548542-28.389013 10.915512c-18.168968-1.63303-32.836624-21.659127-32.363475-31.543252.47315-9.884125 2.365751-16.158396 2.365751-16.158396s1.514082 14.439418 4.636871 17.963324c3.122791 3.523905 4.731504 4.72719 4.731504 4.72719l-4.542243 5.758578s10.977084 15.814599 26.117891 16.330293c15.140807.515693 23.941403-7.391608 23.941403-7.391608l-13.910619-6.446167-.757039-2.578467-9.084484 7.649452-12.112647-4.297444-5.39391-.429745s4.25835-3.008212 4.163722-4.985037c-.09462-1.976825-1.135561-4.985038-6.245584-6.532118-5.110022-1.54708-4.163723-1.804927-4.163723-1.804927l9.936156-.94544-10.882455-5.930473s-1.324821 0 .66241-.429745c1.987233-.429744 9.841525-.77354 9.841525-.77354s1.98723-2.578468.283889-4.813139c-1.703339-2.234675-1.32482-4.985039-4.069091-6.016425-2.744271-1.031389-9.841524-5.414782-9.841524-5.414782s6.317306-10.123428 15.708585-13.322082c9.084485-3.094162 10.882455-4.985038 23.752142-1.804927 8.274622 2.044665 7.854294 3.781753 7.854294 3.781753z" opacity=".447761"/><g fill="none" mask="url(#e)" transform="matrix(.93936292 0 0 .94224601 3.360144 2.103406)"><rect fill="none" height="84" rx="6" width="84" x="6" y="6"/></g><path d="m65.033263 18.213332s-12.883177-1.273686-18.392877 1.840266c-3.571488 2.018521-4.966076 4.098772-4.966076 4.098772s-3.77054-5.437147-4.874113-5.604444c-1.103572-.167296-12.415193 7.026467-13.058944 9.11768-.64375 2.09121 18.300915 10.874295 18.300915 10.874295l6.253579-4.935257s-3.402684 8.113898-3.402684 11.961728c0 3.847827-1.011608 15.140365 3.954468 15.056718 4.966077-.08365 7.725009-5.688093 6.621436-11.627133-1.103574-5.939039-5.425898-11.459836-5.425898-11.459836l6.069649 1.422022s10.300014-8.866734 11.495549-9.201327c1.195536-.334593 8.920547-2.007561 8.920547-2.007561s6.989292 16.395092 4.874111 24.425343c-2.11518 8.030249-4.322325 13.467399-4.322325 13.467399s1.747323-14.387533-1.195539-17.733469c-2.942859-3.345938-3.77054-4.85161-3.77054-4.85161l6.25358-4.600664-3.586611-7.779305s-6.253579 2.174858-6.713401 6.357281c-.459822 4.182421-.183928 30.44803-.183928 30.44803l4.690183 3.764181s-9.932154 12.212672-27.589316 10.62335c-17.657164-1.589318-31.911643-21.079406-31.451821-30.698975.459823-9.61957 2.299112-15.725906 2.299112-15.725906s-.119561 14.583268 2.915262 18.012853c3.034825 3.429585 3.360784 3.540005 3.360784 3.540005l-1.585866 6.134774s10.66787 15.391313 25.382173 15.893203c14.7143.50189 23.266991-7.193765 23.266991-7.193765l-13.518766-6.273632-.735716-2.509455-8.828581 7.444712-11.771443-4.182422-5.241968-.418243s4.138396-2.927693 4.046433-4.851609c-.09195-1.923915-1.09825-4.869272-6.06965-6.357282-2.667978-.798563-4.046433-1.933393-4.046433-1.933393l9.656261-.743357-10.575903-5.771741s-1.287504 0 .64375-.418242c1.931252-.418242 9.564295-.752836 9.564295-.752836s1.931252-2.509452.275893-4.684313c-1.655359-2.17486-1.287501-4.851611-3.954468-5.855391-2.666967-1.003781-9.564295-5.269852-9.564295-5.269852s6.473114-9.006726 15.266085-12.965507c8.651806-3.895225 10.399129-5.735492 23.083062-1.756618 7.904303 2.479533 7.633044 3.680533 7.633044 3.680533z" fill="url(#B)"/><path d="m63.109279 66.56668a.707107 5.0381372 0 1 1 -1.414214 0 .707107 5.0381372 0 1 1 1.414214 0z" fill="url(#A)" opacity=".934426"/><path d="m30.935919 18.218254c.918727-.50265 6.660747-2.764568 6.660747-2.764568l4.099408 4.839022s9.858207-4.634562 13.762772-3.88059c3.90458.753973 5.105887.800839 5.105887.800839l4.577479.734789s-13.251662-7.608366-22.40483-5.184079c-6.215302 1.64617-11.801463 5.454587-11.801463 5.454587z" fill="#fefefe" opacity=".716418"/><path d="m19.003495 29.443574 11.299636 5.944265 11.416169 4.927502 3.005204-3.889087-2.65165 2.12132-21.920311-10.960155z" fill="#fefefe" opacity=".720149"/><path d="m50.204582 37.575302 6.098796 1.414214 10.783378-9.369165s-1.59099 3.005204-1.679379 4.242641c-.08839 1.237437-7.866562 7.513009-7.866562 7.513009z" fill="#fefefe" opacity=".716418"/><path d="m65.32586 18.945139s-12.456146-1.353905-17.783219 1.95617c-3.453105 2.145651-4.801468 4.35692-4.801468 4.35692s-3.64556-5.779589-4.712553-5.957423c-1.066993-.177832-12.003673 7.469008-12.626086 9.69193-.622412 2.222918 17.694304 11.559179 17.694304 11.559179l6.046295-5.246089s-3.289897 8.624927-3.289897 12.7151c0 4.090171-.978077 16.093938 3.823391 16.00502 4.801469-.08897 7.468953-6.046337 6.401959-12.359433-1.066994-6.313091-5.246048-12.181598-5.246048-12.181598l5.868461 1.511583s9.958605-9.425178 11.114512-9.780844c1.155909-.355666 8.624863-2.134001 8.624863-2.134001s6.757625 17.427687 4.712556 25.963698c-2.045069 8.536013-4.17906 14.315605-4.17906 14.315605s1.689402-15.293691-1.155911-18.85036c-2.845314-3.556672-3.64556-5.157174-3.64556-5.157174l6.046295-4.890423-3.467727-8.26926s-6.046295 2.311835-6.490875 6.757675c-.444581 4.445838-.177832 32.365705-.177832 32.365705l4.53472 4.001256s-9.602938 12.981847-26.674827 11.292429c-17.071892-1.689419-30.853885-22.407022-30.409305-32.632455.444582-10.225429 2.222905-16.716354 2.222905-16.716354s-.115598 15.501751 2.818631 19.147337c2.934232 3.645589 3.249386 3.762964 3.249386 3.762964l-1.5333 6.52115s10.314268 16.360695 24.540844 16.894195c14.226573.5335 22.495772-7.646848 22.495772-7.646848l-13.070666-6.668755-.71133-2.667511-8.535945 7.913603-11.381261-4.445848-5.068215-.444581s4.001222-3.112082 3.912308-5.157174c-.0889-2.045081-1.061847-5.175946-5.868463-6.757674-2.579544-.848854-3.912308-2.055163-3.912308-2.055163l9.33619-.790175-10.225349-6.135256s-1.244828 0 .622412-.444584c1.867238-.444583 9.247272-.800251 9.247272-.800251s1.867238-2.667502.266748-4.97934c-1.600489-2.311837-1.244824-5.157175-3.823391-6.224175-2.578566-1.067001-9.247272-5.601757-9.247272-5.601757s6.258553-9.573987 14.760068-13.7821c8.365029-4.140554 10.054435-6.096724 22.31794-1.867253 7.642303 2.635699 7.380036 3.91234 7.380036 3.91234z" fill="url(#z)"/><g fill="none" stroke-linecap="round"><path d="m54.447222 62.765981-8.662058 7.071068" opacity=".729508" stroke="url(#y)" stroke-width=".8"/><path d="m73.25 44.75s3.75.75 4.75 6.25c1.028591 5.657252 0 10.25 0 10.25" opacity=".664179" stroke="url(#x)"/><path d="m54.056697 63.585246 10.368992 5.682538" opacity=".729508" stroke="url(#w)" stroke-width=".902018"/><path d="m46.993795 34.753776s-3.255688 4.320889-4.006464 7.374056.445222 15.254354 1.002069 17.577862c.247163 1.031316 2.753619 4.316459 6.256463 2.044306 2.544202-1.650321 2.754137-2.044306 2.754137-2.044306" opacity=".440299" stroke="url(#v)" stroke-width="1.006"/><path d="m51.5 63.5-6.75 5.75-13.5-4" stroke="url(#u)" stroke-width="1.6"/></g><path d="m38.714094 49.596117a.79549519 9.2807769 0 1 1 -1.59099 0 .79549519 9.2807769 0 1 1 1.59099 0z" fill="url(#t)" opacity=".893443"/><path d="m64.169939 50.921943a.7954955 10.96016 0 1 1 -1.590991 0 .7954955 10.96016 0 1 1 1.590991 0z" fill="url(#s)" opacity=".92623"/><path d="m-82.952464 29.642448a.972272.7733982 0 1 1 -1.944544 0 .972272.7733982 0 1 1 1.944544 0z" fill="#3d2d19" transform="matrix(1.23388066249 0 0 1.49683305867 166.83273656668 -3.33565920586)"/><path d="m-82.952464 29.642448a.972272.7733982 0 1 1 -1.944544 0 .972272.7733982 0 1 1 1.944544 0z" fill="url(#k)" opacity=".532787" transform="matrix(1.23388066249 0 0 1.49683305867 166.67793962934 -3.55971917963)"/><path d="m-82.952464 29.642448a.972272.7733982 0 1 1 -1.944544 0 .972272.7733982 0 1 1 1.944544 0z" fill="#3d2d19" transform="matrix(1.23388066249 0 0 1.49683305867 141.41195656668 -3.15951220586)"/><path d="m-82.952464 29.642448a.972272.7733982 0 1 1 -1.944544 0 .972272.7733982 0 1 1 1.944544 0z" fill="url(#l)" opacity=".508197" transform="matrix(1.23388066249 0 0 1.49683305867 141.25715962934 -3.38357217963)"/><path d="m-82.952464 29.642448a.972272.7733982 0 1 1 -1.944544 0 .972272.7733982 0 1 1 1.944544 0z" fill="#3d2d19" transform="matrix(1.23388066249 0 0 1.49683305867 144.48639656668 20.55310079414)"/><path d="m-82.952464 29.642448a.972272.7733982 0 1 1 -1.944544 0 .972272.7733982 0 1 1 1.944544 0z" fill="url(#m)" opacity=".508197" transform="matrix(1.23388066249 0 0 1.49683305867 144.33159962934 20.32904082037)"/><path d="m-82.952464 29.642448a.972272.7733982 0 1 1 -1.944544 0 .972272.7733982 0 1 1 1.944544 0z" fill="#3d2d19" transform="matrix(1.23388066249 0 0 1.49683305867 165.97484656668 18.03544879414)"/><path d="m-82.952464 29.642448a.972272.7733982 0 1 1 -1.944544 0 .972272.7733982 0 1 1 1.944544 0z" fill="url(#n)" opacity=".508197" transform="matrix(1.23388066249 0 0 1.49683305867 165.82004962934 17.81138882037)"/><path d="m58.336308 48.35868a.5303305 8.0433455 0 0 1 -1.060661 0 .5303305 8.0433455 0 1 1 1.060661 0z" fill="#fefefe" opacity=".656716"/><path d="m57.805979 56.402021-5.568466 4.684582s.795496-.972272 2.386486-3.800699 2.069544-3.660534 2.599874-2.423097.582106 1.539214.582106 1.539214z" fill="#fefefe" opacity=".66791"/><path d="m15.5 36.319638s-1 12.959033 2.25 16.008217c3.25 3.049185 3.5 4.827875 3.5 4.827875l-.75 5.84427" fill="none" opacity=".745902" stroke="url(#r)" stroke-linecap="round" stroke-width="1.008164"/><path d="m36.204873 45.645089-14.07736.312852" fill="none" opacity=".729508" stroke="url(#q)" stroke-linecap="round" stroke-width=".897803"/><path d="m35.204873 52.895089-11.17736.312852" fill="none" opacity=".729508" stroke="url(#p)" stroke-linecap="round" stroke-width=".8"/><path d="m35.322554 60.62596-4.662722 4.60111" fill="none" opacity=".729508" stroke="url(#o)" stroke-linecap="round" stroke-width=".480205"/></svg>