<svg height="96" width="96" xmlns="http://www.w3.org/2000/svg" xmlns:xlink="http://www.w3.org/1999/xlink"><linearGradient id="a"><stop offset="0" stop-color="#fefefe"/><stop offset="1" stop-color="#fefefe" stop-opacity="0"/></linearGradient><linearGradient id="b" gradientTransform="matrix(3.7957231 0 0 3.9309802 -365.72353 110.63517)" gradientUnits="userSpaceOnUse" x1="108.95286" x2="108.89102" y1="-20.93572" y2="-7.719137"><stop offset="0" stop-color="#fbf9b0"/><stop offset=".63602495" stop-color="#a06400"/><stop offset=".78879213" stop-color="#c48800"/><stop offset="1" stop-color="#c08400"/></linearGradient><linearGradient id="c" gradientTransform="matrix(1.6317851 0 0 1.6011707 -370.16414 -531.17036)" gradientUnits="userSpaceOnUse" x1="276.25797" x2="281.01184" xlink:href="#w" y1="378.63412" y2="383.73593"/><linearGradient id="d" gradientTransform="matrix(1.5089239 .21172863 -.22233297 1.4369547 -256.06962 -527.17357)" gradientUnits="userSpaceOnUse" x1="270.22916" x2="283.99182" xlink:href="#l" y1="386.21274" y2="368.74316"/><linearGradient id="e" gradientTransform="matrix(-1.7517828 .05878194 -.05886297 -1.6843458 522.88102 639.35997)" gradientUnits="userSpaceOnUse" x1="276.51602" x2="281.01184" xlink:href="#w" y1="379.22095" y2="383.73593"/><linearGradient id="f" gradientTransform="matrix(-1.4670321 -.2337789 .22956853 -1.4939379 339.54956 647.9687)" gradientUnits="userSpaceOnUse" x1="269.79306" x2="284.20978" xlink:href="#l" y1="387.66531" y2="368.5462"/><linearGradient id="g" gradientTransform="matrix(.1846402 -.43753152 .62154072 .12997685 -199.94281 81.567108)" gradientUnits="userSpaceOnUse" x1="270.22916" x2="283.99182" xlink:href="#l" y1="386.21274" y2="368.74316"/><linearGradient id="h" gradientTransform="matrix(.98608032 0 0 .98586675 -103.91249 -1.010852)" gradientUnits="userSpaceOnUse" x1="120.24287" x2="155.90988" y1="64.240051" y2="25.311159"><stop offset="0" stop-color="#0f1746"/><stop offset="1" stop-color="#504dee"/></linearGradient><radialGradient id="i" cx="55.25" cy="23" gradientTransform="matrix(1 0 0 .47916667 0 11.979167)" gradientUnits="userSpaceOnUse" r="12" xlink:href="#a"/><radialGradient id="j" cx="67.351921" cy="64.533745" gradientTransform="matrix(1 0 0 .72727268 0 17.600115)" gradientUnits="userSpaceOnUse" r="5.833631" xlink:href="#a"/><radialGradient id="k" cx="67.351921" cy="64.533745" gradientTransform="matrix(1 0 0 .72727268 0 17.600115)" gradientUnits="userSpaceOnUse" r="5.833631"><stop offset="0" stop-color="#fdfce7"/><stop offset="1" stop-color="#fdfce7" stop-opacity="0"/></radialGradient><linearGradient id="l"><stop offset="0" stop-color="#fbf9b0" stop-opacity="0"/><stop offset=".25204447" stop-color="#c7a44b"/><stop offset=".48666146" stop-color="#fbf9b0"/><stop offset="1" stop-color="#f7eca7" stop-opacity="0"/></linearGradient><radialGradient id="m" cx="48" cy="90.171875" gradientTransform="matrix(1.1573129 0 0 .99590774 -7.551021 .197132)" gradientUnits="userSpaceOnUse" r="42" xlink:href="#a"/><linearGradient id="n" gradientUnits="userSpaceOnUse" x1="36.357143" x2="36.357143" xlink:href="#a" y1="6" y2="63.893143"/><linearGradient id="o"><stop offset="0" stop-color="#152062"/><stop offset="1" stop-color="#504dee"/></linearGradient><linearGradient id="p" gradientUnits="userSpaceOnUse" x1="66.545319" x2="84.019165" xlink:href="#o" y1="57.262165" y2="34.942009"/><mask id="q"><path d="m100.76272 58.346565a30.935923 23.157747 0 1 1 -61.871845 0 30.935923 23.157747 0 1 1 61.871845 0z" fill="url(#p)" transform="matrix(1.3626352 -1.1358185 1.115185 1.5177777 -111.97915 39.671875)"/></mask><linearGradient id="r" gradientUnits="userSpaceOnUse" x1="76.154106" x2="35.435696" y1="13.506863" y2="73.565498"><stop offset="0" stop-color="#1a1c55"/><stop offset="1" stop-color="#070a20"/></linearGradient><linearGradient id="s" gradientTransform="translate(0 -97)" gradientUnits="userSpaceOnUse" x1="32.251034" x2="32.251034" xlink:href="#u" y1="6.131708" y2="90.238609"/><linearGradient id="t" gradientTransform="matrix(1.0238095 0 0 1.0119048 -1.142857 -98.071429)" gradientUnits="userSpaceOnUse" x1="32.251034" x2="32.251034" xlink:href="#u" y1="6.131708" y2="90.238609"/><linearGradient id="u" gradientTransform="matrix(1.0058652 0 0 .994169 100 0)" gradientUnits="userSpaceOnUse" x1="45.447727" x2="45.447727" y1="92.539597" y2="7.01654"><stop offset="0"/><stop offset="1" stop-opacity=".588235"/></linearGradient><linearGradient id="v" gradientTransform="matrix(1.0238095 0 0 -1.0019993 -1.142857 98.041669)" gradientUnits="userSpaceOnUse" x1="32.251034" x2="32.251034" xlink:href="#u" y1="6.131708" y2="90.238609"/><linearGradient id="w"><stop offset="0"/><stop offset="1" stop-opacity="0"/></linearGradient><g transform="matrix(.95833339 0 0 .9572875 2.12537 3.256414)"><g transform="matrix(1.0427698 0 0 1.054221 -2.020707 -4.216167)"><path d="m12 95.03125c-5.5110903 0-10.03125-4.475912-10.03125-9.933055v-70.304985c0-5.4571426 4.5201598-9.9330549 10.03125-9.9330549h72c5.51109 0 10.03125 4.4759122 10.03125 9.9330549v70.304985c0 5.457143-4.52016 9.933055-10.03125 9.933055z" fill="url(#v)" opacity=".08"/><g fill="url(#t)"><path d="m12-94.03125c-4.971633 0-9.03125 4.059617-9.03125 9.03125v71c0 4.9716329 4.0596171 9.03125 9.03125 9.03125h72c4.971633 0 9.03125-4.059617 9.03125-9.03125v-71c0-4.971633-4.059617-9.03125-9.03125-9.03125z" opacity=".1" transform="scale(1 -1)"/><path d="m12-93c-4.4091333 0-8 3.590867-8 8v71c0 4.4091333 3.5908667 8 8 8h72c4.409133 0 8-3.5908667 8-8v-71c0-4.409133-3.590867-8-8-8z" opacity=".2" transform="scale(1 -1)"/><rect height="85" opacity=".3" rx="7" transform="scale(1 -1)" width="86" x="5" y="-92"/></g><rect fill="url(#s)" height="84" opacity=".45" rx="6" transform="scale(1 -1)" width="84" x="6" y="-91"/></g><rect fill="url(#r)" height="84" rx="6" transform="matrix(1.0427698 0 0 1.054221 -2.020707 -4.216167)" width="84" x="6" y="6"/><path d="m34.18116 4.2471042s-14.536495 7.7353988-28.1616058 26.6290028c-1.5873426 2.201129.6785909 53.936451.6785909 53.936451s-1.3091893 3.690519 3.7802569 3.251866c5.073462-.437275 50.499571 1.624691 56.569841-1.577974 7.205547-3.801635 23.917072-22.17817 23.965075-25.330606.038822-2.549527.319242-44.895151-.133552-47.72159-.469962-2.933604-7.500732-9.2005578-11.101843-9.1397314-3.053229.0515721-45.596763-.0474184-45.596763-.0474184z" fill="url(#h)" opacity=".406863"/><path d="m47.871974 9.8962116s-21.828915 8.8594624-28.203388 21.0203064c-6.374472 12.160844-8.722952 22.584422-8.722952 22.584422s14.069323-23.194517 17.267345-21.934837c2.389018.941004 3.533541 36.527885 3.533541 36.527885l-4.820101 1.390967s9.067301 6.823637 23.272464 11.812219c1.778138.624451 9.39392-10.423579 9.39392-10.423579 4.435665 3.710342 5.447956 8.038386 7.380931 7.29651 4.088538-1.569179 12.86493-13.440946 15.09741-15.635375 2.573731-2.529877-10.064916 2.432174-10.064916 2.432174s-6.318734-32.131026-2.246996-40.392859c4.071723-8.261862 12.311883-8.250561 12.311883-8.250561s-10.064931-1.737265-14.090909 2.432175c-4.025963 4.16944-8.387447 7.991419-8.387447 7.991419l-3.01949-1.737266 1.006501 4.16944 1.006473 34.050387s-1.341964 3.474516-6.70992 3.474516c-5.368 0-5.703447-1.389804-5.703447-1.389804l-.670996-37.872364s-4.025978-2.779637-4.361498-5.211782c-.335535-2.432175-.569469-4.690037 1.44352-6.77475 2.012989-2.084727 4.013731-4.472727 4.013731-4.472727z" opacity=".279412"/><path d="m49.453458 10.261172s-21.828916 8.859462-28.203388 21.020306c-6.374473 12.160844-8.722953 22.584422-8.722953 22.584422s14.069324-23.194517 17.267345-21.934837c2.389018.941004 3.533542 36.527885 3.533542 36.527885l-4.820102 1.390967s9.067302 6.823637 23.272465 11.812219c1.778138.624451 9.39392-10.423579 9.39392-10.423579 4.435665 3.710342 5.447956 8.038386 7.38093 7.29651 4.088538-1.569179 12.864931-13.440946 15.09741-15.635375 2.573731-2.529877-10.064915 2.432174-10.064915 2.432174s-6.318735-32.131026-2.246997-40.392859c4.071724-8.261862 12.311883-8.250561 12.311883-8.250561s-10.06493-1.737265-14.090908 2.432175c-4.025964 4.16944-8.387447 7.991419-8.387447 7.991419l-3.019491-1.737266 1.006502 4.16944 1.006473 34.050387s-1.341964 3.474516-6.70992 3.474516c-5.368 0-5.703447-1.389804-5.703447-1.389804l-.670997-37.872364s-4.025978-2.779637-4.361498-5.211782c-.335534-2.432175-.569469-4.690037 1.44352-6.77475 2.012989-2.084727 4.013731-4.472727 4.013731-4.472727z" opacity=".132353"/><path d="m67.25 23a12 5.75 0 1 1 -24 0 12 5.75 0 1 1 24 0z" fill="url(#i)" opacity=".196078" transform="matrix(.97812937 -.66822278 .68521628 1.0995783 -20.542118 26.911645)"/><path d="m46.495625 9.3800806s-21.828915 8.8594624-28.203388 21.0203064c-6.374472 12.160844-8.7229522 22.584422-8.7229522 22.584422s14.0693232-23.194517 17.2673452-21.934837c2.389018.941004 3.533541 36.527885 3.533541 36.527885l-4.820101 1.390967s9.067301 6.823637 23.272464 11.812219c1.778138.624451 9.39392-10.423579 9.39392-10.423579 4.435665 3.710342 5.447956 8.038386 7.380931 7.29651 4.088538-1.569179 12.86493-13.440946 15.09741-15.635375 2.573731-2.529877-10.064916 2.432174-10.064916 2.432174s-6.318734-32.131026-2.246996-40.392859c4.071723-8.261862 12.311883-8.25056 12.311883-8.25056s-10.064931-1.737266-14.090909 2.432174c-4.025963 4.16944-8.387447 7.991419-8.387447 7.991419l-3.019491-1.737266 1.006502 4.16944 1.006473 34.050387s-1.341964 3.474516-6.70992 3.474516c-5.368 0-5.703447-1.389803-5.703447-1.389803l-.670996-37.872365s-4.025978-2.779637-4.361498-5.211782c-.335535-2.432175-.569469-4.690037 1.44352-6.77475 2.012989-2.084727 4.01373-4.472727 4.01373-4.472727z" opacity=".343137"/><path d="m44.947233 8.0037315s-21.828916 8.8594625-28.203388 21.0203065c-6.374473 12.160844-8.7229529 22.584422-8.7229529 22.584422s14.0693229-23.194517 17.2673449-21.934837c2.389018.941004 3.533542 36.527885 3.533542 36.527885l-4.820102 1.390967s9.067301 6.823637 23.272465 11.812219c1.778138.624451 9.393919-10.423579 9.393919-10.423579 4.435666 3.710342 5.447956 8.038386 7.380931 7.29651 4.088538-1.569179 12.86493-13.440946 15.09741-15.635375 2.573731-2.529877-10.064916 2.432174-10.064916 2.432174s-6.318734-32.131026-2.246996-40.392859c4.071723-8.261862 12.311883-8.250561 12.311883-8.250561s-10.06493-1.737265-14.090908 2.432175c-4.025964 4.16944-8.387447 7.991418-8.387447 7.991418l-3.019491-1.737265 1.006502 4.16944 1.006472 34.050387s-1.341963 3.474516-6.709919 3.474516c-5.368 0-5.703448-1.389804-5.703448-1.389804l-.670996-37.872364s-4.025978-2.779637-4.361498-5.211782c-.335534-2.432175-.569469-4.690037 1.44352-6.77475 2.012989-2.084727 4.013731-4.4727271 4.013731-4.4727271z" fill="url(#b)"/><path d="m73.185552 64.533745a5.833631 4.2426405 0 1 1 -11.667262 0 5.833631 4.2426405 0 1 1 11.667262 0z" fill="url(#k)" transform="matrix(.85764592 -.3401435 .41988778 .03844308 -10.922816 82.182439)"/><path d="m73.185552 64.533745a5.833631 4.2426405 0 1 1 -11.667262 0 5.833631 4.2426405 0 1 1 11.667262 0z" fill="url(#j)" transform="matrix(.81764391 -.89326017 .47381032 -.16042517 -22.333318 90.84737)"/><path d="m73.185552 64.533745a5.833631 4.2426405 0 1 1 -11.667262 0 5.833631 4.2426405 0 1 1 11.667262 0z" fill="url(#j)" transform="matrix(1.48877 -1.4986224 .85752363 -.26581767 -129.12978 140.15288)"/><path d="m73.185552 64.533745a5.833631 4.2426405 0 1 1 -11.667262 0 5.833631 4.2426405 0 1 1 11.667262 0z" fill="url(#j)" opacity=".986175" transform="matrix(.39842663 -.32541982 .27608723 -.02587952 9.085896 87.064301)"/><g transform="matrix(1.04869161298 0 0 1.04455802537 -2.23268808201 -4.09350419496)"><path d="m12 6c-3.324 0-6 2.676-6 6v2 68 2c0 .334721.04135.6507.09375.96875.0487.295596.09704.596915.1875.875.00988.03038.020892.0636.03125.09375.098865.287771.2348802.547452.375.8125.1445918.273507.3156161.535615.5.78125s.3737765.473472.59375.6875c.439947.428056.94291.814526 1.5 1.09375.278545.139612.5734731.246947.875.34375-.2562018-.100222-.4867109-.236272-.71875-.375-.00741-.0044-.023866.0045-.03125 0-.031933-.0193-.062293-.04251-.09375-.0625-.120395-.0767-.2310226-.163513-.34375-.25-.1061728-.0808-.2132809-.161112-.3125-.25-.1779299-.161433-.3474596-.345388-.5-.53125-.1075789-.130255-.2183939-.265285-.3125-.40625-.025089-.03838-.038446-.08587-.0625-.125-.064763-.103032-.1302275-.204517-.1875-.3125-.1010083-.194706-.2056748-.415701-.28125-.625-.00796-.02181-.023589-.04055-.03125-.0625-.0318251-.09195-.0358045-.186831-.0625-.28125-.0303323-.106618-.0703894-.203031-.09375-.3125-.0728786-.341512-.125-.698205-.125-1.0625v-2-68-2c0-2.781848 2.2181517-5 5-5h2 68 2c2.781848 0 5 2.218152 5 5v2 68 2c0 .364295-.05212.720988-.125 1.0625-.04415.206893-.08838.397658-.15625.59375-.0077.02195-.0233.04069-.03125.0625-.06274.173739-.138383.367449-.21875.53125-.04158.0828-.07904.169954-.125.25-.0546.09721-.126774.18835-.1875.28125-.09411.140965-.204921.275995-.3125.40625-.143174.17445-.303141.346998-.46875.5-.01117.0102-.01998.02115-.03125.03125-.138386.125556-.285091.234436-.4375.34375-.102571.07315-.204318.153364-.3125.21875-.0074.0045-.02384-.0044-.03125 0-.232039.138728-.462548.274778-.71875.375.301527-.0968.596455-.204138.875-.34375.55709-.279224 1.060053-.665694 1.5-1.09375.219973-.214028.409366-.441865.59375-.6875s.355408-.507743.5-.78125c.14012-.265048.276135-.524729.375-.8125.01041-.03078.02133-.06274.03125-.09375.09046-.278085.1388-.579404.1875-.875.0524-.31805.09375-.634029.09375-.96875v-2-68-2c0-3.324-2.676-6-6-6z" fill="url(#n)" opacity=".3"/><path d="m12 90c-3.324 0-6-2.676-6-6v-2-68-2c0-.334721.04135-.6507.09375-.96875.0487-.295596.09704-.596915.1875-.875.00988-.03038.020892-.0636.03125-.09375.098865-.287771.2348802-.547452.375-.8125.1445918-.273507.3156161-.535615.5-.78125s.3737765-.473472.59375-.6875c.439947-.428056.94291-.814526 1.5-1.09375.278545-.139612.5734731-.246947.875-.34375-.2562018.100222-.4867109.236272-.71875.375-.00741.0044-.023866-.0045-.03125 0-.031933.0193-.062293.04251-.09375.0625-.120395.0767-.2310226.163513-.34375.25-.1061728.0808-.2132809.161112-.3125.25-.1779299.161433-.3474596.345388-.5.53125-.1075789.130255-.2183939.265285-.3125.40625-.025089.03838-.038446.08587-.0625.125-.064763.103032-.1302275.204517-.1875.3125-.1010083.194706-.2056748.415701-.28125.625-.00796.02181-.023589.04055-.03125.0625-.0318251.09195-.0358045.186831-.0625.28125-.0303323.106618-.0703894.203031-.09375.3125-.0728786.341512-.125.698205-.125 1.0625v2 68 2c0 2.781848 2.2181517 5 5 5h2 68 2c2.781848 0 5-2.218152 5-5v-2-68-2c0-.364295-.05212-.720988-.125-1.0625-.04415-.206893-.08838-.397658-.15625-.59375-.0077-.02195-.0233-.04069-.03125-.0625-.06274-.173739-.138383-.367449-.21875-.53125-.04158-.0828-.07904-.169954-.125-.25-.0546-.09721-.126774-.18835-.1875-.28125-.09411-.140965-.204921-.275995-.3125-.40625-.143174-.17445-.303141-.346998-.46875-.5-.01117-.0102-.01998-.02115-.03125-.03125-.138386-.125556-.285091-.234436-.4375-.34375-.102571-.07315-.204318-.153364-.3125-.21875-.0074-.0045-.02384.0044-.03125 0-.232039-.138728-.462548-.274778-.71875-.375.301527.0968.596455.204138.875.34375.55709.279224 1.060053.665694 1.5 1.09375.219973.214028.409366.441865.59375.6875s.355408.507743.5.78125c.14012.265048.276135.524729.375.8125.01041.03078.02133.06274.03125.09375.09046.278085.1388.579404.1875.875.0524.31805.09375.634029.09375.96875v2 68 2c0 3.324-2.676 6-6 6z" fill="url(#m)" opacity=".2"/></g><g fill="none" mask="url(#q)" transform="matrix(1.01396 0 0 .99660133 -.961842 -1.273214)"><rect fill="none" height="84" rx="6" width="84" x="6" y="6"/></g><g fill="none" mask="url(#q)" transform="matrix(1.01396 0 0 .99660133 -.961842 -1.273214)"><rect fill="none" height="84" rx="6" width="84" x="6" y="6"/></g><path d="m67.697763 87.07025 23.335795-22.35856s.329847 22.482226-1.086574 22.482226c-1.416422 0-22.249221-.123637-22.249221-.123637z" fill="url(#c)" opacity=".764977"/><path d="m90.528656 63.669435s-15.331446 22.893499-28.150137 23.685659" fill="none" stroke="url(#d)" stroke-width="1.488398"/><path d="m31.551582 4.412095s-6.306676 4.1927565-14.030094 12.394109c-7.7234032 8.201368-12.3895703 13.791317-12.3895703 13.791317s-.4506763-25.0980369 1.0698618-25.1490769c1.5205818-.0510545 23.4032865-1.0363782 23.4032865-1.0363782z" fill="url(#e)" opacity=".764977"/><path d="m5.335845 31.640969s18.297512-26.4949394 30.78397-27.2060813" fill="none" stroke="url(#f)" stroke-width="1.49844"/><path d="m81.113852 4.5716176s10.136986 6.2512124 9.713262 10.0837654" fill="none" stroke="url(#g)" stroke-width=".792325"/><g fill="url(#j)"><path d="m73.185552 64.533745a5.833631 4.2426405 0 1 1 -11.667262 0 5.833631 4.2426405 0 1 1 11.667262 0z" opacity=".986175" transform="matrix(.5125786 -.04364647 .24248636 .13451497 -.08366 59.073653)"/><path d="m73.185552 64.533745a5.833631 4.2426405 0 1 1 -11.667262 0 5.833631 4.2426405 0 1 1 11.667262 0z" opacity=".661765" transform="matrix(1.48877 -1.4986224 .85752363 -.26581767 -128.52152 140.6395)"/><path d="m73.185552 64.533745a5.833631 4.2426405 0 1 1 -11.667262 0 5.833631 4.2426405 0 1 1 11.667262 0z" opacity=".710784" transform="matrix(.81764391 -.89326017 .47381032 -.16042517 -21.968358 91.698934)"/><path d="m73.185552 64.533745a5.833631 4.2426405 0 1 1 -11.667262 0 5.833631 4.2426405 0 1 1 11.667262 0z" opacity=".986175" transform="matrix(.47129786 -.20620417 .2728677 .04936732 -22.742932 77.828534)"/></g><path d="m67.25 23a12 5.75 0 1 1 -24 0 12 5.75 0 1 1 24 0z" fill="url(#i)" opacity=".112745" transform="matrix(.82186819 -.55564515 .57574946 .91432881 -7.412446 25.984721)"/></g></svg>