<svg height="96" width="96" xmlns="http://www.w3.org/2000/svg" xmlns:xlink="http://www.w3.org/1999/xlink"><linearGradient id="a"><stop offset="0" stop-color="#fefefe"/><stop offset="1" stop-color="#fefefe" stop-opacity="0"/></linearGradient><radialGradient id="b" cx="46.782921" cy="95.271492" gradientTransform="matrix(1.2397245 .00179453 -.00198147 .74439877 -10.919265 8.894154)" gradientUnits="userSpaceOnUse" r="42.114826" xlink:href="#f"/><radialGradient id="c" cx="46.782921" cy="95.271492" gradientTransform="matrix(1.2397245 .00179453 -.00198147 .74439877 -10.742488 9.954815)" gradientUnits="userSpaceOnUse" r="42.114826" xlink:href="#f"/><radialGradient id="d" cx="46.782921" cy="95.271492" gradientTransform="matrix(1.2397245 .00179453 -.00198147 .74439877 -10.742488 10.838698)" gradientUnits="userSpaceOnUse" r="42.114826" xlink:href="#f"/><radialGradient id="e" cx="47.896351" cy="65.620842" gradientTransform="matrix(1.2395574 .02043771 -.01385377 .78001568 -10.071288 8.489115)" gradientUnits="userSpaceOnUse" r="42.114826" xlink:href="#f"/><linearGradient id="f"><stop offset="0" stop-color="#525252"/><stop offset="1" stop-color="#151202"/></linearGradient><radialGradient id="g" cx="48" cy="90.171875" gradientTransform="matrix(1.1573129 0 0 .99590774 -7.551021 .197132)" gradientUnits="userSpaceOnUse" r="42" xlink:href="#a"/><linearGradient id="h" gradientUnits="userSpaceOnUse" x1="36.357143" x2="36.357143" xlink:href="#a" y1="6" y2="63.893143"/><radialGradient id="i" cx="47.325005" cy="69.614601" gradientTransform="matrix(1.1485446 -.00186699 .00185634 1.1419925 -6.307338 -19.390193)" gradientUnits="userSpaceOnUse" r="42"><stop offset="0" stop-color="#fcfdef"/><stop offset=".59611672" stop-color="#f8e944"/><stop offset="1" stop-color="#e4aa0a"/></radialGradient><linearGradient id="j" gradientTransform="translate(0 -97)" gradientUnits="userSpaceOnUse" x1="32.251034" x2="32.251034" xlink:href="#m" y1="6.131708" y2="90.238609"/><linearGradient id="k" gradientTransform="matrix(1.0238095 0 0 1.0119048 -1.142857 -98.071429)" gradientUnits="userSpaceOnUse" x1="32.251034" x2="32.251034" xlink:href="#m" y1="6.131708" y2="90.238609"/><linearGradient id="l" gradientTransform="matrix(1.0238095 0 0 -1.001661 -1.142857 98.030529)" gradientUnits="userSpaceOnUse" x1="32.251034" x2="32.251034" xlink:href="#m" y1="6.131708" y2="90.238609"/><linearGradient id="m" gradientTransform="matrix(1.0058652 0 0 .994169 100 0)" gradientUnits="userSpaceOnUse" x1="45.447727" x2="45.447727" y1="92.539597" y2="7.01654"><stop offset="0"/><stop offset="1" stop-opacity=".588235"/></linearGradient><linearGradient id="n" gradientTransform="matrix(1.0238095 0 0 -.9882524 -1.142857 98.000368)" gradientUnits="userSpaceOnUse" x1="32.251034" x2="32.251034" xlink:href="#m" y1="6.131708" y2="90.238609"/><g transform="matrix(.95833339 0 0 .96566159298 1.76579 2.57163372855)"><g transform="matrix(1.0427698 0 0 1.054221 -1.81896 -4.417972)"><path d="m12 95.03125c-5.5110903 0-10.03125-4.414505-10.03125-9.796778v-69.340437c0-5.382273 4.5201598-9.7967776 10.03125-9.7967776h72c5.51109 0 10.03125 4.4145046 10.03125 9.7967776v69.340437c0 5.382273-4.52016 9.796778-10.03125 9.796778z" fill="url(#n)" opacity=".08"/><path d="m12 94.03125c-4.971633 0-9.03125-4.01852-9.03125-8.939824v-70.281243c0-4.9213038 4.0596171-8.9398241 9.03125-8.9398241h72c4.971633 0 9.03125 4.0185202 9.03125 8.9398241v70.281243c0 4.921304-4.059617 8.939824-9.03125 8.939824z" fill="url(#l)" opacity=".1"/><path d="m12 93.01044c-4.4091333 0-8-3.554516-8-7.919014v-70.281243c0-4.364499 3.5908667-7.9190138 8-7.9190138h72c4.409133 0 8 3.5545148 8 7.9190138v70.281243c0 4.364498-3.590867 7.919014-8 7.919014z" fill="url(#l)" opacity=".2"/><rect fill="url(#k)" height="85" opacity=".3" rx="7" transform="scale(1 -1)" width="86" x="5" y="-92"/><rect fill="url(#j)" height="84" opacity=".45" rx="6" transform="scale(1 -1)" width="84" x="6" y="-91"/></g><g transform="matrix(1.0427698 0 0 1.0403552 -1.81896 -3.10029)"><rect fill="url(#i)" height="84" rx="6" width="84" x="6" y="6"/><path d="m12 6c-3.324 0-6 2.676-6 6v2 68 2c0 .334721.04135.6507.09375.96875.0487.295596.09704.596915.1875.875.00988.03038.020892.0636.03125.09375.098865.287771.2348802.547452.375.8125.1445918.273507.3156161.535615.5.78125s.3737765.473472.59375.6875c.439947.428056.94291.814526 1.5 1.09375.278545.139612.5734731.246947.875.34375-.2562018-.100222-.4867109-.236272-.71875-.375-.00741-.0044-.023866.0045-.03125 0-.031933-.0193-.062293-.04251-.09375-.0625-.120395-.0767-.2310226-.163513-.34375-.25-.1061728-.0808-.2132809-.161112-.3125-.25-.1779299-.161433-.3474596-.345388-.5-.53125-.1075789-.130255-.2183939-.265285-.3125-.40625-.025089-.03838-.038446-.08587-.0625-.125-.064763-.103032-.1302275-.204517-.1875-.3125-.1010083-.194706-.2056748-.415701-.28125-.625-.00796-.02181-.023589-.04055-.03125-.0625-.0318251-.09195-.0358045-.186831-.0625-.28125-.0303323-.106618-.0703894-.203031-.09375-.3125-.0728786-.341512-.125-.698205-.125-1.0625v-2-68-2c0-2.781848 2.2181517-5 5-5h2 68 2c2.781848 0 5 2.218152 5 5v2 68 2c0 .364295-.05212.720988-.125 1.0625-.04415.206893-.08838.397658-.15625.59375-.0077.02195-.0233.04069-.03125.0625-.06274.173739-.138383.367449-.21875.53125-.04158.0828-.07904.169954-.125.25-.0546.09721-.126774.18835-.1875.28125-.09411.140965-.204921.275995-.3125.40625-.143174.17445-.303141.346998-.46875.5-.01117.0102-.01998.02115-.03125.03125-.138386.125556-.285091.234436-.4375.34375-.102571.07315-.204318.153364-.3125.21875-.0074.0045-.02384-.0044-.03125 0-.232039.138728-.462548.274778-.71875.375.301527-.0968.596455-.204138.875-.34375.55709-.279224 1.060053-.665694 1.5-1.09375.219973-.214028.409366-.441865.59375-.6875s.355408-.507743.5-.78125c.14012-.265048.276135-.524729.375-.8125.01041-.03078.02133-.06274.03125-.09375.09046-.278085.1388-.579404.1875-.875.0524-.31805.09375-.634029.09375-.96875v-2-68-2c0-3.324-2.676-6-6-6z" fill="url(#h)" opacity=".4"/><path d="m12 90c-3.324 0-6-2.676-6-6v-2-68-2c0-.334721.04135-.6507.09375-.96875.0487-.295596.09704-.596915.1875-.875.00988-.03038.020892-.0636.03125-.09375.098865-.287771.2348802-.547452.375-.8125.1445918-.273507.3156161-.535615.5-.78125s.3737765-.473472.59375-.6875c.439947-.428056.94291-.814526 1.5-1.09375.278545-.139612.5734731-.246947.875-.34375-.2562018.100222-.4867109.236272-.71875.375-.00741.0044-.023866-.0045-.03125 0-.031933.0193-.062293.04251-.09375.0625-.120395.0767-.2310226.163513-.34375.25-.1061728.0808-.2132809.161112-.3125.25-.1779299.161433-.3474596.345388-.5.53125-.1075789.130255-.2183939.265285-.3125.40625-.025089.03838-.038446.08587-.0625.125-.064763.103032-.1302275.204517-.1875.3125-.1010083.194706-.2056748.415701-.28125.625-.00796.02181-.023589.04055-.03125.0625-.0318251.09195-.0358045.186831-.0625.28125-.0303323.106618-.0703894.203031-.09375.3125-.0728786.341512-.125.698205-.125 1.0625v2 68 2c0 2.781848 2.2181517 5 5 5h2 68 2c2.781848 0 5-2.218152 5-5v-2-68-2c0-.364295-.05212-.720988-.125-1.0625-.04415-.206893-.08838-.397658-.15625-.59375-.0077-.02195-.0233-.04069-.03125-.0625-.06274-.173739-.138383-.367449-.21875-.53125-.04158-.0828-.07904-.169954-.125-.25-.0546-.09721-.126774-.18835-.1875-.28125-.09411-.140965-.204921-.275995-.3125-.40625-.143174-.17445-.303141-.346998-.46875-.5-.01117-.0102-.01998-.02115-.03125-.03125-.138386-.125556-.285091-.234436-.4375-.34375-.102571-.07315-.204318-.153364-.3125-.21875-.0074-.0045-.02384.0044-.03125 0-.232039-.138728-.462548-.274778-.71875-.375.301527.0968.596455.204138.875.34375.55709.279224 1.060053.665694 1.5 1.09375.219973.214028.409366.441865.59375.6875s.355408.507743.5.78125c.14012.265048.276135.524729.375.8125.01041.03078.02133.06274.03125.09375.09046.278085.1388.579404.1875.875.0524.31805.09375.634029.09375.96875v2 68 2c0 3.324-2.676 6-6 6z" fill="url(#g)" opacity=".25"/></g><path d="m4.426145 75.057467s11.08669-21.528287 42.419969-21.749814c33.369759-.235925 45.250195 23.10918 45.250195 23.10918l-.06516 7.204631s.374298 1.165944-1.681411 2.582784c-2.135679 1.471989-3.187723 1.463735-3.187723 1.463735l-76.999037.03158s-2.3018765.341528-3.8710837-1.223432c-1.6274181-1.62298-2.0277235-2.990585-2.0277235-2.990585z" fill="url(#b)" opacity=".181373"/><path d="m4.6029217 76.118128s11.0866903-21.528287 42.4199693-21.749814c33.369759-.235925 45.250195 23.10918 45.250195 23.10918l-.06516 7.204631s.374298 1.165944-1.681411 2.582784c-2.135679 1.471989-3.187723 1.463735-3.187723 1.463735l-76.999037.03158s-2.3018768.341528-3.871084-1.223432c-1.6274181-1.62298-2.0277235-2.990585-2.0277235-2.990585z" fill="url(#c)" opacity=".460784"/><path d="m4.6029217 77.002011s11.0866903-21.528287 42.4199693-21.749814c33.369759-.235925 45.250195 23.10918 45.250195 23.10918l-.06516 7.204631s.374298 1.165944-1.681411 2.582784c-2.135679 1.471989-3.187723 1.463735-3.187723 1.463735l-76.999037.03158s-2.3018768.341528-3.871084-1.223432c-1.6274181-1.62298-2.0277235-2.990585-2.0277235-2.990585z" fill="url(#d)" opacity=".72549"/><path d="m4.426145 78.062671s11.08669-21.528287 42.419969-21.749814c33.369759-.235925 45.250195 23.10918 45.250195 23.10918l.12234 5.579631s.186798 2.790944-1.868911 4.207784c-2.135679 1.471989-3.187723 1.463735-3.187723 1.463735l-76.999037.46908s-2.2393765.404028-3.8710837-1.660932c-1.4249722-1.803332-1.7152235-3.053085-1.7152235-3.053085z" fill="url(#e)"/><g fill="#1b1b1b" fill-opacity=".451777"><path d="m82.759789 70.097662c3.04647 4.03205 3.820322 6.572724 4.012381 8.499185.522188 5.237833-.713852 7.989321-4.033238 9.773592-12.396174 6.663323-29.463741-7.702543-27.656507-15.788108 1.227368-5.491247 2.086227-6.383278 5.185594-8.64587 10.269807-5.927376 19.016922 1.238419 22.49177 6.161201z" opacity=".073529"/><path d="m84.384789 71.472662c3.04647 4.03205 3.820322 6.572724 4.012381 8.499185.522188 5.237833-.713852 7.989321-4.033238 9.773592-12.396174 6.663323-29.463741-7.702543-27.656507-15.788108 1.227368-5.491247 2.086227-6.383278 5.185594-8.64587 10.269807-5.927376 19.016922 1.238419 22.49177 6.161201z" opacity=".196078"/><path d="m85.509789 71.347662c3.04647 4.03205 3.820322 6.572724 4.012381 8.499185.522188 5.237833-.713852 7.989321-4.033238 9.773592-12.396174 6.663323-29.463741-7.702543-27.656507-15.788108 1.227368-5.491247 2.086227-6.383278 5.185594-8.64587 10.269807-5.927376 19.016922 1.238419 22.49177 6.161201z" opacity=".509804"/><path d="m12.814188 69.977642c-3.0941669 4.067548-3.8801305 6.630595-4.0751996 8.574031-.5303563 5.283961.7250182 8.059679 4.0963776 9.859689 12.590255 6.721987 29.925018-7.770386 28.089483-15.927171-1.246574-5.539594-2.11888-6.439484-5.266778-8.722008-10.430574-5.979577-19.314632 1.249313-22.843883 6.215459z" opacity=".107843"/><path d="m11.314188 70.727646c-3.0941668 4.067548-3.8801304 6.630595-4.0751995 8.574031-.5303564 5.283961.7250181 8.059679 4.0963785 9.859689 12.590254 6.721987 29.925017-7.770386 28.089482-15.927171-1.246574-5.539594-2.11888-6.439484-5.266778-8.722008-10.430574-5.979577-19.314632 1.249313-22.843883 6.215459z" opacity=".303922"/><path d="m10.314188 70.602636c-3.0941668 4.067548-3.8801304 6.630595-4.0751995 8.574031-.5303563 5.283961.7250182 8.059679 4.0963785 9.859688 12.590254 6.721988 29.925017-7.770385 28.089482-15.92717-1.246574-5.539594-2.11888-6.439484-5.266778-8.722008-10.430574-5.979577-19.314632 1.249313-22.843883 6.215459z" opacity=".544118"/><path d="m86.134789 70.722662c3.04647 4.03205 3.820322 6.572724 4.012381 8.499185.522188 5.237833-.713852 7.989321-4.033238 9.773592-12.396174 6.663323-29.463741-7.702543-27.656507-15.788108 1.227368-5.491247 2.086227-6.383278 5.185594-8.64587 10.269807-5.927376 19.016922 1.238419 22.49177 6.161201z" opacity=".769608"/><path d="m10.092254 70.491664c-3.0226182 4.014294-3.7904146 6.543781-3.9809746 8.461767-.5180945 5.21476.7082618 7.954133 4.0016726 9.730559 12.299141 6.633968 29.233104-7.668629 27.440014-15.71859-1.21776-5.467063-2.069891-6.355168-5.145004-8.607807-10.18941-5.901275-18.868057 1.232964-22.315708 6.134071z" opacity=".769608"/></g><path d="m9.7742757 69.914039c-2.9239854 3.945308-3.6667344 6.431331-3.851069 8.31636-.5011927 5.125161.6851636 7.817453 3.8710835 9.563347 11.8977888 6.519982 28.2791698-7.536858 26.5445958-15.448488-1.178022-5.373115-2.002357-6.245962-4.97712-8.459887-9.856902-5.799864-18.252349 1.211776-21.5874903 6.028668z" fill="#efefef"/><path d="m26.516504 67.185402a5.6568542 3.5355339 0 1 1 -11.313708 0 5.6568542 3.5355339 0 1 1 11.313708 0z" transform="matrix(.78207737 0 0 1.1703996 3.987672 -3.98963)"/><path d="m9.9216844 70.072039c-2.8378214 3.835338-3.5586738 6.252061-3.7375789 8.084535-.4864237 4.982298.6649619 7.599549 3.7570085 9.296771 11.54718 6.338238 27.445819-7.326761 25.76236-15.017856-1.143309-5.223347-1.943346-6.071858-4.830444-8.224066-9.566443-5.638197-17.714482 1.178002-20.9513456 5.860616z" fill="none" stroke="#2c2c2c" stroke-opacity=".192893" stroke-width="1.001881"/><path d="m85.852309 68.894694c3.366022 3.577425 4.394822 5.95984 4.798662 7.810462 1.098007 5.03163.235083 7.843779-2.724553 9.949101-11.052698 7.862295-28.96813-4.188611-28.172013-12.248261.540669-5.473637 1.257134-6.436599 3.952232-8.982134 9.110138-6.909209 18.26925-.924263 22.145672 3.470832z" fill="#f5f5f5"/><path d="m26.516504 67.185402a5.6568542 3.5355339 0 1 1 -11.313708 0 5.6568542 3.5355339 0 1 1 11.313708 0z" transform="matrix(-.77672032 .08556823 .14925623 1.1879399 82.168484 -6.68719)"/><path d="m85.388651 69.075866c3.284917 3.478919 4.289154 5.795518 4.683505 7.594948 1.072204 4.892459.230724 7.626579-2.656704 9.673092-10.783038 7.642661-28.265623-4.07752-27.490214-11.913807.526614-5.321952 1.225516-6.258117 3.85475-8.732694 8.887797-6.716294 17.825581-.895569 21.608663 3.378461z" fill="none" stroke="#2c2c2c" stroke-opacity=".192893" stroke-width="1.00751"/><path d="m10.582978 70.580218c-2.6998438 3.612128-3.3856478 5.888201-3.5558544 7.614028-.4627734 4.692337.6326309 7.157268 3.5743394 8.755715 10.985746 5.969363 26.11138-6.900356 24.509773-14.143843-1.087721-4.919356-1.848859-5.718486-4.595584-7.745438-9.101315-5.310064-16.853189 1.109444-19.932674 5.519538z" fill="none" opacity=".382353" stroke="#2c2c2c" stroke-opacity=".192893" stroke-width=".948359"/><path d="m84.745175 69.504341c3.077248 3.254993 4.017998 5.42248 4.387419 7.106086 1.004422 4.577548.216138 7.135681-2.488751 9.050467-10.101348 7.150727-26.478707-3.815063-25.752318-11.146953.493322-4.979396 1.148041-5.855304 3.611058-8.1706 8.325922-6.283988 16.698671-.837923 20.242592 3.161z" fill="none" opacity=".426471" stroke="#2c2c2c" stroke-opacity=".192893" stroke-width=".943238"/></g></svg>