<svg height="96" width="96" xmlns="http://www.w3.org/2000/svg" xmlns:xlink="http://www.w3.org/1999/xlink"><linearGradient id="a"><stop offset="0" stop-color="#3e3226"/><stop offset="1" stop-color="#3e3226" stop-opacity="0"/></linearGradient><linearGradient id="b"><stop offset="0" stop-color="#fefefe"/><stop offset="1" stop-color="#fefefe" stop-opacity="0"/></linearGradient><linearGradient id="c" gradientUnits="userSpaceOnUse" x1="36.357143" x2="36.357143" xlink:href="#b" y1="6" y2="63.893143"/><radialGradient id="d" cx="48" cy="90.171875" gradientTransform="matrix(1.1573129 0 0 .99590774 -7.551021 .197132)" gradientUnits="userSpaceOnUse" r="42" xlink:href="#b"/><linearGradient id="e" gradientUnits="userSpaceOnUse" x1="48" x2="48" y1="90" y2="5.987717"><stop offset="0" stop-color="#17100d"/><stop offset="1" stop-color="#2d201a"/></linearGradient><linearGradient id="f" gradientTransform="matrix(1.0058652 0 0 .994169 100 0)" gradientUnits="userSpaceOnUse" x1="45.447727" x2="45.447727" y1="92.539597" y2="7.01654"><stop offset="0"/><stop offset="1" stop-opacity=".588235"/></linearGradient><linearGradient id="g" gradientTransform="matrix(1.0238095 0 0 1.0119048 -1.142857 -98.071429)" gradientUnits="userSpaceOnUse" x1="32.251034" x2="32.251034" xlink:href="#f" y1="6.131708" y2="90.238609"/><linearGradient id="h" gradientTransform="translate(0 -97)" gradientUnits="userSpaceOnUse" x1="32.251034" x2="32.251034" xlink:href="#f" y1="6.131708" y2="90.238609"/><radialGradient id="i" cx="-191.96463" cy="34.262997" gradientTransform="matrix(1 0 0 .65284375 0 15.984768)" gradientUnits="userSpaceOnUse" r="27.502935"><stop offset="0" stop-color="#debfbb"/><stop offset="1" stop-color="#ce9f99"/></radialGradient><radialGradient id="j" cx="-205.79669" cy="37.515862" gradientTransform="matrix(1 0 0 1.125 0 -4.689483)" gradientUnits="userSpaceOnUse" r=".766754"><stop offset="0" stop-color="#fefefe"/><stop offset=".5" stop-color="#fefefe"/><stop offset="1" stop-color="#fefefe" stop-opacity="0"/></radialGradient><linearGradient id="k" gradientUnits="userSpaceOnUse" x1="-80.438545" x2="-80.438545" y1="131.13188" y2="82.934624"><stop offset="0" stop-color="#241916"/><stop offset="1" stop-color="#241916" stop-opacity="0"/></linearGradient><linearGradient id="l" gradientUnits="userSpaceOnUse" x1="-85.273392" x2="-85.273392" y1="128.46985" y2="80.996246"><stop offset="0" stop-color="#2f1e19"/><stop offset="1" stop-color="#2f1e19" stop-opacity="0"/></linearGradient><linearGradient id="m" gradientUnits="userSpaceOnUse" x1="-80.87912" x2="-80.87912" y1="122.88642" y2="64.771133"><stop offset="0" stop-color="#392620"/><stop offset="1" stop-color="#392620" stop-opacity="0"/></linearGradient><clipPath id="n"><rect height="92.917107" rx="6.636936" width="92.917107" x="-130.59358" y="46.028248"/></clipPath><linearGradient id="o" gradientTransform="matrix(-1 0 0 1 96 0)" gradientUnits="userSpaceOnUse" x1="70.123566" x2="74.665245" xlink:href="#a" y1="29.818377" y2="28"/><linearGradient id="p" gradientUnits="userSpaceOnUse" x1="70.123566" x2="74.665245" xlink:href="#a" y1="29.818377" y2="28"/><g fill="url(#g)"><path d="m12-95.03125c-5.5110903 0-10.03125 4.52016-10.03125 10.03125v71c0 5.5110902 4.5201598 10.03125 10.03125 10.03125h72c5.51109 0 10.03125-4.5201597 10.03125-10.03125v-71c0-5.51109-4.52016-10.03125-10.03125-10.03125z" opacity=".08" transform="scale(1 -1)"/><path d="m12-94.03125c-4.971633 0-9.03125 4.059617-9.03125 9.03125v71c0 4.9716329 4.0596171 9.03125 9.03125 9.03125h72c4.971633 0 9.03125-4.059617 9.03125-9.03125v-71c0-4.971633-4.059617-9.03125-9.03125-9.03125z" opacity=".1" transform="scale(1 -1)"/><path d="m12-93c-4.4091333 0-8 3.590867-8 8v71c0 4.4091333 3.5908667 8 8 8h72c4.409133 0 8-3.5908667 8-8v-71c0-4.409133-3.590867-8-8-8z" opacity=".2" transform="scale(1 -1)"/><rect height="85" opacity=".3" rx="7" transform="scale(1 -1)" width="86" x="5" y="-92"/></g><rect fill="url(#h)" height="84" opacity=".45" rx="6" transform="scale(1 -1)" width="84" x="6" y="-91"/><rect fill="url(#e)" height="84" rx="6" width="84" x="6" y="6"/><g opacity=".8"><path d="m48 6v50l40 8-19.34375-58z" fill="url(#p)"/><path d="m27.34375 6-19.34375 58 40-8v-50z" fill="url(#o)"/></g><path d="m12 6c-3.324 0-6 2.676-6 6v2 68 2c0 .334721.04135.6507.09375.96875.0487.295596.09704.596915.1875.875.00988.03038.020892.0636.03125.09375.098865.287771.2348802.547452.375.8125.1445918.273507.3156161.535615.5.78125s.3737765.473472.59375.6875c.439947.428056.94291.814526 1.5 1.09375.278545.139612.5734731.246947.875.34375-.2562018-.100222-.4867109-.236272-.71875-.375-.00741-.0044-.023866.0045-.03125 0-.031933-.0193-.062293-.04251-.09375-.0625-.120395-.0767-.2310226-.163513-.34375-.25-.1061728-.0808-.2132809-.161112-.3125-.25-.1779299-.161433-.3474596-.345388-.5-.53125-.1075789-.130255-.2183939-.265285-.3125-.40625-.025089-.03838-.038446-.08587-.0625-.125-.064763-.103032-.1302275-.204517-.1875-.3125-.1010083-.194706-.2056748-.415701-.28125-.625-.00796-.02181-.023589-.04055-.03125-.0625-.0318251-.09195-.0358045-.186831-.0625-.28125-.0303323-.106618-.0703894-.203031-.09375-.3125-.0728786-.341512-.125-.698205-.125-1.0625v-2-68-2c0-2.781848 2.2181517-5 5-5h2 68 2c2.781848 0 5 2.218152 5 5v2 68 2c0 .364295-.05212.720988-.125 1.0625-.04415.206893-.08838.397658-.15625.59375-.0077.02195-.0233.04069-.03125.0625-.06274.173739-.138383.367449-.21875.53125-.04158.0828-.07904.169954-.125.25-.0546.09721-.126774.18835-.1875.28125-.09411.140965-.204921.275995-.3125.40625-.143174.17445-.303141.346998-.46875.5-.01117.0102-.01998.02115-.03125.03125-.138386.125556-.285091.234436-.4375.34375-.102571.07315-.204318.153364-.3125.21875-.0074.0045-.02384-.0044-.03125 0-.232039.138728-.462548.274778-.71875.375.301527-.0968.596455-.204138.875-.34375.55709-.279224 1.060053-.665694 1.5-1.09375.219973-.214028.409366-.441865.59375-.6875s.355408-.507743.5-.78125c.14012-.265048.276135-.524729.375-.8125.01041-.03078.02133-.06274.03125-.09375.09046-.278085.1388-.579404.1875-.875.0524-.31805.09375-.634029.09375-.96875v-2-68-2c0-3.324-2.676-6-6-6z" fill="url(#c)" opacity=".2"/><path d="m12 90c-3.324 0-6-2.676-6-6v-2-68-2c0-.334721.04135-.6507.09375-.96875.0487-.295596.09704-.596915.1875-.875.00988-.03038.020892-.0636.03125-.09375.098865-.287771.2348802-.547452.375-.8125.1445918-.273507.3156161-.535615.5-.78125s.3737765-.473472.59375-.6875c.439947-.428056.94291-.814526 1.5-1.09375.278545-.139612.5734731-.246947.875-.34375-.2562018.100222-.4867109.236272-.71875.375-.00741.0044-.023866-.0045-.03125 0-.031933.0193-.062293.04251-.09375.0625-.120395.0767-.2310226.163513-.34375.25-.1061728.0808-.2132809.161112-.3125.25-.1779299.161433-.3474596.345388-.5.53125-.1075789.130255-.2183939.265285-.3125.40625-.025089.03838-.038446.08587-.0625.125-.064763.103032-.1302275.204517-.1875.3125-.1010083.194706-.2056748.415701-.28125.625-.00796.02181-.023589.04055-.03125.0625-.0318251.09195-.0358045.186831-.0625.28125-.0303323.106618-.0703894.203031-.09375.3125-.0728786.341512-.125.698205-.125 1.0625v2 68 2c0 2.781848 2.2181517 5 5 5h2 68 2c2.781848 0 5-2.218152 5-5v-2-68-2c0-.364295-.05212-.720988-.125-1.0625-.04415-.206893-.08838-.397658-.15625-.59375-.0077-.02195-.0233-.04069-.03125-.0625-.06274-.173739-.138383-.367449-.21875-.53125-.04158-.0828-.07904-.169954-.125-.25-.0546-.09721-.126774-.18835-.1875-.28125-.09411-.140965-.204921-.275995-.3125-.40625-.143174-.17445-.303141-.346998-.46875-.5-.01117-.0102-.01998-.02115-.03125-.03125-.138386-.125556-.285091-.234436-.4375-.34375-.102571-.07315-.204318-.153364-.3125-.21875-.0074-.0045-.02384.0044-.03125 0-.232039-.138728-.462548-.274778-.71875-.375.301527.0968.596455.204138.875.34375.55709.279224 1.060053.665694 1.5 1.09375.219973.214028.409366.441865.59375.6875s.355408.507743.5.78125c.14012.265048.276135.524729.375.8125.01041.03078.02133.06274.03125.09375.09046.278085.1388.579404.1875.875.0524.31805.09375.634029.09375.96875v2 68 2c0 3.324-2.676 6-6 6z" fill="url(#d)" opacity=".1"/><g clip-path="url(#n)" transform="matrix(.90403162 0 0 .90403162 124.06073 -35.610992)"><path d="m-106.82419 89.471305c-3.03594.01466-6.42759 2.217602-9.24233 2.686725-1.2253.204217-3.06467-.348376-4.19129.214938-2.266 1.133-6.61994 3.232111-9.13487 3.546477-2.25155.281444-7.84116.855677-9.3498 2.364318-.29531.295306.85975.730567.85975.859752 0 .191244-3.55851-.41784-3.97635 0-.25317.253164-.26003.981115-.53735 1.397095-.46643.69966-1.31163.78529-1.7195 1.3971-.18032.27047-.25744.68731-.42988.85975-.46081.46082 1.29726 1.49694 1.07469 1.71951-.0315.0315-2.84633-.56501-3.76141-.10747-1.16399.58199-.19675 2.88346-.32241 3.00913-.36181.36181-.416 1.01401-.96722 1.28963-1.5532.7766-5.82533 2.55725-3.22407 5.15851.44902.44902 2.60684-.0247 2.90166.85975.15919.47758.72514 1.23644.42988 1.82697-.0521.10424-.49888.55658-.10747.75229.54757.27378 4.08161-.32462 4.72864.3224.84305.84305 4.66352 4.848 6.01954 4.396.68829-.22943 1.94006-1.00117 3.00913-.64482.54342.18115.98787.77293 1.28963 1.07469.38051.38052 2.30479.42988 2.79419.42988 1.92454 0 3.24684-2.06309 5.48092-1.50457 2.10612.52653 4.65417.27113 6.66308 1.07469.82494.32998 2.11622.4436 2.90166.96723.61042.40694 1.25434.8421 1.93444 1.18215 1.61445.80723 3.83799.9595 5.58839 1.3971 1.78948.44737.87417 2.15659 1.71951 2.57926 1.53466.76733 2.5369-.15035 3.439 0 1.01055.16842 7.54255-.62409 7.951432-.41964 1.551174.77558 1.427605 3.29305 2.364318 3.76141 2.72019 1.36009 5.92067.92621 8.812458 1.50457.499773.0999 1.130966-.16036 1.612035 0 .270574.0902.915793.40185 1.289628.21493.838045-.41902 1.592569-.92575 2.364318-1.50456.41752-.31314.508094-.9526.967221-1.18216.710141-.35507 1.977332-.3653 2.579257-.96722.312632-.31263.902639-.87405 1.504566-1.07469 1.570832-.52361 1.167086 1.01342 1.934442 1.3971.736907.36845 3.573631-.65161 4.406229-.85976.525029-.13125 3.777589-.63672 4.406229-.3224.403592.20179.865992.79018 1.397097.96722 1.821484.60716 4.672749-.45567 6.125733-1.18216 1.157084-.57854 3.956202.34256 4.836105-.53735.366287-.36628.02967-1.42676.322407-1.7195.145943-.14594 4.692966.8418 5.910795.53735.696611-.17416.921968-.75794 1.397097-1.07469.633687-.42246 1.762203-.49393 2.14938-1.0747.451642-.67746-.182766-1.96661.322407-2.47178.0546-.0546.475698.0154.537345 0 1.344304-.33608 1.769306.26474 2.471787.96722.387754.38775 3.447864-.0582 3.976353-.32241 1.118511-.55925-1.678929-3.19775-1.182159-4.19129.212954-.42591.590036-.67011.859752-1.07469.488159-.73224.461096-1.12092 1.289628-1.3971 1.018744-.33958 1.739702-1.00977 2.901663-1.39709.613312-.20444 1.490163.22934 1.934442-.21494.836125-.83613-1.891312-3.20286-1.289628-4.40623.342251-.6845 1.345559-.91568 1.719504-1.28963.187982-.18798-1.293714-2.79011-.429876-3.65394.592205-.59221 2.489423-1.57677 1.612035-3.33154-.581697-1.1634-3.913061-.73317-4.191291-1.28963-.222732-.44547-.493907-.60138-.859752-.96722-.38787-.387873-.514942-1.352295-.752283-1.826976-.293762-.587524-2.288835-.875745-2.901663-1.182159-.687781-.343891-1.261133-.952974-1.934442-1.289628-1.24256-.62128-2.831365 1.109839-4.191291.429876-1.260668-.630334-3.638518-.736855-4.621167-1.719504-.388698-.388698-2.876111-.04735-3.546477-.214938-1.242828-.310707-2.290022-.760576-3.546477-1.07469-1.937576-.484394-5.838848-.115463-7.845237.107469-1.052692.116966-1.89542-.245004-2.901663-.322407-3.963585-.304891-7.986759-.02313-11.929059-.537345-1.508068-.196704-3.007349.01304-4.513699-.107469-3.593935-.287515-7.063262-1.08384-10.639431-1.504566-3.696156-.434842-7.548858-.456575-11.176778-1.182159-1.7312-.34624-3.47672.271877-5.37345-.107469z" fill="url(#k)"/><path d="m-97.78125 94.78125c-1.594255.02359-3.20126.28125-4.75.28125-2.4715 0-4.83455-.275328-7.3125 0-.48936.05437-1.12736-.155462-1.59375 0-1.4441.481369-2.52927.707675-3.96875 1.1875-.43304.144347-.92997.652489-1.3125.84375-1.29593.648014-3.10234.306834-4.5.65625-1.46496.366239-2.35425.849-3.65625 1.5-.88729.443643-2.26387-.258693-3.21875.21875-.38017.190086-1.02166 1.0625-1.5 1.0625-.85128 0-3.50238 2.31011-4.40625 1.40625-.31094-.31095-.0417-1.36458-.5625-1.625-1.43259-.716291-5.70854.89604-6.53125 1.71875-.43901.43901.32655 2.2953.40625 2.375.33975.33975 1.23359.71718 1.40625 1.0625.61073 1.22144-1.53329 1.00205-1.9375 1.40625-.58721.58721-1.3174 1.4424-2.03125 2.15625-.75301.75301-5.6354-.42705-4.1875 2.46875.20404.40808.0443 1.05729.21875 1.40625.70444 1.40889 3.58321 1.67017 5.03125 1.1875.51097-.17033.63121-.64373 1.09375-.875.19987-.0999 1.95551.60275 2.25.75.46215.23107 2.48551.54573 1.9375 1.09375-1.70108 1.70108-.69694 3.80307.53125 5.03125.076.076.63063 0 .75 0 1.72002 0 6.21675.0736 7.75-.4375 1.17333-.39111-.13024-1.8125 1.8125-1.8125 1.25186 0 2.0334.2667 3 .75.42285.21143 1.17464-.0564 1.625.0937 1.38881.46294 5.48539.6177 6.4375 1.09375.37452.18727.60858.48358.875.75.82608.82608 3.53459 1.625 4.71875 1.625 1.5506 0 5.60388 2.77069 7.3125 3.625.57719.28859 5.386382.0675 6.03125-.0937 1.160981-.29025 2.358548.26128 3.53125.0937 3.474457-.49635 8.52402-.69712 11.8125.125 1.628806.4072 4.369299-.51278 5.71875-1.1875.812339-.40617 4.892151-.14113 6.4375-.65625 1.154792-.38493 4.221954-1.44451 5.375-1.15625 1.976916.49423 3.846559.32882 5.90625.84375 1.149107.28727 2.828533-.39824 3.875.125.422131.21106 1.152107 1.59168 2.46875 2.25.203638.10182 6.451133-.55369 6.65625-.65625 2.023658-1.01183 1.832155-3.10534.4375-4.5-.16098-.16098.175315-.6814.3125-.75.603803-.3019 1.647838-.0361 2.25-.4375 1.228112-.81874 2.239389-1.27064 3.125-2.15625 1.239491-1.23949-.13483-2.11517.21875-2.46875.391946-.39195 2.376654-.0629 3-.21875.523731-.13093 1.928916.0398 2.28125-.3125.772056-.77205 1.773793-.93004 2.34375-1.5 1.766803-1.7668-2.553507-3.04024-1.71875-3.875.621655-.62165 1.686533-1.50194 1.09375-2.6875-.180458-.36093.114397-.76061-.21875-1.09375-1.72902-1.72902-3.75514 1.43579-5.71875.78125-.132161-.044-.65174.0983-.75 0-.117294-.1173-.172265-.51601-.3125-.65625-.142157-.14215-.704984-.15997-.84375-.4375-.462101-.9242 1.124572-1.96917.3125-2.78125-.165725-.16572-.524449-.3057-.75-.53125-.447925-.44793-.413671-1.16368-.96875-1.71875-.310675-.31068-1.458-.0517-1.84375-.4375-.317431-.317431-.462672-.465711-.84375-.65625-.799373-.399686-.466458-1.842604-1.09375-2.15625-.542654-.271327-4.028144-.253106-4.5.21875-.101391.101391-.419157.537704-.65625.65625-.711304.355652-2.711015-.427466-3.4375-.53125-.491489-.07021-1.007806.06527-1.5 0-1.986722-.993361-4.772402.170769-6.65625.40625-2.00557.250696-5.640897.845285-7.53125.65625-2.914201-.29142-5.902055-.255597-8.8125-.4375-3.186248-.19914-6.274238-1.048105-9.4375-1.5-2.051561-.29308-4.183224-.439984-6.25-.75-1.150285-.172543-2.291795-.606787-3.4375-.75-.524303-.06554-1.062332-.07036-1.59375-.0625zm34.65625 30.6875c-1.092572.0152-1.899285.19446-.59375 1.5.101913.10191.68079 0 .84375 0 .637714 0 2.799464.45053 3.125.125.857931-.85793.437917-1.0435-.53125-1.625h-1.71875c-.3573 0-.760809-.005-1.125 0zm-25.96875 1.71875c-.536623 1.07325.986843 2.32155 1.71875 2.6875.67152.33576 5.911061.22356 4.625-1.0625-.413282-.41328.277215-.50162-.65625-.875-1.015773-.0464-1.519266-.53125-2.5625-.53125-.258659 0-3.124289-.22017-3.125-.21875z" fill="url(#l)"/><path d="m-90.71875 95.875c-3.342815-.02268-6.667524.232377-9.96875.5625-1.75704.175704-3.5444.02302-5.28125.3125-2.17618.362698-6.72812 1.364061-8.5 2.25-.22593.112969-1.00011-.03113-1.15625.125-.54338.543384-2.19669.628065-3.125.9375-.96669.32223-2.06756.12669-3 .4375-1.94424.64808-4.46778.79639-6.125 1.625-.65092.32546-1.617.10537-2.28125.4375-.82075.41038-1.33103.80614-2.03125 1.15625-.42771.21385-.95867.20162-1.5.5625-1.03569.69046-.3569 3.01312-.4375 3.09375-.96605.96604-3.86269-.61837-4.5.65625-1.86456 3.72911 3.19794 1.69795 3.4375 1.9375.14461.14462.184.6215.3125.75 1.07617 1.07669 2.84952.67332 4.40625 1.0625 4.03216 1.00804 7.93039 2.91832 11.59375 4.75 1.21643.60822 3.88528.401 5.28125.75 4.60995 1.15248 8.76092 2.84921 12.6875 4.8125 1.030605.51531 4.014823.0263 5.03125-.3125 2.004318-.66811 6.545288-.10344 8.625.3125 1.383163.27663 2.491402.42422 3.84375.875 1.231198.4104 4.370925-.56929 5.59375-.875 1.340585-.33517 2.843788-.13751 4.1875-.40625.701926-.14039 1.951451.32115 2.59375 0 1.618679-.80934 4.168811-.27191 6-1.1875.716509-.35828 1.831479-.0564 2.59375-.4375 1.033326-.51666 3.173084.69592 3.96875 1.09375.491073.24554 2.424302.0691 2.8125-.125.691504-.34575 1.208168-.58316 1.8125-1.1875.490693-.49069 1.913955-.4101 2.59375-.75.301279-.15064 1.248927-.00054 1.5.125.315283.15764.849686-.11261 1.1875 0 1.751885.58396 4.61786-.24286 5.78125-1.40625.05363-.0536 0-.44705 0-.53125 0-.90937-.454518-1.75568-1.375-2.0625-.112724-.0376-1.24572-.16053-.875-.53125.190499-.1905.664822-.32108.875-.53125.719492-.7195 2.940131-.78257 3.75-1.1875.953247-.47663 2.290925-1.33054 3.34375-1.59375.419075-.10477 1.283015-.34552 1.59375-.65625.218858-.21886-.09375-1.19819-.09375-1.40625 0-.92171-2.422961-1.45421-2.90625-1.9375-.288174-.28817-1.107521-.71438-1.625-.84375-1.07018-.26754-6.107591-.73259-6.65625-1.28125-.892076-.89208.909432-2.16261 1.28125-2.90625.01971-.0394.05416-2.664593-.09375-2.8125-.506902-.506902-5.609641-1.5-6.65625-1.5-1.040307-.04625-2.119276.05125-3.125-.21875-2.051112.326087-4.550614-.06637-6.25-.40625-1.36148-.272296-2.853005.427374-4.1875.09375-1.28245-.320607-2.76671.01145-4.0625-.3125-2.593915-.648479-5.295434-.482668-7.96875-.75-2.048709-.204871-4.16817.141419-6.21875 0-1.117066-.07704-2.226353-.36541-3.34375-.4375-1.113721-.07185-2.229478-.117441-3.34375-.125zm53.09375 4.34375c-3.832643.1296 3.063903 1.83834 0 0zm-99.375 1.65625c-.14805-.007-.2878.0126-.4375.0625-.2777.0926-.41148.38023-.5625.53125-1.56525 1.56525.43822 2.48934 1.71875 2.0625.61294-.20431 1.95365-1.85302.4375-2.15625-.299-.22597-.7121-.47778-1.15625-.5zm101.96875 3.71875c-1.45314 0-1.675745 1.13675-.875 1.9375.08143.0814.609377.0937.75.0937.284594 0 1.104526.11418 1.3125-.0937.04885-.0489.57505-1.56122.3125-1.71875-.165421-.0992-.352135-.1471-.53125-.21875zm-107.90625 4.9375c-.59503.0238-1.4202.0139-1.71875.3125-.45685.45686-1.35719.41969-1.71875.78125-.46477.46477.87867 1.06617.96875 1.15625 1.27948 1.27948 5.99287.0994 2.46875-2.25zm11.875 4.5c-1.03129-.0806-2.79547 1.23578-2.09375 1.9375.33601.33601 2.30235 1.75507 3 1.40625 1.5109-.75545.88817-2.65099-.53125-3.21875-.10857-.0752-.22767-.11348-.375-.125zm90.4375.4375c-5.800391 1.12297 3.532422 2.82594 0 0zm-5.59375 5.90625c-.736452.22547-1.612834-.0249-2.34375.21875-.377086.12569-.750444.22931-1.09375.34375-.822561.27419-1.653179 1.47029-.53125 2.03125 2.172986 1.08649 6.444674-1.1082 3.96875-2.59375z" fill="url(#m)"/></g><g transform="matrix(.90403162 0 0 .90403162 124.06073 9.59059)"><path d="m-91.691638 62.997108s-2.317232 2.664964-.990849 4.420711c1.752077 2.319242 8.460326 1.905478 8.460326 1.905478.115013 2.798651 5.267751 3.532425 9.756051 3.506081 4.053649-.02379 12.280864-1.671361 10.670681-8.993859z" fill="#465153"/><path d="m-52.36256 59.795902a33.955631 8.8414211 0 1 1 -67.91126 0 33.955631 8.8414211 0 1 1 67.91126 0z" opacity=".3" transform="matrix(.99966855 .02574455 -.03240262 1.2582035 1.985153 -13.750825)"/><g transform="translate(120)"><path d="m-219.00868 36.853939s-3.88718-.762191-8.00301.07622c-12.49994 4.649368-6.32619 13.109691-6.32619 13.109691-3.04877 7.24082 2.59145 9.75606 2.59145 9.75606s-.63864 4.1587 3.04877 5.71643c2.03626.86021 6.63107-.0762 6.63107-.0762 5.10668 4.03962 8.30788-.68597 8.30788-.68597 1.29573.0762 2.59146-.91463 2.59146-.91463 4.26827 4.42071 9.39338 5.50314 14.48163 5.03046 7.08194-.65788 15.08282-4.3684 18.52126-10.59446 3.79864-6.87829 3.40617-17.039665-.99085-23.551717-4.20088-6.221565-11.36424-9.077857-18.06394-8.841421-6.22318.219619-11.81397 1.524383-16.15846 9.374955-2.89633-.609753-5.71644-.609753-6.63107 1.600602z"/><path d="m-195.90625 28.09375c-2.96754.0788-5.90205.549114-8.15625 1.65625s-3.86885 2.795693-5.96875 7.1875c-.69008.920104-1.60417-.789342-3.90625-.6875-1.9019.08414-4.40786 1.202638-4.90625 3.65625-.57506 4.14047.50999 7.593424.625 10.46875.0522 1.304691-.0404 2.137473 2.5 2.09375 1.85519-.03193 4.59246.664954 4.9375-2.59375.3067-7.399173-.49645-9.405603-2.375-11.4375 0 0 1.50129-.07325 1.90625 1.21875 1.69165-.809866 2.25636 4.860757 2.21875 6.5-.0467 2.036703-.1126 4.902785.75 6.0625-.69008.115013-1.125-.5-1.125-.5-.15893.93621-1.29585 1.702224-.96875 1.875 2.49195 1.316257 2.53383 4.525557 1.84375 8.21875 3.72902 3.862203 8.34224 5.114382 12.9375 4.6875 6.40776-.595257 13.26509-4.227738 16.125-9.40625 3.26995-5.920975 3.70699-15.229206-.0312-20.84375-3.36891-5.059837-11.37712-8.289789-16.40625-8.15625zm-24.875 11.28125-5 .125c-.72842.115013-2.59537 1.123971-3.8125 2.21875-1.16757 1.050197-2.51869 1.972596-2.6875 3.875-.0633.713404.40625 2.125.40625 2.125s.33039-1.516437.875-2.125c.4047-.452225 3.70398-1.261671 5.125-1.4375 1.11383-.13782 4.78125-.03125 4.78125-.03125l-.15625-3.53125c.0383-.306701.46875-1.21875.46875-1.21875zm-3.4375 5.6875c-1.01435.05406-2.04961.219384-2.78125.5625-2.51805 1.180889-2.4245 3.053384-2.5 4.875-.071 1.711949.25541 4.73456 1.96875 4.75 2.09079.01884 5.75-.375 5.75-.375s-.36147-1.744523 1.59375-2.28125c0 0-.18203-6.594071-.71875-7.4375 0 0-1.62192-.183854-3.3125-.09375zm-7.53125 7.6875c-.69008 3.488729 1.65625 4.71875 1.65625 4.71875l.40625-.65625s-1.90915-.688784-2.0625-4.0625zm12.8125 1.15625s-.88691.12001-.90625.65625c-.12316 3.415214-.71875 8.34375-.71875 8.34375.38338 1.035117 1.89945 2.375 3.25 2.375 1.72409 0 3.625-1.5625 3.625-1.5625s.7351-2.958756.65625-4.40625c-.0944-1.733572.11598-3.804444-1.1875-5.03125-4.44717.536728-4.71875-.375-4.71875-.375zm7.125 1.46875.1875 6.34375s1.19322-.636178 1.21875-3.625c.0255-2.988822-1.40625-2.71875-1.40625-2.71875zm-10.125 1.53125s-3.92308.101677-5.21875.53125c-.51481.622905-1.41575 2.204742-1.1875 3.375.32096 1.645582 1.52532 2.416862 2.6875 2.625 1.06922.191491 3.375.0625 3.375.0625-.19169-2.338599.34375-3.795099.34375-6.59375z" fill="#bb7975"/><path d="m-195.90625 28.09375c-2.96754.0788-5.90205.549114-8.15625 1.65625s-3.86885 2.795693-5.96875 7.1875c-.69008.920104-1.60417-.789342-3.90625-.6875-1.9019.08414-4.40786 1.202638-4.90625 3.65625-.25067 1.804827-.19361 3.478588-.0312 5.03125.42258 1.643903 1.41082 4.111752 3.53125 4.8125 2.14316.708262 3.80824-.181369 4.59375-.75.20171-6.643035-.6089-8.618425-2.40625-10.5625 0 0 1.50129-.07325 1.90625 1.21875 1.69165-.809866 2.25636 4.860757 2.21875 6.5-.0467 2.036703-.1126 4.902785.75 6.0625-.0216.0036-.0414-.0022-.0625 0 .0507 1.98995 1.15625 1.46875 1.15625 1.46875l.59375 4.65625c-.34504.881767.30461 1.269791.78125 1.21875 4.38324-.469374 8-4.5 8-4.5.34504.843429 1.125.84375 1.125.84375l.84375 4.5625c.42172.306701 1.03079.123205 1.21875-.59375.36519-1.393004-.3125-3.96875-.3125-3.96875s8.16311 1.328868 12-1.78125c5.55094-4.499504 5.625-12.15625 5.625-12.15625l.0312-.09375c-.41504-2.071492-1.13711-4.000455-2.21875-5.625-3.36891-5.059837-11.37712-8.289789-16.40625-8.15625zm-24.875 11.28125-5 .125c-.72842.115013-2.59537 1.123971-3.8125 2.21875-1.16757 1.050197-2.51869 1.972596-2.6875 3.875-.0633.713404.40625 2.125.40625 2.125s.33039-1.516437.875-2.125c.4047-.452225 3.70398-1.261671 5.125-1.4375 1.11383-.13782 4.78125-.03125 4.78125-.03125l-.15625-3.53125c.0383-.306701.46875-1.21875.46875-1.21875zm-2.21875 5.65625c-.38979-.0046-.7961.0087-1.21875.03125-1.01435.05406-2.04961.219384-2.78125.5625-2.51805 1.180889-2.4245 3.053384-2.5 4.875-.008.184813-.003.38382 0 .59375 3.7693 1.423248 7.64596.350008 9.21875-.21875-.0769-1.900575-.22374-5.088197-.625-5.71875 0 0-.92437-.111304-2.09375-.125zm3.1875 9.34375c-.0261.0546-.0288.12047-.0312.1875-.0755 2.092692-.28424 4.346731-.46875 6.09375 2.45925 2.562651 6.00367 1.309331 7.15625.28125.0832-.594986.14902-1.184112.125-1.625-.0584-1.073064.006-2.261143-.25-3.3125-3.01655.743587-5.20791.775775-6.53125-1.625zm-2.125 2.53125s-3.92308.101677-5.21875.53125c-.51481.622905-1.41575 2.204742-1.1875 3.375.004.0019-.004.02931 0 .03125 1.6391.853603 4.32427.902978 6.0625.5.1031-1.320837.34375-2.585806.34375-4.4375zm29.8125 2.0625c-2.3681.298597-4.5 5.03125-4.5 5.03125l5.34375-3.375s.10581-1.775981-.84375-1.65625z" fill="url(#i)"/><path d="m-199.78125 30.8125c-1.18349 0-2.16607.87821-2.5 2.0625-.71088.623274-3.24407 1.167446-4.21875 2.9375-.36328.247805-.59375.687796-.59375 1.1875 0 .773352.56796 1.40625 1.28125 1.40625s1.3125-.632898 1.3125-1.40625c0-.277094-.0907-.501355-.21875-.71875.41292-1.404376 1.85087-1.807734 2.625-1.15625.44662.906906 1.31109 1.53125 2.3125 1.53125.0541 0 .10299-.02771.15625-.03125-.0562.655714-.0796 2.145249.6875 3.375.71751 1.150309 1.81308 2.193178 2.03125 3.53125.18134 1.112226-1.12207 2.473389-.40625 3.34375.42602.517996 1.35385.509938 1.75-.03125.46051-.629119-.26697-1.696617-.375-2.46875-.30277-2.164095.58194-2.886579-.125-6.3125l-1.53125-2.6875c.28438-.464329.46875-1.022461.46875-1.625 0-1.60677-1.19965-2.9375-2.65625-2.9375z" fill="#9bd8d2"/><path d="m-197.75 55.96875c-.26918-.01576-.5778.196114-.9375.875-.31972.603437-.57621 1.395815-.78125 2.25-.31867-.406933-.76524-.65625-1.28125-.65625-.96106 0-1.75.872543-1.75 1.96875s.78894 2 1.75 2c.28031 0 .54672-.08445.78125-.21875-.2224 1.93652-.2632 3.404511-.28125 4.09375.59158.108301 1.18173.20849 1.78125.25.0316-.82696.1412-3.191364.59375-3.15625.61276.04755.57839 2.232848.53125 3.21875.29149.00099.58296-.01795.875-.03125.005-.392117.026-1.65107.0625-2.46875.0462-1.034723 1.61741-1.592982.125-3.0625-1.03516-1.019285-.19176-3.879262-.625-4.3125-.068-.06797-.39512-.723737-.84375-.75z" fill="#61a7ad"/><path d="m-195.6875 29.65625c-.60649.0014-1.09317.590384-.75 1.3125 1.00988 2.125082 5.4375 4.875 5.4375 4.875s-2.4013-2.33866-2.3125-4.09375c.0246-.48569-.8043-1.145797-1.75-1.875-.19749-.152276-.42284-.219208-.625-.21875zm-1.6875 2.125c-.59803.05487-1.15015.531663-1.0625 1.46875.14128 1.510407.33119 2.659791.90625 4.5-.65174 1.265144 1.40625 2.09375 1.40625 2.09375s.30587-4.723611.0625-7.0625c-.0725-.69652-.71447-1.054872-1.3125-1zm-9.0625 8.96875c-1.59823-.01008-2.10889.544181-1.9375 1.875.31997 2.484503.57785 5.003249.78125 7.5.18919 2.32237.44484 5.046676.40625 6.96875-.0298 1.484912.29471 1.625227 1.09375 1.4375 1.47893-.347462 3.30753-1.273096 3.9375-1.625 1.90499-1.064137 3.21875-1.900506 4.1875-4.40625-.18272-2.657622-.17383-5.27854-.28125-6.46875-.99166-1.332669-1.70396-1.821557-2.75-3.21875-1.80932-2.416707-2.82581-1.868112-4.6875-2.03125-.27422-.02403-.52168-.02981-.75-.03125zm9.5 14.90625c-.63797-.09518-.64116 2.324368-.59375 3.46875.0615 1.484142-.41686 3.058023.46875 3.1875.50748.07419 1.37701-.755641 1.375-1.40625-.0102-3.305246-.37152-5.118946-1.25-5.25zm5.78125 4.875s-.89835.01096-1.3125.1875c-1.60307.683172-3.61569 2.460198-4.21875 3.28125-.78796 1.072789.65542 1.660321 1.9375 1.125.93638-.390977 1.21762-1.834194 1.8125-2.65625.49407-.682736 1.78125-1.9375 1.78125-1.9375z"/><path d="m-206.85324 42.333798c1.41387-.516607 1.4077.636358 1.4077.636358.59818.163139.78408.964347.86333 1.550593.47443 3.509926.37525 11.428606.37525 11.428606s-.32627.435037-1.22354.679746c-.46223-7.857866-1.31398-9.4827-1.42274-14.295303z" fill="#ccc"/><path d="m-206.375 42.21875c-.13514.01792-.29202.06042-.46875.125.0696 3.079855.43114 4.968359.8125 7.90625.1787.02282.34744.03125.53125.03125.43136 0 .85057-.03499 1.25-.15625-.0487-2.048742-.15162-4.17235-.34375-5.59375-.0792-.586246-.24557-1.399361-.84375-1.5625 0 0 .008-.875402-.9375-.75z" fill="#f9f9f9"/><g fill="url(#j)"><path d="m-205.02994 37.515862a.76675367.86259788 0 1 1 -1.53351 0 .76675367.86259788 0 1 1 1.53351 0z" opacity=".8" transform="matrix(1.1760475 0 0 1.0558881 36.133572 -2.47272)"/><path d="m-205.02994 37.515862a.76675367.86259788 0 1 1 -1.53351 0 .76675367.86259788 0 1 1 1.53351 0z" opacity=".8" transform="matrix(2.2695025 0 0 2.0376224 266.80322 -43.486949)"/><path d="m-205.02994 37.515862a.76675367.86259788 0 1 1 -1.53351 0 .76675367.86259788 0 1 1 1.53351 0z" opacity=".8" transform="matrix(1.4319254 0 0 1.2856224 93.628238 11.915216)"/></g></g></g></svg>