<svg height="96" width="96" xmlns="http://www.w3.org/2000/svg" xmlns:xlink="http://www.w3.org/1999/xlink"><linearGradient id="a"><stop offset="0" stop-color="#fefefe"/><stop offset="1" stop-color="#fefefe" stop-opacity="0"/></linearGradient><linearGradient id="b" gradientUnits="userSpaceOnUse" x1="36.357143" x2="36.357143" xlink:href="#a" y1="6" y2="63.893143"/><filter id="c" color-interpolation-filters="sRGB" height="1.384" width="1.384" x="-.192" y="-.192"><feGaussianBlur stdDeviation="5.28"/></filter><radialGradient id="d" cx="48" cy="90.171875" gradientTransform="matrix(1.1573129 0 0 .99590774 -7.551021 .197132)" gradientUnits="userSpaceOnUse" r="42"><stop offset="0" stop-color="#8e2710"/><stop offset="1" stop-color="#dd7b32"/></radialGradient><clipPath id="e"><rect height="84" rx="6" width="84" x="6" y="6"/></clipPath><linearGradient id="f" gradientUnits="userSpaceOnUse" x1="48" x2="48" y1="90" y2="5.987717"><stop offset="0" stop-color="#d64819"/><stop offset="1" stop-color="#ed6a11"/></linearGradient><linearGradient id="g" gradientTransform="matrix(1.0058652 0 0 .994169 100 0)" gradientUnits="userSpaceOnUse" x1="45.447727" x2="45.447727" y1="92.539597" y2="7.01654"><stop offset="0"/><stop offset="1" stop-opacity=".588235"/></linearGradient><linearGradient id="h" gradientTransform="matrix(1.0238095 0 0 1.0119048 -1.142857 -98.071429)" gradientUnits="userSpaceOnUse" x1="32.251034" x2="32.251034" xlink:href="#g" y1="6.131708" y2="90.238609"/><linearGradient id="i" gradientTransform="translate(0 -97)" gradientUnits="userSpaceOnUse" x1="32.251034" x2="32.251034" xlink:href="#g" y1="6.131708" y2="90.238609"/><linearGradient id="j" gradientUnits="userSpaceOnUse" x1="48" x2="48" xlink:href="#a" y1="20.220806" y2="138.66119"/><filter id="k" color-interpolation-filters="sRGB" height="1.476161" width="1.399374" x="-.199687" y="-.23808"><feGaussianBlur stdDeviation="5.3249829"/></filter><g><g fill="url(#h)"><path d="m12-95.03125c-5.5110903 0-10.03125 4.52016-10.03125 10.03125v71c0 5.5110902 4.5201598 10.03125 10.03125 10.03125h72c5.51109 0 10.03125-4.5201597 10.03125-10.03125v-71c0-5.51109-4.52016-10.03125-10.03125-10.03125z" opacity=".08" transform="scale(1 -1)"/><path d="m12-94.03125c-4.971633 0-9.03125 4.059617-9.03125 9.03125v71c0 4.9716329 4.0596171 9.03125 9.03125 9.03125h72c4.971633 0 9.03125-4.059617 9.03125-9.03125v-71c0-4.971633-4.059617-9.03125-9.03125-9.03125z" opacity=".1" transform="scale(1 -1)"/><path d="m12-93c-4.4091333 0-8 3.590867-8 8v71c0 4.4091333 3.5908667 8 8 8h72c4.409133 0 8-3.5908667 8-8v-71c0-4.409133-3.590867-8-8-8z" opacity=".2" transform="scale(1 -1)"/><rect height="85" opacity=".3" rx="7" transform="scale(1 -1)" width="86" x="5" y="-92"/></g><rect fill="url(#i)" height="84" opacity=".45" rx="6" transform="scale(1 -1)" width="84" x="6" y="-91"/></g><rect fill="url(#f)" height="84" rx="6" width="84" x="6" y="6"/><path d="m12 90c-3.324 0-6-2.676-6-6v-2-68-2c0-.334721.04135-.6507.09375-.96875.0487-.295596.09704-.596915.1875-.875.00988-.03038.020892-.0636.03125-.09375.098865-.287771.2348802-.547452.375-.8125.1445918-.273507.3156161-.535615.5-.78125s.3737765-.473472.59375-.6875c.439947-.428056.94291-.814526 1.5-1.09375.278545-.139612.5734731-.246947.875-.34375-.2562018.100222-.4867109.236272-.71875.375-.00741.0044-.023866-.0045-.03125 0-.031933.0193-.062293.04251-.09375.0625-.120395.0767-.2310226.163513-.34375.25-.1061728.0808-.2132809.161112-.3125.25-.1779299.161433-.3474596.345388-.5.53125-.1075789.130255-.2183939.265285-.3125.40625-.025089.03838-.038446.08587-.0625.125-.064763.103032-.1302275.204517-.1875.3125-.1010083.194706-.2056748.415701-.28125.625-.00796.02181-.023589.04055-.03125.0625-.0318251.09195-.0358045.186831-.0625.28125-.0303323.106618-.0703894.203031-.09375.3125-.0728786.341512-.125.698205-.125 1.0625v2 68 2c0 2.781848 2.2181517 5 5 5h2 68 2c2.781848 0 5-2.218152 5-5v-2-68-2c0-.364295-.05212-.720988-.125-1.0625-.04415-.206893-.08838-.397658-.15625-.59375-.0077-.02195-.0233-.04069-.03125-.0625-.06274-.173739-.138383-.367449-.21875-.53125-.04158-.0828-.07904-.169954-.125-.25-.0546-.09721-.126774-.18835-.1875-.28125-.09411-.140965-.204921-.275995-.3125-.40625-.143174-.17445-.303141-.346998-.46875-.5-.01117-.0102-.01998-.02115-.03125-.03125-.138386-.125556-.285091-.234436-.4375-.34375-.102571-.07315-.204318-.153364-.3125-.21875-.0074-.0045-.02384.0044-.03125 0-.232039-.138728-.462548-.274778-.71875-.375.301527.0968.596455.204138.875.34375.55709.279224 1.060053.665694 1.5 1.09375.219973.214028.409366.441865.59375.6875s.355408.507743.5.78125c.14012.265048.276135.524729.375.8125.01041.03078.02133.06274.03125.09375.09046.278085.1388.579404.1875.875.0524.31805.09375.634029.09375.96875v2 68 2c0 3.324-2.676 6-6 6z" fill="url(#d)" opacity=".2"/><path d="m12 6c-3.324 0-6 2.676-6 6v2 68 2c0 .334721.04135.6507.09375.96875.0487.295596.09704.596915.1875.875.00988.03038.020892.0636.03125.09375.098865.287771.2348802.547452.375.8125.1445918.273507.3156161.535615.5.78125s.3737765.473472.59375.6875c.439947.428056.94291.814526 1.5 1.09375.278545.139612.5734731.246947.875.34375-.2562018-.100222-.4867109-.236272-.71875-.375-.00741-.0044-.023866.0045-.03125 0-.031933-.0193-.062293-.04251-.09375-.0625-.120395-.0767-.2310226-.163513-.34375-.25-.1061728-.0808-.2132809-.161112-.3125-.25-.1779299-.161433-.3474596-.345388-.5-.53125-.1075789-.130255-.2183939-.265285-.3125-.40625-.025089-.03838-.038446-.08587-.0625-.125-.064763-.103032-.1302275-.204517-.1875-.3125-.1010083-.194706-.2056748-.415701-.28125-.625-.00796-.02181-.023589-.04055-.03125-.0625-.0318251-.09195-.0358045-.186831-.0625-.28125-.0303323-.106618-.0703894-.203031-.09375-.3125-.0728786-.341512-.125-.698205-.125-1.0625v-2-68-2c0-2.781848 2.2181517-5 5-5h2 68 2c2.781848 0 5 2.218152 5 5v2 68 2c0 .364295-.05212.720988-.125 1.0625-.04415.206893-.08838.397658-.15625.59375-.0077.02195-.0233.04069-.03125.0625-.06274.173739-.138383.367449-.21875.53125-.04158.0828-.07904.169954-.125.25-.0546.09721-.126774.18835-.1875.28125-.09411.140965-.204921.275995-.3125.40625-.143174.17445-.303141.346998-.46875.5-.01117.0102-.01998.02115-.03125.03125-.138386.125556-.285091.234436-.4375.34375-.102571.07315-.204318.153364-.3125.21875-.0074.0045-.02384-.0044-.03125 0-.232039.138728-.462548.274778-.71875.375.301527-.0968.596455-.204138.875-.34375.55709-.279224 1.060053-.665694 1.5-1.09375.219973-.214028.409366-.441865.59375-.6875s.355408-.507743.5-.78125c.14012-.265048.276135-.524729.375-.8125.01041-.03078.02133-.06274.03125-.09375.09046-.278085.1388-.579404.1875-.875.0524-.31805.09375-.634029.09375-.96875v-2-68-2c0-3.324-2.676-6-6-6z" fill="url(#b)" opacity=".35"/><rect height="66" rx="12" style="stroke:#fefefe;stroke-width:.5;stroke-linecap:round;clip-path:url(#e);fill:url(#j);filter:url(#c);opacity:.121536" width="66" x="15" y="15"/><g stroke-width=".462089"><path d="m58.184612 75.960918c-4.0397-1.53527-7.1249-4.46203-9.1949-8.72272l-1.03643-2.13329-1.32094 2.41662c-1.84271 3.37117-3.79311 5.23444-7.27397 6.94905-2.65666 1.30862-3.43734 1.47472-6.93134 1.47472-3.30162 0-4.36255-.19925-6.56976-1.23386-8.73914-4.09639-12.38043-15.33929-7.74238-23.905467l1.35194-2.49696-1.49579-3.038394c-2.86621-5.822089-1.73574-12.52175 2.89405-17.151545 1.06846-1.068462 3.1171-2.493276 4.55252-3.166253 2.27989-1.068892 3.19409-1.223185 7.23075-1.220357 4.18665.003 4.87234.130256 7.29661 1.354885 2.90645 1.468202 5.89479 4.387645 7.11903 6.954896.42538.892044.89087 1.616535 1.03441 1.609978.14354-.0066.64063-.83544 1.10464-1.841962 1.94442-4.217773 7.34884-8.092636 12.20654-8.751841 5.53687-.751368 10.54867 1.117432 14.45278 5.389155 2.89203 3.164339 4.20988 6.614572 4.22734 11.067518.0143 3.649178-.54546 5.853091-2.22301 8.752419l-1.09698 1.895916.954 2.156672c2.01676 4.55922 2.00741 10.36607-.0241 14.9586-1.16985 2.64466-4.99839 6.60911-7.71779 7.99177-2.72289 1.38444-9.00388 1.75204-11.79723.69045zm-22.04717-11.22311c1.21147-1.08244 1.48232-1.74079 1.81292-4.40653.21376-1.72369.62747-3.42172.91935-3.77341.59863-.72131 3.98354-1.05512 13.53297-1.3346l6.35372-.18595v2.99073c0 3.69465.93428 5.81419 2.9936 6.7914 1.92442.9132 3.15148.92021 4.87704.0279 2.13936-1.10631 2.75764-2.83599 2.75568-7.70923-.001-3.468555-.1783-4.586882-.91738-5.799057-.50361-.825984-1.11515-1.50179-1.35898-1.50179-.24382 0 .0648-1.109939.6859-2.466531 1.523-3.326676 2.00872-8.788209.96164-10.813029-.99012-1.914679-2.46075-2.893562-4.34715-2.893562-3.4263 0-5.64274 2.48375-5.65666 6.338884-.0159 4.405117-.54612 4.629538-11.43082 4.838285l-7.50937.144015-.001-3.696713c-.001-4.209502-.84482-6.158725-3.18909-7.370993-5.84931-3.024796-11.81569 3.672913-7.80917 8.766379 1.35941 1.728206 3.51038 2.525134 6.94229 2.57209 2.08138.02848 2.57597.139524 1.74767.392394-4.21702 1.28741-7.76718 4.568199-8.9783 8.29708-2.37088 7.299588-.71936 12.064818 4.18139 12.064818 1.54036 0 2.34246-.29723 3.43405-1.27257z" filter="url(#k)" opacity=".525"/><path d="m58.184602 75.960918c-4.0397-1.53527-7.1249-4.46203-9.1949-8.72272l-1.03643-2.13329-1.32094 2.41662c-1.84271 3.37117-3.79311 5.23444-7.27397 6.94905-2.65666 1.30862-3.43734 1.47472-6.93134 1.47472-3.30162 0-4.36255-.19925-6.56976-1.23386-8.73914-4.09639-12.38043-15.33929-7.74238-23.905467l1.35194-2.49696-1.49579-3.038394c-2.86621-5.822089-1.73574-12.52175 2.89405-17.151545 1.06846-1.068462 3.1171-2.493276 4.55252-3.166253 2.27989-1.068892 3.19409-1.223185 7.23075-1.220357 4.18665.003 4.87234.130256 7.29661 1.354885 2.90645 1.468202 5.89479 4.387645 7.11903 6.954896.42538.892044.89087 1.616535 1.03441 1.609978.14354-.0066.64063-.83544 1.10464-1.841962 1.94442-4.217773 7.34884-8.092636 12.20654-8.751841 5.53687-.751368 10.54867 1.117432 14.452779 5.389155 2.89203 3.164339 4.20988 6.614572 4.22734 11.067518.0143 3.649178-.54546 5.853091-2.22301 8.752419l-1.09698 1.895916.954 2.156672c2.01676 4.55922 2.00741 10.36607-.0241 14.9586-1.16985 2.64466-4.99839 6.60911-7.717789 7.99177-2.72289 1.38444-9.00388 1.75204-11.79723.69045zm-22.04717-11.22311c1.21147-1.08244 1.48232-1.74079 1.81292-4.40653.21376-1.72369.62747-3.42172.91935-3.77341.59863-.72131 3.98354-1.05512 13.53297-1.3346l6.35372-.18595v2.99073c0 3.69465.93428 5.81419 2.9936 6.7914 1.92442.9132 3.15148.92021 4.87704.0279 2.13936-1.10631 2.75764-2.83599 2.75568-7.70923-.001-3.468555-.1783-4.586882-.91738-5.799057-.50361-.825984-1.11515-1.50179-1.35898-1.50179-.24382 0 .0648-1.109939.6859-2.466531 1.523-3.326676 2.00872-8.788209.96164-10.813029-.99012-1.914679-2.46075-2.893562-4.34715-2.893562-3.4263 0-5.64274 2.48375-5.65666 6.338884-.0159 4.405117-.54612 4.629538-11.43082 4.838285l-7.50937.144015-.001-3.696713c-.001-4.209502-.84482-6.158725-3.18909-7.370993-5.84931-3.024796-11.81569 3.672913-7.80917 8.766379 1.35941 1.728206 3.51038 2.525134 6.94229 2.57209 2.08138.02848 2.57597.139524 1.74767.392394-4.21702 1.28741-7.76718 4.568199-8.9783 8.29708-2.37088 7.299588-.71936 12.064818 4.18139 12.064818 1.54036 0 2.34246-.29723 3.43405-1.27257z" fill="#fefefe"/></g></svg>