<svg height="96" width="96" xmlns="http://www.w3.org/2000/svg" xmlns:xlink="http://www.w3.org/1999/xlink"><linearGradient id="a"><stop offset="0"/><stop offset="1" stop-opacity=".588235"/></linearGradient><linearGradient id="b" gradientTransform="scale(1.0058652 .994169)" gradientUnits="userSpaceOnUse" x1="45.447727" x2="45.447727" xlink:href="#a" y1="92.539597" y2="7.01654"/><linearGradient id="c"><stop offset="0" stop-color="#fefefe"/><stop offset="1" stop-color="#fefefe" stop-opacity="0"/></linearGradient><linearGradient id="d" gradientUnits="userSpaceOnUse" x1="36.357143" x2="36.357143" xlink:href="#c" y1="6" y2="63.893143"/><filter id="e" color-interpolation-filters="sRGB" height="1.384" width="1.384" x="-.192" y="-.192"><feGaussianBlur stdDeviation="5.28"/></filter><linearGradient id="f" gradientUnits="userSpaceOnUse" x1="48" x2="48" xlink:href="#c" y1="20.220806" y2="138.66119"/><radialGradient id="g" cx="48" cy="90.171875" gradientTransform="matrix(1.1573129 0 0 .99590774 -7.551021 .197132)" gradientUnits="userSpaceOnUse" r="42" xlink:href="#c"/><clipPath id="h"><rect height="84" rx="6" width="84" x="6" y="6"/></clipPath><linearGradient id="i" gradientUnits="userSpaceOnUse" x1="48" x2="48" y1="90" y2="5.987717"><stop offset="0" stop-color="#b9b9b9"/><stop offset="1" stop-color="#dedede"/></linearGradient><linearGradient id="j" gradientUnits="userSpaceOnUse" x1="22" x2="22" y1="21" y2="75.083267"><stop offset="0" stop-color="#ebebeb"/><stop offset="1" stop-color="#c8c8c8"/></linearGradient><linearGradient id="k" gradientUnits="userSpaceOnUse" x1="21" x2="21" xlink:href="#c" y1="21" y2="71"/><linearGradient id="l" gradientUnits="userSpaceOnUse" x1="22" x2="22" y1="76" y2="-.236474"><stop offset="0" stop-color="#5d5d5d"/><stop offset="1" stop-color="#909090"/></linearGradient><linearGradient id="m" gradientUnits="userSpaceOnUse" x1="22" x2="22" y1="76" y2="23.961554"><stop offset="0"/><stop offset="1" stop-opacity="0"/></linearGradient><linearGradient id="n" gradientUnits="userSpaceOnUse" x1="23" x2="23" y1="42" y2="52"><stop offset="0" stop-color="#1a1a1a"/><stop offset="1" stop-color="#3a3a3a"/></linearGradient><linearGradient id="o" gradientTransform="matrix(1.0058652 0 0 .994169 100 0)" gradientUnits="userSpaceOnUse" x1="45.447727" x2="45.447727" xlink:href="#a" y1="92.539597" y2="7.01654"/><linearGradient id="p" gradientTransform="matrix(1.0238095 0 0 1.0119048 -1.142857 -98.071429)" gradientUnits="userSpaceOnUse" x1="32.251034" x2="32.251034" xlink:href="#o" y1="6.131708" y2="90.238609"/><linearGradient id="q" gradientTransform="translate(0 -97)" gradientUnits="userSpaceOnUse" x1="32.251034" x2="32.251034" xlink:href="#o" y1="6.131708" y2="90.238609"/><linearGradient id="r" gradientTransform="matrix(.06165599 0 0 .06165599 34.470144 30.102515)" gradientUnits="userSpaceOnUse" x1="316.37381" x2="316.37381" xlink:href="#b" y1="155.22179" y2="438.43384"/><g><g fill="url(#p)"><path d="m12-95.03125c-5.5110903 0-10.03125 4.52016-10.03125 10.03125v71c0 5.5110902 4.5201598 10.03125 10.03125 10.03125h72c5.51109 0 10.03125-4.5201597 10.03125-10.03125v-71c0-5.51109-4.52016-10.03125-10.03125-10.03125z" opacity=".08" transform="scale(1 -1)"/><path d="m12-94.03125c-4.971633 0-9.03125 4.059617-9.03125 9.03125v71c0 4.9716329 4.0596171 9.03125 9.03125 9.03125h72c4.971633 0 9.03125-4.059617 9.03125-9.03125v-71c0-4.971633-4.059617-9.03125-9.03125-9.03125z" opacity=".1" transform="scale(1 -1)"/><path d="m12-93c-4.4091333 0-8 3.590867-8 8v71c0 4.4091333 3.5908667 8 8 8h72c4.409133 0 8-3.5908667 8-8v-71c0-4.409133-3.590867-8-8-8z" opacity=".2" transform="scale(1 -1)"/><rect height="85" opacity=".3" rx="7" transform="scale(1 -1)" width="86" x="5" y="-92"/></g><rect fill="url(#q)" height="84" opacity=".45" rx="6" transform="scale(1 -1)" width="84" x="6" y="-91"/></g><g><rect fill="url(#i)" height="84" rx="6" width="84" x="6" y="6"/><path d="m12 6c-3.324 0-6 2.676-6 6v2 68 2c0 .334721.04135.6507.09375.96875.0487.295596.09704.596915.1875.875.00988.03038.020892.0636.03125.09375.098865.287771.2348802.547452.375.8125.1445918.273507.3156161.535615.5.78125s.3737765.473472.59375.6875c.439947.428056.94291.814526 1.5 1.09375.278545.139612.5734731.246947.875.34375-.2562018-.100222-.4867109-.236272-.71875-.375-.00741-.0044-.023866.0045-.03125 0-.031933-.0193-.062293-.04251-.09375-.0625-.120395-.0767-.2310226-.163513-.34375-.25-.1061728-.0808-.2132809-.161112-.3125-.25-.1779299-.161433-.3474596-.345388-.5-.53125-.1075789-.130255-.2183939-.265285-.3125-.40625-.025089-.03838-.038446-.08587-.0625-.125-.064763-.103032-.1302275-.204517-.1875-.3125-.1010083-.194706-.2056748-.415701-.28125-.625-.00796-.02181-.023589-.04055-.03125-.0625-.0318251-.09195-.0358045-.186831-.0625-.28125-.0303323-.106618-.0703894-.203031-.09375-.3125-.0728786-.341512-.125-.698205-.125-1.0625v-2-68-2c0-2.781848 2.2181517-5 5-5h2 68 2c2.781848 0 5 2.218152 5 5v2 68 2c0 .364295-.05212.720988-.125 1.0625-.04415.206893-.08838.397658-.15625.59375-.0077.02195-.0233.04069-.03125.0625-.06274.173739-.138383.367449-.21875.53125-.04158.0828-.07904.169954-.125.25-.0546.09721-.126774.18835-.1875.28125-.09411.140965-.204921.275995-.3125.40625-.143174.17445-.303141.346998-.46875.5-.01117.0102-.01998.02115-.03125.03125-.138386.125556-.285091.234436-.4375.34375-.102571.07315-.204318.153364-.3125.21875-.0074.0045-.02384-.0044-.03125 0-.232039.138728-.462548.274778-.71875.375.301527-.0968.596455-.204138.875-.34375.55709-.279224 1.060053-.665694 1.5-1.09375.219973-.214028.409366-.441865.59375-.6875s.355408-.507743.5-.78125c.14012-.265048.276135-.524729.375-.8125.01041-.03078.02133-.06274.03125-.09375.09046-.278085.1388-.579404.1875-.875.0524-.31805.09375-.634029.09375-.96875v-2-68-2c0-3.324-2.676-6-6-6z" fill="url(#d)" opacity=".5"/><path d="m12 90c-3.324 0-6-2.676-6-6v-2-68-2c0-.334721.04135-.6507.09375-.96875.0487-.295596.09704-.596915.1875-.875.00988-.03038.020892-.0636.03125-.09375.098865-.287771.2348802-.547452.375-.8125.1445918-.273507.3156161-.535615.5-.78125s.3737765-.473472.59375-.6875c.439947-.428056.94291-.814526 1.5-1.09375.278545-.139612.5734731-.246947.875-.34375-.2562018.100222-.4867109.236272-.71875.375-.00741.0044-.023866-.0045-.03125 0-.031933.0193-.062293.04251-.09375.0625-.120395.0767-.2310226.163513-.34375.25-.1061728.0808-.2132809.161112-.3125.25-.1779299.161433-.3474596.345388-.5.53125-.1075789.130255-.2183939.265285-.3125.40625-.025089.03838-.038446.08587-.0625.125-.064763.103032-.1302275.204517-.1875.3125-.1010083.194706-.2056748.415701-.28125.625-.00796.02181-.023589.04055-.03125.0625-.0318251.09195-.0358045.186831-.0625.28125-.0303323.106618-.0703894.203031-.09375.3125-.0728786.341512-.125.698205-.125 1.0625v2 68 2c0 2.781848 2.2181517 5 5 5h2 68 2c2.781848 0 5-2.218152 5-5v-2-68-2c0-.364295-.05212-.720988-.125-1.0625-.04415-.206893-.08838-.397658-.15625-.59375-.0077-.02195-.0233-.04069-.03125-.0625-.06274-.173739-.138383-.367449-.21875-.53125-.04158-.0828-.07904-.169954-.125-.25-.0546-.09721-.126774-.18835-.1875-.28125-.09411-.140965-.204921-.275995-.3125-.40625-.143174-.17445-.303141-.346998-.46875-.5-.01117-.0102-.01998-.02115-.03125-.03125-.138386-.125556-.285091-.234436-.4375-.34375-.102571-.07315-.204318-.153364-.3125-.21875-.0074-.0045-.02384.0044-.03125 0-.232039-.138728-.462548-.274778-.71875-.375.301527.0968.596455.204138.875.34375.55709.279224 1.060053.665694 1.5 1.09375.219973.214028.409366.441865.59375.6875s.355408.507743.5.78125c.14012.265048.276135.524729.375.8125.01041.03078.02133.06274.03125.09375.09046.278085.1388.579404.1875.875.0524.31805.09375.634029.09375.96875v2 68 2c0 3.324-2.676 6-6 6z" fill="url(#g)" opacity=".25"/></g><rect height="66" rx="12" style="opacity:.1;stroke:#fefefe;stroke-width:.5;stroke-linecap:round;clip-path:url(#h);fill:url(#f);filter:url(#e)" width="66" x="15" y="15"/><g><path d="m19 15c-2.753005 0-5 2.246995-5 5v56c0 2.753005 2.246995 5 5 5h8c2.753005 0 5-2.246995 5-5v-56c0-2.753005-2.246995-5-5-5z" fill="url(#m)" opacity=".05"/><path d="m19 15.96875c-2.220837 0-4.03125 1.810413-4.03125 4.03125v56c0 2.220837 1.810413 4.03125 4.03125 4.03125h8c2.220837 0 4.03125-1.810413 4.03125-4.03125v-56c0-2.220837-1.810413-4.03125-4.03125-4.03125z" fill="url(#m)" opacity=".1"/><path d="m19 17h8c1.662 0 3 1.338 3 3v56c0 1.662-1.338 3-3 3h-8c-1.662 0-3-1.338-3-3v-56c0-1.662 1.338-3 3-3z" fill="url(#l)"/><path d="m19 17.96875c-1.136452 0-2.03125.894798-2.03125 2.03125v56c0 1.136452.894798 2.03125 2.03125 2.03125h8c1.136452 0 2.03125-.894798 2.03125-2.03125v-56c0-1.136452-.894798-2.03125-2.03125-2.03125z" fill="url(#j)"/><path d="m19 17.96875c-1.136452 0-2.03125.894798-2.03125 2.03125v56c0 1.136452.894798 2.03125 2.03125 2.03125h8c1.136452 0 2.03125-.894798 2.03125-2.03125v-56c0-1.136452-.894798-2.03125-2.03125-2.03125zm0 1.0625h8c.575727 0 .96875.393023.96875.96875v56c0 .575727-.393023.96875-.96875.96875h-8c-.575727 0-.96875-.393023-.96875-.96875v-56c0-.575727.393023-.96875.96875-.96875z" fill="url(#k)" opacity=".8"/><path d="m19 47 7 5v-10z" fill="url(#n)" opacity=".8"/><path d="m26 42-7 5 .6875.5 6.3125-4.5z" opacity=".5"/><path d="m19.6875 47.5-.6875.5 7 5v-1z" fill="#fefefe" opacity=".5"/><path d="m70.6038 25.042725-11.99075 13.712048-11.115512-13.682874-9.831831 9.131642 3.967742 4.317836c2.086527.773705 5.359332 2.630886 7.643737 5.018027.344516.342655 1.295147-1.119468 3.413425-.758539.60898.05752 5.516946 1.349992 7.556215.962761.650986-.410414.680622-1.470102 1.225332-2.042221.06805.336962.115671.648129.116698.816889-.667127.531281-.644765 1.719327-1.34203 2.158918-2.039269.387232-6.947235-.905243-7.556215-.962761-2.118278-.360928-3.068909 1.101194-3.413425.758538-1.822614-1.904582-4.26196-3.479731-6.243358-4.434534l4.988852 5.42647c.04475-.08733.06836-.17455.116698-.262571.166453.164086.282545.309627.320921.379269-.04745.07533-.07202.158419-.116699.233398l1.662951 1.808823-13.6537 14.587286 8.898245 8.839895 12.545066-14.703984 12.486717 14.499762 9.89018-9.160816-13.624525-14.528936 1.487902-1.517079c-.262098.05859-.555887.09364-.816887-.02917-.558696-.312667-.598516-1.460337-.466794-1.604601.000776.0027.02839-.0027.02918 0 .04516.154998.116008.314307.204223.437618.0038.0081-.0039.02115 0 .02917.0073.0098.02152.01977.02917.02918.190915.374551.544427.698286 1.283681.846062l2.888282-2.946631c-2.091682-.56623-3.70308-.459781-3.734346-.700195-.02449-.415451-.02784-1.573571-.08752-1.983871-.342104-2.777214-1.672177-2.099449-1.867173-2.100568-.557005.07827-.81783.445967-.904412.96276-.123189-1.003137.05051-1.776369.904412-1.896347.04875.00028.161977-.03898.320921-.05835.476831-.0581 1.289674.076 1.546252 2.158919.05969.410298.06303 1.568418.08752 1.98387.03488.268199 2.021854.08031 4.46371.904412l1.546252-1.604601c.07516-.461956.210942-.886718.437619-1.108634.05858-.05734.09966.204932.116699.554316l5.834914-5.980787-9.248339-8.4898zm-8.110532 12.807637c.30162.07699.756234-.02179 1.837998 2.625711.18042.279101.421409.472115.583492.495968.06485.227067.131094.444184.204222.671015.05094.47377-.466967.262781-.787714-.233396-1.081764-2.647502-1.536378-2.548719-1.837998-2.625711-.236187-.04869-.955764.30873-1.196157 1.021109-.02402-.131121-.08679-.348395-.08752-.408444-.02231-1.070983.994773-1.605806 1.283681-1.546252zm5.280598 5.718216c.126841.152718.296216.262571.495968.262571.186158 0 .376944-.09798.495967-.233396.0956.12176.175047.267892.175047.437618 0 .389389-.298699.729365-.671014.729365-.09308 0-.180724-.01974-.262572-.05835.373462-.0798.674684-.223193.583492-.233398-.414213-.04593-.729039-.139528-.962761-.26257-.01592-.06048-.02918-.110911-.02918-.175048 0-.178936.06995-.342382.175047-.466793zm.729364 7.381167c.0056.01165.02301.01763.02918.02917.307606.576535.444541.408995 1.458729 1.66295.646056.798795.77451 1.315953.379269 1.487904-.09906-.167362-.21412-.350113-.379274-.554313-1.014188-1.253955-1.151122-1.086415-1.458728-1.66295-.184848-.346468-.145024-.732115-.02917-.962761zm-21.560009 1.050285c.03552.537655.05222.918678-.02917 1.02111-.12507.184272-.854376.987254-1.283682 1.633776-.07365-.01568-.137451-.05709-.204221-.08752-.599873-.273483 1.284493-2.180142 1.487903-2.479838.01197-.01507.02199-.06193.02917-.08752zm19.984582 2.304791c.107108.0011.222757.0022.350095.02917.01053.0023.01854.02684.02918.02917.384553.460215.799229.960014.904412 1.254507.183902.491828.152652.770872 0 .933586-.215216-.602568-1.811792-2.123382-1.546253-2.217268.07093-.02506.169297-.0301.262571-.02917zm-19.313567.758539c.05899.01052.07612.08156.02917.262571-.118938.458547-.455396 1.207542-.612666 1.837998-.225794-.360981.0824-1.239452.350095-1.983871.08525-.04801.185289-.125287.233397-.116698z" opacity=".2"/><g fill-rule="evenodd"><path d="m70.166025 46.184499c-.659546-.131362-2.65548 1.084866-2.510651 1.207347.204799.173158 2.824045-1.138733 2.510651-1.207347zm-3.234571-1.403782c.599641.282173 1.476689-.188018 1.327795-.204678-1.294536-.143553-1.516861-.749345-1.714686-1.34289-.19168-.19835-.231728 1.201369.386891 1.547568zm1.681487-1.535667c0 .377256-.280899.713413-.641614.713413-.36071 0-.665461-.336157-.665461-.713413 0-.377315.29285-.683519.653511-.683519.36071 0 .653564.306204.653564.683519zm-33.105086-6.907785c-.145303-.246455.96088.195798 1.791632.659873.830758.464076 3.081934 1.332083 3.763961 1.47016 1.762378.356789 5.848415 2.436958 8.504287 5.212271.333781.331979 1.246047-1.083615 3.298323-.733933.590004.05573 5.342941 1.320658 7.318669.945491.675539-.425893.666563-1.580971 1.312903-2.095698-.0027-.436001-.374434-1.84045-.378095-2.138527-.02161-1.037613.950397-1.549365 1.230303-1.491666.292222.07459.755361-.0069 1.803419 2.558137.310753.480717.788833.672306.739476.213299-.578092-1.793151-.987678-3.706798.376524-3.898475.18892.0011 1.492873-.649112 1.824318 2.041568.05782.397515.04343 1.516912.06717 1.919419.04529.348232 3.477829-.109556 6.835111 2.086236.391421.235444 2.052909 1.923862.432489 3.263965-1.086943.901396-5.802867 3.224794-6.118303 3.446364-.17974.123169-.348999.658343-.110215 1.105907.298022.55857.435298.380101 1.417886 1.594985.982586 1.214885.769974 1.78282-.788108 1.385597-.520872-.132793-1.864197-.836162-2.413973-.641873-.257266.09096 1.282055 1.567685 1.490565 2.151478.691091 1.848257-1.654018.856526-2.509926.448779-.855902-.407746-2.340415-1.277507-2.867382-1.305719-1.023863.439152-6.555981.923738-11.472726-.24212-.299299.08069-2.793585 2.584913-2.977424 2.680054-1.539862.486695-.352072-1.81247-.104951-2.7652.121299-.467651-.217393-.186004-.509238-.01903-.137424.07862-1.049297.441728-1.630477.176767-.581181-.264962 1.249315-2.113484 1.446387-2.403842.27196-.342281-.819992-3.539446 1.485108-7.198811-.23504-.426539-3.229163-2.948965-5.447068-4.184523-2.095892-1.194635-7.158076-3.469734-7.295162-3.627567-.219925-.156498-.843521-.601466-.515481-.613367zm35.042562 10.651959c-.555462-.04133-1.919861 1.420851-1.775033 1.543333.204853.173158 2.050874-1.522145 1.775033-1.543333zm4.701295-7.406684c-.07221-.19103-1.781346 1.964138-1.480121 2.7564.131427.345665 1.707161-2.155781 1.480121-2.7564zm-1.842817-.338463c-.63888.625462-.523017 2.934556-.383432 2.908892.654176-.120277.576379-3.097786.383432-2.908892z" fill="url(#r)"/><path d="m35.509203 36.274282c-.01796.01058-.01816.02572 0 .05653-.32804.0119.288855.465343.50878.621841.09707.111768 2.65564 1.274613 4.889936 2.374305.04763.01215.131321.04878.169594.05653 1.762377.35679 5.823786 2.425544 8.479659 5.200858.333781.331978 1.254791-1.084586 3.307067-.734904.590004.05573 5.345044 1.307929 7.320772.932762.675539-.425893.653875-1.576921 1.300214-2.091649-.000994-.163501-.04713-.464973-.113062-.791435-.527737.554292-.55645 1.580961-1.187152 1.978587-1.975728.375167-6.730768-.877036-7.320772-.932762-2.052276-.349682-2.973286 1.066882-3.307067.734904-2.655873-2.775312-6.717282-4.844066-8.479659-5.200856-.682028-.138077-2.956824-1.005732-3.787582-1.469808-.726908-.406065-1.654981-.809014-1.780728-.734903zm30.074524.706638c-.153991.01876-.26369.0568-.31092.05653-.827301.11624-.995584.865378-.876232 1.837259.08388-.50069.336582-.856939.876232-.932762.188919.0011 1.477549-.655562 1.808993 2.035118.05782.397515.06106 1.51955.0848 1.922056.04529.348232 3.482976-.104143 6.840258 2.091649.224538.135062.844681.74678 1.045825 1.498073.347535-1.085395-.677342-2.147815-1.017559-2.374304-.123058.13168-.227058.213213-.25439.141328-.03501-.0921-.04185-.216077-.02827-.339187-.137119-.08429-.287138-.178417-.423983-.25439-.07744.207271-.17899.371461-.310921.395718-.0442.0081-.06857-.261057-.0848-.593576-2.982119-1.496696-5.725665-1.158378-5.766168-1.469808-.02373-.402506-.02697-1.524541-.0848-1.922056-.248583-2.01801-1.036099-2.147933-1.498073-2.091649zm-3.22227 1.187152c-.279906-.0577-1.265292.460461-1.243683 1.498073.000714.05818.06152.268683.0848.395718.232904-.690183.930059-1.036463 1.158887-.989294.292222.07459.732671-.02111 1.780728 2.543898.310753.480717.812526.685131.76317.226124-.07085-.219764-.135026-.430115-.197859-.650107-.157032-.02311-.390512-.21011-.565311-.480514-1.048057-2.565012-1.488506-2.469304-1.780728-2.543898zm11.051822 1.07409c-.47916.469097-.54204 1.875974-.480514 2.543898.03808-.637343.170437-1.335836.480514-1.639401.04824-.04722.08886.112995.113062.367452.0311-.71132-.01943-1.363618-.113062-1.271949zm1.83726.339187c-.07221-.19103-1.771033 1.977759-1.469808 2.770022.02079.05468.08937.01248.169593-.05653.258097-.579878.687504-1.241219.989294-1.58287.011-.01245.01768-.01662.02827-.02827.217766-.465127.361042-.894989.282656-1.102355zm-7.773021 4.126767c-.101816.120535-.169593.278888-.169593.452249 0 .06214.01284.111005.02827.169593.22644.119208.531456.209888.932763.25439.08835.0099-.203486.148811-.565311.226124.0793.03741.164212.05653.25439.05653.360715 0 .650107-.329383.650107-.706638 0-.164438-.07697-.306017-.169593-.423983-.115314.131196-.300156.226124-.480514.226124-.193527 0-.357625-.106431-.480514-.25439zm-.989294.423983c-.127618.139768-.08904 1.251679.452249 1.554604.599641.282173 1.477374-.181199 1.32848-.197859-.943518-.104627-1.316326-.464214-1.526339-.876231-.0074-.0091-.02116-.0188-.02827-.02827-.0038-.0078.0037-.02041 0-.02827-.08547-.11947-.154107-.273815-.197859-.423983-.000761-.0026-.02752.0026-.02827 0zm-18.033408 1.158887c-1.140401 2.07675-1.234044 3.965027-1.187152 5.200857.05222-1.296289.35326-3.016005 1.498073-4.833405-.03718-.06747-.149655-.20848-.310921-.367452zm21.397006 1.808994c-.821898.146465-2.331436 1.079982-2.204711 1.187152.13633.115268 1.307992-.423638 2.006853-.8197.17425-.146891.346572-.280084.508779-.367452-.08245-.01642-.193507-.02092-.310921 0zm.706639.791435c-.555463-.04133-1.925557 1.432121-1.780729 1.554604.204854.173158 2.05657-1.533417 1.780729-1.554604zm-2.374305 2.96788c-.112239.22346-.150822.59709.02827.932763.298022.55857.430689.396251 1.413276 1.611135.160008.197837.271481.374894.367452.537045.382926-.166593.258475-.667637-.367452-1.441542-.982587-1.214884-1.115254-1.052565-1.413276-1.611135-.006-.01119-.0228-.01698-.02827-.02827zm-20.888227 1.017559c-.007.02479-.01667.0702-.02826.0848-.197072.290358-2.022723 2.137608-1.441542 2.40257.06469.02949.126503.06961.197858.0848.41593-.626377 1.122511-1.40434 1.243684-1.58287.07885-.09924.06268-.46839.02826-.989294zm19.361889 2.232977c-.09037-.000898-.185668.004-.25439.02827-.257266.09096 1.289563 1.564388 1.498073 2.14818.147896-.157645.178171-.427993 0-.904497-.101905-.285316-.503661-.769542-.876232-1.215418-.0103-.0023-.01806-.0261-.02826-.02826-.12337-.02612-.235415-.02724-.339186-.02827zm-18.711782.734904c-.04661-.0083-.143534.06654-.226124.113062-.259353.721224-.557945 1.572323-.339186 1.922056.15237-.610811.478343-1.336468.593576-1.780728.04549-.175369.02889-.2442-.02827-.25439z" opacity=".5"/><path d="m35.509203 37.178779c-.01796.01058-.01816.02572 0 .05653-.32804.0119.288855.465343.50878.621841.137085.157833 5.196615 2.423353 7.292506 3.617988 1.867065 1.04011 4.28612 2.969846 5.144327 3.815847.09784-.178174.197084-.356329.310921-.537045-.23504-.426539-3.237342-2.947741-5.455248-4.183299-.611711-.348669-1.481694-.790441-2.40257-1.243683-.801095-.204283-2.833848-.975243-3.617988-1.413277-.726908-.406065-1.654981-.809014-1.780728-.734903zm28.887372 1.695931c-.102181.609902.06388 1.452823.310921 2.317774.122136.01797.219453-.05357.197859-.25439-.227517-.70572-.431322-1.432653-.50878-2.063384zm-3.194005 1.187153c-.05199.154058-.08874.319434-.0848.508779.0023.186299.144503.784377.254389 1.32848.03752-.03941.07016-.0789.113062-.113062-.0022-.350908-.186677-1.200331-.282655-1.724197zm14.047969.423983c-.01685-.04459-.133823.03397-.282656.197858-.01058.01165-.01727.01582-.02827.02827-.313377.659116-.741971 1.370096-.989294 1.58287-.101093.227131-.177008.432948-.197858.621841.08426.0518.170168.11451.254389.169593.008.0048.01933.02231.02827.02827.468665-.501507 1.395242-2.152982 1.215418-2.628694zm-1.724198.0848c-.03821.7358-.18169 1.522732-.508779 1.58287-.03154.0058-.06411-.124662-.0848-.310921-.01226.239158-.0094.42933 0 .621842.132623.06656.262393.12384.395718.197858.204922-.548423.245225-1.52315.197858-2.091649zm-5.568309 1.978587c-.360661 0-.650107.329324-.650107.706639 0 .174852.06343.324431.169593.452248.119783-.141806.285562-.25439.480514-.25439.203508 0 .36061.12994.480514.282656.115314-.131197.169593-.291886.169593-.480514 0-.377315-.289397-.706639-.650107-.706639zm-1.469808.678373c-.07627.08353-.113832.507406 0 .904497.000749.0026.02751-.0026.02827 0 .01067.000559.01629-.0124.02826 0 .04675.140256.106287.28862.169594.423983.0037.0079-.0038.02046 0 .02827.0071.0095.02087.01916.02827.02827.05773.07102.120532.126318.197859.169593.243816.114733.515242.08124.763169.02827-.185644-.08758-.312646-.272317-.367452-.480514-.504011-.265335-.654935-.692811-.791435-1.102356-.02396-.02479-.0383-.01997-.05653 0zm8.564456 2.261242c-.09386.293136-.284254.568778-.621842.847966-1.086943.901397-5.818185 3.226825-6.13362 3.448395-.171877.11778-.307985.611427-.113062 1.045825.03442-.06214.07331-.114089.113062-.141328.315435-.22157 5.046677-2.546998 6.13362-3.448395.690872-.571357.771339-1.194076.621842-1.752463zm-5.200858.706639c-.821898.146465-2.331436 1.079982-2.204711 1.187152.204799.173159 2.829026-1.118539 2.515632-1.187152-.08245-.01642-.193507-.02092-.310921 0zm.706639.791435c-.102761-.0077-.252264.03579-.395718.113062.104775.02294-.157794.168539-.508779.367452-.504648.425409-.963971.999888-.876232 1.07409.204854.173158 2.05657-1.533417 1.780729-1.554604zm-23.290797 3.533191c-.02065.545955.0033.979342.02826 1.356745.05378-.190338-.000258-.660328-.02826-1.356745zm19.390154 2.685225c-.09037-.000898-.185668.004-.25439.02827-.128633.04548.21484.450971.593576.904497.0102.0022.01796.02597.02826.02826.624421.13938 1.434183.526286 1.808994.621842 1.304358.332537 1.652257-.01437 1.158887-.847966-.218195.09493-.593333.08765-1.158887-.05653-.455763-.116193-1.543896-.672086-2.176445-.678373zm-18.711782.734904c-.09526-.01699-.298111.150031-.480514.25439-.122128.06987-.871794.375657-1.441542.25439-.260526.392345-.421692.717654-.197858.8197.58118.264961 1.501977-.09097 1.6394-.169593.09317-.0533.168164-.09276.25439-.141328.101035-.280962.202429-.562847.25439-.763169.04549-.175369.02889-.2442-.02827-.25439zm3.109209.339186c-.299299.08069-2.784042 2.590085-2.967881 2.685226-.384966.121674-.605312.0772-.706638-.0848-.174393.699093-.115183 1.249042.706638.989294.183839-.09514 2.668582-2.604535 2.967881-2.685226 4.916745 1.165858 10.451943.693542 11.475805.25439.526967.02821 1.998916.892468 2.854819 1.300215.851612.4057 3.173048 1.386725 2.515632-.423983-.44253.426743-1.887076-.181075-2.515632-.480514-.855903-.407747-2.327852-1.272004-2.854819-1.300215-1.023862.439152-6.55906.911468-11.475805-.25439z" fill="#fefefe" opacity=".5"/></g><path d="m108.2514 33.211832 10.52963-9.76354 11.89992 14.640477 12.8543-14.671123 9.88985 9.082059-14.22859 14.593821 14.57781 15.547516-10.57297 9.843184-13.39889-15.560451-13.4189 15.761225-9.55076-9.451787 14.64779-15.637511z" opacity=".2"/></g></svg>