<svg height="96" width="96" xmlns="http://www.w3.org/2000/svg" xmlns:xlink="http://www.w3.org/1999/xlink"><linearGradient id="a"><stop offset="0" stop-color="#fefefe"/><stop offset="1" stop-color="#fefefe" stop-opacity="0"/></linearGradient><linearGradient id="b" gradientUnits="userSpaceOnUse" x1="36.357143" x2="36.357143" xlink:href="#a" y1="6" y2="63.893143"/><filter id="c" color-interpolation-filters="sRGB" height="1.384" width="1.384" x="-.192" y="-.192"><feGaussianBlur stdDeviation="5.28"/></filter><radialGradient id="d" cx="48" cy="90.171875" gradientTransform="matrix(1.1573129 0 0 .99590774 -7.551021 .197132)" gradientUnits="userSpaceOnUse" r="42"><stop offset="0" stop-color="#245d31"/><stop offset="1" stop-color="#63a06c"/></radialGradient><clipPath id="e"><rect height="84" rx="6" width="84" x="6" y="6"/></clipPath><linearGradient id="f" gradientUnits="userSpaceOnUse" x1="48" x2="48" y1="90" y2="5.987717"><stop offset="0" stop-color="#009845"/><stop offset="1" stop-color="#22c55c"/></linearGradient><linearGradient id="g" gradientTransform="matrix(1.0058652 0 0 .994169 100 0)" gradientUnits="userSpaceOnUse" x1="45.447727" x2="45.447727" y1="92.539597" y2="7.01654"><stop offset="0"/><stop offset="1" stop-opacity=".588235"/></linearGradient><linearGradient id="h" gradientTransform="matrix(1.0238095 0 0 1.0119048 -1.142857 -98.071429)" gradientUnits="userSpaceOnUse" x1="32.251034" x2="32.251034" xlink:href="#g" y1="6.131708" y2="90.238609"/><linearGradient id="i" gradientTransform="translate(0 -97)" gradientUnits="userSpaceOnUse" x1="32.251034" x2="32.251034" xlink:href="#g" y1="6.131708" y2="90.238609"/><linearGradient id="j" gradientUnits="userSpaceOnUse" x1="48" x2="48" xlink:href="#a" y1="20.220806" y2="138.66119"/><g><g fill="url(#h)"><path d="m12-95.03125c-5.5110903 0-10.03125 4.52016-10.03125 10.03125v71c0 5.5110902 4.5201598 10.03125 10.03125 10.03125h72c5.51109 0 10.03125-4.5201597 10.03125-10.03125v-71c0-5.51109-4.52016-10.03125-10.03125-10.03125z" opacity=".08" transform="scale(1 -1)"/><path d="m12-94.03125c-4.971633 0-9.03125 4.059617-9.03125 9.03125v71c0 4.9716329 4.0596171 9.03125 9.03125 9.03125h72c4.971633 0 9.03125-4.059617 9.03125-9.03125v-71c0-4.971633-4.059617-9.03125-9.03125-9.03125z" opacity=".1" transform="scale(1 -1)"/><path d="m12-93c-4.4091333 0-8 3.590867-8 8v71c0 4.4091333 3.5908667 8 8 8h72c4.409133 0 8-3.5908667 8-8v-71c0-4.409133-3.590867-8-8-8z" opacity=".2" transform="scale(1 -1)"/><rect height="85" opacity=".3" rx="7" transform="scale(1 -1)" width="86" x="5" y="-92"/></g><rect fill="url(#i)" height="84" opacity=".45" rx="6" transform="scale(1 -1)" width="84" x="6" y="-91"/></g><rect fill="url(#f)" height="84" rx="6" width="84" x="6" y="6"/><path d="m12 90c-3.324 0-6-2.676-6-6v-2-68-2c0-.334721.04135-.6507.09375-.96875.0487-.295596.09704-.596915.1875-.875.00988-.03038.020892-.0636.03125-.09375.098865-.287771.2348802-.547452.375-.8125.1445918-.273507.3156161-.535615.5-.78125s.3737765-.473472.59375-.6875c.439947-.428056.94291-.814526 1.5-1.09375.278545-.139612.5734731-.246947.875-.34375-.2562018.100222-.4867109.236272-.71875.375-.00741.0044-.023866-.0045-.03125 0-.031933.0193-.062293.04251-.09375.0625-.120395.0767-.2310226.163513-.34375.25-.1061728.0808-.2132809.161112-.3125.25-.1779299.161433-.3474596.345388-.5.53125-.1075789.130255-.2183939.265285-.3125.40625-.025089.03838-.038446.08587-.0625.125-.064763.103032-.1302275.204517-.1875.3125-.1010083.194706-.2056748.415701-.28125.625-.00796.02181-.023589.04055-.03125.0625-.0318251.09195-.0358045.186831-.0625.28125-.0303323.106618-.0703894.203031-.09375.3125-.0728786.341512-.125.698205-.125 1.0625v2 68 2c0 2.781848 2.2181517 5 5 5h2 68 2c2.781848 0 5-2.218152 5-5v-2-68-2c0-.364295-.05212-.720988-.125-1.0625-.04415-.206893-.08838-.397658-.15625-.59375-.0077-.02195-.0233-.04069-.03125-.0625-.06274-.173739-.138383-.367449-.21875-.53125-.04158-.0828-.07904-.169954-.125-.25-.0546-.09721-.126774-.18835-.1875-.28125-.09411-.140965-.204921-.275995-.3125-.40625-.143174-.17445-.303141-.346998-.46875-.5-.01117-.0102-.01998-.02115-.03125-.03125-.138386-.125556-.285091-.234436-.4375-.34375-.102571-.07315-.204318-.153364-.3125-.21875-.0074-.0045-.02384.0044-.03125 0-.232039-.138728-.462548-.274778-.71875-.375.301527.0968.596455.204138.875.34375.55709.279224 1.060053.665694 1.5 1.09375.219973.214028.409366.441865.59375.6875s.355408.507743.5.78125c.14012.265048.276135.524729.375.8125.01041.03078.02133.06274.03125.09375.09046.278085.1388.579404.1875.875.0524.31805.09375.634029.09375.96875v2 68 2c0 3.324-2.676 6-6 6z" fill="url(#d)" opacity=".2"/><path d="m12 6c-3.324 0-6 2.676-6 6v2 68 2c0 .334721.04135.6507.09375.96875.0487.295596.09704.596915.1875.875.00988.03038.020892.0636.03125.09375.098865.287771.2348802.547452.375.8125.1445918.273507.3156161.535615.5.78125s.3737765.473472.59375.6875c.439947.428056.94291.814526 1.5 1.09375.278545.139612.5734731.246947.875.34375-.2562018-.100222-.4867109-.236272-.71875-.375-.00741-.0044-.023866.0045-.03125 0-.031933-.0193-.062293-.04251-.09375-.0625-.120395-.0767-.2310226-.163513-.34375-.25-.1061728-.0808-.2132809-.161112-.3125-.25-.1779299-.161433-.3474596-.345388-.5-.53125-.1075789-.130255-.2183939-.265285-.3125-.40625-.025089-.03838-.038446-.08587-.0625-.125-.064763-.103032-.1302275-.204517-.1875-.3125-.1010083-.194706-.2056748-.415701-.28125-.625-.00796-.02181-.023589-.04055-.03125-.0625-.0318251-.09195-.0358045-.186831-.0625-.28125-.0303323-.106618-.0703894-.203031-.09375-.3125-.0728786-.341512-.125-.698205-.125-1.0625v-2-68-2c0-2.781848 2.2181517-5 5-5h2 68 2c2.781848 0 5 2.218152 5 5v2 68 2c0 .364295-.05212.720988-.125 1.0625-.04415.206893-.08838.397658-.15625.59375-.0077.02195-.0233.04069-.03125.0625-.06274.173739-.138383.367449-.21875.53125-.04158.0828-.07904.169954-.125.25-.0546.09721-.126774.18835-.1875.28125-.09411.140965-.204921.275995-.3125.40625-.143174.17445-.303141.346998-.46875.5-.01117.0102-.01998.02115-.03125.03125-.138386.125556-.285091.234436-.4375.34375-.102571.07315-.204318.153364-.3125.21875-.0074.0045-.02384-.0044-.03125 0-.232039.138728-.462548.274778-.71875.375.301527-.0968.596455-.204138.875-.34375.55709-.279224 1.060053-.665694 1.5-1.09375.219973-.214028.409366-.441865.59375-.6875s.355408-.507743.5-.78125c.14012-.265048.276135-.524729.375-.8125.01041-.03078.02133-.06274.03125-.09375.09046-.278085.1388-.579404.1875-.875.0524-.31805.09375-.634029.09375-.96875v-2-68-2c0-3.324-2.676-6-6-6z" fill="url(#b)" opacity=".35"/><rect height="66" rx="12" style="opacity:.1;stroke:#fefefe;stroke-width:.5;stroke-linecap:round;clip-path:url(#e);fill:url(#j);filter:url(#c)" width="66" x="15" y="15"/><path d="m34.194854 78.390461c.4895-.79204 2.686442-1.713961 4.888575-2.051434 2.55569-.391657 4.191962-1.395565 4.191962-2.571905 0-.483449-.841957-1.944156-1.871026-3.246024-3.125611-3.954193-4.649805-6.655544-4.649805-8.240908 0-.933457.610435-2.399333 1.63021-3.914701.896609-1.332363 1.630211-2.77946 1.630211-3.21577 0-1.270273-2.18014-5.292501-4.057402-7.485655-2.147199-2.508523-5.484667-4.669117-7.212373-4.669117-1.3273 0-1.78474.676205-.723905 1.070102.323326.120053-.0076.450479-.743744.743084-.729271.289795-1.429475.922772-1.555993 1.406616-.126529.483844-.743276.977823-1.370547 1.097734-1.418886.271236-9.102312-.466414-11.502907-1.104341-1.769646-.470262-1.776861-.481739-1.023802-1.631055.417121-.636603 1.397285-2.248605 2.178149-3.582227 1.953394-3.336189 2.721929-4.11835 3.731692-3.797864.468366.148654 1.578389.0075 2.466727-.313768 1.414011-.511314 1.730677-.4795 2.542806.255463.643136.582031 1.434001.780396 2.578641.646767 1.142517-.133383 1.650985-.0064 1.650985.41239 0 .38794.6269.606766 1.746651.609684 2.56197.0066 6.139252 1.870656 8.912622 4.64402 1.340816 1.340816 2.486642 2.362991 2.546288 2.2715.05964-.09149.374158-1.214339.698931-2.495218.324773-1.280878 1.311488-3.927238 2.192709-5.880798 1.715757-3.803642 1.967966-5.997529.903552-7.859535l-.665653-1.164436-.01654 1.362069-.01654 1.362071-1.078007-1.012739c-.592915-.557007-1.530724-1.01274-2.084027-1.01274-1.250166 0-1.880951-1.189242-3.770488-7.108624-1.608011-5.037436-1.775327-6.398822-.786458-6.398822 1.025881 0 7.850232.949497 8.766973 1.219779.44831.132175.8151.682525.8151 1.223001s.647566 1.523293 1.439029 2.184036c1.317647 1.100017 1.391332 1.306033.873582 2.44237-.489413 1.07415-.428134 1.433855.455786 2.675203 1.014726 1.425051 1.015139 1.434187.0654 1.434187h-.955798l.980294 1.880722c1.39193 2.670478 1.03389 5.726819-1.252886 10.695177-2.070076 4.497524-2.343572 7.38311-.990655 10.452092l.80905 1.835272 2.061848-2.301046 2.061849-2.301046.02089-6.450971.02089-6.45097 1.644924-1.644925c1.541649-1.541647 1.780539-1.626336 3.80492-1.348863 1.188005.162833 3.066464.827282 4.174365 1.476552 2.272324 1.331674 3.702299 1.031092 3.967154-.833902.123852-.872161.482339-1.073141 2.126403-1.192134 1.383649-.10014 2.122844-.414834 2.461699-1.047991.679016-1.268757 1.159222-1.158701 5.109237 1.170957 5.632296 3.321846 5.47194 3.152343 4.14931 4.386006-1.88558 1.758748-9.042184 6.504205-10.275961 6.813863-.763484.191623-1.363712.04856-1.750253-.417199-.412105-.496556-1.027546-.620981-2.055069-.415477-1.45371.290743-1.460272.283546-.735866-.807467.727247-1.095283.711293-1.110929-3.169368-3.107771-2.145164-1.103821-4.202126-2.006946-4.571038-2.006946-1.010754 0-1.302957 1.947375-.965353 6.433503.367704 4.886094-.02829 6.408838-2.499548 9.612062-1.034728 1.341207-1.881332 2.651998-1.881332 2.912873 0 .260873 1.069464.600977 2.376588.755786 3.037986.359805 5.545652 1.850213 8.983227 5.339116 2.869124 2.911946 7.215104 8.892772 8.213572 11.303303l.583186 1.407927 3.545604-.134876c5.25255-.199822 5.14395-.85445-1.23715-7.457378-2.792306-2.889376-5.341445-5.748924-5.66476-6.354559-.704404-1.319482-.787045-6.80135-.127748-8.473471.740643-1.878387 2.9395-4.23393 4.599931-4.927704 1.856281-.775603 6.432662-.828016 8.584029-.09831 5.839004 1.98048 6.997901 6.635657 2.420931 9.724619-1.960881 1.323382-2.29138 1.397057-4.962533 1.106243-3.733222-.406444-4.012921-.623776-2.114461-1.643 2.553904-1.371115 5.043038-1.947223 5.77795-1.337301.491583.40798.805948.258914 1.415338-.671135.725648-1.107478.727465-1.280957.02468-2.353554-1.222908-1.866398-2.973822-2.747387-5.460265-2.747387-4.461655 0-7.830639 4.444772-6.720758 8.866858.188374.750559 2.315865 3.266981 5.11028 6.044529 5.152629 5.121523 6.324987 6.950271 6.324987 9.86632 0 1.507501-.272151 2.096748-1.411034 3.055049-1.840138 1.548375-3.837088 1.88365-9.143229 1.53511-4.823498-.316851-8.861258.241762-9.661895 1.33668-.426371.58311-1.46815.690584-5.640383.581891l-5.11743-.13332 2.678203-1.54795c2.729612-1.577671 3.358591-2.411129 1.819575-2.411129-.472251 0-2.071349-.41723-3.553548-.927188l-2.694909-.927188.259164 1.597008c.304869 1.878709.10262 2.074135-3.556998 3.436726-2.121941.79006-3.740225 1.012604-7.363431 1.012604-2.999114 0-4.541101-.166141-4.35387-.469084zm4.422799-.434979c0-.86209-.930769-.988804-2.201382-.299679l-1.291922.700672 1.746652.01861c.960662.0098 1.746652-.17858 1.746652-.419635zm4.657738-.02742c0-.256171-.406826-.465776-.904052-.465776-.497237 0-1.033596.209605-1.191924.465776-.163268.26417.228051.465776.904053.465776.655564 0 1.191923-.209594 1.191923-.465776zm16.408491-1.368544c-.06954-.624615-.237942-1.247119-.374168-1.383344-.341695-.341706-4.389967 1.848609-4.389967 2.375184 0 .23396 1.100392.362035 2.445311.284607 2.283653-.131481 2.436952-.215863 2.318824-1.276447zm-12.86996-3.201758c-.801617-1.550149-2.038637-2.637319-1.549007-1.361362.156598.4081.428559 1.508655.604342 2.44567.280449 1.494921.403082 1.62022 1.000763 1.022528.597681-.597681.590815-.855843-.05615-2.106836zm33.257621-18.718408c0-1.055397-.808491-1.179865-2.539842-.391011-1.727752.787217-1.45382 1.322559.676746 1.322559 1.552579 0 1.863096-.155258 1.863096-.931548zm-55.108099-9.814007c1.492832-.567584 1.00602-1.030616-1.599892-1.521755-1.376935-.259511-1.513759-.181101-1.513759.867491 0 1.296955.916665 1.489573 3.113651.654264zm-8.076182-3.775491c.80807-.55748 1.538603-1.063524 1.623398-1.124544.294314-.211773-.887979-2.053823-1.318202-2.053823-.4525 0-2.795048 3.213573-2.795048 3.834315 0 .639775.989577.379072 2.489852-.655948zm6.622037-.911986 1.368022-1.459812-2.078499.316705c-2.481222.37807-2.515556.404508-2.124607 1.636269.428134 1.348951 1.241373 1.20749 2.835084-.493162zm43.637011-.427775c1.71506-.476297 2.411912-1.838253 1.294044-2.529136-.579497-.358147-2.704942 1.025345-3.308881 2.153814-.535118.999864-.354906 1.033433 2.014837.375322zm.815111-5.797685c0-1.293731-.52588-1.419761-2.72514-.653097-2.363518.823929-1.761756 1.708539 1.21137 1.780761 1.31397.03192 1.51377-.116916 1.51377-1.127664zm6.260558-2.051666c.143259-.231802-.716887-.99423-1.911444-1.694287-2.075223-1.216161-2.199652-1.234908-2.794743-.421068-1.286273 1.759083-.646804 2.253264 3.192319 2.467024.689365.03838 1.370601-.119867 1.513868-.351669zm-32.073152-5.362661c-.344481-1.836279-.777458-2.267832-1.858936-1.852832-1.017577.390482-.93622.812266.481708 2.497372 1.451838 1.725421 1.791977 1.566239 1.377228-.64454zm4.370237-2.017596c-.0087-.192133-.518729-.963408-1.132255-1.713946-.94842-1.160205-1.224984-1.273759-1.846345-.758073-1.031442.856017-.916208 1.293715.550038 2.089163 1.404652.762036 2.45468.92757 2.428562.382856zm-2.29077-5.745624c.285945-.534293.407795-1.08354.270786-1.22055-.406347-.406348-4.615286-1.092503-4.907717-.800072-.339105.339108 2.787778 2.962626 3.551198 2.979532.311214.0069.799788-.424619 1.085733-.95891z" fill="#fffffe" stroke-width=".465774"/></svg>