<svg height="96" width="96" xmlns="http://www.w3.org/2000/svg" xmlns:xlink="http://www.w3.org/1999/xlink"><linearGradient id="a"><stop offset="0" stop-color="#fefefe"/><stop offset="1" stop-color="#fefefe" stop-opacity="0"/></linearGradient><linearGradient id="b"><stop offset="0" stop-color="#fefefe"/><stop offset=".66666669" stop-color="#dbdbdb"/><stop offset="1" stop-color="#979797"/></linearGradient><linearGradient id="c"><stop offset="0" stop-color="#fefefe"/><stop offset=".5" stop-color="#dbdbdb"/><stop offset="1" stop-color="#979797"/></linearGradient><linearGradient id="d"><stop offset="0" stop-color="#ebebeb"/><stop offset="1" stop-color="#b4b4b4"/></linearGradient><linearGradient id="e" gradientUnits="userSpaceOnUse" x1="36.357143" x2="36.357143" xlink:href="#a" y1="6" y2="63.893143"/><radialGradient id="f" cx="48" cy="90.171875" gradientTransform="matrix(1.1573129 0 0 .99590774 -7.551021 .197132)" gradientUnits="userSpaceOnUse" r="42" xlink:href="#a"/><linearGradient id="g" gradientUnits="userSpaceOnUse" x1="48" x2="48" y1="90" y2="5.987717"><stop offset="0" stop-color="#1e1e1e"/><stop offset="1" stop-color="#464646"/></linearGradient><linearGradient id="h" gradientTransform="matrix(1.0058652 0 0 .994169 100 0)" gradientUnits="userSpaceOnUse" x1="45.447727" x2="45.447727" y1="92.539597" y2="7.01654"><stop offset="0"/><stop offset="1" stop-opacity=".588235"/></linearGradient><linearGradient id="i" gradientTransform="matrix(1.0238095 0 0 1.0119048 -1.142857 -98.071429)" gradientUnits="userSpaceOnUse" x1="32.251034" x2="32.251034" xlink:href="#h" y1="6.131708" y2="90.238609"/><linearGradient id="j" gradientTransform="translate(0 -97)" gradientUnits="userSpaceOnUse" x1="32.251034" x2="32.251034" xlink:href="#h" y1="6.131708" y2="90.238609"/><radialGradient id="k" cx="53" cy="53.571438" gradientTransform="matrix(.15384596 0 0 .10256399 44.846164 -35.4945)" gradientUnits="userSpaceOnUse" r="39.00005" xlink:href="#c"/><radialGradient id="l" cx="48" cy="48" gradientUnits="userSpaceOnUse" r="12"><stop offset="0" stop-color="#872525"/><stop offset="1" stop-color="#501616"/></radialGradient><radialGradient id="m" cx="40" cy="25.714258" gradientTransform="matrix(1 0 0 .35897391 0 -49.230748)" gradientUnits="userSpaceOnUse" r="39.00005" xlink:href="#d"/><radialGradient id="n" cx="41.499992" cy="25.71426" gradientTransform="matrix(.15384596 .00000001 0 .12820497 40.615394 -43.296696)" gradientUnits="userSpaceOnUse" r="39.00005" xlink:href="#c"/><radialGradient id="o" cx="42" cy="53.571438" gradientTransform="matrix(.12820497 0 0 .10256399 36.615391 -35.4945)" gradientUnits="userSpaceOnUse" r="39.00005" xlink:href="#c"/><radialGradient id="p" cx="47.721432" cy="16.354246" gradientTransform="matrix(.00000002 .17948695 -.15384595 .00000002 49.516033 28.434626)" gradientUnits="userSpaceOnUse" r="39.00005" xlink:href="#b"/><radialGradient id="q" cx="40.582489" cy="50.077293" gradientTransform="matrix(-.00000004 .17948695 -.15384594 -.00000003 61.704191 41.715974)" gradientUnits="userSpaceOnUse" r="39.00005" xlink:href="#b"/><radialGradient id="r" cx="61.267521" cy="37.918289" gradientTransform="matrix(-.00000003 .17948694 -.15384596 0 45.833578 38.003281)" gradientUnits="userSpaceOnUse" r="39.00005" xlink:href="#b"/><radialGradient id="s" cx="35.524998" cy="37.26923" gradientTransform="matrix(2.1052632 -.00000022 .00000014 1.3684211 -39.789479 -13.999992)" gradientUnits="userSpaceOnUse" r="19" xlink:href="#c"/><radialGradient id="t" cx="36" cy="23" gradientTransform="matrix(1.175 0 0 .425 -6.3 28.225)" gradientUnits="userSpaceOnUse" r="40" xlink:href="#d"/><linearGradient id="u" gradientUnits="userSpaceOnUse" spreadMethod="reflect" x1="46" x2="68" xlink:href="#a" y1="45.371288" y2="60"/><radialGradient id="v" cx="48" cy="48.5" gradientTransform="matrix(1 0 0 .67857143 0 15.589286)" gradientUnits="userSpaceOnUse" r="42" xlink:href="#a"/><g fill="url(#i)"><path d="m12-95.03125c-5.5110903 0-10.03125 4.52016-10.03125 10.03125v71c0 5.5110902 4.5201598 10.03125 10.03125 10.03125h72c5.51109 0 10.03125-4.5201597 10.03125-10.03125v-71c0-5.51109-4.52016-10.03125-10.03125-10.03125z" opacity=".08" transform="scale(1 -1)"/><path d="m12-94.03125c-4.971633 0-9.03125 4.059617-9.03125 9.03125v71c0 4.9716329 4.0596171 9.03125 9.03125 9.03125h72c4.971633 0 9.03125-4.059617 9.03125-9.03125v-71c0-4.971633-4.059617-9.03125-9.03125-9.03125z" opacity=".1" transform="scale(1 -1)"/><path d="m12-93c-4.4091333 0-8 3.590867-8 8v71c0 4.4091333 3.5908667 8 8 8h72c4.409133 0 8-3.5908667 8-8v-71c0-4.409133-3.590867-8-8-8z" opacity=".2" transform="scale(1 -1)"/><rect height="85" opacity=".3" rx="7" transform="scale(1 -1)" width="86" x="5" y="-92"/></g><rect fill="url(#j)" height="84" opacity=".45" rx="6" transform="scale(1 -1)" width="84" x="6" y="-91"/><rect fill="url(#g)" height="84" rx="6" width="84" x="6" y="6"/><path d="m12 6c-3.324 0-6 2.676-6 6v2 68 2c0 .334721.04135.6507.09375.96875.0487.295596.09704.596915.1875.875.00988.03038.020892.0636.03125.09375.098865.287771.2348802.547452.375.8125.1445918.273507.3156161.535615.5.78125s.3737765.473472.59375.6875c.439947.428056.94291.814526 1.5 1.09375.278545.139612.5734731.246947.875.34375-.2562018-.100222-.4867109-.236272-.71875-.375-.00741-.0044-.023866.0045-.03125 0-.031933-.0193-.062293-.04251-.09375-.0625-.120395-.0767-.2310226-.163513-.34375-.25-.1061728-.0808-.2132809-.161112-.3125-.25-.1779299-.161433-.3474596-.345388-.5-.53125-.1075789-.130255-.2183939-.265285-.3125-.40625-.025089-.03838-.038446-.08587-.0625-.125-.064763-.103032-.1302275-.204517-.1875-.3125-.1010083-.194706-.2056748-.415701-.28125-.625-.00796-.02181-.023589-.04055-.03125-.0625-.0318251-.09195-.0358045-.186831-.0625-.28125-.0303323-.106618-.0703894-.203031-.09375-.3125-.0728786-.341512-.125-.698205-.125-1.0625v-2-68-2c0-2.781848 2.2181517-5 5-5h2 68 2c2.781848 0 5 2.218152 5 5v2 68 2c0 .364295-.05212.720988-.125 1.0625-.04415.206893-.08838.397658-.15625.59375-.0077.02195-.0233.04069-.03125.0625-.06274.173739-.138383.367449-.21875.53125-.04158.0828-.07904.169954-.125.25-.0546.09721-.126774.18835-.1875.28125-.09411.140965-.204921.275995-.3125.40625-.143174.17445-.303141.346998-.46875.5-.01117.0102-.01998.02115-.03125.03125-.138386.125556-.285091.234436-.4375.34375-.102571.07315-.204318.153364-.3125.21875-.0074.0045-.02384-.0044-.03125 0-.232039.138728-.462548.274778-.71875.375.301527-.0968.596455-.204138.875-.34375.55709-.279224 1.060053-.665694 1.5-1.09375.219973-.214028.409366-.441865.59375-.6875s.355408-.507743.5-.78125c.14012-.265048.276135-.524729.375-.8125.01041-.03078.02133-.06274.03125-.09375.09046-.278085.1388-.579404.1875-.875.0524-.31805.09375-.634029.09375-.96875v-2-68-2c0-3.324-2.676-6-6-6z" fill="url(#e)" opacity=".2"/><path d="m12 90c-3.324 0-6-2.676-6-6v-2-68-2c0-.334721.04135-.6507.09375-.96875.0487-.295596.09704-.596915.1875-.875.00988-.03038.020892-.0636.03125-.09375.098865-.287771.2348802-.547452.375-.8125.1445918-.273507.3156161-.535615.5-.78125s.3737765-.473472.59375-.6875c.439947-.428056.94291-.814526 1.5-1.09375.278545-.139612.5734731-.246947.875-.34375-.2562018.100222-.4867109.236272-.71875.375-.00741.0044-.023866-.0045-.03125 0-.031933.0193-.062293.04251-.09375.0625-.120395.0767-.2310226.163513-.34375.25-.1061728.0808-.2132809.161112-.3125.25-.1779299.161433-.3474596.345388-.5.53125-.1075789.130255-.2183939.265285-.3125.40625-.025089.03838-.038446.08587-.0625.125-.064763.103032-.1302275.204517-.1875.3125-.1010083.194706-.2056748.415701-.28125.625-.00796.02181-.023589.04055-.03125.0625-.0318251.09195-.0358045.186831-.0625.28125-.0303323.106618-.0703894.203031-.09375.3125-.0728786.341512-.125.698205-.125 1.0625v2 68 2c0 2.781848 2.2181517 5 5 5h2 68 2c2.781848 0 5-2.218152 5-5v-2-68-2c0-.364295-.05212-.720988-.125-1.0625-.04415-.206893-.08838-.397658-.15625-.59375-.0077-.02195-.0233-.04069-.03125-.0625-.06274-.173739-.138383-.367449-.21875-.53125-.04158-.0828-.07904-.169954-.125-.25-.0546-.09721-.126774-.18835-.1875-.28125-.09411-.140965-.204921-.275995-.3125-.40625-.143174-.17445-.303141-.346998-.46875-.5-.01117-.0102-.01998-.02115-.03125-.03125-.138386-.125556-.285091-.234436-.4375-.34375-.102571-.07315-.204318-.153364-.3125-.21875-.0074-.0045-.02384.0044-.03125 0-.232039-.138728-.462548-.274778-.71875-.375.301527.0968.596455.204138.875.34375.55709.279224 1.060053.665694 1.5 1.09375.219973.214028.409366.441865.59375.6875s.355408.507743.5.78125c.14012.265048.276135.524729.375.8125.01041.03078.02133.06274.03125.09375.09046.278085.1388.579404.1875.875.0524.31805.09375.634029.09375.96875v2 68 2c0 3.324-2.676 6-6 6z" fill="url(#f)" opacity=".1"/><path d="m6 20v1h84v-1zm0 2v1h84v-1zm0 2v1h84v-1zm0 2v1h84v-1zm0 2v1h84v-1zm0 2v1h84v-1zm0 2v1h84v-1zm0 2v1h84v-1zm0 2v1h84v-1zm0 2v1h84v-1zm0 2v1h84v-1zm0 2v1h84v-1zm0 2v1h84v-1zm0 2v1h84v-1zm0 2v1h84v-1zm0 2v1h84v-1zm0 2v1h84v-1zm0 2v1h84v-1zm0 2v1h84v-1zm0 2v1h84v-1zm0 2v1h84v-1zm0 2v1h84v-1zm0 2v1h84v-1zm0 2v1h84v-1zm0 2v1h84v-1zm0 2v1h84v-1zm0 2v1h84v-1zm0 2v1h84v-1zm0 2v1h84v-1z" fill="url(#v)" opacity=".2"/><path d="m60 48a12 12 0 1 1 -24 0 12 12 0 1 1 24 0z" fill="url(#l)" transform="matrix(1.25 0 0 1.25 -12 -13)"/><path d="m47.96875 37a.48954807.48954807 0 0 0 -.40625.25l-.875 1.5-7 12-.875 1.5a.48954807.48954807 0 0 0 .4375.75h1.75 14 1.75a.48954807.48954807 0 0 0 .4375-.75l-.875-1.5-7-12-.875-1.5a.48954807.48954807 0 0 0 -.46875-.25zm.03125 5.5 4.375 7.5h-8.75z" opacity=".15"/><path d="m48 37.5-.875 1.5-7 12-.875 1.5h1.75 14 1.75l-.875-1.5-7-12zm0 4 5.25 9h-10.5z" opacity=".3"/><path d="m48 26.9375c-4.757863-.02298-9.448929 1.756046-13.125 4.75-1.176254-1.33243-3.203286-.529724-4.761308-.75-7.5059.02093-15.017746-.0418-22.519942.03125-2.2067148.490271-1.6328436 3.143605-1.5927453 4.790018.00856 1.622361.2762742 3.41379.6864953 4.834982.1979119 2.639404 1.0972764 5.304027 2.21875 7.6875.7969996.442839.2648158 1.500694.9170403 2.153115 1.3896417 2.327539 2.8888767 4.853671 5.1142097 6.440635 1.306446-.167471.853525 1.239901 1.78125 1.75 4.00878 3.142793 8.788768 5.36018 13.75 6.4375 1.447267-.188656 3.33354.528247 4.40625-.75 6.630902 5.626722 16.855121 6.345387 24.126062 1.520454 1.415555-1.491196 2.2237-1.327654 3.874603-.770454 2.099271.131073 4.169745-.06461 6.114047-.950842 3.883586-1.391663 7.793241-3.232627 10.822788-6.049158.07044-1.552279 2.053002-.910582 2.635484-2.394107 1.612642-2.00389 3.610984-4.087851 4.208266-6.637143.559071-1.101387 1.420289-2.540316 1.705385-3.970079.661503-1.617837.776563-3.551192 1.107115-5.092421.609091-2.435559.652627-5.072806.5-7.5625-.653787-2.082821-3.154771-1.337051-4.791227-1.46875-7.640162.041949-15.298942-.083715-22.927523.0625-1.715898 1.455979-2.950677-1.215102-4.763321-1.705447-2.91258-1.531924-6.193118-2.36398-9.486679-2.357053zm0 8.125c7.170418-.221886 13.507805 6.458209 12.920754 13.606006-.146666 7.171569-7.143807 13.146767-14.248679 12.202542-7.154049-.512636-12.75556-7.803162-11.461251-14.848507.822816-6.17538 6.560319-11.086929 12.789176-10.960041z" opacity=".1"/><path d="m48 28c-5.515482 0-10.505206 2.255206-14.125 5.875-.836653.836653-1.571317 1.745417-2.25 2.71875.673533-.979236 1.414014-1.882235 2.25-2.71875.04739-.04742.07711-.109336.125-.15625a.99475633.99475633 0 0 0 -.6875-1.71875h-25.3125a.99475633.99475633 0 0 0 -1 1c0 2.090055.1042834 4.125749.375 6.125a.99475633.99475633 0 0 0 1 .875h.25a.99475633.99475633 0 0 0 -.875 1.1875c.4123573 2.155316 1.0282183 4.218369 1.84375 6.1875a.99475633.99475633 0 0 0 .90625.625h.8125a.99475633.99475633 0 0 0 -.78125 1.46875c1.164195 2.259797 2.647682 4.33584 4.5 6.21875a.99475633.99475633 0 0 0 .71875.3125h2.125a.99475633.99475633 0 0 0 -.53125 1.78125c3.328561 2.662791 7.587874 4.77927 12.875 6.1875a.99475633.99475633 0 0 0 .25.03125h2.84375a.99475633.99475633 0 0 0 .6875-1.71875c-.04789-.04691-.07761-.108833-.125-.15625-.835986-.836515-1.576467-1.739514-2.25-2.71875.678683.973333 1.413347 1.882097 2.25 2.71875 3.619794 3.619794 8.609518 5.875 14.125 5.875s10.505206-2.255206 14.125-5.875c.836653-.836653 1.571317-1.745417 2.25-2.71875-.673533.979236-1.414014 1.882235-2.25 2.71875-.04739.04742-.07711.109336-.125.15625a.99475633.99475633 0 0 0 .6875 1.71875h2.84375a.99475633.99475633 0 0 0 .25-.03125c5.287125-1.40823 9.546439-3.524709 12.875-6.1875a.99475633.99475633 0 0 0 -.5625-1.78125h2.15625a.99475633.99475633 0 0 0 .71875-.3125c1.852318-1.88291 3.335805-3.958953 4.5-6.21875a.99475633.99475633 0 0 0 -.84375-1.46875h.875a.99475633.99475633 0 0 0 .90625-.625c.815532-1.969131 1.431393-4.032184 1.84375-6.1875a.99475633.99475633 0 0 0 -.90625-1.1875h.28125a.99475633.99475633 0 0 0 1-.875c.270717-1.999251.375-4.034945.375-6.125a.99475633.99475633 0 0 0 -1-1h-25.3125a.99475633.99475633 0 0 0 -.6875 1.71875c.04789.04691.07761.108833.125.15625.835986.836515 1.576467 1.739514 2.25 2.71875-.678683-.973333-1.413347-1.882097-2.25-2.71875-3.619794-3.619794-8.609518-5.875-14.125-5.875zm0 6c7.746718 0 14 6.253282 14 14s-6.253282 14-14 14-14-6.253282-14-14 6.253282-14 14-14zm-17.34375 4.25c-.670514 1.190286-1.207269 2.456387-1.625 3.78125.07007-.220963.04778-.469251.125-.6875a.99475633.99475633 0 0 0 -.8125-1.34375h.71875a.99475633.99475633 0 0 0 .90625-.5625c.197708-.415344.464604-.788311.6875-1.1875zm34.6875 0c.222896.399189.489792.772156.6875 1.1875a.99475633.99475633 0 0 0 .90625.5625h.75a.99475633.99475633 0 0 0 -.84375 1.34375c.07722.218249.05493.466537.125.6875-.417731-1.324863-.954486-2.590964-1.625-3.78125zm-37.1875 8.09375c-.04629.554326-.15625 1.090101-.15625 1.65625s.10996 1.101924.15625 1.65625c-.01993-.238142-.113836-.446617-.125-.6875a.99475633.99475633 0 0 0 -.875-.96875.99475633.99475633 0 0 0 .875-.96875c.01116-.240883.105073-.449359.125-.6875zm39.6875 0c.01993.238142.113836.446617.125.6875a.99475633.99475633 0 0 0 .875.96875.99475633.99475633 0 0 0 -.875.96875c-.01116.240884-.105072.449358-.125.6875.04629-.554326.15625-1.090101.15625-1.65625s-.10996-1.101924-.15625-1.65625zm-38.8125 7.625c.417731 1.324863.954486 2.590964 1.625 3.78125-.222896-.399189-.489792-.772156-.6875-1.1875a.99475633.99475633 0 0 0 -.90625-.5625h-.75a.99475633.99475633 0 0 0 .84375-1.34375c-.07722-.218249-.05493-.466537-.125-.6875zm37.9375 0c-.07007.220963-.04778.469251-.125.6875a.99475633.99475633 0 0 0 .8125 1.34375h-.71875a.99475633.99475633 0 0 0 -.90625.5625c-.197708.415344-.464604.788311-.6875 1.1875.670514-1.190286 1.207269-2.456387 1.625-3.78125z" opacity=".15"/><path d="m48 29c-10.493411 0-19 8.506589-19 19s8.506589 19 19 19 19-8.506589 19-19-8.506589-19-19-19zm-40 4c0 2.054081.111435 4.053564.375 6h20.6875c1.068279-2.244229 2.49482-4.280771 4.25-6zm40 0c8.284271 0 15 6.715729 15 15s-6.715729 15-15 15-15-6.715729-15-15 6.715729-15 15-15zm14.6875 0c1.75518 1.719229 3.181721 3.755771 4.25 6h20.6875c.263565-1.946436.375-3.945919.375-6zm-53.96875 8c.400348 2.092545.992724 4.096075 1.78125 6h16.53125c.09739-2.101526.516685-4.104188 1.1875-6zm59.0625 0c.670815 1.895812 1.090105 3.898474 1.1875 6h16.53125c.788526-1.903925 1.380902-3.907455 1.78125-6zm-56.375 8c1.119582 2.173199 2.561949 4.188772 4.34375 6h12.46875c-.670815-1.895812-1.090105-3.898474-1.1875-6zm57.5625 0c-.0974 2.101526-.516685 4.104188-1.1875 6h12.46875c1.781801-1.811228 3.224168-3.826801 4.34375-6zm-51 8c3.206706 2.565309 7.323773 4.621308 12.5 6h2.84375c-1.75518-1.719229-3.181721-3.755771-4.25-6zm48.96875 0c-1.068279 2.244229-2.49482 4.280771-4.25 6h2.84375c5.176226-1.378692 9.293294-3.434691 12.5-6z" opacity=".3"/><path d="m60 48a12 12 0 1 1 -24 0 12 12 0 1 1 24 0z" fill="url(#l)" transform="translate(0 -80)"/><path d="m9-46c-.0001094.03132 0 .06241 0 .09375 0 1.29971.1116757 2.605892.34375 3.90625h26.15625c1.307305-1.633095 2.938239-2.981704 4.78125-4zm46.71875 0c1.843011 1.018296 3.473945 2.366905 4.78125 4h26.15625c.228516-1.291341.34375-2.606468.34375-3.90625 0-.03134.000109-.06243 0-.09375zm-45.90625 6c.368959 1.352442.876137 2.691035 1.5 4h21.21875c.366278-1.416546.908952-2.764213 1.625-4zm52.03125 0c.716048 1.235787 1.258722 2.583454 1.625 4h21.21875c.628396-1.309154 1.130226-2.640651 1.5-4zm-49.46875 6c.821505 1.386908 1.78306 2.719996 2.90625 4h16.875c-.082996-.66024-.15625-1.317251-.15625-2s.07325-1.33976.15625-2zm51.46875 0c.083.66024.15625 1.317251.15625 2s-.07325 1.33976-.15625 2h16.8125c1.144983-1.282216 2.134437-2.605261 2.96875-4zm-46.625 6c1.543538 1.449648 3.302364 2.796014 5.28125 4h11.65625c-.716048-1.235787-1.258722-2.583454-1.625-4zm46.25 0c-.366278 1.416546-.908952 2.764213-1.625 4h11.46875c2.018363-1.198929 3.803054-2.55327 5.375-4zm-37.21875 6c3.858394 1.769179 8.377419 3.067704 13.53125 3.71875-1.635677-.982899-3.094184-2.235858-4.28125-3.71875zm34.25 0c-1.130901 1.41273-2.521504 2.600637-4.0625 3.5625 4.925874-.683182 9.265106-1.89604 13-3.5625z" fill="url(#m)"/><path d="m48-46c-7.731986 0-14 6.268014-14 14s6.268014 14 14 14 14-6.268014 14-14-6.268014-14-14-14zm0 2c6.627417 0 12 5.372583 12 12s-5.372583 12-12 12-12-5.372583-12-12 5.372583-12 12-12z" fill="url(#m)"/><path d="m48-43c-2.485282 0-4.5 2.014718-4.5 4.5s2.014718 4.5 4.5 4.5 4.5-2.014718 4.5-4.5-2.014718-4.5-4.5-4.5z" fill="url(#n)"/><path d="m44.125-35.21875-.8125 1.46875c.992585.189772 1.949053.644026 2.6875 1.375l.65625-1.21875c-.999571-.276283-1.878082-.854992-2.53125-1.625z" opacity=".5"/><path d="m51.875-35.21875c-.653168.770008-1.531679 1.348717-2.53125 1.625l.65625 1.21875c.738447-.730974 1.694915-1.185228 2.6875-1.375z" opacity=".5"/><path d="m42.6875-33.25c-.864588-.0611-1.755381.12776-2.5625.59375-2.152317 1.242641-2.898891 4.003933-1.65625 6.15625s4.003933 2.898891 6.15625 1.65625 2.898891-4.003933 1.65625-6.15625c-.776651-1.345198-2.152769-2.148164-3.59375-2.25z" fill="url(#o)"/><path d="m53.3125-33.25c-1.440981.101836-2.817099.904802-3.59375 2.25-1.242641 2.152317-.496067 4.913609 1.65625 6.15625s4.913609.496067 6.15625-1.65625.496067-4.913609-1.65625-6.15625c-.807119-.46599-1.697912-.654851-2.5625-.59375z" fill="url(#k)"/><path d="m47.375-29.90625c.231767 1.012134.116572 2.050424-.25 3h1.75c-.366572-.949576-.481767-1.987866-.25-3z" opacity=".5"/><path d="m9-46c-.0001094.03132 0 .06241 0 .09375 0 .30376.018939.60194.03125.90625h29.65625c.510774-.362859 1.041962-.695128 1.59375-1zm39 0c-7.731986 0-14 6.268014-14 14 0 .168225.02537.33321.03125.5.264589-7.499218 6.404989-13.5 13.96875-13.5s13.704161 6.000782 13.96875 13.5c.005885-.16679.03125-.331775.03125-.5 0-7.731986-6.268014-14-14-14zm7.71875 0c.551788.304872 1.082976.637141 1.59375 1h29.65625c.01217-.300117.03125-.607281.03125-.90625 0-.03134.000109-.06243 0-.09375zm-7.71875 3c-2.485282 0-4.5 2.014718-4.5 4.5 0 .171777.04376.333229.0625.5.252389-2.246086 2.123995-4 4.4375-4s4.185111 1.753914 4.4375 4c.01874-.166771.0625-.328223.0625-.5 0-2.485282-2.014718-4.5-4.5-4.5zm-38.1875 3c.09054.331879.205632.670022.3125 1h23.5c.165869-.34372.340793-.671301.53125-1zm52.03125 0c.190457.328699.365381.65628.53125 1h23.5c.106563-.330301.22176-.666426.3125-1zm-49.46875 6c.198128.33449.410277.671761.625 1h19.0625c.02869-.332126.05225-.66988.09375-1zm51.46875 0c.0415.33012.06506.667874.09375 1h19.0625c.21927-.328471.423783-.663622.625-1zm-21.8125.75c-.653117.04918-1.300911.244258-1.90625.59375-1.604641.92644-2.418611 2.704509-2.21875 4.4375.149898-1.38408.923506-2.689691 2.21875-3.4375.605339-.349492 1.253133-.54457 1.90625-.59375.217706-.0164.440103-.01528.65625 0 1.440981.101836 2.817099.904802 3.59375 2.25.31066.538079.491375 1.106543.5625 1.6875.09188-.906385-.07323-1.840061-.5625-2.6875-.776651-1.345198-2.152769-2.148164-3.59375-2.25-.216147-.01528-.438544-.0164-.65625 0zm11.28125 0c-1.440981.101836-2.817099.904802-3.59375 2.25-.489269.847439-.654376 1.781115-.5625 2.6875.07113-.580957.25184-1.149421.5625-1.6875.776651-1.345198 2.152769-2.148164 3.59375-2.25.864588-.0611 1.755381.12776 2.5625.59375 1.295244.747809 2.068852 2.05342 2.21875 3.4375.199861-1.732991-.614109-3.51106-2.21875-4.4375-.807119-.46599-1.697912-.654851-2.5625-.59375zm-21.28125 1.75c-.008164.167923-.03125.329313-.03125.5 0 .341375.03381.667874.0625 1h.09375c-.06225-.49518-.100507-.996232-.125-1.5zm4 0c-.007003.16831-.03125.329969-.03125.5 0 6.627417 5.372583 12 12 12s12-5.372583 12-12c0-.170031-.02425-.33169-.03125-.5-.265962 6.392009-5.511364 11.5-11.96875 11.5s-11.702788-5.107991-11.96875-11.5zm27.9375 0c-.02449.503768-.06275 1.00482-.125 1.5h.09375c.028688-.332126.0625-.658625.0625-1 0-.170687-.02309-.332077-.03125-.5zm-46.75 3.5c.364512.34234.736412.669695 1.125 1h14.1875c.268854 1.039768.636014 2.051459 1.09375 3h.53125c-.716048-1.235787-1.258722-2.583454-1.625-4zm46.25 0c-.366278 1.416546-.908952 2.764213-1.625 4h.53125c.457736-.948541.824896-1.960232 1.09375-3h14.0625c.395601-.330801.784696-.658043 1.15625-1zm-37.21875 6c.761969.349383 1.561701.688689 2.375 1h6.875c.734903.918047 1.579392 1.73648 2.5 2.46875.584033.09331 1.179891.174035 1.78125.25-1.635677-.982899-3.094184-2.235858-4.28125-3.71875zm34.25 0c-1.130901 1.41273-2.521504 2.600637-4.0625 3.5625.595001-.08252 1.172149-.183405 1.75-.28125.843602-.6864 1.632794-1.432156 2.3125-2.28125h6.4375c.860427-.316112 1.695479-.641033 2.5-1z" fill="#fefefe" opacity=".4"/><path d="m8 32c0 2.054081.1114352 4.053564.375 6h20.6875c1.068279-2.244229 2.49482-4.280771 4.25-6zm54.6875 0c1.75518 1.719229 3.181721 3.755771 4.25 6h20.6875c.263565-1.946436.375-3.945919.375-6zm-53.96875 8c.4003477 2.092545.9927241 4.096075 1.78125 6h16.53125c.09739-2.101526.516685-4.104188 1.1875-6zm59.0625 0c.670815 1.895812 1.090105 3.898474 1.1875 6h16.53125c.788526-1.903925 1.380902-3.907455 1.78125-6zm-56.375 8c1.119582 2.173199 2.561949 4.188772 4.34375 6h12.46875c-.670815-1.895812-1.090105-3.898474-1.1875-6zm57.5625 0c-.0974 2.101526-.516685 4.104188-1.1875 6h12.46875c1.781801-1.811228 3.224168-3.826801 4.34375-6zm-51 8c3.206706 2.565309 7.323773 4.621308 12.5 6h2.84375c-1.75518-1.719229-3.181721-3.755771-4.25-6zm48.96875 0c-1.068279 2.244229-2.49482 4.280771-4.25 6h2.84375c5.176226-1.378692 9.293294-3.434691 12.5-6z" fill="url(#t)"/><path d="m48 28c-10.493411 0-19 8.506589-19 19s8.506589 19 19 19 19-8.506589 19-19-8.506589-19-19-19zm0 4c8.284271 0 15 6.715729 15 15s-6.715729 15-15 15-15-6.715729-15-15 6.715729-15 15-15z" fill="url(#s)"/><path d="m48 37-.875 1.5-7 12-.875 1.5h1.75 14 1.75l-.875-1.5-7-12zm0 4 5.25 9h-10.5z" fill="#ccc"/><path d="m48 33.28125c-3.413178 0-6.21875 2.805572-6.21875 6.21875s2.805572 6.21875 6.21875 6.21875 6.21875-2.805572 6.21875-6.21875-2.805572-6.21875-6.21875-6.21875zm-6.53125 12c-1.198136-.08467-2.39861.207862-3.5.84375-2.959837 1.708862-3.953524 5.51816-2.25 8.46875 1.703224 2.95007 5.483645 3.986658 8.4375 2.28125 2.955891-1.706584 3.988428-5.511831 2.28125-8.46875-1.067104-1.848278-2.977461-2.984273-4.96875-3.125zm13.0625 0c-1.991289.140727-3.901646 1.276722-4.96875 3.125-1.707178 2.956919-.674641 6.762166 2.28125 8.46875 2.953855 1.705408 6.734276.66882 8.4375-2.28125 1.703524-2.95059.709837-6.759888-2.25-8.46875-1.101389-.635886-2.301861-.928425-3.5-.84375z" opacity=".1"/><path d="m48 33.9375c-3.05935 0-5.5625 2.50315-5.5625 5.5625s2.50315 5.5625 5.5625 5.5625 5.5625-2.50315 5.5625-5.5625-2.50315-5.5625-5.5625-5.5625zm-6.5625 12c-1.065484-.0753-2.162812.176438-3.15625.75-2.651852 1.531047-3.529113 4.945249-2 7.59375 1.528206 2.64693 4.91268 3.561124 7.5625 2.03125 2.65005-1.530007 3.562164-4.94213 2.03125-7.59375-.957074-1.657701-2.657876-2.655482-4.4375-2.78125zm13.125 0c-1.779624.125768-3.480426 1.123549-4.4375 2.78125-1.530914 2.65162-.6188 6.063743 2.03125 7.59375 2.64982 1.529874 6.034294.61568 7.5625-2.03125 1.529113-2.648501.651852-6.062703-2-7.59375-.993438-.573561-2.090765-.8253-3.15625-.75z" opacity=".15"/><path d="m48 34.488987c-2.761424 0-5 2.238576-5 5s2.238576 5 5 5 5-2.238576 5-5-2.238576-5-5-5zm-6.59375 12c-.960654-.06789-1.946951.138483-2.84375.65625-2.391464 1.380712-3.193212 4.452287-1.8125 6.84375s4.421036 3.224462 6.8125 1.84375c2.391463-1.380712 3.224462-4.452287 1.84375-6.84375-.862945-1.494664-2.398911-2.386849-4-2.5zm13.1875 0c-1.601089.113151-3.137055 1.005336-4 2.5-1.380712 2.391463-.547713 5.463038 1.84375 6.84375 2.391464 1.380712 5.431788.547713 6.8125-1.84375s.578964-5.463038-1.8125-6.84375c-.896799-.517767-1.883096-.724141-2.84375-.65625z" opacity=".3"/><path d="m48 34c-2.761424 0-5 2.238576-5 5s2.238576 5 5 5 5-2.238576 5-5-2.238576-5-5-5z" fill="url(#p)"/><path d="m59.25833 53.5c1.380712-2.391463.561337-5.449415-1.830127-6.830127-2.391463-1.380712-5.449415-.561336-6.830127 1.830127s-.561336 5.449415 1.830127 6.830127c2.391464 1.380712 5.449415.561336 6.830127-1.830127z" fill="url(#q)"/><path d="m36.74167 53.5c1.380712 2.391463 4.438663 3.210839 6.830127 1.830127 2.391463-1.380712 3.210839-4.438664 1.830127-6.830127s-4.438664-3.210839-6.830127-1.830127c-2.391464 1.380712-3.210839 4.438664-1.830127 6.830127z" fill="url(#r)"/><path d="m48 28c-10.493411 0-19 8.506589-19 19s8.506589 19 19 19 19-8.506589 19-19-8.506589-19-19-19zm-40 4c0 2.054081.111435 4.053564.375 6h20.6875c1.068279-2.244229 2.49482-4.280771 4.25-6zm40 0c8.284271 0 15 6.715729 15 15s-6.715729 15-15 15-15-6.715729-15-15 6.715729-15 15-15zm14.6875 0c1.75518 1.719229 3.181721 3.755771 4.25 6h20.6875c.263565-1.946436.375-3.945919.375-6zm-53.96875 8c.400348 2.092545.992724 4.096075 1.78125 6h16.53125c.09739-2.101526.516685-4.104188 1.1875-6zm59.0625 0c.670815 1.895812 1.090105 3.898474 1.1875 6h16.53125c.788526-1.903925 1.380902-3.907455 1.78125-6zm-56.375 8c1.119582 2.173199 2.561949 4.188772 4.34375 6h12.46875c-.670815-1.895812-1.090105-3.898474-1.1875-6zm57.5625 0c-.0974 2.101526-.516685 4.104188-1.1875 6h12.46875c1.781801-1.811228 3.224168-3.826801 4.34375-6zm-51 8c3.206706 2.565309 7.323773 4.621308 12.5 6h2.84375c-1.75518-1.719229-3.181721-3.755771-4.25-6zm48.96875 0c-1.068279 2.244229-2.49482 4.280771-4.25 6h2.84375c5.176226-1.378692 9.293294-3.434691 12.5-6z" fill="url(#u)"/><path d="m48 28c-10.493411 0-19 8.506589-19 19 0 .169364.02685.331699.03125.5.26849-10.259277 8.644703-18.5 18.96875-18.5s18.70026 8.240723 18.96875 18.5c.004405-.168301.03125-.330636.03125-.5 0-10.493411-8.506589-19-19-19zm-40 4c0 .338821.025003.664143.03125 1h24.34375c.30462-.342428.609771-.678984.9375-1zm54.6875 0c.327729.321016.63288.657572.9375 1h24.34375c.006247-.335857.03125-.661179.03125-1zm-53.96875 8c.064039.334719.1448676.669879.21875 1h18.96875c.100737-.334756.196304-.671614.3125-1zm59.0625 0c.116196.328386.211763.665244.3125 1h18.96875c.07388-.330121.154711-.665281.21875-1zm-34.75 7.5c-.00556.167863-.03125.330784-.03125.5 0 8.284271 6.715729 15 15 15s15-6.715729 15-15c0-.169216-.02569-.332137-.03125-.5-.266646 8.050181-6.853695 14.5-14.96875 14.5s-14.702104-6.449819-14.96875-14.5zm-21.625.5c.175158.339996.371477.667899.5625 1h15.0625c.08053 1.737507.39417 3.402168.875 5h.3125c-.670815-1.895812-1.090105-3.898474-1.1875-6zm57.5625 0c-.0974 2.101526-.516685 4.104188-1.1875 6h.3125c.480829-1.597832.794471-3.262493.875-5h15.0625c.191023-.332101.387342-.660004.5625-1zm-51 8c.42947.343568.881265.675106 1.34375 1h9.75c.868809 1.825185 1.9857 3.508523 3.3125 5h.9375c-1.75518-1.719229-3.181721-3.755771-4.25-6zm48.96875 0c-1.068279 2.244229-2.49482 4.280771-4.25 6h.9375c1.3268-1.491477 2.443691-3.174815 3.3125-5h9.75c.462485-.324894.91428-.656432 1.34375-1z" fill="#fefefe" opacity=".6"/></svg>