<svg height="96" width="96" xmlns="http://www.w3.org/2000/svg" xmlns:xlink="http://www.w3.org/1999/xlink"><linearGradient id="a" gradientTransform="matrix(1.0058652 0 0 .994169 100 0)" gradientUnits="userSpaceOnUse" x1="45.447727" x2="45.447727" y1="92.539597" y2="7.01654"><stop offset="0"/><stop offset="1" stop-opacity=".588235"/></linearGradient><linearGradient id="b" gradientTransform="matrix(1.0238095 0 0 1.0119048 -1.142857 -98.071429)" gradientUnits="userSpaceOnUse" x1="32.251034" x2="32.251034" xlink:href="#a" y1="6.131708" y2="90.238609"/><linearGradient id="c" gradientTransform="translate(0 -97)" gradientUnits="userSpaceOnUse" x1="32.251034" x2="32.251034" xlink:href="#a" y1="6.131708" y2="90.238609"/><linearGradient id="d" gradientUnits="userSpaceOnUse" x1="36.357143" x2="36.357143" xlink:href="#e" y1="6" y2="63.893143"/><linearGradient id="e"><stop offset="0" stop-color="#fefefe"/><stop offset="1" stop-color="#fefefe" stop-opacity="0"/></linearGradient><radialGradient id="f" cx="48" cy="90.171875" gradientTransform="matrix(1.1573129 0 0 .99590774 -7.551021 .197132)" gradientUnits="userSpaceOnUse" r="42" xlink:href="#e"/><linearGradient id="g" gradientUnits="userSpaceOnUse" x1="64" x2="64" y1="64" y2="8"><stop offset="0" stop-color="#d8d8d8"/><stop offset="1" stop-color="#f9f9f9"/></linearGradient><linearGradient id="h" gradientUnits="userSpaceOnUse" x1="24" x2="24" y1="88" y2="48"><stop offset="0" stop-color="#b5b5b5"/><stop offset="1" stop-color="#dedede"/></linearGradient><linearGradient id="i" gradientUnits="userSpaceOnUse" x1="72" x2="72" y1="88" y2="48"><stop offset="0" stop-color="#737373"/><stop offset="1" stop-color="#989898"/></linearGradient><linearGradient id="j" gradientUnits="userSpaceOnUse" x1="24" x2="24" y1="64" y2="8"><stop offset="0" stop-color="#f06805"/><stop offset="1" stop-color="#ffb03c"/></linearGradient><g><g fill="url(#b)"><path d="m12-95.03125c-5.5110903 0-10.03125 4.52016-10.03125 10.03125v71c0 5.5110902 4.5201598 10.03125 10.03125 10.03125h72c5.51109 0 10.03125-4.5201597 10.03125-10.03125v-71c0-5.51109-4.52016-10.03125-10.03125-10.03125z" opacity=".08" transform="scale(1 -1)"/><path d="m12-94.03125c-4.971633 0-9.03125 4.059617-9.03125 9.03125v71c0 4.9716329 4.0596171 9.03125 9.03125 9.03125h72c4.971633 0 9.03125-4.059617 9.03125-9.03125v-71c0-4.971633-4.059617-9.03125-9.03125-9.03125z" opacity=".1" transform="scale(1 -1)"/><path d="m12-93c-4.4091333 0-8 3.590867-8 8v71c0 4.4091333 3.5908667 8 8 8h72c4.409133 0 8-3.5908667 8-8v-71c0-4.409133-3.590867-8-8-8z" opacity=".2" transform="scale(1 -1)"/><rect height="85" opacity=".3" rx="7" transform="scale(1 -1)" width="86" x="5" y="-92"/></g><rect fill="url(#c)" height="84" opacity=".45" rx="6" transform="scale(1 -1)" width="84" x="6" y="-91"/></g><g><rect fill="#323232" height="84" rx="6" width="84" x="6" y="6"/><path d="m49.53125 49.53125v4.28125 3.1875 9.53125c-.0036.198326-.130801.38918-.3125.46875-1.1043.55215-2.840301.430683-5.28125-1.375-.359013-.189499-.853049-.481799-1.375-.71875s-1.06602-.401018-1.375-.40625c-1.286727 0-2.474281.750188-3.375 2.0625s-1.46875 3.161468-1.46875 5.21875.568631 3.914554 1.46875 5.21875c.885379 1.282839 2.04835 2.007282 3.3125 2.03125.02105.000399.0414 0 .0625 0 .949254-.126095 2.351515-.803879 2.6875-1.0625 2.484666-1.8635 4.236277-1.959987 5.34375-1.40625.181699.07957.308935.270424.3125.46875v12.96875h34.46875c3.324 0 6-2.676 6-6v-34.46875h-17.78125c-.232286.734967-.153994 1.930091 1.375 3.96875.470576.611343 1.198945 1.964322 1.34375 3.25.0012.02081.0012.04169 0 .0625 0 1.695612-1.014267 3.208803-2.53125 4.25s-3.561962 1.65625-5.8125 1.65625-4.303026-.614454-5.8125-1.65625-2.5-2.556211-2.5-4.25c.01027-.606331.269794-1.236568.53125-1.8125s.542376-1.103354.71875-1.4375c.01902-.02255.03995-.04348.0625-.0625 1.528994-2.038659 1.607286-3.233783 1.375-3.96875h-4.96875-3.1875z" fill="url(#i)"/><path d="m49.40625 6v15.84375c.763546.282462 2.018339.228434 4.15625-1.375.585545-.450716 1.967681-1.140338 3.21875-1.28125.01041-.00039.02084-.00039.03125 0 1.654722 0 3.129101.972234 4.15625 2.46875s1.625 3.518788 1.625 5.75-.597371 4.261054-1.625 5.75-2.502986 2.4375-4.15625 2.4375c-.576598-.0098-1.179466-.240994-1.75-.5s-1.100871-.541066-1.4375-.71875c-.02166-.0086-.04259-.01911-.0625-.03125-2.137911-1.603434-3.392704-1.657462-4.15625-1.375v7.03125 3.1875 5.40625h3.40625 3.1875 5.375c.152154-.0028.302567.08491.375.21875.531828 1.063656.428724 2.755734-1.375 5.1875-.0083.01577-.02255.04613-.03125.0625-.187912.353513-.458692.839732-.6875 1.34375-.2394.52735-.431763 1.067535-.4375 1.40625 0 1.327617.792221 2.553984 2.125 3.46875s3.204642 1.5 5.28125 1.5 3.956527-.585713 5.28125-1.5c1.314311-.9071 2.081752-2.120602 2.09375-3.4375-.000971-.0086.0011-.02256 0-.03125-.119941-.981116-.842544-2.383051-1.125-2.75-1.8508-2.467733-1.907989-4.184021-1.375-5.25.07243-.133837.222846-.221578.375-.21875h18.125v-36.59375c0-3.324-2.676-6-6-6z" fill="url(#g)"/><path d="m6 49.53125v34.46875c0 3.324 2.676 6 6 6h36.46875v-12.5625c-.734967-.232286-1.930091-.153994-3.96875 1.375-.622559.47921-1.973911 1.168775-3.25 1.3125-.02081.0012-.04169.0012-.0625 0-1.693789 0-3.208204-.990526-4.25-2.5s-1.65625-3.561962-1.65625-5.8125.615053-4.295517 1.65625-5.8125 2.554388-2.53125 4.25-2.53125c.606331.01027 1.236567.269794 1.8125.53125s1.103357.542375 1.4375.71875c.02255.01902.04348.03995.0625.0625 2.040701 1.530526 3.238483 1.630896 3.96875 1.40625v-9.1875-3.1875-4.28125h-4.28125-3.1875-14.78125c-.232286.734967-.153994 1.930091 1.375 3.96875.470577.611343 1.198945 1.964322 1.34375 3.25.0012.02081.0012.04169 0 .0625 0 1.69561-1.014267 3.208803-2.53125 4.25s-3.561962 1.65625-5.8125 1.65625-4.303026-.614453-5.8125-1.65625-2.5-2.556213-2.5-4.25c.01027-.606333.269794-1.236568.53125-1.8125s.542376-1.103356.71875-1.4375c.01902-.02255.03995-.04348.0625-.0625 1.528994-2.038659 1.607286-3.233783 1.375-3.96875z" fill="url(#h)"/><path d="m12 6c-3.324 0-6 2.676-6 6v36.59375h9.375c.152154-.0028.302567.08491.375.21875.531828 1.063656.428724 2.755734-1.375 5.1875-.0083.01577-.02255.04613-.03125.0625-.187912.353513-.458692.839732-.6875 1.34375-.2394.52735-.431763 1.067535-.4375 1.40625 0 1.327617.792221 2.553984 2.125 3.46875s3.204642 1.5 5.28125 1.5 3.956527-.585713 5.28125-1.5c1.314311-.9071 2.081752-2.120602 2.09375-3.4375-.000971-.0086.0011-.02256 0-.03125-.119941-.981116-.842544-2.383051-1.125-2.75-1.8508-2.467733-1.907989-4.184021-1.375-5.25.07243-.133837.222846-.221578.375-.21875h14.125 4.1875 4.40625v-5.40625-3.1875-7.3125c-.0028-.152154.08491-.302567.21875-.375 1.0568-.5284 2.753841-.460719 5.1875 1.34375.02114.01567.04125.01531.0625.03125.357341.190561.839324.482576 1.34375.71875.527548.247 1.072284.431845 1.40625.4375 1.327615 0 2.553984-.792221 3.46875-2.125s1.5-3.204642 1.5-5.28125-.585713-3.956526-1.5-5.28125c-.907101-1.314311-2.120604-2.081752-3.4375-2.09375-.01043-.000095-.0208 0-.03125 0-.981118.119944-2.383052.842546-2.75 1.125-2.467733 1.8508-4.184021 1.907989-5.25 1.375-.133837-.07243-.221578-.222846-.21875-.375v-16.1875z" fill="url(#j)"/><path d="m12 6c-3.324 0-6 2.676-6 6v2 68 2c0 .334721.0413.6507.0937.96875.0487.295596.097.596915.1875.875.01.03038.0209.0636.0312.09375.0989.287771.23488.547452.375.8125.14459.273507.31562.535615.5.78125s.37378.473472.59375.6875c.43995.428056.94291.814526 1.5 1.09375.27854.139612.57347.246947.875.34375-.2562-.100222-.48671-.236272-.71875-.375-.007-.0044-.0239.0045-.0312 0-.0319-.0193-.0623-.04251-.0937-.0625-.1204-.0767-.23102-.163513-.34375-.25-.10617-.0808-.21328-.161112-.3125-.25-.17793-.161433-.34746-.345388-.5-.53125-.10758-.130255-.21839-.265285-.3125-.40625-.0251-.03838-.0384-.08587-.0625-.125-.0648-.103032-.13023-.204517-.1875-.3125-.10101-.194706-.20567-.415701-.28125-.625-.008-.02181-.0236-.04055-.0312-.0625-.0318-.09195-.0358-.186831-.0625-.28125-.0303-.106618-.0704-.203031-.0937-.3125-.07298-.341512-.1251-.698205-.1251-1.0625v-2-68-2c0-2.781848 2.21815-5 5-5h2 68 2c2.78185 0 5 2.218152 5 5v2 68 2c0 .364295-.0521.720988-.125 1.0625-.0442.206893-.0884.397658-.15625.59375-.008.02195-.0233.04069-.0312.0625-.0627.173739-.13838.367449-.21875.53125-.0416.0828-.079.169954-.125.25-.0546.09721-.12677.18835-.1875.28125-.0941.140965-.20492.275995-.3125.40625-.14317.17445-.30314.346998-.46875.5-.0112.0102-.02.02115-.0312.03125-.13839.125556-.28509.234436-.4375.34375-.10257.07315-.20432.153364-.3125.21875-.007.0045-.0238-.0044-.0312 0-.23204.138728-.46255.274778-.71875.375.30153-.0968.59645-.204138.875-.34375.55709-.279224 1.06005-.665694 1.5-1.09375.21997-.214028.40937-.441865.59375-.6875s.35541-.507743.5-.78125c.14012-.265048.27613-.524729.375-.8125.0104-.03078.0213-.06274.0312-.09375.0905-.278085.1388-.579404.1875-.875.0523-.31805.09365-.634029.09365-.96875v-2-68-2c0-3.324-2.676-6-6-6z" fill="url(#d)" opacity=".4"/><path d="m12 90c-3.324 0-6-2.676-6-6v-2-68-2c0-.334721.0413-.6507.0937-.96875.0487-.295596.097-.596915.1875-.875.01-.03038.0209-.0636.0312-.09375.0989-.287771.23488-.547452.375-.8125.14459-.273507.31562-.535615.5-.78125s.37378-.473472.59375-.6875c.43995-.428056.94291-.814526 1.5-1.09375.27854-.139612.57347-.246947.875-.34375-.2562.100222-.48671.236272-.71875.375-.007.0044-.0239-.0045-.0312 0-.0319.0193-.0623.04251-.0937.0625-.1204.0767-.23102.163513-.34375.25-.10617.0808-.21328.161112-.3125.25-.17793.161433-.34746.345388-.5.53125-.10758.130255-.21839.265285-.3125.40625-.0251.03838-.0384.08587-.0625.125-.0648.103032-.13023.204517-.1875.3125-.10101.194706-.20567.415701-.28125.625-.008.02181-.0236.04055-.0312.0625-.0318.09195-.0358.186831-.0625.28125-.0303.106618-.0704.203031-.0937.3125-.07298.341512-.1251.698205-.1251 1.0625v2 68 2c0 2.781848 2.21815 5 5 5h2 68 2c2.78185 0 5-2.218152 5-5v-2-68-2c0-.364295-.0521-.720988-.125-1.0625-.0442-.206893-.0884-.397658-.15625-.59375-.008-.02195-.0233-.04069-.0312-.0625-.0627-.173739-.13838-.367449-.21875-.53125-.0416-.0828-.079-.169954-.125-.25-.0546-.09721-.12677-.18835-.1875-.28125-.0941-.140965-.20492-.275995-.3125-.40625-.14317-.17445-.30314-.346998-.46875-.5-.0112-.0102-.02-.02115-.0312-.03125-.13839-.125556-.28509-.234436-.4375-.34375-.10257-.07315-.20432-.153364-.3125-.21875-.007-.0045-.0238.0044-.0312 0-.23204-.138728-.46255-.274778-.71875-.375.30153.0968.59645.204138.875.34375.55709.279224 1.06005.665694 1.5 1.09375.21997.214028.40937.441865.59375.6875s.35541.507743.5.78125c.14012.265048.27613.524729.375.8125.0104.03078.0213.06274.0312.09375.0905.278085.1388.579404.1875.875.0523.31805.09365.634029.09365.96875v2 68 2c0 3.324-2.676 6-6 6z" fill="url(#f)" opacity=".2"/><rect fill="#f0f" height="84" rx="6" width="84" x="-94" y="6"/><path d="m112 8h16v16h-16z" fill="#fefefe" stroke="#000" stroke-dashoffset="8.6" stroke-linecap="round" stroke-width=".5"/><text font-family="Liberation Sans" font-size="4" x="131.39261" y="11.969256"><tspan x="131.39261" y="11.969256">Width: 2px</tspan><tspan x="131.39261" y="16.969257">Blur: 12</tspan><tspan x="131.39261" y="21.969257">Opacity: 60</tspan></text><path d="m43.999704 17.405569c-.00002.13452-.03568.258072-.106813.370588-.07135.11256-.14952.16884-.234676.16882-.702944.07896-1.277492.346063-1.723636.801368-.44624.455356-.906618 1.323971-1.381184 2.605882l-7.263114 19.378076c-.047436.179796-.180436.269697-.398954.269697-.17096 0-.303664-.08985-.398104-.269701l-4.073122-10.085866-4.685886 10.085866c-.094498.1798-.22718.269701-.398102.269701-.209212 0-.346834-.089853-.412884-.269701l-7.135333-19.378074c-.446203-1.203676-.916143-2.044336-1.409856-2.521988-.493716-.477612-1.182127-.772692-2.065235-.885261-.07589.000013-.14706-.04787-.213385-.1436-.06642-.09576-.09942-.205324-.09942-.328887 0-.314964.07589-.472456.227729-.472481.636252.000025 1.300907.03401 1.993967.101893.645528.06724 1.253089.10088 1.822717.10088.578895.000012 1.262371-.03364 2.050472-.10088.826316-.06789 1.557328-.101906 2.193007-.101906.15236.000025.228604.15752.228604.472481 0 .315008-.04761.472503-.1425.472492-.636271.05636-1.137232.247407-1.502868.573355-.365659.326-.548479.753193-.548459 1.281585-.00002.269717.07628.607012.228587 1.011873l5.895843 15.769079 3.346462-7.487711-3.11873-7.740934c-.560352-1.383464-1.020898-2.274747-1.381602-2.673819-.360726-.399035-.90675-.643516-1.638024-.733428-.06604.000012-.129973-.04787-.19166-.1436-.06165-.09576-.0926-.205324-.0926-.328887 0-.314961.0664-.472456.19904-.472481.63625.000025 1.220075.03401 1.751452.101893.512822.06724 1.058698.10088 1.637606.10088.569594.000012 1.172544-.03364 1.808814-.10088.655376-.06789 1.300904-.101906 1.936604-.101906.15236.000025.228586.15752.228604.472481-.000018.315012-.04744.472503-.1425.472492-1.272538.10088-1.908808.528083-1.908788 1.281575-.00002.337656.14724.860577.441554 1.56877l2.065252 4.958527 2.050452-4.537503c.28509-.640256.427626-1.179648.427644-1.618192-.000016-1.034846-.636268-1.585905-1.908768-1.653177-.113654.000011-.1704-.15748-.1704-.472492-.000018-.11256.02828-.2194.0852-.320649.05675-.101134.11384-.1518.17116-.15182.455442.000025 1.01551.03401 1.680166.101893.636252.06725 1.158352.10088 1.56632.10088.29435.000013.726359-.02809 1.295991-.08444.721427-.07896 1.324359-.118333 1.808831-.118333.113453.000025.17038.1352.17038.405565-.000036.359632-.10436.53942-.312924.539407-.740591.08985-1.336275.331649-1.787087.725188-.450849.393593-1.013517 1.287609-1.688001 2.682061l-2.733666 5.986864 3.701967 8.938115 5.469052-15.060858c.19004-.550353.285072-1.056132.285112-1.517316-.00004-1.102093-.636289-1.686782-1.908789-1.754054-.114214.000013-.17134-.15748-.17114-.472492-.000019-.314963.08539-.472455.25642-.47248.465289.000025 1.01608.03401 1.652368.101893.588717.06724 1.082413.10088 1.481125.10088.417779.000013.901911-.03363 1.452455-.10088.569592-.06788 1.082129-.101893 1.537629-.101893.1332.000025.19988.1352.19992.405565z" fill="#fefefe" opacity=".3"/><path d="m43.999704 16.405569c-.00002.13452-.03568.258072-.106813.370588-.07135.11256-.14952.16884-.234676.16882-.702944.07896-1.277492.346063-1.723636.801368-.44624.455356-.906618 1.323971-1.381184 2.605882l-7.263114 19.378076c-.047436.179796-.180436.269697-.398954.269697-.17096 0-.303664-.08985-.398104-.269701l-4.073122-10.085866-4.685886 10.085866c-.094498.1798-.22718.269701-.398102.269701-.209212 0-.346834-.089853-.412884-.269701l-7.135333-19.378074c-.446203-1.203676-.916143-2.044336-1.409856-2.521988-.493716-.477612-1.182127-.772692-2.065235-.885261-.07589.000013-.14706-.04787-.213385-.1436-.06642-.09576-.09942-.205324-.09942-.328887 0-.314964.07589-.472456.227729-.472481.636252.000025 1.300907.03401 1.993967.101893.645528.06724 1.253089.10088 1.822717.10088.578895.000012 1.262371-.03364 2.050472-.10088.826316-.06789 1.557328-.101906 2.193007-.101906.15236.000025.228604.15752.228604.472481 0 .315008-.04761.472503-.1425.472492-.636271.05636-1.137232.247407-1.502868.573355-.365659.326-.548479.753193-.548459 1.281585-.00002.269717.07628.607012.228587 1.011873l5.895843 15.769079 3.346462-7.487711-3.11873-7.740934c-.560352-1.383464-1.020898-2.274747-1.381602-2.673819-.360726-.399035-.90675-.643516-1.638024-.733428-.06604.000012-.129973-.04787-.19166-.1436-.06165-.09576-.0926-.205324-.0926-.328887 0-.314961.0664-.472456.19904-.472481.63625.000025 1.220075.03401 1.751452.101893.512822.06724 1.058698.10088 1.637606.10088.569594.000012 1.172544-.03364 1.808814-.10088.655376-.06789 1.300904-.101906 1.936604-.101906.15236.000025.228586.15752.228604.472481-.000018.315012-.04744.472503-.1425.472492-1.272538.10088-1.908808.528083-1.908788 1.281575-.00002.337656.14724.860577.441554 1.56877l2.065252 4.958527 2.050452-4.537503c.28509-.640256.427626-1.179648.427644-1.618192-.000016-1.034846-.636268-1.585905-1.908768-1.653177-.113654.000011-.1704-.15748-.1704-.472492-.000018-.11256.02828-.2194.0852-.320649.05675-.101134.11384-.1518.17116-.15182.455442.000025 1.01551.03401 1.680166.101893.636252.06725 1.158352.10088 1.56632.10088.29435.000013.726359-.02809 1.295991-.08444.721427-.07896 1.324359-.118333 1.808831-.118333.113453.000025.17038.1352.17038.405565-.000036.359632-.10436.53942-.312924.539407-.740591.08985-1.336275.331649-1.787087.725188-.450849.393593-1.013517 1.287609-1.688001 2.682061l-2.733666 5.986864 3.701967 8.938115 5.469052-15.060858c.19004-.550353.285072-1.056132.285112-1.517316-.00004-1.102093-.636289-1.686782-1.908789-1.754054-.114214.000013-.17134-.15748-.17114-.472492-.000019-.314963.08539-.472455.25642-.47248.465289.000025 1.01608.03401 1.652368.101893.588717.06724 1.082413.10088 1.481125.10088.417779.000013.901911-.03363 1.452455-.10088.569592-.06788 1.082129-.101893 1.537629-.101893.1332.000025.19988.1352.19992.405565z" fill="#803300"/><g fill="#fefefe"><path d="m56.8125 20.0625c-.981118.119944-2.383052.842546-2.75 1.125-2.467733 1.8508-4.184021 1.907989-5.25 1.375-.133837-.07243-.221578-.222846-.21875-.375v1c-.0028.152154.08491.30257.21875.375 1.065979.532989 2.782267.4758 5.25-1.375.366948-.282454 1.768882-1.005056 2.75-1.125.01045 0 .02082-.000095.03125 0 1.316896.012 2.530399.779439 3.4375 2.09375.841078 1.218651 1.383979 2.902011 1.46875 4.78125.0074-.163481.03125-.333722.03125-.5 0-2.076608-.585713-3.956526-1.5-5.28125-.907101-1.314311-2.120604-2.081752-3.4375-2.09375-.01043-.000095-.0208 0-.03125 0zm-40.84375 30.5625c-.134665.913795-.591007 2.023111-1.59375 3.375-.0083.01577-.02255.04613-.03125.0625-.187912.353513-.458692.839732-.6875 1.34375-.2394.52735-.431763 1.067535-.4375 1.40625 0 .220351.02.442439.0625.65625.07081-.314372.201205-.679664.375-1.0625.228808-.504018.499588-.990237.6875-1.34375.0087-.01637.02295-.04673.03125-.0625 1.399042-1.886177 1.743665-3.326922 1.59375-4.375zm9.28125 0c-.169687 1.058851.179063 2.509584 1.625 4.4375.254467.330587.856066 1.491348 1.0625 2.4375.04266-.211947.06051-.437678.0625-.65625-.000971-.0086.0011-.02256 0-.03125-.119941-.981116-.842544-2.383051-1.125-2.75-1.029622-1.372829-1.498368-2.512377-1.625-3.4375z" opacity=".4"/><path d="m6 49.53125v1h8.96875c.01452.04594.01944.106626.03125.15625.08661-.480201.06367-.855903-.03125-1.15625zm20.21875 0c-.09492.300347-.117864.676049-.03125 1.15625.01181-.04962.01673-.110315.03125-.15625h14.78125 3.1875 4.28125v-1h-4.28125-3.1875zm-13.90625 7.96875c-.0143.101573-.02955.211886-.03125.3125 0 1.693787.990526 3.208203 2.5 4.25s3.561962 1.65625 5.8125 1.65625 4.295517-.615053 5.8125-1.65625 2.53125-2.55439 2.53125-4.25c.0012-.02081.0012-.04169 0-.0625-.0083-.07351-.05056-.144948-.0625-.21875-.242395 1.399154-1.171847 2.641107-2.46875 3.53125-1.516983 1.041197-3.561962 1.65625-5.8125 1.65625s-4.303026-.614453-5.8125-1.65625c-1.302215-.898752-2.241759-2.148543-2.46875-3.5625zm23 14.8125c-.0067.164472-.03125.333136-.03125.5 0 2.250538.614454 4.303026 1.65625 5.8125s2.556211 2.5 4.25 2.5c.02081.0012.04169.0012.0625 0 1.276089-.143725 2.627441-.83329 3.25-1.3125 2.038659-1.528994 3.233783-1.607286 3.96875-1.375v-1c-.734967-.232286-1.930091-.153994-3.96875 1.375-.622559.47921-1.973911 1.168775-3.25 1.3125-.02081.0012-.04169.0012-.0625 0-1.693789 0-3.208204-.990526-4.25-2.5-.964553-1.397556-1.541592-3.257772-1.625-5.3125z" opacity=".7"/><path d="m62.5625 27.90625c-.08399 2.028943-.645242 3.875694-1.59375 5.25-1.027629 1.488946-2.502986 2.4375-4.15625 2.4375-.576598-.0098-1.179466-.240994-1.75-.5s-1.100871-.541066-1.4375-.71875c-.02166-.0086-.04259-.01911-.0625-.03125-2.137911-1.603434-3.392704-1.657462-4.15625-1.375v1c.763546-.282462 2.018339-.228434 4.15625 1.375.01991.01214.04084.02265.0625.03125.336629.177684.866966.459744 1.4375.71875s1.173402.4902 1.75.5c1.653264 0 3.128621-.948554 4.15625-2.4375s1.625-3.518788 1.625-5.75c0-.17179-.02424-.330832-.03125-.5zm-.59375 22.71875c-.134665.913795-.591007 2.023111-1.59375 3.375-.0083.01577-.02255.04613-.03125.0625-.187912.353513-.458692.839732-.6875 1.34375-.2394.52735-.431763 1.067535-.4375 1.40625 0 .220351.02.442439.0625.65625.07081-.314372.201205-.679664.375-1.0625.228808-.504018.499588-.990237.6875-1.34375.0087-.01637.02295-.04673.03125-.0625 1.399042-1.886177 1.743665-3.326922 1.59375-4.375zm9.28125 0c-.169687 1.058851.179063 2.509584 1.625 4.4375.254467.330587.856066 1.491348 1.0625 2.4375.04266-.211947.06051-.437678.0625-.65625-.000971-.0086.0011-.02256 0-.03125-.119941-.981116-.842544-2.383051-1.125-2.75-1.029622-1.372829-1.498368-2.512377-1.625-3.4375z"/><path d="m49.53125 49.53125v1h3.28125 3.1875 4.96875c.01452.04594.01944.106626.03125.15625.08661-.480201.06368-.855903-.03125-1.15625h-4.96875-3.1875zm22.6875 0c-.09493.300347-.117864.676049-.03125 1.15625.01181-.04962.01673-.110315.03125-.15625h17.78125v-1zm-13.90625 7.96875c-.0143.101573-.02955.211886-.03125.3125 0 1.693789.990526 3.208204 2.5 4.25s3.561962 1.65625 5.8125 1.65625 4.295517-.615053 5.8125-1.65625 2.53125-2.554388 2.53125-4.25c.0012-.02081.0012-.04169 0-.0625-.0083-.07351-.05056-.144948-.0625-.21875-.242395 1.399154-1.171847 2.641107-2.46875 3.53125-1.516983 1.041197-3.561962 1.65625-5.8125 1.65625s-4.303026-.614454-5.8125-1.65625c-1.302215-.898751-2.241759-2.148542-2.46875-3.5625zm-17.125 7c-1.286727 0-2.474281.750188-3.375 2.0625s-1.46875 3.161468-1.46875 5.21875c0 .171589.02348.331399.03125.5.08535-1.851775.611906-3.515892 1.4375-4.71875.900719-1.312312 2.088273-2.0625 3.375-2.0625.30898.0052.853049.169299 1.375.40625s1.015987.529251 1.375.71875c2.440949 1.805683 4.17695 1.92715 5.28125 1.375.181699-.07957.3089-.270424.3125-.46875v-1c-.0036.198326-.130801.38918-.3125.46875-1.1043.55215-2.840301.430683-5.28125-1.375-.359013-.189499-.853049-.481799-1.375-.71875s-1.06602-.401018-1.375-.40625z" opacity=".3"/></g></g></svg>