<svg viewBox="0 0 22 22" xmlns="http://www.w3.org/2000/svg"><path d="m11 3c-.553999 0-1 .4460008-1 1s.446001 1 1 1 1-.4460008 1-1-.446001-1-1-1zm-5.2929688 2-.7070312.7070312 1.2929688 1.2929688.7070312-.7070312zm10.5859378 0-1.292969 1.2929688.707031.7070312 1.292969-1.2929688zm-5.292969 1c-2.77 0-5 2.23-5 5s2.23 5 5 5 5-2.23 5-5-2.23-5-5-5zm0 1c2.216 0 4 1.784 4 4s-1.784 4-4 4-4-1.784-4-4 1.784-4 4-4zm-7 3c-.5539992 0-1 .446001-1 1s.4460008 1 1 1 1-.446001 1-1-.4460008-1-1-1zm14 0c-.553999 0-1 .446001-1 1s.446001 1 1 1 1-.446001 1-1-.446001-1-1-1zm-11.7070312 5-1.2929688 1.292969.7070312.707031 1.2929688-1.292969zm9.4140622 0-.707031.707031 1.292969 1.292969.707031-.707031zm-4.707031 2c-.553999 0-1 .446001-1 1s.446001 1 1 1 1-.446001 1-1-.446001-1-1-1z" fill="#4d4d4d"/></svg>