<svg viewBox="0 0 22 22" xmlns="http://www.w3.org/2000/svg"><path d="m16.294294 1033.3622-3.291358 3.293-.206944.207.206944.207 3.291358 3.293.70668-.707-2.291856-2.293h4.290875v-1h-4.290875l2.291856-2.293zm-8.296739 3c-1.6611889 0-2.998536 1.338-2.998536 3s1.3373471 3 2.998536 3 2.998536-1.338 2.998536-3-1.3373471-3-2.998536-3zm0 7c-2.7686682 0-4.997555 2.23-4.997555 5v1h9.995125v-1c0-2.77-2.228902-5-4.99757-5zm0 1c2.214929 0 3.998053 1.784 3.998053 4h-7.996091c0-2.216 1.7831094-4 3.998038-4z" fill="#4d4d4d" transform="translate(0 -1030.3622)"/></svg>