<svg height="96" width="96" xmlns="http://www.w3.org/2000/svg" xmlns:xlink="http://www.w3.org/1999/xlink"><linearGradient id="a"><stop offset="0" stop-color="#fff"/><stop offset="1" stop-color="#fff" stop-opacity="0"/></linearGradient><linearGradient id="b" gradientTransform="matrix(1.0238095 0 0 1.0119048 -1.142857 -98.071429)" gradientUnits="userSpaceOnUse" x1="32.251034" x2="32.251034" y1="6.131708" y2="90.238609"><stop offset="0"/><stop offset="1" stop-opacity=".588235"/></linearGradient><linearGradient id="c" gradientTransform="matrix(1.8576982 0 0 2.1225772 3.927063 .571947)" gradientUnits="userSpaceOnUse" x1="12.578789" x2="12.578789" xlink:href="#a" y1="2.913743" y2="43.810863"/><linearGradient id="d" gradientTransform="matrix(1.5405634 0 0 1.5027205 -1.132737 -2.625232)" gradientUnits="userSpaceOnUse" x1="33.579403" x2="33.579403" xlink:href="#e" y1="5.708645" y2="16.323294"/><linearGradient id="e"><stop offset="0" stop-color="#262626"/><stop offset="1" stop-color="#303030"/></linearGradient><linearGradient id="f" gradientTransform="matrix(1.890625 0 0 2.2781495 3.139078 -9.992708)" gradientUnits="userSpaceOnUse" x1="16.91585" x2="16.91585" xlink:href="#e" y1="7.000642" y2="14"/><linearGradient id="g" gradientTransform="matrix(1.8338353 0 0 .79955926 4.514517 13.800151)" gradientUnits="userSpaceOnUse" x1="24.682861" x2="24.682861" y1="9.241672" y2="13.523027"><stop offset="0"/><stop offset="1" stop-opacity="0"/></linearGradient><radialGradient id="h" cx="26.616697" cy="-2.064498" gradientTransform="matrix(-.00000003 -2.4357554 2.6407402 0 71.136419 123.79768)" gradientUnits="userSpaceOnUse" r="23"><stop offset="0" stop-color="#dcb2ff"/><stop offset="1" stop-color="#734f9d"/></radialGradient><linearGradient id="i" gradientUnits="userSpaceOnUse" x1="32" x2="32" xlink:href="#a" y1="-16" y2="-86"/><linearGradient id="j" gradientTransform="matrix(.23809301 0 0 .1766936 25.017145 27.200211)" gradientUnits="userSpaceOnUse" x1="32.250999" x2="32.250999" y1="90" y2="5.9996"><stop offset="0"/><stop offset="1" stop-opacity=".58824"/></linearGradient><linearGradient id="k" gradientTransform="matrix(.23255812 0 0 .17461567 25.282936 27.037992)" gradientUnits="userSpaceOnUse" x1="36.356998" x2="36.356998" xlink:href="#a" y1="6" y2="63.893002"/><radialGradient id="l" cx="48" cy="90.171997" gradientTransform="matrix(.26913951 0 0 .1739015 23.52689 27.072414)" gradientUnits="userSpaceOnUse" r="42" xlink:href="#a"/><linearGradient id="m"><stop offset="0" stop-color="#888"/><stop offset="1" stop-color="#acacac"/></linearGradient><linearGradient id="n" gradientTransform="matrix(.23255812 0 0 .17461567 25.282936 27.037992)" gradientUnits="userSpaceOnUse" x1="48" x2="48" xlink:href="#m" y1="24" y2="80"/><linearGradient id="o" gradientTransform="matrix(.23255812 0 0 .17461567 19.537093 20.159198)" gradientUnits="userSpaceOnUse" x1="36.356998" x2="36.356998" xlink:href="#a" y1="6" y2="63.893002"/><radialGradient id="p" cx="48" cy="90.171997" gradientTransform="matrix(.26913951 0 0 .1739015 17.781047 20.19362)" gradientUnits="userSpaceOnUse" r="42" xlink:href="#a"/><linearGradient id="q" gradientTransform="matrix(.23255812 0 0 .17461567 19.537093 20.159198)" gradientUnits="userSpaceOnUse" x1="48" x2="48" xlink:href="#m" y1="24" y2="80"/><g fill="url(#b)"><path d="m12-95.03125c-5.5110903 0-10.03125 4.52016-10.03125 10.03125v71c0 5.5110902 4.5201598 10.03125 10.03125 10.03125h72c5.51109 0 10.03125-4.5201597 10.03125-10.03125v-71c0-5.51109-4.52016-10.03125-10.03125-10.03125z" opacity=".08" transform="scale(1 -1)"/><path d="m12-94.03125c-4.971633 0-9.03125 4.059617-9.03125 9.03125v71c0 4.9716329 4.0596171 9.03125 9.03125 9.03125h72c4.971633 0 9.03125-4.059617 9.03125-9.03125v-71c0-4.971633-4.059617-9.03125-9.03125-9.03125z" opacity=".1" transform="scale(1 -1)"/><path d="m12-93c-4.4091333 0-8 3.590867-8 8v71c0 4.4091333 3.5908667 8 8 8h72c4.409133 0 8-3.5908667 8-8v-71c0-4.409133-3.590867-8-8-8z" opacity=".2" transform="scale(1 -1)"/><rect height="85" opacity=".3" rx="7" transform="scale(1 -1)" width="86" x="5" y="-92"/></g><g fill-rule="evenodd"><rect fill="url(#h)" height="84.565414" rx="4.921875" ry="5.979502" stroke="#505050" stroke-linecap="round" stroke-linejoin="round" stroke-width=".776649" width="85.076622" x="5.975769" y="7.095784"/><path d="m6.326591 21.189417h84.375v3.416858h-84.375z" fill="url(#g)" opacity=".2"/><path d="m11.646889 7.0948754s74.37007.019572 74.37007.019572c2.95868 0 5.03619 2.8731724 5.03619 6.0525416v7.595324h-85.0781298s-.00001-7.595324-.00001-7.595324c0-3.3887953 2.28536-6.0721073 5.6718798-6.0721073z" fill="url(#d)" stroke="url(#f)" stroke-width=".774997"/></g><rect height="82.855606" rx="4.21875" ry="5.125288" style="opacity:.4;fill:none;stroke-width:.777888;stroke-linecap:round;stroke-linejoin:round;stroke:url(#c)" width="83.669243" x="6.679458" y="7.950726"/><g><g enable-background="new" transform="translate(-6.148866 39.613963)"><path d="m20-46h30c1.108 0 2 .892 2 2v24c0 1.108-.892 2-2 2h-30c-1.108 0-2-.892-2-2v-24c0-1.108.892-2 2-2z" fill="url(#i)" opacity=".2" transform="scale(1 -1)"/><path d="m20 16c-2.180674 0-4 1.819326-4 4v24c0 2.180674 1.819326 4 4 4h30c2.180674 0 4-1.819326 4-4v-24c0-2.180674-1.819326-4-4-4zm0 2h30c1.108 0 2 .892 2 2v24c0 1.108-.892 2-2 2h-30c-1.108 0-2-.892-2-2v-24c0-1.108.892-2 2-2z" opacity=".1"/><path d="m20 18c-1.108 0-2 .892-2 2v24c0 1.108.892 2 2 2h30c1.108 0 2-.892 2-2v-24c0-1.108-.892-2-2-2zm0 1.03125h30c.54712 0 .96875.42163.96875.96875v24c0 .54712-.42163.96875-.96875.96875h-30c-.54712 0-.96875-.42163-.96875-.96875v-24c0-.54712.42163-.96875.96875-.96875z" fill="#fff" opacity=".3"/><path d="m20 16.96875c-1.660251 0-3.03125 1.370999-3.03125 3.03125v24c0 1.660251 1.370999 3.03125 3.03125 3.03125h30c1.660251 0 3.03125-1.370999 3.03125-3.03125v-24c0-1.660251-1.370999-3.03125-3.03125-3.03125zm0 1.03125h30c1.108 0 2 .892 2 2v24c0 1.108-.892 2-2 2h-30c-1.108 0-2-.892-2-2v-24c0-1.108.892-2 2-2z" opacity=".2"/></g><g enable-background="new" transform="translate(31.919433 39.417757)"><path d="m20-46h30c1.108 0 2 .892 2 2v24c0 1.108-.892 2-2 2h-30c-1.108 0-2-.892-2-2v-24c0-1.108.892-2 2-2z" fill="url(#i)" opacity=".2" transform="scale(1 -1)"/><path d="m20 16c-2.180674 0-4 1.819326-4 4v24c0 2.180674 1.819326 4 4 4h30c2.180674 0 4-1.819326 4-4v-24c0-2.180674-1.819326-4-4-4zm0 2h30c1.108 0 2 .892 2 2v24c0 1.108-.892 2-2 2h-30c-1.108 0-2-.892-2-2v-24c0-1.108.892-2 2-2z" opacity=".1"/><path d="m20 18c-1.108 0-2 .892-2 2v24c0 1.108.892 2 2 2h30c1.108 0 2-.892 2-2v-24c0-1.108-.892-2-2-2zm0 1.03125h30c.54712 0 .96875.42163.96875.96875v24c0 .54712-.42163.96875-.96875.96875h-30c-.54712 0-.96875-.42163-.96875-.96875v-24c0-.54712.42163-.96875.96875-.96875z" fill="#fff" opacity=".3"/><path d="m20 16.96875c-1.660251 0-3.03125 1.370999-3.03125 3.03125v24c0 1.660251 1.370999 3.03125 3.03125 3.03125h30c1.660251 0 3.03125-1.370999 3.03125-3.03125v-24c0-1.660251-1.370999-3.03125-3.03125-3.03125zm0 1.03125h30c1.108 0 2 .892 2 2v24c0 1.108-.892 2-2 2h-30c-1.108 0-2-.892-2-2v-24c0-1.108.892-2 2-2z" opacity=".2"/></g><g enable-background="new" transform="translate(31.919433 7.417757)"><path d="m20-46h30c1.108 0 2 .892 2 2v24c0 1.108-.892 2-2 2h-30c-1.108 0-2-.892-2-2v-24c0-1.108.892-2 2-2z" fill="url(#i)" opacity=".2" transform="scale(1 -1)"/><path d="m20 16c-2.180674 0-4 1.819326-4 4v24c0 2.180674 1.819326 4 4 4h30c2.180674 0 4-1.819326 4-4v-24c0-2.180674-1.819326-4-4-4zm0 2h30c1.108 0 2 .892 2 2v24c0 1.108-.892 2-2 2h-30c-1.108 0-2-.892-2-2v-24c0-1.108.892-2 2-2z" opacity=".1"/><path d="m20 18c-1.108 0-2 .892-2 2v24c0 1.108.892 2 2 2h30c1.108 0 2-.892 2-2v-24c0-1.108-.892-2-2-2zm0 1.03125h30c.54712 0 .96875.42163.96875.96875v24c0 .54712-.42163.96875-.96875.96875h-30c-.54712 0-.96875-.42163-.96875-.96875v-24c0-.54712.42163-.96875.96875-.96875z" fill="#fff" opacity=".3"/><path d="m20 16.96875c-1.660251 0-3.03125 1.370999-3.03125 3.03125v24c0 1.660251 1.370999 3.03125 3.03125 3.03125h30c1.660251 0 3.03125-1.370999 3.03125-3.03125v-24c0-1.660251-1.370999-3.03125-3.03125-3.03125zm0 1.03125h30c1.108 0 2 .892 2 2v24c0 1.108-.892 2-2 2h-30c-1.108 0-2-.892-2-2v-24c0-1.108.892-2 2-2z" opacity=".2"/></g><g enable-background="new" transform="translate(-6.148866 7.613963)"><path d="m20-46h30c1.108 0 2 .892 2 2v24c0 1.108-.892 2-2 2h-30c-1.108 0-2-.892-2-2v-24c0-1.108.892-2 2-2z" fill="url(#i)" opacity=".653" transform="scale(1 -1)"/><path d="m20 16c-2.180674 0-4 1.819326-4 4v24c0 2.180674 1.819326 4 4 4h30c2.180674 0 4-1.819326 4-4v-24c0-2.180674-1.819326-4-4-4zm0 2h30c1.108 0 2 .892 2 2v24c0 1.108-.892 2-2 2h-30c-1.108 0-2-.892-2-2v-24c0-1.108.892-2 2-2z" opacity=".1"/><path d="m20 18c-1.108 0-2 .892-2 2v24c0 1.108.892 2 2 2h30c1.108 0 2-.892 2-2v-24c0-1.108-.892-2-2-2zm0 1.03125h30c.54712 0 .96875.42163.96875.96875v24c0 .54712-.42163.96875-.96875.96875h-30c-.54712 0-.96875-.42163-.96875-.96875v-24c0-.54712.42163-.96875.96875-.96875z" fill="#fff" opacity=".3"/><path d="m20 16.96875c-1.660251 0-3.03125 1.370999-3.03125 3.03125v24c0 1.660251 1.370999 3.03125 3.03125 3.03125h30c1.660251 0 3.03125-1.370999 3.03125-3.03125v-24c0-1.660251-1.370999-3.03125-3.03125-3.03125zm0 1.03125h30c1.108 0 2 .892 2 2v24c0 1.108-.892 2-2 2h-30c-1.108 0-2-.892-2-2v-24c0-1.108.892-2 2-2z" opacity=".2"/><g stroke-width=".201515"><rect fill="url(#j)" height="14.842333" opacity=".3" rx="1.627907" ry="1.22231" width="19.999998" x="26.445726" y="28.260302"/><rect fill="#42423d" height="14.667718" rx="1.395349" ry="1.047694" width="19.534883" x="26.678286" y="28.085684"/><path d="m28.073633 28.085687c-.773023 0-1.395348.467271-1.395348 1.047694v12.572328c0 .05845.0096.113622.0218.169159.01133.05162.02257.104232.04361.152789.0023.0053.0049.01111.0073.01637.02299.05025.05463.09559.08721.141875.03363.04776.0734.09353.11628.136419.04288.0429.08693.08268.138081.120047.102314.07475.219281.14223.348837.190995.06478.02438.133366.04312.203488.06002-.05958-.0175-.113188-.04126-.16715-.06548-.0017-.000751-.0055.000826-.0073 0-.0074-.0033-.01447-.0074-.02179-.01083-.028-.01345-.05372-.02864-.07993-.04365-.0247-.01415-.04961-.02811-.0727-.04365-.04135-.02828-.08077-.06042-.116256-.09272-.025-.02288-.05077-.04645-.07265-.07107-.0059-.0066-.009-.01502-.01456-.02183-.01505-.01798-.03028-.03562-.04358-.05448-.02351-.03405-.04784-.07264-.06542-.109136-.0019-.0038-.0055-.0071-.0073-.011-.0074-.01606-.0083-.03265-.01451-.04907-.0071-.01869-.01637-.03545-.02181-.05465-.01695-.05954-.02907-.121882-.02907-.185442v-12.572326c0-.485781.51586-.873079 1.16279-.873079h16.744185c.64693 0 1.16279.387333 1.16279.873079v12.572328c0 .06361-.01211.125896-.02907.18553-.01028.03612-.02056.06944-.03634.103678-.0019.0038-.0054.0071-.0073.01091-.01458.03034-.03218.06416-.05087.09276-.0097.01445-.01837.02968-.02907.04366-.0127.01698-.02948.03289-.04361.04911-.02188.02461-.04765.0482-.07267.07094-.03329.03046-.0705.06059-.109012.08731-.0026.0018-.0047.0037-.0073.0055-.03219.02192-.0663.04094-.101744.06002-.02385.01277-.04751.02678-.07267.0382-.0016.000826-.0055-.000751-.0073 0-.05396.02422-.10757.04798-.167151.06548.07012-.0169.138712-.03564.203489-.06002.129556-.04875.246534-.116241.348837-.190995.05115-.03737.0952-.07716.138081-.120048.04288-.0429.08265-.08866.116279-.136419.03259-.04628.06422-.09163.08721-.141876.0024-.0054.0049-.01095.0073-.01637.02105-.04856.03228-.101172.04361-.152789.01233-.05553.02186-.110706.02186-.169202v-12.572375c0-.580423-.622326-1.047694-1.395349-1.047694h-16.74421z" fill="url(#k)" opacity=".5"/><path d="m28.073633 42.753404c-.773023 0-1.395348-.467272-1.395348-1.047695v-12.572328c0-.05845.0096-.113623.0218-.169159.01133-.05161.02257-.104232.04361-.152789.0023-.0053.0049-.011.0073-.01641.023-.05016.05463-.09551.08721-.141788.03363-.04776.0734-.09352.116278-.13641.04289-.0429.08693-.08268.13807-.120066.102326-.07473.219303-.142224.348838-.190977.06479-.02438.133372-.04311.203442-.06001-.05953.01749-.11314.04124-.167094.06548-.0017.000751-.0055-.000825-.0073 0-.0074.0034-.01449.0074-.0218.01091-.028.01339-.05373.02856-.07994.04366-.02469.01411-.0496.02813-.07267.04365-.04137.02818-.08079.06029-.11628.09276-.025.02275-.05077.04633-.07265.07095-.0059.0067-.009.01498-.01456.02183-.01505.01798-.03028.03571-.04358.05455-.02351.03401-.04783.07261-.06542.109134-.0019.0038-.0055.0071-.0073.01093-.0074.01604-.0083.03262-.01451.0491-.0071.01861-.01637.03545-.02181.05457-.01695.05963-.02907.121969-.02907.185529v12.572328c0 .485747.515861.873079 1.162791.873079h16.744204c.64693 0 1.162791-.387332 1.162791-.873079v-12.572344c0-.06356-.01209-.125898-.02907-.185529-.01023-.03613-.02047-.06945-.03628-.10367-.0019-.0038-.0056-.0071-.0072-.01093-.01465-.03033-.03233-.06415-.05093-.09276-.0098-.01445-.01837-.02968-.02907-.04365-.01279-.01698-.02953-.03289-.04372-.0491-.02186-.02462-.04767-.0482-.07256-.07095-.03325-.03047-.07047-.06059-.10907-.08731-.0025-.0018-.0047-.0037-.0072-.0055-.03233-.02192-.06628-.04093-.101861-.06001-.02372-.01277-.04744-.02678-.07256-.03819-.0016-.000826-.0055.000751-.0073 0-.05396-.02422-.10757-.04798-.167152-.06548.07012.0169.138712.03564.203489.06002.129555.04875.246535.11624.348837.190995.05115.03737.0952.07715.138082.120048.04288.0429.08265.08866.116278.136419.03259.04628.06422.09163.08721.141874.0024.0054.0049.01095.0073.01637.02105.04856.03228.101172.04361.152788.01233.05553.02186.110707.02186.169203v12.572329c0 .580422-.622325 1.047694-1.395349 1.047694h-16.744206z" fill="url(#l)" opacity=".2"/><path d="m27.841074 31.054157h17.209301v10.47694h-17.209301z" fill="url(#n)"/><path d="m28.073633 31.228771h16.744184v10.127709h-16.744184z" fill="#fff"/><rect fill="#42423d" height="14.667718" rx="1.395349" ry="1.047694" width="19.534883" x="20.932442" y="21.206888"/><path d="m22.32779 21.206893c-.773023 0-1.395348.467271-1.395348 1.047694v12.572328c0 .05845.0096.113622.0218.169159.01133.05162.02257.104232.04361.152789.0023.0053.0049.01111.0073.01637.02299.05025.05463.09559.08721.141875.03363.04776.0734.09353.11628.136419.04288.0429.08693.08268.138081.120047.102314.07475.219281.14223.348837.190995.06478.02438.133366.04312.203488.06002-.05958-.0175-.113188-.04126-.16715-.06548-.0017-.000751-.0055.000826-.0073 0-.0074-.0033-.01447-.0074-.02179-.01083-.028-.01345-.05372-.02864-.07993-.04365-.0247-.01415-.04961-.02811-.0727-.04365-.04135-.02828-.08077-.06042-.116256-.09272-.025-.02288-.05077-.04645-.07265-.07107-.0059-.0066-.009-.01502-.01456-.02183-.01505-.01798-.03028-.03562-.04358-.05448-.02351-.03405-.04784-.07264-.06542-.109136-.0019-.0038-.0055-.0071-.0073-.011-.0074-.01606-.0083-.03265-.01451-.04907-.0071-.01869-.01637-.03545-.02181-.05465-.01695-.05954-.02907-.121882-.02907-.185442v-12.572326c0-.485781.51586-.873079 1.16279-.873079h16.744185c.64693 0 1.16279.387333 1.16279.873079v12.572328c0 .06361-.01211.125896-.02907.18553-.01028.03612-.02056.06944-.03634.103678-.0019.0038-.0054.0071-.0073.01091-.01458.03034-.03218.06416-.05087.09276-.0097.01445-.01837.02968-.02907.04366-.0127.01698-.02948.03289-.04361.04911-.02188.02461-.04765.0482-.07267.07094-.03329.03046-.0705.06059-.109012.08731-.0026.0018-.0047.0037-.0073.0055-.03219.02192-.0663.04094-.101744.06002-.02385.01277-.04751.02678-.07267.0382-.0016.000826-.0055-.000751-.0073 0-.05396.02422-.10757.04798-.167151.06548.07012-.0169.138712-.03564.203489-.06002.129556-.04875.246534-.116241.348837-.190995.05115-.03737.0952-.07716.138081-.120048.04288-.0429.08265-.08866.116279-.136419.03259-.04628.06422-.09163.08721-.141876.0024-.0054.0049-.01095.0073-.01637.02105-.04856.03228-.101172.04361-.152789.01233-.05553.02186-.110706.02186-.169202v-12.572375c0-.580423-.622326-1.047694-1.395349-1.047694h-16.74421z" fill="url(#o)" opacity=".5"/><path d="m22.32779 35.87461c-.773023 0-1.395348-.467272-1.395348-1.047695v-12.572328c0-.05845.0096-.113623.0218-.169159.01133-.05161.02257-.104232.04361-.152789.0023-.0053.0049-.011.0073-.01641.023-.05016.05463-.09551.08721-.141788.03363-.04776.0734-.09352.116278-.13641.04289-.0429.08693-.08268.13807-.120066.102326-.07473.219303-.142224.348838-.190977.06479-.02438.133372-.04311.203442-.06001-.05953.01749-.11314.04124-.167094.06548-.0017.000751-.0055-.000825-.0073 0-.0074.0034-.01449.0074-.0218.01091-.028.01339-.05373.02856-.07994.04366-.02469.01411-.0496.02813-.07267.04365-.04137.02818-.08079.06029-.11628.09276-.025.02275-.05077.04633-.07265.07095-.0059.0067-.009.01498-.01456.02183-.01505.01798-.03028.03571-.04358.05455-.02351.03401-.04783.07261-.06542.109134-.0019.0038-.0055.0071-.0073.01093-.0074.01604-.0083.03262-.01451.0491-.0071.01861-.01637.03545-.02181.05457-.01695.05963-.02907.121969-.02907.185529v12.572328c0 .485747.515861.873079 1.162791.873079h16.744204c.64693 0 1.162791-.387332 1.162791-.873079v-12.572344c0-.06356-.01209-.125898-.02907-.185529-.01023-.03613-.02047-.06945-.03628-.10367-.0019-.0038-.0056-.0071-.0072-.01093-.01465-.03033-.03233-.06415-.05093-.09276-.0098-.01445-.01837-.02968-.02907-.04365-.01279-.01698-.02953-.03289-.04372-.0491-.02186-.02462-.04767-.0482-.07256-.07095-.03325-.03047-.07047-.06059-.10907-.08731-.0025-.0018-.0047-.0037-.0072-.0055-.03233-.02192-.06628-.04093-.101861-.06001-.02372-.01277-.04744-.02678-.07256-.03819-.0016-.000826-.0055.000751-.0073 0-.05396-.02422-.10757-.04798-.167152-.06548.07012.0169.138712.03564.203489.06002.129555.04875.246535.11624.348837.190995.05115.03737.0952.07715.138082.120048.04288.0429.08265.08866.116278.136419.03259.04628.06422.09163.08721.141874.0024.0054.0049.01095.0073.01637.02105.04856.03228.101172.04361.152788.01233.05553.02186.110707.02186.169203v12.572329c0 .580422-.622325 1.047694-1.395349 1.047694h-16.744206z" fill="url(#p)" opacity=".2"/><path d="m22.09523 24.175364h17.209301v10.47694h-17.209301z" fill="url(#q)"/><path d="m22.327789 24.349977h16.744184v10.127709h-16.744184z" fill="#fff"/></g></g></g></svg>