<svg height="16" width="16" xmlns="http://www.w3.org/2000/svg" xmlns:xlink="http://www.w3.org/1999/xlink"><linearGradient id="a" gradientTransform="matrix(.89189031 0 0 .94046961 3.14398 5.346537)" gradientUnits="userSpaceOnUse" x1="11.350123" x2="11.350123" y1=".666966" y2="8.172179"><stop offset="0" stop-color="#fff"/><stop offset=".0097359" stop-color="#fff" stop-opacity=".235294"/><stop offset=".99001008" stop-color="#fff" stop-opacity=".156863"/><stop offset="1" stop-color="#fff" stop-opacity=".392157"/></linearGradient><linearGradient id="b" gradientTransform="matrix(.38156409 0 0 .32896952 -18.24159 .282167)" gradientUnits="userSpaceOnUse" x1="76.041" x2="76.041" y1="49.372032" y2="35.430561"><stop offset="0" stop-color="#0a0a0a" stop-opacity=".498"/><stop offset="1" stop-color="#0a0a0a" stop-opacity="0"/></linearGradient><linearGradient id="c" gradientTransform="matrix(.3101469 0 0 .30591044 -15.362929 .469432)" gradientUnits="userSpaceOnUse" x1="84.30883" x2="84.30883" y1="16.110577" y2="42.923553"><stop offset="0" stop-color="#50b4b4"/><stop offset="1" stop-color="#329696"/></linearGradient><linearGradient id="d" gradientTransform="matrix(.31070043 0 0 .27489387 20.17717 -.103163)" gradientUnits="userSpaceOnUse" x1="-51.786404" x2="-51.786404" y1="53.514328" y2="2.061275"><stop offset="0" stop-opacity=".321739"/><stop offset="1" stop-opacity=".278261"/></linearGradient><linearGradient id="e" gradientTransform="matrix(.33333327 0 0 .32971018 -17.44063 -.647843)" gradientUnits="userSpaceOnUse" x1="62.988873" x2="62.988873" y1="11.645091" y2="15.385052"><stop offset="0" stop-color="#cecece"/><stop offset="1" stop-color="#c4c4c4"/></linearGradient><linearGradient id="f" gradientTransform="matrix(.3777784 0 0 .36363827 -30.770088 5.490418)" gradientUnits="userSpaceOnUse" x1="19.875452" x2="19.875452" y1="10.389797" y2="45.60001"><stop offset="0" stop-color="#f2f2f2"/><stop offset=".87426931" stop-color="#dbdbdb"/><stop offset="1" stop-color="#999"/></linearGradient><linearGradient id="g" gradientTransform="matrix(.3777784 0 0 .40051559 -30.770088 3.849387)" gradientUnits="userSpaceOnUse" x1="28.103424" x2="28.103424" y1="45.000065" y2="14.038458"><stop offset="0" stop-color="#787878"/><stop offset="1" stop-color="#b4b4b4"/></linearGradient><linearGradient id="h" gradientTransform="matrix(.34883708 0 0 .35714285 -30.075483 5.136607)" gradientUnits="userSpaceOnUse" x1="25.57654" x2="25.57654" y1="15.000002" y2="44.00053"><stop offset="0" stop-color="#fff"/><stop offset="1" stop-color="#fff" stop-opacity="0"/></linearGradient><linearGradient id="i" gradientTransform="matrix(.37702708 0 0 .38807768 -30.752005 4.390447)" gradientUnits="userSpaceOnUse" x1="23.928667" x2="23.928667" xlink:href="#j" y1="30.773148" y2="45.530704"/><linearGradient id="j"><stop offset="0" stop-color="#1e1e1e"/><stop offset="1" stop-color="#1e1e1e" stop-opacity="0"/></linearGradient><linearGradient id="k" gradientTransform="matrix(.37702708 0 0 .38807768 -30.752005 4.817332)" gradientUnits="userSpaceOnUse" x1="23.903786" x2="23.903786" xlink:href="#j" y1="35.75" y2="16.00676"/><path d="m2.02332 1.976667v1h-1v4h14v-4h-7v-1z" fill="url(#e)"/><path d="m15.52332 4v-1.273333c0-.1385-.1115-.25-.25-.25h-6.75v-.71875c0-.1385-.1115-.25-.25-.25h-6.5c-.1385 0-.25.1115-.25.25v.71875h-.75c-.1385 0-.25.1115-.25.25v1.273333" fill="none" opacity=".8" stroke="url(#d)"/><path d="m1.0557148 5c.7046415 0 13.3978932.0283083 13.9442852.0283083 0 .5541558-.02651 8.9668427-.05806 8.9668427-4.894128.015945-12.5168954-.012542-13.94194-.012542 0-1.045855.0557334-6.830279.0557334-8.9826z" fill="url(#c)"/><path d="m.08698 3.976647c.8053 0 15.31189.0341 15.93634.0341 0 .67729-.0303 10.95971-.0663 10.95971-5.5933.02-14.30504-.0148-15.93366-.0148 0-1.2783.0636-8.34831.0636-10.97898z" fill="url(#b)" opacity=".4"/><path d="m1.57504 5.476667c.65431 0 12.44092.0251 12.94828.0251 0 .49259-.0246 7.97055-.0539 7.97055-4.54455.0142-11.62285-.0111-12.9461-.0111 0-.92965.0517-6.07138.0517-7.98455z" fill="none" opacity=".5" stroke="url(#a)" stroke-linecap="round"/><path d="m.55988 4.453367c.75732 0 14.39951.0316 14.98675.0316 0 .6186-.0285 10.00962-.0624 10.00962-5.26001.0178-13.45265-.014-14.98423-.014 0-1.16748.0599-7.62459.0599-10.02721z" fill="none" opacity=".3" stroke="#000" stroke-linecap="round" stroke-linejoin="round"/><g stroke-width="1.030789" transform="matrix(.66552717 0 0 .7070916 24.463549 .316067)"><rect fill="url(#f)" fill-rule="evenodd" height="12.000064" rx=".495828" ry=".454561" stroke="url(#g)" stroke-linecap="square" stroke-linejoin="round" width="17.000031" x="-30.203421" y="9.67226"/><g fill="none"><rect height="10" opacity=".4" rx=".038756" ry=".035006" stroke="url(#h)" stroke-linecap="square" width="15" x="-29.20339" y="10.672325"/><path d="m-23.958778 16.741879-5.740953 4.905349m10.189742-4.914407 5.749221 4.914407" opacity=".5" stroke="url(#i)"/><path d="m-29.92077 10.90888 8.217415 7.30888 8.044371-7.30888" opacity=".5" stroke="url(#k)"/></g></g></svg>