<svg viewBox="0 0 24 24" xmlns="http://www.w3.org/2000/svg"><path d="m4 4v2 1 13h7v-1h-6v-11h14v5h1v-9h-2v2h-2v-2h-3v2h-2v-2h-3v2h-2v-2zm4.5 5c-1.385 0-2.5 1.1152-2.5 2.5 0 .43344.1180469.834793.3105469 1.189453l.7597656-.759765c-.041-.137081-.0703125-.278908-.0703125-.429688 0-.83088.669-1.5 1.5-1.5.15079 0 .2925975.029313.4296875.070312l.7597656-.7597651c-.35465-.19247-.7560231-.3105469-1.1894531-.3105469zm2.189453 1.310547-.7597655.759765c.041.136981.0703125.278908.0703125.429688 0 .83089-.669 1.5-1.5 1.5-.15079 0-.2925975-.029312-.4296875-.070312l-.7597656.759765c.35464.19247.7560231.310547 1.1894531.310547 1.385 0 2.5-1.11519 2.5-2.5 0-.43334-.118047-.834903-.310547-1.189453zm1.310547 3.689453v6h8v-6zm1 1h6v1h-1v2h1v1h-6v-1h1v-2h-1zm3 1c-.554 0-1 .446-1 1s.446 1 1 1 1-.446 1-1-.446-1-1-1z" fill="#4d4d4d"/></svg>