<svg height="24" width="24" xmlns="http://www.w3.org/2000/svg" xmlns:xlink="http://www.w3.org/1999/xlink"><linearGradient id="a" gradientTransform="matrix(1.4407459 0 0 1.6458268 4.11799 7.272274)" gradientUnits="userSpaceOnUse" x1="11.350123" x2="11.350123" y1=".666966" y2="8.172179"><stop offset="0" stop-color="#fff"/><stop offset=".0097359" stop-color="#fff" stop-opacity=".235294"/><stop offset=".99001008" stop-color="#fff" stop-opacity=".156863"/><stop offset="1" stop-color="#fff" stop-opacity=".392157"/></linearGradient><linearGradient id="b" gradientTransform="matrix(.57234749 0 0 .50840712 -27.397488 .290353)" gradientUnits="userSpaceOnUse" x1="76.041" x2="76.041" y1="49.372032" y2="35.430561"><stop offset="0" stop-color="#0a0a0a" stop-opacity=".498"/><stop offset="1" stop-color="#0a0a0a" stop-opacity="0"/></linearGradient><linearGradient id="c" gradientTransform="matrix(.48737385 0 0 .50985078 -24.713187 -.550948)" gradientUnits="userSpaceOnUse" x1="84.30883" x2="84.30883" y1="16.110577" y2="42.923553"><stop offset="0" stop-color="#57738b"/><stop offset="1" stop-color="#455157"/></linearGradient><linearGradient id="d" gradientTransform="matrix(.47640735 0 0 .46908717 30.635905 -.249195)" gradientUnits="userSpaceOnUse" x1="-51.786404" x2="-51.786404" y1="53.514328" y2="2.061275"><stop offset="0" stop-opacity=".321739"/><stop offset="1" stop-opacity=".278261"/></linearGradient><path d="m2.5399683 2.9964919-.0013 2.0124966-1.5264855.00449-.0121828 5.8306925h22v-5.8336404l-10.72925.00295-.0045-2.0095445z" fill="#cecece"/><path d="m23.500001 10.752565v-5.8133074c0-.2363406-.170966-.4266075-.383334-.4266075h-10.35v-1.5860426c0-.2363404-.170966-.4266074-.383333-.4266074h-9.9666673c-.2123666 0-.3833333.190267-.3833333.4266074v1.5860426h-1.15000008c-.21236666 0-.38333332.1902669-.38333332.4266075v5.8133074" fill="none" opacity=".8" stroke="url(#d)"/><path d="m1.0875452 11c1.107294 0 21.0538378.047181 21.9124548.047181 0 .923593-.041665 10.944739-.091231 10.944739-7.690775.02657-19.6694123-.0209-21.908769-.0209 0-1.743091.087582-7.3838.087582-10.971z" fill="url(#c)"/><path d="m.0954332 10c1.2079529 0 22.9678898.0527 23.9045668.0527 0 1.04672-.04545 12.937722-.09945 12.937722-8.389974.030909-21.4576142-.022881-23.90055-.022881 0-1.975551.0954-8.901924.0954-12.967502z" fill="url(#b)" opacity=".4"/><g fill="none" stroke-linecap="round"><path d="m1.5835485 11.500003c1.0569624 0 20.0968715.04392 20.9164525.04392 0 .862035-.03973 9.948503-.08707 9.948503-7.341198.02484-18.7753743-.01943-20.9129319-.01943 0-1.626892.083515-6.624947.083515-9.973005z" opacity=".5" stroke="url(#a)"/><path d="m.59152944 10.5c1.15762566 0 22.01082856.05033 22.90847256.05033 0 .985166-.04356 11.941055-.09538 11.941055-8.040356.02834-20.5634766-.0223-22.90462202-.0223 0-1.859298.091562-8.142721.091562-11.96907z" opacity=".3" stroke="#000" stroke-linejoin="round"/></g></svg>