<svg height="32" width="32" xmlns="http://www.w3.org/2000/svg" xmlns:xlink="http://www.w3.org/1999/xlink"><radialGradient id="a" cx="605.71429" cy="486.64789" gradientTransform="matrix(-2.774389 0 0 1.969706 112.7623 -872.8854)" gradientUnits="userSpaceOnUse" r="117.14286" xlink:href="#b"/><linearGradient id="b"><stop offset="0"/><stop offset="1" stop-opacity="0"/></linearGradient><radialGradient id="c" cx="605.71429" cy="486.64789" gradientTransform="matrix(2.774389 0 0 1.969706 -1891.633 -872.8854)" gradientUnits="userSpaceOnUse" r="117.14286" xlink:href="#b"/><linearGradient id="d" gradientTransform="matrix(2.774389 0 0 1.969706 -1892.179 -872.8854)" gradientUnits="userSpaceOnUse" x1="302.85715" x2="302.85715" y1="366.64789" y2="609.50507"><stop offset="0" stop-opacity="0"/><stop offset=".5"/><stop offset="1" stop-opacity="0"/></linearGradient><linearGradient id="e"><stop offset="0" stop-color="#fff"/><stop offset="1" stop-color="#fff" stop-opacity="0"/></linearGradient><linearGradient id="f" gradientTransform="matrix(.5613326 0 0 .439796 -2.08973 1.65525)" gradientUnits="userSpaceOnUse" x1="33.579403" x2="33.579403" y1="5.708645" y2="16.323294"><stop offset="0" stop-color="#434a4a"/><stop offset="1" stop-color="#353b3d"/></linearGradient><linearGradient id="g" gradientTransform="matrix(.688884 0 0 .6667381 -.533216 -.500963)" gradientUnits="userSpaceOnUse" x1="16.91585" x2="16.91585" y1="7.000642" y2="14"><stop offset="0" stop-color="#a1a1a1"/><stop offset="1" stop-color="#4d4d4d"/></linearGradient><linearGradient id="h" gradientTransform="matrix(.6520304 0 0 .2340042 .355711 6.83741)" gradientUnits="userSpaceOnUse" x1="24.682861" x2="24.682861" xlink:href="#b" y1="9.241672" y2="13.523027"/><linearGradient id="i" gradientTransform="matrix(.6438835 0 0 .5892091 .546013 3.451715)" gradientUnits="userSpaceOnUse" x1="12.578789" x2="12.578789" xlink:href="#e" y1="-7.807371" y2="41.827358"/><radialGradient id="j" cx="26.616697" cy="-2.064498" gradientTransform="matrix(-.00000001 -.720032 .9621739 0 24.242624 38.998777)" gradientUnits="userSpaceOnUse" r="23"><stop offset="0" stop-color="#40ecf2"/><stop offset="1" stop-color="#0074b6"/></radialGradient><linearGradient id="k" gradientTransform="matrix(.6595732 0 0 .6104475 .170257 2.341548)" gradientUnits="userSpaceOnUse" x1="10.014208" x2="10.014208" y1="44.960102" y2="2.876463"><stop offset="0" stop-color="#434343"/><stop offset="1" stop-color="#8a8a8a"/></linearGradient><linearGradient id="l"><stop offset="0" stop-color="#f0f0f0"/><stop offset="1" stop-color="#b0b0b0"/></linearGradient><linearGradient id="m" gradientTransform="matrix(.14712127 0 0 .14976931 2.657608 16.874141)" gradientUnits="userSpaceOnUse" x1="32.891998" x2="36.358002" xlink:href="#l" y1="8.059" y2="5.4565"/><radialGradient id="n" cx="48" cy="90.171875" gradientTransform="matrix(.06324162 0 0 .05464523 3.412609 16.82749)" gradientUnits="userSpaceOnUse" r="42" xlink:href="#e"/><linearGradient id="o" gradientTransform="matrix(0 -.06967267 .05464523 0 3.825237 22.172988)" gradientUnits="userSpaceOnUse" x1="7.3709" x2="23.76619" xlink:href="#p" y1="51.470146" y2="51.433136"/><linearGradient id="p"><stop offset="0" stop-color="#676f7d"/><stop offset="1" stop-color="#818791"/></linearGradient><linearGradient id="q" gradientTransform="matrix(.05464525 0 0 .05486977 3.825235 16.835534)" gradientUnits="userSpaceOnUse" x1="36.357143" x2="36.357143" xlink:href="#e" y1="6" y2="63.893143"/><linearGradient id="r" gradientUnits="userSpaceOnUse" x1="6.44820604" x2="6.44820604" xlink:href="#s" y1="21.7549527" y2="17.16408217264"/><linearGradient id="s" gradientUnits="userSpaceOnUse" x1="10.31979" x2="10.31979" y1="21" y2=".999296"><stop offset="0" stop-color="#e0e0e0"/><stop offset="1" stop-color="#f0f0f0"/></linearGradient><linearGradient id="t" gradientTransform="matrix(.88394566 0 0 -.88394572 10.163169 89.361561)" gradientUnits="userSpaceOnUse" x1="32.251034" x2="32.251034" y1="6.131708" y2="90.238609"><stop offset="0"/><stop offset="1" stop-opacity=".588235"/></linearGradient><linearGradient id="u" gradientTransform="matrix(.14712127 0 0 .14976931 2.657608 10.720364)" gradientUnits="userSpaceOnUse" x1="32.891998" x2="36.358002" xlink:href="#l" y1="8.059" y2="5.4565"/><radialGradient id="v" cx="48" cy="90.171875" gradientTransform="matrix(.06324162 0 0 .05464523 3.412609 10.673712)" gradientUnits="userSpaceOnUse" r="42" xlink:href="#e"/><linearGradient id="w" gradientTransform="matrix(0 -.06967267 .05464523 0 3.825237 16.019212)" gradientUnits="userSpaceOnUse" x1="7.3709" x2="23.76619" xlink:href="#p" y1="51.470146" y2="51.433136"/><linearGradient id="x" gradientTransform="matrix(.05464525 0 0 .05486977 3.825235 10.681757)" gradientUnits="userSpaceOnUse" x1="36.357143" x2="36.357143" xlink:href="#e" y1="6" y2="63.893143"/><linearGradient id="y" gradientUnits="userSpaceOnUse" x1="6.44820604" x2="6.44820604" xlink:href="#s" y1="15.6011757" y2="11.01030517264"/><g transform="matrix(.01576018 0 0 .01254293 30.017663 26.89018)"><path d="m-1559.2523-150.69685h1339.6335v478.35718h-1339.6335z" fill="url(#d)" opacity=".402062"/><path d="m-219.61876-150.68038v478.33079c142.874166.90045 345.40022-107.16966 345.40014-239.196175 0-132.026537-159.436816-239.134595-345.40014-239.134615z" fill="url(#c)" opacity=".402062"/><path d="m-1559.2523-150.68038v478.33079c-142.8742.90045-345.4002-107.16966-345.4002-239.196175 0-132.026537 159.4368-239.134595 345.4002-239.134615z" fill="url(#a)" opacity=".402062"/></g><rect height="25" rx="1.836654" ry="1.801445" style="fill-rule:evenodd;stroke-width:1.002133;stroke-linecap:round;stroke-linejoin:round;fill:url(#j);stroke:url(#k)" width="30.999998" x=".5" y="4.5"/><rect fill="none" height="23" opacity=".4" rx="1.143899" ry="1.11462" stroke="url(#i)" stroke-linecap="round" stroke-linejoin="round" width="29" x="1.5" y="5.5"/><path d="m1 9h30v1h-30z" fill="url(#h)" fill-rule="evenodd" opacity=".2"/><path d="m2.5667621 4.5000001 27.0980999.00573c1.078052 0 1.835028.8408816 1.835028 1.7713768v3.2228931h-30.99977985v-3.2228969c0-.9917869.83271195-1.777103 2.06665195-1.777103z" fill="url(#f)" fill-rule="evenodd" stroke="url(#g)"/><path d="m5.5 24.499998h21v5h-21z" fill="#1a1a1a" opacity=".5" stroke="#000"/><path d="m4.5 30v-6.500002h23v6.500002" fill="none" opacity=".2" stroke="#fff"/><path d="m21.510559 84.057885h62.16399c3.34823 0 6.04372-2.727212 6.04372-6.114824v-39.038079l-29.09854-29.0985314h-39.10917c-3.34822 0-6.04372 2.7272114-6.04372 6.1148244v62.021786c0 3.387612 2.6955 6.114824 6.04372 6.114824z" fill="url(#t)" opacity=".63" transform="matrix(.0659485 0 0 .0659485 2.980067 10.363731)"/><path d="m4.4809781 11.010975h2.491821l1.770507 1.770506v2.491822c0 .18164-.14623.327872-.327873.327872h-3.934455c-.181642 0-.327872-.146232-.327872-.327872v-3.934456c0-.181642.14623-.327872.327872-.327872z" fill="url(#y)"/><path d="m4.4809781 11.010975c-.181641 0-.327872.146831-.327872.329219v.109739 3.599995c.252872.533635.06547.379625.05465.05487v-3.582249-.109741c0-.152639.121212-.274349.273226-.274349h.109291 2.273243.109291l1.71586 1.699238v.10974 2.157361c-.15381.403574.05464.457103.05464-.05487v-2.157361-.10974l-1.770504-1.771852z" fill="url(#x)"/><path d="m6.3328141 11.011068c.405434 0 .158818 1.822401.158818 1.822401s2.25211-.238538 2.25211.508052c0-.181864-.000439-.56004-.000439-.56004l-1.770513-1.770506z" fill-rule="evenodd" opacity=".2" stroke-width=".121859"/><path d="m4.1531081 15.183138c0 .231592.14623.418037.327871.418037h3.934456c.181641 0 .327871-.186445.327871-.418037v-.806157h-4.590198z" fill="url(#w)"/><path d="m4.4809791 15.601175c-.181641 0-.327871-.146832-.327871-.329219v-.127482c.0023-.667168.05464-.681394.05464-.05487v.10974c0 .152639.121211.274348.273227.274348h.10929 3.715873.109291c.152015 0 .273226-.121709.273226-.274348v-.10974c.0054-.743797.05464-.489278.05464.05487v.127481c-.000001.182391-.146232.329222-.327872.329222z" fill="url(#v)" opacity=".2"/><path d="m6.4835261 11.010975c.383307 0 .148616 1.688195.148616 1.688195s.747353-.08896 1.352761-.01236c.412144.05214.758503.18101.758503.466902 0-.171939-.0001-.372225-.0001-.372225l-1.770505-1.770506z" fill-rule="evenodd" opacity=".2" stroke-width=".115208"/><path d="m6.6643961 11.012084c.361153 0 .130085 1.559472.130085 1.559472s1.949348-.239489 1.949348.42556c0-.162001-.000519-.215635-.000519-.215635l-1.770509-1.770506z" fill="url(#u)" fill-rule="evenodd" stroke-width=".108549"/><path d="m21.510559 84.057885h62.16399c3.34823 0 6.04372-2.727212 6.04372-6.114824v-39.038079l-29.09854-29.0985314h-39.10917c-3.34822 0-6.04372 2.7272114-6.04372 6.1148244v62.021786c0 3.387612 2.6955 6.114824 6.04372 6.114824z" fill="url(#t)" opacity=".63" transform="matrix(.0659485 0 0 .0659485 2.980067 16.517509)"/><path d="m4.4809781 17.164752h2.491821l1.770507 1.770506v2.491822c0 .181641-.14623.327871-.327873.327871h-3.934455c-.181642 0-.327872-.14623-.327872-.327871v-3.934457c0-.18164.14623-.327871.327872-.327871z" fill="url(#r)"/><path d="m4.4809781 17.164752c-.181641 0-.327872.146831-.327872.329219v.109739 3.599996c.252872.533634.06547.379624.05465.05487v-3.58225-.10974c0-.152639.121212-.274349.273226-.274349h.109291 2.273243.109291l1.71586 1.699237v.109741 2.157361c-.15381.403574.05464.457103.05464-.05487v-2.157361-.10974l-1.770504-1.771853z" fill="url(#q)"/><path d="m6.3328141 17.164845c.405434 0 .158818 1.822402.158818 1.822402s2.25211-.238539 2.25211.508051c0-.181863-.000439-.56004-.000439-.56004l-1.770513-1.770506z" fill-rule="evenodd" opacity=".2" stroke-width=".121859"/><path d="m4.1531081 21.336916c0 .231592.14623.418036.327871.418036h3.934456c.181641 0 .327871-.186444.327871-.418036v-.806158h-4.590198z" fill="url(#o)"/><path d="m4.4809791 21.754952c-.181641 0-.327871-.146831-.327871-.32922v-.127481c.0023-.667168.05464-.681395.05464-.05487v.109739c0 .15264.121211.274349.273227.274349h.10929 3.715873.109291c.152015 0 .273226-.121709.273226-.274349v-.109739c.0054-.743798.05464-.489279.05464.05487v.127481c-.000001.182391-.146232.329222-.327872.329222z" fill="url(#n)" opacity=".2"/><path d="m6.4835261 17.164752c.383307 0 .148616 1.688195.148616 1.688195s.747353-.08896 1.352761-.01236c.412144.05214.758503.181009.758503.466902 0-.171939-.0001-.372225-.0001-.372225l-1.770505-1.770506z" fill-rule="evenodd" opacity=".2" stroke-width=".115208"/><path d="m6.6643961 17.165861c.361153 0 .130085 1.559472.130085 1.559472s1.949348-.239488 1.949348.42556c0-.162-.000519-.215635-.000519-.215635l-1.770509-1.770506z" fill="url(#m)" fill-rule="evenodd" stroke-width=".108549"/><g fill="#fff"><path d="m4.0170911 7.0936138a1.0505456 1.0505456 0 1 1 -2.101091 0 1.0505456 1.0505456 0 1 1 2.101091 0z" opacity=".7"/><path d="m30.393562 6.9523565a1.050546 1.050546 0 1 1 -2.101088 0 1.050546 1.050546 0 1 1 2.101088 0z" opacity=".7"/><path d="m27.700742 6.9523565a1.0505477 1.0505477 0 1 1 -2.101095 0 1.0505477 1.0505477 0 1 1 2.101095 0z" opacity=".7"/><path d="m25.007829 6.9523565a1.0505485 1.0505485 0 1 1 -2.101096 0 1.0505485 1.0505485 0 1 1 2.101096 0z" opacity=".7"/><text style="font-size:21.010883;font-family:sans-serif;letter-spacing:0;word-spacing:0;opacity:.7;stroke-width:.525273" x="12.521735" y="8.086853"><tspan fill="#fff" font-family="Ubuntu" font-size="2.801457" font-weight="500" stroke-width=".525273" x="12.521735" y="8.086853">18:30</tspan></text></g></svg>