<svg height="96" width="96" xmlns="http://www.w3.org/2000/svg" xmlns:xlink="http://www.w3.org/1999/xlink"><clipPath id="a"><path d="m0 0v96h96v-96zm12 6h72c3.324 0 6 2.676 6 6v72c0 3.324-2.676 6-6 6h-72c-3.324 0-6-2.676-6-6v-72c0-3.324 2.676-6 6-6z"/></clipPath><linearGradient id="b" gradientTransform="matrix(1.0238095 0 0 1.0119048 -1.142857 -98.071429)" gradientUnits="userSpaceOnUse" x1="32.251034" x2="32.251034" xlink:href="#c" y1="6.131708" y2="90.238609"/><linearGradient id="c" gradientTransform="matrix(1.0058652 0 0 .994169 100 0)" gradientUnits="userSpaceOnUse" x1="45.447727" x2="45.447727" y1="92.539597" y2="7.01654"><stop offset="0"/><stop offset="1" stop-opacity=".588235"/></linearGradient><linearGradient id="d" gradientUnits="userSpaceOnUse" x1="48" x2="48" y1="90" y2="5.987717"><stop offset="0" stop-color="#c8c8c8"/><stop offset="1" stop-color="#e6e6e6"/></linearGradient><linearGradient id="e" gradientUnits="userSpaceOnUse" x1="36.357143" x2="36.357143" xlink:href="#f" y1="6" y2="63.893143"/><linearGradient id="f"><stop offset="0" stop-color="#fff"/><stop offset="1" stop-color="#fff" stop-opacity="0"/></linearGradient><radialGradient id="g" cx="48" cy="90.171875" gradientTransform="matrix(1.1573129 0 0 .99590774 -7.551021 .197132)" gradientUnits="userSpaceOnUse" r="42" xlink:href="#f"/><linearGradient id="h" gradientTransform="translate(0 -97)" gradientUnits="userSpaceOnUse" x1="32.251034" x2="32.251034" xlink:href="#c" y1="6.131708" y2="90.238609"/><linearGradient id="i" gradientUnits="userSpaceOnUse" x1="56" x2="56" y1="16" y2="80"><stop offset="0" stop-color="#323232"/><stop offset="1" stop-color="#787878"/></linearGradient><filter id="j" color-interpolation-filters="sRGB"><feGaussianBlur stdDeviation=".98454545"/></filter><g clip-path="url(#a)"><g fill="url(#b)"><path d="m12-95.03125c-5.5110903 0-10.03125 4.52016-10.03125 10.03125v71c0 5.5110902 4.5201598 10.03125 10.03125 10.03125h72c5.51109 0 10.03125-4.5201597 10.03125-10.03125v-71c0-5.51109-4.52016-10.03125-10.03125-10.03125z" opacity=".08" transform="scale(1 -1)"/><path d="m12-94.03125c-4.971633 0-9.03125 4.059617-9.03125 9.03125v71c0 4.9716329 4.0596171 9.03125 9.03125 9.03125h72c4.971633 0 9.03125-4.059617 9.03125-9.03125v-71c0-4.971633-4.059617-9.03125-9.03125-9.03125z" opacity=".1" transform="scale(1 -1)"/><path d="m12-93c-4.4091333 0-8 3.590867-8 8v71c0 4.4091333 3.5908667 8 8 8h72c4.409133 0 8-3.5908667 8-8v-71c0-4.409133-3.590867-8-8-8z" opacity=".2" transform="scale(1 -1)"/><rect height="85" opacity=".3" rx="7" transform="scale(1 -1)" width="86" x="5" y="-92"/></g><rect fill="url(#h)" height="84" opacity=".45" rx="6" transform="scale(1 -1)" width="84" x="6" y="-91"/></g><rect fill="url(#d)" height="84" opacity=".75" rx="6" width="84" x="6" y="6"/><path d="m12 6c-3.324 0-6 2.676-6 6v2 68 2c0 .334721.04135.6507.09375.96875.0487.295596.09704.596915.1875.875.00988.03038.020892.0636.03125.09375.098865.287771.2348802.547452.375.8125.1445918.273507.3156161.535615.5.78125s.3737765.473472.59375.6875c.439947.428056.94291.814526 1.5 1.09375.278545.139612.5734731.246947.875.34375-.2562018-.100222-.4867109-.236272-.71875-.375-.00741-.0044-.023866.0045-.03125 0-.031933-.0193-.062293-.04251-.09375-.0625-.120395-.0767-.2310226-.163513-.34375-.25-.1061728-.0808-.2132809-.161112-.3125-.25-.1779299-.161433-.3474596-.345388-.5-.53125-.1075789-.130255-.2183939-.265285-.3125-.40625-.025089-.03838-.038446-.08587-.0625-.125-.064763-.103032-.1302275-.204517-.1875-.3125-.1010083-.194706-.2056748-.415701-.28125-.625-.00796-.02181-.023589-.04055-.03125-.0625-.0318251-.09195-.0358045-.186831-.0625-.28125-.030332-.106618-.070389-.203031-.09375-.3125-.072879-.341512-.125-.698205-.125-1.0625v-2-68-2c0-2.781848 2.2181517-5 5-5h2 68 2c2.781848 0 5 2.218152 5 5v2 68 2c0 .364295-.05212.720988-.125 1.0625-.04415.206893-.08838.397658-.15625.59375-.0077.02195-.0233.04069-.03125.0625-.06274.173739-.138383.367449-.21875.53125-.04158.0828-.07904.169954-.125.25-.0546.09721-.126774.18835-.1875.28125-.09411.140965-.204921.275995-.3125.40625-.143174.17445-.303141.346998-.46875.5-.01117.0102-.01998.02115-.03125.03125-.138386.125556-.285091.234436-.4375.34375-.102571.07315-.204318.153364-.3125.21875-.0074.0045-.02384-.0044-.03125 0-.232039.138728-.462548.274778-.71875.375.301527-.0968.596455-.204138.875-.34375.55709-.279224 1.060053-.665694 1.5-1.09375.219973-.214028.409366-.441865.59375-.6875s.355408-.507743.5-.78125c.14012-.265048.276135-.524729.375-.8125.01041-.03078.02133-.06274.03125-.09375.09046-.278085.1388-.579404.1875-.875.0524-.31805.09375-.634029.09375-.96875v-2-68-2c0-3.324-2.676-6-6-6z" fill="url(#e)" opacity=".5"/><path d="m12 90c-3.324 0-6-2.676-6-6v-2-68-2c0-.334721.04135-.6507.09375-.96875.0487-.295596.09704-.596915.1875-.875.00988-.03038.020892-.0636.03125-.09375.098865-.287771.2348802-.547452.375-.8125.1445918-.273507.3156161-.535615.5-.78125s.3737765-.473472.59375-.6875c.439947-.428056.94291-.814526 1.5-1.09375.278545-.139612.5734731-.246947.875-.34375-.2562018.100222-.4867109.236272-.71875.375-.00741.0044-.023866-.0045-.03125 0-.031933.0193-.062293.04251-.09375.0625-.120395.0767-.2310226.163513-.34375.25-.1061728.0808-.2132809.161112-.3125.25-.1779299.161433-.3474596.345388-.5.53125-.1075789.130255-.2183939.265285-.3125.40625-.025089.03838-.038446.08587-.0625.125-.064763.103032-.1302275.204517-.1875.3125-.1010083.194706-.2056748.415701-.28125.625-.00796.02181-.023589.04055-.03125.0625-.0318251.09195-.0358045.186831-.0625.28125-.030332.106618-.070389.203031-.09375.3125-.072879.341512-.125.698205-.125 1.0625v2 68 2c0 2.781848 2.2181517 5 5 5h2 68 2c2.781848 0 5-2.218152 5-5v-2-68-2c0-.364295-.05212-.720988-.125-1.0625-.04415-.206893-.08838-.397658-.15625-.59375-.0077-.02195-.0233-.04069-.03125-.0625-.06274-.173739-.138383-.367449-.21875-.53125-.04158-.0828-.07904-.169954-.125-.25-.0546-.09721-.126774-.18835-.1875-.28125-.09411-.140965-.204921-.275995-.3125-.40625-.143174-.17445-.303141-.346998-.46875-.5-.01117-.0102-.01998-.02115-.03125-.03125-.138386-.125556-.285091-.234436-.4375-.34375-.102571-.07315-.204318-.153364-.3125-.21875-.0074-.0045-.02384.0044-.03125 0-.232039-.138728-.462548-.274778-.71875-.375.301527.0968.596455.204138.875.34375.55709.279224 1.060053.665694 1.5 1.09375.219973.214028.409366.441865.59375.6875s.355408.507743.5.78125c.14012.265048.276135.524729.375.8125.01041.03078.02133.06274.03125.09375.09046.278085.1388.579404.1875.875.0524.31805.09375.634029.09375.96875v2 68 2c0 3.324-2.676 6-6 6z" fill="url(#g)" opacity=".2"/><path d="m48 16c-9.487401 0-17.090909 7.145091-17.090909 15.999998.0214.942932.09185 2.305886.181822 3.454547-1.6224.688574-1.740791 3.846112-.363639 7.090907.546112 1.286729 1.241661 2.274722 2 3.090913.184255.911919.135912 1.321319.363636 2.363635.635463 1.906391 3.140825 5.642664 5.454543 8.727274.226878 2.368929.462232 4.759562 0 7.454546-6.666826 5.53118-23.843732 7.910208-23.81818 13.636361l-.363636 2.181819h67.272726l-.363652-2.181819c-.027327-4.900818-17.233094-7.910209-23.818169-13.636361-.266442-2.191978-.317232-4.386485-.181804-6.545456 2.108301-3.25354 4.928572-7.512993 5.636361-9.636364.254375-1.075253.34696-1.801429.545451-2.727275.631755-.765248 1.170984-1.630753 1.636368-2.727273 1.308295-3.082554 1.223729-6.025231-.181804-6.90909.08287-1.242006.145308-2.563545.181804-3.636364 0-8.854907-7.603501-15.999998-17.09091-15.999998z" fill="none" filter="url(#j)" opacity=".2" stroke="#fff" stroke-width="4"/><path d="m48 16c-9.487401 0-17.090909 7.145091-17.090909 15.999998.0214.942932.09185 2.305886.181822 3.454547-1.6224.688574-1.740791 3.846112-.363639 7.090907.546112 1.286729 1.241661 2.274722 2 3.090913.184255.911919.135912 1.321319.363636 2.363635.635463 1.906391 3.140825 5.642664 5.454543 8.727274.226878 2.368929.462232 4.759562 0 7.454546-6.666826 5.53118-23.843732 7.910208-23.81818 13.636361l-.363636 2.181819h67.272726l-.363652-2.181819c-.027327-4.900818-17.233094-7.910209-23.818169-13.636361-.266442-2.191978-.317232-4.386485-.181804-6.545456 2.108301-3.25354 4.928572-7.512993 5.636361-9.636364.254375-1.075253.34696-1.801429.545451-2.727275.631755-.765248 1.170984-1.630753 1.636368-2.727273 1.308295-3.082554 1.223729-6.025231-.181804-6.90909.08287-1.242006.145308-2.563545.181804-3.636364 0-8.854907-7.603501-15.999998-17.09091-15.999998z" fill="url(#i)"/><path d="m48 16c-9.487401 0-17.09375 7.145093-17.09375 16 .0214.942932.09753 2.320089.1875 3.46875-1.6224.688574-1.752152 3.817705-.375 7.0625.546112 1.286729 1.241661 2.277559 2 3.09375.184255.911919.147276 1.332684.375 2.375.635463 1.906391 3.123782 5.63414 5.4375 8.71875.226878 2.368929.462232 4.773766 0 7.46875-6.666826 5.53118-23.838052 7.898847-23.8125 13.625l-.34375 2.1875h67.25l-.34375-2.1875c-.02733-4.900818-17.227425-7.898848-23.8125-13.625-.266442-2.191978-.322928-4.403529-.1875-6.5625 2.108301-3.25354 4.917211-7.501629 5.625-9.625.254375-1.075253.364009-1.792904.5625-2.71875.631755-.765248 1.159616-1.65348 1.625-2.75 1.308295-3.082554 1.218033-6.022391-.1875-6.90625.08287-1.242006.151004-2.552181.1875-3.625 0-8.854907-7.606341-16-17.09375-16zm0 2.15625c8.386228 0 14.901282 6.184666 14.9375 13.78125.00005.01059-.000025.02065 0 .03125-.000318.0092.000322.02198 0 .03125-.0359 1.031707-.107539 2.270348-.1875 3.46875a2.1468993 2.1468993 0 0 0 .9375 1.9375c.0033.03549.169986.28542.1875.90625.02335.827773-.198675 2.075989-.75 3.375-.400193.94292-.826194 1.629685-1.3125 2.21875a2.1468993 2.1468993 0 0 0 -.4375.9375c-.202128.942809-.317105 1.604668-.53125 2.53125-.23572.679303-1.052155 2.244315-2.0625 3.90625-1.026324 1.688218-2.253621 3.553433-3.3125 5.1875a2.1468993 2.1468993 0 0 0 -.34375 1.03125c-.143497 2.287612-.06418 4.609907.21875 6.9375a2.1468993 2.1468993 0 0 0 .71875 1.375c3.850912 3.348619 9.893079 5.442753 14.96875 7.5 2.537836 1.028623 4.819463 2.017216 6.3125 2.9375.746518.460142 1.297709.91232 1.5625 1.21875s.218831.358349.21875.34375a2.1468993 2.1468993 0 0 0 0 .03125h-62.25a2.1468993 2.1468993 0 0 0 0-.03125c-.0016-.35802.329886-1.023761 1.78125-1.96875s3.728133-1.922167 6.25-2.90625c5.043735-1.968166 11.085414-3.845986 15-7.09375a2.1468993 2.1468993 0 0 0 .75-1.28125c.518725-3.024357.226591-5.696573 0-8.0625a2.1468993 2.1468993 0 0 0 -.40625-1.0625c-2.242529-2.989702-4.696757-6.921371-5.09375-8.0625-.151378-.760384-.137869-1.168549-.34375-2.1875a2.1468993 2.1468993 0 0 0 -.53125-1.03125c-.614185-.66104-1.148902-1.420616-1.59375-2.46875-.582147-1.371633-.791433-2.694665-.75-3.53125.03108-.627439.169356-.78988.125-.78125a2.1468993 2.1468993 0 0 0 1.15625-2.0625c-.085297-1.088973-.134785-2.436242-.15625-3.3125 0-.0212-.000101-.04132 0-.0625.036218-7.596582 6.551281-13.78125 14.9375-13.78125z" opacity=".1"/><path d="m48 16c-9.487401 0-17.09375 7.145093-17.09375 16 .0214.942932.09753 2.320089.1875 3.46875-1.6224.688574-1.752152 3.817705-.375 7.0625.546112 1.286729 1.241661 2.277559 2 3.09375.184255.911919.147276 1.332684.375 2.375.635463 1.906391 3.123782 5.63414 5.4375 8.71875.226878 2.368929.462232 4.773766 0 7.46875-6.666826 5.53118-23.838052 7.898847-23.8125 13.625l-.34375 2.1875h67.25l-.34375-2.1875c-.02733-4.900818-17.227425-7.898848-23.8125-13.625-.266442-2.191978-.322928-4.403529-.1875-6.5625 2.108301-3.25354 4.917211-7.501629 5.625-9.625.254375-1.075253.364009-1.792904.5625-2.71875.631755-.765248 1.159616-1.65348 1.625-2.75 1.308295-3.082554 1.218033-6.022391-.1875-6.90625.08287-1.242006.151004-2.552181.1875-3.625 0-8.854907-7.606341-16-17.09375-16zm0 1.03125c8.957611 0 16.044445 6.688352 16.0625 14.9375.000023.01053 0 .02071 0 .03125-.03621 1.052736-.106051 2.341789-.1875 3.5625a1.0325408 1.0325408 0 0 0 .46875.9375c.274524.172633.626997.744304.65625 1.78125.02925 1.036946-.239054 2.41899-.84375 3.84375-.434031 1.022647-.906948 1.819486-1.46875 2.5a1.0325408 1.0325408 0 0 0 -.21875.4375c-.200032.933036-.297871 1.626723-.53125 2.625-.0059.02519-.0252.03691-.03125.0625-.301955.877238-1.130918 2.407164-2.15625 4.09375-1.040813 1.712052-2.287325 3.58847-3.34375 5.21875a1.0325408 1.0325408 0 0 0 -.15625.5c-.139309 2.22084-.08687 4.492799.1875 6.75a1.0325408 1.0325408 0 0 0 .34375.65625c3.561085 3.096596 9.554157 5.244544 14.65625 7.3125 2.551047 1.033978 4.889549 2.038594 6.5 3.03125.805225.496328 1.432998.967069 1.8125 1.40625s.498266.782797.5 1.09375a1.0325408 1.0325408 0 0 0 0 .15625l.15625 1h-64.8125l.15625-1a1.0325408 1.0325408 0 0 0 0-.15625c-.0041-.915235.726693-1.873725 2.3125-2.90625s3.89507-2.039143 6.4375-3.03125c5.08486-1.984214 11.074575-3.908761 14.6875-6.90625a1.0325408 1.0325408 0 0 0 .375-.59375c.489402-2.853395.22674-5.382515 0-7.75a1.0325408 1.0325408 0 0 0 -.21875-.53125c-2.260498-3.013658-4.702825-6.754335-5.25-8.3125-.0054-.02472.0051-.0385 0-.0625-.0027-.0079-.02865-.02344-.03125-.03125-.183114-.881758-.150154-1.323101-.34375-2.28125a1.0325408 1.0325408 0 0 0 -.25-.46875c-.689009-.741572-1.315091-1.640522-1.8125-2.8125-.637389-1.501793-.896426-2.967646-.84375-4.03125.05268-1.063604.384931-1.559084.6875-1.6875a1.0325408 1.0325408 0 0 0 .625-1.03125c-.087686-1.119481-.166042-2.464819-.1875-3.375-.000198-.0084.000189-.02293 0-.03125.01806-8.249148 7.104898-14.9375 16.0625-14.9375z" opacity=".2"/><path d="m48 16c-9.487401 0-17.09375 7.145093-17.09375 16 .0033.14445.02578.369366.03125.53125.267531-8.632873 7.746234-15.53125 17.0625-15.53125 9.316274 0 16.794969 6.898377 17.0625 15.53125.006448-.166938.025899-.373969.03125-.53125 0-8.854907-7.606341-16-17.09375-16zm-16.96875 19.5c-.925159.441695-1.321054 1.711272-1.21875 3.34375.09516-1.178882.513652-2.049218 1.28125-2.375-.02514-.320978-.04105-.628146-.0625-.96875zm33.9375.15625c-.01913.337232-.04034.636616-.0625.96875.62766.394699.999345 1.236303 1.09375 2.28125.08646-1.489395-.255164-2.717125-1.03125-3.25zm-7.75 25.25c-.0012 1.418498.07656 2.854396.25 4.28125 6.585075 5.726152 23.785173 8.724182 23.8125 13.625l.1875 1.1875h.15625l-.34375-2.1875c-.02733-4.900818-17.227425-7.898848-23.8125-13.625-.133221-1.095989-.220926-2.188755-.25-3.28125zm-18.40625.1875c-.0068.998756-.09634 2.015682-.28125 3.09375-6.666826 5.53118-23.838052 7.898847-23.8125 13.625l-.34375 2.1875h.15625l.1875-1.1875c-.02555-5.726153 17.145674-8.09382 23.8125-13.625.246744-1.438612.324665-2.785596.28125-4.09375z" opacity=".3"/><path d="m30.9375 32.53125c-.0049.158582-.03125.309024-.03125.46875.01542.679442.06969 1.62171.125 2.5.02145-.01024.0405-.02191.0625-.03125-.07619-.972695-.125989-2.042649-.15625-2.9375zm34.125 0c-.03754.971753-.08553 2.033829-.15625 3.09375.01933.01215.04367.01832.0625.03125.05241-.923837.09826-1.870322.125-2.65625 0-.159726-.02634-.310168-.03125-.46875zm-35.25 6.3125c-.105969 1.312811.180663 2.977899.90625 4.6875.546112 1.286729 1.241661 2.277559 2 3.09375.184255.911919.147276 1.332684.375 2.375.635463 1.906391 3.123782 5.63414 5.4375 8.71875.105768 1.104369.243334 2.23256.28125 3.375.01027-1.49796-.14513-2.953708-.28125-4.375-2.313718-3.08461-4.802037-6.812359-5.4375-8.71875-.227724-1.042316-.190745-1.463081-.375-2.375-.758339-.816191-1.453888-1.807021-2-3.09375-.552914-1.302755-.836032-2.567015-.90625-3.6875zm36.1875.0625c-.06397 1.102109-.357512 2.332084-.90625 3.625-.465384 1.09652-.993245 1.984752-1.625 2.75-.198491.925846-.308125 1.643497-.5625 2.71875-.707789 2.123371-3.516699 6.37146-5.625 9.625-.0543.865625-.06997 1.750403-.0625 2.625.01012-.54359.02864-1.085257.0625-1.625 2.108301-3.25354 4.917211-7.501629 5.625-9.625.254375-1.075253.364009-1.792904.5625-2.71875.631755-.765248 1.159616-1.65348 1.625-2.75.724058-1.705997 1.023249-3.329974.90625-4.625zm-51.46875 41.09375-.15625 1h67.25l-.15625-1z" fill="#fff" opacity=".5"/></svg>