<svg height="96" width="96" xmlns="http://www.w3.org/2000/svg" xmlns:xlink="http://www.w3.org/1999/xlink"><linearGradient id="a"><stop offset="0" stop-color="#fff"/><stop offset="1" stop-color="#fff" stop-opacity="0"/></linearGradient><linearGradient id="b"><stop offset="0" stop-color="#efad51"/><stop offset="1" stop-color="#d56616"/></linearGradient><linearGradient id="c" gradientUnits="userSpaceOnUse" x1="36.357143" x2="36.357143" xlink:href="#a" y1="6" y2="63.893143"/><filter id="d" color-interpolation-filters="sRGB" height="1.384" width="1.384" x="-.192" y="-.192"><feGaussianBlur stdDeviation="5.28"/></filter><linearGradient id="e" gradientUnits="userSpaceOnUse" x1="48" x2="48" xlink:href="#a" y1="20.220806" y2="138.66119"/><radialGradient id="f" cx="48" cy="90.171875" gradientTransform="matrix(1.1573129 0 0 .99590774 -7.551021 .197132)" gradientUnits="userSpaceOnUse" r="42" xlink:href="#a"/><clipPath id="g"><rect height="84" rx="6" width="84" x="6" y="6"/></clipPath><linearGradient id="h" gradientTransform="matrix(1.0058652 0 0 .994169 100 0)" gradientUnits="userSpaceOnUse" x1="45.447727" x2="45.447727" y1="92.539597" y2="7.01654"><stop offset="0"/><stop offset="1" stop-opacity=".588235"/></linearGradient><linearGradient id="i" gradientTransform="matrix(1.0238095 0 0 -1.0119048 -1.142857 98.071429)" gradientUnits="userSpaceOnUse" x1="32.251034" x2="32.251034" xlink:href="#h" y1="6.131708" y2="90.238609"/><linearGradient id="j" gradientTransform="matrix(1 0 0 -1 0 97)" gradientUnits="userSpaceOnUse" x1="32.251034" x2="32.251034" xlink:href="#h" y1="6.131708" y2="90.238609"/><linearGradient id="k" gradientTransform="matrix(1.0172414 0 0 1.0172414 -1.103448 -1.103448)" gradientUnits="userSpaceOnUse" x1="58.650177" x2="58.650177" y1="122" y2="5.425234"><stop offset="0"/><stop offset="1" stop-color="#515151"/></linearGradient><linearGradient id="l" gradientTransform="translate(-110)" gradientUnits="userSpaceOnUse" x1="48" x2="48" xlink:href="#k" y1="90" y2="5.987717"/><radialGradient id="m" cx="48" cy="48" gradientTransform="matrix(1.1428571 0 0 .85714286 -6.857143 3.857143)" gradientUnits="userSpaceOnUse" r="28" xlink:href="#b"/><radialGradient id="n" cx="48" cy="48" gradientTransform="matrix(1.1428571 0 0 -.85714286 -6.857143 38.142857)" gradientUnits="userSpaceOnUse" r="28" xlink:href="#b"/><radialGradient id="o" cx="48" cy="48" gradientTransform="matrix(1.1428571 0 0 .85714286 -6.857143 57.857143)" gradientUnits="userSpaceOnUse" r="28" xlink:href="#b"/><linearGradient id="p" gradientUnits="userSpaceOnUse" x1="48" x2="48" xlink:href="#k" y1="90" y2="5.987717"/><linearGradient id="q" gradientUnits="userSpaceOnUse" x1="48.495441" x2="48.495441" y1="90.434654" y2="52.387913"><stop offset="0" stop-color="#a94508"/><stop offset="1" stop-color="#d58100" stop-opacity="0"/></linearGradient><radialGradient id="r" cx="48" cy="44.717331" gradientTransform="matrix(1.1428571 0 0 .76190474 -6.857143 5.929653)" gradientUnits="userSpaceOnUse" r="42" xlink:href="#a"/><g><g fill="url(#i)"><path d="m12 4c-5.5087222 0-10 4.4912778-10 10v71c0 5.508722 4.4912778 10 10 10h72c5.508722 0 10-4.491278 10-10v-71c0-5.5087222-4.491278-10-10-10z" opacity=".08"/><path d="m12 5.03125c-4.946415 0-8.96875 4.022335-8.96875 8.96875v71c0 4.946415 4.022335 8.96875 8.96875 8.96875h72c4.946415 0 8.96875-4.022335 8.96875-8.96875v-71c0-4.946415-4.022335-8.96875-8.96875-8.96875zm-.03125 7.9375h2.0625v.0625h-2.0625zm70 0h2.0625v.0625h-2.0625zm-70 8h2.0625v.0625h-2.0625zm70 0h2.0625v.0625h-2.0625zm-70 8h2.0625v.0625h-2.0625zm70 0h2.0625v.0625h-2.0625zm-70 8h2.0625v.0625h-2.0625zm70 0h2.0625v.0625h-2.0625zm-70 8h2.0625v.0625h-2.0625zm70 0h2.0625v.0625h-2.0625zm-70 8h2.0625v.0625h-2.0625zm70 0h2.0625v.0625h-2.0625zm-70 8h2.0625v.0625h-2.0625zm70 0h2.0625v.0625h-2.0625zm-70 8h2.0625v.0625h-2.0625zm70 0h2.0625v.0625h-2.0625zm-70 8h2.0625v.0625h-2.0625zm70 0h2.0625v.0625h-2.0625zm-70 8h2.0625v.0625h-2.0625zm70 0h2.0625v.0625h-2.0625z" opacity=".1"/><path d="m12 6c-4.4201936 0-8 3.5798064-8 8v71c0 4.420194 3.5798064 8 8 8h72c4.420194 0 8-3.579806 8-8v-71c0-4.4201936-3.579806-8-8-8zm-1 6h4v2h-4zm70 0h4v2h-4zm-70 8h4v2h-4zm70 0h4v2h-4zm-70 8h4v2h-4zm70 0h4v2h-4zm-70 8h4v2h-4zm70 0h4v2h-4zm-70 8h4v2h-4zm70 0h4v2h-4zm-70 8h4v2h-4zm70 0h4v2h-4zm-70 8h4v2h-4zm70 0h4v2h-4zm-70 8h4v2h-4zm70 0h4v2h-4zm-70 8h4v2h-4zm70 0h4v2h-4zm-70 8h4v2h-4zm70 0h4v2h-4z" opacity=".2"/><path d="m12 7c-3.878 0-7 3.122-7 7v71c0 3.878 3.122 7 7 7h72c3.878 0 7-3.122 7-7v-71c0-3.878-3.122-7-7-7zm-2 4h6v4h-6zm70 0h6v4h-6zm-70 8h6v4h-6zm70 0h6v4h-6zm-70 8h6v4h-6zm70 0h6v4h-6zm-70 8h6v4h-6zm70 0h6v4h-6zm-70 8h6v4h-6zm70 0h6v4h-6zm-70 8h6v4h-6zm70 0h6v4h-6zm-70 8h6v4h-6zm70 0h6v4h-6zm-70 8h6v4h-6zm70 0h6v4h-6zm-70 8h6v4h-6zm70 0h6v4h-6zm-70 8h6v4h-6zm70 0h6v4h-6z" opacity=".3"/></g><path d="m12 7c-3.324 0-6 2.676-6 6v72c0 3.324 2.676 6 6 6h72c3.324 0 6-2.676 6-6v-72c0-3.324-2.676-6-6-6zm-2 4h6v4h-6zm70 0h6v4h-6zm-70 8h6v4h-6zm70 0h6v4h-6zm-70 8h6v4h-6zm70 0h6v4h-6zm-70 8h6v4h-6zm70 0h6v4h-6zm-70 8h6v4h-6zm70 0h6v4h-6zm-70 8h6v4h-6zm70 0h6v4h-6zm-70 8h6v4h-6zm70 0h6v4h-6zm-70 8h6v4h-6zm70 0h6v4h-6zm-70 8h6v4h-6zm70 0h6v4h-6zm-70 8h6v4h-6zm70 0h6v4h-6z" fill="url(#j)" opacity=".45"/></g><g><path d="m12 6c-3.324 0-6 2.676-6 6v72c0 3.324 2.676 6 6 6h72c3.324 0 6-2.676 6-6v-72c0-3.324-2.676-6-6-6zm-2 4h6v4h-6zm70 0h6v4h-6zm-70 8h6v4h-6zm70 0h6v4h-6zm-70 8h6v4h-6zm70 0h6v4h-6zm-70 8h6v4h-6zm70 0h6v4h-6zm-70 8h6v4h-6zm70 0h6v4h-6zm-70 8h6v4h-6zm70 0h6v4h-6zm-70 8h6v4h-6zm70 0h6v4h-6zm-70 8h6v4h-6zm70 0h6v4h-6zm-70 8h6v4h-6zm70 0h6v4h-6zm-70 8h6v4h-6zm70 0h6v4h-6z" fill="url(#p)"/><rect fill="url(#l)" height="84" rx="6" width="84" x="-104" y="6"/><path d="m-100 10v4h6v-4zm70 0v4h6v-4zm-70 8v4h6v-4zm70 0v4h6v-4zm-70 8v4h6v-4zm70 0v4h6v-4zm-70 8v4h6v-4zm70 0v4h6v-4zm-70 8v4h6v-4zm70 0v4h6v-4zm-70 8v4h6v-4zm70 0v4h6v-4zm-70 8v4h6v-4zm70 0v4h6v-4zm-70 8v4h6v-4zm70 0v4h6v-4zm-70 8v4h6v-4zm70 0v4h6v-4zm-70 8v4h6v-4zm70 0v4h6v-4z" fill="#f00" opacity=".588745"/></g><rect fill="url(#m)" height="48" rx="2" ry="2.1" width="56" x="20" y="24"/><path d="m22 78c-1.108 0-2 .93035-2 2.09375v9.90625h56v-9.90625c0-1.1634-.892-2.09375-2-2.09375z" fill="url(#o)"/><path d="m22 18c-1.108 0-2-.93035-2-2.09375v-9.90625h56v9.90625c0 1.1634-.892 2.09375-2 2.09375z" fill="url(#n)"/><path d="m20 48v21.90625c0 1.1634.892 2.09375 2 2.09375h52c1.108 0 2-.93035 2-2.09375v-21.90625zm2 30c-1.108 0-2 .93035-2 2.09375v9.90625h56v-9.90625c0-1.1634-.892-2.09375-2-2.09375z" fill="url(#q)" opacity=".7"/><g transform="translate(10)"><path d="m100 6v9.90625c0 1.1634.892 2.09375 2 2.09375h52c1.108 0 2-.93035 2-2.09375v-9.90625h-2.03125v9.90625c0 .0427-.002.05324 0 .0625h-51.9375c.002-.0093 0-.0198 0-.0625v-9.90625zm2 18c-1.108 0-2 .93035-2 2.09375v43.8125c0 1.1634.892 2.09375 2 2.09375h52c1.108 0 2-.93035 2-2.09375v-43.8125c0-1.1634-.892-2.09375-2-2.09375zm.0312 2.03125h51.9375c-.002.0093 0 .0198 0 .0625v43.8125c0 .0427-.002.05324 0 .0625h-51.9375c.002-.0093 0-.0198 0-.0625v-43.8125c0-.0427.002-.05324 0-.0625zm-.0312 51.96875c-1.108 0-2 .93035-2 2.09375v9.90625h2.03125v-9.90625c0-.0427.002-.0532 0-.0625h51.9375c-.002.0093 0 .0198 0 .0625v9.90625h2.03125v-9.90625c0-1.1634-.892-2.09375-2-2.09375z" opacity=".05"/><path d="m100 6v9.90625c0 1.1634.892 2.09375 2 2.09375h52c1.108 0 2-.93035 2-2.09375v-9.90625h-.90625v9.90625c0 .700109-.49312 1.1875-1.09375 1.1875h-52c-.60063 0-1.09375-.487391-1.09375-1.1875v-9.90625zm2 18c-1.108 0-2 .93035-2 2.09375v43.8125c0 1.1634.892 2.09375 2 2.09375h52c1.108 0 2-.93035 2-2.09375v-43.8125c0-1.1634-.892-2.09375-2-2.09375zm0 .90625h52c.60063 0 1.09375.487391 1.09375 1.1875v43.8125c0 .700109-.49312 1.1875-1.09375 1.1875h-52c-.60063 0-1.09375-.487391-1.09375-1.1875v-43.8125c0-.700109.49312-1.1875 1.09375-1.1875zm0 53.09375c-1.108 0-2 .93035-2 2.09375v9.90625h.90625v-9.90625c0-.700109.49312-1.1875 1.09375-1.1875h52c.60063 0 1.09375.487391 1.09375 1.1875v9.90625h.90625v-9.90625c0-1.1634-.892-2.09375-2-2.09375z" opacity=".15"/></g><g fill="#fff"><path d="m40 36v24l20.021419-12z"/><path d="m39.84375 35.0625a.9515508.9515508 0 0 0 -.78125.9375v24a.9515508.9515508 0 0 0 1.4375.8125l20.03125-12a.9515508.9515508 0 0 0 0-1.625l-20.03125-12a.9515508.9515508 0 0 0 -.65625-.125z" opacity=".2"/><path d="m40.03125 33.9375c-1.261906-.03384-2.241241 1.213369-2.0625 2.432808v23.910942c.169303 1.395591 1.901244 2.244443 3.09375 1.46875 6.720455-4.017724 13.427274-8.060311 20.15625-12.0625.944965-.670809 1.190826-2.134557.375-3-.735003-.717572-1.73926-1.119103-2.596606-1.693501-6.030277-3.612619-12.060725-7.224951-18.090894-10.837749-.274221-.135899-.578646-.163786-.875-.21875z" opacity=".05"/></g><g><rect height="66" rx="12" style="opacity:.1;stroke:#fff;stroke-width:.5;stroke-linecap:round;clip-path:url(#g);fill:url(#e);filter:url(#d)" width="66" x="15" y="15"/><path d="m12 6c-3.324 0-6 2.676-6 6v2 68 2c0 .334721.04135.6507.09375.96875.0487.295596.09704.596915.1875.875.00988.03038.020892.0636.03125.09375.098865.287771.2348802.547452.375.8125.1445918.273507.3156161.535615.5.78125s.3737765.473472.59375.6875c.439947.428056.94291.814526 1.5 1.09375.278545.139612.5734731.246947.875.34375-.2562018-.100222-.4867109-.236272-.71875-.375-.00741-.0044-.023866.0045-.03125 0-.031933-.0193-.062293-.04251-.09375-.0625-.120395-.0767-.2310226-.163513-.34375-.25-.1061728-.0808-.2132809-.161112-.3125-.25-.1779299-.161433-.3474596-.345388-.5-.53125-.1075789-.130255-.2183939-.265285-.3125-.40625-.025089-.03838-.038446-.08587-.0625-.125-.064763-.103032-.1302275-.204517-.1875-.3125-.1010083-.194706-.2056748-.415701-.28125-.625-.00796-.02181-.023589-.04055-.03125-.0625-.0318251-.09195-.0358045-.186831-.0625-.28125-.0303323-.106618-.0703894-.203031-.09375-.3125-.0728786-.341512-.125-.698205-.125-1.0625v-2-68-2c0-2.781848 2.2181517-5 5-5h2 68 2c2.781848 0 5 2.218152 5 5v2 68 2c0 .364295-.05212.720988-.125 1.0625-.04415.206893-.08838.397658-.15625.59375-.0077.02195-.0233.04069-.03125.0625-.06274.173739-.138383.367449-.21875.53125-.04158.0828-.07904.169954-.125.25-.0546.09721-.126774.18835-.1875.28125-.09411.140965-.204921.275995-.3125.40625-.143174.17445-.303141.346998-.46875.5-.01117.0102-.01998.02115-.03125.03125-.138386.125556-.285091.234436-.4375.34375-.102571.07315-.204318.153364-.3125.21875-.0074.0045-.02384-.0044-.03125 0-.232039.138728-.462548.274778-.71875.375.301527-.0968.596455-.204138.875-.34375.55709-.279224 1.060053-.665694 1.5-1.09375.219973-.214028.409366-.441865.59375-.6875s.355408-.507743.5-.78125c.14012-.265048.276135-.524729.375-.8125.01041-.03078.02133-.06274.03125-.09375.09046-.278085.1388-.579404.1875-.875.0524-.31805.09375-.634029.09375-.96875v-2-68-2c0-3.324-2.676-6-6-6z" fill="url(#c)" opacity=".25"/><path d="m12 90c-3.324 0-6-2.676-6-6v-2-68-2c0-.334721.04135-.6507.09375-.96875.0487-.295596.09704-.596915.1875-.875.00988-.03038.020892-.0636.03125-.09375.098865-.287771.2348802-.547452.375-.8125.1445918-.273507.3156161-.535615.5-.78125s.3737765-.473472.59375-.6875c.439947-.428056.94291-.814526 1.5-1.09375.278545-.139612.5734731-.246947.875-.34375-.2562018.100222-.4867109.236272-.71875.375-.00741.0044-.023866-.0045-.03125 0-.031933.0193-.062293.04251-.09375.0625-.120395.0767-.2310226.163513-.34375.25-.1061728.0808-.2132809.161112-.3125.25-.1779299.161433-.3474596.345388-.5.53125-.1075789.130255-.2183939.265285-.3125.40625-.025089.03838-.038446.08587-.0625.125-.064763.103032-.1302275.204517-.1875.3125-.1010083.194706-.2056748.415701-.28125.625-.00796.02181-.023589.04055-.03125.0625-.0318251.09195-.0358045.186831-.0625.28125-.0303323.106618-.0703894.203031-.09375.3125-.0728786.341512-.125.698205-.125 1.0625v2 68 2c0 2.781848 2.2181517 5 5 5h2 68 2c2.781848 0 5-2.218152 5-5v-2-68-2c0-.364295-.05212-.720988-.125-1.0625-.04415-.206893-.08838-.397658-.15625-.59375-.0077-.02195-.0233-.04069-.03125-.0625-.06274-.173739-.138383-.367449-.21875-.53125-.04158-.0828-.07904-.169954-.125-.25-.0546-.09721-.126774-.18835-.1875-.28125-.09411-.140965-.204921-.275995-.3125-.40625-.143174-.17445-.303141-.346998-.46875-.5-.01117-.0102-.01998-.02115-.03125-.03125-.138386-.125556-.285091-.234436-.4375-.34375-.102571-.07315-.204318-.153364-.3125-.21875-.0074-.0045-.02384.0044-.03125 0-.232039-.138728-.462548-.274778-.71875-.375.301527.0968.596455.204138.875.34375.55709.279224 1.060053.665694 1.5 1.09375.219973.214028.409366.441865.59375.6875s.355408.507743.5.78125c.14012.265048.276135.524729.375.8125.01041.03078.02133.06274.03125.09375.09046.278085.1388.579404.1875.875.0524.31805.09375.634029.09375.96875v2 68 2c0 3.324-2.676 6-6 6z" fill="url(#f)" opacity=".15"/><path d="m12 6c-3.324 0-6 2.676-6 6v46.375c2.8979865-1.538496 5.906015-3.003925 9.0625-4.375h-5.0625v-4h6v3.59375c20.054591-8.534674 44.988764-13.59375 72-13.59375.669441 0 1.333162.02506 2 .03125v-28.03125c0-3.324-2.676-6-6-6zm-2 4h6v4h-6zm70 0h6v4h-6zm-70 8h6v4h-6zm70 0h6v4h-6zm-70 8h6v4h-6zm70 0h6v4h-6zm-70 8h6v4h-6zm70 0h6v4h-6zm-70 8h6v4h-6z" fill="url(#r)" opacity=".4"/></g></svg>