<svg height="96" width="96" xmlns="http://www.w3.org/2000/svg" xmlns:xlink="http://www.w3.org/1999/xlink"><linearGradient id="a" gradientUnits="userSpaceOnUse" x1="53.2162154" x2="53.2162154" y1="-56.9999999" y2="5.78103031534"><stop offset="0" stop-color="#323232"/><stop offset="1" stop-color="#787878"/></linearGradient><clipPath id="b"><path d="m0 0v96h96v-96zm12 6h72c3.324 0 6 2.676 6 6v72c0 3.324-2.676 6-6 6h-72c-3.324 0-6-2.676-6-6v-72c0-3.324 2.676-6 6-6z"/></clipPath><linearGradient id="c" gradientTransform="matrix(1.0238095 0 0 1.0119048 -1.142857 -98.071429)" gradientUnits="userSpaceOnUse" x1="32.251034" x2="32.251034" xlink:href="#d" y1="6.131708" y2="90.238609"/><linearGradient id="d" gradientTransform="matrix(1.0058652 0 0 .994169 100 0)" gradientUnits="userSpaceOnUse" x1="45.447727" x2="45.447727" y1="92.539597" y2="7.01654"><stop offset="0"/><stop offset="1" stop-opacity=".588235"/></linearGradient><linearGradient id="e" gradientUnits="userSpaceOnUse" x1="48" x2="48" y1="90" y2="5.987717"><stop offset="0" stop-color="#c8c8c8"/><stop offset="1" stop-color="#e6e6e6"/></linearGradient><linearGradient id="f" gradientUnits="userSpaceOnUse" x1="36.357143" x2="36.357143" xlink:href="#g" y1="6" y2="63.893143"/><linearGradient id="g"><stop offset="0" stop-color="#fff"/><stop offset="1" stop-color="#fff" stop-opacity="0"/></linearGradient><radialGradient id="h" cx="48" cy="90.171875" gradientTransform="matrix(1.1573129 0 0 .99590774 -7.551021 .197132)" gradientUnits="userSpaceOnUse" r="42" xlink:href="#g"/><linearGradient id="i" gradientTransform="translate(0 -97)" gradientUnits="userSpaceOnUse" x1="32.251034" x2="32.251034" xlink:href="#d" y1="6.131708" y2="90.238609"/><filter id="j" color-interpolation-filters="sRGB"><feGaussianBlur stdDeviation=".78264169"/></filter><g clip-path="url(#b)"><g fill="url(#c)"><path d="m12-95.03125c-5.5110903 0-10.03125 4.52016-10.03125 10.03125v71c0 5.5110902 4.5201598 10.03125 10.03125 10.03125h72c5.51109 0 10.03125-4.5201597 10.03125-10.03125v-71c0-5.51109-4.52016-10.03125-10.03125-10.03125z" opacity=".08" transform="scale(1 -1)"/><path d="m12-94.03125c-4.971633 0-9.03125 4.059617-9.03125 9.03125v71c0 4.9716329 4.0596171 9.03125 9.03125 9.03125h72c4.971633 0 9.03125-4.059617 9.03125-9.03125v-71c0-4.971633-4.059617-9.03125-9.03125-9.03125z" opacity=".1" transform="scale(1 -1)"/><path d="m12-93c-4.4091333 0-8 3.590867-8 8v71c0 4.4091333 3.5908667 8 8 8h72c4.409133 0 8-3.5908667 8-8v-71c0-4.409133-3.590867-8-8-8z" opacity=".2" transform="scale(1 -1)"/><rect height="85" opacity=".3" rx="7" transform="scale(1 -1)" width="86" x="5" y="-92"/></g><rect fill="url(#i)" height="84" opacity=".45" rx="6" transform="scale(1 -1)" width="84" x="6" y="-91"/></g><rect fill="url(#e)" height="84" opacity=".75" rx="6" width="84" x="6" y="6"/><path d="m12 6c-3.324 0-6 2.676-6 6v2 68 2c0 .334721.04135.6507.09375.96875.0487.295596.09704.596915.1875.875.00988.03038.020892.0636.03125.09375.098865.287771.2348802.547452.375.8125.1445918.273507.3156161.535615.5.78125s.3737765.473472.59375.6875c.439947.428056.94291.814526 1.5 1.09375.278545.139612.5734731.246947.875.34375-.2562018-.100222-.4867109-.236272-.71875-.375-.00741-.0044-.023866.0045-.03125 0-.031933-.0193-.062293-.04251-.09375-.0625-.120395-.0767-.2310226-.163513-.34375-.25-.1061728-.0808-.2132809-.161112-.3125-.25-.1779299-.161433-.3474596-.345388-.5-.53125-.1075789-.130255-.2183939-.265285-.3125-.40625-.025089-.03838-.038446-.08587-.0625-.125-.064763-.103032-.1302275-.204517-.1875-.3125-.1010083-.194706-.2056748-.415701-.28125-.625-.00796-.02181-.023589-.04055-.03125-.0625-.0318251-.09195-.0358045-.186831-.0625-.28125-.030332-.106618-.070389-.203031-.09375-.3125-.072879-.341512-.125-.698205-.125-1.0625v-2-68-2c0-2.781848 2.2181517-5 5-5h2 68 2c2.781848 0 5 2.218152 5 5v2 68 2c0 .364295-.05212.720988-.125 1.0625-.04415.206893-.08838.397658-.15625.59375-.0077.02195-.0233.04069-.03125.0625-.06274.173739-.138383.367449-.21875.53125-.04158.0828-.07904.169954-.125.25-.0546.09721-.126774.18835-.1875.28125-.09411.140965-.204921.275995-.3125.40625-.143174.17445-.303141.346998-.46875.5-.01117.0102-.01998.02115-.03125.03125-.138386.125556-.285091.234436-.4375.34375-.102571.07315-.204318.153364-.3125.21875-.0074.0045-.02384-.0044-.03125 0-.232039.138728-.462548.274778-.71875.375.301527-.0968.596455-.204138.875-.34375.55709-.279224 1.060053-.665694 1.5-1.09375.219973-.214028.409366-.441865.59375-.6875s.355408-.507743.5-.78125c.14012-.265048.276135-.524729.375-.8125.01041-.03078.02133-.06274.03125-.09375.09046-.278085.1388-.579404.1875-.875.0524-.31805.09375-.634029.09375-.96875v-2-68-2c0-3.324-2.676-6-6-6z" fill="url(#f)" opacity=".5"/><path d="m12 90c-3.324 0-6-2.676-6-6v-2-68-2c0-.334721.04135-.6507.09375-.96875.0487-.295596.09704-.596915.1875-.875.00988-.03038.020892-.0636.03125-.09375.098865-.287771.2348802-.547452.375-.8125.1445918-.273507.3156161-.535615.5-.78125s.3737765-.473472.59375-.6875c.439947-.428056.94291-.814526 1.5-1.09375.278545-.139612.5734731-.246947.875-.34375-.2562018.100222-.4867109.236272-.71875.375-.00741.0044-.023866-.0045-.03125 0-.031933.0193-.062293.04251-.09375.0625-.120395.0767-.2310226.163513-.34375.25-.1061728.0808-.2132809.161112-.3125.25-.1779299.161433-.3474596.345388-.5.53125-.1075789.130255-.2183939.265285-.3125.40625-.025089.03838-.038446.08587-.0625.125-.064763.103032-.1302275.204517-.1875.3125-.1010083.194706-.2056748.415701-.28125.625-.00796.02181-.023589.04055-.03125.0625-.0318251.09195-.0358045.186831-.0625.28125-.030332.106618-.070389.203031-.09375.3125-.072879.341512-.125.698205-.125 1.0625v2 68 2c0 2.781848 2.2181517 5 5 5h2 68 2c2.781848 0 5-2.218152 5-5v-2-68-2c0-.364295-.05212-.720988-.125-1.0625-.04415-.206893-.08838-.397658-.15625-.59375-.0077-.02195-.0233-.04069-.03125-.0625-.06274-.173739-.138383-.367449-.21875-.53125-.04158-.0828-.07904-.169954-.125-.25-.0546-.09721-.126774-.18835-.1875-.28125-.09411-.140965-.204921-.275995-.3125-.40625-.143174-.17445-.303141-.346998-.46875-.5-.01117-.0102-.01998-.02115-.03125-.03125-.138386-.125556-.285091-.234436-.4375-.34375-.102571-.07315-.204318-.153364-.3125-.21875-.0074-.0045-.02384.0044-.03125 0-.232039-.138728-.462548-.274778-.71875-.375.301527.0968.596455.204138.875.34375.55709.279224 1.060053.665694 1.5 1.09375.219973.214028.409366.441865.59375.6875s.355408.507743.5.78125c.14012.265048.276135.524729.375.8125.01041.03078.02133.06274.03125.09375.09046.278085.1388.579404.1875.875.0524.31805.09375.634029.09375.96875v2 68 2c0 3.324-2.676 6-6 6z" fill="url(#h)" opacity=".2"/><g transform="translate(0 74)"><path d="m50.081081-57v6.27027 6.270271 29.293918c-3.321973-1.302253-7.502428-1.423106-11.658784 0-7.495571 2.566435-11.917627 9.0116454-9.797297 14.5000005 2.12033 5.4883545 9.943618 7.8569745 17.439189 5.2905405 6.133619-2.100111 10.186133-6.7972645 10.287162-11.4628378.0069-.3232826.03135-.658206 0-.9797298v-33.7027024c5.51301 3.501152 12.654675 10.781524 12.540541 25.277027 4.644841-28.612217-9.892718-25.521681-18.810811-40.756757z" fill="none" filter="url(#j)" opacity=".2" stroke="#fff" stroke-width="4"/><path d="m50.081081-57v6.27027 6.270271 29.293918c-3.321973-1.302253-7.502428-1.423106-11.658784 0-7.495571 2.566435-11.917627 9.0116454-9.797297 14.5000005 2.12033 5.4883545 9.943618 7.8569745 17.439189 5.2905405 6.133619-2.100111 10.186133-6.7972645 10.287162-11.4628378.0069-.3232826.03135-.658206 0-.9797298v-33.7027024c5.51301 3.501152 12.654675 10.781524 12.540541 25.277027 4.644841-28.612217-9.892718-25.521681-18.810811-40.756757z" fill="url(#a)"/><path d="m-100-74h96v96h-96z" fill="#f00" opacity=".3"/><g transform="translate(0 -74)"><path d="m50.09375 17v6.28125 6.25 29.3125c-3.321973-1.302253-7.499894-1.423106-11.65625 0-7.495571 2.566435-11.93283 9.011645-9.8125 14.5 2.12033 5.488354 9.941929 7.847684 17.4375 5.28125 6.133619-2.100111 10.180221-6.803177 10.28125-11.46875.0069-.323283.03135-.647226 0-.96875v-33.71875c5.51301 3.501152 12.676634 10.785747 12.5625 25.28125 4.644841-28.612217-9.894407-25.514924-18.8125-40.75zm2.125 6.53125c3.865517 4.417011 7.936674 7.073874 10.75 10.25 1.444369 1.630631 2.537132 3.59255 3.375 5.9375-2.637187-4.258536-5.934314-7.214802-8.84375-9.0625a2.1408319 2.1408319 0 0 0 -3.28125 1.8125v33.71875a2.1408319 2.1408319 0 0 0 0 .21875c.0074.07631.0086.318111 0 .71875-.07492 3.459821-3.363759 7.592437-8.84375 9.46875-3.341713 1.144181-6.759739 1.184991-9.4375.375s-4.534043-2.391257-5.3125-4.40625c-.777759-2.013184-.414713-4.203698 1.0625-6.375s4.086801-4.165242 7.4375-5.3125c3.705303-1.268669 7.391419-1.127347 10.1875-.03125a2.1408319 2.1408319 0 0 0 2.90625-2v-29.3125z" opacity=".1"/><path d="m50.09375 17v6.28125 6.25 29.3125c-3.321973-1.302253-7.499894-1.423106-11.65625 0-7.495571 2.566435-11.93283 9.011645-9.8125 14.5 2.12033 5.488354 9.941929 7.847684 17.4375 5.28125 6.133619-2.100111 10.180221-6.803177 10.28125-11.46875.0069-.323283.03135-.647226 0-.96875v-33.71875c5.51301 3.501152 12.676634 10.785747 12.5625 25.28125 4.644841-28.612217-9.894407-25.514924-18.8125-40.75zm1.15625 3.59375c4.230136 5.662162 9.074006 8.698728 12.46875 12.53125 2.759376 3.115218 4.623962 7.051279 4.8125 13.78125-2.45307-7.986007-7.433668-12.784149-11.5625-15.40625a1.1517074 1.1517074 0 0 0 -1.78125.96875v33.71875a1.1517074 1.1517074 0 0 0 0 .125c.01849.189608.0078.447602 0 .8125-.08698 4.016912-3.718015 8.426536-9.5 10.40625-3.52933 1.208419-7.131888 1.252023-10.03125.375s-5.060136-2.616854-5.96875-4.96875c-.908238-2.350924-.430173-4.903491 1.1875-7.28125s4.403336-4.508675 7.9375-5.71875c3.913702-1.340023 7.835942-1.222597 10.875-.03125a1.1517074 1.1517074 0 0 0 1.5625-1.0625v-29.3125-6.25z" opacity=".2"/><path d="m50.09375 17v1c7.708961 13.169475 19.600355 12.653217 19.6875 30.75.354072-19.125529-11.838454-18.341213-19.6875-31.75zm-5.53125 40.8125c-1.979905-.01511-4.046822.319697-6.125 1.03125-6.448491 2.207922-10.622356 7.285774-10.3125 12.15625.273596-4.550146 4.305491-9.099489 10.3125-11.15625 4.156356-1.423106 8.334277-1.302253 11.65625 0v-1c-1.660986-.651126-3.551345-1.016143-5.53125-1.03125z" opacity=".3"/><path d="m56.34375 32.46875v1c5.51301 3.501152 12.676634 10.785747 12.5625 25.28125.629756-3.879299.888668-7.161562.875-10-.04823 2.604915-.318204 5.57014-.875 9 .114134-14.495503-7.04949-21.780098-12.5625-25.28125zm0 34.71875c-.118307 4.655339-4.161253 9.342053-10.28125 11.4375-7.495571 2.566434-15.31717.207104-17.4375-5.28125-.296196-.766686-.449687-1.552902-.5-2.34375-.0678 1.127545.07892 2.253806.5 3.34375 2.12033 5.488354 9.941929 7.847684 17.4375 5.28125 6.133619-2.100111 10.180221-6.803177 10.28125-11.46875.0069-.323283.03135-.647226 0-.96875z" fill="#fff" opacity=".5"/></g></g></svg>