<svg height="96" width="96" xmlns="http://www.w3.org/2000/svg" xmlns:xlink="http://www.w3.org/1999/xlink"><linearGradient id="a" gradientTransform="matrix(1.3690757 0 0 -1.3690757 28.199165 -112.91297)" gradientUnits="userSpaceOnUse" x1="17.506266" x2="17.506266" y1="-42.696442" y2="-84.79258"><stop offset="0" stop-color="#323232"/><stop offset="1" stop-color="#787878"/></linearGradient><clipPath id="b"><path d="m-100-74v96h96v-96zm28.3125 19.84375 43.65625.15625.03125 43.5-14.09375-14.09375c-14.967412 6.310412-22.381278 18.460048-24.9375 28-9.605951-14.408924-4.606056-31.867968 9.4375-43.46875z"/></clipPath><filter id="c" color-interpolation-filters="sRGB"><feGaussianBlur stdDeviation=".76172645"/></filter><clipPath id="d"><path d="m0 0v96h96v-96zm12 6h72c3.324 0 6 2.676 6 6v72c0 3.324-2.676 6-6 6h-72c-3.324 0-6-2.676-6-6v-72c0-3.324 2.676-6 6-6z"/></clipPath><linearGradient id="e" gradientTransform="matrix(1.0238095 0 0 1.0119048 -1.142857 -98.071429)" gradientUnits="userSpaceOnUse" x1="32.251034" x2="32.251034" xlink:href="#f" y1="6.131708" y2="90.238609"/><linearGradient id="f" gradientTransform="matrix(1.0058652 0 0 .994169 100 0)" gradientUnits="userSpaceOnUse" x1="45.447727" x2="45.447727" y1="92.539597" y2="7.01654"><stop offset="0"/><stop offset="1" stop-opacity=".588235"/></linearGradient><linearGradient id="g" gradientUnits="userSpaceOnUse" x1="48" x2="48" y1="90" y2="5.987717"><stop offset="0" stop-color="#c8c8c8"/><stop offset="1" stop-color="#e6e6e6"/></linearGradient><linearGradient id="h" gradientUnits="userSpaceOnUse" x1="36.357143" x2="36.357143" xlink:href="#i" y1="6" y2="63.893143"/><linearGradient id="i"><stop offset="0" stop-color="#fff"/><stop offset="1" stop-color="#fff" stop-opacity="0"/></linearGradient><radialGradient id="j" cx="48" cy="90.171875" gradientTransform="matrix(1.1573129 0 0 .99590774 -7.551021 .197132)" gradientUnits="userSpaceOnUse" r="42" xlink:href="#i"/><linearGradient id="k" gradientTransform="translate(0 -97)" gradientUnits="userSpaceOnUse" x1="32.251034" x2="32.251034" xlink:href="#f" y1="6.131708" y2="90.238609"/><g clip-path="url(#d)"><g fill="url(#e)"><path d="m12-95.03125c-5.5110903 0-10.03125 4.52016-10.03125 10.03125v71c0 5.5110902 4.5201598 10.03125 10.03125 10.03125h72c5.51109 0 10.03125-4.5201597 10.03125-10.03125v-71c0-5.51109-4.52016-10.03125-10.03125-10.03125z" opacity=".08" transform="scale(1 -1)"/><path d="m12-94.03125c-4.971633 0-9.03125 4.059617-9.03125 9.03125v71c0 4.9716329 4.0596171 9.03125 9.03125 9.03125h72c4.971633 0 9.03125-4.059617 9.03125-9.03125v-71c0-4.971633-4.059617-9.03125-9.03125-9.03125z" opacity=".1" transform="scale(1 -1)"/><path d="m12-93c-4.4091333 0-8 3.590867-8 8v71c0 4.4091333 3.5908667 8 8 8h72c4.409133 0 8-3.5908667 8-8v-71c0-4.409133-3.590867-8-8-8z" opacity=".2" transform="scale(1 -1)"/><rect height="85" opacity=".3" rx="7" transform="scale(1 -1)" width="86" x="5" y="-92"/></g><rect fill="url(#k)" height="84" opacity=".45" rx="6" transform="scale(1 -1)" width="84" x="6" y="-91"/></g><rect fill="url(#g)" height="84" opacity=".75" rx="6" width="84" x="6" y="6"/><path d="m12 6c-3.324 0-6 2.676-6 6v2 68 2c0 .334721.04135.6507.09375.96875.0487.295596.09704.596915.1875.875.00988.03038.020892.0636.03125.09375.098865.287771.2348802.547452.375.8125.1445918.273507.3156161.535615.5.78125s.3737765.473472.59375.6875c.439947.428056.94291.814526 1.5 1.09375.278545.139612.5734731.246947.875.34375-.2562018-.100222-.4867109-.236272-.71875-.375-.00741-.0044-.023866.0045-.03125 0-.031933-.0193-.062293-.04251-.09375-.0625-.120395-.0767-.2310226-.163513-.34375-.25-.1061728-.0808-.2132809-.161112-.3125-.25-.1779299-.161433-.3474596-.345388-.5-.53125-.1075789-.130255-.2183939-.265285-.3125-.40625-.025089-.03838-.038446-.08587-.0625-.125-.064763-.103032-.1302275-.204517-.1875-.3125-.1010083-.194706-.2056748-.415701-.28125-.625-.00796-.02181-.023589-.04055-.03125-.0625-.0318251-.09195-.0358045-.186831-.0625-.28125-.030332-.106618-.070389-.203031-.09375-.3125-.072879-.341512-.125-.698205-.125-1.0625v-2-68-2c0-2.781848 2.2181517-5 5-5h2 68 2c2.781848 0 5 2.218152 5 5v2 68 2c0 .364295-.05212.720988-.125 1.0625-.04415.206893-.08838.397658-.15625.59375-.0077.02195-.0233.04069-.03125.0625-.06274.173739-.138383.367449-.21875.53125-.04158.0828-.07904.169954-.125.25-.0546.09721-.126774.18835-.1875.28125-.09411.140965-.204921.275995-.3125.40625-.143174.17445-.303141.346998-.46875.5-.01117.0102-.01998.02115-.03125.03125-.138386.125556-.285091.234436-.4375.34375-.102571.07315-.204318.153364-.3125.21875-.0074.0045-.02384-.0044-.03125 0-.232039.138728-.462548.274778-.71875.375.301527-.0968.596455-.204138.875-.34375.55709-.279224 1.060053-.665694 1.5-1.09375.219973-.214028.409366-.441865.59375-.6875s.355408-.507743.5-.78125c.14012-.265048.276135-.524729.375-.8125.01041-.03078.02133-.06274.03125-.09375.09046-.278085.1388-.579404.1875-.875.0524-.31805.09375-.634029.09375-.96875v-2-68-2c0-3.324-2.676-6-6-6z" fill="url(#h)" opacity=".5"/><path d="m12 90c-3.324 0-6-2.676-6-6v-2-68-2c0-.334721.04135-.6507.09375-.96875.0487-.295596.09704-.596915.1875-.875.00988-.03038.020892-.0636.03125-.09375.098865-.287771.2348802-.547452.375-.8125.1445918-.273507.3156161-.535615.5-.78125s.3737765-.473472.59375-.6875c.439947-.428056.94291-.814526 1.5-1.09375.278545-.139612.5734731-.246947.875-.34375-.2562018.100222-.4867109.236272-.71875.375-.00741.0044-.023866-.0045-.03125 0-.031933.0193-.062293.04251-.09375.0625-.120395.0767-.2310226.163513-.34375.25-.1061728.0808-.2132809.161112-.3125.25-.1779299.161433-.3474596.345388-.5.53125-.1075789.130255-.2183939.265285-.3125.40625-.025089.03838-.038446.08587-.0625.125-.064763.103032-.1302275.204517-.1875.3125-.1010083.194706-.2056748.415701-.28125.625-.00796.02181-.023589.04055-.03125.0625-.0318251.09195-.0358045.186831-.0625.28125-.030332.106618-.070389.203031-.09375.3125-.072879.341512-.125.698205-.125 1.0625v2 68 2c0 2.781848 2.2181517 5 5 5h2 68 2c2.781848 0 5-2.218152 5-5v-2-68-2c0-.364295-.05212-.720988-.125-1.0625-.04415-.206893-.08838-.397658-.15625-.59375-.0077-.02195-.0233-.04069-.03125-.0625-.06274-.173739-.138383-.367449-.21875-.53125-.04158-.0828-.07904-.169954-.125-.25-.0546-.09721-.126774-.18835-.1875-.28125-.09411-.140965-.204921-.275995-.3125-.40625-.143174-.17445-.303141-.346998-.46875-.5-.01117-.0102-.01998-.02115-.03125-.03125-.138386-.125556-.285091-.234436-.4375-.34375-.102571-.07315-.204318-.153364-.3125-.21875-.0074-.0045-.02384.0044-.03125 0-.232039-.138728-.462548-.274778-.71875-.375.301527.0968.596455.204138.875.34375.55709.279224 1.060053.665694 1.5 1.09375.219973.214028.409366.441865.59375.6875s.355408.507743.5.78125c.14012.265048.276135.524729.375.8125.01041.03078.02133.06274.03125.09375.09046.278085.1388.579404.1875.875.0524.31805.09375.634029.09375.96875v2 68 2c0 3.324-2.676 6-6 6z" fill="url(#j)" opacity=".2"/><g transform="translate(0 74)"><path d="m-71.685828-54.171135 14.09736 14.097373c-14.043556 11.600782-19.062817 29.060098-9.456866 43.469022 2.556222-9.539952 9.98055-21.668884 24.947962-27.979296l14.097372 14.098732-.046592-43.514696z" style="opacity:.2;fill:none;stroke:#fff;stroke-width:4;clip-path:url(#b);filter:url(#c)" transform="translate(100)"/><path d="m28.314172-54.171135 14.09736 14.097373c-14.043556 11.600782-19.062817 29.060098-9.456866 43.469022 2.556222-9.539952 9.98055-21.668884 24.947962-27.979296l14.097372 14.098732-.046592-43.514696z" fill="url(#a)"/><path d="m-100-74h96v96h-96z" fill="#f00" opacity=".3"/><g transform="translate(0 -74)"><path d="m28.3125 19.84375 14.09375 14.09375c-14.043556 11.600782-19.043451 29.059826-9.4375 43.46875 2.556222-9.539952 9.970088-21.689588 24.9375-28l14.09375 14.09375-.03125-43.5zm4.9375 2.0625 36.6875.125.03125 36.5625-10.625-10.625a2.0378491 2.0378491 0 0 0 -2.21875-.4375c-13.465877 5.67735-20.886613 15.829998-24.46875 25-5.986665-12.661329-1.172993-26.924032 11.0625-37.03125a2.0378491 2.0378491 0 0 0 .125-3z" opacity=".1"/><path d="m28.3125 19.84375 14.09375 14.09375c-14.043556 11.600782-19.043451 29.059826-9.4375 43.46875 2.556222-9.539952 9.970088-21.689588 24.9375-28l14.09375 14.09375-.03125-43.5zm2.96875 1.21875 39.46875.15625.03125 39.3125-12-12a1.2227094 1.2227094 0 0 0 -1.34375-.25c-14.052833 5.924816-21.444388 16.812753-24.65625 26.1875-7.360029-13.391014-2.556166-28.886052 10.40625-39.59375a1.2227094 1.2227094 0 0 0 .09375-1.8125z" opacity=".1"/><path d="m28.3125 19.84375 1 1 42.65625.15625v-1zm13.5625 14.5625c-8.981358 7.646264-14.136988 17.696751-13.875 27.75.095083-9.919522 5.390421-19.771159 14.40625-27.21875z" opacity=".3"/><path d="m28.3125 20.84375 13.5625 13.5625c.181416-.154448.346705-.316305.53125-.46875l-13.09375-13.09375zm29.59375 28.5625c-14.967412 6.310412-22.381278 18.460048-24.9375 28-3.230397-4.845595-4.833323-10.053278-4.96875-15.25-.05302 5.531677 1.529728 11.091467 4.96875 16.25 2.556222-9.539952 9.970088-21.689588 24.9375-28l14.09375 14.09375v-1z" fill="#fff" opacity=".5"/></g></g></svg>