<svg enable-background="new" height="96" width="96" xmlns="http://www.w3.org/2000/svg" xmlns:xlink="http://www.w3.org/1999/xlink"><linearGradient id="a"><stop offset="0" stop-color="#fff"/><stop offset=".2" stop-color="#fff" stop-opacity=".498039"/><stop offset="1" stop-color="#fff" stop-opacity="0"/></linearGradient><linearGradient id="b"><stop offset="0" stop-color="#1a1a1a"/><stop offset=".30357143" stop-color="#666"/><stop offset="1"/></linearGradient><filter id="c" color-interpolation-filters="sRGB" height="2.178627" width="1.588234" x="-.294117" y="-.589313"><feGaussianBlur stdDeviation="2.2029067"/></filter><linearGradient id="d"><stop offset="0" stop-color="#fff"/><stop offset="1" stop-color="#fff" stop-opacity="0"/></linearGradient><linearGradient id="e" gradientUnits="userSpaceOnUse" x1="60.413662" x2="46.921165" xlink:href="#i" y1="106.16137" y2="110.65887"/><linearGradient id="f" gradientUnits="userSpaceOnUse" x1="43.245415" x2="48.193569" xlink:href="#k" y1="104.21532" y2="93.471298"/><linearGradient id="g" gradientUnits="userSpaceOnUse" x1="66.740204" x2="75.281227" xlink:href="#k" y1="63.588692" y2="80.814972"/><linearGradient id="h" gradientUnits="userSpaceOnUse" x1="52.105541" x2="61.130371" xlink:href="#i" y1="76.541229" y2="68.295815"/><linearGradient id="i"><stop offset="0" stop-color="#828282"/><stop offset="1" stop-color="#5a5a5a"/></linearGradient><linearGradient id="j" gradientUnits="userSpaceOnUse" x1="82.855774" x2="86.748848" xlink:href="#i" y1="87.433334" y2="97.972473"/><linearGradient id="k"><stop offset="0" stop-color="#6e6e6e"/><stop offset="1" stop-color="#8c8c8c"/></linearGradient><linearGradient id="l" gradientUnits="userSpaceOnUse" x1="87.228699" x2="69.920662" xlink:href="#k" y1="103.55167" y2="103.55167"/><linearGradient id="m" gradientUnits="userSpaceOnUse" x1="48.22263" x2="48.22263" y1="13.313221" y2="47.795158"><stop offset="0" stop-color="#919191"/><stop offset="1" stop-color="#fff"/></linearGradient><linearGradient id="n" gradientTransform="matrix(.02119426 0 0 .1689854 -18.016531 .155077)" gradientUnits="userSpaceOnUse" x1="26.98472" x2="26.98472" xlink:href="#d" y1="5" y2="110.67213"/><linearGradient id="o" gradientTransform="matrix(.0668628 0 0 .1689854 -4.16943 .21479)" gradientUnits="userSpaceOnUse" x1="26.98472" x2="26.98472" xlink:href="#r" y1="5" y2="176.64893"/><linearGradient id="p" gradientTransform="matrix(.03377223 0 0 .1689854 -2.252766 .155077)" gradientUnits="userSpaceOnUse" x1="26.98472" x2="26.98472" xlink:href="#d" y1="5" y2="68.695473"/><linearGradient id="q" gradientTransform="matrix(.1847079 0 0 -.1689854 -12.946607 21.844927)" gradientUnits="userSpaceOnUse" x1="26.98472" x2="26.98472" xlink:href="#r" y1="5" y2="120.63893"/><linearGradient id="r"><stop offset="0"/><stop offset="1" stop-opacity="0"/></linearGradient><linearGradient id="s" gradientTransform="matrix(.2287308 0 0 -.1689854 -19.269799 21.785214)" gradientUnits="userSpaceOnUse" x1="26.98472" x2="26.98472" xlink:href="#r" y1="5" y2="70.167"/><linearGradient id="t" gradientTransform="matrix(.08408413 0 0 -.1689854 -18.299613 21.785214)" gradientUnits="userSpaceOnUse" x1="26.98472" x2="26.98472" xlink:href="#d" y1="5" y2="68.695473"/><linearGradient id="u" gradientTransform="matrix(.06836166 0 0 -.1689854 -12.165668 21.785214)" gradientUnits="userSpaceOnUse" spreadMethod="reflect" x1="26.98472" x2="26.98472" xlink:href="#d" y1="54.295403" y2="96.039551"/><linearGradient id="v" gradientUnits="userSpaceOnUse" x1="-4.58858029691" x2="-4.58858029691" xlink:href="#d" y1="1.000004" y2="18.86935498388"/><linearGradient id="w" gradientTransform="matrix(0 1 -1 0 28.258198 11.119372)" gradientUnits="userSpaceOnUse" x1="-3.060798" x2="-3.060798" y1="27.258198" y2="7.253658"><stop offset="0" stop-color="#a0a0a0"/><stop offset=".1362071" stop-color="#dcdcdc"/><stop offset=".3023597" stop-color="#f5f5f5"/><stop offset=".61225069" stop-color="#dcdcdc"/><stop offset="1" stop-color="#b4b4b4"/></linearGradient><radialGradient id="x" cx="65.547707" cy="32.811893" gradientTransform="matrix(.1465701 0 0 .08025129 1.449967 4.383005)" gradientUnits="userSpaceOnUse" r="51.413425"><stop offset="0" stop-color="#515151"/><stop offset="1" stop-color="#1b1b1b"/></radialGradient><linearGradient id="y" gradientUnits="userSpaceOnUse" x1="11.375" x2="11.375" xlink:href="#r" y1="22" y2="-9.817296"/><radialGradient id="z" cx="56.065952" cy="-15.871236" gradientTransform="matrix(.00225966 .925477 -1.3844339 0 25.901984 -30.21143)" gradientUnits="userSpaceOnUse" r="35.9375"><stop offset="0" stop-color="#4490e6"/><stop offset="1" stop-color="#103d8f"/></radialGradient><filter id="A" color-interpolation-filters="sRGB" height="1.923077" width="1.590164" x="-.295082" y="-.461538"><feGaussianBlur stdDeviation="6.6964288"/></filter><linearGradient id="B" gradientUnits="userSpaceOnUse" x1="36.357143" x2="36.357143" xlink:href="#d" y1="6" y2="63.893143"/><linearGradient id="C" gradientUnits="userSpaceOnUse" x1="43.03676446513" x2="43.03676446513" y1="11.9705884" y2="84.33264926334"><stop offset="0" stop-color="#919191"/><stop offset="1" stop-color="#fdfdfd"/></linearGradient><radialGradient id="D" cx="47.098362" cy="80.842926" gradientTransform="matrix(1.3112996 -.00000005 .00000005 1.1373685 -14.661706 -10.847943)" gradientUnits="userSpaceOnUse" r="38.957481"><stop offset="0" stop-color="#2fc044"/><stop offset="1" stop-color="#246d2f"/></radialGradient><linearGradient id="E" gradientUnits="userSpaceOnUse" x1="48" x2="48" y1="90" y2="5.987717"><stop offset="0" stop-color="#b4b4b4"/><stop offset="1" stop-color="#e6e6e6"/></linearGradient><linearGradient id="F" gradientUnits="userSpaceOnUse" x1="76.45089" x2="76.45089" xlink:href="#d" y1="8.0625" y2="72.765785"/><linearGradient id="G" gradientUnits="userSpaceOnUse" x1="65.15625" x2="65.15625" y1="16.125" y2="69.687508"><stop offset="0" stop-color="#7cb7f2"/><stop offset="1" stop-color="#deecfc" stop-opacity="0"/></linearGradient><linearGradient id="H" gradientUnits="userSpaceOnUse" x1="65.15625" x2="65.15625" xlink:href="#d" y1="16.125" y2="69.687508"/><linearGradient id="I" gradientUnits="userSpaceOnUse" x1="6.933281" x2="6.93499" y1="1" y2="4.425476"><stop offset="0" stop-color="#e0c693"/><stop offset=".71691591" stop-color="#c0984f"/><stop offset="1" stop-color="#a67315"/></linearGradient><linearGradient id="J" gradientUnits="userSpaceOnUse" x1="10.88217434275" x2="10.88217434275" y1="6.8656973943" y2="20.0176741105"><stop offset="0" stop-color="#c6953a"/><stop offset="1" stop-color="#ab7a1f"/></linearGradient><linearGradient id="K" gradientUnits="userSpaceOnUse" x1="9.131728" x2="9.131728" y1="21.000061" y2="4.998618"><stop offset="0" stop-color="#cca050"/><stop offset="1" stop-color="#dec18c"/></linearGradient><filter id="L" color-interpolation-filters="sRGB" height="1.051429" width="1.72" x="-.36" y="-.025714"><feGaussianBlur stdDeviation=".3"/></filter><linearGradient id="M" gradientUnits="userSpaceOnUse" x1="-31" x2="-27" xlink:href="#b" y1="0" y2="0"/><linearGradient id="N" gradientUnits="userSpaceOnUse" x1="-29" x2="-29" xlink:href="#r" y1="0" y2="-2.5"/><linearGradient id="O" gradientUnits="userSpaceOnUse" x1="-32" x2="-26" xlink:href="#b" y1="56.09375" y2="56.09375"/><linearGradient id="P" gradientUnits="userSpaceOnUse" x1="-29" x2="-29.236725" xlink:href="#r" y1="35.764431" y2="74.234039"/><linearGradient id="Q" gradientUnits="userSpaceOnUse" x1="-33" x2="-25" y1="17.75" y2="17.75"><stop offset="0" stop-color="#999"/><stop offset=".35267857" stop-color="#e6e6e6"/><stop offset="1" stop-color="#1f1f1f"/></linearGradient><linearGradient id="R" gradientUnits="userSpaceOnUse" x1="-29" x2="-29" y1="35.5" y2="0"><stop offset="0" stop-opacity=".768182"/><stop offset=".06176317" stop-opacity="0"/><stop offset=".93853289" stop-color="#fff" stop-opacity="0"/><stop offset="1" stop-color="#fff"/></linearGradient><linearGradient id="S" gradientTransform="matrix(-1 0 0 1 -66 0)" gradientUnits="userSpaceOnUse" x1="-36" x2="-32" y1="16" y2="16"><stop offset="0" stop-color="#ececec" stop-opacity="0"/><stop offset=".23398043" stop-color="#ccc"/><stop offset=".50230217" stop-color="#e6e6e6"/><stop offset="1" stop-color="#aaa"/></linearGradient><linearGradient id="T" gradientUnits="userSpaceOnUse" x1="23.204918" x2="89.898247" xlink:href="#r" y1="51.635754" y2="51.635754"/><linearGradient id="U" gradientTransform="matrix(.9800587 -.1987084 .1987084 .9800587 -12.275551 5.870047)" gradientUnits="userSpaceOnUse" x1="24.790335" x2="94.680679" xlink:href="#r" y1="64.485451" y2="44.223976"/><radialGradient id="V" cx="48" cy="90.171875" gradientTransform="matrix(1.1573129 0 0 .99590774 -7.551021 .197132)" gradientUnits="userSpaceOnUse" r="42" xlink:href="#d"/><linearGradient id="W" gradientTransform="matrix(1.0058652 0 0 .994169 100 0)" gradientUnits="userSpaceOnUse" x1="45.447727" x2="45.447727" y1="92.539597" y2="7.01654"><stop offset="0"/><stop offset="1" stop-opacity=".588235"/></linearGradient><linearGradient id="X" gradientTransform="matrix(1.0238095 0 0 1.0119048 -1.142857 -98.071429)" gradientUnits="userSpaceOnUse" x1="32.251034" x2="32.251034" xlink:href="#W" y1="6.131708" y2="90.238609"/><linearGradient id="Y" gradientTransform="translate(0 -97)" gradientUnits="userSpaceOnUse" x1="32.251034" x2="32.251034" xlink:href="#W" y1="6.131708" y2="90.238609"/><linearGradient id="Z" gradientUnits="userSpaceOnUse" x1="25" x2="25" xlink:href="#a" y1="76" y2="80"/><linearGradient id="aa" gradientUnits="userSpaceOnUse" x1="37" x2="37" xlink:href="#a" y1="76" y2="80"/><linearGradient id="ab" gradientUnits="userSpaceOnUse" x1="49" x2="49" xlink:href="#a" y1="76" y2="80"/><g><g fill="url(#X)"><path d="m12-95.03125c-5.5110903 0-10.03125 4.52016-10.03125 10.03125v71c0 5.5110902 4.5201598 10.03125 10.03125 10.03125h72c5.51109 0 10.03125-4.5201597 10.03125-10.03125v-71c0-5.51109-4.52016-10.03125-10.03125-10.03125z" opacity=".08" transform="scale(1 -1)"/><path d="m12-94.03125c-4.971633 0-9.03125 4.059617-9.03125 9.03125v71c0 4.9716329 4.0596171 9.03125 9.03125 9.03125h72c4.971633 0 9.03125-4.059617 9.03125-9.03125v-71c0-4.971633-4.059617-9.03125-9.03125-9.03125z" opacity=".1" transform="scale(1 -1)"/><path d="m12-93c-4.4091333 0-8 3.590867-8 8v71c0 4.4091333 3.5908667 8 8 8h72c4.409133 0 8-3.5908667 8-8v-71c0-4.409133-3.590867-8-8-8z" opacity=".2" transform="scale(1 -1)"/><rect height="85" opacity=".3" rx="7" transform="scale(1 -1)" width="86" x="5" y="-92"/></g><rect fill="url(#Y)" height="84" opacity=".45" rx="6" transform="scale(1 -1)" width="84" x="6" y="-91"/></g><g><rect fill="url(#D)" height="78.516495" rx="5.852768" ry="6.173287" width="77.914963" x="8.140881" y="8.254433"/><path d="m12.0625 12.0625v53.875h71.875v-53.875z" fill="url(#z)" transform="matrix(-1.0008688 0 0 -1.3339699 96.010447 99.965928)"/><rect fill="#c3d9f5" height="10" opacity=".4" rx="3.029083" ry="2.382979" width="72.535713" x="11.785715" y="12"/><rect fill="#c3d9f5" height="10" opacity=".4" rx="3.029083" ry="2.382979" width="72.535713" x="11.785715" y="74"/><path d="m19 13c-3.289406 0-6 2.710594-6 6v58c0 3.289406 2.710594 6 6 6h58c3.289406 0 6-2.710594 6-6v-58c0-3.289406-2.710594-6-6-6zm0 4h58c1.142594 0 2 .857406 2 2v58c0 1.142594-.857406 2-2 2h-58c-1.142594 0-2-.857406-2-2v-58c0-1.142594.857406-2 2-2z" opacity=".08"/><path d="m17 14c-1.662 0-3 1.338-3 3v62c0 1.662 1.338 3 3 3h62c1.662 0 3-1.338 3-3v-62c0-1.662-1.338-3-3-3zm0 1.9375h62c.618163 0 1.0625.444337 1.0625 1.0625v62c0 .618163-.444337 1.0625-1.0625 1.0625h-62c-.618163 0-1.0625-.444337-1.0625-1.0625v-62c0-.618163.444337-1.0625 1.0625-1.0625z" opacity=".1"/><path d="m17 14c-1.662 0-3 1.338-3 3v62c0 1.662 1.338 3 3 3h62c1.662 0 3-1.338 3-3v-62c0-1.662-1.338-3-3-3zm0 .96875h62c1.140081 0 2.03125.891169 2.03125 2.03125v62c0 1.140081-.891169 2.03125-2.03125 2.03125h-62c-1.140081 0-2.03125-.891169-2.03125-2.03125v-62c0-1.140081.891169-2.03125 2.03125-2.03125z" opacity=".25"/><rect fill="url(#Z)" height="4" opacity=".5" rx="1" width="10" x="20" y="76"/><rect fill="url(#aa)" height="4" opacity=".5" rx="1" width="10" x="32" y="76"/><rect fill="url(#ab)" height="4" opacity=".5" rx="1" width="10" x="44" y="76"/><g fill="#fff"><path d="m25 19a2 2 0 1 1 -4 0 2 2 0 1 1 4 0z" opacity=".5" transform="translate(-1 -1)"/><g opacity=".5" transform="translate(.115134 .909771)"><path d="m27.486866 18.535229c-.022-.072-.047-.146-.075-.222-.026-.076-.052-.152-.078-.228h-.81c-.026.076-.053.152-.081.228-.026.076-.05.15-.072.222h-.486c.078-.224.152-.431.222-.621.07-.189999.138-.368999.204-.537.068-.167999.133999-.326999.198-.477.066-.151998.133999-.299998.204-.444h.447c.068.144002.134999.292002.201.444.066.150001.131998.309001.198.477.068.168001.136998.347001.207.537.07.19.143998.397.222.621zm-.561-1.608c-.01.03-.025.071-.045.123s-.043.112001-.069.18c-.026.068-.055.143001-.087.225-.03.082-.061.168001-.093.258h.591c-.032-.09-.063-.175999-.093-.258-.03-.082-.059-.156999-.087-.225-.026-.068-.049-.127999-.069-.18-.02-.052-.036-.093-.048-.123"/><path d="m29.237975 17.758229c-.000001-.137999-.031-.247999-.093-.33-.062-.084-.154001-.125999-.276-.126-.04.000001-.077.002-.111.006-.034.002-.062.005-.084.009v.807c.028.018.064.033.108.045.046.012.092.018.138.018.211999 0 .317999-.143.318-.429m.456-.012c-.000001.122-.015.233-.045.333s-.074.186-.132.258-.130001.128-.216.168c-.086.04-.185001.06-.297.06-.062 0-.12-.006-.174-.018s-.106-.029-.156-.051v.594h-.447v-2.079c.04-.012.086-.023.138-.033.052-.012.106-.022.162-.03.058-.008.116-.014.174-.018.06-.006.117-.009.171-.009.129999.000001.245999.02.348.06.101999.038.187999.093.258.165.07.07.122999.156001.159.258.038.102001.057.216001.057.342"/><path d="m31.048522 17.758229c-.000001-.137999-.031-.247999-.093-.33-.062-.084-.154001-.125999-.276-.126-.04.000001-.077.002-.111.006-.034.002-.062.005-.084.009v.807c.028.018.064.033.108.045.046.012.092.018.138.018.211999 0 .317999-.143.318-.429m.456-.012c-.000001.122-.015.233-.045.333s-.074.186-.132.258-.130001.128-.216.168c-.086.04-.185001.06-.297.06-.062 0-.120001-.006-.174-.018-.054-.012-.106-.029-.156-.051v.594h-.447v-2.079c.04-.012.086-.023.138-.033.052-.012.106-.022.162-.03.058-.008.116-.014.174-.018.06-.006.116999-.009.171-.009.129999.000001.245999.02.348.06.101999.038.187999.093.258.165.07.07.122999.156001.159.258.038.102001.057.216001.057.342"/><path d="m32.478069 18.565229c-.130001-.002-.236-.016-.318-.042-.08-.026-.144-.062-.192-.108-.046-.048-.078-.105-.096-.171-.016-.068-.024-.144-.024-.228v-1.737l.447-.072v1.719c-.000001.04.003.076.009.108s.017.059.033.081c.018.022.043.04.075.054s.075.023.129.027z"/><path d="m33.244288 18.535229h-.447v-1.578h.447zm.042-2.034c-.000001.082-.027.147002-.081.195-.052.046-.114001.069-.186.069-.072.000001-.135-.023-.189-.069-.052-.048-.078-.112998-.078-.195 0-.082.026-.145998.078-.192.054-.048.117-.072.189-.072.072.000002.133999.024.186.072.054.046.081.110002.081.192"/><path d="m33.589475 17.746229c0-.113999.018-.220999.054-.321.038-.101999.092-.189999.162-.264.07-.076.155-.135999.255-.18.1-.044.214-.066.342-.066.084.000001.160999.008.231.024.07.014.137999.035.204.063l-.093.357c-.042-.016-.088-.03-.138-.042s-.106001-.018-.168-.018c-.132.000001-.231.041-.297.123-.064.082-.096.190001-.096.324 0 .142.03.252.09.33.062.078.169.117.321.117.054 0 .111999-.005.174-.015.062-.01.118999-.026.171-.048l.063.366c-.052.022-.117001.041-.195.057-.078.016-.164001.024-.258.024-.144 0-.268-.021-.372-.063-.104-.044-.19-.103-.258-.177-.066-.074-.115-.161-.147-.261-.03-.102-.045-.212-.045-.33"/><path d="m35.691304 18.223229c.044 0 .086-.001.126-.003s.072-.005.096-.009v-.339c-.018-.004-.045-.008-.081-.012s-.069-.006-.099-.006c-.042 0-.082.003-.12.009-.036.004-.068.013-.096.027s-.05.033-.066.057-.024.054-.024.09c-.000001.07.023.119.069.147.048.026.112999.039.195.039m-.036-1.308c.131999.000001.241999.015.33.045.088.03.157998.073.21.129.054.056.092.124001.114.204.022.08.033.169001.033.267v.93c-.064.014-.153002.03-.267.048-.114002.02-.252001.03-.414.03-.102001 0-.195001-.009-.279-.027-.082-.018-.153001-.047-.213-.087-.06-.042-.106001-.096-.138-.162-.032-.066-.048-.147-.048-.243-.000001-.092.018-.17.054-.234.038-.064.088-.114999.15-.153.062-.038.132999-.065.213-.081.08-.018.162999-.027.249-.027.058.000001.108999.003.153.009.046.004.083.01.111.018v-.042c-.000002-.076-.023-.136999-.069-.183-.046-.046-.126001-.069-.24-.069-.076.000001-.151001.006-.225.018-.074.01-.138001.025-.192.045l-.057-.36c.026-.008.058-.016.096-.024.04-.01.083-.018.129-.024.046-.008.094-.014.144-.018.052-.006.103999-.009.156-.009"/><path d="m36.731507 16.564229.447-.072v.465h.537v.372h-.537v.555c-.000001.094.016.169.048.225.034.056.100999.084.201.084.048 0 .097-.004.147-.012.052-.01.099-.023.141-.039l.063.348c-.054.022-.114001.041-.18.057-.066.016-.147001.024-.243.024-.122001 0-.223001-.016-.303-.048-.08-.034-.144001-.08-.192-.138-.048-.06-.082-.132-.102-.216-.018-.084-.027-.177-.027-.279z"/><path d="m38.523585 18.535229h-.447v-1.578h.447zm.042-2.034c-.000001.082-.027.147002-.081.195-.052.046-.114001.069-.186.069-.072.000001-.135001-.023-.189-.069-.052-.048-.078-.112998-.078-.195 0-.082.026-.145998.078-.192.054-.048.116999-.072.189-.072.072.000002.133999.024.186.072.054.046.081.110002.081.192"/><path d="m40.419772 17.743229c-.000001.124-.018.238-.054.342-.036.102-.088.19-.156.264-.068.072-.150001.128-.246.168-.094.04-.200001.06-.318.06-.116001 0-.222-.02-.318-.06-.094-.04-.175-.096-.243-.168-.068-.074-.121-.162-.159-.264-.038-.104-.057-.218-.057-.342 0-.123999.019-.236999.057-.339.04-.101999.094-.188999.162-.261.07-.072.152-.127999.246-.168.096-.04.199999-.06.312-.06.113999.000001.217999.02.312.06.096.04.177999.096.246.168.068.072.120999.159001.159.261.038.102001.057.215001.057.339m-.456 0c-.000001-.137999-.028-.245999-.084-.324-.054-.08-.132001-.119999-.234-.12-.102001.000001-.181.04-.237.12-.056.078-.084.186001-.084.324 0 .138.028.248.084.33.056.08.134999.12.237.12.101999 0 .179999-.04.234-.12.056-.082.084-.192.084-.33"/><path d="m40.766038 17.011229c.076-.022.174-.042.294-.06.119999-.02.245999-.03.378-.03.133999.000001.244999.018.333.054.09.034.160999.083.213.147.052.064.089.140001.111.228.022.088.033.186001.033.294v.891h-.447v-.837c-.000001-.143999-.019-.245999-.057-.306-.038-.06-.109001-.09-.213-.09-.032.000001-.066.002-.102.006-.036.002-.068.005-.096.009v1.218h-.447z"/><path d="m42.988569 18.214229c.082 0 .139999-.008.174-.024.034-.016.051-.047.051-.093-.000001-.036-.022-.067-.066-.093-.044-.028-.111001-.059-.201-.093-.07-.026-.134-.053-.192-.081-.056-.028-.104-.061-.144-.099-.04-.04-.071-.087-.093-.141s-.033-.118999-.033-.195c0-.147999.055-.264999.165-.351.11-.086.261-.128999.453-.129.096.000001.187999.009.276.027.088.016.157999.034.21.054l-.078.348c-.052-.018-.109001-.034-.171-.048-.06-.014-.128001-.021-.204-.021-.140001.000001-.21.039-.21.117 0 .018.003.034.009.048s.018.028.036.042c.018.012.042.026.072.042.032.014.072.03.12.048.098.036.178999.072.243.108.064.034.113999.072.15.114.038.04.064.085.078.135.016.05.024.108.024.174-.000001.156-.059.274-.177.354-.116001.08-.281001.12-.495.12-.14 0-.257-.012-.351-.036-.092-.024-.156-.044-.192-.06l.075-.363c.076.03.154.054.234.072.08.016.159.024.237.024"/></g><path d="m-18.225686 20.954166c-.239668-.07998-.379036-.159374-.61438-.349987-.631684-.511619-.960485-1.265921-.781508-1.792857.07394-.217694.158218-.355637.310699-.508545.26476-.265501.677618-.461336 1.193637-.56619.801255-.162813 1.43225.04022 1.481593.476718.03582.316915-.207324.605382-.908297 1.077589-.497598.335205-.691423.513816-.691423.637148 0 .177281.215079.355034.429591.355034.135355 0 .204879-.07313.264738-.278433.07925-.271825.24122-.367694.627245-.371265.270407-.0025.354387.06015.3668.273645.0072.125034-.008.188113-.08188.337697-.121061.2452-.404826.526732-.654376.649229-.170285.08359-.222854.09478-.486813.103614-.230255.0077-.331351-.0019-.455629-.0434zm-1.550615-2.988777c-.204209-.178779-.292067-.535701-.163437-.66396.196062-.195495.44479-.05149.523844.303293.08332.373913-.116674.574049-.360407.360667zm.688386-.498204c-.146337-.153758-.195081-.275468-.19646-.490554-.0012-.182373-.0014-.23266.09434-.328118.189982-.189432.428622-.04859.502167.348098.03617.195085-.0047.37182-.112036.485052-.09913.104528-.178551.100535-.288014-.01448zm1.966591.000547c-.09455-.04953-.197889-.205675-.222418-.336048-.04758-.252857.134058-.711149.35262-.889726.356761-.291492.883226-.32648 1.017477-.06762.109224.210606-.03474.585632-.354398.923206-.295911.312495-.617213.462431-.793281.370186zm-1.067499-.202128c-.113068-.05441-.194665-.269525-.19537-.515059-.001-.358555.141531-.5498.410018-.550041.163788-.00014.259082.110304.286933.33257.03403.271583-.13706.675557-.311838.736309-.105518.03667-.105677.03667-.189743-.0038z" opacity=".5"/></g></g><g><path d="m12 6c-3.324 0-6 2.676-6 6v72c0 3.324 2.676 6 6 6h72c3.324 0 6-2.676 6-6v-72c0-3.324-2.676-6-6-6zm5 8h1 60 1c1.683774 0 3 1.316227 3 3v1 60 1c.000001 1.683774-1.316227 3-3 3h-1-60-1c-1.683771.000001-3-1.316227-3-3v-1-60-1c0-1.683772 1.316227-3 3-3z" fill="url(#E)"/><path d="m12 6c-3.324 0-6 2.676-6 6v2 68 2c0 .334721.04135.6507.09375.96875.0487.295596.09704.596915.1875.875.00988.03038.020892.0636.03125.09375.098865.287771.2348802.547452.375.8125.1445918.273507.3156161.535615.5.78125s.3737765.473472.59375.6875c.439947.428056.94291.814526 1.5 1.09375.278545.139612.5734731.246947.875.34375-.2562018-.100222-.4867109-.236272-.71875-.375-.00741-.0044-.023866.0045-.03125 0-.031933-.0193-.062293-.04251-.09375-.0625-.120395-.0767-.2310226-.163513-.34375-.25-.1061728-.0808-.2132809-.161112-.3125-.25-.1779299-.161433-.3474596-.345388-.5-.53125-.1075789-.130255-.2183939-.265285-.3125-.40625-.025089-.03838-.038446-.08587-.0625-.125-.064763-.103032-.1302275-.204517-.1875-.3125-.1010083-.194706-.2056748-.415701-.28125-.625-.00796-.02181-.023589-.04055-.03125-.0625-.0318251-.09195-.0358045-.186831-.0625-.28125-.0303323-.106618-.0703894-.203031-.09375-.3125-.0728786-.341512-.125-.698205-.125-1.0625v-2-68-2c0-2.781848 2.2181517-5 5-5h2 68 2c2.781848 0 5 2.218152 5 5v2 68 2c0 .364295-.05212.720988-.125 1.0625-.04415.206893-.08838.397658-.15625.59375-.0077.02195-.0233.04069-.03125.0625-.06274.173739-.138383.367449-.21875.53125-.04158.0828-.07904.169954-.125.25-.0546.09721-.126774.18835-.1875.28125-.09411.140965-.204921.275995-.3125.40625-.143174.17445-.303141.346998-.46875.5-.01117.0102-.01998.02115-.03125.03125-.138386.125556-.285091.234436-.4375.34375-.102571.07315-.204318.153364-.3125.21875-.0074.0045-.02384-.0044-.03125 0-.232039.138728-.462548.274778-.71875.375.301527-.0968.596455-.204138.875-.34375.55709-.279224 1.060053-.665694 1.5-1.09375.219973-.214028.409366-.441865.59375-.6875s.355408-.507743.5-.78125c.14012-.265048.276135-.524729.375-.8125.01041-.03078.02133-.06274.03125-.09375.09046-.278085.1388-.579404.1875-.875.0524-.31805.09375-.634029.09375-.96875v-2-68-2c0-3.324-2.676-6-6-6z" fill="url(#B)" opacity=".7"/><rect fill="#fff" filter="url(#A)" height="34.82143" opacity=".05" rx="9" transform="matrix(1.0880985 0 0 1.1015333 -1.172257 -1.410072)" width="54.464287" x="13.306199" y="13.887781"/><rect height="70" rx="4" style="fill:none;stroke-width:2;stroke-linecap:square;stroke-linejoin:round;stroke-opacity:.696581;stroke:url(#C)" width="70" x="13.000001" y="13.000001"/><path d="m12 90c-3.324 0-6-2.676-6-6v-2-68-2c0-.334721.04135-.6507.09375-.96875.0487-.295596.09704-.596915.1875-.875.00988-.03038.020892-.0636.03125-.09375.098865-.287771.2348802-.547452.375-.8125.1445918-.273507.3156161-.535615.5-.78125s.3737765-.473472.59375-.6875c.439947-.428056.94291-.814526 1.5-1.09375.278545-.139612.5734731-.246947.875-.34375-.2562018.100222-.4867109.236272-.71875.375-.00741.0044-.023866-.0045-.03125 0-.031933.0193-.062293.04251-.09375.0625-.120395.0767-.2310226.163513-.34375.25-.1061728.0808-.2132809.161112-.3125.25-.1779299.161433-.3474596.345388-.5.53125-.1075789.130255-.2183939.265285-.3125.40625-.025089.03838-.038446.08587-.0625.125-.064763.103032-.1302275.204517-.1875.3125-.1010083.194706-.2056748.415701-.28125.625-.00796.02181-.023589.04055-.03125.0625-.0318251.09195-.0358045.186831-.0625.28125-.0303323.106618-.0703894.203031-.09375.3125-.0728786.341512-.125.698205-.125 1.0625v2 68 2c0 2.781848 2.2181517 5 5 5h2 68 2c2.781848 0 5-2.218152 5-5v-2-68-2c0-.364295-.05212-.720988-.125-1.0625-.04415-.206893-.08838-.397658-.15625-.59375-.0077-.02195-.0233-.04069-.03125-.0625-.06274-.173739-.138383-.367449-.21875-.53125-.04158-.0828-.07904-.169954-.125-.25-.0546-.09721-.126774-.18835-.1875-.28125-.09411-.140965-.204921-.275995-.3125-.40625-.143174-.17445-.303141-.346998-.46875-.5-.01117-.0102-.01998-.02115-.03125-.03125-.138386-.125556-.285091-.234436-.4375-.34375-.102571-.07315-.204318-.153364-.3125-.21875-.0074-.0045-.02384.0044-.03125 0-.232039-.138728-.462548-.274778-.71875-.375.301527.0968.596455.204138.875.34375.55709.279224 1.060053.665694 1.5 1.09375.219973.214028.409366.441865.59375.6875s.355408.507743.5.78125c.14012.265048.276135.524729.375.8125.01041.03078.02133.06274.03125.09375.09046.278085.1388.579404.1875.875.0524.31805.09375.634029.09375.96875v2 68 2c0 3.324-2.676 6-6 6z" fill="url(#V)" opacity=".4"/></g><g fill-rule="evenodd"><path d="m44.84375 8.0625 1.34375 3.875h31.8125 1c2.753976 0 5.0625 2.308526 5.0625 5.0625v1 60 1c.000002 2.753977-2.308526 5.0625-5.0625 5.0625h-1-6.875l1.34375 3.875h11.53125c2.221843 0 3.9375-1.715657 3.9375-3.9375v-72c0-2.2218425-1.715657-3.9375-3.9375-3.9375z" fill="url(#F)" opacity=".4"/><path d="m47.65625 16.125 22.03125 63.75h9.3125c.538805 0 .875-.336196.875-.875v-62c0-.538805-.336194-.875-.875-.875z" fill="url(#G)" opacity=".7"/><path d="m47.65625 16.125 22.03125 63.75h1l-22.03125-63.75z" fill="url(#H)" opacity=".5"/></g><g><path d="m21.53125 26.03125c-1.373774-.02826-2.631191 1.208064-2.5625 2.59375-.675829.549922-1.029062 1.408355-.9375 2.271734.01819 1.529132-.03825 3.061943.03183 4.588536.180873 1.320765 1.400205 2.363537 2.718175 2.42098-1.57431.05001-2.9137 1.533477-2.75 3.11124.0096 2.1134-.01945 4.228036.01511 6.340638.124135 1.565193 1.661577 2.776398 3.207888 2.610622 2.03448-.0096 4.070203.01955 6.103884-.01511 1.567073-.124187 2.777863-1.664534 2.610622-3.212132-.0089-2.090076.01801-4.181273-.01394-6.270628-.11313-1.355131-1.34017-2.444279-2.67356-2.533384.763269-.03489 1.315995-.550068 1.880124-1.014778.77369-.668938.8508-1.71349.807376-2.662691-.01583-1.387095.03337-2.777279-.02788-4.162228-.09327-1.13974-1.250702-1.614294-1.690869-2.535303-.627042-.542514-1.061423-.747895-1.941744-.78125-.519419 0-1.038837 0-1.558256 0-.56401-.703527-1.49231-.798909-2.329475-.75-.296425 0-.59285 0-.889275 0z" opacity=".08"/><path d="m21.53125 25.09375c-.78187 0-1.5.627756-1.5 1.46875v.375.09375c-.515623.329683-.9375.796932-.9375 1.4375v4.59375c0 .992917.850833 1.84375 1.84375 1.84375h6.125c.216405 0 .412155-.06783.5625-.125.0099-.0038.02192-.02749.03125-.03125.008-.0029.0233.0031.03125 0 .659244-.254093 1.21875-.891481 1.21875-1.6875v-4.59375c0-.779794-.546623-1.39157-1.1875-1.65625-.083142-.163874-.109264-.390518-.21875-.5-.145666-.145666-.29015-.237207-.46875-.3125-.04344-.01831-.228618-.15625-.5625-.15625h-2.21875c-.04325-.07749-.04656-.118294-.125-.21875-.187256-.239797-.636662-.53125-1.0625-.53125zm-.59375 11.8125c-.992917 0-1.84375.850833-1.84375 1.84375v6.3125c0 .992917.850833 1.84375 1.84375 1.84375h.15625 5.8125.15625c.992917 0 1.84375-.850833 1.84375-1.84375v-6.3125c0-.992917-.850833-1.84375-1.84375-1.84375z" opacity=".15" transform="translate(0 2)"/><g transform="matrix(.3809524 0 0 .3809524 19.809524 39.619047)"><g><rect fill="url(#y)" height="21.5" opacity=".3" rx="2.5" width="21" x=".5" y=".5"/><rect height="20" opacity=".5" rx="2.380952" ry="2.325581" width="20" x="1" y="2"/></g><g fill-rule="evenodd"><path d="m2.249861 1.689316h17.614883v12.137208h-17.614883z" fill="url(#x)"/><path d="m3 1c-1.108 0-2 .892-2 2v16c0 1.108.892 2 2 2h16c1.108 0 2-.892 2-2v-16c0-1.108-.892-2-2-2zm8 1.5c4.14 0 7.5 1.346438 7.5 3-.000001 1.6535618-3.359999 3-7.5 3-4.1400008.0000001-7.5-1.346438-7.5-3 .0000001-1.6535622 3.3599994-3 7.5-3z" fill="url(#w)"/><g transform="translate(20)"><path d="m-6.1875 1v1.75c1.2912865.210493 2.4042168.5572383 3.21875 1v-2.75zm3.21875 6.375c-.3332555.2441167-.7522506.4609324-1.21875.65625-.5832201.2441869-1.2533275.4415388-2 .59375v12.3125h3.21875z" fill="url(#v)" opacity=".6"/><path d="m-10.96875 1v1.625c.426402-.046882.859381-.077656 1.3125-.09375v-1.53125zm0 7.875v12.0625h1.3125v-12c-.444082-.0059-.891275-.02527-1.3125-.0625z" fill="url(#u)" opacity=".3"/><path d="m-16.8125 1v4.375c.08904-.3066068.262806-.6087707.53125-.875.271395-.2691566.609534-.5284564 1.03125-.75v-2.75zm0 5.15625v14.78125h1.5625v-13.1875c-.421711-.2216276-.75984-.4499853-1.03125-.71875-.268459-.2658419-.442216-.5700177-.53125-.875z" fill="url(#t)" opacity=".4"/><path d="m-15.28125 1v2.875c.993486-.6073915 2.546169-1.0557156 4.34375-1.25v-1.625zm0 6.125v13.8125h4.34375v-12.5625c-1.807035-.1953062-3.350725-.6378032-4.34375-1.25z" fill="url(#s)" opacity=".15"/><path d="m-9.71875 1.0625v1.46875c.2418356-.009409.4707625-.03125.71875-.03125.9882971 0 1.9169502.079814 2.78125.21875v-1.65625zm3.5 7.21875c-.8642998.1389365-1.7929529.21875-2.78125.21875-.2479875 0-.4769144-.021841-.71875-.03125v12.53125h3.5z" fill="url(#q)" opacity=".1"/><path d="m-1.66209 1.000004h.641316v19.940283h-.641316z" fill="url(#p)" opacity=".4"/><path d="m-3 1.0625v2.65625c.5986128.3200586 1.0407103.6931375 1.28125 1.09375v-3.75zm1.28125 5.125c-.238367.4013261-.683695.772919-1.28125 1.09375v13.71875h1.28125z" fill="url(#o)" opacity=".1"/><path d="m-17.645844 1.000004h.402467v19.940283h-.402467z" fill="url(#n)" opacity=".4"/></g><path d="m2.9999999 20.999999c-1.108 0-1.99999997-.891999-1.99999997-1.999999v-1c0 1.108.89199997 2 1.99999997 2h16.0000001c1.108 0 2-.892 2-2v1c0 1.108-.892 1.999999-2 1.999999z" opacity=".15"/><path d="m2.9999999.99999982c-1.108 0-1.99999997.89199998-1.99999997 1.99999998v1c0-1.108.89199997-2 1.99999997-2h16.0000001c1.108 0 2 .892 2 2v-1c0-1.108-.892-1.99999998-2-1.99999998z" fill="#fff" opacity=".25"/></g><path d="m103.44247 30.55419a40.477489 16.240969 0 1 1 -80.954975 0 40.477489 16.240969 0 1 1 80.954975 0z" fill="none" stroke="url(#m)" stroke-linecap="round" stroke-linejoin="round" stroke-width="7.099711" transform="matrix(.1852882 0 0 .1844461 -.666667 -.131184)"/><g transform="matrix(.1803837 0 0 .1803837 -.54414 -1.418436)"><path d="m66.740086 106.88012 6.331728-11.357102.0301 4.153571 13.32572-.03009c2.381109-.252345 4.468715-1.220077 5.98052-3.03994-4.82499 9.868301-6.214719 16.850851-16.225668 16.855071h-3.080572l-.0301 4.61507z" fill="url(#l)"/><path d="m81.240116 97.921419-5.880177-10.835396 11.880769-7.193494 5.749712 11.517614c.174089 2.756344-4.276917 6.591993-7.039556 6.562155l-4.710748-.05088z" fill="url(#j)"/><path d="m45.109433 73.919728 6.070024-9.095652c5.887367-2.192329 9.297705 2.540579 11.45008 5.523983l-5.719617 10.975852z" fill="url(#h)"/><path d="m69.091143 78.447225c-1.220865-2.877741-2.852085-6.169487-4.891922-9.031583-1.826241-2.562393-4.032809-4.798031-5.704429-5.796859l15.352678-.03009c2.757154.247485 4.096834 1.8546 5.559059 4.053238l2.207565 3.882684 3.411713-2.177108-6.422024 11.437374-13.84751.03009 4.33487-2.367748z" fill="url(#g)"/><path d="m47.846903 82.693623 7.342774 10.731394-3.73163-1.825529-5.916252 11.938462c-.836067 2.24336-.900829 4.54314.05403 6.70769-6.682019-8.71903-12.312877-13.076862-7.851823-22.037427l1.373917-2.756768-4.117916-2.085235 12.846904-.672587z" fill="url(#f)"/><path d="m49.529355 99.666566 13.538353-.429582-.07542 13.840216-12.87471.009c-2.545077-1.07352-3.993562-6.76734-2.734733-9.22628l2.146512-4.192914z" fill="url(#e)"/></g></g><g transform="matrix(.3809524 0 0 .3809524 19.809524 27.619047)"><g><rect height="17" opacity=".2" rx="2.5" width="21" x=".5" y="5"/><rect height="16" opacity=".4" rx="2" width="20" x="1" y="6"/></g><path d="m4.5 1c-.831 0-1.5.669-1.5 1.5v2 3c0 .831.669 1.5 1.5 1.5h4 9c.831 0 1.5-.669 1.5-1.5v-3c0-.831-.669-1.5-1.5-1.5h-7.234835l-.265165-.5c-.3893412-.7341488-.669-1.5-1.5-1.5z" fill="url(#I)"/><path d="m4.5 1c-.831 0-1.5.669-1.5 1.5v1c0-.831.669-1.5 1.5-1.5h4c.831 0 1.1106588.7658512 1.5 1.5l.25.5h7.25c.831 0 1.5.669 1.5 1.5v-1c0-.831-.669-1.5-1.5-1.5h-7.25l-.25-.5c-.3893412-.7341488-.669-1.5-1.5-1.5z" fill="#fff" opacity=".2"/><rect fill="url(#J)" height="13.759596" rx="1.317158" width="16.464474" x="2.649938" y="6.258081"/><path d="m11 8-6 6.03125h1.96875v3.96875h8.03125v-4h2.0625l-3.03125-3.03125v-1.96875h-1.03125v1zm0 1 1.5 1.5c.218298.232163.567517.283899.84375.125v.34375c-.0074.185121.06019.365402.1875.5l1.84375 1.84375h-.375c-.37968.000038-.687462.30782-.6875.6875v3.3125h-6.65625v-3.28125c-.000038-.37968-.30782-.687462-.6875-.6875h-.28125z" fill="#835c1d"/><rect fill="#fff" filter="url(#c)" height="8.971417" opacity=".15" rx="2" transform="matrix(.8817734 0 0 .8817734 .238399 7.254054)" width="17.975767" x="2" y="1.980039"/><path d="m3 5c-1.108 0-2 .892-2 2v12c0 1.108.892 2 2 2h16c1.108 0 2-.892 2-2v-12c0-1.108-.892-2-2-2zm8 3 2 2v-1h1.03125v1.96875l3.03125 3.03125h-2.0625v4h-8.03125v-3.96875h-1.96875z" fill="url(#K)"/><path d="m3 5c-1.108 0-2 .892-2 2v1c0-1.108.892-2 2-2h16c1.108 0 2 .892 2 2v-1c0-1.108-.892-2-2-2z" fill="#ead7b4"/><path d="m3 21c-1.108 0-2-.892-2-2v-1c0 1.108.892 2 2 2h16c1.108 0 2-.892 2-2v1c0 1.108-.892 2-2 2z" fill="#b07c28"/><path d="m10.875 7.03125c-.213478.028854-.41133.12778-.5625.28125l-6 6.03125c-.2754653.278423-.368905.700763-.21875 1.0625.1501549.361737.5145895.592248.90625.59375h1v3c.00198.534202.4345484.966765.96875.96875h8.03125c.534202-.002.966765-.434548.96875-.96875v-3.03125h1.09375c.391661-.0015.756095-.232013.90625-.59375s.05672-.784077-.21875-1.0625l-2.75-2.75v-1.5625c-.002-.5342016-.434548-.9667654-.96875-.96875h-1.03125c-.164301.00139-.325571.044399-.46875.125l-.84375-.84375c-.212422-.2149017-.512678-.3188366-.8125-.28125zm.125.96875 2 2v-1h1.03125v1.96875l3.03125 3.03125h-2.0625v4h-8.03125v-3.96875h-1.96875z" fill="#ead7b4" opacity=".5"/></g></g><g><path d="m98.312801 26.451522c-.493728-.991917-1.689746-1.392996-2.68166-.899277l-1.846425.919041c-.511823-.655829-1.312112-1.019174-2.122518-.968144-.162082.0102-.314594.05403-.475341.09697l-.473445-.951188-25.066565 12.476672.445596.895234-.895234.445595-2.238086 1.113989c-.737741.367205-1.210099 1.036302-1.344875 1.786425-2.644818 1.326807-5.2139 2.62915-7.693547 3.899213-.03863.01974-.07332.03598-.111904.0557-2.366169 1.212363-4.651122 2.395318-6.826415 3.537418-.0096.005-.01837.0089-.02798.01393-.0089.0046-.01913.0093-.02798.01393-.653486.343185-1.240593.667069-1.874524 1.002843-.04657.02467-.09341.045-.139879.06962-.07435.03941-.149742.0721-.223809.111398-.437946.226503-.887766.461808-1.300951.682445-12.569079 6.711735-20.861296 11.80836-20.218213 13.100359.680767 1.367708 9.721399-2.225927 22.641138-8.232522 3.956015-1.839215 8.176917-3.836308 12.756585-6.070226.996721-.486191 2.05819-1.030859 3.077369-1.531734.870976-.428041 1.758014-.843168 2.643676-1.280961.679722.344714 1.498323.371248 2.236064.004l27.752276-13.813421c1.084907-.540004 1.591469-1.751376 1.290943-2.876607l1.846419-.91904c.991924-.49372 1.393003-1.689741.899285-2.681662z" fill="url(#U)" opacity=".3"/><path d="m104.29336 42.145886c-.28678-1.070245-1.37925-1.700985-2.44949-1.414213l-1.992226.533814c-.371298-.744454-1.083428-1.259578-1.887813-1.3706-.160878-.0222-.319058-.0096-.485131.000581l-.274995-1.026297-27.045923 7.246934.258819.965925-.965925.258819-2.414815.647048c-.795996.213287-1.391889.77518-1.673033 1.483563-2.855725.774801-5.632363 1.540676-8.314934 2.292685-.04178.01167-.07901.0207-.120741.03235-2.559891.71801-5.034342 1.423336-7.393202 2.110412-.01042.003-.01977.0051-.03019.0081-.0096.0028-.0206.0053-.03019.0081-.708648.206488-1.348406.407251-2.036416.610361-.05055.01492-.100491.02554-.150925.04044-.0807.02385-.161083.04091-.241482.0647-.47422.134962-.961828.276192-1.410616.410326-13.652112 4.080313-22.791713 7.427571-22.418185 8.821592.395416 1.475708 9.969851-.249816 23.825514-3.569371 4.242594-1.016445 8.776165-2.134985 13.708407-3.414337 1.073455-.278439 2.221987-.601323 3.32037-.88969.938663-.246435 1.890501-.477022 2.845495-.730096.59767.472906 1.394675.661574 2.190671.448287l29.943701-8.02339c1.170575-.313656 1.907745-1.400213 1.836805-2.562722l1.99222-.533815c1.07025-.286771 1.70099-1.379244 1.41422-2.44949z" fill="url(#T)" opacity=".6"/><g transform="matrix(.5 .8660254 -.8660254 .5 106.8819 48.99641)"><rect fill="url(#M)" height="8" opacity=".733068" rx="2" width="4" x="-31" y="-4"/><rect fill="url(#N)" height="8" opacity=".733068" rx="2" width="4" x="-31" y="-4"/><path d="m-32 32.25c.01081 26.348328.845623 47.687501 3 47.6875 2.280646-.000001 2.989187-21.339173 3-47.6875z" fill="url(#O)"/><path d="m-32 32.25c.01081 26.348328.845623 47.687501 3 47.6875 2.280646-.000001 2.989187-21.339173 3-47.6875z" fill="url(#P)" opacity=".8"/><path d="m-30.5 0c-1.385 0-2.5 1.115-2.5 2.5v31c0 .824075.388519 1.545093 1 2h6c.611481-.454907 1-1.175925 1-2v-31c0-1.385-1.115-2.5-2.5-2.5z" fill="url(#Q)"/><path d="m-30.5.00000007c-1.385 0-2.5 1.11499993-2.5 2.49999993v31c0 .824075.388519 1.545093 1 2h6c.611481-.454907 1-1.175925 1-2v-31c0-1.385-1.115-2.49999993-2.5-2.49999993z" fill="url(#R)"/><path d="m-31.96875 40.0625c.0049.670574.02557 1.278688.03125 1.9375h5.875c.0056-.658823.02695-1.266902.03125-1.9375zm.03125 4.0625c.02845 2.733648.07305 5.358369.125 7.875h5.625c.05199-2.51661.09557-5.141352.125-7.875zm.1875 10c.01507.611551.01413 1.277329.03125 1.875h5.4375c.01593-.597688.01671-1.263445.03125-1.875z" fill="#fff" opacity=".10757"/><path d="m-33 3h2v28h-2z" filter="url(#L)" opacity=".4"/><path d="m-34 2v28h2v-22h2v-4h-2v-2z" fill="url(#S)"/></g></g></svg>