<svg height="96" width="96" xmlns="http://www.w3.org/2000/svg" xmlns:xlink="http://www.w3.org/1999/xlink"><linearGradient id="a" gradientTransform="matrix(0 4 -4 0 92 -76)" gradientUnits="userSpaceOnUse" x1="3" x2="19" y1="11" y2="11"><stop offset="0" stop-color="#ad0707"/><stop offset="1" stop-color="#f75535"/></linearGradient><clipPath id="b"><path d="m-100-80v96h96v-96zm48 16c17.673112 0 32 14.326888 32 32s-14.326888 32-32 32-32-14.326888-32-32 14.326888-32 32-32zm0 8c-13.254832 0-24 10.745166-24 24 0 13.254832 10.745168 24 24 24 13.254836 0 24-10.745168 24-24 0-13.254834-10.745164-24-24-24zm-.25 4h.5c2.063936 0 3.75 1.686066 3.75 3.75v12.25h10c2.216 0 4 1.784 4 4s-1.784 4-4 4h-13.75-.25c-.0869 0-.16451.0054-.25 0-2.063936 0-3.75-1.686064-3.75-3.75v-16.5c0-2.063934 1.686064-3.75 3.75-3.75z"/></clipPath><filter id="c" color-interpolation-filters="sRGB"><feGaussianBlur stdDeviation=".96"/></filter><clipPath id="d"><path d="m0 0v96h96v-96zm12 6h72c3.324 0 6 2.676 6 6v72c0 3.324-2.676 6-6 6h-72c-3.324 0-6-2.676-6-6v-72c0-3.324 2.676-6 6-6z"/></clipPath><linearGradient id="e" gradientTransform="matrix(1.0238095 0 0 1.0119048 -1.142857 -98.071429)" gradientUnits="userSpaceOnUse" x1="32.251034" x2="32.251034" xlink:href="#f" y1="6.131708" y2="90.238609"/><linearGradient id="f" gradientTransform="matrix(1.0058652 0 0 .994169 100 0)" gradientUnits="userSpaceOnUse" x1="45.447727" x2="45.447727" y1="92.539597" y2="7.01654"><stop offset="0"/><stop offset="1" stop-opacity=".588235"/></linearGradient><linearGradient id="g" gradientUnits="userSpaceOnUse" x1="48" x2="48" y1="90" y2="5.987717"><stop offset="0" stop-color="#c8c8c8"/><stop offset="1" stop-color="#e6e6e6"/></linearGradient><linearGradient id="h" gradientUnits="userSpaceOnUse" x1="36.357143" x2="36.357143" xlink:href="#i" y1="6" y2="63.893143"/><linearGradient id="i"><stop offset="0" stop-color="#fff"/><stop offset="1" stop-color="#fff" stop-opacity="0"/></linearGradient><radialGradient id="j" cx="48" cy="90.171875" gradientTransform="matrix(1.1573129 0 0 .99590774 -7.551021 .197132)" gradientUnits="userSpaceOnUse" r="42" xlink:href="#i"/><linearGradient id="k" gradientTransform="translate(0 -97)" gradientUnits="userSpaceOnUse" x1="32.251034" x2="32.251034" xlink:href="#f" y1="6.131708" y2="90.238609"/><g clip-path="url(#d)"><g fill="url(#e)"><path d="m12-95.03125c-5.5110903 0-10.03125 4.52016-10.03125 10.03125v71c0 5.5110902 4.5201598 10.03125 10.03125 10.03125h72c5.51109 0 10.03125-4.5201597 10.03125-10.03125v-71c0-5.51109-4.52016-10.03125-10.03125-10.03125z" opacity=".08" transform="scale(1 -1)"/><path d="m12-94.03125c-4.971633 0-9.03125 4.059617-9.03125 9.03125v71c0 4.9716329 4.0596171 9.03125 9.03125 9.03125h72c4.971633 0 9.03125-4.059617 9.03125-9.03125v-71c0-4.971633-4.059617-9.03125-9.03125-9.03125z" opacity=".1" transform="scale(1 -1)"/><path d="m12-93c-4.4091333 0-8 3.590867-8 8v71c0 4.4091333 3.5908667 8 8 8h72c4.409133 0 8-3.5908667 8-8v-71c0-4.409133-3.590867-8-8-8z" opacity=".2" transform="scale(1 -1)"/><rect height="85" opacity=".3" rx="7" transform="scale(1 -1)" width="86" x="5" y="-92"/></g><rect fill="url(#k)" height="84" opacity=".45" rx="6" transform="scale(1 -1)" width="84" x="6" y="-91"/></g><rect fill="url(#g)" height="84" opacity=".75" rx="6" width="84" x="6" y="6"/><path d="m12 6c-3.324 0-6 2.676-6 6v2 68 2c0 .334721.04135.6507.09375.96875.0487.295596.09704.596915.1875.875.00988.03038.020892.0636.03125.09375.098865.287771.2348802.547452.375.8125.1445918.273507.3156161.535615.5.78125s.3737765.473472.59375.6875c.439947.428056.94291.814526 1.5 1.09375.278545.139612.5734731.246947.875.34375-.2562018-.100222-.4867109-.236272-.71875-.375-.00741-.0044-.023866.0045-.03125 0-.031933-.0193-.062293-.04251-.09375-.0625-.120395-.0767-.2310226-.163513-.34375-.25-.1061728-.0808-.2132809-.161112-.3125-.25-.1779299-.161433-.3474596-.345388-.5-.53125-.1075789-.130255-.2183939-.265285-.3125-.40625-.025089-.03838-.038446-.08587-.0625-.125-.064763-.103032-.1302275-.204517-.1875-.3125-.1010083-.194706-.2056748-.415701-.28125-.625-.00796-.02181-.023589-.04055-.03125-.0625-.0318251-.09195-.0358045-.186831-.0625-.28125-.030332-.106618-.070389-.203031-.09375-.3125-.072879-.341512-.125-.698205-.125-1.0625v-2-68-2c0-2.781848 2.2181517-5 5-5h2 68 2c2.781848 0 5 2.218152 5 5v2 68 2c0 .364295-.05212.720988-.125 1.0625-.04415.206893-.08838.397658-.15625.59375-.0077.02195-.0233.04069-.03125.0625-.06274.173739-.138383.367449-.21875.53125-.04158.0828-.07904.169954-.125.25-.0546.09721-.126774.18835-.1875.28125-.09411.140965-.204921.275995-.3125.40625-.143174.17445-.303141.346998-.46875.5-.01117.0102-.01998.02115-.03125.03125-.138386.125556-.285091.234436-.4375.34375-.102571.07315-.204318.153364-.3125.21875-.0074.0045-.02384-.0044-.03125 0-.232039.138728-.462548.274778-.71875.375.301527-.0968.596455-.204138.875-.34375.55709-.279224 1.060053-.665694 1.5-1.09375.219973-.214028.409366-.441865.59375-.6875s.355408-.507743.5-.78125c.14012-.265048.276135-.524729.375-.8125.01041-.03078.02133-.06274.03125-.09375.09046-.278085.1388-.579404.1875-.875.0524-.31805.09375-.634029.09375-.96875v-2-68-2c0-3.324-2.676-6-6-6z" fill="url(#h)" opacity=".5"/><path d="m12 90c-3.324 0-6-2.676-6-6v-2-68-2c0-.334721.04135-.6507.09375-.96875.0487-.295596.09704-.596915.1875-.875.00988-.03038.020892-.0636.03125-.09375.098865-.287771.2348802-.547452.375-.8125.1445918-.273507.3156161-.535615.5-.78125s.3737765-.473472.59375-.6875c.439947-.428056.94291-.814526 1.5-1.09375.278545-.139612.5734731-.246947.875-.34375-.2562018.100222-.4867109.236272-.71875.375-.00741.0044-.023866-.0045-.03125 0-.031933.0193-.062293.04251-.09375.0625-.120395.0767-.2310226.163513-.34375.25-.1061728.0808-.2132809.161112-.3125.25-.1779299.161433-.3474596.345388-.5.53125-.1075789.130255-.2183939.265285-.3125.40625-.025089.03838-.038446.08587-.0625.125-.064763.103032-.1302275.204517-.1875.3125-.1010083.194706-.2056748.415701-.28125.625-.00796.02181-.023589.04055-.03125.0625-.0318251.09195-.0358045.186831-.0625.28125-.030332.106618-.070389.203031-.09375.3125-.072879.341512-.125.698205-.125 1.0625v2 68 2c0 2.781848 2.2181517 5 5 5h2 68 2c2.781848 0 5-2.218152 5-5v-2-68-2c0-.364295-.05212-.720988-.125-1.0625-.04415-.206893-.08838-.397658-.15625-.59375-.0077-.02195-.0233-.04069-.03125-.0625-.06274-.173739-.138383-.367449-.21875-.53125-.04158-.0828-.07904-.169954-.125-.25-.0546-.09721-.126774-.18835-.1875-.28125-.09411-.140965-.204921-.275995-.3125-.40625-.143174-.17445-.303141-.346998-.46875-.5-.01117-.0102-.01998-.02115-.03125-.03125-.138386-.125556-.285091-.234436-.4375-.34375-.102571-.07315-.204318-.153364-.3125-.21875-.0074-.0045-.02384.0044-.03125 0-.232039-.138728-.462548-.274778-.71875-.375.301527.0968.596455.204138.875.34375.55709.279224 1.060053.665694 1.5 1.09375.219973.214028.409366.441865.59375.6875s.355408.507743.5.78125c.14012.265048.276135.524729.375.8125.01041.03078.02133.06274.03125.09375.09046.278085.1388.579404.1875.875.0524.31805.09375.634029.09375.96875v2 68 2c0 3.324-2.676 6-6 6z" fill="url(#j)" opacity=".2"/><g transform="translate(0 80)"><path d="m-52-64c-17.673112 0-32 14.326888-32 32s14.326888 32 32 32 32-14.326888 32-32-14.326888-32-32-32zm0 8c13.254836 0 24 10.745166 24 24 0 13.254832-10.745164 24-24 24-13.254832 0-24-10.745168-24-24 0-13.254834 10.745168-24 24-24zm-.25 4c-2.063936 0-3.75 1.686066-3.75 3.75v16.5c0 2.063936 1.686064 3.75 3.75 3.75.08549.0054.1631 0 .25 0h.25 13.75c2.216 0 4-1.784 4-4s-1.784-4-4-4h-10v-12.25c0-2.063934-1.686064-3.75-3.75-3.75z" style="opacity:.2;fill:none;stroke:#fff;stroke-width:4;clip-path:url(#b);filter:url(#c)" transform="translate(100)"/><path d="m48-64c-17.673112 0-32 14.326888-32 32s14.326888 32 32 32 32-14.326888 32-32-14.326888-32-32-32zm0 8c13.254836 0 24 10.745166 24 24 0 13.254832-10.745164 24-24 24-13.254832 0-24-10.745168-24-24 0-13.254834 10.745168-24 24-24zm-.25 4c-2.063936 0-3.75 1.686066-3.75 3.75v16.5c0 2.063936 1.686064 3.75 3.75 3.75.08549.0054.1631 0 .25 0h.25 13.75c2.216 0 4-1.784 4-4s-1.784-4-4-4h-10v-12.25c0-2.063934-1.686064-3.75-3.75-3.75z" fill="url(#a)"/><path d="m-100-80h96v96h-96z" fill="#f00" opacity=".3"/><g fill="#500"><path d="m48-64c-17.673112 0-32 14.326888-32 32s14.326888 32 32 32 32-14.326888 32-32-14.326888-32-32-32zm0 2c16.595462 0 30 13.404538 30 30s-13.404538 30-30 30-30-13.404538-30-30 13.404538-30 30-30zm0 4c-14.332482 0-26 11.667516-26 26 0 14.332482 11.667518 26 26 26 14.332486 0 26-11.667518 26-26 0-14.332483-11.667514-26-26-26zm0 2c13.254836 0 24 10.745166 24 24 0 13.254832-10.745164 24-24 24-13.254832 0-24-10.745168-24-24 0-13.254834 10.745168-24 24-24zm-.25 4c-2.063936 0-3.75 1.686066-3.75 3.75v16.5c0 2.063936 1.686064 3.75 3.75 3.75.08549.0054.1631 0 .25 0h.25 13.75c2.216 0 4-1.784 4-4s-1.784-4-4-4h-10v-12.25c0-2.063934-1.686064-3.75-3.75-3.75zm0 2h.5c.977968 0 1.75.772034 1.75 1.75v12.25a1.9942218 1.9942218 0 0 0 2 2h10c1.145803 0 2 .854197 2 2s-.854197 2-2 2h-13.75-.25c-.169506 0-.198754-.0047-.125 0a1.9942218 1.9942218 0 0 0 -.125 0c-.977969 0-1.75-.772031-1.75-1.75v-16.5c0-.977966.772032-1.75 1.75-1.75z" opacity=".1"/><path d="m48 16c-17.673112 0-32 14.326888-32 32s14.326888 32 32 32 32-14.326888 32-32-14.326888-32-32-32zm0 1.03125c17.122541 0 30.96875 13.846209 30.96875 30.96875s-13.846209 30.96875-30.96875 30.96875-30.96875-13.846209-30.96875-30.96875 13.846209-30.96875 30.96875-30.96875zm0 5.9375c-13.805403 0-25.03125 11.225845-25.03125 25.03125 0 13.805403 11.225847 25.03125 25.03125 25.03125 13.805407 0 25.03125-11.225847 25.03125-25.03125 0-13.805405-11.225843-25.03125-25.03125-25.03125zm0 1.03125c13.254836 0 24 10.745166 24 24 0 13.254832-10.745164 24-24 24-13.254832 0-24-10.745168-24-24 0-13.254834 10.745168-24 24-24zm-.25 4c-2.063936 0-3.75 1.686066-3.75 3.75v16.5c0 2.063936 1.686064 3.75 3.75 3.75.08549.0054.1631 0 .25 0h.25 13.75c2.216 0 4-1.784 4-4s-1.784-4-4-4h-10v-12.25c0-2.063934-1.686064-3.75-3.75-3.75zm0 1.03125h.5c1.509115 0 2.71875 1.209637 2.71875 2.71875v12.25a1.018848 1.018848 0 0 0 1.03125 1.03125h10c1.669236 0 2.96875 1.299514 2.96875 2.96875s-1.299514 2.96875-2.96875 2.96875h-13.75-.25c-.129104 0-.183368.000261-.1875 0a1.018848 1.018848 0 0 0 -.0625 0c-1.509115 0-2.71875-1.209635-2.71875-2.71875v-16.5c0-1.509113 1.209635-2.71875 2.71875-2.71875z" opacity=".2" transform="translate(0 -80)"/><path d="m48 16c-17.673112 0-32 14.326888-32 32 0 .166668-.0025.333936 0 .5.266707-17.442958 14.493556-31.5 32-31.5s31.733293 14.057042 32 31.5c.002539-.166064 0-.333332 0-.5 0-17.673112-14.326888-32-32-32zm-.25 12c-2.063936 0-3.75 1.686066-3.75 3.75v1c0-2.063934 1.686064-3.75 3.75-3.75h.5c2.063936 0 3.75 1.686066 3.75 3.75v-1c0-2.063934-1.686064-3.75-3.75-3.75zm4.25 16v1h10c2.045352 0 3.691297 1.523459 3.9375 3.5.020541-.164907.0625-.329352.0625-.5 0-2.216-1.784-4-4-4zm-28 4.5c-.0033.164783 0 .334418 0 .5 0 13.254832 10.745168 24 24 24 13.254836 0 24-10.745168 24-24 0-.165582.0033-.335217 0-.5-.263839 13.026062-10.910746 23.5-24 23.5-13.08925 0-23.736161-10.473938-24-23.5z" opacity=".3" transform="translate(0 -80)"/></g><path d="m48 24c-13.254832 0-24 10.745166-24 24 0 .165582-.0033.335217 0 .5.263839-13.026064 10.91075-23.5 24-23.5 13.089254 0 23.736161 10.473936 24 23.5.003338-.164783 0-.334418 0-.5 0-13.254834-10.745164-24-24-24zm-4 24.25v1c0 2.063936 1.686064 3.75 3.75 3.75.08549.0054.1631 0 .25 0h.25 13.75c2.216 0 4-1.784 4-4 0-.170648-.04196-.335093-.0625-.5-.246203 1.976541-1.892148 3.5-3.9375 3.5h-13.75-.25c-.0869 0-.16451.0054-.25 0-2.063936 0-3.75-1.686064-3.75-3.75zm-28 .25c-.0025.166064 0 .333332 0 .5 0 17.673112 14.326888 32 32 32s32-14.326888 32-32c0-.166668.0025-.333936 0-.5-.266707 17.442958-14.493556 31.5-32 31.5s-31.733293-14.057042-32-31.5z" fill="#fff" opacity=".5" transform="translate(0 -80)"/></g></svg>