<svg height="16.001" width="16" xmlns="http://www.w3.org/2000/svg" xmlns:xlink="http://www.w3.org/1999/xlink"><clipPath id="a"><path d="m21 281h14v11h-14z"/></clipPath><g fill="#bebebe" transform="translate(-40 -448)"><rect height="10.013" rx="2.5" width="5" x="45" y="448.99"/><path clip-path="url(#a)" d="m27.969 273.62c-2.5025 0-4.5312 2.0288-4.5312 4.5312v5.8125c0 2.5025 2.0288 4.5312 4.5312 4.5312 2.5025 0 4.5312-2.0288 4.5312-4.5312v-5.8125c0-2.5025-2.0288-4.5312-4.5312-4.5312zm0 1c1.9641 0 3.5312 1.5671 3.5312 3.5312v5.8125c0 1.9642-1.5671 3.5312-3.5312 3.5312s-3.5312-1.5671-3.5312-3.5312v-5.8125c0-1.9642 1.5671-3.5312 3.5312-3.5312z" transform="matrix(.99397 0 0 1 19.707 172.51)"/><path d="m24 361a1 1 0 1 1 -2 0 1 1 0 1 1 2 0z" transform="matrix(.5 0 0 .5 32 273)"/><path d="m24 361a1 1 0 1 1 -2 0 1 1 0 1 1 2 0z" transform="matrix(.5 0 0 .5 40 273)"/><path d="m43.906 462a1.0011 1.0011 0 1 0 .094 2h7a1.0001 1.0001 0 1 0 0-2h-7a1.0001 1.0001 0 0 0 -.09375 0z"/><path d="m43 463h8.9998v1h-8.9998z"/><path d="m46 460h3v4h-3z"/></g></svg>