<svg height="16" viewBox="0 0 16 16" width="16" xmlns="http://www.w3.org/2000/svg"><path d="m1 0v5h5l-1.71875-1.71875c1.0226391-.8028675 2.318003-1.28125 3.71875-1.28125 3.313708 0 6 2.6862915 6 6 0 3.313708-2.686292 6-6 6-3.3137085 0-6-2.686292-6-6 0-.700711.1229842-1.374865.34375-2h-2.09375c-.1637044.637743-.25 1.31119-.25 2 0 4.418278 3.581722 8 8 8s8-3.581722 8-8-3.581722-8-8-8c-1.956872 0-3.7661949.6769384-5.15625 1.84375zm6.90625 2.96875a1.0001 1.0001 0 0 0 -.125.03125 1.0001 1.0001 0 0 0 -.78125 1v3.6875a1.0001 1.0001 0 0 0 0 .09375 1.0001 1.0001 0 0 0 .125.75 1.0001 1.0001 0 0 0 .03125.03125 1.0001 1.0001 0 0 0 .03125.0625 1.0001 1.0001 0 0 0 .03125.03125 1.0001 1.0001 0 0 0 .03125.03125 1.0001 1.0001 0 0 0 .03125.03125 1.0001 1.0001 0 0 0 .03125.03125 1.0001 1.0001 0 0 0 .0625.03125 1.0001 1.0001 0 0 0 .03125.03125 1.0001 1.0001 0 0 0 .03125.03125 1.0001 1.0001 0 0 0 .0625.03125 1.0001 1.0001 0 0 0 .125.0625l2.46875 1.4375a1.0077822 1.0077822 0 1 0 1-1.75l-2.09375-1.21875v-3.40625a1.0001 1.0001 0 0 0 -1.09375-1.03125z" fill="#bebebe"/></svg>