<svg height="16" width="16" xmlns="http://www.w3.org/2000/svg"><g fill="#bebebe" transform="translate(359 -487)"><path d="m-355.34 487c-1.4182 0-2.5938 1.1756-2.5938 2.5938v11.375 1h1 12 1v-1-11.375c0-1.4182-1.1755-2.5938-2.5938-2.5938h-8.82zm0 2h8.8125c.34449 0 .59375.24859.59375.59375v10.375h-10v-10.375c0-.34.25-.59.6-.59z"/><path d="m-354 491.03v1h.5 5 .5v-1h-.5-5z"/><path d="m-354 493v1h.5 5 .5v-1h-.5-5z"/><path d="m-354 495v1h.5 5 .5v-1h-.5-5z"/><path d="m-354 497v1h.5 5 .5v-1h-.5-5z"/></g></svg>