<svg height="16" width="16.031" xmlns="http://www.w3.org/2000/svg"><g fill="#bebebe" transform="translate(-200.97 -467)"><path d="m203.88 478.04c0 2.6909 2.2988 4.9043 5.1158 4.9043 2.8171 0 5.1342-2.2133 5.1342-4.9043h-2.017c0 1.6524-1.3873 2.9776-3.1172 2.9776s-3.0988-1.3252-3.0988-2.9776z"/><path d="m206.99 478c0 1.0986.91452 1.9965 2.0132 1.9965 1.0986 0 1.9965-.89789 1.9965-1.9965h-.99827c0 .5582-.44006.99826-.99827.99826s-.99827-.44006-.99827-.99826z"/><path d="m203.41 468c-1.3331 0-2.4375 1.1044-2.4375 2.4375v8.125c0 1.3331 1.1044 2.4375 2.4375 2.4375v-2c-.25968 0-.4375-.17783-.4375-.4375v-1.5625h12v1.5625c0 .25967-.17782.4375-.4375.4375v2c1.3331 0 2.4375-1.1044 2.4375-2.4375v-8.125c0-1.3331-1.1044-2.4375-2.4375-2.4375z"/></g></svg>