<svg height="16" width="16" xmlns="http://www.w3.org/2000/svg"><path d="m1.8125 0c-.478082.091222-.8210764.5133685-.8125 1v14c.0000552.552262.4477381.999945 1 1h12c.552262-.000055.999945-.447738 1-1v-10.4375c.0062-.2675647-.0951-.5264505-.28125-.71875l-3.5625-3.5625c-.1923-.1861457-.451185-.28744885-.71875-.28125h-8.4375c-.031233-.001466-.062517-.001466-.09375 0-.031233-.001466-.062517-.001466-.09375 0zm1.1875 2h7v3h3v9h-10zm1 5v1h7.046875v-1zm0 2v1h8.046875v-1zm.09375 2v1h5.953125v-1z" fill="#bebebe"/></svg>