<svg height="16" viewBox="0 0 16 16" width="16" xmlns="http://www.w3.org/2000/svg"><g fill="#bebebe"><path d="m1 4c-.554 0-1 .446-1 1v7c0 .554.446 1 1 1h14c.554 0 1-.446 1-1v-7c0-.554-.446-1-1-1zm2 1.5h10c.554 0 1.5.946 1.5 1.5v3c0 .554-.946 1.5-1.5 1.5h-10c-.554 0-1.5-.946-1.5-1.5v-3c0-.554.946-1.5 1.5-1.5z"/><path d="m3 7v1h1v-1z"/><path d="m5 7v1h1v-1z"/><path d="m7 7v1h1v-1z"/><path d="m9 7v1h1v-1z"/><path d="m3 9v1h2.0361386v-1z"/><path d="m6 9v1h4.964356v-1z"/><path d="m11 7v1h1v2h1v-3z"/></g></svg>