<svg height="16" width="16" xmlns="http://www.w3.org/2000/svg" xmlns:xlink="http://www.w3.org/1999/xlink"><linearGradient id="a" gradientUnits="userSpaceOnUse" x1="11.523069" x2="11.523069" y1=".030721" y2="14.54048"><stop offset="0"/><stop offset="1" stop-color="#363636"/></linearGradient><g fill-rule="evenodd"><path d="m6 2-5 5v8h14v-8l-5-5h-4zm-2.5 6 2.5625 2.78125 1.9375-1.78125 1.9375 1.78125 2.53125-2.78125.5.5-2.46875 2.71875 2.5 2.28125-.5.5-4.5-4-4.5 4-.5-.5 2.5-2.25-2.5-2.75.5-.5z" fill="#fff" opacity=".6"/><path d="m6 1-5 5v8h14v-8l-5-5h-4zm-2.5 6 2.5625 2.78125 1.9375-1.78125 1.9375 1.78125 2.53125-2.78125.5.5-2.46875 2.71875 2.5 2.28125-.5.5-4.5-4-4.5 4-.5-.5 2.5-2.25-2.5-2.75.5-.5z" fill="url(#a)" opacity=".7"/></g></svg>