<svg height="16" width="16" xmlns="http://www.w3.org/2000/svg" xmlns:xlink="http://www.w3.org/1999/xlink"><linearGradient id="a" gradientUnits="userSpaceOnUse" x1="6.258188" x2="6.258188" xlink:href="#b" y1="1" y2="8.519556"/><linearGradient id="b"><stop offset="0"/><stop offset="1" stop-color="#363636"/></linearGradient><linearGradient id="c" gradientUnits="userSpaceOnUse" x1="11.436951" x2="11.436951" xlink:href="#b" y1="1" y2="15.165655"/><g fill-rule="evenodd"><path d="m0 6.9849782 7-5v3h5l3-3-3 6h-3v-3l-6 4.5-3-2.5zm16-5v8.6421298s-.514467 3.388713-4 3.388713l-4 .032273v2.065501l-6.0958663-4.518284 6.0958663-4.615103v2.0655009l4.541964-.0607307" fill="#fff" opacity=".6"/><path d="m0 6 7-5v3h5l3-3-3 6h-3v-3l-6 4.5-3-2.5z" fill="url(#a)" opacity=".7"/><path d="m16 1v8.6421299s-.514467 3.3887131-4 3.3887131l-4 .032273v2.065501l-6.0958663-4.518284 6.0958663-4.6151032v2.0655009l4.541964-.0607307" fill="url(#c)" opacity=".7"/></g></svg>