<svg height="16" width="16" xmlns="http://www.w3.org/2000/svg"><g transform="translate(0 -6)"><path d="m-13.375 32c-.69219.04617-1.48522.350316-2.125.875-.783895.642873-1.420629 2.277217-1.25 3.1875.08798.469342.442147 1.040424.78125 1.21875.631484.332085 1.782432-.218771 2.84375-1.34375 1.146489-1.215261 1.672995-2.554322 1.28125-3.3125-.240753-.465948-.83906-.671173-1.53125-.625zm-5.65625.71875c-.962961.000866-1.472444.677958-1.46875 1.96875.0025.88392.31322 1.679132.71875 1.875.301512.145631.309051.132036.6875 0 .626864-.218707 1.215803-1.678559 1.09375-2.65625-.09989-.800159-.443807-1.188029-1.03125-1.1875zm-3.8125 1.3125c-.180183.02605-.360903.142012-.53125.3125-.343364.343646-.347944.530957-.34375 1.1875.0049.774303.193895 1.196475.71875 1.75.392601.414046.675716.438798 1.03125.0625.385138-.407633.504721-1.047693.375-1.75-.197834-1.071067-.709451-1.64066-1.25-1.5625zm-2.6875 2.34375c-.186951.03041-.35545.136555-.53125.3125-.461346.46173-.138669 1.731398.59375 2.375.874175.768169 1.580077.06483 1.28125-1.28125-.212654-.957908-.782897-1.497481-1.34375-1.40625zm8.03125 1.6875c-.61906-.01065-1.312804.04097-2.03125.1875-1.85076.377471-3.33166 1.075449-4.28125 2.03125-.546889.550465-.859803 1.060056-1.125 1.84375-.641919 1.896963.546896 4.595678 2.8125 6.4375.844088.686203 1.359152.993313 2.21875 1.28125.445736.149308.799163.183992 1.625.15625.946716-.03181 1.139252-.07408 1.75-.375.895036-.440989 1.909553-1.461035 2.34375-2.34375.264885-.5385.307321-.768628.28125-1.21875-.04452-.768578-.342658-.977756-1.3125-.96875-1.38452.01285-1.965756.333932-2.25 1.3125-.21469.739118-.452038 1-.9375 1-.769368 0-1.5625-.611791-1.5625-1.25 0-.443994.715313-1.10577 2.5-2.3125 2.514116-1.69994 3.378489-2.734111 3.25-3.875-.13273-1.178551-1.42407-1.874295-3.28125-1.90625z" fill="#d40000"/><path d="m12.992328 6.0143841c-.614764.041008-1.319089.3111311-1.887306.7771261-.696212.5709639-1.2617231 2.0224968-1.1101801 2.8309593.07813.4168435.3926901.9240465.6938621 1.0824255.560849.294939 1.583057-.1943 2.52566-1.1934435 1.018248-1.0793269 1.485861-2.268606 1.137935-2.9419773-.213823-.413829-.745206-.5960983-1.359971-.5550901zm-5.023565.6383536c-.8552481.0007691-1.3077424.6021244-1.3044616 1.7485337.00225.7850483.2781842 1.4913111.6383536 1.6652706.2677861.129341.2744818.117267.610599 0 .5567459-.1942438 1.0798079-1.4908027.9714079-2.3591332-.088718-.7106565-.394165-1.0551409-.9158989-1.0546711zm-3.3860493 1.1656891c-.1600285.0231393-.3205339.1261271-.4718266.277545-.3049567.3052072-.3090241.4715664-.3052995 1.0546712.00439.6876926.1722069 1.062642.6383536 1.554252.348686.367733.6001328.389716.9158986.05551.3420578-.362038.4482649-.9305032.333054-1.554253-.1757053-.9512623-.6300946-1.457143-1.1101801-1.3877252zm-2.3868873 2.0815877c-.1660394.0270089-.3156905.1212805-.4718265.2775455-.4097418.410082-.1231579 1.53773.5273355 2.109342.7763935.682245 1.4033361.057579 1.1379347-1.137935-.1888673-.85076-.6953253-1.3299791-1.1934437-1.2489525zm7.1329075 1.4987435c-.549815-.0095-1.1659584.03639-1.8040429.166527-1.6437417.335248-2.9589942.955153-3.8023669 1.804042-.4857159.488893-.7636284.941483-.9991621 1.637516-.5701163 1.684777.4857228 4.081624 2.4979053 5.717428.7496716.609447 1.2071227.882205 1.9705697 1.137934.3958778.132607.7097719.163413 1.4432339.138773.84082-.02825 1.01182-.06579 1.5542521-.333054.794922-.391662 1.695959-1.29761 2.081588-2.081588.235256-.478266.272947-.682651.249791-1.082426-.03954-.682608-.30433-.868388-1.165689-.860389-1.229654.01141-1.7458751.296579-1.9983251 1.165689-.190675.656443-.401475.888144-.832635.888144-.6833094 0-1.3877249-.543358-1.3877249-1.11018 0-.394331.635301-.982083 2.2203599-2.053833 2.2328981-1.509792 3.0005861-2.428285 2.8864691-3.441559-.117884-1.046723-1.26478-1.664644-2.9142231-1.693024z" fill="#bebebe"/></g></svg>