<svg height="16" width="16" xmlns="http://www.w3.org/2000/svg"><g fill="#bebebe" transform="translate(0 -6)"><g transform="matrix(.07479732 0 0 .07479732 -6.365225 -32.473303)"><path d="m177.89056 597.12767h-.01c-6.6729 0-12.10712-5.42671-12.11419-12.09501-.01-6.69051 5.42514-12.12528 12.1041-12.13236 6.68298 0 12.1162 5.42671 12.12426 12.09501 0 6.69052-5.42512 12.1263-12.10408 12.13337z"/><path d="m210.60812 588.24494c-6.23094 0-11.30246-5.06615-11.30657-11.29167-.01-6.24198 5.06123-11.31635 11.2963-11.32148 6.23916 0 11.31068 5.0651 11.31683 11.29063 0 6.24197-5.06224 11.31635-11.29628 11.32252h-.01z"/><path d="m-10-15.700835a7 7 0 1 1 -14 0 7 7 0 1 1 14 0z" transform="matrix(1.4421651 0 0 1.4421651 215.7232 578.60266)"/><path d="m94-16.522263a11.5 11.5 0 1 1 -23 0 11.5 11.5 0 1 1 23 0z" transform="matrix(.80761247 0 0 .80761247 140.73061 552.34319)"/><path d="m11-37.522263a10.5 10.5 0 1 1 -21 0 10.5 10.5 0 1 1 21 0z" transform="matrix(.76915473 0 0 .76915473 187.18756 551.30398)"/></g><path d="m4.4156 13.006526c-.781662 1.013166-1.4156 2.152745-1.4156 3.533269 0 2.992368 2.270729 5.460205 5.086218 5.460205 2.815404 0 5.086218-2.467824 5.086218-5.460205 0-1.380798-.634947-2.484167-1.460805-3.533267-.309679-.324968-.756767-.276649-1.082242-.06871-.952391.492805-1.466482.689701-2.543171.684878-1.04133-.0047-1.588446-.174727-2.54089-.69392-.325474-.198901-.82005-.247221-1.129728.07775zm.678725.840567c.987196.545837 1.867623.82277 2.991893.82277 1.125221 0 2.00419-.276937 2.991893-.82277.538952.759929 1.047162 1.70223 1.047162 2.692702 0 2.453449-1.808248 4.413042-4.039055 4.413042-2.230914 0-4.113854-1.95958-4.113854-4.413042 0-.989166.581834-1.932179 1.121961-2.692702z"/></g></svg>