<svg height="16" viewBox="0 0 16 16" width="16" xmlns="http://www.w3.org/2000/svg"><g fill="#bebebe" transform="matrix(.5 0 0 .50004 -4 -506.00483)"><path d="m8 1013.9285v21.9983s0 1.9998 2 1.9998h10v1.9999h8l.000006-1.9999h9.999994c2 0 2-1.9998 2-1.9998v-21.9983c0-1.9998-2-1.9998-2-1.9998h-28c-2 0-2 1.9998-2 1.9998zm4 0h24c2 0 2 1.9999 2 1.9999v17.9985c0 1.9999-2 1.9999-2 1.9999h-24s-2 0-2-1.9999v-17.9985s0-1.9999 2-1.9999zm2 27.9725v2.0251l20.025002.025v-2.0251z"/><path d="m12 11.566186v5.99952l6-5.99952z" transform="translate(0 1004.3622)"/><path d="m12 1033.9269h6l-6-5.9995z"/><path d="m36 1033.9269v-5.9995l-6 5.9995z"/><path d="m36 1015.9284h-6l6 5.4338z"/></g></svg>