<svg height="16" width="16" xmlns="http://www.w3.org/2000/svg" xmlns:xlink="http://www.w3.org/1999/xlink"><linearGradient id="a"><stop offset="0" stop-color="#818181"/><stop offset=".2" stop-color="#f9f9f9"/><stop offset="1" stop-color="#dcdcdc" stop-opacity="0"/></linearGradient><linearGradient id="b"><stop offset="0" stop-color="#2f2f2f"/><stop offset=".43731192" stop-color="#fff"/><stop offset=".62138397" stop-color="#979797"/><stop offset=".7723214" stop-color="#505050"/><stop offset="1" stop-color="#e6e6e6"/></linearGradient><linearGradient id="c"><stop offset="0" stop-color="#ededed"/><stop offset="1" stop-color="#b0b0b0"/></linearGradient><linearGradient id="d"><stop offset="0" stop-color="#b4b4b4"/><stop offset=".20467032" stop-color="#646464"/><stop offset=".49567693" stop-color="#fff"/><stop offset="1" stop-color="#3c3c3c"/></linearGradient><linearGradient id="e"><stop offset="0" stop-color="#fff"/><stop offset=".48973215" stop-color="#8c8c8c"/><stop offset=".50044644" stop-color="#cfcfcf"/><stop offset=".62276787" stop-color="#fff"/><stop offset=".81696427" stop-color="#c8c8c8"/><stop offset="1" stop-color="#505050"/></linearGradient><linearGradient id="f" gradientUnits="userSpaceOnUse" x1="19.035713" x2="87.5" y1="72.744602" y2="26.173174"><stop offset="0" stop-color="#fff"/><stop offset="1" stop-color="#fff" stop-opacity="0"/></linearGradient><linearGradient id="g" gradientUnits="userSpaceOnUse" x1="6" x2="24" xlink:href="#a" y1="71.744602" y2="71.744602"/><linearGradient id="h" gradientTransform="matrix(-1 0 0 1 96 -1.255398)" gradientUnits="userSpaceOnUse" x1="6" x2="24" xlink:href="#a" y1="73" y2="73"/><linearGradient id="i" gradientUnits="userSpaceOnUse" x1="38.748035" x2="38.748035" y1="71.15395" y2="4.577759"><stop offset="0" stop-color="#dcdcdc"/><stop offset="1" stop-color="#fafafa"/></linearGradient><radialGradient id="j" cx="90" cy="90" gradientTransform="matrix(0 -1.085034 2 0 -90 186.39766)" gradientUnits="userSpaceOnUse" r="42"><stop offset="0" stop-color="#b4b4b4"/><stop offset="1" stop-color="#dcdcdc"/></radialGradient><clipPath id="k"><path d="m66 6v55c0 1.662 1.338 3 3 3h6c1.662 0 3-1.338 3-3v-55h-4v2h-4v-2z"/></clipPath><filter id="l" color-interpolation-filters="sRGB" height="1.07322" width="1.332308" x="-.166154" y="-.03661"><feGaussianBlur stdDeviation=".9"/></filter><linearGradient id="m" gradientTransform="matrix(.49408989 0 0 .70361229 2.170095 30.047972)" gradientUnits="userSpaceOnUse" x1="68.75" x2="75.25" xlink:href="#d" y1="59" y2="59"/><linearGradient id="n" gradientTransform="matrix(.50000003 0 0 .39766823 1.744565 49.119427)" gradientUnits="userSpaceOnUse" x1="63.484772" x2="79" y1="64.163078" y2="65"><stop offset="0" stop-color="#a2a2a2"/><stop offset="1" stop-color="#fff"/></linearGradient><linearGradient id="o" gradientTransform="matrix(-.43495657 0 0 .5232543 69.067063 47.346436)" gradientUnits="userSpaceOnUse" x1="68.96875" x2="75.0625" xlink:href="#c" y1="17.5" y2="17.5"/><linearGradient id="p" gradientTransform="matrix(.43495657 0 0 .5232543 6.419721 47.346436)" gradientUnits="userSpaceOnUse" x1="68.02903" x2="75.97097" xlink:href="#c" y1="17.763245" y2="17.763245"/><linearGradient id="q" gradientTransform="matrix(.56313458 0 0 .50000003 -1.95642 22.997622)" gradientUnits="userSpaceOnUse" x1="68.75" x2="72.250572" xlink:href="#d" y1="59" y2="59"/><linearGradient id="r" gradientTransform="matrix(-.53315586 0 0 .68002831 76.13179 31.824214)" gradientUnits="userSpaceOnUse" x1="69" x2="73" xlink:href="#b" y1="54" y2="54"/><linearGradient id="s" gradientTransform="matrix(-.53315586 0 0 .68002831 76.200149 27.800991)" gradientUnits="userSpaceOnUse" x1="69" x2="73" xlink:href="#b" y1="54" y2="54"/><linearGradient id="t" gradientTransform="matrix(.53315586 0 0 .68002831 -.642653 29.784131)" gradientUnits="userSpaceOnUse" x1="69" x2="73" xlink:href="#e" y1="54" y2="54"/><linearGradient id="u" gradientTransform="matrix(.53315586 0 0 .68002831 -.574294 25.760908)" gradientUnits="userSpaceOnUse" x1="69" x2="73" xlink:href="#e" y1="54" y2="54"/><g transform="matrix(.19047135 0 0 .19047135 -1.142557 -.903304)"><path d="m12 4.7446022c-3.324 0-6 2.676-6 5.9999998v72c0 3.324 2.676 6 6 6h72c3.324 0 6-2.676 6-6v-72c0-3.3239998-2.676-5.9999998-6-5.9999998h-9v3h-6v-3z" fill="url(#j)"/><path d="m6 54.744602v28c0 3.324 2.676 6 6 6h12v-34z" fill="url(#g)"/><path d="m90 54.744602v28c0 3.324-2.676 6-6 6h-12v-34z" fill="url(#h)"/><path d="m12 4.7446022c-3.324 0-6 2.676-6 5.9999998v45.615001c0 3.324 2.676 6 6 6h72c3.324 0 6-2.676 6-6v-45.615001c0-3.3239998-2.676-5.9999998-6-5.9999998h-9v3h-6v-3z" fill="url(#i)"/><path d="m12 4.7446022c-3.324 0-6 2.676-6 5.9999998l.0000005 45.476507c0 3.324 2.676 6.276988 5.9999995 6.276988h72c3.324 0 6-2.952988 6-6.276988v-45.476507c0-3.3239998-2.676-5.9999998-6-5.9999998h-9v2h9c2.245802 0 4 1.7541975 4 3.9999998v41.792302c0 2.245802-1.754198 4.184659-4 4.184659h-72c-2.245802 0-3.9999995-1.938857-3.9999995-4.184659l-.0000005-41.792302c0-2.2458023 1.7541975-3.9999998 4-3.9999998h57v-2z" fill="url(#f)" opacity=".5"/><path d="m6.0007106 77.496641v5.247959c0 3.324 2.676 6 6.0000004 6h72c3.324 0 6.000002-2.676 6.000002-6v-5.247959c0 3.324-2.676002 5.999999-6.000002 5.999999h-72c-3.3240004 0-6.0000004-2.675999-6.0000004-5.999999z" opacity=".3"/><path d="m5.9992876 72.241258v5.253208c0 3.324001 2.676 6.000001 6.0000004 6.000001h72c3.324 0 6.000002-2.676 6.000002-6.000001v-5.253208c0 3.324-2.676002 5.999999-6.000002 5.999999h-72c-3.3240004 0-6.0000004-2.675999-6.0000004-5.999999z" fill="#fff" opacity=".3"/><path d="m5.9999996 66.996373v5.24796c0 3.324 2.676023 6 6.0000504 6h72.000611c3.324028 0 6.00005-2.676 6.00005-6v-5.24796c0 3.324-2.676022 6-6.00005 6h-72.000611c-3.3240274 0-6.0000504-2.676-6.0000504-6z" opacity=".3"/><path d="m5.9985766 61.740993v5.25321c0 3.324 2.676023 6 6.0000514 6h72.000603c3.324028 0 6.00006-2.676 6.00006-6v-5.25321c0 3.324-2.676032 6-6.00006 6h-72.000603c-3.3240284 0-6.0000514-2.676-6.0000514-6z" fill="#fff" opacity=".3"/><path d="m5.9985766 56.496108v5.24796c0 3.324 2.676023 5.999999 6.0000514 5.999999h72.000611c3.32403 0 6.00005-2.675999 6.00005-5.999999v-5.24796c0 3.324-2.67602 6-6.00005 6h-72.000611c-3.3240284 0-6.0000514-2.676-6.0000514-6z" opacity=".3"/></g><g transform="matrix(.57142857393 0 0 .3696525885 -10.56832357462 -19.02741946271)"><path d="m34.744566 51.505433v21.276908c0 .830999.669 1.499999 1.499999 1.499999h3c.831001 0 1.500001-.669 1.500001-1.499999v-21.276908h-2v1.000001h-2v-1.000001z" fill="#252525"/><path d="m36.744564 52.505436h2v19.46994h-2z" fill="#4d4d4d"/><g stroke="#000" stroke-linecap="square"><rect fill="url(#m)" height="2.814449" rx=".49409" ry=".703612" stroke-opacity=".563636" stroke-width=".294808" width="2.964539" x="36.262299" y="70.153877"/><path clip-path="url(#k)" d="m66 6v41.471714c0 1.662 1.338 3 3 3h6c1.662 0 3-1.338 3-3v-41.471714h-4v2h-4v-2z" fill="none" filter="url(#l)" stroke-width="2" transform="matrix(.50000001 0 0 .50000001 1.744565 48.505434)"/><path d="m36.411677 65.145594c-.143832 0-.266578.148219-.266578.340012v2.040087c0 .191793.122748.340013.266578.340013h.533157c.143831 0 .266578-.14822.266578-.340013v-.340017h.799732c.147686 0 .266579-.151646.266579-.340013v-.68003c0-.188366-.118893-.340013-.266579-.340013h-.799732v-.340014c0-.191793-.122749-.340012-.266578-.340012z" fill="url(#t)" stroke-opacity=".563636" stroke-width=".301065"/><path d="m39.077458 67.185676c.14383 0 .266576.148223.266576.340017v2.040082c0 .191793-.122747.340015-.266576.340015h-.533157c-.143831 0-.266578-.148223-.266578-.340015v-.340012h-.799735c-.147683 0-.266576-.151646-.266576-.340014v-.68003c0-.188367.118893-.340013.266576-.340013h.799735v-.340013c0-.191794.122748-.340017.266578-.340017z" fill="url(#r)" stroke-opacity=".563636" stroke-width=".301065"/></g><path d="m34.244566 51.505433v21.871753c0 .875782.898853 1.590672 1.999999 1.590672h3c1.101148 0 2.000001-.71489 2.000001-1.590672v-21.871753h-.5v21.330312c0 .660924-.669 1.193003-1.500001 1.193003h-3c-.830999 0-1.499999-.532079-1.499999-1.193003v-21.330312z" fill="url(#n)"/><path d="m36.531437 53.113439c-.298876 0-.534671.252401-.534671.565924l-.0022 5.659252c.000009.313524.235804.565926.53468.565926h2.428458c.298875 0 .53467-.252402.53467-.565926l.0022-5.659252c0-.313523-.235796-.565924-.53467-.565924z" fill="url(#p)"/><path d="m38.851169 53.609136c.120483 0 .217478.116686.217478.261627v5.265247c0 .144942-.09699.261627-.217478.261627h-2.21556c-.120483 0-.217478-.116685-.217478-.261627v-5.265247c0-.144941.09699-.261627.217478-.261627z" fill="url(#o)"/><rect fill="url(#q)" height="2.5" rx=".281567" ry=".25" stroke="#000" stroke-linecap="square" stroke-opacity=".563636" stroke-width=".5" width="1.689404" x="36.899864" y="51.49762"/><path d="m36.480036 61.12237c-.143832 0-.266578.148219-.266578.340012v2.040087c0 .191793.122748.340013.266578.340013h.533157c.143831 0 .266578-.14822.266578-.340013v-.340017h.799732c.147686 0 .266579-.151645.266579-.340013v-.680029c0-.188366-.118893-.340013-.266579-.340013h-.799732v-.340015c0-.191793-.122749-.340012-.266578-.340012z" fill="url(#u)" stroke="#000" stroke-linecap="square" stroke-opacity=".563636" stroke-width=".301065"/><path d="m39.145817 63.162453c.14383 0 .266576.148223.266576.340016v2.040083c0 .191792-.122747.340015-.266576.340015h-.533157c-.143831 0-.266578-.148223-.266578-.340015v-.340013h-.799735c-.147683 0-.266576-.151646-.266576-.340014v-.680029c0-.188368.118893-.340014.266576-.340014h.799735v-.340013c0-.191793.122748-.340016.266578-.340016z" fill="url(#s)" stroke="#000" stroke-linecap="square" stroke-opacity=".563636" stroke-width=".301065"/></g><g fill-rule="evenodd" stroke-width=".2" transform="matrix(.69123618 0 0 .69123618 -1.38466 -2.340735)"><path d="m7.2127284 14.976391s-.5889906.272321.4196452.364215c1.2221257.110836 1.8466298.09487 3.1930014-.107286 0 0 .354691.176253.849184.328903-3.0191873 1.027522-6.8330424-.05954-4.4618306-.585832z" fill="#0074bd" stroke="#0074bd"/><path d="m6.8436071 13.635304s-.6606997.388576.3486866.471446c1.3056045.107069 2.3362784.115849 4.1207853-.156959 0 0 .24624.198692.634022.307278-3.6497974.848044-7.7149415.06672-5.1034939-.621765z" fill="#0074bd" stroke="#0074bd"/><path d="m9.9536074 11.360079c.7443146.680597-.1951703 1.292552-.1951703 1.292552s1.8888299-.774415 1.0215649-1.744649c-.8102925-.904383-1.4315215-1.3536338 1.931678-2.9029784.000034 0-5.2793893 1.0471415-2.7580726 3.3550754z" fill="#ea2d2e" stroke="#ea2d2e"/><g fill="#0074bd" stroke="#0074bd"><path d="m13.946668 15.968495s.43602.285518-.480233.506322c-1.742274.419198-7.2529267.545643-8.7835178.01677-.5498269-.190237.481734-.453913.8063014-.509602.3384181-.05816.5316438-.04753.5316438-.04753-.6119157-.34229-3.95509.672251-1.6979578.963216 6.1552844.792547 11.2201614-.356976 9.6237634-.929176z"/><path d="m7.4961876 12.245601s-2.8026948.52895-.9924654.721192c.7645791.08127 2.2878355.06257 3.7077588-.03206 1.160105-.07734 2.324338-.242755 2.324338-.242755s-.408763.13929-.704708.299717c-2.8466687.594747-8.3448699.317766-6.7617763-.290287 1.3382181-.514262 2.4268529-.455809 2.4268529-.455809z"/><path d="m12.52422 14.477928c2.893542-1.194074 1.555529-2.3417.621672-2.187126-.228364.03786-.33081.07065-.33081.07065s.08508-.105876.247093-.15143c1.847483-.515699 3.267986 1.521514-.59578 2.32834-.000034 0 .04442-.03198.05782-.06043z"/></g><path d="m10.780037 5.5027139s1.602129 1.2733933-1.5200501 3.230961c-2.5037817 1.5709161-.5708757 2.4662751-.000887 3.4897861-1.4616452-1.047467-2.5337344-1.969681-1.8146302-2.8278601 1.0559871-1.2595454 3.9818363-1.8704165 3.3355673-3.892887z" fill="#ea2d2e" stroke="#ea2d2e"/><path d="m7.7806703 17.714635c2.7768357.141024 7.0421657-.07848 7.1431107-1.122315 0 0-.194044.395703-2.295102.709674-2.370325.354486-5.2945022.313213-7.0281781.08582 0 0 .3551683.233514 2.1801694.326817z" fill="#0074bd" stroke="#0074bd"/></g></svg>