<svg height="16" width="16" xmlns="http://www.w3.org/2000/svg" xmlns:xlink="http://www.w3.org/1999/xlink"><linearGradient id="a" gradientTransform="matrix(.68673263 0 0 .69909319 -3.694973 22.217352)" gradientUnits="userSpaceOnUse" x1="32.891998" x2="36.358002" y1="8.059" y2="5.4565"><stop offset="0" stop-color="#f0f0f0"/><stop offset="1" stop-color="#b0b0b0"/></linearGradient><radialGradient id="b" cx="48" cy="90.171875" gradientTransform="matrix(.2951992 0 0 .25507295 -.170779 21.999592)" gradientUnits="userSpaceOnUse" r="42" xlink:href="#c"/><linearGradient id="c"><stop offset="0" stop-color="#fff"/><stop offset="1" stop-color="#fff" stop-opacity="0"/></linearGradient><linearGradient id="d" gradientTransform="matrix(0 -.32521809 .25507296 0 1.755283 46.951309)" gradientUnits="userSpaceOnUse" x1="7.3709" x2="23.76619" y1="51.470146" y2="51.433136"><stop offset="0" stop-color="#00499f"/><stop offset="1" stop-color="#005eb9"/></linearGradient><linearGradient id="e" gradientUnits="userSpaceOnUse" x1="248.07678816" x2="248.07678816" y1="-62.6598922" y2="-98.66515562275"><stop offset="0" stop-color="#d0d0d0"/><stop offset="1" stop-color="#f0f0f0"/></linearGradient><linearGradient id="f" gradientTransform="matrix(.4285717 0 0 .43033246 227.50536 -101.24189)" gradientUnits="userSpaceOnUse" x1="36.357143" x2="36.357143" xlink:href="#c" y1="6" y2="63.893143"/><linearGradient id="g" gradientTransform="matrix(.88394566 0 0 -.88394572 10.163169 89.361561)" gradientUnits="userSpaceOnUse" x1="32.251034" x2="32.251034" y1="6.131708" y2="90.238609"><stop offset="0"/><stop offset="1" stop-opacity=".588235"/></linearGradient><g transform="matrix(.7 0 0 .7 -1.8 -16.5)"><path d="m21.510559 84.057885h62.16399c3.34823 0 6.04372-2.727212 6.04372-6.114824v-39.038079l-29.09854-29.0985314h-39.10917c-3.34822 0-6.04372 2.7272114-6.04372 6.1148244v62.021786c0 3.387612 2.6955 6.114824 6.04372 6.114824z" fill="url(#g)" opacity=".63" transform="matrix(.30783438 0 0 .30783438 -2.189797 20.552665)"/><g transform="matrix(.59517027 0 0 .59517032 -133.64915 82.293312)"><path d="m232.64822-98.6599h19.54285l13.88572 13.885715v19.542857c0 1.424571-1.14685 2.571428-2.57143 2.571428h-30.85714c-1.42458 0-2.57143-1.146857-2.57143-2.571428v-30.857144c0-1.424571 1.14685-2.571428 2.57143-2.571428z" fill="url(#e)"/><path d="m232.64822-98.6599c-1.42457 0-2.57143 1.151568-2.57143 2.581998v.860662 28.234034c1.98322 4.185183.51348 2.977317.42857.430332v-28.09486-.860668c0-1.197119.95064-2.151664 2.14286-2.151664h.85715 17.82858.85715l13.45714 13.326778v.860667 16.919747c-1.2063 3.165148.42855 3.584963.42855-.430333v-16.919747-.860668l-13.88571-13.896278z" fill="url(#f)" opacity=".3"/></g><path d="m13.460156 23.574305c1.892484 0 .741329 8.506605.741329 8.506605s10.512399-1.113452 10.512399 2.371481c0-.848902-.002-2.614157-.002-2.614157l-8.264401-8.264365z" fill-rule="evenodd" opacity=".2" stroke-width=".568812"/><path d="m3.2857204 43.048691c0 1.081025.6825752 1.951309 1.5304381 1.951309h18.3652535c.847863 0 1.530438-.870284 1.530438-1.951309v-3.762977h-21.4261296z" fill="url(#d)"/><path d="m4.816158 45c-.8478624 0-1.5304376-.68538-1.5304376-1.536727v-.595058c.010437-3.114206.255072-3.180616.255072-.256136v.512242c0 .712489.5657905 1.280605 1.2753656 1.280605h.5101471 17.3449539.510147c.709576 0 1.275366-.568116 1.275366-1.280605v-.512242c.02504-3.471899.255078-2.283853.255078.256121v.595058c-.000006.851362-.682581 1.536742-1.530444 1.536742z" fill="url(#b)" opacity=".2"/><g fill="#19242d" transform="matrix(.50736834894 0 0 .50736839417 -90.78295528053 33.64656134367)"><g transform="matrix(1.5518856 0 0 1.5518856 189.49443 -16.145688)"><path d="m.92431641 1.2053196-.30322266.038086v1.7226563h.38671875c.1220692.0000001.2216785-.00342.2988281-.010254.077147-.00684.1303697-.013183.159668-.019043l.09082-.4086914h.095215l-.026367.5639648h-1.53955082v-.077637l.25195313-.039551v-1.7314453l-.25195313-.038086v-.077637h.83789063v.077637"/><path d="m3.2197266 2.3962375c-.0000014.2333989-.052248.412598-.1567383.5375977-.1044933.125-.2670908.1875-.487793.1875-.2070318 0-.3632816-.062012-.46875-.1860352-.1054689-.1240231-.1582032-.3037104-.1582031-.5390625-.0000001-.2324209.0527342-.4101551.1582031-.5332031.1054684-.1230455.2656245-.1845689.4804688-.1845703.2089834.0000014.3666981.060548.4731445.1816406.106444.1201183.1596666.2988291.159668.5361328m-.2636719 0c-.0000011-.0947257-.0063488-.1791983-.019043-.2534179-.0126964-.0751943-.0341807-.1381825-.0644531-.1889649-.0292979-.0517566-.0683604-.0908191-.1171875-.1171875-.048829-.0273424-.1088875-.0410143-.1801758-.0410156-.072266.0000013-.1318365.013673-.1787109.041016-.046876.026368-.083985.065431-.1113281.1171875-.027344.050782-.046387.1137706-.057129.1889649-.010743.07422-.016114.1586922-.016113.2534179-.0000004.095704.00537.1811529.016113.2563477.010742.075196.029785.1391604.057129.1918945.027343.051758.064453.091797.1113281.1201172.046874.027344.1064446.041016.1787109.041016.071288.0000001.1313468-.013672.1801758-.041016.048827-.02832.08789-.068359.1171875-.1201172.030272-.052734.051757-.1166988.064453-.1918945.012694-.075195.019042-.1606439.019043-.2563477"/><path d="m4.3066406 1.6784641v.3720703h-.062988l-.084961-.1611328c-.027345.0000012-.056641.00195-.087891.00586-.031251.00391-.062501.00928-.09375.016113-.031251.00586-.061524.013185-.09082.021973-.028321.00879-.053223.018068-.074707.027832v1.0283204l.2358399.036621v.065918h-.6533203v-.065918l.1743164-.036621v-1.171875l-.1743164-.036621v-.065918h.4013672l.013184.1713867c.02246-.018554.053222-.03955.092285-.062988.039062-.024413.081054-.047362.1259766-.068848.045898-.021483.091308-.039549.1362304-.054199.045898-.014647.086425-.021971.1215821-.021973h.021973"/><path d="m4.7167969 2.3991672v.026367c-.0000004.07129.00488.139649.014648.2050781.010742.06543.03125.1235355.061523.1743164.03125.049805.074706.089844.1303711.1201172.055663.029297.1289056.043945.2197266.043945.029296.0000002.060058-.0009764.092285-.00293.032226-.00293.064452-.00635.09668-.010254.032226-.00391.063476-.0083.09375-.013184.030272-.00488.058104-.010254.083496-.016113v.082031c-.022462.014648-.049806.028809-.082031.04248-.031251.012695-.065919.024414-.1040039.035156-.038087.010742-.078614.019043-.121582.024902-.04297.00684-.086427.010254-.1303711.010254-.1142585 0-.2109381-.015625-.2900391-.046875-.0781249-.0312477-.1416014-.0776343-.1904292-.1391579-.0488283-.0615232-.0839845-.137695-.1054687-.2285156-.0214845-.0908198-.0322267-.1953119-.0322266-.3134766-.0000001-.2402334.0502928-.4194324.1508789-.5375976.1005856-.1181627.2441401-.1772447.4306641-.1772461.073241.0000014.1416007.00977.2050781.029297.064452.019533.1206044.052247.168457.098144.047851.0459.085448.1074231.112793.1845703.028319.077149.042479.1733408.042481.2885742v.1201172h-.8466797m.3178706-.6035152c-.054688.0000013-.1020514.01172-.1420899.035156-.039063.022462-.071778.054689-.098145.09668-.025391.041993-.044434.093263-.057129.1538086-.011719.059571-.017578.1264658-.017578.2006836h.5888671c-.0000009-.074218-.0044-.1411123-.013184-.2006836-.0078125-.0605459-.0224609-.1118154-.0439444-.1538087-.0205087-.0419909-.0483407-.0742175-.0834961-.0966797-.035157-.0234362-.0795905-.0351549-.1333007-.0351562"/><path d="m6.1435547 1.8264133c.027343-.015624.05957-.032225.09668-.049805.038085-.017577.077148-.03369.1171875-.04834.040038-.014647.080566-.026366.121582-.035156.041015-.00976.079101-.014647.1142578-.014648.067382.0000014.1293935.012697.1860352.038086.057616.025392.1005847.065919.1289062.1215821.031249-.017577.068846-.035643.112793-.054199.043944-.01953.089354-.037108.1362305-.052734.04785-.015624.094725-.028319.140625-.038086.046873-.00976.088865-.014647.1259765-.014648.052733.0000014.1005841.00733.1435547.021973.042967.01465.079588.038087.1098633.070312.031248.032228.055174.07422.071777.1259765.017576.051759.026365.1142589.026367.1875v.9052735l.1772461.036621v.065918h-.6254883v-.065918l.2050782-.036621v-.8789063c-.0000017-.0810547-.0185564-.1430664-.0556639-.1860363-.0361346-.0439441-.0957048-.0659167-.1787109-.0659179-.025392.0000012-.055177.00195-.089356.00586-.033205.00391-.066896.0083-.1010742.013184-.033205.00488-.065431.010743-.09668.017578-.030275.00586-.055665.010743-.076172.014648.0166.052735.024901.1108409.024902.1743164v.9052735l.2065429.036621v.065918h-.6533203v-.065918l.2036133-.036621v-.8789063c-.0000011-.081054-.020997-.1430653-.062988-.1860352-.041017-.043944-.1030282-.065917-.1860351-.065918-.027345.0000012-.056153.00147-.086426.00439-.029298.00293-.058594.00635-.087891.010254-.028321.00391-.055665.00879-.082031.014649-.025391.00488-.046875.00928-.064453.013184v1.088379l.2065429.036621v.065918h-.6240234v-.065918l.1743164-.036621v-1.171875l-.1743164-.036621v-.065918h.402832l.011719.1113281"/><path d="m9.3032227 1.2653782c-.0000006.021486-.0044.041994-.013184.061523-.00781.018556-.019044.035158-.033691.049805-.014649.01465-.031739.026369-.05127.035156-.019532.00781-.040039.011721-.061523.011719-.021485.0000017-.041993-.0039-.061523-.011719-.018555-.00879-.035157-.020506-.049805-.035156-.014649-.014647-.026367-.031248-.035156-.049805-.00781-.019529-.011719-.040037-.011719-.061523-.0000003-.021483.00391-.04199.011719-.061524.00879-.019529.020508-.036619.035156-.051269.014648-.014647.03125-.025877.049805-.033691.019531-.00879.040039-.013182.061523-.013184.021484.000002.041992.0044.061523.013184.019531.00781.036621.019045.05127.033691.014648.01465.025878.03174.033691.051269.00879.019533.013183.040041.013184.061524m-.014648 1.7241211.2358399.036621v.065918h-.7133789v-.065918l.234375-.036621v-1.171875l-.1948243-.036621v-.065918h.4379883v1.2744141"/><path d="m9.8027344 1.8176243-.1567383-.036621v-.065918h.3867189l.0029.080566c.02051-.017577.04443-.033202.07178-.046875.02832-.014647.05859-.026854.09082-.036621.03223-.010741.06641-.019042.102539-.024902.03613-.00586.07275-.00879.109864-.00879.08594.0000014.163084.015138.231445.04541.06836.030275.126463.075685.174316.1362304.04785.059572.08398.1337902.108399.2226563.02539.087892.03808.1894539.03809.3046875-.000002.1123053-.0127.2138677-.03809.3046875-.02539.089844-.06348.1669924-.114258.2314453-.05078.063477-.114747.1123047-.191895.1464844-.07617.03418-.165528.05127-.268066.05127-.0498 0-.10254-.00293-.158203-.00879-.05469-.00488-.106934-.012695-.156738-.023437.000976.011719.002.024902.0029.039551.002.015625.0029.03125.0029.046875.000976.016601.0015.031738.0015.04541.000976.013672.0015.024902.0015.033691v.3720703l.240234.035156v.068848h-.65625v-.068848l.1743164-.035156v-1.809082m.8964846.5698242c-.000001-.099609-.0083-.1845695-.0249-.2548828-.0166-.070311-.04102-.1274404-.07324-.1713868-.03125-.044921-.06982-.077635-.115722-.098144-.0459-.020507-.09766-.03076-.155274-.030762-.04688.0000013-.09717.0044-.150879.013184-.05274.00781-.09766.019532-.134765.035156v1.1000977c.04101.00781.08642.01416.13623.019043.0498.00391.09961.00586.149414.00586.128905.0000001.222655-.053222.28125-.1596679.05859-.1074216.08789-.2602534.08789-.4584961"/><path d="m1.059082 6.6953198c-.000001.061524-.00977.1181643-.029297.1699219-.018556.050781-.0483409.094727-.0893555.1318359-.0410165.036133-.0942391.064453-.15966797.084961-.0644538.019531-.14257876.029297-.234375.029297-.0458989 0-.0913091-.00293-.13623047-.00879-.0439457-.00488-.0849613-.01123-.12304687-.019043-.0380862-.00684-.0712893-.01416-.0996094-.021973-.0283205-.00781-.0488283-.01416-.0615234-.019043v-.3383789h.065918l.0717774.1918945c.0302731.027344.0693356.050781.1171875.070312.0478511.019531.10400342.029297.16845703.029297.0908197.0000001.16064382-.019531.20947265-.058594.0498039-.040039.0747062-.1015622.074707-.1845703-.00000071-.0488259-.01025461-.0888649-.03076159-.1201154-.0205086-.032226-.04736404-.0590815-.08056641-.0805664-.03320382-.0214838-.07128971-.0390619-.11425781-.0527343-.04199276-.0146479-.08544974-.0292963-.1303711-.0439454-.04394574-.0146478-.08740273-.0312493-.13037109-.0498046-.04199249-.018554-.07959011-.0424798-.11279297-.0717774-.03320333-.0292961-.06005877-.0659171-.08056641-.1098633-.02050794-.0439444-.03076184-.0986318-.03076172-.1640625-.00000012-.062499.0112303-.1181629.0336914-.1669922.0224608-.048827.0537107-.089842.09375-.1230468.0410153-.033202.0893551-.058104.14501953-.074707.0566402-.017577.11865183-.026366.18603516-.026367.0664056.0000015.13134694.00488.19482422.014648.0634757.00879.12451082.019044.18310547.030762v.300293h-.0688477l-.0615234-.159668c-.0253914-.02246-.0600594-.03955-.1040039-.05127-.043946-.011718-.090821-.017577-.140625-.017578-.0791021.0000013-.13964889.019533-.18164063.058594-.041016.039064-.0615238.091798-.0615234.1582031-.00000034.044923.0102536.082032.0307617.1113281.0205074.028321.0473629.052735.0805664.073242.0341792.019532.0727534.036622.11572265.05127.0429681.014649.0869134.029786.13183594.04541.0449211.015626.0888664.033692.13183594.054199.0429679.019532.0810538.044923.11425781.076172.0341787.031251.0615224.069337.0820312.1142578.020507.044922.030761.1005864.030762.1669922"/><path d="m1.7211914 5.2553784c-.0000005.021486-.0044.041994-.013184.061523-.00781.018556-.019043.035158-.033691.049805-.014649.01465-.031739.026369-.051269.035156-.019532.00781-.04004.01172-.061524.011719-.021485.0000017-.041993-.0039-.061523-.011719-.018555-.00879-.035157-.020506-.049805-.035156-.014649-.014647-.026367-.031248-.035156-.049805-.00781-.019529-.011719-.040037-.011719-.061523-.0000002-.021482.00391-.04199.011719-.061523.00879-.019529.020507-.036619.035156-.05127.0146481-.0146464.0312496-.0258769.0498046-.0336914.019531-.00879.040039-.013182.061523-.013184.021484.000002.041992.0044.061524.013184.019531.00781.036621.019045.051269.033691.014648.01465.025878.03174.033691.05127.00879.019533.013183.040041.013184.061523m-.014648 1.7241211.2358398.036621v.065918h-.7133789v-.065918l.234375-.036621v-1.171875l-.1948242-.036621v-.065918h.4379883v1.2744141"/><path d="m2.4873047 7.1113354c-.09375 0-.1640628-.027832-.2109375-.083496-.045899-.055664-.068848-.1337888-.068848-.234375v-.965332h-.1801757v-.065918l.1831054-.057129.1479492-.3120117h.092285v.3120117h.3149414v.1230469h-.3149414v.9389649c-.0000005.063477.01416.1113283.04248.1435546.029296.032227.067382.04834.1142578.04834.036132.0000001.071777-.00244.1069336-.00732.036132-.00488.069335-.010254.099609-.016113v.095215c-.014649.00977-.03418.019531-.058594.029297-.023438.00977-.049805.018066-.079102.024902-.028321.00781-.058594.01416-.09082.019043-.032227.00488-.064942.00732-.098144.00732"/><path d="m4.2612305 5.6743237c.062499.0000014.1206046.00586.1743164.017578.05371.01172.1000967.03174.1391601.060059.039061.028322.069335.066896.09082.1157227.02246.047853.03369.1083995.033691.1816406v.9301758l.1713868.036621v.065918h-.3779297l-.027832-.1376953c-.014649.014648-.034669.031738-.060059.05127-.024415.019531-.0542.038086-.089355.055664-.035157.016602-.076173.030762-.1230469.04248-.045899.011719-.097168.017578-.1538086.017578-.066407 0-.1225589-.010254-.168457-.030762-.0449215-.0205076-.0810543-.0488279-.1083978-.0849607-.027344-.0371093-.0468752-.0805663-.0585938-.1303711-.0117189-.050781-.0175782-.1054684-.0175781-.1640625-.0000001-.060546.00732-.1127925.021973-.1567383.014648-.044921.035156-.082519.061523-.112793.026367-.030273.057129-.054687.092285-.073242.036132-.019531.074707-.034667.1157227-.04541.041992-.010741.085937-.018066.1318359-.021973.046874-.00391.093749-.00635.140625-.00732l.206543-.00586v-.215332c-.0000009-.041015-.00342-.078124-.010254-.1113281-.00684-.034179-.018556-.063475-.035156-.087891-.015626-.024413-.03711-.043456-.064453-.057129-.027345-.013671-.061524-.020507-.1025391-.020508-.046876.0000013-.094239.00635-.1420898.019043-.047852.012697-.089844.029298-.1259766.049805l-.049805.1713867h-.082031v-.3002929c.063476-.013671.1289059-.025389.1962891-.035156.068359-.010741.1420892-.016112.2211914-.016113m.1948242.7060547-.1918945.00586c-.057618.00195-.1074225.00781-.1494141.017578-.041993.00879-.076661.024415-.1040039.046875-.027344.022462-.047852.053223-.061523.092285-.013672.039063-.020508.088868-.020508.149414-.0000003.1718752.069824.2578127.2094727.2578125.066406.0000002.1235345-.00732.1713867-.021973.048827-.015625.097655-.035156.1464844-.058594v-.4892578"/><path d="m5.3876953 5.8164136c.027343-.015624.05957-.032225.09668-.049805.038085-.017577.077148-.03369.1171875-.04834.040038-.014647.080566-.026366.121582-.035156.041015-.00976.079101-.014647.1142578-.014648.067382.0000015.1293935.012697.1860352.038086.057616.025392.1005847.065919.1289062.121582.031249-.017577.068846-.035643.112793-.054199.043944-.01953.089354-.037108.1362305-.052734.04785-.015624.094725-.028319.140625-.038086.046873-.00976.088865-.014647.1259765-.014648.052733.0000015.1005841.00733.1435547.021973.042967.01465.079588.038087.1098633.070312.031248.032228.055174.07422.071777.1259766.017576.051759.026365.1142589.026367.1875v.9052734l.1772461.036621v.065918h-.6254882v-.065918l.2050781-.036621v-.8789062c-.0000017-.0810548-.0185563-.1430664-.0556639-.1860363-.0361346-.0439441-.0957048-.0659167-.1787109-.065918-.025392.0000013-.055177.00195-.089355.00586-.033205.00391-.066896.0083-.1010742.013184-.033205.00488-.065431.010743-.09668.017578-.030275.00586-.055665.010743-.076172.014648.0166.052735.024901.1108409.024902.1743164v.9052734l.2065429.036621v.065918h-.6533203v-.065918l.2036133-.036621v-.8789062c-.000001-.081054-.020997-.1430653-.062988-.1860352-.041016-.043944-.1030282-.065917-.1860351-.065918-.027344.0000013-.056153.00147-.086426.00439-.029298.00293-.058594.00635-.087891.010254-.028321.00391-.055665.00879-.082031.014648-.025391.00488-.046875.00928-.064453.013184v1.0883789l.206543.036621v.065918h-.6240235v-.065918l.1743164-.036621v-1.171875l-.1743164-.036621v-.065918h.4028321l.011719.1113282"/><path d="m7.6230469 6.3891675v.026367c-.0000004.07129.00488.1396489.014648.2050781.010742.06543.03125.1235355.061523.1743164.03125.049805.074706.089844.1303711.1201172.055663.029297.1289056.043945.2197266.043945.029296.0000001.060058-.0009764.092285-.00293.032226-.00293.064452-.00635.09668-.010254.032225-.00391.063475-.0083.09375-.013184.030272-.00488.058104-.010254.083496-.016113v.082031c-.022462.014648-.049806.028809-.082031.04248-.031251.012695-.065919.024414-.1040039.035156-.038087.010742-.078614.019043-.121582.024902-.04297.00684-.086427.010254-.1303711.010254-.1142585 0-.2109381-.015625-.2900391-.046875-.0781249-.0312477-.1416014-.0776344-.1904292-.1391579-.0488283-.0615232-.0839845-.137695-.1054687-.2285156-.0214845-.0908199-.0322267-.195312-.0322266-.3134766-.0000001-.2402334.0502928-.4194325.1508789-.5375977.1005856-.1181627.2441401-.1772446.4306641-.1772461.073241.0000015.1416007.00977.2050781.029297.064452.019533.1206044.052247.168457.098145.047851.0459.085448.107423.112793.1845703.028319.077149.042479.1733407.04248.2885742v.1201172h-.8466797m.3178716-.6035162c-.054688.0000013-.1020514.01172-.1420899.035156-.039063.022462-.071778.054689-.098145.09668-.025391.041993-.044434.093263-.057129.1538086-.011719.059571-.017578.1264657-.017578.2006836h.5888672c-.000001-.074218-.0044-.1411124-.013184-.2006836-.00781-.060546-.022462-.1118153-.043945-.1538086-.020509-.041991-.048341-.074217-.083496-.09668-.035157-.023436-.079591-.035155-.1333008-.035156"/><path d="m9.0615234 7.1113354c-.09375 0-.1640628-.027832-.2109375-.083496-.045899-.055664-.068848-.1337888-.068848-.234375v-.965332h-.1801758v-.065918l.1831055-.057129.1479492-.3120117h.092285v.3120117h.3149415v.1230469h-.3149415v.9389649c-.0000004.063477.01416.1113283.04248.1435546.029296.032227.067382.04834.1142578.04834.036132.0000001.071777-.00244.1069336-.00732.036132-.00488.069335-.010254.099609-.016113v.095215c-.014649.00977-.03418.019531-.058594.029297-.023438.00977-.049805.018066-.079102.024902-.028321.00781-.058594.01416-.09082.019043-.032227.00488-.064942.00732-.098145.00732"/><path d="m9.965332 7.0102612c-.0000005.057617-.0083.1132812-.024902.1669922-.015625.054687-.041504.1049803-.077637.1508789-.035157.045898-.081055.087402-.1376953.1245117-.056641.037109-.1254885.067382-.206543.09082v-.1127929c.088867-.028321.1538083-.062989.1948242-.1040039.041992-.041016.062988-.088379.062988-.1420899-.0000004-.017578-.00488-.032715-.014648-.04541-.00977-.011719-.021973-.022461-.036621-.032227-.014649-.00879-.030762-.017578-.04834-.026367-.016602-.00879-.032227-.019043-.046875-.030762-.014649-.012695-.026856-.027832-.036621-.04541-.00977-.018555-.014649-.041504-.014648-.068848-.0000002-.052734.016601-.092773.049805-.1201172.033203-.02832.075683-.04248.1274414-.04248.027343.0000003.05371.00537.079102.016113.02539.00977.047363.024903.065918.04541.019531.019531.035156.044434.046875.074707.011718.029297.017578.062988.017578.1010742"/><path d="m12.272461 5.8017651-.552246 1.3095703h-.108399l-.566894-1.3037109-.140625-.036621v-.065918h.641601v.065918l-.218261.039551.401367.9506836.383789-.9536133-.218262-.036621v-.065918h.509766v.065918l-.131836.030762"/><path d="m12.785156 6.3891675v.026367c0 .07129.0049.1396489.01465.2050781.01074.06543.03125.1235355.06152.1743164.03125.049805.07471.089844.130371.1201172.05566.029297.128906.043945.219727.043945.0293.0000001.06006-.0009764.09229-.00293.03223-.00293.06445-.00635.09668-.010254.03222-.00391.06347-.0083.09375-.013184.03027-.00488.0581-.010254.0835-.016113v.082031c-.02246.014648-.04981.028809-.08203.04248-.03125.012695-.06592.024414-.104003.035156-.03809.010742-.07862.019043-.121582.024902-.04297.00684-.08643.010254-.130372.010254-.114258 0-.210938-.015625-.290039-.046875-.07813-.03125-.141601-.077637-.190429-.1391601-.04883-.061523-.08398-.137695-.105469-.2285156-.02149-.09082-.03223-.195312-.03223-.3134766 0-.2402334.05029-.4194325.150879-.5375977.100586-.1181627.24414-.1772446.430664-.1772461.07324.0000015.141601.00977.205078.029297.06445.019533.120605.052247.168458.098145.04785.0459.08545.107423.112792.1845703.02832.077149.04248.1733407.04248.2885742v.1201172h-.84668m.317871-.6035157c-.05469.0000013-.102051.01172-.142089.035156-.03906.022462-.07178.054689-.09815.09668-.02539.041993-.04443.093263-.05713.1538086-.01172.059571-.01758.1264657-.01758.2006836h.588867c-.000001-.074218-.0044-.1411124-.01318-.2006836-.0078-.060546-.02246-.1118153-.04395-.1538086-.02051-.041991-.04834-.074217-.0835-.09668-.03516-.023436-.07959-.035155-.133301-.035156"/><path d="m14.793457 6.6953198c-.000001.061524-.0098.1181643-.0293.1699219-.01856.050781-.04834.094727-.08936.1318359-.04102.036133-.09424.064453-.159668.084961-.06445.019531-.142579.029297-.234375.029297-.0459 0-.09131-.00293-.136231-.00879-.04395-.00488-.08496-.01123-.123047-.019043-.03809-.00684-.07129-.01416-.09961-.021973-.02832-.00781-.04883-.01416-.06152-.019043v-.3383789h.06592l.07178.1918945c.03027.027344.06934.050781.117187.070312.04785.019531.104004.029297.168457.029297.09082.0000001.160644-.019531.209473-.058594.0498-.040039.07471-.1015622.07471-.1845703-.000001-.048828-.01026-.088867-.03076-.1201172-.02051-.032226-.04736-.059082-.08057-.080566-.0332-.021484-.07129-.039062-.114258-.052734-.04199-.014648-.08545-.029296-.130371-.043945-.04395-.014648-.0874-.031249-.130371-.049805-.04199-.018554-.07959-.04248-.112793-.071777-.0332-.029296-.06006-.065917-.08057-.1098633-.02051-.043944-.03076-.098632-.03076-.1640625 0-.062499.01123-.1181629.03369-.1669922.02246-.048827.05371-.089842.09375-.1230468.04102-.033202.08935-.058104.14502-.074707.05664-.017577.118652-.026366.186035-.026367.06641.0000015.131347.00488.194824.014648.06348.00879.124511.019044.183106.030762v.300293h-.06885l-.06152-.159668c-.02539-.02246-.06006-.03955-.104004-.05127-.04395-.011718-.09082-.017577-.140625-.017578-.0791.0000013-.139649.019533-.181641.058594-.04102.039064-.06152.091798-.06152.1582031-.000001.044923.01025.082032.03076.1113281.02051.028321.04736.052735.08057.073242.03418.019532.07275.036622.115722.05127.04297.014649.08691.029786.131836.04541.04492.015626.08887.033692.131836.054199.04297.019532.08105.044923.114258.076172.03418.031251.06152.069337.08203.1142578.02051.044922.03076.1005864.03076.1669922"/><path d="m15.389648 7.1113354c-.09375 0-.164062-.027832-.210937-.083496-.0459-.055664-.06885-.1337888-.06885-.234375v-.965332h-.180175v-.065918l.183105-.057129.147949-.3120117h.09229v.3120117h.314942v.1230469h-.314942v.9389649c0 .063477.01416.1113283.04248.1435546.0293.032227.06738.04834.114258.04834.03613.0000001.07178-.00244.106933-.00732.03613-.00488.06933-.010254.09961-.016113v.095215c-.01465.00977-.03418.019531-.05859.029297-.02344.00977-.04981.018066-.0791.024902-.02832.00781-.05859.01416-.09082.019043-.03223.00488-.06494.00732-.09815.00732"/><path d="m1.2392578 10.988543c-.025392.01855-.055665.03516-.09082.0498-.035157.01367-.072755.0249-.112793.03369-.04004.0098-.0820322.01709-.12597653.02197-.0429696.0049-.0849618.0073-.12597656.0073-.11914129 0-.22119197-.01611-.30615235-.04834-.0839848-.0332-.15283235-.08106-.20654297-.143555-.0537112-.0625-.0932619-.138671-.11865234-.228515-.0253907-.09082-.038086-.193359-.0380859-.307618-.00000011-.124999.0161132-.232421.0483399-.322265.0332029-.09082.0791013-.1650382.13769531-.2226565.0585934-.058593.12792926-.1015612.20800781-.1289063.0810541-.027342.16943292-.041014.26513672-.041016.0791007.0000014.15576079.00488.22998051.014648.074218.00879.1416004.019044.2021484.030762v.3837898h-.080566l-.062988-.2431648c-.0361349-.020473-.08008019-.0370746-.13183702-.0497711-.05078213-.0126941-.10400473-.0190417-.15966797-.019043-.0634773.0000013-.11962955.01172-.16845703.035156-.0478521.022462-.0888677.058107-.12304687.1069336-.0332036.048829-.0585942.1108413-.0761719.1860353-.016602.0752-.0249027.16504-.0249023.269531-.00000038.08789.007324.167481.0219727.23877.014648.07031.0405269.130371.0776367.180176.0371089.04981.0869135.08838.14941406.115722.0634759.02734.14355392.04102.24023438.04102.0332022 0 .0668936-.000977.10107422-.0029.0351553-.0029.0688466-.0063.10107413-.01025.033202-.0049.063964-.01025.092285-.01611.029296-.0059.055175-.01221.077637-.01904v.08789"/><path d="m2.7158203 10.376238c-.0000014.233399-.052247.412598-.1567383.537598-.1044933.125-.2670908.1875-.4877929.1875-.2070318 0-.3632817-.06201-.46875-.186035-.105469-.124024-.1582033-.303711-.1582032-.539063-.0000001-.232421.052734-.4101551.1582032-.5332031.1054683-.1230455.2656244-.1845689.4804687-.1845703.2089834.0000014.3666981.060548.4731445.1816406.106444.1201183.1596666.2988288.159668.5361328m-.2636719 0c-.0000011-.094726-.0063487-.179198-.0190429-.253418-.0126964-.075194-.0341808-.1381824-.0644532-.1889648-.0292978-.0517566-.0683603-.0908191-.1171875-.1171875-.048829-.0273424-.1088875-.0410143-.1801757-.0410156-.072266.0000013-.1318366.013673-.178711.041016-.046875.026368-.083985.065431-.1113281.1171875-.027344.050782-.046387.1137704-.057129.1889644-.010743.07422-.016114.158692-.016113.253418-.0000004.0957.00537.181153.016113.256348.010742.0752.029785.13916.057129.191894.027343.05176.064453.0918.1113281.120117.046874.02734.1064447.04102.178711.04102.071288 0 .1313467-.01367.1801757-.04102.048827-.02832.08789-.06836.1171875-.120117.030272-.05273.051757-.116699.064453-.191894.012694-.07519.019042-.160644.019043-.256348"/><path d="m3.3046875 9.8064138c.027343-.015624.05957-.032225.09668-.049805.038085-.017577.077636-.03369.1186523-.04834.041015-.014647.082031-.026366.1230469-.035156.041015-.00976.079101-.014647.1142578-.014648.052733.0000014.1010732.00733.1450196.021973.043944.01465.081542.038087.1127929.070312.032225.032228.057128.07422.074707.1259766.018553.051759.027831.1142589.027832.1874996v.905274l.1669922.03662v.06592h-.5932617v-.06592l.1831054-.03662v-.878907c-.000001-.08105-.02002-.1445295-.060059-.1904291-.039063-.046874-.1000985-.070311-.1831054-.070312-.027345.0000013-.056153.00147-.086426.00439-.030274.00293-.060059.00635-.089355.010254-.029297.00391-.057129.00879-.083496.014648-.025391.00488-.046876.00928-.064453.013184v1.0971681l.1860351.03662v.06592h-.5947265v-.06592l.1655273-.03662v-1.1718752l-.1655273-.036621v-.065918h.3925781l.013184.1113281"/><path d="m5.3891602 10.68532c-.0000011.06152-.00977.118164-.029297.169922-.018556.05078-.048341.09473-.089355.131836-.041016.03613-.094239.06445-.159668.08496-.064454.01953-.1425787.0293-.234375.0293-.045899 0-.091309-.0029-.1362304-.0088-.043946-.0049-.084961-.01123-.1230469-.01904-.038086-.0068-.071289-.01416-.099609-.02197-.02832-.0078-.048828-.01416-.061523-.01904v-.338379h.065918l.071777.191895c.030273.02734.069336.05078.1171875.07031.047851.01953.1040034.0293.168457.0293.09082 0 .1606439-.01953.2094727-.05859.049804-.04004.074706-.101562.074707-.18457-.0000008-.04883-.010255-.08887-.030762-.120117-.020509-.03223-.047364-.05908-.080566-.08057-.033204-.02148-.07129-.03906-.1142578-.05273-.041993-.01465-.08545-.0293-.1303711-.04395-.043946-.01465-.087403-.03125-.1303711-.0498-.041992-.01855-.07959-.04248-.112793-.07178s-.060059-.06592-.080566-.109864c-.020508-.04394-.030762-.09863-.030762-.164062-.0000001-.062499.01123-.118163.033691-.1669923.022461-.048827.053711-.089842.09375-.1230469.041015-.033202.089355-.058104.1450195-.074707.05664-.017577.1186519-.026366.1860352-.026367.066406.0000014.1313469.00488.1948242.014648.063476.00879.1245108.019044.1831055.030762v.3002932h-.068848l-.061523-.1596682c-.025391-.02246-.060059-.039549-.1040039-.05127-.043946-.011717-.090821-.017577-.140625-.017578-.079102.0000013-.1396489.019533-.1816406.058594-.041016.039064-.061524.091798-.061523.1582032-.0000003.044923.010254.082032.030762.111328.020508.02832.047363.05274.080566.07324.034179.01953.072753.03662.1157227.05127.042968.01465.086913.02979.1318359.04541.044921.01563.088866.03369.131836.0542.042968.01953.081054.04492.1142578.07617.034179.03125.061522.06934.082031.114258.020507.04492.030761.100586.030762.166992"/><path d="m5.8769531 10.379168v.02637c-.0000004.07129.00488.139649.014649.205078.010742.06543.031249.123536.061523.174316.03125.0498.074706.08984.1303711.120118.055663.0293.1289055.04395.2197266.04395.029296 0 .060058-.000977.092285-.0029.032226-.0029.064452-.0063.09668-.01025.032226-.0039.063476-.0083.09375-.01318.030272-.0049.058104-.01025.083496-.01611v.08203c-.022462.01465-.049806.02881-.082031.04248-.031251.0127-.065919.02441-.1040039.03516-.038087.01074-.078614.01904-.121582.0249-.04297.0068-.086427.01025-.1303711.01025-.1142584 0-.210938-.01563-.2900391-.04687-.078125-.03125-.1416018-.07764-.1904296-.13916-.048828-.06152-.083985-.137695-.1054688-.228516-.021484-.09082-.032227-.195312-.032227-.313477-.0000001-.240233.050293-.4194321.150879-.5375973.1005855-.1181627.2441401-.1772447.430664-.1772461.073241.0000014.1416007.00977.2050781.029297.064452.019533.1206045.052247.1684571.098145.04785.0459.085448.1074231.1127929.1845703.028319.07715.042479.1733411.04248.2885751v.120117h-.8466797m.3178715-.6035659c-.054688.0000013-.1020514.01172-.1420898.035156-.039063.022462-.071778.054689-.098145.09668-.025391.041993-.044434.093263-.057129.1538089-.011719.05957-.017578.126465-.017578.200683h.5888672c-.000001-.07422-.0044-.141112-.013184-.200683-.0078126-.060546-.0224611-.1118157-.0439445-.153809-.0205087-.0419909-.0483407-.0742175-.0834961-.0966797-.035157-.0234362-.0795906-.0351549-.1333008-.0351562"/><path d="m8.0654297 10.988543c-.025392.01855-.055665.03516-.09082.0498-.035157.01367-.072755.0249-.112793.03369-.04004.0098-.082032.01709-.1259766.02197-.04297.0049-.084962.0073-.1259765.0073-.1191413 0-.221192-.01611-.3061524-.04834-.083985-.0332-.1528323-.08106-.2065429-.143555-.053711-.0625-.093262-.138671-.1186524-.228515-.025391-.09082-.038086-.193359-.038086-.307618-.0000001-.124999.016113-.232421.04834-.322265.033203-.09082.079101-.1650382.1376953-.2226565.058593-.058593.1279293-.1015612.2080079-.1289063.081054-.027342.1694329-.041014.2651367-.041016.079101.0000014.1557608.00488.2299804.014648.074218.00879.1416005.019044.2021485.030762v.3837898h-.080566l-.062988-.2431648c-.036135-.020473-.08008-.037075-.131837-.049771-.050782-.012694-.1040048-.019042-.159668-.019043-.063477.0000013-.1196296.01172-.168457.035156-.047852.022462-.088868.058107-.1230469.1069336-.033204.048829-.058594.1108412-.076172.1860352-.016602.0752-.024903.16504-.024902.269531-.0000004.08789.00732.167481.021973.23877.014648.07031.040527.130371.077637.180176.037109.04981.086914.08838.1494141.115722.063476.02734.1435539.04102.2402344.04102.033202 0 .066894-.000977.1010742-.0029.035155-.0029.068847-.0063.1010742-.01025.033202-.0049.063964-.01025.092285-.01611.029296-.0059.055174-.01221.077637-.01904v.08789"/><path d="m8.6455078 11.101336c-.09375 0-.1640628-.02783-.2109375-.0835-.045899-.05566-.068848-.133789-.068848-.234375v-.9653324h-.1801758v-.065918l.1831054-.057129.1479493-.3120117h.092285v.3120117h.3149414v.1230469h-.3149414v.9389645c-.0000004.06348.01416.111329.04248.143555.029296.03223.067382.04834.1142578.04834.036132 0 .071777-.0024.1069336-.0073.036132-.0049.069335-.01025.099609-.01611v.09521c-.014649.0098-.03418.01953-.058594.0293-.023438.0098-.049805.01807-.079102.0249-.028321.0078-.058594.01416-.09082.01904-.032227.0049-.064942.0073-.098145.0073"/><path d="m9.3691406 10.379168v.02637c-.0000004.07129.00488.139649.014648.205078.010742.06543.03125.123536.061523.174316.031249.0498.074706.08984.1303711.120118.055663.0293.1289055.04395.2197266.04395.029296 0 .060058-.000977.092285-.0029.032226-.0029.064452-.0063.09668-.01025.032226-.0039.063476-.0083.09375-.01318.03027-.0049.0581-.01025.0835-.01611v.08203c-.02246.01465-.04981.02881-.08203.04248-.03125.0127-.06592.02441-.103945.03516-.038087.01074-.078614.01904-.121582.0249-.04297.0068-.086427.01025-.1303711.01025-.1142584 0-.210938-.01563-.290039-.04687-.0781835-.03125-.1416604-.07764-.1904882-.13916-.048828-.06152-.083985-.137695-.1054688-.228516-.021485-.09082-.032227-.195312-.032227-.313477-.0000002-.240233.050293-.4194321.1508789-.5375973.1005849-.1181627.2441395-.1772447.4306634-.1772461.073241.0000014.1416007.00977.2050781.029297.064452.019533.1206044.052247.1684574.098145.04785.0459.08545.1074231.112793.1845703.02832.07715.04248.1733411.04248.2885751v.120117h-.8466796m.3178673-.6035659c-.054688.0000013-.1020514.01172-.1420898.035156-.039063.022462-.071778.054689-.098145.09668-.025391.041993-.044434.093263-.057129.1538089-.011719.05957-.017579.126465-.017578.200683h.5888672c-.000001-.07422-.0044-.141112-.013184-.200683-.00781-.06055-.022462-.1118156-.043945-.1538089-.020509-.041991-.048341-.074218-.083496-.09668-.035157-.023436-.079591-.035155-.1333008-.035156"/><path d="m10.807617 11.101336c-.09375 0-.164063-.02783-.210937-.0835-.0459-.05566-.06885-.133789-.06885-.234375v-.9653324h-.180176v-.065918l.183106-.057129.147949-.3120117h.09229v.3120117h.314942v.1230469h-.314942v.9389645c0 .06348.01416.111329.04248.143555.0293.03223.06738.04834.114257.04834.03613 0 .07178-.0024.106934-.0073.03613-.0049.06934-.01025.09961-.01611v.09521c-.01465.0098-.03418.01953-.05859.0293-.02344.0098-.04981.01807-.0791.0249-.02832.0078-.05859.01416-.09082.01904-.03223.0049-.06494.0073-.09814.0073"/><path d="m11.608887 10.679461c-.000001.08106.01807.143555.0542.1875.03711.04297.09717.06445.180176.06445.05469 0 .111327-.0034.169922-.01025.05859-.0078.115233-.01953.169921-.03516v-1.0883793l-.208007-.036621v-.065918h.449707v1.2744143l.174316.03662v.06592h-.401367l-.01172-.111328c-.02832.01563-.06201.03174-.101074.04834-.03906.0166-.08008.03174-.123047.04541-.04199.01367-.08447.0249-.127441.03369-.04297.0088-.08203.01318-.117188.01318-.05274 0-.100586-.0073-.143555-.02197-.04297-.01465-.08008-.03809-.111328-.07031-.03027-.03223-.0542-.07373-.07178-.124512-.0166-.05176-.0249-.114258-.0249-.1875v-.8994143l-.175782-.036621v-.065918h.418946v.9843753"/><path d="m13.03125 10.379168v.02637c0 .07129.0049.139649.01465.205078.01074.06543.03125.123536.06152.174316.03125.0498.07471.08984.130371.120118.05566.0293.128906.04395.219727.04395.0293 0 .06006-.000977.09228-.0029.03223-.0029.06445-.0063.09668-.01025.03223-.0039.06348-.0083.09375-.01318.03027-.0049.05811-.01025.0835-.01611v.08203c-.02246.01465-.0498.02881-.08203.04248-.03125.0127-.06592.02441-.104004.03516-.03809.01074-.07861.01904-.121582.0249-.04297.0068-.08643.01025-.130371.01025-.114258 0-.210938-.01563-.290039-.04687-.07813-.03125-.141602-.07764-.19043-.13916-.04883-.06152-.08398-.137695-.105468-.228516-.02148-.09082-.03223-.195312-.03223-.313477 0-.240233.05029-.4194321.150879-.5375973.100586-.1181627.24414-.1772447.430664-.1772461.07324.0000014.141601.00977.205078.029297.06445.019533.120605.052247.168457.098145.04785.0459.08545.1074231.112793.1845703.02832.07715.04248.1733411.04248.2885751v.120117h-.84668m.317871-.6035163c-.05469.0000013-.102051.01172-.14209.035156-.03906.022462-.07178.054689-.09814.09668-.02539.041993-.04443.093263-.05713.1538093-.01172.05957-.01758.126465-.01758.200683h.588867c-.000001-.07422-.0044-.141112-.01318-.200683-.0078-.06055-.02246-.111816-.04395-.1538093-.02051-.041991-.04834-.074218-.0835-.09668-.03516-.023436-.07959-.035155-.133301-.035156"/><path d="m14.953125 9.6584646v.3720704h-.06299l-.08496-.1611329c-.02734.0000012-.05664.00195-.08789.00586s-.0625.00928-.09375.016113c-.03125.00586-.06152.013185-.09082.021973-.02832.00879-.05322.018068-.07471.027832v1.0283209l.23584.03662v.06592h-.653321v-.06592l.174317-.03662v-1.1718756l-.174317-.036621v-.065918h.401368l.01318.1713867c.02246-.018553.05322-.039549.09229-.062988.03906-.024413.08105-.047362.125977-.068848.0459-.021483.09131-.039549.13623-.054199.0459-.014647.08642-.021971.121582-.021973h.02197"/><path d="m16.190918 10.679461c0 .08106.01807.143555.0542.1875.03711.04297.09717.06445.180176.06445.05469 0 .111327-.0034.169922-.01025.05859-.0078.115233-.01953.169922-.03516v-1.0883793l-.208008-.036621v-.065918h.449707v1.2744143l.174316.03662v.06592h-.401367l-.01172-.111328c-.02832.01563-.06201.03174-.101074.04834-.03906.0166-.08008.03174-.123047.04541-.04199.01367-.08447.0249-.127441.03369-.04297.0088-.08203.01318-.117188.01318-.05273 0-.100586-.0073-.143554-.02197-.04297-.01465-.08008-.03809-.111328-.07031-.03027-.03223-.0542-.07373-.07178-.124512-.0166-.05176-.0249-.114258-.0249-.1875v-.8994143l-.175781-.036621v-.065918h.418945v.9843753"/><path d="m18.205078 9.6584646v.3720704h-.06299l-.08496-.1611329c-.02735.0000012-.05664.00195-.08789.00586s-.0625.00928-.09375.016113c-.03125.00586-.06152.013185-.09082.021973-.02832.00879-.05322.018068-.07471.027832v1.0283209l.23584.03662v.06592h-.653321v-.06592l.174317-.03662v-1.1718756l-.174317-.036621v-.065918h.401368l.01318.1713867c.02246-.018553.05322-.039549.09229-.062988.03906-.024413.08105-.047362.125977-.068848.0459-.021483.09131-.039549.13623-.054199.0459-.014647.08642-.021971.121582-.021973h.02197"/><path d="m18.708984 9.8064138c.02734-.015624.05957-.032225.09668-.049805.03808-.017577.07764-.03369.118652-.04834.04101-.014647.08203-.026366.123047-.035156.04101-.00976.0791-.014647.114258-.014648.05273.0000014.101073.00733.14502.021973.04394.01465.08154.038087.112793.070312.03223.032228.05713.07422.07471.1259766.01855.051759.02783.1142589.02783.1874996v.905274l.166992.03662v.06592h-.593262v-.06592l.183106-.03662v-.878907c-.000001-.08105-.02002-.1445295-.06006-.1904291-.03906-.046874-.100099-.070311-.183105-.070312-.02735.0000013-.05615.00147-.08643.00439-.03027.00293-.06006.00635-.08936.010254-.0293.00391-.05713.00879-.0835.014648-.02539.00488-.04687.00928-.06445.013184v1.0971681l.186035.03662v.06592h-.594726v-.06592l.165527-.03662v-1.1718752l-.165527-.036621v-.065918h.392578l.01318.1113281"/></g><g stroke-width="1.535243"><path d="m191.00963 5.8296171-.46552.058471v2.6446956h.5937c.18741.0000002.34034-.00524.45878-.015742.11852-.010501.20015-.020239.24514-.029235l.13939-.6274404h.14616l-.0405.8658226h-2.36359v-.119192l.38681-.060721v-2.658189l-.3867-.058471v-.1191919h1.28636v.1191917"/><path d="m194.53365 7.6579653c0 .3583239-.0803.633438-.24063.825343-.16042.1919056-.41006.2878576-.74888.2878576-.31786 0-.55774-.0952-.71965-.2856088-.16192-.1904056-.24289-.4662692-.24289-.8275918 0-.3568225.0809-.6296876.24289-.8185962.16191-.1889047.4078-.2833581.73762-.2833603.32085.0000022.56298.092955.72641.2788624.16341.1844108.24513.4587753.24513.8230941m-.4048 0c-.00001-.1454275-.009-.2751129-.0292-.389058-.0195-.115441-.0526-.2121437-.0991-.2901071-.045-.07946-.10501-.1394291-.17992-.1799111-.0749-.041976-.16718-.062966-.27662-.06297-.111.0000019-.20239.020991-.27437.06297-.0719.040481-.12896.1004525-.17091.1799111-.0419.077963-.0713.1746655-.0877.2901071-.0164.1139457-.0247.2436311-.0247.389058 0 .1469289.008.2781137.0247.393556.0164.115444.0457.213645.0877.2946046.0419.079461.0988.1409307.17091.1844091.0721.041979.16342.06297.27437.06297.10941 0 .20166-.02099.27662-.06297.0749-.043478.13495-.1049481.17992-.1844091.0465-.08096.0796-.179161.0991-.2946046.0195-.1154427.0292-.2466275.0292-.393556"/><path d="m196.20232 6.5560088v.5712183h-.0968l-.13049-.247378c-.0421.0000019-.0869.003-.13494.00899-.0479.00601-.096.014247-.14386.024738-.0479.00899-.0944.020242-.1394.033734-.0434.013494-.0816.027739-.11468.042729v1.5787223l.36207.056222v.1012h-1.00286v-.101201l.2675-.056221v-1.7991078l-.26762-.056222v-.1012006h.61619l.0203.2631203c.0346-.028485.0816-.060719.14171-.096702.0601-.037479.12451-.072712.19341-.1056984.0705-.032982.14016-.060717.20914-.083209.0705-.022487.13265-.033731.18665-.033734h.0338"/><path d="m196.83201 7.6624631v.04048c0 .1094469.008.214395.0224.3148446.0164.1004514.0479.189657.0944.267618.0479.076463.11469.1379323.20015.1844091.0855.044978.19789.067466.33734.067466.045.0000004.0922-.0015.1417-.0045.0495-.0045.0988-.00975.14847-.015742.0495-.00601.0975-.012743.14384-.020241.0465-.00749.0892-.015742.1282-.024738v.1259371c-.0346.02249-.0765.04423-.1259.06522-.0479.01949-.10115.03748-.15968.05397-.0585.01649-.12066.02923-.18665.03823-.066.0105-.13264.01574-.20015.01574-.17542 0-.32385-.02399-.44528-.07196-.1199-.04797-.21738-.1191867-.29235-.2136408-.0749-.094453-.12897-.2113953-.16192-.350827-.0331-.1394307-.0495-.2998511-.0495-.4812626 0-.3688165.0772-.6439305.23165-.8253429.15442-.1814084.3748-.2721135.66116-.2721157.11238.0000022.21741.015.31485.044977.0988.029988.18516.080212.25862.1506749.0734.070468.13127.1649205.17317.2833603.0434.1184424.0652.2661201.0652.4430314v.184409h-1.29985m.48801-.9265423c-.084.000002-.15668.017993-.21815.053973-.06.034485-.11023.083961-.15061.1484273-.039.064469-.0682.1431813-.0877.2361335-.018.091456-.027.1941557-.027.308098h.90405c0-.1139425-.007-.2166416-.0203-.308098-.0123-.092953-.0346-.1716637-.0674-.2361337-.0315-.064466-.0742-.1139427-.12819-.1484272-.054-.03598-.12221-.053972-.20465-.053973"/><path d="m199.02244 6.7831468c.0419-.023986.0914-.049473.14845-.076463.0585-.026985.11853-.051722.1799-.074214.0614-.022487.12375-.040478.18667-.053973.0629-.014984.12143-.022487.17541-.022488.10346.0000021.19865.019493.28561.058471.0885.038982.15441.1012017.19789.186658.0479-.026985.10578-.05472.17318-.083209.0674-.029984.1371-.05697.20914-.08096.0734-.023986.14539-.043477.21589-.058471.0721-.014984.13649-.022487.19342-.022488.0809.0000022.15441.011253.22038.033734.066.022491.12221.058473.16867.1079462.0479.049478.0847.1139458.11023.1934046.027.079462.0405.1754151.0405.287858v1.3898146l.2721.056222v.101201h-.96022v-.101199l.31484-.056222v-1.3493358c0-.1244392-.0285-.2196418-.0855-.2856109-.0554-.067465-.14693-.1011985-.27437-.1012007-.039.0000019-.0847.003-.13724.00899-.051.00601-.10269.012743-.15518.020241-.051.00749-.10037.016494-.14845.026987-.0465.00899-.0855.016494-.11698.022489.0255.080961.0382.1701677.0382.267618v1.3898145l.31709.056222v.101202h-1.003v-.1011964l.31259-.056222v-1.3493345c0-.1244375-.0323-.21964-.0967-.2856092-.0629-.067465-.15818-.1011984-.28561-.1012006-.0419.0000018-.0863.00226-.13264.00674-.045.0045-.0899.00975-.13494.015742-.0434.00601-.0855.013494-.1259.02249-.039.00749-.072.014247-.0988.020241v1.670926l.31709.056222v.101199h-.95808v-.101196l.26763-.056222v-1.7991157l-.26763-.056222v-.1012006h.61846l.018.1709155"/><path d="m205.84452 5.9218217c0 .032986-.007.064472-.0203.094453-.0122.028488-.0292.053976-.0518.076463-.0226.022491-.0487.040483-.0788.053973-.03.01199-.0614.017994-.0944.017992-.0331.0000026-.0645-.00598-.0944-.017992-.0285-.013494-.054-.031482-.0765-.053973-.0226-.022487-.0405-.047973-.054-.076463-.0122-.029981-.018-.061467-.018-.094453 0-.032982.007-.064465.018-.094454.0138-.029981.0315-.056219.054-.078711.0224-.022487.0479-.039727.0765-.051724.03-.013494.0614-.020238.0944-.020241.0329.0000031.0645.00675.0944.020241.03.01199.0562.029239.0788.051724.0226.022491.0398.048728.0518.078711.0138.029988.0203.061472.0203.094454m-.0226 2.6469445.36207.056222v.1012h-1.09521v-.1012l.35981-.056222v-1.7991127l-.2991-.056222v-.1012006h.67243v1.9565351"/><path d="m206.61139 6.7696535-.24064-.056222v-.1012006h.59371l.004.1236885c.0315-.026985.0682-.050973.11023-.071964.0434-.022487.0899-.041227.13941-.056222.0495-.01649.10192-.029234.15742-.038231.0554-.00899.1116-.013494.16866-.013494.13188.000002.25038.02324.35533.069715.10501.046479.19415.1161949.26761.2091467.0735.091458.12896.2054005.16641.3418316.039.1349356.0585.2908577.0585.4677693 0 .1724158-.0195.3283387-.0585.4677692-.039.1379324-.0975.2563739-.17541.3553247-.078.097452-.17615.172415-.29459.224889-.11699.05247-.25413.07871-.41156.07871-.0765 0-.15743-.0045-.24288-.01349-.084-.0075-.16416-.01949-.24063-.03598.001.01799.003.03823.004.06072.003.02399.004.04798.004.07196.001.02549.001.04872.001.06971.001.02099.003.03823.003.05172v.571217l.36884.05397v.105699h-1.00751v-.105699l.26715-.05397v-2.7773694m1.37632.8748185c0-.152924-.0122-.2833589-.0382-.3913069-.0255-.1079451-.0629-.195652-.11238-.2631203-.0479-.068965-.10721-.1191886-.17767-.1506749-.0705-.031483-.15-.047224-.23839-.047228-.0719.000002-.14922.00675-.23163.020241-.0809.01199-.14999.029986-.20689.053973v1.6889171c.0629.01199.13265.021738.20915.029235.0765.00601.1529.00899.22937.00899.19792 0 .34184-.081709.4318-.2451289.09-.1649183.13494-.3995522.13494-.7039028"/><path d="m210.19836 8.1324813c0 .094454-.0153.1814109-.045.2608713-.0284.077962-.0742.1454289-.13709.2024003-.0629.05547-.14462.09895-.24512.130436-.0988.02998-.2189.04498-.35983.04498-.0705 0-.14017-.0045-.20915-.01349-.0674-.0075-.1305-.01724-.18891-.02923-.0585-.0105-.10941-.02174-.15291-.03373-.0434-.01199-.0749-.02174-.0944-.02923v-.519516h.10115l.11023.2946048c.0465.04198.10644.077961.17992.1079462.0734.029985.15968.044978.25862.044978.1394 0 .24662-.029985.32159-.089956.0765-.06147.11468-.1559228.11468-.2833602 0-.074962-.0156-.1364324-.0473-.1844091-.0315-.049474-.0727-.090706-.12375-.1236883-.0509-.032983-.10941-.059969-.17541-.08096-.0645-.022488-.13126-.044976-.20015-.067466-.0675-.022488-.13417-.047975-.20014-.076463-.0645-.028485-.12221-.065218-.17317-.1101952-.051-.044976-.0922-.1011984-.12374-.1686668-.0315-.067464-.0473-.1514241-.0473-.2518758 0-.095951.0172-.1814087.0518-.2563735.0345-.074961.0824-.1379309.14386-.1889069.0629-.050973.13709-.089204.22264-.1146934.0869-.026985.18216-.040479.2856-.04048.10192.0000021.20165.00749.29911.022488.0975.013494.19115.029238.2811.047227v.4610225h-.10567l-.0944-.245129c-.039-.034481-.0922-.060719-.15966-.078712-.0674-.017989-.1394-.026985-.2159-.026987-.12144.000002-.2144.029987-.27887.089956-.0629.059973-.0944.1409322-.0944.2428804 0 .068968.0156.1259391.0473.1709156.0315.043479.0727.080961.12374.1124443.0526.029986.11162.056224.17767.078712.066.02249.13342.045729.20239.069715.069.023989.13649.051725.20241.083209.066.029987.12436.068968.1754.1169425.0526.047978.0944.1064477.12589.1754134.0315.068966.0473.1544246.0473.2563736"/><path d="m211.06644 8.1234857c0 .1244391.0278.2203917.0832.287858.057.065968.14922.098951.27661.098951.084.0000003.17092-.00524.26087-.015742.0899-.01199.17692-.029985.26087-.053973v-1.6709262l-.31934-.056222v-.1012006h.6904v1.9565351l.26763.056222v.1012h-.6162l-.018-.170916c-.0434.023988-.0952.048725-.15517.074214-.06.02549-.12297.04872-.18892.06971-.0644.02099-.12972.03823-.19564.05172-.066.01349-.1259.02024-.17992.02024-.0809 0-.15441-.01124-.22038-.03373-.066-.02249-.12297-.05847-.17092-.107946-.0465-.049474-.0832-.1131936-.11023-.1911558-.0255-.079461-.0382-.175413-.0382-.2878581v-1.380818l-.26986-.056222v-.1011947h.64317v1.5112546"/><path d="m213.39855 6.7831468c.0419-.023986.0915-.049473.14845-.076463.0585-.026985.11853-.051722.1799-.074214.0614-.022487.12374-.040478.18668-.053973.0629-.014984.12143-.022487.1754-.022488.10346.0000021.19865.019493.28561.058471.0885.038982.15441.1012017.1979.186658.0479-.026985.10567-.05472.17317-.083209.0674-.029984.13725-.05697.20914-.08096.0735-.023986.14539-.043477.21589-.058471.0719-.014984.13648-.022487.19341-.022488.0809.0000022.15443.011253.2204.033734.066.022491.12221.058473.16866.1079462.0479.049478.0847.1139458.11023.1934046.027.079462.0405.1754151.0405.287858v1.3898146l.2721.056222v.1012h-.96026v-.101198l.31483-.056222v-1.3493358c0-.1244376-.0285-.21964-.0855-.2856093-.0554-.067465-.14692-.1011984-.27436-.1012006-.039.0000017-.0847.003-.13724.00899-.051.00601-.1027.012743-.15518.020241-.051.00749-.10038.016493-.14845.026987-.0465.00899-.0855.016494-.11698.022489.0255.080961.0382.1701677.0382.267618v1.3898147l.31709.056222v.1012h-1.003v-.101199l.3126-.056222v-1.3493303c-.00002-.1244376-.0323-.21964-.0967-.2856091-.0629-.067464-.15818-.1011985-.28562-.1012007-.0419.0000019-.0863.00226-.13264.00674-.045.0045-.0899.00975-.13496.015742-.0434.00601-.0855.013494-.12588.02249-.039.00749-.0721.014247-.0991.020241v1.6709261l.31709.056222v.1012h-.95802v-.1011963l.26762-.056222v-1.7991165l-.26762-.056222v-.1012006h.61844l.018.1709157"/><path d="m220.99424 8.5687662c-.066.052475-.14847.0997-.24738.1416797-.0975.04048-.21289.06072-.34632.06072-.57722 0-.86583-.3605718-.86583-1.0817165 0-.1754122.0187-.3328343.0562-.4722669.039-.1409291.0983-.26012.17767-.3575737.0796-.09895.1799-.1739122.30135-.2248891.12143-.052471.26536-.078709.43178-.078712.0765.0000021.15742.0045.24289.013494.0869.00899.17016.021741.24962.038231-.003-.01649-.004-.040479-.007-.071964-.001-.032982-.003-.067464-.004-.1034495 0-.037479-.00076-.074211-.001-.1101951 0-.03598 0-.065215 0-.087707v-.5487289l-.35532-.053973v-.1011996h.72864v3.0382516l.26087.056222v.1012h-.59371l-.027-.1574224m-1.05484-.8793168c0 .1574234.0138.2901078.0405.3980538.0285.1079472.0682.1956539.11915.2631202.051.065968.11238.1139442.1844.143929.0719.028486.15215.042729.24064.042729.0899.0000003.17466-.00824.25412-.024738.0796-.017991.14692-.03898.2024-.06297v-1.6709241c-.0629-.01199-.13572-.020988-.21814-.026987-.0824-.00749-.16193-.011238-.23838-.011238-.19942.000002-.34709.080211-.44304.2406313-.0944.1604225-.1417.3965557-.1417.7084006"/><path d="m223.79861 7.6579653c-.00001.3583239-.0803.633438-.24063.825343-.16043.1919056-.41004.2878576-.74889.2878576-.31784 0-.55772-.0952-.71964-.2856088-.16191-.1904056-.24288-.4662692-.24288-.8275918 0-.3568225.0809-.6296876.24288-.8185962.16192-.1889047.4078-.2833581.73763-.2833603.32086.0000022.56298.092955.72641.2788624.1634.1844108.24511.4587753.24512.8230941m-.4048 0c0-.1454275-.009-.2751129-.0292-.389058-.0195-.115441-.0526-.2121437-.0991-.2901071-.045-.07946-.10501-.1394291-.17992-.1799111-.0749-.041976-.16715-.062966-.27661-.06297-.11099.0000019-.2024.020991-.27436.06297-.0719.040481-.12896.1004525-.17092.1799111-.0419.077963-.0713.1746655-.0877.2901071-.0164.1139457-.0247.2436311-.0247.389058 0 .1469289.008.2781137.0247.393556.0164.115444.0457.213645.0877.2946046.0419.079461.0991.1409307.17092.1844091.0721.041979.16341.06297.27436.06297.10941 0 .20164-.02099.27661-.06297.0749-.043478.13494-.1049481.17992-.1844091.0465-.08096.0795-.179161.0991-.2946046.0195-.1154427.0292-.2466275.0292-.393556"/><path d="m224.79936 8.5687662.36208.056222v.1012h-1.09522v-.1012l.35983-.056222v-2.8830781l-.35983-.053973v-.1012007h.73314v3.0382517"/></g></g><g fill-rule="evenodd"><path d="m14.163648 23.573869c1.789201 0 .69371 7.880154.69371 7.880154s3.488495-.415245 6.314417-.05772c1.923803.243391 3.540539.844919 3.540539 2.179404 0-.802577-.000464-1.737474-.000464-1.737474l-8.264367-8.264364z" opacity=".2" stroke-width=".537769"/><path d="m15.007914 23.579044c1.685788 0 .607213 7.279305.607213 7.279305s9.099163-1.117886 9.099163 1.986428c0-.756187-.0024-1.006543-.0024-1.006543l-8.264407-8.264365z" fill="url(#a)" stroke-width=".506687"/></g></g><path d="m.50000434 11h14.99829066v1h-14.99829066z" opacity=".3"/></svg>