<svg height="16" width="16" xmlns="http://www.w3.org/2000/svg" xmlns:xlink="http://www.w3.org/1999/xlink"><linearGradient id="a"><stop offset="0" stop-color="#2f2f2f"/><stop offset=".43731192" stop-color="#fff"/><stop offset=".62138397" stop-color="#979797"/><stop offset=".7723214" stop-color="#505050"/><stop offset="1" stop-color="#e6e6e6"/></linearGradient><linearGradient id="b"><stop offset="0" stop-color="#ededed"/><stop offset="1" stop-color="#b0b0b0"/></linearGradient><linearGradient id="c"><stop offset="0" stop-color="#b4b4b4"/><stop offset=".20467032" stop-color="#646464"/><stop offset=".49567693" stop-color="#fff"/><stop offset="1" stop-color="#3c3c3c"/></linearGradient><linearGradient id="d"><stop offset="0" stop-color="#fff"/><stop offset=".48973215" stop-color="#8c8c8c"/><stop offset=".50044644" stop-color="#cfcfcf"/><stop offset=".62276787" stop-color="#fff"/><stop offset=".81696427" stop-color="#c8c8c8"/><stop offset="1" stop-color="#505050"/></linearGradient><linearGradient id="e" gradientTransform="matrix(.19047619 0 0 .19046466 -1.142857 -1.141788)" gradientUnits="userSpaceOnUse" x1="19.035713" x2="87.5" y1="74" y2="27.428572"><stop offset="0" stop-color="#c978e0"/><stop offset="1" stop-color="#dab4e4" stop-opacity="0"/></linearGradient><linearGradient id="f" gradientUnits="userSpaceOnUse" x1="38.748035" x2="38.748035" y1="71.15395" y2="4.577759"><stop offset="0" stop-color="#853798"/><stop offset="1" stop-color="#c78bd5"/></linearGradient><clipPath id="g"><path d="m66 6v55c0 1.662 1.338 3 3 3h6c1.662 0 3-1.338 3-3v-55h-4v2h-4v-2z"/></clipPath><filter id="h" color-interpolation-filters="sRGB" height="1.07322" width="1.332308" x="-.166154" y="-.03661"><feGaussianBlur stdDeviation=".9"/></filter><linearGradient id="i" gradientTransform="matrix(.49408989 0 0 .70361229 2.170095 30.047972)" gradientUnits="userSpaceOnUse" x1="68.75" x2="75.25" xlink:href="#c" y1="59" y2="59"/><linearGradient id="j" gradientTransform="matrix(.50000003 0 0 .39766823 1.744565 49.119427)" gradientUnits="userSpaceOnUse" x1="63.484772" x2="79" y1="64.163078" y2="65"><stop offset="0" stop-color="#6c257e"/><stop offset="1" stop-color="#be66d4"/></linearGradient><linearGradient id="k" gradientTransform="matrix(-.43495657 0 0 .5232543 69.067063 47.346436)" gradientUnits="userSpaceOnUse" x1="68.96875" x2="75.0625" xlink:href="#b" y1="17.5" y2="17.5"/><linearGradient id="l" gradientTransform="matrix(.43495657 0 0 .5232543 6.419721 47.346436)" gradientUnits="userSpaceOnUse" x1="68.02903" x2="75.97097" xlink:href="#b" y1="17.763245" y2="17.763245"/><linearGradient id="m" gradientTransform="matrix(.56313458 0 0 .50000003 -1.95642 22.997622)" gradientUnits="userSpaceOnUse" x1="68.75" x2="72.250572" xlink:href="#c" y1="59" y2="59"/><linearGradient id="n" gradientTransform="matrix(-.53315586 0 0 .68002831 76.13179 31.824214)" gradientUnits="userSpaceOnUse" x1="69" x2="73" xlink:href="#a" y1="54" y2="54"/><linearGradient id="o" gradientTransform="matrix(-.53315586 0 0 .68002831 76.200149 27.800991)" gradientUnits="userSpaceOnUse" x1="69" x2="73" xlink:href="#a" y1="54" y2="54"/><linearGradient id="p" gradientTransform="matrix(.53315586 0 0 .68002831 -.642653 29.784131)" gradientUnits="userSpaceOnUse" x1="69" x2="73" xlink:href="#d" y1="54" y2="54"/><linearGradient id="q" gradientTransform="matrix(.53315586 0 0 .68002831 -.574294 25.760908)" gradientUnits="userSpaceOnUse" x1="69" x2="73" xlink:href="#d" y1="54" y2="54"/><linearGradient id="r" gradientUnits="userSpaceOnUse" x1="35.822932" x2="53.822932" y1="79.719196" y2="79.719196"><stop offset="0" stop-color="#025"/><stop offset=".2" stop-color="#2b81ff"/><stop offset="1" stop-color="#003380" stop-opacity="0"/></linearGradient><linearGradient id="s" gradientUnits="userSpaceOnUse" x1="35.822932" x2="53.822932" y1="70.836753" y2="70.836753"><stop offset="0" stop-color="#461552"/><stop offset=".2" stop-color="#e27ffb" stop-opacity=".886275"/><stop offset="1" stop-color="#892ca0" stop-opacity="0"/></linearGradient><linearGradient id="t" gradientUnits="userSpaceOnUse" x1="35.94396942" x2="53.78470429173" y1="74.65578761" y2="74.56022113517"><stop offset="0" stop-color="#0d350d"/><stop offset=".2" stop-color="#66d566" stop-opacity=".992157"/><stop offset="1" stop-color="#217821" stop-opacity="0"/></linearGradient><g transform="matrix(.19047135 0 0 .19047135 -1.142557 -.903304)"><path d="m12 4.7446022c-3.324 0-6 2.676-6 5.9999998v72c0 3.324 2.676 6 6 6h72c3.324 0 6-2.676 6-6v-72c0-3.3239998-2.676-5.9999998-6-5.9999998h-9v3h-6v-3z" fill="#235299"/><path d="m11.998577 4.7446052c-3.3240003 0-6.0000003 2.676-6.0000003 5.9999998v61.501902c0 3.324 2.676 6 6.0000003 6h71.999998c3.324001 0 6-2.676 6-6v-61.501902c0-3.3239998-2.675999-5.9999998-6-5.9999998h-8.999999v3h-6v-3z" fill="#217821"/><path d="m11.99873 4.7424334c-3.3240852 0-6.0001533 2.676-6.0001533 6.0000006v51.003806c0 3.324 2.6760681 6 6.0001533 6h72.001829c3.324085 0 6.000152-2.676 6.000152-6v-51.003806c0-3.3240006-2.676067-6.0000006-6.000152-6.0000006h-9.000228v3h-6.000153v-3z" fill="#892ca0"/><path d="m5.9992876 72.241258v5.253208c0 3.324001 2.676 6.000001 6.0000004 6.000001h72c3.324 0 6.000002-2.676 6.000002-6.000001v-5.253208c0 3.324-2.676002 5.999999-6.000002 5.999999h-72c-3.3240004 0-6.0000004-2.675999-6.0000004-5.999999z" fill="#0effff" opacity=".3"/><path d="m5.9999996 66.996373v5.24796c0 3.324 2.676023 6 6.0000504 6h72.000611c3.324028 0 6.00005-2.676 6.00005-6v-5.24796c0 3.324-2.676022 6-6.00005 6h-72.000611c-3.3240274 0-6.0000504-2.676-6.0000504-6z" fill="#0b280b" opacity=".3"/><path d="m5.9985766 61.740993v5.25321c0 3.324 2.676023 6 6.0000514 6h72.000603c3.324028 0 6.00006-2.676 6.00006-6v-5.25321c0 3.324-2.676032 6-6.00006 6h-72.000603c-3.3240284 0-6.0000514-2.676-6.0000514-6z" fill="#0ff" opacity=".3"/><path d="m5.9985766 56.496108v5.24796c0 3.324 2.676023 5.999999 6.0000514 5.999999h72.000611c3.32403 0 6.00005-2.675999 6.00005-5.999999v-5.24796c0 3.324-2.67602 6-6.00005 6h-72.000611c-3.3240284 0-6.0000514-2.676-6.0000514-6z" fill="#6a2c7a" opacity=".3"/><g transform="matrix(-1.7167302 0 0 1.7167302 151.52938 -56.695401)"><path d="m35.822932 72.602651.01768 8.621002c.0028 1.365008 1.019715 3.495542 3.495538 3.495542h14.486774v-6.116544h-12c-3.324 0-5.982312-2.676-5.982312-6z" fill="url(#r)"/><path d="m35.822932 63.371018v4.032553c0 3.324 2.042506 5.08388 5.366506 5.08388h12.633494v-9.116433z" fill="url(#s)"/><path d="m35.840616 67.751084v6.115311c0 2.623947 2.725998 4.736367 5.349945 4.736367l12.632371-.000001v-6.11531l-12.632371.000001c-2.623947 0-5.349945-2.11242-5.349945-4.736368z" fill="url(#t)"/></g><g transform="matrix(1.7167302 0 0 1.7167302 -55.499733 -56.6954)"><path d="m35.822932 72.602651.01768 8.621002c.0028 1.365008 1.019715 3.495542 3.495538 3.495542h14.486774v-6.116544h-12c-3.324 0-5.982312-2.676-5.982312-6z" fill="url(#r)"/><path d="m35.822932 63.371018v4.032553c0 3.324 2.042506 5.08388 5.366506 5.08388h12.633494v-9.116433z" fill="url(#s)"/><path d="m35.840616 67.751084v6.115311c0 2.623947 2.725998 4.736367 5.349945 4.736367l12.632371-.000001v-6.11531l-12.632371.000001c-2.623947 0-5.349945-2.11242-5.349945-4.736368z" fill="url(#t)"/></g><path d="m12 4.7446022c-3.324 0-6 2.676-6 5.9999998v45.615001c0 3.324 2.676 6 6 6h72c3.324 0 6-2.676 6-6v-45.615001c0-3.3239998-2.676-5.9999998-6-5.9999998 0 0-43.401445 0-72 0z" fill="url(#f)"/></g><g transform="matrix(.57142857393 0 0 .3696525885 -10.56832357462 -19.02741946271)"><path d="m34.744566 51.505433v21.276908c0 .830999.669 1.499999 1.499999 1.499999h3c.831001 0 1.500001-.669 1.500001-1.499999v-21.276908h-2v1.000001h-2v-1.000001z" fill="#252525"/><path d="m36.744564 52.505436h2v19.46994h-2z" fill="#4d4d4d"/><g stroke="#000" stroke-linecap="square"><rect fill="url(#i)" height="2.814449" rx=".49409" ry=".703612" stroke-opacity=".563636" stroke-width=".294808" width="2.964539" x="36.262299" y="70.153877"/><path clip-path="url(#g)" d="m66 6v41.471714c0 1.662 1.338 3 3 3h6c1.662 0 3-1.338 3-3v-41.471714h-4v2h-4v-2z" fill="none" filter="url(#h)" stroke-width="2" transform="matrix(.50000001 0 0 .50000001 1.744565 48.505434)"/><path d="m36.411677 65.145594c-.143832 0-.266578.148219-.266578.340012v2.040087c0 .191793.122748.340013.266578.340013h.533157c.143831 0 .266578-.14822.266578-.340013v-.340017h.799732c.147686 0 .266579-.151646.266579-.340013v-.68003c0-.188366-.118893-.340013-.266579-.340013h-.799732v-.340014c0-.191793-.122749-.340012-.266578-.340012z" fill="url(#p)" stroke-opacity=".563636" stroke-width=".301065"/><path d="m39.077458 67.185676c.14383 0 .266576.148223.266576.340017v2.040082c0 .191793-.122747.340015-.266576.340015h-.533157c-.143831 0-.266578-.148223-.266578-.340015v-.340012h-.799735c-.147683 0-.266576-.151646-.266576-.340014v-.68003c0-.188367.118893-.340013.266576-.340013h.799735v-.340013c0-.191794.122748-.340017.266578-.340017z" fill="url(#n)" stroke-opacity=".563636" stroke-width=".301065"/></g><path d="m34.244566 51.505433v21.871753c0 .875782.898853 1.590672 1.999999 1.590672h3c1.101148 0 2.000001-.71489 2.000001-1.590672v-21.871753h-.5v21.330312c0 .660924-.669 1.193003-1.500001 1.193003h-3c-.830999 0-1.499999-.532079-1.499999-1.193003v-21.330312z" fill="url(#j)"/><path d="m36.531437 53.113439c-.298876 0-.534671.252401-.534671.565924l-.0022 5.659252c.000009.313524.235804.565926.53468.565926h2.428458c.298875 0 .53467-.252402.53467-.565926l.0022-5.659252c0-.313523-.235796-.565924-.53467-.565924z" fill="url(#l)"/><path d="m38.851169 53.609136c.120483 0 .217478.116686.217478.261627v5.265247c0 .144942-.09699.261627-.217478.261627h-2.21556c-.120483 0-.217478-.116685-.217478-.261627v-5.265247c0-.144941.09699-.261627.217478-.261627z" fill="url(#k)"/><path d="m38.589268 51.744315v2.119546c0 .0741-.125579.133759-.281567.133759h-1.12627c-.155988 0-.281567-.05966-.281567-.133759v-2.119546z" fill="url(#m)" stroke="#000" stroke-linecap="square" stroke-opacity=".563636" stroke-width=".5"/><path d="m36.480036 61.12237c-.143832 0-.266578.148219-.266578.340012v2.040087c0 .191793.122748.340013.266578.340013h.533157c.143831 0 .266578-.14822.266578-.340013v-.340017h.799732c.147686 0 .266579-.151645.266579-.340013v-.680029c0-.188366-.118893-.340013-.266579-.340013h-.799732v-.340015c0-.191793-.122749-.340012-.266578-.340012z" fill="url(#q)" stroke="#000" stroke-linecap="square" stroke-opacity=".563636" stroke-width=".301065"/><path d="m39.145817 63.162453c.14383 0 .266576.148223.266576.340016v2.040083c0 .191792-.122747.340015-.266576.340015h-.533157c-.143831 0-.266578-.148223-.266578-.340015v-.340013h-.799735c-.147683 0-.266576-.151646-.266576-.340014v-.680029c0-.188368.118893-.340014.266576-.340014h.799735v-.340013c0-.191793.122748-.340016.266578-.340016z" fill="url(#o)" stroke="#000" stroke-linecap="square" stroke-opacity=".563636" stroke-width=".301065"/></g><path d="m1.1428571.001c-.6331428 0-1.1428571.50968344-1.1428571 1.142788l.0000001 8.6616676c0 .6331044.5097143 1.1955444 1.142857 1.1955444h13.7142859c.633143 0 1.142857-.56244 1.142857-1.1955444v-8.6616676c0-.63310456-.509714-1.142788-1.142857-1.142788h-1.714286v.38092933h1.714286c.427772 0 .761905.33411273.761905.76185867v7.9599567c0 .4277459-.334133.7970297-.761905.7970297h-13.7142859c-.4277718 0-.7619046-.3692838-.7619046-.7970297l-.0000001-7.9599567c0-.42774594.3341328-.76185867.7619047-.76185867h10.8571429v-.38092933z" fill="url(#e)" opacity=".5"/></svg>