<svg height="16" width="16" xmlns="http://www.w3.org/2000/svg" xmlns:xlink="http://www.w3.org/1999/xlink"><linearGradient id="a" gradientTransform="matrix(.68673263 0 0 .69909319 -3.694973 22.217352)" gradientUnits="userSpaceOnUse" x1="32.891998" x2="36.358002" y1="8.059" y2="5.4565"><stop offset="0" stop-color="#f0f0f0"/><stop offset="1" stop-color="#b0b0b0"/></linearGradient><radialGradient id="b" cx="48" cy="90.171875" gradientTransform="matrix(.2951992 0 0 .25507295 -.170779 21.999592)" gradientUnits="userSpaceOnUse" r="42" xlink:href="#c"/><linearGradient id="c"><stop offset="0" stop-color="#fff"/><stop offset="1" stop-color="#fff" stop-opacity="0"/></linearGradient><linearGradient id="d" gradientTransform="matrix(0 -.32521809 .25507296 0 1.755283 46.951309)" gradientUnits="userSpaceOnUse" x1="7.3709" x2="23.76619" y1="51.470146" y2="51.433136"><stop offset="0" stop-color="#961414"/><stop offset="1" stop-color="#be2828"/></linearGradient><linearGradient id="e" gradientUnits="userSpaceOnUse" x1="248.07678816" x2="248.07678816" y1="-62.6598922" y2="-98.66515562275"><stop offset="0" stop-color="#e0e0e0"/><stop offset="1" stop-color="#f0f0f0"/></linearGradient><linearGradient id="f" gradientTransform="matrix(.25506819 0 0 .25611082 1.7553 22.037623)" gradientUnits="userSpaceOnUse" x1="36.357143" x2="36.357143" xlink:href="#c" y1="6" y2="63.893143"/><linearGradient id="g" gradientTransform="matrix(.88394566 0 0 -.88394572 10.163169 89.361561)" gradientUnits="userSpaceOnUse" x1="32.251034" x2="32.251034" y1="6.131708" y2="90.238609"><stop offset="0"/><stop offset="1" stop-opacity=".588235"/></linearGradient><linearGradient id="h" gradientUnits="userSpaceOnUse" x1="12.75804233376" x2="12.75804233376" y1="39.12931954591" y2="23.6459634575"><stop offset="0" stop-color="#d23232"/><stop offset="1" stop-color="#ff5a5a"/></linearGradient><g transform="matrix(.7 0 0 .7 -1.8 -16.5)"><path d="m21.510559 84.057885h62.16399c3.34823 0 6.04372-2.727212 6.04372-6.114824v-39.038079l-29.09854-29.0985314h-39.10917c-3.34822 0-6.04372 2.7272114-6.04372 6.1148244v62.021786c0 3.387612 2.6955 6.114824 6.04372 6.114824z" fill="url(#g)" opacity=".63" transform="matrix(.30783438 0 0 .30783438 -2.189797 20.552665)"/><path d="m232.64822-98.6599h19.54285l13.88572 13.885715v19.542857c0 1.424571-1.14685 2.571428-2.57143 2.571428h-30.85714c-1.42458 0-2.57143-1.146857-2.57143-2.571428v-30.857144c0-1.424571 1.14685-2.571428 2.57143-2.571428z" fill="url(#e)" transform="matrix(.59517027 0 0 .59517032 -133.64915 82.293312)"/><g fill-rule="evenodd"><path d="m18.999999 27.815688c-4.399388 5.674001-11.1778534 6.448714-15.714285 5.629783v.917836c4.2592337.768861 9.530745.639419 13.340776-.952912-.82074 1.188309-1.164328 2.518724-1.245217 3.729803-.05203.778973.000541 1.513124.08769 2.145515h.754147c-.08955-.610207-.144467-1.330441-.09354-2.092899.117952-1.765902 1.268853-5.368852 4.902447-7.212661z" opacity=".1"/><path d="m13.156178 23.571535c-.738596 1.626035-1.298278 3.29873-1.669627 4.98434-.192748.153389-.388608.296704-.589282.44196-2.2894719 1.657213-5.0358163 2.740029-7.611555 2.676321v1.22767c2.279226.215172 3.7954811.600896 4.8276658 1.973625 1.0208762 1.357685 1.5924677 2.700194 1.5924677 4.410262h.7857105c0-1.70496-.7397796-3.730269-1.7397882-4.876777-.9882518-1.133032-2.2363598-1.657803-3.9191912-2.047285 2.2504292-.301296 4.4848624-1.301894 6.4084374-2.67632-.554758 3.221515-.464329 6.492988.220978 9.600382h5.426305c-2.711397-2.458378-3.884314-6.865114-3.879436-11.024479 1.528923-1.423282 3.521427-3.952599 2.797389-4.689699h-.292945c-.517296 1.197357-1.384344 2.426054-2.479891 3.560242.0667-1.253167.266624-2.45271.540174-3.560242z" fill="url(#h)"/><path d="m13.460156 23.574305c1.892484 0 .741329 8.506605.741329 8.506605s10.512399-1.113452 10.512399 2.371481c0-.848902-.002-2.614157-.002-2.614157l-8.264401-8.264365z" opacity=".2" stroke-width=".568812"/></g><path d="m4.816124 23.574285c-.84785 0-1.53041.685352-1.53041 1.536667v.51222 16.803384c1.18033 2.490796.3056 1.771939.25507.256111v-16.720555-.512224c0-.712461.56578-1.280555 1.27534-1.280555h.51014 10.61083.51014l8.00914 7.931384v.512223 10.069727c-.71794 1.883726.25505 2.133577.25505-.256112v-10.069727-.512223l-8.2642-8.27032z" fill="url(#f)" opacity=".6"/><path d="m13.153911 23.571429c-.7386 1.626035-1.294788 3.301103-1.666135 4.986713-.192751.153389-.389779.2932-.590453.438456-2.2894689 1.657214-5.0358703 2.741216-7.611609 2.677509v.187075c2.5757387.06371 5.3221401-1.020296 7.611609-2.677508.200674-.145258.397702-.285069.590453-.438457.371347-1.685611.927535-3.360678 1.666135-4.986712h.37415c.01476-.06229.03152-.125356.04677-.187076zm2.361819 0c-.514568 1.191038-1.379682 2.413538-2.467045 3.542729-.0045.06826-.01387.136026-.01756.204614 1.095546-1.134189 1.967284-2.362912 2.484583-3.560267h.754147c.0256-.0629-.192826-.124156-.168875-.187077zm-2.496277 5.471939c.100197 3.875357 1.227014 7.873466 3.671341 10.242345h.198768c-2.541936-2.30473-3.735338-6.321993-3.870109-10.242345zm-1.777212.830143c-.01136.0081-.02371.01529-.03507.02339-.196092 1.200398-.301472 2.405131-.321532 3.607036.02922-1.210833.148578-2.422353.356608-3.630421zm-5.9454699 2.607355c-.153952.0271-.3076504.0495-.4618405.07016 1.6828293.389482 2.9286226.913097 3.9168775 2.04613.9636482 1.104825 1.6850599 3.02467 1.7362889 4.688562h.0059c0-1.70496-.7421317-3.729128-1.7421351-4.875637-.8943517-1.025368-2.005455-1.549604-3.4550401-1.929209z" fill="#500" fill-rule="evenodd" opacity=".6"/><path d="m3.2857204 43.048691c0 1.081025.6825752 1.951309 1.5304381 1.951309h18.3652535c.847863 0 1.530438-.870284 1.530438-1.951309v-3.762977h-21.4261296z" fill="url(#d)"/><path d="m4.816158 45c-.8478624 0-1.5304376-.68538-1.5304376-1.536727v-.595058c.010437-3.114206.255072-3.180616.255072-.256136v.512242c0 .712489.5657905 1.280605 1.2753656 1.280605h.5101471 17.3449539.510147c.709576 0 1.275366-.568116 1.275366-1.280605v-.512242c.02504-3.471899.255078-2.283853.255078.256121v.595058c-.000006.851362-.682581 1.536742-1.530444 1.536742z" fill="url(#b)" opacity=".2"/><path d="m13.528061 23.758505c-.25038 1.055381-.433927 2.18986-.496918 3.373192.0058-.006.01179-.01155.01756-.01754.07667-1.178923.267571-2.308741.526147-3.355654zm2.741813 0c-.639798 1.571158-1.79204 3.132991-3.262117 4.501485-.00007.06207-.000263.124907 0 .187076 1.528929-1.423282 2.662063-2.685735 3.284239-4.32031zm-5.027633 5.927932c-1.9235774 1.374426-4.1568864 2.376213-6.4073104 2.677508.1599065.03701.3096338.07706.4618405.116921 2.0796251-.366153 4.1265928-1.315936 5.9103949-2.58397.01149-.07044.02295-.140068.03507-.210459zm-7.956527 3.215348v.187075c2.279226.215173 3.796684.60325 4.8288718 1.975977.983053 1.30739 1.5438288 2.600038 1.5842876 4.220876h.0059c0-1.710068-.5692613-3.050264-1.5901343-4.40795-1.0321909-1.372729-2.549649-1.760805-4.828875-1.975978zm7.599919 1.625212c.02685 1.608147.207529 3.203556.537836 4.758716h.04092c-.342659-1.553697-.539838-3.149733-.57876-4.758716z" fill="#fff" fill-opacity=".313725" fill-rule="evenodd" opacity=".8"/><path d="m14.163648 23.573869c1.789201 0 .69371 7.880154.69371 7.880154s3.488495-.415245 6.314417-.05772c1.923803.243391 3.540539.844919 3.540539 2.179404 0-.802577-.000464-1.737474-.000464-1.737474l-8.264367-8.264364z" fill-rule="evenodd" opacity=".2" stroke-width=".537769"/><path d="m15.007914 23.579044c1.685788 0 .607213 7.279305.607213 7.279305s9.099163-1.117886 9.099163 1.986428c0-.756187-.0024-1.006543-.0024-1.006543l-8.264407-8.264365z" fill="url(#a)" fill-rule="evenodd" stroke-width=".506687"/></g><path d="m.50000434 11h14.99829066v1h-14.99829066z" opacity=".3"/></svg>