<svg height="16" width="16" xmlns="http://www.w3.org/2000/svg" xmlns:xlink="http://www.w3.org/1999/xlink"><linearGradient id="a" gradientTransform="matrix(.68673263 0 0 .69909319 -3.694973 22.217352)" gradientUnits="userSpaceOnUse" x1="32.891998" x2="36.358002" y1="8.059" y2="5.4565"><stop offset="0" stop-color="#f0f0f0"/><stop offset="1" stop-color="#b0b0b0"/></linearGradient><radialGradient id="b" cx="48" cy="90.171875" gradientTransform="matrix(.2951992 0 0 .25507295 -.170779 21.999592)" gradientUnits="userSpaceOnUse" r="42" xlink:href="#c"/><linearGradient id="c"><stop offset="0" stop-color="#fff"/><stop offset="1" stop-color="#fff" stop-opacity="0"/></linearGradient><linearGradient id="d" gradientTransform="matrix(0 -.32521809 .25507296 0 1.755283 46.951309)" gradientUnits="userSpaceOnUse" x1="7.3709" x2="23.76619" y1="51.470146" y2="51.433136"><stop offset="0" stop-color="#006f46"/><stop offset="1" stop-color="#178e63"/></linearGradient><linearGradient id="e" gradientUnits="userSpaceOnUse" x1="248.07678816" x2="248.07678816" y1="-62.6598922" y2="-98.66515562275"><stop offset="0" stop-color="#e0e0e0"/><stop offset="1" stop-color="#f0f0f0"/></linearGradient><linearGradient id="f" gradientTransform="matrix(.4285717 0 0 .43033246 227.50536 -101.24189)" gradientUnits="userSpaceOnUse" x1="36.357143" x2="36.357143" xlink:href="#c" y1="6" y2="63.893143"/><linearGradient id="g" gradientTransform="matrix(.88394566 0 0 -.88394572 10.163169 89.361561)" gradientUnits="userSpaceOnUse" x1="32.251034" x2="32.251034" y1="6.131708" y2="90.238609"><stop offset="0"/><stop offset="1" stop-opacity=".588235"/></linearGradient><g transform="matrix(.7 0 0 .7 -1.8 -16.5)"><path d="m21.510559 84.057885h62.16399c3.34823 0 6.04372-2.727212 6.04372-6.114824v-39.038079l-29.09854-29.0985314h-39.10917c-3.34822 0-6.04372 2.7272114-6.04372 6.1148244v62.021786c0 3.387612 2.6955 6.114824 6.04372 6.114824z" fill="url(#g)" opacity=".63" transform="matrix(.30783438 0 0 .30783438 -2.189797 20.552665)"/><g transform="matrix(.59517027 0 0 .59517032 -133.64915 82.293312)"><path d="m232.64822-98.6599h19.54285l13.88572 13.885715v19.542857c0 1.424571-1.14685 2.571428-2.57143 2.571428h-30.85714c-1.42458 0-2.57143-1.146857-2.57143-2.571428v-30.857144c0-1.424571 1.14685-2.571428 2.57143-2.571428z" fill="url(#e)"/><path d="m232.64822-98.6599c-1.42457 0-2.57143 1.151568-2.57143 2.581998v.860662 28.234034c1.98322 4.185183.51348 2.977317.42857.430332v-28.09486-.860668c0-1.197119.95064-2.151664 2.14286-2.151664h.85715 17.82858.85715l13.45714 13.326778v.860667 16.919747c-1.2063 3.165148.42855 3.584963.42855-.430333v-16.919747-.860668l-13.88571-13.896278z" fill="url(#f)"/></g><path d="m13.460156 23.574305c1.892484 0 .741329 8.506605.741329 8.506605s10.512399-1.113452 10.512399 2.371481c0-.848902-.002-2.614157-.002-2.614157l-8.264401-8.264365z" fill-rule="evenodd" opacity=".2" stroke-width=".568812"/><path d="m3.2857204 43.048691c0 1.081025.6825752 1.951309 1.5304381 1.951309h18.3652535c.847863 0 1.530438-.870284 1.530438-1.951309v-3.762977h-21.4261296z" fill="url(#d)"/><path d="m4.816158 45c-.8478624 0-1.5304376-.68538-1.5304376-1.536727v-.595058c.010437-3.114206.255072-3.180616.255072-.256136v.512242c0 .712489.5657905 1.280605 1.2753656 1.280605h.5101471 17.3449539.510147c.709576 0 1.275366-.568116 1.275366-1.280605v-.512242c.02504-3.471899.255078-2.283853.255078.256121v.595058c-.000006.851362-.682581 1.536742-1.530444 1.536742z" fill="url(#b)" opacity=".2"/><path d="m14.163648 23.573869c1.789201 0 .69371 7.880154.69371 7.880154s3.488495-.415245 6.314417-.05772c1.923803.243391 3.540539.844919 3.540539 2.179404 0-.802577-.000464-1.737474-.000464-1.737474l-8.264367-8.264364z" fill-rule="evenodd" opacity=".2" stroke-width=".537769"/><path d="m15.007914 23.579044c1.685788 0 .607213 7.279305.607213 7.279305s9.099163-1.117886 9.099163 1.986428c0-.756187-.0024-1.006543-.0024-1.006543l-8.264407-8.264365z" fill="url(#a)" fill-rule="evenodd" stroke-width=".506687"/><g transform="matrix(.19502682 0 0 .19502682 1.870629 22.076881)"><g fill="#409c59"><path d="m46.571852 15.913289c-17.673112 0-32 14.326888-32 32s14.326888 32 32 32h70.548888v-6h-70.548888c-14.359403 0-26-11.640597-26-26s11.640597-26 26-26z" opacity=".5"/><path d="m46.571852 23.913289c-13.254834 0-24 10.745166-24 24s10.745166 24 24 24h70.548888v-6h-70.548888c-9.941125 0-18-8.058875-18-18s8.058875-18 18-18c2.415505 0 4.707857.480768 6.8125 1.34375l2.28125-5.5625c-2.887691-1.183132-5.973083-1.78125-9.09375-1.78125z" opacity=".75"/><path d="m46.571852 31.913289c-8.836556 0-16 7.163444-16 16s7.163444 16 16 16h70.548888v-6h-70.548888c-5.522847 0-10-4.477153-10-10s4.477153-10 10-10c2.761424 0 5.252856 1.127856 7.0625 2.9375l4.25-4.25c-3.000582-3.000582-7.069036-4.6875-11.3125-4.6875z"/></g><path d="m46.571852 15.913289c-17.673112 0-32 14.326888-32 32s14.326888 32 32 32h70.548888v-1h-.96875v.03125h-69.580138c-17.154178 0-31.03125-13.877072-31.03125-31.03125 0-16.821921 13.368648-30.413929 30.0625-30.9375v4.0625c-14.421025.521297-26 12.327778-26 26.875 0 14.878338 12.090412 26.96875 26.96875 26.96875h69.580138v.03125h.96875v-1h-70.548888c-14.359403 0-26-11.640597-26-26s11.640597-26 26-26zm0 8c-13.254834 0-24 10.745166-24 24s10.745166 24 24 24h70.548888v-1h-.96875v.03125h-69.580138c-12.7359 0-23.03125-10.29535-23.03125-23.03125s10.29535-23.03125 23.03125-23.03125c2.679707 0 5.30136.498136 7.8125 1.40625l-1.5625 3.8125c-1.962649-.690512-4.050116-1.15625-6.25-1.15625-10.46006 0-18.96875 8.50869-18.96875 18.96875s8.50869 18.96875 18.96875 18.96875h69.580138v.03125h.96875v-1h-70.548888c-9.941125 0-18-8.058875-18-18s8.058875-18 18-18c2.415505 0 4.707857.480768 6.8125 1.34375l2.28125-5.5625c-2.887691-1.183132-5.973083-1.78125-9.09375-1.78125zm0 8c-8.836556 0-16 7.163444-16 16s7.163444 16 16 16h70.548888v-1h-.96875v.03125h-69.580138c-8.317622 0-15.03125-6.713628-15.03125-15.03125s6.713628-15.03125 15.03125-15.03125c3.65929 0 7.140411 1.383022 9.875 3.78125l-2.9375 2.9375c-1.899178-1.588333-4.269169-2.65625-6.9375-2.65625-6.041782 0-10.96875 4.926968-10.96875 10.96875s4.926968 10.96875 10.96875 10.96875h69.580138v.03125h.96875v-1h-70.548888c-5.522847 0-10-4.477153-10-10s4.477153-10 10-10c2.761424 0 5.252856 1.127856 7.0625 2.9375l4.25-4.25c-3.000582-3.000582-7.069036-4.6875-11.3125-4.6875z" fill="#2c5e10" opacity=".15"/><path d="m46.571852 15.913289c-17.673112 0-32 14.326888-32 32 0 .166668-.0025.333936 0 .5.266707-17.442958 14.493556-31.5 32-31.5zm0 8c-13.254834 0-24 10.745166-24 24 0 .165582-.0033.335217 0 .5.263839-13.026064 10.910748-23.5 24-23.5 2.998381 0 5.960818.563551 8.75 1.65625l.34375-.875c-2.887691-1.183132-5.973083-1.78125-9.09375-1.78125zm0 8c-8.836556 0-16 7.163444-16 16 0 .169981.02599.331297.03125.5.268299-8.601453 7.302175-15.5 15.96875-15.5 4.007625 0 7.837935 1.523923 10.78125 4.21875l.53125-.53125c-3.000582-3.000582-7.069036-4.6875-11.3125-4.6875zm-26 16.5c-.0031.166131 0 .33312 0 .5 0 14.359403 11.640597 26 26 26h70.548888v-1h-70.548888c-14.192523 0-25.73377-11.371127-26-25.5zm8.03125 0c-.0046.16748-.03125.331407-.03125.5 0 9.941125 8.058875 18 18 18h70.548888v-1h-70.548888c-9.772532 0-17.701788-7.791975-17.96875-17.5zm8 0c-.0081.165362-.03125.332622-.03125.5 0 5.522847 4.477153 10 10 10h70.548888v-1h-70.548888c-5.355469 0-9.708657-4.209049-9.96875-9.5z" fill="#2b5c10" opacity=".2"/><path d="m46.571852 21.913289c-14.359403 0-26 11.640597-26 26 0 .16688-.0031.333869 0 .5.26623-14.128873 11.807477-25.5 26-25.5zm8.75 4.65625-1.9375 4.6875c-2.104643-.862982-4.396995-1.34375-6.8125-1.34375-9.941125 0-18 8.058875-18 18 0 .168593.02664.33252.03125.5.266962-9.708025 8.196218-17.5 17.96875-17.5 2.415505 0 4.707857.480768 6.8125 1.34375l2.28125-5.5625c-.113156-.04636-.229996-.08044-.34375-.125zm2.03125 10.5625-3.71875 3.71875c-1.809644-1.809644-4.301076-2.9375-7.0625-2.9375-5.522847 0-10 4.477153-10 10 0 .167378.02312.334638.03125.5.260093-5.290951 4.613281-9.5 9.96875-9.5 2.761424 0 5.252856 1.127856 7.0625 2.9375l4.25-4.25c-.166763-.166763-.358043-.310166-.53125-.46875zm-42.78125 11.28125c-.0025.166064 0 .333332 0 .5 0 17.673112 14.326888 32 32 32h70.548888v-1h-70.548888c-17.506444 0-31.733293-14.057042-32-31.5zm8 0c-.0033.164783 0 .334418 0 .5 0 13.254834 10.745166 24 24 24h70.548888v-1h-70.548888c-13.089252 0-23.736161-10.473936-24-23.5zm8.03125 0c-.0053.168703-.03125.330019-.03125.5 0 8.836556 7.163444 16 16 16h70.548888v-1h-70.548888c-8.666575 0-15.700451-6.898547-15.96875-15.5z" fill="#3eb66a" opacity=".6"/></g></g><path d="m.50000434 11h14.99829066v1h-14.99829066z" opacity=".3"/></svg>