<svg height="16" width="16" xmlns="http://www.w3.org/2000/svg" xmlns:xlink="http://www.w3.org/1999/xlink"><linearGradient id="a"><stop offset="0" stop-color="#818181"/><stop offset=".2" stop-color="#f9f9f9"/><stop offset="1" stop-color="#dcdcdc" stop-opacity="0"/></linearGradient><linearGradient id="b" gradientUnits="userSpaceOnUse" x1="19.035713" x2="87.5" y1="72.744602" y2="26.173174"><stop offset="0" stop-color="#fff"/><stop offset="1" stop-color="#fff" stop-opacity="0"/></linearGradient><linearGradient id="c" gradientUnits="userSpaceOnUse" x1="6" x2="24" xlink:href="#a" y1="71.744602" y2="71.744602"/><linearGradient id="d" gradientTransform="matrix(-1 0 0 1 96 -1.255398)" gradientUnits="userSpaceOnUse" x1="6" x2="24" xlink:href="#a" y1="73" y2="73"/><linearGradient id="e" gradientUnits="userSpaceOnUse" x1="38.748035" x2="38.748035" y1="71.15395" y2="4.577759"><stop offset="0" stop-color="#dcdcdc"/><stop offset="1" stop-color="#fafafa"/></linearGradient><radialGradient id="f" cx="90" cy="90" gradientTransform="matrix(0 -1.085034 2 0 -90 186.39766)" gradientUnits="userSpaceOnUse" r="42"><stop offset="0" stop-color="#b4b4b4"/><stop offset="1" stop-color="#dcdcdc"/></radialGradient><g transform="matrix(.19047135 0 0 .19047135 -1.142557 -.903304)"><path d="m12 4.7446022c-3.324 0-6 2.676-6 5.9999998v72c0 3.324 2.676 6 6 6h72c3.324 0 6-2.676 6-6v-72c0-3.3239998-2.676-5.9999998-6-5.9999998h-9v3h-6v-3z" fill="url(#f)"/><path d="m6 54.744602v28c0 3.324 2.676 6 6 6h12v-34z" fill="url(#c)"/><path d="m90 54.744602v28c0 3.324-2.676 6-6 6h-12v-34z" fill="url(#d)"/><path d="m12 4.7446022c-3.324 0-6 2.676-6 5.9999998v45.615001c0 3.324 2.676 6 6 6h72c3.324 0 6-2.676 6-6v-45.615001c0-3.3239998-2.676-5.9999998-6-5.9999998h-9v3h-6v-3z" fill="url(#e)"/><path d="m12 4.7446022c-3.324 0-6 2.676-6 5.9999998l.0000005 45.476507c0 3.324 2.676 6.276988 5.9999995 6.276988h72c3.324 0 6-2.952988 6-6.276988v-45.476507c0-3.3239998-2.676-5.9999998-6-5.9999998h-9v2h9c2.245802 0 4 1.7541975 4 3.9999998v41.792302c0 2.245802-1.754198 4.184659-4 4.184659h-72c-2.245802 0-3.9999995-1.938857-3.9999995-4.184659l-.0000005-41.792302c0-2.2458023 1.7541975-3.9999998 4-3.9999998h57v-2z" fill="url(#b)" opacity=".5"/><path d="m6.0007106 77.496641v5.247959c0 3.324 2.676 6 6.0000004 6h72c3.324 0 6.000002-2.676 6.000002-6v-5.247959c0 3.324-2.676002 5.999999-6.000002 5.999999h-72c-3.3240004 0-6.0000004-2.675999-6.0000004-5.999999z" opacity=".3"/><path d="m5.9992876 72.241258v5.253208c0 3.324001 2.676 6.000001 6.0000004 6.000001h72c3.324 0 6.000002-2.676 6.000002-6.000001v-5.253208c0 3.324-2.676002 5.999999-6.000002 5.999999h-72c-3.3240004 0-6.0000004-2.675999-6.0000004-5.999999z" fill="#fff" opacity=".3"/><path d="m5.9999996 66.996373v5.24796c0 3.324 2.676023 6 6.0000504 6h72.000611c3.324028 0 6.00005-2.676 6.00005-6v-5.24796c0 3.324-2.676022 6-6.00005 6h-72.000611c-3.3240274 0-6.0000504-2.676-6.0000504-6z" opacity=".3"/><path d="m5.9985766 61.740993v5.25321c0 3.324 2.676023 6 6.0000514 6h72.000603c3.324028 0 6.00006-2.676 6.00006-6v-5.25321c0 3.324-2.676032 6-6.00006 6h-72.000603c-3.3240284 0-6.0000514-2.676-6.0000514-6z" fill="#fff" opacity=".3"/><path d="m5.9985766 56.496108v5.24796c0 3.324 2.676023 5.999999 6.0000514 5.999999h72.000611c3.32403 0 6.00005-2.675999 6.00005-5.999999v-5.24796c0 3.324-2.67602 6-6.00005 6h-72.000611c-3.3240284 0-6.0000514-2.676-6.0000514-6z" opacity=".3"/></g></svg>