<svg height="16" width="16" xmlns="http://www.w3.org/2000/svg" xmlns:xlink="http://www.w3.org/1999/xlink"><linearGradient id="a"><stop offset="0" stop-color="#fff"/><stop offset="1" stop-color="#fff" stop-opacity="0"/></linearGradient><linearGradient id="b" gradientUnits="userSpaceOnUse" x1="36.357143" x2="36.357143" xlink:href="#a" y1="6" y2="63.893143"/><radialGradient id="c" cx="48" cy="90.171875" gradientTransform="matrix(1.1573129 0 0 .99590774 -7.551021 .197132)" gradientUnits="userSpaceOnUse" r="42" xlink:href="#a"/><linearGradient id="d" gradientUnits="userSpaceOnUse" x1="48" x2="48" y1="90" y2="5.987717"><stop offset="0" stop-color="#697890"/><stop offset="1" stop-color="#a4b4c2"/></linearGradient><linearGradient id="e" gradientUnits="userSpaceOnUse" x1="48.233639" x2="126.13924" xlink:href="#f" y1="48.047016" y2="66.232674"/><linearGradient id="f"><stop offset="0"/><stop offset="1" stop-opacity="0"/></linearGradient><linearGradient id="g" gradientUnits="userSpaceOnUse" x1="48.055065" x2="126.67282" xlink:href="#f" y1="48.031517" y2="62.838562"/><linearGradient id="h" gradientUnits="userSpaceOnUse" x1="47.997307" x2="127.05216" xlink:href="#f" y1="48.028725" y2="60.289631"/><linearGradient id="i" gradientUnits="userSpaceOnUse" x1="47.99826" x2="127.41583" xlink:href="#f" y1="48.028797" y2="57.664623"/><linearGradient id="j" gradientUnits="userSpaceOnUse" x1="48.233643" x2="126.13924" xlink:href="#a" y1="48.04702" y2="66.232674"/><linearGradient id="k" gradientUnits="userSpaceOnUse" x1="48.055069" x2="126.67282" xlink:href="#a" y1="48.031521" y2="62.838566"/><linearGradient id="l" gradientUnits="userSpaceOnUse" x1="47.997311" x2="127.05216" xlink:href="#a" y1="48.028728" y2="60.289635"/><linearGradient id="m" gradientUnits="userSpaceOnUse" x1="47.998264" x2="127.41583" xlink:href="#a" y1="48.028801" y2="57.664627"/><clipPath id="n"><path d="m30.916245 135.971c-.937266.54113-1.228304 1.74752-.677924 2.7008l1.9375 3.35585c-1.418086 1.4141-2.622273 3.01198-3.595451 4.71l-3.783634-.99095c-.531629-.14245-1.037926-.11751-1.476221.13061-.438159.24835-.796545.66758-.936598 1.19027l-1.978825 7.38507c-.280102 1.04538.365953 2.06538 1.429126 2.35032l3.772195 1.03363c-.0062 1.95711.237711 3.94301.758755 5.87671l-3.355849 1.9375c-.95328.55037-1.304431 1.74066-.763301 2.67792l3.8125 6.60344c.54113.93727 1.747521 1.2283 2.700801.67793l3.355849-1.9375c1.414106 1.41808 3.011983 2.62227 4.709995 3.59545l-.990945 3.78363c-.284894 1.06325.275431 2.13275 1.320874 2.41282l7.385075 1.97883c1.045371.28011 2.065425-.36588 2.35032-1.42913l1.033633-3.77219c1.957118.006 3.943015-.23771 5.876701-.75876l1.9375 3.35585c.550375.95328 1.740658 1.30443 2.677924.7633l6.603444-3.8125c.937258-.54113 1.228299-1.74752.677924-2.7008l-1.9375-3.35585c1.418087-1.4141 2.622272-3.01197 3.595452-4.70999l3.783633.99094c1.063244.2849 2.132709-.27549 2.41282-1.32087l1.978825-7.38508c.280102-1.04537-.365953-2.06538-1.429127-2.35032l-3.772195-1.03363c.0062-1.95711-.237701-3.94301-.758754-5.8767l3.355848-1.9375c.953272-.55037 1.304431-1.74066.763301-2.67793l-3.8125-6.60344c-.54113-.93726-1.747529-1.2283-2.700801-.67792l-3.355849 1.9375c-1.414093-1.4181-3.011984-2.62228-4.709995-3.59546l.990945-3.78363c.284894-1.06324-.275422-2.13275-1.320874-2.41282l-7.385074-1.97882c-1.045381-.28011-2.065426.36588-2.35032 1.42912l-1.033633 3.7722c-1.95712-.006-3.943015.2377-5.876702.75875l-1.9375-3.35585c-.55038-.95328-1.740666-1.30442-2.677924-.7633zm10.051722 9.7851c6.696096-3.866 15.258361-1.57175 19.124356 5.12435s1.57174 15.25836-5.124356 19.12436c-6.696096 3.86599-15.258361 1.57174-19.124356-5.12436s-1.57174-15.25836 5.124356-19.12435z" display="block"/></clipPath><linearGradient id="o" gradientTransform="matrix(.2665943 0 0 .26659429 1.601739 1.98485)" gradientUnits="userSpaceOnUse" x1="20.758585" x2="20.758585" y1="1" y2="45.017357"><stop offset="0" stop-color="#f0f0f0"/><stop offset="1" stop-color="#aaa"/></linearGradient><g transform="matrix(.19047619 0 0 .19047619 -1.142857 -1.142857)"><rect fill="url(#d)" height="84" rx="6" width="84" x="6" y="6"/><path d="m12 90c-3.324 0-6-2.676-6-6v-2-68-2c0-.334721.04135-.6507.09375-.96875.0487-.295596.09704-.596915.1875-.875.00988-.03038.020892-.0636.03125-.09375.098865-.287771.2348802-.547452.375-.8125.1445918-.273507.3156161-.535615.5-.78125s.3737765-.473472.59375-.6875c.439947-.428056.94291-.814526 1.5-1.09375.278545-.139612.5734731-.246947.875-.34375-.2562018.100222-.4867109.236272-.71875.375-.00741.0044-.023866-.0045-.03125 0-.031933.0193-.062293.04251-.09375.0625-.120395.0767-.2310226.163513-.34375.25-.1061728.0808-.2132809.161112-.3125.25-.1779299.161433-.3474596.345388-.5.53125-.1075789.130255-.2183939.265285-.3125.40625-.025089.03838-.038446.08587-.0625.125-.064763.103032-.1302275.204517-.1875.3125-.1010083.194706-.2056748.415701-.28125.625-.00796.02181-.023589.04055-.03125.0625-.0318251.09195-.0358045.186831-.0625.28125-.0303323.106618-.0703894.203031-.09375.3125-.0728786.341512-.125.698205-.125 1.0625v2 64.7535 2c0 2.781848 2.2181517 5 5 5h2 68 2c2.781848 0 5-2.218152 5-5v-2-64.7535-2c0-.364295-.05212-.720988-.125-1.0625-.04415-.206893-.08838-.397658-.15625-.59375-.0077-.02195-.0233-.04069-.03125-.0625-.06274-.173739-.138383-.367449-.21875-.53125-.04158-.0828-.07904-.169954-.125-.25-.0546-.09721-.126774-.18835-.1875-.28125-.09411-.140965-.204921-.275995-.3125-.40625-.143174-.17445-.303141-.346998-.46875-.5-.01117-.0102-.01998-.02115-.03125-.03125-.138386-.125556-.285091-.234436-.4375-.34375-.102571-.07315-.204318-.153364-.3125-.21875-.0074-.0045-.02384.0044-.03125 0-.232039-.138728-.462548-.274778-.71875-.375.301527.0968.596455.204138.875.34375.55709.279224 1.060053.665694 1.5 1.09375.219973.214028.409366.441865.59375.6875s.355408.507743.5.78125c.14012.265048.276135.524729.375.8125.01041.03078.02133.06274.03125.09375.09046.278085.1388.579404.1875.875.0524.31805.09375.634029.09375.96875v2 68 2c0 3.324-2.676 6-6 6z" fill="url(#c)" opacity=".2"/><path d="m12 6c-3.324 0-6 2.676-6 6v2 68 2c0 .334721.04135.6507.09375.96875.0487.295596.09704.596915.1875.875.00988.03038.020892.0636.03125.09375.098865.287771.2348802.547452.375.8125.1445918.273507.3156161.535615.5.78125s.3737765.473472.59375.6875c.439947.428056.94291.814526 1.5 1.09375.278545.139612.5734731.246947.875.34375-.2562018-.100222-.4867109-.236272-.71875-.375-.00741-.0044-.023866.0045-.03125 0-.031933-.0193-.062293-.04251-.09375-.0625-.120395-.0767-.2310226-.163513-.34375-.25-.1061728-.0808-.2132809-.161112-.3125-.25-.1779299-.161433-.3474596-.345388-.5-.53125-.1075789-.130255-.2183939-.265285-.3125-.40625-.025089-.03838-.038446-.08587-.0625-.125-.064763-.103032-.1302275-.204517-.1875-.3125-.1010083-.194706-.2056748-.415701-.28125-.625-.00796-.02181-.023589-.04055-.03125-.0625-.0318251-.09195-.0358045-.186831-.0625-.28125-.0303323-.106618-.0703894-.203031-.09375-.3125-.0728786-.341512-.125-.698205-.125-1.0625v-2-64.74825-2c0-2.781848 2.2181517-5 5-5h2 68 2c2.781848 0 5 2.218152 5 5v2 64.74825 2c0 .364295-.05212.720988-.125 1.0625-.04415.206893-.08838.397658-.15625.59375-.0077.02195-.0233.04069-.03125.0625-.06274.173739-.138383.367449-.21875.53125-.04158.0828-.07904.169954-.125.25-.0546.09721-.126774.18835-.1875.28125-.09411.140965-.204921.275995-.3125.40625-.143174.17445-.303141.346998-.46875.5-.01117.0102-.01998.02115-.03125.03125-.138386.125556-.285091.234436-.4375.34375-.102571.07315-.204318.153364-.3125.21875-.0074.0045-.02384-.0044-.03125 0-.232039.138728-.462548.274778-.71875.375.301527-.0968.596455-.204138.875-.34375.55709-.279224 1.060053-.665694 1.5-1.09375.219973-.214028.409366-.441865.59375-.6875s.355408-.507743.5-.78125c.14012-.265048.276135-.524729.375-.8125.01041-.03078.02133-.06274.03125-.09375.09046-.278085.1388-.579404.1875-.875.0524-.31805.09375-.634029.09375-.96875v-2-68-2c0-3.324-2.676-6-6-6z" fill="url(#b)" opacity=".3"/></g><path d="m7.2053668 1.9483222c-.5861281 0-1.0486584.4896548-1.0486584 1.0616852v.3908045c-.1163152.0433663-.2322554.0852658-.3452104.1367815l-.2735634-.273563c-.1699579-.1699566-.426441-.3165339-.7360146-.3191569-.2716385-.0023115-.5439135.1010001-.7490417.30613l-1.1268197 1.1268193c-.4135209.4135253-.3848051 1.087181.0130266 1.4850565l.2735628.2735634c-.0515158.1129549-.093415.2288956-.1367813.3452105h-.3908046c-.572031 0-1.0616854.4625307-1.0616854 1.0486587v1.5892707c0 .5861297.4896544 1.0486584 1.0616854 1.0486584h.3908046c.043366.116315.085266.232256.1367813.345211l-.2735632.273564c-.3978694.397869-.4265835 1.071539-.013027 1.485056l1.1268197 1.126819c.4135119.413517 1.0871746.384855 1.4850563-.01303l.2735633-.273563c.1129551.05152.2288957.09342.3452109.136781v.390805c0 .572031.4625303 1.061685 1.0486584 1.061685h1.5892715c.5861272 0 1.048658-.489653 1.048658-1.061685v-.390805c.1163152-.04337.2322551-.08527.3452111-.136781l.273562.273563c.397883.397883 1.071546.426538 1.485058.01303l1.126819-1.126819c.413521-.413525.384807-1.087182-.01303-1.485056l-.273566-.273564c.05152-.112955.09342-.228896.136782-.345211h.390804c.572029 0 1.061685-.4625279 1.061685-1.0486584v-1.5892707c0-.5861288-.489655-1.0486587-1.061685-1.0486587h-.3908c-.04336-.1163149-.08527-.2322556-.13678-.3452105l.273563-.2735634c.397867-.3978684.42659-1.0715386.01303-1.4850565l-1.126823-1.1268193c-.413512-.4135101-1.087174-.3848568-1.485057.0130257l-.273564.2735634c-.112955-.0515157-.2288943-.093415-.3452095-.1367815v-.3908046c0-.5720315-.4625308-1.061685-1.048658-1.061685zm.7946358 4.1034459c1.2662699 0 2.2731784 1.006909 2.2731784 2.27318 0 1.2662693-1.0069085 2.2731789-2.2731784 2.2731789-1.2662708 0-2.2731789-1.0069096-2.2731789-2.2731789 0-1.266271 1.0069081-2.27318 2.2731789-2.27318z" display="block" opacity=".05"/><path d="m7.2053668 2.1632645c-.4640875 0-.833716.3921468-.833716.8467429v.5340994c-.2118984.0728844-.4142159.1552533-.6122601.2540227l-.3777775-.3777777c-.1399556-.1399544-.3407436-.258511-.5796932-.260536-.2130404-.0018155-.4280016.0827898-.5927201.2475095l-1.1268194 1.1268194c-.3273031.3273067-.3033542.8559973.0130267 1.1724131l.3777775.3777776c-.0987699.1980436-.1811384.4003626-.2540236.6122607h-.534099c-.4545969 0-.8467428.3696277-.8467428.8337158v1.5892707c0 .464089.3921459.8337167.8467428.8337167h.534099c.072885.2118977.1552537.4142157.2540232.6122597l-.3777775.377777c-.3164111.316412-.3403587.845114-.013027 1.172414l1.1268192 1.126819c.3272974.327302.8559937.303393 1.1724134-.01302l.3777775-.377777c.1980446.09877.4003621.181139.6122605.254022v.5341c0 .454596.3696285.846743.833716.846743h1.5892715c.4640866 0 .8337156-.392146.8337156-.846743v-.5341c.2118984-.07288.4142165-.155252.6122615-.254022l.377777.377777c.31642.31642.845115.340324 1.172413.01302l1.126819-1.126819c.327304-.327307.303355-.855997-.01303-1.172414l-.377779-.377777c.09877-.198044.181138-.400362.254024-.6122597h.534099c.454594 0 .846742-.369627.846742-.8337167v-1.5892707c0-.4640897-.392147-.8337158-.846742-.8337158h-.534095c-.072884-.2118989-.155254-.4142171-.254023-.6122607l.377778-.3777776c.316409-.3164105.340365-.8451122.01302-1.1724131l-1.126814-1.1268194c-.327297-.3272963-.855992-.3033935-1.172412.0130258l-.377779.3777776c-.198043-.098769-.4003615-.181138-.6122591-.2540223v-.5340994c0-.4545974-.369629-.8467429-.8337156-.8467429zm.7946358 3.6735614c1.3818892 0 2.4881214 1.1062325 2.4881214 2.4881222s-1.1062322 2.4881209-2.4881214 2.4881209c-1.3818893 0-2.4881215-1.1062312-2.4881215-2.4881209s1.1062322-2.4881222 2.4881215-2.4881222z" display="block" opacity=".08"/><path d="m7.2053668 2.3782072c-.3438323 0-.6187732.29179-.6187732.6318002v.6708809c-.3046938.093807-.5971983.2166183-.8727965.3647508l-.4819923-.4754788c-.1094814-.1094808-.2605627-.1939673-.4298848-.1954023-.1582658-.0013616-.3189968.0584594-.4429118.1823757l-1.1268192 1.1268194c-.2420814.2420837-.2239734.6357699.0130262.8727962l.4754788.4819923c-.1481316.2755982-.2709428.568104-.3647506.8727965h-.6708809c-.3400108 0-.6318006.2749418-.6318006.6187738v1.5892707c0 .3438329.2917898.6187746.6318006.6187746h.6708809c.093808.3046938.216619.5971988.3647506.8727958l-.4754788.481993c-.2370219.237022-.255129.630717-.013027.872796l1.1268192 1.12682c.2420785.242081.6357688.224.8727965-.01303l.4819924-.47548c.2755986.148133.5681031.270944.8727969.364751v.670881c0 .340011.2749409.6318.6187732.6318h1.5892715c.3438315 0 .6187731-.291789.6187731-.6318v-.670879c.3046934-.09381.597198-.216618.872797-.364751l.481991.475479c.237028.237028.630718.255105.872797.01303l1.126819-1.126819c.242083-.242085.223974-.635772-.01302-.872797l-.475483-.481993c.148132-.275597.270943-.568101.364751-.8727952h.670883c.340009 0 .6318-.2749409.6318-.6187746v-1.5892707c0-.3438328-.29179-.6187738-.6318-.6187738h-.670884c-.093808-.3046949-.216619-.5971999-.364751-.8727981l.475479-.4819923c.237021-.2370217.255133-.630717.01302-.8727962l-1.126814-1.1268194c-.242079-.2420783-.635769-.2240006-.872797.0130258l-.481991.4754787c-.275599-.148132-.5681032-.2709434-.8727966-.3647502v-.6708811c0-.3400113-.2749416-.6318002-.6187731-.6318002zm.7946358 3.2436764c1.4961918 0 2.7030634 1.2068721 2.7030634 2.7030645 0 1.4961908-1.2068716 2.7030629-2.7030634 2.7030629-1.4961919 0-2.7030637-1.2068721-2.7030637-2.7030629 0-1.4961924 1.2068718-2.7030645 2.7030637-2.7030645z" display="block" opacity=".2"/><path d="m7.2053668 2.5931494c-.2255746 0-.4038316.187429-.4038316.416858v.8076625c-.4033401.1074655-.787224.2703974-1.1398457.4754786l-.5796932-.5731798c-.0811163-.0811154-.1751044-.1293784-.2800763-.130268-.1049719-.0009078-.213352.0374898-.2931034.1172411l-1.1268192 1.1268193c-.1595027.1595047-.1491866.410949.0130261.5731799l.5731797.5796933c-.2050803.3526208-.3680106.7365051-.4754784 1.1398467h-.8076627c-.2294286 0-.4168578.1782575-.4168578.4038309v1.5892707c0 .2255734.1874292.4038318.4168578.4038318h.8076627c.1074678.4033423.2703981.7872246.4754784 1.1398456l-.5731797.579694c-.1622304.162231-.1725466.413675-.013027.57318l1.1268192 1.126819c.1595028.159504.4109497.149203.5731797-.01302l.5796936-.573184c.3526222.20508.7365061.368012 1.1398462.475478v.807662c0 .229429.178257.416858.4038316.416858h1.5892715c.2255722 0 .4038307-.187429.4038307-.416858v-.807662c.4033414-.107466.7872237-.270398 1.139846-.475478l.579693.573179c.16223.162231.413675.172532.57318.01302l1.12682-1.126819c.159503-.159505.149186-.410949-.01303-.57318l-.573181-.579689c.20508-.352621.368013-.7365033.475479-1.1398456h.807661c.229428 0 .416859-.1782576.416859-.4038318v-1.5892707c0-.2255734-.187431-.4038309-.416859-.4038309h-.807657c-.107465-.4033416-.270399-.7872259-.475479-1.1398467l.57318-.5796933c.16223-.1622309.172549-.4136752.01303-.5731799l-1.126824-1.1268193c-.159505-.1595044-.410949-.1492035-.573179.0130265l-.579694.5731799c-.3526213-.2050807-.7365036-.3680126-1.139845-.4754781v-.8076625c0-.229429-.1782585-.416858-.4038307-.416858zm.7946358 2.8137916c1.6115696 0 2.9180054 1.3064367 2.9180054 2.9180071s-1.3064358 2.9180059-2.9180054 2.9180059c-1.6115701 0-2.9180063-1.3064355-2.9180063-2.9180059s1.3064362-2.9180071 2.9180063-2.9180071z" display="block" opacity=".3"/><path d="m7.2053668 2.3847202c-.2255746 0-.4038316.187429-.4038316.4168584v.8076621c-.4033401.1074655-.787224.2703974-1.1398457.4754786l-.5796932-.5731793c-.0811163-.0811159-.1751044-.1293789-.2800763-.1302685-.1049719-.0009078-.213352.0374897-.2931034.1172415l-1.1268192 1.1268193c-.1595027.1595044-.1491866.4109486.0130261.5731799l.5731797.5796929c-.2050803.3526207-.3680106.7365044-.4754784 1.1398467h-.8076627c-.2294286 0-.4168578.1782575-.4168578.403831v1.5892715c0 .2255734.1874292.4038309.4168578.4038309h.8076627c.1074678.4033416.2703981.7872258.4754784 1.1398468l-.5731797.579693c-.1622304.162231-.1725466.413675-.0130266.573179l1.1268192 1.12682c.1595028.159504.4109497.149204.5731797-.01303l.5796932-.57318c.3526222.205082.7365061.368013 1.1398462.475479v.807662c0 .229429.178257.416859.4038316.416859h1.5892715c.2255722 0 .4038307-.18743.4038307-.416859v-.807662c.4033414-.107466.7872237-.270397 1.139846-.475479l.579693.57318c.16223.162231.413675.172532.57318.01303l1.12682-1.12682c.159503-.159504.149186-.410948-.01303-.573179l-.573181-.579693c.20508-.352621.368013-.7365052.475479-1.1398468h.807662c.229427 0 .416858-.1782575.416858-.4038309v-1.5892715c0-.2255727-.187431-.403831-.416858-.403831h-.807658c-.107465-.4033423-.270399-.787226-.475479-1.1398467l.57318-.5796929c.16223-.1622309.172549-.4136755.01303-.5731799l-1.126824-1.1268193c-.159505-.1595043-.410949-.149204-.573179.0130266l-.579694.5731793c-.3526221-.2050816-.7365044-.3680135-1.1398458-.4754791v-.8076621c0-.2294294-.1782577-.4168584-.4038307-.4168584zm.7946358 2.813792c1.6115696 0 2.9180054 1.3064355 2.9180054 2.9180059s-1.3064358 2.9180069-2.9180054 2.9180069c-1.6115701 0-2.9180063-1.3064365-2.9180063-2.9180069s1.3064362-2.9180059 2.9180063-2.9180059z" display="block" fill="url(#o)"/><g clip-path="url(#n)" transform="matrix(.18050482 .1042145 -.10421451 .18050482 15.794986 -25.380622)"><g opacity=".9" transform="matrix(.1413721 .99271966 -1.1651755 .12044784 96.937266 104.80532)"><path d="m108.8959 48a60.895905 60.895905 0 0 1 -6.54616 27.466658l-54.34974-27.466658z" fill="url(#e)" opacity=".05" transform="matrix(.9941105 -.1083712 .1083712 .9941105 -5.158219 5.491891)"/><path d="m108.8959 48a60.895905 60.895905 0 0 1 -4.45721 22.86887l-56.43869-22.86887z" fill="url(#g)" opacity=".07" transform="matrix(.99786084 -.06537382 .06537382 .99786084 -3.094012 3.241571)"/><path d="m108.8959 48a60.895905 60.895905 0 0 1 -3.12994 19.271878l-57.76596-19.271878z" fill="url(#h)" opacity=".1" transform="matrix(.99945136 -.0331207 .0331207 .99945136 -1.563459 1.616128)"/><path d="m108.8959 48a60.895905 60.895905 0 0 1 -2.07497 15.76102l-58.82093-15.76102z" fill="url(#i)" opacity=".05"/></g><g fill="#fff" opacity=".9" transform="matrix(1.062807 -.13087531 -.74010065 3.227468 32.525111 9.33226)"><path d="m108.8959 48a60.895905 60.895905 0 0 1 -6.54616 27.466658l-54.34974-27.466658z" fill="url(#j)" opacity=".2" transform="matrix(.9941105 -.1083712 .1083712 .9941105 -5.158219 5.491891)"/><path d="m108.8959 48a60.895905 60.895905 0 0 1 -4.45721 22.86887l-56.43869-22.86887z" fill="url(#k)" opacity=".4" transform="matrix(.99786084 -.06537382 .06537382 .99786084 -3.094012 3.241571)"/><path d="m108.8959 48a60.895905 60.895905 0 0 1 -3.12994 19.271878l-57.76596-19.271878z" fill="url(#l)" opacity=".6" transform="matrix(.99945136 -.0331207 .0331207 .99945136 -1.563459 1.616128)"/><path d="m108.8959 48a60.895905 60.895905 0 0 1 -2.07497 15.76102l-58.82093-15.76102z" fill="url(#m)" opacity=".8"/></g><g opacity=".5" transform="matrix(-.61678931 .78712829 -.78712829 -.61678931 115.001479 150.011927)"><path d="m108.8959 48a60.895905 60.895905 0 0 1 -6.54616 27.466658l-54.34974-27.466658z" fill="url(#e)" opacity=".05" transform="matrix(.9941105 -.1083712 .1083712 .9941105 -5.158219 5.491891)"/><path d="m108.8959 48a60.895905 60.895905 0 0 1 -4.45721 22.86887l-56.43869-22.86887z" fill="url(#g)" opacity=".07" transform="matrix(.99786084 -.06537382 .06537382 .99786084 -3.094012 3.241571)"/><path d="m108.8959 48a60.895905 60.895905 0 0 1 -3.12994 19.271878l-57.76596-19.271878z" fill="url(#h)" opacity=".1" transform="matrix(.99945136 -.0331207 .0331207 .99945136 -1.563459 1.616128)"/><path d="m108.8959 48a60.895905 60.895905 0 0 1 -2.07497 15.76102l-58.82093-15.76102z" fill="url(#i)" opacity=".1"/></g><g opacity=".8" transform="matrix(-.06817198 -1.0460056 2.710673 .60162586 -79.095447 179.08013)"><path d="m108.8959 48a60.895905 60.895905 0 0 1 -6.54616 27.466658l-54.34974-27.466658z" fill="url(#e)" opacity=".05" transform="matrix(.9941105 -.1083712 .1083712 .9941105 -5.158219 5.491891)"/><path d="m108.8959 48a60.895905 60.895905 0 0 1 -4.45721 22.86887l-56.43869-22.86887z" fill="url(#g)" opacity=".07" transform="matrix(.99786084 -.06537382 .06537382 .99786084 -3.094012 3.241571)"/><path d="m108.8959 48a60.895905 60.895905 0 0 1 -3.12994 19.271878l-57.76596-19.271878z" fill="url(#h)" opacity=".1" transform="matrix(.99945136 -.0331207 .0331207 .99945136 -1.563459 1.616128)"/><path d="m108.8959 48a60.895905 60.895905 0 0 1 -2.07497 15.76102l-58.82093-15.76102z" fill="url(#i)" opacity=".1"/></g><g fill="#fff" opacity=".9" transform="matrix(-1.062807 .1308753 .74010064 -3.227468 62.996694 306.66774)"><path d="m108.8959 48a60.895905 60.895905 0 0 1 -6.54616 27.466658l-54.34974-27.466658z" fill="url(#j)" opacity=".2" transform="matrix(.9941105 -.1083712 .1083712 .9941105 -5.158219 5.491891)"/><path d="m108.8959 48a60.895905 60.895905 0 0 1 -4.45721 22.86887l-56.43869-22.86887z" fill="url(#k)" opacity=".4" transform="matrix(.99786084 -.06537382 .06537382 .99786084 -3.094012 3.241571)"/><path d="m108.8959 48a60.895905 60.895905 0 0 1 -3.12994 19.271878l-57.76596-19.271878z" fill="url(#l)" opacity=".6" transform="matrix(.99945136 -.0331207 .0331207 .99945136 -1.563459 1.616128)"/><path d="m108.8959 48a60.895905 60.895905 0 0 1 -2.07497 15.76102l-58.82093-15.76102z" fill="url(#m)" opacity=".8"/></g></g><path d="m7.2053668 2.3847202c-.2255746 0-.4038316.187429-.4038316.4168584v.2084288c0-.229429.178257-.416858.4038316-.416858h1.5892715c.2255722 0 .4038307.187429.4038307.416858v-.2084288c0-.2294294-.1782585-.4168584-.4038307-.4168584zm-2.4034468.9965513c-.1049719-.0009086-.213352.0374896-.2931034.1172415l-1.1268192 1.1268193c-.1034733.103474-.1322691.2463757-.0977012.3777776.0175278-.0607845.04893-.120577.0977012-.1693488l1.1268192-1.1268193c.0797517-.0797522.1881315-.1181373.2931034-.1172411.1049719.0009086.19896.049153.2800763.130268l.5796932.5731798c.3526217-.2050812.7365056-.3680131 1.1398457-.4754786v-.2084292c-.4033401.1074655-.787224.2703974-1.1398457.4754786l-.5796932-.5731793c-.0811163-.0811159-.1751044-.1293789-.2800763-.1302685zm6.402679 0c-.103079.0029333-.205475.0491532-.286591.1302685l-.579693.5731793c-.3526223-.2050812-.7365046-.3680131-1.139846-.4754786v.2084292c.4033414.1074655.7872237.2703974 1.139846.4754786l.579693-.5731798c.16223-.1622304.413675-.1725313.57318-.013027l1.12682 1.1268193c.04877.048771.08017.1085644.0977.1693488.03458-.1314018.0057-.2743036-.0977-.3777775l-1.12682-1.1268185c-.079752-.0797522-.183512-.1201574-.286589-.1172423zm-7.3080426 2.5337151c-.1694017.314491-.3100509.6510958-.4038311 1.0030652h-.8076624c-.229429 0-.4168582.1782575-.4168582.403831v.2084291c0-.2255734.1874292-.4038309.4168582-.4038309h.8076624c.1074682-.4033416.2703985-.7872259.4754784-1.1398467zm8.2068916 0-.07165.071647c.20508.3526208.368014.7365047.475479 1.1398471h.807662c.229427 0 .416858.1782575.416858.4038309v-.2084288c0-.2255735-.187431-.4038318-.416858-.4038318h-.807659c-.093778-.3519686-.23443-.6885734-.403832-1.0030644zm-7.0149382 2.3057465c-.00124.034768-.00651.069146-.00651.104215 0 1.6115704 1.3064364 2.9180059 2.9180065 2.9180059 1.6115696 0 2.9180057-1.3064355 2.9180057-2.9180059 0-.035063-.0053-.069457-.0065-.104215-.05515 1.5630541-1.3349851 2.8137919-2.911492 2.8137919-1.5765071 0-2.8563448-1.2507378-2.911493-2.8137919zm-1.1919534 2.3057459-.5015325.508046c-.112625.112626-.1505308.265823-.1107277.403831.01872-.07116.05374-.138414.1107277-.195402l.5731798-.579694c-.026123-.04491-.046922-.09088-.071647-.136781zm8.2068916 0c-.02473.0459-.04553.09187-.07165.136781l.57318.579694c.05698.05699.09201.124249.110728.195402.0398-.138008.0018-.291205-.110728-.403831z" display="block" fill="#fff" opacity=".7"/><path d="m3.2842962 4.7946808c-.039796.1380077-.00186.2912053.1107277.4038314l.5015325.5080456c.024724-.045902.045527-.091869.071647-.1367816l-.5731795-.5796932c-.0569816-.0569881-.0920095-.1242493-.1107277-.1954022zm9.4314128 0c-.01872.071153-.05374.1384141-.110728.1954022l-.57318.5796932c.02612.044912.04692.090879.07165.1367816l.50153-.5080456c.112625-.1126256.150531-.2658237.110728-.4038314zm-4.7157064.1954022c-1.6115701 0-2.9180063 1.3064361-2.9180063 2.9180067 0 .035063.00528.069449.00651.104215.055148-1.5630557 1.3349855-2.8137925 2.9114926-2.8137925 1.5765069 0 2.8563451 1.2507368 2.9114921 2.8137925.0012-.034768.0065-.069154.0065-.104215 0-1.6115706-1.3064362-2.9180067-2.9180066-2.9180067zm-5.7317979 3.7126421v.2084292c0 .2255734.1874292.4038309.4168582.4038309h.8076624c.09378.3519694.2344294.6885738.4038311 1.0030658l.071647-.07165c-.2050796-.3526192-.3680099-.7365026-.4754781-1.1398442h-.8076624c-.229429 0-.4168582-.1782575-.4168582-.4038317zm11.4635953 0c0 .2255742-.187431.4038317-.416858.4038317h-.807662c-.107466.4033416-.270399.787225-.475479 1.1398452l.07165.07165c.169402-.314491.310053-.6510956.403831-1.003065h.807664c.229428 0 .416858-.1782575.416858-.4038309zm-10.4475038 2.5272019c-.034572.131401-.00578.274303.097701.377777l1.1268192 1.12682c.1595028.159504.4109497.149204.5731797-.01303l.5796932-.573179c.3526217.205082.7365056.368014 1.1398457.475479v-.20843c-.4033399-.107462-.7872238-.270394-1.1398455-.475476l-.5796932.57318c-.16223.16223-.4136769.172532-.5731797.01302l-1.1268192-1.126813c-.048776-.04877-.08017-.108564-.097701-.169348zm9.4314128 0c-.01753.06078-.04893.120577-.0977.169348l-1.12682 1.12682c-.159505.159505-.41095.149204-.57318-.01303l-.579693-.57318c-.3526223.205081-.7365046.368013-1.139846.475478v.208429c.4033414-.107465.7872237-.270397 1.139846-.475479l.579693.573181c.16223.16223.413675.172532.57318.01303l1.12682-1.126821c.103472-.103473.132268-.246375.0977-.377776zm-5.9141738 1.993102v.208429c0 .229429.178257.416859.4038316.416859h1.5892715c.2255722 0 .4038307-.18743.4038307-.416859v-.208429c0 .22943-.1782585.416858-.4038307.416858h-1.5892715c-.2255746 0-.4038316-.187428-.4038316-.416858z" display="block" opacity=".2"/></svg>