<svg height="16" width="16" xmlns="http://www.w3.org/2000/svg" xmlns:xlink="http://www.w3.org/1999/xlink"><linearGradient id="a" gradientTransform="matrix(.68673263 0 0 .69909319 -3.694973 22.217352)" gradientUnits="userSpaceOnUse" x1="32.891998" x2="36.358002" y1="8.059" y2="5.4565"><stop offset="0" stop-color="#77b0e2"/><stop offset="1" stop-color="#5386bb"/></linearGradient><radialGradient id="b" cx="48" cy="90.171875" gradientTransform="matrix(.2951992 0 0 .25507295 -.170779 21.999592)" gradientUnits="userSpaceOnUse" r="42" xlink:href="#c"/><linearGradient id="c"><stop offset="0" stop-color="#fff"/><stop offset="1" stop-color="#fff" stop-opacity="0"/></linearGradient><linearGradient id="d" gradientTransform="matrix(0 -.32521809 .25507296 0 1.755283 46.951309)" gradientUnits="userSpaceOnUse" x1="7.3709" x2="23.76619" y1="51.470146" y2="51.433136"><stop offset="0" stop-color="#133e6a"/><stop offset="1" stop-color="#285d96"/></linearGradient><linearGradient id="e" gradientUnits="userSpaceOnUse" x1="248.07678816" x2="248.07678816" y1="-62.6598922" y2="-98.66515562275"><stop offset="0" stop-color="#3e6c9c"/><stop offset="1" stop-color="#5587b1"/></linearGradient><linearGradient id="f" gradientTransform="matrix(.25506819 0 0 .25611082 1.7553 22.037623)" gradientUnits="userSpaceOnUse" x1="36.357143" x2="36.357143" xlink:href="#c" y1="6" y2="63.893143"/><linearGradient id="g" gradientTransform="matrix(.88394566 0 0 -.88394572 10.163169 89.361561)" gradientUnits="userSpaceOnUse" x1="32.251034" x2="32.251034" y1="6.131708" y2="90.238609"><stop offset="0"/><stop offset="1" stop-opacity=".588235"/></linearGradient><linearGradient id="h"><stop offset="0" stop-color="#fff" stop-opacity="0"/><stop offset=".15000001" stop-color="#fff"/><stop offset=".69999999" stop-color="#fff"/><stop offset="1" stop-color="#fff" stop-opacity="0"/></linearGradient><linearGradient id="i" gradientTransform="matrix(.9915504 0 0 1.2817768 -.103992 8.53492)" gradientUnits="userSpaceOnUse" x1="10" x2="69" xlink:href="#h" y1="11.5" y2="11.5"/><linearGradient id="j" gradientTransform="matrix(1.0006748 0 0 1.6167203 5.993251 -34.482435)" gradientUnits="userSpaceOnUse" x1="10" x2="69" xlink:href="#h" y1="11.5" y2="11.5"/><linearGradient id="k" gradientTransform="matrix(.55595538 0 0 1.6110931 37.625031 -98.637416)" gradientUnits="userSpaceOnUse" x1="10" x2="69" xlink:href="#h" y1="11.5" y2="11.5"/><linearGradient id="l" gradientTransform="matrix(1.1016949 0 0 1.9753813 -96.016948 -94.837768)" gradientUnits="userSpaceOnUse" x1="10" x2="69" xlink:href="#h" y1="11.5" y2="11.5"/><linearGradient id="m" gradientTransform="matrix(1.0040273 0 0 1.2817768 -.040273 18.789136)" gradientUnits="userSpaceOnUse" x1="10" x2="69" xlink:href="#h" y1="11.5" y2="11.5"/><linearGradient id="n" gradientUnits="userSpaceOnUse" x1="38" x2="78" xlink:href="#c" y1="41" y2="41"/><linearGradient id="o" gradientUnits="userSpaceOnUse" x1="38" x2="89" xlink:href="#c" y1="41" y2="41"/><linearGradient gradientTransform="scale(2.6442611 .37817748)" gradientUnits="userSpaceOnUse" x1="11.803352" x2="26.304504" xlink:href="#h" y1="128.43626" y2="128.43626"/><g transform="matrix(.7 0 0 .7 -1.8 -16.5)"><path d="m21.510559 84.057885h62.16399c3.34823 0 6.04372-2.727212 6.04372-6.114824v-39.038079l-29.09854-29.0985314h-39.10917c-3.34822 0-6.04372 2.7272114-6.04372 6.1148244v62.021786c0 3.387612 2.6955 6.114824 6.04372 6.114824z" fill="url(#g)" opacity=".63" transform="matrix(.30783438 0 0 .30783438 -2.189797 20.552665)"/><path d="m232.64822-98.6599h19.54285l13.88572 13.885715v19.542857c0 1.424571-1.14685 2.571428-2.57143 2.571428h-30.85714c-1.42458 0-2.57143-1.146857-2.57143-2.571428v-30.857144c0-1.424571 1.14685-2.571428 2.57143-2.571428z" fill="url(#e)" transform="matrix(.59517027 0 0 .59517032 -133.64915 82.293312)"/><path d="m13.460156 23.574305c1.892484 0 .741329 8.506605.741329 8.506605s10.512399-1.113452 10.512399 2.371481c0-.848902-.002-2.614157-.002-2.614157l-8.264401-8.264365z" fill-rule="evenodd" opacity=".2" stroke-width=".568812"/><path d="m4.816124 23.574285c-.84785 0-1.53041.685352-1.53041 1.536667v.51222 16.803384c1.18033 2.490796.3056 1.771939.25507.256111v-16.720555-.512224c0-.712461.56578-1.280555 1.27534-1.280555h.51014 10.61083.51014l8.00914 7.931384v.512223 10.069727c-.71794 1.883726.25505 2.133577.25505-.256112v-10.069727-.512223l-8.2642-8.27032z" fill="url(#f)" opacity=".3"/><g transform="matrix(.24824214 0 0 .24824214 1.564369 20.422799)"><path d="m9.811512 22.634466h58.501472v1.281777h-58.501472z" fill="url(#i)"/><path d="m16-16.698513h59.039818v1.61672h-59.039818z" fill="url(#j)" transform="rotate(90)"/><path d="m43.184586-80.915398h32.801369v1.611093h-32.801369z" fill="url(#k)" transform="rotate(90)"/><path d="m-85-73.108574h65v1.975381h-65z" fill="url(#l)" transform="scale(-1)"/><path d="m10 32.88868h59.23761v1.281777h-59.23761z" fill="url(#m)"/><g fill="#fff"><path d="m66.54924 29a2 2 0 0 1 -4 0 2 2 0 1 1 4 0z"/><path d="m60.54924 29a2 2 0 0 1 -4 0 2 2 0 1 1 4 0z"/><path d="m54.54924 29a2 2 0 0 1 -4 0 2 2 0 1 1 4 0z"/></g><path d="m29.167119 48.985014a3.257781 3.257781 0 1 1 -6.515562 0 3.257781 3.257781 0 1 1 6.515562 0z" fill="none" stroke="#fff" stroke-width="1.303112"/><g fill="url(#n)" transform="matrix(1.3031124 0 0 1.3031124 -6.668473 -4.442596)"><g fill="url(#n)"><path d="m31.456525 43v-3.954651h2.647848v.74756h-1.757623v.827452h1.5636v.747561h-1.5636v1.632078z"/><path d="m35.526557 43h-.850279v-3.001655h.850279zm.07989-3.869053c-.000002.155983-.05136.279625-.154078.370927-.09891.0875-.21685.131254-.353807.131251-.136958.000003-.256796-.04375-.359514-.131251-.09891-.0913-.148371-.214944-.14837-.370927-.000001-.155975.04946-.277715.14837-.36522.102718-.0913.222556-.136954.359514-.136958.136957.000004.254892.04566.353807.136958.102717.08751.154076.209245.154078.36522"/><path d="m38.134815 40.751612c-.07609-.01902-.165493-.03804-.268209-.05707-.10272-.02282-.213047-.03424-.330981-.03424-.05326.000003-.117937.0057-.194023.01712-.07229.0076-.127448.01712-.165491.02853v2.29404h-.850278v-2.841871c.152174-.05326.33098-.102715.536417-.148371.20924-.04945.441307-.07418.696201-.07418.04565.000003.100815.0038.165491.01141.06467.0038.129347.01142.194023.02283.06467.0076.129347.01902.194023.03424.06467.01142.119836.02663.165491.04565l-.142664.701908"/><path d="m39.594983 42.389397c.155978.000001.266305-.01522.330981-.04565.06467-.03043.09701-.0894.09701-.176904-.000001-.06848-.04185-.127446-.125544-.176903-.0837-.05326-.211144-.112229-.38234-.176904-.133154-.04946-.254894-.100815-.36522-.154077-.106524-.05326-.197829-.116033-.273916-.188317-.07609-.07609-.135056-.165489-.176903-.268209-.04185-.102716-.06277-.226358-.06277-.370927 0-.281521.10462-.504077.313862-.667668.20924-.163585.49647-.24538.861691-.245383.182609.000003.35761.01712.525005.05136.16739.03044.300543.06468.399459.102718l-.14837.661962c-.09892-.03424-.207341-.06467-.325275-.0913-.114133-.02663-.243482-.03994-.388046-.03995-.266308.000002-.399461.07419-.39946.222556-.000001.03424.0057.06468.01712.0913.01141.02663.03424.05326.06848.07989.03424.02283.07989.04946.136958.07989.06087.02663.136956.05707.228263.0913.186412.06848.34049.136959.462232.205436.121738.06468.216847.136959.285328.21685.07228.07609.121738.161687.148371.256795.03043.09511.04565.205438.04565.330981-.000002.296742-.112231.5212-.336687.673375-.220656.152175-.534517.228263-.941584.228263-.266307 0-.488863-.02283-.667668-.06848-.175002-.04565-.296742-.0837-.365221-.114131l.142665-.690495c.144566.05707.292936.102719.445112.136958.152174.03044.302447.04565.450819.04565"/><path d="m41.468877 39.250785.850278-.136958v.884518h1.021476v.707615h-1.021476v1.055715c-.000001.178807.03043.321471.09131.427992.06467.106524.192119.159785.38234.159784.0913.000001.18451-.0076.279621-.02283.09891-.01902.188315-.04375.268209-.07418l.119838.661961c-.10272.04185-.216852.07799-.342394.108425-.125546.03043-.279624.04565-.462232.04565-.232068 0-.424189-.03044-.576363-.09131-.152176-.06468-.273916-.152175-.365221-.262502-.0913-.114131-.15598-.251089-.194023-.410873-.03424-.159783-.05136-.336687-.05136-.530711v-2.522303"/><path d="m48.206015 41.493466c-.000003.235873-.03424.452722-.102718.650549-.06848.194024-.167395.361416-.296741.502178-.129352.136958-.285331.24348-.467939.319568-.178808.07609-.38044.114131-.604896.114131-.220656 0-.422287-.03804-.604896-.114131-.178807-.07609-.332884-.18261-.462232-.319568-.12935-.140762-.230166-.308154-.302448-.502178-.07228-.197827-.108425-.414676-.108425-.650549 0-.23587.03614-.450817.108425-.644842.07609-.194021.178805-.359511.308154-.496471.133153-.136955.289132-.243478.467939-.319568.182609-.07608.380436-.114129.593483-.114132.216847.000003.414675.03805.593483.114132.182608.07609.338587.182613.467938.319568.129346.13696.230162.30245.302449.496471.07228.194025.108421.408972.108424.644842m-.867398 0c-.000002-.2625-.05326-.467936-.159784-.616309-.10272-.152173-.251091-.228261-.445112-.228263-.194025.000002-.344298.07609-.450819.228263-.106524.148373-.159785.353809-.159784.616309-.000001.262503.05326.471744.159784.627723.106521.152175.256794.228263.450819.228262.194021.000001.342392-.07609.445112-.228262.10652-.155979.159782-.36522.159784-.627723"/><path d="m50.787791 41.521999c-.000003-.2625-.05897-.471741-.176904-.627723-.117938-.159781-.292939-.239673-.525004-.239675-.07609.000002-.14647.0038-.211143.01141-.06468.0038-.117937.0095-.159784.01712v1.535067c.05326.03424.121739.06277.205436.0856.0875.02283.175.03424.262502.03424.403262.000001.604894-.272012.604897-.816039m.867398-.02283c-.000003.232068-.02854.443211-.0856.633429-.05707.190219-.140765.353807-.251089.490765-.110329.136957-.247287.24348-.410872.319567-.163591.07609-.351908.114132-.564951.114132-.117937 0-.228264-.01141-.330981-.03424-.102718-.022822-.201632-.055159-.29674-.097007v1.1299h-.850279v-3.954651c.07609-.02282.163588-.04375.262502-.06277.09891-.02282.201632-.04185.308155-.05707.110326-.01521.220653-.02663.330981-.03424.11413-.01141.222555-.01712.325274-.01712.247283.000003.467937.03805.661962.114131.194021.07229.357609.176906.490765.313861.13315.133156.233966.296744.302448.490765.07228.194025.108422.410875.108425.650549"/></g><path d="m52.280149 39.250785.850278-.136958v.884518h1.021476v.707615h-1.021476v1.055715c-.000001.178807.03043.321471.09131.427992.06467.106524.19212.159785.38234.159784.0913.000001.184511-.0076.279622-.02283.09891-.01902.188315-.04375.268209-.07418l.119838.661961c-.102721.04185-.216852.07799-.342394.108425-.125547.03043-.279624.04565-.462232.04565-.232069 0-.42419-.03044-.576364-.09131-.152176-.06468-.273916-.152175-.36522-.262502-.09131-.114131-.15598-.251089-.194023-.410873-.03424-.159783-.05136-.336687-.05136-.530711v-2.522303" fill="url(#o)"/><path d="m55.68902 43h-.850279v-3.001655h.850279zm.07989-3.869053c-.000002.155983-.05136.279625-.154078.370927-.09891.0875-.21685.131254-.353807.131251-.136958.000003-.256796-.04375-.359514-.131251-.09891-.0913-.148371-.214944-.14837-.370927-.000001-.155975.04946-.277715.14837-.36522.102718-.0913.222556-.136954.359514-.136958.136957.000004.254893.04566.353807.136958.102717.08751.154076.209245.154078.36522" fill="url(#n)"/><path d="m59.295928 41.493466c-.000003.235873-.03424.452722-.102718.650549-.06848.194024-.167396.361416-.296742.502178-.129352.136958-.285331.24348-.467939.319568-.178807.07609-.380439.114131-.604896.114131-.220655 0-.422287-.03804-.604896-.114131-.178807-.07609-.332884-.18261-.462232-.319568-.129349-.140762-.230165-.308154-.302448-.502178-.07228-.197827-.108425-.414676-.108425-.650549 0-.23587.03614-.450817.108425-.644842.07609-.194021.178805-.359511.308155-.496471.133152-.136955.289131-.243478.467938-.319568.182609-.07608.380437-.114129.593483-.114132.216848.000003.414675.03805.593483.114132.182608.07609.338587.182613.467939.319568.129346.13696.230162.30245.302448.496471.07228.194025.108422.408972.108425.644842m-.867399 0c-.000002-.2625-.05326-.467936-.159783-.616309-.102721-.152173-.251091-.228261-.445113-.228263-.194025.000002-.344297.07609-.450819.228263-.106523.148373-.159785.353809-.159783.616309-.000002.262503.05326.471744.159783.627723.106522.152175.256794.228263.450819.228262.194022.000001.342392-.07609.445113-.228262.10652-.155979.159781-.36522.159783-.627723" fill="url(#n)"/><path d="m59.95459 40.101064c.144566-.04185.33098-.07989.559243-.114132.228262-.03804.467938-.05706.719028-.05707.254891.000003.466034.03424.633429.102718.171194.06468.30625.157884.405166.279622.09891.121742.169292.266309.211143.433699.04185.167394.06277.353809.06277.559243v1.694851h-.850279v-1.592132c-.000002-.273914-.03614-.467937-.108425-.58207-.07229-.114129-.20734-.171195-.405166-.171197-.06087.000002-.125546.0038-.194023.01141-.06848.0038-.129351.0095-.182611.01712v2.316867h-.850278v-2.898936" fill="url(#n)"/></g><path d="m51.208557 59.836975h22.140259v6.511841h-22.140259z" fill="none" stroke="#fff" stroke-dashoffset="8.6" stroke-linecap="round" stroke-width="1.302368"/><path d="m22.556456 59.836975h22.140259v6.511841h-22.140259z" fill="none" stroke="#fff" stroke-dashoffset="8.6" stroke-linecap="round" stroke-width="1.302368"/></g><path d="m3.2857204 43.048691c0 1.081025.6825752 1.951309 1.5304381 1.951309h18.3652535c.847863 0 1.530438-.870284 1.530438-1.951309v-3.762977h-21.4261296z" fill="url(#d)"/><path d="m4.816158 45c-.8478624 0-1.5304376-.68538-1.5304376-1.536727v-.595058c.010437-3.114206.255072-3.180616.255072-.256136v.512242c0 .712489.5657905 1.280605 1.2753656 1.280605h.5101471 17.3449539.510147c.709576 0 1.275366-.568116 1.275366-1.280605v-.512242c.02504-3.471899.255078-2.283853.255078.256121v.595058c-.000006.851362-.682581 1.536742-1.530444 1.536742z" fill="url(#b)" opacity=".2"/><g fill-rule="evenodd"><path d="m14.163648 23.573869c1.789201 0 .69371 7.880154.69371 7.880154s3.488495-.415245 6.314417-.05772c1.923803.243391 3.540539.844919 3.540539 2.179404 0-.802577-.000464-1.737474-.000464-1.737474l-8.264367-8.264364z" opacity=".2" stroke-width=".537769"/><path d="m15.007914 23.579044c1.685788 0 .607213 7.279305.607213 7.279305s9.099163-1.117886 9.099163 1.986428c0-.756187-.0024-1.006543-.0024-1.006543l-8.264407-8.264365z" fill="url(#a)" stroke-width=".506687"/></g></g><path d="m.50000434 11h14.99829066v1h-14.99829066z" opacity=".3"/></svg>