<svg height="16" width="16" xmlns="http://www.w3.org/2000/svg" xmlns:xlink="http://www.w3.org/1999/xlink"><linearGradient id="a"><stop offset="0" stop-color="#818181"/><stop offset=".2" stop-color="#f9f9f9"/><stop offset="1" stop-color="#dcdcdc" stop-opacity="0"/></linearGradient><linearGradient id="b"><stop offset="0" stop-color="#2f2f2f"/><stop offset=".43731192" stop-color="#fff"/><stop offset=".62138397" stop-color="#979797"/><stop offset=".7723214" stop-color="#505050"/><stop offset="1" stop-color="#e6e6e6"/></linearGradient><linearGradient id="c"><stop offset="0" stop-color="#ededed"/><stop offset="1" stop-color="#b0b0b0"/></linearGradient><linearGradient id="d"><stop offset="0" stop-color="#b4b4b4"/><stop offset=".20467032" stop-color="#646464"/><stop offset=".49567693" stop-color="#fff"/><stop offset="1" stop-color="#3c3c3c"/></linearGradient><linearGradient id="e"><stop offset="0" stop-color="#fff"/><stop offset=".48973215" stop-color="#8c8c8c"/><stop offset=".50044644" stop-color="#cfcfcf"/><stop offset=".62276787" stop-color="#fff"/><stop offset=".81696427" stop-color="#c8c8c8"/><stop offset="1" stop-color="#505050"/></linearGradient><linearGradient id="f" gradientUnits="userSpaceOnUse" x1="19.035713" x2="87.5" y1="72.744602" y2="26.173174"><stop offset="0" stop-color="#fff"/><stop offset="1" stop-color="#fff" stop-opacity="0"/></linearGradient><linearGradient id="g" gradientUnits="userSpaceOnUse" x1="6" x2="24" xlink:href="#a" y1="71.744602" y2="71.744602"/><linearGradient id="h" gradientTransform="matrix(-1 0 0 1 96 -1.255398)" gradientUnits="userSpaceOnUse" x1="6" x2="24" xlink:href="#a" y1="73" y2="73"/><linearGradient id="i" gradientUnits="userSpaceOnUse" x1="38.748035" x2="38.748035" y1="71.15395" y2="4.577759"><stop offset="0" stop-color="#dcdcdc"/><stop offset="1" stop-color="#fafafa"/></linearGradient><radialGradient id="j" cx="90" cy="90" gradientTransform="matrix(0 -1.085034 2 0 -90 186.39766)" gradientUnits="userSpaceOnUse" r="42"><stop offset="0" stop-color="#b4b4b4"/><stop offset="1" stop-color="#dcdcdc"/></radialGradient><clipPath id="k"><path d="m66 6v55c0 1.662 1.338 3 3 3h6c1.662 0 3-1.338 3-3v-55h-4v2h-4v-2z"/></clipPath><filter id="l" color-interpolation-filters="sRGB" height="1.07322" width="1.332308" x="-.166154" y="-.03661"><feGaussianBlur stdDeviation=".9"/></filter><linearGradient id="m" gradientTransform="matrix(.49408989 0 0 .70361229 2.170095 30.047972)" gradientUnits="userSpaceOnUse" x1="68.75" x2="75.25" xlink:href="#d" y1="59" y2="59"/><linearGradient id="n" gradientTransform="matrix(.50000003 0 0 .39766823 1.744565 49.119427)" gradientUnits="userSpaceOnUse" x1="63.484772" x2="79" y1="64.163078" y2="65"><stop offset="0" stop-color="#a2a2a2"/><stop offset="1" stop-color="#fff"/></linearGradient><linearGradient id="o" gradientTransform="matrix(-.43495657 0 0 .5232543 69.067063 47.346436)" gradientUnits="userSpaceOnUse" x1="68.96875" x2="75.0625" xlink:href="#c" y1="17.5" y2="17.5"/><linearGradient id="p" gradientTransform="matrix(.43495657 0 0 .5232543 6.419721 47.346436)" gradientUnits="userSpaceOnUse" x1="68.02903" x2="75.97097" xlink:href="#c" y1="17.763245" y2="17.763245"/><linearGradient id="q" gradientTransform="matrix(.56313458 0 0 .50000003 -1.95642 22.997622)" gradientUnits="userSpaceOnUse" x1="68.75" x2="72.250572" xlink:href="#d" y1="59" y2="59"/><linearGradient id="r" gradientTransform="matrix(-.53315586 0 0 .68002831 76.13179 31.824214)" gradientUnits="userSpaceOnUse" x1="69" x2="73" xlink:href="#b" y1="54" y2="54"/><linearGradient id="s" gradientTransform="matrix(-.53315586 0 0 .68002831 76.200149 27.800991)" gradientUnits="userSpaceOnUse" x1="69" x2="73" xlink:href="#b" y1="54" y2="54"/><linearGradient id="t" gradientTransform="matrix(.53315586 0 0 .68002831 -.642653 29.784131)" gradientUnits="userSpaceOnUse" x1="69" x2="73" xlink:href="#e" y1="54" y2="54"/><linearGradient id="u" gradientTransform="matrix(.53315586 0 0 .68002831 -.574294 25.760908)" gradientUnits="userSpaceOnUse" x1="69" x2="73" xlink:href="#e" y1="54" y2="54"/><g transform="matrix(.19047135 0 0 .19047135 -1.142557 -.903304)"><path d="m12 4.7446022c-3.324 0-6 2.676-6 5.9999998v72c0 3.324 2.676 6 6 6h72c3.324 0 6-2.676 6-6v-72c0-3.3239998-2.676-5.9999998-6-5.9999998h-9v3h-6v-3z" fill="url(#j)"/><path d="m6 54.744602v28c0 3.324 2.676 6 6 6h12v-34z" fill="url(#g)"/><path d="m90 54.744602v28c0 3.324-2.676 6-6 6h-12v-34z" fill="url(#h)"/><path d="m12 4.7446022c-3.324 0-6 2.676-6 5.9999998v45.615001c0 3.324 2.676 6 6 6h72c3.324 0 6-2.676 6-6v-45.615001c0-3.3239998-2.676-5.9999998-6-5.9999998h-9v3h-6v-3z" fill="url(#i)"/><path d="m12 4.7446022c-3.324 0-6 2.676-6 5.9999998l.0000005 45.476507c0 3.324 2.676 6.276988 5.9999995 6.276988h72c3.324 0 6-2.952988 6-6.276988v-45.476507c0-3.3239998-2.676-5.9999998-6-5.9999998h-9v2h9c2.245802 0 4 1.7541975 4 3.9999998v41.792302c0 2.245802-1.754198 4.184659-4 4.184659h-72c-2.245802 0-3.9999995-1.938857-3.9999995-4.184659l-.0000005-41.792302c0-2.2458023 1.7541975-3.9999998 4-3.9999998h57v-2z" fill="url(#f)" opacity=".5"/><path d="m6.0007106 77.496641v5.247959c0 3.324 2.676 6 6.0000004 6h72c3.324 0 6.000002-2.676 6.000002-6v-5.247959c0 3.324-2.676002 5.999999-6.000002 5.999999h-72c-3.3240004 0-6.0000004-2.675999-6.0000004-5.999999z" opacity=".3"/><path d="m5.9992876 72.241258v5.253208c0 3.324001 2.676 6.000001 6.0000004 6.000001h72c3.324 0 6.000002-2.676 6.000002-6.000001v-5.253208c0 3.324-2.676002 5.999999-6.000002 5.999999h-72c-3.3240004 0-6.0000004-2.675999-6.0000004-5.999999z" fill="#fff" opacity=".3"/><path d="m5.9999996 66.996373v5.24796c0 3.324 2.676023 6 6.0000504 6h72.000611c3.324028 0 6.00005-2.676 6.00005-6v-5.24796c0 3.324-2.676022 6-6.00005 6h-72.000611c-3.3240274 0-6.0000504-2.676-6.0000504-6z" opacity=".3"/><path d="m5.9985766 61.740993v5.25321c0 3.324 2.676023 6 6.0000514 6h72.000603c3.324028 0 6.00006-2.676 6.00006-6v-5.25321c0 3.324-2.676032 6-6.00006 6h-72.000603c-3.3240284 0-6.0000514-2.676-6.0000514-6z" fill="#fff" opacity=".3"/><path d="m5.9985766 56.496108v5.24796c0 3.324 2.676023 5.999999 6.0000514 5.999999h72.000611c3.32403 0 6.00005-2.675999 6.00005-5.999999v-5.24796c0 3.324-2.67602 6-6.00005 6h-72.000611c-3.3240284 0-6.0000514-2.676-6.0000514-6z" opacity=".3"/></g><g transform="matrix(.57142857393 0 0 .3696525885 -10.56832357462 -19.02741946271)"><path d="m34.744566 51.505433v21.276908c0 .830999.669 1.499999 1.499999 1.499999h3c.831001 0 1.500001-.669 1.500001-1.499999v-21.276908h-2v1.000001h-2v-1.000001z" fill="#252525"/><path d="m36.744564 52.505436h2v19.46994h-2z" fill="#4d4d4d"/><g stroke="#000" stroke-linecap="square"><rect fill="url(#m)" height="2.814449" rx=".49409" ry=".703612" stroke-opacity=".563636" stroke-width=".294808" width="2.964539" x="36.262299" y="70.153877"/><path clip-path="url(#k)" d="m66 6v41.471714c0 1.662 1.338 3 3 3h6c1.662 0 3-1.338 3-3v-41.471714h-4v2h-4v-2z" fill="none" filter="url(#l)" stroke-width="2" transform="matrix(.50000001 0 0 .50000001 1.744565 48.505434)"/><path d="m36.411677 65.145594c-.143832 0-.266578.148219-.266578.340012v2.040087c0 .191793.122748.340013.266578.340013h.533157c.143831 0 .266578-.14822.266578-.340013v-.340017h.799732c.147686 0 .266579-.151646.266579-.340013v-.68003c0-.188366-.118893-.340013-.266579-.340013h-.799732v-.340014c0-.191793-.122749-.340012-.266578-.340012z" fill="url(#t)" stroke-opacity=".563636" stroke-width=".301065"/><path d="m39.077458 67.185676c.14383 0 .266576.148223.266576.340017v2.040082c0 .191793-.122747.340015-.266576.340015h-.533157c-.143831 0-.266578-.148223-.266578-.340015v-.340012h-.799735c-.147683 0-.266576-.151646-.266576-.340014v-.68003c0-.188367.118893-.340013.266576-.340013h.799735v-.340013c0-.191794.122748-.340017.266578-.340017z" fill="url(#r)" stroke-opacity=".563636" stroke-width=".301065"/></g><path d="m34.244566 51.505433v21.871753c0 .875782.898853 1.590672 1.999999 1.590672h3c1.101148 0 2.000001-.71489 2.000001-1.590672v-21.871753h-.5v21.330312c0 .660924-.669 1.193003-1.500001 1.193003h-3c-.830999 0-1.499999-.532079-1.499999-1.193003v-21.330312z" fill="url(#n)"/><path d="m36.531437 53.113439c-.298876 0-.534671.252401-.534671.565924l-.0022 5.659252c.000009.313524.235804.565926.53468.565926h2.428458c.298875 0 .53467-.252402.53467-.565926l.0022-5.659252c0-.313523-.235796-.565924-.53467-.565924z" fill="url(#p)"/><path d="m38.851169 53.609136c.120483 0 .217478.116686.217478.261627v5.265247c0 .144942-.09699.261627-.217478.261627h-2.21556c-.120483 0-.217478-.116685-.217478-.261627v-5.265247c0-.144941.09699-.261627.217478-.261627z" fill="url(#o)"/><rect fill="url(#q)" height="2.5" rx=".281567" ry=".25" stroke="#000" stroke-linecap="square" stroke-opacity=".563636" stroke-width=".5" width="1.689404" x="36.899864" y="51.49762"/><path d="m36.480036 61.12237c-.143832 0-.266578.148219-.266578.340012v2.040087c0 .191793.122748.340013.266578.340013h.533157c.143831 0 .266578-.14822.266578-.340013v-.340017h.799732c.147686 0 .266579-.151645.266579-.340013v-.680029c0-.188366-.118893-.340013-.266579-.340013h-.799732v-.340015c0-.191793-.122749-.340012-.266578-.340012z" fill="url(#u)" stroke="#000" stroke-linecap="square" stroke-opacity=".563636" stroke-width=".301065"/><path d="m39.145817 63.162453c.14383 0 .266576.148223.266576.340016v2.040083c0 .191792-.122747.340015-.266576.340015h-.533157c-.143831 0-.266578-.148223-.266578-.340015v-.340013h-.799735c-.147683 0-.266576-.151646-.266576-.340014v-.680029c0-.188368.118893-.340014.266576-.340014h.799735v-.340013c0-.191793.122748-.340016.266578-.340016z" fill="url(#s)" stroke="#000" stroke-linecap="square" stroke-opacity=".563636" stroke-width=".301065"/></g><path d="m7.3759486 4.8584943c.009.2404301-.07016.3572616-.141711.5638562l-.128673.063989c-.105188.2044053.01045.1297682-.06489.2922777-.1644.1459895-.498175.4566776-.605055.4851386-.07812-.0017.05284-.092151.06996-.1274791-.219829.1508658-.176441.2264981-.512704.3183505l-.0098-.021991c-.828914.3901017-1.98051-.3828371-1.965385-1.4373053-.0088.066874-.02518.050156-.04349.077025-.04279-.5424601.250582-1.0873088.745373-1.3101243.483945-.2394347 1.051284-.1413123 1.397698.1820143-.190273-.2493862-.569328-.5137996-1.018244-.4893188-.439959.00716-.851656.2867052-.988987.5903274-.225304.1418098-.251576.5469381-.349699.6211768-.132256.9712734.248492 1.3907319.892657 1.88443.101107.068268.02846.078716.042.1306639-.213959-.1001128-.409806-.2513766-.571021-.4365756.08558.1250915.177834.2466995.297154.3422346-.201918-.068169-.471506-.4889207-.550024-.5060375.347808.6227692 1.410934 1.0921853 1.967923.8592187-.257746.00955-.585052.00528-.874444-.1017052-.121907-.062595-.287004-.1920653-.257447-.2162476.759902.2837194 1.544683.2147554 2.202083-.3121805.167386-.1303657.350097-.3519876.402939-.3549729-.07951.1196181.01364.05752-.04747.1631064.16639-.2687916-.07255-.1094675.172162-.4641413l.09036.1243945c-.03383-.2233129.277151-.4941947.245505-.8470778.07135-.1078749.07951.1162344.0039.3644265.104989-.2753601.02776-.3196443.05463-.5469381.02896.076428.06747.1575333.08708.2382404-.06847-.2662043.06996-.4481191.104392-.602866-.03404-.014927-.105586.117628-.122106-.1966431.0025-.1365356.03811-.071552.05175-.1051879-.02667-.015424-.09703-.1201158-.13972-.3208388.03075-.04727.0828.122305.124991.1291717-.02717-.1595237-.07384-.2812316-.07583-.4037359-.123399-.2577455-.04369.034432-.143601-.1106613-.131361-.4094074.10887-.095037.125191-.2809322.198833.2880975.312181.7349228.364427.9199223-.03981-.2256015-.103995-.4442377-.182513-.6557084.06061.025575-.09742-.4640419.07872-.1398195-.18803-.6911367-.803933-1.3369935-1.370676-1.6399197.06916.063392.156638.1430042.12539.1555433-.282027-.1676839-.232468-.1809197-.272872-.2517746-.229384-.093445-.244709.00766-.39647.0001949-.432894-.2296823-.516288-.2053006-.914649-.3490017l.01811.084788c-.286704-.095535-.334073.036024-.643866.0001948-.01881-.01463.09932-.053341.196643-.067372-.277251.036622-.264314-.054734-.535593.01005.06677-.046872.137629-.07802.208883-.1178263-.226.013735-.539773.1315599-.442944.024282-.368706.1645989-1.023619.395575-1.391131.7401976l-.011543-.077224c-.168381.2021167-.734327.6036625-.779407.8656872l-.04508.010448c-.08747.1483783-.144298.3164602-.21376.4690175-.114542.1953497-.167982.075234-.151661.1058849-.225403.4569759-.337558.8409076-.434188 1.1559742.06887.1029987.0017.6201824.02767 1.0340677-.11304971 2.0444511 1.434817 4.0292913 3.126784 4.4874631.247993.08887.616699.08568.930372.09444-.369999-.105885-.417767-.05603-.778412-.181717-.260033-.122606-.316956-.2624252-.50126-.4223462l.07295.1288724c-.36125-.1278773-.210086-.1582288-.504055-.2512755l.07792-.1016055c-.11713-.00896-.31019-.1972404-.362933-.3018314l-.128177.00508c-.153851-.1896786-.235952-.3267115-.229881-.4328952l-.0414.073841c-.046871-.0805089-.566342-.7123332-.296855-.5652496-.050056-.0455763-.116632-.0743372-.188781-.2055991l.05483-.062596c-.129468-.1668875-.238637-.3807462-.230278-.452.06916.093346.11713.1108606.164699.1268825-.327505-.8124457-.345915-.044685-.593809-.8269752l.05234-.00418c-.0401-.060808-.06468-.1263887-.09693-.1909742l.02289-.2273931c-.235649-.2722737-.065875-1.1588597-.031739-1.6449943.023383-.1976376.196743-.4081132.328401-.7382072l-.08021-.013737c.153454-.2674981.875938-1.0746699 1.210709-1.0332715.162111-.2036089-.03224-.000809-.06399-.051947.356167-.3685067.468122-.2603332.708453-.3267099.259039-.153752-.222418.060107-.09962-.058615.448119-.1143433.317455-.260134.901911-.3181518.0617.03503-.143004.054136-.194355.099615.373184-.1827115 1.181153-.1410145 1.706197.1013062.608738.2847146 1.293108 1.1259204 1.320176 1.9173687l.03075.00826c-.01553.3146687.04816.6785977-.0624 1.0127716l.07474-.1583293" fill="#d70751" stroke="#d70751" stroke-width=".089864"/></svg>