<svg height="16" width="16" xmlns="http://www.w3.org/2000/svg" xmlns:xlink="http://www.w3.org/1999/xlink"><linearGradient id="a" gradientTransform="matrix(.68673263 0 0 .69909319 -3.694973 22.217352)" gradientUnits="userSpaceOnUse" x1="32.891998" x2="36.358002" y1="8.059" y2="5.4565"><stop offset="0" stop-color="#ba8046"/><stop offset="1" stop-color="#a3622c"/></linearGradient><radialGradient id="b" cx="48" cy="90.171875" gradientTransform="matrix(.2951992 0 0 .25507295 -.170779 21.999592)" gradientUnits="userSpaceOnUse" r="42" xlink:href="#c"/><linearGradient id="c"><stop offset="0" stop-color="#fff"/><stop offset="1" stop-color="#fff" stop-opacity="0"/></linearGradient><linearGradient id="d" gradientTransform="matrix(0 -.32521809 .25507296 0 1.755283 46.951309)" gradientUnits="userSpaceOnUse" x1="7.3709" x2="23.76619" y1="51.470146" y2="51.433136"><stop offset="0" stop-color="#5d3815"/><stop offset="1" stop-color="#774f14"/></linearGradient><linearGradient id="e" gradientUnits="userSpaceOnUse" x1="248.07678816" x2="248.07678816" y1="-62.6598922" y2="-98.66515562275"><stop offset="0" stop-color="#97582e"/><stop offset="1" stop-color="#a76c44"/></linearGradient><linearGradient id="f" gradientTransform="matrix(.4285717 0 0 .43033246 227.50536 -101.24189)" gradientUnits="userSpaceOnUse" x1="36.357143" x2="36.357143" xlink:href="#c" y1="6" y2="63.893143"/><linearGradient id="g" gradientTransform="matrix(.88394566 0 0 -.88394572 10.163169 89.361561)" gradientUnits="userSpaceOnUse" x1="32.251034" x2="32.251034" y1="6.131708" y2="90.238609"><stop offset="0"/><stop offset="1" stop-opacity=".588235"/></linearGradient><linearGradient id="h" gradientTransform="matrix(1.0028706 0 0 .92473518 -.258364 9.404201)" gradientUnits="userSpaceOnUse" x1="48" x2="48" y1="90" y2="5.987717"><stop offset="0"/><stop offset="1" stop-color="#282828"/></linearGradient><g transform="matrix(.7 0 0 .7 -1.8 -16.5)"><path d="m21.510559 84.057885h62.16399c3.34823 0 6.04372-2.727212 6.04372-6.114824v-39.038079l-29.09854-29.0985314h-39.10917c-3.34822 0-6.04372 2.7272114-6.04372 6.1148244v62.021786c0 3.387612 2.6955 6.114824 6.04372 6.114824z" fill="url(#g)" opacity=".63" transform="matrix(.30783438 0 0 .30783438 -2.189797 20.552665)"/><g transform="matrix(.59517027 0 0 .59517032 -133.64915 82.293312)"><path d="m232.64822-98.6599h19.54285l13.88572 13.885715v19.542857c0 1.424571-1.14685 2.571428-2.57143 2.571428h-30.85714c-1.42458 0-2.57143-1.146857-2.57143-2.571428v-30.857144c0-1.424571 1.14685-2.571428 2.57143-2.571428z" fill="url(#e)"/><path d="m232.64822-98.6599c-1.42457 0-2.57143 1.151568-2.57143 2.581998v.860662 28.234034c1.98322 4.185183.51348 2.977317.42857.430332v-28.09486-.860668c0-1.197119.95064-2.151664 2.14286-2.151664h.85715 17.82858.85715l13.45714 13.326778v.860667 16.919747c-1.2063 3.165148.42855 3.584963.42855-.430333v-16.919747-.860668l-13.88571-13.896278z" fill="url(#f)" opacity=".3"/></g><path d="m11.793352 14.280276c-3.6177143 0-6.0338738 2.97006-6.0338738 6.219065v58.803007h15.9074858l.000001-2.444601c0-1.072272.820394-1.931414 1.840589-1.931414h47.881019c1.020192 0 1.840588.859142 1.840588 1.931414l-.000001 2.444601h16.770998v-30.375387l-21.234264-22.320236-45.114779-.672824c-1.098555-.016383-1.984151-.923376-1.984151-2.078131v-9.575494zm-2.0855601 11.754964h7.8635121v5.882503h-7.8635121zm0 11.765006h7.8635121v5.882503h-7.8635121zm13.7997601-3.008557h47.88102c1.020194 0 1.840588.681202 1.840588 1.526298l.000001 27.330817c0 .845095-.820394 1.526298-1.840588 1.526298h-47.881019c-1.020195 0-1.840589-.681203-1.840589-1.526298l-.000001-27.330817c0-.845096.820394-1.526298 1.840588-1.526298zm-13.7997601 14.774121h7.8635121v5.882504h-7.8635121zm67.9632091-.0011 8.318002.0011v5.882504l-8.318002-.0011zm-67.9632091 11.766107h7.8635121v5.881945h-7.8635121zm67.9632091-.0011 8.318002.0011v5.881945l-8.318002-.0011zm-67.9632091 11.765548h7.8635121v6.196134h-7.8635121zm67.9632091-.0011 8.318002.0011v6.196134l-8.318002-.0011z" fill="url(#h)" opacity=".525" transform="matrix(.25433929 0 0 .24285094 1.816641 20.105889)"/><path d="m13.460156 23.574305c1.892484 0 .741329 8.506605.741329 8.506605s10.512399-1.113452 10.512399 2.371481c0-.848902-.002-2.614157-.002-2.614157l-8.264401-8.264365z" fill-rule="evenodd" opacity=".2" stroke-width=".568812"/><path d="m3.2857204 43.048691c0 1.081025.6825752 1.951309 1.5304381 1.951309h18.3652535c.847863 0 1.530438-.870284 1.530438-1.951309v-3.762977h-21.4261296z" fill="url(#d)"/><path d="m4.816158 45c-.8478624 0-1.5304376-.68538-1.5304376-1.536727v-.595058c.010437-3.114206.255072-3.180616.255072-.256136v.512242c0 .712489.5657905 1.280605 1.2753656 1.280605h.5101471 17.3449539.510147c.709576 0 1.275366-.568116 1.275366-1.280605v-.512242c.02504-3.471899.255078-2.283853.255078.256121v.595058c-.000006.851362-.682581 1.536742-1.530444 1.536742z" fill="url(#b)" opacity=".2"/><path d="m14.163648 23.573869c1.789201 0 .69371 7.880154.69371 7.880154s3.488495-.415245 6.314417-.05772c1.923803.243391 3.540539.844919 3.540539 2.179404 0-.802577-.000464-1.737474-.000464-1.737474l-8.264367-8.264364z" fill-rule="evenodd" opacity=".2" stroke-width=".537769"/><path d="m15.007914 23.579044c1.685788 0 .607213 7.279305.607213 7.279305s9.099163-1.117886 9.099163 1.986428c0-.756187-.0024-1.006543-.0024-1.006543l-8.264407-8.264365z" fill="url(#a)" fill-rule="evenodd" stroke-width=".506687"/><g fill="#fff" transform="matrix(.25595235 0 0 .25595235 -10.798575 16.707247)"><path d="m87.148299 52.937418v17.077167l13.887891-8.538584z"/><path d="m87.039916 52.270341a.66004487.67707464 0 0 0 -.541915.667077v17.077167a.66004487.67707464 0 0 0 .997125.578134l13.894714-8.538584a.66004487.67707464 0 0 0 0-1.156267l-13.894714-8.538583a.66004487.67707464 0 0 0 -.45521-.08894z" opacity=".2"/><path d="m87.169976 51.469849c-.875323-.02408-1.554641.863371-1.430657 1.731061v17.013798c.117438.993031 1.318802 1.597029 2.145986 1.045087 4.661655-2.85881 9.313852-5.735302 13.981415-8.583055.65547-.477314.82602-1.518841.26012-2.134646-.50983-.510588-1.20644-.796296-1.80114-1.205008-4.18291-2.570554-8.365941-5.140904-12.548779-7.711586-.190213-.0967-.401378-.116541-.606945-.155651z" opacity=".05"/></g></g><path d="m.50000434 11h14.99829066v1h-14.99829066z" opacity=".3"/></svg>