<svg height="16" width="16" xmlns="http://www.w3.org/2000/svg" xmlns:xlink="http://www.w3.org/1999/xlink"><linearGradient id="a"><stop offset="0"/><stop offset="1" stop-opacity="0"/></linearGradient><linearGradient id="b" gradientTransform="matrix(.68673263 0 0 .69909319 -3.694973 22.217352)" gradientUnits="userSpaceOnUse" x1="32.891998" x2="36.358002" y1="8.059" y2="5.4565"><stop offset="0" stop-color="#f0f0f0"/><stop offset="1" stop-color="#b0b0b0"/></linearGradient><radialGradient id="c" cx="48" cy="90.171875" gradientTransform="matrix(.2951992 0 0 .25507295 -.170779 21.999592)" gradientUnits="userSpaceOnUse" r="42" xlink:href="#d"/><linearGradient id="d"><stop offset="0" stop-color="#fff"/><stop offset="1" stop-color="#fff" stop-opacity="0"/></linearGradient><linearGradient id="e" gradientTransform="matrix(0 -.32521809 .25507296 0 1.755283 46.951309)" gradientUnits="userSpaceOnUse" x1="7.3709" x2="23.76619" y1="51.470146" y2="51.433136"><stop offset="0" stop-color="#724c25"/><stop offset="1" stop-color="#866038"/></linearGradient><linearGradient id="f" gradientUnits="userSpaceOnUse" x1="248.07678816" x2="248.07678816" y1="-62.6598922" y2="-98.66515562275"><stop offset="0" stop-color="#e0e0e0"/><stop offset="1" stop-color="#f0f0f0"/></linearGradient><linearGradient id="g" gradientTransform="matrix(.25506819 0 0 .25611082 1.7553 22.037623)" gradientUnits="userSpaceOnUse" x1="36.357143" x2="36.357143" xlink:href="#d" y1="6" y2="63.893143"/><linearGradient id="h" gradientTransform="matrix(.88394566 0 0 -.88394572 10.163169 89.361561)" gradientUnits="userSpaceOnUse" x1="32.251034" x2="32.251034" y1="6.131708" y2="90.238609"><stop offset="0"/><stop offset="1" stop-opacity=".588235"/></linearGradient><radialGradient id="i" cx="18.557627" cy="22.300018" gradientTransform="matrix(2.1157858 0 0 1.5475939 -13.456982 9.888744)" gradientUnits="userSpaceOnUse" r="19.2292"><stop offset="0" stop-color="#937c63"/><stop offset="1" stop-color="#291f19"/></radialGradient><linearGradient id="j" gradientUnits="userSpaceOnUse" x1="40.07646983167" x2="26.78448572519" xlink:href="#a" y1="51.71546280094" y2="54.35276132001"/><linearGradient id="k" gradientUnits="userSpaceOnUse" x1="23.91064047188" x2="53.21810093427" xlink:href="#d" y1="40.59361083532" y2="73.86256230983"/><radialGradient id="l" cx="22.33046590394" cy="39.90528641078" gradientUnits="userSpaceOnUse" r="7.0683807147" xlink:href="#m"/><linearGradient id="m"><stop offset="0" stop-color="#fff"/><stop offset="1" stop-color="#b9b9b0"/></linearGradient><radialGradient id="n" cx="6.024219" cy="25.271027" gradientTransform="matrix(.95183294 -.549541 .64140465 1.1109468 -10.558153 20.872304)" gradientUnits="userSpaceOnUse" r="4.831029"><stop offset="0" stop-color="#5b676b"/><stop offset="1" stop-color="#141718"/></radialGradient><linearGradient id="o" gradientTransform="matrix(.95526818 -.71548351 .71548351 .95526818 -12.184704 26.530736)" gradientUnits="userSpaceOnUse" x1="6.305153" x2="5.984629" xlink:href="#d" y1="23.362427" y2="31.57"/><radialGradient id="p" cx="32.35217386" cy="39.8388560416" gradientUnits="userSpaceOnUse" r="8.2976624679" xlink:href="#m"/><linearGradient id="q" gradientUnits="userSpaceOnUse" x1="-12.287321" x2="-21.551067" y1="21.117612" y2="13.060211"><stop offset="0" stop-color="#6e3d09"/><stop offset=".24242425" stop-color="#ea8113"/><stop offset=".62121212" stop-color="#5c3307"/><stop offset="1" stop-color="#e07c12"/></linearGradient><linearGradient id="r" gradientUnits="userSpaceOnUse" x1="-27.012215" x2="-23.297619" y1="28.198475" y2="31.635975"><stop offset="0" stop-color="#bdbdbd"/><stop offset=".33333334" stop-color="#e2e2e2"/><stop offset=".66666669" stop-color="#a3a3a3"/><stop offset="1" stop-color="#ddd"/></linearGradient><radialGradient id="s" cx="15.415101" cy="35.356506" gradientTransform="matrix(1.572694 0 0 1.532639 -55.36682 -21.35823)" gradientUnits="userSpaceOnUse" r="7.579156"><stop offset="0" stop-color="#696969"/><stop offset="1"/></radialGradient><linearGradient id="t" gradientTransform="matrix(.755165 .395143 -.395143 .755165 -25.91245 6.532586)" gradientUnits="userSpaceOnUse" x1="13.236155" x2="7.752109" xlink:href="#d" y1="37.752247" y2="42.282146"/><linearGradient id="u" gradientUnits="userSpaceOnUse" x1="37.27097421696" x2="35.08201581357" xlink:href="#a" y1="54.23850479268" y2="54.7659647352"/><g transform="matrix(.7 0 0 .7 -1.8 -16.5)"><path d="m21.510559 84.057885h62.16399c3.34823 0 6.04372-2.727212 6.04372-6.114824v-39.038079l-29.09854-29.0985314h-39.10917c-3.34822 0-6.04372 2.7272114-6.04372 6.1148244v62.021786c0 3.387612 2.6955 6.114824 6.04372 6.114824z" fill="url(#h)" opacity=".63" transform="matrix(.30783438 0 0 .30783438 -2.189797 20.552665)"/><path d="m232.64822-98.6599h19.54285l13.88572 13.885715v19.542857c0 1.424571-1.14685 2.571428-2.57143 2.571428h-30.85714c-1.42458 0-2.57143-1.146857-2.57143-2.571428v-30.857144c0-1.424571 1.14685-2.571428 2.57143-2.571428z" fill="url(#f)" transform="matrix(.59517027 0 0 .59517032 -133.64915 82.293312)"/><g transform="matrix(.27983457 0 0 .27983457 2.111716 20.129883)"><path d="m18.42722 32.665404s3.43074 7.07466 11.45674 6.875074c16.81949-.421967 19.76887-9.195895 20.19084-10.461799.42197-1.265903 1.06763-1.074152 1.2169.0958 5.48559 49.79219-38.069136 28.428302-39.615959 19.947667 8.650329-2.531805 6.540493-7.384435 6.540493-7.384435z" fill="url(#i)" fill-rule="evenodd" stroke="#2e3436" stroke-miterlimit="10" stroke-width="1.193505"/><path d="m24.82849 53.6689c8.04291 1.60865 12.13877.117071 14.53591-1.733895-.63295-.817563-1.71424-1.714245-1.71424-1.714245s2.80868.780483 3.7977 2.057093c.98619 1.272954.36618 2.057253.10814 3.685985-.57457-1.430534-1.64702-1.967006-1.79222-2.535401-2.15578 2.980095-7.52677 2.856296-14.93524.240463z" fill="url(#j)" fill-rule="evenodd"/><path d="m50.16774 31.920497c-.67072 1.106253-1.67865 2.426593-3.20754 3.692405-3.14121 2.600698-8.41488 4.967782-17.04474 5.184288-5.04181.125376-8.29813-2.308417-10.29398-4.475644l-.14919 5.333475c.16245.499843.49585 1.659567-.0746 3.244842-.61383 1.705872-2.571406 3.450856-5.930217 4.774019.29877.623049.59136 1.245566 1.49188 2.125931 1.22686 1.199407 2.932491 2.492096 4.960497 3.655108 4.05606 2.326025 9.31124 4.169166 14.21017 4.251862 4.89894.0827 9.37752-1.473442 12.45721-5.967525 2.83905-4.142916 4.39506-11.156815 3.58051-21.818761z" fill="none" opacity=".185393" stroke="url(#k)" stroke-miterlimit="10" stroke-width="1.193505"/><path d="m27.18309 43.3201a4.85263 4.85263 0 1 1 -9.705256 0 4.85263 4.85263 0 1 1 9.705256 0z" fill="url(#l)" fill-rule="evenodd" stroke="#888a85" stroke-miterlimit="10" stroke-width="1.193505"/><path d="m17.516374 45.148442a7.2789429 5.1691043 54.192151 1 1 -8.384113 6.048563 7.2789429 5.1691043 54.192151 1 1 8.384113-6.048563z" fill="url(#n)" fill-rule="evenodd" stroke="#000" stroke-miterlimit="10" stroke-width="1.193505"/><path d="m25.80162 44.039002a2.3364513 2.3364513 0 1 1 -4.67289 0 2.3364513 2.3364513 0 1 1 4.67289 0z" fill="#2e3436" fill-rule="evenodd" stroke="#000" stroke-miterlimit="10" stroke-width="1.193505"/><path d="m9.488891 43.33592c-.762543.571134-1.164428 1.537452-1.128218 2.848761.03621 1.31131.553711 2.916825 1.615879 4.334964s2.457334 2.366295 3.705531 2.769843c1.24819.403548 2.28854.289656 3.05108-.281478.762541-.571134 1.165871-1.5836 1.135711-2.900973-.0302-1.317373-.53367-2.890059-1.593521-4.305112-1.05985-1.415052-2.42746-2.340535-3.683172-2.739991s-2.340748-.297148-3.10329.273986z" fill="none" opacity=".280899" stroke="url(#o)" stroke-miterlimit="10" stroke-width="1.193505"/><g fill-rule="evenodd"><path d="m13.007831 45.53542a2.1098386 2.531806 0 1 1 -4.219676 0 2.1098386 2.531806 0 1 1 4.219676 0z" fill="#fff"/><path d="m24.18407 42.960621a1.6175453 1.6175453 0 1 1 -3.23509 0 1.6175453 1.6175453 0 1 1 3.23509 0z" fill="#fff"/><path d="m38.04875 43.847554a5.696565 5.696565 0 1 1 -11.39313 0 5.696565 5.696565 0 1 1 11.39313 0z" fill="url(#p)" stroke="#888a85" stroke-miterlimit="10" stroke-width="1.193504"/><path d="m36.42704 44.691485a2.7427901 2.7427901 0 1 1 -5.48557 0 2.7427901 2.7427901 0 1 1 5.48557 0z" fill="#2e3436" stroke="#000" stroke-miterlimit="10" stroke-width="1.193505"/><path d="m34.52819 43.425582a1.898855 1.898855 0 1 1 -3.79771 0 1.898855 1.898855 0 1 1 3.79771 0z" fill="#fff"/></g><g transform="matrix(-.13707642 -.46530459 .46530459 -.13707642 35.54292 53.219391)"><g stroke-linecap="round" stroke-width="2.460453"><path d="m-23.364209 23.568336 3.710098 3.469175c8.346983-6.380847 17.0940772-20.0993736 17.0940772-20.0993736 1.97631487-2.2424123-.1169199-3.7504826-2.1649066-2.3979188 0 0-12.9703626 10.1148664-18.6392686 19.0281174z" fill="url(#q)" stroke="#673907"/><path d="m-30.449715 32.813894 2.24632 1.93382 8.492766-7.367031.275061-.705828 1.094405-.01782c-.4375-1.5625-2.941514-4.383455-4.816514-4.383455l.08202 1.090075-.669991.380027z" fill="url(#r)" stroke="#888a85"/><path d="m-23.801371 28.376767-4.364933 5.266471" fill="none" stroke="#fff" stroke-linejoin="round"/></g><path d="m-45.341208 42.769835c10.443958 0 18.370039 1.24373 19.870605-6.354738 1.209249-6.123314-7.210534-9.057368-11.38287-3.590861-4.019277 5.265971-8.487735 9.945599-8.487735 9.945599z" fill="url(#s)"/><path d="m8.8749989 37.75a1.2499999 1.2499999 0 1 1 -2.4999997 0 1.2499999 1.2499999 0 1 1 2.4999997 0z" fill="#fff" opacity=".527778" transform="matrix(2.069903 0 0 2.069903 -44.75012 -41.50978)"/><path d="m8.8749989 37.75a1.2499999 1.2499999 0 1 1 -2.4999997 0 1.2499999 1.2499999 0 1 1 2.4999997 0z" fill="#fff" transform="matrix(1.396669 0 0 1.396669 -32.05526 -25.87664)"/><path d="m-38.543723 40.909242s3.72152.0943 6.116538-1.411995c.847351-.532923 1.515774.649985.493819 1.087367-2.207394.944732-6.610357.324628-6.610357.324628z" fill="url(#t)" opacity=".427778"/></g><path d="m33.49964 55.662644c1.78711.170781 3.40104-.324888 4.0721-.565778.11721-.662855.64038-1.934978 2.44202-2.018775l-.63295-1.107664s-2.34719 1.60875-4.85262 2.083464z" fill="url(#u)" fill-rule="evenodd"/></g><path d="m13.460156 23.574305c1.892484 0 .741329 8.506605.741329 8.506605s10.512399-1.113452 10.512399 2.371481c0-.848902-.002-2.614157-.002-2.614157l-8.264401-8.264365z" fill-rule="evenodd" opacity=".2" stroke-width=".568812"/><path d="m4.816124 23.574285c-.84785 0-1.53041.685352-1.53041 1.536667v.51222 16.803384c1.18033 2.490796.3056 1.771939.25507.256111v-16.720555-.512224c0-.712461.56578-1.280555 1.27534-1.280555h.51014 10.61083.51014l8.00914 7.931384v.512223 10.069727c-.71794 1.883726.25505 2.133577.25505-.256112v-10.069727-.512223l-8.2642-8.27032z" fill="url(#g)"/><path d="m3.2857204 43.048691c0 1.081025.6825752 1.951309 1.5304381 1.951309h18.3652535c.847863 0 1.530438-.870284 1.530438-1.951309v-3.762977h-21.4261296z" fill="url(#e)"/><path d="m4.816158 45c-.8478624 0-1.5304376-.68538-1.5304376-1.536727v-.595058c.010437-3.114206.255072-3.180616.255072-.256136v.512242c0 .712489.5657905 1.280605 1.2753656 1.280605h.5101471 17.3449539.510147c.709576 0 1.275366-.568116 1.275366-1.280605v-.512242c.02504-3.471899.255078-2.283853.255078.256121v.595058c-.000006.851362-.682581 1.536742-1.530444 1.536742z" fill="url(#c)" opacity=".2"/><g fill-rule="evenodd"><path d="m14.163648 23.573869c1.789201 0 .69371 7.880154.69371 7.880154s3.488495-.415245 6.314417-.05772c1.923803.243391 3.540539.844919 3.540539 2.179404 0-.802577-.000464-1.737474-.000464-1.737474l-8.264367-8.264364z" opacity=".2" stroke-width=".537769"/><path d="m15.007914 23.579044c1.685788 0 .607213 7.279305.607213 7.279305s9.099163-1.117886 9.099163 1.986428c0-.756187-.0024-1.006543-.0024-1.006543l-8.264407-8.264365z" fill="url(#b)" stroke-width=".506687"/></g></g><path d="m.50000434 11h14.99829066v1h-14.99829066z" opacity=".3"/></svg>