<svg height="16" width="16" xmlns="http://www.w3.org/2000/svg" xmlns:xlink="http://www.w3.org/1999/xlink"><linearGradient id="a" gradientTransform="matrix(.68673263 0 0 .69909319 -3.694973 22.217352)" gradientUnits="userSpaceOnUse" x1="32.891998" x2="36.358002" y1="8.059" y2="5.4565"><stop offset="0" stop-color="#77b0e2"/><stop offset="1" stop-color="#5386bb"/></linearGradient><radialGradient id="b" cx="48" cy="90.171875" gradientTransform="matrix(.2951992 0 0 .25507295 -.170779 21.999592)" gradientUnits="userSpaceOnUse" r="42" xlink:href="#c"/><linearGradient id="c"><stop offset="0" stop-color="#fff"/><stop offset="1" stop-color="#fff" stop-opacity="0"/></linearGradient><linearGradient id="d" gradientTransform="matrix(0 -.32521809 .25507296 0 1.755283 46.951309)" gradientUnits="userSpaceOnUse" x1="7.3709" x2="23.76619" y1="51.470146" y2="51.433136"><stop offset="0" stop-color="#133e6a"/><stop offset="1" stop-color="#285d96"/></linearGradient><linearGradient id="e" gradientUnits="userSpaceOnUse" x1="248.07678816" x2="248.07678816" y1="-62.6598922" y2="-98.66515562275"><stop offset="0" stop-color="#3e6c9c"/><stop offset="1" stop-color="#5587b1"/></linearGradient><linearGradient id="f" gradientTransform="matrix(.25506819 0 0 .25611082 1.7553 22.037623)" gradientUnits="userSpaceOnUse" x1="36.357143" x2="36.357143" xlink:href="#c" y1="6" y2="63.893143"/><linearGradient id="g" gradientTransform="matrix(.88394566 0 0 -.88394572 10.163169 89.361561)" gradientUnits="userSpaceOnUse" x1="32.251034" x2="32.251034" y1="6.131708" y2="90.238609"><stop offset="0"/><stop offset="1" stop-opacity=".588235"/></linearGradient><linearGradient id="h" gradientTransform="matrix(.73312192 0 0 1 -1.55274 21.505636)" gradientUnits="userSpaceOnUse" x1="10" x2="69" xlink:href="#i" y1="11.5" y2="11.5"/><linearGradient id="i"><stop offset="0" stop-color="#fff" stop-opacity="0"/><stop offset=".15000001" stop-color="#fff"/><stop offset=".69999999" stop-color="#fff"/><stop offset="1" stop-color="#fff" stop-opacity="0"/></linearGradient><linearGradient id="j" gradientTransform="matrix(.73070346 0 0 1 20.10322 -22.778479)" gradientUnits="userSpaceOnUse" x1="10" x2="69" xlink:href="#i" y1="11.5" y2="11.5"/><linearGradient id="k" gradientTransform="matrix(.57248202 0 0 1 31.742048 -61.449356)" gradientUnits="userSpaceOnUse" x1="10" x2="69" xlink:href="#i" y1="11.5" y2="11.5"/><linearGradient id="l" gradientTransform="matrix(.71186439 0 0 1 -62.567999 -79.243309)" gradientUnits="userSpaceOnUse" x1="10" x2="69" xlink:href="#i" y1="11.5" y2="11.5"/><g transform="matrix(.7 0 0 .7 -1.8 -16.5)"><path d="m21.510559 84.057885h62.16399c3.34823 0 6.04372-2.727212 6.04372-6.114824v-39.038079l-29.09854-29.0985314h-39.10917c-3.34822 0-6.04372 2.7272114-6.04372 6.1148244v62.021786c0 3.387612 2.6955 6.114824 6.04372 6.114824z" fill="url(#g)" opacity=".63" transform="matrix(.30783438 0 0 .30783438 -2.189797 20.552665)"/><path d="m232.64822-98.6599h19.54285l13.88572 13.885715v19.542857c0 1.424571-1.14685 2.571428-2.57143 2.571428h-30.85714c-1.42458 0-2.57143-1.146857-2.57143-2.571428v-30.857144c0-1.424571 1.14685-2.571428 2.57143-2.571428z" fill="url(#e)" transform="matrix(.59517027 0 0 .59517032 -133.64915 82.293312)"/><g transform="matrix(.33840209 0 0 .33562579 2.310137 15.183216)"><path d="m5.778479 32.505634h43.254196v1h-43.254196z" fill="url(#h)" opacity=".6"/><path d="m27.410254-11.77848h43.111504v1h-43.111504z" fill="url(#j)" opacity=".6" transform="rotate(90)"/><path d="m37.466869-50.449356h33.77644v1h-33.77644z" fill="url(#k)" opacity=".6" transform="rotate(90)"/><path d="m-55.449356-68.243309h42v1h-42z" fill="url(#l)" opacity=".6" transform="scale(-1)"/><text fill="#fff" font-family="Teen" font-size="39.445328" opacity=".8" stroke-width="1.321418" x="16.77737" y="59.706261"><tspan stroke-width="1.321418" x="16.77737" y="59.706261">a</tspan></text></g><path d="m13.460156 23.574305c1.892484 0 .741329 8.506605.741329 8.506605s10.512399-1.113452 10.512399 2.371481c0-.848902-.002-2.614157-.002-2.614157l-8.264401-8.264365z" fill-rule="evenodd" opacity=".2" stroke-width=".568812"/><path d="m4.816124 23.574285c-.84785 0-1.53041.685352-1.53041 1.536667v.51222 16.803384c1.18033 2.490796.3056 1.771939.25507.256111v-16.720555-.512224c0-.712461.56578-1.280555 1.27534-1.280555h.51014 10.61083.51014l8.00914 7.931384v.512223 10.069727c-.71794 1.883726.25505 2.133577.25505-.256112v-10.069727-.512223l-8.2642-8.27032z" fill="url(#f)" opacity=".3"/><path d="m3.2857204 43.048691c0 1.081025.6825752 1.951309 1.5304381 1.951309h18.3652535c.847863 0 1.530438-.870284 1.530438-1.951309v-3.762977h-21.4261296z" fill="url(#d)"/><path d="m4.816158 45c-.8478624 0-1.5304376-.68538-1.5304376-1.536727v-.595058c.010437-3.114206.255072-3.180616.255072-.256136v.512242c0 .712489.5657905 1.280605 1.2753656 1.280605h.5101471 17.3449539.510147c.709576 0 1.275366-.568116 1.275366-1.280605v-.512242c.02504-3.471899.255078-2.283853.255078.256121v.595058c-.000006.851362-.682581 1.536742-1.530444 1.536742z" fill="url(#b)" opacity=".2"/><g fill-rule="evenodd"><path d="m14.163648 23.573869c1.789201 0 .69371 7.880154.69371 7.880154s3.488495-.415245 6.314417-.05772c1.923803.243391 3.540539.844919 3.540539 2.179404 0-.802577-.000464-1.737474-.000464-1.737474l-8.264367-8.264364z" opacity=".2" stroke-width=".537769"/><path d="m15.007914 23.579044c1.685788 0 .607213 7.279305.607213 7.279305s9.099163-1.117886 9.099163 1.986428c0-.756187-.0024-1.006543-.0024-1.006543l-8.264407-8.264365z" fill="url(#a)" stroke-width=".506687"/></g></g><path d="m.50000434 11h14.99829066v1h-14.99829066z" opacity=".3"/></svg>