<svg height="16" width="16" xmlns="http://www.w3.org/2000/svg" xmlns:xlink="http://www.w3.org/1999/xlink"><linearGradient id="a" gradientTransform="matrix(.68673263 0 0 .69909319 -3.694973 22.217352)" gradientUnits="userSpaceOnUse" x1="32.891998" x2="36.358002" y1="8.059" y2="5.4565"><stop offset="0" stop-color="#f0f0f0"/><stop offset="1" stop-color="#b0b0b0"/></linearGradient><radialGradient id="b" cx="48" cy="90.171875" gradientTransform="matrix(.2951992 0 0 .25507295 -.170779 21.999592)" gradientUnits="userSpaceOnUse" r="42" xlink:href="#c"/><linearGradient id="c"><stop offset="0" stop-color="#fff"/><stop offset="1" stop-color="#fff" stop-opacity="0"/></linearGradient><linearGradient id="d" gradientTransform="matrix(0 -.32521809 .25507296 0 1.755283 46.951309)" gradientUnits="userSpaceOnUse" x1="7.3709" x2="23.76619" y1="51.470146" y2="51.433136"><stop offset="0" stop-color="#007040"/><stop offset="1" stop-color="#008754"/></linearGradient><linearGradient id="e" gradientUnits="userSpaceOnUse" x1="248.07678816" x2="248.07678816" y1="-62.6598922" y2="-98.66515562275"><stop offset="0" stop-color="#e0e0e0"/><stop offset="1" stop-color="#f0f0f0"/></linearGradient><linearGradient id="f" gradientTransform="matrix(.4285717 0 0 .43033246 227.50536 -101.24189)" gradientUnits="userSpaceOnUse" x1="36.357143" x2="36.357143" xlink:href="#c" y1="6" y2="63.893143"/><linearGradient id="g" gradientTransform="matrix(.88394566 0 0 -.88394572 10.163169 89.361561)" gradientUnits="userSpaceOnUse" x1="32.251034" x2="32.251034" y1="6.131708" y2="90.238609"><stop offset="0"/><stop offset="1" stop-opacity=".588235"/></linearGradient><g transform="matrix(.7 0 0 .7 -1.8 -16.5)"><path d="m21.510559 84.057885h62.16399c3.34823 0 6.04372-2.727212 6.04372-6.114824v-39.038079l-29.09854-29.0985314h-39.10917c-3.34822 0-6.04372 2.7272114-6.04372 6.1148244v62.021786c0 3.387612 2.6955 6.114824 6.04372 6.114824z" fill="url(#g)" opacity=".63" transform="matrix(.30783438 0 0 .30783438 -2.189797 20.552665)"/><g transform="matrix(.59517027 0 0 .59517032 -133.64915 82.293312)"><path d="m232.64822-98.6599h19.54285l13.88572 13.885715v19.542857c0 1.424571-1.14685 2.571428-2.57143 2.571428h-30.85714c-1.42458 0-2.57143-1.146857-2.57143-2.571428v-30.857144c0-1.424571 1.14685-2.571428 2.57143-2.571428z" fill="url(#e)"/><path d="m232.64822-98.6599c-1.42457 0-2.57143 1.151568-2.57143 2.581998v.860662 28.234034c1.98322 4.185183.51348 2.977317.42857.430332v-28.09486-.860668c0-1.197119.95064-2.151664 2.14286-2.151664h.85715 17.82858.85715l13.45714 13.326778v.860667 16.919747c-1.2063 3.165148.42855 3.584963.42855-.430333v-16.919747-.860668l-13.88571-13.896278z" fill="url(#f)" opacity=".3"/></g><g transform="matrix(.4470747403 0 0 .4470747403 -46.40496812827 9.77772408129)"><path d="m116.13248 55.318558h9.099999v7.5h-9.099999z" fill="#029565" stroke-width="1.162243"/><path d="m116.15594 46.318558h9.099999v7.5h-9.099999z" fill="#029565" stroke-width="1.162243"/><path d="m116.15572 37.255558h9.099999v7.5h-9.099999z" fill="#029565" stroke-width="1.162243"/><g fill="#aaa"><path d="m140.36454 55.318556h11.88119v7.5h-11.88119z" stroke-width=".65774"/><path d="m126.97374 55.318556h11.36188v7.5h-11.36188z" stroke-width=".976956"/><path d="m140.41075 46.318556h11.84711v7.5h-11.84711z" stroke-width="1.383164"/><path d="m127.00335 46.318556h11.36187v7.5h-11.36187z" stroke-width=".976956"/></g><path d="m127.01005 37.255972h11.36189v7.5h-11.36189z" fill="#029565" stroke-width=".976956"/><path d="m51.212891 21-.244141-.703125h-1.048828l-.244141.703125h-.576172l1.003907-2.751953h.679687l1 2.751953zm-.644532-1.927734c-.01563-.04557-.03125-.09114-.04687-.136719-.01432-.04687-.02735-.08919-.03906-.126953-.01042-.03906-.01953-.07096-.02734-.0957-.0065-.02474-.01042-.03841-.01172-.04102-.0013.0039-.0052.01823-.01172.04297-.0065.02474-.01563.05599-.02734.09375-.01042.03776-.02344.08008-.03906.126953-.01432.04557-.0293.09115-.04492.136719l-.271484.791015h.791016l-.271485-.791015" fill="#fff" transform="matrix(1.9784192 0 0 1.8669118 33.178893 4.442751)"/><path d="m35.583984 29v-.408203h.681641v-1.876953l-.660156.412109v-.431641l.689453-.447265h.519531v2.34375h.630859v.408203z" fill="#fff" transform="matrix(1.9397177 0 0 1.6609478 50.300079 4.221919)"/><path d="m35.470703 36.68967v-.380859c.0625-.136719.138672-.259765.228516-.369141.08984-.110676.183593-.211588.28125-.302734.09896-.09245.196613-.177734.292968-.25586.09766-.07943.184895-.155597.261719-.228515.07812-.07422.141275-.148436.189453-.222657.04818-.07422.07227-.152993.07227-.236328-.000001-.122393-.0306-.212888-.0918-.271484-.0612-.05859-.151043-.08789-.269531-.08789-.117189.000003-.207032.0319-.269531.0957-.0612.0625-.100913.156904-.119141.283203l-.552734-.03125c.01302-.10807.03971-.209633.08008-.304687.04036-.09505.09766-.178383.171875-.25.07552-.07161.16927-.127601.28125-.167969.11328-.04166.248046-.0625.404297-.0625.148436.000003.279946.01758.394531.05273.114582.03386.210936.08399.289062.15039.07812.06641.137368.147789.177735.244141.04036.09505.06054.203778.06055.326172-.000002.128908-.02539.245444-.07617.349609-.05078.104168-.115887.200522-.195313.289063-.07943.08724-.16797.169272-.265625.246093-.09636.07682-.190105.151694-.28125.22461-.09115.07292-.17448.146485-.25.220703-.07422.07422-.129558.153646-.166015.238281h1.277343v.451172h-1.925781" fill="#fff" transform="matrix(1.8284313 0 0 1.6111875 54.467219 2.204617)"/></g><path d="m13.460156 23.574305c1.892484 0 .741329 8.506605.741329 8.506605s10.512399-1.113452 10.512399 2.371481c0-.848902-.002-2.614157-.002-2.614157l-8.264401-8.264365z" fill-rule="evenodd" opacity=".2" stroke-width=".568812"/><path d="m3.2857204 43.048691c0 1.081025.6825752 1.951309 1.5304381 1.951309h18.3652535c.847863 0 1.530438-.870284 1.530438-1.951309v-3.762977h-21.4261296z" fill="url(#d)"/><path d="m5.7998053 44.294363c-1.0006516 0-1.8155973-.825495-1.8155973-1.839096v-16.321965c0-1.013604.8149457-1.839094 1.8155973-1.839094h10.4396607l7.716277 7.816153v10.344906c0 1.013601-.814941 1.839096-1.815593 1.839096z" fill="none" stroke="#00aa6e" stroke-dasharray="1.428416 1.428416" stroke-width="1.428416"/><path d="m4.816158 45c-.8478624 0-1.5304376-.68538-1.5304376-1.536727v-.595058c.010437-3.114206.255072-3.180616.255072-.256136v.512242c0 .712489.5657905 1.280605 1.2753656 1.280605h.5101471 17.3449539.510147c.709576 0 1.275366-.568116 1.275366-1.280605v-.512242c.02504-3.471899.255078-2.283853.255078.256121v.595058c-.000006.851362-.682581 1.536742-1.530444 1.536742z" fill="url(#b)" opacity=".2"/><g fill-rule="evenodd"><path d="m14.163648 23.573869c1.789201 0 .69371 7.880154.69371 7.880154s3.488495-.415245 6.314417-.05772c1.923803.243391 3.540539.844919 3.540539 2.179404 0-.802577-.000464-1.737474-.000464-1.737474l-8.264367-8.264364z" opacity=".2" stroke-width=".537769"/><path d="m15.007914 23.579044c1.685788 0 .607213 7.279305.607213 7.279305s9.099163-1.117886 9.099163 1.986428c0-.756187-.0024-1.006543-.0024-1.006543l-8.264407-8.264365z" fill="url(#a)" stroke-width=".506687"/></g></g><path d="m.50000434 11h14.99829066v1h-14.99829066z" opacity=".3"/></svg>