<svg height="24" width="24" xmlns="http://www.w3.org/2000/svg" xmlns:xlink="http://www.w3.org/1999/xlink"><linearGradient id="a" gradientTransform="matrix(.90659037 0 0 .92290809 -5.072708 14.780623)" gradientUnits="userSpaceOnUse" x1="32.891998" x2="36.358002" y1="8.059" y2="5.4565"><stop offset="0" stop-color="#f0f0f0"/><stop offset="1" stop-color="#b0b0b0"/></linearGradient><radialGradient id="b" cx="48" cy="90.171875" gradientTransform="matrix(.38970735 0 0 .33673464 -.420242 14.493148)" gradientUnits="userSpaceOnUse" r="42" xlink:href="#c"/><linearGradient id="c"><stop offset="0" stop-color="#fff"/><stop offset="1" stop-color="#fff" stop-opacity="0"/></linearGradient><linearGradient id="d" gradientTransform="matrix(0 -.42933676 .33673468 0 2.122449 47.433164)" gradientUnits="userSpaceOnUse" x1="7.3709" x2="23.76619" y1="51.470146" y2="51.433136"><stop offset="0" stop-color="#288358"/><stop offset="1" stop-color="#479a6c"/></linearGradient><linearGradient id="e" gradientUnits="userSpaceOnUse" x1="248.07678816" x2="248.07678816" y1="-62.6598922" y2="-98.66515562275"><stop offset="0" stop-color="#e0e0e0"/><stop offset="1" stop-color="#f0f0f0"/></linearGradient><linearGradient id="f" gradientTransform="matrix(.98340354 0 0 .98744379 140.32442 12.974428)" gradientUnits="userSpaceOnUse" x1="36.357143" x2="36.357143" xlink:href="#c" y1="6" y2="63.893143"/><linearGradient id="g" gradientTransform="matrix(1.0058652 0 0 .994169 100 0)" gradientUnits="userSpaceOnUse" x1="45.447727" x2="45.447727" y1="92.539597" y2="7.01654"><stop offset="0"/><stop offset="1" stop-opacity=".588235"/></linearGradient><linearGradient id="h" gradientTransform="matrix(.90932204 0 0 -.90907903 8.945106 90.567956)" gradientUnits="userSpaceOnUse" x1="32.251034" x2="32.251034" xlink:href="#g" y1="6.131708" y2="90.238609"/><linearGradient id="i" gradientTransform="matrix(.88394566 0 0 -.88394572 10.163169 89.361561)" gradientUnits="userSpaceOnUse" x1="32.251034" x2="32.251034" xlink:href="#g" y1="6.131708" y2="90.238609"/><linearGradient id="j" gradientUnits="userSpaceOnUse" x1="56.99097658855" x2="116.92112425685" xlink:href="#k" y1="-48.80056699151" y2="-48.80056699151"/><linearGradient id="k"><stop offset="0" stop-color="#458c6d"/><stop offset="1" stop-color="#81e1be"/></linearGradient><linearGradient id="l" gradientTransform="matrix(-1.9463379 0 0 -1.9463379 13.797206 -30.526401)" gradientUnits="userSpaceOnUse" x1="-53.080975" x2="-22.28974" xlink:href="#k" y1="-7.735441" y2="-7.735441"/><g transform="matrix(.7 0 0 .7 -.8 -9.5)"><g transform="matrix(.40210864 0 0 .40210864 -2.862207 11.842456)"><path d="m20.618253 86.01187c-3.916074 0-7.105399-3.225978-7.105399-7.187076v-63.785252c0-3.961099 3.189325-7.1870759 7.105399-7.1870759h41.230022l29.823983 29.8239829v41.148345c0 3.961098-3.189315 7.187076-7.1054 7.187076z" fill="url(#h)" opacity=".329"/><path d="m21.510559 84.057885h62.16399c3.34823 0 6.04372-2.727212 6.04372-6.114824v-39.038079l-29.09854-29.0985314h-39.10917c-3.34822 0-6.04372 2.7272114-6.04372 6.1148244v62.021786c0 3.387612 2.6955 6.114824 6.04372 6.114824z" fill="url(#i)" opacity=".412"/></g><path d="m232.64822-98.6599h19.54285l13.88572 13.885715v19.542857c0 1.424571-1.14685 2.571428-2.57143 2.571428h-30.85714c-1.42458 0-2.57143-1.146857-2.57143-2.571428v-30.857144c0-1.424571 1.14685-2.571428 2.57143-2.571428z" fill="url(#e)" transform="matrix(.78571428 0 0 .78571428 -176.63176 94.08992)"/><path d="m152.12526 18.899082c-3.26883 0-5.90042 2.642396-5.90042 5.92467v1.974881 64.786007c4.55071 9.60335 1.17823 6.831772.9834.987443v-64.466657-1.974895c0-2.746917 2.18134-4.937223 4.91702-4.937223h1.96682 40.90958 1.96683l30.87884 30.579716v1.974892 38.824167c-2.76798 7.26277.98336 8.226077.98336-.987445v-38.824167-1.974895l-31.86225-31.886494z" fill="url(#f)" transform="matrix(.34241783 0 0 .34241783 -45.927136 10.099346)"/><g fill-rule="evenodd" transform="matrix(.22555773 0 0 .22555773 -5.991799 35.105574)"><path d="m57.98005-38.206933 14.791798-5.948107c.218524-1.555692 12.527114-10.96334 24.970777 2.155113l-6.75205 7.418239 24.946775-.000362.0004-25.892536-7.55822 6.718072c-6.01102-5.698435-13.391959-9.757645-21.71773-9.220365-20.464122 2.280598-26.962828 15.193587-28.68175 24.769946z" fill="url(#j)" stroke="#207c69" stroke-width="1.55707"/><path d="m92.784746-35.501425 12.098634-6.012207c-10.996559-15.044804-21.765168-10.864255-27.643301-6.844514 5.957743-2.325109 14.525721-1.516996 21.507378 6.349702z" fill="#a4fede"/><path d="m116.12165-26.064253-14.7918 5.948107c-.21852 1.555692-12.527114 10.9633397-24.970774-2.155113l6.752047-7.418239-24.946776.000362-.0004 25.8925357 7.55822-6.7180717c6.011019 5.6984347 13.39196 9.75764473 21.717731 9.2203647 20.464132-2.280598 26.962832-15.1935867 28.681752-24.7699457z" fill="url(#l)" stroke="#207c69" stroke-width="1.55707"/><path d="m81.316952-28.769761-12.098626 6.012207c10.996551 15.0448037 21.76516 10.864255 27.643293 6.844514-5.957743 2.325109-14.525721 1.516996-21.507373-6.349702z" fill="#a4fede"/><g fill="#60ad96"><path d="m60.854217-28.920875-.143819 21.8054927-1.735034 1.568545v-23.3380827z"/><path d="m113.31453-35.33397.14382-21.805491 1.73504-1.56855v23.338091z"/></g></g><path d="m17.574642 16.572005c2.498363 0 .978665 11.229997.978665 11.229997s13.877949-1.469924 13.877949 3.130712c0-1.120679-.0027-3.451081-.0027-3.451081l-10.910194-10.910204z" fill-rule="evenodd" opacity=".2" stroke-width=".750917"/><path d="m4.142857 42.281122c0 1.427115.901102 2.576021 2.0204085 2.576021h24.2448965c1.119307 0 2.020409-1.148906 2.020409-2.576021v-5.85255h-28.285714z" fill="url(#d)"/><path d="m6.1632649 44.857143c-1.1193059 0-2.0204079-.904805-2.0204079-2.02871v-.785567c.013779-4.111219.3367334-4.198891.3367334-.338138v.676237c0 .940593.7469286 1.690591 1.6836745 1.690591h.6734709 22.8979482.673471c.936746 0 1.683674-.749998 1.683674-1.690591v-.676237c.03306-4.583428.336742-3.015029.336742.338119v.785566c-.000008 1.123925-.90111 2.02873-2.020416 2.02873z" fill="url(#b)" opacity=".2"/><path d="m18.503357 16.571429c2.362014 0 .915801 10.402988.915801 10.402988s4.605338-.548185 8.335981-.0762c2.53971.321312 4.674044 1.11542 4.674044 2.877141 0-1.059522-.000612-2.293727-.000612-2.293727l-10.910209-10.910202z" fill-rule="evenodd" opacity=".2" stroke-width=".709936"/><path d="m19.617915 16.578262c2.225494 0 .801612 9.609776.801612 9.609776s12.012265-1.475777 12.012265 2.622383c0-.99828-.0032-1.328788-.0032-1.328788l-10.91023-10.910204z" fill="url(#a)" fill-rule="evenodd" stroke-width=".668903"/><g fill="#fff" transform="matrix(.44071443 0 0 .44071443 -2.816745 3.873869)"><path d="m34.916428 78.928009h7.609863v2.131348h-4.790039v2.036133h4.504394v2.131347h-4.504394v4.636231h-2.819824z"/><path d="m45.170334 78.928009h7.609863v2.131348h-4.790039v2.036133h4.504395v2.131347h-4.504395v4.636231h-2.819824z"/><path d="m63.034103 79.272247v2.314453q-.900879-.402832-1.757812-.60791-.856934-.205078-1.618652-.205078-1.010743 0-1.494141.27832-.483399.278321-.483399.864258 0 .439453.322266.688477.32959.241699 1.186524.41748l1.201171.2417q1.823731.36621 2.592774 1.113281.769043.74707.769043 2.124023 0 1.809082-1.07666 2.695313-1.069336.878906-3.273926.878906-1.040039 0-2.087402-.197754-1.047364-.197754-2.094727-.585937v-2.380372q1.047363.556641 2.021484.842286.981446.27832 1.889649.27832.922851 0 1.413574-.307617.490723-.307617.490723-.878906 0-.512696-.336914-.791016-.32959-.27832-1.325684-.498047l-1.091309-.241699q-1.640625-.351563-2.402343-1.120606-.754395-.769043-.754395-2.072754 0-1.6333 1.054688-2.512207 1.054687-.878906 3.032226-.878906.900879 0 1.853028.13916.952148.131836 1.970214.402832z"/></g></g><path d="m2.1 16h19.8v1h-19.8z" opacity=".3"/></svg>