<svg height="24" width="24" xmlns="http://www.w3.org/2000/svg" xmlns:xlink="http://www.w3.org/1999/xlink"><linearGradient id="a"><stop offset="0" stop-color="#818181"/><stop offset=".2" stop-color="#f9f9f9"/><stop offset="1" stop-color="#dcdcdc" stop-opacity="0"/></linearGradient><linearGradient id="b"><stop offset="0" stop-color="#ededed"/><stop offset="1" stop-color="#b0b0b0"/></linearGradient><linearGradient id="c"><stop offset="0" stop-color="#b4b4b4"/><stop offset=".20467032" stop-color="#646464"/><stop offset=".49567693" stop-color="#fff"/><stop offset="1" stop-color="#3c3c3c"/></linearGradient><linearGradient id="d"><stop offset="0" stop-color="#fff"/><stop offset="1" stop-color="#fff" stop-opacity="0"/></linearGradient><linearGradient id="e" gradientUnits="userSpaceOnUse" x1="23.220372" x2="91.684659" xlink:href="#d" y1="71.90767" y2="25.336242"/><linearGradient id="f" gradientUnits="userSpaceOnUse" x1="10.184659" x2="28.184659" xlink:href="#a" y1="70.90767" y2="70.90767"/><linearGradient id="g" gradientTransform="matrix(-1 0 0 1 100.18466 -2.09233)" gradientUnits="userSpaceOnUse" x1="6" x2="24" xlink:href="#a" y1="73" y2="73"/><linearGradient id="h" gradientUnits="userSpaceOnUse" x1="42.932694" x2="42.932694" y1="70.317018" y2="3.740827"><stop offset="0" stop-color="#dcdcdc"/><stop offset="1" stop-color="#fafafa"/></linearGradient><radialGradient id="i" cx="90" cy="90" gradientTransform="matrix(0 -1.085034 2 0 -85.815341 185.56073)" gradientUnits="userSpaceOnUse" r="42"><stop offset="0" stop-color="#b4b4b4"/><stop offset="1" stop-color="#dcdcdc"/></radialGradient><clipPath id="j"><path d="m66 6v55c0 1.662 1.338 3 3 3h6c1.662 0 3-1.338 3-3v-55h-4v2h-4v-2z"/></clipPath><filter id="k" color-interpolation-filters="sRGB" height="1.07322" width="1.332308" x="-.166154" y="-.03661"><feGaussianBlur stdDeviation=".9"/></filter><linearGradient id="l" gradientTransform="matrix(.49408989 0 0 .70361229 .420095 36.415006)" gradientUnits="userSpaceOnUse" x1="68.75" x2="75.25" xlink:href="#c" y1="59" y2="59"/><linearGradient id="m" gradientUnits="userSpaceOnUse" x1="31.73695290454" x2="39.49456737" y1="80.58697692489" y2="81.00543795"><stop offset="0" stop-color="#a2a2a2"/><stop offset="1" stop-color="#fff"/></linearGradient><linearGradient id="n" gradientTransform="matrix(-.43495657 0 0 .5232543 67.317063 47.346436)" gradientUnits="userSpaceOnUse" x1="68.96875" x2="75.0625" xlink:href="#b" y1="17.5" y2="17.5"/><linearGradient id="o" gradientTransform="matrix(.43495657 0 0 .5232543 4.669721 47.346436)" gradientUnits="userSpaceOnUse" x1="68.02903" x2="75.97097" xlink:href="#b" y1="17.763245" y2="17.763245"/><linearGradient id="p" gradientTransform="matrix(.56313458 0 0 .50000003 -3.70642 22.997622)" gradientUnits="userSpaceOnUse" x1="68.75" x2="72.250572" xlink:href="#c" y1="59" y2="59"/><linearGradient id="q" gradientTransform="matrix(1.0058652 0 0 .994169 100 0)" gradientUnits="userSpaceOnUse" x1="45.447727" x2="45.447727" y1="92.539597" y2="7.01654"><stop offset="0"/><stop offset="1" stop-opacity=".588235"/></linearGradient><linearGradient id="r" gradientTransform="matrix(1.0238095 0 0 1.0119048 -1.142857 -98.071429)" gradientUnits="userSpaceOnUse" x1="32.251034" x2="32.251034" xlink:href="#q" y1="6.131708" y2="90.238609"/><linearGradient id="s" gradientTransform="translate(0 -97)" gradientUnits="userSpaceOnUse" x1="32.251034" x2="32.251034" xlink:href="#q" y1="6.131708" y2="90.238609"/><linearGradient id="t" gradientTransform="matrix(.53315586 0 0 .68002831 -2.392653 37.944471)" gradientUnits="userSpaceOnUse" x1="69" x2="73" y1="54" y2="54"><stop offset="0" stop-color="#fff"/><stop offset=".48973215" stop-color="#8c8c8c"/><stop offset=".50044644" stop-color="#cfcfcf"/><stop offset=".62276787" stop-color="#fff"/><stop offset=".81696427" stop-color="#c8c8c8"/><stop offset="1" stop-color="#505050"/></linearGradient><linearGradient id="u" gradientTransform="matrix(-.53315586 0 0 .68002831 74.38179 35.904384)" gradientUnits="userSpaceOnUse" x1="69" x2="73" y1="54" y2="54"><stop offset="0" stop-color="#2f2f2f"/><stop offset=".43731192" stop-color="#fff"/><stop offset=".62138397" stop-color="#979797"/><stop offset=".7723214" stop-color="#505050"/><stop offset="1" stop-color="#e6e6e6"/></linearGradient><radialGradient id="v" cx="5.962897" cy="10.957597" gradientTransform="matrix(1.1165639 -.0968439 .0968439 1.1165639 -4.269885 9.628157)" gradientUnits="userSpaceOnUse" r="1.501767"><stop offset="0" stop-color="#ffc64e"/><stop offset=".30000001" stop-color="#f30000" stop-opacity=".830645"/><stop offset=".43782738" stop-color="#fb0000" stop-opacity=".475806"/><stop offset="1" stop-color="#ffb56f" stop-opacity="0"/></radialGradient><linearGradient id="w" gradientTransform="matrix(-.7146135 -.0166211 .0166211 -.7146135 14.979945 29.02194)" gradientUnits="userSpaceOnUse" x1="21.310946" x2="6.589735" y1="11.446488" y2="11.788887"><stop offset="0" stop-color="#fc0000"/><stop offset="1" stop-color="#fc0000" stop-opacity="0"/></linearGradient><clipPath id="x"><path d="m48 102c-19.88225 0-36 16.11775-36 36s16.11775 36 36 36 36-16.11775 36-36-16.11775-36-36-36zm0 24c6.62742 0 12 5.37258 12 12s-5.37258 12-12 12-12-5.37258-12-12 5.37258-12 12-12z"/></clipPath><filter id="y" color-interpolation-filters="sRGB" height="1.36" width="1.36" x="-.18" y="-.18"><feGaussianBlur stdDeviation="5.2159999"/></filter><clipPath id="z"><path d="m48 32c-19.882251 0-36 16.117749-36 36s16.117749 36 36 36 36-16.117749 36-36-16.117749-36-36-36zm0 24c6.627417 0 12 5.372583 12 12s-5.372583 12-12 12-12-5.372583-12-12 5.372583-12 12-12z"/></clipPath><filter id="A" color-interpolation-filters="sRGB" height="1.341402" width="1.380742" x="-.190371" y="-.170701"><feGaussianBlur stdDeviation="4.9476562"/></filter><radialGradient id="B" cx="59.893993" cy="61.92226" gradientTransform="matrix(0 .04410308 -.04437436 0 10.035386 18.512893)" gradientUnits="userSpaceOnUse" r="33.71384"><stop offset="0" stop-opacity="0"/><stop offset=".85000002" stop-opacity="0"/><stop offset="1"/></radialGradient><linearGradient id="C" gradientTransform="matrix(0 .04410308 -.05298156 0 10.568363 18.512893)" gradientUnits="userSpaceOnUse" x1="26.180153" x2="93.607834" xlink:href="#d" y1="61.92226" y2="61.92226"/><linearGradient id="D" gradientTransform="matrix(0 .02553364 -.03067354 0 9.187 19.625075)" gradientUnits="userSpaceOnUse" x1="25.220379" x2="94.567612" y1="61.92226" y2="61.92226"><stop offset="0" stop-color="#4d4d4d"/><stop offset="1" stop-color="#fff"/></linearGradient><g transform="matrix(.23896809 0 0 .23896809 .529532 1.290564)"><g fill="url(#r)"><path d="m12-95.03125c-5.5110903 0-10.03125 4.52016-10.03125 10.03125v71c0 5.5110902 4.5201598 10.03125 10.03125 10.03125h72c5.51109 0 10.03125-4.5201597 10.03125-10.03125v-71c0-5.51109-4.52016-10.03125-10.03125-10.03125z" opacity=".08" transform="scale(1 -1)"/><path d="m12-94.03125c-4.971633 0-9.03125 4.059617-9.03125 9.03125v71c0 4.9716329 4.0596171 9.03125 9.03125 9.03125h72c4.971633 0 9.03125-4.059617 9.03125-9.03125v-71c0-4.971633-4.059617-9.03125-9.03125-9.03125z" opacity=".1" transform="scale(1 -1)"/><path d="m12-93c-4.4091333 0-8 3.590867-8 8v71c0 4.4091333 3.5908667 8 8 8h72c4.409133 0 8-3.5908667 8-8v-71c0-4.409133-3.590867-8-8-8z" opacity=".2" transform="scale(1 -1)"/><rect height="85" opacity=".3" rx="7" transform="scale(1 -1)" width="86" x="5" y="-92"/></g><rect fill="url(#s)" height="84" opacity=".45" rx="6" transform="scale(1 -1)" width="84" x="6" y="-91"/></g><g transform="matrix(.23896809 0 0 .23896809 -.470468 .992872)"><path d="m16.184659 3.9076702c-3.324 0-6 2.676-6 5.9999998v72c0 3.324 2.676 6 6 6h72c3.324 0 6-2.676 6-6v-72c0-3.3239998-2.676-5.9999998-6-5.9999998h-9v3h-6v-3z" fill="url(#i)"/><path d="m10.184659 53.90767v28c0 3.324 2.676 6 6 6h12v-34z" fill="url(#f)"/><path d="m94.184659 53.90767v28c0 3.324-2.676 6-6 6h-12v-34z" fill="url(#g)"/><path d="m10.184659 56.808662v4.185372c0 3.324 2.676 6 6 6h72.000004c3.324 0 6-2.676 6-6v-4.185372c0 3.324-2.676 6-6 6h-72.000004c-3.324 0-6-2.676-6-6z" opacity=".3"/><path d="m16.184659 3.9076702c-3.324 0-6 2.676-6 5.9999998v42.787784c0 3.324 2.676 6 6 6h72c3.324 0 6-2.676 6-6v-42.787784c0-3.3239998-2.676-5.9999998-6-5.9999998h-9v3h-6v-3z" fill="url(#h)"/><path d="m16.184659 3.9076702c-3.324 0-6 2.676-6 5.9999998l.000001 42.440057c0 3.324 2.676 6.276988 5.999999 6.276988h72c3.324 0 6-2.952988 6-6.276988v-42.440057c0-3.3239998-2.676-5.9999998-6-5.9999998h-9v2h9c2.245802 0 4 1.7541975 4 3.9999998v40.347727c0 2.245802-1.754198 4.184659-4 4.184659h-72c-2.245802 0-3.999999-1.938857-3.999999-4.184659l-.000001-40.347727c0-2.2458023 1.754198-3.9999998 4-3.9999998h57v-2z" fill="url(#e)" opacity=".5"/><path d="m10.183236 60.993321v4.185372c0 3.324 2.676 6 6 6h72c3.324 0 6.000002-2.676 6.000002-6v-4.185372c0 3.324-2.676002 5.999999-6.000002 5.999999h-72c-3.324 0-6-2.675999-6-5.999999z" fill="#fff" opacity=".3"/><path d="m10.18537 69.362639v4.185372c0 3.324 2.676 6 6 6h72c3.324 0 6.000002-2.676 6.000002-6v-4.185372c0 3.324-2.676002 5.999999-6.000002 5.999999h-72c-3.324 0-6-2.675999-6-5.999999z" opacity=".3"/><path d="m10.183947 73.547298v4.185371c0 3.324001 2.676 6.000001 6 6.000001h72c3.324 0 6.000002-2.676 6.000002-6.000001v-4.185371c0 3.324-2.676002 5.999999-6.000002 5.999999h-72c-3.324 0-6-2.675999-6-5.999999z" fill="#fff" opacity=".3"/></g><g transform="matrix(.57142857393 0 0 .3696525885 -3.56832357462 -17.14156046271)"><path d="m32.994566 51.505433v27.500002c0 .830999.669 1.499999 1.499999 1.499999h3c.831001 0 1.500001-.669 1.500001-1.499999v-27.500002h-2v1.000001h-2v-1.000001z" fill="#252525"/><path d="m34.994564 52.505436h2v24.5h-2z" fill="#4d4d4d"/><rect fill="url(#l)" height="2.814449" rx=".49409" ry=".703612" stroke="#000" stroke-linecap="square" stroke-opacity=".563636" stroke-width=".294808" width="2.964539" x="34.512299" y="76.520912"/><path d="m66 6v55c0 1.662 1.338 3 3 3h6c1.662 0 3-1.338 3-3v-55h-4v2h-4v-2z" style="fill:none;stroke:#000;stroke-width:2;stroke-linecap:square;clip-path:url(#j);filter:url(#k)" transform="matrix(.50000001 0 0 .50000001 -.005435 48.505434)"/><path id="E" d="m34.661677 73.305932c-.143832 0-.266578.14822-.266578.340013v2.040087c0 .191792.122748.340012.266578.340012h.533157c.143831 0 .266578-.14822.266578-.340012v-.340017h.799732c.147686 0 .266579-.151645.266579-.340013v-.680029c0-.188366-.118893-.340013-.266579-.340013h-.799732v-.340015c0-.191793-.122749-.340013-.266578-.340013z" fill="url(#t)" stroke="#000" stroke-linecap="square" stroke-opacity=".563636" stroke-width=".301065"/><use id="F" height="96" transform="translate(0 -4.08017)" width="96" xlink:href="#E"/><use height="96" transform="translate(0 -4.08017)" width="96" xlink:href="#F"/><path id="G" d="m37.327458 71.265846c.14383 0 .266576.148223.266576.340016v2.040083c0 .191792-.122747.340015-.266576.340015h-.533157c-.143831 0-.266578-.148223-.266578-.340015v-.340013h-.799735c-.147683 0-.266576-.151646-.266576-.340014v-.680029c0-.188368.118893-.340014.266576-.340014h.799735v-.340013c0-.191793.122748-.340016.266578-.340016z" fill="url(#u)" stroke="#000" stroke-linecap="square" stroke-opacity=".563636" stroke-width=".301065"/><use height="96" transform="translate(0 -4.08017)" width="96" xlink:href="#G"/><path d="m32.494566 51.505433v27.500002c0 1.101147.898853 2 1.999999 2h3c1.101148 0 2.000001-.898853 2.000001-2v-27.500002h-.5v27.500002c0 .830999-.669 1.499999-1.500001 1.499999h-3c-.830999 0-1.499999-.669-1.499999-1.499999v-27.500002z" fill="url(#m)"/><path d="m34.781437 53.113439c-.298876 0-.534671.252401-.534671.565924l-.0022 5.659252c.000009.313524.235804.565926.53468.565926h2.428458c.298875 0 .53467-.252402.53467-.565926l.0022-5.659252c0-.313523-.235796-.565924-.53467-.565924z" fill="url(#o)"/><path d="m37.101169 53.609136c.120483 0 .217478.116686.217478.261627v5.265247c0 .144942-.09699.261627-.217478.261627h-2.21556c-.120483 0-.217478-.116685-.217478-.261627v-5.265247c0-.144941.09699-.261627.217478-.261627z" fill="url(#n)"/><rect fill="url(#p)" height="2.5" rx=".281567" ry=".25" stroke="#000" stroke-linecap="square" stroke-opacity=".563636" stroke-width=".5" width="1.689404" x="35.149864" y="51.49762"/><g transform="translate(.068359 -8.103393)"><use height="96" width="96" xlink:href="#F"/><use height="96" width="96" xlink:href="#G"/></g></g><g transform="translate(1.233941 -12.815127)"><path d="m7.2876249 18.050109c-1.8125399 0-3.2868828 1.474343-3.2868828 3.286882 0 1.81254 1.4743429 3.286883 3.2868828 3.286883 1.8125403 0 3.2868831-1.474343 3.2868831-3.286883 0-1.812539-1.4743428-3.286882-3.2868831-3.286882zm0 1.826043c.8101198 0 1.4608366.650717 1.4608366 1.460839 0 .81012-.6507168 1.460837-1.4608366 1.460837-.8101212 0-1.4608366-.650717-1.4608366-1.460837 0-.810122.6507154-1.460839 1.4608366-1.460839z" opacity=".05"/><path d="m7.2876249 18.415316c-1.6135958 0-2.9216739 1.308077-2.9216739 2.921675 0 1.613596 1.3080781 2.921674 2.9216739 2.921674s2.9216741-1.308078 2.9216741-2.921674c0-1.613598-1.3080783-2.921675-2.9216741-2.921675zm0 1.095629c1.0084976 0 1.8260464.817549 1.8260464 1.826046 0 1.008496-.8175488 1.826047-1.8260464 1.826047-1.0084977 0-1.8260469-.817551-1.8260469-1.826047 0-1.008497.8175492-1.826046 1.8260469-1.826046z" opacity=".3"/><path d="m7.2876249 18.227005c-1.716033 0-3.1099851 1.393953-3.1099851 3.109986 0 1.716034 1.3939521 3.109985 3.1099851 3.109985 1.7160334 0 3.1099841-1.393951 3.1099841-3.109985 0-1.716033-1.3939507-3.109986-3.1099841-3.109986zm0 1.472251c.9060604 0 1.6377352.731676 1.6377352 1.637735 0 .90606-.7316748 1.637734-1.6377352 1.637734-.9060601 0-1.6377357-.731674-1.6377357-1.637734 0-.906059.7316756-1.637735 1.6377357-1.637735z" opacity=".1"/><path d="m7.2876249 15.691677c-3.0169706 0-5.4627075 2.445739-5.4627075 5.462709 0 3.016971 2.4457369 5.462708 5.4627075 5.462708 3.0169701 0 5.4627071-2.445737 5.4627071-5.462708 0-3.01697-2.445737-5.462709-5.4627071-5.462709zm0 3.641808c1.0056566 0 1.8209028.815244 1.8209028 1.820901s-.8152462 1.820902-1.8209028 1.820902c-1.0056567 0-1.8209029-.815245-1.8209029-1.820902s.8152462-1.820901 1.8209029-1.820901z" fill="#bbb1bf"/><path d="m7.2876249 19.333485c-1.0056567 0-1.8209029.815244-1.8209029 1.820901s.8152462 1.820902 1.8209029 1.820902c1.0056566 0 1.8209028-.815245 1.8209028-1.820902s-.8152462-1.820901-1.8209028-1.820901zm0 1.062191c.4190237 0 .7587094.339685.7587094.75871 0 .419024-.3396857.75871-.7587094.75871-.4190238 0-.7587094-.339686-.7587094-.75871 0-.419025.3396856-.75871.7587094-.75871z" fill="#fff" opacity=".3"/><path d="m7.2876249 21.988967a.83458046.8345805 0 1 1 0-1.669161.83458046.8345805 0 0 1 0 1.669161z" fill="none" opacity=".6" stroke="url(#D)" stroke-linecap="round" stroke-width=".182605"/><path d="m7.2876249 22.595933a1.4415478 1.4415317 0 1 1 0-2.883062 1.4415478 1.4415317 0 0 1 0 2.883062z" style="opacity:.5;fill-rule:evenodd;stroke-width:.182605;stroke-linecap:round;fill:url(#B);stroke:url(#C)"/><path clip-path="url(#z)" d="m57.3125 33.21875-9.3125 34.78125 31.1875-18c-4.773897-8.268632-12.65254-14.310099-21.875-16.78125zm-9.3125 34.78125-31.1875 18c4.773897 8.268632 12.65254 14.3101 21.875 16.78125z" fill="#fff" filter="url(#A)" opacity=".8" transform="matrix(.15174188 0 0 .15174188 .004015 10.835939)"/><g clip-path="url(#x)" filter="url(#y)" opacity=".6" transform="matrix(.15174188 0 0 .15174188 .004015 .214006)"><path d="m60.947452 57.784124a20.708128 18.814091 0 0 1 -2.615496 2.905857l-14.642858-13.303571z" fill="#7137c8" transform="matrix(1.5055399 .86922388 -.95672979 1.6571045 27.560302 21.500167)"/><path d="m60.779363 58.010828a20.708128 18.814091 0 0 1 -3.384016 3.478847l-13.706249-14.103265z" fill="#0cf" transform="matrix(1.6792116 .4499434 -.49523981 1.8482599 -1.895609 30.759984)"/><path d="m62.72377 54.795738a20.708128 18.814091 0 0 1 -2.259683 3.622054l-16.774989-11.031382z" fill="#fc0" transform="matrix(1.7384478 0 -.00000006 1.9134595 -27.951218 47.328031)"/><path d="m61.622863 56.793455a20.708128 18.814091 0 0 1 -1.699251 2.272761l-16.234514-11.679806z" fill="#f00" transform="matrix(1.6792116 -.4499434 .4952397 1.84826 -48.830877 70.075223)"/><path d="m63.123303 53.883448a20.708128 18.814091 0 0 1 -2.370014 4.161918l-17.064191-10.658956z" fill="#0f0" transform="matrix(1.6792116 .4499434 -.49523981 1.8482599 -1.895609 30.759984)"/><path d="m60.947452 57.784124a20.708128 18.814091 0 0 1 -2.615496 2.905857l-14.642858-13.303571z" fill="#7137c8" transform="matrix(-1.5055399 -.86922388 .95672979 -1.6571045 68.439684 254.49984)"/><path d="m60.779363 58.010828a20.708128 18.814091 0 0 1 -3.384016 3.478847l-13.706249-14.103265z" fill="#0cf" transform="matrix(-1.6792116 -.4499434 .49523981 -1.8482599 97.895595 245.24003)"/><path d="m62.72377 54.795738a20.708128 18.814091 0 0 1 -2.259683 3.622054l-16.774989-11.031382z" fill="#fc0" transform="matrix(-1.7384478 0 .00000006 -1.9134595 123.9512 228.67198)"/><path d="m61.622863 56.793455a20.708128 18.814091 0 0 1 -1.699251 2.272761l-16.234514-11.679806z" fill="#f00" transform="matrix(-1.6792116 .4499434 -.4952397 -1.84826 144.83086 205.92479)"/><path d="m63.123303 53.883448a20.708128 18.814091 0 0 1 -2.370014 4.161918l-17.064191-10.658956z" fill="#0f0" transform="matrix(-1.6792116 -.4499434 .49523981 -1.8482599 97.895595 245.24003)"/></g><path d="m7.2876249 18.954129c-1.2151688 0-2.2002576.98509-2.2002576 2.200257 0 1.215168.9850888 2.200257 2.2002576 2.200257 1.2151687 0 2.2002582-.985089 2.2002582-2.200257 0-1.215167-.9850895-2.200257-2.2002582-2.200257zm0 .379356c1.0056566 0 1.8209028.815244 1.8209028 1.820901s-.8152462 1.820902-1.8209028 1.820902c-1.0056567 0-1.8209029-.815245-1.8209029-1.820902s.8152462-1.820901 1.8209029-1.820901z" opacity=".2"/><path d="m1.8094862 21.245688c-.0006218.03074 0 .06044 0 .0913 0 3.025493 2.4526459 5.478139 5.4781387 5.478139 3.0254921 0 5.4781391-2.452646 5.4781391-5.478139 0-.03086.000662-.06057 0-.0913-.04933 2.982872-2.483505 5.386837-5.4781391 5.386837-2.9946328 0-5.4288101-2.403965-5.4781387-5.386837z" fill="#fff" opacity=".6"/><path d="m7.2876249 15.676247c-3.0254928 0-5.4781387 2.452646-5.4781387 5.478139s2.4526459 5.478139 5.4781387 5.478139c3.0254921 0 5.4781391-2.452646 5.4781391-5.478139s-2.452647-5.478139-5.4781391-5.478139zm0 .547815c2.7229431 0 4.9303251 2.20738 4.9303251 4.930324 0 2.722943-2.207382 4.930325-4.9303251 4.930325-2.7229433 0-4.930325-2.207382-4.930325-4.930325 0-2.722944 2.2073817-4.930324 4.930325-4.930324z" opacity=".05"/><path d="m7.2876249 15.676247c-3.0254928 0-5.4781387 2.452646-5.4781387 5.478139s2.4526459 5.478139 5.4781387 5.478139c3.0254921 0 5.4781391-2.452646 5.4781391-5.478139s-2.452647-5.478139-5.4781391-5.478139zm0 .370915c2.8247801 0 5.1072231 2.282444 5.1072231 5.107224s-2.282443 5.107224-5.1072231 5.107224c-2.8247802 0-5.1072239-2.282444-5.1072239-5.107224s2.2824437-5.107224 5.1072239-5.107224z" opacity=".1"/><path d="m7.2876249 15.676247c-3.0254928 0-5.4781387 2.452646-5.4781387 5.478139s2.4526459 5.478139 5.4781387 5.478139c3.0254921 0 5.4781391-2.452646 5.4781391-5.478139s-2.452647-5.478139-5.4781391-5.478139zm0 .182605c2.9246431 0 5.2955341 2.370891 5.2955341 5.295534 0 2.924644-2.370891 5.295534-5.2955341 5.295534-2.9246423 0-5.2955345-2.37089-5.2955345-5.295534 0-2.924643 2.3708922-5.295534 5.2955345-5.295534z" opacity=".15"/><path d="m7.2876249 15.676247c-3.0254928 0-5.4781387 2.452646-5.4781387 5.478139 0 .03086-.0006218.06057 0 .0913.049329-2.982871 2.4835059-5.386836 5.4781387-5.386836 2.9946341 0 5.4288091 2.403965 5.4781391 5.386836.000662-.03074 0-.06044 0-.0913 0-3.025493-2.452647-5.478139-5.4781391-5.478139z" opacity=".2"/><path d="m3.544625 20.890966a3.7584196 3.7584196 0 0 1 7.155305-1.518836" fill="none" stroke="url(#w)" stroke-linejoin="round" stroke-width=".547814"/><path d="m5.1260646 21.140107a1.683114 1.683114 0 0 1 -3.3536368.290875 1.683114 1.683114 0 1 1 3.3536368-.290875z" fill="url(#v)"/></g></svg>