<svg height="24" width="24" xmlns="http://www.w3.org/2000/svg" xmlns:xlink="http://www.w3.org/1999/xlink"><linearGradient id="a" gradientTransform="matrix(.90659037 0 0 .92290809 -5.072708 14.780623)" gradientUnits="userSpaceOnUse" x1="32.891998" x2="36.358002" y1="8.059" y2="5.4565"><stop offset="0" stop-color="#f0f0f0"/><stop offset="1" stop-color="#b0b0b0"/></linearGradient><radialGradient id="b" cx="48" cy="90.171875" gradientTransform="matrix(.38970735 0 0 .33673464 -.420242 14.493148)" gradientUnits="userSpaceOnUse" r="42" xlink:href="#c"/><linearGradient id="c"><stop offset="0" stop-color="#fff"/><stop offset="1" stop-color="#fff" stop-opacity="0"/></linearGradient><linearGradient id="d" gradientTransform="matrix(0 -.42933676 .33673468 0 2.122449 47.433164)" gradientUnits="userSpaceOnUse" x1="7.3709" x2="23.76619" y1="51.470146" y2="51.433136"><stop offset="0" stop-color="#00498e"/><stop offset="1" stop-color="#0d5ea7"/></linearGradient><linearGradient id="e" gradientUnits="userSpaceOnUse" x1="248.07678816" x2="248.07678816" y1="-62.6598922" y2="-98.66515562275"><stop offset="0" stop-color="#e0e0e0"/><stop offset="1" stop-color="#f0f0f0"/></linearGradient><linearGradient id="f" gradientTransform="matrix(.4285717 0 0 .43033246 227.50536 -101.24189)" gradientUnits="userSpaceOnUse" x1="36.357143" x2="36.357143" xlink:href="#c" y1="6" y2="63.893143"/><linearGradient id="g" gradientTransform="matrix(1.0058652 0 0 .994169 100 0)" gradientUnits="userSpaceOnUse" x1="45.447727" x2="45.447727" y1="92.539597" y2="7.01654"><stop offset="0"/><stop offset="1" stop-opacity=".588235"/></linearGradient><linearGradient id="h" gradientTransform="matrix(.90932204 0 0 -.90907903 8.945106 90.567956)" gradientUnits="userSpaceOnUse" x1="32.251034" x2="32.251034" xlink:href="#g" y1="6.131708" y2="90.238609"/><linearGradient id="i" gradientTransform="matrix(.88394566 0 0 -.88394572 10.163169 89.361561)" gradientUnits="userSpaceOnUse" x1="32.251034" x2="32.251034" xlink:href="#g" y1="6.131708" y2="90.238609"/><radialGradient id="j" cx="41.752941" cy="36.95731" gradientTransform="matrix(4.5608932 -.80134104 .40815326 2.3230351 -148.56388 -20.727491)" gradientUnits="userSpaceOnUse" r="19"><stop offset="0" stop-color="#83b4e3"/><stop offset=".5" stop-color="#83b4e3"/><stop offset="1" stop-color="#83b4e3"/></radialGradient><linearGradient id="k" gradientUnits="userSpaceOnUse" x1="37.0203438" x2="45.6532128" y1="53.2912798" y2="68.830444"><stop offset="0" stop-color="#b3e1ff"/><stop offset="1" stop-color="#f0ffff" stop-opacity="0"/></linearGradient><g transform="matrix(.7 0 0 .7 -.8 -9.5)"><g transform="matrix(.40210864 0 0 .40210864 -2.862207 11.842456)"><path d="m20.618253 86.01187c-3.916074 0-7.105399-3.225978-7.105399-7.187076v-63.785252c0-3.961099 3.189325-7.1870759 7.105399-7.1870759h41.230022l29.823983 29.8239829v41.148345c0 3.961098-3.189315 7.187076-7.1054 7.187076z" fill="url(#h)" opacity=".329"/><path d="m21.510559 84.057885h62.16399c3.34823 0 6.04372-2.727212 6.04372-6.114824v-39.038079l-29.09854-29.0985314h-39.10917c-3.34822 0-6.04372 2.7272114-6.04372 6.1148244v62.021786c0 3.387612 2.6955 6.114824 6.04372 6.114824z" fill="url(#i)" opacity=".412"/></g><g transform="matrix(.78571428 0 0 .78571428 -176.63176 94.08992)"><path d="m232.64822-98.6599h19.54285l13.88572 13.885715v19.542857c0 1.424571-1.14685 2.571428-2.57143 2.571428h-30.85714c-1.42458 0-2.57143-1.146857-2.57143-2.571428v-30.857144c0-1.424571 1.14685-2.571428 2.57143-2.571428z" fill="url(#e)"/><path d="m232.64822-98.6599c-1.42457 0-2.57143 1.151568-2.57143 2.581998v.860662 28.234034c1.98322 4.185183.51348 2.977317.42857.430332v-28.09486-.860668c0-1.197119.95064-2.151664 2.14286-2.151664h.85715 17.82858.85715l13.45714 13.326778v.860667 16.919747c-1.2063 3.165148.42855 3.584963.42855-.430333v-16.919747-.860668l-13.88571-13.896278z" fill="url(#f)"/></g><path d="m17.574642 16.572005c2.498363 0 .978665 11.229997.978665 11.229997s13.877949-1.469924 13.877949 3.130712c0-1.120679-.0027-3.451081-.0027-3.451081l-10.910194-10.910204z" fill-rule="evenodd" opacity=".2" stroke-width=".750917"/><path d="m4.142857 42.281122c0 1.427115.901102 2.576021 2.0204085 2.576021h24.2448965c1.119307 0 2.020409-1.148906 2.020409-2.576021v-5.85255h-28.285714z" fill="url(#d)"/><path d="m6.1632649 44.857143c-1.1193059 0-2.0204079-.904805-2.0204079-2.02871v-.785567c.013779-4.111219.3367334-4.198891.3367334-.338138v.676237c0 .940593.7469286 1.690591 1.6836745 1.690591h.6734709 22.8979482.673471c.936746 0 1.683674-.749998 1.683674-1.690591v-.676237c.03306-4.583428.336742-3.015029.336742.338119v.785566c-.000008 1.123925-.90111 2.02873-2.020416 2.02873z" fill="url(#b)" opacity=".2"/><path d="m18.503357 16.571429c2.362014 0 .915801 10.402988.915801 10.402988s4.605338-.548185 8.335981-.0762c2.53971.321312 4.674044 1.11542 4.674044 2.877141 0-1.059522-.000612-2.293727-.000612-2.293727l-10.910209-10.910202z" fill-rule="evenodd" opacity=".2" stroke-width=".709936"/><path d="m19.617915 16.578262c2.225494 0 .801612 9.609776.801612 9.609776s12.012265-1.475777 12.012265 2.622383c0-.99828-.0032-1.328788-.0032-1.328788l-10.91023-10.910204z" fill="url(#a)" fill-rule="evenodd" stroke-width=".668903"/><g transform="matrix(.17336587898 0 0 .17336587898 4.05543767663 20.46920931794)"><path d="m38.994631 25.428559-4.975872-5.405094s.113135 24.845606.11846 29.024068c-3.099725-1.685814-7.518217-1.264359-11.175366 1.386743-4.731162 3.412443-6.376216 9.231267-3.643536 12.983559 2.746259 3.765901 8.78257 4.024178 13.513757.611755 3.725119-2.705454 5.805202-6.9472 5.057461-10.427585-.02727-.108779-.06801-.217536-.09516-.326334l.13979-20.369684c.496976-1.475472 1.305145-2.032863 4.698406 2.249512 3.909781 6.358271-.242773 15.791902-.242773 15.791902s.671594-.594854 1.478642-1.466117c2.948444-3.183051 4.265252-8.865938 2.531103-14.261774-1.492782-3.215162-6.223493-8.506625-7.404942-9.790936z" fill="#346190" transform="matrix(1.9534141 0 0 1.9534141 -10.754156 -45.940692)"/><path d="m76.859862 17.877279c-6.231046-8.9476442-13.750069-16.7790409-21.161308-24.7038518l.231402 56.6239798c.97997.369273 1.902183.800467 2.712315 1.356157v-34.831596c0-5.424632.03076-9.2079316 4.302347-6.126253 7.485907 5.40061 9.551683 6.837095 13.915244 7.681564z" fill="url(#j)" opacity=".7"/><path d="m52.559494 55.017847c2.107921 4.276518-2.493502 8.928749-9.335931 12.30142-6.842427 3.372672-13.334772 4.188625-15.442694-.0879-2.10792-4.276518 1.730157-10.477412 8.572586-13.850084 6.842428-3.372672 14.098119-2.639961 16.206039 1.636557z" fill="url(#k)"/></g></g><path d="m2.1 16h19.8v1h-19.8z" opacity=".3"/><g fill="#fff" stroke-width="2.060053" transform="matrix(.16847268 0 0 .16847268 21.118949 7.421171)"><path d="m-83.805569 60.186827h6.571783l4.560012 10.71603 4.586837-10.71603h6.558371v20.023821h-4.881896v-14.645688l-4.61366 10.7965h-3.27248l-4.61366-10.7965v14.645688h-4.895307z"/><path d="m-56.445492 60.186827h8.570141q3.822364 0 5.860958 1.703299 2.052005 1.689887 2.052005 4.828249 0 3.151773-2.052005 4.855072-2.038594 1.689887-5.860958 1.689887h-3.406598v6.947314h-5.163543zm5.163543 3.741893v5.592721h2.856714q1.502122 0 2.320242-.724237.81812-.737649.81812-2.078829 0-1.341181-.81812-2.065418-.81812-.724237-2.320242-.724237z"/><path d="m-26.054349 69.414147q2.025182.52306 3.071302 1.824005 1.059533 1.287533 1.059533 3.285891 0 2.977421-2.280007 4.53319-2.280006 1.542357-6.652254 1.542357-1.542357 0-3.098126-.254824-1.542357-.241413-3.057891-.73765v-3.983305q1.448475.724238 2.870126 1.099768 1.435063.362119 2.816478.362119 2.052006 0 3.138362-.710826 1.099768-.710825 1.099768-2.038594 0-1.368004-1.126592-2.065417-1.113179-.710826-3.299303-.710826h-2.065418v-3.326127h2.172712q1.944712 0 2.89695-.603531.952238-.616943.952238-1.86424 0-1.153415-.925415-1.78377-.925414-.630355-2.615301-.630355-1.247298 0-2.521419.281648-1.274121.281648-2.534831.831532v-3.782128q1.528946-.429178 3.031068-.643767 1.502122-.214589 2.950596-.214589 3.902835 0 5.834134 1.287533 1.944712 1.274121 1.944712 3.849187 0 1.756947-.925415 2.883538-.925414 1.11318-2.736007 1.569181z"/></g></svg>