<svg height="24" width="24" xmlns="http://www.w3.org/2000/svg" xmlns:xlink="http://www.w3.org/1999/xlink"><linearGradient id="a"><stop offset="0" stop-color="#818181"/><stop offset=".2" stop-color="#f9f9f9"/><stop offset="1" stop-color="#dcdcdc" stop-opacity="0"/></linearGradient><linearGradient id="b"><stop offset="0" stop-color="#ededed"/><stop offset="1" stop-color="#b0b0b0"/></linearGradient><linearGradient id="c"><stop offset="0" stop-color="#b4b4b4"/><stop offset=".20467032" stop-color="#646464"/><stop offset=".49567693" stop-color="#fff"/><stop offset="1" stop-color="#3c3c3c"/></linearGradient><linearGradient id="d" gradientUnits="userSpaceOnUse" x1="23.220372" x2="91.684659" y1="71.90767" y2="25.336242"><stop offset="0" stop-color="#fff"/><stop offset="1" stop-color="#fff" stop-opacity="0"/></linearGradient><linearGradient id="e" gradientUnits="userSpaceOnUse" x1="10.184659" x2="28.184659" xlink:href="#a" y1="70.90767" y2="70.90767"/><linearGradient id="f" gradientTransform="matrix(-1 0 0 1 100.18466 -2.09233)" gradientUnits="userSpaceOnUse" x1="6" x2="24" xlink:href="#a" y1="73" y2="73"/><linearGradient id="g" gradientUnits="userSpaceOnUse" x1="42.932694" x2="42.932694" y1="70.317018" y2="3.740827"><stop offset="0" stop-color="#dcdcdc"/><stop offset="1" stop-color="#fafafa"/></linearGradient><radialGradient id="h" cx="90" cy="90" gradientTransform="matrix(0 -1.085034 2 0 -85.815341 185.56073)" gradientUnits="userSpaceOnUse" r="42"><stop offset="0" stop-color="#b4b4b4"/><stop offset="1" stop-color="#dcdcdc"/></radialGradient><clipPath id="i"><path d="m66 6v55c0 1.662 1.338 3 3 3h6c1.662 0 3-1.338 3-3v-55h-4v2h-4v-2z"/></clipPath><filter id="j" color-interpolation-filters="sRGB" height="1.07322" width="1.332308" x="-.166154" y="-.03661"><feGaussianBlur stdDeviation=".9"/></filter><linearGradient id="k" gradientTransform="matrix(.49408989 0 0 .70361229 .420095 36.415006)" gradientUnits="userSpaceOnUse" x1="68.75" x2="75.25" xlink:href="#c" y1="59" y2="59"/><linearGradient id="l" gradientUnits="userSpaceOnUse" x1="31.73695290454" x2="39.49456737" y1="80.58697692489" y2="81.00543795"><stop offset="0" stop-color="#a2a2a2"/><stop offset="1" stop-color="#fff"/></linearGradient><linearGradient id="m" gradientTransform="matrix(-.43495657 0 0 .5232543 67.317063 47.346436)" gradientUnits="userSpaceOnUse" x1="68.96875" x2="75.0625" xlink:href="#b" y1="17.5" y2="17.5"/><linearGradient id="n" gradientTransform="matrix(.43495657 0 0 .5232543 4.669721 47.346436)" gradientUnits="userSpaceOnUse" x1="68.02903" x2="75.97097" xlink:href="#b" y1="17.763245" y2="17.763245"/><linearGradient id="o" gradientTransform="matrix(.56313458 0 0 .50000003 -3.70642 22.997622)" gradientUnits="userSpaceOnUse" x1="68.75" x2="72.250572" xlink:href="#c" y1="59" y2="59"/><linearGradient id="p" gradientTransform="matrix(1.0058652 0 0 .994169 100 0)" gradientUnits="userSpaceOnUse" x1="45.447727" x2="45.447727" y1="92.539597" y2="7.01654"><stop offset="0"/><stop offset="1" stop-opacity=".588235"/></linearGradient><linearGradient id="q" gradientTransform="matrix(1.0238095 0 0 1.0119048 -1.142857 -98.071429)" gradientUnits="userSpaceOnUse" x1="32.251034" x2="32.251034" xlink:href="#p" y1="6.131708" y2="90.238609"/><linearGradient id="r" gradientTransform="translate(0 -97)" gradientUnits="userSpaceOnUse" x1="32.251034" x2="32.251034" xlink:href="#p" y1="6.131708" y2="90.238609"/><linearGradient id="s" gradientTransform="matrix(.53315586 0 0 .68002831 -2.392653 37.944471)" gradientUnits="userSpaceOnUse" x1="69" x2="73" y1="54" y2="54"><stop offset="0" stop-color="#fff"/><stop offset=".48973215" stop-color="#8c8c8c"/><stop offset=".50044644" stop-color="#cfcfcf"/><stop offset=".62276787" stop-color="#fff"/><stop offset=".81696427" stop-color="#c8c8c8"/><stop offset="1" stop-color="#505050"/></linearGradient><linearGradient id="t" gradientTransform="matrix(-.53315586 0 0 .68002831 74.38179 35.904384)" gradientUnits="userSpaceOnUse" x1="69" x2="73" y1="54" y2="54"><stop offset="0" stop-color="#2f2f2f"/><stop offset=".43731192" stop-color="#fff"/><stop offset=".62138397" stop-color="#979797"/><stop offset=".7723214" stop-color="#505050"/><stop offset="1" stop-color="#e6e6e6"/></linearGradient><g transform="matrix(.23896809 0 0 .23896809 .529532 1.290564)"><g fill="url(#q)"><path d="m12-95.03125c-5.5110903 0-10.03125 4.52016-10.03125 10.03125v71c0 5.5110902 4.5201598 10.03125 10.03125 10.03125h72c5.51109 0 10.03125-4.5201597 10.03125-10.03125v-71c0-5.51109-4.52016-10.03125-10.03125-10.03125z" opacity=".08" transform="scale(1 -1)"/><path d="m12-94.03125c-4.971633 0-9.03125 4.059617-9.03125 9.03125v71c0 4.9716329 4.0596171 9.03125 9.03125 9.03125h72c4.971633 0 9.03125-4.059617 9.03125-9.03125v-71c0-4.971633-4.059617-9.03125-9.03125-9.03125z" opacity=".1" transform="scale(1 -1)"/><path d="m12-93c-4.4091333 0-8 3.590867-8 8v71c0 4.4091333 3.5908667 8 8 8h72c4.409133 0 8-3.5908667 8-8v-71c0-4.409133-3.590867-8-8-8z" opacity=".2" transform="scale(1 -1)"/><rect height="85" opacity=".3" rx="7" transform="scale(1 -1)" width="86" x="5" y="-92"/></g><rect fill="url(#r)" height="84" opacity=".45" rx="6" transform="scale(1 -1)" width="84" x="6" y="-91"/></g><g transform="matrix(.23896809 0 0 .23896809 -.470468 .992872)"><path d="m16.184659 3.9076702c-3.324 0-6 2.676-6 5.9999998v72c0 3.324 2.676 6 6 6h72c3.324 0 6-2.676 6-6v-72c0-3.3239998-2.676-5.9999998-6-5.9999998h-9v3h-6v-3z" fill="url(#h)"/><path d="m10.184659 53.90767v28c0 3.324 2.676 6 6 6h12v-34z" fill="url(#e)"/><path d="m94.184659 53.90767v28c0 3.324-2.676 6-6 6h-12v-34z" fill="url(#f)"/><path d="m10.184659 56.808662v4.185372c0 3.324 2.676 6 6 6h72.000004c3.324 0 6-2.676 6-6v-4.185372c0 3.324-2.676 6-6 6h-72.000004c-3.324 0-6-2.676-6-6z" opacity=".3"/><path d="m16.184659 3.9076702c-3.324 0-6 2.676-6 5.9999998v42.787784c0 3.324 2.676 6 6 6h72c3.324 0 6-2.676 6-6v-42.787784c0-3.3239998-2.676-5.9999998-6-5.9999998h-9v3h-6v-3z" fill="url(#g)"/><path d="m16.184659 3.9076702c-3.324 0-6 2.676-6 5.9999998l.000001 42.440057c0 3.324 2.676 6.276988 5.999999 6.276988h72c3.324 0 6-2.952988 6-6.276988v-42.440057c0-3.3239998-2.676-5.9999998-6-5.9999998h-9v2h9c2.245802 0 4 1.7541975 4 3.9999998v40.347727c0 2.245802-1.754198 4.184659-4 4.184659h-72c-2.245802 0-3.999999-1.938857-3.999999-4.184659l-.000001-40.347727c0-2.2458023 1.754198-3.9999998 4-3.9999998h57v-2z" fill="url(#d)" opacity=".5"/><path d="m10.183236 60.993321v4.185372c0 3.324 2.676 6 6 6h72c3.324 0 6.000002-2.676 6.000002-6v-4.185372c0 3.324-2.676002 5.999999-6.000002 5.999999h-72c-3.324 0-6-2.675999-6-5.999999z" fill="#fff" opacity=".3"/><path d="m10.18537 69.362639v4.185372c0 3.324 2.676 6 6 6h72c3.324 0 6.000002-2.676 6.000002-6v-4.185372c0 3.324-2.676002 5.999999-6.000002 5.999999h-72c-3.324 0-6-2.675999-6-5.999999z" opacity=".3"/><path d="m10.183947 73.547298v4.185371c0 3.324001 2.676 6.000001 6 6.000001h72c3.324 0 6.000002-2.676 6.000002-6.000001v-4.185371c0 3.324-2.676002 5.999999-6.000002 5.999999h-72c-3.324 0-6-2.675999-6-5.999999z" fill="#fff" opacity=".3"/></g><g transform="matrix(.57142857393 0 0 .3696525885 -3.56832357462 -17.14156046271)"><path d="m32.994566 51.505433v27.500002c0 .830999.669 1.499999 1.499999 1.499999h3c.831001 0 1.500001-.669 1.500001-1.499999v-27.500002h-2v1.000001h-2v-1.000001z" fill="#252525"/><path d="m34.994564 52.505436h2v24.5h-2z" fill="#4d4d4d"/><rect fill="url(#k)" height="2.814449" rx=".49409" ry=".703612" stroke="#000" stroke-linecap="square" stroke-opacity=".563636" stroke-width=".294808" width="2.964539" x="34.512299" y="76.520912"/><path d="m66 6v55c0 1.662 1.338 3 3 3h6c1.662 0 3-1.338 3-3v-55h-4v2h-4v-2z" style="fill:none;stroke:#000;stroke-width:2;stroke-linecap:square;clip-path:url(#i);filter:url(#j)" transform="matrix(.50000001 0 0 .50000001 -.005435 48.505434)"/><path id="u" d="m34.661677 73.305932c-.143832 0-.266578.14822-.266578.340013v2.040087c0 .191792.122748.340012.266578.340012h.533157c.143831 0 .266578-.14822.266578-.340012v-.340017h.799732c.147686 0 .266579-.151645.266579-.340013v-.680029c0-.188366-.118893-.340013-.266579-.340013h-.799732v-.340015c0-.191793-.122749-.340013-.266578-.340013z" fill="url(#s)" stroke="#000" stroke-linecap="square" stroke-opacity=".563636" stroke-width=".301065"/><use id="v" height="96" transform="translate(0 -4.08017)" width="96" xlink:href="#u"/><use height="96" transform="translate(0 -4.08017)" width="96" xlink:href="#v"/><path id="w" d="m37.327458 71.265846c.14383 0 .266576.148223.266576.340016v2.040083c0 .191792-.122747.340015-.266576.340015h-.533157c-.143831 0-.266578-.148223-.266578-.340015v-.340013h-.799735c-.147683 0-.266576-.151646-.266576-.340014v-.680029c0-.188368.118893-.340014.266576-.340014h.799735v-.340013c0-.191793.122748-.340016.266578-.340016z" fill="url(#t)" stroke="#000" stroke-linecap="square" stroke-opacity=".563636" stroke-width=".301065"/><use height="96" transform="translate(0 -4.08017)" width="96" xlink:href="#w"/><path d="m32.494566 51.505433v27.500002c0 1.101147.898853 2 1.999999 2h3c1.101148 0 2.000001-.898853 2.000001-2v-27.500002h-.5v27.500002c0 .830999-.669 1.499999-1.500001 1.499999h-3c-.830999 0-1.499999-.669-1.499999-1.499999v-27.500002z" fill="url(#l)"/><path d="m34.781437 53.113439c-.298876 0-.534671.252401-.534671.565924l-.0022 5.659252c.000009.313524.235804.565926.53468.565926h2.428458c.298875 0 .53467-.252402.53467-.565926l.0022-5.659252c0-.313523-.235796-.565924-.53467-.565924z" fill="url(#n)"/><path d="m37.101169 53.609136c.120483 0 .217478.116686.217478.261627v5.265247c0 .144942-.09699.261627-.217478.261627h-2.21556c-.120483 0-.217478-.116685-.217478-.261627v-5.265247c0-.144941.09699-.261627.217478-.261627z" fill="url(#m)"/><rect fill="url(#o)" height="2.5" rx=".281567" ry=".25" stroke="#000" stroke-linecap="square" stroke-opacity=".563636" stroke-width=".5" width="1.689404" x="35.149864" y="51.49762"/><g transform="translate(.068359 -8.103393)"><use height="96" width="96" xlink:href="#v"/><use height="96" width="96" xlink:href="#w"/></g></g><path d="m15.558979 11.681021c.292176 9.872933-2.288513 14.670462-4.62248 23.153986l-4.1972256 2.627609c-3.431146 8.393626.340744 5.328755-2.116479 12.001985-5.36258604 5.994862-16.2500764 18.752853-19.7364114 19.921564-2.548188-.06974 1.723701-3.784074 2.282029-5.234759-7.170663 6.195101-5.755359 9.300839-16.723994 13.072635l-.318114-.903032c-27.040171 16.019019-64.604261-15.720668-64.110881-59.02098-.28572 2.746096-.82119 2.05958-1.41859 3.162933-1.39582-22.2753948 8.17374-44.648869 24.313428-53.798484 15.785878-9.832065 34.292006-5.802803 45.591744 7.474168-6.206553-10.240706-18.571023-21.098487-33.214284-20.093213-14.351091.294202-27.780298 11.773158-32.259938 24.240996-7.34921 5.823228-8.20618 22.4592738-11.406863 25.5077848-4.31408 39.8840272 8.105573 57.1085252 29.117702 77.3815682 3.298045 2.803324.928399 3.23239 1.369875 5.365541-6.979149-4.110997-13.367534-10.322441-18.626234-17.927391 2.79166 5.136713 5.80082 10.130382 9.692921 14.053402-6.586391-2.799258-15.380131-20.07687-17.941321-20.779745 11.3452 25.573175 46.023486 44.849111 64.192016 35.282655-8.407458.392347-19.083907.216648-28.523642-4.176388-3.976496-2.570397-9.361818-7.886907-8.397708-8.87992 24.787375 11.650556 50.386265 8.818644 71.83011936-12.819266 5.45998004-5.353296 11.41985264-14.453896 13.14353364-14.576482-2.593642 4.911951.444782 2.361979-1.548392 6.697738 5.427525-11.037562-2.3664213-4.49513 5.615781-19.059333l2.947491 5.108091c-1.103637-9.17004 9.040433-20.293435 8.008168-34.7841 2.327477-4.429738 2.593658 4.773005.125923 14.96468 3.424666-11.30729.905608-13.125764 1.782115-22.4592731.944588 3.1384091 2.200878 6.4688931 2.840365 9.7830171-2.233331-10.9313192 2.282022-18.4014056 3.405179-24.7558772-1.110234-.612961-3.444144 4.8302326-3.982995-8.0748848.08096-5.606646 1.243207-2.938187 1.687989-4.319398-.869926-.633354-3.164979-4.932393-4.55755-13.174812 1.003047-1.941076 2.700764 5.022291 4.077117 5.304265-.886117-6.550629-2.408617-11.548396-2.473547-16.578867-4.025177-10.583972-1.425045 1.413898-4.68415-4.544161-4.284868-16.81176 3.551266-3.902578 4.083627-11.536101 6.485755 11.830336 10.18308 30.178613 11.887301 37.775367-1.29852-9.264021-3.39221-18.242019-5.953408-26.925782 1.976892 1.050224-3.177943-19.055251 2.567704-5.741494-6.131924-28.380597-26.22216-54.901833-44.7088226-67.341083 2.256057 2.6031 5.10940096 5.87227 4.090117 6.38717-9.1995044-6.88571-7.582932-7.42922-8.9008534-10.33878-7.482314-3.83721-7.982208.31459-12.932547.008-14.120611-9.43159-16.840878-8.43039-29.835066-14.33128l.590784 3.48168c-9.352068-3.92302-10.897212 1.47929-21.002393.008-.613572-.60075 3.239628-2.19036 6.414327-2.76655-9.043687 1.50383-8.621694-2.24756-17.470593.4127 2.17813-1.92473 4.48936-3.2038 6.813595-4.83838-7.371945.564-17.606945 5.40233-14.448475.9971-12.026873 6.75903-33.389603 16.24375-45.377513 30.39521l-.37656-3.1711c-5.49244 8.29965-23.95313 24.788586-25.42361 35.548273l-1.47048.429033c-2.85333 6.09294-4.70687 12.994998-6.97267 19.259555-3.73627 8.021771-5.47943 3.089379-4.94707 4.348021-7.35246 18.765098-11.01084 34.530732-14.16283 47.4685195 2.24632 4.2295008.0555 25.4669505.90247 42.4625885-3.6876 83.95262 46.80253 165.4574 101.993063 184.2716 8.08933 3.64922 20.116203 3.51846 30.347969 3.878-12.069062-4.34799-13.627212-2.30065-25.391149-7.46196-8.4821-5.03452-10.33888-10.77603-16.3507-17.34297l2.3794 5.29197c-11.783413-5.25111-6.852553-6.49745-16.441583-10.31829l2.54171-4.17229c-3.82069-.36782-10.11815-8.09941-11.8386-12.3943l-4.18101.20854c-5.01849-7.78883-7.69654-13.4159-7.49853-17.77619l-1.35039 3.03217c-1.52893-3.30596-18.47365-29.25099-9.68319-23.2112-1.63278-1.87152-3.80445-3.05257-6.15787-8.44265l1.7886-2.5704c-4.22319-6.85303-7.78418-15.63485-7.5115-18.56079 2.25604 3.83312 3.82066 4.55234 5.37232 5.21026-10.68298-33.361985-11.28351-1.83491-19.3696-33.958619l1.70746-.171749c-1.30811-2.496842-2.10999-5.189825-3.16171-7.841941l.74655-9.337592c-7.68682-11.180606-2.14892-47.587056-1.03544-67.5495193.76274-8.1157187 6.41759-16.7586147 10.71218-30.3134777l-2.61637-.564079c5.00553-10.984449 28.57236-44.129871 39.49229-42.429901 5.28794-8.360922-1.05176-.03322-2.08726-2.133135 11.61789-15.132231 15.26977-10.69023 23.10915-13.4159 8.449643-6.313617-7.25509 2.46822-3.24937-2.406945 14.617263-4.695352 10.355123-10.682052 29.419584-13.064472 2.012598 1.43844-4.664661 2.22303-6.339681 4.09057 12.172941-7.50277 38.528199-5.79054 55.654718 4.16003 19.8565164 11.691423 42.180085 46.2344 43.063025 78.734158l1.003047.339118c-.506397 12.921444 1.571117 27.8656989-2.03533 41.588096l2.437855-6.501581" fill="#d70751" stroke="#d70751" stroke-width="3.288899" transform="matrix(.03411472 0 0 .02709924 10.628675 7.92293)"/></svg>