<svg height="24" width="24" xmlns="http://www.w3.org/2000/svg" xmlns:xlink="http://www.w3.org/1999/xlink"><linearGradient id="a" gradientTransform="matrix(.90659037 0 0 .92290809 -5.072708 14.780623)" gradientUnits="userSpaceOnUse" x1="32.891998" x2="36.358002" y1="8.059" y2="5.4565"><stop offset="0" stop-color="#ddecff"/><stop offset="1" stop-color="#bfd3e6"/></linearGradient><radialGradient id="b" cx="48" cy="90.171875" gradientTransform="matrix(.38970735 0 0 .33673464 -.420242 14.493148)" gradientUnits="userSpaceOnUse" r="42" xlink:href="#c"/><linearGradient id="c"><stop offset="0" stop-color="#fff"/><stop offset="1" stop-color="#fff" stop-opacity="0"/></linearGradient><linearGradient id="d" gradientTransform="matrix(0 -.42933676 .33673468 0 2.122449 47.433164)" gradientUnits="userSpaceOnUse" x1="7.3709" x2="23.76619" y1="51.470146" y2="51.433136"><stop offset="0" stop-color="#637381"/><stop offset="1" stop-color="#6a7e8d"/></linearGradient><linearGradient id="e" gradientUnits="userSpaceOnUse" x1="248.07678816" x2="248.07678816" y1="-62.6598922" y2="-98.66515562275"><stop offset="0" stop-color="#a8bece"/><stop offset="1" stop-color="#cddfed"/></linearGradient><linearGradient id="f" gradientTransform="matrix(.4285717 0 0 .43033246 227.50536 -101.24189)" gradientUnits="userSpaceOnUse" x1="36.357143" x2="36.357143" xlink:href="#c" y1="6" y2="63.893143"/><linearGradient id="g" gradientTransform="matrix(1.0058652 0 0 .994169 100 0)" gradientUnits="userSpaceOnUse" x1="45.447727" x2="45.447727" y1="92.539597" y2="7.01654"><stop offset="0"/><stop offset="1" stop-opacity=".588235"/></linearGradient><linearGradient id="h" gradientTransform="matrix(.90932204 0 0 -.90907903 8.945106 90.567956)" gradientUnits="userSpaceOnUse" x1="32.251034" x2="32.251034" xlink:href="#g" y1="6.131708" y2="90.238609"/><linearGradient id="i" gradientTransform="matrix(.88394566 0 0 -.88394572 10.163169 89.361561)" gradientUnits="userSpaceOnUse" x1="32.251034" x2="32.251034" xlink:href="#g" y1="6.131708" y2="90.238609"/><linearGradient id="j" gradientTransform="matrix(.33839803 0 0 .33937548 1.835821 11.234829)" gradientUnits="userSpaceOnUse" x1="19.862228" x2="79.795067" y1="22.729111" y2="76.817848"><stop offset="0" stop-color="#8f9fb1"/><stop offset="1" stop-color="#e5efff"/></linearGradient><linearGradient id="k" gradientUnits="userSpaceOnUse" spreadMethod="reflect" x1="48.40678" x2="48" y1="23.38983" y2="72"><stop offset="0" stop-color="#4a7aff"/><stop offset="1" stop-color="#0c577f"/></linearGradient><linearGradient id="l"><stop offset="0" stop-color="#50d8f5"/><stop offset="1" stop-color="#2ca5c2" stop-opacity="0"/></linearGradient><clipPath id="m"><rect height="55.999996" rx="3" width="72" x="12" y="20"/></clipPath><radialGradient id="n" cx="56" cy="24" gradientUnits="userSpaceOnUse" r="16"><stop offset="0" stop-color="#3391aa"/><stop offset="1" stop-color="#2c606a" stop-opacity="0"/></radialGradient><radialGradient id="o" cx="60.562889" cy="49.720657" gradientUnits="userSpaceOnUse" r="19.437111" xlink:href="#l"/><radialGradient id="p" cx="47.977352" cy="64.057671" gradientUnits="userSpaceOnUse" r="24.022646" xlink:href="#l"/><radialGradient id="q" cx="58.5" cy="37.5" gradientUnits="userSpaceOnUse" r="2.5" xlink:href="#c"/><g transform="matrix(.7 0 0 .7 -.8 -9.5)"><g transform="matrix(.40210864 0 0 .40210864 -2.862207 11.842456)"><path d="m20.618253 86.01187c-3.916074 0-7.105399-3.225978-7.105399-7.187076v-63.785252c0-3.961099 3.189325-7.1870759 7.105399-7.1870759h41.230022l29.823983 29.8239829v41.148345c0 3.961098-3.189315 7.187076-7.1054 7.187076z" fill="url(#h)" opacity=".329"/><path d="m21.510559 84.057885h62.16399c3.34823 0 6.04372-2.727212 6.04372-6.114824v-39.038079l-29.09854-29.0985314h-39.10917c-3.34822 0-6.04372 2.7272114-6.04372 6.1148244v62.021786c0 3.387612 2.6955 6.114824 6.04372 6.114824z" fill="url(#i)" opacity=".412"/></g><g transform="matrix(.78571428 0 0 .78571428 -176.63176 94.08992)"><path d="m232.64822-98.6599h19.54285l13.88572 13.885715v19.542857c0 1.424571-1.14685 2.571428-2.57143 2.571428h-30.85714c-1.42458 0-2.57143-1.146857-2.57143-2.571428v-30.857144c0-1.424571 1.14685-2.571428 2.57143-2.571428z" fill="url(#e)"/><path d="m232.64822-98.6599c-1.42457 0-2.57143 1.151568-2.57143 2.581998v.860662 28.234034c1.98322 4.185183.51348 2.977317.42857.430332v-28.09486-.860668c0-1.197119.95064-2.151664 2.14286-2.151664h.85715 17.82858.85715l13.45714 13.326778v.860667 16.919747c-1.2063 3.165148.42855 3.584963.42855-.430333v-16.919747-.860668l-13.88571-13.896278z" fill="url(#f)" opacity=".5"/></g><path d="m8.2211626 35c-1.124779 0-1.36402-.169155-1.36402-1.22495v-13.264386c0-1.055793.240809-1.168776 1.36402-1.22495h15.1494484l6.30949 5.746939v8.742397c0 1.055795-.239242 1.22495-1.364021 1.22495z" fill="url(#j)"/><g clip-path="url(#m)" stroke="none" stroke-opacity="0" transform="matrix(.28769841 0 0 .24489798 4.377764 15.264898)"><path d="m12 20h50l22 19.999998v35.999998h-72z" fill="url(#k)"/><path d="m72 24a16 16 0 1 1 -32 0 16 16 0 1 1 32 0z" fill="url(#n)" opacity=".5" transform="matrix(2.4668467 0 0 2.4668467 -110.14342 -33.204321)"/><path d="m80 49.720657a19.437111 19.437111 0 1 1 -38.874222 0 19.437111 19.437111 0 1 1 38.874222 0z" fill="url(#o)" opacity=".696721" transform="matrix(.92606356 0 0 .92606356 20.477805 -.044489)"/><path d="m71.999998 64.057671a24.022646 24.022646 0 1 1 -48.045292 0 24.022646 24.022646 0 1 1 48.045292 0z" fill="url(#p)" transform="translate(-23.999998 -16.057671)"/><path d="m80 49.720657a19.437111 19.437111 0 1 1 -38.874222 0 19.437111 19.437111 0 1 1 38.874222 0z" fill="url(#o)" opacity=".434426" transform="translate(-12.562889 -5.157768)"/><g fill="#fff"><path d="m61 37.5a2.5 2.5 0 1 1 -5 0 2.5 2.5 0 1 1 5 0z" opacity=".4"/><path d="m61 37.5a2.5 2.5 0 1 1 -5 0 2.5 2.5 0 1 1 5 0z" opacity=".504098" transform="translate(-33.5 10)"/><path d="m61 37.5a2.5 2.5 0 1 1 -5 0 2.5 2.5 0 1 1 5 0z" opacity=".3" transform="translate(4 13.5)"/><path d="m61 37.5a2.5 2.5 0 1 1 -5 0 2.5 2.5 0 1 1 5 0z" opacity=".504098" transform="translate(17 8.5)"/><path d="m61 37.5a2.5 2.5 0 1 1 -5 0 2.5 2.5 0 1 1 5 0z" opacity=".504098" transform="translate(-17 7.5)"/><path d="m61 37.5a2.5 2.5 0 1 1 -5 0 2.5 2.5 0 1 1 5 0z" opacity=".504098" transform="translate(-42 3.5)"/><path d="m61 37.5a2.5 2.5 0 1 1 -5 0 2.5 2.5 0 1 1 5 0z" opacity=".3" transform="translate(-42 3.5)"/><path d="m61 37.5a2.5 2.5 0 1 1 -5 0 2.5 2.5 0 1 1 5 0z" opacity=".504098" transform="matrix(.4 0 0 .4 -6.4 35)"/><path d="m61 37.5a2.5 2.5 0 1 1 -5 0 2.5 2.5 0 1 1 5 0z" opacity=".504098" transform="matrix(.4 0 0 .4 7.6 38)"/><path d="m61 37.5a2.5 2.5 0 1 1 -5 0 2.5 2.5 0 1 1 5 0z" opacity=".504098" transform="matrix(.4 0 0 .4 9.6 34)"/><path d="m61 37.5a2.5 2.5 0 1 1 -5 0 2.5 2.5 0 1 1 5 0z" opacity=".3" transform="matrix(.4 0 0 .4 16.6 36)"/><path d="m61 37.5a2.5 2.5 0 1 1 -5 0 2.5 2.5 0 1 1 5 0z" opacity=".504098" transform="matrix(.4 0 0 .4 28.6 28)"/><path d="m61 37.5a2.5 2.5 0 1 1 -5 0 2.5 2.5 0 1 1 5 0z" opacity=".504098" transform="matrix(.4 0 0 .4 45.6 33)"/><path d="m61 37.5a2.5 2.5 0 1 1 -5 0 2.5 2.5 0 1 1 5 0z" opacity=".504098" transform="matrix(.4 0 0 .4 47.6 29)"/><path d="m61 37.5a2.5 2.5 0 1 1 -5 0 2.5 2.5 0 1 1 5 0z" opacity=".504098" transform="matrix(.4 0 0 .4 55.6 23)"/><path d="m61 37.5a2.5 2.5 0 1 1 -5 0 2.5 2.5 0 1 1 5 0z" opacity=".504098" transform="matrix(.4 0 0 .4 38.6 30)"/><path d="m61 37.5a2.5 2.5 0 1 1 -5 0 2.5 2.5 0 1 1 5 0z" opacity=".504098" transform="matrix(.4 0 0 .4 38.6 30)"/><path d="m61 37.5a2.5 2.5 0 1 1 -5 0 2.5 2.5 0 1 1 5 0z" opacity=".504098" transform="matrix(.6 0 0 .6 -1.1 21)"/><path d="m61 37.5a2.5 2.5 0 1 1 -5 0 2.5 2.5 0 1 1 5 0z" opacity=".504098" transform="matrix(.6 0 0 .6 -6.6 18.5)"/><path d="m61 37.5a2.5 2.5 0 1 1 -5 0 2.5 2.5 0 1 1 5 0z" opacity=".504098" transform="matrix(.6 0 0 .6 15.9 31)"/><path d="m61 37.5a2.5 2.5 0 1 1 -5 0 2.5 2.5 0 1 1 5 0z" opacity=".504098" transform="matrix(.6 0 0 .6 19.4 26.5)"/><path d="m61 37.5a2.5 2.5 0 1 1 -5 0 2.5 2.5 0 1 1 5 0z" opacity=".504098" transform="matrix(.6 0 0 .6 19.4 26.5)"/><path d="m61 37.5a2.5 2.5 0 1 1 -5 0 2.5 2.5 0 1 1 5 0z" opacity=".504098" transform="matrix(.6 0 0 .6 37.9 29)"/></g><path d="m61 37.5a2.5 2.5 0 1 1 -5 0 2.5 2.5 0 1 1 5 0z" fill="url(#q)" opacity=".3" transform="matrix(1.6 0 0 1.6 -43.6 -16)"/><path d="m61 37.5a2.5 2.5 0 1 1 -5 0 2.5 2.5 0 1 1 5 0z" fill="url(#q)" opacity=".3" transform="matrix(1.6 0 0 1.6 -23.6 -10)"/><path d="m61 37.5a2.5 2.5 0 1 1 -5 0 2.5 2.5 0 1 1 5 0z" fill="url(#q)" opacity=".3" transform="matrix(1.6 0 0 1.6 -72.6 -15)"/><path d="m61 37.5a2.5 2.5 0 1 1 -5 0 2.5 2.5 0 1 1 5 0z" fill="url(#q)" opacity=".3" transform="matrix(1.6 0 0 1.6 -59.6 -9)"/><path d="m61 37.5a2.5 2.5 0 1 1 -5 0 2.5 2.5 0 1 1 5 0z" fill="url(#q)" opacity=".3" transform="translate(-27 2.5)"/><path d="m61 37.5a2.5 2.5 0 1 1 -5 0 2.5 2.5 0 1 1 5 0z" fill="url(#q)" opacity=".3" transform="translate(9 4.5)"/><path d="m61 37.5a2.5 2.5 0 1 1 -5 0 2.5 2.5 0 1 1 5 0z" fill="url(#q)" opacity=".3" transform="translate(21 6.5)"/><path d="m61 37.5a2.5 2.5 0 1 1 -5 0 2.5 2.5 0 1 1 5 0z" fill="url(#q)" opacity=".3" transform="translate(-35 12.5)"/><path d="m61 37.5a2.5 2.5 0 1 1 -5 0 2.5 2.5 0 1 1 5 0z" fill="#fff" opacity=".504098" transform="matrix(.4 0 0 .4 39.6 24)"/><g fill="#fff" transform="translate(0 -.000002)"><path d="m15 20h1v56h-1z" opacity=".3"/><path d="m19 20h1v56h-1z" opacity=".3"/><path d="m27 20h1v56h-1z" opacity=".3"/><path d="m23 20h1v56h-1z" opacity=".3"/><path d="m31 20h1v56h-1z" opacity=".3"/><path d="m35 20h1v56h-1z" opacity=".3"/><path d="m39 20h1v56h-1z" opacity=".3"/><path d="m43 20h1v56h-1z" opacity=".3"/><path d="m47 20h1v56h-1z" opacity=".3"/><path d="m51 20h1v56h-1z" opacity=".3"/><path d="m55 20h1v56h-1z" opacity=".3"/><path d="m59 20h1v56h-1z" opacity=".3"/><path d="m63 20h1v56h-1z" opacity=".3"/><path d="m67 20h1v56h-1z" opacity=".3"/><path d="m71 20h1v56h-1z" opacity=".3"/><path d="m75 26.250348h1v49.749652h-1z" opacity=".3"/><path d="m79 30.250348h1v45.749652h-1z" opacity=".3"/><path d="m72-84h1v72h-1z" opacity=".3" transform="rotate(90)"/><path d="m68-84h1v72h-1z" opacity=".3" transform="rotate(90)"/><path d="m64-84h1v72h-1z" opacity=".3" transform="rotate(90)"/><path d="m60-84h1v72h-1z" opacity=".3" transform="rotate(90)"/><path d="m56-84h1v72h-1z" opacity=".3" transform="rotate(90)"/><path d="m52-84h1v72h-1z" opacity=".3" transform="rotate(90)"/><path d="m48-84h1v72h-1z" opacity=".3" transform="rotate(90)"/><path d="m44-84h1v72h-1z" opacity=".3" transform="rotate(90)"/><path d="m40-84h1v72h-1z" opacity=".3" transform="rotate(90)"/><path d="m36-84h1v72h-1z" opacity=".3" transform="rotate(90)"/><path d="m32-78.763565h1v66.763565h-1z" opacity=".3" transform="rotate(90)"/><path d="m28-78.763565h1v66.763565h-1z" opacity=".3" transform="rotate(90)"/><path d="m24-74.763565h1v62.763565h-1z" opacity=".3" transform="rotate(90)"/></g><g transform="translate(0 -.000002)"><path d="m20 73h3v3h-3z" fill="#194280"/><path d="m20 69h3v3h-3z" fill="#19447f"/><path d="m20 65h3v3h-3z" fill="#2d6499"/><path d="m20 61h3v3h-3z" fill="#3c7fab"/><path d="m20 57h3v3h-3z" fill="#4996bc"/><path d="m20 53h3v3h-3z" fill="#53a7c7"/><path d="m20 49h3v3h-3z" fill="#66bad3"/><path d="m20 45h3v3h-3z" fill="#76c3d8"/><path d="m20 41h3v3h-3z" fill="#6ab9d0"/><path d="m20 37h3v3h-3z" fill="#48a5bf"/><path d="m20 33h3v3h-3z" fill="#3a9ab1"/><path d="m20 29h3v3h-3z" fill="#298ea2"/><path d="m20 25h3v3h-3z" fill="#17808f"/><path d="m20 20h3v4h-3z" fill="#0d7583"/><path d="m12 73h3v3h-3z" fill="#194280"/><path d="m12 69h3v3h-3z" fill="#153d7a"/><path d="m12 65h3v3h-3z" fill="#275691"/><path d="m12 61h3v3h-3z" fill="#3673a5"/><path d="m12 57h3v3h-3z" fill="#4287b4"/><path d="m12 53h3v3h-3z" fill="#4b98bf"/><path d="m12 49h3v3h-3z" fill="#50a3c7"/><path d="m12 45h3v3h-3z" fill="#50a5c7"/><path d="m12 41h3v3h-3z" fill="#49a0c0"/><path d="m12 37h3v3h-3z" fill="#4097b6"/><path d="m12 33h3v3h-3z" fill="#338aa8"/><path d="m12 29h3v3h-3z" fill="#237b97"/><path d="m12 25h3v3h-3z" fill="#136b84"/><path d="m12 20h3v4h-3z" fill="#0e657e"/><path d="m16 73h3v3h-3z" fill="#19427f"/><path d="m16 69h3v3h-3z" fill="#16407d"/><path d="m16 65h3v3h-3z" fill="#2a5f95"/><path d="m16 61h3v3h-3z" fill="#397aa9"/><path d="m16 57h3v3h-3z" fill="#4690b9"/><path d="m16 53h3v3h-3z" fill="#4fa0c3"/><path d="m16 49h3v3h-3z" fill="#9bcee0"/><path d="m16 45h3v3h-3z" fill="#56aecc"/><path d="m16 41h3v3h-3z" fill="#c2e1eb"/><path d="m16 37h3v3h-3z" fill="#459fbb"/><path d="m16 33h3v3h-3z" fill="#3794ae"/><path d="m16 29h3v3h-3z" fill="#28879d"/><path d="m16 25h3v3h-3z" fill="#15778a"/><path d="m16 20h3v4h-3z" fill="#0d6d81"/><path d="m24 73h3v3h-3z" fill="#194280"/><path d="m24 69h3v3h-3z" fill="#19447f"/><path d="m24 65h3v3h-3z" fill="#2e679a"/><path d="m24 61h3v3h-3z" fill="#3d80ad"/><path d="m24 57h3v3h-3z" fill="#4997bc"/><path d="m24 53h3v3h-3z" fill="#53a9c8"/><path d="m24 49h3v3h-3z" fill="#5eb6d0"/><path d="m24 45h3v3h-3z" fill="#aedce8"/><path d="m24 41h3v3h-3z" fill="#54b0ca"/><path d="m24 37h3v3h-3z" fill="#48a6bf"/><path d="m24 33h3v3h-3z" fill="#399bb1"/><path d="m24 29h3v3h-3z" fill="#2992a2"/><path d="m24 25h3v3h-3z" fill="#188a93"/><path d="m24 20h3v4h-3z" fill="#0c7c86"/><path d="m28 73h3v3h-3z" fill="#194380"/><path d="m28 69h3v3h-3z" fill="#17417d"/><path d="m28 65h3v3h-3z" fill="#2b6196"/><path d="m28 61h3v3h-3z" fill="#3a7ba9"/><path d="m28 57h3v3h-3z" fill="#4692b9"/><path d="m28 53h3v3h-3z" fill="#50a3c4"/><path d="m28 49h3v3h-3z" fill="#55aecb"/><path d="m28 45h3v3h-3z" fill="#57b1cd"/><path d="m28 41h3v3h-3z" fill="#86c5d8"/><path d="m28 37h3v3h-3z" fill="#4da6bf"/><path d="m28 33h3v3h-3z" fill="#3799af"/><path d="m28 29h3v3h-3z" fill="#2791a2"/><path d="m28 25h3v3h-3z" fill="#148991"/><path d="m28 20h3v4h-3z" fill="#0b7d87"/><path d="m32 73h3v3h-3z" fill="#194280"/><path d="m32 69h3v3h-3z" fill="#153e7a"/><path d="m32 65h3v3h-3z" fill="#275b93"/><path d="m32 61h3v3h-3z" fill="#3776a6"/><path d="m32 57h3v3h-3z" fill="#428bb5"/><path d="m32 53h3v3h-3z" fill="#519ec3"/><path d="m32 49h3v3h-3z" fill="#80bfd9"/><path d="m32 45h3v3h-3z" fill="#54aecc"/><path d="m32 41h3v3h-3z" fill="#a8d5e3"/><path d="m32 37h3v3h-3z" fill="#43a0bb"/><path d="m32 33h3v3h-3z" fill="#3496ac"/><path d="m32 29h3v3h-3z" fill="#21899b"/><path d="m32 25h3v3h-3z" fill="#107c8a"/><path d="m32 20h3v4h-3z" fill="#0d7684"/><path d="m36 73h3v3h-3z" fill="#194280"/><path d="m36 69h3v3h-3z" fill="#153e7b"/><path d="m36 65h3v3h-3z" fill="#214f8b"/><path d="m36 61h3v3h-3z" fill="#306a9f"/><path d="m36 57h3v3h-3z" fill="#3f83b2"/><path d="m36 53h3v3h-3z" fill="#4997c0"/><path d="m36 49h3v3h-3z" fill="#56a8cc"/><path d="m36 45h3v3h-3z" fill="#53aacd"/><path d="m36 41h3v3h-3z" fill="#4ca5c6"/><path d="m36 37h3v3h-3z" fill="#429dbb"/><path d="m36 33h3v3h-3z" fill="#3390ab"/><path d="m36 29h3v3h-3z" fill="#218299"/><path d="m36 25h3v3h-3z" fill="#0f7285"/><path d="m36 20h3v4h-3z" fill="none"/><path d="m40 73h3v3h-3z" fill="#1a4381"/><path d="m40 69h3v3h-3z" fill="#163f7c"/><path d="m40 65h3v3h-3z" fill="#204c8a"/><path d="m40 61h3v3h-3z" fill="#2d609a"/><path d="m40 57h3v3h-3z" fill="#3d7caf"/><path d="m40 53h3v3h-3z" fill="#4991be"/><path d="m40 49h3v3h-3z" fill="#5ea7ce"/><path d="m40 45h3v3h-3z" fill="#abd5e7"/><path d="m40 41h3v3h-3z" fill="#84c1d9"/><path d="m40 37h3v3h-3z" fill="#429aba"/><path d="m40 33h3v3h-3z" fill="#328aa8"/><path d="m40 29h3v3h-3z" fill="#207a95"/><path d="m40 25h3v3h-3z" fill="#126b84"/><path d="m40 20h3v4h-3z" fill="none"/><path d="m36 20h3v4h-3z" fill="#0d6e81"/><path d="m40 20h3v4h-3z" fill="#0f677f"/><path d="m44 73h3v3h-3z" fill="#194280"/><path d="m44 69h3v3h-3z" fill="#153e7b"/><path d="m44 65h3v3h-3z" fill="#204b8a"/><path d="m44 61h3v3h-3z" fill="#2a5b98"/><path d="m44 57h3v3h-3z" fill="#3770a9"/><path d="m44 53h3v3h-3z" fill="#468bbd"/><path d="m44 49h3v3h-3z" fill="#51a0cd"/><path d="m44 45h3v3h-3z" fill="#58abd4"/><path d="m44 41h3v3h-3z" fill="#51a6cb"/><path d="m44 37h3v3h-3z" fill="#4395ba"/><path d="m44 33h3v3h-3z" fill="#3184a7"/><path d="m44 29h3v3h-3z" fill="#247696"/><path d="m44 25h3v3h-3z" fill="#156684"/><path d="m44 20h3v4h-3z" fill="none"/><path d="m44 20h3v4h-3z" fill="#0f5f7d"/><path d="m48 73h3v3h-3z" fill="#194280"/><path d="m48 69h3v3h-3z" fill="#153e7b"/><path d="m48 65h3v3h-3z" fill="#204b8a"/><path d="m48 61h3v3h-3z" fill="#2c5c9a"/><path d="m48 57h3v3h-3z" fill="#3971ac"/><path d="m48 53h3v3h-3z" fill="#a4c3de"/><path d="m48 49h3v3h-3z" fill="#529acc"/><path d="m48 45h3v3h-3z" fill="#67afd8"/><path d="m48 41h3v3h-3z" fill="#71b3d5"/><path d="m48 37h3v3h-3z" fill="#4492bb"/><path d="m48 33h3v3h-3z" fill="#3280a7"/><path d="m48 29h3v3h-3z" fill="#247094"/><path d="m48 25h3v3h-3z" fill="#166082"/><path d="m48 20h3v4h-3z" fill="none"/><path d="m48 20h3v4h-3z" fill="#10587a"/><path d="m52 73h3v3h-3z" fill="#194380"/><path d="m52 69h3v3h-3z" fill="#153e7b"/><path d="m52 65h3v3h-3z" fill="#204a89"/><path d="m52 61h3v3h-3z" fill="#2b589a"/><path d="m52 57h3v3h-3z" fill="#3a6eac"/><path d="m52 53h3v3h-3z" fill="#4581bc"/><path d="m52 49h3v3h-3z" fill="#73a9d6"/><path d="m52 45h3v3h-3z" fill="#549dd0"/><path d="m52 41h3v3h-3z" fill="#4f98c8"/><path d="m52 37h3v3h-3z" fill="#418ab7"/><path d="m52 33h3v3h-3z" fill="#327aa5"/><path d="m52 29h3v3h-3z" fill="#256a93"/><path d="m52 25h3v3h-3z" fill="#155880"/><path d="m52 20h3v4h-3z" fill="none"/><path d="m52 20h3v4h-3z" fill="#115279"/><path d="m56 73h3v3h-3z" fill="#1a4381"/><path d="m56 69h3v3h-3z" fill="#153e7b"/><path d="m56 65h3v3h-3z" fill="#204a89"/><path d="m56 61h3v3h-3z" fill="#2a5799"/><path d="m56 57h3v3h-3z" fill="#3869ab"/><path d="m56 53h3v3h-3z" fill="#447cbb"/><path d="m56 49h3v3h-3z" fill="#4e8cc8"/><path d="m56 45h3v3h-3z" fill="#5193cc"/><path d="m56 41h3v3h-3z" fill="#4789bf"/><path d="m56 37h3v3h-3z" fill="#8bb2d0"/><path d="m56 33h3v3h-3z" fill="#3071a0"/><path d="m56 29h3v3h-3z" fill="#21608f"/><path d="m56 25h3v3h-3z" fill="#15517e"/><path d="m56 20h3v4h-3z" fill="none"/><path d="m56 20h3v4h-3z" fill="#124d79"/><path d="m60 73h3v3h-3z" fill="#194280"/><path d="m60 69h3v3h-3z" fill="#153e7b"/><path d="m60 65h3v3h-3z" fill="#204b8a"/><path d="m60 61h3v3h-3z" fill="#2a5799"/><path d="m60 57h3v3h-3z" fill="#3563a8"/><path d="m60 53h3v3h-3z" fill="#4477bc"/><path d="m60 49h3v3h-3z" fill="#84aedb"/><path d="m60 45h3v3h-3z" fill="#5394d0"/><path d="m60 41h3v3h-3z" fill="#4a89c2"/><path d="m60 37h3v3h-3z" fill="#5f95c8"/><path d="m60 33h3v3h-3z" fill="#2d679d"/><path d="m60 29h3v3h-3z" fill="#20568b"/><path d="m60 25h3v3h-3z" fill="#164c7e"/><path d="m60 20h3v4h-3z" fill="none"/><path d="m60 20h3v4h-3z" fill="#134779"/><path d="m64 73h3v3h-3z" fill="#194280"/><path d="m64 69h3v3h-3z" fill="#163e7b"/><path d="m64 65h3v3h-3z" fill="#204a8a"/><path d="m64 61h3v3h-3z" fill="#2b5799"/><path d="m64 57h3v3h-3z" fill="#3868ab"/><path d="m64 53h3v3h-3z" fill="#487dbf"/><path d="m64 49h3v3h-3z" fill="#5691d0"/><path d="m64 45h3v3h-3z" fill="#5999d7"/><path d="m64 41h3v3h-3z" fill="#5d95cd"/><path d="m64 37h3v3h-3z" fill="none"/><path d="m64 33h3v3h-3z" fill="#3166a1"/><path d="m64 29h3v3h-3z" fill="#21538d"/><path d="m64 25h3v3h-3z" fill="#17487e"/><path d="m64 20h3v4h-3z" fill="none"/><path d="m64 20h3v4h-3z" fill="#13437a"/><path d="m68 73h3v3h-3z" fill="#194380"/><path d="m68 69h3v3h-3z" fill="#163e7b"/><path d="m68 65h3v3h-3z" fill="none"/><path d="m68 61h3v3h-3z" fill="#2a5799"/><path d="m68 57h3v3h-3z" fill="#3e72b1"/><path d="m68 53h3v3h-3z" fill="#4c87c5"/><path d="m68 49h3v3h-3z" fill="#85b6e2"/><path d="m68 45h3v3h-3z" fill="#81b9e5"/><path d="m68 41h3v3h-3z" fill="#5d9dd4"/><path d="m68 37h3v3h-3z" fill="none"/><path d="m68 33h3v3h-3z" fill="#3970aa"/><path d="m68 29h3v3h-3z" fill="#275693"/><path d="m68 25h3v3h-3z" fill="#18437f"/><path d="m68 20h3v4h-3z" fill="none"/><path d="m68 20h3v4h-3z" fill="#14407a"/><path d="m68 37h3v3h-3z" fill="#4b87c1"/><path d="m72 73h3v3h-3z" fill="#19427f"/><path d="m72 69h3v3h-3z" fill="#153e7b"/><path d="m72 65h3v3h-3z" fill="none"/><path d="m72 61h3v3h-3z" fill="#2d5c9c"/><path d="m72 57h3v3h-3z" fill="#4077b4"/><path d="m72 53h3v3h-3z" fill="#518fca"/><path d="m72 49h3v3h-3z" fill="#b1d5ee"/><path d="m72 45h3v3h-3z" fill="#b5ddf4"/><path d="m72 41h3v3h-3z" fill="#61acdd"/><path d="m72 37h3v3h-3z" fill="none"/><path d="m72 33h3v3h-3z" fill="#4078b3"/><path d="m72 29h3v3h-3z" fill="#2a5996"/><path d="m72 25h3v3h-3z" fill="#1a4381"/><path d="m72 20h3v4h-3z" fill="none"/><path d="m72 37h3v3h-3z" fill="#5191c8"/><path d="m68 65h3v3h-3z" fill="#204a89"/><path d="m64 37h3v3h-3z" fill="#427eb8"/><path d="m72 65h3v3h-3z" fill="#204b8a"/><path d="m76 73h3v3h-3z" fill="#194280"/><path d="m76 69h3v3h-3z" fill="#153e7a"/><path d="m76 65h3v3h-3z" fill="none"/><path d="m76 61h3v3h-3z" fill="#2d5b9c"/><path d="m76 57h3v3h-3z" fill="#4178b5"/><path d="m76 53h3v3h-3z" fill="#5190cb"/><path d="m76 49h3v3h-3z" fill="#64ade0"/><path d="m76 45h3v3h-3z" fill="#b7e0f6"/><path d="m76 41h3v3h-3z" fill="#6db6e2"/><path d="m76 37h3v3h-3z" fill="none"/><path d="m76 33h3v3h-3z" fill="#4079b3"/><path d="m76 29h3v3h-3z" fill="#2c5c99"/><path d="m76 20h3v4h-3z" fill="none"/><path d="m76 37h3v3h-3z" fill="#76aad5"/><path d="m76 65h3v3h-3z" fill="#204b8a"/><path d="m80 73h4v3h-4z" fill="#194280"/><path d="m80 69h4v3h-4z" fill="#153e7b"/><path d="m80 65h4v3h-4z" fill="none"/><path d="m80 61h4v3h-4z" fill="#2c5899"/><path d="m80 57h4v3h-4z" fill="#3f74b3"/><path d="m80 53h4v3h-4z" fill="#4f8bc8"/><path d="m80 49h4v3h-4z" fill="#5da2da"/><path d="m80 45h4v3h-4z" fill="#65afe3"/><path d="m80 41h4v3h-4z" fill="#5da3d8"/><path d="m80 37h4v3h-4z" fill="none"/><path d="m80 33h4v3h-4z" fill="#3e75b0"/><path d="m80 20h4v4h-4z" fill="none"/><path d="m80 37h4v3h-4z" fill="#4e8bc5"/><path d="m80 65h4v3h-4z" fill="#214b8b"/></g></g><path d="m17.574642 16.572005c2.498363 0 .978665 11.229997.978665 11.229997s13.877949-1.469924 13.877949 3.130712c0-1.120679-.0027-3.451081-.0027-3.451081l-10.910194-10.910204z" fill-rule="evenodd" opacity=".2" stroke-width=".750917"/><path d="m4.142857 42.281122c0 1.427115.901102 2.576021 2.0204085 2.576021h24.2448965c1.119307 0 2.020409-1.148906 2.020409-2.576021v-5.85255h-28.285714z" fill="url(#d)"/><path d="m6.1632649 44.857143c-1.1193059 0-2.0204079-.904805-2.0204079-2.02871v-.785567c.013779-4.111219.3367334-4.198891.3367334-.338138v.676237c0 .940593.7469286 1.690591 1.6836745 1.690591h.6734709 22.8979482.673471c.936746 0 1.683674-.749998 1.683674-1.690591v-.676237c.03306-4.583428.336742-3.015029.336742.338119v.785566c-.000008 1.123925-.90111 2.02873-2.020416 2.02873z" fill="url(#b)" opacity=".2"/><g fill-rule="evenodd"><path d="m18.503357 16.571429c2.362014 0 .915801 10.402988.915801 10.402988s4.605338-.548185 8.335981-.0762c2.53971.321312 4.674044 1.11542 4.674044 2.877141 0-1.059522-.000612-2.293727-.000612-2.293727l-10.910209-10.910202z" opacity=".2" stroke-width=".709936"/><path d="m19.617915 16.578262c2.225494 0 .801612 9.609776.801612 9.609776s12.012265-1.475777 12.012265 2.622383c0-.99828-.0032-1.328788-.0032-1.328788l-10.91023-10.910204z" fill="url(#a)" stroke-width=".668903"/></g></g><path d="m2.1 16h19.8v1h-19.8z" opacity=".3"/><g fill="#fff" transform="matrix(.3085001 0 0 .3085001 -2.718159 -6.81808)"><path d="m34.742805 79.024567h2.819825v10.935058h-2.819825z"/><path d="m49.010384 89.359039q-.776368.402832-1.618653.60791-.842285.205079-1.757812.205079-2.731934 0-4.328614-1.523438-1.596679-1.530762-1.596679-4.145508 0-2.62207 1.596679-4.145508 1.59668-1.530761 4.328614-1.530761.915527 0 1.757812.205078.842285.205078 1.618653.60791v2.263184q-.783692-.534668-1.545411-.783692-.761718-.249023-1.604003-.249023-1.50879 0-2.373047.966797-.864258.966797-.864258 2.666015 0 1.691895.864258 2.658692.864257.966797 2.373047.966797.842285 0 1.604003-.249024.761719-.249023 1.545411-.783691z"/><path d="m56.349251 80.87027q-1.289063 0-1.999512.952148-.710449.952149-.710449 2.680664 0 1.721192.710449 2.67334.710449.952149 1.999512.952149 1.296387 0 2.006836-.952149.710449-.952148.710449-2.67334 0-1.728515-.710449-2.680664-.710449-.952148-2.006836-.952148zm0-2.043457q2.636719 0 4.130859 1.508789 1.494141 1.508789 1.494141 4.16748 0 2.651367-1.494141 4.160157-1.49414 1.508789-4.130859 1.508789-2.629395 0-4.13086-1.508789-1.49414-1.50879-1.49414-4.160157 0-2.658691 1.49414-4.16748 1.501465-1.508789 4.13086-1.508789z"/></g></svg>