<svg height="96" width="96" xmlns="http://www.w3.org/2000/svg" xmlns:xlink="http://www.w3.org/1999/xlink"><linearGradient id="a"><stop offset="0" stop-color="#fff"/><stop offset="1" stop-color="#fff" stop-opacity="0"/></linearGradient><linearGradient id="b" gradientTransform="matrix(1.0058652 0 0 .994169 100 0)" gradientUnits="userSpaceOnUse" x1="45.447727" x2="45.447727" y1="92.539597" y2="7.01654"><stop offset="0"/><stop offset="1" stop-opacity=".588235"/></linearGradient><linearGradient id="c" gradientTransform="matrix(.88095236 0 0 .88095242 102.24686 -91.378936)" gradientUnits="userSpaceOnUse" x1="32.251034" x2="32.251034" xlink:href="#b" y1="6.131708" y2="90.238609"/><linearGradient id="d" gradientTransform="matrix(.85714286 0 0 .85714286 103.38971 -90.236078)" gradientUnits="userSpaceOnUse" x1="32.251034" x2="32.251034" xlink:href="#b" y1="6.131708" y2="90.238609"/><linearGradient id="e" gradientTransform="matrix(0 -1.038889 .91666666 0 4.000007 93.23334)" gradientUnits="userSpaceOnUse" x1="7.3709" x2="23.76619" y1="51.470146" y2="51.433136"><stop offset="0" stop-color="#59275c"/><stop offset="1" stop-color="#6f2d61"/></linearGradient><linearGradient id="f" gradientTransform="matrix(.88966473 0 0 -.88897608 101.82866 91.764071)" gradientUnits="userSpaceOnUse" x1="32.251034" x2="32.251034" xlink:href="#b" y1="6.131708" y2="90.238609"/><linearGradient id="g" gradientTransform="matrix(.88668581 0 0 -.88621557 101.97166 91.631566)" gradientUnits="userSpaceOnUse" x1="32.251034" x2="32.251034" xlink:href="#b" y1="6.131708" y2="90.238609"/><linearGradient id="h" gradientTransform="matrix(.88419911 0 0 -.88396282 102.09102 91.52343)" gradientUnits="userSpaceOnUse" x1="32.251034" x2="32.251034" xlink:href="#b" y1="6.131708" y2="90.238609"/><linearGradient id="i" gradientUnits="userSpaceOnUse" x1="78.04289384" x2="78.04289384" y1="-43.8124403" y2="-113.82267585329"><stop offset="0" stop-color="#7e3d77"/><stop offset="1" stop-color="#aa6fa1"/></linearGradient><radialGradient id="j" cx="48" cy="90.171875" gradientTransform="matrix(1.0608702 0 0 .91666666 -2.921761 4.342447)" gradientUnits="userSpaceOnUse" r="42" xlink:href="#a"/><linearGradient id="k" gradientTransform="matrix(.83333387 0 0 .83675756 38.042891 -118.83298)" gradientUnits="userSpaceOnUse" x1="36.357143" x2="36.357143" xlink:href="#a" y1="6" y2="63.893143"/><linearGradient id="l" gradientTransform="matrix(2.5120358 0 0 2.5572499 -16.740539 4.83188)" gradientUnits="userSpaceOnUse" x1="32.891998" x2="36.358002" y1="8.059" y2="5.4565"><stop offset="0" stop-color="#b567ae"/><stop offset="1" stop-color="#94479c"/></linearGradient><g transform="matrix(1.1 0 0 1.1 -110.98583 -5.502542)"><path d="m114.1583 89.09322c-4.78901 0-8.71691-3.971039-8.71691-8.812629v-62.374743c0-4.841588 3.9279-8.812628 8.71691-8.812628h38.74855l30.7169 30.812628v40.374743c0 4.84159-3.9279 8.812629-8.7169 8.812629z" fill="url(#f)" opacity=".08"/><path d="m114.2634 88.09322c-4.30575 0-7.82165-3.55537-7.82165-7.909474v-62.181052c0-4.354104 3.5159-7.909474 7.82165-7.909474h38.36008l30 30v40.090526c0 4.354104-3.51589 7.909474-7.82165 7.909474z" fill="url(#g)" opacity=".1"/><path d="m114.35075 87.09322c-3.80788 0-6.90909-3.13685-6.90909-6.98851v-62.02298c0-3.851661 3.10121-6.98851 6.90909-6.98851h38.27273l29 29v40.01149c0 3.85166-3.1012 6.98851-6.90909 6.98851z" fill="url(#h)" opacity=".2"/><path d="m114.46511-86.093224h60.13512c3.33689 0 6.02326 2.717977 6.02326 6.094118v38.905886l-29.00001 28.999996h-37.15837c-3.33688 0-6.02325-2.717976-6.02325-6.094117v-61.811765c0-3.376141 2.68637-6.094118 6.02325-6.094118z" fill="url(#c)" opacity=".3" transform="scale(1 -1)"/><path d="m114.58491-85.093224h59.89572c2.84914 0 5.07622 2.294494 5.14286 5.142858v38.857146l-28.00001 27.999996h-37.03857c-2.84914 0-5.14285-2.293714-5.14285-5.142857v-61.714285c0-2.849143 2.29371-5.142858 5.14285-5.142858z" fill="url(#d)" opacity=".45" transform="scale(1 -1)"/></g><g transform="matrix(1.1 0 0 1.1 -37.847176 133.19368)"><path d="m48.042892-113.81244h37.999998l27 27v38.000001c0 2.77-2.23 5-5 5h-59.999998c-2.77 0-5-2.23-5-5v-60.000001c0-2.77 2.23-5 5-5z" fill="url(#i)"/><path d="m48.042897-113.81244c-2.770002 0-5.000003 2.23916-5.000003 5.02055v1.67351 54.899511c3.856259 8.137855.998427 5.789227.833337.836756v-54.899507-1.67352c0-2.32773 1.848461-4.18379 4.166669-4.18379h1.666668 34.666692 1.66667l26.16667 26.18379v1.67352 32.899507c-2.34559 6.154455.83329 6.970762.83329-.836758v-32.899509-1.67352l-27-27.02054z" fill="url(#k)" opacity=".3"/></g><path d="m9.500007 80.766667c0 3.453266 2.453 6.233333 5.5 6.233333h66c3.047 0 5.5-2.780067 5.5-6.233333v-12.766667h-77z" fill="url(#e)"/><path d="m15.000007 87c-3.047 0-5.5-2.463079-5.5-5.522599v-1.999431c.03752-11.191654.916669-11.430318.916669-.920486v1.840867c0 2.560505 2.033306 4.602562 4.583334 4.601891l1.833334-.000484h62.333322 1.833337c2.550031 0 4.583337-2.040903 4.583337-4.601407v-1.840868c.08998-12.477113.916685-8.207579.916685.920435v1.999429c-.000022 3.059574-2.453022 5.522653-5.500022 5.522653z" fill="url(#j)" opacity=".2"/><path d="m42.59271 58.742895c-1.675814-.625582-2.222603-1.097901-5.592023-4.830397-2.733518-3.02807-3.281806-3.513849-3.649229-3.233216-.237813.181637-1.146772.93579-2.019909 1.675898-.873131.740105-1.629011 1.298683-1.67973 1.241284-.151903-.171915-.766808-13.995078-.628688-14.133192.118888-.118897 13.028729 2.230923 13.89123 2.528449.275145.09491.06979.399198-.685897 1.016294-.593248.484451-1.50171 1.264466-2.018819 1.733368l-.940185.85255 3.383799 3.743317c2.739418 3.03046 3.523454 3.743316 4.117105 3.743316.554349 0 2.401793-1.405181 7.570479-5.758165 3.760451-3.16699 6.905158-5.759681 6.988238-5.761535.08307-.002.870664.871361 1.750192 1.940479 1.349956 1.640946 1.540179 2.000795 1.220746 2.309287-1.965124 1.89779-14.700069 11.873579-15.841491 12.409269-1.791537.840795-4.393129 1.072755-5.865818.522994zm7.022911-16.864288c-3.643169-.704753-6.667971-1.353739-6.721788-1.442194-.05382-.08845.735521-.867819 1.754075-1.731924 1.018555-.864103 1.851921-1.631489 1.851921-1.705301 0-.333186-6.672156-7.472263-7.083138-7.57882-.253951-.06585-.610518-.06963-.792382-.0085-.181857.06122-3.391857 2.694781-7.133326 5.852381-3.741474 3.157602-6.878015 5.710983-6.970101 5.674182-.09209-.03679-.880038-.910406-1.751018-1.941345-1.338446-1.584248-1.524892-1.931135-1.204376-2.240697 1.943095-1.876631 14.71344-11.884025 15.880503-12.444613 1.220497-.586256 1.902348-.724303 3.566666-.722098 2.958366.0039 4.02938.690569 7.939395 5.090131 2.653897 2.98617 3.204241 3.48055 3.566666 3.203955.235701-.179885 1.142927-.932605 2.016065-1.672709.87313-.740106 1.628407-1.298684 1.678387-1.241286.08278.09508.715261 12.170731.713186 13.616532-.000553.339518-.155215.607481-.34384.59547-.188618-.01202-3.323721-.598453-6.966895-1.303204z" fill="#fefefe" stroke-width=".274359"/><g fill-rule="evenodd"><path d="m47.685912 9.834481c5.274067-.03438 1.929709 31.844348 1.929709 31.844348s36.911259-7.358947 36.911259 5.214171c0-3.062713-.0092-6.512627-.0092-6.512627l-30.39488-30.541876z" opacity=".2" stroke-width="2.048254"/><path d="m48.835337 9.87792c5.757464-.03438 2.433361 30.193985 2.433361 30.193985s35.065058-6.794184 35.065058 5.440095c0-2.980175-.009-6.337116-.009-6.337116l-29.33919-29.293057z" opacity=".2" stroke-width="1.993055"/><path d="m50.317394 9.897096c5.805406-.0075 2.322169 28.180811 2.322169 28.180811s33.868216-5.549338 33.868216 6.222093c0-2.867429-.0087-3.897369-.0087-3.897369l-30.561253-30.525166z" opacity=".2" stroke-width="1.921337"/><path d="m51.673739 9.812888c6.166533 0 2.221153 26.627352 2.221153 26.627352s32.612519-4.795671 32.612519 6.55976c0-2.766094-.0084-3.681888-.0084-3.681888l-29.558958-29.52416z" fill="url(#l)" stroke-width="1.853437"/></g><path d="m9.500007 68h77v1h-77z" opacity=".3"/><path d="m9.500007 67h77v1h-77z" fill="#fff" opacity=".1"/><g fill="#fff"><path d="m26.842294 81.040062q-.9375.455729-1.946614.683594-1.009115.227864-2.083333.227864-2.428386 0-3.847657-1.354166-1.41927-1.360677-1.41927-3.684896 0-2.35026 1.445312-3.697917 1.445313-1.347656 3.958333-1.347656.970052 0 1.855469.182292.891927.182291 1.679688.540364v2.011719q-.813803-.46224-1.621094-.690104-.800781-.227865-1.608073-.227865-1.497396 0-2.311198.839844-.807292.833333-.807292 2.389323 0 1.542969.78125 2.382812.78125.839844 2.220052.839844.390625 0 .722657-.04557.338541-.05208.605468-.15625v-1.888024h-1.529947v-1.679687h3.906249z"/><path d="m32.604013 76.352562q.787761 0 1.126302-.292969.345052-.292968.345052-.963541 0-.664063-.345052-.950521-.338541-.286458-1.126302-.286458h-1.054687v2.493489zm-1.054687 1.731771v3.678385h-2.506511v-9.720052h3.828125q1.920573 0 2.8125.644532.898438.644531.898438 2.03776 0 .963542-.46875 1.582031-.46224.61849-1.39974.911458.514323.117188.917969.533855.410156.410156.826823 1.25l1.360677 2.760416h-2.669271l-1.184896-2.415364q-.358073-.729167-.729166-.996094-.364584-.266927-.976563-.266927z"/><path d="m46.067554 72.348656v2.057292q-.800781-.358073-1.5625-.540365-.761718-.182292-1.438802-.182292-.898437 0-1.328125.247396-.429687.247396-.429687.768229 0 .390625.286458.611979.292969.214844 1.054688.371094l1.067708.214844q1.621094.325521 2.304687.989583.683594.664063.683594 1.888021 0 1.608073-.957031 2.395833-.950521.78125-2.910156.78125-.924479 0-1.855469-.175781-.93099-.175781-1.861979-.520833v-2.115886q.930989.494792 1.796875.748698.872396.247396 1.679687.247396.820313 0 1.256511-.273437.436198-.273438.436198-.78125 0-.45573-.29948-.703125-.292968-.247396-1.178385-.442709l-.970052-.214843q-1.458333-.3125-2.135417-.996094-.670573-.683594-.670573-1.842448 0-1.451823.9375-2.233073.9375-.78125 2.695313-.78125.800781 0 1.647135.123698.846354.117188 1.751302.358073z"/><path d="m47.55844 72.042666h2.740885l2.213542 3.463542 2.213541-3.463542h2.747396l-3.704427 5.625v4.095052h-2.50651v-4.095052z"/><path d="m58.574065 72.042666h2.79948l3.535156 6.666667v-6.666667h2.376302v9.720052h-2.799479l-3.535156-6.666666v6.666666h-2.376303z"/><path d="m77.454274 81.228864q-.690105.358073-1.438802.540365-.748698.182291-1.5625.182291-2.428386 0-3.847657-1.354166-1.41927-1.360677-1.41927-3.684896 0-2.330729 1.41927-3.684896 1.419271-1.360677 3.847657-1.360677.813802 0 1.5625.182292.748697.182291 1.438802.540364v2.011719q-.696615-.47526-1.373698-.696615-.677084-.221354-1.425781-.221354-1.341146 0-2.109375.859375-.76823.859375-.76823 2.369792 0 1.503906.76823 2.363281.768229.859375 2.109375.859375.748697 0 1.425781-.221354.677083-.221354 1.373698-.696615z"/></g></svg>