<svg height="96" width="96" xmlns="http://www.w3.org/2000/svg" xmlns:xlink="http://www.w3.org/1999/xlink"><linearGradient id="a"><stop offset="0" stop-color="#b67229"/><stop offset=".2" stop-color="#ffe169"/><stop offset="1" stop-color="#e5b54c" stop-opacity="0"/></linearGradient><linearGradient id="b"><stop offset="0" stop-color="#ededed"/><stop offset="1" stop-color="#b0b0b0"/></linearGradient><linearGradient id="c"><stop offset="0" stop-color="#b4b4b4"/><stop offset=".20467032" stop-color="#646464"/><stop offset=".49567693" stop-color="#fff"/><stop offset="1" stop-color="#3c3c3c"/></linearGradient><linearGradient id="d" gradientUnits="userSpaceOnUse" x1="19.035713" x2="87.5" y1="74" y2="27.428572"><stop offset="0" stop-color="#fff"/><stop offset="1" stop-color="#fff" stop-opacity="0"/></linearGradient><linearGradient id="e" gradientUnits="userSpaceOnUse" x1="6" x2="24" xlink:href="#a" y1="73" y2="73"/><linearGradient id="f" gradientTransform="matrix(-1 0 0 1 96 0)" gradientUnits="userSpaceOnUse" x1="6" x2="24" xlink:href="#a" y1="73" y2="73"/><linearGradient id="g" gradientUnits="userSpaceOnUse" x1="38.748035" x2="38.748035" y1="72.409348" y2="5.833157"><stop offset="0" stop-color="#e5a824"/><stop offset="1" stop-color="#ffe680"/></linearGradient><radialGradient id="h" cx="90" cy="90" gradientTransform="matrix(0 -1.085034 2 0 -90 187.65306)" gradientUnits="userSpaceOnUse" r="42"><stop offset="0" stop-color="#d09618"/><stop offset="1" stop-color="#eec363"/></radialGradient><clipPath id="i"><path d="m66 6v55c0 1.662 1.338 3 3 3h6c1.662 0 3-1.338 3-3v-55h-4v2h-4v-2z"/></clipPath><filter id="j" color-interpolation-filters="sRGB" height="1.07322" width="1.332308" x="-.166154" y="-.03661"><feGaussianBlur stdDeviation=".9"/></filter><linearGradient id="k" gradientUnits="userSpaceOnUse" x1="68.75" x2="75.25" xlink:href="#c" y1="58" y2="58"/><linearGradient id="l" gradientUnits="userSpaceOnUse" x1="69" x2="73" y1="53" y2="53"><stop offset="0" stop-color="#fff"/><stop offset=".48973215" stop-color="#8c8c8c"/><stop offset=".50044644" stop-color="#cfcfcf"/><stop offset=".62276787" stop-color="#fff"/><stop offset=".81696427" stop-color="#c8c8c8"/><stop offset="1" stop-color="#505050"/></linearGradient><linearGradient id="m" gradientUnits="userSpaceOnUse" x1="63.484772" x2="79" y1="64.163078" y2="65"><stop offset="0" stop-color="#b2822c"/><stop offset="1" stop-color="#fcdd67"/></linearGradient><filter id="n" color-interpolation-filters="sRGB" height="1.190707" width="1.323657" x="-.161828" y="-.095354"><feGaussianBlur stdDeviation=".53551312"/></filter><linearGradient id="o" gradientTransform="matrix(-1 0 0 1 144.03125 -2)" gradientUnits="userSpaceOnUse" x1="68.96875" x2="75.0625" xlink:href="#b" y1="17.5" y2="17.5"/><linearGradient id="p" gradientUnits="userSpaceOnUse" x1="68.02903" x2="75.97097" xlink:href="#b" y1="15.763245" y2="15.763245"/><linearGradient id="q" gradientTransform="matrix(1.1262691 0 0 1 -7.401969 -49.5)" gradientUnits="userSpaceOnUse" x1="68.75" x2="72.250572" xlink:href="#c" y1="59" y2="59"/><linearGradient id="r" gradientTransform="matrix(-1 0 0 1 144 -4)" gradientUnits="userSpaceOnUse" x1="69" x2="73" y1="54" y2="54"><stop offset="0" stop-color="#2f2f2f"/><stop offset=".43731192" stop-color="#fff"/><stop offset=".62138397" stop-color="#979797"/><stop offset=".7723214" stop-color="#505050"/><stop offset="1" stop-color="#e6e6e6"/></linearGradient><clipPath id="s"><path d="m11.6875 64.375c-2.216 0-4 1.784-4 4v33.6875c0 2.216 1.7839995 4 4 4h36.09375c2.216 0 4.000001-1.784 4-4v-33.6875c0-2.216-1.783999-4-4-4zm6.875 15.625h7.28125v1.90625c-.205135.352212-.433858.778115-.71875 1.28125-.273511.490577-.575773 1.015144-.90625 1.59375-.33049.578625-.697833 1.202249-1.0625 1.84375-.364677.641516-.717686 1.295995-1.09375 1.9375-.364676.641514-.748935 1.258652-1.125 1.875-.376071.616355-.740476 1.177874-1.09375 1.71875h6.15625v1.84375h-8v-1.96875l5-8.71875c.159539-.26414.289347-.498418.4375-.75.159538-.251561.329054-.529665.5-.78125h-5.375zm9.4375 0h1.8125v14h-1.8125zm4 0h4.21875c.440246.000014.847477.0122 1.25.0625.402509.03775.785371.130319 1.125.28125.339615.150957.64209.398204.90625.6875.276721.289321.498811.665695.6875 1.15625.125777.314476.230925.641715.28125.96875.05031.314475.06249.641717.0625.96875-.000009.528311-.06782 1.034206-.21875 1.5625-.138374.515731-.360463.997257-.6875 1.4375-.188688.264157-.466793.492735-.78125.65625-.314473.163528-.647806.274379-1 .375-.352208.08806-.697724.149768-1.0625.1875-.352206.02516-.660776.06251-.9375.0625h-2.03125v5.59375h-1.8125zm1.84375 1.78125v4.78125h2.09375c.85534.000007 1.509425-.222477 2-.625.503137-.415086.781243-1.020037.78125-1.8125-.000008-.226406-.02477-.461073-.0625-.6875-.03774-.238983-.09946-.45498-.1875-.65625-.088058-.201247-.205394-.380295-.34375-.53125-.138372-.16351-.298747-.268267-.5-.34375-.163528-.062881-.373434-.093736-.625-.09375-.239-.01257-.448905-.03124-.625-.03125z"/></clipPath><linearGradient id="t" gradientTransform="matrix(1.0058652 0 0 .994169 100 0)" gradientUnits="userSpaceOnUse" x1="45.447727" x2="45.447727" y1="92.539597" y2="7.01654"><stop offset="0"/><stop offset="1" stop-opacity=".588235"/></linearGradient><linearGradient id="u" gradientTransform="matrix(1.0238095 0 0 1.0119048 -1.142857 -98.071429)" gradientUnits="userSpaceOnUse" x1="32.251034" x2="32.251034" xlink:href="#t" y1="6.131708" y2="90.238609"/><linearGradient id="v" gradientTransform="translate(0 -97)" gradientUnits="userSpaceOnUse" x1="32.251034" x2="32.251034" xlink:href="#t" y1="6.131708" y2="90.238609"/><g><g fill="url(#u)"><path d="m12-95.03125c-5.5110903 0-10.03125 4.52016-10.03125 10.03125v71c0 5.5110902 4.5201598 10.03125 10.03125 10.03125h72c5.51109 0 10.03125-4.5201597 10.03125-10.03125v-71c0-5.51109-4.52016-10.03125-10.03125-10.03125z" opacity="0" transform="scale(1 -1)"/><path d="m12-94.03125c-4.971633 0-9.03125 4.059617-9.03125 9.03125v71c0 4.9716329 4.0596171 9.03125 9.03125 9.03125h72c4.971633 0 9.03125-4.059617 9.03125-9.03125v-71c0-4.971633-4.059617-9.03125-9.03125-9.03125z" opacity=".1" transform="scale(1 -1)"/><path d="m12-93c-4.4091333 0-8 3.590867-8 8v71c0 4.4091333 3.5908667 8 8 8h72c4.409133 0 8-3.5908667 8-8v-71c0-4.409133-3.590867-8-8-8z" opacity=".2" transform="scale(1 -1)"/><rect height="85" opacity=".3" rx="7" transform="scale(1 -1)" width="86" x="5" y="-92"/></g><rect fill="url(#v)" height="84" opacity=".3" rx="6" transform="scale(1 -1)" width="84" x="6" y="-91"/></g><g><path d="m12 6c-3.324 0-6 2.676-6 6v72c0 3.324 2.676 6 6 6h72c3.324 0 6-2.676 6-6v-72c0-3.324-2.676-6-6-6h-9v3h-6v-3z" fill="url(#h)"/><path d="m6 56v28c0 3.324 2.676 6 6 6h12v-34z" fill="url(#e)"/><path d="m90 56v28c0 3.324-2.676 6-6 6h-12v-34z" fill="url(#f)"/><path d="m6 82v2c0 3.324 2.676 6 6 6h72c3.324 0 6-2.676 6-6v-2c0 3.324-2.676 6-6 6h-72c-3.324 0-6-2.676-6-6z" fill="#502d16" opacity=".3"/><path d="m6 78v2c0 3.324 2.676 6 6 6h72c3.324 0 6-2.676 6-6v-2c0 3.324-2.676 6-6 6h-72c-3.324 0-6-2.676-6-6z" fill="#fff" opacity=".3"/><path d="m6 76v2c0 3.324 2.676 6 6 6h72c3.324 0 6-2.676 6-6v-2c0 3.324-2.676 6-6 6h-72c-3.324 0-6-2.676-6-6z" fill="#502d16" opacity=".3"/><path d="m6 72v2c0 3.324 2.676 6 6 6h72c3.324 0 6-2.676 6-6v-2c0 3.324-2.676 6-6 6h-72c-3.324 0-6-2.676-6-6z" fill="#fff" opacity=".3"/><path d="m6 70v2c0 3.324 2.676 6 6 6h72c3.324 0 6-2.676 6-6v-2c0 3.324-2.676 6-6 6h-72c-3.324 0-6-2.676-6-6z" fill="#502d16" opacity=".3"/><path d="m12 6c-3.324 0-6 2.676-6 6v56c0 3.324 2.676 6 6 6h72c3.324 0 6-2.676 6-6v-56c0-3.324-2.676-6-6-6h-9v3h-6v-3z" fill="url(#g)"/><path d="m12 6c-3.324 0-6 2.676-6 6v56c0 3.324 2.676 6 6 6h72c3.324 0 6-2.676 6-6v-56c0-3.324-2.676-6-6-6h-9v2h9c2.245802 0 4 1.7541975 4 4v56c0 2.245802-1.754198 4-4 4h-72c-2.2458025 0-4-1.754198-4-4v-56c0-2.2458025 1.7541975-4 4-4h57v-2z" fill="url(#d)" opacity=".5"/></g><path clip-path="url(#s)" d="m18.5625 80v1.78125h5.375c-.170946.251585-.340462.529689-.5.78125-.148153.251582-.277961.48586-.4375.75l-5 8.71875v1.96875h8v-1.84375h-6.15625c.353274-.540876.717679-1.102395 1.09375-1.71875.376065-.616348.760324-1.233486 1.125-1.875.376064-.641505.729073-1.295984 1.09375-1.9375.364667-.641501.73201-1.265125 1.0625-1.84375.330477-.578606.632739-1.103173.90625-1.59375.284892-.503135.513615-.929038.71875-1.28125v-1.90625zm9.4375 0v14h1.8125v-14zm4 0v14h1.8125v-5.59375h2.03125c.276724.000005.585294-.03734.9375-.0625.364776-.03773.710292-.09944 1.0625-.1875.352194-.100621.685527-.211472 1-.375.314457-.163515.592562-.392093.78125-.65625.327037-.440243.549126-.921769.6875-1.4375.150933-.528294.218741-1.034189.21875-1.5625-.000009-.327033-.01219-.654275-.0625-.96875-.05033-.327035-.155473-.654274-.28125-.96875-.188689-.490555-.410779-.866929-.6875-1.15625-.26416-.289296-.566635-.536543-.90625-.6875-.339629-.150931-.722491-.2435-1.125-.28125-.402523-.0503-.809754-.06249-1.25-.0625zm1.84375 1.78125h2.53125c.176095.000013.386.01868.625.03125.251566.000014.461472.03087.625.09375.201253.07548.361628.18024.5.34375.138356.150955.255692.330003.34375.53125.08804.20127.149756.417267.1875.65625.03773.226427.06249.461094.0625.6875-.000007.792463-.278113 1.397414-.78125 1.8125-.490575.402523-1.14466.625007-2 .625h-2.09375z" fill="none" opacity=".05" stroke="#fff" stroke-width="6" transform="translate(0 -30)"/><path clip-path="url(#s)" d="m18.5625 80v1.78125h5.375c-.170946.251585-.340462.529689-.5.78125-.148153.251582-.277961.48586-.4375.75l-5 8.71875v1.96875h8v-1.84375h-6.15625c.353274-.540876.717679-1.102395 1.09375-1.71875.376065-.616348.760324-1.233486 1.125-1.875.376064-.641505.729073-1.295984 1.09375-1.9375.364667-.641501.73201-1.265125 1.0625-1.84375.330477-.578606.632739-1.103173.90625-1.59375.284892-.503135.513615-.929038.71875-1.28125v-1.90625zm9.4375 0v14h1.8125v-14zm4 0v14h1.8125v-5.59375h2.03125c.276724.000005.585294-.03734.9375-.0625.364776-.03773.710292-.09944 1.0625-.1875.352194-.100621.685527-.211472 1-.375.314457-.163515.592562-.392093.78125-.65625.327037-.440243.549126-.921769.6875-1.4375.150933-.528294.218741-1.034189.21875-1.5625-.000009-.327033-.01219-.654275-.0625-.96875-.05033-.327035-.155473-.654274-.28125-.96875-.188689-.490555-.410779-.866929-.6875-1.15625-.26416-.289296-.566635-.536543-.90625-.6875-.339629-.150931-.722491-.2435-1.125-.28125-.402523-.0503-.809754-.06249-1.25-.0625zm1.84375 1.78125h2.53125c.176095.000013.386.01868.625.03125.251566.000014.461472.03087.625.09375.201253.07548.361628.18024.5.34375.138356.150955.255692.330003.34375.53125.08804.20127.149756.417267.1875.65625.03773.226427.06249.461094.0625.6875-.000007.792463-.278113 1.397414-.78125 1.8125-.490575.402523-1.14466.625007-2 .625h-2.09375z" fill="none" opacity=".1" stroke="#fff" stroke-width="4" transform="translate(0 -30)"/><path clip-path="url(#s)" d="m18.5625 80v1.78125h5.375c-.170946.251585-.340462.529689-.5.78125-.148153.251582-.277961.48586-.4375.75l-5 8.71875v1.96875h8v-1.84375h-6.15625c.353274-.540876.717679-1.102395 1.09375-1.71875.376065-.616348.760324-1.233486 1.125-1.875.376064-.641505.729073-1.295984 1.09375-1.9375.364667-.641501.73201-1.265125 1.0625-1.84375.330477-.578606.632739-1.103173.90625-1.59375.284892-.503135.513615-.929038.71875-1.28125v-1.90625zm9.4375 0v14h1.8125v-14zm4 0v14h1.8125v-5.59375h2.03125c.276724.000005.585294-.03734.9375-.0625.364776-.03773.710292-.09944 1.0625-.1875.352194-.100621.685527-.211472 1-.375.314457-.163515.592562-.392093.78125-.65625.327037-.440243.549126-.921769.6875-1.4375.150933-.528294.218741-1.034189.21875-1.5625-.000009-.327033-.01219-.654275-.0625-.96875-.05033-.327035-.155473-.654274-.28125-.96875-.188689-.490555-.410779-.866929-.6875-1.15625-.26416-.289296-.566635-.536543-.90625-.6875-.339629-.150931-.722491-.2435-1.125-.28125-.402523-.0503-.809754-.06249-1.25-.0625zm1.84375 1.78125h2.53125c.176095.000013.386.01868.625.03125.251566.000014.461472.03087.625.09375.201253.07548.361628.18024.5.34375.138356.150955.255692.330003.34375.53125.08804.20127.149756.417267.1875.65625.03773.226427.06249.461094.0625.6875-.000007.792463-.278113 1.397414-.78125 1.8125-.490575.402523-1.14466.625007-2 .625h-2.09375z" fill="none" opacity=".2" stroke="#fff" stroke-width="2" transform="translate(0 -30)"/><path d="m66 6v55c0 1.662 1.338 3 3 3h6c1.662 0 3-1.338 3-3v-55h-4v2h-4v-2z" fill="#252525"/><path d="m70 8h4v49h-4z" fill="#4d4d4d"/><rect fill="url(#k)" height="4" rx="1" stroke="#000" stroke-linecap="square" stroke-opacity=".563636" stroke-width=".5" width="6" x="69" y="56"/><path d="m66 6v55c0 1.662 1.338 3 3 3h6c1.662 0 3-1.338 3-3v-55h-4v2h-4v-2z" style="fill:none;stroke:#000;stroke-width:2;stroke-linecap:square;clip-path:url(#i);filter:url(#j)"/><path id="w" d="m69.5 51c-.269774 0-.5.217964-.5.5v3c0 .282036.230229.5.5.5h1c.269774 0 .5-.217964.5-.5v-.5h1.5c.277 0 .5-.223.5-.5v-1c0-.277-.223-.5-.5-.5h-1.5v-.5c0-.282036-.230229-.5-.5-.5z" fill="url(#l)" stroke="#000" stroke-linecap="square" stroke-opacity=".563636" stroke-width=".5"/><use id="x" height="96" transform="translate(0 -6)" width="96" xlink:href="#w"/><use id="y" height="96" transform="translate(0 -6)" width="96" xlink:href="#x"/><use id="z" height="96" transform="translate(0 -6)" width="96" xlink:href="#y"/><use id="A" height="96" transform="translate(0 -6)" width="96" xlink:href="#z"/><use id="B" height="96" transform="translate(0 -6)" width="96" xlink:href="#A"/><use id="C" height="96" transform="translate(0 -6)" width="96" xlink:href="#B"/><use height="96" transform="translate(0 -6)" width="96" xlink:href="#C"/><path id="D" d="m74.5 48c.269774 0 .5.217964.5.5v3c0 .282036-.230229.5-.5.5h-1c-.269774 0-.5-.217964-.5-.5v-.5h-1.5c-.277 0-.5-.223-.5-.5v-1c0-.277.223-.5.5-.5h1.5v-.5c0-.282036.230229-.5.5-.5z" fill="url(#r)" stroke="#000" stroke-linecap="square" stroke-opacity=".563636" stroke-width=".5"/><use id="E" height="96" transform="translate(0 -6)" width="96" xlink:href="#D"/><use id="F" height="96" transform="translate(0 -6)" width="96" xlink:href="#E"/><use id="G" height="96" transform="translate(0 -6)" width="96" xlink:href="#F"/><use id="H" height="96" transform="translate(0 -6)" width="96" xlink:href="#G"/><use id="I" height="96" transform="translate(0 -6)" width="96" xlink:href="#H"/><use height="96" transform="translate(0 -6)" width="96" xlink:href="#I"/><path d="m65 6v55c0 2.202295 1.797705 4 4 4h6c2.202295 0 4-1.797705 4-4v-55h-1v55c0 1.662-1.338 3-3 3h-6c-1.662 0-3-1.338-3-3v-55z" fill="url(#m)"/><path d="m69.5 10.53125c-1.027701 0-1.96875.765203-1.96875 1.8125v10.8125c-.000005 1.047305.918081 1.84375 1.96875 1.84375h5c1.050668 0 1.96875-.796448 1.96875-1.84375v-10.8125c-.000003-1.047297-.941051-1.8125-1.96875-1.8125zm1.0625 9.0625h2.875v1.75h-2.875z" filter="url(#n)" stroke="#000" stroke-linecap="square" stroke-opacity=".563636" stroke-width=".5" transform="translate(0 -2)"/><path d="m69.229249 9.021415c-.687139 0-1.229249.48237-1.229249 1.081548l-.0051 10.815488c.000022.599179.542134 1.081549 1.229271 1.081549h5.583221c.687139 0 1.229249-.48237 1.229249-1.081549l.0051-10.815488c0-.599178-.542112-1.081548-1.229249-1.081548h-5.583221zm.704303 7.949648h4.101324v3.118378h-4.101324z" fill="url(#p)"/><path d="m74.5625 9.96875c.277 0 .5.223.5.5v10.0625c0 .277-.223.5-.5.5h-5.09375c-.277 0-.499999-.223-.5-.5v-10.0625c0-.277.223001-.5.5-.5zm-.4375 6.96875h-4.125v3.125h4.125z" fill="url(#o)"/><rect fill="url(#q)" height="5" rx=".563135" ry=".5" stroke="#000" stroke-linecap="square" stroke-opacity=".563636" width="3.378807" x="70.3106" y="7.5"/><path d="m69.984634 16h4v1h-4z" opacity=".3"/><path d="m18.5625 50v1.78125h5.375c-.170946.251585-.340462.529689-.5.78125-.148153.251582-.277961.48586-.4375.75l-5 8.71875v1.96875h8v-1.84375h-6.15625c.353274-.540876.717679-1.102395 1.09375-1.71875.376065-.616348.760324-1.233486 1.125-1.875.376064-.641505.729073-1.295984 1.09375-1.9375.364667-.641501.73201-1.265125 1.0625-1.84375.330477-.578606.632739-1.103173.90625-1.59375.284892-.503135.513615-.929038.71875-1.28125v-1.90625zm9.4375 0v14h1.8125v-14zm4 0v14h1.8125v-5.59375h2.03125c.276724.000005.585294-.03734.9375-.0625.364776-.03773.710292-.09944 1.0625-.1875.352194-.100621.685527-.211472 1-.375.314457-.163515.592562-.392093.78125-.65625.327037-.440243.549126-.921769.6875-1.4375.150933-.528294.218741-1.034189.21875-1.5625-.000009-.327033-.01219-.654275-.0625-.96875-.05033-.327035-.155473-.654274-.28125-.96875-.188689-.490555-.410779-.866929-.6875-1.15625-.26416-.289296-.566635-.536543-.90625-.6875-.339629-.150931-.722491-.2435-1.125-.28125-.402523-.0503-.809754-.06249-1.25-.0625zm1.84375 1.78125h2.53125c.176095.000013.386.01868.625.03125.251566.000014.461472.03087.625.09375.201253.07548.361628.18024.5.34375.138356.150955.255692.330003.34375.53125.08804.20127.149756.417267.1875.65625.03773.226427.06249.461094.0625.6875-.000007.792463-.278113 1.397414-.78125 1.8125-.490575.402523-1.14466.625007-2 .625h-2.09375z" fill="#7a4b21"/><path d="m18.5625 50v1h7.28125v-1zm9.4375 0v1h1.8125v-1zm4 0v1h4.21875c.440246.000014.847477.0122 1.25.0625.402509.03775.785371.130319 1.125.28125.339615.150957.64209.398204.90625.6875.276721.289321.498811.665695.6875 1.15625.125777.314476.230925.641715.28125.96875.02111.131982.02165.27073.03125.40625.01096-.145298.03125-.289674.03125-.4375-.000009-.327033-.01219-.654275-.0625-.96875-.05033-.327035-.155473-.654274-.28125-.96875-.188689-.490555-.410779-.866929-.6875-1.15625-.26416-.289296-.566635-.536543-.90625-.6875-.339629-.150931-.722491-.2435-1.125-.28125-.402523-.0503-.809754-.06249-1.25-.0625zm-8.6875 2.78125c-.100482.174275-.199252.343752-.3125.53125l-5 8.71875v1l5-8.71875c.159539-.26414.289347-.498418.4375-.75.159538-.251561.329054-.529665.5-.78125zm15.34375 1.78125c-.08573.578867-.313786 1.040906-.71875 1.375-.490575.402523-1.14466.625007-2 .625h-2.09375v1h2.09375c.85534.000007 1.509425-.222477 2-.625.503137-.415086.781243-1.020037.78125-1.8125-.000007-.185579-.03572-.374908-.0625-.5625zm-18.1875 7.59375c-.212046.333535-.420517.686928-.625 1h6.15625v-1z" opacity=".4"/></svg>