<svg height="96" width="96" xmlns="http://www.w3.org/2000/svg" xmlns:xlink="http://www.w3.org/1999/xlink"><linearGradient id="a"><stop offset="0" stop-color="#ededed"/><stop offset="1" stop-color="#b0b0b0"/></linearGradient><linearGradient id="b"><stop offset="0" stop-color="#b4b4b4"/><stop offset=".20467032" stop-color="#646464"/><stop offset=".49567693" stop-color="#fff"/><stop offset="1" stop-color="#3c3c3c"/></linearGradient><linearGradient id="c"><stop offset="0" stop-color="#818181"/><stop offset=".2" stop-color="#f9f9f9"/><stop offset="1" stop-color="#dcdcdc" stop-opacity="0"/></linearGradient><linearGradient id="d"><stop offset="0" stop-color="#fff"/><stop offset="1" stop-color="#fff" stop-opacity="0"/></linearGradient><linearGradient id="e" gradientUnits="userSpaceOnUse" x1="19.035713" x2="87.5" xlink:href="#d" y1="74" y2="27.428572"/><linearGradient id="f" gradientUnits="userSpaceOnUse" x1="6" x2="24" xlink:href="#c" y1="73" y2="73"/><linearGradient id="g" gradientTransform="matrix(-1 0 0 1 96 0)" gradientUnits="userSpaceOnUse" x1="6" x2="24" xlink:href="#c" y1="73" y2="73"/><linearGradient id="h" gradientUnits="userSpaceOnUse" x1="38.748035" x2="38.748035" y1="65.59034" y2="5.833157"><stop offset="0" stop-color="#dcdcdc"/><stop offset="1" stop-color="#fafafa"/></linearGradient><radialGradient id="i" cx="90" cy="90" gradientTransform="matrix(0 -1.085034 2 0 -90 187.65306)" gradientUnits="userSpaceOnUse" r="42"><stop offset="0" stop-color="#b4b4b4"/><stop offset="1" stop-color="#dcdcdc"/></radialGradient><clipPath id="j"><path d="m66 6v55c0 1.662 1.338 3 3 3h6c1.662 0 3-1.338 3-3v-55h-4v2h-4v-2z"/></clipPath><filter id="k" color-interpolation-filters="sRGB" height="1.07322" width="1.332308" x="-.166154" y="-.03661"><feGaussianBlur stdDeviation=".9"/></filter><linearGradient id="l" gradientUnits="userSpaceOnUse" x1="68.75" x2="75.25" xlink:href="#b" y1="58" y2="58"/><linearGradient id="m" gradientUnits="userSpaceOnUse" x1="69" x2="73" y1="53" y2="53"><stop offset="0" stop-color="#fff"/><stop offset=".48973215" stop-color="#8c8c8c"/><stop offset=".50044644" stop-color="#cfcfcf"/><stop offset=".62276787" stop-color="#fff"/><stop offset=".81696427" stop-color="#c8c8c8"/><stop offset="1" stop-color="#505050"/></linearGradient><linearGradient id="n" gradientUnits="userSpaceOnUse" x1="63.484772" x2="79" y1="64.163078" y2="65"><stop offset="0" stop-color="#a2a2a2"/><stop offset="1" stop-color="#fff"/></linearGradient><filter id="o" color-interpolation-filters="sRGB" height="1.190707" width="1.323657" x="-.161828" y="-.095354"><feGaussianBlur stdDeviation=".53551312"/></filter><linearGradient id="p" gradientTransform="matrix(-1 0 0 1 144.03125 -2)" gradientUnits="userSpaceOnUse" x1="68.96875" x2="75.0625" xlink:href="#a" y1="17.5" y2="17.5"/><linearGradient id="q" gradientUnits="userSpaceOnUse" x1="68.02903" x2="75.97097" xlink:href="#a" y1="15.763245" y2="15.763245"/><linearGradient id="r" gradientTransform="matrix(1.1262691 0 0 1 -7.401969 -49.5)" gradientUnits="userSpaceOnUse" x1="68.75" x2="72.250572" xlink:href="#b" y1="59" y2="59"/><linearGradient id="s" gradientTransform="matrix(-1 0 0 1 144 -4)" gradientUnits="userSpaceOnUse" x1="69" x2="73" y1="54" y2="54"><stop offset="0" stop-color="#2f2f2f"/><stop offset=".43731192" stop-color="#fff"/><stop offset=".62138397" stop-color="#979797"/><stop offset=".7723214" stop-color="#505050"/><stop offset="1" stop-color="#e6e6e6"/></linearGradient><linearGradient id="t" gradientTransform="matrix(1.0058652 0 0 .994169 100 0)" gradientUnits="userSpaceOnUse" x1="45.447727" x2="45.447727" y1="92.539597" y2="7.01654"><stop offset="0"/><stop offset="1" stop-opacity=".588235"/></linearGradient><linearGradient id="u" gradientTransform="matrix(1.0238095 0 0 1.0119048 -1.142857 -98.071429)" gradientUnits="userSpaceOnUse" x1="32.251034" x2="32.251034" xlink:href="#t" y1="6.131708" y2="90.238609"/><linearGradient id="v" gradientTransform="translate(0 -97)" gradientUnits="userSpaceOnUse" x1="32.251034" x2="32.251034" xlink:href="#t" y1="6.131708" y2="90.238609"/><clipPath id="w"><path d="m48 102c-19.88225 0-36 16.11775-36 36s16.11775 36 36 36 36-16.11775 36-36-16.11775-36-36-36zm0 24c6.62742 0 12 5.37258 12 12s-5.37258 12-12 12-12-5.37258-12-12 5.37258-12 12-12z"/></clipPath><filter id="x" color-interpolation-filters="sRGB" height="1.36" width="1.36" x="-.18" y="-.18"><feGaussianBlur stdDeviation="5.2159999"/></filter><clipPath id="y"><path d="m48 32c-19.882251 0-36 16.117749-36 36s16.117749 36 36 36 36-16.117749 36-36-16.117749-36-36-36zm0 24c6.627417 0 12 5.372583 12 12s-5.372583 12-12 12-12-5.372583-12-12 5.372583-12 12-12z"/></clipPath><filter id="z" color-interpolation-filters="sRGB" height="1.341402" width="1.380742" x="-.190371" y="-.170701"><feGaussianBlur stdDeviation="4.9476562"/></filter><radialGradient id="A" cx="59.893993" cy="61.92226" gradientTransform="matrix(0 .19796904 -.19918679 0 48.491402 29.43647)" gradientUnits="userSpaceOnUse" r="33.71384"><stop offset="0" stop-opacity="0"/><stop offset=".85000002" stop-opacity="0"/><stop offset="1"/></radialGradient><linearGradient id="B" gradientTransform="matrix(0 .19796904 -.23782258 0 50.88382 29.43647)" gradientUnits="userSpaceOnUse" x1="26.180153" x2="93.607834" xlink:href="#d" y1="61.92226" y2="61.92226"/><linearGradient id="C" gradientTransform="matrix(0 .11461492 -.1376868 0 44.683182 34.428807)" gradientUnits="userSpaceOnUse" x1="25.220379" x2="94.567612" y1="61.92226" y2="61.92226"><stop offset="0" stop-color="#4d4d4d"/><stop offset="1" stop-color="#fff"/></linearGradient><g><g fill="url(#u)"><path d="m12-95.03125c-5.5110903 0-10.03125 4.52016-10.03125 10.03125v71c0 5.5110902 4.5201598 10.03125 10.03125 10.03125h72c5.51109 0 10.03125-4.5201597 10.03125-10.03125v-71c0-5.51109-4.52016-10.03125-10.03125-10.03125z" opacity="0" transform="scale(1 -1)"/><path d="m12-94.03125c-4.971633 0-9.03125 4.059617-9.03125 9.03125v71c0 4.9716329 4.0596171 9.03125 9.03125 9.03125h72c4.971633 0 9.03125-4.059617 9.03125-9.03125v-71c0-4.971633-4.059617-9.03125-9.03125-9.03125z" opacity=".1" transform="scale(1 -1)"/><path d="m12-93c-4.4091333 0-8 3.590867-8 8v71c0 4.4091333 3.5908667 8 8 8h72c4.409133 0 8-3.5908667 8-8v-71c0-4.409133-3.590867-8-8-8z" opacity=".2" transform="scale(1 -1)"/><rect height="85" opacity=".3" rx="7" transform="scale(1 -1)" width="86" x="5" y="-92"/></g><rect fill="url(#v)" height="84" opacity=".3" rx="6" transform="scale(1 -1)" width="84" x="6" y="-91"/></g><g><path d="m12 6c-3.324 0-6 2.676-6 6v72c0 3.324 2.676 6 6 6h72c3.324 0 6-2.676 6-6v-72c0-3.324-2.676-6-6-6h-9v3h-6v-3z" fill="url(#i)"/><path d="m6 56v28c0 3.324 2.676 6 6 6h12v-34z" fill="url(#f)"/><path d="m90 56v28c0 3.324-2.676 6-6 6h-12v-34z" fill="url(#g)"/><path d="m6 82v2c0 3.324 2.676 6 6 6h72c3.324 0 6-2.676 6-6v-2c0 3.324-2.676 6-6 6h-72c-3.324 0-6-2.676-6-6z" opacity=".15"/><path d="m6 78v2c0 3.324 2.676 6 6 6h72c3.324 0 6-2.676 6-6v-2c0 3.324-2.676 6-6 6h-72c-3.324 0-6-2.676-6-6z" fill="#fff" opacity=".8"/><path d="m6 76v2c0 3.324 2.676 6 6 6h72c3.324 0 6-2.676 6-6v-2c0 3.324-2.676 6-6 6h-72c-3.324 0-6-2.676-6-6z" opacity=".15"/><path d="m6 72v2c0 3.324 2.676 6 6 6h72c3.324 0 6-2.676 6-6v-2c0 3.324-2.676 6-6 6h-72c-3.324 0-6-2.676-6-6z" fill="#fff" opacity=".8"/><path d="m6 70v2c0 3.324 2.676 6 6 6h72c3.324 0 6-2.676 6-6v-2c0 3.324-2.676 6-6 6h-72c-3.324 0-6-2.676-6-6z" opacity=".15"/><path d="m12 6c-3.324 0-6 2.676-6 6v56c0 3.324 2.676 6 6 6h72c3.324 0 6-2.676 6-6v-56c0-3.324-2.676-6-6-6h-9v3h-6v-3z" fill="url(#h)"/><path d="m12 6c-3.324 0-6 2.676-6 6v56c0 3.324 2.676 6 6 6h72c3.324 0 6-2.676 6-6v-56c0-3.324-2.676-6-6-6h-9v2h9c2.245802 0 4 1.7541975 4 4v56c0 2.245802-1.754198 4-4 4h-72c-2.2458025 0-4-1.754198-4-4v-56c0-2.2458025 1.7541975-4 4-4h57v-2z" fill="url(#e)"/></g><path d="m66 6v55c0 1.662 1.338 3 3 3h6c1.662 0 3-1.338 3-3v-55h-4v2h-4v-2z" fill="#252525"/><path d="m70 8h4v49h-4z" fill="#4d4d4d"/><rect fill="url(#l)" height="4" rx="1" stroke="#000" stroke-linecap="square" stroke-opacity=".563636" stroke-width=".5" width="6" x="69" y="56"/><path d="m66 6v55c0 1.662 1.338 3 3 3h6c1.662 0 3-1.338 3-3v-55h-4v2h-4v-2z" style="fill:none;stroke:#000;stroke-width:2;stroke-linecap:square;clip-path:url(#j);filter:url(#k)"/><path id="D" d="m69.5 51c-.269774 0-.5.217964-.5.5v3c0 .282036.230229.5.5.5h1c.269774 0 .5-.217964.5-.5v-.5h1.5c.277 0 .5-.223.5-.5v-1c0-.277-.223-.5-.5-.5h-1.5v-.5c0-.282036-.230229-.5-.5-.5z" fill="url(#m)" stroke="#000" stroke-linecap="square" stroke-opacity=".563636" stroke-width=".5"/><use id="E" height="96" transform="translate(0 -6)" width="96" xlink:href="#D"/><use id="F" height="96" transform="translate(0 -6)" width="96" xlink:href="#E"/><use id="G" height="96" transform="translate(0 -6)" width="96" xlink:href="#F"/><use id="H" height="96" transform="translate(0 -6)" width="96" xlink:href="#G"/><use id="I" height="96" transform="translate(0 -6)" width="96" xlink:href="#H"/><use id="J" height="96" transform="translate(0 -6)" width="96" xlink:href="#I"/><use height="96" transform="translate(0 -6)" width="96" xlink:href="#J"/><path id="K" d="m74.5 48c.269774 0 .5.217964.5.5v3c0 .282036-.230229.5-.5.5h-1c-.269774 0-.5-.217964-.5-.5v-.5h-1.5c-.277 0-.5-.223-.5-.5v-1c0-.277.223-.5.5-.5h1.5v-.5c0-.282036.230229-.5.5-.5z" fill="url(#s)" stroke="#000" stroke-linecap="square" stroke-opacity=".563636" stroke-width=".5"/><use id="L" height="96" transform="translate(0 -6)" width="96" xlink:href="#K"/><use id="M" height="96" transform="translate(0 -6)" width="96" xlink:href="#L"/><use id="N" height="96" transform="translate(0 -6)" width="96" xlink:href="#M"/><use id="O" height="96" transform="translate(0 -6)" width="96" xlink:href="#N"/><use id="P" height="96" transform="translate(0 -6)" width="96" xlink:href="#O"/><use height="96" transform="translate(0 -6)" width="96" xlink:href="#P"/><path d="m65 6v55c0 2.202295 1.797705 4 4 4h6c2.202295 0 4-1.797705 4-4v-55h-1v55c0 1.662-1.338 3-3 3h-6c-1.662 0-3-1.338-3-3v-55z" fill="url(#n)"/><path d="m69.5 10.53125c-1.027701 0-1.96875.765203-1.96875 1.8125v10.8125c-.000005 1.047305.918081 1.84375 1.96875 1.84375h5c1.050668 0 1.96875-.796448 1.96875-1.84375v-10.8125c-.000003-1.047297-.941051-1.8125-1.96875-1.8125zm1.0625 9.0625h2.875v1.75h-2.875z" filter="url(#o)" stroke="#000" stroke-linecap="square" stroke-opacity=".563636" stroke-width=".5" transform="translate(0 -2)"/><path d="m69.229249 9.021415c-.687139 0-1.229249.48237-1.229249 1.081548l-.0051 10.815488c.000022.599179.542134 1.081549 1.229271 1.081549h5.583221c.687139 0 1.229249-.48237 1.229249-1.081549l.0051-10.815488c0-.599178-.542112-1.081548-1.229249-1.081548h-5.583221zm.704303 7.949648h4.101324v3.118378h-4.101324z" fill="url(#q)"/><path d="m74.5625 9.96875c.277 0 .5.223.5.5v10.0625c0 .277-.223.5-.5.5h-5.09375c-.277 0-.499999-.223-.5-.5v-10.0625c0-.277.223001-.5.5-.5zm-.4375 6.96875h-4.125v3.125h4.125z" fill="url(#p)"/><rect fill="url(#r)" height="5" rx=".563135" ry=".5" stroke="#000" stroke-linecap="square" stroke-opacity=".563636" width="3.378807" x="70.3106" y="7.5"/><path d="m69.984634 16h4v1h-4z" opacity=".3"/><path d="m36.157304 27.359135c-8.136094 0-14.754097 6.618003-14.754097 14.754091 0 8.136096 6.618003 14.754099 14.754097 14.754099 8.136096 0 14.754099-6.618003 14.754099-14.754099 0-8.136088-6.618003-14.754091-14.754099-14.754091zm0 8.196708c3.636451 0 6.557376 2.920925 6.557376 6.557383 0 3.636452-2.920925 6.557379-6.557376 6.557379-3.636455 0-6.557375-2.920927-6.557375-6.557379 0-3.636458 2.92092-6.557383 6.557375-6.557383z" opacity=".05"/><path d="m36.157304 28.99847c-7.243077 0-13.114754 5.87167-13.114754 13.114756 0 7.243081 5.871677 13.114753 13.114754 13.114753 7.243079 0 13.114754-5.871672 13.114754-13.114753 0-7.243086-5.871675-13.114756-13.114754-13.114756zm0 4.918039c4.526925 0 8.196722 3.669795 8.196722 8.196717 0 4.526916-3.669797 8.196723-8.196722 8.196723-4.526924 0-8.196723-3.669807-8.196723-8.196723 0-4.526922 3.669799-8.196717 8.196723-8.196717z" opacity=".3"/><path d="m36.157304 28.153182c-7.702895 0-13.960042 6.257148-13.960042 13.960044 0 7.702902 6.257147 13.960039 13.960042 13.960039 7.702898 0 13.960039-6.257137 13.960039-13.960039 0-7.702896-6.257141-13.960044-13.960039-13.960044zm0 6.608609c4.067107 0 7.351434 3.284334 7.351434 7.351435 0 4.067104-3.284327 7.351429-7.351434 7.351429-4.067105 0-7.351436-3.284325-7.351436-7.351429 0-4.067101 3.284331-7.351435 7.351436-7.351435z" opacity=".1"/><path d="m36.157304 16.772651c-13.542519 0-24.520896 10.978387-24.520896 24.520902 0 13.542521 10.978377 24.520897 24.520896 24.520897 13.542516 0 24.520895-10.978376 24.520895-24.520897 0-13.542515-10.978379-24.520902-24.520895-24.520902zm0 16.347277c4.514173 0 8.173633 3.659451 8.173633 8.173625 0 4.514172-3.65946 8.173629-8.173633 8.173629-4.514172 0-8.173632-3.659457-8.173632-8.173629 0-4.514174 3.65946-8.173625 8.173632-8.173625z" fill="#bbb1bf"/><path d="m36.157304 33.119928c-4.514172 0-8.173632 3.659451-8.173632 8.173625 0 4.514172 3.65946 8.173629 8.173632 8.173629 4.514173 0 8.173633-3.659457 8.173633-8.173629 0-4.514174-3.65946-8.173625-8.173633-8.173625zm0 4.767941c1.880907 0 3.40568 1.524771 3.40568 3.405684 0 1.880905-1.524773 3.405682-3.40568 3.405682-1.880905 0-3.405679-1.524777-3.405679-3.405682 0-1.880913 1.524774-3.405684 3.405679-3.405684z" fill="#fff" opacity=".3"/><path d="m36.157305 45.039802a3.7462474 3.7462475 0 1 1 0-7.492495 3.7462474 3.7462475 0 0 1 0 7.492495z" fill="none" opacity=".6" stroke="url(#C)" stroke-linecap="round" stroke-width=".819672"/><path d="m36.157304 47.764341a6.470792 6.4707198 0 1 1 0-12.941431 6.470792 6.4707198 0 0 1 0 12.941431z" style="opacity:.5;fill-rule:evenodd;stroke-width:.819672;stroke-linecap:round;fill:url(#A);stroke:url(#B)"/><path clip-path="url(#y)" d="m57.3125 33.21875-9.3125 34.78125 31.1875-18c-4.773897-8.268632-12.65254-14.310099-21.875-16.78125zm-9.3125 34.78125-31.1875 18c4.773897 8.268632 12.65254 14.3101 21.875 16.78125z" fill="#fff" filter="url(#z)" opacity=".8" transform="matrix(.68113601 0 0 .68113601 3.462776 -5.023695)"/><g clip-path="url(#w)" filter="url(#x)" opacity=".6" transform="matrix(.68113601 0 0 .68113601 3.462776 -52.703216)"><path d="m60.947452 57.784124a20.708128 18.814091 0 0 1 -2.615496 2.905857l-14.642858-13.303571z" fill="#7137c8" transform="matrix(1.5055399 .86922388 -.95672979 1.6571045 27.560302 21.500167)"/><path d="m60.779363 58.010828a20.708128 18.814091 0 0 1 -3.384016 3.478847l-13.706249-14.103265z" fill="#0cf" transform="matrix(1.6792116 .4499434 -.49523981 1.8482599 -1.895609 30.759984)"/><path d="m62.72377 54.795738a20.708128 18.814091 0 0 1 -2.259683 3.622054l-16.774989-11.031382z" fill="#fc0" transform="matrix(1.7384478 0 -.00000006 1.9134595 -27.951218 47.328031)"/><path d="m61.622863 56.793455a20.708128 18.814091 0 0 1 -1.699251 2.272761l-16.234514-11.679806z" fill="#f00" transform="matrix(1.6792116 -.4499434 .4952397 1.84826 -48.830877 70.075223)"/><path d="m63.123303 53.883448a20.708128 18.814091 0 0 1 -2.370014 4.161918l-17.064191-10.658956z" fill="#0f0" transform="matrix(1.6792116 .4499434 -.49523981 1.8482599 -1.895609 30.759984)"/><path d="m60.947452 57.784124a20.708128 18.814091 0 0 1 -2.615496 2.905857l-14.642858-13.303571z" fill="#7137c8" transform="matrix(-1.5055399 -.86922388 .95672979 -1.6571045 68.439684 254.49984)"/><path d="m60.779363 58.010828a20.708128 18.814091 0 0 1 -3.384016 3.478847l-13.706249-14.103265z" fill="#0cf" transform="matrix(-1.6792116 -.4499434 .49523981 -1.8482599 97.895595 245.24003)"/><path d="m62.72377 54.795738a20.708128 18.814091 0 0 1 -2.259683 3.622054l-16.774989-11.031382z" fill="#fc0" transform="matrix(-1.7384478 0 .00000006 -1.9134595 123.9512 228.67198)"/><path d="m61.622863 56.793455a20.708128 18.814091 0 0 1 -1.699251 2.272761l-16.234514-11.679806z" fill="#f00" transform="matrix(-1.6792116 .4499434 -.4952397 -1.84826 144.83086 205.92479)"/><path d="m63.123303 53.883448a20.708128 18.814091 0 0 1 -2.370014 4.161918l-17.064191-10.658956z" fill="#0f0" transform="matrix(-1.6792116 -.4499434 .49523981 -1.8482599 97.895595 245.24003)"/></g><path d="m36.157304 31.417081c-5.454625 0-9.876474 4.421853-9.876474 9.876472 0 5.454623 4.421849 9.876472 9.876474 9.876472 5.454626 0 9.876476-4.421849 9.876476-9.876472 0-5.454619-4.42185-9.876472-9.876476-9.876472zm0 1.702847c4.514173 0 8.173633 3.659451 8.173633 8.173625 0 4.514172-3.65946 8.173629-8.173633 8.173629-4.514172 0-8.173632-3.659457-8.173632-8.173629 0-4.514174 3.65946-8.173625 8.173632-8.173625z" opacity=".2"/><path d="m11.567141 41.70339c-.0028.137973 0 .271312 0 .409836 0 13.580775 11.00939 24.590164 24.590163 24.590164 13.58077 0 24.590166-11.009389 24.590166-24.590164 0-.138524.003-.271863 0-.409836-.22143 13.389456-11.147912 24.180326-24.590166 24.180326-13.44225 0-24.368738-10.79087-24.590163-24.180326z" fill="#fff" opacity=".6"/><path d="m36.157304 16.70339c-13.580773 0-24.590163 11.009389-24.590163 24.590164 0 13.580773 11.00939 24.590162 24.590163 24.590162 13.58077 0 24.590166-11.009389 24.590166-24.590162 0-13.580775-11.009396-24.590164-24.590166-24.590164zm0 2.45902c12.222694 0 22.13115 9.908442 22.13115 22.131144 0 12.222694-9.908456 22.131148-22.13115 22.131148-12.222696 0-22.131148-9.908454-22.131148-22.131148 0-12.222702 9.908452-22.131144 22.131148-22.131144z" opacity=".05"/><path d="m36.157304 16.70339c-13.580773 0-24.590163 11.009389-24.590163 24.590164 0 13.580773 11.00939 24.590162 24.590163 24.590162 13.58077 0 24.590166-11.009389 24.590166-24.590162 0-13.580775-11.009396-24.590164-24.590166-24.590164zm0 1.664953c12.679821 0 22.925203 10.245393 22.925203 22.925211 0 12.679816-10.245382 22.925206-22.925203 22.925206-12.67982 0-22.925208-10.24539-22.925208-22.925206 0-12.679818 10.245388-22.925211 22.925208-22.925211z" opacity=".1"/><path d="m36.157304 16.70339c-13.580773 0-24.590163 11.009388-24.590163 24.590164 0 13.580774 11.00939 24.590162 24.590163 24.590162 13.58077 0 24.590166-11.009388 24.590166-24.590162 0-13.580776-11.009396-24.590164-24.590166-24.590164zm0 .819674c13.128083 0 23.770491 10.642407 23.770491 23.77049 0 13.128086-10.642408 23.77049-23.770491 23.77049-13.128078 0-23.770493-10.642404-23.770493-23.77049 0-13.128083 10.642415-23.77049 23.770493-23.77049z" opacity=".15"/><path d="m36.157304 16.70339c-13.580773 0-24.590163 11.009389-24.590163 24.590164 0 .138523-.0028.271863 0 .409836.221425-13.389456 11.147913-24.180326 24.590163-24.180326 13.442254 0 24.368736 10.79087 24.590166 24.180326.003-.137973 0-.271313 0-.409836 0-13.580775-11.009396-24.590164-24.590166-24.590164z" opacity=".2"/></svg>