<svg height="96" width="96" xmlns="http://www.w3.org/2000/svg" xmlns:xlink="http://www.w3.org/1999/xlink"><linearGradient id="a"><stop offset="0" stop-color="#824b00"/><stop offset=".2" stop-color="#aa630a"/><stop offset="1" stop-color="#a0620c" stop-opacity="0"/></linearGradient><linearGradient id="b" gradientUnits="userSpaceOnUse" x1="62.285713" x2="62.375" y1="74.5" y2="14.428572"><stop offset="0" stop-color="#fff" stop-opacity=".6"/><stop offset="1" stop-color="#fff" stop-opacity="0"/></linearGradient><linearGradient id="c" gradientUnits="userSpaceOnUse" x1="6" x2="24" xlink:href="#a" y1="73" y2="73"/><linearGradient id="d" gradientTransform="matrix(-1 0 0 1 96 0)" gradientUnits="userSpaceOnUse" x1="6" x2="24" xlink:href="#a" y1="73" y2="73"/><linearGradient id="e" gradientUnits="userSpaceOnUse" x1="38.748035" x2="38.748035" y1="72.409348" y2="5.833157"><stop offset="0" stop-color="#cd9450"/><stop offset="1" stop-color="#eaaa69"/></linearGradient><radialGradient id="f" cx="90" cy="90" gradientTransform="matrix(0 -1.085034 2 0 -90 187.65306)" gradientUnits="userSpaceOnUse" r="42"><stop offset="0" stop-color="#cd9450"/><stop offset="1" stop-color="#bb8044"/></radialGradient><linearGradient id="g" gradientTransform="matrix(1.0058652 0 0 .994169 100 0)" gradientUnits="userSpaceOnUse" x1="45.447727" x2="45.447727" y1="92.539597" y2="7.01654"><stop offset="0"/><stop offset="1" stop-opacity=".588235"/></linearGradient><linearGradient id="h" gradientTransform="matrix(1.0238095 0 0 1.0119048 -1.142857 -98.071429)" gradientUnits="userSpaceOnUse" x1="32.251034" x2="32.251034" xlink:href="#g" y1="6.131708" y2="90.238609"/><linearGradient id="i" gradientTransform="translate(0 -97)" gradientUnits="userSpaceOnUse" x1="32.251034" x2="32.251034" xlink:href="#g" y1="6.131708" y2="90.238609"/><linearGradient id="j" gradientUnits="userSpaceOnUse" x1="45.72450528307" x2="45.77998578244" y1="49.0339028008" y2="6.59646292752"><stop offset="0" stop-color="#d3904f"/><stop offset="1" stop-color="#e7af6d"/></linearGradient><g><g fill="url(#h)"><path d="m12-95.03125c-5.5110903 0-10.03125 4.52016-10.03125 10.03125v71c0 5.5110902 4.5201598 10.03125 10.03125 10.03125h72c5.51109 0 10.03125-4.5201597 10.03125-10.03125v-71c0-5.51109-4.52016-10.03125-10.03125-10.03125z" opacity=".08" transform="scale(1 -1)"/><path d="m12-94.03125c-4.971633 0-9.03125 4.059617-9.03125 9.03125v71c0 4.9716329 4.0596171 9.03125 9.03125 9.03125h72c4.971633 0 9.03125-4.059617 9.03125-9.03125v-71c0-4.971633-4.059617-9.03125-9.03125-9.03125z" opacity=".1" transform="scale(1 -1)"/><path d="m12-93c-4.4091333 0-8 3.590867-8 8v71c0 4.4091333 3.5908667 8 8 8h72c4.409133 0 8-3.5908667 8-8v-71c0-4.409133-3.590867-8-8-8z" opacity=".2" transform="scale(1 -1)"/><rect height="85" opacity=".3" rx="7" transform="scale(1 -1)" width="86" x="5" y="-92"/></g><rect fill="url(#i)" height="84" opacity=".45" rx="6" transform="scale(1 -1)" width="84" x="6" y="-91"/></g><g><path d="m12 6c-3.324 0-6 2.676-6 6v72c0 3.324 2.676 6 6 6h72c3.324 0 6-2.676 6-6v-72c0-3.324-2.676-6-6-6h-9v3h-6v-3z" fill="url(#f)"/><path d="m6 56v28c0 3.324 2.676 6 6 6h12v-34z" fill="url(#c)"/><path d="m90 56v28c0 3.324-2.676 6-6 6h-12v-34z" fill="url(#d)"/><path d="m6 82v2c0 3.324 2.676 6 6 6h72c3.324 0 6-2.676 6-6v-2c0 3.324-2.676 6-6 6h-72c-3.324 0-6-2.676-6-6z" fill="#502d16" opacity=".3"/><path d="m6 78v2c0 3.324 2.676 6 6 6h72c3.324 0 6-2.676 6-6v-2c0 3.324-2.676 6-6 6h-72c-3.324 0-6-2.676-6-6z" fill="#fff" opacity=".25"/><path d="m6 76v2c0 3.324 2.676 6 6 6h72c3.324 0 6-2.676 6-6v-2c0 3.324-2.676 6-6 6h-72c-3.324 0-6-2.676-6-6z" fill="#502d16" opacity=".3"/><path d="m6 72v2c0 3.324 2.676 6 6 6h72c3.324 0 6-2.676 6-6v-2c0 3.324-2.676 6-6 6h-72c-3.324 0-6-2.676-6-6z" fill="#fff" opacity=".25"/><path d="m6 70v2c0 3.324 2.676 6 6 6h72c3.324 0 6-2.676 6-6v-2c0 3.324-2.676 6-6 6h-72c-3.324 0-6-2.676-6-6z" fill="#502d16" opacity=".3"/><path d="m12 6c-3.324 0-6 2.676-6 6v56c0 3.324 2.676 6 6 6h72c3.324 0 6-2.676 6-6v-56c0-3.324-2.676-6-6-6z" fill="url(#e)"/><g fill-rule="evenodd"><path d="m47.918547 36.122469 44.292464 37.775484v2.011148l-88.187635.01002v-2.021165z" fill="#ebae7b" transform="matrix(.95251024 0 0 .95251024 2.17693617791 -3.95011279937)"/><path d="m47.918547 36.122469 44.12566 37.815935c-.08749 2.724891-2.995534 5.811577-5.703487 5.806516l-76.227813.05322c-3.7886631.03404-6.2169588-3.34351-6.2567283-5.859735z" fill="#dc9e5e" transform="matrix(.95251024 0 0 .95251024 2.33581869598 -2.06823069812)"/></g><path d="m12 6c-3.324 0-6 2.676-6 6v56c0 3.324 2.676 6 6 6h72c3.324 0 6-2.676 6-6v-56c0-3.324-2.676-6-6-6h-9v2h9c2.245802 0 4 1.7541975 4 4v56c0 2.245802-1.754198 4-4 4h-72c-2.2458025 0-4-1.754198-4-4v-56c0-2.2458025 1.7541975-4 4-4h57v-2z" fill="url(#b)" opacity=".6"/><g transform="matrix(1.09573213807 0 0 1.09573213807 -.58822976093 1.02453954492)"><path d="m13.029297 7.8018261c-3.8265661 0-6.8847658 3.1167949-6.8847658 6.9433599v1.645439l38.1269528 35.582031 38.128907-35.582031v-1.645439c0-3.826565-3.0582-6.9433599-6.884766-6.9433599z" fill="#b67a40"/><path d="m12.976562 6.0527344c-3.8265655 0-6.8320308 3.1167934-6.8320308 6.9433596v1.736328l38.1796878 35.582031 38.076172-35.582031v-1.736328c0-3.8265662-3.005466-6.9433596-6.832032-6.9433596-20.863932 0-41.727865 0-62.591797 0z" fill="url(#j)"/></g><g fill="none" opacity=".5" stroke="#fff" stroke-width="2"><path d="m17.229167 61.973958h2.552083l1.770833 4.161459 1.781251-4.161459h2.546875v7.776042h-1.895834v-5.6875l-1.791666 4.192708h-1.270834l-1.791667-4.192708v5.6875h-1.901041z"/><path d="m30.96875 64.984375q.473958 0 .71875-.208333.244792-.208334.244792-.614584 0-.401042-.244792-.609375-.244792-.213542-.71875-.213542h-1.109375v1.645834zm.06771 3.401042q.604167 0 .90625-.255209.30729-.255208.30729-.770833 0-.505208-.302083-.755208-.302084-.255209-.911459-.255209h-1.177083v2.036459zm1.864584-2.796875q.645833.1875 1 .692708.354167.505208.354167 1.239583 0 1.125-.760417 1.677084-.760419.552083-2.312502.552083h-3.328125v-7.776042h3.010416q1.619792 0 2.343751.489583.729166.489584.729166 1.567709 0 .567708-.265625.96875-.265625.395833-.770833.588542z"/><path d="m39.53125 63.286458q-.916667 0-1.421875.677083-.505208.677084-.505208 1.906251 0 1.223958.505208 1.901041.505208.677084 1.421875.677084.921875 0 1.427084-.677084.505208-.677083.505208-1.901041 0-1.229167-.505208-1.906251-.505209-.677083-1.427084-.677083zm0-1.453125q1.875 0 2.9375 1.072917 1.0625 1.072916 1.0625 2.963542 0 1.885416-1.0625 2.958333-1.0625 1.072917-2.9375 1.072917-1.869792 0-2.9375-1.072917-1.0625-1.072917-1.0625-2.958333 0-1.890626 1.0625-2.963542 1.067708-1.072917 2.9375-1.072917z"/><path d="m49 65.78125 2.697917 3.96875h-2.088542l-1.817708-2.65625-1.802084 2.65625h-2.098958l2.697917-3.96875-2.59375-3.807292h2.09375l1.703125 2.505209 1.697917-2.505209h2.104166z"/></g><g fill="#653a00"><path d="m17.229167 61.973958h2.552083l1.770833 4.161459 1.781251-4.161459h2.546875v7.776042h-1.895834v-5.6875l-1.791666 4.192708h-1.270834l-1.791667-4.192708v5.6875h-1.901041z"/><path d="m30.96875 64.984375q.473958 0 .71875-.208333.244792-.208334.244792-.614584 0-.401042-.244792-.609375-.244792-.213542-.71875-.213542h-1.109375v1.645834zm.06771 3.401042q.604167 0 .90625-.255209.30729-.255208.30729-.770833 0-.505208-.302083-.755208-.302084-.255209-.911459-.255209h-1.177083v2.036459zm1.864584-2.796875q.645833.1875 1 .692708.354167.505208.354167 1.239583 0 1.125-.760417 1.677084-.760419.552083-2.312502.552083h-3.328125v-7.776042h3.010416q1.619792 0 2.343751.489583.729166.489584.729166 1.567709 0 .567708-.265625.96875-.265625.395833-.770833.588542z"/><path d="m39.53125 63.286458q-.916667 0-1.421875.677083-.505208.677084-.505208 1.906251 0 1.223958.505208 1.901041.505208.677084 1.421875.677084.921875 0 1.427084-.677084.505208-.677083.505208-1.901041 0-1.229167-.505208-1.906251-.505209-.677083-1.427084-.677083zm0-1.453125q1.875 0 2.9375 1.072917 1.0625 1.072916 1.0625 2.963542 0 1.885416-1.0625 2.958333-1.0625 1.072917-2.9375 1.072917-1.869792 0-2.9375-1.072917-1.0625-1.072917-1.0625-2.958333 0-1.890626 1.0625-2.963542 1.067708-1.072917 2.9375-1.072917z"/><path d="m49 65.78125 2.697917 3.96875h-2.088542l-1.817708-2.65625-1.802084 2.65625h-2.098958l2.697917-3.96875-2.59375-3.807292h2.09375l1.703125 2.505209 1.697917-2.505209h2.104166z"/></g></g></svg>