<svg height="96" width="96" xmlns="http://www.w3.org/2000/svg" xmlns:xlink="http://www.w3.org/1999/xlink"><linearGradient id="a"><stop offset="0" stop-color="#fff"/><stop offset="1" stop-color="#fff" stop-opacity="0"/></linearGradient><linearGradient id="b" gradientTransform="matrix(1.0058652 0 0 .994169 100 0)" gradientUnits="userSpaceOnUse" x1="45.447727" x2="45.447727" y1="92.539597" y2="7.01654"><stop offset="0"/><stop offset="1" stop-opacity=".588235"/></linearGradient><linearGradient id="c" gradientTransform="matrix(.88095236 0 0 .88095242 102.24686 -91.378936)" gradientUnits="userSpaceOnUse" x1="32.251034" x2="32.251034" xlink:href="#b" y1="6.131708" y2="90.238609"/><linearGradient id="d" gradientTransform="matrix(.85714286 0 0 .85714286 103.38971 -90.236078)" gradientUnits="userSpaceOnUse" x1="32.251034" x2="32.251034" xlink:href="#b" y1="6.131708" y2="90.238609"/><linearGradient id="e" gradientTransform="matrix(0 -1.038889 .91666666 0 4.000007 93.23334)" gradientUnits="userSpaceOnUse" x1="7.3709" x2="23.76619" y1="51.470146" y2="51.433136"><stop offset="0" stop-color="#00498e"/><stop offset="1" stop-color="#0d5ea7"/></linearGradient><linearGradient id="f" gradientTransform="matrix(.88966473 0 0 -.88897608 101.82866 91.764071)" gradientUnits="userSpaceOnUse" x1="32.251034" x2="32.251034" xlink:href="#b" y1="6.131708" y2="90.238609"/><linearGradient id="g" gradientTransform="matrix(.88668581 0 0 -.88621557 101.97166 91.631566)" gradientUnits="userSpaceOnUse" x1="32.251034" x2="32.251034" xlink:href="#b" y1="6.131708" y2="90.238609"/><linearGradient id="h" gradientTransform="matrix(.88419911 0 0 -.88396282 102.09102 91.52343)" gradientUnits="userSpaceOnUse" x1="32.251034" x2="32.251034" xlink:href="#b" y1="6.131708" y2="90.238609"/><linearGradient id="i" gradientUnits="userSpaceOnUse" x1="78.04289384" x2="78.04289384" y1="-43.8124403" y2="-113.82267585329"><stop offset="0" stop-color="#e0e0e0"/><stop offset="1" stop-color="#f0f0f0"/></linearGradient><radialGradient id="j" cx="48" cy="90.171875" gradientTransform="matrix(1.0608702 0 0 .91666666 -2.921761 4.342447)" gradientUnits="userSpaceOnUse" r="42" xlink:href="#a"/><linearGradient id="k" gradientTransform="matrix(.83333387 0 0 .83675756 38.042891 -118.83298)" gradientUnits="userSpaceOnUse" x1="36.357143" x2="36.357143" xlink:href="#a" y1="6" y2="63.893143"/><linearGradient id="l" gradientTransform="matrix(2.5120358 0 0 2.5572499 -16.740539 4.83188)" gradientUnits="userSpaceOnUse" x1="32.891998" x2="36.358002" y1="8.059" y2="5.4565"><stop offset="0" stop-color="#f0f0f0"/><stop offset="1" stop-color="#b0b0b0"/></linearGradient><radialGradient id="m" cx="41.752941" cy="36.95731" gradientTransform="matrix(4.5608932 -.80134104 .40815326 2.3230351 -148.56388 -20.727491)" gradientUnits="userSpaceOnUse" r="19"><stop offset="0" stop-color="#83b4e3"/><stop offset=".5" stop-color="#83b4e3"/><stop offset="1" stop-color="#83b4e3"/></radialGradient><linearGradient id="n" gradientUnits="userSpaceOnUse" x1="37.0203438" x2="45.6532128" y1="53.2912798" y2="68.830444"><stop offset="0" stop-color="#b3e1ff"/><stop offset="1" stop-color="#f0ffff" stop-opacity="0"/></linearGradient><g transform="matrix(1.1 0 0 1.1 -110.98583 -5.502542)"><path d="m114.1583 89.09322c-4.78901 0-8.71691-3.971039-8.71691-8.812629v-62.374743c0-4.841588 3.9279-8.812628 8.71691-8.812628h38.74855l30.7169 30.812628v40.374743c0 4.84159-3.9279 8.812629-8.7169 8.812629z" fill="url(#f)" opacity=".08"/><path d="m114.2634 88.09322c-4.30575 0-7.82165-3.55537-7.82165-7.909474v-62.181052c0-4.354104 3.5159-7.909474 7.82165-7.909474h38.36008l30 30v40.090526c0 4.354104-3.51589 7.909474-7.82165 7.909474z" fill="url(#g)" opacity=".1"/><path d="m114.35075 87.09322c-3.80788 0-6.90909-3.13685-6.90909-6.98851v-62.02298c0-3.851661 3.10121-6.98851 6.90909-6.98851h38.27273l29 29v40.01149c0 3.85166-3.1012 6.98851-6.90909 6.98851z" fill="url(#h)" opacity=".2"/><path d="m114.46511-86.093224h60.13512c3.33689 0 6.02326 2.717977 6.02326 6.094118v38.905886l-29.00001 28.999996h-37.15837c-3.33688 0-6.02325-2.717976-6.02325-6.094117v-61.811765c0-3.376141 2.68637-6.094118 6.02325-6.094118z" fill="url(#c)" opacity=".3" transform="scale(1 -1)"/><path d="m114.58491-85.093224h59.89572c2.84914 0 5.07622 2.294494 5.14286 5.142858v38.857146l-28.00001 27.999996h-37.03857c-2.84914 0-5.14285-2.293714-5.14285-5.142857v-61.714285c0-2.849143 2.29371-5.142858 5.14285-5.142858z" fill="url(#d)" opacity=".3" transform="scale(1 -1)"/></g><g transform="matrix(1.1 0 0 1.1 -37.847176 133.19368)"><path d="m48.042892-113.81244h37.999998l27 27v38.000001c0 2.77-2.23 5-5 5h-59.999998c-2.77 0-5-2.23-5-5v-60.000001c0-2.77 2.23-5 5-5z" fill="url(#i)"/><path d="m48.042897-113.81244c-2.770002 0-5.000003 2.23916-5.000003 5.02055v1.67351 54.899511c3.856259 8.137855.998427 5.789227.833337.836756v-54.899507-1.67352c0-2.32773 1.848461-4.18379 4.166669-4.18379h1.666668 34.666692 1.66667l26.16667 26.18379v1.67352 32.899507c-2.34559 6.154455.83329 6.970762.83329-.836758v-32.899509-1.67352l-27-27.02054z" fill="url(#k)"/></g><path d="m9.500007 80.766667c0 3.453266 2.453 6.233333 5.5 6.233333h66c3.047 0 5.5-2.780067 5.5-6.233333v-12.766667h-77z" fill="url(#e)"/><path d="m15.000007 87c-3.047 0-5.5-2.463079-5.5-5.522599v-1.999431c.03752-11.191654.916669-11.430318.916669-.920486v1.840867c0 2.560505 2.033306 4.602562 4.583334 4.601891l1.833334-.000484h62.333322 1.833337c2.550031 0 4.583337-2.040903 4.583337-4.601407v-1.840868c.08998-12.477113.916685-8.207579.916685.920435v1.999429c-.000022 3.059574-2.453022 5.522653-5.500022 5.522653z" fill="url(#j)" opacity=".2"/><g transform="matrix(.48542445941 0 0 .48542445941 8.15522607884 22.31378527746)"><path d="m38.994631 25.428559-4.975872-5.405094s.113135 24.845606.11846 29.024068c-3.099725-1.685814-7.518217-1.264359-11.175366 1.386743-4.731162 3.412443-6.376216 9.231267-3.643536 12.983559 2.746259 3.765901 8.78257 4.024178 13.513757.611755 3.725119-2.705454 5.805202-6.9472 5.057461-10.427585-.02727-.108779-.06801-.217536-.09516-.326334l.13979-20.369684c.496976-1.475472 1.305145-2.032863 4.698406 2.249512 3.909781 6.358271-.242773 15.791902-.242773 15.791902s.671594-.594854 1.478642-1.466117c2.948444-3.183051 4.265252-8.865938 2.531103-14.261774-1.492782-3.215162-6.223493-8.506625-7.404942-9.790936z" fill="#346190" transform="matrix(1.9534141 0 0 1.9534141 -10.754156 -45.940692)"/><path d="m76.859862 17.877279c-6.231046-8.9476442-13.750069-16.7790409-21.161308-24.7038518l.231402 56.6239798c.97997.369273 1.902183.800467 2.712315 1.356157v-34.831596c0-5.424632.03076-9.2079316 4.302347-6.126253 7.485907 5.40061 9.551683 6.837095 13.915244 7.681564z" fill="url(#m)" opacity=".7"/><path d="m52.559494 55.017847c2.107921 4.276518-2.493502 8.928749-9.335931 12.30142-6.842427 3.372672-13.334772 4.188625-15.442694-.0879-2.10792-4.276518 1.730157-10.477412 8.572586-13.850084 6.842428-3.372672 14.098119-2.639961 16.206039 1.636557z" fill="url(#n)"/></g><g fill-rule="evenodd"><path d="m47.685912 9.834481c5.274067-.03438 1.929709 31.844348 1.929709 31.844348s36.911259-7.358947 36.911259 5.214171c0-3.062713-.0092-6.512627-.0092-6.512627l-30.39488-30.541876z" opacity=".2" stroke-width="2.048254"/><path d="m48.835337 9.87792c5.757464-.03438 2.433361 30.193985 2.433361 30.193985s35.065058-6.794184 35.065058 5.440095c0-2.980175-.009-6.337116-.009-6.337116l-29.33919-29.293057z" opacity=".2" stroke-width="1.993055"/><path d="m50.317394 9.897096c5.805406-.0075 2.322169 28.180811 2.322169 28.180811s33.868216-5.549338 33.868216 6.222093c0-2.867429-.0087-3.897369-.0087-3.897369l-30.561253-30.525166z" opacity=".2" stroke-width="1.921337"/><path d="m51.673739 9.812888c6.166533 0 2.221153 26.627352 2.221153 26.627352s32.612519-4.795671 32.612519 6.55976c0-2.766094-.0084-3.681888-.0084-3.681888l-29.558958-29.52416z" fill="url(#l)" stroke-width="1.853437"/></g><path d="m9.500007 68h77v1h-77z" opacity=".3"/><path d="m9.500007 67h77v1h-77z" fill="#fff" opacity=".8"/><g fill="#fff" stroke-width="2.060053" transform="matrix(.48542446 0 0 .48542446 89.741172 16.124979)"><path d="m-108.6496 118.67303q-2.36047 0-3.66142 1.74354-1.30094 1.74353-1.30094 4.90871 0 3.15178 1.30094 4.89531 1.30095 1.74354 3.66142 1.74354 2.37389 0 3.67484-1.74354 1.30094-1.74353 1.30094-4.89531 0-3.16518-1.30094-4.90871-1.30095-1.74354-3.67484-1.74354zm0-3.74189q4.82825 0 7.56426 2.76283 2.736009 2.76283 2.736009 7.63131 0 4.85508-2.736009 7.61791-2.73601 2.76283-7.56426 2.76283-4.81483 0-7.56425-2.76283-2.73601-2.76283-2.73601-7.61791 0-4.86848 2.73601-7.63131 2.74942-2.76283 7.56425-2.76283z"/><path d="m-76.46127 133.82837q-1.931299.93882-4.010128 1.40824-2.07883.46941-4.291777.46941-5.002602 0-7.926375-2.78965-2.923773-2.80307-2.923773-7.59109 0-4.84166 2.97742-7.6179 2.97742-2.77624 8.154376-2.77624 1.998358 0 3.822363.37553 1.837417.37553 3.460245 1.11318v4.14425q-1.676475-.95224-3.339539-1.42166-1.649651-.46941-3.312715-.46941-3.084714 0-4.761189 1.73012-1.663064 1.71671-1.663064 4.92213 0 3.1786 1.609416 4.90872 1.609417 1.73013 4.573425 1.73013.804708 0 1.48871-.0939.697414-.10729 1.247298-.32188v-3.88942h-3.151774v-3.46025h8.047081z"/><path d="m-53.929444 133.82837q-1.931299.93882-4.010128 1.40824-2.07883.46941-4.291777.46941-5.002602 0-7.926375-2.78965-2.923773-2.80307-2.923773-7.59109 0-4.84166 2.97742-7.6179 2.97742-2.77624 8.154376-2.77624 1.998358 0 3.822363.37553 1.837417.37553 3.460245 1.11318v4.14425q-1.676475-.95224-3.339538-1.42166-1.649652-.46941-3.312716-.46941-3.084714 0-4.761189 1.73012-1.663064 1.71671-1.663064 4.92213 0 3.1786 1.609416 4.90872 1.609417 1.73013 4.573425 1.73013.804708 0 1.48871-.0939.697414-.10729 1.247298-.32188v-3.88942h-3.151774v-3.46025h8.047081z"/></g></svg>