<svg height="96" width="96" xmlns="http://www.w3.org/2000/svg" xmlns:xlink="http://www.w3.org/1999/xlink"><linearGradient id="a"><stop offset="0" stop-color="#fff"/><stop offset="1" stop-color="#fff" stop-opacity="0"/></linearGradient><linearGradient id="b" gradientTransform="matrix(1.0058652 0 0 .994169 100 0)" gradientUnits="userSpaceOnUse" x1="45.447727" x2="45.447727" y1="92.539597" y2="7.01654"><stop offset="0"/><stop offset="1" stop-opacity=".588235"/></linearGradient><linearGradient id="c" gradientTransform="matrix(.88095236 0 0 .88095242 102.24686 -91.378936)" gradientUnits="userSpaceOnUse" x1="32.251034" x2="32.251034" xlink:href="#b" y1="6.131708" y2="90.238609"/><linearGradient id="d" gradientTransform="matrix(.85714286 0 0 .85714286 103.38971 -90.236078)" gradientUnits="userSpaceOnUse" x1="32.251034" x2="32.251034" xlink:href="#b" y1="6.131708" y2="90.238609"/><linearGradient id="e" gradientTransform="matrix(0 -1.038889 .91666666 0 4.000007 93.23334)" gradientUnits="userSpaceOnUse" x1="7.3709" x2="23.76619" y1="51.470146" y2="51.433136"><stop offset="0" stop-color="#ac5900"/><stop offset="1" stop-color="#c66c0a"/></linearGradient><linearGradient id="f" gradientTransform="matrix(.88966473 0 0 -.88897608 101.82866 91.764071)" gradientUnits="userSpaceOnUse" x1="32.251034" x2="32.251034" xlink:href="#b" y1="6.131708" y2="90.238609"/><linearGradient id="g" gradientTransform="matrix(.88668581 0 0 -.88621557 101.97166 91.631566)" gradientUnits="userSpaceOnUse" x1="32.251034" x2="32.251034" xlink:href="#b" y1="6.131708" y2="90.238609"/><linearGradient id="h" gradientTransform="matrix(.88419911 0 0 -.88396282 102.09102 91.52343)" gradientUnits="userSpaceOnUse" x1="32.251034" x2="32.251034" xlink:href="#b" y1="6.131708" y2="90.238609"/><linearGradient id="i" gradientUnits="userSpaceOnUse" x1="78.04289384" x2="78.04289384" y1="-43.8124403" y2="-113.82267585329"><stop offset="0" stop-color="#e0e0e0"/><stop offset="1" stop-color="#f0f0f0"/></linearGradient><radialGradient id="j" cx="48" cy="90.171875" gradientTransform="matrix(1.0608702 0 0 .91666666 -2.921761 4.342447)" gradientUnits="userSpaceOnUse" r="42" xlink:href="#a"/><linearGradient id="k" gradientTransform="matrix(.83333387 0 0 .83675756 38.042891 -118.83298)" gradientUnits="userSpaceOnUse" x1="36.357143" x2="36.357143" xlink:href="#a" y1="6" y2="63.893143"/><linearGradient id="l" gradientTransform="matrix(2.5120358 0 0 2.5572499 -16.740539 4.83188)" gradientUnits="userSpaceOnUse" x1="32.891998" x2="36.358002" y1="8.059" y2="5.4565"><stop offset="0" stop-color="#f0f0f0"/><stop offset="1" stop-color="#b0b0b0"/></linearGradient><linearGradient id="m" gradientTransform="matrix(1.1622027 0 0 1 -8.183495 2.823198)" gradientUnits="userSpaceOnUse" x1="61.40464" x2="34.5369" y1="60.062107" y2="44.550011"><stop offset="0" stop-color="#ba7c00" stop-opacity=".35"/><stop offset="1" stop-color="#ba7c00" stop-opacity=".15"/></linearGradient><linearGradient id="n" gradientTransform="matrix(1.1622027 0 0 1 -8.183495 2.823198)" gradientUnits="userSpaceOnUse" x1="48.810036" x2="48.810036" y1="78.173363" y2="18.129204"><stop offset="0" stop-color="#ba7c00"/><stop offset="1" stop-color="#ba7c00"/></linearGradient><g transform="matrix(1.1 0 0 1.1 -110.98583 -5.502542)"><path d="m114.1583 89.09322c-4.78901 0-8.71691-3.971039-8.71691-8.812629v-62.374743c0-4.841588 3.9279-8.812628 8.71691-8.812628h38.74855l30.7169 30.812628v40.374743c0 4.84159-3.9279 8.812629-8.7169 8.812629z" fill="url(#f)" opacity=".08"/><path d="m114.2634 88.09322c-4.30575 0-7.82165-3.55537-7.82165-7.909474v-62.181052c0-4.354104 3.5159-7.909474 7.82165-7.909474h38.36008l30 30v40.090526c0 4.354104-3.51589 7.909474-7.82165 7.909474z" fill="url(#g)" opacity=".1"/><path d="m114.35075 87.09322c-3.80788 0-6.90909-3.13685-6.90909-6.98851v-62.02298c0-3.851661 3.10121-6.98851 6.90909-6.98851h38.27273l29 29v40.01149c0 3.85166-3.1012 6.98851-6.90909 6.98851z" fill="url(#h)" opacity=".2"/><path d="m114.46511-86.093224h60.13512c3.33689 0 6.02326 2.717977 6.02326 6.094118v38.905886l-29.00001 28.999996h-37.15837c-3.33688 0-6.02325-2.717976-6.02325-6.094117v-61.811765c0-3.376141 2.68637-6.094118 6.02325-6.094118z" fill="url(#c)" opacity=".3" transform="scale(1 -1)"/><path d="m114.58491-85.093224h59.89572c2.84914 0 5.07622 2.294494 5.14286 5.142858v38.857146l-28.00001 27.999996h-37.03857c-2.84914 0-5.14285-2.293714-5.14285-5.142857v-61.714285c0-2.849143 2.29371-5.142858 5.14285-5.142858z" fill="url(#d)" opacity=".3" transform="scale(1 -1)"/></g><g transform="matrix(1.1 0 0 1.1 -37.847176 133.19368)"><path d="m48.042892-113.81244h37.999998l27 27v38.000001c0 2.77-2.23 5-5 5h-59.999998c-2.77 0-5-2.23-5-5v-60.000001c0-2.77 2.23-5 5-5z" fill="url(#i)"/><path d="m48.042897-113.81244c-2.770002 0-5.000003 2.23916-5.000003 5.02055v1.67351 54.899511c3.856259 8.137855.998427 5.789227.833337.836756v-54.899507-1.67352c0-2.32773 1.848461-4.18379 4.166669-4.18379h1.666668 34.666692 1.66667l26.16667 26.18379v1.67352 32.899507c-2.34559 6.154455.83329 6.970762.83329-.836758v-32.899509-1.67352l-27-27.02054z" fill="url(#k)"/></g><path d="m9.500007 80.766667c0 3.453266 2.453 6.233333 5.5 6.233333h66c3.047 0 5.5-2.780067 5.5-6.233333v-12.766667h-77z" fill="url(#e)"/><path d="m15.000007 87c-3.047 0-5.5-2.463079-5.5-5.522599v-1.999431c.03752-11.191654.916669-11.430318.916669-.920486v1.840867c0 2.560505 2.033306 4.602562 4.583334 4.601891l1.833334-.000484h62.333322 1.833337c2.550031 0 4.583337-2.040903 4.583337-4.601407v-1.840868c.08998-12.477113.916685-8.207579.916685.920435v1.999429c-.000022 3.059574-2.453022 5.522653-5.500022 5.522653z" fill="url(#j)" opacity=".2"/><g fill-rule="evenodd"><path d="m47.685912 9.834481c5.274067-.03438 1.929709 31.844348 1.929709 31.844348s36.911259-7.358947 36.911259 5.214171c0-3.062713-.0092-6.512627-.0092-6.512627l-30.39488-30.541876z" opacity=".2" stroke-width="2.048254"/><path d="m48.835337 9.87792c5.757464-.03438 2.433361 30.193985 2.433361 30.193985s35.065058-6.794184 35.065058 5.440095c0-2.980175-.009-6.337116-.009-6.337116l-29.33919-29.293057z" opacity=".2" stroke-width="1.993055"/><path d="m50.317394 9.897096c5.805406-.0075 2.322169 28.180811 2.322169 28.180811s33.868216-5.549338 33.868216 6.222093c0-2.867429-.0087-3.897369-.0087-3.897369l-30.561253-30.525166z" opacity=".2" stroke-width="1.921337"/><path d="m51.673739 9.812888c6.166533 0 2.221153 26.627352 2.221153 26.627352s32.612519-4.795671 32.612519 6.55976c0-2.766094-.0084-3.681888-.0084-3.681888l-29.558958-29.52416z" fill="url(#l)" stroke-width="1.853437"/></g><path d="m9.500007 68h77v1h-77z" opacity=".3"/><path d="m9.500007 67h77v1h-77z" fill="#fff" opacity=".8"/><g transform="matrix(.70841592 0 0 .70841592 .75419 6.326726)"><path d="m61.731826 26.365719c-27.707248-16.335225-38.512825 12.868305-18.600231 19.039932 33.711521 10.448409 18.677121 38.45927-5.228517 34.603243" fill="url(#m)" stroke="url(#n)" stroke-width="1.617083"/><path d="m22.202239 35.95148-2.092851 4.664467 5.421054 1.800762.837142-1.865786 43.368452 14.406101-.83714 1.865787 5.42105 1.800763 2.09285-4.664468-5.42105-1.800762-.83714 1.865787-43.368452-14.406101.837142-1.865788zm.665639 1.293045 3.252635 1.080459-1.25571 2.79868-3.252633-1.080458zm48.789508 16.206865 3.25263 1.080457-1.25571 2.798681-3.25263-1.080458z" fill="#141e28"/><g fill="#ba7c00"><path d="m59.224266 22.823198h5.811014v5h-5.811014z"/><path d="m44.115623 44.8232h5.811014v5h-5.811014z"/><path d="m33.6558 77.823204h5.811014v5h-5.811014z"/></g><path d="m151.74191 16.922094v17.9375l8.09375-17.9375zm9.90625 0 8.09375 17.9375v-17.9375zm-.90625 7.03125-3.03125 7h2.92858l1.71875 3.96875h3.22767l-2.375-5.28125-.0625-.125z" fill-opacity=".313725" opacity=".5" transform="matrix(1.4116001 0 0 1.4116001 -194.08951 -18.702036)"/></g><g fill="#fff" transform="matrix(1.0000171 0 0 1 60.83557 38.017253)"><path d="m-24.375704 34.073893h6.764322v1.894532h-4.257812v1.809895h4.003906v1.894532h-4.003906v2.226562h4.401041v1.894531h-6.907551z"/><path d="m-15.261121 34.073893h4.160156q1.8554684 0 2.8450517.826823.9960937.820313.9960937 2.34375 0 1.529948-.9960937 2.356771-.9895833.820313-2.8450517.820313h-1.653646v3.372395h-2.50651zm2.50651 1.816407v2.714843h1.386719q.729166 0 1.126302-.351562.3971351-.358073.3971351-1.009115 0-.651041-.3971351-1.002604-.397136-.351562-1.126302-.351562z"/><path d="m1.2688253 34.379883v2.057292q-.80078119-.358073-1.56249992-.540365-.76171878-.182292-1.43880208-.182292-.8984374 0-1.3281249.247396-.4296875.247396-.4296875.768229 0 .390625.2864583.61198.2929687.214843 1.0546875.371093l1.0677083.214844q1.62109369.325521 2.3046874.989583.6835938.664063.6835938 1.888021 0 1.608073-.95703127 2.395833-.95052081.78125-2.91015613.78125-.9244792 0-1.8554688-.175781-.9309895-.175781-1.8619791-.520833v-2.115886q.9309896.494792 1.796875.748698.8723958.247396 1.6796874.247396.8203125 0 1.25651043-.273437.4361979-.273438.4361979-.78125 0-.455729-.29947916-.703125-.29296877-.247396-1.17838537-.442709l-.9700521-.214843q-1.4583333-.3125-2.1354166-.996094-.6705729-.683594-.6705729-1.842448 0-1.451823.9375-2.233073.9375-.78125 2.6953124-.78125.8007813 0 1.6471354.123698.84635415.117188 1.751302.358073z"/></g></svg>