<svg height="96" width="96" xmlns="http://www.w3.org/2000/svg" xmlns:xlink="http://www.w3.org/1999/xlink"><linearGradient id="a"><stop offset="0" stop-color="#fff"/><stop offset="1" stop-color="#fff" stop-opacity="0"/></linearGradient><linearGradient id="b" gradientTransform="matrix(1.0058652 0 0 .994169 100 0)" gradientUnits="userSpaceOnUse" x1="45.447727" x2="45.447727" y1="92.539597" y2="7.01654"><stop offset="0"/><stop offset="1" stop-opacity=".588235"/></linearGradient><linearGradient id="c" gradientTransform="matrix(.88095236 0 0 .88095242 102.24686 -91.378936)" gradientUnits="userSpaceOnUse" x1="32.251034" x2="32.251034" xlink:href="#b" y1="6.131708" y2="90.238609"/><linearGradient id="d" gradientTransform="matrix(.85714286 0 0 .85714286 103.38971 -90.236078)" gradientUnits="userSpaceOnUse" x1="32.251034" x2="32.251034" xlink:href="#b" y1="6.131708" y2="90.238609"/><linearGradient id="e" gradientTransform="matrix(0 -1.038889 .91666666 0 4.000007 93.23334)" gradientUnits="userSpaceOnUse" x1="7.3709" x2="23.76619" y1="51.470146" y2="51.433136"><stop offset="0" stop-color="#608c20"/><stop offset="1" stop-color="#749b2f"/></linearGradient><linearGradient id="f" gradientTransform="matrix(.88966473 0 0 -.88897608 101.82866 91.764071)" gradientUnits="userSpaceOnUse" x1="32.251034" x2="32.251034" xlink:href="#b" y1="6.131708" y2="90.238609"/><linearGradient id="g" gradientTransform="matrix(.88668581 0 0 -.88621557 101.97166 91.631566)" gradientUnits="userSpaceOnUse" x1="32.251034" x2="32.251034" xlink:href="#b" y1="6.131708" y2="90.238609"/><linearGradient id="h" gradientTransform="matrix(.88419911 0 0 -.88396282 102.09102 91.52343)" gradientUnits="userSpaceOnUse" x1="32.251034" x2="32.251034" xlink:href="#b" y1="6.131708" y2="90.238609"/><linearGradient id="i" gradientUnits="userSpaceOnUse" x1="78.04289384" x2="78.04289384" y1="-43.8124403" y2="-113.82267585329"><stop offset="0" stop-color="#e0e0e0"/><stop offset="1" stop-color="#f0f0f0"/></linearGradient><radialGradient id="j" cx="48" cy="90.171875" gradientTransform="matrix(1.0608702 0 0 .91666666 -2.921761 4.342447)" gradientUnits="userSpaceOnUse" r="42" xlink:href="#a"/><linearGradient id="k" gradientTransform="matrix(.91666731 0 0 .92043332 3.999996 4.504949)" gradientUnits="userSpaceOnUse" x1="36.357143" x2="36.357143" xlink:href="#a" y1="6" y2="63.893143"/><linearGradient id="l" gradientTransform="matrix(2.5120358 0 0 2.5572499 -16.740539 4.83188)" gradientUnits="userSpaceOnUse" x1="32.891998" x2="36.358002" y1="8.059" y2="5.4565"><stop offset="0" stop-color="#f0f0f0"/><stop offset="1" stop-color="#b0b0b0"/></linearGradient><linearGradient id="m" gradientTransform="matrix(.54377645 0 0 .54340856 -26.144067 -334.01403)" gradientUnits="userSpaceOnUse" x1="120.5" x2="120.5" y1="706.87787" y2="678.83179"><stop offset="0" stop-color="#8fd400"/><stop offset="1" stop-color="#daff31"/></linearGradient><linearGradient id="n" gradientUnits="userSpaceOnUse" x1="51.36815250639" x2="50.9761822" y1="58.91243767218" y2="32.30632299125"><stop offset="0" stop-color="#444"/><stop offset="1" stop-color="#888"/></linearGradient><g transform="matrix(1.1 0 0 1.1 -110.98583 -5.502542)"><path d="m114.1583 89.09322c-4.78901 0-8.71691-3.971039-8.71691-8.812629v-62.374743c0-4.841588 3.9279-8.812628 8.71691-8.812628h38.74855l30.7169 30.812628v40.374743c0 4.84159-3.9279 8.812629-8.7169 8.812629z" fill="url(#f)" opacity=".08"/><path d="m114.2634 88.09322c-4.30575 0-7.82165-3.55537-7.82165-7.909474v-62.181052c0-4.354104 3.5159-7.909474 7.82165-7.909474h38.36008l30 30v40.090526c0 4.354104-3.51589 7.909474-7.82165 7.909474z" fill="url(#g)" opacity=".1"/><path d="m114.35075 87.09322c-3.80788 0-6.90909-3.13685-6.90909-6.98851v-62.02298c0-3.851661 3.10121-6.98851 6.90909-6.98851h38.27273l29 29v40.01149c0 3.85166-3.1012 6.98851-6.90909 6.98851z" fill="url(#h)" opacity=".2"/><path d="m114.46511-86.093224h60.13512c3.33689 0 6.02326 2.717977 6.02326 6.094118v38.905886l-29.00001 28.999996h-37.15837c-3.33688 0-6.02325-2.717976-6.02325-6.094117v-61.811765c0-3.376141 2.68637-6.094118 6.02325-6.094118z" fill="url(#c)" opacity=".3" transform="scale(1 -1)"/><path d="m114.58491-85.093224h59.89572c2.84914 0 5.07622 2.294494 5.14286 5.142858v38.857146l-28.00001 27.999996h-37.03857c-2.84914 0-5.14285-2.293714-5.14285-5.142857v-61.714285c0-2.849143 2.29371-5.142858 5.14285-5.142858z" fill="url(#d)" opacity=".3" transform="scale(1 -1)"/></g><path d="m48.042892-113.81244h37.999998l27 27v38.000001c0 2.77-2.23 5-5 5h-59.999998c-2.77 0-5-2.23-5-5v-60.000001c0-2.77 2.23-5 5-5z" fill="url(#i)" transform="matrix(1.1 0 0 1.1 -37.847176 133.19368)"/><path d="m15.000003 8.027049c-3.047002 0-5.500003 2.463076-5.500003 5.522605v1.840861 62.389952c4.241885 8.95164 1.09827 6.36815.916671.920432v-62.389948-1.840872c0-2.560503 2.069447-4.602169 4.583336-4.602169h1.833334 38.133364 1.833337l28.783339 28.802169v1.840872 38.189948c-2.580149 6.7699.916619 7.667838.916619-.920434v-38.18995-1.840872l-29.700002-29.722594z" fill="url(#k)"/><path d="m9.500007 80.766667c0 3.453266 2.453 6.233333 5.5 6.233333h66c3.047 0 5.5-2.780067 5.5-6.233333v-12.766667h-77z" fill="url(#e)"/><path d="m15.000007 87c-3.047 0-5.5-2.463079-5.5-5.522599v-1.999431c.03752-11.191654.916669-11.430318.916669-.920486v1.840867c0 2.560505 2.033306 4.602562 4.583334 4.601891l1.833334-.000484h62.333322 1.833337c2.550031 0 4.583337-2.040903 4.583337-4.601407v-1.840868c.08998-12.477113.916685-8.207579.916685.920435v1.999429c-.000022 3.059574-2.453022 5.522653-5.500022 5.522653z" fill="url(#j)" opacity=".2"/><g transform="translate(.570374 -2.345047)"><path d="m13.429626 52.225849c1.237774 1.611163 11.791862 9.113779 25.664027 9.113779 13.872164 0 27.860249-6.419625 31.205726-9.657801-2.073023-3.103561-14.000747-19.618956-31.115375-19.323534-18.397289.317539-25.490758 18.689052-25.754378 19.867556z" fill="url(#n)"/><path d="m39.175345 32.348958c-18.397278.31754-25.482099 18.697844-25.745719 19.876349 1.237774 1.611163 11.803407 9.11974 25.675572 9.11974 13.872159 0 27.848704-6.419389 31.194181-9.657569-2.073023-3.10356-14.0094-19.633944-31.124034-19.33852zm.04676 2.244859c7.828118-.135127 14.580464 3.605311 19.712665 7.880385 4.037031 3.362813 6.589895 6.569143 8.137613 8.675447-1.874463 1.254631-4.916601 2.953728-9.166505 4.466331-5.453427 1.940957-12.209832 3.484212-18.800693 3.484212-6.532291 0-12.348214-1.767959-16.649371-3.741437-2.15058-.986733-3.91478-2.016378-5.19124-2.876223-.723817-.48758-.804541-.596663-1.169197-.911971.224025-.521315.472492-1.11849.865209-1.870716.924875-1.771533 2.318601-4.036693 4.232489-6.266901 3.827783-4.460416 9.570421-8.693133 18.029027-8.839127z" opacity=".05"/><path d="m38.871354 34.126136c-.965553.10882-2.087011-.03132-2.937178.513394-.865621.642835-.52617 1.813789-.593794 2.736973-.680198.308447-1.31685.706701-1.761839-.101581-.476563-.551174-1.120108-1.152502-1.914444-.914786-1.092654.370515-1.878029 1.38581-2.696837 2.160921-.603853.748183-1.67644 1.628045-1.25005 2.713798.322966.655098.978895 1.068352 1.449812 1.613489-.287261.693311-.456746 1.453991-1.352572 1.192586-.771074-.07343-1.690582.04775-2.053919.837005-.496575 1.740126-.450335 3.651277-.031 5.406509.335083.765254 1.204167.977625 1.965808.888584.748847-.143935 1.206373.09885 1.331173.901606.323201.501013-.531152.802063-.77545 1.20688-.73792.522661-.840198 1.649087-.1986 2.291212.964739 1.248075 2.092705 2.444422 3.476283 3.223472.740984.26863 1.452564-.178903 1.897096-.751278.422973-.498973.837677-.96882 1.45772-.383963.7507.05652.362846.889245.45677 1.395592-.137624.914253.583009 1.829598 1.531658 1.819122 1.594132.248688 3.307605.316131 4.852155-.208761.745977-.396475.805743-1.299672.748286-2.048041-.26145-.868743.476173-1.0123 1.145814-1.272472.691587.616172 1.290672 1.649976 2.361777 1.49657 1.140101-.354852 1.948605-1.379957 2.807804-2.157247.623986-.742922 1.71252-1.632522 1.284386-2.729996-.316045-.64659-.962722-1.05324-1.426418-1.590108.287258-.693305.456739-1.453995 1.352568-1.192588.752086.07777 1.632543-.07805 1.983768-.837006.494102-1.740288.45288-3.651467.031-5.406501-.335091-.765253-1.204176-.977633-1.965812-.888591-.829872.218095-1.122389-.307215-1.33052-1.047609-.0422-.428534.640252-.736332.898822-1.114754.692554-.524356.720642-1.60693.122073-2.214557-.965182-1.253875-2.090306-2.461954-3.477013-3.246247-.740983-.268633-1.452566.1789-1.897092.751276-.437875.6264-.931329.820655-1.585187.299114-.582558-.137707-.193325-.947323-.305922-1.410313.121278-.889695-.600026-1.732824-1.501231-1.745986-.694209-.11152-1.396201-.185436-2.099897-.185718zm0 9.447112c2.389966-.08985 4.419893 2.294228 3.976201 4.638976-.274953 2.371785-2.934726 3.999185-5.180047 3.225924-2.369979-.642416-3.559211-3.658152-2.336992-5.768474.677346-1.285222 2.090165-2.113995 3.540838-2.096426z" opacity="0"/><path d="m38.871354 34.87442c-.74655 0-1.459291.09198-2.151319.210457a.74194919.74194919 0 0 0 -.631368.724905v2.0344c-.737943.215983-1.425889.523171-2.081167.888594l-1.496573-1.473193a.74194919.74194919 0 0 0 -.93536-.07019c-1.210389.848585-2.243828 1.916439-3.086678 3.110062a.74194919.74194919 0 0 0 .09354.935361l1.449803 1.449801c-.370437.660935-.670651 1.359853-.888594 2.104561h-2.057787a.74194919.74194919 0 0 0 -.724897.631368c-.122574.70458-.210456 1.421485-.210456 2.174707 0 .753226.08739 1.490631.210456 2.198085a.74194919.74194919 0 0 0 .724897.631367h2.057787c.217943.744717.518156 1.443631.888594 2.104559l-1.449803 1.449802a.74194919.74194919 0 0 0 -.09354.935362c.850461 1.204381 1.906769 2.244075 3.11006 3.086679a.74194919.74194919 0 0 0 .935359-.09354l1.449804-1.449797c.660667.370181 1.359572.670548 2.104555.88859v2.034401a.74194919.74194919 0 0 0 .631368.724903c.692016.118465 1.404757.210455 2.151319.210455.760299-.00001 1.525317-.08375 2.244862-.210455a.74194919.74194919 0 0 0 .607981-.724903v-2.034401c.737948-.215979 1.42589-.523169 2.08117-.88859l1.40304 1.426421a.74194919.74194919 0 0 0 .958741.09353c1.192533-.840946 2.280216-1.869854 3.133447-3.086681a.74194919.74194919 0 0 0 -.09354-.935339l-1.426422-1.426422c.370436-.660929.670645-1.359847.888591-2.104559h1.987634a.74194919.74194919 0 0 0 .724904-.631368c.123066-.707455.210456-1.444878.210456-2.198085 0-.753214-.0879-1.470141-.210456-2.174707a.74194919.74194919 0 0 0 -.724904-.631361h-1.987634c-.217946-.744713-.518154-1.44363-.888591-2.104558l1.426422-1.42642a.74194919.74194919 0 0 0 .09354-.935352c-.845743-1.206145-1.910271-2.263079-3.110065-3.110066a.74194919.74194919 0 0 0 -.935356.09354l-1.426419 1.426422c-.660674-.370183-1.359572-.67055-2.104558-.888593v-2.034401a.74194919.74194919 0 0 0 -.607981-.724894c-.719533-.126706-1.484551-.210456-2.244862-.210457zm0 7.950543c2.641512.000011 4.770326 2.130819 4.770326 4.770326 0 2.639512-2.128816 4.770327-4.770326 4.770327-2.6415.000011-4.770323-2.130822-4.770323-4.770327 0-2.639492 2.128821-4.770326 4.770323-4.770326z" opacity=".15"/><path d="m38.879463 35.622708c-.693966 0-1.381047.06495-2.042717.178209v2.543567c-1.0905.242116-2.101524.681947-3.015433 1.263682l-1.815748-1.814518c-1.133997.795025-2.119579 1.78526-2.918168 2.916191l1.815753 1.814512c-.582127.913308-1.022271 1.923644-1.264538 3.013399h-2.561508c-.116615.670383-.178324 1.35384-.178324 2.057539 0 .703714.0617 1.403345.178324 2.073727h2.561508c.242267 1.089774.682411 2.100118 1.264538 3.013398l-1.815753 1.81452c.799869 1.132732 1.79811 2.104318 2.934381 2.899999l1.799535-1.798323c.913909.58171 1.924933 1.021576 3.015433 1.263683v2.527355c.66167.113274 1.348743.178224 2.042717.178224.713556-.000017 1.412076-.05857 2.091354-.178224v-2.527355c1.090499-.242107 2.101525-.681946 3.015432-1.263683l1.767114 1.782114c1.133502-.79932 2.138167-1.780688 2.934374-2.91619l-1.783317-1.78212c.58212-.91329 1.022257-1.923624 1.264528-3.013398h2.496656c.11662-.670377.178333-1.370031.178333-2.073727 0-.703682-.06171-1.387148-.178333-2.057539h-2.496656c-.242271-1.089771-.682408-2.100107-1.264528-3.013399l1.783317-1.782113c-.795032-1.133826-1.78677-2.133683-2.91817-2.932388l-1.783318 1.798316c-.913907-.581728-1.924933-1.021573-3.015432-1.263682v-2.527366c-.679278-.119617-1.377798-.19441-2.091354-.19441zm-.01626 6.464224c3.043931.000012 5.5283 2.466484 5.5283 5.508357 0 3.041881-2.484369 5.50836-5.5283 5.50836-3.043931.000013-5.512088-2.466486-5.512088-5.50836 0-3.04186 2.468157-5.508357 5.512088-5.508357z" opacity=".3"/><path d="m38.879463 34.87442c-.693966 0-1.381047.06495-2.042717.178209v2.543569c-1.0905.242115-2.101524.681948-3.015433 1.263681l-1.815748-1.814516c-1.133997.795024-2.119579 1.785259-2.918168 2.916192l1.815753 1.814511c-.582127.913304-1.022271 1.923642-1.264538 3.013399h-2.561508c-.116615.670382-.178324 1.35384-.178324 2.057539 0 .703714.0617 1.403345.178324 2.073727h2.561508c.242267 1.089774.682411 2.100119 1.264538 3.013398l-1.815753 1.814519c.799869 1.132731 1.79811 2.104319 2.934381 2.899999l1.799535-1.798322c.913909.58171 1.924933 1.021577 3.015433 1.263682v2.527355c.66167.113275 1.348743.178214 2.042717.178214.713556-.000006 1.412076-.05853 2.091354-.178214v-2.527355c1.090499-.242105 2.101525-.681953 3.015432-1.263682l1.767114 1.782114c1.133502-.79932 2.138167-1.780696 2.934374-2.916189l-1.783317-1.782121c.58212-.91329 1.022257-1.923624 1.264528-3.013398h2.496656c.11662-.670377.178333-1.370031.178333-2.073727 0-.703682-.06171-1.38715-.178333-2.057539h-2.496656c-.242271-1.089774-.682408-2.100107-1.264528-3.013399l1.783317-1.782114c-.795032-1.133824-1.78677-2.133689-2.91817-2.932386l-1.783318 1.798313c-.913907-.581726-1.924933-1.021571-3.015432-1.263681v-2.527365c-.679278-.119621-1.377798-.194413-2.091354-.194413zm-.01626 6.464226c3.043931.000013 5.5283 2.466484 5.5283 5.508358 0 3.041878-2.484369 5.50836-5.5283 5.50836-3.043931.000012-5.512088-2.466489-5.512088-5.50836 0-3.04186 2.468157-5.508358 5.512088-5.508358z" fill="url(#m)"/><path d="m39.175345 32.348958c-18.397278.31754-25.482099 18.697844-25.745719 19.876349 1.237774 1.611163 11.803407 9.11974 25.675572 9.11974 13.872159 0 27.848704-6.419389 31.194181-9.657569-2.073023-3.10356-14.0094-19.633944-31.124034-19.33852zm.02342 1.449805c8.083085-.13953 15.030755 3.719469 20.25049 8.06746 4.502133 3.750236 7.3262 7.470651 8.745597 9.470492-1.799958 1.345548-5.268897 3.332397-10.031711 5.02755-5.520882 1.964968-12.346346 3.530981-19.057915 3.530981-6.673477 0-12.595514-1.82476-16.976745-3.834975-2.190606-1.005096-3.995025-2.061823-5.308151-2.94637-.984845-.663415-1.356189-1.032392-1.683646-1.332884.03884-.102765.0236-.07447.07019-.187078.2381-.575435.578673-1.33771 1.052273-2.244855.947207-1.8143 2.387269-4.144142 4.349412-6.430581 3.924286-4.572893 9.872852-8.969279 18.590226-9.11974z" opacity="0"/><path d="m38.871354 34.87442c-.693961 0-1.372725.07379-2.034402.187075v.748287c.661677-.113283 1.340441-.187074 2.034402-.187074.713557 0 1.425276.06743 2.104556.187074v-.748287c-.67928-.11962-1.390999-.187075-2.104556-.187075zm-6.874876 2.174707c-1.13399.795026-2.101024 1.792063-2.899613 2.922992l.327376.327376c.738269-.955788 1.581879-1.807758 2.572237-2.50208l1.823944 1.800562c.913911-.581725 1.926031-1.020618 3.01653-1.262733v-.748285c-1.090499.242115-2.102619.681004-3.01653 1.262733zm13.77314.02342-1.777177 1.777177c-.913908-.581727-1.926032-1.020629-3.016531-1.26274v.748288c1.090499.242108 2.102623.681012 3.016531 1.26273l1.777177-1.777175c.98549.695697 1.859753 1.545553 2.595619 2.502082l.327376-.327375c-.795031-1.13385-1.79159-2.124313-2.922995-2.923012zm-15.152792 5.167835c-.442504.78575-.780819 1.643311-.982128 2.548849h-2.548851c-.116614.670377-.187067 1.35409-.187067 2.05779 0 .125202.01946.249332.02335.374142.01793-.572767.06777-1.13254.163686-1.683646h2.548851c.24227-1.089761.680609-2.103224 1.262734-3.016531l-.280589-.280609zm16.579214 0-.280607.280604c.582119.913295 1.020459 1.926756 1.262733 3.016531h2.478697c.09586.551111.145811 1.110888.163692 1.683646.0036-.124809.02338-.248942.02338-.374142 0-.703682-.07049-1.387406-.18707-2.05779h-2.478693c-.201326-.905574-.539638-1.763128-.982135-2.548872zm-13.819909 4.980772c-.0084.124716-.02342.247285-.02342.374144 0 3.041874 2.474683 5.518623 5.518611 5.51861 3.043933 0 5.518612-2.476731 5.518612-5.51861 0-.12686-.01489-.249427-.02337-.374144-.195361 2.865883-2.578238 5.144469-5.49523 5.144469-2.916987.000012-5.301106-2.278591-5.495223-5.144469zm-2.735925 4.980783-1.543341 1.543339c.103162.146076.217751.280215.327376.420912l1.473188-1.473192c-.09756-.153061-.167897-.332619-.257223-.491055zm16.532452 0c-.08932.158437-.159663.337992-.257225.491059l1.449804 1.449801c.109447-.141247.224693-.274465.327376-.420912z" fill="#fff" opacity=".4"/><path d="m39.175345 32.348958c-18.397278.31754-25.482099 18.697844-25.745719 19.876349.04249.05531.122922.141862.187077.210456 1.183001-3.229824 8.492334-19.04395 25.558642-19.338519 16.540875-.285522 28.159605 15.035059 30.796656 18.870838.107984-.09375.235296-.191477.327378-.280604-2.073023-3.10356-14.0094-19.633944-31.124034-19.33852z" opacity=".3"/><path d="m39.175345 32.348958c-18.397278.31754-25.482099 18.697844-25.745719 19.876349 1.237774 1.611163 11.803407 9.11974 25.675572 9.11974 13.872159 0 27.848704-6.419389 31.194181-9.657569-2.073023-3.10356-14.0094-19.633944-31.124034-19.33852zm.02342.7249c8.324001-.143683 15.415725 3.814257 20.718175 8.231147 4.952401 4.125305 8.109188 8.408737 9.353574 10.218787-1.725015 1.461725-5.625486 3.682454-10.85015 5.541989-5.584614 1.987656-12.48951 3.55436-19.315135 3.55436-6.806887 0-12.82385-1.836809-17.28074-3.881734-2.228437-1.022461-4.053906-2.085252-5.40169-2.993139-1.190317-.801823-1.852689-1.4158-2.151318-1.730417.06193-.184834.09653-.313165.257226-.701515.246629-.596037.59151-1.387658 1.075657-2.315015.968295-1.854703 2.435198-4.231303 4.442953-6.570883 4.015484-4.679164 10.189584-9.198895 19.151444-9.35358z" opacity=".15"/></g><g fill-rule="evenodd"><path d="m47.685912 9.834481c5.274067-.03438 1.929709 31.844348 1.929709 31.844348s36.911259-7.358947 36.911259 5.214171c0-3.062713-.0092-6.512627-.0092-6.512627l-30.39488-30.541876z" opacity=".2" stroke-width="2.048254"/><path d="m48.835337 9.87792c5.757464-.03438 2.433361 30.193985 2.433361 30.193985s35.065058-6.794184 35.065058 5.440095c0-2.980175-.009-6.337116-.009-6.337116l-29.33919-29.293057z" opacity=".2" stroke-width="1.993055"/><path d="m50.317394 9.897096c5.805406-.0075 2.322169 28.180811 2.322169 28.180811s33.868216-5.549338 33.868216 6.222093c0-2.867429-.0087-3.897369-.0087-3.897369l-30.561253-30.525166z" opacity=".2" stroke-width="1.921337"/><path d="m51.673739 9.812888c6.166533 0 2.221153 26.627352 2.221153 26.627352s32.612519-4.795671 32.612519 6.55976c0-2.766094-.0084-3.681888-.0084-3.681888l-29.558958-29.52416z" fill="url(#l)" stroke-width="1.853437"/></g><path d="m9.500007 68h77v1h-77z" opacity=".3"/><path d="m9.500007 67h77v1h-77z" fill="#fff" opacity=".8"/><g fill="#fff" transform="matrix(.56659002 0 0 .56659002 12.662955 18.947353)"><path d="m14.714422 93.942625h7.280825q3.247315 0 4.979217 1.447049 1.743296 1.435656 1.743296 4.101873 0 2.677613-1.743296 4.124663-1.731902 1.43565-4.979217 1.43565h-2.8941v5.90214h-4.386725zm4.386725 3.178951v4.751334h2.426942q1.276138 0 1.971178-.61528.695039-.62667.695039-1.766083 0-1.139409-.695039-1.75469-.69504-.615281-1.971178-.615281z"/><path d="m31.805559 93.942625h4.386725v6.483235h6.471844v-6.483235h4.386725v17.011375h-4.386725v-7.21246h-6.471844v7.21246h-4.386725z"/><path d="m61.680863 107.85481h-6.859242l-1.082439 3.09919h-4.409513l6.300932-17.011375h5.229888l6.300932 17.011375h-4.409513zm-5.76541-3.15616h4.660183l-2.324394-6.768094z"/><path d="m65.554858 93.942625h15.678269v3.31568h-5.640075v13.695695h-4.386725v-13.695695h-5.651469z"/><path d="m96.979761 110.01969q-1.207774.62667-2.518094.94571-1.310321.31903-2.734582.31903-4.249996 0-6.733908-2.36997-2.483912-2.38136-2.483912-6.44906 0-4.07908 2.483912-6.449051 2.483912-2.381365 6.733908-2.381365 1.424261 0 2.734582.319035 1.31032.319034 2.518094.945709v3.520774q-1.219168-.831768-2.404154-1.219167-1.184985-.387399-2.495305-.387399-2.347183 0-3.691686 1.50402-1.344503 1.50402-1.344503 4.147444 0 2.63204 1.344503 4.13606 1.344503 1.50402 3.691686 1.50402 1.31032 0 2.495305-.3874 1.184986-.3874 2.404154-1.21917z"/><path d="m100.62587 93.942625h4.38672v6.483235h6.47185v-6.483235h4.38672v17.011375h-4.38672v-7.21246h-6.47185v7.21246h-4.38672z"/></g></svg>