<svg height="96" width="96" xmlns="http://www.w3.org/2000/svg" xmlns:xlink="http://www.w3.org/1999/xlink"><linearGradient id="a"><stop offset="0" stop-color="#fff"/><stop offset="1" stop-color="#fff" stop-opacity="0"/></linearGradient><linearGradient id="b" gradientTransform="matrix(1.0058652 0 0 .994169 100 0)" gradientUnits="userSpaceOnUse" x1="45.447727" x2="45.447727" y1="92.539597" y2="7.01654"><stop offset="0"/><stop offset="1" stop-opacity=".588235"/></linearGradient><linearGradient id="c" gradientTransform="matrix(.88095236 0 0 .88095242 102.24686 -91.378936)" gradientUnits="userSpaceOnUse" x1="32.251034" x2="32.251034" xlink:href="#b" y1="6.131708" y2="90.238609"/><linearGradient id="d" gradientTransform="matrix(.85714286 0 0 .85714286 103.38971 -90.236078)" gradientUnits="userSpaceOnUse" x1="32.251034" x2="32.251034" xlink:href="#b" y1="6.131708" y2="90.238609"/><linearGradient id="e" gradientTransform="matrix(0 -1.038889 .91666666 0 4.000007 93.23334)" gradientUnits="userSpaceOnUse" x1="7.3709" x2="23.76619" y1="51.470146" y2="51.433136"><stop offset="0" stop-color="#5e5e28"/><stop offset="1" stop-color="#78783c"/></linearGradient><linearGradient id="f" gradientTransform="matrix(.88966473 0 0 -.88897608 101.82866 91.764071)" gradientUnits="userSpaceOnUse" x1="32.251034" x2="32.251034" xlink:href="#b" y1="6.131708" y2="90.238609"/><linearGradient id="g" gradientTransform="matrix(.88668581 0 0 -.88621557 101.97166 91.631566)" gradientUnits="userSpaceOnUse" x1="32.251034" x2="32.251034" xlink:href="#b" y1="6.131708" y2="90.238609"/><linearGradient id="h" gradientTransform="matrix(.88419911 0 0 -.88396282 102.09102 91.52343)" gradientUnits="userSpaceOnUse" x1="32.251034" x2="32.251034" xlink:href="#b" y1="6.131708" y2="90.238609"/><linearGradient id="i" gradientUnits="userSpaceOnUse" x1="78.04289384" x2="78.04289384" y1="-43.8124403" y2="-113.82267585329"><stop offset="0" stop-color="#c3c36a"/><stop offset="1" stop-color="#f0f0af"/></linearGradient><radialGradient id="j" cx="48" cy="90.171875" gradientTransform="matrix(1.0608702 0 0 .91666666 -2.921761 4.342447)" gradientUnits="userSpaceOnUse" r="42" xlink:href="#a"/><linearGradient id="k" gradientTransform="matrix(.83333387 0 0 .83675756 38.042891 -118.83298)" gradientUnits="userSpaceOnUse" x1="36.357143" x2="36.357143" xlink:href="#a" y1="6" y2="63.893143"/><linearGradient id="l" gradientTransform="matrix(2.5120358 0 0 2.5572499 -16.740539 4.83188)" gradientUnits="userSpaceOnUse" x1="32.891998" x2="36.358002" y1="8.059" y2="5.4565"><stop offset="0" stop-color="#f0f0af"/><stop offset="1" stop-color="#c8c88c"/></linearGradient><linearGradient id="m" gradientTransform="matrix(.51907289 0 0 .55239568 6.64425 8.977751)" gradientUnits="userSpaceOnUse" x1="62.136082" x2="62.136082" y1="103.95654" y2="24.043467"><stop offset="0" stop-color="#3b6800"/><stop offset="1" stop-color="#639632"/></linearGradient><g transform="matrix(1.1 0 0 1.1 -110.98583 -5.502542)"><path d="m114.1583 89.09322c-4.78901 0-8.71691-3.971039-8.71691-8.812629v-62.374743c0-4.841588 3.9279-8.812628 8.71691-8.812628h38.74855l30.7169 30.812628v40.374743c0 4.84159-3.9279 8.812629-8.7169 8.812629z" fill="url(#f)" opacity=".08"/><path d="m114.2634 88.09322c-4.30575 0-7.82165-3.55537-7.82165-7.909474v-62.181052c0-4.354104 3.5159-7.909474 7.82165-7.909474h38.36008l30 30v40.090526c0 4.354104-3.51589 7.909474-7.82165 7.909474z" fill="url(#g)" opacity=".1"/><path d="m114.35075 87.09322c-3.80788 0-6.90909-3.13685-6.90909-6.98851v-62.02298c0-3.851661 3.10121-6.98851 6.90909-6.98851h38.27273l29 29v40.01149c0 3.85166-3.1012 6.98851-6.90909 6.98851z" fill="url(#h)" opacity=".2"/><path d="m114.46511-86.093224h60.13512c3.33689 0 6.02326 2.717977 6.02326 6.094118v38.905886l-29.00001 28.999996h-37.15837c-3.33688 0-6.02325-2.717976-6.02325-6.094117v-61.811765c0-3.376141 2.68637-6.094118 6.02325-6.094118z" fill="url(#c)" opacity=".3" transform="scale(1 -1)"/><path d="m114.58491-85.093224h59.89572c2.84914 0 5.07622 2.294494 5.14286 5.142858v38.857146l-28.00001 27.999996h-37.03857c-2.84914 0-5.14285-2.293714-5.14285-5.142857v-61.714285c0-2.849143 2.29371-5.142858 5.14285-5.142858z" fill="url(#d)" opacity=".3" transform="scale(1 -1)"/></g><g transform="matrix(1.1 0 0 1.1 -37.847176 133.19368)"><path d="m48.042892-113.81244h37.999998l27 27v38.000001c0 2.77-2.23 5-5 5h-59.999998c-2.77 0-5-2.23-5-5v-60.000001c0-2.77 2.23-5 5-5z" fill="url(#i)"/><path d="m48.042897-113.81244c-2.770002 0-5.000003 2.23916-5.000003 5.02055v1.67351 54.899511c3.856259 8.137855.998427 5.789227.833337.836756v-54.899507-1.67352c0-2.32773 1.848461-4.18379 4.166669-4.18379h1.666668 34.666692 1.66667l26.16667 26.18379v1.67352 32.899507c-2.34559 6.154455.83329 6.970762.83329-.836758v-32.899509-1.67352l-27-27.02054z" fill="url(#k)" opacity=".6"/></g><path d="m9.500007 80.766667c0 3.453266 2.453 6.233333 5.5 6.233333h66c3.047 0 5.5-2.780067 5.5-6.233333v-12.766667h-77z" fill="url(#e)"/><path d="m15.000007 87c-3.047 0-5.5-2.463079-5.5-5.522599v-1.999431c.03752-11.191654.916669-11.430318.916669-.920486v1.840867c0 2.560505 2.033306 4.602562 4.583334 4.601891l1.833334-.000484h62.333322 1.833337c2.550031 0 4.583337-2.040903 4.583337-4.601407v-1.840868c.08998-12.477113.916685-8.207579.916685.920435v1.999429c-.000022 3.059574-2.453022 5.522653-5.500022 5.522653z" fill="url(#j)" opacity=".2"/><path d="m45.816403 23.983618-10.777255.02155c1.172964.745986 2.727679 2.418704 4.009139 4.332457 1.431338 2.137589 2.570494 4.597287 3.427167 6.746562l-3.039186 1.767469 9.69953-.02155 4.526447-8.535586-2.414105 1.616588-1.53037-2.909859c-1.026033-1.642078-1.966692-2.832794-3.901367-3.017631zm-13.342241.344872c-.658013-.01395-1.359312.102529-2.133897.409536l-4.698883 6.962106 8.276932 5.53951 4.440229-8.384705c-1.227124-1.810405-3.032992-4.465969-5.884381-4.526447zm22.740008 11.833426-8.341596 5.367073 3.858258 8.36315 3.319394.02155c1.938524.02229 5.05814-2.834266 4.935983-4.892874zm-27.654437 2.090788-9.009785.495753 2.888304 1.57348-.969953 2.047678c-3.130288 6.692303.829232 9.955736 5.517955 16.467646-.670013-1.616615-.62977-3.346712-.04311-5.022201l4.16002-8.902013 2.608096 1.357934zm17.696253 9.591757-4.440229 8.470922 4.440229 8.36315.02155-3.448722h2.177005c7.024608-.0032 7.995123-5.217578 11.380782-12.587834-1.060822 1.359186-2.532324 2.074758-4.20313 2.263224l-9.354657.02155zm-7.005216 2.758977-9.677975.323318-1.508815 3.125403c-.883313 1.836494.132489 6.095673 1.918351 6.897444h9.203776z" fill="url(#m)"/><path d="m47.685912 9.834481c5.274067-.03438 1.929709 31.844348 1.929709 31.844348s36.911259-7.358947 36.911259 5.214171c0-3.062713-.0092-6.512627-.0092-6.512627l-30.39488-30.541876z" fill-rule="evenodd" opacity=".2" stroke-width="2.048254"/><path d="m45.816403 23.983618-10.777255.02155c.275614.175286.574465.421022.883735.689745l9.89352-.02155c1.934675.184837 2.875334 1.375553 3.901367 3.017632l1.53037 2.909858 1.853688-1.228607.560417-1.077725-2.414105 1.616588-1.53037-2.909859c-1.026033-1.642079-1.966692-2.832795-3.901367-3.017632zm-13.342241.344872c-.658013-.01395-1.359312.102529-2.133897.409536l-4.698883 6.962106.323318.215546 4.375565-6.487908c.774585-.307007 1.475884-.423489 2.133897-.409536 2.69895.05724 4.44748 2.434837 5.668836 4.224684l.215545-.387981c-1.227124-1.810405-3.032992-4.465969-5.884381-4.526447zm9.764193 10.885028-2.802087 1.638142h1.185498l1.853688-1.077725c-.07251-.181914-.160538-.37444-.237099-.560417zm12.975815.948398-8.341596 5.367073.2371.538863 8.104496-5.216192 3.707376 8.729577c.03739-.193322.07554-.377149.06466-.560417zm-27.654437 2.090788-9.009785.495753 1.142389.625081 7.867396-.43109 4.483338 6.983661.66819.344872zm-6.380135 2.608095-.711299 1.508816c-.85061 1.818535-1.168069 3.382071-1.09928 4.82821.04923-1.253865.381923-2.604813 1.09928-4.138466l.969953-2.047678zm24.076388 6.983662-4.440229 8.470922.172436.344872 4.267793-8.12605zm13.579342.797516c-1.060822 1.359186-2.532324 2.074758-4.20313 2.263224l-9.354657.02155v.689749l9.354657-.02155c1.380501-.15572 2.632012-.675453 3.621158-1.616588.19603-.445947.368925-.872599.581972-1.33638zm-20.584558 1.961461-9.677975.323318-1.508815 3.125403c-.259265.539038-.341169 1.283006-.301764 2.090788.03039-.534032.119372-1.021833.301764-1.401043l1.508815-3.125404 9.677975-.323318zm-12.738715 5.970599c-.04016.600522.0077 1.199549.129327 1.789025.118809.162344.225003.30772.344872.474199-.306065-.738477-.448936-1.493408-.474199-2.263224z" opacity=".3"/><g fill-rule="evenodd"><path d="m48.835337 9.87792c5.757464-.03438 2.433361 30.193985 2.433361 30.193985s35.065058-6.794184 35.065058 5.440095c0-2.980175-.009-6.337116-.009-6.337116l-29.33919-29.293057z" opacity=".2" stroke-width="1.993055"/><path d="m50.317394 9.897096c5.805406-.0075 2.322169 28.180811 2.322169 28.180811s33.868216-5.549338 33.868216 6.222093c0-2.867429-.0087-3.897369-.0087-3.897369l-30.561253-30.525166z" opacity=".2" stroke-width="1.921337"/><path d="m51.673739 9.812888c6.166533 0 2.221153 26.627352 2.221153 26.627352s32.612519-4.795671 32.612519 6.55976c0-2.766094-.0084-3.681888-.0084-3.681888l-29.558958-29.52416z" fill="url(#l)" stroke-width="1.853437"/></g><path d="m9.500007 68h77v1h-77z" opacity=".3"/><path d="m9.500007 67h77v1h-77z" fill="#fff" opacity=".4"/><g fill="#fff" transform="matrix(.91448981 0 0 .91448981 3.841098 -.211087)"><path d="m36.265308 83.196648q.666504 0 1.010743-.292969.344238-.292969.344238-.864258 0-.563965-.344238-.856934-.344239-.300292-1.010743-.300292h-1.560058v2.314453zm.09522 4.782714q.84961 0 1.274414-.358886.432129-.358887.432129-1.083985 0-.710449-.424804-1.062011-.424805-.358887-1.281739-.358887h-1.655273v2.863769zm2.622071-3.933105q.908203.263672 1.40625.974121.498046.710449.498046 1.743164 0 1.582031-1.069336 2.358399-1.069335.776367-3.251953.776367h-4.680175v-10.935059h4.233398q2.277832 0 3.295898.688477 1.025391.688476 1.025391 2.20459 0 .798339-.373535 1.362304-.373535.556641-1.083984.827637z"/><path d="m49.946949 87.90612h-4.40918l-.6958 1.992188h-2.834473l4.050293-10.935059h3.361816l4.050293 10.935059h-2.834472zm-3.706055-2.028808h2.995606l-1.494141-4.350586z"/><path d="m54.912769 78.963249h2.819825v3.991699l4.064941-3.991699h3.273926l-5.266114 5.178223 5.808106 5.756836h-3.530274l-4.350585-4.306641v4.306641h-2.819825z"/></g></svg>