<svg height="96" width="96" xmlns="http://www.w3.org/2000/svg" xmlns:xlink="http://www.w3.org/1999/xlink"><linearGradient id="a"><stop offset="0" stop-color="#fff"/><stop offset="1" stop-color="#fff" stop-opacity="0"/></linearGradient><linearGradient id="b" gradientTransform="matrix(1.0058652 0 0 .994169 100 0)" gradientUnits="userSpaceOnUse" x1="45.447727" x2="45.447727" y1="92.539597" y2="7.01654"><stop offset="0"/><stop offset="1" stop-opacity=".588235"/></linearGradient><linearGradient id="c" gradientTransform="matrix(.88095236 0 0 .88095242 102.24686 -91.378936)" gradientUnits="userSpaceOnUse" x1="32.251034" x2="32.251034" xlink:href="#b" y1="6.131708" y2="90.238609"/><linearGradient id="d" gradientTransform="matrix(.85714286 0 0 .85714286 103.38971 -90.236078)" gradientUnits="userSpaceOnUse" x1="32.251034" x2="32.251034" xlink:href="#b" y1="6.131708" y2="90.238609"/><linearGradient id="e" gradientTransform="matrix(0 -1.038889 .91666666 0 4.000007 93.23334)" gradientUnits="userSpaceOnUse" x1="7.3709" x2="23.76619" y1="51.470146" y2="51.433136"><stop offset="0" stop-color="#676f7d"/><stop offset="1" stop-color="#818791"/></linearGradient><linearGradient id="f" gradientTransform="matrix(.88966473 0 0 -.88897608 101.82866 91.764071)" gradientUnits="userSpaceOnUse" x1="32.251034" x2="32.251034" xlink:href="#b" y1="6.131708" y2="90.238609"/><linearGradient id="g" gradientTransform="matrix(.88668581 0 0 -.88621557 101.97166 91.631566)" gradientUnits="userSpaceOnUse" x1="32.251034" x2="32.251034" xlink:href="#b" y1="6.131708" y2="90.238609"/><linearGradient id="h" gradientTransform="matrix(.88419911 0 0 -.88396282 102.09102 91.52343)" gradientUnits="userSpaceOnUse" x1="32.251034" x2="32.251034" xlink:href="#b" y1="6.131708" y2="90.238609"/><linearGradient id="i" gradientUnits="userSpaceOnUse" x1="78.04289384" x2="78.04289384" y1="-43.8124403" y2="-113.82267585329"><stop offset="0" stop-color="#d0d0d0"/><stop offset="1" stop-color="#e0e0e0"/></linearGradient><radialGradient id="j" cx="48" cy="90.171875" gradientTransform="matrix(1.0608702 0 0 .91666666 -2.921761 4.342447)" gradientUnits="userSpaceOnUse" r="42" xlink:href="#a"/><linearGradient id="k" gradientTransform="matrix(.83333387 0 0 .83675756 38.042891 -118.83298)" gradientUnits="userSpaceOnUse" x1="36.357143" x2="36.357143" xlink:href="#a" y1="6" y2="63.893143"/><linearGradient id="l" gradientTransform="matrix(2.5120358 0 0 2.5572499 -16.740539 4.83188)" gradientUnits="userSpaceOnUse" x1="32.891998" x2="36.358002" y1="8.059" y2="5.4565"><stop offset="0" stop-color="#e0e0e0"/><stop offset="1" stop-color="#a0a0a0"/></linearGradient><linearGradient id="m" gradientTransform="matrix(1.1622027 0 0 1 -9.595095 0)" gradientUnits="userSpaceOnUse" x1="61.40464" x2="34.5369" y1="60.062107" y2="44.550011"><stop offset="0" stop-color="#01caef" stop-opacity=".5"/><stop offset="1" stop-color="#00e3f7" stop-opacity=".3"/></linearGradient><linearGradient id="n" gradientTransform="matrix(1.1622027 0 0 1 -9.595095 0)" gradientUnits="userSpaceOnUse" x1="48.810036" x2="48.810036" y1="78.173363" y2="18.129204"><stop offset="0" stop-color="#004389"/><stop offset="1" stop-color="#0068b5"/></linearGradient><g transform="matrix(1.1 0 0 1.1 -110.98583 -5.502542)"><path d="m114.1583 89.09322c-4.78901 0-8.71691-3.971039-8.71691-8.812629v-62.374743c0-4.841588 3.9279-8.812628 8.71691-8.812628h38.74855l30.7169 30.812628v40.374743c0 4.84159-3.9279 8.812629-8.7169 8.812629z" fill="url(#f)" opacity=".08"/><path d="m114.2634 88.09322c-4.30575 0-7.82165-3.55537-7.82165-7.909474v-62.181052c0-4.354104 3.5159-7.909474 7.82165-7.909474h38.36008l30 30v40.090526c0 4.354104-3.51589 7.909474-7.82165 7.909474z" fill="url(#g)" opacity=".1"/><path d="m114.35075 87.09322c-3.80788 0-6.90909-3.13685-6.90909-6.98851v-62.02298c0-3.851661 3.10121-6.98851 6.90909-6.98851h38.27273l29 29v40.01149c0 3.85166-3.1012 6.98851-6.90909 6.98851z" fill="url(#h)" opacity=".2"/><path d="m114.46511-86.093224h60.13512c3.33689 0 6.02326 2.717977 6.02326 6.094118v38.905886l-29.00001 28.999996h-37.15837c-3.33688 0-6.02325-2.717976-6.02325-6.094117v-61.811765c0-3.376141 2.68637-6.094118 6.02325-6.094118z" fill="url(#c)" opacity=".3" transform="scale(1 -1)"/><path d="m114.58491-85.093224h59.89572c2.84914 0 5.07622 2.294494 5.14286 5.142858v38.857146l-28.00001 27.999996h-37.03857c-2.84914 0-5.14285-2.293714-5.14285-5.142857v-61.714285c0-2.849143 2.29371-5.142858 5.14285-5.142858z" fill="url(#d)" opacity=".3" transform="scale(1 -1)"/></g><g transform="matrix(1.1 0 0 1.1 -37.847176 133.19368)"><path d="m48.042892-113.81244h37.999998l27 27v38.000001c0 2.77-2.23 5-5 5h-59.999998c-2.77 0-5-2.23-5-5v-60.000001c0-2.77 2.23-5 5-5z" fill="url(#i)"/><path d="m48.042897-113.81244c-2.770002 0-5.000003 2.23916-5.000003 5.02055v1.67351 54.899511c3.856259 8.137855.998427 5.789227.833337.836756v-54.899507-1.67352c0-2.32773 1.848461-4.18379 4.166669-4.18379h1.666668 34.666692 1.66667l26.16667 26.18379v1.67352 32.899507c-2.34559 6.154455.83329 6.970762.83329-.836758v-32.899509-1.67352l-27-27.02054z" fill="url(#k)" opacity=".3"/></g><path d="m9.500007 80.766667c0 3.453266 2.453 6.233333 5.5 6.233333h66c3.047 0 5.5-2.780067 5.5-6.233333v-12.766667h-77z" fill="url(#e)"/><path d="m15.000007 87c-3.047 0-5.5-2.463079-5.5-5.522599v-1.999431c.03752-11.191654.916669-11.430318.916669-.920486v1.840867c0 2.560505 2.033306 4.602562 4.583334 4.601891l1.833334-.000484h62.333322 1.833337c2.550031 0 4.583337-2.040903 4.583337-4.601407v-1.840868c.08998-12.477113.916685-8.207579.916685.920435v1.999429c-.000022 3.059574-2.453022 5.522653-5.500022 5.522653z" fill="url(#j)" opacity=".2"/><g fill-rule="evenodd"><path d="m47.685912 9.834481c5.274067-.03438 1.929709 31.844348 1.929709 31.844348s36.911259-7.358947 36.911259 5.214171c0-3.062713-.0092-6.512627-.0092-6.512627l-30.39488-30.541876z" opacity=".2" stroke-width="2.048254"/><path d="m48.835337 9.87792c5.757464-.03438 2.433361 30.193985 2.433361 30.193985s35.065058-6.794184 35.065058 5.440095c0-2.980175-.009-6.337116-.009-6.337116l-29.33919-29.293057z" opacity=".2" stroke-width="1.993055"/><path d="m50.317394 9.897096c5.805406-.0075 2.322169 28.180811 2.322169 28.180811s33.868216-5.549338 33.868216 6.222093c0-2.867429-.0087-3.897369-.0087-3.897369l-30.561253-30.525166z" opacity=".2" stroke-width="1.921337"/><path d="m51.673739 9.812888c6.166533 0 2.221153 26.627352 2.221153 26.627352s32.612519-4.795671 32.612519 6.55976c0-2.766094-.0084-3.681888-.0084-3.681888l-29.558958-29.52416z" fill="url(#l)" stroke-width="1.853437"/></g><path d="m9.500007 68h77v1h-77z" opacity=".3"/><path d="m9.500007 67h77v1h-77z" fill="#fff" opacity=".3"/><g transform="matrix(.70841592 0 0 .70841592 .75419 6.326726)"><path d="m60.320226 23.542521c-27.707248-16.3352256-38.512825 12.868305-18.600231 19.039932 33.711521 10.448409 18.677121 38.45927-5.228517 34.603243" fill="url(#m)" stroke="url(#n)" stroke-width="1.617083"/><path d="m20.790639 33.128282-2.092851 4.664467 5.421054 1.800762.837142-1.865786 43.368452 14.406101-.83714 1.865787 5.42105 1.800763 2.09285-4.664468-5.42105-1.800762-.83714 1.865787-43.368452-14.406101.837142-1.865788zm.665639 1.293045 3.252635 1.080459-1.25571 2.79868-3.252633-1.080458zm48.789508 16.206865 3.25263 1.080457-1.25571 2.798681-3.25263-1.080458z" fill="#505050"/><path d="m57.812668 20h5.811014v5h-5.811014z" fill="#0067b3"/><path d="m42.704025 42h5.811014v5h-5.811014z" fill="#005ba6"/><path d="m32.244202 75h5.811014v5h-5.811014z" fill="#004587"/></g><g fill="#fff" transform="translate(55.912209 18.353572)"><path d="m-16.912209 55.378199q-1.145833 0-1.777343.846355-.631511.846354-.631511 2.382812 0 1.529948.631511 2.376302.63151.846354 1.777343.846354 1.152344 0 1.783854-.846354.631511-.846354.631511-2.376302 0-1.536458-.631511-2.382812-.63151-.846355-1.783854-.846355zm0-1.816406q2.34375 0 3.671875 1.341146 1.328125 1.341146 1.328125 3.704427 0 2.356771-1.328125 3.697917-1.328125 1.341145-3.671875 1.341145-2.337239 0-3.671875-1.341145-1.328125-1.341146-1.328125-3.697917 0-2.363281 1.328125-3.704427 1.334636-1.341146 3.671875-1.341146z"/><path d="m-7.5176774 55.632106v5.930989h.8984375q1.5364583 0 2.3437499-.761719.8138021-.761718.8138021-2.213541 0-1.445313-.8072917-2.200521-.8072916-.755208-2.3502603-.755208zm-2.5065106-1.894532h2.6432294q2.2135416 0 3.2942707.319011 1.0872396.3125 1.8619791 1.067708.6835938.657552 1.015625 1.516927.33203125.859375.33203125 1.946615 0 1.10026-.33203125 1.966146-.3320312.859375-1.015625 1.516927-.78125.755208-1.8749999 1.074218-1.09375.3125-3.2812499.3125h-2.6432294z"/><path d="m9.7804983 62.73497q-.9375.455729-1.9466146.683594-1.0091145.227864-2.0833333.227864-2.4283853 0-3.8476561-1.354166-1.41927081-1.360677-1.41927081-3.684896 0-2.35026 1.44531251-3.697917 1.4453124-1.347656 3.9583332-1.347656.9700521 0 1.8554687.182292.8919271.182292 1.6796875.540364v2.011719q-.8138021-.462239-1.6210938-.690104-.8007812-.227865-1.6080728-.227865-1.4973958 0-2.3111979.839844-.8072916.833333-.8072916 2.389323 0 1.542969.7812499 2.382812.78125.839844 2.2200521.839844.390625 0 .7226562-.04557.3385417-.05208.6054687-.15625v-1.88802h-1.5299478v-1.679688h3.9062499z"/></g></svg>