<svg height="96" width="96" xmlns="http://www.w3.org/2000/svg" xmlns:xlink="http://www.w3.org/1999/xlink"><linearGradient id="a"><stop offset="0" stop-color="#f0f0f0"/><stop offset="1" stop-color="#aaa"/></linearGradient><linearGradient id="b"><stop offset="0" stop-color="#fff"/><stop offset="1" stop-color="#fff" stop-opacity="0"/></linearGradient><linearGradient id="c" gradientUnits="userSpaceOnUse" x1="36.357143" x2="36.357143" xlink:href="#b" y1="6" y2="63.893143"/><radialGradient id="d" cx="48" cy="90.171875" gradientTransform="matrix(1.1573129 0 0 .99590774 -7.551021 .197132)" gradientUnits="userSpaceOnUse" r="42" xlink:href="#b"/><linearGradient id="e" gradientTransform="matrix(1.0058652 0 0 .994169 100 0)" gradientUnits="userSpaceOnUse" x1="45.447727" x2="45.447727" y1="92.539597" y2="7.01654"><stop offset="0"/><stop offset="1" stop-opacity=".588235"/></linearGradient><linearGradient id="f" gradientTransform="matrix(1.0238095 0 0 -1.0119048 -1.142857 98.071429)" gradientUnits="userSpaceOnUse" x1="32.251034" x2="32.251034" xlink:href="#e" y1="6.131708" y2="90.238609"/><linearGradient id="g" gradientTransform="matrix(1 0 0 -1 0 97)" gradientUnits="userSpaceOnUse" x1="32.251034" x2="32.251034" xlink:href="#e" y1="6.131708" y2="90.238609"/><linearGradient id="h" gradientUnits="userSpaceOnUse" x1="0" x2="16" xlink:href="#a" y1="112" y2="112"/><linearGradient id="i" gradientUnits="userSpaceOnUse" x1="-40" x2="-24" y1="112" y2="112"><stop offset="0" stop-color="#c80000"/><stop offset="1" stop-color="#f3604d"/></linearGradient><linearGradient id="j" gradientTransform="matrix(2.7741687 0 0 3.2616291 -87.180169 13.992926)" gradientUnits="userSpaceOnUse" x1="11.998966" x2="11.998966" xlink:href="#a" y1="1.841711" y2="20.237488"/><linearGradient id="k" gradientTransform="matrix(2.7741687 0 0 3.2616291 2.819831 13.992926)" gradientUnits="userSpaceOnUse" x1="11.998966" x2="11.998966" xlink:href="#a" y1="1.841711" y2="20.237488"/><g fill="url(#f)"><path d="m12 3.96875c-5.5110902 0-10.03125 4.5201598-10.03125 10.03125v71c0 5.51109 4.5201597 10.03125 10.03125 10.03125h72c5.51109 0 10.03125-4.52016 10.03125-10.03125v-71c0-5.5110903-4.52016-10.03125-10.03125-10.03125zm0 2.03125h72c3.324 0 6 2.676 6 6v72c0 3.324-2.676 6-6 6h-72c-3.324 0-6-2.676-6-6v-72c0-3.324 2.676-6 6-6z" opacity=".08"/><path d="m12 4.96875c-4.9716329 0-9.03125 4.0596171-9.03125 9.03125v71c0 4.971633 4.059617 9.03125 9.03125 9.03125h72c4.971633 0 9.03125-4.059617 9.03125-9.03125v-71c0-4.971633-4.059617-9.03125-9.03125-9.03125zm0 1.03125h72c3.324 0 6 2.676 6 6v72c0 3.324-2.676 6-6 6h-72c-3.324 0-6-2.676-6-6v-72c0-3.324 2.676-6 6-6z" opacity=".1"/><path d="m11.1875 6.03125c-4.027518.4106511-7.1875 3.8351875-7.1875 7.96875v71c0 4.409133 3.590867 8 8 8h72c4.409133 0 8-3.590867 8-8v-71c0-4.1970618-3.258972-7.6460416-7.375-7.96875 3.032886.306167 5.375 2.8525 5.375 5.96875v72c0 3.324-2.676 6-6 6h-72c-3.324 0-6-2.676-6-6v-72c0-3.11625 2.342114-5.662583 5.375-5.96875-.06227.00488-.12563-.00631-.1875 0z" opacity=".2"/><path d="m6.4375 9.75c-.8994891 1.177446-1.4375 2.647277-1.4375 4.25v71c0 3.878 3.122 7 7 7h72c3.878 0 7-3.122 7-7v-71c0-1.602723-.538011-3.072554-1.4375-4.25.279316.694095.4375 1.453625.4375 2.25v72c0 3.324-2.676 6-6 6h-72c-3.324 0-6-2.676-6-6v-72c0-.796375.1581836-1.555905.4375-2.25z" opacity=".3"/></g><path d="m6 84v1c0 3.324 2.676 6 6 6h72c3.324 0 6-2.676 6-6v-1c0 3.324-2.676 6-6 6h-72c-3.324 0-6-2.676-6-6z" fill="url(#g)" opacity=".45"/><g><rect height="84" opacity=".6" rx="6" width="84" x="6" y="6"/><path d="m12 6c-3.324 0-6 2.676-6 6v2 68 2c0 .334721.04135.6507.09375.96875.0487.295596.09704.596915.1875.875.00988.03038.020892.0636.03125.09375.098865.287771.2348802.547452.375.8125.1445918.273507.3156161.535615.5.78125s.3737765.473472.59375.6875c.439947.428056.94291.814526 1.5 1.09375.278545.139612.5734731.246947.875.34375-.2562018-.100222-.4867109-.236272-.71875-.375-.00741-.0044-.023866.0045-.03125 0-.031933-.0193-.062293-.04251-.09375-.0625-.120395-.0767-.2310226-.163513-.34375-.25-.1061728-.0808-.2132809-.161112-.3125-.25-.1779299-.161433-.3474596-.345388-.5-.53125-.1075789-.130255-.2183939-.265285-.3125-.40625-.025089-.03838-.038446-.08587-.0625-.125-.064763-.103032-.1302275-.204517-.1875-.3125-.1010083-.194706-.2056748-.415701-.28125-.625-.00796-.02181-.023589-.04055-.03125-.0625-.0318251-.09195-.0358045-.186831-.0625-.28125-.0303323-.106618-.0703894-.203031-.09375-.3125-.0728786-.341512-.125-.698205-.125-1.0625v-2-68-2c0-2.781848 2.2181517-5 5-5h2 68 2c2.781848 0 5 2.218152 5 5v2 68 2c0 .364295-.05212.720988-.125 1.0625-.04415.206893-.08838.397658-.15625.59375-.0077.02195-.0233.04069-.03125.0625-.06274.173739-.138383.367449-.21875.53125-.04158.0828-.07904.169954-.125.25-.0546.09721-.126774.18835-.1875.28125-.09411.140965-.204921.275995-.3125.40625-.143174.17445-.303141.346998-.46875.5-.01117.0102-.01998.02115-.03125.03125-.138386.125556-.285091.234436-.4375.34375-.102571.07315-.204318.153364-.3125.21875-.0074.0045-.02384-.0044-.03125 0-.232039.138728-.462548.274778-.71875.375.301527-.0968.596455-.204138.875-.34375.55709-.279224 1.060053-.665694 1.5-1.09375.219973-.214028.409366-.441865.59375-.6875s.355408-.507743.5-.78125c.14012-.265048.276135-.524729.375-.8125.01041-.03078.02133-.06274.03125-.09375.09046-.278085.1388-.579404.1875-.875.0524-.31805.09375-.634029.09375-.96875v-2-68-2c0-3.324-2.676-6-6-6z" fill="url(#c)" opacity=".01"/><path d="m12 90c-3.324 0-6-2.676-6-6v-2-68-2c0-.334721.04135-.6507.09375-.96875.0487-.295596.09704-.596915.1875-.875.00988-.03038.020892-.0636.03125-.09375.098865-.287771.2348802-.547452.375-.8125.1445918-.273507.3156161-.535615.5-.78125s.3737765-.473472.59375-.6875c.439947-.428056.94291-.814526 1.5-1.09375.278545-.139612.5734731-.246947.875-.34375-.2562018.100222-.4867109.236272-.71875.375-.00741.0044-.023866-.0045-.03125 0-.031933.0193-.062293.04251-.09375.0625-.120395.0767-.2310226.163513-.34375.25-.1061728.0808-.2132809.161112-.3125.25-.1779299.161433-.3474596.345388-.5.53125-.1075789.130255-.2183939.265285-.3125.40625-.025089.03838-.038446.08587-.0625.125-.064763.103032-.1302275.204517-.1875.3125-.1010083.194706-.2056748.415701-.28125.625-.00796.02181-.023589.04055-.03125.0625-.0318251.09195-.0358045.186831-.0625.28125-.0303323.106618-.0703894.203031-.09375.3125-.0728786.341512-.125.698205-.125 1.0625v2 68 2c0 2.781848 2.2181517 5 5 5h2 68 2c2.781848 0 5-2.218152 5-5v-2-68-2c0-.364295-.05212-.720988-.125-1.0625-.04415-.206893-.08838-.397658-.15625-.59375-.0077-.02195-.0233-.04069-.03125-.0625-.06274-.173739-.138383-.367449-.21875-.53125-.04158-.0828-.07904-.169954-.125-.25-.0546-.09721-.126774-.18835-.1875-.28125-.09411-.140965-.204921-.275995-.3125-.40625-.143174-.17445-.303141-.346998-.46875-.5-.01117-.0102-.01998-.02115-.03125-.03125-.138386-.125556-.285091-.234436-.4375-.34375-.102571-.07315-.204318-.153364-.3125-.21875-.0074-.0045-.02384.0044-.03125 0-.232039-.138728-.462548-.274778-.71875-.375.301527.0968.596455.204138.875.34375.55709.279224 1.060053.665694 1.5 1.09375.219973.214028.409366.441865.59375.6875s.355408.507743.5.78125c.14012.265048.276135.524729.375.8125.01041.03078.02133.06274.03125.09375.09046.278085.1388.579404.1875.875.0524.31805.09375.634029.09375.96875v2 68 2c0 3.324-2.676 6-6 6z" fill="url(#d)" opacity=".15"/></g><g><path d="m42 18.9375c-4.126565-.09845-7.81557 3.4967-7.96875 7.59375-2.357614-.891842-4.948764-.351551-7.422115-.5-2.481105-.247052-5.334238.534552-6.303045 3.097958-.469139 1.520159-.605207 3.297103-.18109 4.839542.524706 1.455784-2.75807 3.034999-2.206342 5.234499-.0067 6.018961-.04881 12.041032.02165 18.058881.28042 3.776655 4.079939 6.365825 7.700861 5.89412h8.327584c-.0372 4.575176 4.350502 8.405983 8.86869 7.90625h4.44381c-1.412269.196305-.846732 2.391874-2.348678 1.875-2.17371.04324-4.360693-.08577-6.526322.0625-1.85712.564422-1.446052 2.695137-1.46875 4.1875.09839 1.652547 1.903524 2.08221 3.266166 1.875h5.733834c-.01883 1.616733 1.736805 2.242765 3.098678 2 3.850812-.04306 7.714816.08529 11.557572-.0625 1.501343-.145475.953922-2.442088 2.473678-1.9375 2.17371-.04324 4.360693.08577 6.526322-.0625 1.85712-.564422 1.446052-2.695137 1.46875-4.1875-.09839-1.652547-1.903524-2.08221-3.266166-1.875-1.911278 0-3.822556 0-5.733834 0 .418733-1.217469-2.454578-2.166157-.338822-1.875 3.199026-.06667 6.805799.508133 9.398386-1.846088 2.536961-1.930103 3.159325-5.223589 2.940436-8.226268-.02748-11.603546.05522-23.210599-.0418-34.811934-.339699-4.403551-4.697104-7.744817-9.025632-7.24071-7.665024 0-15.330048 0-22.995072 0zm9.0625 10.125c4.108414.04275 8.230743-.08561 12.33044.06433.998806.826206.365208 2.384532.54456 3.552975v27.320192c-.305249 1.554152-2.304507.728593-3.44982.9375-1.402143 0-2.804287 0-4.20643 0 2.492473-2.620455 1.574267-6.324188 1.75-9.567127-.06882-4.317253.143175-8.65264-.116416-12.957669.28271-2.014987-2.950988-3.148656-2.289834-4.600201.715194-1.969243-1.367613-3.887383-3.077383-4.492273-.478119-.160748-.980849-.24745-1.485117-.257727z" opacity=".1"/><path d="m42 20.0625c-3.820152 0-6.9375 3.117348-6.9375 6.9375a.92453634.92453634 0 0 0 .9375.9375h27c1.165848 0 2.0625.896652 2.0625 2.0625v30c0 1.165848-.896652 2.0625-2.0625 2.0625h-27a.92453634.92453634 0 0 0 -.9375.9375c0 3.820152 3.117348 6.9375 6.9375 6.9375h8.0625v2.125h-2.0625a.92453634.92453634 0 0 0 -.9375.9375v1.0625h-8.0625a.92453634.92453634 0 0 0 -.9375.9375v2a.92453634.92453634 0 0 0 .9375.9375h8.0625v1.0625a.92453634.92453634 0 0 0 .9375.9375h12a.92453634.92453634 0 0 0 .9375-.9375v-1.0625h8.0625a.92453634.92453634 0 0 0 .9375-.9375v-2a.92453634.92453634 0 0 0 -.9375-.9375h-8.0625v-1.0625a.92453634.92453634 0 0 0 -.9375-.9375h-2.0625v-2.125h8.0625c3.820152 0 6.9375-3.117348 6.9375-6.9375v-36c0-3.820152-3.117348-6.9375-6.9375-6.9375zm-17.03125 7.09375c-2.158152 0-3.9375 1.779348-3.9375 3.9375v1.90625a.92453634.92453634 0 0 0 .9375.9375h31.78125a.92453634.92453634 0 0 0 .84375-1.28125c-.574432-1.445904-1.969099-2.5-3.625-2.5h-15.25c-.43041-1.699325-1.921914-3-3.75-3zm-.5 7c-2.989152 0-5.4375 2.448348-5.4375 5.4375v17c0 2.989152 2.448348 5.4375 5.4375 5.4375h4.5 22.53125c3.051919 0 5.341667-2.607261 5.40625-5.40625a.92453634.92453634 0 0 0 0-.03125v-17c0-2.989152-2.448348-5.4375-5.4375-5.4375h-3-15z" opacity=".15"/><path d="m42 21c-3.324 0-6 2.676-6 6h27c1.662 0 3 1.338 3 3v30c0 1.662-1.338 3-3 3h-27c0 3.324 2.676 6 6 6h9v4h-3v2h-9v2h9v2h12v-2h9v-2h-9v-2h-3v-4h9c3.324 0 6-2.676 6-6v-36c0-3.324-2.676-6-6-6zm-17.03125 7.09375c-1.662 0-3 1.338-3 3v1.90625h31.78125c-.440564-1.108944-1.512703-1.90625-2.78125-1.90625h-16c0-1.662-1.338-3-3-3zm-.5 7c-2.493 0-4.5 2.007-4.5 4.5v17c0 2.493 2.007 4.5 4.5 4.5h4.5 22.53125c2.513527 0 4.415584-2.195801 4.46875-4.5v-17c0-2.493-2.007-4.5-4.5-4.5h-3-15z" opacity=".3"/><path d="m-48 18.875c-4.12325-.09762-7.798633 3.478383-8 7.5625-2.417347-.846545-5.048056-.323209-7.57-.46875-3.25749-.348265-6.04486 2.782698-5.58625 5.964205.08329 1.352239-.18536 2.781499.28125 4.067045-2.54163 1.386829-3.563333 4.35246-3.28125 7.104318.02236 4.720903-.0451 9.444681.03441 14.16376.282593 3.814104 4.115881 6.414024 7.765479 5.950672h8.262614c.0012 4.584811 4.404094 8.402626 8.932955 7.90625h4.160795c-1.16916.57502-.822771 2.340107-2.467727 1.75-2.10948.09055-4.26988-.189528-6.344773.15625-1.76963.721199-1.268361 2.870626-1.28125 4.375.288735 1.727853 2.208052 1.851663 3.604318 1.71875 1.767088.04189 3.701586-.08363 5.364432.0625.104089 1.666206 1.91108 2.155272 3.299886 1.9375 3.743035-.02102 7.492036.04192 11.231364-.03125 1.600319.08188 1.16847-2.34962 2.557955-1.96875 2.277144-.09209 4.605809.191693 6.848295-.15625 1.76963-.721199 1.268361-2.870626 1.28125-4.375-.288735-1.727853-2.208052-1.851663-3.604318-1.71875-1.767088-.04189-3.701586.08363-5.364432-.0625-.314153-1.422364-1.789539-1.942663.385568-1.6875 3.091269.02976 6.57158.284909 8.945266-2.117109 2.411411-2.007875 2.852441-5.245111 2.669166-8.189823-.02781-11.548161.05581-23.099872-.04215-34.645799-.343876-4.433906-4.729709-7.802865-9.089896-7.297269-7.664319 0-15.328637 0-22.992955 0zm8.78125 10.25c4.194862.03867 8.401964-.07771 12.589099.05884.944091.827729.326856 2.353263.504651 3.501613v27.314545c-.320935 1.485985-2.276092.659512-3.392614.875-1.358712 0-2.717424 0-4.076136 0 2.420663-2.632871 1.510004-6.294374 1.6875-9.515568-.07537-3.685859.160406-7.39325-.136524-11.063962.20888-2.471312-3.510147-3.248037-2.832226-5.295468.205309-2.655465-1.549493-5.465063-4.34375-5.875z" opacity=".1"/><path d="m42 20.03125c-3.837355 0-6.96875 3.131395-6.96875 6.96875a.95659326.95659326 0 0 0 .96875.96875h27c1.148645 0 2.03125.882605 2.03125 2.03125v30c0 1.148645-.882605 2.03125-2.03125 2.03125h-11.34375c2.985841-.09329 5.217461-2.641648 5.28125-5.40625a.95659326.95659326 0 0 0 0-.03125v-15c0-3.006355-2.462395-5.46875-5.46875-5.46875h-3-15-9c-3.006355 0-5.46875 2.462395-5.46875 5.46875v15c0 3.006355 2.462395 5.46875 5.46875 5.46875h4.5 6.84375a.95659326.95659326 0 0 0 -.78125.9375c0 3.837355 3.131395 6.96875 6.96875 6.96875h8.03125v2.0625h-2.03125a.95659326.95659326 0 0 0 -.96875.96875v1.03125h-8.03125a.95659326.95659326 0 0 0 -.96875.96875v2a.95659326.95659326 0 0 0 .96875.96875h8.03125v1.03125a.95659326.95659326 0 0 0 .96875.96875h12a.95659326.95659326 0 0 0 .96875-.96875v-1.03125h8.03125a.95659326.95659326 0 0 0 .96875-.96875v-2a.95659326.95659326 0 0 0 -.96875-.96875h-8.03125v-1.03125a.95659326.95659326 0 0 0 -.96875-.96875h-2.03125v-2.0625h8.03125c3.837355 0 6.96875-3.131395 6.96875-6.96875v-36c0-3.837355-3.131395-6.96875-6.96875-6.96875zm-16.03125 7.09375c-2.175355 0-3.96875 1.793395-3.96875 3.96875v3a.95659326.95659326 0 0 0 .03125.09375.95659326.95659326 0 0 0 0 .09375v.71875a.95659326.95659326 0 0 0 .96875.96875h30a.95659326.95659326 0 0 0 .96875-.96875v-1a.95659326.95659326 0 0 0 -.03125-.03125c-.00066-.02099.000989-.0416 0-.0625a.95659326.95659326 0 0 0 -.0625-.28125.95659326.95659326 0 0 0 -.03125-.09375c-.283024-1.904952-1.895967-3.40625-3.875-3.40625h-14.21875c-.444416-1.698105-1.949246-3-3.78125-3z" opacity=".15" transform="translate(-90)"/><path d="m-48 21c-3.324 0-6 2.676-6 6h27c1.662 0 3 1.338 3 3v30c0 1.662-1.338 3-3 3h-27c0 3.324 2.676 6 6 6h9v4h-3v2h-9v2h9v2h12v-2h9v-2h-9v-2h-3v-4h9c3.324 0 6-2.676 6-6v-36c0-3.324-2.676-6-6-6zm-16.03125 7.09375c-1.662 0-3 1.338-3 3v3h.03125v.90625h30v-1h-.03125c-.05084-1.616776-1.370443-2.90625-3-2.90625h-15c0-1.662-1.338-3-3-3zm-1.5 9c-2.493 0-4.5 2.007-4.5 4.5v15c0 2.493 2.007 4.5 4.5 4.5h4.5 22.53125c2.513527 0 4.415584-2.195801 4.46875-4.5v-15c0-2.493-2.007-4.5-4.5-4.5h-3-15z" opacity=".3"/><path d="m0 104h16v16h-16z" fill="url(#h)" transform="matrix(0 1 1 0 0 0)"/><text font-family="Liberation Sans" font-size="4" letter-spacing="0" word-spacing="0" x="104" y="48"><tspan x="104" y="48">Shadow opacity : 30, 15, 10, (8)</tspan></text><path d="m-40 104h16v16h-16z" fill="url(#i)" transform="rotate(-90)"/><text font-family="Liberation Sans" font-size="4" letter-spacing="0" word-spacing="0" x="124" y="32"><tspan x="124" y="32">Bevel opacity : 30 / 10</tspan></text><text font-family="Liberation Sans" font-size="4" letter-spacing="0" word-spacing="0" x="124" y="8"><tspan x="124" y="8">Bevel opacity : 75 / 15</tspan></text><path d="m-48 20c-3.324 0-6 2.676-6 6h27c1.662 0 3 1.338 3 3v30c0 1.662-1.338 3-3 3h-27c0 3.324 2.676 6 6 6h9v4h-3v2h-9v2h9v2h12v-2h9v-2h-9v-2h-3v-4h9c3.324 0 6-2.676 6-6v-36c0-3.324-2.676-6-6-6zm-16.03125 7.09375c-1.662 0-3 1.338-3 3v3h.03125v.90625h30v-1h-.03125c-.05084-1.616776-1.370443-2.90625-3-2.90625h-15c0-1.662-1.338-3-3-3zm-1.5 9c-2.493 0-4.5 2.007-4.5 4.5v15c0 2.493 2.007 4.5 4.5 4.5h4.5 22.53125c2.513527 0 4.415584-2.195801 4.46875-4.5v-15c0-2.493-2.007-4.5-4.5-4.5h-3-15z" fill="url(#j)"/><path d="m-48 20c-3.324 0-6 2.676-6 6h.09375c.47138-2.847169 2.921388-5 5.90625-5h24c3.324 0 6 2.676 6 6v-1c0-3.324-2.676-6-6-6zm-16.03125 7.09375c-1.662 0-3 1.338-3 3v1c0-1.662 1.338-3 3-3h6c1.662 0 3 1.338 3 3h15c1.629557 0 2.94916 1.289474 3 2.90625h.03125v-1h-.03125c-.05084-1.616776-1.370443-2.90625-3-2.90625h-15c0-1.662-1.338-3-3-3zm-1.5 9c-2.493 0-4.5 2.007-4.5 4.5v1c0-2.493 2.007-4.5 4.5-4.5h9 15 3c2.493 0 4.5 2.007 4.5 4.5v-1c0-2.493-2.007-4.5-4.5-4.5h-3-15zm41.53125 22.90625c0 1.662-1.338 3-3 3h-27c0 .339138.04019.676507.09375 1h26.90625c1.662 0 3-1.338 3-3zm-18 13v1h3v-1zm9 0v1h3v-1zm-18 2v1h9v-1zm21 0v1h9v-1z" fill="#fff" opacity=".75"/><path d="m-53.90625 25c-.053558.323493-.09375.660862-.09375 1h27c1.662 0 3 1.338 3 3v-1c0-1.662-1.338-3-3-3zm-13.125 7.09375v1h.03125v.90625h30v-1h-.03125-29.96875v-.90625zm-3 22.5v1c0 2.493 2.007 4.5 4.5 4.5h4.5 22.53125c2.513527 0 4.415584-2.195801 4.46875-4.5v-1c-.05317 2.304199-1.955223 4.5-4.46875 4.5h-22.53125-4.5c-2.493 0-4.5-2.007-4.5-4.5zm52.03125 6.40625c0 3.324-2.676 6-6 6h-9v1h9c3.324 0 6-2.676 6-6zm-36 1c0 3.324 2.676 6 6 6h9v-1h-9c-2.984862 0-5.43487-2.152831-5.90625-5zm3 13v1h9v-1zm21 0v1h9v-1zm-12 2v1h12v-1z" opacity=".15"/><path d="m42 20c-3.324 0-6 2.676-6 6h27c1.662 0 3 1.338 3 3v30c0 1.662-1.338 3-3 3h-27c0 3.324 2.676 6 6 6h9v4h-3v2h-9v2h9v2h12v-2h9v-2h-9v-2h-3v-4h9c3.324 0 6-2.676 6-6v-36c0-3.324-2.676-6-6-6zm-17.03125 7.09375c-1.662 0-3 1.338-3 3v1.90625h31.78125c-.440564-1.108944-1.512703-1.90625-2.78125-1.90625h-16c0-1.662-1.338-3-3-3zm-.5 7c-2.493 0-4.5 2.007-4.5 4.5v17c0 2.493 2.007 4.5 4.5 4.5h4.5 22.53125c2.513527 0 4.415584-2.195801 4.46875-4.5v-17c0-2.493-2.007-4.5-4.5-4.5h-3-15z" fill="url(#k)"/><path d="m42 20c-3.324 0-6 2.676-6 6h.09375c.47138-2.847169 2.921388-5 5.90625-5h24c3.324 0 6 2.676 6 6v-1c0-3.324-2.676-6-6-6zm-17.03125 7.09375c-1.662 0-3 1.338-3 3v1c0-1.662 1.338-3 3-3h7c1.662 0 3 1.338 3 3h16c.840412 0 1.583533.347585 2.125.90625h.65625c-.440564-1.108944-1.512703-1.90625-2.78125-1.90625h-16c0-1.662-1.338-3-3-3zm-.5 7c-2.493 0-4.5 2.007-4.5 4.5v1c0-2.493 2.007-4.5 4.5-4.5h9 15 3c2.493 0 4.5 2.007 4.5 4.5v-1c0-2.493-2.007-4.5-4.5-4.5h-3-15zm41.53125 24.90625c0 1.662-1.338 3-3 3h-27c0 .339138.04019.676507.09375 1h26.90625c1.662 0 3-1.338 3-3zm-18 13v1h3v-1zm9 0v1h3v-1zm-18 2v1h9v-1zm21 0v1h9v-1z" fill="#fff" opacity=".75"/><path d="m36.09375 25c-.053558.323493-.09375.660862-.09375 1h27c1.662 0 3 1.338 3 3v-1c0-1.662-1.338-3-3-3zm-14.125 6v1h31.78125c-.14869-.374269-.380408-.715397-.65625-1zm-2 23.59375v1c0 2.493 2.007 4.5 4.5 4.5h4.5 22.53125c2.513527 0 4.415584-2.195801 4.46875-4.5v-1c-.05317 2.304199-1.955223 4.5-4.46875 4.5h-22.53125-4.5c-2.493 0-4.5-2.007-4.5-4.5zm52.03125 6.40625c0 3.324-2.676 6-6 6h-9v1h9c3.324 0 6-2.676 6-6zm-36 1c0 3.324 2.676 6 6 6h9v-1h-9c-2.984862 0-5.43487-2.152831-5.90625-5zm3 13v1h9v-1zm21 0v1h9v-1zm-12 2v1h12v-1z" opacity=".15"/></g></svg>