<svg height="96" width="96" xmlns="http://www.w3.org/2000/svg" xmlns:xlink="http://www.w3.org/1999/xlink"><linearGradient id="a"><stop offset="0" stop-color="#f0f0f0"/><stop offset="1" stop-color="#aaa"/></linearGradient><linearGradient id="b"><stop offset="0" stop-color="#fff"/><stop offset="1" stop-color="#fff" stop-opacity="0"/></linearGradient><linearGradient id="c" gradientUnits="userSpaceOnUse" x1="36.357143" x2="36.357143" xlink:href="#b" y1="6" y2="63.893143"/><radialGradient id="d" cx="48" cy="90.171875" gradientTransform="matrix(1.1573129 0 0 .99590774 -7.551021 .197132)" gradientUnits="userSpaceOnUse" r="42" xlink:href="#b"/><linearGradient id="e" gradientTransform="matrix(1.0058652 0 0 .994169 100 0)" gradientUnits="userSpaceOnUse" x1="45.447727" x2="45.447727" y1="92.539597" y2="7.01654"><stop offset="0"/><stop offset="1" stop-opacity=".588235"/></linearGradient><linearGradient id="f" gradientTransform="matrix(1.0238095 0 0 -1.0119048 -1.142857 98.071429)" gradientUnits="userSpaceOnUse" x1="32.251034" x2="32.251034" xlink:href="#e" y1="6.131708" y2="90.238609"/><linearGradient id="g" gradientTransform="matrix(1 0 0 -1 0 97)" gradientUnits="userSpaceOnUse" x1="32.251034" x2="32.251034" xlink:href="#e" y1="6.131708" y2="90.238609"/><linearGradient id="h" gradientUnits="userSpaceOnUse" x1="0" x2="16" xlink:href="#a" y1="112" y2="112"/><linearGradient id="i" gradientUnits="userSpaceOnUse" x1="-40" x2="-24" y1="112" y2="112"><stop offset="0" stop-color="#c80000"/><stop offset="1" stop-color="#f3604d"/></linearGradient><linearGradient id="j" gradientTransform="matrix(2.7658632 0 0 3.2539569 10 6)" gradientUnits="userSpaceOnUse" x1="11.998966" x2="11.998966" xlink:href="#a" y1="5.531727" y2="20.282997"/><g fill="url(#f)"><path d="m12 3.96875c-5.5110902 0-10.03125 4.5201598-10.03125 10.03125v71c0 5.51109 4.5201597 10.03125 10.03125 10.03125h72c5.51109 0 10.03125-4.52016 10.03125-10.03125v-71c0-5.5110903-4.52016-10.03125-10.03125-10.03125zm0 2.03125h72c3.324 0 6 2.676 6 6v72c0 3.324-2.676 6-6 6h-72c-3.324 0-6-2.676-6-6v-72c0-3.324 2.676-6 6-6z" opacity=".08"/><path d="m12 4.96875c-4.9716329 0-9.03125 4.0596171-9.03125 9.03125v71c0 4.971633 4.059617 9.03125 9.03125 9.03125h72c4.971633 0 9.03125-4.059617 9.03125-9.03125v-71c0-4.971633-4.059617-9.03125-9.03125-9.03125zm0 1.03125h72c3.324 0 6 2.676 6 6v72c0 3.324-2.676 6-6 6h-72c-3.324 0-6-2.676-6-6v-72c0-3.324 2.676-6 6-6z" opacity=".1"/><path d="m11.1875 6.03125c-4.027518.4106511-7.1875 3.8351875-7.1875 7.96875v71c0 4.409133 3.590867 8 8 8h72c4.409133 0 8-3.590867 8-8v-71c0-4.1970618-3.258972-7.6460416-7.375-7.96875 3.032886.306167 5.375 2.8525 5.375 5.96875v72c0 3.324-2.676 6-6 6h-72c-3.324 0-6-2.676-6-6v-72c0-3.11625 2.342114-5.662583 5.375-5.96875-.06227.00488-.12563-.00631-.1875 0z" opacity=".2"/><path d="m6.4375 9.75c-.8994891 1.177446-1.4375 2.647277-1.4375 4.25v71c0 3.878 3.122 7 7 7h72c3.878 0 7-3.122 7-7v-71c0-1.602723-.538011-3.072554-1.4375-4.25.279316.694095.4375 1.453625.4375 2.25v72c0 3.324-2.676 6-6 6h-72c-3.324 0-6-2.676-6-6v-72c0-.796375.1581836-1.555905.4375-2.25z" opacity=".3"/></g><path d="m6 84v1c0 3.324 2.676 6 6 6h72c3.324 0 6-2.676 6-6v-1c0 3.324-2.676 6-6 6h-72c-3.324 0-6-2.676-6-6z" fill="url(#g)" opacity=".45"/><g><rect height="84" opacity=".6" rx="6" width="84" x="6" y="6"/><path d="m12 6c-3.324 0-6 2.676-6 6v2 68 2c0 .334721.04135.6507.09375.96875.0487.295596.09704.596915.1875.875.00988.03038.020892.0636.03125.09375.098865.287771.2348802.547452.375.8125.1445918.273507.3156161.535615.5.78125s.3737765.473472.59375.6875c.439947.428056.94291.814526 1.5 1.09375.278545.139612.5734731.246947.875.34375-.2562018-.100222-.4867109-.236272-.71875-.375-.00741-.0044-.023866.0045-.03125 0-.031933-.0193-.062293-.04251-.09375-.0625-.120395-.0767-.2310226-.163513-.34375-.25-.1061728-.0808-.2132809-.161112-.3125-.25-.1779299-.161433-.3474596-.345388-.5-.53125-.1075789-.130255-.2183939-.265285-.3125-.40625-.025089-.03838-.038446-.08587-.0625-.125-.064763-.103032-.1302275-.204517-.1875-.3125-.1010083-.194706-.2056748-.415701-.28125-.625-.00796-.02181-.023589-.04055-.03125-.0625-.0318251-.09195-.0358045-.186831-.0625-.28125-.0303323-.106618-.0703894-.203031-.09375-.3125-.0728786-.341512-.125-.698205-.125-1.0625v-2-68-2c0-2.781848 2.2181517-5 5-5h2 68 2c2.781848 0 5 2.218152 5 5v2 68 2c0 .364295-.05212.720988-.125 1.0625-.04415.206893-.08838.397658-.15625.59375-.0077.02195-.0233.04069-.03125.0625-.06274.173739-.138383.367449-.21875.53125-.04158.0828-.07904.169954-.125.25-.0546.09721-.126774.18835-.1875.28125-.09411.140965-.204921.275995-.3125.40625-.143174.17445-.303141.346998-.46875.5-.01117.0102-.01998.02115-.03125.03125-.138386.125556-.285091.234436-.4375.34375-.102571.07315-.204318.153364-.3125.21875-.0074.0045-.02384-.0044-.03125 0-.232039.138728-.462548.274778-.71875.375.301527-.0968.596455-.204138.875-.34375.55709-.279224 1.060053-.665694 1.5-1.09375.219973-.214028.409366-.441865.59375-.6875s.355408-.507743.5-.78125c.14012-.265048.276135-.524729.375-.8125.01041-.03078.02133-.06274.03125-.09375.09046-.278085.1388-.579404.1875-.875.0524-.31805.09375-.634029.09375-.96875v-2-68-2c0-3.324-2.676-6-6-6z" fill="url(#c)" opacity=".01"/><path d="m12 90c-3.324 0-6-2.676-6-6v-2-68-2c0-.334721.04135-.6507.09375-.96875.0487-.295596.09704-.596915.1875-.875.00988-.03038.020892-.0636.03125-.09375.098865-.287771.2348802-.547452.375-.8125.1445918-.273507.3156161-.535615.5-.78125s.3737765-.473472.59375-.6875c.439947-.428056.94291-.814526 1.5-1.09375.278545-.139612.5734731-.246947.875-.34375-.2562018.100222-.4867109.236272-.71875.375-.00741.0044-.023866-.0045-.03125 0-.031933.0193-.062293.04251-.09375.0625-.120395.0767-.2310226.163513-.34375.25-.1061728.0808-.2132809.161112-.3125.25-.1779299.161433-.3474596.345388-.5.53125-.1075789.130255-.2183939.265285-.3125.40625-.025089.03838-.038446.08587-.0625.125-.064763.103032-.1302275.204517-.1875.3125-.1010083.194706-.2056748.415701-.28125.625-.00796.02181-.023589.04055-.03125.0625-.0318251.09195-.0358045.186831-.0625.28125-.0303323.106618-.0703894.203031-.09375.3125-.0728786.341512-.125.698205-.125 1.0625v2 68 2c0 2.781848 2.2181517 5 5 5h2 68 2c2.781848 0 5-2.218152 5-5v-2-68-2c0-.364295-.05212-.720988-.125-1.0625-.04415-.206893-.08838-.397658-.15625-.59375-.0077-.02195-.0233-.04069-.03125-.0625-.06274-.173739-.138383-.367449-.21875-.53125-.04158-.0828-.07904-.169954-.125-.25-.0546-.09721-.126774-.18835-.1875-.28125-.09411-.140965-.204921-.275995-.3125-.40625-.143174-.17445-.303141-.346998-.46875-.5-.01117-.0102-.01998-.02115-.03125-.03125-.138386-.125556-.285091-.234436-.4375-.34375-.102571-.07315-.204318-.153364-.3125-.21875-.0074-.0045-.02384.0044-.03125 0-.232039-.138728-.462548-.274778-.71875-.375.301527.0968.596455.204138.875.34375.55709.279224 1.060053.665694 1.5 1.09375.219973.214028.409366.441865.59375.6875s.355408.507743.5.78125c.14012.265048.276135.524729.375.8125.01041.03078.02133.06274.03125.09375.09046.278085.1388.579404.1875.875.0524.31805.09375.634029.09375.96875v2 68 2c0 3.324-2.676 6-6 6z" fill="url(#d)" opacity=".15"/></g><g><path d="m55 23c-3.069415-.09587-5.414769 2.941483-5 5.882469.02084 14.861062-.04168 29.730378.03125 44.586281.360862 1.760433 2.96925 2.0856 3.770483.483605 2.399423-3.192452 4.798845-6.384903 7.198267-9.577355 2.573496 3.375866 5.059379 6.827835 7.6875 10.15625 1.302283 1.237826 3.647208-.06573 3.3125-1.825406-.0173-15.071713.03458-30.145181-.0259-45.215797-.213268-2.950405-3.206774-4.875452-6.003648-4.490047-3.656817 0-7.313635 0-10.970452 0zm-25.09375 23.96875c-1.483322.029571-2.151416 1.621103-1.90625 2.913719v5.117531c-2.196534.03872-4.405148-.07933-6.59375.0625-1.660916.471692-1.426109 2.356036-1.40625 3.702439.03991 2.274797-.08101 4.561984.0625 6.828811.471692 1.660916 2.356036 1.426109 3.702439 1.40625h4.235061c.03872 2.196534-.07933 4.405148.0625 6.59375.471692 1.660916 2.356036 1.426109 3.702439 1.40625 2.274797-.03991 4.561984.08101 6.828811-.0625 1.660916-.471692 1.426109-2.356036 1.40625-3.702439 0-1.411687 0-2.823374 0-4.235061 2.196534-.03872 4.405148.07933 6.59375-.0625 1.660916-.471692 1.426109-2.356036 1.40625-3.702439-.039907-2.274797.081007-4.561984-.0625-6.828811-.471692-1.660916-2.356036-1.426109-3.702439-1.40625-1.411687 0-2.823374 0-4.235061 0-.038721-2.196534.079329-4.405148-.0625-6.59375-.471692-1.660916-2.356036-1.426109-3.702439-1.40625-2.107622-.02139-4.229757.04243-6.328811-.03125z" opacity=".1"/><path d="m55 24c-2.201637 0-4 1.798363-4 4v3 42a1.0055678 1.0055678 0 0 0 1.8125.59375l8.1875-10.90625 8.1875 10.90625a1.0055678 1.0055678 0 0 0 1.8125-.59375v-42-3c0-2.201637-1.798363-4-4-4zm-25.1875 24a1.0055678 1.0055678 0 0 0 -.8125 1v7h-7a1.0055678 1.0055678 0 0 0 -1 1v8a1.0055678 1.0055678 0 0 0 1 1h7v7a1.0055678 1.0055678 0 0 0 1 1h8a1.0055678 1.0055678 0 0 0 1-1v-7h7a1.0055678 1.0055678 0 0 0 1-1v-8a1.0055678 1.0055678 0 0 0 -1-1h-7v-7a1.0055678 1.0055678 0 0 0 -1-1h-8a1.0055678 1.0055678 0 0 0 -.1875 0z" opacity=".15"/><path d="m55 25c-1.662 0-3 1.338-3 3v3 42l9-12 9 12v-42-3c0-1.662-1.338-3-3-3zm-25 24v8h-8v8h8v8h8v-8h8v-8h-8v-8z" opacity=".3"/><path d="m0 104h16v16h-16z" fill="url(#h)" transform="matrix(0 1 1 0 0 0)"/><text font-family="Liberation Sans" font-size="4" letter-spacing="0" word-spacing="0" x="104" y="48"><tspan x="104" y="48">Shadow opacity : 30, 15, 10, (8)</tspan></text><path d="m-40 104h16v16h-16z" fill="url(#i)" transform="rotate(-90)"/><text font-family="Liberation Sans" font-size="4" letter-spacing="0" word-spacing="0" x="124" y="32"><tspan x="124" y="32">Bevel opacity : 30 / 10</tspan></text><text font-family="Liberation Sans" font-size="4" letter-spacing="0" word-spacing="0" x="124" y="8"><tspan x="124" y="8">Bevel opacity : 75 / 15</tspan></text><path d="m55 24c-1.662 0-3 1.338-3 3v3 42l9-12 9 12v-42-3c0-1.662-1.338-3-3-3zm-25 24v8h-8v8h8v8h8v-8h8v-8h-8v-8z" fill="url(#j)"/><path d="m55 24c-1.662 0-3 1.338-3 3v1c0-1.662 1.338-3 3-3h12c1.662 0 3 1.338 3 3v-1c0-1.662-1.338-3-3-3zm-25 24v1h8v-1zm-8 8v1h8v-1zm16 0v1h8v-1z" fill="#fff" opacity=".75"/><path d="m61 59-9 12v1l9-12 9 12v-1zm-39 4v1h8v-1zm16 0v1h8v-1zm-8 8v1h8v-1z" opacity=".15"/></g></svg>