<svg height="96" width="96" xmlns="http://www.w3.org/2000/svg" xmlns:xlink="http://www.w3.org/1999/xlink"><linearGradient id="a"><stop offset="0" stop-color="#f0f0f0"/><stop offset="1" stop-color="#aaa"/></linearGradient><linearGradient id="b"><stop offset="0" stop-color="#fff"/><stop offset="1" stop-color="#fff" stop-opacity="0"/></linearGradient><linearGradient id="c" gradientUnits="userSpaceOnUse" x1="36.357143" x2="36.357143" xlink:href="#b" y1="6" y2="63.893143"/><radialGradient id="d" cx="48" cy="90.171875" gradientTransform="matrix(1.1573129 0 0 .99590774 -7.551021 .197132)" gradientUnits="userSpaceOnUse" r="42" xlink:href="#b"/><linearGradient id="e" gradientTransform="matrix(1.0058652 0 0 .994169 100 0)" gradientUnits="userSpaceOnUse" x1="45.447727" x2="45.447727" y1="92.539597" y2="7.01654"><stop offset="0"/><stop offset="1" stop-opacity=".588235"/></linearGradient><linearGradient id="f" gradientTransform="matrix(1.0238095 0 0 -1.0119048 -1.142857 98.071429)" gradientUnits="userSpaceOnUse" x1="32.251034" x2="32.251034" xlink:href="#e" y1="6.131708" y2="90.238609"/><linearGradient id="g" gradientTransform="matrix(1 0 0 -1 0 97)" gradientUnits="userSpaceOnUse" x1="32.251034" x2="32.251034" xlink:href="#e" y1="6.131708" y2="90.238609"/><linearGradient id="h" gradientUnits="userSpaceOnUse" x1="0" x2="16" xlink:href="#a" y1="112" y2="112"/><linearGradient id="i" gradientUnits="userSpaceOnUse" x1="-40" x2="-24" y1="112" y2="112"><stop offset="0" stop-color="#c80000"/><stop offset="1" stop-color="#f3604d"/></linearGradient><linearGradient id="j" gradientTransform="matrix(.11586665 -1.9518366 1.9733605 .1145396 -711.10468 1256.8145)" gradientUnits="userSpaceOnUse" x1="652.021" x2="627.67029" xlink:href="#a" y1="347.86285" y2="349.2926"/><g fill="url(#f)"><path d="m12 3.96875c-5.5110902 0-10.03125 4.5201598-10.03125 10.03125v71c0 5.51109 4.5201597 10.03125 10.03125 10.03125h72c5.51109 0 10.03125-4.52016 10.03125-10.03125v-71c0-5.5110903-4.52016-10.03125-10.03125-10.03125zm0 2.03125h72c3.324 0 6 2.676 6 6v72c0 3.324-2.676 6-6 6h-72c-3.324 0-6-2.676-6-6v-72c0-3.324 2.676-6 6-6z" opacity=".08"/><path d="m12 4.96875c-4.9716329 0-9.03125 4.0596171-9.03125 9.03125v71c0 4.971633 4.059617 9.03125 9.03125 9.03125h72c4.971633 0 9.03125-4.059617 9.03125-9.03125v-71c0-4.971633-4.059617-9.03125-9.03125-9.03125zm0 1.03125h72c3.324 0 6 2.676 6 6v72c0 3.324-2.676 6-6 6h-72c-3.324 0-6-2.676-6-6v-72c0-3.324 2.676-6 6-6z" opacity=".1"/><path d="m11.1875 6.03125c-4.027518.4106511-7.1875 3.8351875-7.1875 7.96875v71c0 4.409133 3.590867 8 8 8h72c4.409133 0 8-3.590867 8-8v-71c0-4.1970618-3.258972-7.6460416-7.375-7.96875 3.032886.306167 5.375 2.8525 5.375 5.96875v72c0 3.324-2.676 6-6 6h-72c-3.324 0-6-2.676-6-6v-72c0-3.11625 2.342114-5.662583 5.375-5.96875-.06227.00488-.12563-.00631-.1875 0z" opacity=".2"/><path d="m6.4375 9.75c-.8994891 1.177446-1.4375 2.647277-1.4375 4.25v71c0 3.878 3.122 7 7 7h72c3.878 0 7-3.122 7-7v-71c0-1.602723-.538011-3.072554-1.4375-4.25.279316.694095.4375 1.453625.4375 2.25v72c0 3.324-2.676 6-6 6h-72c-3.324 0-6-2.676-6-6v-72c0-.796375.1581836-1.555905.4375-2.25z" opacity=".3"/></g><path d="m6 84v1c0 3.324 2.676 6 6 6h72c3.324 0 6-2.676 6-6v-1c0 3.324-2.676 6-6 6h-72c-3.324 0-6-2.676-6-6z" fill="url(#g)" opacity=".45"/><g><rect height="84" opacity=".6" rx="6" width="84" x="6" y="6"/><path d="m12 6c-3.324 0-6 2.676-6 6v2 68 2c0 .334721.04135.6507.09375.96875.0487.295596.09704.596915.1875.875.00988.03038.020892.0636.03125.09375.098865.287771.2348802.547452.375.8125.1445918.273507.3156161.535615.5.78125s.3737765.473472.59375.6875c.439947.428056.94291.814526 1.5 1.09375.278545.139612.5734731.246947.875.34375-.2562018-.100222-.4867109-.236272-.71875-.375-.00741-.0044-.023866.0045-.03125 0-.031933-.0193-.062293-.04251-.09375-.0625-.120395-.0767-.2310226-.163513-.34375-.25-.1061728-.0808-.2132809-.161112-.3125-.25-.1779299-.161433-.3474596-.345388-.5-.53125-.1075789-.130255-.2183939-.265285-.3125-.40625-.025089-.03838-.038446-.08587-.0625-.125-.064763-.103032-.1302275-.204517-.1875-.3125-.1010083-.194706-.2056748-.415701-.28125-.625-.00796-.02181-.023589-.04055-.03125-.0625-.0318251-.09195-.0358045-.186831-.0625-.28125-.0303323-.106618-.0703894-.203031-.09375-.3125-.0728786-.341512-.125-.698205-.125-1.0625v-2-68-2c0-2.781848 2.2181517-5 5-5h2 68 2c2.781848 0 5 2.218152 5 5v2 68 2c0 .364295-.05212.720988-.125 1.0625-.04415.206893-.08838.397658-.15625.59375-.0077.02195-.0233.04069-.03125.0625-.06274.173739-.138383.367449-.21875.53125-.04158.0828-.07904.169954-.125.25-.0546.09721-.126774.18835-.1875.28125-.09411.140965-.204921.275995-.3125.40625-.143174.17445-.303141.346998-.46875.5-.01117.0102-.01998.02115-.03125.03125-.138386.125556-.285091.234436-.4375.34375-.102571.07315-.204318.153364-.3125.21875-.0074.0045-.02384-.0044-.03125 0-.232039.138728-.462548.274778-.71875.375.301527-.0968.596455-.204138.875-.34375.55709-.279224 1.060053-.665694 1.5-1.09375.219973-.214028.409366-.441865.59375-.6875s.355408-.507743.5-.78125c.14012-.265048.276135-.524729.375-.8125.01041-.03078.02133-.06274.03125-.09375.09046-.278085.1388-.579404.1875-.875.0524-.31805.09375-.634029.09375-.96875v-2-68-2c0-3.324-2.676-6-6-6z" fill="url(#c)" opacity=".01"/><path d="m12 90c-3.324 0-6-2.676-6-6v-2-68-2c0-.334721.04135-.6507.09375-.96875.0487-.295596.09704-.596915.1875-.875.00988-.03038.020892-.0636.03125-.09375.098865-.287771.2348802-.547452.375-.8125.1445918-.273507.3156161-.535615.5-.78125s.3737765-.473472.59375-.6875c.439947-.428056.94291-.814526 1.5-1.09375.278545-.139612.5734731-.246947.875-.34375-.2562018.100222-.4867109.236272-.71875.375-.00741.0044-.023866-.0045-.03125 0-.031933.0193-.062293.04251-.09375.0625-.120395.0767-.2310226.163513-.34375.25-.1061728.0808-.2132809.161112-.3125.25-.1779299.161433-.3474596.345388-.5.53125-.1075789.130255-.2183939.265285-.3125.40625-.025089.03838-.038446.08587-.0625.125-.064763.103032-.1302275.204517-.1875.3125-.1010083.194706-.2056748.415701-.28125.625-.00796.02181-.023589.04055-.03125.0625-.0318251.09195-.0358045.186831-.0625.28125-.0303323.106618-.0703894.203031-.09375.3125-.0728786.341512-.125.698205-.125 1.0625v2 68 2c0 2.781848 2.2181517 5 5 5h2 68 2c2.781848 0 5-2.218152 5-5v-2-68-2c0-.364295-.05212-.720988-.125-1.0625-.04415-.206893-.08838-.397658-.15625-.59375-.0077-.02195-.0233-.04069-.03125-.0625-.06274-.173739-.138383-.367449-.21875-.53125-.04158-.0828-.07904-.169954-.125-.25-.0546-.09721-.126774-.18835-.1875-.28125-.09411-.140965-.204921-.275995-.3125-.40625-.143174-.17445-.303141-.346998-.46875-.5-.01117-.0102-.01998-.02115-.03125-.03125-.138386-.125556-.285091-.234436-.4375-.34375-.102571-.07315-.204318-.153364-.3125-.21875-.0074-.0045-.02384.0044-.03125 0-.232039-.138728-.462548-.274778-.71875-.375.301527.0968.596455.204138.875.34375.55709.279224 1.060053.665694 1.5 1.09375.219973.214028.409366.441865.59375.6875s.355408.507743.5.78125c.14012.265048.276135.524729.375.8125.01041.03078.02133.06274.03125.09375.09046.278085.1388.579404.1875.875.0524.31805.09375.634029.09375.96875v2 68 2c0 3.324-2.676 6-6 6z" fill="url(#d)" opacity=".15"/></g><g><path d="m62.1875 23c-.31453-.01039-.626109.02282-.9375.0625-.262958.03351-.820597.110955-1.3125.46875-.297906.216691-.492644.473617-.5625.5625-.126237.160622-.228342.327823-.34375.5-.233845.348875-.513334.79288-.75 1.21875-.407643.733305-1.653026 2.986742-2.8125 5.03125-1.239791 2.186119-1.880198 3.295683-2.25 4.15625-.173646.404092-.385212.893663-.375 1.5.01017.603826.227535 1.037369.3125 1.21875.226319.483057.526777.853223.8125 1.1875.312845.366008.691312.71918 1.09375 1.125.823518.83044 1.82803 1.749957 2.8125 2.5625.658262.543337.931341.865511 1 .9375-.03357.0924-.05538.197182-.09375.28125-.169179.370709-.398399.853389-.6875 1.375-.591436 1.067101-1.402308 2.357076-2.15625 3.4375-2.907169 4.166161-6.532824 7.376447-11.25 9.9375-.577208.313338-.998136.522384-1.25.625-.09687.03947.02184.02436-.03125.03125-.164849-.13036-.428026-.385844-.84375-.8125-.892637-.916128-1.899151-1.740792-2.8125-2.375-.857804-.595639-1.700327-1.211255-2.90625-1.28125-.362805-.02106-.705893.053-.75.0625-.142991.03081-.250186.05179-.40625.09375-.320728.08624-.747855.231093-1.21875.375-.946176.289154-2.135325.681769-3.375 1.09375-2.493631.828708-5.077488 1.723329-6.3125 2.25-.82103.350199-1.816366.932743-2.28125 2.0625-.404249.982403-.437409 1.934305-.46875 3.28125-.02445 1.050626-.01713 1.743919.0625 2.40625.08704.723984.339143 1.287256.59375 1.78125 2.007628 3.895069 6.921939 6.50669 11.78125 6.78125 2.233467.126913 3.776556-.09607 6.4375-.9375 5.879925-1.859445 11.533882-5.20872 17.21875-10.0625 3.654726-3.120424 5.666068-5.184348 7.75-7.875 1.847585-2.385514 4.143211-6.300416 5.28125-9.0625.403947-.980377.986286-2.552528 1.5-4.0625.510497-1.500517.947179-2.7837 1.125-3.59375.552796-2.521156.09141-6.073616-.875-8.625-.471229-1.244104-1.216314-2.492682-2.0625-3.59375-.834098-1.085339-1.72401-2.036255-2.8125-2.65625-1.121967-.639192-2.555573-.981675-3.90625-1.21875-.671058-.117786-1.311928-.229339-1.9375-.25z" opacity=".1"/><path d="m62.15625 24c-.27291-.009-.533416-.000333-.78125.03125-.247834.03158-.51181.07106-.84375.3125-.225879.1643-.273175.24544-.375.375s-.203743.275245-.3125.4375c-.217513.32451-.466257.726883-.6875 1.125-.409808.737199-1.681996 3.013972-2.84375 5.0625-1.240374 2.187148-1.86257 3.275105-2.1875 4.03125-.162465.378073-.287642.714218-.28125 1.09375.0064.379532.140797.677337.21875.84375.16957.361931.374491.607861.65625.9375s.633621.692779 1.03125 1.09375c.795258.801943 1.792228 1.709492 2.75 2.5.773002.638045 1.173875 1.045437 1.3125 1.25s.147016.191726.125.5625c.01261-.212494-.07578.180748-.25.5625-.174219.381752-.411752.883598-.71875 1.4375-.613996 1.107804-1.445074 2.422546-2.21875 3.53125-2.992064 4.287822-6.757218 7.624146-11.59375 10.25-1.195134.648779-1.734711.832772-1.90625.8125-.171539-.02027-.540885-.268128-1.40625-1.15625-.841962-.86412-1.796386-1.652931-2.65625-2.25s-1.491717-1.040668-2.40625-1.09375c-.307065-.01782-.350584.0058-.46875.03125-.118166.02546-.221918.05259-.375.09375-.306163.08232-.726484.202862-1.1875.34375-.922031.281775-2.100832.680691-3.34375 1.09375-2.485837.826118-5.110568 1.732839-6.25 2.21875-.714665.30483-1.432375.759361-1.75 1.53125s-.343739 1.593975-.375 2.9375c-.0244 1.048606-.0361 1.689749.03125 2.25s.263909 1.01068.5 1.46875c1.775029 3.443796 6.435344 5.962604 10.96875 6.21875 2.158775.122669 3.453323-.04994 6.0625-.875 5.72826-1.811483 11.265151-5.085272 16.875-9.875 3.629638-3.099004 5.580902-5.07953 7.625-7.71875 1.765669-2.279748 4.074208-6.217575 5.15625-8.84375.387534-.940542.960164-2.5051 1.46875-4s.944679-2.820917 1.09375-3.5c.478155-2.18074.04383-5.719235-.84375-8.0625-.428265-1.130673-1.1146-2.313645-1.90625-3.34375s-1.626688-1.891019-2.53125-2.40625c-.924237-.526544-2.262186-.865515-3.5625-1.09375-.650157-.114117-1.266679-.200723-1.8125-.21875z" opacity=".15"/><path d="m71.845479 38.905446c-.227691 1.037229-1.773783 5.569235-2.509801 7.355542-1.022418 2.481463-3.330084 6.453138-5.008866 8.620702-2.006213 2.590305-3.884901 4.488075-7.489841 7.565992-5.533894 4.724877-10.985191 7.908194-16.562938 9.672079-2.570734.812906-3.581257.963253-5.675132.844272-4.18166-.236272-8.636754-2.727546-10.15667-5.676388-.431156-.83654-.475126-1.17258-.426546-3.259966.06179-2.655561.226866-3.043636 1.528721-3.598923 2.079478-.886793 10.68477-3.751932 11.181993-3.723074.820605.04763 2.813312 1.436118 4.403909 3.068575 1.765848 1.812285 2.05486 1.846345 4.482439.528533 4.957205-2.69137 8.87596-6.154974 11.953282-10.564977 1.596368-2.287649 3.305834-5.36844 3.345003-6.028279.05566-.937382-.198027-1.31029-1.776736-2.613375-1.855334-1.53132-3.871839-3.557931-4.166902-4.187714-.30077-.642081-.275467-.700245 2.204236-5.072698 1.162393-2.049655 2.454089-4.339615 2.870534-5.088754.416347-.749198.908536-1.472348 1.093746-1.607066.604088-.439396 4.534806.228269 5.890937 1.000866 1.376198.783871 3.281662 3.271269 4.040354 5.274312.790232 2.086261 1.167332 5.716014.778265 7.490448z" opacity=".3"/><path d="m0 104h16v16h-16z" fill="url(#h)" transform="matrix(0 1 1 0 0 0)"/><text font-family="Liberation Sans" font-size="4" letter-spacing="0" word-spacing="0" x="104" y="48"><tspan x="104" y="48">Shadow opacity : 30, 15, 10, (8)</tspan></text><path d="m-40 104h16v16h-16z" fill="url(#i)" transform="rotate(-90)"/><text font-family="Liberation Sans" font-size="4" letter-spacing="0" word-spacing="0" x="124" y="32"><tspan x="124" y="32">Bevel opacity : 30 / 10</tspan></text><text font-family="Liberation Sans" font-size="4" letter-spacing="0" word-spacing="0" x="124" y="8"><tspan x="124" y="8">Bevel opacity : 75 / 15</tspan></text><path d="m71.845479 37.905446c-.227691 1.037229-1.773783 5.569235-2.509801 7.355542-1.022418 2.481463-3.330084 6.453138-5.008866 8.620702-2.006213 2.590305-3.884901 4.488075-7.489841 7.565992-5.533894 4.724877-10.985191 7.908194-16.562938 9.672079-2.570734.812906-3.581257.963253-5.675132.844272-4.18166-.236272-8.636754-2.727546-10.15667-5.676388-.431156-.83654-.475126-1.17258-.426546-3.259966.06179-2.655561.226866-3.043636 1.528721-3.598923 2.079478-.886793 10.68477-3.751932 11.181993-3.723074.820605.04763 2.813312 1.436118 4.403909 3.068575 1.765848 1.812285 2.05486 1.846345 4.482439.528533 4.957205-2.69137 8.87596-6.154974 11.953282-10.564977 1.596368-2.287649 3.305834-5.36844 3.345003-6.028279.05566-.937382-.198027-1.31029-1.776736-2.613375-1.855334-1.53132-3.871839-3.557931-4.166902-4.187714-.30077-.642081-.275467-.700245 2.204236-5.072698 1.162393-2.049655 2.454089-4.339615 2.870534-5.088754.416347-.749198.908536-1.472348 1.093746-1.607066.604088-.439396 4.534806.228269 5.890937 1.000866 1.376198.783871 3.281662 3.271269 4.040354 5.274312.790232 2.086261 1.167332 5.716014.778265 7.490448z" fill="url(#j)"/><path d="m62.125 24c-.474644-.01288-.848978.01515-1 .125-.18521.134718-.677403.875802-1.09375 1.625-.416445.749139-1.712607 3.044095-2.875 5.09375-2.479703 4.372453-2.48827 4.420419-2.1875 5.0625.242818-.616356.848588-1.701601 2.1875-4.0625 1.162393-2.049655 2.458555-4.344611 2.875-5.09375.416347-.749198.90854-1.490282 1.09375-1.625.604088-.439396 4.550119.258653 5.90625 1.03125 1.376198.783871 3.272558 3.246957 4.03125 5.25.538458 1.421563.863112 3.564187.90625 5.34375.09847-1.911513-.2606-4.639195-.90625-6.34375-.758692-2.003043-2.655052-4.466129-4.03125-5.25-1.017098-.579448-3.482317-1.117624-4.90625-1.15625zm-1.28125 18.96875c-.297024.974394-1.829169 3.700369-3.28125 5.78125-3.077322 4.410003-6.980295 7.87113-11.9375 10.5625-2.427579 1.317812-2.734152 1.281035-4.5-.53125-1.590597-1.632457-3.585645-3.01487-4.40625-3.0625-.497223-.02886-9.108022 2.831957-11.1875 3.71875-1.301855.555287-1.43821.938189-1.5 3.59375-.0159.683005-.01424 1.14437 0 1.53125.0027-.181158-.005-.315003 0-.53125.06179-2.655561.198145-3.038463 1.5-3.59375 2.079478-.886793 10.690277-3.747608 11.1875-3.71875.820605.04763 2.815653 1.430043 4.40625 3.0625 1.765848 1.812285 2.072421 1.849062 4.5.53125 4.957205-2.69137 8.860178-6.152497 11.9375-10.5625 1.596368-2.287649 3.304581-5.371411 3.34375-6.03125.01693-.28512.0064-.527266-.0625-.75z" fill="#fff" opacity=".75"/><path d="m54.96875 34.90625c-.206888.525153-.13837.70461 0 1 .295063.629783 2.300916 2.65618 4.15625 4.1875 1.098518.90673 1.561148 1.365459 1.71875 1.875.02951-.09682.05896-.190361.0625-.25.05566-.937382-.202541-1.321915-1.78125-2.625-1.855334-1.53132-3.861187-3.557717-4.15625-4.1875zm17 .84375c-.02205.428051-.05382.831596-.125 1.15625-.227691 1.037229-1.763982 5.557443-2.5 7.34375-1.022418 2.481463-3.352468 6.457436-5.03125 8.625-2.006213 2.590305-3.86381 4.484583-7.46875 7.5625-5.533894 4.724877-10.984753 7.923615-16.5625 9.6875-2.570734.812906-3.593625.962731-5.6875.84375-4.18166-.236272-8.636334-2.738658-10.15625-5.6875-.290079-.562819-.376963-.923255-.40625-1.71875-.02352 1.567527.01976 1.968873.40625 2.71875 1.519916 2.948842 5.97459 5.451228 10.15625 5.6875 2.093875.118981 3.116766-.03084 5.6875-.84375 5.577747-1.763885 11.028606-4.962623 16.5625-9.6875 3.60494-3.077917 5.462537-4.972195 7.46875-7.5625 1.678782-2.167564 4.008832-6.143537 5.03125-8.625.736018-1.786307 2.272309-6.306521 2.5-7.34375.123959-.565347.145171-1.324158.125-2.15625z" opacity=".15"/></g></svg>