<svg height="96" width="96" xmlns="http://www.w3.org/2000/svg" xmlns:xlink="http://www.w3.org/1999/xlink"><linearGradient id="a"><stop offset="0" stop-color="#f0f0f0"/><stop offset="1" stop-color="#aaa"/></linearGradient><linearGradient id="b"><stop offset="0" stop-color="#fff"/><stop offset="1" stop-color="#fff" stop-opacity="0"/></linearGradient><linearGradient id="c" gradientUnits="userSpaceOnUse" x1="36.357143" x2="36.357143" xlink:href="#b" y1="6" y2="63.893143"/><radialGradient id="d" cx="48" cy="90.171875" gradientTransform="matrix(1.1573129 0 0 .99590774 -7.551021 .197132)" gradientUnits="userSpaceOnUse" r="42" xlink:href="#b"/><linearGradient id="e" gradientTransform="matrix(1.0058652 0 0 .994169 100 0)" gradientUnits="userSpaceOnUse" x1="45.447727" x2="45.447727" y1="92.539597" y2="7.01654"><stop offset="0"/><stop offset="1" stop-opacity=".588235"/></linearGradient><linearGradient id="f" gradientTransform="matrix(1.0238095 0 0 -1.0119048 -1.142857 98.071429)" gradientUnits="userSpaceOnUse" x1="32.251034" x2="32.251034" xlink:href="#e" y1="6.131708" y2="90.238609"/><linearGradient id="g" gradientTransform="matrix(1 0 0 -1 0 97)" gradientUnits="userSpaceOnUse" x1="32.251034" x2="32.251034" xlink:href="#e" y1="6.131708" y2="90.238609"/><linearGradient id="h" gradientUnits="userSpaceOnUse" x1="38" x2="38" xlink:href="#a" y1="24" y2="72"/><g><g fill="url(#f)"><path d="m12 3.96875c-5.5110902 0-10.03125 4.5201598-10.03125 10.03125v71c0 5.51109 4.5201597 10.03125 10.03125 10.03125h72c5.51109 0 10.03125-4.52016 10.03125-10.03125v-71c0-5.5110903-4.52016-10.03125-10.03125-10.03125zm0 2.03125h72c3.324 0 6 2.676 6 6v72c0 3.324-2.676 6-6 6h-72c-3.324 0-6-2.676-6-6v-72c0-3.324 2.676-6 6-6z" opacity=".08"/><path d="m12 4.96875c-4.9716329 0-9.03125 4.0596171-9.03125 9.03125v71c0 4.971633 4.059617 9.03125 9.03125 9.03125h72c4.971633 0 9.03125-4.059617 9.03125-9.03125v-71c0-4.971633-4.059617-9.03125-9.03125-9.03125zm0 1.03125h72c3.324 0 6 2.676 6 6v72c0 3.324-2.676 6-6 6h-72c-3.324 0-6-2.676-6-6v-72c0-3.324 2.676-6 6-6z" opacity=".1"/><path d="m11.1875 6.03125c-4.027518.4106511-7.1875 3.8351875-7.1875 7.96875v71c0 4.409133 3.590867 8 8 8h72c4.409133 0 8-3.590867 8-8v-71c0-4.1970618-3.258972-7.6460416-7.375-7.96875 3.032886.306167 5.375 2.8525 5.375 5.96875v72c0 3.324-2.676 6-6 6h-72c-3.324 0-6-2.676-6-6v-72c0-3.11625 2.342114-5.662583 5.375-5.96875-.06227.00488-.12563-.00631-.1875 0z" opacity=".2"/><path d="m6.4375 9.75c-.8994891 1.177446-1.4375 2.647277-1.4375 4.25v71c0 3.878 3.122 7 7 7h72c3.878 0 7-3.122 7-7v-71c0-1.602723-.538011-3.072554-1.4375-4.25.279316.694095.4375 1.453625.4375 2.25v72c0 3.324-2.676 6-6 6h-72c-3.324 0-6-2.676-6-6v-72c0-.796375.1581836-1.555905.4375-2.25z" opacity=".3"/></g><path d="m6 84v1c0 3.324 2.676 6 6 6h72c3.324 0 6-2.676 6-6v-1c0 3.324-2.676 6-6 6h-72c-3.324 0-6-2.676-6-6z" fill="url(#g)" opacity=".45"/></g><g><rect height="84" opacity=".6" rx="6" width="84" x="6" y="6"/><path d="m12 6c-3.324 0-6 2.676-6 6v2 68 2c0 .334721.04135.6507.09375.96875.0487.295596.09704.596915.1875.875.00988.03038.020892.0636.03125.09375.098865.287771.2348802.547452.375.8125.1445918.273507.3156161.535615.5.78125s.3737765.473472.59375.6875c.439947.428056.94291.814526 1.5 1.09375.278545.139612.5734731.246947.875.34375-.2562018-.100222-.4867109-.236272-.71875-.375-.00741-.0044-.023866.0045-.03125 0-.031933-.0193-.062293-.04251-.09375-.0625-.120395-.0767-.2310226-.163513-.34375-.25-.1061728-.0808-.2132809-.161112-.3125-.25-.1779299-.161433-.3474596-.345388-.5-.53125-.1075789-.130255-.2183939-.265285-.3125-.40625-.025089-.03838-.038446-.08587-.0625-.125-.064763-.103032-.1302275-.204517-.1875-.3125-.1010083-.194706-.2056748-.415701-.28125-.625-.00796-.02181-.023589-.04055-.03125-.0625-.0318251-.09195-.0358045-.186831-.0625-.28125-.0303323-.106618-.0703894-.203031-.09375-.3125-.0728786-.341512-.125-.698205-.125-1.0625v-2-68-2c0-2.781848 2.2181517-5 5-5h2 68 2c2.781848 0 5 2.218152 5 5v2 68 2c0 .364295-.05212.720988-.125 1.0625-.04415.206893-.08838.397658-.15625.59375-.0077.02195-.0233.04069-.03125.0625-.06274.173739-.138383.367449-.21875.53125-.04158.0828-.07904.169954-.125.25-.0546.09721-.126774.18835-.1875.28125-.09411.140965-.204921.275995-.3125.40625-.143174.17445-.303141.346998-.46875.5-.01117.0102-.01998.02115-.03125.03125-.138386.125556-.285091.234436-.4375.34375-.102571.07315-.204318.153364-.3125.21875-.0074.0045-.02384-.0044-.03125 0-.232039.138728-.462548.274778-.71875.375.301527-.0968.596455-.204138.875-.34375.55709-.279224 1.060053-.665694 1.5-1.09375.219973-.214028.409366-.441865.59375-.6875s.355408-.507743.5-.78125c.14012-.265048.276135-.524729.375-.8125.01041-.03078.02133-.06274.03125-.09375.09046-.278085.1388-.579404.1875-.875.0524-.31805.09375-.634029.09375-.96875v-2-68-2c0-3.324-2.676-6-6-6z" fill="url(#c)" opacity=".01"/><path d="m12 90c-3.324 0-6-2.676-6-6v-2-68-2c0-.334721.04135-.6507.09375-.96875.0487-.295596.09704-.596915.1875-.875.00988-.03038.020892-.0636.03125-.09375.098865-.287771.2348802-.547452.375-.8125.1445918-.273507.3156161-.535615.5-.78125s.3737765-.473472.59375-.6875c.439947-.428056.94291-.814526 1.5-1.09375.278545-.139612.5734731-.246947.875-.34375-.2562018.100222-.4867109.236272-.71875.375-.00741.0044-.023866-.0045-.03125 0-.031933.0193-.062293.04251-.09375.0625-.120395.0767-.2310226.163513-.34375.25-.1061728.0808-.2132809.161112-.3125.25-.1779299.161433-.3474596.345388-.5.53125-.1075789.130255-.2183939.265285-.3125.40625-.025089.03838-.038446.08587-.0625.125-.064763.103032-.1302275.204517-.1875.3125-.1010083.194706-.2056748.415701-.28125.625-.00796.02181-.023589.04055-.03125.0625-.0318251.09195-.0358045.186831-.0625.28125-.0303323.106618-.0703894.203031-.09375.3125-.0728786.341512-.125.698205-.125 1.0625v2 68 2c0 2.781848 2.2181517 5 5 5h2 68 2c2.781848 0 5-2.218152 5-5v-2-68-2c0-.364295-.05212-.720988-.125-1.0625-.04415-.206893-.08838-.397658-.15625-.59375-.0077-.02195-.0233-.04069-.03125-.0625-.06274-.173739-.138383-.367449-.21875-.53125-.04158-.0828-.07904-.169954-.125-.25-.0546-.09721-.126774-.18835-.1875-.28125-.09411-.140965-.204921-.275995-.3125-.40625-.143174-.17445-.303141-.346998-.46875-.5-.01117-.0102-.01998-.02115-.03125-.03125-.138386-.125556-.285091-.234436-.4375-.34375-.102571-.07315-.204318-.153364-.3125-.21875-.0074-.0045-.02384.0044-.03125 0-.232039-.138728-.462548-.274778-.71875-.375.301527.0968.596455.204138.875.34375.55709.279224 1.060053.665694 1.5 1.09375.219973.214028.409366.441865.59375.6875s.355408.507743.5.78125c.14012.265048.276135.524729.375.8125.01041.03078.02133.06274.03125.09375.09046.278085.1388.579404.1875.875.0524.31805.09375.634029.09375.96875v2 68 2c0 3.324-2.676 6-6 6z" fill="url(#d)" opacity=".15"/></g><g><path d="m27.59375 23c-3.071848 0-5.59375 2.521902-5.59375 5.59375v26.84375c0 3.069103 2.505515 5.625 5.59375 5.625h20.8125c.0016.0411 0 .09375 0 .09375l.03125.125.03125.15625.03125.125.03125.15625.0625.125.0625.125.0625.125.09375.125.09375.09375 10.75 12 .0625.09375.09375.0625.0625.0625.09375.0625.09375.0625.09375.0625.09375.0625.09375.03125.09375.03125.09375.0625.09375.03125h.125l.09375.03125h.09375l.125.03125h.09375.09375l.125-.03125h.09375l.09375-.03125h.125l.09375-.03125.09375-.0625.09375-.03125.09375-.03125.09375-.0625.09375-.0625.09375-.0625.09375-.0625.0625-.0625.09375-.0625.0625-.09375 10.84375-12 .09375-.09375.09375-.125.0625-.125.0625-.125.0625-.125.03125-.15625.03125-.125.03125-.15625.03125-.125v-.15625-.125l-.03125-.15625-.03125-.125-.03125-.15625-.03125-.125-.0625-.125-.0625-.15625-.0625-.09375-.09375-.125-.09375-.125-.09375-.09375-.09375-.09375-.125-.09375-.09375-.09375-.125-.0625-.125-.0625-.15625-.0625-.125-.03125-.125-.03125-.15625-.03125-.125-.03125h-.15625-4v-3.84375-.1875l-.03125-.1875-.0625-.21875-.0625-.15625-.09375-.1875c-.000001-.000003-.07355-.122506-.09375-.15625-.0031-.0052 0-.03125 0-.03125.0202-.03374.09375-.156247.09375-.15625l.09375-.1875.0625-.15625.0625-.21875.03125-.1875v-.1875-3.84375-.1875l-.03125-.1875-.0625-.21875-.0625-.15625-.09375-.1875c-.000001-.000002-.03668-.113122-.0625-.15625.02988-.04992.0625-.124998.0625-.125l.09375-.1875.0625-.15625.0625-.21875.03125-.1875v-.1875-1.90625-.1875l-.03125-.1875-.0625-.21875-.0625-.15625-.09375-.1875-.09375-.1875-.125-.15625-.125-.125-.125-.125-.15625-.125-.1875-.09375-.1875-.09375-.15625-.0625-.21875-.0625-.1875-.03125h-.1875-9.875-.03125-.0625-.0625-.09375a.99834447.99834447 0 0 0 -.15625.03125l-.15625.03125-.1875.0625-.15625.0625-.15625.09375-.125.09375-.15625.09375-.125.125-.125.125-.09375.15625-.09375.125-.0625.15625-.0625.1875-.0625.15625-.03125.15625-.03125.1875c0 .000002.001.115753 0 .15625-.0002.0081 0 .03125 0 .03125v1.875.1875l.03125.1875.0625.21875.0625.15625.09375.1875c.000001.000002.03262.07508.0625.125-.02659.04329-.0625.09375-.0625.09375l-.0625.15625-.0625.1875-.0625.15625-.03125.15625-.03125.1875c0 .000002.001.115753 0 .15625-.0002.0081 0 .03125 0 .03125v3.8125.1875l.03125.1875.0625.21875.0625.15625.09375.1875c.000001.000003.07355.122506.09375.15625.0031.0052 0 .03125 0 .03125-.02068.03367-.09375.09375-.09375.09375l-.0625.15625-.0625.1875-.0625.15625-.03125.15625-.03125.1875c0 .000002.001.115753 0 .15625-.0002.0081 0 .03125 0 .03125v3.8125h-1.375c.813573-.979545 1.34375-2.205012 1.34375-3.5625v-26.84375c0-3.071848-2.521902-5.59375-5.59375-5.59375zm4.375 9.96875h12.125v18.125h-12.125zm-4.96875 32c-2.761206 0-5.03125 2.270044-5.03125 5.03125s2.270044 5.03125 5.03125 5.03125c2.705645 0 4.911245-2.189486 5-4.875.08875 2.685514 2.294355 4.875 5 4.875s4.911245-2.189486 5-4.875c.08875 2.685514 2.294355 4.875 5 4.875 2.761206 0 5.03125-2.270044 5.03125-5.03125s-2.270044-5.03125-5.03125-5.03125c-2.705645 0-4.911245 2.189486-5 4.875-.08875-2.685514-2.294355-4.875-5-4.875s-4.911245 2.189486-5 4.875c-.08875-2.685514-2.294355-4.875-5-4.875z" opacity=".1"/><path d="m27.59375 24c-2.528075 0-4.59375 2.065675-4.59375 4.59375v26.84375c0 2.528075 2.055247 4.625 4.59375 4.625h20.875c2.538503 0 4.59375-2.096925 4.59375-4.625v-26.84375c0-2.528075-2.065675-4.59375-4.59375-4.59375zm3.59375 7.96875h13.71875c.11027 0 .1875.0772.1875.21875v19.6875c0 .141552-.07723.21875-.1875.21875h-13.71875c-.11027 0-.21875-.10848-.21875-.21875v-19.6875c0-.11027.10848-.21875.21875-.21875zm24.71875 12.0625a.99834447.99834447 0 0 0 -.8125 1v1.90625a.99834447.99834447 0 0 0 1 1h9.90625a.99834447.99834447 0 0 0 1-1v-1.90625a.99834447.99834447 0 0 0 -1-1h-9.90625a.99834447.99834447 0 0 0 -.09375 0 .99834447.99834447 0 0 0 -.09375 0zm0 4.0625a.99834447.99834447 0 0 0 -.8125 1v3.84375a.99834447.99834447 0 0 0 1 1h9.90625a.99834447.99834447 0 0 0 1-1v-3.84375a.99834447.99834447 0 0 0 -1-1h-9.90625a.99834447.99834447 0 0 0 -.09375 0 .99834447.99834447 0 0 0 -.09375 0zm0 6.0625a.99834447.99834447 0 0 0 -.8125 1v4.84375h-4.6875a.99834447.99834447 0 0 0 -.75 1.65625l10.75 12a.99834447.99834447 0 0 0 1.5 0l10.84375-12a.99834447.99834447 0 0 0 -.75-1.65625h-5v-4.84375a.99834447.99834447 0 0 0 -1-1h-9.90625a.99834447.99834447 0 0 0 -.09375 0 .99834447.99834447 0 0 0 -.09375 0zm-28.90625 11.8125c-2.215784 0-4.03125 1.815466-4.03125 4.03125s1.815466 4.03125 4.03125 4.03125 4.03125-1.815466 4.03125-4.03125-1.815466-4.03125-4.03125-4.03125zm10 0c-2.215784 0-4.03125 1.815466-4.03125 4.03125s1.815466 4.03125 4.03125 4.03125 4.03125-1.815466 4.03125-4.03125-1.815466-4.03125-4.03125-4.03125zm10 0c-2.215784 0-4.03125 1.815466-4.03125 4.03125s1.815466 4.03125 4.03125 4.03125 4.03125-1.815466 4.03125-4.03125-1.815466-4.03125-4.03125-4.03125z" opacity=".15"/><path d="m27.59375 25c-1.9944 0-3.59375 1.59935-3.59375 3.59375v26.84375c0 1.9944 1.59935 3.625 3.59375 3.625h20.875c1.9944 0 3.59375-1.6306 3.59375-3.625v-26.84375c0-1.9944-1.59935-3.59375-3.59375-3.59375zm3.59375 5.96875h13.71875c.6648 0 1.1875.55395 1.1875 1.21875v19.6875c0 .6648-.5227 1.21875-1.1875 1.21875h-13.71875c-.6648 0-1.21875-.55395-1.21875-1.21875v-19.6875c0-.6648.55395-1.21875 1.21875-1.21875zm24.90625 14.0625v1.90625h9.90625v-1.90625zm0 4.0625v3.84375h9.90625v-3.84375zm0 6.0625v5.84375h-5.6875l10.75 12 10.84375-12h-6v-5.84375zm-29.09375 11.84375c-1.656854 0-3 1.343146-3 3s1.343146 3 3 3 3-1.343146 3-3-1.343146-3-3-3zm10 0c-1.656854 0-3 1.343146-3 3s1.343146 3 3 3 3-1.343146 3-3-1.343146-3-3-3zm10 0c-1.656854 0-3 1.343146-3 3s1.343146 3 3 3 3-1.343146 3-3-1.343146-3-3-3z" opacity=".3"/><path d="m27.59375 24c-1.9944 0-3.59375 1.59935-3.59375 3.59375v26.84375c0 1.9944 1.59935 3.625 3.59375 3.625h20.875c1.9944 0 3.59375-1.6306 3.59375-3.625v-26.84375c0-1.9944-1.59935-3.59375-3.59375-3.59375zm3.59375 5.96875h13.71875c.6648 0 1.1875.55395 1.1875 1.21875v19.6875c0 .6648-.5227 1.21875-1.1875 1.21875h-13.71875c-.6648 0-1.21875-.55395-1.21875-1.21875v-19.6875c0-.6648.55395-1.21875 1.21875-1.21875zm24.90625 14.0625v1.90625h9.90625v-1.90625zm0 4.0625v3.84375h9.90625v-3.84375zm0 6.0625v5.84375h-5.6875l10.75 12 10.84375-12h-6v-5.84375zm-29.09375 11.84375c-1.656854 0-3 1.343146-3 3s1.343146 3 3 3 3-1.343146 3-3-1.343146-3-3-3zm10 0c-1.656854 0-3 1.343146-3 3s1.343146 3 3 3 3-1.343146 3-3-1.343146-3-3-3zm10 0c-1.656854 0-3 1.343146-3 3s1.343146 3 3 3 3-1.343146 3-3-1.343146-3-3-3z" fill="url(#h)"/><path d="m27.59375 24c-1.9944 0-3.59375 1.59935-3.59375 3.59375v1c0-1.9944 1.59935-3.59375 3.59375-3.59375h20.875c1.9944 0 3.59375 1.59935 3.59375 3.59375v-1c0-1.9944-1.59935-3.59375-3.59375-3.59375zm28.5 20.03125v1h9.90625v-1zm0 4.0625v1h9.90625v-1zm-26.125 2.78125v1c0 .6648.55395 1.21875 1.21875 1.21875h13.71875c.6648 0 1.1875-.55395 1.1875-1.21875v-1c0 .6648-.5227 1.21875-1.1875 1.21875h-13.71875c-.6648 0-1.21875-.55395-1.21875-1.21875zm26.125 3.28125v1h9.90625v-1zm-5.6875 5.84375.90625 1h4.78125v-1zm15.59375 0v1h5.09375l.90625-1zm-39 6c-1.656854 0-3 1.343146-3 3 0 .174764.03382.333425.0625.5.243216-1.412646 1.45541-2.5 2.9375-2.5s2.694284 1.087354 2.9375 2.5c.028679-.166575.0625-.325236.0625-.5 0-1.656854-1.343146-3-3-3zm10 0c-1.656854 0-3 1.343146-3 3 0 .174764.03382.333425.0625.5.243216-1.412646 1.45541-2.5 2.9375-2.5s2.694284 1.087354 2.9375 2.5c.028679-.166575.0625-.325236.0625-.5 0-1.656854-1.343146-3-3-3zm10 0c-1.656854 0-3 1.343146-3 3 0 .174764.03382.333425.0625.5.243216-1.412646 1.45541-2.5 2.9375-2.5s2.694284 1.087354 2.9375 2.5c.028679-.166575.0625-.325236.0625-.5 0-1.656854-1.343146-3-3-3z" fill="#fff" opacity=".75"/><path d="m31.1875 28.96875c-.6648 0-1.21875.55395-1.21875 1.21875v1c0-.6648.55395-1.21875 1.21875-1.21875h13.71875c.6648 0 1.1875.55395 1.1875 1.21875v-1c0-.6648-.5227-1.21875-1.1875-1.21875zm24.90625 15.96875v1h9.90625v-1zm0 6v1h9.90625v-1zm-32.09375 2.5v1c0 1.9944 1.59935 3.625 3.59375 3.625h20.875c1.9944 0 3.59375-1.6306 3.59375-3.625v-1c0 1.9944-1.59935 3.625-3.59375 3.625h-20.875c-1.9944 0-3.59375-1.6306-3.59375-3.625zm26.40625 6.5625 10.75 12 10.84375-12h-.90625l-9.9375 11-9.84375-11zm-26.34375 8.5c-.028679.166575-.0625.325236-.0625.5 0 1.656854 1.343146 3 3 3s3-1.343146 3-3c0-.174764-.03382-.333425-.0625-.5-.243216 1.412646-1.45541 2.5-2.9375 2.5s-2.694284-1.087354-2.9375-2.5zm10 0c-.028679.166575-.0625.325236-.0625.5 0 1.656854 1.343146 3 3 3s3-1.343146 3-3c0-.174764-.03382-.333425-.0625-.5-.243216 1.412646-1.45541 2.5-2.9375 2.5s-2.694284-1.087354-2.9375-2.5zm10 0c-.028679.166575-.0625.325236-.0625.5 0 1.656854 1.343146 3 3 3s3-1.343146 3-3c0-.174764-.03382-.333425-.0625-.5-.243216 1.412646-1.45541 2.5-2.9375 2.5s-2.694284-1.087354-2.9375-2.5z" opacity=".15"/></g></svg>