<svg height="96" width="96" xmlns="http://www.w3.org/2000/svg" xmlns:xlink="http://www.w3.org/1999/xlink"><linearGradient id="a"><stop offset="0" stop-color="#fff"/><stop offset="1" stop-color="#fff" stop-opacity="0"/></linearGradient><linearGradient id="b" gradientUnits="userSpaceOnUse" x1="36.357143" x2="36.357143" xlink:href="#a" y1="6" y2="63.893143"/><radialGradient id="c" cx="48" cy="90.171875" gradientTransform="matrix(1.1573129 0 0 .99590774 -7.551021 .197132)" gradientUnits="userSpaceOnUse" r="42" xlink:href="#a"/><linearGradient id="d" gradientUnits="userSpaceOnUse" x1="48" x2="48" y1="76" y2="20"><stop offset="0" stop-color="#aaa"/><stop offset="1" stop-color="#f0f0f0"/></linearGradient><linearGradient id="e" gradientTransform="matrix(1.0058652 0 0 .994169 100 0)" gradientUnits="userSpaceOnUse" x1="45.447727" x2="45.447727" y1="92.539597" y2="7.01654"><stop offset="0"/><stop offset="1" stop-opacity=".588235"/></linearGradient><linearGradient id="f" gradientTransform="matrix(1.0238095 0 0 -1.0119048 -1.142857 98.071429)" gradientUnits="userSpaceOnUse" x1="32.251034" x2="32.251034" xlink:href="#e" y1="6.131708" y2="90.238609"/><linearGradient id="g" gradientTransform="matrix(1 0 0 -1 0 97)" gradientUnits="userSpaceOnUse" x1="32.251034" x2="32.251034" xlink:href="#e" y1="6.131708" y2="90.238609"/><g><g fill="url(#f)"><path d="m12 3.96875c-5.5110902 0-10.03125 4.5201598-10.03125 10.03125v71c0 5.51109 4.5201597 10.03125 10.03125 10.03125h72c5.51109 0 10.03125-4.52016 10.03125-10.03125v-71c0-5.5110903-4.52016-10.03125-10.03125-10.03125zm0 2.03125h72c3.324 0 6 2.676 6 6v72c0 3.324-2.676 6-6 6h-72c-3.324 0-6-2.676-6-6v-72c0-3.324 2.676-6 6-6z" opacity=".08"/><path d="m12 4.96875c-4.9716329 0-9.03125 4.0596171-9.03125 9.03125v71c0 4.971633 4.059617 9.03125 9.03125 9.03125h72c4.971633 0 9.03125-4.059617 9.03125-9.03125v-71c0-4.971633-4.059617-9.03125-9.03125-9.03125zm0 1.03125h72c3.324 0 6 2.676 6 6v72c0 3.324-2.676 6-6 6h-72c-3.324 0-6-2.676-6-6v-72c0-3.324 2.676-6 6-6z" opacity=".1"/><path d="m11.1875 6.03125c-4.027518.4106511-7.1875 3.8351875-7.1875 7.96875v71c0 4.409133 3.590867 8 8 8h72c4.409133 0 8-3.590867 8-8v-71c0-4.1970618-3.258972-7.6460416-7.375-7.96875 3.032886.306167 5.375 2.8525 5.375 5.96875v72c0 3.324-2.676 6-6 6h-72c-3.324 0-6-2.676-6-6v-72c0-3.11625 2.342114-5.662583 5.375-5.96875-.06227.00488-.12563-.00631-.1875 0z" opacity=".2"/><path d="m6.4375 9.75c-.8994891 1.177446-1.4375 2.647277-1.4375 4.25v71c0 3.878 3.122 7 7 7h72c3.878 0 7-3.122 7-7v-71c0-1.602723-.538011-3.072554-1.4375-4.25.279316.694095.4375 1.453625.4375 2.25v72c0 3.324-2.676 6-6 6h-72c-3.324 0-6-2.676-6-6v-72c0-.796375.1581836-1.555905.4375-2.25z" opacity=".3"/></g><path d="m6 84v1c0 3.324 2.676 6 6 6h72c3.324 0 6-2.676 6-6v-1c0 3.324-2.676 6-6 6h-72c-3.324 0-6-2.676-6-6z" fill="url(#g)" opacity=".45"/></g><g><rect height="84" opacity=".6" rx="6" width="84" x="6" y="6"/><path d="m12 6c-3.324 0-6 2.676-6 6v2 68 2c0 .334721.04135.6507.09375.96875.0487.295596.09704.596915.1875.875.00988.03038.020892.0636.03125.09375.098865.287771.2348802.547452.375.8125.1445918.273507.3156161.535615.5.78125s.3737765.473472.59375.6875c.439947.428056.94291.814526 1.5 1.09375.278545.139612.5734731.246947.875.34375-.2562018-.100222-.4867109-.236272-.71875-.375-.00741-.0044-.023866.0045-.03125 0-.031933-.0193-.062293-.04251-.09375-.0625-.120395-.0767-.2310226-.163513-.34375-.25-.1061728-.0808-.2132809-.161112-.3125-.25-.1779299-.161433-.3474596-.345388-.5-.53125-.1075789-.130255-.2183939-.265285-.3125-.40625-.025089-.03838-.038446-.08587-.0625-.125-.064763-.103032-.1302275-.204517-.1875-.3125-.1010083-.194706-.2056748-.415701-.28125-.625-.00796-.02181-.023589-.04055-.03125-.0625-.0318251-.09195-.0358045-.186831-.0625-.28125-.0303323-.106618-.0703894-.203031-.09375-.3125-.0728786-.341512-.125-.698205-.125-1.0625v-2-68-2c0-2.781848 2.2181517-5 5-5h2 68 2c2.781848 0 5 2.218152 5 5v2 68 2c0 .364295-.05212.720988-.125 1.0625-.04415.206893-.08838.397658-.15625.59375-.0077.02195-.0233.04069-.03125.0625-.06274.173739-.138383.367449-.21875.53125-.04158.0828-.07904.169954-.125.25-.0546.09721-.126774.18835-.1875.28125-.09411.140965-.204921.275995-.3125.40625-.143174.17445-.303141.346998-.46875.5-.01117.0102-.01998.02115-.03125.03125-.138386.125556-.285091.234436-.4375.34375-.102571.07315-.204318.153364-.3125.21875-.0074.0045-.02384-.0044-.03125 0-.232039.138728-.462548.274778-.71875.375.301527-.0968.596455-.204138.875-.34375.55709-.279224 1.060053-.665694 1.5-1.09375.219973-.214028.409366-.441865.59375-.6875s.355408-.507743.5-.78125c.14012-.265048.276135-.524729.375-.8125.01041-.03078.02133-.06274.03125-.09375.09046-.278085.1388-.579404.1875-.875.0524-.31805.09375-.634029.09375-.96875v-2-68-2c0-3.324-2.676-6-6-6z" fill="url(#b)" opacity=".01"/><path d="m12 90c-3.324 0-6-2.676-6-6v-2-68-2c0-.334721.04135-.6507.09375-.96875.0487-.295596.09704-.596915.1875-.875.00988-.03038.020892-.0636.03125-.09375.098865-.287771.2348802-.547452.375-.8125.1445918-.273507.3156161-.535615.5-.78125s.3737765-.473472.59375-.6875c.439947-.428056.94291-.814526 1.5-1.09375.278545-.139612.5734731-.246947.875-.34375-.2562018.100222-.4867109.236272-.71875.375-.00741.0044-.023866-.0045-.03125 0-.031933.0193-.062293.04251-.09375.0625-.120395.0767-.2310226.163513-.34375.25-.1061728.0808-.2132809.161112-.3125.25-.1779299.161433-.3474596.345388-.5.53125-.1075789.130255-.2183939.265285-.3125.40625-.025089.03838-.038446.08587-.0625.125-.064763.103032-.1302275.204517-.1875.3125-.1010083.194706-.2056748.415701-.28125.625-.00796.02181-.023589.04055-.03125.0625-.0318251.09195-.0358045.186831-.0625.28125-.0303323.106618-.0703894.203031-.09375.3125-.0728786.341512-.125.698205-.125 1.0625v2 68 2c0 2.781848 2.2181517 5 5 5h2 68 2c2.781848 0 5-2.218152 5-5v-2-68-2c0-.364295-.05212-.720988-.125-1.0625-.04415-.206893-.08838-.397658-.15625-.59375-.0077-.02195-.0233-.04069-.03125-.0625-.06274-.173739-.138383-.367449-.21875-.53125-.04158-.0828-.07904-.169954-.125-.25-.0546-.09721-.126774-.18835-.1875-.28125-.09411-.140965-.204921-.275995-.3125-.40625-.143174-.17445-.303141-.346998-.46875-.5-.01117-.0102-.01998-.02115-.03125-.03125-.138386-.125556-.285091-.234436-.4375-.34375-.102571-.07315-.204318-.153364-.3125-.21875-.0074-.0045-.02384.0044-.03125 0-.232039-.138728-.462548-.274778-.71875-.375.301527.0968.596455.204138.875.34375.55709.279224 1.060053.665694 1.5 1.09375.219973.214028.409366.441865.59375.6875s.355408.507743.5.78125c.14012.265048.276135.524729.375.8125.01041.03078.02133.06274.03125.09375.09046.278085.1388.579404.1875.875.0524.31805.09375.634029.09375.96875v2 68 2c0 3.324-2.676 6-6 6z" fill="url(#c)" opacity=".15"/></g><g><path d="m41 19c-1.367722 0-2.339854 1.049789-2.6875 2.3125-.90076.247995-1.527558.831171-1.875 1.6875h-3.4375-1c-3.284037 0-6 2.715963-6 6v1 38 1c0 3.284037 2.715963 6 6 6h1 1.5625c.822103 2.272968 2.866254 4 5.4375 4h28c3.284037 0 6-2.715963 6-6v-36c0-2.571246-1.727032-4.615397-4-5.4375v-1.5625-1c0-3.284037-2.715963-6-6-6h-1-3.4375c-.347442-.856329-.97424-1.439505-1.875-1.6875-.347646-1.262711-1.319778-2.3125-2.6875-2.3125zm3 22h20v28h-20z" opacity=".1"/><path d="m41 20c-1.082517 0-2 .917483-2 2-1.082517 0-2 .917483-2 2h-4-1c-2.744517 0-5 2.255483-5 5v1 38 1c0 2.744517 2.255483 5 5 5h1 2.21875c.479051 2.25096 2.39151 4 4.78125 4h28c2.744517 0 5-2.255483 5-5v-36c0-2.38974-1.74904-4.302199-4-4.78125v-2.21875-1c0-2.744517-2.255483-5-5-5h-1-4c0-1.082517-.917483-2-2-2 0-1.082517-.917483-2-2-2zm4 4h6v2h-6zm-1 16h20c.579483 0 1 .420517 1 1v28c0 .579483-.420517 1-1 1h-20c-.579483 0-1-.420517-1-1v-28c0-.579483.420517-1 1-1z" opacity=".15"/><path d="m41 21c-.554 0-1 .446-1 1v1h-1c-.554 0-1 .446-1 1v1h-5-1c-2.216 0-4 1.784-4 4v1 38 1c0 2.216 1.784 4 4 4h1 3c0 2.216 1.784 4 4 4h28c2.216 0 4-1.784 4-4v-36c0-2.216-1.784-4-4-4v-3-1c0-2.216-1.784-4-4-4h-1-5v-1c0-.554-.446-1-1-1h-1v-1c0-.554-.446-1-1-1zm4 2h6c.554 0 1 .446 1 1v2c0 .554-.446 1-1 1h-6c-.554 0-1-.446-1-1v-2c0-.554.446-1 1-1zm-1 16h20c1.108 0 2 .892 2 2v28c0 1.108-.892 2-2 2h-20c-1.108 0-2-.892-2-2v-28c0-1.108.892-2 2-2z" opacity=".3"/><path d="m41 20c-.554 0-1 .446-1 1v1h-1c-.554 0-1 .446-1 1v1h-5-1c-2.216 0-4 1.784-4 4v1 38 1c0 2.216 1.784 4 4 4h1 3c0 2.216 1.784 4 4 4h28c2.216 0 4-1.784 4-4v-36c0-2.216-1.784-4-4-4v-3-1c0-2.216-1.784-4-4-4h-1-5v-1c0-.554-.446-1-1-1h-1v-1c0-.554-.446-1-1-1zm4 2h6c.554 0 1 .446 1 1v2c0 .554-.446 1-1 1h-6c-.554 0-1-.446-1-1v-2c0-.554.446-1 1-1zm-1 16h20c1.108 0 2 .892 2 2v28c0 1.108-.892 2-2 2h-20c-1.108 0-2-.892-2-2v-28c0-1.108.892-2 2-2z" fill="url(#d)"/><path d="m41 20c-.554 0-1 .446-1 1v1c0-.554.446-1 1-1h14c.554 0 1 .446 1 1v-1c0-.554-.446-1-1-1zm15 2v1h1c.554 0 1 .446 1 1v-1c0-.554-.446-1-1-1zm2 2v1h5 1c2.216 0 4 1.784 4 4v-1c0-2.216-1.784-4-4-4h-1zm-18-2h-1c-.554 0-1 .446-1 1v1c0-.554.446-1 1-1h1zm-2 2h-5-1c-2.216 0-4 1.784-4 4v1c0-2.216 1.784-4 4-4h1 5zm6 1v1c0 .554.446 1 1 1h6c.554 0 1-.446 1-1v-1c0 .554-.446 1-1 1h-6c-.554 0-1-.446-1-1zm24 7v1c2.216 0 4 1.784 4 4v-1c0-2.216-1.784-4-4-4zm-26 36v1c0 1.108.892 2 2 2h20c1.108 0 2-.892 2-2v-1c0 1.108-.892 2-2 2h-20c-1.108 0-2-.892-2-2z" fill="#fff" opacity=".75"/><path d="m45 21c-.554 0-1 .446-1 1v1c0-.554.446-1 1-1h6c.554 0 1 .446 1 1v-1c0-.554-.446-1-1-1zm-1 16c-1.108 0-2 .892-2 2v1c0-1.108.892-2 2-2h20c1.108 0 2 .892 2 2v-1c0-1.108-.892-2-2-2zm-16 30v1c0 2.216 1.784 4 4 4h1 3c0 2.216 1.784 4 4 4h28c2.216 0 4-1.784 4-4v-1c0 2.216-1.784 4-4 4h-28c-2.216 0-4-1.784-4-4h-3-1c-2.216 0-4-1.784-4-4z" opacity=".15"/></g></svg>