<svg height="96" width="96" xmlns="http://www.w3.org/2000/svg" xmlns:xlink="http://www.w3.org/1999/xlink"><linearGradient id="a"><stop offset="0" stop-color="#f0f0f0"/><stop offset="1" stop-color="#aaa"/></linearGradient><linearGradient id="b"><stop offset="0" stop-color="#fff"/><stop offset="1" stop-color="#fff" stop-opacity="0"/></linearGradient><linearGradient id="c" gradientUnits="userSpaceOnUse" x1="36.357143" x2="36.357143" xlink:href="#b" y1="6" y2="63.893143"/><radialGradient id="d" cx="48" cy="90.171875" gradientTransform="matrix(1.1573129 0 0 .99590774 -7.551021 .197132)" gradientUnits="userSpaceOnUse" r="42" xlink:href="#b"/><linearGradient id="e" gradientTransform="matrix(1.0058652 0 0 .994169 100 0)" gradientUnits="userSpaceOnUse" x1="45.447727" x2="45.447727" y1="92.539597" y2="7.01654"><stop offset="0"/><stop offset="1" stop-opacity=".588235"/></linearGradient><linearGradient id="f" gradientTransform="matrix(1.0238095 0 0 -1.0119048 -1.142857 98.071429)" gradientUnits="userSpaceOnUse" x1="32.251034" x2="32.251034" xlink:href="#e" y1="6.131708" y2="90.238609"/><linearGradient id="g" gradientTransform="matrix(1 0 0 -1 0 97)" gradientUnits="userSpaceOnUse" x1="32.251034" x2="32.251034" xlink:href="#e" y1="6.131708" y2="90.238609"/><linearGradient id="h" gradientUnits="userSpaceOnUse" x1="0" x2="16" xlink:href="#a" y1="112" y2="112"/><linearGradient id="i" gradientUnits="userSpaceOnUse" x1="-40" x2="-24" y1="112" y2="112"><stop offset="0" stop-color="#c80000"/><stop offset="1" stop-color="#f3604d"/></linearGradient><linearGradient id="j" gradientTransform="matrix(-2.669076 0 0 3.1691493 171.99415 18.59292)" gradientUnits="userSpaceOnUse" x1="46.069901" x2="46.069901" xlink:href="#a" y1=".921276" y2="17.478098"/><g fill="url(#f)"><path d="m12 3.96875c-5.5110902 0-10.03125 4.5201598-10.03125 10.03125v71c0 5.51109 4.5201597 10.03125 10.03125 10.03125h72c5.51109 0 10.03125-4.52016 10.03125-10.03125v-71c0-5.5110903-4.52016-10.03125-10.03125-10.03125zm0 2.03125h72c3.324 0 6 2.676 6 6v72c0 3.324-2.676 6-6 6h-72c-3.324 0-6-2.676-6-6v-72c0-3.324 2.676-6 6-6z" opacity=".08"/><path d="m12 4.96875c-4.9716329 0-9.03125 4.0596171-9.03125 9.03125v71c0 4.971633 4.059617 9.03125 9.03125 9.03125h72c4.971633 0 9.03125-4.059617 9.03125-9.03125v-71c0-4.971633-4.059617-9.03125-9.03125-9.03125zm0 1.03125h72c3.324 0 6 2.676 6 6v72c0 3.324-2.676 6-6 6h-72c-3.324 0-6-2.676-6-6v-72c0-3.324 2.676-6 6-6z" opacity=".1"/><path d="m11.1875 6.03125c-4.027518.4106511-7.1875 3.8351875-7.1875 7.96875v71c0 4.409133 3.590867 8 8 8h72c4.409133 0 8-3.590867 8-8v-71c0-4.1970618-3.258972-7.6460416-7.375-7.96875 3.032886.306167 5.375 2.8525 5.375 5.96875v72c0 3.324-2.676 6-6 6h-72c-3.324 0-6-2.676-6-6v-72c0-3.11625 2.342114-5.662583 5.375-5.96875-.06227.00488-.12563-.00631-.1875 0z" opacity=".2"/><path d="m6.4375 9.75c-.8994891 1.177446-1.4375 2.647277-1.4375 4.25v71c0 3.878 3.122 7 7 7h72c3.878 0 7-3.122 7-7v-71c0-1.602723-.538011-3.072554-1.4375-4.25.279316.694095.4375 1.453625.4375 2.25v72c0 3.324-2.676 6-6 6h-72c-3.324 0-6-2.676-6-6v-72c0-.796375.1581836-1.555905.4375-2.25z" opacity=".3"/></g><path d="m6 84v1c0 3.324 2.676 6 6 6h72c3.324 0 6-2.676 6-6v-1c0 3.324-2.676 6-6 6h-72c-3.324 0-6-2.676-6-6z" fill="url(#g)" opacity=".45"/><g><rect height="84" opacity=".6" rx="6" width="84" x="6" y="6"/><path d="m12 6c-3.324 0-6 2.676-6 6v2 68 2c0 .334721.04135.6507.09375.96875.0487.295596.09704.596915.1875.875.00988.03038.020892.0636.03125.09375.098865.287771.2348802.547452.375.8125.1445918.273507.3156161.535615.5.78125s.3737765.473472.59375.6875c.439947.428056.94291.814526 1.5 1.09375.278545.139612.5734731.246947.875.34375-.2562018-.100222-.4867109-.236272-.71875-.375-.00741-.0044-.023866.0045-.03125 0-.031933-.0193-.062293-.04251-.09375-.0625-.120395-.0767-.2310226-.163513-.34375-.25-.1061728-.0808-.2132809-.161112-.3125-.25-.1779299-.161433-.3474596-.345388-.5-.53125-.1075789-.130255-.2183939-.265285-.3125-.40625-.025089-.03838-.038446-.08587-.0625-.125-.064763-.103032-.1302275-.204517-.1875-.3125-.1010083-.194706-.2056748-.415701-.28125-.625-.00796-.02181-.023589-.04055-.03125-.0625-.0318251-.09195-.0358045-.186831-.0625-.28125-.0303323-.106618-.0703894-.203031-.09375-.3125-.0728786-.341512-.125-.698205-.125-1.0625v-2-68-2c0-2.781848 2.2181517-5 5-5h2 68 2c2.781848 0 5 2.218152 5 5v2 68 2c0 .364295-.05212.720988-.125 1.0625-.04415.206893-.08838.397658-.15625.59375-.0077.02195-.0233.04069-.03125.0625-.06274.173739-.138383.367449-.21875.53125-.04158.0828-.07904.169954-.125.25-.0546.09721-.126774.18835-.1875.28125-.09411.140965-.204921.275995-.3125.40625-.143174.17445-.303141.346998-.46875.5-.01117.0102-.01998.02115-.03125.03125-.138386.125556-.285091.234436-.4375.34375-.102571.07315-.204318.153364-.3125.21875-.0074.0045-.02384-.0044-.03125 0-.232039.138728-.462548.274778-.71875.375.301527-.0968.596455-.204138.875-.34375.55709-.279224 1.060053-.665694 1.5-1.09375.219973-.214028.409366-.441865.59375-.6875s.355408-.507743.5-.78125c.14012-.265048.276135-.524729.375-.8125.01041-.03078.02133-.06274.03125-.09375.09046-.278085.1388-.579404.1875-.875.0524-.31805.09375-.634029.09375-.96875v-2-68-2c0-3.324-2.676-6-6-6z" fill="url(#c)" opacity=".01"/><path d="m12 90c-3.324 0-6-2.676-6-6v-2-68-2c0-.334721.04135-.6507.09375-.96875.0487-.295596.09704-.596915.1875-.875.00988-.03038.020892-.0636.03125-.09375.098865-.287771.2348802-.547452.375-.8125.1445918-.273507.3156161-.535615.5-.78125s.3737765-.473472.59375-.6875c.439947-.428056.94291-.814526 1.5-1.09375.278545-.139612.5734731-.246947.875-.34375-.2562018.100222-.4867109.236272-.71875.375-.00741.0044-.023866-.0045-.03125 0-.031933.0193-.062293.04251-.09375.0625-.120395.0767-.2310226.163513-.34375.25-.1061728.0808-.2132809.161112-.3125.25-.1779299.161433-.3474596.345388-.5.53125-.1075789.130255-.2183939.265285-.3125.40625-.025089.03838-.038446.08587-.0625.125-.064763.103032-.1302275.204517-.1875.3125-.1010083.194706-.2056748.415701-.28125.625-.00796.02181-.023589.04055-.03125.0625-.0318251.09195-.0358045.186831-.0625.28125-.0303323.106618-.0703894.203031-.09375.3125-.0728786.341512-.125.698205-.125 1.0625v2 68 2c0 2.781848 2.2181517 5 5 5h2 68 2c2.781848 0 5-2.218152 5-5v-2-68-2c0-.364295-.05212-.720988-.125-1.0625-.04415-.206893-.08838-.397658-.15625-.59375-.0077-.02195-.0233-.04069-.03125-.0625-.06274-.173739-.138383-.367449-.21875-.53125-.04158-.0828-.07904-.169954-.125-.25-.0546-.09721-.126774-.18835-.1875-.28125-.09411-.140965-.204921-.275995-.3125-.40625-.143174-.17445-.303141-.346998-.46875-.5-.01117-.0102-.01998-.02115-.03125-.03125-.138386-.125556-.285091-.234436-.4375-.34375-.102571-.07315-.204318-.153364-.3125-.21875-.0074-.0045-.02384.0044-.03125 0-.232039-.138728-.462548-.274778-.71875-.375.301527.0968.596455.204138.875.34375.55709.279224 1.060053.665694 1.5 1.09375.219973.214028.409366.441865.59375.6875s.355408.507743.5.78125c.14012.265048.276135.524729.375.8125.01041.03078.02133.06274.03125.09375.09046.278085.1388.579404.1875.875.0524.31805.09375.634029.09375.96875v2 68 2c0 3.324-2.676 6-6 6z" fill="url(#d)" opacity=".15"/></g><g><path d="m33.8125 19c-.501919-.01094-.990178.196756-.96875.1875-.624186.269596-.998155.744348-1.125.90625-.160869.205329-.2683.371128-.34375.46875-.0057.0073-.02604.02473-.03125.03125-.03126.03928-.06128.09206-.0625.09375-.0017.0023-.09226.15377-.09375.15625-.0015.0025-.09248.153649-.09375.15625-.0013.0026-.06147.153549-.0625.15625a.94916244.94916244 0 0 0 -.03125.03125s-.218585.679735-.46875 1.59375c-.246486.90057-.549278 2.056194-.53125 3.25.03542 2.345984.67034 5.729022 1.8125 8.84375 2.291893 6.250116 5.471771 13.030197 8.3125 18.0625.0012.0021.06115.123028.0625.125.0014.002.09226.123131.09375.125.0015.0019.09213.09199.09375.09375.0016.0018.092.123365.09375.125.0017.0016.12314.09224.125.09375.0019.0015.09179.09238.09375.09375.002.0014.122943.06128.125.0625.0021.0012.12286.06143.125.0625.0021.0011.154039.06159.15625.0625.0022.000912.122729.06175.125.0625.0023.00075.122681.03066.125.03125.0023.000585.153894.03083.15625.03125.0024.000416.122621.03101.125.03125.000952.000098.03529-.0018.0625 0-.108671.371347-.229378.813979-.34375 1.15625-.402761 1.205318-.961996 2.326867-1.15625 2.625-3.356775.06301-6.551679 2.219117-8.5 5.5625-1.335734 2.292163-1.871924 4.814884-1.59375 7.125.279101 2.317817 1.433038 4.4873 3.53125 5.6875 2.088642 1.194726 4.566923 1.139718 6.71875.21875 2.138936-.915451 4.043551-2.65269 5.375-4.9375 1.020611-1.751401 1.423802-3.604516 1.5-5.375.000341-.000655.02331-.01454.03125-.03125.01853-.03899.03057-.09217.03125-.09375.000971-.0023.0617-.153924.0625-.15625.000801-.0023.03062-.122621.03125-.125.000626-.0024.0308-.153831.03125-.15625.000448-.0024.03098-.153804.03125-.15625.000267-.0024-.000085-.122541 0-.125.000085-.0025.000098-.153792 0-.15625-.02714-1.108628.09517-2.494781.53125-3.59375.01016-.0256.02113-.03742.03125-.0625.0055.01206.02737.05272.03125.0625.436079 1.098962.558394 2.485117.53125 3.59375a.94916244.94916244 0 0 0 0 .03125c-.000026.0023-.000139.122668 0 .125.000139.0023-.000303.153934 0 .15625.000303.0023.03079.122711.03125.125.000465.0023.03063.122749.03125.125.000625.0023.03047.154049.03125.15625.000782.0022.06157.12286.0625.125.000655.0015.0135.0568.03125.09375.00042.01137.0308.01987.03125.03125.07075 1.781667.472674 3.643328 1.5 5.40625 1.331449 2.28481 3.236064 4.022049 5.375 4.9375 2.151827.920968 4.630108.975976 6.71875-.21875 2.098212-1.2002 3.252149-3.369683 3.53125-5.6875.278174-2.310116-.258016-4.832837-1.59375-7.125-1.954324-3.353684-5.16316-5.512664-8.53125-5.5625-.115309-.176649-.274471-.474671-.46875-.90625-.000921-.0021-.06144-.122974-.0625-.125-.0011-.002-.0613-.123052-.0625-.125-.0012-.0019-.09242-.12314-.09375-.125-.0013-.0019-.06104-.09199-.0625-.09375-.0015-.0018-.09217-.123341-.09375-.125-.0016-.0017-.123313-.0922-.125-.09375-.0017-.0015-.09196-.06107-.09375-.0625-.0018-.0014-.09187-.09245-.09375-.09375-.0019-.0013-.123031-.06133-.125-.0625-.002-.0012-.122955-.09272-.125-.09375-.002-.001-.122889-.03037-.125-.03125-.0021-.000884-.122833-.06176-.125-.0625 3.285931-5.110778 7.25731-13.19384 10.0625-20.84375 1.142161-3.114728 1.777078-6.497764 1.8125-8.84375.01803-1.193806-.284764-2.34943-.53125-3.25-.250165-.914015-.46875-1.59375-.46875-1.59375a.94916244.94916244 0 0 0 -.03125-.03125c-.001-.0027-.06123-.153649-.0625-.15625-.0013-.0026-.09226-.15377-.09375-.15625-.0015-.0025-.09205-.153909-.09375-.15625-.0012-.0017-.03124-.05447-.0625-.09375-.0038-.0048-.02709-.02571-.03125-.03125-.08651-.115098-.242576-.381651-.5625-.71875-.206417-.2175-.505899-.452801-.90625-.625-.508641-.218776-1.040016-.26988-1.625-.09375-.977374.294432-1.516318 1.06502-1.9375 1.78125-.003.0051-.02826-.0051-.03125 0v.03125l-11.5625 19.21875-11.5625-19.21875c-.007-.01204-.02416-.01919-.03125-.03125-.341889-.581391-.825189-1.133586-1.5-1.5-.000179-.000209-.02196-.0221-.03125-.03125-.04751-.02479-.07511-.07145-.125-.09375-.03315-.02519-.03926-.04807-.0625-.0625-.07901-.04905-.148946-.06731-.21875-.09375-.01232-.0047-.01839-.02666-.03125-.03125-.171452-.061211-.376745-.088338-.625-.09375zm6.0625 46c.09929-.004.145741.0074.1875.03125.07404.04235.21281.137206.25.6875.03511.519564-.128423 1.35773-.59375 2.15625-.470347.807129-1.113605 1.386742-1.59375 1.625-.519415.257745-.6996.185079-.75.15625-.07569-.04329-.212554-.129112-.25-.6875-.03557-.53036.132736-1.396384.59375-2.1875.695231-1.19304 1.915314-1.771424 2.15625-1.78125zm16.25 0c.240933.0098 1.461019.58821 2.15625 1.78125.461014.791116.629316 1.65714.59375 2.1875-.03745.558388-.174312.644206-.25.6875-.0504.02883-.230584.101495-.75-.15625-.480145-.238258-1.123403-.817871-1.59375-1.625-.465328-.798519-.628863-1.636685-.59375-2.15625.03719-.550294.175962-.645149.25-.6875.04176-.02389.08821-.0353.1875-.03125z" opacity=".1"/><path d="m33.78125 19.9375c-.309864-.0068-.467432.08393-.5625.125-.419676.181265-.601107.434957-.75.625s-.263276.3602-.375.5a1.0484162 1.0484162 0 0 0 -.1875.3125s-.227331.649191-.46875 1.53125-.515286 1.98775-.5 3c.03282 2.173439.676235 5.517818 1.78125 8.53125 2.271177 6.193623 5.409501 12.929713 8.21875 17.90625a1.0484162 1.0484162 0 0 0 1.90625-.21875c.528542-1.950379 1.108376-4.006687 2.0625-5.71875a1.0484162 1.0484162 0 0 0 .03125-.03125 1.0484162 1.0484162 0 0 0 .03125-.03125l2.53125-4.21875a1.0484162 1.0484162 0 0 0 0-1.0625l-11.875-19.78125c-.40187-.689629-.741737-1.165402-1.4375-1.375.02352.0071-.09633-.08699-.40625-.09375zm28.03125.09375c-.695765.209598-1.03563.685373-1.4375 1.375l-15.15625 25.25a1.0484162 1.0484162 0 0 0 0 .03125c-1.430993 2.548454-2.069156 6.026601-2.96875 8.71875-.44852 1.342258-1.025426 2.575666-1.375 3.03125a1.0484162 1.0484162 0 0 0 -.0625.09375c-.07579.129696-.05662.07314-.03125.0625.02175-.0091-.05331-.0043-.1875 0-.02236.000719-.0034 0-.03125 0-3.066715-.10503-6.176339 1.919535-8.0625 5.15625-1.238142 2.124691-1.719688 4.447316-1.46875 6.53125s1.265443 3.972064 3.0625 5c1.79441 1.026422 3.94657.981606 5.875.15625s3.701279-2.409855 4.9375-4.53125c1.002437-1.720213 1.414374-3.540993 1.4375-5.28125a1.0484162 1.0484162 0 0 0 .15625-.59375c-.02907-1.187449.08244-2.680188.59375-3.96875.60774-1.531429 1.3469-2.669909 4.09375-3.46875.498463-.135491.935719-.357298 1.28125-.875 3.316857-4.772801 7.797794-13.934979 10.8125-22.15625 1.105016-3.013432 1.748433-6.35781 1.78125-8.53125.01529-1.01225-.258581-2.117941-.5-3s-.46875-1.53125-.46875-1.53125a1.0484162 1.0484162 0 0 0 -.1875-.3125c-.155693-.194817-.27362-.416039-.53125-.6875-.128815-.135731-.31961-.288337-.59375-.40625s-.66362-.15437-.96875-.0625zm-8.28125 36.53125a1.0484162 1.0484162 0 0 0 -.90625.4375c-.411437.554572-.70575.702886-1.3125.875a1.0484162 1.0484162 0 0 0 -.375.1875 1.0484162 1.0484162 0 0 0 -.09375.0625c-.802858.267726-1.545515.526522-2.03125.90625a1.0484162 1.0484162 0 0 0 -.28125 1.3125c.142022.265727.286994.496985.375.71875.511313 1.288558.622824 2.781297.59375 3.96875a1.0484162 1.0484162 0 0 0 .15625.5625c.01755 1.74933.429183 3.582198 1.4375 5.3125 1.236221 2.121395 3.00907 3.705894 4.9375 4.53125s4.08059.870172 5.875-.15625c1.797057-1.027936 2.811562-2.916066 3.0625-5s-.230608-4.406559-1.46875-6.53125c-1.886161-3.236715-4.995785-5.26128-8.0625-5.15625-.02781 0-.0089.000719-.03125 0-.134185-.0043-.209248-.0091-.1875 0 .02537.01064.04454.0672-.03125-.0625a1.0484162 1.0484162 0 0 0 -.0625-.09375c-.186818-.243472-.43989-.69995-.6875-1.25a1.0484162 1.0484162 0 0 0 -.90625-.625zm-13.6875 7.5c.235327-.0096.469547.03158.6875.15625.392092.224281.667782.683339.71875 1.4375.05097.754161-.164228 1.735919-.71875 2.6875-.555161.952672-1.303988 1.654624-2 2s-1.240166.345129-1.625.125c-.387349-.221568-.66752-.67356-.71875-1.4375s.1653-1.769011.71875-2.71875c.833879-1.430964 2.12617-2.216912 2.9375-2.25zm16.3125 0c.811328.03309 2.103621.819036 2.9375 2.25.55345.949739.76998 1.95481.71875 2.71875s-.331401 1.215932-.71875 1.4375c-.384835.22013-.928988.220376-1.625-.125s-1.444839-1.047328-2-2c-.554523-.951581-.769718-1.933339-.71875-2.6875.05097-.754161.326658-1.213219.71875-1.4375.217956-.124672.452173-.165845.6875-.15625z" opacity=".15"/><path d="m33.75 21c-.04115-.000897-.08502.01398-.125.03125-.23987.103604-.43058.451915-.71875.8125 0 0-.93044 2.55437-.90625 4.15625.0299 1.98013.62789 5.29789 1.6875 8.1875 2.248208 6.130985 5.382447 12.867505 8.15625 17.78125.534437-1.972132 1.139806-4.102914 2.1875-5.96875a2.4115845 2.4115845 0 0 1 .03125-.0625l2.53125-4.21875-11.875-19.78125c-.34087-.58495-.625658-.84055-.84375-.90625-.045436-.01368-.083854-.030353-.125-.03125zm28.375.03125c-.218093.0657-.502879.3213-.84375.90625l-15.15625 25.25c-1.283442 2.28568-1.939407 5.76262-2.875 8.5625-.467798 1.39995-1.019454 2.6455-1.53125 3.3125-.31877.54547-.693921.59375-1.15625.59375-2.570274-.10003-5.425829 1.65554-7.15625 4.625-2.260599 3.87926-1.717854 8.41398 1.21875 10.09375s7.114402-.12074 9.375-4c1.040547-1.78561 1.48363-3.6917 1.375-5.40625l.0625.09375c-.03135-1.28043.09966-2.89357.6875-4.375.674259-1.69905 1.786415-3.22279 4.78125-4.09375.257893-.0701.538222-.24509.6875-.46875 3.208805-4.61732 7.734238-13.79857 10.71875-21.9375 1.059611-2.88961 1.657602-6.20737 1.6875-8.1875.02419-1.60188-.90625-4.15625-.90625-4.15625-.384228-.48078-.605263-.92194-.96875-.8125zm-8.65625 36.59375c-.548457.739261-1.152462 1.045041-1.875 1.25v.03125c-1.054621.306705-1.687041.595121-2.125.9375.146831.274724.292202.556363.40625.84375.587847 1.48143.71885 3.09457.6875 4.375l.0625-.09375c-.10863 1.71455.334453 3.62064 1.375 5.40625 2.260599 3.87926 6.438396 5.67977 9.375 4s3.479348-6.21449 1.21875-10.09375c-1.730421-2.96946-4.585976-4.72503-7.15625-4.625-.462328 0-.837479-.04828-1.15625-.59375-.264722-.345-.542617-.837973-.8125-1.4375zm-13.65625 5.375c.443902-.0181.873587.09719 1.25.3125 1.505653.86125 1.673684 3.33391.375 5.5625-1.298685 2.22858-3.556847 3.36125-5.0625 2.5s-1.673685-3.36516-.375-5.59375c.974014-1.67144 2.480795-2.72694 3.8125-2.78125zm16.375 0c1.331704.05431 2.838486 1.10981 3.8125 2.78125 1.298685 2.22859 1.130653 4.7325-.375 5.59375-1.505654.86125-3.763815-.27142-5.0625-2.5-1.298685-2.22859-1.130653-4.70125.375-5.5625.376414-.21531.806098-.3306 1.25-.3125z" opacity=".3"/><path d="m0 104h16v16h-16z" fill="url(#h)" transform="matrix(0 1 1 0 0 0)"/><text font-family="Liberation Sans" font-size="4" letter-spacing="0" word-spacing="0" x="104" y="48"><tspan x="104" y="48">Shadow opacity : 30, 15, 10, (8)</tspan></text><path d="m-40 104h16v16h-16z" fill="url(#i)" transform="rotate(-90)"/><text font-family="Liberation Sans" font-size="4" letter-spacing="0" word-spacing="0" x="124" y="32"><tspan x="124" y="32">Bevel opacity : 30 / 10</tspan></text><text font-family="Liberation Sans" font-size="4" letter-spacing="0" word-spacing="0" x="124" y="8"><tspan x="124" y="8">Bevel opacity : 75 / 15</tspan></text><path d="m33.75 20c-.04115-.000897-.08502.01398-.125.03125-.23987.103604-.43058.451915-.71875.8125 0 0-.93044 2.55437-.90625 4.15625.0299 1.98013.62789 5.29789 1.6875 8.1875 2.248208 6.130985 5.382447 12.867505 8.15625 17.78125.534437-1.972132 1.139806-4.102914 2.1875-5.96875a2.4115845 2.4115845 0 0 1 .03125-.0625l2.53125-4.21875-11.875-19.78125c-.34087-.58495-.625658-.84055-.84375-.90625-.045436-.01368-.083854-.030353-.125-.03125zm28.375.03125c-.218093.0657-.502879.3213-.84375.90625l-15.15625 25.25c-1.283442 2.28568-1.939407 5.76262-2.875 8.5625-.467798 1.39995-1.019454 2.6455-1.53125 3.3125-.31877.54547-.693921.59375-1.15625.59375-2.570274-.10003-5.425829 1.65554-7.15625 4.625-2.260599 3.87926-1.717854 8.41398 1.21875 10.09375s7.114402-.12074 9.375-4c1.040547-1.78561 1.48363-3.6917 1.375-5.40625l.0625.09375c-.03135-1.28043.09966-2.89357.6875-4.375.674259-1.69905 1.786415-3.22279 4.78125-4.09375.257893-.0701.538222-.24509.6875-.46875 3.208805-4.61732 7.734238-13.79857 10.71875-21.9375 1.059611-2.88961 1.657602-6.20737 1.6875-8.1875.02419-1.60188-.90625-4.15625-.90625-4.15625-.384228-.48078-.605263-.92194-.96875-.8125zm-8.65625 36.59375c-.548457.739261-1.152462 1.045041-1.875 1.25v.03125c-1.054621.306705-1.687041.595121-2.125.9375.146831.274724.292202.556363.40625.84375.587847 1.48143.71885 3.09457.6875 4.375l.0625-.09375c-.10863 1.71455.334453 3.62064 1.375 5.40625 2.260599 3.87926 6.438396 5.67977 9.375 4s3.479348-6.21449 1.21875-10.09375c-1.730421-2.96946-4.585976-4.72503-7.15625-4.625-.462328 0-.837479-.04828-1.15625-.59375-.264722-.345-.542617-.837973-.8125-1.4375zm-13.65625 5.375c.443902-.0181.873587.09719 1.25.3125 1.505653.86125 1.673684 3.33391.375 5.5625-1.298685 2.22858-3.556847 3.36125-5.0625 2.5s-1.673685-3.36516-.375-5.59375c.974014-1.67144 2.480795-2.72694 3.8125-2.78125zm16.375 0c1.331704.05431 2.838486 1.10981 3.8125 2.78125 1.298685 2.22859 1.130653 4.7325-.375 5.59375-1.505654.86125-3.763815-.27142-5.0625-2.5-1.298685-2.22859-1.130653-4.70125.375-5.5625.376414-.21531.806098-.3306 1.25-.3125z" fill="url(#j)"/><path d="m33.75 20c-.04115-.000897-.08502.01398-.125.03125-.23987.103604-.43058.451915-.71875.8125 0 0-.93044 2.55437-.90625 4.15625.0016.10809.02625.259226.03125.375.161887-1.562057.875-3.53125.875-3.53125.28817-.360585.47888-.708896.71875-.8125.03998-.01727.08385-.03215.125-.03125.04115.000897.07956.01757.125.03125.218092.0657.50288.3213.84375.90625l11.5625 19.28125.3125-.5-11.875-19.78125c-.34087-.58495-.625658-.84055-.84375-.90625-.045436-.01368-.083854-.030353-.125-.03125zm28.375.03125c-.218093.0657-.502879.3213-.84375.90625l-15.15625 25.25c-1.283442 2.28568-1.939407 5.76262-2.875 8.5625-.467798 1.39995-1.019454 2.6455-1.53125 3.3125-.31877.54547-.693921.59375-1.15625.59375-2.570274-.10003-5.425829 1.65554-7.15625 4.625-1.046917 1.796543-1.489906 3.739725-1.375 5.46875.08088-1.453951.527275-3.014027 1.375-4.46875 1.730421-2.96946 4.585976-4.72503 7.15625-4.625.462329 0 .83748-.04828 1.15625-.59375.511796-.667 1.063452-1.91255 1.53125-3.3125.935593-2.79988 1.591558-6.27682 2.875-8.5625l15.15625-25.25c.340871-.58495.625657-.84055.84375-.90625.363487-.10944.584522.33172.96875.8125 0 0 .713113 1.969193.875 3.53125.005-.115774.029618-.26691.03125-.375.02419-1.60188-.90625-4.15625-.90625-4.15625-.384228-.48078-.605263-.92194-.96875-.8125zm-8.65625 36.59375c-.548457.739261-1.152462 1.045041-1.875 1.25v.03125c-1.054621.306705-1.687041.595121-2.125.9375.131461.245967.267312.493785.375.75.412067-.239935.959034-.457471 1.75-.6875v-.03125c.722538-.204959 1.326543-.510739 1.875-1.25.269883.599527.547778 1.0925.8125 1.4375.318771.54547.693922.59375 1.15625.59375 2.570274-.10003 5.425829 1.65554 7.15625 4.625.847724 1.454723 1.294122 3.014799 1.375 4.46875.114906-1.729025-.328084-3.672207-1.375-5.46875-1.730421-2.96946-4.585976-4.72503-7.15625-4.625-.462328 0-.837479-.04828-1.15625-.59375-.264722-.345-.542617-.837973-.8125-1.4375zm-11.1875 8.78125c-.08517.798084-.362765 1.643361-.84375 2.46875-1.298685 2.22858-3.556847 3.36125-5.0625 2.5-.695847-.398032-1.107047-1.152089-1.21875-2.0625-.135501 1.353353.277717 2.524219 1.21875 3.0625 1.505653.86125 3.763815-.27142 5.0625-2.5.691639-1.186878.964619-2.423696.84375-3.46875zm11.4375 0c-.120869 1.045054.152111 2.281872.84375 3.46875 1.298685 2.22858 3.556846 3.36125 5.0625 2.5.941033-.538281 1.354251-1.709147 1.21875-3.0625-.111703.910411-.522903 1.664468-1.21875 2.0625-1.505654.86125-3.763815-.27142-5.0625-2.5-.480986-.825389-.758583-1.670666-.84375-2.46875z" fill="#fff" opacity=".75"/><path d="m32.03125 24.40625c-.0209.211244-.034123.403502-.03125.59375.0299 1.98013.62789 5.29789 1.6875 8.1875 2.248208 6.130985 5.382447 12.867505 8.15625 17.78125.534437-1.972132 1.139806-4.102914 2.1875-5.96875a2.4115845 2.4115845 0 0 1 .03125-.0625l2.53125-4.21875-.3125-.5-2.21875 3.71875a2.4115845 2.4115845 0 0 0 -.03125.0625c-1.047694 1.865836-1.653063 3.996618-2.1875 5.96875-2.773803-4.913745-5.908042-11.650265-8.15625-17.78125-.996978-2.718808-1.565279-5.775183-1.65625-7.78125zm31.9375 0c-.09097 2.006067-.659271 5.062442-1.65625 7.78125-2.984512 8.13893-7.509945 17.32018-10.71875 21.9375-.149278.22366-.429607.39865-.6875.46875-2.994835.87096-4.106991 2.3947-4.78125 4.09375-.58784 1.48143-.71885 3.09457-.6875 4.375.05118-1.063319.24662-2.263927.6875-3.375.674259-1.69905 1.786415-3.22279 4.78125-4.09375.257893-.0701.538222-.24509.6875-.46875 3.208805-4.61732 7.734238-13.79857 10.71875-21.9375 1.059611-2.88961 1.657602-6.20737 1.6875-8.1875.0029-.190248-.01035-.382506-.03125-.59375zm-18.53125 38.65625-.0625-.09375c.02067.326327.01961.661947 0 1l.0625.09375c-.0078-.320107-.01706-.64556 0-1zm-.0625.90625c-.08343 1.438105-.532498 2.960492-1.375 4.40625-2.260598 3.87926-6.438396 5.67977-9.375 4-1.568345-.897111-2.453375-2.602759-2.59375-4.59375-.125269 2.410489.766337 4.54845 2.59375 5.59375 2.936604 1.67977 7.114402-.12074 9.375-4 1.040547-1.78561 1.48363-3.6917 1.375-5.40625zm4.46875-5.375c-.137356.07998-.26551.164405-.375.25.146831.274724.292202.556363.40625.84375.440885 1.111073.636326 2.311681.6875 3.375.03135-1.28043-.09965-2.89357-.6875-4.375-.01194-.03008-.01866-.06379-.03125-.09375zm.71875 4.46875c.01706.35444.0078.679893 0 1l.0625-.09375c-.01961-.338053-.02067-.673673 0-1zm.0625.90625c-.10863 1.71455.334453 3.62064 1.375 5.40625 2.260599 3.87926 6.438396 5.67977 9.375 4 1.827413-1.0453 2.719019-3.183261 2.59375-5.59375-.140375 1.990991-1.025405 3.696639-2.59375 4.59375-2.936604 1.67977-7.114401-.12074-9.375-4-.842502-1.445758-1.291571-2.968145-1.375-4.40625zm-10.8125-2.96875c-1.331705.05431-2.838486 1.10981-3.8125 2.78125-.691639 1.186878-.964619 2.44666-.84375 3.5.08504-.803777.362556-1.674254.84375-2.5.974014-1.67144 2.480795-2.72694 3.8125-2.78125.443902-.0181.873587.09719 1.25.3125.695847.398032 1.107047 1.159268 1.21875 2.0625.135501-1.344197-.277717-2.524219-1.21875-3.0625-.376413-.21531-.806098-.3306-1.25-.3125zm16.375 0c-.443902-.0181-.873586.09719-1.25.3125-.941033.538281-1.354251 1.718303-1.21875 3.0625.111703-.903232.522903-1.664468 1.21875-2.0625.376414-.21531.806098-.3306 1.25-.3125 1.331704.05431 2.838486 1.10981 3.8125 2.78125.481194.825746.758714 1.696223.84375 2.5.120869-1.05334-.152111-2.313122-.84375-3.5-.974014-1.67144-2.480796-2.72694-3.8125-2.78125z" opacity=".15"/></g></svg>