<svg height="96" width="96" xmlns="http://www.w3.org/2000/svg" xmlns:xlink="http://www.w3.org/1999/xlink"><linearGradient id="a"><stop offset="0" stop-color="#f0f0f0"/><stop offset="1" stop-color="#aaa"/></linearGradient><linearGradient id="b"><stop offset="0" stop-color="#fff"/><stop offset="1" stop-color="#fff" stop-opacity="0"/></linearGradient><linearGradient id="c" gradientUnits="userSpaceOnUse" x1="36.357143" x2="36.357143" xlink:href="#b" y1="6" y2="63.893143"/><radialGradient id="d" cx="48" cy="90.171875" gradientTransform="matrix(1.1573129 0 0 .99590774 -7.551021 .197132)" gradientUnits="userSpaceOnUse" r="42" xlink:href="#b"/><linearGradient id="e" gradientTransform="matrix(1.0058652 0 0 .994169 100 0)" gradientUnits="userSpaceOnUse" x1="45.447727" x2="45.447727" y1="92.539597" y2="7.01654"><stop offset="0"/><stop offset="1" stop-opacity=".588235"/></linearGradient><linearGradient id="f" gradientTransform="matrix(1.0238095 0 0 -1.0119048 -1.142857 98.071429)" gradientUnits="userSpaceOnUse" x1="32.251034" x2="32.251034" xlink:href="#e" y1="6.131708" y2="90.238609"/><linearGradient id="g" gradientTransform="matrix(1 0 0 -1 0 97)" gradientUnits="userSpaceOnUse" x1="32.251034" x2="32.251034" xlink:href="#e" y1="6.131708" y2="90.238609"/><linearGradient id="h" gradientUnits="userSpaceOnUse" x1="0" x2="16" xlink:href="#a" y1="112" y2="112"/><linearGradient id="i" gradientUnits="userSpaceOnUse" x1="-40" x2="-24" y1="112" y2="112"><stop offset="0" stop-color="#c80000"/><stop offset="1" stop-color="#f3604d"/></linearGradient><linearGradient id="j" gradientUnits="userSpaceOnUse" x1="45.59377540245" x2="45.59377540245" xlink:href="#a" y1="24.14377812561" y2="72.00671004507"/><g fill="url(#f)"><path d="m12 3.96875c-5.5110902 0-10.03125 4.5201598-10.03125 10.03125v71c0 5.51109 4.5201597 10.03125 10.03125 10.03125h72c5.51109 0 10.03125-4.52016 10.03125-10.03125v-71c0-5.5110903-4.52016-10.03125-10.03125-10.03125zm0 2.03125h72c3.324 0 6 2.676 6 6v72c0 3.324-2.676 6-6 6h-72c-3.324 0-6-2.676-6-6v-72c0-3.324 2.676-6 6-6z" opacity=".08"/><path d="m12 4.96875c-4.9716329 0-9.03125 4.0596171-9.03125 9.03125v71c0 4.971633 4.059617 9.03125 9.03125 9.03125h72c4.971633 0 9.03125-4.059617 9.03125-9.03125v-71c0-4.971633-4.059617-9.03125-9.03125-9.03125zm0 1.03125h72c3.324 0 6 2.676 6 6v72c0 3.324-2.676 6-6 6h-72c-3.324 0-6-2.676-6-6v-72c0-3.324 2.676-6 6-6z" opacity=".1"/><path d="m11.1875 6.03125c-4.027518.4106511-7.1875 3.8351875-7.1875 7.96875v71c0 4.409133 3.590867 8 8 8h72c4.409133 0 8-3.590867 8-8v-71c0-4.1970618-3.258972-7.6460416-7.375-7.96875 3.032886.306167 5.375 2.8525 5.375 5.96875v72c0 3.324-2.676 6-6 6h-72c-3.324 0-6-2.676-6-6v-72c0-3.11625 2.342114-5.662583 5.375-5.96875-.06227.00488-.12563-.00631-.1875 0z" opacity=".2"/><path d="m6.4375 9.75c-.8994891 1.177446-1.4375 2.647277-1.4375 4.25v71c0 3.878 3.122 7 7 7h72c3.878 0 7-3.122 7-7v-71c0-1.602723-.538011-3.072554-1.4375-4.25.279316.694095.4375 1.453625.4375 2.25v72c0 3.324-2.676 6-6 6h-72c-3.324 0-6-2.676-6-6v-72c0-.796375.1581836-1.555905.4375-2.25z" opacity=".3"/></g><path d="m6 84v1c0 3.324 2.676 6 6 6h72c3.324 0 6-2.676 6-6v-1c0 3.324-2.676 6-6 6h-72c-3.324 0-6-2.676-6-6z" fill="url(#g)" opacity=".45"/><g><rect height="84" opacity=".6" rx="6" width="84" x="6" y="6"/><path d="m12 6c-3.324 0-6 2.676-6 6v2 68 2c0 .334721.04135.6507.09375.96875.0487.295596.09704.596915.1875.875.00988.03038.020892.0636.03125.09375.098865.287771.2348802.547452.375.8125.1445918.273507.3156161.535615.5.78125s.3737765.473472.59375.6875c.439947.428056.94291.814526 1.5 1.09375.278545.139612.5734731.246947.875.34375-.2562018-.100222-.4867109-.236272-.71875-.375-.00741-.0044-.023866.0045-.03125 0-.031933-.0193-.062293-.04251-.09375-.0625-.120395-.0767-.2310226-.163513-.34375-.25-.1061728-.0808-.2132809-.161112-.3125-.25-.1779299-.161433-.3474596-.345388-.5-.53125-.1075789-.130255-.2183939-.265285-.3125-.40625-.025089-.03838-.038446-.08587-.0625-.125-.064763-.103032-.1302275-.204517-.1875-.3125-.1010083-.194706-.2056748-.415701-.28125-.625-.00796-.02181-.023589-.04055-.03125-.0625-.0318251-.09195-.0358045-.186831-.0625-.28125-.0303323-.106618-.0703894-.203031-.09375-.3125-.0728786-.341512-.125-.698205-.125-1.0625v-2-68-2c0-2.781848 2.2181517-5 5-5h2 68 2c2.781848 0 5 2.218152 5 5v2 68 2c0 .364295-.05212.720988-.125 1.0625-.04415.206893-.08838.397658-.15625.59375-.0077.02195-.0233.04069-.03125.0625-.06274.173739-.138383.367449-.21875.53125-.04158.0828-.07904.169954-.125.25-.0546.09721-.126774.18835-.1875.28125-.09411.140965-.204921.275995-.3125.40625-.143174.17445-.303141.346998-.46875.5-.01117.0102-.01998.02115-.03125.03125-.138386.125556-.285091.234436-.4375.34375-.102571.07315-.204318.153364-.3125.21875-.0074.0045-.02384-.0044-.03125 0-.232039.138728-.462548.274778-.71875.375.301527-.0968.596455-.204138.875-.34375.55709-.279224 1.060053-.665694 1.5-1.09375.219973-.214028.409366-.441865.59375-.6875s.355408-.507743.5-.78125c.14012-.265048.276135-.524729.375-.8125.01041-.03078.02133-.06274.03125-.09375.09046-.278085.1388-.579404.1875-.875.0524-.31805.09375-.634029.09375-.96875v-2-68-2c0-3.324-2.676-6-6-6z" fill="url(#c)" opacity=".01"/><path d="m12 90c-3.324 0-6-2.676-6-6v-2-68-2c0-.334721.04135-.6507.09375-.96875.0487-.295596.09704-.596915.1875-.875.00988-.03038.020892-.0636.03125-.09375.098865-.287771.2348802-.547452.375-.8125.1445918-.273507.3156161-.535615.5-.78125s.3737765-.473472.59375-.6875c.439947-.428056.94291-.814526 1.5-1.09375.278545-.139612.5734731-.246947.875-.34375-.2562018.100222-.4867109.236272-.71875.375-.00741.0044-.023866-.0045-.03125 0-.031933.0193-.062293.04251-.09375.0625-.120395.0767-.2310226.163513-.34375.25-.1061728.0808-.2132809.161112-.3125.25-.1779299.161433-.3474596.345388-.5.53125-.1075789.130255-.2183939.265285-.3125.40625-.025089.03838-.038446.08587-.0625.125-.064763.103032-.1302275.204517-.1875.3125-.1010083.194706-.2056748.415701-.28125.625-.00796.02181-.023589.04055-.03125.0625-.0318251.09195-.0358045.186831-.0625.28125-.0303323.106618-.0703894.203031-.09375.3125-.0728786.341512-.125.698205-.125 1.0625v2 68 2c0 2.781848 2.2181517 5 5 5h2 68 2c2.781848 0 5-2.218152 5-5v-2-68-2c0-.364295-.05212-.720988-.125-1.0625-.04415-.206893-.08838-.397658-.15625-.59375-.0077-.02195-.0233-.04069-.03125-.0625-.06274-.173739-.138383-.367449-.21875-.53125-.04158-.0828-.07904-.169954-.125-.25-.0546-.09721-.126774-.18835-.1875-.28125-.09411-.140965-.204921-.275995-.3125-.40625-.143174-.17445-.303141-.346998-.46875-.5-.01117-.0102-.01998-.02115-.03125-.03125-.138386-.125556-.285091-.234436-.4375-.34375-.102571-.07315-.204318-.153364-.3125-.21875-.0074-.0045-.02384.0044-.03125 0-.232039-.138728-.462548-.274778-.71875-.375.301527.0968.596455.204138.875.34375.55709.279224 1.060053.665694 1.5 1.09375.219973.214028.409366.441865.59375.6875s.355408.507743.5.78125c.14012.265048.276135.524729.375.8125.01041.03078.02133.06274.03125.09375.09046.278085.1388.579404.1875.875.0524.31805.09375.634029.09375.96875v2 68 2c0 3.324-2.676 6-6 6z" fill="url(#d)" opacity=".15"/></g><g><path d="m40.9375 23c-4.843952 0-9.713417 1.820697-13.40625 5.5-7.385878 7.358815-7.385877 19.391184 0 26.75 6.235791 6.212947 15.784038 7.171398 23.0625 2.875.411355.02642.844548.03012 1.15625.09375.132966.02714.232013.08487.34375.125.000188.194814-.0049.45197 0 .875.01088.930421.340094 2.249073 1.25 3.40625.0058.0074-.0059.02388 0 .03125.0097.02119.02011.04204.03125.0625.03412.185723.121892.361271.25.5l10.375 10.5c.03005.02257.06136.04344.09375.0625.0491.03589.101472.06732.15625.09375.114588.101855.240781.242786.4375.375.41011.275632 1.022437.595464 1.78125.71875 1.553731.252438 3.511847-.331059 5.34375-2.15625 1.834352-1.827629 2.413005-3.790593 2.15625-5.34375-.240365-1.45401-1.113301-2.274545-1.25-2.40625-.0019-.0018.0016-.0297 0-.03125v-.03125l-10.3125-10.4375c-.06587-.07279-.07204-.07517-.03125-.03125-1.277141-1.374959-3.009631-1.548902-4.0625-1.5625-.411495-.0053-.642888-.000689-.84375 0-.03331-.101378-.070167-.190933-.09375-.3125-.061685-.317975-.098382-.747926-.125-1.15625 4.314838-7.256518 3.36263-16.785232-2.875-23-3.697067-3.683521-8.593873-5.5-13.4375-5.5zm.0625 9.625c5.156365 0 9.3125 4.12946 9.3125 9.25 0 5.120544-4.15613 9.25-9.3125 9.25-5.156756.000003-9.28125-4.122074-9.28125-9.25 0-2.55645 1.073419-4.892063 2.75-6.5625 1.680455-1.674298 3.934891-2.6875 6.53125-2.6875z" opacity=".1"/><path d="m40.9375 24c-4.591276 0-9.18841 1.732481-12.6875 5.21875-6.999344 6.973697-6.999343 18.338802 0 25.3125 6.002554 5.980564 15.228555 6.850372 22.15625 2.5625.489012.03056 1.040205.05601 1.53125.15625.58132.118672 1.029171.368578 1.0625.40625.01179.01333.06933.09876.09375.375.02442.276244-.0056.707659 0 1.1875.01103.94295.217153 2.253103 1.28125 3.25l-.03125.03125 10.375 10.5h.03125c.02679.02773.712218.77983 1.875.96875 1.18509.192544 2.809608-.221937 4.46875-1.875 1.658758-1.652679 2.070454-3.286413 1.875-4.46875-.189053-1.143615-.89012-1.829546-.9375-1.875l-.03125-.03125-10.34375-10.46875c-.01094-.01209-.02023-.01938-.03125-.03125-1.003651-1.080522-2.357535-1.237666-3.3125-1.25-.482726-.0062-.907386.02483-1.1875 0s-.361816-.08217-.375-.09375c-.03586-.03149-.263811-.458092-.375-1.03125-.093922-.48415-.127199-1.038972-.15625-1.53125 4.305031-6.904761 3.441012-16.112242-2.5625-22.09375-3.501331-3.488502-8.127474-5.21875-12.71875-5.21875zm.0625 7.625c5.695303 0 10.3125 4.583807 10.3125 10.25 0 5.666196-4.617193 10.25-10.3125 10.25-5.695299.000003-10.28125-4.580436-10.28125-10.25 0-2.833402 1.171882-5.428696 3.03125-7.28125 1.860543-1.853726 4.392361-2.96875 7.25-2.96875z" opacity=".15"/><path d="m40.9375 25c-4.337728 0-8.661532 1.6424-11.96875 4.9375-6.614435 6.590199-6.614434 17.2848 0 23.875 5.766309 5.745185 14.64906 6.521844 21.21875 2.25 1.116703.05582 2.922607.214234 3.5625.9375.871276.984794-.358454 3.280341 1.3125 4.78125l10.375 10.53125s1.934922 2.054077 4.9375-.9375c3.00258-2.991577.9375-4.90625.9375-4.90625l-10.40625-10.53125c-1.506432-1.664832-3.824086-.44442-4.8125-1.3125-.725929-.637547-.850237-2.418635-.90625-3.53125 4.287554-6.545616 3.516312-15.411072-2.25-21.15625-3.307218-3.2951-7.662272-4.9375-12-4.9375zm.0625 5.625c6.236149 0 11.3125 5.036699 11.3125 11.25 0 6.213304-5.076348 11.25-11.3125 11.25-6.236145.000003-11.28125-5.036696-11.28125-11.25 0-3.106651 1.267675-5.962669 3.3125-8 2.044825-2.037333 4.850676-3.25 7.96875-3.25z" opacity=".3"/><path d="m0 104h16v16h-16z" fill="url(#h)" transform="matrix(0 1 1 0 0 0)"/><text font-family="Liberation Sans" font-size="4" letter-spacing="0" word-spacing="0" x="104" y="48"><tspan x="104" y="48">Shadow opacity : 30, 15, 10, (8)</tspan></text><path d="m-40 104h16v16h-16z" fill="url(#i)" transform="rotate(-90)"/><text font-family="Liberation Sans" font-size="4" letter-spacing="0" word-spacing="0" x="124" y="32"><tspan x="124" y="32">Bevel opacity : 30 / 10</tspan></text><text font-family="Liberation Sans" font-size="4" letter-spacing="0" word-spacing="0" x="124" y="8"><tspan x="124" y="8">Bevel opacity : 75 / 15</tspan></text><path d="m40.9375 24c-4.337728 0-8.661532 1.6424-11.96875 4.9375-6.614435 6.590199-6.614434 17.2848 0 23.875 5.766309 5.745185 14.64906 6.521844 21.21875 2.25 1.116703.05582 2.922607.214234 3.5625.9375.871276.984794-.358454 3.280341 1.3125 4.78125l10.375 10.53125s1.934922 2.054077 4.9375-.9375c3.00258-2.991577.9375-4.90625.9375-4.90625l-10.40625-10.53125c-1.506432-1.664832-3.824086-.44442-4.8125-1.3125-.725929-.637547-.850237-2.418635-.90625-3.53125 4.287554-6.545616 3.516312-15.411072-2.25-21.15625-3.307218-3.2951-7.662272-4.9375-12-4.9375zm.0625 5.625c6.236149 0 11.3125 5.036699 11.3125 11.25 0 6.213304-5.076348 11.25-11.3125 11.25-6.236145.000003-11.28125-5.036696-11.28125-11.25 0-3.106651 1.267675-5.962669 3.3125-8 2.044825-2.037333 4.850676-3.25 7.96875-3.25z" fill="url(#j)"/><path d="m40.9375 24c-4.337728 0-8.661532 1.6424-11.96875 4.9375-3.434453 3.421869-5.069631 7.951631-4.9375 12.4375.122341-4.153494 1.757518-8.26917 4.9375-11.4375 3.307218-3.2951 7.631022-4.9375 11.96875-4.9375s8.692782 1.6424 12 4.9375c3.155628 3.144062 4.815465 7.222337 4.96875 11.34375.098619-4.45697-1.557098-8.944602-4.96875-12.34375-3.307218-3.2951-7.662272-4.9375-12-4.9375zm-11.1875 17.375c-.0073.166448-.03125.331996-.03125.5 0 6.213304 5.045105 11.250003 11.28125 11.25 6.236152 0 11.3125-5.036696 11.3125-11.25 0-.168003-.0239-.333793-.03125-.5-.264313 5.980646-5.213719 10.75-11.28125 10.75-6.067524.000003-10.987286-4.769354-11.25-10.75zm25.5 9.65625c-.01563.02413-.04674.03843-.0625.0625.05601 1.112615.180321 2.893703.90625 3.53125.988414.86808 3.306068-.352332 4.8125 1.3125l10.40625 10.53125s.508047.479482.65625 1.3125c.283099-1.458991-.65625-2.3125-.65625-2.3125l-10.40625-10.53125c-1.506432-1.664832-3.824086-.44442-4.8125-1.3125-.544447-.47816-.75113-1.59355-.84375-2.59375z" fill="#fff" opacity=".75"/><path d="m41 28.625c-3.118074 0-5.923925 1.212667-7.96875 3.25-2.044825 2.037331-3.3125 4.893349-3.3125 8 0 .168004.02395.333793.03125.5.128337-2.911434 1.347006-5.572845 3.28125-7.5 2.044825-2.037333 4.850676-3.25 7.96875-3.25 6.067528 0 11.016937 4.769357 11.28125 10.75.0073-.166207.03125-.331996.03125-.5 0-6.213301-5.076351-11.25-11.3125-11.25zm16.90625 11.65625c-.06806 3.07612-.967937 6.139613-2.71875 8.8125.01354.268923.03345.584808.0625.90625 1.898624-2.941899 2.781713-6.345401 2.65625-9.71875zm-33.875.09375c-.132131 4.485869 1.503047 9.01563 4.9375 12.4375 5.766309 5.745185 14.64906 6.521844 21.21875 2.25 1.116703.05582 2.922607.214234 3.5625.9375.217819.246198.310405.560354.34375.9375.0031-.782159.04832-1.494343-.34375-1.9375-.639893-.723266-2.445797-.88168-3.5625-.9375-6.56969 4.271844-15.452441 3.495185-21.21875-2.25-3.179981-3.16833-4.815159-7.284006-4.9375-11.4375zm30.0625 16.8125c.04258 1.107232-.200918 2.543114.96875 3.59375l10.375 10.53125s1.934922 2.054077 4.9375-.9375c1.50129-1.495789 1.734697-2.709885 1.59375-3.5625-.147068.719058-.610969 1.583321-1.59375 2.5625-3.002578 2.991577-4.9375.9375-4.9375.9375l-10.375-10.53125c-.835477-.750455-.958404-1.70915-.96875-2.59375z" opacity=".15"/></g></svg>