<svg height="96" width="96" xmlns="http://www.w3.org/2000/svg" xmlns:xlink="http://www.w3.org/1999/xlink"><linearGradient id="a"><stop offset="0" stop-color="#f0f0f0"/><stop offset="1" stop-color="#aaa"/></linearGradient><linearGradient id="b"><stop offset="0" stop-color="#fff"/><stop offset="1" stop-color="#fff" stop-opacity="0"/></linearGradient><linearGradient id="c" gradientUnits="userSpaceOnUse" x1="36.357143" x2="36.357143" xlink:href="#b" y1="6" y2="63.893143"/><radialGradient id="d" cx="48" cy="90.171875" gradientTransform="matrix(1.1573129 0 0 .99590774 -7.551021 .197132)" gradientUnits="userSpaceOnUse" r="42" xlink:href="#b"/><linearGradient id="e" gradientTransform="matrix(1.0058652 0 0 .994169 100 0)" gradientUnits="userSpaceOnUse" x1="45.447727" x2="45.447727" y1="92.539597" y2="7.01654"><stop offset="0"/><stop offset="1" stop-opacity=".588235"/></linearGradient><linearGradient id="f" gradientTransform="matrix(1.0238095 0 0 -1.0119048 -1.142857 98.071429)" gradientUnits="userSpaceOnUse" x1="32.251034" x2="32.251034" xlink:href="#e" y1="6.131708" y2="90.238609"/><linearGradient id="g" gradientTransform="matrix(1 0 0 -1 0 97)" gradientUnits="userSpaceOnUse" x1="32.251034" x2="32.251034" xlink:href="#e" y1="6.131708" y2="90.238609"/><linearGradient id="h" gradientUnits="userSpaceOnUse" x1="0" x2="16" xlink:href="#a" y1="112" y2="112"/><linearGradient id="i" gradientUnits="userSpaceOnUse" x1="-40" x2="-24" y1="112" y2="112"><stop offset="0" stop-color="#c80000"/><stop offset="1" stop-color="#f3604d"/></linearGradient><linearGradient id="j" gradientTransform="matrix(4.3841943 0 0 2.1095676 13.822175 18.473172)" gradientUnits="userSpaceOnUse" x1="6.784619" x2="6.784619" xlink:href="#a" y1="10.091278" y2="21.579315"/><g fill="url(#f)"><path d="m12 3.96875c-5.5110902 0-10.03125 4.5201598-10.03125 10.03125v71c0 5.51109 4.5201597 10.03125 10.03125 10.03125h72c5.51109 0 10.03125-4.52016 10.03125-10.03125v-71c0-5.5110903-4.52016-10.03125-10.03125-10.03125zm0 2.03125h72c3.324 0 6 2.676 6 6v72c0 3.324-2.676 6-6 6h-72c-3.324 0-6-2.676-6-6v-72c0-3.324 2.676-6 6-6z" opacity=".08"/><path d="m12 4.96875c-4.9716329 0-9.03125 4.0596171-9.03125 9.03125v71c0 4.971633 4.059617 9.03125 9.03125 9.03125h72c4.971633 0 9.03125-4.059617 9.03125-9.03125v-71c0-4.971633-4.059617-9.03125-9.03125-9.03125zm0 1.03125h72c3.324 0 6 2.676 6 6v72c0 3.324-2.676 6-6 6h-72c-3.324 0-6-2.676-6-6v-72c0-3.324 2.676-6 6-6z" opacity=".1"/><path d="m11.1875 6.03125c-4.027518.4106511-7.1875 3.8351875-7.1875 7.96875v71c0 4.409133 3.590867 8 8 8h72c4.409133 0 8-3.590867 8-8v-71c0-4.1970618-3.258972-7.6460416-7.375-7.96875 3.032886.306167 5.375 2.8525 5.375 5.96875v72c0 3.324-2.676 6-6 6h-72c-3.324 0-6-2.676-6-6v-72c0-3.11625 2.342114-5.662583 5.375-5.96875-.06227.00488-.12563-.00631-.1875 0z" opacity=".2"/><path d="m6.4375 9.75c-.8994891 1.177446-1.4375 2.647277-1.4375 4.25v71c0 3.878 3.122 7 7 7h72c3.878 0 7-3.122 7-7v-71c0-1.602723-.538011-3.072554-1.4375-4.25.279316.694095.4375 1.453625.4375 2.25v72c0 3.324-2.676 6-6 6h-72c-3.324 0-6-2.676-6-6v-72c0-.796375.1581836-1.555905.4375-2.25z" opacity=".3"/></g><path d="m6 84v1c0 3.324 2.676 6 6 6h72c3.324 0 6-2.676 6-6v-1c0 3.324-2.676 6-6 6h-72c-3.324 0-6-2.676-6-6z" fill="url(#g)" opacity=".45"/><g><rect height="84" opacity=".6" rx="6" width="84" x="6" y="6"/><path d="m12 6c-3.324 0-6 2.676-6 6v2 68 2c0 .334721.04135.6507.09375.96875.0487.295596.09704.596915.1875.875.00988.03038.020892.0636.03125.09375.098865.287771.2348802.547452.375.8125.1445918.273507.3156161.535615.5.78125s.3737765.473472.59375.6875c.439947.428056.94291.814526 1.5 1.09375.278545.139612.5734731.246947.875.34375-.2562018-.100222-.4867109-.236272-.71875-.375-.00741-.0044-.023866.0045-.03125 0-.031933-.0193-.062293-.04251-.09375-.0625-.120395-.0767-.2310226-.163513-.34375-.25-.1061728-.0808-.2132809-.161112-.3125-.25-.1779299-.161433-.3474596-.345388-.5-.53125-.1075789-.130255-.2183939-.265285-.3125-.40625-.025089-.03838-.038446-.08587-.0625-.125-.064763-.103032-.1302275-.204517-.1875-.3125-.1010083-.194706-.2056748-.415701-.28125-.625-.00796-.02181-.023589-.04055-.03125-.0625-.0318251-.09195-.0358045-.186831-.0625-.28125-.0303323-.106618-.0703894-.203031-.09375-.3125-.0728786-.341512-.125-.698205-.125-1.0625v-2-68-2c0-2.781848 2.2181517-5 5-5h2 68 2c2.781848 0 5 2.218152 5 5v2 68 2c0 .364295-.05212.720988-.125 1.0625-.04415.206893-.08838.397658-.15625.59375-.0077.02195-.0233.04069-.03125.0625-.06274.173739-.138383.367449-.21875.53125-.04158.0828-.07904.169954-.125.25-.0546.09721-.126774.18835-.1875.28125-.09411.140965-.204921.275995-.3125.40625-.143174.17445-.303141.346998-.46875.5-.01117.0102-.01998.02115-.03125.03125-.138386.125556-.285091.234436-.4375.34375-.102571.07315-.204318.153364-.3125.21875-.0074.0045-.02384-.0044-.03125 0-.232039.138728-.462548.274778-.71875.375.301527-.0968.596455-.204138.875-.34375.55709-.279224 1.060053-.665694 1.5-1.09375.219973-.214028.409366-.441865.59375-.6875s.355408-.507743.5-.78125c.14012-.265048.276135-.524729.375-.8125.01041-.03078.02133-.06274.03125-.09375.09046-.278085.1388-.579404.1875-.875.0524-.31805.09375-.634029.09375-.96875v-2-68-2c0-3.324-2.676-6-6-6z" fill="url(#c)" opacity=".01"/><path d="m12 90c-3.324 0-6-2.676-6-6v-2-68-2c0-.334721.04135-.6507.09375-.96875.0487-.295596.09704-.596915.1875-.875.00988-.03038.020892-.0636.03125-.09375.098865-.287771.2348802-.547452.375-.8125.1445918-.273507.3156161-.535615.5-.78125s.3737765-.473472.59375-.6875c.439947-.428056.94291-.814526 1.5-1.09375.278545-.139612.5734731-.246947.875-.34375-.2562018.100222-.4867109.236272-.71875.375-.00741.0044-.023866-.0045-.03125 0-.031933.0193-.062293.04251-.09375.0625-.120395.0767-.2310226.163513-.34375.25-.1061728.0808-.2132809.161112-.3125.25-.1779299.161433-.3474596.345388-.5.53125-.1075789.130255-.2183939.265285-.3125.40625-.025089.03838-.038446.08587-.0625.125-.064763.103032-.1302275.204517-.1875.3125-.1010083.194706-.2056748.415701-.28125.625-.00796.02181-.023589.04055-.03125.0625-.0318251.09195-.0358045.186831-.0625.28125-.0303323.106618-.0703894.203031-.09375.3125-.0728786.341512-.125.698205-.125 1.0625v2 68 2c0 2.781848 2.2181517 5 5 5h2 68 2c2.781848 0 5-2.218152 5-5v-2-68-2c0-.364295-.05212-.720988-.125-1.0625-.04415-.206893-.08838-.397658-.15625-.59375-.0077-.02195-.0233-.04069-.03125-.0625-.06274-.173739-.138383-.367449-.21875-.53125-.04158-.0828-.07904-.169954-.125-.25-.0546-.09721-.126774-.18835-.1875-.28125-.09411-.140965-.204921-.275995-.3125-.40625-.143174-.17445-.303141-.346998-.46875-.5-.01117-.0102-.01998-.02115-.03125-.03125-.138386-.125556-.285091-.234436-.4375-.34375-.102571-.07315-.204318-.153364-.3125-.21875-.0074-.0045-.02384.0044-.03125 0-.232039-.138728-.462548-.274778-.71875-.375.301527.0968.596455.204138.875.34375.55709.279224 1.060053.665694 1.5 1.09375.219973.214028.409366.441865.59375.6875s.355408.507743.5.78125c.14012.265048.276135.524729.375.8125.01041.03078.02133.06274.03125.09375.09046.278085.1388.579404.1875.875.0524.31805.09375.634029.09375.96875v2 68 2c0 3.324-2.676 6-6 6z" fill="url(#d)" opacity=".15"/></g><g><path d="m72.90625 38.84375c-7.874014 1.407525-15.751277 2.828987-23.625 4.25-1.593766.362776-2.049175 2.654241-.733769 3.609981l4.202519 4.202519c-4.562604 3.102616-11.2384 2.760832-15.206967-1.180862-1.61899-1.453867-2.590073-3.43699-3.386783-5.412888-.911056-1.36573-2.60586-.69081-3.869296-.344019-2.714448.756874-5.478662 1.375562-8.161954 2.219019-1.718213.792328-1.07716 2.939265-.424342 4.244957 3.320232 8.811036 11.792948 15.383162 21.168959 16.332343 7.076448.83031 14.44055-1.331056 19.942883-5.85855 1.679465 1.618688 3.252982 3.375654 5 4.90625 1.297289.796789 3.075185-.261374 3.097002-1.766181 1.384238-7.693132 2.852073-15.381416 4.184248-23.077569.07458-1.18312-.991783-2.254329-2.1875-2.125z" opacity=".1"/><path d="m72.875 40.0625-23.21875 4.1875a.84891713.84891713 0 0 0 -.4375 1.4375l5.5 5.5c-5.345907 4.394291-13.223633 4.16453-18.21875-.8125-1.511104-1.505635-2.570006-3.273742-3.21875-5.15625a.84891713.84891713 0 0 0 -1.03125-.53125l-9.4375 2.5a.84891713.84891713 0 0 0 -.59375 1.0625c1.155184 3.777816 3.220052 7.355913 6.21875 10.34375 9.424326 9.390197 24.621068 9.504921 34.46875.75l5.3125 5.28125a.84891713.84891713 0 0 0 1.4375-.4375l4.21875-23.125a.84891713.84891713 0 0 0 -1-1z" opacity=".15"/><path d="m68.802678 64.027361 4.223923-23.130641-23.214686 4.208632 6.195093 6.172664c-5.66404 5.301056-14.56907 5.191292-20.094615-.314245-1.602617-1.596817-2.756778-3.474765-3.446725-5.476835l-9.439067 2.513954c1.116701 3.651964 3.119155 7.103264 6.014871 9.988492 9.295989 9.262325 24.434595 9.238634 33.926557.224469l5.834649 5.813525z" opacity=".3"/><path d="m0 104h16v16h-16z" fill="url(#h)" transform="matrix(0 1 1 0 0 0)"/><text font-family="Liberation Sans" font-size="4" letter-spacing="0" word-spacing="0" x="104" y="48"><tspan x="104" y="48">Shadow opacity : 30, 15, 10, (8)</tspan></text><path d="m-40 104h16v16h-16z" fill="url(#i)" transform="rotate(-90)"/><text font-family="Liberation Sans" font-size="4" letter-spacing="0" word-spacing="0" x="124" y="32"><tspan x="124" y="32">Bevel opacity : 30 / 10</tspan></text><text font-family="Liberation Sans" font-size="4" letter-spacing="0" word-spacing="0" x="124" y="8"><tspan x="124" y="8">Bevel opacity : 75 / 15</tspan></text><path d="m68.802678 63.027361 4.223923-23.130641-23.214686 4.208632 6.195093 6.172664c-5.66404 5.301056-14.56907 5.191292-20.094615-.314245-1.602617-1.596817-2.756778-3.474765-3.446725-5.476835l-9.439067 2.513954c1.116701 3.651964 3.119155 7.103264 6.014871 9.988492 9.295989 9.262325 24.434595 9.238634 33.926557.224469l5.834649 5.813525z" fill="url(#j)"/><path d="m73.03125 39.90625-23.21875 4.1875.84375.84375 22.1875-4zm-40.5625 4.59375-9.4375 2.5c.09211.301232.208332.607954.3125.90625l9.125-2.40625c.689947 2.00207 1.834883 3.871933 3.4375 5.46875 5.525545 5.505537 14.42971 5.613556 20.09375.3125l-.53125-.53125c-5.676995 4.815757-14.206784 4.555073-19.5625-.78125-1.602617-1.596817-2.747553-3.46668-3.4375-5.46875z" fill="#fff" opacity=".75"/><path d="m73.03125 39.90625-.1875.03125-4.03125 22.09375-5.84375-5.8125c-9.491962 9.014165-24.641511 9.043575-33.9375-.21875-2.656863-2.64724-4.528793-5.775672-5.6875-9.09375l-.3125.09375c1.116701 3.651964 3.104284 7.114772 6 10 9.295989 9.262325 24.445538 9.232915 33.9375.21875l5.84375 5.8125zm-22.375 4.03125-.84375.15625 5.65625 5.65625c.180017-.152707.357164-.30582.53125-.46875z" opacity=".15"/></g></svg>