<svg height="96" width="96" xmlns="http://www.w3.org/2000/svg" xmlns:xlink="http://www.w3.org/1999/xlink"><linearGradient id="a"><stop offset="0" stop-color="#fff"/><stop offset="1" stop-color="#fff" stop-opacity="0"/></linearGradient><linearGradient id="b" gradientUnits="userSpaceOnUse" x1="36.357143" x2="36.357143" xlink:href="#a" y1="6" y2="63.893143"/><radialGradient id="c" cx="48" cy="90.171875" gradientTransform="matrix(1.1573129 0 0 .99590774 -7.551021 .197132)" gradientUnits="userSpaceOnUse" r="42" xlink:href="#a"/><linearGradient id="d" gradientTransform="matrix(1.0058652 0 0 .994169 100 0)" gradientUnits="userSpaceOnUse" x1="45.447727" x2="45.447727" y1="92.539597" y2="7.01654"><stop offset="0"/><stop offset="1" stop-opacity=".588235"/></linearGradient><linearGradient id="e" gradientTransform="matrix(1.0238095 0 0 -1.0119048 -1.142857 98.071429)" gradientUnits="userSpaceOnUse" x1="32.251034" x2="32.251034" xlink:href="#d" y1="6.131708" y2="90.238609"/><linearGradient id="f" gradientTransform="matrix(1 0 0 -1 0 97)" gradientUnits="userSpaceOnUse" x1="32.251034" x2="32.251034" xlink:href="#d" y1="6.131708" y2="90.238609"/><linearGradient id="g" gradientTransform="matrix(-1.2631579 0 0 1 114.95276 0)" gradientUnits="userSpaceOnUse" x1="49" x2="49" y1="72.089897" y2="23.729059"><stop offset="0" stop-color="#aaa"/><stop offset="1" stop-color="#f0f0f0"/></linearGradient><g><g fill="url(#e)"><path d="m12 3.96875c-5.5110902 0-10.03125 4.5201598-10.03125 10.03125v71c0 5.51109 4.5201597 10.03125 10.03125 10.03125h72c5.51109 0 10.03125-4.52016 10.03125-10.03125v-71c0-5.5110903-4.52016-10.03125-10.03125-10.03125zm0 2.03125h72c3.324 0 6 2.676 6 6v72c0 3.324-2.676 6-6 6h-72c-3.324 0-6-2.676-6-6v-72c0-3.324 2.676-6 6-6z" opacity=".08"/><path d="m12 4.96875c-4.9716329 0-9.03125 4.0596171-9.03125 9.03125v71c0 4.971633 4.059617 9.03125 9.03125 9.03125h72c4.971633 0 9.03125-4.059617 9.03125-9.03125v-71c0-4.971633-4.059617-9.03125-9.03125-9.03125zm0 1.03125h72c3.324 0 6 2.676 6 6v72c0 3.324-2.676 6-6 6h-72c-3.324 0-6-2.676-6-6v-72c0-3.324 2.676-6 6-6z" opacity=".1"/><path d="m11.1875 6.03125c-4.027518.4106511-7.1875 3.8351875-7.1875 7.96875v71c0 4.409133 3.590867 8 8 8h72c4.409133 0 8-3.590867 8-8v-71c0-4.1970618-3.258972-7.6460416-7.375-7.96875 3.032886.306167 5.375 2.8525 5.375 5.96875v72c0 3.324-2.676 6-6 6h-72c-3.324 0-6-2.676-6-6v-72c0-3.11625 2.342114-5.662583 5.375-5.96875-.06227.00488-.12563-.00631-.1875 0z" opacity=".2"/><path d="m6.4375 9.75c-.8994891 1.177446-1.4375 2.647277-1.4375 4.25v71c0 3.878 3.122 7 7 7h72c3.878 0 7-3.122 7-7v-71c0-1.602723-.538011-3.072554-1.4375-4.25.279316.694095.4375 1.453625.4375 2.25v72c0 3.324-2.676 6-6 6h-72c-3.324 0-6-2.676-6-6v-72c0-.796375.1581836-1.555905.4375-2.25z" opacity=".3"/></g><path d="m6 84v1c0 3.324 2.676 6 6 6h72c3.324 0 6-2.676 6-6v-1c0 3.324-2.676 6-6 6h-72c-3.324 0-6-2.676-6-6z" fill="url(#f)" opacity=".45"/></g><g><rect height="84" opacity=".6" rx="6" width="84" x="6" y="6"/><path d="m12 6c-3.324 0-6 2.676-6 6v2 68 2c0 .334721.04135.6507.09375.96875.0487.295596.09704.596915.1875.875.00988.03038.020892.0636.03125.09375.098865.287771.2348802.547452.375.8125.1445918.273507.3156161.535615.5.78125s.3737765.473472.59375.6875c.439947.428056.94291.814526 1.5 1.09375.278545.139612.5734731.246947.875.34375-.2562018-.100222-.4867109-.236272-.71875-.375-.00741-.0044-.023866.0045-.03125 0-.031933-.0193-.062293-.04251-.09375-.0625-.120395-.0767-.2310226-.163513-.34375-.25-.1061728-.0808-.2132809-.161112-.3125-.25-.1779299-.161433-.3474596-.345388-.5-.53125-.1075789-.130255-.2183939-.265285-.3125-.40625-.025089-.03838-.038446-.08587-.0625-.125-.064763-.103032-.1302275-.204517-.1875-.3125-.1010083-.194706-.2056748-.415701-.28125-.625-.00796-.02181-.023589-.04055-.03125-.0625-.0318251-.09195-.0358045-.186831-.0625-.28125-.0303323-.106618-.0703894-.203031-.09375-.3125-.0728786-.341512-.125-.698205-.125-1.0625v-2-68-2c0-2.781848 2.2181517-5 5-5h2 68 2c2.781848 0 5 2.218152 5 5v2 68 2c0 .364295-.05212.720988-.125 1.0625-.04415.206893-.08838.397658-.15625.59375-.0077.02195-.0233.04069-.03125.0625-.06274.173739-.138383.367449-.21875.53125-.04158.0828-.07904.169954-.125.25-.0546.09721-.126774.18835-.1875.28125-.09411.140965-.204921.275995-.3125.40625-.143174.17445-.303141.346998-.46875.5-.01117.0102-.01998.02115-.03125.03125-.138386.125556-.285091.234436-.4375.34375-.102571.07315-.204318.153364-.3125.21875-.0074.0045-.02384-.0044-.03125 0-.232039.138728-.462548.274778-.71875.375.301527-.0968.596455-.204138.875-.34375.55709-.279224 1.060053-.665694 1.5-1.09375.219973-.214028.409366-.441865.59375-.6875s.355408-.507743.5-.78125c.14012-.265048.276135-.524729.375-.8125.01041-.03078.02133-.06274.03125-.09375.09046-.278085.1388-.579404.1875-.875.0524-.31805.09375-.634029.09375-.96875v-2-68-2c0-3.324-2.676-6-6-6z" fill="url(#b)" opacity=".01"/><path d="m12 90c-3.324 0-6-2.676-6-6v-2-68-2c0-.334721.04135-.6507.09375-.96875.0487-.295596.09704-.596915.1875-.875.00988-.03038.020892-.0636.03125-.09375.098865-.287771.2348802-.547452.375-.8125.1445918-.273507.3156161-.535615.5-.78125s.3737765-.473472.59375-.6875c.439947-.428056.94291-.814526 1.5-1.09375.278545-.139612.5734731-.246947.875-.34375-.2562018.100222-.4867109.236272-.71875.375-.00741.0044-.023866-.0045-.03125 0-.031933.0193-.062293.04251-.09375.0625-.120395.0767-.2310226.163513-.34375.25-.1061728.0808-.2132809.161112-.3125.25-.1779299.161433-.3474596.345388-.5.53125-.1075789.130255-.2183939.265285-.3125.40625-.025089.03838-.038446.08587-.0625.125-.064763.103032-.1302275.204517-.1875.3125-.1010083.194706-.2056748.415701-.28125.625-.00796.02181-.023589.04055-.03125.0625-.0318251.09195-.0358045.186831-.0625.28125-.0303323.106618-.0703894.203031-.09375.3125-.0728786.341512-.125.698205-.125 1.0625v2 68 2c0 2.781848 2.2181517 5 5 5h2 68 2c2.781848 0 5-2.218152 5-5v-2-68-2c0-.364295-.05212-.720988-.125-1.0625-.04415-.206893-.08838-.397658-.15625-.59375-.0077-.02195-.0233-.04069-.03125-.0625-.06274-.173739-.138383-.367449-.21875-.53125-.04158-.0828-.07904-.169954-.125-.25-.0546-.09721-.126774-.18835-.1875-.28125-.09411-.140965-.204921-.275995-.3125-.40625-.143174-.17445-.303141-.346998-.46875-.5-.01117-.0102-.01998-.02115-.03125-.03125-.138386-.125556-.285091-.234436-.4375-.34375-.102571-.07315-.204318-.153364-.3125-.21875-.0074-.0045-.02384.0044-.03125 0-.232039-.138728-.462548-.274778-.71875-.375.301527.0968.596455.204138.875.34375.55709.279224 1.060053.665694 1.5 1.09375.219973.214028.409366.441865.59375.6875s.355408.507743.5.78125c.14012.265048.276135.524729.375.8125.01041.03078.02133.06274.03125.09375.09046.278085.1388.579404.1875.875.0524.31805.09375.634029.09375.96875v2 68 2c0 3.324-2.676 6-6 6z" fill="url(#c)" opacity=".15"/></g><g><path d="m72.349144 23c1.480885.200442 1.829887 1.813112 1.65625 3.060821-.08599 1.899617.171004 3.854892-.125 5.720429-.283089.619966-.868378 1.100259-1.53125 1.21875 1.480885.200442 1.829887 1.813112 1.65625 3.060821-.08599 1.899617.171004 3.854892-.125 5.720429-.283089.619966-.868378 1.100259-1.53125 1.21875 1.480885.200442 1.829887 1.813112 1.65625 3.060821-.08599 1.899617.171004 3.854892-.125 5.720429-.485587 1.235269-1.902307 1.336758-3.051652 1.21875-9.10606-.02103-18.225752.04194-27.323348-.03125-1.264537-.306481-1.699175-1.680095-1.5-2.851239.06548-1.929449-.12945-3.901157.09375-5.805011.263287-.682305.890731-1.223159 1.625-1.3125-6.737826-.02125-13.4894.04223-20.21875-.03125-1.264537-.306481-1.699175-1.680095-1.5-2.851239.06548-1.929449-.12945-3.901157.09375-5.805011.409435-1.229987 1.795588-1.465031 2.935821-1.3125h8.689179c-1.299779-.14249-1.955038-1.534222-1.71875-2.735408.06555-1.978464-.129527-3.999223.09375-5.952092.409435-1.229987 1.795588-1.465031 2.935821-1.3125zm-8.21875 30.96875c1.589781.317477 2.397568 1.946925 3.596069 2.917524 1.98825 2.061352 4.141654 4.029492 6.028931 6.144976.907742 1.600994-.811374 2.830268-1.715734 3.930201-2.303783 2.543027-4.516999 5.179571-6.878016 7.663549-1.343795 1.037583-3.440281-.258515-3.15625-1.919163 0-1.235279 0-2.470558 0-3.705837-4.194296-.04314-8.416447.08536-12.59375-.0625-1.214271-.345185-1.587342-1.684698-1.40625-2.819989.06548-1.929449-.12945-3.901157.09375-5.805011.409435-1.229987 1.795588-1.465031 2.935821-1.3125h10.970429c.167826-1.413302-.404613-3.033274.4375-4.28125.423237-.501719 1.028743-.767655 1.6875-.75z" opacity=".1"/><path d="m23.90625 23.9375a1.0583464 1.0583464 0 0 0 -.96875 1.0625v6a1.0583464 1.0583464 0 0 0 1.0625 1.0625h38a1.0583464 1.0583464 0 0 0 1.0625-1.0625v-6a1.0583464 1.0583464 0 0 0 -1.0625-1.0625h-38a1.0583464 1.0583464 0 0 0 -.09375 0zm0 10a1.0583464 1.0583464 0 0 0 -.96875 1.0625v6a1.0583464 1.0583464 0 0 0 1.0625 1.0625h48a1.0583464 1.0583464 0 0 0 1.0625-1.0625v-6a1.0583464 1.0583464 0 0 0 -1.0625-1.0625h-48a1.0583464 1.0583464 0 0 0 -.09375 0zm0 10a1.0583464 1.0583464 0 0 0 -.96875 1.0625v6a1.0583464 1.0583464 0 0 0 1.0625 1.0625h28a1.0583464 1.0583464 0 0 0 1.0625-1.0625v-6a1.0583464 1.0583464 0 0 0 -1.0625-1.0625h-28a1.0583464 1.0583464 0 0 0 -.09375 0zm7.96875 11a1.0583464 1.0583464 0 0 0 -.625.3125l-8 8a1.0583464 1.0583464 0 0 0 -.03125 1.4375l8 9a1.0583464 1.0583464 0 0 0 1.84375-.6875v-4.9375h12.9375a1.0583464 1.0583464 0 0 0 1.0625-1.0625v-6a1.0583464 1.0583464 0 0 0 -1.0625-1.0625h-12.9375v-3.9375a1.0583464 1.0583464 0 0 0 -1.1875-1.0625z" opacity=".15" transform="matrix(-1 0 0 1 96.005394 0)"/><path d="m72.005394 25v6h-38v-6zm0 10v6h-48v-6zm0 10v6h-28v-6zm-8 11 8 8-8 9v-6h-14v-6h14z" opacity=".3"/><path d="m72.005394 24v6h-38v-6zm0 10v6h-48v-6zm0 10v6h-28v-6zm-8 11 8 8-8 9v-6h-14v-6h14z" fill="url(#g)"/><path d="m72.005394 24v1h-38v-1zm0 10v1h-48v-1zm0 10v1h-28v-1zm-8 11 8 8-.46875.53125-7.53125-7.53125zm0 5v1h-14v-1z" fill="#fff" opacity=".75"/><path d="m72.005394 29v1h-38v-1zm0 10v1h-48v-1zm0 10v1h-28v-1zm-.46875 13.53125.46875.46875-8 9v-1zm-7.53125 2.46875v1h-14v-1z" opacity=".15"/></g></svg>