<svg height="96" width="96" xmlns="http://www.w3.org/2000/svg" xmlns:xlink="http://www.w3.org/1999/xlink"><linearGradient id="a"><stop offset="0" stop-color="#f0f0f0"/><stop offset="1" stop-color="#aaa"/></linearGradient><linearGradient id="b"><stop offset="0" stop-color="#fff"/><stop offset="1" stop-color="#fff" stop-opacity="0"/></linearGradient><linearGradient id="c" gradientUnits="userSpaceOnUse" x1="36.357143" x2="36.357143" xlink:href="#b" y1="6" y2="63.893143"/><radialGradient id="d" cx="48" cy="90.171875" gradientTransform="matrix(1.1573129 0 0 .99590774 -7.551021 .197132)" gradientUnits="userSpaceOnUse" r="42" xlink:href="#b"/><linearGradient id="e" gradientTransform="matrix(1.0058652 0 0 .994169 100 0)" gradientUnits="userSpaceOnUse" x1="45.447727" x2="45.447727" y1="92.539597" y2="7.01654"><stop offset="0"/><stop offset="1" stop-opacity=".588235"/></linearGradient><linearGradient id="f" gradientTransform="matrix(1.0238095 0 0 -1.0119048 -1.142857 98.071429)" gradientUnits="userSpaceOnUse" x1="32.251034" x2="32.251034" xlink:href="#e" y1="6.131708" y2="90.238609"/><linearGradient id="g" gradientTransform="matrix(1 0 0 -1 0 97)" gradientUnits="userSpaceOnUse" x1="32.251034" x2="32.251034" xlink:href="#e" y1="6.131708" y2="90.238609"/><linearGradient id="h" gradientUnits="userSpaceOnUse" x1="0" x2="16" xlink:href="#a" y1="112" y2="112"/><linearGradient id="i" gradientUnits="userSpaceOnUse" x1="-40" x2="-24" y1="112" y2="112"><stop offset="0" stop-color="#c80000"/><stop offset="1" stop-color="#f3604d"/></linearGradient><linearGradient id="j" gradientUnits="userSpaceOnUse" x1="51.211248" x2="51.211248" xlink:href="#a" y1="29.399708" y2="77.15993"/><g fill="url(#f)"><path d="m12 3.96875c-5.5110902 0-10.03125 4.5201598-10.03125 10.03125v71c0 5.51109 4.5201597 10.03125 10.03125 10.03125h72c5.51109 0 10.03125-4.52016 10.03125-10.03125v-71c0-5.5110903-4.52016-10.03125-10.03125-10.03125zm0 2.03125h72c3.324 0 6 2.676 6 6v72c0 3.324-2.676 6-6 6h-72c-3.324 0-6-2.676-6-6v-72c0-3.324 2.676-6 6-6z" opacity=".08"/><path d="m12 4.96875c-4.9716329 0-9.03125 4.0596171-9.03125 9.03125v71c0 4.971633 4.059617 9.03125 9.03125 9.03125h72c4.971633 0 9.03125-4.059617 9.03125-9.03125v-71c0-4.971633-4.059617-9.03125-9.03125-9.03125zm0 1.03125h72c3.324 0 6 2.676 6 6v72c0 3.324-2.676 6-6 6h-72c-3.324 0-6-2.676-6-6v-72c0-3.324 2.676-6 6-6z" opacity=".1"/><path d="m11.1875 6.03125c-4.027518.4106511-7.1875 3.8351875-7.1875 7.96875v71c0 4.409133 3.590867 8 8 8h72c4.409133 0 8-3.590867 8-8v-71c0-4.1970618-3.258972-7.6460416-7.375-7.96875 3.032886.306167 5.375 2.8525 5.375 5.96875v72c0 3.324-2.676 6-6 6h-72c-3.324 0-6-2.676-6-6v-72c0-3.11625 2.342114-5.662583 5.375-5.96875-.06227.00488-.12563-.00631-.1875 0z" opacity=".2"/><path d="m6.4375 9.75c-.8994891 1.177446-1.4375 2.647277-1.4375 4.25v71c0 3.878 3.122 7 7 7h72c3.878 0 7-3.122 7-7v-71c0-1.602723-.538011-3.072554-1.4375-4.25.279316.694095.4375 1.453625.4375 2.25v72c0 3.324-2.676 6-6 6h-72c-3.324 0-6-2.676-6-6v-72c0-.796375.1581836-1.555905.4375-2.25z" opacity=".3"/></g><path d="m6 84v1c0 3.324 2.676 6 6 6h72c3.324 0 6-2.676 6-6v-1c0 3.324-2.676 6-6 6h-72c-3.324 0-6-2.676-6-6z" fill="url(#g)" opacity=".45"/><g><rect height="84" opacity=".6" rx="6" width="84" x="6" y="6"/><path d="m12 6c-3.324 0-6 2.676-6 6v2 68 2c0 .334721.04135.6507.09375.96875.0487.295596.09704.596915.1875.875.00988.03038.020892.0636.03125.09375.098865.287771.2348802.547452.375.8125.1445918.273507.3156161.535615.5.78125s.3737765.473472.59375.6875c.439947.428056.94291.814526 1.5 1.09375.278545.139612.5734731.246947.875.34375-.2562018-.100222-.4867109-.236272-.71875-.375-.00741-.0044-.023866.0045-.03125 0-.031933-.0193-.062293-.04251-.09375-.0625-.120395-.0767-.2310226-.163513-.34375-.25-.1061728-.0808-.2132809-.161112-.3125-.25-.1779299-.161433-.3474596-.345388-.5-.53125-.1075789-.130255-.2183939-.265285-.3125-.40625-.025089-.03838-.038446-.08587-.0625-.125-.064763-.103032-.1302275-.204517-.1875-.3125-.1010083-.194706-.2056748-.415701-.28125-.625-.00796-.02181-.023589-.04055-.03125-.0625-.0318251-.09195-.0358045-.186831-.0625-.28125-.0303323-.106618-.0703894-.203031-.09375-.3125-.0728786-.341512-.125-.698205-.125-1.0625v-2-68-2c0-2.781848 2.2181517-5 5-5h2 68 2c2.781848 0 5 2.218152 5 5v2 68 2c0 .364295-.05212.720988-.125 1.0625-.04415.206893-.08838.397658-.15625.59375-.0077.02195-.0233.04069-.03125.0625-.06274.173739-.138383.367449-.21875.53125-.04158.0828-.07904.169954-.125.25-.0546.09721-.126774.18835-.1875.28125-.09411.140965-.204921.275995-.3125.40625-.143174.17445-.303141.346998-.46875.5-.01117.0102-.01998.02115-.03125.03125-.138386.125556-.285091.234436-.4375.34375-.102571.07315-.204318.153364-.3125.21875-.0074.0045-.02384-.0044-.03125 0-.232039.138728-.462548.274778-.71875.375.301527-.0968.596455-.204138.875-.34375.55709-.279224 1.060053-.665694 1.5-1.09375.219973-.214028.409366-.441865.59375-.6875s.355408-.507743.5-.78125c.14012-.265048.276135-.524729.375-.8125.01041-.03078.02133-.06274.03125-.09375.09046-.278085.1388-.579404.1875-.875.0524-.31805.09375-.634029.09375-.96875v-2-68-2c0-3.324-2.676-6-6-6z" fill="url(#c)" opacity=".01"/><path d="m12 90c-3.324 0-6-2.676-6-6v-2-68-2c0-.334721.04135-.6507.09375-.96875.0487-.295596.09704-.596915.1875-.875.00988-.03038.020892-.0636.03125-.09375.098865-.287771.2348802-.547452.375-.8125.1445918-.273507.3156161-.535615.5-.78125s.3737765-.473472.59375-.6875c.439947-.428056.94291-.814526 1.5-1.09375.278545-.139612.5734731-.246947.875-.34375-.2562018.100222-.4867109.236272-.71875.375-.00741.0044-.023866-.0045-.03125 0-.031933.0193-.062293.04251-.09375.0625-.120395.0767-.2310226.163513-.34375.25-.1061728.0808-.2132809.161112-.3125.25-.1779299.161433-.3474596.345388-.5.53125-.1075789.130255-.2183939.265285-.3125.40625-.025089.03838-.038446.08587-.0625.125-.064763.103032-.1302275.204517-.1875.3125-.1010083.194706-.2056748.415701-.28125.625-.00796.02181-.023589.04055-.03125.0625-.0318251.09195-.0358045.186831-.0625.28125-.0303323.106618-.0703894.203031-.09375.3125-.0728786.341512-.125.698205-.125 1.0625v2 68 2c0 2.781848 2.2181517 5 5 5h2 68 2c2.781848 0 5-2.218152 5-5v-2-68-2c0-.364295-.05212-.720988-.125-1.0625-.04415-.206893-.08838-.397658-.15625-.59375-.0077-.02195-.0233-.04069-.03125-.0625-.06274-.173739-.138383-.367449-.21875-.53125-.04158-.0828-.07904-.169954-.125-.25-.0546-.09721-.126774-.18835-.1875-.28125-.09411-.140965-.204921-.275995-.3125-.40625-.143174-.17445-.303141-.346998-.46875-.5-.01117-.0102-.01998-.02115-.03125-.03125-.138386-.125556-.285091-.234436-.4375-.34375-.102571-.07315-.204318-.153364-.3125-.21875-.0074-.0045-.02384.0044-.03125 0-.232039-.138728-.462548-.274778-.71875-.375.301527.0968.596455.204138.875.34375.55709.279224 1.060053.665694 1.5 1.09375.219973.214028.409366.441865.59375.6875s.355408.507743.5.78125c.14012.265048.276135.524729.375.8125.01041.03078.02133.06274.03125.09375.09046.278085.1388.579404.1875.875.0524.31805.09375.634029.09375.96875v2 68 2c0 3.324-2.676 6-6 6z" fill="url(#d)" opacity=".15"/></g><g><path d="m47.71875 27.96875c-4.510398.08827-9.018447 1.039152-13.21875 2.65625-1.370505.951835-.779337 2.750665-.90625 4.160637.119129 1.304324-.287511 2.72244.3125 3.933113.715005 1.138908 2.324995 1.115631 3.30973.336815 4.115456-2.076686 8.996436-2.835394 13.504007-1.780074 1.857777.281062 4.587811 2.763134 3.72623 4.193259-5.972574.05705-12.358047-.521996-17.705081 2.662577-1.79119 1.164643-3.282074 2.874213-4.209886 4.837423-2.040314.03851-4.092612-.07909-6.125.0625-1.290847.371932-1.573979 1.774023-1.4375 2.945505.03834 1.870993-.07887 3.753923.0625 5.616995.371932 1.290847 1.774023 1.573979 2.945505 1.4375h3.741995c.666199 3.051743 2.628109 5.74519 5.417762 7.171876 4.456571 2.373974 9.938279 2.304033 14.636814.692385 1.247272-.01536 2.951116-2.225864 3.382924-1.779228-.141534 1.14656.193067 2.492222 1.4375 2.852467 2.250387.119509 4.527264.0663 6.78125.03125 1.355037-.190736 1.83443-1.654424 1.65625-2.854661 0-2.038029 0-4.076059 0-6.114089 1.519707-.03564 3.050629.07507 4.5625-.0625 1.290847-.371932 1.573979-1.774023 1.4375-2.945505-.03834-1.870993.07887-3.753923-.0625-5.616995-.371932-1.290847-1.774023-1.573979-2.945505-1.4375-.997332 0-1.994663 0-2.991995 0 .06489-4.877928.07296-10.062145-2.657892-14.32129-3.022492-4.996454-9.128506-6.758687-14.654608-6.67871zm-3.09375 31.0625h3.1875c-1.045978.338031-2.136157.296778-3.1875 0z" opacity=".1"/><path d="m47.71875 29c-1.988692.000038-4.036725.269508-6.09375.6875-2.042397.39434-4.142949.89845-6.34375 1.71875a.98877404.98877404 0 0 0 -.65625.9375v5.25a.98877404.98877404 0 0 0 1.46875.875c1.719459-.908918 3.451973-1.616171 5.28125-2.0625 1.832916-.447168 3.71856-.624971 5.6875-.625 3.042132.000029 5.2497.690689 6.78125 1.9375 1.439858 1.141745 2.143724 2.693415 2.25 4.78125h-7.15625c-5.424203.000021-9.567936.954296-12.5 3.09375a.98877404.98877404 0 0 0 0 .03125c-1.553856 1.142821-2.566084 2.67357-3.28125 4.375h-6.15625a.98877404.98877404 0 0 0 -1 1v6a.98877404.98877404 0 0 0 1 1h5.46875c.466265 2.240441 1.367228 4.26983 3.03125 5.8125a.98877404.98877404 0 0 0 .03125 0c2.368511 2.151858 5.566961 3.1875 9.375 3.1875 2.994548 0 5.598194-.564338 7.75-1.625 1.327177-.667833 2.480492-1.618078 3.53125-2.71875v3.34375a.98877404.98877404 0 0 0 1 1h5.8125a.98877404.98877404 0 0 0 1-1v-8h5a.98877404.98877404 0 0 0 1-1v-6a.98877404.98877404 0 0 0 -1-1h-5v-4.4375c-.000034-5.38932-1.354185-9.597764-4.125-12.40625-2.765797-2.803264-6.855623-4.156213-12.15625-4.15625zm3.65625 19.90625h4.8125v.21875c-.000003.307669-.01736.586734-.03125.875h-13.25c1.671888-.665498 4.404471-1.093737 8.46875-1.09375zm-10.375 9.09375h11.46875c-1.629289 1.429596-3.539637 2.312505-6.0625 2.3125-2.160743.000006-3.698458-.543889-4.875-1.53125-.251297-.219835-.339616-.531353-.53125-.78125z" opacity=".15"/><path d="m47.71875 30c-1.902765.000036-3.897808.24813-5.90625.65625-2.008467.387789-4.052203.891615-6.1875 1.6875v5.25c1.77589-.938748 3.607349-1.686834 5.53125-2.15625 1.923874-.469359 3.876636-.65622 5.90625-.65625 3.192369.00003 5.651469.72771 7.40625 2.15625 1.775874 1.408191 2.71872 3.408189 2.71875 6v.5625h-8.25c-5.306572.000021-9.221272.947088-11.90625 2.90625-1.596766 1.17438-2.631406 2.739087-3.28125 4.59375h-6.75v6h6.1875c.338093 2.441643 1.292429 4.510707 3 6.09375 2.156437 1.959183 5.082373 2.90625 8.71875 2.90625 2.875251 0 5.325162-.520407 7.3125-1.5 1.987287-.999999 3.636798-2.512113 4.96875-4.59375v6.09375h5.8125v-9h6v-6h-6v-5.4375c-.000033-5.224464-1.306785-9.147294-3.84375-11.71875-2.537028-2.571396-6.300105-3.843714-11.4375-3.84375zm3.65625 17.90625h5.8125v1.21875c-.000006.654981-.0285 1.267884-.09375 1.875h-17.25c.429358-.623841.985678-1.19199 1.6875-1.59375 1.818167-1.040814 5.129142-1.499985 9.84375-1.5zm-12.1875 9.09375h15.65625c-.22278.310755-.402099.649956-.65625.9375-1.945056 2.204082-4.546596 3.375006-7.78125 3.375-2.346743.000006-4.157056-.617982-5.53125-1.78125-.798988-.698955-1.35092-1.546011-1.6875-2.53125z" opacity=".3"/><path d="m0 104h16v16h-16z" fill="url(#h)" transform="matrix(0 1 1 0 0 0)"/><text font-family="Liberation Sans" font-size="4" letter-spacing="0" word-spacing="0" x="104" y="48"><tspan x="104" y="48">Shadow opacity : 30, 15, 10, (8)</tspan></text><path d="m-40 104h16v16h-16z" fill="url(#i)" transform="rotate(-90)"/><text font-family="Liberation Sans" font-size="4" letter-spacing="0" word-spacing="0" x="124" y="32"><tspan x="124" y="32">Bevel opacity : 30 / 10</tspan></text><text font-family="Liberation Sans" font-size="4" letter-spacing="0" word-spacing="0" x="124" y="8"><tspan x="124" y="8">Bevel opacity : 75 / 15</tspan></text><path d="m47.71875 29c-1.902765.000036-3.897808.24813-5.90625.65625-2.008467.387789-4.052203.891615-6.1875 1.6875v5.25c1.77589-.938748 3.607349-1.686834 5.53125-2.15625 1.923874-.469359 3.876636-.65622 5.90625-.65625 3.192369.00003 5.651469.72771 7.40625 2.15625 1.775874 1.408191 2.71872 3.408189 2.71875 6v.5625h-8.25c-5.306572.000021-9.221272.947088-11.90625 2.90625-1.596766 1.17438-2.631406 2.739087-3.28125 4.59375h-6.75v6h6.1875c.338093 2.441643 1.292429 4.510707 3 6.09375 2.156437 1.959183 5.082373 2.90625 8.71875 2.90625 2.875251 0 5.325162-.520407 7.3125-1.5 1.987287-.999999 3.636798-2.512113 4.96875-4.59375v6.09375h5.8125v-9h6v-6h-6v-5.4375c-.000033-5.224464-1.306785-9.147294-3.84375-11.71875-2.537028-2.571396-6.300105-3.843714-11.4375-3.84375zm3.65625 17.90625h5.8125v1.21875c-.000006.654981-.0285 1.267884-.09375 1.875h-17.25c.429358-.623841.985678-1.19199 1.6875-1.59375 1.818167-1.040814 5.129142-1.499985 9.84375-1.5zm-12.1875 9.09375h15.65625c-.22278.310755-.402099.649956-.65625.9375-1.945056 2.204082-4.546596 3.375006-7.78125 3.375-2.346743.000006-4.157056-.617982-5.53125-1.78125-.798988-.698955-1.35092-1.546011-1.6875-2.53125z" fill="url(#j)"/><path d="m47.71875 29c-1.902765.000036-3.897808.24813-5.90625.65625-2.008467.387789-4.052203.891615-6.1875 1.6875v1c2.135297-.795885 4.179033-1.299711 6.1875-1.6875 2.008442-.40812 4.003485-.656214 5.90625-.65625 5.137395.000036 8.900472 1.272354 11.4375 3.84375 2.536965 2.571456 3.843717 6.494286 3.84375 11.71875v-1c-.000033-5.224464-1.306785-9.147294-3.84375-11.71875-2.537028-2.571396-6.300105-3.843714-11.4375-3.84375zm1.21875 13.5c-5.306572.000021-9.221272.947088-11.90625 2.90625-1.596766 1.17438-2.631406 2.739087-3.28125 4.59375h-6.75v1h6.75c.649844-1.854663 1.684484-3.41937 3.28125-4.59375 2.684978-1.959162 6.599678-2.906229 11.90625-2.90625h8.25v-.5625c-.000002-.151021.0064-.290498 0-.4375zm8.25 5.625c-.000006.654981-.0285 1.267884-.09375 1.875h-16.34375c-.343102.305336-.654318.633952-.90625 1h17.25c.06525-.607116.09374-1.220019.09375-1.875zm5.8125 1.875v1h6v-1zm-23.8125 7c.33658.985239.888512 1.832295 1.6875 2.53125 1.374194 1.163268 3.184507 1.781256 5.53125 1.78125 3.234654.000006 5.836194-1.170918 7.78125-3.375.254151-.287544.43347-.626745.65625-.9375h-.71875c-1.93847 2.160725-4.517089 3.312506-7.71875 3.3125-2.346743.000006-4.157056-.617982-5.53125-1.78125-.51422-.44984-.931993-.961365-1.25-1.53125z" fill="#fff" opacity=".75"/><path d="m47.0625 32.78125c-2.029614.00003-3.982376.186891-5.90625.65625-1.923901.469416-3.75536 1.217502-5.53125 2.15625v1c1.77589-.938748 3.607349-1.686834 5.53125-2.15625 1.923874-.469359 3.876636-.65622 5.90625-.65625 3.192369.00003 5.651469.72771 7.40625 2.15625 1.672396 1.326138 2.615602 3.18666 2.71875 5.5625v-.5625c-.00003-2.591811-.942876-4.591809-2.71875-6-1.754781-1.42854-4.213881-2.15622-7.40625-2.15625zm4.3125 13.125c-4.714608.000015-8.025583.459186-9.84375 1.5-.701822.40176-1.258142.969909-1.6875 1.59375h.90625c.241633-.215036.491232-.427729.78125-.59375 1.818167-1.040814 5.129142-1.499985 9.84375-1.5h5.8125v-1zm-24.375 9.09375v1h6.1875c.338093 2.441643 1.292429 4.510707 3 6.09375 2.156437 1.959183 5.082373 2.90625 8.71875 2.90625 2.875251 0 5.325162-.520407 7.3125-1.5 1.987287-.999999 3.636798-2.512113 4.96875-4.59375v-1c-1.331952 2.081637-2.981463 3.593751-4.96875 4.59375-1.987338.979593-4.437249 1.5-7.3125 1.5-3.636377 0-6.562313-.947067-8.71875-2.90625-1.707571-1.583043-2.661907-3.652107-3-6.09375zm12.1875 0c.119961.351149.261392.684406.4375 1h14.5c.01998-.02227.04266-.04002.0625-.0625.254151-.287544.43347-.626745.65625-.9375zm23.8125 0v1h6v-1zm-5.8125 9v1h5.8125v-1z" opacity=".15"/></g></svg>