<svg height="16" width="16" xmlns="http://www.w3.org/2000/svg"><path d="m7.90625 3c-.5102086.0000097-1.0239552.042881-1.5625.15625-.5385517.1077192-1.0836899.2789209-1.65625.5v1.4375c.4761883-.2607631.9528743-.4321064 1.46875-.5625.5158693-.1303772 1.0495281-.2187416 1.59375-.21875.8560035.0000084 1.5294721.1969329 2 .59375.476183.391164.718742.9675522.71875 1.6875v.15625h-2.21875c-1.4229064.000006-2.4675481.2682881-3.1875.8125-.4770417.3634628-.8036909.8439898-.96875 1.4375h-1.09375v1h.96875c.0070466.903615.3091913 1.644101.875 2.1875.5782288.544218 1.33744.8125 2.3125.8125.7709701 0 1.4358645-.134141 1.96875-.40625.5328731-.277777.9866-.703017 1.34375-1.28125v1.6875h1.5625v-3h.96875v-1h-.96875v-1.6875c-.000009-1.4512403-.350987-2.5357063-1.03125-3.25-.68028-.7142764-1.7162053-1.0624903-3.09375-1.0625zm1 4.96875h1.5625v.34375c-.000002.2440947-.030443.4654564-.0625.6875h-4.6875c.1265589-.2438881.3187343-.4491901.5625-.59375.4875245-.289111 1.3608229-.4374952 2.625-.4375zm-3.375 2.03125h4.59375c-.1265432.28513-.273995.552986-.46875.78125-.5215482.612246-1.1951585.906251-2.0625.90625-.6292557.000001-1.1315228-.14562-1.5-.46875-.33507-.303654-.5344944-.719444-.5625-1.21875z" fill="#bebebe"/></svg>