<svg height="96" width="96" xmlns="http://www.w3.org/2000/svg" xmlns:xlink="http://www.w3.org/1999/xlink"><linearGradient id="a"><stop offset="0" stop-color="#f0f0f0"/><stop offset="1" stop-color="#aaa"/></linearGradient><linearGradient id="b"><stop offset="0" stop-color="#fff"/><stop offset="1" stop-color="#fff" stop-opacity="0"/></linearGradient><linearGradient id="c" gradientUnits="userSpaceOnUse" x1="36.357143" x2="36.357143" xlink:href="#b" y1="6" y2="63.893143"/><radialGradient id="d" cx="48" cy="90.171875" gradientTransform="matrix(1.1573129 0 0 .99590774 -7.551021 .197132)" gradientUnits="userSpaceOnUse" r="42" xlink:href="#b"/><linearGradient id="e" gradientTransform="matrix(1.0058652 0 0 .994169 100 0)" gradientUnits="userSpaceOnUse" x1="45.447727" x2="45.447727" y1="92.539597" y2="7.01654"><stop offset="0"/><stop offset="1" stop-opacity=".588235"/></linearGradient><linearGradient id="f" gradientTransform="matrix(1.0238095 0 0 -1.0119048 -1.142857 98.071429)" gradientUnits="userSpaceOnUse" x1="32.251034" x2="32.251034" xlink:href="#e" y1="6.131708" y2="90.238609"/><linearGradient id="g" gradientTransform="matrix(1 0 0 -1 0 97)" gradientUnits="userSpaceOnUse" x1="32.251034" x2="32.251034" xlink:href="#e" y1="6.131708" y2="90.238609"/><linearGradient id="h" gradientUnits="userSpaceOnUse" x1="0" x2="16" xlink:href="#a" y1="112" y2="112"/><linearGradient id="i" gradientUnits="userSpaceOnUse" x1="-40" x2="-24" y1="112" y2="112"><stop offset="0" stop-color="#c80000"/><stop offset="1" stop-color="#f3604d"/></linearGradient><linearGradient id="j" gradientUnits="userSpaceOnUse" x1="39.520413" x2="39.520413" xlink:href="#a" y1="23.999999" y2="80.006798"/><g fill="url(#f)"><path d="m12 3.96875c-5.5110902 0-10.03125 4.5201598-10.03125 10.03125v71c0 5.51109 4.5201597 10.03125 10.03125 10.03125h72c5.51109 0 10.03125-4.52016 10.03125-10.03125v-71c0-5.5110903-4.52016-10.03125-10.03125-10.03125zm0 2.03125h72c3.324 0 6 2.676 6 6v72c0 3.324-2.676 6-6 6h-72c-3.324 0-6-2.676-6-6v-72c0-3.324 2.676-6 6-6z" opacity=".08"/><path d="m12 4.96875c-4.9716329 0-9.03125 4.0596171-9.03125 9.03125v71c0 4.971633 4.059617 9.03125 9.03125 9.03125h72c4.971633 0 9.03125-4.059617 9.03125-9.03125v-71c0-4.971633-4.059617-9.03125-9.03125-9.03125zm0 1.03125h72c3.324 0 6 2.676 6 6v72c0 3.324-2.676 6-6 6h-72c-3.324 0-6-2.676-6-6v-72c0-3.324 2.676-6 6-6z" opacity=".1"/><path d="m11.1875 6.03125c-4.027518.4106511-7.1875 3.8351875-7.1875 7.96875v71c0 4.409133 3.590867 8 8 8h72c4.409133 0 8-3.590867 8-8v-71c0-4.1970618-3.258972-7.6460416-7.375-7.96875 3.032886.306167 5.375 2.8525 5.375 5.96875v72c0 3.324-2.676 6-6 6h-72c-3.324 0-6-2.676-6-6v-72c0-3.11625 2.342114-5.662583 5.375-5.96875-.06227.00488-.12563-.00631-.1875 0z" opacity=".2"/><path d="m6.4375 9.75c-.8994891 1.177446-1.4375 2.647277-1.4375 4.25v71c0 3.878 3.122 7 7 7h72c3.878 0 7-3.122 7-7v-71c0-1.602723-.538011-3.072554-1.4375-4.25.279316.694095.4375 1.453625.4375 2.25v72c0 3.324-2.676 6-6 6h-72c-3.324 0-6-2.676-6-6v-72c0-.796375.1581836-1.555905.4375-2.25z" opacity=".3"/></g><path d="m6 84v1c0 3.324 2.676 6 6 6h72c3.324 0 6-2.676 6-6v-1c0 3.324-2.676 6-6 6h-72c-3.324 0-6-2.676-6-6z" fill="url(#g)" opacity=".45"/><g><rect height="84" opacity=".6" rx="6" width="84" x="6" y="6"/><path d="m12 6c-3.324 0-6 2.676-6 6v2 68 2c0 .334721.04135.6507.09375.96875.0487.295596.09704.596915.1875.875.00988.03038.020892.0636.03125.09375.098865.287771.2348802.547452.375.8125.1445918.273507.3156161.535615.5.78125s.3737765.473472.59375.6875c.439947.428056.94291.814526 1.5 1.09375.278545.139612.5734731.246947.875.34375-.2562018-.100222-.4867109-.236272-.71875-.375-.00741-.0044-.023866.0045-.03125 0-.031933-.0193-.062293-.04251-.09375-.0625-.120395-.0767-.2310226-.163513-.34375-.25-.1061728-.0808-.2132809-.161112-.3125-.25-.1779299-.161433-.3474596-.345388-.5-.53125-.1075789-.130255-.2183939-.265285-.3125-.40625-.025089-.03838-.038446-.08587-.0625-.125-.064763-.103032-.1302275-.204517-.1875-.3125-.1010083-.194706-.2056748-.415701-.28125-.625-.00796-.02181-.023589-.04055-.03125-.0625-.0318251-.09195-.0358045-.186831-.0625-.28125-.0303323-.106618-.0703894-.203031-.09375-.3125-.0728786-.341512-.125-.698205-.125-1.0625v-2-68-2c0-2.781848 2.2181517-5 5-5h2 68 2c2.781848 0 5 2.218152 5 5v2 68 2c0 .364295-.05212.720988-.125 1.0625-.04415.206893-.08838.397658-.15625.59375-.0077.02195-.0233.04069-.03125.0625-.06274.173739-.138383.367449-.21875.53125-.04158.0828-.07904.169954-.125.25-.0546.09721-.126774.18835-.1875.28125-.09411.140965-.204921.275995-.3125.40625-.143174.17445-.303141.346998-.46875.5-.01117.0102-.01998.02115-.03125.03125-.138386.125556-.285091.234436-.4375.34375-.102571.07315-.204318.153364-.3125.21875-.0074.0045-.02384-.0044-.03125 0-.232039.138728-.462548.274778-.71875.375.301527-.0968.596455-.204138.875-.34375.55709-.279224 1.060053-.665694 1.5-1.09375.219973-.214028.409366-.441865.59375-.6875s.355408-.507743.5-.78125c.14012-.265048.276135-.524729.375-.8125.01041-.03078.02133-.06274.03125-.09375.09046-.278085.1388-.579404.1875-.875.0524-.31805.09375-.634029.09375-.96875v-2-68-2c0-3.324-2.676-6-6-6z" fill="url(#c)" opacity=".01"/><path d="m12 90c-3.324 0-6-2.676-6-6v-2-68-2c0-.334721.04135-.6507.09375-.96875.0487-.295596.09704-.596915.1875-.875.00988-.03038.020892-.0636.03125-.09375.098865-.287771.2348802-.547452.375-.8125.1445918-.273507.3156161-.535615.5-.78125s.3737765-.473472.59375-.6875c.439947-.428056.94291-.814526 1.5-1.09375.278545-.139612.5734731-.246947.875-.34375-.2562018.100222-.4867109.236272-.71875.375-.00741.0044-.023866-.0045-.03125 0-.031933.0193-.062293.04251-.09375.0625-.120395.0767-.2310226.163513-.34375.25-.1061728.0808-.2132809.161112-.3125.25-.1779299.161433-.3474596.345388-.5.53125-.1075789.130255-.2183939.265285-.3125.40625-.025089.03838-.038446.08587-.0625.125-.064763.103032-.1302275.204517-.1875.3125-.1010083.194706-.2056748.415701-.28125.625-.00796.02181-.023589.04055-.03125.0625-.0318251.09195-.0358045.186831-.0625.28125-.0303323.106618-.0703894.203031-.09375.3125-.0728786.341512-.125.698205-.125 1.0625v2 68 2c0 2.781848 2.2181517 5 5 5h2 68 2c2.781848 0 5-2.218152 5-5v-2-68-2c0-.364295-.05212-.720988-.125-1.0625-.04415-.206893-.08838-.397658-.15625-.59375-.0077-.02195-.0233-.04069-.03125-.0625-.06274-.173739-.138383-.367449-.21875-.53125-.04158-.0828-.07904-.169954-.125-.25-.0546-.09721-.126774-.18835-.1875-.28125-.09411-.140965-.204921-.275995-.3125-.40625-.143174-.17445-.303141-.346998-.46875-.5-.01117-.0102-.01998-.02115-.03125-.03125-.138386-.125556-.285091-.234436-.4375-.34375-.102571-.07315-.204318-.153364-.3125-.21875-.0074-.0045-.02384.0044-.03125 0-.232039-.138728-.462548-.274778-.71875-.375.301527.0968.596455.204138.875.34375.55709.279224 1.060053.665694 1.5 1.09375.219973.214028.409366.441865.59375.6875s.355408.507743.5.78125c.14012.265048.276135.524729.375.8125.01041.03078.02133.06274.03125.09375.09046.278085.1388.579404.1875.875.0524.31805.09375.634029.09375.96875v2 68 2c0 3.324-2.676 6-6 6z" fill="url(#d)" opacity=".15"/></g><g><path d="m27.28125 20.9375c-3.312828-.08845-5.785707 3.223334-5.34375 6.379113.01834 10.96156-.03673 21.924978.02763 32.885375.227396 3.17427 3.429135 5.286068 6.451129 4.860512 13.615855-.01886 27.233669.03775 40.848295-.02838 3.182675-.251652 5.20808-3.506757 4.797949-6.512876-.01833-10.907513.03672-21.816883-.02763-32.723232-.227396-3.17427-3.429135-5.286068-6.451129-4.860512-13.434165 0-26.868329 0-40.302494 0zm31.625 10.78125c3.951381.02051 2.072706 6.633272-1.30067 4.391772-1.862407-1.190729-.968781-4.468002 1.30067-4.391772zm-15.0625 9.78125c3.274579 2.950831 6.439664 6.039914 9.78125 8.90625 1.357356.68352 2.563577-.472336 3.367597-1.446094.674386-1.210348 1.443062-.876028 2.245844.01703 2.108019 1.674272 4.216039 3.348543 6.324059 5.022814-.247642.747835.54345 2.534405-.486431 2.5-11.54619 0-23.092379 0-34.638569 0 0-2.416667 0-4.833333 0-7.25 1.229167-1.520833 2.458333-3.041667 3.6875-4.5625 1.252595.809932 2.267578 2.056541 3.6875 2.5625 1.851915.282734 2.595121-1.773926 3.677193-2.856846.784685-.964384 1.569371-1.928769 2.354057-2.893154zm-8.09375 25.4375c-1.762795.119452-2.43828 2.611775-1.072698 3.645753 4.075139 4.022881 8.077427 8.139344 12.197698 12.104247 1.19428.875077 2.613708-.03424 3.365071-1.052571 3.840704-3.903272 7.815423-7.690315 11.572429-11.666179.870999-1.51037-.640602-3.368089-2.298931-3.03125-7.92119 0-15.842379 0-23.763569 0z" opacity=".1"/><path d="m27.28125 21.96875c-2.376313 0-4.3125 1.986036-4.3125 4.375v33.3125c0 2.388964 1.936187 4.375 4.3125 4.375h41.4375c2.376313 0 4.3125-1.986036 4.3125-4.375v-33.3125c0-2.388964-1.936187-4.375-4.3125-4.375zm31.625 8.71875c1.839894 0 3.34375 1.528964 3.34375 3.4375s-1.495013 3.40625-3.34375 3.40625c-1.848739 0-3.34375-1.497714-3.34375-3.40625s1.503856-3.4375 3.34375-3.4375zm-15.1875 9.34375 10.125 9.28125a1.0232648 1.0232648 0 0 0 1.40625-.03125l2.65625-2.6875 8.6875 6.90625v4.03125h-37.1875v-8.625l4.5625-5.625 3.59375 2.75a1.0232648 1.0232648 0 0 0 1.40625-.15625zm-7.8125 27.9375a1.0232648 1.0232648 0 0 0 -.625 1.75l12 12a1.0232648 1.0232648 0 0 0 1.4375 0l12-12a1.0232648 1.0232648 0 0 0 -.71875-1.75h-24a1.0232648 1.0232648 0 0 0 -.09375 0z" opacity=".15"/><path d="m27.28125 23c-1.81309 0-3.28125 1.497084-3.28125 3.34375v33.3125c0 1.846666 1.46816 3.34375 3.28125 3.34375h41.4375c1.81309 0 3.28125-1.497084 3.28125-3.34375v-33.3125c0-1.846666-1.46816-3.34375-3.28125-3.34375zm31.625 6.65625c2.409971 0 4.375 2.014152 4.375 4.46875s-1.96503 4.4375-4.375 4.4375c-2.409971 0-4.375-1.982902-4.375-4.4375s1.965029-4.46875 4.375-4.46875zm-15.28125 8.90625 10.90625 10 3.28125-3.34375 9.8125 7.78125v5.5625h-39.25v-10l5.4375-6.6875 4.375 3.34375zm-7.625 30.4375 12 12 12-12z" opacity=".3"/><path d="m0 104h16v16h-16z" fill="url(#h)" transform="matrix(0 1 1 0 0 0)"/><text font-family="Liberation Sans" font-size="4" letter-spacing="0" word-spacing="0" x="104" y="48"><tspan x="104" y="48">Shadow opacity : 30, 15, 10, (8)</tspan></text><path d="m-40 104h16v16h-16z" fill="url(#i)" transform="rotate(-90)"/><text font-family="Liberation Sans" font-size="4" letter-spacing="0" word-spacing="0" x="124" y="32"><tspan x="124" y="32">Bevel opacity : 30 / 10</tspan></text><text font-family="Liberation Sans" font-size="4" letter-spacing="0" word-spacing="0" x="124" y="8"><tspan x="124" y="8">Bevel opacity : 75 / 15</tspan></text><path d="m27.28125 22c-1.81309 0-3.28125 1.497084-3.28125 3.34375v33.3125c0 1.846666 1.46816 3.34375 3.28125 3.34375h41.4375c1.81309 0 3.28125-1.497084 3.28125-3.34375v-33.3125c0-1.846666-1.46816-3.34375-3.28125-3.34375zm31.625 6.65625c2.409971 0 4.375 2.014152 4.375 4.46875s-1.96503 4.4375-4.375 4.4375c-2.409971 0-4.375-1.982902-4.375-4.4375s1.965029-4.46875 4.375-4.46875zm-15.28125 8.90625 10.90625 10 3.28125-3.34375 9.8125 7.78125v5.5625h-39.25v-10l5.4375-6.6875 4.375 3.34375zm-7.625 30.4375 12 12 12-12z" fill="url(#j)"/><path d="m27.28125 22c-1.81309 0-3.28125 1.497084-3.28125 3.34375v1c0-1.846666 1.46816-3.34375 3.28125-3.34375h41.4375c1.81309 0 3.28125 1.497084 3.28125 3.34375v-1c0-1.846666-1.46816-3.34375-3.28125-3.34375zm27.3125 11.625c-.01827.164928-.0625.330344-.0625.5 0 2.454598 1.965029 4.4375 4.375 4.4375 2.40997 0 4.375-1.982902 4.375-4.4375 0-.169656-.04423-.335072-.0625-.5-.246102 2.217523-2.069101 3.9375-4.3125 3.9375s-4.066398-1.719977-4.3125-3.9375zm-26.21875 23.9375v1h39.25v-1zm7.625 10.4375 1 1h22l1-1z" fill="#fff" opacity=".75"/><path d="m58.90625 27.65625c-2.409971 0-4.375 2.014152-4.375 4.46875 0 .169656.04423.33535.0625.5.246102-2.221267 2.069101-3.96875 4.3125-3.96875s4.066398 1.747483 4.3125 3.96875c.01827-.16465.0625-.330344.0625-.5 0-2.454598-1.965029-4.46875-4.375-4.46875zm-15.28125 8.90625-5.4375 6.65625-4.375-3.34375-5.4375 6.6875v1l5.4375-6.6875 4.375 3.34375 5.4375-6.65625 10.90625 10 3.28125-3.34375 9.8125 7.78125v-1l-9.8125-7.78125-3.28125 3.34375zm-19.625 21.09375v1c0 1.846666 1.46816 3.34375 3.28125 3.34375h41.4375c1.81309 0 3.28125-1.497084 3.28125-3.34375v-1c0 1.846666-1.46816 3.34375-3.28125 3.34375h-41.4375c-1.81309 0-3.28125-1.497084-3.28125-3.34375zm12 10.34375 12 12 12-12h-1l-11 11-11-11z" opacity=".15"/></g></svg>