<svg height="96" width="96" xmlns="http://www.w3.org/2000/svg" xmlns:xlink="http://www.w3.org/1999/xlink"><linearGradient id="a"><stop offset="0" stop-color="#f0f0f0"/><stop offset="1" stop-color="#aaa"/></linearGradient><linearGradient id="b"><stop offset="0" stop-color="#fff"/><stop offset="1" stop-color="#fff" stop-opacity="0"/></linearGradient><linearGradient id="c" gradientUnits="userSpaceOnUse" x1="36.357143" x2="36.357143" xlink:href="#b" y1="6" y2="63.893143"/><radialGradient id="d" cx="48" cy="90.171875" gradientTransform="matrix(1.1573129 0 0 .99590774 -7.551021 .197132)" gradientUnits="userSpaceOnUse" r="42" xlink:href="#b"/><linearGradient id="e" gradientTransform="matrix(1.0058652 0 0 .994169 100 0)" gradientUnits="userSpaceOnUse" x1="45.447727" x2="45.447727" y1="92.539597" y2="7.01654"><stop offset="0"/><stop offset="1" stop-opacity=".588235"/></linearGradient><linearGradient id="f" gradientTransform="matrix(1.0238095 0 0 -1.0119048 -1.142857 98.071429)" gradientUnits="userSpaceOnUse" x1="32.251034" x2="32.251034" xlink:href="#e" y1="6.131708" y2="90.238609"/><linearGradient id="g" gradientTransform="matrix(1 0 0 -1 0 97)" gradientUnits="userSpaceOnUse" x1="32.251034" x2="32.251034" xlink:href="#e" y1="6.131708" y2="90.238609"/><linearGradient id="h" gradientUnits="userSpaceOnUse" x1="0" x2="16" xlink:href="#a" y1="112" y2="112"/><linearGradient id="i" gradientUnits="userSpaceOnUse" x1="-40" x2="-24" xlink:href="#j" y1="112" y2="112"/><linearGradient id="j"><stop offset="0" stop-color="#c80000"/><stop offset="1" stop-color="#f3604d"/></linearGradient><linearGradient id="k" gradientTransform="matrix(0 -1 1 0 0 96)" gradientUnits="userSpaceOnUse" x1="27" x2="69" xlink:href="#j" y1="48" y2="48"/><g fill="url(#f)"><path d="m12 3.96875c-5.5110902 0-10.03125 4.5201598-10.03125 10.03125v71c0 5.51109 4.5201597 10.03125 10.03125 10.03125h72c5.51109 0 10.03125-4.52016 10.03125-10.03125v-71c0-5.5110903-4.52016-10.03125-10.03125-10.03125zm0 2.03125h72c3.324 0 6 2.676 6 6v72c0 3.324-2.676 6-6 6h-72c-3.324 0-6-2.676-6-6v-72c0-3.324 2.676-6 6-6z" opacity=".08"/><path d="m12 4.96875c-4.9716329 0-9.03125 4.0596171-9.03125 9.03125v71c0 4.971633 4.059617 9.03125 9.03125 9.03125h72c4.971633 0 9.03125-4.059617 9.03125-9.03125v-71c0-4.971633-4.059617-9.03125-9.03125-9.03125zm0 1.03125h72c3.324 0 6 2.676 6 6v72c0 3.324-2.676 6-6 6h-72c-3.324 0-6-2.676-6-6v-72c0-3.324 2.676-6 6-6z" opacity=".1"/><path d="m11.1875 6.03125c-4.027518.4106511-7.1875 3.8351875-7.1875 7.96875v71c0 4.409133 3.590867 8 8 8h72c4.409133 0 8-3.590867 8-8v-71c0-4.1970618-3.258972-7.6460416-7.375-7.96875 3.032886.306167 5.375 2.8525 5.375 5.96875v72c0 3.324-2.676 6-6 6h-72c-3.324 0-6-2.676-6-6v-72c0-3.11625 2.342114-5.662583 5.375-5.96875-.06227.00488-.12563-.00631-.1875 0z" opacity=".2"/><path d="m6.4375 9.75c-.8994891 1.177446-1.4375 2.647277-1.4375 4.25v71c0 3.878 3.122 7 7 7h72c3.878 0 7-3.122 7-7v-71c0-1.602723-.538011-3.072554-1.4375-4.25.279316.694095.4375 1.453625.4375 2.25v72c0 3.324-2.676 6-6 6h-72c-3.324 0-6-2.676-6-6v-72c0-.796375.1581836-1.555905.4375-2.25z" opacity=".3"/></g><path d="m6 84v1c0 3.324 2.676 6 6 6h72c3.324 0 6-2.676 6-6v-1c0 3.324-2.676 6-6 6h-72c-3.324 0-6-2.676-6-6z" fill="url(#g)" opacity=".45"/><g><rect height="84" opacity=".6" rx="6" width="84" x="6" y="6"/><path d="m12 6c-3.324 0-6 2.676-6 6v2 68 2c0 .334721.04135.6507.09375.96875.0487.295596.09704.596915.1875.875.00988.03038.020892.0636.03125.09375.098865.287771.2348802.547452.375.8125.1445918.273507.3156161.535615.5.78125s.3737765.473472.59375.6875c.439947.428056.94291.814526 1.5 1.09375.278545.139612.5734731.246947.875.34375-.2562018-.100222-.4867109-.236272-.71875-.375-.00741-.0044-.023866.0045-.03125 0-.031933-.0193-.062293-.04251-.09375-.0625-.120395-.0767-.2310226-.163513-.34375-.25-.1061728-.0808-.2132809-.161112-.3125-.25-.1779299-.161433-.3474596-.345388-.5-.53125-.1075789-.130255-.2183939-.265285-.3125-.40625-.025089-.03838-.038446-.08587-.0625-.125-.064763-.103032-.1302275-.204517-.1875-.3125-.1010083-.194706-.2056748-.415701-.28125-.625-.00796-.02181-.023589-.04055-.03125-.0625-.0318251-.09195-.0358045-.186831-.0625-.28125-.0303323-.106618-.0703894-.203031-.09375-.3125-.0728786-.341512-.125-.698205-.125-1.0625v-2-68-2c0-2.781848 2.2181517-5 5-5h2 68 2c2.781848 0 5 2.218152 5 5v2 68 2c0 .364295-.05212.720988-.125 1.0625-.04415.206893-.08838.397658-.15625.59375-.0077.02195-.0233.04069-.03125.0625-.06274.173739-.138383.367449-.21875.53125-.04158.0828-.07904.169954-.125.25-.0546.09721-.126774.18835-.1875.28125-.09411.140965-.204921.275995-.3125.40625-.143174.17445-.303141.346998-.46875.5-.01117.0102-.01998.02115-.03125.03125-.138386.125556-.285091.234436-.4375.34375-.102571.07315-.204318.153364-.3125.21875-.0074.0045-.02384-.0044-.03125 0-.232039.138728-.462548.274778-.71875.375.301527-.0968.596455-.204138.875-.34375.55709-.279224 1.060053-.665694 1.5-1.09375.219973-.214028.409366-.441865.59375-.6875s.355408-.507743.5-.78125c.14012-.265048.276135-.524729.375-.8125.01041-.03078.02133-.06274.03125-.09375.09046-.278085.1388-.579404.1875-.875.0524-.31805.09375-.634029.09375-.96875v-2-68-2c0-3.324-2.676-6-6-6z" fill="url(#c)" opacity=".01"/><path d="m12 90c-3.324 0-6-2.676-6-6v-2-68-2c0-.334721.04135-.6507.09375-.96875.0487-.295596.09704-.596915.1875-.875.00988-.03038.020892-.0636.03125-.09375.098865-.287771.2348802-.547452.375-.8125.1445918-.273507.3156161-.535615.5-.78125s.3737765-.473472.59375-.6875c.439947-.428056.94291-.814526 1.5-1.09375.278545-.139612.5734731-.246947.875-.34375-.2562018.100222-.4867109.236272-.71875.375-.00741.0044-.023866-.0045-.03125 0-.031933.0193-.062293.04251-.09375.0625-.120395.0767-.2310226.163513-.34375.25-.1061728.0808-.2132809.161112-.3125.25-.1779299.161433-.3474596.345388-.5.53125-.1075789.130255-.2183939.265285-.3125.40625-.025089.03838-.038446.08587-.0625.125-.064763.103032-.1302275.204517-.1875.3125-.1010083.194706-.2056748.415701-.28125.625-.00796.02181-.023589.04055-.03125.0625-.0318251.09195-.0358045.186831-.0625.28125-.0303323.106618-.0703894.203031-.09375.3125-.0728786.341512-.125.698205-.125 1.0625v2 68 2c0 2.781848 2.2181517 5 5 5h2 68 2c2.781848 0 5-2.218152 5-5v-2-68-2c0-.364295-.05212-.720988-.125-1.0625-.04415-.206893-.08838-.397658-.15625-.59375-.0077-.02195-.0233-.04069-.03125-.0625-.06274-.173739-.138383-.367449-.21875-.53125-.04158-.0828-.07904-.169954-.125-.25-.0546-.09721-.126774-.18835-.1875-.28125-.09411-.140965-.204921-.275995-.3125-.40625-.143174-.17445-.303141-.346998-.46875-.5-.01117-.0102-.01998-.02115-.03125-.03125-.138386-.125556-.285091-.234436-.4375-.34375-.102571-.07315-.204318-.153364-.3125-.21875-.0074-.0045-.02384.0044-.03125 0-.232039-.138728-.462548-.274778-.71875-.375.301527.0968.596455.204138.875.34375.55709.279224 1.060053.665694 1.5 1.09375.219973.214028.409366.441865.59375.6875s.355408.507743.5.78125c.14012.265048.276135.524729.375.8125.01041.03078.02133.06274.03125.09375.09046.278085.1388.579404.1875.875.0524.31805.09375.634029.09375.96875v2 68 2c0 3.324-2.676 6-6 6z" fill="url(#d)" opacity=".15"/></g><g><path d="m0 104h16v16h-16z" fill="url(#h)" transform="matrix(0 1 1 0 0 0)"/><text font-family="Liberation Sans" font-size="4" letter-spacing="0" word-spacing="0" x="104" y="48"><tspan x="104" y="48">Shadow opacity : 30, 15, 10, (8)</tspan></text><path d="m-40 104h16v16h-16z" fill="url(#i)" transform="rotate(-90)"/><text font-family="Liberation Sans" font-size="4" letter-spacing="0" word-spacing="0" x="124" y="32"><tspan x="124" y="32">Bevel opacity : 20 / 10</tspan></text><text font-family="Liberation Sans" font-size="4" letter-spacing="0" word-spacing="0" x="124" y="8"><tspan x="124" y="8">Bevel opacity : 75 / 15</tspan></text><path d="m59.46875 25.96875a.98822587.98822587 0 0 0 0 .03125c-.000303.000032-.187201-.000059-.1875 0s-.155958.06241-.15625.0625c-.000292.000086-.187217.06239-.1875.0625-.000283.000111-.155978.06236-.15625.0625-.000272.000136-.155991.09359-.15625.09375s-.156006.09357-.15625.09375c-.000244.000182-.124774.09355-.125.09375-.000198.000178-.06945.101121-.09375.125-.0035.0034-.03122-.000028-.03125 0l-10.21875 10.25-10.25-10.25c-.000139-.000139-.06235-.09362-.0625-.09375-.000147-.00013-.0936-.06238-.09375-.0625-.000154-.000122-.09359-.06239-.09375-.0625-.000161-.000113-.09358-.0624-.09375-.0625-.000167-.000103-.09358-.06241-.09375-.0625-.000173-.000093-.124822-.06242-.125-.0625-.000178-.000083-.09357-.03118-.09375-.03125-.000183-.000073-.09356-.06244-.09375-.0625-.000186-.000062-.12481-.0312-.125-.03125-.00019-.000051-.124808-.03121-.125-.03125s-.09356.000029-.09375 0c-.000194-.000029-.124804-.03123-.125-.03125-.000196-.000018-.09355.000007-.09375 0-.000196-.000007-.124804-.000005-.125 0s-.124804-.000016-.125 0c-.000137.000011-.02905.02752-.0625.03125-.01434.0016-.03119-.000008-.03125 0-.03815.0057-.156016-.000045-.15625 0-.00028.000054-.155975.06242-.15625.0625-.000275.000077-.155983.03115-.15625.03125s-.155992.06238-.15625.0625c-.000258.000122-.156003.09361-.15625.09375-.000247.000143-.124766.09359-.125.09375-.000234.000164-.124781.09357-.125.09375-.000219.000183-.124797.09355-.125.09375a.98822587.98822587 0 0 0 0 .03125l-9.34375 9.3125v.03125c-.01913.01939-.06241.0624-.0625.0625-.000117.000125-.06239.06237-.0625.0625-.000111.00013-.0624.06236-.0625.0625-.000104.000136-.0624.09361-.0625.09375-.000097.000141-.06241.0936-.0625.09375-.00009.000146-.06242.06235-.0625.0625-.000082.00015-.03118.0936-.03125.09375-.000075.000154-.03118.09359-.03125.09375-.000067.000157-.06244.09359-.0625.09375-.000059.000161-.0312.09359-.03125.09375-.000051.000163.000043.09358 0 .09375-.000043.000166-.03122.09358-.03125.09375-.000034.000168-.03122.09358-.03125.09375-.000026.000169.000017.12483 0 .125s.000009.09358 0 .09375c-.000009.000171 0 .09358 0 .09375 0 .000171-.000009.09358 0 .09375.000009.000171-.000017.09358 0 .09375s-.000026.124831 0 .125.03122.09358.03125.09375c.000034.000168.03121.09358.03125.09375.000043.000166-.000051.09359 0 .09375.000051.000163.03119.09359.03125.09375.000059.000161.06243.09359.0625.09375.000067.000157.03118.0936.03125.09375.000075.000154.03117.0936.03125.09375.000082.00015.06241.06235.0625.0625.00009.000146.0624.09361.0625.09375.000097.000141.0624.09361.0625.09375.000104.000136.06239.06237.0625.0625.000111.00013.06238.06238.0625.0625.00009.000096.04337.04311.0625.0625.0057.0058-.000028.03122 0 .03125l10.25 10.21875-10.25 10.21875v.03125c-.01913.01939-.06241.0624-.0625.0625-.000117.000125-.06239.06237-.0625.0625-.000111.00013-.0624.06236-.0625.0625-.000104.000136-.0624.09361-.0625.09375-.000097.000141-.06241.0936-.0625.09375-.00009.000146-.06242.06235-.0625.0625-.000082.00015-.03118.0936-.03125.09375-.000075.000154-.03118.09359-.03125.09375-.000067.000157-.06244.09359-.0625.09375-.000059.000161-.0312.09359-.03125.09375-.000051.000163.000043.09358 0 .09375-.000043.000166-.03122.09358-.03125.09375-.000034.000168-.03122.09358-.03125.09375-.000026.000169.000017.12483 0 .125s.000009.09358 0 .09375c-.000009.000171 0 .09358 0 .09375 0 .000171-.000009.09358 0 .09375.000009.000171-.000017.09358 0 .09375s-.000026.124831 0 .125.03122.09358.03125.09375c.000034.000168.03121.09358.03125.09375.000043.000166-.000051.09359 0 .09375.000051.000163.03119.09359.03125.09375.000059.000161.06243.09359.0625.09375.000067.000157.03118.0936.03125.09375.000075.000154.03117.0936.03125.09375.000082.00015.06241.06235.0625.0625.00009.000146.0624.09361.0625.09375.000097.000141.0624.09361.0625.09375.000104.000136.06239.06237.0625.0625.000111.00013.06238.06238.0625.0625.00009.000096.04337.04311.0625.0625.0057.0058-.000028.03122 0 .03125l9.34375 9.3125c.01939.01913.0624.06241.0625.0625.000125.000117.06237.06239.0625.0625.00013.000111.06236.0624.0625.0625.000136.000104.09361.0624.09375.0625.000141.000097.0936.06241.09375.0625.000146.00009.06235.06242.0625.0625.00015.000082.0936.03118.09375.03125.000154.000075.09359.03118.09375.03125.000157.000067.09359.06244.09375.0625.000161.000059.09359.0312.09375.03125.000163.000051.09358-.000043.09375 0 .000166.000043.09358.03122.09375.03125.000168.000034.09358.03122.09375.03125.000169.000026.12483-.000017.125 0s.09358-.000009.09375 0c.000171.000009.09358 0 .09375 0 .000171 0 .09358.000009.09375 0 .000171-.000009.09358.000017.09375 0s.124831.000026.125 0 .09358-.03122.09375-.03125c.000168-.000034.09358-.03121.09375-.03125.000166-.000043.09359.000051.09375 0 .000163-.000051.09359-.03119.09375-.03125.000161-.000059.09359-.06243.09375-.0625.000157-.000067.0936-.03118.09375-.03125.000154-.000075.0936-.03117.09375-.03125.00015-.000082.06235-.06241.0625-.0625.000146-.00009.09361-.0624.09375-.0625.000141-.000097.09361-.0624.09375-.0625.000136-.000104.06237-.06239.0625-.0625.00013-.000111.06238-.06238.0625-.0625.000096-.00009.04311-.04337.0625-.0625h.03125l10.21875-10.25 10.25 10.25c.01939.01913.0624.06241.0625.0625.000125.000117.06237.06239.0625.0625.00013.000111.06236.0624.0625.0625.000136.000104.09361.0624.09375.0625.000141.000097.0936.06241.09375.0625.000146.00009.06235.06242.0625.0625.00015.000082.0936.03118.09375.03125.000154.000075.09359.03118.09375.03125.000157.000067.09359.06244.09375.0625.000161.000059.09359.0312.09375.03125.000163.000051.09358-.000043.09375 0 .000166.000043.09358.03122.09375.03125.000168.000034.09358.03122.09375.03125.000169.000026.12483-.000017.125 0s.09358-.000009.09375 0c.000171.000009.09358 0 .09375 0 .000171 0 .09358.000009.09375 0 .000171-.000009.09358.000017.09375 0s.124831.000026.125 0 .09358-.03122.09375-.03125c.000168-.000034.09358-.03121.09375-.03125.000166-.000043.09359.000051.09375 0 .000163-.000051.09359-.03119.09375-.03125.000161-.000059.09359-.06243.09375-.0625.000157-.000067.0936-.03118.09375-.03125.000154-.000075.0936-.03117.09375-.03125.00015-.000082.06235-.06241.0625-.0625.000146-.00009.09361-.0624.09375-.0625.000141-.000097.09361-.0624.09375-.0625.000136-.000104.06237-.06239.0625-.0625.00013-.000111.06238-.06238.0625-.0625.000096-.00009.04311-.04337.0625-.0625h.03125l9.3125-9.3125v-.03125c.01913-.01939.06241-.0624.0625-.0625.000117-.000125.06239-.06237.0625-.0625.000111-.00013.0624-.06236.0625-.0625.000104-.000136.0624-.09361.0625-.09375.000097-.000141.06241-.0936.0625-.09375.00009-.000146.06242-.06235.0625-.0625.000082-.00015.03118-.0936.03125-.09375.000075-.000154.03118-.09359.03125-.09375.000067-.000157.06244-.09359.0625-.09375.000059-.000161.0312-.09359.03125-.09375.000051-.000163-.000043-.09358 0-.09375.000043-.000166.03122-.09358.03125-.09375.000034-.000168.03122-.09358.03125-.09375.000026-.000169-.000017-.12483 0-.125s-.000009-.09358 0-.09375c.000009-.000171 0-.09358 0-.09375 0-.000171.000009-.09358 0-.09375-.000009-.000171.000017-.09358 0-.09375s.000026-.124831 0-.125-.03122-.09358-.03125-.09375c-.000034-.000168-.03121-.09358-.03125-.09375-.000043-.000166.000051-.09359 0-.09375-.000051-.000163-.03119-.09359-.03125-.09375-.000059-.000161-.06243-.09359-.0625-.09375-.000067-.000157-.03118-.0936-.03125-.09375-.000075-.000154-.03117-.0936-.03125-.09375-.000082-.00015-.06241-.06235-.0625-.0625-.00009-.000146-.0624-.09361-.0625-.09375-.000097-.000141-.0624-.09361-.0625-.09375-.000104-.000136-.06239-.06237-.0625-.0625-.000111-.00013-.06238-.06238-.0625-.0625-.00009-.000096-.04337-.04311-.0625-.0625l-10.25-10.25 10.25-10.25c.01913-.01939.06241-.0624.0625-.0625.000117-.000125.06239-.06237.0625-.0625.000111-.00013.0624-.06236.0625-.0625.000104-.000136.0624-.09361.0625-.09375.000097-.000141.06241-.0936.0625-.09375.00009-.000146.06242-.06235.0625-.0625.000082-.00015.03118-.0936.03125-.09375.000075-.000154.03118-.09359.03125-.09375.000067-.000157.06244-.09359.0625-.09375.000059-.000161.0312-.09359.03125-.09375.000051-.000163-.000043-.09358 0-.09375.000043-.000166.03122-.09358.03125-.09375.000034-.000168.03122-.09358.03125-.09375.000026-.000169-.000017-.12483 0-.125s-.000009-.09358 0-.09375c.000009-.000171 0-.09358 0-.09375 0-.000171.000009-.09358 0-.09375-.000009-.000171.000017-.09358 0-.09375s.000026-.124831 0-.125-.03122-.09358-.03125-.09375c-.000034-.000168-.03121-.09358-.03125-.09375-.000043-.000166.000051-.09359 0-.09375-.000051-.000163-.03119-.09359-.03125-.09375-.000059-.000161-.06243-.09359-.0625-.09375-.000067-.000157-.03118-.0936-.03125-.09375-.000075-.000154-.03117-.0936-.03125-.09375-.000082-.00015-.06241-.06235-.0625-.0625-.00009-.000146-.0624-.09361-.0625-.09375-.000097-.000141-.0624-.09361-.0625-.09375-.000104-.000136-.06239-.06237-.0625-.0625-.000111-.00013-.06238-.06238-.0625-.0625-.00009-.000096-.04337-.04311-.0625-.0625l-9.3125-9.34375c-.000033-.000035-.02387.0075-.03125 0-.02216-.02237-.03115-.0624-.03125-.0625-.000139-.000133-.0936-.09362-.09375-.09375-.000146-.000125-.0936-.06238-.09375-.0625-.000153-.000116-.09359-.06239-.09375-.0625-.000159-.000107-.09358-.0624-.09375-.0625-.000165-.000098-.09358-.06241-.09375-.0625-.00017-.000089-.09358-.03117-.09375-.03125-.000175-.000079-.124821-.03118-.125-.03125-.000179-.000069-.09357-.06244-.09375-.0625-.000183-.000059-.09356-.0312-.09375-.03125-.000186-.000048-.124812.000038-.125 0s-.09356-.03122-.09375-.03125c-.00019-.000027-.124809-.03123-.125-.03125-.000191-.000016-.09356.000006-.09375 0-.000192-.000006-.124808-.000005-.125 0s-.124809-.000016-.125 0z" opacity=".1"/><path d="m36.21875 27a.99834447.99834447 0 0 0 -.59375.28125l-9.34375 9.34375a.99834447.99834447 0 0 0 0 1.4375l10.9375 10.9375-10.9375 10.9375a.99834447.99834447 0 0 0 0 1.4375l9.34375 9.34375a.99834447.99834447 0 0 0 1.4375 0l10.9375-10.9375 10.9375 10.9375a.99834447.99834447 0 0 0 1.4375 0l9.34375-9.34375a.99834447.99834447 0 0 0 0-1.4375l-10.9375-10.9375 10.9375-10.9375a.99834447.99834447 0 0 0 0-1.4375l-9.34375-9.34375a.99834447.99834447 0 0 0 -1.4375 0l-10.9375 10.9375-10.9375-10.9375a.99834447.99834447 0 0 0 -.84375-.28125z" opacity=".15"/><path d="m26.999999 60.666667 9.333334 9.333333 11.666667-11.666667 11.666667 11.666667 9.333333-9.333333-11.666667-11.666667 11.666667-11.666667-9.333333-9.333333-11.666667 11.666667-11.666667-11.666667-9.333334 9.333333 11.666668 11.666667z" opacity=".3"/><path d="m26.999999 59.666667 9.333334 9.333333 11.666667-11.666667 11.666667 11.666667 9.333333-9.333333-11.666667-11.666667 11.666667-11.666667-9.333333-9.333333-11.666667 11.666667-11.666667-11.666667-9.333334 9.333333 11.666668 11.666667z" fill="url(#k)"/><path d="m36.34375 27-9.343751 9.34375.5.5 8.843751-8.84375 11.65625 11.65625 11.65625-11.65625 8.84375 8.84375.5-.5-9.34375-9.34375-11.65625 11.65625zm1.8125 21.5-11.156251 11.15625.5.5 11.156251-11.15625zm19.6875 0-.5.5 11.15625 11.15625.5-.5z" fill="#fff" opacity=".3"/><path d="m27.499999 35.84375-.5.5 11.156251 11.15625.5-.5zm41.000001 0-11.15625 11.15625.5.5 11.15625-11.15625zm-20.5 20.5-11.65625 11.65625-8.843751-8.84375-.5.5 9.343751 9.34375 11.65625-11.65625 11.65625 11.65625 9.34375-9.34375-.5-.5-8.84375 8.84375z" opacity=".1"/></g></svg>