<svg height="96" width="96" xmlns="http://www.w3.org/2000/svg" xmlns:xlink="http://www.w3.org/1999/xlink"><linearGradient id="a"><stop offset="0" stop-color="#fff"/><stop offset="1" stop-color="#fff" stop-opacity="0"/></linearGradient><linearGradient id="b" gradientUnits="userSpaceOnUse" x1="36.357143" x2="36.357143" xlink:href="#a" y1="6" y2="63.893143"/><radialGradient id="c" cx="48" cy="90.171875" gradientTransform="matrix(1.1573129 0 0 .99590774 -7.551021 .197132)" gradientUnits="userSpaceOnUse" r="42" xlink:href="#a"/><linearGradient id="d"><stop offset="0" stop-color="#aaa"/><stop offset="1" stop-color="#f0f0f0"/></linearGradient><linearGradient id="e" gradientUnits="userSpaceOnUse" x1="48" x2="48" xlink:href="#d" y1="-8" y2="-56"/><linearGradient id="f" gradientUnits="userSpaceOnUse" x1="52" x2="52" xlink:href="#d" y1="72" y2="24"/><linearGradient id="g" gradientTransform="matrix(1.0058652 0 0 .994169 100 0)" gradientUnits="userSpaceOnUse" x1="45.447727" x2="45.447727" y1="92.539597" y2="7.01654"><stop offset="0"/><stop offset="1" stop-opacity=".588235"/></linearGradient><linearGradient id="h" gradientTransform="matrix(1.0238095 0 0 -1.0119048 -1.142857 98.071429)" gradientUnits="userSpaceOnUse" x1="32.251034" x2="32.251034" xlink:href="#g" y1="6.131708" y2="90.238609"/><linearGradient id="i" gradientTransform="matrix(1 0 0 -1 0 97)" gradientUnits="userSpaceOnUse" x1="32.251034" x2="32.251034" xlink:href="#g" y1="6.131708" y2="90.238609"/><g><g fill="url(#h)"><path d="m12 3.96875c-5.5110902 0-10.03125 4.5201598-10.03125 10.03125v71c0 5.51109 4.5201597 10.03125 10.03125 10.03125h72c5.51109 0 10.03125-4.52016 10.03125-10.03125v-71c0-5.5110903-4.52016-10.03125-10.03125-10.03125zm0 2.03125h72c3.324 0 6 2.676 6 6v72c0 3.324-2.676 6-6 6h-72c-3.324 0-6-2.676-6-6v-72c0-3.324 2.676-6 6-6z" opacity=".08"/><path d="m12 4.96875c-4.9716329 0-9.03125 4.0596171-9.03125 9.03125v71c0 4.971633 4.059617 9.03125 9.03125 9.03125h72c4.971633 0 9.03125-4.059617 9.03125-9.03125v-71c0-4.971633-4.059617-9.03125-9.03125-9.03125zm0 1.03125h72c3.324 0 6 2.676 6 6v72c0 3.324-2.676 6-6 6h-72c-3.324 0-6-2.676-6-6v-72c0-3.324 2.676-6 6-6z" opacity=".1"/><path d="m11.1875 6.03125c-4.027518.4106511-7.1875 3.8351875-7.1875 7.96875v71c0 4.409133 3.590867 8 8 8h72c4.409133 0 8-3.590867 8-8v-71c0-4.1970618-3.258972-7.6460416-7.375-7.96875 3.032886.306167 5.375 2.8525 5.375 5.96875v72c0 3.324-2.676 6-6 6h-72c-3.324 0-6-2.676-6-6v-72c0-3.11625 2.342114-5.662583 5.375-5.96875-.06227.00488-.12563-.00631-.1875 0z" opacity=".2"/><path d="m6.4375 9.75c-.8994891 1.177446-1.4375 2.647277-1.4375 4.25v71c0 3.878 3.122 7 7 7h72c3.878 0 7-3.122 7-7v-71c0-1.602723-.538011-3.072554-1.4375-4.25.279316.694095.4375 1.453625.4375 2.25v72c0 3.324-2.676 6-6 6h-72c-3.324 0-6-2.676-6-6v-72c0-.796375.1581836-1.555905.4375-2.25z" opacity=".3"/></g><path d="m6 84v1c0 3.324 2.676 6 6 6h72c3.324 0 6-2.676 6-6v-1c0 3.324-2.676 6-6 6h-72c-3.324 0-6-2.676-6-6z" fill="url(#i)" opacity=".45"/></g><g><rect height="84" opacity=".6" rx="6" width="84" x="6" y="6"/><path d="m12 6c-3.324 0-6 2.676-6 6v2 68 2c0 .334721.04135.6507.09375.96875.0487.295596.09704.596915.1875.875.00988.03038.020892.0636.03125.09375.098865.287771.2348802.547452.375.8125.1445918.273507.3156161.535615.5.78125s.3737765.473472.59375.6875c.439947.428056.94291.814526 1.5 1.09375.278545.139612.5734731.246947.875.34375-.2562018-.100222-.4867109-.236272-.71875-.375-.00741-.0044-.023866.0045-.03125 0-.031933-.0193-.062293-.04251-.09375-.0625-.120395-.0767-.2310226-.163513-.34375-.25-.1061728-.0808-.2132809-.161112-.3125-.25-.1779299-.161433-.3474596-.345388-.5-.53125-.1075789-.130255-.2183939-.265285-.3125-.40625-.025089-.03838-.038446-.08587-.0625-.125-.064763-.103032-.1302275-.204517-.1875-.3125-.1010083-.194706-.2056748-.415701-.28125-.625-.00796-.02181-.023589-.04055-.03125-.0625-.0318251-.09195-.0358045-.186831-.0625-.28125-.0303323-.106618-.0703894-.203031-.09375-.3125-.0728786-.341512-.125-.698205-.125-1.0625v-2-68-2c0-2.781848 2.2181517-5 5-5h2 68 2c2.781848 0 5 2.218152 5 5v2 68 2c0 .364295-.05212.720988-.125 1.0625-.04415.206893-.08838.397658-.15625.59375-.0077.02195-.0233.04069-.03125.0625-.06274.173739-.138383.367449-.21875.53125-.04158.0828-.07904.169954-.125.25-.0546.09721-.126774.18835-.1875.28125-.09411.140965-.204921.275995-.3125.40625-.143174.17445-.303141.346998-.46875.5-.01117.0102-.01998.02115-.03125.03125-.138386.125556-.285091.234436-.4375.34375-.102571.07315-.204318.153364-.3125.21875-.0074.0045-.02384-.0044-.03125 0-.232039.138728-.462548.274778-.71875.375.301527-.0968.596455-.204138.875-.34375.55709-.279224 1.060053-.665694 1.5-1.09375.219973-.214028.409366-.441865.59375-.6875s.355408-.507743.5-.78125c.14012-.265048.276135-.524729.375-.8125.01041-.03078.02133-.06274.03125-.09375.09046-.278085.1388-.579404.1875-.875.0524-.31805.09375-.634029.09375-.96875v-2-68-2c0-3.324-2.676-6-6-6z" fill="url(#b)" opacity=".01"/><path d="m12 90c-3.324 0-6-2.676-6-6v-2-68-2c0-.334721.04135-.6507.09375-.96875.0487-.295596.09704-.596915.1875-.875.00988-.03038.020892-.0636.03125-.09375.098865-.287771.2348802-.547452.375-.8125.1445918-.273507.3156161-.535615.5-.78125s.3737765-.473472.59375-.6875c.439947-.428056.94291-.814526 1.5-1.09375.278545-.139612.5734731-.246947.875-.34375-.2562018.100222-.4867109.236272-.71875.375-.00741.0044-.023866-.0045-.03125 0-.031933.0193-.062293.04251-.09375.0625-.120395.0767-.2310226.163513-.34375.25-.1061728.0808-.2132809.161112-.3125.25-.1779299.161433-.3474596.345388-.5.53125-.1075789.130255-.2183939.265285-.3125.40625-.025089.03838-.038446.08587-.0625.125-.064763.103032-.1302275.204517-.1875.3125-.1010083.194706-.2056748.415701-.28125.625-.00796.02181-.023589.04055-.03125.0625-.0318251.09195-.0358045.186831-.0625.28125-.0303323.106618-.0703894.203031-.09375.3125-.0728786.341512-.125.698205-.125 1.0625v2 68 2c0 2.781848 2.2181517 5 5 5h2 68 2c2.781848 0 5-2.218152 5-5v-2-68-2c0-.364295-.05212-.720988-.125-1.0625-.04415-.206893-.08838-.397658-.15625-.59375-.0077-.02195-.0233-.04069-.03125-.0625-.06274-.173739-.138383-.367449-.21875-.53125-.04158-.0828-.07904-.169954-.125-.25-.0546-.09721-.126774-.18835-.1875-.28125-.09411-.140965-.204921-.275995-.3125-.40625-.143174-.17445-.303141-.346998-.46875-.5-.01117-.0102-.01998-.02115-.03125-.03125-.138386-.125556-.285091-.234436-.4375-.34375-.102571-.07315-.204318-.153364-.3125-.21875-.0074-.0045-.02384.0044-.03125 0-.232039-.138728-.462548-.274778-.71875-.375.301527.0968.596455.204138.875.34375.55709.279224 1.060053.665694 1.5 1.09375.219973.214028.409366.441865.59375.6875s.355408.507743.5.78125c.14012.265048.276135.524729.375.8125.01041.03078.02133.06274.03125.09375.09046.278085.1388.579404.1875.875.0524.31805.09375.634029.09375.96875v2 68 2c0 3.324-2.676 6-6 6z" fill="url(#c)" opacity=".15"/></g><g><path d="m52 22.96875c-9.508347-.117142-18.673698 5.622116-22.96875 14.0625-1.035624-.952612-2.10981-2.690095-3.75-2.0625-1.859878.734267-1.1948 2.984446-1.3125 4.529749.290449 1.266579-.183315 1.768945-1.45814 1.470251-1.806431.12378-3.712173-.272673-5.44811.25-1.688061.938575-.918508 3.129504-1.09375 4.69753.06139 3.223456-.123571 6.466308.09375 9.67747.634562 1.955392 2.964719 1.343315 4.529749 1.4375h3.376501c.128778 1.647002-.28144 3.38685.25 4.96875.719494 1.366696 2.769858 1.314658 3.565962.06612 1.413993-2.378473 1.959366.666129 3.003614 1.84657 5.685779 8.378202 16.548104 12.762616 26.4482 10.588311 11.219392-2.135738 20.18486-12.424729 20.741758-23.832877.860115-10.989526-6.135672-21.983951-16.447174-25.889506-3.025026-1.198935-6.277845-1.812294-9.53111-1.809868zm0 22.0625c3.260378-.200117 5.226235 4.117868 3.076226 6.510917-1.913425 2.54365-6.504326 1.4596-6.966091-1.730107-.556155-2.399202 1.408722-4.867287 3.889865-4.78081z" opacity=".1"/><path d="m52 24.03125c-9.841669 0-18.346265 5.716324-22.40625 14a.96008596.96008596 0 0 0 .1875 1.125l9.84375 9.84375-9.84375 9.84375a.96008596.96008596 0 0 0 -.1875 1.125c4.059985 8.283676 12.564581 14 22.40625 14 13.773651 0 24.96875-11.195099 24.96875-24.96875s-11.195099-24.96875-24.96875-24.96875zm-26.09375 11.875a.96008596.96008596 0 0 0 -.875.96875v5.15625h-7.03125a.96008596.96008596 0 0 0 -.96875.96875v12a.96008596.96008596 0 0 0 .96875.96875h7.03125v5.03125a.96008596.96008596 0 0 0 1.65625.6875l12-12.09375a.96008596.96008596 0 0 0 0-1.375l-12-12.03125a.96008596.96008596 0 0 0 -.78125-.28125zm26.09375 4.0625c5.004031 0 9.03125 4.027219 9.03125 9.03125s-4.027219 9.03125-9.03125 9.03125-9.03125-4.027219-9.03125-9.03125 4.027219-9.03125 9.03125-9.03125zm0 .0625c-4.937095 0-8.96875 4.031655-8.96875 8.96875s4.031655 8.96875 8.96875 8.96875 8.96875-4.031655 8.96875-8.96875-4.031655-8.96875-8.96875-8.96875zm0 3.9375c2.794891 0 5.03125 2.236359 5.03125 5.03125s-2.236359 5.03125-5.03125 5.03125-5.03125-2.236359-5.03125-5.03125 2.236359-5.03125 5.03125-5.03125z" opacity=".15"/><path d="m52 25c-9.469783 0-17.626931 5.502683-21.53125 13.46875l10.53125 10.53125-10.53125 10.53125c3.904319 7.966067 12.061467 13.46875 21.53125 13.46875 13.254834 0 24-10.745166 24-24s-10.745166-24-24-24zm-26 11.875v6.125h-8v12h8v6l12-12.09375zm26 2.125c5.522848 0 10 4.477152 10 10s-4.477152 10-10 10-10-4.477152-10-10 4.477152-10 10-10zm0 2c-4.418278 0-8 3.581722-8 8s3.581722 8 8 8 8-3.581722 8-8-3.581722-8-8-8zm0 2c3.313708 0 6 2.686292 6 6s-2.686292 6-6 6-6-2.686292-6-6 2.686292-6 6-6z" opacity=".3"/><path d="m52 24c-9.469783 0-17.626931 5.502683-21.53125 13.46875l10.53125 10.53125-10.53125 10.53125c3.904319 7.966067 12.061467 13.46875 21.53125 13.46875 13.254834 0 24-10.745166 24-24s-10.745166-24-24-24zm-26 11.875v6.125h-8v12h8v6l12-12.09375zm26 2.125c5.522848 0 10 4.477152 10 10s-4.477152 10-10 10-10-4.477152-10-10 4.477152-10 10-10zm0 2c-4.418278 0-8 3.581722-8 8s3.581722 8 8 8 8-3.581722 8-8-3.581722-8-8-8zm0 2c3.313708 0 6 2.686292 6 6s-2.686292 6-6 6-6-2.686292-6-6 2.686292-6 6-6z" fill="url(#f)"/><path d="m48-56c-13.254834 0-24 10.745166-24 24s10.745166 24 24 24 24-10.745166 24-24-10.745166-24-24-24zm0 14c5.522848 0 10 4.477152 10 10s-4.477152 10-10 10-10-4.477152-10-10 4.477152-10 10-10zm0 2c-4.418278 0-8 3.581722-8 8s3.581722 8 8 8 8-3.581722 8-8-3.581722-8-8-8zm0 2c3.313708 0 6 2.686292 6 6s-2.686292 6-6 6-6-2.686292-6-6 2.686292-6 6-6z" fill="url(#e)"/><path d="m52 24c-9.469783 0-17.626931 5.502683-21.53125 13.46875l.34375.34375c4.023579-7.608765 11.981277-12.8125 21.1875-12.8125 13.089252 0 23.736161 10.473936 24 23.5.003338-.164783 0-.334418 0-.5 0-13.254834-10.745166-24-24-24zm-26 11.875v1l11.5 11.53125.5-.5zm26 4.125c-4.418278 0-8 3.581722-8 8 0 .170091.02079.332546.03125.5.261243-4.182345 3.720563-7.5 7.96875-7.5s7.707507 3.317655 7.96875 7.5c.01046-.167454.03125-.329909.03125-.5 0-4.418278-3.581722-8-8-8zm-34 2v1h8v-1zm22.5 6.5-10.03125 10.03125c.108664.221709.228561.438423.34375.65625l10.1875-10.1875zm1.53125 0c-.008129.165362-.03125.332622-.03125.5 0 5.522848 4.477152 10 10 10s10-4.477152 10-10c0-.167378-.02312-.334638-.03125-.5-.260093 5.290952-4.61328 9.5-9.96875 9.5s-9.708657-4.209048-9.96875-9.5zm4 .125c-.007471.122591-.03125.250529-.03125.375 0 3.313708 2.686292 6 6 6s6-2.686292 6-6c0-.124471-.02378-.252409-.03125-.375-.30726 3.025536-2.862149 5.375-5.96875 5.375s-5.66149-2.349464-5.96875-5.375z" fill="#fff" opacity=".75"/><path d="m30.8125 36.8125c-.115189.217827-.235086.434541-.34375.65625l10.03125 10.03125.5-.5zm21.1875.1875c-5.522848 0-10 4.477152-10 10 0 .167378.02312.334638.03125.5.260093-5.290952 4.61328-9.5 9.96875-9.5s9.708657 4.209048 9.96875 9.5c.008129-.165362.03125-.332622.03125-.5 0-5.522848-4.477152-10-10-10zm0 4c-3.313708 0-6 2.686292-6 6 0 .124471.02378.252409.03125.375.30726-3.025536 2.862149-5.375 5.96875-5.375s5.66149 2.349464 5.96875 5.375c.007471-.122591.03125-.250529.03125-.375 0-3.313708-2.686292-6-6-6zm-14.5 6.40625-11.5 11.59375v1l12-12.09375zm6.53125.09375c-.01046.167454-.03125.329909-.03125.5 0 4.418278 3.581722 8 8 8s8-3.581722 8-8c0-.170091-.02079-.332546-.03125-.5-.261243 4.182345-3.720563 7.5-7.96875 7.5s-7.707507-3.317655-7.96875-7.5zm31.96875 0c-.263839 13.026064-10.910748 23.5-24 23.5-9.206223 0-17.163921-5.203735-21.1875-12.8125l-.34375.34375c3.904319 7.966067 12.061467 13.46875 21.53125 13.46875 13.254834 0 24-10.745166 24-24 0-.165582.0033-.335217 0-.5zm-58 5.5v1h8v-1z" opacity=".15"/></g></svg>