<svg height="96" width="96" xmlns="http://www.w3.org/2000/svg" xmlns:xlink="http://www.w3.org/1999/xlink"><linearGradient id="a"><stop offset="0" stop-color="#f0f0f0"/><stop offset="1" stop-color="#aaa"/></linearGradient><linearGradient id="b"><stop offset="0" stop-color="#fff"/><stop offset="1" stop-color="#fff" stop-opacity="0"/></linearGradient><linearGradient id="c" gradientUnits="userSpaceOnUse" x1="36.357143" x2="36.357143" xlink:href="#b" y1="6" y2="63.893143"/><radialGradient id="d" cx="48" cy="90.171875" gradientTransform="matrix(1.1573129 0 0 .99590774 -7.551021 .197132)" gradientUnits="userSpaceOnUse" r="42" xlink:href="#b"/><linearGradient id="e" gradientTransform="matrix(1.0058652 0 0 .994169 100 0)" gradientUnits="userSpaceOnUse" x1="45.447727" x2="45.447727" y1="92.539597" y2="7.01654"><stop offset="0"/><stop offset="1" stop-opacity=".588235"/></linearGradient><linearGradient id="f" gradientTransform="matrix(1.0238095 0 0 -1.0119048 -1.142857 98.071429)" gradientUnits="userSpaceOnUse" x1="32.251034" x2="32.251034" xlink:href="#e" y1="6.131708" y2="90.238609"/><linearGradient id="g" gradientTransform="matrix(1 0 0 -1 0 97)" gradientUnits="userSpaceOnUse" x1="32.251034" x2="32.251034" xlink:href="#e" y1="6.131708" y2="90.238609"/><linearGradient id="h" gradientUnits="userSpaceOnUse" x1="0" x2="16" xlink:href="#a" y1="112" y2="112"/><linearGradient id="i" gradientUnits="userSpaceOnUse" x1="-40" x2="-24" y1="112" y2="112"><stop offset="0" stop-color="#c80000"/><stop offset="1" stop-color="#f3604d"/></linearGradient><linearGradient id="j" gradientUnits="userSpaceOnUse" x1="50.7" x2="50.7" xlink:href="#a" y1="39.9" y2="75.1036908"/><linearGradient id="k" gradientTransform="matrix(0 2.7 -2.7 0 72.3 12.9)" gradientUnits="userSpaceOnUse" x1="7" x2="15" xlink:href="#b" y1="9" y2="9"/><linearGradient id="l" gradientTransform="matrix(0 2.7 -2.7 0 75 15.6)" gradientUnits="userSpaceOnUse" x1="4" x2="18" xlink:href="#b" y1="10" y2="10"/><linearGradient id="m" gradientTransform="matrix(0 2.7 -2.7 0 77.7 18.3)" gradientUnits="userSpaceOnUse" x1="1" x2="21" xlink:href="#b" y1="11" y2="11"/><g fill="url(#f)"><path d="m12 3.96875c-5.5110902 0-10.03125 4.5201598-10.03125 10.03125v71c0 5.51109 4.5201597 10.03125 10.03125 10.03125h72c5.51109 0 10.03125-4.52016 10.03125-10.03125v-71c0-5.5110903-4.52016-10.03125-10.03125-10.03125zm0 2.03125h72c3.324 0 6 2.676 6 6v72c0 3.324-2.676 6-6 6h-72c-3.324 0-6-2.676-6-6v-72c0-3.324 2.676-6 6-6z" opacity=".08"/><path d="m12 4.96875c-4.9716329 0-9.03125 4.0596171-9.03125 9.03125v71c0 4.971633 4.059617 9.03125 9.03125 9.03125h72c4.971633 0 9.03125-4.059617 9.03125-9.03125v-71c0-4.971633-4.059617-9.03125-9.03125-9.03125zm0 1.03125h72c3.324 0 6 2.676 6 6v72c0 3.324-2.676 6-6 6h-72c-3.324 0-6-2.676-6-6v-72c0-3.324 2.676-6 6-6z" opacity=".1"/><path d="m11.1875 6.03125c-4.027518.4106511-7.1875 3.8351875-7.1875 7.96875v71c0 4.409133 3.590867 8 8 8h72c4.409133 0 8-3.590867 8-8v-71c0-4.1970618-3.258972-7.6460416-7.375-7.96875 3.032886.306167 5.375 2.8525 5.375 5.96875v72c0 3.324-2.676 6-6 6h-72c-3.324 0-6-2.676-6-6v-72c0-3.11625 2.342114-5.662583 5.375-5.96875-.06227.00488-.12563-.00631-.1875 0z" opacity=".2"/><path d="m6.4375 9.75c-.8994891 1.177446-1.4375 2.647277-1.4375 4.25v71c0 3.878 3.122 7 7 7h72c3.878 0 7-3.122 7-7v-71c0-1.602723-.538011-3.072554-1.4375-4.25.279316.694095.4375 1.453625.4375 2.25v72c0 3.324-2.676 6-6 6h-72c-3.324 0-6-2.676-6-6v-72c0-.796375.1581836-1.555905.4375-2.25z" opacity=".3"/></g><path d="m6 84v1c0 3.324 2.676 6 6 6h72c3.324 0 6-2.676 6-6v-1c0 3.324-2.676 6-6 6h-72c-3.324 0-6-2.676-6-6z" fill="url(#g)" opacity=".45"/><g><rect height="84" opacity=".6" rx="6" width="84" x="6" y="6"/><path d="m12 6c-3.324 0-6 2.676-6 6v2 68 2c0 .334721.04135.6507.09375.96875.0487.295596.09704.596915.1875.875.00988.03038.020892.0636.03125.09375.098865.287771.2348802.547452.375.8125.1445918.273507.3156161.535615.5.78125s.3737765.473472.59375.6875c.439947.428056.94291.814526 1.5 1.09375.278545.139612.5734731.246947.875.34375-.2562018-.100222-.4867109-.236272-.71875-.375-.00741-.0044-.023866.0045-.03125 0-.031933-.0193-.062293-.04251-.09375-.0625-.120395-.0767-.2310226-.163513-.34375-.25-.1061728-.0808-.2132809-.161112-.3125-.25-.1779299-.161433-.3474596-.345388-.5-.53125-.1075789-.130255-.2183939-.265285-.3125-.40625-.025089-.03838-.038446-.08587-.0625-.125-.064763-.103032-.1302275-.204517-.1875-.3125-.1010083-.194706-.2056748-.415701-.28125-.625-.00796-.02181-.023589-.04055-.03125-.0625-.0318251-.09195-.0358045-.186831-.0625-.28125-.0303323-.106618-.0703894-.203031-.09375-.3125-.0728786-.341512-.125-.698205-.125-1.0625v-2-68-2c0-2.781848 2.2181517-5 5-5h2 68 2c2.781848 0 5 2.218152 5 5v2 68 2c0 .364295-.05212.720988-.125 1.0625-.04415.206893-.08838.397658-.15625.59375-.0077.02195-.0233.04069-.03125.0625-.06274.173739-.138383.367449-.21875.53125-.04158.0828-.07904.169954-.125.25-.0546.09721-.126774.18835-.1875.28125-.09411.140965-.204921.275995-.3125.40625-.143174.17445-.303141.346998-.46875.5-.01117.0102-.01998.02115-.03125.03125-.138386.125556-.285091.234436-.4375.34375-.102571.07315-.204318.153364-.3125.21875-.0074.0045-.02384-.0044-.03125 0-.232039.138728-.462548.274778-.71875.375.301527-.0968.596455-.204138.875-.34375.55709-.279224 1.060053-.665694 1.5-1.09375.219973-.214028.409366-.441865.59375-.6875s.355408-.507743.5-.78125c.14012-.265048.276135-.524729.375-.8125.01041-.03078.02133-.06274.03125-.09375.09046-.278085.1388-.579404.1875-.875.0524-.31805.09375-.634029.09375-.96875v-2-68-2c0-3.324-2.676-6-6-6z" fill="url(#c)" opacity=".01"/><path d="m12 90c-3.324 0-6-2.676-6-6v-2-68-2c0-.334721.04135-.6507.09375-.96875.0487-.295596.09704-.596915.1875-.875.00988-.03038.020892-.0636.03125-.09375.098865-.287771.2348802-.547452.375-.8125.1445918-.273507.3156161-.535615.5-.78125s.3737765-.473472.59375-.6875c.439947-.428056.94291-.814526 1.5-1.09375.278545-.139612.5734731-.246947.875-.34375-.2562018.100222-.4867109.236272-.71875.375-.00741.0044-.023866-.0045-.03125 0-.031933.0193-.062293.04251-.09375.0625-.120395.0767-.2310226.163513-.34375.25-.1061728.0808-.2132809.161112-.3125.25-.1779299.161433-.3474596.345388-.5.53125-.1075789.130255-.2183939.265285-.3125.40625-.025089.03838-.038446.08587-.0625.125-.064763.103032-.1302275.204517-.1875.3125-.1010083.194706-.2056748.415701-.28125.625-.00796.02181-.023589.04055-.03125.0625-.0318251.09195-.0358045.186831-.0625.28125-.0303323.106618-.0703894.203031-.09375.3125-.0728786.341512-.125.698205-.125 1.0625v2 68 2c0 2.781848 2.2181517 5 5 5h2 68 2c2.781848 0 5-2.218152 5-5v-2-68-2c0-.364295-.05212-.720988-.125-1.0625-.04415-.206893-.08838-.397658-.15625-.59375-.0077-.02195-.0233-.04069-.03125-.0625-.06274-.173739-.138383-.367449-.21875-.53125-.04158-.0828-.07904-.169954-.125-.25-.0546-.09721-.126774-.18835-.1875-.28125-.09411-.140965-.204921-.275995-.3125-.40625-.143174-.17445-.303141-.346998-.46875-.5-.01117-.0102-.01998-.02115-.03125-.03125-.138386-.125556-.285091-.234436-.4375-.34375-.102571-.07315-.204318-.153364-.3125-.21875-.0074-.0045-.02384.0044-.03125 0-.232039-.138728-.462548-.274778-.71875-.375.301527.0968.596455.204138.875.34375.55709.279224 1.060053.665694 1.5 1.09375.219973.214028.409366.441865.59375.6875s.355408.507743.5.78125c.14012.265048.276135.524729.375.8125.01041.03078.02133.06274.03125.09375.09046.278085.1388.579404.1875.875.0524.31805.09375.634029.09375.96875v2 68 2c0 3.324-2.676 6-6 6z" fill="url(#d)" opacity=".15"/></g><g><path d="m48 39c-4.016558 0-7.3125 3.295941-7.3125 7.3125 0 2.947827 1.781015 5.47894 4.3125 6.625-.542095.108951-1.00379.114499-1.59375.3125-1.181262.396451-2.478377 1.015968-3.53125 2.0625-1.069972 1.063528-1.822562 2.602167-1.875 4.4375-.219884 7.695961 2.78125 16.84375 2.78125 16.84375.00062.0019.06173.123117.0625.125.00077.0019.06159.154433.0625.15625.000915.0018.06144.123261.0625.125.0011.0017.09256.123349.09375.125.0012.0017.09244.123447.09375.125.0013.0016.09232.0923.09375.09375.0014.0014.09221.09242.09375.09375.0015.0013.12336.09255.125.09375.0016.0012.12327.09268.125.09375.0017.0011.123192.06157.125.0625.0018.000931.154374.06171.15625.0625.0019.000787.123068.06186.125.0625.0019.000637.154274.03077.15625.03125.002.000483.122992.03092.125.03125.002.000327.154223.03108.15625.03125.002.000168.154216-.000009.15625 0h10.8125c.0021-.000029.154187.000194.15625 0 .0021-.000194.154209-.03089.15625-.03125.002-.000358.154244-.03073.15625-.03125.002-.00052.123042-.03057.125-.03125.002-.000679.154353-.06167.15625-.0625.0019-.000834.123175-.06152.125-.0625.0018-.000983.15451-.09262.15625-.09375.0017-.0011.123355-.06124.125-.0625.0016-.0013.09221-.123612.09375-.125.0015-.0014.123577-.09224.125-.09375.0014-.0015.09245-.123384.09375-.125.0013-.0016.09259-.09204.09375-.09375.0012-.0017.06148-.154448.0625-.15625.001-.0018.09287-.123122.09375-.125.000876-.0019.06178-.123058.0625-.125.000584-.0016.01939-.08863.03125-.125.0028-.0087-.000109-.03087 0-.03125.015236-.047363 2.78125-8.666558 2.78125-16.71875 0-1.823157-.744485-3.375978-1.8125-4.4375-1.048542-1.042168-2.349354-1.658306-3.53125-2.0625-.615779-.210588-1.093285-.257659-1.65625-.375 2.531485-1.14606 4.3125-3.677173 4.3125-6.625 0-4.01656-3.295944-7.3125-7.3125-7.3125z" opacity=".1"/><path d="m48 39.90625c-3.517956 0-6.40625 2.888293-6.40625 6.40625 0 3.517955 2.895199 6.375 6.40625 6.375 3.51105 0 6.40625-2.857045 6.40625-6.375 0-3.517958-2.888296-6.40625-6.40625-6.40625zm0 13.5s-2.120042-.01708-4.3125.71875c-1.096229.367913-2.238338.931366-3.15625 1.84375s-1.57933 2.214039-1.625 3.8125c-.212371 7.433009 2.75 16.53125 2.75 16.53125a.98862156.98862156 0 0 0 .9375.6875h10.8125a.98862156.98862156 0 0 0 .9375-.71875s2.75-8.606841 2.75-16.46875c0-1.571862-.650421-2.874716-1.5625-3.78125s-2.053543-1.466638-3.15625-1.84375c-2.205414-.754223-4.34375-.78125-4.34375-.78125a.98862156.98862156 0 0 0 -.03125 0z" opacity=".15"/><path d="m48 40.9c-2.982338 0-5.4 2.417661-5.4 5.4 0 2.982336 2.417662 5.4 5.4 5.4 2.982336 0 5.4-2.417664 5.4-5.4 0-2.982339-2.417664-5.4-5.4-5.4zm0 13.5s-7.944807-.03178-8.1 5.4c-.204077 7.142734 2.7 16.2 2.7 16.2h10.8s2.7-8.570221 2.7-16.2c0-5.276583-8.1-5.4-8.1-5.4z" opacity=".3"/><path d="m0 104h16v16h-16z" fill="url(#h)" transform="matrix(0 1 1 0 0 0)"/><text font-family="Liberation Sans" font-size="4" letter-spacing="0" word-spacing="0" x="104" y="48"><tspan x="104" y="48">Shadow opacity : 30, 15, 10, (8)</tspan></text><path d="m-40 104h16v16h-16z" fill="url(#i)" transform="rotate(-90)"/><text font-family="Liberation Sans" font-size="4" letter-spacing="0" word-spacing="0" x="124" y="32"><tspan x="124" y="32">Bevel opacity : 30 / 10</tspan></text><text font-family="Liberation Sans" font-size="4" letter-spacing="0" word-spacing="0" x="124" y="8"><tspan x="124" y="8">Bevel opacity : 75 / 15</tspan></text><path d="m75 48c0-14.911687-12.088313-27-27-27s-27 12.088313-27 27 12.088313 27 27 27 27-12.088313 27-27zm-2.7 0c0 3.595992-.781099 7.009548-2.182891 10.080258-3.829798 8.389416-12.292581 14.219742-22.117109 14.219742-13.42052 0-24.3-10.87948-24.3-24.3s10.87948-24.3 24.3-24.3 24.3 10.87948 24.3 24.3z" fill="url(#m)" opacity=".3"/><path d="m66.9 45.3c0-10.438181-8.461819-18.9-18.9-18.9s-18.9 8.461819-18.9 18.9 8.461819 18.9 18.9 18.9 18.9-8.461819 18.9-18.9zm-2.7 0c0 8.947014-7.252986 16.2-16.2 16.2s-16.2-7.252986-16.2-16.2 7.252986-16.2 16.2-16.2 16.2 7.252986 16.2 16.2z" fill="url(#l)" opacity=".3"/><path d="m58.8 42.6c0-5.964675-4.835325-10.8-10.8-10.8s-10.8 4.835325-10.8 10.8 4.835325 10.8 10.8 10.8 10.8-4.835325 10.8-10.8zm-2.7 0c0 4.473506-3.626494 8.1-8.1 8.1s-8.1-3.626494-8.1-8.1 3.626494-8.1 8.1-8.1 8.1 3.626494 8.1 8.1z" fill="url(#k)" opacity=".3"/><path d="m48 39.9c-2.982338 0-5.4 2.417661-5.4 5.4 0 2.982336 2.417662 5.4 5.4 5.4 2.982336 0 5.4-2.417664 5.4-5.4 0-2.982339-2.417664-5.4-5.4-5.4zm0 13.5s-7.944807-.03178-8.1 5.4c-.204077 7.142734 2.7 16.2 2.7 16.2h10.8s2.7-8.570221 2.7-16.2c0-5.276583-8.1-5.4-8.1-5.4z" fill="url(#j)"/><path d="m48 39.90625c-2.982338 0-5.40625 2.423911-5.40625 5.40625 0 .153616.01867.287134.03125.4375.276534-2.722984 2.579058-4.84375 5.375-4.84375 2.79594 0 5.098466 2.120766 5.375 4.84375.01258-.150366.03125-.283884.03125-.4375 0-2.982339-2.423914-5.40625-5.40625-5.40625zm-.34375 13.5c-1.522807.06818-7.614206.653443-7.75 5.40625-.0095.33222-.0034.6606 0 1 .155193-5.43178 8.09375-5.40625 8.09375-5.40625s7.863761.135821 8.0625 5.21875c.0065-.271557.03125-.542872.03125-.8125 0-5.276583-8.09375-5.40625-8.09375-5.40625s-.126206-.0097-.34375 0z" fill="#fff" opacity=".75"/><path d="m42.625 44.84375c-.01287.152096-.03125.313324-.03125.46875 0 2.982336 2.423912 5.375 5.40625 5.375 2.982336 0 5.40625-2.392664 5.40625-5.375 0-.155426-.01838-.316654-.03125-.46875-.276534 2.722982-2.57906 4.84375-5.375 4.84375-2.795942 0-5.098466-2.120768-5.375-4.84375zm13.4375 13.78125c-.177581 7.412813-2.65625 15.375-2.65625 15.375h-10.8125s-2.536603-7.963258-2.6875-14.84375c-.104527 7.086015 2.6875 15.84375 2.6875 15.84375h10.8125s2.6875-8.557721 2.6875-16.1875c0-.06639-.02872-.122729-.03125-.1875z" opacity=".15"/></g></svg>