<svg height="96" width="96" xmlns="http://www.w3.org/2000/svg" xmlns:xlink="http://www.w3.org/1999/xlink"><linearGradient id="a"><stop offset="0" stop-color="#f0f0f0"/><stop offset="1" stop-color="#aaa"/></linearGradient><linearGradient id="b"><stop offset="0" stop-color="#fff"/><stop offset="1" stop-color="#fff" stop-opacity="0"/></linearGradient><linearGradient id="c" gradientUnits="userSpaceOnUse" x1="36.357143" x2="36.357143" xlink:href="#b" y1="6" y2="63.893143"/><radialGradient id="d" cx="48" cy="90.171875" gradientTransform="matrix(1.1573129 0 0 .99590774 -7.551021 .197132)" gradientUnits="userSpaceOnUse" r="42" xlink:href="#b"/><linearGradient id="e" gradientTransform="matrix(1.0058652 0 0 .994169 100 0)" gradientUnits="userSpaceOnUse" x1="45.447727" x2="45.447727" y1="92.539597" y2="7.01654"><stop offset="0"/><stop offset="1" stop-opacity=".588235"/></linearGradient><linearGradient id="f" gradientTransform="matrix(1.0238095 0 0 -1.0119048 -1.142857 98.071429)" gradientUnits="userSpaceOnUse" x1="32.251034" x2="32.251034" xlink:href="#e" y1="6.131708" y2="90.238609"/><linearGradient id="g" gradientTransform="matrix(1 0 0 -1 0 97)" gradientUnits="userSpaceOnUse" x1="32.251034" x2="32.251034" xlink:href="#e" y1="6.131708" y2="90.238609"/><linearGradient id="h" gradientUnits="userSpaceOnUse" x1="0" x2="16" xlink:href="#a" y1="112" y2="112"/><linearGradient id="i" gradientUnits="userSpaceOnUse" x1="-40" x2="-24" y1="112" y2="112"><stop offset="0" stop-color="#c80000"/><stop offset="1" stop-color="#f3604d"/></linearGradient><linearGradient id="j" gradientTransform="matrix(1.25581 0 0 -1.25581 17.860539 76.883565)" gradientUnits="userSpaceOnUse" x1="24.000017" x2="24.000017" xlink:href="#a" y1="44.500015" y2="1.499881"/><g fill="url(#f)"><path d="m12 3.96875c-5.5110902 0-10.03125 4.5201598-10.03125 10.03125v71c0 5.51109 4.5201597 10.03125 10.03125 10.03125h72c5.51109 0 10.03125-4.52016 10.03125-10.03125v-71c0-5.5110903-4.52016-10.03125-10.03125-10.03125zm0 2.03125h72c3.324 0 6 2.676 6 6v72c0 3.324-2.676 6-6 6h-72c-3.324 0-6-2.676-6-6v-72c0-3.324 2.676-6 6-6z" opacity=".08"/><path d="m12 4.96875c-4.9716329 0-9.03125 4.0596171-9.03125 9.03125v71c0 4.971633 4.059617 9.03125 9.03125 9.03125h72c4.971633 0 9.03125-4.059617 9.03125-9.03125v-71c0-4.971633-4.059617-9.03125-9.03125-9.03125zm0 1.03125h72c3.324 0 6 2.676 6 6v72c0 3.324-2.676 6-6 6h-72c-3.324 0-6-2.676-6-6v-72c0-3.324 2.676-6 6-6z" opacity=".1"/><path d="m11.1875 6.03125c-4.027518.4106511-7.1875 3.8351875-7.1875 7.96875v71c0 4.409133 3.590867 8 8 8h72c4.409133 0 8-3.590867 8-8v-71c0-4.1970618-3.258972-7.6460416-7.375-7.96875 3.032886.306167 5.375 2.8525 5.375 5.96875v72c0 3.324-2.676 6-6 6h-72c-3.324 0-6-2.676-6-6v-72c0-3.11625 2.342114-5.662583 5.375-5.96875-.06227.00488-.12563-.00631-.1875 0z" opacity=".2"/><path d="m6.4375 9.75c-.8994891 1.177446-1.4375 2.647277-1.4375 4.25v71c0 3.878 3.122 7 7 7h72c3.878 0 7-3.122 7-7v-71c0-1.602723-.538011-3.072554-1.4375-4.25.279316.694095.4375 1.453625.4375 2.25v72c0 3.324-2.676 6-6 6h-72c-3.324 0-6-2.676-6-6v-72c0-.796375.1581836-1.555905.4375-2.25z" opacity=".3"/></g><path d="m6 84v1c0 3.324 2.676 6 6 6h72c3.324 0 6-2.676 6-6v-1c0 3.324-2.676 6-6 6h-72c-3.324 0-6-2.676-6-6z" fill="url(#g)" opacity=".45"/><g><rect height="84" opacity=".6" rx="6" width="84" x="6" y="6"/><path d="m12 6c-3.324 0-6 2.676-6 6v2 68 2c0 .334721.04135.6507.09375.96875.0487.295596.09704.596915.1875.875.00988.03038.020892.0636.03125.09375.098865.287771.2348802.547452.375.8125.1445918.273507.3156161.535615.5.78125s.3737765.473472.59375.6875c.439947.428056.94291.814526 1.5 1.09375.278545.139612.5734731.246947.875.34375-.2562018-.100222-.4867109-.236272-.71875-.375-.00741-.0044-.023866.0045-.03125 0-.031933-.0193-.062293-.04251-.09375-.0625-.120395-.0767-.2310226-.163513-.34375-.25-.1061728-.0808-.2132809-.161112-.3125-.25-.1779299-.161433-.3474596-.345388-.5-.53125-.1075789-.130255-.2183939-.265285-.3125-.40625-.025089-.03838-.038446-.08587-.0625-.125-.064763-.103032-.1302275-.204517-.1875-.3125-.1010083-.194706-.2056748-.415701-.28125-.625-.00796-.02181-.023589-.04055-.03125-.0625-.0318251-.09195-.0358045-.186831-.0625-.28125-.0303323-.106618-.0703894-.203031-.09375-.3125-.0728786-.341512-.125-.698205-.125-1.0625v-2-68-2c0-2.781848 2.2181517-5 5-5h2 68 2c2.781848 0 5 2.218152 5 5v2 68 2c0 .364295-.05212.720988-.125 1.0625-.04415.206893-.08838.397658-.15625.59375-.0077.02195-.0233.04069-.03125.0625-.06274.173739-.138383.367449-.21875.53125-.04158.0828-.07904.169954-.125.25-.0546.09721-.126774.18835-.1875.28125-.09411.140965-.204921.275995-.3125.40625-.143174.17445-.303141.346998-.46875.5-.01117.0102-.01998.02115-.03125.03125-.138386.125556-.285091.234436-.4375.34375-.102571.07315-.204318.153364-.3125.21875-.0074.0045-.02384-.0044-.03125 0-.232039.138728-.462548.274778-.71875.375.301527-.0968.596455-.204138.875-.34375.55709-.279224 1.060053-.665694 1.5-1.09375.219973-.214028.409366-.441865.59375-.6875s.355408-.507743.5-.78125c.14012-.265048.276135-.524729.375-.8125.01041-.03078.02133-.06274.03125-.09375.09046-.278085.1388-.579404.1875-.875.0524-.31805.09375-.634029.09375-.96875v-2-68-2c0-3.324-2.676-6-6-6z" fill="url(#c)" opacity=".01"/><path d="m12 90c-3.324 0-6-2.676-6-6v-2-68-2c0-.334721.04135-.6507.09375-.96875.0487-.295596.09704-.596915.1875-.875.00988-.03038.020892-.0636.03125-.09375.098865-.287771.2348802-.547452.375-.8125.1445918-.273507.3156161-.535615.5-.78125s.3737765-.473472.59375-.6875c.439947-.428056.94291-.814526 1.5-1.09375.278545-.139612.5734731-.246947.875-.34375-.2562018.100222-.4867109.236272-.71875.375-.00741.0044-.023866-.0045-.03125 0-.031933.0193-.062293.04251-.09375.0625-.120395.0767-.2310226.163513-.34375.25-.1061728.0808-.2132809.161112-.3125.25-.1779299.161433-.3474596.345388-.5.53125-.1075789.130255-.2183939.265285-.3125.40625-.025089.03838-.038446.08587-.0625.125-.064763.103032-.1302275.204517-.1875.3125-.1010083.194706-.2056748.415701-.28125.625-.00796.02181-.023589.04055-.03125.0625-.0318251.09195-.0358045.186831-.0625.28125-.0303323.106618-.0703894.203031-.09375.3125-.0728786.341512-.125.698205-.125 1.0625v2 68 2c0 2.781848 2.2181517 5 5 5h2 68 2c2.781848 0 5-2.218152 5-5v-2-68-2c0-.364295-.05212-.720988-.125-1.0625-.04415-.206893-.08838-.397658-.15625-.59375-.0077-.02195-.0233-.04069-.03125-.0625-.06274-.173739-.138383-.367449-.21875-.53125-.04158-.0828-.07904-.169954-.125-.25-.0546-.09721-.126774-.18835-.1875-.28125-.09411-.140965-.204921-.275995-.3125-.40625-.143174-.17445-.303141-.346998-.46875-.5-.01117-.0102-.01998-.02115-.03125-.03125-.138386-.125556-.285091-.234436-.4375-.34375-.102571-.07315-.204318-.153364-.3125-.21875-.0074-.0045-.02384.0044-.03125 0-.232039-.138728-.462548-.274778-.71875-.375.301527.0968.596455.204138.875.34375.55709.279224 1.060053.665694 1.5 1.09375.219973.214028.409366.441865.59375.6875s.355408.507743.5.78125c.14012.265048.276135.524729.375.8125.01041.03078.02133.06274.03125.09375.09046.278085.1388.579404.1875.875.0524.31805.09375.634029.09375.96875v2 68 2c0 3.324-2.676 6-6 6z" fill="url(#d)" opacity=".15"/></g><g><path d="m44.25 19.90625c-2.244419 0-3.96875 1.901074-3.96875 4.0625v2.40625c-.975268.31762-1.937028.710354-2.875 1.15625l-1.6875-1.6875c-.000041-.000041-.02916.0012-.03125 0-.02224-.01297-.125745-.08477-.25-.15625-1.500192-1.280826-3.843355-1.437905-5.34375.0625l-5.34375 5.34375c-1.570482 1.570356-1.359186 4.079182.09375 5.5625l1.6875 1.75c-.445894.937971-.838628 1.899732-1.15625 2.875h-2.40625c-2.161431 0-4.0625 1.724335-4.0625 3.96875v7.5c0 2.244415 1.901069 3.96875 4.0625 3.96875h2.40625c.317619.975266.710352 1.937025 1.15625 2.875l-1.6875 1.75c-1.452871 1.483338-1.664112 3.992128-.09375 5.5625l5.34375 5.34375c.730404.730371 1.734538 1.165406 2.8125 1.15625 1.069939-.0091 1.849382-.518352 2.4375-1.03125.02268-.01978.07181-.01147.09375-.03125a1.1273049 1.1273049 0 0 0 .21875-.1875 1.1273049 1.1273049 0 0 0 .03125 0l1.71875-1.6875c.937972.445896 1.899731.83863 2.875 1.15625v2.40625c0 2.161426 1.724331 4.0625 3.96875 4.0625h7.5c2.244408 0 3.96875-1.901062 3.96875-4.0625v-2.40625c.975268-.31762 1.937027-.710352 2.875-1.15625l1.75 1.6875c1.48332 1.452749 3.992092 1.664106 5.5625.09375l5.34375-5.34375c1.446474-1.4463 1.309487-3.653247.15625-5.15625a1.1273049 1.1273049 0 0 0 -.03125-.0625c-.0055-.0069.0056-.02436 0-.03125a1.1273049 1.1273049 0 0 0 -.21875-.3125 1.1273049 1.1273049 0 0 0 0-.03125l-1.6875-1.71875c.445895-.937971.838629-1.899731 1.15625-2.875h2.40625c2.161427 0 4.0625-1.72433 4.0625-3.96875v-7.5c0-2.244411-1.90103-3.968798-4.0625-3.96875h-2.40625c-.317621-.975271-.710354-1.93703-1.15625-2.875l1.6875-1.71875a1.1273049 1.1273049 0 0 0 0-.03125c.0209-.02134.04212-.04075.0625-.0625a1.1273049 1.1273049 0 0 0 .125-.1875 1.1273049 1.1273049 0 0 0 .09375-.1875c1.127123-1.50252 1.247523-3.689959-.1875-5.125l-5.34375-5.34375c-1.500401-1.500467-3.843573-1.343334-5.34375-.0625-.124255.07148-.227755.143284-.25.15625-.0021.0012-.03121-.000041-.03125 0l-1.6875 1.6875c-.937972-.445896-1.899731-.838629-2.875-1.15625v-2.40625c0-2.161429-1.724333-4.0625-3.96875-4.0625zm3.75 17.09375 9.90625 9.90625h-1.90625c.0056.00006-.193073.000496-.1875 0 .0056-.000496-.224246.0323-.21875.03125.0055-.001-.192865.06409-.1875.0625.0054-.0016-.223931.06461-.21875.0625.0052-.0021-.192445.09637-.1875.09375.0049-.0026-.160911.09685-.15625.09375.0047-.0031-.19183.128544-.1875.125.0043-.0035-.160206.128956-.15625.125.004-.004-.128544.16058-.125.15625.0035-.0043-.128096.192161-.125.1875.0031-.0047-.09637.161195-.09375.15625.0026-.0049-.09586.192681-.09375.1875.0021-.0052-.06409.224115-.0625.21875.0016-.0054-.06355.192996-.0625.1875.001-.0055-.03175.224323-.03125.21875.000496-.0056.00006.193095 0 .1875v9.90625h-11.8125v-9.90625c-.00006.0056-.000496-.193073 0-.1875.000496.0056-.0323-.224246-.03125-.21875.001.0055-.06409-.192865-.0625-.1875.0016.0054-.06461-.223931-.0625-.21875.0021.0052-.09637-.192445-.09375-.1875.0026.0049-.09685-.160911-.09375-.15625.0031.0047-.128544-.19183-.125-.1875.0035.0043-.128956-.160206-.125-.15625.004.004-.16058-.128544-.15625-.125.0043.0035-.192161-.128096-.1875-.125.0047.0031-.161195-.09637-.15625-.09375.0049.0026-.192681-.09586-.1875-.09375.0052.0021-.224115-.06409-.21875-.0625.0054.0016-.192996-.06355-.1875-.0625.0055.001-.224323-.03175-.21875-.03125.0056.000496-.193095.00006-.1875 0h-1.90625z" display="block" opacity=".1"/><path d="m44.25 21.03125c-1.596558 0-2.84375 1.376449-2.84375 2.9375v3.1875c-1.466628.428594-2.893087.974255-4.25 1.6875l-2.25-2.1875c-.0071-.0071-.0241.007-.03125 0-1.070776-1.048831-2.86686-1.195647-3.96875-.09375l-5.34375 5.34375c-1.10198 1.101892-.955076 2.897992.09375 3.96875l2.1875 2.28125c-.713241 1.35691-1.258902 2.783371-1.6875 4.25h-3.1875c-1.561056 0-2.9375 1.247196-2.9375 2.84375v7.5c0 1.596554 1.376445 2.84375 2.9375 2.84375h3.1875c.428595 1.466625.97425 2.893084 1.6875 4.25l-2.1875 2.28125c-1.048777 1.07077-1.195646 2.866847-.09375 3.96875l5.34375 5.34375c.526791.526767 1.253839.850088 2 .84375.828612-.007 1.489944-.463767 1.96875-.9375h.03125l2.25-2.1875c1.356912.713245 2.78337 1.258907 4.25 1.6875v3.1875c0 1.561051 1.247192 2.9375 2.84375 2.9375h7.5c1.596548 0 2.84375-1.376438 2.84375-2.9375v-3.1875c1.466629-.428593 2.893086-.974251 4.25-1.6875l2.28125 2.1875c1.070761 1.048693 2.866824 1.19564 3.96875.09375l5.34375-5.34375c1.102028-1.101896.955058-2.898003-.09375-3.96875v-.03125l-2.1875-2.25c.713243-1.356913 1.258906-2.783371 1.6875-4.25h3.1875c1.561052 0 2.9375-1.247191 2.9375-2.84375v-7.5c0-1.596562-1.376426-2.843785-2.9375-2.84375h-3.1875c-.428593-1.466633-.974256-2.893091-1.6875-4.25l2.1875-2.25v-.03125c1.048701-1.070761 1.195658-2.866828.09375-3.96875l-5.34375-5.34375c-1.101895-1.101944-2.897989-.955084-3.96875.09375-.0071.007-.02417-.0071-.03125 0l-2.25 2.1875c-1.356912-.713245-2.78337-1.258906-4.25-1.6875v-3.1875c0-1.561053-1.247194-2.9375-2.84375-2.9375zm3.75 14.34375 12.65625 12.65625h-4.65625a.95851803.95851803 0 0 0 -.96875.96875v11.03125h-14.0625v-11.03125a.95851803.95851803 0 0 0 -.96875-.96875h-4.65625z" display="block" opacity=".15"/><path d="m44.25 76c-1.062585 0-1.875-.888009-1.875-1.96875v-3.84375c-1.899961-.506223-3.776452-1.190199-5.4375-2.15625l-2.71875 2.625c-.382108.382089-.818023.652065-1.3125.65625-.494477.0042-.936823-.18684-1.3125-.5625l-5.34375-5.34375c-.751351-.751356-.670403-1.860801.09375-2.625l2.625-2.71875c-.96606-1.661049-1.650015-3.537537-2.15625-5.4375h-3.84375c-1.080742 0-1.96875-.812421-1.96875-1.875v-7.5c0-1.062576.88801-1.875 1.96875-1.875h3.84375c.506236-1.899966 1.190205-3.776457 2.15625-5.4375l-2.625-2.71875c-.764198-.764199-.845166-1.873644-.09375-2.625l5.34375-5.34375c.751351-.751356 1.8608-.67044 2.625.09375l2.71875 2.625c1.661048-.966051 3.53754-1.650024 5.4375-2.15625v-3.84375c0-1.080741.812415-1.96875 1.875-1.96875h7.5c1.062582 0 1.875.888009 1.875 1.96875v3.84375c1.899963.506226 3.776454 1.190199 5.4375 2.15625l2.71875-2.625c.76419-.764193 1.873644-.845139 2.625-.09375l5.34375 5.34375c.75135.751359.67035 1.860804-.09375 2.625l-2.625 2.71875c.966048 1.661043 1.650027 3.537534 2.15625 5.4375h3.84375c1.080729-.000024 1.96875.812421 1.96875 1.875v7.5c0 1.062573-.888021 1.875-1.96875 1.875h-3.84375c-.506223 1.89996-1.190202 3.776448-2.15625 5.4375l2.625 2.71875c.76419.764196.845196 1.873644.09375 2.625l-5.34375 5.34375c-.751371.751347-1.860798.67035-2.625-.09375l-2.71875-2.625c-1.661049.966057-3.537537 1.650024-5.4375 2.15625v3.84375c0 1.080747-.812427 1.96875-1.875 1.96875zm-4.25-15h16v-12h7l-15-15-15 15h7z" display="block" opacity=".3"/><path d="m0 104h16v16h-16z" fill="url(#h)" transform="matrix(0 1 1 0 0 0)"/><text font-family="Liberation Sans" font-size="4" letter-spacing="0" word-spacing="0" x="104" y="48"><tspan x="104" y="48">Shadow opacity : 30, 15, 10, (8)</tspan></text><path d="m-40 104h16v16h-16z" fill="url(#i)" transform="rotate(-90)"/><text font-family="Liberation Sans" font-size="4" letter-spacing="0" word-spacing="0" x="124" y="32"><tspan x="124" y="32">Bevel opacity : 30 / 10</tspan></text><text font-family="Liberation Sans" font-size="4" letter-spacing="0" word-spacing="0" x="124" y="8"><tspan x="124" y="8">Bevel opacity : 75 / 15</tspan></text><path d="m44.25 75c-1.062585 0-1.875-.888009-1.875-1.96875v-3.84375c-1.899961-.506223-3.776452-1.190199-5.4375-2.15625l-2.71875 2.625c-.382108.382089-.818023.652065-1.3125.65625-.494477.0042-.936823-.18684-1.3125-.5625l-5.34375-5.34375c-.751351-.751356-.670403-1.860801.09375-2.625l2.625-2.71875c-.96606-1.661049-1.650015-3.537537-2.15625-5.4375h-3.84375c-1.080742 0-1.96875-.812421-1.96875-1.875v-7.5c0-1.062576.88801-1.875 1.96875-1.875h3.84375c.506236-1.899966 1.190205-3.776457 2.15625-5.4375l-2.625-2.71875c-.764198-.764199-.845166-1.873644-.09375-2.625l5.34375-5.34375c.751351-.751356 1.8608-.67044 2.625.09375l2.71875 2.625c1.661048-.966051 3.53754-1.650024 5.4375-2.15625v-3.84375c0-1.080741.812415-1.96875 1.875-1.96875h7.5c1.062582 0 1.875.888009 1.875 1.96875v3.84375c1.899963.506226 3.776454 1.190199 5.4375 2.15625l2.71875-2.625c.76419-.764193 1.873644-.845139 2.625-.09375l5.34375 5.34375c.75135.751359.67035 1.860804-.09375 2.625l-2.625 2.71875c.966048 1.661043 1.650027 3.537534 2.15625 5.4375h3.84375c1.080729-.000024 1.96875.812421 1.96875 1.875v7.5c0 1.062573-.888021 1.875-1.96875 1.875h-3.84375c-.506223 1.89996-1.190202 3.776448-2.15625 5.4375l2.625 2.71875c.76419.764196.845196 1.873644.09375 2.625l-5.34375 5.34375c-.751371.751347-1.860798.67035-2.625-.09375l-2.71875-2.625c-1.661049.966057-3.537537 1.650024-5.4375 2.15625v3.84375c0 1.080747-.812427 1.96875-1.875 1.96875zm-4.25-15h16v-12h7l-15-15-15 15h7z" display="block" fill="url(#j)"/><path d="m44.25 75c-1.062585 0-1.875-.888009-1.875-1.96875v-1c0 1.080741.812415 1.96875 1.875 1.96875h7.5c1.062573 0 1.875-.888003 1.875-1.96875v1c0 1.080747-.812427 1.96875-1.875 1.96875zm-11.34375-4.6875c-.494477.0042-.936823-.18684-1.3125-.5625l-5.34375-5.34375c-.494959-.494963-.622293-1.14531-.4375-1.75.08058.26611.215707.528205.4375.75l5.34375 5.34375c.375677.37566.818023.5667 1.3125.5625s.930392-.274161 1.3125-.65625l2.71875-2.625c1.661048.966051 3.537539 1.650027 5.4375 2.15625v1c-1.899961-.506223-3.776452-1.190199-5.4375-2.15625l-2.71875 2.625c-.382108.382089-.818023.652065-1.3125.65625zm30.1875-.03125c-.466803-.02184-.930399-.24295-1.3125-.625l-2.71875-2.625c-1.661049.966057-3.537537 1.650024-5.4375 2.15625v-1c1.899963-.506226 3.776451-1.190193 5.4375-2.15625l2.71875 2.625c.764202.7641 1.873629.845097 2.625.09375l5.34375-5.34375c.221821-.221795.356917-.48389.4375-.75.184813.60469.05752 1.255037-.4375 1.75l-5.34375 5.34375c-.375686.375673-.845697.553093-1.3125.53125zm-34.46875-11.875c-.781784-1.494658-1.370743-3.12328-1.8125-4.78125h-3.84375c-1.080742 0-1.96875-.812421-1.96875-1.875v-1c0 1.062579.888008 1.875 1.96875 1.875h3.84375c.506235 1.899963 1.19019 3.776451 2.15625 5.4375zm38.75 0-.34375-.34375c.966048-1.661052 1.650027-3.53754 2.15625-5.4375h3.84375c1.080729 0 1.96875-.812427 1.96875-1.875v1c0 1.062573-.888021 1.875-1.96875 1.875h-3.84375c-.441747 1.657967-1.030719 3.28659-1.8125 4.78125zm-34.375-11.40625 15-15 15 15h-1l-14-14-14 14zm-4.375-10.40625-2.28125-2.375c-.538613-.538613-.723653-1.239631-.53125-1.875.09573.313233.270474.614224.53125.875l2.625 2.71875c-.123042.211562-.229644.438094-.34375.65625zm38.75 0c-.114107-.218156-.220707-.444688-.34375-.65625l2.625-2.71875c.260742-.260775.435526-.561767.53125-.875.192376.63537.0073 1.336389-.53125 1.875z" display="block" opacity=".15"/><path d="m25.8125 63.65625c-.192389-.635369-.0073-1.336387.53125-1.875l2.28125-2.375c.114107.218156.220706.444687.34375.65625l-2.625 2.71875c-.26076.260776-.435526.561767-.53125.875zm44.375 0c-.09573-.313233-.270477-.614225-.53125-.875l-2.625-2.71875c.123043-.211564.229643-.438093.34375-.65625l2.28125 2.375c.538607.538611.723653 1.23963.53125 1.875zm-30.1875-2.65625v-1h16v1zm-7-12 1-1h6v1zm23 0v-1h6l1 1zm-35-3.75v-1c0-1.062576.88801-1.875 1.96875-1.875h3.84375c.441758-1.657973 1.030723-3.286595 1.8125-4.78125l.34375.34375c-.966045 1.661043-1.650014 3.537534-2.15625 5.4375h-3.84375c-1.08074 0-1.96875.812424-1.96875 1.875zm54 0c0-1.062579-.888021-1.875024-1.96875-1.875h-3.84375c-.506223-1.899966-1.190202-3.776457-2.15625-5.4375l.34375-.34375c.781781 1.494655 1.370753 3.123277 1.8125 4.78125h3.84375c1.080729-.000024 1.96875.812421 1.96875 1.875zm-49.1875-11.90625c-.184807-.60469-.0575-1.255037.4375-1.75l5.34375-5.34375c.751351-.751356 1.8608-.67044 2.625.09375l2.71875 2.625c1.661048-.966051 3.53754-1.650024 5.4375-2.15625v1c-1.89996.506226-3.776452 1.190199-5.4375 2.15625l-2.71875-2.625c-.7642-.76419-1.873649-.845106-2.625-.09375l-5.34375 5.34375c-.221812.221795-.356917.48389-.4375.75zm44.375 0c-.08057-.26611-.215707-.528205-.4375-.75l-5.34375-5.34375c-.751356-.751389-1.86081-.670443-2.625.09375l-2.71875 2.625c-1.661046-.966051-3.537537-1.650024-5.4375-2.15625v-1c1.899963.506226 3.776454 1.190199 5.4375 2.15625l2.71875-2.625c.76419-.764193 1.873644-.845139 2.625-.09375l5.34375 5.34375c.494959.494965.622293 1.14531.4375 1.75zm-27.8125-9.375v-1c0-1.080741.812415-1.96875 1.875-1.96875h7.5c1.062582 0 1.875.888009 1.875 1.96875v1c0-1.080741-.812418-1.96875-1.875-1.96875h-7.5c-1.062585 0-1.875.888009-1.875 1.96875z" display="block" fill="#fff" opacity=".75"/></g></svg>