<svg height="96" width="96" xmlns="http://www.w3.org/2000/svg" xmlns:xlink="http://www.w3.org/1999/xlink"><linearGradient id="a"><stop offset="0" stop-color="#fff"/><stop offset="1" stop-color="#fff" stop-opacity="0"/></linearGradient><linearGradient id="b" gradientUnits="userSpaceOnUse" x1="36.357143" x2="36.357143" xlink:href="#a" y1="6" y2="63.893143"/><radialGradient id="c" cx="48" cy="90.171875" gradientTransform="matrix(1.1573129 0 0 .99590774 -7.551021 .197132)" gradientUnits="userSpaceOnUse" r="42" xlink:href="#a"/><linearGradient id="d" gradientTransform="matrix(.93022994 0 0 -.93022994 23.674475 61.395341)" gradientUnits="userSpaceOnUse" x1="20.758585" x2="20.758585" xlink:href="#f" y1="1" y2="45.017357"/><linearGradient id="e" gradientTransform="matrix(.47268421 .12665535 .12665535 -.47268421 44.47921 74.733655)" gradientUnits="userSpaceOnUse" x1="20.758585" x2="20.758585" xlink:href="#f" y1="1" y2="45.017357"/><linearGradient id="f"><stop offset="0" stop-color="#aaa"/><stop offset="1" stop-color="#f0f0f0"/></linearGradient><linearGradient id="g" gradientTransform="matrix(1.0058652 0 0 .994169 100 0)" gradientUnits="userSpaceOnUse" x1="45.447727" x2="45.447727" y1="92.539597" y2="7.01654"><stop offset="0"/><stop offset="1" stop-opacity=".588235"/></linearGradient><linearGradient id="h" gradientTransform="matrix(1.0238095 0 0 -1.0119048 -1.142857 98.071429)" gradientUnits="userSpaceOnUse" x1="32.251034" x2="32.251034" xlink:href="#g" y1="6.131708" y2="90.238609"/><linearGradient id="i" gradientTransform="matrix(1 0 0 -1 0 97)" gradientUnits="userSpaceOnUse" x1="32.251034" x2="32.251034" xlink:href="#g" y1="6.131708" y2="90.238609"/><g fill="url(#h)"><path d="m12 3.96875c-5.5110902 0-10.03125 4.5201598-10.03125 10.03125v71c0 5.51109 4.5201597 10.03125 10.03125 10.03125h72c5.51109 0 10.03125-4.52016 10.03125-10.03125v-71c0-5.5110903-4.52016-10.03125-10.03125-10.03125zm0 2.03125h72c3.324 0 6 2.676 6 6v72c0 3.324-2.676 6-6 6h-72c-3.324 0-6-2.676-6-6v-72c0-3.324 2.676-6 6-6z" opacity=".08"/><path d="m12 4.96875c-4.9716329 0-9.03125 4.0596171-9.03125 9.03125v71c0 4.971633 4.059617 9.03125 9.03125 9.03125h72c4.971633 0 9.03125-4.059617 9.03125-9.03125v-71c0-4.971633-4.059617-9.03125-9.03125-9.03125zm0 1.03125h72c3.324 0 6 2.676 6 6v72c0 3.324-2.676 6-6 6h-72c-3.324 0-6-2.676-6-6v-72c0-3.324 2.676-6 6-6z" opacity=".1"/><path d="m11.1875 6.03125c-4.027518.4106511-7.1875 3.8351875-7.1875 7.96875v71c0 4.409133 3.590867 8 8 8h72c4.409133 0 8-3.590867 8-8v-71c0-4.1970618-3.258972-7.6460416-7.375-7.96875 3.032886.306167 5.375 2.8525 5.375 5.96875v72c0 3.324-2.676 6-6 6h-72c-3.324 0-6-2.676-6-6v-72c0-3.11625 2.342114-5.662583 5.375-5.96875-.06227.00488-.12563-.00631-.1875 0z" opacity=".2"/><path d="m6.4375 9.75c-.8994891 1.177446-1.4375 2.647277-1.4375 4.25v71c0 3.878 3.122 7 7 7h72c3.878 0 7-3.122 7-7v-71c0-1.602723-.538011-3.072554-1.4375-4.25.279316.694095.4375 1.453625.4375 2.25v72c0 3.324-2.676 6-6 6h-72c-3.324 0-6-2.676-6-6v-72c0-.796375.1581836-1.555905.4375-2.25z" opacity=".3"/></g><path d="m6 84v1c0 3.324 2.676 6 6 6h72c3.324 0 6-2.676 6-6v-1c0 3.324-2.676 6-6 6h-72c-3.324 0-6-2.676-6-6z" fill="url(#i)" opacity=".45"/><g><rect height="84" opacity=".6" rx="6" width="84" x="6" y="6"/><path d="m12 6c-3.324 0-6 2.676-6 6v2 68 2c0 .334721.04135.6507.09375.96875.0487.295596.09704.596915.1875.875.00988.03038.020892.0636.03125.09375.098865.287771.2348802.547452.375.8125.1445918.273507.3156161.535615.5.78125s.3737765.473472.59375.6875c.439947.428056.94291.814526 1.5 1.09375.278545.139612.5734731.246947.875.34375-.2562018-.100222-.4867109-.236272-.71875-.375-.00741-.0044-.023866.0045-.03125 0-.031933-.0193-.062293-.04251-.09375-.0625-.120395-.0767-.2310226-.163513-.34375-.25-.1061728-.0808-.2132809-.161112-.3125-.25-.1779299-.161433-.3474596-.345388-.5-.53125-.1075789-.130255-.2183939-.265285-.3125-.40625-.025089-.03838-.038446-.08587-.0625-.125-.064763-.103032-.1302275-.204517-.1875-.3125-.1010083-.194706-.2056748-.415701-.28125-.625-.00796-.02181-.023589-.04055-.03125-.0625-.0318251-.09195-.0358045-.186831-.0625-.28125-.0303323-.106618-.0703894-.203031-.09375-.3125-.0728786-.341512-.125-.698205-.125-1.0625v-2-68-2c0-2.781848 2.2181517-5 5-5h2 68 2c2.781848 0 5 2.218152 5 5v2 68 2c0 .364295-.05212.720988-.125 1.0625-.04415.206893-.08838.397658-.15625.59375-.0077.02195-.0233.04069-.03125.0625-.06274.173739-.138383.367449-.21875.53125-.04158.0828-.07904.169954-.125.25-.0546.09721-.126774.18835-.1875.28125-.09411.140965-.204921.275995-.3125.40625-.143174.17445-.303141.346998-.46875.5-.01117.0102-.01998.02115-.03125.03125-.138386.125556-.285091.234436-.4375.34375-.102571.07315-.204318.153364-.3125.21875-.0074.0045-.02384-.0044-.03125 0-.232039.138728-.462548.274778-.71875.375.301527-.0968.596455-.204138.875-.34375.55709-.279224 1.060053-.665694 1.5-1.09375.219973-.214028.409366-.441865.59375-.6875s.355408-.507743.5-.78125c.14012-.265048.276135-.524729.375-.8125.01041-.03078.02133-.06274.03125-.09375.09046-.278085.1388-.579404.1875-.875.0524-.31805.09375-.634029.09375-.96875v-2-68-2c0-3.324-2.676-6-6-6z" fill="url(#b)" opacity=".01"/><path d="m12 90c-3.324 0-6-2.676-6-6v-2-68-2c0-.334721.04135-.6507.09375-.96875.0487-.295596.09704-.596915.1875-.875.00988-.03038.020892-.0636.03125-.09375.098865-.287771.2348802-.547452.375-.8125.1445918-.273507.3156161-.535615.5-.78125s.3737765-.473472.59375-.6875c.439947-.428056.94291-.814526 1.5-1.09375.278545-.139612.5734731-.246947.875-.34375-.2562018.100222-.4867109.236272-.71875.375-.00741.0044-.023866-.0045-.03125 0-.031933.0193-.062293.04251-.09375.0625-.120395.0767-.2310226.163513-.34375.25-.1061728.0808-.2132809.161112-.3125.25-.1779299.161433-.3474596.345388-.5.53125-.1075789.130255-.2183939.265285-.3125.40625-.025089.03838-.038446.08587-.0625.125-.064763.103032-.1302275.204517-.1875.3125-.1010083.194706-.2056748.415701-.28125.625-.00796.02181-.023589.04055-.03125.0625-.0318251.09195-.0358045.186831-.0625.28125-.0303323.106618-.0703894.203031-.09375.3125-.0728786.341512-.125.698205-.125 1.0625v2 68 2c0 2.781848 2.2181517 5 5 5h2 68 2c2.781848 0 5-2.218152 5-5v-2-68-2c0-.364295-.05212-.720988-.125-1.0625-.04415-.206893-.08838-.397658-.15625-.59375-.0077-.02195-.0233-.04069-.03125-.0625-.06274-.173739-.138383-.367449-.21875-.53125-.04158-.0828-.07904-.169954-.125-.25-.0546-.09721-.126774-.18835-.1875-.28125-.09411-.140965-.204921-.275995-.3125-.40625-.143174-.17445-.303141-.346998-.46875-.5-.01117-.0102-.01998-.02115-.03125-.03125-.138386-.125556-.285091-.234436-.4375-.34375-.102571-.07315-.204318-.153364-.3125-.21875-.0074-.0045-.02384.0044-.03125 0-.232039-.138728-.462548-.274778-.71875-.375.301527.0968.596455.204138.875.34375.55709.279224 1.060053.665694 1.5 1.09375.219973.214028.409366.441865.59375.6875s.355408.507743.5.78125c.14012.265048.276135.524729.375.8125.01041.03078.02133.06274.03125.09375.09046.278085.1388.579404.1875.875.0524.31805.09375.634029.09375.96875v2 68 2c0 3.324-2.676 6-6 6z" fill="url(#c)" opacity=".15"/></g><g><g transform="translate(0 1)"><path d="m43.25 18.0625c-1.877522 0-3.375 1.555723-3.375 3.40625v1.53125c-.539589.189719-1.069021.413062-1.59375.65625l-1.09375-1.09375c-1.287677-1.287674-3.430728-1.350534-4.75-.03125l-3.90625 3.90625c-1.31939 1.319286-1.256393 3.462355.03125 4.75l1.09375 1.09375c-.243187.524729-.466531 1.054162-.65625 1.59375h-1.53125c-1.85053 0-3.40625 1.497481-3.40625 3.375v5.5c0 1.877519 1.55572 3.375 3.40625 3.375h1.53125c.189719.539588.413063 1.069021.65625 1.59375l-1.09375 1.09375c-1.287545 1.287663-1.350544 3.430693-.03125 4.75l3.90625 3.90625c.691547.691549 1.580865.975961 2.40625.96875.920858-.0078 1.750772-.407029 2.34375-1l1.09375-1.09375c.524729.243188 1.054162.466531 1.59375.65625v1.53125c0 1.850527 1.497478 3.40625 3.375 3.40625h3.96875c-.0503.116997-.122344.217213-.15625.34375l-.75 2.8125c-.382516 1.427572.521582 2.755727 1.8125 3.1875-1.060824.683813-1.385217 1.986181-.96875 3.15625h-.0625v.03125a.84712339.84712339 0 0 0 .09375.375.84712339.84712339 0 0 0 .03125.0625l1.34375 2.34375a.84712339.84712339 0 0 0 .09375.15625.84712339.84712339 0 0 0 0 .03125c.407218.705339 1.055874 1.063539 1.65625 1.21875.678608.175669 1.352584.05754 1.90625-.21875-.263044 1.368507.526676 2.755347 1.90625 3.125l2.78125.75c1.361731.364879 2.793497-.400763 3.25-1.75.772233 1.1647 2.31331 1.596214 3.5625.875l2.53125-1.46875c1.213703-.700655 1.649694-2.232477 1.0625-3.5v-.03125c1.358313.244306 2.726925-.537258 3.09375-1.90625l.75-2.8125c.335761-1.253075-.380445-2.339844-1.40625-2.90625-.0074-.0041-.02379.004-.03125 0-.146563-.07919-.215205-.260766-.375-.3125 1.138876-.732674 1.693296-2.284659.9375-3.59375l-1.46875-2.53125c-.742219-1.285572-2.351343-1.606719-3.59375-.96875.270054-1.33245-.418788-2.774437-1.84375-3.15625l-1.25-.34375 1.34375-1.34375c1.319413-1.319288 1.256383-3.462359-.03125-4.75l-1.09375-1.09375c.243188-.524729.466531-1.05416.65625-1.59375h1.53125c1.850529 0 3.40625-1.497477 3.40625-3.375v-5.5c0-1.877524-1.555724-3.375-3.40625-3.375h-1.53125c-.189719-.539589-.413063-1.069021-.65625-1.59375l1.09375-1.09375c1.287543-1.287663 1.350542-3.430692.03125-4.75l-3.90625-3.90625c-1.319272-1.319268-3.462322-1.25643-4.75.03125l-1.09375 1.09375c-.524729-.243188-1.054161-.466531-1.59375-.65625v-1.53125c0-1.850533-1.497483-3.40625-3.375-3.40625zm26.09375 47.4375c.08513.05622.343966.250261.34375.25-.002-.0037.00002-.03123 0-.03125-.000198-.000235-.232674-.147091-.34375-.21875zm-23.34375-29.59375c2.291887 0 4.09375 1.801866 4.09375 4.09375 0 2.29188-1.801865 4.09375-4.09375 4.09375-2.291874 0-4.09375-1.801873-4.09375-4.09375 0-2.29188 1.801875-4.09375 4.09375-4.09375zm12.8125 29.75c-.168347-.01008.03967.0061.25.0625.704061.188652 1.061009.8058.875 1.5-.179882.671326-.851361 1.057175-1.53125.875-.704052-.188651-1.061007-.805812-.875-1.5.151991-.567237.748983-.969362 1.28125-.9375z" display="block" opacity=".1"/><path d="m43.25 18.90625c-1.412149 0-2.53125 1.163776-2.53125 2.5625v2.09375c-.907745.294425-1.791673.631066-2.625 1.0625l-1.5-1.46875c-.959539-.959537-2.585417-1.008342-3.5625-.03125l-3.90625 3.90625c-.977164.977087-.928263 2.602985.03125 3.5625l1.46875 1.5c-.431432.833325-.768073 1.717256-1.0625 2.625h-2.09375c-1.398728 0-2.5625 1.119102-2.5625 2.53125v5.5c0 1.412148 1.163772 2.53125 2.5625 2.53125h2.09375c.294427.907743.631068 1.791675 1.0625 2.625l-1.46875 1.5c-.959445.959533-1.008347 2.585394-.03125 3.5625l3.90625 3.90625c.517303.517304 1.17579.724313 1.8125.71875.665072-.0056 1.31239-.312395 1.75-.75l1.5-1.46875c.833325.431433 1.717255.768074 2.625 1.0625v2.09375c0 1.398724 1.119101 2.5625 2.53125 2.5625h5.5c1.061196 0 1.804845-.733018 2.1875-1.65625.02871.213041-.04145.436465.0625.625v.03125l.375.65625c-.171801.203587-.344379.40545-.5.625l-.71875-.1875c-.983871-.263626-2.014422.316687-2.28125 1.3125l-.75 2.8125c-.271351 1.012697.403799 1.99814 1.34375 2.25l.71875.1875c.02149.263998.08167.51891.125.78125l-.6875.40625c-.849942.507502-1.167368 1.632389-.6875 2.5v.03125l1.4375 2.5a1.1045137 1.1045137 0 0 0 0 .03125c.275332.4769.718867.730676 1.15625.84375.497607.128814 1.027144.03139 1.40625-.1875a1.1045137 1.1045137 0 0 0 0-.03125l.625-.375c.213519.176302.429031.342937.65625.5l-.1875.71875c-.263626.983866.316689 2.014425 1.3125 2.28125l2.78125.75c.974745.261185 2.012072-.307914 2.28125-1.3125l.1875-.75c.254549-.02552.502067-.04896.75-.09375l.40625.6875c.482724.836087 1.676136 1.181196 2.53125.6875l2.53125-1.46875c.868877-.501591 1.199739-1.675262.6875-2.5625a1.1045137 1.1045137 0 0 0 -.03125 0l-.375-.625c.171011-.207109.347093-.404952.5-.625l.6875.1875a1.1045137 1.1045137 0 0 0 .03125 0c.983873.263626 2.014419-.316686 2.28125-1.3125l.75-2.8125c.267132-.99695-.395455-1.94824-1.3125-2.21875-.0062-.0018.0062-.02948 0-.03125h-.03125l-.71875-.21875c-.02761-.275408-.04371-.544908-.09375-.8125l.65625-.375c.798131-.476759 1.231883-1.611218.71875-2.5l-1.46875-2.53125c-.515497-.892874-1.716212-1.144855-2.5625-.65625a1.1045137 1.1045137 0 0 0 0 .03125l-.625.375c-.214321-.182403-.423751-.365664-.65625-.53125l.1875-.6875c.249971-.932899-.27154-2.010702-1.28125-2.28125l-2.65625-.71875 2.375-2.375c.97718-.977087.928257-2.602987-.03125-3.5625l-1.46875-1.5c.431433-.833324.768074-1.717252 1.0625-2.625h2.09375c1.398729 0 2.5625-1.119096 2.5625-2.53125v-5.5c0-1.412154-1.163774-2.53125-2.5625-2.53125h-2.09375c-.294427-.907747-.631068-1.791676-1.0625-2.625l1.46875-1.5c.959443-.959532 1.008345-2.585393.03125-3.5625l-3.90625-3.90625c-.977083-.97708-2.602964-.928288-3.5625.03125l-1.5 1.46875c-.833327-.431434-1.717255-.768075-2.625-1.0625v-2.09375c0-1.398732-1.119103-2.5625-2.53125-2.5625zm2.75 16.15625c2.743483 0 4.9375 2.19402 4.9375 4.9375 0 2.743477-2.194018 4.9375-4.9375 4.9375-2.743473 0-4.9375-2.194024-4.9375-4.9375 0-2.743478 2.194027-4.9375 4.9375-4.9375zm7.90625 20.3125.6875.6875c-.133137.03741-.283196-.0398-.40625.03125l-2.53125 1.46875c-.195848.113065-.242031.356835-.375.53125v-1.65625c.907745-.294425 1.791673-.631066 2.625-1.0625zm3.96875 1.9375v.03125c-.05306.0043-.10323.02608-.15625.03125.05564-.01192.101446-.04678.15625-.0625zm1 7.5c.06.0036.189782.03575.40625.09375 1.126992.301976 1.769028 1.410592 1.46875 2.53125-.298701 1.114764-1.445119 1.768151-2.5625 1.46875-1.126986-.301976-1.769028-1.410598-1.46875-2.53125.260486-.972145 1.207363-1.619302 2.15625-1.5625z" display="block" opacity=".15"/><path d="m43.25 20c-.787101 0-1.4375.668201-1.4375 1.46875v2.8125c-1.40738.374981-2.738343.940656-3.96875 1.65625l-2.03125-2c-.566072-.566071-1.443445-.58781-2-.03125l-3.90625 3.90625c-.556606.556562-.534822 1.433927.03125 2l2 2.03125c-.71559 1.230403-1.281261 2.561366-1.65625 3.96875h-2.8125c-.800548 0-1.46875.650404-1.46875 1.4375v5.5c0 .787096.668202 1.4375 1.46875 1.4375h2.8125c.374989 1.407383.94066 2.738347 1.65625 3.96875l-2 2.03125c-.566022.566074-.587805 1.44344-.03125 2l3.90625 3.90625c.278278.278279.664972.40945 1.03125.40625.36628-.0031.68571-.154463.96875-.4375l2.03125-2c1.230407.715591 2.56137 1.28127 3.96875 1.65625v2.8125c0 .800549.650399 1.46875 1.4375 1.46875h5.5c.787094 0 1.4375-.668201 1.4375-1.46875v-2.8125c1.407381-.37498 2.738338-.940655 3.96875-1.65625l2.03125 2c.566071.566074 1.443436.587811 2 .03125l3.90625-3.90625c.556613-.55656.534821-1.433926-.03125-2l-2-2.03125c.715589-1.230403 1.281272-2.561367 1.65625-3.96875h2.8125c.800542 0 1.46875-.650406 1.46875-1.4375v-5.5c0-.787097-.668208-1.4375-1.46875-1.4375h-2.8125c-.374982-1.407384-.940662-2.738347-1.65625-3.96875l2-2.03125c.566021-.566073.587805-1.443438.03125-2l-3.90625-3.90625c-.556562-.55656-1.433928-.534823-2 .03125l-2.03125 2c-1.230407-.715594-2.56137-1.281269-3.96875-1.65625v-2.8125c0-.800549-.650407-1.46875-1.4375-1.46875zm2.75 13.96875c3.33767 0 6.03125 2.693583 6.03125 6.03125 0 3.337665-2.69358 6.03125-6.03125 6.03125-3.337662 0-6.03125-2.693585-6.03125-6.03125 0-3.337667 2.693588-6.03125 6.03125-6.03125zm13.75 22.375c-.289925.04277-.543251.257409-.625.5625l-.375 1.4375c-.766198-.0011-1.527359.08514-2.25.28125l-.75-1.28125c-.210569-.364709-.641415-.488281-1-.28125l-2.53125 1.46875c-.358607.207027-.460569.635285-.25 1l.71875 1.3125c-.531143.527783-.992832 1.117163-1.375 1.78125l-1.4375-.375c-.406788-.108998-.830333.131298-.9375.53125l-.75 2.8125c-.107167.399953.155712.797251.5625.90625l1.4375.375c-.0011.7662.08513 1.52736.28125 2.25l-1.28125.75c-.36469.210574-.488279.672664-.28125 1.03125l1.4375 2.53125c.103514.179296.282191.29552.46875.34375.186544.04829.38014.01154.5625-.09375l1.28125-.75c.527785.531143 1.148413.992836 1.8125 1.375l-.375 1.4375c-.108999.40679.131295.830333.53125.9375l2.78125.75c.399952.107168.828501-.124461.9375-.53125l.375-1.4375c.766199.0011 1.527356-.116385 2.25-.3125l.75 1.3125c.21057.364711.64141.48828 1 .28125l2.53125-1.46875c.358612-.207022.491818-.66653.28125-1.03125l-.75-1.28125c.531143-.527781.992846-1.14841 1.375-1.8125l1.4375.40625c.406785.108997.830332-.131299.9375-.53125l.75-2.8125c.107167-.399953-.155716-.797251-.5625-.90625l-1.40625-.40625c.0011-.766199-.116385-1.527362-.3125-2.25l1.28125-.75c.364691-.210576.519528-.641413.3125-1l-1.46875-2.53125c-.207031-.358591-.666534-.460569-1.03125-.25l-1.28125.75c-.527783-.531145-1.148413-1.024086-1.8125-1.40625l.375-1.40625c.108999-.406787-.100047-.830334-.5-.9375l-2.8125-.75c-.09999-.02679-.215858-.0455-.3125-.03125zm-.8125 7.375c.210922.01263.413001.0682.625.125 1.695994.45444 2.704438 2.179007 2.25 3.875-.454441 1.695992-2.210257 2.70444-3.90625 2.25-1.695989-.45444-2.70444-2.179009-2.25-3.875.397635-1.483994 1.804799-2.463383 3.28125-2.375z" display="block" opacity=".3"/></g><path d="m43.238378 59.999996c-.787101 0-1.424421-.652935-1.424421-1.453484v-2.819759c-1.40738-.37498-2.752137-.941381-3.982544-1.656972l-2.005812 2.005807c-.28304.283037-.622087.432943-.988367.436047-.366278.0032-.739159-.128697-1.017437-.406976l-3.92441-3.924408c-.556555-.55656-.537002-1.439735.02902-2.005809l2.005811-2.005808c-.71559-1.230403-1.281987-2.575163-1.656976-3.982546h-2.819756c-.800548 0-1.453486-.637319-1.453486-1.424415v-5.52324c0-.787096.652938-1.424416 1.453486-1.424416h2.819756c.374989-1.407384.941386-2.752143 1.656976-3.982546l-2.005811-2.005809c-.566072-.566073-.585626-1.449247-.02902-2.005809l3.92441-3.924408c.556555-.55656 1.439732-.537001 2.005804.02907l2.005812 2.005806c1.230407-.715594 2.575164-1.281991 3.982544-1.656972v-2.81976c0-.800549.63732-1.453485 1.424421-1.453485h5.523239c.787093 0 1.424413.652936 1.424413 1.453485v2.81976c1.40738.374981 2.752137.941378 3.982544 1.656972l2.005811-2.005809c.566072-.566073 1.449249-.58563 2.005811-.02907l3.924404 3.924408c.556555.556562.537001 1.439736-.02902 2.005809l-2.005799 2.005812c.715588 1.230403 1.281985 2.575162 1.656967 3.982546h2.819765c.800542 0 1.453483.637319 1.453483 1.424416v5.52324c0 .787094-.652941 1.424415-1.453483 1.424415h-2.819765c-.374978 1.407383-.941375 2.752143-1.656964 3.982546l2.005803 2.005808c.566071.566074.585633 1.449249.02902 2.005809l-3.924403 3.924408c-.556564.556561-1.43974.537004-2.005811-.02907l-2.005812-2.005807c-1.230412.715595-2.575168 1.281995-3.982549 1.656975v2.819759c0 .800549-.637319 1.453484-1.424413 1.453484h-5.523239zm2.761615-13.953448c3.33767 0 6.046496-2.70883 6.046496-6.046495 0-3.337667-2.708826-6.046495-6.046496-6.046495-3.337662 0-6.046495 2.708828-6.046495 6.046495 0 3.337665 2.708833 6.046495 6.046495 6.046495z" display="block" fill="url(#d)"/><path d="m54.610333 76.688349c-.399955-.107167-.6349-.525721-.525901-.932511l.383924-1.432823c-.664087-.382164-1.270289-.853068-1.798074-1.384211l-1.292326.746122c-.18236.105287-.375055.135292-.561599.087-.186559-.04823-.35807-.166033-.461584-.345329l-1.45981-2.528464c-.207029-.358586-.07684-.804699.28785-1.015273l1.292328-.746125c-.196116-.72264-.300811-1.483084-.299732-2.249284l-1.432823-.383923c-.406788-.108999-.651796-.521745-.544629-.921698l.752016-2.806562c.107167-.399952.525723-.634897.932511-.525899l1.432823.383923c.382168-.664087.85307-1.270291 1.384213-1.798074l-.746125-1.292329c-.210569-.364715-.100256-.816151.258351-1.023178l2.528464-1.459808c.358585-.207031.804697-.07684 1.015266.287869l.746127 1.292325c.722641-.196115 1.483085-.30081 2.249283-.299726l.383925-1.432824c.108998-.406788.521744-.651795.921699-.544627l2.80656.752016c.399953.107166.634899.525722.5259.932509l-.383925 1.432825c.664087.382164 1.27029.853066 1.798073 1.384211l1.292327-.746125c.364716-.210569.816154-.100258 1.023185.258333l1.459807 2.528464c.207028.358587.07684.804698-.287851 1.015274l-1.292322.746127c.196115.722638.3008 1.483084.299724 2.249283l1.432827.383924c.406784.108999.651794.521745.544627.921698l-.752015 2.806562c-.107168.399951-.525726.634897-.932511.5259l-1.432827-.383925c-.382154.66409-.853057 1.270295-1.3842 1.798076l.746123 1.292326c.210568.36472.10026.816158-.258352 1.02318l-2.52846 1.459812c-.35859.20703-.804701.07684-1.015271-.287871l-.746125-1.292324c-.722644.196115-1.483088.300811-2.249287.299727l-.383923 1.432822c-.108999.406789-.521745.651796-.921697.544628l-2.806562-.752015zm3.303109-6.714255c1.695993.45444 3.441269-.553195 3.89571-2.249187.454438-1.695993-.553196-3.441268-2.24919-3.895708-1.69599-.454438-3.441267.553196-3.895707 2.249189-.45444 1.695991.553198 3.441266 2.249187 3.895706z" display="block" fill="url(#e)"/><path d="m43.25 20c-.787101 0-1.4375.668201-1.4375 1.46875v1c0-.800549.650399-1.46875 1.4375-1.46875h5.5c.787093 0 1.4375.668201 1.4375 1.46875v-1c0-.800549-.650407-1.46875-1.4375-1.46875zm-8.4375 3.5c-.359672-.0066-.721722.12797-1 .40625l-3.90625 3.90625c-.40122.401188-.499571.970931-.3125 1.46875.06739-.169364.173348-.32961.3125-.46875l3.90625-3.90625c.556555-.55656 1.433928-.534821 2 .03125l2.03125 2c1.230407-.715594 2.56137-1.281269 3.96875-1.65625v-1c-1.40738.374981-2.738343.940656-3.96875 1.65625l-2.03125-2c-.283036-.283036-.640328-.430876-1-.4375zm22.375 0c-.359671.0066-.716964.154463-1 .4375l-2.03125 2c-1.230407-.715594-2.56137-1.281269-3.96875-1.65625v1c1.40738.374981 2.738343.940656 3.96875 1.65625l2.03125-2c.566072-.566073 1.443438-.58781 2-.03125l3.90625 3.90625c.139139.13914.245121.299386.3125.46875.187055-.497819.08868-1.067562-.3125-1.46875l-3.90625-3.90625c-.278281-.27828-.640329-.412873-1-.40625zm-25.59375 9c-.54668 1.044275-1.002875 2.150434-1.3125 3.3125h-2.8125c-.800548 0-1.46875.650404-1.46875 1.4375v1c0-.787096.668202-1.4375 1.46875-1.4375h2.8125c.374989-1.407384.94066-2.738347 1.65625-3.96875zm28.8125 0-.34375.34375c.715588 1.230403 1.281268 2.561366 1.65625 3.96875h2.8125c.800542 0 1.46875.650403 1.46875 1.4375v-1c0-.787097-.668208-1.4375-1.46875-1.4375h-2.8125c-.30962-1.162066-.765819-2.268225-1.3125-3.3125zm-20.40625 8.125c-.0075.123444-.03125.249629-.03125.375 0 3.337665 2.693588 6.03125 6.03125 6.03125 3.33767 0 6.03125-2.693585 6.03125-6.03125 0-.125371-.02376-.251556-.03125-.375-.308148 3.046077-2.870934 5.40625-6 5.40625-3.129058 0-5.691851-2.360173-6-5.40625zm-8.40625 7.875-1.65625 1.6875c-.424516.424555-.545888 1.023157-.34375 1.53125.07244-.192797.185736-.373221.34375-.53125l2-2.03125c-.124733-.214469-.228343-.435798-.34375-.65625zm28.8125 0c-.115408.220452-.219017.441781-.34375.65625l2 2.03125c.158028.158029.2713.338453.34375.53125.202158-.508093.0808-1.106695-.34375-1.53125zm-.65625 7.84375c-.289925.04277-.543251.257409-.625.5625l-.375 1.4375c-.766198-.0011-1.527359.08514-2.25.28125l-.75-1.28125c-.210569-.364709-.641415-.488281-1-.28125l-2.53125 1.46875c-.358607.207027-.460569.635285-.25 1l.09375.15625c.04941-.05376.08769-.116671.15625-.15625l2.53125-1.46875c.358585-.207031.789431-.08346 1 .28125l.75 1.28125c.722641-.19611 1.483802-.28235 2.25-.28125l.375-1.4375c.08175-.305091.335075-.51973.625-.5625.09664-.01425.21251.0045.3125.03125l2.8125.75c.184684.04948.315497.160894.40625.3125l.09375-.375c.108999-.406787-.100047-.830334-.5-.9375l-2.8125-.75c-.09999-.02679-.215858-.0455-.3125-.03125zm3.46875 3.28125-.21875.84375c.664087.382164 1.284717.875105 1.8125 1.40625l1.28125-.75c.364716-.210569.824219-.108591 1.03125.25l1.375 2.34375c.187697-.226818.249021-.54356.09375-.8125l-1.46875-2.53125c-.207031-.358591-.666534-.460569-1.03125-.25l-1.28125.75c-.467175-.47015-1.015335-.890049-1.59375-1.25zm-10.875 1.59375c-.386843.430897-.73518.891773-1.03125 1.40625l-1.4375-.375c-.406788-.108998-.830333.131298-.9375.53125l-.75 2.8125c-.05768.215269.0035.424559.125.59375l.625-2.40625c.107167-.399952.530712-.640248.9375-.53125l1.4375.375c.382168-.664087.843857-1.253467 1.375-1.78125zm14.84375 4.34375-.1875.09375c.196115.722638.3136 1.483801.3125 2.25l1.40625.40625c.187838.05033.333295.167347.4375.3125l.125-.40625c.107167-.399953-.155716-.797251-.5625-.90625l-1.40625-.40625c.00063-.448353-.05244-.905556-.125-1.34375zm-5.3125 1.78125c-.01796.127282-.02833.24749-.0625.375-.454441 1.695992-2.210257 2.70444-3.90625 2.25-1.227505-.32891-2.099286-1.332789-2.3125-2.5-.220895 1.565666.744021 3.079726 2.3125 3.5 1.695993.45444 3.451809-.554008 3.90625-2.25.12553-.468485.143874-.929527.0625-1.375zm-11.59375 1.875-1.09375.65625c-.36469.210574-.488279.672664-.28125 1.03125l.09375.15625c.05721-.0705.103836-.139192.1875-.1875l1.28125-.75c-.08136-.299776-.142354-.595606-.1875-.90625zm14.84375 4.34375c-.117311.134026-.218596.281888-.34375.40625l.65625 1.15625c.203237-.235197.259727-.587515.09375-.875zm-10.875 1.59375-.15625.59375c-.05867.218949-.02039.448288.09375.625l.28125-1.0625c-.077339-.044506-.142668-.109602-.21875-.15625z" display="block" fill="#fff"/></g></svg>