<svg height="96" width="96" xmlns="http://www.w3.org/2000/svg" xmlns:xlink="http://www.w3.org/1999/xlink"><linearGradient id="a"><stop offset="0" stop-color="#f0f0f0"/><stop offset="1" stop-color="#aaa"/></linearGradient><linearGradient id="b"><stop offset="0" stop-color="#fff"/><stop offset="1" stop-color="#fff" stop-opacity="0"/></linearGradient><linearGradient id="c" gradientUnits="userSpaceOnUse" x1="36.357143" x2="36.357143" xlink:href="#b" y1="6" y2="63.893143"/><radialGradient id="d" cx="48" cy="90.171875" gradientTransform="matrix(1.1573129 0 0 .99590774 -7.551021 .197132)" gradientUnits="userSpaceOnUse" r="42" xlink:href="#b"/><linearGradient id="e" gradientTransform="matrix(1.0058652 0 0 .994169 100 0)" gradientUnits="userSpaceOnUse" x1="45.447727" x2="45.447727" y1="92.539597" y2="7.01654"><stop offset="0"/><stop offset="1" stop-opacity=".588235"/></linearGradient><linearGradient id="f" gradientTransform="matrix(1.0238095 0 0 -1.0119048 -1.142857 98.071429)" gradientUnits="userSpaceOnUse" x1="32.251034" x2="32.251034" xlink:href="#e" y1="6.131708" y2="90.238609"/><linearGradient id="g" gradientTransform="matrix(1 0 0 -1 0 97)" gradientUnits="userSpaceOnUse" x1="32.251034" x2="32.251034" xlink:href="#e" y1="6.131708" y2="90.238609"/><linearGradient id="h" gradientUnits="userSpaceOnUse" x1="0" x2="16" xlink:href="#a" y1="112" y2="112"/><linearGradient id="i" gradientUnits="userSpaceOnUse" x1="-40" x2="-24" y1="112" y2="112"><stop offset="0" stop-color="#c80000"/><stop offset="1" stop-color="#f3604d"/></linearGradient><linearGradient id="j" gradientUnits="userSpaceOnUse" x1="43.520413" x2="43.520413" xlink:href="#a" y1="27.449652" y2="72.006798"/><g fill="url(#f)"><path d="m12 3.96875c-5.5110902 0-10.03125 4.5201598-10.03125 10.03125v71c0 5.51109 4.5201597 10.03125 10.03125 10.03125h72c5.51109 0 10.03125-4.52016 10.03125-10.03125v-71c0-5.5110903-4.52016-10.03125-10.03125-10.03125zm0 2.03125h72c3.324 0 6 2.676 6 6v72c0 3.324-2.676 6-6 6h-72c-3.324 0-6-2.676-6-6v-72c0-3.324 2.676-6 6-6z" opacity=".08"/><path d="m12 4.96875c-4.9716329 0-9.03125 4.0596171-9.03125 9.03125v71c0 4.971633 4.059617 9.03125 9.03125 9.03125h72c4.971633 0 9.03125-4.059617 9.03125-9.03125v-71c0-4.971633-4.059617-9.03125-9.03125-9.03125zm0 1.03125h72c3.324 0 6 2.676 6 6v72c0 3.324-2.676 6-6 6h-72c-3.324 0-6-2.676-6-6v-72c0-3.324 2.676-6 6-6z" opacity=".1"/><path d="m11.1875 6.03125c-4.027518.4106511-7.1875 3.8351875-7.1875 7.96875v71c0 4.409133 3.590867 8 8 8h72c4.409133 0 8-3.590867 8-8v-71c0-4.1970618-3.258972-7.6460416-7.375-7.96875 3.032886.306167 5.375 2.8525 5.375 5.96875v72c0 3.324-2.676 6-6 6h-72c-3.324 0-6-2.676-6-6v-72c0-3.11625 2.342114-5.662583 5.375-5.96875-.06227.00488-.12563-.00631-.1875 0z" opacity=".2"/><path d="m6.4375 9.75c-.8994891 1.177446-1.4375 2.647277-1.4375 4.25v71c0 3.878 3.122 7 7 7h72c3.878 0 7-3.122 7-7v-71c0-1.602723-.538011-3.072554-1.4375-4.25.279316.694095.4375 1.453625.4375 2.25v72c0 3.324-2.676 6-6 6h-72c-3.324 0-6-2.676-6-6v-72c0-.796375.1581836-1.555905.4375-2.25z" opacity=".3"/></g><path d="m6 84v1c0 3.324 2.676 6 6 6h72c3.324 0 6-2.676 6-6v-1c0 3.324-2.676 6-6 6h-72c-3.324 0-6-2.676-6-6z" fill="url(#g)" opacity=".45"/><g><rect height="84" opacity=".6" rx="6" width="84" x="6" y="6"/><path d="m12 6c-3.324 0-6 2.676-6 6v2 68 2c0 .334721.04135.6507.09375.96875.0487.295596.09704.596915.1875.875.00988.03038.020892.0636.03125.09375.098865.287771.2348802.547452.375.8125.1445918.273507.3156161.535615.5.78125s.3737765.473472.59375.6875c.439947.428056.94291.814526 1.5 1.09375.278545.139612.5734731.246947.875.34375-.2562018-.100222-.4867109-.236272-.71875-.375-.00741-.0044-.023866.0045-.03125 0-.031933-.0193-.062293-.04251-.09375-.0625-.120395-.0767-.2310226-.163513-.34375-.25-.1061728-.0808-.2132809-.161112-.3125-.25-.1779299-.161433-.3474596-.345388-.5-.53125-.1075789-.130255-.2183939-.265285-.3125-.40625-.025089-.03838-.038446-.08587-.0625-.125-.064763-.103032-.1302275-.204517-.1875-.3125-.1010083-.194706-.2056748-.415701-.28125-.625-.00796-.02181-.023589-.04055-.03125-.0625-.0318251-.09195-.0358045-.186831-.0625-.28125-.0303323-.106618-.0703894-.203031-.09375-.3125-.0728786-.341512-.125-.698205-.125-1.0625v-2-68-2c0-2.781848 2.2181517-5 5-5h2 68 2c2.781848 0 5 2.218152 5 5v2 68 2c0 .364295-.05212.720988-.125 1.0625-.04415.206893-.08838.397658-.15625.59375-.0077.02195-.0233.04069-.03125.0625-.06274.173739-.138383.367449-.21875.53125-.04158.0828-.07904.169954-.125.25-.0546.09721-.126774.18835-.1875.28125-.09411.140965-.204921.275995-.3125.40625-.143174.17445-.303141.346998-.46875.5-.01117.0102-.01998.02115-.03125.03125-.138386.125556-.285091.234436-.4375.34375-.102571.07315-.204318.153364-.3125.21875-.0074.0045-.02384-.0044-.03125 0-.232039.138728-.462548.274778-.71875.375.301527-.0968.596455-.204138.875-.34375.55709-.279224 1.060053-.665694 1.5-1.09375.219973-.214028.409366-.441865.59375-.6875s.355408-.507743.5-.78125c.14012-.265048.276135-.524729.375-.8125.01041-.03078.02133-.06274.03125-.09375.09046-.278085.1388-.579404.1875-.875.0524-.31805.09375-.634029.09375-.96875v-2-68-2c0-3.324-2.676-6-6-6z" fill="url(#c)" opacity=".01"/><path d="m12 90c-3.324 0-6-2.676-6-6v-2-68-2c0-.334721.04135-.6507.09375-.96875.0487-.295596.09704-.596915.1875-.875.00988-.03038.020892-.0636.03125-.09375.098865-.287771.2348802-.547452.375-.8125.1445918-.273507.3156161-.535615.5-.78125s.3737765-.473472.59375-.6875c.439947-.428056.94291-.814526 1.5-1.09375.278545-.139612.5734731-.246947.875-.34375-.2562018.100222-.4867109.236272-.71875.375-.00741.0044-.023866-.0045-.03125 0-.031933.0193-.062293.04251-.09375.0625-.120395.0767-.2310226.163513-.34375.25-.1061728.0808-.2132809.161112-.3125.25-.1779299.161433-.3474596.345388-.5.53125-.1075789.130255-.2183939.265285-.3125.40625-.025089.03838-.038446.08587-.0625.125-.064763.103032-.1302275.204517-.1875.3125-.1010083.194706-.2056748.415701-.28125.625-.00796.02181-.023589.04055-.03125.0625-.0318251.09195-.0358045.186831-.0625.28125-.0303323.106618-.0703894.203031-.09375.3125-.0728786.341512-.125.698205-.125 1.0625v2 68 2c0 2.781848 2.2181517 5 5 5h2 68 2c2.781848 0 5-2.218152 5-5v-2-68-2c0-.364295-.05212-.720988-.125-1.0625-.04415-.206893-.08838-.397658-.15625-.59375-.0077-.02195-.0233-.04069-.03125-.0625-.06274-.173739-.138383-.367449-.21875-.53125-.04158-.0828-.07904-.169954-.125-.25-.0546-.09721-.126774-.18835-.1875-.28125-.09411-.140965-.204921-.275995-.3125-.40625-.143174-.17445-.303141-.346998-.46875-.5-.01117-.0102-.01998-.02115-.03125-.03125-.138386-.125556-.285091-.234436-.4375-.34375-.102571-.07315-.204318-.153364-.3125-.21875-.0074-.0045-.02384.0044-.03125 0-.232039-.138728-.462548-.274778-.71875-.375.301527.0968.596455.204138.875.34375.55709.279224 1.060053.665694 1.5 1.09375.219973.214028.409366.441865.59375.6875s.355408.507743.5.78125c.14012.265048.276135.524729.375.8125.01041.03078.02133.06274.03125.09375.09046.278085.1388.579404.1875.875.0524.31805.09375.634029.09375.96875v2 68 2c0 3.324-2.676 6-6 6z" fill="url(#d)" opacity=".15"/></g><g><path d="m53.71875 25.96875c-1.557632.175938-1.848925 1.917343-1.6875 3.19253.02083 8.674545-.04166 17.355985.03125 26.02622.09098 1.582729 1.850533 1.91668 3.13003 1.75 2.025297-.08604 4.092601.183157 6.08872-.15625 1.550835-1.628908 3.782526 1.309272 6 .625 5.506861.171567 9.859355-4.787494 10.385011-10.012249.924312-5.669765-1.366748-12.497802-7.134482-14.589148-2.523972-1.135251-6.022752-.324639-8.063029.479675-.09089-2.037944.190274-4.119766-.15625-6.128278-.819462-1.754663-3.004391-1.039698-4.534755-1.1875-1.352998 0-2.705997 0-4.058995 0zm-22.75.09375c-1.809239.303964-1.852931 2.488384-2.52932 3.828187-3.052727 8.140604-6.105453 16.281209-9.15818 24.421813-.554299 1.233517.691912 2.875808 2.118445 2.625 2.436831-.05773 4.898769.118464 7.319055-.09375 1.597786-.664808 1.558129-2.705318 2.244659-4.069816.04385-1.281204 1.423782-.668664 2.275233-.805184h6.261358c.617093 1.44466.807968 3.121314 1.71875 4.40625 1.215606 1.0148 2.949521.387816 4.4032.5625 1.60452-.113182 3.303208.234207 4.8468-.1875 1.284805-.506902 1.377288-2.146905.762689-3.153663-3.306874-8.81144-6.609169-17.638269-9.918939-26.440087-.890798-1.645686-2.986467-.944603-4.503505-1.09375-1.946748 0-3.893497 0-5.840245 0zm4.4375 14.125c.333333.979167.666667 1.958333 1 2.9375-.67885-.173807-2.563706.515803-1.753513-.724057.251171-.737814.502342-1.475629.753513-2.213443zm29.4375.71875c3.017998.201834 2.606687 4.625713 1.910399 6.716681-1.838959 3.324855-5.346164-.647586-4.269292-3.341757.07878-1.358605.507141-3.645478 2.358893-3.374924zm-38.03125 18.15625c-1.529919.397007-2.369709 1.997881-3.567194 2.973444-1.314584 1.42651-2.890285 2.657705-4.026556 4.214056-.342709 2.226679-.06787 4.525311-.15625 6.78125-.01627 1.766058 2.525533 2.56486 3.497586 1.096164l4.439914-4.439914c1.713077 1.642834 3.324429 3.460395 5.09375 5 1.371766.785569 2.49435-.502805 3.331679-1.425429 1.191524-1.191524 2.383047-2.383047 3.574571-3.574571 1.713077 1.642834 3.324429 3.460395 5.09375 5 1.371766.785569 2.49435-.502805 3.331679-1.425429l3.574571-3.574571c1.713077 1.642834 3.324429 3.460395 5.09375 5 1.371766.785569 2.49435-.502805 3.331679-1.425429 1.191524-1.191524 2.383047-2.383047 3.574571-3.574571 1.713077 1.642834 3.324429 3.460395 5.09375 5 1.371705.785508 2.493592-.503564 3.334499-1.422601 1.729215-1.803765 3.654392-3.467406 5.259251-5.358649.518823-1.649663.128737-3.468936.25-5.18948.05505-1.278309.186128-3.0588-1.34375-3.52927-1.735298-.539611-2.63472 1.393958-3.776354 2.307604-.939132.939132-1.878264 1.878264-2.817396 2.817396-1.713077-1.642834-3.324429-3.460395-5.09375-5-1.371766-.785569-2.49435.502805-3.331679 1.425429-1.191524 1.191524-2.383047 2.383047-3.574571 3.574571-1.713077-1.642834-3.324429-3.460395-5.09375-5-1.371766-.785569-2.49435.502805-3.331679 1.425429-1.191524 1.191524-2.383047 2.383047-3.574571 3.574571-1.713077-1.642834-3.324429-3.460395-5.09375-5-1.371766-.785569-2.49435.502805-3.331679 1.425429-1.191524 1.191524-2.383047 2.383047-3.574571 3.574571-1.704599-1.627527-3.281552-3.478973-5.0625-4.96875-.318365-.241533-.738267-.292056-1.125-.28125z" opacity=".1"/><path d="m53.875 26.96875a.93991403.93991403 0 0 0 -.84375.9375v27.09375a.93991403.93991403 0 0 0 .9375.9375h6.5625a.93991403.93991403 0 0 0 .9375-.9375v-.65625c.517121.437404 1.051288.828128 1.625 1.125 1.230821.623329 2.636767.9375 4.1875.9375 2.749497 0 5.13304-1.083446 6.90625-3.25 1.770688-2.176729 2.656225-4.994578 2.65625-8.28125-.000025-3.286654-.882098-6.113461-2.65625-8.28125-1.765058-2.169724-4.136432-3.343727-6.90625-3.34375-1.545411.000023-2.948213.296243-4.1875.9375-.578954.293221-1.107053.685649-1.625 1.125v-7.40625a.93991403.93991403 0 0 0 -.9375-.9375h-6.5625a.93991403.93991403 0 0 0 -.09375 0zm-22.75.09375a.93991403.93991403 0 0 0 -.78125.59375l-10.125 27a.93991403.93991403 0 0 0 .875 1.28125h7.03125a.93991403.93991403 0 0 0 .875-.625l1.5625-4.34375h9.65625l1.46875 4.34375a.93991403.93991403 0 0 0 .875.625h7.125a.93991403.93991403 0 0 0 .875-1.28125l-10.125-27a.93991403.93991403 0 0 0 -.875-.59375h-8.34375a.93991403.93991403 0 0 0 -.09375 0zm4.3125 10.09375 2.34375 6.96875h-4.78125zm29.40625 2.75c1.180789.000013 1.875901.345957 2.4375 1.125.577767.788395.937483 2.039345.9375 3.84375-.000017 1.804424-.35974 3.055379-.9375 3.84375-.5616.779061-1.256716 1.125003-2.4375 1.125-1.180815.000003-1.842767-.32656-2.4375-1.125-.582605-.804411-.937508-2.052165-.9375-3.84375-.000008-1.791563.361815-3.058229.9375-3.84375.593402-.806122 1.251281-1.124987 2.4375-1.125zm-37.9375 20.15625a.93991403.93991403 0 0 0 -.5625.28125l-6 6a.93991403.93991403 0 0 0 -.28125.65625v6a.93991403.93991403 0 0 0 1.59375.65625l5.34375-5.34375 5.34375 5.34375a.93991403.93991403 0 0 0 1.3125 0l5.34375-5.34375 5.34375 5.34375a.93991403.93991403 0 0 0 1.3125 0l5.34375-5.34375 5.34375 5.34375a.93991403.93991403 0 0 0 1.3125 0l5.34375-5.34375 5.34375 5.34375a.93991403.93991403 0 0 0 1.3125 0l6-6a.93991403.93991403 0 0 0 .28125-.65625v-6a.93991403.93991403 0 0 0 -1.59375-.65625l-5.34375 5.34375-5.34375-5.34375a.93991403.93991403 0 0 0 -1.3125 0l-5.34375 5.34375-5.34375-5.34375a.93991403.93991403 0 0 0 -1.3125 0l-5.34375 5.34375-5.34375-5.34375a.93991403.93991403 0 0 0 -1.3125 0l-5.34375 5.34375-5.34375-5.34375a.93991403.93991403 0 0 0 -.75-.28125z" opacity=".15"/><path d="m53.96875 27.90625v27.09375h6.5625v-3c.900258 1.181385 1.905066 2.058417 3 2.625 1.09491.554499 2.326587.84375 3.75.84375 2.518305 0 4.569423-.929241 6.1875-2.90625 1.618029-1.989063 2.437476-4.565265 2.4375-7.6875-.000024-3.122217-.819471-5.710473-2.4375-7.6875-1.618077-1.989045-3.669195-2.999979-6.1875-3-1.423413.000021-2.65509.2772-3.75.84375-1.094934.554547-2.099742 1.443633-3 2.625v-9.75zm-22.75.09375-10.125 27h7.03125l1.78125-4.96875h10.96875l1.6875 4.96875h7.125l-10.125-27zm4.21875 6.28125 3.65625 10.78125h-7.40625zm29.40625 4.6875c1.399053.000015 2.457534.487401 3.1875 1.5.742095 1.012629 1.124982 2.477472 1.125 4.40625-.000018 1.928796-.382905 3.393639-1.125 4.40625-.729966 1.01262-1.788447 1.500003-3.1875 1.5-1.39908.000003-2.433231-.48738-3.1875-1.5-.742125-1.024662-1.125009-2.489505-1.125-4.40625-.000009-1.916724.382875-3.393621 1.125-4.40625.754269-1.024656 1.78842-1.499985 3.1875-1.5zm-37.84375 22.03125-6 6v6l6-6 6 6 6-6 6 6 6-6 6 6 6-6 6 6 6-6v-6l-6 6-6-6-6 6-6-6-6 6-6-6-6 6z" opacity=".3"/><path d="m0 104h16v16h-16z" fill="url(#h)" transform="matrix(0 1 1 0 0 0)"/><text font-family="Liberation Sans" font-size="4" letter-spacing="0" word-spacing="0" x="104" y="48"><tspan x="104" y="48">Shadow opacity : 30, 15, 10, (8)</tspan></text><path d="m-40 104h16v16h-16z" fill="url(#i)" transform="rotate(-90)"/><text font-family="Liberation Sans" font-size="4" letter-spacing="0" word-spacing="0" x="124" y="32"><tspan x="124" y="32">Bevel opacity : 30 / 10</tspan></text><text font-family="Liberation Sans" font-size="4" letter-spacing="0" word-spacing="0" x="124" y="8"><tspan x="124" y="8">Bevel opacity : 75 / 15</tspan></text><path d="m53.96875 26.90625v27.09375h6.5625v-3c.900258 1.181385 1.905066 2.058417 3 2.625 1.09491.554499 2.326587.84375 3.75.84375 2.518305 0 4.569423-.929241 6.1875-2.90625 1.618029-1.989063 2.437476-4.565265 2.4375-7.6875-.000024-3.122217-.819471-5.710473-2.4375-7.6875-1.618077-1.989045-3.669195-2.999979-6.1875-3-1.423413.000021-2.65509.2772-3.75.84375-1.094934.554547-2.099742 1.443633-3 2.625v-9.75zm-22.75.09375-10.125 27h7.03125l1.78125-4.96875h10.96875l1.6875 4.96875h7.125l-10.125-27zm4.21875 6.28125 3.65625 10.78125h-7.40625zm29.40625 4.6875c1.399053.000015 2.457534.487401 3.1875 1.5.742095 1.012629 1.124982 2.477472 1.125 4.40625-.000018 1.928796-.382905 3.393639-1.125 4.40625-.729966 1.01262-1.788447 1.500003-3.1875 1.5-1.39908.000003-2.433231-.48738-3.1875-1.5-.742125-1.024662-1.125009-2.489505-1.125-4.40625-.000009-1.916724.382875-3.393621 1.125-4.40625.754269-1.024656 1.78842-1.499985 3.1875-1.5zm-37.84375 22.03125-6 6v6l6-6 6 6 6-6 6 6 6-6 6 6 6-6 6 6 6-6v-6l-6 6-6-6-6 6-6-6-6 6-6-6-6 6z" fill="url(#j)"/><path d="m53.96875 26.90625v1h6.5625v-1zm-22.75.09375-10.125 27h.375l9.75-26h8.34375l9.75 26h.375l-10.125-27zm36.0625 6.1875c-1.423413.000021-2.65509.2772-3.75.84375-1.094934.554547-2.099742 1.443633-3 2.625v1c.900258-1.181367 1.905066-2.070453 3-2.625 1.09491-.56655 2.326587-.843729 3.75-.84375 2.518305.000021 4.569423 1.010955 6.1875 3 1.530632 1.870239 2.353795 4.288709 2.4375 7.1875.0048-.165454-.000001-.331354 0-.5-.000024-3.122217-.819471-5.710473-2.4375-7.6875-1.618077-1.989045-3.669195-2.999979-6.1875-3zm-35.25 10.875-.34375 1h7.40625l-.34375-1zm28.53125.3125c-.0066.170789-.03125.321568-.03125.5-.000009 1.916745.382875 3.381588 1.125 4.40625.754269 1.01262 1.78842 1.500003 3.1875 1.5 1.399053.000003 2.457534-.48738 3.1875-1.5.742095-1.012611 1.124982-2.477454 1.125-4.40625-.000002-.175479-.02493-.332192-.03125-.5-.06317 1.676664-.41917 2.985766-1.09375 3.90625-.729966 1.01262-1.788447 1.500003-3.1875 1.5-1.39908.000003-2.433231-.48738-3.1875-1.5-.673039-.929274-1.029292-2.244152-1.09375-3.90625zm-33.5625 15.625-6 6v1l6-6 6 6 6-6 6 6 6-6 6 6 6-6 6 6 6-6v-1l-6 6-6-6-6 6-6-6-6 6-6-6-6 6z" fill="#fff" opacity=".75"/><path d="m35.4375 32.28125-3.75 10.78125h.34375l3.40625-9.78125 3.3125 9.78125h.34375zm29.40625 4.6875c-1.39908.000015-2.433231.475344-3.1875 1.5-.742125 1.012629-1.125009 2.489526-1.125 4.40625-.000001.178434.02463.329389.03125.5.06446-1.663834.420711-2.987889 1.09375-3.90625.754269-1.024656 1.78842-1.499985 3.1875-1.5 1.399053.000015 2.457534.487401 3.1875 1.5.67458.920501 1.030584 2.2296 1.09375 3.90625.0063-.167809.03125-.324519.03125-.5-.000018-1.928778-.382905-3.393621-1.125-4.40625-.729966-1.012599-1.788447-1.499985-3.1875-1.5zm11.0625 6.40625c-.0837 2.897674-.906868 5.305875-2.4375 7.1875-1.618077 1.977009-3.669195 2.90625-6.1875 2.90625-1.423413 0-2.65509-.289251-3.75-.84375-1.094934-.566583-2.099742-1.443615-3-2.625v1c.900258 1.181385 1.905066 2.058417 3 2.625 1.09491.554499 2.326587.84375 3.75.84375 2.518305 0 4.569423-.929241 6.1875-2.90625 1.618029-1.989063 2.437476-4.565265 2.4375-7.6875-.000001-.168645.0048-.334483 0-.5zm-46 4.65625-1.78125 4.96875h-6.65625l-.375 1h7.03125l1.78125-4.96875h10.96875l1.6875 4.96875h7.125l-.375-1h-6.75l-1.6875-4.96875zm24.0625 4.96875v1h6.5625v-1zm-26.96875 12-6 6v1l6-6 6 6 6-6 6 6 6-6 6 6 6-6 6 6 6-6v-1l-6 6-6-6-6 6-6-6-6 6-6-6-6 6z" opacity=".15"/></g></svg>