<svg height="96" width="96" xmlns="http://www.w3.org/2000/svg" xmlns:xlink="http://www.w3.org/1999/xlink"><linearGradient id="a"><stop offset="0" stop-color="#fff"/><stop offset="1" stop-color="#fff" stop-opacity="0"/></linearGradient><linearGradient id="b" gradientUnits="userSpaceOnUse" x1="36.357143" x2="36.357143" xlink:href="#a" y1="6" y2="63.893143"/><radialGradient id="c" cx="48" cy="90.171875" gradientTransform="matrix(1.1573129 0 0 .99590774 -7.551021 .197132)" gradientUnits="userSpaceOnUse" r="42" xlink:href="#a"/><linearGradient id="d" gradientTransform="matrix(1.0058652 0 0 .994169 100 0)" gradientUnits="userSpaceOnUse" x1="45.447727" x2="45.447727" y1="92.539597" y2="7.01654"><stop offset="0"/><stop offset="1" stop-opacity=".588235"/></linearGradient><linearGradient id="e" gradientTransform="matrix(1.0238095 0 0 -1.0119048 -1.142857 98.071429)" gradientUnits="userSpaceOnUse" x1="32.251034" x2="32.251034" xlink:href="#d" y1="6.131708" y2="90.238609"/><linearGradient id="f" gradientTransform="matrix(1 0 0 -1 0 97)" gradientUnits="userSpaceOnUse" x1="32.251034" x2="32.251034" xlink:href="#d" y1="6.131708" y2="90.238609"/><linearGradient id="g" gradientUnits="userSpaceOnUse" x1="53.464466" x2="53.464466" y1="78" y2="18.191624"><stop offset="0" stop-color="#aaa"/><stop offset="1" stop-color="#f0f0f0"/></linearGradient><g><g fill="url(#e)"><path d="m12 3.96875c-5.5110902 0-10.03125 4.5201598-10.03125 10.03125v71c0 5.51109 4.5201597 10.03125 10.03125 10.03125h72c5.51109 0 10.03125-4.52016 10.03125-10.03125v-71c0-5.5110903-4.52016-10.03125-10.03125-10.03125zm0 2.03125h72c3.324 0 6 2.676 6 6v72c0 3.324-2.676 6-6 6h-72c-3.324 0-6-2.676-6-6v-72c0-3.324 2.676-6 6-6z" opacity=".08"/><path d="m12 4.96875c-4.9716329 0-9.03125 4.0596171-9.03125 9.03125v71c0 4.971633 4.059617 9.03125 9.03125 9.03125h72c4.971633 0 9.03125-4.059617 9.03125-9.03125v-71c0-4.971633-4.059617-9.03125-9.03125-9.03125zm0 1.03125h72c3.324 0 6 2.676 6 6v72c0 3.324-2.676 6-6 6h-72c-3.324 0-6-2.676-6-6v-72c0-3.324 2.676-6 6-6z" opacity=".1"/><path d="m11.1875 6.03125c-4.027518.4106511-7.1875 3.8351875-7.1875 7.96875v71c0 4.409133 3.590867 8 8 8h72c4.409133 0 8-3.590867 8-8v-71c0-4.1970618-3.258972-7.6460416-7.375-7.96875 3.032886.306167 5.375 2.8525 5.375 5.96875v72c0 3.324-2.676 6-6 6h-72c-3.324 0-6-2.676-6-6v-72c0-3.11625 2.342114-5.662583 5.375-5.96875-.06227.00488-.12563-.00631-.1875 0z" opacity=".2"/><path d="m6.4375 9.75c-.8994891 1.177446-1.4375 2.647277-1.4375 4.25v71c0 3.878 3.122 7 7 7h72c3.878 0 7-3.122 7-7v-71c0-1.602723-.538011-3.072554-1.4375-4.25.279316.694095.4375 1.453625.4375 2.25v72c0 3.324-2.676 6-6 6h-72c-3.324 0-6-2.676-6-6v-72c0-.796375.1581836-1.555905.4375-2.25z" opacity=".3"/></g><path d="m6 84v1c0 3.324 2.676 6 6 6h72c3.324 0 6-2.676 6-6v-1c0 3.324-2.676 6-6 6h-72c-3.324 0-6-2.676-6-6z" fill="url(#f)" opacity=".45"/></g><g><rect height="84" opacity=".6" rx="6" width="84" x="6" y="6"/><path d="m12 6c-3.324 0-6 2.676-6 6v2 68 2c0 .334721.04135.6507.09375.96875.0487.295596.09704.596915.1875.875.00988.03038.020892.0636.03125.09375.098865.287771.2348802.547452.375.8125.1445918.273507.3156161.535615.5.78125s.3737765.473472.59375.6875c.439947.428056.94291.814526 1.5 1.09375.278545.139612.5734731.246947.875.34375-.2562018-.100222-.4867109-.236272-.71875-.375-.00741-.0044-.023866.0045-.03125 0-.031933-.0193-.062293-.04251-.09375-.0625-.120395-.0767-.2310226-.163513-.34375-.25-.1061728-.0808-.2132809-.161112-.3125-.25-.1779299-.161433-.3474596-.345388-.5-.53125-.1075789-.130255-.2183939-.265285-.3125-.40625-.025089-.03838-.038446-.08587-.0625-.125-.064763-.103032-.1302275-.204517-.1875-.3125-.1010083-.194706-.2056748-.415701-.28125-.625-.00796-.02181-.023589-.04055-.03125-.0625-.0318251-.09195-.0358045-.186831-.0625-.28125-.0303323-.106618-.0703894-.203031-.09375-.3125-.0728786-.341512-.125-.698205-.125-1.0625v-2-68-2c0-2.781848 2.2181517-5 5-5h2 68 2c2.781848 0 5 2.218152 5 5v2 68 2c0 .364295-.05212.720988-.125 1.0625-.04415.206893-.08838.397658-.15625.59375-.0077.02195-.0233.04069-.03125.0625-.06274.173739-.138383.367449-.21875.53125-.04158.0828-.07904.169954-.125.25-.0546.09721-.126774.18835-.1875.28125-.09411.140965-.204921.275995-.3125.40625-.143174.17445-.303141.346998-.46875.5-.01117.0102-.01998.02115-.03125.03125-.138386.125556-.285091.234436-.4375.34375-.102571.07315-.204318.153364-.3125.21875-.0074.0045-.02384-.0044-.03125 0-.232039.138728-.462548.274778-.71875.375.301527-.0968.596455-.204138.875-.34375.55709-.279224 1.060053-.665694 1.5-1.09375.219973-.214028.409366-.441865.59375-.6875s.355408-.507743.5-.78125c.14012-.265048.276135-.524729.375-.8125.01041-.03078.02133-.06274.03125-.09375.09046-.278085.1388-.579404.1875-.875.0524-.31805.09375-.634029.09375-.96875v-2-68-2c0-3.324-2.676-6-6-6z" fill="url(#b)" opacity=".01"/><path d="m12 90c-3.324 0-6-2.676-6-6v-2-68-2c0-.334721.04135-.6507.09375-.96875.0487-.295596.09704-.596915.1875-.875.00988-.03038.020892-.0636.03125-.09375.098865-.287771.2348802-.547452.375-.8125.1445918-.273507.3156161-.535615.5-.78125s.3737765-.473472.59375-.6875c.439947-.428056.94291-.814526 1.5-1.09375.278545-.139612.5734731-.246947.875-.34375-.2562018.100222-.4867109.236272-.71875.375-.00741.0044-.023866-.0045-.03125 0-.031933.0193-.062293.04251-.09375.0625-.120395.0767-.2310226.163513-.34375.25-.1061728.0808-.2132809.161112-.3125.25-.1779299.161433-.3474596.345388-.5.53125-.1075789.130255-.2183939.265285-.3125.40625-.025089.03838-.038446.08587-.0625.125-.064763.103032-.1302275.204517-.1875.3125-.1010083.194706-.2056748.415701-.28125.625-.00796.02181-.023589.04055-.03125.0625-.0318251.09195-.0358045.186831-.0625.28125-.0303323.106618-.0703894.203031-.09375.3125-.0728786.341512-.125.698205-.125 1.0625v2 68 2c0 2.781848 2.2181517 5 5 5h2 68 2c2.781848 0 5-2.218152 5-5v-2-68-2c0-.364295-.05212-.720988-.125-1.0625-.04415-.206893-.08838-.397658-.15625-.59375-.0077-.02195-.0233-.04069-.03125-.0625-.06274-.173739-.138383-.367449-.21875-.53125-.04158-.0828-.07904-.169954-.125-.25-.0546-.09721-.126774-.18835-.1875-.28125-.09411-.140965-.204921-.275995-.3125-.40625-.143174-.17445-.303141-.346998-.46875-.5-.01117-.0102-.01998-.02115-.03125-.03125-.138386-.125556-.285091-.234436-.4375-.34375-.102571-.07315-.204318-.153364-.3125-.21875-.0074-.0045-.02384.0044-.03125 0-.232039-.138728-.462548-.274778-.71875-.375.301527.0968.596455.204138.875.34375.55709.279224 1.060053.665694 1.5 1.09375.219973.214028.409366.441865.59375.6875s.355408.507743.5.78125c.14012.265048.276135.524729.375.8125.01041.03078.02133.06274.03125.09375.09046.278085.1388.579404.1875.875.0524.31805.09375.634029.09375.96875v2 68 2c0 3.324-2.676 6-6 6z" fill="url(#c)" opacity=".15"/></g><g><path d="m47.6875 17c-1.693001.544059-2.292385 2.493177-3.457128 3.706115-2.334333 3.196107-4.85614 6.274995-7.074122 9.543885-.708051 1.506818.870079 3.124506 2.418063 2.75 5.98313-.04347 11.985449.08579 17.956937-.0625 1.708331-.394384 1.873476-2.708158.628049-3.735517-2.974478-3.895941-5.828973-7.911654-8.878049-11.733233-.457439-.371732-1.009758-.52042-1.59375-.46875zm-9.28125 18c-2.861622-.083882-4.83734 2.818735-4.40625 5.492376.021183 6.959128-.042138 13.931968.03125 20.882624.257962 1.614303 2.098933 1.791321 3.416919 1.625 7.640548-.02107 15.294748.041985 22.926831-.03125 1.614303-.257962 1.791321-2.098933 1.625-3.416919-.01527-6.864193.030559-13.729952-.022944-20.593166-.204239-2.783716-3.089118-4.348866-5.650454-3.958665-5.97345 0-11.946901 0-17.920352 0zm-8.65625 3c-1.710081.581733-2.955539 2.089094-4.476694 3.042751-2.948033 2.277425-6.03957 4.38932-8.898306 6.769749-.938801 1.263457.02084 2.835525 1.275151 3.432926 3.881139 2.842837 7.646658 5.870844 11.599849 8.598324 1.506818.708051 3.124506-.870079 2.75-2.418063-.042959-5.972079.085084-11.968535-.0625-17.925687-.23118-.970007-1.206422-1.614015-2.1875-1.5zm35.96875 0c-1.794104.233531-1.845933 2.259482-1.71875 3.66044.04366 5.621066-.08605 11.261394.0625 16.87081.394384 1.708331 2.708158 1.873476 3.735517.628049 3.924533-3.011118 7.991409-5.858111 11.826983-8.971799.938801-1.263457-.020839-2.835525-1.275151-3.432926-3.87995-2.842104-7.653441-5.875711-11.599849-8.598324-.324579-.180787-.675257-.160538-1.03125-.15625zm-23.625 7h11.90625v9.96875c-3.96875 0-7.9375 0-11.90625 0 0-3.322917 0-6.645833 0-9.96875zm-3.40625 20c-1.657532.209877-2.25699 2.448457-1.032896 3.539724 3.073498 4.010336 5.981404 8.164229 9.157896 12.085276 1.263457.938801 2.835525-.02084 3.432926-1.275151 2.842837-3.881139 5.870844-7.646658 8.598324-11.599849.708051-1.506818-.870079-3.124506-2.418063-2.75-5.912729 0-11.825458 0-17.738187 0z" opacity=".1"/><path d="m48.03125 17.96875a1.0184911 1.0184911 0 0 0 -.84375.40625l-9 12a1.0184911 1.0184911 0 0 0 .8125 1.65625h18a1.0184911 1.0184911 0 0 0 .8125-1.65625l-9-12a1.0184911 1.0184911 0 0 0 -.78125-.40625zm-9.625 18c-1.879363.000003-3.4375 1.558137-3.4375 3.4375v21.59375a1.0184911 1.0184911 0 0 0 1.03125 1.03125h24a1.0184911 1.0184911 0 0 0 1.03125-1.03125v-21.59375c0-1.879364-1.558136-3.4375-3.4375-3.4375zm-8.4375 3a1.0184911 1.0184911 0 0 0 -.59375.21875l-12 9a1.0184911 1.0184911 0 0 0 0 1.625l12 9a1.0184911 1.0184911 0 0 0 1.65625-.8125v-18a1.0184911 1.0184911 0 0 0 -1.0625-1.03125zm35.96875 0a1.0184911 1.0184911 0 0 0 -.96875 1.03125v18a1.0184911 1.0184911 0 0 0 1.65625.8125l12-9a1.0184911 1.0184911 0 0 0 0-1.625l-12-9a1.0184911 1.0184911 0 0 0 -.6875-.21875zm-16.9375 1c-.0074 0 .03125.03868.03125.03125 0-.0074-.03868.03125-.03125.03125.0074 0-.03125-.03868-.03125-.03125 0 .0074.03868-.03125.03125-.03125zm4 0c-.0074 0 .03125.03868.03125.03125 0-.0074-.03868.03125-.03125.03125.0074 0-.03125-.03868-.03125-.03125 0 .0074.03868-.03125.03125-.03125zm4 0c-.0074 0 .03125.03868.03125.03125 0-.0074-.03868.03125-.03125.03125.0074 0-.03125-.03868-.03125-.03125 0 .0074.03868-.03125.03125-.03125zm-15.875 4.0625h13.84375v11.90625h-13.84375zm-2.125 21.9375a1.0184911 1.0184911 0 0 0 -.8125 1.65625l9 12a1.0184911 1.0184911 0 0 0 1.625 0l9-12a1.0184911 1.0184911 0 0 0 -.8125-1.65625z" opacity=".15"/><path d="m48 19-9 12h18zm-9.59375 18c-1.329602.000002-2.40625 1.07665-2.40625 2.40625v21.59375h24v-21.59375c0-1.3296-1.07665-2.40625-2.40625-2.40625zm10.59375 2c.554 0 1 .446 1 1s-.446 1-1 1-1-.446-1-1 .446-1 1-1zm4 0c.554 0 1 .446 1 1s-.446 1-1 1-1-.446-1-1 .446-1 1-1zm4 0c.554 0 1 .446 1 1s-.446 1-1 1-1-.446-1-1 .446-1 1-1zm-27 1-12 9 12 9zm36 0v18l12-9zm-25.90625 3h15.90625v13.96875h-15.90625zm-1.09375 24 9 12 9-12z" opacity=".3"/><path d="m48 18-9 12h18zm-9.59375 18c-1.329602.000002-2.40625 1.07665-2.40625 2.40625v21.59375h24v-21.59375c0-1.3296-1.07665-2.40625-2.40625-2.40625zm10.59375 2c.554 0 1 .446 1 1s-.446 1-1 1-1-.446-1-1 .446-1 1-1zm4 0c.554 0 1 .446 1 1s-.446 1-1 1-1-.446-1-1 .446-1 1-1zm4 0c.554 0 1 .446 1 1s-.446 1-1 1-1-.446-1-1 .446-1 1-1zm-27 1-12 9 12 9zm36 0v18l12-9zm-25.90625 3h15.90625v13.96875h-15.90625zm-1.09375 24 9 12 9-12z" fill="url(#g)"/><path d="m-42 18-9 12h18zm-9.59375 18c-1.329602.000002-2.40625 1.07665-2.40625 2.40625v21.59375h24v-21.59375c0-1.3296-1.07665-2.40625-2.40625-2.40625zm10.59375 2c.554 0 1 .446 1 1s-.446 1-1 1-1-.446-1-1 .446-1 1-1zm4 0c.554 0 1 .446 1 1s-.446 1-1 1-1-.446-1-1 .446-1 1-1zm4 0c.554 0 1 .446 1 1s-.446 1-1 1-1-.446-1-1 .446-1 1-1zm-27 1-12 9 12 9zm36 0v18l12-9zm-25.90625 3h15.90625v13.96875h-15.90625zm-1.09375 24 9 12 9-12z"/><path d="m48 18-9 12h.75l8.25-11 8.25 11h.75zm-9.59375 18c-1.329602.000002-2.40625 1.07665-2.40625 2.40625v1c0-1.3296 1.076648-2.406248 2.40625-2.40625h19.1875c1.3296 0 2.40625 1.07665 2.40625 2.40625v-1c0-1.3296-1.07665-2.40625-2.40625-2.40625zm-8.40625 3-12 9 .65625.5 11.34375-8.5zm36 0v1l11.34375 8.5.65625-.5zm-17.84375.5c-.089426.149865-.15625.312099-.15625.5 0 .554.446 1 1 1s1-.446 1-1c0-.187901-.06682-.350135-.15625-.5-.174233.291991-.477651.5-.84375.5s-.669517-.208009-.84375-.5zm4 0c-.089426.149865-.15625.312099-.15625.5 0 .554.446 1 1 1s1-.446 1-1c0-.187901-.06682-.350135-.15625-.5-.174233.291991-.477651.5-.84375.5s-.669517-.208009-.84375-.5zm4 0c-.089426.149865-.15625.312099-.15625.5 0 .554.446 1 1 1s1-.446 1-1c0-.187901-.06682-.350135-.15625-.5-.174233.291991-.477651.5-.84375.5s-.669517-.208009-.84375-.5zm-16.0625 16.46875v1h15.90625v-1zm-1.09375 10.03125.75 1h16.5l.75-1z" fill="#fff" opacity=".75"/><path d="m39.75 29-.75 1h18l-.75-1zm9.25 8c-.554 0-1 .446-1 1 0 .187901.06682.350135.15625.5.174233-.291991.477651-.5.84375-.5s.669517.208009.84375.5c.089426-.149865.15625-.312099.15625-.5 0-.554-.446-1-1-1zm4 0c-.554 0-1 .446-1 1 0 .187901.06682.350135.15625.5.174233-.291991.477651-.5.84375-.5s.669517.208009.84375.5c.089426-.149865.15625-.312099.15625-.5 0-.554-.446-1-1-1zm4 0c-.554 0-1 .446-1 1 0 .187901.06682.350135.15625.5.174233-.291991.477651-.5.84375-.5s.669517.208009.84375.5c.089426-.149865.15625-.312099.15625-.5 0-.554-.446-1-1-1zm-16.90625 4v1h15.90625v-1zm-21.4375 6.5-.65625.5 12 9v-1zm58.6875 0-11.34375 8.5v1l12-9zm-41.34375 11.5v1h24v-1zm3 7 9 12 9-12h-.75l-8.25 11-8.25-11z" opacity=".15"/></g></svg>