<svg height="16" width="16" xmlns="http://www.w3.org/2000/svg"><path d="m6.0346439.456963c-1.4236033 0-2.8640143.5749259-3.9494135 1.662911-2.17079758 2.1759704-2.17079809 5.6882127 0 7.8641827 1.7185494 1.7226453 4.2680247 2.0788393 6.3398481 1.0739643.054521-.02644.1194082-.07559.1732199-.103932.3363183-.133139 1.1815124-.378525 1.6282666.06929.331369.33216.220613.773709.727524 1.281828l3.395109 3.395109c.0035-.0035.653835.664216 1.316472 0 .665196-.666781.0097-1.338905 0-1.351115l-3.360466-3.395109c-.506911-.50812-.915814-.395365-1.247183-.727524-.546303-.5476049-.03264-1.6623665 0-1.732199 1.002487-2.0767598.644583-4.6518518-1.0739639-6.374495-1.0853993-1.087985-2.5258097-1.662911-3.9494132-1.662911zm0 1.4204031c2.3024792-.0000001 4.1572781 1.8839564 4.1572781 4.1919215 0 2.3079648-1.8547987 4.1572774-4.1572781 4.1572774-2.3024792 0-4.1572774-1.8493124-4.1572774-4.1572774.0000007-2.307965 1.8547983-4.1919215 4.1572774-4.1919215z" fill="#bebebe"/></svg>