<svg height="96" width="96" xmlns="http://www.w3.org/2000/svg" xmlns:xlink="http://www.w3.org/1999/xlink"><linearGradient id="a"><stop offset="0" stop-color="#f0f0f0"/><stop offset="1" stop-color="#aaa"/></linearGradient><linearGradient id="b"><stop offset="0" stop-color="#fff"/><stop offset="1" stop-color="#fff" stop-opacity="0"/></linearGradient><linearGradient id="c" gradientUnits="userSpaceOnUse" x1="36.357143" x2="36.357143" xlink:href="#b" y1="6" y2="63.893143"/><radialGradient id="d" cx="48" cy="90.171875" gradientTransform="matrix(1.1573129 0 0 .99590774 -7.551021 .197132)" gradientUnits="userSpaceOnUse" r="42" xlink:href="#b"/><linearGradient id="e" gradientTransform="matrix(1.0058652 0 0 .994169 100 0)" gradientUnits="userSpaceOnUse" x1="45.447727" x2="45.447727" y1="92.539597" y2="7.01654"><stop offset="0"/><stop offset="1" stop-opacity=".588235"/></linearGradient><linearGradient id="f" gradientTransform="matrix(1.0238095 0 0 -1.0119048 -1.142857 98.071429)" gradientUnits="userSpaceOnUse" x1="32.251034" x2="32.251034" xlink:href="#e" y1="6.131708" y2="90.238609"/><linearGradient id="g" gradientTransform="matrix(1 0 0 -1 0 97)" gradientUnits="userSpaceOnUse" x1="32.251034" x2="32.251034" xlink:href="#e" y1="6.131708" y2="90.238609"/><linearGradient id="h" gradientUnits="userSpaceOnUse" x1="0" x2="16" xlink:href="#a" y1="112" y2="112"/><linearGradient id="i" gradientUnits="userSpaceOnUse" x1="-40" x2="-24" y1="112" y2="112"><stop offset="0" stop-color="#c80000"/><stop offset="1" stop-color="#f3604d"/></linearGradient><linearGradient id="j" gradientTransform="matrix(3.272827 0 0 3.2706392 11.508544 11.351683)" gradientUnits="userSpaceOnUse" x1="10.558969" x2="10.558969" xlink:href="#a" y1="3.014876" y2="19.285688"/><g fill="url(#f)"><path d="m12 3.96875c-5.5110902 0-10.03125 4.5201598-10.03125 10.03125v71c0 5.51109 4.5201597 10.03125 10.03125 10.03125h72c5.51109 0 10.03125-4.52016 10.03125-10.03125v-71c0-5.5110903-4.52016-10.03125-10.03125-10.03125zm0 2.03125h72c3.324 0 6 2.676 6 6v72c0 3.324-2.676 6-6 6h-72c-3.324 0-6-2.676-6-6v-72c0-3.324 2.676-6 6-6z" opacity=".08"/><path d="m12 4.96875c-4.9716329 0-9.03125 4.0596171-9.03125 9.03125v71c0 4.971633 4.059617 9.03125 9.03125 9.03125h72c4.971633 0 9.03125-4.059617 9.03125-9.03125v-71c0-4.971633-4.059617-9.03125-9.03125-9.03125zm0 1.03125h72c3.324 0 6 2.676 6 6v72c0 3.324-2.676 6-6 6h-72c-3.324 0-6-2.676-6-6v-72c0-3.324 2.676-6 6-6z" opacity=".1"/><path d="m11.1875 6.03125c-4.027518.4106511-7.1875 3.8351875-7.1875 7.96875v71c0 4.409133 3.590867 8 8 8h72c4.409133 0 8-3.590867 8-8v-71c0-4.1970618-3.258972-7.6460416-7.375-7.96875 3.032886.306167 5.375 2.8525 5.375 5.96875v72c0 3.324-2.676 6-6 6h-72c-3.324 0-6-2.676-6-6v-72c0-3.11625 2.342114-5.662583 5.375-5.96875-.06227.00488-.12563-.00631-.1875 0z" opacity=".2"/><path d="m6.4375 9.75c-.8994891 1.177446-1.4375 2.647277-1.4375 4.25v71c0 3.878 3.122 7 7 7h72c3.878 0 7-3.122 7-7v-71c0-1.602723-.538011-3.072554-1.4375-4.25.279316.694095.4375 1.453625.4375 2.25v72c0 3.324-2.676 6-6 6h-72c-3.324 0-6-2.676-6-6v-72c0-.796375.1581836-1.555905.4375-2.25z" opacity=".3"/></g><path d="m6 84v1c0 3.324 2.676 6 6 6h72c3.324 0 6-2.676 6-6v-1c0 3.324-2.676 6-6 6h-72c-3.324 0-6-2.676-6-6z" fill="url(#g)" opacity=".45"/><g><rect height="84" opacity=".6" rx="6" width="84" x="6" y="6"/><path d="m12 6c-3.324 0-6 2.676-6 6v2 68 2c0 .334721.04135.6507.09375.96875.0487.295596.09704.596915.1875.875.00988.03038.020892.0636.03125.09375.098865.287771.2348802.547452.375.8125.1445918.273507.3156161.535615.5.78125s.3737765.473472.59375.6875c.439947.428056.94291.814526 1.5 1.09375.278545.139612.5734731.246947.875.34375-.2562018-.100222-.4867109-.236272-.71875-.375-.00741-.0044-.023866.0045-.03125 0-.031933-.0193-.062293-.04251-.09375-.0625-.120395-.0767-.2310226-.163513-.34375-.25-.1061728-.0808-.2132809-.161112-.3125-.25-.1779299-.161433-.3474596-.345388-.5-.53125-.1075789-.130255-.2183939-.265285-.3125-.40625-.025089-.03838-.038446-.08587-.0625-.125-.064763-.103032-.1302275-.204517-.1875-.3125-.1010083-.194706-.2056748-.415701-.28125-.625-.00796-.02181-.023589-.04055-.03125-.0625-.0318251-.09195-.0358045-.186831-.0625-.28125-.0303323-.106618-.0703894-.203031-.09375-.3125-.0728786-.341512-.125-.698205-.125-1.0625v-2-68-2c0-2.781848 2.2181517-5 5-5h2 68 2c2.781848 0 5 2.218152 5 5v2 68 2c0 .364295-.05212.720988-.125 1.0625-.04415.206893-.08838.397658-.15625.59375-.0077.02195-.0233.04069-.03125.0625-.06274.173739-.138383.367449-.21875.53125-.04158.0828-.07904.169954-.125.25-.0546.09721-.126774.18835-.1875.28125-.09411.140965-.204921.275995-.3125.40625-.143174.17445-.303141.346998-.46875.5-.01117.0102-.01998.02115-.03125.03125-.138386.125556-.285091.234436-.4375.34375-.102571.07315-.204318.153364-.3125.21875-.0074.0045-.02384-.0044-.03125 0-.232039.138728-.462548.274778-.71875.375.301527-.0968.596455-.204138.875-.34375.55709-.279224 1.060053-.665694 1.5-1.09375.219973-.214028.409366-.441865.59375-.6875s.355408-.507743.5-.78125c.14012-.265048.276135-.524729.375-.8125.01041-.03078.02133-.06274.03125-.09375.09046-.278085.1388-.579404.1875-.875.0524-.31805.09375-.634029.09375-.96875v-2-68-2c0-3.324-2.676-6-6-6z" fill="url(#c)" opacity=".01"/><path d="m12 90c-3.324 0-6-2.676-6-6v-2-68-2c0-.334721.04135-.6507.09375-.96875.0487-.295596.09704-.596915.1875-.875.00988-.03038.020892-.0636.03125-.09375.098865-.287771.2348802-.547452.375-.8125.1445918-.273507.3156161-.535615.5-.78125s.3737765-.473472.59375-.6875c.439947-.428056.94291-.814526 1.5-1.09375.278545-.139612.5734731-.246947.875-.34375-.2562018.100222-.4867109.236272-.71875.375-.00741.0044-.023866-.0045-.03125 0-.031933.0193-.062293.04251-.09375.0625-.120395.0767-.2310226.163513-.34375.25-.1061728.0808-.2132809.161112-.3125.25-.1779299.161433-.3474596.345388-.5.53125-.1075789.130255-.2183939.265285-.3125.40625-.025089.03838-.038446.08587-.0625.125-.064763.103032-.1302275.204517-.1875.3125-.1010083.194706-.2056748.415701-.28125.625-.00796.02181-.023589.04055-.03125.0625-.0318251.09195-.0358045.186831-.0625.28125-.0303323.106618-.0703894.203031-.09375.3125-.0728786.341512-.125.698205-.125 1.0625v2 68 2c0 2.781848 2.2181517 5 5 5h2 68 2c2.781848 0 5-2.218152 5-5v-2-68-2c0-.364295-.05212-.720988-.125-1.0625-.04415-.206893-.08838-.397658-.15625-.59375-.0077-.02195-.0233-.04069-.03125-.0625-.06274-.173739-.138383-.367449-.21875-.53125-.04158-.0828-.07904-.169954-.125-.25-.0546-.09721-.126774-.18835-.1875-.28125-.09411-.140965-.204921-.275995-.3125-.40625-.143174-.17445-.303141-.346998-.46875-.5-.01117-.0102-.01998-.02115-.03125-.03125-.138386-.125556-.285091-.234436-.4375-.34375-.102571-.07315-.204318-.153364-.3125-.21875-.0074-.0045-.02384.0044-.03125 0-.232039-.138728-.462548-.274778-.71875-.375.301527.0968.596455.204138.875.34375.55709.279224 1.060053.665694 1.5 1.09375.219973.214028.409366.441865.59375.6875s.355408.507743.5.78125c.14012.265048.276135.524729.375.8125.01041.03078.02133.06274.03125.09375.09046.278085.1388.579404.1875.875.0524.31805.09375.634029.09375.96875v2 68 2c0 3.324-2.676 6-6 6z" fill="url(#d)" opacity=".15"/></g><g><path d="m40.9375 19.96875c-10.332965-.154708-19.980508 8.01306-21.508215 18.239007-1.768699 9.459717 3.602469 19.62221 12.41366 23.484953 6.156209 2.894854 13.527105 2.445613 19.524549-.62984 3.699853-2.023184 3.426863 3.120612 5.644614 4.603414 3.446624 3.395743 6.95445 6.931816 10.362892 10.239966 2.208415 2.249746 6.368213 1.89995 8.139744-.793369 1.95528-2.446423 1.01607-6.017712-1.267757-7.863808-3.526369-3.447738-6.919987-7.041145-10.537422-10.388994-2.119599-1.002125-4.924662-2.124893-3.272065-4.953829 3.206377-6.409202 3.214021-14.37371-.37525-20.637946-3.76224-6.82998-11.306536-11.350738-19.12475-11.299554zm0 9.375c6.940963-.204664 13.105767 6.247741 12.546147 13.177493-.16255 6.946861-6.938132 12.756261-13.829869 11.851437-6.928855-.515123-12.350477-7.584998-11.103644-14.410936.801444-5.977666 6.355731-10.737836 12.387366-10.617994zm-9.3125 7.46875c-1.596371.246388-2.007194 1.987716-1.8125 3.356319.08716 1.886685-.184762 3.82264.15625 5.674931.830011 1.923325 3.155175 1.211709 4.793917 1.34375 5.224209-.02076 10.454324.04157 15.674833-.03125 1.638188-.287565 1.913592-2.082471 1.75-3.456328-.08554-1.843139.182342-3.734824-.15625-5.543672-.830011-1.923325-3.155175-1.211709-4.793917-1.34375-5.204103 0-10.408265-.000001-15.612333 0z" opacity=".1"/><path d="m40.9375 21.0625c-5.316931 0-10.622829 2.122828-14.65625 6.15625-8.079248 8.079249-8.079249 21.202004 0 29.28125 6.396316 6.396315 15.906622 7.70342 23.625 3.96875.09505-.04599.326717-.135721.5625-.25.532664-.210366 1.49497-.54798 2.40625-.625s1.653363.09086 2.125.5625c.37127.37127.527384.798592.8125 1.59375s.715792 1.872041 1.75 2.90625l10.4375 10.34375a1.0939592 1.0939592 0 0 0 .09375.0625c.0081.0069.0036.01099.03125.03125.01308.01165.01512.01717.03125.03125.0086.0054.02132-.0061.03125 0 .08337.0723.196175.204342.34375.3125.310415.227505.744225.49204 1.3125.6875 1.136551.390919 2.889863.297635 4.3125-1.125 1.428806-1.428806 1.536949-3.18434 1.15625-4.34375-.19035-.579705-.457146-1.050109-.6875-1.375-.115177-.162445-.232709-.281808-.3125-.375-.03351-.03914-.07098-.0686-.09375-.09375a1.0939592 1.0939592 0 0 0 -.03125-.03125 1.0939592 1.0939592 0 0 0 -.03125-.0625l-10.34375-10.3125c-1.025202-1.025202-2.048478-1.464221-2.8125-1.75s-1.177455-.427456-1.5625-.8125c-.570439-.57044-.667672-1.648342-.46875-2.78125s.679601-2.201889.6875-2.21875c3.736869-7.722925 2.362408-17.231342-4.03125-23.625-4.035524-4.035525-9.370568-6.15625-14.6875-6.15625zm0 7.1875c7.535503 0 13.65625 6.092299 13.65625 13.625 0 7.532703-6.123548 13.65625-13.65625 13.65625-7.532703 0-13.625-6.120743-13.625-13.65625 0-7.535506 6.089494-13.625 13.625-13.625zm-9.03125 9.65625a1.0939592 1.0939592 0 0 0 -1 1.09375v6a1.0939592 1.0939592 0 0 0 1.09375 1.09375h18a1.0939592 1.0939592 0 0 0 1.09375-1.09375v-6a1.0939592 1.0939592 0 0 0 -1.09375-1.09375h-18a1.0939592 1.0939592 0 0 0 -.09375 0z" opacity=".15"/><path d="m40.9375 22.15625c-5.024844 0-10.043902 2.012651-13.875 5.84375-7.662194 7.662195-7.662195 20.056558 0 27.71875 6.065905 6.065904 15.062155 7.288446 22.375 3.75.192443-.09311.435065-.181495.625-.28125 1.187096-.468823 4.141857-1.389392 5.71875.1875 1.169626 1.169626.773272 2.710771 2.5625 4.5l10.4375 10.34375c.01242-.01244 2.254863 2.338884 4.59375 0 2.347919-2.34792.03413-4.675755 0-4.71875l-10.34375-10.3125c-1.789229-1.789229-3.205376-1.392879-4.375-2.5625-1.928265-1.928268-.115198-6.004099 0-6.25 3.538445-7.312846 2.253404-16.309096-3.8125-22.375-3.831098-3.831099-8.881405-5.84375-13.90625-5.84375zm0 5c8.126981 0 14.75 6.591766 14.75 14.71875 0 8.126985-6.623016 14.75-14.75 14.75-8.126985 0-14.71875-6.623015-14.71875-14.75 0-8.126984 6.591766-14.71875 14.71875-14.71875zm-8.9375 11.84375v6h18v-6z" opacity=".3"/><path d="m0 104h16v16h-16z" fill="url(#h)" transform="matrix(0 1 1 0 0 0)"/><text font-family="Liberation Sans" font-size="4" letter-spacing="0" word-spacing="0" x="104" y="48"><tspan x="104" y="48">Shadow opacity : 30, 15, 10, (8)</tspan></text><path d="m-40 104h16v16h-16z" fill="url(#i)" transform="rotate(-90)"/><text font-family="Liberation Sans" font-size="4" letter-spacing="0" word-spacing="0" x="124" y="32"><tspan x="124" y="32">Bevel opacity : 30 / 10</tspan></text><text font-family="Liberation Sans" font-size="4" letter-spacing="0" word-spacing="0" x="124" y="8"><tspan x="124" y="8">Bevel opacity : 75 / 15</tspan></text><path d="m40.9375 21.15625c-5.024844 0-10.043902 2.012651-13.875 5.84375-7.662194 7.662195-7.662195 20.056558 0 27.71875 6.065905 6.065904 15.062155 7.288446 22.375 3.75.192443-.09311.435065-.181495.625-.28125 1.187096-.468823 4.141857-1.389392 5.71875.1875 1.169626 1.169626.773272 2.710771 2.5625 4.5l10.4375 10.34375c.01242-.01244 2.254863 2.338884 4.59375 0 2.347919-2.34792.03413-4.675755 0-4.71875l-10.34375-10.3125c-1.789229-1.789229-3.205376-1.392879-4.375-2.5625-1.928265-1.928268-.115198-6.004099 0-6.25 3.538445-7.312846 2.253404-16.309096-3.8125-22.375-3.831098-3.831099-8.881405-5.84375-13.90625-5.84375zm0 5c8.126981 0 14.75 6.591766 14.75 14.71875 0 8.126985-6.623016 14.75-14.75 14.75-8.126985 0-14.71875-6.623015-14.71875-14.75 0-8.126984 6.591766-14.71875 14.71875-14.71875zm-8.9375 11.84375v6h18v-6z" fill="url(#j)"/><path d="m40.9375 21.15625c-5.024844 0-10.043902 2.012651-13.875 5.84375-3.95888 3.95888-5.850795 9.194979-5.71875 14.375.121568-4.848402 2.013345-9.669594 5.71875-13.375 3.831098-3.831099 8.850156-5.84375 13.875-5.84375 5.024845 0 10.075152 2.012651 13.90625 5.84375 3.704459 3.704459 5.62136 8.504359 5.75 13.34375.127475-5.17473-1.789493-10.383243-5.75-14.34375-3.831098-3.831099-8.881405-5.84375-13.90625-5.84375zm-8.9375 16.84375v1h18v-1zm-5.75 3.375c-.0057.168078-.03125.330541-.03125.5 0 8.126985 6.591765 14.75 14.71875 14.75 8.126984 0 14.75-6.623015 14.75-14.75 0-.169459-.02554-.331922-.03125-.5-.26826 7.893935-6.761225 14.25-14.71875 14.25-7.957526 0-14.42049-6.356065-14.6875-14.25zm31.5625 12.3125c-.07578 1.07246.07515 2.168899.84375 2.9375 1.169624 1.169621 2.585771.773271 4.375 2.5625l10.34375 10.3125c.02004.02524.81322.857787 1 2 .338175-1.647248-.974402-2.967754-1-3l-10.34375-10.3125c-1.789229-1.789229-3.205376-1.392879-4.375-2.5625-.527084-.527085-.764667-1.211575-.84375-1.9375z" fill="#fff" opacity=".75"/><path d="m40.9375 25.15625c-8.126984 0-14.71875 6.591766-14.71875 14.71875 0 .169459.02556.331895.03125.5.26701-7.892685 6.729975-14.21875 14.6875-14.21875 7.957522 0 14.45049 6.326065 14.71875 14.21875.0057-.168105.03125-.330541.03125-.5 0-8.126984-6.623019-14.71875-14.75-14.71875zm19.65625 15.1875c-.06777 2.750876-.709351 5.493055-1.9375 8.03125-.08371.178685-1.053981 2.382728-.84375 4.3125.11434-1.618131.774469-3.164614.84375-3.3125 1.37751-2.846877 2.019503-5.946331 1.9375-9.03125zm-39.25.03125c-.129816 5.177329 1.761961 10.386962 5.71875 14.34375 6.065905 6.065904 15.062155 7.288446 22.375 3.75.192443-.09311.435065-.181495.625-.28125 1.187096-.468823 4.141857-1.389392 5.71875.1875 1.169626 1.169626.773272 2.710771 2.5625 4.5l10.4375 10.34375c.01242-.01244 2.254863 2.338884 4.59375 0 .969324-.969325 1.13133-1.915632 1-2.71875-.112725.549083-.41302 1.13177-1 1.71875-2.338887 2.338884-4.58133-.01244-4.59375 0l-10.4375-10.34375c-1.789228-1.789229-1.392874-3.330374-2.5625-4.5-1.576893-1.576892-4.531654-.656323-5.71875-.1875-.189935.09976-.432557.18814-.625.28125-7.312845 3.538446-16.309095 2.315904-22.375-3.75-3.703315-3.703313-5.595229-8.498125-5.71875-13.34375zm10.65625 2.625v1h18v-1z" opacity=".15"/></g></svg>