<svg height="16" width="16" xmlns="http://www.w3.org/2000/svg"><g fill="#bebebe"><path d="m5.469 0c-.492 0-.796.228-1.032.469-.235.24-.437.559-.437 1.031v.5h-2v14h12v-14h-2v-.438a1.58 1.58 0 0 0 -.406-1 1.523 1.523 0 0 0 -1.156-.53v-.032h-.063zm.531 2h4v1.531c.23.132.426.296.625.469h1.375v10h-2.281a1.967 1.967 0 0 1 -.719.719c-.12.07-.241.142-.375.187-.031.01-.062.023-.094.031a2.03 2.03 0 0 1 -.125.032c-.13.027-.27.031-.406.031-.181 0-.364-.016-.531-.063-.032-.008-.063-.02-.094-.03-.132-.045-.256-.119-.375-.188a1.967 1.967 0 0 1 -.719-.719h-2.281v-10h1.313c.209-.184.442-.331.687-.469v-.531z" opacity=".35"/><path d="m8.152 4.006a2.992 2.992 0 0 0 -3.152 2.994h2c0-.407.24-.768.617-.924a.994.994 0 0 1 1.09.217.994.994 0 0 1 .217 1.09.994.994 0 0 1 -.924.617 1 1 0 0 0 -1 1v2h2v-1.18a2.998 2.998 0 0 0 1.771-1.672 3.006 3.006 0 0 0 -.65-3.27 3.001 3.001 0 0 0 -1.969-.872zm-.152 7.994a1 1 0 0 0 -1 1 1 1 0 0 0 1 1 1 1 0 0 0 1-1 1 1 0 0 0 -1-1z"/></g></svg>