<svg height="16" width="16" xmlns="http://www.w3.org/2000/svg"><path d="m5 6v7h3v-2l3-3v-2z" fill="#33d17a"/><g fill="#bebebe"><path d="m5.469.012c-.49 0-.796.215-1.032.455-.235.24-.437.556-.437 1.03v.503h-2v14h8v-2h-6v-10h2v-1.988h4v1.988h2v3h2v-5h-2v-.395l-.002-.027a1.622 1.622 0 0 0 -.416-1.014c-.236-.279-.62-.584-1.2-.552z"/><path d="m13 8v.0019531a1 1 0 0 0 -.042969 0 1 1 0 0 0 -.664062.2910157l-3.0000002 3.0000002a1 1 0 0 0 -.2929688.707031 1 1 0 0 0 0 .015625v.984375h1 2.103516l-.958985 1.404297a1 1 0 0 0 -.175781.564453v1h1a1 1 0 0 0 .699219-.285156l3.03125-2.96875a1 1 0 0 0 .298828-.714844h.001953v-1h-1-2.130859l.96289-1.4453125a1 1 0 0 0 .167969-.5546875 1 1 0 0 0 0-.0117188v-.9882812z"/></g></svg>