<svg height="16" width="16" xmlns="http://www.w3.org/2000/svg"><g fill="#bebebe" transform="translate(-80.99995 -297)"><path d="m89.000002 301.99999-1.000003.00001c-.265308.00003-.530582.0931-.718754.28124l-2.999999 3.00001-.281254.28125.000002.87499.281255.28126 3.000003 2.99999c.188182.18821.45347.28121.718754.28121l1.000001.00001.000003-1c.000038-.26531-.0931-.53059-.281208-.71877l-2.281257-2.28124 2.281247-2.28125c.18815-.18817.281244-.45345.281249-.71875l.000003-1z"/><path d="m93 301v2.5c0 .84027-.65973 1.5-1.5 1.5h-5.5v2h5.5c1.921152 0 3.5-1.57885 3.5-3.5v-2.5z"/></g></svg>