<svg height="16" width="16" xmlns="http://www.w3.org/2000/svg"><path d="m3.5 0c-.831 0-1.5.669-1.5 1.5v4.5h-.5c-.831 0-1.5.669-1.5 1.5v4c0 .831.669 1.5 1.5 1.5h.5v1.5c0 .831.669 1.5 1.5 1.5h4.484375c-.554006 0-.984375-.43038-.984375-.984375v-1.015625h-2.5c-.277 0-.5-.223-.5-.5v-.5-1h3v-4.015625c0-.553995.430369-.984375.984375-.984375h-3.984375v-1-3.5c0-.277.223-.5.5-.5h7c.277 0 .5.223.5.5v3.5 1h-4.015625l-.0058594.0058594h7.0312504c.5625 0 .990234.4272656.990234.9785156v-.484375c0-.830999-.669-1.5-1.5-1.5h-.46875-.03125v-4.5c0-.831-.669-1.5-1.5-1.5zm1.5 3v1h6.03125v-1zm0 2v1h4v-1z" fill="#bebebe"/><path d="m8.875 8c-.49245 0-.875.38256-.875.875v6.25c0 .49244.38255.875.875.875h6.25c.49245 0 .875-.38256.875-.875v-6.25c0-.49-.38-.87-.88-.87h-6.25zm2.125 1h2v4h-2zm0 5h2v1h-2z" fill="#ef2929"/></svg>