<svg height="16" width="16" xmlns="http://www.w3.org/2000/svg"><g fill="#bebebe"><path d="m-15.5 1c-.831 0-1.5.669-1.5 1.5v1.0625 3.46875h-.53125c-.831 0-1.5.669-1.5 1.5v3.03125c0 .831.669 1.5 1.5 1.5h.53125v.125.3125c0 .831.669 1.5 1.5 1.5h7c.831 0 1.5-.669 1.5-1.5v-.3125-.125h.53125c.831 0 1.5-.669 1.5-1.5v-3.0625c0-.8310001-.669-1.5-1.5-1.5h-.53125v-1.3125-3.1875c0-.831-.669-1.5-1.5-1.5zm1 2h5c.277 0 .5.223.5.5v4.5h-6v-4.5c0-.277.223-.5.5-.5zm.5 1v1h4.010835v-1zm0 2v1h3v-1zm7.5 3c.276-.0000002.5.224.5.5 0 .2759998-.224.5-.5.5-.276-.0000002-.5-.224-.5-.5 0-.2760002.224-.5.5-.5zm-8.5 3h6v.5c0 .277-.223.5-.5.5h-5c-.277 0-.5-.223-.5-.5z"/><path d="m3.5 0c-.831 0-1.5.669-1.5 1.5v4.5h-.5c-.831 0-1.5.669-1.5 1.5v4c0 .831.669 1.5 1.5 1.5h.5v1.5c0 .831.669 1.5 1.5 1.5h9c.831 0 1.5-.669 1.5-1.5v-1.5h.5c.831 0 1.5-.669 1.5-1.5v-4c0-.830999-.669-1.5-1.5-1.5h-.46875-.03125v-4.5c0-.831-.669-1.5-1.5-1.5zm1 2h7c.277 0 .5.223.5.5v3.5 1h-8v-1-3.5c0-.277.223-.5.5-.5zm.5 1v1h6.03125v-1zm0 2v1h4v-1zm6.5 4c.276 0 .5.224.5.5.000001.276-.224.5-.5.5s-.5-.224-.5-.5.224-.5.5-.5zm2 0c.276001 0 .5.224.5.5.000001.276-.224.5-.5.5-.275999 0-.5-.224-.5-.5.000001-.276.224-.5.5-.5zm-9.5 3h8v1 .5c0 .277-.223.5-.5.5h-7c-.277 0-.5-.223-.5-.5v-.5z"/></g></svg>