<svg height="16" width="16" xmlns="http://www.w3.org/2000/svg"><path d="m6.8571429.9999998c-2.1450109 0-3.9356648 1.6095488-4.4285715 3.7890625-1.3725143.2281875-2.4285714 1.52102-2.4285714 3.0859375 0 1.72589 1.2791864 3.1250002 2.8571429 3.1250002h10.2857141c1.577957 0 2.857143-1.3991102 2.857143-3.1250002 0-1.5101538-.983762-2.75548-2.285714-3.046875.000743-.0262 0-.051726 0-.078125 0-1.3807113-1.02335-2.5-2.285715-2.5-.434189 0-.832847.160705-1.178571.3906251-.836558-1.0123238-2.0470164-1.6406251-3.3928571-1.6406251z" fill="#e6e6e6" transform="matrix(.875 0 0 .89999998 1 1.1)"/><path d="m7.9999999 5.9999999c-2.2159999 0-3.9999999 1.784-3.9999999 4.0000001 0 2.216 1.784 4 3.9999999 4 2.2160001 0 4.0000001-1.784 4.0000001-4 0-2.2160001-1.784-4.0000001-4.0000001-4.0000001z" fill="#09f"/><path d="m5.6 7.9999999v4.0000001h1.6v-4.0000001zm3.2 0v4.0000001h1.6v-4.0000001z" fill="#fff" stroke-linecap="round"/></svg>