<svg height="16" width="16" xmlns="http://www.w3.org/2000/svg"><path d="m6.8571429.9999998c-2.1450109 0-3.9356648 1.6095488-4.4285715 3.7890625-1.3725143.2281875-2.4285714 1.52102-2.4285714 3.0859375 0 1.72589 1.2791864 3.1250002 2.8571429 3.1250002h10.2857141c1.577957 0 2.857143-1.3991102 2.857143-3.1250002 0-1.5101538-.983762-2.75548-2.285714-3.046875.000743-.0262 0-.051726 0-.078125 0-1.3807113-1.02335-2.5-2.285715-2.5-.434189 0-.832847.160705-1.178571.3906251-.836558-1.0123238-2.0470164-1.6406251-3.3928571-1.6406251z" fill="#e6e6e6" transform="matrix(.875 0 0 .89999998 1 1.1)"/><path d="m8.0000001 6.0000004a4 4 0 0 0 -4.0000001 3.9999996 4 4 0 0 0 4.0000001 4 4 4 0 0 0 3.9999999-4 4 4 0 0 0 -3.9999999-3.9999996z" fill="#bdc3c7"/><path d="m5.6 9.0000004v1.9999996h1.6v-1.9999996zm3.2 0v1.9999996h1.6v-1.9999996z" fill="#fff"/></svg>