<svg height="16" width="16" xmlns="http://www.w3.org/2000/svg"><path d="m6.8571429.9999998c-2.1450109 0-3.9356648 1.6095488-4.4285715 3.7890625-1.3725143.2281875-2.4285714 1.52102-2.4285714 3.0859375 0 1.72589 1.2791864 3.1250002 2.8571429 3.1250002h10.2857141c1.577957 0 2.857143-1.3991102 2.857143-3.1250002 0-1.5101538-.983762-2.75548-2.285714-3.046875.000743-.0262 0-.051726 0-.078125 0-1.3807113-1.02335-2.5-2.285715-2.5-.434189 0-.832847.160705-1.178571.3906251-.836558-1.0123238-2.0470164-1.6406251-3.3928571-1.6406251z" fill="#e6e6e6" transform="matrix(.875 0 0 .89999998 1 1.1)"/><path d="m8.0000001 6c-2.216 0-4.0000001 1.7840001-4.0000001 4 0 2.216 1.7840001 4 4.0000001 4 2.2159999 0 3.9999999-1.784 3.9999999-4 0-2.2159999-1.784-4-3.9999999-4z" fill="#09f"/><path d="m8.0507811 7.0039062a3.0000001 3.0000001 0 0 0 -2.1718749.875 3.0000001 3.0000001 0 0 0 -.3242187 3.8593748l.7246095-.724609a2.0000001 2.0000001 0 0 1 .3066406-2.4277344 2.0000001 2.0000001 0 0 1 2.4296875-.3085938l.7187501-.71875a3.0000001 3.0000001 0 0 0 -1.6835941-.5546876zm2.3945309 1.2578127-.7246088.7246093a2.0000001 2.0000001 0 0 1 -.306641 2.4277338 2.0000001 2.0000001 0 0 1 -2.4296872.308594l-.71875.71875a3.0000001 3.0000001 0 0 0 3.855469-.320312 3.0000001 3.0000001 0 0 0 .324218-3.8593751z" fill="#fff"/></svg>