<svg height="16" width="16" xmlns="http://www.w3.org/2000/svg"><path d="m7.5 19c-1.4497475 0-2.6874211.868797-3.21875 2.125-.247478-.082024-.5062534-.125-.78125-.125-1.3807119 0-2.5 1.119288-2.5 2.5s1.1192881 2.5 2.5 2.5h4 5.5c1.104569 0 2-.895431 2-2s-.895431-2-2-2h-.09375c.053642-.154319.09375-.327411.09375-.5 0-.828427-.671573-1.5-1.5-1.5-.445889 0-.850249.191152-1.125.5-.6320014-.910243-1.6829141-1.5-2.875-1.5z" fill="#f00"/><g fill="#e6e6e6"><path d="m7 1c-1.8768845 0-3.4437066 1.2876389-3.875 3.03125-1.20095.18255-2.125 1.216816-2.125 2.46875 0 1.380712 1.1192881 2.5 2.5 2.5h1.78125c.3460426-.5968956.9791457-1 1.71875-1s1.3727074.4031044 1.71875 1h3.78125c1.380712 0 2.5-1.119288 2.5-2.5 0-1.208123-.860792-2.204384-2-2.4375.00065-.020959 0-.041383 0-.0625 0-1.1045695-.895431-2-2-2-.379916 0-.728742.1285643-1.03125.3125-.7319883-.8098593-1.7911394-1.3125-2.96875-1.3125z"/><path d="m6 14a1 1 0 1 1 -2 0 1 1 0 1 1 2 0z" transform="matrix(1.371967 0 0 1.371967 -.859835 -5.207539)"/><path d="m6 14a1 1 0 1 1 -2 0 1 1 0 1 1 2 0z" transform="matrix(1.371967 0 0 1.371967 3.140165 -7.207539)"/><path d="m6 14a1 1 0 1 1 -2 0 1 1 0 1 1 2 0z" transform="matrix(1.371967 0 0 1.371967 .140165 -9.207539)"/></g><path d="m7-18c-1.8768845 0-3.4437066 1.287639-3.875 3.03125-1.20095.18255-2.125 1.216816-2.125 2.46875 0 1.380712 1.1192881 2.5 2.5 2.5h9c1.380712 0 2.5-1.119288 2.5-2.5 0-1.208123-.860792-2.204384-2-2.4375.00065-.02096 0-.04138 0-.0625 0-1.104569-.895431-2-2-2-.379916 0-.728742.128564-1.03125.3125-.7319883-.809859-1.7911394-1.3125-2.96875-1.3125z" fill="#6e6e6e"/></svg>