<svg height="16" width="16" xmlns="http://www.w3.org/2000/svg"><path d="m13.64695 34.761357-3.875788-2.92919-.6132957 3.418585-1.5400787-3.046416-2.5702352 3.789811.5192743-4.544191-3.7287847 1.97222 2.3297906-3.651013-4.1678326-.388522 3.7956645-1.764853-3.41518826-2.420385 4.16956836.369424-1.3252702-3.117278 3.0040631 1.718284.3885213-4.167832 1.7648531 3.795664 2.2705351-2.965639-.219574 3.720019 4.552957-2.57162-3.153963 4.250413 4.167833.388521-3.795665 1.764853 2.96564 2.420386-3.72002-.369425z" fill="#6e6e6e"/><path d="m13 13-3.2961081-2.313382-.3737649 4.009535-1.6978224-3.651502-2.3284571 3.285476.3553936-4.011204-3.6592412 1.681077 2.3133821-3.2961081-4.00953455-.3737649 3.65150175-1.6978224-3.28547634-2.3284571 4.01120444.3553936-1.6810774-3.6592412 3.2961082 2.3133821.3737649-4.00953455 1.6978224 3.65150175 2.3284566-3.28547634-.355393 4.01120444 3.659241-1.6810774-2.313382 3.2961082 4.009535.3737649-3.651502 1.6978224 3.285476 2.3284571-4.011204-.3553936z" fill="#6e6e6e" transform="matrix(1.0394804 0 0 1.0394804 -.315843 -19.276362)"/><path d="m13 13-2.837368-1.320831-.832505 3.016984-1.7968173-2.562557-2.2294622 2.196531-.274811-3.117648-3.0290366.787521 1.3208308-2.8373679-3.01698325-.8325051 2.56255695-1.7968173-2.19653154-2.2294622 3.11764814-.274811-.7875211-3.0290366 2.837368 1.3208308.8325051-3.01698325 1.7968173 2.56255695 2.2294617-2.19653154.274811 3.11764814 3.029037-.7875211-1.320831 2.837368 3.016984.8325051-2.562557 1.7968173 2.196531 2.2294622-3.117648.274811z" fill="#e6e6e6" transform="matrix(1.0394804 0 0 1.0394804 -.315843 .723638)"/></svg>