<svg height="16" width="16" xmlns="http://www.w3.org/2000/svg"><path d="m8 0c-3.3137085 0-6 2.6862915-6 6 0 1.1438667.3195015 2.2153428.875 3.125.9056111-1.3277363 2.4066982-2.21875 4.125-2.21875 1.2134213 0 2.2769603.5325507 3.15625 1.25.279794-.0941423.513135-.25.84375-.25.9059 0 1.667277.4367963 2.1875 1.09375.510532-.8825339.8125-1.9071134.8125-3 0-3.3137085-2.686292-6-6-6z" fill="#bebebe" opacity=".25"/><g fill="#e6e6e6"><path d="m8 0c-3.3137085 0-6 2.6862915-6 6 0 1.1757291.3531157 2.261702.9375 3.1875.7272352-1.0719573 1.8435931-1.8463787 3.15625-2.09375-.4136676-.7012082-.65625-1.5019319-.65625-2.375 0-2.2579004 1.5991213-4.1323825 3.71875-4.59375-.3745554-.0732084-.7602618-.125-1.15625-.125zm5.71875 7.78125c-.290066.337564-.624309.6320345-1 .875.143302.1261563.288094.2842857.40625.4375.247303-.4083667.449078-.8473644.59375-1.3125z"/><path d="m7 8c-1.8768845 0-3.4437066 1.2876389-3.875 3.03125-1.20095.18255-2.125 1.216816-2.125 2.46875 0 1.380712 1.1192881 2.5 2.5 2.5h9c1.380712 0 2.5-1.119288 2.5-2.5 0-1.208123-.860792-2.204384-2-2.4375.00065-.020959 0-.041383 0-.0625 0-1.1045695-.895431-2-2-2-.379916 0-.728742.1285643-1.03125.3125-.7319883-.8098593-1.7911394-1.3125-2.96875-1.3125z"/></g></svg>