<svg height="32" width="32" xmlns="http://www.w3.org/2000/svg" xmlns:xlink="http://www.w3.org/1999/xlink"><linearGradient id="a"><stop offset="0" stop-color="#ededed"/><stop offset="1" stop-color="#b0b0b0"/></linearGradient><linearGradient id="b"><stop offset="0" stop-color="#b4b4b4"/><stop offset=".20467032" stop-color="#646464"/><stop offset=".49567693" stop-color="#fff"/><stop offset="1" stop-color="#3c3c3c"/></linearGradient><linearGradient id="c"><stop offset="0" stop-color="#818181"/><stop offset=".2" stop-color="#f9f9f9"/><stop offset="1" stop-color="#dcdcdc" stop-opacity="0"/></linearGradient><linearGradient id="d"><stop offset="0" stop-color="#fff"/><stop offset="1" stop-color="#fff" stop-opacity="0"/></linearGradient><linearGradient id="e" gradientUnits="userSpaceOnUse" x1="19.035713" x2="87.5" xlink:href="#d" y1="74" y2="27.428572"/><linearGradient id="f" gradientUnits="userSpaceOnUse" x1="6" x2="24" xlink:href="#c" y1="73" y2="73"/><linearGradient id="g" gradientTransform="matrix(-1 0 0 1 96 0)" gradientUnits="userSpaceOnUse" x1="6" x2="24" xlink:href="#c" y1="73" y2="73"/><linearGradient id="h" gradientUnits="userSpaceOnUse" x1="38.748035" x2="38.748035" y1="65.59034" y2="5.833157"><stop offset="0" stop-color="#dcdcdc"/><stop offset="1" stop-color="#fafafa"/></linearGradient><radialGradient id="i" cx="90" cy="90" gradientTransform="matrix(0 -1.085034 2 0 -90 187.65306)" gradientUnits="userSpaceOnUse" r="42"><stop offset="0" stop-color="#b4b4b4"/><stop offset="1" stop-color="#dcdcdc"/></radialGradient><clipPath id="j"><path d="m66 6v55c0 1.662 1.338 3 3 3h6c1.662 0 3-1.338 3-3v-55h-4v2h-4v-2z"/></clipPath><filter id="k" color-interpolation-filters="sRGB" height="1.07322" width="1.332308" x="-.166154" y="-.03661"><feGaussianBlur stdDeviation=".9"/></filter><linearGradient id="l" gradientUnits="userSpaceOnUse" x1="68.75" x2="75.25" xlink:href="#b" y1="58" y2="58"/><linearGradient id="m" gradientUnits="userSpaceOnUse" x1="63.484772" x2="79" y1="64.163078" y2="65"><stop offset="0" stop-color="#a2a2a2"/><stop offset="1" stop-color="#fff"/></linearGradient><linearGradient id="n" gradientTransform="matrix(-1 0 0 1 144.03125 -2)" gradientUnits="userSpaceOnUse" x1="68.96875" x2="75.0625" xlink:href="#a" y1="17.5" y2="17.5"/><linearGradient id="o" gradientUnits="userSpaceOnUse" x1="68.02903" x2="75.97097" xlink:href="#a" y1="15.763245" y2="15.763245"/><linearGradient id="p" gradientTransform="matrix(1.1262691 0 0 1 -7.401969 -49.5)" gradientUnits="userSpaceOnUse" x1="68.75" x2="72.250572" xlink:href="#b" y1="59" y2="59"/><linearGradient id="q" gradientTransform="matrix(1.0058652 0 0 .994169 100 0)" gradientUnits="userSpaceOnUse" x1="45.447727" x2="45.447727" y1="92.539597" y2="7.01654"><stop offset="0"/><stop offset="1" stop-opacity=".588235"/></linearGradient><linearGradient id="r" gradientTransform="matrix(1.0238095 0 0 1.0119048 -1.142857 -98.071429)" gradientUnits="userSpaceOnUse" x1="32.251034" x2="32.251034" xlink:href="#q" y1="6.131708" y2="90.238609"/><linearGradient id="s" gradientTransform="translate(0 -97)" gradientUnits="userSpaceOnUse" x1="32.251034" x2="32.251034" xlink:href="#q" y1="6.131708" y2="90.238609"/><clipPath id="t"><path d="m48 102c-19.88225 0-36 16.11775-36 36s16.11775 36 36 36 36-16.11775 36-36-16.11775-36-36-36zm0 24c6.62742 0 12 5.37258 12 12s-5.37258 12-12 12-12-5.37258-12-12 5.37258-12 12-12z"/></clipPath><filter id="u" color-interpolation-filters="sRGB" height="1.36" width="1.36" x="-.18" y="-.18"><feGaussianBlur stdDeviation="5.2159999"/></filter><clipPath id="v"><path d="m48 32c-19.882251 0-36 16.117749-36 36s16.117749 36 36 36 36-16.117749 36-36-16.117749-36-36-36zm0 24c6.627417 0 12 5.372583 12 12s-5.372583 12-12 12-12-5.372583-12-12 5.372583-12 12-12z"/></clipPath><filter id="w" color-interpolation-filters="sRGB" height="1.341402" width="1.380742" x="-.190371" y="-.170701"><feGaussianBlur stdDeviation="4.9476562"/></filter><radialGradient id="x" cx="59.893993" cy="61.92226" gradientTransform="matrix(0 .06521973 -.0656209 0 16.326612 9.890189)" gradientUnits="userSpaceOnUse" r="33.71384"><stop offset="0" stop-opacity="0"/><stop offset=".85000002" stop-opacity="0"/><stop offset="1"/></radialGradient><linearGradient id="y" gradientTransform="matrix(0 .06521973 -.07834924 0 17.11478 9.890189)" gradientUnits="userSpaceOnUse" x1="26.180153" x2="93.607834" xlink:href="#d" y1="61.92226" y2="61.92226"/><linearGradient id="z" gradientTransform="matrix(0 .0377592 -.0453601 0 15.072016 11.534885)" gradientUnits="userSpaceOnUse" x1="25.220379" x2="94.567612" y1="61.92226" y2="61.92226"><stop offset="0" stop-color="#4d4d4d"/><stop offset="1" stop-color="#fff"/></linearGradient><linearGradient id="A" gradientUnits="userSpaceOnUse" x1="69" x2="73" y1="53" y2="53"><stop offset="0" stop-color="#fff"/><stop offset=".48973215" stop-color="#8c8c8c"/><stop offset=".50044644" stop-color="#cfcfcf"/><stop offset=".62276787" stop-color="#fff"/><stop offset=".81696427" stop-color="#c8c8c8"/><stop offset="1" stop-color="#505050"/></linearGradient><linearGradient id="B" gradientTransform="matrix(-1 0 0 1 144 -4)" gradientUnits="userSpaceOnUse" x1="69" x2="73" y1="54" y2="54"><stop offset="0" stop-color="#2f2f2f"/><stop offset=".43731192" stop-color="#fff"/><stop offset=".62138397" stop-color="#979797"/><stop offset=".7723214" stop-color="#505050"/><stop offset="1" stop-color="#e6e6e6"/></linearGradient><g transform="matrix(.32944406 0 0 .32944406 .351407 .192519)"><g><g fill="url(#r)"><path d="m12-95.03125c-5.5110903 0-10.03125 4.52016-10.03125 10.03125v71c0 5.5110902 4.5201598 10.03125 10.03125 10.03125h72c5.51109 0 10.03125-4.5201597 10.03125-10.03125v-71c0-5.51109-4.52016-10.03125-10.03125-10.03125z" opacity=".08" transform="scale(1 -1)"/><path d="m12-94.03125c-4.971633 0-9.03125 4.059617-9.03125 9.03125v71c0 4.9716329 4.0596171 9.03125 9.03125 9.03125h72c4.971633 0 9.03125-4.059617 9.03125-9.03125v-71c0-4.971633-4.059617-9.03125-9.03125-9.03125z" opacity=".1" transform="scale(1 -1)"/><path d="m12-93c-4.4091333 0-8 3.590867-8 8v71c0 4.4091333 3.5908667 8 8 8h72c4.409133 0 8-3.5908667 8-8v-71c0-4.409133-3.590867-8-8-8z" opacity=".2" transform="scale(1 -1)"/><rect height="85" opacity=".3" rx="7" transform="scale(1 -1)" width="86" x="5" y="-92"/></g><rect fill="url(#s)" height="84" opacity=".45" rx="6" transform="scale(1 -1)" width="84" x="6" y="-91"/></g><g><path d="m12 6c-3.324 0-6 2.676-6 6v72c0 3.324 2.676 6 6 6h72c3.324 0 6-2.676 6-6v-72c0-3.324-2.676-6-6-6h-9v3h-6v-3z" fill="url(#i)"/><path d="m6 56v28c0 3.324 2.676 6 6 6h12v-34z" fill="url(#f)"/><path d="m90 56v28c0 3.324-2.676 6-6 6h-12v-34z" fill="url(#g)"/><path d="m6 82v2c0 3.324 2.676 6 6 6h72c3.324 0 6-2.676 6-6v-2c0 3.324-2.676 6-6 6h-72c-3.324 0-6-2.676-6-6z" opacity=".15"/><path d="m6 78v2c0 3.324 2.676 6 6 6h72c3.324 0 6-2.676 6-6v-2c0 3.324-2.676 6-6 6h-72c-3.324 0-6-2.676-6-6z" fill="#fff" opacity=".8"/><path d="m6 76v2c0 3.324 2.676 6 6 6h72c3.324 0 6-2.676 6-6v-2c0 3.324-2.676 6-6 6h-72c-3.324 0-6-2.676-6-6z" opacity=".15"/><path d="m6 72v2c0 3.324 2.676 6 6 6h72c3.324 0 6-2.676 6-6v-2c0 3.324-2.676 6-6 6h-72c-3.324 0-6-2.676-6-6z" fill="#fff" opacity=".8"/><path d="m6 70v2c0 3.324 2.676 6 6 6h72c3.324 0 6-2.676 6-6v-2c0 3.324-2.676 6-6 6h-72c-3.324 0-6-2.676-6-6z" opacity=".15"/><path d="m12 6c-3.324 0-6 2.676-6 6v56c0 3.324 2.676 6 6 6h72c3.324 0 6-2.676 6-6v-56c0-3.324-2.676-6-6-6h-9v3h-6v-3z" fill="url(#h)"/><path d="m12 6c-3.324 0-6 2.676-6 6v56c0 3.324 2.676 6 6 6h72c3.324 0 6-2.676 6-6v-56c0-3.324-2.676-6-6-6h-9v2h9c2.245802 0 4 1.7541975 4 4v56c0 2.245802-1.754198 4-4 4h-72c-2.2458025 0-4-1.754198-4-4v-56c0-2.2458025 1.7541975-4 4-4h57v-2z" fill="url(#e)"/></g><g><path d="m66 6v55c0 1.662 1.338 3 3 3h6c1.662 0 3-1.338 3-3v-55h-4v2h-4v-2z" fill="#252525"/><path d="m70 8h4v49h-4z" fill="#4d4d4d"/><rect fill="url(#l)" height="4" rx="1" stroke="#000" stroke-linecap="square" stroke-opacity=".563636" stroke-width=".5" width="6" x="69" y="56"/><path d="m66 6v55c0 1.662 1.338 3 3 3h6c1.662 0 3-1.338 3-3v-55h-4v2h-4v-2z" style="fill:none;stroke:#000;stroke-width:2;stroke-linecap:square;clip-path:url(#j);filter:url(#k)"/><path id="C" d="m69.5 51c-.269774 0-.5.217964-.5.5v3c0 .282036.230229.5.5.5h1c.269774 0 .5-.217964.5-.5v-.5h1.5c.277 0 .5-.223.5-.5v-1c0-.277-.223-.5-.5-.5h-1.5v-.5c0-.282036-.230229-.5-.5-.5z" fill="url(#A)" stroke="#000" stroke-linecap="square" stroke-opacity=".563636" stroke-width=".5"/><use id="D" height="96" transform="translate(0 -6)" width="96" xlink:href="#C"/><use id="E" height="96" transform="translate(0 -6)" width="96" xlink:href="#D"/><use id="F" height="96" transform="translate(0 -6)" width="96" xlink:href="#E"/><use id="G" height="96" transform="translate(0 -6)" width="96" xlink:href="#F"/><use id="H" height="96" transform="translate(0 -6)" width="96" xlink:href="#G"/><use id="I" height="96" transform="translate(0 -6)" width="96" xlink:href="#H"/><use height="96" transform="translate(0 -6)" width="96" xlink:href="#I"/><path id="J" d="m74.5 48c.269774 0 .5.217964.5.5v3c0 .282036-.230229.5-.5.5h-1c-.269774 0-.5-.217964-.5-.5v-.5h-1.5c-.277 0-.5-.223-.5-.5v-1c0-.277.223-.5.5-.5h1.5v-.5c0-.282036.230229-.5.5-.5z" fill="url(#B)" stroke="#000" stroke-linecap="square" stroke-opacity=".563636" stroke-width=".5"/><use id="K" height="96" transform="translate(0 -6)" width="96" xlink:href="#J"/><use id="L" height="96" transform="translate(0 -6)" width="96" xlink:href="#K"/><use id="M" height="96" transform="translate(0 -6)" width="96" xlink:href="#L"/><use id="N" height="96" transform="translate(0 -6)" width="96" xlink:href="#M"/><use id="O" height="96" transform="translate(0 -6)" width="96" xlink:href="#N"/><use height="96" transform="translate(0 -6)" width="96" xlink:href="#O"/><path d="m65 6v55c0 2.202295 1.797705 4 4 4h6c2.202295 0 4-1.797705 4-4v-55h-1v55c0 1.662-1.338 3-3 3h-6c-1.662 0-3-1.338-3-3v-55z" fill="url(#m)"/><path d="m69.5 10.53125c-1.027701 0-1.96875.765203-1.96875 1.8125v10.8125c-.000005 1.047305.918081 1.84375 1.96875 1.84375h5c1.050668 0 1.96875-.796448 1.96875-1.84375v-10.8125c-.000003-1.047297-.941051-1.8125-1.96875-1.8125zm1.0625 9.0625h2.875v1.75h-2.875z" stroke="#000" stroke-linecap="square" stroke-opacity=".563636" stroke-width=".5" transform="translate(0 -2)"/><path d="m69.229249 9.021415c-.687139 0-1.229249.48237-1.229249 1.081548l-.0051 10.815488c.000022.599179.542134 1.081549 1.229271 1.081549h5.583221c.687139 0 1.229249-.48237 1.229249-1.081549l.0051-10.815488c0-.599178-.542112-1.081548-1.229249-1.081548h-5.583221zm.704303 7.949648h4.101324v3.118378h-4.101324z" fill="url(#o)"/><path d="m74.5625 9.96875c.277 0 .5.223.5.5v10.0625c0 .277-.223.5-.5.5h-5.09375c-.277 0-.499999-.223-.5-.5v-10.0625c0-.277.223001-.5.5-.5zm-.4375 6.96875h-4.125v3.125h4.125z" fill="url(#n)"/><rect fill="url(#p)" height="5" rx=".563135" ry=".5" stroke="#000" stroke-linecap="square" stroke-opacity=".563636" width="3.378807" x="70.3106" y="7.5"/><path d="m69.984634 16h4v1h-4z" opacity=".3"/></g></g><path d="m12.263216 9.2058236c-2.680388 0-4.8606495 2.1802624-4.8606495 4.8606474 0 2.680389 2.1802615 4.860651 4.8606495 4.860651s4.86065-2.180262 4.86065-4.860651c0-2.680385-2.180262-4.8606474-4.86065-4.8606474zm0 2.7003574c1.198007 0 2.160288.962281 2.160288 2.16029 0 1.198008-.962281 2.16029-2.160288 2.16029-1.198009 0-2.160288-.962282-2.160288-2.16029 0-1.198009.962279-2.16029 2.160288-2.16029z" opacity=".05"/><path d="m12.263216 9.7458926c-2.386189 0-4.3205775 1.9343874-4.3205775 4.3205784 0 2.38619 1.9343885 4.320578 4.3205775 4.320578s4.320578-1.934388 4.320578-4.320578c0-2.386191-1.934389-4.3205784-4.320578-4.3205784zm0 1.6202194c1.491368 0 2.700361 1.208992 2.700361 2.700359 0 1.491366-1.208993 2.700362-2.700361 2.700362s-2.700362-1.208996-2.700362-2.700362c0-1.491367 1.208994-2.700359 2.700362-2.700359z" opacity=".3"/><path d="m12.263216 9.4674176c-2.537673 0-4.599053 2.0613804-4.599053 4.5990534 0 2.537676 2.06138 4.599052 4.599053 4.599052 2.537674 0 4.599052-2.061376 4.599052-4.599052 0-2.537673-2.061378-4.5990534-4.599052-4.5990534zm0 2.1771674c1.339884 0 2.421886 1.082004 2.421886 2.421886 0 1.339884-1.082002 2.421885-2.421886 2.421885s-2.421887-1.082001-2.421887-2.421885c0-1.339882 1.082003-2.421886 2.421887-2.421886z" opacity=".1"/><path d="m12.263216 5.7181691c-4.4615025 0-8.0782635 3.6167645-8.0782635 8.0782659 0 4.461503 3.616761 8.078264 8.0782635 8.078264 4.461501 0 8.078263-3.616761 8.078263-8.078264 0-4.4615014-3.616762-8.0782659-8.078263-8.0782659zm0 5.3855139c1.487167 0 2.692755 1.205584 2.692755 2.692752 0 1.487167-1.205588 2.692754-2.692755 2.692754s-2.692755-1.205587-2.692755-2.692754c0-1.487168 1.205588-2.692752 2.692755-2.692752z" fill="#bbb1bf"/><path d="m12.263216 11.103683c-1.487167 0-2.692755 1.205584-2.692755 2.692752 0 1.487167 1.205588 2.692754 2.692755 2.692754s2.692755-1.205587 2.692755-2.692754c0-1.487168-1.205588-2.692752-2.692755-2.692752zm0 1.57077c.619654 0 1.121981.502326 1.121981 1.121982 0 .619653-.502327 1.121982-1.121981 1.121982-.619653 0-1.121981-.502329-1.121981-1.121982 0-.619656.502328-1.121982 1.121981-1.121982z" fill="#fff" opacity=".3"/><path d="m12.263216 15.030614a1.2341789 1.234179 0 1 1 0-2.468357 1.2341789 1.234179 0 0 1 0 2.468357z" fill="none" opacity=".6" stroke="url(#z)" stroke-linecap="round" stroke-width=".270036"/><path d="m12.263216 15.928198a2.131764 2.1317402 0 1 1 0-4.263478 2.131764 2.1317402 0 0 1 0 4.263478z" style="opacity:.5;fill-rule:evenodd;stroke-width:.270036;stroke-linecap:round;fill:url(#x);stroke:url(#y)"/><path clip-path="url(#v)" d="m57.3125 33.21875-9.3125 34.78125 31.1875-18c-4.773897-8.268632-12.65254-14.310099-21.875-16.78125zm-9.3125 34.78125-31.1875 18c4.773897 8.268632 12.65254 14.3101 21.875 16.78125z" fill="#fff" filter="url(#w)" opacity=".8" transform="matrix(.22439621 0 0 .22439621 1.492198 -1.462507)"/><g clip-path="url(#t)" filter="url(#u)" opacity=".6" transform="matrix(.22439621 0 0 .22439621 1.492198 -17.170242)"><path d="m60.947452 57.784124a20.708128 18.814091 0 0 1 -2.615496 2.905857l-14.642858-13.303571z" fill="#7137c8" transform="matrix(1.5055399 .86922388 -.95672979 1.6571045 27.560302 21.500167)"/><path d="m60.779363 58.010828a20.708128 18.814091 0 0 1 -3.384016 3.478847l-13.706249-14.103265z" fill="#0cf" transform="matrix(1.6792116 .4499434 -.49523981 1.8482599 -1.895609 30.759984)"/><path d="m62.72377 54.795738a20.708128 18.814091 0 0 1 -2.259683 3.622054l-16.774989-11.031382z" fill="#fc0" transform="matrix(1.7384478 0 -.00000006 1.9134595 -27.951218 47.328031)"/><path d="m61.622863 56.793455a20.708128 18.814091 0 0 1 -1.699251 2.272761l-16.234514-11.679806z" fill="#f00" transform="matrix(1.6792116 -.4499434 .4952397 1.84826 -48.830877 70.075223)"/><path d="m63.123303 53.883448a20.708128 18.814091 0 0 1 -2.370014 4.161918l-17.064191-10.658956z" fill="#0f0" transform="matrix(1.6792116 .4499434 -.49523981 1.8482599 -1.895609 30.759984)"/><path d="m60.947452 57.784124a20.708128 18.814091 0 0 1 -2.615496 2.905857l-14.642858-13.303571z" fill="#7137c8" transform="matrix(-1.5055399 -.86922388 .95672979 -1.6571045 68.439684 254.49984)"/><path d="m60.779363 58.010828a20.708128 18.814091 0 0 1 -3.384016 3.478847l-13.706249-14.103265z" fill="#0cf" transform="matrix(-1.6792116 -.4499434 .49523981 -1.8482599 97.895595 245.24003)"/><path d="m62.72377 54.795738a20.708128 18.814091 0 0 1 -2.259683 3.622054l-16.774989-11.031382z" fill="#fc0" transform="matrix(-1.7384478 0 .00000006 -1.9134595 123.9512 228.67198)"/><path d="m61.622863 56.793455a20.708128 18.814091 0 0 1 -1.699251 2.272761l-16.234514-11.679806z" fill="#f00" transform="matrix(-1.6792116 .4499434 -.4952397 -1.84826 144.83086 205.92479)"/><path d="m63.123303 53.883448a20.708128 18.814091 0 0 1 -2.370014 4.161918l-17.064191-10.658956z" fill="#0f0" transform="matrix(-1.6792116 -.4499434 .49523981 -1.8482599 97.895595 245.24003)"/></g><path d="m12.263216 10.54269c-1.796994 0-3.2537455 1.456753-3.2537455 3.253745 0 1.796993 1.4567515 3.253745 3.2537455 3.253745s3.253746-1.456752 3.253746-3.253745c0-1.796992-1.456752-3.253745-3.253746-3.253745zm0 .560993c1.487167 0 2.692755 1.205584 2.692755 2.692752 0 1.487167-1.205588 2.692754-2.692755 2.692754s-2.692755-1.205587-2.692755-2.692754c0-1.487168 1.205588-2.692752 2.692755-2.692752z" opacity=".2"/><path d="m4.1621329 13.931453c-.00092.04546 0 .08938 0 .135018 0 4.474106 3.6269781 8.101084 8.1010831 8.101084 4.474104 0 8.101084-3.626978 8.101084-8.101084 0-.04564.001-.08956 0-.135018-.07295 4.411077-3.672613 7.966065-8.101084 7.966065-4.4284695 0-8.0281359-3.554988-8.1010831-7.966065z" fill="#fff" opacity=".6"/><path d="m12.263216 5.6953516c-4.474105 0-8.1010831 3.626978-8.1010831 8.1010834 0 4.474105 3.6269781 8.101083 8.1010831 8.101083 4.474104 0 8.101084-3.626978 8.101084-8.101083 0-4.4741054-3.62698-8.1010834-8.101084-8.1010834zm0 .8101095c4.026694 0 7.290976 3.2642775 7.290976 7.2909739 0 4.026694-3.264282 7.290976-7.290976 7.290976-4.0266945 0-7.2909752-3.264282-7.2909752-7.290976 0-4.0266964 3.2642807-7.2909739 7.2909752-7.2909739z" opacity=".05"/><path d="m12.263216 5.6953516c-4.474105 0-8.1010831 3.626978-8.1010831 8.1010834 0 4.474105 3.6269781 8.101083 8.1010831 8.101083 4.474104 0 8.101084-3.626978 8.101084-8.101083 0-4.4741054-3.62698-8.1010834-8.101084-8.1010834zm0 .548509c4.177292 0 7.552572 3.375284 7.552572 7.5525744 0 4.17729-3.37528 7.552573-7.552572 7.552573-4.1772915 0-7.5525736-3.375283-7.5525736-7.552573 0-4.1772904 3.3752821-7.5525744 7.5525736-7.5525744z" opacity=".1"/><path d="m12.263216 5.6953516c-4.474105 0-8.1010831 3.6269775-8.1010831 8.1010834 0 4.474106 3.6269781 8.101083 8.1010831 8.101083 4.474104 0 8.101084-3.626977 8.101084-8.101083 0-4.4741059-3.62698-8.1010834-8.101084-8.1010834zm0 .270037c4.324969 0 7.831047 3.5060775 7.831047 7.8310464 0 4.32497-3.506078 7.831047-7.831047 7.831047-4.324967 0-7.8310477-3.506077-7.8310477-7.831047 0-4.3249689 3.5060807-7.8310464 7.8310477-7.8310464z" opacity=".15"/><path d="m12.263216 5.6953516c-4.474105 0-8.1010831 3.626978-8.1010831 8.1010834 0 .04563-.00092.08956 0 .135018.072947-4.4110764 3.6726136-7.9660644 8.1010831-7.9660644 4.428471 0 8.028135 3.554988 8.101084 7.9660644.001-.04545 0-.08938 0-.135018 0-4.4741054-3.62698-8.1010834-8.101084-8.1010834z" opacity=".2"/></svg>