<svg height="32" width="32" xmlns="http://www.w3.org/2000/svg" xmlns:xlink="http://www.w3.org/1999/xlink"><linearGradient id="a"><stop offset="0" stop-color="#824b00"/><stop offset=".2" stop-color="#aa630a"/><stop offset="1" stop-color="#a0620c" stop-opacity="0"/></linearGradient><linearGradient id="b" gradientUnits="userSpaceOnUse" x1="49.012047" x2="48.792694" y1="34.128567" y2="8.511468"><stop offset="0" stop-color="#fff"/><stop offset="1" stop-color="#fff" stop-opacity="0"/></linearGradient><linearGradient id="c" gradientUnits="userSpaceOnUse" x1="6" x2="24" xlink:href="#a" y1="73" y2="73"/><linearGradient id="d" gradientTransform="matrix(-1 0 0 1 96 0)" gradientUnits="userSpaceOnUse" x1="6" x2="24" xlink:href="#a" y1="73" y2="73"/><linearGradient id="e" gradientUnits="userSpaceOnUse" x1="38.748035" x2="38.748035" y1="72.409348" y2="5.833157"><stop offset="0" stop-color="#cd9450"/><stop offset="1" stop-color="#eaaa69"/></linearGradient><radialGradient id="f" cx="90" cy="90" gradientTransform="matrix(0 -1.085034 2 0 -90 187.65306)" gradientUnits="userSpaceOnUse" r="42"><stop offset="0" stop-color="#eaaa69"/><stop offset="1" stop-color="#bb8044"/></radialGradient><linearGradient id="g" gradientTransform="matrix(1.0058652 0 0 .994169 100 0)" gradientUnits="userSpaceOnUse" x1="45.447727" x2="45.447727" y1="92.539597" y2="7.01654"><stop offset="0"/><stop offset="1" stop-opacity=".588235"/></linearGradient><linearGradient id="h" gradientTransform="matrix(1.0238095 0 0 1.0119048 -1.142857 -98.071429)" gradientUnits="userSpaceOnUse" x1="32.251034" x2="32.251034" xlink:href="#g" y1="6.131708" y2="90.238609"/><linearGradient id="i" gradientTransform="translate(0 -97)" gradientUnits="userSpaceOnUse" x1="32.251034" x2="32.251034" xlink:href="#g" y1="6.131708" y2="90.238609"/><linearGradient id="j" gradientUnits="userSpaceOnUse" x1="16.59226403792" x2="16.6122585068" y1="17.61022487617" y2="2.31630934265"><stop offset="0" stop-color="#d3904f"/><stop offset="1" stop-color="#e7af6d"/></linearGradient><g transform="matrix(.32944406 0 0 .32944406 .351407 .192519)"><g fill="url(#h)"><path d="m12-95.03125c-5.5110903 0-10.03125 4.52016-10.03125 10.03125v71c0 5.5110902 4.5201598 10.03125 10.03125 10.03125h72c5.51109 0 10.03125-4.5201597 10.03125-10.03125v-71c0-5.51109-4.52016-10.03125-10.03125-10.03125z" opacity=".08" transform="scale(1 -1)"/><path d="m12-94.03125c-4.971633 0-9.03125 4.059617-9.03125 9.03125v71c0 4.9716329 4.0596171 9.03125 9.03125 9.03125h72c4.971633 0 9.03125-4.059617 9.03125-9.03125v-71c0-4.971633-4.059617-9.03125-9.03125-9.03125z" opacity=".1" transform="scale(1 -1)"/><path d="m12-93c-4.4091333 0-8 3.590867-8 8v71c0 4.4091333 3.5908667 8 8 8h72c4.409133 0 8-3.5908667 8-8v-71c0-4.409133-3.590867-8-8-8z" opacity=".2" transform="scale(1 -1)"/><rect height="85" opacity=".3" rx="7" transform="scale(1 -1)" width="86" x="5" y="-92"/></g><rect fill="url(#i)" height="84" opacity=".45" rx="6" transform="scale(1 -1)" width="84" x="6" y="-91"/></g><g transform="matrix(.32944406 0 0 .32944406 .351407 .192519)"><path d="m12 6c-3.324 0-6 2.676-6 6v72c0 3.324 2.676 6 6 6h72c3.324 0 6-2.676 6-6v-72c0-3.324-2.676-6-6-6h-9v3h-6v-3z" fill="url(#f)"/><path d="m6 56v28c0 3.324 2.676 6 6 6h12v-34z" fill="url(#c)"/><path d="m90 56v28c0 3.324-2.676 6-6 6h-12v-34z" fill="url(#d)"/><path d="m6 82.000001v2c0 3.324 2.676 6.000003 6 6.000003h72c3.324 0 6-2.676003 6-6.000003v-2c0 3.324-2.676 6.000003-6 6.000003h-72c-3.324 0-6-2.676003-6-6.000003z" fill="#502d16" opacity=".3"/><path d="m6 77.999998v2c0 3.324003 2.676 6.000003 6 6.000003h72c3.324 0 6-2.676 6-6.000003v-2c0 3.324-2.676 6.000003-6 6.000003h-72c-3.324 0-6-2.676003-6-6.000003z" fill="#fff" opacity=".3"/><path d="m6 75.999998v2c0 3.324 2.676 6.000003 6 6.000003h72c3.324 0 6-2.676003 6-6.000003v-2c0 3.324-2.676 6.000003-6 6.000003h-72c-3.324 0-6-2.676003-6-6.000003z" fill="#502d16" opacity=".3"/><path d="m6 72.000005v2c0 3.323993 2.676 5.999993 6 5.999993h72c3.324 0 6-2.676 6-5.999993v-2c0 3.324-2.676 5.999993-6 5.999993h-72c-3.324 0-6-2.675993-6-5.999993z" fill="#fff" opacity=".3"/><path d="m6 70.000005v2c0 3.324 2.676 5.999993 6 5.999993h72c3.324 0 6-2.675993 6-5.999993v-2c0 3.324-2.676 5.999993-6 5.999993h-72c-3.324 0-6-2.675993-6-5.999993z" fill="#502d16" opacity=".3"/><path d="m12 6c-3.3240004 0-6.0000004 2.676-6.0000004 6v56c0 3.324 2.676 6 6.0000004 6h72.000001c3.324 0 6.000003-2.676 6.000003-6v-56c0-3.324-2.676003-6-6.000003-6z" fill="url(#e)"/><path d="m12 6c-3.324 0-6 2.676-6 6v56c0 3.324 2.676 6 6 6h72c3.324 0 6-2.676 6-6v-56c0-3.324-2.676-6-6-6h-9v2h9c2.245802 0 4 1.7541975 4 4v56c0 2.245802-1.754198 4-4 4h-72c-2.2458025 0-4-1.754198-4-4v-56c0-2.2458025 1.7541975-4 4-4h57v-2z" fill="url(#b)" opacity=".4"/></g><g fill-rule="evenodd"><path d="m47.918547 34.724702 42.373651 37.689883v3.494516l-84.3500036.01002v-3.504533z" fill="#ebc18f" transform="matrix(.31264966 0 0 .31264966 1.07017468381 -2.44070367922)"/><path d="m47.918547 36.122469 42.526693 37.815935c-.007 6.129314.04653 8.428827-7.51418 8.375204-14.698005 0-54.976735.0021-69.67474.0021-5.9141702.0022-7.4296333-.18446-7.4809303-8.377306z" fill="#dc9e5e" transform="matrix(.31264966 0 0 .31264966 1.12232589769 -1.82299924477)"/></g><g transform="matrix(1.00777853276 0 0 1.00777853276 -.01810902206 -.01650110972)"><path d="m4.8085938 2.1933515c-1.3790459 0-2.4804688 1.1229076-2.4804688 2.5019531v1.6464923l13.722656 12.8242191 13.720703-12.7949222v-1.6484454c0-1.3790455-1.101423-2.5019531-2.480468-2.5019531-7.494122-.0291445-14.988263-.0273438-22.4824222-.0273438z" fill="#9d652f"/><path d="m4.7910156 2.1213516c-1.3790458 0-2.4628906 1.1229072-2.4628906 2.5019531v.6247422l13.722656 12.8515621 13.720703-12.8242184v-.6247422c0-1.3790458-1.081891-2.5019531-2.460937-2.5019531-7.506492-.0291419-15.013003-.0273437-22.5195314-.0273437z" fill="url(#j)"/></g></svg>