<svg height="32" width="32" xmlns="http://www.w3.org/2000/svg" xmlns:xlink="http://www.w3.org/1999/xlink"><linearGradient id="a" gradientTransform="matrix(1.1538423 0 0 1.1746103 -5.728901 4.720793)" gradientUnits="userSpaceOnUse" x1="32.891998" x2="36.358002" y1="8.059" y2="5.4565"><stop offset="0" stop-color="#ddecff"/><stop offset="1" stop-color="#bfd3e6"/></linearGradient><radialGradient id="b" cx="48" cy="90.171875" gradientTransform="matrix(.49599117 0 0 .42857136 .192419 4.354916)" gradientUnits="userSpaceOnUse" r="42" xlink:href="#c"/><linearGradient id="c"><stop offset="0" stop-color="#fff"/><stop offset="1" stop-color="#fff" stop-opacity="0"/></linearGradient><linearGradient id="d" gradientTransform="matrix(0 -.54642861 .42857142 0 3.428572 46.278573)" gradientUnits="userSpaceOnUse" x1="7.3709" x2="23.76619" y1="51.470146" y2="51.433136"><stop offset="0" stop-color="#637381"/><stop offset="1" stop-color="#6a7e8d"/></linearGradient><linearGradient id="e" gradientUnits="userSpaceOnUse" x1="248.07678816" x2="248.07678816" y1="-62.6598922" y2="-98.66515562275"><stop offset="0" stop-color="#a8bece"/><stop offset="1" stop-color="#cddfed"/></linearGradient><linearGradient id="f" gradientTransform="matrix(.4285717 0 0 .43033246 227.50536 -101.24189)" gradientUnits="userSpaceOnUse" x1="36.357143" x2="36.357143" xlink:href="#c" y1="6" y2="63.893143"/><linearGradient id="g" gradientTransform="matrix(1.0058652 0 0 .994169 100 0)" gradientUnits="userSpaceOnUse" x1="45.447727" x2="45.447727" y1="92.539597" y2="7.01654"><stop offset="0"/><stop offset="1" stop-opacity=".588235"/></linearGradient><linearGradient id="h" gradientTransform="matrix(.90932204 0 0 -.90907903 8.945106 90.567956)" gradientUnits="userSpaceOnUse" x1="32.251034" x2="32.251034" xlink:href="#g" y1="6.131708" y2="90.238609"/><linearGradient id="i" gradientTransform="matrix(.88394566 0 0 -.88394572 10.163169 89.361561)" gradientUnits="userSpaceOnUse" x1="32.251034" x2="32.251034" xlink:href="#g" y1="6.131708" y2="90.238609"/><g transform="matrix(.7 0 0 .7 -.8 -1.5)"><g transform="matrix(.51177463 0 0 .51177463 -2.915536 .981307)"><path d="m20.618253 86.01187c-3.916074 0-7.105399-3.225978-7.105399-7.187076v-63.785252c0-3.961099 3.189325-7.1870759 7.105399-7.1870759h41.230022l29.823983 29.8239829v41.148345c0 3.961098-3.189315 7.187076-7.1054 7.187076z" fill="url(#h)" opacity=".2"/><path d="m21.510559 84.057885h62.16399c3.34823 0 6.04372-2.727212 6.04372-6.114824v-39.038079l-29.09854-29.0985314h-39.10917c-3.34822 0-6.04372 2.7272114-6.04372 6.1148244v62.021786c0 3.387612 2.6955 6.114824 6.04372 6.114824z" fill="url(#i)" opacity=".3"/></g><g transform="translate(-224.07679 105.6599)"><path d="m232.64822-98.6599h19.54285l13.88572 13.885715v19.542857c0 1.424571-1.14685 2.571428-2.57143 2.571428h-30.85714c-1.42458 0-2.57143-1.146857-2.57143-2.571428v-30.857144c0-1.424571 1.14685-2.571428 2.57143-2.571428z" fill="url(#e)"/><path d="m232.64822-98.6599c-1.42457 0-2.57143 1.151568-2.57143 2.581998v.860662 28.234034c1.98322 4.185183.51348 2.977317.42857.430332v-28.09486-.860668c0-1.197119.95064-2.151664 2.14286-2.151664h.85715 17.82858.85715l13.45714 13.326778v.860667 16.919747c-1.2063 3.165148.42855 3.584963.42855-.430333v-16.919747-.860668l-13.88571-13.896278z" fill="url(#f)" opacity=".3"/></g><g transform="matrix(.49581913 0 0 .49581913 4.398899 -.169801)"><path d="m15.358715 34.353155 18.602071-12v16.33729l-18.602071 12z" fill="#9a6820"/><path d="m15.358715 34.353155 18.602071 12v16.33729l-18.602071-12z" fill="#d09f5f"/><path d="m33.960786 22.353155 18.602071 12v16.33729l-18.602071-12z" fill="#d09f5f"/><path d="m33.960786 46.353155 18.602071-12v16.33729l-18.602071 12z" fill="#9a6820"/></g><path d="m23.095 7.0007336c3.179734 0 1.245573 14.2927244 1.245573 14.2927244s17.662844-1.870813 17.662844 3.984542c0-1.426319-.003417-4.392285-.003417-4.392285l-13.88572-13.885715z" fill-rule="evenodd" opacity=".2" stroke-width=".955713"/><path d="m6 39.721429c0 1.816327 1.146857 3.278571 2.571429 3.278571h30.857142c1.424572 0 2.571429-1.462244 2.571429-3.278571v-6.15h-36z" fill="url(#d)"/><path d="m8.5714282 43c-1.4245712 0-2.5714282-1.151569-2.5714282-2.581994v-.999812c.017537-5.232461.4285697-5.344044.4285697-.430358v.860665c0 1.197119.9506364 2.151662 2.1428585 2.151662h.8571448 29.142844.857145c1.192222 0 2.142858-.954543 2.142858-2.151662v-.860665c.04207-5.833454.42858-3.83731.42858.430333v.999812c-.00001 1.43045-1.146867 2.582019-2.571438 2.582019z" fill="url(#b)" opacity=".2"/><g fill-rule="evenodd"><path d="m24.277 7c3.0062 0 1.165566 13.240168 1.165566 13.240168s5.861339-.69769 10.60943-.09698c3.232358.408943 5.948783 1.419626 5.948783 3.661816 0-1.348482-.000779-2.919289-.000779-2.919289l-13.88572-13.885715z" opacity=".2" stroke-width=".903555"/><path d="m25.695529 7.0086975c2.832447 0 1.020233 12.2306245 1.020233 12.2306245s15.288338-1.878262 15.288338 3.337578c0-1.270538-.0041-1.691185-.0041-1.691185l-13.88572-13.885715z" fill="url(#a)" stroke-width=".851331"/></g></g><path d="m3.4000001 22h25.1999999v1h-25.1999999z" opacity=".3"/><g fill="#fff"><path d="m3.4000001 21h25.1999999v1h-25.1999999z" opacity=".1"/><g transform="matrix(.38748738 0 0 .38748738 -2.537235 -4.429869)"><path d="m26.664062 71.096354v1.529948h-1.289062q-.494792 0-.690104.182292-.195313.175781-.195313.61849v.507812h1.992188v1.666667h-1.992188v5.624999h-2.330729v-5.624999h-1.158854v-1.666667h1.158854v-.507812q0-1.191407.664063-1.757813.664062-.572917 2.057291-.572917z"/><path d="m27.673177 71.096354h2.330729v10.130208h-2.330729z"/><path d="m35.524739 77.945313q-.729166 0-1.10026.247395-.364583.247396-.364583.729167 0 .442708.292969.696615.299479.247395.826822.247395.657552 0 1.106771-.46875.449219-.47526.449219-1.184895v-.266927zm3.561198-.878907v4.160156h-2.35026v-1.080729q-.46875.664063-1.054688.970052-.585937.29948-1.425781.29948-1.132812 0-1.842448-.657552-.703125-.664063-.703125-1.71875 0-1.282553.878907-1.881511.885416-.598958 2.773437-.598958h1.373698v-.182292q0-.553385-.436198-.807291-.436198-.260417-1.360677-.260417-.748698 0-1.393229.149739-.644531.14974-1.197917.449219v-1.777343q.748698-.182292 1.503906-.273438.755209-.09766 1.510417-.09766 1.972656 0 2.845052.78125.878906.774739.878906 2.526041z"/><path d="m43.812499 71.864584v2.070312h2.402344v1.666667h-2.402344v3.092447q0 .507813.201823.690105.201823.175781.800781.175781h1.197917v1.666666h-1.998698q-1.380208 0-1.959635-.572916-.572917-.579427-.572917-1.959636v-3.092447h-1.158854v-1.666667h1.158854v-2.070312z"/><path d="m49.977863 80.171875v3.828125h-2.33073v-10.065104h2.33073v1.067708q.48177-.638021 1.067708-.9375.585937-.305989 1.347656-.305989 1.347656 0 2.213542 1.074218.865885 1.067709.865885 2.753907 0 1.686198-.865885 2.760416-.865886 1.067709-2.213542 1.067709-.761719 0-1.347656-.29948-.585938-.305989-1.067708-.94401zm1.549479-4.720052q-.748698 0-1.152344.553385-.397135.546875-.397135 1.582032 0 1.035156.397135 1.588541.403646.546875 1.152344.546875.748698 0 1.139323-.546875.397135-.546875.397135-1.588541 0-1.041667-.397135-1.588542-.390625-.546875-1.139323-.546875z"/><path d="m60.472654 77.945313q-.729167 0-1.100261.247395-.364583.247396-.364583.729167 0 .442708.292969.696615.299479.247395.826823.247395.657552 0 1.10677-.46875.449219-.47526.449219-1.184895v-.266927zm3.561197-.878907v4.160156h-2.35026v-1.080729q-.46875.664063-1.054687.970052-.585938.29948-1.425782.29948-1.132812 0-1.842447-.657552-.703125-.664063-.703125-1.71875 0-1.282553.878906-1.881511.885416-.598958 2.773437-.598958h1.373698v-.182292q0-.553385-.436198-.807291-.436198-.260417-1.360677-.260417-.748698 0-1.393229.149739-.644531.14974-1.197917.449219v-1.777343q.748698-.182292 1.503907-.273438.755208-.09766 1.510416-.09766 1.972656 0 2.845052.78125.878906.774739.878906 2.526041z"/><path d="m66.214842 71.096354h2.33073v5.514323l2.682291-2.675781h2.708333l-3.561197 3.346354 3.841145 3.945312h-2.82552l-2.845052-3.040364v3.040364h-2.33073z"/></g></g></svg>