<svg height="32" width="32" xmlns="http://www.w3.org/2000/svg" xmlns:xlink="http://www.w3.org/1999/xlink"><linearGradient id="a"><stop offset="0" stop-color="#fff"/><stop offset="1" stop-color="#fff" stop-opacity="0"/></linearGradient><linearGradient id="b" gradientUnits="userSpaceOnUse" x1="36.357143" x2="36.357143" xlink:href="#a" y1="6" y2="63.893143"/><radialGradient id="c" cx="48" cy="90.171875" gradientTransform="matrix(1.1573129 0 0 .99590774 -7.551021 .197132)" gradientUnits="userSpaceOnUse" r="42" xlink:href="#a"/><linearGradient id="d" gradientUnits="userSpaceOnUse" x1="48" x2="48" y1="90" y2="5.987717"><stop offset="0" stop-color="#697890"/><stop offset="1" stop-color="#a4b4c2"/></linearGradient><linearGradient id="e" gradientTransform="matrix(1.0058652 0 0 .994169 100 0)" gradientUnits="userSpaceOnUse" x1="45.447727" x2="45.447727" y1="92.539597" y2="7.01654"><stop offset="0"/><stop offset="1" stop-opacity=".588235"/></linearGradient><linearGradient id="f" gradientTransform="matrix(1.0238095 0 0 1.0119048 -1.142857 -98.071429)" gradientUnits="userSpaceOnUse" x1="32.251034" x2="32.251034" xlink:href="#e" y1="6.131708" y2="90.238609"/><linearGradient id="g" gradientTransform="translate(0 -97)" gradientUnits="userSpaceOnUse" x1="32.251034" x2="32.251034" xlink:href="#e" y1="6.131708" y2="90.238609"/><linearGradient id="h" gradientUnits="userSpaceOnUse" x1="48.233639" x2="126.13924" xlink:href="#i" y1="48.047016" y2="66.232674"/><linearGradient id="i"><stop offset="0"/><stop offset="1" stop-opacity="0"/></linearGradient><linearGradient id="j" gradientUnits="userSpaceOnUse" x1="48.055065" x2="126.67282" xlink:href="#i" y1="48.031517" y2="62.838562"/><linearGradient id="k" gradientUnits="userSpaceOnUse" x1="47.997307" x2="127.05216" xlink:href="#i" y1="48.028725" y2="60.289631"/><linearGradient id="l" gradientUnits="userSpaceOnUse" x1="47.99826" x2="127.41583" xlink:href="#i" y1="48.028797" y2="57.664623"/><linearGradient id="m" gradientUnits="userSpaceOnUse" x1="48.233643" x2="126.13924" xlink:href="#a" y1="48.04702" y2="66.232674"/><linearGradient id="n" gradientUnits="userSpaceOnUse" x1="48.055069" x2="126.67282" xlink:href="#a" y1="48.031521" y2="62.838566"/><linearGradient id="o" gradientUnits="userSpaceOnUse" x1="47.997311" x2="127.05216" xlink:href="#a" y1="48.028728" y2="60.289635"/><linearGradient id="p" gradientUnits="userSpaceOnUse" x1="47.998264" x2="127.41583" xlink:href="#a" y1="48.028801" y2="57.664627"/><clipPath id="q"><path d="m30.916245 135.971c-.937266.54113-1.228304 1.74752-.677924 2.7008l1.9375 3.35585c-1.418086 1.4141-2.622273 3.01198-3.595451 4.71l-3.783634-.99095c-.531629-.14245-1.037926-.11751-1.476221.13061-.438159.24835-.796545.66758-.936598 1.19027l-1.978825 7.38507c-.280102 1.04538.365953 2.06538 1.429126 2.35032l3.772195 1.03363c-.0062 1.95711.237711 3.94301.758755 5.87671l-3.355849 1.9375c-.95328.55037-1.304431 1.74066-.763301 2.67792l3.8125 6.60344c.54113.93727 1.747521 1.2283 2.700801.67793l3.355849-1.9375c1.414106 1.41808 3.011983 2.62227 4.709995 3.59545l-.990945 3.78363c-.284894 1.06325.275431 2.13275 1.320874 2.41282l7.385075 1.97883c1.045371.28011 2.065425-.36588 2.35032-1.42913l1.033633-3.77219c1.957118.006 3.943015-.23771 5.876701-.75876l1.9375 3.35585c.550375.95328 1.740658 1.30443 2.677924.7633l6.603444-3.8125c.937258-.54113 1.228299-1.74752.677924-2.7008l-1.9375-3.35585c1.418087-1.4141 2.622272-3.01197 3.595452-4.70999l3.783633.99094c1.063244.2849 2.132709-.27549 2.41282-1.32087l1.978825-7.38508c.280102-1.04537-.365953-2.06538-1.429127-2.35032l-3.772195-1.03363c.0062-1.95711-.237701-3.94301-.758754-5.8767l3.355848-1.9375c.953272-.55037 1.304431-1.74066.763301-2.67793l-3.8125-6.60344c-.54113-.93726-1.747529-1.2283-2.700801-.67792l-3.355849 1.9375c-1.414093-1.4181-3.011984-2.62228-4.709995-3.59546l.990945-3.78363c.284894-1.06324-.275422-2.13275-1.320874-2.41282l-7.385074-1.97882c-1.045381-.28011-2.065426.36588-2.35032 1.42912l-1.033633 3.7722c-1.95712-.006-3.943015.2377-5.876702.75875l-1.9375-3.35585c-.55038-.95328-1.740666-1.30442-2.677924-.7633zm10.051722 9.7851c6.696096-3.866 15.258361-1.57175 19.124356 5.12435s1.57174 15.25836-5.124356 19.12436c-6.696096 3.86599-15.258361 1.57174-19.124356-5.12436s-1.57174-15.25836 5.124356-19.12435z" display="block"/></clipPath><linearGradient id="r" gradientUnits="userSpaceOnUse" x1="14.66484188866" x2="14.66484188866" y1="6.54003145" y2="25.08808515047"><stop offset="0" stop-color="#f0f0f0"/><stop offset="1" stop-color="#aaa"/></linearGradient><g transform="matrix(.32944406 0 0 .32944406 .351407 .192519)"><g fill="url(#f)"><path d="m12-95.03125c-5.5110903 0-10.03125 4.52016-10.03125 10.03125v71c0 5.5110902 4.5201598 10.03125 10.03125 10.03125h72c5.51109 0 10.03125-4.5201597 10.03125-10.03125v-71c0-5.51109-4.52016-10.03125-10.03125-10.03125z" opacity=".08" transform="scale(1 -1)"/><path d="m12-94.03125c-4.971633 0-9.03125 4.059617-9.03125 9.03125v71c0 4.9716329 4.0596171 9.03125 9.03125 9.03125h72c4.971633 0 9.03125-4.059617 9.03125-9.03125v-71c0-4.971633-4.059617-9.03125-9.03125-9.03125z" opacity=".1" transform="scale(1 -1)"/><path d="m12-93c-4.4091333 0-8 3.590867-8 8v71c0 4.4091333 3.5908667 8 8 8h72c4.409133 0 8-3.5908667 8-8v-71c0-4.409133-3.590867-8-8-8z" opacity=".2" transform="scale(1 -1)"/><rect height="85" opacity=".3" rx="7" transform="scale(1 -1)" width="86" x="5" y="-92"/></g><rect fill="url(#g)" height="84" opacity=".45" rx="6" transform="scale(1 -1)" width="84" x="6" y="-91"/></g><g transform="matrix(.32944406 0 0 .32944406 .351407 .192519)"><rect fill="url(#d)" height="84" rx="6" width="84" x="6" y="6"/><path d="m12 90c-3.324 0-6-2.676-6-6v-2-68-2c0-.334721.04135-.6507.09375-.96875.0487-.295596.09704-.596915.1875-.875.00988-.03038.020892-.0636.03125-.09375.098865-.287771.2348802-.547452.375-.8125.1445918-.273507.3156161-.535615.5-.78125s.3737765-.473472.59375-.6875c.439947-.428056.94291-.814526 1.5-1.09375.278545-.139612.5734731-.246947.875-.34375-.2562018.100222-.4867109.236272-.71875.375-.00741.0044-.023866-.0045-.03125 0-.031933.0193-.062293.04251-.09375.0625-.120395.0767-.2310226.163513-.34375.25-.1061728.0808-.2132809.161112-.3125.25-.1779299.161433-.3474596.345388-.5.53125-.1075789.130255-.2183939.265285-.3125.40625-.025089.03838-.038446.08587-.0625.125-.064763.103032-.1302275.204517-.1875.3125-.1010083.194706-.2056748.415701-.28125.625-.00796.02181-.023589.04055-.03125.0625-.0318251.09195-.0358045.186831-.0625.28125-.0303323.106618-.0703894.203031-.09375.3125-.0728786.341512-.125.698205-.125 1.0625v2 68 2c0 2.781848 2.2181517 5 5 5h2 68 2c2.781848 0 5-2.218152 5-5v-2-68-2c0-.364295-.05212-.720988-.125-1.0625-.04415-.206893-.08838-.397658-.15625-.59375-.0077-.02195-.0233-.04069-.03125-.0625-.06274-.173739-.138383-.367449-.21875-.53125-.04158-.0828-.07904-.169954-.125-.25-.0546-.09721-.126774-.18835-.1875-.28125-.09411-.140965-.204921-.275995-.3125-.40625-.143174-.17445-.303141-.346998-.46875-.5-.01117-.0102-.01998-.02115-.03125-.03125-.138386-.125556-.285091-.234436-.4375-.34375-.102571-.07315-.204318-.153364-.3125-.21875-.0074-.0045-.02384.0044-.03125 0-.232039-.138728-.462548-.274778-.71875-.375.301527.0968.596455.204138.875.34375.55709.279224 1.060053.665694 1.5 1.09375.219973.214028.409366.441865.59375.6875s.355408.507743.5.78125c.14012.265048.276135.524729.375.8125.01041.03078.02133.06274.03125.09375.09046.278085.1388.579404.1875.875.0524.31805.09375.634029.09375.96875v2 68 2c0 3.324-2.676 6-6 6z" fill="url(#c)" opacity=".2"/><path d="m12 6c-3.324 0-6 2.676-6 6v2 68 2c0 .334721.04135.6507.09375.96875.0487.295596.09704.596915.1875.875.00988.03038.020892.0636.03125.09375.098865.287771.2348802.547452.375.8125.1445918.273507.3156161.535615.5.78125s.3737765.473472.59375.6875c.439947.428056.94291.814526 1.5 1.09375.278545.139612.5734731.246947.875.34375-.2562018-.100222-.4867109-.236272-.71875-.375-.00741-.0044-.023866.0045-.03125 0-.031933-.0193-.062293-.04251-.09375-.0625-.120395-.0767-.2310226-.163513-.34375-.25-.1061728-.0808-.2132809-.161112-.3125-.25-.1779299-.161433-.3474596-.345388-.5-.53125-.1075789-.130255-.2183939-.265285-.3125-.40625-.025089-.03838-.038446-.08587-.0625-.125-.064763-.103032-.1302275-.204517-.1875-.3125-.1010083-.194706-.2056748-.415701-.28125-.625-.00796-.02181-.023589-.04055-.03125-.0625-.0318251-.09195-.0358045-.186831-.0625-.28125-.0303323-.106618-.0703894-.203031-.09375-.3125-.0728786-.341512-.125-.698205-.125-1.0625v-2-68-2c0-2.781848 2.2181517-5 5-5h2 68 2c2.781848 0 5 2.218152 5 5v2 68 2c0 .364295-.05212.720988-.125 1.0625-.04415.206893-.08838.397658-.15625.59375-.0077.02195-.0233.04069-.03125.0625-.06274.173739-.138383.367449-.21875.53125-.04158.0828-.07904.169954-.125.25-.0546.09721-.126774.18835-.1875.28125-.09411.140965-.204921.275995-.3125.40625-.143174.17445-.303141.346998-.46875.5-.01117.0102-.01998.02115-.03125.03125-.138386.125556-.285091.234436-.4375.34375-.102571.07315-.204318.153364-.3125.21875-.0074.0045-.02384-.0044-.03125 0-.232039.138728-.462548.274778-.71875.375.301527-.0968.596455-.204138.875-.34375.55709-.279224 1.060053-.665694 1.5-1.09375.219973-.214028.409366-.441865.59375-.6875s.355408-.507743.5-.78125c.14012-.265048.276135-.524729.375-.8125.01041-.03078.02133-.06274.03125-.09375.09046-.278085.1388-.579404.1875-.875.0524-.31805.09375-.634029.09375-.96875v-2-68-2c0-3.324-2.676-6-6-6z" fill="url(#b)" opacity=".3"/></g><path d="m14.774705 6.0609161c-.926439 0-1.657516.7739515-1.657516 1.6781055v.6177075c-.183847.068546-.367104.134772-.545641.216198l-.432396-.4323955c-.268636-.2686345-.674035-.500315-1.163349-.504461-.429353-.00365-.859712.159641-1.183939.4838705l-1.781057 1.781057c-.653614.6536209-.6082255 1.7184049.02059 2.3472889l.4323955.432396c-.081426.178537-.147652.361794-.216198.545641h-.6177075c-.904155 0-1.6781055.731078-1.6781055 1.657516v2.512011c0 .926438.7739505 1.657515 1.6781055 1.657515h.6177075c.068546.183848.134772.367104.216198.545642l-.4323955.432395c-.6288745.628877-.67426 1.693682-.02059 2.347289l1.781056 1.781057c.6536.653606 1.718395.608304 2.347289-.02059l.432396-.432395c.178537.08143.361793.147651.545641.216197v.617708c0 .904154.731077 1.678106 1.657516 1.678106h2.512011c.926437 0 1.657515-.77395 1.657515-1.678106v-.617708c.183848-.06855.367104-.134771.545642-.216197l.432396.432395c.628894.628897 1.693689.674189 2.347288.02059l1.781058-1.781057c.653614-.65362.608227-1.718404-.02059-2.347289l-.432396-.432395c.08143-.178537.147652-.361793.216198-.545642h.617708c.904153 0 1.678105-.731075 1.678105-1.657515v-2.512011c0-.92644-.773952-1.657516-1.678105-1.657516h-.617707c-.06855-.183848-.134773-.367104-.216199-.545641l.432395-.432396c.628871-.628873.674272-1.69368.02059-2.3472889l-1.781056-1.781057c-.6536-.6535965-1.718394-.6083065-2.347289.02059l-.432396.4323955c-.178537-.081426-.361794-.147652-.545641-.216198v-.6177075c0-.904156-.731079-1.6781055-1.657516-1.6781055zm1.256006 6.4859299c2.001474 0 3.592999 1.591525 3.592999 3.592999 0 2.001475-1.591525 3.593-3.592999 3.593-2.001475 0-3.593-1.591525-3.593-3.593 0-2.001474 1.591525-3.592999 3.593-3.592999z" display="block" opacity=".05"/><path d="m14.774705 6.4006551c-.733541 0-1.317776.619829-1.317776 1.3383665v.8442005c-.334928.1152015-.654713.2453945-.967742.40151l-.597118-.5971175c-.221214-.221213-.538581-.4086045-.916266-.411805-.336733-.00285-.676502.130858-.936857.391215l-1.781056 1.7810574c-.5173375.517342-.4794835 1.352994.02059 1.853122l.5971175.597118c-.1561155.313029-.286308.632815-.40151.967742h-.8442005c-.7185385 0-1.338366.584235-1.338366 1.317776v2.512011c0 .73354.6198275 1.317776 1.338366 1.317776h.8442005c.115202.334927.2453945.654713.40151.967742l-.5971175.597118c-.5001205.500121-.537972 1.335789-.02059 1.853122l1.781057 1.781057c.517328.517333 1.352988.479544 1.853123-.02059l.597117-.597117c.31303.156116.632815.286309.967742.40151v.844201c0 .718536.584235 1.338366 1.317776 1.338366h2.512012c.733539 0 1.317776-.619828 1.317776-1.338366v-.844202c.334927-.115201.654712-.245394.967742-.40151l.597117.597118c.500135.500135 1.335794.537918 1.853123.02059l1.781057-1.781057c.517338-.517343.479485-1.352995-.02059-1.853123l-.597118-.597118c.156116-.313028.286309-.632814.401511-.967742h.8442c.718536 0 1.338366-.584233 1.338366-1.317776v-2.512011c0-.733542-.61983-1.317776-1.338366-1.317776h-.8442c-.115202-.334928-.245395-.654713-.401511-.967742l.597118-.597117c.500118-.50012.537981-1.33579.02059-1.853123l-1.781057-1.7810574c-.517329-.5173265-1.352988-.479545-1.853123.02059l-.597117.597117c-.31303-.1561145-.632815-.2863075-.967743-.401509v-.8442005c0-.7185395-.584236-1.3383665-1.317776-1.3383665zm1.256006 5.8064519c2.184222 0 3.932738 1.748516 3.932738 3.932738 0 2.184223-1.748516 3.932739-3.932738 3.932739-2.184223 0-3.932739-1.748516-3.932739-3.932739 0-2.184222 1.748516-3.932738 3.932739-3.932738z" display="block" opacity=".08"/><path d="m14.774705 6.7403946c-.543464 0-.978037.461205-.978037.998627v1.060398c-.4816.148272-.943934.3423885-1.379547.576527l-.76184-.751544c-.173047-.173046-.411846-.306586-.679478-.308854-.250155-.00215-.504208.092401-.700069.2882635l-1.781056 1.7810569c-.382636.38264-.3540135 1.004902.02059 1.379547l.751544.76184c-.234138.435612-.428254.897947-.5765265 1.379547h-1.0603985c-.537423 0-.998627.434574-.998627.978037v2.512011c0 .543463.461204.978037.998627.978037h1.0603985c.1482725.4816.3423885.943935.5765265 1.379547l-.751544.76184c-.374638.374639-.403259.996914-.02059 1.379546l1.781057 1.781057c.38263.382635 1.0049.354057 1.379547-.02059l.761839-.751544c.435613.234139.897947.428255 1.379547.576527v1.060398c0 .537422.434574.998627.978037.998627h2.512012c.543461 0 .978036-.461203.978036-.998627v-1.060398c.4816-.148272.943934-.342388 1.379547-.576527l.76184.751544c.374646.374647.996915.403222 1.379547.02059l1.781057-1.781057c.382636-.382639.354014-1.004902-.02059-1.379546l-.751545-.76184c.234138-.435612.428255-.897946.576527-1.379547h1.060398c.537421 0 .998628-.434572.998628-.978037v-2.512011c0-.543465-.461206-.978037-.998628-.978037h-1.060398c-.148272-.481602-.342389-.943935-.576527-1.379547l.751544-.76184c.374637-.374638.403265-.996914.02059-1.379547l-1.781056-1.7810569c-.382632-.38263-1.004901-.3540565-1.379547.02059l-.76184.751544c-.435613-.2341385-.897947-.428255-1.379547-.576527v-1.060398c0-.537424-.434575-.998627-.978037-.998627zm1.256006 5.1269734c2.364889 0 4.272477 1.907588 4.272477 4.272477 0 2.36489-1.907588 4.272478-4.272477 4.272478-2.36489 0-4.272478-1.907588-4.272478-4.272478 0-2.364889 1.907588-4.272477 4.272478-4.272477z" display="block" opacity=".2"/><path d="m14.774705 7.0801336c-.356545 0-.638298.296251-.638298.658888v1.276596c-.637522.16986-1.244291.4273915-1.801647.751544l-.916266-.905971c-.128213-.128212-.276772-.2044965-.442691-.2059025-.165919-.0014-.337225.059255-.463281.185312l-1.7810565 1.7810569c-.252111.252114-.235805.649548.02059.905972l.9059705.916266c-.32415.557354-.581679 1.164123-.751543 1.801647h-1.276596c-.3626365 0-.658888.281755-.658888.638298v2.512011c0 .356543.2962515.638298.658888.638298h1.276596c.169864.637524.427393 1.244293.751544 1.801647l-.905971.916266c-.256422.256423-.2727285.653858-.02059.905971l1.781057 1.781057c.252111.252114.649549.235832.905971-.02059l.916266-.905971c.557357.324153 1.164125.581684 1.801648.751544v1.276596c0 .362637.281753.658888.638297.658888h2.512012c.356541 0 .638298-.296251.638298-.658888v-1.276596c.637522-.16986 1.24429-.427391 1.801647-.751544l.916266.905971c.256422.256423.653857.272705.905972.02059l1.781056-1.781057c.252112-.252113.235806-.649548-.02059-.905971l-.905971-.916266c.324151-.557354.581684-1.164123.751545-1.801647h1.276595c.362634 0 .658889-.281755.658889-.638298v-2.512011c0-.356543-.296255-.638298-.658889-.638298h-1.276597c-.169859-.637524-.427393-1.244293-.751544-1.801647l.905971-.916266c.256423-.256424.272732-.653858.02059-.905972l-1.781056-1.7810569c-.252115-.2521135-.649549-.235832-.905971.02059l-.916267.905971c-.557356-.3241525-1.164125-.5816835-1.801647-.751544v-1.276596c0-.362637-.281756-.658888-.638298-.658888zm1.256006 4.4474954c2.547257 0 4.612217 2.06496 4.612217 4.612216 0 2.547257-2.06496 4.612217-4.612217 4.612217s-4.612217-2.06496-4.612217-4.612217c0-2.547256 2.06496-4.612216 4.612217-4.612216z" display="block" opacity=".3"/><path d="m14.774705 6.7506891c-.356545 0-.638298.2962515-.638298.6588885v1.2765955c-.637522.1698605-1.244291.427392-1.801647.7515445l-.916266-.905971c-.128213-.128212-.276772-.2044965-.442691-.2059025-.165919-.0014-.337225.059255-.463281.185312l-1.7810565 1.7810569c-.252111.252114-.235805.649548.02059.905971l.9059705.916267c-.32415.557354-.581679 1.164123-.751543 1.801647h-1.276596c-.3626365 0-.658888.281755-.658888.638298v2.512011c0 .356543.2962515.638298.658888.638298h1.276596c.169864.637524.427393 1.244292.751544 1.801647l-.905971.916266c-.256422.256423-.2727285.653858-.02059.905971l1.781057 1.781058c.252111.252113.649549.235831.905971-.02059l.916266-.905972c.557357.324154 1.164125.581684 1.801648.751545v1.276596c0 .362636.281753.658887.638297.658887h2.512012c.356541 0 .638298-.296251.638298-.658887v-1.276596c.637522-.169861 1.24429-.427391 1.801647-.751545l.916266.905972c.256422.256422.653857.272704.905972.02059l1.781056-1.781058c.252112-.252113.235806-.649548-.02059-.905971l-.905971-.916266c.324151-.557355.581684-1.164123.751545-1.801647h1.276595c.362634 0 .658889-.281755.658889-.638298v-2.512011c0-.356543-.296255-.638298-.658889-.638298h-1.276597c-.169859-.637524-.427393-1.244293-.751544-1.801647l.905971-.916267c.256423-.256423.272732-.653857.02059-.905971l-1.781057-1.7810569c-.252115-.2521135-.649549-.235832-.905971.02059l-.916266.905971c-.557357-.3241525-1.164125-.581684-1.801648-.7515445v-1.2765955c0-.362637-.281756-.6588885-.638297-.6588885zm1.256006 4.4474949c2.547257 0 4.612217 2.06496 4.612217 4.612217s-2.06496 4.612217-4.612217 4.612217-4.612217-2.06496-4.612217-4.612217 2.06496-4.612217 4.612217-4.612217z" display="block" fill="url(#r)"/><g clip-path="url(#q)" transform="matrix(.28530693 .16472203 -.16472203 .28530693 28.351507 -37.135369)"><g opacity=".9" transform="matrix(.1413721 .99271966 -1.1651755 .12044784 96.937266 104.80532)"><path d="m108.8959 48a60.895905 60.895905 0 0 1 -6.54616 27.466658l-54.34974-27.466658z" fill="url(#h)" opacity=".05" transform="matrix(.9941105 -.1083712 .1083712 .9941105 -5.158219 5.491891)"/><path d="m108.8959 48a60.895905 60.895905 0 0 1 -4.45721 22.86887l-56.43869-22.86887z" fill="url(#j)" opacity=".07" transform="matrix(.99786084 -.06537382 .06537382 .99786084 -3.094012 3.241571)"/><path d="m108.8959 48a60.895905 60.895905 0 0 1 -3.12994 19.271878l-57.76596-19.271878z" fill="url(#k)" opacity=".1" transform="matrix(.99945136 -.0331207 .0331207 .99945136 -1.563459 1.616128)"/><path d="m108.8959 48a60.895905 60.895905 0 0 1 -2.07497 15.76102l-58.82093-15.76102z" fill="url(#l)" opacity=".05"/></g><g fill="#fff" opacity=".9" transform="matrix(1.062807 -.13087531 -.74010065 3.227468 32.525111 9.33226)"><path d="m108.8959 48a60.895905 60.895905 0 0 1 -6.54616 27.466658l-54.34974-27.466658z" fill="url(#m)" opacity=".2" transform="matrix(.9941105 -.1083712 .1083712 .9941105 -5.158219 5.491891)"/><path d="m108.8959 48a60.895905 60.895905 0 0 1 -4.45721 22.86887l-56.43869-22.86887z" fill="url(#n)" opacity=".4" transform="matrix(.99786084 -.06537382 .06537382 .99786084 -3.094012 3.241571)"/><path d="m108.8959 48a60.895905 60.895905 0 0 1 -3.12994 19.271878l-57.76596-19.271878z" fill="url(#o)" opacity=".6" transform="matrix(.99945136 -.0331207 .0331207 .99945136 -1.563459 1.616128)"/><path d="m108.8959 48a60.895905 60.895905 0 0 1 -2.07497 15.76102l-58.82093-15.76102z" fill="url(#p)" opacity=".8"/></g><g opacity=".5" transform="matrix(-.61678931 .78712829 -.78712829 -.61678931 115.001479 150.011927)"><path d="m108.8959 48a60.895905 60.895905 0 0 1 -6.54616 27.466658l-54.34974-27.466658z" fill="url(#h)" opacity=".05" transform="matrix(.9941105 -.1083712 .1083712 .9941105 -5.158219 5.491891)"/><path d="m108.8959 48a60.895905 60.895905 0 0 1 -4.45721 22.86887l-56.43869-22.86887z" fill="url(#j)" opacity=".07" transform="matrix(.99786084 -.06537382 .06537382 .99786084 -3.094012 3.241571)"/><path d="m108.8959 48a60.895905 60.895905 0 0 1 -3.12994 19.271878l-57.76596-19.271878z" fill="url(#k)" opacity=".1" transform="matrix(.99945136 -.0331207 .0331207 .99945136 -1.563459 1.616128)"/><path d="m108.8959 48a60.895905 60.895905 0 0 1 -2.07497 15.76102l-58.82093-15.76102z" fill="url(#l)" opacity=".1"/></g><g opacity=".8" transform="matrix(-.06817198 -1.0460056 2.710673 .60162586 -79.095447 179.08013)"><path d="m108.8959 48a60.895905 60.895905 0 0 1 -6.54616 27.466658l-54.34974-27.466658z" fill="url(#h)" opacity=".05" transform="matrix(.9941105 -.1083712 .1083712 .9941105 -5.158219 5.491891)"/><path d="m108.8959 48a60.895905 60.895905 0 0 1 -4.45721 22.86887l-56.43869-22.86887z" fill="url(#j)" opacity=".07" transform="matrix(.99786084 -.06537382 .06537382 .99786084 -3.094012 3.241571)"/><path d="m108.8959 48a60.895905 60.895905 0 0 1 -3.12994 19.271878l-57.76596-19.271878z" fill="url(#k)" opacity=".1" transform="matrix(.99945136 -.0331207 .0331207 .99945136 -1.563459 1.616128)"/><path d="m108.8959 48a60.895905 60.895905 0 0 1 -2.07497 15.76102l-58.82093-15.76102z" fill="url(#l)" opacity=".1"/></g><g fill="#fff" opacity=".9" transform="matrix(-1.062807 .1308753 .74010064 -3.227468 62.996694 306.66774)"><path d="m108.8959 48a60.895905 60.895905 0 0 1 -6.54616 27.466658l-54.34974-27.466658z" fill="url(#m)" opacity=".2" transform="matrix(.9941105 -.1083712 .1083712 .9941105 -5.158219 5.491891)"/><path d="m108.8959 48a60.895905 60.895905 0 0 1 -4.45721 22.86887l-56.43869-22.86887z" fill="url(#n)" opacity=".4" transform="matrix(.99786084 -.06537382 .06537382 .99786084 -3.094012 3.241571)"/><path d="m108.8959 48a60.895905 60.895905 0 0 1 -3.12994 19.271878l-57.76596-19.271878z" fill="url(#o)" opacity=".6" transform="matrix(.99945136 -.0331207 .0331207 .99945136 -1.563459 1.616128)"/><path d="m108.8959 48a60.895905 60.895905 0 0 1 -2.07497 15.76102l-58.82093-15.76102z" fill="url(#p)" opacity=".8"/></g></g><path d="m14.774705 6.7506891c-.356545 0-.638298.2962515-.638298.6588885v.329444c0-.362637.281753-.658888.638298-.658888h2.512011c.356542 0 .638298.296251.638298.658888v-.329444c0-.362637-.281756-.6588885-.638298-.6588885zm-3.798902 1.575155c-.165919-.0014-.337225.059255-.463281.185312l-1.7810565 1.7810569c-.16355.163552-.2090645.389423-.1544265.597118.027705-.09608.077339-.190585.1544265-.267674l1.7810565-1.7810569c.126056-.1260565.297362-.186729.463281-.185312.165919.0014.314478.07769.442691.2059025l.916266.905971c.557356-.3241525 1.164125-.581684 1.801647-.751544v-.3294445c-.637522.1698605-1.244291.427392-1.801647.7515445l-.916266-.905971c-.128213-.128212-.276772-.2044965-.442691-.2059025zm10.12011 0c-.162925.0046-.324775.077691-.452985.2059025l-.916267.905971c-.557356-.3241525-1.164125-.581684-1.801647-.7515445v.3294445c.637522.16986 1.244291.4273915 1.801647.751544l.916267-.905971c.256422-.2564225.653856-.272704.905971-.02059l1.781057 1.7810574c.0771.07709.126717.171597.154426.267673.05464-.207694.0091-.433565-.154426-.597117l-1.781057-1.7810574c-.126058-.126057-.290061-.189921-.452986-.1853125zm-11.551132 4.0048039c-.267758.497086-.490069 1.029126-.638298 1.58545h-1.276596c-.3626365 0-.658888.281755-.658888.638298v.329444c0-.356543.2962515-.638298.658888-.638298h1.276596c.169864-.637524.427393-1.244293.751544-1.801647zm12.971859 0-.113246.113247c.324151.557354.581685 1.164123.751544 1.801647h1.276596c.362634 0 .658888.281755.658888.638298v-.329444c0-.356543-.296254-.638298-.658888-.638298h-1.276596c-.148225-.556324-.370539-1.088364-.638298-1.58545zm-11.087851 3.644475c-.002.05495-.01029.109302-.01029.164722 0 2.547257 2.064959 4.612217 4.612216 4.612217s4.612218-2.06496 4.612218-4.612217c0-.05542-.0084-.109774-.0103-.164722-.08717 2.470573-2.110086 4.447495-4.601922 4.447495s-4.514754-1.976922-4.601922-4.447495zm-1.884008 3.644475-.792725.80302c-.178016.178017-.23793.420163-.175017.638298.029585-.112464.084942-.218778.175017-.308854l.905971-.916266c-.04129-.07099-.07417-.143644-.113246-.216198zm12.971859 0c-.03908.07255-.07196.14521-.113246.216198l.905971.916266c.09007.09008.145432.19639.175017.308854.06291-.218135.0029-.460281-.175017-.638298z" display="block" fill="#fff" opacity=".7"/><path d="m8.577039 10.559887c-.062905.218135-.00295.46028.175017.638297l.792725.80302c.03908-.07255.07196-.145209.113246-.216197l-.905971-.916267c-.090066-.090075-.145431-.196389-.175017-.308853zm14.907343 0c-.02959.112464-.08494.218778-.175017.308853l-.905971.916267c.04129.07099.07417.143644.113246.216197l.792725-.80302c.178016-.178016.237931-.420162.175017-.638297zm-7.453671.308853c-2.547257 0-4.612217 2.06496-4.612217 4.612217 0 .05542.0084.109774.01029.164722.08717-2.470573 2.110086-4.447495 4.601922-4.447495s4.514754 1.976922 4.601922 4.447495c.002-.05495.0103-.109301.0103-.164722 0-2.547257-2.064961-4.612217-4.612217-4.612217zm-9.059712 5.868223v.329444c0 .356543.2962515.638298.658888.638298h1.276596c.148229.556325.37054 1.088363.638298 1.585449l.113246-.113246c-.324151-.557354-.58168-1.164123-.751544-1.801648h-1.276596c-.3626365 0-.658888-.281755-.658888-.638297zm18.119423 0c0 .356543-.296254.638297-.658888.638297h-1.276596c-.169861.637525-.427393 1.244294-.751544 1.801648l.113246.113246c.267758-.497086.490072-1.029124.638298-1.585449h1.276596c.362634 0 .658888-.281755.658888-.638298zm-16.513383 3.994509c-.054643.207695-.00914.433565.1544265.597117l1.7810565 1.781058c.252111.252113.64955.235831.905972-.02059l.916266-.905972c.557356.324154 1.164125.581684 1.801647.751545v-.329445c-.637522-.169861-1.244291-.427391-1.801647-.751544l-.916266.905971c-.256422.256422-.653861.272704-.905972.02059l-1.7810565-1.781056c-.077096-.077089-.126717-.171597-.1544265-.267674zm14.907343 0c-.02771.09608-.07734.190585-.154426.267673l-1.781057 1.781057c-.252115.252114-.649549.235833-.905971-.02059l-.916267-.90597c-.557356.324152-1.164125.581683-1.801647.751544v.329444c.637522-.169861 1.244291-.427391 1.801647-.751545l.916267.905972c.256422.256422.653856.272704.905971.02059l1.781057-1.781058c.16355-.163551.209064-.389422.154426-.597117zm-9.347975 3.150309v.329444c0 .362637.281753.658888.638298.658888h2.512011c.356542 0 .638298-.296251.638298-.658888v-.329444c0 .362637-.281756.658888-.638298.658888h-2.512011c-.356545 0-.638298-.296251-.638298-.658888z" display="block" opacity=".2"/></svg>