<svg height="32" width="32" xmlns="http://www.w3.org/2000/svg" xmlns:xlink="http://www.w3.org/1999/xlink"><linearGradient id="a"><stop offset="0" stop-color="#ededed"/><stop offset="1" stop-color="#b0b0b0"/></linearGradient><linearGradient id="b"><stop offset="0" stop-color="#b4b4b4"/><stop offset=".20467032" stop-color="#646464"/><stop offset=".49567693" stop-color="#fff"/><stop offset="1" stop-color="#3c3c3c"/></linearGradient><linearGradient id="c"><stop offset="0" stop-color="#818181"/><stop offset=".2" stop-color="#f9f9f9"/><stop offset="1" stop-color="#dcdcdc" stop-opacity="0"/></linearGradient><linearGradient id="d" gradientUnits="userSpaceOnUse" x1="19.035713" x2="87.5" y1="74" y2="27.428572"><stop offset="0" stop-color="#fff"/><stop offset="1" stop-color="#fff" stop-opacity="0"/></linearGradient><linearGradient id="e" gradientUnits="userSpaceOnUse" x1="6" x2="24" xlink:href="#c" y1="73" y2="73"/><linearGradient id="f" gradientTransform="matrix(-1 0 0 1 96 0)" gradientUnits="userSpaceOnUse" x1="6" x2="24" xlink:href="#c" y1="73" y2="73"/><linearGradient id="g" gradientUnits="userSpaceOnUse" x1="38.748035" x2="38.748035" y1="65.59034" y2="5.833157"><stop offset="0" stop-color="#dcdcdc"/><stop offset="1" stop-color="#fafafa"/></linearGradient><radialGradient id="h" cx="90" cy="90" gradientTransform="matrix(0 -1.085034 2 0 -90 187.65306)" gradientUnits="userSpaceOnUse" r="42"><stop offset="0" stop-color="#b4b4b4"/><stop offset="1" stop-color="#dcdcdc"/></radialGradient><clipPath id="i"><path d="m66 6v55c0 1.662 1.338 3 3 3h6c1.662 0 3-1.338 3-3v-55h-4v2h-4v-2z"/></clipPath><filter id="j" color-interpolation-filters="sRGB" height="1.07322" width="1.332308" x="-.166154" y="-.03661"><feGaussianBlur stdDeviation=".9"/></filter><linearGradient id="k" gradientUnits="userSpaceOnUse" x1="68.75" x2="75.25" xlink:href="#b" y1="58" y2="58"/><linearGradient id="l" gradientUnits="userSpaceOnUse" x1="63.484772" x2="79" y1="64.163078" y2="65"><stop offset="0" stop-color="#a2a2a2"/><stop offset="1" stop-color="#fff"/></linearGradient><linearGradient id="m" gradientTransform="matrix(-1 0 0 1 144.03125 -2)" gradientUnits="userSpaceOnUse" x1="68.96875" x2="75.0625" xlink:href="#a" y1="17.5" y2="17.5"/><linearGradient id="n" gradientUnits="userSpaceOnUse" x1="68.02903" x2="75.97097" xlink:href="#a" y1="15.763245" y2="15.763245"/><linearGradient id="o" gradientTransform="matrix(1.1262691 0 0 1 -7.401969 -49.5)" gradientUnits="userSpaceOnUse" x1="68.75" x2="72.250572" xlink:href="#b" y1="59" y2="59"/><clipPath id="p"><path d="m10.6875 67.90625c-2.216 0-4 1.784-4 4v32.40625c0 2.216 1.784 4 4 4h39.09375c2.216 0 4-1.784 4-4v-32.40625c0-2.216-1.784-4-4-4zm12.65625 12.09375c.670141.000014 1.250428.105379 1.75.3125.499557.194965.927891.466044 1.28125.84375.365526.377732.655669.851077.875 1.375.231496.523945.397209 1.085163.53125 1.71875l-1.53125.53125c-.109669-.475187-.24786-.903518-.40625-1.28125-.146222-.377709-.331003-.70068-.5625-.96875-.219329-.268048-.49571-.459708-.8125-.59375-.304619-.146202-.686364-.21874-1.125-.21875-.694522.000012-1.255742.151965-1.71875.46875-.45083.304623-.813511.707011-1.09375 1.21875-.268062.499574-.471907 1.0661-.59375 1.6875-.109663.621418-.156251 1.253596-.15625 1.875-.000002.621416.04659 1.222347.15625 1.84375.121843.621414.325687 1.187941.59375 1.6875.28024.499568.630735.901955 1.09375 1.21875.463007.304615 1.055478.468751 1.75.46875.243684.000002.494119-.03283.75-.09375.268052-.06092.506302-.140338.75-.25.255867-.109659.499421-.228784.71875-.375.219312-.146212.423159-.31723.59375-.5v-2.46875h-3.0625v-1.6875h4.8125v6.96875h-1.71875v-.8125c-.414282.243691-.880747.46818-1.34375.6875-.450834.231506-.90669.343749-1.40625.34375-.98695-.000001-1.836737-.210727-2.53125-.625-.69452-.414273-1.24886-.935784-1.6875-1.59375-.438643-.657961-.773798-1.402384-.96875-2.21875-.194953-.828542-.281251-1.67145-.28125-2.5-.000001-.816355.09848-1.62801.28125-2.46875.182767-.840721.460726-1.611091.875-2.28125.414271-.682321.973915-1.229779 1.65625-1.65625.682328-.438629 1.532115-.656236 2.53125-.65625zm7.25 0h7.78125v1.90625c-.219329.352214-.476646.778116-.78125 1.28125-.292435.490577-.615406 1.015142-.96875 1.59375-.353357.578624-.70385 1.202246-1.09375 1.84375-.389909.641515-.785416 1.295997-1.1875 1.9375-.389908.641514-.785416 1.25865-1.1875 1.875-.402091.616355-.809782 1.177872-1.1875 1.71875h6.59375v1.84375h-8.5625v-1.96875l5.34375-8.71875c.170577-.264139.341595-.498416.5-.75.170577-.251561.348477-.529667.53125-.78125h-5.78125z"/></clipPath><linearGradient id="q" gradientTransform="matrix(1.0058652 0 0 .994169 100 0)" gradientUnits="userSpaceOnUse" x1="45.447727" x2="45.447727" y1="92.539597" y2="7.01654"><stop offset="0"/><stop offset="1" stop-opacity=".588235"/></linearGradient><linearGradient id="r" gradientTransform="matrix(1.0238095 0 0 1.0119048 -1.142857 -98.071429)" gradientUnits="userSpaceOnUse" x1="32.251034" x2="32.251034" xlink:href="#q" y1="6.131708" y2="90.238609"/><linearGradient id="s" gradientTransform="translate(0 -97)" gradientUnits="userSpaceOnUse" x1="32.251034" x2="32.251034" xlink:href="#q" y1="6.131708" y2="90.238609"/><linearGradient id="t" gradientUnits="userSpaceOnUse" x1="69" x2="73" y1="53" y2="53"><stop offset="0" stop-color="#fff"/><stop offset=".48973215" stop-color="#8c8c8c"/><stop offset=".50044644" stop-color="#cfcfcf"/><stop offset=".62276787" stop-color="#fff"/><stop offset=".81696427" stop-color="#c8c8c8"/><stop offset="1" stop-color="#505050"/></linearGradient><linearGradient id="u" gradientTransform="matrix(-1 0 0 1 144 -4)" gradientUnits="userSpaceOnUse" x1="69" x2="73" y1="54" y2="54"><stop offset="0" stop-color="#2f2f2f"/><stop offset=".43731192" stop-color="#fff"/><stop offset=".62138397" stop-color="#979797"/><stop offset=".7723214" stop-color="#505050"/><stop offset="1" stop-color="#e6e6e6"/></linearGradient><g transform="matrix(.32944406 0 0 .32944406 .351407 .192519)"><g><g fill="url(#r)"><path d="m12-95.03125c-5.5110903 0-10.03125 4.52016-10.03125 10.03125v71c0 5.5110902 4.5201598 10.03125 10.03125 10.03125h72c5.51109 0 10.03125-4.5201597 10.03125-10.03125v-71c0-5.51109-4.52016-10.03125-10.03125-10.03125z" opacity=".08" transform="scale(1 -1)"/><path d="m12-94.03125c-4.971633 0-9.03125 4.059617-9.03125 9.03125v71c0 4.9716329 4.0596171 9.03125 9.03125 9.03125h72c4.971633 0 9.03125-4.059617 9.03125-9.03125v-71c0-4.971633-4.059617-9.03125-9.03125-9.03125z" opacity=".1" transform="scale(1 -1)"/><path d="m12-93c-4.4091333 0-8 3.590867-8 8v71c0 4.4091333 3.5908667 8 8 8h72c4.409133 0 8-3.5908667 8-8v-71c0-4.409133-3.590867-8-8-8z" opacity=".2" transform="scale(1 -1)"/><rect height="85" opacity=".3" rx="7" transform="scale(1 -1)" width="86" x="5" y="-92"/></g><rect fill="url(#s)" height="84" opacity=".45" rx="6" transform="scale(1 -1)" width="84" x="6" y="-91"/></g><g><path d="m12 6c-3.324 0-6 2.676-6 6v72c0 3.324 2.676 6 6 6h72c3.324 0 6-2.676 6-6v-72c0-3.324-2.676-6-6-6h-9v3h-6v-3z" fill="url(#h)"/><path d="m6 56v28c0 3.324 2.676 6 6 6h12v-34z" fill="url(#e)"/><path d="m90 56v28c0 3.324-2.676 6-6 6h-12v-34z" fill="url(#f)"/><path d="m6 82v2c0 3.324 2.676 6 6 6h72c3.324 0 6-2.676 6-6v-2c0 3.324-2.676 6-6 6h-72c-3.324 0-6-2.676-6-6z" opacity=".15"/><path d="m6 78v2c0 3.324 2.676 6 6 6h72c3.324 0 6-2.676 6-6v-2c0 3.324-2.676 6-6 6h-72c-3.324 0-6-2.676-6-6z" fill="#fff" opacity=".8"/><path d="m6 76v2c0 3.324 2.676 6 6 6h72c3.324 0 6-2.676 6-6v-2c0 3.324-2.676 6-6 6h-72c-3.324 0-6-2.676-6-6z" opacity=".15"/><path d="m6 72v2c0 3.324 2.676 6 6 6h72c3.324 0 6-2.676 6-6v-2c0 3.324-2.676 6-6 6h-72c-3.324 0-6-2.676-6-6z" fill="#fff" opacity=".8"/><path d="m6 70v2c0 3.324 2.676 6 6 6h72c3.324 0 6-2.676 6-6v-2c0 3.324-2.676 6-6 6h-72c-3.324 0-6-2.676-6-6z" opacity=".15"/><path d="m12 6c-3.324 0-6 2.676-6 6v56c0 3.324 2.676 6 6 6h72c3.324 0 6-2.676 6-6v-56c0-3.324-2.676-6-6-6h-9v3h-6v-3z" fill="url(#g)"/><path d="m12 6c-3.324 0-6 2.676-6 6v56c0 3.324 2.676 6 6 6h72c3.324 0 6-2.676 6-6v-56c0-3.324-2.676-6-6-6h-9v2h9c2.245802 0 4 1.7541975 4 4v56c0 2.245802-1.754198 4-4 4h-72c-2.2458025 0-4-1.754198-4-4v-56c0-2.2458025 1.7541975-4 4-4h57v-2z" fill="url(#d)"/></g><g><path d="m23.34375 80c-.999135.000014-1.848922.217621-2.53125.65625-.682335.426471-1.241979.973929-1.65625 1.65625-.414274.670159-.692233 1.440529-.875 2.28125-.182768.84074-.281251 1.652395-.28125 2.46875-.000001.82855.0863 1.671458.28125 2.5.194952.816366.530107 1.560789.96875 2.21875.43864.657966.99298 1.179477 1.6875 1.59375.694513.414273 1.5443.624999 2.53125.625.49956-.000001.955416-.112244 1.40625-.34375.463003-.21932.929468-.443809 1.34375-.6875v.8125h1.71875v-6.96875h-4.8125v1.6875h3.0625v2.46875c-.170591.18277-.374438.353788-.59375.5-.219329.146216-.462883.265341-.71875.375-.243698.109662-.481948.189079-.75.25-.255881.06092-.506316.09375-.75.09375-.694522.000001-1.286993-.164135-1.75-.46875-.463015-.316795-.81351-.719182-1.09375-1.21875-.268063-.499559-.471907-1.066086-.59375-1.6875-.109663-.621403-.156252-1.222334-.15625-1.84375-.000001-.621404.04659-1.253582.15625-1.875.121843-.6214.325688-1.187926.59375-1.6875.280239-.511739.64292-.914127 1.09375-1.21875.463008-.316785 1.024228-.468738 1.71875-.46875.438636.00001.820381.07255 1.125.21875.31679.134042.593171.325702.8125.59375.231497.26807.416278.591041.5625.96875.15839.377732.296581.806063.40625 1.28125l1.53125-.53125c-.134041-.633587-.299754-1.194805-.53125-1.71875-.219331-.523923-.509474-.997268-.875-1.375-.353359-.377706-.781693-.648785-1.28125-.84375-.499572-.207121-1.079859-.312486-1.75-.3125zm7.25 0v1.78125h5.78125c-.182773.251583-.360673.529689-.53125.78125-.158405.251584-.329423.485861-.5.75l-5.34375 8.71875v1.96875h8.5625v-1.84375h-6.59375c.377718-.540878.785409-1.102395 1.1875-1.71875.402084-.61635.797592-1.233486 1.1875-1.875.402084-.641503.797591-1.295985 1.1875-1.9375.3899-.641504.740393-1.265126 1.09375-1.84375.353344-.578608.676315-1.103173.96875-1.59375.304604-.503134.561921-.929036.78125-1.28125v-1.90625z" fill="none" opacity=".05" stroke="#fff" stroke-width="6" transform="translate(0 -30)"/><path clip-path="url(#p)" d="m23.34375 80c-.999135.000014-1.848922.217621-2.53125.65625-.682335.426471-1.241979.973929-1.65625 1.65625-.414274.670159-.692233 1.440529-.875 2.28125-.182768.84074-.281251 1.652395-.28125 2.46875-.000001.82855.0863 1.671458.28125 2.5.194952.816366.530107 1.560789.96875 2.21875.43864.657966.99298 1.179477 1.6875 1.59375.694513.414273 1.5443.624999 2.53125.625.49956-.000001.955416-.112244 1.40625-.34375.463003-.21932.929468-.443809 1.34375-.6875v.8125h1.71875v-6.96875h-4.8125v1.6875h3.0625v2.46875c-.170591.18277-.374438.353788-.59375.5-.219329.146216-.462883.265341-.71875.375-.243698.109662-.481948.189079-.75.25-.255881.06092-.506316.09375-.75.09375-.694522.000001-1.286993-.164135-1.75-.46875-.463015-.316795-.81351-.719182-1.09375-1.21875-.268063-.499559-.471907-1.066086-.59375-1.6875-.109663-.621403-.156252-1.222334-.15625-1.84375-.000001-.621404.04659-1.253582.15625-1.875.121843-.6214.325688-1.187926.59375-1.6875.280239-.511739.64292-.914127 1.09375-1.21875.463008-.316785 1.024228-.468738 1.71875-.46875.438636.00001.820381.07255 1.125.21875.31679.134042.593171.325702.8125.59375.231497.26807.416278.591041.5625.96875.15839.377732.296581.806063.40625 1.28125l1.53125-.53125c-.134041-.633587-.299754-1.194805-.53125-1.71875-.219331-.523923-.509474-.997268-.875-1.375-.353359-.377706-.781693-.648785-1.28125-.84375-.499572-.207121-1.079859-.312486-1.75-.3125zm7.25 0v1.78125h5.78125c-.182773.251583-.360673.529689-.53125.78125-.158405.251584-.329423.485861-.5.75l-5.34375 8.71875v1.96875h8.5625v-1.84375h-6.59375c.377718-.540878.785409-1.102395 1.1875-1.71875.402084-.61635.797592-1.233486 1.1875-1.875.402084-.641503.797591-1.295985 1.1875-1.9375.3899-.641504.740393-1.265126 1.09375-1.84375.353344-.578608.676315-1.103173.96875-1.59375.304604-.503134.561921-.929036.78125-1.28125v-1.90625z" fill="none" opacity=".2" stroke="#fff" stroke-width="4" transform="translate(0 -30)"/><path clip-path="url(#p)" d="m23.34375 80c-.999135.000014-1.848922.217621-2.53125.65625-.682335.426471-1.241979.973929-1.65625 1.65625-.414274.670159-.692233 1.440529-.875 2.28125-.182768.84074-.281251 1.652395-.28125 2.46875-.000001.82855.0863 1.671458.28125 2.5.194952.816366.530107 1.560789.96875 2.21875.43864.657966.99298 1.179477 1.6875 1.59375.694513.414273 1.5443.624999 2.53125.625.49956-.000001.955416-.112244 1.40625-.34375.463003-.21932.929468-.443809 1.34375-.6875v.8125h1.71875v-6.96875h-4.8125v1.6875h3.0625v2.46875c-.170591.18277-.374438.353788-.59375.5-.219329.146216-.462883.265341-.71875.375-.243698.109662-.481948.189079-.75.25-.255881.06092-.506316.09375-.75.09375-.694522.000001-1.286993-.164135-1.75-.46875-.463015-.316795-.81351-.719182-1.09375-1.21875-.268063-.499559-.471907-1.066086-.59375-1.6875-.109663-.621403-.156252-1.222334-.15625-1.84375-.000001-.621404.04659-1.253582.15625-1.875.121843-.6214.325688-1.187926.59375-1.6875.280239-.511739.64292-.914127 1.09375-1.21875.463008-.316785 1.024228-.468738 1.71875-.46875.438636.00001.820381.07255 1.125.21875.31679.134042.593171.325702.8125.59375.231497.26807.416278.591041.5625.96875.15839.377732.296581.806063.40625 1.28125l1.53125-.53125c-.134041-.633587-.299754-1.194805-.53125-1.71875-.219331-.523923-.509474-.997268-.875-1.375-.353359-.377706-.781693-.648785-1.28125-.84375-.499572-.207121-1.079859-.312486-1.75-.3125zm7.25 0v1.78125h5.78125c-.182773.251583-.360673.529689-.53125.78125-.158405.251584-.329423.485861-.5.75l-5.34375 8.71875v1.96875h8.5625v-1.84375h-6.59375c.377718-.540878.785409-1.102395 1.1875-1.71875.402084-.61635.797592-1.233486 1.1875-1.875.402084-.641503.797591-1.295985 1.1875-1.9375.3899-.641504.740393-1.265126 1.09375-1.84375.353344-.578608.676315-1.103173.96875-1.59375.304604-.503134.561921-.929036.78125-1.28125v-1.90625z" fill="none" opacity=".6" stroke="#fff" stroke-width="2" transform="translate(0 -30)"/><path d="m66 6v55c0 1.662 1.338 3 3 3h6c1.662 0 3-1.338 3-3v-55h-4v2h-4v-2z" fill="#252525"/><path d="m70 8h4v49h-4z" fill="#4d4d4d"/><rect fill="url(#k)" height="4" rx="1" stroke="#000" stroke-linecap="square" stroke-opacity=".563636" stroke-width=".5" width="6" x="69" y="56"/><path d="m66 6v55c0 1.662 1.338 3 3 3h6c1.662 0 3-1.338 3-3v-55h-4v2h-4v-2z" style="fill:none;stroke:#000;stroke-width:2;stroke-linecap:square;clip-path:url(#i);filter:url(#j)"/><path id="v" d="m69.5 51c-.269774 0-.5.217964-.5.5v3c0 .282036.230229.5.5.5h1c.269774 0 .5-.217964.5-.5v-.5h1.5c.277 0 .5-.223.5-.5v-1c0-.277-.223-.5-.5-.5h-1.5v-.5c0-.282036-.230229-.5-.5-.5z" fill="url(#t)" stroke="#000" stroke-linecap="square" stroke-opacity=".563636" stroke-width=".5"/><use id="w" height="96" transform="translate(0 -6)" width="96" xlink:href="#v"/><use id="x" height="96" transform="translate(0 -6)" width="96" xlink:href="#w"/><use id="y" height="96" transform="translate(0 -6)" width="96" xlink:href="#x"/><use id="z" height="96" transform="translate(0 -6)" width="96" xlink:href="#y"/><use id="A" height="96" transform="translate(0 -6)" width="96" xlink:href="#z"/><use id="B" height="96" transform="translate(0 -6)" width="96" xlink:href="#A"/><use height="96" transform="translate(0 -6)" width="96" xlink:href="#B"/><path id="C" d="m74.5 48c.269774 0 .5.217964.5.5v3c0 .282036-.230229.5-.5.5h-1c-.269774 0-.5-.217964-.5-.5v-.5h-1.5c-.277 0-.5-.223-.5-.5v-1c0-.277.223-.5.5-.5h1.5v-.5c0-.282036.230229-.5.5-.5z" fill="url(#u)" stroke="#000" stroke-linecap="square" stroke-opacity=".563636" stroke-width=".5"/><use id="D" height="96" transform="translate(0 -6)" width="96" xlink:href="#C"/><use id="E" height="96" transform="translate(0 -6)" width="96" xlink:href="#D"/><use id="F" height="96" transform="translate(0 -6)" width="96" xlink:href="#E"/><use id="G" height="96" transform="translate(0 -6)" width="96" xlink:href="#F"/><use id="H" height="96" transform="translate(0 -6)" width="96" xlink:href="#G"/><use height="96" transform="translate(0 -6)" width="96" xlink:href="#H"/><path d="m65 6v55c0 2.202295 1.797705 4 4 4h6c2.202295 0 4-1.797705 4-4v-55h-1v55c0 1.662-1.338 3-3 3h-6c-1.662 0-3-1.338-3-3v-55z" fill="url(#l)"/><path d="m69.5 10.53125c-1.027701 0-1.96875.765203-1.96875 1.8125v10.8125c-.000005 1.047305.918081 1.84375 1.96875 1.84375h5c1.050668 0 1.96875-.796448 1.96875-1.84375v-10.8125c-.000003-1.047297-.941051-1.8125-1.96875-1.8125zm1.0625 9.0625h2.875v1.75h-2.875z" stroke="#000" stroke-linecap="square" stroke-opacity=".563636" stroke-width=".5" transform="translate(0 -2)"/><path d="m69.229249 9.021415c-.687139 0-1.229249.48237-1.229249 1.081548l-.0051 10.815488c.000022.599179.542134 1.081549 1.229271 1.081549h5.583221c.687139 0 1.229249-.48237 1.229249-1.081549l.0051-10.815488c0-.599178-.542112-1.081548-1.229249-1.081548h-5.583221zm.704303 7.949648h4.101324v3.118378h-4.101324z" fill="url(#n)"/><path d="m74.5625 9.96875c.277 0 .5.223.5.5v10.0625c0 .277-.223.5-.5.5h-5.09375c-.277 0-.499999-.223-.5-.5v-10.0625c0-.277.223001-.5.5-.5zm-.4375 6.96875h-4.125v3.125h4.125z" fill="url(#m)"/><rect fill="url(#o)" height="5" rx=".563135" ry=".5" stroke="#000" stroke-linecap="square" stroke-opacity=".563636" width="3.378807" x="70.3106" y="7.5"/><path d="m69.984634 16h4v1h-4z" opacity=".3"/><path d="m23.34375 50c-.999135.000014-1.848922.217621-2.53125.65625-.682335.426471-1.241979.973929-1.65625 1.65625-.414274.670159-.692233 1.440529-.875 2.28125-.182768.84074-.281251 1.652395-.28125 2.46875-.000001.82855.0863 1.671458.28125 2.5.194952.816366.530107 1.560789.96875 2.21875.43864.657966.99298 1.179477 1.6875 1.59375.694513.414273 1.5443.624999 2.53125.625.49956-.000001.955416-.112244 1.40625-.34375.463003-.21932.929468-.443809 1.34375-.6875v.8125h1.71875v-6.96875h-4.8125v1.6875h3.0625v2.46875c-.170591.18277-.374438.353788-.59375.5-.219329.146216-.462883.265341-.71875.375-.243698.109662-.481948.189079-.75.25-.255881.06092-.506316.09375-.75.09375-.694522.000001-1.286993-.164135-1.75-.46875-.463015-.316795-.81351-.719182-1.09375-1.21875-.268063-.499559-.471907-1.066086-.59375-1.6875-.109663-.621403-.156252-1.222334-.15625-1.84375-.000001-.621404.04659-1.253582.15625-1.875.121843-.6214.325688-1.187926.59375-1.6875.280239-.511739.64292-.914127 1.09375-1.21875.463008-.316785 1.024228-.468738 1.71875-.46875.438636.00001.820381.07255 1.125.21875.31679.134042.593171.325702.8125.59375.231497.26807.416278.591041.5625.96875.15839.377732.296581.806063.40625 1.28125l1.53125-.53125c-.134041-.633587-.299754-1.194805-.53125-1.71875-.219331-.523923-.509474-.997268-.875-1.375-.353359-.377706-.781693-.648785-1.28125-.84375-.499572-.207121-1.079859-.312486-1.75-.3125zm7.25 0v1.78125h5.78125c-.182773.251583-.360673.529689-.53125.78125-.158405.251584-.329423.485861-.5.75l-5.34375 8.71875v1.96875h8.5625v-1.84375h-6.59375c.377718-.540878.785409-1.102395 1.1875-1.71875.402084-.61635.797592-1.233486 1.1875-1.875.402084-.641503.797591-1.295985 1.1875-1.9375.3899-.641504.740393-1.265126 1.09375-1.84375.353344-.578608.676315-1.103173.96875-1.59375.304604-.503134.561921-.929036.78125-1.28125v-1.90625z" fill="#333"/><path d="m23.34375 50c-.999135.000014-1.848922.217621-2.53125.65625-.682335.426471-1.241979.973929-1.65625 1.65625-.414274.670159-.692233 1.440529-.875 2.28125-.182768.84074-.281251 1.652395-.28125 2.46875 0 .165813.02416.333267.03125.5.03165-.648399.104744-1.300568.25-1.96875.182767-.840721.460726-1.611091.875-2.28125.414271-.682321.973915-1.229779 1.65625-1.65625.682328-.438629 1.532115-.656236 2.53125-.65625.670141.000014 1.250428.105379 1.75.3125.499557.194965.927891.466044 1.28125.84375.365526.377732.655669.851077.875 1.375.11187.253195.227505.506686.3125.78125l.21875-.0625c-.134041-.633587-.299754-1.194805-.53125-1.71875-.219331-.523923-.509474-.997268-.875-1.375-.353359-.377706-.781693-.648785-1.28125-.84375-.499572-.207121-1.079859-.312486-1.75-.3125zm7.25 0v1h7.78125v-1zm5.09375 2.78125c-.115652.172292-.224018.345845-.34375.53125l-5.34375 8.71875v1l5.34375-8.71875c.170577-.264139.341595-.498416.5-.75.170577-.251561.348477-.529667.53125-.78125zm-12.5625 4.03125v1h4.8125v-1zm-3.3125.65625c-.007.166994-.03125.334131-.03125.5-.000002.621416.04659 1.222347.15625 1.84375.121843.621414.325687 1.187941.59375 1.6875.28024.499568.630735.901955 1.09375 1.21875.463007.304615 1.055478.468751 1.75.46875.243684.000002.494119-.03283.75-.09375.268052-.06092.506302-.140338.75-.25.255867-.109659.499421-.228784.71875-.375.219312-.146212.423159-.31723.59375-.5v-1c-.170591.18277-.374438.353788-.59375.5-.219329.146216-.462883.265341-.71875.375-.243698.109662-.481948.189079-.75.25-.255881.06092-.506316.09375-.75.09375-.694522.000001-1.286993-.164135-1.75-.46875-.463015-.316795-.81351-.719182-1.09375-1.21875-.268063-.499559-.471907-1.066086-.59375-1.6875-.08039-.455535-.105907-.894083-.125-1.34375zm12.84375 4.6875c-.232668.334823-.468087.685809-.6875 1h6.59375v-1z" opacity=".4"/></g></g></svg>