<svg height="32" width="32" xmlns="http://www.w3.org/2000/svg" xmlns:xlink="http://www.w3.org/1999/xlink"><linearGradient id="a"><stop offset="0" stop-color="#ededed"/><stop offset="1" stop-color="#b0b0b0"/></linearGradient><linearGradient id="b"><stop offset="0" stop-color="#b4b4b4"/><stop offset=".20467032" stop-color="#646464"/><stop offset=".49567693" stop-color="#fff"/><stop offset="1" stop-color="#3c3c3c"/></linearGradient><linearGradient id="c"><stop offset="0" stop-color="#818181"/><stop offset=".2" stop-color="#f9f9f9"/><stop offset="1" stop-color="#dcdcdc" stop-opacity="0"/></linearGradient><linearGradient id="d" gradientUnits="userSpaceOnUse" x1="19.035713" x2="87.5" y1="74" y2="27.428572"><stop offset="0" stop-color="#fff"/><stop offset="1" stop-color="#fff" stop-opacity="0"/></linearGradient><linearGradient id="e" gradientUnits="userSpaceOnUse" x1="6" x2="24" xlink:href="#c" y1="73" y2="73"/><linearGradient id="f" gradientTransform="matrix(-1 0 0 1 96 0)" gradientUnits="userSpaceOnUse" x1="6" x2="24" xlink:href="#c" y1="73" y2="73"/><linearGradient id="g" gradientUnits="userSpaceOnUse" x1="38.748035" x2="38.748035" y1="65.59034" y2="5.833157"><stop offset="0" stop-color="#dcdcdc"/><stop offset="1" stop-color="#fafafa"/></linearGradient><radialGradient id="h" cx="90" cy="90" gradientTransform="matrix(0 -1.085034 2 0 -90 187.65306)" gradientUnits="userSpaceOnUse" r="42"><stop offset="0" stop-color="#b4b4b4"/><stop offset="1" stop-color="#dcdcdc"/></radialGradient><clipPath id="i"><path d="m66 6v55c0 1.662 1.338 3 3 3h6c1.662 0 3-1.338 3-3v-55h-4v2h-4v-2z"/></clipPath><filter id="j" color-interpolation-filters="sRGB" height="1.07322" width="1.332308" x="-.166154" y="-.03661"><feGaussianBlur stdDeviation=".9"/></filter><linearGradient id="k" gradientUnits="userSpaceOnUse" x1="68.75" x2="75.25" xlink:href="#b" y1="58" y2="58"/><linearGradient id="l" gradientUnits="userSpaceOnUse" x1="63.484772" x2="79" y1="64.163078" y2="65"><stop offset="0" stop-color="#a2a2a2"/><stop offset="1" stop-color="#fff"/></linearGradient><linearGradient id="m" gradientTransform="matrix(-1 0 0 1 144.03125 -2)" gradientUnits="userSpaceOnUse" x1="68.96875" x2="75.0625" xlink:href="#a" y1="17.5" y2="17.5"/><linearGradient id="n" gradientUnits="userSpaceOnUse" x1="68.02903" x2="75.97097" xlink:href="#a" y1="15.763245" y2="15.763245"/><linearGradient id="o" gradientTransform="matrix(1.1262691 0 0 1 -7.401969 -49.5)" gradientUnits="userSpaceOnUse" x1="68.75" x2="72.250572" xlink:href="#b" y1="59" y2="59"/><linearGradient id="p" gradientTransform="matrix(1.0058652 0 0 .994169 100 0)" gradientUnits="userSpaceOnUse" x1="45.447727" x2="45.447727" y1="92.539597" y2="7.01654"><stop offset="0"/><stop offset="1" stop-opacity=".588235"/></linearGradient><linearGradient id="q" gradientTransform="matrix(1.0238095 0 0 1.0119048 -1.142857 -98.071429)" gradientUnits="userSpaceOnUse" x1="32.251034" x2="32.251034" xlink:href="#p" y1="6.131708" y2="90.238609"/><linearGradient id="r" gradientTransform="translate(0 -97)" gradientUnits="userSpaceOnUse" x1="32.251034" x2="32.251034" xlink:href="#p" y1="6.131708" y2="90.238609"/><linearGradient id="s" gradientUnits="userSpaceOnUse" x1="69" x2="73" y1="53" y2="53"><stop offset="0" stop-color="#fff"/><stop offset=".48973215" stop-color="#8c8c8c"/><stop offset=".50044644" stop-color="#cfcfcf"/><stop offset=".62276787" stop-color="#fff"/><stop offset=".81696427" stop-color="#c8c8c8"/><stop offset="1" stop-color="#505050"/></linearGradient><linearGradient id="t" gradientTransform="matrix(-1 0 0 1 144 -4)" gradientUnits="userSpaceOnUse" x1="69" x2="73" y1="54" y2="54"><stop offset="0" stop-color="#2f2f2f"/><stop offset=".43731192" stop-color="#fff"/><stop offset=".62138397" stop-color="#979797"/><stop offset=".7723214" stop-color="#505050"/><stop offset="1" stop-color="#e6e6e6"/></linearGradient><g transform="matrix(.32944406 0 0 .32944406 .351407 .192519)"><g><g fill="url(#q)"><path d="m12-95.03125c-5.5110903 0-10.03125 4.52016-10.03125 10.03125v71c0 5.5110902 4.5201598 10.03125 10.03125 10.03125h72c5.51109 0 10.03125-4.5201597 10.03125-10.03125v-71c0-5.51109-4.52016-10.03125-10.03125-10.03125z" opacity=".08" transform="scale(1 -1)"/><path d="m12-94.03125c-4.971633 0-9.03125 4.059617-9.03125 9.03125v71c0 4.9716329 4.0596171 9.03125 9.03125 9.03125h72c4.971633 0 9.03125-4.059617 9.03125-9.03125v-71c0-4.971633-4.059617-9.03125-9.03125-9.03125z" opacity=".1" transform="scale(1 -1)"/><path d="m12-93c-4.4091333 0-8 3.590867-8 8v71c0 4.4091333 3.5908667 8 8 8h72c4.409133 0 8-3.5908667 8-8v-71c0-4.409133-3.590867-8-8-8z" opacity=".2" transform="scale(1 -1)"/><rect height="85" opacity=".3" rx="7" transform="scale(1 -1)" width="86" x="5" y="-92"/></g><rect fill="url(#r)" height="84" opacity=".45" rx="6" transform="scale(1 -1)" width="84" x="6" y="-91"/></g><g><path d="m12 6c-3.324 0-6 2.676-6 6v72c0 3.324 2.676 6 6 6h72c3.324 0 6-2.676 6-6v-72c0-3.324-2.676-6-6-6h-9v3h-6v-3z" fill="url(#h)"/><path d="m6 56v28c0 3.324 2.676 6 6 6h12v-34z" fill="url(#e)"/><path d="m90 56v28c0 3.324-2.676 6-6 6h-12v-34z" fill="url(#f)"/><path d="m6 82v2c0 3.324 2.676 6 6 6h72c3.324 0 6-2.676 6-6v-2c0 3.324-2.676 6-6 6h-72c-3.324 0-6-2.676-6-6z" opacity=".15"/><path d="m6 78v2c0 3.324 2.676 6 6 6h72c3.324 0 6-2.676 6-6v-2c0 3.324-2.676 6-6 6h-72c-3.324 0-6-2.676-6-6z" fill="#fff" opacity=".8"/><path d="m6 76v2c0 3.324 2.676 6 6 6h72c3.324 0 6-2.676 6-6v-2c0 3.324-2.676 6-6 6h-72c-3.324 0-6-2.676-6-6z" opacity=".15"/><path d="m6 72v2c0 3.324 2.676 6 6 6h72c3.324 0 6-2.676 6-6v-2c0 3.324-2.676 6-6 6h-72c-3.324 0-6-2.676-6-6z" fill="#fff" opacity=".8"/><path d="m6 70v2c0 3.324 2.676 6 6 6h72c3.324 0 6-2.676 6-6v-2c0 3.324-2.676 6-6 6h-72c-3.324 0-6-2.676-6-6z" opacity=".15"/><path d="m12 6c-3.324 0-6 2.676-6 6v56c0 3.324 2.676 6 6 6h72c3.324 0 6-2.676 6-6v-56c0-3.324-2.676-6-6-6h-9v3h-6v-3z" fill="url(#g)"/><path d="m12 6c-3.324 0-6 2.676-6 6v56c0 3.324 2.676 6 6 6h72c3.324 0 6-2.676 6-6v-56c0-3.324-2.676-6-6-6h-9v2h9c2.245802 0 4 1.7541975 4 4v56c0 2.245802-1.754198 4-4 4h-72c-2.2458025 0-4-1.754198-4-4v-56c0-2.2458025 1.7541975-4 4-4h57v-2z" fill="url(#d)"/></g><g><path d="m66 6v55c0 1.662 1.338 3 3 3h6c1.662 0 3-1.338 3-3v-55h-4v2h-4v-2z" fill="#252525"/><path d="m70 8h4v49h-4z" fill="#4d4d4d"/><rect fill="url(#k)" height="4" rx="1" stroke="#000" stroke-linecap="square" stroke-opacity=".563636" stroke-width=".5" width="6" x="69" y="56"/><path d="m66 6v55c0 1.662 1.338 3 3 3h6c1.662 0 3-1.338 3-3v-55h-4v2h-4v-2z" style="fill:none;stroke:#000;stroke-width:2;stroke-linecap:square;clip-path:url(#i);filter:url(#j)"/><path id="u" d="m69.5 51c-.269774 0-.5.217964-.5.5v3c0 .282036.230229.5.5.5h1c.269774 0 .5-.217964.5-.5v-.5h1.5c.277 0 .5-.223.5-.5v-1c0-.277-.223-.5-.5-.5h-1.5v-.5c0-.282036-.230229-.5-.5-.5z" fill="url(#s)" stroke="#000" stroke-linecap="square" stroke-opacity=".563636" stroke-width=".5"/><use id="v" height="96" transform="translate(0 -6)" width="96" xlink:href="#u"/><use id="w" height="96" transform="translate(0 -6)" width="96" xlink:href="#v"/><use id="x" height="96" transform="translate(0 -6)" width="96" xlink:href="#w"/><use id="y" height="96" transform="translate(0 -6)" width="96" xlink:href="#x"/><use id="z" height="96" transform="translate(0 -6)" width="96" xlink:href="#y"/><use id="A" height="96" transform="translate(0 -6)" width="96" xlink:href="#z"/><use height="96" transform="translate(0 -6)" width="96" xlink:href="#A"/><path id="B" d="m74.5 48c.269774 0 .5.217964.5.5v3c0 .282036-.230229.5-.5.5h-1c-.269774 0-.5-.217964-.5-.5v-.5h-1.5c-.277 0-.5-.223-.5-.5v-1c0-.277.223-.5.5-.5h1.5v-.5c0-.282036.230229-.5.5-.5z" fill="url(#t)" stroke="#000" stroke-linecap="square" stroke-opacity=".563636" stroke-width=".5"/><use id="C" height="96" transform="translate(0 -6)" width="96" xlink:href="#B"/><use id="D" height="96" transform="translate(0 -6)" width="96" xlink:href="#C"/><use id="E" height="96" transform="translate(0 -6)" width="96" xlink:href="#D"/><use id="F" height="96" transform="translate(0 -6)" width="96" xlink:href="#E"/><use id="G" height="96" transform="translate(0 -6)" width="96" xlink:href="#F"/><use height="96" transform="translate(0 -6)" width="96" xlink:href="#G"/><path d="m65 6v55c0 2.202295 1.797705 4 4 4h6c2.202295 0 4-1.797705 4-4v-55h-1v55c0 1.662-1.338 3-3 3h-6c-1.662 0-3-1.338-3-3v-55z" fill="url(#l)"/><path d="m69.5 10.53125c-1.027701 0-1.96875.765203-1.96875 1.8125v10.8125c-.000005 1.047305.918081 1.84375 1.96875 1.84375h5c1.050668 0 1.96875-.796448 1.96875-1.84375v-10.8125c-.000003-1.047297-.941051-1.8125-1.96875-1.8125zm1.0625 9.0625h2.875v1.75h-2.875z" stroke="#000" stroke-linecap="square" stroke-opacity=".563636" stroke-width=".5" transform="translate(0 -2)"/><path d="m69.229249 9.021415c-.687139 0-1.229249.48237-1.229249 1.081548l-.0051 10.815488c.000022.599179.542134 1.081549 1.229271 1.081549h5.583221c.687139 0 1.229249-.48237 1.229249-1.081549l.0051-10.815488c0-.599178-.542112-1.081548-1.229249-1.081548h-5.583221zm.704303 7.949648h4.101324v3.118378h-4.101324z" fill="url(#n)"/><path d="m74.5625 9.96875c.277 0 .5.223.5.5v10.0625c0 .277-.223.5-.5.5h-5.09375c-.277 0-.499999-.223-.5-.5v-10.0625c0-.277.223001-.5.5-.5zm-.4375 6.96875h-4.125v3.125h4.125z" fill="url(#m)"/><rect fill="url(#o)" height="5" rx=".563135" ry=".5" stroke="#000" stroke-linecap="square" stroke-opacity=".563636" width="3.378807" x="70.3106" y="7.5"/><path d="m69.984634 16h4v1h-4z" opacity=".3"/><path d="m49.41674 28.060008c.03876 1.04041-.303596 1.545973-.613222 2.439966l-.556808.276898c-.455179.884521.04521.561545-.280774 1.26477-.711406.631739-2.155751 1.976177-2.618249 2.099336-.338047-.0073.228667-.398766.302734-.551639-.951267.652839-.763512.980121-2.218621 1.377593l-.0422-.09516c-3.587175 1.688085-8.570462-1.656644-8.505007-6.219633-.0379.289385-.108942.217039-.188193.33331-.18517-2.347382 1.084337-4.705098 3.225442-5.669284 2.094169-1.036105 4.549208-.6115 6.048242.787626-.823368-1.079165-2.463649-2.223358-4.406239-2.117422-1.903826.031-3.685357 1.240655-4.279631 2.554515-.974952.613653-1.08864 2.36676-1.513245 2.688013-.572309 4.20298 1.075292 6.018098 3.86278 8.15447.437523.295415.123161.340631.18173.565422-.925862-.433217-1.773349-1.087779-2.470975-1.889188.370346.541306.769544 1.067539 1.285874 1.480948-.873756-.294986-2.040343-2.115703-2.380112-2.18977 1.505065 2.6949 6.105517 4.726198 8.515771 3.718086-1.115341.04134-2.53169.02283-3.783974-.440109-.527525-.270867-1.241947-.831122-1.114046-.935765 3.288315 1.227736 6.684288.929308 9.529049-1.350894.724325-.564131 1.514967-1.523152 1.743633-1.536071-.344075.517623.059.248906-.205411.70581.720021-1.16314-.313932-.473699.744995-2.008475l.391016.538292c-.14641-.96634 1.199313-2.138525 1.062371-3.66555.308765-.466807.344077.502979.01671 1.576978.454319-1.191562.120139-1.383193.236417-2.366759.125309.330726.291971.681692.376805 1.030935-.296276-1.151943.302735-1.939141.451734-2.608776-.147285-.06459-.456903.50901-.528388-.850932.01073-.590827.164925-.309626.22393-.455178-.115405-.06674-.419868-.519774-.604608-1.38836.133065-.204552.358286.529248.540874.558962-.117553-.690306-.31953-1.21697-.328143-1.747081-.533983-1.115341-.189048.148996-.621404-.478863-.568433-1.771625.471114-.411254.541738-1.215675.860406 1.246681 1.350897 3.180223 1.57698 3.980769-.172262-.976243-.450014-1.922344-.789784-2.83744.262256.110672-.421589-2.008042.340634-.605039-.813469-2.990747-3.478658-5.785556-5.931116-7.096404.299291.274314.677818.61882.542599.673079-1.220414-.725615-1.005959-.78289-1.180796-1.089502-.99261-.404363-1.058926.03315-1.715644.000862-1.873251-.993901-2.234125-.888396-3.957947-1.51023l.07838.3669c-1.240653-.413408-1.445635.155887-2.786197.000861-.0814-.06331.429771-.23082.850931-.291539-1.199744.158473-1.143761-.236849-2.317666.04349.288953-.202829.595565-.337617.903898-.50987-.977968.05943-2.335754.569297-1.916748.105074-1.595496.712267-4.429494 1.711765-6.01982 3.203048l-.04996-.334171c-.728632.874617-3.17764 2.612222-3.372718 3.746078l-.195074.04521c-.378528.642075-.624419 1.369414-.925002 2.029574-.495658.845333-.726906.325557-.656283.458193-.975384 1.977468-1.460707 3.63885-1.878855 5.002234.297998.445705.0073 2.683707.119721 4.474708-.489199 8.84693 6.20887 17.435906 13.530495 19.418546 1.073138.384556 2.668633.370775 4.02599.408665-1.601098-.458188-1.807802-.24244-3.368417-.786337-1.125245-.530539-1.371566-1.13558-2.169099-1.827603l.315655.557667c-1.563196-.553364-.909063-.684703-2.181154-1.087344l.337186-.439676c-.506855-.03876-1.342283-.853516-1.570519-1.30611l-.554656.02197c-.665758-.820787-1.02103-1.413769-.99476-1.873254l-.179146.319529c-.202828-.348381-2.450733-3.082469-1.284579-2.445995-.216609-.197222-.504702-.321682-.81691-.889688l.237277-.270868c-.560253-.722173-1.032656-1.647602-.996484-1.955938.299289.403935.506854.479725.712697.549058-1.417213-3.515687-1.496881-.193364-2.569588-3.578561l.226514-.0181c-.17354-.263114-.279917-.5469-.419442-.826382l.09904-.983995c-1.019739-1.178212-.285077-5.014726-.137361-7.118369.101187-.855236.851362-1.766025 1.421089-3.194435l-.347092-.05944c.664038-1.15754 3.790435-4.650404 5.239084-4.471262.701502-.881076-.139529-.0035-.276898-.22479 1.541238-1.594636 2.025701-1.126537 3.065681-1.413768 1.120936-.66533-.962466.260101-.431066-.253643 1.939141-.494798 1.373721-1.125676 3.90283-1.376735.266992.151582-.61882.234264-.841028.431065 1.614874-.790643 5.111185-.610209 7.383206.438384 2.634183 1.232041 5.595648 4.87218 5.712779 8.297005l.133066.03574c-.06717 1.361662.208426 2.936487-.270008 4.382554l.323407-.685137" fill="#d70751"/><g transform="matrix(.43063319 0 0 .43063319 14.110417 7.162185)"><path d="m13.437 125.506c-.045.047-.045 7.506-.138 9.453-.092 1.574-.232 4.957-3.568 4.957-3.429 0-4.263-3.939-4.541-5.652-.324-1.9-.324-3.477-.324-4.17 0-2.225.139-8.436 5.375-8.436 1.576 0 2.456.465 3.151.834zm-13.437 5.469c0 13.066 6.951 13.066 7.97 13.066 2.873 0 4.727-1.576 5.514-4.309l.093 4.123c.881-.047 1.761-.139 3.197-.139.51 0 .926 0 1.298.047.371 0 .741.045 1.158.092-.741-1.482-1.297-4.818-1.297-12.049 0-7.043 0-18.951.602-22.566-1.667.789-3.105 1.299-6.256 1.576 1.251 1.344 1.251 2.039 1.251 8.154-.879-.277-1.992-.602-3.892-.602-8.294.001-9.638 7.23-9.638 12.607"/><path d="m25.13 128.609c.047-3.846.835-7.275 4.124-7.275 3.615 0 3.891 3.984 3.799 7.275zm12.51.465c0-5.422-1.065-10.752-7.923-10.752-9.452 0-9.452 10.475-9.452 12.697 0 9.406 4.216 13.113 11.306 13.113 3.149 0 4.68-.461 5.514-.695-.046-1.668.185-2.734.465-4.17-.975.604-2.226 1.391-5.006 1.391-7.229 0-7.322-6.582-7.322-8.852h12.328z"/><path d="m52.715 131.066c0 4.309-.787 10.102-6.162 10.102-.742 0-1.668-.141-2.27-.279-.093-1.668-.093-4.541-.093-7.877 0-3.986.416-6.068.742-7.09.972-3.289 3.15-3.334 3.566-3.334 3.522 0 4.217 4.865 4.217 8.478zm-13.298 5.051c0 3.43 0 5.375-.556 6.857 1.9.742 4.262 1.158 7.09 1.158 1.807 0 7.043 0 9.869-5.791 1.344-2.688 1.807-6.303 1.807-9.037 0-1.668-.186-5.328-1.529-7.646-1.296-2.176-3.382-3.289-5.605-3.289-4.449 0-5.746 3.707-6.44 5.607 0-2.363.045-10.611.415-14.828-3.011 1.391-4.866 1.621-6.857 1.807 1.807.74 1.807 3.801 1.807 13.764v11.398"/><path d="m66.535 143.855c-.928-.139-1.578-.232-2.922-.232-1.48 0-2.502.094-3.566.232.463-.881.648-1.299.787-4.309.186-4.125.232-15.154-.092-17.471-.232-1.762-.648-2.039-1.297-2.502 3.799-.371 4.865-.648 6.625-1.482-.369 2.037-.418 3.059-.418 6.162-.091 15.989-.138 17.702.883 19.602"/><path d="m81.373 130.74c-.092 2.92-.139 4.959-.928 6.58-.973 2.086-2.594 2.688-3.799 2.688-2.783 0-3.383-2.316-3.383-4.586 0-4.355 3.893-4.682 5.652-4.682zm-12.744 5.701c0 2.92.881 5.838 3.477 7.09 1.158.51 2.316.51 2.688.51 4.264 0 5.699-3.152 6.58-5.098-.047 2.039 0 3.289.139 4.912.834-.047 1.668-.139 3.059-.139.787 0 1.529.092 2.316.139-.51-.787-.787-1.252-.928-3.059-.092-1.76-.092-3.521-.092-5.977l.047-9.453c0-3.523-.928-6.998-7.879-6.998-4.586 0-7.273 1.391-8.617 2.086.557 1.02 1.02 1.898 1.436 3.893 1.809-1.576 4.172-2.41 6.58-2.41 3.848 0 3.848 2.549 3.848 6.162-.881-.045-1.623-.137-2.875-.137-5.887.001-9.779 2.268-9.779 8.479"/><path d="m108.063 139.268c.047 1.576.047 3.244.695 4.588-1.021-.092-1.623-.232-3.521-.232-1.113 0-1.715.094-2.596.232.184-.602.279-.834.371-1.623.139-1.064.232-4.633.232-5.885v-5.004c0-2.178 0-5.33-.141-6.441-.092-.787-.322-2.918-3.012-2.918-2.641 0-3.521 1.945-3.846 3.521-.369 1.621-.369 3.383-.369 10.24.045 5.932.045 6.486.508 8.109-.787-.092-1.76-.184-3.15-.184-1.113 0-1.854.045-2.779.184.324-.742.51-1.113.602-3.707.094-2.549.279-15.061-.141-18.025-.23-1.809-.695-2.225-1.203-2.688 3.754-.186 4.957-.789 6.117-1.389v4.91c.555-1.438 1.713-4.635 6.348-4.635 5.793 0 5.838 4.217 5.885 6.996z"/><path d="m66.926 111.533-3.838 3.836-3.836-3.836 3.836-3.836z" fill="#d70751"/></g></g></g></svg>