<svg height="32" width="32" xmlns="http://www.w3.org/2000/svg" xmlns:xlink="http://www.w3.org/1999/xlink"><linearGradient id="a"><stop offset="0" stop-color="#fff"/><stop offset="1" stop-color="#fff" stop-opacity="0"/></linearGradient><linearGradient id="b" gradientUnits="userSpaceOnUse" x1="36.357143" x2="36.357143" xlink:href="#a" y1="6" y2="63.893143"/><radialGradient id="c" cx="48" cy="90.171875" gradientTransform="matrix(1.1573129 0 0 .99590774 -7.551021 .197132)" gradientUnits="userSpaceOnUse" r="42" xlink:href="#a"/><linearGradient id="d" gradientUnits="userSpaceOnUse" x1="48" x2="48" y1="90" y2="5.987717"><stop offset="0" stop-color="#697890"/><stop offset="1" stop-color="#a4b4c2"/></linearGradient><linearGradient id="e" gradientTransform="matrix(1.0058652 0 0 .994169 100 0)" gradientUnits="userSpaceOnUse" x1="45.447727" x2="45.447727" y1="92.539597" y2="7.01654"><stop offset="0"/><stop offset="1" stop-opacity=".588235"/></linearGradient><linearGradient id="f" gradientTransform="matrix(1.0238095 0 0 1.0119048 -1.142857 -98.071429)" gradientUnits="userSpaceOnUse" x1="32.251034" x2="32.251034" xlink:href="#e" y1="6.131708" y2="90.238609"/><linearGradient id="g" gradientTransform="translate(0 -97)" gradientUnits="userSpaceOnUse" x1="32.251034" x2="32.251034" xlink:href="#e" y1="6.131708" y2="90.238609"/><linearGradient id="h" gradientUnits="userSpaceOnUse" x1="33.75803724" x2="33.75803724" y1="73.29584032" y2="46.94031512"><stop offset="0" stop-color="#008c00"/><stop offset="1" stop-color="#45d24f"/></linearGradient><g transform="matrix(.32944406 0 0 .32944406 .351407 .192519)"><g fill="url(#f)"><path d="m12-95.03125c-5.5110903 0-10.03125 4.52016-10.03125 10.03125v71c0 5.5110902 4.5201598 10.03125 10.03125 10.03125h72c5.51109 0 10.03125-4.5201597 10.03125-10.03125v-71c0-5.51109-4.52016-10.03125-10.03125-10.03125z" opacity=".08" transform="scale(1 -1)"/><path d="m12-94.03125c-4.971633 0-9.03125 4.059617-9.03125 9.03125v71c0 4.9716329 4.0596171 9.03125 9.03125 9.03125h72c4.971633 0 9.03125-4.059617 9.03125-9.03125v-71c0-4.971633-4.059617-9.03125-9.03125-9.03125z" opacity=".1" transform="scale(1 -1)"/><path d="m12-93c-4.4091333 0-8 3.590867-8 8v71c0 4.4091333 3.5908667 8 8 8h72c4.409133 0 8-3.5908667 8-8v-71c0-4.409133-3.590867-8-8-8z" opacity=".2" transform="scale(1 -1)"/><rect height="85" opacity=".3" rx="7" transform="scale(1 -1)" width="86" x="5" y="-92"/></g><rect fill="url(#g)" height="84" opacity=".45" rx="6" transform="scale(1 -1)" width="84" x="6" y="-91"/></g><g transform="matrix(.32944406 0 0 .32944406 .351407 .192519)"><rect fill="url(#d)" height="84" rx="6" width="84" x="6" y="6"/><path d="m12 90c-3.324 0-6-2.676-6-6v-2-68-2c0-.334721.04135-.6507.09375-.96875.0487-.295596.09704-.596915.1875-.875.00988-.03038.020892-.0636.03125-.09375.098865-.287771.2348802-.547452.375-.8125.1445918-.273507.3156161-.535615.5-.78125s.3737765-.473472.59375-.6875c.439947-.428056.94291-.814526 1.5-1.09375.278545-.139612.5734731-.246947.875-.34375-.2562018.100222-.4867109.236272-.71875.375-.00741.0044-.023866-.0045-.03125 0-.031933.0193-.062293.04251-.09375.0625-.120395.0767-.2310226.163513-.34375.25-.1061728.0808-.2132809.161112-.3125.25-.1779299.161433-.3474596.345388-.5.53125-.1075789.130255-.2183939.265285-.3125.40625-.025089.03838-.038446.08587-.0625.125-.064763.103032-.1302275.204517-.1875.3125-.1010083.194706-.2056748.415701-.28125.625-.00796.02181-.023589.04055-.03125.0625-.0318251.09195-.0358045.186831-.0625.28125-.0303323.106618-.0703894.203031-.09375.3125-.0728786.341512-.125.698205-.125 1.0625v2 68 2c0 2.781848 2.2181517 5 5 5h2 68 2c2.781848 0 5-2.218152 5-5v-2-68-2c0-.364295-.05212-.720988-.125-1.0625-.04415-.206893-.08838-.397658-.15625-.59375-.0077-.02195-.0233-.04069-.03125-.0625-.06274-.173739-.138383-.367449-.21875-.53125-.04158-.0828-.07904-.169954-.125-.25-.0546-.09721-.126774-.18835-.1875-.28125-.09411-.140965-.204921-.275995-.3125-.40625-.143174-.17445-.303141-.346998-.46875-.5-.01117-.0102-.01998-.02115-.03125-.03125-.138386-.125556-.285091-.234436-.4375-.34375-.102571-.07315-.204318-.153364-.3125-.21875-.0074-.0045-.02384.0044-.03125 0-.232039-.138728-.462548-.274778-.71875-.375.301527.0968.596455.204138.875.34375.55709.279224 1.060053.665694 1.5 1.09375.219973.214028.409366.441865.59375.6875s.355408.507743.5.78125c.14012.265048.276135.524729.375.8125.01041.03078.02133.06274.03125.09375.09046.278085.1388.579404.1875.875.0524.31805.09375.634029.09375.96875v2 68 2c0 3.324-2.676 6-6 6z" fill="url(#c)" opacity=".2"/><path d="m12 6c-3.324 0-6 2.676-6 6v2 68 2c0 .334721.04135.6507.09375.96875.0487.295596.09704.596915.1875.875.00988.03038.020892.0636.03125.09375.098865.287771.2348802.547452.375.8125.1445918.273507.3156161.535615.5.78125s.3737765.473472.59375.6875c.439947.428056.94291.814526 1.5 1.09375.278545.139612.5734731.246947.875.34375-.2562018-.100222-.4867109-.236272-.71875-.375-.00741-.0044-.023866.0045-.03125 0-.031933-.0193-.062293-.04251-.09375-.0625-.120395-.0767-.2310226-.163513-.34375-.25-.1061728-.0808-.2132809-.161112-.3125-.25-.1779299-.161433-.3474596-.345388-.5-.53125-.1075789-.130255-.2183939-.265285-.3125-.40625-.025089-.03838-.038446-.08587-.0625-.125-.064763-.103032-.1302275-.204517-.1875-.3125-.1010083-.194706-.2056748-.415701-.28125-.625-.00796-.02181-.023589-.04055-.03125-.0625-.0318251-.09195-.0358045-.186831-.0625-.28125-.0303323-.106618-.0703894-.203031-.09375-.3125-.0728786-.341512-.125-.698205-.125-1.0625v-2-68-2c0-2.781848 2.2181517-5 5-5h2 68 2c2.781848 0 5 2.218152 5 5v2 68 2c0 .364295-.05212.720988-.125 1.0625-.04415.206893-.08838.397658-.15625.59375-.0077.02195-.0233.04069-.03125.0625-.06274.173739-.138383.367449-.21875.53125-.04158.0828-.07904.169954-.125.25-.0546.09721-.126774.18835-.1875.28125-.09411.140965-.204921.275995-.3125.40625-.143174.17445-.303141.346998-.46875.5-.01117.0102-.01998.02115-.03125.03125-.138386.125556-.285091.234436-.4375.34375-.102571.07315-.204318.153364-.3125.21875-.0074.0045-.02384-.0044-.03125 0-.232039.138728-.462548.274778-.71875.375.301527-.0968.596455-.204138.875-.34375.55709-.279224 1.060053-.665694 1.5-1.09375.219973-.214028.409366-.441865.59375-.6875s.355408-.507743.5-.78125c.14012-.265048.276135-.524729.375-.8125.01041-.03078.02133-.06274.03125-.09375.09046-.278085.1388-.579404.1875-.875.0524-.31805.09375-.634029.09375-.96875v-2-68-2c0-3.324-2.676-6-6-6z" fill="url(#b)" opacity=".3"/></g><g transform="matrix(.5 0 0 .5 -2.124205 -14.125793)"><path d="m34.087481 42.328098c-2.36531 0-4.282773 1.327475-4.282773 2.964997.06881.610921.455021 1.38237.658889 1.64722.988332 1.317776.988332 2.141387.741249 2.635553h-7.989019c-1.460096 0-2.635552 1.175456-2.635552 2.635552v6.671242c.494166.247084 1.317776.247084 2.635552-.741249.264851-.203867 1.036299-.59008 1.64722-.658888 1.637523 0 2.964997 1.917463 2.964997 4.282773s-1.327474 4.282773-2.964997 4.282773c-.502574-.0085-1.266627-.457997-1.64722-.658888-1.317776-.988332-2.141386-.988332-2.635552-.741249v8.647906c0 1.460096 1.175456 2.635553 2.635552 2.635553h10.624571c.247083-.494166.247083-1.317777-.741249-2.635553-.203867-.26485-.59008-1.036299-.658888-1.64722 0-1.637522 1.917463-2.964997 4.282773-2.964997s4.282773 1.327475 4.282773 2.964997c-.0085.502575-.457997 1.266627-.658889 1.64722-.988332 1.317776-.988332 2.141387-.741249 2.635553h4.694578c1.460096 0 2.635553-1.175457 2.635553-2.635553v-7.33013c.494166-.247083 1.317776-.247083 2.635552.741249.380593.200892 1.144646.650376 1.647221.658888 1.637522 0 2.964996-1.917463 2.964996-4.282773s-1.327474-4.282773-2.964996-4.282773c-.610922.06881-1.38237.455021-1.647221.658889-1.317776.988332-2.141386.988332-2.635552.741249v-7.989019c0-1.460096-1.175457-2.635552-2.635553-2.635552h-7.33013c-.247083-.494166-.247083-1.317777.741249-2.635553.200892-.380593.650376-1.144645.658888-1.64722 0-1.637522-1.917463-2.964997-4.282773-2.964997z" fill="url(#h)"/><path d="m34.087481 42.328098c-2.36531 0-4.282773 1.327475-4.282773 2.964997.06881.610921.455021 1.38237.658889 1.64722.988332 1.317776.988332 2.141387.741249 2.635553h-7.989019c-1.460096 0-2.635552 1.175456-2.635552 2.635552v6.671242c.494166.247084 1.317776.247084 2.635552-.741249.264851-.203867 1.036299-.59008 1.64722-.658888 1.637523 0 2.964997 1.917463 2.964997 4.282773s-1.327474 4.282773-2.964997 4.282773c-.502574-.0085-1.266627-.457997-1.64722-.658888-1.317776-.988332-2.141386-.988332-2.635552-.741249v8.647906c0 1.460096 1.175456 2.635553 2.635552 2.635553h10.624571c.247083-.494166.247083-1.317777-.741249-2.635553-.203867-.26485-.59008-1.036299-.658888-1.64722 0-1.637522 1.917463-2.964997 4.282773-2.964997s4.282773 1.327475 4.282773 2.964997c-.0085.502575-.457997 1.266627-.658889 1.64722-.988332 1.317776-.988332 2.141387-.741249 2.635553h4.694578c1.460096 0 2.635553-1.175457 2.635553-2.635553v-7.33013c.494166-.247083 1.317776-.247083 2.635552.741249.380593.200892 1.144646.650376 1.647221.658888 1.637522 0 2.964996-1.917463 2.964996-4.282773s-1.327474-4.282773-2.964996-4.282773c-.610922.06881-1.38237.455021-1.647221.658889-1.317776.988332-2.141386.988332-2.635552.741249v-7.989019c0-1.460096-1.175457-2.635552-2.635553-2.635552h-7.33013c-.247083-.494166-.247083-1.317777.741249-2.635553.200892-.380593.650376-1.144645.658888-1.64722 0-1.637522-1.917463-2.964997-4.282773-2.964997zm0 1.276596c.942148 0 1.782702.296529 2.306109.658888.513593.355565.693491.696326.700068 1.008923.0055-.0096-.000396.000305 0 .02059-.01902.04294-.07306.174825-.144131.329444-.108098.235166-.251192.494392-.370625.720659h.02059c-1.032158 1.459894-1.265937 2.842181-.782429 3.809197a1.2857452 1.2857452 0 0 0 1.153054.700068h7.33013c.770102 0 1.358957.588855 1.358957 1.358957v7.989019a1.2857452 1.2857452 0 0 0 .700069 1.153054c1.005228.502614 2.450443.277816 3.973919-.864791a1.2857452 1.2857452 0 0 0 .02059-.02059c-.06528.05025.689093-.306424.947152-.370625.297418.02748.614234.198599.947151.679479.362359.523407.658888 1.36396.658888 2.306108s-.296529 1.782702-.658888 2.306109c-.355564.513593-.696326.693491-1.008922.700068.0061.000103-.02489.000085-.02059 0-.04294-.01902-.174826-.07306-.329445-.144131-.235165-.108098-.494392-.251192-.720658-.370625v.02059c-1.459895-1.032158-2.842182-1.265937-3.809197-.782429a1.2857452 1.2857452 0 0 0 -.700069 1.153054v7.33013c0 .770102-.588855 1.358957-1.358957 1.358957h-3.27385c.09611-.18295.116526-.285773.350034-.597117a1.2857452 1.2857452 0 0 0 .102951-.164722c.08146-.154327.2634-.476548.432396-.844201.168995-.367652.360066-.756186.370624-1.379547a1.2857452 1.2857452 0 0 0 0-.02059c0-1.32056-.7647-2.43955-1.791352-3.150309s-2.344854-1.091283-3.768016-1.091283-2.741365.380524-3.768017 1.091283-1.791352 1.829749-1.791352 3.150309a1.2857452 1.2857452 0 0 0 0 .144132c.113808 1.010464.453341 1.671468.905971 2.264928.0056.0074.01494.01326.02059.02059.217607.293108.237234.401012.329444.576527h-9.203844c-.770102 0-1.358957-.588855-1.358957-1.358957v-7.227179c.18295.09611.285773.116526.597118.350034a1.2857452 1.2857452 0 0 0 .164722.102952c.154327.08146.476548.263399.8442.432395.367653.168996.756186.360066 1.379547.370625a1.2857452 1.2857452 0 0 0 .02059 0c1.320561 0 2.43955-.764701 3.150309-1.791352.710759-1.026652 1.091284-2.344855 1.091284-3.768017s-.380525-2.741365-1.091284-3.768016c-.710759-1.026652-1.829748-1.791353-3.150309-1.791353a1.2857452 1.2857452 0 0 0 -.144131 0c-1.010465.113808-1.671468.453341-2.264928.905972-.0074.0056-.01326.01494-.02059.02059-.293108.217607-.401012.237234-.576528.329444v-5.250515c0-.770102.588855-1.358957 1.358957-1.358957h7.989019a1.2857452 1.2857452 0 0 0 1.153055-.700068c.502614-1.005229.277815-2.450444-.864791-3.973919a1.2857452 1.2857452 0 0 0 -.02059-.02059c.05025.06528-.306424-.689093-.370625-.947152.02748-.297418.198599-.614235.679479-.947152.523407-.362359 1.36396-.658888 2.306108-.658888z" opacity=".08"/><path d="m34.087481 42.328098c-2.36531 0-4.282773 1.327475-4.282773 2.964997.0082.0725.02491.15058.04118.226493.300398-1.434109 2.086852-2.532602 4.241592-2.532602s3.941194 1.098493 4.241593 2.532602c.01595-.07702.04001-.157631.04118-.226493 0-1.637522-1.917463-2.964997-4.282772-2.964997zm-2.779684 6.959506c-.0241.104593-.0607.203761-.102951.288264h-7.989019c-1.460096 0-2.635552 1.175456-2.635552 2.635552v.658888c0-1.460096 1.175456-2.635552 2.635552-2.635552h7.989019c.117206-.234412.176061-.546897.102951-.947152zm5.559369 0c-.07311.400255-.01425.71274.102951.947152h7.33013c1.460096 0 2.635553 1.175456 2.635553 2.635552v-.658888c0-1.460096-1.175457-2.635552-2.635553-2.635552h-7.33013c-.04225-.0845-.07886-.183671-.102951-.288264zm14.351407 9.512697c-.610922.06881-1.38237.455021-1.647221.658889-1.317776.988332-2.141386.988332-2.635552.741249v.658888c.494166.247083 1.317776.247083 2.635552-.741249.264851-.203868 1.036299-.590081 1.647221-.658888 1.559594 0 2.826267 1.744347 2.944406 3.953328.0059-.110375.02059-.216881.02059-.329444 0-2.36531-1.327474-4.282773-2.964996-4.282773zm-23.411119 3.294441c-.118139 2.208981-1.384812 3.953329-2.944407 3.953329-.502574-.0085-1.266627-.457997-1.64722-.658888-1.317776-.988332-2.141386-.988332-2.635552-.741249v.658888c.494166-.247083 1.317776-.247083 2.635552.741249.380593.200892 1.144646.650375 1.64722.658888 1.637523 0 2.964997-1.917463 2.964997-4.282773 0-.112562-.01469-.219068-.02059-.329444zm4.673987 9.780371c-.02935.140147-.04118.286615-.04118.432395.06881.610921.455021 1.38237.658888 1.64722.519508.692678.763188 1.244875.8442 1.688401.116811-.50706-.02487-1.254852-.8442-2.347289-.179671-.233417-.496871-.857012-.617708-1.420727zm8.483185 0c-.100459.4851-.444342 1.092283-.617708 1.420727-.819327 1.092437-.961011 1.840229-.8442 2.347289.08101-.443526.324692-.995723.8442-1.688401.200892-.380593.650376-1.144645.658889-1.64722 0-.14578-.01183-.292248-.04118-.432395z" opacity=".3"/><path d="m34.087481 42.328098c-2.36531 0-4.282773 1.327475-4.282773 2.964997.06881.610921.455021 1.38237.658889 1.64722.988332 1.317776.988332 2.141387.741249 2.635553h-7.989019c-1.460096 0-2.635552 1.175456-2.635552 2.635552v6.671242c.494166.247084 1.317776.247084 2.635552-.741249.264851-.203867 1.036299-.59008 1.64722-.658888 1.637523 0 2.964997 1.917463 2.964997 4.282773s-1.327474 4.282773-2.964997 4.282773c-.502574-.0085-1.266627-.457997-1.64722-.658888-1.317776-.988332-2.141386-.988332-2.635552-.741249v8.647906c0 1.460096 1.175456 2.635553 2.635552 2.635553h10.624571c.247083-.494166.247083-1.317777-.741249-2.635553-.203867-.26485-.59008-1.036299-.658888-1.64722 0-1.637522 1.917463-2.964997 4.282773-2.964997s4.282773 1.327475 4.282773 2.964997c-.0085.502575-.457997 1.266627-.658889 1.64722-.988332 1.317776-.988332 2.141387-.741249 2.635553h4.694578c1.460096 0 2.635553-1.175457 2.635553-2.635553v-7.33013c.494166-.247083 1.317776-.247083 2.635552.741249.380593.200892 1.144646.650376 1.647221.658888 1.637522 0 2.964996-1.917463 2.964996-4.282773s-1.327474-4.282773-2.964996-4.282773c-.610922.06881-1.38237.455021-1.647221.658889-1.317776.988332-2.141386.988332-2.635552.741249v-7.989019c0-1.460096-1.175457-2.635552-2.635553-2.635552h-7.33013c-.247083-.494166-.247083-1.317777.741249-2.635553.200892-.380593.650376-1.144645.658888-1.64722 0-1.637522-1.917463-2.964997-4.282773-2.964997zm0 .658888c1.060355 0 2.009065.293273 2.656143.74125.639657.442839.960358.987515.967742 1.544269.000086.0065 0 .01413 0 .02059-.0053.07276-.06601.337581-.185312.597117-.123063.267724-.281114.532662-.391215.741249h.02059c-1.003786 1.37992-1.130737 2.494876-.761839 3.23267a.65381151.65381151 0 0 0 .576527.370625h7.33013c1.109229 0 1.976665.867435 1.976665 1.976664v7.989019a.65381151.65381151 0 0 0 .370624.576527c.754046.377022 1.892656.263762 3.315031-.80302.09183-.07068.883538-.428581 1.297186-.494166.547844.01672 1.087518.317141 1.523679.947152.447977.647077.741249 1.595787.741249 2.656142 0 1.060356-.293272 2.009065-.741249 2.656143-.44284.639657-.987516.960358-1.544269.967742-.0019-.000032-.0183.000167-.02059 0-.07276-.0053-.337581-.06601-.597118-.185312-.267724-.123063-.532661-.281114-.741249-.391215v.02059c-1.37992-1.003786-2.494875-1.130737-3.23267-.761839a.65381151.65381151 0 0 0 -.370624.576527v7.33013c0 1.109229-.867436 1.976665-1.976665 1.976665h-4.138641c-.01625-.304785.06295-.735958.700069-1.58545a.65381151.65381151 0 0 0 .06177-.08236c.09079-.172005.257774-.488516.411805-.82361.15403-.335094.321982-.671384.329444-1.111874a.65381151.65381151 0 0 0 0-.02059c0-1.07393-.641288-2.010411-1.544269-2.635553-.902981-.625141-2.092437-.988332-3.397392-.988332s-2.494411.363191-3.397392.988332c-.902981.625142-1.544269 1.561623-1.544269 2.635553a.65381151.65381151 0 0 0 0 .08236c.09241.82046.468301 1.52123.80302 1.956074.637119.849492.716314 1.280665.700068 1.58545h-10.068633c-1.109229 0-1.976664-.867436-1.976664-1.976665v-8.09197c.304784-.01625.735957.06295 1.585449.700069a.65381151.65381151 0 0 0 .08236.06177c.172006.09079.488516.257775.823611.411805.335094.15403.671383.321983 1.111873.329444a.65381151.65381151 0 0 0 .02059 0c1.07393 0 2.010412-.641288 2.635553-1.544269s.988332-2.092437.988332-3.397392-.363191-2.494411-.988332-3.397392-1.561623-1.544269-2.635553-1.544269a.65381151.65381151 0 0 0 -.08236 0c-.82046.09241-1.521229.468301-1.956074.80302-.849492.637119-1.280665.716314-1.585449.700069v-6.115305c0-1.109229.867435-1.976664 1.976664-1.976664h7.989019a.65381151.65381151 0 0 0 .576527-.370625c.377022-.754045.263762-1.892655-.80302-3.315031-.07068-.09183-.428581-.883538-.494166-1.297186.01672-.547843.317141-1.087518.947151-1.523678.647078-.447977 1.595788-.74125 2.656143-.74125z" opacity=".15"/></g></svg>