<svg height="32" width="32" xmlns="http://www.w3.org/2000/svg" xmlns:xlink="http://www.w3.org/1999/xlink"><linearGradient id="a" gradientTransform="matrix(1.1538423 0 0 1.1746103 -5.728901 4.720793)" gradientUnits="userSpaceOnUse" x1="32.891998" x2="36.358002" y1="8.059" y2="5.4565"><stop offset="0" stop-color="#ba8046"/><stop offset="1" stop-color="#a3622c"/></linearGradient><radialGradient id="b" cx="48" cy="90.171875" gradientTransform="matrix(.49599117 0 0 .42857136 .192419 4.354916)" gradientUnits="userSpaceOnUse" r="42" xlink:href="#c"/><linearGradient id="c"><stop offset="0" stop-color="#fff"/><stop offset="1" stop-color="#fff" stop-opacity="0"/></linearGradient><linearGradient id="d" gradientTransform="matrix(0 -.54642861 .42857142 0 3.428572 46.278573)" gradientUnits="userSpaceOnUse" x1="7.3709" x2="23.76619" y1="51.470146" y2="51.433136"><stop offset="0" stop-color="#5d3815"/><stop offset="1" stop-color="#774f14"/></linearGradient><linearGradient id="e" gradientUnits="userSpaceOnUse" x1="248.07678816" x2="248.07678816" y1="-62.6598922" y2="-98.66515562275"><stop offset="0" stop-color="#97582e"/><stop offset="1" stop-color="#a76c44"/></linearGradient><linearGradient id="f" gradientTransform="matrix(.4285717 0 0 .43033246 227.50536 -101.24189)" gradientUnits="userSpaceOnUse" x1="36.357143" x2="36.357143" xlink:href="#c" y1="6" y2="63.893143"/><linearGradient id="g" gradientTransform="matrix(1.0058652 0 0 .994169 100 0)" gradientUnits="userSpaceOnUse" x1="45.447727" x2="45.447727" y1="92.539597" y2="7.01654"><stop offset="0"/><stop offset="1" stop-opacity=".588235"/></linearGradient><linearGradient id="h" gradientTransform="matrix(.90932204 0 0 -.90907903 8.945106 90.567956)" gradientUnits="userSpaceOnUse" x1="32.251034" x2="32.251034" xlink:href="#g" y1="6.131708" y2="90.238609"/><linearGradient id="i" gradientTransform="matrix(.88394566 0 0 -.88394572 10.163169 89.361561)" gradientUnits="userSpaceOnUse" x1="32.251034" x2="32.251034" xlink:href="#g" y1="6.131708" y2="90.238609"/><linearGradient id="j" gradientTransform="matrix(1.0028706 0 0 .92473518 -.258364 9.404201)" gradientUnits="userSpaceOnUse" x1="48" x2="48" y1="90" y2="5.987717"><stop offset="0"/><stop offset="1" stop-color="#282828"/></linearGradient><g transform="matrix(.7 0 0 .7 -.8 -1.5)"><g transform="matrix(.51177463 0 0 .51177463 -2.915536 .981307)"><path d="m20.618253 86.01187c-3.916074 0-7.105399-3.225978-7.105399-7.187076v-63.785252c0-3.961099 3.189325-7.1870759 7.105399-7.1870759h41.230022l29.823983 29.8239829v41.148345c0 3.961098-3.189315 7.187076-7.1054 7.187076z" fill="url(#h)" opacity=".2"/><path d="m21.510559 84.057885h62.16399c3.34823 0 6.04372-2.727212 6.04372-6.114824v-39.038079l-29.09854-29.0985314h-39.10917c-3.34822 0-6.04372 2.7272114-6.04372 6.1148244v62.021786c0 3.387612 2.6955 6.114824 6.04372 6.114824z" fill="url(#i)" opacity=".3"/></g><g transform="translate(-224.07679 105.6599)"><path d="m232.64822-98.6599h19.54285l13.88572 13.885715v19.542857c0 1.424571-1.14685 2.571428-2.57143 2.571428h-30.85714c-1.42458 0-2.57143-1.146857-2.57143-2.571428v-30.857144c0-1.424571 1.14685-2.571428 2.57143-2.571428z" fill="url(#e)"/><path d="m232.64822-98.6599c-1.42457 0-2.57143 1.151568-2.57143 2.581998v.860662 28.234034c1.98322 4.185183.51348 2.977317.42857.430332v-28.09486-.860668c0-1.197119.95064-2.151664 2.14286-2.151664h.85715 17.82858.85715l13.45714 13.326778v.860667 16.919747c-1.2063 3.165148.42855 3.584963.42855-.430333v-16.919747-.860668l-13.88571-13.896278z" fill="url(#f)" opacity=".3"/></g><path d="m11.793352 14.280276c-3.6177143 0-6.0338738 2.97006-6.0338738 6.219065v58.803007h15.9074858l.000001-2.444601c0-1.072272.820394-1.931414 1.840589-1.931414h47.881019c1.020192 0 1.840588.859142 1.840588 1.931414l-.000001 2.444601h16.770998v-30.375387l-21.234264-22.320236-45.114779-.672824c-1.098555-.016383-1.984151-.923376-1.984151-2.078131v-9.575494zm-2.0227189 4.370865h6.0167319v3.698591h-6.0167319zm0 7.397182h6.0167319v3.698592h-6.0167319zm0 7.397183h6.0167319v3.700782h-6.0167319zm13.7369189 1.346183h47.88102c1.020194 0 1.840588.681202 1.840588 1.526298l.000001 27.330817c0 .845095-.820394 1.526298-1.840588 1.526298h-47.881019c-1.020195 0-1.840589-.681203-1.840589-1.526298l-.000001-27.330817c0-.845096.820394-1.526298 1.840588-1.526298zm-13.7369189 6.053191h6.0167319v3.698591h-6.0167319zm0 7.397183h6.0167319v3.698591h-6.0167319zm70.2016379 0h6.016732v3.698591h-6.016732zm-70.2016379 7.399372h6.0167319v3.698591h-6.0167319zm70.2016379 0h6.016732v3.698591h-6.016732zm-70.2016379 7.397184h6.0167319v3.698591h-6.0167319zm70.2016379 0h6.016732v3.698591h-6.016732zm-70.2016379 7.399372h6.0167319v3.698592h-6.0167319zm70.2016379 0h6.016732v3.698592h-6.016732zm-70.2016379 7.397183h6.0167319v1.456225h-6.0167319zm70.2016379 0h6.016732v1.456225h-6.016732z" fill="url(#j)" opacity=".525" transform="matrix(.42734698 0 0 .40804399 3.531577 1.173019)"/><g fill="#fff" transform="matrix(.5119047 0 0 .5119047 -24.168579 -10.156935)"><path d="m87.148299 52.937418v17.077167l13.887891-8.538584z"/><path d="m87.039916 52.270341a.66004487.67707464 0 0 0 -.541915.667077v17.077167a.66004487.67707464 0 0 0 .997125.578134l13.894714-8.538584a.66004487.67707464 0 0 0 0-1.156267l-13.894714-8.538583a.66004487.67707464 0 0 0 -.45521-.08894z" opacity=".2"/><path d="m87.169976 51.469849c-.875323-.02408-1.554641.863371-1.430657 1.731061v17.013798c.117438.993031 1.318802 1.597029 2.145986 1.045087 4.661655-2.85881 9.313852-5.735302 13.981415-8.583055.65547-.477314.82602-1.518841.26012-2.134646-.50983-.510588-1.20644-.796296-1.80114-1.205008-4.18291-2.570554-8.365941-5.140904-12.548779-7.711586-.190213-.0967-.401378-.116541-.606945-.155651z" opacity=".05"/></g><path d="m23.095 7.0007336c3.179734 0 1.245573 14.2927244 1.245573 14.2927244s17.662844-1.870813 17.662844 3.984542c0-1.426319-.003417-4.392285-.003417-4.392285l-13.88572-13.885715z" fill-rule="evenodd" opacity=".2" stroke-width=".955713"/><path d="m6 39.721429c0 1.816327 1.146857 3.278571 2.571429 3.278571h30.857142c1.424572 0 2.571429-1.462244 2.571429-3.278571v-6.15h-36z" fill="url(#d)"/><path d="m8.5714282 43c-1.4245712 0-2.5714282-1.151569-2.5714282-2.581994v-.999812c.017537-5.232461.4285697-5.344044.4285697-.430358v.860665c0 1.197119.9506364 2.151662 2.1428585 2.151662h.8571448 29.142844.857145c1.192222 0 2.142858-.954543 2.142858-2.151662v-.860665c.04207-5.833454.42858-3.83731.42858.430333v.999812c-.00001 1.43045-1.146867 2.582019-2.571438 2.582019z" fill="url(#b)" opacity=".2"/><path d="m24.277 7c3.0062 0 1.165566 13.240168 1.165566 13.240168s5.861339-.69769 10.60943-.09698c3.232358.408943 5.948783 1.419626 5.948783 3.661816 0-1.348482-.000779-2.919289-.000779-2.919289l-13.88572-13.885715z" fill-rule="evenodd" opacity=".2" stroke-width=".903555"/><path d="m25.695529 7.0086975c2.832447 0 1.020233 12.2306245 1.020233 12.2306245s15.288338-1.878262 15.288338 3.337578c0-1.270538-.0041-1.691185-.0041-1.691185l-13.88572-13.885715z" fill="url(#a)" fill-rule="evenodd" stroke-width=".851331"/><g fill="#fff" transform="matrix(.50367364 0 0 .50367364 .241707 -4.034649)"><path d="m40.927948 88.058662h-4.40918l-.6958 1.992188h-2.834473l4.050293-10.935059h3.361816l4.050293 10.935059h-2.834472zm-3.706055-2.028808h2.995606l-1.494141-4.350586z"/><path d="m53.503632 79.46003v2.314453q-.900879-.402832-1.757813-.60791-.856934-.205079-1.618652-.205079-1.010742 0-1.494141.278321-.483398.27832-.483398.864258 0 .439453.322265.688476.32959.241699 1.186524.417481l1.201172.241699q1.82373.366211 2.592773 1.113281.769043.74707.769043 2.124024 0 1.809082-1.07666 2.695312-1.069336.878906-3.273926.878906-1.040039 0-2.087402-.197754-1.047364-.197754-2.094727-.585937v-2.380371q1.047363.55664 2.021485.842285.981445.27832 1.889648.27832.922852 0 1.413574-.307617.490723-.307617.490723-.878906 0-.512696-.336914-.791016-.32959-.27832-1.325684-.498047l-1.091308-.241699q-1.640625-.351562-2.402344-1.120605-.754395-.769043-.754395-2.072754 0-1.633301 1.054688-2.512207 1.054687-.878907 3.032226-.878907.900879 0 1.853028.139161.952148.131836 1.970215.402832z"/><path d="m56.704315 79.115791h7.609863v2.131348h-4.790039v2.036133h4.504395v2.131347h-4.504395v4.636231h-2.819824z"/></g></g><path d="m3.4000001 22h25.1999999v1h-25.1999999z" opacity=".3"/><path d="m3.4000001 21h25.1999999v1h-25.1999999z" fill="#fff" opacity=".2"/></svg>