<svg height="32" width="32" xmlns="http://www.w3.org/2000/svg" xmlns:xlink="http://www.w3.org/1999/xlink"><linearGradient id="a"><stop offset="0"/><stop offset="1" stop-opacity="0"/></linearGradient><linearGradient id="b" gradientTransform="matrix(1.1538423 0 0 1.1746103 -5.728901 4.720793)" gradientUnits="userSpaceOnUse" x1="32.891998" x2="36.358002" y1="8.059" y2="5.4565"><stop offset="0" stop-color="#f0f0f0"/><stop offset="1" stop-color="#b0b0b0"/></linearGradient><radialGradient id="c" cx="48" cy="90.171875" gradientTransform="matrix(.49599117 0 0 .42857136 .192419 4.354916)" gradientUnits="userSpaceOnUse" r="42" xlink:href="#d"/><linearGradient id="d"><stop offset="0" stop-color="#fff"/><stop offset="1" stop-color="#fff" stop-opacity="0"/></linearGradient><linearGradient id="e" gradientTransform="matrix(0 -.54642861 .42857142 0 3.428572 46.278573)" gradientUnits="userSpaceOnUse" x1="7.3709" x2="23.76619" y1="51.470146" y2="51.433136"><stop offset="0" stop-color="#724c25"/><stop offset="1" stop-color="#866038"/></linearGradient><linearGradient id="f" gradientUnits="userSpaceOnUse" x1="248.07678816" x2="248.07678816" y1="-62.6598922" y2="-98.66515562275"><stop offset="0" stop-color="#e0e0e0"/><stop offset="1" stop-color="#f0f0f0"/></linearGradient><linearGradient id="g" gradientTransform="matrix(.4285717 0 0 .43033246 3.42857 4.41801)" gradientUnits="userSpaceOnUse" x1="36.357143" x2="36.357143" xlink:href="#d" y1="6" y2="63.893143"/><linearGradient id="h" gradientTransform="matrix(1.0058652 0 0 .994169 100 0)" gradientUnits="userSpaceOnUse" x1="45.447727" x2="45.447727" y1="92.539597" y2="7.01654"><stop offset="0"/><stop offset="1" stop-opacity=".588235"/></linearGradient><linearGradient id="i" gradientTransform="matrix(.90932204 0 0 -.90907903 8.945106 90.567956)" gradientUnits="userSpaceOnUse" x1="32.251034" x2="32.251034" xlink:href="#h" y1="6.131708" y2="90.238609"/><linearGradient id="j" gradientTransform="matrix(.88394566 0 0 -.88394572 10.163169 89.361561)" gradientUnits="userSpaceOnUse" x1="32.251034" x2="32.251034" xlink:href="#h" y1="6.131708" y2="90.238609"/><radialGradient id="k" cx="18.557627" cy="22.300018" gradientTransform="matrix(2.1157858 0 0 1.5475939 -13.456982 9.888744)" gradientUnits="userSpaceOnUse" r="19.2292"><stop offset="0" stop-color="#937c63"/><stop offset="1" stop-color="#291f19"/></radialGradient><linearGradient id="l" gradientUnits="userSpaceOnUse" x1="40.07646983167" x2="26.78448572519" xlink:href="#a" y1="51.71546280094" y2="54.35276132001"/><linearGradient id="m" gradientUnits="userSpaceOnUse" x1="23.91064047188" x2="53.21810093427" xlink:href="#d" y1="40.59361083532" y2="73.86256230983"/><radialGradient id="n" cx="22.33046590394" cy="39.90528641078" gradientUnits="userSpaceOnUse" r="7.0683807147" xlink:href="#o"/><linearGradient id="o"><stop offset="0" stop-color="#fff"/><stop offset="1" stop-color="#b9b9b0"/></linearGradient><radialGradient id="p" cx="6.024219" cy="25.271027" gradientTransform="matrix(.95183294 -.549541 .64140465 1.1109468 -10.558153 20.872304)" gradientUnits="userSpaceOnUse" r="4.831029"><stop offset="0" stop-color="#5b676b"/><stop offset="1" stop-color="#141718"/></radialGradient><linearGradient id="q" gradientTransform="matrix(.95526818 -.71548351 .71548351 .95526818 -12.184704 26.530736)" gradientUnits="userSpaceOnUse" x1="6.305153" x2="5.984629" xlink:href="#d" y1="23.362427" y2="31.57"/><radialGradient id="r" cx="32.35217386" cy="39.8388560416" gradientUnits="userSpaceOnUse" r="8.2976624679" xlink:href="#o"/><linearGradient id="s" gradientUnits="userSpaceOnUse" x1="-12.287321" x2="-21.551067" y1="21.117612" y2="13.060211"><stop offset="0" stop-color="#6e3d09"/><stop offset=".24242425" stop-color="#ea8113"/><stop offset=".62121212" stop-color="#5c3307"/><stop offset="1" stop-color="#e07c12"/></linearGradient><linearGradient id="t" gradientUnits="userSpaceOnUse" x1="-27.012215" x2="-23.297619" y1="28.198475" y2="31.635975"><stop offset="0" stop-color="#bdbdbd"/><stop offset=".33333334" stop-color="#e2e2e2"/><stop offset=".66666669" stop-color="#a3a3a3"/><stop offset="1" stop-color="#ddd"/></linearGradient><radialGradient id="u" cx="15.415101" cy="35.356506" gradientTransform="matrix(1.572694 0 0 1.532639 -55.36682 -21.35823)" gradientUnits="userSpaceOnUse" r="7.579156"><stop offset="0" stop-color="#696969"/><stop offset="1"/></radialGradient><linearGradient id="v" gradientTransform="matrix(.755165 .395143 -.395143 .755165 -25.91245 6.532586)" gradientUnits="userSpaceOnUse" x1="13.236155" x2="7.752109" xlink:href="#d" y1="37.752247" y2="42.282146"/><linearGradient id="w" gradientUnits="userSpaceOnUse" x1="37.27097421696" x2="35.08201581357" xlink:href="#a" y1="54.23850479268" y2="54.7659647352"/><g transform="matrix(.7 0 0 .7 -.8 -1.5)"><g transform="matrix(.51177463 0 0 .51177463 -2.915536 .981307)"><path d="m20.618253 86.01187c-3.916074 0-7.105399-3.225978-7.105399-7.187076v-63.785252c0-3.961099 3.189325-7.1870759 7.105399-7.1870759h41.230022l29.823983 29.8239829v41.148345c0 3.961098-3.189315 7.187076-7.1054 7.187076z" fill="url(#i)" opacity=".2"/><path d="m21.510559 84.057885h62.16399c3.34823 0 6.04372-2.727212 6.04372-6.114824v-39.038079l-29.09854-29.0985314h-39.10917c-3.34822 0-6.04372 2.7272114-6.04372 6.1148244v62.021786c0 3.387612 2.6955 6.114824 6.04372 6.114824z" fill="url(#j)" opacity=".3"/></g><path d="m232.64822-98.6599h19.54285l13.88572 13.885715v19.542857c0 1.424571-1.14685 2.571428-2.57143 2.571428h-30.85714c-1.42458 0-2.57143-1.146857-2.57143-2.571428v-30.857144c0-1.424571 1.14685-2.571428 2.57143-2.571428z" fill="url(#f)" transform="translate(-224.07679 105.6599)"/><g transform="matrix(.41975185 0 0 .41975185 5.453288 1.980539)"><path d="m18.42722 32.665404s3.43074 7.07466 11.45674 6.875074c16.81949-.421967 19.76887-9.195895 20.19084-10.461799.42197-1.265903 1.06763-1.074152 1.2169.0958 5.48559 49.79219-38.069136 28.428302-39.615959 19.947667 8.650329-2.531805 6.540493-7.384435 6.540493-7.384435z" fill="url(#k)" fill-rule="evenodd" stroke="#2e3436" stroke-miterlimit="10" stroke-width="1.193505"/><path d="m24.82849 53.6689c8.04291 1.60865 12.13877.117071 14.53591-1.733895-.63295-.817563-1.71424-1.714245-1.71424-1.714245s2.80868.780483 3.7977 2.057093c.98619 1.272954.36618 2.057253.10814 3.685985-.57457-1.430534-1.64702-1.967006-1.79222-2.535401-2.15578 2.980095-7.52677 2.856296-14.93524.240463z" fill="url(#l)" fill-rule="evenodd"/><path d="m50.16774 31.920497c-.67072 1.106253-1.67865 2.426593-3.20754 3.692405-3.14121 2.600698-8.41488 4.967782-17.04474 5.184288-5.04181.125376-8.29813-2.308417-10.29398-4.475644l-.14919 5.333475c.16245.499843.49585 1.659567-.0746 3.244842-.61383 1.705872-2.571406 3.450856-5.930217 4.774019.29877.623049.59136 1.245566 1.49188 2.125931 1.22686 1.199407 2.932491 2.492096 4.960497 3.655108 4.05606 2.326025 9.31124 4.169166 14.21017 4.251862 4.89894.0827 9.37752-1.473442 12.45721-5.967525 2.83905-4.142916 4.39506-11.156815 3.58051-21.818761z" fill="none" opacity=".185393" stroke="url(#m)" stroke-miterlimit="10" stroke-width="1.193505"/><path d="m27.18309 43.3201a4.85263 4.85263 0 1 1 -9.705256 0 4.85263 4.85263 0 1 1 9.705256 0z" fill="url(#n)" fill-rule="evenodd" stroke="#888a85" stroke-miterlimit="10" stroke-width="1.193505"/><path d="m17.516374 45.148442a7.2789429 5.1691043 54.192151 1 1 -8.384113 6.048563 7.2789429 5.1691043 54.192151 1 1 8.384113-6.048563z" fill="url(#p)" fill-rule="evenodd" stroke="#000" stroke-miterlimit="10" stroke-width="1.193505"/><path d="m25.80162 44.039002a2.3364513 2.3364513 0 1 1 -4.67289 0 2.3364513 2.3364513 0 1 1 4.67289 0z" fill="#2e3436" fill-rule="evenodd" stroke="#000" stroke-miterlimit="10" stroke-width="1.193505"/><path d="m9.488891 43.33592c-.762543.571134-1.164428 1.537452-1.128218 2.848761.03621 1.31131.553711 2.916825 1.615879 4.334964s2.457334 2.366295 3.705531 2.769843c1.24819.403548 2.28854.289656 3.05108-.281478.762541-.571134 1.165871-1.5836 1.135711-2.900973-.0302-1.317373-.53367-2.890059-1.593521-4.305112-1.05985-1.415052-2.42746-2.340535-3.683172-2.739991s-2.340748-.297148-3.10329.273986z" fill="none" opacity=".280899" stroke="url(#q)" stroke-miterlimit="10" stroke-width="1.193505"/><g fill-rule="evenodd"><path d="m13.007831 45.53542a2.1098386 2.531806 0 1 1 -4.219676 0 2.1098386 2.531806 0 1 1 4.219676 0z" fill="#fff"/><path d="m24.18407 42.960621a1.6175453 1.6175453 0 1 1 -3.23509 0 1.6175453 1.6175453 0 1 1 3.23509 0z" fill="#fff"/><path d="m38.04875 43.847554a5.696565 5.696565 0 1 1 -11.39313 0 5.696565 5.696565 0 1 1 11.39313 0z" fill="url(#r)" stroke="#888a85" stroke-miterlimit="10" stroke-width="1.193504"/><path d="m36.42704 44.691485a2.7427901 2.7427901 0 1 1 -5.48557 0 2.7427901 2.7427901 0 1 1 5.48557 0z" fill="#2e3436" stroke="#000" stroke-miterlimit="10" stroke-width="1.193505"/><path d="m34.52819 43.425582a1.898855 1.898855 0 1 1 -3.79771 0 1.898855 1.898855 0 1 1 3.79771 0z" fill="#fff"/></g><g transform="matrix(-.13707642 -.46530459 .46530459 -.13707642 35.54292 53.219391)"><g stroke-linecap="round" stroke-width="2.460453"><path d="m-23.364209 23.568336 3.710098 3.469175c8.346983-6.380847 17.0940772-20.0993736 17.0940772-20.0993736 1.97631487-2.2424123-.1169199-3.7504826-2.1649066-2.3979188 0 0-12.9703626 10.1148664-18.6392686 19.0281174z" fill="url(#s)" stroke="#673907"/><path d="m-30.449715 32.813894 2.24632 1.93382 8.492766-7.367031.275061-.705828 1.094405-.01782c-.4375-1.5625-2.941514-4.383455-4.816514-4.383455l.08202 1.090075-.669991.380027z" fill="url(#t)" stroke="#888a85"/><path d="m-23.801371 28.376767-4.364933 5.266471" fill="none" stroke="#fff" stroke-linejoin="round"/></g><path d="m-45.341208 42.769835c10.443958 0 18.370039 1.24373 19.870605-6.354738 1.209249-6.123314-7.210534-9.057368-11.38287-3.590861-4.019277 5.265971-8.487735 9.945599-8.487735 9.945599z" fill="url(#u)"/><path d="m8.8749989 37.75a1.2499999 1.2499999 0 1 1 -2.4999997 0 1.2499999 1.2499999 0 1 1 2.4999997 0z" fill="#fff" opacity=".527778" transform="matrix(2.069903 0 0 2.069903 -44.75012 -41.50978)"/><path d="m8.8749989 37.75a1.2499999 1.2499999 0 1 1 -2.4999997 0 1.2499999 1.2499999 0 1 1 2.4999997 0z" fill="#fff" transform="matrix(1.396669 0 0 1.396669 -32.05526 -25.87664)"/><path d="m-38.543723 40.909242s3.72152.0943 6.116538-1.411995c.847351-.532923 1.515774.649985.493819 1.087367-2.207394.944732-6.610357.324628-6.610357.324628z" fill="url(#v)" opacity=".427778"/></g><path d="m33.49964 55.662644c1.78711.170781 3.40104-.324888 4.0721-.565778.11721-.662855.64038-1.934978 2.44202-2.018775l-.63295-1.107664s-2.34719 1.60875-4.85262 2.083464z" fill="url(#w)" fill-rule="evenodd"/></g><path d="m23.095 7.0007336c3.179734 0 1.245573 14.2927244 1.245573 14.2927244s17.662844-1.870813 17.662844 3.984542c0-1.426319-.003417-4.392285-.003417-4.392285l-13.88572-13.885715z" fill-rule="evenodd" opacity=".2" stroke-width=".955713"/><path d="m8.57143 7c-1.42457 0-2.57143 1.151568-2.57143 2.581998v.860662 28.234034c1.98322 4.185183.51348 2.977317.42857.430332v-28.09486-.860668c0-1.197119.95064-2.151664 2.14286-2.151664h.85715 17.82858.85715l13.45714 13.326778v.860667 16.919747c-1.2063 3.165148.42855 3.584963.42855-.430333v-16.919747-.860668l-13.88571-13.896278z" fill="url(#g)"/><path d="m6 39.721429c0 1.816327 1.146857 3.278571 2.571429 3.278571h30.857142c1.424572 0 2.571429-1.462244 2.571429-3.278571v-6.15h-36z" fill="url(#e)"/><path d="m8.5714282 43c-1.4245712 0-2.5714282-1.151569-2.5714282-2.581994v-.999812c.017537-5.232461.4285697-5.344044.4285697-.430358v.860665c0 1.197119.9506364 2.151662 2.1428585 2.151662h.8571448 29.142844.857145c1.192222 0 2.142858-.954543 2.142858-2.151662v-.860665c.04207-5.833454.42858-3.83731.42858.430333v.999812c-.00001 1.43045-1.146867 2.582019-2.571438 2.582019z" fill="url(#c)" opacity=".2"/><g fill-rule="evenodd"><path d="m24.277 7c3.0062 0 1.165566 13.240168 1.165566 13.240168s5.861339-.69769 10.60943-.09698c3.232358.408943 5.948783 1.419626 5.948783 3.661816 0-1.348482-.000779-2.919289-.000779-2.919289l-13.88572-13.885715z" opacity=".2" stroke-width=".903555"/><path d="m25.695529 7.0086975c2.832447 0 1.020233 12.2306245 1.020233 12.2306245s15.288338-1.878262 15.288338 3.337578c0-1.270538-.0041-1.691185-.0041-1.691185l-13.88572-13.885715z" fill="url(#b)" stroke-width=".851331"/></g></g><path d="m3.4000001 22h25.1999999v1h-25.1999999z" opacity=".3"/><g fill="#fff"><path d="m3.4000001 21h25.1999999v1h-25.1999999z" opacity=".8"/><g transform="matrix(.35257155 0 0 .35257155 -.734366 -4.015007)"><path d="m40.467285 83.592674 3.793945 5.581055h-2.937011l-2.556153-3.735352-2.534179 3.735352h-2.95166l3.793945-5.581055-3.647461-5.354004h2.944336l2.395019 3.52295 2.387696-3.52295h2.958984z"/><path d="m54.090332 88.573143q-.776367.402832-1.618652.60791-.842285.205078-1.757813.205078-2.731933 0-4.328613-1.523437-1.59668-1.530762-1.59668-4.145508 0-2.62207 1.59668-4.145508 1.59668-1.530762 4.328613-1.530762.915528 0 1.757813.205079.842285.205078 1.618652.60791v2.263183q-.783691-.534668-1.54541-.783691-.761719-.249024-1.604004-.249024-1.508789 0-2.373047.966797-.864258.966797-.864258 2.666016 0 1.691895.864258 2.658691.864258.966797 2.373047.966797.842285 0 1.604004-.249023.761719-.249024 1.54541-.783692z"/><path d="m56.434082 78.23867h7.609863v2.131348h-4.790039v2.036133h4.504395v2.131347h-4.504395v4.636231h-2.819824z"/></g></g></svg>