<svg height="32" width="32" xmlns="http://www.w3.org/2000/svg" xmlns:xlink="http://www.w3.org/1999/xlink"><linearGradient id="a" gradientTransform="matrix(1.1538423 0 0 1.1746103 -5.728901 4.720793)" gradientUnits="userSpaceOnUse" x1="32.891998" x2="36.358002" y1="8.059" y2="5.4565"><stop offset="0" stop-color="#f0f0f0"/><stop offset="1" stop-color="#b0b0b0"/></linearGradient><radialGradient id="b" cx="48" cy="90.171875" gradientTransform="matrix(.49599117 0 0 .42857136 .192419 4.354916)" gradientUnits="userSpaceOnUse" r="42" xlink:href="#c"/><linearGradient id="c"><stop offset="0" stop-color="#fff"/><stop offset="1" stop-color="#fff" stop-opacity="0"/></linearGradient><linearGradient id="d" gradientTransform="matrix(0 -.54642861 .42857142 0 3.428572 46.278573)" gradientUnits="userSpaceOnUse" x1="7.3709" x2="23.76619" y1="51.470146" y2="51.433136"><stop offset="0" stop-color="#347ba6"/><stop offset="1" stop-color="#4fa6c9"/></linearGradient><linearGradient id="e" gradientUnits="userSpaceOnUse" x1="248.07678816" x2="248.07678816" y1="-62.6598922" y2="-98.66515562275"><stop offset="0" stop-color="#e0e0e0"/><stop offset="1" stop-color="#f0f0f0"/></linearGradient><linearGradient id="f" gradientTransform="matrix(.4285717 0 0 .43033246 3.42857 4.41801)" gradientUnits="userSpaceOnUse" x1="36.357143" x2="36.357143" xlink:href="#c" y1="6" y2="63.893143"/><linearGradient id="g" gradientTransform="matrix(1.0058652 0 0 .994169 100 0)" gradientUnits="userSpaceOnUse" x1="45.447727" x2="45.447727" y1="92.539597" y2="7.01654"><stop offset="0"/><stop offset="1" stop-opacity=".588235"/></linearGradient><linearGradient id="h" gradientTransform="matrix(.90932204 0 0 -.90907903 8.945106 90.567956)" gradientUnits="userSpaceOnUse" x1="32.251034" x2="32.251034" xlink:href="#g" y1="6.131708" y2="90.238609"/><linearGradient id="i" gradientTransform="matrix(.88394566 0 0 -.88394572 10.163169 89.361561)" gradientUnits="userSpaceOnUse" x1="32.251034" x2="32.251034" xlink:href="#g" y1="6.131708" y2="90.238609"/><radialGradient id="j" cx="416.79999" cy="399.14001" gradientTransform="matrix(-.68434476 -.11784438 .05201977 -.30208009 320.90908 232.38496)" gradientUnits="userSpaceOnUse" r="20.131001"><stop offset="0" stop-color="#8ae234"/><stop offset="1" stop-color="#4db07d" stop-opacity=".88235"/></radialGradient><radialGradient id="k" cx="416.64999" cy="392.07999" gradientTransform="matrix(.50495097 -.55051743 .57013949 .52295392 -381.30372 83.382266)" gradientUnits="userSpaceOnUse" r="27.077"><stop offset="0" stop-color="#fce94f"/><stop offset=".5" stop-color="#66d09a"/><stop offset="1" stop-color="#66c6d0"/></radialGradient><linearGradient id="l" gradientUnits="userSpaceOnUse" x1="58.6059632969" x2="49.99575320449" y1="49.1589931942" y2="36.2697023953"><stop offset="0" stop-color="#bcae3e"/><stop offset=".5" stop-color="#3b9a6a"/><stop offset="1" stop-color="#3d8891"/></linearGradient><linearGradient id="m" gradientTransform="matrix(.4428657 -.07397026 .07397026 .4428657 -162.50579 -89.255584)" gradientUnits="userSpaceOnUse" x1="375.63" x2="393.42999" y1="311.79001" y2="374.92001"><stop offset="0" stop-color="#204a87"/><stop offset="1" stop-color="#97bcd4"/></linearGradient><linearGradient id="n" gradientUnits="userSpaceOnUse" x1="22.1489502611" x2="36.20245801129" y1="20.75783509558" y2="48.7368674749"><stop offset="0" stop-color="#304456"/><stop offset="1" stop-color="#6394be"/></linearGradient><g transform="matrix(.7 0 0 .7 -.8 -1.5)"><g transform="matrix(.51177463 0 0 .51177463 -2.915536 .981307)"><path d="m20.618253 86.01187c-3.916074 0-7.105399-3.225978-7.105399-7.187076v-63.785252c0-3.961099 3.189325-7.1870759 7.105399-7.1870759h41.230022l29.823983 29.8239829v41.148345c0 3.961098-3.189315 7.187076-7.1054 7.187076z" fill="url(#h)" opacity=".2"/><path d="m21.510559 84.057885h62.16399c3.34823 0 6.04372-2.727212 6.04372-6.114824v-39.038079l-29.09854-29.0985314h-39.10917c-3.34822 0-6.04372 2.7272114-6.04372 6.1148244v62.021786c0 3.387612 2.6955 6.114824 6.04372 6.114824z" fill="url(#i)" opacity=".3"/></g><path d="m232.64822-98.6599h19.54285l13.88572 13.885715v19.542857c0 1.424571-1.14685 2.571428-2.57143 2.571428h-30.85714c-1.42458 0-2.57143-1.146857-2.57143-2.571428v-30.857144c0-1.424571 1.14685-2.571428 2.57143-2.571428z" fill="url(#e)" transform="translate(-224.07679 105.6599)"/><g transform="matrix(.43478261 0 0 .43478261 3.440994 3.012423)"><g fill-rule="evenodd" stroke-width="1.445636"><path d="m40.760316 57.865839c2.873541 3.688501 6.566272 4.256149 11.053146 4.20179-.307798.710488-.615576 1.420955-.92336 2.131441.859846-1.027077 1.500823-2.142999 2.922499-2.000169-.879551 1.265614-1.023974 2.084605-1.356816 3.018119 1.701379-1.535366 4.368705-2.062465 6.520398-2.677919-.572381-.873628-1.442285-1.504371-2.01464-2.377965.99566-1.697826 1.420388-3.998262 1.502307-6.035822-.385175 1.061494-.950557 1.911603-1.484659 2.659948 1.089072-2.704668.262612-4.49437-.662461-6.751465.101073 1.068628.20193 2.137392.302888 3.206017-.8585 3.147622-1.843377 3.521375-3.739568 5.434636-3.129512.777781-7.924981 1.480266-12.119632-.808406z" fill="url(#j)" stroke="#4b8748"/><path d="m28.403018 41.208261c.208058 8.363699 7.355398 13.317004 13.979878 17.168178 3.745551 1.405067 7.122171 1.020564 10.977005.547734 2.38144-4.871225 1.386024-8.902037-.70354-13.716207-1.302113-1.878031-1.627252-3.830736-1.914333-6.030217-1.502381 1.401288-.716395 3.703128-.751843 5.681719-.898413-3.361198-2.982448-6.146446-4.802215-9.062977-1.352517-5.080359-6.37545-8.188656-10.374075-11.193841 6.561263 10.252247 8.120234 10.775963 5.321871 23.035711-6.030234 2.187545-9.87794-.860155-11.732986-6.431143z" fill="url(#k)" stroke="url(#l)"/><path d="m22.296653 34.517863c1.497253 5.700998 5.571673 10.344001 11.054876 12.554085 2.455072.520199 4.901476 1.02106 6.876794.438863-.467906-3.625458.31808-7.086699.630774-11.051991.161523-3.417862.336838-6.449455-1.672672-9.252053-3.093658-4.174438-7.100964-5.745929-11.763628-5.450448-1.135304 1.584617-2.272541 2.908625-3.136061 4.271377-1.436007 2.2681-2.544323 6.063373-.73824 8.509393 1.776492 1.661004 4.104258 3.416334 5.480498 3.620268-2.087303.142219-3.499978-.920169-5.204092-1.965489-.508904-.557555-1.017786-1.115104-1.526689-1.672643z" fill="url(#m)" stroke="url(#n)"/></g><path d="m66.799114 66.360404c-3.042963-1.249463-10.074349-4.724736-12.033665-5.947731-1.464453-.914046-2.34636-1.132856-3.799131-.942591-1.329427.174188-1.539027.132486-.704913-.140107.652892-.213357 1.169417-.493518 1.147857-.622572-.021562-.129009-1.316593-1.281891-2.877784-2.561889-10.113668-8.290253-17.735064-19.354181-19.870747-28.843351-.406713-1.808963-.54742-2.706988-.314188-1.994974 3.337103 10.150105 6.970275 16.363832 13.774991 23.560021 4.015002 4.245921 10.32338 9.11097 11.168594 8.613666.401579-.2363.550439-.123393.455013.345335-.173556.85224 4.524061 3.706023 10.225657 6.211973 2.199289.966673 4.164394 2.039117 4.366978 2.382996.45928.780424.511984.782474-1.538645-.05967z" fill="#2a6a28" stroke-width="1.927514"/></g><path d="m23.095 7.0007336c3.179734 0 1.245573 14.2927244 1.245573 14.2927244s17.662844-1.870813 17.662844 3.984542c0-1.426319-.003417-4.392285-.003417-4.392285l-13.88572-13.885715z" fill-rule="evenodd" opacity=".2" stroke-width=".955713"/><path d="m8.57143 7c-1.42457 0-2.57143 1.151568-2.57143 2.581998v.860662 28.234034c1.98322 4.185183.51348 2.977317.42857.430332v-28.09486-.860668c0-1.197119.95064-2.151664 2.14286-2.151664h.85715 17.82858.85715l13.45714 13.326778v.860667 16.919747c-1.2063 3.165148.42855 3.584963.42855-.430333v-16.919747-.860668l-13.88571-13.896278z" fill="url(#f)"/><path d="m6 39.721429c0 1.816327 1.146857 3.278571 2.571429 3.278571h30.857142c1.424572 0 2.571429-1.462244 2.571429-3.278571v-6.15h-36z" fill="url(#d)"/><path d="m8.5714282 43c-1.4245712 0-2.5714282-1.151569-2.5714282-2.581994v-.999812c.017537-5.232461.4285697-5.344044.4285697-.430358v.860665c0 1.197119.9506364 2.151662 2.1428585 2.151662h.8571448 29.142844.857145c1.192222 0 2.142858-.954543 2.142858-2.151662v-.860665c.04207-5.833454.42858-3.83731.42858.430333v.999812c-.00001 1.43045-1.146867 2.582019-2.571438 2.582019z" fill="url(#b)" opacity=".2"/><path d="m24.277 7c3.0062 0 1.165566 13.240168 1.165566 13.240168s5.861339-.69769 10.60943-.09698c3.232358.408943 5.948783 1.419626 5.948783 3.661816 0-1.348482-.000779-2.919289-.000779-2.919289l-13.88572-13.885715z" fill-rule="evenodd" opacity=".2" stroke-width=".903555"/><path d="m25.695529 7.0086975c2.832447 0 1.020233 12.2306245 1.020233 12.2306245s15.288338-1.878262 15.288338 3.337578c0-1.270538-.0041-1.691185-.0041-1.691185l-13.88572-13.885715z" fill="url(#a)" fill-rule="evenodd" stroke-width=".851331"/><path d="m8.57143 7v9.965278l4.496528-9.965278zm5.503472 0 4.496529 9.965278v-9.965278zm-.503472 3.90625-1.684027 3.888888h1.626988l.954861 2.204862h1.79315l-1.319444-2.934027-.03472-.06944z" fill-opacity=".313725" opacity=".5"/></g><path d="m3.4000001 22h25.1999999v1h-25.1999999z" opacity=".3"/><g fill="#fff"><path d="m3.4000001 21h25.1999999v1h-25.1999999z" opacity=".8"/><g transform="matrix(.35257155 0 0 .35257155 -.605396 -4.258048)"><path d="m32.916428 78.928009h4.680175q2.087403 0 3.200684.930176 1.120605.922851 1.120605 2.636719 0 1.721191-1.120605 2.651367-1.113281.922851-3.200684.922851h-1.860351v3.793946h-2.819824zm2.819824 2.043457v3.054199h1.560058q.820313 0 1.26709-.395508.446778-.402832.446778-1.135253 0-.732422-.446778-1.12793-.446777-.395508-1.26709-.395508z"/><path d="m51.512619 79.272247v2.314453q-.900879-.402832-1.757812-.60791-.856934-.205078-1.618653-.205078-1.010742 0-1.49414.27832-.483399.278321-.483399.864258 0 .439453.322266.688477.32959.241699 1.186523.41748l1.201172.2417q1.823731.36621 2.592773 1.113281.769043.74707.769043 2.124023 0 1.809082-1.07666 2.695313-1.069336.878906-3.273925.878906-1.04004 0-2.087403-.197754-1.047363-.197754-2.094726-.585937v-2.380372q1.047363.556641 2.021484.842286.981445.27832 1.889648.27832.922852 0 1.413575-.307617.490722-.307617.490722-.878906 0-.512696-.336914-.791016-.32959-.27832-1.325683-.498047l-1.091309-.241699q-1.640625-.351563-2.402344-1.120606-.754394-.769043-.754394-2.072754 0-1.6333 1.054687-2.512207 1.054688-.878906 3.032227-.878906.900879 0 1.853027.13916.952149.131836 1.970215.402832z"/><path d="m57.533127 81.059357v6.672363h1.010742q1.728516 0 2.636719-.856934.915527-.856933.915527-2.490234 0-1.625977-.908203-2.475586-.908203-.849609-2.644043-.849609zm-2.819824-2.131348h2.973632q2.490235 0 3.706055.358887 1.223145.351562 2.094727 1.201172.769043.739746 1.142578 1.706543.373535.966796.373535 2.189941 0 1.237793-.373535 2.211914-.373535.966797-1.142578 1.706543-.878907.849609-2.109375 1.208496-1.230469.351563-3.691407.351563h-2.973632z"/></g></g></svg>