<svg height="32" width="32" xmlns="http://www.w3.org/2000/svg" xmlns:xlink="http://www.w3.org/1999/xlink"><linearGradient id="a" gradientTransform="matrix(1.1538423 0 0 1.1746103 -5.728901 4.720793)" gradientUnits="userSpaceOnUse" x1="32.891998" x2="36.358002" y1="8.059" y2="5.4565"><stop offset="0" stop-color="#ddecff"/><stop offset="1" stop-color="#bfd3e6"/></linearGradient><radialGradient id="b" cx="48" cy="90.171875" gradientTransform="matrix(.49599117 0 0 .42857136 .192419 4.354916)" gradientUnits="userSpaceOnUse" r="42" xlink:href="#c"/><linearGradient id="c"><stop offset="0" stop-color="#fff"/><stop offset="1" stop-color="#fff" stop-opacity="0"/></linearGradient><linearGradient id="d" gradientTransform="matrix(0 -.54642861 .42857142 0 3.428572 46.278573)" gradientUnits="userSpaceOnUse" x1="7.3709" x2="23.76619" y1="51.470146" y2="51.433136"><stop offset="0" stop-color="#637381"/><stop offset="1" stop-color="#6a7e8d"/></linearGradient><linearGradient id="e" gradientUnits="userSpaceOnUse" x1="248.07678816" x2="248.07678816" y1="-62.6598922" y2="-98.66515562275"><stop offset="0" stop-color="#a8bece"/><stop offset="1" stop-color="#cddfed"/></linearGradient><linearGradient id="f" gradientTransform="matrix(.4285717 0 0 .43033246 227.50536 -101.24189)" gradientUnits="userSpaceOnUse" x1="36.357143" x2="36.357143" xlink:href="#c" y1="6" y2="63.893143"/><linearGradient id="g" gradientTransform="matrix(1.0058652 0 0 .994169 100 0)" gradientUnits="userSpaceOnUse" x1="45.447727" x2="45.447727" y1="92.539597" y2="7.01654"><stop offset="0"/><stop offset="1" stop-opacity=".588235"/></linearGradient><linearGradient id="h" gradientTransform="matrix(.90932204 0 0 -.90907903 8.945106 90.567956)" gradientUnits="userSpaceOnUse" x1="32.251034" x2="32.251034" xlink:href="#g" y1="6.131708" y2="90.238609"/><linearGradient id="i" gradientTransform="matrix(.88394566 0 0 -.88394572 10.163169 89.361561)" gradientUnits="userSpaceOnUse" x1="32.251034" x2="32.251034" xlink:href="#g" y1="6.131708" y2="90.238609"/><linearGradient id="j" gradientTransform="matrix(.38761952 0 0 .38873919 5.391162 2.539983)" gradientUnits="userSpaceOnUse" x1="53.926277" x2="54.176353" y1="69.432274" y2="24.459568"><stop offset="0" stop-color="#080a0b"/><stop offset="1" stop-color="#212831"/></linearGradient><linearGradient id="k" gradientTransform="matrix(.43068839 0 0 .43193242 3.323513 .467706)" gradientUnits="userSpaceOnUse" x1="19.862228" x2="79.795067" y1="22.729111" y2="76.817848"><stop offset="0" stop-color="#8f9fb1"/><stop offset="1" stop-color="#e5efff"/></linearGradient><g transform="matrix(.7 0 0 .7 -.8 -1.5)"><g transform="matrix(.51177463 0 0 .51177463 -2.915536 .981307)"><path d="m20.618253 86.01187c-3.916074 0-7.105399-3.225978-7.105399-7.187076v-63.785252c0-3.961099 3.189325-7.1870759 7.105399-7.1870759h41.230022l29.823983 29.8239829v41.148345c0 3.961098-3.189315 7.187076-7.1054 7.187076z" fill="url(#h)" opacity=".2"/><path d="m21.510559 84.057885h62.16399c3.34823 0 6.04372-2.727212 6.04372-6.114824v-39.038079l-29.09854-29.0985314h-39.10917c-3.34822 0-6.04372 2.7272114-6.04372 6.1148244v62.021786c0 3.387612 2.6955 6.114824 6.04372 6.114824z" fill="url(#i)" opacity=".3"/></g><g transform="translate(-224.07679 105.6599)"><path d="m232.64822-98.6599h19.54285l13.88572 13.885715v19.542857c0 1.424571-1.14685 2.571428-2.57143 2.571428h-30.85714c-1.42458 0-2.57143-1.146857-2.57143-2.571428v-30.857144c0-1.424571 1.14685-2.571428 2.57143-2.571428z" fill="url(#e)"/><path d="m232.64822-98.6599c-1.42457 0-2.57143 1.151568-2.57143 2.581998v.860662 28.234034c1.98322 4.185183.51348 2.977317.42857.430332v-28.09486-.860668c0-1.197119.95064-2.151664 2.14286-2.151664h.85715 17.82858.85715l13.45714 13.326778v.860667 16.919747c-1.2063 3.165148.42855 3.584963.42855-.430333v-16.919747-.860668l-13.88571-13.896278z" fill="url(#f)" opacity=".5"/></g><path d="m11.450313 30.714286c-1.431539 0-1.7360275-.215288-1.7360275-1.559028v-16.881945c0-1.343737.3064845-1.487533 1.7360275-1.559027h19.281115l6.993728 7.314287v11.126685c0 1.34374-.30449 1.559028-1.736027 1.559028z" fill="url(#k)"/><path d="m12.705281 29.285848c-1.288385 0-1.562425-.193758-1.562425-1.403124v-14.432114c0-1.209363.274227-1.403125 1.562425-1.403125h17.376796l6.127707 6.297278v9.537961c0 1.209366-.274042 1.403124-1.562425 1.403124z" fill="url(#j)"/><path d="m23.095 7.0007336c3.179734 0 1.245573 14.2927244 1.245573 14.2927244s17.662844-1.870813 17.662844 3.984542c0-1.426319-.003417-4.392285-.003417-4.392285l-13.88572-13.885715z" fill-rule="evenodd" opacity=".2" stroke-width=".955713"/><path d="m6 39.721429c0 1.816327 1.146857 3.278571 2.571429 3.278571h30.857142c1.424572 0 2.571429-1.462244 2.571429-3.278571v-6.15h-36z" fill="url(#d)"/><path d="m8.5714282 43c-1.4245712 0-2.5714282-1.151569-2.5714282-2.581994v-.999812c.017537-5.232461.4285697-5.344044.4285697-.430358v.860665c0 1.197119.9506364 2.151662 2.1428585 2.151662h.8571448 29.142844.857145c1.192222 0 2.142858-.954543 2.142858-2.151662v-.860665c.04207-5.833454.42858-3.83731.42858.430333v.999812c-.00001 1.43045-1.146867 2.582019-2.571438 2.582019z" fill="url(#b)" opacity=".2"/><g fill="#fff" transform="matrix(.427736 0 0 .427736 7.226399 3.504595)"><path d="m14.722656 52.480469 17.8125-7.410125v-4.637203l-17.8125-7.39446v5.56151l10.825363 4.167217-10.825363 4.182883z" stroke-width=".802111"/><path d="m32.535157 53.59375h13.359375v3.339844h-13.359375z" stroke-width=".783805"/></g><g fill-rule="evenodd"><path d="m24.277 7c3.0062 0 1.165566 13.240168 1.165566 13.240168s5.861339-.69769 10.60943-.09698c3.232358.408943 5.948783 1.419626 5.948783 3.661816 0-1.348482-.000779-2.919289-.000779-2.919289l-13.88572-13.885715z" opacity=".2" stroke-width=".903555"/><path d="m25.695529 7.0086975c2.832447 0 1.020233 12.2306245 1.020233 12.2306245s15.288338-1.878262 15.288338 3.337578c0-1.270538-.0041-1.691185-.0041-1.691185l-13.88572-13.885715z" fill="url(#a)" stroke-width=".851331"/></g></g><path d="m3.4000001 22h25.1999999v1h-25.1999999z" opacity=".3"/><g fill="#fff"><path d="m3.4000001 21h25.1999999v1h-25.1999999z" opacity=".4"/><g transform="matrix(.39664301 0 0 .39664301 -3.312718 -5.024726)"><path d="m33.03125 72.397133v2.057292q-.800781-.358073-1.5625-.540365-.761719-.182292-1.438802-.182292-.898438 0-1.328125.247396-.429688.247396-.429688.768229 0 .390625.286459.61198.292968.214843 1.054687.371093l1.067708.214844q1.621094.325521 2.304688.989583.683594.664063.683594 1.888021 0 1.608073-.957032 2.395833-.95052.78125-2.910156.78125-.924479 0-1.855468-.175781-.93099-.175781-1.86198-.520833v-2.115885q.93099.494791 1.796875.748697.872396.247396 1.679688.247396.820312 0 1.25651-.273437.436198-.273438.436198-.78125 0-.455729-.299479-.703125-.292969-.247396-1.178385-.442709l-.970053-.214843q-1.458333-.3125-2.135416-.996094-.670573-.683594-.670573-1.842448 0-1.451823.9375-2.233073.9375-.78125 2.695312-.78125.800782 0 1.647136.123698.846354.117188 1.751302.358073z"/><path d="m35.876302 72.091144h2.50651v3.704427h3.697917v-3.704427h2.50651v9.720051h-2.50651v-4.121093h-3.697917v4.121093h-2.50651z"/><path d="m47.048177 72.091144h6.764323v1.894531h-4.257813v1.809896h4.003907v1.894531h-4.003907v2.226562h4.401042v1.894531h-6.907552z"/><path d="m56.162759 72.091144h2.50651v7.82552h4.401042v1.894531h-6.907552z"/><path d="m64.652341 72.091144h2.506511v7.82552h4.401041v1.894531h-6.907552z"/></g></g></svg>