<svg height="32" width="32" xmlns="http://www.w3.org/2000/svg" xmlns:xlink="http://www.w3.org/1999/xlink"><linearGradient id="a" gradientTransform="matrix(1.1538423 0 0 1.1746103 -5.728901 4.720793)" gradientUnits="userSpaceOnUse" x1="32.891998" x2="36.358002" y1="8.059" y2="5.4565"><stop offset="0" stop-color="#f0f0f0"/><stop offset="1" stop-color="#b0b0b0"/></linearGradient><radialGradient id="b" cx="48" cy="90.171875" gradientTransform="matrix(.49599117 0 0 .42857136 .192419 4.354916)" gradientUnits="userSpaceOnUse" r="42" xlink:href="#c"/><linearGradient id="c"><stop offset="0" stop-color="#fff"/><stop offset="1" stop-color="#fff" stop-opacity="0"/></linearGradient><linearGradient id="d" gradientTransform="matrix(0 -.54642861 .42857142 0 3.428572 46.278573)" gradientUnits="userSpaceOnUse" x1="7.3709" x2="23.76619" y1="51.470146" y2="51.433136"><stop offset="0" stop-color="#9b4341"/><stop offset="1" stop-color="#b35b59"/></linearGradient><linearGradient id="e" gradientUnits="userSpaceOnUse" x1="248.07678816" x2="248.07678816" y1="-62.6598922" y2="-98.66515562275"><stop offset="0" stop-color="#e0e0e0"/><stop offset="1" stop-color="#f0f0f0"/></linearGradient><linearGradient id="f" gradientTransform="matrix(.4285717 0 0 .43033246 227.50536 -101.24189)" gradientUnits="userSpaceOnUse" x1="36.357143" x2="36.357143" xlink:href="#c" y1="6" y2="63.893143"/><linearGradient id="g" gradientTransform="matrix(1.0058652 0 0 .994169 100 0)" gradientUnits="userSpaceOnUse" x1="45.447727" x2="45.447727" y1="92.539597" y2="7.01654"><stop offset="0"/><stop offset="1" stop-opacity=".588235"/></linearGradient><linearGradient id="h" gradientTransform="matrix(.90932204 0 0 -.90907903 8.945106 90.567956)" gradientUnits="userSpaceOnUse" x1="32.251034" x2="32.251034" xlink:href="#g" y1="6.131708" y2="90.238609"/><linearGradient id="i" gradientTransform="matrix(.88394566 0 0 -.88394572 10.163169 89.361561)" gradientUnits="userSpaceOnUse" x1="32.251034" x2="32.251034" xlink:href="#g" y1="6.131708" y2="90.238609"/><g transform="matrix(.7 0 0 .7 -.8 -1.5)"><g transform="matrix(.51177463 0 0 .51177463 -2.915536 .981307)"><path d="m20.618253 86.01187c-3.916074 0-7.105399-3.225978-7.105399-7.187076v-63.785252c0-3.961099 3.189325-7.1870759 7.105399-7.1870759h41.230022l29.823983 29.8239829v41.148345c0 3.961098-3.189315 7.187076-7.1054 7.187076z" fill="url(#h)" opacity=".2"/><path d="m21.510559 84.057885h62.16399c3.34823 0 6.04372-2.727212 6.04372-6.114824v-39.038079l-29.09854-29.0985314h-39.10917c-3.34822 0-6.04372 2.7272114-6.04372 6.1148244v62.021786c0 3.387612 2.6955 6.114824 6.04372 6.114824z" fill="url(#i)" opacity=".3"/></g><g transform="translate(-224.07679 105.6599)"><path d="m232.64822-98.6599h19.54285l13.88572 13.885715v19.542857c0 1.424571-1.14685 2.571428-2.57143 2.571428h-30.85714c-1.42458 0-2.57143-1.146857-2.57143-2.571428v-30.857144c0-1.424571 1.14685-2.571428 2.57143-2.571428z" fill="url(#e)"/><path d="m232.64822-98.6599c-1.42457 0-2.57143 1.151568-2.57143 2.581998v.860662 28.234034c1.98322 4.185183.51348 2.977317.42857.430332v-28.09486-.860668c0-1.197119.95064-2.151664 2.14286-2.151664h.85715 17.82858.85715l13.45714 13.326778v.860667 16.919747c-1.2063 3.165148.42855 3.584963.42855-.430333v-16.919747-.860668l-13.88571-13.896278z" fill="url(#f)"/></g><g fill="#af4141" transform="matrix(.46950534 0 0 .46950534 1.469063 1.251827)"><path d="m43.135108-96.283117v2.766105h44.06189v-2.766105z" transform="matrix(1.1 0 0 1.1 -37.847176 133.19368)"/><g transform="matrix(.92234774 0 0 .92234774 -27.997299 -59.916774)"><g transform="matrix(1.0661332 0 0 1.0661332 31.224101 64.232475)"><path d="m15.789525 26.170333c-.399853 0-.756324-.04149-1.069411-.124481-.313094-.08299-.58469-.215014-.814792-.396078-.230103-.181065-.420598-.41494-.571485-.701625-.147114-.290457-.258394-.641269-.333837-1.052438l1.657872-.243306c.03773.222562.09053.41117.158431.565827.0679.150889.148999.27537.243305.373445.09807.09431.209353.164091.333838.209357.12448.04151.260278.06224.407395.06224.331948.000001.582798-.111278.752548-.333838.173517-.222556.260277-.541305.260282-.956247v-4.181456h-1.589973v-1.30706h3.253501v5.448909c-.000005.403624-.05847.769525-.175405 1.097703-.116944.324408-.290463.601662-.520561.831765-.226334.226331-.507362.401736-.843082.526218-.331954.12071-.714829.181065-1.148626.181065"/><path d="m25.684736 26.059605-.692049-1.993102h-2.973046l-.692049 1.993102h-1.633237l2.845708-7.800782h1.926666l2.834634 7.800782zm-1.827011-5.464423c-.04429-.129177-.08859-.258359-.132873-.387548-.0406-.132867-.07751-.252822-.110729-.359866-.02953-.110721-.05537-.201149-.07751-.271283-.01846-.07012-.02953-.108876-.03322-.116264-.0037.01108-.01477.05168-.03322.1218-.01845.07013-.04429.158717-.07751.265747-.02953.107044-.06644.226999-.110728.359866-.0406.129189-.08305.258371-.127337.387548l-.769559 2.242241h2.242241l-.76956-2.242241"/><path d="m33.418701 26.059605-3.724258-6.00699c.02021.162407.03841.324808.0546.487203.01618.140261.02831.291589.03639.453984.01213.162407.0182.317426.0182.465058v4.600745h-1.58918v-7.800782h2.044098l3.778849 6.056817c-.02022-.155017-.03843-.317418-.0546-.487202-.01619-.143944-.03034-.306345-.04246-.487203-.0081-.180853-.01214-.363554-.01214-.548103v-4.534309h1.589179v7.800782h-2.098686"/></g><g transform="matrix(1.2841863 0 0 1.2964131 -30.461604 81.049091)"><path d="m64.127514 24.097733c.1888.04037.335935.124351.441406.251954.106769.127605.160154.285157.160156.472656-.000002.287761-.09896.510417-.296875.667969-.197918.157552-.479168.236328-.84375.236328-.122396 0-.248698-.01237-.378906-.03711-.128907-.02344-.26237-.05924-.40039-.107422v-.380859c.109374.0638.229166.11198.359375.144531.130207.03255.266275.04883.408203.04883.247394.000001.435545-.04883.564453-.146484.130206-.09766.19531-.239583.195312-.425781-.000002-.171874-.06055-.305989-.18164-.402344-.119794-.09765-.287111-.146483-.501953-.146484h-.339844v-.324219h.355469c.194009.000002.342446-.03841.445312-.115234.102863-.07812.154295-.190103.154297-.335938-.000002-.149737-.05339-.26432-.160156-.34375-.105471-.08073-.257163-.121091-.455078-.121094-.108074.000003-.22396.01172-.347657.03516-.123698.02344-.259766.0599-.408203.109375v-.351563c.149739-.04166.289713-.07291.419922-.09375.131509-.02083.255207-.03125.371094-.03125.299477.000003.536456.06836.710937.205078.174477.13542.261717.319013.261719.550781-.000002.161461-.04623.298179-.138672.410157-.09245.110679-.22396.187501-.394531.230468m-2.400391 6.040235h.644532v-2.224609l-.701172.140625v-.359375l.697265-.140625h.394532v2.583984h.644531v.332031h-1.679688zm3.322266-2.324219c-.203126.000003-.356121.100263-.458984.300782-.101564.19922-.152345.49935-.152344.90039-.000001.399741.05078.699871.152344.900391.102863.199219.255858.298828.458984.298828.204425 0 .35742-.09961.458984-.298828.102863-.20052.154295-.50065.154297-.900391-.000002-.40104-.05143-.70117-.154297-.90039-.101564-.200519-.254559-.300779-.458984-.300782m0-.3125c.326821.000003.57617.12956.748047.388672.173175.257815.259763.632815.259765 1.125-.000002.490887-.08659.865886-.259765 1.125-.171877.257813-.421226.386719-.748047.386719-.326824 0-.576824-.128906-.75-.386719-.171875-.259114-.257813-.634113-.257813-1.125 0-.492185.08594-.867185.257813-1.125.173176-.259112.423176-.388669.75-.388672m-3.322266 7.436719h.644532v-2.224609l-.701172.140625v-.359375l.697265-.140625h.394532v2.583984h.644531v.332032h-1.679688zm2.378907-2.583984h1.875v.167969l-1.058594 2.748047h-.41211l.996094-2.583985h-1.40039zm-2.107422 7.383984h1.376953v.332032h-1.851563v-.332032c.149739-.154947.353515-.362629.611328-.623046.259114-.261718.421874-.430338.488282-.50586.1263-.141925.214191-.261717.263672-.359375.05078-.09896.07617-.195961.07617-.291015-.000001-.154946-.05469-.281248-.164062-.378907-.108074-.09765-.24935-.146481-.423828-.146484-.123699.000003-.254558.02149-.392578.06445-.13672.04297-.283204.108075-.439453.195313v-.398438c.158853-.0638.307291-.111976.445312-.144531.13802-.03255.264322-.04883.378906-.04883.302082.000003.542967.07552.722657.226562.179685.151044.269529.352867.269531.605469-.000002.119794-.02279.233726-.06836.341797-.04427.106772-.125653.233074-.24414.378906-.03255.03776-.13607.147137-.310547.328125-.174481.179688-.420574.431641-.738281.755859m3.291015-2.240234-.996093 1.556641h.996093zm-.103515-.34375h.496093v1.900391h.416016v.328125h-.416016v.6875h-.392578v-.6875h-1.316406v-.38086z"/><path d="m71.694389 23.041094-.996093 1.55664h.996093zm-.103515-.34375h.496093v1.90039h.416016v.328125h-.416016v.6875h-.392578v-.6875h-1.316406v-.380859zm-2.185547 7.383984h.644531v-2.224609l-.701172.140625v-.359375l.697266-.140625h.394531v2.583984h.644531v.332032h-1.679687zm2.546875 0h.644531v-2.224609l-.701172.140625v-.359375l.697266-.140625h.394531v2.583984h.644531v.332032h-1.679687zm-2.546875 4.800001h.644531v-2.22461l-.701172.140625v-.359375l.697266-.140625h.394531v2.583985h.644531v.332031h-1.679687zm3.322265-1.052735c-.187501.000002-.335287.05013-.443359.150391-.106771.100261-.160157.238282-.160156.414062-.000001.175782.05339.313803.160156.414063.108072.100261.255858.150391.443359.15039.187499.000001.335285-.05013.44336-.15039.108071-.101562.162107-.239583.162109-.414063-.000002-.17578-.05404-.313801-.162109-.414062-.106773-.100259-.254559-.150389-.44336-.150391m-.394531-.167969c-.169271-.04167-.301433-.120441-.396484-.236328-.09375-.115883-.140625-.257159-.140625-.423828 0-.23307.08268-.417315.248047-.552734.166666-.135414.39453-.203122.683593-.203125.290363.000003.518228.06771.683594.203125.165363.135419.248045.319664.248047.552734-.000002.166669-.04753.307945-.142578.423828-.09375.115887-.224611.194663-.392578.236328.190102.04427.337888.130861.443359.259766.106769.128907.160154.286459.160156.472656-.000002.282553-.08659.49935-.259765.650391-.171877.151042-.418622.226562-.740235.226562-.321615 0-.569011-.07552-.742187-.226562-.171875-.151041-.257813-.367838-.257813-.650391 0-.186197.05339-.343749.160157-.472656.10677-.128905.255207-.215493.445312-.259766m-.144531-.623046c-.000001.151043.04687.268882.140625.353515.09505.08464.227863.126955.398437.126953.16927.000002.301431-.04232.396485-.126953.09635-.08463.144529-.202472.144531-.353515-.000002-.15104-.04818-.268878-.144531-.353516-.09505-.08463-.227215-.126951-.396485-.126953-.170574.000002-.303386.04232-.398437.126953-.09375.08464-.140626.202476-.140625.353516m-2.511719 6.64375h1.376953v.332031h-1.851562v-.332031c.149739-.154948.353515-.36263.611328-.623047.259113-.261718.421874-.430337.488281-.505859.126301-.141926.214191-.261718.263672-.359375.05078-.09896.07617-.195962.07617-.291016-.000002-.154946-.05469-.281248-.164063-.378906-.108074-.09765-.24935-.146482-.423828-.146485-.123699.000003-.254558.02149-.392578.06445-.136719.04297-.283203.108076-.439453.195313v-.398438c.158854-.0638.307291-.111976.445313-.144531.13802-.03255.264321-.04883.378906-.04883.302082.000003.542967.07552.722656.226563.179686.151044.269529.352866.269531.605468-.000002.119794-.02279.233726-.06836.341797-.04427.106773-.125653.233075-.244141.378906-.03255.03776-.136069.147137-.310547.328125-.17448.179689-.420574.431642-.738281.75586m2.210938-2.583985h1.548828v.332032h-1.1875v.714843c.05729-.01953.114582-.03385.171875-.04297.05729-.01041.114582-.01562.171875-.01563.325519.000002.583331.08919.773437.267578.190102.178387.285154.419923.285157.724609-.000003.313803-.09766.557943-.292969.732422-.195314.173177-.470705.259766-.826172.259766-.122397 0-.247397-.01042-.375-.03125-.126303-.02083-.257162-.05208-.392578-.09375v-.396485c.117187.0638.238281.111329.363281.142578.124999.03125.257161.04688.396484.04687.22526.000001.403645-.05924.535157-.177734.131508-.118489.197264-.279296.197265-.482422-.000001-.203124-.06576-.363931-.197265-.482422-.131512-.118488-.309897-.177733-.535157-.177734-.105469.000001-.210938.01172-.316406.03516-.104167.02344-.210938.0599-.320312.109375v-1.464844"/><path d="m78.257362 22.697344h1.548828v.332031h-1.1875v.714844c.05729-.01953.114583-.03385.171875-.04297.05729-.01042.114583-.01562.171875-.01563.32552.000002.583332.08919.773438.267578.190102.178387.285154.419923.285156.72461-.000002.313802-.09766.557943-.292969.732421-.195314.173184-.470704.259772-.826171.259772-.122397 0-.247397-.01042-.375-.03125-.126303-.02083-.257162-.05208-.392579-.09375v-.396484c.117188.0638.238281.111328.363282.142578.124999.03125.25716.04687.396484.04687.225259 0 .403644-.05925.535156-.177735.131509-.118489.197264-.279296.197266-.482421-.000002-.203124-.06576-.363931-.197266-.482422-.131512-.118488-.309897-.177733-.535156-.177735-.10547.000002-.210938.01172-.316406.03516-.104167.02344-.210938.0599-.320313.109375v-1.464844m-1.208984 7.383984h.644531v-2.224609l-.701172.140625v-.359375l.697266-.140625h.394531v2.583984h.644531v.332032h-1.679687zm2.818359 0h1.376953v.332032h-1.851562v-.332032c.149739-.154947.353515-.362629.611328-.623046.259114-.261718.421874-.430338.488281-.50586.126301-.141925.214191-.261717.263672-.359375.05078-.09896.07617-.195961.07617-.291015-.000002-.154946-.05469-.281248-.164062-.378907-.108075-.09765-.249351-.146481-.423829-.146484-.123698.000003-.254558.02149-.392578.06445-.136719.04297-.283203.108075-.439453.195313v-.398438c.158854-.0638.307291-.111976.445313-.144531.13802-.03255.264322-.04883.378906-.04883.302082.000003.542967.07552.722656.226562.179686.151044.269529.352867.269531.605469-.000002.119794-.02279.233726-.06836.341797-.04427.106772-.125653.233074-.244141.378906-.03255.03776-.136069.147137-.310546.328125-.174481.179688-.420574.431641-.738282.755859m-2.818359 4.800001h.644531v-2.22461l-.701172.140625v-.359375l.697266-.140625h.394531v2.583985h.644531v.332031h-1.679687zm2.490234.271484v-.359375c.09896.04687.199218.08268.300782.107422.101561.02474.201171.03711.298828.03711.260415 0 .458983-.08724.595703-.261719.138019-.17578.216795-.442056.236328-.798828-.07552.111981-.171226.197918-.287109.257813-.115887.0599-.244142.08984-.384766.08984-.291668.000001-.522787-.08789-.693359-.263672-.169272-.177082-.253907-.418618-.253907-.72461 0-.299477.08854-.539711.265625-.720703.177083-.180986.41276-.271481.707032-.271484.337238.000003.594399.12956.771484.388672.178383.257815.267576.632814.267578 1.125-.000002.459636-.109377.826823-.328125 1.101562-.217447.273448-.510415.410166-.878903.410166-.09896 0-.19922-.0098-.300781-.0293-.101564-.01953-.207032-.04883-.316407-.08789m.785157-1.236328c.177082.000001.317055-.06055.419921-.181641.104165-.121092.156249-.287107.15625-.498047-.000001-.209633-.05209-.374997-.15625-.496093-.102866-.122394-.242839-.183592-.419921-.183594-.177085.000002-.31771.0612-.421875.183594-.102866.121096-.154298.28646-.154297.496093-.000001.21094.05143.376955.154297.498047.104165.121095.24479.181642.421875.181641m-3.003907 5.764844h1.376953v.332031h-1.851562v-.332031c.149739-.154948.353515-.36263.611328-.623047.259114-.261718.421874-.430337.488281-.505859.126301-.141926.214191-.261718.263672-.359375.05078-.09896.07617-.195962.07617-.291016-.000002-.154946-.05469-.281248-.164062-.378906-.108075-.09765-.249351-.146482-.423829-.146485-.123698.000003-.254558.02149-.392578.06445-.136719.04297-.283203.108076-.439453.195313v-.398438c.158854-.0638.307291-.111976.445313-.144531.13802-.03255.264322-.04883.378906-.04883.302082.000003.542967.07552.722656.226563.179686.151044.269529.352866.269531.605468-.000002.119794-.02279.233726-.06836.341797-.04427.106773-.125653.233075-.244141.378906-.03255.03776-.136069.147137-.310546.328125-.174481.179689-.420574.431642-.738282.75586m3.09961-1.283203c-.177085.000001-.31771.06055-.421875.18164-.102866.121095-.154298.287111-.154297.498047-.000001.209636.05143.375652.154297.498047.104165.121094.24479.181641.421875.181641.177082 0 .317055-.06055.419922-.181641.104164-.122395.156248-.288411.15625-.498047-.000002-.210936-.05209-.376952-.15625-.498047-.102867-.121092-.24284-.181639-.419922-.18164m.783203-1.236328v.359375c-.09896-.04687-.199221-.08268-.300781-.107422-.100263-.02474-.199872-.03711-.298829-.03711-.260417.000003-.459636.08789-.597656.263672-.136719.175784-.214844.441408-.234375.796875.07682-.113279.173176-.199868.289063-.259765.115884-.0612.243488-.09179.382812-.0918.292967.000002.524087.08919.69336.267578.17057.177085.255857.418621.255859.724609-.000002.29948-.08854.539714-.265625.720703-.177085.18099-.412762.271485-.707031.271485-.337241 0-.595053-.128907-.773438-.386719-.178386-.259114-.267578-.634114-.267578-1.125 0-.460936.109375-.828123.328125-1.101563.218749-.274736.512369-.412106.880859-.412109.09896.000003.198567.0098.298829.0293.10156.01953.207029.04883.316406.08789"/><path d="m86.806656 24.054766c-.177085.000001-.317709.06055-.421875.18164-.102865.121095-.154298.287111-.154297.498047-.000001.209636.05143.375652.154297.498047.104166.121094.24479.181641.421875.181641.177082 0 .317056-.06055.419922-.181641.104165-.122395.156248-.288411.15625-.498047-.000002-.210936-.05209-.376952-.15625-.498047-.102866-.121092-.24284-.181639-.419922-.18164m.783203-1.236328v.359375c-.09896-.04687-.199221-.08268-.300781-.107422-.100262-.02474-.199872-.03711-.298828-.03711-.260418.000003-.459637.08789-.597657.263672-.136719.175784-.214844.441408-.234375.796875.07682-.113279.173177-.199868.289063-.259765.115884-.0612.243488-.0918.382812-.0918.292967.000002.524087.08919.69336.267578.17057.177085.255857.418621.255859.724609-.000002.29948-.08854.539714-.265625.720703-.177085.18099-.412762.271485-.707031.271485-.337241 0-.595053-.128906-.773438-.386719-.178385-.259114-.267578-.634114-.267578-1.125 0-.460936.109375-.828123.328125-1.101563.218749-.274736.512369-.412106.88086-.412109.09896.000003.198566.0098.298828.0293.10156.01953.207029.04883.316406.08789m-2.880859 7.319531h.644531v-2.224609l-.701172.140625v-.359375l.697266-.140625h.394531v2.583984h.644531v.332031h-1.679687zm3.673828-1.240234c.1888.04037.335935.12435.441406.251953.106769.127605.160154.285157.160156.472656-.000002.287761-.09896.510417-.296875.667969-.197918.157552-.479168.236328-.84375.236328-.122397 0-.248698-.01237-.378906-.03711-.128907-.02344-.26237-.05925-.400391-.107422v-.38086c.109375.0638.229167.11198.359375.144532.130208.03255.266275.04883.408204.04883.247394 0 .435545-.04883.564453-.146485.130206-.09765.19531-.239582.195312-.425781-.000002-.171874-.06055-.305988-.18164-.402344-.119794-.09765-.287111-.146483-.501954-.146484h-.339843v-.324219h.355468c.194009.000002.342447-.03841.445313-.115234.102863-.07812.154295-.190102.154297-.335938-.000002-.149737-.05339-.26432-.160156-.34375-.105471-.08073-.257163-.121091-.455079-.121093-.108074.000002-.223959.01172-.347656.03516-.123698.02344-.259766.0599-.408203.109375v-.351563c.149739-.04166.289713-.07291.419922-.09375.131509-.02083.255207-.03125.371094-.03125.299477.000003.536456.06836.710937.205078.174477.13542.261717.319013.261719.550782-.000002.16146-.04623.298179-.138672.410156-.09245.110679-.22396.187502-.394531.230469m-3.402344 6.040234h1.376953v.332031h-1.851562v-.332031c.149739-.154947.353515-.362629.611328-.623047.259113-.261717.421873-.430337.488281-.505859.126301-.141926.214191-.261717.263672-.359375.05078-.09896.07617-.195962.07617-.291016-.000002-.154945-.05469-.281247-.164063-.378906-.108074-.09765-.24935-.146482-.423828-.146484-.123699.000002-.254558.02149-.392578.06445-.136719.04297-.283204.108075-.439453.195312v-.398437c.158854-.0638.307291-.111976.445312-.144531.13802-.03255.264322-.04883.378907-.04883.302082.000003.542967.07552.722656.226563.179685.151044.269529.352867.269531.605469-.000002.119793-.02279.233726-.06836.341797-.04427.106772-.125653.233074-.244141.378906-.03255.03776-.136069.147137-.310547.328125-.17448.179688-.420574.431641-.738281.755859m3.050781-2.324219c-.203126.000003-.35612.100263-.458984.300782-.101563.199221-.152345.499351-.152344.90039-.000001.399741.05078.699871.152344.900391.102864.199219.255858.298828.458984.298828.204426 0 .357421-.09961.458985-.298828.102862-.20052.154295-.50065.154297-.900391-.000002-.401039-.05143-.701169-.154297-.90039-.101564-.200519-.254559-.300779-.458985-.300782m0-.3125c.326822.000003.57617.129561.748047.388672.173175.257815.259763.632815.259766 1.125-.000003.490887-.08659.865886-.259766 1.125-.171877.257813-.421225.386719-.748047.386719-.326824 0-.576823-.128906-.75-.386719-.171875-.259114-.257813-.634113-.257812-1.125-.000001-.492185.08594-.867185.257812-1.125.173177-.259111.423176-.388669.75-.388672m-3.050781 7.436719h1.376953v.332032h-1.851562v-.332032c.149739-.154947.353515-.362629.611328-.623046.259113-.261718.421873-.430338.488281-.50586.126301-.141925.214191-.261717.263672-.359375.05078-.09896.07617-.195961.07617-.291015-.000002-.154946-.05469-.281248-.164063-.378907-.108074-.09765-.24935-.146481-.423828-.146484-.123699.000003-.254558.02149-.392578.06445-.136719.04297-.283204.108075-.439453.195313v-.398438c.158854-.0638.307291-.111976.445312-.144531.13802-.03255.264322-.04883.378907-.04883.302082.000003.542967.07552.722656.226562.179685.151044.269529.352867.269531.605469-.000002.119794-.02279.233726-.06836.341797-.04427.106772-.125653.233074-.244141.378906-.03255.03776-.136069.147137-.310547.328125-.17448.179688-.420574.431641-.738281.755859m2.107422-2.583984h1.875v.167969l-1.058594 2.748047h-.412109l.996094-2.583985h-1.400391z"/><path d="m93.447746 22.697344h1.875v.167969l-1.058593 2.748046h-.41211l.996094-2.583984h-1.400391zm-1.105468 7.383984h.644531v-2.224609l-.701172.140625v-.359375l.697266-.140625h.394531v2.583984h.644531v.332032h-1.679687zm3.5625-2.240234-.996094 1.556641h.996094zm-.103516-.34375h.496094v1.900391h.416015v.328125h-.416015v.6875h-.392578v-.6875h-1.316407v-.38086zm-3.1875 7.383985h1.376953v.332031h-1.851562v-.332031c.149739-.154948.353515-.36263.611328-.623047.259113-.261718.421873-.430337.488281-.50586.1263-.141925.214191-.261717.263672-.359375.05078-.09896.07617-.195961.07617-.291015-.000002-.154946-.05469-.281248-.164063-.378907-.108074-.09765-.24935-.146481-.423828-.146484-.123699.000003-.254558.02149-.392578.06445-.136719.04297-.283204.108076-.439453.195313v-.398438c.158853-.0638.307291-.111976.445312-.144531.13802-.03255.264322-.04883.378907-.04883.302081.000003.542967.07552.722656.226562.179685.151045.269529.352867.269531.605469-.000002.119794-.02279.233726-.06836.341797-.04427.106772-.125653.233074-.244141.378906-.03255.03776-.136069.147137-.310547.328125-.17448.179689-.420574.431641-.738281.75586m2.275391 0h.644531v-2.22461l-.701172.140625v-.359375l.697266-.140625h.394531v2.583985h.644531v.332031h-1.679687zm-2.275391 4.8h1.376953v.332031h-1.851562v-.332031c.149739-.154948.353515-.36263.611328-.623047.259113-.261718.421873-.430337.488281-.505859.1263-.141926.214191-.261718.263672-.359375.05078-.09896.07617-.195962.07617-.291016-.000002-.154946-.05469-.281248-.164063-.378906-.108074-.09765-.24935-.146482-.423828-.146485-.123699.000003-.254558.02149-.392578.06445-.136719.04297-.283204.108076-.439453.195313v-.398438c.158853-.0638.307291-.111976.445312-.144531.13802-.03255.264322-.04883.378907-.04883.302081.000003.542967.07552.722656.226563.179685.151044.269529.352866.269531.605468-.000002.119794-.02279.233726-.06836.341797-.04427.106773-.125653.233075-.244141.378906-.03255.03776-.136069.147137-.310547.328125-.17448.179689-.420574.431642-.738281.75586m3.050781-1.052735c-.187501.000002-.335287.05013-.443359.150391-.106772.100262-.160157.238282-.160156.414063-.000001.175781.05338.313802.160156.414062.108072.100261.255858.150391.443359.150391.187499 0 .335285-.05013.44336-.150391.108071-.101562.162107-.239583.162109-.414062-.000002-.175781-.05404-.313801-.162109-.414063-.106773-.100259-.254559-.150389-.44336-.150391m-.394531-.167968c-.169272-.04166-.301433-.120441-.396484-.236328-.09375-.115884-.140626-.25716-.140625-.423829-.000001-.23307.08268-.417315.248046-.552734.166666-.135414.394531-.203122.683594-.203125.290363.000003.518228.06771.683594.203125.165362.135419.248045.319664.248047.552734-.000002.166669-.04753.307945-.142578.423829-.09375.115887-.224612.194663-.392578.236328.190102.04427.337888.13086.443359.259765.106769.128908.160154.28646.160156.472657-.000002.282552-.08659.499349-.259765.65039-.171877.151042-.418622.226563-.740235.226563-.321615 0-.569011-.07552-.742187-.226563-.171876-.151041-.257813-.367838-.257813-.65039 0-.186197.05339-.343749.160156-.472657.106771-.128905.255208-.215493.445313-.259765m-.144531-.623047c-.000001.151043.04687.268882.140625.353515.09505.08464.227863.126955.398437.126954.16927.000001.301431-.04232.396485-.126954.09635-.08463.144529-.202472.144531-.353515-.000002-.15104-.04818-.268878-.144531-.353516-.09505-.08463-.227215-.12695-.396485-.126953-.170574.000003-.303386.04232-.398437.126953-.09375.08464-.140626.202476-.140625.353516"/><path d="m101.29781 20.481327h.64453v-2.224609l-.70117.140625v-.359375l.69727-.140625h.39453v2.583984h.64453v.332031h-1.67969zm.77539 3.747266c-.1875.000001-.33528.05013-.44336.15039-.10677.100262-.16015.238283-.16015.414063 0 .175782.0534.313803.16015.414062.10808.100261.25586.150391.44336.150391s.33529-.05013.44336-.150391c.10807-.101561.16211-.239582.16211-.414062 0-.17578-.054-.313801-.16211-.414063-.10677-.100259-.25456-.150389-.44336-.15039m-.39453-.167969c-.16927-.04167-.30143-.120441-.39648-.236328-.0937-.115884-.14063-.257159-.14063-.423828 0-.233071.0827-.417315.24805-.552735.16667-.135413.39453-.203122.68359-.203125.29037.000003.51823.06771.6836.203125.16536.13542.24804.319664.24804.552735 0 .166669-.0475.307944-.14257.423828-.0938.115887-.22461.194663-.39258.236328.1901.04427.33789.130861.44336.259766.10677.128907.16015.286459.16015.472656 0 .282553-.0866.499349-.25976.650391-.17188.151041-.41862.226562-.74024.226562-.32161 0-.56901-.07552-.74218-.226562-.17188-.151042-.25782-.367838-.25782-.650391 0-.186197.0534-.343749.16016-.472656.10677-.128905.25521-.215494.44531-.259766m-.14453-.623047c0 .151044.0469.268882.14063.353516.0951.08464.22786.126955.39843.126953.16927.000002.30143-.04232.39649-.126953.0964-.08463.14453-.202472.14453-.353516 0-.151039-.0482-.268878-.14453-.353515-.0951-.08463-.22722-.126951-.39649-.126954-.17057.000003-.30338.04232-.39843.126954-.0937.08464-.14063.202476-.14063.353515m-1.50976 6.64375h.64453v-2.224609l-.701175.140625v-.359375l.697265-.140625h.39453v2.583984h.64453v.332032h-1.67968zm2.48242-2.583984h1.54883v.332031h-1.1875v.714844c.0573-.01953.11458-.03385.17187-.04297.0573-.01041.11458-.01562.17188-.01563.32552.000002.58333.0892.77343.267578.19011.178387.28516.419924.28516.72461 0 .313803-.0977.557943-.29297.732422-.19531.173177-.4707.259765-.82617.259765-.1224 0-.2474-.01042-.375-.03125-.1263-.02083-.25716-.05208-.39258-.09375v-.396484c.11719.0638.23828.111328.36328.142578s.25716.04687.39649.04687c.22526 0 .40364-.05924.53515-.177734.13151-.118489.19727-.279296.19727-.482422 0-.203124-.0658-.363931-.19727-.482422-.13151-.118488-.30989-.177733-.53515-.177734-.10547.000001-.21094.01172-.31641.03516-.10417.02344-.21094.0599-.32031.109375v-1.464844m-2.21094 7.383985h1.37695v.332031h-1.851559v-.332031c.149739-.154948.353519-.36263.611329-.623047.25911-.261718.42187-.430337.48828-.50586.1263-.141925.21419-.261717.26367-.359375.0508-.09896.0762-.195961.0762-.291015 0-.154946-.0547-.281248-.16406-.378906-.10807-.09765-.24935-.146482-.42383-.146485-.1237.000003-.25455.02149-.39257.06445-.13672.04297-.283208.108076-.439458.195313v-.398438c.158854-.0638.307288-.111976.445308-.144531.13802-.03255.26433-.04883.37891-.04883.30208.000003.54297.07552.72266.226562.17968.151045.26953.352867.26953.605469 0 .119794-.0228.233726-.0684.341797-.0443.106773-.12565.233074-.24414.378906-.0326.03776-.13607.147137-.31055.328125-.17448.179689-.42057.431642-.73828.75586m2.54688 0h1.37695v.332031h-1.85156v-.332031c.14974-.154948.35351-.36263.61132-.623047.25912-.261718.42188-.430337.48829-.50586.1263-.141925.21419-.261717.26367-.359375.0508-.09896.0762-.195961.0762-.291015 0-.154946-.0547-.281248-.16406-.378906-.10808-.09765-.24935-.146482-.42383-.146485-.1237.000003-.25456.02149-.39258.06445-.13672.04297-.2832.108076-.43945.195313v-.398438c.15885-.0638.30729-.111976.44531-.144531.13802-.03255.26432-.04883.37891-.04883.30208.000003.54296.07552.72265.226562.17969.151045.26953.352867.26953.605469 0 .119794-.0228.233726-.0684.341797-.0443.106773-.12565.233074-.24414.378906-.0326.03776-.13607.147137-.31054.328125-.17448.179689-.42058.431642-.73828.75586m-2.54688 4.8h1.37695v.332031h-1.851559v-.332031c.149739-.154948.353519-.36263.611329-.623047.25911-.261718.42187-.430337.48828-.505859.1263-.141926.21419-.261717.26367-.359375.0508-.09896.0762-.195962.0762-.291016 0-.154946-.0547-.281248-.16406-.378906-.10807-.09765-.24935-.146482-.42383-.146485-.1237.000003-.25455.02149-.39257.06445-.13672.04297-.283208.108076-.439458.195313v-.398438c.158854-.0638.307288-.111976.445308-.144531.13802-.03255.26433-.04883.37891-.04883.30208.000003.54297.07552.72266.226563.17968.151044.26953.352867.26953.605468 0 .119794-.0228.233726-.0684.341797-.0443.106773-.12565.233075-.24414.378906-.0326.03776-.13607.147137-.31055.328125-.17448.179689-.42057.431642-.73828.75586m2.21875.271484v-.359375c.099.04688.19922.08268.30078.107422.10156.02474.20117.03711.29883.03711.26042.000001.45898-.08724.5957-.261718.13802-.175781.2168-.442057.23633-.798828-.0755.11198-.17122.197917-.28711.257812-.11589.0599-.24414.08984-.38476.08984-.29167.000001-.52279-.08789-.69336-.263672-.16927-.177082-.25391-.418618-.25391-.724609 0-.299477.0885-.539711.26563-.720704.17708-.180986.41275-.271481.70703-.271484.33723.000003.5944.12956.77148.388672.17838.257815.26758.632814.26758 1.125 0 .459636-.10938.826823-.32813 1.101562-.21745.273438-.51041.410157-.8789.410157-.099 0-.19922-.0098-.30078-.0293-.10157-.01953-.20704-.04883-.31641-.08789m.78516-1.236328c.17708.000001.31705-.06055.41992-.181641.10416-.121092.15625-.287107.15625-.498046 0-.209634-.0521-.374998-.15625-.496094-.10287-.122393-.24284-.183591-.41992-.183594-.17709.000003-.31771.0612-.42188.183594-.10286.121096-.1543.28646-.1543.496094 0 .210939.0514.376954.1543.498046.10417.121096.24479.181642.42188.181641"/><path d="m109.20845 20.481327h1.37695v.332031h-1.85156v-.332031c.14974-.154947.35352-.362629.61133-.623047.25911-.261717.42187-.430337.48828-.505859.1263-.141926.21419-.261717.26367-.359375.0508-.09896.0762-.195962.0762-.291016 0-.154945-.0547-.281247-.16406-.378906-.10807-.09765-.24935-.146482-.42383-.146484-.1237.000002-.25455.02149-.39257.06445-.13672.04297-.28321.108075-.43946.195312v-.398437c.15886-.0638.30729-.111977.44531-.144532.13802-.03255.26433-.04883.37891-.04883.30208.000003.54297.07552.72266.226563.17968.151044.26953.352867.26953.605469 0 .119793-.0228.233725-.0684.341796-.0443.106773-.12565.233075-.24414.378907-.0326.03776-.13607.147136-.31055.328125-.17448.179688-.42057.431641-.73828.755859m-.32812 5.071485v-.359375c.099.04687.19921.08268.30078.107421.10156.02474.20117.03711.29882.03711.26042 0 .45899-.08724.59571-.261719.13802-.17578.21679-.442056.23633-.798828-.0755.11198-.17123.197918-.28711.257812-.11589.0599-.24415.08984-.38477.08984-.29167.000001-.52279-.08789-.69336-.263672-.16927-.177082-.2539-.418618-.2539-.724609 0-.299477.0885-.539711.26562-.720703.17708-.180987.41276-.271482.70703-.271485.33724.000003.5944.129561.77149.388672.17838.257815.26757.632815.26757 1.125 0 .459637-.10937.826824-.32812 1.101563-.21745.273437-.51042.410156-.87891.410156-.099 0-.19922-.0098-.30078-.0293-.10156-.01953-.20703-.04883-.3164-.08789m.78515-1.236329c.17708.000002.31706-.06055.41992-.18164.10417-.121092.15625-.287108.15625-.498047 0-.209633-.0521-.374998-.15625-.496094-.10286-.122393-.24284-.183591-.41992-.183594-.17708.000003-.31771.0612-.42187.183594-.10287.121096-.1543.286461-.1543.496094 0 .210939.0514.376955.1543.498047.10416.121095.24479.181642.42187.18164m-2.00195 5.764844h.64453v-2.224609l-.70117.140625v-.359375l.69726-.140625h.39453v2.583984h.64454v.332032h-1.67969zm3.37109-1.283203c-.17708.000002-.31771.06055-.42187.181641-.10287.121095-.1543.28711-.1543.498047 0 .209636.0514.375651.1543.498047.10416.121094.24479.181641.42187.18164.17708.000001.31706-.06055.41992-.18164.10417-.122396.15625-.288411.15625-.498047 0-.210937-.0521-.376952-.15625-.498047-.10286-.121092-.24284-.181639-.41992-.181641m.78321-1.236328v.359375c-.099-.04687-.19923-.08268-.30079-.107422-.10026-.02474-.19987-.03711-.29882-.03711-.26042.000003-.45964.08789-.59766.263672-.13672.175783-.21484.441408-.23438.796875.0768-.11328.17318-.199868.28907-.259766.11588-.0612.24349-.0918.38281-.0918.29297.000002.52409.0892.69336.267578.17057.177085.25586.418621.25586.72461 0 .29948-.0885.539714-.26563.720703-.17708.18099-.41276.271484-.70703.271484-.33724 0-.59505-.128906-.77344-.386718-.17838-.259114-.26757-.634114-.26757-1.125 0-.460936.10937-.828123.32812-1.101563.21875-.274737.51237-.412106.88086-.412109.099.000003.19857.0098.29883.0293.10156.01953.20703.04883.31641.08789m-3.88282 7.319532h1.37696v.332031h-1.85157v-.332031c.14974-.154948.35352-.36263.61133-.623047.25911-.261718.42188-.430337.48828-.50586.1263-.141925.21419-.261717.26367-.359375.0508-.09896.0762-.195961.0762-.291015-.00001-.154946-.0547-.281248-.16407-.378906-.10807-.09765-.24935-.146482-.42382-.146485-.1237.000003-.25456.02149-.39258.06445-.13672.04297-.28321.108076-.43946.195313v-.398438c.15886-.0638.3073-.111976.44532-.144531.13802-.03255.26432-.04883.3789-.04883.30209.000003.54297.07552.72266.226562.17969.151045.26953.352867.26953.605469 0 .119794-.0228.233726-.0684.341797-.0443.106773-.12565.233074-.24414.378906-.0326.03776-.13607.147137-.31055.328125-.17448.179689-.42057.431642-.73828.75586m3.40235-1.240235c.1888.04037.33593.124351.4414.251953.10677.127606.16016.285158.16016.472657 0 .287761-.099.510417-.29688.667968-.19791.157552-.47916.236328-.84375.236329-.12239-.000001-.24869-.01237-.3789-.03711-.12891-.02344-.26237-.05924-.40039-.107422v-.380859c.10937.0638.22916.111979.35937.144531.13021.03255.26628.04883.40821.04883.24739.000001.43554-.04883.56445-.146484.13021-.09766.19531-.239583.19531-.425781 0-.171874-.0606-.305989-.18164-.402344-.11979-.09765-.28711-.146483-.50195-.146484h-.33985v-.324219h.35547c.19401.000001.34245-.03841.44531-.115235.10287-.07812.1543-.190102.1543-.335937 0-.149737-.0534-.264321-.16015-.34375-.10547-.08073-.25717-.121091-.45508-.121094-.10808.000003-.22396.01172-.34766.03516s-.25977.0599-.4082.109375v-.351562c.14974-.04166.28971-.07291.41992-.09375.13151-.02083.25521-.03125.37109-.03125.29948.000003.53646.06836.71094.205078.17448.135419.26172.319013.26172.550781 0 .161461-.0462.298179-.13867.410157-.0925.110678-.22396.187501-.39453.230468m-2.54688 4.8c.1888.04037.33594.124351.44141.251954.10677.127605.16015.285157.16015.472656 0 .287761-.099.510417-.29687.667969-.19792.157552-.47917.236328-.84375.236328-.1224 0-.2487-.01237-.37891-.03711-.1289-.02344-.26237-.05924-.40039-.107422v-.380859c.10938.0638.22917.11198.35938.144531.1302.03255.26627.04883.4082.04883.24739.000001.43555-.04883.56445-.146484.13021-.09766.19531-.239583.19532-.425781-.00001-.171874-.0606-.305989-.18164-.402344-.1198-.09766-.28712-.146483-.50196-.146484h-.33984v-.324219h.35547c.19401.000002.34244-.03841.44531-.115234.10286-.07812.15429-.190103.1543-.335938-.00001-.149737-.0534-.26432-.16016-.34375-.10547-.08073-.25716-.121091-.45508-.121094-.10807.000003-.22396.01172-.34765.03516-.1237.02344-.25977.0599-.40821.109375v-.351563c.14974-.04166.28972-.07291.41992-.09375.13151-.02083.25521-.03125.3711-.03125.29948.000003.53646.06836.71094.205078.17447.135419.26171.319013.26171.550781 0 .161461-.0462.298179-.13867.410157-.0924.110678-.22396.187501-.39453.230468m2.19531-1.083984c-.20312.000003-.35612.100263-.45898.300781-.10156.199221-.15234.499351-.15234.900391 0 .399741.0508.69987.15234.900391.10286.199219.25586.298828.45898.298828.20443 0 .35742-.09961.45899-.298828.10286-.200521.15429-.50065.1543-.900391-.00001-.40104-.0514-.70117-.1543-.900391-.10157-.200518-.25456-.300778-.45899-.300781m0-.3125c.32683.000003.57617.12956.74805.388672.17318.257815.25976.632814.25977 1.125-.00001.490886-.0866.865886-.25977 1.125-.17188.257813-.42122.386719-.74805.386719-.32682 0-.57682-.128906-.75-.386719-.17187-.259114-.25781-.634114-.25781-1.125 0-.492186.0859-.867185.25781-1.125.17318-.259112.42318-.388669.75-.388672"/></g></g></g><path d="m23.095 7.0007336c3.179734 0 1.245573 14.2927244 1.245573 14.2927244s17.662844-1.870813 17.662844 3.984542c0-1.426319-.003417-4.392285-.003417-4.392285l-13.88572-13.885715z" fill-rule="evenodd" opacity=".2" stroke-width=".955713"/><path d="m6 39.721429c0 1.816327 1.146857 3.278571 2.571429 3.278571h30.857142c1.424572 0 2.571429-1.462244 2.571429-3.278571v-6.15h-36z" fill="url(#d)"/><path d="m8.5714282 43c-1.4245712 0-2.5714282-1.151569-2.5714282-2.581994v-.999812c.017537-5.232461.4285697-5.344044.4285697-.430358v.860665c0 1.197119.9506364 2.151662 2.1428585 2.151662h.8571448 29.142844.857145c1.192222 0 2.142858-.954543 2.142858-2.151662v-.860665c.04207-5.833454.42858-3.83731.42858.430333v.999812c-.00001 1.43045-1.146867 2.582019-2.571438 2.582019z" fill="url(#b)" opacity=".2"/><path d="m24.277 7c3.0062 0 1.165566 13.240168 1.165566 13.240168s5.861339-.69769 10.60943-.09698c3.232358.408943 5.948783 1.419626 5.948783 3.661816 0-1.348482-.000779-2.919289-.000779-2.919289l-13.88572-13.885715z" fill-rule="evenodd" opacity=".2" stroke-width=".903555"/><path d="m25.695529 7.0086975c2.832447 0 1.020233 12.2306245 1.020233 12.2306245s15.288338-1.878262 15.288338 3.337578c0-1.270538-.0041-1.691185-.0041-1.691185l-13.88572-13.885715z" fill="url(#a)" fill-rule="evenodd" stroke-width=".851331"/><g fill="#fff" transform="matrix(.50367364 0 0 .50367364 -.877125 -3.592866)"><path d="m32.373535 78.23867h2.819824v10.935059h-2.819824z"/><path d="m46.641113 88.573143q-.776367.402832-1.618652.60791-.842285.205078-1.757813.205078-2.731933 0-4.328613-1.523437-1.59668-1.530762-1.59668-4.145508 0-2.62207 1.59668-4.145508 1.59668-1.530762 4.328613-1.530762.915528 0 1.757813.205079.842285.205078 1.618652.60791v2.263183q-.783691-.534668-1.54541-.783691-.761719-.249024-1.604004-.249024-1.508789 0-2.373047.966797-.864257.966797-.864257 2.666016 0 1.691895.864257 2.658691.864258.966797 2.373047.966797.842285 0 1.604004-.249023.761719-.249024 1.54541-.783692z"/><path d="m55.620605 87.181541h-4.409179l-.695801 1.992188h-2.834473l4.050293-10.935059h3.361817l4.050293 10.935059h-2.834473zm-3.706054-2.028808h2.995605l-1.49414-4.350586z"/><path d="m60.586426 78.23867h2.819824v8.803711h4.951172v2.131348h-7.770996z"/></g></g><path d="m3.4000001 22h25.1999999v1h-25.1999999z" opacity=".3"/><path d="m3.4000001 21h25.1999999v1h-25.1999999z" fill="#fff" opacity=".1"/></svg>