<svg height="32" width="32" xmlns="http://www.w3.org/2000/svg" xmlns:xlink="http://www.w3.org/1999/xlink"><linearGradient id="a"><stop offset="0" stop-color="#fff"/><stop offset="1" stop-color="#fff" stop-opacity="0"/></linearGradient><filter id="b" color-interpolation-filters="sRGB" height="1.384" width="1.384" x="-.192" y="-.192"><feGaussianBlur stdDeviation="5.28"/></filter><linearGradient id="c" gradientUnits="userSpaceOnUse" x1="48" x2="48" xlink:href="#a" y1="20.220806" y2="138.66119"/><clipPath id="d"><rect height="84" rx="6" width="84" x="6" y="6"/></clipPath><linearGradient id="e" gradientUnits="userSpaceOnUse" x1="54.75" x2="54.75" y1="90" y2="5.979473"><stop offset="0" stop-color="#793c1c"/><stop offset="1" stop-color="#bd6332"/></linearGradient><linearGradient id="f" gradientUnits="userSpaceOnUse" x1="16" x2="16" y1="88" y2="8"><stop offset="0" stop-color="#1a1a1a"/><stop offset="1" stop-color="#2a2a2a"/></linearGradient><linearGradient id="g" gradientTransform="matrix(1.0058652 0 0 .994169 100 0)" gradientUnits="userSpaceOnUse" x1="45.447727" x2="45.447727" y1="92.539597" y2="7.01654"><stop offset="0"/><stop offset="1" stop-opacity=".588235"/></linearGradient><linearGradient id="h" gradientTransform="matrix(1.0238095 0 0 1.0119048 -1.142857 -98.071429)" gradientUnits="userSpaceOnUse" x1="32.251034" x2="32.251034" xlink:href="#g" y1="6.131708" y2="90.238609"/><linearGradient id="i" gradientTransform="translate(0 -97)" gradientUnits="userSpaceOnUse" x1="32.251034" x2="32.251034" xlink:href="#g" y1="6.131708" y2="90.238609"/><linearGradient id="j" gradientUnits="userSpaceOnUse" x1="36.357143" x2="36.357143" xlink:href="#a" y1="6" y2="63.893143"/><radialGradient id="k" cx="48" cy="90.171875" gradientTransform="matrix(1.1573129 0 0 .99590774 -7.551021 .197132)" gradientUnits="userSpaceOnUse" r="42" xlink:href="#a"/><linearGradient id="l" gradientUnits="userSpaceOnUse" x1="54.75" x2="54.75" y1="90" y2="5.979473"><stop offset="0" stop-color="#8b4217"/><stop offset="1" stop-color="#b85c30"/></linearGradient><linearGradient id="m" gradientUnits="userSpaceOnUse" x1="88" x2="88" y1="88" y2="8"><stop offset="0" stop-color="#d9d9d9"/><stop offset="1" stop-color="#fff"/></linearGradient><linearGradient id="n" gradientUnits="userSpaceOnUse" x1="83" x2="83" y1="62" y2="45.968781"><stop offset="0" stop-color="#ff8e00"/><stop offset="1" stop-color="#ffcc0a"/></linearGradient><linearGradient id="o" gradientUnits="userSpaceOnUse" x1="84" x2="84" y1="44" y2="28"><stop offset="0" stop-color="#4baa0c"/><stop offset="1" stop-color="#66d819"/></linearGradient><linearGradient id="p" gradientUnits="userSpaceOnUse" x1="84" x2="84" y1="26" y2="9.968781"><stop offset="0" stop-color="#0092ff"/><stop offset="1" stop-color="#0085ff"/></linearGradient><linearGradient id="q" gradientUnits="userSpaceOnUse" x1="82.999997" x2="82.999997" y1="80" y2="63.968781"><stop offset="0" stop-color="#ff2319"/><stop offset="1" stop-color="#ff3733"/></linearGradient><linearGradient id="r" gradientTransform="matrix(.94215318 0 0 .9352293 7.254283 9.737298)" gradientUnits="userSpaceOnUse" x1="56" x2="56" y1="16" y2="80"><stop offset="0" stop-color="#5a250b"/><stop offset="1" stop-color="#573115"/></linearGradient><linearGradient id="s" gradientTransform="matrix(0 1 1 0 -10 10)" gradientUnits="userSpaceOnUse" x1="10" x2="18" y1="24" y2="24"><stop offset="0"/><stop offset=".5" stop-opacity="0"/><stop offset="1" stop-color="#fff"/></linearGradient><linearGradient id="t" gradientUnits="userSpaceOnUse" x1="9" x2="9" y1="22" y2="26"><stop offset="0" stop-color="#8a8a8a"/><stop offset=".40964222" stop-color="#d5d5d5"/><stop offset=".72741055" stop-color="#6f6f6f"/><stop offset="1" stop-color="#373737"/></linearGradient><linearGradient id="u" gradientUnits="userSpaceOnUse" spreadMethod="reflect" x1="4" x2="12" y1="24" y2="24"><stop offset="0"/><stop offset=".5" stop-opacity=".193798"/><stop offset="1" stop-opacity="0"/></linearGradient><g transform="matrix(.32944406 0 0 .32944406 .351407 .192519)"><g><g fill="url(#h)"><path d="m12-95.03125c-5.5110903 0-10.03125 4.52016-10.03125 10.03125v71c0 5.5110902 4.5201598 10.03125 10.03125 10.03125h72c5.51109 0 10.03125-4.5201597 10.03125-10.03125v-71c0-5.51109-4.52016-10.03125-10.03125-10.03125z" opacity=".08" transform="scale(1 -1)"/><path d="m12-94.03125c-4.971633 0-9.03125 4.059617-9.03125 9.03125v71c0 4.9716329 4.0596171 9.03125 9.03125 9.03125h72c4.971633 0 9.03125-4.059617 9.03125-9.03125v-71c0-4.971633-4.059617-9.03125-9.03125-9.03125z" opacity=".1" transform="scale(1 -1)"/><path d="m12-93c-4.4091333 0-8 3.590867-8 8v71c0 4.4091333 3.5908667 8 8 8h72c4.409133 0 8-3.5908667 8-8v-71c0-4.409133-3.590867-8-8-8z" opacity=".2" transform="scale(1 -1)"/><rect height="85" opacity=".3" rx="7" transform="scale(1 -1)" width="86" x="5" y="-92"/></g><rect fill="url(#i)" height="84" opacity=".45" rx="6" transform="scale(1 -1)" width="84" x="6" y="-91"/></g><g><path d="m72 6v84h12c3.324 0 6-2.676 6-6v-72c0-3.324-2.676-6-6-6z" fill="url(#l)"/><path d="m74.09375 8.09375v79.8125h9.90625c2.197065 0 3.90625-1.709185 3.90625-3.90625v-72c0-2.1970647-1.709185-3.90625-3.90625-3.90625z" fill="url(#m)"/><path d="m66 6v84h12c3.324 0 6-2.676 6-6v-72c0-3.324-2.676-6-6-6z" opacity=".1"/><rect fill="url(#p)" height="16" rx="2" width="8" x="79" y="10"/><path d="m79 23v1c0 1.108.892 2 2 2h4c1.108 0 2-.892 2-2v-1c0 1.108-.892 2-2 2h-4c-1.108 0-2-.892-2-2z" opacity=".2"/><rect fill="url(#n)" height="16" rx="2" width="8" x="79" y="46"/><path d="m79 59v1c0 1.108.892 2 2 2h4c1.108 0 2-.892 2-2v-1c0 1.108-.892 2-2 2h-4c-1.108 0-2-.892-2-2z" opacity=".2"/><rect fill="url(#o)" height="16" rx="2" width="8" x="79" y="28"/><path d="m79 41v1c0 1.108.892 2 2 2h4c1.108 0 2-.892 2-2v-1c0 1.108-.892 2-2 2h-4c-1.108 0-2-.892-2-2z" opacity=".2"/><rect fill="url(#q)" height="16" rx="2" width="8" x="79" y="64"/><path d="m65 6v84h12c3.324 0 6-2.676 6-6v-72c0-3.324-2.676-6-6-6z" opacity=".3"/><path d="m79 77v1c0 1.108.892 2 2 2h4c1.108 0 2-.892 2-2v-1c0 1.108-.892 2-2 2h-4c-1.108 0-2-.892-2-2z" opacity=".2"/><rect fill="url(#e)" height="84" rx="6" width="76" x="6" y="6"/><path d="m24 6h1v84h-1z" fill="#fff" opacity=".15"/><path d="m12 6c-3.324 0-6 2.676-6 6v72c0 3.324 2.676 6 6 6h12v-84z" fill="url(#f)"/><path d="m23 6h1v84h-1z" opacity=".4"/><path d="m12 6c-3.850252-.1353517-6.5686618 3.7428302-6 7.356285.0181568 23.711195-.0363099 47.424404.027225 71.134342-.8586996 2.298359 4.493245 5.809116 3.285275 4.728123-3.2052141-1.988841-2.1220579-6.022388-2.3125-9.157368.0170642-22.525111-.0341263-45.051918.02559-67.575969.2088979-3.2591641 3.61326-4.9420973 6.556743-4.485413 20.977204.01712 41.95611-.034203 62.932254.02559 3.259164.208898 4.942097 3.61326 4.485413 6.556743-.02345 23.652105.0469 47.307263-.03517 70.957461.412935 2.431244-5.152855 5.528097-1.087717 2.991175 3.063759-2.516765 1.889129-6.711116 2.122887-10.147729-.020565-22.332543.041139-44.667148-.030864-66.998401-.250943-3.7342058-4.101334-5.8996346-7.551469-5.384839-20.805889 0-41.611778 0-62.417667 0z" fill="url(#j)" opacity=".3"/><path d="m12 90c-3.850252.135352-6.5686618-3.74283-6-7.356285.0181568-23.711195-.0363099-47.424404.027225-71.134342-.8586996-2.2983594 4.493245-5.8091155 3.285275-4.728123-3.2052141 1.9888411-2.1220579 6.022388-2.3125 9.157368.0170642 22.525111-.0341263 45.051918.02559 67.575969.2088979 3.259164 3.61326 4.942097 6.556743 4.485413 20.977204-.01712 41.95611.034203 62.932254-.02559 3.259164-.208898 4.942097-3.61326 4.485413-6.556743-.023449-23.652105.046897-47.307263-.03517-70.957461.412935-2.4312444-5.152855-5.528097-1.087717-2.9911747 3.063759 2.5167643 1.889129 6.7111157 2.122887 10.1477287-.020565 22.332543.041139 44.667148-.030864 66.998401-.250943 3.734206-4.101334 5.899635-7.551469 5.384839-20.805889 0-41.611778 0-62.417667 0z" fill="url(#k)" opacity=".2"/><path d="m52.47763 24.745342c-6.575712 0-11.901975 4.907404-11.901975 10.946256.016.692057.02052 1.464871.09368 2.325683-1.040665.545868-1.178172 2.685407-.24992 4.837434.357941.829835.849956 1.500521 1.343273 2.046606.01641.01824.04594.04429.06239.06207.117771.568592.201217 1.002139.34364 1.64349.441172 1.302284 2.268233 3.754939 3.873601 5.860741.160085 1.624479.165911 3.237708-.156193 5.085514-4.620776 3.772139-16.449311 5.459663-16.431608 9.364778l-.218664 1.488445h46.483292l-.218627-1.488455c-.01886-3.342261-11.89871-5.459657-16.46283-9.364782-.184804-1.495878-.219021-2.960966-.124962-4.434323 1.459571-2.215334 3.385208-5.070221 3.8736-6.511931.179519-.746624.266698-1.250453.406111-1.891545.431005-.518363.837664-1.122944 1.155844-1.860568.881506-2.043647.773482-4.01885-.124963-4.68238.06278-.887989.129934-1.721808.156194-2.480738.000015-6.038848-5.326248-10.946255-11.901969-10.946255z" fill="url(#r)"/></g><rect height="66" rx="12" style="opacity:.1;stroke:#fff;stroke-width:.5;stroke-linecap:round;clip-path:url(#d);fill:url(#c);filter:url(#b)" width="66" x="15" y="15"/><g><g id="v"><path d="m10 24c0-2.209139 1.790861-4 4-4s4 1.790861 4 4-1.790861 4-4 4-4-1.790861-4-4zm1 0c0 1.656854 1.343146 3 3 3s3-1.343146 3-3-1.343146-3-3-3-3 1.343146-3 3z" fill="url(#s)" opacity=".3"/><path d="m6 21v7h8c1.646385 0 3-1.579217 3-3.5 0-1.920782-1.353615-3.5-3-3.5z" opacity=".3"/><path d="m17 24a3 3 0 1 1 -6 0 3 3 0 1 1 6 0z" opacity=".6"/><rect fill="url(#t)" height="4" rx="2" width="12" x="4" y="22"/><rect fill="url(#u)" height="4" opacity=".6" rx="2" width="12" x="4" y="22"/></g><use height="96" transform="translate(0 12)" width="96" xlink:href="#v"/><use height="96" transform="translate(0 24)" width="96" xlink:href="#v"/><use height="96" transform="translate(0 36)" width="96" xlink:href="#v"/><use height="96" transform="translate(0 48)" width="96" xlink:href="#v"/></g></g></svg>