<svg height="22" width="22" xmlns="http://www.w3.org/2000/svg" xmlns:xlink="http://www.w3.org/1999/xlink"><linearGradient id="a" gradientTransform="matrix(.90659037 0 0 .92290809 -6.501279 16.209194)" gradientUnits="userSpaceOnUse" x1="32.891998" x2="36.358002" y1="8.059" y2="5.4565"><stop offset="0" stop-color="#77b0e2"/><stop offset="1" stop-color="#5386bb"/></linearGradient><radialGradient id="b" cx="48" cy="90.171875" gradientTransform="matrix(.38970735 0 0 .33673464 -1.848814 15.921719)" gradientUnits="userSpaceOnUse" r="42" xlink:href="#c"/><linearGradient id="c"><stop offset="0" stop-color="#fff"/><stop offset="1" stop-color="#fff" stop-opacity="0"/></linearGradient><linearGradient id="d" gradientTransform="matrix(0 -.42933676 .33673468 0 .693878 48.861735)" gradientUnits="userSpaceOnUse" x1="7.3709" x2="23.76619" y1="51.470146" y2="51.433136"><stop offset="0" stop-color="#133e6a"/><stop offset="1" stop-color="#285d96"/></linearGradient><linearGradient id="e" gradientUnits="userSpaceOnUse" x1="248.07678816" x2="248.07678816" y1="-62.6598922" y2="-98.66515562275"><stop offset="0" stop-color="#3e6c9c"/><stop offset="1" stop-color="#5587b1"/></linearGradient><linearGradient id="f" gradientTransform="matrix(.98340354 0 0 .98744379 140.32442 12.974428)" gradientUnits="userSpaceOnUse" x1="36.357143" x2="36.357143" xlink:href="#c" y1="6" y2="63.893143"/><linearGradient id="g" gradientTransform="matrix(1.0058652 0 0 .994169 100 0)" gradientUnits="userSpaceOnUse" x1="45.447727" x2="45.447727" y1="92.539597" y2="7.01654"><stop offset="0"/><stop offset="1" stop-opacity=".588235"/></linearGradient><linearGradient id="h" gradientTransform="matrix(.90932204 0 0 -.90907903 8.945106 90.567956)" gradientUnits="userSpaceOnUse" x1="32.251034" x2="32.251034" xlink:href="#g" y1="6.131708" y2="90.238609"/><linearGradient id="i" gradientTransform="matrix(.88394566 0 0 -.88394572 10.163169 89.361561)" gradientUnits="userSpaceOnUse" x1="32.251034" x2="32.251034" xlink:href="#g" y1="6.131708" y2="90.238609"/><linearGradient id="j"><stop offset="0" stop-color="#fff" stop-opacity="0"/><stop offset=".15000001" stop-color="#fff"/><stop offset=".69999999" stop-color="#fff"/><stop offset="1" stop-color="#fff" stop-opacity="0"/></linearGradient><linearGradient id="k" gradientTransform="matrix(.9915504 0 0 1 -.103992 13)" gradientUnits="userSpaceOnUse" x1="10" x2="69" xlink:href="#j" y1="11.5" y2="11.5"/><linearGradient id="l" gradientTransform="matrix(1.0006748 0 0 .83641517 5.993251 -25.118774)" gradientUnits="userSpaceOnUse" x1="10" x2="69" xlink:href="#j" y1="11.5" y2="11.5"/><linearGradient id="m" gradientTransform="matrix(.55595538 0 0 .83078806 37.625031 -90.054063)" gradientUnits="userSpaceOnUse" x1="10" x2="69" xlink:href="#j" y1="11.5" y2="11.5"/><linearGradient id="n" gradientTransform="matrix(1.1016949 0 0 1 -96.016948 -86)" gradientUnits="userSpaceOnUse" x1="10" x2="69" xlink:href="#j" y1="11.5" y2="11.5"/><linearGradient id="o" gradientTransform="matrix(1.0040273 0 0 1 -.040273 21)" gradientUnits="userSpaceOnUse" x1="10" x2="69" xlink:href="#j" y1="11.5" y2="11.5"/><linearGradient id="p" gradientUnits="userSpaceOnUse" x1="38" x2="78" xlink:href="#c" y1="41" y2="41"/><linearGradient id="q" gradientUnits="userSpaceOnUse" x1="38" x2="89" xlink:href="#c" y1="41" y2="41"/><linearGradient id="r" gradientTransform="scale(2.6442611 .37817748)" gradientUnits="userSpaceOnUse" x1="11.803352" x2="26.304504" xlink:href="#j" y1="128.43626" y2="128.43626"/><linearGradient id="s" gradientTransform="scale(.835751 1.1965286)" gradientUnits="userSpaceOnUse" x1="37.345032" x2="40.793205" xlink:href="#j" y1="40.913391" y2="40.913391"/><linearGradient id="t" gradientTransform="scale(.94429713 1.0589887)" gradientUnits="userSpaceOnUse" x1="36.61792" x2="39.603256" xlink:href="#j" y1="47.137852" y2="47.137852"/><linearGradient id="u" gradientTransform="scale(.87586969 1.1417223)" gradientUnits="userSpaceOnUse" x1="43.283539" x2="46.052551" xlink:href="#j" y1="43.722061" y2="43.722061"/><linearGradient id="v" gradientTransform="scale(.96602934 1.0351652)" gradientUnits="userSpaceOnUse" x1="42.047516" x2="45.101559" xlink:href="#j" y1="48.222691" y2="48.222691"/><linearGradient id="w" gradientTransform="scale(.918622 1.088587)" gradientUnits="userSpaceOnUse" x1="48.146126" x2="50.966415" xlink:href="#j" y1="45.866669" y2="45.866669"/><linearGradient id="x" gradientTransform="scale(.78725587 1.2702351)" gradientUnits="userSpaceOnUse" x1="60.274445" x2="63.81905" xlink:href="#j" y1="38.238361" y2="38.238361"/><linearGradient id="y" gradientTransform="scale(.96602934 1.0351652)" gradientUnits="userSpaceOnUse" x1="54.104286" x2="57.158329" xlink:href="#j" y1="48.222691" y2="48.222691"/><linearGradient id="z" gradientTransform="scale(.82240393 1.2159475)" gradientUnits="userSpaceOnUse" x1="67.941414" x2="71.334534" xlink:href="#j" y1="41.062515" y2="41.062515"/><linearGradient id="A" gradientTransform="scale(.70965408 1.4091372)" gradientUnits="userSpaceOnUse" x1="83.548813" x2="86.355247" xlink:href="#j" y1="34.853828" y2="34.853828"/><linearGradient id="B" gradientTransform="scale(.48205413 2.0744558)" gradientUnits="userSpaceOnUse" x1="128.12616" x2="130.23334" xlink:href="#j" y1="23.441698" y2="23.441698"/><linearGradient id="C" gradientTransform="scale(.96602934 1.0351652)" gradientUnits="userSpaceOnUse" x1="65.584183" x2="68.638222" xlink:href="#j" y1="48.222691" y2="48.222691"/><linearGradient id="D" gradientTransform="scale(.918622 1.088587)" gradientUnits="userSpaceOnUse" x1="72.897446" x2="75.717735" xlink:href="#j" y1="45.866669" y2="45.866669"/><g transform="matrix(.7 0 0 .7 -.8 -11.5)"><g transform="matrix(.40210864 0 0 .40210864 -4.290778 13.271027)"><path d="m20.618253 86.01187c-3.916074 0-7.105399-3.225978-7.105399-7.187076v-63.785252c0-3.961099 3.189325-7.1870759 7.105399-7.1870759h41.230022l29.823983 29.8239829v41.148345c0 3.961098-3.189315 7.187076-7.1054 7.187076z" fill="url(#h)" opacity=".329"/><path d="m21.510559 84.057885h62.16399c3.34823 0 6.04372-2.727212 6.04372-6.114824v-39.038079l-29.09854-29.0985314h-39.10917c-3.34822 0-6.04372 2.7272114-6.04372 6.1148244v62.021786c0 3.387612 2.6955 6.114824 6.04372 6.114824z" fill="url(#i)" opacity=".412"/></g><path d="m232.64822-98.6599h19.54285l13.88572 13.885715v19.542857c0 1.424571-1.14685 2.571428-2.57143 2.571428h-30.85714c-1.42458 0-2.57143-1.146857-2.57143-2.571428v-30.857144c0-1.424571 1.14685-2.571428 2.57143-2.571428z" fill="url(#e)" transform="matrix(.78571428 0 0 .78571428 -178.06033 95.518491)"/><path d="m152.12526 18.899082c-3.26883 0-5.90042 2.642396-5.90042 5.92467v1.974881 64.786007c4.55071 9.60335 1.17823 6.831772.9834.987443v-64.466657-1.974895c0-2.746917 2.18134-4.937223 4.91702-4.937223h1.96682 40.90958 1.96683l30.87884 30.579716v1.974892 38.824167c-2.76798 7.26277.98336 8.226077.98336-.987445v-38.824167-1.974895l-31.86225-31.886494z" fill="url(#f)" opacity=".3" transform="matrix(.34241783 0 0 .34241783 -47.355707 11.527917)"/><g transform="matrix(.30959628 0 0 .30959628 .962392 14.332173)"><path d="m9.811512 24h58.501472v1h-58.501472z" fill="url(#k)"/><path d="m16-15.918207h59.039818v.836415h-59.039818z" fill="url(#l)" transform="rotate(90)"/><path d="m43.184586-80.915398h32.801369v.830788h-32.801369z" fill="url(#m)" transform="rotate(90)"/><path d="m-85-75h65v1h-65z" fill="url(#n)" transform="scale(-1)"/><path d="m10 32h59.23761v1h-59.23761z" fill="url(#o)"/><g fill="#fff"><path d="m66.54924 29a2 2 0 0 1 -4 0 2 2 0 1 1 4 0z"/><path d="m60.54924 29a2 2 0 0 1 -4 0 2 2 0 1 1 4 0z"/><path d="m54.54924 29a2 2 0 0 1 -4 0 2 2 0 1 1 4 0z"/></g><path d="m30 43a3 3 0 1 1 -6 0 3 3 0 1 1 6 0z" fill="none" stroke="#fff" stroke-width="1.2" transform="matrix(.83333333 0 0 .83333333 2.5 5.166667)"/><path d="m30 43a3 3 0 1 1 -6 0 3 3 0 1 1 6 0z" fill="none" stroke="#fff" stroke-width="1.2" transform="matrix(.83333333 0 0 .83333333 2.5 15.166667)"/><g fill="url(#p)"><g fill="url(#p)"><path d="m31.456525 43v-3.954651h2.647848v.74756h-1.757623v.827452h1.5636v.747561h-1.5636v1.632078z"/><path d="m35.526557 43h-.850279v-3.001655h.850279zm.07989-3.869053c-.000002.155983-.05136.279625-.154078.370927-.09891.0875-.21685.131254-.353807.131251-.136958.000003-.256796-.04375-.359514-.131251-.09891-.0913-.148371-.214944-.14837-.370927-.000001-.155975.04946-.277715.14837-.36522.102718-.0913.222556-.136954.359514-.136958.136957.000004.254892.04566.353807.136958.102717.08751.154076.209245.154078.36522"/><path d="m38.134815 40.751612c-.07609-.01902-.165493-.03804-.268209-.05707-.10272-.02282-.213047-.03424-.330981-.03424-.05326.000003-.117937.0057-.194023.01712-.07229.0076-.127448.01712-.165491.02853v2.29404h-.850278v-2.841871c.152174-.05326.33098-.102715.536417-.148371.20924-.04945.441307-.07418.696201-.07418.04565.000003.100815.0038.165491.01141.06467.0038.129347.01142.194023.02283.06467.0076.129347.01902.194023.03424.06467.01142.119836.02663.165491.04565l-.142664.701908"/><path d="m39.594983 42.389397c.155978.000001.266305-.01522.330981-.04565.06467-.03043.09701-.0894.09701-.176904-.000001-.06848-.04185-.127446-.125544-.176903-.0837-.05326-.211144-.112229-.38234-.176904-.133154-.04946-.254894-.100815-.36522-.154077-.106524-.05326-.197829-.116033-.273916-.188317-.07609-.07609-.135056-.165489-.176903-.268209-.04185-.102716-.06277-.226358-.06277-.370927 0-.281521.10462-.504077.313862-.667668.20924-.163585.49647-.24538.861691-.245383.182609.000003.35761.01712.525005.05136.16739.03044.300543.06468.399459.102718l-.14837.661962c-.09892-.03424-.207341-.06467-.325275-.0913-.114133-.02663-.243482-.03994-.388046-.03995-.266308.000002-.399461.07419-.39946.222556-.000001.03424.0057.06468.01712.0913.01141.02663.03424.05326.06848.07989.03424.02283.07989.04946.136958.07989.06087.02663.136956.05707.228263.0913.186412.06848.34049.136959.462232.205436.121738.06468.216847.136959.285328.21685.07228.07609.121738.161687.148371.256795.03043.09511.04565.205438.04565.330981-.000002.296742-.112231.5212-.336687.673375-.220656.152175-.534517.228263-.941584.228263-.266307 0-.488863-.02283-.667668-.06848-.175002-.04565-.296742-.0837-.365221-.114131l.142665-.690495c.144566.05707.292936.102719.445112.136958.152174.03044.302447.04565.450819.04565"/><path d="m41.468877 39.250785.850278-.136958v.884518h1.021476v.707615h-1.021476v1.055715c-.000001.178807.03043.321471.09131.427992.06467.106524.192119.159785.38234.159784.0913.000001.18451-.0076.279621-.02283.09891-.01902.188315-.04375.268209-.07418l.119838.661961c-.10272.04185-.216852.07799-.342394.108425-.125546.03043-.279624.04565-.462232.04565-.232068 0-.424189-.03044-.576363-.09131-.152176-.06468-.273916-.152175-.365221-.262502-.0913-.114131-.15598-.251089-.194023-.410873-.03424-.159783-.05136-.336687-.05136-.530711v-2.522303"/><path d="m48.206015 41.493466c-.000003.235873-.03424.452722-.102718.650549-.06848.194024-.167395.361416-.296741.502178-.129352.136958-.285331.24348-.467939.319568-.178808.07609-.38044.114131-.604896.114131-.220656 0-.422287-.03804-.604896-.114131-.178807-.07609-.332884-.18261-.462232-.319568-.12935-.140762-.230166-.308154-.302448-.502178-.07228-.197827-.108425-.414676-.108425-.650549 0-.23587.03614-.450817.108425-.644842.07609-.194021.178805-.359511.308154-.496471.133153-.136955.289132-.243478.467939-.319568.182609-.07608.380436-.114129.593483-.114132.216847.000003.414675.03805.593483.114132.182608.07609.338587.182613.467938.319568.129346.13696.230162.30245.302449.496471.07228.194025.108421.408972.108424.644842m-.867398 0c-.000002-.2625-.05326-.467936-.159784-.616309-.10272-.152173-.251091-.228261-.445112-.228263-.194025.000002-.344298.07609-.450819.228263-.106524.148373-.159785.353809-.159784.616309-.000001.262503.05326.471744.159784.627723.106521.152175.256794.228263.450819.228262.194021.000001.342392-.07609.445112-.228262.10652-.155979.159782-.36522.159784-.627723"/><path d="m50.787791 41.521999c-.000003-.2625-.05897-.471741-.176904-.627723-.117938-.159781-.292939-.239673-.525004-.239675-.07609.000002-.14647.0038-.211143.01141-.06468.0038-.117937.0095-.159784.01712v1.535067c.05326.03424.121739.06277.205436.0856.0875.02283.175.03424.262502.03424.403262.000001.604894-.272012.604897-.816039m.867398-.02283c-.000003.232068-.02854.443211-.0856.633429-.05707.190219-.140765.353807-.251089.490765-.110329.136957-.247287.24348-.410872.319567-.163591.07609-.351908.114132-.564951.114132-.117937 0-.228264-.01141-.330981-.03424-.102718-.022822-.201632-.055159-.29674-.097007v1.1299h-.850279v-3.954651c.07609-.02282.163588-.04375.262502-.06277.09891-.02282.201632-.04185.308155-.05707.110326-.01521.220653-.02663.330981-.03424.11413-.01141.222555-.01712.325274-.01712.247283.000003.467937.03805.661962.114131.194021.07229.357609.176906.490765.313861.13315.133156.233966.296744.302448.490765.07228.194025.108422.410875.108425.650549"/></g><path d="m52.280149 39.250785.850278-.136958v.884518h1.021476v.707615h-1.021476v1.055715c-.000001.178807.03043.321471.09131.427992.06467.106524.19212.159785.38234.159784.0913.000001.184511-.0076.279622-.02283.09891-.01902.188315-.04375.268209-.07418l.119838.661961c-.102721.04185-.216852.07799-.342394.108425-.125547.03043-.279624.04565-.462232.04565-.232069 0-.42419-.03044-.576364-.09131-.152176-.06468-.273916-.152175-.36522-.262502-.09131-.114131-.15598-.251089-.194023-.410873-.03424-.159783-.05136-.336687-.05136-.530711v-2.522303" fill="url(#q)"/><path d="m55.68902 43h-.850279v-3.001655h.850279zm.07989-3.869053c-.000002.155983-.05136.279625-.154078.370927-.09891.0875-.21685.131254-.353807.131251-.136958.000003-.256796-.04375-.359514-.131251-.09891-.0913-.148371-.214944-.14837-.370927-.000001-.155975.04946-.277715.14837-.36522.102718-.0913.222556-.136954.359514-.136958.136957.000004.254893.04566.353807.136958.102717.08751.154076.209245.154078.36522" fill="url(#p)"/><path d="m59.295928 41.493466c-.000003.235873-.03424.452722-.102718.650549-.06848.194024-.167396.361416-.296742.502178-.129352.136958-.285331.24348-.467939.319568-.178807.07609-.380439.114131-.604896.114131-.220655 0-.422287-.03804-.604896-.114131-.178807-.07609-.332884-.18261-.462232-.319568-.129349-.140762-.230165-.308154-.302448-.502178-.07228-.197827-.108425-.414676-.108425-.650549 0-.23587.03614-.450817.108425-.644842.07609-.194021.178805-.359511.308155-.496471.133152-.136955.289131-.243478.467938-.319568.182609-.07608.380437-.114129.593483-.114132.216848.000003.414675.03805.593483.114132.182608.07609.338587.182613.467939.319568.129346.13696.230162.30245.302448.496471.07228.194025.108422.408972.108425.644842m-.867399 0c-.000002-.2625-.05326-.467936-.159783-.616309-.102721-.152173-.251091-.228261-.445113-.228263-.194025.000002-.344297.07609-.450819.228263-.106523.148373-.159785.353809-.159783.616309-.000002.262503.05326.471744.159783.627723.106522.152175.256794.228263.450819.228262.194022.000001.342392-.07609.445113-.228262.10652-.155979.159781-.36522.159783-.627723" fill="url(#p)"/><path d="m59.95459 40.101064c.144566-.04185.33098-.07989.559243-.114132.228262-.03804.467938-.05706.719028-.05707.254891.000003.466034.03424.633429.102718.171194.06468.30625.157884.405166.279622.09891.121742.169292.266309.211143.433699.04185.167394.06277.353809.06277.559243v1.694851h-.850279v-1.592132c-.000002-.273914-.03614-.467937-.108425-.58207-.07229-.114129-.20734-.171195-.405166-.171197-.06087.000002-.125546.0038-.194023.01141-.06848.0038-.129351.0095-.182611.01712v2.316867h-.850278v-2.898936" fill="url(#p)"/></g><g fill="url(#r)"><path d="m32.535067 52.320918c.125543.000001.228261-.0095.308154-.02853.08369-.02283.150271-.05136.19973-.0856.04945-.03804.08369-.08179.102718-.131251.01902-.04946.02853-.104619.02853-.16549-.000002-.129348-.06087-.235871-.18261-.319568-.121742-.0875-.330982-.180707-.627722-.279622-.12935-.04565-.258699-.09701-.388047-.154077-.12935-.06087-.245383-.135054-.348101-.222557-.102718-.0913-.186415-.199727-.251089-.325274-.06467-.129346-.09701-.285326-.09701-.467938 0-.182608.03424-.346196.102718-.490765.06848-.148368.16549-.273912.291035-.376634.125544-.102714.277719-.180704.456525-.233969.178805-.05706.380437-.08559.604897-.0856.266304.000005.496469.02854.690494.0856.194021.05707.353805.119842.479352.188317l-.256796.701908c-.110329-.05706-.233971-.10652-.370926-.148371-.133156-.04565-.294842-.06848-.485059-.06848-.213046.000003-.367124.03044-.462232.0913-.09131.05707-.136959.146472-.136957.268209-.000002.07229.01712.133156.05136.18261.03424.04946.08179.09511.142664.136958.06467.03805.136956.07419.21685.108424.08369.03044.174999.06278.273915.09701.205434.07609.38424.152177.536417.228263.152173.07229.277717.157883.376634.256795.102715.09892.178802.214949.228262.348101.04945.133155.07418.29484.07419.485058-.000003.369026-.129352.656256-.388047.861692-.2587.201632-.648648.302448-1.169846.302448-.175003 0-.332885-.01141-.473645-.03424-.140763-.01902-.266308-.04375-.376634-.07419-.106523-.03043-.19973-.06277-.279622-.09701-.07609-.03424-.140762-.06658-.194023-.09701l.251089-.707615c.117935.06468.262501.123644.433699.176904.175.04946.388045.07419.639136.07418" fill="url(#s)"/><path d="m34.578196 51.521999c0-.266305.03995-.498372.119838-.696201.0837-.20163.192121-.369022.325275-.502178.133152-.133151.285327-.233967.456525-.302448.175-.06848.353806-.102716.536418-.102719.426088.000003.762775.131254 1.010062.393754.247282.2587.370924.641039.370927 1.14702-.000003.04946-.0019.104622-.0057.16549-.0038.05707-.0076.108426-.01141.154077h-1.92882c.01902.175003.100815.313863.245383.41658.144565.102719.338588.154078.58207.154077.155977.000001.308152-.01331.456525-.03995.152173-.03043.275815-.06658.370927-.108424l.114131.690494c-.04566.02283-.106525.04565-.18261.06848-.07609.02283-.161689.04185-.256795.05707-.09131.01902-.190222.03424-.296742.04565-.106525.01141-.213047.01712-.319568.01712-.270112 0-.505983-.03995-.707614-.119838-.197829-.07989-.363319-.188316-.496472-.325274-.129349-.140762-.22636-.306252-.291034-.496472-.06087-.190218-.09131-.395654-.09131-.616309m1.997299-.325274c-.0038-.07228-.01712-.142663-.03995-.211143-.01902-.06848-.05136-.129347-.09701-.182611-.04185-.05326-.09701-.09701-.165491-.131251-.06468-.03424-.14647-.05136-.245382-.05136-.09511.000003-.176905.01712-.245383.05136-.06848.03044-.125546.07229-.171197.125545-.04565.05326-.08179.116035-.108425.188317-.02283.06848-.03995.138861-.05136.211143h1.124194" fill="url(#t)"/><path d="m37.910743 51.499173c0-.216848.03424-.420382.102718-.610603.07228-.194021.175001-.361414.308155-.502178.133152-.144564.294838-.258695.485058-.342394.190218-.08369.407067-.125542.650549-.125545.159782.000003.30625.01522.439405.04565.133151.02663.2625.06658.388047.119838l-.176904.679081c-.07989-.03043-.167394-.05706-.262502-.07989-.09511-.02282-.201634-.03424-.319567-.03424-.251091.000002-.439408.07799-.564951.233969-.121741.155982-.182611.361418-.18261.61631-.000001.270112.05707.479352.171197.627722.117935.148372.321469.222557.610603.222556.102716.000001.213043-.0095.330981-.02853.117933-.01902.226358-.04946.325274-.0913l.119838.696202c-.09892.04185-.222558.07799-.370927.108424-.148373.03043-.311961.04565-.490765.04565-.273916 0-.509788-.03995-.707614-.119838-.197829-.0837-.361417-.195925-.490765-.336687-.125545-.140762-.218752-.306252-.279622-.496472-.05707-.194022-.0856-.403263-.0856-.627722" fill="url(#u)"/><path d="m43.569429 51.493466c-.000003.235873-.03424.452722-.102718.650549-.06848.194024-.167396.361416-.296742.502178-.129351.136958-.285331.24348-.467938.319568-.178808.07609-.38044.114131-.604896.114131-.220656 0-.422288-.03804-.604897-.114131-.178806-.07609-.332883-.18261-.462232-.319568-.129349-.140762-.230165-.308154-.302448-.502178-.07228-.197827-.108425-.414676-.108424-.650549-.000001-.23587.03614-.450817.108424-.644842.07609-.194021.178806-.359511.308155-.496471.133153-.136955.289132-.243478.467939-.319568.182608-.07608.380436-.114129.593483-.114132.216847.000003.414675.03805.593483.114132.182607.07609.338587.182613.467938.319568.129346.13696.230162.30245.302448.496471.07228.194025.108422.408972.108425.644842m-.867398 0c-.000002-.2625-.05326-.467936-.159784-.616309-.10272-.152173-.251091-.228261-.445112-.228263-.194025.000002-.344298.07609-.450819.228263-.106524.148373-.159785.353809-.159784.616309-.000001.262503.05326.471744.159784.627723.106521.152175.256794.228263.450819.228262.194021.000001.342392-.07609.445112-.228262.10652-.155979.159782-.36522.159784-.627723" fill="url(#v)"/><path d="m44.228092 50.101064c.144566-.04185.33098-.07989.559244-.114132.228261-.03804.467937-.05706.719027-.05707.254892.000003.466035.03424.633429.102718.171195.06468.30625.157884.405167.279622.09891.121742.169292.266309.211143.433699.04185.167394.06277.353809.06277.559243v1.694851h-.850279v-1.592132c-.000002-.273914-.03614-.467937-.108425-.58207-.07228-.114129-.20734-.171195-.405166-.171197-.06087.000002-.125546.0038-.194023.01141-.06848.0038-.12935.0095-.18261.01712v2.316867h-.850279v-2.898936" fill="url(#w)"/><path d="m48.318808 51.476346c-.000001.262504.05897.473647.176904.633429.117934.159785.292935.239677.525004.239676.07609.000001.146467-.0019.211143-.0057.06467-.0076.117934-.01522.159784-.02283v-1.546479c-.05326-.03424-.123644-.06277-.211143-.0856-.0837-.02282-.169297-.03424-.256796-.03424-.403265.000002-.604897.273917-.604896.821745m1.923114 1.426642c-.07609.02283-.163592.04565-.262503.06848-.09892.01902-.203536.03614-.313861.05136-.106525.01522-.216852.02663-.330981.03424-.110329.01141-.216851.01712-.319567.01712-.247287 0-.46794-.03614-.661962-.108424-.194025-.07228-.357613-.175002-.490765-.308155-.133154-.136957-.235872-.300545-.308155-.490765-.06848-.194022-.102718-.410872-.102718-.650549 0-.243478.03043-.46223.0913-.656255.06087-.197825.14837-.365218.262502-.502178.114131-.136955.25299-.241575.41658-.313861.167391-.07228.35761-.108422.570656-.108425.117934.000003.222555.01142.313862.03424.09511.02283.190216.05517.285328.09701v-1.358163l.850279-.136958v4.331285" fill="url(#x)"/><path d="m55.216622 51.493466c-.000003.235873-.03424.452722-.102718.650549-.06848.194024-.167396.361416-.296742.502178-.129351.136958-.285331.24348-.467938.319568-.178808.07609-.38044.114131-.604896.114131-.220656 0-.422288-.03804-.604897-.114131-.178806-.07609-.332883-.18261-.462232-.319568-.129349-.140762-.230165-.308154-.302448-.502178-.07228-.197827-.108425-.414676-.108424-.650549-.000001-.23587.03614-.450817.108424-.644842.07609-.194021.178806-.359511.308155-.496471.133152-.136955.289132-.243478.467939-.319568.182608-.07608.380436-.114129.593483-.114132.216847.000003.414675.03805.593483.114132.182607.07609.338587.182613.467938.319568.129346.13696.230162.30245.302448.496471.07228.194025.108422.408972.108425.644842m-.867398 0c-.000003-.2625-.05326-.467936-.159784-.616309-.10272-.152173-.251091-.228261-.445112-.228263-.194025.000002-.344298.07609-.450819.228263-.106524.148373-.159785.353809-.159784.616309-.000001.262503.05326.471744.159784.627723.106521.152175.256794.228263.450819.228262.194021.000001.342392-.07609.445112-.228262.10652-.155979.159781-.36522.159784-.627723" fill="url(#y)"/><path d="m57.798399 51.521999c-.000002-.2625-.05897-.471741-.176903-.627723-.117938-.159781-.292939-.239673-.525004-.239675-.07609.000002-.146471.0038-.211143.01141-.06468.0038-.117938.0095-.159784.01712v1.535067c.05326.03424.121738.06277.205436.0856.0875.02283.175.03424.262502.03424.403262.000001.604894-.272012.604896-.816039m.867399-.02283c-.000004.232068-.02854.443211-.0856.633429-.05707.190219-.140765.353807-.251089.490765-.11033.136957-.247287.24348-.410873.319567-.16359.07609-.351907.114132-.56495.114132-.117937 0-.228264-.01141-.330981-.03424-.102719-.022822-.201632-.055159-.29674-.097007v1.1299h-.850279v-3.954651c.07609-.02282.163588-.04375.262502-.06277.09891-.02282.201631-.04185.308155-.05707.110326-.01521.220653-.02663.330981-.03424.11413-.01141.222554-.01712.325274-.01712.247283.000003.467937.03805.661962.114131.194021.07229.357609.176906.490765.313861.13315.133156.233966.296744.302448.490765.07228.194025.108421.410875.108425.650549" fill="url(#z)"/><path d="m59.290755 49.250785.850279-.136958v.884518h1.021476v.707615h-1.021476v1.055715c-.000001.178807.03043.321471.09131.427992.06467.106524.19212.159785.38234.159784.0913.000001.184511-.0076.279622-.02283.09891-.01902.188314-.04375.268209-.07418l.119837.661961c-.10272.04185-.216851.07799-.342394.108425-.125546.03043-.279623.04565-.462232.04565-.232068 0-.424189-.03044-.576363-.09131-.152176-.06468-.273916-.152175-.36522-.262502-.09131-.114131-.15598-.251089-.194024-.410873-.03424-.159783-.05136-.336687-.05136-.530711v-2.522303" fill="url(#A)"/><path d="m62.699627 53h-.850279v-3.001655h.850279zm.07989-3.869053c-.000002.155983-.05136.279625-.154078.370927-.09892.0875-.21685.131254-.353807.131251-.136958.000003-.256796-.04375-.359514-.131251-.09891-.0913-.148371-.214944-.148371-.370927 0-.155975.04946-.277715.148371-.36522.102718-.0913.222556-.136954.359514-.136958.136957.000004.254892.04566.353807.136958.102717.08751.154076.209245.154078.36522" fill="url(#B)"/><path d="m66.306536 51.493466c-.000003.235873-.03424.452722-.102718.650549-.06848.194024-.167395.361416-.296741.502178-.129352.136958-.285331.24348-.467939.319568-.178808.07609-.38044.114131-.604896.114131-.220656 0-.422287-.03804-.604896-.114131-.178807-.07609-.332884-.18261-.462232-.319568-.12935-.140762-.230166-.308154-.302448-.502178-.07228-.197827-.108425-.414676-.108425-.650549 0-.23587.03614-.450817.108425-.644842.07609-.194021.178805-.359511.308154-.496471.133153-.136955.289132-.243478.467939-.319568.182609-.07608.380436-.114129.593483-.114132.216848.000003.414675.03805.593483.114132.182608.07609.338587.182613.467939.319568.129345.13696.230161.30245.302448.496471.07228.194025.108421.408972.108424.644842m-.867398 0c-.000002-.2625-.05326-.467936-.159784-.616309-.10272-.152173-.251091-.228261-.445112-.228263-.194025.000002-.344298.07609-.450819.228263-.106524.148373-.159785.353809-.159784.616309-.000001.262503.05326.471744.159784.627723.106521.152175.256794.228263.450819.228262.194021.000001.342392-.07609.445112-.228262.106521-.155979.159782-.36522.159784-.627723" fill="url(#C)"/><path d="m66.965198 50.101064c.144566-.04185.330981-.07989.559244-.114132.228262-.03804.467937-.05706.719028-.05707.254891.000003.466034.03424.633429.102718.171194.06468.306249.157884.405166.279622.09891.121742.169292.266309.211143.433699.04185.167394.06277.353809.06277.559243v1.694851h-.850278v-1.592132c-.000003-.273914-.03614-.467937-.108425-.58207-.07229-.114129-.207341-.171195-.405167-.171197-.06087.000002-.125546.0038-.194023.01141-.06848.0038-.12935.0095-.18261.01712v2.316867h-.850279v-2.898936" fill="url(#D)"/></g><path d="m56.5 61.5h17v5h-17z" fill="none" stroke="#fff" stroke-dashoffset="8.6" stroke-linecap="round"/><path d="m34.5 61.5h17v5h-17z" fill="none" stroke="#fff" stroke-dashoffset="8.6" stroke-linecap="round"/></g><path d="m16.146071 18.000576c2.498363 0 .978665 11.229997.978665 11.229997s13.877949-1.469924 13.877949 3.130712c0-1.120679-.0027-3.451081-.0027-3.451081l-10.910194-10.910204z" fill-rule="evenodd" opacity=".2" stroke-width=".750917"/><path d="m2.7142856 43.709693c0 1.427115.901102 2.576021 2.0204085 2.576021h24.2448969c1.119307 0 2.020409-1.148906 2.020409-2.576021v-5.85255h-28.2857144z" fill="url(#d)"/><path d="m4.7346935 46.285714c-1.1193059 0-2.0204079-.904805-2.0204079-2.02871v-.785567c.013779-4.111219.3367334-4.198891.3367334-.338138v.676237c0 .940593.7469286 1.690591 1.6836745 1.690591h.6734709 22.8979486.673471c.936746 0 1.683674-.749998 1.683674-1.690591v-.676237c.03306-4.583428.336742-3.015029.336742.338119v.785566c-.000008 1.123925-.90111 2.02873-2.020416 2.02873z" fill="url(#b)" opacity=".2"/><g fill-rule="evenodd"><path d="m17.074786 18c2.362014 0 .915801 10.402988.915801 10.402988s4.605338-.548185 8.335981-.0762c2.53971.321312 4.674044 1.11542 4.674044 2.877141 0-1.059522-.000612-2.293727-.000612-2.293727l-10.910209-10.910202z" opacity=".2" stroke-width=".709936"/><path d="m18.189344 18.006833c2.225494 0 .801612 9.609776.801612 9.609776s12.012265-1.475777 12.012265 2.622383c0-.99828-.0032-1.328788-.0032-1.328788l-10.91023-10.910204z" fill="url(#a)" stroke-width=".668903"/></g></g><path d="m1.1 15h19.8v1h-19.8z" opacity=".3"/></svg>