<svg height="22" width="22" xmlns="http://www.w3.org/2000/svg" xmlns:xlink="http://www.w3.org/1999/xlink"><linearGradient id="a"><stop offset="0" stop-color="#818181"/><stop offset=".2" stop-color="#f9f9f9"/><stop offset="1" stop-color="#dcdcdc" stop-opacity="0"/></linearGradient><linearGradient id="b"><stop offset="0" stop-color="#ededed"/><stop offset="1" stop-color="#b0b0b0"/></linearGradient><linearGradient id="c"><stop offset="0" stop-color="#b4b4b4"/><stop offset=".20467032" stop-color="#646464"/><stop offset=".49567693" stop-color="#fff"/><stop offset="1" stop-color="#3c3c3c"/></linearGradient><linearGradient id="d"><stop offset="0" stop-color="#fff"/><stop offset="1" stop-color="#fff" stop-opacity="0"/></linearGradient><linearGradient id="e" gradientUnits="userSpaceOnUse" x1="19.035713" x2="87.5" xlink:href="#d" y1="72.744602" y2="26.173174"/><linearGradient id="f" gradientUnits="userSpaceOnUse" x1="6" x2="24" xlink:href="#a" y1="71.744602" y2="71.744602"/><linearGradient id="g" gradientTransform="matrix(-1 0 0 1 96 -1.255398)" gradientUnits="userSpaceOnUse" x1="6" x2="24" xlink:href="#a" y1="73" y2="73"/><linearGradient id="h" gradientUnits="userSpaceOnUse" x1="38.748035" x2="38.748035" y1="71.15395" y2="4.577759"><stop offset="0" stop-color="#dcdcdc"/><stop offset="1" stop-color="#fafafa"/></linearGradient><radialGradient id="i" cx="90" cy="90" gradientTransform="matrix(0 -1.085034 2 0 -90 186.39766)" gradientUnits="userSpaceOnUse" r="42"><stop offset="0" stop-color="#b4b4b4"/><stop offset="1" stop-color="#dcdcdc"/></radialGradient><clipPath id="j"><path d="m66 6v55c0 1.662 1.338 3 3 3h6c1.662 0 3-1.338 3-3v-55h-4v2h-4v-2z"/></clipPath><filter id="k" color-interpolation-filters="sRGB" height="1.07322" width="1.332308" x="-.166154" y="-.03661"><feGaussianBlur stdDeviation=".9"/></filter><linearGradient id="l" gradientTransform="matrix(.49408989 0 0 .70361229 .420095 36.415006)" gradientUnits="userSpaceOnUse" x1="68.75" x2="75.25" xlink:href="#c" y1="59" y2="59"/><linearGradient id="m" gradientUnits="userSpaceOnUse" x1="31.73695290454" x2="39.49456737" y1="80.58697692489" y2="81.00543795"><stop offset="0" stop-color="#a2a2a2"/><stop offset="1" stop-color="#fff"/></linearGradient><linearGradient id="n" gradientTransform="matrix(-.43495657 0 0 .5232543 67.317063 47.346436)" gradientUnits="userSpaceOnUse" x1="68.96875" x2="75.0625" xlink:href="#b" y1="17.5" y2="17.5"/><linearGradient id="o" gradientTransform="matrix(.43495657 0 0 .5232543 4.669721 47.346436)" gradientUnits="userSpaceOnUse" x1="68.02903" x2="75.97097" xlink:href="#b" y1="17.763245" y2="17.763245"/><linearGradient id="p" gradientTransform="matrix(.56313458 0 0 .50000003 -3.70642 22.997622)" gradientUnits="userSpaceOnUse" x1="68.75" x2="72.250572" xlink:href="#c" y1="59" y2="59"/><linearGradient id="q" gradientTransform="matrix(1.0058652 0 0 .994169 100 0)" gradientUnits="userSpaceOnUse" x1="45.447727" x2="45.447727" y1="92.539597" y2="7.01654"><stop offset="0"/><stop offset="1" stop-opacity=".588235"/></linearGradient><linearGradient id="r" gradientTransform="matrix(1.0238095 0 0 1.0119048 -1.142857 -98.071429)" gradientUnits="userSpaceOnUse" x1="32.251034" x2="32.251034" xlink:href="#q" y1="6.131708" y2="90.238609"/><linearGradient id="s" gradientTransform="translate(0 -97)" gradientUnits="userSpaceOnUse" x1="32.251034" x2="32.251034" xlink:href="#q" y1="6.131708" y2="90.238609"/><linearGradient id="t" gradientTransform="matrix(.53315586 0 0 .68002831 -2.392653 37.944471)" gradientUnits="userSpaceOnUse" x1="69" x2="73" y1="54" y2="54"><stop offset="0" stop-color="#fff"/><stop offset=".48973215" stop-color="#8c8c8c"/><stop offset=".50044644" stop-color="#cfcfcf"/><stop offset=".62276787" stop-color="#fff"/><stop offset=".81696427" stop-color="#c8c8c8"/><stop offset="1" stop-color="#505050"/></linearGradient><linearGradient id="u" gradientTransform="matrix(-.53315586 0 0 .68002831 74.38179 35.904384)" gradientUnits="userSpaceOnUse" x1="69" x2="73" y1="54" y2="54"><stop offset="0" stop-color="#2f2f2f"/><stop offset=".43731192" stop-color="#fff"/><stop offset=".62138397" stop-color="#979797"/><stop offset=".7723214" stop-color="#505050"/><stop offset="1" stop-color="#e6e6e6"/></linearGradient><linearGradient id="v" gradientUnits="userSpaceOnUse" x1="-16.26039681122" x2="-16.26039681122" y1="-15.4177026" y2="-3.28415620743"><stop offset="0" stop-color="#323232"/><stop offset="1" stop-color="#141414"/></linearGradient><linearGradient id="w" gradientUnits="userSpaceOnUse" x1="-19.5452991578" x2="-15.20904430784" xlink:href="#d" y1="-15.4177026" y2="-7.90708785431"/><linearGradient id="x" gradientUnits="userSpaceOnUse" x1="-13.21701208" x2="-13.21701208" y1="-1.23749025038" y2="-12.79476380136"><stop offset="0"/><stop offset="1" stop-opacity="0"/></linearGradient><g transform="matrix(.23896809 0 0 .23896809 -.470468 -.709436)"><g fill="url(#r)"><path d="m12-95.03125c-5.5110903 0-10.03125 4.52016-10.03125 10.03125v71c0 5.5110902 4.5201598 10.03125 10.03125 10.03125h72c5.51109 0 10.03125-4.5201597 10.03125-10.03125v-71c0-5.51109-4.52016-10.03125-10.03125-10.03125z" opacity=".08" transform="scale(1 -1)"/><path d="m12-94.03125c-4.971633 0-9.03125 4.059617-9.03125 9.03125v71c0 4.9716329 4.0596171 9.03125 9.03125 9.03125h72c4.971633 0 9.03125-4.059617 9.03125-9.03125v-71c0-4.971633-4.059617-9.03125-9.03125-9.03125z" opacity=".1" transform="scale(1 -1)"/><path d="m12-93c-4.4091333 0-8 3.590867-8 8v71c0 4.4091333 3.5908667 8 8 8h72c4.409133 0 8-3.5908667 8-8v-71c0-4.409133-3.590867-8-8-8z" opacity=".2" transform="scale(1 -1)"/><rect height="85" opacity=".3" rx="7" transform="scale(1 -1)" width="86" x="5" y="-92"/></g><rect fill="url(#s)" height="84" opacity=".45" rx="6" transform="scale(1 -1)" width="84" x="6" y="-91"/></g><g transform="matrix(.23896809 0 0 .23896809 -.470468 -1.007128)"><path d="m12 4.7446022c-3.324 0-6 2.676-6 5.9999998v72c0 3.324 2.676 6 6 6h72c3.324 0 6-2.676 6-6v-72c0-3.3239998-2.676-5.9999998-6-5.9999998h-9v3h-6v-3z" fill="url(#i)"/><path d="m6 54.744602v28c0 3.324 2.676 6 6 6h12v-34z" fill="url(#f)"/><path d="m90 54.744602v28c0 3.324-2.676 6-6 6h-12v-34z" fill="url(#g)"/><path d="m5.9999997 57.645594v4.185372c0 3.324 2.676 6 6.0000003 6h72.000004c3.324 0 6-2.676 6-6v-4.185372c0 3.324-2.676 6-6 6h-72.000004c-3.3240003 0-6.0000003-2.676-6.0000003-6z" opacity=".3"/><path d="m12 4.7446022c-3.324 0-6 2.676-6 5.9999998v42.787784c0 3.324 2.676 6 6 6h72c3.324 0 6-2.676 6-6v-42.787784c0-3.3239998-2.676-5.9999998-6-5.9999998h-9v3h-6v-3z" fill="url(#h)"/><path d="m12 4.7446022c-3.324 0-6 2.676-6 5.9999998l.0000005 42.440057c0 3.324 2.676 6.276988 5.9999995 6.276988h72c3.324 0 6-2.952988 6-6.276988v-42.440057c0-3.3239998-2.676-5.9999998-6-5.9999998h-9v2h9c2.245802 0 4 1.7541975 4 3.9999998v40.347727c0 2.245802-1.754198 4.184659-4 4.184659h-72c-2.245802 0-3.9999995-1.938857-3.9999995-4.184659l-.0000005-40.347727c0-2.2458023 1.7541975-3.9999998 4-3.9999998h57v-2z" fill="url(#e)" opacity=".5"/><path d="m5.9985768 61.830253v4.185372c0 3.324 2.676 6 6.0000002 6h72c3.324 0 6.000002-2.676 6.000002-6v-4.185372c0 3.324-2.676002 5.999999-6.000002 5.999999h-72c-3.3240002 0-6.0000002-2.675999-6.0000002-5.999999z" fill="#fff" opacity=".3"/><path d="m6.000711 70.199571v4.185372c0 3.324 2.676 6 6 6h72c3.324 0 6.000002-2.676 6.000002-6v-4.185372c0 3.324-2.676002 5.999999-6.000002 5.999999h-72c-3.324 0-6-2.675999-6-5.999999z" opacity=".3"/><path d="m5.999288 74.38423v4.185371c0 3.324001 2.676 6.000001 6 6.000001h72c3.324 0 6.000002-2.676 6.000002-6.000001v-4.185371c0 3.324-2.676002 5.999999-6.000002 5.999999h-72c-3.324 0-6-2.675999-6-5.999999z" fill="#fff" opacity=".3"/></g><g transform="matrix(.57142857393 0 0 .3696525885 -4.56832357462 -18.94156046271)"><path d="m32.994566 51.505433v27.500002c0 .830999.669 1.499999 1.499999 1.499999h3c.831001 0 1.500001-.669 1.500001-1.499999v-27.500002h-2v1.000001h-2v-1.000001z" fill="#252525"/><path d="m34.994564 52.505436h2v24.5h-2z" fill="#4d4d4d"/><rect fill="url(#l)" height="2.814449" rx=".49409" ry=".703612" stroke="#000" stroke-linecap="square" stroke-opacity=".563636" stroke-width=".294808" width="2.964539" x="34.512299" y="76.520912"/><path d="m66 6v55c0 1.662 1.338 3 3 3h6c1.662 0 3-1.338 3-3v-55h-4v2h-4v-2z" style="fill:none;stroke:#000;stroke-width:2;stroke-linecap:square;clip-path:url(#j);filter:url(#k)" transform="matrix(.50000001 0 0 .50000001 -.005435 48.505434)"/><path id="y" d="m34.661677 73.305932c-.143832 0-.266578.14822-.266578.340013v2.040087c0 .191792.122748.340012.266578.340012h.533157c.143831 0 .266578-.14822.266578-.340012v-.340017h.799732c.147686 0 .266579-.151645.266579-.340013v-.680029c0-.188366-.118893-.340013-.266579-.340013h-.799732v-.340015c0-.191793-.122749-.340013-.266578-.340013z" fill="url(#t)" stroke="#000" stroke-linecap="square" stroke-opacity=".563636" stroke-width=".301065"/><use id="z" height="96" transform="translate(0 -4.08017)" width="96" xlink:href="#y"/><use height="96" transform="translate(0 -4.08017)" width="96" xlink:href="#z"/><path id="A" d="m37.327458 71.265846c.14383 0 .266576.148223.266576.340016v2.040083c0 .191792-.122747.340015-.266576.340015h-.533157c-.143831 0-.266578-.148223-.266578-.340015v-.340013h-.799735c-.147683 0-.266576-.151646-.266576-.340014v-.680029c0-.188368.118893-.340014.266576-.340014h.799735v-.340013c0-.191793.122748-.340016.266578-.340016z" fill="url(#u)" stroke="#000" stroke-linecap="square" stroke-opacity=".563636" stroke-width=".301065"/><use height="96" transform="translate(0 -4.08017)" width="96" xlink:href="#A"/><path d="m32.494566 51.505433v27.500002c0 1.101147.898853 2 1.999999 2h3c1.101148 0 2.000001-.898853 2.000001-2v-27.500002h-.5v27.500002c0 .830999-.669 1.499999-1.500001 1.499999h-3c-.830999 0-1.499999-.669-1.499999-1.499999v-27.500002z" fill="url(#m)"/><path d="m34.781437 53.113439c-.298876 0-.534671.252401-.534671.565924l-.0022 5.659252c.000009.313524.235804.565926.53468.565926h2.428458c.298875 0 .53467-.252402.53467-.565926l.0022-5.659252c0-.313523-.235796-.565924-.53467-.565924z" fill="url(#o)"/><path d="m37.101169 53.609136c.120483 0 .217478.116686.217478.261627v5.265247c0 .144942-.09699.261627-.217478.261627h-2.21556c-.120483 0-.217478-.116685-.217478-.261627v-5.265247c0-.144941.09699-.261627.217478-.261627z" fill="url(#n)"/><rect fill="url(#p)" height="2.5" rx=".281567" ry=".25" stroke="#000" stroke-linecap="square" stroke-opacity=".563636" stroke-width=".5" width="1.689404" x="35.149864" y="51.49762"/><g transform="translate(.068359 -8.103393)"><use height="96" width="96" xlink:href="#z"/><use height="96" width="96" xlink:href="#A"/></g></g><g transform="matrix(.51847178 0 0 .55676799 14.090743 12.709084)"><rect fill="#666" height="16.164722" opacity=".2" rx="2.02059" width="21.216198" x="-23.319963" y="-17.438293"/><rect fill="url(#v)" height="12.123542" rx="1.262869" width="10.102951" x="-21.299374" y="-15.417703"/><path d="m-13.403483-12.335514c-.374919.591976-.730101 1.166187-1.065546 1.722632-.331507.556456-.621572 1.116854-.870195 1.6811947-.248632.5604011-.445954 1.1385576-.591969 1.7344709-.142077.591972-.213113 1.219459-.213109 1.882464h-1.734473c-.000002-.659059.07696-1.284573.230869-1.876544.157857-.5959139.370965-1.1760436.639327-1.7403909.268357-.5643407.580128-1.1207917.935312-1.6693547.355179-.5525.730093-1.114871 1.124743-1.687114h-4.143788v-1.367451h5.688829z" fill="#fff"/><path d="m-9.1758314-5.3147524v-1.098289l3.196637-3.9616096h-3.145283v-1.137915h4.980389v1.126075l-3.178878 3.9379316h3.261644v1.133807z" fill="#1a1a1a"/><path d="m-20.036504-15.417703c-.69963 0-1.262869.563239-1.262869 1.262869v9.5978036c0 .699629.563239 1.262869 1.262869 1.262869h7.577214c.699629 0 1.262868-.56324 1.262868-1.262869v-9.5978036c0-.69963-.563239-1.262869-1.262868-1.262869zm0 .505147h7.577214c.425762 0 .757721.331959.757721.757722v9.5978036c0 .425762-.331959.757721-.757721.757721h-7.577214c-.425763 0-.757722-.331959-.757722-.757721v-9.5978036c0-.425763.331959-.757722.757722-.757722z" fill="url(#w)" opacity=".2"/><path d="m-21.299373-17.438293c-1.119407 0-2.02059.901183-2.02059 2.02059v12.1235416c0 1.119407.901183 2.02059 2.02059 2.02059h17.1750166c1.119407 0 2.020591-.901183 2.020591-2.02059v-12.1235416c0-1.119407-.901184-2.02059-2.020591-2.02059zm0 .584076h17.1750166c.804721 0 1.436514.631793 1.436514 1.436514v12.1235416c0 .80472-.631793 1.436513-1.436514 1.436513h-17.1750166c-.804721 0-1.436514-.631793-1.436514-1.436513v-12.1235416c0-.804721.631793-1.436514 1.436514-1.436514z" fill="url(#x)" opacity=".2"/></g></svg>