<svg height="22" width="22" xmlns="http://www.w3.org/2000/svg" xmlns:xlink="http://www.w3.org/1999/xlink"><linearGradient id="a"><stop offset="0" stop-color="#818181"/><stop offset=".2" stop-color="#f9f9f9"/><stop offset="1" stop-color="#dcdcdc" stop-opacity="0"/></linearGradient><linearGradient id="b"><stop offset="0" stop-color="#ededed"/><stop offset="1" stop-color="#b0b0b0"/></linearGradient><linearGradient id="c"><stop offset="0" stop-color="#b4b4b4"/><stop offset=".20467032" stop-color="#646464"/><stop offset=".49567693" stop-color="#fff"/><stop offset="1" stop-color="#3c3c3c"/></linearGradient><linearGradient id="d" gradientUnits="userSpaceOnUse" x1="19.035713" x2="87.5" y1="72.744602" y2="26.173174"><stop offset="0" stop-color="#fff"/><stop offset="1" stop-color="#fff" stop-opacity="0"/></linearGradient><linearGradient id="e" gradientUnits="userSpaceOnUse" x1="6" x2="24" xlink:href="#a" y1="71.744602" y2="71.744602"/><linearGradient id="f" gradientTransform="matrix(-1 0 0 1 96 -1.255398)" gradientUnits="userSpaceOnUse" x1="6" x2="24" xlink:href="#a" y1="73" y2="73"/><linearGradient id="g" gradientUnits="userSpaceOnUse" x1="38.748035" x2="38.748035" y1="71.15395" y2="4.577759"><stop offset="0" stop-color="#dcdcdc"/><stop offset="1" stop-color="#fafafa"/></linearGradient><radialGradient id="h" cx="90" cy="90" gradientTransform="matrix(0 -1.085034 2 0 -90 186.39766)" gradientUnits="userSpaceOnUse" r="42"><stop offset="0" stop-color="#b4b4b4"/><stop offset="1" stop-color="#dcdcdc"/></radialGradient><clipPath id="i"><path d="m66 6v55c0 1.662 1.338 3 3 3h6c1.662 0 3-1.338 3-3v-55h-4v2h-4v-2z"/></clipPath><filter id="j" color-interpolation-filters="sRGB" height="1.07322" width="1.332308" x="-.166154" y="-.03661"><feGaussianBlur stdDeviation=".9"/></filter><linearGradient id="k" gradientTransform="matrix(.49408989 0 0 .70361229 .420095 36.415006)" gradientUnits="userSpaceOnUse" x1="68.75" x2="75.25" xlink:href="#c" y1="59" y2="59"/><linearGradient id="l" gradientUnits="userSpaceOnUse" x1="31.73695290454" x2="39.49456737" y1="80.58697692489" y2="81.00543795"><stop offset="0" stop-color="#a2a2a2"/><stop offset="1" stop-color="#fff"/></linearGradient><linearGradient id="m" gradientTransform="matrix(-.43495657 0 0 .5232543 67.317063 47.346436)" gradientUnits="userSpaceOnUse" x1="68.96875" x2="75.0625" xlink:href="#b" y1="17.5" y2="17.5"/><linearGradient id="n" gradientTransform="matrix(.43495657 0 0 .5232543 4.669721 47.346436)" gradientUnits="userSpaceOnUse" x1="68.02903" x2="75.97097" xlink:href="#b" y1="17.763245" y2="17.763245"/><linearGradient id="o" gradientTransform="matrix(.56313458 0 0 .50000003 -3.70642 22.997622)" gradientUnits="userSpaceOnUse" x1="68.75" x2="72.250572" xlink:href="#c" y1="59" y2="59"/><linearGradient id="p" gradientTransform="matrix(1.0058652 0 0 .994169 100 0)" gradientUnits="userSpaceOnUse" x1="45.447727" x2="45.447727" y1="92.539597" y2="7.01654"><stop offset="0"/><stop offset="1" stop-opacity=".588235"/></linearGradient><linearGradient id="q" gradientTransform="matrix(1.0238095 0 0 1.0119048 -1.142857 -98.071429)" gradientUnits="userSpaceOnUse" x1="32.251034" x2="32.251034" xlink:href="#p" y1="6.131708" y2="90.238609"/><linearGradient id="r" gradientTransform="translate(0 -97)" gradientUnits="userSpaceOnUse" x1="32.251034" x2="32.251034" xlink:href="#p" y1="6.131708" y2="90.238609"/><linearGradient id="s" gradientTransform="matrix(.53315586 0 0 .68002831 -2.392653 37.944471)" gradientUnits="userSpaceOnUse" x1="69" x2="73" y1="54" y2="54"><stop offset="0" stop-color="#fff"/><stop offset=".48973215" stop-color="#8c8c8c"/><stop offset=".50044644" stop-color="#cfcfcf"/><stop offset=".62276787" stop-color="#fff"/><stop offset=".81696427" stop-color="#c8c8c8"/><stop offset="1" stop-color="#505050"/></linearGradient><linearGradient id="t" gradientTransform="matrix(-.53315586 0 0 .68002831 74.38179 35.904384)" gradientUnits="userSpaceOnUse" x1="69" x2="73" y1="54" y2="54"><stop offset="0" stop-color="#2f2f2f"/><stop offset=".43731192" stop-color="#fff"/><stop offset=".62138397" stop-color="#979797"/><stop offset=".7723214" stop-color="#505050"/><stop offset="1" stop-color="#e6e6e6"/></linearGradient><g transform="matrix(.23896809 0 0 .23896809 -.470468 -.709436)"><g fill="url(#q)"><path d="m12-95.03125c-5.5110903 0-10.03125 4.52016-10.03125 10.03125v71c0 5.5110902 4.5201598 10.03125 10.03125 10.03125h72c5.51109 0 10.03125-4.5201597 10.03125-10.03125v-71c0-5.51109-4.52016-10.03125-10.03125-10.03125z" opacity=".08" transform="scale(1 -1)"/><path d="m12-94.03125c-4.971633 0-9.03125 4.059617-9.03125 9.03125v71c0 4.9716329 4.0596171 9.03125 9.03125 9.03125h72c4.971633 0 9.03125-4.059617 9.03125-9.03125v-71c0-4.971633-4.059617-9.03125-9.03125-9.03125z" opacity=".1" transform="scale(1 -1)"/><path d="m12-93c-4.4091333 0-8 3.590867-8 8v71c0 4.4091333 3.5908667 8 8 8h72c4.409133 0 8-3.5908667 8-8v-71c0-4.409133-3.590867-8-8-8z" opacity=".2" transform="scale(1 -1)"/><rect height="85" opacity=".3" rx="7" transform="scale(1 -1)" width="86" x="5" y="-92"/></g><rect fill="url(#r)" height="84" opacity=".45" rx="6" transform="scale(1 -1)" width="84" x="6" y="-91"/></g><g transform="matrix(.23896809 0 0 .23896809 -.470468 -1.007128)"><path d="m12 4.7446022c-3.324 0-6 2.676-6 5.9999998v72c0 3.324 2.676 6 6 6h72c3.324 0 6-2.676 6-6v-72c0-3.3239998-2.676-5.9999998-6-5.9999998h-9v3h-6v-3z" fill="url(#h)"/><path d="m6 54.744602v28c0 3.324 2.676 6 6 6h12v-34z" fill="url(#e)"/><path d="m90 54.744602v28c0 3.324-2.676 6-6 6h-12v-34z" fill="url(#f)"/><path d="m5.9999997 57.645594v4.185372c0 3.324 2.676 6 6.0000003 6h72.000004c3.324 0 6-2.676 6-6v-4.185372c0 3.324-2.676 6-6 6h-72.000004c-3.3240003 0-6.0000003-2.676-6.0000003-6z" opacity=".3"/><path d="m12 4.7446022c-3.324 0-6 2.676-6 5.9999998v42.787784c0 3.324 2.676 6 6 6h72c3.324 0 6-2.676 6-6v-42.787784c0-3.3239998-2.676-5.9999998-6-5.9999998h-9v3h-6v-3z" fill="url(#g)"/><path d="m12 4.7446022c-3.324 0-6 2.676-6 5.9999998l.0000005 42.440057c0 3.324 2.676 6.276988 5.9999995 6.276988h72c3.324 0 6-2.952988 6-6.276988v-42.440057c0-3.3239998-2.676-5.9999998-6-5.9999998h-9v2h9c2.245802 0 4 1.7541975 4 3.9999998v40.347727c0 2.245802-1.754198 4.184659-4 4.184659h-72c-2.245802 0-3.9999995-1.938857-3.9999995-4.184659l-.0000005-40.347727c0-2.2458023 1.7541975-3.9999998 4-3.9999998h57v-2z" fill="url(#d)" opacity=".5"/><path d="m5.9985768 61.830253v4.185372c0 3.324 2.676 6 6.0000002 6h72c3.324 0 6.000002-2.676 6.000002-6v-4.185372c0 3.324-2.676002 5.999999-6.000002 5.999999h-72c-3.3240002 0-6.0000002-2.675999-6.0000002-5.999999z" fill="#fff" opacity=".3"/><path d="m6.000711 70.199571v4.185372c0 3.324 2.676 6 6 6h72c3.324 0 6.000002-2.676 6.000002-6v-4.185372c0 3.324-2.676002 5.999999-6.000002 5.999999h-72c-3.324 0-6-2.675999-6-5.999999z" opacity=".3"/><path d="m5.999288 74.38423v4.185371c0 3.324001 2.676 6.000001 6 6.000001h72c3.324 0 6.000002-2.676 6.000002-6.000001v-4.185371c0 3.324-2.676002 5.999999-6.000002 5.999999h-72c-3.324 0-6-2.675999-6-5.999999z" fill="#fff" opacity=".3"/></g><g transform="matrix(.57142857393 0 0 .3696525885 -4.56832357462 -18.94156046271)"><path d="m32.994566 51.505433v27.500002c0 .830999.669 1.499999 1.499999 1.499999h3c.831001 0 1.500001-.669 1.500001-1.499999v-27.500002h-2v1.000001h-2v-1.000001z" fill="#252525"/><path d="m34.994564 52.505436h2v24.5h-2z" fill="#4d4d4d"/><rect fill="url(#k)" height="2.814449" rx=".49409" ry=".703612" stroke="#000" stroke-linecap="square" stroke-opacity=".563636" stroke-width=".294808" width="2.964539" x="34.512299" y="76.520912"/><path d="m66 6v55c0 1.662 1.338 3 3 3h6c1.662 0 3-1.338 3-3v-55h-4v2h-4v-2z" style="fill:none;stroke:#000;stroke-width:2;stroke-linecap:square;clip-path:url(#i);filter:url(#j)" transform="matrix(.50000001 0 0 .50000001 -.005435 48.505434)"/><path id="u" d="m34.661677 73.305932c-.143832 0-.266578.14822-.266578.340013v2.040087c0 .191792.122748.340012.266578.340012h.533157c.143831 0 .266578-.14822.266578-.340012v-.340017h.799732c.147686 0 .266579-.151645.266579-.340013v-.680029c0-.188366-.118893-.340013-.266579-.340013h-.799732v-.340015c0-.191793-.122749-.340013-.266578-.340013z" fill="url(#s)" stroke="#000" stroke-linecap="square" stroke-opacity=".563636" stroke-width=".301065"/><use id="v" height="96" transform="translate(0 -4.08017)" width="96" xlink:href="#u"/><use height="96" transform="translate(0 -4.08017)" width="96" xlink:href="#v"/><path id="w" d="m37.327458 71.265846c.14383 0 .266576.148223.266576.340016v2.040083c0 .191792-.122747.340015-.266576.340015h-.533157c-.143831 0-.266578-.148223-.266578-.340015v-.340013h-.799735c-.147683 0-.266576-.151646-.266576-.340014v-.680029c0-.188368.118893-.340014.266576-.340014h.799735v-.340013c0-.191793.122748-.340016.266578-.340016z" fill="url(#t)" stroke="#000" stroke-linecap="square" stroke-opacity=".563636" stroke-width=".301065"/><use height="96" transform="translate(0 -4.08017)" width="96" xlink:href="#w"/><path d="m32.494566 51.505433v27.500002c0 1.101147.898853 2 1.999999 2h3c1.101148 0 2.000001-.898853 2.000001-2v-27.500002h-.5v27.500002c0 .830999-.669 1.499999-1.500001 1.499999h-3c-.830999 0-1.499999-.669-1.499999-1.499999v-27.500002z" fill="url(#l)"/><path d="m34.781437 53.113439c-.298876 0-.534671.252401-.534671.565924l-.0022 5.659252c.000009.313524.235804.565926.53468.565926h2.428458c.298875 0 .53467-.252402.53467-.565926l.0022-5.659252c0-.313523-.235796-.565924-.53467-.565924z" fill="url(#n)"/><path d="m37.101169 53.609136c.120483 0 .217478.116686.217478.261627v5.265247c0 .144942-.09699.261627-.217478.261627h-2.21556c-.120483 0-.217478-.116685-.217478-.261627v-5.265247c0-.144941.09699-.261627.217478-.261627z" fill="url(#m)"/><rect fill="url(#o)" height="2.5" rx=".281567" ry=".25" stroke="#000" stroke-linecap="square" stroke-opacity=".563636" stroke-width=".5" width="1.689404" x="35.149864" y="51.49762"/><g transform="translate(.068359 -8.103393)"><use height="96" width="96" xlink:href="#v"/><use height="96" width="96" xlink:href="#w"/></g></g><g fill-rule="evenodd" stroke-width=".2"><path d="m5.7128697 10.073217s-.5889907.27232.4196451.364214c1.2221257.110836 1.8466298.09487 3.1930013-.107286 0 0 .3546908.176253.8491839.328903-3.0191871 1.027522-6.8330422-.05954-4.4618303-.585831z" fill="#0074bd" stroke="#0074bd"/><path d="m5.3437484 8.7321299s-.6606998.3885761.3486866.4714455c1.3056044.1070691 2.3362783.1158493 4.1207852-.1569588 0 0 .2462398.1986917.6340228.3072783-3.6497982.8480431-7.7149423.066718-5.1034946-.621765z" fill="#0074bd" stroke="#0074bd"/><path d="m8.4537486 6.4569048c.744315.6805974-.1951703 1.2925525-.1951703 1.2925525s1.8888297-.774415 1.0215653-1.7446491c-.8102929-.9043829-1.4315219-1.3536341 1.9316784-2.9029789.000034 0-5.27939 1.0471417-2.7580734 3.3550755z" fill="#ea2d2e" stroke="#ea2d2e"/><path d="m12.446808 11.06532s.43602.285518-.480233.506322c-1.742272.419198-7.2529255.545643-8.7835165.01677-.549827-.190237.481734-.453913.8063014-.509602.338418-.05816.5316438-.04753.5316438-.04753-.6119157-.34229-3.95508974.672251-1.6979579.963216 6.1552848.792547 11.2201612-.356976 9.6237622-.929176z" fill="#0074bd" stroke="#0074bd"/><path d="m5.9963289 7.3424267s-2.8026948.5289501-.9924654.7211921c.7645791.081271 2.2878354.062572 3.7077583-.032058 1.1601051-.077341 2.3243382-.242755 2.3243382-.242755s-.408762.1392901-.704708.2997176c-2.8466685.5947466-8.34487.3177653-6.7617761-.2902875 1.3382182-.5142623 2.426853-.4558092 2.426853-.4558092z" fill="#0074bd" stroke="#0074bd"/><path d="m11.024361 9.5747537c2.893542-1.1940738 1.555529-2.3416995.621673-2.1871255-.228364.037858-.330811.070648-.330811.070648s.08508-.1058768.247093-.1514306c1.847483-.5156985 3.267985 1.5215139-.595779 2.3283396-.000034 0 .04442-.031977.05782-.060431z" fill="#0074bd" stroke="#0074bd"/><path d="m9.2801777.59953962s1.6021303 1.27339328-1.5200496 3.23096108c-2.5037816 1.5709158-.5708757 2.4662747-.000887 3.4897859-1.4616452-1.0474669-2.5337343-1.9696811-1.8146301-2.8278599 1.055987-1.2595455 3.9818359-1.8704166 3.3355667-3.89288708z" fill="#ea2d2e" stroke="#ea2d2e"/><path d="m6.2808115 12.81146c2.7768359.141024 7.0421655-.07848 7.1431105-1.122315 0 0-.194044.395703-2.295102.709674-2.3703246.354486-5.2945019.313213-7.0281779.08582 0 0 .3551684.233514 2.1801694.326817z" fill="#0074bd" stroke="#0074bd"/></g></svg>