<svg height="22" width="22" xmlns="http://www.w3.org/2000/svg" xmlns:xlink="http://www.w3.org/1999/xlink"><linearGradient id="a" gradientTransform="matrix(.90659037 0 0 .92290809 -6.501279 16.209194)" gradientUnits="userSpaceOnUse" x1="32.891998" x2="36.358002" y1="8.059" y2="5.4565"><stop offset="0" stop-color="#f0f0f0"/><stop offset="1" stop-color="#b0b0b0"/></linearGradient><radialGradient id="b" cx="48" cy="90.171875" gradientTransform="matrix(.38970735 0 0 .33673464 -1.848814 15.921719)" gradientUnits="userSpaceOnUse" r="42" xlink:href="#c"/><linearGradient id="c"><stop offset="0" stop-color="#fff"/><stop offset="1" stop-color="#fff" stop-opacity="0"/></linearGradient><linearGradient id="d" gradientTransform="matrix(0 -.42933676 .33673468 0 .693878 48.861735)" gradientUnits="userSpaceOnUse" x1="7.3709" x2="23.76619" y1="51.470146" y2="51.433136"><stop offset="0" stop-color="#3879a1"/><stop offset="1" stop-color="#6595bb"/></linearGradient><linearGradient id="e" gradientUnits="userSpaceOnUse" x1="248.07678816" x2="248.07678816" y1="-62.6598922" y2="-98.66515562275"><stop offset="0" stop-color="#e0e0e0"/><stop offset="1" stop-color="#f0f0f0"/></linearGradient><linearGradient id="f" gradientTransform="matrix(.98340354 0 0 .98744379 136.15241 17.146439)" gradientUnits="userSpaceOnUse" x1="36.357143" x2="36.357143" xlink:href="#c" y1="6" y2="63.893143"/><linearGradient id="g" gradientTransform="matrix(1.0058652 0 0 .994169 100 0)" gradientUnits="userSpaceOnUse" x1="45.447727" x2="45.447727" y1="92.539597" y2="7.01654"><stop offset="0"/><stop offset="1" stop-opacity=".588235"/></linearGradient><linearGradient id="h" gradientTransform="matrix(.90932204 0 0 -.90907903 8.945106 90.567956)" gradientUnits="userSpaceOnUse" x1="32.251034" x2="32.251034" xlink:href="#g" y1="6.131708" y2="90.238609"/><linearGradient id="i" gradientTransform="matrix(.88394566 0 0 -.88394572 10.163169 89.361561)" gradientUnits="userSpaceOnUse" x1="32.251034" x2="32.251034" xlink:href="#g" y1="6.131708" y2="90.238609"/><linearGradient id="j" gradientTransform="matrix(-.25635421 0 0 .25321235 593.66341 -3728.0457)" gradientUnits="userSpaceOnUse" x1="2128.5525" x2="2128.5525" y1="15026.778" y2="14844.775"><stop offset="0" stop-color="#42699a"/><stop offset="1" stop-color="#99b8e1"/></linearGradient><clipPath id="k"><path d="m71.96875 20c-4.31369 1.765545-18.15511 7.512771-18.5 7.65625-3.87007-3.150175-8.91154-5.598136-14.125-5.875-12.646312-.79267-24.276266 10.394649-24.3125 22.8125-.555181 11.179767 4.562738 21.528517 9.1875 31.40625 3.869087-1.608909 17.95778-7.445809 18.3125-7.59375 3.79832 3.163745 8.648 5.478371 13.71875 5.84375 12.44374 1.040719 24.02407-9.655493 24.65625-21.78125.90325-11.34272-4.34426-21.857746-8.75-32-.0642-.15823-.1235-.310504-.1875-.46875zm-34.25 7.3125c9.1497-.0011 17.20052 7.683466 17.625 14.0625.35572 5.345489-1.411472 12.956485-10.15625 13.96875.323717.862924.769457 1.770109 1.40625 2.65625h-5.09375c-.414177-.963437-.667923-1.931712-.78125-2.875-4.223212-1.121554-7.97654-5.098816-8-10.625-.03-7.05132 8.82761-7.732626 11.0625-5.9375.86811.6973.83057 2.061607.0625 1.8125-4.771791-1.54858-7.718924 1.526099-7.5 4.5625.228202 3.163498 1.729509 5.344922 4.40625 6.28125.129081-1.075343.354866-2.164587.71875-3.21875h4.3125c-.716657 1.252471-1.077422 2.609534-1.1875 3.6875 5.441954-.419155 6.996019-5.969325 6.84375-8.3125-.197-3.033212-2.84006-9.297777-11.09375-10.4375-3.897197-.537566-7.109473.626374-9.46875 2.90625-2.359231 2.280077-3.712465 4.663674-3.90625 8.53125-.200416 4.000368.693285 6.345255 3.09375 11.59375.857436 1.874456 3.238989 5.650541 5.09375 9.4375l-8.03125 3.34375c-2.729027-6.584511-6.357078-12.371404-6.4375-23.125-.08308-11.110268 9.473998-18.311641 17.03125-18.3125z"/></clipPath><g transform="matrix(.7 0 0 .7 -.8 -11.5)"><g transform="matrix(.40210864 0 0 .40210864 -4.290778 13.271027)"><path d="m20.618253 86.01187c-3.916074 0-7.105399-3.225978-7.105399-7.187076v-63.785252c0-3.961099 3.189325-7.1870759 7.105399-7.1870759h41.230022l29.823983 29.8239829v41.148345c0 3.961098-3.189315 7.187076-7.1054 7.187076z" fill="url(#h)" opacity=".329"/><path d="m21.510559 84.057885h62.16399c3.34823 0 6.04372-2.727212 6.04372-6.114824v-39.038079l-29.09854-29.0985314h-39.10917c-3.34822 0-6.04372 2.7272114-6.04372 6.1148244v62.021786c0 3.387612 2.6955 6.114824 6.04372 6.114824z" fill="url(#i)" opacity=".412"/></g><path d="m232.64822-98.6599h19.54285l13.88572 13.885715v19.542857c0 1.424571-1.14685 2.571428-2.57143 2.571428h-30.85714c-1.42458 0-2.57143-1.146857-2.57143-2.571428v-30.857144c0-1.424571 1.14685-2.571428 2.57143-2.571428z" fill="url(#e)" transform="matrix(.78571428 0 0 .78571428 -178.06033 95.518491)"/><path d="m147.95325 23.071093c-3.26883 0-5.90042 2.642396-5.90042 5.92467v1.974881 64.786007c4.55071 9.603349 1.17823 6.831769.9834.987443v-64.466657-1.974895c0-2.746917 2.18134-4.937223 4.91702-4.937223h1.96682 40.90958 1.96683l30.87884 30.579716v1.974892 38.824167c-2.76798 7.262766.98336 8.226076.98336-.987445v-38.824167-1.974895l-31.86225-31.886494z" fill="url(#f)" transform="matrix(.34241783 0 0 .34241783 -45.927136 10.099346)"/><g fill-rule="evenodd" transform="matrix(.271912 0 0 .271912 1.352679 15.276045)"><path d="m71.964297 20c-4.313692 1.765545-18.146496 7.514769-18.491385 7.658248-3.870072-3.150175-8.903634-5.597759-14.117088-5.874623-12.646312-.79267-24.278099 10.40116-24.314333 22.819011-.555181 11.179767 4.564126 21.519631 9.188888 31.397364 3.869087-1.608909 17.937834-7.453672 18.292553-7.601613 3.798314 3.163745 8.662879 5.495088 13.733629 5.860467 12.443742 1.040719 24.008801-9.674034 24.640974-21.799791.903254-11.34272-4.342863-21.835509-8.748608-31.977763-.06416-.15823-.120626-.323054-.18463-.4813z" fill="url(#j)"/><path d="m27.115127 68.754933c-2.729027-6.584511-6.347034-12.387272-6.427456-23.140868-.08308-11.110268 9.478788-18.303362 17.03604-18.304221 9.149701-.0011 17.199961 7.700296 17.62444 14.07933.383092 5.756785-1.672192 14.129153-12.280714 14.066923-5.065365-.0293-10.328715-4.421398-10.356456-10.955886-.03-7.05132 8.832444-7.739218 11.067326-5.944092.868115.6973.841574 2.077159.07355 1.828052-4.771788-1.54858-7.719741 1.503447-7.500817 4.539848.297193 4.119905 2.749492 6.571062 7.145405 6.779546 6.341126.300221 8.116342-5.84659 7.954222-8.34136-.197-3.033212-2.850346-9.271757-11.104038-10.41148-3.897196-.537566-7.12708.625897-9.486357 2.905773-2.359231 2.280077-3.685611 4.637796-3.879396 8.505372-.200416 4.000368.675838 6.347596 3.076303 11.596091.857436 1.874456 3.25247 5.656278 5.107231 9.443237l-8.049246 3.353735z" fill="#eeeeec"/><path d="m68.5625 26.5625c-2.87878 1.158518-5.785376 2.351718-8.625 3.59375-1.067632.625532-1.016957 2.096906-.291805 2.982248 2.621789 5.198003 6.092081 10.087057 7.427112 15.83825.594136 3.591759.264234 7.775033-2.553672 10.408872-2.23686 2.664477-5.961298 3.638813-9.29531 2.880623-4.416175-.612318-8.444404-4.157119-8.911325-8.703743-.0064-2.952997 1.931463-6.377471 5.20054-6.431386 2.457112-.232807 5.407127.791221 6.088698 3.423592.872711 1.959452-.03769 4.652035-2.425711 4.803463-1.73.267013-4.183061-1.447706-5.135987.863861-.882603 2.294774 1.324223 4.447607 3.505865 4.687251 4.400405.865834 9.714832-1.22758 11.108295-5.773277 1.704311-6.284031-2.638836-13.322211-8.901682-14.907189-5.390483-1.278648-11.837506.650409-14.723846 5.609895-2.138899 3.720353-2.730084 8.344971-1.655238 12.491295 2.060509 6.174134 7.730525 10.697533 13.859352 12.47384 5.7603 1.777608 12.175531.0458 16.669848-3.850278 4.906146-4.031649 7.599409-10.47743 7.133281-16.799678-.118387-6.712556-2.230401-13.194052-5.087217-19.210256-.707837-1.239613-.952294-2.771149-1.854948-3.881133-.401636-.408936-.968701-.554257-1.53125-.5z" opacity=".05"/><path d="m68.78125 27.4375a.86839633.86839633 0 0 0 -.25.0625l-8.03125 3.34375a.86839633.86839633 0 0 0 -.4375 1.1875c1.883611 3.846395 4.305923 7.714605 5.09375 9.4375 2.393145 5.232507 3.193101 7.36416 3 11.21875-.184538 3.682705-1.361031 5.718077-3.625 7.90625-2.182235 2.108823-5.084922 3.162016-8.75 2.65625-3.925717-.541678-6.440414-2.253155-8.03125-4.1875s-2.227771-4.132933-2.3125-5.4375c-.06489-.998557.292176-3.044647 1.375-4.65625s2.767815-2.855503 5.65625-2.71875c2.044663.09697 3.506088.703399 4.53125 1.6875s1.644157 2.380676 1.78125 4.28125c.08787 1.21857-.435301 2.446752-1.5 3.21875s-2.666662 1.14412-4.84375.4375c-.415258-.134567-1.023205-.05832-1.34375.28125-.320545.339572-.377725.746825-.375 1.09375.0055.69385.314411 1.411903.96875 1.9375.797959.641016 1.897804.913792 3.15625 1 1.258446.08621 2.667047-.04669 4.03125-.5 2.728406-.906617 5.297797-3.235747 5.28125-7.125-.02971-6.997759-5.653452-11.811569-11.21875-11.84375-5.533748-.03268-9.06326 2.242783-11 5.28125s-2.356476 6.740719-2.15625 9.75c.234849 3.529053 2.496336 7.195901 5.84375 10.03125s7.838229 4.84454 12.65625 4.84375c8.108833-.000443 17.993074-7.576522 17.90625-19.1875-.08188-10.946777-3.80627-16.969039-6.5-23.46875a.86839633.86839633 0 0 0 -.90625-.53125z" opacity=".1"/><path d="m68.884872 28.309844c2.729059 6.584956 6.347034 12.387486 6.427472 23.141315.08308 11.110265-9.478818 18.303361-17.036041 18.303774-9.149715.0015-17.199975-7.700081-17.62444-14.07847-.383076-5.757415 1.672177-14.129998 12.28073-14.067353 5.065365.02929 10.328716 4.421413 10.356456 10.955685.03 7.051105-8.83246 7.739417-11.067342 5.944093-.868099-.6973-.841604-2.076945-.07355-1.828052 4.771774 1.54878 7.719697-1.503662 7.500771-4.539864-.297177-4.119888-2.749461-6.570617-7.145374-6.779102-6.341112-.300219-8.116342 5.846805-7.954237 8.341147.197001 3.033195 2.850331 9.27217 11.104068 10.411036 3.897182.537795 7.127066-.625667 9.486311-2.905545 2.359277-2.28029 3.685673-4.638009 3.879443-8.504943.200415-4.000579-.675869-6.347594-3.076334-11.596106-.857419-1.875085-3.252484-5.656062-5.107199-9.443451l8.049215-3.354164z" opacity=".2"/><path d="m68.884872 27.309844c2.729059 6.584956 6.347034 12.387486 6.427472 23.141315.08308 11.110265-9.478818 18.303361-17.036041 18.303774-9.149715.0015-17.199975-7.700081-17.62444-14.07847-.383076-5.757415 1.672177-14.129998 12.28073-14.067353 5.065365.02929 10.328716 4.421413 10.356456 10.955685.03 7.051105-8.83246 7.739417-11.067342 5.944093-.868099-.6973-.841604-2.076945-.07355-1.828052 4.771774 1.54878 7.719697-1.503662 7.500771-4.539864-.297177-4.119888-2.749461-6.570617-7.145374-6.779102-6.341112-.300219-8.116342 5.846805-7.954237 8.341147.197001 3.033195 2.850331 9.27217 11.104068 10.411036 3.897182.537795 7.127066-.625667 9.486311-2.905545 2.359277-2.28029 3.685673-4.638009 3.879443-8.504943.200415-4.000579-.675869-6.347594-3.076334-11.596106-.857419-1.875085-3.252484-5.656062-5.107199-9.443451l8.049215-3.354164z" fill="#a9c4e3"/><path d="m37.710725 27.286397c-7.557252.000858-17.10366 7.196314-17.020561 18.306582.08047 10.753597 3.713782 16.562292 6.442812 23.146802l8.029474-3.354609c-.716934-1.463806-1.50141-2.864812-2.259793-4.217222h-1.778985v-3.21084c-.437034-.78468-.817094-1.486595-1.057774-2.012767-2.400466-5.248494-3.277581-7.596996-3.077164-11.597363.193785-3.867576 1.535304-6.202293 3.894535-8.482368 2.359277-2.279878 5.574697-3.460869 9.471895-2.923304 3.90315.538977 6.539065 2.228013 8.269878 4.169302h1.634743v2.396148c.744166 1.431954 1.135642 2.811968 1.202016 3.83384.07201 1.108377-.278729 2.936152-1.202016 4.600607v5.702836c4.385297-2.767051 5.368805-8.177197 5.096551-12.268287-.424479-6.379033-8.49591-14.090417-17.645611-14.089357z" fill="#eeeeec"/><path d="m15 46.9375c-.105417 10.667167 4.383615 21.372838 8.822846 30.854307 3.869087-1.608909 18.254709-7.445809 18.609428-7.59375 3.798314 3.163745 8.648 5.478371 13.71875 5.84375 12.443742 1.040719 24.321005-9.358565 24.953178-21.484322.07667-.962805-.096534-3.012872-.104202-3.963735-.01358.620591-.04393 1.24932-.09375 1.875-.632173 12.125757-12.212508 22.821969-24.65625 21.78125-5.07075-.365379-9.920436-2.680005-13.71875-5.84375-.354719.147941-14.443413 5.984841-18.3125 7.59375-4.300751-9.185698-9.023788-18.773707-9.21875-29.0625z" fill="#95b6d1" fill-opacity=".559387"/><path d="m71.96875 20c-4.313692 1.765545-18.155111 7.512771-18.5 7.65625-3.870072-3.150175-8.911546-5.598136-14.125-5.875-12.646312-.79267-24.276266 10.394649-24.3125 22.8125-.555181 11.179767 4.562738 21.528517 9.1875 31.40625 3.869087-1.608909 17.957781-7.445809 18.3125-7.59375 3.798314 3.163745 8.648 5.478371 13.71875 5.84375 12.443742 1.040719 24.024077-9.655493 24.65625-21.78125.903254-11.34272-4.344255-21.857746-8.75-32-.06416-.15823-.123496-.310504-.1875-.46875zm-.875 2.15625c4.314639 9.861179 9.015698 19.787299 8.1875 30.1875a1.6425204 1.6425204 0 0 0 0 .03125c-.580494 11.134499-11.478192 21.205773-22.90625 20.25-4.649702-.33504-9.208489-2.492876-12.78125-5.46875a1.6425204 1.6425204 0 0 0 -1.6875-.28125c-.239281.0998-11.906659 4.949894-16.84375 7-4.426983-9.444051-8.908818-19.06721-8.40625-29.1875a1.6425204 1.6425204 0 0 0 .03125-.09375c.03325-11.395308 10.941837-21.915882 22.5625-21.1875 4.757503.25265 9.535939 2.558939 13.1875 5.53125a1.6425204 1.6425204 0 0 0 1.65625.25c.291615-.121316 11.762861-4.876464 17-7.03125z" opacity=".1"/><path d="m71.96875 20c-4.313692 1.765545-18.155111 7.512771-18.5 7.65625-3.870072-3.150175-8.911546-5.598136-14.125-5.875-12.646312-.79267-24.276266 10.394649-24.3125 22.8125-.555181 11.179767 4.562738 21.528517 9.1875 31.40625 3.869087-1.608909 17.957781-7.445809 18.3125-7.59375 3.798314 3.163745 8.648 5.478371 13.71875 5.84375 12.443742 1.040719 24.024077-9.655493 24.65625-21.78125.903254-11.34272-4.344255-21.857746-8.75-32-.06416-.15823-.123496-.310504-.1875-.46875zm-.375.96875c4.39543 10.098537 9.470166 20.431804 8.59375 31.4375a.72935447.72935447 0 0 0 0 .03125c-.609225 11.685593-11.882268 22.096749-23.875 21.09375-4.883785-.351907-9.614342-2.607178-13.3125-5.6875a.72935447.72935447 0 0 0 -.75-.125c-.301426.125715-13.242395 5.478505-17.65625 7.3125-4.543351-9.688125-9.375028-19.707828-8.84375-30.40625a.72935447.72935447 0 0 0 0-.03125c.034909-11.963795 11.371623-22.857873 23.5625-22.09375 5.010991.266112 9.914457 2.647555 13.6875 5.71875a.72935447.72935447 0 0 0 .75.125c.320809-.133461 13.062415-5.412603 17.84375-7.375z" opacity=".15"/><path d="m71.96875 20c-4.313692 1.765545-18.155111 7.512771-18.5 7.65625-3.870072-3.150175-8.911546-5.598136-14.125-5.875-12.646312-.79267-24.276266 10.394649-24.3125 22.8125-.01657.33365.0066.667836 0 1 .03623-12.417851 11.666188-23.60517 24.3125-22.8125 5.213454.276864 10.254928 2.724825 14.125 5.875.344889-.143479 14.186308-5.890705 18.5-7.65625.064.158246.12334.31052.1875.46875 3.855027 8.874472 8.353235 18.035465 8.8125 27.78125-.184366-10.121125-4.825988-19.604091-8.8125-28.78125-.06416-.15823-.123496-.310504-.1875-.46875z" opacity=".2"/><g clip-path="url(#k)"><path d="m37.71875 26.34375c-8.805966.001-19.091605 8.030916-19 20.28125.08374 11.197712 3.914821 17.518012 6.5625 23.90625-.0012-.0027.09517.190084.09375.1875-.0014-.0026.09541.158683.09375.15625-.0017-.0024.126895.158508.125.15625-.0019-.0023.127108.15831.125.15625-.0021-.0021.15855.126843.15625.125-.0023-.0018.15872.09536.15625.09375-.0025-.0016.190116.126358.1875.125-.0026-.0014.158987.0636.15625.0625-.0027-.0011.190331.06332.1875.0625-.0028-.000821.190398.06304.1875.0625-.0029-.000539.221687.0315.21875.03125-.0029-.000251.190448-.000038.1875 0-.0029.000038.190429-.03158.1875-.03125-.0029.000328.190383-.03186.1875-.03125-.0029.000614.190309-.03214.1875-.03125-.0028.000894.190208-.06367.1875-.0625l8.03125-3.34375a1.0404981 1.0404981 0 0 0 .03125-.03125c-.0027.0012.158853-.06399.15625-.0625-.0026.0015.189941-.126741.1875-.125-.0024.0017.158505-.126977.15625-.125-.0023.002.127046-.127192.125-.125-.002.0022.126817-.158635.125-.15625-.0018.0024.126569-.158805.125-.15625-.0016.0026.09506-.190199.09375-.1875-.0013.0027.06353-.190316.0625-.1875-.001.0028.06324-.190405.0625-.1875-.000744.0029.06295-.190464.0625-.1875-.00045.003.000152-.221745 0-.21875-.000152.003-.000148-.190495 0-.1875.000148.003-.000447-.190465 0-.1875.000447.003-.06324-.221655-.0625-.21875.000741.0029-.06353-.190317-.0625-.1875.001.0028-.0638-.15895-.0625-.15625a1.0404981 1.0404981 0 0 0 0-.03125c-1.917999-3.916077-4.367869-7.887705-5.0625-9.40625-2.388125-5.221513-3.121509-6.952118-2.9375-10.625.173438-3.461508 1.165378-5.143666 3.3125-7.21875 1.961168-1.895165 4.440096-2.840178 7.8125-2.375 3.667635.50645 5.878929 2.069475 7.3125 3.8125 1.423504 1.730785 2.028067 3.769938 2.09375 4.78125.04039.621572-.314309 2.616851-1.21875 3.96875-.934297 1.396527-2.117795 2.401433-4.65625 2.28125-1.841573-.08734-3.036691-.631516-3.84375-1.40625-.805974-.773693-1.314838-1.830826-1.4375-3.53125-.05957-.826182.332813-1.693731 1.09375-2.25.769488-.562519 1.934042-.901005 3.84375-.28125.883934.286702 1.771076.114016 2.46875-.625.55885-.591966.691393-1.347166.6875-1.84375-.008-1.022948-.466417-2.082694-1.375-2.8125-1.069567-.859109-2.43048-1.155317-3.8125-1.25-1.409408-.09656-2.928471.0611-4.4375.5625-3.072669 1.020947-6.049891 3.806258-6.03125 8.1875.03224 7.59515 6.10689 12.901604 12.3125 12.9375 5.839423.03425 9.803422-2.401916 11.9375-5.75 2.121203-3.327885 2.523501-7.266748 2.3125-10.4375-.263154-3.954643-2.697161-7.829763-6.21875-10.8125-3.525681-2.986203-8.247691-5.094366-13.375-5.09375z" opacity=".05"/><path d="m37.71875 27.375c-8.160924.000928-18.055928 7.591683-17.96875 19.25.082 10.964793 3.809634 17.008769 6.5 23.5a.95049533.95049533 0 0 0 1.25.5l8.03125-3.34375a.95049533.95049533 0 0 0 .46875-1.28125c-1.886344-3.851445-4.281139-7.729352-5.0625-9.4375-2.393042-5.232265-3.223672-7.284187-3.03125-11.125.183695-3.666209 1.373185-5.729985 3.625-7.90625 2.165517-2.092637 5.04429-3.158782 8.6875-2.65625 3.906729.539466 6.389841 2.267764 7.96875 4.1875s2.229073 4.09048 2.3125 5.375c.06336.975065-.303611 3.023557-1.375 4.625s-2.733514 2.854168-5.59375 2.71875c-2.030171-.09628-3.491599-.719488-4.5-1.6875s-1.613986-2.333232-1.75-4.21875c-.08581-1.190146.456822-2.393655 1.5-3.15625s2.625658-1.137051 4.78125-.4375c.436346.141528 1.064606.01814 1.40625-.34375.341644-.361889.40908-.764044.40625-1.125-.0057-.721912-.324783-1.457642-1-2-.820571-.659108-1.949514-.944294-3.21875-1.03125-1.269236-.08696-2.687026.07422-4.0625.53125-2.750948.91405-5.329194 3.263768-5.3125 7.1875.02989 7.041777 5.668718 11.873785 11.28125 11.90625 5.555432.03259 9.112092-2.22132 11.0625-5.28125s2.357308-6.791166 2.15625-9.8125c-.236991-3.561474-2.514538-7.247485-5.875-10.09375s-7.846545-4.844332-12.6875-4.84375z" opacity=".1"/><path d="m27.115127 69.754933c-2.729027-6.584511-6.347034-12.387272-6.427456-23.140868-.08308-11.110268 9.478788-18.303362 17.03604-18.304221 9.149701-.0011 17.199961 7.700296 17.62444 14.07933.383092 5.756785-1.672192 14.129153-12.280714 14.066923-5.065365-.0293-10.328715-4.421398-10.356456-10.955886-.03-7.05132 8.832444-7.739218 11.067326-5.944092.868115.6973.841574 2.077159.07355 1.828052-4.771788-1.54858-7.719741 1.503447-7.500817 4.539848.297193 4.119905 2.749492 6.571062 7.145405 6.779546 6.341126.300221 8.116342-5.84659 7.954222-8.34136-.197-3.033212-2.850346-9.271757-11.104038-10.41148-3.897196-.537566-7.12708.625897-9.486357 2.905773-2.359231 2.280077-3.685611 4.637796-3.879396 8.505372-.200416 4.000368.675838 6.347596 3.076303 11.596091.857436 1.874456 3.25247 5.656278 5.107231 9.443237l-8.049246 3.353735z" opacity=".2"/></g></g><path d="m16.146071 18.000576c2.498363 0 .978665 11.229997.978665 11.229997s13.877949-1.469924 13.877949 3.130712c0-1.120679-.0027-3.451081-.0027-3.451081l-10.910194-10.910204z" fill-rule="evenodd" opacity=".2" stroke-width=".750917"/><path d="m2.7142856 43.709693c0 1.427115.901102 2.576021 2.0204085 2.576021h24.2448969c1.119307 0 2.020409-1.148906 2.020409-2.576021v-5.85255h-28.2857144z" fill="url(#d)"/><path d="m4.7346935 46.285714c-1.1193059 0-2.0204079-.904805-2.0204079-2.02871v-.785567c.013779-4.111219.3367334-4.198891.3367334-.338138v.676237c0 .940593.7469286 1.690591 1.6836745 1.690591h.6734709 22.8979486.673471c.936746 0 1.683674-.749998 1.683674-1.690591v-.676237c.03306-4.583428.336742-3.015029.336742.338119v.785566c-.000008 1.123925-.90111 2.02873-2.020416 2.02873z" fill="url(#b)" opacity=".2"/><path d="m17.074786 18c2.362014 0 .915801 10.402988.915801 10.402988s4.605338-.548185 8.335981-.0762c2.53971.321312 4.674044 1.11542 4.674044 2.877141 0-1.059522-.000612-2.293727-.000612-2.293727l-10.910209-10.910202z" fill-rule="evenodd" opacity=".2" stroke-width=".709936"/><path d="m18.189344 18.006833c2.225494 0 .801612 9.609776.801612 9.609776s12.012265-1.475777 12.012265 2.622383c0-.99828-.0032-1.328788-.0032-1.328788l-10.91023-10.910204z" fill="url(#a)" fill-rule="evenodd" stroke-width=".668903"/><g fill="#fff" transform="matrix(.44071443 0 0 .44071443 -5.302284 5.606242)"><path d="m41.983398 78.582909v2.314453q-.900878-.402832-1.757812-.60791-.856934-.205079-1.618652-.205079-1.010743 0-1.494141.278321-.483398.27832-.483398.864258 0 .439453.322265.688476.32959.241699 1.186524.417481l1.201171.241699q1.823731.366211 2.592774 1.113281.769043.74707.769043 2.124024 0 1.809082-1.07666 2.695312-1.069336.878906-3.273926.878906-1.040039 0-2.087402-.197754-1.047364-.197754-2.094727-.585937v-2.380371q1.047363.55664 2.021484.842285.981446.27832 1.889649.27832.922851 0 1.413574-.307617.490723-.307617.490723-.878906 0-.512695-.336914-.791016-.32959-.27832-1.325684-.498047l-1.091309-.241699q-1.640625-.351562-2.402343-1.120605-.754395-.769043-.754395-2.072754 0-1.633301 1.054688-2.512207 1.054687-.878907 3.032226-.878907.900879 0 1.853028.139161.952148.131836 1.970214.402832z"/><path d="m45.184082 78.23867h2.819824v8.803711h4.951172v2.131348h-7.770996z"/><path d="m54.734863 78.23867h3.149414l3.977051 7.5v-7.5h2.67334v10.935059h-3.149414l-3.977051-7.5v7.5h-2.67334z"/></g></g><path d="m1.1 15h19.8v1h-19.8z" opacity=".3"/></svg>