<svg height="22" width="22" xmlns="http://www.w3.org/2000/svg" xmlns:xlink="http://www.w3.org/1999/xlink"><linearGradient id="a" gradientTransform="matrix(.90659036 0 0 .92290809 -6.501279 16.209194)" gradientUnits="userSpaceOnUse" x1="32.891998" x2="36.358002" y1="8.059" y2="5.4565"><stop offset="0" stop-color="#ddecff"/><stop offset="1" stop-color="#bfd3e6"/></linearGradient><radialGradient id="b" cx="48" cy="90.171875" gradientTransform="matrix(.38970735 0 0 .33673464 -1.848814 15.921719)" gradientUnits="userSpaceOnUse" r="42" xlink:href="#c"/><linearGradient id="c"><stop offset="0" stop-color="#fff"/><stop offset="1" stop-color="#fff" stop-opacity="0"/></linearGradient><linearGradient id="d" gradientTransform="matrix(0 -.42933676 .33673468 0 .693878 48.861735)" gradientUnits="userSpaceOnUse" x1="7.3709" x2="23.76619" y1="51.470146" y2="51.433136"><stop offset="0" stop-color="#637381"/><stop offset="1" stop-color="#6a7e8d"/></linearGradient><linearGradient id="e" gradientUnits="userSpaceOnUse" x1="248.07678816" x2="248.07678816" y1="-62.6598922" y2="-98.66515562275"><stop offset="0" stop-color="#a8bece"/><stop offset="1" stop-color="#cddfed"/></linearGradient><linearGradient id="f" gradientTransform="matrix(.4285717 0 0 .43033246 227.50536 -101.24189)" gradientUnits="userSpaceOnUse" x1="36.357143" x2="36.357143" xlink:href="#c" y1="6" y2="63.893143"/><linearGradient id="g" gradientTransform="matrix(1.0058652 0 0 .994169 100 0)" gradientUnits="userSpaceOnUse" x1="45.447727" x2="45.447727" y1="92.539597" y2="7.01654"><stop offset="0"/><stop offset="1" stop-opacity=".588235"/></linearGradient><linearGradient id="h" gradientTransform="matrix(.90932204 0 0 -.90907903 8.945106 90.567956)" gradientUnits="userSpaceOnUse" x1="32.251034" x2="32.251034" xlink:href="#g" y1="6.131708" y2="90.238609"/><linearGradient id="i" gradientTransform="matrix(.88394566 0 0 -.88394572 10.163169 89.361561)" gradientUnits="userSpaceOnUse" x1="32.251034" x2="32.251034" xlink:href="#g" y1="6.131708" y2="90.238609"/><clipPath id="j"><path d="m67.427683 45.744911a20.203051 20.203051 0 1 1 -40.406101 0 20.203051 20.203051 0 1 1 40.406101 0z" transform="matrix(1.4145804 -.81670835 .81670835 1.4145804 -56.163288 21.858899)"/></clipPath><filter id="k" color-interpolation-filters="sRGB" height="1.217329" width="1.171959" x="-.085979" y="-.108664"><feGaussianBlur stdDeviation="2.3558157"/></filter><linearGradient id="l" gradientTransform="matrix(0 -1.1877564 1.1877564 0 -4.766241 102.52193)" gradientUnits="userSpaceOnUse" x1="27.021582" x2="94.365082" xlink:href="#c" y1="45.744911" y2="45.744911"/><linearGradient id="m" gradientTransform="matrix(0 -1.1402464 1.1402464 0 -2.592888 100.27825)" gradientUnits="userSpaceOnUse" x1="27.021582" x2="67.427681" y1="45.744911" y2="45.744911"><stop offset="0" stop-color="#1a1a1a"/><stop offset="1" stop-color="#3a3a3a"/></linearGradient><radialGradient id="n" cx="49.567581856" cy="46.74329526935" gradientUnits="userSpaceOnUse" r="10.24563709527"><stop offset="0" stop-opacity="0"/><stop offset=".82844269"/><stop offset="1" stop-opacity="0"/></radialGradient><radialGradient id="o" cx="48" cy="48" gradientTransform="matrix(.85320208 0 0 -.85320208 8.613885 87.384253)" gradientUnits="userSpaceOnUse" r="27"><stop offset="0" stop-opacity="0"/><stop offset=".87387264" stop-opacity="0"/><stop offset="1"/></radialGradient><linearGradient id="p" gradientUnits="userSpaceOnUse" x1="40.53963" x2="58.595532" xlink:href="#c" y1="46.430557" y2="46.430557"/><linearGradient id="q" gradientUnits="userSpaceOnUse" x1="44.83747861005" x2="53.72770821754" xlink:href="#c" y1="37.47313686719" y2="55.38797713281"/><g transform="matrix(.7 0 0 .7 -.8 -11.5)"><g transform="matrix(.40210864 0 0 .40210864 -4.290778 13.271027)"><path d="m20.618253 86.01187c-3.916074 0-7.105399-3.225978-7.105399-7.187076v-63.785252c0-3.961099 3.189325-7.1870759 7.105399-7.1870759h41.230022l29.823983 29.8239829v41.148345c0 3.961098-3.189315 7.187076-7.1054 7.187076z" fill="url(#h)" opacity=".329"/><path d="m21.510559 84.057885h62.16399c3.34823 0 6.04372-2.727212 6.04372-6.114824v-39.038079l-29.09854-29.0985314h-39.10917c-3.34822 0-6.04372 2.7272114-6.04372 6.1148244v62.021786c0 3.387612 2.6955 6.114824 6.04372 6.114824z" fill="url(#i)" opacity=".412"/></g><g transform="matrix(.78571427 0 0 .78571428 -178.06033 95.518491)"><path d="m232.64822-98.6599h19.54285l13.88572 13.885715v19.542857c0 1.424571-1.14685 2.571428-2.57143 2.571428h-30.85714c-1.42458 0-2.57143-1.146857-2.57143-2.571428v-30.857144c0-1.424571 1.14685-2.571428 2.57143-2.571428z" fill="url(#e)"/><path d="m232.64822-98.6599c-1.42457 0-2.57143 1.151568-2.57143 2.581998v.860662 28.234034c1.98322 4.185183.51348 2.977317.42857.430332v-28.09486-.860668c0-1.197119.95064-2.151664 2.14286-2.151664h.85715 17.82858.85715l13.45714 13.326778v.860667 16.919747c-1.2063 3.165148.42855 3.584963.42855-.430333v-16.919747-.860668l-13.88571-13.896278z" fill="url(#f)" opacity=".5"/></g><g transform="matrix(.25643035 0 0 .25643035 4.122252 16.687287)"><path d="m76.017183 31.165154a30.541373 30.541373 0 1 1 -52.899205 30.541376 30.541373 30.541373 0 1 1 52.899205-30.541376z" fill="#8c9ab6"/><g clip-path="url(#j)" fill="#fff" filter="url(#k)" transform="matrix(.93108669 0 0 .93108669 4.875421 1.743685)"><path d="m67.328442 47.744933a20.203051 20.203051 0 0 1 -17.951623 18.088068l-2.152187-20.08809z" opacity=".2" transform="matrix(.00000001 -1.6334168 1.6334168 .00000001 -26.773438 125.16807)"/><path d="m66.786077 50.795965a20.203051 20.203051 0 0 1 -3.136879 6.713167l-16.424566-11.764221z" opacity=".2" transform="matrix(1.6334168 .00000001 -.00000001 1.6334168 -29.106939 -26.712314)"/></g><path d="m49.567578 22.434252a23.996307 23.996307 0 0 1 0 47.992614 23.996307 23.996307 0 1 1 0-47.992614z" fill="url(#l)" opacity=".6"/><path d="m49.567581 23.394098a23.036457 23.036457 0 0 1 0 46.072913 23.036457 23.036457 0 1 1 0-46.072913z" fill="url(#m)"/><path d="m49.327619 28.883253c-1.335773.194927-1.85607 1.573527-2.653629 2.484406-.625223.831612-1.25045 1.663221-1.875674 2.494832-5.547969 1.862765-9.687601 7.345013-9.715519 13.233618-.209801 6.097093 3.909068 12.002101 9.68144 13.959923 5.457461 2.002772 12.009674.265039 15.748713-4.19595 4.015096-4.486043 4.7196-11.572657 1.550438-16.713577-1.727348-2.968557-4.615913-5.152209-7.779315-6.354213-1.132941-1.455147-2.178801-3.002206-3.366698-4.399115-.430675-.401871-1.00868-.553288-1.589756-.509924z" opacity=".1"/><path d="m49.597577 29.933093a1.0059971 1.0059971 0 0 0 -.839869.419936l-3.239503 4.319337c-5.422066 1.724524-9.388554 6.735334-9.388554 12.718041 0 7.400776 6.037159 13.437933 13.43793 13.437933 7.400773 0 13.437933-6.037157 13.437933-13.437933 0-5.982707-3.96649-10.993517-9.388555-12.718041l-3.239502-4.319337a1.0059971 1.0059971 0 0 0 -.77988-.419936z" opacity=".15"/><path d="m49.567581 30.965728-3.362531 4.483375c-5.226102 1.464212-9.052972 6.247633-9.052972 11.941304 0 6.856898 5.558609 12.415508 12.415503 12.415508 6.856897 0 12.415508-5.55861 12.415508-12.415508 0-5.693671-3.826875-10.477092-9.052973-11.941304z" opacity=".3"/><path d="m49.567581 30.005877-3.362531 4.483375c-5.226102 1.464209-9.052972 6.247633-9.052972 11.941304 0 6.856895 5.558609 12.415506 12.415503 12.415506 6.856897 0 12.415508-5.558611 12.415508-12.415506 0-5.693671-3.826875-10.477095-9.052973-11.941304z" fill="#a4b4cb"/><path d="m59.813218 46.743295a10.245638 10.245638 0 1 1 -20.491275 0 10.245638 10.245638 0 1 1 20.491275 0z" fill="url(#n)"/><path d="m58.595534 46.430558a9.0279516 9.0279516 0 0 1 -18.055903 0 9.0279516 9.0279516 0 1 1 18.055903 0z" fill="#b2c7e2"/><path d="m37.934241 27.660516 1.19468-.689752 2.759001 4.77873-1.194685.689753zm-9.8651 13.723633.357042-1.332494 5.329979 1.428164-.357041 1.332497zm2.728401 16.679752-.689749-1.19468 4.778731-2.759004.689746 1.194683zm13.723633 9.865094-1.332493-.357042 1.428164-5.329979 1.332494.35704zm16.679751-2.7284-1.194687.689753-2.758999-4.778731 1.194684-.689751zm9.865098-13.723628-.357044 1.332493-5.329979-1.428164.357039-1.332493zm-2.728395-16.679755.689751 1.194683-4.778729 2.759003-.689752-1.194684zm-13.723638-9.865101 1.332497.357042-1.428164 5.329979-1.332499-.357041z" fill="#fff" opacity=".7"/><path d="m49.567582 69.46701c-12.722682 0-23.036456-10.313775-23.036456-23.036457 0-12.722684 10.313774-23.03645 23.036456-23.03645 12.722687 0 23.036459 10.313766 23.036459 23.03645 0 12.722682-10.313772 23.036457-23.036459 23.036457zm0-3.732759c10.654558 0 19.303698-8.649137 19.303698-19.303698 0-10.65456-8.64914-19.303701-19.303698-19.303701-10.654557 0-19.303698 8.649143-19.303698 19.303701 0 10.654561 8.649141 19.303698 19.303698 19.303698z" fill="url(#o)"/><path d="m49.567581 37.402608c-.394481 0-.787566.01927-1.175512.07059l1.175512 2.938776 1.175516-2.938788c-.388-.05085-.781033-.07059-1.175516-.07059zm1.175516.07059.376165 3.150379 1.904331-2.539112c-.361606-.149597-.747453-.274093-1.128492-.376187-.381039-.102099-.764007-.184223-1.152004-.235106zm2.280496.611267-.446695 3.12687 2.492093-1.951354c-.310576-.238087-.6458-.461067-.987434-.658308-.341632-.197242-.696355-.367653-1.057964-.517227zm2.045398 1.175516-1.246047 2.915274 2.915276-1.246046c-.238375-.310341-.4969-.614454-.775841-.893398h-.02352c-.27894-.27895-.559303-.537787-.869878-.775849zm1.669229 1.669228-1.974863 2.492089h.02353l3.126871-.446693c-.149927-.361489-.319979-.71636-.51722-1.057991h-.02351c-.197248-.341636-.396408-.677098-.634785-.987439zm1.175516 2.045392-2.539113 1.904337 2.915276-.799356c-.102094-.381056-.226232-.74354-.376163-1.105002zm-2.539113 1.904337 3.150378.376161c-.05126-.387946-.132998-.77096-.235102-1.152001l-2.915276.775838zm3.150378.376161-2.938786 1.175515 2.938786 1.175514c.05086-.387998.07058-.781031.07058-1.175514 0-.394482-.01928-.787564-.07058-1.175515zm0 2.351029-3.150378.376166 2.539113 1.904331c.14957-.361607.274066-.747451.376163-1.128491.102096-.381042.184221-.764007.235102-1.152006zm-.611265 2.280497-3.12687-.446692 1.951354 2.49209c.238066-.310573.461046-.645802.658288-.987431.197245-.341633.367654-.696358.517228-1.057967zm-1.175516 2.045398-2.915276-1.246045 1.246047 2.915275c.310334-.238378.614446-.496899.893388-.775844v-.02352c.278939-.278941.537775-.559308.775841-.869879zm-1.669229 1.66923-2.492093-1.974864v.02351l.446695 3.126868c.36146-.149933.716332-.319985 1.057964-.517226v-.02353c.341634-.197242.677096-.396403.987434-.634778zm-2.045398 1.175512-1.904331-2.539109.79935 2.915273c.381039-.102095.743524-.226231 1.104981-.376164zm-1.904331-2.539109-.376165 3.150378c.387947-.05126.770964-.132997 1.152004-.235105l-.775839-2.915291zm-.376165 3.150362-1.175516-2.938783-1.175512 2.938783c.387998.05086.781031.07059 1.175512.07059.394483 0 .787567-.01924 1.175516-.07059zm-2.351028 0-.376168-3.150376-1.90433 2.53911c.361607.149572.747452.274063 1.128492.376163.381038.102099.764006.184219 1.152006.235103zm-2.280498-.611266.446696-3.126871-2.492092 1.951355c.310575.238068.6458.461048.98743.658291.341631.19724.696357.367653 1.057966.517225zm-2.045396-1.175516 1.246044-2.915273-2.915277 1.246045c.238379.310337.4969.614447.775843.893388h.02352c.278939.278942.559305.537775.869881.77584zm-1.669233-1.669228 1.974867-2.492092h-.02353l-3.126869.446696c.149934.361456.319982.716331.517225 1.057964h.02351c.197242.341631.396402.677095.634777.987432zm-1.175511-2.045396 2.53911-1.904332-2.915275.799348c.102096.38104.226231.743523.376165 1.104984zm2.53911-1.904336-3.150378-.376167c.05126.38795.133009.770962.235103 1.152005zm-3.150378-.376171 2.938783-1.175514-2.938783-1.175512c-.05084.388-.07058.781028-.07058 1.175512 0 .394483.01926.787566.07058 1.175514zm0-2.351026 3.150378-.376164-2.53911-1.904338c-.149576.361609-.274065.747454-.376165 1.128496-.102097.381041-.184222.764004-.235103 1.152006zm.611268-2.280502 3.126868.446697-1.951357-2.492093c-.238066.310576-.461046.645802-.658288.987435-.197241.34163-.367654.696354-.517223 1.057961zm1.175511-2.045396 2.915277 1.246047-1.246044-2.915275c-.310337.238377-.614451.496898-.89339.775839v.02351c-.278942.278938-.537775.559304-.775843.869878zm1.669233-1.669228 2.492092 1.974865v-.02353l-.446696-3.126871c-.361462.149936-.716333.319986-1.057966.517228v.02355c-.34163.197226-.677093.396388-.98743.634765zm2.045396-1.175516 1.90433 2.539112-.799347-2.915272c-.381044.102091-.743525.226231-1.104983.37616zm1.90433 2.539112.376168-3.150378c-.38795.05126-.770966.132999-1.152006.235106z" fill="url(#p)" opacity=".2"/><path d="m58.577447 46.430556c0-4.986-4.023866-9.009864-9.009866-9.009864-4.985997 0-9.009863 4.023864-9.009863 9.009864 0 4.985999 4.023866 9.009864 9.009863 9.009864 4.986 0 9.009866-4.023865 9.009866-9.009864zm-2.931439 0c0 3.350574-2.727852 6.078423-6.078427 6.078423-3.350573 0-6.078425-2.727849-6.078425-6.078423 0-3.350575 2.727852-6.078426 6.078425-6.078426 3.350575 0 6.078427 2.727851 6.078427 6.078426z" fill="#a4b4cb"/><path d="m48.392069 37.473136-.376168 3.150379c.518215-.138856 1.039438-.210689 1.55168-.211593zm1.175512 2.938786c.536495 0 1.05666.07987 1.551681.211593l-.376165-3.150379zm1.551681.211593c.518214.138858 1.01357.332417 1.457636.587759l.446695-3.126871zm1.457636.587759c.46462.268247.883197.602349 1.246046.963919l1.246047-2.915274zm1.246046.963919c.37936.379359.68351.802883.940413 1.246046l1.974863-2.492092zm-5.807043-1.551678-1.90433-2.539112.446696 3.126871c.464616-.26825.963085-.454309 1.457634-.587759zm-3.949726-1.363596 1.246044 2.915274c.379358-.379358.802884-.683509 1.246048-.94041zm1.246044 2.915274-2.915277-1.246046 1.951357 2.492092c.268248-.464614.602351-.883197.96392-1.246046zm-.96392 1.246046-3.126868-.446695 2.53911 1.904336c.138853-.518213.332417-1.013575.587758-1.457641zm-.587758 1.457641-3.150378.376163 2.938783 1.175514c0-.536491.07984-1.056659.211595-1.551677zm-.211595 1.551677-2.938783 1.175513 3.150378.376166c-.138857-.518214-.21069-1.039439-.211595-1.551679zm.211595 1.551679-2.53911 1.904335 3.126868-.446696c-.268248-.464621-.454309-.963087-.587758-1.457639zm14.153195-5.007692-3.12687.446695c.268248.464618.454309.963085.587757 1.457641zm-2.539113 1.904336c.138856.518211.210692 1.039435.211592 1.551677l2.938786-1.175514zm.211592 1.551677c0 .536491-.07987 1.05666-.211592 1.551679l3.150378-.376166zm-.211592 1.551679c-.138857.518213-.332418 1.013573-.587757 1.457639l3.12687.446696zm-.587757 1.457639c-.268248.464616-.602352.883196-.963922 1.246046l2.915276 1.246045zm-.963922 1.246046c-.379361.379358-.802879.683509-1.246046.94041l2.492093 1.974863zm-9.451135-1.246046-1.974867 2.492091 2.915277-1.246045c-.379357-.379361-.683511-.802883-.94041-1.246046zm.94041 1.246046-1.246044 2.915273 2.492092-1.951355c-.46462-.268245-.883199-.602349-1.246048-.963918zm1.246048.963918-.446696 3.126869 1.90433-2.53911c-.518213-.138856-1.013569-.332417-1.457634-.587759zm1.457634.587759.376168 3.150379 1.175512-2.938785c-.536493 0-1.056659-.07987-1.55168-.211594zm1.55168.211594 1.175516 2.938785.376165-3.150379c-.518216.138854-1.03944.210693-1.551681.211594zm1.551681-.211594 1.904331 2.53911-.446695-3.126869c-.464616.268249-.963082.45431-1.457636.587759z" fill="url(#q)" opacity=".7"/><path d="m48.392069 37.473136 1.175512 2.938786 1.175516-2.938786-1.175516 1.434126zm0 0-.775841 1.669229v.02355l-1.504657-1.081472 1.90433 2.539112.376168-3.150378zm-2.280498.611267-.305637 1.833807-1.739759-.658291 2.492092 1.974864v-.02354l-.446696-3.12687zm-2.045396 1.175516.188081 1.857312-1.857314-.188084 2.915277 1.246046zm-1.669233 1.669228.658289 1.739766-1.8338.305631 3.126868.446695zm-1.175511 2.045397 1.081472 1.504658-1.69274.775841 3.150378-.376163zm-.611268 2.280499 1.434127 1.175514-1.434127 1.175513 2.938783-1.175513zm0 2.351027 1.669229.775842h.02353l-1.081474 1.504659 2.539111-1.904335-3.150379-.376166zm.611268 2.280501 1.8338.305634-.658289 1.739761 1.974867-2.492091h-.02353l-3.126869.446696zm1.175511 2.045395 1.857314-.188085-.188081 1.857313 1.246044-2.915273zm1.669233 1.669228 1.739759-.658285.305637 1.833799.446696-3.126869zm2.045396 1.175514 1.504657-1.081471.775841 1.69274-.376168-3.150379zm2.280498.611269 1.175512-1.434126 1.175516 1.434126-1.175516-2.938785zm2.351028 0 .77584-1.669232v-.02354l1.504656 1.081473-1.904331-2.539111-.376165 3.150379zm2.280496-.611269.305635-1.833799 1.739763.658285-2.492093-1.974863v.02352l.446695 3.126869zm2.045398-1.175514-.188084-1.857313 1.857313.188085-2.915276-1.246045zm1.669229-1.669228-.658287-1.739761 1.833803-.305634-3.12687-.446696zm1.175516-2.045395-1.081473-1.504659 1.692738-.775842-3.150378.376166zm.611265-2.280501-1.434127-1.175513 1.434127-1.175514-2.938786 1.175514zm0-2.351027-1.66923-.775841h-.02351l1.081474-1.504658-2.539114 1.904336 3.150378.376163zm-.611265-2.280499-1.833803-.305631.658287-1.739766-1.974863 2.492092h.02353l3.126871-.446695zm-1.175516-2.045397-1.857313.188084.188084-1.857312-1.246047 2.915274zm-1.669229-1.669228-1.739763.658291-.305635-1.833807-.446695 3.126871zm-2.045398-1.175516-1.504656 1.081475-.77584-1.692742.376165 3.150379z" opacity=".3"/><g fill="#fff"><path d="m49.567581 29.993082-3.359483 4.49931c-5.226099 1.464214-9.058603 6.244493-9.058603 11.938164 0 .173555.023.338097.02999.509922.19793-5.491914 3.942573-10.063265 9.028611-11.488232l3.359483-4.49931 3.359484 4.49931c5.086038 1.424967 8.830682 5.996318 9.028615 11.488232.0073-.171825.02999-.336367.02999-.509922 0-5.693671-3.832508-10.47395-9.058607-11.938164l-3.359482-4.49931z" opacity=".8"/><path d="m44.528356 24.923864-1.349792.359943.749886 2.789572c.442148-.135856.894675-.225806 1.349791-.32995zm15.477621 2.039685-1.439778 2.519614c.407705.217074.810284.444937 1.199815.689893l1.439779-2.519612zm-29.215506 7.828797-.689895 1.199814 2.519614 1.439782c.217072-.407711.444935-.810287.689895-1.199818zm39.923857 5.249195-2.789569.74988c.135853.44215.225809.894678.329951 1.349794l2.819566-.749883zm-39.833872 10.678353-2.819566.749885.359945 1.349796 2.789572-.749886c-.135855-.442152-.22581-.894675-.329951-1.349795zm35.634519 4.709276c-.217073.407708-.444935.810285-.689894 1.199817l2.519614 1.43978.689893-1.199818zm-27.145823 7.258886-1.439779 2.519614 1.199815.689891 1.439779-2.519613c-.407708-.217072-.810284-.444937-1.199815-.689892zm15.837564 2.099674c-.442148.135857-.894678.225809-1.349792.329951l.749884 2.819566 1.349793-.359943z" opacity=".3"/><path d="m50.266408 24.352438-1.396961-.0017.0024 2.888604c.462239-.01677.92263.01347 1.389192.03067l.0057-2.917579zm14.422321 5.976092-2.042841 2.061114c.337632.315197.667514.639494.980373.976922l2.042846-2.061115zm-30.246252.000504-.976925.980375 2.06112 2.042841c.315198-.337635.639492-.667514.976923-.980375zm37.204894 15.403386-2.888601.0024c.01677.462245-.01347.922632-.03067 1.389196l2.917573.0057.0017-1.396959zm-41.240327.0049-2.917578-.0057-.0017 1.39696 2.888601-.0024c-.01677-.462247.01347-.922635.03067-1.389196zm33.201452 13.771702c-.315199.337632-.639494.667514-.976924.980375l2.061117 2.042843.976922-.980376zm-28.099591-.01437-2.042844 2.061121.980376.976921 2.042843-2.061119c-.337631-.315239-.667514-.63953-.980375-.97696zm14.754476 6.127195c-.462246.01677-.922635-.01347-1.389198-.03067l-.0057 2.917575 1.396957.0017-.0024-2.888604z" opacity=".3"/></g></g><path d="m16.146071 18.000576c2.498363 0 .978665 11.229997.978665 11.229997s13.877949-1.469924 13.877949 3.130712c0-1.120679-.0027-3.451081-.0027-3.451081l-10.910194-10.910204z" fill-rule="evenodd" opacity=".2" stroke-width=".750917"/><path d="m2.7142856 43.709693c0 1.427115.901102 2.576021 2.0204085 2.576021h24.2448969c1.119307 0 2.020409-1.148906 2.020409-2.576021v-5.85255h-28.2857144z" fill="url(#d)"/><path d="m4.7346935 46.285714c-1.1193059 0-2.0204079-.904805-2.0204079-2.02871v-.785567c.013779-4.111219.3367334-4.198891.3367334-.338138v.676237c0 .940593.7469286 1.690591 1.6836745 1.690591h.6734709 22.8979486.673471c.936746 0 1.683674-.749998 1.683674-1.690591v-.676237c.03306-4.583428.336742-3.015029.336742.338119v.785566c-.000008 1.123925-.90111 2.02873-2.020416 2.02873z" fill="url(#b)" opacity=".2"/><path d="m17.074786 18c2.362014 0 .915801 10.402988.915801 10.402988s4.605338-.548185 8.335981-.0762c2.53971.321312 4.674044 1.11542 4.674044 2.877141 0-1.059522-.000612-2.293727-.000612-2.293727l-10.910209-10.910202z" fill-rule="evenodd" opacity=".2" stroke-width=".709936"/><path d="m18.189344 18.006833c2.225494 0 .801612 9.609776.801612 9.609776s12.012265-1.475777 12.012265 2.622383c0-.99828-.0032-1.328788-.0032-1.328788l-10.91023-10.910204z" fill="url(#a)" fill-rule="evenodd" stroke-width=".668903"/><g fill="#fff" transform="matrix(.51440054 0 0 .51440054 -8.289734 2.819155)"><path d="m35.000001 72.279948h2.506511v3.548177l3.613281-3.548177h2.910156l-4.68099 4.602865 5.162761 5.117187h-3.138021l-3.867187-3.828125v3.828125h-2.506511z"/><path d="m45.338542 72.279948h6.764323v1.894531h-4.257812v1.809896h4.003906v1.894531h-4.003906v2.226563h4.401041v1.894531h-6.907552z"/><path d="m53.09896 72.279948h2.740885l2.213542 3.463542 2.213541-3.463542h2.747396l-3.704427 5.625v4.095052h-2.50651v-4.095052z"/></g></g><path d="m1.1 15h19.8v1h-19.8z" opacity=".3"/></svg>