<svg height="22" width="22" xmlns="http://www.w3.org/2000/svg" xmlns:xlink="http://www.w3.org/1999/xlink"><linearGradient id="a"><stop offset="0" stop-color="#818181"/><stop offset=".2" stop-color="#f9f9f9"/><stop offset="1" stop-color="#dcdcdc" stop-opacity="0"/></linearGradient><linearGradient id="b"><stop offset="0" stop-color="#ededed"/><stop offset="1" stop-color="#b0b0b0"/></linearGradient><linearGradient id="c"><stop offset="0" stop-color="#b4b4b4"/><stop offset=".20467032" stop-color="#646464"/><stop offset=".49567693" stop-color="#fff"/><stop offset="1" stop-color="#3c3c3c"/></linearGradient><linearGradient id="d" gradientUnits="userSpaceOnUse" x1="19.035713" x2="87.5" y1="72.744602" y2="26.173174"><stop offset="0" stop-color="#fff"/><stop offset="1" stop-color="#fff" stop-opacity="0"/></linearGradient><linearGradient id="e" gradientUnits="userSpaceOnUse" x1="6" x2="24" xlink:href="#a" y1="71.744602" y2="71.744602"/><linearGradient id="f" gradientTransform="matrix(-1 0 0 1 96 -1.255398)" gradientUnits="userSpaceOnUse" x1="6" x2="24" xlink:href="#a" y1="73" y2="73"/><linearGradient id="g" gradientUnits="userSpaceOnUse" x1="38.748035" x2="38.748035" y1="71.15395" y2="4.577759"><stop offset="0" stop-color="#dcdcdc"/><stop offset="1" stop-color="#fafafa"/></linearGradient><radialGradient id="h" cx="90" cy="90" gradientTransform="matrix(0 -1.085034 2 0 -90 186.39766)" gradientUnits="userSpaceOnUse" r="42"><stop offset="0" stop-color="#b4b4b4"/><stop offset="1" stop-color="#dcdcdc"/></radialGradient><clipPath id="i"><path d="m66 6v55c0 1.662 1.338 3 3 3h6c1.662 0 3-1.338 3-3v-55h-4v2h-4v-2z"/></clipPath><filter id="j" color-interpolation-filters="sRGB" height="1.07322" width="1.332308" x="-.166154" y="-.03661"><feGaussianBlur stdDeviation=".9"/></filter><linearGradient id="k" gradientTransform="matrix(.49408989 0 0 .70361229 .420095 36.415006)" gradientUnits="userSpaceOnUse" x1="68.75" x2="75.25" xlink:href="#c" y1="59" y2="59"/><linearGradient id="l" gradientUnits="userSpaceOnUse" x1="31.73695290454" x2="39.49456737" y1="80.58697692489" y2="81.00543795"><stop offset="0" stop-color="#a2a2a2"/><stop offset="1" stop-color="#fff"/></linearGradient><linearGradient id="m" gradientTransform="matrix(-.43495657 0 0 .5232543 67.317063 47.346436)" gradientUnits="userSpaceOnUse" x1="68.96875" x2="75.0625" xlink:href="#b" y1="17.5" y2="17.5"/><linearGradient id="n" gradientTransform="matrix(.43495657 0 0 .5232543 4.669721 47.346436)" gradientUnits="userSpaceOnUse" x1="68.02903" x2="75.97097" xlink:href="#b" y1="17.763245" y2="17.763245"/><linearGradient id="o" gradientTransform="matrix(.56313458 0 0 .50000003 -3.70642 22.997622)" gradientUnits="userSpaceOnUse" x1="68.75" x2="72.250572" xlink:href="#c" y1="59" y2="59"/><linearGradient id="p" gradientTransform="matrix(1.0058652 0 0 .994169 100 0)" gradientUnits="userSpaceOnUse" x1="45.447727" x2="45.447727" y1="92.539597" y2="7.01654"><stop offset="0"/><stop offset="1" stop-opacity=".588235"/></linearGradient><linearGradient id="q" gradientTransform="matrix(1.0238095 0 0 1.0119048 -1.142857 -98.071429)" gradientUnits="userSpaceOnUse" x1="32.251034" x2="32.251034" xlink:href="#p" y1="6.131708" y2="90.238609"/><linearGradient id="r" gradientTransform="translate(0 -97)" gradientUnits="userSpaceOnUse" x1="32.251034" x2="32.251034" xlink:href="#p" y1="6.131708" y2="90.238609"/><linearGradient id="s" gradientTransform="matrix(.53315586 0 0 .68002831 -2.392653 37.944471)" gradientUnits="userSpaceOnUse" x1="69" x2="73" y1="54" y2="54"><stop offset="0" stop-color="#fff"/><stop offset=".48973215" stop-color="#8c8c8c"/><stop offset=".50044644" stop-color="#cfcfcf"/><stop offset=".62276787" stop-color="#fff"/><stop offset=".81696427" stop-color="#c8c8c8"/><stop offset="1" stop-color="#505050"/></linearGradient><linearGradient id="t" gradientTransform="matrix(-.53315586 0 0 .68002831 74.38179 35.904384)" gradientUnits="userSpaceOnUse" x1="69" x2="73" y1="54" y2="54"><stop offset="0" stop-color="#2f2f2f"/><stop offset=".43731192" stop-color="#fff"/><stop offset=".62138397" stop-color="#979797"/><stop offset=".7723214" stop-color="#505050"/><stop offset="1" stop-color="#e6e6e6"/></linearGradient><g transform="matrix(.23896809 0 0 .23896809 -.470468 -.709436)"><g fill="url(#q)"><path d="m12-95.03125c-5.5110903 0-10.03125 4.52016-10.03125 10.03125v71c0 5.5110902 4.5201598 10.03125 10.03125 10.03125h72c5.51109 0 10.03125-4.5201597 10.03125-10.03125v-71c0-5.51109-4.52016-10.03125-10.03125-10.03125z" opacity=".08" transform="scale(1 -1)"/><path d="m12-94.03125c-4.971633 0-9.03125 4.059617-9.03125 9.03125v71c0 4.9716329 4.0596171 9.03125 9.03125 9.03125h72c4.971633 0 9.03125-4.059617 9.03125-9.03125v-71c0-4.971633-4.059617-9.03125-9.03125-9.03125z" opacity=".1" transform="scale(1 -1)"/><path d="m12-93c-4.4091333 0-8 3.590867-8 8v71c0 4.4091333 3.5908667 8 8 8h72c4.409133 0 8-3.5908667 8-8v-71c0-4.409133-3.590867-8-8-8z" opacity=".2" transform="scale(1 -1)"/><rect height="85" opacity=".3" rx="7" transform="scale(1 -1)" width="86" x="5" y="-92"/></g><rect fill="url(#r)" height="84" opacity=".45" rx="6" transform="scale(1 -1)" width="84" x="6" y="-91"/></g><g transform="matrix(.23896809 0 0 .23896809 -.470468 -1.007128)"><path d="m12 4.7446022c-3.324 0-6 2.676-6 5.9999998v72c0 3.324 2.676 6 6 6h72c3.324 0 6-2.676 6-6v-72c0-3.3239998-2.676-5.9999998-6-5.9999998h-9v3h-6v-3z" fill="url(#h)"/><path d="m6 54.744602v28c0 3.324 2.676 6 6 6h12v-34z" fill="url(#e)"/><path d="m90 54.744602v28c0 3.324-2.676 6-6 6h-12v-34z" fill="url(#f)"/><path d="m5.9999997 57.645594v4.185372c0 3.324 2.676 6 6.0000003 6h72.000004c3.324 0 6-2.676 6-6v-4.185372c0 3.324-2.676 6-6 6h-72.000004c-3.3240003 0-6.0000003-2.676-6.0000003-6z" opacity=".3"/><path d="m12 4.7446022c-3.324 0-6 2.676-6 5.9999998v42.787784c0 3.324 2.676 6 6 6h72c3.324 0 6-2.676 6-6v-42.787784c0-3.3239998-2.676-5.9999998-6-5.9999998h-9v3h-6v-3z" fill="url(#g)"/><path d="m12 4.7446022c-3.324 0-6 2.676-6 5.9999998l.0000005 42.440057c0 3.324 2.676 6.276988 5.9999995 6.276988h72c3.324 0 6-2.952988 6-6.276988v-42.440057c0-3.3239998-2.676-5.9999998-6-5.9999998h-9v2h9c2.245802 0 4 1.7541975 4 3.9999998v40.347727c0 2.245802-1.754198 4.184659-4 4.184659h-72c-2.245802 0-3.9999995-1.938857-3.9999995-4.184659l-.0000005-40.347727c0-2.2458023 1.7541975-3.9999998 4-3.9999998h57v-2z" fill="url(#d)" opacity=".5"/><path d="m5.9985768 61.830253v4.185372c0 3.324 2.676 6 6.0000002 6h72c3.324 0 6.000002-2.676 6.000002-6v-4.185372c0 3.324-2.676002 5.999999-6.000002 5.999999h-72c-3.3240002 0-6.0000002-2.675999-6.0000002-5.999999z" fill="#fff" opacity=".3"/><path d="m6.000711 70.199571v4.185372c0 3.324 2.676 6 6 6h72c3.324 0 6.000002-2.676 6.000002-6v-4.185372c0 3.324-2.676002 5.999999-6.000002 5.999999h-72c-3.324 0-6-2.675999-6-5.999999z" opacity=".3"/><path d="m5.999288 74.38423v4.185371c0 3.324001 2.676 6.000001 6 6.000001h72c3.324 0 6.000002-2.676 6.000002-6.000001v-4.185371c0 3.324-2.676002 5.999999-6.000002 5.999999h-72c-3.324 0-6-2.675999-6-5.999999z" fill="#fff" opacity=".3"/></g><g transform="matrix(.57142857393 0 0 .3696525885 -4.56832357462 -18.94156046271)"><path d="m32.994566 51.505433v27.500002c0 .830999.669 1.499999 1.499999 1.499999h3c.831001 0 1.500001-.669 1.500001-1.499999v-27.500002h-2v1.000001h-2v-1.000001z" fill="#252525"/><path d="m34.994564 52.505436h2v24.5h-2z" fill="#4d4d4d"/><rect fill="url(#k)" height="2.814449" rx=".49409" ry=".703612" stroke="#000" stroke-linecap="square" stroke-opacity=".563636" stroke-width=".294808" width="2.964539" x="34.512299" y="76.520912"/><path d="m66 6v55c0 1.662 1.338 3 3 3h6c1.662 0 3-1.338 3-3v-55h-4v2h-4v-2z" style="fill:none;stroke:#000;stroke-width:2;stroke-linecap:square;clip-path:url(#i);filter:url(#j)" transform="matrix(.50000001 0 0 .50000001 -.005435 48.505434)"/><path id="u" d="m34.661677 73.305932c-.143832 0-.266578.14822-.266578.340013v2.040087c0 .191792.122748.340012.266578.340012h.533157c.143831 0 .266578-.14822.266578-.340012v-.340017h.799732c.147686 0 .266579-.151645.266579-.340013v-.680029c0-.188366-.118893-.340013-.266579-.340013h-.799732v-.340015c0-.191793-.122749-.340013-.266578-.340013z" fill="url(#s)" stroke="#000" stroke-linecap="square" stroke-opacity=".563636" stroke-width=".301065"/><use id="v" height="96" transform="translate(0 -4.08017)" width="96" xlink:href="#u"/><use height="96" transform="translate(0 -4.08017)" width="96" xlink:href="#v"/><path id="w" d="m37.327458 71.265846c.14383 0 .266576.148223.266576.340016v2.040083c0 .191792-.122747.340015-.266576.340015h-.533157c-.143831 0-.266578-.148223-.266578-.340015v-.340013h-.799735c-.147683 0-.266576-.151646-.266576-.340014v-.680029c0-.188368.118893-.340014.266576-.340014h.799735v-.340013c0-.191793.122748-.340016.266578-.340016z" fill="url(#t)" stroke="#000" stroke-linecap="square" stroke-opacity=".563636" stroke-width=".301065"/><use height="96" transform="translate(0 -4.08017)" width="96" xlink:href="#w"/><path d="m32.494566 51.505433v27.500002c0 1.101147.898853 2 1.999999 2h3c1.101148 0 2.000001-.898853 2.000001-2v-27.500002h-.5v27.500002c0 .830999-.669 1.499999-1.500001 1.499999h-3c-.830999 0-1.499999-.669-1.499999-1.499999v-27.500002z" fill="url(#l)"/><path d="m34.781437 53.113439c-.298876 0-.534671.252401-.534671.565924l-.0022 5.659252c.000009.313524.235804.565926.53468.565926h2.428458c.298875 0 .53467-.252402.53467-.565926l.0022-5.659252c0-.313523-.235796-.565924-.53467-.565924z" fill="url(#n)"/><path d="m37.101169 53.609136c.120483 0 .217478.116686.217478.261627v5.265247c0 .144942-.09699.261627-.217478.261627h-2.21556c-.120483 0-.217478-.116685-.217478-.261627v-5.265247c0-.144941.09699-.261627.217478-.261627z" fill="url(#m)"/><rect fill="url(#o)" height="2.5" rx=".281567" ry=".25" stroke="#000" stroke-linecap="square" stroke-opacity=".563636" stroke-width=".5" width="1.689404" x="35.149864" y="51.49762"/><g transform="translate(.068359 -8.103393)"><use height="96" width="96" xlink:href="#v"/><use height="96" width="96" xlink:href="#w"/></g></g><path d="m10.095109 6.2785635c.01.267549-.07807.397559-.1576937.627456l-.143187.07121c-.117053.227461.01162.144405-.0722.325244-.182944.162457-.554367.508189-.673303.53986-.08693-.0019.0588-.102546.07785-.141858-.244625.167882-.196342.252045-.570534.354258l-.01085-.02447c-.922467.434103-2.203956-.426018-2.187124-1.599424-.0097.07442-.02801.05581-.0484.08571-.04762-.603646.278845-1.20995.829446-1.457898.538531-.266441 1.169862-.157251 1.555349.202544-.211735-.277515-.633545-.571753-1.133096-.54451-.489583.008-.947717.319043-1.100538.656912-.250717.157805-.279952.608629-.389142.691242-.147174 1.080827.276519 1.547597.993342 2.096981.112512.07597.03167.0876.04673.145402-.238092-.111404-.45603-.27973-.635429-.485818.09524.139201.197893.274525.330671.380836-.224693-.07586-.524689-.544068-.612063-.563115.387038.693014 1.570079 1.215377 2.189893.956133-.286818.01063-.651042.0059-.973076-.113177-.135657-.06966-.319376-.213729-.286486-.240639.845615.315721 1.718914.238979 2.450465-.347392.186265-.14507.389585-.39169.4483877-.395012-.08848.13311.01517.06401-.05282.181504.185158-.29911-.08073-.121815.191581-.516494l.100552.138426c-.03765-.248501.308412-.549937.273197-.942623.0794-.120042.08848.129345.0043.405532.116831-.306419.0309-.355699.0608-.60863.03222.08505.07508.175302.0969.265113-.07619-.296231.07785-.498664.116163-.670866-.03787-.01661-.117496.130896-.135879-.218823.0028-.151936.04241-.07962.05758-.117052-.02968-.01716-.107972-.133665-.155479-.357028.03422-.0526.09214.1361.13909.143742-.03023-.177517-.08217-.312953-.08439-.449275-.137318-.286818-.04861.03832-.159798-.123143-.146177-.455586.12115-.105757.139312-.31262.221259.320593.347392.817818.405532 1.023684-.0443-.251048-.115725-.494345-.203099-.729668.06744.02846-.108415-.516383.0876-.155591-.209189-.769092-.894561-1.4877973-1.525229-1.8248915.07696.070542.174306.159134.139533.1730874-.3138377-.1865995-.2586887-.2013282-.3036497-.2801751-.255257-.1039854-.272311.0085252-.44119.0002168-.481721-.2555889-.574522-.2284571-1.017815-.3883668l.02015.094351c-.319043-.1063108-.371755.040088-.71649.0002168-.02093-.01628.110519-.059357.218823-.074971-.308523.040753-.294127-.060907-.596005.011184.07431-.052159.153154-.086821.232444-.1311165-.251492.015284-.600656.1463991-.492905.027021-.410294.1831646-1.139077.4401933-1.548042.8236871l-.01285-.085934c-.187365.2249129-.817146.6717504-.867311.9633298l-.05016.01163c-.09734.165114-.160574.352155-.237871.52192-.127462.217384-.186929.08372-.168768.117828-.2508269.50852-.3756315.935756-.4831608 1.286361.076633.114616.00189.690135.030788 1.150703-.1258014 2.275053 1.5966553 4.4837695 3.4794653 4.9936205.275965.09889.686258.09535 1.035312.105091-.411733-.117828-.464888-.06235-.866212-.202214-.289364-.136431-.352708-.292022-.5578-.469981l.08117.143408c-.401988-.142301-.233773-.176076-.5609-.279617l.08671-.113066c-.130342-.01-.345178-.219488-.403871-.335876l-.142634.0056c-.171204-.211071-.262565-.36356-.25581-.48172l-.04607.08217c-.05216-.08959-.630224-.7926805-.330339-.6290065-.0557-.05072-.129788-.08272-.210074-.228789l.06102-.06966c-.144073-.185712-.265555-.423693-.256253-.502983.07696.103874.130341.123365.183276.141194-.364447-.904085-.384934-.04973-.660789-.920253l.05825-.0046c-.04463-.06767-.07198-.140645-.107861-.212515l.02547-.253042c-.262234-.302986-.07331-1.289573-.03532-1.83054.02602-.21993.218935-.454146.365443-.821473l-.08926-.01529c.170762-.29767.974738-1.195886 1.347268-1.149818.180397-.226574-.03588-.0009-.07121-.05781.396341-.410072.520924-.2896972.788362-.3635608.288257-.1710942-.247505.066887-.110851-.065226.498664-.1272403.353262-.2894753 1.003641-.3540371.06866.038981-.159134.060242-.216277.1108513.415277-.2033193 1.314379-.1569192 1.898645.1127337.6774.3168279 1.4389622 1.2529169 1.4690832 2.1336349l.03422.0092c-.01728.350162.0536.75514-.06943 1.127006l.08317-.176188" fill="#d70751" stroke="#d70751" stroke-width=".1"/></svg>