<svg height="22" width="22" xmlns="http://www.w3.org/2000/svg" xmlns:xlink="http://www.w3.org/1999/xlink"><linearGradient id="a"><stop offset="0" stop-color="#fff"/><stop offset="1" stop-color="#fff" stop-opacity="0"/></linearGradient><linearGradient id="b" gradientUnits="userSpaceOnUse" x1="36.357143" x2="36.357143" xlink:href="#a" y1="6" y2="63.893143"/><radialGradient id="c" cx="48" cy="90.171875" gradientTransform="matrix(1.1573129 0 0 .99590774 -7.551021 .197132)" gradientUnits="userSpaceOnUse" r="42" xlink:href="#a"/><linearGradient id="d" gradientUnits="userSpaceOnUse" x1="48" x2="48" y1="90" y2="5.987717"><stop offset="0" stop-color="#697890"/><stop offset="1" stop-color="#a4b4c2"/></linearGradient><linearGradient id="e" gradientTransform="matrix(1.0058652 0 0 .994169 100 0)" gradientUnits="userSpaceOnUse" x1="45.447727" x2="45.447727" y1="92.539597" y2="7.01654"><stop offset="0"/><stop offset="1" stop-opacity=".588235"/></linearGradient><linearGradient id="f" gradientTransform="matrix(1.0238095 0 0 1.0119048 -1.142857 -98.071429)" gradientUnits="userSpaceOnUse" x1="32.251034" x2="32.251034" xlink:href="#e" y1="6.131708" y2="90.238609"/><linearGradient id="g" gradientTransform="translate(0 -97)" gradientUnits="userSpaceOnUse" x1="32.251034" x2="32.251034" xlink:href="#e" y1="6.131708" y2="90.238609"/><linearGradient id="h" gradientUnits="userSpaceOnUse" x1="26.37037436" x2="26.37037436" y1="77.95426548" y2="57.74836268"><stop offset="0" stop-color="#008c00"/><stop offset="1" stop-color="#45d24f"/></linearGradient><g transform="matrix(.23896809 0 0 .23896939 -.470468 -.70956)"><g fill="url(#f)"><path d="m12-95.03125c-5.5110903 0-10.03125 4.52016-10.03125 10.03125v71c0 5.5110902 4.5201598 10.03125 10.03125 10.03125h72c5.51109 0 10.03125-4.5201597 10.03125-10.03125v-71c0-5.51109-4.52016-10.03125-10.03125-10.03125z" opacity=".08" transform="scale(1 -1)"/><path d="m12-94.03125c-4.971633 0-9.03125 4.059617-9.03125 9.03125v71c0 4.9716329 4.0596171 9.03125 9.03125 9.03125h72c4.971633 0 9.03125-4.059617 9.03125-9.03125v-71c0-4.971633-4.059617-9.03125-9.03125-9.03125z" opacity=".1" transform="scale(1 -1)"/><path d="m12-93c-4.4091333 0-8 3.590867-8 8v71c0 4.4091333 3.5908667 8 8 8h72c4.409133 0 8-3.5908667 8-8v-71c0-4.409133-3.590867-8-8-8z" opacity=".2" transform="scale(1 -1)"/><rect height="85" opacity=".3" rx="7" transform="scale(1 -1)" width="86" x="5" y="-92"/></g><rect fill="url(#g)" height="84" opacity=".45" rx="6" transform="scale(1 -1)" width="84" x="6" y="-91"/></g><g transform="matrix(.23896809 0 0 .23896939 -.470468 -1.007245)"><rect fill="url(#d)" height="84" rx="6" width="84" x="6" y="6"/><path d="m12 90c-3.324 0-6-2.676-6-6v-2-68-2c0-.334721.04135-.6507.09375-.96875.0487-.295596.09704-.596915.1875-.875.00988-.03038.020892-.0636.03125-.09375.098865-.287771.2348802-.547452.375-.8125.1445918-.273507.3156161-.535615.5-.78125s.3737765-.473472.59375-.6875c.439947-.428056.94291-.814526 1.5-1.09375.278545-.139612.5734731-.246947.875-.34375-.2562018.100222-.4867109.236272-.71875.375-.00741.0044-.023866-.0045-.03125 0-.031933.0193-.062293.04251-.09375.0625-.120395.0767-.2310226.163513-.34375.25-.1061728.0808-.2132809.161112-.3125.25-.1779299.161433-.3474596.345388-.5.53125-.1075789.130255-.2183939.265285-.3125.40625-.025089.03838-.038446.08587-.0625.125-.064763.103032-.1302275.204517-.1875.3125-.1010083.194706-.2056748.415701-.28125.625-.00796.02181-.023589.04055-.03125.0625-.0318251.09195-.0358045.186831-.0625.28125-.0303323.106618-.0703894.203031-.09375.3125-.0728786.341512-.125.698205-.125 1.0625v2 66.001132 2c0 2.781848 2.2181517 5 5 5h2 68 2c2.781848 0 5-2.218152 5-5v-2-66.001132-2c0-.364295-.05212-.720988-.125-1.0625-.04415-.206893-.08838-.397658-.15625-.59375-.0077-.02195-.0233-.04069-.03125-.0625-.06274-.173739-.138383-.367449-.21875-.53125-.04158-.0828-.07904-.169954-.125-.25-.0546-.09721-.126774-.18835-.1875-.28125-.09411-.140965-.204921-.275995-.3125-.40625-.143174-.17445-.303141-.346998-.46875-.5-.01117-.0102-.01998-.02115-.03125-.03125-.138386-.125556-.285091-.234436-.4375-.34375-.102571-.07315-.204318-.153364-.3125-.21875-.0074-.0045-.02384.0044-.03125 0-.232039-.138728-.462548-.274778-.71875-.375.301527.0968.596455.204138.875.34375.55709.279224 1.060053.665694 1.5 1.09375.219973.214028.409366.441865.59375.6875s.355408.507743.5.78125c.14012.265048.276135.524729.375.8125.01041.03078.02133.06274.03125.09375.09046.278085.1388.579404.1875.875.0524.31805.09375.634029.09375.96875v2 68 2c0 3.324-2.676 6-6 6z" fill="url(#c)" opacity=".2"/><path d="m12 6c-3.324 0-6 2.676-6 6v2 68 2c0 .334721.04135.6507.09375.96875.0487.295596.09704.596915.1875.875.00988.03038.020892.0636.03125.09375.098865.287771.2348802.547452.375.8125.1445918.273507.3156161.535615.5.78125s.3737765.473472.59375.6875c.439947.428056.94291.814526 1.5 1.09375.278545.139612.5734731.246947.875.34375-.2562018-.100222-.4867109-.236272-.71875-.375-.00741-.0044-.023866.0045-.03125 0-.031933-.0193-.062293-.04251-.09375-.0625-.120395-.0767-.2310226-.163513-.34375-.25-.1061728-.0808-.2132809-.161112-.3125-.25-.1779299-.161433-.3474596-.345388-.5-.53125-.1075789-.130255-.2183939-.265285-.3125-.40625-.025089-.03838-.038446-.08587-.0625-.125-.064763-.103032-.1302275-.204517-.1875-.3125-.1010083-.194706-.2056748-.415701-.28125-.625-.00796-.02181-.023589-.04055-.03125-.0625-.0318251-.09195-.0358045-.186831-.0625-.28125-.0303323-.106618-.0703894-.203031-.09375-.3125-.0728786-.341512-.125-.698205-.125-1.0625v-2-65.999337-2c0-2.781848 2.2181517-5 5-5h2 68 2c2.781848 0 5 2.218152 5 5v2 65.999337 2c0 .364295-.05212.720988-.125 1.0625-.04415.206893-.08838.397658-.15625.59375-.0077.02195-.0233.04069-.03125.0625-.06274.173739-.138383.367449-.21875.53125-.04158.0828-.07904.169954-.125.25-.0546.09721-.126774.18835-.1875.28125-.09411.140965-.204921.275995-.3125.40625-.143174.17445-.303141.346998-.46875.5-.01117.0102-.01998.02115-.03125.03125-.138386.125556-.285091.234436-.4375.34375-.102571.07315-.204318.153364-.3125.21875-.0074.0045-.02384-.0044-.03125 0-.232039.138728-.462548.274778-.71875.375.301527-.0968.596455-.204138.875-.34375.55709-.279224 1.060053-.665694 1.5-1.09375.219973-.214028.409366-.441865.59375-.6875s.355408-.507743.5-.78125c.14012-.265048.276135-.524729.375-.8125.01041-.03078.02133-.06274.03125-.09375.09046-.278085.1388-.579404.1875-.875.0524-.31805.09375-.634029.09375-.96875v-2-68-2c0-3.324-2.676-6-6-6z" fill="url(#b)" opacity=".3"/></g><g transform="matrix(.54342489 0 0 .54342489 -4.840123 -25.960327)"><path d="m26.622948 54.212329c-1.813404 0-3.283459 1.01773-3.283459 2.273164.05275.468373.348849 1.059817.505147 1.262869.757722 1.010295.757722 1.64173.568291 2.020591h-6.124914c-1.119407 0-2.02059.901183-2.02059 2.02059v5.114619c.378861.18943 1.010295.18943 2.02059-.568291.203052-.156298.794497-.452395 1.262869-.505148 1.255434 0 2.273164 1.470055 2.273164 3.283459 0 1.813405-1.01773 3.28346-2.273164 3.28346-.385307-.0065-.971081-.351131-1.262869-.505148-1.010295-.757722-1.641729-.757722-2.02059-.568291v6.630062c0 1.119407.901183 2.02059 2.02059 2.02059h8.145505c.18943-.378861.18943-1.010295-.568291-2.02059-.156299-.203053-.452395-.794496-.505148-1.262869 0-1.255434 1.470055-2.273164 3.283459-2.273164 1.813405 0 3.28346 1.01773 3.28346 2.273164-.0065.385307-.351131.971081-.505148 1.262869-.757721 1.010295-.757721 1.641729-.568291 2.02059h3.599176c1.119407 0 2.020591-.901183 2.020591-2.02059v-5.619767c.37886-.18943 1.010295-.18943 2.02059.568291.291788.154017.877561.498622 1.262869.505148 1.255433 0 2.273164-1.470055 2.273164-3.28346 0-1.813404-1.017731-3.283459-2.273164-3.283459-.468373.05275-1.059817.34885-1.262869.505148-1.010295.757721-1.64173.757721-2.02059.568291v-6.124914c0-1.119407-.901184-2.02059-2.020591-2.02059h-5.619766c-.189431-.378861-.189431-1.010296.568291-2.020591.154017-.291788.498621-.877561.505147-1.262869 0-1.255434-1.470054-2.273164-3.283459-2.273164z" fill="url(#h)"/><path d="m26.622948 54.212329c-1.813404 0-3.283459 1.01773-3.283459 2.273164.05275.468373.348849 1.059817.505147 1.262869.757722 1.010295.757722 1.64173.568291 2.020591h-6.124914c-1.119407 0-2.02059.901183-2.02059 2.02059v5.114619c.378861.18943 1.010295.18943 2.02059-.568291.203052-.156298.794497-.452395 1.262869-.505148 1.255434 0 2.273164 1.470055 2.273164 3.283459 0 1.813405-1.01773 3.28346-2.273164 3.28346-.385307-.0065-.971081-.351131-1.262869-.505148-1.010295-.757722-1.641729-.757722-2.02059-.568291v6.630062c0 1.119407.901183 2.02059 2.02059 2.02059h8.145505c.18943-.378861.18943-1.010295-.568291-2.02059-.156299-.203053-.452395-.794496-.505148-1.262869 0-1.255434 1.470055-2.273164 3.283459-2.273164 1.813405 0 3.28346 1.01773 3.28346 2.273164-.0065.385307-.351131.971081-.505148 1.262869-.757721 1.010295-.757721 1.641729-.568291 2.02059h3.599176c1.119407 0 2.020591-.901183 2.020591-2.02059v-5.619767c.37886-.18943 1.010295-.18943 2.02059.568291.291788.154017.877561.498622 1.262869.505148 1.255433 0 2.273164-1.470055 2.273164-3.28346 0-1.813404-1.017731-3.283459-2.273164-3.283459-.468373.05275-1.059817.34885-1.262869.505148-1.010295.757721-1.64173.757721-2.02059.568291v-6.124914c0-1.119407-.901184-2.02059-2.020591-2.02059h-5.619766c-.189431-.378861-.189431-1.010296.568291-2.020591.154017-.291788.498621-.877561.505147-1.262869 0-1.255434-1.470054-2.273164-3.283459-2.273164zm0 .978724c.722314 0 1.366738.227339 1.768017.505147.393754.272599.531677.53385.536719.773507.0042-.0074-.000304.000234 0 .01579-.01458.03292-.05601.134033-.110501.252574-.08288.180294-.192581.379034-.284146.552505h.01579c-.791321 1.119253-.970552 2.179006-.599863 2.920385a.98573798.98573798 0 0 0 .884009.536719h5.619766c.590412 0 1.041867.451455 1.041867 1.041867v6.124914a.98573798.98573798 0 0 0 .536719.884008c.770676.385338 1.878674.212992 3.046672-.663006a.98573798.98573798 0 0 0 .01579-.01579c-.05004.03852.528305-.234925.72615-.284145.22802.02106.470913.152258.726149.520933.277809.401279.505148 1.045703.505148 1.768016 0 .722314-.227339 1.366738-.505148 1.768017-.272599.393755-.53385.531677-.773507.536719.0046.000079-.01908.000065-.01579 0-.03292-.01458-.134032-.05601-.252574-.110501-.180293-.08288-.379034-.19258-.552505-.284145v.01579c-1.119256-.791325-2.179009-.970556-2.920388-.599867a.98573798.98573798 0 0 0 -.536719.884008v5.619767c0 .590412-.451456 1.041867-1.041867 1.041867h-2.509952c.07369-.140261.08934-.219093.268359-.45779a.98573798.98573798 0 0 0 .07893-.126287c.06245-.118317.201939-.365353.331503-.64722.129563-.281867.27605-.579743.284145-1.057653a.98573798.98573798 0 0 0 0-.01579c0-1.01243-.58627-1.870322-1.373369-2.415237-.7871-.544915-1.797722-.83665-2.888813-.83665s-2.101713.291735-2.888813.83665-1.37337 1.402807-1.37337 2.415237a.98573798.98573798 0 0 0 0 .110501c.08725.774689.347562 1.281459.694578 1.736445.0043.0056.01146.01016.01579.01579.166832.224715.181879.307442.252574.442004h-7.056281c-.590411 0-1.041867-.451456-1.041867-1.041867v-5.540837c.140262.07369.219093.08934.45779.268359a.98573798.98573798 0 0 0 .126287.07893c.118318.06245.365354.20194.647221.331503.281866.129564.579742.276051 1.057653.284146a.98573798.98573798 0 0 0 .01579 0c1.01243 0 1.870321-.58627 2.415237-1.37337.544915-.7871.836651-1.797722.836651-2.888813 0-1.09109-.291736-2.101712-.836651-2.888812-.544925-.787101-1.402816-1.373371-2.415246-1.373371a.98573798.98573798 0 0 0 -.110501 0c-.774689.08725-1.281458.347561-1.736445.694578-.0056.0043-.01016.01146-.01579.01579-.224716.166832-.307442.18188-.442004.252575v-4.025395c0-.590412.451455-1.041867 1.041867-1.041867h6.124914a.98573798.98573798 0 0 0 .884008-.536719c.385338-.770676.212992-1.878674-.663006-3.046671a.98573798.98573798 0 0 0 -.01579-.01579c.03852.05005-.234925-.528305-.284145-.72615.02106-.228021.152259-.470913.520933-.72615.401279-.277808 1.045703-.505147 1.768017-.505147z" opacity=".08"/><path d="m26.622948 54.212329c-1.813404 0-3.283459 1.01773-3.283459 2.273164.0063.05559.0191.115445.03157.173645.230306-1.099483 1.59992-1.941661 3.251888-1.941661 1.651967 0 3.021582.842178 3.251887 1.941661.01223-.05905.03068-.12085.03157-.173645 0-1.255434-1.470054-2.273164-3.283459-2.273164zm-2.131091 5.335621c-.01847.08019-.04653.156217-.07893.221003h-6.124914c-1.119407 0-2.02059.901183-2.02059 2.02059v.505147c0-1.119407.901183-2.02059 2.02059-2.02059h6.124914c.08986-.179716.134981-.419287.07893-.72615zm4.262183 0c-.05605.306863-.01093.546434.07893.72615h5.619766c1.119407 0 2.020591.901183 2.020591 2.02059v-.505147c0-1.119407-.901184-2.02059-2.020591-2.02059h-5.619766c-.03239-.06479-.06046-.140815-.07893-.221003zm11.002745 7.293068c-.468373.05275-1.059817.34885-1.262869.505148-1.010295.757721-1.64173.757721-2.02059.568291v.505148c.37886.18943 1.010295.18943 2.02059-.568291.203052-.156299.794496-.452396 1.262869-.505148 1.195688 0 2.166805 1.337333 2.257378 3.030885.0045-.08462.01579-.166276.01579-.252574 0-1.813404-1.017731-3.283459-2.273164-3.283459zm-17.948525 2.525738c-.09057 1.693552-1.061689 3.030886-2.257378 3.030886-.385307-.0065-.971081-.351131-1.262869-.505148-1.010295-.757722-1.641729-.757722-2.02059-.568291v.505148c.378861-.189431 1.010295-.189431 2.02059.568291.291788.154016.877562.49862 1.262869.505147 1.255434 0 2.273164-1.470055 2.273164-3.283459 0-.0863-.01126-.167953-.01579-.252574zm3.583391 7.498284c-.0225.107446-.03157.219739-.03157.331503.05275.468373.348849 1.059817.505148 1.26287.398289.531052.58511.954403.64722 1.29444.08955-.388746-.01907-.962054-.64722-1.799588-.137748-.178954-.380934-.657043-.473576-1.089225zm6.503775 0c-.07702.37191-.340662.837417-.473576 1.089225-.628151.837534-.736775 1.410842-.64722 1.799588.06211-.340037.24893-.763388.64722-1.29444.154017-.291788.498621-.877562.505148-1.26287 0-.111764-.0091-.224057-.03157-.331503z" opacity=".3"/><path d="m26.622948 54.212329c-1.813404 0-3.283459 1.01773-3.283459 2.273164.05275.468373.348849 1.059817.505147 1.262869.757722 1.010295.757722 1.64173.568291 2.020591h-6.124914c-1.119407 0-2.02059.901183-2.02059 2.02059v5.114619c.378861.18943 1.010295.18943 2.02059-.568291.203052-.156298.794497-.452395 1.262869-.505148 1.255434 0 2.273164 1.470055 2.273164 3.283459 0 1.813405-1.01773 3.28346-2.273164 3.28346-.385307-.0065-.971081-.351131-1.262869-.505148-1.010295-.757722-1.641729-.757722-2.02059-.568291v6.630062c0 1.119407.901183 2.02059 2.02059 2.02059h8.145505c.18943-.378861.18943-1.010295-.568291-2.02059-.156299-.203053-.452395-.794496-.505148-1.262869 0-1.255434 1.470055-2.273164 3.283459-2.273164 1.813405 0 3.28346 1.01773 3.28346 2.273164-.0065.385307-.351131.971081-.505148 1.262869-.757721 1.010295-.757721 1.641729-.568291 2.02059h3.599176c1.119407 0 2.020591-.901183 2.020591-2.02059v-5.619767c.37886-.18943 1.010295-.18943 2.02059.568291.291788.154017.877561.498622 1.262869.505148 1.255433 0 2.273164-1.470055 2.273164-3.28346 0-1.813404-1.017731-3.283459-2.273164-3.283459-.468373.05275-1.059817.34885-1.262869.505148-1.010295.757721-1.64173.757721-2.02059.568291v-6.124914c0-1.119407-.901184-2.02059-2.020591-2.02059h-5.619766c-.189431-.378861-.189431-1.010296.568291-2.020591.154017-.291788.498621-.877561.505147-1.262869 0-1.255434-1.470054-2.273164-3.283459-2.273164zm0 .505148c.812939 0 1.540283.224842 2.036376.568291.490404.33951.736275.757096.741936 1.183939.000066.005 0 .01083 0 .01579-.004.05578-.05061.258812-.142073.45779-.09435.205256-.21552.408374-.299932.568291h.01579c-.769569 1.057939-.866898 1.912738-.584076 2.47838a.50125549.50125549 0 0 0 .442004.284146h5.619766c.850409 0 1.515443.665034 1.515443 1.515443v6.124914a.50125549.50125549 0 0 0 .284146.442004c.578101.28905 1.451035.202218 2.541523-.615648.0704-.05419.677379-.32858.994509-.378861.420014.01282.833764.243141 1.168154.726149.343449.496093.568291 1.223438.568291 2.036376 0 .812939-.224842 1.540284-.568291 2.036376-.33951.490404-.757095.736275-1.183939.741936-.0015-.000025-.01403.000128-.01579 0-.05578-.004-.258812-.05061-.45779-.142073-.205256-.09435-.408374-.21552-.568291-.299931v.01579c-1.057939-.76957-1.912738-.866899-2.47838-.584077a.50125549.50125549 0 0 0 -.284146.442004v5.619767c0 .850409-.665034 1.515443-1.515443 1.515443h-3.172958c-.01246-.233669.04826-.564235.53672-1.215512a.50125549.50125549 0 0 0 .04736-.06314c.06961-.13187.197628-.374529.315718-.631434s.246853-.514727.252574-.852437a.50125549.50125549 0 0 0 0-.01579c0-.823347-.491655-1.541316-1.18394-2.020591-.692286-.479275-1.604202-.757722-2.604667-.757722s-1.912382.278447-2.604667.757722c-.692286.479275-1.18394 1.197244-1.18394 2.020591a.50125549.50125549 0 0 0 0 .06314c.07085.629019.359031 1.166276.615649 1.499657.488458.651277.549174.981843.536719 1.215511h-7.719287c-.850409 0-1.515443-.665034-1.515443-1.515443v-6.203843c.233669-.01246.564235.04826 1.215512.53672a.50125549.50125549 0 0 0 .06314.04736c.13187.06961.374529.197628.631434.315718s.514727.246853.852437.252573a.50125549.50125549 0 0 0 .01579 0c.823346 0 1.541316-.491653 2.020591-1.183939s.757721-1.604202.757721-2.604667-.278446-1.912382-.757721-2.604667c-.479275-.692287-1.197245-1.18394-2.020591-1.18394a.50125549.50125549 0 0 0 -.06314 0c-.62902.07085-1.166276.35903-1.499657.615648-.651277.488458-.981843.549174-1.215512.536719v-4.6884c0-.850409.665034-1.515443 1.515443-1.515443h6.124914a.50125549.50125549 0 0 0 .442005-.284146c.28905-.578101.202217-1.451035-.615649-2.541523-.05419-.0704-.328579-.677379-.378861-.99451.01282-.420013.243142-.833763.72615-1.168153.496093-.343449 1.223437-.568291 2.036376-.568291z" opacity=".15"/></g></svg>