<svg height="32" width="32" xmlns="http://www.w3.org/2000/svg" xmlns:xlink="http://www.w3.org/1999/xlink"><linearGradient id="a" gradientTransform="matrix(1.1538423 0 0 1.1746103 -5.728901 4.720793)" gradientUnits="userSpaceOnUse" x1="32.891998" x2="36.358002" y1="8.059" y2="5.4565"><stop offset="0" stop-color="#f04040"/><stop offset="1" stop-color="#962828"/></linearGradient><radialGradient id="b" cx="48" cy="90.171875" gradientTransform="matrix(.49599117 0 0 .42857136 .192419 4.354916)" gradientUnits="userSpaceOnUse" r="42" xlink:href="#c"/><linearGradient id="c"><stop offset="0" stop-color="#fff"/><stop offset="1" stop-color="#fff" stop-opacity="0"/></linearGradient><linearGradient id="d" gradientTransform="matrix(0 -.54642861 .42857142 0 3.428572 46.278573)" gradientUnits="userSpaceOnUse" x1="7.3709" x2="23.76619" y1="51.470146" y2="51.433136"><stop offset="0" stop-color="#780a0a"/><stop offset="1" stop-color="#8f1414"/></linearGradient><linearGradient id="e" gradientUnits="userSpaceOnUse" x1="248.07678816" x2="248.07678816" y1="-62.6598922" y2="-98.66515562275"><stop offset="0" stop-color="#a02828"/><stop offset="1" stop-color="#d83f3f"/></linearGradient><linearGradient id="f" gradientTransform="matrix(.4285717 0 0 .43033246 3.42857 4.41801)" gradientUnits="userSpaceOnUse" x1="36.357143" x2="36.357143" xlink:href="#c" y1="6" y2="63.893143"/><linearGradient id="g" gradientTransform="matrix(1.0058652 0 0 .994169 100 0)" gradientUnits="userSpaceOnUse" x1="45.447727" x2="45.447727" y1="92.539597" y2="7.01654"><stop offset="0"/><stop offset="1" stop-opacity=".588235"/></linearGradient><linearGradient id="h" gradientTransform="matrix(.90932204 0 0 -.90907903 8.945106 90.567956)" gradientUnits="userSpaceOnUse" x1="32.251034" x2="32.251034" xlink:href="#g" y1="6.131708" y2="90.238609"/><linearGradient id="i" gradientTransform="matrix(.88394566 0 0 -.88394572 10.163169 89.361561)" gradientUnits="userSpaceOnUse" x1="32.251034" x2="32.251034" xlink:href="#g" y1="6.131708" y2="90.238609"/><linearGradient id="j" gradientUnits="userSpaceOnUse" x1="22.00081561751" x2="22.00081561751" y1="33.27671258233" y2="7.13183317312"><stop offset="0" stop-color="#ff6e6e"/><stop offset="1" stop-color="#ff8c8c"/></linearGradient><g transform="matrix(.7 0 0 .7 -.8 -1.5)"><g transform="matrix(.51177463 0 0 .51177463 -2.915536 .981307)"><path d="m20.618253 86.01187c-3.916074 0-7.105399-3.225978-7.105399-7.187076v-63.785252c0-3.961099 3.189325-7.1870759 7.105399-7.1870759h41.230022l29.823983 29.8239829v41.148345c0 3.961098-3.189315 7.187076-7.1054 7.187076z" fill="url(#h)" opacity=".2"/><path d="m21.510559 84.057885h62.16399c3.34823 0 6.04372-2.727212 6.04372-6.114824v-39.038079l-29.09854-29.0985314h-39.10917c-3.34822 0-6.04372 2.7272114-6.04372 6.1148244v62.021786c0 3.387612 2.6955 6.114824 6.04372 6.114824z" fill="url(#i)" opacity=".3"/></g><path d="m232.64822-98.6599h19.54285l13.88572 13.885715v19.542857c0 1.424571-1.14685 2.571428-2.57143 2.571428h-30.85714c-1.42458 0-2.57143-1.146857-2.57143-2.571428v-30.857144c0-1.424571 1.14685-2.571428 2.57143-2.571428z" fill="url(#e)" transform="translate(-224.07679 105.6599)"/><path d="m32.563177 14.156454c-7.434965 9.589063-18.890571 10.898327-26.5571407 9.514334v1.551142c7.1981067 1.299376 16.1069597 1.080618 22.5459137-1.610421-1.387053 2.008242-1.967715 4.256646-2.10442 6.303369-.08794 1.316464.000911 2.557178.148198 3.62592h1.274505c-.151329-1.03125-.244146-2.248444-.158079-3.537.199338-2.984374 2.144362-9.073361 8.285137-12.189398z" fill-rule="evenodd" opacity=".1"/><path d="m22.673102 7.0061564c-1.247179 2.7456887-2.192248 5.5701676-2.819298 8.4164536-.325472.259009-.656199.501009-.995052.746288-3.865954 2.798335-8.503376 4.626755-12.8527158 4.519179v2.073018c3.8486555.363336 6.4089738 1.014661 8.1518978 3.332624 1.72383 2.29256 2.689008 4.559495 2.689008 7.447079h1.326736c0-2.878962-1.249177-6.298857-2.937768-8.234827-1.668745-1.913216-3.776274-2.799332-6.6178688-3.457004 3.8000278-.508762 7.5730468-2.19835 10.8211568-4.519177-.936753 5.439783-.784061 10.963926.373138 16.211008h9.162748c-4.57841-4.151168-6.480055-11.623859-6.47182-18.647278 2.58171-2.403327 6.214533-7.2898392 4.723614-7.9189309l-.573578.0315673c-.873494 2.0218324-2.337575 4.0965866-4.187491 6.0117536.112635-2.116073.450215-4.1415995.912124-6.0117536z" fill="url(#j)" fill-rule="evenodd"/><path d="m23.095 7.0007336c3.179734 0 1.245573 14.2927244 1.245573 14.2927244s17.662844-1.870813 17.662844 3.984542c0-1.426319-.003417-4.392285-.003417-4.392285l-13.88572-13.885715z" fill-rule="evenodd" opacity=".2" stroke-width=".955713"/><path d="m8.57143 7c-1.42457 0-2.57143 1.151568-2.57143 2.581998v.860662 28.234034c1.98322 4.185183.51348 2.977317.42857.430332v-28.09486-.860668c0-1.197119.95064-2.151664 2.14286-2.151664h.85715 17.82858.85715l13.45714 13.326778v.860667 16.919747c-1.2063 3.165148.42855 3.584963.42855-.430333v-16.919747-.860668l-13.88571-13.896278z" fill="url(#f)" opacity=".3"/><path d="m6 39.721429c0 1.816327 1.146857 3.278571 2.571429 3.278571h30.857142c1.424572 0 2.571429-1.462244 2.571429-3.278571v-6.15h-36z" fill="url(#d)"/><path d="m8.5714282 43c-1.4245712 0-2.5714282-1.151569-2.5714282-2.581994v-.999812c.017537-5.232461.4285697-5.344044.4285697-.430358v.860665c0 1.197119.9506364 2.151662 2.1428585 2.151662h.8571448 29.142844.857145c1.192222 0 2.142858-.954543 2.142858-2.151662v-.860665c.04207-5.833454.42858-3.83731.42858.430333v.999812c-.00001 1.43045-1.146867 2.582019-2.571438 2.582019z" fill="url(#b)" opacity=".2"/><g fill-rule="evenodd"><path d="m22.669272 7.0059774c-1.247182 2.7456897-2.18635 5.5741746-2.813401 8.4204616-.325478.259009-.658174.495092-.997026.740369-3.865951 2.798335-8.503469 4.62876-12.8528088 4.521185l.0002915.521504c4.3493403.107575 8.9868563-1.722851 12.8528063-4.521186.338855-.245279.864393-.54564 1.189869-.80465.627049-2.846286 1.373087-5.816104 2.620269-8.5617929h.631784c.02493-.1051741.05323-.2116706.07897-.3158907zm3.988118 0c-.868886 2.0111621-2.3297 4.0754506-4.165801 5.9821806-.0074.115262-.02313.435302-.02935.551118 1.849915-1.915168 3.321915-3.989964 4.195416-6.0117955l1.273143-.2056124c.043233-.1062142-.325602-.2096461-.285158-.3158916zm-4.215161 9.2398026c.169188 6.543852 2.071913 13.294975 6.199353 17.295018h.335634c-4.292259-3.891721-6.307414-10.675191-6.534987-17.295018zm-3.000965 1.401766c-.01916.01373-.04004.02582-.05923.0395-.331119 2.026968-.509062 4.061257-.542935 6.090768.04935-2.044587.250888-4.090335.602163-6.130254zm-10.0393979 4.402726c-.2599602.04577-.519493.0836-.779855.118458 2.8415919.657673 4.9455049 1.747452 6.6142499 3.660669 1.6272 1.865584 2.845066 4.901782 2.93157 7.711399h.0098c0-2.878962-1.25315-6.296932-2.941732-8.232902-1.510179-1.731417-3.386365-2.61663-5.8341056-3.257624z" fill="#500" opacity=".6"/><path d="m24.277 7c3.0062 0 1.165566 13.240168 1.165566 13.240168s5.861339-.69769 10.60943-.09698c3.232358.408943 5.948783 1.419626 5.948783 3.661816 0-1.348482-.000779-2.919289-.000779-2.919289l-13.88572-13.885715z" opacity=".2" stroke-width=".903555"/><path d="m23.301056 7.3218681c-.422785 1.7820968-.73272 3.6977559-.839085 5.6959029.0097-.01012.01989-.0195.02964-.02961.129463-1.990704.451813-3.8984905.888439-5.6662889zm4.629742 0c-1.080351 2.6530275-3.025978 5.2901689-5.508319 7.6009809-.000119.104804-.000432.211053 0 .31603 2.581719-2.403326 4.495109-4.535077 5.5457-7.2951879zm-8.489534 10.0096479c-3.248113 2.320827-7.019232 4.012427-10.8192529 4.521187.2700157.06249.5228423.130266.779855.197569 3.5116119-.618278 6.9680809-2.222064 9.9801709-4.36324.0194-.118939.03875-.236655.05923-.355516zm-13.4352278 5.429511v.315889c3.8486555.363339 6.4110048 1.018636 8.1539358 3.336597 1.659962 2.20763 2.606876 4.390369 2.675195 7.127285h.0098c0-2.887584-.961241-5.150615-2.685067-7.443176-1.742928-2.317963-4.3052768-2.973259-8.1539334-3.336595zm12.8330658 2.7443c.04534 2.715482.35043 5.409458.908183 8.035471h.0691c-.578605-2.623541-.911558-5.318577-.977282-8.035471z" fill="#fff" fill-opacity=".313725" opacity=".8"/><path d="m25.695529 7.0086975c2.832447 0 1.020233 12.2306245 1.020233 12.2306245s15.288338-1.878262 15.288338 3.337578c0-1.270538-.0041-1.691185-.0041-1.691185l-13.88572-13.885715z" fill="url(#a)" stroke-width=".851331"/></g><path d="m8.57143 7v9.965278l4.496528-9.965278zm5.503472 0 4.496529 9.965278v-9.965278zm-.503472 3.90625-1.684027 3.888888h1.626988l.954861 2.204862h1.79315l-1.319444-2.934027-.03472-.06944z" fill-opacity=".313725" opacity=".5"/></g><path d="m3.4000001 22h25.1999999v1h-25.1999999z" opacity=".3"/><g fill="#fff"><path d="m3.4000001 21h25.1999999v1h-25.1999999z" opacity=".1"/><g transform="matrix(.41152043 0 0 .41152043 14.806864 -5.458711)"><path d="m-11.680741 70.370044h4.1601561q1.8554687 0 2.845052.826823.9960938.820312.9960938 2.34375 0 1.529947-.9960938 2.35677-.9895833.820313-2.845052.820313h-1.6536458v3.372396h-2.5065103zm2.5065103 1.816406v2.714844h1.3867188q.7291666 0 1.126302-.351563.3971354-.358073.3971354-1.009114 0-.651042-.3971354-1.002605-.3971354-.351562-1.126302-.351562z"/><path d="m.59139434 72.264575v5.930989h.89843746q1.5364583 0 2.34375-.761718.813802-.761719.813802-2.213542 0-1.445312-.8072916-2.200521-.8072917-.755208-2.3502604-.755208zm-2.50651034-1.894531h2.64322908q2.21354162 0 3.29427072.31901 1.0872396.3125 1.8619792 1.067708.6835937.657552 1.0156249 1.516927.3320313.859375.3320313 1.946615 0 1.10026-.3320313 1.966146-.3320312.859375-1.0156249 1.516927-.78125.755208-1.875 1.074219-1.09375.3125-3.28124992.3125h-2.64322908z"/><path d="m9.152591 70.370044h6.764323v1.894531h-4.257813v1.809896h4.003907v1.894531h-4.003907v4.121094h-2.50651z"/></g></g></svg>