<svg height="96" width="96" xmlns="http://www.w3.org/2000/svg" xmlns:xlink="http://www.w3.org/1999/xlink"><linearGradient id="a"><stop offset="0" stop-color="#fff"/><stop offset="1" stop-color="#fff" stop-opacity="0"/></linearGradient><linearGradient id="b" gradientUnits="userSpaceOnUse" x1="36.357143" x2="36.357143" xlink:href="#a" y1="6" y2="63.893143"/><filter id="c" color-interpolation-filters="sRGB" height="1.384" width="1.384" x="-.192" y="-.192"><feGaussianBlur stdDeviation="5.28"/></filter><linearGradient id="d" gradientUnits="userSpaceOnUse" x1="48" x2="48" xlink:href="#a" y1="20.220806" y2="138.66119"/><radialGradient id="e" cx="48" cy="90.171875" gradientTransform="matrix(1.1573129 0 0 .99590774 -7.551021 .197132)" gradientUnits="userSpaceOnUse" r="42" xlink:href="#a"/><clipPath id="f"><rect height="84" rx="6" width="84" x="6" y="6"/></clipPath><linearGradient id="g" gradientUnits="userSpaceOnUse" x1="47.7241392" x2="47.7241392" y1="90.448278" y2="4.98750562388"><stop offset="0" stop-color="#d85400"/><stop offset="1" stop-color="#ffa119"/></linearGradient><clipPath id="h"><path d="m112 6c-3.324 0-6 2.676-6 6v23.71875c4.16476 5.590927 10.83896 9.218751 18.34375 9.21875 12.61273 0 22.84375-10.231021 22.84375-22.84375 0-6.274884-2.52698-11.964405-6.625-16.09375h-7.34375c5.78119 3.1123067 9.71875 9.225149 9.71875 16.25 0 10.181526-8.25597 18.4375-18.4375 18.4375s-18.4375-8.255974-18.4375-18.4375c0-7.024851 3.93756-13.1376933 9.71875-16.25zm34.375 0 .46875.59375.5625-.40625.5-.1875zm5.96875 0 .40625.75-1.65625 2.15625-1.4375 1.1875-.625.28125 1.0625 2.5625.65625-.25 1.84375-.15625 2.71875.34375.4375 1.71875-2.15625 1.6875-1.6875.75-.6875.125.375 2.75.6875-.0625 1.8125.3125 2.53125 1.0625v1.78125l-2.53125 1.03125-1.8125.3125-.6875-.0625-.375 2.75.6875.125 1.6875.75 2.15625 1.6875-.4375 1.71875-2.71875.375-1.84375-.1875-.65625-.21875-1.0625 2.5625.625.25 1.4375 1.1875 1.65625 2.1875-.875 1.53125-2.71875-.34375-1.75-.65625-.5625-.375-1.6875 2.1875.53125.4375 1.0625 1.5 1.0625 2.53125-1.25 1.28125-2.5625-1.0625-1.5-1.0625-.4375-.53125-2.1875 1.6875.375.5625.65625 1.75.34375 2.71875-1.53125.875-2.1875-1.65625-1.15625-1.4375-.3125-.625-2.53125 1.0625.21875.65625.1875 1.84375-.375 2.71875-1.71875.46875-1.65625-2.1875-.78125-1.6875-.125-.6875-2.71875.375.0625.65625-.3125 1.84375-1.0625 2.53125h-1.78125l-1.0625-2.53125-.28125-1.84375.0625-.65625-2.75-.375-.125.6875-.75 1.6875-1.6875 2.1875-1.71875-.46875-.375-2.71875.15625-1.84375.25-.65625-2.53125-1.0625-.3125.625-1.1875 1.4375-2.15625 1.65625-1.5625-.875.375-2.71875.625-1.75.40625-.5625-2.1875-1.6875-.4375.53125-.21875.15625v40.40625c0 3.324 2.676 6 6 6h25.875l-.25-.40625 1.84375-2.4375 1.59375-1.28125.65625-.34375-1.15625-2.8125-.71875.25-2.03125.21875-3-.40625-.53125-1.90625 2.40625-1.875 1.875-.8125.75-.15625-.40625-3.03125-.75.0625-2.03125-.34375-2.8125-1.15625v-1.96875l2.8125-1.1875 2.03125-.3125.75.0625.40625-3.03125-.75-.15625-1.875-.84375-2.40625-1.84375.53125-1.90625 3-.40625 2.03125.1875.71875.25 1.15625-2.8125-.65625-.3125-1.59375-1.3125-1.84375-2.40625 1-1.71875 3 .40625 1.90625.71875.625.4375 1.875-2.4375-.59375-.5-1.1875-1.65625-1.15625-2.8125 1.40625-1.375 2.8125 1.125 1.65625 1.21875.5.5625 2.40625-1.84375-.4375-.65625-.6875-1.875-.40625-3.03125 1.6875-1 2.4375 1.84375 1.3125 1.59375.3125.6875 2.8125-1.1875-.25-.6875-.1875-2.0625.40625-3 1.875-.5 1.875 2.40625.84375 1.875.125.71875 3.03125-.375-.0625-.78125.34375-2 1.1875-2.8125h1.96875l1.15625 2.8125.34375 2-.0625.78125 3.03125.375.125-.71875.84375-1.875 1.875-2.40625 1.875.5.4375 3-.21875 2.0625-.25.6875 2.8125 1.1875.34375-.6875 1.28125-1.59375 2.40625-1.84375 1.71875 1-.375 3.03125-.75 1.875-.40625.65625 2.40625 1.84375.5-.5625.84375-.625v-36.34375c0-3.324-2.676-6-6-6zm-27.84375 2.625c-7.53154 0-13.65625 6.09346-13.65625 13.625s6.12471 13.65625 13.65625 13.65625 13.625-6.12471 13.625-13.65625-6.09346-13.625-13.625-13.625zm44.5625 38.53125c-5.74578 0-11.05193 1.907852-15.3125 5.125l8.15625 8.78125c2.0761-1.293182 4.53192-2.03125 7.15625-2.03125 1.32352 0 2.60305.17696 3.8125.53125l5.5-10.625c-2.88236-1.135296-6.0278-1.78125-9.3125-1.78125zm13.90625 4.15625-5.5 10.65625c3.0873 2.451345 5.10585 6.203919 5.15625 10.4375l7.375 1.34375v-15.5625c-1.87421-2.717952-4.26324-5.061314-7.03125-6.875zm-62.65625 2.15625h1.21875l.9375 2.09375.0625.71875-.1875 1.28125 2.21875.59375.46875-1.1875.4375-.59375 1.875-1.3125 1.0625.625-.25 2.25-.28125.6875-.8125.96875 1.625 1.65625 1-.78125.6875-.3125 2.25-.21875.625 1.0625-1.34375 1.84375-.59375.4375-1.1875.46875.59375 2.21875 1.25-.1875.75.09375 2.0625.9375v1.25l-2.09375.9375-.71875.0625-1.25-.1875-.625 2.21875 1.1875.46875.59375.4375 1.34375 1.84375-.625 1.0625-2.28125-.21875-.65625-.3125-1-.78125-1.625 1.625.78125 1 .28125.65625.21875 2.28125-1.0625.59375-1.84375-1.3125-.4375-.625-.46875-1.15625-2.21875.5625.1875 1.28125-.0625.71875-.96875 2.09375h-1.21875l-.9375-2.09375-.0625-.75.1875-1.25-2.21875-.59375-.5 1.1875-.40625.59375-1.875 1.3125-1.0625-.625.21875-2.25.3125-.6875.8125-1-1.625-1.625-1 .78125-.6875.3125-2.28125.21875-.59375-1.0625 1.34375-1.875.59375-.40625 1.1875-.46875-.59375-2.21875-1.25.15625-.75-.0625-2.0625-.9375v-1.25l2.0625-.9375.75-.0625 1.25.1875.59375-2.21875-1.15625-.46875-.59375-.4375-1.34375-1.84375.625-1.0625 2.28125.21875.65625.3125 1 .78125 1.625-1.625-.78125-1-.3125-.65625-.21875-2.28125 1.09375-.625 1.84375 1.34375.4375.59375.4375 1.1875 2.25-.59375-.1875-1.25.0625-.71875zm29.625 2.34375c-3.93256 4.474843-6.3125 10.329221-6.3125 16.75 0 2.868692.49734 5.613964 1.375 8.1875l10.90625-4.96875c-.24834-1.025388-.40625-2.117379-.40625-3.21875 0-2.983379.9581-5.72947 2.59375-7.96875zm-29.09375 8.375c-1.81315 0-3.28125 1.468102-3.28125 3.28125s1.4681 3.28125 3.28125 3.28125 3.28125-1.468102 3.28125-3.28125-1.4681-3.28125-3.28125-3.28125zm48.21875 3.28125c-2.78946 0-5.03125 2.241791-5.03125 5.03125s2.24179 5.0625 5.03125 5.0625 5.0625-2.273041 5.0625-5.0625-2.27304-5.03125-5.0625-5.03125zm12.625 10.03125c-1.44987 3.708793-4.49322 6.621554-8.28125 7.90625l.625 4.59375h9.96875c3.324 0 6-2.676 6-6v-4.96875zm-23.625 2.96875-10.90625 5c.96641 1.636602 2.11102 3.15601 3.40625 4.53125h18.25l-.53125-3.90625c-4.20392-.242792-7.90236-2.407521-10.21875-5.625zm-13.90625 9.28125-.34375.25h.53125z"/></clipPath><linearGradient id="i" gradientUnits="userSpaceOnUse" x1="57.40601905209" x2="57.40601905209" y1="90.448278" y2="4.59000735718"><stop offset="0" stop-color="#b14500"/><stop offset="1" stop-color="#ef8d00"/></linearGradient><clipPath id="j"><path d="m115.78125 6c-5.78119 3.1123067-9.71875 9.225149-9.71875 16.25 0 10.181526 8.25597 18.4375 18.4375 18.4375s18.4375-8.255974 18.4375-18.4375c0-7.024851-3.93756-13.1376933-9.71875-16.25zm24.78125 0c4.09802 4.129345 6.625 9.818866 6.625 16.09375 0 12.612729-10.23102 22.84375-22.84375 22.84375-7.50479.000001-14.17899-3.627823-18.34375-9.21875v7.875l.21875-.15625.4375-.53125 2.1875 1.6875-.40625.5625-.625 1.75-.375 2.71875 1.5625.875 2.15625-1.65625 1.1875-1.4375.3125-.625 2.53125 1.0625-.25.65625-.15625 1.84375.375 2.71875 1.71875.46875 1.6875-2.1875.75-1.6875.125-.6875 2.75.375-.0625.65625.28125 1.84375 1.0625 2.53125h1.78125l1.0625-2.53125.3125-1.84375-.0625-.65625 2.71875-.375.125.6875.78125 1.6875 1.65625 2.1875 1.71875-.46875.375-2.71875-.1875-1.84375-.21875-.65625 2.53125-1.0625.3125.625 1.15625 1.4375 2.1875 1.65625 1.53125-.875-.34375-2.71875-.65625-1.75-.375-.5625 2.1875-1.6875.4375.53125 1.5 1.0625 2.5625 1.0625 1.25-1.28125-1.0625-2.53125-1.0625-1.5-.53125-.4375 1.6875-2.1875.5625.375 1.75.65625 2.71875.34375.875-1.53125-1.65625-2.1875-1.4375-1.1875-.625-.25 1.0625-2.5625.65625.21875 1.84375.1875 2.71875-.375.4375-1.71875-2.15625-1.6875-1.6875-.75-.6875-.125.375-2.75.6875.0625 1.8125-.3125 2.53125-1.03125v-1.78125l-2.53125-1.0625-1.8125-.3125-.6875.0625-.375-2.75.6875-.125 1.6875-.75 2.15625-1.6875-.4375-1.71875-2.71875-.34375-1.84375.15625-.65625.25-1.0625-2.5625.625-.28125 1.4375-1.1875 1.65625-2.15625-.40625-.75h-4.4375l-.5.1875-.5625.40625-.46875-.59375zm-16.0625 2.625c7.53154 0 13.625 6.09346 13.625 13.625s-6.09346 13.65625-13.625 13.65625-13.65625-6.12471-13.65625-13.65625 6.12471-13.625 13.65625-13.625zm43.59375 28.21875-1.1875 2.8125-.34375 2 .0625.78125-3.03125.375-.125-.71875-.84375-1.875-1.875-2.40625-1.875.5-.40625 3 .1875 2.0625.25.6875-2.8125 1.1875-.3125-.6875-1.3125-1.59375-2.4375-1.84375-1.6875 1 .40625 3.03125.6875 1.875.4375.65625-2.40625 1.84375-.5-.5625-1.65625-1.21875-2.8125-1.125-1.40625 1.375 1.15625 2.8125 1.1875 1.65625.59375.5-1.875 2.4375-.625-.4375-1.90625-.71875-3-.40625-1 1.71875 1.84375 2.40625 1.59375 1.3125.65625.3125-1.15625 2.8125-.71875-.25-2.03125-.1875-3 .40625-.53125 1.90625 2.40625 1.84375 1.875.84375.75.15625-.40625 3.03125-.75-.0625-2.03125.3125-2.8125 1.1875v1.96875l2.8125 1.15625 2.03125.34375.75-.0625.40625 3.03125-.75.15625-1.875.8125-2.40625 1.875.53125 1.90625 3 .40625 2.03125-.21875.71875-.25 1.15625 2.8125-.65625.34375-1.59375 1.28125-1.84375 2.4375.25.40625h5.9375l.34375-.25.1875.25h6.21875c-1.29523-1.37524-2.43984-2.894648-3.40625-4.53125l10.90625-5c2.31639 3.217479 6.01482 5.382208 10.21875 5.625l.53125 3.90625h5.21875l-.625-4.59375c3.78803-1.284696 6.83138-4.197457 8.28125-7.90625l8.3125 1.53125v-5.28125l-7.375-1.34375c-.0504-4.233581-2.06895-7.986155-5.15625-10.4375l5.5-10.65625c2.76801 1.813686 5.15704 4.157048 7.03125 6.875v-9.84375l-.84375.625-.5.5625-2.40625-1.84375.40625-.65625.75-1.875.375-3.03125-1.71875-1-2.40625 1.84375-1.28125 1.59375-.34375.6875-2.8125-1.1875.25-.6875.21875-2.0625-.4375-3-1.875-.5-1.875 2.40625-.84375 1.875-.125.71875-3.03125-.375.0625-.78125-.34375-2-1.15625-2.8125zm.96875 10.3125c3.2847 0 6.43014.645954 9.3125 1.78125l-5.5 10.625c-1.20945-.35429-2.48898-.53125-3.8125-.53125-2.62433 0-5.08015.738068-7.15625 2.03125l-8.15625-8.78125c4.26057-3.217148 9.56672-5.125 15.3125-5.125zm-48.75 6.3125-.96875 2.09375-.0625.71875.1875 1.25-2.25.59375-.4375-1.1875-.4375-.59375-1.84375-1.34375-1.09375.625.21875 2.28125.3125.65625.78125 1-1.625 1.625-1-.78125-.65625-.3125-2.28125-.21875-.625 1.0625 1.34375 1.84375.59375.4375 1.15625.46875-.59375 2.21875-1.25-.1875-.75.0625-2.0625.9375v1.25l2.0625.9375.75.0625 1.25-.15625.59375 2.21875-1.1875.46875-.59375.40625-1.34375 1.875.59375 1.0625 2.28125-.21875.6875-.3125 1-.78125 1.625 1.625-.8125 1-.3125.6875-.21875 2.25 1.0625.625 1.875-1.3125.40625-.59375.5-1.1875 2.21875.59375-.1875 1.25.0625.75.9375 2.09375h1.21875l.96875-2.09375.0625-.71875-.1875-1.28125 2.21875-.5625.46875 1.15625.4375.625 1.84375 1.3125 1.0625-.59375-.21875-2.28125-.28125-.65625-.78125-1 1.625-1.625 1 .78125.65625.3125 2.28125.21875.625-1.0625-1.34375-1.84375-.59375-.4375-1.1875-.46875.625-2.21875 1.25.1875.71875-.0625 2.09375-.9375v-1.25l-2.0625-.9375-.75-.09375-1.25.1875-.59375-2.21875 1.1875-.46875.59375-.4375 1.34375-1.84375-.625-1.0625-2.25.21875-.6875.3125-1 .78125-1.625-1.65625.8125-.96875.28125-.6875.25-2.25-1.0625-.625-1.875 1.3125-.4375.59375-.46875 1.1875-2.21875-.59375.1875-1.28125-.0625-.71875-.9375-2.09375zm29.625 2.34375 8.15625 8.78125c-1.63565 2.23928-2.59375 4.985371-2.59375 7.96875 0 1.101371.15791 2.193362.40625 3.21875l-10.90625 4.96875c-.87766-2.573536-1.375-5.318808-1.375-8.1875 0-6.420779 2.37994-12.275157 6.3125-16.75zm-29.09375 8.375c1.81315 0 3.28125 1.468102 3.28125 3.28125s-1.4681 3.28125-3.28125 3.28125-3.28125-1.468102-3.28125-3.28125 1.4681-3.28125 3.28125-3.28125zm48.21875 3.28125c2.78946 0 5.0625 2.241791 5.0625 5.03125s-2.27304 5.0625-5.0625 5.0625-5.03125-2.273041-5.03125-5.0625 2.24179-5.03125 5.03125-5.03125z"/></clipPath><filter id="k" color-interpolation-filters="sRGB"><feGaussianBlur stdDeviation=".42"/></filter><filter id="l" color-interpolation-filters="sRGB" height="1.24" width="1.24" x="-.12" y="-.12"><feGaussianBlur stdDeviation="4.2"/></filter><linearGradient id="m" gradientTransform="matrix(1.0058652 0 0 .994169 100 0)" gradientUnits="userSpaceOnUse" x1="45.447727" x2="45.447727" y1="92.539597" y2="7.01654"><stop offset="0"/><stop offset="1" stop-opacity=".588235"/></linearGradient><linearGradient id="n" gradientTransform="matrix(1.0238095 0 0 1.0119048 -1.142857 -98.071429)" gradientUnits="userSpaceOnUse" x1="32.251034" x2="32.251034" xlink:href="#m" y1="6.131708" y2="90.238609"/><linearGradient id="o" gradientTransform="translate(0 -97)" gradientUnits="userSpaceOnUse" x1="32.251034" x2="32.251034" xlink:href="#m" y1="6.131708" y2="90.238609"/><g><g fill="url(#n)"><path d="m12-95.03125c-5.5110903 0-10.03125 4.52016-10.03125 10.03125v71c0 5.5110902 4.5201598 10.03125 10.03125 10.03125h72c5.51109 0 10.03125-4.5201597 10.03125-10.03125v-71c0-5.51109-4.52016-10.03125-10.03125-10.03125z" opacity=".08" transform="scale(1 -1)"/><path d="m12-94.03125c-4.971633 0-9.03125 4.059617-9.03125 9.03125v71c0 4.9716329 4.0596171 9.03125 9.03125 9.03125h72c4.971633 0 9.03125-4.059617 9.03125-9.03125v-71c0-4.971633-4.059617-9.03125-9.03125-9.03125z" opacity=".1" transform="scale(1 -1)"/><path d="m12-93c-4.4091333 0-8 3.590867-8 8v71c0 4.4091333 3.5908667 8 8 8h72c4.409133 0 8-3.5908667 8-8v-71c0-4.409133-3.590867-8-8-8z" opacity=".2" transform="scale(1 -1)"/><rect height="85" opacity=".3" rx="7" transform="scale(1 -1)" width="86" x="5" y="-92"/></g><rect fill="url(#o)" height="84" opacity=".45" rx="6" transform="scale(1 -1)" width="84" x="6" y="-91"/></g><rect fill="url(#g)" height="84" rx="6" width="84" x="6" y="6"/><path clip-path="url(#h)" d="m115.78125 6c-5.78119 3.1123067-9.71875 9.225149-9.71875 16.25 0 10.181526 8.25597 18.4375 18.4375 18.4375s18.4375-8.255974 18.4375-18.4375c0-7.024851-3.93756-13.1376933-9.71875-16.25zm24.78125 0c4.09802 4.129345 6.625 9.818866 6.625 16.09375 0 12.612729-10.23102 22.84375-22.84375 22.84375-7.50479.000001-14.17899-3.627823-18.34375-9.21875v7.875l.21875-.15625.4375-.53125 2.1875 1.6875-.40625.5625-.625 1.75-.375 2.71875 1.5625.875 2.15625-1.65625 1.1875-1.4375.3125-.625 2.53125 1.0625-.25.65625-.15625 1.84375.375 2.71875 1.71875.46875 1.6875-2.1875.75-1.6875.125-.6875 2.75.375-.0625.65625.28125 1.84375 1.0625 2.53125h1.78125l1.0625-2.53125.3125-1.84375-.0625-.65625 2.71875-.375.125.6875.78125 1.6875 1.65625 2.1875 1.71875-.46875.375-2.71875-.1875-1.84375-.21875-.65625 2.53125-1.0625.3125.625 1.15625 1.4375 2.1875 1.65625 1.53125-.875-.34375-2.71875-.65625-1.75-.375-.5625 2.1875-1.6875.4375.53125 1.5 1.0625 2.5625 1.0625 1.25-1.28125-1.0625-2.53125-1.0625-1.5-.53125-.4375 1.6875-2.1875.5625.375 1.75.65625 2.71875.34375.875-1.53125-1.65625-2.1875-1.4375-1.1875-.625-.25 1.0625-2.5625.65625.21875 1.84375.1875 2.71875-.375.4375-1.71875-2.15625-1.6875-1.6875-.75-.6875-.125.375-2.75.6875.0625 1.8125-.3125 2.53125-1.03125v-1.78125l-2.53125-1.0625-1.8125-.3125-.6875.0625-.375-2.75.6875-.125 1.6875-.75 2.15625-1.6875-.4375-1.71875-2.71875-.34375-1.84375.15625-.65625.25-1.0625-2.5625.625-.28125 1.4375-1.1875 1.65625-2.15625-.40625-.75h-4.4375l-.5.1875-.5625.40625-.46875-.59375zm-16.0625 2.625c7.53154 0 13.625 6.09346 13.625 13.625s-6.09346 13.65625-13.625 13.65625-13.65625-6.12471-13.65625-13.65625 6.12471-13.625 13.65625-13.625zm43.59375 28.21875-1.1875 2.8125-.34375 2 .0625.78125-3.03125.375-.125-.71875-.84375-1.875-1.875-2.40625-1.875.5-.40625 3 .1875 2.0625.25.6875-2.8125 1.1875-.3125-.6875-1.3125-1.59375-2.4375-1.84375-1.6875 1 .40625 3.03125.6875 1.875.4375.65625-2.40625 1.84375-.5-.5625-1.65625-1.21875-2.8125-1.125-1.40625 1.375 1.15625 2.8125 1.1875 1.65625.59375.5-1.875 2.4375-.625-.4375-1.90625-.71875-3-.40625-1 1.71875 1.84375 2.40625 1.59375 1.3125.65625.3125-1.15625 2.8125-.71875-.25-2.03125-.1875-3 .40625-.53125 1.90625 2.40625 1.84375 1.875.84375.75.15625-.40625 3.03125-.75-.0625-2.03125.3125-2.8125 1.1875v1.96875l2.8125 1.15625 2.03125.34375.75-.0625.40625 3.03125-.75.15625-1.875.8125-2.40625 1.875.53125 1.90625 3 .40625 2.03125-.21875.71875-.25 1.15625 2.8125-.65625.34375-1.59375 1.28125-1.84375 2.4375.25.40625h5.9375l.34375-.25.1875.25h6.21875c-1.29523-1.37524-2.43984-2.894648-3.40625-4.53125l10.90625-5c2.31639 3.217479 6.01483 5.382208 10.21875 5.625l.53125 3.90625h5.21875l-.625-4.59375c3.78803-1.284696 6.83138-4.197457 8.28125-7.90625l8.3125 1.53125v-5.28125l-7.375-1.34375c-.0504-4.233581-2.06895-7.986155-5.15625-10.4375l5.5-10.65625c2.76801 1.813686 5.15704 4.157048 7.03125 6.875v-9.84375l-.84375.625-.5.5625-2.40625-1.84375.40625-.65625.75-1.875.375-3.03125-1.71875-1-2.40625 1.84375-1.28125 1.59375-.34375.6875-2.8125-1.1875.25-.6875.21875-2.0625-.4375-3-1.875-.5-1.875 2.40625-.84375 1.875-.125.71875-3.03125-.375.0625-.78125-.34375-2-1.15625-2.8125zm.96875 10.3125c3.2847 0 6.43014.645954 9.3125 1.78125l-5.5 10.625c-1.20945-.35429-2.48898-.53125-3.8125-.53125-2.62433 0-5.08015.738068-7.15625 2.03125l-8.15625-8.78125c4.26057-3.217148 9.56672-5.125 15.3125-5.125zm-48.75 6.3125-.96875 2.09375-.0625.71875.1875 1.25-2.25.59375-.4375-1.1875-.4375-.59375-1.84375-1.34375-1.09375.625.21875 2.28125.3125.65625.78125 1-1.625 1.625-1-.78125-.65625-.3125-2.28125-.21875-.625 1.0625 1.34375 1.84375.59375.4375 1.15625.46875-.59375 2.21875-1.25-.1875-.75.0625-2.0625.9375v1.25l2.0625.9375.75.0625 1.25-.15625.59375 2.21875-1.1875.46875-.59375.40625-1.34375 1.875.59375 1.0625 2.28125-.21875.6875-.3125 1-.78125 1.625 1.625-.8125 1-.3125.6875-.21875 2.25 1.0625.625 1.875-1.3125.40625-.59375.5-1.1875 2.21875.59375-.1875 1.25.0625.75.9375 2.09375h1.21875l.96875-2.09375.0625-.71875-.1875-1.28125 2.21875-.5625.46875 1.15625.4375.625 1.84375 1.3125 1.0625-.59375-.21875-2.28125-.28125-.65625-.78125-1 1.625-1.625 1 .78125.65625.3125 2.28125.21875.625-1.0625-1.34375-1.84375-.59375-.4375-1.1875-.46875.625-2.21875 1.25.1875.71875-.0625 2.09375-.9375v-1.25l-2.0625-.9375-.75-.09375-1.25.1875-.59375-2.21875 1.1875-.46875.59375-.4375 1.34375-1.84375-.625-1.0625-2.25.21875-.6875.3125-1 .78125-1.625-1.65625.8125-.96875.28125-.6875.25-2.25-1.0625-.625-1.875 1.3125-.4375.59375-.46875 1.1875-2.21875-.59375.1875-1.28125-.0625-.71875-.9375-2.09375zm29.625 2.34375 8.15625 8.78125c-1.63565 2.23928-2.59375 4.985371-2.59375 7.96875 0 1.101371.15791 2.193362.40625 3.21875l-10.90625 4.96875c-.87766-2.573536-1.375-5.318808-1.375-8.1875 0-6.420779 2.37994-12.275157 6.3125-16.75zm-29.09375 8.375c1.81315 0 3.28125 1.468102 3.28125 3.28125s-1.4681 3.28125-3.28125 3.28125-3.28125-1.468102-3.28125-3.28125 1.4681-3.28125 3.28125-3.28125zm48.21875 3.28125c2.78946 0 5.0625 2.241791 5.0625 5.03125s-2.27304 5.0625-5.0625 5.0625-5.03125-2.273041-5.03125-5.0625 2.24179-5.03125 5.03125-5.03125z" fill="#ffc855" filter="url(#l)" opacity=".5" transform="translate(-100)"/><path d="m15.78125 6c-5.781195 3.112307-9.71875 9.225149-9.71875 16.25 0 10.181526 8.255974 18.4375 18.4375 18.4375s18.4375-8.255974 18.4375-18.4375c0-7.024851-3.937555-13.137693-9.71875-16.25zm24.78125 0c4.098021 4.129345 6.625 9.818866 6.625 16.09375 0 12.612729-10.231018 22.84375-22.84375 22.84375-7.504787.000001-14.178986-3.627823-18.34375-9.21875v7.875l.21875-.15625.4375-.53125 2.1875 1.6875-.40625.5625-.625 1.75-.375 2.71875 1.5625.875 2.15625-1.65625 1.1875-1.4375.3125-.625 2.53125 1.0625-.25.65625-.15625 1.84375.375 2.71875 1.71875.46875 1.6875-2.1875.75-1.6875.125-.6875 2.75.375-.0625.65625.28125 1.84375 1.0625 2.53125h1.78125l1.0625-2.53125.3125-1.84375-.0625-.65625 2.71875-.375.125.6875.78125 1.6875 1.65625 2.1875 1.71875-.46875.375-2.71875-.1875-1.84375-.21875-.65625 2.53125-1.0625.3125.625 1.15625 1.4375 2.1875 1.65625 1.53125-.875-.34375-2.71875-.65625-1.75-.375-.5625 2.1875-1.6875.4375.53125 1.5 1.0625 2.5625 1.0625 1.25-1.28125-1.0625-2.53125-1.0625-1.5-.53125-.4375 1.6875-2.1875.5625.375 1.75.65625 2.71875.34375.875-1.53125-1.65625-2.1875-1.4375-1.1875-.625-.25 1.0625-2.5625.65625.21875 1.84375.1875 2.71875-.375.4375-1.71875-2.15625-1.6875-1.6875-.75-.6875-.125.375-2.75.6875.0625 1.8125-.3125 2.53125-1.03125v-1.78125l-2.53125-1.0625-1.8125-.3125-.6875.0625-.375-2.75.6875-.125 1.6875-.75 2.15625-1.6875-.4375-1.71875-2.71875-.34375-1.84375.15625-.65625.25-1.0625-2.5625.625-.28125 1.4375-1.1875 1.65625-2.15625-.40625-.75h-4.4375l-.5.1875-.5625.40625-.46875-.59375zm-16.0625 2.625c7.53154 0 13.625 6.09346 13.625 13.625s-6.09346 13.65625-13.625 13.65625-13.65625-6.12471-13.65625-13.65625 6.12471-13.625 13.65625-13.625zm43.59375 28.21875-1.1875 2.8125-.34375 2 .0625.78125-3.03125.375-.125-.71875-.84375-1.875-1.875-2.40625-1.875.5-.40625 3 .1875 2.0625.25.6875-2.8125 1.1875-.3125-.6875-1.3125-1.59375-2.4375-1.84375-1.6875 1 .40625 3.03125.6875 1.875.4375.65625-2.40625 1.84375-.5-.5625-1.65625-1.21875-2.8125-1.125-1.40625 1.375 1.15625 2.8125 1.1875 1.65625.59375.5-1.875 2.4375-.625-.4375-1.90625-.71875-3-.40625-1 1.71875 1.84375 2.40625 1.59375 1.3125.65625.3125-1.15625 2.8125-.71875-.25-2.03125-.1875-3 .40625-.53125 1.90625 2.40625 1.84375 1.875.84375.75.15625-.40625 3.03125-.75-.0625-2.03125.3125-2.8125 1.1875v1.96875l2.8125 1.15625 2.03125.34375.75-.0625.40625 3.03125-.75.15625-1.875.8125-2.40625 1.875.53125 1.90625 3 .40625 2.03125-.21875.71875-.25 1.15625 2.8125-.65625.34375-1.59375 1.28125-1.84375 2.4375.25.40625h5.9375l.34375-.25.1875.25h6.21875c-1.295234-1.37524-2.43984-2.894648-3.40625-4.53125l10.90625-5c2.316387 3.217479 6.014825 5.382208 10.21875 5.625l.53125 3.90625h5.21875l-.625-4.59375c3.78803-1.284696 6.831382-4.197457 8.28125-7.90625l8.3125 1.53125v-5.28125l-7.375-1.34375c-.05044-4.233581-2.068949-7.986155-5.15625-10.4375l5.5-10.65625c2.768009 1.813686 5.157045 4.157048 7.03125 6.875v-9.84375l-.84375.625-.5.5625-2.40625-1.84375.40625-.65625.75-1.875.375-3.03125-1.71875-1-2.40625 1.84375-1.28125 1.59375-.34375.6875-2.8125-1.1875.25-.6875.21875-2.0625-.4375-3-1.875-.5-1.875 2.40625-.84375 1.875-.125.71875-3.03125-.375.0625-.78125-.34375-2-1.15625-2.8125zm.96875 10.3125c3.284696 0 6.430143.645954 9.3125 1.78125l-5.5 10.625c-1.209447-.35429-2.488978-.53125-3.8125-.53125-2.624326 0-5.080149.738068-7.15625 2.03125l-8.15625-8.78125c4.260574-3.217148 9.566723-5.125 15.3125-5.125zm-48.75 6.3125-.96875 2.09375-.0625.71875.1875 1.25-2.25.59375-.4375-1.1875-.4375-.59375-1.84375-1.34375-1.09375.625.21875 2.28125.3125.65625.78125 1-1.625 1.625-1-.78125-.65625-.3125-2.28125-.21875-.625 1.0625 1.34375 1.84375.59375.4375 1.15625.46875-.59375 2.21875-1.25-.1875-.75.0625-2.0625.9375v1.25l2.0625.9375.75.0625 1.25-.15625.59375 2.21875-1.1875.46875-.59375.40625-1.34375 1.875.59375 1.0625 2.28125-.21875.6875-.3125 1-.78125 1.625 1.625-.8125 1-.3125.6875-.21875 2.25 1.0625.625 1.875-1.3125.40625-.59375.5-1.1875 2.21875.59375-.1875 1.25.0625.75.9375 2.09375h1.21875l.96875-2.09375.0625-.71875-.1875-1.28125 2.21875-.5625.46875 1.15625.4375.625 1.84375 1.3125 1.0625-.59375-.21875-2.28125-.28125-.65625-.78125-1 1.625-1.625 1 .78125.65625.3125 2.28125.21875.625-1.0625-1.34375-1.84375-.59375-.4375-1.1875-.46875.625-2.21875 1.25.1875.71875-.0625 2.09375-.9375v-1.25l-2.0625-.9375-.75-.09375-1.25.1875-.59375-2.21875 1.1875-.46875.59375-.4375 1.34375-1.84375-.625-1.0625-2.25.21875-.6875.3125-1 .78125-1.625-1.65625.8125-.96875.28125-.6875.25-2.25-1.0625-.625-1.875 1.3125-.4375.59375-.46875 1.1875-2.21875-.59375.1875-1.28125-.0625-.71875-.9375-2.09375zm29.625 2.34375 8.15625 8.78125c-1.635648 2.23928-2.59375 4.985371-2.59375 7.96875 0 1.101371.157912 2.193362.40625 3.21875l-10.90625 4.96875c-.877661-2.573536-1.375-5.318808-1.375-8.1875 0-6.420779 2.379937-12.275157 6.3125-16.75zm-29.09375 8.375c1.813148 0 3.28125 1.468102 3.28125 3.28125s-1.468102 3.28125-3.28125 3.28125-3.28125-1.468102-3.28125-3.28125 1.468102-3.28125 3.28125-3.28125zm48.21875 3.28125c2.789459 0 5.0625 2.241791 5.0625 5.03125s-2.273041 5.0625-5.0625 5.0625-5.03125-2.273041-5.03125-5.0625 2.241791-5.03125 5.03125-5.03125z" fill="url(#i)"/><path d="m115.78125 6.5c-5.78119 3.112307-9.71875 9.225149-9.71875 16.25 0 10.181526 8.25597 18.4375 18.4375 18.4375s18.4375-8.255974 18.4375-18.4375c0-7.024851-3.93756-13.137693-9.71875-16.25zm24.78125 0c4.09802 4.129345 6.625 9.818866 6.625 16.09375 0 12.612729-10.23102 22.84375-22.84375 22.84375-7.50479.000001-14.17899-3.627823-18.34375-9.21875v7.875l.21875-.15625.4375-.53125 2.1875 1.6875-.40625.5625-.625 1.75-.375 2.71875 1.5625.875 2.15625-1.65625 1.1875-1.4375.3125-.625 2.53125 1.0625-.25.65625-.15625 1.84375.375 2.71875 1.71875.46875 1.6875-2.1875.75-1.6875.125-.6875 2.75.375-.0625.65625.28125 1.84375 1.0625 2.53125h1.78125l1.0625-2.53125.3125-1.84375-.0625-.65625 2.71875-.375.125.6875.78125 1.6875 1.65625 2.1875 1.71875-.46875.375-2.71875-.1875-1.84375-.21875-.65625 2.53125-1.0625.3125.625 1.15625 1.4375 2.1875 1.65625 1.53125-.875-.34375-2.71875-.65625-1.75-.375-.5625 2.1875-1.6875.4375.53125 1.5 1.0625 2.5625 1.0625 1.25-1.28125-1.0625-2.53125-1.0625-1.5-.53125-.4375 1.6875-2.1875.5625.375 1.75.65625 2.71875.34375.875-1.53125-1.65625-2.1875-1.4375-1.1875-.625-.25 1.0625-2.5625.65625.21875 1.84375.1875 2.71875-.375.4375-1.71875-2.15625-1.6875-1.6875-.75-.6875-.125.375-2.75.6875.0625 1.8125-.3125 2.53125-1.03125v-1.78125l-2.53125-1.0625-1.8125-.3125-.6875.0625-.375-2.75.6875-.125 1.6875-.75 2.15625-1.6875-.4375-1.71875-2.71875-.34375-1.84375.15625-.65625.25-1.0625-2.5625.625-.28125 1.4375-1.1875 1.65625-2.15625-.40625-.75h-4.4375l-.5.1875-.5625.40625-.46875-.59375zm-16.0625 2.625c7.53154 0 13.625 6.09346 13.625 13.625s-6.09346 13.65625-13.625 13.65625-13.65625-6.12471-13.65625-13.65625 6.12471-13.625 13.65625-13.625zm43.59375 28.21875-1.1875 2.8125-.34375 2 .0625.78125-3.03125.375-.125-.71875-.84375-1.875-1.875-2.40625-1.875.5-.40625 3 .1875 2.0625.25.6875-2.8125 1.1875-.3125-.6875-1.3125-1.59375-2.4375-1.84375-1.6875 1 .40625 3.03125.6875 1.875.4375.65625-2.40625 1.84375-.5-.5625-1.65625-1.21875-2.8125-1.125-1.40625 1.375 1.15625 2.8125 1.1875 1.65625.59375.5-1.875 2.4375-.625-.4375-1.90625-.71875-3-.40625-1 1.71875 1.84375 2.40625 1.59375 1.3125.65625.3125-1.15625 2.8125-.71875-.25-2.03125-.1875-3 .40625-.53125 1.90625 2.40625 1.84375 1.875.84375.75.15625-.40625 3.03125-.75-.0625-2.03125.3125-2.8125 1.1875v1.96875l2.8125 1.15625 2.03125.34375.75-.0625.40625 3.03125-.75.15625-1.875.8125-2.40625 1.875.53125 1.90625 3 .40625 2.03125-.21875.71875-.25 1.15625 2.8125-.65625.34375-1.59375 1.28125-1.84375 2.4375.25.40625h5.9375l.34375-.25.1875.25h6.21875c-1.29523-1.37524-2.43984-2.894648-3.40625-4.53125l10.90625-5c2.31639 3.217479 6.01482 5.382208 10.21875 5.625l.53125 3.90625h5.21875l-.625-4.59375c3.78803-1.284696 6.83138-4.197457 8.28125-7.90625l8.3125 1.53125v-5.28125l-7.375-1.34375c-.0504-4.233581-2.06895-7.986155-5.15625-10.4375l5.5-10.65625c2.76801 1.813686 5.15704 4.157048 7.03125 6.875v-9.84375l-.84375.625-.5.5625-2.40625-1.84375.40625-.65625.75-1.875.375-3.03125-1.71875-1-2.40625 1.84375-1.28125 1.59375-.34375.6875-2.8125-1.1875.25-.6875.21875-2.0625-.4375-3-1.875-.5-1.875 2.40625-.84375 1.875-.125.71875-3.03125-.375.0625-.78125-.34375-2-1.15625-2.8125zm.96875 10.3125c3.2847 0 6.43014.645954 9.3125 1.78125l-5.5 10.625c-1.20945-.35429-2.48898-.53125-3.8125-.53125-2.62433 0-5.08015.738068-7.15625 2.03125l-8.15625-8.78125c4.26057-3.217148 9.56672-5.125 15.3125-5.125zm-48.75 6.3125-.96875 2.09375-.0625.71875.1875 1.25-2.25.59375-.4375-1.1875-.4375-.59375-1.84375-1.34375-1.09375.625.21875 2.28125.3125.65625.78125 1-1.625 1.625-1-.78125-.65625-.3125-2.28125-.21875-.625 1.0625 1.34375 1.84375.59375.4375 1.15625.46875-.59375 2.21875-1.25-.1875-.75.0625-2.0625.9375v1.25l2.0625.9375.75.0625 1.25-.15625.59375 2.21875-1.1875.46875-.59375.40625-1.34375 1.875.59375 1.0625 2.28125-.21875.6875-.3125 1-.78125 1.625 1.625-.8125 1-.3125.6875-.21875 2.25 1.0625.625 1.875-1.3125.40625-.59375.5-1.1875 2.21875.59375-.1875 1.25.0625.75.9375 2.09375h1.21875l.96875-2.09375.0625-.71875-.1875-1.28125 2.21875-.5625.46875 1.15625.4375.625 1.84375 1.3125 1.0625-.59375-.21875-2.28125-.28125-.65625-.78125-1 1.625-1.625 1 .78125.65625.3125 2.28125.21875.625-1.0625-1.34375-1.84375-.59375-.4375-1.1875-.46875.625-2.21875 1.25.1875.71875-.0625 2.09375-.9375v-1.25l-2.0625-.9375-.75-.09375-1.25.1875-.59375-2.21875 1.1875-.46875.59375-.4375 1.34375-1.84375-.625-1.0625-2.25.21875-.6875.3125-1 .78125-1.625-1.65625.8125-.96875.28125-.6875.25-2.25-1.0625-.625-1.875 1.3125-.4375.59375-.46875 1.1875-2.21875-.59375.1875-1.28125-.0625-.71875-.9375-2.09375zm29.625 2.34375 8.15625 8.78125c-1.63565 2.23928-2.59375 4.985371-2.59375 7.96875 0 1.101371.15791 2.193362.40625 3.21875l-10.90625 4.96875c-.87766-2.573536-1.375-5.318808-1.375-8.1875 0-6.420779 2.37994-12.275157 6.3125-16.75zm-29.09375 8.375c1.81315 0 3.28125 1.468102 3.28125 3.28125s-1.4681 3.28125-3.28125 3.28125-3.28125-1.468102-3.28125-3.28125 1.4681-3.28125 3.28125-3.28125zm48.21875 3.28125c2.78946 0 5.0625 2.241791 5.0625 5.03125s-2.27304 5.0625-5.0625 5.0625-5.03125-2.273041-5.03125-5.0625 2.24179-5.03125 5.03125-5.03125z" style="opacity:.3;fill:none;stroke:#000;stroke-width:1.5;clip-path:url(#j);filter:url(#k)" transform="translate(-100)"/><path d="m-51.90625 36.84375-1.1875 2.8125-.34375 2 .0625.78125-3.03125.375-.125-.71875-.84375-1.875-1.875-2.40625-1.875.5-.40625 3 .1875 2.0625.25.6875-2.8125 1.1875-.3125-.6875-1.3125-1.59375-2.4375-1.84375-1.6875 1 .40625 3.03125.6875 1.875.4375.65625-2.40625 1.84375-.5-.5625-1.65625-1.21875-2.8125-1.125-1.40625 1.375 1.15625 2.8125 1.1875 1.65625.59375.5-1.875 2.4375-.625-.4375-1.90625-.71875-3-.40625-1 1.71875 1.84375 2.40625 1.59375 1.3125.65625.3125-1.15625 2.8125-.71875-.25-2.03125-.1875-3 .40625-.53125 1.90625 2.40625 1.84375 1.875.84375.75.15625-.40625 3.03125-.75-.0625-2.03125.3125-2.8125 1.1875v1.96875l2.8125 1.15625 2.03125.34375.75-.0625.40625 3.03125-.75.15625-1.875.8125-2.40625 1.875.53125 1.90625 3 .40625 2.03125-.21875.71875-.25 1.15625 2.8125-.65625.34375-1.59375 1.28125-1.84375 2.4375 1 1.6875 3-.375 1.90625-.71875.625-.4375 1.875 2.40625-.59375.5-1.1875 1.6875-1.15625 2.8125 1.40625 1.375 2.8125-1.15625 1.65625-1.1875.5-.5625 2.40625 1.84375-.4375.625-.6875 1.90625-.40625 3.03125 1.6875.96875 2.4375-1.8125 1.3125-1.59375.3125-.6875 2.8125 1.15625-.25.71875-.1875 2.03125.40625 3.03125 1.875.5 1.875-2.40625.84375-1.875.125-.75 3.03125.40625-.0625.75.34375 2.03125 1.1875 2.8125h1.96875l1.15625-2.8125.34375-2.03125-.0625-.75 3.03125-.40625.125.75.84375 1.875 1.875 2.40625 1.875-.5.4375-3.03125-.21875-2.03125-.25-.71875 2.8125-1.15625.34375.6875 1.28125 1.59375 2.40625 1.8125 1.71875-.96875-.375-3.03125-.75-1.90625-.40625-.625 2.40625-1.84375.5.5625 1.65625 1.1875 2.8125 1.15625 1.40625-1.375-1.15625-2.8125-1.1875-1.6875-.59375-.5 1.875-2.40625.625.4375 1.90625.71875 3.03125.375.96875-1.6875-1.84375-2.4375-1.59375-1.28125-.6875-.34375 1.1875-2.8125.71875.25 2.03125.21875 3-.40625.53125-1.90625-2.4375-1.875-1.84375-.8125-.75-.15625.40625-3.03125.75.0625 2.03125-.34375 2.78125-1.15625v-1.96875l-2.78125-1.1875-2.03125-.3125-.75.0625-.40625-3.03125.75-.15625 1.84375-.84375 2.4375-1.84375-.53125-1.90625-3-.40625-2.03125.1875-.71875.25-1.1875-2.8125.6875-.3125 1.59375-1.3125 1.84375-2.40625-.96875-1.71875-3.03125.40625-1.90625.71875-.625.4375-1.875-2.4375.59375-.5 1.1875-1.65625 1.15625-2.8125-1.40625-1.375-2.8125 1.125-1.65625 1.21875-.5.5625-2.40625-1.84375.40625-.65625.75-1.875.375-3.03125-1.71875-1-2.40625 1.84375-1.28125 1.59375-.34375.6875-2.8125-1.1875.25-.6875.21875-2.0625-.4375-3-1.875-.5-1.875 2.40625-.84375 1.875-.125.71875-3.03125-.375.0625-.78125-.34375-2-1.15625-2.8125zm.96875 10.3125c3.284696 0 6.430143.645954 9.3125 1.78125l-5.5 10.625c-1.209447-.35429-2.488978-.53125-3.8125-.53125-2.624326 0-5.080149.738068-7.15625 2.03125l-8.15625-8.78125c4.260574-3.217148 9.566723-5.125 15.3125-5.125zm13.90625 4.15625c6.929687 4.540548 11.5 12.349721 11.5 21.25 0 .664694-.01235 1.316818-.0625 1.96875l-11.78125-2.125c-.05044-4.233581-2.068949-7.986155-5.15625-10.4375zm-33.03125 4.5 8.15625 8.78125c-1.635648 2.23928-2.59375 4.985371-2.59375 7.96875 0 1.101371.157912 2.193362.40625 3.21875l-10.90625 4.96875c-.877661-2.573536-1.375-5.318808-1.375-8.1875 0-6.420779 2.379937-12.275157 6.3125-16.75zm19.125 11.65625c2.789459 0 5.0625 2.241791 5.0625 5.03125s-2.273041 5.0625-5.0625 5.0625-5.03125-2.273041-5.03125-5.0625 2.241791-5.03125 5.03125-5.03125zm12.625 10.03125 11.78125 2.15625c-2.520899 8.720021-9.563054 15.51994-18.4375 17.65625l-1.625-11.90625c3.78803-1.284696 6.831382-4.197457 8.28125-7.90625zm-23.625 2.96875c2.316387 3.217479 6.014825 5.382208 10.21875 5.625l1.59375 11.90625c-.269203.009-.541251 0-.8125 0-9.326138 0-17.480084-5.0356-21.90625-12.53125z"/><path d="m-96.53125-10.15625-1.0625 2.5-.28125 1.84375.0625.6875-2.75.375-.125-.6875-.75-1.6875-1.6875-2.1875-1.71875.46875-.375 2.71875.15625 1.84375.25.625-2.53125 1.0625-.3125-.625-1.1875-1.40625-2.15625-1.6875-1.5625.90625.375 2.71875.625 1.75.40625.5625-2.1875 1.6875-.4375-.53125-1.5-1.09375-2.5625-1.03125-1.25 1.25 1.03125 2.5625 1.09375 1.5.5.4375-1.65625 2.1875-.5625-.40625-1.75-.65625-2.71875-.34375-.875 1.5625 1.65625 2.15625 1.4375 1.1875.625.28125-1.0625 2.5625-.65625-.25-1.84375-.15625-2.71875.34375-.46875 1.71875 2.1875 1.6875 1.6875.75.65625.125-.34375 2.75-.6875-.0625-1.8125.3125-2.53125 1.0625v1.78125l2.53125 1.03125 1.8125.3125.6875-.0625.34375 2.75-.65625.125-1.6875.75-2.1875 1.6875.46875 1.71875 2.71875.375 1.84375-.1875.65625-.21875 1.0625 2.5625-.625.25-1.4375 1.1875-1.65625 2.1875.875 1.53125 2.71875-.34375 1.75-.65625.5625-.375 1.65625 2.1875-.5.4375-1.09375 1.5-1.03125 2.53125 1.25 1.28125 2.5625-1.0625 1.5-1.0625.4375-.53125 2.1875 1.6875-.40625.5625-.625 1.75-.375 2.71875 1.5625.875 2.15625-1.65625 1.1875-1.4375.3125-.625 2.53125 1.0625-.25.65625-.15625 1.84375.375 2.71875 1.71875.46875 1.6875-2.1875.75-1.6875.125-.6875 2.75.375-.0625.65625.28125 1.84375 1.0625 2.53125h1.78125l1.0625-2.53125.3125-1.84375-.0625-.65625 2.71875-.375.125.6875.78125 1.6875 1.65625 2.1875 1.71875-.46875.375-2.71875-.1875-1.84375-.21875-.65625 2.53125-1.0625.3125.625 1.15625 1.4375 2.1875 1.65625 1.53125-.875-.34375-2.71875-.65625-1.75-.375-.5625 2.1875-1.6875.4375.53125 1.5 1.0625 2.5625 1.0625 1.25-1.28125-1.0625-2.53125-1.0625-1.5-.53125-.4375 1.6875-2.1875.5625.375 1.75.65625 2.71875.34375.875-1.53125-1.65625-2.1875-1.4375-1.1875-.625-.25 1.0625-2.5625.65625.21875 1.84375.1875 2.71875-.375.4375-1.71875-2.15625-1.6875-1.6875-.75-.6875-.125.375-2.75.6875.0625 1.8125-.3125 2.53125-1.03125v-1.78125l-2.53125-1.0625-1.8125-.3125-.6875.0625-.375-2.75.6875-.125 1.6875-.75 2.15625-1.6875-.4375-1.71875-2.71875-.34375-1.84375.15625-.65625.25-1.0625-2.5625.625-.28125 1.4375-1.1875 1.65625-2.15625-.875-1.5625-2.71875.34375-1.75.65625-.5625.40625-1.6875-2.1875.53125-.4375 1.0625-1.5 1.0625-2.5625-1.25-1.25-2.5625 1.03125-1.5 1.09375-.4375.53125-2.1875-1.6875.375-.5625.65625-1.75.34375-2.71875-1.53125-.90625-2.1875 1.6875-1.15625 1.40625-.3125.625-2.53125-1.0625.21875-.625.1875-1.84375-.375-2.71875-1.71875-.46875-1.65625 2.1875-.78125 1.6875-.125.6875-2.71875-.375.0625-.6875-.3125-1.84375-1.0625-2.5zm.875 9.40625c12.612727 0 22.84375 10.2310197 22.84375 22.84375 0 12.612729-10.231018 22.84375-22.84375 22.84375-12.61273.000001-22.84375-10.23102-22.84375-22.84375 0-12.6127303 10.23102-22.84375 22.84375-22.84375zm.15625 4.5625c-10.18153 0-18.4375 8.255974-18.4375 18.4375s8.25597 18.4375 18.4375 18.4375c10.181526 0 18.4375-8.255974 18.4375-18.4375s-8.255974-18.4375-18.4375-18.4375zm0 4.8125c7.53154 0 13.625 6.09346 13.625 13.625s-6.09346 13.65625-13.625 13.65625-13.65625-6.12471-13.65625-13.65625 6.12471-13.625 13.65625-13.625z"/><path d="m-99.6875 53.46875-.96875 2.09375-.0625.71875.1875 1.25-2.25.59375-.4375-1.1875-.4375-.59375-1.84375-1.34375-1.09375.625.21875 2.28125.3125.65625.78125 1-1.625 1.625-1-.78125-.65625-.3125-2.28125-.21875-.625 1.0625 1.34375 1.84375.59375.4375 1.15625.46875-.59375 2.21875-1.25-.1875-.75.0625-2.0625.9375v1.25l2.0625.9375.75.0625 1.25-.15625.59375 2.21875-1.1875.46875-.59375.40625-1.34375 1.875.59375 1.0625 2.28125-.21875.6875-.3125 1-.78125 1.625 1.625-.8125 1-.3125.6875-.21875 2.25 1.0625.625 1.875-1.3125.40625-.59375.5-1.1875 2.21875.59375-.1875 1.25.0625.75.9375 2.09375h1.21875l.96875-2.09375.0625-.71875-.1875-1.28125 2.21875-.5625.46875 1.15625.4375.625 1.84375 1.3125 1.0625-.59375-.21875-2.28125-.28125-.65625-.78125-1 1.625-1.625 1 .78125.65625.3125 2.28125.21875.625-1.0625-1.34375-1.84375-.59375-.4375-1.1875-.46875.625-2.21875 1.25.1875.71875-.0625 2.09375-.9375v-1.25l-2.0625-.9375-.75-.09375-1.25.1875-.59375-2.21875 1.1875-.46875.59375-.4375 1.34375-1.84375-.625-1.0625-2.25.21875-.6875.3125-1 .78125-1.625-1.65625.8125-.96875.28125-.6875.25-2.25-1.0625-.625-1.875 1.3125-.4375.59375-.46875 1.1875-2.21875-.59375.1875-1.28125-.0625-.71875-.9375-2.09375zm.53125 10.71875c1.813148 0 3.28125 1.468102 3.28125 3.28125s-1.468102 3.28125-3.28125 3.28125c-1.81315 0-3.28125-1.468102-3.28125-3.28125s1.4681-3.28125 3.28125-3.28125z"/><rect height="84" rx="6" width="84" x="6" y="106"/><rect height="66" rx="12" style="opacity:.1;stroke:#fff;stroke-width:.5;stroke-linecap:round;clip-path:url(#f);fill:url(#d);filter:url(#c)" width="66" x="15" y="15"/><path d="m12 6c-3.324 0-6 2.676-6 6v2 68 2c0 .334721.04135.6507.09375.96875.0487.295596.09704.596915.1875.875.00988.03038.020892.0636.03125.09375.098865.287771.2348802.547452.375.8125.1445918.273507.3156161.535615.5.78125s.3737765.473472.59375.6875c.439947.428056.94291.814526 1.5 1.09375.278545.139612.5734731.246947.875.34375-.2562018-.100222-.4867109-.236272-.71875-.375-.00741-.0044-.023866.0045-.03125 0-.031933-.0193-.062293-.04251-.09375-.0625-.120395-.0767-.2310226-.163513-.34375-.25-.1061728-.0808-.2132809-.161112-.3125-.25-.1779299-.161433-.3474596-.345388-.5-.53125-.1075789-.130255-.2183939-.265285-.3125-.40625-.025089-.03838-.038446-.08587-.0625-.125-.064763-.103032-.1302275-.204517-.1875-.3125-.1010083-.194706-.2056748-.415701-.28125-.625-.00796-.02181-.023589-.04055-.03125-.0625-.0318251-.09195-.0358045-.186831-.0625-.28125-.0303323-.106618-.0703894-.203031-.09375-.3125-.0728786-.341512-.125-.698205-.125-1.0625v-2-68-2c0-2.781848 2.2181517-5 5-5h2 68 2c2.781848 0 5 2.218152 5 5v2 68 2c0 .364295-.05212.720988-.125 1.0625-.04415.206893-.08838.397658-.15625.59375-.0077.02195-.0233.04069-.03125.0625-.06274.173739-.138383.367449-.21875.53125-.04158.0828-.07904.169954-.125.25-.0546.09721-.126774.18835-.1875.28125-.09411.140965-.204921.275995-.3125.40625-.143174.17445-.303141.346998-.46875.5-.01117.0102-.01998.02115-.03125.03125-.138386.125556-.285091.234436-.4375.34375-.102571.07315-.204318.153364-.3125.21875-.0074.0045-.02384-.0044-.03125 0-.232039.138728-.462548.274778-.71875.375.301527-.0968.596455-.204138.875-.34375.55709-.279224 1.060053-.665694 1.5-1.09375.219973-.214028.409366-.441865.59375-.6875s.355408-.507743.5-.78125c.14012-.265048.276135-.524729.375-.8125.01041-.03078.02133-.06274.03125-.09375.09046-.278085.1388-.579404.1875-.875.0524-.31805.09375-.634029.09375-.96875v-2-68-2c0-3.324-2.676-6-6-6z" fill="url(#b)" opacity=".5"/><path d="m12 90c-3.324 0-6-2.676-6-6v-2-68-2c0-.334721.04135-.6507.09375-.96875.0487-.295596.09704-.596915.1875-.875.00988-.03038.020892-.0636.03125-.09375.098865-.287771.2348802-.547452.375-.8125.1445918-.273507.3156161-.535615.5-.78125s.3737765-.473472.59375-.6875c.439947-.428056.94291-.814526 1.5-1.09375.278545-.139612.5734731-.246947.875-.34375-.2562018.100222-.4867109.236272-.71875.375-.00741.0044-.023866-.0045-.03125 0-.031933.0193-.062293.04251-.09375.0625-.120395.0767-.2310226.163513-.34375.25-.1061728.0808-.2132809.161112-.3125.25-.1779299.161433-.3474596.345388-.5.53125-.1075789.130255-.2183939.265285-.3125.40625-.025089.03838-.038446.08587-.0625.125-.064763.103032-.1302275.204517-.1875.3125-.1010083.194706-.2056748.415701-.28125.625-.00796.02181-.023589.04055-.03125.0625-.0318251.09195-.0358045.186831-.0625.28125-.0303323.106618-.0703894.203031-.09375.3125-.0728786.341512-.125.698205-.125 1.0625v2 68 2c0 2.781848 2.2181517 5 5 5h2 68 2c2.781848 0 5-2.218152 5-5v-2-68-2c0-.364295-.05212-.720988-.125-1.0625-.04415-.206893-.08838-.397658-.15625-.59375-.0077-.02195-.0233-.04069-.03125-.0625-.06274-.173739-.138383-.367449-.21875-.53125-.04158-.0828-.07904-.169954-.125-.25-.0546-.09721-.126774-.18835-.1875-.28125-.09411-.140965-.204921-.275995-.3125-.40625-.143174-.17445-.303141-.346998-.46875-.5-.01117-.0102-.01998-.02115-.03125-.03125-.138386-.125556-.285091-.234436-.4375-.34375-.102571-.07315-.204318-.153364-.3125-.21875-.0074-.0045-.02384.0044-.03125 0-.232039-.138728-.462548-.274778-.71875-.375.301527.0968.596455.204138.875.34375.55709.279224 1.060053.665694 1.5 1.09375.219973.214028.409366.441865.59375.6875s.355408.507743.5.78125c.14012.265048.276135.524729.375.8125.01041.03078.02133.06274.03125.09375.09046.278085.1388.579404.1875.875.0524.31805.09375.634029.09375.96875v2 68 2c0 3.324-2.676 6-6 6z" fill="url(#e)" opacity=".2"/></svg>