<svg height="22" width="22" xmlns="http://www.w3.org/2000/svg" xmlns:xlink="http://www.w3.org/1999/xlink"><linearGradient id="a" gradientTransform="matrix(.9984539 0 0 .9984539 -.045978 .057676)" gradientUnits="userSpaceOnUse" x1="10.710332" x2="10.710332" y1="1.996333" y2="18.974037"><stop offset="0" stop-color="#ebebeb"/><stop offset="1" stop-color="#aaa"/></linearGradient><linearGradient id="b" gradientUnits="userSpaceOnUse" x1="0" x2="4" y1="-27" y2="-27"><stop offset="0" stop-opacity=".862745"/><stop offset="1" stop-opacity=".470588"/></linearGradient><linearGradient id="c" gradientTransform="translate(-20 -29)" gradientUnits="userSpaceOnUse" x1="25" x2="29" xlink:href="#a" y1="2" y2="2"/><clipPath id="d"><path d="m0 19v22h22v-22zm10.96875 2c2.688706 0 4.906254 2.01253 4.90625 4.5-.01073.312615-.06808.634228-.09375 1 .367348.273322.391688 1.095693.03125 1.9375-.130093.303837-.261269.567734-.4375.78125-.05701.264083-.08285.504956-.15625.8125-.199702.593858-.996956 1.743723-1.59375 2.65625-.03849.606892-.01307 1.19633.0625 1.8125 1.866195 1.60856 6.71115 2.498287 6.71875 3.875l.09375.625h-19l.09375-.625c-.0072-1.608559 4.798142-2.321215 6.6875-3.875.1317-.761133.09671-1.393361.03125-2.0625-.656407-.867402-1.382111-1.869824-1.5625-2.40625-.05823-.264183-.07685-.484541-.125-.71875-.0068-.0073-.02455.0075-.03125 0-.201711-.224938-.416144-.533185-.5625-.875-.379549-.886443-.331759-1.743903.09375-1.96875-.0299-.354577.0065-.683682 0-.96875 0-2.487471 2.155046-4.5 4.84375-4.5z"/></clipPath><clipPath id="e"><path d="m-30 0v22h22v-22zm10.96875 2c2.688706 0 4.906254 2.01253 4.90625 4.5-.01073.312615-.06808.634228-.09375 1 .367348.273322.391688 1.095693.03125 1.9375-.130093.303837-.261269.567734-.4375.78125-.05701.264083-.08285.504956-.15625.8125-.199702.593858-.996956 1.743723-1.59375 2.65625-.03849.606892-.01307 1.19633.0625 1.8125 1.866195 1.60856 6.71115 2.498287 6.71875 3.875l.09375.625h-19l.09375-.625c-.0072-1.608559 4.798142-2.321215 6.6875-3.875.1317-.761133.09671-1.393361.03125-2.0625-.656407-.867402-1.382111-1.869824-1.5625-2.40625-.05823-.264183-.07685-.484541-.125-.71875-.0068-.0073-.02455.0075-.03125 0-.201711-.224938-.416144-.533185-.5625-.875-.379549-.886443-.331759-1.743903.09375-1.96875-.0299-.354577.0065-.683682 0-.96875 0-2.487471 2.155046-4.5 4.84375-4.5z"/></clipPath><g><g clip-path="url(#e)" opacity=".2" transform="translate(30)"><path d="m10.96875 1c-2.7628433-.06731739-5.4671615 1.943941-5.8125 4.78125a.48122411.48122411 0 0 0 0 .09375c.064508.7840142-.2065407 1.5004344-.375 2.40625a.48122411.48122411 0 0 0 0 .03125c-.068086.5960383.1231525 1.1097442.34375 1.53125.2205975.421506.4693523.791225.59375 1.09375.1127037.717042.5162498 1.278808.78125 1.75a.48122411.48122411 0 0 0 .0625.09375c.313157.312288.6676618.830052.78125 1.28125.056794.225599.042192.442002 0 .59375s-.099187.256171-.28125.375c-1.620056.969803-3.6594469 1.355382-5.4375 2.53125-.00808.0053-.023182-.0054-.03125 0v.03125c-.67645873.461789-.94828288 1.219372-1 1.9375h-.03125c-.007588.02847.006745.06465 0 .09375-.0386709.166864-.083409.337255-.0625.53125.0202587.187961.11963555.433543.3125.59375.0371616.0355.0861782.03561.125.0625.2564282.177581.5401292.223858.75.21875.241644-.005881.4498722-.042079.53125-.03125a.48122411.48122411 0 0 0 .0625 0h18.375a.48122411.48122411 0 0 0 .21875-.03125c.122641-.0664.278179-.146398.40625-.28125s.197978-.335647.21875-.53125a.48122411.48122411 0 0 0 0-.09375c-.02749-.343313-.05805-.750532-.1875-1.15625-.125533-.393435-.36256-.793775-.78125-1.0625-.0063-.0041.0064-.02725 0-.03125-.0076-.0054-.02367.0054-.03125 0-1.907409-1.351423-4.132221-1.7707-5.84375-2.90625-.09358-.417361-.03883-.757468.15625-1.15625.220333-.4504.589976-.925771.90625-1.46875.305092-.508895.493872-1.024486.59375-1.625.01196-.01789.01937-.04429.03125-.0625.288681-.442647.53564-.9786013.65625-1.5625.112781-.5459958.065678-1.1418384-.21875-1.6875.422732-2.3010643-.860468-4.6341984-2.90625-5.65625-.896856-.4746249-1.898282-.68860572-2.90625-.6875z" opacity=".2" transform="translate(-30)"/><path d="m10.96875 1.21875c-2.6418704-.0643698-5.2651327 1.8938228-5.59375 4.59375a.24584315.24584315 0 0 0 0 .0625c.0694966.8446488-.2113461 1.5887733-.375 2.46875-.0606227.5307058.1325396 1.0026805.34375 1.40625.1993582.380923.4204687.710651.5625 1.03125.00844.01906.023472.04358.03125.0625.08262.684504.463659 1.209613.75 1.71875a.24584315.24584315 0 0 0 .03125.03125.24584315.24584315 0 0 0 0 .03125c.3432737.342321.7157376.866506.84375 1.375.064006.254247.056363.516033 0 .71875s-.1497313.352972-.375.5c-1.6754967 1.002991-3.7063195 1.377805-5.4375 2.53125-.6351534.413652-.92624515 1.155321-.96875 1.84375-.001219.01974.00084031.04283 0 .0625-.0366893.154503-.0486532.307282-.03125.46875.0183064.169848.0783145.361733.25.46875.011299.01079.019601.02154.03125.03125.200942.167454.4451182.161389.65625.15625.2233713-.0054.432162-.01734.5625 0a.24584315.24584315 0 0 0 .03125 0h18.375a.24584315.24584315 0 0 0 .0625 0 .24584315.24584315 0 0 0 .0625-.03125c.117105-.06341.216285-.117441.3125-.21875.09622-.101309.171064-.25148.1875-.40625a.24584315.24584315 0 0 0 0-.0625c-.02743-.342512-.06928-.723222-.1875-1.09375-.114152-.357766-.325153-.703367-.6875-.9375-.01174-.0084-.01947-.02294-.03125-.03125-1.881316-1.326902-4.163171-1.71801-5.9375-2.9375-.139926-.516279-.03394-.984828.1875-1.4375.235484-.481371.601076-.944828.90625-1.46875.317204-.5291.510391-1.03417.59375-1.65625.0075-.01127.02375-.01985.03125-.03125.0027-.02158-.0024-.04062 0-.0625.269149-.4184623.515029-.9051058.625-1.4375.108562-.5255715.06063-1.0621607-.21875-1.5625.451907-2.2139884-.802688-4.5115307-2.78125-5.5-.861068-.4556855-1.841998-.6885646-2.8125-.6875z" opacity=".3" transform="translate(-30)"/><path d="m10.96875 1.46875c-2.9590682 0-5.375 2.2318143-5.375 5.03125.00414.1814796-.00773.475785 0 .78125-.2102424.2439275-.3267134.5660709-.34375.90625-.023035.459962.063395.9599469.28125 1.46875.1522951.355686.3919532.635768.59375.875.00499.0059-.00498.0254 0 .03125.0001127.000552-.0002128.03078 0 .03125.0000491.000107-.00357.02578 0 .03125.020978.146505.046111.315124.09375.53125a.25985533.25985533 0 0 0 0 .03125.25985533.25985533 0 0 0 .03125.03125.25985533.25985533 0 0 0 0 .03125c.00391.01127.027138.0199.03125.03125.00411.01135.026936.01983.03125.03125.1296272.343224.3200716.717309.59375 1.125.2721342.405391.5770517.793836.875 1.1875.046051.51577.039012.991717-.03125 1.53125-.8419563.619098-2.3436655 1.201103-3.71875 1.75-.7255903.289637-1.4237725.576509-1.96875.9375-.535019.354395-.9845331.848131-1 1.5-.0004225.01781-.0000359.02327 0 .03125l-.09375.5625a.25985533.25985533 0 0 0 0 .03125c-.00000528.000189 0 .03106 0 .03125.00000108.000235-.00000921.03102 0 .03125.00001733.000234-.00002543.03102 0 .03125.00003351.000233-.00004154.03102 0 .03125.00004154.000231-.00004952.03102 0 .03125.00005744.000228-.00006529.03102 0 .03125.00006529.000226.0311769-.000223.03125 0s-.00008075.03103 0 .03125c.0000883.000218-.00009582.03103 0 .03125.0000958.000215-.00010319.03104 0 .03125.0001032.000211.03114-.000207.03125 0 .0001104.000207-.0001176.03105 0 .03125.0001245.000199.031119.03105.03125.03125.000138.00019-.0001445.03107 0 .03125.0001445.000185.031099-.00018.03125 0 .0001508.00018-.000157.03108 0 .03125.000157.000175.031087-.000169.03125 0 .0001687.000164-.0001743.03109 0 .03125.0001743.000158.03107-.000151.03125 0 .0001796.000151-.0001848.03111 0 .03125.0001848.000145.03106-.000139.03125 0 .0001944.000132.031051.03112.03125.03125.000203.000118.031043-.000111.03125 0 .0002641.000144.03098.03112.03125.03125.0002758.00012.030969-.000108.03125 0 .0002808.000108.030965.03115.03125.03125.0002853.000095.030961-.000082.03125 0 .0002926.000069.030955-.000056.03125 0 .0002954.000056.030952-.000043.03125 0a.25985533.25985533 0 0 0 .03125 0c.0001892.000005.031061 0 .03125 0h19c.000197-.000003.03105.000008.03125 0 .000196-.000014.03105.00002.03125 0 .000195-.000025.03106.000031.03125 0 .000193-.000037.03106.000042.03125 0 .000191-.000048.03106.000053.03125 0 .000188-.000059.03106-.03119.03125-.03125.000182-.000075.03107.00008.03125 0 .000177-.000085.03108-.03116.03125-.03125.000311-.000145.03095.000161.03125 0 .000295-.000176.03096-.03106.03125-.03125.000286-.00019.03097.000205.03125 0 .000276-.000205.03099-.03103.03125-.03125.000265-.000218-.000254-.03102 0-.03125.000254-.000232.03101.000244.03125 0a.25985533.25985533 0 0 0 0-.03125c.00014-.000161.03111.000166.03125 0 .00013-.00017-.000124-.03108 0-.03125.000124-.000174.03113.000178.03125 0 .000119-.000178-.000113-.03107 0-.03125.000107-.000185-.000102-.03106 0-.03125.000102-.000188.03115.000191.03125 0 .000096-.000191-.00009-.03106 0-.03125.000083-.000197-.000077-.03105 0-.03125.000077-.000199.03118.000202.03125 0 .000071-.000202-.000064-.03105 0-.03125.000058-.000206-.000051-.03104 0-.03125a.25985533.25985533 0 0 0 0-.03125c.000036-.000283-.000024-.03097 0-.03125.000024-.000284-.000012-.03096 0-.03125.000012-.000285 0-.03096 0-.03125-.000012-.000285.000024-.03097 0-.03125-.000024-.000284.000036-.03097 0-.03125l-.09375-.5625c-.000005-.00095.0011-.0053 0-.03125-.01282-.315984-.155259-.593193-.34375-.8125-.201597-.234557-.461336-.401952-.71875-.5625-.533778-.332916-1.20319-.666184-1.9375-.96875-1.371923-.565289-2.880904-1.138764-3.71875-1.78125-.04847-.458176-.08106-.902936-.0625-1.34375.280252-.427708.594931-.929174.875-1.375.282549-.449774.487613-.820837.625-1.1875.0043-.01156.0271-.01975.03125-.03125.000182-.000197-.000174-.03105 0-.03125a.25985533.25985533 0 0 0 .03125 0c.0026-.0074-.0025-.02383 0-.03125a.25985533.25985533 0 0 0 .03125-.03125.25985533.25985533 0 0 0 0-.03125c.07097-.297379.08357-.509064.125-.71875.0133-.01841.01829-.04393.03125-.0625.0044-.02098-.000708-.0183 0-.03125.146689-.213206.297812-.4342394.40625-.6875.207283-.4841129.290128-.9654924.28125-1.40625-.006384-.3169728-.118601-.5986198-.28125-.84375.02763-.2807226.082994-.5928775.09375-.90625.000004-2.8079422-2.478717-5.03125-5.4375-5.03125z" opacity=".4" transform="translate(-30)"/><path d="m10.96875 1.71875c-2.8285051 0-5.125 2.1319673-5.125 4.78125.00511.2242845-.014794.5461799 0 .875-.2097855.2026679-.3273785.4856008-.34375.8125-.020456.4084609.076936.8978202.28125 1.375.157503.3678489.3778878.662113.59375.90625.00526.006-.00525.02539 0 .03125.030818.180726.042194.359854.09375.59375a.28018576.28018576 0 0 0 .03125.03125c.1095674.325822.3336306.722205.625 1.15625.2712676.4041.597385.809106.90625 1.21875.059691.618511.073167 1.172816-.03125 1.84375-.8898868.687065-2.4709666 1.252047-3.875 1.8125-.7235898.288838-1.3937808.566792-1.90625.90625-.5025309.332875-.8937561.75468-.90625 1.28125-.0002471.01041-.0000473.02074 0 .03125l-.09375.59375a.28018576.28018576 0 0 0 0 .03125.28018576.28018576 0 0 0 .15625.25.28018576.28018576 0 0 0 .125.03125h19a.28018576.28018576 0 0 0 .28125-.21875.28018576.28018576 0 0 0 0-.09375l-.09375-.59375c-.000055-.01.000401-.02136 0-.03125-.0098-.242377-.122373-.471398-.28125-.65625-.165361-.192397-.399428-.339821-.65625-.5-.513644-.320359-1.18011-.6383-1.90625-.9375-1.408982-.580559-2.99339-1.191795-3.875-1.90625-.0596-.534028-.09187-1.038731-.0625-1.5625.288679-.440151.615756-.943828.90625-1.40625.302561-.481631.53791-.898091.65625-1.25a.28018576.28018576 0 0 0 .03125-.03125c.07474-.31317.106741-.543529.15625-.78125.0019-.0092-.002-.0221 0-.03125.160318-.222032.291795-.4514367.40625-.71875.19411-.4533467.289206-.9175194.28125-1.3125-.006403-.3178933-.103861-.596031-.28125-.8125.02717-.3127363.083125-.6279421.09375-.9375.000004-2.653975-2.358993-4.78125-5.1875-4.78125z" opacity=".5" transform="translate(-30)"/></g><path d="m10.974504 2c-2.688704 0-4.844192 1.999781-4.844192 4.487252.0065.285068-.0299.614262 0 .968839-.425509.224847-.481532 1.102226-.101983 1.988669.146356.341815.359195.641916.560906.866854.0067.0075.04422-.0073.05099 0 .04815.234209.04375.449699.101982.713882.180389.536426.92433 1.529198 1.580737 2.3966.06546.669139.08071 1.329519-.05099 2.090652-1.889358 1.553785-6.687129 2.266795-6.679887 3.875354l-.101982.611898h19.01983l-.101978-.611898c-.0076-1.376713-4.864684-2.266794-6.730879-3.875354-.07557-.61617-.08947-1.228802-.05098-1.835694.596794-.912527 1.381035-2.0577 1.580737-2.651558.0734-.307544.09597-.551782.152983-.815865.176231-.213516.32883-.461034.458923-.764871.360438-.841807.316358-1.664357-.05099-1.937679.02567-.365772.09125-.707214.10198-1.019829.000004-2.48747-2.206477-4.487252-4.895183-4.487252z" fill="url(#a)"/><g fill="#fff"><path d="m10.96875 2c-2.688704 0-4.84375 2.0125283-4.84375 4.5.00653.2850676-.0299.6141728 0 .96875.0177809-2.4730979 2.1661994-4.46875 4.84375-4.46875 2.485373 0 4.575627 1.7143232 4.875 3.9375.017709-.1471007.026565-.3010148.03125-.4375.000004-2.4874701-2.217544-4.5-4.90625-4.5zm-4.84375 5.46875c-.3343282.176666-.4351791.7360269-.28125 1.40625.0581914-.1861898.144257-.33386.28125-.40625-.0299-.3545772.00653-.6836824 0-.96875 0-.010319-.0000741-.020948 0-.03125zm9.75.15625c-.02003.2800767-.07126.5545512-.09375.875.104381.077663.137184.2208066.1875.375.119581-.5254597.09206-.9879202-.09375-1.25zm-7.53125 7.21875c-.0154879.21919-.0218033.42105-.0625.65625-1.8893578 1.553785-6.6947423 2.266441-6.6875 3.875l-.09375.625h.21875c.6851155-1.34595 4.8324454-2.077224 6.5625-3.5.1049236-.606389.0952-1.122383.0625-1.65625zm5.28125 0c-.02687.555524-.0066 1.093135.0625 1.65625 1.681782 1.449606 5.760927 2.335397 6.5625 3.5h.25l-.09375-.625c-.0076-1.376713-4.852555-2.26644-6.71875-3.875-.027339-.222909-.050864-.434372-.0625-.65625z" opacity=".15"/><path d="m10.96875 2c-2.688704 0-4.84375 2.0125283-4.84375 4.5.00506.2206975-.00427.4851035 0 .75 0-2.4874717 2.155046-4.5 4.84375-4.5 2.520662 0 4.622746 1.7619352 4.875 4.03125.00961-.0925395.028227-.1931853.03125-.28125.000004-2.4874701-2.217544-4.5-4.90625-4.5zm-4.84375 5.46875c-.3191314.1686358-.43692.6812294-.3125 1.3125.0454734-.2681674.1376263-.4700931.3125-.5625-.023148-.2745114-.00565-.5146143 0-.75zm9.71875.125c-.02444.2178377-.04565.416179-.0625.65625.130812.097329.173591.2873114.21875.5.08997-.499931.0389-.9235373-.15625-1.15625zm-7.5 7.15625c-.014132.248249-.016038.48148-.0625.75-1.8893578 1.553785-6.6947423 2.266441-6.6875 3.875l-.09375.625h.125c.2481192-1.516285 4.8196831-2.23963 6.65625-3.75.094675-.547157.083766-1.016293.0625-1.5zm5.28125.03125c-.01484.493627.0012.969301.0625 1.46875 1.807876 1.558293 6.393934 2.444633 6.6875 3.75h.125l-.09375-.625c-.0076-1.376713-4.852555-2.26644-6.71875-3.875-.029917-.243931-.051338-.476065-.0625-.71875z" opacity=".3"/><path d="m10.96875 2c-2.688704 0-4.84375 2.0125283-4.84375 4.5.00337.1471317.00449.3319359 0 .5 0-2.4874717 2.155046-4.5 4.84375-4.5 2.587582 0 4.717619 1.8621984 4.875 4.21875.00665-.071433.028892-.1500534.03125-.21875.000004-2.4874701-2.217544-4.5-4.90625-4.5zm-4.84375 5.46875c-.2856315.1509337-.3798418.580634-.3125 1.125.03716-.3019115.1230968-.5249154.3125-.625-.015432-.1830076-.00488-.3330932 0-.5zm9.6875.09375c-.018536.1500439-.020043.2778068-.03125.4375.150971.1123284.213869.3326786.25.59375.05321-.4566832-.020673-.8328206-.21875-1.03125zm-7.46875 7.09375c-.0120417.27698-.0102726.54191-.0625.84375-1.8893578 1.553785-6.6947423 2.266441-6.6875 3.875l-.09375.625h.0625l.03125-.125c-.00724-1.608559 4.7981422-2.321215 6.6875-3.875.084426-.487925.073365-.909784.0625-1.34375zm5.25.0625c-.0049.431107.04035.845833.09375 1.28125 1.866195 1.60856 6.71115 2.498287 6.71875 3.875l.03125.125h.0625l-.09375-.625c-.0076-1.376713-4.852555-2.26644-6.71875-3.875-.03263-.26604-.08337-.516706-.09375-.78125z" opacity=".45"/><path d="m10.96875 2c-2.6098869 0-4.691185 1.8957121-4.8125 4.28125.2466553-2.269316 2.29184-4.03125 4.8125-4.03125 2.520662 0 4.622746 1.7619352 4.875 4.03125-.124128-2.3855366-2.265111-4.28125-4.875-4.28125zm-4.84375 5.46875c-.2462543.1301259-.3578072.4637476-.34375.90625.0311722-.322916.1455253-.5515039.34375-.65625-.00772-.091504.0007596-.1621993 0-.25zm9.6875.0625c-.0085.07798-.02561.1383722-.03125.21875.163515.1216613.221752.3636874.25.65625.0148-.389202-.03434-.7085139-.21875-.875zm-7.4375 7c-.0081.315704-.033666.621503-.09375.96875-1.8893578 1.553785-6.6947423 2.266441-6.6875 3.875l-.09375.625h.03125l.0625-.375c-.00724-1.608559 4.7981422-2.321215 6.6875-3.875.076098-.439799.097113-.825102.09375-1.21875zm5.21875.125c.0027.368692.04816.721999.09375 1.09375 1.866195 1.60856 6.71115 2.498287 6.71875 3.875l.0625.375h.03125l-.09375-.625c-.0076-1.376713-4.852555-2.26644-6.71875-3.875-.03521-.287063-.08437-.558446-.09375-.84375z" opacity=".6"/></g><path d="m0-29h4v4h-4z" fill="url(#b)" transform="rotate(90)"/><path d="m5-29h4v4h-4z" fill="url(#c)" transform="rotate(90)"/><g clip-path="url(#d)" opacity=".5" transform="translate(0 -19)"><path d="m10.974504 22c-2.688704 0-4.844192 1.999781-4.844192 4.487252.0065.285068-.0299.614262 0 .968839-.425509.224847-.481532 1.102226-.101983 1.988669.146356.341815.359195.641916.560906.866854.0067.0075.04422-.0073.05099 0 .04815.234209.04375.449699.101982.713882.180389.536426.92433 1.529198 1.580737 2.3966.06546.669139.08071 1.329519-.05099 2.090652-1.889358 1.553785-6.687129 2.266795-6.679887 3.875354l-.101982.611898h19.01983l-.101978-.611898c-.0076-1.376713-4.864684-2.266794-6.730879-3.875354-.07557-.61617-.08947-1.228802-.05098-1.835694.596794-.912527 1.381035-2.0577 1.580737-2.651558.0734-.307544.09597-.551782.152983-.815865.176231-.213516.32883-.461034.458923-.764871.360438-.841807.316358-1.664357-.05099-1.937679.02567-.365772.09125-.707214.10198-1.019829.000004-2.48747-2.206477-4.487252-4.895183-4.487252z" opacity=".25"/><path d="m10.974504 21.75c-2.688704 0-4.844192 1.999781-4.844192 4.487252.0065.285068-.0299.614262 0 .968839-.425509.224847-.481532 1.102226-.101983 1.988669.146356.341815.359195.641916.560906.866854.0067.0075.04422-.0073.05099 0 .04815.234209.04375.449699.101982.713882.180389.536426.92433 1.529198 1.580737 2.3966.06546.669139.08071 1.329519-.05099 2.090652-1.889358 1.553785-6.687129 2.266795-6.679887 3.875354l-.101982.611898h19.01983l-.101978-.611898c-.0076-1.376713-4.864684-2.266794-6.730879-3.875354-.07557-.61617-.08947-1.228802-.05098-1.835694.596794-.912527 1.381035-2.0577 1.580737-2.651558.0734-.307544.09597-.551782.152983-.815865.176231-.213516.32883-.461034.458923-.764871.360438-.841807.316358-1.664357-.05099-1.937679.02567-.365772.09125-.707214.10198-1.019829.000004-2.48747-2.206477-4.487252-4.895183-4.487252z" opacity=".5"/><path d="m10.974504 21.5c-2.688704 0-4.844192 1.999781-4.844192 4.487252.0065.285068-.0299.614262 0 .968839-.425509.224847-.481532 1.102226-.101983 1.988669.146356.341815.359195.641916.560906.866854.0067.0075.04422-.0073.05099 0 .04815.234209.04375.449699.101982.713882.180389.536426.92433 1.529198 1.580737 2.3966.06546.669139.08071 1.329519-.05099 2.090652-1.889358 1.553785-6.687129 2.266795-6.679887 3.875354l-.101982.611898h19.01983l-.101978-.611898c-.0076-1.376713-4.864684-2.266794-6.730879-3.875354-.07557-.61617-.08947-1.228802-.05098-1.835694.596794-.912527 1.381035-2.0577 1.580737-2.651558.0734-.307544.09597-.551782.152983-.815865.176231-.213516.32883-.461034.458923-.764871.360438-.841807.316358-1.664357-.05099-1.937679.02567-.365772.09125-.707214.10198-1.019829.000004-2.48747-2.206477-4.487252-4.895183-4.487252z" opacity=".75"/><path d="m10.974504 21.25c-2.688704 0-4.844192 1.999781-4.844192 4.487252.0065.285068-.0299.614262 0 .968839-.425509.224847-.481532 1.102226-.101983 1.988669.146356.341815.359195.641916.560906.866854.0067.0075.04422-.0073.05099 0 .04815.234209.04375.449699.101982.713882.180389.536426.92433 1.529198 1.580737 2.3966.06546.669139.08071 1.329519-.05099 2.090652-1.889358 1.553785-6.687129 2.266795-6.679887 3.875354l-.101982.611898h19.01983l-.101978-.611898c-.0076-1.376713-4.864684-2.266794-6.730879-3.875354-.07557-.61617-.08947-1.228802-.05098-1.835694.596794-.912527 1.381035-2.0577 1.580737-2.651558.0734-.307544.09597-.551782.152983-.815865.176231-.213516.32883-.461034.458923-.764871.360438-.841807.316358-1.664357-.05099-1.937679.02567-.365772.09125-.707214.10198-1.019829.000004-2.48747-2.206477-4.487252-4.895183-4.487252z"/></g></g></svg>