<svg height="22" width="22" xmlns="http://www.w3.org/2000/svg" xmlns:xlink="http://www.w3.org/1999/xlink"><linearGradient id="a" gradientTransform="matrix(.62762637 0 0 .79043346 1.97277 -3.815592)" gradientUnits="userSpaceOnUse" x1="27.557428" x2="27.557428" y1="7.162672" y2="21.386522"><stop offset="0" stop-color="#fff"/><stop offset=".0097359" stop-color="#fff" stop-opacity=".235294"/><stop offset=".99001008" stop-color="#fff" stop-opacity=".156863"/><stop offset="1" stop-color="#fff" stop-opacity=".392157"/></linearGradient><linearGradient id="b" gradientTransform="matrix(.54761895 0 0 .48299421 -2.10685 -7.244907)" gradientUnits="userSpaceOnUse" x1="22.934725" x2="22.809399" y1="49.629246" y2="36.657963"><stop offset="0" stop-color="#0a0a0a" stop-opacity=".498"/><stop offset="1" stop-color="#0a0a0a" stop-opacity="0"/></linearGradient><linearGradient id="c" gradientTransform="matrix(.4666607 0 0 .4821427 -.16385 -7.45535)" gradientUnits="userSpaceOnUse" x1="35.792694" x2="35.792694" y1="17.118193" y2="43.761127"><stop offset="0" stop-color="#ff5050"/><stop offset="1" stop-color="#963232"/></linearGradient><linearGradient id="d" gradientTransform="matrix(.43131243 0 0 .48638011 .98956 -4.814587)" gradientUnits="userSpaceOnUse" x1="21.37039" x2="21.37039" y1="4.73244" y2="34.143417"><stop offset="0" stop-color="#fff"/><stop offset=".1106325" stop-color="#fff" stop-opacity=".235294"/><stop offset=".99001008" stop-color="#fff" stop-opacity=".156863"/><stop offset="1" stop-color="#fff" stop-opacity=".392157"/></linearGradient><linearGradient id="e" gradientTransform="matrix(.40212523 0 0 .398023 52.35056 -7.790937)" gradientUnits="userSpaceOnUse" x1="-51.786404" x2="-51.786404" y1="53.514328" y2="3.633682"><stop offset="0" stop-opacity=".321739"/><stop offset="1" stop-opacity=".278261"/></linearGradient><g transform="translate(0 6)"><path d="m2.036-3.5624971c-.277 0-.5.223-.5.5v1.5625h-.5c-.277 0-.5.223-.5.49999999v1.76464998h21v-1.76464998c0-.27699999-.223-.49999999-.5-.49999999h-11.5000002v-1.5625c0-.277-.223-.5-.5-.5z" fill="none" opacity=".8" stroke="url(#e)"/><path d="m2.036-2.9999971v1.99999999h-1v3.00000001h20v-3.00000001h-12.0000002v-1.99999999z" fill="#cecece"/><path d="m2.536-2.4999971v1.99999999h-1v2.33929001h19v-2.33929001h-12v-1.99999999z" fill="none" stroke="url(#d)" stroke-linecap="round"/><path d="m1.3230422.99375244c-.50041004.05971156-.2669271.66566916-.3068171 1.01274386.0581.2242972-.0112151 11.3060137-.0112151 11.7031007 0 .345132.16413.286657.58003.286657h19.11518c.44803.01069.35334.0052.35334-.292099.0327-.15202-.04629-12.2560315-.02971-12.4547515 0-.20925.0421-.27157847-.22081-.27157847-6.57255 0-12.9074408.0159274-19.4799978.0159274z" fill="url(#c)"/><path d="m.536.00000289 21.00001.00019998c.30338 0 .49999.21522.49999.4828l-.016078 14.07038413c.007.33856-.10002.4728-.45251.4657l-20.9275468-.008c-.30338 0-.6093-.19981-.6093-.46739l.0054348-14.06017413c0-.26757.19662-.48299.5-.48299z" fill="url(#b)" opacity=".4"/><g fill="none" stroke-linecap="round"><path d="m1.5678548 1.4681481-.02975 12.0096739 18.9562698.0063.0098-11.9840701z" opacity=".5" stroke="url(#a)"/><path d="m.84522.50000293c-.50041.0575-.28945188.66312237-.32934188.99734237.0581.21599-.004618 12.3121997-.004618 12.6945797 0 .33235.16413.27604.58003.27604 6.15466 0 13.9002366.01593 20.0548966.01593.44803.0103.35334.005.35334-.28128.0327-.14639.01742-13.24972907.034-13.44108907 0-.2015.0421-.26152-.22081-.26152-6.57255 0-13.89494 0-20.467497-.000003z" opacity=".3" stroke="#000" stroke-linejoin="round"/></g></g><path d="m-22.291457 71.388563c-2.299269 0-4.161055 1.841265-4.161055 4.11113s1.861786 4.111129 4.161055 4.111129 4.161056-1.841264 4.161056-4.111129-1.861787-4.11113-4.161056-4.11113zm-8.787685 3.219906c-2.566137.000329-5.167852.64021-7.50736 1.782448-.0832.04077-.135092.113126-.160033.201246-.02529.08812-.02012.181154.02909.258742l3.375403 5.275472c.08553.134156.259284.190859.407375.129369 1.249292-.521801 2.545667-.776228 3.855525-.776228 4.818124 0 9.021595 3.527469 9.777027 8.207885.02529.157154.15934.273116.320082.273116h6.343429c.09252 0 .185104-.03289.247334-.100623.06224-.06773.09596-.152966.08731-.244369-.342116-3.472747-1.84481-6.835098-4.21926-9.444097-.107164-.118362-.286479-.129604-.421925-.04313-.957435.610904-2.043745.934348-3.142615.934348-3.205761 0-5.804779-2.573184-5.805112-5.721083.000333-.0016 0-.109728 0-.114985 0-.156832-.119018-.303655-.276433-.330616-1.002362-.171624-1.975356-.287487-2.909829-.287487zm-10.184404 3.449898c-.04393.01068-.09483.02973-.130938.05749-2.751502 2.093776-4.814967 5.038394-5.819659 8.294134-.03928.127252-.0043.262132.101843.344989 1.382739 1.082067 2.21147 2.747693 2.21147 4.456118 0 1.708427-.828399 3.374051-2.21147 4.456122-.105498.08252-.141105.217416-.101843.344991.996704 3.228451 3.043907 6.161839 5.761463 8.251009.07288.0562.15616.0876.247334.0718.09085-.0154.168642-.0815.218239-.1581l3.4045-5.26111c.08685-.134478.06325-.31132-.05819-.416864-2.132849-1.854083-3.360852-4.512545-3.360852-7.287914 0-2.796083 1.234806-5.46192 3.389949-7.316661.121463-.104876.15893-.281726.07275-.416862l-3.375406-5.275468c-.04926-.07694-.12739-.127958-.218237-.143752-.04543-.0079-.087-.01068-.130939 0zm-9.384199 9.027238c-2.353119 0-4.262901 1.888498-4.262901 4.21175s1.909782 4.197378 4.262901 4.197378c2.353122 0 4.262901-1.874126 4.262901-4.197378s-1.909779-4.21175-4.262901-4.21175zm36.009141 5.433588-6.343429.01432c-.160076.000326-.309004.117272-.334631.273115-.765747 4.645563-4.957664 8.150382-9.762478 8.150382-1.325167 0-2.635902-.27035-3.899172-.80497-.147767-.0621-.320517-.0182-.407375.11498l-3.404501 5.27547c-.04958.0773-.05373.1703-.02909.25875.02462.0881.07716.16046.160032.20124 2.357812 1.16625 4.984347 1.78245 7.580105 1.78245.96276 0 1.967901-.0952 2.982576-.27311.142424-.0247.244913-.13141.261884-.27312.338114-2.88519 2.80772-5.05986 5.746915-5.05986.911177 0 1.848969.22723 2.691591.66124.128126.0661.276777.0448.378278-.0575 2.657322-2.67739 4.337206-6.207335 4.713923-9.918458.0093-.0911-.02472-.176304-.08728-.24437-.06256-.06806-.15482-.100965-.247337-.100622zm-7.492814 11.111557c-2.35312 0-4.262898 1.87173-4.262898 4.183 0 2.31126 1.909778 4.183 4.262898 4.183 2.353122 0 4.262903-1.87174 4.262903-4.183 0-2.31127-1.909781-4.183-4.262903-4.183z" fill="#6e0000" stroke-width=".864399" transform="matrix(.27088134948 0 0 .27088134018 20.37426932417 -11.33782925775)"/></svg>